<?xml version="1.0" encoding="utf-8"?>
<!-- Generator: Adobe Illustrator 20.1.0, SVG Export Plug-In . SVG Version: 6.00 Build 0)  -->
<svg version="1.1" id="Layer_1" xmlns="http://www.w3.org/2000/svg" xmlns:xlink="http://www.w3.org/1999/xlink" x="0px" y="0px"
	 viewBox="0 0 31.2 30.8" style="enable-background:new 0 0 31.2 30.8;" xml:space="preserve">
<style type="text/css">
	.st0{fill:#F47923;}
	.st1{fill:#FFFFFF;}
</style>
<circle class="st0" cx="16.1" cy="14.9" r="12.5"/>
<g>
	<path class="st1" d="M21,18.7v2.1h-9.4v-1.8l4.8-4.9c0.5-0.5,0.8-0.9,1.1-1.4c0.3-0.4,0.4-0.8,0.4-1.2c0-0.5-0.2-0.8-0.5-1.1
		c-0.4-0.3-0.9-0.4-1.5-0.4c-0.6,0-1.1,0.1-1.8,0.4c-0.6,0.3-1.2,0.7-1.8,1.2l-1-1.9c0.7-0.6,1.5-1,2.4-1.3c0.8-0.3,1.7-0.5,2.5-0.5
		c0.8,0,1.6,0.1,2.2,0.4c0.6,0.3,1.1,0.6,1.5,1.1c0.4,0.5,0.5,1.1,0.5,1.7c0,0.6-0.2,1.3-0.6,2c-0.4,0.7-1,1.4-1.8,2.2l-3.2,3.3H21z
		"/>
</g>
</svg>
