<?xml version="1.0" encoding="utf-8"?>
<!-- Generator: Adobe Illustrator 20.1.0, SVG Export Plug-In . SVG Version: 6.00 Build 0)  -->
<svg version="1.1" id="Layer_1" xmlns="http://www.w3.org/2000/svg" xmlns:xlink="http://www.w3.org/1999/xlink" x="0px" y="0px"
	 viewBox="0 0 170 70.7" style="enable-background:new 0 0 170 70.7;" xml:space="preserve">
<style type="text/css">
	.st0{fill:#005BA4;}
	.st1{fill:#FFFFFF;}
	.st2{fill:#6D6E71;}
</style>
<path class="st0" d="M68.7,28.4H13.5c-4.8,0-8.7-3.9-8.7-8.7V19c0-4.8,3.9-8.7,8.7-8.7h55.2c4.8,0,8.7,3.9,8.7,8.7v0.8
	C77.4,24.5,73.5,28.4,68.7,28.4z"/>
<g>
	<path class="st1" d="M13.5,14.2h3.9v9.6h-1.8v-8h-2V14.2z"/>
	<path class="st1" d="M22,19.2v-0.5c-0.1,0.2-0.3,0.3-0.6,0.4c-0.2,0.1-0.5,0.1-0.8,0.1c-0.3,0-0.6-0.1-0.8-0.2
		c-0.2-0.1-0.4-0.3-0.5-0.5c-0.1-0.2-0.2-0.4-0.2-0.7c0-0.4,0.1-0.7,0.4-0.9c0.3-0.2,0.7-0.3,1.2-0.3H22v-0.1c0-0.3-0.1-0.4-0.2-0.6
		c-0.2-0.1-0.4-0.2-0.7-0.2c-0.4,0-0.8,0.1-1.3,0.4l-0.4-0.7c0.3-0.2,0.6-0.3,0.9-0.4c0.3-0.1,0.6-0.1,1-0.1c0.6,0,1,0.1,1.3,0.4
		c0.3,0.3,0.5,0.6,0.5,1.1l0,2.8H22z M21.6,18.3c0.2-0.1,0.3-0.3,0.4-0.5v-0.4h-1.1c-0.3,0-0.5,0-0.6,0.1c-0.1,0.1-0.2,0.2-0.2,0.4
		c0,0.2,0.1,0.3,0.2,0.4c0.1,0.1,0.3,0.2,0.6,0.2C21.1,18.5,21.4,18.4,21.6,18.3z"/>
	<path class="st1" d="M33.8,16.1c-0.5-0.2-0.9-0.3-1.4-0.3c-0.6,0-1.1,0.1-1.6,0.4c-0.5,0.3-0.9,0.7-1.2,1.2c-0.3,0.5-0.4,1-0.4,1.6
		c0,0.6,0.1,1.1,0.4,1.6c0.3,0.5,0.7,0.9,1.2,1.2c0.5,0.3,1,0.4,1.6,0.4c0.5,0,0.9-0.1,1.4-0.3c0.5-0.2,0.9-0.5,1.2-0.8l1.1,1.2
		c-0.5,0.5-1.1,0.9-1.8,1.2c-0.7,0.3-1.3,0.4-2,0.4c-0.9,0-1.8-0.2-2.5-0.7c-0.8-0.4-1.4-1-1.8-1.8c-0.4-0.8-0.7-1.6-0.7-2.5
		c0-0.9,0.2-1.8,0.7-2.5c0.4-0.8,1.1-1.3,1.8-1.8c0.8-0.4,1.6-0.6,2.6-0.6c0.7,0,1.4,0.1,2,0.4c0.7,0.3,1.2,0.7,1.7,1.1L35,17
		C34.7,16.6,34.3,16.3,33.8,16.1z"/>
	<path class="st1" d="M41.9,23.8v-0.9c-0.3,0.3-0.6,0.6-1,0.7c-0.4,0.2-0.9,0.2-1.4,0.2c-0.5,0-1-0.1-1.4-0.3
		c-0.4-0.2-0.7-0.5-0.9-0.8c-0.2-0.3-0.3-0.7-0.3-1.2c0-0.7,0.2-1.2,0.7-1.6c0.5-0.4,1.2-0.6,2.1-0.6h2.1v-0.2c0-0.4-0.1-0.8-0.4-1
		c-0.3-0.2-0.7-0.4-1.2-0.4c-0.7,0-1.4,0.2-2.2,0.7l-0.6-1.2c0.6-0.3,1.1-0.6,1.6-0.7c0.5-0.1,1-0.2,1.7-0.2c1,0,1.7,0.2,2.2,0.7
		c0.5,0.5,0.8,1.1,0.8,1.9l0,4.8H41.9z M41.3,22.2c0.4-0.2,0.6-0.5,0.6-0.9v-0.7H40c-0.5,0-0.8,0.1-1.1,0.2
		c-0.2,0.1-0.3,0.4-0.3,0.7c0,0.3,0.1,0.6,0.4,0.7c0.2,0.2,0.6,0.3,1,0.3C40.5,22.5,40.9,22.4,41.3,22.2z"/>
	<path class="st1" d="M51.8,16.9c0.5,0.3,0.9,0.8,1.2,1.3c0.3,0.6,0.4,1.2,0.4,2c0,0.7-0.1,1.4-0.4,1.9c-0.3,0.6-0.7,1-1.2,1.3
		c-0.5,0.3-1.1,0.5-1.8,0.5c-0.5,0-1-0.1-1.5-0.3c-0.4-0.2-0.8-0.5-1-0.9v3.9h-1.8v-10h1.8v1.2c0.3-0.4,0.6-0.7,1-0.9
		c0.4-0.2,0.9-0.3,1.5-0.3C50.7,16.4,51.3,16.6,51.8,16.9z M51.1,21.7c0.4-0.4,0.6-1,0.6-1.6c0-0.7-0.2-1.2-0.6-1.6
		c-0.4-0.4-0.9-0.6-1.5-0.6c-0.6,0-1.1,0.2-1.5,0.6c-0.4,0.4-0.6,0.9-0.6,1.6c0,0.7,0.2,1.2,0.6,1.6c0.4,0.4,0.9,0.6,1.5,0.6
		C50.2,22.3,50.7,22.1,51.1,21.7z"/>
	<path class="st1" d="M59.4,23.8v-0.9c-0.3,0.3-0.6,0.6-1,0.7c-0.4,0.2-0.9,0.2-1.4,0.2c-0.5,0-1-0.1-1.4-0.3
		c-0.4-0.2-0.7-0.5-0.9-0.8c-0.2-0.3-0.3-0.7-0.3-1.2c0-0.7,0.2-1.2,0.7-1.6c0.5-0.4,1.2-0.6,2.1-0.6h2.1v-0.2c0-0.4-0.1-0.8-0.4-1
		c-0.3-0.2-0.7-0.4-1.2-0.4c-0.7,0-1.4,0.2-2.2,0.7l-0.6-1.2c0.6-0.3,1.1-0.6,1.6-0.7c0.5-0.1,1-0.2,1.7-0.2c1,0,1.7,0.2,2.2,0.7
		c0.5,0.5,0.8,1.1,0.8,1.9l0,4.8H59.4z M58.7,22.2c0.4-0.2,0.6-0.5,0.6-0.9v-0.7h-1.9c-0.5,0-0.8,0.1-1.1,0.2
		c-0.2,0.1-0.3,0.4-0.3,0.7c0,0.3,0.1,0.6,0.4,0.7c0.2,0.2,0.6,0.3,1,0.3C57.9,22.5,58.4,22.4,58.7,22.2z"/>
	<path class="st1" d="M64.2,18.2c0.2,0.2,0.3,0.4,0.3,0.7c0,0.3-0.1,0.5-0.3,0.7c-0.2,0.2-0.4,0.3-0.7,0.3c-0.3,0-0.5-0.1-0.7-0.3
		s-0.3-0.4-0.3-0.7c0-0.3,0.1-0.5,0.3-0.7s0.4-0.3,0.7-0.3C63.8,17.9,64.1,18,64.2,18.2z M64.2,22.2c0.2,0.2,0.3,0.4,0.3,0.7
		c0,0.3-0.1,0.5-0.3,0.7c-0.2,0.2-0.4,0.3-0.7,0.3c-0.3,0-0.5-0.1-0.7-0.3s-0.3-0.4-0.3-0.7c0-0.3,0.1-0.5,0.3-0.7
		c0.2-0.2,0.4-0.3,0.7-0.3C63.8,22,64.1,22.1,64.2,22.2z"/>
</g>
<g>
	<path class="st2" d="M13.3,47.5l-1-2.3H7.3l-1,2.3H4.9l4.3-9.6h1.4l4.3,9.6H13.3z M7.8,44h4l-2-4.7L7.8,44z"/>
	<path class="st2" d="M17.4,49.8c-0.4,0.3-0.8,0.4-1.3,0.4c-0.3,0-0.6,0-0.9-0.1c-0.3-0.1-0.5-0.2-0.7-0.4l0.6-1
		c0.3,0.2,0.6,0.3,1,0.3c0.5,0,1-0.3,1.2-0.9l0.3-0.6l-3-7.2h1.3l2.3,5.8l2.2-5.8h1.3l-3.3,8.3C18.1,49.1,17.8,49.5,17.4,49.8z"/>
	<path class="st2" d="M29.3,40.2v7.3H28V46c-0.5,1-1.4,1.6-2.7,1.6c-0.8,0-1.5-0.2-2-0.7c-0.5-0.5-0.7-1.2-0.7-2.1v-4.5h1.3v4.2
		c0,0.6,0.2,1.1,0.5,1.4c0.3,0.3,0.8,0.5,1.4,0.5c0.7,0,1.2-0.2,1.6-0.7c0.4-0.5,0.6-1.1,0.6-1.8v-3.6H29.3z"/>
	<path class="st2" d="M38.5,37.3v10.2h-1.3V46c-0.3,0.5-0.6,0.9-1.1,1.1c-0.5,0.3-1,0.4-1.6,0.4c-0.7,0-1.3-0.2-1.8-0.5
		c-0.5-0.3-0.9-0.8-1.2-1.3c-0.3-0.6-0.4-1.2-0.4-1.9c0-0.7,0.1-1.3,0.4-1.9c0.3-0.6,0.7-1,1.2-1.3c0.5-0.3,1.1-0.5,1.8-0.5
		c0.6,0,1.2,0.1,1.6,0.4c0.5,0.3,0.8,0.6,1.1,1.1v-4.4H38.5z M36.1,46.1c0.4-0.2,0.7-0.5,0.9-0.9c0.2-0.4,0.3-0.8,0.3-1.3
		c0-0.5-0.1-1-0.3-1.3c-0.2-0.4-0.5-0.7-0.9-0.9c-0.4-0.2-0.8-0.3-1.3-0.3c-0.5,0-0.9,0.1-1.3,0.3c-0.4,0.2-0.7,0.5-0.9,0.9
		c-0.2,0.4-0.3,0.8-0.3,1.3c0,0.5,0.1,0.9,0.3,1.3c0.2,0.4,0.5,0.7,0.9,0.9c0.4,0.2,0.8,0.3,1.3,0.3C35.3,46.5,35.7,46.4,36.1,46.1z
		"/>
	<path class="st2" d="M45.5,47.5v-1c-0.5,0.7-1.4,1.1-2.5,1.1c-0.5,0-0.9-0.1-1.3-0.3c-0.4-0.2-0.7-0.5-0.9-0.8
		c-0.2-0.3-0.3-0.7-0.3-1.1c0-0.7,0.2-1.2,0.7-1.5c0.5-0.4,1.2-0.6,2-0.6h2.3v-0.3c0-0.5-0.2-0.9-0.5-1.2c-0.3-0.3-0.8-0.4-1.4-0.4
		c-0.7,0-1.5,0.3-2.2,0.8l-0.5-0.9c0.5-0.3,1-0.6,1.5-0.7c0.4-0.2,1-0.2,1.6-0.2c0.9,0,1.6,0.2,2.1,0.7c0.5,0.4,0.7,1.1,0.8,1.9
		l0,4.8H45.5z M44.8,46.1c0.4-0.3,0.7-0.7,0.7-1.1v-0.7h-2.1c-0.6,0-1,0.1-1.3,0.3c-0.3,0.2-0.4,0.4-0.4,0.8c0,0.4,0.1,0.7,0.4,0.9
		c0.3,0.2,0.7,0.3,1.1,0.3C43.9,46.5,44.4,46.3,44.8,46.1z"/>
	<path class="st2" d="M57.1,47.5v-1c-0.5,0.7-1.4,1.1-2.5,1.1c-0.5,0-0.9-0.1-1.3-0.3c-0.4-0.2-0.7-0.5-0.9-0.8
		c-0.2-0.3-0.3-0.7-0.3-1.1c0-0.7,0.2-1.2,0.7-1.5c0.5-0.4,1.2-0.6,2-0.6h2.3v-0.3c0-0.5-0.2-0.9-0.5-1.2c-0.3-0.3-0.8-0.4-1.4-0.4
		c-0.7,0-1.5,0.3-2.2,0.8l-0.5-0.9c0.5-0.3,1-0.6,1.5-0.7c0.4-0.2,1-0.2,1.6-0.2c0.9,0,1.6,0.2,2.1,0.7c0.5,0.4,0.7,1.1,0.8,1.9
		l0,4.8H57.1z M56.4,46.1c0.4-0.3,0.7-0.7,0.7-1.1v-0.7H55c-0.6,0-1,0.1-1.3,0.3c-0.3,0.2-0.4,0.4-0.4,0.8c0,0.4,0.1,0.7,0.4,0.9
		c0.3,0.2,0.7,0.3,1.1,0.3C55.4,46.5,56,46.3,56.4,46.1z"/>
	<path class="st2" d="M67.3,41.4c-0.4-0.1-0.7-0.2-1-0.2c-0.4,0-0.7,0.1-0.9,0.2c-0.2,0.1-0.4,0.4-0.4,0.7c0,0.3,0.1,0.5,0.4,0.7
		c0.3,0.2,0.7,0.3,1.2,0.5c0.5,0.1,0.9,0.3,1.2,0.4c0.3,0.1,0.6,0.4,0.8,0.6c0.2,0.3,0.3,0.7,0.3,1.1c0,0.7-0.3,1.2-0.8,1.6
		c-0.5,0.4-1.2,0.5-1.9,0.5c-0.5,0-1.1-0.1-1.6-0.3c-0.5-0.2-0.9-0.4-1.3-0.7l0.5-0.9c0.3,0.3,0.7,0.5,1.1,0.7
		c0.4,0.2,0.9,0.2,1.3,0.2c0.4,0,0.8-0.1,1-0.2c0.3-0.2,0.4-0.4,0.4-0.7c0-0.3-0.1-0.6-0.4-0.7c-0.3-0.2-0.7-0.3-1.2-0.5
		c-0.5-0.1-0.9-0.3-1.2-0.4c-0.3-0.1-0.6-0.4-0.8-0.6c-0.2-0.3-0.3-0.6-0.3-1.1c0-0.7,0.2-1.2,0.7-1.5c0.5-0.3,1.1-0.5,1.9-0.5
		c0.4,0,0.9,0.1,1.3,0.2c0.4,0.1,0.8,0.3,1.1,0.5l-0.5,1C68,41.6,67.6,41.5,67.3,41.4z"/>
	<path class="st2" d="M75.6,40.6c0.6,0.3,1,0.7,1.3,1.3c0.3,0.6,0.5,1.2,0.5,1.9c0,0.7-0.2,1.4-0.5,1.9c-0.3,0.6-0.8,1-1.3,1.3
		c-0.6,0.3-1.2,0.5-1.9,0.5c-0.7,0-1.4-0.2-1.9-0.5c-0.6-0.3-1-0.7-1.3-1.3c-0.3-0.6-0.5-1.2-0.5-1.9c0-0.7,0.2-1.3,0.5-1.9
		c0.3-0.6,0.8-1,1.3-1.3c0.6-0.3,1.2-0.5,1.9-0.5C74.4,40.2,75,40.3,75.6,40.6z M72.4,41.6c-0.4,0.2-0.7,0.5-0.9,0.9
		c-0.2,0.4-0.3,0.8-0.3,1.3c0,0.5,0.1,1,0.3,1.3c0.2,0.4,0.5,0.7,0.9,0.9c0.4,0.2,0.8,0.3,1.3,0.3c0.5,0,0.9-0.1,1.3-0.3
		c0.4-0.2,0.7-0.5,0.9-0.9c0.2-0.4,0.3-0.8,0.3-1.3c0-0.5-0.1-0.9-0.3-1.3c-0.2-0.4-0.5-0.7-0.9-0.9c-0.4-0.2-0.8-0.3-1.3-0.3
		C73.2,41.3,72.7,41.4,72.4,41.6z"/>
	<path class="st2" d="M85,40.6c0.5,0.3,0.9,0.7,1.2,1.3c0.3,0.6,0.4,1.2,0.4,1.9c0,0.7-0.1,1.3-0.4,1.9c-0.3,0.6-0.7,1-1.2,1.3
		c-0.5,0.3-1.1,0.5-1.8,0.5c-0.6,0-1.2-0.1-1.6-0.4c-0.5-0.3-0.8-0.6-1.1-1.1v4.1h-1.3v-9.9h1.3v1.4c0.3-0.5,0.6-0.8,1.1-1.1
		c0.5-0.3,1-0.4,1.6-0.4C83.9,40.2,84.5,40.3,85,40.6z M84.2,46.1c0.4-0.2,0.7-0.5,0.9-0.9c0.2-0.4,0.3-0.8,0.3-1.3
		c0-0.5-0.1-0.9-0.3-1.3c-0.2-0.4-0.5-0.7-0.9-0.9c-0.4-0.2-0.8-0.3-1.3-0.3c-0.5,0-0.9,0.1-1.3,0.3c-0.4,0.2-0.7,0.5-0.9,0.9
		c-0.2,0.4-0.3,0.8-0.3,1.3c0,0.5,0.1,1,0.3,1.3c0.2,0.4,0.5,0.7,0.9,0.9c0.4,0.2,0.8,0.3,1.3,0.3C83.4,46.4,83.8,46.3,84.2,46.1z"
		/>
	<path class="st2" d="M93.4,40.6c0.6,0.3,1,0.7,1.3,1.3c0.3,0.6,0.5,1.2,0.5,1.9c0,0.7-0.2,1.4-0.5,1.9c-0.3,0.6-0.8,1-1.3,1.3
		c-0.6,0.3-1.2,0.5-1.9,0.5c-0.7,0-1.4-0.2-1.9-0.5c-0.6-0.3-1-0.7-1.3-1.3c-0.3-0.6-0.5-1.2-0.5-1.9c0-0.7,0.2-1.3,0.5-1.9
		c0.3-0.6,0.8-1,1.3-1.3c0.6-0.3,1.2-0.5,1.9-0.5C92.2,40.2,92.9,40.3,93.4,40.6z M90.2,41.6c-0.4,0.2-0.7,0.5-0.9,0.9
		c-0.2,0.4-0.3,0.8-0.3,1.3c0,0.5,0.1,1,0.3,1.3c0.2,0.4,0.5,0.7,0.9,0.9c0.4,0.2,0.8,0.3,1.3,0.3c0.5,0,0.9-0.1,1.3-0.3
		c0.4-0.2,0.7-0.5,0.9-0.9c0.2-0.4,0.3-0.8,0.3-1.3c0-0.5-0.1-0.9-0.3-1.3c-0.2-0.4-0.5-0.7-0.9-0.9c-0.4-0.2-0.8-0.3-1.3-0.3
		C91,41.3,90.6,41.4,90.2,41.6z"/>
	<path class="st2" d="M99.3,40.6c0.4-0.3,1-0.4,1.6-0.4v1.2c-0.7,0-1.3,0.2-1.8,0.6c-0.5,0.4-0.7,1-0.8,1.7v3.8H97v-7.3h1.3v1.6
		C98.5,41.3,98.9,40.9,99.3,40.6z"/>
	<path class="st2" d="M106.2,47c-0.6,0.4-1.1,0.5-1.7,0.5c-0.6,0-1-0.2-1.4-0.5c-0.4-0.3-0.5-0.9-0.5-1.6v-4h-1v-1h1v-2h1.3v2h2.2v1
		h-2.2v3.8c0,0.4,0.1,0.7,0.2,0.9c0.1,0.2,0.4,0.3,0.7,0.3c0.3,0,0.7-0.1,1.1-0.3L106.2,47z"/>
	<path class="st2" d="M112.2,47.5v-1c-0.5,0.7-1.4,1.1-2.5,1.1c-0.5,0-0.9-0.1-1.3-0.3c-0.4-0.2-0.7-0.5-0.9-0.8
		c-0.2-0.3-0.3-0.7-0.3-1.1c0-0.7,0.2-1.2,0.7-1.5c0.5-0.4,1.2-0.6,2-0.6h2.3v-0.3c0-0.5-0.2-0.9-0.5-1.2c-0.3-0.3-0.8-0.4-1.4-0.4
		c-0.7,0-1.5,0.3-2.2,0.8l-0.5-0.9c0.5-0.3,1-0.6,1.5-0.7c0.4-0.2,1-0.2,1.6-0.2c0.9,0,1.6,0.2,2.1,0.7c0.5,0.4,0.7,1.1,0.8,1.9
		l0,4.8H112.2z M111.4,46.1c0.4-0.3,0.7-0.7,0.7-1.1v-0.7H110c-0.6,0-1,0.1-1.3,0.3c-0.3,0.2-0.4,0.4-0.4,0.8c0,0.4,0.1,0.7,0.4,0.9
		c0.3,0.2,0.7,0.3,1.1,0.3C110.5,46.5,111,46.3,111.4,46.1z"/>
	<path class="st2" d="M118,40.6c0.4-0.3,1-0.4,1.6-0.4v1.2c-0.7,0-1.3,0.2-1.8,0.6c-0.5,0.4-0.7,1-0.8,1.7v3.8h-1.3v-7.3h1.3v1.6
		C117.2,41.3,117.6,40.9,118,40.6z"/>
	<path class="st2" d="M130,41.2c0.6,0.7,0.9,1.6,0.9,2.8c0,0.2,0,0.3,0,0.4h-5.7c0.1,0.7,0.4,1.2,0.8,1.6c0.4,0.4,1,0.6,1.6,0.6
		c0.4,0,0.8-0.1,1.2-0.2c0.4-0.2,0.7-0.4,1-0.7l0.7,0.7c-0.4,0.4-0.8,0.7-1.3,0.9c-0.5,0.2-1.1,0.3-1.7,0.3c-0.7,0-1.4-0.2-1.9-0.5
		c-0.6-0.3-1-0.7-1.3-1.3c-0.3-0.6-0.5-1.2-0.5-1.9c0-0.7,0.2-1.3,0.5-1.9c0.3-0.6,0.7-1,1.3-1.3c0.5-0.3,1.2-0.5,1.9-0.5
		C128.6,40.2,129.4,40.5,130,41.2z M129.7,43.4c0-0.7-0.3-1.2-0.7-1.6c-0.4-0.4-0.9-0.6-1.6-0.6c-0.6,0-1.2,0.2-1.6,0.6
		c-0.4,0.4-0.7,0.9-0.8,1.6H129.7z"/>
	<path class="st2" d="M132.7,37.3h1.3v10.2h-1.3V37.3z"/>
	<path class="st2" d="M11.9,57.5c0.5,0.3,0.9,0.7,1.2,1.3c0.3,0.6,0.4,1.2,0.4,1.9c0,0.7-0.1,1.3-0.4,1.9c-0.3,0.6-0.7,1-1.2,1.3
		c-0.5,0.3-1.1,0.5-1.8,0.5c-0.6,0-1.2-0.1-1.6-0.4c-0.5-0.3-0.8-0.6-1.1-1.1v4.1H6.1v-9.9h1.3v1.4c0.3-0.5,0.6-0.8,1.1-1.1
		c0.5-0.3,1-0.4,1.6-0.4C10.8,57.1,11.4,57.2,11.9,57.5z M11.1,63c0.4-0.2,0.7-0.5,0.9-0.9c0.2-0.4,0.3-0.8,0.3-1.3
		c0-0.5-0.1-0.9-0.3-1.3c-0.2-0.4-0.5-0.7-0.9-0.9c-0.4-0.2-0.8-0.3-1.3-0.3c-0.5,0-0.9,0.1-1.3,0.3c-0.4,0.2-0.7,0.5-0.9,0.9
		c-0.2,0.4-0.3,0.8-0.3,1.3c0,0.5,0.1,1,0.3,1.3c0.2,0.4,0.5,0.7,0.9,0.9s0.8,0.3,1.3,0.3C10.3,63.3,10.8,63.2,11.1,63z"/>
	<path class="st2" d="M15.5,54.8h1.3v4.3h5.5v-4.3h1.3v9.6h-1.3v-4.1h-5.5v4.1h-1.3V54.8z"/>
	<path class="st2" d="M34.3,64.4v-1c-0.5,0.7-1.4,1.1-2.5,1.1c-0.5,0-0.9-0.1-1.3-0.3c-0.4-0.2-0.7-0.5-0.9-0.8
		c-0.2-0.3-0.3-0.7-0.3-1.1c0-0.7,0.2-1.2,0.7-1.5c0.5-0.4,1.2-0.6,2-0.6h2.3v-0.3c0-0.5-0.2-0.9-0.5-1.2c-0.3-0.3-0.8-0.4-1.4-0.4
		c-0.7,0-1.5,0.3-2.2,0.8L29.7,58c0.5-0.3,1-0.6,1.5-0.7c0.4-0.2,1-0.2,1.6-0.2c0.9,0,1.6,0.2,2.1,0.7c0.5,0.4,0.7,1.1,0.8,1.9
		l0,4.8H34.3z M33.6,63c0.4-0.3,0.7-0.7,0.7-1.1v-0.7h-2.1c-0.6,0-1,0.1-1.3,0.3c-0.3,0.2-0.4,0.4-0.4,0.8c0,0.4,0.1,0.7,0.4,0.9
		c0.3,0.2,0.7,0.3,1.1,0.3C32.7,63.4,33.2,63.2,33.6,63z M33.3,54.1l1.3,0.6L33,56l-1.1-0.1L33.3,54.1z"/>
	<path class="st2" d="M40.9,58.2c-0.5,0-0.9,0.1-1.3,0.3c-0.4,0.2-0.7,0.5-0.9,0.9c-0.2,0.4-0.3,0.8-0.3,1.3c0,0.5,0.1,0.9,0.3,1.3
		c0.2,0.4,0.5,0.7,0.9,0.9c0.4,0.2,0.8,0.3,1.2,0.3c0.5,0,0.9-0.1,1.3-0.2c0.4-0.2,0.7-0.4,0.9-0.7l0.7,0.7
		c-0.3,0.4-0.7,0.7-1.3,0.9c-0.5,0.2-1.1,0.3-1.7,0.3c-0.7,0-1.3-0.2-1.9-0.5c-0.5-0.3-1-0.7-1.3-1.3c-0.3-0.6-0.5-1.2-0.5-1.9
		c0-0.7,0.2-1.4,0.5-1.9c0.3-0.6,0.7-1,1.3-1.3c0.5-0.3,1.2-0.5,1.9-0.5c0.6,0,1.2,0.1,1.7,0.3c0.5,0.2,0.9,0.5,1.2,0.8L43,59.1
		C42.4,58.5,41.7,58.2,40.9,58.2z"/>
	<path class="st2" d="M46.8,54.4C47,54.6,47,54.8,47,55s-0.1,0.4-0.2,0.6c-0.2,0.2-0.3,0.2-0.6,0.2s-0.4-0.1-0.6-0.2
		c-0.2-0.2-0.2-0.4-0.2-0.6s0.1-0.4,0.2-0.6c0.2-0.2,0.3-0.2,0.6-0.2S46.7,54.3,46.8,54.4z M45.6,57.1h1.3v7.3h-1.3V57.1z"/>
	<path class="st2" d="M56.2,54.2v10.2h-1.3v-1.4c-0.3,0.5-0.6,0.9-1.1,1.1c-0.5,0.3-1,0.4-1.6,0.4c-0.7,0-1.3-0.2-1.8-0.5
		c-0.5-0.3-0.9-0.8-1.2-1.3c-0.3-0.6-0.4-1.2-0.4-1.9c0-0.7,0.1-1.3,0.4-1.9c0.3-0.6,0.7-1,1.2-1.3c0.5-0.3,1.1-0.5,1.8-0.5
		c0.6,0,1.2,0.1,1.6,0.4c0.5,0.3,0.8,0.6,1.1,1.1v-4.4H56.2z M53.7,63c0.4-0.2,0.7-0.5,0.9-0.9c0.2-0.4,0.3-0.8,0.3-1.3
		c0-0.5-0.1-1-0.3-1.3c-0.2-0.4-0.5-0.7-0.9-0.9c-0.4-0.2-0.8-0.3-1.3-0.3c-0.5,0-0.9,0.1-1.3,0.3c-0.4,0.2-0.7,0.5-0.9,0.9
		c-0.2,0.4-0.3,0.8-0.3,1.3c0,0.5,0.1,0.9,0.3,1.3c0.2,0.4,0.5,0.7,0.9,0.9c0.4,0.2,0.8,0.3,1.3,0.3C52.9,63.4,53.3,63.2,53.7,63z"
		/>
	<path class="st2" d="M63.7,57.5c0.6,0.3,1,0.7,1.3,1.3c0.3,0.6,0.5,1.2,0.5,1.9c0,0.7-0.2,1.4-0.5,1.9c-0.3,0.6-0.8,1-1.3,1.3
		c-0.6,0.3-1.2,0.5-1.9,0.5c-0.7,0-1.4-0.2-1.9-0.5c-0.6-0.3-1-0.7-1.3-1.3c-0.3-0.6-0.5-1.2-0.5-1.9c0-0.7,0.2-1.3,0.5-1.9
		c0.3-0.6,0.8-1,1.3-1.3c0.6-0.3,1.2-0.5,1.9-0.5C62.5,57.1,63.1,57.2,63.7,57.5z M60.5,58.5c-0.4,0.2-0.7,0.5-0.9,0.9
		c-0.2,0.4-0.3,0.8-0.3,1.3c0,0.5,0.1,1,0.3,1.3c0.2,0.4,0.5,0.7,0.9,0.9c0.4,0.2,0.8,0.3,1.3,0.3c0.5,0,0.9-0.1,1.3-0.3
		c0.4-0.2,0.7-0.5,0.9-0.9c0.2-0.4,0.3-0.8,0.3-1.3c0-0.5-0.1-0.9-0.3-1.3c-0.2-0.4-0.5-0.7-0.9-0.9c-0.4-0.2-0.8-0.3-1.3-0.3
		C61.3,58.2,60.9,58.3,60.5,58.5z"/>
	<path class="st2" d="M77.6,54.2v10.2h-1.3v-1.4c-0.3,0.5-0.6,0.9-1.1,1.1c-0.5,0.3-1,0.4-1.6,0.4c-0.7,0-1.3-0.2-1.8-0.5
		c-0.5-0.3-0.9-0.8-1.2-1.3c-0.3-0.6-0.4-1.2-0.4-1.9c0-0.7,0.1-1.3,0.4-1.9c0.3-0.6,0.7-1,1.2-1.3c0.5-0.3,1.1-0.5,1.8-0.5
		c0.6,0,1.2,0.1,1.6,0.4c0.5,0.3,0.8,0.6,1.1,1.1v-4.4H77.6z M75.2,63c0.4-0.2,0.7-0.5,0.9-0.9c0.2-0.4,0.3-0.8,0.3-1.3
		c0-0.5-0.1-1-0.3-1.3c-0.2-0.4-0.5-0.7-0.9-0.9c-0.4-0.2-0.8-0.3-1.3-0.3c-0.5,0-0.9,0.1-1.3,0.3c-0.4,0.2-0.7,0.5-0.9,0.9
		c-0.2,0.4-0.3,0.8-0.3,1.3c0,0.5,0.1,0.9,0.3,1.3c0.2,0.4,0.5,0.7,0.9,0.9c0.4,0.2,0.8,0.3,1.3,0.3C74.4,63.4,74.8,63.2,75.2,63z"
		/>
	<path class="st2" d="M85.7,58.1c0.6,0.7,0.9,1.6,0.9,2.8c0,0.2,0,0.3,0,0.4h-5.7c0.1,0.7,0.4,1.2,0.8,1.6c0.4,0.4,1,0.6,1.6,0.6
		c0.4,0,0.8-0.1,1.2-0.2c0.4-0.2,0.7-0.4,1-0.7l0.7,0.7c-0.4,0.4-0.8,0.7-1.3,0.9c-0.5,0.2-1.1,0.3-1.7,0.3c-0.7,0-1.4-0.2-1.9-0.5
		c-0.6-0.3-1-0.7-1.3-1.3c-0.3-0.6-0.5-1.2-0.5-1.9c0-0.7,0.2-1.3,0.5-1.9c0.3-0.6,0.7-1,1.3-1.3c0.5-0.3,1.2-0.5,1.9-0.5
		C84.3,57.1,85.1,57.4,85.7,58.1z M85.4,60.3c0-0.7-0.3-1.2-0.7-1.6c-0.4-0.4-0.9-0.6-1.6-0.6c-0.6,0-1.2,0.2-1.6,0.6
		c-0.4,0.4-0.7,0.9-0.8,1.6H85.4z"/>
	<path class="st2" d="M88.4,54.2h1.3v10.2h-1.3V54.2z"/>
	<path class="st2" d="M101.3,58.1c0.6,0.7,0.9,1.6,0.9,2.8c0,0.2,0,0.3,0,0.4h-5.7c0.1,0.7,0.4,1.2,0.8,1.6c0.4,0.4,1,0.6,1.6,0.6
		c0.4,0,0.8-0.1,1.2-0.2c0.4-0.2,0.7-0.4,1-0.7l0.7,0.7c-0.4,0.4-0.8,0.7-1.3,0.9c-0.5,0.2-1.1,0.3-1.7,0.3c-0.7,0-1.4-0.2-1.9-0.5
		c-0.6-0.3-1-0.7-1.3-1.3c-0.3-0.6-0.5-1.2-0.5-1.9c0-0.7,0.2-1.3,0.5-1.9c0.3-0.6,0.7-1,1.3-1.3c0.5-0.3,1.2-0.5,1.9-0.5
		C99.9,57.1,100.7,57.4,101.3,58.1z M101,60.3c0-0.7-0.3-1.2-0.7-1.6c-0.4-0.4-0.9-0.6-1.6-0.6c-0.6,0-1.2,0.2-1.6,0.6
		c-0.4,0.4-0.7,0.9-0.8,1.6H101z"/>
	<path class="st2" d="M106.9,58.3c-0.4-0.1-0.7-0.2-1-0.2c-0.4,0-0.7,0.1-0.9,0.2c-0.2,0.1-0.4,0.4-0.4,0.7c0,0.3,0.1,0.5,0.4,0.7
		c0.3,0.2,0.7,0.3,1.2,0.5c0.5,0.1,0.9,0.3,1.2,0.4c0.3,0.1,0.6,0.4,0.8,0.6c0.2,0.3,0.3,0.7,0.3,1.1c0,0.7-0.3,1.2-0.8,1.6
		c-0.5,0.4-1.2,0.5-1.9,0.5c-0.5,0-1.1-0.1-1.6-0.3c-0.5-0.2-0.9-0.4-1.3-0.7l0.5-0.9c0.3,0.3,0.7,0.5,1.1,0.7
		c0.4,0.2,0.9,0.2,1.3,0.2c0.4,0,0.8-0.1,1-0.2c0.3-0.2,0.4-0.4,0.4-0.7c0-0.3-0.1-0.6-0.4-0.7c-0.3-0.2-0.7-0.3-1.2-0.5
		c-0.5-0.1-0.9-0.3-1.2-0.4c-0.3-0.1-0.6-0.4-0.8-0.6c-0.2-0.3-0.3-0.6-0.3-1.1c0-0.7,0.2-1.2,0.7-1.5c0.5-0.3,1.1-0.5,1.9-0.5
		c0.4,0,0.9,0.1,1.3,0.2c0.4,0.1,0.8,0.3,1.1,0.5l-0.5,1C107.6,58.5,107.2,58.4,106.9,58.3z"/>
	<path class="st2" d="M114.1,63.9c-0.6,0.4-1.1,0.5-1.7,0.5c-0.6,0-1-0.2-1.4-0.5c-0.4-0.3-0.5-0.9-0.5-1.6v-4h-1v-1h1v-2h1.3v2h2.2
		v1h-2.2v3.8c0,0.4,0.1,0.7,0.2,0.9c0.1,0.2,0.4,0.3,0.7,0.3c0.3,0,0.7-0.1,1.1-0.3L114.1,63.9z"/>
	<path class="st2" d="M120.5,57.5c0.6,0.3,1,0.7,1.3,1.3c0.3,0.6,0.5,1.2,0.5,1.9c0,0.7-0.2,1.4-0.5,1.9c-0.3,0.6-0.8,1-1.3,1.3
		c-0.6,0.3-1.2,0.5-1.9,0.5c-0.7,0-1.4-0.2-1.9-0.5c-0.6-0.3-1-0.7-1.3-1.3c-0.3-0.6-0.5-1.2-0.5-1.9c0-0.7,0.2-1.3,0.5-1.9
		c0.3-0.6,0.8-1,1.3-1.3c0.6-0.3,1.2-0.5,1.9-0.5C119.3,57.1,120,57.2,120.5,57.5z M117.3,58.5c-0.4,0.2-0.7,0.5-0.9,0.9
		c-0.2,0.4-0.3,0.8-0.3,1.3c0,0.5,0.1,1,0.3,1.3c0.2,0.4,0.5,0.7,0.9,0.9c0.4,0.2,0.8,0.3,1.3,0.3c0.5,0,0.9-0.1,1.3-0.3
		c0.4-0.2,0.7-0.5,0.9-0.9c0.2-0.4,0.3-0.8,0.3-1.3c0-0.5-0.1-0.9-0.3-1.3c-0.2-0.4-0.5-0.7-0.9-0.9c-0.4-0.2-0.8-0.3-1.3-0.3
		C118.1,58.2,117.7,58.3,117.3,58.5z M119.4,54.1l1.3,0.6L119,56l-1.1-0.1L119.4,54.1z"/>
	<path class="st2" d="M135.5,57.8c0.5,0.5,0.7,1.2,0.7,2.1v4.5h-1.3v-4.2c0-0.6-0.2-1.1-0.5-1.4c-0.3-0.3-0.8-0.5-1.4-0.5
		c-0.7,0-1.2,0.3-1.6,0.7c-0.4,0.5-0.6,1.1-0.6,1.8v3.6h-1.3v-4.2c0-0.6-0.2-1.1-0.5-1.4c-0.3-0.3-0.8-0.5-1.4-0.5
		c-0.7,0-1.2,0.3-1.6,0.7c-0.4,0.5-0.6,1.1-0.6,1.8v3.6h-1.3v-7.3h1.3v1.5c0.5-1,1.4-1.5,2.7-1.6c0.7,0,1.2,0.2,1.7,0.5
		c0.4,0.3,0.7,0.8,0.9,1.3c0.4-1.2,1.4-1.8,2.8-1.8C134.3,57.1,135,57.3,135.5,57.8z"/>
	<path class="st2" d="M142.9,64.4v-1c-0.5,0.7-1.4,1.1-2.5,1.1c-0.5,0-0.9-0.1-1.3-0.3c-0.4-0.2-0.7-0.5-0.9-0.8
		c-0.2-0.3-0.3-0.7-0.3-1.1c0-0.7,0.2-1.2,0.7-1.5c0.5-0.4,1.2-0.6,2-0.6h2.3v-0.3c0-0.5-0.2-0.9-0.5-1.2c-0.3-0.3-0.8-0.4-1.4-0.4
		c-0.7,0-1.5,0.3-2.2,0.8l-0.5-0.9c0.5-0.3,1-0.6,1.5-0.7c0.4-0.2,1-0.2,1.6-0.2c0.9,0,1.6,0.2,2.1,0.7c0.5,0.4,0.7,1.1,0.8,1.9
		l0,4.8H142.9z M142.2,63c0.4-0.3,0.7-0.7,0.7-1.1v-0.7h-2.1c-0.6,0-1,0.1-1.3,0.3c-0.3,0.2-0.4,0.4-0.4,0.8c0,0.4,0.1,0.7,0.4,0.9
		c0.3,0.2,0.7,0.3,1.1,0.3C141.2,63.4,141.7,63.2,142.2,63z"/>
	<path class="st2" d="M152.9,57.1v6.5c0,0.7-0.2,1.3-0.5,1.8c-0.3,0.5-0.7,0.9-1.3,1.2c-0.6,0.3-1.2,0.4-2,0.4c-1.1,0-2.1-0.3-3-1
		l0.6-0.9c0.4,0.3,0.7,0.5,1.1,0.7c0.4,0.1,0.8,0.2,1.3,0.2c0.8,0,1.4-0.2,1.8-0.6c0.4-0.4,0.7-1,0.7-1.7v-1c-0.3,0.4-0.6,0.8-1,1
		c-0.4,0.2-0.9,0.4-1.5,0.4c-0.7,0-1.2-0.1-1.7-0.4c-0.5-0.3-0.9-0.7-1.2-1.2c-0.3-0.5-0.4-1.1-0.4-1.8c0-0.7,0.1-1.3,0.4-1.8
		c0.3-0.5,0.7-0.9,1.2-1.2c0.5-0.3,1.1-0.4,1.7-0.4c0.6,0,1.1,0.1,1.5,0.4c0.4,0.2,0.8,0.6,1,1v-1.3H152.9z M150.5,62.7
		c0.3-0.2,0.6-0.5,0.8-0.9c0.2-0.4,0.3-0.8,0.3-1.3c0-0.5-0.1-0.9-0.3-1.3c-0.2-0.4-0.5-0.7-0.8-0.9c-0.3-0.2-0.7-0.3-1.2-0.3
		s-0.9,0.1-1.2,0.3c-0.4,0.2-0.6,0.5-0.8,0.9c-0.2,0.4-0.3,0.8-0.3,1.3c0,0.7,0.2,1.3,0.7,1.8c0.4,0.5,1,0.7,1.7,0.7
		C149.7,63,150.1,62.9,150.5,62.7z"/>
	<path class="st2" d="M160.2,57.5c0.6,0.3,1,0.7,1.3,1.3c0.3,0.6,0.5,1.2,0.5,1.9c0,0.7-0.2,1.4-0.5,1.9c-0.3,0.6-0.8,1-1.3,1.3
		c-0.6,0.3-1.2,0.5-1.9,0.5c-0.7,0-1.4-0.2-1.9-0.5c-0.6-0.3-1-0.7-1.3-1.3c-0.3-0.6-0.5-1.2-0.5-1.9c0-0.7,0.2-1.3,0.5-1.9
		c0.3-0.6,0.8-1,1.3-1.3c0.6-0.3,1.2-0.5,1.9-0.5C159,57.1,159.6,57.2,160.2,57.5z M157,58.5c-0.4,0.2-0.7,0.5-0.9,0.9
		c-0.2,0.4-0.3,0.8-0.3,1.3c0,0.5,0.1,1,0.3,1.3c0.2,0.4,0.5,0.7,0.9,0.9c0.4,0.2,0.8,0.3,1.3,0.3c0.5,0,0.9-0.1,1.3-0.3
		c0.4-0.2,0.7-0.5,0.9-0.9c0.2-0.4,0.3-0.8,0.3-1.3c0-0.5-0.1-0.9-0.3-1.3c-0.2-0.4-0.5-0.7-0.9-0.9c-0.4-0.2-0.8-0.3-1.3-0.3
		C157.8,58.2,157.4,58.3,157,58.5z"/>
	<path class="st2" d="M166.3,57c0.3,0.3,0.5,0.6,0.5,1.1c0,0.3-0.1,0.7-0.3,0.9c-0.2,0.3-0.4,0.5-0.8,0.6c-0.3,0.1-0.7,0.2-1.1,0.2
		c-0.4,0-0.7-0.1-1.1-0.2c-0.4-0.1-0.7-0.2-0.9-0.4l0.3-0.6c0.2,0.2,0.5,0.3,0.8,0.4c0.3,0.1,0.6,0.1,0.8,0.1c0.5,0,0.8-0.1,1.1-0.3
		c0.3-0.2,0.4-0.5,0.4-0.8c0-0.3-0.1-0.6-0.4-0.8c-0.3-0.2-0.6-0.3-1.1-0.3h-0.8v-0.5l1.7-1.7h-2.6l0-0.7h3.6v0.5l-1.9,1.9l0.3,0
		C165.5,56.6,166,56.8,166.3,57z"/>
</g>
</svg>
