<?xml version="1.0" encoding="utf-8"?>
<!-- Generator: Adobe Illustrator 21.1.0, SVG Export Plug-In . SVG Version: 6.00 Build 0)  -->
<svg version="1.1" id="Layer_1" xmlns="http://www.w3.org/2000/svg" xmlns:xlink="http://www.w3.org/1999/xlink" x="0px" y="0px"
	 viewBox="0 0 395.7 42.2" style="enable-background:new 0 0 395.7 42.2;" xml:space="preserve">
<style type="text/css">
	.st0{fill:#F47923;}
</style>
<path class="st0" d="M12.3,25.6h6.6l-0.5,2.6H8.9L12,13h2.9L12.3,25.6z"/>
<path class="st0" d="M22.9,27.7c-0.7-0.4-1.3-1-1.7-1.8c-0.4-0.8-0.6-1.7-0.6-2.7c0-1.2,0.3-2.4,0.8-3.4c0.6-1,1.3-1.8,2.3-2.4
	s2-0.9,3.2-0.9c1,0,1.8,0.2,2.5,0.6s1.2,1,1.5,1.8l0.5-2.3h2.8l-2.3,11.6h-2.8l0.3-1.6c-0.5,0.6-1.1,1-1.8,1.3
	c-0.7,0.3-1.4,0.4-2.2,0.4C24.5,28.3,23.7,28.1,22.9,27.7z M28.3,25.5c0.6-0.4,1-0.9,1.4-1.5c0.3-0.6,0.5-1.3,0.5-2
	c0-0.9-0.3-1.7-0.8-2.2c-0.5-0.6-1.2-0.8-2.1-0.8c-0.7,0-1.3,0.2-1.9,0.5c-0.6,0.4-1,0.9-1.4,1.5c-0.3,0.6-0.5,1.3-0.5,2
	c0,0.9,0.3,1.6,0.8,2.2s1.2,0.8,2.1,0.8C27.1,26,27.8,25.8,28.3,25.5z"/>
<path class="st0" d="M38,27.7c-0.8-0.4-1.4-1.1-1.9-1.9c-0.4-0.8-0.7-1.7-0.7-2.8c0-1.3,0.3-2.4,0.8-3.4c0.6-1,1.3-1.8,2.3-2.3
	c1-0.6,2.1-0.8,3.3-0.8c1.1,0,2,0.2,2.8,0.6s1.4,0.9,1.9,1.6l-1.9,1.6c-0.7-0.9-1.7-1.3-2.9-1.3c-0.7,0-1.3,0.2-1.8,0.5
	s-1,0.8-1.3,1.4s-0.5,1.2-0.5,2c0,0.9,0.3,1.7,0.8,2.2c0.5,0.6,1.2,0.8,2.1,0.8c1.4,0,2.5-0.5,3.3-1.4l1.6,1.5
	c-0.6,0.8-1.3,1.3-2.2,1.7c-0.9,0.4-1.9,0.6-3,0.6C39.8,28.3,38.8,28.1,38,27.7z"/>
<path class="st0" d="M52.1,24.5c0,0.2-0.1,0.4-0.1,0.6c0,0.3,0.1,0.5,0.2,0.6c0.1,0.1,0.4,0.2,0.6,0.2c0.4,0,1.1-0.2,1.8-0.5
	l0.4,2.2c-1,0.5-2,0.8-3,0.8c-0.9,0-1.6-0.2-2.1-0.7s-0.8-1.1-0.8-2c0-0.3,0-0.6,0.1-0.9l1.1-5.6h-1.6l0.4-2.1h1.6l0.6-3.2h2.8
	L53.6,17h3.3l-0.4,2.1h-3.4L52.1,24.5z"/>
<path class="st0" d="M66.9,17.1c0.8,0.4,1.5,1.1,2,1.9s0.7,1.7,0.7,2.8c0,1.3-0.3,2.4-0.9,3.4s-1.4,1.8-2.4,2.3
	c-1,0.6-2.2,0.8-3.5,0.8c-1.1,0-2.1-0.2-2.9-0.7c-0.8-0.4-1.5-1.1-2-1.9C57.4,25,57.2,24,57.2,23c0-1.3,0.3-2.4,0.9-3.4
	c0.6-1,1.4-1.7,2.4-2.3c1-0.6,2.2-0.8,3.5-0.8C65.1,16.5,66,16.7,66.9,17.1z M61.8,19.4c-0.6,0.3-1,0.8-1.3,1.4s-0.5,1.3-0.5,2
	c0,0.9,0.3,1.7,0.8,2.3c0.5,0.6,1.2,0.9,2.1,0.9c0.7,0,1.3-0.2,1.9-0.5s1-0.8,1.3-1.4s0.5-1.3,0.5-2c0-0.9-0.3-1.7-0.8-2.3
	c-0.5-0.6-1.2-0.9-2.1-0.9C63,18.9,62.4,19.1,61.8,19.4z"/>
<path class="st0" d="M82.2,17.1c0.7,0.4,1.3,1,1.7,1.8c0.4,0.8,0.6,1.7,0.6,2.7c0,1.2-0.3,2.4-0.8,3.4c-0.6,1-1.3,1.8-2.3,2.4
	s-2,0.9-3.2,0.9c-1,0-1.8-0.2-2.5-0.6s-1.2-1-1.5-1.8l-0.5,2.3H71L74.2,12H77l-1.2,6.1c0.5-0.6,1.1-1,1.8-1.3
	c0.7-0.3,1.4-0.4,2.2-0.4C80.7,16.5,81.5,16.7,82.2,17.1z M76.8,19.3c-0.6,0.4-1,0.9-1.4,1.5c-0.3,0.6-0.5,1.3-0.5,2
	c0,0.9,0.3,1.7,0.8,2.2c0.5,0.6,1.2,0.8,2.1,0.8c0.7,0,1.3-0.2,1.9-0.5c0.6-0.4,1.1-0.9,1.4-1.5s0.5-1.3,0.5-2
	c0-0.9-0.3-1.6-0.8-2.2s-1.2-0.8-2.1-0.8C78,18.8,77.4,19,76.8,19.3z"/>
<path class="st0" d="M88.2,27.7c-0.7-0.4-1.3-1-1.7-1.8s-0.6-1.7-0.6-2.7c0-1.2,0.3-2.4,0.8-3.4c0.6-1,1.3-1.8,2.3-2.4
	s2-0.9,3.2-0.9c1,0,1.8,0.2,2.5,0.6s1.2,1,1.5,1.8l0.5-2.3h2.8l-2.3,11.6h-2.8l0.3-1.6c-0.5,0.6-1.1,1-1.8,1.3
	c-0.7,0.3-1.4,0.4-2.2,0.4C89.7,28.3,88.9,28.1,88.2,27.7z M93.6,25.5c0.6-0.4,1-0.9,1.4-1.5c0.3-0.6,0.5-1.3,0.5-2
	c0-0.9-0.3-1.7-0.8-2.2c-0.5-0.6-1.2-0.8-2.1-0.8c-0.7,0-1.3,0.2-1.9,0.5c-0.6,0.4-1,0.9-1.4,1.5c-0.3,0.6-0.5,1.3-0.5,2
	c0,0.9,0.3,1.6,0.8,2.2s1.2,0.8,2.1,0.8C92.4,26,93,25.8,93.6,25.5z"/>
<path class="st0" d="M103.3,27.7c-0.8-0.4-1.4-1.1-1.9-1.9c-0.4-0.8-0.7-1.7-0.7-2.8c0-1.3,0.3-2.4,0.8-3.4c0.6-1,1.3-1.8,2.3-2.3
	c1-0.6,2.1-0.8,3.3-0.8c1.1,0,2,0.2,2.8,0.6s1.4,0.9,1.9,1.6l-1.9,1.6c-0.7-0.9-1.7-1.3-2.9-1.3c-0.7,0-1.3,0.2-1.8,0.5
	s-1,0.8-1.3,1.4s-0.5,1.2-0.5,2c0,0.9,0.3,1.7,0.8,2.2c0.5,0.6,1.2,0.8,2.1,0.8c1.4,0,2.5-0.5,3.3-1.4l1.6,1.5
	c-0.6,0.8-1.3,1.3-2.2,1.7c-0.9,0.4-1.9,0.6-3,0.6C105,28.3,104.1,28.1,103.3,27.7z"/>
<path class="st0" d="M118.5,16.6l-2.3,11.6h-2.8l2.3-11.6H118.5z M119,11.9c0.2,0.3,0.4,0.6,0.4,1c0,0.6-0.2,1-0.6,1.4
	s-0.8,0.6-1.4,0.6c-0.4,0-0.7-0.1-1-0.4c-0.2-0.3-0.4-0.6-0.4-1c0-0.6,0.2-1,0.6-1.4s0.8-0.6,1.4-0.6
	C118.4,11.6,118.7,11.7,119,11.9z"/>
<path class="st0" d="M125.8,12.1l-3.2,16.2h-2.8l3.2-16.2H125.8z"/>
<path class="st0" d="M132.4,12.1l-3.2,16.2h-2.8l3.2-16.2H132.4z"/>
<path class="st0" d="M134.4,27.3c-0.7-0.7-1.1-1.6-1.1-2.7c0-0.4,0-0.8,0.1-1.2l1.4-6.9h2.9l-1.3,6.4c0,0.2-0.1,0.5-0.1,0.7
	c0,0.7,0.2,1.2,0.6,1.5c0.4,0.4,1,0.6,1.7,0.6c0.8,0,1.6-0.3,2.2-0.8c0.6-0.6,1-1.3,1.2-2.2l1.3-6.2h2.8l-2.3,11.6h-2.9l0.3-1.7
	c-0.9,1.2-2.2,1.8-3.8,1.8C136.2,28.4,135.2,28,134.4,27.3z"/>
<path class="st0" d="M148.7,27.7c-1-0.4-1.8-0.9-2.3-1.6l1.2-1.8c0.5,0.5,1.1,1,1.9,1.3c0.8,0.3,1.5,0.5,2.1,0.5
	c0.5,0,1-0.1,1.3-0.3c0.3-0.2,0.5-0.5,0.5-0.9c0-0.3-0.2-0.6-0.5-0.8c-0.3-0.2-0.8-0.5-1.5-0.7c-0.7-0.3-1.2-0.5-1.6-0.8
	c-0.4-0.2-0.8-0.6-1.1-1s-0.5-0.9-0.5-1.6s0.2-1.3,0.5-1.9c0.4-0.5,0.9-1,1.5-1.3c0.7-0.3,1.4-0.5,2.3-0.5c0.9,0,1.7,0.2,2.6,0.5
	c0.9,0.3,1.6,0.7,2.2,1.3L156,20c-0.6-0.4-1.2-0.8-1.8-1c-0.6-0.3-1.2-0.4-1.7-0.4s-0.8,0.1-1.1,0.3c-0.3,0.2-0.4,0.5-0.4,0.8
	s0.2,0.6,0.5,0.8c0.3,0.2,0.8,0.4,1.5,0.7c0.7,0.3,1.3,0.6,1.7,0.8c0.4,0.2,0.8,0.6,1.1,1s0.5,1,0.5,1.6c0,0.7-0.2,1.3-0.6,1.9
	c-0.4,0.6-0.9,1-1.6,1.3c-0.7,0.3-1.5,0.5-2.3,0.5C150.7,28.3,149.7,28.1,148.7,27.7z"/>
<path class="st0" d="M165.8,27.7c-0.7-0.4-1.3-1-1.7-1.8s-0.6-1.7-0.6-2.7c0-1.2,0.3-2.4,0.8-3.4c0.6-1,1.3-1.8,2.3-2.4
	s2-0.9,3.2-0.9c1,0,1.8,0.2,2.5,0.6s1.2,1,1.5,1.8l0.5-2.3h2.8l-2.3,11.6H172l0.3-1.6c-0.5,0.6-1.1,1-1.8,1.3s-1.4,0.4-2.2,0.4
	C167.3,28.3,166.5,28.1,165.8,27.7z M171.2,25.5c0.6-0.4,1-0.9,1.4-1.5c0.3-0.6,0.5-1.3,0.5-2c0-0.9-0.3-1.7-0.8-2.2
	c-0.5-0.6-1.2-0.8-2.1-0.8c-0.7,0-1.3,0.2-1.9,0.5c-0.6,0.4-1,0.9-1.4,1.5c-0.3,0.6-0.5,1.3-0.5,2c0,0.9,0.3,1.6,0.8,2.2
	s1.2,0.8,2.1,0.8C169.9,26,170.6,25.8,171.2,25.5z"/>
<path class="st0" d="M180.9,27.7c-0.8-0.4-1.4-1.1-1.9-1.9c-0.4-0.8-0.7-1.7-0.7-2.8c0-1.3,0.3-2.4,0.8-3.4c0.6-1,1.3-1.8,2.3-2.3
	c1-0.6,2.1-0.8,3.3-0.8c1.1,0,2,0.2,2.8,0.6s1.4,0.9,1.9,1.6l-1.9,1.6c-0.7-0.9-1.7-1.3-2.9-1.3c-0.7,0-1.3,0.2-1.8,0.5
	s-1,0.8-1.3,1.4s-0.5,1.2-0.5,2c0,0.9,0.3,1.7,0.8,2.2c0.5,0.6,1.2,0.8,2.1,0.8c1.4,0,2.5-0.5,3.3-1.4l1.6,1.5
	c-0.6,0.8-1.3,1.3-2.2,1.7c-0.9,0.4-1.9,0.6-3,0.6C182.6,28.3,181.7,28.1,180.9,27.7z"/>
<path class="st0" d="M196,16.6l-2.3,11.6h-2.8l2.3-11.6H196z M196.5,11.9c0.2,0.3,0.4,0.6,0.4,1c0,0.6-0.2,1-0.6,1.4
	c-0.4,0.4-0.8,0.6-1.4,0.6c-0.4,0-0.7-0.1-1-0.4c-0.2-0.3-0.4-0.6-0.4-1c0-0.6,0.2-1,0.6-1.4c0.4-0.4,0.8-0.6,1.4-0.6
	C196,11.6,196.3,11.7,196.5,11.9z"/>
<path class="st0" d="M199.6,27.7c-0.7-0.4-1.3-1-1.7-1.8s-0.6-1.7-0.6-2.7c0-1.2,0.3-2.4,0.8-3.4c0.6-1,1.3-1.8,2.3-2.4
	s2-0.9,3.2-0.9c1,0,1.8,0.2,2.5,0.6s1.2,1,1.5,1.8l1.4-6.8h2.8l-3.2,16.2h-2.8l0.3-1.6c-0.5,0.6-1.1,1-1.8,1.3s-1.4,0.4-2.2,0.4
	C201.1,28.3,200.3,28.1,199.6,27.7z M205,25.5c0.6-0.4,1-0.9,1.4-1.5c0.3-0.6,0.5-1.3,0.5-2c0-0.9-0.3-1.7-0.8-2.2
	c-0.5-0.6-1.2-0.8-2.1-0.8c-0.7,0-1.3,0.2-1.9,0.5c-0.6,0.4-1,0.9-1.4,1.5c-0.3,0.6-0.5,1.3-0.5,2c0,0.9,0.3,1.6,0.8,2.2
	s1.2,0.8,2.1,0.8C203.8,26,204.4,25.8,205,25.5z"/>
<path class="st0" d="M222,17.1c0.8,0.4,1.5,1.1,2,1.9s0.7,1.7,0.7,2.8c0,1.3-0.3,2.4-0.9,3.4c-0.6,1-1.4,1.8-2.4,2.3
	c-1,0.6-2.2,0.8-3.5,0.8c-1.1,0-2.1-0.2-2.9-0.7c-0.8-0.4-1.5-1.1-2-1.9s-0.7-1.7-0.7-2.8c0-1.3,0.3-2.4,0.9-3.4
	c0.6-1,1.4-1.7,2.4-2.3c1-0.6,2.2-0.8,3.5-0.8C220.2,16.5,221.2,16.7,222,17.1z M216.9,19.4c-0.6,0.3-1,0.8-1.3,1.4s-0.5,1.3-0.5,2
	c0,0.9,0.3,1.7,0.8,2.3c0.5,0.6,1.2,0.9,2.1,0.9c0.7,0,1.3-0.2,1.9-0.5c0.6-0.3,1-0.8,1.3-1.4s0.5-1.3,0.5-2c0-0.9-0.3-1.7-0.8-2.3
	c-0.5-0.6-1.2-0.9-2.1-0.9C218.1,18.9,217.5,19.1,216.9,19.4z"/>
<path class="st0" d="M237.3,17.1c0.7,0.4,1.3,1,1.7,1.8s0.6,1.7,0.6,2.7c0,1.2-0.3,2.4-0.8,3.4c-0.6,1-1.3,1.8-2.3,2.4
	s-2,0.9-3.2,0.9c-1,0-1.8-0.2-2.5-0.6s-1.2-1-1.5-1.8l-1.3,6.5h-2.8l3.2-15.9h2.8l-0.3,1.6c0.5-0.5,1.1-1,1.8-1.3s1.4-0.4,2.2-0.4
	C235.8,16.5,236.6,16.7,237.3,17.1z M231.9,19.3c-0.6,0.4-1,0.9-1.4,1.5c-0.3,0.6-0.5,1.3-0.5,2c0,0.9,0.3,1.6,0.8,2.2
	s1.2,0.8,2.1,0.8c0.7,0,1.3-0.2,1.9-0.5c0.6-0.4,1.1-0.9,1.4-1.5c0.3-0.6,0.5-1.3,0.5-2c0-0.9-0.3-1.7-0.8-2.2
	c-0.5-0.6-1.2-0.8-2.1-0.8C233.2,18.8,232.5,18.9,231.9,19.3z"/>
<path class="st0" d="M252.8,17.4c0.7,0.7,1.1,1.6,1.1,2.7c0,0.4,0,0.8-0.1,1.2l-1.4,6.9h-2.9l1.3-6.4c0-0.2,0.1-0.5,0.1-0.7
	c0-0.7-0.2-1.2-0.6-1.5c-0.4-0.4-1-0.6-1.7-0.6c-0.8,0-1.6,0.3-2.2,0.8c-0.6,0.6-1.1,1.3-1.2,2.2l-1.2,6.2h-3l3.2-16.2h2.9l-1.2,6.2
	c0.9-1.2,2.2-1.8,3.8-1.8C251,16.4,252,16.7,252.8,17.4z"/>
<path class="st0" d="M260.7,16.6l-2.3,11.6h-2.8l2.3-11.6H260.7z M261.2,11.9c0.2,0.3,0.4,0.6,0.4,1c0,0.6-0.2,1-0.6,1.4
	s-0.8,0.6-1.4,0.6c-0.4,0-0.7-0.1-1-0.4c-0.2-0.3-0.4-0.6-0.4-1c0-0.6,0.2-1,0.6-1.4s0.8-0.6,1.4-0.6
	C260.6,11.6,261,11.7,261.2,11.9z"/>
<path class="st0" d="M268.1,12.1l-3.2,16.2H262l3.2-16.2H268.1z"/>
<path class="st0" d="M270.1,27.3c-0.7-0.7-1.1-1.6-1.1-2.7c0-0.4,0-0.8,0.1-1.2l1.4-6.9h2.9L272,23c0,0.2-0.1,0.5-0.1,0.7
	c0,0.7,0.2,1.2,0.6,1.5c0.4,0.4,1,0.6,1.7,0.6c0.8,0,1.6-0.3,2.2-0.8c0.6-0.6,1-1.3,1.2-2.2l1.3-6.2h2.8l-2.3,11.6h-2.9l0.3-1.7
	c-0.9,1.2-2.2,1.8-3.8,1.8C271.9,28.4,270.8,28,270.1,27.3z"/>
<path class="st0" d="M284.4,27.7c-1-0.4-1.8-0.9-2.3-1.6l1.2-1.8c0.5,0.5,1.1,1,1.9,1.3s1.5,0.5,2.1,0.5c0.5,0,1-0.1,1.3-0.3
	c0.3-0.2,0.5-0.5,0.5-0.9c0-0.3-0.2-0.6-0.5-0.8c-0.3-0.2-0.8-0.5-1.5-0.7c-0.7-0.3-1.2-0.5-1.6-0.8c-0.4-0.2-0.8-0.6-1.1-1
	c-0.3-0.4-0.5-0.9-0.5-1.6s0.2-1.3,0.5-1.9c0.4-0.5,0.9-1,1.5-1.3c0.7-0.3,1.4-0.5,2.3-0.5s1.7,0.2,2.6,0.5s1.6,0.7,2.2,1.3
	l-1.3,1.9c-0.6-0.4-1.2-0.8-1.8-1c-0.6-0.3-1.2-0.4-1.7-0.4s-0.8,0.1-1.1,0.3c-0.3,0.2-0.4,0.5-0.4,0.8s0.2,0.6,0.5,0.8
	s0.8,0.4,1.5,0.7c0.7,0.3,1.3,0.6,1.7,0.8c0.4,0.2,0.8,0.6,1.1,1c0.3,0.4,0.5,1,0.5,1.6c0,0.7-0.2,1.3-0.6,1.9s-0.9,1-1.6,1.3
	s-1.5,0.5-2.3,0.5C286.4,28.3,285.4,28.1,284.4,27.7z"/>
<path class="st0" d="M369.8,19.3v0.9h-1.2v1.9h-1v-1.9H364v-0.8l2.7-4.8h1l-2.6,4.6h2.6v-1.9h1v1.9h1.1V19.3z"/>
<path class="st0" d="M370.9,21.2c0.1,0.1,0.2,0.2,0.2,0.4c0,0.1,0,0.2,0,0.2c0,0.1-0.1,0.2-0.1,0.2l-0.6,1.2h-0.5l0.4-1.2
	c-0.1,0-0.2-0.1-0.2-0.2s-0.1-0.2-0.1-0.3c0-0.2,0.1-0.3,0.2-0.4s0.2-0.2,0.4-0.2C370.6,21,370.7,21.1,370.9,21.2z"/>
<path class="st0" d="M377.6,17.7c0.4,0.2,0.7,0.5,1,0.8c0.2,0.3,0.3,0.7,0.3,1.2s-0.1,0.9-0.3,1.3c-0.2,0.4-0.6,0.7-1,0.9
	c-0.4,0.2-0.9,0.3-1.5,0.3c-0.4,0-0.9-0.1-1.4-0.2c-0.5-0.2-0.9-0.4-1.3-0.6l0.4-0.8c0.3,0.2,0.7,0.4,1.1,0.6
	c0.4,0.1,0.8,0.2,1.1,0.2c0.6,0,1-0.1,1.3-0.4s0.5-0.6,0.5-1.1c0-0.4-0.2-0.8-0.5-1s-0.8-0.4-1.4-0.4c-0.2,0-0.5,0-1,0
	c-0.4,0-0.8,0.1-1,0.1v-3.9h4.6v0.9h-3.7v1.9c0.3,0,0.8,0,1.2,0C376.7,17.4,377.1,17.5,377.6,17.7z"/>
<g>
	<path class="st0" d="M302.3,12.1h3.4l4.5,11.7h0l2.2-11.7h3l-3,16.2H309l-4.6-11.7h0l-2.2,11.7h-3L302.3,12.1z"/>
	<path class="st0" d="M331.4,23.8c-1.8,3-5.3,4.8-8.4,4.8c-4.7,0-7.7-3.9-6.9-8.5c0.8-4.5,5.2-8.3,9.9-8.3c2.7,0,5.8,1.4,6.7,4.9
		h-3.4c-0.9-1.3-2.1-2.1-3.9-2.1c-2.6,0-5.7,2.4-6.3,5.6c-0.6,3,1.5,5.6,4.3,5.6c2.2,0,3.6-1.3,4.4-2H331.4z"/>
	<path class="st0" d="M335.2,12.1h8.2l-0.5,2.8h-5.2l-0.7,4h5l-0.5,2.8h-5l-1.2,6.6h-3L335.2,12.1z"/>
	<path class="st0" d="M345.8,12.1h4.1l2,12.2h0l6.5-12.2h4.1l-3,16.2h-3l2.2-12.1h0h0l-6.4,12.1H350l-1.9-12.1h0l-2.2,12.1h-3
		L345.8,12.1z"/>
</g>
</svg>
