<?xml version="1.0" encoding="utf-8"?>
<!-- Generator: Adobe Illustrator 20.1.0, SVG Export Plug-In . SVG Version: 6.00 Build 0)  -->
<svg version="1.1" id="Layer_1" xmlns="http://www.w3.org/2000/svg" xmlns:xlink="http://www.w3.org/1999/xlink" x="0px" y="0px"
	 viewBox="0 0 320.5 42.2" style="enable-background:new 0 0 320.5 42.2;" xml:space="preserve">
<style type="text/css">
	.st0{fill:#005BA4;}
	.st1{fill:#6D6E71;}
</style>
<g>
	<g>
		<path class="st0" d="M24.2,10.1c-0.1-0.3-0.1-0.5-0.1-0.8c-0.4,0.6-0.8,0.9-1.5,0.9c-0.8,0-1.5-0.5-1.5-1.4c0-0.7,0.4-1.3,1.1-1.5
			C22.7,7,23.5,7,24,6.9V6.8c0-0.2,0-0.5-0.1-0.7c-0.1-0.2-0.4-0.2-0.6-0.2c-0.4,0-0.8,0.2-0.8,0.7l-1.3-0.1
			c0.1-1.2,1.3-1.6,2.3-1.6C24,4.9,24.6,5,25,5.4c0.5,0.4,0.4,1,0.4,1.6v2.4c0,0.3,0,0.5,0.1,0.8H24.2z M24,7.6
			c-0.5,0.1-1.5,0.2-1.5,0.9c0,0.4,0.2,0.7,0.6,0.7c0.3,0,0.5-0.2,0.7-0.4c0.2-0.3,0.2-0.6,0.2-1V7.6z"/>
		<path class="st0" d="M29.3,6.9c0-0.5-0.2-0.9-0.7-0.9c-0.8,0-0.9,0.8-0.9,1.4c0,0.6,0,1.5,0.8,1.5c0.5,0,0.7-0.4,0.8-0.9l1.3,0.1
			c-0.1,1.3-1,2-2.2,2c-1.5,0-2.3-1.1-2.3-2.6c0-1.5,0.9-2.7,2.4-2.7c1.1,0,2,0.8,2.1,1.9L29.3,6.9z"/>
		<path class="st0" d="M32.9,4.6h-1.4V3.1h1.4V4.6z M32.9,10.1h-1.4V5h1.4V10.1z"/>
		<path class="st0" d="M36.7,10.1V9.3h0c-0.3,0.5-0.7,0.9-1.3,0.9c-1.3,0-1.7-1.4-1.7-2.6c0-1.2,0.4-2.7,1.8-2.7
			c0.5,0,0.9,0.2,1.2,0.6V3.2H38v6.8H36.7z M36.7,7.3c0-0.5,0-1.3-0.7-1.3c-0.8,0-0.8,1.1-0.8,1.7c0,0.5,0.1,1.5,0.8,1.5
			c0.3,0,0.5-0.2,0.6-0.4c0.1-0.2,0.1-0.5,0.1-0.7V7.3z"/>
		<path class="st0" d="M43.4,7.6c0,1.4-0.9,2.6-2.3,2.6c-1.5,0-2.3-1.2-2.3-2.6c0-1.5,0.8-2.6,2.3-2.6C42.5,4.9,43.4,6.1,43.4,7.6
			 M40.3,7.4c0,0.6,0,1.8,0.8,1.8c0.8,0,0.8-1,0.8-1.6c0-0.4,0-0.9-0.2-1.3c-0.1-0.3-0.3-0.5-0.7-0.5C40.3,5.9,40.3,6.8,40.3,7.4"/>
		<path class="st0" d="M45.5,5v0.7h0c0.3-0.6,0.6-0.8,1.2-0.8c0.6,0,1.1,0.3,1.4,0.9c0.3,0.5,0.4,1.1,0.4,1.8c0,1.2-0.4,2.6-1.8,2.6
			c-0.5,0-0.9-0.2-1.1-0.7h0v2.3h-1.4V5H45.5z M45.5,7.7c0,0.3,0,0.7,0.1,1C45.8,9,46,9.1,46.3,9.1C47,9.1,47,8,47,7.5
			s0-1.6-0.7-1.6c-0.3,0-0.5,0.2-0.6,0.4c-0.1,0.3-0.1,0.6-0.1,0.9V7.7z"/>
		<path class="st0" d="M53.3,10.1h-1.4V7.3c0-0.4,0-1.3-0.6-1.3c-0.3,0-0.5,0.1-0.7,0.4c-0.1,0.3-0.1,0.6-0.1,0.9v2.7h-1.4V3.2h1.4
			v2.5h0c0.2-0.5,0.7-0.8,1.2-0.8c0.4,0,0.9,0.2,1.2,0.5c0.3,0.4,0.3,0.9,0.3,1.4V10.1z"/>
		<path class="st0" d="M55.7,4.6h-1.4V3.1h1.4V4.6z M55.7,10.1h-1.4V5h1.4V10.1z"/>
		<rect x="56.8" y="3.2" class="st0" width="1.4" height="6.8"/>
		<path class="st0" d="M62,10.1V9.2h0c-0.2,0.6-0.7,1-1.4,1c-0.5,0-0.9-0.1-1.2-0.6c-0.3-0.4-0.2-0.9-0.2-1.4V5h1.4v3.2
			c0,0.4,0,0.8,0.5,0.8c0.3,0,0.6-0.2,0.7-0.5c0.1-0.2,0.1-0.5,0.1-0.8V5h1.4v5H62z"/>
		<path class="st0" d="M67,6.5C66.8,6,66.5,5.8,66,5.8c-0.3,0-0.7,0.1-0.7,0.4c0,0.9,2.9-0.1,2.9,2.1c0,0.5-0.2,1-0.6,1.3
			c-0.4,0.3-1,0.4-1.5,0.4c-1,0-1.9-0.4-2.2-1.5l1.2-0.2c0.1,0.5,0.6,0.7,1.1,0.7c0.3,0,0.8-0.1,0.8-0.5c0-0.3-0.3-0.4-0.5-0.4
			c-0.3,0-1.1-0.2-1.4-0.3c-0.6-0.2-0.9-0.7-0.9-1.4c0-1.2,1-1.7,2-1.7c0.9,0,1.6,0.4,1.9,1.3L67,6.5z"/>
		<path class="st0" d="M15.4,29.7c-2.7,0-4.5-1.7-5.1-2.7v-1.5c0.9,1.2,2.3,2.1,3.8,2.1c3.7,0,5.6-3.5,5.6-6.8
			c0-4.2-1.7-7.1-5.3-7.1c-2.5,0-5,2.4-5,5.4v14.8c0,3.7,0.1,4.2,3,4.4v0.9H3.3v-0.9c2.7,0,2.8-0.7,2.8-4.3V18.7
			c0-4,3.7-6.3,7.8-6.3c5,0,8.7,4.1,8.7,9C22.7,26,20.4,29.7,15.4,29.7"/>
		<path class="st0" d="M24.6,21.3c0,5.2,3.4,8.6,8.8,8.6c2.4,0,4.2-0.7,5.9-2.1l0.1-0.1v-2l-0.4,0.3c-1.4,0.9-3,1.5-4.3,1.5
			c-3.9,0-6.3-2.8-6.4-7.6h13.1l0-0.3c0-4.6-3.1-7.6-7.5-7.6C28.5,11.9,24.6,15.9,24.6,21.3 M32.7,13.6c2.9,0,4.3,2.5,4.5,4.3h-9.2
			C28.2,15.4,30.2,13.6,32.7,13.6"/>
		<path class="st0" d="M43,21.4c0,5.3,2.8,8.5,7.6,8.5c2.6,0,4.5-1.5,5.3-2.9l0-0.1v-2.4l-0.5,0.6c-0.9,1.2-2.2,2-3.6,2
			c-3.5,0-5.3-3.3-5.3-6.5c0-2.6,0.7-6.9,5.1-6.9c2.7,0,4.8,2.2,4.8,5.2v10.5H63V28l-0.9,0c-1.8-0.1-2-0.2-2-2v-7.4
			c0-4-4-6.4-7.8-6.4C47,12.2,43,16.1,43,21.4"/>
		<path class="st0" d="M67.3,20.8v3c0,3.6,0,4-2.7,4.2l-0.2,0v1.4h9.5V28h-0.2c-2.5,0-2.7-0.6-2.7-4.2v-4.2c0-2.9,0.3-5.9,2.9-5.9
			c0.5,0,1.5,0.2,2.2,1.4l0.3,0.5l0.6-2.3l-0.1-0.1c-1-0.7-2.1-1.1-3.2-1.1C68,12.1,67.3,18.2,67.3,20.8"/>
		<path class="st0" d="M82.1,4.8h-3.4v17.4c0,4.9,1.9,7.2,5.9,7.2h1.9V28h-1.4c-1.9,0-2.8-1.5-2.8-4.9V4.8H82.1z"/>
		<path class="st0" d="M92.5,12L92,12c-4.3,0.2-7.1,3.2-6.9,7.2c0.1,2.2,1.2,3.9,2.2,5.2l1.8,2.4c1.1,1.4,1.6,2.8,1.7,4.4
			c0.1,2.4-1.4,4.1-4.3,4.7l-0.2,0l0,0.6l0.5,0c5.1-0.3,7.2-3.6,7-6.8c-0.1-1.9-0.8-3.7-2.3-5.7l-1.9-2.6c-1-1.4-1.5-2.6-1.6-4.1
			c-0.1-2.3,1.4-3.7,4.1-3.9l1.2,0L93.3,13l-0.6-1L92.5,12z"/>
	</g>
	<g>
		<path class="st1" d="M98.8,28c0.2,0.2,0.3,0.5,0.3,0.8c0,0.2,0,0.3-0.1,0.5c-0.1,0.2-0.1,0.3-0.2,0.5l-1.1,2.4h-1l0.8-2.3
			c-0.2-0.1-0.3-0.2-0.4-0.4C97,29.2,97,29.1,97,28.9c0-0.3,0.1-0.6,0.3-0.8c0.2-0.2,0.5-0.3,0.8-0.3C98.4,27.7,98.6,27.8,98.8,28z"
			/>
		<path class="st1" d="M116.8,18.9v10.9h-1.9v-2.3c-0.7,1.6-2,2.3-4,2.4c-1.2,0-2.2-0.4-2.9-1.1c-0.7-0.7-1.1-1.8-1.1-3.1v-6.7h1.9
			v6.2c0,0.9,0.2,1.6,0.7,2.2c0.5,0.5,1.2,0.8,2,0.8c1,0,1.8-0.4,2.4-1.1c0.6-0.7,0.9-1.6,0.9-2.7v-5.4H116.8z"/>
		<path class="st1" d="M129.4,20c0.7,0.7,1.1,1.8,1.1,3.1v6.7h-1.9v-6.2c0-0.9-0.3-1.6-0.8-2.2c-0.5-0.5-1.2-0.8-2.1-0.8
			c-1,0-1.7,0.3-2.3,0.9c-0.6,0.6-0.9,1.4-1,2.4v5.8h-1.9V18.9h1.9v2.3c0.7-1.6,2.1-2.3,4.1-2.4C127.7,18.9,128.7,19.2,129.4,20z"/>
		<path class="st1" d="M140.5,29.8v-1.5c-0.8,1.1-2.1,1.6-3.8,1.6c-0.7,0-1.4-0.1-2-0.4c-0.6-0.3-1-0.7-1.3-1.2
			c-0.3-0.5-0.5-1.1-0.5-1.7c0-1,0.4-1.8,1.1-2.3c0.7-0.6,1.7-0.9,3-0.9h3.4v-0.5c0-0.8-0.2-1.4-0.7-1.8c-0.5-0.4-1.1-0.6-2-0.6
			c-1.1,0-2.2,0.4-3.3,1.2l-0.8-1.3c0.8-0.5,1.5-0.9,2.1-1.1c0.7-0.2,1.4-0.3,2.3-0.3c1.3,0,2.4,0.3,3.1,1c0.7,0.7,1.1,1.6,1.1,2.8
			l0,7.2H140.5z M139.3,27.7c0.6-0.4,1-1,1.1-1.7v-1.1h-3.2c-0.9,0-1.5,0.1-1.9,0.4c-0.4,0.3-0.6,0.7-0.6,1.2s0.2,1,0.6,1.3
			c0.4,0.3,1,0.5,1.7,0.5C138,28.3,138.7,28.1,139.3,27.7z"/>
		<path class="st1" d="M155.5,20.6c-0.7,0-1.3,0.2-1.9,0.5c-0.5,0.3-1,0.8-1.3,1.3c-0.3,0.6-0.5,1.2-0.5,2c0,0.8,0.2,1.4,0.5,2
			c0.3,0.6,0.7,1,1.3,1.4c0.5,0.3,1.1,0.5,1.8,0.5c0.7,0,1.3-0.1,1.9-0.4c0.6-0.2,1-0.6,1.4-1l1.1,1.1c-0.5,0.6-1.1,1.1-1.9,1.4
			c-0.8,0.3-1.6,0.5-2.6,0.5c-1,0-2-0.2-2.8-0.7c-0.8-0.5-1.4-1.1-1.9-1.9c-0.5-0.8-0.7-1.8-0.7-2.9c0-1.1,0.2-2,0.7-2.9
			c0.5-0.8,1.1-1.5,1.9-2c0.8-0.5,1.7-0.7,2.8-0.7c0.9,0,1.7,0.1,2.5,0.4c0.7,0.3,1.3,0.7,1.8,1.2l-1,1.3
			C157.7,21,156.7,20.6,155.5,20.6z"/>
		<path class="st1" d="M169.3,19.6c0.8,0.5,1.5,1.1,2,1.9c0.5,0.8,0.7,1.8,0.7,2.9c0,1.1-0.2,2-0.7,2.9c-0.5,0.8-1.1,1.5-2,2
			c-0.8,0.5-1.8,0.7-2.9,0.7c-1.1,0-2-0.2-2.9-0.7c-0.8-0.5-1.5-1.1-2-1.9c-0.5-0.8-0.7-1.8-0.7-2.9c0-1.1,0.2-2,0.7-2.9
			c0.5-0.8,1.1-1.5,2-1.9s1.8-0.7,2.9-0.7C167.5,18.9,168.5,19.1,169.3,19.6z M164.6,21c-0.5,0.3-1,0.8-1.3,1.4
			c-0.3,0.6-0.5,1.2-0.5,2c0,0.8,0.2,1.4,0.5,2c0.3,0.6,0.7,1,1.3,1.4c0.5,0.3,1.2,0.5,1.9,0.5c0.7,0,1.3-0.2,1.9-0.5
			c0.5-0.3,1-0.8,1.3-1.4c0.3-0.6,0.5-1.3,0.5-2c0-0.7-0.2-1.4-0.5-2c-0.3-0.6-0.7-1-1.3-1.4c-0.5-0.3-1.2-0.5-1.9-0.5
			C165.8,20.5,165.1,20.7,164.6,21z"/>
		<path class="st1" d="M191.4,20c0.7,0.8,1.1,1.8,1.1,3.1v6.7h-1.9v-6.2c0-0.9-0.2-1.6-0.7-2.2c-0.5-0.5-1.2-0.8-2-0.8
			c-1,0-1.8,0.4-2.4,1.1c-0.6,0.7-0.9,1.6-0.9,2.7v5.4h-1.9v-6.2c0-0.9-0.2-1.6-0.7-2.2c-0.5-0.5-1.2-0.8-2.1-0.8
			c-1,0-1.8,0.4-2.4,1.1c-0.6,0.7-0.9,1.6-0.9,2.7v5.4h-1.9V18.9h1.9v2.3c0.7-1.5,2-2.3,4-2.4c1,0,1.8,0.2,2.5,0.7
			c0.7,0.5,1.1,1.2,1.3,2c0.7-1.8,2.1-2.7,4.2-2.7C189.8,18.9,190.7,19.2,191.4,20z"/>
		<path class="st1" d="M204.5,19.6c0.8,0.5,1.4,1.1,1.8,2c0.4,0.8,0.7,1.8,0.7,2.9c0,1.1-0.2,2-0.6,2.9c-0.4,0.8-1,1.5-1.8,1.9
			c-0.8,0.5-1.7,0.7-2.7,0.7c-0.9,0-1.7-0.2-2.4-0.6c-0.7-0.4-1.2-0.9-1.6-1.6v2.2H196V14.5h1.9v6.6c0.4-0.7,0.9-1.3,1.6-1.6
			c0.7-0.4,1.5-0.6,2.4-0.6C202.9,18.9,203.8,19.1,204.5,19.6z M203.3,27.7c0.5-0.3,1-0.8,1.3-1.4c0.3-0.6,0.5-1.3,0.5-2
			c0-0.7-0.2-1.4-0.5-2c-0.3-0.6-0.7-1.1-1.3-1.4c-0.5-0.3-1.2-0.5-1.9-0.5c-0.7,0-1.3,0.2-1.9,0.5c-0.5,0.3-1,0.8-1.3,1.4
			c-0.3,0.6-0.5,1.3-0.5,2c0,0.8,0.2,1.4,0.5,2c0.3,0.6,0.7,1,1.3,1.4c0.5,0.3,1.2,0.5,1.9,0.5C202.2,28.2,202.8,28.1,203.3,27.7z"
			/>
		<path class="st1" d="M211.4,14.9c0.2,0.2,0.3,0.5,0.3,0.9c0,0.4-0.1,0.7-0.3,0.9c-0.2,0.2-0.5,0.4-0.8,0.4c-0.3,0-0.6-0.1-0.8-0.4
			c-0.2-0.2-0.3-0.5-0.3-0.9c0-0.4,0.1-0.7,0.3-0.9c0.2-0.2,0.5-0.4,0.8-0.4C210.9,14.6,211.2,14.7,211.4,14.9z M209.7,18.9h1.9
			v10.9h-1.9V18.9z"/>
		<path class="st1" d="M224.2,20c0.7,0.7,1.1,1.8,1.1,3.1v6.7h-1.9v-6.2c0-0.9-0.3-1.6-0.8-2.2c-0.5-0.5-1.2-0.8-2.1-0.8
			c-1,0-1.7,0.3-2.3,0.9c-0.6,0.6-0.9,1.4-1,2.4v5.8h-1.9V18.9h1.9v2.3c0.7-1.6,2.1-2.3,4.1-2.4C222.5,18.9,223.5,19.2,224.2,20z"/>
		<path class="st1" d="M235.2,29.8v-1.5c-0.8,1.1-2.1,1.6-3.8,1.6c-0.7,0-1.4-0.1-2-0.4c-0.6-0.3-1-0.7-1.3-1.2
			c-0.3-0.5-0.5-1.1-0.5-1.7c0-1,0.4-1.8,1.1-2.3c0.7-0.6,1.7-0.9,3-0.9h3.4v-0.5c0-0.8-0.2-1.4-0.7-1.8c-0.5-0.4-1.1-0.6-2-0.6
			c-1.1,0-2.2,0.4-3.3,1.2l-0.8-1.3c0.8-0.5,1.5-0.9,2.1-1.1c0.7-0.2,1.4-0.3,2.3-0.3c1.3,0,2.4,0.3,3.1,1c0.7,0.7,1.1,1.6,1.1,2.8
			l0,7.2H235.2z M234.1,27.7c0.6-0.4,1-1,1.1-1.7v-1.1H232c-0.9,0-1.5,0.1-1.9,0.4c-0.4,0.3-0.6,0.7-0.6,1.2s0.2,1,0.6,1.3
			c0.4,0.3,1,0.5,1.7,0.5C232.7,28.3,233.5,28.1,234.1,27.7z"/>
		<path class="st1" d="M244.9,20.6c-0.7,0-1.3,0.2-1.9,0.5c-0.5,0.3-1,0.8-1.3,1.3c-0.3,0.6-0.5,1.2-0.5,2c0,0.8,0.2,1.4,0.5,2
			c0.3,0.6,0.7,1,1.3,1.4c0.5,0.3,1.1,0.5,1.8,0.5c0.7,0,1.3-0.1,1.9-0.4c0.6-0.2,1-0.6,1.4-1l1.1,1.1c-0.5,0.6-1.1,1.1-1.9,1.4
			c-0.8,0.3-1.6,0.5-2.6,0.5c-1,0-2-0.2-2.8-0.7c-0.8-0.5-1.4-1.1-1.9-1.9c-0.5-0.8-0.7-1.8-0.7-2.9c0-1.1,0.2-2,0.7-2.9
			c0.5-0.8,1.1-1.5,1.9-2c0.8-0.5,1.7-0.7,2.8-0.7c0.9,0,1.7,0.1,2.5,0.4c0.7,0.3,1.3,0.7,1.8,1.2l-1,1.3
			C247.2,21,246.1,20.6,244.9,20.6z"/>
		<path class="st1" d="M253.7,14.9c0.2,0.2,0.3,0.5,0.3,0.9c0,0.4-0.1,0.7-0.3,0.9c-0.2,0.2-0.5,0.4-0.8,0.4c-0.3,0-0.6-0.1-0.8-0.4
			c-0.2-0.2-0.3-0.5-0.3-0.9c0-0.4,0.1-0.7,0.3-0.9c0.2-0.2,0.5-0.4,0.8-0.4C253.2,14.6,253.4,14.7,253.7,14.9z M251.9,18.9h1.9
			v10.9h-1.9V18.9z"/>
		<path class="st1" d="M264.8,19.6c0.8,0.5,1.5,1.1,2,1.9c0.5,0.8,0.7,1.8,0.7,2.9c0,1.1-0.2,2-0.7,2.9c-0.5,0.8-1.1,1.5-2,2
			c-0.8,0.5-1.8,0.7-2.9,0.7c-1.1,0-2-0.2-2.9-0.7c-0.8-0.5-1.5-1.1-2-1.9c-0.5-0.8-0.7-1.8-0.7-2.9c0-1.1,0.2-2,0.7-2.9
			c0.5-0.8,1.1-1.5,2-1.9c0.8-0.5,1.8-0.7,2.9-0.7C263,18.9,264,19.1,264.8,19.6z M260.1,21c-0.5,0.3-1,0.8-1.3,1.4
			c-0.3,0.6-0.5,1.2-0.5,2c0,0.8,0.2,1.4,0.5,2c0.3,0.6,0.7,1,1.3,1.4c0.5,0.3,1.2,0.5,1.9,0.5c0.7,0,1.3-0.2,1.9-0.5
			c0.5-0.3,1-0.8,1.3-1.4c0.3-0.6,0.5-1.3,0.5-2c0-0.7-0.2-1.4-0.5-2c-0.3-0.6-0.7-1-1.3-1.4c-0.5-0.3-1.2-0.5-1.9-0.5
			C261.2,20.5,260.6,20.7,260.1,21z M263.1,14.3l2,0.9l-2.5,2l-1.6-0.2L263.1,14.3z"/>
		<path class="st1" d="M279,20c0.7,0.7,1.1,1.8,1.1,3.1v6.7h-1.9v-6.2c0-0.9-0.3-1.6-0.8-2.2c-0.5-0.5-1.2-0.8-2.1-0.8
			c-1,0-1.7,0.3-2.3,0.9c-0.6,0.6-0.9,1.4-1,2.4v5.8h-1.9V18.9h1.9v2.3c0.7-1.6,2.1-2.3,4.1-2.4C277.3,18.9,278.3,19.2,279,20z"/>
		<path class="st1" d="M298.9,14.5v15.3H297v-2.2c-0.4,0.7-1,1.3-1.6,1.7c-0.7,0.4-1.5,0.6-2.4,0.6c-1,0-1.9-0.2-2.7-0.7
			c-0.8-0.5-1.4-1.1-1.8-2c-0.4-0.8-0.7-1.8-0.7-2.9c0-1.1,0.2-2,0.7-2.9c0.4-0.8,1-1.5,1.8-1.9c0.8-0.5,1.7-0.7,2.7-0.7
			c0.9,0,1.7,0.2,2.4,0.6c0.7,0.4,1.2,0.9,1.6,1.7v-6.6H298.9z M295.2,27.8c0.5-0.3,1-0.8,1.3-1.4c0.3-0.6,0.5-1.3,0.5-2
			c0-0.8-0.2-1.4-0.5-2c-0.3-0.6-0.7-1.1-1.3-1.4c-0.5-0.3-1.2-0.5-1.9-0.5c-0.7,0-1.3,0.2-1.9,0.5c-0.5,0.3-1,0.8-1.3,1.4
			c-0.3,0.6-0.5,1.3-0.5,2c0,0.7,0.2,1.4,0.5,2c0.3,0.6,0.7,1.1,1.3,1.4c0.5,0.3,1.2,0.5,1.9,0.5C294,28.3,294.7,28.1,295.2,27.8z"
			/>
		<path class="st1" d="M310.8,20.4c0.9,1,1.3,2.4,1.3,4.2c0,0.3,0,0.5,0,0.6h-8.5c0.1,1,0.6,1.8,1.2,2.3c0.7,0.6,1.5,0.9,2.4,0.9
			c0.6,0,1.2-0.1,1.8-0.4c0.5-0.2,1-0.6,1.4-1l1,1.1c-0.5,0.6-1.2,1-1.9,1.3c-0.7,0.3-1.6,0.5-2.5,0.5c-1.1,0-2-0.2-2.8-0.7
			c-0.8-0.5-1.5-1.1-1.9-1.9c-0.5-0.8-0.7-1.8-0.7-2.9c0-1.1,0.2-2,0.7-2.9c0.5-0.8,1.1-1.5,1.9-2c0.8-0.5,1.7-0.7,2.8-0.7
			C308.6,18.9,309.9,19.4,310.8,20.4z M310.3,23.7c-0.1-1-0.4-1.8-1-2.3c-0.6-0.6-1.4-0.9-2.4-0.9c-0.9,0-1.7,0.3-2.4,0.9
			c-0.6,0.6-1,1.4-1.1,2.3H310.3z"/>
		<path class="st1" d="M315.7,21.9c0.2,0.2,0.3,0.5,0.3,0.8c0,0.3-0.1,0.6-0.3,0.9c-0.2,0.2-0.5,0.3-0.8,0.3c-0.3,0-0.6-0.1-0.8-0.3
			c-0.2-0.2-0.3-0.5-0.3-0.9c0-0.3,0.1-0.6,0.3-0.8c0.2-0.2,0.5-0.3,0.8-0.3C315.2,21.5,315.5,21.6,315.7,21.9z M315.7,28
			c0.2,0.2,0.3,0.5,0.3,0.8c0,0.3-0.1,0.6-0.3,0.9c-0.2,0.2-0.5,0.3-0.8,0.3c-0.3,0-0.6-0.1-0.8-0.3c-0.2-0.2-0.3-0.5-0.3-0.9
			c0-0.3,0.1-0.6,0.3-0.8c0.2-0.2,0.5-0.3,0.8-0.3C315.2,27.7,315.5,27.8,315.7,28z"/>
	</g>
</g>
</svg>
