<!-- Generator: Adobe Illustrator 20.1.0, SVG Export Plug-In  -->
<svg version="1.1"
	 xmlns="http://www.w3.org/2000/svg" xmlns:xlink="http://www.w3.org/1999/xlink" xmlns:a="http://ns.adobe.com/AdobeSVGViewerExtensions/3.0/"
	 x="0px" y="0px" width="282.8px" height="8.3px" viewBox="0 0 282.8 8.3"
	 style="overflow:scroll;enable-background:new 0 0 282.8 8.3;" xml:space="preserve">
<style type="text/css">
	.st0{fill:#5A2D81;}
</style>
<defs>
</defs>
<g>
	<g>
		<path class="st0" d="M0.4,6.3c0.5,0.3,1.2,0.5,2,0.5c0.8,0,1.3-0.3,1.3-0.9c0-0.5-0.4-0.8-1.4-1.1C1,4.4,0.1,3.6,0.1,2.4
			C0.1,1.1,1.3,0,3.2,0c0.9,0,1.6,0.2,2.1,0.4L4.8,1.9C4.5,1.7,3.9,1.5,3.1,1.5C2.3,1.5,2,1.9,2,2.3C2,2.8,2.4,3,3.5,3.4
			c1.4,0.5,2.1,1.3,2.1,2.4c0,1.4-1,2.5-3.3,2.5C1.4,8.3,0.5,8.1,0,7.8L0.4,6.3z"/>
		<path class="st0" d="M8.2,5.9C8.3,6.6,9,7,9.9,7c0.6,0,1.1-0.1,1.6-0.2L11.7,8c-0.6,0.2-1.3,0.4-2.1,0.4c-2,0-3.1-1.2-3.1-3
			c0-1.5,0.9-3.1,3-3.1c1.9,0,2.6,1.5,2.6,2.9c0,0.3,0,0.6-0.1,0.7H8.2z M10.4,4.6c0-0.4-0.2-1.2-1-1.2c-0.8,0-1.1,0.7-1.1,1.2H10.4
			z"/>
		<path class="st0" d="M13.2,4.2c0-0.7,0-1.4,0-1.9h1.5l0.1,0.8h0c0.3-0.4,0.8-0.9,1.8-0.9c0.8,0,1.4,0.4,1.6,1h0
			c0.2-0.3,0.5-0.5,0.8-0.7c0.3-0.2,0.7-0.3,1.1-0.3c1.1,0,2,0.8,2,2.5v3.5h-1.8V5c0-0.9-0.3-1.3-0.9-1.3c-0.4,0-0.7,0.3-0.8,0.6
			c0,0.1-0.1,0.3-0.1,0.5v3.4h-1.8V4.9c0-0.7-0.3-1.2-0.8-1.2c-0.5,0-0.7,0.4-0.9,0.7c-0.1,0.1-0.1,0.3-0.1,0.5v3.4h-1.8V4.2z"/>
		<path class="st0" d="M26.8,8.2l-0.1-0.6h0c-0.4,0.5-1,0.7-1.7,0.7c-1.2,0-1.9-0.9-1.9-1.8c0-1.5,1.4-2.3,3.4-2.2V4.2
			c0-0.3-0.2-0.8-1.1-0.8c-0.6,0-1.2,0.2-1.6,0.4l-0.3-1.2c0.4-0.2,1.2-0.5,2.3-0.5c2,0,2.6,1.2,2.6,2.5v2c0,0.6,0,1.1,0.1,1.4H26.8
			z M26.6,5.4c-1,0-1.7,0.2-1.7,0.9c0,0.5,0.3,0.7,0.7,0.7c0.5,0,0.8-0.3,0.9-0.7c0-0.1,0-0.2,0-0.3V5.4z"/>
		<path class="st0" d="M29.8,4.2c0-0.7,0-1.4,0-1.9h1.6l0.1,0.8h0c0.2-0.4,0.8-0.9,1.8-0.9c1.2,0,2.1,0.8,2.1,2.5v3.5h-1.8V5
			c0-0.8-0.3-1.3-0.9-1.3c-0.5,0-0.8,0.3-0.9,0.7c0,0.1-0.1,0.3-0.1,0.5v3.4h-1.8V4.2z"/>
		<path class="st0" d="M40.2,8.2l-0.1-0.6h0c-0.4,0.5-1,0.7-1.7,0.7c-1.2,0-1.9-0.9-1.9-1.8c0-1.5,1.4-2.3,3.4-2.2V4.2
			c0-0.3-0.2-0.8-1.1-0.8c-0.6,0-1.2,0.2-1.6,0.4l-0.3-1.2c0.4-0.2,1.2-0.5,2.3-0.5c2,0,2.6,1.2,2.6,2.5v2c0,0.6,0,1.1,0.1,1.4H40.2
			z M40,5.4c-1,0-1.7,0.2-1.7,0.9c0,0.5,0.3,0.7,0.7,0.7c0.5,0,0.8-0.3,0.9-0.7c0-0.1,0-0.2,0-0.3V5.4z"/>
		<path class="st0" d="M48.6,8.2V6.4h-3.5V5.2l3-4.8h2.2V5h0.9v1.4h-0.9v1.9H48.6z M48.6,5V3.3c0-0.5,0-0.9,0.1-1.5h0
			c-0.3,0.5-0.5,1-0.7,1.5l-1,1.7v0H48.6z"/>
		<path class="st0" d="M108.1,6.3c0.5,0.3,1.2,0.5,2,0.5c0.8,0,1.3-0.3,1.3-0.9c0-0.5-0.4-0.8-1.4-1.1c-1.3-0.5-2.2-1.2-2.2-2.4
			c0-1.4,1.2-2.4,3.1-2.4c0.9,0,1.6,0.2,2.1,0.4l-0.4,1.5c-0.3-0.2-0.9-0.4-1.7-0.4c-0.8,0-1.2,0.4-1.2,0.8c0,0.5,0.5,0.7,1.5,1.1
			c1.4,0.5,2.1,1.3,2.1,2.4c0,1.4-1,2.5-3.3,2.5c-0.9,0-1.8-0.2-2.3-0.5L108.1,6.3z"/>
		<path class="st0" d="M116,5.9c0.1,0.8,0.8,1.1,1.7,1.1c0.6,0,1.1-0.1,1.6-0.2l0.2,1.2c-0.6,0.2-1.3,0.4-2.1,0.4
			c-2,0-3.1-1.2-3.1-3c0-1.5,0.9-3.1,3-3.1c1.9,0,2.6,1.5,2.6,2.9c0,0.3,0,0.6-0.1,0.7H116z M118.1,4.6c0-0.4-0.2-1.2-1-1.2
			c-0.8,0-1.1,0.7-1.1,1.2H118.1z"/>
		<path class="st0" d="M120.9,4.2c0-0.7,0-1.4,0-1.9h1.5l0.1,0.8h0c0.3-0.4,0.8-0.9,1.8-0.9c0.8,0,1.4,0.4,1.6,1h0
			c0.2-0.3,0.5-0.5,0.8-0.7c0.3-0.2,0.7-0.3,1.1-0.3c1.1,0,2,0.8,2,2.5v3.5H128V5c0-0.9-0.3-1.3-0.9-1.3c-0.4,0-0.7,0.3-0.8,0.6
			c0,0.1-0.1,0.3-0.1,0.5v3.4h-1.8V4.9c0-0.7-0.3-1.2-0.8-1.2c-0.5,0-0.7,0.4-0.9,0.7c-0.1,0.1-0.1,0.3-0.1,0.5v3.4h-1.8V4.2z"/>
		<path class="st0" d="M134.6,8.2l-0.1-0.6h0c-0.4,0.5-1,0.7-1.7,0.7c-1.2,0-1.9-0.9-1.9-1.8c0-1.5,1.4-2.3,3.4-2.2V4.2
			c0-0.3-0.2-0.8-1.1-0.8c-0.6,0-1.2,0.2-1.6,0.4l-0.3-1.2c0.4-0.2,1.2-0.5,2.3-0.5c2,0,2.6,1.2,2.6,2.5v2c0,0.6,0,1.1,0.1,1.4
			H134.6z M134.3,5.4c-1,0-1.7,0.2-1.7,0.9c0,0.5,0.3,0.7,0.7,0.7c0.5,0,0.8-0.3,0.9-0.7c0-0.1,0-0.2,0-0.3V5.4z"/>
		<path class="st0" d="M137.6,4.2c0-0.7,0-1.4,0-1.9h1.6l0.1,0.8h0c0.2-0.4,0.8-0.9,1.8-0.9c1.2,0,2.1,0.8,2.1,2.5v3.5h-1.8V5
			c0-0.8-0.3-1.3-0.9-1.3c-0.5,0-0.8,0.3-0.9,0.7c0,0.1-0.1,0.3-0.1,0.5v3.4h-1.8V4.2z"/>
		<path class="st0" d="M147.9,8.2l-0.1-0.6h0c-0.4,0.5-1,0.7-1.7,0.7c-1.2,0-1.9-0.9-1.9-1.8c0-1.5,1.4-2.3,3.4-2.2V4.2
			c0-0.3-0.2-0.8-1.1-0.8c-0.6,0-1.2,0.2-1.6,0.4l-0.3-1.2c0.4-0.2,1.2-0.5,2.3-0.5c2,0,2.6,1.2,2.6,2.5v2c0,0.6,0,1.1,0.1,1.4
			H147.9z M147.7,5.4c-1,0-1.7,0.2-1.7,0.9c0,0.5,0.3,0.7,0.7,0.7c0.5,0,0.8-0.3,0.9-0.7c0-0.1,0-0.2,0-0.3V5.4z"/>
		<path class="st0" d="M153,6.2c0-0.9,0.5-1.6,1.4-2v0c-0.8-0.4-1.1-1-1.1-1.7c0-1.3,1.2-2.2,2.7-2.2c1.8,0,2.6,1.1,2.6,2
			c0,0.7-0.4,1.3-1.1,1.7v0c0.8,0.3,1.4,0.9,1.4,1.9c0,1.4-1.2,2.4-3,2.4C153.9,8.3,153,7.2,153,6.2z M157,6.1
			c0-0.7-0.5-1.1-1.2-1.3c-0.6,0.2-0.9,0.6-0.9,1.2c0,0.6,0.4,1.1,1.1,1.1C156.6,7.1,157,6.7,157,6.1z M155,2.4
			c0,0.5,0.5,0.9,1.1,1.1c0.4-0.1,0.8-0.5,0.8-1c0-0.5-0.3-1-0.9-1C155.3,1.5,155,1.9,155,2.4z"/>
		<path class="st0" d="M225.6,6.3c0.5,0.3,1.2,0.5,2,0.5c0.8,0,1.3-0.3,1.3-0.9c0-0.5-0.4-0.8-1.4-1.1c-1.3-0.5-2.2-1.2-2.2-2.4
			c0-1.4,1.2-2.4,3.1-2.4c0.9,0,1.6,0.2,2.1,0.4L230,1.9c-0.3-0.2-0.9-0.4-1.7-0.4c-0.8,0-1.2,0.4-1.2,0.8c0,0.5,0.5,0.7,1.5,1.1
			c1.4,0.5,2.1,1.3,2.1,2.4c0,1.4-1,2.5-3.3,2.5c-0.9,0-1.8-0.2-2.3-0.5L225.6,6.3z"/>
		<path class="st0" d="M233.4,5.9c0.1,0.8,0.8,1.1,1.7,1.1c0.6,0,1.1-0.1,1.6-0.2l0.2,1.2c-0.6,0.2-1.3,0.4-2.1,0.4
			c-2,0-3.1-1.2-3.1-3c0-1.5,0.9-3.1,3-3.1c1.9,0,2.6,1.5,2.6,2.9c0,0.3,0,0.6-0.1,0.7H233.4z M235.6,4.6c0-0.4-0.2-1.2-1-1.2
			c-0.8,0-1.1,0.7-1.1,1.2H235.6z"/>
		<path class="st0" d="M238.4,4.2c0-0.7,0-1.4,0-1.9h1.5l0.1,0.8h0c0.3-0.4,0.8-0.9,1.8-0.9c0.8,0,1.4,0.4,1.6,1h0
			c0.2-0.3,0.5-0.5,0.8-0.7c0.3-0.2,0.7-0.3,1.1-0.3c1.1,0,2,0.8,2,2.5v3.5h-1.8V5c0-0.9-0.3-1.3-0.9-1.3c-0.4,0-0.7,0.3-0.8,0.6
			c0,0.1-0.1,0.3-0.1,0.5v3.4h-1.8V4.9c0-0.7-0.3-1.2-0.8-1.2c-0.5,0-0.7,0.4-0.9,0.7c-0.1,0.1-0.1,0.3-0.1,0.5v3.4h-1.8V4.2z"/>
		<path class="st0" d="M252,8.2l-0.1-0.6h0c-0.4,0.5-1,0.7-1.7,0.7c-1.2,0-1.9-0.9-1.9-1.8c0-1.5,1.4-2.3,3.4-2.2V4.2
			c0-0.3-0.2-0.8-1.1-0.8c-0.6,0-1.2,0.2-1.6,0.4l-0.3-1.2c0.4-0.2,1.2-0.5,2.3-0.5c2,0,2.6,1.2,2.6,2.5v2c0,0.6,0,1.1,0.1,1.4H252z
			 M251.8,5.4c-1,0-1.7,0.2-1.7,0.9c0,0.5,0.3,0.7,0.7,0.7c0.5,0,0.8-0.3,0.9-0.7c0-0.1,0-0.2,0-0.3V5.4z"/>
		<path class="st0" d="M255,4.2c0-0.7,0-1.4,0-1.9h1.6l0.1,0.8h0c0.2-0.4,0.8-0.9,1.8-0.9c1.2,0,2.1,0.8,2.1,2.5v3.5h-1.8V5
			c0-0.8-0.3-1.3-0.9-1.3c-0.5,0-0.8,0.3-0.9,0.7c0,0.1-0.1,0.3-0.1,0.5v3.4H255V4.2z"/>
		<path class="st0" d="M265.4,8.2l-0.1-0.6h0c-0.4,0.5-1,0.7-1.7,0.7c-1.2,0-1.9-0.9-1.9-1.8c0-1.5,1.4-2.3,3.4-2.2V4.2
			c0-0.3-0.2-0.8-1.1-0.8c-0.6,0-1.2,0.2-1.6,0.4l-0.3-1.2c0.4-0.2,1.2-0.5,2.3-0.5c2,0,2.6,1.2,2.6,2.5v2c0,0.6,0,1.1,0.1,1.4
			H265.4z M265.2,5.4c-1,0-1.7,0.2-1.7,0.9c0,0.5,0.3,0.7,0.7,0.7c0.5,0,0.8-0.3,0.9-0.7c0-0.1,0-0.2,0-0.3V5.4z"/>
		<path class="st0" d="M272.9,2L272.9,2l-1.5,0.7l-0.3-1.4l2.1-1h1.5v7.8h-1.8V2z"/>
		<path class="st0" d="M277.2,8.2V7.1l1-0.9c1.7-1.5,2.5-2.4,2.6-3.3c0-0.6-0.4-1.1-1.3-1.1c-0.7,0-1.3,0.3-1.7,0.6l-0.5-1.3
			c0.6-0.4,1.5-0.8,2.6-0.8c1.8,0,2.7,1,2.7,2.4c0,1.3-0.9,2.4-2.1,3.4l-0.7,0.6v0h2.9v1.5H277.2z"/>
	</g>
</g>
</svg>
