<!-- Generator: Adobe Illustrator 20.1.0, SVG Export Plug-In  -->
<svg version="1.1"
	 xmlns="http://www.w3.org/2000/svg" xmlns:xlink="http://www.w3.org/1999/xlink" xmlns:a="http://ns.adobe.com/AdobeSVGViewerExtensions/3.0/"
	 x="0px" y="0px" width="374.8px" height="10.3px" viewBox="0 0 374.8 10.3"
	 style="overflow:scroll;enable-background:new 0 0 374.8 10.3;" xml:space="preserve">
<style type="text/css">
	.st0{fill:#D51067;}
	.st1{fill:none;stroke:#808184;stroke-width:0.8589;stroke-miterlimit:10;}
	.st2{fill:#58595B;}
	.st3{fill:none;stroke:#A6A8AB;stroke-width:0.8588;stroke-miterlimit:10;stroke-dasharray:2.6615,1.7743;}
</style>
<defs>
</defs>
<g>
	<g>
		<path class="st0" d="M3,6.9c5.6,0,11.3,0,16.9,0c0.3,0-1.8-3.1-3-3.1c-5.6,0-11.3,0-16.9,0C-0.3,3.8,1.8,6.9,3,6.9L3,6.9z"/>
	</g>
</g>
<line class="st1" x1="146.6" y1="7" x2="163.5" y2="7"/>
<g>
	<g>
		<g>
			<path class="st2" d="M32,5.8h-3.7v3.4h4.1v1h-5.3V0.7h5.1v1h-3.9v3H32V5.8z"/>
			<path class="st2" d="M41.2,9.8c-0.5,0.2-1.6,0.5-2.9,0.5c-1.4,0-2.6-0.4-3.5-1.2c-0.8-0.8-1.3-2-1.3-3.5c0-2.8,1.9-4.9,5.1-4.9
				c1.1,0,1.9,0.2,2.4,0.4l-0.3,1c-0.5-0.2-1.1-0.4-2.1-0.4c-2.3,0-3.8,1.4-3.8,3.8c0,2.4,1.4,3.8,3.6,3.8c0.8,0,1.3-0.1,1.6-0.3
				V6.2H38v-1h3.1V9.8z"/>
			<path class="st2" d="M42.9,10.2C42.9,9.7,43,9,43,8.4V0.2h1.2v4.3h0c0.4-0.8,1.2-1.2,2.3-1.2c1.7,0,2.9,1.4,2.9,3.5
				c0,2.4-1.5,3.6-3,3.6c-1,0-1.8-0.4-2.3-1.3h0L44,10.2H42.9z M44.2,7.5c0,0.2,0,0.3,0.1,0.4c0.2,0.9,1,1.4,1.8,1.4
				c1.3,0,2.1-1.1,2.1-2.6c0-1.4-0.7-2.5-2-2.5c-0.8,0-1.6,0.6-1.9,1.5c0,0.1-0.1,0.3-0.1,0.5V7.5z"/>
			<path class="st2" d="M56.5,1.1v0.8l-4,8.3h-1.3l4-8.1v0h-4.5v-1H56.5z"/>
			<path class="st2" d="M62.9,1.9c-0.3,0-0.6,0-0.9,0.1c-1.9,0.3-3,1.7-3.2,3.2h0c0.4-0.6,1.2-1.1,2.2-1.1c1.6,0,2.7,1.2,2.7,2.9
				c0,1.7-1.1,3.2-3,3.2c-1.9,0-3.2-1.5-3.2-3.9c0-1.8,0.6-3.2,1.5-4.1C59.9,1.6,60.9,1.1,62,1c0.4-0.1,0.7-0.1,0.9-0.1V1.9z
				 M62.6,7.2c0-1.3-0.7-2.1-1.9-2.1c-0.7,0-1.4,0.5-1.8,1.1c-0.1,0.1-0.1,0.3-0.1,0.5c0,1.5,0.7,2.6,2,2.6
				C61.9,9.4,62.6,8.5,62.6,7.2z"/>
			<path class="st2" d="M67.6,2.2L67.6,2.2L66,3.1l-0.2-0.9l2-1.1h1.1v9.1h-1.2V2.2z"/>
			<path class="st2" d="M76.8,2.9c0,1.3-1,2.3-2.4,2.3c-1.3,0-2.4-1-2.4-2.3c0-1.3,1.1-2.3,2.4-2.3C75.7,0.6,76.8,1.6,76.8,2.9z
				 M72.6,2.9c0,1,0.8,1.8,1.8,1.8c1,0,1.8-0.8,1.8-1.8c0-1-0.7-1.8-1.8-1.8C73.4,1,72.6,1.9,72.6,2.9z M74,4.1h-0.5V1.8
				c0.2,0,0.5-0.1,0.9-0.1c0.4,0,0.6,0.1,0.8,0.2c0.1,0.1,0.2,0.3,0.2,0.5c0,0.3-0.2,0.4-0.5,0.5v0c0.2,0.1,0.4,0.3,0.4,0.6
				c0.1,0.4,0.1,0.5,0.2,0.6h-0.6c-0.1-0.1-0.1-0.3-0.2-0.6c0-0.3-0.2-0.4-0.5-0.4H74V4.1z M74,2.8h0.3c0.3,0,0.5-0.1,0.5-0.3
				c0-0.2-0.2-0.3-0.5-0.3c-0.1,0-0.2,0-0.3,0V2.8z"/>
		</g>
	</g>
</g>
<g>
	<g>
		<g>
			<path class="st2" d="M172.1,0.6c0.6-0.1,1.4-0.2,2.3-0.2c1.2,0,2.1,0.3,2.6,0.8c0.5,0.4,0.8,1.1,0.8,2c0,0.9-0.3,1.5-0.7,2
				c-0.6,0.7-1.7,1-2.9,1c-0.4,0-0.7,0-1-0.1v3.8h-1.2V0.6z M173.3,5.2c0.3,0.1,0.6,0.1,1,0.1c1.5,0,2.4-0.7,2.4-2
				c0-1.2-0.9-1.8-2.2-1.8c-0.5,0-0.9,0-1.1,0.1V5.2z"/>
			<path class="st2" d="M180.7,1.3c0,0.4-0.3,0.8-0.8,0.8c-0.4,0-0.7-0.3-0.7-0.8c0-0.4,0.3-0.8,0.8-0.8
				C180.4,0.5,180.7,0.8,180.7,1.3z M179.3,9.9V3.2h1.2v6.8H179.3z"/>
			<path class="st2" d="M182.6,5.3c0-0.8,0-1.5-0.1-2.1h1.1l0,1.3h0.1c0.3-0.9,1.1-1.5,1.9-1.5c0.1,0,0.2,0,0.4,0v1.2
				c-0.1,0-0.3,0-0.4,0c-0.9,0-1.5,0.7-1.7,1.6c0,0.2-0.1,0.4-0.1,0.6v3.6h-1.2V5.3z"/>
			<path class="st2" d="M190.8,9.9l-0.1-0.9h0c-0.4,0.5-1.1,1-2.1,1c-1.4,0-2.1-1-2.1-1.9c0-1.6,1.5-2.5,4.1-2.5V5.5
				c0-0.6-0.2-1.6-1.5-1.6c-0.6,0-1.3,0.2-1.8,0.5L187,3.6c0.6-0.4,1.4-0.6,2.2-0.6c2.1,0,2.6,1.4,2.6,2.8v2.5c0,0.6,0,1.2,0.1,1.6
				H190.8z M190.7,6.5c-1.3,0-2.9,0.2-2.9,1.5c0,0.8,0.5,1.2,1.2,1.2c0.9,0,1.4-0.6,1.6-1.1c0-0.1,0.1-0.3,0.1-0.4V6.5z"/>
			<path class="st2" d="M198.7,9.7c-0.3,0.2-1,0.4-1.9,0.4c-2,0-3.4-1.4-3.4-3.5c0-2.1,1.4-3.6,3.6-3.6c0.7,0,1.4,0.2,1.7,0.4
				l-0.3,1C198.1,4.2,197.7,4,197,4c-1.6,0-2.4,1.1-2.4,2.6c0,1.6,1,2.5,2.4,2.5c0.7,0,1.2-0.2,1.5-0.3L198.7,9.7z"/>
			<path class="st2" d="M200.7,6.8c0,1.7,1.1,2.4,2.3,2.4c0.9,0,1.4-0.2,1.9-0.4l0.2,0.9c-0.4,0.2-1.2,0.4-2.3,0.4
				c-2.1,0-3.3-1.4-3.3-3.4c0-2,1.2-3.7,3.2-3.7c2.2,0,2.8,1.9,2.8,3.2c0,0.3,0,0.4,0,0.6H200.7z M204.3,5.9c0-0.8-0.3-2-1.7-2
				c-1.2,0-1.8,1.1-1.9,2H204.3z"/>
			<path class="st2" d="M208.5,1.2v1.9h1.8v0.9h-1.8v3.7c0,0.8,0.2,1.3,0.9,1.3c0.3,0,0.6,0,0.7-0.1l0.1,0.9
				c-0.2,0.1-0.6,0.2-1.1,0.2c-0.6,0-1-0.2-1.3-0.5c-0.4-0.4-0.5-1-0.5-1.8V4.1h-1.1V3.2h1.1V1.5L208.5,1.2z"/>
			<path class="st2" d="M215.4,9.9l-0.1-0.9h0c-0.4,0.5-1.1,1-2.1,1c-1.4,0-2.1-1-2.1-1.9c0-1.6,1.5-2.5,4.1-2.5V5.5
				c0-0.6-0.2-1.6-1.5-1.6c-0.6,0-1.3,0.2-1.8,0.5l-0.3-0.8c0.6-0.4,1.4-0.6,2.2-0.6c2.1,0,2.6,1.4,2.6,2.8v2.5c0,0.6,0,1.2,0.1,1.6
				H215.4z M215.2,6.5c-1.3,0-2.9,0.2-2.9,1.5c0,0.8,0.5,1.2,1.2,1.2c0.9,0,1.4-0.6,1.6-1.1c0-0.1,0.1-0.3,0.1-0.4V6.5z"/>
			<path class="st2" d="M218.4,5c0-0.7,0-1.3-0.1-1.8h1.1l0.1,1.1h0c0.4-0.6,1-1.2,2.1-1.2c0.9,0,1.6,0.6,1.9,1.4h0
				c0.2-0.4,0.5-0.7,0.8-0.9c0.4-0.3,0.9-0.5,1.5-0.5c0.9,0,2.2,0.6,2.2,2.9v4h-1.2V6.1c0-1.3-0.5-2.1-1.5-2.1
				c-0.7,0-1.2,0.5-1.5,1.1c-0.1,0.2-0.1,0.4-0.1,0.6v4.2h-1.2V5.9c0-1.1-0.5-1.9-1.4-1.9c-0.8,0-1.3,0.6-1.5,1.2
				c-0.1,0.2-0.1,0.4-0.1,0.6v4.1h-1.2V5z"/>
		</g>
	</g>
</g>
<line class="st3" x1="304.6" y1="7" x2="321.5" y2="7"/>
<g>
	<g>
		<g>
			<path class="st2" d="M330.2,0.6c0.6-0.1,1.4-0.2,2.3-0.2c1.2,0,2.1,0.3,2.6,0.8c0.5,0.4,0.8,1.1,0.8,2c0,0.9-0.3,1.5-0.7,2
				c-0.6,0.7-1.7,1-2.9,1c-0.4,0-0.7,0-1-0.1v3.8h-1.2V0.6z M331.4,5.2c0.3,0.1,0.6,0.1,1,0.1c1.5,0,2.4-0.7,2.4-2
				c0-1.2-0.9-1.8-2.2-1.8c-0.5,0-0.9,0-1.1,0.1V5.2z"/>
			<path class="st2" d="M337.5,0h1.2v9.9h-1.2V0z"/>
			<path class="st2" d="M344.5,9.9l-0.1-0.9h0c-0.4,0.5-1.1,1-2.1,1c-1.4,0-2.1-1-2.1-1.9c0-1.6,1.5-2.5,4.1-2.5V5.5
				c0-0.6-0.2-1.6-1.5-1.6c-0.6,0-1.3,0.2-1.8,0.5l-0.3-0.8c0.6-0.4,1.4-0.6,2.2-0.6c2.1,0,2.6,1.4,2.6,2.8v2.5c0,0.6,0,1.2,0.1,1.6
				H344.5z M344.4,6.5c-1.3,0-2.9,0.2-2.9,1.5c0,0.8,0.5,1.2,1.2,1.2c0.9,0,1.4-0.6,1.6-1.1c0-0.1,0.1-0.3,0.1-0.4V6.5z"/>
			<path class="st2" d="M352.4,9.7c-0.3,0.2-1,0.4-1.9,0.4c-2,0-3.4-1.4-3.4-3.5c0-2.1,1.4-3.6,3.6-3.6c0.7,0,1.4,0.2,1.7,0.4
				l-0.3,1c-0.3-0.2-0.8-0.3-1.4-0.3c-1.6,0-2.4,1.1-2.4,2.6c0,1.6,1,2.5,2.4,2.5c0.7,0,1.2-0.2,1.5-0.3L352.4,9.7z"/>
			<path class="st2" d="M354.4,6.8c0,1.7,1.1,2.4,2.3,2.4c0.9,0,1.4-0.2,1.9-0.4l0.2,0.9c-0.4,0.2-1.2,0.4-2.3,0.4
				c-2.1,0-3.3-1.4-3.3-3.4c0-2,1.2-3.7,3.2-3.7c2.2,0,2.8,1.9,2.8,3.2c0,0.3,0,0.4,0,0.6H354.4z M358,5.9c0-0.8-0.3-2-1.7-2
				c-1.2,0-1.8,1.1-1.9,2H358z"/>
			<path class="st2" d="M360.7,9.9c0-0.5,0.1-1.1,0.1-1.8V0h1.2v4.3h0c0.4-0.8,1.2-1.2,2.3-1.2c1.7,0,2.9,1.4,2.9,3.5
				c0,2.4-1.5,3.6-3,3.6c-1,0-1.8-0.4-2.3-1.3h0l-0.1,1.1H360.7z M362,7.2c0,0.2,0,0.3,0.1,0.4c0.2,0.9,1,1.4,1.8,1.4
				c1.3,0,2.1-1.1,2.1-2.6c0-1.4-0.7-2.5-2-2.5c-0.8,0-1.6,0.6-1.9,1.5c0,0.1-0.1,0.3-0.1,0.5V7.2z"/>
			<path class="st2" d="M374.8,6.5c0,2.5-1.7,3.6-3.4,3.6c-1.8,0-3.3-1.3-3.3-3.5c0-2.3,1.5-3.6,3.4-3.6
				C373.5,3,374.8,4.4,374.8,6.5z M369.5,6.6c0,1.5,0.9,2.6,2.1,2.6c1.2,0,2.1-1.1,2.1-2.6c0-1.1-0.6-2.6-2-2.6
				C370.1,3.9,369.5,5.3,369.5,6.6z"/>
		</g>
	</g>
</g>
</svg>
