<!-- Generator: Adobe Illustrator 20.1.0, SVG Export Plug-In  -->
<svg version="1.1"
	 xmlns="http://www.w3.org/2000/svg" xmlns:xlink="http://www.w3.org/1999/xlink" xmlns:a="http://ns.adobe.com/AdobeSVGViewerExtensions/3.0/"
	 x="0px" y="0px" width="391.1px" height="70.8px" viewBox="0 0 391.1 70.8"
	 style="overflow:scroll;enable-background:new 0 0 391.1 70.8;" xml:space="preserve">
<style type="text/css">
	.st0{fill:#DA0962;}
	.st1{fill:#58595B;}
</style>
<defs>
</defs>
<g>
	<g>
		<path class="st0" d="M6.5,6.4H2.8v2.4h4.2v1.9H0.5V0.6h6.2v1.9H2.8v2.1h3.7V6.4z"/>
		<path class="st0" d="M17.1,10.2c-0.7,0.2-2,0.6-3.4,0.6c-1.8,0-3.2-0.5-4.1-1.4C8.7,8.5,8.1,7.2,8.2,5.7c0-3.4,2.5-5.3,5.8-5.3
			c1.3,0,2.3,0.3,2.8,0.5l-0.5,1.8c-0.6-0.2-1.2-0.4-2.4-0.4c-1.9,0-3.3,1.1-3.3,3.3c0,2.1,1.3,3.3,3.2,3.3c0.5,0,0.9-0.1,1.1-0.1
			V6.7h-1.6V4.9h3.8V10.2z"/>
		<path class="st0" d="M18.9,10.7c0-0.5,0.1-1.4,0.1-2.2V0h2.3v4.2h0c0.4-0.6,1.2-1,2.2-1c1.8,0,3,1.5,3,3.7c0,2.6-1.7,4-3.4,4
			c-0.9,0-1.7-0.3-2.2-1.2h0l-0.1,1H18.9z M21.2,7.5c0,0.2,0,0.3,0,0.4C21.4,8.6,21.9,9,22.6,9c1,0,1.6-0.8,1.6-2.1
			c0-1.1-0.5-2-1.6-2c-0.6,0-1.2,0.5-1.3,1.1c0,0.1,0,0.3,0,0.4V7.5z"/>
		<path class="st0" d="M34.8,0.9v1.4l-4,8.3h-2.4l4-7.8v0h-4.5V0.9H34.8z"/>
		<path class="st0" d="M42.5,2.5c-0.3,0-0.5,0-0.9,0c-2,0.2-2.9,1.2-3.2,2.3h0c0.5-0.5,1.2-0.8,2.1-0.8c1.6,0,3,1.2,3,3.2
			c0,1.9-1.5,3.5-3.6,3.5c-2.6,0-3.9-1.9-3.9-4.3c0-1.8,0.7-3.4,1.7-4.3c1-0.9,2.2-1.4,3.8-1.4c0.4,0,0.7,0,0.9,0V2.5z M41.2,7.4
			c0-0.9-0.5-1.7-1.5-1.7c-0.6,0-1.1,0.4-1.4,0.9c-0.1,0.1-0.1,0.3-0.1,0.6c0,1,0.5,2,1.6,2C40.7,9.2,41.2,8.4,41.2,7.4z"/>
		<path class="st0" d="M47.6,2.9L47.6,2.9l-1.9,0.9l-0.4-1.7l2.6-1.2h1.9v9.8h-2.2V2.9z"/>
		<path class="st0" d="M58.7,3c0,1.4-1.2,2.6-2.7,2.6c-1.5,0-2.7-1.2-2.7-2.6c0-1.4,1.2-2.6,2.7-2.6C57.5,0.4,58.7,1.5,58.7,3z
			 M54.1,3c0,1.1,0.8,1.9,1.9,1.9s1.9-0.9,1.9-1.9C57.9,1.9,57.1,1,56,1C54.9,1,54.1,1.9,54.1,3z M55.7,4.2h-0.7V1.8
			c0.2,0,0.6-0.1,1-0.1c0.5,0,0.8,0.1,1,0.2c0.2,0.1,0.3,0.3,0.3,0.5S57,2.9,56.7,3v0c0.3,0.1,0.4,0.3,0.5,0.6
			c0.1,0.3,0.1,0.5,0.2,0.6h-0.8c-0.1-0.1-0.1-0.3-0.2-0.5c0-0.2-0.2-0.4-0.4-0.4h-0.2V4.2z M55.7,2.8h0.2c0.3,0,0.4-0.1,0.4-0.3
			c0-0.2-0.2-0.3-0.4-0.3c-0.1,0-0.2,0-0.2,0V2.8z"/>
		<path class="st0" d="M66.2,0.2c-1.2,1.5-2.1,3.4-2.1,6.2c0,2.7,0.9,4.5,2.1,6.1h-0.7c-1-1.3-2.1-3.2-2.1-6.1c0-3,1.1-4.9,2.1-6.2
			H66.2z"/>
		<path class="st0" d="M75,10.2c-0.5,0.2-1.6,0.5-3,0.5c-1.3,0-2.5-0.3-3.6-1.3C67.6,8.6,67,7.3,67,5.6c0-2.8,1.8-5.2,5.3-5.2
			c1.1,0,2,0.3,2.4,0.5l-0.2,0.6c-0.5-0.3-1.2-0.4-2.2-0.4c-2.8,0-4.5,1.8-4.5,4.6c0,2.8,1.7,4.6,4.3,4.6c1.1,0,1.7-0.1,2.1-0.4V6.2
			h-2.3V5.7H75V10.2z"/>
		<path class="st0" d="M77.5,2C77.2,2,77,1.7,77,1.4s0.3-0.6,0.6-0.6s0.6,0.3,0.6,0.6C78.1,1.7,77.9,2,77.5,2L77.5,2z M77.2,10.7
			V3.5h0.7v7.2H77.2z"/>
		<path class="st0" d="M80.5,5.2c0-0.7,0-1.2-0.1-1.7h0.7l0,1.3h0c0.4-0.8,1.3-1.5,2.5-1.5c0.7,0,2.5,0.3,2.5,3v4.3h-0.7V6.4
			c0-1.3-0.5-2.5-2-2.5c-1,0-1.9,0.7-2.2,1.7c0,0.2-0.1,0.4-0.1,0.6v4.5h-0.7V5.2z"/>
		<path class="st0" d="M89.4,6.9L89.4,6.9c0.2-0.2,0.5-0.6,0.7-0.8l2.5-2.7h0.9l-2.9,3l3.3,4.2h-0.9l-2.9-3.8l-0.7,0.8v3h-0.7V0h0.7
			V6.9z"/>
		<path class="st0" d="M100.9,9.6c0,1.8-0.4,2.8-1,3.3c-0.7,0.6-1.6,0.9-2.4,0.9c-0.8,0-1.7-0.2-2.3-0.6l0.3-0.6
			c0.5,0.3,1.2,0.6,2.1,0.6c1.5,0,2.6-0.8,2.6-2.9v-1h0c-0.4,0.7-1.2,1.4-2.5,1.4c-1.8,0-3.1-1.6-3.1-3.5c0-2.5,1.6-3.8,3.2-3.8
			c1.4,0,2.1,0.8,2.4,1.4h0l0-1.2h0.7c0,0.5-0.1,1.1-0.1,1.9V9.6z M100.2,6.2c0-0.3,0-0.5-0.1-0.7c-0.3-0.9-1-1.6-2.2-1.6
			c-1.5,0-2.6,1.2-2.6,3.1c0,1.6,0.9,3,2.5,3c1,0,1.9-0.6,2.2-1.6c0.1-0.2,0.1-0.5,0.1-0.8V6.2z"/>
		<path class="st0" d="M106.2,10.8c-1.9,0-3.3-1.5-3.3-3.7c0-2.5,1.6-3.8,3.4-3.8c2,0,3.3,1.5,3.3,3.7
			C109.6,9.7,107.8,10.8,106.2,10.8L106.2,10.8z M106.2,10.2c1.5,0,2.7-1.4,2.7-3.2c0-1.3-0.7-3.1-2.6-3.1c-1.8,0-2.7,1.6-2.7,3.2
			C103.6,8.9,104.8,10.2,106.2,10.2L106.2,10.2z"/>
		<path class="st0" d="M114.6,0.7c0.6-0.1,1.3-0.2,2-0.2c1.3,0,2.1,0.3,2.6,0.8c0.4,0.4,0.6,0.9,0.6,1.7c0,1-0.7,1.9-1.7,2.3v0
			c0.9,0.2,2.1,0.9,2.1,2.6c0,0.8-0.3,1.5-0.8,1.9c-0.7,0.7-1.8,1-3.2,1c-0.8,0-1.3-0.1-1.8-0.1V0.7z M115.3,5h1.5
			c1.5,0,2.4-0.9,2.4-2c0-1.4-1.1-1.9-2.6-1.9c-0.7,0-1,0-1.3,0.1V5z M115.3,10.1c0.3,0.1,0.7,0.1,1.2,0.1c1.5,0,3-0.6,3-2.3
			c0-1.6-1.4-2.3-3-2.3h-1.3V10.1z"/>
		<path class="st0" d="M122.7,2c-0.3,0-0.6-0.3-0.6-0.6s0.3-0.6,0.6-0.6s0.6,0.3,0.6,0.6C123.3,1.7,123.1,2,122.7,2L122.7,2z
			 M122.4,10.7V3.5h0.7v7.2H122.4z"/>
		<path class="st0" d="M125.6,0h0.7v10.7h-0.7V0z"/>
		<path class="st0" d="M131.7,10.8c-1.9,0-3.3-1.5-3.3-3.7c0-2.5,1.6-3.8,3.4-3.8c2,0,3.3,1.5,3.3,3.7
			C135.1,9.7,133.3,10.8,131.7,10.8L131.7,10.8z M131.7,10.2c1.5,0,2.7-1.4,2.7-3.2c0-1.3-0.7-3.1-2.6-3.1c-1.8,0-2.7,1.6-2.7,3.2
			C129.1,8.9,130.2,10.2,131.7,10.2L131.7,10.2z"/>
		<path class="st0" d="M137.1,0h0.7v4.8h0c0.5-0.9,1.4-1.5,2.6-1.5c1.8,0,3.1,1.5,3.1,3.7c0,2.6-1.6,3.8-3.2,3.8
			c-1.2,0-2-0.5-2.6-1.5h0l-0.1,1.3H137c0-0.5,0.1-1.1,0.1-1.7V0z M137.8,7.9c0,0.2,0,0.3,0.1,0.5c0.3,1.1,1.2,1.8,2.4,1.8
			c1.7,0,2.6-1.4,2.6-3.2c0-1.6-0.9-3.1-2.5-3.1c-1,0-2.1,0.7-2.4,1.9c0,0.2-0.1,0.4-0.1,0.6V7.9z"/>
		<path class="st0" d="M150,9c0,0.6,0,1.2,0.1,1.7h-0.7l-0.1-1h0c-0.4,0.6-1.2,1.2-2.3,1.2c-1.5,0-2.1-1-2.1-2
			c0-1.7,1.5-2.7,4.4-2.6V6c0-0.7-0.1-2.1-1.8-2.1c-0.6,0-1.3,0.2-1.8,0.5l-0.2-0.5c0.7-0.4,1.5-0.6,2.1-0.6c2.1,0,2.5,1.6,2.5,2.8
			V9z M149.3,6.8c-1.6,0-3.6,0.2-3.6,1.9c0,1,0.7,1.5,1.4,1.5c1.2,0,1.9-0.7,2.1-1.4c0.1-0.2,0.1-0.3,0.1-0.4V6.8z"/>
		<path class="st0" d="M151.4,12.5c1.2-1.5,2.1-3.4,2.1-6.2c0-2.7-0.9-4.6-2.1-6.1h0.7c1,1.3,2.1,3.2,2.1,6.1c0,3-1.1,4.8-2.1,6.1
			H151.4z"/>
		<path class="st1" d="M159.3,5.8c0-0.9,0-1.7-0.1-2.4h1.2l0.1,1.2h0c0.5-0.9,1.4-1.4,2.6-1.4c1.8,0,3.1,1.5,3.1,3.7
			c0,2.6-1.6,3.9-3.3,3.9c-1,0-1.8-0.4-2.2-1.1h0v3.9h-1.3V5.8z M160.6,7.7c0,0.2,0,0.4,0.1,0.5c0.2,0.9,1,1.5,2,1.5
			c1.4,0,2.2-1.1,2.2-2.8c0-1.5-0.8-2.7-2.2-2.7c-0.9,0-1.7,0.6-2,1.6c0,0.2-0.1,0.4-0.1,0.5V7.7z"/>
		<path class="st1" d="M167.8,5.7c0-0.9,0-1.6-0.1-2.3h1.2l0,1.4h0.1c0.3-1,1.1-1.6,2-1.6c0.2,0,0.3,0,0.4,0v1.2c-0.1,0-0.3,0-0.5,0
			c-0.9,0-1.6,0.7-1.8,1.7c0,0.2-0.1,0.4-0.1,0.6v3.9h-1.3V5.7z"/>
		<path class="st1" d="M179.3,7c0,2.7-1.9,3.9-3.6,3.9c-2,0-3.5-1.4-3.5-3.7c0-2.4,1.6-3.9,3.6-3.9C177.9,3.2,179.3,4.8,179.3,7z
			 M173.5,7c0,1.6,0.9,2.8,2.2,2.8c1.3,0,2.2-1.2,2.2-2.8c0-1.2-0.6-2.8-2.2-2.8C174.2,4.2,173.5,5.7,173.5,7z"/>
		<path class="st1" d="M182.5,1.3v2.1h1.9v1h-1.9v3.9c0,0.9,0.3,1.4,1,1.4c0.3,0,0.6,0,0.8-0.1l0.1,1c-0.3,0.1-0.7,0.2-1.2,0.2
			c-0.6,0-1.1-0.2-1.4-0.6c-0.4-0.4-0.5-1-0.5-1.9v-4h-1.1v-1h1.1V1.7L182.5,1.3z"/>
		<path class="st1" d="M186.6,7.3c0,1.8,1.2,2.5,2.5,2.5c0.9,0,1.5-0.2,2-0.4l0.2,0.9c-0.5,0.2-1.3,0.5-2.4,0.5
			c-2.2,0-3.6-1.5-3.6-3.7c0-2.2,1.3-3.9,3.4-3.9c2.4,0,3,2.1,3,3.4c0,0.3,0,0.5,0,0.6H186.6z M190.5,6.3c0-0.8-0.3-2.1-1.8-2.1
			c-1.3,0-1.9,1.2-2,2.1H190.5z"/>
		<path class="st1" d="M199.7,3.4c0,0.5-0.1,1.1-0.1,2v4.2c0,1.7-0.3,2.7-1,3.3c-0.7,0.7-1.7,0.9-2.6,0.9c-0.9,0-1.8-0.2-2.4-0.6
			l0.3-1c0.5,0.3,1.2,0.6,2.1,0.6c1.3,0,2.3-0.7,2.3-2.5V9.4h0c-0.4,0.7-1.2,1.2-2.3,1.2c-1.8,0-3.1-1.5-3.1-3.5
			c0-2.5,1.6-3.9,3.3-3.9c1.3,0,2,0.7,2.3,1.3h0l0.1-1.1H199.7z M198.3,6.3c0-0.2,0-0.4-0.1-0.6c-0.2-0.8-0.9-1.4-1.8-1.4
			c-1.3,0-2.2,1.1-2.2,2.7c0,1.4,0.7,2.6,2.1,2.6c0.8,0,1.5-0.5,1.8-1.3c0.1-0.2,0.1-0.5,0.1-0.7V6.3z"/>
		<path class="st1" d="M202.5,7.3c0,1.8,1.2,2.5,2.5,2.5c0.9,0,1.5-0.2,2-0.4l0.2,0.9c-0.5,0.2-1.3,0.5-2.4,0.5
			c-2.2,0-3.6-1.5-3.6-3.7c0-2.2,1.3-3.9,3.4-3.9c2.4,0,3,2.1,3,3.4c0,0.3,0,0.5,0,0.6H202.5z M206.4,6.3c0-0.8-0.3-2.1-1.8-2.1
			c-1.3,0-1.9,1.2-2,2.1H206.4z"/>
		<path class="st1" d="M212.1,0h1.3v10.6h-1.3V0z"/>
		<path class="st1" d="M219.7,10.7l-0.1-0.9h0c-0.4,0.6-1.2,1.1-2.2,1.1c-1.5,0-2.2-1-2.2-2.1c0-1.8,1.6-2.7,4.4-2.7V5.9
			c0-0.6-0.2-1.7-1.6-1.7c-0.7,0-1.4,0.2-1.9,0.5l-0.3-0.9c0.6-0.4,1.5-0.6,2.4-0.6c2.2,0,2.8,1.5,2.8,3v2.7c0,0.6,0,1.2,0.1,1.7
			H219.7z M219.5,7c-1.4,0-3.1,0.2-3.1,1.6c0,0.9,0.6,1.3,1.2,1.3c0.9,0,1.5-0.6,1.8-1.2c0-0.1,0.1-0.3,0.1-0.4V7z"/>
		<path class="st1" d="M222.7,9.3c0.4,0.3,1.1,0.5,1.7,0.5c1,0,1.4-0.5,1.4-1.1c0-0.6-0.4-1-1.3-1.3c-1.3-0.5-1.9-1.2-1.9-2.1
			c0-1.2,0.9-2.1,2.5-2.1c0.7,0,1.4,0.2,1.8,0.5l-0.3,1c-0.3-0.2-0.8-0.4-1.5-0.4c-0.8,0-1.2,0.5-1.2,1c0,0.6,0.4,0.9,1.4,1.2
			c1.3,0.5,1.9,1.1,1.9,2.2c0,1.3-1,2.2-2.7,2.2c-0.8,0-1.5-0.2-2-0.5L222.7,9.3z"/>
		<path class="st1" d="M234.4,5.4c0-0.8,0-1.4-0.1-2h1.2l0.1,1.2h0c0.4-0.7,1.1-1.3,2.3-1.3c1,0,1.7,0.6,2.1,1.5h0
			c0.2-0.4,0.5-0.7,0.8-0.9c0.4-0.3,0.9-0.5,1.6-0.5c1,0,2.4,0.6,2.4,3.2v4.3h-1.3V6.6c0-1.4-0.5-2.2-1.6-2.2
			c-0.8,0-1.3,0.6-1.6,1.2c-0.1,0.2-0.1,0.4-0.1,0.7v4.5h-1.3V6.3c0-1.2-0.5-2-1.5-2c-0.8,0-1.4,0.7-1.6,1.3
			c-0.1,0.2-0.1,0.4-0.1,0.6v4.4h-1.3V5.4z"/>
		<path class="st1" d="M247.6,7.3c0,1.8,1.2,2.5,2.5,2.5c0.9,0,1.5-0.2,2-0.4l0.2,0.9c-0.5,0.2-1.3,0.5-2.4,0.5
			c-2.2,0-3.6-1.5-3.6-3.7c0-2.2,1.3-3.9,3.4-3.9c2.4,0,3,2.1,3,3.4c0,0.3,0,0.5,0,0.6H247.6z M251.5,6.3c0-0.8-0.3-2.1-1.8-2.1
			c-1.3,0-1.9,1.2-2,2.1H251.5z"/>
		<path class="st1" d="M254.4,5.4c0-0.8,0-1.4-0.1-2h1.2l0.1,1.2h0c0.4-0.7,1.1-1.3,2.3-1.3c1,0,1.7,0.6,2.1,1.5h0
			c0.2-0.4,0.5-0.7,0.8-0.9c0.4-0.3,0.9-0.5,1.6-0.5c1,0,2.4,0.6,2.4,3.2v4.3h-1.3V6.6c0-1.4-0.5-2.2-1.6-2.2
			c-0.8,0-1.3,0.6-1.6,1.2c-0.1,0.2-0.1,0.4-0.1,0.7v4.5h-1.3V6.3c0-1.2-0.5-2-1.5-2c-0.8,0-1.4,0.7-1.6,1.3
			c-0.1,0.2-0.1,0.4-0.1,0.6v4.4h-1.3V5.4z"/>
		<path class="st1" d="M266.8,10.7c0-0.5,0.1-1.2,0.1-1.9V0h1.3v4.6h0c0.5-0.8,1.3-1.3,2.5-1.3c1.8,0,3.1,1.5,3.1,3.7
			c0,2.6-1.6,3.9-3.3,3.9c-1,0-1.9-0.4-2.4-1.4h0l-0.1,1.2H266.8z M268.2,7.8c0,0.2,0,0.3,0.1,0.5c0.3,0.9,1,1.5,2,1.5
			c1.4,0,2.2-1.1,2.2-2.8c0-1.5-0.8-2.7-2.2-2.7c-0.9,0-1.7,0.6-2,1.6c0,0.2-0.1,0.3-0.1,0.5V7.8z"/>
		<path class="st1" d="M275.4,5.7c0-0.9,0-1.6-0.1-2.3h1.2l0,1.4h0.1c0.3-1,1.1-1.6,2-1.6c0.2,0,0.3,0,0.4,0v1.2c-0.1,0-0.3,0-0.5,0
			c-0.9,0-1.6,0.7-1.8,1.7c0,0.2-0.1,0.4-0.1,0.6v3.9h-1.3V5.7z"/>
		<path class="st1" d="M284.3,10.7l-0.1-0.9h0c-0.4,0.6-1.2,1.1-2.2,1.1c-1.5,0-2.2-1-2.2-2.1c0-1.8,1.6-2.7,4.4-2.7V5.9
			c0-0.6-0.2-1.7-1.6-1.7c-0.7,0-1.4,0.2-1.9,0.5l-0.3-0.9c0.6-0.4,1.5-0.6,2.4-0.6c2.2,0,2.8,1.5,2.8,3v2.7c0,0.6,0,1.2,0.1,1.7
			H284.3z M284.2,7c-1.4,0-3.1,0.2-3.1,1.6c0,0.9,0.6,1.3,1.2,1.3c0.9,0,1.5-0.6,1.8-1.2c0-0.1,0.1-0.3,0.1-0.4V7z"/>
		<path class="st1" d="M287.6,5.4c0-0.8,0-1.4-0.1-2h1.2l0.1,1.2h0c0.4-0.7,1.2-1.4,2.4-1.4c1,0,2.6,0.6,2.6,3.1v4.3h-1.3V6.5
			c0-1.2-0.4-2.1-1.7-2.1c-0.9,0-1.5,0.6-1.8,1.4c-0.1,0.2-0.1,0.4-0.1,0.6v4.4h-1.3V5.4z"/>
		<path class="st1" d="M299.9,10.7l-0.1-0.9h0c-0.4,0.6-1.2,1.1-2.2,1.1c-1.5,0-2.2-1-2.2-2.1c0-1.8,1.6-2.7,4.4-2.7V5.9
			c0-0.6-0.2-1.7-1.6-1.7c-0.7,0-1.4,0.2-1.9,0.5l-0.3-0.9c0.6-0.4,1.5-0.6,2.4-0.6c2.2,0,2.8,1.5,2.8,3v2.7c0,0.6,0,1.2,0.1,1.7
			H299.9z M299.7,7c-1.4,0-3.1,0.2-3.1,1.6c0,0.9,0.6,1.3,1.2,1.3c0.9,0,1.5-0.6,1.8-1.2c0-0.1,0.1-0.3,0.1-0.4V7z"/>
		<path class="st1" d="M302.9,9.3c0.4,0.3,1.1,0.5,1.7,0.5c1,0,1.4-0.5,1.4-1.1c0-0.6-0.4-1-1.3-1.3c-1.3-0.5-1.9-1.2-1.9-2.1
			c0-1.2,0.9-2.1,2.5-2.1c0.7,0,1.4,0.2,1.8,0.5l-0.3,1c-0.3-0.2-0.8-0.4-1.5-0.4c-0.8,0-1.2,0.5-1.2,1c0,0.6,0.4,0.9,1.4,1.2
			c1.3,0.5,1.9,1.1,1.9,2.2c0,1.3-1,2.2-2.7,2.2c-0.8,0-1.5-0.2-2-0.5L302.9,9.3z"/>
		<path class="st1" d="M318.1,0v8.8c0,0.6,0,1.4,0.1,1.9H317l-0.1-1.3h0c-0.4,0.8-1.3,1.4-2.5,1.4c-1.8,0-3.1-1.5-3.1-3.7
			c0-2.4,1.5-3.9,3.3-3.9c1.1,0,1.9,0.5,2.2,1.1h0V0H318.1z M316.8,6.4c0-0.2,0-0.4-0.1-0.6c-0.2-0.8-0.9-1.5-1.9-1.5
			c-1.4,0-2.2,1.2-2.2,2.8c0,1.5,0.7,2.7,2.1,2.7c0.9,0,1.7-0.6,1.9-1.6c0-0.2,0.1-0.4,0.1-0.6V6.4z"/>
		<path class="st1" d="M321,7.3c0,1.8,1.2,2.5,2.5,2.5c0.9,0,1.5-0.2,2-0.4l0.2,0.9c-0.5,0.2-1.3,0.5-2.4,0.5
			c-2.2,0-3.6-1.5-3.6-3.7c0-2.2,1.3-3.9,3.4-3.9c2.4,0,3,2.1,3,3.4c0,0.3,0,0.5,0,0.6H321z M324.9,6.3c0-0.8-0.3-2.1-1.8-2.1
			c-1.3,0-1.9,1.2-2,2.1H324.9z"/>
		<path class="st1" d="M330.6,0h1.3v10.6h-1.3V0z"/>
		<path class="st1" d="M338.1,10.7L338,9.8h0c-0.4,0.6-1.2,1.1-2.2,1.1c-1.5,0-2.2-1-2.2-2.1c0-1.8,1.6-2.7,4.4-2.7V5.9
			c0-0.6-0.2-1.7-1.6-1.7c-0.7,0-1.4,0.2-1.9,0.5l-0.3-0.9c0.6-0.4,1.5-0.6,2.4-0.6c2.2,0,2.8,1.5,2.8,3v2.7c0,0.6,0,1.2,0.1,1.7
			H338.1z M337.9,7c-1.4,0-3.1,0.2-3.1,1.6c0,0.9,0.6,1.3,1.2,1.3c0.9,0,1.5-0.6,1.8-1.2c0-0.1,0.1-0.3,0.1-0.4V7z"/>
		<path class="st1" d="M341.2,9.3c0.4,0.3,1.1,0.5,1.7,0.5c1,0,1.4-0.5,1.4-1.1c0-0.6-0.4-1-1.3-1.3C341.7,7,341,6.2,341,5.4
			c0-1.2,0.9-2.1,2.5-2.1c0.7,0,1.4,0.2,1.8,0.5l-0.3,1c-0.3-0.2-0.8-0.4-1.5-0.4c-0.8,0-1.2,0.5-1.2,1c0,0.6,0.4,0.9,1.4,1.2
			c1.3,0.5,1.9,1.1,1.9,2.2c0,1.3-1,2.2-2.7,2.2c-0.8,0-1.5-0.2-2-0.5L341.2,9.3z"/>
		<path class="st1" d="M355.2,10.4c-0.3,0.2-1.1,0.4-2.1,0.4c-2.2,0-3.6-1.5-3.6-3.7c0-2.2,1.5-3.9,3.9-3.9c0.8,0,1.5,0.2,1.8,0.4
			l-0.3,1c-0.3-0.2-0.8-0.3-1.5-0.3c-1.7,0-2.6,1.2-2.6,2.7c0,1.7,1.1,2.7,2.5,2.7c0.8,0,1.2-0.2,1.6-0.4L355.2,10.4z"/>
		<path class="st1" d="M357.5,7.3c0,1.8,1.2,2.5,2.5,2.5c0.9,0,1.5-0.2,2-0.4l0.2,0.9c-0.5,0.2-1.3,0.5-2.4,0.5
			c-2.2,0-3.6-1.5-3.6-3.7c0-2.2,1.3-3.9,3.4-3.9c2.4,0,3,2.1,3,3.4c0,0.3,0,0.5,0,0.6H357.5z M361.4,6.3c0-0.8-0.3-2.1-1.8-2.1
			c-1.3,0-1.9,1.2-2,2.1H361.4z M361.7,0.3l-1.8,2.1h-0.9l1.3-2.1H361.7z"/>
		<path class="st1" d="M364.3,0h1.3v10.6h-1.3V0z"/>
		<path class="st1" d="M373.9,8.7c0,0.8,0,1.4,0.1,2h-1.2l-0.1-1.2h0c-0.3,0.6-1.1,1.3-2.4,1.3c-1.1,0-2.5-0.6-2.5-3.2V3.4h1.3v4
			c0,1.4,0.4,2.3,1.6,2.3c0.9,0,1.5-0.6,1.7-1.2c0.1-0.2,0.1-0.4,0.1-0.7V3.4h1.3V8.7z"/>
		<path class="st1" d="M376.1,0h1.3v10.6h-1.3V0z"/>
		<path class="st1" d="M383.7,10.7l-0.1-0.9h0c-0.4,0.6-1.2,1.1-2.2,1.1c-1.5,0-2.2-1-2.2-2.1c0-1.8,1.6-2.7,4.4-2.7V5.9
			c0-0.6-0.2-1.7-1.6-1.7c-0.7,0-1.4,0.2-1.9,0.5l-0.3-0.9c0.6-0.4,1.5-0.6,2.4-0.6c2.2,0,2.8,1.5,2.8,3v2.7c0,0.6,0,1.2,0.1,1.7
			H383.7z M383.5,7c-1.4,0-3.1,0.2-3.1,1.6c0,0.9,0.6,1.3,1.2,1.3c0.9,0,1.5-0.6,1.8-1.2c0-0.1,0.1-0.3,0.1-0.4V7z"/>
		<path class="st1" d="M386.7,9.3c0.4,0.3,1.1,0.5,1.7,0.5c1,0,1.4-0.5,1.4-1.1c0-0.6-0.4-1-1.3-1.3c-1.3-0.5-1.9-1.2-1.9-2.1
			c0-1.2,0.9-2.1,2.5-2.1c0.7,0,1.4,0.2,1.8,0.5l-0.3,1c-0.3-0.2-0.8-0.4-1.5-0.4c-0.8,0-1.2,0.5-1.2,1c0,0.6,0.4,0.9,1.4,1.2
			c1.3,0.5,1.9,1.1,1.9,2.2c0,1.3-1,2.2-2.7,2.2c-0.8,0-1.5-0.2-2-0.5L386.7,9.3z"/>
		<path class="st1" d="M0.6,25.4c0-0.8,0-1.4-0.1-2h1.2l0.1,1.2h0c0.4-0.7,1.2-1.4,2.4-1.4c1,0,2.6,0.6,2.6,3.1v4.3H5.4v-4.2
			c0-1.2-0.4-2.1-1.7-2.1c-0.9,0-1.5,0.6-1.8,1.4c-0.1,0.2-0.1,0.4-0.1,0.6v4.4H0.6V25.4z"/>
		<path class="st1" d="M9.6,27.3c0,1.8,1.2,2.5,2.5,2.5c0.9,0,1.5-0.2,2-0.4l0.2,0.9c-0.5,0.2-1.3,0.5-2.4,0.5
			c-2.2,0-3.6-1.5-3.6-3.7c0-2.2,1.3-3.9,3.4-3.9c2.4,0,3,2.1,3,3.4c0,0.3,0,0.5,0,0.6H9.6z M13.5,26.3c0-0.8-0.3-2.1-1.8-2.1
			c-1.3,0-1.9,1.2-2,2.1H13.5z"/>
		<path class="st1" d="M22.5,28.7c0,0.8,0,1.4,0.1,2h-1.2l-0.1-1.2h0c-0.3,0.6-1.1,1.3-2.4,1.3c-1.1,0-2.5-0.6-2.5-3.2v-4.2h1.3v4
			c0,1.4,0.4,2.3,1.6,2.3c0.9,0,1.5-0.6,1.7-1.2c0.1-0.2,0.1-0.4,0.1-0.7v-4.5h1.3V28.7z"/>
		<path class="st1" d="M24.7,25.7c0-0.9,0-1.6-0.1-2.3h1.2l0,1.4h0.1c0.3-1,1.1-1.6,2-1.6c0.2,0,0.3,0,0.4,0v1.2c-0.1,0-0.3,0-0.5,0
			c-0.9,0-1.6,0.7-1.8,1.7c0,0.2-0.1,0.4-0.1,0.6v3.9h-1.3V25.7z"/>
		<path class="st1" d="M36.1,27c0,2.7-1.9,3.9-3.6,3.9c-2,0-3.5-1.4-3.5-3.7c0-2.4,1.6-3.9,3.6-3.9C34.7,23.2,36.1,24.8,36.1,27z
			 M30.4,27c0,1.6,0.9,2.8,2.2,2.8c1.3,0,2.2-1.2,2.2-2.8c0-1.2-0.6-2.8-2.2-2.8C31.1,24.2,30.4,25.7,30.4,27z"/>
		<path class="st1" d="M37.8,25.4c0-0.8,0-1.4-0.1-2h1.2l0.1,1.2h0c0.4-0.7,1.2-1.4,2.4-1.4c1,0,2.6,0.6,2.6,3.1v4.3h-1.3v-4.2
			c0-1.2-0.4-2.1-1.7-2.1c-0.9,0-1.5,0.6-1.8,1.4c-0.1,0.2-0.1,0.4-0.1,0.6v4.4h-1.3V25.4z"/>
		<path class="st1" d="M50.2,30.7l-0.1-0.9h0c-0.4,0.6-1.2,1.1-2.2,1.1c-1.5,0-2.2-1-2.2-2.1c0-1.8,1.6-2.7,4.4-2.7v-0.1
			c0-0.6-0.2-1.7-1.6-1.7c-0.7,0-1.4,0.2-1.9,0.5l-0.3-0.9c0.6-0.4,1.5-0.6,2.4-0.6c2.2,0,2.8,1.5,2.8,3v2.7c0,0.6,0,1.2,0.1,1.7
			H50.2z M50,27c-1.4,0-3.1,0.2-3.1,1.6c0,0.9,0.6,1.3,1.2,1.3c0.9,0,1.5-0.6,1.8-1.2c0-0.1,0.1-0.3,0.1-0.4V27z"/>
		<path class="st1" d="M53.4,20h1.3v10.6h-1.3V20z"/>
		<path class="st1" d="M57.6,27.3c0,1.8,1.2,2.5,2.5,2.5c0.9,0,1.5-0.2,2-0.4l0.2,0.9c-0.5,0.2-1.3,0.5-2.4,0.5
			c-2.2,0-3.6-1.5-3.6-3.7c0-2.2,1.3-3.9,3.4-3.9c2.4,0,3,2.1,3,3.4c0,0.3,0,0.5,0,0.6H57.6z M61.5,26.3c0-0.8-0.3-2.1-1.8-2.1
			c-1.3,0-1.9,1.2-2,2.1H61.5z"/>
		<path class="st1" d="M64.2,29.3c0.4,0.3,1.1,0.5,1.7,0.5c1,0,1.4-0.5,1.4-1.1c0-0.6-0.4-1-1.3-1.3c-1.3-0.5-1.9-1.2-1.9-2.1
			c0-1.2,0.9-2.1,2.5-2.1c0.7,0,1.4,0.2,1.8,0.5l-0.3,1c-0.3-0.2-0.8-0.4-1.5-0.4c-0.8,0-1.2,0.5-1.2,1c0,0.6,0.4,0.9,1.4,1.2
			c1.3,0.5,1.9,1.1,1.9,2.2c0,1.3-1,2.2-2.7,2.2c-0.8,0-1.5-0.2-2-0.5L64.2,29.3z"/>
		<path class="st1" d="M87.6,30.4c-0.3,0.2-1.1,0.4-2.1,0.4c-2.2,0-3.6-1.5-3.6-3.7c0-2.2,1.5-3.9,3.9-3.9c0.8,0,1.5,0.2,1.8,0.4
			l-0.3,1c-0.3-0.2-0.8-0.3-1.5-0.3c-1.7,0-2.6,1.2-2.6,2.7c0,1.7,1.1,2.7,2.5,2.7c0.8,0,1.2-0.2,1.6-0.4L87.6,30.4z"/>
		<path class="st1" d="M95.7,27c0,2.7-1.9,3.9-3.6,3.9c-2,0-3.5-1.4-3.5-3.7c0-2.4,1.6-3.9,3.6-3.9C94.3,23.2,95.7,24.8,95.7,27z
			 M89.9,27c0,1.6,0.9,2.8,2.2,2.8c1.3,0,2.2-1.2,2.2-2.8c0-1.2-0.6-2.8-2.2-2.8C90.6,24.2,89.9,25.7,89.9,27z"/>
		<path class="st1" d="M97.4,25.4c0-0.8,0-1.4-0.1-2h1.2l0.1,1.2h0c0.4-0.7,1.2-1.4,2.4-1.4c1,0,2.6,0.6,2.6,3.1v4.3h-1.3v-4.2
			c0-1.2-0.4-2.1-1.7-2.1c-0.9,0-1.5,0.6-1.8,1.4c-0.1,0.2-0.1,0.4-0.1,0.6v4.4h-1.3V25.4z"/>
		<path class="st1" d="M107.3,21.3v2.1h1.9v1h-1.9v3.9c0,0.9,0.3,1.4,1,1.4c0.3,0,0.6,0,0.8-0.1l0.1,1c-0.3,0.1-0.7,0.2-1.2,0.2
			c-0.6,0-1.1-0.2-1.4-0.6c-0.4-0.4-0.5-1-0.5-1.9v-4h-1.1v-1h1.1v-1.7L107.3,21.3z"/>
		<path class="st1" d="M110.6,25.7c0-0.9,0-1.6-0.1-2.3h1.2l0,1.4h0.1c0.3-1,1.1-1.6,2-1.6c0.2,0,0.3,0,0.4,0v1.2
			c-0.1,0-0.3,0-0.5,0c-0.9,0-1.6,0.7-1.8,1.7c0,0.2-0.1,0.4-0.1,0.6v3.9h-1.3V25.7z"/>
		<path class="st1" d="M119.6,30.7l-0.1-0.9h0c-0.4,0.6-1.2,1.1-2.2,1.1c-1.5,0-2.2-1-2.2-2.1c0-1.8,1.6-2.7,4.4-2.7v-0.1
			c0-0.6-0.2-1.7-1.6-1.7c-0.7,0-1.4,0.2-1.9,0.5l-0.3-0.9c0.6-0.4,1.5-0.6,2.4-0.6c2.2,0,2.8,1.5,2.8,3v2.7c0,0.6,0,1.2,0.1,1.7
			H119.6z M119.4,27c-1.4,0-3.1,0.2-3.1,1.6c0,0.9,0.6,1.3,1.2,1.3c0.9,0,1.5-0.6,1.8-1.2c0-0.1,0.1-0.3,0.1-0.4V27z"/>
		<path class="st1" d="M135.5,27.3c0,1.8,1.2,2.5,2.5,2.5c0.9,0,1.5-0.2,2-0.4l0.2,0.9c-0.5,0.2-1.3,0.5-2.4,0.5
			c-2.2,0-3.6-1.5-3.6-3.7c0-2.2,1.3-3.9,3.4-3.9c2.4,0,3,2.1,3,3.4c0,0.3,0,0.5,0,0.6H135.5z M139.4,26.3c0-0.8-0.3-2.1-1.8-2.1
			c-1.3,0-1.9,1.2-2,2.1H139.4z"/>
		<path class="st1" d="M142.3,20h1.3v10.6h-1.3V20z"/>
		<path class="st1" d="M164.2,20v8.8c0,0.6,0,1.4,0.1,1.9H163l-0.1-1.3h0c-0.4,0.8-1.3,1.4-2.5,1.4c-1.8,0-3.1-1.5-3.1-3.7
			c0-2.4,1.5-3.9,3.3-3.9c1.1,0,1.9,0.5,2.2,1.1h0V20H164.2z M162.8,26.4c0-0.2,0-0.4-0.1-0.6c-0.2-0.8-0.9-1.5-1.9-1.5
			c-1.4,0-2.2,1.2-2.2,2.8c0,1.5,0.7,2.7,2.1,2.7c0.9,0,1.7-0.6,1.9-1.6c0-0.2,0.1-0.4,0.1-0.6V26.4z"/>
		<path class="st1" d="M170.4,30.7l-0.1-0.9h0c-0.4,0.6-1.2,1.1-2.2,1.1c-1.5,0-2.2-1-2.2-2.1c0-1.8,1.6-2.7,4.4-2.7v-0.1
			c0-0.6-0.2-1.7-1.6-1.7c-0.7,0-1.4,0.2-1.9,0.5l-0.3-0.9c0.6-0.4,1.5-0.6,2.4-0.6c2.2,0,2.8,1.5,2.8,3v2.7c0,0.6,0,1.2,0.1,1.7
			H170.4z M170.2,27c-1.4,0-3.1,0.2-3.1,1.6c0,0.9,0.6,1.3,1.2,1.3c0.9,0,1.5-0.6,1.8-1.2c0-0.1,0.1-0.3,0.1-0.4V27z"/>
		<path class="st1" d="M173.6,25.4c0-0.8,0-1.4-0.1-2h1.2l0.1,1.2h0c0.4-0.7,1.2-1.4,2.4-1.4c1,0,2.6,0.6,2.6,3.1v4.3h-1.3v-4.2
			c0-1.2-0.4-2.1-1.7-2.1c-0.9,0-1.5,0.6-1.8,1.4c-0.1,0.2-0.1,0.4-0.1,0.6v4.4h-1.3V25.4z M174.8,22.2c0-1,0.4-1.6,1-1.6
			c0.3,0,0.6,0.1,0.9,0.3c0.2,0.1,0.5,0.3,0.6,0.3c0.2,0,0.4-0.1,0.4-0.6h0.7c0,1-0.3,1.5-1,1.5c-0.3,0-0.6-0.1-0.9-0.3
			c-0.3-0.2-0.5-0.3-0.6-0.3c-0.2,0-0.4,0.3-0.4,0.7H174.8z"/>
		<path class="st1" d="M188.5,27c0,2.7-1.9,3.9-3.6,3.9c-2,0-3.5-1.4-3.5-3.7c0-2.4,1.6-3.9,3.6-3.9C187.1,23.2,188.5,24.8,188.5,27
			z M182.7,27c0,1.6,0.9,2.8,2.2,2.8c1.3,0,2.2-1.2,2.2-2.8c0-1.2-0.6-2.8-2.2-2.8C183.4,24.2,182.7,25.7,182.7,27z"/>
		<path class="st1" d="M208.4,20v8.8c0,0.6,0,1.4,0.1,1.9h-1.2l-0.1-1.3h0c-0.4,0.8-1.3,1.4-2.5,1.4c-1.8,0-3.1-1.5-3.1-3.7
			c0-2.4,1.5-3.9,3.3-3.9c1.1,0,1.9,0.5,2.2,1.1h0V20H208.4z M207.1,26.4c0-0.2,0-0.4-0.1-0.6c-0.2-0.8-0.9-1.5-1.9-1.5
			c-1.4,0-2.2,1.2-2.2,2.8c0,1.5,0.7,2.7,2.1,2.7c0.9,0,1.7-0.6,1.9-1.6c0-0.2,0.1-0.4,0.1-0.6V26.4z"/>
		<path class="st1" d="M211.4,27.3c0,1.8,1.2,2.5,2.5,2.5c0.9,0,1.5-0.2,2-0.4l0.2,0.9c-0.5,0.2-1.3,0.5-2.4,0.5
			c-2.2,0-3.6-1.5-3.6-3.7c0-2.2,1.3-3.9,3.4-3.9c2.4,0,3,2.1,3,3.4c0,0.3,0,0.5,0,0.6H211.4z M215.2,26.3c0-0.8-0.3-2.1-1.8-2.1
			c-1.3,0-1.9,1.2-2,2.1H215.2z"/>
		<path class="st1" d="M230.2,20h1.3v10.6h-1.3V20z"/>
		<path class="st1" d="M240.3,27c0,2.7-1.9,3.9-3.6,3.9c-2,0-3.5-1.4-3.5-3.7c0-2.4,1.6-3.9,3.6-3.9C238.9,23.2,240.3,24.8,240.3,27
			z M234.5,27c0,1.6,0.9,2.8,2.2,2.8c1.3,0,2.2-1.2,2.2-2.8c0-1.2-0.6-2.8-2.2-2.8C235.2,24.2,234.5,25.7,234.5,27z"/>
		<path class="st1" d="M241.8,29.3c0.4,0.3,1.1,0.5,1.7,0.5c1,0,1.4-0.5,1.4-1.1c0-0.6-0.4-1-1.3-1.3c-1.3-0.5-1.9-1.2-1.9-2.1
			c0-1.2,0.9-2.1,2.5-2.1c0.7,0,1.4,0.2,1.8,0.5l-0.3,1c-0.3-0.2-0.8-0.4-1.5-0.4c-0.8,0-1.2,0.5-1.2,1c0,0.6,0.4,0.9,1.4,1.2
			c1.3,0.5,1.9,1.1,1.9,2.2c0,1.3-1,2.2-2.7,2.2c-0.8,0-1.5-0.2-2-0.5L241.8,29.3z"/>
		<path class="st1" d="M259.9,25.7c0-0.9,0-1.6-0.1-2.3h1.2l0,1.4h0.1c0.3-1,1.1-1.6,2-1.6c0.2,0,0.3,0,0.4,0v1.2
			c-0.1,0-0.3,0-0.5,0c-0.9,0-1.6,0.7-1.8,1.7c0,0.2-0.1,0.4-0.1,0.6v3.9h-1.3V25.7z"/>
		<path class="st1" d="M268.9,30.7l-0.1-0.9h0c-0.4,0.6-1.2,1.1-2.2,1.1c-1.5,0-2.2-1-2.2-2.1c0-1.8,1.6-2.7,4.4-2.7v-0.1
			c0-0.6-0.2-1.7-1.6-1.7c-0.7,0-1.4,0.2-1.9,0.5l-0.3-0.9c0.6-0.4,1.5-0.6,2.4-0.6c2.2,0,2.8,1.5,2.8,3v2.7c0,0.6,0,1.2,0.1,1.7
			H268.9z M268.7,27c-1.4,0-3.1,0.2-3.1,1.6c0,0.9,0.6,1.3,1.2,1.3c0.9,0,1.5-0.6,1.8-1.2c0-0.1,0.1-0.3,0.1-0.4V27z"/>
		<path class="st1" d="M278.3,20v8.8c0,0.6,0,1.4,0.1,1.9h-1.2l-0.1-1.3h0c-0.4,0.8-1.3,1.4-2.5,1.4c-1.8,0-3.1-1.5-3.1-3.7
			c0-2.4,1.5-3.9,3.3-3.9c1.1,0,1.9,0.5,2.2,1.1h0V20H278.3z M277,26.4c0-0.2,0-0.4-0.1-0.6c-0.2-0.8-0.9-1.5-1.9-1.5
			c-1.4,0-2.2,1.2-2.2,2.8c0,1.5,0.7,2.7,2.1,2.7c0.9,0,1.7-0.6,1.9-1.6c0-0.2,0.1-0.4,0.1-0.6V26.4z"/>
		<path class="st1" d="M282,21.4c0,0.5-0.3,0.8-0.8,0.8c-0.5,0-0.8-0.4-0.8-0.8c0-0.5,0.3-0.8,0.8-0.8C281.7,20.5,282,20.9,282,21.4
			z M280.5,30.7v-7.3h1.3v7.3H280.5z"/>
		<path class="st1" d="M289.2,30.4c-0.3,0.2-1.1,0.4-2.1,0.4c-2.2,0-3.6-1.5-3.6-3.7c0-2.2,1.5-3.9,3.9-3.9c0.8,0,1.5,0.2,1.8,0.4
			l-0.3,1c-0.3-0.2-0.8-0.3-1.5-0.3c-1.7,0-2.6,1.2-2.6,2.7c0,1.7,1.1,2.7,2.5,2.7c0.8,0,1.2-0.2,1.6-0.4L289.2,30.4z"/>
		<path class="st1" d="M294.8,30.7l-0.1-0.9h0c-0.4,0.6-1.2,1.1-2.2,1.1c-1.5,0-2.2-1-2.2-2.1c0-1.8,1.6-2.7,4.4-2.7v-0.1
			c0-0.6-0.2-1.7-1.6-1.7c-0.7,0-1.4,0.2-1.9,0.5l-0.3-0.9c0.6-0.4,1.5-0.6,2.4-0.6c2.2,0,2.8,1.5,2.8,3v2.7c0,0.6,0,1.2,0.1,1.7
			H294.8z M294.6,27c-1.4,0-3.1,0.2-3.1,1.6c0,0.9,0.6,1.3,1.2,1.3c0.9,0,1.5-0.6,1.8-1.2c0-0.1,0.1-0.3,0.1-0.4V27z"/>
		<path class="st1" d="M298,20h1.3v10.6H298V20z"/>
		<path class="st1" d="M302.3,27.3c0,1.8,1.2,2.5,2.5,2.5c0.9,0,1.5-0.2,2-0.4l0.2,0.9c-0.5,0.2-1.3,0.5-2.4,0.5
			c-2.2,0-3.6-1.5-3.6-3.7c0-2.2,1.3-3.9,3.4-3.9c2.4,0,3,2.1,3,3.4c0,0.3,0,0.5,0,0.6H302.3z M306.1,26.3c0-0.8-0.3-2.1-1.8-2.1
			c-1.3,0-1.9,1.2-2,2.1H306.1z"/>
		<path class="st1" d="M308.9,29.3c0.4,0.3,1.1,0.5,1.7,0.5c1,0,1.4-0.5,1.4-1.1c0-0.6-0.4-1-1.3-1.3c-1.3-0.5-1.9-1.2-1.9-2.1
			c0-1.2,0.9-2.1,2.5-2.1c0.7,0,1.4,0.2,1.8,0.5l-0.3,1c-0.3-0.2-0.8-0.4-1.5-0.4c-0.8,0-1.2,0.5-1.2,1c0,0.6,0.4,0.9,1.4,1.2
			c1.3,0.5,1.9,1.1,1.9,2.2c0,1.3-1,2.2-2.7,2.2c-0.8,0-1.5-0.2-2-0.5L308.9,29.3z"/>
		<path class="st1" d="M327,20h1.3v10.6H327V20z"/>
		<path class="st1" d="M332,21.4c0,0.5-0.3,0.8-0.8,0.8c-0.5,0-0.8-0.4-0.8-0.8c0-0.5,0.3-0.8,0.8-0.8C331.7,20.5,332,20.9,332,21.4
			z M330.6,30.7v-7.3h1.3v7.3H330.6z"/>
		<path class="st1" d="M334,30.7c0-0.5,0.1-1.2,0.1-1.9V20h1.3v4.6h0c0.5-0.8,1.3-1.3,2.5-1.3c1.8,0,3.1,1.5,3.1,3.7
			c0,2.6-1.6,3.9-3.3,3.9c-1,0-1.9-0.4-2.4-1.4h0l-0.1,1.2H334z M335.4,27.8c0,0.2,0,0.3,0.1,0.5c0.3,0.9,1,1.5,2,1.5
			c1.4,0,2.2-1.1,2.2-2.8c0-1.5-0.8-2.7-2.2-2.7c-0.9,0-1.7,0.6-2,1.6c0,0.2-0.1,0.3-0.1,0.5V27.8z"/>
		<path class="st1" d="M342.6,25.7c0-0.9,0-1.6-0.1-2.3h1.2l0,1.4h0.1c0.3-1,1.1-1.6,2-1.6c0.2,0,0.3,0,0.4,0v1.2
			c-0.1,0-0.3,0-0.5,0c-0.9,0-1.6,0.7-1.8,1.7c0,0.2-0.1,0.4-0.1,0.6v3.9h-1.3V25.7z"/>
		<path class="st1" d="M348.2,27.3c0,1.8,1.2,2.5,2.5,2.5c0.9,0,1.5-0.2,2-0.4l0.2,0.9c-0.5,0.2-1.3,0.5-2.4,0.5
			c-2.2,0-3.6-1.5-3.6-3.7c0-2.2,1.3-3.9,3.4-3.9c2.4,0,3,2.1,3,3.4c0,0.3,0,0.5,0,0.6H348.2z M352.1,26.3c0-0.8-0.3-2.1-1.8-2.1
			c-1.3,0-1.9,1.2-2,2.1H352.1z"/>
		<path class="st1" d="M354.8,29.3c0.4,0.3,1.1,0.5,1.7,0.5c1,0,1.4-0.5,1.4-1.1c0-0.6-0.4-1-1.3-1.3c-1.3-0.5-1.9-1.2-1.9-2.1
			c0-1.2,0.9-2.1,2.5-2.1c0.7,0,1.4,0.2,1.8,0.5l-0.3,1c-0.3-0.2-0.8-0.4-1.5-0.4c-0.8,0-1.2,0.5-1.2,1c0,0.6,0.4,0.9,1.4,1.2
			c1.3,0.5,1.9,1.1,1.9,2.2c0,1.3-1,2.2-2.7,2.2c-0.8,0-1.5-0.2-2-0.5L354.8,29.3z"/>
		<path class="st1" d="M360.1,32.5c0.3-0.9,0.7-2.5,0.9-3.6l1.5-0.1c-0.3,1.3-1,2.9-1.4,3.6L360.1,32.5z"/>
		<path class="st1" d="M376.1,20h1.3v10.6h-1.3V20z"/>
		<path class="st1" d="M383.7,30.7l-0.1-0.9h0c-0.4,0.6-1.2,1.1-2.2,1.1c-1.5,0-2.2-1-2.2-2.1c0-1.8,1.6-2.7,4.4-2.7v-0.1
			c0-0.6-0.2-1.7-1.6-1.7c-0.7,0-1.4,0.2-1.9,0.5l-0.3-0.9c0.6-0.4,1.5-0.6,2.4-0.6c2.2,0,2.8,1.5,2.8,3v2.7c0,0.6,0,1.2,0.1,1.7
			H383.7z M383.5,27c-1.4,0-3.1,0.2-3.1,1.6c0,0.9,0.6,1.3,1.2,1.3c0.9,0,1.5-0.6,1.8-1.2c0-0.1,0.1-0.3,0.1-0.4V27z"/>
		<path class="st1" d="M386.7,29.3c0.4,0.3,1.1,0.5,1.7,0.5c1,0,1.4-0.5,1.4-1.1c0-0.6-0.4-1-1.3-1.3c-1.3-0.5-1.9-1.2-1.9-2.1
			c0-1.2,0.9-2.1,2.5-2.1c0.7,0,1.4,0.2,1.8,0.5l-0.3,1c-0.3-0.2-0.8-0.4-1.5-0.4c-0.8,0-1.2,0.5-1.2,1c0,0.6,0.4,0.9,1.4,1.2
			c1.3,0.5,1.9,1.1,1.9,2.2c0,1.3-1,2.2-2.7,2.2c-0.8,0-1.5-0.2-2-0.5L386.7,29.3z"/>
		<path class="st1" d="M0.6,45.8c0-0.9,0-1.7-0.1-2.4h1.2l0.1,1.2h0c0.5-0.9,1.4-1.4,2.6-1.4c1.8,0,3.1,1.5,3.1,3.7
			c0,2.6-1.6,3.9-3.3,3.9c-1,0-1.8-0.4-2.2-1.1h0v3.9H0.6V45.8z M1.9,47.7c0,0.2,0,0.4,0.1,0.5c0.2,0.9,1,1.5,2,1.5
			c1.4,0,2.2-1.1,2.2-2.8c0-1.5-0.8-2.7-2.2-2.7c-0.9,0-1.7,0.6-2,1.6c0,0.2-0.1,0.4-0.1,0.5V47.7z"/>
		<path class="st1" d="M8.7,45.7c0-0.9,0-1.6-0.1-2.3h1.2l0,1.4h0.1c0.3-1,1.1-1.6,2-1.6c0.2,0,0.3,0,0.4,0v1.2c-0.1,0-0.3,0-0.5,0
			c-0.9,0-1.6,0.7-1.8,1.7c0,0.2-0.1,0.4-0.1,0.6v3.9H8.7V45.7z"/>
		<path class="st1" d="M19.8,47c0,2.7-1.9,3.9-3.6,3.9c-2,0-3.5-1.4-3.5-3.7c0-2.4,1.6-3.9,3.6-3.9C18.4,43.2,19.8,44.8,19.8,47z
			 M14.1,47c0,1.6,0.9,2.8,2.2,2.8c1.3,0,2.2-1.2,2.2-2.8c0-1.2-0.6-2.8-2.2-2.8C14.7,44.2,14.1,45.7,14.1,47z"/>
		<path class="st1" d="M21.1,45.8c0-0.9,0-1.7-0.1-2.4h1.2l0.1,1.2h0c0.5-0.9,1.4-1.4,2.6-1.4c1.8,0,3.1,1.5,3.1,3.7
			c0,2.6-1.6,3.9-3.3,3.9c-1,0-1.8-0.4-2.2-1.1h0v3.9h-1.3V45.8z M22.4,47.7c0,0.2,0,0.4,0.1,0.5c0.2,0.9,1,1.5,2,1.5
			c1.4,0,2.2-1.1,2.2-2.8c0-1.5-0.8-2.7-2.2-2.7c-0.9,0-1.7,0.6-2,1.6c0,0.2-0.1,0.4-0.1,0.5V47.7z"/>
		<path class="st1" d="M30.8,41.4c0,0.5-0.3,0.8-0.8,0.8c-0.5,0-0.8-0.4-0.8-0.8c0-0.5,0.3-0.8,0.8-0.8
			C30.4,40.5,30.8,40.9,30.8,41.4z M29.3,50.7v-7.3h1.3v7.3H29.3z"/>
		<path class="st1" d="M33.2,47.3c0,1.8,1.2,2.5,2.5,2.5c0.9,0,1.5-0.2,2-0.4l0.2,0.9c-0.5,0.2-1.3,0.5-2.4,0.5
			c-2.2,0-3.6-1.5-3.6-3.7c0-2.2,1.3-3.9,3.4-3.9c2.4,0,3,2.1,3,3.4c0,0.3,0,0.5,0,0.6H33.2z M37,46.3c0-0.8-0.3-2.1-1.8-2.1
			c-1.3,0-1.9,1.2-2,2.1H37z"/>
		<path class="st1" d="M45.8,40v8.8c0,0.6,0,1.4,0.1,1.9h-1.2l-0.1-1.3h0c-0.4,0.8-1.3,1.4-2.5,1.4c-1.8,0-3.1-1.5-3.1-3.7
			c0-2.4,1.5-3.9,3.3-3.9c1.1,0,1.9,0.5,2.2,1.1h0V40H45.8z M44.5,46.4c0-0.2,0-0.4-0.1-0.6c-0.2-0.8-0.9-1.5-1.9-1.5
			c-1.4,0-2.2,1.2-2.2,2.8c0,1.5,0.7,2.7,2.1,2.7c0.9,0,1.7-0.6,1.9-1.6c0-0.2,0.1-0.4,0.1-0.6V46.4z"/>
		<path class="st1" d="M51.7,50.7l-0.1-0.9h0c-0.4,0.6-1.2,1.1-2.2,1.1c-1.5,0-2.2-1-2.2-2.1c0-1.8,1.6-2.7,4.4-2.7v-0.1
			c0-0.6-0.2-1.7-1.6-1.7c-0.7,0-1.4,0.2-1.9,0.5l-0.3-0.9c0.6-0.4,1.5-0.6,2.4-0.6c2.2,0,2.8,1.5,2.8,3v2.7c0,0.6,0,1.2,0.1,1.7
			H51.7z M51.5,47c-1.4,0-3.1,0.2-3.1,1.6c0,0.9,0.6,1.3,1.2,1.3c0.9,0,1.5-0.6,1.8-1.2c0-0.1,0.1-0.3,0.1-0.4V47z"/>
		<path class="st1" d="M60.8,40v8.8c0,0.6,0,1.4,0.1,1.9h-1.2l-0.1-1.3h0c-0.4,0.8-1.3,1.4-2.5,1.4c-1.8,0-3.1-1.5-3.1-3.7
			c0-2.4,1.5-3.9,3.3-3.9c1.1,0,1.9,0.5,2.2,1.1h0V40H60.8z M59.4,46.4c0-0.2,0-0.4-0.1-0.6c-0.2-0.8-0.9-1.5-1.9-1.5
			c-1.4,0-2.2,1.2-2.2,2.8c0,1.5,0.7,2.7,2.1,2.7c0.9,0,1.7-0.6,1.9-1.6c0-0.2,0.1-0.4,0.1-0.6V46.4z"/>
		<path class="st1" d="M63.3,47.3c0,1.8,1.2,2.5,2.5,2.5c0.9,0,1.5-0.2,2-0.4l0.2,0.9c-0.5,0.2-1.3,0.5-2.4,0.5
			c-2.2,0-3.6-1.5-3.6-3.7c0-2.2,1.3-3.9,3.4-3.9c2.4,0,3,2.1,3,3.4c0,0.3,0,0.5,0,0.6H63.3z M67.2,46.3c0-0.8-0.3-2.1-1.8-2.1
			c-1.3,0-1.9,1.2-2,2.1H67.2z"/>
		<path class="st1" d="M69.5,49.3c0.4,0.3,1.1,0.5,1.7,0.5c1,0,1.4-0.5,1.4-1.1c0-0.6-0.4-1-1.3-1.3c-1.3-0.5-1.9-1.2-1.9-2.1
			c0-1.2,0.9-2.1,2.5-2.1c0.7,0,1.4,0.2,1.8,0.5l-0.3,1c-0.3-0.2-0.8-0.4-1.5-0.4c-0.8,0-1.2,0.5-1.2,1c0,0.6,0.4,0.9,1.4,1.2
			c1.3,0.5,1.9,1.1,1.9,2.2c0,1.3-1,2.2-2.7,2.2c-0.8,0-1.5-0.2-2-0.5L69.5,49.3z"/>
		<path class="st1" d="M86,40v8.8c0,0.6,0,1.4,0.1,1.9h-1.2l-0.1-1.3h0c-0.4,0.8-1.3,1.4-2.5,1.4c-1.8,0-3.1-1.5-3.1-3.7
			c0-2.4,1.5-3.9,3.3-3.9c1.1,0,1.9,0.5,2.2,1.1h0V40H86z M84.7,46.4c0-0.2,0-0.4-0.1-0.6c-0.2-0.8-0.9-1.5-1.9-1.5
			c-1.4,0-2.2,1.2-2.2,2.8c0,1.5,0.7,2.7,2.1,2.7c0.9,0,1.7-0.6,1.9-1.6c0-0.2,0.1-0.4,0.1-0.6V46.4z"/>
		<path class="st1" d="M88.5,47.3c0,1.8,1.2,2.5,2.5,2.5c0.9,0,1.5-0.2,2-0.4l0.2,0.9c-0.5,0.2-1.3,0.5-2.4,0.5
			c-2.2,0-3.6-1.5-3.6-3.7c0-2.2,1.3-3.9,3.4-3.9c2.4,0,3,2.1,3,3.4c0,0.3,0,0.5,0,0.6H88.5z M92.4,46.3c0-0.8-0.3-2.1-1.8-2.1
			c-1.3,0-1.9,1.2-2,2.1H92.4z"/>
		<path class="st0" d="M105.3,46.4h-3.7v2.4h4.2v1.9h-6.4V40.6h6.2v1.9h-3.9v2.1h3.7V46.4z"/>
		<path class="st0" d="M115.3,50.2c-0.7,0.2-2,0.6-3.4,0.6c-1.8,0-3.2-0.5-4.1-1.4c-0.9-0.9-1.4-2.2-1.4-3.7c0-3.4,2.5-5.3,5.8-5.3
			c1.3,0,2.3,0.3,2.8,0.5l-0.5,1.8c-0.6-0.2-1.2-0.4-2.4-0.4c-1.9,0-3.3,1.1-3.3,3.3c0,2.1,1.3,3.3,3.2,3.3c0.5,0,0.9-0.1,1.1-0.1
			v-2.1h-1.6v-1.8h3.8V50.2z"/>
		<path class="st0" d="M116.6,50.7c0-0.5,0.1-1.4,0.1-2.2V40h2.3v4.2h0c0.4-0.6,1.2-1,2.2-1c1.8,0,3,1.5,3,3.7c0,2.6-1.7,4-3.4,4
			c-0.9,0-1.7-0.3-2.2-1.2h0l-0.1,1H116.6z M118.9,47.5c0,0.2,0,0.3,0,0.4c0.1,0.6,0.7,1.1,1.3,1.1c1,0,1.6-0.8,1.6-2.1
			c0-1.1-0.5-2-1.6-2c-0.6,0-1.2,0.5-1.3,1.1c0,0.1,0,0.3,0,0.4V47.5z"/>
		<path class="st0" d="M132,40.9v1.4l-4,8.3h-2.4l4-7.8v0h-4.5v-1.9H132z"/>
		<path class="st0" d="M139.1,42.5c-0.3,0-0.5,0-0.9,0c-2,0.2-2.9,1.2-3.2,2.3h0c0.5-0.5,1.2-0.8,2.1-0.8c1.6,0,3,1.2,3,3.2
			c0,1.9-1.5,3.5-3.6,3.5c-2.6,0-3.9-1.9-3.9-4.3c0-1.8,0.7-3.4,1.7-4.3c1-0.9,2.2-1.4,3.8-1.4c0.4,0,0.7,0,0.9,0V42.5z M137.9,47.4
			c0-0.9-0.5-1.7-1.5-1.7c-0.6,0-1.1,0.4-1.4,0.9c-0.1,0.1-0.1,0.3-0.1,0.6c0,1,0.5,2,1.6,2C137.4,49.2,137.9,48.4,137.9,47.4z"/>
		<path class="st0" d="M143.8,42.9L143.8,42.9l-1.9,0.9l-0.4-1.7l2.6-1.2h1.9v9.8h-2.2V42.9z"/>
		<path class="st0" d="M154.3,43c0,1.4-1.2,2.6-2.7,2.6c-1.5,0-2.7-1.2-2.7-2.6c0-1.4,1.2-2.6,2.7-2.6
			C153.1,40.4,154.3,41.5,154.3,43z M149.8,43c0,1.1,0.8,1.9,1.9,1.9s1.9-0.9,1.9-1.9c0-1.1-0.8-1.9-1.9-1.9
			C150.6,41,149.8,41.9,149.8,43z M151.3,44.2h-0.7v-2.4c0.2,0,0.6-0.1,1-0.1c0.5,0,0.8,0.1,1,0.2c0.2,0.1,0.3,0.3,0.3,0.5
			s-0.2,0.5-0.6,0.5v0c0.3,0.1,0.4,0.3,0.5,0.6c0.1,0.3,0.1,0.5,0.2,0.6h-0.8c-0.1-0.1-0.1-0.3-0.2-0.5c0-0.2-0.2-0.4-0.4-0.4h-0.2
			V44.2z M151.3,42.8h0.2c0.3,0,0.5-0.1,0.5-0.3c0-0.2-0.2-0.3-0.4-0.3c-0.1,0-0.2,0-0.2,0V42.8z"/>
		<path class="st1" d="M160.7,43.4l1.4,4.1c0.2,0.7,0.4,1.3,0.6,1.9h0c0.2-0.6,0.4-1.2,0.6-1.9l1.4-4.1h1.4l-2.8,7.3h-1.3l-2.8-7.3
			H160.7z"/>
		<path class="st1" d="M171.1,50.7l-0.1-0.9h0c-0.4,0.6-1.2,1.1-2.2,1.1c-1.5,0-2.2-1-2.2-2.1c0-1.8,1.6-2.7,4.4-2.7v-0.1
			c0-0.6-0.2-1.7-1.6-1.7c-0.7,0-1.4,0.2-1.9,0.5l-0.3-0.9c0.6-0.4,1.5-0.6,2.4-0.6c2.2,0,2.8,1.5,2.8,3v2.7c0,0.6,0,1.2,0.1,1.7
			H171.1z M170.9,47c-1.4,0-3.1,0.2-3.1,1.6c0,0.9,0.6,1.3,1.2,1.3c0.9,0,1.5-0.6,1.8-1.2c0-0.1,0.1-0.3,0.1-0.4V47z"/>
		<path class="st1" d="M173.9,45.4c0-0.8,0-1.4-0.1-2h1.2l0.1,1.2h0c0.4-0.7,1.2-1.4,2.4-1.4c1,0,2.6,0.6,2.6,3.1v4.3h-1.3v-4.2
			c0-1.2-0.4-2.1-1.7-2.1c-0.9,0-1.5,0.6-1.8,1.4c-0.1,0.2-0.1,0.4-0.1,0.6v4.4h-1.3V45.4z"/>
		<path class="st1" d="M186.3,45.4c0-0.8,0-1.4-0.1-2h1.2l0.1,1.2h0c0.4-0.7,1.1-1.3,2.3-1.3c1,0,1.7,0.6,2.1,1.5h0
			c0.2-0.4,0.5-0.7,0.8-0.9c0.4-0.3,0.9-0.5,1.6-0.5c1,0,2.4,0.6,2.4,3.2v4.3h-1.3v-4.1c0-1.4-0.5-2.2-1.6-2.2
			c-0.8,0-1.3,0.6-1.6,1.2c-0.1,0.2-0.1,0.4-0.1,0.7v4.5h-1.3v-4.3c0-1.2-0.5-2-1.5-2c-0.8,0-1.4,0.7-1.6,1.3
			c-0.1,0.2-0.1,0.4-0.1,0.6v4.4h-1.3V45.4z"/>
		<path class="st1" d="M202.4,50.7l-0.1-0.9h0c-0.4,0.6-1.2,1.1-2.2,1.1c-1.5,0-2.2-1-2.2-2.1c0-1.8,1.6-2.7,4.4-2.7v-0.1
			c0-0.6-0.2-1.7-1.6-1.7c-0.7,0-1.4,0.2-1.9,0.5l-0.3-0.9c0.6-0.4,1.5-0.6,2.4-0.6c2.2,0,2.8,1.5,2.8,3v2.7c0,0.6,0,1.2,0.1,1.7
			H202.4z M202.2,47c-1.4,0-3.1,0.2-3.1,1.6c0,0.9,0.6,1.3,1.2,1.3c0.9,0,1.5-0.6,1.8-1.2c0-0.1,0.1-0.3,0.1-0.4V47z M202.9,40.3
			l-1.8,2.1h-0.9l1.3-2.1H202.9z"/>
		<path class="st1" d="M205.1,49.3c0.4,0.3,1.1,0.5,1.7,0.5c1,0,1.4-0.5,1.4-1.1c0-0.6-0.4-1-1.3-1.3c-1.3-0.5-1.9-1.2-1.9-2.1
			c0-1.2,0.9-2.1,2.5-2.1c0.7,0,1.4,0.2,1.8,0.5l-0.3,1c-0.3-0.2-0.8-0.4-1.5-0.4c-0.8,0-1.2,0.5-1.2,1c0,0.6,0.4,0.9,1.4,1.2
			c1.3,0.5,1.9,1.1,1.9,2.2c0,1.3-1,2.2-2.7,2.2c-0.8,0-1.5-0.2-2-0.5L205.1,49.3z"/>
		<path class="st1" d="M219.3,50.7l-0.1-0.9h0c-0.4,0.6-1.2,1.1-2.2,1.1c-1.5,0-2.2-1-2.2-2.1c0-1.8,1.6-2.7,4.4-2.7v-0.1
			c0-0.6-0.2-1.7-1.6-1.7c-0.7,0-1.4,0.2-1.9,0.5l-0.3-0.9c0.6-0.4,1.5-0.6,2.4-0.6c2.2,0,2.8,1.5,2.8,3v2.7c0,0.6,0,1.2,0.1,1.7
			H219.3z M219.1,47c-1.4,0-3.1,0.2-3.1,1.6c0,0.9,0.6,1.3,1.2,1.3c0.9,0,1.5-0.6,1.8-1.2c0-0.1,0.1-0.3,0.1-0.4V47z"/>
		<path class="st1" d="M222.1,40h1.3v10.6h-1.3V40z"/>
		<path class="st1" d="M225.3,40h1.3v10.6h-1.3V40z"/>
		<path class="st1" d="M232.4,50.7l-0.1-0.9h0c-0.4,0.6-1.2,1.1-2.2,1.1c-1.5,0-2.2-1-2.2-2.1c0-1.8,1.6-2.7,4.4-2.7v-0.1
			c0-0.6-0.2-1.7-1.6-1.7c-0.7,0-1.4,0.2-1.9,0.5l-0.3-0.9c0.6-0.4,1.5-0.6,2.4-0.6c2.2,0,2.8,1.5,2.8,3v2.7c0,0.6,0,1.2,0.1,1.7
			H232.4z M232.2,47c-1.4,0-3.1,0.2-3.1,1.6c0,0.9,0.6,1.3,1.2,1.3c0.9,0,1.5-0.6,1.8-1.2c0-0.1,0.1-0.3,0.1-0.4V47z M232.9,40.3
			l-1.8,2.1h-0.9l1.3-2.1H232.9z"/>
		<path class="st1" d="M246,40v8.8c0,0.6,0,1.4,0.1,1.9h-1.2l-0.1-1.3h0c-0.4,0.8-1.3,1.4-2.5,1.4c-1.8,0-3.1-1.5-3.1-3.7
			c0-2.4,1.5-3.9,3.3-3.9c1.1,0,1.9,0.5,2.2,1.1h0V40H246z M244.6,46.4c0-0.2,0-0.4-0.1-0.6c-0.2-0.8-0.9-1.5-1.9-1.5
			c-1.4,0-2.2,1.2-2.2,2.8c0,1.5,0.7,2.7,2.1,2.7c0.9,0,1.7-0.6,1.9-1.6c0-0.2,0.1-0.4,0.1-0.6V46.4z"/>
		<path class="st1" d="M248.5,47.3c0,1.8,1.2,2.5,2.5,2.5c0.9,0,1.5-0.2,2-0.4l0.2,0.9c-0.5,0.2-1.3,0.5-2.4,0.5
			c-2.2,0-3.6-1.5-3.6-3.7c0-2.2,1.3-3.9,3.4-3.9c2.4,0,3,2.1,3,3.4c0,0.3,0,0.5,0,0.6H248.5z M252.4,46.3c0-0.8-0.3-2.1-1.8-2.1
			c-1.3,0-1.9,1.2-2,2.1H252.4z"/>
		<path class="st1" d="M265.4,48.7c0,0.8,0,1.4,0.1,2h-1.2l-0.1-1.2h0c-0.3,0.6-1.1,1.3-2.4,1.3c-1.1,0-2.5-0.6-2.5-3.2v-4.2h1.3v4
			c0,1.4,0.4,2.3,1.6,2.3c0.9,0,1.5-0.6,1.7-1.2c0.1-0.2,0.1-0.4,0.1-0.7v-4.5h1.3V48.7z"/>
		<path class="st1" d="M267.2,45.4c0-0.8,0-1.4-0.1-2h1.2l0.1,1.2h0c0.4-0.7,1.2-1.4,2.4-1.4c1,0,2.6,0.6,2.6,3.1v4.3h-1.3v-4.2
			c0-1.2-0.4-2.1-1.7-2.1c-0.9,0-1.5,0.6-1.8,1.4c-0.1,0.2-0.1,0.4-0.1,0.6v4.4h-1.3V45.4z"/>
		<path class="st1" d="M279.4,49.3c0.4,0.3,1.1,0.5,1.7,0.5c1,0,1.4-0.5,1.4-1.1c0-0.6-0.4-1-1.3-1.3c-1.3-0.5-1.9-1.2-1.9-2.1
			c0-1.2,0.9-2.1,2.5-2.1c0.7,0,1.4,0.2,1.8,0.5l-0.3,1c-0.3-0.2-0.8-0.4-1.5-0.4c-0.8,0-1.2,0.5-1.2,1c0,0.6,0.4,0.9,1.4,1.2
			c1.3,0.5,1.9,1.1,1.9,2.2c0,1.3-1,2.2-2.7,2.2c-0.8,0-1.5-0.2-2-0.5L279.4,49.3z"/>
		<path class="st1" d="M286.6,41.4c0,0.5-0.3,0.8-0.8,0.8c-0.5,0-0.8-0.4-0.8-0.8c0-0.5,0.3-0.8,0.8-0.8
			C286.3,40.5,286.6,40.9,286.6,41.4z M285.2,50.7v-7.3h1.3v7.3H285.2z"/>
		<path class="st1" d="M288.3,45.4c0-0.8,0-1.4-0.1-2h1.2l0.1,1.2h0c0.4-0.7,1.1-1.3,2.3-1.3c1,0,1.7,0.6,2.1,1.5h0
			c0.2-0.4,0.5-0.7,0.8-0.9c0.4-0.3,0.9-0.5,1.6-0.5c1,0,2.4,0.6,2.4,3.2v4.3h-1.3v-4.1c0-1.4-0.5-2.2-1.6-2.2
			c-0.8,0-1.3,0.6-1.6,1.2c-0.1,0.2-0.1,0.4-0.1,0.7v4.5h-1.3v-4.3c0-1.2-0.5-2-1.5-2c-0.8,0-1.4,0.7-1.6,1.3
			c-0.1,0.2-0.1,0.4-0.1,0.6v4.4h-1.3V45.4z"/>
		<path class="st1" d="M300.4,45.8c0-0.9,0-1.7-0.1-2.4h1.2l0.1,1.2h0c0.5-0.9,1.4-1.4,2.6-1.4c1.8,0,3.1,1.5,3.1,3.7
			c0,2.6-1.6,3.9-3.3,3.9c-1,0-1.8-0.4-2.2-1.1h0v3.9h-1.3V45.8z M301.7,47.7c0,0.2,0,0.4,0.1,0.5c0.2,0.9,1,1.5,2,1.5
			c1.4,0,2.2-1.1,2.2-2.8c0-1.5-0.8-2.7-2.2-2.7c-0.9,0-1.7,0.6-2,1.6c0,0.2-0.1,0.4-0.1,0.5V47.7z"/>
		<path class="st1" d="M308.6,40h1.3v10.6h-1.3V40z"/>
		<path class="st1" d="M312.5,47.3c0,1.8,1.2,2.5,2.5,2.5c0.9,0,1.5-0.2,2-0.4l0.2,0.9c-0.5,0.2-1.3,0.5-2.4,0.5
			c-2.2,0-3.6-1.5-3.6-3.7c0-2.2,1.3-3.9,3.4-3.9c2.4,0,3,2.1,3,3.4c0,0.3,0,0.5,0,0.6H312.5z M316.4,46.3c0-0.8-0.3-2.1-1.8-2.1
			c-1.3,0-1.9,1.2-2,2.1H316.4z"/>
		<path class="st1" d="M323.3,45.4c0-0.8,0-1.4-0.1-2h1.2l0.1,1.2h0c0.4-0.7,1.1-1.3,2.3-1.3c1,0,1.7,0.6,2.1,1.5h0
			c0.2-0.4,0.5-0.7,0.8-0.9c0.4-0.3,0.9-0.5,1.6-0.5c1,0,2.4,0.6,2.4,3.2v4.3h-1.3v-4.1c0-1.4-0.5-2.2-1.6-2.2
			c-0.8,0-1.3,0.6-1.6,1.2c-0.1,0.2-0.1,0.4-0.1,0.7v4.5h-1.3v-4.3c0-1.2-0.5-2-1.5-2c-0.8,0-1.4,0.7-1.6,1.3
			c-0.1,0.2-0.1,0.4-0.1,0.6v4.4h-1.3V45.4z"/>
		<path class="st1" d="M336.2,47.3c0,1.8,1.2,2.5,2.5,2.5c0.9,0,1.5-0.2,2-0.4l0.2,0.9c-0.5,0.2-1.3,0.5-2.4,0.5
			c-2.2,0-3.6-1.5-3.6-3.7c0-2.2,1.3-3.9,3.4-3.9c2.4,0,3,2.1,3,3.4c0,0.3,0,0.5,0,0.6H336.2z M340.1,46.3c0-0.8-0.3-2.1-1.8-2.1
			c-1.3,0-1.9,1.2-2,2.1H340.1z"/>
		<path class="st1" d="M347.8,50.4c-0.3,0.2-1.1,0.4-2.1,0.4c-2.2,0-3.6-1.5-3.6-3.7c0-2.2,1.5-3.9,3.9-3.9c0.8,0,1.5,0.2,1.8,0.4
			l-0.3,1c-0.3-0.2-0.8-0.3-1.5-0.3c-1.7,0-2.6,1.2-2.6,2.7c0,1.7,1.1,2.7,2.5,2.7c0.8,0,1.2-0.2,1.6-0.4L347.8,50.4z"/>
		<path class="st1" d="M353,50.7l-0.1-0.9h0c-0.4,0.6-1.2,1.1-2.2,1.1c-1.5,0-2.2-1-2.2-2.1c0-1.8,1.6-2.7,4.4-2.7v-0.1
			c0-0.6-0.2-1.7-1.6-1.7c-0.7,0-1.4,0.2-1.9,0.5l-0.3-0.9c0.6-0.4,1.5-0.6,2.4-0.6c2.2,0,2.8,1.5,2.8,3v2.7c0,0.6,0,1.2,0.1,1.7
			H353z M352.8,47c-1.4,0-3.1,0.2-3.1,1.6c0,0.9,0.6,1.3,1.2,1.3c0.9,0,1.5-0.6,1.8-1.2c0-0.1,0.1-0.3,0.1-0.4V47z"/>
		<path class="st1" d="M355.8,45.4c0-0.8,0-1.4-0.1-2h1.2l0.1,1.2h0c0.4-0.7,1.2-1.4,2.4-1.4c1,0,2.6,0.6,2.6,3.1v4.3h-1.3v-4.2
			c0-1.2-0.4-2.1-1.7-2.1c-0.9,0-1.5,0.6-1.8,1.4c-0.1,0.2-0.1,0.4-0.1,0.6v4.4h-1.3V45.4z"/>
		<path class="st1" d="M365.2,41.4c0,0.5-0.3,0.8-0.8,0.8c-0.5,0-0.8-0.4-0.8-0.8c0-0.5,0.3-0.8,0.8-0.8
			C364.9,40.5,365.2,40.9,365.2,41.4z M363.7,50.7v-7.3h1.3v7.3H363.7z"/>
		<path class="st1" d="M366.7,49.3c0.4,0.3,1.1,0.5,1.7,0.5c1,0,1.4-0.5,1.4-1.1c0-0.6-0.4-1-1.3-1.3c-1.3-0.5-1.9-1.2-1.9-2.1
			c0-1.2,0.9-2.1,2.5-2.1c0.7,0,1.4,0.2,1.8,0.5l-0.3,1c-0.3-0.2-0.8-0.4-1.5-0.4c-0.8,0-1.2,0.5-1.2,1c0,0.6,0.4,0.9,1.4,1.2
			c1.3,0.5,1.9,1.1,1.9,2.2c0,1.3-1,2.2-2.7,2.2c-0.8,0-1.5-0.2-2-0.5L366.7,49.3z"/>
		<path class="st1" d="M372.4,45.4c0-0.8,0-1.4-0.1-2h1.2l0.1,1.2h0c0.4-0.7,1.1-1.3,2.3-1.3c1,0,1.7,0.6,2.1,1.5h0
			c0.2-0.4,0.5-0.7,0.8-0.9c0.4-0.3,0.9-0.5,1.6-0.5c1,0,2.4,0.6,2.4,3.2v4.3h-1.3v-4.1c0-1.4-0.5-2.2-1.6-2.2
			c-0.8,0-1.3,0.6-1.6,1.2c-0.1,0.2-0.1,0.4-0.1,0.7v4.5H377v-4.3c0-1.2-0.5-2-1.5-2c-0.8,0-1.4,0.7-1.6,1.3
			c-0.1,0.2-0.1,0.4-0.1,0.6v4.4h-1.3V45.4z"/>
		<path class="st1" d="M391.1,47c0,2.7-1.9,3.9-3.6,3.9c-2,0-3.5-1.4-3.5-3.7c0-2.4,1.6-3.9,3.6-3.9C389.7,43.2,391.1,44.8,391.1,47
			z M385.4,47c0,1.6,0.9,2.8,2.2,2.8c1.3,0,2.2-1.2,2.2-2.8c0-1.2-0.6-2.8-2.2-2.8C386.1,44.2,385.4,45.7,385.4,47z"/>
		<path class="st1" d="M4.6,70.7l-0.1-0.9h0c-0.4,0.6-1.2,1.1-2.2,1.1c-1.5,0-2.2-1-2.2-2.1C0,67,1.6,66,4.4,66v-0.1
			c0-0.6-0.2-1.7-1.6-1.7c-0.7,0-1.4,0.2-1.9,0.5l-0.3-0.9c0.6-0.4,1.5-0.6,2.4-0.6c2.2,0,2.8,1.5,2.8,3v2.7c0,0.6,0,1.2,0.1,1.7
			H4.6z M4.4,67c-1.4,0-3.1,0.2-3.1,1.6c0,0.9,0.6,1.3,1.2,1.3c0.9,0,1.5-0.6,1.8-1.2c0-0.1,0.1-0.3,0.1-0.4V67z"/>
		<path class="st1" d="M7.8,65.4c0-0.8,0-1.4-0.1-2h1.2L9,64.6h0c0.4-0.7,1.2-1.4,2.4-1.4c1,0,2.6,0.6,2.6,3.1v4.3h-1.3v-4.2
			c0-1.2-0.4-2.1-1.7-2.1c-0.9,0-1.5,0.6-1.8,1.4c-0.1,0.2-0.1,0.4-0.1,0.6v4.4H7.8V65.4z"/>
		<path class="st1" d="M17.7,61.3v2.1h1.9v1h-1.9v3.9c0,0.9,0.3,1.4,1,1.4c0.3,0,0.6,0,0.8-0.1l0.1,1c-0.3,0.1-0.7,0.2-1.2,0.2
			c-0.6,0-1.1-0.2-1.4-0.6c-0.4-0.4-0.5-1-0.5-1.9v-4h-1.1v-1h1.1v-1.7L17.7,61.3z"/>
		<path class="st1" d="M22.6,61.4c0,0.5-0.3,0.8-0.8,0.8c-0.5,0-0.8-0.4-0.8-0.8c0-0.5,0.3-0.8,0.8-0.8
			C22.2,60.5,22.6,60.9,22.6,61.4z M21.1,70.7v-7.3h1.3v7.3H21.1z"/>
		<path class="st1" d="M31.2,67c0,2.7-1.9,3.9-3.6,3.9c-2,0-3.5-1.4-3.5-3.7c0-2.4,1.6-3.9,3.6-3.9C29.8,63.2,31.2,64.8,31.2,67z
			 M25.4,67c0,1.6,0.9,2.8,2.2,2.8c1.3,0,2.2-1.2,2.2-2.8c0-1.2-0.6-2.8-2.2-2.8C26.1,64.2,25.4,65.7,25.4,67z"/>
		<path class="st1" d="M33.4,63.4l1,1.6c0.3,0.4,0.5,0.8,0.7,1.2h0c0.2-0.4,0.5-0.8,0.7-1.2l1-1.5h1.4L36,66.9l2.5,3.8H37L35.9,69
			c-0.3-0.4-0.5-0.8-0.8-1.3h0c-0.2,0.4-0.5,0.8-0.8,1.3l-1,1.6h-1.5l2.6-3.7L32,63.4H33.4z"/>
		<path class="st1" d="M41.2,61.4c0,0.5-0.3,0.8-0.8,0.8c-0.5,0-0.8-0.4-0.8-0.8c0-0.5,0.3-0.8,0.8-0.8
			C40.9,60.5,41.2,60.9,41.2,61.4z M39.8,70.7v-7.3h1.3v7.3H39.8z"/>
		<path class="st1" d="M49.6,60v8.8c0,0.6,0,1.4,0.1,1.9h-1.2l-0.1-1.3h0c-0.4,0.8-1.3,1.4-2.5,1.4c-1.8,0-3.1-1.5-3.1-3.7
			c0-2.4,1.5-3.9,3.3-3.9c1.1,0,1.9,0.5,2.2,1.1h0V60H49.6z M48.2,66.4c0-0.2,0-0.4-0.1-0.6c-0.2-0.8-0.9-1.5-1.9-1.5
			c-1.4,0-2.2,1.2-2.2,2.8c0,1.5,0.7,2.7,2.1,2.7c0.9,0,1.7-0.6,1.9-1.6c0-0.2,0.1-0.4,0.1-0.6V66.4z"/>
		<path class="st1" d="M55.8,70.7l-0.1-0.9h0c-0.4,0.6-1.2,1.1-2.2,1.1c-1.5,0-2.2-1-2.2-2.1c0-1.8,1.6-2.7,4.4-2.7v-0.1
			c0-0.6-0.2-1.7-1.6-1.7c-0.7,0-1.4,0.2-1.9,0.5l-0.3-0.9c0.6-0.4,1.5-0.6,2.4-0.6c2.2,0,2.8,1.5,2.8,3v2.7c0,0.6,0,1.2,0.1,1.7
			H55.8z M55.6,67c-1.4,0-3.1,0.2-3.1,1.6c0,0.9,0.6,1.3,1.2,1.3c0.9,0,1.5-0.6,1.8-1.2c0-0.1,0.1-0.3,0.1-0.4V67z"/>
		<path class="st1" d="M59,65.4c0-0.8,0-1.4-0.1-2h1.2l0.1,1.2h0c0.4-0.7,1.2-1.4,2.4-1.4c1,0,2.6,0.6,2.6,3.1v4.3h-1.3v-4.2
			c0-1.2-0.4-2.1-1.7-2.1c-0.9,0-1.5,0.6-1.8,1.4c-0.1,0.2-0.1,0.4-0.1,0.6v4.4H59V65.4z"/>
		<path class="st1" d="M68.9,61.3v2.1h1.9v1h-1.9v3.9c0,0.9,0.3,1.4,1,1.4c0.3,0,0.6,0,0.8-0.1l0.1,1c-0.3,0.1-0.7,0.2-1.2,0.2
			c-0.6,0-1.1-0.2-1.4-0.6c-0.4-0.4-0.5-1-0.5-1.9v-4h-1.1v-1h1.1v-1.7L68.9,61.3z"/>
		<path class="st1" d="M73,67.3c0,1.8,1.2,2.5,2.5,2.5c0.9,0,1.5-0.2,2-0.4l0.2,0.9c-0.5,0.2-1.3,0.5-2.4,0.5
			c-2.2,0-3.6-1.5-3.6-3.7c0-2.2,1.3-3.9,3.4-3.9c2.4,0,3,2.1,3,3.4c0,0.3,0,0.5,0,0.6H73z M76.9,66.3c0-0.8-0.3-2.1-1.8-2.1
			c-1.3,0-1.9,1.2-2,2.1H76.9z"/>
		<path class="st1" d="M79.5,69.9c0-0.6,0.4-0.9,0.9-0.9c0.5,0,0.9,0.4,0.9,0.9c0,0.5-0.3,0.9-0.9,0.9
			C79.8,70.8,79.5,70.4,79.5,69.9z"/>
		<path class="st1" d="M83.9,60.7L83.9,60.7l-1,0.5l-0.1-0.6l1.2-0.7h0.7v5.7h-0.7V60.7z"/>
		<path class="st1" d="M88.3,60.7L88.3,60.7l-1,0.5l-0.1-0.6l1.2-0.7h0.7v5.7h-0.7V60.7z"/>
	</g>
</g>
</svg>
