<!-- Generator: Adobe Illustrator 20.1.0, SVG Export Plug-In  -->
<svg version="1.1"
	 xmlns="http://www.w3.org/2000/svg" xmlns:xlink="http://www.w3.org/1999/xlink" xmlns:a="http://ns.adobe.com/AdobeSVGViewerExtensions/3.0/"
	 x="0px" y="0px" width="131.1px" height="67.4px" viewBox="0 0 131.1 67.4"
	 style="overflow:scroll;enable-background:new 0 0 131.1 67.4;" xml:space="preserve">
<style type="text/css">
	.st0{fill:#D51D70;}
	.st1{fill:url(#XMLID_7_);}
	.st2{fill-rule:evenodd;clip-rule:evenodd;fill:#D51D70;}
	.st3{fill:url(#XMLID_8_);}
</style>
<defs>
</defs>
<path id="XMLID_6_" class="st0" d="M73.6,9.9c-7.1,7.1-10.3,16.5-9.8,25.7c0.4,8,3.7,15.8,9.8,21.9c6.1,6.1,13.9,9.4,21.9,9.8
	c9.3,0.5,18.7-2.7,25.7-9.8c13.2-13.2,13.2-34.5,0-47.6C108-3.3,86.7-3.3,73.6,9.9z"/>
<path id="XMLID_5_" class="st0" d="M110.3,43.6H20.6c-2.2,0-4.3,1.2-5.6,3.3c-1.5,2.5-4.1,4.2-7,4.1c-4.3-0.1-7.8-4.1-8-8.8
	c-0.2-5.3,3.6-9.6,8.2-9.6c2.8,0,5.2,1.6,6.7,3.9c1.3,2.1,3.4,3.5,5.7,3.5h89.7V43.6z"/>
<linearGradient id="XMLID_7_" gradientUnits="userSpaceOnUse" x1="295.1777" y1="15.3348" x2="331.8719" y2="54.2872" gradientTransform="matrix(-1 0 0 1 409.1107 0)">
	<stop  offset="0" style="stop-color:#FFFFFF"/>
	<stop  offset="0.9847" style="stop-color:#D2D3D4"/>
	<stop  offset="1" style="stop-color:#D1D2D3"/>
</linearGradient>
<circle id="XMLID_2_" class="st1" cx="96.5" cy="33.9" r="27.2"/>
<path class="st2" d="M91.9,39.6c0-1.8,0-3.6,0-5.4c0-1.1-0.4-1.8-1.3-2.2c-1.7-0.7-3.3-0.7-4.8,0.4c-0.5,0.4-0.7,0.9-0.7,1.5
	c0,2.6,0,5.2,0,7.7c0,0.3,0.1,0.4,0.4,0.5c2,0.7,3.2,2.1,3.5,4.2c0.3,2.1-0.8,4.1-2.7,5.1c-3.1,1.7-6.9,0-7.8-3.4
	c-0.5-2,0.5-4.4,2.3-5.4c0.4-0.2,0.7-0.4,1.1-0.5c0.2-0.1,0.3-0.2,0.3-0.5c0-2.5,0.1-5,0-7.5c-0.1-2.4,1.1-4,3.2-4.9
	c2.4-1,4.7-0.9,7,0.4c1.3,0.7,2.1,1.8,2.3,3.3c0,0.3,0,0.5,0,0.8c0,3.6,0,7.2,0,10.7c0,1.1,0.5,1.8,1.5,2.2c1.5,0.6,2.9,0.6,4.4-0.2
	c0.7-0.4,1.1-1,1.1-1.8c0-3.1,0-6.2,0-9.3c0-0.3-0.1-0.4-0.4-0.5c-1.1-0.4-2-1.1-2.6-2.1c-1.6-2.5-3.2-5.1-4.8-7.6
	c-2-3.1-0.1-7.1,3.5-7.7c0.3,0,0.6-0.1,0.9-0.1c0.7,0,1.3,0.6,1.4,1.3c0.1,0.7-0.4,1.4-1.1,1.5c-0.3,0.1-0.6,0.1-0.9,0.1
	c-1.5,0.4-2.2,1.9-1.4,3.3c1.6,2.5,3.1,4.9,4.6,7.4c0.9,1.5,3.3,1.5,4.2-0.1c1.4-2.5,2.9-4.9,4.5-7.3c1-1.5-0.1-3.3-1.8-3.4
	c-0.8,0-1.4-0.5-1.5-1.2c-0.2-0.8,0.5-1.6,1.3-1.7c3.3-0.1,5.7,2.7,5.3,5.7c-0.1,0.7-0.4,1.4-0.7,2c-1.6,2.5-3.1,5.1-4.7,7.6
	c-0.6,1-1.5,1.7-2.7,2.1c-0.3,0.1-0.3,0.2-0.3,0.5c0,3.1,0,6.3,0,9.4c0,1.7-0.7,3-2,3.9c-2.5,1.8-6.6,1.7-8.9-0.3
	c-1.1-0.9-1.7-2.1-1.7-3.6C91.9,43.1,91.9,41.3,91.9,39.6z M83.7,44.7c-0.3,0.1-0.6,0.1-0.9,0.2c-1.2,0.4-1.8,1.7-1.4,2.9
	c0.5,1.3,2.1,1.9,3.4,1.3c0.9-0.4,1.5-1.4,1.3-2.2C85.9,45.5,85,44.7,83.7,44.7z"/>
</svg>
