<!-- Generator: Adobe Illustrator 20.1.0, SVG Export Plug-In  -->
<svg version="1.1"
	 xmlns="http://www.w3.org/2000/svg" xmlns:xlink="http://www.w3.org/1999/xlink" xmlns:a="http://ns.adobe.com/AdobeSVGViewerExtensions/3.0/"
	 x="0px" y="0px" width="332.4px" height="205.1px" viewBox="0 0 332.4 205.1"
	 style="overflow:scroll;enable-background:new 0 0 332.4 205.1;" xml:space="preserve">
<style type="text/css">
	.st0{fill:none;stroke:#5A2D81;stroke-width:1.0072;stroke-miterlimit:10;}
	.st1{fill:none;stroke:#BBBDBF;stroke-width:0.5638;stroke-miterlimit:10;}
</style>
<defs>
</defs>
<g>
	<g>
		<line class="st0" x1="0" y1="0.5" x2="5" y2="0.5"/>
		<line class="st0" x1="0" y1="30" x2="5" y2="30"/>
		<line class="st0" x1="0" y1="56.4" x2="5" y2="56.4"/>
		<line class="st0" x1="0" y1="145" x2="5" y2="145"/>
		<line class="st0" x1="0" y1="115.5" x2="5" y2="115.5"/>
		<line class="st0" x1="0" y1="86" x2="5" y2="86"/>
		<line class="st0" x1="0" y1="175" x2="5" y2="175"/>
		<line class="st0" x1="0" y1="204.6" x2="5" y2="204.6"/>
	</g>
</g>
<polyline class="st0" points="5,0.5 5,204.6 332.4,204.6 "/>
<g>
	<line class="st1" x1="5" y1="0.5" x2="330.8" y2="0.5"/>
	<line class="st1" x1="5" y1="30" x2="330.8" y2="30"/>
	<line class="st1" x1="5" y1="56.4" x2="330.8" y2="56.4"/>
	<line class="st1" x1="5" y1="86" x2="330.8" y2="86"/>
	<line class="st1" x1="5" y1="115.5" x2="330.8" y2="115.5"/>
	<line class="st1" x1="5" y1="145" x2="330.8" y2="145"/>
	<line class="st1" x1="5" y1="175" x2="330.8" y2="175"/>
</g>
</svg>
