<!-- Generator: Adobe Illustrator 20.1.0, SVG Export Plug-In  -->
<svg version="1.1"
	 xmlns="http://www.w3.org/2000/svg" xmlns:xlink="http://www.w3.org/1999/xlink" xmlns:a="http://ns.adobe.com/AdobeSVGViewerExtensions/3.0/"
	 x="0px" y="0px" width="325.5px" height="56.1px" viewBox="0 0 325.5 56.1"
	 style="overflow:scroll;enable-background:new 0 0 325.5 56.1;" xml:space="preserve">
<style type="text/css">
	.st0{fill:#FAFBFA;}
</style>
<defs>
</defs>
<g>
	<g>
		<path class="st0" d="M18.2,17.3c-0.1-2.7-0.3-6-0.2-8.8h-0.1c-0.7,2.5-1.5,5.4-2.5,8l-3,9.1H9.4l-2.8-8.9C5.8,14,5,11.1,4.5,8.5
			H4.4c-0.1,2.7-0.2,6-0.4,8.9l-0.5,8.4H0L1.4,4.9h5l2.7,8.4c0.7,2.4,1.4,4.9,1.9,7.3h0.1c0.6-2.3,1.3-4.8,2.1-7.3l2.9-8.4h5
			l1.2,20.9h-3.7L18.2,17.3z"/>
		<path class="st0" d="M37.9,16.5H30v6.1h8.8v3.1H26.2V4.9h12.2V8H30v5.4h7.9V16.5z"/>
		<path class="st0" d="M57.1,25.2c-0.9,0.5-2.9,0.9-5.4,0.9C45.1,26.1,41,22,41,15.6c0-6.9,4.8-11,11.2-11c2.5,0,4.3,0.5,5.1,0.9
			l-0.8,3c-1-0.4-2.4-0.8-4.1-0.8c-4.2,0-7.3,2.7-7.3,7.7c0,4.6,2.7,7.5,7.3,7.5c1.6,0,3.2-0.3,4.2-0.8L57.1,25.2z"/>
		<path class="st0" d="M64.5,19.9l-1.8,5.9h-3.9l6.7-20.9h4.9l6.8,20.9h-4.1l-1.9-5.9H64.5z M70.5,17l-1.6-5.1
			c-0.4-1.3-0.7-2.7-1.1-3.9h-0.1c-0.3,1.2-0.6,2.7-1,3.9L65.2,17H70.5z"/>
		<path class="st0" d="M80.1,25.8V4.9h4.3l5.4,9c1.4,2.3,2.6,4.7,3.6,7h0.1c-0.2-2.8-0.3-5.5-0.3-8.7V4.9h3.5v20.9h-3.9l-5.5-9.2
			c-1.3-2.3-2.7-4.9-3.8-7.2l-0.1,0c0.2,2.7,0.2,5.5,0.2,8.9v7.5H80.1z"/>
		<path class="st0" d="M104.8,4.9v20.9H101V4.9H104.8z"/>
		<path class="st0" d="M109.1,21.6c1.2,0.7,3.1,1.3,5.1,1.3c2.4,0,3.8-1.1,3.8-2.9c0-1.6-1.1-2.5-3.7-3.5c-3.4-1.2-5.6-3.1-5.6-6.1
			c0-3.4,2.9-6,7.4-6c2.3,0,3.9,0.5,5,1.1l-0.9,3.1c-0.7-0.4-2.2-1-4.2-1c-2.4,0-3.5,1.3-3.5,2.5c0,1.6,1.2,2.4,4,3.4
			c3.6,1.4,5.4,3.2,5.4,6.2c0,3.3-2.5,6.3-7.9,6.3c-2.2,0-4.5-0.6-5.6-1.3L109.1,21.6z"/>
		<path class="st0" d="M142.9,17.3c-0.1-2.7-0.3-6-0.2-8.8h-0.1c-0.7,2.5-1.6,5.4-2.5,8l-3,9.1h-2.9l-2.8-8.9
			c-0.8-2.7-1.6-5.5-2.1-8.1h-0.1c-0.1,2.7-0.2,6-0.4,8.9l-0.5,8.4h-3.6l1.4-20.9h5l2.7,8.4c0.7,2.4,1.4,4.9,1.9,7.3h0.1
			c0.6-2.3,1.3-4.8,2.1-7.3l2.9-8.4h5l1.2,20.9h-3.7L142.9,17.3z"/>
		<path class="st0" d="M169.5,15.1c0,7-4.2,11-10,11c-5.9,0-9.6-4.5-9.6-10.6c0-6.4,4-10.9,9.9-10.9C165.9,4.6,169.5,9.2,169.5,15.1
			z M153.9,15.4c0,4.2,2.1,7.6,5.8,7.6c3.7,0,5.8-3.4,5.8-7.8c0-3.9-2-7.7-5.8-7.7C155.9,7.6,153.9,11.1,153.9,15.4z"/>
		<path class="st0" d="M179.2,5.2c1.7-0.3,3.8-0.4,6.1-0.4c3.9,0,6.6,0.8,8.5,2.4c2,1.6,3.3,4.1,3.3,7.7c0,3.7-1.3,6.5-3.3,8.3
			c-2.1,1.9-5.4,2.9-9.5,2.9c-2.2,0-3.9-0.1-5.1-0.3V5.2z M183,22.9c0.5,0.1,1.3,0.1,2.1,0.1c5,0,7.9-2.7,7.9-8
			c0-4.6-2.6-7.3-7.4-7.3c-1.2,0-2.1,0.1-2.6,0.2V22.9z"/>
		<path class="st0" d="M212,16.5h-7.9v6.1h8.8v3.1h-12.6V4.9h12.2V8h-8.3v5.4h7.9V16.5z"/>
		<path class="st0" d="M226.9,19.9l-1.8,5.9h-3.9l6.7-20.9h4.9l6.8,20.9h-4.1l-1.9-5.9H226.9z M232.9,17l-1.6-5.1
			c-0.4-1.3-0.7-2.7-1.1-3.9h-0.1c-0.3,1.2-0.6,2.7-1,3.9l-1.6,5.1H232.9z"/>
		<path class="st0" d="M257.4,25.2c-0.9,0.5-2.9,0.9-5.4,0.9c-6.6,0-10.7-4.2-10.7-10.5c0-6.9,4.8-11,11.2-11c2.5,0,4.3,0.5,5.1,0.9
			l-0.8,3c-1-0.4-2.4-0.8-4.1-0.8c-4.2,0-7.3,2.7-7.3,7.7c0,4.6,2.7,7.5,7.3,7.5c1.6,0,3.2-0.3,4.2-0.8L257.4,25.2z"/>
		<path class="st0" d="M275.7,25.2c-0.9,0.5-2.9,0.9-5.4,0.9c-6.6,0-10.7-4.2-10.7-10.5c0-6.9,4.8-11,11.2-11c2.5,0,4.3,0.5,5.1,0.9
			l-0.8,3c-1-0.4-2.4-0.8-4.1-0.8c-4.2,0-7.3,2.7-7.3,7.7c0,4.6,2.7,7.5,7.3,7.5c1.6,0,3.2-0.3,4.2-0.8L275.7,25.2z"/>
		<path class="st0" d="M282.7,4.9v20.9h-3.8V4.9H282.7z"/>
		<path class="st0" d="M305.6,15.1c0,7-4.2,11-10,11c-5.9,0-9.6-4.5-9.6-10.6c0-6.4,4-10.9,9.9-10.9C302,4.6,305.6,9.2,305.6,15.1z
			 M290,15.4c0,4.2,2.1,7.6,5.8,7.6c3.7,0,5.8-3.4,5.8-7.8c0-3.9-2-7.7-5.8-7.7C292,7.6,290,11.1,290,15.4z M300.8,0l-3.9,3.7h-3.1
			l2.7-3.7H300.8z"/>
		<path class="st0" d="M308.9,25.8V4.9h4.3l5.4,9c1.4,2.3,2.6,4.7,3.6,7h0.1c-0.2-2.8-0.3-5.5-0.3-8.7V4.9h3.5v20.9h-3.9l-5.5-9.2
			c-1.3-2.3-2.7-4.9-3.8-7.2l-0.1,0c0.2,2.7,0.2,5.5,0.2,8.9v7.5H308.9z"/>
		<path class="st0" d="M18.2,47.3c-0.1-2.7-0.3-6-0.2-8.8h-0.1c-0.7,2.5-1.5,5.4-2.5,8l-3,9.1H9.4l-2.8-8.9C5.8,44,5,41.1,4.5,38.5
			H4.4c-0.1,2.7-0.2,6-0.4,8.9l-0.5,8.4H0l1.4-20.9h5l2.7,8.4c0.7,2.4,1.4,4.9,1.9,7.3h0.1c0.6-2.3,1.3-4.8,2.1-7.3l2.9-8.4h5
			l1.2,20.9h-3.7L18.2,47.3z"/>
		<path class="st0" d="M29.9,34.9v12.2c0,4.1,1.7,6,4.3,6c2.8,0,4.4-1.9,4.4-6V34.9h3.8v11.9c0,6.4-3.3,9.3-8.3,9.3
			c-4.8,0-8-2.7-8-9.3v-12H29.9z"/>
		<path class="st0" d="M46.8,34.9h3.8v17.7h8.6v3.2H46.8V34.9z"/>
		<path class="st0" d="M66.1,38.1h-6v-3.2h15.8v3.2h-6v17.7h-3.8V38.1z"/>
		<path class="st0" d="M82.2,34.9v20.9h-3.8V34.9H82.2z"/>
		<path class="st0" d="M86.6,34.9h12.1V38h-8.2v5.8h7.7v3.1h-7.7v8.9h-3.8V34.9z"/>
		<path class="st0" d="M106.5,49.9l-1.8,5.9h-3.9l6.7-20.9h4.9l6.8,20.9H115l-1.9-5.9H106.5z M112.5,47l-1.6-5.1
			c-0.4-1.3-0.7-2.7-1.1-3.9h-0.1c-0.3,1.2-0.6,2.7-1,3.9l-1.6,5.1H112.5z"/>
		<path class="st0" d="M137,55.2c-0.9,0.5-2.9,0.9-5.4,0.9C125,56.1,121,52,121,45.6c0-6.9,4.8-11,11.2-11c2.5,0,4.3,0.5,5.1,0.9
			l-0.8,3c-1-0.4-2.4-0.8-4.1-0.8c-4.2,0-7.3,2.7-7.3,7.7c0,4.6,2.7,7.5,7.3,7.5c1.6,0,3.2-0.3,4.2-0.8L137,55.2z"/>
		<path class="st0" d="M144.3,38.1h-6v-3.2h15.8v3.2h-6v17.7h-3.8V38.1z"/>
		<path class="st0" d="M175.1,45.1c0,7-4.2,11-10,11c-5.9,0-9.6-4.5-9.6-10.6c0-6.4,4-10.9,9.9-10.9
			C171.5,34.6,175.1,39.2,175.1,45.1z M159.5,45.4c0,4.2,2.1,7.6,5.8,7.6c3.7,0,5.8-3.4,5.8-7.8c0-3.9-2-7.7-5.8-7.7
			C161.5,37.6,159.5,41.1,159.5,45.4z"/>
		<path class="st0" d="M178.4,35.2c1.4-0.2,3.6-0.4,5.8-0.4c3,0,5.1,0.5,6.4,1.7c1.1,1,1.8,2.4,1.8,4.2c0,2.7-1.8,4.5-3.8,5.2v0.1
			c1.5,0.6,2.4,2,2.9,4c0.7,2.6,1.2,5,1.6,5.8h-3.9c-0.3-0.6-0.8-2.3-1.4-4.9c-0.6-2.7-1.6-3.6-3.8-3.7h-1.9v8.6h-3.8V35.2z
			 M182.2,44.4h2.3c2.6,0,4.2-1.4,4.2-3.4c0-2.3-1.6-3.3-4.1-3.3c-1.2,0-2,0.1-2.4,0.2V44.4z"/>
		<path class="st0" d="M199.8,34.9v20.9H196V34.9H199.8z"/>
		<path class="st0" d="M208.4,49.9l-1.8,5.9h-3.9l6.7-20.9h4.9l6.8,20.9h-4.1l-1.9-5.9H208.4z M214.4,47l-1.6-5.1
			c-0.4-1.3-0.7-2.7-1.1-3.9h-0.1c-0.3,1.2-0.6,2.7-1,3.9L209,47H214.4z"/>
		<path class="st0" d="M223.9,34.9h3.8v17.7h8.6v3.2h-12.4V34.9z"/>
	</g>
</g>
</svg>
