<!-- Generator: Adobe Illustrator 20.1.0, SVG Export Plug-In  -->
<svg version="1.1"
	 xmlns="http://www.w3.org/2000/svg" xmlns:xlink="http://www.w3.org/1999/xlink" xmlns:a="http://ns.adobe.com/AdobeSVGViewerExtensions/3.0/"
	 x="0px" y="0px" width="119.7px" height="88.9px" viewBox="0 0 119.7 88.9"
	 style="overflow:scroll;enable-background:new 0 0 119.7 88.9;" xml:space="preserve">
<style type="text/css">
	.st0{fill:#58595B;}
	.st1{fill:#DA0962;}
</style>
<defs>
</defs>
<g>
	<path class="st0" d="M0.7,1.7h1.1V9h3.5v0.9H0.7V1.7z"/>
	<path class="st0" d="M12,6.9C12,9.1,10.4,10,9,10c-1.6,0-2.8-1.2-2.8-3c0-2,1.3-3.1,2.9-3.1C10.8,3.8,12,5.1,12,6.9z M7.3,6.9
		c0,1.3,0.7,2.3,1.8,2.3c1,0,1.8-1,1.8-2.3c0-1-0.5-2.3-1.8-2.3C7.8,4.7,7.3,5.8,7.3,6.9z"/>
	<path class="st0" d="M20.3,9L20.3,9c-0.3,0.6-1,1-2,1c-1.4,0-2.5-1.2-2.5-3c0-2.2,1.4-3.2,2.7-3.2c0.9,0,1.5,0.5,1.8,1h0l0-0.9h1
		c0,0.5,0,1,0,1.6v6.7h-1.1V9z M20.3,6.4c0-0.1,0-0.3,0-0.5c-0.2-0.7-0.7-1.2-1.5-1.2c-1.1,0-1.8,0.9-1.8,2.3c0,1.2,0.6,2.2,1.7,2.2
		c0.7,0,1.3-0.4,1.5-1.2c0-0.1,0.1-0.4,0.1-0.5V6.4z"/>
	<path class="st0" d="M28.2,8.3c0,0.6,0,1.1,0,1.6h-1l-0.1-1h0c-0.3,0.5-0.9,1.1-2,1.1c-0.9,0-2-0.5-2-2.6V4h1.1v3.3
		c0,1.1,0.3,1.9,1.3,1.9c0.7,0,1.2-0.5,1.4-1c0.1-0.2,0.1-0.4,0.1-0.5V4h1.1V8.3z"/>
	<path class="st0" d="M30.8,7.1c0,1.5,1,2,2,2c0.8,0,1.2-0.1,1.6-0.3l0.2,0.8c-0.4,0.2-1,0.4-2,0.4c-1.8,0-2.9-1.2-2.9-3
		c0-1.8,1-3.2,2.8-3.2c1.9,0,2.4,1.7,2.4,2.8c0,0.2,0,0.4,0,0.5H30.8z M33.9,6.4c0-0.7-0.3-1.7-1.5-1.7c-1.1,0-1.6,1-1.6,1.7H33.9z"
		/>
	<path class="st0" d="M39.1,8c0.4,0.2,1.2,0.5,1.8,0.5c0.6,0,0.9-0.2,0.9-0.6s-0.2-0.5-1-0.8c-1.4-0.5-1.9-1.2-1.9-2
		c0-1.3,1.1-2.2,2.8-2.2c0.8,0,1.5,0.2,1.9,0.4l-0.4,1.5c-0.3-0.2-0.9-0.4-1.5-0.4c-0.5,0-0.8,0.2-0.8,0.6c0,0.3,0.3,0.5,1.1,0.8
		c1.3,0.4,1.8,1.1,1.9,2.1c0,1.3-1,2.2-3,2.2c-0.9,0-1.7-0.2-2.2-0.5L39.1,8z"/>
	<path class="st0" d="M47,7.2C47.1,8,48,8.4,48.9,8.4c0.7,0,1.3-0.1,1.9-0.3l0.3,1.4c-0.7,0.3-1.5,0.4-2.5,0.4
		C46.3,10,45,8.7,45,6.6c0-1.7,1.1-3.6,3.4-3.6c2.2,0,3,1.7,3,3.4c0,0.4,0,0.7-0.1,0.8H47z M49.5,5.7c0-0.5-0.2-1.4-1.2-1.4
		c-0.9,0-1.3,0.8-1.3,1.4H49.5z"/>
	<path class="st0" d="M52.9,5.2c0-0.8,0-1.6-0.1-2.2h1.8L54.8,4h0c0.3-0.4,1-1.1,2.1-1.1c1.4,0,2.4,0.9,2.4,2.9v4h-2.1V6.1
		c0-0.9-0.3-1.5-1.1-1.5c-0.6,0-0.9,0.4-1.1,0.8C55.1,5.6,55,5.8,55,6v3.9h-2.1V5.2z M54.2,2.1c0-1.2,0.4-1.8,1.1-1.8
		c0.3,0,0.6,0.1,0.9,0.3c0.2,0.1,0.4,0.3,0.6,0.3c0.2,0,0.3-0.1,0.4-0.6h1C58.2,1.5,57.8,2,57,2c-0.4,0-0.7-0.2-1-0.3
		c-0.3-0.1-0.4-0.2-0.5-0.2c-0.2,0-0.3,0.2-0.3,0.6H54.2z"/>
	<path class="st0" d="M65.1,9.9L65,9.2h0C64.5,9.7,63.8,10,63,10c-1.4,0-2.2-1-2.2-2.1c0-1.8,1.6-2.6,4-2.6V5.2
		c0-0.4-0.2-0.9-1.2-0.9c-0.7,0-1.4,0.2-1.9,0.5l-0.4-1.4c0.5-0.3,1.4-0.6,2.6-0.6c2.3,0,3,1.3,3,2.9v2.4c0,0.7,0,1.3,0.1,1.7H65.1z
		 M64.9,6.7c-1.1,0-2,0.3-2,1.1c0,0.5,0.4,0.8,0.8,0.8c0.5,0,1-0.3,1.1-0.8c0-0.1,0-0.2,0-0.4V6.7z"/>
	<path class="st0" d="M68.8,0h2.1v9.9h-2.1V0z"/>
	<path class="st0" d="M76.7,9.9l-0.1-0.7h0c-0.4,0.5-1.1,0.8-1.9,0.8c-1.4,0-2.2-1-2.2-2.1c0-1.8,1.6-2.6,4-2.6V5.2
		c0-0.4-0.2-0.9-1.2-0.9c-0.7,0-1.4,0.2-1.9,0.5l-0.4-1.4c0.5-0.3,1.4-0.6,2.6-0.6c2.3,0,3,1.3,3,2.9v2.4c0,0.7,0,1.3,0.1,1.7H76.7z
		 M76.5,6.7c-1.1,0-2,0.3-2,1.1c0,0.5,0.4,0.8,0.8,0.8c0.5,0,1-0.3,1.1-0.8c0-0.1,0-0.2,0-0.4V6.7z"/>
	<path class="st0" d="M83.4,0h2.1v9.9h-2.1V0z"/>
	<path class="st0" d="M91.3,9.9l-0.1-0.7h0C90.7,9.7,90,10,89.2,10C87.8,10,87,9,87,7.9c0-1.8,1.6-2.6,4-2.6V5.2
		c0-0.4-0.2-0.9-1.2-0.9c-0.7,0-1.4,0.2-1.9,0.5l-0.4-1.4c0.5-0.3,1.4-0.6,2.6-0.6c2.3,0,3,1.3,3,2.9v2.4c0,0.7,0,1.3,0.1,1.7H91.3z
		 M91,6.7c-1.1,0-2,0.3-2,1.1c0,0.5,0.4,0.8,0.8,0.8c0.5,0,1-0.3,1.1-0.8c0-0.1,0-0.2,0-0.4V6.7z"/>
	<path class="st1" d="M2.5,21.4c0,0.5-0.4,0.9-1,0.9c-0.6,0-1-0.4-1-0.9c0-0.5,0.4-0.9,1-0.9C2.1,20.5,2.4,20.9,2.5,21.4z M0.5,29
		v-6h1.9v6H0.5z"/>
	<path class="st1" d="M4,25c0-0.7,0-1.4,0-1.9h1.6l0.1,0.8h0c0.3-0.4,0.8-0.9,1.8-0.9c0.8,0,1.4,0.4,1.6,1h0
		c0.2-0.3,0.5-0.5,0.8-0.7c0.3-0.2,0.7-0.3,1.1-0.3c1.1,0,2,0.8,2,2.6V29h-1.8v-3.2c0-0.9-0.3-1.4-0.9-1.4c-0.4,0-0.7,0.3-0.9,0.6
		c0,0.1-0.1,0.3-0.1,0.5V29H7.6v-3.3c0-0.8-0.3-1.3-0.9-1.3c-0.5,0-0.8,0.4-0.9,0.7c-0.1,0.1-0.1,0.3-0.1,0.5V29H4V25z"/>
	<path class="st1" d="M14.7,25.1c0-0.8,0-1.5,0-2h1.6l0.1,0.8h0c0.4-0.6,1.1-1,2-1c1.3,0,2.5,1.1,2.5,3c0,2.2-1.4,3.2-2.7,3.2
		c-0.7,0-1.3-0.3-1.5-0.7h0v3h-1.9V25.1z M16.6,26.5c0,0.1,0,0.3,0,0.4c0.1,0.5,0.5,0.9,1.1,0.9c0.8,0,1.3-0.7,1.3-1.7
		c0-1-0.4-1.7-1.3-1.7c-0.5,0-1,0.4-1.1,0.9c0,0.1,0,0.2,0,0.3V26.5z"/>
	<path class="st1" d="M28.1,26c0,2.2-1.5,3.2-3.1,3.2c-1.7,0-3.1-1.1-3.1-3.1c0-1.9,1.3-3.2,3.2-3.2C26.8,22.9,28.1,24.2,28.1,26z
		 M23.7,26.1c0,1,0.4,1.8,1.2,1.8c0.7,0,1.2-0.7,1.2-1.8c0-0.9-0.3-1.8-1.2-1.8C24.1,24.3,23.7,25.2,23.7,26.1z"/>
	<path class="st1" d="M29.4,25c0-0.9,0-1.5,0-2h1.6l0.1,1.1h0c0.3-0.9,1-1.2,1.6-1.2c0.2,0,0.3,0,0.4,0v1.7c-0.1,0-0.3,0-0.5,0
		c-0.7,0-1.1,0.4-1.3,0.9c0,0.1,0,0.3,0,0.4v3h-1.9V25z"/>
	<path class="st1" d="M36.3,21.4v1.7h1.3v1.4h-1.3v2.2c0,0.7,0.2,1,0.7,1c0.2,0,0.4,0,0.5,0l0,1.4c-0.2,0.1-0.7,0.2-1.2,0.2
		c-0.6,0-1.1-0.2-1.4-0.5c-0.3-0.4-0.5-0.9-0.5-1.8v-2.4h-0.8v-1.4h0.8v-1.3L36.3,21.4z"/>
	<path class="st1" d="M42.2,29l-0.1-0.6h0c-0.4,0.5-1,0.7-1.7,0.7c-1.2,0-1.9-0.9-1.9-1.8c0-1.5,1.4-2.3,3.5-2.3V25
		c0-0.3-0.2-0.8-1.1-0.8c-0.6,0-1.3,0.2-1.6,0.5l-0.3-1.2c0.4-0.2,1.2-0.5,2.3-0.5c2,0,2.6,1.2,2.6,2.6v2.1c0,0.6,0,1.1,0.1,1.5
		H42.2z M42,26.2c-1,0-1.7,0.2-1.7,0.9c0,0.5,0.3,0.7,0.7,0.7c0.5,0,0.8-0.3,1-0.7c0-0.1,0-0.2,0-0.3V26.2z"/>
	<path class="st1" d="M45.4,25c0-0.7,0-1.4,0-1.9H47l0.1,0.8h0c0.2-0.4,0.9-1,1.8-1c1.2,0,2.1,0.8,2.1,2.6V29h-1.9v-3.3
		c0-0.8-0.3-1.3-0.9-1.3c-0.5,0-0.8,0.4-0.9,0.7c0,0.1-0.1,0.3-0.1,0.5V29h-1.9V25z"/>
	<path class="st1" d="M57.2,28.9c-0.3,0.1-1,0.3-1.7,0.3c-1.9,0-3.2-1.2-3.2-3c0-1.7,1.2-3.2,3.4-3.2c0.5,0,1,0.1,1.4,0.2L57,24.6
		c-0.2-0.1-0.5-0.2-1-0.2c-1,0-1.6,0.7-1.6,1.7c0,1.1,0.7,1.7,1.6,1.7c0.4,0,0.8-0.1,1.1-0.2L57.2,28.9z"/>
	<path class="st1" d="M60.4,21.4c0,0.5-0.4,0.9-1,0.9c-0.6,0-1-0.4-1-0.9c0-0.5,0.4-0.9,1-0.9C60,20.5,60.3,20.9,60.4,21.4z
		 M58.4,29v-6h1.9v6H58.4z"/>
	<path class="st1" d="M65.3,29l-0.1-0.6h0c-0.4,0.5-1,0.7-1.7,0.7c-1.2,0-1.9-0.9-1.9-1.8c0-1.5,1.4-2.3,3.5-2.3V25
		c0-0.3-0.2-0.8-1.1-0.8c-0.6,0-1.3,0.2-1.6,0.5L62,23.5c0.4-0.2,1.2-0.5,2.3-0.5c2,0,2.6,1.2,2.6,2.6v2.1c0,0.6,0,1.1,0.1,1.5H65.3
		z M65.1,26.2c-1,0-1.7,0.2-1.7,0.9c0,0.5,0.3,0.7,0.7,0.7c0.5,0,0.8-0.3,1-0.7c0-0.1,0-0.2,0-0.3V26.2z"/>
	<path class="st0" d="M75.5,28.1L75.5,28.1c-0.3,0.6-1,1-2,1c-1.4,0-2.5-1.2-2.5-3c0-2.2,1.4-3.2,2.7-3.2c0.9,0,1.5,0.5,1.8,1h0
		l0-0.9h1c0,0.5,0,1,0,1.6v6.7h-1.1V28.1z M75.5,25.5c0-0.1,0-0.3,0-0.5c-0.2-0.7-0.7-1.2-1.5-1.2c-1.1,0-1.8,0.9-1.8,2.3
		c0,1.2,0.6,2.2,1.7,2.2c0.7,0,1.3-0.4,1.5-1.2c0-0.1,0.1-0.4,0.1-0.5V25.5z"/>
	<path class="st0" d="M83.4,27.4c0,0.6,0,1.1,0,1.6h-1l-0.1-1h0c-0.3,0.5-0.9,1.1-2,1.1c-0.9,0-2-0.5-2-2.6v-3.5h1.1v3.3
		c0,1.1,0.3,1.9,1.3,1.9c0.7,0,1.2-0.5,1.4-1c0.1-0.2,0.1-0.4,0.1-0.5v-3.6h1.1V27.4z"/>
	<path class="st0" d="M86,26.3c0,1.5,1,2,2,2c0.8,0,1.2-0.1,1.6-0.3l0.2,0.8c-0.4,0.2-1,0.4-2,0.4c-1.8,0-2.9-1.2-2.9-3
		c0-1.8,1-3.2,2.8-3.2c1.9,0,2.4,1.7,2.4,2.8c0,0.2,0,0.4,0,0.5H86z M89.1,25.5c0-0.7-0.3-1.7-1.5-1.7c-1.1,0-1.6,1-1.6,1.7H89.1z"
		/>
	<path class="st0" d="M95.7,21.4v1.7h1.5V24h-1.5v3.2c0,0.7,0.2,1.1,0.8,1.1c0.3,0,0.5,0,0.6-0.1l0,0.8c-0.2,0.1-0.5,0.1-1,0.1
		c-0.5,0-0.9-0.2-1.2-0.5c-0.3-0.3-0.4-0.8-0.4-1.5V24h-0.9v-0.8h0.9v-1.4L95.7,21.4z"/>
	<path class="st0" d="M99.8,21.5c0,0.4-0.3,0.7-0.7,0.7c-0.4,0-0.6-0.3-0.6-0.7c0-0.4,0.3-0.7,0.7-0.7
		C99.6,20.8,99.8,21.1,99.8,21.5z M98.6,29v-5.9h1.1V29H98.6z"/>
	<path class="st0" d="M102.3,26.3c0,1.5,1,2,2,2c0.8,0,1.2-0.1,1.6-0.3l0.2,0.8c-0.4,0.2-1,0.4-2,0.4c-1.8,0-2.9-1.2-2.9-3
		c0-1.8,1-3.2,2.8-3.2c1.9,0,2.4,1.7,2.4,2.8c0,0.2,0,0.4,0,0.5H102.3z M105.4,25.5c0-0.7-0.3-1.7-1.5-1.7c-1.1,0-1.6,1-1.6,1.7
		H105.4z"/>
	<path class="st0" d="M108,24.7c0-0.6,0-1.1,0-1.6h1l0.1,1h0c0.3-0.6,1-1.1,2-1.1c0.8,0,2.1,0.5,2.1,2.5V29h-1.1v-3.4
		c0-1-0.4-1.7-1.4-1.7c-0.7,0-1.3,0.5-1.4,1.1c0,0.1-0.1,0.3-0.1,0.5V29H108V24.7z"/>
	<path class="st0" d="M115.5,26.3c0,1.5,1,2,2,2c0.8,0,1.2-0.1,1.6-0.3l0.2,0.8c-0.4,0.2-1,0.4-2,0.4c-1.8,0-2.9-1.2-2.9-3
		c0-1.8,1-3.2,2.8-3.2c1.9,0,2.4,1.7,2.4,2.8c0,0.2,0,0.4,0,0.5H115.5z M118.6,25.5c0-0.7-0.3-1.7-1.5-1.7c-1.1,0-1.6,1-1.6,1.7
		H118.6z"/>
	<path class="st0" d="M0.6,39.5h1.5v8.7H0.6V39.5z"/>
	<path class="st0" d="M7.2,48.2l-0.1-0.7h0c-0.4,0.5-1,0.8-1.8,0.8c-1.2,0-1.9-0.9-1.9-1.8c0-1.5,1.3-2.3,3.5-2.2v-0.1
		c0-0.4-0.2-1-1.2-1c-0.6,0-1.2,0.2-1.6,0.4l-0.3-1c0.4-0.3,1.2-0.5,2.1-0.5c1.9,0,2.5,1.2,2.5,2.5v2.1c0,0.5,0,1.1,0.1,1.4H7.2z
		 M7,45.3C6,45.3,5,45.5,5,46.4c0,0.6,0.4,0.9,0.9,0.9c0.6,0,1-0.4,1.2-0.8c0-0.1,0-0.2,0-0.3V45.3z"/>
	<path class="st0" d="M14.6,40.6c0,0.5-0.3,0.8-0.9,0.8c-0.5,0-0.8-0.4-0.8-0.8c0-0.5,0.3-0.8,0.8-0.8
		C14.2,39.8,14.6,40.1,14.6,40.6z M13,48.2v-5.9h1.5v5.9H13z"/>
	<path class="st0" d="M21.7,39.5v7c0,0.6,0,1.3,0,1.7h-1.3l-0.1-0.9h0c-0.4,0.7-1.1,1.1-1.9,1.1c-1.4,0-2.5-1.2-2.5-3
		c0-2,1.2-3.2,2.7-3.2c0.8,0,1.4,0.3,1.7,0.8h0v-3.4H21.7z M20.2,44.7c0-0.1,0-0.3,0-0.4c-0.1-0.6-0.6-1.1-1.3-1.1
		c-1,0-1.5,0.9-1.5,2c0,1.1,0.5,1.9,1.5,1.9c0.6,0,1.1-0.4,1.3-1.1c0-0.1,0-0.3,0-0.4V44.7z"/>
	<path class="st0" d="M24.6,45.7c0,1.1,0.9,1.5,1.8,1.5c0.7,0,1.2-0.1,1.6-0.3l0.2,1c-0.5,0.2-1.2,0.4-2.1,0.4c-1.9,0-3.1-1.2-3.1-3
		c0-1.6,1-3.2,2.9-3.2c1.9,0,2.6,1.6,2.6,2.9c0,0.3,0,0.5,0,0.6H24.6z M27.2,44.6c0-0.5-0.2-1.5-1.2-1.5c-0.9,0-1.3,0.8-1.4,1.5
		H27.2z"/>
	<path class="st0" d="M30,44c0-0.7,0-1.3,0-1.8h1.3l0.1,0.9h0c0.3-0.5,0.9-1,1.9-1c1,0,2.1,0.7,2.1,2.5v3.5h-1.5v-3.4
		c0-0.9-0.3-1.5-1.1-1.5c-0.6,0-1,0.4-1.2,0.9c0,0.1-0.1,0.3-0.1,0.5v3.5H30V44z"/>
	<path class="st0" d="M38.8,40.6v1.7h1.4v1.1h-1.4V46c0,0.7,0.2,1.1,0.8,1.1c0.3,0,0.5,0,0.6-0.1l0,1.1c-0.2,0.1-0.6,0.1-1.1,0.1
		c-0.5,0-1-0.2-1.3-0.5c-0.3-0.3-0.5-0.9-0.5-1.7v-2.8h-0.9v-1.1h0.9v-1.3L38.8,40.6z"/>
	<path class="st0" d="M43.2,40.6c0,0.5-0.3,0.8-0.9,0.8c-0.5,0-0.8-0.4-0.8-0.8c0-0.5,0.3-0.8,0.8-0.8
		C42.9,39.8,43.2,40.1,43.2,40.6z M41.6,48.2v-5.9h1.5v5.9H41.6z"/>
	<path class="st0" d="M45,48.2v-4.8h-0.8v-1.1H45V42c0-1.6,1.1-2.6,2.9-2.6c0.6,0,1.3,0.2,1.6,0.4l-0.3,1.1
		c-0.3-0.2-0.7-0.3-1.3-0.3c-1,0-1.4,0.6-1.4,1.4v0.2h3.5v5.9h-1.5v-4.8h-2v4.8H45z"/>
	<path class="st0" d="M56.2,48c-0.3,0.1-0.9,0.3-1.7,0.3c-1.9,0-3.1-1.2-3.1-3c0-1.8,1.2-3.2,3.3-3.2c0.5,0,1.1,0.1,1.5,0.3L56,43.5
		c-0.2-0.1-0.6-0.2-1.1-0.2c-1.1,0-1.8,0.8-1.8,1.9c0,1.2,0.8,1.9,1.8,1.9c0.5,0,0.9-0.1,1.2-0.2L56.2,48z"/>
	<path class="st0" d="M60.9,48.2l-0.1-0.7h0c-0.4,0.5-1,0.8-1.8,0.8c-1.2,0-1.9-0.9-1.9-1.8c0-1.5,1.3-2.3,3.5-2.2v-0.1
		c0-0.4-0.2-1-1.2-1c-0.6,0-1.2,0.2-1.6,0.4l-0.3-1c0.4-0.3,1.2-0.5,2.1-0.5c1.9,0,2.5,1.2,2.5,2.5v2.1c0,0.5,0,1.1,0.1,1.4H60.9z
		 M60.7,45.3c-1.1,0-2.1,0.2-2.1,1.1c0,0.6,0.4,0.9,0.9,0.9c0.6,0,1-0.4,1.2-0.8c0-0.1,0-0.2,0-0.3V45.3z"/>
	<path class="st0" d="M68.2,48c-0.3,0.1-0.9,0.3-1.7,0.3c-1.9,0-3.1-1.2-3.1-3c0-1.8,1.2-3.2,3.3-3.2c0.5,0,1.1,0.1,1.5,0.3L68,43.5
		c-0.2-0.1-0.6-0.2-1.1-0.2c-1.1,0-1.8,0.8-1.8,1.9c0,1.2,0.8,1.9,1.8,1.9c0.5,0,0.9-0.1,1.2-0.2L68.2,48z"/>
	<path class="st0" d="M71.1,40.6c0,0.5-0.3,0.8-0.9,0.8c-0.5,0-0.8-0.4-0.8-0.8c0-0.5,0.3-0.8,0.8-0.8
		C70.8,39.8,71.1,40.1,71.1,40.6z M69.5,48.2v-5.9H71v5.9H69.5z"/>
	<path class="st0" d="M78.5,45.2c0,2.2-1.5,3.2-3,3.2c-1.7,0-3-1.2-3-3.1c0-2,1.3-3.1,3.1-3.1C77.3,42.1,78.5,43.4,78.5,45.2z
		 M74,45.2c0,1.1,0.6,2,1.5,2c0.9,0,1.5-0.8,1.5-2c0-0.9-0.4-2-1.4-2C74.4,43.2,74,44.3,74,45.2z M77.2,39.7l-1.5,1.8h-1l1.1-1.8
		H77.2z"/>
	<path class="st0" d="M79.9,44c0-0.7,0-1.3,0-1.8h1.3l0.1,0.9h0c0.3-0.5,0.9-1,1.9-1c1,0,2.1,0.7,2.1,2.5v3.5h-1.5v-3.4
		c0-0.9-0.3-1.5-1.1-1.5c-0.6,0-1,0.4-1.2,0.9c0,0.1-0.1,0.3-0.1,0.5v3.5h-1.5V44z"/>
	<path class="st0" d="M2.3,59.7v1.7h1.4v1.1H2.3v2.6c0,0.7,0.2,1.1,0.8,1.1c0.3,0,0.5,0,0.6-0.1l0,1.1c-0.2,0.1-0.6,0.1-1.1,0.1
		c-0.5,0-1-0.2-1.3-0.5c-0.3-0.3-0.5-0.9-0.5-1.7v-2.8H0v-1.1h0.9v-1.3L2.3,59.7z"/>
	<path class="st0" d="M6.1,64.8c0,1.1,0.9,1.5,1.8,1.5c0.7,0,1.2-0.1,1.6-0.3l0.2,1c-0.5,0.2-1.2,0.4-2.1,0.4c-1.9,0-3.1-1.2-3.1-3
		c0-1.6,1-3.2,2.9-3.2c1.9,0,2.6,1.6,2.6,2.9c0,0.3,0,0.5,0,0.6H6.1z M8.7,63.8c0-0.5-0.2-1.5-1.2-1.5c-0.9,0-1.3,0.8-1.4,1.5H8.7z"
		/>
	<path class="st0" d="M11.5,63.2c0-0.7,0-1.3,0-1.8h1.3l0.1,0.9h0c0.3-0.5,0.8-1,1.8-1c0.8,0,1.4,0.4,1.6,1.1h0
		c0.2-0.3,0.5-0.6,0.7-0.7c0.3-0.2,0.7-0.4,1.2-0.4c1,0,2,0.7,2,2.6v3.5h-1.5v-3.3c0-1-0.3-1.6-1.1-1.6c-0.5,0-0.9,0.4-1,0.8
		c0,0.1-0.1,0.3-0.1,0.5v3.6h-1.5v-3.4c0-0.8-0.3-1.4-1-1.4c-0.6,0-0.9,0.4-1.1,0.9C13,63.5,13,63.7,13,63.8v3.5h-1.5V63.2z"/>
	<path class="st0" d="M22,63.4c0-0.8,0-1.4,0-2h1.3l0.1,0.9h0c0.4-0.7,1.1-1,2-1c1.4,0,2.5,1.2,2.5,3c0,2.1-1.4,3.2-2.7,3.2
		c-0.7,0-1.4-0.3-1.7-0.8h0v3.1H22V63.4z M23.5,64.9c0,0.1,0,0.3,0,0.4c0.1,0.6,0.7,1,1.3,1c1,0,1.5-0.8,1.5-2c0-1-0.5-1.9-1.5-1.9
		c-0.6,0-1.2,0.5-1.3,1.1c0,0.1-0.1,0.3-0.1,0.4V64.9z"/>
	<path class="st0" d="M29.3,63.3c0-0.8,0-1.4,0-1.9h1.3l0,1.1h0c0.3-0.8,1-1.3,1.6-1.3c0.1,0,0.2,0,0.4,0v1.4c-0.1,0-0.3,0-0.4,0
		c-0.7,0-1.2,0.5-1.3,1.1c0,0.1,0,0.3,0,0.5v3.1h-1.5V63.3z"/>
	<path class="st0" d="M37.2,67.4l-0.1-0.7h0c-0.4,0.5-1,0.8-1.8,0.8c-1.2,0-1.9-0.9-1.9-1.8c0-1.5,1.3-2.3,3.5-2.2v-0.1
		c0-0.4-0.2-1-1.2-1c-0.6,0-1.2,0.2-1.6,0.4l-0.3-1c0.4-0.3,1.2-0.5,2.1-0.5c1.9,0,2.5,1.2,2.5,2.5v2.1c0,0.5,0,1.1,0.1,1.4H37.2z
		 M37,64.5c-1.1,0-2.1,0.2-2.1,1.1c0,0.6,0.4,0.9,0.9,0.9c0.6,0,1-0.4,1.2-0.8c0-0.1,0-0.2,0-0.3V64.5z"/>
	<path class="st0" d="M40.2,63.2c0-0.7,0-1.3,0-1.8h1.3l0.1,0.9h0c0.3-0.5,0.9-1,1.9-1c1,0,2.1,0.7,2.1,2.5v3.5h-1.5V64
		c0-0.9-0.3-1.5-1.1-1.5c-0.6,0-1,0.4-1.2,0.9c0,0.1-0.1,0.3-0.1,0.5v3.5h-1.5V63.2z"/>
	<path class="st0" d="M50.7,67.4l-0.1-0.7h0c-0.4,0.5-1,0.8-1.8,0.8c-1.2,0-1.9-0.9-1.9-1.8c0-1.5,1.3-2.3,3.5-2.2v-0.1
		c0-0.4-0.2-1-1.2-1c-0.6,0-1.2,0.2-1.6,0.4l-0.3-1c0.4-0.3,1.2-0.5,2.1-0.5c1.9,0,2.5,1.2,2.5,2.5v2.1c0,0.5,0,1.1,0.1,1.4H50.7z
		 M50.5,64.5c-1.1,0-2.1,0.2-2.1,1.1c0,0.6,0.4,0.9,0.9,0.9c0.6,0,1-0.4,1.2-0.8c0-0.1,0-0.2,0-0.3V64.5z"/>
	<path class="st0" d="M57.5,64.8c0,1.1,0.9,1.5,1.8,1.5c0.7,0,1.2-0.1,1.6-0.3l0.2,1c-0.5,0.2-1.2,0.4-2.1,0.4c-1.9,0-3.1-1.2-3.1-3
		c0-1.6,1-3.2,2.9-3.2c1.9,0,2.6,1.6,2.6,2.9c0,0.3,0,0.5,0,0.6H57.5z M60.2,63.8c0-0.5-0.2-1.5-1.2-1.5c-0.9,0-1.3,0.8-1.4,1.5
		H60.2z"/>
	<path class="st0" d="M63,63.2c0-0.7,0-1.3,0-1.8h1.3l0.1,0.9h0c0.3-0.5,0.9-1,1.9-1c1,0,2.1,0.7,2.1,2.5v3.5h-1.5V64
		c0-0.9-0.3-1.5-1.1-1.5c-0.6,0-1,0.4-1.2,0.9c0,0.1-0.1,0.3-0.1,0.5v3.5H63V63.2z"/>
	<path class="st0" d="M72.8,58.7h1.5v8.7h-1.5V58.7z"/>
	<path class="st0" d="M79.4,67.4l-0.1-0.7h0c-0.4,0.5-1,0.8-1.8,0.8c-1.2,0-1.9-0.9-1.9-1.8c0-1.5,1.3-2.3,3.5-2.2v-0.1
		c0-0.4-0.2-1-1.2-1c-0.6,0-1.2,0.2-1.6,0.4l-0.3-1c0.4-0.3,1.2-0.5,2.1-0.5c1.9,0,2.5,1.2,2.5,2.5v2.1c0,0.5,0,1.1,0.1,1.4H79.4z
		 M79.2,64.5c-1.1,0-2.1,0.2-2.1,1.1c0,0.6,0.4,0.9,0.9,0.9c0.6,0,1-0.4,1.2-0.8c0-0.1,0-0.2,0-0.3V64.5z"/>
	<path class="st0" d="M0.6,82.6c0-0.8,0-1.4,0-2h1.3l0.1,0.9h0c0.4-0.7,1.1-1,2-1c1.4,0,2.5,1.2,2.5,3c0,2.1-1.4,3.2-2.7,3.2
		c-0.7,0-1.4-0.3-1.7-0.8h0v3.1H0.6V82.6z M2.1,84c0,0.1,0,0.3,0,0.4c0.1,0.6,0.7,1,1.3,1c1,0,1.5-0.8,1.5-2c0-1-0.5-1.9-1.5-1.9
		c-0.6,0-1.2,0.5-1.3,1.1c0,0.1-0.1,0.3-0.1,0.4V84z"/>
	<path class="st0" d="M13.5,83.5c0,2.2-1.5,3.2-3,3.2c-1.7,0-3-1.2-3-3.1c0-2,1.3-3.1,3.1-3.1C12.4,80.4,13.5,81.7,13.5,83.5z
		 M9.1,83.6c0,1.1,0.6,2,1.5,2c0.9,0,1.5-0.8,1.5-2c0-0.9-0.4-2-1.4-2C9.5,81.5,9.1,82.6,9.1,83.6z"/>
	<path class="st0" d="M14.9,86.5c0-0.4,0-1.1,0-1.7v-7h1.5v3.5h0c0.4-0.6,1-1,1.9-1c1.5,0,2.5,1.2,2.5,3c0,2.1-1.4,3.2-2.7,3.2
		c-0.8,0-1.5-0.3-1.9-1h0l-0.1,0.9H14.9z M16.5,84.1c0,0.1,0,0.2,0,0.4c0.2,0.6,0.7,1,1.3,1c0.9,0,1.5-0.8,1.5-2
		c0-1-0.5-1.9-1.5-1.9c-0.6,0-1.2,0.4-1.3,1.1c0,0.1,0,0.2,0,0.4V84.1z"/>
	<path class="st0" d="M22.3,77.9h1.5v8.7h-1.5V77.9z"/>
	<path class="st0" d="M28.9,86.5l-0.1-0.7h0c-0.4,0.5-1,0.8-1.8,0.8c-1.2,0-1.9-0.9-1.9-1.8c0-1.5,1.3-2.3,3.5-2.2v-0.1
		c0-0.4-0.2-1-1.2-1c-0.6,0-1.2,0.2-1.6,0.4l-0.3-1c0.4-0.3,1.2-0.5,2.1-0.5c1.9,0,2.5,1.2,2.5,2.5v2.1c0,0.5,0,1.1,0.1,1.4H28.9z
		 M28.7,83.6c-1.1,0-2.1,0.2-2.1,1.1c0,0.6,0.4,0.9,0.9,0.9c0.6,0,1-0.4,1.2-0.8c0-0.1,0-0.2,0-0.3V83.6z"/>
	<path class="st0" d="M36.3,86.3c-0.3,0.1-0.9,0.3-1.7,0.3c-1.9,0-3.1-1.2-3.1-3c0-1.8,1.2-3.2,3.3-3.2c0.5,0,1.1,0.1,1.5,0.3
		L36,81.9c-0.2-0.1-0.6-0.2-1.1-0.2c-1.1,0-1.8,0.8-1.8,1.9c0,1.2,0.8,1.9,1.8,1.9c0.5,0,0.9-0.1,1.2-0.2L36.3,86.3z"/>
	<path class="st0" d="M39.2,78.9c0,0.5-0.3,0.8-0.9,0.8c-0.5,0-0.8-0.4-0.8-0.8c0-0.5,0.3-0.8,0.8-0.8
		C38.9,78.1,39.2,78.5,39.2,78.9z M37.6,86.5v-5.9h1.5v5.9H37.6z"/>
	<path class="st0" d="M46.5,83.5c0,2.2-1.5,3.2-3,3.2c-1.7,0-3-1.2-3-3.1c0-2,1.3-3.1,3.1-3.1C45.3,80.4,46.5,81.7,46.5,83.5z
		 M42,83.6c0,1.1,0.6,2,1.5,2c0.9,0,1.5-0.8,1.5-2c0-0.9-0.4-2-1.4-2C42.5,81.5,42,82.6,42,83.6z M45.3,78l-1.5,1.8h-1l1.1-1.8H45.3
		z"/>
	<path class="st0" d="M47.9,82.4c0-0.7,0-1.3,0-1.8h1.3l0.1,0.9h0c0.3-0.5,0.9-1,1.9-1c1,0,2.1,0.7,2.1,2.5v3.5h-1.5v-3.4
		c0-0.9-0.3-1.5-1.1-1.5c-0.6,0-1,0.4-1.2,0.9c0,0.1-0.1,0.3-0.1,0.5v3.5h-1.5V82.4z"/>
	<path class="st0" d="M55.9,78.4L55.9,78.4l-0.8,0.4L55,78.4l1-0.5h0.5v4.6h-0.6V78.4z"/>
</g>
</svg>
