<!-- Generator: Adobe Illustrator 20.1.0, SVG Export Plug-In  -->
<svg version="1.1"
	 xmlns="http://www.w3.org/2000/svg" xmlns:xlink="http://www.w3.org/1999/xlink" xmlns:a="http://ns.adobe.com/AdobeSVGViewerExtensions/3.0/"
	 x="0px" y="0px" width="9.1px" height="98.5px" viewBox="0 0 9.1 98.5"
	 style="overflow:scroll;enable-background:new 0 0 9.1 98.5;" xml:space="preserve">
<style type="text/css">
	.st0{fill:#5A2D81;}
</style>
<defs>
</defs>
<g>
	<g>
		<path class="st0" d="M0.4,98.5c-0.1-0.5-0.1-1.1-0.1-2.1c0-0.9,0.2-1.6,0.5-2.1c0.3-0.4,0.9-0.7,1.6-0.7s1.2,0.2,1.6,0.6
			c0.5,0.5,0.7,1.3,0.7,2.2c0,0.2,0,0.4,0,0.5H7v1.5H0.4z M3.4,97c0-0.1,0-0.3,0-0.5c0-0.8-0.4-1.3-1.1-1.3c-0.6,0-1,0.4-1,1.2
			c0,0.3,0,0.5,0.1,0.6H3.4z"/>
		<path class="st0" d="M5.4,88.2c0.6,0,1.2,0,1.6,0v1.3l-0.7,0.1v0c0.3,0.2,0.8,0.6,0.8,1.5c0,1-0.6,1.7-2.1,1.7H2.1v-1.5h2.6
			c0.7,0,1.1-0.2,1.1-0.8c0-0.4-0.3-0.7-0.5-0.8c-0.1,0-0.2,0-0.3,0H2.1v-1.5H5.4z"/>
		<path class="st0" d="M3.7,87c-0.6,0-1.1,0-1.6,0v-1.3l0.7-0.1v0C2.5,85.4,2,84.9,2,84.1c0-1,0.7-1.7,2.1-1.7H7v1.5H4.3
			c-0.6,0-1.1,0.2-1.1,0.8c0,0.4,0.3,0.7,0.6,0.8c0.1,0,0.2,0.1,0.4,0.1H7V87H3.7z"/>
		<path class="st0" d="M0.7,79.5h1.4v-1.1h1.1v1.1H5c0.6,0,0.9-0.1,0.9-0.6c0-0.2,0-0.3,0-0.5l1.1,0c0.1,0.2,0.1,0.6,0.1,1
			c0,0.5-0.2,0.9-0.4,1.1C6.4,80.9,5.9,81,5.2,81h-2v0.6H2.1V81H1.1L0.7,79.5z"/>
		<path class="st0" d="M7,74.8l-0.5,0.1v0c0.4,0.3,0.6,0.8,0.6,1.4c0,1-0.7,1.6-1.5,1.6c-1.3,0-1.9-1.1-1.9-2.9H3.7
			c-0.3,0-0.6,0.1-0.6,0.9c0,0.5,0.2,1,0.4,1.3l-1,0.3c-0.2-0.3-0.4-1-0.4-1.9c0-1.6,1-2.1,2.1-2.1h1.7c0.5,0,0.9,0,1.2-0.1V74.8z
			 M4.7,74.9c0,0.8,0.2,1.4,0.8,1.4c0.4,0,0.6-0.3,0.6-0.6c0-0.4-0.3-0.7-0.6-0.8c-0.1,0-0.2,0-0.3,0H4.7z"/>
		<path class="st0" d="M0.8,70.5c0.4,0,0.8,0.3,0.8,0.8c0,0.5-0.3,0.8-0.8,0.8c-0.4,0-0.8-0.3-0.8-0.8C0,70.8,0.3,70.5,0.8,70.5z
			 M7.9,73.3c0-0.4-0.1-0.7-0.3-0.9C7.4,72.2,7,72.1,6,72.1H2.1v-1.5h4.2c1.1,0,1.7,0.2,2.1,0.7c0.4,0.4,0.6,1.2,0.6,1.9L7.9,73.3z"
			/>
		<path class="st0" d="M5.1,68.2c0.6,0,0.9-0.7,0.9-1.4c0-0.5-0.1-0.9-0.2-1.3l1-0.2C7,65.8,7.1,66.4,7.1,67c0,1.7-1,2.6-2.5,2.6
			c-1.2,0-2.6-0.8-2.6-2.5C2,65.6,3.2,65,4.5,65c0.3,0,0.5,0,0.6,0V68.2z M4,66.4c-0.4,0-1,0.2-1,0.9c0,0.6,0.6,0.9,1,0.9V66.4z"/>
		<path class="st0" d="M4.4,56.3c-0.8,0-1.8,0.1-2.8,0.1v0c0.9,0.2,1.8,0.5,2.6,0.8L6.9,58v1.2l-2.6,0.7c-0.8,0.2-1.7,0.4-2.6,0.6v0
			c0.9,0,1.9,0.1,2.8,0.1L7,60.7v1.4l-6.7-0.4v-2L2.5,59c0.8-0.2,1.6-0.4,2.4-0.6v0c-0.8-0.2-1.7-0.4-2.4-0.6l-2.2-0.7v-2L7,54.7
			v1.5L4.4,56.3z"/>
		<path class="st0" d="M4.2,49.5V52h1.6v-2.8H7v4.3H0.3v-4.2h1.2V52h1.4v-2.5H4.2z"/>
		<path class="st0" d="M6.8,43.3C7,43.5,7.1,44.2,7.1,45c0,2.3-1.4,3.5-3.4,3.5c-2.3,0-3.6-1.6-3.6-3.7c0-0.8,0.2-1.4,0.3-1.7
			l1.2,0.3c-0.1,0.3-0.3,0.7-0.3,1.3c0,1.2,0.7,2.1,2.2,2.1c1.3,0,2.2-0.8,2.2-2.2c0-0.5-0.1-1-0.2-1.3L6.8,43.3z"/>
		<path class="st0" d="M0.7,39.2l1.3,1.1l0,0l-0.3-1.6h1l-0.3,1.6l0,0l1.2-1.1l0.5,0.9l-1.5,0.6l0,0l1.5,0.6l-0.5,0.9L2.4,41h0
			l0.3,1.6h-1L2,41.1l0,0l-1.3,1.1l-0.5-0.9l1.5-0.6v0l-1.5-0.6L0.7,39.2z"/>
		<path class="st0" d="M3.8,35.7c-0.6,0-1.2,0-1.6,0v-1.3l0.7-0.1v0C2.3,34,2,33.5,2,32.7c0-1.1,0.9-2,2.5-2c1.8,0,2.6,1.1,2.6,2.2
			c0,0.6-0.2,1-0.6,1.3v0H9v1.5H3.8z M4.9,34.2c0.1,0,0.2,0,0.3,0C5.6,34.1,6,33.7,6,33.3c0-0.7-0.5-1-1.4-1c-0.8,0-1.4,0.3-1.4,1
			c0,0.4,0.3,0.8,0.8,0.9c0.1,0,0.2,0,0.3,0H4.9z"/>
		<path class="st0" d="M3.7,29.8c-0.7,0-1.2,0-1.6,0v-1.3l0.9,0v0c-0.7-0.3-1-0.8-1-1.3c0-0.1,0-0.2,0-0.3h1.4c0,0.1,0,0.2,0,0.4
			c0,0.6,0.3,0.9,0.8,1c0.1,0,0.2,0,0.3,0H7v1.5H3.7z"/>
		<path class="st0" d="M5.1,24.9c0.6,0,0.9-0.7,0.9-1.4c0-0.5-0.1-0.9-0.2-1.3l1-0.2c0.2,0.5,0.3,1.1,0.3,1.8c0,1.7-1,2.6-2.5,2.6
			c-1.2,0-2.6-0.8-2.6-2.5c0-1.6,1.2-2.2,2.4-2.2c0.3,0,0.5,0,0.6,0V24.9z M4,23.1c-0.4,0-1,0.2-1,0.9c0,0.6,0.6,0.9,1,0.9V23.1z"/>
		<path class="st0" d="M2.1,19.7L4.4,19c0.4-0.1,0.8-0.2,1.2-0.3v0c-0.4-0.1-0.8-0.2-1.2-0.3l-2.3-0.6v-1.6L7,18v1.5l-4.9,1.8V19.7z
			"/>
		<path class="st0" d="M0.8,14c0.4,0,0.8,0.3,0.8,0.8c0,0.5-0.3,0.8-0.8,0.8c-0.4,0-0.8-0.3-0.8-0.8C0,14.3,0.3,14,0.8,14z M7,15.5
			H2.1V14H7V15.5z"/>
		<path class="st0" d="M5.7,12.8c0.2-0.3,0.4-0.9,0.4-1.3c0-0.5-0.2-0.6-0.4-0.6S5.3,11,5.1,11.6c-0.3,1-0.9,1.4-1.5,1.4
			c-0.9,0-1.6-0.8-1.6-2c0-0.6,0.1-1.1,0.3-1.4l1,0.3c-0.1,0.2-0.3,0.6-0.3,1.1c0,0.4,0.1,0.6,0.4,0.6c0.2,0,0.3-0.2,0.6-0.8
			c0.3-0.9,0.8-1.3,1.5-1.3c0.9,0,1.6,0.7,1.6,2.1c0,0.6-0.1,1.2-0.3,1.6L5.7,12.8z"/>
		<path class="st0" d="M0.7,6.7h1.4V5.7h1.1v1.1H5c0.6,0,0.9-0.1,0.9-0.6c0-0.2,0-0.3,0-0.5l1.1,0c0.1,0.2,0.1,0.6,0.1,1
			c0,0.5-0.2,0.9-0.4,1.1C6.4,8.1,5.9,8.2,5.2,8.2h-2v0.6H2.1V8.2H1.1L0.7,6.7z"/>
		<path class="st0" d="M4.5,0c1.8,0,2.6,1.3,2.6,2.6c0,1.4-0.9,2.5-2.5,2.5S2,4.1,2,2.5C2,1,3,0,4.5,0z M4.6,3.5
			c0.8,0,1.5-0.3,1.5-1c0-0.6-0.6-1-1.5-1c-0.7,0-1.5,0.3-1.5,1C3.1,3.3,3.8,3.5,4.6,3.5z"/>
	</g>
</g>
</svg>
