<!-- Generator: Adobe Illustrator 20.1.0, SVG Export Plug-In  -->
<svg version="1.1"
	 xmlns="http://www.w3.org/2000/svg" xmlns:xlink="http://www.w3.org/1999/xlink" xmlns:a="http://ns.adobe.com/AdobeSVGViewerExtensions/3.0/"
	 x="0px" y="0px" width="469.3px" height="72.8px" viewBox="0 0 469.3 72.8"
	 style="overflow:scroll;enable-background:new 0 0 469.3 72.8;" xml:space="preserve">
<style type="text/css">
	.st0{fill:#FFFFFF;}
</style>
<defs>
</defs>
<g>
	<g>
		<g>
			<path class="st0" d="M0,1.4h6.5v18.6h9.2v5.4H0V1.4z"/>
			<path class="st0" d="M34.4,21.2c0,1.7,0.1,3.4,0.3,4.3h-5.8l-0.3-1.5h-0.1c-1.2,1.4-3,1.9-4.8,1.9c-3.6,0-5.8-2.6-5.8-5.5
				c0-4.7,4.2-6.8,10.2-6.8v-0.1c0-0.7-0.5-1.5-2.9-1.5c-1.9,0-3.8,0.6-5,1.3l-1.1-4c1.1-0.6,3.6-1.6,7.3-1.6c6,0,8.1,3.3,8.1,7.7
				V21.2z M28.2,17.4c-2.6,0-4.1,0.7-4.1,2.3c0,1.1,0.7,1.7,1.8,1.7c0.9,0,1.9-0.6,2.2-1.6c0.1-0.3,0.1-0.6,0.1-0.9V17.4z"/>
			<path class="st0" d="M61,21.2c0,1.7,0.1,3.4,0.3,4.3h-5.8l-0.3-1.5H55c-1.2,1.4-3,1.9-4.8,1.9c-3.6,0-5.8-2.6-5.8-5.5
				c0-4.7,4.2-6.8,10.2-6.8v-0.1c0-0.7-0.5-1.5-2.9-1.5c-1.9,0-3.8,0.6-5,1.3l-1.1-4c1.1-0.6,3.6-1.6,7.3-1.6c6,0,8.1,3.3,8.1,7.7
				V21.2z M54.7,17.4c-2.6,0-4.1,0.7-4.1,2.3c0,1.1,0.7,1.7,1.8,1.7c0.9,0,1.9-0.6,2.2-1.6c0.1-0.3,0.1-0.6,0.1-0.9V17.4z"/>
			<path class="st0" d="M64.9,13.9c0-2.4-0.1-4.4-0.1-6h5.6l0.3,2.2h0.1c0.6-0.9,2.4-2.6,5.3-2.6c4.1,0,6.3,2.8,6.3,7.6v10.3h-6.5
				v-9.6c0-2-0.7-3.2-2.2-3.2c-1.2,0-1.8,0.9-2.1,1.5c-0.1,0.3-0.2,0.8-0.2,1.3v9.9h-6.5V13.9z"/>
			<path class="st0" d="M86.4,20c1,0.6,3.3,1.3,4.8,1.3c1.4,0,1.9-0.3,1.9-1c0-0.6-0.4-0.9-2.3-1.5c-3.9-1.2-5.2-3.3-5.2-5.3
				c0-3.5,3-6,7.6-6c2.1,0,4.1,0.5,5.2,1l-1,4.3c-0.8-0.4-2.5-1-3.9-1c-1.1,0-1.7,0.3-1.7,1c0,0.6,0.6,0.9,2.6,1.6
				c3.5,1.1,4.8,2.9,4.8,5.4c0,3.4-2.6,5.9-8,5.9c-2.5,0-4.6-0.5-6-1.2L86.4,20z"/>
			<path class="st0" d="M105.5,6.1c-2,0-3.2-1.4-3.2-3c0-1.8,1.3-3.1,3.3-3.1c2,0,3.2,1.3,3.3,3.1C108.8,4.7,107.6,6.1,105.5,6.1
				L105.5,6.1z M102.3,25.5V7.9h6.5v17.5H102.3z"/>
			<path class="st0" d="M118,18.9c0.2,1.4,2.2,2.2,4.5,2.2c1.6,0,3.2-0.2,4.8-0.7l0.8,4.3c-2.1,0.8-4.4,1.1-6.6,1.1
				c-6.2,0-9.7-3.4-9.7-8.9c0-4.1,2.6-9.3,9.1-9.3c5.7,0,8.1,4.2,8.1,9c0,1-0.1,2-0.2,2.4H118z M123.1,14.6c0-1-0.5-2.9-2.5-2.9
				c-1.9,0-2.6,1.7-2.7,2.9H123.1z"/>
			<path class="st0" d="M149.7,0.1v19.8c0,2.2,0.1,4.4,0.1,5.5h-5.7l-0.3-2.4h-0.1c-1.1,2-3.3,2.7-5.3,2.7c-4.1,0-7.5-3.5-7.5-9
				c0-5.9,3.7-9.3,7.8-9.3c1.9,0,3.5,0.6,4.3,1.7h0.1V0.1H149.7z M143.3,15.5c0-0.2,0-0.6,0-0.8c-0.3-1.2-1.2-2.2-2.5-2.2
				c-2.1,0-3.1,1.9-3.1,4.2c0,2.7,1.3,4.1,3.1,4.1c1.3,0,2.3-0.9,2.5-2.1c0.1-0.4,0.1-0.7,0.1-1.2V15.5z"/>
			<path class="st0" d="M169.3,21.2c0,1.7,0.1,3.4,0.3,4.3h-5.8l-0.3-1.5h-0.1c-1.2,1.4-3,1.9-4.8,1.9c-3.6,0-5.8-2.6-5.8-5.5
				c0-4.7,4.2-6.8,10.2-6.8v-0.1c0-0.7-0.5-1.5-2.9-1.5c-1.9,0-3.8,0.6-5,1.3l-1.1-4c1.1-0.6,3.6-1.6,7.3-1.6c6,0,8.1,3.3,8.1,7.7
				V21.2z M163.1,17.4c-2.6,0-4.1,0.7-4.1,2.3c0,1.1,0.7,1.7,1.8,1.7c0.9,0,1.9-0.6,2.2-1.6c0.1-0.3,0.1-0.6,0.1-0.9V17.4z"/>
			<path class="st0" d="M191,0.1v19.8c0,2.2,0.1,4.4,0.1,5.5h-5.7l-0.2-2.4h-0.1c-1.1,2-3.3,2.7-5.3,2.7c-4.1,0-7.4-3.5-7.4-9
				c0-5.9,3.7-9.3,7.8-9.3c1.9,0,3.5,0.6,4.3,1.7h0.1V0.1H191z M184.5,15.5c0-0.2,0-0.6,0-0.8c-0.2-1.2-1.2-2.2-2.5-2.2
				c-2.1,0-3.1,1.9-3.1,4.2c0,2.7,1.3,4.1,3.1,4.1c1.3,0,2.3-0.9,2.5-2.1c0.1-0.4,0.1-0.7,0.1-1.2V15.5z"/>
		</g>
		<g>
			<path class="st0" d="M52.7,54.2c0-2.2,0-4-0.1-5.6h2.8l0.2,3h0.1c1.2-2.1,3.3-3.3,6.1-3.3c4.2,0,7.3,3.5,7.3,8.8
				c0,6.2-3.8,9.3-7.8,9.3c-2.3,0-4.3-1-5.3-2.7h-0.1v9.4h-3.1V54.2z M55.8,58.8c0,0.4,0,0.9,0.1,1.3c0.5,2.2,2.5,3.7,4.7,3.7
				c3.3,0,5.2-2.7,5.2-6.7c0-3.5-1.8-6.4-5.1-6.4c-2.1,0-4.2,1.5-4.8,3.9c-0.1,0.4-0.2,0.9-0.2,1.2V58.8z"/>
			<path class="st0" d="M87.4,61c0,1.8,0,3.4,0.1,4.7h-2.8L84.6,63h-0.1c-0.8,1.4-2.6,3.2-5.7,3.2c-2.7,0-6-1.5-6-7.6V48.5H76V58
				c0,3.3,1,5.5,3.8,5.5c2.1,0,3.6-1.5,4.1-2.9c0.2-0.4,0.3-1,0.3-1.6V48.5h3.1V61z"/>
			<path class="st0" d="M94.4,57.7c0.1,4.2,2.7,6,5.9,6c2.2,0,3.6-0.4,4.8-0.9l0.6,2.2c-1.1,0.5-3,1.1-5.8,1.1
				c-5.3,0-8.5-3.5-8.5-8.7c0-5.2,3.1-9.3,8.1-9.3c5.6,0,7.1,5,7.1,8.1c0,0.6,0,1.1-0.1,1.5H94.4z M103.5,55.5c0-2-0.8-5.1-4.3-5.1
				c-3.2,0-4.6,2.9-4.8,5.1H103.5z"/>
			<path class="st0" d="M125.3,40.5v20.9c0,1.5,0,3.3,0.1,4.5h-2.8l-0.1-3h-0.1c-1,1.9-3,3.4-5.8,3.4c-4.2,0-7.4-3.5-7.4-8.8
				c0-5.8,3.6-9.3,7.7-9.3c2.7,0,4.5,1.2,5.2,2.6h0.1V40.5H125.3z M122.2,55.6c0-0.4,0-0.9-0.1-1.4c-0.5-2-2.2-3.6-4.5-3.6
				c-3.2,0-5.2,2.9-5.2,6.6c0,3.5,1.7,6.4,5.1,6.4c2.1,0,4-1.4,4.6-3.8c0.1-0.4,0.1-0.8,0.1-1.3V55.6z"/>
			<path class="st0" d="M132.3,57.7c0.1,4.2,2.7,6,5.9,6c2.2,0,3.6-0.4,4.8-0.9l0.6,2.2c-1.1,0.5-3,1.1-5.8,1.1
				c-5.3,0-8.5-3.5-8.5-8.7c0-5.2,3.1-9.3,8.1-9.3c5.6,0,7.1,5,7.1,8.1c0,0.6,0,1.1-0.1,1.5H132.3z M141.5,55.5c0-2-0.8-5.1-4.3-5.1
				c-3.2,0-4.6,2.9-4.8,5.1H141.5z"/>
			<path class="st0" d="M167.7,63.1L167.7,63.1c-1,1.7-2.9,3-5.7,3c-4,0-7.3-3.5-7.3-8.7c0-6.5,4.2-9.3,7.8-9.3c2.7,0,4.5,1.3,5.3,3
				h0.1l0.1-2.6h3c-0.1,1.4-0.1,3-0.1,4.7v19.6h-3.1V63.1z M167.7,55.5c0-0.5,0-0.9-0.1-1.3c-0.5-1.9-2.1-3.6-4.5-3.6
				c-3.2,0-5.2,2.7-5.2,6.6c0,3.5,1.6,6.4,5.1,6.4c2,0,3.8-1.3,4.5-3.4c0.1-0.4,0.2-1,0.2-1.5V55.5z"/>
			<path class="st0" d="M190.5,61c0,1.8,0,3.4,0.1,4.7h-2.8l-0.2-2.8h-0.1c-0.8,1.4-2.6,3.2-5.7,3.2c-2.7,0-6-1.5-6-7.6V48.5h3.1V58
				c0,3.3,1,5.5,3.9,5.5c2.1,0,3.6-1.5,4.1-2.9c0.2-0.4,0.3-1,0.3-1.6V48.5h3.1V61z"/>
			<path class="st0" d="M197.4,57.7c0.1,4.2,2.7,6,5.9,6c2.2,0,3.6-0.4,4.8-0.9l0.6,2.2c-1.1,0.5-3,1.1-5.8,1.1
				c-5.3,0-8.5-3.5-8.5-8.7c0-5.2,3.1-9.3,8.1-9.3c5.6,0,7.1,5,7.1,8.1c0,0.6,0,1.1-0.1,1.5H197.4z M206.6,55.5c0-2-0.8-5.1-4.3-5.1
				c-3.2,0-4.6,2.9-4.8,5.1H206.6z"/>
			<path class="st0" d="M213.5,40.5h3.1v10.8h0.1c1.1-1.9,3.1-3.1,5.9-3.1c4.3,0,7.3,3.6,7.3,8.8c0,6.2-3.9,9.3-7.8,9.3
				c-2.5,0-4.5-1-5.8-3.2h-0.1l-0.2,2.9h-2.7c0.1-1.2,0.1-2.9,0.1-4.5V40.5z M216.6,58.9c0,0.4,0,0.8,0.1,1.1
				c0.6,2.2,2.5,3.7,4.7,3.7c3.3,0,5.2-2.7,5.2-6.6c0-3.5-1.8-6.5-5.1-6.5c-2.1,0-4.1,1.5-4.7,3.9c-0.1,0.4-0.2,0.8-0.2,1.3V58.9z"
				/>
			<path class="st0" d="M233.8,53.9c0-2,0-3.8-0.1-5.4h2.7l0.1,3.4h0.1c0.8-2.3,2.7-3.8,4.8-3.8c0.3,0,0.6,0,0.9,0.1v3
				c-0.3,0-0.6-0.1-1.1-0.1c-2.2,0-3.8,1.7-4.2,4c-0.1,0.5-0.1,1-0.1,1.5v9.2h-3.1V53.9z"/>
			<path class="st0" d="M257.4,61.6c0,1.5,0.1,3,0.2,4.1h-2.8l-0.3-2.2h-0.1c-0.9,1.4-2.8,2.6-5.3,2.6c-3.5,0-5.3-2.5-5.3-5
				c0-4.2,3.7-6.5,10.4-6.4v-0.4c0-1.4-0.4-4-3.9-4c-1.6,0-3.3,0.5-4.5,1.3l-0.7-2.1c1.4-0.9,3.5-1.5,5.7-1.5c5.3,0,6.6,3.6,6.6,7.1
				V61.6z M254.4,57c-3.4-0.1-7.3,0.5-7.3,3.9c0,2.1,1.4,3,2.9,3c2.3,0,3.7-1.4,4.2-2.9c0.1-0.3,0.1-0.7,0.1-1V57z"/>
			<path class="st0" d="M262.4,53.9c0-2,0-3.8-0.1-5.4h2.7l0.1,3.4h0.1c0.8-2.3,2.7-3.8,4.8-3.8c0.3,0,0.6,0,0.9,0.1v3
				c-0.3,0-0.6-0.1-1.1-0.1c-2.2,0-3.8,1.7-4.2,4c-0.1,0.5-0.1,1-0.1,1.5v9.2h-3.1V53.9z"/>
			<path class="st0" d="M293.8,61.6c0,1.5,0.1,3,0.2,4.1h-2.8l-0.3-2.2h-0.1c-0.9,1.4-2.8,2.6-5.3,2.6c-3.5,0-5.3-2.5-5.3-5
				c0-4.2,3.7-6.5,10.4-6.4v-0.4c0-1.4-0.4-4-3.9-4c-1.6,0-3.3,0.5-4.5,1.3l-0.7-2.1c1.4-0.9,3.5-1.5,5.7-1.5c5.3,0,6.6,3.6,6.6,7.1
				V61.6z M290.7,57c-3.4-0.1-7.3,0.5-7.3,3.9c0,2.1,1.4,3,2.9,3c2.3,0,3.7-1.4,4.2-2.9c0.1-0.3,0.1-0.7,0.1-1V57z"/>
			<path class="st0" d="M298.8,40.5h3.1v25.3h-3.1V40.5z"/>
			<path class="st0" d="M314.8,53.2c0-1.8-0.1-3.2-0.1-4.7h2.7l0.1,2.8h0.1c1-1.6,2.6-3.2,5.5-3.2c2.3,0,4.1,1.4,4.8,3.5h0.1
				c0.5-1,1.2-1.7,2-2.2c1-0.8,2.1-1.2,3.8-1.2c2.3,0,5.7,1.5,5.7,7.5v10.2h-3.1V56c0-3.4-1.2-5.3-3.7-5.3c-1.8,0-3.2,1.3-3.7,2.8
				c-0.1,0.5-0.3,1-0.3,1.6v10.7h-3.1V55.4c0-2.7-1.2-4.7-3.6-4.7c-1.9,0-3.4,1.6-3.9,3.1c-0.2,0.5-0.2,1-0.2,1.5v10.4h-3.1V53.2z"
				/>
			<path class="st0" d="M356.7,61.6c0,1.5,0.1,3,0.3,4.1h-2.8l-0.3-2.2h-0.1c-0.9,1.4-2.8,2.6-5.3,2.6c-3.5,0-5.3-2.5-5.3-5
				c0-4.2,3.7-6.5,10.4-6.4v-0.4c0-1.4-0.4-4-3.9-4c-1.6,0-3.3,0.5-4.5,1.3l-0.7-2.1c1.4-0.9,3.5-1.5,5.7-1.5c5.3,0,6.6,3.6,6.6,7.1
				V61.6z M353.6,57c-3.4-0.1-7.3,0.5-7.3,3.9c0,2.1,1.4,3,2.9,3c2.3,0,3.7-1.4,4.2-2.9c0.1-0.3,0.1-0.7,0.1-1V57z M355.1,41.1
				l-4.3,5.1h-2.2l3.1-5.1H355.1z"/>
			<path class="st0" d="M361.3,62.6c1,0.6,2.6,1.2,4.2,1.2c2.2,0,3.3-1.1,3.3-2.6c0-1.5-0.9-2.3-3.2-3.1c-3.1-1.1-4.6-2.9-4.6-4.9
				c0-2.8,2.3-5.1,6-5.1c1.7,0,3.3,0.5,4.2,1.1l-0.7,2.2c-0.7-0.4-1.9-1-3.5-1c-1.9,0-2.9,1.1-2.9,2.4c0,1.4,1,2.1,3.2,3
				c3,1.1,4.5,2.6,4.5,5.2c0,3.1-2.4,5.2-6.4,5.2c-1.9,0-3.6-0.5-4.8-1.2L361.3,62.6z"/>
			<path class="st0" d="M383.7,65.8V50.9h-2.4v-2.4h2.4v-0.8c0-2.4,0.6-4.6,2-6c1.2-1.1,2.7-1.6,4.2-1.6c1.1,0,2.1,0.2,2.7,0.5
				l-0.4,2.4c-0.5-0.2-1.1-0.4-2-0.4c-2.6,0-3.3,2.4-3.3,5v0.9h4.2v2.4h-4.1v14.9H383.7z"/>
			<path class="st0" d="M408.2,61c0,1.8,0,3.4,0.1,4.7h-2.8l-0.2-2.8h-0.1c-0.8,1.4-2.6,3.2-5.7,3.2c-2.7,0-6-1.5-6-7.6V48.5h3.1V58
				c0,3.3,1,5.5,3.9,5.5c2.1,0,3.6-1.5,4.1-2.9c0.2-0.4,0.3-1,0.3-1.6V48.5h3.1V61z"/>
			<path class="st0" d="M415.2,57.7c0.1,4.2,2.7,6,5.9,6c2.2,0,3.6-0.4,4.8-0.9l0.6,2.2c-1.1,0.5-3,1.1-5.8,1.1
				c-5.3,0-8.5-3.5-8.5-8.7c0-5.2,3.1-9.3,8.1-9.3c5.6,0,7.1,5,7.1,8.1c0,0.6,0,1.1-0.1,1.5H415.2z M424.4,55.5c0-2-0.8-5.1-4.3-5.1
				c-3.2,0-4.6,2.9-4.8,5.1H424.4z"/>
			<path class="st0" d="M431.3,53.9c0-2,0-3.8-0.1-5.4h2.7l0.1,3.4h0.1c0.8-2.3,2.7-3.8,4.8-3.8c0.3,0,0.6,0,0.9,0.1v3
				c-0.3,0-0.6-0.1-1.1-0.1c-2.2,0-3.8,1.7-4.2,4c-0.1,0.5-0.1,1-0.1,1.5v9.2h-3.1V53.9z"/>
			<path class="st0" d="M447.6,44.4v4.1h4.5v2.4h-4.5v9.3c0,2.1,0.6,3.4,2.4,3.4c0.9,0,1.4-0.1,1.8-0.2l0.1,2.4
				c-0.6,0.2-1.6,0.4-2.8,0.4c-1.5,0-2.6-0.5-3.4-1.3c-0.9-1-1.2-2.5-1.2-4.5v-9.4h-2.7v-2.4h2.7v-3.2L447.6,44.4z"/>
			<path class="st0" d="M457.1,57.7c0.1,4.2,2.7,6,5.9,6c2.2,0,3.6-0.4,4.8-0.9l0.6,2.2c-1.1,0.5-3,1.1-5.8,1.1
				c-5.3,0-8.5-3.5-8.5-8.7c0-5.2,3.1-9.3,8.1-9.3c5.6,0,7.1,5,7.1,8.1c0,0.6,0,1.1-0.1,1.5H457.1z M466.3,55.5c0-2-0.8-5.1-4.3-5.1
				c-3.2,0-4.6,2.9-4.8,5.1H466.3z"/>
		</g>
	</g>
</g>
</svg>
