<!-- Generator: Adobe Illustrator 20.1.0, SVG Export Plug-In  -->
<svg version="1.1"
	 xmlns="http://www.w3.org/2000/svg" xmlns:xlink="http://www.w3.org/1999/xlink" xmlns:a="http://ns.adobe.com/AdobeSVGViewerExtensions/3.0/"
	 x="0px" y="0px" width="649.7px" height="83.5px" viewBox="0 0 649.7 83.5"
	 style="overflow:scroll;enable-background:new 0 0 649.7 83.5;" xml:space="preserve">
<style type="text/css">
	.st0{clip-path:url(#SVGID_2_);}
	.st1{fill:#E8E8E8;}
	.st2{fill:#E5E5E5;}
	.st3{fill:#E1E1E1;}
	.st4{fill:#DEDEDE;}
	.st5{fill:#DBDBDB;}
	.st6{fill:#D8D8D8;}
	.st7{fill:#D4D4D4;}
	.st8{fill:#D1D1D1;}
	.st9{fill:#CECECE;}
	.st10{fill:#CACACA;}
	.st11{fill:#C7C7C7;}
	.st12{fill:#C4C4C4;}
	.st13{fill:#C0C0C0;}
	.st14{fill:#BDBDBD;}
	.st15{fill:#BABABA;}
	.st16{fill:#B7B7B7;}
	.st17{fill:#B3B3B3;}
	.st18{fill:#B0B0B0;}
	.st19{fill:#ADADAD;}
	.st20{fill:#A9A9A9;}
	.st21{fill:#A6A6A6;}
	.st22{fill:#A3A3A3;}
	.st23{fill:#9F9F9F;}
	.st24{fill:#9C9C9C;}
	.st25{fill:#999999;}
	.st26{fill:#969696;}
	.st27{fill:#929292;}
	.st28{fill:#8F8F8F;}
	.st29{fill:#8C8C8C;}
	.st30{fill:#888888;}
	.st31{fill:#858585;}
	.st32{fill:#828282;}
	.st33{fill:#7E7E7E;}
	.st34{fill:#7B7B7B;}
	.st35{fill:#787878;}
	.st36{fill:#757575;}
	.st37{fill:#717171;}
	.st38{fill:#6E6E6E;}
	.st39{fill:#6B6B6B;}
	.st40{fill:#676767;}
	.st41{fill:#646464;}
	.st42{fill:#616161;}
	.st43{fill:#5D5D5D;}
	.st44{fill:#5A5A5A;}
	.st45{fill:#575757;}
	.st46{fill:#545454;}
	.st47{fill:#505050;}
	.st48{fill:#4D4D4D;}
	.st49{fill:#4A4A4A;}
	.st50{fill:#464646;}
	.st51{fill:#434343;}
	.st52{fill:#404040;}
	.st53{fill:#8BC53F;}
	.st54{clip-path:url(#SVGID_4_);}
</style>
<defs>
</defs>
<g>
	<g>
		<defs>
			<rect id="SVGID_1_" x="330.4" y="26.4" width="317.2" height="52.5"/>
		</defs>
		<clipPath id="SVGID_2_">
			<use xlink:href="#SVGID_1_"  style="overflow:visible;"/>
		</clipPath>
		<g class="st0">
			<path class="st1" d="M643.5,0l-411,57.7l417.1,25.8L643.5,0z M240.2,57L643.1,0.4l5,82.5L234.2,57.6L240.2,57z"/>
			<path class="st2" d="M643.1,0.4L240.2,57l-6,0.7l413.9,25.3L643.1,0.4z M247.8,56.3L642.6,0.9l3.9,81.5L235.8,57.6L247.8,56.3z"
				/>
			<path class="st3" d="M642.6,0.9L247.8,56.3l-12,1.3l410.7,24.8L642.6,0.9z M255.4,55.6L642.1,1.3l2.7,80.5L237.4,57.6L255.4,55.6
				z"/>
			<path class="st4" d="M642.1,1.3L255.4,55.6l-18,2l407.5,24.3L642.1,1.3z M263,54.9L641.7,1.8l1.6,79.5L239,57.6L263,54.9z"/>
			<path class="st5" d="M641.7,1.8L263,54.9l-24,2.7l404.3,23.7L641.7,1.8z M240.6,57.5l30-3.3l370.7-52l0.5,78.5L240.6,57.5z"/>
			<path class="st6" d="M270.5,54.2l-30,3.3l401.1,23.2l-0.5-78.5L270.5,54.2z M640,80.2L242.2,57.5l36-4L640.7,2.6L640,80.2z"/>
			<path class="st7" d="M242.2,57.5L640,80.2l0.7-77.5L278.1,53.5L242.2,57.5z M640.3,3.1l-1.8,76.5L243.8,57.5l42-4.7L640.3,3.1z"
				/>
			<path class="st8" d="M638.4,79.6l1.8-76.5L285.7,52.8l-42,4.7L638.4,79.6z M293.3,52.1L639.8,3.5l-3,75.6L245.4,57.5L293.3,52.1z
				"/>
			<path class="st9" d="M636.8,79.1l3-75.6L293.3,52.1l-48,5.3L636.8,79.1z M300.9,51.4L639.3,4l-4.1,74.6L247,57.5L300.9,51.4z"/>
			<path class="st10" d="M635.2,78.5L639.3,4L300.9,51.4l-53.9,6L635.2,78.5z M308.5,50.8L638.9,4.4L633.6,78l-385-20.6L308.5,50.8z
				"/>
			<path class="st11" d="M633.6,78l5.3-73.6L308.5,50.8l-59.9,6.7L633.6,78z M316.1,50.1L638.4,4.8L632,77.4l-381.8-20L316.1,50.1z"
				/>
			<path class="st12" d="M632,77.4l6.4-72.6L316.1,50.1l-65.9,7.3L632,77.4z M323.7,49.4L637.9,5.3l-7.6,71.6L251.8,57.4L323.7,49.4
				z"/>
			<path class="st13" d="M630.4,76.9l7.6-71.6L323.7,49.4l-71.9,8L630.4,76.9z M331.3,48.7l306.2-43l-8.7,70.6l-375.4-19L331.3,48.7
				z"/>
			<path class="st14" d="M628.8,76.3l8.7-70.6l-306.2,43l-77.9,8.7L628.8,76.3z M338.9,48L637,6.2l-9.8,69.6L254.9,57.3L338.9,48z"
				/>
			<path class="st15" d="M627.2,75.8L637,6.2L338.9,48l-83.9,9.3L627.2,75.8z M346.4,47.3L636.5,6.6l-11,68.6l-369-17.9L346.4,47.3z
				"/>
			<path class="st16" d="M625.6,75.2l11-68.6L346.4,47.3l-89.9,10L625.6,75.2z M354,46.6L636.1,7l-12.1,67.6L258.1,57.3L354,46.6z"
				/>
			<path class="st17" d="M623.9,74.7L636.1,7L354,46.6l-95.9,10.7L623.9,74.7z M361.6,45.9l274-38.4l-13.3,66.6L259.7,57.3
				L361.6,45.9z"/>
			<path class="st18" d="M622.3,74.1l13.3-66.6l-274,38.4L259.7,57.3L622.3,74.1z M369.2,45.2L635.1,7.9l-14.4,65.7L261.3,57.3
				L369.2,45.2z"/>
			<path class="st19" d="M620.7,73.6l14.4-65.7L369.2,45.2l-107.9,12L620.7,73.6z M376.8,44.5L634.7,8.4L619.1,73L262.9,57.2
				L376.8,44.5z"/>
			<path class="st20" d="M619.1,73l15.6-64.7L376.8,44.5L262.9,57.2L619.1,73z M384.4,43.9l249.8-35l-16.7,63.7l-353-15.3
				L384.4,43.9z"/>
			<path class="st21" d="M617.5,72.5l16.7-63.7l-249.8,35L264.5,57.2L617.5,72.5z M392,43.2L633.7,9.3l-17.9,62.7L266.1,57.2
				L392,43.2z"/>
			<path class="st22" d="M615.9,71.9l17.9-62.7L392,43.2l-125.9,14L615.9,71.9z M399.6,42.5L633.3,9.7l-19,61.7L267.7,57.2
				L399.6,42.5z"/>
			<path class="st23" d="M614.3,71.4l19-61.7L399.6,42.5L267.7,57.2L614.3,71.4z M407.2,41.8l225.6-31.6l-20.1,60.7L269.3,57.1
				L407.2,41.8z"/>
			<path class="st24" d="M612.7,70.8l20.1-60.7L407.2,41.8L269.3,57.1L612.7,70.8z M414.8,41.1l217.6-30.5l-21.3,59.7L270.9,57.1
				L414.8,41.1z"/>
			<path class="st25" d="M611.1,70.3l21.3-59.7L414.8,41.1l-143.8,16L611.1,70.3z M422.4,40.4L631.9,11l-22.4,58.7L272.5,57.1
				L422.4,40.4z"/>
			<path class="st26" d="M609.4,69.7L631.9,11L422.4,40.4L272.5,57.1L609.4,69.7z M430,39.7l201.5-28.3l-23.6,57.7L274.1,57.1
				L430,39.7z"/>
			<path class="st27" d="M607.8,69.2l23.6-57.7L430,39.7L274.1,57.1L607.8,69.2z M437.5,39l193.4-27.1l-24.7,56.7L275.7,57.1
				L437.5,39z"/>
			<path class="st28" d="M606.2,68.6l24.7-56.7L437.5,39l-161.8,18L606.2,68.6z M445.1,38.3l185.3-26l-25.9,55.7L277.3,57
				L445.1,38.3z"/>
			<path class="st29" d="M604.6,68.1l25.9-55.7l-185.3,26L277.3,57L604.6,68.1z M452.7,37.6L630,12.8l-27,54.7L278.9,57L452.7,37.6z
				"/>
			<path class="st30" d="M603,67.5l27-54.7L452.7,37.6L278.9,57L603,67.5z M460.3,37l169.2-23.7L601.4,67L280.5,57L460.3,37z"/>
			<path class="st31" d="M601.4,67l28.1-53.8L460.3,37L280.5,57L601.4,67z M467.9,36.3l161.2-22.6l-29.3,52.8L282.1,57L467.9,36.3z"
				/>
			<path class="st32" d="M599.8,66.4l29.3-52.8L467.9,36.3L282.1,57L599.8,66.4z M475.5,35.6l153.1-21.5l-30.4,51.8l-314.5-8.9
				L475.5,35.6z"/>
			<path class="st33" d="M598.2,65.9l30.4-51.8L475.5,35.6L283.7,56.9L598.2,65.9z M483.1,34.9l145-20.3l-31.6,50.8l-311.3-8.4
				L483.1,34.9z"/>
			<path class="st34" d="M596.6,65.3l31.6-50.8l-145,20.3l-197.8,22L596.6,65.3z M490.7,34.2l137-19.2l-32.7,49.8l-308.1-7.9
				L490.7,34.2z"/>
			<path class="st35" d="M594.9,64.8L627.7,15l-137,19.2L286.9,56.9L594.9,64.8z M498.3,33.5l128.9-18.1l-33.9,48.8l-304.8-7.4
				L498.3,33.5z"/>
			<path class="st36" d="M593.3,64.2l33.9-48.8L498.3,33.5L288.5,56.9L593.3,64.2z M505.9,32.8l120.9-17l-35,47.8l-301.6-6.8
				L505.9,32.8z"/>
			<path class="st37" d="M591.7,63.7l35-47.8l-120.9,17l-215.8,24L591.7,63.7z M513.4,32.1l112.8-15.8l-36.1,46.8l-298.4-6.3
				L513.4,32.1z"/>
			<path class="st38" d="M590.1,63.1l36.1-46.8L513.4,32.1L291.7,56.8L590.1,63.1z M521,31.4l104.8-14.7l-37.3,45.8l-295.2-5.8
				L521,31.4z"/>
			<path class="st39" d="M588.5,62.6l37.3-45.8L521,31.4L293.3,56.8L588.5,62.6z M528.6,30.8l96.7-13.6L586.9,62l-292-5.2
				L528.6,30.8z"/>
			<path class="st40" d="M586.9,62l38.4-44.8l-96.7,13.6l-233.8,26L586.9,62z M536.2,30.1l88.6-12.4l-39.6,43.9l-288.8-4.7
				L536.2,30.1z"/>
			<path class="st41" d="M585.3,61.5l39.6-43.9l-88.6,12.4L296.5,56.8L585.3,61.5z M543.8,29.4l80.6-11.3l-40.7,42.9l-285.6-4.2
				L543.8,29.4z"/>
			<path class="st42" d="M583.7,60.9l40.7-42.9l-80.6,11.3L298.1,56.7L583.7,60.9z M551.4,28.7l72.5-10.2l-41.9,41.9l-282.4-3.7
				L551.4,28.7z"/>
			<path class="st43" d="M582.1,60.4l41.9-41.9l-72.5,10.2l-251.7,28L582.1,60.4z M559,28l64.5-9l-43,40.9l-279.2-3.1L559,28z"/>
			<path class="st44" d="M580.4,59.8l43-40.9L559,28L301.3,56.7L580.4,59.8z M566.6,27.3l56.4-7.9l-0.5,0.4l0,0l-0.4,0.3l-0.1,0.1
				l0,0l-0.4,0.4l-0.1,0.1l0.1,0l-0.4,0.3l-0.1,0.1l0.1,0l-0.5,0.3l-0.1,0.1l0.1,0l-0.5,0.3l-0.2,0.1l0.1,0l-0.5,0.3l-0.2,0.1l0.2,0
				l-0.5,0.3l-40.4,36.5l-276-2.6L566.6,27.3z"/>
			<polygon class="st45" points="619.6,22.5 619.7,22.4 619.5,22.5 			"/>
			<polygon class="st45" points="620.5,21.6 620.7,21.5 620.5,21.6 			"/>
			<polygon class="st45" points="578.8,59.3 619.2,22.8 618.7,23.1 577.2,58.7 304.5,56.7 574.2,26.6 622.5,19.8 623,19.4 
				566.6,27.3 302.9,56.7 			"/>
			<polygon class="st45" points="622,20.3 622.1,20.2 622,20.3 			"/>
			<polygon class="st45" points="621,21.2 621.2,21 621,21.2 			"/>
			<polygon class="st45" points="620,22.1 620.2,21.9 620,22.1 			"/>
			<polygon class="st45" points="621.5,20.7 621.6,20.6 621.5,20.7 			"/>
			<polygon class="st46" points="304.5,56.7 577.2,58.7 618.7,23.1 618.1,23.5 575.6,58.2 306.1,56.6 581.8,25.9 622,20.3 
				622.1,20.2 622.5,19.8 622.5,19.8 574.2,26.6 			"/>
			<polygon class="st47" points="581.8,25.9 306.1,56.6 575.6,58.2 618.1,23.5 617.5,23.8 574,57.6 307.7,56.6 589.4,25.2 
				621.5,20.7 621.6,20.6 622.1,20.3 622,20.3 622,20.3 			"/>
			<polygon class="st48" points="589.4,25.2 307.7,56.6 574,57.6 617.5,23.8 617,24.2 572.4,57.1 309.3,56.6 596.9,24.5 621,21.2 
				621.2,21 621.6,20.7 621.5,20.7 621.5,20.7 			"/>
			<polygon class="st49" points="596.9,24.5 309.3,56.6 572.4,57.1 617,24.2 616.4,24.6 570.8,56.5 310.9,56.6 604.5,23.9 
				620.5,21.6 620.7,21.5 621.1,21.2 621,21.2 621,21.2 			"/>
			<polygon class="st50" points="604.5,23.9 310.9,56.6 570.8,56.5 616.4,24.6 615.9,24.9 569.2,56 312.4,56.5 612.1,23.2 620,22.1 
				620.2,21.9 620.7,21.6 620.5,21.6 620.5,21.6 			"/>
			<polygon class="st51" points="612.1,23.2 312.4,56.5 569.2,56 615.9,24.9 567.6,55.4 314,56.5 619.5,22.5 619.7,22.4 620.2,22 
				620,22.1 620,22.1 			"/>
			<polygon class="st52" points="314,56.5 567.6,55.4 615.9,24.9 616.4,24.6 617,24.2 617.5,23.8 618.1,23.5 618.7,23.1 619.2,22.8 
				619.7,22.5 619.6,22.5 619.5,22.5 			"/>
		</g>
	</g>
	<rect y="14.3" class="st53" width="648.7" height="48.5"/>
</g>
</svg>
