<!-- Generator: Adobe Illustrator 20.1.0, SVG Export Plug-In  -->
<svg version="1.1"
	 xmlns="http://www.w3.org/2000/svg" xmlns:xlink="http://www.w3.org/1999/xlink" xmlns:a="http://ns.adobe.com/AdobeSVGViewerExtensions/3.0/"
	 x="0px" y="0px" width="605.3px" height="23.5px" viewBox="0 0 605.3 23.5"
	 style="overflow:scroll;enable-background:new 0 0 605.3 23.5;" xml:space="preserve">
<style type="text/css">
	.st0{fill:#FFFFFF;}
</style>
<defs>
</defs>
<g>
	<path class="st0" d="M0,1.5h2.4L8,15.4h0V1.5h1.8v16.8H7.5L1.9,4.6h0v13.7H0V1.5z"/>
	<path class="st0" d="M16.8,5.9c2.9,0,4.4,2.4,4.4,6.3s-1.5,6.3-4.4,6.3s-4.4-2.4-4.4-6.3S13.8,5.9,16.8,5.9z M16.8,16.8
		c1.7,0,2.5-1.6,2.5-4.7s-0.8-4.7-2.5-4.7s-2.5,1.6-2.5,4.7S15,16.8,16.8,16.8z"/>
	<path class="st0" d="M28.9,6.9c0.9-0.6,2-1,3.1-1c1.6,0,2.6,0.8,2.9,1.2c0.5,0.5,1,1.3,1,3v6.4c0,0.7,0,1.4,0.1,1.9h-1.6l-0.1-1.7
		h0c-0.5,0.9-1.4,1.8-3.1,1.8c-1.8,0-3.2-1.2-3.2-3.5c0-2.4,1.4-4.1,5.2-4.1h1.1v-0.6c0-0.9-0.1-1.4-0.4-2c-0.4-0.6-1.1-0.8-1.8-0.8
		c-1.1,0-2.2,0.5-2.8,1.3L28.9,6.9z M34.2,12.3c-0.3,0-0.8,0-1.3,0c-2.1,0-3.2,1.1-3.2,2.5c0,1.3,0.6,2.1,1.9,2.1
		c1.6,0,2.6-1.4,2.6-3.1V12.3z"/>
	<path class="st0" d="M39.2,7.7h-1.8V6h1.8V3.3c0-2,0.8-3.3,2.7-3.3c0.5,0,1,0.1,1.4,0.2v1.7c-0.2-0.2-0.6-0.3-1-0.3
		c-1,0-1.3,0.6-1.3,1.8V6h2v1.6h-2v10.6h-1.8V7.7z"/>
	<path class="st0" d="M45.8,12.8c0,2.8,1,4.2,3,4.2c0.9,0,1.9-0.5,2.5-1l0.1,1.8c-0.9,0.5-2,0.7-3.1,0.7c-2.9,0-4.4-2.4-4.4-6.3
		s1.5-6.3,4.3-6.3c2.5,0,3.9,2.2,3.9,5.8v1.1H45.8z M50.2,11.2c0-2.5-0.7-3.8-2.2-3.8c-1.2,0-2.2,1-2.2,3.8H50.2z"/>
	<path class="st0" d="M60.5,8.2c-0.6-0.4-1.3-0.6-2.1-0.6c-1.8,0-3,1.4-3,4.7c0,2.8,1.2,4.4,3,4.4c0.9,0,1.6-0.3,2.2-0.6l0.1,1.8
		c-0.5,0.3-1.5,0.5-2.3,0.5c-3.3,0-4.9-2.7-4.9-6.2c0-4,1.9-6.4,4.9-6.4c0.8,0,1.6,0.2,2.2,0.5L60.5,8.2z"/>
	<path class="st0" d="M67.3,18.1c-0.4,0.2-1,0.3-1.5,0.3c-1.7,0-2.5-0.7-2.5-2.9V7.7h-1.8V6h1.8V3.6L65.1,3V6h2.3v1.6h-2.3v7.2
		c0,1.4,0.3,1.9,1.1,1.9c0.5,0,0.8-0.1,1.1-0.3V18.1z"/>
	<path class="st0" d="M69.3,6.9c0.9-0.6,2-1,3.1-1C74,5.9,75,6.6,75.3,7c0.5,0.5,1,1.3,1,3v6.4c0,0.7,0,1.4,0.1,1.9h-1.6l-0.1-1.7h0
		c-0.5,0.9-1.4,1.8-3.1,1.8c-1.8,0-3.2-1.2-3.2-3.5c0-2.4,1.4-4.1,5.2-4.1h1.1v-0.6c0-0.9-0.1-1.4-0.4-2c-0.4-0.6-1.1-0.8-1.8-0.8
		c-1.1,0-2.2,0.5-2.8,1.3L69.3,6.9z M74.6,12.3c-0.3,0-0.8,0-1.3,0c-2.1,0-3.2,1.1-3.2,2.5c0,1.3,0.6,2.1,1.9,2.1
		c1.6,0,2.6-1.4,2.6-3.1V12.3z"/>
	<path class="st0" d="M85.4,12.8c0,2.8,1,4.2,3,4.2c0.9,0,1.9-0.5,2.5-1l0.1,1.8c-0.9,0.5-2,0.7-3.1,0.7c-2.9,0-4.4-2.4-4.4-6.3
		s1.5-6.3,4.3-6.3c2.5,0,3.9,2.2,3.9,5.8v1.1H85.4z M89.8,11.2c0-2.5-0.7-3.8-2.2-3.8c-1.2,0-2.2,1-2.2,3.8H89.8z"/>
	<path class="st0" d="M93.8,0.3h1.8v18h-1.8V0.3z"/>
	<path class="st0" d="M108.5,18.1c-0.4,0.2-1,0.3-1.5,0.3c-1.7,0-2.5-0.7-2.5-2.9V7.7h-1.8V6h1.8V3.6l1.8-0.6V6h2.3v1.6h-2.3v7.2
		c0,1.4,0.3,1.9,1.1,1.9c0.5,0,0.8-0.1,1.1-0.3V18.1z"/>
	<path class="st0" d="M112.1,1v2.4h-2V1H112.1z M110.2,6h1.8v12.2h-1.8V6z"/>
	<path class="st0" d="M116.2,12.8c0,2.8,1,4.2,3,4.2c0.9,0,1.9-0.5,2.5-1l0.1,1.8c-0.9,0.5-2,0.7-3.1,0.7c-2.9,0-4.4-2.4-4.4-6.3
		s1.5-6.3,4.3-6.3c2.5,0,3.9,2.2,3.9,5.8v1.1H116.2z M120.6,11.2c0-2.5-0.7-3.8-2.2-3.8c-1.2,0-2.2,1-2.2,3.8H120.6z"/>
	<path class="st0" d="M124.4,8.7c0-0.9-0.1-1.8-0.1-2.6h1.8l0.1,1.8h0c0.6-1.4,1.5-2,2.7-2c1.2,0,2,0.7,2.6,1.9
		c0.6-1.2,1.4-1.9,2.7-1.9c1.9,0,3.2,1.2,3.2,3.9v8.5h-1.8V9.9c0-1.6-0.6-2.3-1.7-2.3c-1.3,0-2.1,0.9-2.1,3.1v7.6H130V9.9
		c0-1.6-0.6-2.3-1.7-2.3c-1.3,0-2.1,0.9-2.1,3.1v7.6h-1.8V8.7z"/>
	<path class="st0" d="M139.8,8.3c0-0.7-0.1-1.5-0.1-2.3h1.8l0.1,1.8h0c0.5-1,1.3-2,2.9-2c2.3,0,3.8,2.1,3.8,6.3s-1.5,6.3-3.8,6.3
		c-1.3,0-2.1-0.6-2.8-1.8h0v6.9h-1.8V8.3z M144,16.8c1.7,0,2.4-1.6,2.4-4.7s-0.8-4.7-2.4-4.7c-1.7,0-2.4,1.6-2.4,4.7
		S142.4,16.8,144,16.8z"/>
	<path class="st0" d="M154.3,5.9c2.9,0,4.4,2.4,4.4,6.3s-1.5,6.3-4.4,6.3s-4.4-2.4-4.4-6.3S151.3,5.9,154.3,5.9z M154.3,16.8
		c1.7,0,2.5-1.6,2.5-4.7s-0.8-4.7-2.5-4.7s-2.5,1.6-2.5,4.7S152.5,16.8,154.3,16.8z"/>
	<path class="st0" d="M173.9,16c0,0.7,0.1,1.5,0.1,2.3h-1.8l-0.1-1.8h0c-0.5,1-1.3,2-2.9,2c-2.3,0-3.8-2.1-3.8-6.3s1.5-6.3,3.8-6.3
		c1.3,0,2.1,0.6,2.8,1.8h0V0.3h1.8V16z M169.7,7.5c-1.7,0-2.4,1.6-2.4,4.7s0.8,4.7,2.4,4.7s2.4-1.6,2.4-4.7S171.3,7.5,169.7,7.5z"/>
	<path class="st0" d="M177.7,12.8c0,2.8,1,4.2,3,4.2c0.9,0,1.9-0.5,2.5-1l0.1,1.8c-0.9,0.5-2,0.7-3.1,0.7c-2.9,0-4.4-2.4-4.4-6.3
		s1.5-6.3,4.3-6.3c2.5,0,3.9,2.2,3.9,5.8v1.1H177.7z M182.1,11.2c0-2.5-0.7-3.8-2.2-3.8c-1.2,0-2.2,1-2.2,3.8H182.1z"/>
	<path class="st0" d="M191.1,8.7c0-0.9-0.1-1.8-0.1-2.6h1.8l0.1,1.9h0c0.6-1.5,1.5-2.1,3.1-2.1v2c-0.2,0-0.5-0.1-0.7-0.1
		c-1.4,0-2.4,1.3-2.4,4v6.5h-1.8V8.7z"/>
	<path class="st0" d="M198.9,12.8c0,2.8,1,4.2,3,4.2c0.9,0,1.9-0.5,2.5-1l0.1,1.8c-0.9,0.5-2,0.7-3.1,0.7c-2.9,0-4.4-2.4-4.4-6.3
		s1.5-6.3,4.3-6.3c2.5,0,3.9,2.2,3.9,5.8v1.1H198.9z M203.3,11.2c0-2.5-0.7-3.8-2.2-3.8c-1.2,0-2.2,1-2.2,3.8H203.3z"/>
	<path class="st0" d="M207.5,6.9c0.9-0.6,2-1,3.1-1c1.6,0,2.6,0.8,2.9,1.2c0.5,0.5,1,1.3,1,3v6.4c0,0.7,0,1.4,0.1,1.9H213l-0.1-1.7
		h0c-0.5,0.9-1.4,1.8-3.1,1.8c-1.8,0-3.2-1.2-3.2-3.5c0-2.4,1.4-4.1,5.2-4.1h1.1v-0.6c0-0.9-0.1-1.4-0.4-2c-0.4-0.6-1.1-0.8-1.8-0.8
		c-1.1,0-2.2,0.5-2.8,1.3L207.5,6.9z M212.8,12.3c-0.3,0-0.8,0-1.3,0c-2.1,0-3.2,1.1-3.2,2.5c0,1.3,0.6,2.1,1.9,2.1
		c1.6,0,2.6-1.4,2.6-3.1V12.3z"/>
	<path class="st0" d="M223.6,8.2c-0.6-0.4-1.3-0.6-2.1-0.6c-1.8,0-3,1.4-3,4.7c0,2.8,1.2,4.4,3,4.4c0.9,0,1.6-0.3,2.2-0.6l0.1,1.8
		c-0.5,0.3-1.5,0.5-2.3,0.5c-3.3,0-4.9-2.7-4.9-6.2c0-4,1.9-6.4,4.9-6.4c0.8,0,1.6,0.2,2.2,0.5L223.6,8.2z"/>
	<path class="st0" d="M232,8.2c-0.6-0.4-1.3-0.6-2.1-0.6c-1.8,0-3,1.4-3,4.7c0,2.8,1.2,4.4,3,4.4c0.9,0,1.6-0.3,2.2-0.6l0.1,1.8
		c-0.5,0.3-1.5,0.5-2.3,0.5c-3.3,0-4.9-2.7-4.9-6.2c0-4,1.9-6.4,4.9-6.4c0.8,0,1.6,0.2,2.2,0.5L232,8.2z"/>
	<path class="st0" d="M236,1v2.4h-2V1H236z M234.1,6h1.8v12.2h-1.8V6z"/>
	<path class="st0" d="M242.6,5.9c2.9,0,4.4,2.4,4.4,6.3s-1.5,6.3-4.4,6.3s-4.4-2.4-4.4-6.3S239.7,5.9,242.6,5.9z M242.6,16.8
		c1.7,0,2.5-1.6,2.5-4.7s-0.8-4.7-2.5-4.7s-2.5,1.6-2.5,4.7S240.9,16.8,242.6,16.8z M243,0.9h2.1l-2.2,3.5h-1.4L243,0.9z"/>
	<path class="st0" d="M249.1,8.7c0-0.9-0.1-1.8-0.1-2.6h1.8l0.1,1.8h0c0.6-1.4,1.5-2,2.8-2c1.9,0,3.2,1.2,3.2,3.9v8.5h-1.8v-7.9
		c0-1.9-0.6-2.8-1.8-2.8c-1.4,0-2.3,1.1-2.3,3.3v7.4h-1.8V8.7z"/>
	<path class="st0" d="M264.7,8.7c0-0.9-0.1-1.8-0.1-2.6h1.8l0.1,1.8h0c0.6-1.4,1.5-2,2.8-2c1.9,0,3.2,1.2,3.2,3.9v8.5h-1.8v-7.9
		c0-1.9-0.6-2.8-1.8-2.8c-1.4,0-2.3,1.1-2.3,3.3v7.4h-1.8V8.7z"/>
	<path class="st0" d="M277.2,1v2.4h-2V1H277.2z M275.3,6h1.8v12.2h-1.8V6z"/>
	<path class="st0" d="M286.5,12.8c0,2.8,1,4.2,3,4.2c0.9,0,1.9-0.5,2.5-1l0.1,1.8c-0.9,0.5-2,0.7-3.1,0.7c-2.9,0-4.4-2.4-4.4-6.3
		s1.5-6.3,4.3-6.3c2.5,0,3.9,2.2,3.9,5.8v1.1H286.5z M290.9,11.2c0-2.5-0.7-3.8-2.2-3.8c-1.2,0-2.2,1-2.2,3.8H290.9z"/>
	<path class="st0" d="M294.9,0.3h1.8v18h-1.8V0.3z"/>
	<path class="st0" d="M306,12.8c0,2.8,1,4.2,3,4.2c0.9,0,1.9-0.5,2.5-1l0.1,1.8c-0.9,0.5-2,0.7-3.1,0.7c-2.9,0-4.4-2.4-4.4-6.3
		s1.5-6.3,4.3-6.3c2.5,0,3.9,2.2,3.9,5.8v1.1H306z M310.4,11.2c0-2.5-0.7-3.8-2.2-3.8c-1.2,0-2.2,1-2.2,3.8H310.4z"/>
	<path class="st0" d="M313.8,15.9c0.8,0.6,1.7,0.9,2.6,0.9c1.4,0,2.1-0.8,2.1-1.7c0-0.8-0.4-1.4-1.4-1.9l-1.2-0.6
		c-1.6-0.8-2.2-1.6-2.2-3.1c0-2,1.4-3.6,3.5-3.6c0.9,0,1.7,0.2,2.3,0.4L319.5,8c-0.6-0.3-1.3-0.5-2.2-0.5c-1.2,0-1.8,0.7-1.8,1.7
		c0,1,0.6,1.5,1.9,2.1l0.6,0.3c1.3,0.6,2.2,1.6,2.2,3.1c0,2.1-1,3.8-3.5,3.8c-1.1,0-2.2-0.3-3-0.7L313.8,15.9z"/>
	<path class="st0" d="M327.1,18.1c-0.4,0.2-1,0.3-1.5,0.3c-1.7,0-2.5-0.7-2.5-2.9V7.7h-1.8V6h1.8V3.6l1.8-0.6V6h2.3v1.6h-2.3v7.2
		c0,1.4,0.3,1.9,1.1,1.9c0.5,0,0.8-0.1,1.1-0.3V18.1z"/>
	<path class="st0" d="M329.1,6.9c0.9-0.6,2-1,3.1-1c1.6,0,2.6,0.8,2.9,1.2c0.5,0.5,1,1.3,1,3v6.4c0,0.7,0,1.4,0.1,1.9h-1.6l-0.1-1.7
		h0c-0.5,0.9-1.4,1.8-3.1,1.8c-1.8,0-3.2-1.2-3.2-3.5c0-2.4,1.4-4.1,5.2-4.1h1.1v-0.6c0-0.9-0.1-1.4-0.4-2c-0.4-0.6-1.1-0.8-1.8-0.8
		c-1.1,0-2.2,0.5-2.8,1.3L329.1,6.9z M334.4,12.3c-0.3,0-0.8,0-1.3,0c-2.1,0-3.2,1.1-3.2,2.5c0,1.3,0.6,2.1,1.9,2.1
		c1.6,0,2.6-1.4,2.6-3.1V12.3z"/>
	<path class="st0" d="M346.6,16c0,0.7,0.1,1.5,0.1,2.3h-1.8l-0.1-1.8h0c-0.5,1-1.3,2-2.9,2c-2.3,0-3.8-2.1-3.8-6.3s1.5-6.3,3.8-6.3
		c1.3,0,2.1,0.6,2.8,1.8h0V0.3h1.8V16z M342.4,7.5c-1.7,0-2.4,1.6-2.4,4.7s0.8,4.7,2.4,4.7s2.4-1.6,2.4-4.7S344,7.5,342.4,7.5z"/>
	<path class="st0" d="M352.9,5.9c2.9,0,4.4,2.4,4.4,6.3s-1.5,6.3-4.4,6.3s-4.4-2.4-4.4-6.3S350,5.9,352.9,5.9z M352.9,16.8
		c1.7,0,2.5-1.6,2.5-4.7s-0.8-4.7-2.5-4.7s-2.5,1.6-2.5,4.7S351.2,16.8,352.9,16.8z"/>
	<path class="st0" d="M372.6,16c0,0.7,0.1,1.5,0.1,2.3h-1.8l-0.1-1.8h0c-0.5,1-1.3,2-2.9,2c-2.3,0-3.8-2.1-3.8-6.3s1.5-6.3,3.8-6.3
		c1.3,0,2.1,0.6,2.8,1.8h0V0.3h1.8V16z M368.3,7.5c-1.7,0-2.4,1.6-2.4,4.7s0.8,4.7,2.4,4.7s2.4-1.6,2.4-4.7S370,7.5,368.3,7.5z"/>
	<path class="st0" d="M376.4,12.8c0,2.8,1,4.2,3,4.2c0.9,0,1.9-0.5,2.5-1l0.1,1.8c-0.9,0.5-2,0.7-3.1,0.7c-2.9,0-4.4-2.4-4.4-6.3
		s1.5-6.3,4.3-6.3c2.5,0,3.9,2.2,3.9,5.8v1.1H376.4z M380.8,11.2c0-2.5-0.7-3.8-2.2-3.8c-1.2,0-2.2,1-2.2,3.8H380.8z"/>
	<path class="st0" d="M390.2,6.9c0.9-0.6,2-1,3.1-1c1.6,0,2.6,0.8,2.9,1.2c0.5,0.5,1,1.3,1,3v6.4c0,0.7,0,1.4,0.1,1.9h-1.6l-0.1-1.7
		h0c-0.5,0.9-1.4,1.8-3.1,1.8c-1.8,0-3.2-1.2-3.2-3.5c0-2.4,1.4-4.1,5.2-4.1h1.1v-0.6c0-0.9-0.1-1.4-0.4-2c-0.4-0.6-1.1-0.8-1.8-0.8
		c-1.1,0-2.2,0.5-2.8,1.3L390.2,6.9z M395.5,12.3c-0.3,0-0.8,0-1.3,0c-2.1,0-3.2,1.1-3.2,2.5c0,1.3,0.6,2.1,1.9,2.1
		c1.6,0,2.6-1.4,2.6-3.1V12.3z"/>
	<path class="st0" d="M400,0.3h1.8v18H400V0.3z"/>
	<path class="st0" d="M406,12.8c0,2.8,1,4.2,3,4.2c0.9,0,1.9-0.5,2.5-1l0.1,1.8c-0.9,0.5-2,0.7-3.1,0.7c-2.9,0-4.4-2.4-4.4-6.3
		s1.5-6.3,4.3-6.3c2.5,0,3.9,2.2,3.9,5.8v1.1H406z M410.4,11.2c0-2.5-0.7-3.8-2.2-3.8c-1.2,0-2.2,1-2.2,3.8H410.4z"/>
	<path class="st0" d="M414.2,8.7c0-0.9-0.1-1.8-0.1-2.6h1.8l0.1,1.9h0c0.6-1.5,1.5-2.1,3.1-2.1v2c-0.2,0-0.5-0.1-0.7-0.1
		c-1.4,0-2.4,1.3-2.4,4v6.5h-1.8V8.7z"/>
	<path class="st0" d="M425.4,18.1c-0.4,0.2-1,0.3-1.5,0.3c-1.7,0-2.5-0.7-2.5-2.9V7.7h-1.8V6h1.8V3.6l1.8-0.6V6h2.3v1.6h-2.3v7.2
		c0,1.4,0.3,1.9,1.1,1.9c0.5,0,0.8-0.1,1.1-0.3V18.1z"/>
	<path class="st0" d="M427.4,6.9c0.9-0.6,2-1,3.1-1c1.6,0,2.6,0.8,2.9,1.2c0.5,0.5,1,1.3,1,3v6.4c0,0.7,0,1.4,0.1,1.9h-1.6l-0.1-1.7
		h0c-0.5,0.9-1.4,1.8-3.1,1.8c-1.8,0-3.2-1.2-3.2-3.5c0-2.4,1.4-4.1,5.2-4.1h1.1v-0.6c0-0.9-0.1-1.4-0.4-2c-0.4-0.6-1.1-0.8-1.8-0.8
		c-1.1,0-2.2,0.5-2.8,1.3L427.4,6.9z M432.7,12.3c-0.3,0-0.8,0-1.3,0c-2.1,0-3.2,1.1-3.2,2.5c0,1.3,0.6,2.1,1.9,2.1
		c1.6,0,2.6-1.4,2.6-3.1V12.3z"/>
	<path class="st0" d="M446.1,5.9c2.9,0,4.4,2.4,4.4,6.3s-1.5,6.3-4.4,6.3s-4.4-2.4-4.4-6.3S443.1,5.9,446.1,5.9z M446.1,16.8
		c1.7,0,2.5-1.6,2.5-4.7s-0.8-4.7-2.5-4.7s-2.5,1.6-2.5,4.7S444.3,16.8,446.1,16.8z"/>
	<path class="st0" d="M457.9,0.3h1.8v18h-1.8V0.3z"/>
	<path class="st0" d="M463,6.9c0.9-0.6,2-1,3.1-1c1.6,0,2.6,0.8,2.9,1.2c0.5,0.5,1,1.3,1,3v6.4c0,0.7,0,1.4,0.1,1.9h-1.6l-0.1-1.7h0
		c-0.5,0.9-1.4,1.8-3.1,1.8c-1.8,0-3.2-1.2-3.2-3.5c0-2.4,1.4-4.1,5.2-4.1h1.1v-0.6c0-0.9-0.1-1.4-0.4-2c-0.4-0.6-1.1-0.8-1.8-0.8
		c-1.1,0-2.2,0.5-2.8,1.3L463,6.9z M468.3,12.3c-0.3,0-0.8,0-1.3,0c-2.1,0-3.2,1.1-3.2,2.5c0,1.3,0.6,2.1,1.9,2.1
		c1.6,0,2.6-1.4,2.6-3.1V12.3z"/>
	<path class="st0" d="M484.2,8.2c-0.6-0.4-1.3-0.6-2.1-0.6c-1.8,0-3,1.4-3,4.7c0,2.8,1.2,4.4,3,4.4c0.9,0,1.6-0.3,2.2-0.6l0.1,1.8
		c-0.5,0.3-1.5,0.5-2.3,0.5c-3.3,0-4.9-2.7-4.9-6.2c0-4,1.9-6.4,4.9-6.4c0.8,0,1.6,0.2,2.2,0.5L484.2,8.2z"/>
	<path class="st0" d="M490,5.9c2.9,0,4.4,2.4,4.4,6.3s-1.5,6.3-4.4,6.3s-4.4-2.4-4.4-6.3S487.1,5.9,490,5.9z M490,16.8
		c1.7,0,2.5-1.6,2.5-4.7s-0.8-4.7-2.5-4.7s-2.5,1.6-2.5,4.7S488.3,16.8,490,16.8z"/>
	<path class="st0" d="M496.5,8.7c0-0.9-0.1-1.8-0.1-2.6h1.8l0.1,1.8h0c0.6-1.4,1.5-2,2.8-2c1.9,0,3.2,1.2,3.2,3.9v8.5h-1.8v-7.9
		c0-1.9-0.6-2.8-1.8-2.8c-1.4,0-2.3,1.1-2.3,3.3v7.4h-1.8V8.7z"/>
	<path class="st0" d="M513.4,8.2c-0.6-0.4-1.3-0.6-2.1-0.6c-1.8,0-3,1.4-3,4.7c0,2.8,1.2,4.4,3,4.4c0.9,0,1.6-0.3,2.2-0.6l0.1,1.8
		c-0.5,0.3-1.5,0.5-2.3,0.5c-3.3,0-4.9-2.7-4.9-6.2c0-4,1.9-6.4,4.9-6.4c0.8,0,1.6,0.2,2.2,0.5L513.4,8.2z"/>
	<path class="st0" d="M516.7,12.8c0,2.8,1,4.2,3,4.2c0.9,0,1.9-0.5,2.5-1l0.1,1.8c-0.9,0.5-2,0.7-3.1,0.7c-2.9,0-4.4-2.4-4.4-6.3
		s1.5-6.3,4.3-6.3c2.5,0,3.9,2.2,3.9,5.8v1.1H516.7z M521.1,11.2c0-2.5-0.7-3.8-2.2-3.8c-1.2,0-2.2,1-2.2,3.8H521.1z"/>
	<path class="st0" d="M525,8.7c0-0.9-0.1-1.8-0.1-2.6h1.8l0.1,1.8h0c0.6-1.4,1.5-2,2.8-2c1.9,0,3.2,1.2,3.2,3.9v8.5h-1.8v-7.9
		c0-1.9-0.6-2.8-1.8-2.8c-1.4,0-2.3,1.1-2.3,3.3v7.4H525V8.7z"/>
	<path class="st0" d="M540.2,18.1c-0.4,0.2-1,0.3-1.5,0.3c-1.7,0-2.5-0.7-2.5-2.9V7.7h-1.8V6h1.8V3.6L538,3V6h2.3v1.6H538v7.2
		c0,1.4,0.3,1.9,1.1,1.9c0.5,0,0.8-0.1,1.1-0.3V18.1z"/>
	<path class="st0" d="M541.8,8.7c0-0.9-0.1-1.8-0.1-2.6h1.8l0.1,1.9h0c0.6-1.5,1.5-2.1,3.1-2.1v2c-0.2,0-0.5-0.1-0.7-0.1
		c-1.4,0-2.4,1.3-2.4,4v6.5h-1.8V8.7z"/>
	<path class="st0" d="M548.6,6.9c0.9-0.6,2-1,3.1-1c1.6,0,2.6,0.8,2.9,1.2c0.5,0.5,1,1.3,1,3v6.4c0,0.7,0,1.4,0.1,1.9H554l-0.1-1.7
		h0c-0.5,0.9-1.4,1.8-3.1,1.8c-1.8,0-3.2-1.2-3.2-3.5c0-2.4,1.4-4.1,5.2-4.1h1.1v-0.6c0-0.9-0.1-1.4-0.4-2c-0.4-0.6-1.1-0.8-1.8-0.8
		c-1.1,0-2.2,0.5-2.8,1.3L548.6,6.9z M553.9,12.3c-0.3,0-0.8,0-1.3,0c-2.1,0-3.2,1.1-3.2,2.5c0,1.3,0.6,2.1,1.9,2.1
		c1.6,0,2.6-1.4,2.6-3.1V12.3z"/>
	<path class="st0" d="M564.6,8.2c-0.6-0.4-1.3-0.6-2.1-0.6c-1.8,0-3,1.4-3,4.7c0,2.8,1.2,4.4,3,4.4c0.9,0,1.6-0.3,2.2-0.6l0.1,1.8
		c-0.5,0.3-1.5,0.5-2.3,0.5c-3.3,0-4.9-2.7-4.9-6.2c0-4,1.9-6.4,4.9-6.4c0.8,0,1.6,0.2,2.2,0.5L564.6,8.2z"/>
	<path class="st0" d="M568.6,1v2.4h-2V1H568.6z M566.7,6h1.8v12.2h-1.8V6z"/>
	<path class="st0" d="M575.2,5.9c2.9,0,4.4,2.4,4.4,6.3s-1.5,6.3-4.4,6.3s-4.4-2.4-4.4-6.3S572.3,5.9,575.2,5.9z M575.2,16.8
		c1.7,0,2.5-1.6,2.5-4.7s-0.8-4.7-2.5-4.7s-2.5,1.6-2.5,4.7S573.5,16.8,575.2,16.8z M575.6,0.9h2.1l-2.2,3.5h-1.4L575.6,0.9z"/>
	<path class="st0" d="M581.8,8.7c0-0.9-0.1-1.8-0.1-2.6h1.8l0.1,1.8h0c0.6-1.4,1.5-2,2.8-2c1.9,0,3.2,1.2,3.2,3.9v8.5h-1.8v-7.9
		c0-1.9-0.6-2.8-1.8-2.8c-1.4,0-2.3,1.1-2.3,3.3v7.4h-1.8V8.7z"/>
	<path class="st0" d="M591.5,9.1c0.2,0.2,1,0.5,1.6,0.5c1,0,1.9-0.6,1.9-2.1c0-1.3-0.9-1.8-1.9-1.8h-0.7V4.8c1.2,0,2.6-0.2,2.6-1.8
		c0-0.3-0.1-1.7-1.8-1.7c-0.4,0-0.9,0.1-1.4,0.6l-0.1-0.9c0.3-0.3,1.2-0.5,1.6-0.5c1.9,0,2.5,1.5,2.5,2.5c0,1.2-0.6,1.9-1.6,2.2v0
		c0.7,0.1,1.6,1,1.6,2.5c0,1.9-1.1,2.8-2.8,2.8c-0.9,0-1.3-0.2-1.6-0.4L591.5,9.1z"/>
	<path class="st0" d="M598.1,12.1h-0.7L598,9h0.9L598.1,12.1z"/>
	<path class="st0" d="M601.1,9.1c0.6,0.4,1.2,0.5,1.5,0.5c1.4,0,1.9-1.3,1.9-2.4c0-1.1-0.5-2.2-1.9-2.2c-0.7,0-0.9,0.1-1.4,0.3
		c0,0,0,0,0,0V0.5h3.7v0.8h-3v3.1c0.2-0.1,0.6-0.2,1-0.2c2,0,2.5,1.4,2.5,3c0,1.8-0.9,3.2-2.8,3.2c-0.8,0-1.1-0.2-1.5-0.4L601.1,9.1
		z"/>
</g>
</svg>
