<!-- Generator: Adobe Illustrator 20.1.0, SVG Export Plug-In  -->
<svg version="1.1"
	 xmlns="http://www.w3.org/2000/svg" xmlns:xlink="http://www.w3.org/1999/xlink" xmlns:a="http://ns.adobe.com/AdobeSVGViewerExtensions/3.0/"
	 x="0px" y="0px" width="285.8px" height="32.6px" viewBox="0 0 285.8 32.6"
	 style="overflow:scroll;enable-background:new 0 0 285.8 32.6;" xml:space="preserve">
<style type="text/css">
	.st0{fill:#8DC63F;}
</style>
<defs>
</defs>
<g>
	<path class="st0" d="M5.9,4.8c-1-0.3-2-0.5-2.8-0.7C2.4,3.9,2.3,3.5,2.3,3.2l0-0.1c0.1-0.3,0.2-0.6,0.5-0.7
		c0.3-0.1,0.6-0.2,0.9-0.2l0.1,0c0.8,0.1,1.3,0.5,1.5,1.3l0.1,0.2h1.5l0-0.3C6.7,1.7,5.8,0.8,4.1,0.5L4,0.5c-0.2,0-0.3,0-0.5,0
		c-0.7,0-1.3,0.2-1.9,0.6C1,1.6,0.6,2.2,0.5,3c0,0.1,0,0.2,0,0.3c0,0.6,0.2,1.1,0.5,1.5c0.4,0.5,1.2,0.9,2.4,1.1
		c1.1,0.2,1.9,0.5,2.4,0.6c0.4,0.2,0.7,0.4,0.9,0.8c0.1,0.2,0.1,0.5,0.1,0.8c0,0.2,0,0.4,0,0.6c0,0.2,0,0.3-0.1,0.4
		c-0.4,1.5-1.2,2.2-2.5,2.2c-0.1,0-0.3,0-0.4,0c-1.3-0.2-2-1.2-2-3.1c0-0.2,0-0.4,0-0.7l0-0.3H0l0,0.2C0,7.7,0,8,0,8.1
		c0,2.8,1.2,4.4,3.6,4.7c0.2,0,0.5,0,0.7,0c2.2,0,3.5-1.2,4.1-3.6l0.1-0.4c0-0.3,0.1-0.6,0.1-0.9c0-0.7-0.1-1.2-0.4-1.7
		C7.7,5.6,7,5.1,5.9,4.8z"/>
	<rect x="10.8" y="3.6" class="st0" width="1.7" height="9.3"/>
	<path class="st0" d="M11.7,2.3c0.3,0,0.6-0.1,0.8-0.3c0.2-0.2,0.3-0.5,0.3-0.8s-0.1-0.6-0.3-0.8c-0.4-0.5-1.2-0.5-1.7,0
		c-0.2,0.2-0.3,0.5-0.3,0.8c0,0.3,0.1,0.6,0.3,0.8C11.1,2.2,11.4,2.3,11.7,2.3z"/>
	<path class="st0" d="M21.4,7.9c-0.3-0.6-0.9-1.1-1.8-1.3c-0.8-0.2-1.5-0.4-2.1-0.6c-0.4-0.1-0.4-0.3-0.4-0.5l0-0.1
		c0-0.2,0.1-0.4,0.3-0.4c0.1-0.1,0.3-0.1,0.4-0.1c0,0,0.1,0,0.1,0l0.1,0c0.5,0.1,0.8,0.4,0.9,0.9L19,6h1.6l0-0.3
		c-0.1-1.4-0.8-2.3-2.2-2.5l-0.1,0c-0.8-0.1-1.4,0-2,0.4c-0.5,0.4-0.9,0.9-1,1.5c0,0.1,0,0.2,0,0.3c0,0.5,0.1,0.9,0.4,1.2
		c0.3,0.4,0.9,0.7,1.9,1c0.8,0.2,1.4,0.4,1.8,0.5c0.3,0.1,0.5,0.3,0.6,0.5c0.1,0.1,0.1,0.3,0.1,0.5c0,0.1,0,0.3,0,0.5
		c0,0.1,0,0.2-0.1,0.3c-0.3,1-0.8,1.5-1.7,1.5c-0.1,0-0.2,0-0.4,0c-0.8-0.2-1.2-0.8-1.2-2c0-0.1,0-0.3,0-0.6l0-0.3h-1.8l0,0.2
		c0,0.3,0,0.5,0,0.6c0,2.1,0.9,3.4,2.8,3.7c0.2,0,0.5,0.1,0.7,0.1c1.7,0,2.8-0.9,3.3-2.8l0.1-0.3c0-0.3,0.1-0.6,0.1-0.8
		C21.7,8.7,21.6,8.2,21.4,7.9z"/>
	<polygon class="st0" points="23.9,12.9 25.6,12.9 25.6,5.2 27,5.2 27,3.6 25.6,3.6 25.6,1.6 23.9,1.6 23.9,3.6 22.5,3.6 22.5,5.2 
		23.9,5.2 	"/>
	<path class="st0" d="M30.9,13L30.9,13L30.9,13c2.5,0,3.8-1.5,4-4.4l0-0.3h-1.6l0,0.2c-0.1,1.7-0.8,2.6-2.1,2.7c0,0-0.1,0-0.1,0
		c-0.4,0-1.8,0-1.8-3.2c0-0.2,0-0.4,0-0.5h5.3l0-0.3c-0.2-2.5-1.2-3.8-3-3.9c-0.1,0-0.3,0-0.4,0c-1.5,0-2.6,0.8-3.3,2.2
		c-0.3,0.6-0.4,1.4-0.4,2.2c0,0.6,0.1,1.3,0.2,2C28.1,11.9,29.2,12.9,30.9,13z M31.2,5.1L31.2,5.1c0.9,0,1.3,0.3,1.5,0.9h-3.1
		C30,5.4,30.5,5.1,31.2,5.1z"/>
	<path class="st0" d="M45.2,7.9c0,0.1,0,0.2,0,0.3v4.7h1.7l0-4.8c0-0.2,0-0.3,0-0.5c0-2.7-1.1-4-3.2-4c-0.9,0-1.6,0.3-2.1,0.7
		c-0.4-0.4-1-0.6-1.8-0.7c-0.8,0-1.4,0.2-1.8,0.4V3.6h-1.7v9.3H38l0-6.1c0.2-1.1,0.7-1.6,1.5-1.6h0.1c0.9,0,1.3,0.4,1.3,1.3v6.4h1.8
		v-7C43,5.2,43.5,5,44.2,5.2C44.9,5.3,45.2,6.2,45.2,7.9z"/>
	<path class="st0" d="M52.1,12.9h3.2l0-6.4c-0.3-2-1.5-3-3.5-3.1c-0.8,0-1.5,0.3-2.2,0.7l-0.3,0.2l1.4,1.1L51,5.3
		C51.3,5.1,51.6,5,51.9,5c0.8,0,1.3,0.5,1.6,1.3C53.1,6.1,52.5,6,51.8,6c-2.1,0-3.3,1.1-3.3,3.3v0.2C48.7,11.7,49.9,12.9,52.1,12.9z
		 M50.3,9.1c0-1,0.5-1.5,1.5-1.6c1,0,1.6,0.5,1.8,1.6v1.9h-1.6c-1.1,0-1.7-0.6-1.7-1.7C50.3,9.3,50.3,9.2,50.3,9.1z"/>
	<path class="st0" d="M68,3.9c-0.4-0.3-1-0.4-1.8-0.4C64,3.5,62.9,5,62.9,8c0,0.3,0,0.5,0,0.8c0.1,2.7,0.9,4,2.4,4
		c0.1,0,0.1,0,0.1,0h4.3v-12H68V3.9z M66.1,5.1h0.1c1,0,1.6,0.5,1.8,1.6l0,4.5h-2.4c-0.7,0-1.1-0.8-1.2-2.5c0-0.2,0-0.4,0-0.6
		C64.5,5.1,65.7,5.1,66.1,5.1z"/>
	<path class="st0" d="M77.3,8.6c-0.1,1.7-0.8,2.6-2.1,2.7c0,0-0.1,0-0.1,0c-0.4,0-1.8,0-1.8-3.2c0-0.2,0-0.4,0-0.5h5.3l0-0.3
		c-0.2-2.5-1.2-3.8-3-3.9c-0.1,0-0.3,0-0.4,0c-1.5,0-2.6,0.8-3.3,2.2c-0.3,0.6-0.4,1.4-0.4,2.2c0,0.6,0.1,1.3,0.2,2
		c0.3,2,1.4,3,3.2,3.1h0h0c2.5,0,3.8-1.5,4-4.4l0-0.3h-1.6L77.3,8.6z M75.1,5.1L75.1,5.1c0.9,0,1.3,0.3,1.5,0.9h-3.1
		C73.9,5.4,74.4,5.1,75.1,5.1z"/>
	<rect x="86.7" y="0.8" class="st0" width="1.7" height="12"/>
	<path class="st0" d="M92.3,2.3c0.3,0,0.6-0.1,0.8-0.3c0.2-0.2,0.3-0.5,0.3-0.8s-0.1-0.6-0.3-0.8c-0.4-0.5-1.2-0.5-1.7,0
		c-0.2,0.2-0.3,0.5-0.3,0.8c0,0.3,0.1,0.6,0.3,0.8C91.7,2.2,92,2.3,92.3,2.3z"/>
	<rect x="91.4" y="3.6" class="st0" width="1.7" height="9.3"/>
	<path class="st0" d="M102.7,8.8c0-0.3,0-0.6,0-0.8c0-3-1.1-4.5-3.4-4.5c-0.8,0-1.4,0.2-1.8,0.5V0.8h-1.7v12h4.3c0.1,0,0.1,0,0.2,0
		C101.7,12.9,102.5,11.5,102.7,8.8z M99.3,5.1h0.1c0.4,0,1.6,0,1.6,3.1v0.6c0,1.6-0.4,2.5-1.2,2.5h-2.4l0-4.5
		C97.7,5.6,98.3,5.1,99.3,5.1z"/>
	<path class="st0" d="M107.5,13L107.5,13L107.5,13c2.5,0,3.8-1.5,4-4.4l0-0.3H110l0,0.2c-0.1,1.7-0.8,2.6-2.1,2.7c0,0-0.1,0-0.1,0
		c-0.4,0-1.8,0-1.8-3.2c0-0.2,0-0.4,0-0.5h5.3l0-0.3c-0.2-2.5-1.2-3.8-3-3.9c-0.1,0-0.3,0-0.4,0c-1.5,0-2.6,0.8-3.3,2.2
		c-0.3,0.6-0.4,1.4-0.4,2.2c0,0.6,0.1,1.3,0.2,2C104.7,11.9,105.8,12.9,107.5,13z M107.8,5.1L107.8,5.1c0.9,0,1.3,0.3,1.5,0.9h-3.1
		C106.6,5.4,107.1,5.1,107.8,5.1z"/>
	<path class="st0" d="M115,3.6c-0.3,0-0.6,0.1-0.8,0.3V3.6h-1.7v9.3h1.7l0-6.7c0.2-0.8,0.4-1,0.5-1c0.1-0.1,0.3-0.1,0.5-0.1
		c0.1,0,0.3,0,0.7,0.1l0.2,0.1l0.7-1.5l-0.3-0.1C116.1,3.5,115.6,3.5,115,3.6z"/>
	<path class="st0" d="M124.2,12.9l0-6.4c-0.3-2-1.5-3-3.5-3.1c-0.8,0-1.5,0.3-2.2,0.7l-0.3,0.2l1.4,1.1l0.2-0.1
		c0.3-0.2,0.6-0.3,0.9-0.3c0.8,0,1.3,0.5,1.6,1.3c-0.4-0.2-0.9-0.3-1.6-0.3c-2.1,0-3.3,1.1-3.3,3.3v0.2c0.1,2.3,1.3,3.4,3.6,3.4
		H124.2z M119.2,9.4c0-0.1,0-0.1,0-0.2c0-1,0.5-1.5,1.5-1.6c1,0,1.6,0.5,1.8,1.6v1.9h-1.6C119.8,11.1,119.3,10.5,119.2,9.4z"/>
	<path class="st0" d="M129.1,13c0.1,0,0.2,0,0.3,0c2.4-0.1,3.7-1.6,3.8-4.4l0-0.3l-1.8,0l0,0.2c0,1.7-0.7,2.6-2,2.8h-0.1
		c-1.1,0-1.7-0.6-1.8-1.7c-0.1-0.5-0.1-1-0.1-1.4c0-0.7,0.1-1.4,0.3-2c0.3-0.8,0.7-1.1,1.3-1.1c0.1,0,0.2,0,0.3,0
		c0.6,0,1.2,0.4,1.6,1l0.2,0.3l1.2-1.1l-0.1-0.2c-0.7-1.1-1.6-1.6-2.8-1.6h-0.2c-1.5,0-2.6,0.8-3.2,2.3c-0.3,0.8-0.4,1.6-0.4,2.5
		c0,0.7,0.1,1.4,0.3,2.1C126.3,12.2,127.4,13,129.1,13z"/>
	<rect x="135.5" y="3.6" class="st0" width="1.7" height="9.3"/>
	<path class="st0" d="M136.3,2.3c0.3,0,0.6-0.1,0.8-0.3c0.2-0.2,0.3-0.5,0.3-0.8s-0.1-0.6-0.3-0.8c-0.4-0.5-1.2-0.5-1.7,0
		c-0.2,0.2-0.3,0.5-0.3,0.8c0,0.3,0.1,0.6,0.3,0.8C135.7,2.2,136,2.3,136.3,2.3z"/>
	<polygon class="st0" points="145.4,0.3 142.7,0.3 141.6,3 143.2,3 	"/>
	<path class="st0" d="M143,3.2c-2.3,0-3.5,1.6-3.7,4.8c0.1,3.3,1.3,5,3.7,5c2.4,0,3.6-1.7,3.7-5C146.5,4.9,145.3,3.2,143,3.2z
		 M143,11.4c-1.3,0-1.9-1.1-2-3.2c0.1-2.1,0.8-3.1,2-3.1c1.2,0,1.8,1,1.9,3.1C144.9,10.3,144.3,11.4,143,11.4z"/>
	<path class="st0" d="M152.9,12.9h1.7V8c0-0.1,0-0.3,0-0.4c0-2.8-1-4.2-3.1-4.2c-0.8,0-1.4,0.1-1.8,0.4V3.6H148v9.3h1.7l0-6.1
		c0.2-1.1,0.8-1.7,1.8-1.7l0.1,0c0.3,0,1.4,0.2,1.4,2.7c0,0.1,0,0.3,0,0.4V12.9z"/>
	<path class="st0" d="M166.1,3.2c-2.3,0-3.6,1.4-3.8,4.3c0,0.3,0,0.6,0,0.8c0,3,1.1,4.5,3.4,4.5c0.8,0,1.4-0.1,1.8-0.2v3h1.7V3.6
		h-1.2C167.3,3.3,166.6,3.2,166.1,3.2z M165.9,4.9c0.5,0,1,0.1,1.5,0.3l0,4.4c-0.2,1.1-0.8,1.7-1.8,1.7h-0.1c-0.4,0-1.6,0-1.6-3.1
		c0-0.2,0-0.4,0-0.6C164,5.8,164.7,4.9,165.9,4.9z"/>
	<path class="st0" d="M176.1,9.7c-0.2,1.1-0.8,1.7-1.8,1.7h-0.1c-0.9,0-1.3-1-1.3-3.1V3.6h-1.7v4.9c0,3,1.1,4.5,3.1,4.5
		c0.8,0,1.4-0.1,1.8-0.4v0.4h1.7V3.6h-1.7L176.1,9.7z"/>
	<path class="st0" d="M185.3,8.6c-0.1,1.7-0.8,2.6-2.1,2.7c0,0-0.1,0-0.1,0c-0.4,0-1.8,0-1.8-3.2c0-0.2,0-0.4,0-0.5h5.3l0-0.3
		c-0.2-2.5-1.2-3.8-3-3.9c-0.1,0-0.3,0-0.4,0c-1.5,0-2.6,0.8-3.3,2.2c-0.3,0.6-0.4,1.4-0.4,2.2c0,0.6,0.1,1.3,0.2,2
		c0.3,2,1.4,3,3.2,3.1h0h0c2.5,0,3.8-1.5,4-4.4l0-0.3h-1.6L185.3,8.6z M183.2,5.1L183.2,5.1c0.9,0,1.3,0.3,1.5,0.9h-3.1
		C181.9,5.4,182.5,5.1,183.2,5.1z"/>
	<path class="st0" d="M201.3,8.4c0-0.3,0-0.5,0-0.8c-0.2-2.9-1.4-4.3-3.8-4.3c-0.6,0-1.2,0.1-1.9,0.3h-1.2v12.1h1.7v-3
		c0.4,0.2,1,0.2,1.8,0.2C200.2,12.9,201.3,11.4,201.3,8.4z M198,11.3h-0.1c-1,0-1.6-0.5-1.8-1.6V5.2c0.5-0.2,1.1-0.3,1.5-0.3
		c1.3,0,1.9,0.9,2,2.7v0.6C199.6,11.3,198.4,11.3,198,11.3z"/>
	<path class="st0" d="M208.4,8.6c-0.1,1.7-0.8,2.6-2.1,2.7c0,0-0.1,0-0.1,0c-0.4,0-1.8,0-1.8-3.2c0-0.2,0-0.4,0-0.5h5.3l0-0.3
		c-0.2-2.5-1.2-3.8-3-3.9c-0.1,0-0.3,0-0.4,0c-1.5,0-2.6,0.8-3.3,2.2c-0.3,0.6-0.4,1.4-0.4,2.2c0,0.6,0.1,1.3,0.2,2
		c0.3,2,1.4,3,3.2,3.1h0h0c2.5,0,3.8-1.5,4-4.4l0-0.3h-1.6L208.4,8.6z M206.2,5.1L206.2,5.1c0.9,0,1.3,0.3,1.5,0.9h-3.1
		C205,5.4,205.5,5.1,206.2,5.1z"/>
	<path class="st0" d="M213.2,5.2c0.1-0.1,0.3-0.1,0.5-0.1c0.1,0,0.3,0,0.7,0.1l0.2,0.1l0.7-1.5L215,3.7c-0.5-0.2-1-0.2-1.6-0.1
		c-0.3,0-0.6,0.1-0.8,0.3V3.6h-1.7v9.3h1.7l0-6.7C212.8,5.4,213.1,5.2,213.2,5.2z"/>
	<path class="st0" d="M222.5,12.9v-7c0.3-0.6,0.8-0.8,1.6-0.7c0.7,0.2,1,1.1,1,2.7c0,0.1,0,0.2,0,0.3v4.7h1.7l0-4.8
		c0-0.2,0-0.3,0-0.5c0-2.7-1.1-4-3.2-4c-0.9,0-1.6,0.3-2.1,0.7c-0.4-0.4-1-0.6-1.8-0.7c-0.8,0-1.4,0.2-1.8,0.4V3.6h-1.7v9.3h1.7
		l0-6.1c0.2-1.1,0.7-1.6,1.5-1.6h0.1c0.9,0,1.3,0.4,1.3,1.3v6.4H222.5z"/>
	<path class="st0" d="M230.3,2.3c0.3,0,0.6-0.1,0.8-0.3c0.2-0.2,0.3-0.5,0.3-0.8s-0.1-0.6-0.3-0.8c-0.4-0.5-1.2-0.5-1.7,0
		c-0.2,0.2-0.3,0.5-0.3,0.8c0,0.3,0.1,0.6,0.3,0.8C229.7,2.2,230,2.3,230.3,2.3z"/>
	<rect x="229.5" y="3.6" class="st0" width="1.7" height="9.3"/>
	<polygon class="st0" points="234.2,12.9 235.9,12.9 235.9,5.2 237.3,5.2 237.3,3.6 235.9,3.6 235.9,1.6 234.2,1.6 234.2,3.6 
		232.8,3.6 232.8,5.2 234.2,5.2 	"/>
	<path class="st0" d="M241.2,13L241.2,13L241.2,13c2.5,0,3.8-1.5,4-4.4l0-0.3h-1.6l0,0.2c-0.1,1.7-0.8,2.6-2.1,2.7c0,0-0.1,0-0.1,0
		c-0.4,0-1.8,0-1.8-3.2c0-0.2,0-0.4,0-0.5h5.3l0-0.3c-0.2-2.5-1.2-3.8-3-3.9c-0.1,0-0.3,0-0.4,0c-1.5,0-2.6,0.8-3.3,2.2
		c-0.3,0.6-0.4,1.4-0.4,2.2c0,0.6,0.1,1.3,0.2,2C238.4,11.9,239.5,12.9,241.2,13z M241.5,5.1L241.5,5.1c0.9,0,1.3,0.3,1.5,0.9h-3.1
		C240.3,5.4,240.8,5.1,241.5,5.1z"/>
	<path class="st0" d="M255.9,12.9h3.2l0-6.4c-0.3-2-1.5-3-3.5-3.1c-0.8,0-1.5,0.3-2.2,0.7l-0.3,0.2l1.4,1.1l0.2-0.1
		c0.3-0.2,0.6-0.3,0.9-0.3c0.8,0,1.3,0.5,1.6,1.3c-0.4-0.2-0.9-0.3-1.6-0.3c-2.1,0-3.3,1.1-3.3,3.3v0.2
		C252.5,11.7,253.7,12.9,255.9,12.9z M254.1,9.1c0-1,0.5-1.5,1.5-1.6c1,0,1.6,0.5,1.8,1.6v1.9h-1.6c-1.1,0-1.7-0.6-1.7-1.7
		C254.1,9.3,254.1,9.2,254.1,9.1z"/>
	<rect x="267.2" y="0.8" class="st0" width="1.7" height="12"/>
	<path class="st0" d="M274.1,3.2c-2.3,0-3.5,1.6-3.7,4.8c0.1,3.3,1.3,5,3.7,5c2.4,0,3.6-1.7,3.7-5C277.6,4.9,276.4,3.2,274.1,3.2z
		 M274.1,11.4c-1.3,0-1.9-1.1-2-3.2c0.1-2.1,0.8-3.1,2-3.1c1.2,0,1.8,1,1.9,3.1C276,10.3,275.4,11.4,274.1,11.4z"/>
	<path class="st0" d="M285.5,7.9c-0.3-0.6-0.9-1.1-1.8-1.3c-0.8-0.2-1.5-0.4-2.1-0.6c-0.4-0.1-0.4-0.3-0.4-0.5l0-0.1
		c0-0.2,0.1-0.4,0.3-0.4c0.1-0.1,0.3-0.1,0.4-0.1c0,0,0.1,0,0.1,0l0.1,0c0.5,0.1,0.8,0.4,0.9,0.9l0,0.2h1.6l0-0.3
		c-0.1-1.4-0.8-2.3-2.2-2.5l-0.1,0c-0.8-0.1-1.4,0-2,0.4c-0.5,0.4-0.9,0.9-1,1.5c0,0.1,0,0.2,0,0.3c0,0.5,0.1,0.9,0.4,1.2
		c0.3,0.4,0.9,0.7,1.9,1c0.8,0.2,1.4,0.4,1.8,0.5c0.3,0.1,0.5,0.3,0.6,0.5C284,8.9,284,9,284,9.2c0,0.1,0,0.3,0,0.5
		c0,0.1,0,0.2-0.1,0.3c-0.3,1-0.8,1.5-1.7,1.5c-0.1,0-0.2,0-0.4,0c-0.8-0.2-1.2-0.8-1.2-2c0-0.1,0-0.3,0-0.6l0-0.3h-1.8l0,0.2
		c0,0.3,0,0.5,0,0.6c0,2.1,0.9,3.4,2.8,3.7c0.2,0,0.5,0.1,0.7,0.1c1.7,0,2.8-0.9,3.3-2.8l0.1-0.3c0-0.3,0.1-0.6,0.1-0.8
		C285.8,8.7,285.7,8.2,285.5,7.9z"/>
	<path class="st0" d="M11.7,20.2c-0.6,0-1.2,0.1-1.9,0.3H8.6v12.1h1.7v-3c0.4,0.2,1,0.2,1.8,0.2c2.2,0,3.4-1.5,3.4-4.5
		c0-0.3,0-0.5,0-0.8C15.3,21.7,14,20.2,11.7,20.2z M12.3,28.3h-0.1c-1,0-1.6-0.5-1.8-1.6v-4.5c0.5-0.2,1.1-0.3,1.5-0.3
		c1.3,0,1.9,0.9,2,2.7v0.6C13.9,28.3,12.7,28.3,12.3,28.3z"/>
	<path class="st0" d="M19.5,20.6c-0.3,0-0.6,0.1-0.8,0.3v-0.3H17v9.3h1.7l0-6.7c0.2-0.8,0.4-1,0.5-1c0.1-0.1,0.3-0.1,0.5-0.1
		c0.1,0,0.3,0,0.7,0.1l0.2,0.1l0.7-1.5l-0.3-0.1C20.6,20.5,20.1,20.5,19.5,20.6z"/>
	<path class="st0" d="M25.4,20.2c-2.3,0-3.5,1.6-3.7,4.8c0.1,3.3,1.3,5,3.7,5c2.4,0,3.6-1.7,3.7-5C28.9,21.9,27.6,20.2,25.4,20.2z
		 M25.4,28.4c-1.3,0-1.9-1.1-2-3.2c0.1-2.1,0.8-3.1,2-3.1c1.2,0,1.8,1,1.9,3.1C27.3,27.3,26.6,28.4,25.4,28.4z"/>
	<path class="st0" d="M34.1,20.5c-0.8,0-1.4,0.2-1.8,0.5v-3.1h-1.7v12h4.3c0.1,0,0.1,0,0.2,0c1.5,0,2.3-1.4,2.4-4c0-0.3,0-0.6,0-0.8
		C37.4,22,36.3,20.5,34.1,20.5z M34.1,22.1h0.1c0.4,0,1.6,0,1.6,3.1v0.6c0,1.6-0.4,2.5-1.2,2.5h-2.4l0-4.5
		C32.5,22.6,33,22.1,34.1,22.1z"/>
	<rect x="39.9" y="20.6" class="st0" width="1.7" height="9.3"/>
	<path class="st0" d="M39.9,17.3c-0.2,0.2-0.3,0.5-0.3,0.8c0,0.3,0.1,0.6,0.3,0.8c0.2,0.2,0.5,0.3,0.8,0.3c0.3,0,0.6-0.1,0.8-0.3
		c0.2-0.2,0.3-0.5,0.3-0.8c0-0.3-0.1-0.6-0.3-0.8C41.2,16.9,40.4,16.9,39.9,17.3z"/>
	<polygon class="st0" points="47.6,20 49.9,17.3 47.2,17.3 46,20 	"/>
	<path class="st0" d="M47.4,20.2c-2.3,0-3.5,1.6-3.7,4.8c0.1,3.3,1.3,5,3.7,5c2.4,0,3.6-1.7,3.7-5C50.9,21.9,49.7,20.2,47.4,20.2z
		 M47.4,28.4c-1.3,0-1.9-1.1-2-3.2c0.1-2.1,0.8-3.1,2-3.1c1.2,0,1.8,1,1.9,3.1C49.3,27.3,48.7,28.4,47.4,28.4z"/>
	<polygon class="st0" points="54.7,18.6 53,18.6 53,20.6 51.6,20.6 51.6,22.2 53,22.2 53,29.9 54.7,29.9 54.7,22.2 56.1,22.2 
		56.1,20.6 54.7,20.6 	"/>
	<path class="st0" d="M58,17.3c-0.2,0.2-0.3,0.5-0.3,0.8c0,0.3,0.1,0.6,0.3,0.8c0.2,0.2,0.5,0.3,0.8,0.3c0.3,0,0.6-0.1,0.8-0.3
		c0.2-0.2,0.3-0.5,0.3-0.8c0-0.3-0.1-0.6-0.3-0.8C59.3,16.9,58.5,16.9,58,17.3z"/>
	<rect x="58" y="20.6" class="st0" width="1.7" height="9.3"/>
	<path class="st0" d="M67.9,25.6c0,1.7-0.7,2.6-2,2.8h-0.1c-1.1,0-1.7-0.6-1.8-1.7c-0.1-0.5-0.1-1-0.1-1.4c0-0.7,0.1-1.4,0.3-2
		c0.3-0.8,0.7-1.1,1.3-1.1c0.1,0,0.2,0,0.3,0c0.6,0,1.2,0.4,1.6,1l0.2,0.3l1.2-1.1l-0.1-0.2C68,21,67,20.5,65.8,20.5h-0.2
		c-1.5,0-2.6,0.8-3.2,2.3c-0.3,0.8-0.4,1.6-0.4,2.5c0,0.7,0.1,1.4,0.3,2.1c0.4,1.7,1.5,2.6,3.3,2.6c0.1,0,0.2,0,0.3,0
		c2.4-0.1,3.7-1.6,3.8-4.4l0-0.3l-1.8,0L67.9,25.6z"/>
	<path class="st0" d="M74.3,20.2c-2.3,0-3.5,1.6-3.7,4.8c0.1,3.3,1.3,5,3.7,5c2.4,0,3.6-1.7,3.7-5C77.8,21.9,76.6,20.2,74.3,20.2z
		 M74.3,28.4c-1.3,0-1.9-1.1-2-3.2c0.1-2.1,0.8-3.1,2-3.1c1.2,0,1.8,1,1.9,3.1C76.2,27.3,75.6,28.4,74.3,28.4z"/>
	<path class="st0" d="M83.9,23.6c-0.8-0.2-1.5-0.4-2.1-0.6c-0.4-0.1-0.4-0.3-0.4-0.5l0-0.1c0-0.2,0.1-0.4,0.3-0.4
		c0.1-0.1,0.3-0.1,0.4-0.1c0,0,0.1,0,0.1,0l0.1,0c0.5,0.1,0.8,0.4,0.9,0.9l0,0.2h1.6l0-0.3c-0.1-1.4-0.8-2.3-2.2-2.5l-0.1,0
		c-0.8-0.1-1.4,0-2,0.4c-0.5,0.4-0.9,0.9-1,1.5c0,0.1,0,0.2,0,0.3c0,0.5,0.1,0.9,0.4,1.2c0.3,0.4,0.9,0.7,1.9,1
		c0.8,0.2,1.4,0.4,1.8,0.5c0.3,0.1,0.5,0.3,0.6,0.5c0.1,0.1,0.1,0.3,0.1,0.5c0,0.1,0,0.3,0,0.5c0,0.1,0,0.2-0.1,0.3
		c-0.3,1-0.8,1.5-1.7,1.5c-0.1,0-0.2,0-0.4,0c-0.8-0.2-1.2-0.8-1.2-2c0-0.1,0-0.3,0-0.6l0-0.3h-1.8l0,0.2c0,0.3,0,0.5,0,0.6
		c0,2.1,0.9,3.4,2.8,3.7c0.2,0,0.5,0.1,0.7,0.1c1.7,0,2.8-0.9,3.3-2.8l0.1-0.3c0-0.3,0.1-0.6,0.1-0.8c0-0.5-0.1-0.9-0.3-1.2
		C85.4,24.3,84.8,23.8,83.9,23.6z"/>
	<path class="st0" d="M97.9,23.6c-0.8-0.2-1.5-0.4-2.1-0.6c-0.4-0.1-0.4-0.3-0.4-0.5l0-0.1c0-0.2,0.1-0.4,0.3-0.4
		c0.1-0.1,0.3-0.1,0.4-0.1c0,0,0.1,0,0.1,0l0.1,0c0.5,0.1,0.8,0.4,0.9,0.9l0,0.2h1.6l0-0.3c-0.1-1.4-0.8-2.3-2.2-2.5l-0.1,0
		c-0.8-0.1-1.4,0-2,0.4c-0.5,0.4-0.9,0.9-1,1.5c0,0.1,0,0.2,0,0.3c0,0.5,0.1,0.9,0.4,1.2c0.3,0.4,0.9,0.7,1.9,1
		c0.8,0.2,1.4,0.4,1.8,0.5c0.3,0.1,0.5,0.3,0.6,0.5c0.1,0.1,0.1,0.3,0.1,0.5c0,0.1,0,0.3,0,0.5c0,0.1,0,0.2-0.1,0.3
		c-0.3,1-0.8,1.5-1.7,1.5c-0.1,0-0.2,0-0.4,0c-0.8-0.2-1.2-0.8-1.2-2c0-0.1,0-0.3,0-0.6l0-0.3h-1.8l0,0.2c0,0.3,0,0.5,0,0.6
		c0,2.1,0.9,3.4,2.8,3.7c0.2,0,0.5,0.1,0.7,0.1c1.7,0,2.8-0.9,3.3-2.8l0.1-0.3c0-0.3,0.1-0.6,0.1-0.8c0-0.5-0.1-0.9-0.3-1.2
		C99.4,24.3,98.8,23.8,97.9,23.6z"/>
	<path class="st0" d="M104.7,20.2c-2.3,0-3.5,1.6-3.7,4.8c0.1,3.3,1.3,5,3.7,5c2.4,0,3.6-1.7,3.7-5C108.2,21.9,107,20.2,104.7,20.2z
		 M104.7,28.4c-1.3,0-1.9-1.1-2-3.2c0.1-2.1,0.8-3.1,2-3.1c1.2,0,1.8,1,1.9,3.1C106.6,27.3,106,28.4,104.7,28.4z"/>
	<path class="st0" d="M113.4,20.5c-0.8,0-1.4,0.2-1.8,0.5v-3.1h-1.7v12h4.3c0.1,0,0.1,0,0.2,0c1.5,0,2.3-1.4,2.4-4
		c0-0.3,0-0.6,0-0.8C116.8,22,115.6,20.5,113.4,20.5z M113.4,22.1h0.1c0.4,0,1.6,0,1.6,3.1v0.6c0,1.6-0.4,2.5-1.2,2.5h-2.4l0-4.5
		C111.8,22.6,112.4,22.1,113.4,22.1z"/>
	<path class="st0" d="M120.9,20.6c-0.3,0-0.6,0.1-0.8,0.3v-0.3h-1.7v9.3h1.7l0-6.7c0.2-0.8,0.4-1,0.5-1c0.1-0.1,0.3-0.1,0.5-0.1
		c0.1,0,0.3,0,0.7,0.1l0.2,0.1l0.7-1.5l-0.3-0.1C122,20.5,121.5,20.5,120.9,20.6z"/>
	<path class="st0" d="M129.2,25.6c-0.1,1.7-0.8,2.6-2.1,2.7c0,0-0.1,0-0.1,0c-0.4,0-1.8,0-1.8-3.2c0-0.2,0-0.4,0-0.5h5.3l0-0.3
		c-0.2-2.5-1.2-3.8-3-3.9c-0.1,0-0.3,0-0.4,0c-1.5,0-2.6,0.8-3.3,2.2c-0.3,0.6-0.4,1.4-0.4,2.2c0,0.6,0.1,1.3,0.2,2
		c0.3,2,1.4,3,3.2,3.1h0h0c2.5,0,3.8-1.5,4-4.4l0-0.3h-1.6L129.2,25.6z M127,22.1L127,22.1c0.9,0,1.3,0.3,1.5,0.9h-3.1
		C125.8,22.4,126.3,22.1,127,22.1z"/>
	<path class="st0" d="M137.1,20.7c-0.1,2.8-0.7,5.1-1.8,6.8c-1.1-1.7-1.7-4-1.9-6.7l0-0.2l-1.8,0l0,0.3c0.2,3.5,1.3,6.6,3.4,9.4
		l0.2,0.2l0.2-0.2c1.9-2.2,3-5.4,3.4-9.4l0-0.3h-1.8L137.1,20.7z"/>
	<rect x="141.2" y="20.6" class="st0" width="1.7" height="9.3"/>
	<path class="st0" d="M141.3,17.3c-0.2,0.2-0.3,0.5-0.3,0.8c0,0.3,0.1,0.6,0.3,0.8c0.2,0.2,0.5,0.3,0.8,0.3c0.3,0,0.6-0.1,0.8-0.3
		c0.2-0.2,0.3-0.5,0.3-0.8c0-0.3-0.1-0.6-0.3-0.8C142.5,16.9,141.7,16.9,141.3,17.3z"/>
	<path class="st0" d="M150.7,20.7c-0.1,2.8-0.7,5.1-1.8,6.8c-1.1-1.7-1.7-4-1.9-6.7l0-0.2l-1.8,0l0,0.3c0.2,3.5,1.3,6.6,3.4,9.4
		l0.2,0.2l0.2-0.2c1.9-2.2,3-5.4,3.4-9.4l0-0.3h-1.8L150.7,20.7z"/>
	<rect x="154.8" y="20.6" class="st0" width="1.7" height="9.3"/>
	<path class="st0" d="M154.8,17.3c-0.2,0.2-0.3,0.5-0.3,0.8c0,0.3,0.1,0.6,0.3,0.8c0.2,0.2,0.5,0.3,0.8,0.3c0.3,0,0.6-0.1,0.8-0.3
		c0.2-0.2,0.3-0.5,0.3-0.8c0-0.3-0.1-0.6-0.3-0.8C156.1,16.9,155.3,16.9,154.8,17.3z"/>
	<path class="st0" d="M161.5,20.6c-0.3,0-0.6,0.1-0.8,0.3v-0.3H159v9.3h1.7l0-6.7c0.2-0.8,0.4-1,0.5-1c0.1-0.1,0.3-0.1,0.5-0.1
		c0.1,0,0.3,0,0.7,0.1l0.2,0.1l0.7-1.5l-0.3-0.1C162.6,20.5,162.1,20.5,161.5,20.6z"/>
	<path class="st0" d="M173.3,20.4c-0.8,0-1.5,0.3-2.2,0.7l-0.3,0.2l1.4,1.1l0.2-0.1c0.3-0.2,0.6-0.3,0.9-0.3c0.8,0,1.3,0.5,1.6,1.3
		c-0.4-0.2-0.9-0.3-1.6-0.3c-2.1,0-3.3,1.1-3.3,3.3v0.2c0.1,2.3,1.3,3.4,3.6,3.4h3.2l0-6.4C176.5,21.5,175.3,20.4,173.3,20.4z
		 M175.1,26.2v1.9h-1.6c-1.1,0-1.7-0.6-1.7-1.7c0-0.1,0-0.1,0-0.2c0-1,0.5-1.5,1.5-1.6C174.3,24.6,174.9,25.1,175.1,26.2z"/>
	<rect x="178.8" y="17.8" class="st0" width="1.7" height="12"/>
	<path class="st0" d="M192,20.2c-0.6,0-1.2,0.1-1.9,0.3h-1.2v12.1h1.7v-3c0.4,0.2,1,0.2,1.8,0.2c2.2,0,3.4-1.5,3.4-4.5
		c0-0.3,0-0.5,0-0.8C195.6,21.7,194.4,20.2,192,20.2z M192.6,28.3h-0.1c-1,0-1.6-0.5-1.8-1.6v-4.5c0.5-0.2,1.1-0.3,1.5-0.3
		c1.3,0,1.9,0.9,2,2.7v0.6C194.2,28.3,193,28.3,192.6,28.3z"/>
	<polygon class="st0" points="203.1,22.9 199.3,22.9 199.3,17.8 197.6,17.8 197.6,29.9 199.3,29.9 199.3,24.5 203.1,24.5 
		203.1,29.9 204.8,29.9 204.8,17.8 203.1,17.8 	"/>
	<path class="st0" d="M216.6,20.2c-2.3,0-3.6,1.4-3.8,4.3c0,0.3,0,0.6,0,0.8c0,3,1.1,4.5,3.4,4.5c0.7,0,1.2-0.1,1.6-0.3
		c-0.3,0.9-0.8,1.3-1.6,1.3c-0.3,0-0.6-0.1-0.9-0.3l-0.2-0.1l-1.4,1.1l0.3,0.2c0.6,0.5,1.4,0.7,2.2,0.7h0h0c2-0.1,3.2-1.1,3.5-3.1
		l0-8.8h-1.2C217.8,20.3,217.2,20.2,216.6,20.2z M216.4,21.9c0.5,0,1,0.1,1.5,0.3l0,4.4c-0.2,1.1-0.8,1.7-1.8,1.7H216
		c-0.4,0-1.6,0-1.6-3.1c0-0.2,0-0.4,0-0.6C214.5,22.8,215.2,21.9,216.4,21.9z"/>
	<path class="st0" d="M224.6,20.4c-0.8,0-1.5,0.3-2.2,0.7l-0.3,0.2l1.4,1.1l0.2-0.1c0.3-0.2,0.6-0.3,0.9-0.3c0.8,0,1.3,0.5,1.6,1.3
		c-0.4-0.2-0.9-0.3-1.6-0.3c-2.1,0-3.3,1.1-3.3,3.3v0.2c0.1,2.3,1.3,3.4,3.6,3.4h3.2l0-6.4C227.7,21.5,226.6,20.4,224.6,20.4z
		 M226.3,26.2v1.9h-1.6c-1.1,0-1.7-0.6-1.7-1.7c0-0.1,0-0.1,0-0.2c0-1,0.5-1.5,1.5-1.6C225.6,24.6,226.1,25.1,226.3,26.2z"/>
	<polygon class="st0" points="223.3,20 224.9,20 227.1,17.3 224.4,17.3 	"/>
	<path class="st0" d="M234.1,23.6c-0.8-0.2-1.5-0.4-2.1-0.6c-0.4-0.1-0.4-0.3-0.4-0.5l0-0.1c0-0.2,0.1-0.4,0.3-0.4
		c0.1-0.1,0.3-0.1,0.4-0.1c0,0,0.1,0,0.1,0l0.1,0c0.5,0.1,0.8,0.4,0.9,0.9l0,0.2h1.6l0-0.3c-0.1-1.4-0.8-2.3-2.2-2.5l-0.1,0
		c-0.8-0.1-1.4,0-2,0.4c-0.5,0.4-0.9,0.9-1,1.5c0,0.1,0,0.2,0,0.3c0,0.5,0.1,0.9,0.4,1.2c0.3,0.4,0.9,0.7,1.9,1
		c0.8,0.2,1.4,0.4,1.8,0.5c0.3,0.1,0.5,0.3,0.6,0.5c0.1,0.1,0.1,0.3,0.1,0.5c0,0.1,0,0.3,0,0.5c0,0.1,0,0.2-0.1,0.3
		c-0.3,1-0.8,1.5-1.7,1.5c-0.1,0-0.2,0-0.4,0c-0.8-0.2-1.2-0.8-1.2-2c0-0.1,0-0.3,0-0.6l0-0.3h-1.8l0,0.2c0,0.3,0,0.5,0,0.6
		c0,2.1,0.9,3.4,2.8,3.7c0.2,0,0.5,0.1,0.7,0.1c1.7,0,2.8-0.9,3.3-2.8l0.1-0.3c0-0.3,0.1-0.6,0.1-0.8c0-0.5-0.1-0.9-0.3-1.2
		C235.6,24.3,235,23.8,234.1,23.6z"/>
	<polygon class="st0" points="240.1,18.6 238.4,18.6 238.4,20.6 237,20.6 237,22.2 238.4,22.2 238.4,29.9 240.1,29.9 240.1,22.2 
		241.5,22.2 241.5,20.6 240.1,20.6 	"/>
	<path class="st0" d="M245.1,20.6c-0.3,0-0.6,0.1-0.8,0.3v-0.3h-1.7v9.3h1.7l0-6.7c0.2-0.8,0.4-1,0.5-1c0.1-0.1,0.3-0.1,0.5-0.1
		c0.1,0,0.3,0,0.7,0.1l0.2,0.1l0.7-1.5l-0.3-0.1C246.2,20.5,245.7,20.5,245.1,20.6z"/>
	<rect x="248.6" y="20.6" class="st0" width="1.7" height="9.3"/>
	<path class="st0" d="M248.7,17.3c-0.2,0.2-0.3,0.5-0.3,0.8c0,0.3,0.1,0.6,0.3,0.8c0.2,0.2,0.5,0.3,0.8,0.3c0.3,0,0.6-0.1,0.8-0.3
		c0.2-0.2,0.3-0.5,0.3-0.8c0-0.3-0.1-0.6-0.3-0.8C249.9,16.9,249.1,16.9,248.7,17.3z"/>
	<path class="st0" d="M258.5,25.6c0,1.7-0.7,2.6-2,2.8h-0.1c-1.1,0-1.7-0.6-1.8-1.7c-0.1-0.5-0.1-1-0.1-1.4c0-0.7,0.1-1.4,0.3-2
		c0.3-0.8,0.7-1.1,1.3-1.1c0.1,0,0.2,0,0.3,0c0.6,0,1.2,0.4,1.6,1l0.2,0.3l1.2-1.1l-0.1-0.2c-0.7-1.1-1.6-1.6-2.8-1.6h-0.2
		c-1.5,0-2.6,0.8-3.2,2.3c-0.3,0.8-0.4,1.6-0.4,2.5c0,0.7,0.1,1.4,0.3,2.1c0.4,1.7,1.5,2.6,3.3,2.6c0.1,0,0.2,0,0.3,0
		c2.4-0.1,3.7-1.6,3.8-4.4l0-0.3l-1.8,0L258.5,25.6z"/>
	<path class="st0" d="M264.9,20.2c-2.3,0-3.5,1.6-3.7,4.8c0.1,3.3,1.3,5,3.7,5c2.4,0,3.6-1.7,3.7-5
		C268.4,21.9,267.2,20.2,264.9,20.2z M264.9,28.4c-1.3,0-1.9-1.1-2-3.2c0.1-2.1,0.8-3.1,2-3.1c1.2,0,1.8,1,1.9,3.1
		C266.8,27.3,266.2,28.4,264.9,28.4z"/>
	<path class="st0" d="M269.8,27.5c-0.3,0.3-0.4,0.6-0.4,1c0,0.4,0.1,0.7,0.4,1c0.3,0.3,0.6,0.4,1,0.4c0.4,0,0.7-0.1,1-0.4
		c0.3-0.3,0.4-0.6,0.4-1c0-0.4-0.1-0.7-0.4-1C271.3,26.9,270.3,26.9,269.8,27.5z"/>
	<path class="st0" d="M275.9,19.5l0.7-1.1l-0.5-0.6h-2.5l0,1.2h1.2l-0.9,1.5l0.9,0.8l0.5-0.7c0.9,0,1,0.4,1.1,0.6
		c0.1,0.2,0.1,0.4,0.1,0.6c0,0.3-0.1,0.7-0.3,1.1c-0.3,0.6-0.6,0.9-1,0.9c-0.4,0-0.8-0.3-1.1-1.1l-0.1-0.2l-1.2,0.3l0.1,0.3
		c0.4,1.3,1.1,1.9,2.1,1.9l0.1,0l0,0c0.9,0,1.6-0.5,2.1-1.5c0.3-0.6,0.4-1.2,0.4-1.7c0-0.3-0.1-0.7-0.2-1
		C277.3,20,276.7,19.6,275.9,19.5z"/>
</g>
</svg>
