<!-- Generator: Adobe Illustrator 20.1.0, SVG Export Plug-In  -->
<svg version="1.1"
	 xmlns="http://www.w3.org/2000/svg" xmlns:xlink="http://www.w3.org/1999/xlink" xmlns:a="http://ns.adobe.com/AdobeSVGViewerExtensions/3.0/"
	 x="0px" y="0px" width="102.4px" height="13.6px" viewBox="0 0 102.4 13.6"
	 style="overflow:scroll;enable-background:new 0 0 102.4 13.6;" xml:space="preserve">
<style type="text/css">
	.st0{fill:#0082CB;}
</style>
<defs>
</defs>
<g>
	<path class="st0" d="M0,0.9h3.3c3.9,0,6,2.1,6,6.3c0,4.2-2.5,6.3-6,6.3H0V0.9z M2.3,11.7h0.8c2.6,0,3.8-1.8,3.8-4.5
		S5.7,2.7,3.1,2.7H2.3V11.7z"/>
	<path class="st0" d="M17.9,13.1c-0.5,0.2-1.4,0.6-2.8,0.6c-3,0-4.3-2.1-4.3-4.6c0-2.8,1.5-4.9,3.8-4.9c2,0,3.7,1.2,3.7,5v0.4H13
		c0,1.6,0.6,2.5,2.4,2.5c1.4,0,2-0.4,2.4-0.7L17.9,13.1z M16.2,8.1c0-1.6-0.5-2.5-1.5-2.5c-1.2,0-1.7,1.2-1.7,2.5H16.2z"/>
	<path class="st0" d="M19.9,11.3c0.4,0.1,1.3,0.6,2.3,0.6c0.8,0,1.4-0.2,1.4-0.9c0-0.4-0.2-0.7-1-1.2l-0.9-0.5c-0.9-0.6-2-1.2-2-2.6
		c0-1.3,1.2-2.6,3.2-2.6c1.2,0,2.1,0.3,2.3,0.4l-0.1,1.7c-0.6-0.2-1.2-0.4-2-0.4c-0.9,0-1.3,0.3-1.3,0.9c0,0.5,0.4,0.8,1,1.2
		l1.1,0.7c1.2,0.7,1.7,1.3,1.7,2.3c0,1.7-1.4,2.7-3.5,2.7c-1.2,0-2.1-0.3-2.6-0.4L19.9,11.3z"/>
	<path class="st0" d="M34.3,13.1c-0.5,0.2-1.4,0.6-2.8,0.6c-3,0-4.3-2.1-4.3-4.6c0-2.8,1.5-4.9,3.8-4.9c2,0,3.7,1.2,3.7,5v0.4h-5.4
		c0,1.6,0.6,2.5,2.4,2.5c1.4,0,2-0.4,2.4-0.7L34.3,13.1z M32.6,8.1c0-1.6-0.5-2.5-1.5-2.5c-1.2,0-1.7,1.2-1.7,2.5H32.6z"/>
	<path class="st0" d="M40.3,4.1c1.9,0,4.1,1,4.1,4.8c0,3.9-2.2,4.8-4.1,4.8s-4.1-0.9-4.1-4.8C36.2,5.1,38.4,4.1,40.3,4.1z
		 M40.3,12.1c1.4,0,1.8-1.7,1.8-3.2s-0.3-3.2-1.8-3.2s-1.8,1.6-1.8,3.2S38.8,12.1,40.3,12.1z"/>
	<path class="st0" d="M58.4,0v11.9c0,0.7,0,1.2,0.1,1.6h-2.1c0-0.3-0.1-0.8-0.1-1.4h-0.1c-0.4,0.8-1,1.6-2.5,1.6
		c-2.3,0-3.3-2.2-3.3-4.8c0-3,1.2-4.8,3.2-4.8c1.3,0,2.1,0.8,2.4,1.5h0V0H58.4z M54.4,12c1.3,0,1.8-1.4,1.8-3.2
		c0-1.8-0.5-3.1-1.7-3.1c-1.2,0-1.7,1.2-1.7,3.1C52.8,10.9,53.1,12,54.4,12z"/>
	<path class="st0" d="M67.3,13.1c-0.5,0.2-1.4,0.6-2.8,0.6c-3,0-4.3-2.1-4.3-4.6c0-2.8,1.5-4.9,3.8-4.9c2,0,3.7,1.2,3.7,5v0.4h-5.4
		c0,1.6,0.6,2.5,2.4,2.5c1.4,0,2-0.4,2.4-0.7L67.3,13.1z M65.6,8.1c0-1.6-0.5-2.5-1.5-2.5c-1.2,0-1.7,1.2-1.7,2.5H65.6z"/>
	<path class="st0" d="M74.1,0h2.2v5.4h0.1c0.4-0.6,0.9-1.3,2.3-1.3c2.1,0,2.7,1.6,2.7,3.4v6h-2.2V7.9c0-1.4-0.4-2-1.3-2
		c-1.2,0-1.6,1-1.6,2.2v5.4h-2.2V0z"/>
	<path class="st0" d="M90.8,12c0,0.6,0,1.1,0.1,1.5h-2.1c0-0.5-0.1-1-0.1-1.4l-0.1,0l0,0c-0.4,0.7-1,1.6-2.5,1.6
		c-2.1,0-2.7-1.6-2.7-3.4v-6h2.2v5.6c0,1.4,0.4,2,1.3,2c1.2,0,1.5-1.1,1.5-2.3V4.2h2.2V12z"/>
	<path class="st0" d="M93,0.3h2.3v2.2H93V0.3z M93,4.2h2.2v9.3H93V4.2z"/>
	<path class="st0" d="M97.6,5.8c0-0.6,0-1.1-0.1-1.5h2c0,0.6,0.1,1.1,0.1,1.7h0c0.3-0.7,1-1.8,2.4-1.8c0.1,0,0.3,0,0.4,0.1v2.1
		c-0.2-0.1-0.4-0.1-0.6-0.1c-0.9,0-1.9,0.6-1.9,2.3v5.1h-2.2V5.8z"/>
</g>
</svg>
