<!-- Generator: Adobe Illustrator 20.1.0, SVG Export Plug-In  -->
<svg version="1.1"
	 xmlns="http://www.w3.org/2000/svg" xmlns:xlink="http://www.w3.org/1999/xlink" xmlns:a="http://ns.adobe.com/AdobeSVGViewerExtensions/3.0/"
	 x="0px" y="0px" width="320.7px" height="58.9px" viewBox="0 0 320.7 58.9"
	 style="overflow:scroll;enable-background:new 0 0 320.7 58.9;" xml:space="preserve">
<style type="text/css">
	.st0{fill:#0082CB;}
</style>
<defs>
</defs>
<g>
	<g>
		<path class="st0" d="M0.1,1.6H13v4.1H5.7v4h7v4.1h-7v4.5h7.7v4.1H0.1V1.6z"/>
		<path class="st0" d="M15.9,10c0-1.2-0.1-2.5-0.2-3.2h5.1c0.1,0.6,0.1,1.7,0.1,2.6h0.1c0.3-0.8,1.4-3,4.4-3c2.7,0,4.7,1.6,4.7,5
			v10.9h-5.4v-9.4c0-1.5-0.5-2.2-1.5-2.2c-1.3,0-2,1.4-2,3v8.6h-5.4V10z"/>
		<path class="st0" d="M45.5,16.2c0.2,2.5,1.9,3.3,3.9,3.3c1.5,0,3.2-0.7,4.6-1.2l0.1,3.8c-1.3,0.4-3.3,0.9-5.5,0.9
			c-6.3,0-8.2-4.2-8.2-8.3c0-4.3,2.5-8.1,7.3-8.1c4.9,0,7.2,3.9,7.2,8.1v1.5H45.5z M50,13.3v-0.5c0-2.1-0.6-3.1-2.2-3.1
			c-1.5,0-2.4,1.4-2.4,3.5H50z"/>
		<path class="st0" d="M57.2,18c0.8,0.4,2.2,1.1,4.1,1.1c1.5,0,2.2-0.4,2.2-1.1c0-0.5-0.4-0.8-1.7-1.3L60.1,16
			c-2.5-0.9-3.2-2.4-3.2-4.4c0-2.8,1.8-5.1,6.5-5.1c1.6,0,3.2,0.3,4.3,0.7l-0.2,3.9c-1-0.5-2.5-1-3.8-1c-1,0-1.9,0.3-1.9,1.1
			c0,0.5,0.5,0.9,1.8,1.4l1.8,0.7c2,0.7,3.1,1.7,3.1,4.4c0,3.2-2.1,5.1-6.7,5.1c-1.7,0-3.9-0.4-4.8-0.7L57.2,18z"/>
		<path class="st0" d="M69.7,6.9h2.7V3.6l5.4-1.7v5h3v3.7h-3v6.7c0,1.3,0.8,1.9,1.8,1.9c0.5,0,1-0.1,1.3-0.2l0.2,3.7
			c-0.7,0.2-2,0.4-3.6,0.4c-3,0-5-1.7-5-4.6v-7.7h-2.7V6.9z"/>
		<path class="st0" d="M96.7,19c0,1.3,0.1,2.5,0.2,3.4h-4.8c-0.1-0.7-0.2-1.4-0.2-2.2c-1.6,1.7-2.8,2.5-4.7,2.5c-2.8,0-4.7-2-4.7-5
			c0-3.5,2.6-5.3,8-5.3h1.4v-0.5c0-1-0.8-2.1-2.9-2.1c-1.7,0-3.4,0.8-4.5,1.5l-0.2-3.9c1.3-0.5,3.2-1,5.8-1c5.5,0,6.6,2.6,6.6,5.8
			V19z M91.9,14.9h-0.6c-2.4,0-4,0.8-4,2.6c0,1.4,0.8,1.9,1.9,1.9c2.5,0,2.8-2.5,2.8-4V14.9z"/>
		<path class="st0" d="M114.5,19.7c0,0.9,0.1,1.8,0.1,2.8h-5.2c-0.1-0.8-0.2-1.7-0.2-2.5h-0.1c-1.1,2.1-2.5,2.8-4.1,2.8
			c-4.1,0-5.9-3.7-5.9-8.4c0-3.7,1.7-7.8,5.6-7.8c2.1,0,3.2,0.8,4.3,2.6h0.1c-0.1-0.7-0.1-1.6-0.1-2.8V0h5.4V19.7z M107,19
			c1.3,0,2.1-1.8,2.1-4.4c0-2.6-0.8-4.4-2.1-4.4c-1.6,0-2.1,1.8-2.1,4.4C104.9,17.2,105.4,19,107,19z"/>
		<path class="st0" d="M124.9,6.5c5.7,0,7.8,3.9,7.8,8.2s-2.1,8.2-7.8,8.2c-5.7,0-7.8-3.9-7.8-8.2S119.2,6.5,124.9,6.5z M124.9,19.2
			c1.8,0,2.1-2.2,2.1-4.5c0-2.3-0.3-4.5-2.1-4.5s-2.1,2.3-2.1,4.5C122.8,17,123.1,19.2,124.9,19.2z"/>
		<path class="st0" d="M134.9,18c0.8,0.4,2.2,1.1,4.1,1.1c1.5,0,2.2-0.4,2.2-1.1c0-0.5-0.4-0.8-1.7-1.3l-1.7-0.6
			c-2.5-0.9-3.2-2.4-3.2-4.4c0-2.8,1.8-5.1,6.5-5.1c1.6,0,3.2,0.3,4.3,0.7l-0.2,3.9c-1-0.5-2.5-1-3.8-1c-1,0-1.9,0.3-1.9,1.1
			c0,0.5,0.5,0.9,1.8,1.4l1.8,0.7c2,0.7,3.1,1.7,3.1,4.4c0,3.2-2.1,5.1-6.7,5.1c-1.7,0-3.9-0.4-4.8-0.7L134.9,18z"/>
		<path class="st0" d="M171.1,19.7c0,0.9,0.1,1.8,0.1,2.8h-5.2c-0.1-0.8-0.2-1.7-0.2-2.5h-0.1c-1.1,2.1-2.5,2.8-4.1,2.8
			c-4.1,0-5.9-3.7-5.9-8.4c0-3.7,1.7-7.8,5.6-7.8c2.1,0,3.2,0.8,4.3,2.6h0.1c-0.1-0.7-0.1-1.6-0.1-2.8V0h5.4V19.7z M163.6,19
			c1.3,0,2.1-1.8,2.1-4.4c0-2.6-0.8-4.4-2.1-4.4c-1.6,0-2.1,1.8-2.1,4.4C161.5,17.2,162,19,163.6,19z"/>
		<path class="st0" d="M178.8,16.2c0.2,2.5,1.9,3.3,3.9,3.3c1.5,0,3.2-0.7,4.6-1.2l0.1,3.8c-1.3,0.4-3.3,0.9-5.5,0.9
			c-6.3,0-8.2-4.2-8.2-8.3c0-4.3,2.5-8.1,7.3-8.1c4.9,0,7.2,3.9,7.2,8.1v1.5H178.8z M183.3,13.3v-0.5c0-2.1-0.6-3.1-2.2-3.1
			c-1.5,0-2.4,1.4-2.4,3.5H183.3z"/>
		<path class="st0" d="M212.2,19c0,1.3,0.1,2.5,0.2,3.4h-4.8c-0.1-0.7-0.2-1.4-0.2-2.2c-1.6,1.7-2.8,2.5-4.7,2.5c-2.8,0-4.7-2-4.7-5
			c0-3.5,2.6-5.3,8-5.3h1.4v-0.5c0-1-0.8-2.1-2.9-2.1c-1.7,0-3.4,0.8-4.5,1.5l-0.2-3.9c1.3-0.5,3.2-1,5.8-1c5.5,0,6.6,2.6,6.6,5.8
			V19z M207.4,14.9h-0.6c-2.4,0-4,0.8-4,2.6c0,1.4,0.8,1.9,1.9,1.9c2.5,0,2.8-2.5,2.8-4V14.9z"/>
		<path class="st0" d="M215.2,10c0-1.2-0.1-2.5-0.2-3.2h5.1c0.1,0.6,0.1,1.7,0.1,2.6h0.1c0.3-0.8,1.4-3,4.4-3c2.7,0,4.7,1.6,4.7,5
			v10.9h-5.4v-9.4c0-1.5-0.5-2.2-1.5-2.2c-1.3,0-2,1.4-2,3v8.6h-5.4V10z"/>
		<path class="st0" d="M232.1,18c0.8,0.4,2.2,1.1,4.1,1.1c1.5,0,2.2-0.4,2.2-1.1c0-0.5-0.4-0.8-1.7-1.3L235,16
			c-2.5-0.9-3.2-2.4-3.2-4.4c0-2.8,1.8-5.1,6.5-5.1c1.6,0,3.2,0.3,4.3,0.7l-0.2,3.9c-1-0.5-2.5-1-3.8-1c-1,0-1.9,0.3-1.9,1.1
			c0,0.5,0.5,0.9,1.8,1.4l1.8,0.7c2,0.7,3.1,1.7,3.1,4.4c0,3.2-2.1,5.1-6.7,5.1c-1.7,0-3.9-0.4-4.8-0.7L232.1,18z"/>
		<path class="st0" d="M246,0h5.4v4.5H246V0z M246,6.9h5.4v15.6H246V6.9z"/>
		<path class="st0" d="M259.3,16.2c0.2,2.5,1.9,3.3,3.9,3.3c1.5,0,3.2-0.7,4.6-1.2l0.1,3.8c-1.3,0.4-3.3,0.9-5.5,0.9
			c-6.3,0-8.2-4.2-8.2-8.3c0-4.3,2.5-8.1,7.3-8.1c4.9,0,7.2,3.9,7.2,8.1v1.5H259.3z M263.8,13.3v-0.5c0-2.1-0.6-3.1-2.2-3.1
			c-1.5,0-2.4,1.4-2.4,3.5H263.8z"/>
		<path class="st0" d="M286.1,19.7c0,0.9,0.1,1.8,0.1,2.8h-5.2c-0.1-0.8-0.2-1.7-0.2-2.5h-0.1c-1.1,2.1-2.5,2.8-4.1,2.8
			c-4.1,0-5.9-3.7-5.9-8.4c0-3.7,1.7-7.8,5.6-7.8c2.1,0,3.2,0.8,4.3,2.6h0.1c-0.1-0.7-0.1-1.6-0.1-2.8V0h5.4V19.7z M278.6,19
			c1.3,0,2.1-1.8,2.1-4.4c0-2.6-0.8-4.4-2.1-4.4c-1.6,0-2.1,1.8-2.1,4.4C276.5,17.2,277,19,278.6,19z"/>
		<path class="st0" d="M302.8,19c0,1.3,0.1,2.5,0.2,3.4h-4.8c-0.1-0.7-0.2-1.4-0.2-2.2c-1.6,1.7-2.8,2.5-4.7,2.5c-2.8,0-4.7-2-4.7-5
			c0-3.5,2.6-5.3,8-5.3h1.4v-0.5c0-1-0.8-2.1-2.9-2.1c-1.7,0-3.4,0.8-4.5,1.5l-0.2-3.9c1.3-0.5,3.2-1,5.8-1c5.5,0,6.6,2.6,6.6,5.8
			V19z M298,14.9h-0.6c-2.4,0-4,0.8-4,2.6c0,1.4,0.8,1.9,1.9,1.9c2.5,0,2.8-2.5,2.8-4V14.9z"/>
		<path class="st0" d="M320.5,19.7c0,0.9,0.1,1.8,0.1,2.8h-5.2c-0.1-0.8-0.2-1.7-0.2-2.5h-0.1c-1.1,2.1-2.5,2.8-4.1,2.8
			c-4.1,0-5.9-3.7-5.9-8.4c0-3.7,1.7-7.8,5.6-7.8c2.1,0,3.2,0.8,4.3,2.6h0.1c-0.1-0.7-0.1-1.6-0.1-2.8V0h5.4V19.7z M313,19
			c1.3,0,2.1-1.8,2.1-4.4c0-2.6-0.8-4.4-2.1-4.4c-1.6,0-2.1,1.8-2.1,4.4C310.9,17.2,311.5,19,313,19z"/>
		<path class="st0" d="M0,36h5.4v22.5H0V36z"/>
		<path class="st0" d="M13.3,52.2c0.2,2.5,1.9,3.3,3.9,3.3c1.5,0,3.2-0.7,4.6-1.2l0.1,3.8c-1.3,0.4-3.3,0.9-5.5,0.9
			c-6.3,0-8.2-4.2-8.2-8.3c0-4.3,2.5-8.1,7.3-8.1c4.9,0,7.2,3.9,7.2,8.1v1.5H13.3z M17.8,49.3v-0.5c0-2.1-0.6-3.1-2.2-3.1
			c-1.5,0-2.4,1.4-2.4,3.5H17.8z"/>
		<path class="st0" d="M24,42.9h5.6l2.7,10.7h0.1L35,42.9h5.3l-5,15.6h-6.4L24,42.9z"/>
		<path class="st0" d="M46.6,52.2c0.2,2.5,1.9,3.3,3.9,3.3c1.5,0,3.2-0.7,4.6-1.2l0.1,3.8c-1.3,0.4-3.3,0.9-5.5,0.9
			c-6.3,0-8.2-4.2-8.2-8.3c0-4.3,2.5-8.1,7.3-8.1c4.9,0,7.2,3.9,7.2,8.1v1.5H46.6z M51.1,49.3v-0.5c0-2.1-0.6-3.1-2.2-3.1
			c-1.5,0-2.4,1.4-2.4,3.5H51.1z"/>
		<path class="st0" d="M80.1,55c0,1.3,0.1,2.5,0.2,3.4h-4.8c-0.1-0.7-0.2-1.4-0.2-2.2c-1.6,1.7-2.8,2.5-4.7,2.5c-2.8,0-4.7-2-4.7-5
			c0-3.5,2.6-5.3,8-5.3h1.4v-0.5c0-1-0.8-2.1-2.9-2.1c-1.7,0-3.4,0.8-4.5,1.5l-0.2-3.9c1.3-0.5,3.2-1,5.8-1c5.5,0,6.6,2.6,6.6,5.8
			V55z M75.3,50.9h-0.6c-2.4,0-4,0.8-4,2.6c0,1.4,0.8,1.9,1.9,1.9c2.5,0,2.8-2.5,2.8-4V50.9z"/>
		<path class="st0" d="M90.9,46.2c0-1.6-0.1-2.8-0.2-3.4h5.1c0.1,0.6,0.1,1.7,0.1,2.6H96c0.3-0.8,1.4-3,4.4-3c1.7,0,3.3,0.5,4.3,2.6
			c1-1.6,2.5-2.6,4.7-2.6c2.5,0,4.6,1.4,4.6,4.8v11.2h-5.4v-9.4c0-1.5-0.5-2.2-1.5-2.2c-1.6,0-1.9,1.4-1.9,2.6v9h-5.4v-9.4
			c0-1.5-0.5-2.2-1.5-2.2c-1.3,0-2,1.4-2,3v8.6h-5.4V46.2z"/>
		<path class="st0" d="M124.3,42.5c5.7,0,7.8,3.9,7.8,8.2s-2.1,8.2-7.8,8.2c-5.7,0-7.8-3.9-7.8-8.2S118.6,42.5,124.3,42.5z
			 M124.3,55.2c1.8,0,2.1-2.2,2.1-4.5c0-2.3-0.3-4.5-2.1-4.5s-2.1,2.3-2.1,4.5C122.2,53,122.5,55.2,124.3,55.2z"/>
		<path class="st0" d="M149.5,55.7c0,0.9,0.1,1.8,0.1,2.8h-5.2c-0.1-0.8-0.2-1.7-0.2-2.5h-0.1c-1.1,2.1-2.5,2.8-4.1,2.8
			c-4.1,0-5.9-3.7-5.9-8.4c0-3.7,1.7-7.8,5.6-7.8c2.1,0,3.2,0.8,4.3,2.6h0.1c-0.1-0.7-0.1-1.6-0.1-2.8V36h5.4V55.7z M142,55
			c1.3,0,2.1-1.8,2.1-4.4c0-2.6-0.8-4.4-2.1-4.4c-1.6,0-2.1,1.8-2.1,4.4C139.9,53.2,140.4,55,142,55z"/>
		<path class="st0" d="M157.1,52.2c0.2,2.5,1.9,3.3,3.9,3.3c1.5,0,3.2-0.7,4.6-1.2l0.1,3.8c-1.3,0.4-3.3,0.9-5.5,0.9
			c-6.3,0-8.2-4.2-8.2-8.3c0-4.3,2.5-8.1,7.3-8.1c4.9,0,7.2,3.9,7.2,8.1v1.5H157.1z M161.6,49.3v-0.5c0-2.1-0.6-3.1-2.2-3.1
			c-1.5,0-2.4,1.4-2.4,3.5H161.6z"/>
		<path class="st0" d="M169.1,47.4c0-2.2-0.1-3.8-0.2-4.5h5.1c0.1,0.6,0.1,1.7,0.1,2.6h0.1c0.5-1.2,1.4-3,4-3c0.4,0,0.6,0,0.9,0.1
			v4.7c-0.2-0.1-1-0.2-1.6-0.2c-1.7,0-2.9,1.5-2.9,3.6v7.8h-5.4V47.4z"/>
		<path class="st0" d="M194.5,55c0,1.3,0.1,2.5,0.2,3.4h-4.8c-0.1-0.7-0.2-1.4-0.2-2.2c-1.6,1.7-2.8,2.5-4.7,2.5c-2.8,0-4.7-2-4.7-5
			c0-3.5,2.6-5.3,8-5.3h1.4v-0.5c0-1-0.8-2.1-2.9-2.1c-1.7,0-3.4,0.8-4.5,1.5l-0.2-3.9c1.3-0.5,3.2-1,5.8-1c5.5,0,6.6,2.6,6.6,5.8
			V55z M189.7,50.9h-0.6c-2.4,0-4,0.8-4,2.6c0,1.4,0.8,1.9,1.9,1.9c2.5,0,2.8-2.5,2.8-4V50.9z"/>
		<path class="st0" d="M212.2,55.7c0,0.9,0.1,1.8,0.1,2.8h-5.2c-0.1-0.8-0.2-1.7-0.2-2.5H207c-1.1,2.1-2.5,2.8-4.1,2.8
			c-4.1,0-5.9-3.7-5.9-8.4c0-3.7,1.7-7.8,5.6-7.8c2.1,0,3.2,0.8,4.3,2.6h0.1c-0.1-0.7-0.1-1.6-0.1-2.8V36h5.4V55.7z M204.7,55
			c1.3,0,2.1-1.8,2.1-4.4c0-2.6-0.8-4.4-2.1-4.4c-1.6,0-2.1,1.8-2.1,4.4C202.6,53.2,203.2,55,204.7,55z"/>
		<path class="st0" d="M222.6,42.5c5.7,0,7.8,3.9,7.8,8.2s-2.1,8.2-7.8,8.2c-5.7,0-7.8-3.9-7.8-8.2S216.9,42.5,222.6,42.5z
			 M222.6,55.2c1.8,0,2.1-2.2,2.1-4.5c0-2.3-0.3-4.5-2.1-4.5s-2.1,2.3-2.1,4.5C220.5,53,220.8,55.2,222.6,55.2z"/>
	</g>
</g>
</svg>
