<!-- Generator: Adobe Illustrator 20.1.0, SVG Export Plug-In  -->
<svg version="1.1"
	 xmlns="http://www.w3.org/2000/svg" xmlns:xlink="http://www.w3.org/1999/xlink" xmlns:a="http://ns.adobe.com/AdobeSVGViewerExtensions/3.0/"
	 x="0px" y="0px" width="280.2px" height="90.8px" viewBox="0 0 280.2 90.8"
	 style="overflow:scroll;enable-background:new 0 0 280.2 90.8;" xml:space="preserve">
<style type="text/css">
	.st0{fill:#0082CB;}
	.st1{fill:#FFFFFF;}
</style>
<defs>
</defs>
<polygon class="st0" points="280.2,82.4 48.8,82.4 48.8,16.7 277.3,16.7 "/>
<circle class="st0" cx="45.4" cy="45.4" r="45.4"/>
<path class="st1" d="M98.5,52c-2.8-2.7-6.5-4.2-10.4-4.2c-1.7,0-3.4,0.4-5,0.9V34.8c0-6.3-5.1-11.3-11.3-11.3c-1.8,0-3.5,0.5-5,1.2
	C60.7,17.2,51.7,12.9,42,12.9c-17.8,0-32.2,14.5-32.2,32.2c0,17.8,14.4,32.2,32.2,32.2c7.2,0,14.2-2.4,19.8-6.8
	c1.9,3.6,5.6,6.1,10,6.1c2.6,0,5.1-0.9,7.1-2.6c2.6,2.1,5.8,3.3,9.3,3.3c4,0,7.7-1.6,10.5-4.4c2.8-2.8,4.3-6.5,4.2-10.5
	C102.9,58.5,101.3,54.8,98.5,52L98.5,52z M94.7,53.4L79.1,69.3c-3.3-4.4-3-10.7,1-14.7c2.1-2.2,5-3.4,8.1-3.4
	C90.5,51.3,92.8,52,94.7,53.4L94.7,53.4z M79.7,34.8v13H63.9v-13c0-4.3,3.5-7.9,7.9-7.9C76.1,26.9,79.7,30.5,79.7,34.8L79.7,34.8z
	 M43.7,73.8v-5.2c0-1-0.8-1.7-1.7-1.7c-0.9,0-1.7,0.8-1.7,1.7v5.2c-14.5-0.9-26.2-12.6-26.9-27.1h5.1c1,0,1.7-0.8,1.7-1.7
	c0-0.9-0.8-1.7-1.7-1.7h-5.1c0.9-14.4,12.5-25.9,26.9-26.8v5c0,0.9,0.8,1.7,1.7,1.7c1,0,1.7-0.8,1.7-1.7v-4.9
	c7.9,0.5,15.1,4.1,20.2,10.1c-2.2,2.1-3.5,5-3.5,8.2v30.4c0,0.6,0.1,1.2,0.2,1.8C55.8,71.1,49.9,73.5,43.7,73.8L43.7,73.8z
	 M63.9,65.2v-14h14.9c-0.4,0.3-0.8,0.6-1.2,1c-5.2,5.3-5.5,13.6-1.1,19.3c-1.3,1-3,1.6-4.7,1.6C67.4,73.1,63.9,69.6,63.9,65.2
	L63.9,65.2z M96.2,70.5c-3.8,3.9-10.3,4.3-14.7,1.2l15.6-15.9c1.4,1.9,2.2,4.2,2.3,6.7C99.5,65.5,98.3,68.4,96.2,70.5L96.2,70.5z
	 M43.7,29.6v16c0,0.4-0.2,0.8-0.4,1.1l-8.2,9.5c-0.3,0.4-0.8,0.6-1.3,0.6c-0.4,0-0.8-0.1-1.1-0.4c-0.7-0.6-0.8-1.7-0.2-2.4l7.8-9
	V29.6c0-1,0.8-1.7,1.7-1.7C42.9,27.9,43.7,28.7,43.7,29.6L43.7,29.6z M43.7,29.6"/>
</svg>
