<!-- Generator: Adobe Illustrator 20.1.0, SVG Export Plug-In  -->
<svg version="1.1"
	 xmlns="http://www.w3.org/2000/svg" xmlns:xlink="http://www.w3.org/1999/xlink" xmlns:a="http://ns.adobe.com/AdobeSVGViewerExtensions/3.0/"
	 x="0px" y="0px" width="168.5px" height="38.8px" viewBox="0 0 168.5 38.8"
	 style="overflow:scroll;enable-background:new 0 0 168.5 38.8;" xml:space="preserve">
<style type="text/css">
	.st0{fill:#0082CB;}
</style>
<defs>
</defs>
<g>
	<path class="st0" d="M1.1,0.6h3.6c2.6,0,3.9,1.4,3.9,3.8c0,2.4-1.4,3.8-3.9,3.8H3.4v4.9H1.1V0.6z M4.3,6.5c1.4,0,2.1-0.7,2.1-2.1
		c0-1.4-0.6-2.1-2.1-2.1H3.4v4.1H4.3z"/>
	<path class="st0" d="M10.3,5.5c0-0.6,0-1.1-0.1-1.5h2c0,0.6,0.1,1.1,0.1,1.7h0c0.3-0.7,1-1.8,2.4-1.8c0.1,0,0.3,0,0.4,0.1v2.1
		c-0.2-0.1-0.4-0.1-0.6-0.1c-0.9,0-1.9,0.6-1.9,2.3v5.1h-2.2V5.5z"/>
	<path class="st0" d="M23.2,12.8c-0.5,0.2-1.4,0.6-2.8,0.6c-3,0-4.3-2.1-4.3-4.6c0-2.8,1.5-4.9,3.8-4.9c2,0,3.7,1.2,3.7,5v0.4h-5.4
		c0,1.6,0.6,2.5,2.4,2.5c1.4,0,2-0.4,2.4-0.7L23.2,12.8z M21.5,7.8c0-1.6-0.5-2.5-1.5-2.5c-1.2,0-1.7,1.2-1.7,2.5H21.5z"/>
	<path class="st0" d="M29.3,3.8c1.9,0,4.1,1,4.1,4.8c0,3.9-2.2,4.8-4.1,4.8s-4.1-0.9-4.1-4.8C25.2,4.8,27.4,3.8,29.3,3.8z
		 M29.3,11.8c1.4,0,1.8-1.7,1.8-3.2s-0.3-3.2-1.8-3.2S27.5,7,27.5,8.6S27.8,11.8,29.3,11.8z"/>
	<path class="st0" d="M41.4,13c-0.5,0.2-1.3,0.4-2.2,0.4c-3.1,0-4.4-2.1-4.4-4.8c0-2.6,1.4-4.8,4.5-4.8c0.7,0,1.5,0.2,1.9,0.4
		l-0.1,1.8c-0.4-0.2-1-0.5-1.6-0.5c-1.7,0-2.4,1.1-2.4,3.1c0,1.7,0.8,3.1,2.5,3.1c0.5,0,1.3-0.3,1.6-0.5L41.4,13z"/>
	<path class="st0" d="M50.1,11.7c0,0.6,0,1.1,0.1,1.5h-2.1c0-0.5-0.1-1-0.1-1.4l-0.1,0l0,0c-0.4,0.7-1,1.6-2.5,1.6
		c-2.1,0-2.7-1.6-2.7-3.4v-6H45v5.6c0,1.4,0.4,2,1.3,2c1.2,0,1.5-1.1,1.5-2.3V3.9h2.2V11.7z"/>
	<path class="st0" d="M52.1,5.5c0-0.7,0-1.2-0.1-1.6h2.1c0,0.3,0.1,0.8,0.1,1.4h0.1c0.4-0.8,1-1.6,2.5-1.6C59,3.8,60,6,60,8.6
		c0,3-1.2,4.8-3.2,4.8c-1.3,0-2.1-0.8-2.4-1.5h0v5.2h-2.2V5.5z M56.1,11.7c1.2,0,1.7-1.2,1.7-3.1c0-2.1-0.3-3.2-1.6-3.2
		c-1.3,0-1.8,1.4-1.8,3.2C54.4,10.4,54.9,11.7,56.1,11.7z"/>
	<path class="st0" d="M62.2,4.5c0.6-0.3,1.5-0.7,2.9-0.7c2.9,0,3.5,1.4,3.5,3.7v4.1c0,0.7,0.1,1.3,0.1,1.6h-2
		c-0.1-0.4-0.1-0.8-0.1-1.3h0c-0.6,0.8-1.3,1.4-2.6,1.4c-1.4,0-2.8-1-2.8-2.7c0-2.5,2.1-3.2,4.9-3.2h0.5V7.1c0-0.9-0.5-1.8-1.7-1.8
		c-1.1,0-2.1,0.5-2.5,0.9L62.2,4.5z M66.6,8.7h-0.2c-1.9,0-3,0.4-3,1.7c0,0.8,0.6,1.4,1.4,1.4c1.3,0,1.8-1,1.8-2.6V8.7z"/>
	<path class="st0" d="M77.1,13c-0.5,0.2-1.3,0.4-2.2,0.4c-3.1,0-4.4-2.1-4.4-4.8c0-2.6,1.4-4.8,4.5-4.8c0.7,0,1.5,0.2,1.9,0.4
		l-0.1,1.8c-0.4-0.2-1-0.5-1.6-0.5c-1.7,0-2.4,1.1-2.4,3.1c0,1.7,0.8,3.1,2.5,3.1c0.5,0,1.3-0.3,1.6-0.5L77.1,13z"/>
	<path class="st0" d="M78.6,0h2.3v2.2h-2.3V0z M78.6,3.9h2.2v9.3h-2.2V3.9z"/>
	<path class="st0" d="M86.9,3.8c1.9,0,4.1,1,4.1,4.8c0,3.9-2.2,4.8-4.1,4.8s-4.1-0.9-4.1-4.8C82.9,4.8,85.1,3.8,86.9,3.8z
		 M86.9,11.8c1.4,0,1.8-1.7,1.8-3.2s-0.3-3.2-1.8-3.2c-1.4,0-1.8,1.6-1.8,3.2S85.5,11.8,86.9,11.8z M87,0.3h2.1l-1.8,2.6h-1.4
		L87,0.3z"/>
	<path class="st0" d="M92.8,5.5c0-0.6,0-1.1-0.1-1.5h2.1c0,0.5,0.1,1,0.1,1.4h0c0.3-0.6,1-1.6,2.5-1.6c2.1,0,2.7,1.6,2.7,3.4v6h-2.2
		V7.7c0-1.4-0.4-2-1.3-2c-1.2,0-1.6,1-1.6,2.2v5.4h-2.2V5.5z"/>
	<path class="st0" d="M113.6,12.8c-0.5,0.2-1.4,0.6-2.8,0.6c-3,0-4.3-2.1-4.3-4.6c0-2.8,1.5-4.9,3.8-4.9c2,0,3.7,1.2,3.7,5v0.4h-5.4
		c0,1.6,0.6,2.5,2.4,2.5c1.4,0,2-0.4,2.4-0.7L113.6,12.8z M111.9,7.8c0-1.6-0.5-2.5-1.5-2.5c-1.2,0-1.7,1.2-1.7,2.5H111.9z"/>
	<path class="st0" d="M117.6,8.2l-2.6-4.3h2.5l1.5,3l1.5-3h2.3l-2.6,4.3l2.8,5h-2.5l-1.7-3.4l-1.7,3.4h-2.4L117.6,8.2z"/>
	<path class="st0" d="M130.4,13c-0.5,0.2-1.3,0.4-2.2,0.4c-3.1,0-4.4-2.1-4.4-4.8c0-2.6,1.4-4.8,4.5-4.8c0.7,0,1.5,0.2,1.9,0.4
		l-0.1,1.8c-0.4-0.2-1-0.5-1.6-0.5c-1.7,0-2.4,1.1-2.4,3.1c0,1.7,0.8,3.1,2.5,3.1c0.5,0,1.3-0.3,1.6-0.5L130.4,13z"/>
	<path class="st0" d="M138.6,12.8c-0.5,0.2-1.4,0.6-2.8,0.6c-3,0-4.3-2.1-4.3-4.6c0-2.8,1.5-4.9,3.8-4.9c2,0,3.7,1.2,3.7,5v0.4h-5.4
		c0,1.6,0.6,2.5,2.4,2.5c1.4,0,2-0.4,2.4-0.7L138.6,12.8z M136.9,7.8c0-1.6-0.5-2.5-1.5-2.5c-1.2,0-1.7,1.2-1.7,2.5H136.9z"/>
	<path class="st0" d="M140.5,11.1c0.4,0.1,1.3,0.6,2.3,0.6c0.8,0,1.4-0.2,1.4-0.9c0-0.4-0.2-0.7-1-1.2L142.4,9c-0.9-0.6-2-1.2-2-2.6
		c0-1.3,1.2-2.6,3.2-2.6c1.2,0,2.1,0.3,2.3,0.4l-0.1,1.7c-0.6-0.2-1.2-0.4-2-0.4c-0.9,0-1.3,0.3-1.3,0.9c0,0.5,0.4,0.8,1,1.2
		l1.1,0.7c1.2,0.7,1.7,1.3,1.7,2.3c0,1.7-1.4,2.7-3.5,2.7c-1.2,0-2.1-0.3-2.6-0.4L140.5,11.1z"/>
	<path class="st0" d="M148.3,0h2.3v2.2h-2.3V0z M148.3,3.9h2.2v9.3h-2.2V3.9z"/>
	<path class="st0" d="M152,3.9h2.3l1.9,7.1h0l1.9-7.1h2.2l-2.8,9.3h-2.6L152,3.9z"/>
	<path class="st0" d="M161.9,4.5c0.6-0.3,1.5-0.7,2.9-0.7c2.9,0,3.5,1.4,3.5,3.7v4.1c0,0.7,0.1,1.3,0.1,1.6h-2
		c-0.1-0.4-0.1-0.8-0.1-1.3h0c-0.6,0.8-1.3,1.4-2.6,1.4c-1.4,0-2.8-1-2.8-2.7c0-2.5,2.1-3.2,4.9-3.2h0.5V7.1c0-0.9-0.5-1.8-1.7-1.8
		c-1.1,0-2.1,0.5-2.5,0.9L161.9,4.5z M166.3,8.7h-0.2c-1.9,0-3,0.4-3,1.7c0,0.8,0.6,1.4,1.4,1.4c1.3,0,1.8-1,1.8-2.6V8.7z"/>
	<path class="st0" d="M4.2,32.5L4.2,32.5l1.8-7h2.2l-3.4,11c-0.4,1.3-1.2,2.2-2.6,2.2c-0.6,0-1.1-0.1-1.4-0.2l0.1-1.7
		C1.1,37,1.3,37,1.7,37c0.7,0,1-0.4,1.2-1.4l0.2-0.8L0,25.5h2.3L4.2,32.5z"/>
	<path class="st0" d="M21.5,21.3v11.9c0,0.7,0,1.2,0.1,1.6h-2.1c0-0.3-0.1-0.8-0.1-1.4h-0.1c-0.4,0.8-1,1.6-2.5,1.6
		c-2.3,0-3.3-2.2-3.3-4.8c0-3,1.2-4.8,3.2-4.8c1.3,0,2.1,0.8,2.4,1.5h0v-5.6H21.5z M17.6,33.3c1.3,0,1.8-1.4,1.8-3.2
		c0-1.8-0.5-3.1-1.7-3.1c-1.2,0-1.7,1.2-1.7,3.1C15.9,32.2,16.3,33.3,17.6,33.3z"/>
	<path class="st0" d="M30.4,34.4C29.9,34.6,29,35,27.6,35c-3,0-4.3-2.1-4.3-4.6c0-2.8,1.5-4.9,3.8-4.9c2,0,3.7,1.2,3.7,5v0.4h-5.4
		c0,1.6,0.6,2.5,2.4,2.5c1.4,0,2-0.4,2.4-0.7L30.4,34.4z M28.7,29.4c0-1.6-0.5-2.5-1.5-2.5c-1.2,0-1.7,1.2-1.7,2.5H28.7z"/>
	<path class="st0" d="M32.3,32.7c0.4,0.1,1.3,0.6,2.3,0.6c0.8,0,1.4-0.2,1.4-0.9c0-0.4-0.2-0.7-1-1.2l-0.9-0.5c-0.9-0.6-2-1.2-2-2.6
		c0-1.3,1.2-2.6,3.2-2.6c1.2,0,2.1,0.3,2.3,0.4l-0.1,1.7c-0.6-0.2-1.2-0.4-2-0.4c-0.9,0-1.3,0.3-1.3,0.9c0,0.5,0.4,0.8,1,1.2
		l1.1,0.7c1.2,0.7,1.7,1.3,1.7,2.3c0,1.7-1.4,2.7-3.5,2.7c-1.2,0-2.1-0.3-2.6-0.4L32.3,32.7z"/>
	<path class="st0" d="M40,27.1c0-0.7,0-1.2-0.1-1.6H42c0,0.3,0.1,0.8,0.1,1.4h0.1c0.4-0.8,1-1.6,2.5-1.6c2.3,0,3.3,2.2,3.3,4.8
		c0,3-1.2,4.8-3.2,4.8c-1.3,0-2.1-0.8-2.4-1.5h0v5.2H40V27.1z M43.9,33.3c1.2,0,1.7-1.2,1.7-3.1c0-2.1-0.3-3.2-1.6-3.2
		c-1.3,0-1.8,1.4-1.8,3.2C42.2,32,42.7,33.3,43.9,33.3z"/>
	<path class="st0" d="M49.7,27.1c0-0.6,0-1.1-0.1-1.5h2c0,0.6,0.1,1.1,0.1,1.7h0c0.3-0.7,1-1.8,2.4-1.8c0.1,0,0.3,0,0.4,0.1v2.1
		c-0.2-0.1-0.4-0.1-0.6-0.1c-0.9,0-1.9,0.6-1.9,2.3v5.1h-2.2V27.1z"/>
	<path class="st0" d="M59.6,25.4c1.9,0,4.1,1,4.1,4.8c0,3.9-2.2,4.8-4.1,4.8s-4.1-0.9-4.1-4.8C55.5,26.4,57.7,25.4,59.6,25.4z
		 M59.6,33.4c1.4,0,1.8-1.7,1.8-3.2S61,27,59.6,27c-1.4,0-1.8,1.6-1.8,3.2S58.1,33.4,59.6,33.4z"/>
	<path class="st0" d="M65.4,27.1c0-0.7,0-1.2-0.1-1.6h2.1c0,0.3,0.1,0.8,0.1,1.4h0.1c0.4-0.8,1-1.6,2.5-1.6c2.3,0,3.3,2.2,3.3,4.8
		c0,3-1.2,4.8-3.2,4.8c-1.3,0-2.1-0.8-2.4-1.5h0v5.2h-2.2V27.1z M69.4,33.3c1.2,0,1.7-1.2,1.7-3.1c0-2.1-0.3-3.2-1.6-3.2
		c-1.3,0-1.8,1.4-1.8,3.2C67.7,32,68.2,33.3,69.4,33.3z"/>
	<path class="st0" d="M78.9,25.4c1.9,0,4.1,1,4.1,4.8c0,3.9-2.2,4.8-4.1,4.8s-4.1-0.9-4.1-4.8C74.8,26.4,77,25.4,78.9,25.4z
		 M78.9,33.4c1.4,0,1.8-1.7,1.8-3.2S80.4,27,78.9,27c-1.4,0-1.8,1.6-1.8,3.2S77.5,33.4,78.9,33.4z"/>
	<path class="st0" d="M84.8,27.1c0-0.6,0-1.1-0.1-1.5h2c0,0.6,0.1,1.1,0.1,1.7h0c0.3-0.7,1-1.8,2.4-1.8c0.1,0,0.3,0,0.4,0.1v2.1
		c-0.2-0.1-0.4-0.1-0.6-0.1c-0.9,0-1.9,0.6-1.9,2.3v5.1h-2.2V27.1z"/>
	<path class="st0" d="M97.2,34.6C96.7,34.8,95.9,35,95,35c-3.1,0-4.4-2.1-4.4-4.8c0-2.6,1.4-4.8,4.5-4.8c0.7,0,1.5,0.2,1.9,0.4
		L97,27.5c-0.4-0.2-1-0.5-1.6-0.5c-1.7,0-2.4,1.1-2.4,3.1c0,1.7,0.8,3.1,2.5,3.1c0.5,0,1.3-0.3,1.6-0.5L97.2,34.6z"/>
	<path class="st0" d="M98.7,21.6h2.3v2.2h-2.3V21.6z M98.8,25.5h2.2v9.3h-2.2V25.5z"/>
	<path class="st0" d="M107.1,25.4c1.9,0,4.1,1,4.1,4.8c0,3.9-2.2,4.8-4.1,4.8s-4.1-0.9-4.1-4.8C103,26.4,105.2,25.4,107.1,25.4z
		 M107.1,33.4c1.4,0,1.8-1.7,1.8-3.2s-0.3-3.2-1.8-3.2s-1.8,1.6-1.8,3.2S105.6,33.4,107.1,33.4z"/>
	<path class="st0" d="M112.9,27.1c0-0.6,0-1.1-0.1-1.5h2.1c0,0.5,0.1,1,0.1,1.4h0c0.3-0.6,1-1.6,2.5-1.6c2.1,0,2.7,1.6,2.7,3.4v6
		H118v-5.6c0-1.4-0.4-2-1.3-2c-1.2,0-1.6,1-1.6,2.2v5.4h-2.2V27.1z"/>
	<path class="st0" d="M122.7,26.1c0.6-0.3,1.5-0.7,2.9-0.7c2.9,0,3.5,1.4,3.5,3.7v4.1c0,0.7,0.1,1.3,0.1,1.6h-2
		c-0.1-0.4-0.1-0.8-0.1-1.3h0c-0.6,0.8-1.3,1.4-2.6,1.4c-1.4,0-2.8-1-2.8-2.7c0-2.5,2.1-3.2,4.9-3.2h0.5v-0.3c0-0.9-0.5-1.8-1.7-1.8
		c-1.1,0-2.1,0.5-2.5,0.9L122.7,26.1z M127.1,30.3h-0.2c-1.9,0-3,0.4-3,1.7c0,0.8,0.6,1.4,1.4,1.4c1.3,0,1.8-1,1.8-2.6V30.3z"/>
	<path class="st0" d="M138.9,21.3v11.9c0,0.7,0,1.2,0.1,1.6h-2.1c0-0.3-0.1-0.8-0.1-1.4h-0.1c-0.4,0.8-1,1.6-2.5,1.6
		c-2.3,0-3.3-2.2-3.3-4.8c0-3,1.2-4.8,3.2-4.8c1.3,0,2.1,0.8,2.4,1.5h0v-5.6H138.9z M134.9,33.3c1.3,0,1.8-1.4,1.8-3.2
		c0-1.8-0.5-3.1-1.7-3.1c-1.2,0-1.7,1.2-1.7,3.1C133.2,32.2,133.6,33.3,134.9,33.3z"/>
	<path class="st0" d="M141.4,26.1c0.6-0.3,1.5-0.7,2.9-0.7c2.9,0,3.5,1.4,3.5,3.7v4.1c0,0.7,0.1,1.3,0.1,1.6h-2
		c-0.1-0.4-0.1-0.8-0.1-1.3h0c-0.6,0.8-1.3,1.4-2.6,1.4c-1.4,0-2.8-1-2.8-2.7c0-2.5,2.1-3.2,4.9-3.2h0.5v-0.3c0-0.9-0.5-1.8-1.7-1.8
		c-1.1,0-2.1,0.5-2.5,0.9L141.4,26.1z M145.8,30.3h-0.2c-1.9,0-3,0.4-3,1.7c0,0.8,0.6,1.4,1.4,1.4c1.3,0,1.8-1,1.8-2.6V30.3z"/>
</g>
</svg>
