<!-- Generator: Adobe Illustrator 20.1.0, SVG Export Plug-In  -->
<svg version="1.1"
	 xmlns="http://www.w3.org/2000/svg" xmlns:xlink="http://www.w3.org/1999/xlink" xmlns:a="http://ns.adobe.com/AdobeSVGViewerExtensions/3.0/"
	 x="0px" y="0px" width="650.7px" height="83.5px" viewBox="0 0 650.7 83.5"
	 style="overflow:scroll;enable-background:new 0 0 650.7 83.5;" xml:space="preserve">
<style type="text/css">
	.st0{clip-path:url(#SVGID_2_);fill:#E8E8E8;}
	.st1{clip-path:url(#SVGID_2_);fill:#E5E5E5;}
	.st2{clip-path:url(#SVGID_2_);fill:#E1E1E1;}
	.st3{clip-path:url(#SVGID_2_);fill:#DEDEDE;}
	.st4{clip-path:url(#SVGID_2_);fill:#DBDBDB;}
	.st5{clip-path:url(#SVGID_2_);fill:#D8D8D8;}
	.st6{clip-path:url(#SVGID_2_);fill:#D4D4D4;}
	.st7{clip-path:url(#SVGID_2_);fill:#D1D1D1;}
	.st8{clip-path:url(#SVGID_2_);fill:#CECECE;}
	.st9{clip-path:url(#SVGID_2_);fill:#CACACA;}
	.st10{clip-path:url(#SVGID_2_);fill:#C7C7C7;}
	.st11{clip-path:url(#SVGID_2_);fill:#C4C4C4;}
	.st12{clip-path:url(#SVGID_2_);fill:#C0C0C0;}
	.st13{clip-path:url(#SVGID_2_);fill:#BDBDBD;}
	.st14{clip-path:url(#SVGID_2_);fill:#BABABA;}
	.st15{clip-path:url(#SVGID_2_);fill:#B7B7B7;}
	.st16{clip-path:url(#SVGID_2_);fill:#B3B3B3;}
	.st17{clip-path:url(#SVGID_2_);fill:#B0B0B0;}
	.st18{clip-path:url(#SVGID_2_);fill:#ADADAD;}
	.st19{clip-path:url(#SVGID_2_);fill:#A9A9A9;}
	.st20{clip-path:url(#SVGID_2_);fill:#A6A6A6;}
	.st21{clip-path:url(#SVGID_2_);fill:#A3A3A3;}
	.st22{clip-path:url(#SVGID_2_);fill:#9F9F9F;}
	.st23{clip-path:url(#SVGID_2_);fill:#9C9C9C;}
	.st24{clip-path:url(#SVGID_2_);fill:#999999;}
	.st25{clip-path:url(#SVGID_2_);fill:#969696;}
	.st26{clip-path:url(#SVGID_2_);fill:#929292;}
	.st27{clip-path:url(#SVGID_2_);fill:#8F8F8F;}
	.st28{clip-path:url(#SVGID_2_);fill:#8C8C8C;}
	.st29{clip-path:url(#SVGID_2_);fill:#888888;}
	.st30{clip-path:url(#SVGID_2_);fill:#858585;}
	.st31{clip-path:url(#SVGID_2_);fill:#828282;}
	.st32{clip-path:url(#SVGID_2_);fill:#7E7E7E;}
	.st33{clip-path:url(#SVGID_2_);fill:#7B7B7B;}
	.st34{clip-path:url(#SVGID_2_);fill:#787878;}
	.st35{clip-path:url(#SVGID_2_);fill:#757575;}
	.st36{clip-path:url(#SVGID_2_);fill:#717171;}
	.st37{clip-path:url(#SVGID_2_);fill:#6E6E6E;}
	.st38{clip-path:url(#SVGID_2_);fill:#6B6B6B;}
	.st39{clip-path:url(#SVGID_2_);fill:#676767;}
	.st40{clip-path:url(#SVGID_2_);fill:#646464;}
	.st41{clip-path:url(#SVGID_2_);fill:#616161;}
	.st42{clip-path:url(#SVGID_2_);fill:#5D5D5D;}
	.st43{clip-path:url(#SVGID_2_);fill:#5A5A5A;}
	.st44{clip-path:url(#SVGID_2_);fill:#575757;}
	.st45{clip-path:url(#SVGID_2_);fill:#545454;}
	.st46{clip-path:url(#SVGID_2_);fill:#505050;}
	.st47{clip-path:url(#SVGID_2_);fill:#4D4D4D;}
	.st48{clip-path:url(#SVGID_2_);fill:#4A4A4A;}
	.st49{clip-path:url(#SVGID_2_);fill:#464646;}
	.st50{clip-path:url(#SVGID_2_);fill:#434343;}
	.st51{clip-path:url(#SVGID_2_);fill:#404040;}
	.st52{fill:#652D90;}
	.st53{clip-path:url(#SVGID_4_);fill:#E8E8E8;}
	.st54{clip-path:url(#SVGID_4_);fill:#E5E5E5;}
	.st55{clip-path:url(#SVGID_4_);fill:#E1E1E1;}
	.st56{clip-path:url(#SVGID_4_);fill:#DEDEDE;}
	.st57{clip-path:url(#SVGID_4_);fill:#DBDBDB;}
	.st58{clip-path:url(#SVGID_4_);fill:#D8D8D8;}
	.st59{clip-path:url(#SVGID_4_);fill:#D4D4D4;}
	.st60{clip-path:url(#SVGID_4_);fill:#D1D1D1;}
	.st61{clip-path:url(#SVGID_4_);fill:#CECECE;}
	.st62{clip-path:url(#SVGID_4_);fill:#CACACA;}
	.st63{clip-path:url(#SVGID_4_);fill:#C7C7C7;}
	.st64{clip-path:url(#SVGID_4_);fill:#C4C4C4;}
	.st65{clip-path:url(#SVGID_4_);fill:#C0C0C0;}
	.st66{clip-path:url(#SVGID_4_);fill:#BDBDBD;}
	.st67{clip-path:url(#SVGID_4_);fill:#BABABA;}
	.st68{clip-path:url(#SVGID_4_);fill:#B7B7B7;}
	.st69{clip-path:url(#SVGID_4_);fill:#B3B3B3;}
	.st70{clip-path:url(#SVGID_4_);fill:#B0B0B0;}
	.st71{clip-path:url(#SVGID_4_);fill:#ADADAD;}
	.st72{clip-path:url(#SVGID_4_);fill:#A9A9A9;}
	.st73{clip-path:url(#SVGID_4_);fill:#A6A6A6;}
	.st74{clip-path:url(#SVGID_4_);fill:#A3A3A3;}
	.st75{clip-path:url(#SVGID_4_);fill:#9F9F9F;}
	.st76{clip-path:url(#SVGID_4_);fill:#9C9C9C;}
	.st77{clip-path:url(#SVGID_4_);fill:#999999;}
	.st78{clip-path:url(#SVGID_4_);fill:#969696;}
	.st79{clip-path:url(#SVGID_4_);fill:#929292;}
	.st80{clip-path:url(#SVGID_4_);fill:#8F8F8F;}
	.st81{clip-path:url(#SVGID_4_);fill:#8C8C8C;}
	.st82{clip-path:url(#SVGID_4_);fill:#888888;}
	.st83{clip-path:url(#SVGID_4_);fill:#858585;}
	.st84{clip-path:url(#SVGID_4_);fill:#828282;}
	.st85{clip-path:url(#SVGID_4_);fill:#7E7E7E;}
	.st86{clip-path:url(#SVGID_4_);fill:#7B7B7B;}
	.st87{clip-path:url(#SVGID_4_);fill:#787878;}
	.st88{clip-path:url(#SVGID_4_);fill:#757575;}
	.st89{clip-path:url(#SVGID_4_);fill:#717171;}
	.st90{clip-path:url(#SVGID_4_);fill:#6E6E6E;}
	.st91{clip-path:url(#SVGID_4_);fill:#6B6B6B;}
	.st92{clip-path:url(#SVGID_4_);fill:#676767;}
	.st93{clip-path:url(#SVGID_4_);fill:#646464;}
	.st94{clip-path:url(#SVGID_4_);fill:#616161;}
	.st95{clip-path:url(#SVGID_4_);fill:#5D5D5D;}
	.st96{clip-path:url(#SVGID_4_);fill:#5A5A5A;}
	.st97{clip-path:url(#SVGID_4_);fill:#575757;}
	.st98{clip-path:url(#SVGID_4_);fill:#545454;}
	.st99{clip-path:url(#SVGID_4_);fill:#505050;}
	.st100{clip-path:url(#SVGID_4_);fill:#4D4D4D;}
	.st101{clip-path:url(#SVGID_4_);fill:#4A4A4A;}
	.st102{clip-path:url(#SVGID_4_);fill:#464646;}
	.st103{clip-path:url(#SVGID_4_);fill:#434343;}
	.st104{clip-path:url(#SVGID_4_);fill:#404040;}
</style>
<defs>
</defs>
<g>
	<defs>
		<rect id="SVGID_1_" x="340.8" y="26.4" width="307.9" height="52.5"/>
	</defs>
	<clipPath id="SVGID_2_">
		<use xlink:href="#SVGID_1_"  style="overflow:visible;"/>
	</clipPath>
	<path class="st0" d="M644.7,0L245.9,57.7l404.8,25.8L644.7,0z M253.2,57l391-56.5l4.9,82.5L247.4,57.6L253.2,57z"/>
	<path class="st1" d="M644.2,0.4L253.2,57l-5.8,0.7l401.7,25.3L644.2,0.4z M260.6,56.3L643.8,0.9l3.8,81.5L249,57.6L260.6,56.3z"/>
	<path class="st2" d="M643.8,0.9L260.6,56.3L249,57.6l398.6,24.8L643.8,0.9z M268,55.6L643.3,1.3l2.7,80.5L250.5,57.6L268,55.6z"/>
	<path class="st3" d="M643.3,1.3L268,55.6l-17.4,2L646,81.8L643.3,1.3z M275.3,54.9L642.9,1.8l1.5,79.5L252.1,57.6L275.3,54.9z"/>
	<path class="st4" d="M642.9,1.8L275.3,54.9l-23.3,2.7l392.4,23.7L642.9,1.8z M253.6,57.5l29.1-3.3l359.7-52l0.4,78.5L253.6,57.5z"
		/>
	<path class="st5" d="M282.7,54.2l-29.1,3.3l389.2,23.2l-0.4-78.5L282.7,54.2z M641.3,80.2L255.2,57.5l34.9-4L642,2.6L641.3,80.2z"
		/>
	<path class="st6" d="M255.2,57.5l386.1,22.7L642,2.6L290.1,53.5L255.2,57.5z M641.5,3.1l-1.8,76.5l-383-22.1l40.7-4.7L641.5,3.1z"
		/>
	<path class="st7" d="M639.7,79.6l1.8-76.5L297.4,52.8l-40.7,4.7L639.7,79.6z M304.8,52.1L641.1,3.5l-2.9,75.6L258.3,57.5
		L304.8,52.1z"/>
	<path class="st8" d="M638.2,79.1l2.9-75.6L304.8,52.1l-46.5,5.3L638.2,79.1z M312.2,51.4L640.6,4l-4,74.6L259.8,57.5L312.2,51.4z"
		/>
	<path class="st9" d="M636.6,78.5l4-74.6L312.2,51.4l-52.3,6L636.6,78.5z M319.5,50.8L640.1,4.4L635,78L261.4,57.4L319.5,50.8z"/>
	<path class="st10" d="M635,78l5.1-73.6L319.5,50.8l-58.2,6.7L635,78z M326.9,50.1L639.7,4.8l-6.2,72.6l-370.5-20L326.9,50.1z"/>
	<path class="st11" d="M633.5,77.4l6.2-72.6L326.9,50.1l-64,7.3L633.5,77.4z M334.3,49.4l305-44.1l-7.3,71.6L264.5,57.4L334.3,49.4z
		"/>
	<path class="st12" d="M631.9,76.9l7.3-71.6l-305,44.1l-69.8,8L631.9,76.9z M341.6,48.7l297.2-43l-8.4,70.6L266,57.4L341.6,48.7z"/>
	<path class="st13" d="M630.3,76.3l8.4-70.6l-297.2,43L266,57.4L630.3,76.3z M349,48L638.3,6.2l-9.6,69.6L267.6,57.3L349,48z"/>
	<path class="st14" d="M628.8,75.8l9.6-69.6L349,48l-81.4,9.3L628.8,75.8z M356.4,47.3L637.9,6.6l-10.7,68.6L269.1,57.3L356.4,47.3z
		"/>
	<path class="st15" d="M627.2,75.2l10.7-68.6L356.4,47.3l-87.2,10L627.2,75.2z M363.7,46.6L637.4,7.1l-11.8,67.6l-355-17.4
		L363.7,46.6z"/>
	<path class="st16" d="M625.7,74.7l11.8-67.6L363.7,46.6l-93.1,10.7L625.7,74.7z M371.1,45.9L637,7.5l-12.9,66.6L272.2,57.3
		L371.1,45.9z"/>
	<path class="st17" d="M624.1,74.1L637,7.5L371.1,45.9l-98.9,11.4L624.1,74.1z M378.5,45.2L636.5,7.9l-14,65.6L273.8,57.3
		L378.5,45.2z"/>
	<path class="st18" d="M622.5,73.6l14-65.6L378.5,45.2l-104.7,12L622.5,73.6z M385.8,44.5L636.1,8.4L621,73L275.3,57.2L385.8,44.5z"
		/>
	<path class="st19" d="M621,73l15.1-64.7L385.8,44.5L275.3,57.2L621,73z M393.2,43.9l242.4-35l-16.2,63.7L276.9,57.2L393.2,43.9z"/>
	<path class="st20" d="M619.4,72.5l16.2-63.7l-242.4,35L276.9,57.2L619.4,72.5z M400.6,43.2L635.2,9.3l-17.3,62.7L278.4,57.2
		L400.6,43.2z"/>
	<path class="st21" d="M617.8,71.9l17.3-62.7L400.6,43.2l-122.1,14L617.8,71.9z M407.9,42.5L634.7,9.7l-18.4,61.7L280,57.2
		L407.9,42.5z"/>
	<path class="st22" d="M616.3,71.4l18.4-61.7L407.9,42.5L280,57.2L616.3,71.4z M415.3,41.8l219-31.6l-19.5,60.7L281.5,57.1
		L415.3,41.8z"/>
	<path class="st23" d="M614.7,70.8l19.5-60.7l-219,31.6L281.5,57.1L614.7,70.8z M422.7,41.1l211.1-30.5l-20.7,59.7L283.1,57.1
		L422.7,41.1z"/>
	<path class="st24" d="M613.1,70.3l20.7-59.7L422.7,41.1l-139.6,16L613.1,70.3z M430,40.4L633.3,11l-21.8,58.7l-327-12.6L430,40.4z"
		/>
	<path class="st25" d="M611.6,69.7L633.3,11L430,40.4L284.6,57.1L611.6,69.7z M437.4,39.7l195.5-28.3L610,69.2L286.2,57.1
		L437.4,39.7z"/>
	<path class="st26" d="M610,69.2l22.9-57.7L437.4,39.7L286.2,57.1L610,69.2z M444.8,39l187.7-27.1l-24,56.7L287.7,57.1L444.8,39z"/>
	<path class="st27" d="M608.5,68.6l24-56.7L444.8,39l-157,18L608.5,68.6z M452.1,38.3l179.9-26l-25.1,55.7L289.3,57L452.1,38.3z"/>
	<path class="st28" d="M606.9,68.1L632,12.3l-179.9,26L289.3,57L606.9,68.1z M459.5,37.6l172-24.9l-26.2,54.8L290.8,57L459.5,37.6z"
		/>
	<path class="st29" d="M605.3,67.5l26.2-54.8l-172,24.9L290.8,57L605.3,67.5z M466.9,37l164.2-23.7L603.8,67L292.4,57L466.9,37z"/>
	<path class="st30" d="M603.8,67l27.3-53.8L466.9,37L292.4,57L603.8,67z M474.2,36.3l156.4-22.6l-28.4,52.8L293.9,57L474.2,36.3z"/>
	<path class="st31" d="M602.2,66.4l28.4-52.8L474.2,36.3L293.9,57L602.2,66.4z M481.6,35.6l148.6-21.5l-29.5,51.8l-305.2-8.9
		L481.6,35.6z"/>
	<path class="st32" d="M600.6,65.9l29.5-51.8L481.6,35.6L295.5,56.9L600.6,65.9z M489,34.9l140.8-20.3l-30.6,50.8L297,56.9L489,34.9
		z"/>
	<path class="st33" d="M599.1,65.3l30.6-50.8L489,34.9L297,56.9L599.1,65.3z M496.3,34.2L629.3,15l-31.8,49.8l-298.9-7.9L496.3,34.2
		z"/>
	<path class="st34" d="M597.5,64.8L629.3,15L496.3,34.2L298.6,56.9L597.5,64.8z M503.7,33.5l125.1-18.1l-32.9,48.8l-295.8-7.4
		L503.7,33.5z"/>
	<path class="st35" d="M595.9,64.2l32.9-48.8L503.7,33.5L300.1,56.9L595.9,64.2z M511.1,32.8l117.3-17l-34,47.8l-292.7-6.8
		L511.1,32.8z"/>
	<path class="st36" d="M594.4,63.7l34-47.8l-117.3,17l-209.4,24L594.4,63.7z M518.4,32.1l109.5-15.8l-35.1,46.8l-289.6-6.3
		L518.4,32.1z"/>
	<path class="st37" d="M592.8,63.1l35.1-46.8L518.4,32.1L303.2,56.8L592.8,63.1z M525.8,31.4l101.7-14.7l-36.2,45.8l-286.5-5.8
		L525.8,31.4z"/>
	<path class="st38" d="M591.3,62.6l36.2-45.8L525.8,31.4l-221,25.4L591.3,62.6z M533.2,30.8L627,17.2L589.7,62l-283.4-5.2
		L533.2,30.8z"/>
	<path class="st39" d="M589.7,62L627,17.2l-93.8,13.6l-226.8,26L589.7,62z M540.5,30.1l86-12.4l-38.4,43.9l-280.3-4.7L540.5,30.1z"
		/>
	<path class="st40" d="M588.1,61.5l38.4-43.9l-86,12.4L307.9,56.8L588.1,61.5z M547.9,29.4l78.2-11.3l-39.5,42.9l-277.2-4.2
		L547.9,29.4z"/>
	<path class="st41" d="M586.6,60.9l39.5-42.9l-78.2,11.3L309.4,56.7L586.6,60.9z M555.3,28.7l70.4-10.2L585,60.4l-274-3.7
		L555.3,28.7z"/>
	<path class="st42" d="M585,60.4l40.6-41.9l-70.4,10.2L311,56.7L585,60.4z M562.6,28l62.6-9l-41.7,40.9l-270.9-3.1L562.6,28z"/>
	<path class="st43" d="M583.4,59.8l41.7-40.9l-62.6,9L312.5,56.7L583.4,59.8z M570,27.3l54.7-7.9l-0.5,0.4l0,0l-0.4,0.3l-0.1,0.1
		l0,0l-0.4,0.4l-0.1,0.1l0.1,0L623,21l-0.1,0.1l0.1,0l-0.4,0.3l-0.1,0.1l0.1,0l-0.4,0.3l-0.1,0.1l0.1,0l-0.5,0.3l-0.2,0.1l0.2,0
		l-0.5,0.3l-39.2,36.5l-267.8-2.6L570,27.3z"/>
	<polygon class="st44" points="621.4,22.5 621.5,22.4 621.3,22.5 	"/>
	<polygon class="st44" points="622.3,21.6 622.5,21.5 622.3,21.6 	"/>
	<polygon class="st44" points="581.9,59.3 621.1,22.8 620.5,23.1 580.3,58.7 315.6,56.7 577.4,26.6 624.3,19.8 624.7,19.4 570,27.3 
		314.1,56.7 	"/>
	<polygon class="st44" points="623.8,20.3 623.9,20.2 623.8,20.3 	"/>
	<polygon class="st44" points="622.8,21.2 623,21 622.8,21.2 	"/>
	<polygon class="st44" points="621.9,22.1 622,21.9 621.8,22.1 	"/>
	<polygon class="st44" points="623.3,20.7 623.4,20.6 623.3,20.7 	"/>
	<polygon class="st45" points="315.6,56.7 580.3,58.7 620.5,23.1 620,23.5 578.8,58.2 317.2,56.6 584.7,25.9 623.8,20.3 623.9,20.2 
		624.3,19.8 624.3,19.8 577.4,26.6 	"/>
	<polygon class="st46" points="584.7,25.9 317.2,56.6 578.8,58.2 620,23.5 619.4,23.8 577.2,57.6 318.7,56.6 592.1,25.2 623.3,20.7 
		623.4,20.6 623.8,20.3 623.8,20.3 623.8,20.3 	"/>
	<polygon class="st47" points="592.1,25.2 318.7,56.6 577.2,57.6 619.4,23.8 618.9,24.2 575.6,57.1 320.3,56.6 599.5,24.5 
		622.8,21.2 623,21 623.4,20.7 623.3,20.7 623.3,20.7 	"/>
	<polygon class="st48" points="599.5,24.5 320.3,56.6 575.6,57.1 618.9,24.2 618.3,24.6 574.1,56.5 321.8,56.6 606.8,23.9 
		622.3,21.6 622.5,21.5 622.9,21.2 622.8,21.2 622.8,21.2 	"/>
	<polygon class="st49" points="606.8,23.9 321.8,56.6 574.1,56.5 618.3,24.6 617.8,24.9 572.5,56 323.4,56.5 614.2,23.2 621.8,22.1 
		622,21.9 622.5,21.6 622.3,21.6 622.3,21.6 	"/>
	<polygon class="st50" points="614.2,23.2 323.4,56.5 572.5,56 617.8,24.9 570.9,55.4 324.9,56.5 621.3,22.5 621.5,22.4 622,22 
		621.9,22.1 621.8,22.1 	"/>
	<polygon class="st51" points="324.9,56.5 570.9,55.4 617.8,24.9 618.3,24.6 618.9,24.2 619.4,23.8 620,23.5 620.5,23.1 621.1,22.8 
		621.6,22.5 621.4,22.5 621.3,22.5 	"/>
</g>
<rect y="14.3" class="st52" width="648.7" height="48.5"/>
</svg>
