<!-- Generator: Adobe Illustrator 20.1.0, SVG Export Plug-In  -->
<svg version="1.1"
	 xmlns="http://www.w3.org/2000/svg" xmlns:xlink="http://www.w3.org/1999/xlink" xmlns:a="http://ns.adobe.com/AdobeSVGViewerExtensions/3.0/"
	 x="0px" y="0px" width="288px" height="23.6px" viewBox="0 0 288 23.6"
	 style="overflow:scroll;enable-background:new 0 0 288 23.6;" xml:space="preserve">
<style type="text/css">
	.st0{fill:#FFFFFF;}
</style>
<defs>
</defs>
<g>
	<g>
		<path class="st0" d="M0.5,14.3c0.6,0.3,2.2,1,3.8,1c1.7,0,2.3-0.7,2.3-1.8c0-1.1-0.7-1.4-2-1.9l-1-0.4C0.8,10.1,0,8.6,0,6.2
			c0-3.2,2.5-5,6.1-5c1.3,0,2.9,0.1,4.2,0.7l-0.2,3.3C9.3,4.8,8,4.4,6.7,4.4C5.3,4.4,4.5,4.9,4.5,6c0,0.9,0.4,1.2,1.9,1.9l2,0.9
			c1.5,0.7,2.8,1.8,2.8,4.2c0,3.7-2.6,5.5-6.6,5.5c-2,0-3.6-0.4-4.5-0.6L0.5,14.3z"/>
		<path class="st0" d="M17.2,13.2c0.1,2,1.5,2.6,3.1,2.6c1.2,0,2.6-0.5,3.6-1l0.1,3c-1,0.3-2.6,0.7-4.4,0.7c-5.1,0-6.5-3.4-6.5-6.6
			c0-3.4,2-6.5,5.8-6.5c3.9,0,5.8,3.1,5.8,6.5v1.2H17.2z M20.8,11v-0.4c0-1.7-0.5-2.5-1.8-2.5c-1.2,0-1.9,1.1-1.9,2.8H20.8z"/>
		<path class="st0" d="M27.3,19.3c0.8,0.5,2,1.2,3.9,1.2c2.5,0,3.4-1.4,3.4-3.7v-0.9h0c-0.6,1.6-1.8,2.5-3.3,2.5
			c-3.4,0-4.7-2.8-4.7-6.7c0-3.2,1.7-6.1,4.7-6.1c1.9,0,2.9,1.1,3.4,2.3h0c0-0.6,0.1-1.4,0.2-2h4.1c-0.1,0.7-0.1,1.7-0.1,2.9v8
			c0,4.4-1.9,6.9-6.8,6.9c-1.9,0-4.1-0.6-4.7-0.8L27.3,19.3z M32.6,8.6c-1.2,0-1.6,1.3-1.6,3.2c0,2.1,0.3,3.6,1.7,3.6
			c1.4,0,1.7-1.4,1.7-3.4C34.3,9.8,33.8,8.6,32.6,8.6z"/>
		<path class="st0" d="M52.4,16.2c0,0.9,0.1,1.7,0.1,2.1h-4.1c-0.1-0.5-0.1-1.4-0.1-2.1h0c-0.2,0.7-1.1,2.4-3.5,2.4
			c-2.1,0-3.8-1.3-3.8-4V5.8h4.3v7.5c0,1.2,0.4,1.8,1.2,1.8c1.2,0,1.5-1.1,1.5-2.1V5.8h4.3V16.2z"/>
		<path class="st0" d="M54.8,9.4c0-1.8-0.1-3-0.1-3.6h4.1c0.1,0.5,0.1,1.4,0.1,2.1h0c0.4-1,1.1-2.4,3.2-2.4c0.3,0,0.5,0,0.7,0.1v3.8
			c-0.2-0.1-0.8-0.1-1.3-0.1c-1.4,0-2.4,1.2-2.4,2.9v6.2h-4.3V9.4z"/>
		<path class="st0" d="M64.8,0.3h4.3v3.6h-4.3V0.3z M64.8,5.8h4.3v12.5h-4.3V5.8z"/>
		<path class="st0" d="M83.5,16.1c0,0.7,0,1.5,0.1,2.2h-4.1c0-0.7-0.1-1.3-0.1-2h0c-0.9,1.7-2,2.2-3.3,2.2c-3.3,0-4.7-3-4.7-6.7
			c0-2.9,1.3-6.2,4.5-6.2c1.7,0,2.6,0.7,3.5,2.1h0c0-0.5-0.1-1.3-0.1-2.2V0.3h4.3V16.1z M77.5,15.5c1.1,0,1.7-1.4,1.7-3.5
			s-0.6-3.5-1.7-3.5c-1.3,0-1.7,1.4-1.7,3.5S76.2,15.5,77.5,15.5z"/>
		<path class="st0" d="M96.9,15.5c0,1,0.1,2,0.1,2.8h-3.8c0-0.6-0.1-1.2-0.1-1.7c-1.2,1.4-2.2,2-3.7,2c-2.2,0-3.8-1.6-3.8-4
			c0-2.8,2.1-4.3,6.4-4.3H93V9.9c0-0.8-0.6-1.7-2.4-1.7c-1.3,0-2.7,0.6-3.6,1.2l-0.1-3.1c1-0.4,2.6-0.8,4.7-0.8
			c4.4,0,5.3,2.1,5.3,4.6V15.5z M93,12.2h-0.5c-1.9,0-3.2,0.6-3.2,2.1c0,1.1,0.6,1.5,1.5,1.5c2,0,2.2-2,2.2-3.2V12.2z"/>
		<path class="st0" d="M111.1,16.1c0,0.7,0,1.5,0.1,2.2H107c0-0.7-0.1-1.3-0.1-2h0c-0.9,1.7-2,2.2-3.3,2.2c-3.3,0-4.7-3-4.7-6.7
			c0-2.9,1.3-6.2,4.5-6.2c1.7,0,2.6,0.7,3.5,2.1h0c0-0.5-0.1-1.3-0.1-2.2V0.3h4.3V16.1z M105.1,15.5c1.1,0,1.7-1.4,1.7-3.5
			s-0.6-3.5-1.7-3.5c-1.3,0-1.7,1.4-1.7,3.5S103.8,15.5,105.1,15.5z"/>
		<path class="st0" d="M123.1,5.8l2.2,8h0l2.1-8h4.2L127,19.7c-0.7,2.1-1.7,3.9-4.7,3.9c-1.2,0-1.9-0.3-2.4-0.4l0.1-3.1
			c0.4,0.1,0.7,0.2,1.2,0.2c1.3,0,2-0.8,2-2l-4.6-12.5H123.1z"/>
		<path class="st0" d="M143,13.2c0.1,2,1.5,2.6,3.1,2.6c1.2,0,2.6-0.5,3.6-1l0.1,3c-1,0.3-2.6,0.7-4.4,0.7c-5.1,0-6.5-3.4-6.5-6.6
			c0-3.4,2-6.5,5.8-6.5c3.9,0,5.8,3.1,5.8,6.5v1.2H143z M146.6,11v-0.4c0-1.7-0.5-2.5-1.8-2.5c-1.2,0-1.9,1.1-1.9,2.8H146.6z"/>
		<path class="st0" d="M153.8,8.7h-2.2V5.8h2.2V4c0-2.9,1.6-4,4.2-4c1.5,0,2.3,0.2,2.8,0.3l-0.1,3.1c-0.3-0.1-0.6-0.2-1.1-0.2
			c-1,0-1.4,0.5-1.4,1.6v1h2.4v2.9h-2.4v9.6h-4.3V8.7z M161.7,0.3h4.3v3.6h-4.3V0.3z M161.7,5.8h4.3v12.5h-4.3V5.8z"/>
		<path class="st0" d="M177.6,9.2c-0.5-0.2-1.2-0.5-2.1-0.5c-1.6,0-2.8,1-2.8,3.3c0,1.9,0.6,3.3,2.8,3.3c1.1,0,2.1-0.4,2.4-0.6
			l0.1,3.1c-0.6,0.3-2.5,0.6-3.5,0.6c-4.6,0-6.2-3.1-6.2-6.5s1.7-6.6,6.2-6.6c1.8,0,2.9,0.4,3.4,0.6L177.6,9.2z"/>
		<path class="st0" d="M190.7,15.5c0,1,0.1,2,0.1,2.8H187c0-0.6-0.1-1.2-0.1-1.7c-1.2,1.4-2.2,2-3.7,2c-2.2,0-3.8-1.6-3.8-4
			c0-2.8,2.1-4.3,6.4-4.3h1.1V9.9c0-0.8-0.6-1.7-2.4-1.7c-1.3,0-2.7,0.6-3.6,1.2l-0.1-3.1c1-0.4,2.6-0.8,4.7-0.8
			c4.4,0,5.3,2.1,5.3,4.6V15.5z M186.8,12.2h-0.5c-1.9,0-3.2,0.6-3.2,2.1c0,1.1,0.6,1.5,1.5,1.5c2,0,2.2-2,2.2-3.2V12.2z"/>
		<path class="st0" d="M202.1,9.2c-0.5-0.2-1.2-0.5-2.1-0.5c-1.6,0-2.8,1-2.8,3.3c0,1.9,0.6,3.3,2.8,3.3c1.1,0,2.1-0.4,2.4-0.6
			l0.1,3.1c-0.6,0.3-2.5,0.6-3.5,0.6c-4.6,0-6.2-3.1-6.2-6.5s1.7-6.6,6.2-6.6c1.8,0,2.9,0.4,3.4,0.6L202.1,9.2z"/>
		<path class="st0" d="M204.4,0.3h4.3v3.6h-4.3V0.3z M204.4,5.8h4.3v12.5h-4.3V5.8z"/>
		<path class="st0" d="M222.2,15.5c0,1,0.1,2,0.1,2.8h-3.8c0-0.6-0.1-1.2-0.1-1.7c-1.2,1.4-2.2,2-3.7,2c-2.2,0-3.8-1.6-3.8-4
			c0-2.8,2.1-4.3,6.4-4.3h1.1V9.9c0-0.8-0.6-1.7-2.4-1.7c-1.3,0-2.7,0.6-3.6,1.2l-0.1-3.1c1-0.4,2.6-0.8,4.7-0.8
			c4.4,0,5.3,2.1,5.3,4.6V15.5z M218.4,12.2h-0.5c-1.9,0-3.2,0.6-3.2,2.1c0,1.1,0.6,1.5,1.5,1.5c2,0,2.2-2,2.2-3.2V12.2z"/>
		<path class="st0" d="M238.3,18.6c0-0.9,0-1.7,0.1-2.2h0c-0.9,1.4-1.8,2.1-3.5,2.1c-3.1,0-4.5-3.3-4.5-6.2c0-3.8,1.4-6.7,4.7-6.7
			c1.3,0,2.4,0.5,3.3,2.2h0c0-0.7,0.1-1.3,0.1-1.9h4.2c-0.1,0.3-0.1,1.1-0.1,2.8v14.9h-4.3V18.6z M236.6,15.6c1.1,0,1.7-1.4,1.7-3.5
			c0-2.2-0.7-3.5-1.8-3.5c-1.2,0-1.5,1.4-1.5,3.5C235,14.1,235.4,15.6,236.6,15.6z"/>
		<path class="st0" d="M256.4,16.2c0,0.9,0.1,1.7,0.1,2.1h-4.1c-0.1-0.5-0.1-1.4-0.1-2.1h0c-0.2,0.7-1.1,2.4-3.5,2.4
			c-2.1,0-3.8-1.3-3.8-4V5.8h4.3v7.5c0,1.2,0.4,1.8,1.2,1.8c1.2,0,1.5-1.1,1.5-2.1V5.8h4.3V16.2z"/>
		<path class="st0" d="M262.5,13.2c0.1,2,1.5,2.6,3.1,2.6c1.2,0,2.6-0.5,3.6-1l0.1,3c-1,0.3-2.6,0.7-4.4,0.7c-5.1,0-6.5-3.4-6.5-6.6
			c0-3.4,2-6.5,5.8-6.5c3.9,0,5.8,3.1,5.8,6.5v1.2H262.5z M266.1,11v-0.4c0-1.7-0.5-2.5-1.8-2.5c-1.2,0-1.9,1.1-1.9,2.8H266.1z"/>
		<path class="st0" d="M271.7,14.4h3.8v3.8h-3.8V14.4z"/>
		<path class="st0" d="M278,14.4h3.8v3.8H278V14.4z"/>
		<path class="st0" d="M284.2,14.4h3.8v3.8h-3.8V14.4z"/>
	</g>
</g>
</svg>
