<!-- Generator: Adobe Illustrator 20.1.0, SVG Export Plug-In  -->
<svg version="1.1"
	 xmlns="http://www.w3.org/2000/svg" xmlns:xlink="http://www.w3.org/1999/xlink" xmlns:a="http://ns.adobe.com/AdobeSVGViewerExtensions/3.0/"
	 x="0px" y="0px" width="720.5px" height="38.3px" viewBox="0 0 720.5 38.3"
	 style="overflow:scroll;enable-background:new 0 0 720.5 38.3;" xml:space="preserve">
<style type="text/css">
	.st0{fill:#652D90;}
</style>
<defs>
</defs>
<g>
	<g>
		<path class="st0" d="M0,0.9h3.3v9.8h4.1v2.5H0V0.9z"/>
		<path class="st0" d="M16.6,11.2c0,0.7,0.1,1.5,0.1,2h-2.8c0-0.4-0.1-0.8-0.1-1.3c-0.9,1-1.6,1.5-2.8,1.5c-1.6,0-2.8-1.2-2.8-2.9
			c0-2,1.5-3.1,4.7-3.1h0.8V7.1c0-0.6-0.5-1.3-1.7-1.3c-1,0-2,0.4-2.6,0.9L9.3,4.4c0.8-0.3,1.9-0.6,3.4-0.6c3.2,0,3.9,1.5,3.9,3.4
			V11.2z M13.8,8.8h-0.4c-1.4,0-2.3,0.4-2.3,1.5c0,0.8,0.4,1.1,1.1,1.1c1.5,0,1.6-1.5,1.6-2.3V8.8z"/>
		<path class="st0" d="M31,11.2c0,0.7,0.1,1.5,0.1,2h-2.8c0-0.4-0.1-0.8-0.1-1.3c-0.9,1-1.6,1.5-2.8,1.5c-1.6,0-2.8-1.2-2.8-2.9
			c0-2,1.5-3.1,4.7-3.1h0.8V7.1c0-0.6-0.5-1.3-1.7-1.3c-1,0-2,0.4-2.6,0.9l-0.1-2.3c0.8-0.3,1.9-0.6,3.4-0.6c3.2,0,3.9,1.5,3.9,3.4
			V11.2z M28.2,8.8h-0.4c-1.4,0-2.3,0.4-2.3,1.5c0,0.8,0.4,1.1,1.1,1.1c1.5,0,1.6-1.5,1.6-2.3V8.8z"/>
		<path class="st0" d="M32.8,5.9c0-0.7-0.1-1.4-0.1-1.9h3c0.1,0.4,0.1,1,0.1,1.5h0c0.2-0.5,0.8-1.7,2.6-1.7c1.6,0,2.8,0.9,2.8,3v6.4
			H38V7.7c0-0.9-0.3-1.3-0.9-1.3c-0.8,0-1.1,0.8-1.1,1.8v5h-3.2V5.9z"/>
		<path class="st0" d="M42.7,10.6c0.5,0.2,1.3,0.7,2.4,0.7c0.9,0,1.3-0.2,1.3-0.7c0-0.3-0.2-0.5-1-0.8l-1-0.4
			C43,8.9,42.5,8,42.5,6.8c0-1.6,1-3,3.8-3c1,0,1.9,0.2,2.6,0.4l-0.1,2.3C48.2,6.3,47.4,6,46.6,6c-0.6,0-1.1,0.2-1.1,0.7
			c0,0.3,0.3,0.5,1.1,0.8l1.1,0.4c1.1,0.4,1.8,1,1.8,2.6c0,1.9-1.2,3-3.9,3c-1,0-2.3-0.2-2.8-0.4L42.7,10.6z"/>
		<path class="st0" d="M50.9,0h3.2v2.6h-3.2V0z M50.9,4h3.2v9.2h-3.2V4z"/>
		<path class="st0" d="M58.7,9.5c0.1,1.5,1.1,1.9,2.3,1.9c0.9,0,1.9-0.4,2.7-0.7l0.1,2.2c-0.8,0.2-1.9,0.5-3.2,0.5
			c-3.7,0-4.8-2.5-4.8-4.9c0-2.5,1.5-4.8,4.3-4.8c2.9,0,4.2,2.3,4.2,4.8v0.9H58.7z M61.4,7.9V7.6c0-1.2-0.3-1.8-1.3-1.8
			c-0.9,0-1.4,0.8-1.4,2.1H61.4z"/>
		<path class="st0" d="M74.5,11.6c0,0.5,0,1.1,0.1,1.6h-3c0-0.5-0.1-1-0.1-1.5h0c-0.7,1.2-1.5,1.6-2.4,1.6c-2.4,0-3.4-2.2-3.4-5
			c0-2.2,1-4.6,3.3-4.6c1.2,0,1.9,0.5,2.5,1.6h0c0-0.4-0.1-1-0.1-1.6V0h3.2V11.6z M70.1,11.2c0.8,0,1.2-1.1,1.2-2.6S70.9,6,70.1,6
			c-0.9,0-1.2,1-1.2,2.6S69.2,11.2,70.1,11.2z"/>
		<path class="st0" d="M84.3,11.2c0,0.7,0.1,1.5,0.1,2h-2.8c0-0.4-0.1-0.8-0.1-1.3c-0.9,1-1.6,1.5-2.8,1.5c-1.6,0-2.8-1.2-2.8-2.9
			c0-2,1.5-3.1,4.7-3.1h0.8V7.1c0-0.6-0.5-1.3-1.7-1.3c-1,0-2,0.4-2.6,0.9L77,4.4c0.8-0.3,1.9-0.6,3.4-0.6c3.2,0,3.9,1.5,3.9,3.4
			V11.2z M81.5,8.8h-0.4c-1.4,0-2.3,0.4-2.3,1.5c0,0.8,0.4,1.1,1.1,1.1c1.5,0,1.6-1.5,1.6-2.3V8.8z"/>
		<path class="st0" d="M94.8,11.6c0,0.5,0,1.1,0.1,1.6h-3c0-0.5-0.1-1-0.1-1.5h0c-0.7,1.2-1.5,1.6-2.4,1.6c-2.4,0-3.4-2.2-3.4-5
			c0-2.2,1-4.6,3.3-4.6c1.2,0,1.9,0.5,2.5,1.6h0c0-0.4-0.1-1-0.1-1.6V0h3.2V11.6z M90.4,11.2c0.8,0,1.2-1.1,1.2-2.6S91.1,6,90.4,6
			c-0.9,0-1.2,1-1.2,2.6S89.4,11.2,90.4,11.2z"/>
		<path class="st0" d="M107.9,12.8c-0.5,0.2-1.4,0.6-2.7,0.6c-2.9,0-4.2-2.1-4.2-4.6c0-2.7,1.4-4.8,3.7-4.8c2,0,3.6,1.1,3.6,4.9v0.4
			h-5.3c0,1.6,0.6,2.5,2.3,2.5c1.3,0,2-0.4,2.4-0.7L107.9,12.8z M106.2,7.9c0-1.6-0.5-2.4-1.5-2.4c-1.1,0-1.6,1.2-1.6,2.4H106.2z"/>
		<path class="st0" d="M109.8,11.1c0.4,0.1,1.3,0.6,2.3,0.6c0.8,0,1.4-0.2,1.4-0.9c0-0.4-0.2-0.7-1-1.1l-0.9-0.5
			c-0.9-0.5-1.9-1.1-1.9-2.6c0-1.3,1.2-2.6,3.1-2.6c1.2,0,2.1,0.3,2.3,0.4L115,6.1c-0.5-0.2-1.1-0.4-1.9-0.4c-0.9,0-1.3,0.3-1.3,0.9
			c0,0.5,0.4,0.8,1,1.2l1.1,0.7c1.1,0.7,1.7,1.2,1.7,2.3c0,1.7-1.4,2.7-3.4,2.7c-1.1,0-2.1-0.3-2.5-0.4L109.8,11.1z"/>
		<path class="st0" d="M129,11.7c0,0.6,0,1.1,0.1,1.5h-2c0-0.5-0.1-0.9-0.1-1.4l-0.1,0l0,0c-0.4,0.7-1,1.5-2.4,1.5
			c-2.1,0-2.7-1.5-2.7-3.4V4.1h2.2v5.5c0,1.4,0.4,2,1.3,2c1.2,0,1.5-1.1,1.5-2.2V4.1h2.2V11.7z"/>
		<path class="st0" d="M131,5.6c0-0.6,0-1.1-0.1-1.5h2c0,0.5,0.1,0.9,0.1,1.4h0C133.4,5,134,4,135.5,4c2.1,0,2.7,1.5,2.7,3.4v5.9
			H136V7.8c0-1.4-0.4-2-1.3-2c-1.1,0-1.6,1-1.6,2.1v5.3H131V5.6z"/>
		<path class="st0" d="M151.4,12.8c-0.5,0.2-1.4,0.6-2.7,0.6c-2.9,0-4.2-2.1-4.2-4.6c0-2.7,1.4-4.8,3.7-4.8c2,0,3.6,1.1,3.6,4.9v0.4
			h-5.3c0,1.6,0.6,2.5,2.3,2.5c1.3,0,2-0.4,2.4-0.7L151.4,12.8z M149.8,7.9c0-1.6-0.5-2.4-1.5-2.4c-1.1,0-1.6,1.2-1.6,2.4H149.8z"/>
		<path class="st0" d="M153.3,11.1c0.4,0.1,1.3,0.6,2.3,0.6c0.8,0,1.4-0.2,1.4-0.9c0-0.4-0.2-0.7-1-1.1l-0.9-0.5
			c-0.9-0.5-1.9-1.1-1.9-2.6c0-1.3,1.2-2.6,3.1-2.6c1.2,0,2.1,0.3,2.3,0.4l-0.1,1.7c-0.5-0.2-1.1-0.4-1.9-0.4
			c-0.9,0-1.3,0.3-1.3,0.9c0,0.5,0.4,0.8,1,1.2l1.1,0.7c1.1,0.7,1.7,1.2,1.7,2.3c0,1.7-1.4,2.7-3.4,2.7c-1.1,0-2.1-0.3-2.5-0.4
			L153.3,11.1z"/>
		<path class="st0" d="M161.6,2.3l2.2-0.7v2.5h1.8v1.6h-1.8v4.7c0,1,0.4,1.3,1,1.3c0.4,0,0.7-0.1,0.8-0.2v1.6
			c-0.3,0.2-0.8,0.3-1.5,0.3c-1.6,0-2.5-0.7-2.5-2.6v-5h-1.4V4.1h1.4V2.3z"/>
		<path class="st0" d="M167.4,4.7c0.6-0.3,1.5-0.7,2.9-0.7c2.8,0,3.5,1.4,3.5,3.7v4c0,0.7,0.1,1.3,0.1,1.6h-2
			c-0.1-0.4-0.1-0.8-0.1-1.2h0c-0.5,0.7-1.2,1.4-2.5,1.4c-1.4,0-2.7-1-2.7-2.7c0-2.5,2-3.1,4.8-3.1h0.4V7.3c0-0.9-0.4-1.7-1.7-1.7
			c-1.1,0-2.1,0.5-2.5,0.9L167.4,4.7z M171.7,8.8h-0.2c-1.9,0-3,0.4-3,1.7c0,0.8,0.5,1.4,1.4,1.4c1.3,0,1.8-1,1.8-2.6V8.8z"/>
		<path class="st0" d="M183.3,0v11.7c0,0.7,0,1.2,0.1,1.6h-2c0-0.3-0.1-0.8-0.1-1.4h-0.1c-0.4,0.8-1,1.6-2.4,1.6
			c-2.3,0-3.2-2.2-3.2-4.7c0-3,1.2-4.7,3.1-4.7c1.3,0,2,0.7,2.3,1.4h0V0H183.3z M179.3,11.8c1.3,0,1.7-1.4,1.7-3.1
			c0-1.8-0.5-3.1-1.7-3.1c-1.2,0-1.6,1.2-1.6,3C177.7,10.7,178.1,11.8,179.3,11.8z"/>
		<path class="st0" d="M189,4c1.9,0,4,1,4,4.7c0,3.8-2.1,4.7-4,4.7s-4-0.9-4-4.7C185,5,187.2,4,189,4z M189,11.8
			c1.4,0,1.7-1.6,1.7-3.1c0-1.5-0.3-3.1-1.7-3.1s-1.7,1.6-1.7,3.1C187.3,10.2,187.6,11.8,189,11.8z"/>
		<path class="st0" d="M206,12.8c-0.5,0.2-1.4,0.6-2.7,0.6c-2.9,0-4.2-2.1-4.2-4.6c0-2.7,1.4-4.8,3.7-4.8c2,0,3.6,1.1,3.6,4.9v0.4
			h-5.3c0,1.6,0.6,2.5,2.3,2.5c1.3,0,2-0.4,2.4-0.7L206,12.8z M204.4,7.9c0-1.6-0.5-2.4-1.5-2.4c-1.1,0-1.6,1.2-1.6,2.4H204.4z"/>
		<path class="st0" d="M208.1,5.6c0-0.7,0-1.1-0.1-1.5h2.2c0,0.5,0.1,1,0.1,1.4h0c0.3-0.7,1-1.6,2.3-1.6c1.5,0,2,1,2.3,1.4
			c0.4-0.6,1.1-1.4,2.4-1.4c2,0,2.6,1.4,2.6,3.6v5.6h-2.2V7.5c0-1.1-0.4-1.7-1.2-1.7c-1,0-1.5,0.9-1.5,1.9v5.5H213V7.5
			c0-1.1-0.4-1.7-1.2-1.7c-1,0-1.5,0.9-1.5,1.9v5.5h-2.2V5.6z"/>
		<path class="st0" d="M225.7,4c1.9,0,4,1,4,4.7c0,3.8-2.1,4.7-4,4.7s-4-0.9-4-4.7C221.7,5,223.8,4,225.7,4z M225.7,11.8
			c1.4,0,1.7-1.6,1.7-3.1c0-1.5-0.3-3.1-1.7-3.1s-1.7,1.6-1.7,3.1C223.9,10.2,224.3,11.8,225.7,11.8z"/>
		<path class="st0" d="M237.6,13c-0.5,0.2-1.3,0.4-2.2,0.4c-3,0-4.3-2.1-4.3-4.7c0-2.6,1.3-4.7,4.4-4.7c0.7,0,1.5,0.2,1.9,0.4
			l-0.1,1.7c-0.4-0.2-0.9-0.4-1.5-0.4c-1.7,0-2.4,1.1-2.4,3.1c0,1.7,0.8,3,2.5,3c0.5,0,1.3-0.2,1.6-0.4L237.6,13z"/>
		<path class="st0" d="M239.1,0.3h2.3v2.2h-2.3V0.3z M239.1,4.1h2.2v9.1h-2.2V4.1z"/>
		<path class="st0" d="M247.3,4c1.9,0,4,1,4,4.7c0,3.8-2.1,4.7-4,4.7s-4-0.9-4-4.7C243.3,5,245.4,4,247.3,4z M247.3,11.8
			c1.4,0,1.7-1.6,1.7-3.1c0-1.5-0.3-3.1-1.7-3.1s-1.7,1.6-1.7,3.1C245.5,10.2,245.8,11.8,247.3,11.8z"/>
		<path class="st0" d="M253,5.6c0-0.6,0-1.1-0.1-1.5h2c0,0.5,0.1,0.9,0.1,1.4h0C255.4,5,256,4,257.5,4c2.1,0,2.7,1.5,2.7,3.4v5.9
			H258V7.8c0-1.4-0.4-2-1.3-2c-1.1,0-1.6,1-1.6,2.1v5.3H253V5.6z"/>
		<path class="st0" d="M262.6,4.7c0.6-0.3,1.5-0.7,2.9-0.7c2.8,0,3.5,1.4,3.5,3.7v4c0,0.7,0.1,1.3,0.1,1.6h-2
			c-0.1-0.4-0.1-0.8-0.1-1.2h0c-0.5,0.7-1.2,1.4-2.5,1.4c-1.4,0-2.7-1-2.7-2.7c0-2.5,2-3.1,4.8-3.1h0.4V7.3c0-0.9-0.4-1.7-1.7-1.7
			c-1.1,0-2.1,0.5-2.5,0.9L262.6,4.7z M266.9,8.8h-0.2c-1.9,0-3,0.4-3,1.7c0,0.8,0.5,1.4,1.4,1.4c1.3,0,1.8-1,1.8-2.6V8.8z"/>
		<path class="st0" d="M271.2,0h2.2v13.2h-2.2V0z"/>
		<path class="st0" d="M280.6,4.7c0.6-0.3,1.5-0.7,2.9-0.7c2.8,0,3.5,1.4,3.5,3.7v4c0,0.7,0.1,1.3,0.1,1.6h-2
			c-0.1-0.4-0.1-0.8-0.1-1.2h0c-0.5,0.7-1.2,1.4-2.5,1.4c-1.4,0-2.7-1-2.7-2.7c0-2.5,2-3.1,4.8-3.1h0.4V7.3c0-0.9-0.4-1.7-1.7-1.7
			c-1.1,0-2.1,0.5-2.5,0.9L280.6,4.7z M284.9,8.8h-0.2c-1.9,0-3,0.4-3,1.7c0,0.8,0.5,1.4,1.4,1.4c1.3,0,1.8-1,1.8-2.6V8.8z"/>
		<path class="st0" d="M289,5.6c0-0.6,0-1.1-0.1-1.5h2c0,0.5,0.1,0.9,0.1,1.4h0C291.4,5,292,4,293.5,4c2.1,0,2.7,1.5,2.7,3.4v5.9
			H294V7.8c0-1.4-0.4-2-1.3-2c-1.1,0-1.6,1-1.6,2.1v5.3H289V5.6z"/>
		<path class="st0" d="M299,2.3l2.2-0.7v2.5h1.8v1.6h-1.8v4.7c0,1,0.4,1.3,1,1.3c0.4,0,0.7-0.1,0.8-0.2v1.6
			c-0.3,0.2-0.8,0.3-1.5,0.3c-1.6,0-2.5-0.7-2.5-2.6v-5h-1.4V4.1h1.4V2.3z"/>
		<path class="st0" d="M311,12.8c-0.5,0.2-1.4,0.6-2.7,0.6c-2.9,0-4.2-2.1-4.2-4.6c0-2.7,1.4-4.8,3.7-4.8c2,0,3.6,1.1,3.6,4.9v0.4
			h-5.3c0,1.6,0.6,2.5,2.3,2.5c1.3,0,2-0.4,2.4-0.7L311,12.8z M309.4,7.9c0-1.6-0.5-2.4-1.5-2.4c-1.1,0-1.6,1.2-1.6,2.4H309.4z"/>
		<path class="st0" d="M317.5,11.1c0.4,0.1,1.3,0.6,2.3,0.6c0.8,0,1.4-0.2,1.4-0.9c0-0.4-0.2-0.7-1-1.1l-0.9-0.5
			c-0.9-0.5-1.9-1.1-1.9-2.6c0-1.3,1.2-2.6,3.1-2.6c1.2,0,2.1,0.3,2.3,0.4l-0.1,1.7c-0.5-0.2-1.1-0.4-1.9-0.4
			c-0.9,0-1.3,0.3-1.3,0.9c0,0.5,0.4,0.8,1,1.2l1.1,0.7c1.1,0.7,1.7,1.2,1.7,2.3c0,1.7-1.4,2.7-3.4,2.7c-1.1,0-2.1-0.3-2.5-0.4
			L317.5,11.1z"/>
		<path class="st0" d="M325.1,0.3h2.3v2.2h-2.3V0.3z M325.2,4.1h2.2v9.1h-2.2V4.1z"/>
		<path class="st0" d="M330.4,2.3l2.2-0.7v2.5h1.8v1.6h-1.8v4.7c0,1,0.4,1.3,1,1.3c0.4,0,0.7-0.1,0.8-0.2v1.6
			c-0.3,0.2-0.8,0.3-1.5,0.3c-1.6,0-2.5-0.7-2.5-2.6v-5h-1.4V4.1h1.4V2.3z"/>
		<path class="st0" d="M342.9,11.7c0,0.6,0,1.1,0.1,1.5h-2c0-0.5-0.1-0.9-0.1-1.4l-0.1,0l0,0c-0.4,0.7-1,1.5-2.4,1.5
			c-2.1,0-2.7-1.5-2.7-3.4V4.1h2.2v5.5c0,1.4,0.4,2,1.3,2c1.2,0,1.5-1.1,1.5-2.2V4.1h2.2V11.7z"/>
		<path class="st0" d="M345.4,4.7c0.6-0.3,1.5-0.7,2.9-0.7c2.8,0,3.5,1.4,3.5,3.7v4c0,0.7,0.1,1.3,0.1,1.6h-2
			c-0.1-0.4-0.1-0.8-0.1-1.2h0c-0.5,0.7-1.2,1.4-2.5,1.4c-1.4,0-2.7-1-2.7-2.7c0-2.5,2-3.1,4.8-3.1h0.4V7.3c0-0.9-0.4-1.7-1.7-1.7
			c-1.1,0-2.1,0.5-2.5,0.9L345.4,4.7z M349.7,8.8h-0.2c-1.9,0-3,0.4-3,1.7c0,0.8,0.5,1.4,1.4,1.4c1.3,0,1.8-1,1.8-2.6V8.8z"/>
		<path class="st0" d="M359.9,13c-0.5,0.2-1.3,0.4-2.2,0.4c-3,0-4.3-2.1-4.3-4.7c0-2.6,1.3-4.7,4.4-4.7c0.7,0,1.5,0.2,1.9,0.4
			l-0.1,1.7c-0.4-0.2-0.9-0.4-1.5-0.4c-1.7,0-2.4,1.1-2.4,3.1c0,1.7,0.8,3,2.5,3c0.5,0,1.3-0.2,1.6-0.4L359.9,13z"/>
		<path class="st0" d="M361.4,0.3h2.3v2.2h-2.3V0.3z M361.5,4.1h2.2v9.1h-2.2V4.1z"/>
		<path class="st0" d="M369.6,4c1.9,0,4,1,4,4.7c0,3.8-2.1,4.7-4,4.7s-4-0.9-4-4.7C365.6,5,367.8,4,369.6,4z M369.6,11.8
			c1.4,0,1.7-1.6,1.7-3.1c0-1.5-0.3-3.1-1.7-3.1s-1.7,1.6-1.7,3.1C367.9,10.2,368.2,11.8,369.6,11.8z"/>
		<path class="st0" d="M375.3,5.6c0-0.6,0-1.1-0.1-1.5h2c0,0.5,0.1,0.9,0.1,1.4h0c0.3-0.5,0.9-1.5,2.4-1.5c2.1,0,2.7,1.5,2.7,3.4
			v5.9h-2.2V7.8c0-1.4-0.4-2-1.3-2c-1.1,0-1.6,1-1.6,2.1v5.3h-2.2V5.6z"/>
		<path class="st0" d="M391.2,12.8c-0.5,0.2-1.4,0.6-2.7,0.6c-2.9,0-4.2-2.1-4.2-4.6c0-2.7,1.4-4.8,3.7-4.8c2,0,3.6,1.1,3.6,4.9v0.4
			h-5.3c0,1.6,0.6,2.5,2.3,2.5c1.3,0,2-0.4,2.4-0.7L391.2,12.8z M389.5,7.9c0-1.6-0.5-2.4-1.5-2.4c-1.1,0-1.6,1.2-1.6,2.4H389.5z"/>
		<path class="st0" d="M393.1,11.1c0.4,0.1,1.3,0.6,2.3,0.6c0.8,0,1.4-0.2,1.4-0.9c0-0.4-0.2-0.7-1-1.1l-0.9-0.5
			C394,8.6,393,8,393,6.6c0-1.3,1.2-2.6,3.1-2.6c1.2,0,2.1,0.3,2.3,0.4l-0.1,1.7c-0.5-0.2-1.1-0.4-1.9-0.4c-0.9,0-1.3,0.3-1.3,0.9
			c0,0.5,0.4,0.8,1,1.2l1.1,0.7c1.1,0.7,1.7,1.2,1.7,2.3c0,1.7-1.4,2.7-3.4,2.7c-1.1,0-2.1-0.3-2.5-0.4L393.1,11.1z"/>
		<path class="st0" d="M410.4,11.9L410.4,11.9c-0.4,0.7-1.1,1.4-2.4,1.4c-2,0-3.1-1.7-3.1-4.7c0-2.5,0.9-4.7,3.2-4.7
			c1.4,0,2.1,0.8,2.4,1.6h0.1c0-0.6,0-1.1,0.1-1.4h2c-0.1,0.3-0.1,0.9-0.1,1.6v11.4h-2.2V11.9z M408.7,11.8c1.2,0,1.7-1.3,1.7-3.1
			c0-1.7-0.4-3.1-1.7-3.1c-1.3,0-1.6,1.1-1.6,3.2C407,10.6,407.5,11.8,408.7,11.8z"/>
		<path class="st0" d="M421.8,11.7c0,0.6,0,1.1,0.1,1.5h-2c0-0.5-0.1-0.9-0.1-1.4l-0.1,0l0,0c-0.4,0.7-1,1.5-2.4,1.5
			c-2.1,0-2.7-1.5-2.7-3.4V4.1h2.2v5.5c0,1.4,0.4,2,1.3,2c1.2,0,1.5-1.1,1.5-2.2V4.1h2.2V11.7z"/>
		<path class="st0" d="M430.4,12.8c-0.5,0.2-1.4,0.6-2.7,0.6c-2.9,0-4.2-2.1-4.2-4.6c0-2.7,1.4-4.8,3.7-4.8c2,0,3.6,1.1,3.6,4.9v0.4
			h-5.3c0,1.6,0.6,2.5,2.3,2.5c1.3,0,2-0.4,2.4-0.7L430.4,12.8z M428.8,7.9c0-1.6-0.5-2.4-1.5-2.4c-1.1,0-1.6,1.2-1.6,2.4H428.8z"/>
		<path class="st0" d="M436.9,11.1c0.4,0.1,1.3,0.6,2.3,0.6c0.8,0,1.4-0.2,1.4-0.9c0-0.4-0.2-0.7-1-1.1l-0.9-0.5
			c-0.9-0.5-1.9-1.1-1.9-2.6c0-1.3,1.2-2.6,3.1-2.6c1.2,0,2.1,0.3,2.3,0.4l-0.1,1.7c-0.5-0.2-1.1-0.4-1.9-0.4
			c-0.9,0-1.3,0.3-1.3,0.9c0,0.5,0.4,0.8,1,1.2l1.1,0.7c1.1,0.7,1.7,1.2,1.7,2.3c0,1.7-1.4,2.7-3.4,2.7c-1.1,0-2.1-0.3-2.5-0.4
			L436.9,11.1z"/>
		<path class="st0" d="M451,12.8c-0.5,0.2-1.4,0.6-2.7,0.6c-2.9,0-4.2-2.1-4.2-4.6c0-2.7,1.4-4.8,3.7-4.8c2,0,3.6,1.1,3.6,4.9v0.4
			h-5.3c0,1.6,0.6,2.5,2.3,2.5c1.3,0,2-0.4,2.4-0.7L451,12.8z M449.4,7.9c0-1.6-0.5-2.4-1.5-2.4c-1.1,0-1.6,1.2-1.6,2.4H449.4z"/>
		<path class="st0" d="M457.8,5.7c0-0.7,0-1.2-0.1-1.6h2c0,0.3,0.1,0.8,0.1,1.4h0.1c0.4-0.8,1-1.6,2.4-1.6c2.3,0,3.2,2.2,3.2,4.7
			c0,3-1.2,4.7-3.1,4.7c-1.3,0-2-0.7-2.3-1.4h0v5.1h-2.2V5.7z M461.7,11.8c1.2,0,1.6-1.2,1.6-3c0-2.1-0.3-3.2-1.6-3.2
			c-1.3,0-1.7,1.4-1.7,3.1C460,10.5,460.5,11.8,461.7,11.8z"/>
		<path class="st0" d="M473.9,12.8c-0.5,0.2-1.4,0.6-2.7,0.6c-2.9,0-4.2-2.1-4.2-4.6c0-2.7,1.4-4.8,3.7-4.8c2,0,3.6,1.1,3.6,4.9v0.4
			h-5.3c0,1.6,0.6,2.5,2.3,2.5c1.3,0,2-0.4,2.4-0.7L473.9,12.8z M472.3,7.9c0-1.6-0.5-2.4-1.5-2.4c-1.1,0-1.6,1.2-1.6,2.4H472.3z"/>
		<path class="st0" d="M476.1,5.6c0-0.6,0-1.1-0.1-1.5h2c0,0.5,0.1,1.1,0.1,1.7h0c0.3-0.7,1-1.8,2.3-1.8c0.1,0,0.2,0,0.4,0.1v2
			c-0.2-0.1-0.4-0.1-0.6-0.1c-0.9,0-1.9,0.5-1.9,2.2v5h-2.2V5.6z"/>
		<path class="st0" d="M488.3,13c-0.5,0.2-1.3,0.4-2.2,0.4c-3,0-4.3-2.1-4.3-4.7c0-2.6,1.3-4.7,4.4-4.7c0.7,0,1.5,0.2,1.9,0.4
			L488,6.1c-0.4-0.2-0.9-0.4-1.5-0.4c-1.7,0-2.4,1.1-2.4,3.1c0,1.7,0.8,3,2.5,3c0.5,0,1.3-0.2,1.6-0.4L488.3,13z"/>
		<path class="st0" d="M489.8,0.3h2.3v2.2h-2.3V0.3z M489.8,4.1h2.2v9.1h-2.2V4.1z"/>
		<path class="st0" d="M496.4,0v5.5h0c0.3-0.7,1-1.4,2.3-1.4c2,0,3.1,1.7,3.1,4.7c0,2.5-0.9,4.7-3.2,4.7c-1.4,0-2.1-0.8-2.4-1.6
			h-0.1c0,0.6,0,1.1-0.1,1.4h-2c0.1-0.3,0.1-0.9,0.1-1.6V0H496.4z M498.2,11.8c1.3,0,1.6-1.1,1.6-3.2c0-1.8-0.4-3-1.6-3
			c-1.2,0-1.7,1.3-1.7,3.1C496.4,10.4,496.9,11.8,498.2,11.8z"/>
		<path class="st0" d="M510.4,12.8c-0.5,0.2-1.4,0.6-2.7,0.6c-2.9,0-4.2-2.1-4.2-4.6c0-2.7,1.4-4.8,3.7-4.8c2,0,3.6,1.1,3.6,4.9v0.4
			h-5.3c0,1.6,0.6,2.5,2.3,2.5c1.3,0,2-0.4,2.4-0.7L510.4,12.8z M508.7,7.9c0-1.6-0.5-2.4-1.5-2.4c-1.1,0-1.6,1.2-1.6,2.4H508.7z"/>
		<path class="st0" d="M512.5,5.6c0-0.6,0-1.1-0.1-1.5h2c0,0.5,0.1,0.9,0.1,1.4h0C514.9,5,515.5,4,517,4c2.1,0,2.7,1.5,2.7,3.4v5.9
			h-2.2V7.8c0-1.4-0.4-2-1.3-2c-1.1,0-1.6,1-1.6,2.1v5.3h-2.2V5.6z"/>
		<path class="st0" d="M532.5,13c-0.5,0.2-1.3,0.4-2.2,0.4c-3,0-4.3-2.1-4.3-4.7c0-2.6,1.3-4.7,4.4-4.7c0.7,0,1.5,0.2,1.9,0.4
			l-0.1,1.7c-0.4-0.2-0.9-0.4-1.5-0.4c-1.7,0-2.4,1.1-2.4,3.1c0,1.7,0.8,3,2.5,3c0.5,0,1.3-0.2,1.6-0.4L532.5,13z"/>
		<path class="st0" d="M537.6,4c1.9,0,4,1,4,4.7c0,3.8-2.1,4.7-4,4.7s-4-0.9-4-4.7C533.6,5,535.7,4,537.6,4z M537.6,11.8
			c1.4,0,1.7-1.6,1.7-3.1c0-1.5-0.3-3.1-1.7-3.1s-1.7,1.6-1.7,3.1C535.8,10.2,536.1,11.8,537.6,11.8z"/>
		<path class="st0" d="M543.2,5.6c0-0.7,0-1.1-0.1-1.5h2.2c0,0.5,0.1,1,0.1,1.4h0c0.3-0.7,1-1.6,2.3-1.6c1.5,0,2,1,2.3,1.4
			c0.4-0.6,1.1-1.4,2.4-1.4c2,0,2.6,1.4,2.6,3.6v5.6h-2.2V7.5c0-1.1-0.4-1.7-1.2-1.7c-1,0-1.5,0.9-1.5,1.9v5.5h-2.2V7.5
			c0-1.1-0.4-1.7-1.2-1.7c-1,0-1.5,0.9-1.5,1.9v5.5h-2.2V5.6z"/>
		<path class="st0" d="M560.8,4c1.9,0,4,1,4,4.7c0,3.8-2.1,4.7-4,4.7s-4-0.9-4-4.7C556.8,5,558.9,4,560.8,4z M560.8,11.8
			c1.4,0,1.7-1.6,1.7-3.1c0-1.5-0.3-3.1-1.7-3.1S559,7.2,559,8.7C559,10.2,559.4,11.8,560.8,11.8z"/>
		<path class="st0" d="M571.5,4.7c0.6-0.3,1.5-0.7,2.9-0.7c2.8,0,3.5,1.4,3.5,3.7v4c0,0.7,0.1,1.3,0.1,1.6h-2
			c-0.1-0.4-0.1-0.8-0.1-1.2h0c-0.5,0.7-1.2,1.4-2.5,1.4c-1.4,0-2.7-1-2.7-2.7c0-2.5,2-3.1,4.8-3.1h0.4V7.3c0-0.9-0.4-1.7-1.7-1.7
			c-1.1,0-2.1,0.5-2.5,0.9L571.5,4.7z M575.8,8.8h-0.2c-1.9,0-3,0.4-3,1.7c0,0.8,0.5,1.4,1.4,1.4c1.3,0,1.8-1,1.8-2.6V8.8z"/>
		<path class="st0" d="M579.9,5.6c0-0.7,0-1.1-0.1-1.5h2.2c0,0.5,0.1,1,0.1,1.4h0c0.3-0.7,1-1.6,2.3-1.6c1.5,0,2,1,2.3,1.4
			c0.4-0.6,1.1-1.4,2.4-1.4c2,0,2.6,1.4,2.6,3.6v5.6h-2.2V7.5c0-1.1-0.4-1.7-1.2-1.7c-1,0-1.5,0.9-1.5,1.9v5.5h-2.2V7.5
			c0-1.1-0.4-1.7-1.2-1.7c-1,0-1.5,0.9-1.5,1.9v5.5h-2.2V5.6z"/>
		<path class="st0" d="M600.3,12.8c-0.5,0.2-1.4,0.6-2.7,0.6c-2.9,0-4.2-2.1-4.2-4.6c0-2.7,1.4-4.8,3.7-4.8c2,0,3.6,1.1,3.6,4.9v0.4
			h-5.3c0,1.6,0.6,2.5,2.3,2.5c1.3,0,2-0.4,2.4-0.7L600.3,12.8z M598.7,7.9c0-1.6-0.5-2.4-1.5-2.4c-1.1,0-1.6,1.2-1.6,2.4H598.7z"/>
		<path class="st0" d="M602.5,5.6c0-0.6,0-1.1-0.1-1.5h2c0,0.5,0.1,0.9,0.1,1.4h0C604.9,5,605.5,4,607,4c2.1,0,2.7,1.5,2.7,3.4v5.9
			h-2.2V7.8c0-1.4-0.4-2-1.3-2c-1.1,0-1.6,1-1.6,2.1v5.3h-2.2V5.6z"/>
		<path class="st0" d="M612.1,4.7c0.6-0.3,1.5-0.7,2.9-0.7c2.8,0,3.5,1.4,3.5,3.7v4c0,0.7,0.1,1.3,0.1,1.6h-2
			c-0.1-0.4-0.1-0.8-0.1-1.2h0c-0.5,0.7-1.2,1.4-2.5,1.4c-1.4,0-2.7-1-2.7-2.7c0-2.5,2-3.1,4.8-3.1h0.4V7.3c0-0.9-0.4-1.7-1.7-1.7
			c-1.1,0-2.1,0.5-2.5,0.9L612.1,4.7z M616.4,8.8h-0.2c-1.9,0-3,0.4-3,1.7c0,0.8,0.5,1.4,1.4,1.4c1.3,0,1.8-1,1.8-2.6V8.8z"/>
		<path class="st0" d="M620,11.4l3.9-5.5h-3.8V4.1h5.9V6l-3.8,5.6h3.9v1.7H620V11.4z"/>
		<path class="st0" d="M628.1,4.7c0.6-0.3,1.5-0.7,2.9-0.7c2.8,0,3.5,1.4,3.5,3.7v4c0,0.7,0.1,1.3,0.1,1.6h-2
			c-0.1-0.4-0.1-0.8-0.1-1.2h0c-0.5,0.7-1.2,1.4-2.5,1.4c-1.4,0-2.7-1-2.7-2.7c0-2.5,2-3.1,4.8-3.1h0.4V7.3c0-0.9-0.4-1.7-1.7-1.7
			c-1.1,0-2.1,0.5-2.5,0.9L628.1,4.7z M632.4,8.8h-0.2c-1.9,0-3,0.4-3,1.7c0,0.8,0.5,1.4,1.4,1.4c1.3,0,1.8-1,1.8-2.6V8.8z"/>
		<path class="st0" d="M636.2,11.1c0.4,0.1,1.3,0.6,2.3,0.6c0.8,0,1.4-0.2,1.4-0.9c0-0.4-0.2-0.7-1-1.1l-0.9-0.5
			c-0.9-0.5-1.9-1.1-1.9-2.6c0-1.3,1.2-2.6,3.1-2.6c1.2,0,2.1,0.3,2.3,0.4l-0.1,1.7c-0.5-0.2-1.1-0.4-1.9-0.4
			c-0.9,0-1.3,0.3-1.3,0.9c0,0.5,0.4,0.8,1,1.2l1.1,0.7c1.1,0.7,1.7,1.2,1.7,2.3c0,1.7-1.4,2.7-3.4,2.7c-1.1,0-2.1-0.3-2.5-0.4
			L636.2,11.1z"/>
		<path class="st0" d="M643.3,10.9h2.1v2.3h-2.1V10.9z"/>
		<path class="st0" d="M651.7,10.9c0.4,0.3,1.4,0.8,2.6,0.8c1,0,1.9-0.5,1.9-1.8c0-0.9-0.5-1.3-1.6-1.9l-1.1-0.6
			c-1.2-0.7-2-1.6-2-3.2c0-2.2,1.8-3.4,3.9-3.4c1.3,0,2.2,0.3,2.6,0.4l-0.1,1.9c-0.5-0.2-1.3-0.5-2.3-0.5c-1.1,0-1.7,0.6-1.7,1.4
			c0,0.9,0.6,1.3,1.3,1.7l1.3,0.7c1.4,0.8,2.1,1.6,2.1,3.3c0,2.5-1.8,3.7-4.1,3.7c-1.2,0-2.2-0.2-2.8-0.5L651.7,10.9z"/>
		<path class="st0" d="M667,12.8c-0.5,0.2-1.4,0.6-2.7,0.6c-2.9,0-4.2-2.1-4.2-4.6c0-2.7,1.4-4.8,3.7-4.8c2,0,3.6,1.1,3.6,4.9v0.4
			h-5.3c0,1.6,0.6,2.5,2.3,2.5c1.3,0,2-0.4,2.4-0.7L667,12.8z M665.4,7.9c0-1.6-0.5-2.4-1.5-2.4c-1.1,0-1.6,1.2-1.6,2.4H665.4z"/>
		<path class="st0" d="M673,4.1h2.3l1.9,7h0l1.9-7h2.1l-2.8,9.1h-2.6L673,4.1z"/>
		<path class="st0" d="M689.5,11.7c0,0.6,0,1.1,0.1,1.5h-2c0-0.5-0.1-0.9-0.1-1.4l-0.1,0l0,0c-0.4,0.7-1,1.5-2.4,1.5
			c-2.1,0-2.7-1.5-2.7-3.4V4.1h2.2v5.5c0,1.4,0.4,2,1.3,2c1.2,0,1.5-1.1,1.5-2.2V4.1h2.2V11.7z"/>
		<path class="st0" d="M698.1,12.8c-0.5,0.2-1.4,0.6-2.7,0.6c-2.9,0-4.2-2.1-4.2-4.6c0-2.7,1.4-4.8,3.7-4.8c2,0,3.6,1.1,3.6,4.9v0.4
			h-5.3c0,1.6,0.6,2.5,2.3,2.5c1.3,0,2-0.4,2.4-0.7L698.1,12.8z M696.5,7.9c0-1.6-0.5-2.4-1.5-2.4c-1.1,0-1.6,1.2-1.6,2.4H696.5z"/>
		<path class="st0" d="M700.5,0h2.2v13.2h-2.2V0z"/>
		<path class="st0" d="M704,4.1h2.3l1.9,7h0l1.9-7h2.1l-2.8,9.1h-2.6L704,4.1z"/>
		<path class="st0" d="M720,12.8c-0.5,0.2-1.4,0.6-2.7,0.6c-2.9,0-4.2-2.1-4.2-4.6c0-2.7,1.4-4.8,3.7-4.8c2,0,3.6,1.1,3.6,4.9v0.4
			h-5.3c0,1.6,0.6,2.5,2.3,2.5c1.3,0,2-0.4,2.4-0.7L720,12.8z M718.4,7.9c0-1.6-0.5-2.4-1.5-2.4c-1.1,0-1.6,1.2-1.6,2.4H718.4z"/>
		<path class="st0" d="M14.3,26.9c0-0.7,0-1.2-0.1-1.6h2c0,0.3,0.1,0.8,0.1,1.4h0.1c0.4-0.8,1-1.6,2.4-1.6c2.3,0,3.2,2.2,3.2,4.7
			c0,3-1.2,4.7-3.1,4.7c-1.3,0-2-0.7-2.3-1.4h0v5.1h-2.2V26.9z M18.2,33c1.2,0,1.6-1.2,1.6-3c0-2.1-0.3-3.2-1.6-3.2
			c-1.3,0-1.7,1.4-1.7,3.1C16.5,31.7,17,33,18.2,33z"/>
		<path class="st0" d="M24.2,25.9c0.6-0.3,1.5-0.7,2.9-0.7c2.8,0,3.5,1.4,3.5,3.7v4c0,0.7,0.1,1.3,0.1,1.6h-2
			c-0.1-0.4-0.1-0.8-0.1-1.2h0c-0.5,0.7-1.2,1.4-2.5,1.4c-1.4,0-2.7-1-2.7-2.7c0-2.5,2-3.1,4.8-3.1h0.4v-0.3c0-0.9-0.4-1.7-1.7-1.7
			c-1.1,0-2.1,0.5-2.5,0.9L24.2,25.9z M28.5,30h-0.2c-1.9,0-3,0.4-3,1.7c0,0.8,0.5,1.4,1.4,1.4c1.3,0,1.8-1,1.8-2.6V30z"/>
		<path class="st0" d="M33.4,23.5l2.2-0.7v2.5h1.8v1.6h-1.8v4.7c0,1,0.4,1.3,1,1.3c0.4,0,0.7-0.1,0.8-0.2v1.6
			c-0.3,0.2-0.8,0.3-1.5,0.3c-1.6,0-2.5-0.7-2.5-2.6v-5h-1.4v-1.6h1.4V23.5z"/>
		<path class="st0" d="M42.5,25.2c1.9,0,4,1,4,4.7c0,3.8-2.1,4.7-4,4.7s-4-0.9-4-4.7C38.5,26.2,40.7,25.2,42.5,25.2z M42.5,33
			c1.4,0,1.7-1.6,1.7-3.1s-0.3-3.1-1.7-3.1s-1.7,1.6-1.7,3.1S41.1,33,42.5,33z"/>
		<path class="st0" d="M48.5,21.2h2.2v13.2h-2.2V21.2z"/>
		<path class="st0" d="M56.6,25.2c1.9,0,4,1,4,4.7c0,3.8-2.1,4.7-4,4.7s-4-0.9-4-4.7C52.6,26.2,54.8,25.2,56.6,25.2z M56.6,33
			c1.4,0,1.7-1.6,1.7-3.1s-0.3-3.1-1.7-3.1s-1.7,1.6-1.7,3.1S55.2,33,56.6,33z M56.7,21.8h2L57,24.3h-1.4L56.7,21.8z"/>
		<path class="st0" d="M62.6,35.8c0.5,0.3,1.5,0.8,2.7,0.8c2.1,0,2.4-1.4,2.4-2.9v-0.9h0c-0.4,0.7-1,1.5-2.4,1.5
			c-1.3,0-3.2-0.8-3.2-4.5c0-2.5,0.9-4.7,3.3-4.7c1.3,0,1.9,0.8,2.4,1.6h0.1c0-0.5,0.1-0.9,0.1-1.4h2c0,0.5-0.1,1-0.1,1.4v6.7
			c0,2.8-0.9,4.9-4.2,4.9c-1.4,0-2.6-0.4-3.1-0.6L62.6,35.8z M65.8,32.8c1.4,0,1.9-1,1.9-3.1c0-1.9-0.7-2.9-1.8-2.9
			c-1.1,0-1.6,1.1-1.6,2.9C64.4,31.9,65,32.8,65.8,32.8z"/>
		<path class="st0" d="M72,21.5h2.3v2.2H72V21.5z M72,25.3h2.2v9.1H72V25.3z"/>
		<path class="st0" d="M82.6,34.2c-0.5,0.2-1.3,0.4-2.2,0.4c-3,0-4.3-2.1-4.3-4.7c0-2.6,1.3-4.7,4.4-4.7c0.7,0,1.5,0.2,1.9,0.4
			l-0.1,1.7c-0.4-0.2-0.9-0.4-1.5-0.4c-1.7,0-2.4,1.1-2.4,3.1c0,1.7,0.8,3,2.5,3c0.5,0,1.3-0.2,1.6-0.4L82.6,34.2z"/>
		<path class="st0" d="M84.4,25.9c0.6-0.3,1.5-0.7,2.9-0.7c2.8,0,3.5,1.4,3.5,3.7v4c0,0.7,0.1,1.3,0.1,1.6h-2
			c-0.1-0.4-0.1-0.8-0.1-1.2h0c-0.5,0.7-1.2,1.4-2.5,1.4c-1.4,0-2.7-1-2.7-2.7c0-2.5,2-3.1,4.8-3.1h0.4v-0.3c0-0.9-0.4-1.7-1.7-1.7
			c-1.1,0-2.1,0.5-2.5,0.9L84.4,25.9z M88.7,30h-0.2c-1.9,0-3,0.4-3,1.7c0,0.8,0.5,1.4,1.4,1.4c1.3,0,1.8-1,1.8-2.6V30z"/>
		<path class="st0" d="M103.5,34.2c-0.5,0.2-1.3,0.4-2.2,0.4c-3,0-4.3-2.1-4.3-4.7c0-2.6,1.3-4.7,4.4-4.7c0.7,0,1.5,0.2,1.9,0.4
			l-0.1,1.7c-0.4-0.2-0.9-0.4-1.5-0.4c-1.7,0-2.4,1.1-2.4,3.1c0,1.7,0.8,3,2.5,3c0.5,0,1.3-0.2,1.6-0.4L103.5,34.2z"/>
		<path class="st0" d="M112.1,32.9c0,0.6,0,1.1,0.1,1.5h-2c0-0.5-0.1-0.9-0.1-1.4l-0.1,0l0,0c-0.4,0.7-1,1.5-2.4,1.5
			c-2.1,0-2.7-1.5-2.7-3.4v-5.9h2.2v5.5c0,1.4,0.4,2,1.3,2c1.2,0,1.5-1.1,1.5-2.2v-5.2h2.2V32.9z"/>
		<path class="st0" d="M114.5,25.9c0.6-0.3,1.5-0.7,2.9-0.7c2.8,0,3.5,1.4,3.5,3.7v4c0,0.7,0.1,1.3,0.1,1.6h-2
			c-0.1-0.4-0.1-0.8-0.1-1.2h0c-0.5,0.7-1.2,1.4-2.5,1.4c-1.4,0-2.7-1-2.7-2.7c0-2.5,2-3.1,4.8-3.1h0.4v-0.3c0-0.9-0.4-1.7-1.7-1.7
			c-1.1,0-2.1,0.5-2.5,0.9L114.5,25.9z M118.8,30h-0.2c-1.9,0-3,0.4-3,1.7c0,0.8,0.5,1.4,1.4,1.4c1.3,0,1.8-1,1.8-2.6V30z"/>
		<path class="st0" d="M122.9,26.8c0-0.6,0-1.1-0.1-1.5h2c0,0.5,0.1,0.9,0.1,1.4h0c0.3-0.5,0.9-1.5,2.4-1.5c2.1,0,2.7,1.5,2.7,3.4
			v5.9h-2.2V29c0-1.4-0.4-2-1.3-2c-1.1,0-1.6,1-1.6,2.1v5.3h-2.2V26.8z"/>
		<path class="st0" d="M139.5,21.2v11.7c0,0.7,0,1.2,0.1,1.6h-2c0-0.3-0.1-0.8-0.1-1.4h-0.1c-0.4,0.8-1,1.6-2.4,1.6
			c-2.3,0-3.2-2.2-3.2-4.7c0-3,1.2-4.7,3.1-4.7c1.3,0,2,0.7,2.3,1.4h0v-5.5H139.5z M135.6,33c1.3,0,1.7-1.4,1.7-3.1
			c0-1.8-0.5-3.1-1.7-3.1c-1.2,0-1.6,1.2-1.6,3C134,31.9,134.3,33,135.6,33z"/>
		<path class="st0" d="M145.3,25.2c1.9,0,4,1,4,4.7c0,3.8-2.1,4.7-4,4.7s-4-0.9-4-4.7C141.3,26.2,143.4,25.2,145.3,25.2z M145.3,33
			c1.4,0,1.7-1.6,1.7-3.1s-0.3-3.1-1.7-3.1s-1.7,1.6-1.7,3.1S143.8,33,145.3,33z"/>
		<path class="st0" d="M155.6,26.8c0-0.6,0-1.1-0.1-1.5h2c0,0.5,0.1,0.9,0.1,1.4h0c0.3-0.5,0.9-1.5,2.4-1.5c2.1,0,2.7,1.5,2.7,3.4
			v5.9h-2.2V29c0-1.4-0.4-2-1.3-2c-1.1,0-1.6,1-1.6,2.1v5.3h-2.2V26.8z"/>
		<path class="st0" d="M168.5,25.2c1.9,0,4,1,4,4.7c0,3.8-2.1,4.7-4,4.7s-4-0.9-4-4.7C164.5,26.2,166.6,25.2,168.5,25.2z M168.5,33
			c1.4,0,1.7-1.6,1.7-3.1s-0.3-3.1-1.7-3.1s-1.7,1.6-1.7,3.1S167.1,33,168.5,33z"/>
		<path class="st0" d="M178.8,21.2h2.2v5.3h0.1c0.4-0.6,0.9-1.3,2.3-1.3c2.1,0,2.7,1.5,2.7,3.4v5.9h-2.2V29c0-1.4-0.4-2-1.3-2
			c-1.1,0-1.6,1-1.6,2.1v5.3h-2.2V21.2z"/>
		<path class="st0" d="M188.4,25.9c0.6-0.3,1.5-0.7,2.9-0.7c2.8,0,3.5,1.4,3.5,3.7v4c0,0.7,0.1,1.3,0.1,1.6h-2
			c-0.1-0.4-0.1-0.8-0.1-1.2h0c-0.5,0.7-1.2,1.4-2.5,1.4c-1.4,0-2.7-1-2.7-2.7c0-2.5,2-3.1,4.8-3.1h0.4v-0.3c0-0.9-0.4-1.7-1.7-1.7
			c-1.1,0-2.1,0.5-2.5,0.9L188.4,25.9z M192.7,30h-0.2c-1.9,0-3,0.4-3,1.7c0,0.8,0.5,1.4,1.4,1.4c1.3,0,1.8-1,1.8-2.6V30z"/>
		<path class="st0" d="M200,32.2L200,32.2l1.8-6.9h2.1l-3.3,10.8c-0.4,1.3-1.1,2.2-2.6,2.2c-0.6,0-1.1-0.1-1.4-0.2l0.1-1.7
			c0.2,0.1,0.5,0.2,0.8,0.2c0.7,0,0.9-0.4,1.2-1.3l0.2-0.8l-3-9.2h2.3L200,32.2z"/>
		<path class="st0" d="M216.7,32.9c0,0.6,0,1.1,0.1,1.5h-2c0-0.5-0.1-0.9-0.1-1.4l-0.1,0l0,0c-0.4,0.7-1,1.5-2.4,1.5
			c-2.1,0-2.7-1.5-2.7-3.4v-5.9h2.2v5.5c0,1.4,0.4,2,1.3,2c1.2,0,1.5-1.1,1.5-2.2v-5.2h2.2V32.9z"/>
		<path class="st0" d="M218.7,26.8c0-0.6,0-1.1-0.1-1.5h2c0,0.5,0.1,0.9,0.1,1.4h0c0.3-0.5,0.9-1.5,2.4-1.5c2.1,0,2.7,1.5,2.7,3.4
			v5.9h-2.2V29c0-1.4-0.4-2-1.3-2c-1.1,0-1.6,1-1.6,2.1v5.3h-2.2V26.8z"/>
		<path class="st0" d="M239.1,34c-0.5,0.2-1.4,0.6-2.7,0.6c-2.9,0-4.2-2.1-4.2-4.6c0-2.7,1.4-4.8,3.7-4.8c2,0,3.6,1.1,3.6,4.9v0.4
			h-5.3c0,1.6,0.6,2.5,2.3,2.5c1.3,0,2-0.4,2.4-0.7L239.1,34z M237.5,29.1c0-1.6-0.5-2.4-1.5-2.4c-1.1,0-1.6,1.2-1.6,2.4H237.5z"/>
		<path class="st0" d="M241,32.3c0.4,0.1,1.3,0.6,2.3,0.6c0.8,0,1.4-0.2,1.4-0.9c0-0.4-0.2-0.7-1-1.1l-0.9-0.5
			c-0.9-0.5-1.9-1.1-1.9-2.6c0-1.3,1.2-2.6,3.1-2.6c1.2,0,2.1,0.3,2.3,0.4l-0.1,1.7c-0.5-0.2-1.1-0.4-1.9-0.4
			c-0.9,0-1.3,0.3-1.3,0.9c0,0.5,0.4,0.8,1,1.2l1.1,0.7c1.1,0.7,1.7,1.2,1.7,2.3c0,1.7-1.4,2.7-3.4,2.7c-1.1,0-2.1-0.3-2.5-0.4
			L241,32.3z"/>
		<path class="st0" d="M249.3,23.5l2.2-0.7v2.5h1.8v1.6h-1.8v4.7c0,1,0.4,1.3,1,1.3c0.4,0,0.7-0.1,0.8-0.2v1.6
			c-0.3,0.2-0.8,0.3-1.5,0.3c-1.6,0-2.5-0.7-2.5-2.6v-5h-1.4v-1.6h1.4V23.5z"/>
		<path class="st0" d="M254.9,25.3h2.2v9.1h-2.2V25.3z M256.1,21.8h2l-1.8,2.5H255L256.1,21.8z"/>
		<path class="st0" d="M259.2,26.8c0-0.7,0-1.1-0.1-1.5h2.2c0,0.5,0.1,1,0.1,1.4h0c0.3-0.7,1-1.6,2.3-1.6c1.5,0,2,1,2.3,1.4
			c0.4-0.6,1.1-1.4,2.4-1.4c2,0,2.6,1.4,2.6,3.6v5.6h-2.2v-5.7c0-1.1-0.4-1.7-1.2-1.7c-1,0-1.5,0.9-1.5,1.9v5.5h-2.2v-5.7
			c0-1.1-0.4-1.7-1.2-1.7c-1,0-1.5,0.9-1.5,1.9v5.5h-2.2V26.8z"/>
		<path class="st0" d="M280.2,32.9c0,0.6,0,1.1,0.1,1.5h-2c0-0.5-0.1-0.9-0.1-1.4l-0.1,0l0,0c-0.4,0.7-1,1.5-2.4,1.5
			c-2.1,0-2.7-1.5-2.7-3.4v-5.9h2.2v5.5c0,1.4,0.4,2,1.3,2c1.2,0,1.5-1.1,1.5-2.2v-5.2h2.2V32.9z"/>
		<path class="st0" d="M282.4,21.2h2.2v13.2h-2.2V21.2z"/>
		<path class="st0" d="M290.5,25.2c1.9,0,4,1,4,4.7c0,3.8-2.1,4.7-4,4.7s-4-0.9-4-4.7C286.5,26.2,288.7,25.2,290.5,25.2z M290.5,33
			c1.4,0,1.7-1.6,1.7-3.1s-0.3-3.1-1.7-3.1s-1.7,1.6-1.7,3.1S289.1,33,290.5,33z"/>
		<path class="st0" d="M298,32.2l-1.3,4.4h-1.7l0.9-4.4H298z"/>
		<path class="st0" d="M304.3,21.2h2.2v13.2h-2.2V21.2z"/>
		<path class="st0" d="M309.2,25.9c0.6-0.3,1.5-0.7,2.9-0.7c2.8,0,3.5,1.4,3.5,3.7v4c0,0.7,0.1,1.3,0.1,1.6h-2
			c-0.1-0.4-0.1-0.8-0.1-1.2h0c-0.5,0.7-1.2,1.4-2.5,1.4c-1.4,0-2.7-1-2.7-2.7c0-2.5,2-3.1,4.8-3.1h0.4v-0.3c0-0.9-0.4-1.7-1.7-1.7
			c-1.1,0-2.1,0.5-2.5,0.9L309.2,25.9z M313.5,30h-0.2c-1.9,0-3,0.4-3,1.7c0,0.8,0.5,1.4,1.4,1.4c1.3,0,1.8-1,1.8-2.6V30z"/>
		<path class="st0" d="M322.3,21.5h2.3v2.2h-2.3V21.5z M322.3,25.3h2.2v9.1h-2.2V25.3z"/>
		<path class="st0" d="M326.7,26.8c0-0.6,0-1.1-0.1-1.5h2c0,0.5,0.1,0.9,0.1,1.4h0c0.3-0.5,0.9-1.5,2.4-1.5c2.1,0,2.7,1.5,2.7,3.4
			v5.9h-2.2V29c0-1.4-0.4-2-1.3-2c-1.1,0-1.6,1-1.6,2.1v5.3h-2.2V26.8z"/>
		<path class="st0" d="M336.7,23.5l2.2-0.7v2.5h1.8v1.6h-1.8v4.7c0,1,0.4,1.3,1,1.3c0.4,0,0.7-0.1,0.8-0.2v1.6
			c-0.3,0.2-0.8,0.3-1.5,0.3c-1.6,0-2.5-0.7-2.5-2.6v-5h-1.4v-1.6h1.4V23.5z"/>
		<path class="st0" d="M348.8,34c-0.5,0.2-1.4,0.6-2.7,0.6c-2.9,0-4.2-2.1-4.2-4.6c0-2.7,1.4-4.8,3.7-4.8c2,0,3.6,1.1,3.6,4.9v0.4
			H344c0,1.6,0.6,2.5,2.3,2.5c1.3,0,2-0.4,2.4-0.7L348.8,34z M347.1,29.1c0-1.6-0.5-2.4-1.5-2.4c-1.1,0-1.6,1.2-1.6,2.4H347.1z"/>
		<path class="st0" d="M350.9,26.8c0-0.6,0-1.1-0.1-1.5h2c0,0.5,0.1,0.9,0.1,1.4h0c0.3-0.5,0.9-1.5,2.4-1.5c2.1,0,2.7,1.5,2.7,3.4
			v5.9h-2.2V29c0-1.4-0.4-2-1.3-2c-1.1,0-1.6,1-1.6,2.1v5.3h-2.2V26.8z"/>
		<path class="st0" d="M359.8,32.3c0.4,0.1,1.3,0.6,2.3,0.6c0.8,0,1.4-0.2,1.4-0.9c0-0.4-0.2-0.7-1-1.1l-0.9-0.5
			c-0.9-0.5-1.9-1.1-1.9-2.6c0-1.3,1.2-2.6,3.1-2.6c1.2,0,2.1,0.3,2.3,0.4l-0.1,1.7c-0.5-0.2-1.1-0.4-1.9-0.4
			c-0.9,0-1.3,0.3-1.3,0.9c0,0.5,0.4,0.8,1,1.2l1.1,0.7c1.1,0.7,1.7,1.2,1.7,2.3c0,1.7-1.4,2.7-3.4,2.7c-1.1,0-2.1-0.3-2.5-0.4
			L359.8,32.3z"/>
		<path class="st0" d="M367.5,21.5h2.3v2.2h-2.3V21.5z M367.5,25.3h2.2v9.1h-2.2V25.3z"/>
		<path class="st0" d="M379.3,21.2v11.7c0,0.7,0,1.2,0.1,1.6h-2c0-0.3-0.1-0.8-0.1-1.4h-0.1c-0.4,0.8-1,1.6-2.4,1.6
			c-2.3,0-3.2-2.2-3.2-4.7c0-3,1.2-4.7,3.1-4.7c1.3,0,2,0.7,2.3,1.4h0v-5.5H379.3z M375.4,33c1.3,0,1.7-1.4,1.7-3.1
			c0-1.8-0.5-3.1-1.7-3.1c-1.2,0-1.6,1.2-1.6,3C373.8,31.9,374.1,33,375.4,33z"/>
		<path class="st0" d="M381.8,25.9c0.6-0.3,1.5-0.7,2.9-0.7c2.8,0,3.5,1.4,3.5,3.7v4c0,0.7,0.1,1.3,0.1,1.6h-2
			c-0.1-0.4-0.1-0.8-0.1-1.2h0c-0.5,0.7-1.2,1.4-2.5,1.4c-1.4,0-2.7-1-2.7-2.7c0-2.5,2-3.1,4.8-3.1h0.4v-0.3c0-0.9-0.4-1.7-1.7-1.7
			c-1.1,0-2.1,0.5-2.5,0.9L381.8,25.9z M386.1,30h-0.2c-1.9,0-3,0.4-3,1.7c0,0.8,0.5,1.4,1.4,1.4c1.3,0,1.8-1,1.8-2.6V30z"/>
		<path class="st0" d="M397.6,21.2v11.7c0,0.7,0,1.2,0.1,1.6h-2c0-0.3-0.1-0.8-0.1-1.4h-0.1c-0.4,0.8-1,1.6-2.4,1.6
			c-2.3,0-3.2-2.2-3.2-4.7c0-3,1.2-4.7,3.1-4.7c1.3,0,2,0.7,2.3,1.4h0v-5.5H397.6z M393.7,33c1.3,0,1.7-1.4,1.7-3.1
			c0-1.8-0.5-3.1-1.7-3.1c-1.2,0-1.6,1.2-1.6,3C392.1,31.9,392.4,33,393.7,33z"/>
		<path class="st0" d="M410.9,34c-0.5,0.2-1.4,0.6-2.7,0.6c-2.9,0-4.2-2.1-4.2-4.6c0-2.7,1.4-4.8,3.7-4.8c2,0,3.6,1.1,3.6,4.9v0.4
			h-5.3c0,1.6,0.6,2.5,2.3,2.5c1.3,0,2-0.4,2.4-0.7L410.9,34z M409.3,29.1c0-1.6-0.5-2.4-1.5-2.4c-1.1,0-1.6,1.2-1.6,2.4H409.3z"/>
		<path class="st0" d="M412.8,32.3c0.4,0.1,1.3,0.6,2.3,0.6c0.8,0,1.4-0.2,1.4-0.9c0-0.4-0.2-0.7-1-1.1l-0.9-0.5
			c-0.9-0.5-1.9-1.1-1.9-2.6c0-1.3,1.2-2.6,3.1-2.6c1.2,0,2.1,0.3,2.3,0.4l-0.1,1.7c-0.5-0.2-1.1-0.4-1.9-0.4
			c-0.9,0-1.3,0.3-1.3,0.9c0,0.5,0.4,0.8,1,1.2l1.1,0.7c1.1,0.7,1.7,1.2,1.7,2.3c0,1.7-1.4,2.7-3.4,2.7c-1.1,0-2.1-0.3-2.5-0.4
			L412.8,32.3z"/>
		<path class="st0" d="M431.5,34c-0.5,0.2-1.4,0.6-2.7,0.6c-2.9,0-4.2-2.1-4.2-4.6c0-2.7,1.4-4.8,3.7-4.8c2,0,3.6,1.1,3.6,4.9v0.4
			h-5.3c0,1.6,0.6,2.5,2.3,2.5c1.3,0,2-0.4,2.4-0.7L431.5,34z M429.9,29.1c0-1.6-0.5-2.4-1.5-2.4c-1.1,0-1.6,1.2-1.6,2.4H429.9z"/>
		<path class="st0" d="M435.5,29.5l-2.5-4.2h2.5l1.4,2.9l1.5-2.9h2.3l-2.5,4.2l2.7,4.9h-2.4l-1.7-3.4l-1.7,3.4h-2.3L435.5,29.5z"/>
		<path class="st0" d="M448,34.2c-0.5,0.2-1.3,0.4-2.2,0.4c-3,0-4.3-2.1-4.3-4.7c0-2.6,1.3-4.7,4.4-4.7c0.7,0,1.5,0.2,1.9,0.4
			l-0.1,1.7c-0.4-0.2-0.9-0.4-1.5-0.4c-1.7,0-2.4,1.1-2.4,3.1c0,1.7,0.8,3,2.5,3c0.5,0,1.3-0.2,1.6-0.4L448,34.2z"/>
		<path class="st0" d="M456,34c-0.5,0.2-1.4,0.6-2.7,0.6c-2.9,0-4.2-2.1-4.2-4.6c0-2.7,1.4-4.8,3.7-4.8c2,0,3.6,1.1,3.6,4.9v0.4
			h-5.3c0,1.6,0.6,2.5,2.3,2.5c1.3,0,2-0.4,2.4-0.7L456,34z M454.4,29.1c0-1.6-0.5-2.4-1.5-2.4c-1.1,0-1.6,1.2-1.6,2.4H454.4z"/>
		<path class="st0" d="M457.9,32.3c0.4,0.1,1.3,0.6,2.3,0.6c0.8,0,1.4-0.2,1.4-0.9c0-0.4-0.2-0.7-1-1.1l-0.9-0.5
			c-0.9-0.5-1.9-1.1-1.9-2.6c0-1.3,1.2-2.6,3.1-2.6c1.2,0,2.1,0.3,2.3,0.4l-0.1,1.7c-0.5-0.2-1.1-0.4-1.9-0.4
			c-0.9,0-1.3,0.3-1.3,0.9c0,0.5,0.4,0.8,1,1.2l1.1,0.7c1.1,0.7,1.7,1.2,1.7,2.3c0,1.7-1.4,2.7-3.4,2.7c-1.1,0-2.1-0.3-2.5-0.4
			L457.9,32.3z"/>
		<path class="st0" d="M465.6,21.5h2.3v2.2h-2.3V21.5z M465.6,25.3h2.2v9.1h-2.2V25.3z"/>
		<path class="st0" d="M469.2,25.3h2.3l1.9,7h0l1.9-7h2.1l-2.8,9.1h-2.6L469.2,25.3z"/>
		<path class="st0" d="M478.9,25.9c0.6-0.3,1.5-0.7,2.9-0.7c2.8,0,3.5,1.4,3.5,3.7v4c0,0.7,0.1,1.3,0.1,1.6h-2
			c-0.1-0.4-0.1-0.8-0.1-1.2h0c-0.5,0.7-1.2,1.4-2.5,1.4c-1.4,0-2.7-1-2.7-2.7c0-2.5,2-3.1,4.8-3.1h0.4v-0.3c0-0.9-0.4-1.7-1.7-1.7
			c-1.1,0-2.1,0.5-2.5,0.9L478.9,25.9z M483.2,30H483c-1.9,0-3,0.4-3,1.7c0,0.8,0.5,1.4,1.4,1.4c1.3,0,1.8-1,1.8-2.6V30z"/>
		<path class="st0" d="M495.6,25.2c1.9,0,4,1,4,4.7c0,3.8-2.1,4.7-4,4.7s-4-0.9-4-4.7C491.6,26.2,493.8,25.2,495.6,25.2z M495.6,33
			c1.4,0,1.7-1.6,1.7-3.1s-0.3-3.1-1.7-3.1s-1.7,1.6-1.7,3.1S494.2,33,495.6,33z"/>
		<path class="st0" d="M506.2,21.2h2.2v13.2h-2.2V21.2z"/>
		<path class="st0" d="M511,25.9c0.6-0.3,1.5-0.7,2.9-0.7c2.8,0,3.5,1.4,3.5,3.7v4c0,0.7,0.1,1.3,0.1,1.6h-2
			c-0.1-0.4-0.1-0.8-0.1-1.2h0c-0.5,0.7-1.2,1.4-2.5,1.4c-1.4,0-2.7-1-2.7-2.7c0-2.5,2-3.1,4.8-3.1h0.4v-0.3c0-0.9-0.4-1.7-1.7-1.7
			c-1.1,0-2.1,0.5-2.5,0.9L511,25.9z M515.3,30h-0.2c-1.9,0-3,0.4-3,1.7c0,0.8,0.5,1.4,1.4,1.4c1.3,0,1.8-1,1.8-2.6V30z"/>
		<path class="st0" d="M531.4,21.2v11.7c0,0.7,0,1.2,0.1,1.6h-2c0-0.3-0.1-0.8-0.1-1.4h-0.1c-0.4,0.8-1,1.6-2.4,1.6
			c-2.3,0-3.2-2.2-3.2-4.7c0-3,1.2-4.7,3.1-4.7c1.3,0,2,0.7,2.3,1.4h0v-5.5H531.4z M527.5,33c1.3,0,1.7-1.4,1.7-3.1
			c0-1.8-0.5-3.1-1.7-3.1c-1.2,0-1.6,1.2-1.6,3C525.9,31.9,526.2,33,527.5,33z"/>
		<path class="st0" d="M540.6,32.9c0,0.6,0,1.1,0.1,1.5h-2c0-0.5-0.1-0.9-0.1-1.4l-0.1,0l0,0c-0.4,0.7-1,1.5-2.4,1.5
			c-2.1,0-2.7-1.5-2.7-3.4v-5.9h2.2v5.5c0,1.4,0.4,2,1.3,2c1.2,0,1.5-1.1,1.5-2.2v-5.2h2.2V32.9z"/>
		<path class="st0" d="M542.7,26.8c0-0.6,0-1.1-0.1-1.5h2c0,0.5,0.1,1.1,0.1,1.7h0c0.3-0.7,1-1.8,2.3-1.8c0.1,0,0.2,0,0.4,0.1v2
			c-0.2-0.1-0.4-0.1-0.6-0.1c-0.9,0-1.9,0.5-1.9,2.2v5h-2.2V26.8z"/>
		<path class="st0" d="M549.1,25.9c0.6-0.3,1.5-0.7,2.9-0.7c2.8,0,3.5,1.4,3.5,3.7v4c0,0.7,0.1,1.3,0.1,1.6h-2
			c-0.1-0.4-0.1-0.8-0.1-1.2h0c-0.5,0.7-1.2,1.4-2.5,1.4c-1.4,0-2.7-1-2.7-2.7c0-2.5,2-3.1,4.8-3.1h0.4v-0.3c0-0.9-0.4-1.7-1.7-1.7
			c-1.1,0-2.1,0.5-2.5,0.9L549.1,25.9z M553.4,30h-0.2c-1.9,0-3,0.4-3,1.7c0,0.8,0.5,1.4,1.4,1.4c1.3,0,1.8-1,1.8-2.6V30z"/>
		<path class="st0" d="M563.6,34.2c-0.5,0.2-1.3,0.4-2.2,0.4c-3,0-4.3-2.1-4.3-4.7c0-2.6,1.3-4.7,4.4-4.7c0.7,0,1.5,0.2,1.9,0.4
			l-0.1,1.7c-0.4-0.2-0.9-0.4-1.5-0.4c-1.7,0-2.4,1.1-2.4,3.1c0,1.7,0.8,3,2.5,3c0.5,0,1.3-0.2,1.6-0.4L563.6,34.2z"/>
		<path class="st0" d="M565.2,21.5h2.3v2.2h-2.3V21.5z M565.2,25.3h2.2v9.1h-2.2V25.3z"/>
		<path class="st0" d="M573.3,25.2c1.9,0,4,1,4,4.7c0,3.8-2.1,4.7-4,4.7s-4-0.9-4-4.7C569.3,26.2,571.5,25.2,573.3,25.2z M573.3,33
			c1.4,0,1.7-1.6,1.7-3.1s-0.3-3.1-1.7-3.1s-1.7,1.6-1.7,3.1S571.9,33,573.3,33z M573.4,21.8h2l-1.8,2.5h-1.4L573.4,21.8z"/>
		<path class="st0" d="M579.1,26.8c0-0.6,0-1.1-0.1-1.5h2c0,0.5,0.1,0.9,0.1,1.4h0c0.3-0.5,0.9-1.5,2.4-1.5c2.1,0,2.7,1.5,2.7,3.4
			v5.9H584V29c0-1.4-0.4-2-1.3-2c-1.1,0-1.6,1-1.6,2.1v5.3h-2.2V26.8z"/>
		<path class="st0" d="M599.5,34c-0.5,0.2-1.4,0.6-2.7,0.6c-2.9,0-4.2-2.1-4.2-4.6c0-2.7,1.4-4.8,3.7-4.8c2,0,3.6,1.1,3.6,4.9v0.4
			h-5.3c0,1.6,0.6,2.5,2.3,2.5c1.3,0,2-0.4,2.4-0.7L599.5,34z M597.8,29.1c0-1.6-0.5-2.4-1.5-2.4c-1.1,0-1.6,1.2-1.6,2.4H597.8z"/>
		<path class="st0" d="M601.4,32.3c0.4,0.1,1.3,0.6,2.3,0.6c0.8,0,1.4-0.2,1.4-0.9c0-0.4-0.2-0.7-1-1.1l-0.9-0.5
			c-0.9-0.5-1.9-1.1-1.9-2.6c0-1.3,1.2-2.6,3.1-2.6c1.2,0,2.1,0.3,2.3,0.4l-0.1,1.7c-0.5-0.2-1.1-0.4-1.9-0.4
			c-0.9,0-1.3,0.3-1.3,0.9c0,0.5,0.4,0.8,1,1.2l1.1,0.7c1.1,0.7,1.7,1.2,1.7,2.3c0,1.7-1.4,2.7-3.4,2.7c-1.1,0-2.1-0.3-2.5-0.4
			L601.4,32.3z"/>
		<path class="st0" d="M613.4,26.9c0-0.7,0-1.2-0.1-1.6h2c0,0.3,0.1,0.8,0.1,1.4h0.1c0.4-0.8,1-1.6,2.4-1.6c2.3,0,3.2,2.2,3.2,4.7
			c0,3-1.2,4.7-3.1,4.7c-1.3,0-2-0.7-2.3-1.4h0v5.1h-2.2V26.9z M617.3,33c1.2,0,1.6-1.2,1.6-3c0-2.1-0.3-3.2-1.6-3.2
			c-1.3,0-1.7,1.4-1.7,3.1C615.6,31.7,616.1,33,617.3,33z"/>
		<path class="st0" d="M623,26.8c0-0.6,0-1.1-0.1-1.5h2c0,0.5,0.1,1.1,0.1,1.7h0c0.3-0.7,1-1.8,2.3-1.8c0.1,0,0.2,0,0.4,0.1v2
			c-0.2-0.1-0.4-0.1-0.6-0.1c-0.9,0-1.9,0.5-1.9,2.2v5H623V26.8z"/>
		<path class="st0" d="M632.7,25.2c1.9,0,4,1,4,4.7c0,3.8-2.1,4.7-4,4.7s-4-0.9-4-4.7C628.7,26.2,630.8,25.2,632.7,25.2z M632.7,33
			c1.4,0,1.7-1.6,1.7-3.1s-0.3-3.1-1.7-3.1s-1.7,1.6-1.7,3.1S631.3,33,632.7,33z"/>
		<path class="st0" d="M638.6,21.2h2.2v13.2h-2.2V21.2z"/>
		<path class="st0" d="M646.8,25.2c1.9,0,4,1,4,4.7c0,3.8-2.1,4.7-4,4.7s-4-0.9-4-4.7C642.7,26.2,644.9,25.2,646.8,25.2z M646.8,33
			c1.4,0,1.7-1.6,1.7-3.1s-0.3-3.1-1.7-3.1s-1.7,1.6-1.7,3.1S645.3,33,646.8,33z"/>
		<path class="st0" d="M652.5,26.8c0-0.6,0-1.1-0.1-1.5h2c0,0.5,0.1,0.9,0.1,1.4h0c0.3-0.5,0.9-1.5,2.4-1.5c2.1,0,2.7,1.5,2.7,3.4
			v5.9h-2.2V29c0-1.4-0.4-2-1.3-2c-1.1,0-1.6,1-1.6,2.1v5.3h-2.2V26.8z"/>
		<path class="st0" d="M661.9,35.8c0.5,0.3,1.5,0.8,2.7,0.8c2.1,0,2.4-1.4,2.4-2.9v-0.9h0c-0.4,0.7-1,1.5-2.4,1.5
			c-1.3,0-3.2-0.8-3.2-4.5c0-2.5,0.9-4.7,3.3-4.7c1.3,0,1.9,0.8,2.4,1.6h0.1c0-0.5,0.1-0.9,0.1-1.4h2c0,0.5-0.1,1-0.1,1.4v6.7
			c0,2.8-0.9,4.9-4.2,4.9c-1.4,0-2.6-0.4-3.1-0.6L661.9,35.8z M665.1,32.8c1.4,0,1.9-1,1.9-3.1c0-1.9-0.7-2.9-1.8-2.9
			c-1.1,0-1.6,1.1-1.6,2.9C663.6,31.9,664.3,32.8,665.1,32.8z"/>
		<path class="st0" d="M671.6,25.9c0.6-0.3,1.5-0.7,2.9-0.7c2.8,0,3.5,1.4,3.5,3.7v4c0,0.7,0.1,1.3,0.1,1.6h-2
			c-0.1-0.4-0.1-0.8-0.1-1.2h0c-0.5,0.7-1.2,1.4-2.5,1.4c-1.4,0-2.7-1-2.7-2.7c0-2.5,2-3.1,4.8-3.1h0.4v-0.3c0-0.9-0.4-1.7-1.7-1.7
			c-1.1,0-2.1,0.5-2.5,0.9L671.6,25.9z M675.9,30h-0.2c-1.9,0-3,0.4-3,1.7c0,0.8,0.5,1.4,1.4,1.4c1.3,0,1.8-1,1.8-2.6V30z"/>
		<path class="st0" d="M687.4,21.2v11.7c0,0.7,0,1.2,0.1,1.6h-2c0-0.3-0.1-0.8-0.1-1.4h-0.1c-0.4,0.8-1,1.6-2.4,1.6
			c-2.3,0-3.2-2.2-3.2-4.7c0-3,1.2-4.7,3.1-4.7c1.3,0,2,0.7,2.3,1.4h0v-5.5H687.4z M683.5,33c1.3,0,1.7-1.4,1.7-3.1
			c0-1.8-0.5-3.1-1.7-3.1c-1.2,0-1.6,1.2-1.6,3C681.9,31.9,682.2,33,683.5,33z"/>
		<path class="st0" d="M689.9,25.9c0.6-0.3,1.5-0.7,2.9-0.7c2.8,0,3.5,1.4,3.5,3.7v4c0,0.7,0.1,1.3,0.1,1.6h-2
			c-0.1-0.4-0.1-0.8-0.1-1.2h0c-0.5,0.7-1.2,1.4-2.5,1.4c-1.4,0-2.7-1-2.7-2.7c0-2.5,2-3.1,4.8-3.1h0.4v-0.3c0-0.9-0.4-1.7-1.7-1.7
			c-1.1,0-2.1,0.5-2.5,0.9L689.9,25.9z M694.2,30H694c-1.9,0-3,0.4-3,1.7c0,0.8,0.5,1.4,1.4,1.4c1.3,0,1.8-1,1.8-2.6V30z"/>
		<path class="st0" d="M698.5,32.1h2.1v2.3h-2.1V32.1z"/>
		<path class="st0" d="M703.9,22.4l-0.9,1l-0.5-0.7l1.5-1.4h0.8v7.2h-0.9V22.4z"/>
	</g>
</g>
</svg>
