<!-- Generator: Adobe Illustrator 20.1.0, SVG Export Plug-In  -->
<svg version="1.1"
	 xmlns="http://www.w3.org/2000/svg" xmlns:xlink="http://www.w3.org/1999/xlink" xmlns:a="http://ns.adobe.com/AdobeSVGViewerExtensions/3.0/"
	 x="0px" y="0px" width="416.3px" height="23.2px" viewBox="0 0 416.3 23.2"
	 style="overflow:scroll;enable-background:new 0 0 416.3 23.2;" xml:space="preserve">
<style type="text/css">
	.st0{fill:#FFFFFF;}
</style>
<defs>
</defs>
<g>
	<g>
		<path class="st0" d="M0,1.2h7v1.8H1.9v5.3h4.9v1.8H1.9v6h5.4V18H0V1.2z"/>
		<path class="st0" d="M11.8,11.4L8.9,5.8h2l2.1,4.4l2.1-4.4h2L14,11.5l3.3,6.5h-2.1l-2.4-5.1L10.5,18h-2L11.8,11.4z"/>
		<path class="st0" d="M25.3,7.9c-0.6-0.4-1.3-0.6-2.1-0.6c-1.8,0-3,1.4-3,4.7c0,2.8,1.2,4.4,3,4.4c0.9,0,1.6-0.3,2.2-0.6l0.1,1.8
			c-0.5,0.3-1.5,0.5-2.3,0.5c-3.3,0-4.9-2.7-4.9-6.2c0-4,1.9-6.4,4.9-6.4c0.8,0,1.6,0.2,2.2,0.5L25.3,7.9z"/>
		<path class="st0" d="M28.6,12.5c0,2.8,1,4.2,3,4.2c0.9,0,1.9-0.5,2.5-1l0.1,1.8c-0.9,0.5-2,0.7-3.1,0.7c-2.9,0-4.4-2.4-4.4-6.3
			s1.5-6.3,4.3-6.3c2.5,0,3.9,2.2,3.9,5.8v1.1H28.6z M33,10.9c0-2.5-0.7-3.8-2.2-3.8c-1.2,0-2.2,1-2.2,3.8H33z"/>
		<path class="st0" d="M37,0h1.8v18H37V0z"/>
		<path class="st0" d="M43,12.5c0,2.8,1,4.2,3,4.2c0.9,0,1.9-0.5,2.5-1l0.1,1.8c-0.9,0.5-2,0.7-3.1,0.7c-2.9,0-4.4-2.4-4.4-6.3
			s1.5-6.3,4.3-6.3c2.5,0,3.9,2.2,3.9,5.8v1.1H43z M47.4,10.9c0-2.5-0.7-3.8-2.2-3.8c-1.2,0-2.2,1-2.2,3.8H47.4z"/>
		<path class="st0" d="M51.2,8.4c0-0.9-0.1-1.8-0.1-2.6h1.8L53,7.6h0c0.6-1.4,1.5-2,2.8-2c1.9,0,3.2,1.2,3.2,3.9V18h-1.8v-7.9
			c0-1.9-0.6-2.8-1.8-2.8C54,7.3,53,8.4,53,10.6V18h-1.8V8.4z"/>
		<path class="st0" d="M66.5,17.9c-0.4,0.2-1,0.3-1.5,0.3c-1.7,0-2.5-0.7-2.5-2.9V7.4h-1.8V5.8h1.8V3.3l1.8-0.6v3.1h2.3v1.6h-2.3
			v7.2c0,1.4,0.3,1.9,1.1,1.9c0.5,0,0.8-0.1,1.1-0.3V17.9z"/>
		<path class="st0" d="M69.4,12.5c0,2.8,1,4.2,3,4.2c0.9,0,1.9-0.5,2.5-1l0.1,1.8c-0.9,0.5-2,0.7-3.1,0.7c-2.9,0-4.4-2.4-4.4-6.3
			s1.5-6.3,4.3-6.3c2.5,0,3.9,2.2,3.9,5.8v1.1H69.4z M73.8,10.9c0-2.5-0.7-3.8-2.2-3.8c-1.2,0-2.2,1-2.2,3.8H73.8z"/>
		<path class="st0" d="M87.7,17.9c-0.4,0.2-1,0.3-1.5,0.3c-1.7,0-2.5-0.7-2.5-2.9V7.4h-1.8V5.8h1.8V3.3l1.8-0.6v3.1h2.3v1.6h-2.3
			v7.2c0,1.4,0.3,1.9,1.1,1.9c0.5,0,0.8-0.1,1.1-0.3V17.9z"/>
		<path class="st0" d="M93.1,5.6c2.9,0,4.4,2.4,4.4,6.3s-1.5,6.3-4.4,6.3s-4.4-2.4-4.4-6.3S90.2,5.6,93.1,5.6z M93.1,16.5
			c1.7,0,2.5-1.6,2.5-4.7s-0.8-4.7-2.5-4.7s-2.5,1.6-2.5,4.7S91.4,16.5,93.1,16.5z"/>
		<path class="st0" d="M99.8,0h1.8v18h-1.8V0z"/>
		<path class="st0" d="M105.8,12.5c0,2.8,1,4.2,3,4.2c0.9,0,1.9-0.5,2.5-1l0.1,1.8c-0.9,0.5-2,0.7-3.1,0.7c-2.9,0-4.4-2.4-4.4-6.3
			s1.5-6.3,4.3-6.3c2.5,0,3.9,2.2,3.9,5.8v1.1H105.8z M110.2,10.9c0-2.5-0.7-3.8-2.2-3.8c-1.2,0-2.2,1-2.2,3.8H110.2z"/>
		<path class="st0" d="M114,8.4c0-0.9-0.1-1.8-0.1-2.6h1.8l0.1,1.9h0c0.6-1.5,1.5-2.1,3.1-2.1v2c-0.2,0-0.5-0.1-0.7-0.1
			c-1.4,0-2.4,1.3-2.4,4V18H114V8.4z"/>
		<path class="st0" d="M120.8,6.6c0.9-0.6,2-1,3.1-1c1.6,0,2.6,0.8,2.9,1.2c0.5,0.5,1,1.3,1,3v6.4c0,0.7,0,1.4,0.1,1.9h-1.6
			l-0.1-1.7h0c-0.5,0.9-1.4,1.8-3.1,1.8c-1.8,0-3.2-1.2-3.2-3.5c0-2.4,1.4-4.1,5.2-4.1h1.1V10c0-0.9-0.1-1.4-0.4-2
			c-0.4-0.6-1.1-0.8-1.8-0.8c-1.1,0-2.2,0.5-2.8,1.3L120.8,6.6z M126.1,12c-0.3,0-0.8,0-1.3,0c-2.1,0-3.2,1.1-3.2,2.5
			c0,1.3,0.6,2.1,1.9,2.1c1.6,0,2.6-1.4,2.6-3.1V12z"/>
		<path class="st0" d="M130.2,0h1.8v7.4h0c0.7-1.3,1.6-1.8,2.8-1.8c2.3,0,3.8,2.1,3.8,6.3c0,4.2-1.5,6.3-3.8,6.3c-1.6,0-2.4-1-2.9-2
			h0l-0.1,1.8h-1.8c0-0.7,0.1-1.5,0.1-2.3V0z M134.5,16.5c1.7,0,2.4-1.6,2.4-4.7s-0.8-4.7-2.4-4.7c-1.7,0-2.4,1.6-2.4,4.7
			S132.8,16.5,134.5,16.5z"/>
		<path class="st0" d="M142.9,0.7v2.4h-2V0.7H142.9z M141,5.8h1.8V18H141V5.8z"/>
		<path class="st0" d="M145.8,0h1.8v18h-1.8V0z"/>
		<path class="st0" d="M152.4,0.7v2.4h-2V0.7H152.4z M150.5,5.8h1.8V18h-1.8V5.8z"/>
		<path class="st0" d="M163.1,15.7c0,0.7,0.1,1.5,0.1,2.3h-1.8l-0.1-1.8h0c-0.5,1-1.3,2-2.9,2c-2.3,0-3.8-2.1-3.8-6.3
			c0-4.2,1.5-6.3,3.8-6.3c1.3,0,2.1,0.6,2.8,1.8h0V0h1.8V15.7z M158.9,7.2c-1.7,0-2.4,1.6-2.4,4.7s0.8,4.7,2.4,4.7s2.4-1.6,2.4-4.7
			S160.5,7.2,158.9,7.2z"/>
		<path class="st0" d="M166,6.6c0.9-0.6,2-1,3.1-1c1.6,0,2.6,0.8,2.9,1.2c0.5,0.5,1,1.3,1,3v6.4c0,0.7,0,1.4,0.1,1.9h-1.6l-0.1-1.7
			h0c-0.5,0.9-1.4,1.8-3.1,1.8c-1.8,0-3.2-1.2-3.2-3.5c0-2.4,1.4-4.1,5.2-4.1h1.1V10c0-0.9-0.1-1.4-0.4-2c-0.4-0.6-1.1-0.8-1.8-0.8
			c-1.1,0-2.2,0.5-2.8,1.3L166,6.6z M171.3,12c-0.3,0-0.8,0-1.3,0c-2.1,0-3.2,1.1-3.2,2.5c0,1.3,0.6,2.1,1.9,2.1
			c1.6,0,2.6-1.4,2.6-3.1V12z"/>
		<path class="st0" d="M183.5,15.7c0,0.7,0.1,1.5,0.1,2.3h-1.8l-0.1-1.8h0c-0.5,1-1.3,2-2.9,2c-2.3,0-3.8-2.1-3.8-6.3
			c0-4.2,1.5-6.3,3.8-6.3c1.3,0,2.1,0.6,2.8,1.8h0V0h1.8V15.7z M179.3,7.2c-1.7,0-2.4,1.6-2.4,4.7s0.8,4.7,2.4,4.7s2.4-1.6,2.4-4.7
			S180.9,7.2,179.3,7.2z"/>
		<path class="st0" d="M201.2,15.2c0,1,0.1,2,0.1,2.8h-3.5c0-0.6-0.1-1.2-0.1-1.7c-1.1,1.4-2,2-3.4,2c-2,0-3.4-1.6-3.4-4
			c0-2.8,1.9-4.3,5.8-4.3h1V9.6c0-0.8-0.6-1.7-2.1-1.7c-1.2,0-2.4,0.6-3.2,1.2L192.2,6c0.9-0.4,2.3-0.8,4.2-0.8c4,0,4.7,2.1,4.7,4.6
			V15.2z M197.7,12h-0.5c-1.7,0-2.9,0.6-2.9,2.1c0,1.1,0.5,1.5,1.3,1.5c1.8,0,2-2,2-3.2V12z"/>
		<path class="st0" d="M209,7.6c0-0.9-0.1-1.7-0.1-2.1h3.8c0,0.6,0.1,1.2,0.1,1.9h0c0.8-1.7,1.8-2.2,3-2.2c3,0,4.2,3,4.2,6.7
			c0,2.9-1.2,6.2-4,6.2c-1.5,0-2.3-0.7-3.1-2.1h0c0,0.5,0.1,1.3,0.1,2.2v4.9H209V7.6z M214.4,15.3c1.1,0,1.5-1.4,1.5-3.5
			s-0.4-3.5-1.4-3.5c-1,0-1.6,1.4-1.6,3.5S213.4,15.3,214.4,15.3z"/>
		<path class="st0" d="M231.6,15.2c0,1,0.1,2,0.1,2.8h-3.5c0-0.6-0.1-1.2-0.1-1.7c-1.1,1.4-2,2-3.4,2c-2,0-3.4-1.6-3.4-4
			c0-2.8,1.9-4.3,5.8-4.3h1V9.6c0-0.8-0.6-1.7-2.1-1.7c-1.2,0-2.4,0.6-3.2,1.2L222.6,6c0.9-0.4,2.3-0.8,4.2-0.8c4,0,4.7,2.1,4.7,4.6
			V15.2z M228.1,12h-0.5c-1.7,0-2.9,0.6-2.9,2.1c0,1.1,0.5,1.5,1.3,1.5c1.8,0,2-2,2-3.2V12z"/>
		<path class="st0" d="M233.7,9.1c0-1.8-0.1-3-0.1-3.6h3.7c0.1,0.5,0.1,1.4,0.1,2.1h0c0.3-1,1-2.4,2.9-2.4c0.3,0,0.4,0,0.6,0.1V9
			c-0.2-0.1-0.7-0.1-1.2-0.1c-1.3,0-2.1,1.2-2.1,2.9V18h-3.9V9.1z"/>
		<path class="st0" d="M241.7,5.5h1.9V2.9l3.9-1.3v4h2.2v2.9h-2.2v5.3c0,1.1,0.6,1.5,1.3,1.5c0.4,0,0.7-0.1,0.9-0.2l0.1,2.9
			c-0.5,0.1-1.4,0.3-2.6,0.3c-2.1,0-3.6-1.3-3.6-3.7V8.4h-1.9V5.5z"/>
		<path class="st0" d="M251.5,0h3.9v3.6h-3.9V0z M251.5,5.5h3.9V18h-3.9V5.5z"/>
		<path class="st0" d="M257.7,9.1c0-1.8-0.1-3-0.1-3.6h3.7c0.1,0.5,0.1,1.4,0.1,2.1h0c0.3-1,1-2.4,2.9-2.4c0.3,0,0.4,0,0.6,0.1V9
			c-0.2-0.1-0.7-0.1-1.2-0.1c-1.3,0-2.1,1.2-2.1,2.9V18h-3.9V9.1z"/>
		<path class="st0" d="M282.7,15.8c0,0.7,0,1.5,0.1,2.2h-3.7c0-0.7-0.1-1.3-0.1-2h0c-0.8,1.7-1.8,2.2-3,2.2c-3,0-4.2-3-4.2-6.7
			c0-2.9,1.2-6.2,4-6.2c1.5,0,2.3,0.7,3.1,2.1h0c0-0.5-0.1-1.3-0.1-2.2V0h3.9V15.8z M277.3,15.2c1,0,1.5-1.4,1.5-3.5
			c0-2.1-0.5-3.5-1.5-3.5c-1.1,0-1.5,1.4-1.5,3.5C275.8,13.7,276.2,15.2,277.3,15.2z"/>
		<path class="st0" d="M288.2,12.9c0.1,2,1.4,2.6,2.8,2.6c1.1,0,2.3-0.5,3.3-1l0.1,3c-0.9,0.3-2.4,0.7-3.9,0.7
			c-4.6,0-5.9-3.4-5.9-6.6c0-3.4,1.8-6.5,5.2-6.5c3.5,0,5.2,3.1,5.2,6.5v1.2H288.2z M291.5,10.7v-0.4c0-1.7-0.4-2.5-1.6-2.5
			c-1.1,0-1.8,1.1-1.8,2.8H291.5z"/>
		<path class="st0" d="M302.7,0h3.9v18h-3.9V0z"/>
		<path class="st0" d="M314.2,5.2c4.1,0,5.6,3.1,5.6,6.6s-1.5,6.5-5.6,6.5s-5.6-3.1-5.6-6.5S310.1,5.2,314.2,5.2z M314.2,15.4
			c1.3,0,1.5-1.8,1.5-3.6s-0.2-3.6-1.5-3.6s-1.5,1.8-1.5,3.6S312.9,15.4,314.2,15.4z"/>
		<path class="st0" d="M321.4,14.4c0.6,0.3,1.6,0.9,2.9,0.9c1.1,0,1.6-0.3,1.6-0.9c0-0.4-0.3-0.7-1.3-1.1l-1.2-0.5
			c-1.8-0.7-2.3-1.9-2.3-3.5c0-2.2,1.3-4.1,4.7-4.1c1.2,0,2.3,0.3,3.1,0.6l-0.1,3.1c-0.7-0.4-1.8-0.8-2.8-0.8
			c-0.8,0-1.4,0.2-1.4,0.9c0,0.4,0.4,0.7,1.3,1.1l1.3,0.5c1.4,0.6,2.2,1.3,2.2,3.5c0,2.6-1.5,4.1-4.8,4.1c-1.2,0-2.8-0.3-3.4-0.6
			L321.4,14.4z"/>
		<path class="st0" d="M340.2,6.1l-2,2.1l-1.8-3l4.6-4h3.1V18h-3.9V6.1z"/>
		<path class="st0" d="M347.8,14.7l0.8-0.7c1.6-1.6,4.7-5.3,4.7-7.5c0-1.5-0.7-2-2-2c-1.3,0-2.3,0.7-3,1.3L348.1,2
			c1.1-0.6,2.5-1,4.6-1c2.7,0,4.7,1.5,4.7,4.7c0,3.4-3.8,7.6-4.8,8.6l-0.4,0.4v0h5.3V18h-9.6V14.7z"/>
		<path class="st0" d="M374.8,15.2c0,1,0.1,2,0.1,2.8h-3.5c0-0.6-0.1-1.2-0.1-1.7c-1.1,1.4-2,2-3.4,2c-2,0-3.4-1.6-3.4-4
			c0-2.8,1.9-4.3,5.8-4.3h1V9.6c0-0.8-0.6-1.7-2.1-1.7c-1.2,0-2.4,0.6-3.2,1.2L365.8,6c0.9-0.4,2.3-0.8,4.2-0.8c4,0,4.7,2.1,4.7,4.6
			V15.2z M371.3,12h-0.5c-1.7,0-2.9,0.6-2.9,2.1c0,1.1,0.5,1.5,1.3,1.5c1.8,0,2-2,2-3.2V12z"/>
		<path class="st0" d="M376.9,8c0-0.9-0.1-2-0.1-2.5h3.7c0.1,0.5,0.1,1.4,0.1,2.1h0c0.2-0.7,1-2.4,3.2-2.4c1.9,0,3.4,1.3,3.4,4V18
			h-3.9v-7.5c0-1.2-0.3-1.8-1.1-1.8c-1,0-1.4,1.1-1.4,2.4V18h-3.9V8z M385.6,0.4c0,1.5-0.8,3.1-2.1,3.1c-0.4,0-0.9-0.1-1.4-0.3
			c-0.5-0.2-0.8-0.4-1.2-0.4c-0.3,0-0.6,0.3-0.6,0.8h-1.7c0-1.5,0.8-3.1,2.1-3.1c0.4,0,0.9,0.1,1.4,0.3c0.5,0.2,0.8,0.4,1.2,0.4
			c0.3,0,0.6-0.3,0.6-0.8H385.6z"/>
		<path class="st0" d="M394.6,5.2c4.1,0,5.6,3.1,5.6,6.6s-1.5,6.5-5.6,6.5s-5.6-3.1-5.6-6.5S390.5,5.2,394.6,5.2z M394.6,15.4
			c1.3,0,1.5-1.8,1.5-3.6s-0.2-3.6-1.5-3.6s-1.5,1.8-1.5,3.6S393.3,15.4,394.6,15.4z"/>
		<path class="st0" d="M401.9,14.4c0.6,0.3,1.6,0.9,2.9,0.9c1.1,0,1.6-0.3,1.6-0.9c0-0.4-0.3-0.7-1.3-1.1l-1.2-0.5
			c-1.8-0.7-2.3-1.9-2.3-3.5c0-2.2,1.3-4.1,4.7-4.1c1.2,0,2.3,0.3,3.1,0.6l-0.1,3.1c-0.7-0.4-1.8-0.8-2.8-0.8
			c-0.8,0-1.4,0.2-1.4,0.9c0,0.4,0.4,0.7,1.3,1.1l1.3,0.5c1.4,0.6,2.2,1.3,2.2,3.5c0,2.6-1.5,4.1-4.8,4.1c-1.2,0-2.8-0.3-3.4-0.6
			L401.9,14.4z"/>
		<path class="st0" d="M414.3,0.2h1v6.6h1v0.8h-1V10h-0.8V7.7H411V6.8L414.3,0.2z M411.7,6.9h2.8V1.1h0L411.7,6.9z"/>
	</g>
</g>
</svg>
