<!-- Generator: Adobe Illustrator 20.1.0, SVG Export Plug-In  -->
<svg version="1.1"
	 xmlns="http://www.w3.org/2000/svg" xmlns:xlink="http://www.w3.org/1999/xlink" xmlns:a="http://ns.adobe.com/AdobeSVGViewerExtensions/3.0/"
	 x="0px" y="0px" width="150.9px" height="45.9px" viewBox="0 0 150.9 45.9"
	 style="overflow:scroll;enable-background:new 0 0 150.9 45.9;" xml:space="preserve">
<style type="text/css">
	.st0{fill:#FFFFFF;}
</style>
<defs>
</defs>
<g>
	<g>
		<path class="st0" d="M0.7,0.1h4.1c3.5,0,4.1,2.4,4.1,6c0,4.4-0.9,6.4-4.3,6.4H0.7V0.1z M3.2,10.7h1.1c1.7,0,2.1-1.1,2.1-4.5
			C6.4,3.4,6.1,2,4.2,2H3.2V10.7z"/>
		<path class="st0" d="M13.8,3c2.9-0.1,3.7,1.7,3.7,4.9c0,3.2-0.9,4.9-3.7,4.9c-2.9,0.1-3.7-1.7-3.7-4.9C10.1,4.7,11.1,3,13.8,3z
			 M13.8,11.2c1,0,1.3-1,1.3-3.3c0-2.3-0.3-3.3-1.3-3.3c-1.2,0-1.3,1.4-1.3,3.3C12.5,9.8,12.7,11.2,13.8,11.2z"/>
		<path class="st0" d="M20.6,9.5v0.3c0,0.8,0.4,1.4,1.3,1.4c0.7,0,1.2-0.4,1.2-1.1c0-0.6-0.4-0.9-0.9-1.1l-1.7-0.6
			c-1.3-0.5-2-1.3-2-2.6c0-1.5,1-2.8,3.4-2.8c2.2,0,3.2,1,3.2,2.7V6H23c0-0.9-0.3-1.4-1.1-1.4c-0.6,0-1.1,0.3-1.1,1
			c0,0.5,0.2,0.8,1,1.1l1.4,0.5c1.5,0.5,2.1,1.3,2.1,2.7c0,2-1.5,2.9-3.5,2.9c-2.7,0-3.4-1.2-3.4-3V9.5H20.6z"/>
		<path class="st0" d="M26.6,0H29v2.1h-2.4V0z M26.6,3.2H29v9.4h-2.4V3.2z"/>
		<path class="st0" d="M32.5,9.5v0.3c0,0.8,0.4,1.4,1.3,1.4c0.7,0,1.2-0.4,1.2-1.1c0-0.6-0.4-0.9-0.9-1.1l-1.7-0.6
			c-1.3-0.5-2-1.3-2-2.6c0-1.5,1-2.8,3.4-2.8C36,3,37,3.9,37,5.6V6h-2.2c0-0.9-0.3-1.4-1.1-1.4c-0.6,0-1.1,0.3-1.1,1
			c0,0.5,0.2,0.8,1,1.1l1.4,0.5c1.5,0.5,2.1,1.3,2.1,2.7c0,2-1.5,2.9-3.5,2.9c-2.7,0-3.4-1.2-3.4-3V9.5H32.5z"/>
		<path class="st0" d="M38.6,3.5h2.3v2.7h-2.3V3.5z M38.6,9.8h2.3v2.7h-2.3V9.8z"/>
		<path class="st0" d="M0.8,16.6h3.3c3.9,0,4.3,2.8,4.3,6.2c0,3.1-0.8,6.2-4.2,6.2H0.8V16.6z M2.4,27.7H4c2.6,0,2.9-2.7,2.9-4.9
			c0-2.4-0.2-5-2.9-5H2.4V27.7z"/>
		<path class="st0" d="M11.5,24.5c0,1.4,0,3.6,1.8,3.6c1.4,0,1.6-1.5,1.6-2.2h1.5c0,1-0.6,3.3-3.1,3.3c-2.3,0-3.2-1.6-3.2-4.8
			c0-2.3,0.5-5,3.3-5c2.9,0,3.1,2.5,3.1,4.5v0.6H11.5z M14.9,23.4v-0.5c0-1-0.3-2.3-1.6-2.3c-1.5,0-1.7,1.9-1.7,2.4v0.3H14.9z"/>
		<path class="st0" d="M22.4,18.7c1.5-0.1,3-0.3,3-2h1V29H25v-9.3h-2.6V18.7z"/>
		<path class="st0" d="M34.5,22.5c0-2.1,0.9-3.1,3.1-3.1c2.8,0,2.8,1.7,2.8,2.7v5.2c0,0.4,0,0.7,0.5,0.7c0.2,0,0.3,0,0.3-0.1v1
			c-0.1,0-0.5,0.1-0.9,0.1c-0.6,0-1.3,0-1.3-1.2h0c-0.5,0.8-1.4,1.3-2.2,1.3c-1.7,0-2.5-1-2.5-2.7c0-1.3,0.6-2.2,1.8-2.6l2-0.6
			c1.1-0.3,1.1-0.6,1.1-1.4c0-0.9-0.5-1.4-1.5-1.4c-1.6,0-1.6,1.5-1.6,1.8v0.1H34.5z M39,23.9c-0.5,0.6-1.8,0.7-2.5,1.1
			c-0.5,0.3-0.7,0.7-0.7,1.5c0,0.9,0.3,1.6,1.3,1.6c1,0,1.9-0.8,1.9-1.8V23.9z"/>
		<path class="st0" d="M48.8,22h0.8c1.3,0,1.9-0.9,1.9-2.2c0-1.1-0.4-2.1-1.6-2.1c-1.6,0-1.8,1.5-1.8,2.4h-1.5c0-2.1,1-3.5,3.3-3.5
			c2.6,0,3.2,1.8,3.2,3.2c0,1.2-0.6,2.3-1.9,2.6v0c1.4,0.3,2.3,1.2,2.3,2.9c0,2.2-1.1,3.8-3.5,3.8c-3.3,0-3.5-2.9-3.5-3.4v-0.2h1.5
			c0,1.1,0.6,2.4,2,2.4c0.9,0,2-0.5,2-2.5c0-1.4-0.7-2.3-2.2-2.3h-0.8V22z"/>
		<path class="st0" d="M59.6,17H61v2.7h1.6v1.1H61v6c0,0.7,0.2,1,1,1c0.3,0,0.5,0,0.6-0.1V29c-0.2,0-0.6,0.1-1.2,0.1
			c-1.5,0-1.9-0.6-1.9-1.8v-6.4h-1.4v-1.1h1.4V17z"/>
		<path class="st0" d="M63.4,22.5c0-2.1,0.9-3.1,3.1-3.1c2.8,0,2.8,1.7,2.8,2.7v5.2c0,0.4,0,0.7,0.5,0.7c0.2,0,0.3,0,0.3-0.1v1
			c-0.1,0-0.5,0.1-0.9,0.1c-0.6,0-1.3,0-1.3-1.2h0c-0.5,0.8-1.4,1.3-2.2,1.3c-1.7,0-2.5-1-2.5-2.7c0-1.3,0.6-2.2,1.8-2.6l2-0.6
			C68,23,68,22.7,68,21.9c0-0.9-0.5-1.4-1.5-1.4c-1.6,0-1.6,1.5-1.6,1.8v0.1H63.4z M67.9,23.9c-0.5,0.6-1.8,0.7-2.5,1.1
			c-0.5,0.3-0.7,0.7-0.7,1.5c0,0.9,0.3,1.6,1.3,1.6c1,0,1.9-0.8,1.9-1.8V23.9z"/>
		<path class="st0" d="M71.4,16.6h1.5v4.2h0c0.3-0.8,1.2-1.3,2.2-1.3c2.5,0,2.8,3,2.8,4.9c0,2.6-0.9,4.9-3,4.9c-1,0-1.8-0.7-2-1.4h0
			V29h-1.4V16.6z M74.6,28c1.4,0,1.7-1.5,1.7-3.7c0-2.2-0.3-3.7-1.7-3.7c-1.6,0-1.9,1.8-1.9,3.7C72.8,26.2,73.1,28,74.6,28z"/>
		<path class="st0" d="M79.5,16.6H81V29h-1.5V16.6z"/>
		<path class="st0" d="M84.2,24.5c0,1.4,0,3.6,1.8,3.6c1.4,0,1.6-1.5,1.6-2.2H89c0,1-0.6,3.3-3.1,3.3c-2.3,0-3.2-1.6-3.2-4.8
			c0-2.3,0.5-5,3.3-5c2.9,0,3.1,2.5,3.1,4.5v0.6H84.2z M87.6,23.4v-0.5c0-1-0.3-2.3-1.6-2.3c-1.5,0-1.7,1.9-1.7,2.4v0.3H87.6z"/>
		<path class="st0" d="M91.1,17h1.5v2.7h1.6v1.1h-1.6v6c0,0.7,0.2,1,1,1c0.3,0,0.5,0,0.6-0.1V29c-0.2,0-0.6,0.1-1.2,0.1
			c-1.5,0-1.9-0.6-1.9-1.8v-6.4h-1.4v-1.1h1.4V17z"/>
		<path class="st0" d="M95,22.5c0-2.1,0.9-3.1,3.1-3.1c2.8,0,2.8,1.7,2.8,2.7v5.2c0,0.4,0,0.7,0.5,0.7c0.2,0,0.3,0,0.3-0.1v1
			c-0.1,0-0.5,0.1-0.9,0.1c-0.6,0-1.3,0-1.3-1.2h0c-0.5,0.8-1.4,1.3-2.2,1.3c-1.7,0-2.5-1-2.5-2.7c0-1.3,0.6-2.2,1.8-2.6l2-0.6
			c1.1-0.3,1.1-0.6,1.1-1.4c0-0.9-0.5-1.4-1.5-1.4c-1.6,0-1.6,1.5-1.6,1.8v0.1H95z M99.5,23.9C99,24.5,97.7,24.6,97,25
			c-0.5,0.3-0.7,0.7-0.7,1.5c0,0.9,0.3,1.6,1.3,1.6c1,0,1.9-0.8,1.9-1.8V23.9z"/>
		<path class="st0" d="M106.9,22.4c0-1.2-0.3-1.8-1.4-1.8c-0.5,0-1.5,0.1-1.5,1.4c0,1.1,1.1,1.3,2.3,1.7c1.1,0.4,2.3,0.8,2.3,2.6
			c0,2-1.3,2.9-3,2.9c-3.2,0-3.2-2.3-3.2-3.3h1.5c0,1.1,0.3,2.2,1.7,2.2c0.5,0,1.5-0.2,1.5-1.5c0-1.3-1.1-1.5-2.3-1.9
			c-1.1-0.4-2.3-0.7-2.3-2.6c0-1.7,1.4-2.6,3-2.6c2.7,0,2.8,1.9,2.8,3H106.9z"/>
		<path class="st0" d="M114,22.5c0-2.1,0.9-3.1,3.1-3.1c2.8,0,2.8,1.7,2.8,2.7v5.2c0,0.4,0,0.7,0.5,0.7c0.2,0,0.3,0,0.3-0.1v1
			c-0.1,0-0.5,0.1-0.9,0.1c-0.6,0-1.3,0-1.3-1.2h0c-0.5,0.8-1.4,1.3-2.2,1.3c-1.7,0-2.5-1-2.5-2.7c0-1.3,0.6-2.2,1.8-2.6l2-0.6
			c1.1-0.3,1.1-0.6,1.1-1.4c0-0.9-0.5-1.4-1.5-1.4c-1.6,0-1.6,1.5-1.6,1.8v0.1H114z M118.5,23.9c-0.5,0.6-1.8,0.7-2.5,1.1
			c-0.5,0.3-0.7,0.7-0.7,1.5c0,0.9,0.3,1.6,1.3,1.6c1,0,1.9-0.8,1.9-1.8V23.9z"/>
		<path class="st0" d="M122,16.6h1.5V29H122V16.6z"/>
		<path class="st0" d="M135.8,29h-1.4v-1.1h0c-0.2,0.7-1,1.4-2,1.4c-2.2,0-3-2-3-4.9c0-1.9,0.3-4.9,2.9-4.9c0.8,0,1.7,0.5,2.1,1.3h0
			v-4.2h1.5V29z M132.5,28c1.6,0,1.9-1.5,1.9-3.7c0-1.8-0.3-3.7-1.9-3.7c-1.4,0-1.7,1.4-1.7,3.7S131.2,28,132.5,28z"/>
		<path class="st0" d="M138.9,15.9h1.7l-1.9,2.5h-1L138.9,15.9z M137.8,19.7h1.5V29h-1.5V19.7z"/>
		<path class="st0" d="M141,22.5c0-2.1,0.9-3.1,3.1-3.1c2.8,0,2.8,1.7,2.8,2.7v5.2c0,0.4,0,0.7,0.5,0.7c0.2,0,0.3,0,0.3-0.1v1
			c-0.1,0-0.5,0.1-0.9,0.1c-0.6,0-1.3,0-1.3-1.2h0c-0.5,0.8-1.4,1.3-2.2,1.3c-1.7,0-2.5-1-2.5-2.7c0-1.3,0.6-2.2,1.8-2.6l2-0.6
			c1.1-0.3,1.1-0.6,1.1-1.4c0-0.9-0.5-1.4-1.5-1.4c-1.6,0-1.6,1.5-1.6,1.8v0.1H141z M145.5,23.9c-0.5,0.6-1.8,0.7-2.5,1.1
			c-0.5,0.3-0.7,0.7-0.7,1.5c0,0.9,0.3,1.6,1.3,1.6c1,0,1.9-0.8,1.9-1.8V23.9z"/>
		<path class="st0" d="M149.3,27.1h1.6v1.5c0,1.3-0.1,2.5-1.6,2.9v-0.8c0.6-0.3,0.8-0.6,0.8-1.3V29h-0.8V27.1z"/>
		<path class="st0" d="M0.1,39.7c0-1.4,0.6-2,2-2C4,37.7,4,38.8,4,39.4v3.3c0,0.2,0,0.5,0.3,0.5c0.1,0,0.2,0,0.2-0.1v0.7
			c-0.1,0-0.3,0.1-0.5,0.1c-0.4,0-0.8,0-0.8-0.8h0C2.8,43.7,2.2,44,1.6,44C0.5,44,0,43.3,0,42.3c0-0.8,0.4-1.4,1.1-1.6l1.3-0.4
			c0.7-0.2,0.7-0.4,0.7-0.9c0-0.6-0.3-0.9-1-0.9c-1,0-1,1-1,1.2v0.1H0.1z M3,40.6C2.7,41,1.9,41,1.4,41.3C1.1,41.5,1,41.7,1,42.2
			c0,0.6,0.2,1,0.8,1c0.6,0,1.2-0.5,1.2-1.1V40.6z"/>
		<path class="st0" d="M6.2,44.4c0,1-0.4,1.5-1.4,1.5c-0.1,0-0.3,0-0.4,0v-0.8c0.1,0,0.2,0,0.3,0c0.6,0,0.6-0.4,0.6-1v-6.2h0.9V44.4
			z M6.2,37H5.3v-1.1h0.9V37z"/>
		<path class="st0" d="M11.4,43.8h-0.9v-0.7h0C10.3,43.7,9.7,44,9.1,44c-1.6,0-1.6-1.2-1.6-1.9v-4.2h0.9V42c0,0.5,0,1.2,0.9,1.2
			c0.5,0,1.2-0.3,1.2-1.2v-4.1h0.9V43.8z"/>
		<path class="st0" d="M15.2,39.6c0-0.8-0.2-1.2-0.9-1.2c-0.3,0-1,0.1-1,0.9c0,0.7,0.7,0.8,1.5,1.1c0.7,0.2,1.5,0.5,1.5,1.7
			c0,1.3-0.8,1.9-1.9,1.9c-2,0-2-1.5-2-2.1h0.9c0,0.7,0.2,1.4,1.1,1.4c0.3,0,1-0.1,1-1c0-0.8-0.7-1-1.5-1.2
			c-0.7-0.2-1.5-0.5-1.5-1.7c0-1.1,0.9-1.6,1.9-1.6c1.7,0,1.8,1.2,1.8,1.9H15.2z"/>
		<path class="st0" d="M17.5,36.1h0.9v1.7h1v0.7h-1v3.8c0,0.5,0.1,0.7,0.6,0.7c0.2,0,0.3,0,0.4,0v0.8c-0.1,0-0.4,0.1-0.8,0.1
			c-1,0-1.2-0.4-1.2-1.2v-4.1h-0.9v-0.7h0.9V36.1z"/>
		<path class="st0" d="M19.9,39.7c0-1.4,0.6-2,2-2c1.8,0,1.8,1.1,1.8,1.7v3.3c0,0.2,0,0.5,0.3,0.5c0.1,0,0.2,0,0.2-0.1v0.7
			c-0.1,0-0.3,0.1-0.5,0.1c-0.4,0-0.8,0-0.8-0.8h0C22.6,43.7,22,44,21.4,44c-1.1,0-1.6-0.7-1.6-1.7c0-0.8,0.4-1.4,1.1-1.6l1.3-0.4
			c0.7-0.2,0.7-0.4,0.7-0.9c0-0.6-0.3-0.9-1-0.9c-1,0-1,1-1,1.2v0.1H19.9z M22.8,40.6c-0.3,0.4-1.2,0.4-1.6,0.7
			c-0.3,0.2-0.5,0.4-0.5,0.9c0,0.6,0.2,1,0.8,1c0.6,0,1.2-0.5,1.2-1.1V40.6z"/>
		<path class="st0" d="M29,43.8h-0.9v-0.7h0c-0.1,0.4-0.6,0.9-1.3,0.9c-1.4,0-1.9-1.3-1.9-3.1c0-1.2,0.2-3.1,1.9-3.1
			c0.5,0,1.1,0.3,1.3,0.8h0v-2.7H29V43.8z M26.9,43.2c1,0,1.2-1,1.2-2.3c0-1.2-0.2-2.3-1.2-2.3c-0.9,0-1.1,0.9-1.1,2.3
			S26,43.2,26.9,43.2z"/>
		<path class="st0" d="M32.1,37.7c1.7,0,2.1,1.5,2.1,3.1S33.8,44,32.1,44c-1.7,0-2.1-1.5-2.1-3.1S30.3,37.7,32.1,37.7z M33.2,40.9
			c0-1.3-0.2-2.4-1.2-2.4c-0.9,0-1.1,1.1-1.1,2.4s0.2,2.4,1.1,2.4C33,43.3,33.2,42.2,33.2,40.9z"/>
		<path class="st0" d="M37.7,39.7c0-1.4,0.6-2,2-2c1.8,0,1.8,1.1,1.8,1.7v3.3c0,0.2,0,0.5,0.3,0.5c0.1,0,0.2,0,0.2-0.1v0.7
			c-0.1,0-0.3,0.1-0.5,0.1c-0.4,0-0.8,0-0.8-0.8h0c-0.3,0.5-0.9,0.9-1.4,0.9c-1.1,0-1.6-0.7-1.6-1.7c0-0.8,0.4-1.4,1.1-1.6l1.3-0.4
			c0.7-0.2,0.7-0.4,0.7-0.9c0-0.6-0.3-0.9-1-0.9c-1,0-1,1-1,1.2v0.1H37.7z M40.6,40.6C40.2,41,39.4,41,39,41.3
			c-0.3,0.2-0.5,0.4-0.5,0.9c0,0.6,0.2,1,0.8,1c0.6,0,1.2-0.5,1.2-1.1V40.6z"/>
		<path class="st0" d="M45.5,35.9h0.9v8h-0.9V35.9z"/>
		<path class="st0" d="M47.6,39.7c0-1.4,0.6-2,2-2c1.8,0,1.8,1.1,1.8,1.7v3.3c0,0.2,0,0.5,0.3,0.5c0.1,0,0.2,0,0.2-0.1v0.7
			c-0.1,0-0.3,0.1-0.5,0.1c-0.4,0-0.8,0-0.8-0.8h0c-0.3,0.5-0.9,0.9-1.4,0.9c-1.1,0-1.6-0.7-1.6-1.7c0-0.8,0.4-1.4,1.1-1.6l1.3-0.4
			c0.7-0.2,0.7-0.4,0.7-0.9c0-0.6-0.3-0.9-1-0.9c-1,0-1,1-1,1.2v0.1H47.6z M50.5,40.6c-0.3,0.4-1.2,0.4-1.6,0.7
			c-0.3,0.2-0.5,0.4-0.5,0.9c0,0.6,0.2,1,0.8,1c0.6,0,1.2-0.5,1.2-1.1V40.6z"/>
		<path class="st0" d="M55.3,37.9h0.9v0.9h0c0.3-0.6,0.6-1,1.3-1c0.2,0,0.3,0,0.4,0.1v0.9c-0.1,0-0.2,0-0.5,0
			c-0.5,0-1.2,0.4-1.2,1.4v3.8h-0.9V37.9z"/>
		<path class="st0" d="M59.4,41c0,0.9,0,2.3,1.1,2.3c0.9,0,1-0.9,1-1.4h0.9c0,0.6-0.4,2.1-2,2.1c-1.5,0-2.1-1-2.1-3.1
			c0-1.5,0.3-3.2,2.1-3.2c1.8,0,2,1.6,2,2.9V41H59.4z M61.6,40.2v-0.3c0-0.7-0.2-1.5-1-1.5c-1,0-1.1,1.2-1.1,1.6v0.2H61.6z"/>
		<path class="st0" d="M66.1,39.6c0-0.8-0.2-1.2-0.9-1.2c-0.3,0-1,0.1-1,0.9c0,0.7,0.7,0.8,1.5,1.1c0.7,0.2,1.5,0.5,1.5,1.7
			c0,1.3-0.8,1.9-1.9,1.9c-2,0-2-1.5-2-2.1h0.9c0,0.7,0.2,1.4,1.1,1.4c0.3,0,1-0.1,1-1c0-0.8-0.7-1-1.5-1.2
			c-0.7-0.2-1.5-0.5-1.5-1.7c0-1.1,0.9-1.6,1.9-1.6c1.7,0,1.8,1.2,1.8,1.9H66.1z"/>
		<path class="st0" d="M68.1,37.9H69v0.7h0c0.1-0.4,0.6-0.9,1.3-0.9c1.4,0,1.9,1.3,1.9,3c0,1.4-0.4,3.3-1.9,3.3
			c-0.5,0-1-0.3-1.2-0.8h0v2.6h-0.9V37.9z M70.2,43.2c0.9,0,1.1-0.9,1.1-2.5c0-1.3-0.2-2.2-1.1-2.2c-1,0-1.2,1-1.2,2.3
			C69,42,69.2,43.2,70.2,43.2z"/>
		<path class="st0" d="M77.2,43.8h-0.9v-0.7h0c-0.2,0.5-0.9,0.9-1.4,0.9c-1.6,0-1.6-1.2-1.6-1.9v-4.2h0.9V42c0,0.5,0,1.2,0.9,1.2
			c0.5,0,1.2-0.3,1.2-1.2v-4.1h0.9V43.8z"/>
		<path class="st0" d="M79.2,41c0,0.9,0,2.3,1.1,2.3c0.9,0,1-0.9,1-1.4h0.9c0,0.6-0.4,2.1-2,2.1c-1.5,0-2.1-1-2.1-3.1
			c0-1.5,0.3-3.2,2.1-3.2c1.8,0,2,1.6,2,2.9V41H79.2z M81.4,40.2v-0.3c0-0.7-0.2-1.5-1-1.5c-1,0-1.1,1.2-1.1,1.6v0.2H81.4z"/>
		<path class="st0" d="M86,39.6c0-0.8-0.2-1.2-0.9-1.2c-0.3,0-1,0.1-1,0.9c0,0.7,0.7,0.8,1.5,1.1c0.7,0.2,1.5,0.5,1.5,1.7
			c0,1.3-0.8,1.9-1.9,1.9c-2,0-2-1.5-2-2.1H84c0,0.7,0.2,1.4,1.1,1.4c0.3,0,1-0.1,1-1c0-0.8-0.7-1-1.5-1.2c-0.7-0.2-1.5-0.5-1.5-1.7
			c0-1.1,0.9-1.6,1.9-1.6c1.7,0,1.8,1.2,1.8,1.9H86z"/>
		<path class="st0" d="M88.2,36.1h0.9v1.7h1v0.7h-1v3.8c0,0.5,0.1,0.7,0.6,0.7c0.2,0,0.3,0,0.4,0v0.8c-0.1,0-0.4,0.1-0.8,0.1
			c-1,0-1.2-0.4-1.2-1.2v-4.1h-0.9v-0.7h0.9V36.1z"/>
		<path class="st0" d="M90.7,39.7c0-1.4,0.6-2,2-2c1.8,0,1.8,1.1,1.8,1.7v3.3c0,0.2,0,0.5,0.3,0.5c0.1,0,0.2,0,0.2-0.1v0.7
			c-0.1,0-0.3,0.1-0.5,0.1c-0.4,0-0.8,0-0.8-0.8h0c-0.3,0.5-0.9,0.9-1.4,0.9c-1.1,0-1.6-0.7-1.6-1.7c0-0.8,0.4-1.4,1.1-1.6l1.3-0.4
			c0.7-0.2,0.7-0.4,0.7-0.9c0-0.6-0.3-0.9-1-0.9c-1,0-1,1-1,1.2v0.1H90.7z M93.6,40.6C93.2,41,92.4,41,92,41.3
			c-0.3,0.2-0.5,0.4-0.5,0.9c0,0.6,0.2,1,0.8,1c0.6,0,1.2-0.5,1.2-1.1V40.6z"/>
		<path class="st0" d="M98.7,36.1h0.9v1.7h1v0.7h-1v3.8c0,0.5,0.1,0.7,0.6,0.7c0.2,0,0.3,0,0.4,0v0.8c-0.1,0-0.4,0.1-0.8,0.1
			c-1,0-1.2-0.4-1.2-1.2v-4.1h-0.9v-0.7h0.9V36.1z"/>
		<path class="st0" d="M102.1,41c0,0.9,0,2.3,1.1,2.3c0.9,0,1-0.9,1-1.4h0.9c0,0.6-0.4,2.1-2,2.1c-1.5,0-2.1-1-2.1-3.1
			c0-1.5,0.3-3.2,2.1-3.2c1.8,0,2,1.6,2,2.9V41H102.1z M104.3,40.2v-0.3c0-0.7-0.2-1.5-1-1.5c-1,0-1.1,1.2-1.1,1.6v0.2H104.3z"/>
		<path class="st0" d="M106.3,37.9h0.9v0.9h0c0.3-0.6,0.6-1,1.3-1c0.2,0,0.3,0,0.4,0.1v0.9c-0.1,0-0.2,0-0.5,0
			c-0.5,0-1.2,0.4-1.2,1.4v3.8h-0.9V37.9z"/>
		<path class="st0" d="M109.4,39.7c0-1.4,0.6-2,2-2c1.8,0,1.8,1.1,1.8,1.7v3.3c0,0.2,0,0.5,0.3,0.5c0.1,0,0.2,0,0.2-0.1v0.7
			c-0.1,0-0.3,0.1-0.5,0.1c-0.4,0-0.8,0-0.8-0.8h0c-0.3,0.5-0.9,0.9-1.4,0.9c-1.1,0-1.6-0.7-1.6-1.7c0-0.8,0.4-1.4,1.1-1.6l1.3-0.4
			c0.7-0.2,0.7-0.4,0.7-0.9c0-0.6-0.3-0.9-1-0.9c-1,0-1,1-1,1.2v0.1H109.4z M112.3,40.6c-0.3,0.4-1.2,0.4-1.6,0.7
			c-0.3,0.2-0.5,0.4-0.5,0.9c0,0.6,0.2,1,0.8,1c0.6,0,1.2-0.5,1.2-1.1V40.6z"/>
		<path class="st0" d="M114.6,37.9h0.9v0.7h0c0.1-0.4,0.6-0.9,1.3-0.9c1.4,0,1.9,1.3,1.9,3c0,1.4-0.4,3.3-1.9,3.3
			c-0.5,0-1-0.3-1.2-0.8h0v2.6h-0.9V37.9z M116.7,43.2c0.9,0,1.1-0.9,1.1-2.5c0-1.3-0.2-2.2-1.1-2.2c-1,0-1.2,1-1.2,2.3
			C115.5,42,115.7,43.2,116.7,43.2z"/>
		<path class="st0" d="M120.6,41c0,0.9,0,2.3,1.1,2.3c0.9,0,1-0.9,1-1.4h0.9c0,0.6-0.4,2.1-2,2.1c-1.5,0-2.1-1-2.1-3.1
			c0-1.5,0.3-3.2,2.1-3.2c1.8,0,2,1.6,2,2.9V41H120.6z M122.7,40.2v-0.3c0-0.7-0.2-1.5-1-1.5c-1,0-1.1,1.2-1.1,1.6v0.2H122.7z
			 M121.9,35.5h1.1l-1.2,1.6h-0.7L121.9,35.5z"/>
		<path class="st0" d="M128.7,43.8h-0.9v-0.7h0c-0.2,0.5-0.9,0.9-1.4,0.9c-1.6,0-1.6-1.2-1.6-1.9v-4.2h0.9V42c0,0.5,0,1.2,0.9,1.2
			c0.5,0,1.2-0.3,1.2-1.2v-4.1h0.9V43.8z"/>
		<path class="st0" d="M130.2,36.1h0.9v1.7h1v0.7h-1v3.8c0,0.5,0.1,0.7,0.6,0.7c0.2,0,0.3,0,0.4,0v0.8c-0.1,0-0.4,0.1-0.8,0.1
			c-1,0-1.2-0.4-1.2-1.2v-4.1h-0.9v-0.7h0.9V36.1z"/>
		<path class="st0" d="M132.8,35.9h0.9V37h-0.9V35.9z M132.8,37.9h0.9v6h-0.9V37.9z"/>
		<path class="st0" d="M137.9,39.7c0-0.6-0.2-1.2-0.9-1.2c-0.6,0-1.2,0.3-1.2,2.5c0,0.8,0,2.3,1.1,2.3c0.8,0,1-0.8,1-1.5h0.9
			c0,0.9-0.5,2.2-2,2.2c-1.5,0-2.1-1-2.1-3.1c0-1.5,0.3-3.2,2.1-3.2c1.6,0,1.9,1.3,1.9,2H137.9z"/>
		<path class="st0" d="M139.7,39.7c0-1.4,0.6-2,2-2c1.8,0,1.8,1.1,1.8,1.7v3.3c0,0.2,0,0.5,0.3,0.5c0.1,0,0.2,0,0.2-0.1v0.7
			c-0.1,0-0.3,0.1-0.5,0.1c-0.4,0-0.8,0-0.8-0.8h0c-0.3,0.5-0.9,0.9-1.4,0.9c-1.1,0-1.6-0.7-1.6-1.7c0-0.8,0.4-1.4,1.1-1.6l1.3-0.4
			c0.7-0.2,0.7-0.4,0.7-0.9c0-0.6-0.3-0.9-1-0.9c-1,0-1,1-1,1.2v0.1H139.7z M142.5,40.6c-0.3,0.4-1.2,0.4-1.6,0.7
			c-0.3,0.2-0.5,0.4-0.5,0.9c0,0.6,0.2,1,0.8,1c0.6,0,1.2-0.5,1.2-1.1V40.6z"/>
		<path class="st0" d="M145,42.7h1v1.2h-1V42.7z"/>
		<path class="st0" d="M148,37.5h0.3c0.5,0,0.7-0.4,0.7-0.8c0-0.4-0.2-0.8-0.6-0.8c-0.6,0-0.7,0.6-0.7,0.9h-0.6
			c0-0.8,0.4-1.3,1.2-1.3c1,0,1.2,0.7,1.2,1.2c0,0.5-0.2,0.9-0.7,1v0c0.5,0.1,0.9,0.4,0.9,1.1c0,0.8-0.4,1.4-1.3,1.4
			c-1.2,0-1.3-1.1-1.3-1.3v-0.1h0.6c0,0.4,0.2,0.9,0.7,0.9c0.3,0,0.7-0.2,0.7-0.9c0-0.5-0.3-0.9-0.8-0.9H148V37.5z"/>
	</g>
</g>
</svg>
