<!-- Generator: Adobe Illustrator 20.1.0, SVG Export Plug-In  -->
<svg version="1.1"
	 xmlns="http://www.w3.org/2000/svg" xmlns:xlink="http://www.w3.org/1999/xlink" xmlns:a="http://ns.adobe.com/AdobeSVGViewerExtensions/3.0/"
	 x="0px" y="0px" width="193.4px" height="128.6px" viewBox="0 0 193.4 128.6"
	 style="overflow:scroll;enable-background:new 0 0 193.4 128.6;" xml:space="preserve">
<style type="text/css">
	.st0{fill:#008345;}
	.st1{fill:#FFFFFF;}
</style>
<defs>
</defs>
<rect id="XMLID_1_" class="st0" width="193.4" height="128.6"/>
<g>
	<path class="st1" d="M40.2,64c0-0.3-0.1-0.5-0.3-0.7s-0.3-0.4-0.5-0.6c-0.2-0.2-0.4-0.3-0.7-0.4c-0.3-0.1-0.5-0.1-0.8-0.1
		c-0.5,0-1,0.1-1.3,0.3s-0.7,0.5-0.9,0.8c-0.2,0.3-0.4,0.7-0.5,1.2c-0.1,0.4-0.2,0.9-0.2,1.4c0,0.4,0.1,0.9,0.2,1.3
		c0.1,0.4,0.3,0.8,0.5,1.1c0.2,0.3,0.5,0.6,0.9,0.8c0.4,0.2,0.8,0.3,1.3,0.3c0.7,0,1.3-0.2,1.7-0.7s0.6-1,0.7-1.7h2.3
		c-0.1,0.7-0.2,1.3-0.5,1.8c-0.2,0.5-0.6,1-1,1.4s-0.9,0.7-1.4,0.9c-0.5,0.2-1.1,0.3-1.8,0.3c-0.8,0-1.6-0.1-2.2-0.4
		c-0.6-0.3-1.2-0.7-1.6-1.2s-0.8-1.1-1-1.8s-0.4-1.4-0.4-2.2c0-0.8,0.1-1.5,0.4-2.2c0.2-0.7,0.6-1.3,1-1.8c0.4-0.5,1-0.9,1.6-1.2
		c0.6-0.3,1.4-0.4,2.2-0.4c0.6,0,1.1,0.1,1.7,0.3c0.5,0.2,1,0.4,1.4,0.7c0.4,0.3,0.8,0.7,1,1.2c0.3,0.5,0.4,1,0.5,1.6H40.2z"/>
	<path class="st1" d="M43.7,67.2c0-0.6,0.1-1.2,0.3-1.7c0.2-0.5,0.5-0.9,0.8-1.3c0.3-0.4,0.8-0.6,1.2-0.8c0.5-0.2,1-0.3,1.6-0.3
		s1.2,0.1,1.6,0.3c0.5,0.2,0.9,0.5,1.3,0.8c0.3,0.4,0.6,0.8,0.8,1.3c0.2,0.5,0.3,1.1,0.3,1.7s-0.1,1.2-0.3,1.7
		c-0.2,0.5-0.5,0.9-0.8,1.3c-0.3,0.4-0.8,0.6-1.3,0.8c-0.5,0.2-1,0.3-1.6,0.3S46.5,71.2,46,71c-0.5-0.2-0.9-0.5-1.2-0.8
		c-0.3-0.4-0.6-0.8-0.8-1.3C43.8,68.4,43.7,67.9,43.7,67.2z M45.8,67.2c0,0.3,0,0.6,0.1,0.9c0.1,0.3,0.2,0.6,0.3,0.8
		s0.3,0.4,0.6,0.6c0.2,0.1,0.5,0.2,0.9,0.2c0.4,0,0.7-0.1,0.9-0.2s0.4-0.3,0.6-0.6c0.1-0.2,0.2-0.5,0.3-0.8c0.1-0.3,0.1-0.6,0.1-0.9
		s0-0.6-0.1-0.9s-0.2-0.6-0.3-0.8c-0.1-0.2-0.3-0.4-0.6-0.6c-0.2-0.1-0.5-0.2-0.9-0.2c-0.4,0-0.7,0.1-0.9,0.2
		c-0.2,0.1-0.4,0.3-0.6,0.6S46,66,45.9,66.3S45.8,66.9,45.8,67.2z"/>
	<path class="st1" d="M53.1,63.4h2v1h0c0.3-0.4,0.6-0.7,1-0.9s0.8-0.3,1.3-0.3c0.5,0,0.9,0.1,1.3,0.3c0.4,0.2,0.7,0.5,0.9,1
		c0.2-0.3,0.5-0.6,0.9-0.9c0.4-0.3,0.9-0.4,1.4-0.4c0.4,0,0.8,0,1.1,0.1c0.3,0.1,0.6,0.3,0.9,0.5c0.2,0.2,0.4,0.5,0.6,0.9
		s0.2,0.8,0.2,1.3v5.1h-2.1v-4.3c0-0.3,0-0.5,0-0.7c0-0.2-0.1-0.4-0.2-0.6c-0.1-0.2-0.2-0.3-0.4-0.4c-0.2-0.1-0.4-0.1-0.7-0.1
		s-0.5,0.1-0.7,0.2c-0.2,0.1-0.3,0.3-0.4,0.4c-0.1,0.2-0.2,0.4-0.2,0.6c0,0.2-0.1,0.5-0.1,0.7v4.3h-2.1v-4.3c0-0.2,0-0.4,0-0.7
		c0-0.2-0.1-0.4-0.1-0.6c-0.1-0.2-0.2-0.3-0.4-0.5c-0.2-0.1-0.4-0.2-0.8-0.2c-0.1,0-0.2,0-0.4,0.1c-0.2,0-0.3,0.1-0.5,0.3
		c-0.2,0.1-0.3,0.3-0.4,0.5c-0.1,0.2-0.2,0.5-0.2,0.9v4.5h-2.1V63.4z"/>
	<path class="st1" d="M66.2,67.2c0-0.6,0.1-1.2,0.3-1.7c0.2-0.5,0.5-0.9,0.8-1.3c0.3-0.4,0.8-0.6,1.2-0.8c0.5-0.2,1-0.3,1.6-0.3
		s1.2,0.1,1.6,0.3c0.5,0.2,0.9,0.5,1.3,0.8c0.3,0.4,0.6,0.8,0.8,1.3c0.2,0.5,0.3,1.1,0.3,1.7s-0.1,1.2-0.3,1.7
		c-0.2,0.5-0.5,0.9-0.8,1.3c-0.3,0.4-0.8,0.6-1.3,0.8c-0.5,0.2-1,0.3-1.6,0.3S69,71.2,68.6,71c-0.5-0.2-0.9-0.5-1.2-0.8
		c-0.3-0.4-0.6-0.8-0.8-1.3C66.3,68.4,66.2,67.9,66.2,67.2z M68.3,67.2c0,0.3,0,0.6,0.1,0.9c0.1,0.3,0.2,0.6,0.3,0.8
		s0.3,0.4,0.6,0.6c0.2,0.1,0.5,0.2,0.9,0.2c0.4,0,0.7-0.1,0.9-0.2s0.4-0.3,0.6-0.6c0.1-0.2,0.2-0.5,0.3-0.8c0.1-0.3,0.1-0.6,0.1-0.9
		s0-0.6-0.1-0.9s-0.2-0.6-0.3-0.8c-0.1-0.2-0.3-0.4-0.6-0.6c-0.2-0.1-0.5-0.2-0.9-0.2c-0.4,0-0.7,0.1-0.9,0.2
		c-0.2,0.1-0.4,0.3-0.6,0.6s-0.2,0.5-0.3,0.8S68.3,66.9,68.3,67.2z"/>
	<path class="st1" d="M82.3,63.4h1.5v1.4h-1.5v3.8c0,0.4,0.1,0.6,0.2,0.7c0.1,0.1,0.4,0.2,0.7,0.2c0.2,0,0.5,0,0.7-0.1v1.6
		c-0.2,0-0.4,0-0.6,0.1s-0.4,0-0.6,0c-0.3,0-0.6,0-0.9-0.1c-0.3,0-0.5-0.1-0.8-0.3s-0.4-0.3-0.5-0.6c-0.1-0.2-0.2-0.5-0.2-0.9v-4.5
		h-1.3v-1.4h1.3v-2.3h2.1V63.4z"/>
	<path class="st1" d="M84.9,63.4h2v1.4h0c0.1-0.2,0.2-0.5,0.4-0.7c0.2-0.2,0.4-0.4,0.6-0.5c0.2-0.1,0.5-0.3,0.7-0.3
		c0.3-0.1,0.5-0.1,0.8-0.1c0.2,0,0.3,0,0.5,0.1v2c-0.1,0-0.2,0-0.4-0.1s-0.3,0-0.4,0c-0.4,0-0.7,0.1-1,0.2c-0.3,0.1-0.5,0.3-0.6,0.5
		c-0.2,0.2-0.3,0.5-0.3,0.8s-0.1,0.6-0.1,1v3.5h-2.1V63.4z"/>
	<path class="st1" d="M90.6,65.8c0-0.5,0.2-0.9,0.4-1.2c0.2-0.3,0.5-0.6,0.8-0.8c0.3-0.2,0.7-0.3,1.1-0.4c0.4-0.1,0.8-0.1,1.3-0.1
		c0.4,0,0.8,0,1.2,0.1c0.4,0.1,0.8,0.2,1.1,0.3c0.3,0.2,0.6,0.4,0.8,0.7c0.2,0.3,0.3,0.7,0.3,1.1v4c0,0.3,0,0.7,0.1,1
		c0,0.3,0.1,0.6,0.2,0.7h-2.1c0-0.1-0.1-0.2-0.1-0.4c0-0.1,0-0.3-0.1-0.4c-0.3,0.3-0.7,0.6-1.2,0.7c-0.5,0.1-0.9,0.2-1.4,0.2
		c-0.4,0-0.7,0-1-0.1c-0.3-0.1-0.6-0.2-0.8-0.4c-0.2-0.2-0.4-0.4-0.6-0.7c-0.1-0.3-0.2-0.6-0.2-1c0-0.4,0.1-0.8,0.2-1.1
		s0.3-0.5,0.6-0.7s0.5-0.3,0.8-0.4s0.6-0.2,1-0.2c0.3,0,0.6-0.1,0.9-0.1c0.3,0,0.6-0.1,0.8-0.1c0.2-0.1,0.4-0.1,0.6-0.3
		c0.1-0.1,0.2-0.3,0.2-0.5c0-0.2,0-0.4-0.1-0.5s-0.2-0.2-0.3-0.3c-0.1-0.1-0.3-0.1-0.4-0.1c-0.2,0-0.3,0-0.5,0c-0.4,0-0.7,0.1-1,0.3
		c-0.2,0.2-0.4,0.5-0.4,0.9H90.6z M95.4,67.3c-0.1,0.1-0.2,0.1-0.3,0.2c-0.1,0-0.3,0.1-0.4,0.1c-0.2,0-0.3,0.1-0.5,0.1
		s-0.3,0-0.5,0.1c-0.2,0-0.3,0.1-0.5,0.1c-0.1,0-0.3,0.1-0.4,0.2c-0.1,0.1-0.2,0.2-0.3,0.3s-0.1,0.3-0.1,0.5c0,0.2,0,0.4,0.1,0.5
		s0.2,0.2,0.3,0.3c0.1,0.1,0.3,0.1,0.4,0.2c0.2,0,0.3,0,0.5,0c0.4,0,0.7-0.1,1-0.2c0.2-0.1,0.4-0.3,0.5-0.5c0.1-0.2,0.2-0.4,0.2-0.6
		c0-0.2,0-0.4,0-0.5V67.3z"/>
	<path class="st1" d="M101.8,63.4h1.5v1.4h-1.5v3.8c0,0.4,0.1,0.6,0.2,0.7c0.1,0.1,0.4,0.2,0.7,0.2c0.2,0,0.5,0,0.7-0.1v1.6
		c-0.2,0-0.4,0-0.6,0.1s-0.4,0-0.6,0c-0.3,0-0.6,0-0.9-0.1c-0.3,0-0.5-0.1-0.8-0.3s-0.4-0.3-0.5-0.6c-0.1-0.2-0.2-0.5-0.2-0.9v-4.5
		h-1.3v-1.4h1.3v-2.3h2.1V63.4z"/>
	<path class="st1" d="M104.3,65.8c0-0.5,0.2-0.9,0.4-1.2c0.2-0.3,0.5-0.6,0.8-0.8c0.3-0.2,0.7-0.3,1.1-0.4c0.4-0.1,0.8-0.1,1.3-0.1
		c0.4,0,0.8,0,1.2,0.1c0.4,0.1,0.8,0.2,1.1,0.3c0.3,0.2,0.6,0.4,0.8,0.7c0.2,0.3,0.3,0.7,0.3,1.1v4c0,0.3,0,0.7,0.1,1
		c0,0.3,0.1,0.6,0.2,0.7h-2.1c0-0.1-0.1-0.2-0.1-0.4c0-0.1,0-0.3-0.1-0.4c-0.3,0.3-0.7,0.6-1.2,0.7c-0.5,0.1-0.9,0.2-1.4,0.2
		c-0.4,0-0.7,0-1-0.1c-0.3-0.1-0.6-0.2-0.8-0.4c-0.2-0.2-0.4-0.4-0.6-0.7c-0.1-0.3-0.2-0.6-0.2-1c0-0.4,0.1-0.8,0.2-1.1
		s0.3-0.5,0.6-0.7s0.5-0.3,0.8-0.4s0.6-0.2,1-0.2c0.3,0,0.6-0.1,0.9-0.1c0.3,0,0.6-0.1,0.8-0.1c0.2-0.1,0.4-0.1,0.6-0.3
		c0.1-0.1,0.2-0.3,0.2-0.5c0-0.2,0-0.4-0.1-0.5s-0.2-0.2-0.3-0.3c-0.1-0.1-0.3-0.1-0.4-0.1c-0.2,0-0.3,0-0.5,0c-0.4,0-0.7,0.1-1,0.3
		c-0.2,0.2-0.4,0.5-0.4,0.9H104.3z M109.2,67.3c-0.1,0.1-0.2,0.1-0.3,0.2c-0.1,0-0.3,0.1-0.4,0.1c-0.2,0-0.3,0.1-0.5,0.1
		s-0.3,0-0.5,0.1c-0.2,0-0.3,0.1-0.5,0.1c-0.1,0-0.3,0.1-0.4,0.2c-0.1,0.1-0.2,0.2-0.3,0.3s-0.1,0.3-0.1,0.5c0,0.2,0,0.4,0.1,0.5
		s0.2,0.2,0.3,0.3c0.1,0.1,0.3,0.1,0.4,0.2c0.2,0,0.3,0,0.5,0c0.4,0,0.7-0.1,1-0.2c0.2-0.1,0.4-0.3,0.5-0.5c0.1-0.2,0.2-0.4,0.2-0.6
		c0-0.2,0-0.4,0-0.5V67.3z"/>
	<path class="st1" d="M113,63.4h2v1h0c0.3-0.4,0.6-0.7,1-0.9s0.8-0.3,1.3-0.3c0.5,0,0.9,0.1,1.3,0.3c0.4,0.2,0.7,0.5,0.9,1
		c0.2-0.3,0.5-0.6,0.9-0.9c0.4-0.3,0.9-0.4,1.4-0.4c0.4,0,0.8,0,1.1,0.1c0.3,0.1,0.6,0.3,0.9,0.5c0.2,0.2,0.4,0.5,0.6,0.9
		s0.2,0.8,0.2,1.3v5.1h-2.1v-4.3c0-0.3,0-0.5,0-0.7c0-0.2-0.1-0.4-0.2-0.6c-0.1-0.2-0.2-0.3-0.4-0.4c-0.2-0.1-0.4-0.1-0.7-0.1
		s-0.5,0.1-0.7,0.2c-0.2,0.1-0.3,0.3-0.4,0.4c-0.1,0.2-0.2,0.4-0.2,0.6c0,0.2-0.1,0.5-0.1,0.7v4.3h-2.1v-4.3c0-0.2,0-0.4,0-0.7
		c0-0.2-0.1-0.4-0.1-0.6c-0.1-0.2-0.2-0.3-0.4-0.5c-0.2-0.1-0.4-0.2-0.8-0.2c-0.1,0-0.2,0-0.4,0.1c-0.2,0-0.3,0.1-0.5,0.3
		c-0.2,0.1-0.3,0.3-0.4,0.5c-0.1,0.2-0.2,0.5-0.2,0.9v4.5H113V63.4z"/>
	<path class="st1" d="M128.5,62.2h-2.1v-1.7h2.1V62.2z M126.4,63.4h2.1v7.7h-2.1V63.4z"/>
	<path class="st1" d="M131.9,67.7c0,0.7,0.2,1.2,0.5,1.5c0.3,0.3,0.8,0.5,1.4,0.5c0.4,0,0.8-0.1,1.1-0.3s0.5-0.4,0.6-0.7h1.9
		c-0.3,0.9-0.8,1.6-1.4,2c-0.6,0.4-1.4,0.6-2.2,0.6c-0.6,0-1.1-0.1-1.6-0.3c-0.5-0.2-0.9-0.5-1.2-0.8c-0.3-0.4-0.6-0.8-0.8-1.3
		c-0.2-0.5-0.3-1-0.3-1.6c0-0.6,0.1-1.1,0.3-1.6c0.2-0.5,0.5-0.9,0.8-1.3c0.3-0.4,0.8-0.6,1.2-0.9c0.5-0.2,1-0.3,1.6-0.3
		c0.7,0,1.2,0.1,1.7,0.4c0.5,0.3,0.9,0.6,1.2,1c0.3,0.4,0.5,0.9,0.7,1.5s0.2,1.1,0.1,1.7H131.9z M135.4,66.4
		c-0.1-0.5-0.3-0.9-0.5-1.2c-0.3-0.3-0.6-0.4-1.2-0.4c-0.3,0-0.6,0.1-0.8,0.2c-0.2,0.1-0.4,0.3-0.5,0.4c-0.1,0.2-0.2,0.3-0.3,0.5
		c-0.1,0.2-0.1,0.4-0.1,0.5H135.4z"/>
	<path class="st1" d="M138.7,63.4h2v1.1h0c0.3-0.4,0.6-0.8,1-1c0.4-0.2,0.9-0.3,1.3-0.3c0.6,0,1,0.1,1.4,0.2
		c0.4,0.2,0.6,0.4,0.9,0.6c0.2,0.3,0.4,0.6,0.4,1c0.1,0.4,0.1,0.8,0.1,1.3v4.7h-2.1v-4.3c0-0.6-0.1-1.1-0.3-1.4s-0.6-0.5-1-0.5
		c-0.6,0-1,0.2-1.2,0.5c-0.3,0.3-0.4,0.9-0.4,1.7v4h-2.1V63.4z"/>
	<path class="st1" d="M150.2,63.4h1.5v1.4h-1.5v3.8c0,0.4,0.1,0.6,0.2,0.7c0.1,0.1,0.4,0.2,0.7,0.2c0.2,0,0.5,0,0.7-0.1v1.6
		c-0.2,0-0.4,0-0.6,0.1s-0.4,0-0.6,0c-0.3,0-0.6,0-0.9-0.1c-0.3,0-0.5-0.1-0.8-0.3s-0.4-0.3-0.5-0.6c-0.1-0.2-0.2-0.5-0.2-0.9v-4.5
		h-1.3v-1.4h1.3v-2.3h2.1V63.4z"/>
	<path class="st1" d="M152.5,67.2c0-0.6,0.1-1.2,0.3-1.7c0.2-0.5,0.5-0.9,0.8-1.3c0.3-0.4,0.8-0.6,1.2-0.8c0.5-0.2,1-0.3,1.6-0.3
		s1.2,0.1,1.6,0.3c0.5,0.2,0.9,0.5,1.3,0.8c0.3,0.4,0.6,0.8,0.8,1.3c0.2,0.5,0.3,1.1,0.3,1.7s-0.1,1.2-0.3,1.7
		c-0.2,0.5-0.5,0.9-0.8,1.3c-0.3,0.4-0.8,0.6-1.3,0.8c-0.5,0.2-1,0.3-1.6,0.3s-1.1-0.1-1.6-0.3c-0.5-0.2-0.9-0.5-1.2-0.8
		c-0.3-0.4-0.6-0.8-0.8-1.3C152.6,68.4,152.5,67.9,152.5,67.2z M154.6,67.2c0,0.3,0,0.6,0.1,0.9c0.1,0.3,0.2,0.6,0.3,0.8
		s0.3,0.4,0.6,0.6c0.2,0.1,0.5,0.2,0.9,0.2c0.4,0,0.7-0.1,0.9-0.2s0.4-0.3,0.6-0.6c0.1-0.2,0.2-0.5,0.3-0.8c0.1-0.3,0.1-0.6,0.1-0.9
		s0-0.6-0.1-0.9s-0.2-0.6-0.3-0.8c-0.1-0.2-0.3-0.4-0.6-0.6c-0.2-0.1-0.5-0.2-0.9-0.2c-0.4,0-0.7,0.1-0.9,0.2
		c-0.2,0.1-0.4,0.3-0.6,0.6s-0.2,0.5-0.3,0.8S154.6,66.9,154.6,67.2z"/>
	<path class="st1" d="M29.8,81.2h2v1h0c0.3-0.4,0.6-0.7,1-0.9c0.4-0.2,0.8-0.3,1.3-0.3c0.6,0,1.1,0.1,1.6,0.3
		c0.4,0.2,0.8,0.5,1.1,0.9c0.3,0.4,0.5,0.8,0.6,1.3c0.1,0.5,0.2,1,0.2,1.6c0,0.5-0.1,1-0.2,1.5c-0.1,0.5-0.3,0.9-0.6,1.3
		c-0.3,0.4-0.6,0.7-1.1,0.9s-0.9,0.3-1.5,0.3c-0.5,0-0.9-0.1-1.3-0.3c-0.4-0.2-0.7-0.5-1-0.9h0v3.7h-2.1V81.2z M33.7,87.5
		c0.3,0,0.6-0.1,0.9-0.2c0.2-0.1,0.4-0.3,0.6-0.5s0.2-0.5,0.3-0.8c0.1-0.3,0.1-0.6,0.1-0.9c0-0.3,0-0.6-0.1-0.9s-0.2-0.6-0.3-0.8
		s-0.3-0.4-0.6-0.6c-0.2-0.1-0.5-0.2-0.9-0.2c-0.3,0-0.6,0.1-0.9,0.2c-0.2,0.1-0.4,0.3-0.6,0.6c-0.1,0.2-0.2,0.5-0.3,0.8
		c-0.1,0.3-0.1,0.6-0.1,0.9c0,0.3,0,0.6,0.1,0.9c0.1,0.3,0.2,0.5,0.3,0.8s0.3,0.4,0.6,0.5S33.3,87.5,33.7,87.5z"/>
	<path class="st1" d="M38.8,81.2h2v1.4h0c0.1-0.2,0.2-0.5,0.4-0.7c0.2-0.2,0.4-0.4,0.6-0.5c0.2-0.1,0.5-0.3,0.7-0.3
		c0.3-0.1,0.5-0.1,0.8-0.1c0.2,0,0.3,0,0.5,0.1v2c-0.1,0-0.2,0-0.4-0.1s-0.3,0-0.4,0c-0.4,0-0.7,0.1-1,0.2c-0.3,0.1-0.5,0.3-0.6,0.5
		c-0.2,0.2-0.3,0.5-0.3,0.8s-0.1,0.6-0.1,1v3.5h-2.1V81.2z"/>
	<path class="st1" d="M46.1,85.6c0,0.7,0.2,1.2,0.5,1.5c0.3,0.3,0.8,0.5,1.4,0.5c0.4,0,0.8-0.1,1.1-0.3s0.5-0.4,0.6-0.7h1.9
		c-0.3,0.9-0.8,1.6-1.4,2c-0.6,0.4-1.4,0.6-2.2,0.6c-0.6,0-1.1-0.1-1.6-0.3c-0.5-0.2-0.9-0.5-1.2-0.8c-0.3-0.4-0.6-0.8-0.8-1.3
		c-0.2-0.5-0.3-1-0.3-1.6c0-0.6,0.1-1.1,0.3-1.6c0.2-0.5,0.5-0.9,0.8-1.3s0.8-0.6,1.2-0.9c0.5-0.2,1-0.3,1.6-0.3
		c0.7,0,1.2,0.1,1.7,0.4c0.5,0.3,0.9,0.6,1.2,1c0.3,0.4,0.5,0.9,0.7,1.5s0.2,1.1,0.1,1.7H46.1z M49.5,84.2c-0.1-0.5-0.3-0.9-0.5-1.2
		c-0.3-0.3-0.6-0.4-1.2-0.4c-0.3,0-0.6,0.1-0.8,0.2c-0.2,0.1-0.4,0.3-0.5,0.4c-0.1,0.2-0.2,0.3-0.3,0.5c-0.1,0.2-0.1,0.4-0.1,0.5
		H49.5z"/>
	<path class="st1" d="M57.1,88.9h-2.3l-2.6-7.7h2.2l1.6,5.2h0l1.6-5.2h2.1L57.1,88.9z"/>
	<path class="st1" d="M62.3,85.6c0,0.7,0.2,1.2,0.5,1.5c0.3,0.3,0.8,0.5,1.4,0.5c0.4,0,0.8-0.1,1.1-0.3s0.5-0.4,0.6-0.7h1.9
		c-0.3,0.9-0.8,1.6-1.4,2c-0.6,0.4-1.4,0.6-2.2,0.6c-0.6,0-1.1-0.1-1.6-0.3c-0.5-0.2-0.9-0.5-1.2-0.8c-0.3-0.4-0.6-0.8-0.8-1.3
		c-0.2-0.5-0.3-1-0.3-1.6c0-0.6,0.1-1.1,0.3-1.6c0.2-0.5,0.5-0.9,0.8-1.3s0.8-0.6,1.2-0.9c0.5-0.2,1-0.3,1.6-0.3
		c0.7,0,1.2,0.1,1.7,0.4c0.5,0.3,0.9,0.6,1.2,1c0.3,0.4,0.5,0.9,0.7,1.5s0.2,1.1,0.1,1.7H62.3z M65.8,84.2c-0.1-0.5-0.3-0.9-0.5-1.2
		c-0.3-0.3-0.6-0.4-1.2-0.4c-0.3,0-0.6,0.1-0.8,0.2c-0.2,0.1-0.4,0.3-0.5,0.4c-0.1,0.2-0.2,0.3-0.3,0.5c-0.1,0.2-0.1,0.4-0.1,0.5
		H65.8z"/>
	<path class="st1" d="M69.1,81.2h2v1.1h0c0.3-0.4,0.6-0.8,1-1c0.4-0.2,0.9-0.3,1.3-0.3c0.6,0,1,0.1,1.4,0.2c0.4,0.2,0.6,0.4,0.9,0.6
		c0.2,0.3,0.4,0.6,0.4,1c0.1,0.4,0.1,0.8,0.1,1.3v4.7h-2.1v-4.3c0-0.6-0.1-1.1-0.3-1.4s-0.6-0.5-1-0.5c-0.6,0-1,0.2-1.2,0.5
		c-0.3,0.3-0.4,0.9-0.4,1.7v4h-2.1V81.2z"/>
	<path class="st1" d="M80.6,81.2h1.5v1.4h-1.5v3.8c0,0.4,0.1,0.6,0.2,0.7c0.1,0.1,0.4,0.2,0.7,0.2c0.2,0,0.5,0,0.7-0.1v1.6
		c-0.2,0-0.4,0-0.6,0.1s-0.4,0-0.6,0c-0.3,0-0.6,0-0.9-0.1c-0.3,0-0.5-0.1-0.8-0.3s-0.4-0.3-0.5-0.6c-0.1-0.2-0.2-0.5-0.2-0.9v-4.5
		h-1.3v-1.4h1.3v-2.3h2.1V81.2z"/>
	<path class="st1" d="M85.3,80h-2.1v-1.7h2.1V80z M83.2,81.2h2.1v7.7h-2.1V81.2z"/>
	<path class="st1" d="M91.2,88.9h-2.3l-2.6-7.7h2.2l1.6,5.2h0l1.6-5.2h2.1L91.2,88.9z"/>
	<path class="st1" d="M94.4,85.1c0-0.6,0.1-1.2,0.3-1.7c0.2-0.5,0.5-0.9,0.8-1.3s0.8-0.6,1.2-0.8c0.5-0.2,1-0.3,1.6-0.3
		s1.2,0.1,1.6,0.3c0.5,0.2,0.9,0.5,1.3,0.8s0.6,0.8,0.8,1.3c0.2,0.5,0.3,1.1,0.3,1.7s-0.1,1.2-0.3,1.7c-0.2,0.5-0.5,0.9-0.8,1.3
		c-0.3,0.4-0.8,0.6-1.3,0.8c-0.5,0.2-1,0.3-1.6,0.3s-1.1-0.1-1.6-0.3c-0.5-0.2-0.9-0.5-1.2-0.8c-0.3-0.4-0.6-0.8-0.8-1.3
		C94.5,86.2,94.4,85.7,94.4,85.1z M96.6,85.1c0,0.3,0,0.6,0.1,0.9c0.1,0.3,0.2,0.6,0.3,0.8s0.3,0.4,0.6,0.6c0.2,0.1,0.5,0.2,0.9,0.2
		c0.4,0,0.7-0.1,0.9-0.2s0.4-0.3,0.6-0.6c0.1-0.2,0.2-0.5,0.3-0.8c0.1-0.3,0.1-0.6,0.1-0.9s0-0.6-0.1-0.9s-0.2-0.6-0.3-0.8
		c-0.1-0.2-0.3-0.4-0.6-0.6c-0.2-0.1-0.5-0.2-0.9-0.2c-0.4,0-0.7,0.1-0.9,0.2c-0.2,0.1-0.4,0.3-0.6,0.6s-0.2,0.5-0.3,0.8
		S96.6,84.7,96.6,85.1z"/>
	<path class="st1" d="M108.5,82.6v1.2h0c0.2-0.4,0.5-0.8,0.9-1c0.4-0.2,0.9-0.4,1.4-0.4c0.5,0,0.9,0.1,1.2,0.3
		c0.4,0.2,0.6,0.4,0.9,0.7c0.2,0.3,0.4,0.7,0.5,1.1c0.1,0.4,0.2,0.8,0.2,1.3s-0.1,0.9-0.2,1.3c-0.1,0.4-0.3,0.8-0.5,1.1
		c-0.2,0.3-0.5,0.5-0.9,0.7c-0.4,0.2-0.8,0.3-1.2,0.3c-0.2,0-0.5,0-0.7-0.1s-0.4-0.1-0.6-0.3s-0.4-0.3-0.5-0.4
		c-0.2-0.2-0.3-0.4-0.3-0.6h0v3.5h-0.8v-8.6H108.5z M112.7,84.8c-0.1-0.3-0.2-0.6-0.4-0.9c-0.2-0.3-0.4-0.5-0.6-0.6
		c-0.3-0.2-0.6-0.2-0.9-0.2c-0.4,0-0.8,0.1-1.1,0.2s-0.5,0.3-0.7,0.6s-0.3,0.5-0.4,0.8c-0.1,0.3-0.1,0.7-0.1,1c0,0.3,0,0.6,0.1,1
		c0.1,0.3,0.2,0.6,0.4,0.9s0.4,0.5,0.7,0.6s0.6,0.2,1,0.2c0.4,0,0.7-0.1,0.9-0.2c0.3-0.2,0.5-0.4,0.6-0.6c0.2-0.3,0.3-0.5,0.4-0.9
		c0.1-0.3,0.1-0.6,0.1-1C112.8,85.4,112.8,85.1,112.7,84.8z"/>
	<path class="st1" d="M115.2,83.6c0.1-0.3,0.3-0.5,0.5-0.7s0.5-0.3,0.8-0.4c0.3-0.1,0.6-0.1,1-0.1c0.3,0,0.6,0,0.8,0.1
		s0.5,0.2,0.7,0.3c0.2,0.1,0.4,0.3,0.5,0.6c0.1,0.3,0.2,0.6,0.2,1v3.3c0,0.3,0.1,0.5,0.4,0.5c0.1,0,0.2,0,0.2,0v0.6
		c-0.1,0-0.2,0-0.2,0c-0.1,0-0.2,0-0.3,0c-0.2,0-0.4,0-0.5-0.1s-0.2-0.1-0.3-0.2c-0.1-0.1-0.1-0.2-0.1-0.3c0-0.1,0-0.3,0-0.4h0
		c-0.1,0.2-0.3,0.4-0.4,0.5c-0.1,0.2-0.3,0.3-0.5,0.4c-0.2,0.1-0.4,0.2-0.6,0.2s-0.5,0.1-0.8,0.1c-0.3,0-0.6,0-0.8-0.1
		c-0.3-0.1-0.5-0.2-0.7-0.3c-0.2-0.2-0.3-0.3-0.4-0.6s-0.2-0.5-0.2-0.8c0-0.4,0.1-0.8,0.3-1s0.5-0.4,0.8-0.6
		c0.3-0.1,0.7-0.2,1.1-0.3c0.4-0.1,0.8-0.1,1.2-0.2c0.2,0,0.3,0,0.4-0.1c0.1,0,0.2-0.1,0.3-0.1c0.1-0.1,0.1-0.1,0.2-0.2
		c0-0.1,0.1-0.2,0.1-0.4c0-0.3,0-0.5-0.1-0.6c-0.1-0.2-0.2-0.3-0.4-0.4c-0.1-0.1-0.3-0.2-0.5-0.2c-0.2,0-0.4-0.1-0.6-0.1
		c-0.5,0-0.9,0.1-1.2,0.3c-0.3,0.2-0.5,0.6-0.5,1.1h-0.8C115,84.2,115,83.9,115.2,83.6z M119,85.5c0,0.1-0.1,0.2-0.3,0.2
		c-0.1,0-0.3,0.1-0.4,0.1c-0.3,0.1-0.7,0.1-1,0.2c-0.3,0-0.7,0.1-0.9,0.2s-0.5,0.2-0.7,0.4c-0.2,0.2-0.3,0.4-0.3,0.7
		c0,0.2,0,0.4,0.1,0.5c0.1,0.1,0.2,0.3,0.3,0.4c0.1,0.1,0.3,0.2,0.4,0.2c0.2,0.1,0.3,0.1,0.5,0.1c0.3,0,0.6,0,0.8-0.1
		c0.3-0.1,0.5-0.2,0.7-0.4s0.4-0.4,0.5-0.6c0.1-0.2,0.2-0.5,0.2-0.8L119,85.5L119,85.5z"/>
	<path class="st1" d="M122.3,82.6v1.5h0c0.2-0.5,0.5-0.9,0.9-1.2c0.4-0.3,0.9-0.4,1.5-0.4v0.8c-0.3,0-0.7,0-0.9,0.1
		s-0.5,0.3-0.7,0.5c-0.2,0.2-0.4,0.4-0.5,0.7c-0.1,0.3-0.2,0.6-0.2,0.9v3.3h-0.8v-6.3H122.3z"/>
	<path class="st1" d="M125.8,83.6c0.1-0.3,0.3-0.5,0.5-0.7s0.5-0.3,0.8-0.4c0.3-0.1,0.6-0.1,1-0.1c0.3,0,0.6,0,0.8,0.1
		s0.5,0.2,0.7,0.3c0.2,0.1,0.4,0.3,0.5,0.6c0.1,0.3,0.2,0.6,0.2,1v3.3c0,0.3,0.1,0.5,0.4,0.5c0.1,0,0.2,0,0.2,0v0.6
		c-0.1,0-0.2,0-0.2,0c-0.1,0-0.2,0-0.3,0c-0.2,0-0.4,0-0.5-0.1s-0.2-0.1-0.3-0.2c-0.1-0.1-0.1-0.2-0.1-0.3c0-0.1,0-0.3,0-0.4h0
		c-0.1,0.2-0.3,0.4-0.4,0.5c-0.1,0.2-0.3,0.3-0.5,0.4c-0.2,0.1-0.4,0.2-0.6,0.2c-0.2,0.1-0.5,0.1-0.8,0.1c-0.3,0-0.6,0-0.8-0.1
		c-0.3-0.1-0.5-0.2-0.7-0.3c-0.2-0.2-0.3-0.3-0.4-0.6s-0.2-0.5-0.2-0.8c0-0.4,0.1-0.8,0.3-1s0.5-0.4,0.8-0.6
		c0.3-0.1,0.7-0.2,1.1-0.3c0.4-0.1,0.8-0.1,1.2-0.2c0.2,0,0.3,0,0.4-0.1c0.1,0,0.2-0.1,0.3-0.1c0.1-0.1,0.1-0.1,0.2-0.2
		c0-0.1,0.1-0.2,0.1-0.4c0-0.3,0-0.5-0.1-0.6c-0.1-0.2-0.2-0.3-0.4-0.4c-0.1-0.1-0.3-0.2-0.5-0.2c-0.2,0-0.4-0.1-0.6-0.1
		c-0.5,0-0.9,0.1-1.2,0.3c-0.3,0.2-0.5,0.6-0.5,1.1h-0.8C125.6,84.2,125.7,83.9,125.8,83.6z M129.6,85.5c0,0.1-0.1,0.2-0.3,0.2
		c-0.1,0-0.3,0.1-0.4,0.1c-0.3,0.1-0.7,0.1-1,0.2c-0.3,0-0.7,0.1-0.9,0.2s-0.5,0.2-0.7,0.4c-0.2,0.2-0.3,0.4-0.3,0.7
		c0,0.2,0,0.4,0.1,0.5c0.1,0.1,0.2,0.3,0.3,0.4c0.1,0.1,0.3,0.2,0.4,0.2c0.2,0.1,0.3,0.1,0.5,0.1c0.3,0,0.6,0,0.8-0.1
		c0.3-0.1,0.5-0.2,0.7-0.4s0.4-0.4,0.5-0.6c0.1-0.2,0.2-0.5,0.2-0.8L129.6,85.5L129.6,85.5z"/>
	<path class="st1" d="M136.4,86.8c0.1,0.3,0.2,0.6,0.4,0.8c0.2,0.2,0.4,0.4,0.6,0.6c0.3,0.2,0.6,0.2,0.9,0.2c0.6,0,1-0.1,1.3-0.4
		c0.3-0.3,0.5-0.7,0.7-1.2h0.8c-0.2,0.7-0.5,1.3-0.9,1.7c-0.4,0.4-1,0.6-1.8,0.6c-0.5,0-0.9-0.1-1.3-0.3s-0.7-0.4-0.9-0.7
		s-0.4-0.7-0.5-1.1c-0.1-0.4-0.2-0.8-0.2-1.3c0-0.4,0.1-0.8,0.2-1.2c0.1-0.4,0.3-0.8,0.5-1.1s0.5-0.6,0.9-0.8
		c0.4-0.2,0.8-0.3,1.3-0.3c0.5,0,0.9,0.1,1.3,0.3s0.6,0.5,0.9,0.8c0.2,0.3,0.4,0.7,0.5,1.1c0.1,0.4,0.1,0.9,0.1,1.3h-4.8
		C136.2,86.2,136.3,86.5,136.4,86.8z M140.2,84.5c-0.1-0.3-0.2-0.5-0.4-0.7c-0.2-0.2-0.4-0.4-0.6-0.5c-0.2-0.1-0.5-0.2-0.8-0.2
		c-0.3,0-0.6,0.1-0.8,0.2c-0.2,0.1-0.4,0.3-0.6,0.5c-0.2,0.2-0.3,0.4-0.4,0.7c-0.1,0.3-0.2,0.5-0.2,0.8h4.1
		C140.3,85,140.2,84.7,140.2,84.5z"/>
	<path class="st1" d="M142.5,82.6l2,5.5h0l1.9-5.5h0.8l-2.3,6.3h-0.8l-2.4-6.3H142.5z"/>
	<path class="st1" d="M149,80.2v1.2h-0.8v-1.2H149z M149,82.6v6.3h-0.8v-6.3H149z"/>
	<path class="st1" d="M153.2,82.6v0.6h-1.3v4.2c0,0.3,0,0.4,0.1,0.6c0.1,0.1,0.2,0.2,0.5,0.2c0.2,0,0.4,0,0.7,0v0.6
		c-0.1,0-0.2,0-0.3,0c-0.1,0-0.2,0-0.3,0c-0.5,0-0.9-0.1-1.1-0.3c-0.2-0.2-0.3-0.6-0.3-1.1v-4.3h-1.1v-0.6h1.1v-1.9h0.8v1.9H153.2z"
		/>
	<path class="st1" d="M154.7,83.6c0.1-0.3,0.3-0.5,0.5-0.7s0.5-0.3,0.8-0.4c0.3-0.1,0.6-0.1,1-0.1c0.3,0,0.6,0,0.8,0.1
		s0.5,0.2,0.7,0.3c0.2,0.1,0.4,0.3,0.5,0.6c0.1,0.3,0.2,0.6,0.2,1v3.3c0,0.3,0.1,0.5,0.4,0.5c0.1,0,0.2,0,0.2,0v0.6
		c-0.1,0-0.2,0-0.2,0c-0.1,0-0.2,0-0.3,0c-0.2,0-0.4,0-0.5-0.1s-0.2-0.1-0.3-0.2c-0.1-0.1-0.1-0.2-0.1-0.3c0-0.1,0-0.3,0-0.4h0
		c-0.1,0.2-0.3,0.4-0.4,0.5c-0.1,0.2-0.3,0.3-0.5,0.4c-0.2,0.1-0.4,0.2-0.6,0.2s-0.5,0.1-0.8,0.1c-0.3,0-0.6,0-0.8-0.1
		c-0.3-0.1-0.5-0.2-0.7-0.3c-0.2-0.2-0.3-0.3-0.4-0.6s-0.2-0.5-0.2-0.8c0-0.4,0.1-0.8,0.3-1s0.5-0.4,0.8-0.6
		c0.3-0.1,0.7-0.2,1.1-0.3c0.4-0.1,0.8-0.1,1.2-0.2c0.2,0,0.3,0,0.4-0.1c0.1,0,0.2-0.1,0.3-0.1c0.1-0.1,0.1-0.1,0.2-0.2
		c0-0.1,0.1-0.2,0.1-0.4c0-0.3,0-0.5-0.1-0.6c-0.1-0.2-0.2-0.3-0.4-0.4c-0.1-0.1-0.3-0.2-0.5-0.2c-0.2,0-0.4-0.1-0.6-0.1
		c-0.5,0-0.9,0.1-1.2,0.3c-0.3,0.2-0.5,0.6-0.5,1.1h-0.8C154.5,84.2,154.6,83.9,154.7,83.6z M158.5,85.5c0,0.1-0.1,0.2-0.3,0.2
		c-0.1,0-0.3,0.1-0.4,0.1c-0.3,0.1-0.7,0.1-1,0.2c-0.3,0-0.7,0.1-0.9,0.2s-0.5,0.2-0.7,0.4c-0.2,0.2-0.3,0.4-0.3,0.7
		c0,0.2,0,0.4,0.1,0.5c0.1,0.1,0.2,0.3,0.3,0.4c0.1,0.1,0.3,0.2,0.4,0.2c0.2,0.1,0.3,0.1,0.5,0.1c0.3,0,0.6,0,0.8-0.1
		c0.3-0.1,0.5-0.2,0.7-0.4s0.4-0.4,0.5-0.6c0.1-0.2,0.2-0.5,0.2-0.8L158.5,85.5L158.5,85.5z"/>
	<path class="st1" d="M161.8,82.6v1.5h0c0.2-0.5,0.5-0.9,0.9-1.2c0.4-0.3,0.9-0.4,1.5-0.4v0.8c-0.3,0-0.7,0-0.9,0.1
		s-0.5,0.3-0.7,0.5c-0.2,0.2-0.4,0.4-0.5,0.7c-0.1,0.3-0.2,0.6-0.2,0.9v3.3h-0.8v-6.3H161.8z"/>
	<path class="st1" d="M36.1,101.4c0.1,0.3,0.2,0.6,0.4,0.8c0.2,0.2,0.4,0.4,0.6,0.6c0.3,0.2,0.6,0.2,0.9,0.2c0.6,0,1-0.1,1.3-0.4
		c0.3-0.3,0.5-0.7,0.7-1.2h0.8c-0.2,0.7-0.5,1.3-0.9,1.7c-0.4,0.4-1,0.6-1.8,0.6c-0.5,0-0.9-0.1-1.3-0.3s-0.7-0.4-0.9-0.7
		s-0.4-0.7-0.5-1.1c-0.1-0.4-0.2-0.8-0.2-1.3c0-0.4,0.1-0.8,0.2-1.2c0.1-0.4,0.3-0.8,0.5-1.1s0.5-0.6,0.9-0.8
		c0.4-0.2,0.8-0.3,1.3-0.3c0.5,0,0.9,0.1,1.3,0.3s0.6,0.5,0.9,0.8c0.2,0.3,0.4,0.7,0.5,1.1c0.1,0.4,0.1,0.9,0.1,1.3H36
		C36,100.8,36.1,101.1,36.1,101.4z M39.9,99c-0.1-0.3-0.2-0.5-0.4-0.7c-0.2-0.2-0.4-0.4-0.6-0.5c-0.2-0.1-0.5-0.2-0.8-0.2
		c-0.3,0-0.6,0.1-0.8,0.2c-0.2,0.1-0.4,0.3-0.6,0.5c-0.2,0.2-0.3,0.4-0.4,0.7c-0.1,0.3-0.2,0.5-0.2,0.8h4.1
		C40.1,99.6,40,99.3,39.9,99z"/>
	<path class="st1" d="M45.7,98.4c-0.1-0.2-0.2-0.3-0.4-0.4c-0.1-0.1-0.3-0.2-0.5-0.2s-0.4-0.1-0.6-0.1c-0.2,0-0.3,0-0.5,0.1
		s-0.3,0.1-0.5,0.2s-0.3,0.2-0.4,0.3c-0.1,0.1-0.1,0.3-0.1,0.5c0,0.2,0,0.3,0.1,0.4c0.1,0.1,0.2,0.2,0.3,0.3
		c0.1,0.1,0.3,0.1,0.4,0.2c0.2,0.1,0.3,0.1,0.4,0.1l1,0.2c0.2,0,0.4,0.1,0.6,0.2s0.4,0.2,0.6,0.3s0.3,0.3,0.4,0.5
		c0.1,0.2,0.2,0.4,0.2,0.7c0,0.3-0.1,0.6-0.2,0.9c-0.2,0.2-0.3,0.4-0.6,0.6c-0.2,0.2-0.5,0.3-0.8,0.3c-0.3,0.1-0.6,0.1-0.9,0.1
		c-0.7,0-1.3-0.2-1.8-0.5c-0.5-0.3-0.7-0.9-0.8-1.7h0.8c0,0.5,0.2,0.9,0.6,1.2c0.3,0.3,0.8,0.4,1.3,0.4c0.2,0,0.4,0,0.6-0.1
		c0.2,0,0.4-0.1,0.6-0.2c0.2-0.1,0.3-0.2,0.4-0.4c0.1-0.2,0.2-0.3,0.2-0.6c0-0.2,0-0.3-0.1-0.5c-0.1-0.1-0.2-0.2-0.3-0.3
		s-0.3-0.2-0.4-0.2s-0.3-0.1-0.5-0.1l-1-0.2c-0.3-0.1-0.5-0.1-0.7-0.2s-0.4-0.2-0.6-0.3c-0.2-0.1-0.3-0.3-0.4-0.5
		C42,99.3,42,99,42,98.8c0-0.3,0.1-0.6,0.2-0.8s0.3-0.4,0.6-0.5c0.2-0.1,0.5-0.2,0.8-0.3c0.3-0.1,0.6-0.1,0.8-0.1
		c0.3,0,0.6,0,0.9,0.1c0.3,0.1,0.5,0.2,0.7,0.4c0.2,0.2,0.4,0.4,0.5,0.6c0.1,0.3,0.2,0.5,0.2,0.9h-0.8
		C45.9,98.8,45.8,98.6,45.7,98.4z"/>
	<path class="st1" d="M50.7,97.2v0.6h-1.3v4.2c0,0.3,0,0.4,0.1,0.6c0.1,0.1,0.2,0.2,0.5,0.2c0.2,0,0.4,0,0.7,0v0.6
		c-0.1,0-0.2,0-0.3,0c-0.1,0-0.2,0-0.3,0c-0.5,0-0.9-0.1-1.1-0.3c-0.2-0.2-0.3-0.6-0.3-1.1v-4.3h-1.1v-0.6h1.1v-1.9h0.8v1.9H50.7z"
		/>
	<path class="st1" d="M52.7,97.2v1.5h0c0.2-0.5,0.5-0.9,0.9-1.2c0.4-0.3,0.9-0.4,1.5-0.4v0.8c-0.3,0-0.7,0-0.9,0.1s-0.5,0.3-0.7,0.5
		c-0.2,0.2-0.4,0.4-0.5,0.7c-0.1,0.3-0.2,0.6-0.2,0.9v3.3H52v-6.3H52.7z"/>
	<path class="st1" d="M56.7,101.4c0.1,0.3,0.2,0.6,0.4,0.8c0.2,0.2,0.4,0.4,0.6,0.6c0.3,0.2,0.6,0.2,0.9,0.2c0.6,0,1-0.1,1.3-0.4
		c0.3-0.3,0.5-0.7,0.7-1.2h0.8c-0.2,0.7-0.5,1.3-0.9,1.7c-0.4,0.4-1,0.6-1.8,0.6c-0.5,0-0.9-0.1-1.3-0.3s-0.7-0.4-0.9-0.7
		s-0.4-0.7-0.5-1.1c-0.1-0.4-0.2-0.8-0.2-1.3c0-0.4,0.1-0.8,0.2-1.2c0.1-0.4,0.3-0.8,0.5-1.1s0.5-0.6,0.9-0.8
		c0.4-0.2,0.8-0.3,1.3-0.3c0.5,0,0.9,0.1,1.3,0.3s0.6,0.5,0.9,0.8c0.2,0.3,0.4,0.7,0.5,1.1c0.1,0.4,0.1,0.9,0.1,1.3h-4.8
		C56.6,100.8,56.6,101.1,56.7,101.4z M60.5,99c-0.1-0.3-0.2-0.5-0.4-0.7c-0.2-0.2-0.4-0.4-0.6-0.5c-0.2-0.1-0.5-0.2-0.8-0.2
		c-0.3,0-0.6,0.1-0.8,0.2c-0.2,0.1-0.4,0.3-0.6,0.5c-0.2,0.2-0.3,0.4-0.4,0.7c-0.1,0.3-0.2,0.5-0.2,0.8h4.1
		C60.6,99.6,60.6,99.3,60.5,99z M57.8,96.3l1.3-1.7H60l-1.6,1.7H57.8z"/>
	<path class="st1" d="M66.3,98.4c-0.1-0.2-0.2-0.3-0.4-0.4c-0.1-0.1-0.3-0.2-0.5-0.2s-0.4-0.1-0.6-0.1c-0.2,0-0.3,0-0.5,0.1
		s-0.3,0.1-0.5,0.2s-0.3,0.2-0.4,0.3c-0.1,0.1-0.1,0.3-0.1,0.5c0,0.2,0,0.3,0.1,0.4c0.1,0.1,0.2,0.2,0.3,0.3
		c0.1,0.1,0.3,0.1,0.4,0.2c0.2,0.1,0.3,0.1,0.4,0.1l1,0.2c0.2,0,0.4,0.1,0.6,0.2s0.4,0.2,0.6,0.3s0.3,0.3,0.4,0.5
		c0.1,0.2,0.2,0.4,0.2,0.7c0,0.3-0.1,0.6-0.2,0.9c-0.2,0.2-0.3,0.4-0.6,0.6c-0.2,0.2-0.5,0.3-0.8,0.3c-0.3,0.1-0.6,0.1-0.9,0.1
		c-0.7,0-1.3-0.2-1.8-0.5c-0.5-0.3-0.7-0.9-0.8-1.7h0.8c0,0.5,0.2,0.9,0.6,1.2c0.3,0.3,0.8,0.4,1.3,0.4c0.2,0,0.4,0,0.6-0.1
		c0.2,0,0.4-0.1,0.6-0.2c0.2-0.1,0.3-0.2,0.4-0.4c0.1-0.2,0.2-0.3,0.2-0.6c0-0.2,0-0.3-0.1-0.5c-0.1-0.1-0.2-0.2-0.3-0.3
		s-0.3-0.2-0.4-0.2s-0.3-0.1-0.5-0.1l-1-0.2c-0.3-0.1-0.5-0.1-0.7-0.2s-0.4-0.2-0.6-0.3c-0.2-0.1-0.3-0.3-0.4-0.5
		c-0.1-0.2-0.1-0.4-0.1-0.7c0-0.3,0.1-0.6,0.2-0.8s0.3-0.4,0.6-0.5c0.2-0.1,0.5-0.2,0.8-0.3c0.3-0.1,0.6-0.1,0.8-0.1
		c0.3,0,0.6,0,0.9,0.1c0.3,0.1,0.5,0.2,0.7,0.4c0.2,0.2,0.4,0.4,0.5,0.6c0.1,0.3,0.2,0.5,0.2,0.9h-0.8
		C66.4,98.8,66.4,98.6,66.3,98.4z"/>
	<path class="st1" d="M76.2,98.1c-0.3-0.3-0.7-0.4-1.2-0.4c-0.4,0-0.7,0.1-1,0.2c-0.3,0.2-0.5,0.4-0.7,0.6c-0.2,0.3-0.3,0.5-0.4,0.9
		c-0.1,0.3-0.1,0.6-0.1,1s0,0.7,0.1,1c0.1,0.3,0.2,0.6,0.4,0.9c0.2,0.3,0.4,0.5,0.7,0.6c0.3,0.2,0.6,0.2,1,0.2c0.2,0,0.5,0,0.7-0.1
		c0.2-0.1,0.4-0.2,0.6-0.4c0.2-0.2,0.3-0.3,0.4-0.6s0.2-0.5,0.2-0.7h0.8c-0.1,0.8-0.4,1.4-0.8,1.8c-0.5,0.4-1,0.6-1.7,0.6
		c-0.5,0-0.9-0.1-1.3-0.3c-0.4-0.2-0.7-0.4-0.9-0.7c-0.3-0.3-0.4-0.6-0.6-1c-0.1-0.4-0.2-0.8-0.2-1.3s0.1-0.9,0.2-1.3
		c0.1-0.4,0.3-0.8,0.6-1.1c0.3-0.3,0.6-0.5,0.9-0.7c0.4-0.2,0.8-0.3,1.3-0.3c0.7,0,1.2,0.2,1.7,0.5c0.5,0.4,0.7,0.9,0.8,1.6h-0.8
		C76.7,98.7,76.5,98.3,76.2,98.1z"/>
	<path class="st1" d="M79.6,97.2v1.5h0c0.2-0.5,0.5-0.9,0.9-1.2c0.4-0.3,0.9-0.4,1.5-0.4v0.8c-0.3,0-0.7,0-0.9,0.1s-0.5,0.3-0.7,0.5
		c-0.2,0.2-0.4,0.4-0.5,0.7c-0.1,0.3-0.2,0.6-0.2,0.9v3.3h-0.8v-6.3H79.6z"/>
	<path class="st1" d="M86.9,97.3c0.4,0.2,0.7,0.4,0.9,0.7c0.3,0.3,0.4,0.7,0.6,1.1s0.2,0.8,0.2,1.3s-0.1,0.9-0.2,1.3
		c-0.1,0.4-0.3,0.8-0.6,1c-0.3,0.3-0.6,0.5-0.9,0.7s-0.8,0.3-1.3,0.3s-0.9-0.1-1.3-0.3c-0.4-0.2-0.7-0.4-0.9-0.7
		c-0.3-0.3-0.4-0.6-0.6-1c-0.1-0.4-0.2-0.8-0.2-1.3s0.1-0.9,0.2-1.3c0.1-0.4,0.3-0.8,0.6-1.1c0.3-0.3,0.6-0.5,0.9-0.7
		c0.4-0.2,0.8-0.3,1.3-0.3S86.5,97.1,86.9,97.3z M84.7,97.9c-0.3,0.2-0.5,0.4-0.7,0.6c-0.2,0.3-0.3,0.5-0.4,0.9
		c-0.1,0.3-0.1,0.6-0.1,1s0,0.7,0.1,1c0.1,0.3,0.2,0.6,0.4,0.9c0.2,0.3,0.4,0.5,0.7,0.6c0.3,0.2,0.6,0.2,1,0.2s0.7-0.1,1-0.2
		c0.3-0.2,0.5-0.4,0.7-0.6c0.2-0.3,0.3-0.5,0.4-0.9c0.1-0.3,0.1-0.6,0.1-1s0-0.7-0.1-1c-0.1-0.3-0.2-0.6-0.4-0.9
		c-0.2-0.3-0.4-0.5-0.7-0.6c-0.3-0.2-0.6-0.2-1-0.2S84.9,97.7,84.7,97.9z M84.9,96.3l1.3-1.7h0.9l-1.6,1.7H84.9z"/>
	<path class="st1" d="M90.7,97.2v1.1h0c0.1-0.4,0.4-0.7,0.8-0.9c0.4-0.2,0.8-0.3,1.2-0.3c0.4,0,0.8,0.1,1.1,0.2s0.5,0.3,0.7,0.5
		c0.2,0.2,0.3,0.5,0.4,0.8c0.1,0.3,0.1,0.6,0.1,1v4h-0.8v-3.9c0-0.3,0-0.5-0.1-0.7s-0.1-0.4-0.3-0.6c-0.1-0.2-0.3-0.3-0.5-0.4
		c-0.2-0.1-0.5-0.1-0.8-0.1c-0.3,0-0.6,0.1-0.8,0.2c-0.2,0.1-0.4,0.3-0.6,0.4s-0.3,0.4-0.4,0.7c-0.1,0.3-0.1,0.5-0.2,0.9v3.7H90
		v-6.3H90.7z"/>
	<path class="st1" d="M97.5,94.8V96h-0.8v-1.2H97.5z M97.5,97.2v6.3h-0.8v-6.3H97.5z"/>
	<path class="st1" d="M103.1,98.1c-0.3-0.3-0.7-0.4-1.2-0.4c-0.4,0-0.7,0.1-1,0.2c-0.3,0.2-0.5,0.4-0.7,0.6
		c-0.2,0.3-0.3,0.5-0.4,0.9c-0.1,0.3-0.1,0.6-0.1,1s0,0.7,0.1,1c0.1,0.3,0.2,0.6,0.4,0.9c0.2,0.3,0.4,0.5,0.7,0.6
		c0.3,0.2,0.6,0.2,1,0.2c0.2,0,0.5,0,0.7-0.1c0.2-0.1,0.4-0.2,0.6-0.4c0.2-0.2,0.3-0.3,0.4-0.6s0.2-0.5,0.2-0.7h0.8
		c-0.1,0.8-0.4,1.4-0.8,1.8c-0.5,0.4-1,0.6-1.7,0.6c-0.5,0-0.9-0.1-1.3-0.3c-0.4-0.2-0.7-0.4-0.9-0.7c-0.3-0.3-0.4-0.6-0.6-1
		c-0.1-0.4-0.2-0.8-0.2-1.3s0.1-0.9,0.2-1.3c0.1-0.4,0.3-0.8,0.6-1.1c0.3-0.3,0.6-0.5,0.9-0.7c0.4-0.2,0.8-0.3,1.3-0.3
		c0.7,0,1.2,0.2,1.7,0.5c0.5,0.4,0.7,0.9,0.8,1.6h-0.8C103.5,98.7,103.3,98.3,103.1,98.1z"/>
	<path class="st1" d="M109.7,97.3c0.4,0.2,0.7,0.4,0.9,0.7c0.3,0.3,0.4,0.7,0.6,1.1s0.2,0.8,0.2,1.3s-0.1,0.9-0.2,1.3
		c-0.1,0.4-0.3,0.8-0.6,1c-0.3,0.3-0.6,0.5-0.9,0.7s-0.8,0.3-1.3,0.3s-0.9-0.1-1.3-0.3c-0.4-0.2-0.7-0.4-0.9-0.7
		c-0.3-0.3-0.4-0.6-0.6-1c-0.1-0.4-0.2-0.8-0.2-1.3s0.1-0.9,0.2-1.3c0.1-0.4,0.3-0.8,0.6-1.1c0.3-0.3,0.6-0.5,0.9-0.7
		c0.4-0.2,0.8-0.3,1.3-0.3S109.3,97.1,109.7,97.3z M107.5,97.9c-0.3,0.2-0.5,0.4-0.7,0.6c-0.2,0.3-0.3,0.5-0.4,0.9
		c-0.1,0.3-0.1,0.6-0.1,1s0,0.7,0.1,1c0.1,0.3,0.2,0.6,0.4,0.9c0.2,0.3,0.4,0.5,0.7,0.6c0.3,0.2,0.6,0.2,1,0.2s0.7-0.1,1-0.2
		c0.3-0.2,0.5-0.4,0.7-0.6c0.2-0.3,0.3-0.5,0.4-0.9c0.1-0.3,0.1-0.6,0.1-1s0-0.7-0.1-1c-0.1-0.3-0.2-0.6-0.4-0.9
		c-0.2-0.3-0.4-0.5-0.7-0.6c-0.3-0.2-0.6-0.2-1-0.2S107.7,97.7,107.5,97.9z"/>
	<path class="st1" d="M116.5,97.2l2.1,5.3l1.9-5.3h0.8l-2.7,7.2c-0.1,0.3-0.2,0.5-0.3,0.7c-0.1,0.2-0.2,0.3-0.3,0.4
		c-0.1,0.1-0.3,0.2-0.4,0.2c-0.2,0-0.4,0.1-0.6,0.1c-0.2,0-0.3,0-0.4,0s-0.2,0-0.2,0v-0.6c0.1,0,0.2,0,0.3,0c0.1,0,0.2,0,0.3,0
		c0.2,0,0.3,0,0.4-0.1s0.2-0.1,0.3-0.2s0.1-0.2,0.2-0.3c0.1-0.1,0.1-0.3,0.2-0.4l0.3-0.7l-2.5-6.2H116.5z"/>
	<path class="st1" d="M127,97.8v5.6h-0.8v-5.6h-1.1v-0.6h1.1v-0.6c0-0.3,0-0.5,0.1-0.7c0-0.2,0.1-0.4,0.2-0.6s0.3-0.3,0.5-0.4
		c0.2-0.1,0.5-0.1,0.8-0.1c0.1,0,0.2,0,0.3,0c0.1,0,0.2,0,0.3,0v0.7c-0.1,0-0.2,0-0.3,0c-0.1,0-0.2,0-0.3,0c-0.2,0-0.4,0-0.5,0.1
		s-0.2,0.2-0.2,0.3s-0.1,0.2-0.1,0.4c0,0.1,0,0.3,0,0.5v0.5h1.2v0.6H127z"/>
	<path class="st1" d="M129.4,98.2c0.1-0.3,0.3-0.5,0.5-0.7s0.5-0.3,0.8-0.4c0.3-0.1,0.6-0.1,1-0.1c0.3,0,0.6,0,0.8,0.1
		s0.5,0.2,0.7,0.3c0.2,0.1,0.4,0.3,0.5,0.6c0.1,0.3,0.2,0.6,0.2,1v3.3c0,0.3,0.1,0.5,0.4,0.5c0.1,0,0.2,0,0.2,0v0.6
		c-0.1,0-0.2,0-0.2,0c-0.1,0-0.2,0-0.3,0c-0.2,0-0.4,0-0.5-0.1s-0.2-0.1-0.3-0.2c-0.1-0.1-0.1-0.2-0.1-0.3c0-0.1,0-0.3,0-0.4h0
		c-0.1,0.2-0.3,0.4-0.4,0.5c-0.1,0.2-0.3,0.3-0.5,0.4c-0.2,0.1-0.4,0.2-0.6,0.2s-0.5,0.1-0.8,0.1c-0.3,0-0.6,0-0.8-0.1
		c-0.3-0.1-0.5-0.2-0.7-0.3c-0.2-0.2-0.3-0.3-0.4-0.6s-0.2-0.5-0.2-0.8c0-0.4,0.1-0.8,0.3-1s0.5-0.4,0.8-0.6
		c0.3-0.1,0.7-0.2,1.1-0.3c0.4-0.1,0.8-0.1,1.2-0.2c0.2,0,0.3,0,0.4-0.1c0.1,0,0.2-0.1,0.3-0.1c0.1-0.1,0.1-0.1,0.2-0.2
		c0-0.1,0.1-0.2,0.1-0.4c0-0.3,0-0.5-0.1-0.6c-0.1-0.2-0.2-0.3-0.4-0.4c-0.1-0.1-0.3-0.2-0.5-0.2c-0.2,0-0.4-0.1-0.6-0.1
		c-0.5,0-0.9,0.1-1.2,0.3c-0.3,0.2-0.5,0.6-0.5,1.1h-0.8C129.2,98.7,129.3,98.4,129.4,98.2z M133.2,100c0,0.1-0.1,0.2-0.3,0.2
		c-0.1,0-0.3,0.1-0.4,0.1c-0.3,0.1-0.7,0.1-1,0.2c-0.3,0-0.7,0.1-0.9,0.2s-0.5,0.2-0.7,0.4c-0.2,0.2-0.3,0.4-0.3,0.7
		c0,0.2,0,0.4,0.1,0.5c0.1,0.1,0.2,0.3,0.3,0.4c0.1,0.1,0.3,0.2,0.4,0.2c0.2,0.1,0.3,0.1,0.5,0.1c0.3,0,0.6,0,0.8-0.1
		c0.3-0.1,0.5-0.2,0.7-0.4s0.4-0.4,0.5-0.6c0.1-0.2,0.2-0.5,0.2-0.8L133.2,100L133.2,100z"/>
	<path class="st1" d="M138.3,97.2v0.6H137v4.2c0,0.3,0,0.4,0.1,0.6c0.1,0.1,0.2,0.2,0.5,0.2c0.2,0,0.4,0,0.7,0v0.6
		c-0.1,0-0.2,0-0.3,0c-0.1,0-0.2,0-0.3,0c-0.5,0-0.9-0.1-1.1-0.3c-0.2-0.2-0.3-0.6-0.3-1.1v-4.3h-1.1v-0.6h1.1v-1.9h0.8v1.9H138.3z"
		/>
	<path class="st1" d="M140.4,94.8V96h-0.8v-1.2H140.4z M140.4,97.2v6.3h-0.8v-6.3H140.4z"/>
	<path class="st1" d="M147.3,104.2c-0.1,0.4-0.3,0.7-0.5,0.9c-0.2,0.3-0.5,0.5-0.9,0.6c-0.4,0.1-0.8,0.2-1.3,0.2
		c-0.3,0-0.6,0-0.9-0.1c-0.3-0.1-0.6-0.2-0.8-0.3c-0.2-0.2-0.4-0.4-0.6-0.6c-0.2-0.2-0.2-0.5-0.3-0.9h0.8c0,0.2,0.1,0.4,0.2,0.6
		c0.1,0.2,0.3,0.3,0.4,0.4c0.2,0.1,0.4,0.2,0.6,0.2c0.2,0,0.4,0.1,0.6,0.1c0.7,0,1.2-0.2,1.5-0.6c0.3-0.4,0.5-1,0.5-1.7v-0.9h0
		c-0.2,0.4-0.4,0.7-0.8,0.9c-0.3,0.2-0.7,0.4-1.2,0.4c-0.5,0-0.9-0.1-1.3-0.2c-0.4-0.2-0.6-0.4-0.9-0.7c-0.2-0.3-0.4-0.6-0.5-1
		c-0.1-0.4-0.2-0.8-0.2-1.3c0-0.4,0.1-0.8,0.2-1.2c0.1-0.4,0.3-0.7,0.5-1c0.2-0.3,0.5-0.5,0.9-0.7c0.4-0.2,0.8-0.2,1.2-0.2
		c0.2,0,0.5,0,0.7,0.1c0.2,0.1,0.4,0.2,0.6,0.3c0.2,0.1,0.3,0.3,0.5,0.4c0.1,0.2,0.2,0.3,0.3,0.5h0v-1.1h0.8v5.8
		C147.4,103.4,147.4,103.8,147.3,104.2z M145.5,102.5c0.3-0.1,0.5-0.3,0.6-0.6c0.2-0.2,0.3-0.5,0.4-0.8c0.1-0.3,0.1-0.6,0.1-0.9
		c0-0.3,0-0.6-0.1-0.9c-0.1-0.3-0.2-0.6-0.4-0.8s-0.4-0.5-0.6-0.6c-0.3-0.2-0.6-0.2-0.9-0.2s-0.7,0.1-0.9,0.2
		c-0.3,0.2-0.5,0.3-0.6,0.6c-0.2,0.2-0.3,0.5-0.4,0.8s-0.1,0.6-0.1,1c0,0.3,0,0.6,0.1,0.9c0.1,0.3,0.2,0.6,0.4,0.8
		c0.2,0.2,0.4,0.4,0.6,0.6s0.6,0.2,0.9,0.2C145,102.7,145.3,102.7,145.5,102.5z"/>
	<path class="st1" d="M149.3,98.2c0.1-0.3,0.3-0.5,0.5-0.7s0.5-0.3,0.8-0.4c0.3-0.1,0.6-0.1,1-0.1c0.3,0,0.6,0,0.8,0.1
		s0.5,0.2,0.7,0.3c0.2,0.1,0.4,0.3,0.5,0.6c0.1,0.3,0.2,0.6,0.2,1v3.3c0,0.3,0.1,0.5,0.4,0.5c0.1,0,0.2,0,0.2,0v0.6
		c-0.1,0-0.2,0-0.2,0c-0.1,0-0.2,0-0.3,0c-0.2,0-0.4,0-0.5-0.1s-0.2-0.1-0.3-0.2c-0.1-0.1-0.1-0.2-0.1-0.3c0-0.1,0-0.3,0-0.4h0
		c-0.1,0.2-0.3,0.4-0.4,0.5c-0.1,0.2-0.3,0.3-0.5,0.4c-0.2,0.1-0.4,0.2-0.6,0.2s-0.5,0.1-0.8,0.1c-0.3,0-0.6,0-0.8-0.1
		c-0.3-0.1-0.5-0.2-0.7-0.3c-0.2-0.2-0.3-0.3-0.4-0.6s-0.2-0.5-0.2-0.8c0-0.4,0.1-0.8,0.3-1s0.5-0.4,0.8-0.6
		c0.3-0.1,0.7-0.2,1.1-0.3c0.4-0.1,0.8-0.1,1.2-0.2c0.2,0,0.3,0,0.4-0.1c0.1,0,0.2-0.1,0.3-0.1c0.1-0.1,0.1-0.1,0.2-0.2
		c0-0.1,0.1-0.2,0.1-0.4c0-0.3,0-0.5-0.1-0.6c-0.1-0.2-0.2-0.3-0.4-0.4c-0.1-0.1-0.3-0.2-0.5-0.2c-0.2,0-0.4-0.1-0.6-0.1
		c-0.5,0-0.9,0.1-1.2,0.3c-0.3,0.2-0.5,0.6-0.5,1.1H149C149.1,98.7,149.1,98.4,149.3,98.2z M153.1,100c0,0.1-0.1,0.2-0.3,0.2
		c-0.1,0-0.3,0.1-0.4,0.1c-0.3,0.1-0.7,0.1-1,0.2c-0.3,0-0.7,0.1-0.9,0.2s-0.5,0.2-0.7,0.4c-0.2,0.2-0.3,0.4-0.3,0.7
		c0,0.2,0,0.4,0.1,0.5c0.1,0.1,0.2,0.3,0.3,0.4c0.1,0.1,0.3,0.2,0.4,0.2c0.2,0.1,0.3,0.1,0.5,0.1c0.3,0,0.6,0,0.8-0.1
		c0.3-0.1,0.5-0.2,0.7-0.4s0.4-0.4,0.5-0.6c0.1-0.2,0.2-0.5,0.2-0.8L153.1,100L153.1,100z"/>
	<path class="st1" d="M156.1,102.2h1v1.3h-1V102.2z"/>
</g>
</svg>
