<!-- Generator: Adobe Illustrator 20.1.0, SVG Export Plug-In  -->
<svg version="1.1"
	 xmlns="http://www.w3.org/2000/svg" xmlns:xlink="http://www.w3.org/1999/xlink" xmlns:a="http://ns.adobe.com/AdobeSVGViewerExtensions/3.0/"
	 x="0px" y="0px" width="396.5px" height="52.5px" viewBox="0 0 396.5 52.5"
	 style="overflow:scroll;enable-background:new 0 0 396.5 52.5;" xml:space="preserve">
<style type="text/css">
	.st0{fill:#008345;}
	.st1{fill:#FFFFFF;}
</style>
<defs>
</defs>
<polygon id="XMLID_1_" class="st0" points="396.5,52.5 156.3,52.5 0,0 396.5,0 "/>
<g>
	<path class="st1" d="M195.1,17.9c0,0.4,0.1,0.7,0.2,1s0.3,0.5,0.6,0.7s0.5,0.3,0.8,0.4c0.3,0.1,0.6,0.1,1,0.1c0.2,0,0.5,0,0.7-0.1
		c0.3,0,0.5-0.1,0.7-0.2c0.2-0.1,0.4-0.3,0.6-0.4c0.2-0.2,0.2-0.4,0.2-0.7c0-0.3-0.1-0.6-0.3-0.8c-0.2-0.2-0.5-0.4-0.8-0.5
		c-0.3-0.1-0.7-0.2-1.1-0.3c-0.4-0.1-0.8-0.2-1.2-0.3c-0.4-0.1-0.8-0.2-1.3-0.4c-0.4-0.2-0.8-0.4-1.1-0.6c-0.3-0.2-0.6-0.6-0.8-0.9
		s-0.3-0.8-0.3-1.4c0-0.6,0.1-1.1,0.4-1.5c0.3-0.4,0.6-0.8,1-1.1c0.4-0.3,0.9-0.5,1.4-0.6c0.5-0.1,1-0.2,1.5-0.2
		c0.6,0,1.2,0.1,1.7,0.2c0.6,0.1,1,0.4,1.5,0.7c0.4,0.3,0.8,0.7,1,1.2c0.3,0.5,0.4,1,0.4,1.7h-2.4c0-0.3-0.1-0.6-0.2-0.9
		c-0.1-0.2-0.3-0.4-0.5-0.5S198.3,12,198,12c-0.3-0.1-0.6-0.1-0.9-0.1c-0.2,0-0.4,0-0.6,0.1c-0.2,0-0.4,0.1-0.6,0.2
		s-0.3,0.2-0.4,0.4s-0.2,0.4-0.2,0.6c0,0.2,0,0.4,0.1,0.5c0.1,0.1,0.3,0.3,0.5,0.4c0.3,0.1,0.6,0.2,1,0.4c0.4,0.1,1,0.3,1.7,0.5
		c0.1,0,0.3,0.1,0.5,0.1c0.2,0.1,0.5,0.1,0.7,0.2c0.3,0.1,0.5,0.2,0.8,0.4c0.3,0.2,0.5,0.4,0.7,0.6c0.2,0.2,0.4,0.5,0.5,0.8
		c0.1,0.3,0.2,0.7,0.2,1.1c0,0.5-0.1,1-0.3,1.5c-0.2,0.5-0.5,0.8-0.9,1.2c-0.4,0.3-0.9,0.6-1.5,0.8c-0.6,0.2-1.3,0.3-2.1,0.3
		c-0.6,0-1.2-0.1-1.8-0.2c-0.6-0.2-1.1-0.4-1.6-0.7c-0.5-0.3-0.8-0.8-1.1-1.3c-0.3-0.5-0.4-1.1-0.4-1.8H195.1z"/>
	<path class="st1" d="M206.1,12.3h-1.6L206,10h2.5L206.1,12.3z M204.6,13.4h2.3v8.3h-2.3V13.4z"/>
	<path class="st1" d="M209.6,13.4h2.2v1.2h0c0.3-0.5,0.7-0.8,1.1-1c0.5-0.2,0.9-0.3,1.4-0.3c0.6,0,1.1,0.1,1.5,0.2
		c0.4,0.2,0.7,0.4,0.9,0.7s0.4,0.7,0.5,1.1c0.1,0.4,0.1,0.9,0.1,1.4v5.1h-2.3V17c0-0.7-0.1-1.2-0.3-1.5s-0.6-0.5-1.1-0.5
		c-0.6,0-1.1,0.2-1.4,0.6c-0.3,0.4-0.4,1-0.4,1.8v4.4h-2.3V13.4z"/>
	<path class="st1" d="M223,13.4h1.7v1.5H223V19c0,0.4,0.1,0.6,0.2,0.8s0.4,0.2,0.8,0.2c0.3,0,0.5,0,0.7-0.1v1.8
		c-0.2,0-0.4,0.1-0.6,0.1c-0.2,0-0.5,0-0.7,0c-0.4,0-0.7,0-1-0.1c-0.3,0-0.6-0.1-0.8-0.3s-0.4-0.3-0.6-0.6c-0.1-0.3-0.2-0.6-0.2-1
		v-4.9h-1.4v-1.5h1.4v-2.5h2.3V13.4z"/>
	<path class="st1" d="M226.5,17.5c0-0.7,0.1-1.3,0.3-1.8c0.2-0.5,0.5-1,0.9-1.4c0.4-0.4,0.8-0.7,1.4-0.9s1.1-0.3,1.8-0.3
		c0.7,0,1.2,0.1,1.8,0.3s1,0.5,1.4,0.9c0.4,0.4,0.7,0.8,0.9,1.4c0.2,0.5,0.3,1.1,0.3,1.8c0,0.7-0.1,1.3-0.3,1.8
		c-0.2,0.5-0.5,1-0.9,1.4c-0.4,0.4-0.8,0.7-1.4,0.9c-0.5,0.2-1.1,0.3-1.8,0.3c-0.7,0-1.2-0.1-1.8-0.3c-0.5-0.2-1-0.5-1.4-0.9
		c-0.4-0.4-0.7-0.8-0.9-1.4C226.6,18.8,226.5,18.2,226.5,17.5z M228.8,17.5c0,0.3,0,0.7,0.1,1s0.2,0.6,0.3,0.9s0.4,0.5,0.6,0.6
		c0.3,0.2,0.6,0.2,1,0.2c0.4,0,0.7-0.1,1-0.2s0.5-0.4,0.6-0.6s0.3-0.5,0.3-0.9c0.1-0.3,0.1-0.6,0.1-1c0-0.3,0-0.7-0.1-1
		c-0.1-0.3-0.2-0.6-0.3-0.9c-0.2-0.2-0.4-0.4-0.6-0.6s-0.6-0.2-1-0.2c-0.4,0-0.7,0.1-1,0.2c-0.3,0.2-0.5,0.4-0.6,0.6
		c-0.2,0.2-0.3,0.5-0.3,0.9S228.8,17.2,228.8,17.5z"/>
	<path class="st1" d="M237.6,13.4h2.2v1.1h0c0.3-0.4,0.7-0.8,1.1-1c0.4-0.2,0.9-0.4,1.5-0.4c0.5,0,1,0.1,1.4,0.3
		c0.4,0.2,0.8,0.6,1,1.1c0.2-0.4,0.6-0.7,1-1c0.4-0.3,0.9-0.4,1.5-0.4c0.4,0,0.8,0.1,1.2,0.2s0.7,0.3,1,0.5c0.3,0.2,0.5,0.5,0.6,0.9
		c0.1,0.4,0.2,0.8,0.2,1.4v5.6H248V17c0-0.3,0-0.5,0-0.8c0-0.2-0.1-0.5-0.2-0.6c-0.1-0.2-0.2-0.3-0.4-0.4s-0.4-0.2-0.8-0.2
		s-0.6,0.1-0.8,0.2s-0.4,0.3-0.5,0.5s-0.2,0.4-0.2,0.7c0,0.3-0.1,0.5-0.1,0.8v4.6h-2.3V17c0-0.2,0-0.5,0-0.7c0-0.2-0.1-0.5-0.1-0.7
		c-0.1-0.2-0.2-0.4-0.4-0.5s-0.5-0.2-0.8-0.2c-0.1,0-0.3,0-0.4,0.1c-0.2,0-0.3,0.1-0.5,0.3c-0.2,0.1-0.3,0.3-0.4,0.6
		c-0.1,0.3-0.2,0.6-0.2,1v4.8h-2.3V13.4z"/>
	<path class="st1" d="M253,15.9c0-0.5,0.2-1,0.4-1.3c0.2-0.4,0.5-0.6,0.9-0.9c0.4-0.2,0.8-0.4,1.2-0.5s0.9-0.1,1.4-0.1
		c0.4,0,0.8,0,1.3,0.1c0.4,0.1,0.8,0.2,1.2,0.3c0.4,0.2,0.6,0.4,0.9,0.7c0.2,0.3,0.3,0.7,0.3,1.2v4.3c0,0.4,0,0.7,0.1,1.1
		c0,0.3,0.1,0.6,0.2,0.8h-2.3c0-0.1-0.1-0.3-0.1-0.4c0-0.1,0-0.3-0.1-0.4c-0.4,0.4-0.8,0.6-1.3,0.8s-1,0.2-1.5,0.2
		c-0.4,0-0.8-0.1-1.1-0.2c-0.3-0.1-0.6-0.3-0.9-0.5c-0.3-0.2-0.5-0.5-0.6-0.8c-0.1-0.3-0.2-0.7-0.2-1.1c0-0.5,0.1-0.9,0.2-1.2
		s0.4-0.5,0.6-0.7c0.3-0.2,0.6-0.3,0.9-0.4c0.3-0.1,0.7-0.2,1-0.2s0.7-0.1,1-0.1c0.3,0,0.6-0.1,0.9-0.1c0.3-0.1,0.5-0.2,0.6-0.3
		s0.2-0.3,0.2-0.5c0-0.2,0-0.4-0.1-0.6s-0.2-0.3-0.3-0.3c-0.1-0.1-0.3-0.1-0.5-0.2c-0.2,0-0.4,0-0.6,0c-0.4,0-0.8,0.1-1.1,0.3
		c-0.3,0.2-0.4,0.5-0.5,1H253z M258.2,17.6c-0.1,0.1-0.2,0.2-0.4,0.2c-0.1,0-0.3,0.1-0.5,0.1c-0.2,0-0.3,0.1-0.5,0.1s-0.4,0-0.5,0.1
		c-0.2,0-0.4,0.1-0.5,0.1c-0.2,0.1-0.3,0.1-0.4,0.2s-0.2,0.2-0.3,0.4c-0.1,0.1-0.1,0.3-0.1,0.5c0,0.2,0,0.4,0.1,0.5
		c0.1,0.1,0.2,0.2,0.3,0.3c0.1,0.1,0.3,0.1,0.5,0.2c0.2,0,0.3,0,0.5,0c0.5,0,0.8-0.1,1-0.2c0.2-0.2,0.4-0.3,0.5-0.5s0.2-0.4,0.2-0.6
		c0-0.2,0-0.4,0-0.5V17.6z"/>
	<path class="st1" d="M265,19c0,0.2,0.1,0.5,0.2,0.6s0.2,0.3,0.4,0.4c0.2,0.1,0.3,0.2,0.6,0.2s0.4,0.1,0.7,0.1c0.2,0,0.3,0,0.5-0.1
		c0.2,0,0.3-0.1,0.5-0.2c0.1-0.1,0.3-0.2,0.4-0.3s0.1-0.3,0.1-0.5c0-0.2-0.1-0.3-0.2-0.4c-0.1-0.1-0.3-0.2-0.5-0.3s-0.5-0.2-0.8-0.3
		c-0.3-0.1-0.7-0.2-1.1-0.2c-0.3-0.1-0.7-0.2-1-0.3c-0.3-0.1-0.6-0.2-0.8-0.4c-0.2-0.2-0.4-0.4-0.6-0.6c-0.2-0.3-0.2-0.6-0.2-0.9
		c0-0.5,0.1-1,0.3-1.3c0.2-0.3,0.5-0.6,0.8-0.8c0.3-0.2,0.7-0.3,1.2-0.4c0.4-0.1,0.9-0.1,1.3-0.1s0.9,0,1.3,0.1
		c0.4,0.1,0.8,0.2,1.1,0.4c0.3,0.2,0.6,0.5,0.8,0.8s0.4,0.8,0.4,1.3h-2.2c0-0.4-0.2-0.7-0.5-0.9s-0.7-0.2-1.1-0.2
		c-0.1,0-0.3,0-0.4,0c-0.2,0-0.3,0.1-0.4,0.1s-0.2,0.1-0.3,0.2s-0.1,0.2-0.1,0.4c0,0.2,0.1,0.4,0.2,0.5c0.2,0.1,0.3,0.2,0.6,0.3
		c0.2,0.1,0.5,0.2,0.8,0.2s0.6,0.1,0.9,0.2c0.3,0.1,0.7,0.2,1,0.3s0.6,0.2,0.8,0.4c0.2,0.2,0.4,0.4,0.6,0.7c0.1,0.3,0.2,0.6,0.2,1
		c0,0.5-0.1,1-0.3,1.4c-0.2,0.4-0.5,0.7-0.9,0.9c-0.4,0.2-0.8,0.4-1.2,0.5c-0.5,0.1-0.9,0.1-1.4,0.1c-0.5,0-1,0-1.4-0.1
		c-0.5-0.1-0.9-0.3-1.2-0.5s-0.7-0.5-0.9-0.9c-0.2-0.4-0.4-0.8-0.4-1.4H265z"/>
	<path class="st1" d="M278.8,14.9h-1.4v-1.5h1.4v-0.6c0-0.4,0.1-0.7,0.2-1c0.1-0.3,0.3-0.6,0.5-0.8c0.2-0.2,0.5-0.4,0.9-0.5
		s0.8-0.2,1.2-0.2c0.2,0,0.4,0,0.6,0c0.2,0,0.4,0,0.6,0V12c-0.3,0-0.6,0-0.8,0c-0.3,0-0.5,0.1-0.7,0.2c-0.1,0.1-0.2,0.4-0.2,0.7v0.5
		h1.6v1.5h-1.6v6.8h-2.3V14.9z"/>
	<path class="st1" d="M286.2,12.3h-1.6l1.5-2.3h2.5L286.2,12.3z M284.7,13.4h2.3v8.3h-2.3V13.4z"/>
	<path class="st1" d="M291.5,19c0,0.2,0.1,0.5,0.2,0.6s0.2,0.3,0.4,0.4c0.2,0.1,0.3,0.2,0.6,0.2s0.4,0.1,0.7,0.1
		c0.2,0,0.3,0,0.5-0.1c0.2,0,0.3-0.1,0.5-0.2c0.1-0.1,0.3-0.2,0.4-0.3s0.1-0.3,0.1-0.5c0-0.2-0.1-0.3-0.2-0.4
		c-0.1-0.1-0.3-0.2-0.5-0.3s-0.5-0.2-0.8-0.3c-0.3-0.1-0.7-0.2-1.1-0.2c-0.3-0.1-0.7-0.2-1-0.3c-0.3-0.1-0.6-0.2-0.8-0.4
		c-0.2-0.2-0.4-0.4-0.6-0.6c-0.2-0.3-0.2-0.6-0.2-0.9c0-0.5,0.1-1,0.3-1.3c0.2-0.3,0.5-0.6,0.8-0.8c0.3-0.2,0.7-0.3,1.2-0.4
		c0.4-0.1,0.9-0.1,1.3-0.1s0.9,0,1.3,0.1c0.4,0.1,0.8,0.2,1.1,0.4c0.3,0.2,0.6,0.5,0.8,0.8s0.4,0.8,0.4,1.3h-2.2
		c0-0.4-0.2-0.7-0.5-0.9s-0.7-0.2-1.1-0.2c-0.1,0-0.3,0-0.4,0c-0.2,0-0.3,0.1-0.4,0.1s-0.2,0.1-0.3,0.2s-0.1,0.2-0.1,0.4
		c0,0.2,0.1,0.4,0.2,0.5c0.2,0.1,0.3,0.2,0.6,0.3c0.2,0.1,0.5,0.2,0.8,0.2s0.6,0.1,0.9,0.2c0.3,0.1,0.7,0.2,1,0.3s0.6,0.2,0.8,0.4
		c0.2,0.2,0.4,0.4,0.6,0.7c0.1,0.3,0.2,0.6,0.2,1c0,0.5-0.1,1-0.3,1.4c-0.2,0.4-0.5,0.7-0.9,0.9c-0.4,0.2-0.8,0.4-1.2,0.5
		c-0.5,0.1-0.9,0.1-1.4,0.1c-0.5,0-1,0-1.4-0.1c-0.5-0.1-0.9-0.3-1.2-0.5s-0.7-0.5-0.9-0.9c-0.2-0.4-0.4-0.8-0.4-1.4H291.5z"/>
	<path class="st1" d="M301.7,12.1h-2.3v-1.9h2.3V12.1z M299.4,13.4h2.3v8.3h-2.3V13.4z"/>
	<path class="st1" d="M310.1,16.3c-0.2-1-0.7-1.4-1.7-1.4c-0.4,0-0.7,0.1-0.9,0.2c-0.2,0.2-0.4,0.4-0.6,0.6
		c-0.2,0.3-0.3,0.6-0.3,0.9c-0.1,0.3-0.1,0.6-0.1,0.9c0,0.3,0,0.6,0.1,0.9c0.1,0.3,0.2,0.6,0.3,0.8s0.3,0.5,0.6,0.6
		c0.2,0.2,0.5,0.2,0.9,0.2c0.5,0,1-0.2,1.3-0.5c0.3-0.3,0.5-0.7,0.6-1.2h2.2c-0.2,1.1-0.6,1.9-1.3,2.5c-0.7,0.6-1.6,0.9-2.7,0.9
		c-0.6,0-1.2-0.1-1.7-0.3c-0.5-0.2-1-0.5-1.3-0.9s-0.6-0.8-0.9-1.4c-0.2-0.5-0.3-1.1-0.3-1.7c0-0.6,0.1-1.2,0.3-1.8
		c0.2-0.6,0.5-1,0.8-1.4s0.8-0.7,1.3-0.9c0.5-0.2,1.1-0.3,1.8-0.3c0.5,0,1,0.1,1.4,0.2c0.5,0.1,0.9,0.3,1.2,0.6
		c0.4,0.3,0.6,0.6,0.9,1c0.2,0.4,0.4,0.9,0.4,1.4H310.1z"/>
	<path class="st1" d="M314.4,17.5c0-0.7,0.1-1.3,0.3-1.8c0.2-0.5,0.5-1,0.9-1.4c0.4-0.4,0.8-0.7,1.4-0.9s1.1-0.3,1.8-0.3
		c0.7,0,1.2,0.1,1.8,0.3s1,0.5,1.4,0.9c0.4,0.4,0.7,0.8,0.9,1.4c0.2,0.5,0.3,1.1,0.3,1.8c0,0.7-0.1,1.3-0.3,1.8
		c-0.2,0.5-0.5,1-0.9,1.4c-0.4,0.4-0.8,0.7-1.4,0.9c-0.5,0.2-1.1,0.3-1.8,0.3c-0.7,0-1.2-0.1-1.8-0.3c-0.5-0.2-1-0.5-1.4-0.9
		c-0.4-0.4-0.7-0.8-0.9-1.4C314.5,18.8,314.4,18.2,314.4,17.5z M316.7,17.5c0,0.3,0,0.7,0.1,1s0.2,0.6,0.3,0.9s0.4,0.5,0.6,0.6
		c0.3,0.2,0.6,0.2,1,0.2c0.4,0,0.7-0.1,1-0.2s0.5-0.4,0.6-0.6s0.3-0.5,0.3-0.9c0.1-0.3,0.1-0.6,0.1-1c0-0.3,0-0.7-0.1-1
		c-0.1-0.3-0.2-0.6-0.3-0.9c-0.2-0.2-0.4-0.4-0.6-0.6s-0.6-0.2-1-0.2c-0.4,0-0.7,0.1-1,0.2c-0.3,0.2-0.5,0.4-0.6,0.6
		c-0.2,0.2-0.3,0.5-0.3,0.9S316.7,17.2,316.7,17.5z"/>
	<path class="st1" d="M327.2,19c0,0.2,0.1,0.5,0.2,0.6s0.2,0.3,0.4,0.4c0.2,0.1,0.3,0.2,0.6,0.2s0.4,0.1,0.7,0.1
		c0.2,0,0.3,0,0.5-0.1c0.2,0,0.3-0.1,0.5-0.2c0.1-0.1,0.3-0.2,0.4-0.3s0.1-0.3,0.1-0.5c0-0.2-0.1-0.3-0.2-0.4
		c-0.1-0.1-0.3-0.2-0.5-0.3s-0.5-0.2-0.8-0.3c-0.3-0.1-0.7-0.2-1.1-0.2c-0.3-0.1-0.7-0.2-1-0.3c-0.3-0.1-0.6-0.2-0.8-0.4
		c-0.2-0.2-0.4-0.4-0.6-0.6c-0.2-0.3-0.2-0.6-0.2-0.9c0-0.5,0.1-1,0.3-1.3c0.2-0.3,0.5-0.6,0.8-0.8c0.3-0.2,0.7-0.3,1.2-0.4
		c0.4-0.1,0.9-0.1,1.3-0.1s0.9,0,1.3,0.1c0.4,0.1,0.8,0.2,1.1,0.4c0.3,0.2,0.6,0.5,0.8,0.8s0.4,0.8,0.4,1.3h-2.2
		c0-0.4-0.2-0.7-0.5-0.9s-0.7-0.2-1.1-0.2c-0.1,0-0.3,0-0.4,0c-0.2,0-0.3,0.1-0.4,0.1s-0.2,0.1-0.3,0.2s-0.1,0.2-0.1,0.4
		c0,0.2,0.1,0.4,0.2,0.5c0.2,0.1,0.3,0.2,0.6,0.3c0.2,0.1,0.5,0.2,0.8,0.2s0.6,0.1,0.9,0.2c0.3,0.1,0.7,0.2,1,0.3s0.6,0.2,0.8,0.4
		c0.2,0.2,0.4,0.4,0.6,0.7c0.1,0.3,0.2,0.6,0.2,1c0,0.5-0.1,1-0.3,1.4c-0.2,0.4-0.5,0.7-0.9,0.9c-0.4,0.2-0.8,0.4-1.2,0.5
		c-0.5,0.1-0.9,0.1-1.4,0.1c-0.5,0-1,0-1.4-0.1c-0.5-0.1-0.9-0.3-1.2-0.5s-0.7-0.5-0.9-0.9c-0.2-0.4-0.4-0.8-0.4-1.4H327.2z"/>
	<path class="st1" d="M197.2,42c-0.2,0.7-0.6,1.1-1,1.4s-1.1,0.4-1.8,0.4c-0.2,0-0.5,0-0.7,0c-0.2,0-0.5,0-0.7-0.1v-1.9
		c0.2,0,0.4,0,0.7,0.1c0.2,0,0.5,0,0.7,0c0.2,0,0.4-0.1,0.5-0.2c0.1-0.1,0.2-0.2,0.3-0.4s0.1-0.3,0.1-0.5c0-0.2,0-0.4-0.1-0.5
		l-2.9-7.8h2.4l1.9,5.7h0l1.8-5.7h2.4L197.2,42z"/>
	<path class="st1" d="M207.9,32.7h2.2v1.1h0c0.3-0.4,0.7-0.8,1.1-1c0.4-0.2,0.9-0.4,1.5-0.4c0.5,0,1,0.1,1.4,0.3
		c0.4,0.2,0.8,0.6,1,1.1c0.2-0.4,0.6-0.7,1-1c0.4-0.3,0.9-0.4,1.5-0.4c0.4,0,0.8,0.1,1.2,0.2s0.7,0.3,1,0.5c0.3,0.2,0.5,0.5,0.6,0.9
		c0.1,0.4,0.2,0.8,0.2,1.4V41h-2.3v-4.7c0-0.3,0-0.5,0-0.8c0-0.2-0.1-0.5-0.2-0.6c-0.1-0.2-0.2-0.3-0.4-0.4s-0.4-0.2-0.8-0.2
		s-0.6,0.1-0.8,0.2s-0.4,0.3-0.5,0.5s-0.2,0.4-0.2,0.7c0,0.3-0.1,0.5-0.1,0.8V41h-2.3v-4.7c0-0.2,0-0.5,0-0.7c0-0.2-0.1-0.5-0.1-0.7
		c-0.1-0.2-0.2-0.4-0.4-0.5s-0.5-0.2-0.8-0.2c-0.1,0-0.3,0-0.4,0.1c-0.2,0-0.3,0.1-0.5,0.3c-0.2,0.1-0.3,0.3-0.4,0.6
		c-0.1,0.3-0.2,0.6-0.2,1V41h-2.3V32.7z"/>
	<path class="st1" d="M225.3,37.4c0,0.7,0.2,1.3,0.6,1.6s0.8,0.5,1.5,0.5c0.5,0,0.9-0.1,1.2-0.3c0.3-0.2,0.5-0.5,0.6-0.7h2
		c-0.3,1-0.8,1.7-1.5,2.1c-0.7,0.4-1.5,0.7-2.4,0.7c-0.7,0-1.2-0.1-1.8-0.3c-0.5-0.2-1-0.5-1.3-0.9c-0.4-0.4-0.6-0.8-0.8-1.4
		s-0.3-1.1-0.3-1.8c0-0.6,0.1-1.2,0.3-1.7c0.2-0.5,0.5-1,0.9-1.4c0.4-0.4,0.8-0.7,1.3-0.9c0.5-0.2,1.1-0.3,1.7-0.3
		c0.7,0,1.3,0.1,1.8,0.4c0.5,0.3,1,0.6,1.3,1.1s0.6,1,0.7,1.6c0.2,0.6,0.2,1.2,0.2,1.8H225.3z M229,35.9c-0.1-0.6-0.3-1-0.6-1.3
		c-0.3-0.3-0.7-0.5-1.2-0.5c-0.4,0-0.7,0.1-0.9,0.2c-0.2,0.1-0.4,0.3-0.6,0.5c-0.1,0.2-0.2,0.4-0.3,0.6c-0.1,0.2-0.1,0.4-0.1,0.5
		H229z"/>
	<path class="st1" d="M233.6,32.7h2.2v1.2h0c0.3-0.5,0.7-0.8,1.1-1c0.5-0.2,0.9-0.3,1.4-0.3c0.6,0,1.1,0.1,1.5,0.2
		c0.4,0.2,0.7,0.4,0.9,0.7s0.4,0.7,0.5,1.1c0.1,0.4,0.1,0.9,0.1,1.4V41h-2.3v-4.7c0-0.7-0.1-1.2-0.3-1.5s-0.6-0.5-1.1-0.5
		c-0.6,0-1.1,0.2-1.4,0.6c-0.3,0.4-0.4,1-0.4,1.8V41h-2.3V32.7z"/>
	<path class="st1" d="M247,32.7h1.7v1.5H247v4.1c0,0.4,0.1,0.6,0.2,0.8s0.4,0.2,0.8,0.2c0.3,0,0.5,0,0.7-0.1V41
		c-0.2,0-0.4,0.1-0.6,0.1c-0.2,0-0.5,0-0.7,0c-0.4,0-0.7,0-1-0.1c-0.3,0-0.6-0.1-0.8-0.3s-0.4-0.3-0.6-0.6c-0.1-0.3-0.2-0.6-0.2-1
		v-4.9h-1.4v-1.5h1.4v-2.5h2.3V32.7z"/>
	<path class="st1" d="M250.6,35.2c0-0.5,0.2-1,0.4-1.3c0.2-0.4,0.5-0.6,0.9-0.9c0.4-0.2,0.8-0.4,1.2-0.5s0.9-0.1,1.4-0.1
		c0.4,0,0.8,0,1.3,0.1c0.4,0.1,0.8,0.2,1.2,0.3c0.4,0.2,0.6,0.4,0.9,0.7c0.2,0.3,0.3,0.7,0.3,1.2v4.3c0,0.4,0,0.7,0.1,1.1
		c0,0.3,0.1,0.6,0.2,0.8h-2.3c0-0.1-0.1-0.3-0.1-0.4c0-0.1,0-0.3-0.1-0.4c-0.4,0.4-0.8,0.6-1.3,0.8s-1,0.2-1.5,0.2
		c-0.4,0-0.8-0.1-1.1-0.2c-0.3-0.1-0.6-0.3-0.9-0.5c-0.3-0.2-0.5-0.5-0.6-0.8c-0.1-0.3-0.2-0.7-0.2-1.1c0-0.5,0.1-0.9,0.2-1.2
		s0.4-0.5,0.6-0.7c0.3-0.2,0.6-0.3,0.9-0.4c0.3-0.1,0.7-0.2,1-0.2s0.7-0.1,1-0.1c0.3,0,0.6-0.1,0.9-0.1c0.3-0.1,0.5-0.2,0.6-0.3
		s0.2-0.3,0.2-0.5c0-0.2,0-0.4-0.1-0.6s-0.2-0.3-0.3-0.3c-0.1-0.1-0.3-0.1-0.5-0.2c-0.2,0-0.4,0-0.6,0c-0.4,0-0.8,0.1-1.1,0.3
		c-0.3,0.2-0.4,0.5-0.5,1H250.6z M255.9,36.9c-0.1,0.1-0.2,0.2-0.4,0.2c-0.1,0-0.3,0.1-0.5,0.1c-0.2,0-0.3,0.1-0.5,0.1
		s-0.4,0-0.5,0.1c-0.2,0-0.4,0.1-0.5,0.1c-0.2,0.1-0.3,0.1-0.4,0.2s-0.2,0.2-0.3,0.4c-0.1,0.1-0.1,0.3-0.1,0.5c0,0.2,0,0.4,0.1,0.5
		c0.1,0.1,0.2,0.2,0.3,0.3c0.1,0.1,0.3,0.1,0.5,0.2c0.2,0,0.3,0,0.5,0c0.5,0,0.8-0.1,1-0.2c0.2-0.2,0.4-0.3,0.5-0.5s0.2-0.4,0.2-0.6
		c0-0.2,0-0.4,0-0.5V36.9z"/>
	<path class="st1" d="M261,29.5h2.3V41H261V29.5z"/>
	<path class="st1" d="M267.9,37.4c0,0.7,0.2,1.3,0.6,1.6s0.8,0.5,1.5,0.5c0.5,0,0.9-0.1,1.2-0.3c0.3-0.2,0.5-0.5,0.6-0.7h2
		c-0.3,1-0.8,1.7-1.5,2.1c-0.7,0.4-1.5,0.7-2.4,0.7c-0.7,0-1.2-0.1-1.8-0.3c-0.5-0.2-1-0.5-1.3-0.9c-0.4-0.4-0.6-0.8-0.8-1.4
		s-0.3-1.1-0.3-1.8c0-0.6,0.1-1.2,0.3-1.7c0.2-0.5,0.5-1,0.9-1.4c0.4-0.4,0.8-0.7,1.3-0.9c0.5-0.2,1.1-0.3,1.7-0.3
		c0.7,0,1.3,0.1,1.8,0.4c0.5,0.3,1,0.6,1.3,1.1s0.6,1,0.7,1.6c0.2,0.6,0.2,1.2,0.2,1.8H267.9z M271.6,35.9c-0.1-0.6-0.3-1-0.6-1.3
		c-0.3-0.3-0.7-0.5-1.2-0.5c-0.4,0-0.7,0.1-0.9,0.2c-0.2,0.1-0.4,0.3-0.6,0.5c-0.1,0.2-0.2,0.4-0.3,0.6c-0.1,0.2-0.1,0.4-0.1,0.5
		H271.6z"/>
	<path class="st1" d="M278,38.3c0,0.2,0.1,0.5,0.2,0.6s0.2,0.3,0.4,0.4c0.2,0.1,0.3,0.2,0.6,0.2s0.4,0.1,0.7,0.1
		c0.2,0,0.3,0,0.5-0.1c0.2,0,0.3-0.1,0.5-0.2c0.1-0.1,0.3-0.2,0.4-0.3s0.1-0.3,0.1-0.5c0-0.2-0.1-0.3-0.2-0.4
		c-0.1-0.1-0.3-0.2-0.5-0.3s-0.5-0.2-0.8-0.3c-0.3-0.1-0.7-0.2-1.1-0.2c-0.3-0.1-0.7-0.2-1-0.3c-0.3-0.1-0.6-0.2-0.8-0.4
		c-0.2-0.2-0.4-0.4-0.6-0.6c-0.2-0.3-0.2-0.6-0.2-0.9c0-0.5,0.1-1,0.3-1.3c0.2-0.3,0.5-0.6,0.8-0.8c0.3-0.2,0.7-0.3,1.2-0.4
		c0.4-0.1,0.9-0.1,1.3-0.1s0.9,0,1.3,0.1c0.4,0.1,0.8,0.2,1.1,0.4c0.3,0.2,0.6,0.5,0.8,0.8s0.4,0.8,0.4,1.3h-2.2
		c0-0.4-0.2-0.7-0.5-0.9s-0.7-0.2-1.1-0.2c-0.1,0-0.3,0-0.4,0c-0.2,0-0.3,0.1-0.4,0.1s-0.2,0.1-0.3,0.2s-0.1,0.2-0.1,0.4
		c0,0.2,0.1,0.4,0.2,0.5c0.2,0.1,0.3,0.2,0.6,0.3c0.2,0.1,0.5,0.2,0.8,0.2s0.6,0.1,0.9,0.2c0.3,0.1,0.7,0.2,1,0.3s0.6,0.2,0.8,0.4
		c0.2,0.2,0.4,0.4,0.6,0.7c0.1,0.3,0.2,0.6,0.2,1c0,0.5-0.1,1-0.3,1.4c-0.2,0.4-0.5,0.7-0.9,0.9c-0.4,0.2-0.8,0.4-1.2,0.5
		c-0.5,0.1-0.9,0.1-1.4,0.1c-0.5,0-1,0-1.4-0.1c-0.5-0.1-0.9-0.3-1.2-0.5s-0.7-0.5-0.9-0.9c-0.2-0.4-0.4-0.8-0.4-1.4H278z"/>
</g>
</svg>
