<!-- Generator: Adobe Illustrator 20.1.0, SVG Export Plug-In  -->
<svg version="1.1"
	 xmlns="http://www.w3.org/2000/svg" xmlns:xlink="http://www.w3.org/1999/xlink" xmlns:a="http://ns.adobe.com/AdobeSVGViewerExtensions/3.0/"
	 x="0px" y="0px" width="544.2px" height="49.3px" viewBox="0 0 544.2 49.3"
	 style="overflow:scroll;enable-background:new 0 0 544.2 49.3;" xml:space="preserve">
<style type="text/css">
	.st0{fill:#FFFFFF;}
</style>
<defs>
</defs>
<g>
	<path class="st0" d="M19.7,9h7.9v2H22v2.3h5.1v1.8H22v2.6h5.7v2h-8V9z"/>
	<path class="st0" d="M30.7,17.1c0,0.2,0,0.4,0.1,0.6c0.1,0.2,0.2,0.3,0.4,0.4c0.1,0.1,0.3,0.2,0.5,0.2c0.2,0,0.4,0.1,0.6,0.1
		c0.1,0,0.3,0,0.5-0.1c0.2,0,0.3-0.1,0.4-0.2s0.2-0.2,0.3-0.3c0.1-0.1,0.1-0.3,0.1-0.5c0-0.2-0.1-0.3-0.2-0.4
		c-0.1-0.1-0.3-0.2-0.5-0.3c-0.2-0.1-0.5-0.2-0.8-0.2s-0.6-0.2-1-0.2c-0.3-0.1-0.6-0.2-0.9-0.2c-0.3-0.1-0.6-0.2-0.8-0.4
		s-0.4-0.3-0.5-0.6s-0.2-0.5-0.2-0.9c0-0.5,0.1-0.9,0.3-1.2c0.2-0.3,0.4-0.6,0.8-0.8c0.3-0.2,0.7-0.3,1.1-0.4
		c0.4-0.1,0.8-0.1,1.2-0.1c0.4,0,0.8,0,1.2,0.1c0.4,0.1,0.7,0.2,1,0.4c0.3,0.2,0.6,0.4,0.8,0.7c0.2,0.3,0.3,0.7,0.4,1.2h-2
		c0-0.4-0.2-0.7-0.5-0.8s-0.6-0.2-1-0.2c-0.1,0-0.2,0-0.4,0c-0.1,0-0.3,0-0.4,0.1c-0.1,0-0.2,0.1-0.3,0.2C31,13.6,31,13.7,31,13.9
		c0,0.2,0.1,0.3,0.2,0.5c0.1,0.1,0.3,0.2,0.5,0.3s0.5,0.1,0.8,0.2s0.6,0.1,0.9,0.2c0.3,0.1,0.6,0.2,0.9,0.3c0.3,0.1,0.6,0.2,0.8,0.4
		c0.2,0.2,0.4,0.4,0.5,0.6c0.1,0.2,0.2,0.5,0.2,0.9c0,0.5-0.1,0.9-0.3,1.3c-0.2,0.3-0.5,0.6-0.8,0.8s-0.7,0.4-1.1,0.4
		c-0.4,0.1-0.8,0.1-1.3,0.1c-0.4,0-0.9,0-1.3-0.1c-0.4-0.1-0.8-0.2-1.1-0.5c-0.3-0.2-0.6-0.5-0.8-0.8s-0.3-0.8-0.3-1.3H30.7z"/>
	<path class="st0" d="M39.7,12h1.5v1.4h-1.5v3.8c0,0.4,0.1,0.6,0.2,0.7c0.1,0.1,0.4,0.2,0.7,0.2c0.2,0,0.5,0,0.7-0.1v1.6
		c-0.2,0-0.4,0-0.6,0.1s-0.4,0-0.6,0c-0.3,0-0.6,0-0.9-0.1c-0.3,0-0.5-0.1-0.8-0.3s-0.4-0.3-0.5-0.6c-0.1-0.2-0.2-0.5-0.2-0.9v-4.5
		h-1.3V12h1.3V9.7h2.1V12z"/>
	<path class="st0" d="M42.3,12h2v1.4h0c0.1-0.2,0.2-0.5,0.4-0.7c0.2-0.2,0.4-0.4,0.6-0.5c0.2-0.1,0.5-0.3,0.7-0.3
		c0.3-0.1,0.5-0.1,0.8-0.1c0.2,0,0.3,0,0.5,0.1v2c-0.1,0-0.2,0-0.4-0.1s-0.3,0-0.4,0c-0.4,0-0.7,0.1-1,0.2c-0.3,0.1-0.5,0.3-0.6,0.5
		c-0.2,0.2-0.3,0.5-0.3,0.8s-0.1,0.6-0.1,1v3.5h-2.1V12z"/>
	<path class="st0" d="M49.8,16.3c0,0.7,0.2,1.2,0.5,1.5c0.3,0.3,0.8,0.5,1.4,0.5c0.4,0,0.8-0.1,1.1-0.3s0.5-0.4,0.6-0.7h1.9
		c-0.3,0.9-0.8,1.6-1.4,2c-0.6,0.4-1.4,0.6-2.2,0.6c-0.6,0-1.1-0.1-1.6-0.3c-0.5-0.2-0.9-0.5-1.2-0.8c-0.3-0.4-0.6-0.8-0.8-1.3
		c-0.2-0.5-0.3-1-0.3-1.6c0-0.6,0.1-1.1,0.3-1.6c0.2-0.5,0.5-0.9,0.8-1.3s0.8-0.6,1.2-0.9c0.5-0.2,1-0.3,1.6-0.3
		c0.7,0,1.2,0.1,1.7,0.4c0.5,0.3,0.9,0.6,1.2,1c0.3,0.4,0.5,0.9,0.7,1.5s0.2,1.1,0.1,1.7H49.8z M53.2,15c-0.1-0.5-0.3-0.9-0.5-1.2
		c-0.3-0.3-0.6-0.4-1.2-0.4c-0.3,0-0.6,0.1-0.8,0.2c-0.2,0.1-0.4,0.3-0.5,0.4c-0.1,0.2-0.2,0.3-0.3,0.5c-0.1,0.2-0.1,0.4-0.1,0.5
		H53.2z M51.9,11h-1.5l1.4-2.1h2.3L51.9,11z"/>
	<path class="st0" d="M58.2,17.1c0,0.2,0,0.4,0.1,0.6c0.1,0.2,0.2,0.3,0.4,0.4c0.1,0.1,0.3,0.2,0.5,0.2c0.2,0,0.4,0.1,0.6,0.1
		c0.1,0,0.3,0,0.5-0.1c0.2,0,0.3-0.1,0.4-0.2s0.2-0.2,0.3-0.3c0.1-0.1,0.1-0.3,0.1-0.5c0-0.2-0.1-0.3-0.2-0.4
		c-0.1-0.1-0.3-0.2-0.5-0.3c-0.2-0.1-0.5-0.2-0.8-0.2s-0.6-0.2-1-0.2c-0.3-0.1-0.6-0.2-0.9-0.2c-0.3-0.1-0.6-0.2-0.8-0.4
		s-0.4-0.3-0.5-0.6s-0.2-0.5-0.2-0.9c0-0.5,0.1-0.9,0.3-1.2c0.2-0.3,0.4-0.6,0.8-0.8c0.3-0.2,0.7-0.3,1.1-0.4
		c0.4-0.1,0.8-0.1,1.2-0.1c0.4,0,0.8,0,1.2,0.1c0.4,0.1,0.7,0.2,1,0.4c0.3,0.2,0.6,0.4,0.8,0.7c0.2,0.3,0.3,0.7,0.4,1.2h-2
		c0-0.4-0.2-0.7-0.5-0.8s-0.6-0.2-1-0.2c-0.1,0-0.2,0-0.4,0c-0.1,0-0.3,0-0.4,0.1c-0.1,0-0.2,0.1-0.3,0.2c-0.1,0.1-0.1,0.2-0.1,0.4
		c0,0.2,0.1,0.3,0.2,0.5c0.1,0.1,0.3,0.2,0.5,0.3s0.5,0.1,0.8,0.2s0.6,0.1,0.9,0.2c0.3,0.1,0.6,0.2,0.9,0.3c0.3,0.1,0.6,0.2,0.8,0.4
		c0.2,0.2,0.4,0.4,0.5,0.6c0.1,0.2,0.2,0.5,0.2,0.9c0,0.5-0.1,0.9-0.3,1.3c-0.2,0.3-0.5,0.6-0.8,0.8s-0.7,0.4-1.1,0.4
		c-0.4,0.1-0.8,0.1-1.3,0.1c-0.4,0-0.9,0-1.3-0.1c-0.4-0.1-0.8-0.2-1.1-0.5c-0.3-0.2-0.6-0.5-0.8-0.8s-0.3-0.8-0.3-1.3H58.2z"/>
	<path class="st0" d="M68.7,9h2.1v10.6h-2.1V9z"/>
	<path class="st0" d="M74.2,16.3c0,0.7,0.2,1.2,0.5,1.5c0.3,0.3,0.8,0.5,1.4,0.5c0.4,0,0.8-0.1,1.1-0.3s0.5-0.4,0.6-0.7h1.9
		c-0.3,0.9-0.8,1.6-1.4,2c-0.6,0.4-1.4,0.6-2.2,0.6c-0.6,0-1.1-0.1-1.6-0.3c-0.5-0.2-0.9-0.5-1.2-0.8c-0.3-0.4-0.6-0.8-0.8-1.3
		c-0.2-0.5-0.3-1-0.3-1.6c0-0.6,0.1-1.1,0.3-1.6c0.2-0.5,0.5-0.9,0.8-1.3s0.8-0.6,1.2-0.9c0.5-0.2,1-0.3,1.6-0.3
		c0.7,0,1.2,0.1,1.7,0.4c0.5,0.3,0.9,0.6,1.2,1c0.3,0.4,0.5,0.9,0.7,1.5s0.2,1.1,0.1,1.7H74.2z M77.7,15c-0.1-0.5-0.3-0.9-0.5-1.2
		c-0.3-0.3-0.6-0.4-1.2-0.4c-0.3,0-0.6,0.1-0.8,0.2c-0.2,0.1-0.4,0.3-0.5,0.4c-0.1,0.2-0.2,0.3-0.3,0.5c-0.1,0.2-0.1,0.4-0.1,0.5
		H77.7z"/>
	<path class="st0" d="M85.3,19.6h-2.3L80.3,12h2.2l1.6,5.2h0l1.6-5.2h2.1L85.3,19.6z"/>
	<path class="st0" d="M90.5,16.3c0,0.7,0.2,1.2,0.5,1.5c0.3,0.3,0.8,0.5,1.4,0.5c0.4,0,0.8-0.1,1.1-0.3s0.5-0.4,0.6-0.7h1.9
		c-0.3,0.9-0.8,1.6-1.4,2c-0.6,0.4-1.4,0.6-2.2,0.6c-0.6,0-1.1-0.1-1.6-0.3c-0.5-0.2-0.9-0.5-1.2-0.8c-0.3-0.4-0.6-0.8-0.8-1.3
		c-0.2-0.5-0.3-1-0.3-1.6c0-0.6,0.1-1.1,0.3-1.6c0.2-0.5,0.5-0.9,0.8-1.3s0.8-0.6,1.2-0.9c0.5-0.2,1-0.3,1.6-0.3
		c0.7,0,1.2,0.1,1.7,0.4c0.5,0.3,0.9,0.6,1.2,1c0.3,0.4,0.5,0.9,0.7,1.5s0.2,1.1,0.1,1.7H90.5z M93.9,15c-0.1-0.5-0.3-0.9-0.5-1.2
		c-0.3-0.3-0.6-0.4-1.2-0.4c-0.3,0-0.6,0.1-0.8,0.2c-0.2,0.1-0.4,0.3-0.5,0.4c-0.1,0.2-0.2,0.3-0.3,0.5c-0.1,0.2-0.1,0.4-0.1,0.5
		H93.9z"/>
	<path class="st0" d="M100.4,8.8h1.7L98,19.9h-1.7L100.4,8.8z"/>
	<path class="st0" d="M1.3,31.2H0v-1.4h1.3v-0.6c0-0.3,0.1-0.6,0.2-0.9c0.1-0.3,0.3-0.5,0.5-0.7s0.5-0.4,0.8-0.5
		c0.3-0.1,0.7-0.2,1.1-0.2c0.2,0,0.4,0,0.6,0c0.2,0,0.4,0,0.5,0v1.6c-0.3,0-0.5,0-0.8,0c-0.3,0-0.5,0.1-0.6,0.2S3.4,29,3.4,29.3v0.5
		h1.5v1.4H3.4v6.3H1.3V31.2z"/>
	<path class="st0" d="M5.7,32.1c0-0.5,0.2-0.9,0.4-1.2c0.2-0.3,0.5-0.6,0.8-0.8c0.3-0.2,0.7-0.3,1.1-0.4c0.4-0.1,0.8-0.1,1.3-0.1
		c0.4,0,0.8,0,1.2,0.1c0.4,0.1,0.8,0.2,1.1,0.3c0.3,0.2,0.6,0.4,0.8,0.7c0.2,0.3,0.3,0.7,0.3,1.1v4c0,0.3,0,0.7,0.1,1
		c0,0.3,0.1,0.6,0.2,0.7h-2.1c0-0.1-0.1-0.2-0.1-0.4c0-0.1,0-0.3-0.1-0.4c-0.3,0.3-0.7,0.6-1.2,0.7C9,37.6,8.5,37.7,8,37.7
		c-0.4,0-0.7,0-1-0.1c-0.3-0.1-0.6-0.2-0.8-0.4c-0.2-0.2-0.4-0.4-0.6-0.7c-0.1-0.3-0.2-0.6-0.2-1c0-0.4,0.1-0.8,0.2-1.1
		s0.3-0.5,0.6-0.7s0.5-0.3,0.8-0.4s0.6-0.2,1-0.2c0.3,0,0.6-0.1,0.9-0.1c0.3,0,0.6-0.1,0.8-0.1c0.2-0.1,0.4-0.1,0.6-0.3
		c0.1-0.1,0.2-0.3,0.2-0.5c0-0.2,0-0.4-0.1-0.5s-0.2-0.2-0.3-0.3C10,31.1,9.8,31,9.7,31c-0.2,0-0.3,0-0.5,0c-0.4,0-0.7,0.1-1,0.3
		c-0.2,0.2-0.4,0.5-0.4,0.9H5.7z M10.5,33.7c-0.1,0.1-0.2,0.1-0.3,0.2c-0.1,0-0.3,0.1-0.4,0.1c-0.2,0-0.3,0.1-0.5,0.1
		s-0.3,0-0.5,0.1c-0.2,0-0.3,0.1-0.5,0.1c-0.1,0-0.3,0.1-0.4,0.2c-0.1,0.1-0.2,0.2-0.3,0.3s-0.1,0.3-0.1,0.5c0,0.2,0,0.4,0.1,0.5
		S7.8,36,7.9,36c0.1,0.1,0.3,0.1,0.4,0.2c0.2,0,0.3,0,0.5,0c0.4,0,0.7-0.1,1-0.2c0.2-0.1,0.4-0.3,0.5-0.5c0.1-0.2,0.2-0.4,0.2-0.6
		c0-0.2,0-0.4,0-0.5V33.7z"/>
	<path class="st0" d="M14.3,26.8h2.1v10.6h-2.1V26.8z"/>
	<path class="st0" d="M20.8,29.8h1.5v1.4h-1.5V35c0,0.4,0.1,0.6,0.2,0.7c0.1,0.1,0.4,0.2,0.7,0.2c0.2,0,0.5,0,0.7-0.1v1.6
		c-0.2,0-0.4,0-0.6,0.1s-0.4,0-0.6,0c-0.3,0-0.6,0-0.9-0.1c-0.3,0-0.5-0.1-0.8-0.3s-0.4-0.3-0.5-0.6c-0.1-0.2-0.2-0.5-0.2-0.9v-4.5
		h-1.3v-1.4h1.3v-2.3h2.1V29.8z"/>
	<path class="st0" d="M23.2,32.1c0-0.5,0.2-0.9,0.4-1.2c0.2-0.3,0.5-0.6,0.8-0.8c0.3-0.2,0.7-0.3,1.1-0.4c0.4-0.1,0.8-0.1,1.3-0.1
		c0.4,0,0.8,0,1.2,0.1c0.4,0.1,0.8,0.2,1.1,0.3c0.3,0.2,0.6,0.4,0.8,0.7c0.2,0.3,0.3,0.7,0.3,1.1v4c0,0.3,0,0.7,0.1,1
		c0,0.3,0.1,0.6,0.2,0.7h-2.1c0-0.1-0.1-0.2-0.1-0.4c0-0.1,0-0.3-0.1-0.4c-0.3,0.3-0.7,0.6-1.2,0.7c-0.5,0.1-0.9,0.2-1.4,0.2
		c-0.4,0-0.7,0-1-0.1c-0.3-0.1-0.6-0.2-0.8-0.4c-0.2-0.2-0.4-0.4-0.6-0.7c-0.1-0.3-0.2-0.6-0.2-1c0-0.4,0.1-0.8,0.2-1.1
		s0.3-0.5,0.6-0.7s0.5-0.3,0.8-0.4s0.6-0.2,1-0.2c0.3,0,0.6-0.1,0.9-0.1c0.3,0,0.6-0.1,0.8-0.1c0.2-0.1,0.4-0.1,0.6-0.3
		c0.1-0.1,0.2-0.3,0.2-0.5c0-0.2,0-0.4-0.1-0.5s-0.2-0.2-0.3-0.3c-0.1-0.1-0.3-0.1-0.4-0.1c-0.2,0-0.3,0-0.5,0c-0.4,0-0.7,0.1-1,0.3
		c-0.2,0.2-0.4,0.5-0.4,0.9H23.2z M28.1,33.7c-0.1,0.1-0.2,0.1-0.3,0.2c-0.1,0-0.3,0.1-0.4,0.1c-0.2,0-0.3,0.1-0.5,0.1
		s-0.3,0-0.5,0.1c-0.2,0-0.3,0.1-0.5,0.1c-0.1,0-0.3,0.1-0.4,0.2c-0.1,0.1-0.2,0.2-0.3,0.3s-0.1,0.3-0.1,0.5c0,0.2,0,0.4,0.1,0.5
		s0.2,0.2,0.3,0.3c0.1,0.1,0.3,0.1,0.4,0.2c0.2,0,0.3,0,0.5,0c0.4,0,0.7-0.1,1-0.2c0.2-0.1,0.4-0.3,0.5-0.5c0.1-0.2,0.2-0.4,0.2-0.6
		c0-0.2,0-0.4,0-0.5V33.7z"/>
	<path class="st0" d="M41.4,36.5L41.4,36.5c-0.3,0.4-0.6,0.7-1,0.9c-0.4,0.2-0.9,0.3-1.4,0.3c-0.6,0-1.1-0.1-1.5-0.3
		c-0.4-0.2-0.8-0.5-1.1-0.9s-0.5-0.8-0.6-1.3c-0.1-0.5-0.2-1-0.2-1.5c0-0.5,0.1-1,0.2-1.5c0.1-0.5,0.4-0.9,0.6-1.3s0.6-0.7,1.1-0.9
		c0.4-0.2,0.9-0.3,1.5-0.3c0.5,0,0.9,0.1,1.3,0.3c0.4,0.2,0.7,0.5,1,0.9h0v-3.9h2.1v10.6h-2V36.5z M41.4,33.6c0-0.3,0-0.6-0.1-0.9
		s-0.2-0.6-0.3-0.8c-0.1-0.2-0.3-0.4-0.6-0.5s-0.5-0.2-0.9-0.2c-0.3,0-0.6,0.1-0.9,0.2c-0.2,0.1-0.4,0.3-0.6,0.5s-0.2,0.5-0.3,0.8
		s-0.1,0.6-0.1,0.9c0,0.3,0,0.6,0.1,0.9s0.2,0.6,0.3,0.8s0.3,0.4,0.6,0.6c0.2,0.1,0.5,0.2,0.8,0.2c0.3,0,0.6-0.1,0.9-0.2
		s0.4-0.3,0.6-0.6s0.2-0.5,0.3-0.8S41.4,33.9,41.4,33.6z"/>
	<path class="st0" d="M46.8,34.1c0,0.7,0.2,1.2,0.5,1.5c0.3,0.3,0.8,0.5,1.4,0.5c0.4,0,0.8-0.1,1.1-0.3s0.5-0.4,0.6-0.7h1.9
		c-0.3,0.9-0.8,1.6-1.4,2c-0.6,0.4-1.4,0.6-2.2,0.6c-0.6,0-1.1-0.1-1.6-0.3c-0.5-0.2-0.9-0.5-1.2-0.8c-0.3-0.4-0.6-0.8-0.8-1.3
		c-0.2-0.5-0.3-1-0.3-1.6c0-0.6,0.1-1.1,0.3-1.6c0.2-0.5,0.5-0.9,0.8-1.3s0.8-0.6,1.2-0.9c0.5-0.2,1-0.3,1.6-0.3
		c0.7,0,1.2,0.1,1.7,0.4c0.5,0.3,0.9,0.6,1.2,1c0.3,0.4,0.5,0.9,0.7,1.5s0.2,1.1,0.1,1.7H46.8z M50.2,32.8c-0.1-0.5-0.3-0.9-0.5-1.2
		c-0.3-0.3-0.6-0.4-1.2-0.4c-0.3,0-0.6,0.1-0.8,0.2c-0.2,0.1-0.4,0.3-0.5,0.4c-0.1,0.2-0.2,0.3-0.3,0.5c-0.1,0.2-0.1,0.4-0.1,0.5
		H50.2z"/>
	<path class="st0" d="M61.9,37.4h-2.3l-2.6-7.7h2.2l1.6,5.2h0l1.6-5.2h2.1L61.9,37.4z"/>
	<path class="st0" d="M67.6,28.6h-2.1v-1.7h2.1V28.6z M65.5,29.8h2.1v7.7h-2.1V29.8z"/>
	<path class="st0" d="M71.9,29.8h1.5v1.4h-1.5V35c0,0.4,0.1,0.6,0.2,0.7c0.1,0.1,0.4,0.2,0.7,0.2c0.2,0,0.5,0,0.7-0.1v1.6
		c-0.2,0-0.4,0-0.6,0.1s-0.4,0-0.6,0c-0.3,0-0.6,0-0.9-0.1c-0.3,0-0.5-0.1-0.8-0.3s-0.4-0.3-0.5-0.6c-0.1-0.2-0.2-0.5-0.2-0.9v-4.5
		h-1.3v-1.4h1.3v-2.3h2.1V29.8z"/>
	<path class="st0" d="M74.4,32.1c0-0.5,0.2-0.9,0.4-1.2c0.2-0.3,0.5-0.6,0.8-0.8c0.3-0.2,0.7-0.3,1.1-0.4c0.4-0.1,0.8-0.1,1.3-0.1
		c0.4,0,0.8,0,1.2,0.1c0.4,0.1,0.8,0.2,1.1,0.3c0.3,0.2,0.6,0.4,0.8,0.7c0.2,0.3,0.3,0.7,0.3,1.1v4c0,0.3,0,0.7,0.1,1
		c0,0.3,0.1,0.6,0.2,0.7h-2.1c0-0.1-0.1-0.2-0.1-0.4c0-0.1,0-0.3-0.1-0.4c-0.3,0.3-0.7,0.6-1.2,0.7c-0.5,0.1-0.9,0.2-1.4,0.2
		c-0.4,0-0.7,0-1-0.1c-0.3-0.1-0.6-0.2-0.8-0.4c-0.2-0.2-0.4-0.4-0.6-0.7c-0.1-0.3-0.2-0.6-0.2-1c0-0.4,0.1-0.8,0.2-1.1
		s0.3-0.5,0.6-0.7s0.5-0.3,0.8-0.4s0.6-0.2,1-0.2c0.3,0,0.6-0.1,0.9-0.1c0.3,0,0.6-0.1,0.8-0.1c0.2-0.1,0.4-0.1,0.6-0.3
		c0.1-0.1,0.2-0.3,0.2-0.5c0-0.2,0-0.4-0.1-0.5s-0.2-0.2-0.3-0.3c-0.1-0.1-0.3-0.1-0.4-0.1c-0.2,0-0.3,0-0.5,0c-0.4,0-0.7,0.1-1,0.3
		c-0.2,0.2-0.4,0.5-0.4,0.9H74.4z M79.2,33.7c-0.1,0.1-0.2,0.1-0.3,0.2c-0.1,0-0.3,0.1-0.4,0.1c-0.2,0-0.3,0.1-0.5,0.1
		s-0.3,0-0.5,0.1c-0.2,0-0.3,0.1-0.5,0.1c-0.1,0-0.3,0.1-0.4,0.2c-0.1,0.1-0.2,0.2-0.3,0.3s-0.1,0.3-0.1,0.5c0,0.2,0,0.4,0.1,0.5
		s0.2,0.2,0.3,0.3c0.1,0.1,0.3,0.1,0.4,0.2c0.2,0,0.3,0,0.5,0c0.4,0,0.7-0.1,1-0.2c0.2-0.1,0.4-0.3,0.5-0.5c0.1-0.2,0.2-0.4,0.2-0.6
		c0-0.2,0-0.4,0-0.5V33.7z"/>
	<path class="st0" d="M83,26.8h2.1v10.6H83V26.8z"/>
	<path class="st0" d="M89,28.6h-2.1v-1.7H89V28.6z M86.9,29.8H89v7.7h-2.1V29.8z"/>
	<path class="st0" d="M96.1,36.5L96.1,36.5c-0.3,0.4-0.6,0.7-1,0.9c-0.4,0.2-0.9,0.3-1.4,0.3c-0.6,0-1.1-0.1-1.5-0.3
		c-0.4-0.2-0.8-0.5-1.1-0.9s-0.5-0.8-0.6-1.3c-0.1-0.5-0.2-1-0.2-1.5c0-0.5,0.1-1,0.2-1.5c0.1-0.5,0.4-0.9,0.6-1.3s0.6-0.7,1.1-0.9
		c0.4-0.2,0.9-0.3,1.5-0.3c0.5,0,0.9,0.1,1.3,0.3c0.4,0.2,0.7,0.5,1,0.9h0v-3.9h2.1v10.6h-2V36.5z M96.1,33.6c0-0.3,0-0.6-0.1-0.9
		s-0.2-0.6-0.3-0.8c-0.1-0.2-0.3-0.4-0.6-0.5s-0.5-0.2-0.9-0.2c-0.3,0-0.6,0.1-0.9,0.2c-0.2,0.1-0.4,0.3-0.6,0.5s-0.2,0.5-0.3,0.8
		s-0.1,0.6-0.1,0.9c0,0.3,0,0.6,0.1,0.9s0.2,0.6,0.3,0.8s0.3,0.4,0.6,0.6c0.2,0.1,0.5,0.2,0.8,0.2c0.3,0,0.6-0.1,0.9-0.2
		s0.4-0.3,0.6-0.6s0.2-0.5,0.3-0.8S96.1,33.9,96.1,33.6z"/>
	<path class="st0" d="M99.6,32.1c0-0.5,0.2-0.9,0.4-1.2c0.2-0.3,0.5-0.6,0.8-0.8c0.3-0.2,0.7-0.3,1.1-0.4c0.4-0.1,0.8-0.1,1.3-0.1
		c0.4,0,0.8,0,1.2,0.1c0.4,0.1,0.8,0.2,1.1,0.3c0.3,0.2,0.6,0.4,0.8,0.7c0.2,0.3,0.3,0.7,0.3,1.1v4c0,0.3,0,0.7,0.1,1
		c0,0.3,0.1,0.6,0.2,0.7h-2.1c0-0.1-0.1-0.2-0.1-0.4c0-0.1,0-0.3-0.1-0.4c-0.3,0.3-0.7,0.6-1.2,0.7c-0.5,0.1-0.9,0.2-1.4,0.2
		c-0.4,0-0.7,0-1-0.1c-0.3-0.1-0.6-0.2-0.8-0.4c-0.2-0.2-0.4-0.4-0.6-0.7c-0.1-0.3-0.2-0.6-0.2-1c0-0.4,0.1-0.8,0.2-1.1
		s0.3-0.5,0.6-0.7s0.5-0.3,0.8-0.4s0.6-0.2,1-0.2c0.3,0,0.6-0.1,0.9-0.1c0.3,0,0.6-0.1,0.8-0.1c0.2-0.1,0.4-0.1,0.6-0.3
		c0.1-0.1,0.2-0.3,0.2-0.5c0-0.2,0-0.4-0.1-0.5s-0.2-0.2-0.3-0.3c-0.1-0.1-0.3-0.1-0.4-0.1c-0.2,0-0.3,0-0.5,0c-0.4,0-0.7,0.1-1,0.3
		c-0.2,0.2-0.4,0.5-0.4,0.9H99.6z M104.5,33.7c-0.1,0.1-0.2,0.1-0.3,0.2c-0.1,0-0.3,0.1-0.4,0.1c-0.2,0-0.3,0.1-0.5,0.1
		s-0.3,0-0.5,0.1c-0.2,0-0.3,0.1-0.5,0.1c-0.1,0-0.3,0.1-0.4,0.2c-0.1,0.1-0.2,0.2-0.3,0.3s-0.1,0.3-0.1,0.5c0,0.2,0,0.4,0.1,0.5
		s0.2,0.2,0.3,0.3c0.1,0.1,0.3,0.1,0.4,0.2c0.2,0,0.3,0,0.5,0c0.4,0,0.7-0.1,1-0.2c0.2-0.1,0.4-0.3,0.5-0.5c0.1-0.2,0.2-0.4,0.2-0.6
		c0-0.2,0-0.4,0-0.5V33.7z"/>
	<path class="st0" d="M113.7,36.5L113.7,36.5c-0.3,0.4-0.6,0.7-1,0.9c-0.4,0.2-0.9,0.3-1.4,0.3c-0.6,0-1.1-0.1-1.5-0.3
		c-0.4-0.2-0.8-0.5-1.1-0.9s-0.5-0.8-0.6-1.3c-0.1-0.5-0.2-1-0.2-1.5c0-0.5,0.1-1,0.2-1.5c0.1-0.5,0.4-0.9,0.6-1.3s0.6-0.7,1.1-0.9
		c0.4-0.2,0.9-0.3,1.5-0.3c0.5,0,0.9,0.1,1.3,0.3c0.4,0.2,0.7,0.5,1,0.9h0v-3.9h2.1v10.6h-2V36.5z M113.7,33.6c0-0.3,0-0.6-0.1-0.9
		s-0.2-0.6-0.3-0.8c-0.1-0.2-0.3-0.4-0.6-0.5s-0.5-0.2-0.9-0.2c-0.3,0-0.6,0.1-0.9,0.2c-0.2,0.1-0.4,0.3-0.6,0.5s-0.2,0.5-0.3,0.8
		s-0.1,0.6-0.1,0.9c0,0.3,0,0.6,0.1,0.9s0.2,0.6,0.3,0.8s0.3,0.4,0.6,0.6c0.2,0.1,0.5,0.2,0.8,0.2c0.3,0,0.6-0.1,0.9-0.2
		s0.4-0.3,0.6-0.6s0.2-0.5,0.3-0.8S113.7,33.9,113.7,33.6z"/>
	<path class="st0" d="M117.4,35.2h2.3v2.3h-2.3V35.2z"/>
</g>
<g>
	<path class="st0" d="M208.3,0.1h7.9v2h-5.6v2.3h5.1v1.8h-5.1v2.6h5.7v2h-8V0.1z"/>
	<path class="st0" d="M219.4,8.2c0,0.2,0,0.4,0.1,0.6c0.1,0.2,0.2,0.3,0.4,0.4c0.1,0.1,0.3,0.2,0.5,0.2c0.2,0,0.4,0.1,0.6,0.1
		c0.1,0,0.3,0,0.5-0.1c0.2,0,0.3-0.1,0.4-0.2s0.2-0.2,0.3-0.3c0.1-0.1,0.1-0.3,0.1-0.5c0-0.2-0.1-0.3-0.2-0.4
		c-0.1-0.1-0.3-0.2-0.5-0.3c-0.2-0.1-0.5-0.2-0.8-0.2s-0.6-0.2-1-0.2c-0.3-0.1-0.6-0.2-0.9-0.2c-0.3-0.1-0.6-0.2-0.8-0.4
		s-0.4-0.3-0.5-0.6s-0.2-0.5-0.2-0.9c0-0.5,0.1-0.9,0.3-1.2c0.2-0.3,0.4-0.6,0.8-0.8c0.3-0.2,0.7-0.3,1.1-0.4
		c0.4-0.1,0.8-0.1,1.2-0.1c0.4,0,0.8,0,1.2,0.1c0.4,0.1,0.7,0.2,1,0.4c0.3,0.2,0.6,0.4,0.8,0.7c0.2,0.3,0.3,0.7,0.4,1.2h-2
		c0-0.4-0.2-0.7-0.5-0.8s-0.6-0.2-1-0.2c-0.1,0-0.2,0-0.4,0c-0.1,0-0.3,0-0.4,0.1c-0.1,0-0.2,0.1-0.3,0.2c-0.1,0.1-0.1,0.2-0.1,0.4
		c0,0.2,0.1,0.3,0.2,0.5c0.1,0.1,0.3,0.2,0.5,0.3s0.5,0.1,0.8,0.2s0.6,0.1,0.9,0.2c0.3,0.1,0.6,0.2,0.9,0.3c0.3,0.1,0.6,0.2,0.8,0.4
		c0.2,0.2,0.4,0.4,0.5,0.6c0.1,0.2,0.2,0.5,0.2,0.9c0,0.5-0.1,0.9-0.3,1.3c-0.2,0.3-0.5,0.6-0.8,0.8s-0.7,0.4-1.1,0.4
		c-0.4,0.1-0.8,0.1-1.3,0.1c-0.4,0-0.9,0-1.3-0.1c-0.4-0.1-0.8-0.2-1.1-0.5c-0.3-0.2-0.6-0.5-0.8-0.8s-0.3-0.8-0.3-1.3H219.4z"/>
	<path class="st0" d="M228.4,3.1h1.5v1.4h-1.5v3.8c0,0.4,0.1,0.6,0.2,0.7c0.1,0.1,0.4,0.2,0.7,0.2c0.2,0,0.5,0,0.7-0.1v1.6
		c-0.2,0-0.4,0-0.6,0.1s-0.4,0-0.6,0c-0.3,0-0.6,0-0.9-0.1c-0.3,0-0.5-0.1-0.8-0.3s-0.4-0.3-0.5-0.6c-0.1-0.2-0.2-0.5-0.2-0.9V4.5
		H225V3.1h1.3V0.8h2.1V3.1z"/>
	<path class="st0" d="M230.9,3.1h2v1.4h0c0.1-0.2,0.2-0.5,0.4-0.7c0.2-0.2,0.4-0.4,0.6-0.5c0.2-0.1,0.5-0.3,0.7-0.3
		c0.3-0.1,0.5-0.1,0.8-0.1c0.2,0,0.3,0,0.5,0.1v2c-0.1,0-0.2,0-0.4-0.1s-0.3,0-0.4,0c-0.4,0-0.7,0.1-1,0.2c-0.3,0.1-0.5,0.3-0.6,0.5
		c-0.2,0.2-0.3,0.5-0.3,0.8s-0.1,0.6-0.1,1v3.5h-2.1V3.1z"/>
	<path class="st0" d="M238.4,7.4c0,0.7,0.2,1.2,0.5,1.5c0.3,0.3,0.8,0.5,1.4,0.5c0.4,0,0.8-0.1,1.1-0.3s0.5-0.4,0.6-0.7h1.9
		c-0.3,0.9-0.8,1.6-1.4,2c-0.6,0.4-1.4,0.6-2.2,0.6c-0.6,0-1.1-0.1-1.6-0.3c-0.5-0.2-0.9-0.5-1.2-0.8c-0.3-0.4-0.6-0.8-0.8-1.3
		c-0.2-0.5-0.3-1-0.3-1.6c0-0.6,0.1-1.1,0.3-1.6c0.2-0.5,0.5-0.9,0.8-1.3s0.8-0.6,1.2-0.9c0.5-0.2,1-0.3,1.6-0.3
		c0.7,0,1.2,0.1,1.7,0.4c0.5,0.3,0.9,0.6,1.2,1c0.3,0.4,0.5,0.9,0.7,1.5s0.2,1.1,0.1,1.7H238.4z M241.9,6.1
		c-0.1-0.5-0.3-0.9-0.5-1.2c-0.3-0.3-0.6-0.4-1.2-0.4c-0.3,0-0.6,0.1-0.8,0.2c-0.2,0.1-0.4,0.3-0.5,0.4c-0.1,0.2-0.2,0.3-0.3,0.5
		c-0.1,0.2-0.1,0.4-0.1,0.5H241.9z M240.5,2.1h-1.5l1.4-2.1h2.3L240.5,2.1z"/>
	<path class="st0" d="M246.9,8.2c0,0.2,0,0.4,0.1,0.6c0.1,0.2,0.2,0.3,0.4,0.4c0.1,0.1,0.3,0.2,0.5,0.2c0.2,0,0.4,0.1,0.6,0.1
		c0.1,0,0.3,0,0.5-0.1c0.2,0,0.3-0.1,0.4-0.2s0.2-0.2,0.3-0.3c0.1-0.1,0.1-0.3,0.1-0.5c0-0.2-0.1-0.3-0.2-0.4
		c-0.1-0.1-0.3-0.2-0.5-0.3c-0.2-0.1-0.5-0.2-0.8-0.2s-0.6-0.2-1-0.2c-0.3-0.1-0.6-0.2-0.9-0.2c-0.3-0.1-0.6-0.2-0.8-0.4
		s-0.4-0.3-0.5-0.6S245,5.6,245,5.3c0-0.5,0.1-0.9,0.3-1.2c0.2-0.3,0.4-0.6,0.8-0.8c0.3-0.2,0.7-0.3,1.1-0.4
		c0.4-0.1,0.8-0.1,1.2-0.1c0.4,0,0.8,0,1.2,0.1c0.4,0.1,0.7,0.2,1,0.4c0.3,0.2,0.6,0.4,0.8,0.7c0.2,0.3,0.3,0.7,0.4,1.2h-2
		c0-0.4-0.2-0.7-0.5-0.8s-0.6-0.2-1-0.2c-0.1,0-0.2,0-0.4,0c-0.1,0-0.3,0-0.4,0.1c-0.1,0-0.2,0.1-0.3,0.2c-0.1,0.1-0.1,0.2-0.1,0.4
		c0,0.2,0.1,0.3,0.2,0.5c0.1,0.1,0.3,0.2,0.5,0.3s0.5,0.1,0.8,0.2s0.6,0.1,0.9,0.2c0.3,0.1,0.6,0.2,0.9,0.3c0.3,0.1,0.6,0.2,0.8,0.4
		c0.2,0.2,0.4,0.4,0.5,0.6c0.1,0.2,0.2,0.5,0.2,0.9c0,0.5-0.1,0.9-0.3,1.3c-0.2,0.3-0.5,0.6-0.8,0.8s-0.7,0.4-1.1,0.4
		c-0.4,0.1-0.8,0.1-1.3,0.1c-0.4,0-0.9,0-1.3-0.1c-0.4-0.1-0.8-0.2-1.1-0.5c-0.3-0.2-0.6-0.5-0.8-0.8s-0.3-0.8-0.3-1.3H246.9z"/>
	<path class="st0" d="M208.1,20.9h2v1h0c0.3-0.4,0.6-0.7,1-0.9c0.4-0.2,0.8-0.3,1.3-0.3c0.6,0,1.1,0.1,1.6,0.3
		c0.4,0.2,0.8,0.5,1.1,0.9c0.3,0.4,0.5,0.8,0.6,1.3c0.1,0.5,0.2,1,0.2,1.6c0,0.5-0.1,1-0.2,1.5c-0.1,0.5-0.3,0.9-0.6,1.3
		c-0.3,0.4-0.6,0.7-1.1,0.9s-0.9,0.3-1.5,0.3c-0.5,0-0.9-0.1-1.3-0.3c-0.4-0.2-0.7-0.5-1-0.9h0v3.7h-2.1V20.9z M212,27.2
		c0.3,0,0.6-0.1,0.9-0.2c0.2-0.1,0.4-0.3,0.6-0.5s0.2-0.5,0.3-0.8c0.1-0.3,0.1-0.6,0.1-0.9c0-0.3,0-0.6-0.1-0.9s-0.2-0.6-0.3-0.8
		s-0.3-0.4-0.6-0.6c-0.2-0.1-0.5-0.2-0.9-0.2c-0.3,0-0.6,0.1-0.9,0.2c-0.2,0.1-0.4,0.3-0.6,0.6c-0.1,0.2-0.2,0.5-0.3,0.8
		c-0.1,0.3-0.1,0.6-0.1,0.9c0,0.3,0,0.6,0.1,0.9c0.1,0.3,0.2,0.5,0.3,0.8s0.3,0.4,0.6,0.5S211.6,27.2,212,27.2z"/>
	<path class="st0" d="M218.9,25.2c0,0.7,0.2,1.2,0.5,1.5c0.3,0.3,0.8,0.5,1.4,0.5c0.4,0,0.8-0.1,1.1-0.3s0.5-0.4,0.6-0.7h1.9
		c-0.3,0.9-0.8,1.6-1.4,2c-0.6,0.4-1.4,0.6-2.2,0.6c-0.6,0-1.1-0.1-1.6-0.3c-0.5-0.2-0.9-0.5-1.2-0.8c-0.3-0.4-0.6-0.8-0.8-1.3
		c-0.2-0.5-0.3-1-0.3-1.6c0-0.6,0.1-1.1,0.3-1.6c0.2-0.5,0.5-0.9,0.8-1.3s0.8-0.6,1.2-0.9c0.5-0.2,1-0.3,1.6-0.3
		c0.7,0,1.2,0.1,1.7,0.4c0.5,0.3,0.9,0.6,1.2,1c0.3,0.4,0.5,0.9,0.7,1.5s0.2,1.1,0.1,1.7H218.9z M222.4,23.9
		c-0.1-0.5-0.3-0.9-0.5-1.2c-0.3-0.3-0.6-0.4-1.2-0.4c-0.3,0-0.6,0.1-0.8,0.2c-0.2,0.1-0.4,0.3-0.5,0.4c-0.1,0.2-0.2,0.3-0.3,0.5
		c-0.1,0.2-0.1,0.4-0.1,0.5H222.4z"/>
	<path class="st0" d="M225.7,20.9h2v1.4h0c0.1-0.2,0.2-0.5,0.4-0.7c0.2-0.2,0.4-0.4,0.6-0.5c0.2-0.1,0.5-0.3,0.7-0.3
		c0.3-0.1,0.5-0.1,0.8-0.1c0.2,0,0.3,0,0.5,0.1v2c-0.1,0-0.2,0-0.4-0.1s-0.3,0-0.4,0c-0.4,0-0.7,0.1-1,0.2c-0.3,0.1-0.5,0.3-0.6,0.5
		c-0.2,0.2-0.3,0.5-0.3,0.8s-0.1,0.6-0.1,1v3.5h-2.1V20.9z"/>
	<path class="st0" d="M233.1,26c0,0.2,0,0.4,0.1,0.6c0.1,0.2,0.2,0.3,0.4,0.4c0.1,0.1,0.3,0.2,0.5,0.2c0.2,0,0.4,0.1,0.6,0.1
		c0.1,0,0.3,0,0.5-0.1c0.2,0,0.3-0.1,0.4-0.2s0.2-0.2,0.3-0.3c0.1-0.1,0.1-0.3,0.1-0.5c0-0.2-0.1-0.3-0.2-0.4
		c-0.1-0.1-0.3-0.2-0.5-0.3c-0.2-0.1-0.5-0.2-0.8-0.2s-0.6-0.2-1-0.2c-0.3-0.1-0.6-0.2-0.9-0.2c-0.3-0.1-0.6-0.2-0.8-0.4
		s-0.4-0.3-0.5-0.6s-0.2-0.5-0.2-0.9c0-0.5,0.1-0.9,0.3-1.2c0.2-0.3,0.4-0.6,0.8-0.8c0.3-0.2,0.7-0.3,1.1-0.4
		c0.4-0.1,0.8-0.1,1.2-0.1c0.4,0,0.8,0,1.2,0.1c0.4,0.1,0.7,0.2,1,0.4c0.3,0.2,0.6,0.4,0.8,0.7c0.2,0.3,0.3,0.7,0.4,1.2h-2
		c0-0.4-0.2-0.7-0.5-0.8s-0.6-0.2-1-0.2c-0.1,0-0.2,0-0.4,0c-0.1,0-0.3,0-0.4,0.1c-0.1,0-0.2,0.1-0.3,0.2c-0.1,0.1-0.1,0.2-0.1,0.4
		c0,0.2,0.1,0.3,0.2,0.5c0.1,0.1,0.3,0.2,0.5,0.3s0.5,0.1,0.8,0.2s0.6,0.1,0.9,0.2c0.3,0.1,0.6,0.2,0.9,0.3c0.3,0.1,0.6,0.2,0.8,0.4
		c0.2,0.2,0.4,0.4,0.5,0.6c0.1,0.2,0.2,0.5,0.2,0.9c0,0.5-0.1,0.9-0.3,1.3c-0.2,0.3-0.5,0.6-0.8,0.8s-0.7,0.4-1.1,0.4
		c-0.4,0.1-0.8,0.1-1.3,0.1c-0.4,0-0.9,0-1.3-0.1c-0.4-0.1-0.8-0.2-1.1-0.5c-0.3-0.2-0.6-0.5-0.8-0.8s-0.3-0.8-0.3-1.3H233.1z"/>
	<path class="st0" d="M241.6,19.7h-2.1v-1.7h2.1V19.7z M239.5,20.9h2.1v7.7h-2.1V20.9z"/>
	<path class="st0" d="M244.9,26c0,0.2,0,0.4,0.1,0.6c0.1,0.2,0.2,0.3,0.4,0.4c0.1,0.1,0.3,0.2,0.5,0.2c0.2,0,0.4,0.1,0.6,0.1
		c0.1,0,0.3,0,0.5-0.1c0.2,0,0.3-0.1,0.4-0.2s0.2-0.2,0.3-0.3c0.1-0.1,0.1-0.3,0.1-0.5c0-0.2-0.1-0.3-0.2-0.4
		c-0.1-0.1-0.3-0.2-0.5-0.3c-0.2-0.1-0.5-0.2-0.8-0.2s-0.6-0.2-1-0.2c-0.3-0.1-0.6-0.2-0.9-0.2c-0.3-0.1-0.6-0.2-0.8-0.4
		s-0.4-0.3-0.5-0.6s-0.2-0.5-0.2-0.9c0-0.5,0.1-0.9,0.3-1.2c0.2-0.3,0.4-0.6,0.8-0.8c0.3-0.2,0.7-0.3,1.1-0.4
		c0.4-0.1,0.8-0.1,1.2-0.1c0.4,0,0.8,0,1.2,0.1c0.4,0.1,0.7,0.2,1,0.4c0.3,0.2,0.6,0.4,0.8,0.7c0.2,0.3,0.3,0.7,0.4,1.2h-2
		c0-0.4-0.2-0.7-0.5-0.8s-0.6-0.2-1-0.2c-0.1,0-0.2,0-0.4,0c-0.1,0-0.3,0-0.4,0.1c-0.1,0-0.2,0.1-0.3,0.2c-0.1,0.1-0.1,0.2-0.1,0.4
		c0,0.2,0.1,0.3,0.2,0.5c0.1,0.1,0.3,0.2,0.5,0.3s0.5,0.1,0.8,0.2s0.6,0.1,0.9,0.2c0.3,0.1,0.6,0.2,0.9,0.3c0.3,0.1,0.6,0.2,0.8,0.4
		c0.2,0.2,0.4,0.4,0.5,0.6c0.1,0.2,0.2,0.5,0.2,0.9c0,0.5-0.1,0.9-0.3,1.3c-0.2,0.3-0.5,0.6-0.8,0.8s-0.7,0.4-1.1,0.4
		c-0.4,0.1-0.8,0.1-1.3,0.1c-0.4,0-0.9,0-1.3-0.1c-0.4-0.1-0.8-0.2-1.1-0.5c-0.3-0.2-0.6-0.5-0.8-0.8s-0.3-0.8-0.3-1.3H244.9z"/>
	<path class="st0" d="M253.9,20.9h1.5v1.4h-1.5v3.8c0,0.4,0.1,0.6,0.2,0.7c0.1,0.1,0.4,0.2,0.7,0.2c0.2,0,0.5,0,0.7-0.1v1.6
		c-0.2,0-0.4,0-0.6,0.1s-0.4,0-0.6,0c-0.3,0-0.6,0-0.9-0.1c-0.3,0-0.5-0.1-0.8-0.3s-0.4-0.3-0.5-0.6c-0.1-0.2-0.2-0.5-0.2-0.9v-4.5
		h-1.3v-1.4h1.3v-2.3h2.1V20.9z"/>
	<path class="st0" d="M258.2,25.2c0,0.7,0.2,1.2,0.5,1.5c0.3,0.3,0.8,0.5,1.4,0.5c0.4,0,0.8-0.1,1.1-0.3s0.5-0.4,0.6-0.7h1.9
		c-0.3,0.9-0.8,1.6-1.4,2c-0.6,0.4-1.4,0.6-2.2,0.6c-0.6,0-1.1-0.1-1.6-0.3c-0.5-0.2-0.9-0.5-1.2-0.8c-0.3-0.4-0.6-0.8-0.8-1.3
		c-0.2-0.5-0.3-1-0.3-1.6c0-0.6,0.1-1.1,0.3-1.6c0.2-0.5,0.5-0.9,0.8-1.3s0.8-0.6,1.2-0.9c0.5-0.2,1-0.3,1.6-0.3
		c0.7,0,1.2,0.1,1.7,0.4c0.5,0.3,0.9,0.6,1.2,1c0.3,0.4,0.5,0.9,0.7,1.5s0.2,1.1,0.1,1.7H258.2z M261.6,23.9
		c-0.1-0.5-0.3-0.9-0.5-1.2c-0.3-0.3-0.6-0.4-1.2-0.4c-0.3,0-0.6,0.1-0.8,0.2c-0.2,0.1-0.4,0.3-0.5,0.4c-0.1,0.2-0.2,0.3-0.3,0.5
		c-0.1,0.2-0.1,0.4-0.1,0.5H261.6z"/>
	<path class="st0" d="M265,20.9h2v1.1h0c0.3-0.4,0.6-0.8,1-1c0.4-0.2,0.9-0.3,1.3-0.3c0.6,0,1,0.1,1.4,0.2c0.4,0.2,0.6,0.4,0.9,0.6
		c0.2,0.3,0.4,0.6,0.4,1c0.1,0.4,0.1,0.8,0.1,1.3v4.7h-2.1v-4.3c0-0.6-0.1-1.1-0.3-1.4s-0.6-0.5-1-0.5c-0.6,0-1,0.2-1.2,0.5
		c-0.3,0.3-0.4,0.9-0.4,1.7v4H265V20.9z"/>
	<path class="st0" d="M276.5,20.9h1.5v1.4h-1.5v3.8c0,0.4,0.1,0.6,0.2,0.7c0.1,0.1,0.4,0.2,0.7,0.2c0.2,0,0.5,0,0.7-0.1v1.6
		c-0.2,0-0.4,0-0.6,0.1s-0.4,0-0.6,0c-0.3,0-0.6,0-0.9-0.1c-0.3,0-0.5-0.1-0.8-0.3s-0.4-0.3-0.5-0.6c-0.1-0.2-0.2-0.5-0.2-0.9v-4.5
		h-1.3v-1.4h1.3v-2.3h2.1V20.9z"/>
	<path class="st0" d="M280.8,25.2c0,0.7,0.2,1.2,0.5,1.5c0.3,0.3,0.8,0.5,1.4,0.5c0.4,0,0.8-0.1,1.1-0.3s0.5-0.4,0.6-0.7h1.9
		c-0.3,0.9-0.8,1.6-1.4,2c-0.6,0.4-1.4,0.6-2.2,0.6c-0.6,0-1.1-0.1-1.6-0.3c-0.5-0.2-0.9-0.5-1.2-0.8c-0.3-0.4-0.6-0.8-0.8-1.3
		c-0.2-0.5-0.3-1-0.3-1.6c0-0.6,0.1-1.1,0.3-1.6c0.2-0.5,0.5-0.9,0.8-1.3s0.8-0.6,1.2-0.9c0.5-0.2,1-0.3,1.6-0.3
		c0.7,0,1.2,0.1,1.7,0.4c0.5,0.3,0.9,0.6,1.2,1c0.3,0.4,0.5,0.9,0.7,1.5s0.2,1.1,0.1,1.7H280.8z M284.2,23.9
		c-0.1-0.5-0.3-0.9-0.5-1.2c-0.3-0.3-0.6-0.4-1.2-0.4c-0.3,0-0.6,0.1-0.8,0.2c-0.2,0.1-0.4,0.3-0.5,0.4c-0.1,0.2-0.2,0.3-0.3,0.5
		c-0.1,0.2-0.1,0.4-0.1,0.5H284.2z"/>
	<path class="st0" d="M211.9,47.3c-0.2,0.6-0.5,1.1-0.9,1.3c-0.4,0.3-1,0.4-1.7,0.4c-0.2,0-0.4,0-0.6,0s-0.4,0-0.6-0.1v-1.7
		c0.2,0,0.4,0,0.6,0.1c0.2,0,0.4,0,0.6,0c0.2,0,0.3-0.1,0.5-0.2c0.1-0.1,0.2-0.2,0.3-0.3s0.1-0.3,0.1-0.4c0-0.2,0-0.3-0.1-0.5
		l-2.7-7.2h2.3l1.7,5.3h0l1.7-5.3h2.2L211.9,47.3z"/>
	<path class="st0" d="M219.9,41c0-0.5,0.2-0.9,0.4-1.2c0.2-0.3,0.5-0.6,0.8-0.8c0.3-0.2,0.7-0.3,1.1-0.4c0.4-0.1,0.8-0.1,1.3-0.1
		c0.4,0,0.8,0,1.2,0.1c0.4,0.1,0.8,0.2,1.1,0.3c0.3,0.2,0.6,0.4,0.8,0.7c0.2,0.3,0.3,0.7,0.3,1.1v4c0,0.3,0,0.7,0.1,1
		c0,0.3,0.1,0.6,0.2,0.7H225c0-0.1-0.1-0.2-0.1-0.4c0-0.1,0-0.3-0.1-0.4c-0.3,0.3-0.7,0.6-1.2,0.7c-0.5,0.1-0.9,0.2-1.4,0.2
		c-0.4,0-0.7,0-1-0.1c-0.3-0.1-0.6-0.2-0.8-0.4c-0.2-0.2-0.4-0.4-0.6-0.7c-0.1-0.3-0.2-0.6-0.2-1c0-0.4,0.1-0.8,0.2-1.1
		s0.3-0.5,0.6-0.7s0.5-0.3,0.8-0.4s0.6-0.2,1-0.2c0.3,0,0.6-0.1,0.9-0.1c0.3,0,0.6-0.1,0.8-0.1c0.2-0.1,0.4-0.1,0.6-0.3
		c0.1-0.1,0.2-0.3,0.2-0.5c0-0.2,0-0.4-0.1-0.5s-0.2-0.2-0.3-0.3c-0.1-0.1-0.3-0.1-0.4-0.1c-0.2,0-0.3,0-0.5,0c-0.4,0-0.7,0.1-1,0.3
		c-0.2,0.2-0.4,0.5-0.4,0.9H219.9z M224.7,42.6c-0.1,0.1-0.2,0.1-0.3,0.2c-0.1,0-0.3,0.1-0.4,0.1c-0.2,0-0.3,0.1-0.5,0.1
		s-0.3,0-0.5,0.1c-0.2,0-0.3,0.1-0.5,0.1c-0.1,0-0.3,0.1-0.4,0.2c-0.1,0.1-0.2,0.2-0.3,0.3s-0.1,0.3-0.1,0.5c0,0.2,0,0.4,0.1,0.5
		s0.2,0.2,0.3,0.3c0.1,0.1,0.3,0.1,0.4,0.2c0.2,0,0.3,0,0.5,0c0.4,0,0.7-0.1,1-0.2c0.2-0.1,0.4-0.3,0.5-0.5c0.1-0.2,0.2-0.4,0.2-0.6
		c0-0.2,0-0.4,0-0.5V42.6z"/>
	<path class="st0" d="M235.8,45.9c0,0.2,0,0.4-0.1,0.7c0,0.3-0.1,0.5-0.2,0.8c-0.1,0.3-0.2,0.5-0.4,0.7c-0.2,0.2-0.4,0.4-0.7,0.6
		c-0.3,0.2-0.7,0.3-1.1,0.4c-0.4,0.1-0.9,0.2-1.5,0.2c-0.4,0-0.8,0-1.2-0.1c-0.4-0.1-0.7-0.2-1.1-0.4s-0.6-0.5-0.8-0.8
		c-0.2-0.3-0.3-0.7-0.4-1.1h2.1c0.1,0.4,0.3,0.7,0.6,0.8c0.3,0.2,0.6,0.2,1,0.2c0.6,0,1-0.2,1.3-0.5s0.4-0.8,0.4-1.4v-1h0
		c-0.2,0.4-0.6,0.7-1,0.9c-0.4,0.2-0.9,0.3-1.3,0.3c-0.6,0-1.1-0.1-1.5-0.3c-0.4-0.2-0.8-0.5-1-0.8c-0.3-0.4-0.5-0.8-0.6-1.2
		c-0.1-0.5-0.2-1-0.2-1.5c0-0.5,0.1-1,0.2-1.4s0.4-0.9,0.6-1.2c0.3-0.4,0.6-0.6,1-0.8s0.9-0.3,1.4-0.3c0.5,0,0.9,0.1,1.3,0.3
		c0.4,0.2,0.7,0.5,1,0.9h0v-1h2V45.9z M232,44.5c0.3,0,0.6-0.1,0.8-0.2c0.2-0.1,0.4-0.3,0.6-0.5c0.1-0.2,0.3-0.4,0.3-0.7
		c0.1-0.3,0.1-0.5,0.1-0.8c0-0.3,0-0.6-0.1-0.9s-0.2-0.5-0.3-0.8c-0.1-0.2-0.3-0.4-0.6-0.5c-0.2-0.1-0.5-0.2-0.9-0.2
		c-0.3,0-0.6,0.1-0.8,0.2c-0.2,0.1-0.4,0.3-0.5,0.5c-0.1,0.2-0.2,0.4-0.3,0.7c-0.1,0.3-0.1,0.5-0.1,0.8c0,0.3,0,0.6,0.1,0.8
		c0.1,0.3,0.1,0.5,0.3,0.7s0.3,0.4,0.5,0.5C231.4,44.5,231.7,44.5,232,44.5z"/>
	<path class="st0" d="M237.3,42.5c0-0.6,0.1-1.2,0.3-1.7c0.2-0.5,0.5-0.9,0.8-1.3s0.8-0.6,1.2-0.8c0.5-0.2,1-0.3,1.6-0.3
		s1.2,0.1,1.6,0.3c0.5,0.2,0.9,0.5,1.3,0.8s0.6,0.8,0.8,1.3c0.2,0.5,0.3,1.1,0.3,1.7s-0.1,1.2-0.3,1.7c-0.2,0.5-0.5,0.9-0.8,1.3
		c-0.3,0.4-0.8,0.6-1.3,0.8c-0.5,0.2-1,0.3-1.6,0.3s-1.1-0.1-1.6-0.3c-0.5-0.2-0.9-0.5-1.2-0.8c-0.3-0.4-0.6-0.8-0.8-1.3
		C237.4,43.7,237.3,43.1,237.3,42.5z M239.4,42.5c0,0.3,0,0.6,0.1,0.9c0.1,0.3,0.2,0.6,0.3,0.8s0.3,0.4,0.6,0.6
		c0.2,0.1,0.5,0.2,0.9,0.2c0.4,0,0.7-0.1,0.9-0.2s0.4-0.3,0.6-0.6c0.1-0.2,0.2-0.5,0.3-0.8c0.1-0.3,0.1-0.6,0.1-0.9s0-0.6-0.1-0.9
		s-0.2-0.6-0.3-0.8c-0.1-0.2-0.3-0.4-0.6-0.6c-0.2-0.1-0.5-0.2-0.9-0.2c-0.4,0-0.7,0.1-0.9,0.2c-0.2,0.1-0.4,0.3-0.6,0.6
		s-0.2,0.5-0.3,0.8S239.4,42.2,239.4,42.5z"/>
	<path class="st0" d="M249.3,38.7h1.5v1.4h-1.5v3.8c0,0.4,0.1,0.6,0.2,0.7c0.1,0.1,0.4,0.2,0.7,0.2c0.2,0,0.5,0,0.7-0.1v1.6
		c-0.2,0-0.4,0-0.6,0.1s-0.4,0-0.6,0c-0.3,0-0.6,0-0.9-0.1c-0.3,0-0.5-0.1-0.8-0.3s-0.4-0.3-0.5-0.6c-0.1-0.2-0.2-0.5-0.2-0.9v-4.5
		h-1.3v-1.4h1.3v-2.3h2.1V38.7z"/>
	<path class="st0" d="M251.7,41c0-0.5,0.2-0.9,0.4-1.2c0.2-0.3,0.5-0.6,0.8-0.8c0.3-0.2,0.7-0.3,1.1-0.4c0.4-0.1,0.8-0.1,1.3-0.1
		c0.4,0,0.8,0,1.2,0.1c0.4,0.1,0.8,0.2,1.1,0.3c0.3,0.2,0.6,0.4,0.8,0.7c0.2,0.3,0.3,0.7,0.3,1.1v4c0,0.3,0,0.7,0.1,1
		c0,0.3,0.1,0.6,0.2,0.7h-2.1c0-0.1-0.1-0.2-0.1-0.4c0-0.1,0-0.3-0.1-0.4c-0.3,0.3-0.7,0.6-1.2,0.7c-0.5,0.1-0.9,0.2-1.4,0.2
		c-0.4,0-0.7,0-1-0.1c-0.3-0.1-0.6-0.2-0.8-0.4c-0.2-0.2-0.4-0.4-0.6-0.7c-0.1-0.3-0.2-0.6-0.2-1c0-0.4,0.1-0.8,0.2-1.1
		s0.3-0.5,0.6-0.7s0.5-0.3,0.8-0.4s0.6-0.2,1-0.2c0.3,0,0.6-0.1,0.9-0.1c0.3,0,0.6-0.1,0.8-0.1c0.2-0.1,0.4-0.1,0.6-0.3
		c0.1-0.1,0.2-0.3,0.2-0.5c0-0.2,0-0.4-0.1-0.5s-0.2-0.2-0.3-0.3c-0.1-0.1-0.3-0.1-0.4-0.1c-0.2,0-0.3,0-0.5,0c-0.4,0-0.7,0.1-1,0.3
		c-0.2,0.2-0.4,0.5-0.4,0.9H251.7z M256.6,42.6c-0.1,0.1-0.2,0.1-0.3,0.2c-0.1,0-0.3,0.1-0.4,0.1c-0.2,0-0.3,0.1-0.5,0.1
		s-0.3,0-0.5,0.1c-0.2,0-0.3,0.1-0.5,0.1c-0.1,0-0.3,0.1-0.4,0.2c-0.1,0.1-0.2,0.2-0.3,0.3s-0.1,0.3-0.1,0.5c0,0.2,0,0.4,0.1,0.5
		s0.2,0.2,0.3,0.3c0.1,0.1,0.3,0.1,0.4,0.2c0.2,0,0.3,0,0.5,0c0.4,0,0.7-0.1,1-0.2c0.2-0.1,0.4-0.3,0.5-0.5c0.1-0.2,0.2-0.4,0.2-0.6
		c0-0.2,0-0.4,0-0.5V42.6z"/>
	<path class="st0" d="M260.4,38.7h2v1h0c0.3-0.4,0.6-0.7,1-0.9s0.8-0.3,1.3-0.3c0.5,0,0.9,0.1,1.3,0.3c0.4,0.2,0.7,0.5,0.9,1
		c0.2-0.3,0.5-0.6,0.9-0.9c0.4-0.3,0.9-0.4,1.4-0.4c0.4,0,0.8,0,1.1,0.1c0.3,0.1,0.6,0.3,0.9,0.5c0.2,0.2,0.4,0.5,0.6,0.9
		s0.2,0.8,0.2,1.3v5.1H270V42c0-0.3,0-0.5,0-0.7c0-0.2-0.1-0.4-0.2-0.6c-0.1-0.2-0.2-0.3-0.4-0.4c-0.2-0.1-0.4-0.1-0.7-0.1
		s-0.5,0.1-0.7,0.2c-0.2,0.1-0.3,0.3-0.4,0.4c-0.1,0.2-0.2,0.4-0.2,0.6c0,0.2-0.1,0.5-0.1,0.7v4.3h-2.1V42c0-0.2,0-0.4,0-0.7
		c0-0.2-0.1-0.4-0.1-0.6c-0.1-0.2-0.2-0.3-0.4-0.5c-0.2-0.1-0.4-0.2-0.8-0.2c-0.1,0-0.2,0-0.4,0.1c-0.2,0-0.3,0.1-0.5,0.3
		c-0.2,0.1-0.3,0.3-0.4,0.5c-0.1,0.2-0.2,0.5-0.2,0.9v4.5h-2.1V38.7z"/>
	<path class="st0" d="M276,37.5h-2.1v-1.7h2.1V37.5z M273.9,38.7h2.1v7.7h-2.1V38.7z"/>
	<path class="st0" d="M279.4,43c0,0.7,0.2,1.2,0.5,1.5c0.3,0.3,0.8,0.5,1.4,0.5c0.4,0,0.8-0.1,1.1-0.3s0.5-0.4,0.6-0.7h1.9
		c-0.3,0.9-0.8,1.6-1.4,2c-0.6,0.4-1.4,0.6-2.2,0.6c-0.6,0-1.1-0.1-1.6-0.3c-0.5-0.2-0.9-0.5-1.2-0.8c-0.3-0.4-0.6-0.8-0.8-1.3
		c-0.2-0.5-0.3-1-0.3-1.6c0-0.6,0.1-1.1,0.3-1.6c0.2-0.5,0.5-0.9,0.8-1.3s0.8-0.6,1.2-0.9c0.5-0.2,1-0.3,1.6-0.3
		c0.7,0,1.2,0.1,1.7,0.4c0.5,0.3,0.9,0.6,1.2,1c0.3,0.4,0.5,0.9,0.7,1.5s0.2,1.1,0.1,1.7H279.4z M282.8,41.7
		c-0.1-0.5-0.3-0.9-0.5-1.2c-0.3-0.3-0.6-0.4-1.2-0.4c-0.3,0-0.6,0.1-0.8,0.2c-0.2,0.1-0.4,0.3-0.5,0.4c-0.1,0.2-0.2,0.3-0.3,0.5
		c-0.1,0.2-0.1,0.4-0.1,0.5H282.8z"/>
	<path class="st0" d="M286.1,38.7h2v1.1h0c0.3-0.4,0.6-0.8,1-1c0.4-0.2,0.9-0.3,1.3-0.3c0.6,0,1,0.1,1.4,0.2
		c0.4,0.2,0.6,0.4,0.9,0.6c0.2,0.3,0.4,0.6,0.4,1c0.1,0.4,0.1,0.8,0.1,1.3v4.7h-2.1V42c0-0.6-0.1-1.1-0.3-1.4s-0.6-0.5-1-0.5
		c-0.6,0-1,0.2-1.2,0.5c-0.3,0.3-0.4,0.9-0.4,1.7v4h-2.1V38.7z"/>
	<path class="st0" d="M297.6,38.7h1.5v1.4h-1.5v3.8c0,0.4,0.1,0.6,0.2,0.7c0.1,0.1,0.4,0.2,0.7,0.2c0.2,0,0.5,0,0.7-0.1v1.6
		c-0.2,0-0.4,0-0.6,0.1s-0.4,0-0.6,0c-0.3,0-0.6,0-0.9-0.1c-0.3,0-0.5-0.1-0.8-0.3s-0.4-0.3-0.5-0.6c-0.1-0.2-0.2-0.5-0.2-0.9v-4.5
		h-1.3v-1.4h1.3v-2.3h2.1V38.7z"/>
	<path class="st0" d="M299.9,42.5c0-0.6,0.1-1.2,0.3-1.7c0.2-0.5,0.5-0.9,0.8-1.3s0.8-0.6,1.2-0.8c0.5-0.2,1-0.3,1.6-0.3
		s1.2,0.1,1.6,0.3c0.5,0.2,0.9,0.5,1.3,0.8s0.6,0.8,0.8,1.3c0.2,0.5,0.3,1.1,0.3,1.7s-0.1,1.2-0.3,1.7c-0.2,0.5-0.5,0.9-0.8,1.3
		c-0.3,0.4-0.8,0.6-1.3,0.8c-0.5,0.2-1,0.3-1.6,0.3s-1.1-0.1-1.6-0.3c-0.5-0.2-0.9-0.5-1.2-0.8c-0.3-0.4-0.6-0.8-0.8-1.3
		C300,43.7,299.9,43.1,299.9,42.5z M302,42.5c0,0.3,0,0.6,0.1,0.9c0.1,0.3,0.2,0.6,0.3,0.8s0.3,0.4,0.6,0.6c0.2,0.1,0.5,0.2,0.9,0.2
		c0.4,0,0.7-0.1,0.9-0.2s0.4-0.3,0.6-0.6c0.1-0.2,0.2-0.5,0.3-0.8c0.1-0.3,0.1-0.6,0.1-0.9s0-0.6-0.1-0.9s-0.2-0.6-0.3-0.8
		c-0.1-0.2-0.3-0.4-0.6-0.6c-0.2-0.1-0.5-0.2-0.9-0.2c-0.4,0-0.7,0.1-0.9,0.2c-0.2,0.1-0.4,0.3-0.6,0.6s-0.2,0.5-0.3,0.8
		S302,42.2,302,42.5z"/>
	<path class="st0" d="M309.3,44.1h2.3v2.3h-2.3V44.1z"/>
</g>
<g>
	<path class="st0" d="M378.2,0.1h4.5c2.1,0,3.4,0.5,3.4,2.5c0,1.2-0.7,2.3-2,2.5v0c1,0.3,1.6,1.1,1.6,2.2c0,2.3-1.9,3.5-4.1,3.5H376
		L378.2,0.1z M378.6,8.9h2.9c1.1,0,1.8-0.6,1.8-1.7c0-1.1-1-1.2-1.8-1.2h-2.3L378.6,8.9z M379.5,4.4h2.6c0.8,0,1.6-0.5,1.6-1.4
		c0-0.8-0.5-1.1-1.2-1.1h-2.5L379.5,4.4z"/>
	<path class="st0" d="M393.8,10.7h-2l0.2-1.1h0c-0.7,0.8-1.6,1.3-2.7,1.3c-1.5,0-2.2-0.7-2.2-2.1c0-0.3,0.2-1.1,0.2-1.3l1-4.5h2.1
		l-0.9,4.5c-0.1,0.2-0.1,0.7-0.1,0.9c0,0.5,0.5,0.8,1,0.8c1.3,0,1.9-1.1,2.2-2.1l0.9-4.1h2.1L393.8,10.7z"/>
	<path class="st0" d="M397.2,3.1h2l-0.3,1.4l0,0c0.5-1.1,1.5-1.6,2.6-1.6c0.2,0,0.4,0,0.7,0l-0.4,2c-0.3-0.1-0.6-0.1-0.9-0.1
		c-1.6,0-2.2,1.2-2.5,2.5l-0.7,3.4h-2.1L397.2,3.1z"/>
	<path class="st0" d="M403,3.1h2l-0.2,1.1h0c0.7-0.8,1.6-1.3,2.7-1.3c1.5,0,2.2,0.7,2.2,2.1c0,0.3-0.2,1.1-0.2,1.3l-1,4.5h-2.1
		l0.9-4.5c0.1-0.2,0.1-0.7,0.1-0.9c0-0.5-0.5-0.8-1-0.8c-1.3,0-1.9,1.1-2.2,2.1l-0.9,4.1h-2.1L403,3.1z"/>
	<path class="st0" d="M415.2,2.8c2.1,0,3.6,1,3.6,3.3c0,2.7-1.7,4.8-4.5,4.8c-2.1,0-3.5-1.1-3.5-3.3C410.8,5,412.5,2.8,415.2,2.8z
		 M414.4,9.3c1.6,0,2.3-1.9,2.3-3.2c0-1-0.4-1.7-1.5-1.7c-1.5,0-2.2,1.9-2.2,3.2C412.9,8.5,413.4,9.3,414.4,9.3z"/>
	<path class="st0" d="M426.6,10.7h-2l0.2-1.1h0c-0.7,0.8-1.6,1.3-2.7,1.3c-1.5,0-2.2-0.7-2.2-2.1c0-0.3,0.2-1.1,0.2-1.3l1-4.5h2.1
		l-0.9,4.5c-0.1,0.2-0.1,0.7-0.1,0.9c0,0.5,0.5,0.8,1,0.8c1.3,0,1.9-1.1,2.2-2.1l0.9-4.1h2.1L426.6,10.7z"/>
	<path class="st0" d="M432.7,3.1h1.5l-0.3,1.4h-1.5l-0.8,3.8c0,0.2-0.1,0.3-0.1,0.4c0,0.5,0.4,0.6,0.7,0.6c0.3,0,0.5,0,0.8,0
		l-0.4,1.6c-0.4,0-0.9,0.1-1.3,0.1c-1,0-2-0.3-2-1.6c0-0.2,0-0.5,0.1-0.7l0.9-4.1h-1.4l0.3-1.4h1.4l0.5-2.3h2.1L432.7,3.1z"/>
	<path class="st0" d="M434.9,8.4h2.3v2.3c0,0.3-0.1,0.7-0.2,0.9c-0.1,0.3-0.3,0.5-0.5,0.7s-0.5,0.4-0.7,0.5s-0.6,0.2-0.9,0.3v-1.1
		c0.2,0,0.3-0.1,0.4-0.2s0.2-0.2,0.3-0.3c0.1-0.1,0.2-0.3,0.2-0.4c0-0.2,0.1-0.3,0.1-0.5h-1.1V8.4z"/>
	<path class="st0" d="M444.8,7.4c0,0.7,0.2,1.2,0.5,1.5c0.3,0.3,0.8,0.5,1.4,0.5c0.4,0,0.8-0.1,1.1-0.3s0.5-0.4,0.6-0.7h1.9
		c-0.3,0.9-0.8,1.6-1.4,2c-0.6,0.4-1.4,0.6-2.2,0.6c-0.6,0-1.1-0.1-1.6-0.3c-0.5-0.2-0.9-0.5-1.2-0.8c-0.3-0.4-0.6-0.8-0.8-1.3
		c-0.2-0.5-0.3-1-0.3-1.6c0-0.6,0.1-1.1,0.3-1.6c0.2-0.5,0.5-0.9,0.8-1.3s0.8-0.6,1.2-0.9c0.5-0.2,1-0.3,1.6-0.3
		c0.7,0,1.2,0.1,1.7,0.4c0.5,0.3,0.9,0.6,1.2,1c0.3,0.4,0.5,0.9,0.7,1.5s0.2,1.1,0.1,1.7H444.8z M448.2,6.1
		c-0.1-0.5-0.3-0.9-0.5-1.2c-0.3-0.3-0.6-0.4-1.2-0.4c-0.3,0-0.6,0.1-0.8,0.2c-0.2,0.1-0.4,0.3-0.5,0.4c-0.1,0.2-0.2,0.3-0.3,0.5
		c-0.1,0.2-0.1,0.4-0.1,0.5H448.2z"/>
	<path class="st0" d="M451.6,3.1h2v1.1h0c0.3-0.4,0.6-0.8,1-1c0.4-0.2,0.9-0.3,1.3-0.3c0.6,0,1,0.1,1.4,0.2c0.4,0.2,0.6,0.4,0.9,0.6
		c0.2,0.3,0.4,0.6,0.4,1c0.1,0.4,0.1,0.8,0.1,1.3v4.7h-2.1V6.4c0-0.6-0.1-1.1-0.3-1.4s-0.6-0.5-1-0.5c-0.6,0-1,0.2-1.2,0.5
		c-0.3,0.3-0.4,0.9-0.4,1.7v4h-2.1V3.1z"/>
	<path class="st0" d="M460.9,4.5h-1.3V3.1h1.3V2.5c0-0.3,0.1-0.6,0.2-0.9c0.1-0.3,0.3-0.5,0.5-0.7s0.5-0.4,0.8-0.5
		c0.3-0.1,0.7-0.2,1.1-0.2c0.2,0,0.4,0,0.6,0c0.2,0,0.4,0,0.5,0v1.6c-0.3,0-0.5,0-0.8,0c-0.3,0-0.5,0.1-0.6,0.2S463,2.3,463,2.6v0.5
		h1.5v1.4H463v6.3h-2.1V4.5z"/>
	<path class="st0" d="M467.1,7.4c0,0.7,0.2,1.2,0.5,1.5c0.3,0.3,0.8,0.5,1.4,0.5c0.4,0,0.8-0.1,1.1-0.3s0.5-0.4,0.6-0.7h1.9
		c-0.3,0.9-0.8,1.6-1.4,2c-0.6,0.4-1.4,0.6-2.2,0.6c-0.6,0-1.1-0.1-1.6-0.3c-0.5-0.2-0.9-0.5-1.2-0.8c-0.3-0.4-0.6-0.8-0.8-1.3
		c-0.2-0.5-0.3-1-0.3-1.6c0-0.6,0.1-1.1,0.3-1.6c0.2-0.5,0.5-0.9,0.8-1.3s0.8-0.6,1.2-0.9c0.5-0.2,1-0.3,1.6-0.3
		c0.7,0,1.2,0.1,1.7,0.4c0.5,0.3,0.9,0.6,1.2,1c0.3,0.4,0.5,0.9,0.7,1.5s0.2,1.1,0.1,1.7H467.1z M470.5,6.1
		c-0.1-0.5-0.3-0.9-0.5-1.2c-0.3-0.3-0.6-0.4-1.2-0.4c-0.3,0-0.6,0.1-0.8,0.2c-0.2,0.1-0.4,0.3-0.5,0.4c-0.1,0.2-0.2,0.3-0.3,0.5
		c-0.1,0.2-0.1,0.4-0.1,0.5H470.5z"/>
	<path class="st0" d="M473.9,3.1h2v1.4h0c0.1-0.2,0.2-0.5,0.4-0.7c0.2-0.2,0.4-0.4,0.6-0.5c0.2-0.1,0.5-0.3,0.7-0.3
		c0.3-0.1,0.5-0.1,0.8-0.1c0.2,0,0.3,0,0.5,0.1v2c-0.1,0-0.2,0-0.4-0.1s-0.3,0-0.4,0c-0.4,0-0.7,0.1-1,0.2c-0.3,0.1-0.5,0.3-0.6,0.5
		c-0.2,0.2-0.3,0.5-0.3,0.8s-0.1,0.6-0.1,1v3.5h-2.1V3.1z"/>
	<path class="st0" d="M479.7,3.1h2v1h0c0.3-0.4,0.6-0.7,1-0.9s0.8-0.3,1.3-0.3c0.5,0,0.9,0.1,1.3,0.3c0.4,0.2,0.7,0.5,0.9,1
		c0.2-0.3,0.5-0.6,0.9-0.9c0.4-0.3,0.9-0.4,1.4-0.4c0.4,0,0.8,0,1.1,0.1c0.3,0.1,0.6,0.3,0.9,0.5c0.2,0.2,0.4,0.5,0.6,0.9
		s0.2,0.8,0.2,1.3v5.1h-2.1V6.4c0-0.3,0-0.5,0-0.7c0-0.2-0.1-0.4-0.2-0.6c-0.1-0.2-0.2-0.3-0.4-0.4c-0.2-0.1-0.4-0.1-0.7-0.1
		s-0.5,0.1-0.7,0.2c-0.2,0.1-0.3,0.3-0.4,0.4c-0.1,0.2-0.2,0.4-0.2,0.6c0,0.2-0.1,0.5-0.1,0.7v4.3h-2.1V6.4c0-0.2,0-0.4,0-0.7
		c0-0.2-0.1-0.4-0.1-0.6c-0.1-0.2-0.2-0.3-0.4-0.5c-0.2-0.1-0.4-0.2-0.8-0.2c-0.1,0-0.2,0-0.4,0.1c-0.2,0-0.3,0.1-0.5,0.3
		c-0.2,0.1-0.3,0.3-0.4,0.5c-0.1,0.2-0.2,0.5-0.2,0.9v4.5h-2.1V3.1z"/>
	<path class="st0" d="M494.8,7.4c0,0.7,0.2,1.2,0.5,1.5c0.3,0.3,0.8,0.5,1.4,0.5c0.4,0,0.8-0.1,1.1-0.3s0.5-0.4,0.6-0.7h1.9
		c-0.3,0.9-0.8,1.6-1.4,2c-0.6,0.4-1.4,0.6-2.2,0.6c-0.6,0-1.1-0.1-1.6-0.3c-0.5-0.2-0.9-0.5-1.2-0.8c-0.3-0.4-0.6-0.8-0.8-1.3
		c-0.2-0.5-0.3-1-0.3-1.6c0-0.6,0.1-1.1,0.3-1.6c0.2-0.5,0.5-0.9,0.8-1.3s0.8-0.6,1.2-0.9c0.5-0.2,1-0.3,1.6-0.3
		c0.7,0,1.2,0.1,1.7,0.4c0.5,0.3,0.9,0.6,1.2,1c0.3,0.4,0.5,0.9,0.7,1.5s0.2,1.1,0.1,1.7H494.8z M498.2,6.1
		c-0.1-0.5-0.3-0.9-0.5-1.2c-0.3-0.3-0.6-0.4-1.2-0.4c-0.3,0-0.6,0.1-0.8,0.2c-0.2,0.1-0.4,0.3-0.5,0.4c-0.1,0.2-0.2,0.3-0.3,0.5
		c-0.1,0.2-0.1,0.4-0.1,0.5H498.2z"/>
	<path class="st0" d="M507.1,9.8L507.1,9.8c-0.3,0.4-0.6,0.7-1,0.9c-0.4,0.2-0.9,0.3-1.4,0.3c-0.6,0-1.1-0.1-1.5-0.3
		c-0.4-0.2-0.8-0.5-1.1-0.9s-0.5-0.8-0.6-1.3c-0.1-0.5-0.2-1-0.2-1.5c0-0.5,0.1-1,0.2-1.5c0.1-0.5,0.4-0.9,0.6-1.3s0.6-0.7,1.1-0.9
		c0.4-0.2,0.9-0.3,1.5-0.3c0.5,0,0.9,0.1,1.3,0.3c0.4,0.2,0.7,0.5,1,0.9h0V0.1h2.1v10.6h-2V9.8z M507,6.9c0-0.3,0-0.6-0.1-0.9
		s-0.2-0.6-0.3-0.8c-0.1-0.2-0.3-0.4-0.6-0.5s-0.5-0.2-0.9-0.2c-0.3,0-0.6,0.1-0.9,0.2c-0.2,0.1-0.4,0.3-0.6,0.5s-0.2,0.5-0.3,0.8
		s-0.1,0.6-0.1,0.9c0,0.3,0,0.6,0.1,0.9s0.2,0.6,0.3,0.8s0.3,0.4,0.6,0.6c0.2,0.1,0.5,0.2,0.8,0.2c0.3,0,0.6-0.1,0.9-0.2
		s0.4-0.3,0.6-0.6s0.2-0.5,0.3-0.8S507,7.2,507,6.9z"/>
	<path class="st0" d="M510.6,5.4c0-0.5,0.2-0.9,0.4-1.2c0.2-0.3,0.5-0.6,0.8-0.8c0.3-0.2,0.7-0.3,1.1-0.4c0.4-0.1,0.8-0.1,1.3-0.1
		c0.4,0,0.8,0,1.2,0.1c0.4,0.1,0.8,0.2,1.1,0.3c0.3,0.2,0.6,0.4,0.8,0.7c0.2,0.3,0.3,0.7,0.3,1.1v4c0,0.3,0,0.7,0.1,1
		c0,0.3,0.1,0.6,0.2,0.7h-2.1c0-0.1-0.1-0.2-0.1-0.4c0-0.1,0-0.3-0.1-0.4c-0.3,0.3-0.7,0.6-1.2,0.7c-0.5,0.1-0.9,0.2-1.4,0.2
		c-0.4,0-0.7,0-1-0.1c-0.3-0.1-0.6-0.2-0.8-0.4c-0.2-0.2-0.4-0.4-0.6-0.7c-0.1-0.3-0.2-0.6-0.2-1c0-0.4,0.1-0.8,0.2-1.1
		s0.3-0.5,0.6-0.7s0.5-0.3,0.8-0.4s0.6-0.2,1-0.2c0.3,0,0.6-0.1,0.9-0.1c0.3,0,0.6-0.1,0.8-0.1c0.2-0.1,0.4-0.1,0.6-0.3
		c0.1-0.1,0.2-0.3,0.2-0.5c0-0.2,0-0.4-0.1-0.5s-0.2-0.2-0.3-0.3c-0.1-0.1-0.3-0.1-0.4-0.1c-0.2,0-0.3,0-0.5,0c-0.4,0-0.7,0.1-1,0.3
		c-0.2,0.2-0.4,0.5-0.4,0.9H510.6z M515.4,7c-0.1,0.1-0.2,0.1-0.3,0.2c-0.1,0-0.3,0.1-0.4,0.1c-0.2,0-0.3,0.1-0.5,0.1
		s-0.3,0-0.5,0.1c-0.2,0-0.3,0.1-0.5,0.1c-0.1,0-0.3,0.1-0.4,0.2c-0.1,0.1-0.2,0.2-0.3,0.3s-0.1,0.3-0.1,0.5c0,0.2,0,0.4,0.1,0.5
		s0.2,0.2,0.3,0.3c0.1,0.1,0.3,0.1,0.4,0.2c0.2,0,0.3,0,0.5,0c0.4,0,0.7-0.1,1-0.2c0.2-0.1,0.4-0.3,0.5-0.5c0.1-0.2,0.2-0.4,0.2-0.6
		c0-0.2,0-0.4,0-0.5V7z"/>
	<path class="st0" d="M524.7,9.8L524.7,9.8c-0.3,0.4-0.6,0.7-1,0.9c-0.4,0.2-0.9,0.3-1.4,0.3c-0.6,0-1.1-0.1-1.5-0.3
		c-0.4-0.2-0.8-0.5-1.1-0.9s-0.5-0.8-0.6-1.3c-0.1-0.5-0.2-1-0.2-1.5c0-0.5,0.1-1,0.2-1.5c0.1-0.5,0.4-0.9,0.6-1.3s0.6-0.7,1.1-0.9
		c0.4-0.2,0.9-0.3,1.5-0.3c0.5,0,0.9,0.1,1.3,0.3c0.4,0.2,0.7,0.5,1,0.9h0V0.1h2.1v10.6h-2V9.8z M524.6,6.9c0-0.3,0-0.6-0.1-0.9
		s-0.2-0.6-0.3-0.8c-0.1-0.2-0.3-0.4-0.6-0.5s-0.5-0.2-0.9-0.2c-0.3,0-0.6,0.1-0.9,0.2c-0.2,0.1-0.4,0.3-0.6,0.5s-0.2,0.5-0.3,0.8
		S521,6.6,521,6.9c0,0.3,0,0.6,0.1,0.9s0.2,0.6,0.3,0.8s0.3,0.4,0.6,0.6c0.2,0.1,0.5,0.2,0.8,0.2c0.3,0,0.6-0.1,0.9-0.2
		s0.4-0.3,0.6-0.6s0.2-0.5,0.3-0.8S524.6,7.2,524.6,6.9z"/>
	<path class="st0" d="M530,7.4c0,0.7,0.2,1.2,0.5,1.5c0.3,0.3,0.8,0.5,1.4,0.5c0.4,0,0.8-0.1,1.1-0.3s0.5-0.4,0.6-0.7h1.9
		c-0.3,0.9-0.8,1.6-1.4,2c-0.6,0.4-1.4,0.6-2.2,0.6c-0.6,0-1.1-0.1-1.6-0.3c-0.5-0.2-0.9-0.5-1.2-0.8c-0.3-0.4-0.6-0.8-0.8-1.3
		c-0.2-0.5-0.3-1-0.3-1.6c0-0.6,0.1-1.1,0.3-1.6c0.2-0.5,0.5-0.9,0.8-1.3s0.8-0.6,1.2-0.9c0.5-0.2,1-0.3,1.6-0.3
		c0.7,0,1.2,0.1,1.7,0.4c0.5,0.3,0.9,0.6,1.2,1c0.3,0.4,0.5,0.9,0.7,1.5s0.2,1.1,0.1,1.7H530z M533.4,6.1c-0.1-0.5-0.3-0.9-0.5-1.2
		c-0.3-0.3-0.6-0.4-1.2-0.4c-0.3,0-0.6,0.1-0.8,0.2c-0.2,0.1-0.4,0.3-0.5,0.4c-0.1,0.2-0.2,0.3-0.3,0.5C530,5.8,530,5.9,530,6.1
		H533.4z"/>
	<path class="st0" d="M538.4,8.2c0,0.2,0,0.4,0.1,0.6c0.1,0.2,0.2,0.3,0.4,0.4c0.1,0.1,0.3,0.2,0.5,0.2c0.2,0,0.4,0.1,0.6,0.1
		c0.1,0,0.3,0,0.5-0.1c0.2,0,0.3-0.1,0.4-0.2s0.2-0.2,0.3-0.3c0.1-0.1,0.1-0.3,0.1-0.5c0-0.2-0.1-0.3-0.2-0.4
		c-0.1-0.1-0.3-0.2-0.5-0.3c-0.2-0.1-0.5-0.2-0.8-0.2s-0.6-0.2-1-0.2c-0.3-0.1-0.6-0.2-0.9-0.2c-0.3-0.1-0.6-0.2-0.8-0.4
		s-0.4-0.3-0.5-0.6s-0.2-0.5-0.2-0.9c0-0.5,0.1-0.9,0.3-1.2c0.2-0.3,0.4-0.6,0.8-0.8c0.3-0.2,0.7-0.3,1.1-0.4
		c0.4-0.1,0.8-0.1,1.2-0.1c0.4,0,0.8,0,1.2,0.1c0.4,0.1,0.7,0.2,1,0.4c0.3,0.2,0.6,0.4,0.8,0.7c0.2,0.3,0.3,0.7,0.4,1.2h-2
		c0-0.4-0.2-0.7-0.5-0.8s-0.6-0.2-1-0.2c-0.1,0-0.2,0-0.4,0c-0.1,0-0.3,0-0.4,0.1c-0.1,0-0.2,0.1-0.3,0.2c-0.1,0.1-0.1,0.2-0.1,0.4
		c0,0.2,0.1,0.3,0.2,0.5c0.1,0.1,0.3,0.2,0.5,0.3s0.5,0.1,0.8,0.2s0.6,0.1,0.9,0.2c0.3,0.1,0.6,0.2,0.9,0.3c0.3,0.1,0.6,0.2,0.8,0.4
		c0.2,0.2,0.4,0.4,0.5,0.6c0.1,0.2,0.2,0.5,0.2,0.9c0,0.5-0.1,0.9-0.3,1.3c-0.2,0.3-0.5,0.6-0.8,0.8s-0.7,0.4-1.1,0.4
		c-0.4,0.1-0.8,0.1-1.3,0.1c-0.4,0-0.9,0-1.3-0.1c-0.4-0.1-0.8-0.2-1.1-0.5c-0.3-0.2-0.6-0.5-0.8-0.8s-0.3-0.8-0.3-1.3H538.4z"/>
	<path class="st0" d="M378.5,26c0,0.2,0,0.4,0.1,0.6c0.1,0.2,0.2,0.3,0.4,0.4c0.1,0.1,0.3,0.2,0.5,0.2c0.2,0,0.4,0.1,0.6,0.1
		c0.1,0,0.3,0,0.5-0.1c0.2,0,0.3-0.1,0.4-0.2s0.2-0.2,0.3-0.3c0.1-0.1,0.1-0.3,0.1-0.5c0-0.2-0.1-0.3-0.2-0.4
		c-0.1-0.1-0.3-0.2-0.5-0.3c-0.2-0.1-0.5-0.2-0.8-0.2s-0.6-0.2-1-0.2c-0.3-0.1-0.6-0.2-0.9-0.2c-0.3-0.1-0.6-0.2-0.8-0.4
		s-0.4-0.3-0.5-0.6s-0.2-0.5-0.2-0.9c0-0.5,0.1-0.9,0.3-1.2c0.2-0.3,0.4-0.6,0.8-0.8c0.3-0.2,0.7-0.3,1.1-0.4
		c0.4-0.1,0.8-0.1,1.2-0.1c0.4,0,0.8,0,1.2,0.1c0.4,0.1,0.7,0.2,1,0.4c0.3,0.2,0.6,0.4,0.8,0.7c0.2,0.3,0.3,0.7,0.4,1.2h-2
		c0-0.4-0.2-0.7-0.5-0.8s-0.6-0.2-1-0.2c-0.1,0-0.2,0-0.4,0c-0.1,0-0.3,0-0.4,0.1c-0.1,0-0.2,0.1-0.3,0.2c-0.1,0.1-0.1,0.2-0.1,0.4
		c0,0.2,0.1,0.3,0.2,0.5c0.1,0.1,0.3,0.2,0.5,0.3s0.5,0.1,0.8,0.2s0.6,0.1,0.9,0.2c0.3,0.1,0.6,0.2,0.9,0.3c0.3,0.1,0.6,0.2,0.8,0.4
		c0.2,0.2,0.4,0.4,0.5,0.6c0.1,0.2,0.2,0.5,0.2,0.9c0,0.5-0.1,0.9-0.3,1.3c-0.2,0.3-0.5,0.6-0.8,0.8s-0.7,0.4-1.1,0.4
		c-0.4,0.1-0.8,0.1-1.3,0.1c-0.4,0-0.9,0-1.3-0.1c-0.4-0.1-0.8-0.2-1.1-0.5c-0.3-0.2-0.6-0.5-0.8-0.8s-0.3-0.8-0.3-1.3H378.5z"/>
	<path class="st0" d="M386.5,25.2c0,0.7,0.2,1.2,0.5,1.5c0.3,0.3,0.8,0.5,1.4,0.5c0.4,0,0.8-0.1,1.1-0.3s0.5-0.4,0.6-0.7h1.9
		c-0.3,0.9-0.8,1.6-1.4,2c-0.6,0.4-1.4,0.6-2.2,0.6c-0.6,0-1.1-0.1-1.6-0.3c-0.5-0.2-0.9-0.5-1.2-0.8c-0.3-0.4-0.6-0.8-0.8-1.3
		c-0.2-0.5-0.3-1-0.3-1.6c0-0.6,0.1-1.1,0.3-1.6c0.2-0.5,0.5-0.9,0.8-1.3s0.8-0.6,1.2-0.9c0.5-0.2,1-0.3,1.6-0.3
		c0.7,0,1.2,0.1,1.7,0.4c0.5,0.3,0.9,0.6,1.2,1c0.3,0.4,0.5,0.9,0.7,1.5s0.2,1.1,0.1,1.7H386.5z M390,23.9c-0.1-0.5-0.3-0.9-0.5-1.2
		c-0.3-0.3-0.6-0.4-1.2-0.4c-0.3,0-0.6,0.1-0.8,0.2c-0.2,0.1-0.4,0.3-0.5,0.4c-0.1,0.2-0.2,0.3-0.3,0.5c-0.1,0.2-0.1,0.4-0.1,0.5
		H390z"/>
	<path class="st0" d="M398.5,23.6c-0.1-0.9-0.7-1.3-1.6-1.3c-0.3,0-0.6,0.1-0.8,0.2s-0.4,0.4-0.6,0.6c-0.1,0.2-0.2,0.5-0.3,0.8
		s-0.1,0.6-0.1,0.9c0,0.3,0,0.6,0.1,0.8s0.2,0.5,0.3,0.8c0.1,0.2,0.3,0.4,0.5,0.6s0.5,0.2,0.8,0.2c0.5,0,0.9-0.1,1.2-0.4
		c0.3-0.3,0.4-0.7,0.5-1.1h2c-0.1,1-0.5,1.8-1.2,2.3c-0.7,0.5-1.5,0.8-2.5,0.8c-0.6,0-1.1-0.1-1.6-0.3c-0.5-0.2-0.9-0.5-1.2-0.8
		c-0.3-0.4-0.6-0.8-0.8-1.2c-0.2-0.5-0.3-1-0.3-1.6c0-0.6,0.1-1.1,0.3-1.7c0.2-0.5,0.4-1,0.8-1.3c0.3-0.4,0.7-0.7,1.2-0.9
		c0.5-0.2,1-0.3,1.7-0.3c0.5,0,0.9,0.1,1.3,0.2c0.4,0.1,0.8,0.3,1.1,0.5c0.3,0.2,0.6,0.5,0.8,0.9c0.2,0.4,0.3,0.8,0.4,1.3H398.5z"/>
	<path class="st0" d="M409,28.5h-2v-1.1h0c-0.3,0.4-0.6,0.8-1,1c-0.4,0.2-0.9,0.3-1.3,0.3c-0.6,0-1-0.1-1.4-0.2s-0.6-0.4-0.9-0.6
		c-0.2-0.3-0.4-0.6-0.4-1c-0.1-0.4-0.1-0.8-0.1-1.3v-4.7h2.1v4.3c0,0.6,0.1,1.1,0.3,1.4c0.2,0.3,0.6,0.5,1,0.5c0.6,0,1-0.2,1.2-0.5
		c0.3-0.3,0.4-0.9,0.4-1.7v-4h2.1V28.5z"/>
	<path class="st0" d="M410.6,20.9h2v1.1h0c0.3-0.4,0.6-0.8,1-1c0.4-0.2,0.9-0.3,1.3-0.3c0.6,0,1,0.1,1.4,0.2
		c0.4,0.2,0.6,0.4,0.9,0.6c0.2,0.3,0.4,0.6,0.4,1c0.1,0.4,0.1,0.8,0.1,1.3v4.7h-2.1v-4.3c0-0.6-0.1-1.1-0.3-1.4s-0.6-0.5-1-0.5
		c-0.6,0-1,0.2-1.2,0.5c-0.3,0.3-0.4,0.9-0.4,1.7v4h-2.1V20.9z"/>
	<path class="st0" d="M424.9,27.6L424.9,27.6c-0.3,0.4-0.6,0.7-1,0.9c-0.4,0.2-0.9,0.3-1.4,0.3c-0.6,0-1.1-0.1-1.5-0.3
		c-0.4-0.2-0.8-0.5-1.1-0.9s-0.5-0.8-0.6-1.3c-0.1-0.5-0.2-1-0.2-1.5c0-0.5,0.1-1,0.2-1.5c0.1-0.5,0.4-0.9,0.6-1.3s0.6-0.7,1.1-0.9
		c0.4-0.2,0.9-0.3,1.5-0.3c0.5,0,0.9,0.1,1.3,0.3c0.4,0.2,0.7,0.5,1,0.9h0v-3.9h2.1v10.6h-2V27.6z M424.9,24.7c0-0.3,0-0.6-0.1-0.9
		s-0.2-0.6-0.3-0.8c-0.1-0.2-0.3-0.4-0.6-0.5s-0.5-0.2-0.9-0.2c-0.3,0-0.6,0.1-0.9,0.2c-0.2,0.1-0.4,0.3-0.6,0.5s-0.2,0.5-0.3,0.8
		s-0.1,0.6-0.1,0.9c0,0.3,0,0.6,0.1,0.9s0.2,0.6,0.3,0.8s0.3,0.4,0.6,0.6c0.2,0.1,0.5,0.2,0.8,0.2c0.3,0,0.6-0.1,0.9-0.2
		s0.4-0.3,0.6-0.6s0.2-0.5,0.3-0.8S424.9,25,424.9,24.7z"/>
	<path class="st0" d="M428.4,23.2c0-0.5,0.2-0.9,0.4-1.2c0.2-0.3,0.5-0.6,0.8-0.8c0.3-0.2,0.7-0.3,1.1-0.4c0.4-0.1,0.8-0.1,1.3-0.1
		c0.4,0,0.8,0,1.2,0.1c0.4,0.1,0.8,0.2,1.1,0.3c0.3,0.2,0.6,0.4,0.8,0.7c0.2,0.3,0.3,0.7,0.3,1.1v4c0,0.3,0,0.7,0.1,1
		c0,0.3,0.1,0.6,0.2,0.7h-2.1c0-0.1-0.1-0.2-0.1-0.4c0-0.1,0-0.3-0.1-0.4c-0.3,0.3-0.7,0.6-1.2,0.7c-0.5,0.1-0.9,0.2-1.4,0.2
		c-0.4,0-0.7,0-1-0.1c-0.3-0.1-0.6-0.2-0.8-0.4c-0.2-0.2-0.4-0.4-0.6-0.7c-0.1-0.3-0.2-0.6-0.2-1c0-0.4,0.1-0.8,0.2-1.1
		s0.3-0.5,0.6-0.7s0.5-0.3,0.8-0.4s0.6-0.2,1-0.2c0.3,0,0.6-0.1,0.9-0.1c0.3,0,0.6-0.1,0.8-0.1c0.2-0.1,0.4-0.1,0.6-0.3
		c0.1-0.1,0.2-0.3,0.2-0.5c0-0.2,0-0.4-0.1-0.5s-0.2-0.2-0.3-0.3c-0.1-0.1-0.3-0.1-0.4-0.1c-0.2,0-0.3,0-0.5,0c-0.4,0-0.7,0.1-1,0.3
		c-0.2,0.2-0.4,0.5-0.4,0.9H428.4z M433.3,24.8c-0.1,0.1-0.2,0.1-0.3,0.2c-0.1,0-0.3,0.1-0.4,0.1c-0.2,0-0.3,0.1-0.5,0.1
		s-0.3,0-0.5,0.1c-0.2,0-0.3,0.1-0.5,0.1c-0.1,0-0.3,0.1-0.4,0.2c-0.1,0.1-0.2,0.2-0.3,0.3s-0.1,0.3-0.1,0.5c0,0.2,0,0.4,0.1,0.5
		s0.2,0.2,0.3,0.3c0.1,0.1,0.3,0.1,0.4,0.2c0.2,0,0.3,0,0.5,0c0.4,0,0.7-0.1,1-0.2c0.2-0.1,0.4-0.3,0.5-0.5c0.1-0.2,0.2-0.4,0.2-0.6
		c0-0.2,0-0.4,0-0.5V24.8z"/>
	<path class="st0" d="M437,20.9h2v1.4h0c0.1-0.2,0.2-0.5,0.4-0.7c0.2-0.2,0.4-0.4,0.6-0.5c0.2-0.1,0.5-0.3,0.7-0.3
		c0.3-0.1,0.5-0.1,0.8-0.1c0.2,0,0.3,0,0.5,0.1v2c-0.1,0-0.2,0-0.4-0.1s-0.3,0-0.4,0c-0.4,0-0.7,0.1-1,0.2c-0.3,0.1-0.5,0.3-0.6,0.5
		c-0.2,0.2-0.3,0.5-0.3,0.8s-0.1,0.6-0.1,1v3.5H437V20.9z"/>
	<path class="st0" d="M445,19.7h-2.1v-1.7h2.1V19.7z M442.9,20.9h2.1v7.7h-2.1V20.9z"/>
	<path class="st0" d="M446.5,23.2c0-0.5,0.2-0.9,0.4-1.2c0.2-0.3,0.5-0.6,0.8-0.8c0.3-0.2,0.7-0.3,1.1-0.4c0.4-0.1,0.8-0.1,1.3-0.1
		c0.4,0,0.8,0,1.2,0.1c0.4,0.1,0.8,0.2,1.1,0.3c0.3,0.2,0.6,0.4,0.8,0.7c0.2,0.3,0.3,0.7,0.3,1.1v4c0,0.3,0,0.7,0.1,1
		c0,0.3,0.1,0.6,0.2,0.7h-2.1c0-0.1-0.1-0.2-0.1-0.4c0-0.1,0-0.3-0.1-0.4c-0.3,0.3-0.7,0.6-1.2,0.7c-0.5,0.1-0.9,0.2-1.4,0.2
		c-0.4,0-0.7,0-1-0.1c-0.3-0.1-0.6-0.2-0.8-0.4c-0.2-0.2-0.4-0.4-0.6-0.7c-0.1-0.3-0.2-0.6-0.2-1c0-0.4,0.1-0.8,0.2-1.1
		s0.3-0.5,0.6-0.7s0.5-0.3,0.8-0.4s0.6-0.2,1-0.2c0.3,0,0.6-0.1,0.9-0.1c0.3,0,0.6-0.1,0.8-0.1c0.2-0.1,0.4-0.1,0.6-0.3
		c0.1-0.1,0.2-0.3,0.2-0.5c0-0.2,0-0.4-0.1-0.5s-0.2-0.2-0.3-0.3c-0.1-0.1-0.3-0.1-0.4-0.1c-0.2,0-0.3,0-0.5,0c-0.4,0-0.7,0.1-1,0.3
		c-0.2,0.2-0.4,0.5-0.4,0.9H446.5z M451.4,24.8c-0.1,0.1-0.2,0.1-0.3,0.2c-0.1,0-0.3,0.1-0.4,0.1c-0.2,0-0.3,0.1-0.5,0.1
		s-0.3,0-0.5,0.1c-0.2,0-0.3,0.1-0.5,0.1c-0.1,0-0.3,0.1-0.4,0.2c-0.1,0.1-0.2,0.2-0.3,0.3s-0.1,0.3-0.1,0.5c0,0.2,0,0.4,0.1,0.5
		s0.2,0.2,0.3,0.3c0.1,0.1,0.3,0.1,0.4,0.2c0.2,0,0.3,0,0.5,0c0.4,0,0.7-0.1,1-0.2c0.2-0.1,0.4-0.3,0.5-0.5c0.1-0.2,0.2-0.4,0.2-0.6
		c0-0.2,0-0.4,0-0.5V24.8z"/>
	<path class="st0" d="M456.8,26c0,0.2,0,0.4,0.1,0.6c0.1,0.2,0.2,0.3,0.4,0.4c0.1,0.1,0.3,0.2,0.5,0.2c0.2,0,0.4,0.1,0.6,0.1
		c0.1,0,0.3,0,0.5-0.1c0.2,0,0.3-0.1,0.4-0.2s0.2-0.2,0.3-0.3c0.1-0.1,0.1-0.3,0.1-0.5c0-0.2-0.1-0.3-0.2-0.4
		c-0.1-0.1-0.3-0.2-0.5-0.3c-0.2-0.1-0.5-0.2-0.8-0.2s-0.6-0.2-1-0.2c-0.3-0.1-0.6-0.2-0.9-0.2c-0.3-0.1-0.6-0.2-0.8-0.4
		s-0.4-0.3-0.5-0.6s-0.2-0.5-0.2-0.9c0-0.5,0.1-0.9,0.3-1.2c0.2-0.3,0.4-0.6,0.8-0.8c0.3-0.2,0.7-0.3,1.1-0.4
		c0.4-0.1,0.8-0.1,1.2-0.1c0.4,0,0.8,0,1.2,0.1c0.4,0.1,0.7,0.2,1,0.4c0.3,0.2,0.6,0.4,0.8,0.7c0.2,0.3,0.3,0.7,0.4,1.2h-2
		c0-0.4-0.2-0.7-0.5-0.8s-0.6-0.2-1-0.2c-0.1,0-0.2,0-0.4,0c-0.1,0-0.3,0-0.4,0.1c-0.1,0-0.2,0.1-0.3,0.2c-0.1,0.1-0.1,0.2-0.1,0.4
		c0,0.2,0.1,0.3,0.2,0.5c0.1,0.1,0.3,0.2,0.5,0.3s0.5,0.1,0.8,0.2s0.6,0.1,0.9,0.2c0.3,0.1,0.6,0.2,0.9,0.3c0.3,0.1,0.6,0.2,0.8,0.4
		c0.2,0.2,0.4,0.4,0.5,0.6c0.1,0.2,0.2,0.5,0.2,0.9c0,0.5-0.1,0.9-0.3,1.3c-0.2,0.3-0.5,0.6-0.8,0.8s-0.7,0.4-1.1,0.4
		c-0.4,0.1-0.8,0.1-1.3,0.1c-0.4,0-0.9,0-1.3-0.1c-0.4-0.1-0.8-0.2-1.1-0.5c-0.3-0.2-0.6-0.5-0.8-0.8s-0.3-0.8-0.3-1.3H456.8z"/>
	<path class="st0" d="M463.2,26.3h2.3v2.3c0,0.3-0.1,0.7-0.2,0.9c-0.1,0.3-0.3,0.5-0.5,0.7s-0.5,0.4-0.7,0.5s-0.6,0.2-0.9,0.3v-1.1
		c0.2,0,0.3-0.1,0.4-0.2s0.2-0.2,0.3-0.3c0.1-0.1,0.2-0.3,0.2-0.4c0-0.2,0.1-0.3,0.1-0.5h-1.1V26.3z"/>
	<path class="st0" d="M476.9,27.6L476.9,27.6c-0.3,0.4-0.6,0.7-1,0.9c-0.4,0.2-0.9,0.3-1.4,0.3c-0.6,0-1.1-0.1-1.5-0.3
		c-0.4-0.2-0.8-0.5-1.1-0.9s-0.5-0.8-0.6-1.3c-0.1-0.5-0.2-1-0.2-1.5c0-0.5,0.1-1,0.2-1.5c0.1-0.5,0.4-0.9,0.6-1.3s0.6-0.7,1.1-0.9
		c0.4-0.2,0.9-0.3,1.5-0.3c0.5,0,0.9,0.1,1.3,0.3c0.4,0.2,0.7,0.5,1,0.9h0v-3.9h2.1v10.6h-2V27.6z M476.8,24.7c0-0.3,0-0.6-0.1-0.9
		s-0.2-0.6-0.3-0.8c-0.1-0.2-0.3-0.4-0.6-0.5s-0.5-0.2-0.9-0.2c-0.3,0-0.6,0.1-0.9,0.2c-0.2,0.1-0.4,0.3-0.6,0.5s-0.2,0.5-0.3,0.8
		s-0.1,0.6-0.1,0.9c0,0.3,0,0.6,0.1,0.9s0.2,0.6,0.3,0.8s0.3,0.4,0.6,0.6c0.2,0.1,0.5,0.2,0.8,0.2c0.3,0,0.6-0.1,0.9-0.2
		s0.4-0.3,0.6-0.6s0.2-0.5,0.3-0.8S476.8,25,476.8,24.7z"/>
	<path class="st0" d="M482.2,25.2c0,0.7,0.2,1.2,0.5,1.5c0.3,0.3,0.8,0.5,1.4,0.5c0.4,0,0.8-0.1,1.1-0.3s0.5-0.4,0.6-0.7h1.9
		c-0.3,0.9-0.8,1.6-1.4,2c-0.6,0.4-1.4,0.6-2.2,0.6c-0.6,0-1.1-0.1-1.6-0.3c-0.5-0.2-0.9-0.5-1.2-0.8c-0.3-0.4-0.6-0.8-0.8-1.3
		c-0.2-0.5-0.3-1-0.3-1.6c0-0.6,0.1-1.1,0.3-1.6c0.2-0.5,0.5-0.9,0.8-1.3s0.8-0.6,1.2-0.9c0.5-0.2,1-0.3,1.6-0.3
		c0.7,0,1.2,0.1,1.7,0.4c0.5,0.3,0.9,0.6,1.2,1c0.3,0.4,0.5,0.9,0.7,1.5s0.2,1.1,0.1,1.7H482.2z M485.6,23.9
		c-0.1-0.5-0.3-0.9-0.5-1.2c-0.3-0.3-0.6-0.4-1.2-0.4c-0.3,0-0.6,0.1-0.8,0.2c-0.2,0.1-0.4,0.3-0.5,0.4c-0.1,0.2-0.2,0.3-0.3,0.5
		c-0.1,0.2-0.1,0.4-0.1,0.5H485.6z"/>
	<path class="st0" d="M489,20.9h2v1h0c0.3-0.4,0.6-0.7,1-0.9c0.4-0.2,0.8-0.3,1.3-0.3c0.6,0,1.1,0.1,1.6,0.3
		c0.4,0.2,0.8,0.5,1.1,0.9c0.3,0.4,0.5,0.8,0.6,1.3c0.1,0.5,0.2,1,0.2,1.6c0,0.5-0.1,1-0.2,1.5c-0.1,0.5-0.3,0.9-0.6,1.3
		c-0.3,0.4-0.6,0.7-1.1,0.9s-0.9,0.3-1.5,0.3c-0.5,0-0.9-0.1-1.3-0.3c-0.4-0.2-0.7-0.5-1-0.9h0v3.7H489V20.9z M492.8,27.2
		c0.3,0,0.6-0.1,0.9-0.2c0.2-0.1,0.4-0.3,0.6-0.5s0.2-0.5,0.3-0.8c0.1-0.3,0.1-0.6,0.1-0.9c0-0.3,0-0.6-0.1-0.9s-0.2-0.6-0.3-0.8
		s-0.3-0.4-0.6-0.6c-0.2-0.1-0.5-0.2-0.9-0.2c-0.3,0-0.6,0.1-0.9,0.2c-0.2,0.1-0.4,0.3-0.6,0.6c-0.1,0.2-0.2,0.5-0.3,0.8
		c-0.1,0.3-0.1,0.6-0.1,0.9c0,0.3,0,0.6,0.1,0.9c0.1,0.3,0.2,0.5,0.3,0.8s0.3,0.4,0.6,0.5S492.5,27.2,492.8,27.2z"/>
	<path class="st0" d="M498,20.9h2v1.4h0c0.1-0.2,0.2-0.5,0.4-0.7c0.2-0.2,0.4-0.4,0.6-0.5c0.2-0.1,0.5-0.3,0.7-0.3
		c0.3-0.1,0.5-0.1,0.8-0.1c0.2,0,0.3,0,0.5,0.1v2c-0.1,0-0.2,0-0.4-0.1s-0.3,0-0.4,0c-0.4,0-0.7,0.1-1,0.2c-0.3,0.1-0.5,0.3-0.6,0.5
		c-0.2,0.2-0.3,0.5-0.3,0.8s-0.1,0.6-0.1,1v3.5H498V20.9z"/>
	<path class="st0" d="M505.3,25.2c0,0.7,0.2,1.2,0.5,1.5c0.3,0.3,0.8,0.5,1.4,0.5c0.4,0,0.8-0.1,1.1-0.3s0.5-0.4,0.6-0.7h1.9
		c-0.3,0.9-0.8,1.6-1.4,2c-0.6,0.4-1.4,0.6-2.2,0.6c-0.6,0-1.1-0.1-1.6-0.3c-0.5-0.2-0.9-0.5-1.2-0.8c-0.3-0.4-0.6-0.8-0.8-1.3
		c-0.2-0.5-0.3-1-0.3-1.6c0-0.6,0.1-1.1,0.3-1.6c0.2-0.5,0.5-0.9,0.8-1.3s0.8-0.6,1.2-0.9c0.5-0.2,1-0.3,1.6-0.3
		c0.7,0,1.2,0.1,1.7,0.4c0.5,0.3,0.9,0.6,1.2,1c0.3,0.4,0.5,0.9,0.7,1.5s0.2,1.1,0.1,1.7H505.3z M508.7,23.9
		c-0.1-0.5-0.3-0.9-0.5-1.2c-0.3-0.3-0.6-0.4-1.2-0.4c-0.3,0-0.6,0.1-0.8,0.2c-0.2,0.1-0.4,0.3-0.5,0.4c-0.1,0.2-0.2,0.3-0.3,0.5
		c-0.1,0.2-0.1,0.4-0.1,0.5H508.7z"/>
	<path class="st0" d="M513.7,26c0,0.2,0,0.4,0.1,0.6c0.1,0.2,0.2,0.3,0.4,0.4c0.1,0.1,0.3,0.2,0.5,0.2c0.2,0,0.4,0.1,0.6,0.1
		c0.1,0,0.3,0,0.5-0.1c0.2,0,0.3-0.1,0.4-0.2s0.2-0.2,0.3-0.3c0.1-0.1,0.1-0.3,0.1-0.5c0-0.2-0.1-0.3-0.2-0.4
		c-0.1-0.1-0.3-0.2-0.5-0.3c-0.2-0.1-0.5-0.2-0.8-0.2s-0.6-0.2-1-0.2c-0.3-0.1-0.6-0.2-0.9-0.2c-0.3-0.1-0.6-0.2-0.8-0.4
		s-0.4-0.3-0.5-0.6s-0.2-0.5-0.2-0.9c0-0.5,0.1-0.9,0.3-1.2c0.2-0.3,0.4-0.6,0.8-0.8c0.3-0.2,0.7-0.3,1.1-0.4
		c0.4-0.1,0.8-0.1,1.2-0.1c0.4,0,0.8,0,1.2,0.1c0.4,0.1,0.7,0.2,1,0.4c0.3,0.2,0.6,0.4,0.8,0.7c0.2,0.3,0.3,0.7,0.4,1.2h-2
		c0-0.4-0.2-0.7-0.5-0.8s-0.6-0.2-1-0.2c-0.1,0-0.2,0-0.4,0c-0.1,0-0.3,0-0.4,0.1c-0.1,0-0.2,0.1-0.3,0.2c-0.1,0.1-0.1,0.2-0.1,0.4
		c0,0.2,0.1,0.3,0.2,0.5c0.1,0.1,0.3,0.2,0.5,0.3s0.5,0.1,0.8,0.2s0.6,0.1,0.9,0.2c0.3,0.1,0.6,0.2,0.9,0.3c0.3,0.1,0.6,0.2,0.8,0.4
		c0.2,0.2,0.4,0.4,0.5,0.6c0.1,0.2,0.2,0.5,0.2,0.9c0,0.5-0.1,0.9-0.3,1.3c-0.2,0.3-0.5,0.6-0.8,0.8s-0.7,0.4-1.1,0.4
		c-0.4,0.1-0.8,0.1-1.3,0.1c-0.4,0-0.9,0-1.3-0.1c-0.4-0.1-0.8-0.2-1.1-0.5c-0.3-0.2-0.6-0.5-0.8-0.8s-0.3-0.8-0.3-1.3H513.7z"/>
	<path class="st0" d="M522.2,19.7h-2.1v-1.7h2.1V19.7z M520.1,20.9h2.1v7.7h-2.1V20.9z"/>
	<path class="st0" d="M523.6,24.7c0-0.6,0.1-1.2,0.3-1.7c0.2-0.5,0.5-0.9,0.8-1.3s0.8-0.6,1.2-0.8c0.5-0.2,1-0.3,1.6-0.3
		s1.2,0.1,1.6,0.3c0.5,0.2,0.9,0.5,1.3,0.8s0.6,0.8,0.8,1.3c0.2,0.5,0.3,1.1,0.3,1.7s-0.1,1.2-0.3,1.7c-0.2,0.5-0.5,0.9-0.8,1.3
		c-0.3,0.4-0.8,0.6-1.3,0.8c-0.5,0.2-1,0.3-1.6,0.3s-1.1-0.1-1.6-0.3c-0.5-0.2-0.9-0.5-1.2-0.8c-0.3-0.4-0.6-0.8-0.8-1.3
		C523.7,25.9,523.6,25.3,523.6,24.7z M525.7,24.7c0,0.3,0,0.6,0.1,0.9c0.1,0.3,0.2,0.6,0.3,0.8s0.3,0.4,0.6,0.6
		c0.2,0.1,0.5,0.2,0.9,0.2c0.4,0,0.7-0.1,0.9-0.2s0.4-0.3,0.6-0.6c0.1-0.2,0.2-0.5,0.3-0.8c0.1-0.3,0.1-0.6,0.1-0.9s0-0.6-0.1-0.9
		s-0.2-0.6-0.3-0.8c-0.1-0.2-0.3-0.4-0.6-0.6c-0.2-0.1-0.5-0.2-0.9-0.2c-0.4,0-0.7,0.1-0.9,0.2c-0.2,0.1-0.4,0.3-0.6,0.6
		s-0.2,0.5-0.3,0.8S525.7,24.4,525.7,24.7z M527.9,19.9h-1.5l1.4-2.1h2.3L527.9,19.9z"/>
	<path class="st0" d="M532.9,20.9h2v1.1h0c0.3-0.4,0.6-0.8,1-1c0.4-0.2,0.9-0.3,1.3-0.3c0.6,0,1,0.1,1.4,0.2
		c0.4,0.2,0.6,0.4,0.9,0.6c0.2,0.3,0.4,0.6,0.4,1c0.1,0.4,0.1,0.8,0.1,1.3v4.7H538v-4.3c0-0.6-0.1-1.1-0.3-1.4s-0.6-0.5-1-0.5
		c-0.6,0-1,0.2-1.2,0.5c-0.3,0.3-0.4,0.9-0.4,1.7v4h-2.1V20.9z"/>
	<path class="st0" d="M541.8,26.3h2.3v2.3c0,0.3-0.1,0.7-0.2,0.9c-0.1,0.3-0.3,0.5-0.5,0.7s-0.5,0.4-0.7,0.5s-0.6,0.2-0.9,0.3v-1.1
		c0.2,0,0.3-0.1,0.4-0.2s0.2-0.2,0.3-0.3c0.1-0.1,0.2-0.3,0.2-0.4c0-0.2,0.1-0.3,0.1-0.5h-1.1V26.3z"/>
	<path class="st0" d="M376.7,41c0-0.5,0.2-0.9,0.4-1.2c0.2-0.3,0.5-0.6,0.8-0.8c0.3-0.2,0.7-0.3,1.1-0.4c0.4-0.1,0.8-0.1,1.3-0.1
		c0.4,0,0.8,0,1.2,0.1c0.4,0.1,0.8,0.2,1.1,0.3c0.3,0.2,0.6,0.4,0.8,0.7c0.2,0.3,0.3,0.7,0.3,1.1v4c0,0.3,0,0.7,0.1,1
		c0,0.3,0.1,0.6,0.2,0.7h-2.1c0-0.1-0.1-0.2-0.1-0.4c0-0.1,0-0.3-0.1-0.4c-0.3,0.3-0.7,0.6-1.2,0.7c-0.5,0.1-0.9,0.2-1.4,0.2
		c-0.4,0-0.7,0-1-0.1c-0.3-0.1-0.6-0.2-0.8-0.4c-0.2-0.2-0.4-0.4-0.6-0.7c-0.1-0.3-0.2-0.6-0.2-1c0-0.4,0.1-0.8,0.2-1.1
		s0.3-0.5,0.6-0.7s0.5-0.3,0.8-0.4s0.6-0.2,1-0.2c0.3,0,0.6-0.1,0.9-0.1c0.3,0,0.6-0.1,0.8-0.1c0.2-0.1,0.4-0.1,0.6-0.3
		c0.1-0.1,0.2-0.3,0.2-0.5c0-0.2,0-0.4-0.1-0.5s-0.2-0.2-0.3-0.3c-0.1-0.1-0.3-0.1-0.4-0.1c-0.2,0-0.3,0-0.5,0c-0.4,0-0.7,0.1-1,0.3
		c-0.2,0.2-0.4,0.5-0.4,0.9H376.7z M381.6,42.6c-0.1,0.1-0.2,0.1-0.3,0.2c-0.1,0-0.3,0.1-0.4,0.1c-0.2,0-0.3,0.1-0.5,0.1
		s-0.3,0-0.5,0.1c-0.2,0-0.3,0.1-0.5,0.1c-0.1,0-0.3,0.1-0.4,0.2c-0.1,0.1-0.2,0.2-0.3,0.3s-0.1,0.3-0.1,0.5c0,0.2,0,0.4,0.1,0.5
		s0.2,0.2,0.3,0.3c0.1,0.1,0.3,0.1,0.4,0.2c0.2,0,0.3,0,0.5,0c0.4,0,0.7-0.1,1-0.2c0.2-0.1,0.4-0.3,0.5-0.5c0.1-0.2,0.2-0.4,0.2-0.6
		c0-0.2,0-0.4,0-0.5V42.6z"/>
	<path class="st0" d="M385.4,38.7h2v1.1h0c0.3-0.4,0.6-0.8,1-1c0.4-0.2,0.9-0.3,1.3-0.3c0.6,0,1,0.1,1.4,0.2
		c0.4,0.2,0.6,0.4,0.9,0.6c0.2,0.3,0.4,0.6,0.4,1c0.1,0.4,0.1,0.8,0.1,1.3v4.7h-2.1V42c0-0.6-0.1-1.1-0.3-1.4s-0.6-0.5-1-0.5
		c-0.6,0-1,0.2-1.2,0.5c-0.3,0.3-0.4,0.9-0.4,1.7v4h-2.1V38.7z"/>
	<path class="st0" d="M395.8,43.9c0,0.2,0,0.4,0.1,0.6c0.1,0.2,0.2,0.3,0.4,0.4c0.1,0.1,0.3,0.2,0.5,0.2c0.2,0,0.4,0.1,0.6,0.1
		c0.1,0,0.3,0,0.5-0.1c0.2,0,0.3-0.1,0.4-0.2s0.2-0.2,0.3-0.3c0.1-0.1,0.1-0.3,0.1-0.5c0-0.2-0.1-0.3-0.2-0.4
		c-0.1-0.1-0.3-0.2-0.5-0.3c-0.2-0.1-0.5-0.2-0.8-0.2s-0.6-0.2-1-0.2c-0.3-0.1-0.6-0.2-0.9-0.2c-0.3-0.1-0.6-0.2-0.8-0.4
		s-0.4-0.3-0.5-0.6s-0.2-0.5-0.2-0.9c0-0.5,0.1-0.9,0.3-1.2c0.2-0.3,0.4-0.6,0.8-0.8c0.3-0.2,0.7-0.3,1.1-0.4
		c0.4-0.1,0.8-0.1,1.2-0.1c0.4,0,0.8,0,1.2,0.1c0.4,0.1,0.7,0.2,1,0.4c0.3,0.2,0.6,0.4,0.8,0.7c0.2,0.3,0.3,0.7,0.4,1.2h-2
		c0-0.4-0.2-0.7-0.5-0.8s-0.6-0.2-1-0.2c-0.1,0-0.2,0-0.4,0c-0.1,0-0.3,0-0.4,0.1c-0.1,0-0.2,0.1-0.3,0.2c-0.1,0.1-0.1,0.2-0.1,0.4
		c0,0.2,0.1,0.3,0.2,0.5c0.1,0.1,0.3,0.2,0.5,0.3s0.5,0.1,0.8,0.2s0.6,0.1,0.9,0.2c0.3,0.1,0.6,0.2,0.9,0.3c0.3,0.1,0.6,0.2,0.8,0.4
		c0.2,0.2,0.4,0.4,0.5,0.6c0.1,0.2,0.2,0.5,0.2,0.9c0,0.5-0.1,0.9-0.3,1.3c-0.2,0.3-0.5,0.6-0.8,0.8s-0.7,0.4-1.1,0.4
		c-0.4,0.1-0.8,0.1-1.3,0.1c-0.4,0-0.9,0-1.3-0.1c-0.4-0.1-0.8-0.2-1.1-0.5c-0.3-0.2-0.6-0.5-0.8-0.8s-0.3-0.8-0.3-1.3H395.8z"/>
	<path class="st0" d="M404.3,37.5h-2.1v-1.7h2.1V37.5z M402.2,38.7h2.1v7.7h-2.1V38.7z"/>
	<path class="st0" d="M407.7,43c0,0.7,0.2,1.2,0.5,1.5c0.3,0.3,0.8,0.5,1.4,0.5c0.4,0,0.8-0.1,1.1-0.3s0.5-0.4,0.6-0.7h1.9
		c-0.3,0.9-0.8,1.6-1.4,2c-0.6,0.4-1.4,0.6-2.2,0.6c-0.6,0-1.1-0.1-1.6-0.3c-0.5-0.2-0.9-0.5-1.2-0.8c-0.3-0.4-0.6-0.8-0.8-1.3
		c-0.2-0.5-0.3-1-0.3-1.6c0-0.6,0.1-1.1,0.3-1.6c0.2-0.5,0.5-0.9,0.8-1.3s0.8-0.6,1.2-0.9c0.5-0.2,1-0.3,1.6-0.3
		c0.7,0,1.2,0.1,1.7,0.4c0.5,0.3,0.9,0.6,1.2,1c0.3,0.4,0.5,0.9,0.7,1.5s0.2,1.1,0.1,1.7H407.7z M411.1,41.7
		c-0.1-0.5-0.3-0.9-0.5-1.2c-0.3-0.3-0.6-0.4-1.2-0.4c-0.3,0-0.6,0.1-0.8,0.2c-0.2,0.1-0.4,0.3-0.5,0.4c-0.1,0.2-0.2,0.3-0.3,0.5
		c-0.1,0.2-0.1,0.4-0.1,0.5H411.1z"/>
	<path class="st0" d="M419.9,45.4L419.9,45.4c-0.3,0.4-0.6,0.7-1,0.9c-0.4,0.2-0.9,0.3-1.4,0.3c-0.6,0-1.1-0.1-1.5-0.3
		c-0.4-0.2-0.8-0.5-1.1-0.9s-0.5-0.8-0.6-1.3c-0.1-0.5-0.2-1-0.2-1.5c0-0.5,0.1-1,0.2-1.5c0.1-0.5,0.4-0.9,0.6-1.3s0.6-0.7,1.1-0.9
		c0.4-0.2,0.9-0.3,1.5-0.3c0.5,0,0.9,0.1,1.3,0.3c0.4,0.2,0.7,0.5,1,0.9h0v-3.9h2.1v10.6h-2V45.4z M419.9,42.5c0-0.3,0-0.6-0.1-0.9
		s-0.2-0.6-0.3-0.8c-0.1-0.2-0.3-0.4-0.6-0.5s-0.5-0.2-0.9-0.2c-0.3,0-0.6,0.1-0.9,0.2c-0.2,0.1-0.4,0.3-0.6,0.5s-0.2,0.5-0.3,0.8
		s-0.1,0.6-0.1,0.9c0,0.3,0,0.6,0.1,0.9s0.2,0.6,0.3,0.8s0.3,0.4,0.6,0.6c0.2,0.1,0.5,0.2,0.8,0.2c0.3,0,0.6-0.1,0.9-0.2
		s0.4-0.3,0.6-0.6s0.2-0.5,0.3-0.8S419.9,42.8,419.9,42.5z"/>
	<path class="st0" d="M423.5,41c0-0.5,0.2-0.9,0.4-1.2c0.2-0.3,0.5-0.6,0.8-0.8c0.3-0.2,0.7-0.3,1.1-0.4c0.4-0.1,0.8-0.1,1.3-0.1
		c0.4,0,0.8,0,1.2,0.1c0.4,0.1,0.8,0.2,1.1,0.3c0.3,0.2,0.6,0.4,0.8,0.7c0.2,0.3,0.3,0.7,0.3,1.1v4c0,0.3,0,0.7,0.1,1
		c0,0.3,0.1,0.6,0.2,0.7h-2.1c0-0.1-0.1-0.2-0.1-0.4c0-0.1,0-0.3-0.1-0.4c-0.3,0.3-0.7,0.6-1.2,0.7c-0.5,0.1-0.9,0.2-1.4,0.2
		c-0.4,0-0.7,0-1-0.1c-0.3-0.1-0.6-0.2-0.8-0.4c-0.2-0.2-0.4-0.4-0.6-0.7c-0.1-0.3-0.2-0.6-0.2-1c0-0.4,0.1-0.8,0.2-1.1
		s0.3-0.5,0.6-0.7s0.5-0.3,0.8-0.4s0.6-0.2,1-0.2c0.3,0,0.6-0.1,0.9-0.1c0.3,0,0.6-0.1,0.8-0.1c0.2-0.1,0.4-0.1,0.6-0.3
		c0.1-0.1,0.2-0.3,0.2-0.5c0-0.2,0-0.4-0.1-0.5s-0.2-0.2-0.3-0.3c-0.1-0.1-0.3-0.1-0.4-0.1c-0.2,0-0.3,0-0.5,0c-0.4,0-0.7,0.1-1,0.3
		c-0.2,0.2-0.4,0.5-0.4,0.9H423.5z M428.3,42.6c-0.1,0.1-0.2,0.1-0.3,0.2c-0.1,0-0.3,0.1-0.4,0.1c-0.2,0-0.3,0.1-0.5,0.1
		s-0.3,0-0.5,0.1c-0.2,0-0.3,0.1-0.5,0.1c-0.1,0-0.3,0.1-0.4,0.2c-0.1,0.1-0.2,0.2-0.3,0.3s-0.1,0.3-0.1,0.5c0,0.2,0,0.4,0.1,0.5
		s0.2,0.2,0.3,0.3c0.1,0.1,0.3,0.1,0.4,0.2c0.2,0,0.3,0,0.5,0c0.4,0,0.7-0.1,1-0.2c0.2-0.1,0.4-0.3,0.5-0.5c0.1-0.2,0.2-0.4,0.2-0.6
		c0-0.2,0-0.4,0-0.5V42.6z"/>
	<path class="st0" d="M437.5,45.4L437.5,45.4c-0.3,0.4-0.6,0.7-1,0.9c-0.4,0.2-0.9,0.3-1.4,0.3c-0.6,0-1.1-0.1-1.5-0.3
		c-0.4-0.2-0.8-0.5-1.1-0.9s-0.5-0.8-0.6-1.3c-0.1-0.5-0.2-1-0.2-1.5c0-0.5,0.1-1,0.2-1.5c0.1-0.5,0.4-0.9,0.6-1.3s0.6-0.7,1.1-0.9
		c0.4-0.2,0.9-0.3,1.5-0.3c0.5,0,0.9,0.1,1.3,0.3c0.4,0.2,0.7,0.5,1,0.9h0v-3.9h2.1v10.6h-2V45.4z M437.5,42.5c0-0.3,0-0.6-0.1-0.9
		s-0.2-0.6-0.3-0.8c-0.1-0.2-0.3-0.4-0.6-0.5s-0.5-0.2-0.9-0.2c-0.3,0-0.6,0.1-0.9,0.2c-0.2,0.1-0.4,0.3-0.6,0.5s-0.2,0.5-0.3,0.8
		s-0.1,0.6-0.1,0.9c0,0.3,0,0.6,0.1,0.9s0.2,0.6,0.3,0.8s0.3,0.4,0.6,0.6c0.2,0.1,0.5,0.2,0.8,0.2c0.3,0,0.6-0.1,0.9-0.2
		s0.4-0.3,0.6-0.6s0.2-0.5,0.3-0.8S437.5,42.8,437.5,42.5z"/>
	<path class="st0" d="M441.2,44.1h2.3v2.3h-2.3V44.1z"/>
</g>
</svg>
