<!-- Generator: Adobe Illustrator 20.1.0, SVG Export Plug-In  -->
<svg version="1.1"
	 xmlns="http://www.w3.org/2000/svg" xmlns:xlink="http://www.w3.org/1999/xlink" xmlns:a="http://ns.adobe.com/AdobeSVGViewerExtensions/3.0/"
	 x="0px" y="0px" width="213.7px" height="96.6px" viewBox="0 0 213.7 96.6"
	 style="overflow:scroll;enable-background:new 0 0 213.7 96.6;" xml:space="preserve">
<style type="text/css">
	.st0{fill:#00AEEF;}
	.st1{fill:#FFFFFF;}
	.st2{fill:#1C3F94;}
</style>
<defs>
</defs>
<g>
	<g>
		<path class="st0" d="M3.2,90.7c0.3,0.3,0.4,0.6,0.4,1c0,0.4-0.1,0.7-0.4,1c-0.3,0.3-0.6,0.4-1.1,0.4c-0.4,0-0.8-0.1-1.1-0.4
			c-0.3-0.3-0.4-0.6-0.4-1c0-0.4,0.1-0.7,0.4-1c0.3-0.3,0.6-0.4,1.1-0.4C2.5,90.2,2.9,90.4,3.2,90.7z"/>
		<path class="st0" d="M7.1,90.7c0.3,0.3,0.4,0.6,0.4,1c0,0.4-0.1,0.7-0.4,1C6.8,93,6.4,93.1,6,93.1c-0.4,0-0.8-0.1-1.1-0.4
			c-0.3-0.3-0.4-0.6-0.4-1c0-0.4,0.1-0.7,0.4-1c0.3-0.3,0.6-0.4,1.1-0.4C6.4,90.2,6.8,90.4,7.1,90.7z"/>
		<path class="st0" d="M11,90.7c0.3,0.3,0.4,0.6,0.4,1c0,0.4-0.1,0.7-0.4,1c-0.3,0.3-0.6,0.4-1.1,0.4c-0.4,0-0.8-0.1-1.1-0.4
			c-0.3-0.3-0.4-0.6-0.4-1c0-0.4,0.1-0.7,0.4-1c0.3-0.3,0.6-0.4,1.1-0.4C10.3,90.2,10.7,90.4,11,90.7z"/>
		<path class="st0" d="M13.2,82h1.3c0.8-0.3,1.6-0.4,2.3-0.4c2.8,0,4.3,1.7,4.5,5.2c0,0.4,0,0.7,0,1c0,3.6-1.3,5.4-3.9,5.4
			c-1.4,0-2.3-0.2-2.6-0.6v4h-1.6V82z M17,83.1c-0.7,0-1.4,0.1-2.2,0.4v5.9c0.3,1.6,1.1,2.4,2.6,2.4h0.2c1.6,0,2.3-1.4,2.3-4.3v-0.7
			C19.7,84.3,18.8,83.1,17,83.1z"/>
		<path class="st0" d="M24.9,93.1h-1.6V82h1.6v0.9c0.3-0.5,0.7-0.9,1.4-1c0.2,0,0.4,0,0.6,0c0.4,0,0.8,0.1,1.2,0.2l-0.6,1.3
			c-0.4-0.1-0.8-0.2-1-0.2c-0.3,0-0.5,0.1-0.8,0.2c-0.4,0.2-0.6,0.7-0.8,1.5V93.1z"/>
		<path class="st0" d="M33.2,81.6c2.7,0,4.1,1.9,4.4,5.8c-0.1,4-1.6,6-4.4,6c-2.8,0-4.3-2-4.4-6C29.1,83.5,30.6,81.6,33.2,81.6z
			 M36,87.4c-0.1-2.8-1.1-4.3-2.8-4.3c-1.7,0-2.6,1.4-2.8,4.3c0.1,3,1,4.4,2.8,4.4C35,91.9,36,90.4,36,87.4z"/>
		<path class="st0" d="M39.6,78.5h1.6v4.6c0.3-0.8,1.2-1.2,2.6-1.2c2.6,0,3.9,1.8,3.9,5.4c0,0.3,0,0.7,0,1c-0.1,3.2-1.1,4.8-2.7,4.8
			c-0.1,0-0.1,0-0.2,0h-5.1V78.5z M46.3,88.3v-0.7c0-2.8-0.8-4.3-2.3-4.3h-0.2c-1.4,0-2.3,0.8-2.6,2.4l0,6.1h3.3
			C45.6,91.7,46.2,90.6,46.3,88.3z"/>
		<path class="st0" d="M52.7,77.8c0.2,0.2,0.3,0.5,0.3,0.8c0,0.3-0.1,0.6-0.3,0.8c-0.2,0.2-0.5,0.3-0.8,0.3c-0.3,0-0.6-0.1-0.9-0.3
			c-0.2-0.2-0.3-0.5-0.3-0.8c0-0.3,0.1-0.6,0.3-0.8c0.2-0.2,0.5-0.3,0.9-0.3C52.2,77.5,52.5,77.6,52.7,77.8z M52.6,93.2H51V82h1.6
			V93.2z"/>
		<path class="st0" d="M59.8,81.6c2.7,0,4.1,1.9,4.4,5.8c-0.1,4-1.6,6-4.4,6c-2.8,0-4.3-2-4.4-6C55.7,83.5,57.2,81.6,59.8,81.6z
			 M62.6,87.4c-0.1-2.8-1.1-4.3-2.8-4.3c-1.7,0-2.6,1.4-2.8,4.3c0.1,3,1,4.4,2.8,4.4C61.6,91.9,62.6,90.4,62.6,87.4z M58.5,80.7
			l1.2-2.8h2.5l-2.3,2.8L58.5,80.7z"/>
		<path class="st0" d="M68.3,82H70v1.5h-1.7v9.7h-1.6v-9.7H65V82h1.7v-2.4h1.6V82z"/>
		<path class="st0" d="M74.3,77.8c0.2,0.2,0.3,0.5,0.3,0.8c0,0.3-0.1,0.6-0.3,0.8c-0.2,0.2-0.5,0.3-0.8,0.3c-0.3,0-0.6-0.1-0.9-0.3
			c-0.2-0.2-0.3-0.5-0.3-0.8c0-0.3,0.1-0.6,0.3-0.8c0.2-0.2,0.5-0.3,0.9-0.3C73.8,77.5,74.1,77.6,74.3,77.8z M74.2,93.2h-1.6V82h1.6
			V93.2z"/>
		<path class="st0" d="M81.3,83.4c-0.8,0-1.5,0.6-1.9,1.6c-0.3,0.7-0.5,1.6-0.5,2.6c0,0.6,0.1,1.2,0.2,1.8c0.3,1.6,1.1,2.5,2.7,2.5
			h0.1c1.8-0.2,2.8-1.5,2.8-3.9l1.6,0c-0.1,3.4-1.6,5.1-4.5,5.3c-0.1,0-0.2,0-0.3,0c-2.1,0-3.4-1-3.9-3c-0.2-0.9-0.3-1.8-0.3-2.6
			c0-1.1,0.2-2.1,0.5-3.1c0.7-1.8,1.9-2.7,3.7-2.7h0.2c1.4,0,2.5,0.6,3.3,1.9l-1.1,1c-0.6-0.9-1.4-1.4-2.3-1.5
			C81.6,83.3,81.5,83.3,81.3,83.4z"/>
		<path class="st0" d="M92.1,81.6c2.7,0,4.1,1.9,4.4,5.8c-0.1,4-1.6,6-4.4,6c-2.8,0-4.3-2-4.4-6C88,83.5,89.4,81.6,92.1,81.6z
			 M94.9,87.4c-0.1-2.8-1.1-4.3-2.8-4.3c-1.7,0-2.6,1.4-2.8,4.3c0.1,3,1,4.4,2.8,4.4C93.9,91.9,94.8,90.4,94.9,87.4z"/>
		<path class="st0" d="M103.2,84.5c-0.2-0.8-0.7-1.3-1.5-1.4l-0.1,0c-0.1,0-0.1,0-0.2,0c-0.2,0-0.4,0.1-0.7,0.2
			c-0.3,0.2-0.5,0.4-0.5,0.8v0.2c0,0.5,0.3,0.8,0.8,0.9c0.7,0.2,1.6,0.5,2.6,0.8c1,0.3,1.7,0.8,2.1,1.5c0.2,0.4,0.3,0.8,0.3,1.4
			c0,0.3,0,0.6-0.1,1l-0.1,0.4c-0.6,2.2-1.9,3.2-3.9,3.2c-0.3,0-0.5,0-0.8-0.1c-2.2-0.4-3.3-1.8-3.3-4.3c0-0.2,0-0.4,0-0.7h1.7
			c0,0.4,0,0.6,0,0.8c0,1.7,0.6,2.7,1.8,2.9c0.2,0,0.3,0,0.5,0c1.2,0,2-0.7,2.4-2.1c0-0.1,0.1-0.3,0.1-0.4c0-0.2,0.1-0.4,0.1-0.6
			c0-0.3,0-0.5-0.1-0.7c-0.2-0.4-0.5-0.7-0.9-0.8c-0.4-0.2-1.2-0.4-2.3-0.7c-1.1-0.3-1.8-0.7-2.2-1.1c-0.3-0.4-0.4-0.8-0.4-1.3
			c0-0.1,0-0.2,0-0.4c0.1-0.7,0.5-1.3,1.1-1.7c0.5-0.3,1-0.5,1.7-0.5c0.2,0,0.4,0,0.6,0l0.1,0c1.6,0.3,2.4,1.2,2.5,2.9H103.2z"/>
		<path class="st0" d="M117.9,77.8c0.2,0.2,0.3,0.5,0.3,0.8c0,0.3-0.1,0.6-0.3,0.8c-0.2,0.2-0.5,0.3-0.8,0.3c-0.3,0-0.6-0.1-0.9-0.3
			c-0.2-0.2-0.3-0.5-0.3-0.8c0-0.3,0.1-0.6,0.3-0.8c0.2-0.2,0.5-0.3,0.9-0.3C117.4,77.5,117.7,77.6,117.9,77.8z M117.8,93.2h-1.6V82
			h1.6V93.2z"/>
		<path class="st0" d="M122.7,93.1h-1.6V82h1.6v1c0.3-0.8,1.2-1.1,2.6-1.1h0c2.4,0,3.6,1.7,3.6,5c0,0.2,0,0.3,0,0.5v5.8h-1.5v-5.6
			c0-0.2,0-0.4,0-0.5c0-2.3-0.7-3.6-2-3.7h-0.1c-1.4,0-2.3,0.8-2.6,2.4V93.1z"/>
		<path class="st0" d="M133.6,82h1.7v1.5h-1.7v9.7h-1.6v-9.7h-1.7V82h1.7v-2.4h1.6V82z"/>
		<path class="st0" d="M137.9,86.4c0,0.3,0,0.6,0,1c0,2.9,0.9,4.4,2.6,4.4c0.1,0,0.1,0,0.2,0c1.8-0.1,2.9-1.3,3-3.7h1.4
			c-0.3,3.5-1.8,5.2-4.8,5.3c-2.1-0.1-3.3-1.3-3.7-3.7c-0.2-0.9-0.2-1.8-0.2-2.5c0-1.1,0.2-2,0.5-2.7c0.8-1.8,2.1-2.7,3.9-2.7
			c0.1,0,0.3,0,0.4,0c2,0.2,3.2,1.7,3.5,4.7H137.9z M140.7,83.3h-0.1c-1.2,0-2,0.6-2.5,1.8h4.8C142.7,83.9,142,83.3,140.7,83.3z"/>
		<path class="st0" d="M149.1,93.1h-1.6V78.5h1.6V93.1z"/>
		<path class="st0" d="M154.7,77.8c0.2,0.2,0.3,0.5,0.3,0.8c0,0.3-0.1,0.6-0.3,0.8s-0.5,0.3-0.8,0.3c-0.3,0-0.6-0.1-0.9-0.3
			c-0.2-0.2-0.3-0.5-0.3-0.8c0-0.3,0.1-0.6,0.3-0.8c0.2-0.2,0.5-0.3,0.9-0.3C154.2,77.5,154.5,77.6,154.7,77.8z M154.6,93.2h-1.6V82
			h1.6V93.2z"/>
		<path class="st0" d="M166,92.8c-0.4,2.4-1.7,3.6-4.1,3.6c-0.9,0-1.8-0.3-2.6-0.9l1.2-1c0.4,0.3,0.9,0.5,1.3,0.5
			c1.5,0,2.3-1,2.6-2.9c-0.3,0.7-1.2,1.1-2.6,1.1c-2.6,0-3.9-1.8-3.9-5.4c0-0.3,0-0.7,0-1c0.2-3.4,1.7-5.2,4.5-5.2
			c0.7,0,1.5,0.1,2.3,0.4h1.3L166,92.8z M159.4,86.8c0,0.3,0,0.5,0,0.7c0,2.8,0.8,4.3,2.4,4.3h0.2c1.4,0,2.3-0.8,2.6-2.4v-5.9
			c-0.8-0.3-1.5-0.4-2.2-0.4C160.5,83.1,159.5,84.3,159.4,86.8z"/>
		<path class="st0" d="M170.1,86.4c0,0.3,0,0.6,0,1c0,2.9,0.9,4.4,2.6,4.4c0.1,0,0.1,0,0.2,0c1.8-0.1,2.9-1.3,3-3.7h1.4
			c-0.3,3.5-1.8,5.2-4.8,5.3c-2.1-0.1-3.3-1.3-3.7-3.7c-0.2-0.9-0.2-1.8-0.2-2.5c0-1.1,0.2-2,0.5-2.7c0.8-1.8,2.1-2.7,3.9-2.7
			c0.1,0,0.3,0,0.4,0c2,0.2,3.2,1.7,3.5,4.7H170.1z M172.9,83.3h-0.1c-1.2,0-2,0.6-2.5,1.8h4.8C174.9,83.9,174.2,83.3,172.9,83.3z"
			/>
		<path class="st0" d="M180.6,93.1H179V82h1.6v1c0.3-0.8,1.2-1.1,2.6-1.1h0c2.4,0,3.6,1.7,3.6,5c0,0.2,0,0.3,0,0.5v5.8h-1.5v-5.6
			c0-0.2,0-0.4,0-0.5c0-2.3-0.7-3.6-2-3.7h-0.1c-1.4,0-2.3,0.8-2.6,2.4V93.1z"/>
		<path class="st0" d="M191.6,82h1.7v1.5h-1.7v9.7H190v-9.7h-1.7V82h1.7v-2.4h1.6V82z"/>
		<path class="st0" d="M195.8,86.4c0,0.3,0,0.6,0,1c0,2.9,0.9,4.4,2.6,4.4c0.1,0,0.1,0,0.2,0c1.8-0.1,2.9-1.3,3-3.7h1.4
			c-0.3,3.5-1.8,5.2-4.8,5.3c-2.1-0.1-3.3-1.3-3.7-3.7c-0.2-0.9-0.2-1.8-0.2-2.5c0-1.1,0.2-2,0.5-2.7c0.8-1.8,2.1-2.7,3.9-2.7
			c0.1,0,0.3,0,0.4,0c2,0.2,3.2,1.7,3.5,4.7H195.8z M198.6,83.3h-0.1c-1.2,0-2,0.6-2.5,1.8h4.8C200.6,83.9,199.9,83.3,198.6,83.3z"
			/>
		<path class="st0" d="M209.7,84.5c-0.2-0.8-0.7-1.3-1.5-1.4l-0.1,0c-0.1,0-0.1,0-0.2,0c-0.2,0-0.4,0.1-0.7,0.2
			c-0.3,0.2-0.5,0.4-0.5,0.8v0.2c0,0.5,0.3,0.8,0.8,0.9c0.7,0.2,1.6,0.5,2.6,0.8c1,0.3,1.7,0.8,2.1,1.5c0.2,0.4,0.3,0.8,0.3,1.4
			c0,0.3,0,0.6-0.1,1l-0.1,0.4c-0.6,2.2-1.9,3.2-3.9,3.2c-0.3,0-0.5,0-0.8-0.1c-2.2-0.4-3.3-1.8-3.3-4.3c0-0.2,0-0.4,0-0.7h1.7
			c0,0.4,0,0.6,0,0.8c0,1.7,0.6,2.7,1.8,2.9c0.2,0,0.3,0,0.5,0c1.2,0,2-0.7,2.4-2.1c0-0.1,0.1-0.3,0.1-0.4c0-0.2,0.1-0.4,0.1-0.6
			c0-0.3,0-0.5-0.1-0.7c-0.2-0.4-0.5-0.7-0.9-0.8c-0.4-0.2-1.2-0.4-2.3-0.7c-1.1-0.3-1.8-0.7-2.2-1.1c-0.3-0.4-0.4-0.8-0.4-1.3
			c0-0.1,0-0.2,0-0.4c0.1-0.7,0.5-1.3,1.1-1.7c0.5-0.3,1-0.5,1.7-0.5c0.2,0,0.4,0,0.6,0l0.1,0c1.6,0.3,2.4,1.2,2.5,2.9H209.7z"/>
	</g>
	<g>
		<path class="st1" d="M194.6,39.4c-0.1-0.1-5.4-6.5-4.8-12.5c0.2-2.3,1.3-4.3,3.3-6c0.5-0.2,3-1.2,6.3-1.7c1.1-0.1,1.8-0.6,2.1-1.3
			c0.4-1.2-0.6-2.4-0.8-2.6c-0.1-0.1-0.3-0.2-0.5-0.3c-1.1-0.2-2.3-0.4-3.4-0.4c-5.5,0-8.7,2.9-8.8,3c-4.5,3.4-9.2,9.8-6.3,21
			c0.1,0.2,1.8,5.4,8.2,12.9c0.4,0.6,4.4,7.1,2.6,13.2c-1.1,3.6-4,6.5-8.6,8.5c-0.1,0.1-0.2,0.1-0.3,0.2c-0.2,0.2-0.9,1.1-0.5,2.1
			c0.5,1.1,2,1.1,2.5,1.1c0.5,0,1.1,0,1.7-0.1c5.9-0.7,16.7-6.3,14.9-22.6C202.3,53.8,201.4,48.6,194.6,39.4z"/>
		<path class="st1" d="M183.8,58c0.2,0,0.4-0.1,0.6-0.2c0.2-0.2,0.3-0.4,0.3-0.7v-4c0-0.2-0.1-0.5-0.3-0.6c-0.2-0.2-0.4-0.2-0.6-0.3
			l-0.2,0c-3.9,0-5-1-5-1l0,0c-0.1-0.1-0.1-0.1-0.2-0.2c-1.1-0.8-1.7-2.1-2.1-3.4c-0.5-1.6-0.6-3.3-0.6-4.6V1.2
			c0-0.5-0.4-0.9-0.9-0.9l-6.9,0c-0.3,0-0.5,0.1-0.6,0.3c-0.2,0.2-0.3,0.4-0.3,0.6v31.5c0,10.3,0.4,12.4,1.3,14.5
			c0.8,2.1,2.1,4,3.6,5.6c1.6,1.6,3.5,3,5.8,3.9C179.1,57.4,181.8,57.8,183.8,58C183.8,58,183.8,58,183.8,58z"/>
		<path class="st1" d="M165,19.3c-0.3-0.8-0.8-1.5-1.4-2.2c-1.5-1.5-3.8-2.5-6-2.5l-0.2,0c-2.2,0.1-4.4,0.5-6.4,1.4
			c-2.1,0.9-4,2.2-5.5,3.7c-1.6,1.6-2.8,3.4-3.7,5.5c-0.9,2.1-1.4,4.4-1.4,6.8l0,12.7l-0.2,4.4c-0.1,1.8-0.3,2.4-0.4,2.5
			c-0.3,0.6-1.4,1-3.1,1c-1.2,0-2,0.8-2,2.1c0,1.5,0.9,2.1,1.8,2.1h19.5c0.5,0,1.6-0.2,1.6-2.3c0-1.1-0.6-1.9-1.6-2.1
			c-0.1,0-0.1,0-0.2,0c-1.1,0-2.1-0.1-2.9-0.2c-1.2-0.2-1.4-2.8-1.4-4.4V36.6l0-9.9c0-7,5.6-7.2,5.9-7.2l0.2,0c3.2,0,4.6,3,4.7,3.2
			c0.3,0.7,0.9,1.1,1.7,1.1c0.9,0,1.7-0.6,1.8-1.5c0.2-0.9-0.3-1.9-0.6-2.7L165,19.3z"/>
		<path class="st1" d="M132.3,52.3c-0.1,0-0.1,0-0.2,0c-1.2,0-2.2-0.1-3-0.2c-1.3-0.2-1.5-2.9-1.5-4.5l0-12.3c0-2.9-0.5-5.7-1.6-8.2
			c-1.1-2.6-2.6-4.8-4.4-6.7c-1.5-1.5-3.5-3.4-6-4.4c-2.7-1-5.4-1.6-8.2-1.6c-4.7,0-7.8,1.5-8,1.6C97,17,94.8,18.6,93,20.5
			c-1.8,1.9-3.2,4.1-4.3,6.7c-1,2.5-1.5,5.3-1.5,8.2c0,3,0.5,5.8,1.6,8.4c1.1,2.6,2.5,4.8,4.3,6.7c1.8,1.9,4,3.3,6.4,4.4
			c2.1,0.9,4.4,1.5,6.8,1.6c0,0,0.1,0,0.4,0c1.4,0,8.6-0.3,10.9-6.7c0-0.1,0.1-0.2,0.1-0.3c0-0.3,0-1.4-0.6-2.1
			c-0.7-0.7-1.7-0.6-2.8,0.3c-0.3,0.3-0.8,0.5-1.2,0.7l-0.3,0.1c-3.3,1.4-7.2,1.4-10.4,0c-1.7-0.7-3.1-1.8-4.3-3
			c-1.2-1.3-2.2-2.8-2.9-4.5c-0.7-1.7-1.1-3.5-1.1-5.5c0-2,0.4-3.8,1.1-5.5c0.7-1.7,1.7-3.3,2.9-4.5c1.2-1.3,2.7-2.3,4.3-3
			c3.2-1.5,7.3-1.5,10.6,0c1.5,0.6,2.8,1.5,3.9,2.5c0,0,2.2,2.3,2.2,7.3L118.9,56c0,0.2,0.1,0.5,0.3,0.6c0.2,0.2,0.4,0.3,0.6,0.3
			h12.5c0.5,0,1.6-0.2,1.6-2.4C133.9,53.3,133.3,52.5,132.3,52.3z"/>
		<path class="st1" d="M67.4,14.7c-5.5-0.3-10.4,1.7-14.6,6.1c-4,4.3-6,9.5-5.9,15.5c0.1,5.6,2.1,10.5,6,14.7c3.8,4,8.4,6,13.4,6
			l0.3,0c3.8-0.1,7.4-1.2,10.6-3.5c1-0.9,2.3-2,3.1-3.4c0.3-0.5,1-1.8,0.2-3c-0.5-0.7-1.2-0.9-1.6-0.9c-0.3,0-0.5,0.1-0.8,0.2
			c-0.4,0.2-0.8,0.4-1.1,0.7c-0.2,0.2-0.5,0.4-0.7,0.4c-7.8,2.1-13.6,1.3-17.2-2.5c-3.5-3.7-3.9-9.2-4-11.3l29.7-0.1
			c0.2,0,0.5-0.1,0.7-0.3c0.2-0.2,0.2-0.4,0.2-0.7c-0.5-4.1-2.2-7.9-5.2-11.3C76.8,17.2,72.4,15,67.4,14.7z M55.3,28.2
			c0.6-2.3,1.7-4.2,3.4-5.6c1.9-1.6,4.1-2.5,6.5-2.5l0.2,0c2.6,0.1,4.8,0.9,6.6,2.6c1.6,1.4,2.7,3.3,3.3,5.5H55.3z"/>
		<path class="st1" d="M43.8,32.2c-0.1-0.7-0.2-1.4-0.3-2.1c-0.2-0.7-0.3-1.3-0.5-2c-0.5-1.7-1.3-3.3-2.3-4.8c-1-1.5-2.2-3-3.6-4.4
			c-1.5-1.5-3.3-2.6-5.4-3.3c-2.1-0.7-4.5-1-7.2-1h-0.6c-0.3,0-0.5,0-0.7,0.1c-0.2,0-0.5,0-0.7,0c-0.2,0-0.5,0.1-0.7,0.1
			c-0.5,0.1-1,0.1-1.4,0.3c-0.5,0.1-1,0.3-1.4,0.4c-1.7,0.6-3.3,1.4-4.9,2.4c-1.5,1.1-3,2.4-4.3,4c-1.4,1.6-2.5,3.6-3.2,5.9
			c-0.7,2.2-1,4.8-1,7.7l0,32.1l0,0.4c-0.1,1.4-0.2,1.9-0.3,2.1c-0.2,0.3-1.5,0.9-3.6,1c-0.9,0-1.8,0.5-1.8,2.1
			c0,1.9,1.2,2.1,1.6,2.1h17.3c0.7,0,1.5-0.4,1.5-2.3c0-1.5-0.9-2-1.4-2.1c-0.1,0-0.1,0-0.2,0c-1,0-2.9-0.1-3.4-0.2
			c-0.1,0-0.9-0.3-1-3.3v-34c0-0.5,0-1,0-1.5c0-1.5-0.1-3.1,0.2-4.6c0.1-0.3,0.2-0.7,0.4-1.1c0.5-1.2,1.2-2.3,2-3.1
			c0.1-0.1,0.1-0.1,0.2-0.2c0.8-0.8,1.7-1.5,2.6-2c0.4-0.2,0.8-0.4,1.2-0.6c0.4-0.2,0.7-0.3,1.1-0.3c0,0,0.1,0,0.1,0
			c0.4-0.1,0.8-0.2,1.1-0.3c0.3-0.1,0.7-0.1,1-0.1c1.5,0,2.9,0.3,4.2,0.9c1.4,0.6,2.7,1.6,4,2.8c1.3,1.2,2.2,2.7,2.9,4.5
			c0.6,1.7,1,3.7,1,5.9c0,2-0.3,3.9-0.7,5.6c0,0-1.2,3.3-2.2,4.7c-0.9,1.3-2,2.3-3.4,2.9c-1.4,0.6-3.2,1-5.1,1h-1.1
			c-0.3,0-0.5,0-0.7-0.1c-0.3-0.1-0.6,0-1-0.1c-0.3-0.1-0.6-0.1-0.8-0.2c-0.5-0.1-0.9-0.3-1.4-0.4c-0.5-0.2-1-0.4-1.6-0.6
			c0,0-0.1-0.1-0.1-0.1c-1.2-0.4-1.9-0.3-2.3,0.4c-0.4,0.8,0.1,1.9,0.6,2.6c0,0,0,0.1,0.1,0.1c3.6,4.2,9,4.8,11.9,4.8
			c1,0,1.6-0.1,1.5-0.1h0c6.1-0.3,10.7-6.1,10.9-6.3c0,0,0.1-0.1,0.1-0.1c0.8-1.4,1.4-2.9,1.9-4.4c0.2-0.6,0.4-1.3,0.5-2
			c0.2-0.7,0.3-1.4,0.3-2c0.1-0.7,0.2-1.3,0.2-1.9c0.1-0.7,0.1-1.2,0.1-1.8c0-0.5,0-1.1-0.1-1.7C44,33.4,43.9,32.8,43.8,32.2z"/>
		<path class="st1" d="M212.8,14.7h-0.7c-0.4,0-0.7,0.2-0.8,0.6l-0.4,1.1l-0.4-1.1c-0.1-0.4-0.5-0.6-0.8-0.6h-0.8
			c-0.1,0-0.2,0-0.3,0.1c-0.1,0-0.2-0.1-0.3-0.1H205c-0.5,0-0.9,0.4-0.9,0.9v0.5c0,0.5,0.4,0.9,0.9,0.9h0.5v2.8
			c0,0.5,0.4,0.9,0.9,0.9h0.5c0.5,0,0.9-0.4,0.9-0.9v-2.8h0.2v2.8c0,0.5,0.4,0.9,0.9,0.9h0.5c0.2,0,0.4-0.1,0.6-0.2
			c0.2,0.1,0.4,0.2,0.6,0.2h0.5c0.2,0,0.4-0.1,0.6-0.2c0.2,0.1,0.4,0.2,0.6,0.2h0.5c0.5,0,0.9-0.4,0.9-0.9v-4.1
			C213.7,15.1,213.3,14.7,212.8,14.7z"/>
		<path class="st1" d="M48.3,13.4c0.2,0.2,0.4,0.4,0.7,0.4h2.3c0.3,0,0.6-0.2,0.7-0.4c0.2-0.3,0.2-0.6,0-0.9c-0.2-0.3-0.3-0.7-0.3-1
			c0-0.2-0.1-0.6-0.1-1.5l0-2.7c0-1.2-0.1-2-0.4-2.5c-0.3-0.5-0.8-1-1.5-1.3c-0.6-0.3-1.5-0.5-2.7-0.5c-1.3,0-2.3,0.3-3.1,0.8
			c-0.7,0.5-1.3,1.3-1.6,2.4c-0.1,0.2,0,0.5,0.1,0.7c0.1,0.2,0.3,0.4,0.6,0.4l0.9,0.2c0,0,0,0-0.1,0c-0.6,0.3-1,0.7-1.4,1.2
			c-0.3,0.5-0.5,1.1-0.5,1.8c0,1,0.4,1.8,1.1,2.5c0.7,0.6,1.6,1,2.7,1c0.6,0,1.2-0.1,1.8-0.4C47.9,13.6,48.1,13.5,48.3,13.4z
			 M46.5,6.7c0,0,0.1-0.1,0.5-0.1c0.2,0,0.3,0,0.4,0c-0.3,0.1-0.6,0.1-1,0.2C46.4,6.8,46.5,6.8,46.5,6.7z M46.3,10.3
			c0,0,0.2-0.1,1-0.3c0.1,0,0.2,0,0.3-0.1c0,0.1,0,0.2,0,0.2c0,0.1-0.1,0.2-0.2,0.3c-0.4,0.3-0.9,0.3-1,0.1
			C46.3,10.5,46.3,10.4,46.3,10.3C46.3,10.3,46.3,10.3,46.3,10.3z"/>
		<path class="st1" d="M56.8,14c1.3,0,2.4-0.3,3.2-1c0.8-0.6,1.3-1.5,1.6-2.5V13c0,0.5,0.4,0.9,0.9,0.9h2.3c0.5,0,0.9-0.4,0.9-0.9
			V4.2c0-0.2-0.1-0.4-0.2-0.6c0.1-0.2,0.2-0.4,0.2-0.6V0.9c0-0.5-0.4-0.9-0.9-0.9h-2.3c-0.5,0-0.9,0.4-0.9,0.9V3
			c0,0.2,0.1,0.4,0.2,0.6c-0.1,0.2-0.2,0.4-0.2,0.6v5.4c0,0,0,0,0-0.1c-0.1-0.2-0.3-0.3-0.6-0.4l-2.3-0.4c-0.5-0.1-0.9,0.2-1,0.7
			c-0.1,0.6-0.3,0.8-0.3,0.8c-0.1,0.1-0.2,0.2-0.5,0.2c-0.3,0-0.5-0.1-0.7-0.3c-0.1-0.1-0.3-0.5-0.3-1.6c0-1,0.2-1.3,0.3-1.4
			c0.1-0.1,0.3-0.3,0.7-0.3c0.3,0,0.5,0.1,0.5,0.1c0.1,0.1,0.2,0.3,0.2,0.5c0,0.2,0.2,0.4,0.4,0.6c0.2,0.1,0.4,0.2,0.7,0.1l2.3-0.4
			c0.2,0,0.5-0.2,0.6-0.4c0.1-0.2,0.2-0.5,0.1-0.7c-0.3-1.1-0.9-2-1.7-2.6c-0.8-0.6-1.8-0.9-3.1-0.9c-1.5,0-2.8,0.5-3.7,1.5
			c-0.9,1-1.4,2.3-1.4,4c0,1.7,0.5,3,1.4,4C54,13.5,55.2,14,56.8,14z"/>
		<path class="st1" d="M90,17.2c0.5,0,0.9-0.4,0.9-0.9v-2.6c0.5,0.2,1.1,0.4,1.7,0.4c1.3,0,2.4-0.5,3.3-1.5c0.9-1,1.3-2.3,1.3-4
			c0-1.6-0.4-3-1.3-3.9c-0.9-1-2-1.5-3.2-1.5c-0.7,0-1.4,0.2-2,0.5c0,0,0,0,0,0c-0.2-0.2-0.4-0.3-0.7-0.3h-2.2
			c-0.5,0-0.9,0.4-0.9,0.9v4.2c0-1.5-0.5-2.7-1.5-3.7c-1-1-2.3-1.6-3.9-1.6c-1,0-1.9,0.2-2.7,0.7c-0.8,0.5-1.5,1.1-2,2
			c-0.4,0.8-0.6,1.6-0.7,2.4V0.9c0-0.5-0.4-0.9-0.9-0.9h-2.3C72.4,0,72,0.4,72,0.9v2.6c-0.5-0.2-1.1-0.3-1.7-0.3
			c-1.3,0-2.4,0.5-3.3,1.4c-0.8,0.9-1.3,2.3-1.3,4c0,1.7,0.4,3,1.3,4c0.9,1,2,1.5,3.2,1.5c0.6,0,1.3-0.2,1.9-0.5
			c0.1,0,0.1-0.1,0.2-0.1c0.2,0.2,0.4,0.4,0.7,0.4h2.2c0.5,0,0.9-0.4,0.9-0.9V8.7c0,1,0.2,1.9,0.7,2.7c0.5,0.9,1.2,1.5,2,2
			c0.8,0.4,1.8,0.6,2.7,0.6c1.5,0,2.8-0.5,3.9-1.6c1-1,1.5-2.3,1.5-3.8v7.6c0,0.5,0.4,0.9,0.9,0.9H90z M93,8.6c0,1-0.2,1.4-0.3,1.6
			c-0.2,0.2-0.4,0.3-0.7,0.3c-0.2,0-0.5,0-0.7-0.4c-0.3-0.3-0.4-0.9-0.4-1.6c0-0.6,0.1-1.1,0.3-1.4c0.2-0.2,0.4-0.3,0.7-0.3
			c0.3,0,0.5,0.1,0.7,0.3C92.9,7.3,93,7.9,93,8.6z M70.1,10c-0.1-0.2-0.3-0.6-0.3-1.6c0-0.6,0.1-1.1,0.3-1.4
			c0.2-0.2,0.4-0.3,0.7-0.3c0.3,0,0.5,0.1,0.7,0.3C71.8,7.2,72,7.6,72,8.6c0,0.7-0.1,1.2-0.4,1.5c-0.3,0.3-0.5,0.4-0.7,0.4
			C70.6,10.5,70.4,10.3,70.1,10z M82.7,8.6c0,0.7-0.1,1.1-0.4,1.4c-0.5,0.5-1.2,0.5-1.7,0c-0.3-0.3-0.4-0.8-0.4-1.4
			c0-0.6,0.1-1.1,0.4-1.4c0.2-0.3,0.5-0.4,0.9-0.4c0.4,0,0.6,0.1,0.9,0.4C82.6,7.5,82.7,7.9,82.7,8.6z"/>
		<path class="st1" d="M98.1,13.8h2.3c0.5,0,0.9-0.4,0.9-0.9V8.6c0-0.8,0.1-1.2,0.2-1.4c0.1-0.3,0.2-0.4,0.3-0.4
			c0.2-0.1,0.3-0.2,0.6-0.2c0.1,0,0.3,0,0.4,0.1c0.1,0,0.1,0.1,0.1,0.1c0,0,0.1,0.3,0.1,1.5V13c0,0.5,0.4,0.9,0.9,0.9h2.3
			c0.5,0,0.9-0.4,0.9-0.9V7.8c0-0.9,0-1.5-0.1-1.9c-0.1-0.5-0.3-0.9-0.6-1.3c-0.3-0.4-0.8-0.8-1.3-1.1c-1.1-0.5-2.5-0.5-3.6,0V0.9
			c0-0.5-0.4-0.9-0.9-0.9h-2.3c-0.5,0-0.9,0.4-0.9,0.9V13C97.2,13.4,97.6,13.8,98.1,13.8z"/>
		<path class="st1" d="M108.4,13.8h2.3c0.5,0,0.9-0.4,0.9-0.9V4.2c0-0.2-0.1-0.4-0.2-0.6c0.1-0.2,0.2-0.4,0.2-0.6V0.9
			c0-0.5-0.4-0.9-0.9-0.9h-2.3c-0.5,0-0.9,0.4-0.9,0.9V3c0,0.2,0.1,0.4,0.2,0.6c-0.1,0.2-0.2,0.4-0.2,0.6V13
			C107.5,13.4,107.9,13.8,108.4,13.8z"/>
		<path class="st1" d="M113.1,13.8h2.3c0.5,0,0.9-0.4,0.9-0.9V0.9c0-0.5-0.4-0.9-0.9-0.9h-2.3c-0.5,0-0.9,0.4-0.9,0.9V13
			C112.2,13.4,112.6,13.8,113.1,13.8z"/>
		<path class="st1" d="M118.6,13.5c0.6,0.3,1.3,0.5,2,0.5c0.7,0,1.4-0.2,2.1-0.5c0,0,0.1,0,0.1-0.1c0.2,0.2,0.4,0.4,0.7,0.4h2.2
			c0.5,0,0.9-0.4,0.9-0.9v-1.8c0.3,0.8,0.8,1.5,1.6,2c0.8,0.6,2,0.9,3.3,0.9c1.5,0,2.7-0.4,3.5-1.1c0.9-0.7,1.3-1.7,1.3-2.7
			c0-1-0.4-1.8-1-2.4c-0.2-0.2-0.5-0.3-0.8-0.5l0.8-0.1c0.2,0,0.5-0.2,0.6-0.4c0.1-0.2,0.2-0.5,0.1-0.7c-0.3-1-0.8-1.7-1.6-2.2
			c-0.7-0.5-1.8-0.7-3.2-0.7c-1.5,0-2.6,0.3-3.4,1c-0.8,0.7-1.2,1.6-1.2,2.6c0,1.1,0.5,2.1,1.4,2.7c0,0,0,0,0.1,0l-1.1,0.2
			c-0.2,0-0.4,0.2-0.6,0.4V4.2c0-0.5-0.4-0.9-0.9-0.9h-2.3c-0.5,0-0.9,0.4-0.9,0.9v3.7c0,1.6-0.1,2-0.1,2.1
			c-0.1,0.1-0.2,0.3-0.3,0.4c-0.2,0.1-0.3,0.2-0.6,0.2c-0.1,0-0.3,0-0.3-0.1c0,0-0.1-0.1-0.1-0.2c0-0.1-0.1-0.4-0.1-2v-4
			c0-0.5-0.4-0.9-0.9-0.9h-2.3c-0.5,0-0.9,0.4-0.9,0.9v5.5c0,1,0.1,1.7,0.4,2.3C117.5,12.7,118,13.2,118.6,13.5z M131.5,10.6
			c-0.3,0-0.6-0.1-0.7-0.2c0,0-0.1,0-0.1-0.1c0.3,0.1,0.7,0.2,1.1,0.3C131.6,10.6,131.6,10.6,131.5,10.6z"/>
	</g>
	<g>
		<g>
			<g>
				<path class="st2" d="M198.6,17.6c-4,0.5-6.7,1.8-6.7,1.8c-9.2,7.4,1.3,19.8,1.3,19.8c6.8,9.1,7.5,14.2,7.5,14.2
					c2.1,19.7-14.1,21.6-14.1,21.6c-4.9,0.7-2.9-1.6-2.9-1.6c16.9-7.4,6.3-23.1,6.3-23.1c-6.4-7.5-8.1-12.7-8.1-12.7
					c-2.7-10.3,1.2-16.5,6-20.1c0,0,4.4-4,11.5-2.5C199.4,15.2,201.3,17.3,198.6,17.6z"/>
				<g>
					<path class="st2" d="M183.1,52.6v3.7c-2.3-0.2-4.6-0.6-5.9-1.2c-2.2-0.9-4-2.2-5.5-3.8c-1.5-1.5-2.6-3.3-3.4-5.3
						c-0.8-2-1.2-4-1.2-14.2V0.4l6.9,0v41.9c0,1.5,0.2,3.3,0.7,4.8c0.5,1.5,1.2,2.9,2.5,3.8c0,0,1.1,1.4,6,1.4V52.6z"/>
				</g>
				<g>
					<path class="st2" d="M149.8,30.2v5.7c0,4.7,0,11.3,0,11.3c0,3.2,0.7,5,2.1,5.2c0.8,0.1,1.8,0.2,3,0.2c0.6,0.1,0.9,0.5,0.9,1.3
						c0,1-0.2,1.4-0.7,1.4h-1.6c-0.5,0-1.5,0-5.6,0c0.2,0-1,0-3.6,0h-3.9h-3c-0.5,0-1.1,0-1.8,0c-0.6,0-0.9-0.4-0.9-1.2
						c0-0.8,0.4-1.2,1.1-1.2c2.2-0.1,3.5-0.6,3.9-1.5c0.2-0.5,0.4-1.4,0.5-2.8l0-0.8l0.2-3.6c0-4,0-12.8,0-12.8
						c0-2.3,0.4-4.5,1.3-6.5c0.9-2,2.1-3.8,3.5-5.3c1.5-1.5,3.2-2.7,5.3-3.5c1.9-0.8,3.9-1.3,6-1.3c2,0,4.2,0.8,5.5,2.3
						c0.5,0.6,0.9,1.2,1.2,1.9c0.3,0.6,0.7,1.7,0.6,2.3c-0.2,0.9-1.4,1.1-1.8,0.2c0,0-1.7-3.8-5.7-3.7c0,0-6.7,0.1-6.7,8.1
						L149.8,30.2z"/>
				</g>
				<g>
					<path class="st2" d="M116.1,48.6c-2.4,6.5-10.4,6.1-10.4,6.1c-2.3-0.1-4.5-0.6-6.5-1.5c-2.3-1-4.4-2.4-6.1-4.2
						c-1.8-1.8-3.1-3.9-4.2-6.4c-1-2.5-1.5-5.2-1.5-8.1c0-2.8,0.5-5.4,1.5-7.8c1-2.4,2.3-4.6,4.1-6.4c1.7-1.8,3.8-3.3,6.1-4.3
						c0,0,6.8-3.4,15.5,0c2.2,0.9,4,2.5,5.7,4.2c1.8,1.8,3.2,4,4.2,6.5c1,2.5,1.6,5.1,1.6,7.9c0,0,0,4.7,0,9.2l0,3.1
						c0,3.4,0.7,5.2,2.2,5.4c0.9,0.1,1.9,0.2,3.1,0.2c0.6,0.1,0.9,0.6,0.9,1.3c0,1-0.2,1.5-0.7,1.5h-1.7c-0.5,0-1.6,0-5.9,0
						c0.2,0-1,0-3.7,0c0,0-0.6,0-1.3,0l0.1-24.1c0-5.4-2.4-7.9-2.4-7.9c-1.2-1.1-2.6-2-4.1-2.7c-1.8-0.8-3.7-1.2-5.7-1.2
						c-2,0-3.9,0.4-5.6,1.2c-1.8,0.8-3.3,1.9-4.6,3.2c-1.3,1.4-2.4,3-3.1,4.8c-0.8,1.8-1.1,3.8-1.1,5.9c0,2.1,0.4,4,1.1,5.8
						c0.8,1.8,1.8,3.4,3.1,4.8c1.3,1.4,2.9,2.5,4.6,3.2c1.7,0.8,3.6,1.2,5.6,1.2c1.9,0,3.8-0.4,5.5-1.1c0.6-0.3,1.3-0.5,1.8-0.9
						C116.2,45.8,116.1,48.6,116.1,48.6z"/>
				</g>
				<path class="st2" d="M77.6,46.4c-0.7,0.3-1.4,0.9-1.9,1.1C52.2,53.9,53.4,32,53.4,32L84,31.9c-0.4-3.9-2.1-7.5-5-10.8
					c-3.5-3.9-7.7-6-12.5-6.3c-5.3-0.3-9.9,1.6-13.9,5.8c-3.9,4.1-5.8,9.1-5.7,14.8c0.1,5.5,2,10.1,5.8,14.1c3.8,3.9,8.1,5.8,13,5.7
					c3.7-0.1,7-1.1,10.1-3.3c1.1-0.9,2.2-1.9,2.9-3.2c0.4-0.6,0.7-1.3,0.2-2C78.6,46.3,78.1,46.2,77.6,46.4z M57.4,21.2
					c2.1-1.8,4.5-2.7,7.3-2.7c2.8,0.1,5.2,1,7.2,2.8c2,1.8,3.3,4.2,3.8,7.1H53.4C54,25.4,55.3,23,57.4,21.2z"/>
				<path class="st2" d="M17.2,46.4c0,0,0.1,0,0.1,0.1c0.5,0.2,1.1,0.5,1.6,0.6c0.5,0.2,1,0.3,1.5,0.5c0.3,0.1,0.6,0.1,0.9,0.2
					c0.3,0.1,0.6,0.1,0.9,0.1c0.3,0.1,0.6,0.1,0.9,0.1c0.3,0,0.7,0,1.1,0c2.1,0,3.9-0.3,5.5-1c1.6-0.7,2.8-1.8,3.8-3.2
					c1-1.5,2.3-4.9,2.3-4.9c0.5-1.8,0.8-3.8,0.8-5.9c0-2.3-0.3-4.4-1-6.2c-0.7-1.9-1.7-3.4-3.1-4.8c-1.4-1.3-2.8-2.3-4.3-3
					c-1.5-0.7-3-1-4.6-1c-0.4,0-0.8,0-1.1,0.1c-0.4,0.1-0.8,0.2-1.2,0.3c-0.4,0.1-0.9,0.2-1.3,0.4c-0.4,0.2-0.9,0.4-1.3,0.6
					c-1,0.5-1.9,1.3-2.8,2.1c-0.1,0.1-0.2,0.2-0.2,0.2c-0.9,1-1.6,2.2-2.2,3.4c-0.2,0.4-0.4,0.9-0.4,1.3c-0.4,2-0.2,4.2-0.2,6.3
					c0,2.9,0,5.8,0,8.8c0,6.4,0,12.8,0,19.1c0,2,0,4.1,0,6.1c0.1,2.6,0.7,3.9,1.7,4.2C15,70.9,17.1,71,18,71
					c0.5,0.1,0.7,0.5,0.7,1.3c0,1-0.2,1.4-0.6,1.4h-1.3c-0.4,0-2.4,0-5.7,0c0.2,0,0,0-2.1,0H5.9H2.3c-0.4,0-0.9,0-1.5,0
					c-0.5,0-0.7-0.4-0.7-1.2c0-0.8,0.3-1.2,0.9-1.2c1.7-0.1,4-0.6,4.4-1.5c0.2-0.4,0.3-1.2,0.4-2.5l0-0.5c0-9.9,0-32,0-32
					c0-2.8,0.3-5.3,1-7.4c0.7-2.2,1.7-4,3-5.6c1.3-1.6,2.7-2.8,4.2-3.9c1.5-1,3-1.8,4.6-2.3c0.4-0.2,0.9-0.3,1.3-0.4
					c0.4-0.1,0.9-0.2,1.3-0.2c0.2-0.1,0.5-0.1,0.7-0.1c0.2,0,0.4,0,0.7,0c0.2-0.1,0.4-0.1,0.6-0.1c0.2,0,0.4,0,0.6,0
					c2.6,0,4.9,0.3,6.9,1c2,0.7,3.7,1.7,5,3.1c1.3,1.3,2.5,2.7,3.4,4.2c1,1.5,1.7,3,2.2,4.6c0.2,0.6,0.4,1.3,0.5,1.9
					c0.1,0.6,0.2,1.3,0.3,1.9c0.1,0.6,0.2,1.2,0.2,1.8c0,0.6,0.1,1.1,0.1,1.6c0,0.5,0,1.1-0.1,1.7c0,0.6-0.1,1.2-0.2,1.9
					c-0.1,0.6-0.2,1.3-0.3,1.9c-0.1,0.6-0.3,1.3-0.5,1.9c-0.5,1.4-1.1,2.8-1.8,4.2c0,0-4.5,5.7-10.2,6c0,0-8.1,1-12.7-4.4
					C16.6,48.2,14.9,45.5,17.2,46.4z"/>
			</g>
			<g>
				<path class="st2" d="M205.6,19v-3.7h-1.4v-0.5h3.3v0.5h-1.4V19H205.6z"/>
				<path class="st2" d="M208.1,19v-4.2h0.8l1,2.9c0.1,0.3,0.2,0.5,0.2,0.6c0-0.2,0.1-0.4,0.2-0.7l1-2.9h0.7V19h-0.5v-3.5l-1.2,3.5
					h-0.5l-1.2-3.5V19H208.1z"/>
			</g>
		</g>
		<g>
			<path class="st2" d="M44.7,6.1l-2.1-0.4c0.2-0.8,0.6-1.5,1.2-1.9c0.6-0.4,1.4-0.6,2.6-0.6c1,0,1.8,0.1,2.3,0.4
				c0.5,0.2,0.9,0.6,1.1,0.9C49.9,4.9,50,5.6,50,6.6l0,2.7c0,0.8,0,1.3,0.1,1.7c0.1,0.4,0.2,0.8,0.4,1.2h-2.3
				c-0.1-0.2-0.1-0.4-0.2-0.7c0-0.1-0.1-0.2-0.1-0.3c-0.4,0.4-0.8,0.7-1.3,0.9c-0.5,0.2-0.9,0.3-1.4,0.3c-0.9,0-1.6-0.2-2.1-0.7
				c-0.5-0.5-0.8-1.1-0.8-1.9c0-0.5,0.1-0.9,0.4-1.3c0.2-0.4,0.6-0.7,1-0.9c0.4-0.2,1-0.4,1.8-0.5c1.1-0.2,1.8-0.4,2.3-0.6V6.3
				c0-0.4-0.1-0.8-0.3-1C47.2,5.1,46.8,5,46.2,5c-0.4,0-0.7,0.1-1,0.2C45,5.4,44.8,5.7,44.7,6.1z M47.8,8c-0.3,0.1-0.8,0.2-1.4,0.4
				c-0.6,0.1-1.1,0.3-1.3,0.4c-0.3,0.2-0.5,0.5-0.5,0.8c0,0.3,0.1,0.6,0.4,0.8c0.2,0.2,0.5,0.4,0.9,0.4c0.4,0,0.8-0.1,1.2-0.4
				c0.3-0.2,0.5-0.5,0.6-0.8c0.1-0.2,0.1-0.6,0.1-1.1V8z"/>
			<path class="st2" d="M60,6l-2.3,0.4c-0.1-0.5-0.3-0.8-0.5-1c-0.3-0.2-0.6-0.3-1.1-0.3c-0.6,0-1,0.2-1.4,0.6
				c-0.3,0.4-0.5,1.1-0.5,2c0,1,0.2,1.8,0.5,2.2c0.3,0.4,0.8,0.6,1.4,0.6c0.4,0,0.8-0.1,1.1-0.4c0.3-0.3,0.5-0.7,0.6-1.3l2.3,0.4
				c-0.2,1-0.7,1.8-1.4,2.4c-0.7,0.5-1.6,0.8-2.7,0.8c-1.3,0-2.3-0.4-3.1-1.2c-0.8-0.8-1.1-1.9-1.1-3.4c0-1.4,0.4-2.6,1.1-3.4
				c0.8-0.8,1.8-1.2,3.1-1.2c1.1,0,1.9,0.2,2.5,0.7C59.2,4.4,59.7,5.1,60,6z"/>
			<path class="st2" d="M61.7,2.3V0.1H64v2.1H61.7z M61.7,12.2V3.5H64v8.8H61.7z"/>
			<path class="st2" d="M74.4,12.2h-2.2v-1.3c-0.4,0.5-0.8,0.9-1.3,1.1c-0.5,0.2-1,0.4-1.5,0.4c-1,0-1.9-0.4-2.6-1.2
				c-0.7-0.8-1.1-1.9-1.1-3.4c0-1.5,0.3-2.6,1-3.4c0.7-0.8,1.6-1.2,2.6-1.2c1,0,1.8,0.4,2.5,1.2V0.1h2.3V12.2z M68.3,7.6
				c0,0.9,0.1,1.6,0.4,2c0.4,0.6,0.9,0.9,1.6,0.9c0.5,0,1-0.2,1.4-0.7c0.4-0.5,0.6-1.1,0.6-2c0-1-0.2-1.7-0.5-2.2
				C71.2,5.3,70.8,5,70.2,5c-0.5,0-1,0.2-1.4,0.7C68.4,6.1,68.3,6.8,68.3,7.6z"/>
			<path class="st2" d="M76.2,7.7c0-0.8,0.2-1.5,0.6-2.2c0.4-0.7,0.9-1.3,1.6-1.6c0.7-0.4,1.5-0.6,2.3-0.6c1.3,0,2.4,0.4,3.3,1.3
				c0.8,0.9,1.3,1.9,1.3,3.3c0,1.3-0.4,2.4-1.3,3.3c-0.9,0.9-1.9,1.3-3.2,1.3c-0.8,0-1.6-0.2-2.3-0.5c-0.7-0.4-1.3-0.9-1.7-1.6
				C76.4,9.6,76.2,8.7,76.2,7.7z M78.6,7.8c0,0.9,0.2,1.5,0.6,2c0.4,0.5,0.9,0.7,1.5,0.7c0.6,0,1.1-0.2,1.5-0.7
				c0.4-0.5,0.6-1.1,0.6-2c0-0.9-0.2-1.5-0.6-2c-0.4-0.5-0.9-0.7-1.5-0.7c-0.6,0-1.1,0.2-1.5,0.7C78.8,6.3,78.6,7,78.6,7.8z"/>
			<path class="st2" d="M87,3.5h2.2v1.3c0.3-0.4,0.7-0.8,1.1-1.1c0.5-0.3,1-0.4,1.6-0.4c1,0,1.9,0.4,2.6,1.2
				c0.7,0.8,1.1,1.9,1.1,3.3c0,1.5-0.4,2.6-1.1,3.4c-0.7,0.8-1.6,1.2-2.6,1.2c-0.5,0-0.9-0.1-1.3-0.3c-0.4-0.2-0.8-0.5-1.2-1v4.4H87
				V3.5z M89.3,7.7c0,1,0.2,1.7,0.6,2.2c0.4,0.5,0.9,0.7,1.4,0.7c0.5,0,1-0.2,1.3-0.6c0.4-0.4,0.5-1.1,0.5-2.1c0-0.9-0.2-1.6-0.6-2
				c-0.4-0.4-0.8-0.7-1.4-0.7c-0.6,0-1,0.2-1.4,0.7C89.4,6.2,89.3,6.8,89.3,7.7z"/>
			<path class="st2" d="M99.6,0.1v4.4c0.7-0.9,1.6-1.3,2.7-1.3c0.5,0,1,0.1,1.4,0.3c0.4,0.2,0.8,0.5,1,0.8c0.2,0.3,0.4,0.6,0.4,1
				c0.1,0.4,0.1,1,0.1,1.7v5.1H103V7.6c0-0.9,0-1.5-0.1-1.7c-0.1-0.2-0.2-0.4-0.5-0.6c-0.2-0.1-0.5-0.2-0.8-0.2
				c-0.4,0-0.7,0.1-1,0.3c-0.3,0.2-0.5,0.5-0.7,0.8c-0.1,0.4-0.2,0.9-0.2,1.7v4.4h-2.3V0.1H99.6z"/>
			<path class="st2" d="M107.6,2.3V0.1h2.3v2.1H107.6z M107.6,12.2V3.5h2.3v8.8H107.6z"/>
			<path class="st2" d="M112.3,12.2V0.1h2.3v12.1H112.3z"/>
			<path class="st2" d="M122.8,12.2v-1.3c-0.3,0.5-0.7,0.8-1.3,1.1c-0.5,0.3-1.1,0.4-1.6,0.4c-0.6,0-1.1-0.1-1.6-0.4
				c-0.5-0.3-0.8-0.6-1-1.1c-0.2-0.5-0.3-1.1-0.3-1.9V3.5h2.3v4c0,1.2,0,2,0.1,2.3c0.1,0.3,0.2,0.5,0.5,0.7c0.2,0.2,0.5,0.2,0.9,0.2
				c0.4,0,0.8-0.1,1.1-0.3c0.3-0.2,0.5-0.5,0.6-0.8c0.1-0.3,0.2-1.1,0.2-2.4V3.5h2.3v8.8H122.8z"/>
			<path class="st2" d="M126.5,9.7l2.3-0.4c0.1,0.4,0.3,0.8,0.6,1c0.3,0.2,0.7,0.3,1.3,0.3c0.6,0,1-0.1,1.4-0.3
				c0.2-0.2,0.3-0.4,0.3-0.6c0-0.2-0.1-0.3-0.2-0.4c-0.1-0.1-0.4-0.2-0.8-0.3c-1.9-0.4-3.1-0.8-3.6-1.1c-0.7-0.5-1-1.1-1-2
				c0-0.8,0.3-1.4,0.9-1.9c0.6-0.5,1.5-0.8,2.8-0.8c1.2,0,2.1,0.2,2.7,0.6c0.6,0.4,1,1,1.2,1.7L132.2,6c-0.1-0.3-0.3-0.6-0.5-0.8
				c-0.3-0.2-0.6-0.3-1.1-0.3c-0.6,0-1,0.1-1.3,0.3c-0.2,0.1-0.3,0.3-0.3,0.5c0,0.2,0.1,0.3,0.2,0.4c0.2,0.2,0.9,0.4,2.2,0.7
				c1.2,0.3,2.1,0.6,2.6,1c0.5,0.4,0.7,1,0.7,1.7c0,0.8-0.3,1.5-1,2.1c-0.7,0.6-1.7,0.9-3,0.9c-1.2,0-2.1-0.2-2.8-0.7
				C127.2,11.2,126.7,10.5,126.5,9.7z"/>
		</g>
	</g>
</g>
</svg>
