<!-- Generator: Adobe Illustrator 20.1.0, SVG Export Plug-In  -->
<svg version="1.1"
	 xmlns="http://www.w3.org/2000/svg" xmlns:xlink="http://www.w3.org/1999/xlink" xmlns:a="http://ns.adobe.com/AdobeSVGViewerExtensions/3.0/"
	 x="0px" y="0px" width="75px" height="71.3px" viewBox="0 0 75 71.3" style="overflow:scroll;enable-background:new 0 0 75 71.3;"
	 xml:space="preserve">
<style type="text/css">
	.st0{fill:#8DC63F;}
	.st1{fill:url(#SVGID_1_);}
	.st2{fill:url(#SVGID_2_);}
	.st3{fill:#FFFFFF;}
	.st4{fill:url(#SVGID_3_);}
	.st5{fill:url(#SVGID_4_);}
	.st6{fill:url(#SVGID_5_);}
	.st7{fill:url(#SVGID_6_);}
	.st8{fill:url(#SVGID_7_);}
	.st9{fill:url(#SVGID_8_);}
	.st10{fill:url(#SVGID_9_);}
	.st11{fill:url(#SVGID_10_);}
	.st12{fill:url(#SVGID_11_);}
	.st13{fill:url(#SVGID_12_);}
</style>
<defs>
</defs>
<g>
	<path class="st0" d="M37.9,47.2V14.5h-1.5v32.6c-1,0.3-1.6,1.2-1.6,2.2c0,1.3,1.1,2.3,2.3,2.3c1.3,0,2.3-1.1,2.3-2.3
		C39.4,48.3,38.8,47.5,37.9,47.2z"/>
	<path class="st0" d="M16.2,47.1c-1,0-1.9,0.7-2.2,1.6h-3.8V15.2H8.7v35.1H14c0.3,0.9,1.2,1.6,2.2,1.6c1.3,0,2.3-1.1,2.3-2.3
		C18.6,48.2,17.5,47.1,16.2,47.1z"/>
	<g>
		<linearGradient id="SVGID_1_" gradientUnits="userSpaceOnUse" x1="0" y1="9.2598" x2="18.5191" y2="9.2598">
			<stop  offset="0" style="stop-color:#D4D3D4"/>
			<stop  offset="0.1496" style="stop-color:#FFFFFF"/>
			<stop  offset="0.39" style="stop-color:#FFFFFF"/>
			<stop  offset="0.8203" style="stop-color:#ECEDED"/>
			<stop  offset="1" style="stop-color:#B7B7B9"/>
		</linearGradient>
		<path class="st1" d="M9.3,0C4.2,0,0,4.2,0,9.3c0,5.1,4.2,9.3,9.3,9.3c5.1,0,9.3-4.2,9.3-9.3C18.5,4.2,14.4,0,9.3,0z"/>
		<linearGradient id="SVGID_2_" gradientUnits="userSpaceOnUse" x1="1.9068" y1="9.2578" x2="16.6123" y2="9.2578">
			<stop  offset="0" style="stop-color:#6A9A2F"/>
			<stop  offset="0.2431" style="stop-color:#8DC63F"/>
			<stop  offset="0.8927" style="stop-color:#8DC63F"/>
			<stop  offset="1" style="stop-color:#6A9A2F"/>
		</linearGradient>
		<circle class="st2" cx="9.3" cy="9.3" r="7.4"/>
		<g>
			<g>
				<path class="st3" d="M8.7,13.6V5.3h1.2v8.4H8.7z"/>
			</g>
		</g>
	</g>
	<g>
		<linearGradient id="SVGID_3_" gradientUnits="userSpaceOnUse" x1="28.2173" y1="9.2598" x2="46.7359" y2="9.2598">
			<stop  offset="0" style="stop-color:#D4D3D4"/>
			<stop  offset="0.1496" style="stop-color:#FFFFFF"/>
			<stop  offset="0.39" style="stop-color:#FFFFFF"/>
			<stop  offset="0.8203" style="stop-color:#ECEDED"/>
			<stop  offset="1" style="stop-color:#B7B7B9"/>
		</linearGradient>
		<path class="st4" d="M37.5,0c-5.1,0-9.3,4.2-9.3,9.3c0,5.1,4.2,9.3,9.3,9.3c5.1,0,9.3-4.2,9.3-9.3C46.7,4.2,42.6,0,37.5,0z"/>
		<linearGradient id="SVGID_4_" gradientUnits="userSpaceOnUse" x1="30.1236" y1="9.2598" x2="44.8301" y2="9.2598">
			<stop  offset="0" style="stop-color:#6A9A2F"/>
			<stop  offset="0.2431" style="stop-color:#8DC63F"/>
			<stop  offset="0.8927" style="stop-color:#8DC63F"/>
			<stop  offset="1" style="stop-color:#6A9A2F"/>
		</linearGradient>
		<circle class="st5" cx="37.5" cy="9.3" r="7.4"/>
		<g>
			<g>
				<path class="st3" d="M34.2,13.1v-2.7c0-1.6,0.3-2.3,1.7-2.3h3.2c0.4,0,0.5-0.2,0.5-0.8V7.1c0-0.6-0.1-0.8-0.5-0.8h-2V4.7h2.1
					c1.1,0,1.6,0.7,1.6,2.4v0.4c0,1.6-0.4,2-1.6,2h-3.2c-0.5,0-0.7,0.2-0.7,0.9v1h5.5v1.6H34.2z"/>
			</g>
		</g>
	</g>
	<g>
		<linearGradient id="SVGID_5_" gradientUnits="userSpaceOnUse" x1="56.4341" y1="9.2598" x2="74.9527" y2="9.2598">
			<stop  offset="0" style="stop-color:#D4D3D4"/>
			<stop  offset="0.1496" style="stop-color:#FFFFFF"/>
			<stop  offset="0.39" style="stop-color:#FFFFFF"/>
			<stop  offset="0.8203" style="stop-color:#ECEDED"/>
			<stop  offset="1" style="stop-color:#B7B7B9"/>
		</linearGradient>
		<path class="st6" d="M65.7,0c-5.1,0-9.3,4.2-9.3,9.3c0,5.1,4.2,9.3,9.3,9.3c5.1,0,9.3-4.2,9.3-9.3C75,4.2,70.8,0,65.7,0z"/>
		<linearGradient id="SVGID_6_" gradientUnits="userSpaceOnUse" x1="58.3403" y1="9.2598" x2="73.0459" y2="9.2598">
			<stop  offset="0" style="stop-color:#6A9A2F"/>
			<stop  offset="0.2431" style="stop-color:#8DC63F"/>
			<stop  offset="0.8927" style="stop-color:#8DC63F"/>
			<stop  offset="1" style="stop-color:#6A9A2F"/>
		</linearGradient>
		<circle class="st7" cx="65.7" cy="9.3" r="7.4"/>
		<g>
			<g>
				<path class="st3" d="M65.3,6.3V4.7h1.8c1.3,0,1.8,0.6,1.8,2v0.6c0,1-0.3,1.3-0.6,1.5c0.4,0.1,0.7,0.5,0.7,1.7v0.7
					c0,1.3-0.5,1.9-1.8,1.9h-4.8v-1.5h4.8c0.5,0,0.7-0.1,0.7-0.6v-0.5c0-0.7-0.2-0.8-0.6-0.8h-4.8V8.1h4.8c0.4,0,0.6-0.2,0.6-0.7
					V6.9c0-0.5-0.2-0.6-0.7-0.6H65.3z"/>
			</g>
		</g>
	</g>
	<path class="st0" d="M66.5,15.5H65v52.8H42.5c-0.3-1-1.2-1.7-2.2-1.7c-1.3,0-2.3,1.1-2.3,2.3s1.1,2.3,2.3,2.3c1,0,1.8-0.6,2.2-1.5
		h24.1V15.5z"/>
</g>
</svg>
