<!-- Generator: Adobe Illustrator 20.1.0, SVG Export Plug-In  -->
<svg version="1.1"
	 xmlns="http://www.w3.org/2000/svg" xmlns:xlink="http://www.w3.org/1999/xlink" xmlns:a="http://ns.adobe.com/AdobeSVGViewerExtensions/3.0/"
	 x="0px" y="0px" width="231.4px" height="66.1px" viewBox="0 0 231.4 66.1"
	 style="overflow:scroll;enable-background:new 0 0 231.4 66.1;" xml:space="preserve">
<style type="text/css">
	.st0{fill:#8DC63F;}
	.st1{fill:#1C3F94;}
</style>
<defs>
</defs>
<g>
	<g>
		<path class="st0" d="M119.6,32.3h-2.3V10.6h2.3v6.6c0.5-1.1,1.8-1.7,3.8-1.7c3.5,0,5.3,2.2,5.3,6.7v10h-2.3v-9.8
			c0-3.2-0.9-4.9-2.8-4.9h-0.2c-2.1,0-3.4,1.2-3.8,3.5V32.3z"/>
		<path class="st0" d="M144.4,32.3h-5.6c-4,0-6.1-2-6.2-6V26c0-3.8,1.9-5.7,5.7-5.7c2.1,0,3.4,0.5,3.8,1.6c-0.3-2.8-1.6-4.3-3.8-4.4
			c-0.7,0-1.3,0.2-2,0.7l-1.8-1.4c1.1-0.9,2.4-1.3,3.8-1.3c3.5,0.1,5.5,1.9,6.1,5.4V32.3z M134.9,26.2c0.2,2.5,1.4,3.7,3.8,3.7h3.4
			v-4.1c-0.4-2.3-1.7-3.5-3.8-3.5c-2.2,0.1-3.4,1.2-3.4,3.4C134.9,25.9,134.9,26.1,134.9,26.2z"/>
		<path class="st0" d="M154.8,19.5c-0.3-1.2-1-2-2.2-2.1l-0.1,0c-0.1,0-0.2,0-0.3,0c-0.3,0-0.7,0.1-1,0.2c-0.4,0.2-0.7,0.6-0.8,1.2
			v0.2c0,0.7,0.4,1.1,1.2,1.4c1.1,0.3,2.4,0.7,3.9,1.1c1.5,0.5,2.6,1.2,3.1,2.3c0.3,0.6,0.5,1.2,0.5,2.1c0,0.5,0,1-0.1,1.5l-0.1,0.6
			c-0.9,3.2-2.8,4.8-5.7,4.8c-0.4,0-0.8,0-1.2-0.1c-3.2-0.6-4.8-2.7-4.8-6.4c0-0.3,0-0.6,0.1-1.1h2.5c0,0.5-0.1,0.9-0.1,1.2
			c0,2.5,0.9,4,2.7,4.3c0.2,0,0.5,0,0.7,0c1.8,0,3-1,3.6-3.1c0.1-0.2,0.1-0.4,0.1-0.6c0.1-0.3,0.1-0.6,0.1-0.9
			c0-0.4-0.1-0.8-0.2-1.1c-0.2-0.6-0.7-1-1.3-1.2c-0.6-0.3-1.7-0.6-3.4-1c-1.6-0.4-2.7-1-3.3-1.7c-0.4-0.5-0.7-1.2-0.7-1.9
			c0-0.2,0-0.4,0-0.6c0.2-1,0.7-1.9,1.6-2.5c0.7-0.5,1.5-0.8,2.5-0.8c0.3,0,0.6,0,0.9,0.1l0.2,0c2.3,0.4,3.6,1.8,3.8,4.2H154.8z"/>
		<path class="st0" d="M165.8,15.8h2.6V18h-2.6v14.3h-2.3V18H161v-2.2h2.6v-3.6h2.3V15.8z"/>
		<path class="st0" d="M182.2,32.3h-5.6c-4,0-6.1-2-6.2-6V26c0-3.8,1.9-5.7,5.7-5.7c2.1,0,3.4,0.5,3.8,1.6c-0.3-2.8-1.6-4.3-3.8-4.4
			c-0.7,0-1.3,0.2-2,0.7l-1.8-1.4c1.1-0.9,2.4-1.3,3.8-1.3c3.5,0.1,5.5,1.9,6.1,5.4V32.3z M172.7,26.2c0.2,2.5,1.4,3.7,3.8,3.7h3.4
			v-4.1c-0.4-2.3-1.7-3.5-3.8-3.5c-2.2,0.1-3.4,1.2-3.4,3.4C172.7,25.9,172.7,26.1,172.7,26.2z"/>
	</g>
	<g>
		<g>
			<path class="st0" d="M12,65.6H4.4c-0.1,0-0.2,0-0.3,0c-2.5,0-3.9-2.4-4.1-7.1c0-0.5,0-1,0-1.5c0-5.4,1.9-8,5.8-8
				c2.1,0,3.4,0.6,3.8,1.7V44H12V65.6z M2.1,58.4c0.1,3.4,1,5.1,2.7,5.1h4.9l0-9C9.3,52.2,8,51,5.9,51H5.6c-2.3,0-3.5,2.1-3.5,6.3
				C2.1,57.7,2.1,58,2.1,58.4z"/>
			<path class="st0" d="M21.5,48.5c4,0,6.1,2.9,6.5,8.6C27.8,63,25.7,66,21.5,66c-4.2,0-6.4-3-6.5-8.9
				C15.4,51.4,17.5,48.5,21.5,48.5z M25.6,57.2c-0.2-4.2-1.6-6.3-4.1-6.3c-2.5,0-3.9,2.1-4.2,6.3c0.1,4.4,1.5,6.6,4.2,6.6
				C24.1,63.8,25.5,61.6,25.6,57.2z"/>
			<path class="st0" d="M32.9,65.6h-2.3V49.1H33v1.5c0.5-1.1,1.8-1.7,3.8-1.7h0.1c3.6,0,5.4,2.5,5.4,7.4c0,0.2,0,0.5,0,0.7v8.7H40
				v-8.3c0-0.3,0-0.5,0-0.8c0-3.5-1-5.3-3-5.5h-0.2c-2.1,0-3.4,1.2-3.8,3.5V65.6z"/>
			<path class="st0" d="M57.6,65.6H50c-0.1,0-0.2,0-0.3,0c-2.5,0-3.9-2.4-4.1-7.1c0-0.5,0-1,0-1.5c0-5.4,1.9-8,5.8-8
				c2.1,0,3.4,0.6,3.8,1.7V44h2.3V65.6z M47.7,58.4c0.1,3.4,1,5.1,2.7,5.1h4.9l0-9c-0.4-2.3-1.7-3.5-3.8-3.5h-0.2
				c-2.3,0-3.5,2.1-3.5,6.3C47.7,57.7,47.7,58,47.7,58.4z"/>
			<path class="st0" d="M63.4,55.7c0,0.4,0,0.9,0,1.5c0,4.3,1.3,6.5,3.8,6.5c0.1,0,0.2,0,0.3,0c2.7-0.2,4.2-2,4.5-5.5H74
				c-0.4,5.2-2.7,7.8-7.1,7.8c-3.1-0.2-4.9-2-5.5-5.5C61.1,59,61,57.8,61,56.7c0-1.6,0.2-2.9,0.7-4c1.2-2.6,3.1-3.9,5.7-3.9
				c0.2,0,0.4,0,0.7,0c3,0.2,4.7,2.5,5.1,6.9H63.4z M67.6,51h-0.2c-1.8,0-3,0.9-3.7,2.7h7.1C70.5,51.9,69.4,51.1,67.6,51z"/>
			<path class="st0" d="M94.6,52.8c-0.3-1.2-1-2-2.2-2.1l-0.1,0c-0.1,0-0.2,0-0.3,0c-0.3,0-0.7,0.1-1,0.2c-0.4,0.2-0.7,0.6-0.8,1.2
				v0.2c0,0.7,0.4,1.1,1.2,1.4c1.1,0.3,2.4,0.7,3.9,1.1c1.5,0.5,2.6,1.2,3.1,2.3c0.3,0.6,0.5,1.2,0.5,2.1c0,0.5,0,1-0.1,1.5
				l-0.1,0.6c-0.9,3.2-2.8,4.8-5.7,4.8c-0.4,0-0.8,0-1.2-0.1c-3.2-0.6-4.8-2.7-4.8-6.4c0-0.3,0-0.6,0.1-1.1h2.5
				c0,0.5-0.1,0.9-0.1,1.2c0,2.5,0.9,4,2.7,4.3c0.2,0,0.5,0,0.7,0c1.8,0,3-1,3.6-3.1c0.1-0.2,0.1-0.4,0.1-0.6
				c0.1-0.3,0.1-0.6,0.1-0.9c0-0.4-0.1-0.8-0.2-1.1c-0.2-0.6-0.7-1-1.3-1.2c-0.6-0.3-1.7-0.6-3.4-1c-1.6-0.4-2.7-1-3.3-1.7
				c-0.4-0.5-0.7-1.2-0.7-1.9c0-0.2,0-0.4,0-0.6c0.2-1,0.7-1.9,1.6-2.5c0.7-0.5,1.5-0.8,2.5-0.8c0.3,0,0.6,0,0.9,0.1l0.2,0
				c2.3,0.4,3.6,1.8,3.8,4.2H94.6z"/>
			<path class="st0" d="M103.8,55.7c0,0.4,0,0.9,0,1.5c0,4.3,1.3,6.5,3.8,6.5c0.1,0,0.2,0,0.3,0c2.7-0.2,4.2-2,4.5-5.5h2.1
				c-0.4,5.2-2.7,7.8-7.1,7.8c-3.1-0.2-4.9-2-5.5-5.5c-0.2-1.4-0.4-2.6-0.4-3.8c0-1.6,0.2-2.9,0.7-4c1.2-2.6,3.1-3.9,5.7-3.9
				c0.2,0,0.4,0,0.7,0c3,0.2,4.7,2.5,5.1,6.9H103.8z M108,51h-0.2c-1.8,0-3,0.9-3.7,2.7h7.1C111,51.9,109.9,51.1,108,51z"/>
		</g>
	</g>
</g>
<g>
	<g>
		<rect x="46.7" y="10.3" class="st1" width="3" height="22.3"/>
		<rect x="53.5" y="10.3" class="st1" width="3" height="22.3"/>
		<path class="st1" d="M70.3,24.8c-0.2,3.3-1.6,5-4.2,5.2c-0.1,0-0.2,0-0.2,0c-2.4,0-3.5-2-3.5-6.1c0-0.4,0-0.8,0-1.2h9.9l0-0.4
			c-0.4-4.5-2.3-6.9-5.4-7.2c-0.2,0-0.5,0-0.7,0c-2.8,0-4.8,1.4-6,4.1c-0.5,1.1-0.8,2.5-0.8,4.2c0,1.1,0.1,2.4,0.4,3.8
			c0.6,3.7,2.6,5.6,5.8,5.8l0,0h0c4.5-0.1,7-2.8,7.4-8.1l0-0.3h-2.7L70.3,24.8z M66.1,18l0.2,0c1.6,0.1,2.5,0.7,2.8,2h-6.2
			C63.6,18.6,64.6,18,66.1,18z"/>
		<path class="st1" d="M82,14.8c-4.3,0-6.6,2.7-6.9,8c0,0.5,0,1.1,0,1.6c0,5.5,2.1,8.4,6.2,8.4c1.5,0,2.6-0.3,3.3-0.8
			c-0.5,1.9-1.5,2.9-3.3,2.9c-0.6,0-1.2-0.2-1.8-0.6l-0.2-0.1L76.9,36l0.3,0.3c1.2,0.9,2.5,1.4,4,1.4h0l0,0c3.7-0.1,5.8-2,6.4-5.7
			l0-16.4h-2.2C84.2,15,83,14.8,82,14.8z M81.7,17.8c0.9,0,1.9,0.2,3,0.6l0,8.5C84.3,29,83.2,30,81.2,30h-0.2c-2.1,0-3.2-2-3.2-6
			c0-0.3,0-0.7,0-1.1C78,19.5,79.2,17.8,81.7,17.8z"/>
		<path class="st1" d="M103.1,20.8c-0.6-3.7-2.7-5.6-6.4-5.6c-1.5,0-2.8,0.5-4,1.4l-0.3,0.3l2.3,1.8l0.2-0.1
			c0.6-0.4,1.2-0.6,1.8-0.6c1.7,0,2.8,1,3.3,2.9c-0.7-0.5-1.8-0.8-3.3-0.8c-4,0-6,2-6,6v0.4c0.1,4.2,2.3,6.3,6.5,6.3h5.9L103.1,20.8
			z M100.1,25.8v3.8h-3.1c-2.2,0-3.3-1.1-3.4-3.4c0-0.1,0-0.3,0-0.4c0-2.1,1-3,3-3.1C98.6,22.7,99.8,23.7,100.1,25.8z"/>
	</g>
	<g>
		<path class="st1" d="M14.4,7.7c-0.7-2.3-2.2-3.6-4.5-3.9l-0.2,0c-0.2,0-0.4,0-0.6,0c-0.8,0-1.5,0.2-2.2,0.5
			C5.9,4.8,5.3,5.7,5.1,6.8v0.3c0,1.6,0.9,2.5,2.6,3c2.1,0.5,4.6,1.2,7.4,1.9c2.8,0.8,4.7,2.1,5.7,3.9c0.6,1.1,0.9,2.5,0.9,4.2
			c0,0.7-0.1,1.5-0.2,2.3l-0.2,1.2c-1.5,6-5,9-10.5,9c-0.6,0-1.1,0-1.8-0.1c-6-0.9-9-4.9-9-12c0-0.5,0-1.1,0.1-1.9h3.5
			c-0.1,0.9-0.1,1.5-0.1,2c0,5.3,2,8.3,5.9,8.9c0.4,0.1,0.8,0.1,1.2,0.1c3.8,0,6.2-2.1,7.3-6.3c0.1-0.4,0.1-0.8,0.2-1.2
			c0.1-0.6,0.1-1.1,0.1-1.6c0-1-0.1-1.8-0.4-2.5c-0.5-1.1-1.5-1.9-2.7-2.4c-1.3-0.5-3.4-1-6.4-1.7c-3-0.7-5-1.6-6-2.8
			C2,10,1.6,8.8,1.6,7.4c0-0.3,0-0.5,0-0.8C1.9,4.7,2.8,3.2,4.3,2c1.3-1,2.8-1.4,4.6-1.4c0.4,0,0.8,0,1.2,0.1l0.3,0.1
			c4.2,0.5,6.4,2.9,6.8,7.1H14.4z"/>
		<path class="st1" d="M25.4,6l2.5-6h5.4l-4.9,6L25.4,6z M29.9,32.5h-3.4V8.8h3.4V32.5z"/>
	</g>
	<g>
		<path class="st1" d="M132.8,48.4c-1.6,0-2.8,0.3-3.5,1v-0.8h-3v17.2h3l0-11.4c0.4-2.2,1.5-3.2,3.5-3.2l0.2,0
			c1.8,0.2,2.7,1.9,2.7,5.2c0,0.2,0,0.5,0,0.8v8.7h2.9v-9c0-0.2,0-0.5,0-0.7C138.6,51,136.6,48.4,132.8,48.4z"/>
		<path class="st1" d="M151.9,57.8c-0.2,3.3-1.6,5-4.2,5.2c-0.1,0-0.2,0-0.2,0c-2.4,0-3.5-2-3.5-6.1c0-0.4,0-0.8,0-1.2h9.9l0-0.4
			c-0.4-4.5-2.3-6.9-5.4-7.2c-0.2,0-0.5,0-0.7,0c-2.8,0-4.8,1.4-6,4.1c-0.5,1.1-0.8,2.5-0.8,4.2c0,1.1,0.1,2.4,0.4,3.8
			c0.6,3.7,2.6,5.6,5.8,5.8l0,0h0c4.5-0.1,7-2.8,7.4-8.1l0-0.3h-2.7L151.9,57.8z M147.7,51.1l0.2,0c1.6,0.1,2.5,0.7,2.8,2h-6.2
			C145.1,51.7,146.2,51.1,147.7,51.1z"/>
		<path class="st1" d="M167.3,57.9c-0.1,3.3-1.4,5.1-3.8,5.4h-0.2c-2.1,0-3.3-1.1-3.6-3.4c-0.1-1-0.2-1.9-0.2-2.7
			c0-1.4,0.2-2.7,0.7-3.7c0.6-1.5,1.4-2.2,2.6-2.2c0.2,0,0.4,0,0.6,0c1.3,0,2.3,0.7,3.1,2l0.2,0.3l2.1-1.9l-0.1-0.2
			c-1.2-1.9-3-2.9-5.2-2.9h-0.3c-2.8,0-4.8,1.4-5.8,4.2c-0.6,1.5-0.8,3.1-0.8,4.7c0,1.3,0.2,2.6,0.5,3.9c0.8,3.1,2.8,4.7,6,4.7
			c0.2,0,0.3,0,0.5,0c4.5-0.2,6.9-3,7-8.1l0-0.3l-3,0L167.3,57.9z"/>
		<path class="st1" d="M183.1,57.8c-0.2,3.3-1.6,5-4.2,5.2c-0.1,0-0.2,0-0.2,0c-2.4,0-3.5-2-3.5-6.1c0-0.4,0-0.8,0-1.2h9.9l0-0.4
			c-0.4-4.5-2.3-6.9-5.4-7.2c-0.2,0-0.5,0-0.7,0c-2.8,0-4.8,1.4-6,4.1c-0.5,1.1-0.8,2.5-0.8,4.2c0,1.1,0.1,2.4,0.4,3.8
			c0.6,3.7,2.6,5.6,5.8,5.8l0,0h0c4.5-0.1,7-2.8,7.4-8.1l0-0.3h-2.7L183.1,57.8z M178.9,51.1l0.2,0c1.6,0.1,2.5,0.7,2.8,2h-6.2
			C176.3,51.7,177.4,51.1,178.9,51.1z"/>
		<path class="st1" d="M196.3,54.2c-1.5-0.5-2.8-0.8-3.9-1.1c-0.8-0.2-0.9-0.7-0.9-1l0-0.2c0.1-0.4,0.3-0.7,0.6-0.9
			c0.3-0.1,0.6-0.2,0.8-0.2c0.1,0,0.2,0,0.2,0l0.1,0c1,0.2,1.6,0.8,1.9,1.9l0.1,0.2h2.7l0-0.3c-0.2-2.6-1.5-4.1-4-4.5l-0.2,0
			c-1.4-0.2-2.6,0-3.6,0.7c-1,0.7-1.6,1.6-1.8,2.7c0,0.2,0,0.4,0,0.6c0,0.8,0.2,1.5,0.7,2.2c0.6,0.8,1.7,1.3,3.4,1.8
			c1.6,0.4,2.7,0.7,3.3,1c0.5,0.2,0.9,0.6,1.1,1.1c0.1,0.3,0.2,0.6,0.2,1c0,0.3,0,0.6-0.1,0.9c0,0.2-0.1,0.4-0.1,0.6
			c-0.6,1.9-1.6,2.8-3.3,2.8c-0.2,0-0.5,0-0.7,0c-1.7-0.3-2.5-1.6-2.5-4c0-0.3,0-0.7,0.1-1.2l0-0.4h-3.1l0,0.3
			c0,0.5-0.1,0.9-0.1,1.1c0,3.9,1.7,6.2,5.1,6.8c0.5,0.1,0.9,0.1,1.3,0.1c3.1,0,5.1-1.7,6.1-5.1l0.1-0.6c0.1-0.6,0.1-1.1,0.1-1.6
			c0-0.9-0.2-1.6-0.5-2.2C199,55.5,197.9,54.7,196.3,54.2z"/>
		<rect x="203.9" y="48.6" class="st1" width="3" height="17.2"/>
		<path class="st1" d="M205.4,41.8c-0.6,0-1.1,0.2-1.5,0.6c-0.4,0.4-0.6,0.9-0.6,1.4c0,0.5,0.2,1,0.6,1.4c0.4,0.4,0.9,0.6,1.5,0.6
			c0.6,0,1.1-0.2,1.5-0.6c0.4-0.4,0.6-0.9,0.6-1.4c0-0.5-0.2-1-0.6-1.4C206.5,42,206,41.8,205.4,41.8z"/>
		<polygon class="st1" points="215.1,44.9 212.1,44.9 212.1,48.5 209.5,48.5 209.5,51.4 212.1,51.4 212.1,65.7 215.1,65.7 
			215.1,51.4 217.7,51.4 217.7,48.5 215.1,48.5 		"/>
		<path class="st1" d="M231.4,53.8c-0.6-3.7-2.7-5.6-6.4-5.6c-1.5,0-2.8,0.5-4,1.4l-0.3,0.3l2.3,1.8l0.2-0.1
			c0.6-0.4,1.2-0.6,1.8-0.6c1.7,0,2.8,1,3.3,2.9c-0.7-0.5-1.8-0.8-3.3-0.8c-4,0-6,2-6,6v0.4c0.1,4.2,2.3,6.3,6.5,6.3h5.9L231.4,53.8
			z M228.5,58.9v3.8h-3.1c-2.2,0-3.3-1.1-3.4-3.4c0-0.1,0-0.3,0-0.4c0-2.1,1-3,3-3.1C227,55.8,228.1,56.8,228.5,58.9z"/>
	</g>
</g>
</svg>
