<!-- Generator: Adobe Illustrator 20.1.0, SVG Export Plug-In  -->
<svg version="1.1"
	 xmlns="http://www.w3.org/2000/svg" xmlns:xlink="http://www.w3.org/1999/xlink" xmlns:a="http://ns.adobe.com/AdobeSVGViewerExtensions/3.0/"
	 x="0px" y="0px" width="244.5px" height="110.6px" viewBox="0 0 244.5 110.6"
	 style="overflow:scroll;enable-background:new 0 0 244.5 110.6;" xml:space="preserve">
<style type="text/css">
	.st0{fill:#00AEEF;}
	.st1{fill:#FFFFFF;}
	.st2{fill:#1C3F94;}
</style>
<defs>
</defs>
<g>
	<g>
		<path class="st0" d="M3.6,103.8c0.3,0.3,0.5,0.7,0.5,1.2c0,0.5-0.2,0.9-0.5,1.2c-0.3,0.3-0.7,0.5-1.2,0.5c-0.5,0-0.9-0.2-1.2-0.5
			c-0.3-0.3-0.5-0.7-0.5-1.2c0-0.5,0.2-0.8,0.5-1.2c0.3-0.3,0.7-0.5,1.2-0.5C2.9,103.2,3.3,103.4,3.6,103.8z"/>
		<path class="st0" d="M8.1,103.8c0.3,0.3,0.5,0.7,0.5,1.2c0,0.5-0.2,0.9-0.5,1.2c-0.3,0.3-0.7,0.5-1.2,0.5c-0.5,0-0.9-0.2-1.2-0.5
			c-0.3-0.3-0.5-0.7-0.5-1.2c0-0.5,0.2-0.8,0.5-1.2c0.3-0.3,0.7-0.5,1.2-0.5C7.3,103.2,7.8,103.4,8.1,103.8z"/>
		<path class="st0" d="M12.5,103.8c0.3,0.3,0.5,0.7,0.5,1.2c0,0.5-0.2,0.9-0.5,1.2c-0.3,0.3-0.7,0.5-1.2,0.5c-0.5,0-0.9-0.2-1.2-0.5
			c-0.3-0.3-0.5-0.7-0.5-1.2c0-0.5,0.2-0.8,0.5-1.2c0.3-0.3,0.7-0.5,1.2-0.5C11.8,103.2,12.2,103.4,12.5,103.8z"/>
		<path class="st0" d="M15.1,93.8h1.5c1-0.3,1.8-0.5,2.7-0.5c3.2,0,4.9,2,5.1,5.9c0,0.4,0,0.8,0,1.2c0,4.1-1.5,6.2-4.5,6.2
			c-1.6,0-2.6-0.2-3-0.7v4.6h-1.8V93.8z M19.4,95.1c-0.8,0-1.6,0.2-2.6,0.5v6.8c0.3,1.8,1.3,2.7,3,2.7H20c1.8,0,2.7-1.6,2.7-4.9
			v-0.8C22.6,96.5,21.5,95.1,19.4,95.1z"/>
		<path class="st0" d="M28.5,106.6h-1.8V93.8h1.8v1.1c0.3-0.6,0.8-1,1.6-1.1c0.3,0,0.5-0.1,0.7-0.1c0.5,0,0.9,0.1,1.4,0.2l-0.7,1.5
			c-0.5-0.1-0.9-0.2-1.1-0.2c-0.3,0-0.6,0.1-0.9,0.2c-0.4,0.2-0.7,0.8-1,1.7V106.6z"/>
		<path class="st0" d="M38,93.4c3.1,0,4.7,2.2,5,6.6c-0.1,4.6-1.8,6.9-5,6.9c-3.3,0-4.9-2.3-5-6.9C33.3,95.6,35,93.4,38,93.4z
			 M41.2,100.1c-0.2-3.3-1.2-4.9-3.2-4.9c-2,0-3,1.6-3.2,4.9c0.1,3.4,1.1,5.1,3.2,5.1C40.1,105.1,41.2,103.4,41.2,100.1z"/>
		<path class="st0" d="M45.4,89.9h1.8v5.2c0.4-0.9,1.4-1.4,3-1.4c3,0,4.5,2.1,4.5,6.2c0,0.4,0,0.8,0,1.2c-0.2,3.7-1.2,5.5-3.1,5.5
			c-0.1,0-0.2,0-0.2,0h-5.9V89.9z M53,101v-0.8c0-3.3-0.9-4.9-2.7-4.9h-0.2c-1.7,0-2.6,0.9-3,2.7l0,7h3.8
			C52.2,105,52.9,103.6,53,101z"/>
		<path class="st0" d="M60.3,89c0.2,0.3,0.4,0.6,0.4,0.9c0,0.3-0.1,0.7-0.4,0.9c-0.2,0.3-0.6,0.4-1,0.4c-0.4,0-0.7-0.1-1-0.4
			C58.1,90.6,58,90.3,58,90c0-0.3,0.1-0.7,0.4-0.9c0.3-0.3,0.6-0.4,1-0.4C59.7,88.7,60.1,88.8,60.3,89z M60.2,106.6h-1.8V93.8h1.8
			V106.6z"/>
		<path class="st0" d="M68.5,93.4c3.1,0,4.7,2.2,5,6.6c-0.1,4.6-1.8,6.9-5,6.9c-3.3,0-4.9-2.3-5-6.9C63.8,95.6,65.4,93.4,68.5,93.4z
			 M71.7,100.1c-0.2-3.3-1.2-4.9-3.2-4.9c-2,0-3,1.6-3.2,4.9c0.1,3.4,1.1,5.1,3.2,5.1C70.5,105.1,71.6,103.4,71.7,100.1z M67,92.3
			l1.3-3.2h2.9l-2.6,3.2L67,92.3z"/>
		<path class="st0" d="M78.1,93.8h2v1.7h-2v11.1h-1.8V95.5h-2v-1.7h2V91h1.8V93.8z"/>
		<path class="st0" d="M85,89c0.2,0.3,0.4,0.6,0.4,0.9c0,0.3-0.1,0.7-0.4,0.9c-0.2,0.3-0.6,0.4-1,0.4c-0.4,0-0.7-0.1-1-0.4
			c-0.3-0.3-0.4-0.6-0.4-0.9c0-0.3,0.1-0.7,0.4-0.9c0.3-0.3,0.6-0.4,1-0.4C84.4,88.7,84.8,88.8,85,89z M84.9,106.6h-1.8V93.8h1.8
			V106.6z"/>
		<path class="st0" d="M93.1,95.4c-0.9,0-1.7,0.6-2.2,1.9c-0.3,0.8-0.5,1.8-0.5,3c0,0.7,0.1,1.4,0.2,2.1c0.3,1.9,1.3,2.8,3,2.8h0.2
			c2.1-0.2,3.1-1.7,3.2-4.4l1.8,0c-0.1,3.8-1.8,5.8-5.2,6c-0.1,0-0.2,0-0.3,0c-2.4,0-3.8-1.2-4.4-3.5c-0.3-1-0.4-2-0.4-3
			c0-1.2,0.2-2.4,0.6-3.5c0.8-2.1,2.2-3.1,4.3-3.1h0.2c1.6,0,2.9,0.7,3.8,2.2l-1.2,1.1c-0.7-1.1-1.6-1.6-2.6-1.7
			C93.4,95.4,93.2,95.4,93.1,95.4z"/>
		<path class="st0" d="M105.4,93.4c3.1,0,4.7,2.2,5,6.6c-0.1,4.6-1.8,6.9-5,6.9c-3.3,0-4.9-2.3-5-6.9
			C100.7,95.6,102.3,93.4,105.4,93.4z M108.6,100.1c-0.2-3.3-1.2-4.9-3.2-4.9c-2,0-3,1.6-3.2,4.9c0.1,3.4,1.1,5.1,3.2,5.1
			C107.5,105.1,108.5,103.4,108.6,100.1z"/>
		<path class="st0" d="M118.1,96.7c-0.2-1-0.8-1.5-1.7-1.6l-0.1,0c-0.1,0-0.2,0-0.3,0c-0.3,0-0.5,0.1-0.8,0.2
			c-0.3,0.2-0.5,0.5-0.6,0.9v0.2c0,0.5,0.3,0.9,0.9,1c0.8,0.2,1.8,0.5,3,0.9c1.2,0.4,2,0.9,2.4,1.8c0.2,0.4,0.3,1,0.3,1.6
			c0,0.4,0,0.7-0.1,1.2l-0.1,0.5c-0.7,2.5-2.2,3.7-4.4,3.7c-0.3,0-0.6,0-1-0.1c-2.5-0.4-3.7-2.1-3.7-5c0-0.2,0-0.5,0-0.9h1.9
			c0,0.4-0.1,0.7-0.1,0.9c0,2,0.7,3.1,2.1,3.3c0.2,0,0.4,0,0.6,0c1.4,0,2.3-0.8,2.8-2.4c0-0.2,0.1-0.3,0.1-0.5
			c0-0.3,0.1-0.5,0.1-0.7c0-0.3-0.1-0.6-0.2-0.9c-0.2-0.4-0.5-0.8-1-0.9c-0.5-0.2-1.3-0.5-2.6-0.8c-1.3-0.3-2.1-0.7-2.5-1.3
			c-0.3-0.4-0.5-0.9-0.5-1.5c0-0.1,0-0.3,0-0.4c0.1-0.8,0.6-1.5,1.2-1.9c0.5-0.4,1.2-0.6,1.9-0.6c0.2,0,0.4,0,0.7,0.1l0.1,0
			c1.8,0.3,2.8,1.4,2.9,3.3H118.1z"/>
		<path class="st0" d="M134.9,89c0.2,0.3,0.4,0.6,0.4,0.9c0,0.3-0.1,0.7-0.4,0.9c-0.2,0.3-0.6,0.4-1,0.4c-0.4,0-0.7-0.1-1-0.4
			c-0.3-0.3-0.4-0.6-0.4-0.9c0-0.3,0.1-0.7,0.4-0.9c0.3-0.3,0.6-0.4,1-0.4C134.4,88.7,134.7,88.8,134.9,89z M134.9,106.6H133V93.8
			h1.8V106.6z"/>
		<path class="st0" d="M140.4,106.6h-1.8V93.8h1.8V95c0.4-0.9,1.4-1.3,3-1.3h0.1c2.8,0,4.2,1.9,4.2,5.7c0,0.2,0,0.3,0,0.5v6.7h-1.8
			v-6.4c0-0.2,0-0.4,0-0.6c0-2.7-0.8-4.1-2.3-4.3h-0.2c-1.7,0-2.7,0.9-3,2.7V106.6z"/>
		<path class="st0" d="M153,93.8h2v1.7h-2v11.1h-1.8V95.5h-2v-1.7h2V91h1.8V93.8z"/>
		<path class="st0" d="M157.8,98.9c0,0.3,0,0.7,0,1.2c0,3.3,1,5,3,5c0.1,0,0.1,0,0.2,0c2.1-0.1,3.3-1.5,3.5-4.2h1.6
			c-0.3,4-2.1,6-5.5,6c-2.4-0.1-3.8-1.5-4.3-4.3c-0.2-1.1-0.3-2-0.3-2.9c0-1.2,0.2-2.3,0.6-3.1c0.9-2,2.4-3,4.4-3c0.2,0,0.3,0,0.5,0
			c2.3,0.2,3.6,2,4,5.3H157.8z M161,95.3h-0.2c-1.4,0-2.3,0.7-2.9,2h5.5C163.3,96,162.5,95.3,161,95.3z"/>
		<path class="st0" d="M170.6,106.6h-1.8V89.9h1.8V106.6z"/>
		<path class="st0" d="M177.1,89c0.2,0.3,0.4,0.6,0.4,0.9c0,0.3-0.1,0.7-0.4,0.9c-0.2,0.3-0.6,0.4-1,0.4c-0.4,0-0.7-0.1-1-0.4
			c-0.3-0.3-0.4-0.6-0.4-0.9c0-0.3,0.1-0.7,0.4-0.9c0.3-0.3,0.6-0.4,1-0.4C176.5,88.7,176.8,88.8,177.1,89z M177,106.6h-1.8V93.8
			h1.8V106.6z"/>
		<path class="st0" d="M190,106.3c-0.4,2.7-2,4.1-4.7,4.1c-1.1,0-2.1-0.3-2.9-1l1.4-1.1c0.5,0.3,1,0.5,1.5,0.5
			c1.7,0,2.7-1.2,2.9-3.4c-0.4,0.8-1.3,1.2-3,1.2c-3,0-4.5-2.1-4.5-6.2c0-0.4,0-0.8,0-1.2c0.2-3.9,1.9-5.9,5.1-5.9
			c0.8,0,1.7,0.2,2.7,0.5h1.5L190,106.3z M182.4,99.4c0,0.3,0,0.6,0,0.8c0,3.3,0.9,4.9,2.7,4.9h0.2c1.7,0,2.6-0.9,2.9-2.7v-6.8
			c-0.9-0.3-1.8-0.5-2.5-0.5C183.6,95.1,182.6,96.5,182.4,99.4z"/>
		<path class="st0" d="M194.7,98.9c0,0.3,0,0.7,0,1.2c0,3.3,1,5,3,5c0.1,0,0.1,0,0.2,0c2.1-0.1,3.3-1.5,3.5-4.2h1.6
			c-0.3,4-2.1,6-5.5,6c-2.4-0.1-3.8-1.5-4.3-4.3c-0.2-1.1-0.3-2-0.3-2.9c0-1.2,0.2-2.3,0.6-3.1c0.9-2,2.4-3,4.4-3c0.2,0,0.3,0,0.5,0
			c2.3,0.2,3.6,2,4,5.3H194.7z M197.9,95.3h-0.2c-1.4,0-2.3,0.7-2.9,2h5.5C200.2,96,199.3,95.3,197.9,95.3z"/>
		<path class="st0" d="M206.7,106.6h-1.8V93.8h1.8V95c0.4-0.9,1.4-1.3,3-1.3h0.1c2.8,0,4.2,1.9,4.2,5.7c0,0.2,0,0.3,0,0.5v6.7h-1.8
			v-6.4c0-0.2,0-0.4,0-0.6c0-2.7-0.8-4.1-2.3-4.3h-0.2c-1.7,0-2.7,0.9-3,2.7V106.6z"/>
		<path class="st0" d="M219.2,93.8h2v1.7h-2v11.1h-1.8V95.5h-2v-1.7h2V91h1.8V93.8z"/>
		<path class="st0" d="M224.1,98.9c0,0.3,0,0.7,0,1.2c0,3.3,1,5,3,5c0.1,0,0.1,0,0.2,0c2.1-0.1,3.3-1.5,3.5-4.2h1.6
			c-0.3,4-2.1,6-5.5,6c-2.4-0.1-3.8-1.5-4.3-4.3c-0.2-1.1-0.3-2-0.3-2.9c0-1.2,0.2-2.3,0.6-3.1c0.9-2,2.4-3,4.4-3c0.2,0,0.3,0,0.5,0
			c2.3,0.2,3.6,2,4,5.3H224.1z M227.3,95.3h-0.2c-1.4,0-2.3,0.7-2.9,2h5.5C229.6,96,228.8,95.3,227.3,95.3z"/>
		<path class="st0" d="M240,96.7c-0.2-1-0.8-1.5-1.7-1.6l-0.1,0c-0.1,0-0.2,0-0.3,0c-0.3,0-0.5,0.1-0.8,0.2
			c-0.3,0.2-0.5,0.5-0.6,0.9v0.2c0,0.5,0.3,0.9,0.9,1c0.8,0.2,1.8,0.5,3,0.9c1.2,0.4,2,0.9,2.4,1.8c0.2,0.4,0.3,1,0.3,1.6
			c0,0.4,0,0.7-0.1,1.2l-0.1,0.5c-0.7,2.5-2.2,3.7-4.4,3.7c-0.3,0-0.6,0-1-0.1c-2.5-0.4-3.7-2.1-3.7-5c0-0.2,0-0.5,0-0.9h1.9
			c0,0.4-0.1,0.7-0.1,0.9c0,2,0.7,3.1,2.1,3.3c0.2,0,0.4,0,0.6,0c1.4,0,2.3-0.8,2.8-2.4c0-0.2,0.1-0.3,0.1-0.5
			c0-0.3,0.1-0.5,0.1-0.7c0-0.3-0.1-0.6-0.2-0.9c-0.2-0.4-0.5-0.8-1-0.9c-0.5-0.2-1.3-0.5-2.6-0.8c-1.3-0.3-2.1-0.7-2.5-1.3
			c-0.3-0.4-0.5-0.9-0.5-1.5c0-0.1,0-0.3,0-0.4c0.1-0.8,0.6-1.5,1.2-1.9c0.5-0.4,1.2-0.6,1.9-0.6c0.2,0,0.4,0,0.7,0.1l0.1,0
			c1.8,0.3,2.8,1.4,2.9,3.3H240z"/>
	</g>
	<g>
		<g>
			<path class="st1" d="M222.7,45.1c-0.1-0.1-6.2-7.4-5.5-14.4c0.3-2.7,1.5-5,3.8-6.8c0.6-0.2,3.4-1.4,7.3-1.9
				c1.3-0.2,2.1-0.7,2.4-1.5c0.5-1.3-0.6-2.7-0.9-3c-0.1-0.2-0.3-0.3-0.5-0.3c-1.3-0.3-2.6-0.4-3.9-0.4c-6.3,0-10,3.3-10.1,3.4
				c-5.1,3.9-10.5,11.2-7.2,24.1c0.1,0.2,2,6.1,9.4,14.8c0.4,0.6,5.1,8.1,3,15.2c-1.2,4.1-4.5,7.4-9.9,9.8c-0.1,0.1-0.3,0.1-0.3,0.3
				c-0.2,0.2-1.1,1.3-0.6,2.4c0.5,1.2,2.3,1.2,2.8,1.2c0.6,0,1.2-0.1,2-0.2c0.2,0,19.6-2.5,17.1-25.8
				C231.5,61.6,230.5,55.6,222.7,45.1z"/>
			<path class="st1" d="M210.4,66.3c0.2,0,0.5-0.1,0.7-0.3c0.2-0.2,0.3-0.5,0.3-0.7v-4.5c0-0.3-0.1-0.5-0.3-0.7s-0.5-0.3-0.7-0.3
				l-0.3,0c-4.5,0-5.7-1.2-5.7-1.2v0c-0.1-0.1-0.1-0.1-0.2-0.2c-1.3-0.9-1.9-2.4-2.4-3.9c-0.6-1.8-0.7-3.8-0.7-5.2v-48
				c0-0.5-0.4-1-1-1l-7.9-0.1c0,0,0,0,0,0c-0.3,0-0.5,0.1-0.7,0.3c-0.2,0.2-0.3,0.4-0.3,0.7v36.1c0,11.8,0.5,14.2,1.4,16.6
				c1,2.4,2.4,4.5,4.2,6.4c1.8,1.9,4,3.4,6.6,4.5c1.7,0.7,4.7,1.2,7,1.4C210.3,66.3,210.4,66.3,210.4,66.3z"/>
			<path class="st1" d="M188.9,22.1c-0.4-0.9-0.9-1.8-1.6-2.5c-1.7-1.8-4.4-2.9-6.9-2.9l-0.2,0c-2.6,0.1-5,0.6-7.3,1.6
				c-2.4,1-4.6,2.5-6.3,4.3c-1.8,1.8-3.2,3.9-4.3,6.3c-1,2.4-1.6,5.1-1.6,7.8l0,14.6l-0.3,5.1c-0.2,2-0.4,2.7-0.5,2.9
				c-0.3,0.7-1.7,1.1-3.6,1.2c-1.4,0-2.3,0.9-2.3,2.3c0,1.7,1,2.3,2,2.3h22.3c0.5,0,1.8-0.3,1.8-2.7c0-1.3-0.7-2.2-1.8-2.4
				c-0.1,0-0.1,0-0.2,0c-1.3,0-2.4-0.1-3.3-0.2c-1.4-0.2-1.6-3.2-1.6-5V41.9l0-11.4c0-8,6.4-8.3,6.7-8.3l0.2,0
				c3.7,0,5.3,3.5,5.4,3.6c0.3,0.8,1.1,1.3,1.9,1.3c1,0,1.9-0.7,2.1-1.7c0.2-1-0.3-2.2-0.7-3.1L188.9,22.1z"/>
			<path class="st1" d="M151.4,59.9c-0.1,0-0.1,0-0.2,0c-1.4,0-2.5-0.1-3.4-0.2c-1.5-0.2-1.7-3.4-1.7-5.2l0-14.1
				c0-3.3-0.6-6.5-1.9-9.4c-1.2-2.9-2.9-5.5-5-7.7c-1.7-1.8-4-3.9-6.9-5c-3.1-1.2-6.2-1.8-9.4-1.8c-5.4,0-9,1.7-9.1,1.8
				c-2.8,1.3-5.2,3-7.3,5.2c-2.1,2.2-3.7,4.7-4.9,7.6c-1.2,2.9-1.8,6-1.8,9.4c0,3.5,0.6,6.7,1.8,9.6c1.2,2.9,2.9,5.5,5,7.6
				c2.1,2.1,4.6,3.8,7.3,5c2.4,1.1,5.1,1.7,7.8,1.8c0,0,0.2,0,0.4,0c1.6,0,9.8-0.4,12.5-7.6c0-0.1,0.1-0.2,0.1-0.3
				c0-0.4,0-1.6-0.7-2.4c-0.7-0.8-1.9-0.7-3.1,0.3c-0.4,0.3-0.9,0.5-1.4,0.8l-0.4,0.2c-1.8,0.8-3.8,1.2-5.9,1.2
				c-2.1,0-4.2-0.4-6-1.3c-1.9-0.8-3.6-2-5-3.5c-1.4-1.5-2.5-3.2-3.4-5.2c-0.8-1.9-1.2-4.1-1.2-6.3c0-2.2,0.4-4.4,1.2-6.3
				c0.8-2,1.9-3.7,3.4-5.2c1.4-1.5,3.1-2.6,5-3.5c1.9-0.8,3.9-1.3,6-1.3c2.1,0,4.2,0.4,6.1,1.3c1.7,0.7,3.2,1.7,4.4,2.9
				c0,0,2.5,2.6,2.5,8.3L136,64.1c0,0.3,0.1,0.5,0.3,0.7c0.2,0.2,0.4,0.3,0.7,0.3h14.3c0.6,0,1.9-0.3,1.9-2.7
				C153.2,61,152.5,60.1,151.4,59.9z"/>
			<path class="st1" d="M77.1,16.8c-6.3-0.4-12,1.9-16.7,7c-4.6,4.9-6.9,10.8-6.8,17.7c0.1,6.4,2.4,12.1,6.9,16.8
				c4.4,4.6,9.6,6.9,15.3,6.9l0.3,0c4.4-0.1,8.5-1.4,12.1-4c1.2-1,2.6-2.3,3.5-3.9c0.4-0.6,1.2-2.1,0.2-3.4c-0.6-0.8-1.3-1-1.8-1
				c-0.3,0-0.6,0.1-1,0.2c-0.5,0.2-0.9,0.5-1.3,0.7c-0.3,0.2-0.6,0.4-0.8,0.5c-8.9,2.4-15.6,1.5-19.7-2.9c-4-4.2-4.5-10.5-4.5-12.9
				l34-0.1c0.3,0,0.6-0.1,0.7-0.3c0.2-0.2,0.3-0.5,0.2-0.8c-0.5-4.7-2.5-9-5.9-12.9C87.9,19.7,82.9,17.2,77.1,16.8z M63.3,32.3
				c0.7-2.7,2-4.8,3.9-6.4c2.2-1.9,4.7-2.8,7.5-2.8l0.2,0c3,0.1,5.5,1,7.6,2.9c1.8,1.7,3.1,3.8,3.8,6.3H63.3z"/>
			<path class="st1" d="M50.1,36.8c-0.1-0.8-0.2-1.6-0.4-2.3c-0.2-0.8-0.4-1.5-0.6-2.3c-0.6-1.9-1.5-3.8-2.6-5.5
				c-1.1-1.7-2.5-3.4-4.1-5c-1.7-1.7-3.8-3-6.2-3.8c-2.4-0.8-5.1-1.2-8.2-1.2h-0.7c-0.3,0-0.6,0-0.8,0.1c-0.3,0-0.5,0-0.8,0.1
				c-0.3,0-0.5,0.1-0.7,0.1c-0.5,0.1-1.1,0.2-1.6,0.3c-0.5,0.1-1.1,0.3-1.6,0.5c-1.9,0.6-3.8,1.6-5.6,2.8c-1.7,1.2-3.4,2.8-5,4.6
				c-1.6,1.9-2.8,4.1-3.6,6.7c-0.8,2.6-1.2,5.5-1.2,8.8l0,36.8l0,0.5c-0.1,1.6-0.3,2.2-0.4,2.4c-0.2,0.3-1.7,1-4.1,1.1
				c-1,0-2,0.6-2,2.3c0,2.2,1.4,2.3,1.8,2.3h19.8c0.8,0,1.7-0.5,1.7-2.7c0-1.8-1-2.3-1.6-2.4c-0.1,0-0.2,0-0.2,0
				c-1.2,0-3.3-0.1-3.9-0.2c-0.5-0.1-1-1.2-1.2-3.8V38.2c0-0.6,0-1.2,0-1.7c0-1.8-0.1-3.6,0.3-5.2c0.1-0.4,0.3-0.8,0.5-1.3
				c0.6-1.4,1.3-2.6,2.3-3.6c0.1-0.1,0.1-0.1,0.2-0.2c1-0.9,2-1.7,3-2.3c0.5-0.3,1-0.5,1.4-0.7c0.4-0.2,0.8-0.3,1.3-0.4
				c0,0,0.1,0,0.1,0c0.4-0.1,0.9-0.2,1.3-0.3c0.4-0.1,0.8-0.1,1.2-0.1c1.7,0,3.3,0.4,4.8,1.1c1.6,0.7,3.1,1.8,4.6,3.2
				c1.5,1.4,2.6,3.1,3.3,5.1c0.7,2,1.1,4.3,1.1,6.8c0,2.3-0.3,4.5-0.8,6.4c0,0-1.4,3.8-2.5,5.4c-1,1.5-2.3,2.6-3.9,3.3
				c-1.6,0.7-3.6,1.1-5.8,1.1h-1.2c-0.3,0-0.6,0-0.8-0.1c-0.4-0.1-0.7,0-1.1-0.1c-0.3-0.1-0.7-0.1-0.9-0.2c-0.5-0.1-1.1-0.3-1.6-0.5
				c-0.6-0.2-1.2-0.4-1.8-0.7c0,0-0.1-0.1-0.1-0.1c-0.5-0.2-0.9-0.3-1.3-0.3c-0.6,0-1.1,0.3-1.3,0.7c-0.5,0.9,0.1,2.1,0.7,3
				c0,0,0,0.1,0.1,0.1c4.1,4.8,10.3,5.5,13.6,5.5c1.1,0,1.8-0.1,1.8-0.1c0,0,0,0,0,0c6.9-0.4,12.2-6.9,12.4-7.2c0,0,0.1-0.1,0.1-0.1
				c0.9-1.6,1.6-3.3,2.2-5c0.2-0.7,0.4-1.5,0.6-2.3c0.2-0.8,0.3-1.6,0.4-2.3c0.1-0.8,0.2-1.5,0.3-2.2c0.1-0.7,0.1-1.4,0.1-2.1
				c0-0.6,0-1.3-0.1-2C50.3,38.3,50.2,37.6,50.1,36.8z"/>
			<path class="st1" d="M243.5,16.8h-0.8c-0.4,0-0.8,0.3-0.9,0.7l-0.4,1.3l-0.4-1.2c-0.1-0.4-0.5-0.7-0.9-0.7H239
				c-0.1,0-0.2,0-0.3,0.1c-0.1,0-0.2-0.1-0.3-0.1h-3.8c-0.6,0-1,0.4-1,1v0.6c0,0.6,0.4,1,1,1h0.6v3.2c0,0.6,0.4,1,1,1h0.6
				c0.6,0,1-0.4,1-1v-3.2h0.2v3.2c0,0.6,0.4,1,1,1h0.6c0.3,0,0.5-0.1,0.7-0.3c0.2,0.2,0.4,0.3,0.7,0.3h0.6c0.3,0,0.5-0.1,0.7-0.3
				c0.2,0.2,0.4,0.3,0.7,0.3h0.6c0.6,0,1-0.4,1-1v-4.7C244.5,17.3,244.1,16.8,243.5,16.8z"/>
			<path class="st1" d="M55.2,15.4c0.2,0.3,0.5,0.5,0.8,0.5h2.6c0.3,0,0.7-0.2,0.8-0.5c0.2-0.3,0.2-0.7,0.1-1
				c-0.2-0.4-0.3-0.8-0.4-1.1c0-0.2-0.1-0.7-0.1-1.7l0-3.1c0-1.4-0.2-2.3-0.5-2.9C58.3,5,57.8,4.5,57,4.1c-0.7-0.3-1.7-0.5-3.1-0.5
				c-1.5,0-2.7,0.3-3.5,0.9c-0.9,0.6-1.5,1.5-1.8,2.7c-0.1,0.3,0,0.6,0.1,0.8c0.2,0.2,0.4,0.4,0.7,0.5l1.1,0.2c0,0-0.1,0-0.1,0
				c-0.7,0.3-1.2,0.8-1.6,1.4c-0.4,0.6-0.6,1.3-0.6,2c0,1.1,0.4,2.1,1.2,2.9c0.8,0.7,1.8,1.1,3.1,1.1c0.7,0,1.4-0.1,2-0.4
				C54.9,15.6,55.1,15.5,55.2,15.4z M53.2,7.7c0,0,0.2-0.1,0.5-0.1c0.2,0,0.4,0,0.5,0c-0.3,0.1-0.7,0.2-1.2,0.3
				C53.1,7.8,53.2,7.7,53.2,7.7z M53,11.7c0,0,0.2-0.1,1.1-0.3c0.1,0,0.3-0.1,0.4-0.1c0,0.2,0,0.2,0,0.2c0,0.1-0.1,0.2-0.3,0.3
				c-0.3,0.2-0.5,0.3-0.8,0.3c-0.2,0-0.3-0.1-0.4-0.1C53,12,53,11.9,53,11.7C53,11.8,53,11.8,53,11.7z"/>
			<path class="st1" d="M65,16.1c1.5,0,2.8-0.4,3.7-1.1c0.9-0.7,1.5-1.7,1.8-2.9v2.8c0,0.6,0.4,1,1,1h2.7c0.6,0,1-0.4,1-1v-10
				c0-0.3-0.1-0.5-0.3-0.7C75,4,75.1,3.7,75.1,3.5V1c0-0.6-0.4-1-1-1h-2.7c-0.6,0-1,0.4-1,1v2.5c0,0.3,0.1,0.5,0.3,0.7
				c-0.2,0.2-0.3,0.4-0.3,0.7V11c0,0,0-0.1,0-0.1c-0.2-0.2-0.4-0.4-0.7-0.4L67.2,10c-0.5-0.1-1,0.3-1.2,0.8
				c-0.1,0.7-0.3,0.9-0.4,0.9c-0.1,0.1-0.2,0.2-0.6,0.2c-0.4,0-0.6-0.1-0.8-0.4c-0.1-0.1-0.4-0.6-0.4-1.9c0-1.1,0.2-1.5,0.3-1.6
				c0.1-0.2,0.4-0.3,0.8-0.3c0.4,0,0.5,0.1,0.6,0.2c0.1,0.1,0.2,0.3,0.3,0.6c0,0.3,0.2,0.5,0.4,0.7c0.2,0.2,0.5,0.2,0.8,0.2l2.6-0.5
				c0.3-0.1,0.5-0.2,0.7-0.5c0.1-0.2,0.2-0.5,0.1-0.8c-0.4-1.3-1-2.3-1.9-2.9c-0.9-0.6-2.1-1-3.5-1c-1.8,0-3.2,0.6-4.3,1.7
				c-1.1,1.1-1.6,2.6-1.6,4.6c0,1.9,0.5,3.4,1.6,4.5C61.8,15.5,63.2,16.1,65,16.1z"/>
			<path class="st1" d="M86,0h-2.7c-0.6,0-1,0.4-1,1v3c-0.6-0.3-1.2-0.4-1.9-0.4c-1.5,0-2.8,0.6-3.8,1.7c-1,1.1-1.5,2.6-1.5,4.5
				c0,1.9,0.5,3.4,1.5,4.5c1,1.1,2.3,1.7,3.7,1.7c0.7,0,1.4-0.2,2.1-0.5c0.1,0,0.1-0.1,0.2-0.1c0.2,0.2,0.5,0.4,0.8,0.4H86
				c0.6,0,1-0.4,1-1V9.7V1C87,0.4,86.6,0,86,0z M80.3,11.4c-0.1-0.2-0.3-0.6-0.3-1.8c0-0.7,0.1-1.3,0.4-1.6c0.2-0.3,0.5-0.4,0.8-0.4
				c0.3,0,0.6,0.1,0.8,0.4c0.1,0.2,0.4,0.7,0.4,1.9c0,0.8-0.1,1.4-0.4,1.7c-0.3,0.4-0.6,0.4-0.8,0.4C80.8,12,80.5,11.8,80.3,11.4z"
				/>
			<path class="st1" d="M93.2,3.6c-1.1,0-2.2,0.3-3.1,0.8c-1,0.5-1.7,1.3-2.3,2.3c-0.5,1-0.8,2-0.8,3c0,1.3,0.3,2.5,0.8,3.4
				c0.5,1,1.3,1.7,2.3,2.2c1,0.5,2,0.7,3.1,0.7c1.8,0,3.2-0.6,4.4-1.8c1.2-1.2,1.8-2.7,1.8-4.5c0-1.8-0.6-3.3-1.7-4.4
				C96.5,4.2,95,3.6,93.2,3.6z M94.7,9.8c0,0.8-0.2,1.3-0.5,1.6c-0.3,0.3-0.6,0.5-1,0.5c-0.4,0-0.7-0.1-1-0.5
				c-0.3-0.3-0.5-0.9-0.5-1.6c0-0.7,0.2-1.3,0.5-1.6c0.3-0.3,0.6-0.5,1-0.5c0.4,0,0.7,0.1,1,0.5C94.5,8.5,94.7,9.1,94.7,9.8z"/>
			<path class="st1" d="M103,19.6c0.6,0,1-0.4,1-1v-3c0.6,0.3,1.2,0.4,1.9,0.4c1.5,0,2.7-0.6,3.7-1.7c1-1.1,1.5-2.6,1.5-4.6
				c0-1.9-0.5-3.4-1.5-4.5c-1-1.1-2.3-1.7-3.7-1.7c-0.8,0-1.6,0.2-2.3,0.6c0,0,0,0,0,0c-0.2-0.2-0.5-0.4-0.8-0.4h-2.5
				c-0.6,0-1,0.4-1,1v13.8c0,0.6,0.4,1,1,1H103z M106.1,8.1c0.3,0.3,0.4,0.9,0.4,1.7c0,1.2-0.2,1.6-0.4,1.8
				c-0.2,0.3-0.5,0.4-0.8,0.4c-0.2,0-0.5-0.1-0.9-0.4c-0.3-0.3-0.4-1-0.4-1.9c0-0.7,0.1-1.3,0.4-1.6c0.2-0.3,0.5-0.4,0.9-0.4
				C105.6,7.7,105.8,7.8,106.1,8.1z"/>
			<path class="st1" d="M112.3,15.8h2.7c0.6,0,1-0.4,1-1v-5c0-0.9,0.1-1.3,0.2-1.6c0.1-0.3,0.3-0.4,0.3-0.5c0.2-0.1,0.4-0.2,0.7-0.2
				c0.1,0,0.3,0,0.4,0.1c0.1,0,0.1,0.1,0.1,0.2c0,0,0.1,0.3,0.1,1.7v5.3c0,0.6,0.4,1,1,1h2.7c0.6,0,1-0.4,1-1V9c0-1-0.1-1.7-0.2-2.2
				c-0.1-0.6-0.3-1.1-0.7-1.5c-0.3-0.5-0.9-0.9-1.5-1.2c-1.2-0.6-2.9-0.6-4.1,0V1c0-0.6-0.4-1-1-1h-2.7c-0.6,0-1,0.4-1,1v13.8
				C111.3,15.4,111.7,15.8,112.3,15.8z"/>
			<path class="st1" d="M124.1,15.8h2.7c0.6,0,1-0.4,1-1v-10c0-0.3-0.1-0.5-0.3-0.7c0.2-0.2,0.3-0.4,0.3-0.7V1c0-0.6-0.4-1-1-1h-2.7
				c-0.6,0-1,0.4-1,1v2.5c0,0.3,0.1,0.5,0.3,0.7c-0.2,0.2-0.3,0.4-0.3,0.7v10C123.1,15.4,123.5,15.8,124.1,15.8z"/>
			<path class="st1" d="M129.4,15.8h2.7c0.6,0,1-0.4,1-1V1c0-0.6-0.4-1-1-1h-2.7c-0.6,0-1,0.4-1,1v13.8
				C128.4,15.4,128.9,15.8,129.4,15.8z"/>
			<path class="st1" d="M135.8,15.5c0.7,0.4,1.5,0.6,2.3,0.6c0.8,0,1.6-0.2,2.3-0.6c0.1,0,0.1-0.1,0.2-0.1c0.2,0.3,0.5,0.4,0.8,0.4
				h2.5c0.6,0,1-0.4,1-1v-2.2c0.3,1,0.9,1.8,1.8,2.4c1,0.7,2.2,1,3.8,1c1.7,0,3.1-0.4,4.1-1.2c1-0.9,1.5-1.9,1.5-3.1
				c0-1.1-0.4-2.1-1.2-2.7c-0.2-0.2-0.5-0.4-0.9-0.6l0.9-0.2c0.3-0.1,0.5-0.2,0.7-0.5c0.1-0.2,0.2-0.5,0.1-0.8
				c-0.3-1.1-0.9-2-1.8-2.5c-0.8-0.6-2-0.8-3.6-0.8c-1.7,0-3,0.4-3.8,1.1c-0.9,0.8-1.4,1.8-1.4,2.9c0,1.3,0.6,2.4,1.6,3.1
				c0,0,0.1,0,0.1,0.1l-1.2,0.2c-0.3,0-0.5,0.2-0.7,0.4V4.8c0-0.6-0.4-1-1-1h-2.7c-0.6,0-1,0.4-1,1V9c0,1.9-0.1,2.3-0.1,2.4
				c-0.1,0.2-0.2,0.3-0.4,0.4c-0.2,0.1-0.4,0.2-0.6,0.2c-0.1,0-0.3,0-0.4-0.1c-0.1,0-0.1-0.1-0.2-0.2c0-0.1-0.1-0.5-0.1-2.3V4.8
				c0-0.6-0.4-1-1-1h-2.7c-0.6,0-1,0.4-1,1v6.3c0,1.1,0.1,2,0.4,2.6C134.5,14.5,135.1,15.1,135.8,15.5z M150.5,12.1
				c-0.4,0-0.7-0.1-0.8-0.2c0,0-0.1-0.1-0.1-0.1c0.4,0.1,0.8,0.2,1.3,0.3C150.7,12.1,150.6,12.1,150.5,12.1z"/>
		</g>
		<g>
			<g>
				<g>
					<path class="st2" d="M227.3,20.2c-4.5,0.5-7.7,2-7.7,2c-10.5,8.4,1.5,22.7,1.5,22.7c7.7,10.4,8.6,16.3,8.6,16.3
						c2.5,22.5-16.2,24.7-16.2,24.7c-5.6,0.8-3.3-1.8-3.3-1.8c19.3-8.4,7.2-26.4,7.2-26.4c-7.4-8.6-9.2-14.5-9.2-14.5
						c-3.1-11.8,1.4-18.8,6.9-23c0,0,5-4.6,13.2-2.8C228.2,17.3,230.4,19.8,227.3,20.2z"/>
					<g>
						<path class="st2" d="M209.6,60.2v4.3c-2.6-0.3-5.3-0.7-6.7-1.3c-2.5-1.1-4.6-2.5-6.3-4.3c-1.7-1.8-3-3.8-3.9-6.1
							c-0.9-2.3-1.4-4.6-1.4-16.3V0.4l7.9,0.1v48c0,1.7,0.2,3.8,0.8,5.5c0.6,1.7,1.3,3.3,2.8,4.3c0,0,1.3,1.6,6.8,1.6V60.2z"/>
					</g>
					<g>
						<path class="st2" d="M171.5,34.5V41c0,5.4,0,12.9,0,12.9c0,3.7,0.8,5.7,2.5,6c1,0.1,2.1,0.2,3.4,0.2c0.7,0.1,1,0.6,1,1.4
							c0,1.1-0.3,1.7-0.8,1.7h-1.8c-0.5,0-1.7,0-6.4,0c0.2,0-1.1,0-4.1,0h-4.4h-3.4c-0.6,0-1.3,0-2.1,0c-0.7,0-1-0.4-1-1.3
							c0-0.9,0.4-1.3,1.3-1.3c2.5-0.1,4-0.7,4.5-1.8c0.3-0.5,0.5-1.6,0.6-3.3l0-1l0.2-4.1c0-4.6,0-14.6,0-14.6
							c0-2.6,0.5-5.1,1.5-7.4c1-2.3,2.4-4.3,4.1-6c1.7-1.7,3.7-3.1,6-4.1c2.2-0.9,4.5-1.4,6.9-1.5c2.3-0.1,4.8,0.9,6.3,2.6
							c0.6,0.6,1.1,1.4,1.4,2.2c0.3,0.7,0.8,1.9,0.7,2.7c-0.2,1-1.6,1.3-2.1,0.2c0,0-1.9-4.4-6.6-4.2c0,0-7.7,0.1-7.7,9.3
							L171.5,34.5z"/>
					</g>
					<g>
						<path class="st2" d="M132.9,55.6c-2.8,7.5-11.9,7-11.9,7c-2.7-0.1-5.2-0.7-7.5-1.7c-2.7-1.2-5-2.8-7-4.8c-2-2-3.6-4.5-4.8-7.3
							c-1.2-2.8-1.7-5.9-1.7-9.2c0-3.2,0.6-6.2,1.7-9c1.1-2.8,2.7-5.2,4.7-7.3c2-2.1,4.3-3.7,7-5c0,0,7.8-3.9,17.7,0
							c2.5,1,4.6,2.8,6.5,4.8c2,2.1,3.6,4.6,4.8,7.4c1.2,2.8,1.8,5.8,1.8,9c0,0,0,5.4,0,10.6l0,3.5c0,3.8,0.9,5.9,2.6,6.2
							c1,0.1,2.2,0.2,3.6,0.2c0.7,0.1,1,0.6,1,1.5c0,1.2-0.3,1.7-0.9,1.7h-1.9c-0.6,0-1.8,0-6.7,0c0.3,0-1.2,0-4.3,0
							c0,0-0.7,0-1.5,0l0.1-27.5c0-6.2-2.8-9-2.8-9c-1.4-1.3-3-2.3-4.7-3.1c-2-0.9-4.2-1.3-6.5-1.3c-2.3,0-4.4,0.4-6.4,1.3
							c-2,0.9-3.8,2.1-5.3,3.7c-1.5,1.6-2.7,3.4-3.6,5.5c-0.9,2.1-1.3,4.4-1.3,6.7c0,2.4,0.4,4.6,1.3,6.7c0.9,2.1,2.1,3.9,3.6,5.5
							c1.5,1.6,3.3,2.8,5.3,3.7c2,0.9,4.2,1.3,6.4,1.3c2.2,0,4.3-0.4,6.3-1.3c0.7-0.3,1.5-0.6,2.1-1.1
							C133,52.4,132.9,55.6,132.9,55.6z"/>
					</g>
					<path class="st2" d="M88.8,53.1c-0.8,0.3-1.6,1.1-2.2,1.2c-27,7.4-25.5-17.7-25.5-17.7l35-0.1c-0.5-4.5-2.4-8.6-5.7-12.4
						c-4-4.5-8.8-6.9-14.3-7.3c-6.1-0.4-11.4,1.9-15.9,6.6c-4.5,4.7-6.6,10.4-6.5,17c0.1,6.3,2.3,11.6,6.6,16.1
						c4.3,4.5,9.3,6.6,14.9,6.6c4.2-0.1,8-1.3,11.5-3.8c1.2-1,2.5-2.2,3.3-3.6c0.4-0.7,0.8-1.5,0.3-2.3C90,52.9,89.4,52.9,88.8,53.1
						z M65.6,24.3c2.4-2.1,5.2-3.1,8.4-3.1c3.2,0.1,5.9,1.1,8.2,3.2c2.3,2.1,3.7,4.8,4.4,8.1H61.2C61.8,29.1,63.3,26.3,65.6,24.3z"
						/>
					<path class="st2" d="M19.7,53.1c0,0,0.1,0,0.1,0.1c0.6,0.3,1.2,0.5,1.8,0.7c0.6,0.2,1.2,0.4,1.7,0.5c0.3,0.1,0.6,0.1,1,0.2
						c0.3,0.1,0.7,0.1,1.1,0.1c0.3,0.1,0.7,0.1,1,0.1c0.4,0,0.8,0,1.2,0c2.4,0,4.5-0.4,6.2-1.2c1.8-0.8,3.2-2,4.4-3.7
						c1.1-1.7,2.6-5.6,2.6-5.6c0.6-2.1,0.9-4.3,0.9-6.7c0-2.6-0.4-5-1.2-7.1c-0.8-2.1-2-3.9-3.5-5.5c-1.6-1.5-3.2-2.7-4.9-3.4
						c-1.7-0.8-3.4-1.1-5.3-1.1c-0.4,0-0.9,0-1.3,0.1c-0.4,0.1-0.9,0.2-1.4,0.3c-0.5,0.1-1,0.2-1.5,0.4c-0.5,0.2-1,0.5-1.5,0.7
						c-1.1,0.6-2.2,1.4-3.2,2.5c-0.1,0.1-0.2,0.2-0.3,0.3c-1.1,1.1-1.9,2.5-2.5,3.9c-0.2,0.5-0.4,1-0.5,1.5
						c-0.5,2.3-0.2,4.8-0.2,7.2c0,3.3,0,6.7,0,10c0,7.3,0,14.6,0,21.9c0,2.3,0,4.7,0,7c0.1,2.9,0.8,4.5,1.9,4.8
						c0.8,0.1,3.1,0.2,4.2,0.2c0.5,0.1,0.8,0.6,0.8,1.5c0,1.1-0.2,1.7-0.7,1.7h-1.5c-0.4,0-2.8,0-6.6,0c0.2,0,0,0-2.4,0H6.8H2.6
						c-0.5,0-1,0-1.7,0c-0.5,0-0.8-0.4-0.8-1.3c0-0.9,0.3-1.3,1-1.3c2-0.1,4.6-0.7,5-1.8c0.2-0.5,0.3-1.4,0.4-2.8l-0.1-0.6
						c0-11.3,0-36.7,0-36.7c0-3.2,0.4-6,1.1-8.5c0.8-2.5,1.9-4.6,3.4-6.4c1.5-1.8,3.1-3.2,4.8-4.4c1.7-1.2,3.4-2,5.3-2.7
						c0.5-0.2,1-0.3,1.5-0.5c0.5-0.1,1-0.2,1.5-0.3c0.3-0.1,0.5-0.1,0.8-0.1c0.2,0,0.5,0,0.8,0c0.2-0.1,0.5-0.1,0.7-0.1
						c0.3,0,0.5,0,0.7,0c3,0,5.6,0.4,7.9,1.1c2.3,0.8,4.2,1.9,5.8,3.5c1.5,1.5,2.8,3.1,3.9,4.8c1.1,1.7,1.9,3.4,2.5,5.3
						c0.2,0.7,0.4,1.5,0.6,2.2c0.2,0.7,0.3,1.5,0.3,2.2c0.1,0.7,0.2,1.4,0.3,2.1c0.1,0.6,0.1,1.3,0.1,1.9c0,0.6,0,1.3-0.1,2
						c-0.1,0.7-0.1,1.4-0.3,2.2c-0.1,0.7-0.2,1.5-0.3,2.2c-0.2,0.7-0.4,1.5-0.6,2.2c-0.5,1.7-1.2,3.3-2.1,4.8c0,0-5.1,6.5-11.7,6.8
						c0,0-9.3,1.1-14.6-5.1C19,55.1,17,52.1,19.7,53.1z"/>
				</g>
				<g>
					<path class="st2" d="M235.3,21.7v-4.2h-1.6v-0.6h3.8v0.6H236v4.2H235.3z"/>
					<path class="st2" d="M238.2,21.7v-4.7h0.9l1.1,3.4c0.1,0.3,0.2,0.5,0.2,0.7c0.1-0.2,0.1-0.4,0.3-0.8l1.1-3.3h0.8v4.7h-0.6v-4
						l-1.4,4h-0.6l-1.4-4v4H238.2z"/>
				</g>
			</g>
			<g>
				<path class="st2" d="M51.1,7l-2.4-0.4c0.3-1,0.7-1.7,1.4-2.2c0.7-0.5,1.6-0.7,2.9-0.7c1.2,0,2.1,0.1,2.6,0.4
					c0.6,0.3,1,0.6,1.2,1.1c0.2,0.4,0.4,1.2,0.4,2.4l0,3.1c0,0.9,0,1.5,0.1,1.9c0.1,0.4,0.2,0.9,0.5,1.3h-2.6
					c-0.1-0.2-0.2-0.4-0.3-0.8c0-0.2-0.1-0.3-0.1-0.3c-0.5,0.4-0.9,0.8-1.5,1c-0.5,0.2-1.1,0.3-1.7,0.3c-1,0-1.8-0.3-2.4-0.8
					c-0.6-0.6-0.9-1.3-0.9-2.1c0-0.6,0.1-1.1,0.4-1.5c0.3-0.4,0.6-0.8,1.1-1c0.5-0.2,1.2-0.4,2.1-0.6c1.2-0.2,2.1-0.4,2.6-0.7V7.2
					c0-0.5-0.1-0.9-0.4-1.1c-0.3-0.2-0.7-0.3-1.4-0.3c-0.5,0-0.8,0.1-1.1,0.3C51.5,6.2,51.3,6.5,51.1,7z M54.7,9.2
					c-0.3,0.1-0.9,0.2-1.6,0.4c-0.7,0.2-1.2,0.3-1.4,0.5c-0.3,0.2-0.5,0.6-0.5,0.9c0,0.4,0.1,0.7,0.4,1c0.3,0.3,0.6,0.4,1.1,0.4
					c0.5,0,0.9-0.2,1.4-0.5c0.3-0.2,0.5-0.5,0.6-0.9c0.1-0.2,0.1-0.7,0.1-1.3V9.2z"/>
				<path class="st2" d="M68.6,6.9L66,7.4c-0.1-0.5-0.3-0.9-0.6-1.2c-0.3-0.3-0.7-0.4-1.2-0.4c-0.7,0-1.2,0.2-1.6,0.7
					C62.2,7,62,7.7,62,8.8c0,1.2,0.2,2,0.6,2.5c0.4,0.5,0.9,0.7,1.6,0.7c0.5,0,0.9-0.1,1.2-0.4c0.3-0.3,0.5-0.8,0.7-1.5l2.6,0.4
					c-0.3,1.2-0.8,2.1-1.6,2.7c-0.8,0.6-1.8,0.9-3.1,0.9c-1.5,0-2.6-0.5-3.5-1.4c-0.9-0.9-1.3-2.2-1.3-3.8c0-1.7,0.4-2.9,1.3-3.9
					c0.9-0.9,2.1-1.4,3.5-1.4c1.2,0,2.2,0.3,2.9,0.8C67.8,5,68.3,5.8,68.6,6.9z"/>
				<path class="st2" d="M70.6,2.6V0.1h2.7v2.5H70.6z M70.6,14V4h2.7v10H70.6z"/>
				<path class="st2" d="M85.2,14h-2.5v-1.5c-0.4,0.6-0.9,1-1.4,1.3c-0.6,0.3-1.1,0.4-1.7,0.4c-1.2,0-2.1-0.5-3-1.4
					c-0.8-0.9-1.2-2.2-1.2-3.9c0-1.7,0.4-3,1.2-3.9c0.8-0.9,1.8-1.3,3-1.3c1.1,0,2.1,0.5,2.9,1.4v-5h2.7V14z M78.1,8.7
					c0,1.1,0.1,1.8,0.4,2.3c0.4,0.7,1,1,1.8,1c0.6,0,1.1-0.3,1.6-0.8c0.4-0.5,0.6-1.3,0.6-2.3c0-1.2-0.2-2-0.6-2.5
					C81.5,6,81,5.8,80.3,5.8c-0.6,0-1.2,0.3-1.6,0.8C78.3,7,78.1,7.8,78.1,8.7z"/>
				<path class="st2" d="M87.2,8.8c0-0.9,0.2-1.7,0.7-2.6c0.4-0.8,1-1.5,1.8-1.9c0.8-0.4,1.7-0.7,2.7-0.7c1.5,0,2.8,0.5,3.7,1.5
					c1,1,1.5,2.2,1.5,3.7c0,1.5-0.5,2.8-1.5,3.8c-1,1-2.2,1.5-3.7,1.5c-0.9,0-1.8-0.2-2.6-0.6c-0.8-0.4-1.5-1-1.9-1.8
					C87.4,10.9,87.2,10,87.2,8.8z M89.9,9c0,1,0.2,1.8,0.7,2.3c0.5,0.5,1.1,0.8,1.7,0.8c0.7,0,1.3-0.3,1.7-0.8
					c0.5-0.5,0.7-1.3,0.7-2.3c0-1-0.2-1.7-0.7-2.3c-0.5-0.5-1-0.8-1.7-0.8c-0.7,0-1.3,0.3-1.7,0.8C90.1,7.2,89.9,8,89.9,9z"/>
				<path class="st2" d="M99.5,4h2.5v1.5c0.3-0.5,0.8-0.9,1.3-1.2c0.5-0.3,1.2-0.5,1.8-0.5c1.2,0,2.2,0.5,3,1.4
					c0.8,0.9,1.2,2.2,1.2,3.8c0,1.7-0.4,3-1.2,3.9c-0.8,0.9-1.8,1.4-3,1.4c-0.6,0-1.1-0.1-1.5-0.3c-0.5-0.2-0.9-0.6-1.4-1.1v5h-2.7
					V4z M102.2,8.8c0,1.1,0.2,2,0.7,2.5c0.4,0.5,1,0.8,1.6,0.8c0.6,0,1.1-0.2,1.5-0.7c0.4-0.5,0.6-1.3,0.6-2.4
					c0-1.1-0.2-1.8-0.6-2.3c-0.4-0.5-0.9-0.8-1.6-0.8c-0.6,0-1.2,0.3-1.6,0.8C102.4,7.1,102.2,7.8,102.2,8.8z"/>
				<path class="st2" d="M114,0.1v5.1c0.9-1,1.9-1.5,3.1-1.5c0.6,0,1.2,0.1,1.7,0.3c0.5,0.2,0.9,0.5,1.1,0.9
					c0.2,0.4,0.4,0.7,0.5,1.2c0.1,0.4,0.1,1.1,0.1,2V14h-2.7V8.7c0-1.1-0.1-1.7-0.2-2c-0.1-0.3-0.3-0.5-0.5-0.7
					c-0.3-0.2-0.6-0.3-1-0.3c-0.4,0-0.8,0.1-1.2,0.3c-0.3,0.2-0.6,0.5-0.8,1C114.1,7.5,114,8.1,114,9v5h-2.7V0.1H114z"/>
				<path class="st2" d="M123.2,2.6V0.1h2.7v2.5H123.2z M123.2,14V4h2.7v10H123.2z"/>
				<path class="st2" d="M128.6,14V0.1h2.7V14H128.6z"/>
				<path class="st2" d="M140.5,14v-1.5c-0.4,0.5-0.8,1-1.4,1.3c-0.6,0.3-1.2,0.5-1.9,0.5c-0.7,0-1.3-0.1-1.8-0.4
					c-0.5-0.3-0.9-0.7-1.2-1.2c-0.2-0.5-0.4-1.3-0.4-2.2V4h2.7v4.6c0,1.4,0,2.3,0.1,2.6c0.1,0.3,0.3,0.6,0.5,0.8
					c0.3,0.2,0.6,0.3,1,0.3c0.5,0,0.9-0.1,1.2-0.4s0.6-0.6,0.7-0.9c0.1-0.4,0.2-1.3,0.2-2.7V4h2.7v10H140.5z"/>
				<path class="st2" d="M144.8,11.1l2.7-0.4c0.1,0.5,0.3,0.9,0.7,1.2c0.3,0.3,0.8,0.4,1.5,0.4c0.7,0,1.2-0.1,1.5-0.4
					c0.2-0.2,0.3-0.4,0.3-0.7c0-0.2-0.1-0.4-0.2-0.5c-0.1-0.1-0.4-0.2-0.9-0.3c-2.1-0.5-3.5-0.9-4.1-1.3c-0.8-0.5-1.2-1.3-1.2-2.3
					c0-0.9,0.3-1.6,1-2.2c0.7-0.6,1.7-0.9,3.2-0.9c1.4,0,2.4,0.2,3.1,0.7c0.7,0.4,1.1,1.1,1.4,2l-2.5,0.5c-0.1-0.4-0.3-0.7-0.6-0.9
					c-0.3-0.2-0.7-0.3-1.3-0.3c-0.7,0-1.2,0.1-1.5,0.3c-0.2,0.1-0.3,0.3-0.3,0.5c0,0.2,0.1,0.3,0.3,0.5c0.2,0.2,1.1,0.4,2.5,0.7
					c1.4,0.3,2.4,0.7,3,1.2c0.6,0.5,0.8,1.1,0.8,2c0,0.9-0.4,1.7-1.2,2.4c-0.8,0.7-1.9,1-3.4,1c-1.4,0-2.4-0.3-3.2-0.8
					C145.6,12.8,145.1,12.1,144.8,11.1z"/>
			</g>
		</g>
	</g>
</g>
</svg>
