<!-- Generator: Adobe Illustrator 20.1.0, SVG Export Plug-In  -->
<svg version="1.1"
	 xmlns="http://www.w3.org/2000/svg" xmlns:xlink="http://www.w3.org/1999/xlink" xmlns:a="http://ns.adobe.com/AdobeSVGViewerExtensions/3.0/"
	 x="0px" y="0px" width="119.7px" height="66.3px" viewBox="0 0 119.7 66.3"
	 style="overflow:scroll;enable-background:new 0 0 119.7 66.3;" xml:space="preserve">
<style type="text/css">
	.st0{fill:#1C3F94;}
	.st1{fill:#8DC63F;}
</style>
<defs>
</defs>
<g>
	<g>
		<g>
			<path class="st0" d="M47.4,66.3h-7.6c-5.5,0-8.4-2.7-8.5-8.2v-0.5c0-5.2,2.6-7.8,7.7-7.8c2.9,0,4.6,0.7,5.3,2.1
				c-0.4-3.9-2.1-5.9-5.2-6c-0.9,0-1.8,0.3-2.7,0.9l-2.5-1.9c1.6-1.2,3.3-1.8,5.2-1.8c4.8,0.1,7.6,2.6,8.3,7.3V66.3z M34.4,57.9
				c0.2,3.4,1.9,5.1,5.1,5.1h4.7v-5.6c-0.5-3.2-2.3-4.8-5.2-4.8c-3.1,0.1-4.6,1.6-4.6,4.7C34.4,57.5,34.4,57.7,34.4,57.9z"/>
			<path class="st0" d="M54.4,66.3h-3.2V36.6h3.2V66.3z"/>
			<path class="st0" d="M87.6,66.3H77.1c-0.1,0-0.2,0-0.4,0c-3.4,0-5.3-3.3-5.6-9.8c0-0.7-0.1-1.4-0.1-2.1c0-7.3,2.7-11,8-11
				c2.9,0,4.6,0.8,5.3,2.3v-9.1h3.2V66.3z M74.1,56.4c0.1,4.7,1.3,7,3.7,7h6.7L84.4,51c-0.6-3.2-2.3-4.8-5.2-4.8h-0.3
				c-3.2,0-4.8,2.9-4.8,8.7C74.1,55.3,74.1,55.8,74.1,56.4z"/>
			<path class="st0" d="M93.9,40.9l2.4-5.7h5.2l-4.7,5.8L93.9,40.9z M98.2,66.3H95V43.6h3.2V66.3z"/>
			<path class="st0" d="M119.7,66.3h-7.6c-5.5,0-8.4-2.7-8.5-8.2v-0.5c0-5.2,2.6-7.8,7.7-7.8c2.9,0,4.6,0.7,5.3,2.1
				c-0.4-3.9-2.1-5.9-5.2-6c-0.9,0-1.8,0.3-2.7,0.9l-2.5-1.9c1.6-1.2,3.3-1.8,5.2-1.8c4.8,0.1,7.6,2.6,8.3,7.3V66.3z M106.7,57.9
				c0.2,3.4,1.9,5.1,5.1,5.1h4.7v-5.6c-0.5-3.2-2.3-4.8-5.2-4.8c-3.1,0.1-4.6,1.6-4.6,4.7C106.7,57.5,106.7,57.7,106.7,57.9z"/>
		</g>
	</g>
	<g>
		<g>
			<path class="st1" d="M19.2,7.2h2.7c1.7-0.5,3.3-0.8,4.7-0.8c5.6,0,8.6,3.5,9.1,10.5c0,0.7,0.1,1.4,0.1,2.1c0,7.3-2.7,11-8,11
				c-2.9,0-4.6-0.4-5.3-1.2V37h-3.2V7.2z M26.9,9.5c-1.4,0-2.9,0.3-4.5,0.9v12c0.5,3.2,2.3,4.8,5.2,4.8H28c3.2,0,4.8-2.9,4.8-8.7V17
				C32.5,12,30.6,9.5,26.9,9.5z"/>
			<path class="st1" d="M41.7,16.2c0,0.6-0.1,1.3-0.1,2.1c0,5.9,1.8,8.9,5.3,8.9c0.1,0,0.2,0,0.4,0c3.8-0.2,5.8-2.7,6.1-7.5h2.9
				c-0.5,7.1-3.8,10.7-9.7,10.7c-4.2-0.2-6.7-2.7-7.5-7.5c-0.3-1.9-0.5-3.6-0.5-5.1c0-2.2,0.3-4,1-5.5c1.6-3.6,4.2-5.4,7.8-5.4
				c0.3,0,0.6,0,0.9,0c4.1,0.3,6.4,3.5,7,9.5H41.7z M47.5,9.8h-0.3c-2.4,0-4.1,1.2-5.1,3.6h9.8C51.5,11.1,50.1,9.9,47.5,9.8z"/>
			<path class="st1" d="M61.3,29.9h-3.2V7.2h3.2v1.9C61.8,8,62.7,7.4,64,7.2c0.4-0.1,0.9-0.1,1.3-0.1c0.9,0,1.7,0.1,2.5,0.4
				l-1.3,2.6c-0.9-0.3-1.6-0.4-2-0.4c-0.6,0-1.1,0.1-1.5,0.4c-0.7,0.3-1.3,1.3-1.7,3V29.9z"/>
			<path class="st1" d="M74.2,29.9H71V0.2h3.2V29.9z"/>
			<path class="st1" d="M94.9,29.9h-7.6c-5.5,0-8.4-2.7-8.5-8.2v-0.5c0-5.2,2.6-7.8,7.7-7.8c2.9,0,4.6,0.7,5.3,2.1
				c-0.4-3.9-2.1-5.9-5.2-6c-0.9,0-1.8,0.3-2.7,0.9l-2.5-1.9c1.6-1.2,3.3-1.8,5.2-1.8c4.8,0.1,7.6,2.6,8.3,7.3V29.9z M81.9,21.5
				c0.2,3.4,1.9,5.1,5.1,5.1h4.7V21c-0.5-3.2-2.3-4.8-5.2-4.8c-3.1,0.1-4.6,1.6-4.6,4.7C81.9,21.1,81.9,21.3,81.9,21.5z"/>
		</g>
	</g>
	<g>
		<path class="st1" d="M8.8,31.2c-1.3,0-2.8,0.1-4.5,0.3c0.2-11.6,0.2-21,0.1-28.1C2.8,3.7,1.3,4,0.1,4.3L0,4.3
			c0.1-1.1,0.2-2,0.2-2.8l0.1-0.1C3,1,5.8,0.5,8.7,0l0,0C8.6,3,8.5,8.8,8.5,17.4C8.5,23.7,8.6,28.3,8.8,31.2z"/>
	</g>
</g>
</svg>
