<!-- Generator: Adobe Illustrator 20.1.0, SVG Export Plug-In  -->
<svg version="1.1"
	 xmlns="http://www.w3.org/2000/svg" xmlns:xlink="http://www.w3.org/1999/xlink" xmlns:a="http://ns.adobe.com/AdobeSVGViewerExtensions/3.0/"
	 x="0px" y="0px" width="474.7px" height="172.4px" viewBox="0 0 474.7 172.4"
	 style="overflow:scroll;enable-background:new 0 0 474.7 172.4;" xml:space="preserve">
<style type="text/css">
	.st0{opacity:0.1;fill:#00AEEF;}
	.st1{fill:#FFFFFF;}
	.st2{fill:#1C3F94;}
	.st3{fill:#B9D989;}
	.st4{fill:#8DC63F;}
</style>
<defs>
</defs>
<g>
	<path class="st0" d="M465.3,166.4c-0.1,2.7-2.3,4.8-5,4.7L5,156.4c-2.7-0.1-4.8-2.3-4.7-5L9.6,4.7C9.7,2,12-0.1,14.7,0l455.3,14.7
		c2.7,0.1,4.8,2.3,4.7,5L465.3,166.4z"/>
	<path class="st1" d="M465.3,167.5c0,2.7-2.2,4.9-4.9,4.9H4.9c-2.7,0-4.9-2.2-4.9-4.9v-152c0-2.7,2.2-4.9,4.9-4.9h455.5
		c2.7,0,4.9,2.2,4.9,4.9V167.5z"/>
</g>
<g>
	<path class="st2" d="M31.7,28.3H29V41h1.8v-5.3h0.8c3,0,4.6-1.3,4.6-3.7C36.2,29.6,34.7,28.3,31.7,28.3z M30.8,30.1h0.8
		c1.9,0,2.8,0.6,2.8,2c0,1.3-0.9,2-2.8,2h-0.8V30.1z"/>
	<path class="st2" d="M43.6,36.5c-0.1,1.8-0.9,2.8-2.3,2.9c0,0-0.1,0-0.1,0c-0.5,0-1.9,0-1.9-3.4c0-0.2,0-0.4,0-0.6h5.6l0-0.3
		c-0.3-2.6-1.3-4-3.1-4.1c-0.1,0-0.3,0-0.4,0c-1.6,0-2.7,0.8-3.4,2.4c-0.3,0.6-0.4,1.4-0.4,2.4c0,0.6,0.1,1.4,0.2,2.2
		c0.3,2.1,1.5,3.2,3.3,3.3h0h0c2.6,0,4-1.6,4.2-4.6l0-0.3h-1.7L43.6,36.5z M41.3,32.8h0.1c0.8,0,1.3,0.3,1.5,1h-3.3
		C40,33.1,40.6,32.8,41.3,32.8z"/>
	<path class="st2" d="M50,31c-0.8,0-1.6,0.3-2.3,0.8L47.4,32l1.4,1.1L49,33c0.3-0.2,0.6-0.3,1-0.3c0.9,0,1.5,0.5,1.7,1.4
		c-0.4-0.2-1-0.4-1.8-0.4c-2.2,0-3.4,1.2-3.4,3.5v0.2c0.1,2.4,1.3,3.6,3.8,3.6h3.4l0-6.8C53.3,32.2,52.1,31.1,50,31z M51.8,37.1v2.1
		h-1.7c-1.2,0-1.8-0.6-1.9-1.9c0-0.1,0-0.2,0-0.2c0-1.1,0.5-1.6,1.6-1.7C51,35.4,51.7,36,51.8,37.1z"/>
	<path class="st2" d="M57.9,31.2c-0.3,0-0.6,0.2-0.8,0.3v-0.3h-1.8V41h1.8l0-7.1c0.2-0.8,0.4-1,0.6-1.1c0.2-0.1,0.3-0.1,0.5-0.1
		c0.1,0,0.3,0,0.8,0.1l0.2,0.1l0.8-1.5l-0.3-0.1C59.1,31.2,58.5,31.1,57.9,31.2z"/>
	<rect x="61.4" y="28.3" class="st2" width="1.8" height="12.7"/>
	<path class="st2" d="M70.3,34.4c-0.9-0.3-1.6-0.5-2.2-0.6c-0.4-0.1-0.5-0.3-0.5-0.5l0-0.1c0-0.2,0.1-0.4,0.3-0.5
		c0.2-0.1,0.3-0.1,0.4-0.1c0.1,0,0.1,0,0.1,0l0.1,0c0.5,0.1,0.9,0.4,1,1l0,0.2h1.6l0-0.3c-0.1-1.5-0.9-2.4-2.3-2.6l-0.1,0
		c-0.8-0.1-1.5,0-2.1,0.4c-0.6,0.4-0.9,0.9-1,1.6c0,0.1,0,0.2,0,0.3c0,0.5,0.1,0.9,0.4,1.3c0.3,0.4,1,0.8,2,1
		c0.9,0.2,1.5,0.4,1.9,0.6c0.3,0.1,0.5,0.3,0.6,0.6c0.1,0.1,0.1,0.3,0.1,0.5c0,0.1,0,0.3,0,0.5c0,0.1,0,0.2-0.1,0.3
		c-0.3,1-0.9,1.6-1.8,1.6c-0.1,0-0.3,0-0.4,0c-0.9-0.2-1.3-0.9-1.3-2.2c0-0.1,0-0.4,0-0.7l0-0.3h-1.9l0,0.2c0,0.3,0,0.5,0,0.6
		c0,2.2,1,3.5,2.9,3.9c0.3,0,0.5,0.1,0.7,0.1c1.8,0,2.9-1,3.5-2.9l0.1-0.4c0.1-0.3,0.1-0.6,0.1-0.9c0-0.5-0.1-0.9-0.3-1.3
		C71.9,35.2,71.3,34.7,70.3,34.4z"/>
	<polygon class="st2" points="81.2,28.7 79.7,30.8 78,28.5 73.7,28.5 73.7,29.4 75.2,29.4 75.2,33.8 76.3,33.8 76.3,29.4 77.1,29.4 
		77.1,33.8 78.2,33.8 78.2,30.5 79.2,31.9 80.1,31.9 81.2,30.5 81.2,33.8 82.2,33.8 82.2,28.5 81.2,28.5 	"/>
	<path class="st2" d="M96,36.5c0,1.8-0.7,2.8-2.1,3h-0.1c-1.1,0-1.8-0.6-2-1.8c-0.1-0.5-0.1-1-0.1-1.5c0-0.8,0.1-1.5,0.4-2.1
		c0.3-0.8,0.8-1.2,1.4-1.2c0.1,0,0.2,0,0.3,0c0.7,0,1.2,0.4,1.7,1.1l0.2,0.3l1.3-1.2l-0.1-0.2c-0.7-1.1-1.7-1.7-3-1.7h-0.2
		c-1.6,0-2.8,0.8-3.3,2.4c-0.3,0.8-0.5,1.7-0.5,2.7c0,0.7,0.1,1.5,0.3,2.2c0.4,1.8,1.6,2.7,3.5,2.7c0.1,0,0.2,0,0.3,0
		c2.6-0.1,3.9-1.7,4-4.6l0-0.3l-1.8,0L96,36.5z"/>
	<path class="st2" d="M102.8,30.9c-2.4,0-3.7,1.7-3.9,5.1c0.1,3.5,1.4,5.2,3.9,5.2c2.5,0,3.8-1.8,3.9-5.3
		C106.5,32.6,105.2,30.9,102.8,30.9z M102.8,39.5c-1.4,0-2-1.1-2.1-3.4c0.1-2.2,0.8-3.3,2.1-3.3c1.3,0,2,1.1,2.1,3.3
		C104.8,38.3,104.2,39.5,102.8,39.5z"/>
	<path class="st2" d="M111.8,31.1c-0.8,0-1.5,0.2-1.9,0.5v-0.4h-1.8V41h1.8l0-6.5c0.2-1.2,0.8-1.8,1.9-1.8l0.1,0
		c1,0.1,1.5,1,1.5,2.9c0,0.1,0,0.3,0,0.4V41h1.8v-5.1c0-0.1,0-0.3,0-0.4C115.1,32.6,114,31.1,111.8,31.1z"/>
	<polygon class="st2" points="119.4,29.2 117.6,29.2 117.6,31.2 116.2,31.2 116.2,33 117.6,33 117.6,41 119.4,41 119.4,33 120.9,33 
		120.9,31.2 119.4,31.2 	"/>
	<path class="st2" d="M123,27.8c-0.2,0.2-0.4,0.5-0.4,0.8c0,0.3,0.1,0.6,0.4,0.8c0.2,0.2,0.5,0.4,0.9,0.4c0.4,0,0.6-0.1,0.9-0.4
		c0.2-0.2,0.3-0.5,0.3-0.8c0-0.3-0.1-0.6-0.3-0.8C124.3,27.3,123.5,27.3,123,27.8z"/>
	<rect x="123" y="31.2" class="st2" width="1.8" height="9.8"/>
	<path class="st2" d="M133.4,36.5c-0.1,1.8-0.9,2.8-2.3,2.9c0,0-0.1,0-0.1,0c-0.5,0-1.9,0-1.9-3.4c0-0.2,0-0.4,0-0.6h5.6l0-0.3
		c-0.3-2.6-1.3-4-3.1-4.1c-0.1,0-0.3,0-0.4,0c-1.6,0-2.7,0.8-3.4,2.4c-0.3,0.6-0.4,1.4-0.4,2.4c0,0.6,0.1,1.4,0.2,2.2
		c0.3,2.1,1.5,3.2,3.3,3.3h0h0c2.6,0,4-1.6,4.2-4.6l0-0.3h-1.7L133.4,36.5z M131.1,32.8h0.1c0.8,0,1.3,0.3,1.5,1h-3.3
		C129.8,33.1,130.3,32.8,131.1,32.8z"/>
	<path class="st2" d="M140.2,31.1c-0.8,0-1.5,0.2-1.9,0.5v-0.4h-1.8V41h1.8l0-6.5c0.2-1.2,0.8-1.8,1.9-1.8l0.1,0
		c1,0.1,1.5,1,1.5,2.9c0,0.1,0,0.3,0,0.4V41h1.8v-5.1c0-0.1,0-0.3,0-0.4C143.5,32.6,142.4,31.1,140.2,31.1z"/>
	<path class="st2" d="M151.3,36.5c-0.1,1.8-0.9,2.8-2.3,2.9c0,0-0.1,0-0.1,0c-0.5,0-1.9,0-1.9-3.4c0-0.2,0-0.4,0-0.6h5.6l0-0.3
		c-0.3-2.6-1.3-4-3.1-4.1c-0.1,0-0.3,0-0.4,0c-1.6,0-2.7,0.8-3.4,2.4c-0.3,0.6-0.4,1.4-0.4,2.4c0,0.6,0.1,1.4,0.2,2.2
		c0.3,2.1,1.5,3.2,3.3,3.3h0h0c2.6,0,4-1.6,4.2-4.6l0-0.3h-1.7L151.3,36.5z M149,32.8h0.1c0.8,0,1.3,0.3,1.5,1h-3.3
		C147.6,33.1,148.2,32.8,149,32.8z"/>
	<path class="st2" d="M155.3,32.3c-0.4,0-0.8,0.1-1.1,0.4c-0.3,0.3-0.4,0.6-0.4,1c0,0.4,0.1,0.7,0.4,1c0.3,0.3,0.6,0.4,1.1,0.4
		c0.4,0,0.8-0.1,1.1-0.4c0.3-0.3,0.4-0.6,0.4-1c0-0.4-0.1-0.7-0.4-1C156,32.4,155.7,32.3,155.3,32.3z"/>
	<path class="st2" d="M155.3,38.1c-0.4,0-0.8,0.1-1.1,0.4c-0.3,0.3-0.4,0.6-0.4,1c0,0.4,0.1,0.8,0.4,1c0.3,0.3,0.6,0.4,1.1,0.4
		c0.4,0,0.8-0.1,1.1-0.4c0.3-0.3,0.4-0.6,0.4-1c0-0.4-0.1-0.7-0.4-1C156,38.2,155.7,38.1,155.3,38.1z"/>
	<path class="st2" d="M161.5,28.3h-1.1l-3.1,5.7h2.9v1.9h1.3V34h1v-1.3h-1V28.3z M159.4,32.8l0.9-1.6v1.6H159.4z"/>
	<path class="st2" d="M163.3,34.2c-0.2,0.2-0.3,0.4-0.3,0.7c0,0.3,0.1,0.5,0.2,0.7c0,0-0.1,0.1-0.2,0.2l-0.1,0.1v0.3l0.7,0.7
		l0.2-0.2c0.5-0.5,0.7-0.8,0.9-1c0.1-0.3,0.2-0.5,0.2-0.7c0-0.2-0.1-0.5-0.3-0.7C164.3,33.8,163.7,33.8,163.3,34.2z"/>
	<path class="st2" d="M170.4,32.2c-0.1-1-1.2-1.6-3.4-1.7l0.3-0.9h2.3l0-1.2h-3.2l-0.9,2.8l0.9,0.5l0.1,0c2.3,0.1,2.6,0.5,2.7,0.8
		c0,0.1,0,0.2,0,0.3c0,0.5-0.2,0.9-0.6,1.3c-0.3,0.4-0.7,0.6-1,0.6c0,0-0.1,0-0.2,0c-0.2,0-0.5-0.3-0.8-2l0-0.3l-1.3,0.2l0,0.3
		c0.4,2,1,3.1,2,3.1h0.1c0.8,0,1.6-0.4,2.2-1.2c0.5-0.7,0.8-1.4,0.8-2.2C170.5,32.5,170.5,32.3,170.4,32.2z"/>
</g>
<g>
	<g>
		<circle class="st3" cx="39.8" cy="148.6" r="2.5"/>
		<circle class="st3" cx="39.8" cy="117.7" r="2.5"/>
		<circle class="st3" cx="39.8" cy="65.6" r="2.5"/>
	</g>
	<g>
		<g>
			<polygon class="st4" points="49.8,62.5 49.8,71.6 51.6,71.6 51.6,58 48.2,62.5 			"/>
			<path class="st4" d="M56.6,68.6c-0.4,0-0.8,0.1-1.1,0.4c-0.3,0.3-0.4,0.6-0.4,1c0,0.4,0.1,0.8,0.4,1.1c0,0,0,0,0,0
				c-0.1,0.1-0.2,0.2-0.4,0.5l-0.1,0.1V72l1,1.1l0.2-0.2c0.8-0.8,1.3-1.4,1.5-1.8c0.2-0.4,0.4-0.8,0.4-1.1c0-0.4-0.1-0.7-0.4-1
				C57.4,68.7,57,68.6,56.6,68.6z"/>
			<path class="st4" d="M63.7,58.6c-3.2,0-4.9,2.2-5,6.6c0.1,4.3,1.8,6.6,5,6.6c3.2,0,4.9-2.2,5-6.6C68.6,60.9,66.9,58.6,63.7,58.6z
				 M63.7,60.4c2,0,3.1,1.6,3.1,4.8c-0.1,3.2-1.1,4.8-3.1,4.8c-2,0-3.1-1.6-3.1-4.8C60.6,62,61.7,60.4,63.7,60.4z"/>
			<path class="st4" d="M74.6,58.6c-3.2,0-4.9,2.2-5,6.6c0.1,4.3,1.8,6.6,5,6.6c3.2,0,4.9-2.2,5-6.6C79.4,60.9,77.8,58.6,74.6,58.6z
				 M74.6,60.4c2,0,3.1,1.6,3.1,4.8c-0.1,3.2-1.1,4.8-3.1,4.8c-2,0-3.1-1.6-3.1-4.8C71.5,62,72.5,60.4,74.6,60.4z"/>
			<path class="st4" d="M85.4,58.6c-3.2,0-4.9,2.2-5,6.6c0.1,4.3,1.8,6.6,5,6.6c3.2,0,4.9-2.2,5-6.6C90.3,60.9,88.6,58.6,85.4,58.6z
				 M85.4,60.4c2,0,3.1,1.6,3.1,4.8c-0.1,3.2-1.1,4.8-3.1,4.8c-2,0-3.1-1.6-3.1-4.8C82.3,62,83.4,60.4,85.4,60.4z"/>
			<path class="st4" d="M107.5,61.7c-0.9,0-1.7,0.3-2.2,0.8c-0.4-0.4-1-0.7-1.9-0.8c-0.9,0-1.5,0.2-1.9,0.5v-0.4h-1.8v9.8h1.8l0-6.5
				c0.2-1.1,0.7-1.7,1.6-1.7h0.1c0.9,0,1.3,0.5,1.3,1.4v6.8h1.8v-7.4c0.4-0.7,0.9-0.9,1.7-0.7c0.7,0.2,1.1,1.1,1.1,2.9
				c0,0.1,0,0.2,0,0.3v4.9h1.8v-5.1c0-0.2,0-0.4,0-0.5C110.8,63.1,109.7,61.7,107.5,61.7z"/>
			<path class="st4" d="M113.4,58.4c-0.2,0.2-0.4,0.5-0.4,0.8c0,0.3,0.1,0.6,0.4,0.8c0.2,0.2,0.5,0.4,0.9,0.4c0.4,0,0.6-0.1,0.9-0.4
				c0.2-0.2,0.3-0.5,0.3-0.8c0-0.3-0.1-0.6-0.3-0.8C114.7,57.9,113.8,57.9,113.4,58.4z"/>
			<rect x="113.3" y="61.8" class="st4" width="1.8" height="9.8"/>
			<rect x="118.1" y="58.9" class="st4" width="1.8" height="12.7"/>
			<rect x="122" y="58.9" class="st4" width="1.8" height="12.7"/>
			<path class="st4" d="M129,61.5c-2.4,0-3.7,1.7-3.9,5.1c0.1,3.5,1.4,5.2,3.9,5.2c2.5,0,3.8-1.8,3.9-5.3
				C132.7,63.2,131.4,61.5,129,61.5z M129,70.1c-1.4,0-2-1.1-2.1-3.4c0.1-2.2,0.8-3.3,2.1-3.3c1.3,0,2,1.1,2.1,3.3
				C131,68.9,130.3,70.1,129,70.1z"/>
			<path class="st4" d="M137.7,61.7c-0.8,0-1.5,0.2-1.9,0.5v-0.4h-1.8v9.8h1.8l0-6.5c0.2-1.2,0.8-1.8,1.9-1.8l0.1,0
				c1,0.1,1.5,1,1.5,2.9c0,0.1,0,0.3,0,0.4v4.9h1.8v-5.1c0-0.1,0-0.3,0-0.4C141,63.2,139.9,61.7,137.7,61.7z"/>
			<path class="st4" d="M148.4,67.1c-0.1,1.8-0.9,2.8-2.3,2.9c0,0-0.1,0-0.1,0c-0.5,0-1.9,0-1.9-3.4c0-0.2,0-0.4,0-0.6h5.6l0-0.3
				c-0.3-2.6-1.3-4-3.1-4.1c-0.1,0-0.3,0-0.4,0c-1.6,0-2.7,0.8-3.4,2.4c-0.3,0.6-0.4,1.4-0.4,2.4c0,0.6,0.1,1.4,0.2,2.2
				c0.3,2.1,1.5,3.2,3.3,3.3h0h0c2.6,0,4-1.6,4.2-4.6l0-0.3h-1.7L148.4,67.1z M146.1,63.4h0.1c0.8,0,1.3,0.3,1.5,1h-3.3
				C144.8,63.7,145.4,63.4,146.1,63.4z"/>
			<path class="st4" d="M156,65c-0.9-0.3-1.6-0.5-2.2-0.6c-0.4-0.1-0.5-0.3-0.5-0.5l0-0.1c0-0.2,0.1-0.4,0.3-0.5
				c0.2-0.1,0.3-0.1,0.4-0.1c0.1,0,0.1,0,0.1,0l0.1,0c0.5,0.1,0.9,0.4,1,1l0,0.2h1.6l0-0.3c-0.1-1.5-0.9-2.4-2.3-2.6l-0.1,0
				c-0.8-0.1-1.5,0-2.1,0.4c-0.6,0.4-0.9,0.9-1,1.6c0,0.1,0,0.2,0,0.3c0,0.5,0.1,0.9,0.4,1.3c0.3,0.4,1,0.8,2,1
				c0.9,0.2,1.5,0.4,1.9,0.6c0.3,0.1,0.5,0.3,0.6,0.6c0.1,0.1,0.1,0.3,0.1,0.5c0,0.1,0,0.3,0,0.5c0,0.1,0,0.2-0.1,0.3
				c-0.3,1-0.9,1.6-1.8,1.6c-0.1,0-0.3,0-0.4,0c-0.9-0.2-1.3-0.9-1.3-2.2c0-0.1,0-0.4,0-0.7l0-0.3H151l0,0.2c0,0.3,0,0.5,0,0.6
				c0,2.2,1,3.5,2.9,3.9c0.3,0,0.5,0.1,0.7,0.1c1.8,0,2.9-1,3.5-2.9l0.1-0.4c0.1-0.3,0.1-0.6,0.1-0.9c0-0.5-0.1-0.9-0.3-1.3
				C157.6,65.7,157,65.3,156,65z"/>
			<path class="st4" d="M172.8,62.2c-0.4-0.3-1.1-0.5-1.9-0.5c-2.3,0-3.5,1.6-3.5,4.8c0,0.3,0,0.6,0,0.9c0.1,2.8,1,4.3,2.5,4.3
				c0.1,0,0.1,0,0.2,0h4.6V58.9h-1.8V62.2z M170.8,63.4h0.1c1.1,0,1.7,0.6,1.9,1.7l0,4.8h-2.5c-0.8,0-1.2-0.9-1.3-2.6
				c0-0.2,0-0.4,0-0.6C169.1,63.4,170.4,63.4,170.8,63.4z"/>
			<path class="st4" d="M182.3,67.1c-0.1,1.8-0.9,2.8-2.3,2.9c0,0-0.1,0-0.1,0c-0.5,0-1.9,0-1.9-3.4c0-0.2,0-0.4,0-0.6h5.6l0-0.3
				c-0.3-2.6-1.3-4-3.1-4.1c-0.1,0-0.3,0-0.4,0c-1.6,0-2.7,0.8-3.4,2.4c-0.3,0.6-0.4,1.4-0.4,2.4c0,0.6,0.1,1.4,0.2,2.2
				c0.3,2.1,1.5,3.2,3.3,3.3h0h0c2.6,0,4-1.6,4.2-4.6l0-0.3h-1.7L182.3,67.1z M180,63.4h0.1c0.8,0,1.3,0.3,1.5,1h-3.3
				C178.7,63.7,179.2,63.4,180,63.4z"/>
			<path class="st4" d="M200.1,67.2c0,1.8-0.8,2.7-2.5,2.7c-1.7,0-2.5-0.9-2.5-2.7v-8.3h-1.8v8.5c0,2.8,1.5,4.2,4.3,4.2h0h0
				c2.9,0,4.3-1.4,4.3-4.2v-8.5h-1.8V67.2z"/>
			<polygon class="st4" points="203.9,71.6 205.7,71.6 205.7,66 209.1,66 209.1,64.2 205.7,64.2 205.7,60.7 210.5,60.7 210.5,58.9 
				203.9,58.9 			"/>
			<path class="st4" d="M218.7,66l0,0.2c-0.1,2.4-1.1,3.7-3.1,3.8c-1.8-0.1-2.7-1.7-2.8-4.8v-0.1c0-3.1,1-4.7,3.1-4.7
				c1.1,0,1.8,0.5,2.1,1.6l0,0.2l1.7,0l-0.1-0.3c-0.4-2.2-1.7-3.3-3.7-3.3c-3.3,0.1-4.9,2.3-4.9,6.6c0,4.3,1.6,6.5,4.6,6.5h0h0
				c3.1-0.2,4.8-2,4.9-5.5l0-0.3H218.7z"/>
		</g>
		<path class="st2" d="M236.2,71.4H232c0,0-0.1,0-0.1,0c-1.3,0-2-1.3-2.1-3.9c0-0.3,0-0.6,0-0.9c0-3,1-4.4,3.1-4.4
			c1.1,0,1.9,0.3,2.5,0.9v-3.8h0.9V71.4z M230.5,67.4c0,2.1,0.6,3.1,1.8,3.1h3.1l0-5.4c-0.3-1.5-1.1-2.2-2.4-2.2h-0.1
			c-1.5,0-2.2,1.3-2.2,3.8C230.5,67,230.5,67.2,230.5,67.4z"/>
		<path class="st2" d="M239.1,65.6c0,0.4,0,0.7,0,1.1c0,2.7,0.8,4.1,2.4,4.1c0.1,0,0.1,0,0.2,0c1.7-0.2,2.6-1.3,2.7-3.3h0.7
			c-0.2,2.7-1.5,4.1-3.9,4.1c-1.7-0.1-2.6-1.1-3-3c-0.1-0.8-0.2-1.5-0.2-2.1c0-0.9,0.1-1.7,0.4-2.2c0.6-1.4,1.7-2.2,3.1-2.2
			c0.1,0,0.2,0,0.4,0c1.6,0.1,2.5,1.3,2.7,3.6H239.1z M241.9,62.9c-0.1,0-0.1,0-0.2,0c-0.1,0-0.2,0-0.3,0c-1,0-1.7,0.7-2.2,2h4.7
			C243.7,63.6,243,63,241.9,62.9z"/>
		<path class="st2" d="M257.8,63c-0.8,0-1.4,0.5-1.8,1.5c-0.3,0.7-0.4,1.4-0.4,2.3c0,0.5,0,1,0.1,1.6c0.2,1.5,1.1,2.3,2.5,2.3h0.1
			c1.7-0.2,2.6-1.3,2.6-3.3l0.9,0c-0.1,2.6-1.3,4-3.7,4.1c-0.1,0-0.2,0-0.2,0c-1.7,0-2.7-0.8-3.1-2.4c-0.2-0.8-0.3-1.5-0.3-2.2
			c0-0.9,0.2-1.8,0.5-2.6c0.5-1.5,1.5-2.2,3-2.2h0.2c1.1,0,2,0.5,2.6,1.4l-0.6,0.6c-0.5-0.7-1.1-1.1-2-1.1
			C258.1,63,257.9,63,257.8,63z"/>
		<path class="st2" d="M264.3,65.6c0,0.4,0,0.7,0,1.1c0,2.7,0.8,4.1,2.4,4.1c0.1,0,0.1,0,0.2,0c1.7-0.2,2.6-1.3,2.7-3.3h0.7
			c-0.2,2.7-1.5,4.1-3.9,4.1c-1.7-0.1-2.6-1.1-3-3c-0.1-0.8-0.2-1.5-0.2-2.1c0-0.9,0.1-1.7,0.4-2.2c0.6-1.4,1.7-2.2,3.1-2.2
			c0.1,0,0.2,0,0.4,0c1.6,0.1,2.5,1.3,2.7,3.6H264.3z M267,62.9c-0.1,0-0.1,0-0.2,0c-0.1,0-0.2,0-0.3,0c-1,0-1.7,0.7-2.2,2h4.7
			C268.8,63.6,268.2,63,267,62.9z"/>
		<path class="st2" d="M272.1,62.2h0.9c0.7-0.2,1.4-0.3,1.9-0.3c2.2,0,3.4,1.4,3.6,4.2c0,0.3,0,0.6,0,0.9c0,3-1,4.4-3.1,4.4
			c-1.1,0-1.9-0.3-2.4-0.9v3.8h-0.9V62.2z M275.2,62.8c-0.6,0-1.3,0.1-2.1,0.4v5.2c0.3,1.5,1.1,2.2,2.4,2.2h0.1
			c1.5,0,2.2-1.3,2.2-3.8c0-0.2,0-0.4,0-0.6C277.8,63.9,276.9,62.8,275.2,62.8z"/>
		<path class="st2" d="M286.6,71.4h-3c-2.2,0-3.3-1.1-3.4-3.2v-0.2c0-2.1,1-3.1,3-3.1c1.1,0,1.9,0.3,2.5,0.9l0-0.6
			c-0.2-1.5-1-2.3-2.4-2.3c-0.4,0-0.8,0.1-1.1,0.3l-0.7-0.6c0.5-0.4,1.1-0.6,1.9-0.6c1.9,0,3,1,3.3,2.9V71.4z M281.1,68.1
			c0.1,1.6,0.9,2.3,2.4,2.3h2.2v-2.6c-0.2-1.5-1.1-2.2-2.4-2.2c-1.4,0-2.2,0.8-2.2,2.2C281.1,67.9,281.1,68,281.1,68.1z"/>
		<path class="st2" d="M292.6,64c-0.2-0.7-0.6-1.1-1.4-1.2l-0.1,0c-0.1,0-0.2,0-0.2,0c-0.2,0-0.5,0.1-0.7,0.2
			c-0.3,0.2-0.5,0.4-0.6,0.8c0,0.1,0,0.1,0,0.2c0,0.5,0.3,0.8,0.8,1c0.6,0.2,1.4,0.4,2.2,0.6c0.9,0.3,1.4,0.7,1.7,1.2
			c0.2,0.3,0.2,0.7,0.2,1.1c0,0.3,0,0.5-0.1,0.8l-0.1,0.3c-0.5,1.7-1.5,2.6-3.1,2.6c-0.2,0-0.4,0-0.7-0.1c-1.7-0.3-2.6-1.5-2.6-3.5
			c0-0.1,0-0.3,0-0.4h1c0,0.2,0,0.3,0,0.5c0,1.6,0.6,2.5,1.8,2.7c0.2,0,0.3,0,0.5,0c1.1,0,1.9-0.6,2.3-1.9c0-0.1,0.1-0.3,0.1-0.4
			c0-0.2,0.1-0.4,0.1-0.6c0-0.3,0-0.5-0.1-0.7c-0.2-0.4-0.4-0.6-0.8-0.8c-0.4-0.2-1-0.4-2-0.6c-0.9-0.2-1.5-0.5-1.8-0.9
			c-0.2-0.3-0.3-0.6-0.3-1c0-0.1,0-0.2,0-0.3c0.1-0.5,0.4-1,0.9-1.3c0.4-0.3,0.8-0.4,1.3-0.4c0.1,0,0.3,0,0.5,0l0.1,0
			c1.2,0.2,1.9,0.9,2,2.1H292.6z"/>
		<path class="st2" d="M304.5,62.2h0.9c0.7-0.2,1.4-0.3,1.9-0.3c2.2,0,3.4,1.4,3.6,4.2c0,0.3,0,0.6,0,0.9c0,3-1,4.4-3.1,4.4
			c-1.1,0-1.9-0.3-2.4-0.9v3.8h-0.9V62.2z M307.6,62.8c-0.6,0-1.3,0.1-2.1,0.4v5.2c0.3,1.5,1.1,2.2,2.4,2.2h0.1
			c1.5,0,2.2-1.3,2.2-3.8c0-0.2,0-0.4,0-0.6C310.1,63.9,309.2,62.8,307.6,62.8z"/>
		<path class="st2" d="M313.7,71.4h-0.9v-9.2h0.9v0.4c0.2-0.2,0.5-0.4,1-0.5c0.2,0,0.3-0.1,0.5-0.1c0.3,0,0.7,0.1,1.2,0.2L316,63
			c-0.3-0.1-0.5-0.1-0.7-0.1c-0.3,0-0.5,0.1-0.8,0.2c-0.4,0.2-0.6,0.6-0.8,1.4V71.4z"/>
		<path class="st2" d="M320.6,61.9c2.2,0,3.3,1.6,3.5,4.8c-0.1,3.3-1.3,4.9-3.5,4.9c-2.3,0-3.5-1.6-3.5-4.9
			C317.3,63.5,318.4,61.9,320.6,61.9z M323.2,66.7c-0.1-2.6-1-3.8-2.6-3.8c-1.6,0-2.5,1.3-2.6,3.8c0.1,2.7,0.9,4,2.6,4
			C322.3,70.7,323.1,69.3,323.2,66.7z"/>
		<path class="st2" d="M325.9,59.2h0.9V63c0.5-0.6,1.3-0.9,2.4-0.9c2.1,0,3.1,1.5,3.1,4.4c0,0.3,0,0.6,0,0.9
			c-0.1,2.6-0.8,3.9-2.1,3.9c0,0-0.1,0-0.1,0h-4.2V59.2z M331.6,67.4c0-0.2,0-0.4,0-0.6c0-2.6-0.7-3.8-2.2-3.8h-0.1
			c-1.4,0-2.2,0.7-2.4,2.2l0,5.4h3.1C330.9,70.5,331.5,69.5,331.6,67.4z"/>
		<path class="st2" d="M336.2,58.6c0.1,0.2,0.2,0.3,0.2,0.6c0,0.2-0.1,0.4-0.2,0.5c-0.1,0.2-0.3,0.2-0.6,0.2c-0.2,0-0.4-0.1-0.6-0.2
			c-0.2-0.2-0.2-0.3-0.2-0.5c0-0.2,0.1-0.4,0.2-0.6c0.2-0.2,0.3-0.2,0.6-0.2C335.9,58.4,336.1,58.4,336.2,58.6z M336.1,71.4h-0.9
			v-9.2h0.9V71.4z"/>
		<path class="st2" d="M342.1,61.9c2.2,0,3.3,1.6,3.5,4.8c-0.1,3.3-1.3,4.9-3.5,4.9c-2.3,0-3.5-1.6-3.5-4.9
			C338.8,63.5,339.9,61.9,342.1,61.9z M344.7,66.7c-0.1-2.6-1-3.8-2.6-3.8c-1.6,0-2.5,1.3-2.6,3.8c0.1,2.7,0.9,4,2.6,4
			C343.8,70.7,344.6,69.3,344.7,66.7z M341.3,60.7l0.8-2h1.6l-1.7,2L341.3,60.7z"/>
		<path class="st2" d="M348.7,62.2h1.5v0.9h-1.5v8.3h-0.9v-8.3h-1.5v-0.9h1.5v-2.1h0.9V62.2z"/>
		<path class="st2" d="M353.5,58.6c0.1,0.2,0.2,0.3,0.2,0.6c0,0.2-0.1,0.4-0.2,0.5c-0.1,0.2-0.3,0.2-0.6,0.2c-0.2,0-0.4-0.1-0.6-0.2
			c-0.2-0.2-0.2-0.3-0.2-0.5c0-0.2,0.1-0.4,0.2-0.6c0.2-0.2,0.3-0.2,0.6-0.2C353.1,58.4,353.3,58.4,353.5,58.6z M353.3,71.4h-0.9
			v-9.2h0.9V71.4z"/>
		<path class="st2" d="M359.2,63c-0.8,0-1.4,0.5-1.8,1.5c-0.3,0.7-0.4,1.4-0.4,2.3c0,0.5,0,1,0.1,1.6c0.2,1.5,1.1,2.3,2.5,2.3h0.1
			c1.7-0.2,2.6-1.3,2.6-3.3l0.9,0c-0.1,2.6-1.3,4-3.7,4.1c-0.1,0-0.2,0-0.2,0c-1.7,0-2.7-0.8-3.1-2.4c-0.2-0.8-0.3-1.5-0.3-2.2
			c0-0.9,0.2-1.8,0.5-2.6c0.5-1.5,1.5-2.2,3-2.2h0.2c1.1,0,2,0.5,2.6,1.4l-0.6,0.6c-0.5-0.7-1.1-1.1-2-1.1
			C359.5,63,359.3,63,359.2,63z"/>
		<path class="st2" d="M370.9,71.4h-3c-2.2,0-3.3-1.1-3.4-3.2v-0.2c0-2.1,1-3.1,3-3.1c1.1,0,1.9,0.3,2.5,0.9l0-0.6
			c-0.2-1.5-1-2.3-2.4-2.3c-0.4,0-0.8,0.1-1.1,0.3l-0.7-0.6c0.5-0.4,1.1-0.6,1.9-0.6c1.9,0,3,1,3.3,2.9V71.4z M365.4,68.1
			c0.1,1.6,0.9,2.3,2.4,2.3h2.2v-2.6c-0.2-1.5-1.1-2.2-2.4-2.2c-1.4,0-2.2,0.8-2.2,2.2C365.4,67.9,365.4,68,365.4,68.1z"/>
		<path class="st2" d="M376.9,64c-0.2-0.7-0.6-1.1-1.4-1.2l-0.1,0c-0.1,0-0.2,0-0.2,0c-0.2,0-0.5,0.1-0.7,0.2
			c-0.3,0.2-0.5,0.4-0.6,0.8c0,0.1,0,0.1,0,0.2c0,0.5,0.3,0.8,0.8,1c0.6,0.2,1.4,0.4,2.2,0.6c0.9,0.3,1.4,0.7,1.7,1.2
			c0.2,0.3,0.2,0.7,0.2,1.1c0,0.3,0,0.5-0.1,0.8l-0.1,0.3c-0.5,1.7-1.5,2.6-3.1,2.6c-0.2,0-0.4,0-0.7-0.1c-1.7-0.3-2.6-1.5-2.6-3.5
			c0-0.1,0-0.3,0-0.4h1c0,0.2,0,0.3,0,0.5c0,1.6,0.6,2.5,1.8,2.7c0.2,0,0.3,0,0.5,0c1.1,0,1.9-0.6,2.3-1.9c0-0.1,0.1-0.3,0.1-0.4
			c0-0.2,0.1-0.4,0.1-0.6c0-0.3,0-0.5-0.1-0.7c-0.2-0.4-0.4-0.6-0.8-0.8c-0.4-0.2-1-0.4-2-0.6c-0.9-0.2-1.5-0.5-1.8-0.9
			c-0.2-0.3-0.3-0.6-0.3-1c0-0.1,0-0.2,0-0.3c0.1-0.5,0.4-1,0.9-1.3c0.4-0.3,0.8-0.4,1.3-0.4c0.1,0,0.3,0,0.5,0l0.1,0
			c1.2,0.2,1.9,0.9,2,2.1H376.9z"/>
		<path class="st2" d="M389.5,65.6c0,0.4,0,0.7,0,1.1c0,2.7,0.8,4.1,2.4,4.1c0.1,0,0.1,0,0.2,0c1.7-0.2,2.6-1.3,2.7-3.3h0.7
			c-0.2,2.7-1.5,4.1-3.9,4.1c-1.7-0.1-2.6-1.1-3-3c-0.1-0.8-0.2-1.5-0.2-2.1c0-0.9,0.1-1.7,0.4-2.2c0.6-1.4,1.7-2.2,3.1-2.2
			c0.1,0,0.2,0,0.4,0c1.6,0.1,2.5,1.3,2.7,3.6H389.5z M392.2,62.9c-0.1,0-0.1,0-0.2,0c-0.1,0-0.2,0-0.3,0c-1,0-1.7,0.7-2.2,2h4.7
			C394,63.6,393.4,63,392.2,62.9z"/>
		<path class="st2" d="M398,71.4h-0.9v-9.2h0.9V63c0.5-0.6,1.3-0.9,2.4-0.9h0c1.9,0,2.9,1.4,2.9,4.1c0,0.1,0,0.3,0,0.4v4.8h-0.9
			v-4.6c0-0.2,0-0.3,0-0.4c0-2.1-0.6-3.2-1.9-3.4h-0.1c-1.4,0-2.2,0.7-2.5,2.2V71.4z"/>
		<path class="st2" d="M416.4,63c-0.8,0-1.4,0.5-1.8,1.5c-0.3,0.7-0.4,1.4-0.4,2.3c0,0.5,0,1,0.1,1.6c0.2,1.5,1.1,2.3,2.5,2.3h0.1
			c1.7-0.2,2.6-1.3,2.6-3.3l0.9,0c-0.1,2.6-1.3,4-3.7,4.1c-0.1,0-0.2,0-0.2,0c-1.7,0-2.7-0.8-3.1-2.4c-0.2-0.8-0.3-1.5-0.3-2.2
			c0-0.9,0.2-1.8,0.5-2.6c0.5-1.5,1.5-2.2,3-2.2h0.2c1.1,0,2,0.5,2.6,1.4l-0.6,0.6c-0.5-0.7-1.1-1.1-2-1.1
			C416.6,63,416.5,63,416.4,63z"/>
		<path class="st2" d="M428.1,71.4h-3c-2.2,0-3.3-1.1-3.4-3.2v-0.2c0-2.1,1-3.1,3-3.1c1.1,0,1.9,0.3,2.5,0.9l0-0.6
			c-0.2-1.5-1-2.3-2.4-2.3c-0.4,0-0.8,0.1-1.1,0.3l-0.7-0.6c0.5-0.4,1.1-0.6,1.9-0.6c1.9,0,3,1,3.3,2.9V71.4z M422.6,68.1
			c0.1,1.6,0.9,2.3,2.4,2.3h2.2v-2.6c-0.2-1.5-1.1-2.2-2.4-2.2c-1.4,0-2.2,0.8-2.2,2.2C422.6,67.9,422.6,68,422.6,68.1z"/>
		<path class="st2" d="M436.4,71.4h-4.2c0,0-0.1,0-0.1,0c-1.3,0-2-1.3-2.1-3.9c0-0.3,0-0.6,0-0.9c0-3,1-4.4,3.1-4.4
			c1.1,0,1.9,0.3,2.5,0.9v-3.8h0.9V71.4z M430.7,67.4c0,2.1,0.6,3.1,1.8,3.1h3.1l0-5.4c-0.3-1.5-1.1-2.2-2.4-2.2h-0.1
			c-1.5,0-2.2,1.3-2.2,3.8C430.7,67,430.7,67.2,430.7,67.4z"/>
		<path class="st2" d="M444.7,71.4h-3c-2.2,0-3.3-1.1-3.4-3.2v-0.2c0-2.1,1-3.1,3-3.1c1.1,0,1.9,0.3,2.5,0.9l0-0.6
			c-0.2-1.5-1-2.3-2.4-2.3c-0.4,0-0.8,0.1-1.1,0.3l-0.7-0.6c0.5-0.4,1.1-0.6,1.9-0.6c1.9,0,3,1,3.3,2.9V71.4z M439.3,68.1
			c0.1,1.6,0.9,2.3,2.4,2.3h2.2v-2.6c-0.2-1.5-1.1-2.2-2.4-2.2c-1.4,0-2.2,0.8-2.2,2.2C439.2,67.9,439.2,68,439.3,68.1z"/>
		<path class="st2" d="M49.1,85.1c-0.8,0-1.4,0.5-1.8,1.5c-0.3,0.7-0.4,1.4-0.4,2.3c0,0.5,0,1,0.1,1.6c0.2,1.5,1.1,2.3,2.5,2.3h0.1
			c1.7-0.2,2.6-1.3,2.6-3.3l0.9,0c-0.1,2.6-1.3,4-3.7,4.1c-0.1,0-0.2,0-0.2,0c-1.7,0-2.7-0.8-3.1-2.4c-0.2-0.8-0.3-1.5-0.3-2.2
			c0-0.9,0.2-1.8,0.5-2.6c0.5-1.5,1.5-2.2,3-2.2h0.2c1.1,0,2,0.5,2.6,1.4l-0.6,0.6c-0.5-0.7-1.1-1.1-2-1.1
			C49.4,85.1,49.2,85.1,49.1,85.1z"/>
		<path class="st2" d="M60.9,93.5h-3c-2.2,0-3.3-1.1-3.4-3.2V90c0-2.1,1-3.1,3-3.1c1.1,0,1.9,0.3,2.5,0.9l0-0.6
			c-0.2-1.5-1-2.3-2.4-2.3c-0.4,0-0.8,0.1-1.1,0.3l-0.7-0.6c0.5-0.4,1.1-0.6,1.9-0.6c1.9,0,3,1,3.3,2.9V93.5z M55.5,90.2
			c0.1,1.6,0.9,2.3,2.4,2.3h2.2v-2.6c-0.2-1.5-1.1-2.2-2.4-2.2c-1.4,0-2.2,0.8-2.2,2.2C55.5,90,55.5,90.1,55.5,90.2z M57,82.8l0.8-2
			h1.6l-1.7,2L57,82.8z"/>
		<path class="st2" d="M62.8,84.3h0.9c0.7-0.2,1.4-0.3,1.9-0.3c2.2,0,3.4,1.4,3.6,4.2c0,0.3,0,0.6,0,0.9c0,3-1,4.4-3.1,4.4
			c-1.1,0-1.9-0.3-2.4-0.9v3.8h-0.9V84.3z M65.9,84.9c-0.6,0-1.3,0.1-2.1,0.4v5.2c0.3,1.5,1.1,2.2,2.4,2.2h0.1
			c1.5,0,2.2-1.3,2.2-3.8c0-0.2,0-0.4,0-0.6C68.4,86,67.5,84.9,65.9,84.9z"/>
		<path class="st2" d="M75.3,86.1c-0.2-0.7-0.6-1.1-1.4-1.2l-0.1,0c-0.1,0-0.2,0-0.2,0c-0.2,0-0.5,0.1-0.7,0.2
			c-0.3,0.2-0.5,0.4-0.6,0.8c0,0.1,0,0.1,0,0.2c0,0.5,0.3,0.8,0.8,1c0.6,0.2,1.4,0.4,2.2,0.6c0.9,0.3,1.4,0.7,1.7,1.2
			c0.2,0.3,0.2,0.7,0.2,1.1c0,0.3,0,0.5-0.1,0.8l-0.1,0.3c-0.5,1.7-1.5,2.6-3.1,2.6c-0.2,0-0.4,0-0.7-0.1c-1.7-0.3-2.6-1.5-2.6-3.5
			c0-0.1,0-0.3,0-0.4h1c0,0.2,0,0.3,0,0.5c0,1.6,0.6,2.5,1.8,2.7c0.2,0,0.3,0,0.5,0c1.1,0,1.9-0.6,2.3-1.9c0-0.1,0.1-0.3,0.1-0.4
			c0-0.2,0.1-0.4,0.1-0.6c0-0.3,0-0.5-0.1-0.7c-0.2-0.4-0.4-0.6-0.8-0.8c-0.4-0.2-1-0.4-2-0.6c-0.9-0.2-1.5-0.5-1.8-0.9
			c-0.2-0.3-0.3-0.6-0.3-1c0-0.1,0-0.2,0-0.3c0.1-0.5,0.4-1,0.9-1.3c0.4-0.3,0.8-0.4,1.3-0.4c0.1,0,0.3,0,0.5,0l0.1,0
			c1.2,0.2,1.9,0.9,2,2.1H75.3z"/>
		<path class="st2" d="M84.6,84.3h0.9v9.2h-0.9v-0.8c-0.5,0.6-1.3,0.9-2.5,0.9c-1.9,0-2.9-1.5-2.9-4.4v-4.8h0.9v4.6
			c0,2.6,0.6,3.8,1.9,3.8h0.1c1.4,0,2.2-0.7,2.5-2.2V84.3z"/>
		<path class="st2" d="M89.1,93.5h-0.9V81.4h0.9V93.5z"/>
		<path class="st2" d="M97.7,93.5h-3c-2.2,0-3.3-1.1-3.4-3.2V90c0-2.1,1-3.1,3-3.1c1.1,0,1.9,0.3,2.5,0.9l0-0.6
			c-0.2-1.5-1-2.3-2.4-2.3c-0.4,0-0.8,0.1-1.1,0.3l-0.7-0.6c0.5-0.4,1.1-0.6,1.9-0.6c1.9,0,3,1,3.3,2.9V93.5z M92.3,90.2
			c0.1,1.6,0.9,2.3,2.4,2.3h2.2v-2.6c-0.2-1.5-1.1-2.2-2.4-2.2c-1.4,0-2.2,0.8-2.2,2.2C92.3,90,92.3,90.1,92.3,90.2z"/>
		<path class="st2" d="M100.8,91.7c0.2,0.2,0.3,0.5,0.3,0.7c0,0.3-0.1,0.5-0.3,0.7c-0.2,0.2-0.5,0.3-0.8,0.3c-0.3,0-0.5-0.1-0.7-0.3
			C99.1,93,99,92.7,99,92.4c0-0.3,0.1-0.5,0.3-0.7s0.5-0.3,0.7-0.3C100.4,91.4,100.6,91.5,100.8,91.7z"/>
		<g>
			<polygon class="st4" points="52.6,124.3 52.9,122.6 48.1,122.6 50,111.6 48.2,111.6 46,124.3 47.5,124.3 			"/>
			<path class="st4" d="M59.9,123.4c0.2,0.4,0.5,0.7,0.8,0.9l0.2,0.1l1.3-1.5l-0.2-0.2c-0.4-0.3-0.6-0.6-0.6-1.2c0-0.1,0-0.2,0-0.3
				l1.2-6.9h-1.3c-0.7-0.2-1.3-0.3-1.9-0.3c-2.4,0-4,1.5-4.7,4.5c-0.1,0.3-0.1,0.6-0.2,0.9c-0.1,0.6-0.2,1.2-0.2,1.6
				c0,2.1,1,3.2,2.9,3.2C58.3,124.4,59.2,124,59.9,123.4z M59,115.9c0.5,0,1,0.1,1.5,0.3l-0.8,4.7c-0.4,1.2-1.2,1.8-2.3,1.8h-0.1
				c-0.5,0-1.2-0.2-1.2-1.8c0-0.4,0-0.9,0.1-1.5c0-0.2,0.1-0.4,0.1-0.6C56.7,116.9,57.6,115.9,59,115.9z"/>
			<path class="st4" d="M66.1,124.5c0.1,0,0.2,0,0.3,0c2.6-0.1,4.2-1.7,4.8-4.6l0.1-0.3l-1.8,0l0,0.2c-0.4,1.9-1.3,2.9-2.7,3h-0.1
				c-1.1,0-1.6-0.5-1.6-1.7V121c0-0.5,0.1-1,0.1-1.5c0.1-0.8,0.4-1.5,0.7-2.1c0.5-0.8,1-1.3,1.6-1.3c0.1,0,0.2,0,0.3,0
				c0.7,0,1.1,0.4,1.5,1.1l0.1,0.3l1.5-1.2l-0.1-0.2c-0.5-1.1-1.4-1.7-2.7-1.7h-0.2c-1.6,0-2.9,0.8-3.7,2.4
				c-0.5,0.8-0.8,1.7-0.9,2.6c-0.1,0.5-0.1,1-0.1,1.5c0,0.2,0,0.5,0,0.7C63.2,123.5,64.3,124.5,66.1,124.5z"/>
			<polygon class="st4" points="72,124.3 73.8,124.3 75.3,116.3 76.7,116.3 77,114.5 75.6,114.5 75.9,112.5 74.1,112.5 73.8,114.5 
				72.3,114.5 72,116.3 73.4,116.3 			"/>
			<path class="st4" d="M76.3,120.9c0,3,1.7,3.6,3.2,3.6c2.5,0,4.1-1.8,4.8-5.2c0.1-0.5,0.1-0.9,0.1-1.3c0-2.5-1.1-3.8-3.1-3.8
				c-2.4,0-4,1.7-4.7,5C76.3,119.8,76.3,120.4,76.3,120.9z M80.9,116c0.7,0,1.5,0.2,1.5,2.2c0,0.3,0,0.7-0.1,1.1
				c-0.5,2.4-1.4,3.5-2.7,3.5c-0.7,0-1.5-0.2-1.5-2.1c0-0.4,0-0.8,0.1-1.3C78.7,117.1,79.6,116,80.9,116z"/>
			<path class="st4" d="M89.3,124.3c1.5,0,2.6-1.4,3.2-4.2c0.1-0.3,0.1-0.6,0.2-0.9c0.1-0.6,0.2-1.2,0.2-1.6c0-2.1-1-3.2-2.9-3.2
				c-0.8,0-1.5,0.2-2,0.5l0.6-3.3h-1.8l-2.2,12.7l4.6,0C89.2,124.3,89.3,124.3,89.3,124.3z M89.8,116.1h0.1c0.5,0,1.2,0.2,1.2,1.8
				c0,0.4,0,0.9-0.1,1.5l-0.1,0.6c-0.4,1.8-1,2.7-1.8,2.7h-2.5l0.9-4.7C87.9,116.7,88.7,116.1,89.8,116.1z"/>
			<path class="st4" d="M96.9,124.4c1.1,0,2-0.3,2.7-1c0.2,0.4,0.5,0.7,0.8,0.9l0.2,0.1l1.3-1.5l-0.2-0.2c-0.4-0.3-0.6-0.6-0.6-1.2
				c0-0.1,0-0.2,0-0.3l1.2-6.9h-1.3c-0.7-0.2-1.3-0.3-1.9-0.3c-2.4,0-4,1.5-4.7,4.5c-0.1,0.3-0.1,0.6-0.2,0.9
				c-0.1,0.6-0.2,1.2-0.2,1.6C94,123.3,95,124.4,96.9,124.4z M98.7,115.9c0.5,0,1,0.1,1.5,0.3l-0.8,4.7c-0.4,1.2-1.2,1.8-2.3,1.8
				h-0.1c-0.5,0-1.2-0.2-1.2-1.8c0-0.4,0-0.9,0.1-1.5c0-0.2,0.1-0.4,0.1-0.6C96.4,116.9,97.3,115.9,98.7,115.9z"/>
			<path class="st4" d="M105.8,124.5c0.1,0,0.2,0,0.3,0c2.6-0.1,4.2-1.7,4.8-4.6l0.1-0.3l-1.8,0l0,0.2c-0.4,1.9-1.3,2.9-2.7,3h-0.1
				c-1.1,0-1.6-0.5-1.6-1.7V121c0-0.5,0.1-1,0.1-1.5c0.1-0.8,0.4-1.5,0.7-2.1c0.5-0.8,1-1.3,1.6-1.3c0.1,0,0.2,0,0.3,0
				c0.7,0,1.1,0.4,1.5,1.1l0.1,0.3l1.5-1.2l-0.1-0.2c-0.5-1.1-1.4-1.7-2.7-1.7h-0.2c-1.6,0-2.9,0.8-3.7,2.4
				c-0.5,0.8-0.8,1.7-0.9,2.6c-0.1,0.5-0.1,1-0.1,1.5c0,0.2,0,0.5,0,0.7C102.9,123.5,103.9,124.5,105.8,124.5z"/>
			<polygon class="st4" points="115.7,114.5 113.9,114.5 112.2,124.3 114,124.3 			"/>
			<path class="st4" d="M115.4,113.1c0.4,0,0.6-0.1,0.9-0.4c0.2-0.2,0.3-0.5,0.3-0.8c0-0.3-0.1-0.6-0.3-0.8c-0.5-0.5-1.3-0.5-1.8,0
				c-0.2,0.2-0.4,0.5-0.4,0.8c0,0.3,0.1,0.6,0.4,0.8C114.7,113,115,113.1,115.4,113.1z"/>
			<polygon class="st4" points="120.9,111.6 119.1,111.6 116.9,124.3 118.7,124.3 			"/>
			<polygon class="st4" points="122.6,124.3 124.9,111.6 123,111.6 120.8,124.3 			"/>
			<path class="st4" d="M127.6,124.4c0.8,0,1.5-0.2,2-0.5l-0.1,0.4h1.8l1.7-9.8h-1.8l-1.1,6.4c-0.4,1.2-1.2,1.8-2.3,1.8h-0.1
				c-0.3,0-0.9,0-0.9-1.6c0-0.5,0.1-1,0.2-1.6l0.9-5H126l-0.9,5.1c-0.1,0.6-0.2,1.2-0.2,1.7C125,123.9,126.4,124.4,127.6,124.4z"/>
			<path class="st4" d="M135.7,124.5c0.3,0,0.5,0.1,0.7,0.1c1.7,0,3.1-1,3.9-2.9l0.1-0.4c0.1-0.3,0.2-0.6,0.2-0.9
				c0-0.2,0.1-0.4,0.1-0.6c0-0.3,0-0.5-0.1-0.7c-0.2-0.7-0.8-1.2-1.7-1.5c-0.8-0.3-1.5-0.5-2.1-0.6c-0.3-0.1-0.4-0.2-0.4-0.4
				c0,0,0-0.1,0-0.1l0-0.1c0.1-0.2,0.2-0.4,0.4-0.5c0.2-0.1,0.3-0.1,0.5-0.1c0,0,0.1,0,0.1,0l0.1,0c0.5,0.1,0.8,0.4,0.8,1l0,0.2h1.6
				l0-0.2c0-0.1,0-0.3,0-0.4c0-1.2-0.7-2-1.9-2.2l-0.1,0c-0.8-0.1-1.5,0-2.1,0.4c-0.6,0.4-1,0.9-1.3,1.6c0,0.1-0.1,0.2-0.1,0.3
				c0,0.1,0,0.3,0,0.4c0,0.3,0.1,0.6,0.2,0.9c0.3,0.4,0.9,0.8,1.8,1c0.9,0.2,1.5,0.4,1.8,0.6c0.3,0.1,0.4,0.3,0.5,0.5
				c0,0.1,0,0.1,0,0.2c0,0.1,0,0.2,0,0.3c0,0.2-0.1,0.3-0.1,0.5c0,0.1-0.1,0.2-0.1,0.3c-0.5,1.1-1.2,1.6-2.1,1.6c-0.1,0-0.3,0-0.4,0
				c-0.7-0.1-1-0.6-1-1.4c0-0.2,0-0.5,0.1-0.8c0-0.1,0.1-0.4,0.2-0.7l0.1-0.3h-1.9l0,0.2c-0.1,0.3-0.1,0.5-0.1,0.6
				c-0.1,0.4-0.1,0.7-0.1,1.1C133.3,123.2,134.1,124.2,135.7,124.5z"/>
			<path class="st4" d="M150.8,124.4c1.1,0,2-0.3,2.7-1c0.2,0.4,0.5,0.7,0.8,0.9l0.2,0.1l1.3-1.5l-0.2-0.2c-0.4-0.3-0.6-0.6-0.6-1.2
				c0-0.1,0-0.2,0-0.3l1.2-6.9h-1.3c-0.7-0.2-1.3-0.3-1.9-0.3c-2.4,0-4,1.5-4.7,4.5c-0.1,0.3-0.1,0.6-0.2,0.9
				c-0.1,0.6-0.2,1.2-0.2,1.6C147.9,123.3,148.9,124.4,150.8,124.4z M152.6,115.9c0.5,0,1,0.1,1.5,0.3l-0.8,4.7
				c-0.4,1.2-1.2,1.8-2.3,1.8h-0.1c-0.5,0-1.2-0.2-1.2-1.8c0-0.4,0-0.9,0.1-1.5c0-0.2,0.1-0.4,0.1-0.6
				C150.4,116.9,151.2,115.9,152.6,115.9z"/>
			<path class="st4" d="M162.9,119.8c-0.4,1.9-1.3,2.9-2.7,3h-0.1c-1.1,0-1.6-0.5-1.6-1.7V121c0-0.5,0.1-1,0.1-1.5
				c0.1-0.8,0.4-1.5,0.7-2.1c0.5-0.8,1-1.3,1.6-1.3c0.1,0,0.2,0,0.3,0c0.7,0,1.1,0.4,1.5,1.1l0.1,0.3l1.5-1.2l-0.1-0.2
				c-0.5-1.1-1.4-1.7-2.7-1.7h-0.2c-1.6,0-2.9,0.8-3.7,2.4c-0.5,0.8-0.8,1.7-0.9,2.6c-0.1,0.5-0.1,1-0.1,1.5c0,0.2,0,0.5,0,0.7
				c0.1,1.8,1.2,2.8,3,2.8c0.1,0,0.2,0,0.3,0c2.6-0.1,4.2-1.7,4.8-4.6l0.1-0.3l-1.8,0L162.9,119.8z"/>
			<path class="st4" d="M169.3,113.1c0.4,0,0.6-0.1,0.9-0.4c0.2-0.2,0.3-0.5,0.3-0.8c0-0.3-0.1-0.6-0.3-0.8c-0.5-0.5-1.3-0.5-1.8,0
				c-0.2,0.2-0.4,0.5-0.4,0.8c0,0.3,0.1,0.6,0.4,0.8C168.7,113,169,113.1,169.3,113.1z"/>
			<polygon class="st4" points="169.7,114.5 167.8,114.5 166.1,124.3 167.9,124.3 			"/>
			<path class="st4" d="M172.9,124.3c0.1,0,0.1,0,0.2,0h4.5l2.2-12.7H178l-0.6,3.3c-0.4-0.3-1-0.5-1.9-0.5c-2.3,0-3.8,1.6-4.3,4.7
				c0,0.3-0.1,0.6-0.1,0.9c-0.1,0.5-0.1,1-0.1,1.5C171,123.8,172,124.3,172.9,124.3z M175.2,116.1h0.1c1.1,0,1.6,0.5,1.6,1.7
				l-0.8,4.9h-2.6c-0.2,0-0.8,0-0.8-1.4c0-0.3,0-0.7,0.1-1.2c0-0.2,0.1-0.4,0.1-0.6C173.2,117.2,174,116.1,175.2,116.1z"/>
			<path class="st4" d="M179.6,120.9c0,3,1.7,3.6,3.2,3.6c2.5,0,4.1-1.8,4.8-5.2c0.1-0.5,0.1-0.9,0.1-1.3c0-2.5-1.1-3.8-3.1-3.8
				c-2.4,0-4,1.7-4.7,5C179.6,119.8,179.6,120.4,179.6,120.9z M184.2,116c0.7,0,1.5,0.2,1.5,2.2c0,0.3,0,0.7-0.1,1.1
				c-0.5,2.4-1.4,3.5-2.7,3.5c-0.7,0-1.5-0.2-1.5-2.1c0-0.4,0-0.8,0.1-1.3C182,117.1,182.9,116,184.2,116z"/>
			<path class="st4" d="M192.9,114.2c-0.6,0-1.3,0.1-2,0.3h-1.3l-2.2,12.7h1.8l0.6-3.2c0.4,0.2,1,0.3,1.9,0.3c2.3,0,3.8-1.6,4.3-4.7
				c0.1-0.3,0.1-0.6,0.1-0.9c0-0.4,0.1-0.7,0.1-1C196.2,115.4,195,114.2,192.9,114.2z M192,122.7h-0.1c-1.1,0-1.6-0.5-1.6-1.7
				l0.8-4.8c0.6-0.2,1.2-0.3,1.7-0.3c1.1,0,1.6,0.6,1.6,2c0,0.3,0,0.5-0.1,0.8l-0.1,0.6C193.9,121.6,193.1,122.7,192,122.7z"/>
			<path class="st4" d="M199.7,117.9c0.4-1.2,1.2-1.8,2.3-1.8h0.1c0.4,0,1,0.1,1,1.4c0,0.3,0,0.7-0.1,1.1l-1,5.8h1.8l1-5.9
				c0.1-0.5,0.1-0.9,0.1-1.3c0-1.8-0.9-2.8-2.7-2.8c-0.8,0-1.5,0.2-1.9,0.5l0.6-3.3H199l-2.2,12.7h1.8L199.7,117.9z"/>
			<polygon class="st4" points="210.2,114.5 208.3,114.5 206.6,124.3 208.4,124.3 			"/>
			<path class="st4" d="M209.8,113.1c0.4,0,0.6-0.1,0.9-0.4c0.2-0.2,0.3-0.5,0.3-0.8c0-0.3-0.1-0.6-0.3-0.8c-0.5-0.5-1.3-0.5-1.8,0
				c-0.2,0.2-0.4,0.5-0.4,0.8c0,0.3,0.1,0.6,0.4,0.8C209.2,113,209.5,113.1,209.8,113.1z"/>
			<polygon class="st4" points="215.4,111.6 213.6,111.6 211.3,124.3 213.1,124.3 			"/>
			<path class="st4" d="M220.7,120.9c-0.4,1.2-1.2,1.8-2.3,1.8h-0.1c-0.3,0-0.9,0-0.9-1.6c0-0.5,0.1-1,0.2-1.6l0.9-5h-1.8l-0.9,5.1
				c-0.1,0.6-0.2,1.2-0.2,1.7c0,2.6,1.5,3.1,2.7,3.1c0.8,0,1.5-0.2,2-0.5l-0.1,0.4h1.8l1.7-9.8h-1.8L220.7,120.9z"/>
			<path class="st4" d="M229.5,117.7c-0.8-0.3-1.5-0.5-2.1-0.6c-0.3-0.1-0.4-0.2-0.4-0.4c0,0,0-0.1,0-0.1l0-0.1
				c0.1-0.2,0.2-0.4,0.4-0.5c0.2-0.1,0.3-0.1,0.5-0.1c0,0,0.1,0,0.1,0l0.1,0c0.5,0.1,0.8,0.4,0.8,1l0,0.2h1.6l0-0.2
				c0-0.1,0-0.3,0-0.4c0-1.2-0.7-2-1.9-2.2l-0.1,0c-0.8-0.1-1.5,0-2.1,0.4c-0.6,0.4-1,0.9-1.3,1.6c0,0.1-0.1,0.2-0.1,0.3
				c0,0.1,0,0.3,0,0.4c0,0.3,0.1,0.6,0.2,0.9c0.3,0.4,0.9,0.8,1.8,1c0.9,0.2,1.5,0.4,1.8,0.6c0.3,0.1,0.4,0.3,0.5,0.5
				c0,0.1,0,0.1,0,0.2c0,0.1,0,0.2,0,0.3c0,0.2-0.1,0.3-0.1,0.5c0,0.1-0.1,0.2-0.1,0.3c-0.5,1.1-1.2,1.6-2.1,1.6c-0.1,0-0.3,0-0.4,0
				c-0.7-0.1-1-0.6-1-1.4c0-0.2,0-0.5,0.1-0.8c0-0.1,0.1-0.4,0.2-0.7l0.1-0.3h-1.9l0,0.2c-0.1,0.3-0.1,0.5-0.1,0.6
				c-0.1,0.4-0.1,0.7-0.1,1.1c0,1.6,0.8,2.6,2.4,2.9c0.3,0,0.5,0.1,0.7,0.1c1.7,0,3.1-1,3.9-2.9l0.1-0.4c0.1-0.3,0.2-0.6,0.2-0.9
				c0-0.2,0.1-0.4,0.1-0.6c0-0.3,0-0.5-0.1-0.7C230.9,118.5,230.4,118,229.5,117.7z"/>
			<path class="st4" d="M234,121.8c-0.3-0.3-0.6-0.4-1.1-0.4c-0.4,0-0.8,0.1-1.1,0.4c-0.3,0.3-0.4,0.6-0.4,1c0,0.4,0.1,0.8,0.4,1
				c0.3,0.3,0.6,0.4,1.1,0.4c0.4,0,0.8-0.1,1.1-0.4c0.3-0.3,0.4-0.6,0.4-1C234.4,122.4,234.3,122.1,234,121.8z"/>
			<path class="st4" d="M53.3,147.6c0.5-0.4,0.8-1.1,1-2.1l0-0.2c0-0.2,0-0.3,0-0.5c0-1.2-0.5-2.6-3.2-2.6l-3,0L46,154.9h3.4
				c2.9,0,4.6-1.3,5.2-3.8c0-0.3,0.1-0.6,0.1-0.9C54.6,149,54.2,148.1,53.3,147.6z M51.2,143.9c1.3,0.1,1.4,0.7,1.4,1.1
				c0,0.1,0,0.2,0,0.2c-0.2,0.9-0.6,1.4-1.3,1.6h-2.1l0.5-2.9H51.2z M49.8,153.2h-1.7l0.8-4.5h1.5c2.1,0,2.4,1,2.4,1.8
				c0,0.1,0,0.3,0,0.5C52.5,152.4,51.5,153.2,49.8,153.2z"/>
			<polygon class="st4" points="56,154.9 57.8,154.9 59.6,145.1 57.7,145.1 			"/>
			<path class="st4" d="M60.1,141.7c-0.5-0.5-1.3-0.5-1.8,0c-0.2,0.2-0.4,0.5-0.4,0.8c0,0.3,0.1,0.6,0.4,0.8
				c0.2,0.2,0.5,0.4,0.9,0.4c0.4,0,0.6-0.1,0.9-0.4c0.2-0.2,0.3-0.5,0.3-0.8C60.4,142.2,60.3,141.9,60.1,141.7z"/>
			<path class="st4" d="M64.4,144.3c0.2-1.2,0.6-1.8,1.3-1.9c0.2,0,0.8,0,0.8,1.3v0.5l1.8-0.6v-0.3c0-2.2-1.3-2.6-2.3-2.6h-0.2
				c-1.7,0.1-2.8,1.3-3.2,3.6l-0.1,0.7h-0.8l-0.3,1.7h0.8l-1.9,11h1.8l1.9-11h2.2l0.3-1.7h-2.2L64.4,144.3z"/>
			<path class="st4" d="M69.1,141.7c-0.2,0.2-0.4,0.5-0.4,0.8c0,0.3,0.1,0.6,0.4,0.8c0.2,0.2,0.5,0.4,0.9,0.4c0.4,0,0.6-0.1,0.9-0.4
				c0.2-0.2,0.3-0.5,0.3-0.8c0-0.3-0.1-0.6-0.3-0.8C70.4,141.2,69.6,141.2,69.1,141.7z"/>
			<polygon class="st4" points="66.8,154.9 68.6,154.9 70.4,145.1 68.5,145.1 			"/>
			<path class="st4" d="M78.6,142.2l-0.6,3.3c-0.4-0.3-1-0.5-1.9-0.5c-2.3,0-3.8,1.6-4.3,4.7c0,0.3-0.1,0.6-0.1,0.9
				c-0.1,0.5-0.1,1-0.1,1.5c0,2.3,1.1,2.8,1.9,2.8c0.1,0,0.1,0,0.2,0h4.5l2.2-12.7H78.6z M75.9,146.7H76c1.1,0,1.6,0.5,1.6,1.7
				l-0.8,4.9h-2.6c-0.2,0-0.8,0-0.8-1.4c0-0.3,0-0.7,0.1-1.2c0-0.2,0.1-0.4,0.1-0.6C73.9,147.8,74.7,146.7,75.9,146.7z"/>
			<path class="st4" d="M85.1,144.8c-2.4,0-4,1.7-4.7,5c-0.1,0.6-0.1,1.2-0.1,1.7c0,3,1.7,3.6,3.2,3.6c2.5,0,4.1-1.8,4.8-5.2
				c0.1-0.5,0.1-0.9,0.1-1.3C88.2,146,87.2,144.8,85.1,144.8z M83.6,153.3c-0.7,0-1.5-0.2-1.5-2.1c0-0.4,0-0.8,0.1-1.3
				c0.5-2.3,1.4-3.4,2.7-3.4c0.7,0,1.5,0.2,1.5,2.2c0,0.3,0,0.7-0.1,1.1C85.9,152.2,85,153.3,83.6,153.3z"/>
			<path class="st4" d="M94,145c-0.8,0-1.5,0.2-2,0.5l0.6-3.3h-1.8l-2.2,12.7l4.6,0c0.1,0,0.1,0,0.2,0c1.5,0,2.6-1.4,3.2-4.2
				c0.1-0.3,0.1-0.6,0.2-0.9c0.1-0.6,0.2-1.2,0.2-1.6C96.9,146.1,95.9,145,94,145z M93.8,146.7h0.1c0.5,0,1.2,0.2,1.2,1.8
				c0,0.4,0,0.9-0.1,1.5l-0.1,0.6c-0.4,1.8-1,2.7-1.8,2.7h-2.5l0.9-4.7C91.9,147.3,92.7,146.7,93.8,146.7z"/>
			<path class="st4" d="M106.3,145.1h-1.3c-0.7-0.2-1.3-0.3-1.9-0.3c-2.4,0-4,1.5-4.7,4.5c-0.1,0.3-0.1,0.6-0.2,0.9
				c-0.1,0.6-0.2,1.2-0.2,1.6c0,2.1,1,3.2,2.9,3.2c1.1,0,2-0.3,2.7-1c0.2,0.4,0.5,0.7,0.8,0.9l0.2,0.1l1.3-1.5l-0.2-0.2
				c-0.4-0.3-0.6-0.6-0.6-1.2c0-0.1,0-0.2,0-0.3L106.3,145.1z M101,153.3h-0.1c-0.5,0-1.2-0.2-1.2-1.8c0-0.4,0-0.9,0.1-1.5
				c0-0.2,0.1-0.4,0.1-0.6c0.4-2,1.3-2.9,2.7-2.9c0.5,0,1,0.1,1.5,0.3l-0.8,4.7C102.9,152.7,102.1,153.3,101,153.3z"/>
			<path class="st4" d="M113,150.4c-0.4,1.9-1.3,2.9-2.7,3h-0.1c-1.1,0-1.6-0.5-1.6-1.7v-0.1c0-0.5,0.1-1,0.1-1.5
				c0.1-0.8,0.4-1.5,0.7-2.1c0.5-0.8,1-1.3,1.6-1.3c0.1,0,0.2,0,0.3,0c0.7,0,1.1,0.4,1.5,1.1l0.1,0.3l1.5-1.2l-0.1-0.2
				c-0.5-1.1-1.4-1.7-2.7-1.7h-0.2c-1.6,0-2.9,0.8-3.7,2.4c-0.5,0.8-0.8,1.7-0.9,2.6c-0.1,0.5-0.1,1-0.1,1.5c0,0.2,0,0.5,0,0.7
				c0.1,1.8,1.2,2.8,3,2.8c0.1,0,0.2,0,0.3,0c2.6-0.1,4.2-1.7,4.8-4.6l0.1-0.3l-1.8,0L113,150.4z"/>
			<polygon class="st4" points="120.7,145.1 119.2,145.1 119.6,143 117.7,143 117.4,145.1 115.9,145.1 115.6,146.8 117.1,146.8 
				115.7,154.9 117.5,154.9 118.9,146.8 120.3,146.8 			"/>
			<path class="st4" d="M127.9,150.2h-1.7l0,0.2c-0.5,1.9-1.4,2.8-2.8,2.9c0,0-0.1,0-0.1,0c-0.6,0-1.4-0.2-1.4-1.9
				c0-0.4,0-0.9,0.1-1.4c0-0.2,0.1-0.4,0.1-0.6c3.4,0.5,5.2,0,5.5-1.7c0-0.2,0.1-0.4,0.1-0.6c0-0.9-0.4-2-2.4-2.1
				c-1.8-0.1-3.2,0.6-4.2,2.3c-0.4,0.6-0.7,1.4-0.8,2.4c-0.1,0.6-0.2,1.4-0.2,2.2v0.1c0,2.1,1,3.2,2.8,3.3h0h0c2.6,0,4.3-1.6,5-4.6
				L127.9,150.2z M124.6,146.7h0.1c1.2,0,1.2,0.5,1.2,0.7c0,0,0,0.1,0,0.1c-0.1,0.3-0.8,0.4-1.2,0.4c-0.5,0-1.2-0.1-2-0.2
				C123.1,147,123.8,146.7,124.6,146.7z"/>
			<path class="st4" d="M133.7,145.2c-0.5-0.2-1-0.2-1.6-0.1c-0.3,0-0.6,0.1-0.9,0.3l0.1-0.3h-1.8l-1.7,9.8h1.8l1.2-7
				c0.3-0.8,0.6-1,0.8-1.1c0.3-0.2,0.6-0.2,1.3,0l0.2,0.1l1-1.5L133.7,145.2z"/>
			<path class="st4" d="M136.1,141.7c-0.2,0.2-0.4,0.5-0.4,0.8c0,0.3,0.1,0.6,0.4,0.8c0.2,0.2,0.5,0.4,0.9,0.4
				c0.4,0,0.6-0.1,0.9-0.4c0.2-0.2,0.3-0.5,0.3-0.8c0-0.3-0.1-0.6-0.3-0.8C137.5,141.2,136.6,141.2,136.1,141.7z"/>
			<polygon class="st4" points="133.8,154.9 135.6,154.9 137.4,145.1 135.5,145.1 			"/>
			<path class="st4" d="M145.1,145.1l-1.1,6.4c-0.4,1.2-1.2,1.8-2.3,1.8h-0.1c-0.3,0-0.9,0-0.9-1.6c0-0.5,0.1-1,0.2-1.6l0.9-5h-1.8
				l-0.9,5.1c-0.1,0.6-0.2,1.2-0.2,1.7c0,2.6,1.5,3.1,2.7,3.1c0.8,0,1.5-0.2,2-0.5l-0.1,0.4h1.8l1.7-9.8H145.1z"/>
			<path class="st4" d="M156.5,145c-0.9,0-1.7,0.3-2.4,0.8c-0.3-0.4-0.9-0.7-1.8-0.8c-0.8,0-1.5,0.2-2,0.5l0.1-0.4h-1.8l-1.7,9.8
				h1.8l1.1-6.4c0.4-1.2,1.1-1.7,2-1.7h0.1c1,0,1.1,0.5,1.1,0.9c0,0.1,0,0.2,0,0.4l-1.2,6.9h1.8l1.3-7.4c0.5-0.7,1.1-0.9,1.8-0.7
				c0.2,0,0.7,0.2,0.7,1.5c0,0.4,0,0.8-0.1,1.4l-0.9,5.3h1.8l0.9-5.1c0-0.2,0.1-0.4,0.1-0.5c0.1-0.5,0.1-1,0.1-1.4
				C159.3,146,158.3,145,156.5,145z"/>
			<polygon class="st4" points="168.6,142.2 166.4,154.9 168.2,154.9 170.4,142.2 			"/>
			<path class="st4" d="M175.1,144.8c-2.4,0-4,1.7-4.7,5c-0.1,0.6-0.1,1.2-0.1,1.7c0,3,1.7,3.6,3.2,3.6c2.5,0,4.1-1.8,4.8-5.2
				c0.1-0.5,0.1-0.9,0.1-1.3C178.3,146,177.2,144.8,175.1,144.8z M173.6,153.3c-0.7,0-1.5-0.2-1.5-2.1c0-0.4,0-0.8,0.1-1.3
				c0.5-2.3,1.4-3.4,2.7-3.4c0.7,0,1.5,0.2,1.5,2.2c0,0.3,0,0.7-0.1,1.1C175.9,152.2,175,153.3,173.6,153.3z"/>
			<path class="st4" d="M183.8,145c-0.8,0-1.5,0.2-1.9,0.5l0.1-0.4h-1.8l-1.7,9.8h1.8l1.1-6.4c0.4-1.2,1.2-1.8,2.3-1.8l0.1,0
				c0.4,0.1,1,0.3,1,1.6c0,0.3,0,0.7-0.1,1.2l-1,5.4h1.8l0.9-5.1c0-0.1,0.1-0.3,0.1-0.4c0.1-0.5,0.1-1.1,0.1-1.5
				C186.5,146,185.6,145,183.8,145z"/>
			<path class="st4" d="M192.6,144.7c-2.4,0-4,1.5-4.7,4.5c-0.1,0.3-0.1,0.6-0.2,0.9c-0.1,0.6-0.2,1.2-0.2,1.6c0,2.1,1,3.2,2.9,3.2
				c0.7,0,1.3-0.1,1.7-0.3c-0.4,0.9-1.1,1.4-2,1.4c-0.3,0-0.6-0.1-0.9-0.3l-0.1-0.1l-1.6,1.1l0.2,0.2c0.6,0.5,1.3,0.8,2.2,0.8h0h0
				c2.1-0.1,3.5-1.1,4.2-3.2l1.7-9.4h-1.3C193.8,144.9,193.2,144.7,192.6,144.7z M190.6,153.3h-0.1c-0.5,0-1.2-0.2-1.2-1.8
				c0-0.4,0-0.9,0.1-1.5c0-0.2,0.1-0.4,0.1-0.6c0.4-2,1.3-2.9,2.7-2.9c0.5,0,1,0.1,1.5,0.3l-0.8,4.7
				C192.5,152.7,191.7,153.3,190.6,153.3z"/>
			<path class="st4" d="M203.1,145.1l-1.1,6.4c-0.4,1.2-1.2,1.8-2.3,1.8h-0.1c-0.3,0-0.9,0-0.9-1.6c0-0.5,0.1-1,0.2-1.6l0.9-5h-1.8
				l-0.9,5.1c-0.1,0.6-0.2,1.2-0.2,1.7c0,2.6,1.5,3.1,2.7,3.1c0.8,0,1.5-0.2,2-0.5l-0.1,0.4h1.8l1.7-9.8H203.1z"/>
			<path class="st4" d="M214.4,145c-0.9,0-1.7,0.3-2.4,0.8c-0.3-0.4-0.9-0.7-1.8-0.8c-0.8,0-1.5,0.2-2,0.5l0.1-0.4h-1.8l-1.7,9.8
				h1.8l1.1-6.4c0.4-1.2,1.1-1.7,2-1.7h0.1c1,0,1.1,0.5,1.1,0.9c0,0.1,0,0.2,0,0.4l-1.2,6.9h1.8l1.3-7.4c0.5-0.7,1.1-0.9,1.8-0.7
				c0.2,0,0.7,0.2,0.7,1.5c0,0.4,0,0.8-0.1,1.4l-0.9,5.3h1.8l0.9-5.1c0-0.2,0.1-0.4,0.1-0.5c0.1-0.5,0.1-1,0.1-1.4
				C217.2,146,216.3,145,214.4,145z"/>
			<path class="st4" d="M218.9,152c-0.4,0-0.8,0.1-1.1,0.4c-0.3,0.3-0.4,0.6-0.4,1c0,0.4,0.1,0.8,0.4,1c0.3,0.3,0.6,0.4,1.1,0.4
				c0.4,0,0.8-0.1,1.1-0.4c0.3-0.3,0.4-0.6,0.4-1c0-0.4-0.1-0.7-0.4-1C219.7,152.1,219.4,152,218.9,152z"/>
		</g>
	</g>
</g>
</svg>
