<!-- Generator: Adobe Illustrator 20.1.0, SVG Export Plug-In  -->
<svg version="1.1"
	 xmlns="http://www.w3.org/2000/svg" xmlns:xlink="http://www.w3.org/1999/xlink" xmlns:a="http://ns.adobe.com/AdobeSVGViewerExtensions/3.0/"
	 x="0px" y="0px" width="411.8px" height="204.1px" viewBox="0 0 411.8 204.1"
	 style="overflow:scroll;enable-background:new 0 0 411.8 204.1;" xml:space="preserve">
<style type="text/css">
	.st0{fill:#1C3F94;}
	.st1{fill:#58595B;}
	.st2{fill:#B9D989;}
</style>
<defs>
</defs>
<g>
	<polygon class="st0" points="1.8,0.9 0,0.9 0,13.6 1.5,13.6 6.6,13.6 6.6,11.9 1.8,11.9 	"/>
	<path class="st0" d="M11,3.4c-2.4,0-3.7,1.7-3.9,5.1c0.1,3.5,1.4,5.2,3.9,5.2c2.5,0,3.8-1.8,3.9-5.3C14.7,5.1,13.4,3.4,11,3.4z
		 M11,12c-1.4,0-2-1.1-2.1-3.4C9,6.3,9.7,5.3,11,5.3c1.3,0,2,1.1,2.1,3.3C13,10.9,12.4,12,11,12z"/>
	<path class="st0" d="M21.1,7c-0.9-0.3-1.6-0.5-2.2-0.6c-0.4-0.1-0.5-0.3-0.5-0.5l0-0.1c0-0.2,0.1-0.4,0.3-0.5
		c0.2-0.1,0.3-0.1,0.4-0.1c0.1,0,0.1,0,0.1,0l0.1,0c0.5,0.1,0.9,0.4,1,1l0,0.2h1.6l0-0.3c-0.1-1.5-0.9-2.4-2.3-2.6l-0.1,0
		c-0.8-0.1-1.5,0-2.1,0.4c-0.6,0.4-0.9,0.9-1,1.6c0,0.1,0,0.2,0,0.3c0,0.5,0.1,0.9,0.4,1.3c0.3,0.4,1,0.8,2,1
		c0.9,0.2,1.5,0.4,1.9,0.6c0.3,0.1,0.5,0.3,0.6,0.6c0.1,0.1,0.1,0.3,0.1,0.5c0,0.1,0,0.3,0,0.5c0,0.1,0,0.2-0.1,0.3
		c-0.3,1-0.9,1.6-1.8,1.6c-0.1,0-0.3,0-0.4,0c-0.9-0.2-1.3-0.9-1.3-2.2c0-0.1,0-0.4,0-0.7L18,9h-1.9l0,0.2c0,0.3,0,0.5,0,0.6
		c0,2.2,1,3.5,2.9,3.9c0.3,0,0.5,0.1,0.7,0.1c1.8,0,2.9-1,3.5-2.9l0.1-0.4c0.1-0.3,0.1-0.6,0.1-0.9c0-0.5-0.1-0.9-0.3-1.3
		C22.7,7.7,22.1,7.2,21.1,7z"/>
	<path class="st0" d="M34.6,3.4c-0.6,0-1.3,0.1-2,0.3h-1.3v12.7h1.8v-3.1c0.4,0.2,1,0.3,1.9,0.3c2.3,0,3.5-1.6,3.5-4.8
		c0-0.3,0-0.6,0-0.9C38.4,5,37.1,3.4,34.6,3.4z M35.2,12h-0.1c-1.1,0-1.7-0.6-1.9-1.7V5.5c0.6-0.2,1.1-0.3,1.6-0.3
		c1.3,0,2,0.9,2.1,2.8v0.6C36.9,12,35.6,12,35.2,12z"/>
	<path class="st0" d="M42.9,3.8c-0.3,0-0.6,0.2-0.8,0.3V3.8h-1.8v9.8H42l0-7.1c0.2-0.8,0.4-1,0.6-1.1c0.2-0.1,0.3-0.1,0.5-0.1
		c0.1,0,0.3,0,0.8,0.1L44,5.5L44.8,4l-0.3-0.1C44,3.7,43.5,3.7,42.9,3.8z"/>
	<path class="st0" d="M49.1,3.4c-2.4,0-3.7,1.7-3.9,5.1c0.1,3.5,1.4,5.2,3.9,5.2c2.5,0,3.8-1.8,3.9-5.3C52.8,5.1,51.5,3.4,49.1,3.4z
		 M49.1,12c-1.4,0-2-1.1-2.1-3.4c0.1-2.2,0.8-3.3,2.1-3.3c1.3,0,2,1.1,2.1,3.3C51.1,10.9,50.5,12,49.1,12z"/>
	<path class="st0" d="M58.3,3.7c-0.8,0-1.5,0.2-1.9,0.5V0.9h-1.8v12.7h4.5c0.1,0,0.1,0,0.2,0c1.6,0,2.4-1.4,2.5-4.3
		c0-0.3,0-0.6,0-0.9C61.8,5.3,60.7,3.7,58.3,3.7z M58.3,5.3h0.1c0.4,0,1.7,0,1.7,3.3v0.6c0,1.7-0.5,2.6-1.3,2.6h-2.5l0-4.8
		C56.6,5.9,57.2,5.3,58.3,5.3z"/>
	<rect x="64.5" y="3.8" class="st0" width="1.8" height="9.8"/>
	<path class="st0" d="M64.5,0.4c-0.2,0.2-0.4,0.5-0.4,0.8c0,0.3,0.1,0.6,0.4,0.8c0.2,0.2,0.5,0.4,0.9,0.4c0.4,0,0.6-0.1,0.9-0.4
		c0.2-0.2,0.3-0.5,0.3-0.8c0-0.3-0.1-0.6-0.3-0.8C65.8-0.1,65-0.1,64.5,0.4z"/>
	<path class="st0" d="M72.5,3.4c-2.4,0-3.7,1.7-3.9,5.1c0.1,3.5,1.4,5.2,3.9,5.2c2.5,0,3.8-1.8,3.9-5.3C76.2,5.1,74.8,3.4,72.5,3.4z
		 M72.5,12c-1.4,0-2-1.1-2.1-3.4c0.1-2.2,0.8-3.3,2.1-3.3c1.3,0,2,1.1,2.1,3.3C74.5,10.9,73.8,12,72.5,12z"/>
	<polygon class="st0" points="75,0.3 72.2,0.3 71,3.2 72.7,3.2 	"/>
	<polygon class="st0" points="80.1,1.7 78.3,1.7 78.3,3.8 76.9,3.8 76.9,5.5 78.3,5.5 78.3,13.6 80.1,13.6 80.1,5.5 81.6,5.5 
		81.6,3.8 80.1,3.8 	"/>
	<path class="st0" d="M83.7,0.4c-0.2,0.2-0.4,0.5-0.4,0.8c0,0.3,0.1,0.6,0.4,0.8c0.2,0.2,0.5,0.4,0.9,0.4c0.4,0,0.6-0.1,0.9-0.4
		c0.2-0.2,0.3-0.5,0.3-0.8c0-0.3-0.1-0.6-0.3-0.8C85-0.1,84.2-0.1,83.7,0.4z"/>
	<rect x="83.7" y="3.8" class="st0" width="1.8" height="9.8"/>
	<path class="st0" d="M94.1,9.1c0,1.8-0.7,2.8-2.1,3h-0.1c-1.1,0-1.8-0.6-2-1.8c-0.1-0.5-0.1-1-0.1-1.5c0-0.8,0.1-1.5,0.4-2.1
		c0.3-0.8,0.8-1.2,1.4-1.2c0.1,0,0.2,0,0.3,0c0.7,0,1.2,0.4,1.7,1.1l0.2,0.3L95,5.6l-0.1-0.2c-0.7-1.1-1.7-1.7-3-1.7h-0.2
		c-1.6,0-2.8,0.8-3.3,2.4c-0.3,0.8-0.5,1.7-0.5,2.7c0,0.7,0.1,1.5,0.3,2.2c0.4,1.8,1.6,2.7,3.5,2.7c0.1,0,0.2,0,0.3,0
		c2.6-0.1,3.9-1.7,4-4.6l0-0.3l-1.8,0L94.1,9.1z"/>
	<path class="st0" d="M100.9,3.4c-2.4,0-3.7,1.7-3.9,5.1c0.1,3.5,1.4,5.2,3.9,5.2c2.5,0,3.8-1.8,3.9-5.3
		C104.6,5.1,103.3,3.4,100.9,3.4z M100.9,12c-1.4,0-2-1.1-2.1-3.4c0.1-2.2,0.8-3.3,2.1-3.3c1.3,0,2,1.1,2.1,3.3
		C102.9,10.9,102.3,12,100.9,12z"/>
	<path class="st0" d="M111,7c-0.9-0.3-1.6-0.5-2.2-0.6c-0.4-0.1-0.5-0.3-0.5-0.5l0-0.1c0-0.2,0.1-0.4,0.3-0.5
		c0.2-0.1,0.3-0.1,0.4-0.1c0.1,0,0.1,0,0.1,0l0.1,0c0.5,0.1,0.9,0.4,1,1l0,0.2h1.6l0-0.3c-0.1-1.5-0.9-2.4-2.3-2.6l-0.1,0
		c-0.8-0.1-1.5,0-2.1,0.4c-0.6,0.4-0.9,0.9-1,1.6c0,0.1,0,0.2,0,0.3c0,0.5,0.1,0.9,0.4,1.3c0.3,0.4,1,0.8,2,1
		c0.9,0.2,1.5,0.4,1.9,0.6c0.3,0.1,0.5,0.3,0.6,0.6c0.1,0.1,0.1,0.3,0.1,0.5c0,0.1,0,0.3,0,0.5c0,0.1,0,0.2-0.1,0.3
		c-0.3,1-0.9,1.6-1.8,1.6c-0.1,0-0.3,0-0.4,0c-0.9-0.2-1.3-0.9-1.3-2.2c0-0.1,0-0.4,0-0.7l0-0.3H106l0,0.2c0,0.3,0,0.5,0,0.6
		c0,2.2,1,3.5,2.9,3.9c0.3,0,0.5,0.1,0.7,0.1c1.8,0,2.9-1,3.5-2.9l0.1-0.4c0.1-0.3,0.1-0.6,0.1-0.9c0-0.5-0.1-0.9-0.3-1.3
		C112.6,7.7,112,7.2,111,7z"/>
	<path class="st0" d="M126.5,4.2c-0.4-0.3-1.1-0.5-1.9-0.5c-2.3,0-3.5,1.6-3.5,4.8c0,0.3,0,0.6,0,0.9c0.1,2.8,1,4.3,2.5,4.3
		c0.1,0,0.1,0,0.2,0h4.6V0.9h-1.8V4.2z M124.5,5.3h0.1c1.1,0,1.7,0.6,1.9,1.7l0,4.8H124c-0.8,0-1.2-0.9-1.3-2.6c0-0.2,0-0.4,0-0.6
		C122.8,5.3,124.1,5.3,124.5,5.3z"/>
	<path class="st0" d="M136.3,9.1c-0.1,1.8-0.9,2.8-2.3,2.9c0,0-0.1,0-0.1,0c-0.5,0-1.9,0-1.9-3.4c0-0.2,0-0.4,0-0.6h5.6l0-0.3
		c-0.3-2.6-1.3-4-3.1-4.1c-0.1,0-0.3,0-0.4,0c-1.6,0-2.7,0.8-3.4,2.4c-0.3,0.6-0.4,1.4-0.4,2.4c0,0.6,0.1,1.4,0.2,2.2
		c0.3,2.1,1.5,3.2,3.3,3.3h0h0c2.6,0,4-1.6,4.2-4.6l0-0.3h-1.7L136.3,9.1z M134,5.3h0.1c0.8,0,1.3,0.3,1.5,1h-3.3
		C132.7,5.7,133.2,5.3,134,5.3z"/>
	<path class="st0" d="M148.6,0.9h-2.7v12.7h1.8V8.3h0.8c3,0,4.6-1.3,4.6-3.7C153.1,2.1,151.6,0.9,148.6,0.9z M147.7,2.6h0.8
		c1.9,0,2.8,0.6,2.8,2c0,1.3-0.9,2-2.8,2h-0.8V2.6z"/>
	<path class="st0" d="M160.5,9.1c-0.1,1.8-0.9,2.8-2.3,2.9c0,0-0.1,0-0.1,0c-0.5,0-1.9,0-1.9-3.4c0-0.2,0-0.4,0-0.6h5.6l0-0.3
		c-0.3-2.6-1.3-4-3.1-4.1c-0.1,0-0.3,0-0.4,0c-1.6,0-2.7,0.8-3.4,2.4c-0.3,0.6-0.4,1.4-0.4,2.4c0,0.6,0.1,1.4,0.2,2.2
		c0.3,2.1,1.5,3.2,3.3,3.3h0h0c2.6,0,4-1.6,4.2-4.6l0-0.3h-1.7L160.5,9.1z M158.2,5.3h0.1c0.8,0,1.3,0.3,1.5,1h-3.3
		C156.9,5.7,157.4,5.3,158.2,5.3z"/>
	<path class="st0" d="M166.8,3.6c-0.8,0-1.6,0.3-2.3,0.8l-0.3,0.2l1.4,1.1l0.2-0.1c0.3-0.2,0.6-0.3,1-0.3c0.9,0,1.5,0.5,1.7,1.4
		c-0.4-0.2-1-0.4-1.8-0.4c-2.2,0-3.4,1.2-3.4,3.5V10c0.1,2.4,1.3,3.6,3.8,3.6h3.4l0-6.8C170.2,4.7,169,3.6,166.8,3.6z M168.7,9.7
		v2.1H167c-1.2,0-1.8-0.6-1.9-1.9c0-0.1,0-0.2,0-0.2c0-1.1,0.5-1.6,1.6-1.7C167.9,8,168.5,8.5,168.7,9.7z"/>
	<path class="st0" d="M174.8,3.8c-0.3,0-0.6,0.2-0.8,0.3V3.8h-1.8v9.8h1.8l0-7.1c0.2-0.8,0.4-1,0.6-1.1c0.2-0.1,0.3-0.1,0.5-0.1
		c0.1,0,0.3,0,0.8,0.1l0.2,0.1l0.8-1.5l-0.3-0.1C176,3.7,175.4,3.7,174.8,3.8z"/>
	<rect x="178.2" y="0.9" class="st0" width="1.8" height="12.7"/>
	<path class="st0" d="M187.2,7c-0.9-0.3-1.6-0.5-2.2-0.6c-0.4-0.1-0.5-0.3-0.5-0.5l0-0.1c0-0.2,0.1-0.4,0.3-0.5
		c0.2-0.1,0.3-0.1,0.4-0.1c0.1,0,0.1,0,0.1,0l0.1,0c0.5,0.1,0.9,0.4,1,1l0,0.2h1.6l0-0.3c-0.1-1.5-0.9-2.4-2.3-2.6l-0.1,0
		c-0.8-0.1-1.5,0-2.1,0.4c-0.6,0.4-0.9,0.9-1,1.6c0,0.1,0,0.2,0,0.3c0,0.5,0.1,0.9,0.4,1.3c0.3,0.4,1,0.8,2,1
		c0.9,0.2,1.5,0.4,1.9,0.6c0.3,0.1,0.5,0.3,0.6,0.6c0.1,0.1,0.1,0.3,0.1,0.5c0,0.1,0,0.3,0,0.5c0,0.1,0,0.2-0.1,0.3
		c-0.3,1-0.9,1.6-1.8,1.6c-0.1,0-0.3,0-0.4,0c-0.9-0.2-1.3-0.9-1.3-2.2c0-0.1,0-0.4,0-0.7l0-0.3h-1.9l0,0.2c0,0.3,0,0.5,0,0.6
		c0,2.2,1,3.5,2.9,3.9c0.3,0,0.5,0.1,0.7,0.1c1.8,0,2.9-1,3.5-2.9l0.1-0.4c0.1-0.3,0.1-0.6,0.1-0.9c0-0.5-0.1-0.9-0.3-1.3
		C188.8,7.7,188.1,7.2,187.2,7z"/>
	<polygon class="st0" points="198,1.3 196.5,3.4 194.9,1 190.6,1 190.6,2 192.1,2 192.1,6.4 193.1,6.4 193.1,2 194,2 194,6.4 
		195,6.4 195,3 196,4.5 197,4.5 198,3 198,6.4 199.1,6.4 199.1,1 198,1 	"/>
	<path class="st0" d="M201.4,10.6c-0.4,0-0.8,0.1-1.1,0.4c-0.3,0.3-0.4,0.6-0.4,1c0,0.4,0.1,0.7,0.4,1c0.3,0.3,0.6,0.4,1.1,0.4
		c0.4,0,0.8-0.1,1.1-0.4c0.3-0.3,0.4-0.6,0.4-1c0-0.4-0.1-0.7-0.4-1C202.2,10.8,201.9,10.6,201.4,10.6z"/>
	<path class="st0" d="M201.4,4.8c-0.4,0-0.8,0.1-1.1,0.4c-0.3,0.3-0.4,0.6-0.4,1c0,0.4,0.1,0.7,0.4,1c0.3,0.3,0.6,0.4,1.1,0.4
		c0.4,0,0.8-0.1,1.1-0.4c0.3-0.3,0.4-0.6,0.4-1c0-0.4-0.1-0.7-0.4-1C202.2,5,201.9,4.8,201.4,4.8z"/>
	<path class="st0" d="M207.2,0.6c-0.1,0-0.2,0-0.3,0.1l-1.6,2c-0.1,0.1-0.1,0.2,0,0.3c0,0.1,0.1,0.1,0.2,0.1h0l0.5,0v5.1
		c0,0.1,0.1,0.3,0.3,0.3h0.8c0.1,0,0.3-0.1,0.3-0.3V0.9C207.3,0.8,207.3,0.7,207.2,0.6z"/>
	<path class="st0" d="M209.6,6.8c-0.2,0.2-0.3,0.4-0.3,0.7c0,0.3,0.1,0.5,0.2,0.7c0,0-0.1,0.1-0.2,0.2c0,0-0.1,0.1-0.1,0.2v0.1
		c0,0.1,0,0.1,0.1,0.2l0.4,0.5c0,0,0.1,0.1,0.2,0.1c0.1,0,0.1,0,0.2-0.1c0.5-0.5,0.7-0.8,0.9-1c0.1-0.2,0.2-0.5,0.2-0.7
		c0-0.2-0.1-0.5-0.3-0.7C210.6,6.4,210,6.4,209.6,6.8z"/>
	<path class="st0" d="M216.2,7.3h-2.8c0.1-0.7,0.5-1.3,1.2-1.8c1-0.8,1.5-1.6,1.5-2.6c-0.2-1.7-1.2-2.1-2-2.1c-0.9,0-2,0.5-2,2.4
		c0,0.1,0,0.2,0,0.3c0,0.1,0.1,0.2,0.3,0.2h0.7c0.1,0,0.2-0.1,0.3-0.2c0-1.4,0.6-1.5,0.8-1.5c0.3,0,0.6,0.1,0.7,0.9
		c0,0.6-0.4,1.2-1.1,1.7c-1,0.8-1.6,2-1.6,3.6c0,0.1,0,0.1,0.1,0.2c0,0,0.1,0.1,0.2,0.1h3.9c0.1,0,0.3-0.1,0.3-0.3V7.5
		C216.4,7.4,216.3,7.3,216.2,7.3z"/>
	<path class="st0" d="M217.5,6.8c-0.2,0.2-0.3,0.4-0.3,0.7c0,0.3,0.1,0.5,0.2,0.7c0,0-0.1,0.1-0.2,0.2c0,0-0.1,0.1-0.1,0.2v0.1
		c0,0.1,0,0.1,0.1,0.2l0.4,0.5c0,0,0.1,0.1,0.2,0.1c0.1,0,0.1,0,0.2-0.1c0.5-0.5,0.7-0.8,0.9-1c0.1-0.2,0.2-0.5,0.2-0.7
		c0-0.2-0.1-0.5-0.3-0.7C218.5,6.4,217.9,6.4,217.5,6.8z"/>
	<path class="st0" d="M224.6,4.8c-0.1-1-1.2-1.6-3.4-1.7l0.3-0.9h2.1c0,0,0,0,0,0c0.1,0,0.3-0.1,0.3-0.2c0,0,0-0.1,0-0.1l0-0.6
		c0-0.1-0.1-0.2-0.3-0.2h-2.8c-0.1,0-0.2,0.1-0.2,0.2l-0.8,2.4c0,0.1,0,0.2,0.1,0.3l0.7,0.4c0,0,0.1,0,0.1,0
		c2.3,0.1,2.6,0.5,2.7,0.7c0,0.1,0,0.2,0,0.3c0,0.5-0.2,0.9-0.6,1.3c-0.3,0.4-0.7,0.6-1,0.6c0,0-0.1,0-0.2,0c-0.2,0-0.5-0.3-0.8-2
		c0-0.1,0-0.1-0.1-0.2c-0.1,0-0.1-0.1-0.2,0l-0.8,0.1c-0.1,0-0.1,0-0.2,0.1c0,0.1-0.1,0.1,0,0.2c0.4,2,1,3.1,2,3.1h0.1
		c0.8,0,1.6-0.4,2.2-1.2c0.5-0.7,0.8-1.4,0.8-2.2C224.6,5,224.6,4.9,224.6,4.8z"/>
</g>
<g>
	<g>
		<g>
			<path class="st1" d="M19.7,41.4h0.8c0.2,0,0.3,0,0.5,0l2.8,5.3h2l-2.9-5.6c1.5-0.5,2.3-1.6,2.3-3.4c0-2.5-1.5-3.7-4.5-3.7h-2.7
				v12.7h1.8V41.4z M19.7,35.7h0.8c1.9,0,2.8,0.6,2.8,2c0,1.3-0.9,2-2.7,2h-0.9V35.7z"/>
			<path class="st1" d="M30.4,46.8L30.4,46.8L30.4,46.8c2.6,0,4-1.6,4.3-4.6l0-0.3H33l0,0.2c-0.1,1.8-0.9,2.8-2.3,2.9
				c0,0-0.1,0-0.1,0c-0.5,0-1.9,0-1.9-3.4c0-0.2,0-0.4,0-0.6h5.6l0-0.3c-0.3-2.6-1.3-4-3.1-4.1c-0.1,0-0.3,0-0.4,0
				c-1.6,0-2.7,0.8-3.4,2.4c-0.3,0.6-0.4,1.4-0.4,2.4c0,0.6,0.1,1.4,0.2,2.2C27.4,45.6,28.5,46.7,30.4,46.8z M30.7,38.4h0.1
				c0.8,0,1.3,0.3,1.5,1H29C29.4,38.8,29.9,38.4,30.7,38.4z"/>
			<path class="st1" d="M38.6,46.7c0.1,0,0.1,0,0.2,0h4.6V34h-1.8v3.3c-0.4-0.3-1.1-0.5-1.9-0.5c-2.3,0-3.5,1.6-3.5,4.8
				c0,0.3,0,0.6,0,0.9C36.2,45.3,37,46.7,38.6,46.7z M39.4,38.4h0.1c1.1,0,1.7,0.6,1.9,1.7l0,4.8H39c-0.8,0-1.2-0.9-1.3-2.6
				c0-0.2,0-0.4,0-0.6C37.7,38.4,39,38.4,39.4,38.4z"/>
			<path class="st1" d="M48.7,46.8c0.9,0,1.5-0.2,1.9-0.5v0.4h1.8v-9.8h-1.8l0,6.5c-0.2,1.2-0.8,1.8-1.9,1.8h-0.1
				c-0.9,0-1.4-1.1-1.4-3.3v-4.9h-1.8V42C45.4,45.2,46.5,46.8,48.7,46.8z"/>
			<path class="st1" d="M58,46.9c0.1,0,0.2,0,0.3,0c2.6-0.1,3.9-1.7,4-4.6l0-0.3l-1.8,0l0,0.2c0,1.8-0.7,2.8-2.1,3h-0.1
				c-1.1,0-1.8-0.6-2-1.8c-0.1-0.5-0.1-1-0.1-1.5c0-0.8,0.1-1.5,0.4-2.1c0.3-0.8,0.8-1.2,1.4-1.2c0.1,0,0.2,0,0.3,0
				c0.7,0,1.2,0.4,1.7,1.1l0.2,0.3l1.3-1.2l-0.1-0.2c-0.7-1.1-1.7-1.7-3-1.7H58c-1.6,0-2.8,0.8-3.3,2.4c-0.3,0.8-0.5,1.7-0.5,2.7
				c0,0.7,0.1,1.5,0.3,2.2C55,45.9,56.1,46.9,58,46.9z"/>
			<path class="st1" d="M67.1,46.8L67.1,46.8L67.1,46.8c2.6,0,4-1.6,4.3-4.6l0-0.3h-1.7l0,0.2c-0.1,1.8-0.9,2.8-2.3,2.9
				c0,0-0.1,0-0.1,0c-0.5,0-1.9,0-1.9-3.4c0-0.2,0-0.4,0-0.6H71l0-0.3c-0.3-2.6-1.3-4-3.1-4.1c-0.1,0-0.3,0-0.4,0
				c-1.6,0-2.7,0.8-3.4,2.4c-0.3,0.6-0.4,1.4-0.4,2.4c0,0.6,0.1,1.4,0.2,2.2C64.1,45.6,65.3,46.7,67.1,46.8z M67.4,38.4h0.1
				c0.8,0,1.3,0.3,1.5,1h-3.3C66.1,38.8,66.6,38.4,67.4,38.4z"/>
			<path class="st1" d="M78,46.7h1.8v-5.1c0-0.1,0-0.3,0-0.4c0-2.9-1.1-4.4-3.3-4.4c-0.8,0-1.5,0.2-1.9,0.5v-0.4h-1.8v9.8h1.8l0-6.5
				c0.2-1.2,0.8-1.8,1.9-1.8l0.1,0c1,0.1,1.5,1,1.5,2.9c0,0.1,0,0.3,0,0.4V46.7z"/>
			<rect x="88.5" y="34" class="st1" width="1.8" height="12.7"/>
			<path class="st1" d="M99.6,46.7l0-6.8c-0.3-2.1-1.5-3.2-3.7-3.2c-0.8,0-1.6,0.3-2.3,0.8l-0.3,0.2l1.4,1.1l0.2-0.1
				c0.3-0.2,0.6-0.3,1-0.3c0.9,0,1.5,0.5,1.7,1.4c-0.4-0.2-1-0.4-1.8-0.4c-2.2,0-3.4,1.2-3.4,3.5v0.2c0.1,2.4,1.3,3.6,3.8,3.6H99.6z
				 M94.2,43c0-0.1,0-0.2,0-0.2c0-1.1,0.5-1.6,1.6-1.7c1.1,0,1.7,0.6,1.9,1.7v2.1h-1.7C94.9,44.9,94.3,44.3,94.2,43z"/>
			<path class="st1" d="M109.4,39.6c0.2-0.8,0.4-1,0.6-1.1c0.2-0.1,0.3-0.1,0.5-0.1c0.1,0,0.3,0,0.8,0.1l0.2,0.1l0.8-1.5l-0.3-0.1
				c-0.5-0.2-1.1-0.2-1.7-0.1c-0.3,0-0.6,0.2-0.8,0.3v-0.3h-1.8v9.8h1.8L109.4,39.6z"/>
			<path class="st1" d="M116.4,46.8L116.4,46.8L116.4,46.8c2.6,0,4-1.6,4.3-4.6l0-0.3H119l0,0.2c-0.1,1.8-0.9,2.8-2.3,2.9
				c0,0-0.1,0-0.1,0c-0.5,0-1.9,0-1.9-3.4c0-0.2,0-0.4,0-0.6h5.6l0-0.3c-0.3-2.6-1.3-4-3.1-4.1c-0.1,0-0.3,0-0.4,0
				c-1.6,0-2.7,0.8-3.4,2.4c-0.3,0.6-0.4,1.4-0.4,2.4c0,0.6,0.1,1.4,0.2,2.2C113.4,45.6,114.5,46.7,116.4,46.8z M116.7,38.4h0.1
				c0.8,0,1.3,0.3,1.5,1H115C115.3,38.8,115.9,38.4,116.7,38.4z"/>
			<path class="st1" d="M125.6,46.9c0.1,0,0.2,0,0.3,0c2.6-0.1,3.9-1.7,4-4.6l0-0.3l-1.8,0l0,0.2c0,1.8-0.7,2.8-2.1,3h-0.1
				c-1.1,0-1.8-0.6-2-1.8c-0.1-0.5-0.1-1-0.1-1.5c0-0.8,0.1-1.5,0.4-2.1c0.3-0.8,0.8-1.2,1.4-1.2c0.1,0,0.2,0,0.3,0
				c0.7,0,1.2,0.4,1.7,1.1l0.2,0.3l1.3-1.2l-0.1-0.2c-0.7-1.1-1.7-1.7-3-1.7h-0.2c-1.6,0-2.8,0.8-3.3,2.4c-0.3,0.8-0.5,1.7-0.5,2.7
				c0,0.7,0.1,1.5,0.3,2.2C122.5,45.9,123.7,46.9,125.6,46.9z"/>
			<path class="st1" d="M134.7,46.8c0.9,0,1.5-0.2,1.9-0.5v0.4h1.8v-9.8h-1.8l0,6.5c-0.2,1.2-0.8,1.8-1.9,1.8h-0.1
				c-0.9,0-1.4-1.1-1.4-3.3v-4.9h-1.8V42C131.3,45.2,132.5,46.8,134.7,46.8z"/>
			<path class="st1" d="M142.1,39.6c0.2-0.8,0.4-1,0.6-1.1c0.2-0.1,0.3-0.1,0.5-0.1c0.1,0,0.3,0,0.8,0.1l0.2,0.1l0.8-1.5l-0.3-0.1
				c-0.5-0.2-1.1-0.2-1.7-0.1c-0.3,0-0.6,0.2-0.8,0.3v-0.3h-1.8v9.8h1.8L142.1,39.6z"/>
			<path class="st1" d="M148.5,36.9c-0.3,0-0.6,0.2-0.8,0.3v-0.3h-1.8v9.8h1.8l0-7.1c0.2-0.8,0.4-1,0.6-1.1c0.2-0.1,0.3-0.1,0.5-0.1
				c0.1,0,0.3,0,0.8,0.1l0.2,0.1l0.8-1.5l-0.3-0.1C149.7,36.8,149.1,36.8,148.5,36.9z"/>
			<path class="st1" d="M158.9,42.2l0-0.3h-1.7l0,0.2c-0.1,1.8-0.9,2.8-2.3,2.9c0,0-0.1,0-0.1,0c-0.5,0-1.9,0-1.9-3.4
				c0-0.2,0-0.4,0-0.6h5.6l0-0.3c-0.3-2.6-1.3-4-3.1-4.1c-0.1,0-0.3,0-0.4,0c-1.6,0-2.7,0.8-3.4,2.4c-0.3,0.6-0.4,1.4-0.4,2.4
				c0,0.6,0.1,1.4,0.2,2.2c0.3,2.1,1.5,3.2,3.3,3.3h0h0C157.3,46.8,158.7,45.3,158.9,42.2z M154.9,38.4h0.1c0.8,0,1.3,0.3,1.5,1
				h-3.3C153.6,38.8,154.2,38.4,154.9,38.4z"/>
			<path class="st1" d="M162.1,40.2c0.2-1.2,0.8-1.8,1.9-1.8l0.1,0c1,0.1,1.5,1,1.5,2.9c0,0.1,0,0.3,0,0.4v4.9h1.8v-5.1
				c0-0.1,0-0.3,0-0.4c0-2.9-1.1-4.4-3.3-4.4c-0.8,0-1.5,0.2-1.9,0.5v-0.4h-1.8v9.8h1.8L162.1,40.2z"/>
			<path class="st1" d="M176.9,42.2l0-0.3l-1.8,0l0,0.2c0,1.8-0.7,2.8-2.1,3h-0.1c-1.1,0-1.8-0.6-2-1.8c-0.1-0.5-0.1-1-0.1-1.5
				c0-0.8,0.1-1.5,0.4-2.1c0.3-0.8,0.8-1.2,1.4-1.2c0.1,0,0.2,0,0.3,0c0.7,0,1.2,0.4,1.7,1.1l0.2,0.3l1.3-1.2l-0.1-0.2
				c-0.7-1.1-1.7-1.7-3-1.7h-0.2c-1.6,0-2.8,0.8-3.3,2.4c-0.3,0.8-0.5,1.7-0.5,2.7c0,0.7,0.1,1.5,0.3,2.2c0.4,1.8,1.6,2.7,3.5,2.7
				c0.1,0,0.2,0,0.3,0C175.5,46.7,176.8,45.1,176.9,42.2z"/>
			<rect x="179.4" y="36.9" class="st1" width="1.8" height="9.8"/>
			<path class="st1" d="M180.3,35.5c0.4,0,0.6-0.1,0.9-0.4c0.2-0.2,0.3-0.5,0.3-0.8c0-0.3-0.1-0.6-0.3-0.8c-0.5-0.5-1.3-0.5-1.8,0
				c-0.2,0.2-0.4,0.5-0.4,0.8c0,0.3,0.1,0.6,0.4,0.8C179.7,35.4,180,35.5,180.3,35.5z"/>
			<path class="st1" d="M187.4,46.7h3.4l0-6.8c-0.3-2.1-1.5-3.2-3.7-3.2c-0.8,0-1.6,0.3-2.3,0.8l-0.3,0.2l1.4,1.1l0.2-0.1
				c0.3-0.2,0.6-0.3,1-0.3c0.9,0,1.5,0.5,1.7,1.4c-0.4-0.2-1-0.4-1.8-0.4c-2.2,0-3.4,1.2-3.4,3.5v0.2
				C183.7,45.5,185,46.7,187.4,46.7z M185.4,42.7c0-1.1,0.5-1.6,1.6-1.7c1.1,0,1.7,0.6,1.9,1.7v2.1h-1.7c-1.2,0-1.8-0.6-1.9-1.9
				C185.4,42.9,185.4,42.8,185.4,42.7z"/>
			<path class="st1" d="M201.3,46.7c0.1,0,0.1,0,0.2,0h4.6V34h-1.8v3.3c-0.4-0.3-1.1-0.5-1.9-0.5c-2.3,0-3.5,1.6-3.5,4.8
				c0,0.3,0,0.6,0,0.9C198.9,45.3,199.8,46.7,201.3,46.7z M202.2,38.4h0.1c1.1,0,1.7,0.6,1.9,1.7l0,4.8h-2.5c-0.8,0-1.2-0.9-1.3-2.6
				c0-0.2,0-0.4,0-0.6C200.5,38.4,201.8,38.4,202.2,38.4z"/>
			<path class="st1" d="M211.4,46.8L211.4,46.8L211.4,46.8c2.6,0,4-1.6,4.3-4.6l0-0.3H214l0,0.2c-0.1,1.8-0.9,2.8-2.3,2.9
				c0,0-0.1,0-0.1,0c-0.5,0-1.9,0-1.9-3.4c0-0.2,0-0.4,0-0.6h5.6l0-0.3c-0.3-2.6-1.3-4-3.1-4.1c-0.1,0-0.3,0-0.4,0
				c-1.6,0-2.7,0.8-3.4,2.4c-0.3,0.6-0.4,1.4-0.4,2.4c0,0.6,0.1,1.4,0.2,2.2C208.4,45.6,209.5,46.7,211.4,46.8z M211.7,38.4h0.1
				c0.8,0,1.3,0.3,1.5,1H210C210.4,38.8,210.9,38.4,211.7,38.4z"/>
			<path class="st1" d="M226.8,46.8L226.8,46.8L226.8,46.8c2.6,0,4-1.6,4.3-4.6l0-0.3h-1.7l0,0.2c-0.1,1.8-0.9,2.8-2.3,2.9
				c0,0-0.1,0-0.1,0c-0.5,0-1.9,0-1.9-3.4c0-0.2,0-0.4,0-0.6h5.6l0-0.3c-0.3-2.6-1.3-4-3.1-4.1c-0.1,0-0.3,0-0.4,0
				c-1.6,0-2.7,0.8-3.4,2.4c-0.3,0.6-0.4,1.4-0.4,2.4c0,0.6,0.1,1.4,0.2,2.2C223.8,45.6,225,46.7,226.8,46.8z M227.1,38.4h0.1
				c0.8,0,1.3,0.3,1.5,1h-3.3C225.8,38.8,226.3,38.4,227.1,38.4z"/>
			<path class="st1" d="M236.2,38.4L236.2,38.4c1.1,0.1,1.5,1,1.5,2.9c0,0.1,0,0.3,0,0.4v4.9h1.8v-5.1c0-0.1,0-0.3,0-0.4
				c0-2.9-1.1-4.4-3.3-4.4c-0.8,0-1.5,0.2-1.9,0.5v-0.4h-1.8v9.8h1.8l0-6.5C234.5,39,235.1,38.4,236.2,38.4z"/>
			<path class="st1" d="M241.7,46.7h1.8v-8.1h2.2v-1.7h-2.2V36c0-1.8,0.7-1.8,0.9-1.8c0.2,0,0.8,0,1.1,1.5l0,0.3l1.7-0.6l0-0.2
				c-0.3-1.8-1.2-2.7-2.7-2.7h-0.2c-1.7,0.1-2.6,1.4-2.6,3.7v0.7h-0.8v1.7h0.8V46.7z"/>
			<path class="st1" d="M247.4,43.5c0.3,2.1,1.5,3.2,3.3,3.3h0h0c2.6,0,4-1.6,4.2-4.6l0-0.3h-1.7l0,0.2c-0.1,1.8-0.9,2.8-2.3,2.9
				c0,0-0.1,0-0.1,0c-0.5,0-1.9,0-1.9-3.4c0-0.2,0-0.4,0-0.6h5.6l0-0.3c-0.3-2.6-1.3-4-3.1-4.1c-0.1,0-0.3,0-0.4,0
				c-1.6,0-2.7,0.8-3.4,2.4c-0.3,0.6-0.4,1.4-0.4,2.4C247.2,42,247.2,42.7,247.4,43.5z M251,38.4h0.1c0.8,0,1.3,0.3,1.5,1h-3.3
				C249.7,38.8,250.2,38.4,251,38.4z"/>
			<path class="st1" d="M257.8,39.6c0.2-0.8,0.4-1,0.6-1.1c0.2-0.1,0.3-0.1,0.5-0.1c0.1,0,0.3,0,0.8,0.1l0.2,0.1l0.8-1.5l-0.3-0.1
				c-0.5-0.2-1.1-0.2-1.7-0.1c-0.3,0-0.6,0.2-0.8,0.3v-0.3H256v9.8h1.8L257.8,39.6z"/>
			<path class="st1" d="M263.3,40.2c0.2-1.1,0.7-1.7,1.6-1.7h0.1c0.9,0,1.3,0.5,1.3,1.4v6.8h1.8v-7.4c0.4-0.7,0.9-0.9,1.7-0.7
				c0.7,0.2,1.1,1.1,1.1,2.9c0,0.1,0,0.2,0,0.3v4.9h1.8v-5.1c0-0.2,0-0.4,0-0.5c0-2.8-1.1-4.3-3.4-4.3c-0.9,0-1.7,0.3-2.2,0.8
				c-0.4-0.4-1-0.7-1.9-0.8c-0.9,0-1.5,0.2-1.9,0.5v-0.4h-1.8v9.8h1.8L263.3,40.2z"/>
			<path class="st1" d="M282.4,42.2l0-0.3h-1.7l0,0.2c-0.1,1.8-0.9,2.8-2.3,2.9c0,0-0.1,0-0.1,0c-0.5,0-1.9,0-1.9-3.4
				c0-0.2,0-0.4,0-0.6h5.6l0-0.3c-0.3-2.6-1.3-4-3.1-4.1c-0.1,0-0.3,0-0.4,0c-1.6,0-2.7,0.8-3.4,2.4c-0.3,0.6-0.4,1.4-0.4,2.4
				c0,0.6,0.1,1.4,0.2,2.2c0.3,2.1,1.5,3.2,3.3,3.3h0h0C280.7,46.8,282.2,45.3,282.4,42.2z M278.4,38.4h0.1c0.8,0,1.3,0.3,1.5,1
				h-3.3C277.1,38.8,277.6,38.4,278.4,38.4z"/>
			<path class="st1" d="M286.3,46.7c0.1,0,0.1,0,0.2,0h4.6V34h-1.8v3.3c-0.4-0.3-1.1-0.5-1.9-0.5c-2.3,0-3.5,1.6-3.5,4.8
				c0,0.3,0,0.6,0,0.9C283.9,45.3,284.8,46.7,286.3,46.7z M287.2,38.4h0.1c1.1,0,1.7,0.6,1.9,1.7l0,4.8h-2.5c-0.8,0-1.2-0.9-1.3-2.6
				c0-0.2,0-0.4,0-0.6C285.5,38.4,286.7,38.4,287.2,38.4z"/>
			<path class="st1" d="M296.5,46.7h3.4l0-6.8c-0.3-2.1-1.5-3.2-3.7-3.2c-0.8,0-1.6,0.3-2.3,0.8l-0.3,0.2l1.4,1.1l0.2-0.1
				c0.3-0.2,0.6-0.3,1-0.3c0.9,0,1.5,0.5,1.7,1.4c-0.4-0.2-1-0.4-1.8-0.4c-2.2,0-3.4,1.2-3.4,3.5v0.2
				C292.9,45.5,294.1,46.7,296.5,46.7z M294.6,42.7c0-1.1,0.5-1.6,1.6-1.7c1.1,0,1.7,0.6,1.9,1.7v2.1h-1.7c-1.2,0-1.8-0.6-1.9-1.9
				C294.6,42.9,294.6,42.8,294.6,42.7z"/>
			<path class="st1" d="M304.1,46.7c0.1,0,0.1,0,0.2,0h4.6V34H307v3.3c-0.4-0.3-1.1-0.5-1.9-0.5c-2.3,0-3.5,1.6-3.5,4.8
				c0,0.3,0,0.6,0,0.9C301.7,45.3,302.6,46.7,304.1,46.7z M305,38.4h0.1c1.1,0,1.7,0.6,1.9,1.7l0,4.8h-2.5c-0.8,0-1.2-0.9-1.3-2.6
				c0-0.2,0-0.4,0-0.6C303.3,38.4,304.5,38.4,305,38.4z"/>
			<path class="st1" d="M314.2,46.8L314.2,46.8L314.2,46.8c2.6,0,4-1.6,4.3-4.6l0-0.3h-1.7l0,0.2c-0.1,1.8-0.9,2.8-2.3,2.9
				c0,0-0.1,0-0.1,0c-0.5,0-1.9,0-1.9-3.4c0-0.2,0-0.4,0-0.6h5.6l0-0.3c-0.3-2.6-1.3-4-3.1-4.1c-0.1,0-0.3,0-0.4,0
				c-1.6,0-2.7,0.8-3.4,2.4c-0.3,0.6-0.4,1.4-0.4,2.4c0,0.6,0.1,1.4,0.2,2.2C311.2,45.6,312.3,46.7,314.2,46.8z M314.5,38.4h0.1
				c0.8,0,1.3,0.3,1.5,1h-3.3C313.1,38.8,313.7,38.4,314.5,38.4z"/>
			<path class="st1" d="M322.5,46.8c0.3,0,0.5,0.1,0.7,0.1c1.8,0,2.9-1,3.5-2.9l0.1-0.4c0.1-0.3,0.1-0.6,0.1-0.9
				c0-0.5-0.1-0.9-0.3-1.3c-0.3-0.7-1-1.1-1.9-1.4c-0.9-0.3-1.6-0.5-2.2-0.6c-0.4-0.1-0.5-0.3-0.5-0.5l0-0.1c0-0.2,0.1-0.4,0.3-0.5
				c0.2-0.1,0.3-0.1,0.4-0.1c0.1,0,0.1,0,0.1,0l0.1,0c0.5,0.1,0.9,0.4,1,1l0,0.2h1.6l0-0.3c-0.1-1.5-0.9-2.4-2.3-2.6l-0.1,0
				c-0.8-0.1-1.5,0-2.1,0.4c-0.6,0.4-0.9,0.9-1,1.6c0,0.1,0,0.2,0,0.3c0,0.5,0.1,0.9,0.4,1.3c0.3,0.4,1,0.8,2,1
				c0.9,0.2,1.5,0.4,1.9,0.6c0.3,0.1,0.5,0.3,0.6,0.6c0.1,0.1,0.1,0.3,0.1,0.5c0,0.1,0,0.3,0,0.5c0,0.1,0,0.2-0.1,0.3
				c-0.3,1-0.9,1.6-1.8,1.6c-0.1,0-0.3,0-0.4,0c-0.9-0.2-1.3-0.9-1.3-2.2c0-0.1,0-0.4,0-0.7l0-0.3h-1.9l0,0.2c0,0.3,0,0.5,0,0.6
				C319.6,45.2,320.5,46.5,322.5,46.8z"/>
			<path class="st1" d="M337.3,46.7c0.1,0,0.1,0,0.2,0h4.6V34h-1.8v3.3c-0.4-0.3-1.1-0.5-1.9-0.5c-2.3,0-3.5,1.6-3.5,4.8
				c0,0.3,0,0.6,0,0.9C334.9,45.3,335.7,46.7,337.3,46.7z M338.1,38.4h0.1c1.1,0,1.7,0.6,1.9,1.7l0,4.8h-2.5c-0.8,0-1.2-0.9-1.3-2.6
				c0-0.2,0-0.4,0-0.6C336.4,38.4,337.7,38.4,338.1,38.4z"/>
			<path class="st1" d="M345.7,35.5c0.4,0,0.6-0.1,0.9-0.4c0.2-0.2,0.3-0.5,0.3-0.8c0-0.3-0.1-0.6-0.3-0.8c-0.5-0.5-1.3-0.5-1.8,0
				c-0.2,0.2-0.4,0.5-0.4,0.8c0,0.3,0.1,0.6,0.4,0.8C345.1,35.4,345.4,35.5,345.7,35.5z"/>
			<rect x="344.8" y="36.9" class="st1" width="1.8" height="9.8"/>
			<path class="st1" d="M352.8,46.7h3.4l0-6.8c-0.3-2.1-1.5-3.2-3.7-3.2c-0.8,0-1.6,0.3-2.3,0.8l-0.3,0.2l1.4,1.1l0.2-0.1
				c0.3-0.2,0.6-0.3,1-0.3c0.9,0,1.5,0.5,1.7,1.4c-0.4-0.2-1-0.4-1.8-0.4c-2.2,0-3.4,1.2-3.4,3.5v0.2
				C349.1,45.5,350.4,46.7,352.8,46.7z M350.9,42.7c0-1.1,0.5-1.6,1.6-1.7c1.1,0,1.7,0.6,1.9,1.7v2.1h-1.7c-1.2,0-1.8-0.6-1.9-1.9
				C350.9,42.9,350.9,42.8,350.9,42.7z"/>
			<path class="st1" d="M359.7,39.6c0.2-0.8,0.4-1,0.6-1.1c0.2-0.1,0.3-0.1,0.5-0.1c0.1,0,0.3,0,0.8,0.1l0.2,0.1l0.8-1.5l-0.3-0.1
				c-0.5-0.2-1.1-0.2-1.7-0.1c-0.3,0-0.6,0.2-0.8,0.3v-0.3h-1.8v9.8h1.8L359.7,39.6z"/>
			<path class="st1" d="M366,36.9c-0.3,0-0.6,0.2-0.8,0.3v-0.3h-1.8v9.8h1.8l0-7.1c0.2-0.8,0.4-1,0.6-1.1c0.2-0.1,0.3-0.1,0.5-0.1
				c0.1,0,0.3,0,0.8,0.1l0.2,0.1l0.8-1.5l-0.3-0.1C367.2,36.8,366.6,36.8,366,36.9z"/>
			<path class="st1" d="M372.2,46.8L372.2,46.8L372.2,46.8c2.6,0,4-1.6,4.3-4.6l0-0.3h-1.7l0,0.2c-0.1,1.8-0.9,2.8-2.3,2.9
				c0,0-0.1,0-0.1,0c-0.5,0-1.9,0-1.9-3.4c0-0.2,0-0.4,0-0.6h5.6l0-0.3c-0.3-2.6-1.3-4-3.1-4.1c-0.1,0-0.3,0-0.4,0
				c-1.6,0-2.7,0.8-3.4,2.4c-0.3,0.6-0.4,1.4-0.4,2.4c0,0.6,0.1,1.4,0.2,2.2C369.2,45.6,370.3,46.7,372.2,46.8z M372.5,38.4h0.1
				c0.8,0,1.3,0.3,1.5,1h-3.3C371.1,38.8,371.7,38.4,372.5,38.4z"/>
			<path class="st1" d="M379.6,35.5c0.4,0,0.6-0.1,0.9-0.4c0.2-0.2,0.3-0.5,0.3-0.8c0-0.3-0.1-0.6-0.3-0.8c-0.5-0.5-1.3-0.5-1.8,0
				c-0.2,0.2-0.4,0.5-0.4,0.8c0,0.3,0.1,0.6,0.4,0.8C379,35.4,379.3,35.5,379.6,35.5z"/>
			<rect x="378.7" y="36.9" class="st1" width="1.8" height="9.8"/>
			<path class="st1" d="M389.1,42.2c0,1.8-0.7,2.8-2.1,3h-0.1c-1.1,0-1.8-0.6-2-1.8c-0.1-0.5-0.1-1-0.1-1.5c0-0.8,0.1-1.5,0.4-2.1
				c0.3-0.8,0.8-1.2,1.4-1.2c0.1,0,0.2,0,0.3,0c0.7,0,1.2,0.4,1.7,1.1l0.2,0.3l1.3-1.2l-0.1-0.2c-0.7-1.1-1.7-1.7-3-1.7h-0.2
				c-1.6,0-2.8,0.8-3.3,2.4c-0.3,0.8-0.5,1.7-0.5,2.7c0,0.7,0.1,1.5,0.3,2.2c0.4,1.8,1.6,2.7,3.5,2.7c0.1,0,0.2,0,0.3,0
				c2.6-0.1,3.9-1.7,4-4.6l0-0.3l-1.8,0L389.1,42.2z"/>
			<path class="st1" d="M395.6,36.7c-0.8,0-1.6,0.3-2.3,0.8l-0.3,0.2l1.4,1.1l0.2-0.1c0.3-0.2,0.6-0.3,1-0.3c0.9,0,1.5,0.5,1.7,1.4
				c-0.4-0.2-1-0.4-1.8-0.4c-2.2,0-3.4,1.2-3.4,3.5v0.2c0.1,2.4,1.3,3.6,3.8,3.6h3.4l0-6.8C398.9,37.8,397.7,36.7,395.6,36.7z
				 M397.4,42.8v2.1h-1.7c-1.2,0-1.8-0.6-1.9-1.9c0-0.1,0-0.2,0-0.2c0-1.1,0.5-1.6,1.6-1.7C396.6,41.1,397.2,41.6,397.4,42.8z"/>
			<path class="st1" d="M405.7,40.1c-0.9-0.3-1.6-0.5-2.2-0.6c-0.4-0.1-0.5-0.3-0.5-0.5l0-0.1c0-0.2,0.1-0.4,0.3-0.5
				c0.2-0.1,0.3-0.1,0.4-0.1c0.1,0,0.1,0,0.1,0l0.1,0c0.5,0.1,0.9,0.4,1,1l0,0.2h1.6l0-0.3c-0.1-1.5-0.9-2.4-2.3-2.6l-0.1,0
				c-0.8-0.1-1.5,0-2.1,0.4c-0.6,0.4-0.9,0.9-1,1.6c0,0.1,0,0.2,0,0.3c0,0.5,0.1,0.9,0.4,1.3c0.3,0.4,1,0.8,2,1
				c0.9,0.2,1.5,0.4,1.9,0.6c0.3,0.1,0.5,0.3,0.6,0.6c0.1,0.1,0.1,0.3,0.1,0.5c0,0.1,0,0.3,0,0.5c0,0.1,0,0.2-0.1,0.3
				c-0.3,1-0.9,1.6-1.8,1.6c-0.1,0-0.3,0-0.4,0c-0.9-0.2-1.3-0.9-1.3-2.2c0-0.1,0-0.4,0-0.7l0-0.3h-1.9l0,0.2c0,0.3,0,0.5,0,0.6
				c0,2.2,1,3.5,2.9,3.9c0.3,0,0.5,0.1,0.7,0.1c1.8,0,2.9-1,3.5-2.9l0.1-0.4c0.1-0.3,0.1-0.6,0.1-0.9c0-0.5-0.1-0.9-0.3-1.3
				C407.3,40.8,406.6,40.3,405.7,40.1z"/>
			<path class="st1" d="M411.4,44.2c-0.3-0.3-0.6-0.4-1.1-0.4c-0.4,0-0.8,0.1-1.1,0.4c-0.3,0.3-0.4,0.6-0.4,1c0,0.4,0.1,0.8,0.4,1
				c0.3,0.3,0.6,0.4,1.1,0.4c0.4,0,0.8-0.1,1.1-0.4c0.3-0.3,0.4-0.6,0.4-1C411.8,44.8,411.7,44.5,411.4,44.2z"/>
			<polygon class="st1" points="28.6,78.8 28.6,66.1 26.8,66.1 26.8,66.4 23.2,72.2 19.4,66 17.8,66 17.8,78.7 19.6,78.7 19.6,69.8 
				22.3,74.1 24.1,74.1 26.8,69.8 26.8,78.8 			"/>
			<path class="st1" d="M30.9,71.1c-0.3,0.6-0.4,1.4-0.4,2.4c0,0.6,0.1,1.4,0.2,2.2c0.3,2.1,1.5,3.2,3.3,3.3h0h0
				c2.6,0,4-1.6,4.2-4.6l0-0.3h-1.7l0,0.2c-0.1,1.8-0.9,2.8-2.3,2.9c0,0-0.1,0-0.1,0c-0.5,0-1.9,0-1.9-3.4c0-0.2,0-0.4,0-0.6h5.6
				l0-0.3c-0.3-2.6-1.3-4-3.1-4.1c-0.1,0-0.3,0-0.4,0C32.7,68.7,31.6,69.5,30.9,71.1z M32.6,71.5c0.4-0.7,0.9-1,1.7-1h0.1
				c0.8,0,1.3,0.3,1.5,1H32.6z"/>
			<path class="st1" d="M37.6,80.2l-0.3,0l0.5,1.8L38,82c2.1-0.5,3.2-1.7,3.2-3.6V69h-1.8l0,9.4C39.4,79.4,38.7,80,37.6,80.2z"/>
			<path class="st1" d="M41.2,65.6c-0.5-0.5-1.3-0.5-1.8,0c-0.2,0.2-0.3,0.5-0.3,0.8c0,0.3,0.1,0.6,0.3,0.8c0.2,0.2,0.5,0.4,0.9,0.4
				c0.3,0,0.6-0.1,0.9-0.3c0.2-0.2,0.4-0.5,0.4-0.8C41.5,66.1,41.4,65.8,41.2,65.6z"/>
			<path class="st1" d="M47.2,68.6c-2.4,0-3.7,1.7-3.9,5.1c0.1,3.5,1.4,5.2,3.9,5.2c2.5,0,3.8-1.8,3.9-5.3
				C50.9,70.3,49.6,68.6,47.2,68.6z M47.2,77.2c-1.4,0-2-1.1-2.1-3.4c0.1-2.2,0.8-3.3,2.1-3.3c1.3,0,2,1.1,2.1,3.3
				C49.3,76.1,48.6,77.2,47.2,77.2z"/>
			<path class="st1" d="M54.3,71.7c0.2-0.8,0.4-1,0.6-1.1c0.2-0.1,0.3-0.1,0.5-0.1c0.1,0,0.3,0,0.8,0.1l0.2,0.1l0.8-1.5l-0.3-0.1
				c-0.5-0.2-1.1-0.2-1.7-0.1c-0.3,0-0.6,0.2-0.8,0.3V69h-1.8v9.8h1.8L54.3,71.7z"/>
			<path class="st1" d="M57.8,75v0.2c0.1,2.4,1.3,3.6,3.8,3.6h3.4l0-6.8c-0.3-2.1-1.5-3.2-3.7-3.2c-0.8,0-1.6,0.3-2.3,0.8l-0.3,0.2
				l1.4,1.1l0.2-0.1c0.3-0.2,0.6-0.3,1-0.3c0.9,0,1.5,0.5,1.7,1.4c-0.4-0.2-1-0.4-1.8-0.4C58.9,71.5,57.8,72.7,57.8,75z M63.1,74.9
				v2.1h-1.7c-1.2,0-1.8-0.6-1.9-1.9c0-0.1,0-0.2,0-0.2c0-1.1,0.5-1.6,1.6-1.7C62.3,73.2,62.9,73.7,63.1,74.9z"/>
			<path class="st1" d="M70.3,70.5L70.3,70.5c1.1,0.1,1.5,1,1.5,2.9c0,0.1,0,0.3,0,0.4v4.9h1.8v-5.1c0-0.1,0-0.3,0-0.4
				c0-2.9-1.1-4.4-3.3-4.4c-0.8,0-1.5,0.2-1.9,0.5V69h-1.8v9.8h1.8l0-6.5C68.6,71.1,69.2,70.5,70.3,70.5z"/>
			<rect x="82.3" y="66.1" class="st1" width="1.8" height="12.7"/>
			<path class="st1" d="M89.7,68.8c-0.8,0-1.6,0.3-2.3,0.8l-0.3,0.2l1.4,1.1l0.2-0.1c0.3-0.2,0.6-0.3,1-0.3c0.9,0,1.5,0.5,1.7,1.4
				c-0.4-0.2-1-0.4-1.8-0.4c-2.2,0-3.4,1.2-3.4,3.5v0.2c0.1,2.4,1.3,3.6,3.8,3.6h3.4l0-6.8C93,69.9,91.8,68.8,89.7,68.8z M91.5,74.9
				v2.1h-1.7c-1.2,0-1.8-0.6-1.9-1.9c0-0.1,0-0.2,0-0.2c0-1.1,0.5-1.6,1.6-1.7C90.7,73.2,91.3,73.7,91.5,74.9z"/>
			<path class="st1" d="M108.3,78.8l0-6.8c-0.3-2.1-1.5-3.2-3.7-3.2c-0.8,0-1.6,0.3-2.3,0.8l-0.3,0.2l1.4,1.1l0.2-0.1
				c0.3-0.2,0.6-0.3,1-0.3c0.9,0,1.5,0.5,1.7,1.4c-0.4-0.2-1-0.4-1.8-0.4c-2.2,0-3.4,1.2-3.4,3.5v0.2c0.1,2.4,1.3,3.6,3.8,3.6H108.3
				z M103,75.1c0-0.1,0-0.2,0-0.2c0-1.1,0.5-1.6,1.6-1.7c1.1,0,1.7,0.6,1.9,1.7v2.1h-1.7C103.6,76.9,103,76.4,103,75.1z"/>
			<path class="st1" d="M117.4,73.6c0-3.2-1.2-4.8-3.5-4.8c-0.8,0-1.5,0.2-1.9,0.5v-3.3h-1.8v12.7l4.5,0c0.1,0,0.1,0,0.2,0
				c1.6,0,2.4-1.4,2.5-4.3C117.4,74.2,117.4,73.9,117.4,73.6z M113.8,70.5h0.1c0.4,0,1.7,0,1.7,3.3v0.6c0,1.7-0.5,2.6-1.3,2.6h-2.5
				l0-4.8C112.1,71.1,112.7,70.5,113.8,70.5z"/>
			<path class="st1" d="M124,72.1c-0.9-0.3-1.6-0.5-2.2-0.6c-0.4-0.1-0.5-0.3-0.5-0.5l0-0.1c0-0.2,0.1-0.4,0.3-0.5
				c0.2-0.1,0.3-0.1,0.4-0.1c0.1,0,0.1,0,0.1,0l0.1,0c0.5,0.1,0.9,0.4,1,1l0,0.2h1.6l0-0.3c-0.1-1.5-0.9-2.4-2.3-2.6l-0.1,0
				c-0.8-0.1-1.5,0-2.1,0.4c-0.6,0.4-0.9,0.9-1,1.6c0,0.1,0,0.2,0,0.3c0,0.5,0.1,0.9,0.4,1.3c0.3,0.4,1,0.8,2,1
				c0.9,0.2,1.5,0.4,1.9,0.6c0.3,0.1,0.5,0.3,0.6,0.6c0.1,0.1,0.1,0.3,0.1,0.5c0,0.1,0,0.3,0,0.5c0,0.1,0,0.2-0.1,0.3
				c-0.3,1-0.9,1.6-1.8,1.6c-0.1,0-0.3,0-0.4,0c-0.9-0.2-1.3-0.9-1.3-2.2c0-0.1,0-0.4,0-0.7l0-0.3h-1.9l0,0.2c0,0.3,0,0.5,0,0.6
				c0,2.2,1,3.5,2.9,3.9c0.3,0,0.5,0.1,0.7,0.1c1.8,0,2.9-1,3.5-2.9l0.1-0.4c0.1-0.3,0.1-0.6,0.1-0.9c0-0.5-0.1-0.9-0.3-1.3
				C125.6,72.9,124.9,72.4,124,72.1z"/>
			<path class="st1" d="M135.1,73.7c-0.2-3.4-1.5-5.1-3.9-5.1c-2.4,0-3.7,1.7-3.9,5.1c0.1,3.5,1.4,5.2,3.9,5.2
				C133.7,79,135,77.2,135.1,73.7z M131.2,77.2c-1.4,0-2-1.1-2.1-3.4c0.1-2.2,0.8-3.3,2.1-3.3c1.3,0,2,1.1,2.1,3.3
				C133.2,76.1,132.5,77.2,131.2,77.2z"/>
			<path class="st1" d="M140.8,69.1c-0.5-0.2-1.1-0.2-1.7-0.1c-0.3,0-0.6,0.2-0.8,0.3V69h-1.8v9.8h1.8l0-7.1c0.2-0.8,0.4-1,0.6-1.1
				c0.2-0.1,0.3-0.1,0.5-0.1c0.1,0,0.3,0,0.8,0.1l0.2,0.1l0.8-1.5L140.8,69.1z"/>
			<path class="st1" d="M147.9,74.3c0,1.8-0.7,2.8-2.1,3h-0.1c-1.1,0-1.8-0.6-2-1.8c-0.1-0.5-0.1-1-0.1-1.5c0-0.8,0.1-1.5,0.4-2.1
				c0.3-0.8,0.8-1.2,1.4-1.2c0.1,0,0.2,0,0.3,0c0.7,0,1.2,0.4,1.7,1.1l0.2,0.3l1.3-1.2l-0.1-0.2c-0.7-1.1-1.7-1.7-3-1.7h-0.2
				c-1.6,0-2.8,0.8-3.3,2.4c-0.3,0.8-0.5,1.7-0.5,2.7c0,0.7,0.1,1.5,0.3,2.2c0.4,1.8,1.6,2.7,3.5,2.7c0.1,0,0.2,0,0.3,0
				c2.6-0.1,3.9-1.7,4-4.6l0-0.3l-1.8,0L147.9,74.3z"/>
			<rect x="152.1" y="69" class="st1" width="1.8" height="9.8"/>
			<path class="st1" d="M152.2,65.6c-0.2,0.2-0.4,0.5-0.4,0.8c0,0.3,0.1,0.6,0.4,0.8c0.2,0.2,0.5,0.4,0.9,0.4c0.4,0,0.6-0.1,0.9-0.4
				c0.2-0.2,0.3-0.5,0.3-0.8c0-0.3-0.1-0.6-0.3-0.8C153.5,65.1,152.7,65.1,152.2,65.6z"/>
			<path class="st1" d="M164,73.7c-0.2-3.4-1.5-5.1-3.9-5.1c-2.4,0-3.7,1.7-3.9,5.1c0.1,3.5,1.4,5.2,3.9,5.2
				C162.6,79,163.9,77.2,164,73.7z M160.1,77.2c-1.4,0-2-1.1-2.1-3.4c0.1-2.2,0.8-3.3,2.1-3.3c1.3,0,2,1.1,2.1,3.3
				C162.1,76.1,161.5,77.2,160.1,77.2z"/>
			<polygon class="st1" points="160.3,68.4 162.7,65.5 159.8,65.5 158.7,68.4 			"/>
			<path class="st1" d="M169.1,68.9c-0.8,0-1.5,0.2-1.9,0.5V69h-1.8v9.8h1.8l0-6.5c0.2-1.2,0.8-1.8,1.9-1.8l0.1,0
				c1,0.1,1.5,1,1.5,2.9c0,0.1,0,0.3,0,0.4v4.9h1.8v-5.1c0-0.1,0-0.3,0-0.4C172.5,70.3,171.4,68.9,169.1,68.9z"/>
			<path class="st1" d="M187.8,66.1H186v3.3c-0.4-0.3-1.1-0.5-1.9-0.5c-2.3,0-3.5,1.6-3.5,4.8c0,0.3,0,0.6,0,0.9
				c0.1,2.8,1,4.3,2.5,4.3c0.1,0,0.1,0,0.2,0h4.6V66.1z M184,70.5h0.1c1.1,0,1.7,0.6,1.9,1.7l0,4.8h-2.5c-0.8,0-1.2-0.9-1.3-2.6
				c0-0.2,0-0.4,0-0.6C182.3,70.5,183.6,70.5,184,70.5z"/>
			<path class="st1" d="M193.2,78.9L193.2,78.9L193.2,78.9c2.6,0,4-1.6,4.3-4.6l0-0.3h-1.7l0,0.2c-0.1,1.8-0.9,2.8-2.3,2.9
				c0,0-0.1,0-0.1,0c-0.5,0-1.9,0-1.9-3.4c0-0.2,0-0.4,0-0.6h5.6l0-0.3c-0.3-2.6-1.3-4-3.1-4.1c-0.1,0-0.3,0-0.4,0
				c-1.6,0-2.7,0.8-3.4,2.4c-0.3,0.6-0.4,1.4-0.4,2.4c0,0.6,0.1,1.4,0.2,2.2C190.2,77.7,191.3,78.8,193.2,78.9z M193.5,70.5h0.1
				c0.8,0,1.3,0.3,1.5,1h-3.3C192.2,70.8,192.7,70.5,193.5,70.5z"/>
			<path class="st1" d="M208.9,70.5L208.9,70.5c1.1,0.1,1.5,1,1.5,2.9c0,0.1,0,0.3,0,0.4v4.9h1.8v-5.1c0-0.1,0-0.3,0-0.4
				c0-2.9-1.1-4.4-3.3-4.4c-0.8,0-1.5,0.2-1.9,0.5V69h-1.8v9.8h1.8l0-6.5C207.2,71.1,207.8,70.5,208.9,70.5z"/>
			<path class="st1" d="M214.2,69v5.1c0,3.2,1.1,4.8,3.3,4.8c0.9,0,1.5-0.2,1.9-0.5v0.4h1.8V69h-1.8l0,6.5c-0.2,1.2-0.8,1.8-1.9,1.8
				h-0.1c-0.9,0-1.4-1.1-1.4-3.3V69H214.2z"/>
			<polygon class="st1" points="225.8,78.8 225.8,70.7 227.3,70.7 227.3,69 225.8,69 225.8,66.9 224,66.9 224,69 222.6,69 
				222.6,70.7 224,70.7 224,78.8 			"/>
			<path class="st1" d="M230.3,69h-1.8v9.8h1.8l0-7.1c0.2-0.8,0.4-1,0.6-1.1c0.2-0.1,0.3-0.1,0.5-0.1c0.1,0,0.3,0,0.8,0.1l0.2,0.1
				l0.8-1.5l-0.3-0.1c-0.5-0.2-1.1-0.2-1.7-0.1c-0.3,0-0.6,0.2-0.8,0.3V69z"/>
			<path class="st1" d="M235.8,67.6c0.4,0,0.6-0.1,0.9-0.4c0.2-0.2,0.3-0.5,0.3-0.8c0-0.3-0.1-0.6-0.3-0.8c-0.5-0.5-1.3-0.5-1.8,0
				c-0.2,0.2-0.4,0.5-0.4,0.8c0,0.3,0.1,0.6,0.4,0.8C235.2,67.5,235.5,67.6,235.8,67.6z"/>
			<rect x="234.9" y="69" class="st1" width="1.8" height="9.8"/>
			<path class="st1" d="M242.8,78.9L242.8,78.9L242.8,78.9c2.6,0,4-1.6,4.3-4.6l0-0.3h-1.7l0,0.2c-0.1,1.8-0.9,2.8-2.3,2.9
				c0,0-0.1,0-0.1,0c-0.5,0-1.9,0-1.9-3.4c0-0.2,0-0.4,0-0.6h5.6l0-0.3c-0.3-2.6-1.3-4-3.1-4.1c-0.1,0-0.3,0-0.4,0
				c-1.6,0-2.7,0.8-3.4,2.4c-0.3,0.6-0.4,1.4-0.4,2.4c0,0.6,0.1,1.4,0.2,2.2C239.8,77.7,240.9,78.8,242.8,78.9z M243,70.5h0.1
				c0.8,0,1.3,0.3,1.5,1h-3.3C241.7,70.8,242.3,70.5,243,70.5z"/>
			<path class="st1" d="M250.2,72.3c0.2-1.2,0.8-1.8,1.9-1.8l0.1,0c1,0.1,1.5,1,1.5,2.9c0,0.1,0,0.3,0,0.4v4.9h1.8v-5.1
				c0-0.1,0-0.3,0-0.4c0-2.9-1.1-4.4-3.3-4.4c-0.8,0-1.5,0.2-1.9,0.5V69h-1.8v9.8h1.8L250.2,72.3z"/>
			<polygon class="st1" points="259.7,66.9 257.9,66.9 257.9,69 256.5,69 256.5,70.7 257.9,70.7 257.9,78.8 259.7,78.8 259.7,70.7 
				261.2,70.7 261.2,69 259.7,69 			"/>
			<path class="st1" d="M265.4,78.9L265.4,78.9c2.6,0,4-1.6,4.3-4.6l0-0.3H268l0,0.2c-0.1,1.8-0.9,2.8-2.3,2.9c0,0-0.1,0-0.1,0
				c-0.5,0-1.9,0-1.9-3.4c0-0.2,0-0.4,0-0.6h5.6l0-0.3c-0.3-2.6-1.3-4-3.1-4.1c-0.1,0-0.3,0-0.4,0c-1.6,0-2.7,0.8-3.4,2.4
				c-0.3,0.6-0.4,1.4-0.4,2.4c0,0.6,0.1,1.4,0.2,2.2C262.4,77.7,263.5,78.8,265.4,78.9L265.4,78.9z M265.7,70.5h0.1
				c0.8,0,1.3,0.3,1.5,1H264C264.3,70.8,264.9,70.5,265.7,70.5z"/>
			<path class="st1" d="M275.9,72.1c-0.9-0.3-1.6-0.5-2.2-0.6c-0.4-0.1-0.5-0.3-0.5-0.5l0-0.1c0-0.2,0.1-0.4,0.3-0.5
				c0.2-0.1,0.3-0.1,0.4-0.1c0.1,0,0.1,0,0.1,0l0.1,0c0.5,0.1,0.9,0.4,1,1l0,0.2h1.6l0-0.3c-0.1-1.5-0.9-2.4-2.3-2.6l-0.1,0
				c-0.8-0.1-1.5,0-2.1,0.4c-0.6,0.4-0.9,0.9-1,1.6c0,0.1,0,0.2,0,0.3c0,0.5,0.1,0.9,0.4,1.3c0.3,0.4,1,0.8,2,1
				c0.9,0.2,1.5,0.4,1.9,0.6c0.3,0.1,0.5,0.3,0.6,0.6c0.1,0.1,0.1,0.3,0.1,0.5c0,0.1,0,0.3,0,0.5c0,0.1,0,0.2-0.1,0.3
				c-0.3,1-0.9,1.6-1.8,1.6c-0.1,0-0.3,0-0.4,0c-0.9-0.2-1.3-0.9-1.3-2.2c0-0.1,0-0.4,0-0.7l0-0.3h-1.9l0,0.2c0,0.3,0,0.5,0,0.6
				c0,2.2,1,3.5,2.9,3.9c0.3,0,0.5,0.1,0.7,0.1c1.8,0,2.9-1,3.5-2.9l0.1-0.4c0.1-0.3,0.1-0.6,0.1-0.9c0-0.5-0.1-0.9-0.3-1.3
				C277.4,72.9,276.8,72.4,275.9,72.1z"/>
			<path class="st1" d="M289.2,77.2h-0.1c-0.9,0-1.4-1.1-1.4-3.3V69h-1.8v5.1c0,3.2,1.1,4.8,3.3,4.8c0.8,0,1.4-0.1,1.8-0.4
				c-0.2,1-0.8,1.4-1.8,1.4c-0.3,0-0.6-0.1-1-0.3l-0.2-0.1l-1.4,1.1l0.3,0.2c0.7,0.5,1.5,0.8,2.3,0.8h0h0c2.1-0.1,3.3-1.1,3.7-3.2
				V69h-1.8l0,6.5C290.9,76.6,290.3,77.2,289.2,77.2z"/>
			<path class="st1" d="M309,68.9c-0.9,0-1.7,0.3-2.2,0.8c-0.4-0.4-1-0.7-1.9-0.8c-0.9,0-1.5,0.2-1.9,0.5V69H301v9.8h1.8l0-6.5
				c0.2-1.1,0.7-1.7,1.6-1.7h0.1c0.9,0,1.3,0.5,1.3,1.4v6.8h1.8v-7.4c0.4-0.7,0.9-0.9,1.7-0.7c0.7,0.2,1.1,1.1,1.1,2.9
				c0,0.1,0,0.2,0,0.3v4.9h1.8v-5.1c0-0.2,0-0.4,0-0.5C312.3,70.3,311.2,68.9,309,68.9z"/>
			<path class="st1" d="M321.6,73.2l0-0.3c-0.3-2.6-1.3-4-3.1-4.1c-0.1,0-0.3,0-0.4,0c-1.6,0-2.7,0.8-3.4,2.4
				c-0.3,0.6-0.4,1.4-0.4,2.4c0,0.6,0.1,1.4,0.2,2.2c0.3,2.1,1.5,3.2,3.3,3.3h0h0c2.6,0,4-1.6,4.2-4.6l0-0.3h-1.7l0,0.2
				c-0.1,1.8-0.9,2.8-2.3,2.9c0,0-0.1,0-0.1,0c-0.5,0-1.9,0-1.9-3.4c0-0.2,0-0.4,0-0.6H321.6z M318,70.5h0.1c0.8,0,1.3,0.3,1.5,1
				h-3.3C316.7,70.8,317.2,70.5,318,70.5z"/>
			<path class="st1" d="M328.8,69.3c-0.4-0.3-1.1-0.5-1.9-0.5c-2.3,0-3.5,1.6-3.5,4.8c0,0.3,0,0.6,0,0.9c0.1,2.8,1,4.3,2.5,4.3
				c0.1,0,0.1,0,0.2,0h4.6V66.1h-1.8V69.3z M326.8,70.5h0.1c1.1,0,1.7,0.6,1.9,1.7l0,4.8h-2.5c-0.8,0-1.2-0.9-1.3-2.6
				c0-0.2,0-0.4,0-0.6C325,70.5,326.3,70.5,326.8,70.5z"/>
			<rect x="333.4" y="69" class="st1" width="1.8" height="9.8"/>
			<path class="st1" d="M334.4,67.6c0.4,0,0.6-0.1,0.9-0.4c0.2-0.2,0.3-0.5,0.3-0.8c0-0.3-0.1-0.6-0.3-0.8c-0.5-0.5-1.3-0.5-1.8,0
				c-0.2,0.2-0.4,0.5-0.4,0.8c0,0.3,0.1,0.6,0.4,0.8C333.7,67.5,334,67.6,334.4,67.6z"/>
			<path class="st1" d="M341.7,78.9c2.6-0.1,3.9-1.7,4-4.6l0-0.3l-1.8,0l0,0.2c0,1.8-0.7,2.8-2.1,3h-0.1c-1.1,0-1.8-0.6-2-1.8
				c-0.1-0.5-0.1-1-0.1-1.5c0-0.8,0.1-1.5,0.4-2.1c0.3-0.8,0.8-1.2,1.4-1.2c0.1,0,0.2,0,0.3,0c0.7,0,1.2,0.4,1.7,1.1l0.2,0.3
				l1.3-1.2l-0.1-0.2c-0.7-1.1-1.7-1.7-3-1.7h-0.2c-1.6,0-2.8,0.8-3.3,2.4c-0.3,0.8-0.5,1.7-0.5,2.7c0,0.7,0.1,1.5,0.3,2.2
				c0.4,1.8,1.6,2.7,3.5,2.7C341.5,78.9,341.6,78.9,341.7,78.9z"/>
			<path class="st1" d="M354,78.8l0-6.8c-0.3-2.1-1.5-3.2-3.7-3.2c-0.8,0-1.6,0.3-2.3,0.8l-0.3,0.2l1.4,1.1l0.2-0.1
				c0.3-0.2,0.6-0.3,1-0.3c0.9,0,1.5,0.5,1.7,1.4c-0.4-0.2-1-0.4-1.8-0.4c-2.2,0-3.4,1.2-3.4,3.5v0.2c0.1,2.4,1.3,3.6,3.8,3.6H354z
				 M348.6,75.1c0-0.1,0-0.2,0-0.2c0-1.1,0.5-1.6,1.6-1.7c1.1,0,1.7,0.6,1.9,1.7v2.1h-1.7C349.3,76.9,348.7,76.4,348.6,75.1z"/>
			<path class="st1" d="M363.5,68.9c-0.9,0-1.7,0.3-2.2,0.8c-0.4-0.4-1-0.7-1.9-0.8c-0.9,0-1.5,0.2-1.9,0.5V69h-1.8v9.8h1.8l0-6.5
				c0.2-1.1,0.7-1.7,1.6-1.7h0.1c0.9,0,1.3,0.5,1.3,1.4v6.8h1.8v-7.4c0.4-0.7,0.9-0.9,1.7-0.7c0.7,0.2,1.1,1.1,1.1,2.9
				c0,0.1,0,0.2,0,0.3v4.9h1.8v-5.1c0-0.2,0-0.4,0-0.5C366.9,70.3,365.8,68.9,363.5,68.9z"/>
			<path class="st1" d="M374.8,74.3c-0.1,1.8-0.9,2.8-2.3,2.9c0,0-0.1,0-0.1,0c-0.5,0-1.9,0-1.9-3.4c0-0.2,0-0.4,0-0.6h5.6l0-0.3
				c-0.3-2.6-1.3-4-3.1-4.1c-0.1,0-0.3,0-0.4,0c-1.6,0-2.7,0.8-3.4,2.4c-0.3,0.6-0.4,1.4-0.4,2.4c0,0.6,0.1,1.4,0.2,2.2
				c0.3,2.1,1.5,3.2,3.3,3.3h0h0c2.6,0,4-1.6,4.2-4.6l0-0.3h-1.7L374.8,74.3z M372.5,70.5h0.1c0.8,0,1.3,0.3,1.5,1h-3.3
				C371.2,70.8,371.8,70.5,372.5,70.5z"/>
			<path class="st1" d="M379.7,72.3c0.2-1.2,0.8-1.8,1.9-1.8l0.1,0c1,0.1,1.5,1,1.5,2.9c0,0.1,0,0.3,0,0.4v4.9h1.8v-5.1
				c0-0.1,0-0.3,0-0.4c0-2.9-1.1-4.4-3.3-4.4c-0.8,0-1.5,0.2-1.9,0.5V69h-1.8v9.8h1.8L379.7,72.3z"/>
			<polygon class="st1" points="389.2,66.9 387.4,66.9 387.4,69 386,69 386,70.7 387.4,70.7 387.4,78.8 389.2,78.8 389.2,70.7 
				390.7,70.7 390.7,69 389.2,69 			"/>
			<path class="st1" d="M395.1,68.6c-2.4,0-3.7,1.7-3.9,5.1c0.1,3.5,1.4,5.2,3.9,5.2c2.5,0,3.8-1.8,3.9-5.3
				C398.8,70.3,397.5,68.6,395.1,68.6z M395.1,77.2c-1.4,0-2-1.1-2.1-3.4c0.1-2.2,0.8-3.3,2.1-3.3c1.3,0,2,1.1,2.1,3.3
				C397.1,76.1,396.5,77.2,395.1,77.2z"/>
			<path class="st1" d="M405.2,72.1c-0.9-0.3-1.6-0.5-2.2-0.6c-0.4-0.1-0.5-0.3-0.5-0.5l0-0.1c0-0.2,0.1-0.4,0.3-0.5
				c0.2-0.1,0.3-0.1,0.4-0.1c0.1,0,0.1,0,0.1,0l0.1,0c0.5,0.1,0.9,0.4,1,1l0,0.2h1.6l0-0.3c-0.1-1.5-0.9-2.4-2.3-2.6l-0.1,0
				c-0.8-0.1-1.5,0-2.1,0.4c-0.6,0.4-0.9,0.9-1,1.6c0,0.1,0,0.2,0,0.3c0,0.5,0.1,0.9,0.4,1.3c0.3,0.4,1,0.8,2,1
				c0.9,0.2,1.5,0.4,1.9,0.6c0.3,0.1,0.5,0.3,0.6,0.6c0.1,0.1,0.1,0.3,0.1,0.5c0,0.1,0,0.3,0,0.5c0,0.1,0,0.2-0.1,0.3
				c-0.3,1-0.9,1.6-1.8,1.6c-0.1,0-0.3,0-0.4,0c-0.9-0.2-1.3-0.9-1.3-2.2c0-0.1,0-0.4,0-0.7l0-0.3h-1.9l0,0.2c0,0.3,0,0.5,0,0.6
				c0,2.2,1,3.5,2.9,3.9c0.3,0,0.5,0.1,0.7,0.1c1.8,0,2.9-1,3.5-2.9l0.1-0.4c0.1-0.3,0.1-0.6,0.1-0.9c0-0.5-0.1-0.9-0.3-1.3
				C406.8,72.9,406.2,72.4,405.2,72.1z"/>
			<path class="st1" d="M409.9,75.8c-0.4,0-0.8,0.1-1.1,0.4c-0.3,0.3-0.4,0.6-0.4,1c0,0.4,0.1,0.8,0.4,1c0.3,0.3,0.6,0.4,1.1,0.4
				c0.4,0,0.8-0.1,1.1-0.4c0.3-0.3,0.4-0.6,0.4-1c0-0.4-0.1-0.7-0.4-1C410.6,76,410.3,75.8,409.9,75.8z"/>
			<path class="st1" d="M23.7,102.3c-1.1-0.3-2.1-0.6-2.9-0.8c-0.7-0.2-0.8-0.6-0.8-0.9l0-0.1c0.1-0.4,0.2-0.6,0.5-0.8
				c0.3-0.2,0.6-0.2,1-0.2l0.1,0c0.8,0.1,1.4,0.6,1.6,1.4l0.1,0.2h1.6l0-0.3c-0.2-1.8-1.1-2.8-2.9-3l-0.2,0c-0.2,0-0.3,0-0.5,0
				c-0.8,0-1.4,0.2-2,0.6c-0.7,0.5-1.1,1.2-1.2,2c0,0.1,0,0.2,0,0.3c0,0.6,0.2,1.1,0.6,1.6c0.4,0.5,1.3,0.9,2.5,1.2
				c1.2,0.3,2,0.5,2.5,0.7c0.4,0.2,0.8,0.4,0.9,0.8c0.1,0.2,0.2,0.5,0.2,0.9c0,0.2,0,0.4,0,0.6c0,0.2,0,0.3-0.1,0.5
				c-0.4,1.5-1.3,2.3-2.6,2.3c-0.1,0-0.3,0-0.4,0c-1.4-0.2-2.1-1.3-2.1-3.2c0-0.2,0-0.5,0-0.8l0-0.3h-1.9l0,0.2c0,0.3,0,0.6,0,0.8
				c0,3,1.3,4.6,3.8,5c0.3,0,0.5,0,0.7,0c2.3,0,3.7-1.3,4.4-3.8l0.1-0.5c0-0.3,0.1-0.7,0.1-1c0-0.7-0.1-1.3-0.4-1.8
				C25.6,103.2,24.8,102.6,23.7,102.3z"/>
			<path class="st1" d="M31.6,100.7c-2.4,0-3.7,1.7-3.9,5.1c0.1,3.5,1.4,5.2,3.9,5.2c2.5,0,3.8-1.8,3.9-5.3
				C35.3,102.4,33.9,100.7,31.6,100.7z M31.6,109.3c-1.4,0-2-1.1-2.1-3.4c0.1-2.2,0.8-3.3,2.1-3.3c1.3,0,2,1.1,2.1,3.3
				C33.6,108.2,32.9,109.3,31.6,109.3z"/>
			<path class="st1" d="M40.6,101c-0.8,0-1.5,0.2-1.9,0.5v-0.4h-1.8v9.8h1.8l0-6.5c0.2-1.2,0.8-1.8,1.9-1.8l0.1,0
				c1,0.1,1.5,1,1.5,2.9c0,0.1,0,0.3,0,0.4v4.9h1.8v-5.1c0-0.1,0-0.3,0-0.4C43.9,102.4,42.8,101,40.6,101z"/>
			<path class="st1" d="M55.3,100.9c-0.8,0-1.6,0.3-2.3,0.8l-0.3,0.2l1.4,1.1l0.2-0.1c0.3-0.2,0.6-0.3,1-0.3c0.9,0,1.5,0.5,1.7,1.4
				c-0.4-0.2-1-0.4-1.8-0.4c-2.2,0-3.4,1.2-3.4,3.5v0.2c0.1,2.4,1.3,3.6,3.8,3.6h3.4l0-6.8C58.6,102,57.4,100.9,55.3,100.9z
				 M57.1,107v2.1h-1.7c-1.2,0-1.8-0.6-1.9-1.9c0-0.1,0-0.2,0-0.2c0-1.1,0.5-1.6,1.6-1.7C56.3,105.3,57,105.8,57.1,107z"/>
			<path class="st1" d="M66,107.5c-0.2,1.2-0.8,1.8-1.9,1.8H64c-0.9,0-1.4-1.1-1.4-3.3v-4.9h-1.8v5.1c0,3.2,1.1,4.8,3.3,4.8
				c0.9,0,1.5-0.2,1.9-0.5v0.4h1.8v-9.8H66L66,107.5z"/>
			<polygon class="st1" points="75.5,101.1 73.2,104.4 71,101.1 69,101.1 72.2,106 69,110.9 71,110.9 73.2,107.5 75.5,110.9 
				77.5,110.9 74.3,106 77.5,101.1 			"/>
			<rect x="79.4" y="101.1" class="st1" width="1.8" height="9.8"/>
			<path class="st1" d="M79.4,97.6c-0.2,0.2-0.4,0.5-0.4,0.8c0,0.3,0.1,0.6,0.4,0.8c0.2,0.2,0.5,0.4,0.9,0.4c0.4,0,0.6-0.1,0.9-0.4
				c0.2-0.2,0.3-0.5,0.3-0.8c0-0.3-0.1-0.6-0.3-0.8C80.7,97.2,79.9,97.2,79.4,97.6z"/>
			<rect x="84.4" y="98.2" class="st1" width="1.8" height="12.7"/>
			<path class="st1" d="M89.4,97.6c-0.2,0.2-0.4,0.5-0.4,0.8c0,0.3,0.1,0.6,0.4,0.8c0.2,0.2,0.5,0.4,0.9,0.4c0.4,0,0.6-0.1,0.9-0.4
				c0.2-0.2,0.3-0.5,0.3-0.8c0-0.3-0.1-0.6-0.3-0.8C90.7,97.2,89.9,97.2,89.4,97.6z"/>
			<rect x="89.4" y="101.1" class="st1" width="1.8" height="9.8"/>
			<path class="st1" d="M97.1,100.9c-0.8,0-1.6,0.3-2.3,0.8l-0.3,0.2L96,103l0.2-0.1c0.3-0.2,0.6-0.3,1-0.3c0.9,0,1.5,0.5,1.7,1.4
				c-0.4-0.2-1-0.4-1.8-0.4c-2.2,0-3.4,1.2-3.4,3.5v0.2c0.1,2.4,1.3,3.6,3.8,3.6h3.4l0-6.8C100.5,102,99.3,100.9,97.1,100.9z
				 M99,107v2.1h-1.7c-1.2,0-1.8-0.6-1.9-1.9c0-0.1,0-0.2,0-0.2c0-1.1,0.5-1.6,1.6-1.7C98.2,105.3,98.8,105.8,99,107z"/>
			<path class="st1" d="M105.1,101.1c-0.3,0-0.6,0.2-0.8,0.3v-0.3h-1.8v9.8h1.8l0-7.1c0.2-0.8,0.4-1,0.6-1.1
				c0.2-0.1,0.3-0.1,0.5-0.1c0.1,0,0.3,0,0.8,0.1l0.2,0.1l0.8-1.5l-0.3-0.1C106.3,101,105.7,101,105.1,101.1z"/>
			<path class="st1" d="M113.8,106.4c-0.1,1.8-0.9,2.8-2.3,2.9c0,0-0.1,0-0.1,0c-0.5,0-1.9,0-1.9-3.4c0-0.2,0-0.4,0-0.6h5.6l0-0.3
				c-0.3-2.6-1.3-4-3.1-4.1c-0.1,0-0.3,0-0.4,0c-1.6,0-2.7,0.8-3.4,2.4c-0.3,0.6-0.4,1.4-0.4,2.4c0,0.6,0.1,1.4,0.2,2.2
				c0.3,2.1,1.5,3.2,3.3,3.3h0h0c2.6,0,4-1.6,4.2-4.6l0-0.3h-1.7L113.8,106.4z M111.5,102.6h0.1c0.8,0,1.3,0.3,1.5,1h-3.3
				C110.2,102.9,110.8,102.6,111.5,102.6z"/>
			<path class="st1" d="M121.7,104.2c-0.9-0.3-1.6-0.5-2.2-0.6c-0.4-0.1-0.5-0.3-0.5-0.5l0-0.1c0-0.2,0.1-0.4,0.3-0.5
				c0.2-0.1,0.3-0.1,0.4-0.1c0.1,0,0.1,0,0.1,0l0.1,0c0.5,0.1,0.9,0.4,1,1l0,0.2h1.6l0-0.3c-0.1-1.5-0.9-2.4-2.3-2.6l-0.1,0
				c-0.8-0.1-1.5,0-2.1,0.4c-0.6,0.4-0.9,0.9-1,1.6c0,0.1,0,0.2,0,0.3c0,0.5,0.1,0.9,0.4,1.3c0.3,0.4,1,0.8,2,1
				c0.9,0.2,1.5,0.4,1.9,0.6c0.3,0.1,0.5,0.3,0.6,0.6c0.1,0.1,0.1,0.3,0.1,0.5c0,0.1,0,0.3,0,0.5c0,0.1,0,0.2-0.1,0.3
				c-0.3,1-0.9,1.6-1.8,1.6c-0.1,0-0.3,0-0.4,0c-0.9-0.2-1.3-0.9-1.3-2.2c0-0.1,0-0.4,0-0.7l0-0.3h-1.9l0,0.2c0,0.3,0,0.5,0,0.6
				c0,2.2,1,3.5,2.9,3.9c0.3,0,0.5,0.1,0.7,0.1c1.8,0,2.9-1,3.5-2.9l0.1-0.4c0.1-0.3,0.1-0.6,0.1-0.9c0-0.5-0.1-0.9-0.3-1.3
				C123.3,105,122.7,104.5,121.7,104.2z"/>
			<path class="st1" d="M137.8,106.4c-0.1,1.8-0.9,2.8-2.3,2.9c0,0-0.1,0-0.1,0c-0.5,0-1.9,0-1.9-3.4c0-0.2,0-0.4,0-0.6h5.6l0-0.3
				c-0.3-2.6-1.3-4-3.1-4.1c-0.1,0-0.3,0-0.4,0c-1.6,0-2.7,0.8-3.4,2.4c-0.3,0.6-0.4,1.4-0.4,2.4c0,0.6,0.1,1.4,0.2,2.2
				c0.3,2.1,1.5,3.2,3.3,3.3h0h0c2.6,0,4-1.6,4.2-4.6l0-0.3h-1.7L137.8,106.4z M135.5,102.6h0.1c0.8,0,1.3,0.3,1.5,1h-3.3
				C134.1,102.9,134.7,102.6,135.5,102.6z"/>
			<path class="st1" d="M144.6,101c-0.8,0-1.5,0.2-1.9,0.5v-0.4h-1.8v9.8h1.8l0-6.5c0.2-1.2,0.8-1.8,1.9-1.8l0.1,0
				c1,0.1,1.5,1,1.5,2.9c0,0.1,0,0.3,0,0.4v4.9h1.8v-5.1c0-0.1,0-0.3,0-0.4C147.9,102.4,146.8,101,144.6,101z"/>
			<rect x="156.5" y="98.2" class="st1" width="1.8" height="12.7"/>
			<path class="st1" d="M164,100.9c-0.8,0-1.6,0.3-2.3,0.8l-0.3,0.2l1.4,1.1l0.2-0.1c0.3-0.2,0.6-0.3,1-0.3c0.9,0,1.5,0.5,1.7,1.4
				c-0.4-0.2-1-0.4-1.8-0.4c-2.2,0-3.4,1.2-3.4,3.5v0.2c0.1,2.4,1.3,3.6,3.8,3.6h3.4l0-6.8C167.3,102,166.1,100.9,164,100.9z
				 M165.8,107v2.1h-1.7c-1.2,0-1.8-0.6-1.9-1.9c0-0.1,0-0.2,0-0.2c0-1.1,0.5-1.6,1.6-1.7C165,105.3,165.6,105.8,165.8,107z"/>
			<path class="st1" d="M179.1,100.7c-0.6,0-1.3,0.1-2,0.3h-1.3v12.7h1.8v-3.1c0.4,0.2,1,0.3,1.9,0.3c2.3,0,3.5-1.6,3.5-4.8
				c0-0.3,0-0.6,0-0.9C182.9,102.2,181.5,100.7,179.1,100.7z M179.7,109.3h-0.1c-1.1,0-1.7-0.6-1.9-1.7v-4.8
				c0.6-0.2,1.1-0.3,1.6-0.3c1.3,0,2,0.9,2.1,2.8v0.6C181.4,109.3,180.1,109.3,179.7,109.3z"/>
			<path class="st1" d="M187.3,101.1c-0.3,0-0.6,0.2-0.8,0.3v-0.3h-1.8v9.8h1.8l0-7.1c0.2-0.8,0.4-1,0.6-1.1
				c0.2-0.1,0.3-0.1,0.5-0.1c0.1,0,0.3,0,0.8,0.1l0.2,0.1l0.8-1.5l-0.3-0.1C188.5,101,187.9,101,187.3,101.1z"/>
			<path class="st1" d="M196,106.4c-0.1,1.8-0.9,2.8-2.3,2.9c0,0-0.1,0-0.1,0c-0.5,0-1.9,0-1.9-3.4c0-0.2,0-0.4,0-0.6h5.6l0-0.3
				c-0.3-2.6-1.3-4-3.1-4.1c-0.1,0-0.3,0-0.4,0c-1.6,0-2.7,0.8-3.4,2.4c-0.3,0.6-0.4,1.4-0.4,2.4c0,0.6,0.1,1.4,0.2,2.2
				c0.3,2.1,1.5,3.2,3.3,3.3h0h0c2.6,0,4-1.6,4.2-4.6l0-0.3h-1.7L196,106.4z M193.7,102.6h0.1c0.8,0,1.3,0.3,1.5,1H192
				C192.4,102.9,193,102.6,193.7,102.6z"/>
			<path class="st1" d="M204.5,101.2c-0.1,3-0.8,5.4-1.9,7.2c-1.1-1.8-1.8-4.2-2-7.2l0-0.2l-1.8-0.1l0,0.3c0.2,3.7,1.4,7,3.6,10
				l0.2,0.2l0.2-0.2c2-2.3,3.2-5.7,3.6-10l0-0.3h-1.9L204.5,101.2z"/>
			<path class="st1" d="M213.8,106.4c-0.1,1.8-0.9,2.8-2.3,2.9c0,0-0.1,0-0.1,0c-0.5,0-1.9,0-1.9-3.4c0-0.2,0-0.4,0-0.6h5.6l0-0.3
				c-0.3-2.6-1.3-4-3.1-4.1c-0.1,0-0.3,0-0.4,0c-1.6,0-2.7,0.8-3.4,2.4c-0.3,0.6-0.4,1.4-0.4,2.4c0,0.6,0.1,1.4,0.2,2.2
				c0.3,2.1,1.5,3.2,3.3,3.3h0h0c2.6,0,4-1.6,4.2-4.6l0-0.3h-1.7L213.8,106.4z M211.5,102.6h0.1c0.8,0,1.3,0.3,1.5,1h-3.3
				C210.2,102.9,210.7,102.6,211.5,102.6z"/>
			<path class="st1" d="M220.6,101c-0.8,0-1.5,0.2-1.9,0.5v-0.4h-1.8v9.8h1.8l0-6.5c0.2-1.2,0.8-1.8,1.9-1.8l0.1,0
				c1,0.1,1.5,1,1.5,2.9c0,0.1,0,0.3,0,0.4v4.9h1.8v-5.1c0-0.1,0-0.3,0-0.4C223.9,102.4,222.8,101,220.6,101z"/>
			<path class="st1" d="M231.7,106.4c0,1.8-0.7,2.8-2.1,3h-0.1c-1.1,0-1.8-0.6-2-1.8c-0.1-0.5-0.1-1-0.1-1.5c0-0.8,0.1-1.5,0.4-2.1
				c0.3-0.8,0.8-1.2,1.4-1.2c0.1,0,0.2,0,0.3,0c0.7,0,1.2,0.4,1.7,1.1l0.2,0.3l1.3-1.2l-0.1-0.2c-0.7-1.1-1.7-1.7-3-1.7h-0.2
				c-1.6,0-2.8,0.8-3.3,2.4c-0.3,0.8-0.5,1.7-0.5,2.7c0,0.7,0.1,1.5,0.3,2.2c0.4,1.8,1.6,2.7,3.5,2.7c0.1,0,0.2,0,0.3,0
				c2.6-0.1,3.9-1.7,4-4.6l0-0.3l-1.8,0L231.7,106.4z"/>
			<rect x="235.9" y="101.1" class="st1" width="1.8" height="9.8"/>
			<path class="st1" d="M236,97.6c-0.2,0.2-0.4,0.5-0.4,0.8c0,0.3,0.1,0.6,0.4,0.8c0.2,0.2,0.5,0.4,0.9,0.4c0.4,0,0.6-0.1,0.9-0.4
				c0.2-0.2,0.3-0.5,0.3-0.8c0-0.3-0.1-0.6-0.3-0.8C237.3,97.2,236.4,97.2,236,97.6z"/>
			<path class="st1" d="M243.9,100.7c-2.4,0-3.7,1.7-3.9,5.1c0.1,3.5,1.4,5.2,3.9,5.2c2.5,0,3.8-1.8,3.9-5.3
				C247.6,102.4,246.3,100.7,243.9,100.7z M243.9,109.3c-1.4,0-2-1.1-2.1-3.4c0.1-2.2,0.8-3.3,2.1-3.3c1.3,0,2,1.1,2.1,3.3
				C245.9,108.2,245.3,109.3,243.9,109.3z"/>
			<polygon class="st1" points="242.5,100.4 244.1,100.5 246.4,97.6 243.6,97.6 			"/>
			<path class="st1" d="M252.9,101c-0.8,0-1.5,0.2-1.9,0.5v-0.4h-1.8v9.8h1.8l0-6.5c0.2-1.2,0.8-1.8,1.9-1.8l0.1,0
				c1,0.1,1.5,1,1.5,2.9c0,0.1,0,0.3,0,0.4v4.9h1.8v-5.1c0-0.1,0-0.3,0-0.4C256.3,102.4,255.1,101,252.9,101z"/>
			<path class="st1" d="M269.6,107.5c-0.2,1.2-0.8,1.8-1.9,1.8h-0.1c-0.9,0-1.4-1.1-1.4-3.3v-4.9h-1.8v5.1c0,3.2,1.1,4.8,3.3,4.8
				c0.8,0,1.4-0.1,1.8-0.4c-0.2,1-0.8,1.4-1.8,1.4c-0.3,0-0.6-0.1-1-0.3l-0.2-0.1l-1.4,1.1l0.3,0.2c0.7,0.5,1.5,0.8,2.3,0.8h0h0
				c2.1-0.1,3.3-1.1,3.7-3.2v-9.4h-1.8L269.6,107.5z"/>
			<polygon class="st1" points="282.2,99 280.4,99 280.4,101.1 279,101.1 279,102.8 280.4,102.8 280.4,110.9 282.2,110.9 
				282.2,102.8 283.7,102.8 283.7,101.1 282.2,101.1 			"/>
			<path class="st1" d="M287.5,101.1c-0.3,0-0.6,0.2-0.8,0.3v-0.3h-1.8v9.8h1.8l0-7.1c0.2-0.8,0.4-1,0.6-1.1
				c0.2-0.1,0.3-0.1,0.5-0.1c0.1,0,0.3,0,0.8,0.1l0.2,0.1l0.8-1.5l-0.3-0.1C288.7,101,288.1,101,287.5,101.1z"/>
			<path class="st1" d="M293.6,100.9c-0.8,0-1.6,0.3-2.3,0.8l-0.3,0.2l1.4,1.1l0.2-0.1c0.3-0.2,0.6-0.3,1-0.3c0.9,0,1.5,0.5,1.7,1.4
				c-0.4-0.2-1-0.4-1.8-0.4c-2.2,0-3.4,1.2-3.4,3.5v0.2c0.1,2.4,1.3,3.6,3.8,3.6h3.4l0-6.8C296.9,102,295.7,100.9,293.6,100.9z
				 M295.4,107v2.1h-1.7c-1.2,0-1.8-0.6-1.9-1.9c0-0.1,0-0.2,0-0.2c0-1.1,0.5-1.6,1.6-1.7C294.6,105.3,295.2,105.8,295.4,107z"/>
			<polygon class="st1" points="301.3,99 299.5,99 299.5,101.1 298,101.1 298,102.8 299.5,102.8 299.5,110.9 301.3,110.9 
				301.3,102.8 302.7,102.8 302.7,101.1 301.3,101.1 			"/>
			<path class="st1" d="M307.2,100.9c-0.8,0-1.6,0.3-2.3,0.8l-0.3,0.2l1.4,1.1l0.2-0.1c0.3-0.2,0.6-0.3,1-0.3c0.9,0,1.5,0.5,1.7,1.4
				c-0.4-0.2-1-0.4-1.8-0.4c-2.2,0-3.4,1.2-3.4,3.5v0.2c0.1,2.4,1.3,3.6,3.8,3.6h3.4l0-6.8C310.5,102,309.3,100.9,307.2,100.9z
				 M309.1,107v2.1h-1.7c-1.2,0-1.8-0.6-1.9-1.9c0-0.1,0-0.2,0-0.2c0-1.1,0.5-1.6,1.6-1.7C308.3,105.3,308.9,105.8,309.1,107z"/>
			<path class="st1" d="M320.4,101c-0.9,0-1.7,0.3-2.2,0.8c-0.4-0.4-1-0.7-1.9-0.8c-0.9,0-1.5,0.2-1.9,0.5v-0.4h-1.8v9.8h1.8l0-6.5
				c0.2-1.1,0.7-1.7,1.6-1.7h0.1c0.9,0,1.3,0.5,1.3,1.4v6.8h1.8v-7.4c0.4-0.7,0.9-0.9,1.7-0.7c0.7,0.2,1.1,1.1,1.1,2.9
				c0,0.1,0,0.2,0,0.3v4.9h1.8v-5.1c0-0.2,0-0.4,0-0.5C323.8,102.4,322.7,101,320.4,101z"/>
			<rect x="326.6" y="101.1" class="st1" width="1.8" height="9.8"/>
			<path class="st1" d="M326.7,97.6c-0.2,0.2-0.4,0.5-0.4,0.8c0,0.3,0.1,0.6,0.4,0.8c0.2,0.2,0.5,0.4,0.9,0.4c0.4,0,0.6-0.1,0.9-0.4
				c0.2-0.2,0.3-0.5,0.3-0.8c0-0.3-0.1-0.6-0.3-0.8C328,97.2,327.1,97.2,326.7,97.6z"/>
			<path class="st1" d="M337.1,106.4c-0.1,1.8-0.9,2.8-2.3,2.9c0,0-0.1,0-0.1,0c-0.5,0-1.9,0-1.9-3.4c0-0.2,0-0.4,0-0.6h5.6l0-0.3
				c-0.3-2.6-1.3-4-3.1-4.1c-0.1,0-0.3,0-0.4,0c-1.6,0-2.7,0.8-3.4,2.4c-0.3,0.6-0.4,1.4-0.4,2.4c0,0.6,0.1,1.4,0.2,2.2
				c0.3,2.1,1.5,3.2,3.3,3.3h0h0c2.6,0,4-1.6,4.2-4.6l0-0.3h-1.7L337.1,106.4z M334.8,102.6h0.1c0.8,0,1.3,0.3,1.5,1h-3.3
				C333.5,102.9,334,102.6,334.8,102.6z"/>
			<path class="st1" d="M343.9,101c-0.8,0-1.5,0.2-1.9,0.5v-0.4h-1.8v9.8h1.8l0-6.5c0.2-1.2,0.8-1.8,1.9-1.8l0.1,0
				c1,0.1,1.5,1,1.5,2.9c0,0.1,0,0.3,0,0.4v4.9h1.8v-5.1c0-0.1,0-0.3,0-0.4C347.2,102.4,346.1,101,343.9,101z"/>
			<polygon class="st1" points="351.5,99 349.7,99 349.7,101.1 348.2,101.1 348.2,102.8 349.7,102.8 349.7,110.9 351.5,110.9 
				351.5,102.8 352.9,102.8 352.9,101.1 351.5,101.1 			"/>
			<path class="st1" d="M357.4,100.7c-2.4,0-3.7,1.7-3.9,5.1c0.1,3.5,1.4,5.2,3.9,5.2c2.5,0,3.8-1.8,3.9-5.3
				C361,102.4,359.7,100.7,357.4,100.7z M357.4,109.3c-1.4,0-2-1.1-2.1-3.4c0.1-2.2,0.8-3.3,2.1-3.3c1.3,0,2,1.1,2.1,3.3
				C359.4,108.2,358.7,109.3,357.4,109.3z"/>
			<path class="st1" d="M374.4,101.4c-0.4-0.3-1.1-0.5-1.9-0.5c-2.3,0-3.5,1.6-3.5,4.8c0,0.3,0,0.6,0,0.9c0.1,2.8,1,4.3,2.5,4.3
				c0.1,0,0.1,0,0.2,0h4.6V98.2h-1.8V101.4z M372.4,102.6h0.1c1.1,0,1.7,0.6,1.9,1.7l0,4.8H372c-0.8,0-1.2-0.9-1.3-2.6
				c0-0.2,0-0.4,0-0.6C370.7,102.6,372,102.6,372.4,102.6z"/>
			<path class="st1" d="M384.2,106.4c-0.1,1.8-0.9,2.8-2.3,2.9c0,0-0.1,0-0.1,0c-0.5,0-1.9,0-1.9-3.4c0-0.2,0-0.4,0-0.6h5.6l0-0.3
				c-0.3-2.6-1.3-4-3.1-4.1c-0.1,0-0.3,0-0.4,0c-1.6,0-2.7,0.8-3.4,2.4c-0.3,0.6-0.4,1.4-0.4,2.4c0,0.6,0.1,1.4,0.2,2.2
				c0.3,2.1,1.5,3.2,3.3,3.3h0h0c2.6,0,4-1.6,4.2-4.6l0-0.3h-1.7L384.2,106.4z M381.9,102.6h0.1c0.8,0,1.3,0.3,1.5,1h-3.3
				C380.6,102.9,381.1,102.6,381.9,102.6z"/>
			<path class="st1" d="M388.2,102.1c-0.4,0-0.8,0.1-1.1,0.4c-0.3,0.3-0.4,0.6-0.4,1c0,0.4,0.1,0.7,0.4,1c0.3,0.3,0.6,0.4,1.1,0.4
				c0.4,0,0.8-0.1,1.1-0.4c0.3-0.3,0.4-0.6,0.4-1c0-0.4-0.1-0.7-0.4-1C389,102.3,388.6,102.1,388.2,102.1z"/>
			<path class="st1" d="M388.2,107.9c-0.4,0-0.8,0.1-1.1,0.4c-0.3,0.3-0.4,0.6-0.4,1c0,0.4,0.1,0.8,0.4,1c0.3,0.3,0.6,0.4,1.1,0.4
				c0.4,0,0.8-0.1,1.1-0.4c0.3-0.3,0.4-0.6,0.4-1c0-0.4-0.1-0.7-0.4-1C389,108.1,388.6,107.9,388.2,107.9z"/>
		</g>
		<path class="st1" d="M43.5,131.8c-0.3-0.9-0.9-1.4-2-1.6l-0.1,0c-0.1,0-0.2,0-0.3,0c-0.3,0-0.7,0.1-1,0.3
			c-0.4,0.3-0.7,0.6-0.8,1.2c0,0.1,0,0.1,0,0.1c0,0.7,0.4,1.2,1.2,1.4c0.9,0.2,1.8,0.5,2.9,0.8c1.1,0.3,1.8,0.8,2.2,1.5
			c0.2,0.4,0.4,0.9,0.4,1.6c0,0.3,0,0.6-0.1,0.9l-0.1,0.5c-0.6,2.3-1.9,3.5-4,3.5c-0.2,0-0.4,0-0.7,0c-2.3-0.3-3.4-1.9-3.4-4.7
			c0-0.2,0-0.4,0-0.6h1c0,0.2,0,0.4,0,0.6c0,2.3,0.9,3.5,2.6,3.8c0.2,0,0.4,0,0.5,0c1.6,0,2.7-0.9,3.2-2.7c0-0.2,0.1-0.3,0.1-0.5
			c0-0.2,0-0.5,0-0.7c0-0.4-0.1-0.8-0.2-1.1c-0.2-0.5-0.6-0.9-1.2-1.1c-0.5-0.2-1.4-0.4-2.6-0.7c-1.2-0.3-2-0.6-2.4-1.1
			c-0.3-0.4-0.5-0.8-0.5-1.3c0-0.1,0-0.2,0-0.3c0.1-0.7,0.4-1.3,1-1.7c0.5-0.4,1.1-0.5,1.7-0.5c0.1,0,0.3,0,0.4,0l0.1,0
			c1.6,0.2,2.4,1,2.5,2.5H43.5z"/>
		<path class="st1" d="M49,131l0.8-2h1.6l-1.7,2L49,131z M50.3,141.7h-0.9v-9.2h0.9V141.7z"/>
		<path class="st1" d="M54.5,141.7h-0.9v-9.2h0.9v0.8c0.5-0.6,1.3-0.9,2.4-0.9h0c1.9,0,2.9,1.4,2.9,4.1c0,0.1,0,0.3,0,0.4v4.8H59
			v-4.6c0-0.2,0-0.3,0-0.4c0-2.1-0.6-3.2-1.9-3.4H57c-1.4,0-2.2,0.7-2.5,2.2V141.7z"/>
		<path class="st1" d="M68.7,141.7h-4.2c0,0-0.1,0-0.1,0c-1.3,0-2-1.3-2.1-3.9c0-0.3,0-0.6,0-0.9c0-3,1-4.4,3.1-4.4
			c1.1,0,1.9,0.3,2.5,0.9v-3.8h0.9V141.7z M63,137.7c0,2.1,0.6,3.1,1.8,3.1h3.1l0-5.4c-0.3-1.5-1.1-2.2-2.4-2.2h-0.1
			c-1.5,0-2.2,1.3-2.2,3.8C62.9,137.3,62.9,137.5,63,137.7z"/>
		<path class="st1" d="M72,141.7h-0.9v-9.2H72v0.4c0.2-0.2,0.5-0.4,1-0.5c0.2,0,0.3-0.1,0.5-0.1c0.3,0,0.7,0.1,1.2,0.2l-0.4,0.7
			c-0.3-0.1-0.5-0.1-0.7-0.1c-0.3,0-0.5,0.1-0.8,0.2c-0.4,0.2-0.6,0.6-0.8,1.4V141.7z"/>
		<path class="st1" d="M79.2,132.2c2.2,0,3.3,1.6,3.5,4.8c-0.1,3.3-1.3,4.9-3.5,4.9c-2.3,0-3.5-1.6-3.5-4.9
			C75.9,133.8,77,132.2,79.2,132.2z M81.8,137c-0.1-2.6-1-3.8-2.6-3.8c-1.6,0-2.5,1.3-2.6,3.8c0.1,2.7,0.9,4,2.6,4
			C80.9,141,81.8,139.7,81.8,137z"/>
		<path class="st1" d="M90.5,134.5v7.3h-0.9v-6.5c0-1.2-0.6-1.8-1.8-1.8h-0.1c-1.2,0-1.9,0.7-2.2,2.1v6.2h-0.9v-9.2h0.9v0.8
			c0.5-0.6,1.3-0.9,2.4-0.9c0.9,0.1,1.6,0.5,1.9,1.1c0.6-0.8,1.4-1.1,2.4-1.1h0c2,0,2.9,1.3,2.9,3.9c0,0.2,0,0.4,0,0.5v4.8h-0.9
			v-4.6c0-0.1,0-0.2,0-0.3c0-2-0.5-3.2-1.5-3.4c-0.2-0.1-0.4-0.1-0.6-0.1C91.5,133.3,90.9,133.7,90.5,134.5z"/>
		<path class="st1" d="M98.5,136c0,0.4,0,0.7,0,1.1c0,2.7,0.8,4.1,2.4,4.1c0.1,0,0.1,0,0.2,0c1.7-0.2,2.6-1.3,2.7-3.3h0.7
			c-0.2,2.7-1.5,4.1-3.9,4.1c-1.7-0.1-2.6-1.1-3-3c-0.1-0.8-0.2-1.5-0.2-2.1c0-0.9,0.1-1.7,0.4-2.2c0.6-1.4,1.7-2.2,3.1-2.2
			c0.1,0,0.2,0,0.4,0c1.6,0.1,2.5,1.3,2.7,3.6H98.5z M101.2,133.2c-0.1,0-0.1,0-0.2,0c-0.1,0-0.2,0-0.3,0c-1,0-1.7,0.7-2.2,2h4.7
			C103,134,102.4,133.3,101.2,133.2z"/>
		<path class="st1" d="M119.3,141.7h-4.2c0,0-0.1,0-0.1,0c-1.3,0-2-1.3-2.1-3.9c0-0.3,0-0.6,0-0.9c0-3,1-4.4,3.1-4.4
			c1.1,0,1.9,0.3,2.5,0.9v-3.8h0.9V141.7z M113.6,137.7c0,2.1,0.6,3.1,1.8,3.1h3.1l0-5.4c-0.3-1.5-1.1-2.2-2.4-2.2h-0.1
			c-1.5,0-2.2,1.3-2.2,3.8C113.6,137.3,113.6,137.5,113.6,137.7z"/>
		<path class="st1" d="M122.5,136c0,0.4,0,0.7,0,1.1c0,2.7,0.8,4.1,2.4,4.1c0.1,0,0.1,0,0.2,0c1.7-0.2,2.6-1.3,2.7-3.3h0.7
			c-0.2,2.7-1.5,4.1-3.9,4.1c-1.7-0.1-2.6-1.1-3-3c-0.1-0.8-0.2-1.5-0.2-2.1c0-0.9,0.1-1.7,0.4-2.2c0.6-1.4,1.7-2.2,3.1-2.2
			c0.1,0,0.2,0,0.4,0c1.6,0.1,2.5,1.3,2.7,3.6H122.5z M125.3,133.2c-0.1,0-0.1,0-0.2,0c-0.1,0-0.2,0-0.3,0c-1,0-1.7,0.7-2.2,2h4.7
			C127.1,134,126.4,133.3,125.3,133.2z"/>
		<path class="st1" d="M138.8,128.9c0.1,0.2,0.2,0.3,0.2,0.6c0,0.2-0.1,0.4-0.2,0.5c-0.1,0.2-0.3,0.2-0.6,0.2
			c-0.2,0-0.4-0.1-0.6-0.2c-0.2-0.2-0.2-0.3-0.2-0.5c0-0.2,0.1-0.4,0.2-0.6c0.2-0.2,0.3-0.2,0.6-0.2
			C138.5,128.7,138.6,128.8,138.8,128.9z M138.7,141.7h-0.9v-9.2h0.9V141.7z"/>
		<path class="st1" d="M142.7,141.7h-0.9v-9.2h0.9v0.8c0.5-0.6,1.3-0.9,2.4-0.9h0c1.9,0,2.9,1.4,2.9,4.1c0,0.1,0,0.3,0,0.4v4.8h-0.9
			v-4.6c0-0.2,0-0.3,0-0.4c0-2.1-0.6-3.2-1.9-3.4h-0.1c-1.4,0-2.2,0.7-2.5,2.2V141.7z"/>
		<path class="st1" d="M152,132.6h1.5v0.9H152v8.3h-0.9v-8.3h-1.5v-0.9h1.5v-2.1h0.9V132.6z"/>
		<path class="st1" d="M155.5,136c0,0.4,0,0.7,0,1.1c0,2.7,0.8,4.1,2.4,4.1c0.1,0,0.1,0,0.2,0c1.7-0.2,2.6-1.3,2.7-3.3h0.7
			c-0.2,2.7-1.5,4.1-3.9,4.1c-1.7-0.1-2.6-1.1-3-3c-0.1-0.8-0.2-1.5-0.2-2.1c0-0.9,0.1-1.7,0.4-2.2c0.6-1.4,1.7-2.2,3.1-2.2
			c0.1,0,0.2,0,0.4,0c1.6,0.1,2.5,1.3,2.7,3.6H155.5z M158.3,133.2c-0.1,0-0.1,0-0.2,0c-0.1,0-0.2,0-0.3,0c-1,0-1.7,0.7-2.2,2h4.7
			C160.1,134,159.4,133.3,158.3,133.2z"/>
		<path class="st1" d="M167.7,134.3c-0.2-0.7-0.6-1.1-1.4-1.2l-0.1,0c-0.1,0-0.2,0-0.2,0c-0.2,0-0.5,0.1-0.7,0.2
			c-0.3,0.2-0.5,0.4-0.6,0.8c0,0,0,0.1,0,0.1c0,0.5,0.3,0.8,0.8,1c0.6,0.2,1.4,0.4,2.2,0.6c0.9,0.3,1.4,0.7,1.7,1.2
			c0.2,0.3,0.2,0.7,0.2,1.1c0,0.3,0,0.5-0.1,0.8l-0.1,0.4c-0.5,1.7-1.5,2.6-3.1,2.6c-0.2,0-0.4,0-0.7-0.1c-1.7-0.3-2.6-1.5-2.6-3.5
			c0-0.1,0-0.3,0-0.4h1c0,0.2,0,0.3,0,0.5c0,1.6,0.6,2.5,1.8,2.7c0.2,0,0.3,0,0.5,0c1.1,0,1.9-0.6,2.3-1.9c0-0.1,0.1-0.3,0.1-0.4
			c0-0.2,0.1-0.4,0.1-0.6c0-0.3,0-0.5-0.1-0.7c-0.2-0.4-0.4-0.6-0.8-0.8c-0.4-0.2-1-0.4-2-0.6c-0.9-0.2-1.5-0.5-1.8-0.9
			c-0.2-0.3-0.3-0.6-0.3-1c0-0.1,0-0.2,0-0.3c0.1-0.5,0.4-1,0.9-1.3c0.4-0.3,0.8-0.4,1.3-0.4c0.1,0,0.3,0,0.5,0l0.1,0
			c1.2,0.2,1.9,0.9,2,2.1H167.7z"/>
		<path class="st1" d="M173.6,132.6h1.5v0.9h-1.5v8.3h-0.9v-8.3h-1.5v-0.9h1.5v-2.1h0.9V132.6z"/>
		<path class="st1" d="M178.7,128.9c0.1,0.2,0.2,0.3,0.2,0.6c0,0.2-0.1,0.4-0.2,0.5c-0.1,0.2-0.3,0.2-0.6,0.2
			c-0.2,0-0.4-0.1-0.6-0.2c-0.2-0.2-0.2-0.3-0.2-0.5c0-0.2,0.1-0.4,0.2-0.6c0.2-0.2,0.3-0.2,0.6-0.2
			C178.4,128.7,178.5,128.8,178.7,128.9z M178.6,141.7h-0.9v-9.2h0.9V141.7z"/>
		<path class="st1" d="M182.6,141.7h-0.9v-9.2h0.9v0.8c0.5-0.6,1.3-0.9,2.4-0.9h0c1.9,0,2.9,1.4,2.9,4.1c0,0.1,0,0.3,0,0.4v4.8h-0.9
			v-4.6c0-0.2,0-0.3,0-0.4c0-2.1-0.6-3.2-1.9-3.4h-0.1c-1.4,0-2.2,0.7-2.5,2.2V141.7z"/>
		<path class="st1" d="M193.4,132.2c2.2,0,3.3,1.6,3.5,4.8c-0.1,3.3-1.3,4.9-3.5,4.9c-2.3,0-3.5-1.6-3.5-4.9
			C190,133.8,191.2,132.2,193.4,132.2z M196,137c-0.1-2.6-1-3.8-2.6-3.8s-2.5,1.3-2.6,3.8c0.1,2.7,0.9,4,2.6,4
			C195.1,141,195.9,139.7,196,137z"/>
		<path class="st1" d="M207.1,128.9c0.1,0.2,0.2,0.3,0.2,0.6c0,0.2-0.1,0.4-0.2,0.5c-0.1,0.2-0.3,0.2-0.6,0.2
			c-0.2,0-0.4-0.1-0.6-0.2c-0.2-0.2-0.2-0.3-0.2-0.5c0-0.2,0.1-0.4,0.2-0.6s0.3-0.2,0.6-0.2C206.7,128.7,206.9,128.8,207.1,128.9z
			 M206.9,141.7H206v-9.2h0.9V141.7z"/>
		<path class="st1" d="M211,141.7h-0.9v-9.2h0.9v0.4c0.2-0.2,0.5-0.4,1-0.5c0.2,0,0.3-0.1,0.5-0.1c0.3,0,0.7,0.1,1.2,0.2l-0.4,0.7
			c-0.3-0.1-0.5-0.1-0.7-0.1c-0.3,0-0.5,0.1-0.8,0.2c-0.4,0.2-0.6,0.6-0.8,1.4V141.7z"/>
		<path class="st1" d="M216.1,141.7h-0.9v-9.2h0.9v0.4c0.2-0.2,0.5-0.4,1-0.5c0.2,0,0.3-0.1,0.5-0.1c0.3,0,0.7,0.1,1.2,0.2l-0.4,0.7
			c-0.3-0.1-0.5-0.1-0.7-0.1c-0.3,0-0.5,0.1-0.8,0.2c-0.4,0.2-0.6,0.6-0.8,1.4V141.7z"/>
		<path class="st1" d="M222.2,128.9c0.1,0.2,0.2,0.3,0.2,0.6c0,0.2-0.1,0.4-0.2,0.5c-0.1,0.2-0.3,0.2-0.6,0.2
			c-0.2,0-0.4-0.1-0.6-0.2c-0.2-0.2-0.2-0.3-0.2-0.5c0-0.2,0.1-0.4,0.2-0.6c0.2-0.2,0.3-0.2,0.6-0.2
			C221.8,128.7,222,128.8,222.2,128.9z M222,141.7h-0.9v-9.2h0.9V141.7z"/>
		<path class="st1" d="M226.7,132.6h1.5v0.9h-1.5v8.3h-0.9v-8.3h-1.5v-0.9h1.5v-2.1h0.9V132.6z"/>
		<path class="st1" d="M236,141.7h-3c-2.2,0-3.3-1.1-3.4-3.2v-0.2c0-2.1,1-3.1,3-3.1c1.1,0,1.9,0.3,2.5,0.9l0-0.6
			c-0.2-1.5-1-2.3-2.4-2.3c-0.4,0-0.8,0.1-1.1,0.3l-0.7-0.6c0.5-0.4,1.1-0.6,1.9-0.6c1.9,0,3,1,3.3,2.9V141.7z M230.6,138.4
			c0.1,1.6,0.9,2.3,2.4,2.3h2.2v-2.6c-0.2-1.5-1.1-2.2-2.4-2.2c-1.4,0-2.2,0.8-2.2,2.2C230.6,138.2,230.6,138.3,230.6,138.4z"/>
		<path class="st1" d="M238.4,129.6h0.9v3.8c0.5-0.6,1.3-0.9,2.4-0.9c2.1,0,3.1,1.5,3.1,4.4c0,0.3,0,0.6,0,0.9
			c-0.1,2.6-0.8,3.9-2.1,3.9c0,0-0.1,0-0.1,0h-4.2V129.6z M244.1,137.7c0-0.2,0-0.4,0-0.6c0-2.6-0.7-3.8-2.2-3.8h-0.1
			c-1.4,0-2.2,0.7-2.4,2.2l0,5.4h3.1C243.4,140.9,244,139.8,244.1,137.7z"/>
		<path class="st1" d="M248.6,141.7h-0.9v-12.1h0.9V141.7z"/>
		<path class="st1" d="M251.9,136c0,0.4,0,0.7,0,1.1c0,2.7,0.8,4.1,2.4,4.1c0.1,0,0.1,0,0.2,0c1.7-0.2,2.6-1.3,2.7-3.3h0.7
			c-0.2,2.7-1.5,4.1-3.9,4.1c-1.7-0.1-2.6-1.1-3-3c-0.1-0.8-0.2-1.5-0.2-2.1c0-0.9,0.1-1.7,0.4-2.2c0.6-1.4,1.7-2.2,3.1-2.2
			c0.1,0,0.2,0,0.4,0c1.6,0.1,2.5,1.3,2.7,3.6H251.9z M254.6,133.2c-0.1,0-0.1,0-0.2,0c-0.1,0-0.2,0-0.3,0c-1,0-1.7,0.7-2.2,2h4.7
			C256.4,134,255.8,133.3,254.6,133.2z"/>
		<path class="st1" d="M44.8,163.2c-0.3-1.2-1.2-1.9-2.5-1.9c-2.4,0.1-3.6,1.8-3.6,5.3v0.1c0,3.5,1.1,5.3,3.3,5.4
			c2.3-0.2,3.5-1.5,3.6-4.1h0.9c-0.1,3.2-1.7,4.8-4.6,5c-2.8-0.1-4.3-2.2-4.3-6.3v0c0-4.1,1.5-6.2,4.6-6.3c1.8,0,2.9,0.9,3.3,2.8
			L44.8,163.2z"/>
		<path class="st1" d="M51.3,163.3c2.2,0,3.3,1.6,3.5,4.8c-0.1,3.3-1.3,4.9-3.5,4.9c-2.3,0-3.5-1.6-3.5-4.9
			C47.9,164.9,49.1,163.3,51.3,163.3z M53.9,168.1c-0.1-2.6-1-3.8-2.6-3.8c-1.6,0-2.5,1.3-2.6,3.8c0.1,2.7,0.9,4,2.6,4
			C53,172.1,53.8,170.8,53.9,168.1z"/>
		<path class="st1" d="M58.1,172.8h-0.9v-12.1h0.9V172.8z"/>
		<path class="st1" d="M62.9,160c0.1,0.2,0.2,0.3,0.2,0.6c0,0.2-0.1,0.4-0.2,0.5c-0.1,0.2-0.3,0.2-0.6,0.2c-0.2,0-0.4-0.1-0.6-0.2
			c-0.2-0.2-0.2-0.3-0.2-0.5c0-0.2,0.1-0.4,0.2-0.6c0.2-0.2,0.3-0.2,0.6-0.2C62.5,159.8,62.7,159.9,62.9,160z M62.7,172.8h-0.9v-9.2
			h0.9V172.8z"/>
		<path class="st1" d="M67.4,163.6h1.5v0.9h-1.5v8.3h-0.9v-8.3H65v-0.9h1.5v-2.1h0.9V163.6z"/>
		<path class="st1" d="M72.5,160c0.1,0.2,0.2,0.3,0.2,0.6c0,0.2-0.1,0.4-0.2,0.5c-0.1,0.2-0.3,0.2-0.6,0.2c-0.2,0-0.4-0.1-0.6-0.2
			c-0.2-0.2-0.2-0.3-0.2-0.5c0-0.2,0.1-0.4,0.2-0.6c0.2-0.2,0.3-0.2,0.6-0.2C72.2,159.8,72.3,159.9,72.5,160z M72.4,172.8h-0.9v-9.2
			h0.9V172.8z"/>
		<path class="st1" d="M79.7,165.4c-0.2-0.7-0.6-1.1-1.4-1.2l-0.1,0c-0.1,0-0.2,0-0.2,0c-0.2,0-0.5,0.1-0.7,0.2
			c-0.3,0.2-0.5,0.4-0.6,0.8c0,0,0,0.1,0,0.1c0,0.5,0.3,0.8,0.8,1c0.6,0.2,1.4,0.4,2.2,0.6c0.9,0.3,1.4,0.7,1.7,1.2
			c0.2,0.3,0.2,0.7,0.2,1.1c0,0.3,0,0.5-0.1,0.8l-0.1,0.4c-0.5,1.7-1.5,2.6-3.1,2.6c-0.2,0-0.4,0-0.7-0.1c-1.7-0.3-2.6-1.5-2.6-3.5
			c0-0.1,0-0.3,0-0.4h1c0,0.2,0,0.3,0,0.5c0,1.6,0.6,2.5,1.8,2.7c0.2,0,0.3,0,0.5,0c1.1,0,1.9-0.6,2.3-1.9c0-0.1,0.1-0.3,0.1-0.4
			c0-0.2,0.1-0.4,0.1-0.6c0-0.3,0-0.5-0.1-0.7c-0.2-0.4-0.4-0.6-0.8-0.8c-0.4-0.2-1-0.4-2-0.6c-0.9-0.2-1.5-0.5-1.8-0.9
			c-0.2-0.3-0.3-0.6-0.3-1c0-0.1,0-0.2,0-0.3c0.1-0.5,0.4-1,0.9-1.3c0.4-0.3,0.8-0.4,1.3-0.4c0.1,0,0.3,0,0.5,0l0.1,0
			c1.2,0.2,1.9,0.9,2,2.1H79.7z"/>
		<path class="st1" d="M95.7,163.7h0.9v9.2h-0.9V172c-0.5,0.6-1.3,0.9-2.5,0.9c-1.9,0-2.9-1.5-2.9-4.4v-4.8h0.9v4.6
			c0,2.6,0.6,3.8,1.9,3.8h0.1c1.4,0,2.2-0.7,2.5-2.2V163.7z"/>
		<path class="st1" d="M100.5,172.8h-0.9v-12.1h0.9V172.8z"/>
		<path class="st1" d="M106,164.4c-0.8,0-1.4,0.5-1.8,1.5c-0.3,0.7-0.4,1.4-0.4,2.3c0,0.5,0,1,0.1,1.6c0.2,1.5,1.1,2.3,2.5,2.3h0.1
			c1.7-0.2,2.6-1.3,2.6-3.3l0.9,0c-0.1,2.6-1.3,4-3.7,4.1c-0.1,0-0.2,0-0.2,0c-1.7,0-2.7-0.8-3.1-2.4c-0.2-0.8-0.3-1.5-0.3-2.2
			c0-0.9,0.2-1.8,0.5-2.6c0.5-1.5,1.5-2.2,3-2.2h0.2c1.1,0,2,0.5,2.6,1.4l-0.6,0.6c-0.5-0.7-1.1-1.1-2-1.1
			C106.3,164.4,106.1,164.4,106,164.4z"/>
		<path class="st1" d="M112.8,167c0,0.4,0,0.7,0,1.1c0,2.7,0.8,4.1,2.4,4.1c0.1,0,0.1,0,0.2,0c1.7-0.2,2.6-1.3,2.7-3.3h0.7
			c-0.2,2.7-1.5,4.1-3.9,4.1c-1.7-0.1-2.6-1.1-3-3c-0.1-0.8-0.2-1.5-0.2-2.1c0-0.9,0.1-1.7,0.4-2.2c0.6-1.4,1.7-2.2,3.1-2.2
			c0.1,0,0.2,0,0.4,0c1.6,0.1,2.5,1.3,2.7,3.6H112.8z M115.6,164.3c-0.1,0-0.1,0-0.2,0c-0.1,0-0.2,0-0.3,0c-1,0-1.7,0.7-2.2,2h4.7
			C117.3,165,116.7,164.4,115.6,164.3z"/>
		<path class="st1" d="M121.3,172.8h-0.9v-9.2h0.9v0.4c0.2-0.2,0.5-0.4,1-0.5c0.2,0,0.3-0.1,0.5-0.1c0.3,0,0.7,0.1,1.2,0.2l-0.4,0.7
			c-0.3-0.1-0.5-0.1-0.7-0.1c-0.3,0-0.5,0.1-0.8,0.2c-0.4,0.2-0.6,0.6-0.8,1.4V172.8z"/>
		<path class="st1" d="M131.6,172.8h-3c-2.2,0-3.3-1.1-3.4-3.2v-0.2c0-2.1,1-3.1,3-3.1c1.1,0,1.9,0.3,2.5,0.9l0-0.6
			c-0.2-1.5-1-2.3-2.4-2.3c-0.4,0-0.8,0.1-1.1,0.3l-0.7-0.6c0.5-0.4,1.1-0.6,1.9-0.6c1.9,0,3,1,3.3,2.9V172.8z M126.1,169.5
			c0.1,1.6,0.9,2.3,2.4,2.3h2.2v-2.6c-0.2-1.5-1.1-2.2-2.4-2.2c-1.4,0-2.2,0.8-2.2,2.2C126.1,169.3,126.1,169.4,126.1,169.5z"/>
		<path class="st1" d="M135.2,163.6h1.5v0.9h-1.5v8.3h-0.9v-8.3h-1.5v-0.9h1.5v-2.1h0.9V163.6z"/>
		<path class="st1" d="M140.3,160c0.1,0.2,0.2,0.3,0.2,0.6c0,0.2-0.1,0.4-0.2,0.5c-0.1,0.2-0.3,0.2-0.6,0.2c-0.2,0-0.4-0.1-0.6-0.2
			c-0.2-0.2-0.2-0.3-0.2-0.5c0-0.2,0.1-0.4,0.2-0.6c0.2-0.2,0.3-0.2,0.6-0.2C140,159.8,140.2,159.9,140.3,160z M140.2,172.8h-0.9
			v-9.2h0.9V172.8z"/>
		<path class="st1" d="M150,163.6c-0.4,4.2-1.5,7.4-3.4,9.5c-2.1-2.8-3.2-6-3.4-9.5l0.9,0c0.2,3.2,1,5.9,2.5,8
			c1.5-2.1,2.3-4.8,2.4-8H150z"/>
		<path class="st1" d="M158,172.8h-3c-2.2,0-3.3-1.1-3.4-3.2v-0.2c0-2.1,1-3.1,3-3.1c1.1,0,1.9,0.3,2.5,0.9l0-0.6
			c-0.2-1.5-1-2.3-2.4-2.3c-0.4,0-0.8,0.1-1.1,0.3l-0.7-0.6c0.5-0.4,1.1-0.6,1.9-0.6c1.9,0,3,1,3.3,2.9V172.8z M152.6,169.5
			c0.1,1.6,0.9,2.3,2.4,2.3h2.2v-2.6c-0.2-1.5-1.1-2.2-2.4-2.2c-1.4,0-2.2,0.8-2.2,2.2C152.5,169.3,152.6,169.4,152.6,169.5z"/>
		<path class="st1" d="M39.4,191.8v12.1h-0.9v-12.1H39.4z"/>
		<path class="st1" d="M43.1,203.9h-0.9v-9.2h0.9v0.8c0.5-0.6,1.3-0.9,2.4-0.9h0c1.9,0,2.9,1.4,2.9,4.1c0,0.1,0,0.3,0,0.4v4.8h-0.9
			v-4.6c0-0.2,0-0.3,0-0.4c0-2.1-0.6-3.2-1.9-3.4h-0.1c-1.4,0-2.2,0.7-2.5,2.2V203.9z"/>
		<path class="st1" d="M52.4,194.7h1.5v0.9h-1.5v8.3h-0.9v-8.3H50v-0.9h1.5v-2.1h0.9V194.7z"/>
		<path class="st1" d="M58.4,194.4c2.2,0,3.3,1.6,3.5,4.8c-0.1,3.3-1.3,4.9-3.5,4.9c-2.3,0-3.5-1.6-3.5-4.9
			C55.1,196,56.3,194.4,58.4,194.4z M61,199.2c-0.1-2.6-1-3.8-2.6-3.8c-1.6,0-2.5,1.3-2.6,3.8c0.1,2.7,0.9,4,2.6,4
			C60.1,203.2,61,201.9,61,199.2z"/>
		<path class="st1" d="M65.3,203.9h-0.9v-12.1h0.9V203.9z"/>
		<path class="st1" d="M68.6,198.1c0,0.4,0,0.7,0,1.1c0,2.7,0.8,4.1,2.4,4.1c0.1,0,0.1,0,0.2,0c1.7-0.2,2.6-1.3,2.7-3.3h0.7
			c-0.2,2.7-1.5,4.1-3.9,4.1c-1.7-0.1-2.6-1.1-3-3c-0.1-0.8-0.2-1.5-0.2-2.1c0-0.9,0.1-1.7,0.4-2.2c0.6-1.4,1.7-2.2,3.1-2.2
			c0.1,0,0.2,0,0.4,0c1.6,0.1,2.5,1.3,2.7,3.6H68.6z M71.3,195.4c-0.1,0-0.1,0-0.2,0c-0.1,0-0.2,0-0.3,0c-1,0-1.7,0.7-2.2,2h4.7
			C73.1,196.1,72.5,195.5,71.3,195.4z"/>
		<path class="st1" d="M77.1,203.9h-0.9v-9.2h0.9v0.4c0.2-0.2,0.5-0.4,1-0.5c0.2,0,0.3-0.1,0.5-0.1c0.3,0,0.7,0.1,1.2,0.2l-0.4,0.7
			c-0.3-0.1-0.5-0.1-0.7-0.1c-0.3,0-0.5,0.1-0.8,0.2c-0.4,0.2-0.6,0.6-0.8,1.4V203.9z"/>
		<path class="st1" d="M87.4,203.9h-3c-2.2,0-3.3-1.1-3.4-3.2v-0.2c0-2.1,1-3.1,3-3.1c1.1,0,1.9,0.3,2.5,0.9l0-0.6
			c-0.2-1.5-1-2.3-2.4-2.3c-0.4,0-0.8,0.1-1.1,0.3l-0.7-0.6c0.5-0.4,1.1-0.6,1.9-0.6c1.9,0,3,1,3.3,2.9V203.9z M81.9,200.6
			c0.1,1.6,0.9,2.3,2.4,2.3h2.2v-2.6c-0.2-1.5-1.1-2.2-2.4-2.2c-1.4,0-2.2,0.8-2.2,2.2C81.9,200.4,81.9,200.5,81.9,200.6z"/>
		<path class="st1" d="M90.4,203.9h-0.9v-9.2h0.9v0.8c0.5-0.6,1.3-0.9,2.4-0.9h0c1.9,0,2.9,1.4,2.9,4.1c0,0.1,0,0.3,0,0.4v4.8h-0.9
			v-4.6c0-0.2,0-0.3,0-0.4c0-2.1-0.6-3.2-1.9-3.4h-0.1c-1.4,0-2.2,0.7-2.5,2.2V203.9z"/>
		<path class="st1" d="M101.1,195.5c-0.8,0-1.4,0.5-1.8,1.5c-0.3,0.7-0.4,1.4-0.4,2.3c0,0.5,0,1,0.1,1.6c0.2,1.5,1.1,2.3,2.5,2.3
			h0.1c1.7-0.2,2.6-1.3,2.6-3.3l0.9,0c-0.1,2.6-1.3,4-3.7,4.1c-0.1,0-0.2,0-0.2,0c-1.7,0-2.7-0.8-3.1-2.4c-0.2-0.8-0.3-1.5-0.3-2.2
			c0-0.9,0.2-1.8,0.5-2.6c0.5-1.5,1.5-2.2,3-2.2h0.2c1.1,0,2,0.5,2.6,1.4l-0.6,0.6c-0.5-0.7-1.1-1.1-2-1.1
			C101.3,195.5,101.2,195.5,101.1,195.5z"/>
		<path class="st1" d="M109.1,191.1c0.1,0.2,0.2,0.3,0.2,0.6c0,0.2-0.1,0.4-0.2,0.5c-0.1,0.2-0.3,0.2-0.6,0.2
			c-0.2,0-0.4-0.1-0.6-0.2c-0.2-0.2-0.2-0.3-0.2-0.5c0-0.2,0.1-0.4,0.2-0.6c0.2-0.2,0.3-0.2,0.6-0.2
			C108.7,190.9,108.9,191,109.1,191.1z M109,203.9h-0.9v-9.2h0.9V203.9z"/>
		<path class="st1" d="M118.3,203.9h-3c-2.2,0-3.3-1.1-3.4-3.2v-0.2c0-2.1,1-3.1,3-3.1c1.1,0,1.9,0.3,2.5,0.9l0-0.6
			c-0.2-1.5-1-2.3-2.4-2.3c-0.4,0-0.8,0.1-1.1,0.3l-0.7-0.6c0.5-0.4,1.1-0.6,1.9-0.6c1.9,0,3,1,3.3,2.9V203.9z M112.8,200.6
			c0.1,1.6,0.9,2.3,2.4,2.3h2.2v-2.6c-0.2-1.5-1.1-2.2-2.4-2.2c-1.4,0-2.2,0.8-2.2,2.2C112.8,200.4,112.8,200.5,112.8,200.6z"/>
		<path class="st1" d="M133,203.9h-3c-2.2,0-3.3-1.1-3.4-3.2v-0.2c0-2.1,1-3.1,3-3.1c1.1,0,1.9,0.3,2.5,0.9l0-0.6
			c-0.2-1.5-1-2.3-2.4-2.3c-0.4,0-0.8,0.1-1.1,0.3l-0.7-0.6c0.5-0.4,1.1-0.6,1.9-0.6c1.9,0,3,1,3.3,2.9V203.9z M127.5,200.6
			c0.1,1.6,0.9,2.3,2.4,2.3h2.2v-2.6c-0.2-1.5-1.1-2.2-2.4-2.2c-1.4,0-2.2,0.8-2.2,2.2C127.5,200.4,127.5,200.5,127.5,200.6z"/>
		<path class="st1" d="M142.9,203.9H142v-12.1h0.9V203.9z"/>
		<path class="st1" d="M151.9,203.9h-3c-2.2,0-3.3-1.1-3.4-3.2v-0.2c0-2.1,1-3.1,3-3.1c1.1,0,1.9,0.3,2.5,0.9l0-0.6
			c-0.2-1.5-1-2.3-2.4-2.3c-0.4,0-0.8,0.1-1.1,0.3l-0.7-0.6c0.5-0.4,1.1-0.6,1.9-0.6c1.9,0,3,1,3.3,2.9V203.9z M146.4,200.6
			c0.1,1.6,0.9,2.3,2.4,2.3h2.2v-2.6c-0.2-1.5-1.1-2.2-2.4-2.2c-1.4,0-2.2,0.8-2.2,2.2C146.4,200.4,146.4,200.5,146.4,200.6z"/>
		<path class="st1" d="M161.9,203.9H161v-12.1h0.9V203.9z"/>
		<path class="st1" d="M170.9,203.9h-3c-2.2,0-3.3-1.1-3.4-3.2v-0.2c0-2.1,1-3.1,3-3.1c1.1,0,1.9,0.3,2.5,0.9l0-0.6
			c-0.2-1.5-1-2.3-2.4-2.3c-0.4,0-0.8,0.1-1.1,0.3l-0.7-0.6c0.5-0.4,1.1-0.6,1.9-0.6c1.9,0,3,1,3.3,2.9V203.9z M165.4,200.6
			c0.1,1.6,0.9,2.3,2.4,2.3h2.2v-2.6c-0.2-1.5-1.1-2.2-2.4-2.2c-1.4,0-2.2,0.8-2.2,2.2C165.4,200.4,165.4,200.5,165.4,200.6z"/>
		<path class="st1" d="M176,195.5c-0.8,0-1.4,0.5-1.8,1.5c-0.3,0.7-0.4,1.4-0.4,2.3c0,0.5,0,1,0.1,1.6c0.2,1.5,1.1,2.3,2.5,2.3h0.1
			c1.7-0.2,2.6-1.3,2.6-3.3l0.9,0c-0.1,2.6-1.3,4-3.7,4.1c-0.1,0-0.2,0-0.2,0c-1.7,0-2.7-0.8-3.1-2.4c-0.2-0.8-0.3-1.5-0.3-2.2
			c0-0.9,0.2-1.8,0.5-2.6c0.5-1.5,1.5-2.2,3-2.2h0.2c1.1,0,2,0.5,2.6,1.4l-0.6,0.6c-0.5-0.7-1.1-1.1-2-1.1
			C176.3,195.5,176.1,195.5,176,195.5z"/>
		<path class="st1" d="M183.5,194.7h1.5v0.9h-1.5v8.3h-0.9v-8.3h-1.5v-0.9h1.5v-2.1h0.9V194.7z"/>
		<path class="st1" d="M189.5,194.4c2.2,0,3.3,1.6,3.5,4.8c-0.1,3.3-1.3,4.9-3.5,4.9c-2.3,0-3.5-1.6-3.5-4.9
			C186.2,196,187.3,194.4,189.5,194.4z M192.1,199.2c-0.1-2.6-1-3.8-2.6-3.8s-2.5,1.3-2.6,3.8c0.1,2.7,0.9,4,2.6,4
			C191.2,203.2,192.1,201.9,192.1,199.2z"/>
		<path class="st1" d="M199.1,196.5c-0.2-0.7-0.6-1.1-1.4-1.2l-0.1,0c-0.1,0-0.2,0-0.2,0c-0.2,0-0.5,0.1-0.7,0.2
			c-0.3,0.2-0.5,0.4-0.6,0.8c0,0.1,0,0.1,0,0.2c0,0.5,0.3,0.8,0.8,1c0.6,0.2,1.4,0.4,2.2,0.6c0.9,0.3,1.4,0.7,1.7,1.2
			c0.2,0.3,0.2,0.7,0.2,1.1c0,0.3,0,0.5-0.1,0.8l-0.1,0.3c-0.5,1.7-1.5,2.6-3.1,2.6c-0.2,0-0.4,0-0.7-0.1c-1.7-0.3-2.6-1.5-2.6-3.5
			c0-0.1,0-0.3,0-0.4h1c0,0.2,0,0.3,0,0.5c0,1.6,0.6,2.5,1.8,2.7c0.2,0,0.3,0,0.5,0c1.1,0,1.9-0.6,2.3-1.9c0-0.1,0.1-0.3,0.1-0.4
			c0-0.2,0.1-0.4,0.1-0.6c0-0.3,0-0.5-0.1-0.7c-0.2-0.4-0.4-0.6-0.8-0.8c-0.4-0.2-1-0.4-2-0.6c-0.9-0.2-1.5-0.5-1.8-0.9
			c-0.2-0.3-0.3-0.6-0.3-1c0-0.1,0-0.2,0-0.3c0.1-0.5,0.4-1,0.9-1.3c0.4-0.3,0.8-0.4,1.3-0.4c0.1,0,0.3,0,0.5,0l0.1,0
			c1.2,0.2,1.9,0.9,2,2.1H199.1z"/>
		<path class="st1" d="M209.3,203.9h-3c-2.2,0-3.3-1.1-3.4-3.2v-0.2c0-2.1,1-3.1,3-3.1c1.1,0,1.9,0.3,2.5,0.9l0-0.6
			c-0.2-1.5-1-2.3-2.4-2.3c-0.4,0-0.8,0.1-1.1,0.3l-0.7-0.6c0.5-0.4,1.1-0.6,1.9-0.6c1.9,0,3,1,3.3,2.9V203.9z M203.8,200.6
			c0.1,1.6,0.9,2.3,2.4,2.3h2.2v-2.6c-0.2-1.5-1.1-2.2-2.4-2.2c-1.4,0-2.2,0.8-2.2,2.2C203.8,200.4,203.8,200.5,203.8,200.6z"/>
	</g>
	<g>
		<g>
			<rect x="24.5" y="135.3" class="st2" width="5.9" height="2.2"/>
			<rect x="24.5" y="166.4" class="st2" width="5.9" height="2.2"/>
			<rect x="24.5" y="197.5" class="st2" width="5.9" height="2.2"/>
		</g>
		<circle class="st2" cx="10.8" cy="40.6" r="2.5"/>
		<circle class="st2" cx="10.8" cy="105.1" r="2.5"/>
		<circle class="st2" cx="10.8" cy="72.6" r="2.5"/>
	</g>
</g>
</svg>
