<!-- Generator: Adobe Illustrator 20.1.0, SVG Export Plug-In  -->
<svg version="1.1"
	 xmlns="http://www.w3.org/2000/svg" xmlns:xlink="http://www.w3.org/1999/xlink" xmlns:a="http://ns.adobe.com/AdobeSVGViewerExtensions/3.0/"
	 x="0px" y="0px" width="418.5px" height="57.7px" viewBox="0 0 418.5 57.7"
	 style="overflow:scroll;enable-background:new 0 0 418.5 57.7;" xml:space="preserve">
<style type="text/css">
	.st0{fill:#58595B;}
</style>
<defs>
</defs>
<g>
	<path class="st0" d="M0.6,0.9h5.9v0.9H1.5v4.5H5v0.9H1.5v4.9H7V13H0.6V0.9z"/>
	<path class="st0" d="M10.6,13H9.7V0.9h0.9V13z"/>
	<path class="st0" d="M22.9,7.4c1.5-2.5,2.2-4.3,2.2-5.6h-5.8l0-0.9h6.7c0,0.4,0.1,0.7,0.1,1c0,1.3-0.8,3.2-2.3,5.7
		c-1.5,2.5-2.3,4.3-2.3,5.4h-1C20.7,11.7,21.4,9.9,22.9,7.4z"/>
	<path class="st0" d="M31.8,0.6c2.2,0,3.4,2,3.6,6c-0.1,4.2-1.3,6.4-3.6,6.4c-2.3,0-3.5-2.1-3.5-6.4C28.5,2.7,29.7,0.6,31.8,0.6z
		 M34.5,6.7c-0.1-3.4-1-5.1-2.6-5.1c-1.6,0-2.5,1.7-2.6,5.1c0.1,3.6,0.9,5.4,2.6,5.4C33.6,12.1,34.4,10.3,34.5,6.7z M32.3,6.4
		c0.1,0.1,0.2,0.3,0.2,0.5c0,0.2-0.1,0.4-0.2,0.5c-0.1,0.1-0.3,0.2-0.5,0.2c-0.2,0-0.4-0.1-0.5-0.2C31.1,7.3,31,7.1,31,6.9
		c0-0.2,0.1-0.4,0.2-0.5c0.1-0.2,0.3-0.2,0.5-0.2C32,6.1,32.2,6.2,32.3,6.4z"/>
	<path class="st0" d="M41.1,2.6c0.5,0.5,0.7,1.1,0.7,1.8c0,0.7-0.2,1.3-0.7,1.8c-0.5,0.5-1.1,0.7-1.8,0.7c-0.7,0-1.3-0.2-1.8-0.7
		c-0.5-0.5-0.7-1.1-0.7-1.8c0-0.7,0.2-1.3,0.7-1.8c0.5-0.5,1.1-0.7,1.8-0.7C40,1.9,40.6,2.1,41.1,2.6z M39.3,2.7
		c-0.4,0-0.8,0.2-1.2,0.5c-0.3,0.3-0.5,0.7-0.5,1.2c0,0.5,0.2,0.9,0.5,1.2c0.3,0.3,0.7,0.5,1.2,0.5c0.5,0,0.9-0.2,1.2-0.5
		C40.8,5.3,41,4.9,41,4.4c0-0.4-0.2-0.8-0.5-1.2C40.1,2.9,39.7,2.7,39.3,2.7z M47.2,0.3l0.7,0.5l-8.9,12.7l-0.7-0.5L47.2,0.3z
		 M48.5,8c0.5,0.5,0.7,1.1,0.7,1.8c0,0.7-0.2,1.3-0.7,1.8c-0.5,0.5-1.1,0.7-1.8,0.7c-0.7,0-1.3-0.2-1.8-0.7
		c-0.5-0.5-0.7-1.1-0.7-1.8c0-0.7,0.2-1.3,0.7-1.8c0.5-0.5,1.1-0.7,1.8-0.7C47.4,7.3,48,7.5,48.5,8z M46.7,8.1
		c-0.4,0-0.8,0.2-1.2,0.5C45.2,8.9,45,9.3,45,9.8c0,0.5,0.2,0.9,0.5,1.2c0.3,0.3,0.7,0.5,1.2,0.5c0.5,0,0.9-0.2,1.2-0.5
		c0.3-0.3,0.5-0.7,0.5-1.2c0-0.4-0.2-0.8-0.5-1.2C47.6,8.2,47.2,8.1,46.7,8.1z"/>
	<path class="st0" d="M62.8,13h-4.2c0,0-0.1,0-0.1,0c-1.3,0-2-1.3-2.1-3.9c0-0.3,0-0.6,0-0.9c0-3,1-4.4,3.1-4.4
		c1.1,0,1.9,0.3,2.5,0.9V0.9h0.9V13z M57.1,9c0,2.1,0.6,3.1,1.8,3.1h3.1l0-5.4c-0.3-1.5-1.1-2.2-2.4-2.2h-0.1
		c-1.5,0-2.2,1.3-2.2,3.8C57.1,8.6,57.1,8.8,57.1,9z"/>
	<path class="st0" d="M66.1,7.3c0,0.4,0,0.7,0,1.1c0,2.7,0.8,4.1,2.4,4.1c0.1,0,0.1,0,0.2,0c1.7-0.2,2.6-1.3,2.7-3.3h0.7
		c-0.2,2.7-1.5,4.1-3.9,4.1c-1.7-0.1-2.6-1.1-3-3c-0.1-0.8-0.2-1.5-0.2-2.1c0-0.9,0.1-1.7,0.4-2.2c0.6-1.4,1.7-2.2,3.1-2.2
		c0.1,0,0.2,0,0.4,0c1.6,0.1,2.5,1.3,2.7,3.6H66.1z M68.8,4.5c-0.1,0-0.1,0-0.2,0c-0.1,0-0.2,0-0.3,0c-1,0-1.7,0.7-2.2,2h4.7
		C70.6,5.3,69.9,4.6,68.8,4.5z"/>
	<path class="st0" d="M75.5,13h-0.9V0.9h0.9V13z"/>
	<path class="st0" d="M88.3,5.6c-0.2-0.7-0.6-1.1-1.4-1.2l-0.1,0c-0.1,0-0.2,0-0.2,0c-0.2,0-0.5,0.1-0.7,0.2
		c-0.3,0.2-0.5,0.4-0.6,0.8c0,0.1,0,0.1,0,0.2c0,0.5,0.3,0.8,0.8,1c0.6,0.2,1.4,0.4,2.2,0.6c0.9,0.3,1.4,0.7,1.7,1.2
		c0.2,0.3,0.2,0.7,0.2,1.1c0,0.3,0,0.5-0.1,0.8l-0.1,0.3c-0.5,1.7-1.5,2.6-3.1,2.6c-0.2,0-0.4,0-0.7-0.1c-1.7-0.3-2.6-1.5-2.6-3.5
		c0-0.1,0-0.3,0-0.4h1c0,0.2,0,0.3,0,0.5c0,1.6,0.6,2.5,1.8,2.7c0.2,0,0.3,0,0.5,0c1.1,0,1.9-0.6,2.3-1.9c0-0.1,0.1-0.3,0.1-0.4
		c0-0.2,0.1-0.4,0.1-0.6c0-0.3,0-0.5-0.1-0.7c-0.2-0.4-0.4-0.6-0.8-0.8c-0.4-0.2-1-0.4-2-0.6c-0.9-0.2-1.5-0.5-1.8-0.9
		c-0.2-0.3-0.3-0.6-0.3-1c0-0.1,0-0.2,0-0.3c0.1-0.5,0.4-1,0.9-1.3c0.4-0.3,0.8-0.4,1.3-0.4c0.1,0,0.3,0,0.5,0l0.1,0
		c1.2,0.2,1.9,0.9,2,2.1H88.3z"/>
	<path class="st0" d="M94.2,0.2c0.1,0.2,0.2,0.3,0.2,0.6c0,0.2-0.1,0.4-0.2,0.5c-0.1,0.2-0.3,0.2-0.6,0.2c-0.2,0-0.4-0.1-0.6-0.2
		C93,1.2,92.9,1,92.9,0.8c0-0.2,0.1-0.4,0.2-0.6C93.3,0.1,93.5,0,93.7,0C93.9,0,94.1,0.1,94.2,0.2z M94.1,13h-0.9V3.9h0.9V13z"/>
	<path class="st0" d="M101.4,5.6c-0.2-0.7-0.6-1.1-1.4-1.2l-0.1,0c-0.1,0-0.2,0-0.2,0c-0.2,0-0.5,0.1-0.7,0.2
		c-0.3,0.2-0.5,0.4-0.6,0.8c0,0.1,0,0.1,0,0.2c0,0.5,0.3,0.8,0.8,1c0.6,0.2,1.4,0.4,2.2,0.6c0.9,0.3,1.4,0.7,1.7,1.2
		c0.2,0.3,0.2,0.7,0.2,1.1c0,0.3,0,0.5-0.1,0.8l-0.1,0.3c-0.5,1.7-1.5,2.6-3.1,2.6c-0.2,0-0.4,0-0.7-0.1c-1.7-0.3-2.6-1.5-2.6-3.5
		c0-0.1,0-0.3,0-0.4h1c0,0.2,0,0.3,0,0.5c0,1.6,0.6,2.5,1.8,2.7c0.2,0,0.3,0,0.5,0c1.1,0,1.9-0.6,2.3-1.9c0-0.1,0.1-0.3,0.1-0.4
		c0-0.2,0.1-0.4,0.1-0.6c0-0.3,0-0.5-0.1-0.7c-0.2-0.4-0.4-0.6-0.8-0.8c-0.4-0.2-1-0.4-2-0.6c-0.9-0.2-1.5-0.5-1.8-0.9
		c-0.2-0.3-0.3-0.6-0.3-1c0-0.1,0-0.2,0-0.3c0.1-0.5,0.4-1,0.9-1.3c0.4-0.3,0.8-0.4,1.3-0.4c0.1,0,0.3,0,0.5,0l0.1,0
		c1.2,0.2,1.9,0.9,2,2.1H101.4z"/>
	<path class="st0" d="M107.3,3.9h1.5v0.9h-1.5V13h-0.9V4.8H105V3.9h1.5V1.8h0.9V3.9z"/>
	<path class="st0" d="M110.9,7.3c0,0.4,0,0.7,0,1.1c0,2.7,0.8,4.1,2.4,4.1c0.1,0,0.1,0,0.2,0c1.7-0.2,2.6-1.3,2.7-3.3h0.7
		c-0.2,2.7-1.5,4.1-3.9,4.1c-1.7-0.1-2.6-1.1-3-3C110,9.4,110,8.7,110,8c0-0.9,0.1-1.7,0.4-2.2c0.6-1.4,1.7-2.2,3.1-2.2
		c0.1,0,0.2,0,0.4,0c1.6,0.1,2.5,1.3,2.7,3.6H110.9z M113.6,4.5c-0.1,0-0.1,0-0.2,0c-0.1,0-0.2,0-0.3,0c-1,0-1.7,0.7-2.2,2h4.7
		C115.4,5.3,114.8,4.6,113.6,4.5z"/>
	<path class="st0" d="M124.8,5.8V13h-0.9V6.5c0-1.2-0.6-1.8-1.8-1.8h-0.1c-1.2,0-1.9,0.7-2.2,2.1V13h-0.9V3.9h0.9v0.8
		c0.5-0.6,1.3-0.9,2.5-0.9c0.9,0.1,1.6,0.5,1.9,1.1c0.6-0.8,1.4-1.1,2.4-1.1h0c2,0,2.9,1.3,2.9,3.9c0,0.2,0,0.4,0,0.5V13h-0.9V8.4
		c0-0.1,0-0.2,0-0.3c0-2-0.5-3.2-1.5-3.4c-0.2,0-0.4-0.1-0.6-0.1C125.7,4.6,125.2,5,124.8,5.8z"/>
	<path class="st0" d="M138.1,13h-3c-2.2,0-3.3-1.1-3.4-3.2V9.6c0-2.1,1-3.1,3-3.1c1.1,0,1.9,0.3,2.4,0.9l0-0.6
		c-0.2-1.5-1-2.3-2.4-2.3c-0.4,0-0.8,0.1-1.1,0.3L133,4.2c0.5-0.4,1.1-0.6,1.9-0.6c1.9,0,3,1,3.3,2.9V13z M132.6,9.7
		c0.1,1.6,0.9,2.3,2.4,2.3h2.2V9.5c-0.2-1.5-1.1-2.2-2.4-2.2c-1.4,0-2.2,0.8-2.2,2.2C132.6,9.5,132.6,9.6,132.6,9.7z"/>
	<path class="st0" d="M147.9,0.2c0.1,0.2,0.2,0.3,0.2,0.6c0,0.2-0.1,0.4-0.2,0.5c-0.1,0.2-0.3,0.2-0.6,0.2c-0.2,0-0.4-0.1-0.6-0.2
		c-0.2-0.2-0.2-0.3-0.2-0.5c0-0.2,0.1-0.4,0.2-0.6c0.2-0.2,0.3-0.2,0.6-0.2C147.6,0,147.8,0.1,147.9,0.2z M147.8,13h-0.9V3.9h0.9V13
		z"/>
	<path class="st0" d="M151.8,13h-0.9V3.9h0.9v0.8c0.5-0.6,1.3-0.9,2.5-0.9h0c1.9,0,2.9,1.4,2.9,4.1c0,0.1,0,0.3,0,0.4V13h-0.9V8.4
		c0-0.2,0-0.3,0-0.4c0-2.1-0.6-3.2-1.9-3.4h-0.1c-1.4,0-2.2,0.7-2.4,2.2V13z"/>
	<path class="st0" d="M165.4,5.8V13h-0.9V6.5c0-1.2-0.6-1.8-1.8-1.8h-0.1c-1.2,0-1.9,0.7-2.2,2.1V13h-0.9V3.9h0.9v0.8
		c0.5-0.6,1.3-0.9,2.5-0.9c0.9,0.1,1.6,0.5,1.9,1.1c0.6-0.8,1.4-1.1,2.4-1.1h0c2,0,2.9,1.3,2.9,3.9c0,0.2,0,0.4,0,0.5V13h-0.9V8.4
		c0-0.1,0-0.2,0-0.3c0-2-0.5-3.2-1.5-3.4c-0.2,0-0.4-0.1-0.6-0.1C166.4,4.6,165.8,5,165.4,5.8z"/>
	<path class="st0" d="M178.1,3.9h0.9V13h-0.9v-0.8c-0.5,0.6-1.3,0.9-2.4,0.9c-1.9,0-2.9-1.5-2.9-4.4V3.9h0.9v4.6
		c0,2.6,0.6,3.8,1.9,3.8h0.1c1.4,0,2.2-0.7,2.5-2.2V3.9z"/>
	<path class="st0" d="M182.3,13h-0.9V3.9h0.9v0.8c0.5-0.6,1.3-0.9,2.5-0.9h0c1.9,0,2.9,1.4,2.9,4.1c0,0.1,0,0.3,0,0.4V13h-0.9V8.4
		c0-0.2,0-0.3,0-0.4c0-2.1-0.6-3.2-1.9-3.4h-0.1c-1.4,0-2.2,0.7-2.4,2.2V13z"/>
	<path class="st0" d="M191.9,0.2c0.1,0.2,0.2,0.3,0.2,0.6c0,0.2-0.1,0.4-0.2,0.5c-0.1,0.2-0.3,0.2-0.6,0.2c-0.2,0-0.4-0.1-0.6-0.2
		c-0.2-0.2-0.2-0.3-0.2-0.5c0-0.2,0.1-0.4,0.2-0.6c0.2-0.2,0.3-0.2,0.6-0.2C191.5,0,191.7,0.1,191.9,0.2z M191.8,13h-0.9V3.9h0.9V13
		z"/>
	<path class="st0" d="M196.4,3.9h1.5v0.9h-1.5V13h-0.9V4.8H194V3.9h1.5V1.8h0.9V3.9z"/>
	<path class="st0" d="M205.8,13h-3c-2.2,0-3.3-1.1-3.4-3.2V9.6c0-2.1,1-3.1,3-3.1c1.1,0,1.9,0.3,2.4,0.9l0-0.6
		c-0.2-1.5-1-2.3-2.4-2.3c-0.4,0-0.8,0.1-1.1,0.3l-0.7-0.6c0.5-0.4,1.1-0.6,1.9-0.6c1.9,0,3,1,3.3,2.9V13z M200.3,9.7
		c0.1,1.6,0.9,2.3,2.4,2.3h2.2V9.5c-0.2-1.5-1.1-2.2-2.4-2.2c-1.4,0-2.2,0.8-2.2,2.2C200.3,9.5,200.3,9.6,200.3,9.7z"/>
	<path class="st0" d="M208.8,13h-0.9V3.9h0.9v0.4c0.2-0.2,0.5-0.4,1-0.5c0.2,0,0.3-0.1,0.5-0.1c0.3,0,0.7,0.1,1.2,0.2l-0.4,0.7
		c-0.3-0.1-0.5-0.1-0.7-0.1c-0.3,0-0.5,0.1-0.8,0.2c-0.4,0.2-0.6,0.6-0.8,1.4V13z"/>
	<path class="st0" d="M214.9,0.2c0.1,0.2,0.2,0.3,0.2,0.6c0,0.2-0.1,0.4-0.2,0.5c-0.1,0.2-0.3,0.2-0.6,0.2c-0.2,0-0.4-0.1-0.6-0.2
		c-0.2-0.2-0.2-0.3-0.2-0.5c0-0.2,0.1-0.4,0.2-0.6c0.2-0.2,0.3-0.2,0.6-0.2C214.6,0,214.7,0.1,214.9,0.2z M214.8,13h-0.9V3.9h0.9V13
		z"/>
	<path class="st0" d="M221.1,3.5c2.2,0,3.3,1.6,3.5,4.8c-0.1,3.3-1.3,4.9-3.5,4.9c-2.3,0-3.5-1.6-3.5-4.9
		C217.7,5.1,218.9,3.5,221.1,3.5z M223.7,8.3c-0.1-2.6-1-3.8-2.6-3.8c-1.6,0-2.5,1.3-2.6,3.8c0.1,2.7,0.9,4,2.6,4
		C222.7,12.3,223.6,11,223.7,8.3z"/>
	<path class="st0" d="M233,7.3c0,0.4,0,0.7,0,1.1c0,2.7,0.8,4.1,2.4,4.1c0.1,0,0.1,0,0.2,0c1.7-0.2,2.6-1.3,2.7-3.3h0.7
		c-0.2,2.7-1.5,4.1-3.9,4.1c-1.7-0.1-2.6-1.1-3-3c-0.1-0.8-0.2-1.5-0.2-2.1c0-0.9,0.1-1.7,0.4-2.2c0.6-1.4,1.7-2.2,3.1-2.2
		c0.1,0,0.2,0,0.4,0c1.6,0.1,2.5,1.3,2.7,3.6H233z M235.8,4.5c-0.1,0-0.1,0-0.2,0c-0.1,0-0.2,0-0.3,0c-1,0-1.7,0.7-2.2,2h4.7
		C237.6,5.3,236.9,4.6,235.8,4.5z"/>
	<path class="st0" d="M245.2,5.6c-0.2-0.7-0.6-1.1-1.4-1.2l-0.1,0c-0.1,0-0.2,0-0.2,0c-0.2,0-0.5,0.1-0.7,0.2
		c-0.3,0.2-0.5,0.4-0.6,0.8c0,0.1,0,0.1,0,0.2c0,0.5,0.3,0.8,0.8,1c0.6,0.2,1.4,0.4,2.2,0.6c0.9,0.3,1.4,0.7,1.7,1.2
		c0.2,0.3,0.2,0.7,0.2,1.1c0,0.3,0,0.5-0.1,0.8l-0.1,0.3c-0.5,1.7-1.5,2.6-3.1,2.6c-0.2,0-0.4,0-0.7-0.1c-1.7-0.3-2.6-1.5-2.6-3.5
		c0-0.1,0-0.3,0-0.4h1c0,0.2,0,0.3,0,0.5c0,1.6,0.6,2.5,1.8,2.7c0.2,0,0.3,0,0.5,0c1.1,0,1.9-0.6,2.3-1.9c0-0.1,0.1-0.3,0.1-0.4
		c0-0.2,0.1-0.4,0.1-0.6c0-0.3,0-0.5-0.1-0.7c-0.2-0.4-0.4-0.6-0.8-0.8c-0.4-0.2-1-0.4-2-0.6c-0.9-0.2-1.5-0.5-1.8-0.9
		c-0.2-0.3-0.3-0.6-0.3-1c0-0.1,0-0.2,0-0.3c0.1-0.5,0.4-1,0.9-1.3c0.4-0.3,0.8-0.4,1.3-0.4c0.1,0,0.3,0,0.5,0l0.1,0
		c1.2,0.2,1.9,0.9,2,2.1H245.2z"/>
	<path class="st0" d="M251,3.9h1.5v0.9H251V13h-0.9V4.8h-1.5V3.9h1.5V1.8h0.9V3.9z"/>
	<path class="st0" d="M260.3,13h-3c-2.2,0-3.3-1.1-3.4-3.2V9.6c0-2.1,1-3.1,3-3.1c1.1,0,1.9,0.3,2.4,0.9l0-0.6
		c-0.2-1.5-1-2.3-2.4-2.3c-0.4,0-0.8,0.1-1.1,0.3l-0.7-0.6c0.5-0.4,1.1-0.6,1.9-0.6c1.9,0,3,1,3.3,2.9V13z M254.8,9.7
		c0.1,1.6,0.9,2.3,2.4,2.3h2.2V9.5c-0.2-1.5-1.1-2.2-2.4-2.2c-1.4,0-2.2,0.8-2.2,2.2C254.8,9.5,254.8,9.6,254.8,9.7z M256.3,2.3
		l0.8-2h1.6l-1.7,2L256.3,2.3z"/>
	<path class="st0" d="M269.5,13h-0.9V0.9h0.9V13z"/>
	<path class="st0" d="M275.1,3.5c2.2,0,3.3,1.6,3.5,4.8c-0.1,3.3-1.3,4.9-3.5,4.9c-2.3,0-3.5-1.6-3.5-4.9
		C271.7,5.1,272.9,3.5,275.1,3.5z M277.7,8.3c-0.1-2.6-1-3.8-2.6-3.8c-1.6,0-2.5,1.3-2.6,3.8c0.1,2.7,0.9,4,2.6,4
		C276.8,12.3,277.6,11,277.7,8.3z"/>
	<path class="st0" d="M283.5,4.7c-0.8,0-1.4,0.5-1.8,1.5c-0.3,0.7-0.4,1.4-0.4,2.3c0,0.5,0,1,0.1,1.6c0.2,1.5,1.1,2.3,2.5,2.3h0.1
		c1.7-0.2,2.6-1.3,2.6-3.3l0.9,0c-0.1,2.6-1.3,4-3.7,4.1c-0.1,0-0.2,0-0.2,0c-1.7,0-2.7-0.8-3.1-2.4c-0.2-0.8-0.3-1.5-0.3-2.2
		c0-0.9,0.2-1.8,0.5-2.6c0.5-1.5,1.5-2.2,3-2.2h0.2c1.1,0,2,0.5,2.6,1.4l-0.6,0.6c-0.5-0.7-1.1-1.1-2-1.1
		C283.7,4.6,283.6,4.6,283.5,4.7z"/>
	<path class="st0" d="M295.5,13h-3c-2.2,0-3.3-1.1-3.4-3.2V9.6c0-2.1,1-3.1,3-3.1c1.1,0,1.9,0.3,2.4,0.9l0-0.6
		c-0.2-1.5-1-2.3-2.4-2.3c-0.4,0-0.8,0.1-1.1,0.3l-0.7-0.6c0.5-0.4,1.1-0.6,1.9-0.6c1.9,0,3,1,3.3,2.9V13z M290,9.7
		c0.1,1.6,0.9,2.3,2.4,2.3h2.2V9.5c-0.2-1.5-1.1-2.2-2.4-2.2c-1.4,0-2.2,0.8-2.2,2.2C290,9.5,290,9.6,290,9.7z"/>
	<path class="st0" d="M299.1,13h-0.9V0.9h0.9V13z"/>
	<path class="st0" d="M303.8,0.2c0.1,0.2,0.2,0.3,0.2,0.6c0,0.2-0.1,0.4-0.2,0.5c-0.1,0.2-0.3,0.2-0.6,0.2c-0.2,0-0.4-0.1-0.6-0.2
		c-0.2-0.2-0.2-0.3-0.2-0.5c0-0.2,0.1-0.4,0.2-0.6c0.2-0.2,0.3-0.2,0.6-0.2C303.5,0,303.7,0.1,303.8,0.2z M303.7,13h-0.9V3.9h0.9V13
		z"/>
	<path class="st0" d="M308.2,12.2h5.2V13h-6.6l4.2-8.3h-4.3V3.9h5.7L308.2,12.2z"/>
	<path class="st0" d="M321.6,13h-3c-2.2,0-3.3-1.1-3.4-3.2V9.6c0-2.1,1-3.1,3-3.1c1.1,0,1.9,0.3,2.4,0.9l0-0.6
		c-0.2-1.5-1-2.3-2.4-2.3c-0.4,0-0.8,0.1-1.1,0.3l-0.7-0.6c0.5-0.4,1.1-0.6,1.9-0.6c1.9,0,3,1,3.3,2.9V13z M316.1,9.7
		c0.1,1.6,0.9,2.3,2.4,2.3h2.2V9.5c-0.2-1.5-1.1-2.2-2.4-2.2c-1.4,0-2.2,0.8-2.2,2.2C316.1,9.5,316.1,9.6,316.1,9.7z"/>
	<path class="st0" d="M330.2,13H326c0,0-0.1,0-0.1,0c-1.3,0-2-1.3-2.1-3.9c0-0.3,0-0.6,0-0.9c0-3,1-4.4,3.1-4.4
		c1.1,0,1.9,0.3,2.5,0.9V0.9h0.9V13z M324.5,9c0,2.1,0.6,3.1,1.8,3.1h3.1l0-5.4c-0.3-1.5-1.1-2.2-2.4-2.2h-0.1
		c-1.5,0-2.2,1.3-2.2,3.8C324.5,8.6,324.5,8.8,324.5,9z"/>
	<path class="st0" d="M335.8,3.5c2.2,0,3.3,1.6,3.5,4.8c-0.1,3.3-1.3,4.9-3.5,4.9c-2.3,0-3.5-1.6-3.5-4.9
		C332.5,5.1,333.7,3.5,335.8,3.5z M338.4,8.3c-0.1-2.6-1-3.8-2.6-3.8c-1.6,0-2.5,1.3-2.6,3.8c0.1,2.7,0.9,4,2.6,4
		C337.5,12.3,338.4,11,338.4,8.3z"/>
	<path class="st0" d="M347.8,7.3c0,0.4,0,0.7,0,1.1c0,2.7,0.8,4.1,2.4,4.1c0.1,0,0.1,0,0.2,0c1.7-0.2,2.6-1.3,2.7-3.3h0.7
		c-0.2,2.7-1.5,4.1-3.9,4.1c-1.7-0.1-2.6-1.1-3-3c-0.1-0.8-0.2-1.5-0.2-2.1c0-0.9,0.1-1.7,0.4-2.2c0.6-1.4,1.7-2.2,3.1-2.2
		c0.1,0,0.2,0,0.4,0c1.6,0.1,2.5,1.3,2.7,3.6H347.8z M350.5,4.5c-0.1,0-0.1,0-0.2,0c-0.1,0-0.2,0-0.3,0c-1,0-1.7,0.7-2.2,2h4.7
		C352.3,5.3,351.7,4.6,350.5,4.5z"/>
	<path class="st0" d="M356.6,13h-0.9V3.9h0.9v0.8c0.5-0.6,1.3-0.9,2.5-0.9h0c1.9,0,2.9,1.4,2.9,4.1c0,0.1,0,0.3,0,0.4V13h-0.9V8.4
		c0-0.2,0-0.3,0-0.4c0-2.1-0.6-3.2-1.9-3.4h-0.1c-1.4,0-2.2,0.7-2.4,2.2V13z"/>
	<path class="st0" d="M370.8,7.3c0,0.4,0,0.7,0,1.1c0,2.7,0.8,4.1,2.4,4.1c0.1,0,0.1,0,0.2,0c1.7-0.2,2.6-1.3,2.7-3.3h0.7
		c-0.2,2.7-1.5,4.1-3.9,4.1c-1.7-0.1-2.6-1.1-3-3c-0.1-0.8-0.2-1.5-0.2-2.1c0-0.9,0.1-1.7,0.4-2.2c0.6-1.4,1.7-2.2,3.1-2.2
		c0.1,0,0.2,0,0.4,0c1.6,0.1,2.5,1.3,2.7,3.6H370.8z M373.6,4.5c-0.1,0-0.1,0-0.2,0c-0.1,0-0.2,0-0.3,0c-1,0-1.7,0.7-2.2,2h4.7
		C375.4,5.3,374.7,4.6,373.6,4.5z"/>
	<path class="st0" d="M380.3,13h-0.9V0.9h0.9V13z"/>
	<path class="st0" d="M390.6,3.9h1.5v0.9h-1.5V13h-0.9V4.8h-1.5V3.9h1.5V1.8h0.9V3.9z"/>
	<path class="st0" d="M399.4,3.9h0.9V13h-0.9v-0.8c-0.5,0.6-1.3,0.9-2.4,0.9c-1.9,0-2.9-1.5-2.9-4.4V3.9h0.9v4.6
		c0,2.6,0.6,3.8,1.9,3.8h0.1c1.4,0,2.2-0.7,2.5-2.2V3.9z"/>
	<path class="st0" d="M402.9,0.9h0.9v3.8c0.5-0.6,1.3-0.9,2.4-0.9c2.1,0,3.1,1.5,3.1,4.4c0,0.3,0,0.6,0,0.9
		c-0.1,2.6-0.8,3.9-2.1,3.9c-0.1,0-0.1,0-0.1,0h-4.2V0.9z M408.6,9c0-0.2,0-0.4,0-0.6c0-2.6-0.7-3.8-2.2-3.8h-0.1
		c-1.4,0-2.2,0.7-2.4,2.2l0,5.4h3.1C408,12.2,408.6,11.1,408.6,9z"/>
	<path class="st0" d="M414.8,3.5c2.2,0,3.3,1.6,3.5,4.8c-0.1,3.3-1.3,4.9-3.5,4.9c-2.3,0-3.5-1.6-3.5-4.9
		C411.5,5.1,412.6,3.5,414.8,3.5z M417.4,8.3c-0.1-2.6-1-3.8-2.6-3.8c-1.6,0-2.5,1.3-2.6,3.8c0.1,2.7,0.9,4,2.6,4
		C416.5,12.3,417.4,11,417.4,8.3z"/>
	<path class="st0" d="M6.9,35c-0.3,1.9-1.4,2.9-3.3,2.9c-0.8,0-1.4-0.2-1.9-0.6l0.7-0.6c0.3,0.2,0.7,0.3,1.1,0.3
		c1.4,0,2.2-0.8,2.4-2.3l0-0.6c-0.5,0.6-1.3,0.9-2.5,0.9c-2.1,0-3.1-1.5-3.1-4.4c0-0.3,0-0.6,0-0.9c0.2-2.8,1.4-4.2,3.6-4.2
		c0.6,0,1.2,0.1,1.9,0.3h0.9L6.9,35z M1.2,29.9c0,0.2,0,0.4,0,0.6c0,2.6,0.7,3.8,2.2,3.8h0.1c1.4,0,2.2-0.7,2.4-2.2V27
		c-0.8-0.3-1.5-0.4-2.1-0.4C2.2,26.5,1.3,27.6,1.2,29.9z"/>
	<path class="st0" d="M15.7,35.1h-3c-2.2,0-3.3-1.1-3.4-3.2v-0.2c0-2.1,1-3.1,3-3.1c1.1,0,1.9,0.3,2.4,0.9l0-0.6
		c-0.2-1.5-1-2.3-2.4-2.3c-0.4,0-0.8,0.1-1.1,0.3l-0.7-0.6c0.5-0.4,1.1-0.6,1.9-0.6c1.9,0,3,1,3.3,2.9V35.1z M10.3,31.8
		c0.1,1.6,0.9,2.3,2.4,2.3h2.2v-2.6c-0.2-1.5-1.1-2.2-2.4-2.2c-1.4,0-2.2,0.8-2.2,2.2C10.2,31.6,10.2,31.7,10.3,31.8z"/>
	<path class="st0" d="M22,27.7c-0.2-0.7-0.6-1.1-1.4-1.2l-0.1,0c-0.1,0-0.2,0-0.2,0c-0.2,0-0.5,0.1-0.7,0.2
		c-0.3,0.2-0.5,0.4-0.6,0.8c0,0.1,0,0.1,0,0.2c0,0.5,0.3,0.8,0.8,1c0.6,0.2,1.4,0.4,2.2,0.6c0.9,0.3,1.4,0.7,1.7,1.2
		c0.2,0.3,0.2,0.7,0.2,1.1c0,0.3,0,0.5-0.1,0.8L24,32.7c-0.5,1.7-1.5,2.6-3.1,2.6c-0.2,0-0.4,0-0.7-0.1c-1.7-0.3-2.6-1.5-2.6-3.5
		c0-0.1,0-0.3,0-0.4h1c0,0.2,0,0.3,0,0.5c0,1.6,0.6,2.5,1.8,2.7c0.2,0,0.3,0,0.5,0c1.1,0,1.9-0.6,2.3-1.9c0-0.1,0.1-0.3,0.1-0.4
		c0-0.2,0.1-0.4,0.1-0.6c0-0.3,0-0.5-0.1-0.7c-0.2-0.4-0.4-0.6-0.8-0.8c-0.4-0.2-1-0.4-2-0.6c-0.9-0.2-1.5-0.5-1.8-0.9
		c-0.2-0.3-0.3-0.6-0.3-1c0-0.1,0-0.2,0-0.3c0.1-0.5,0.4-1,0.9-1.3c0.4-0.3,0.8-0.4,1.3-0.4c0.1,0,0.3,0,0.5,0l0.1,0
		c1.2,0.2,1.9,0.9,2,2.1H22z"/>
	<path class="st0" d="M27.9,25.9h1.5v0.9h-1.5v8.3H27v-8.3h-1.5v-0.9H27v-2.1h0.9V25.9z"/>
	<path class="st0" d="M32,35.1h-0.9V26H32v0.4c0.2-0.2,0.5-0.4,1-0.5c0.2,0,0.3-0.1,0.5-0.1c0.3,0,0.7,0.1,1.2,0.2l-0.4,0.7
		c-0.3-0.1-0.5-0.1-0.7-0.1c-0.3,0-0.5,0.1-0.8,0.2c-0.4,0.2-0.6,0.6-0.8,1.4V35.1z"/>
	<path class="st0" d="M39.2,25.6c2.2,0,3.3,1.6,3.5,4.8c-0.1,3.3-1.3,4.9-3.5,4.9c-2.3,0-3.5-1.6-3.5-4.9
		C35.9,27.2,37.1,25.6,39.2,25.6z M41.8,30.4c-0.1-2.6-1-3.8-2.6-3.8c-1.6,0-2.5,1.3-2.6,3.8c0.1,2.7,0.9,4,2.6,4
		C40.9,34.4,41.8,33.1,41.8,30.4z"/>
	<path class="st0" d="M46.5,22.3c0.1,0.2,0.2,0.3,0.2,0.6c0,0.2-0.1,0.4-0.2,0.5c-0.1,0.2-0.3,0.2-0.6,0.2c-0.2,0-0.4-0.1-0.6-0.2
		c-0.2-0.2-0.2-0.3-0.2-0.5c0-0.2,0.1-0.4,0.2-0.6c0.2-0.2,0.3-0.2,0.6-0.2C46.2,22.1,46.4,22.2,46.5,22.3z M46.4,35.1h-0.9V26h0.9
		V35.1z"/>
	<path class="st0" d="M50.4,35.1h-0.9V26h0.9v0.8c0.5-0.6,1.3-0.9,2.5-0.9h0c1.9,0,2.9,1.4,2.9,4.1c0,0.1,0,0.3,0,0.4v4.8H55v-4.6
		c0-0.2,0-0.3,0-0.4c0-2.1-0.6-3.2-1.9-3.4h-0.1c-1.4,0-2.2,0.7-2.4,2.2V35.1z"/>
	<path class="st0" d="M59.7,25.9h1.5v0.9h-1.5v8.3h-0.9v-8.3h-1.5v-0.9h1.5v-2.1h0.9V25.9z"/>
	<path class="st0" d="M63.3,29.3c0,0.4,0,0.7,0,1.1c0,2.7,0.8,4.1,2.4,4.1c0.1,0,0.1,0,0.2,0c1.7-0.2,2.6-1.3,2.7-3.3h0.7
		c-0.2,2.7-1.5,4.1-3.9,4.1c-1.7-0.1-2.6-1.1-3-3c-0.1-0.8-0.2-1.5-0.2-2.1c0-0.9,0.1-1.7,0.4-2.2c0.6-1.4,1.7-2.2,3.1-2.2
		c0.1,0,0.2,0,0.4,0c1.6,0.1,2.5,1.3,2.7,3.6H63.3z M66,26.6c-0.1,0-0.1,0-0.2,0c-0.1,0-0.2,0-0.3,0c-1,0-1.7,0.7-2.2,2H68
		C67.8,27.3,67.2,26.7,66,26.6z"/>
	<path class="st0" d="M75.5,27.7c-0.2-0.7-0.6-1.1-1.4-1.2l-0.1,0c-0.1,0-0.2,0-0.2,0c-0.2,0-0.5,0.1-0.7,0.2
		c-0.3,0.2-0.5,0.4-0.6,0.8c0,0.1,0,0.1,0,0.2c0,0.5,0.3,0.8,0.8,1c0.6,0.2,1.4,0.4,2.2,0.6c0.9,0.3,1.4,0.7,1.7,1.2
		c0.2,0.3,0.2,0.7,0.2,1.1c0,0.3,0,0.5-0.1,0.8l-0.1,0.3c-0.5,1.7-1.5,2.6-3.1,2.6c-0.2,0-0.4,0-0.7-0.1C71.9,35,71,33.8,71,31.7
		c0-0.1,0-0.3,0-0.4h1c0,0.2,0,0.3,0,0.5c0,1.6,0.6,2.5,1.8,2.7c0.2,0,0.3,0,0.5,0c1.1,0,1.9-0.6,2.3-1.9c0-0.1,0.1-0.3,0.1-0.4
		c0-0.2,0.1-0.4,0.1-0.6c0-0.3,0-0.5-0.1-0.7c-0.2-0.4-0.4-0.6-0.8-0.8c-0.4-0.2-1-0.4-2-0.6c-0.9-0.2-1.5-0.5-1.8-0.9
		c-0.2-0.3-0.3-0.6-0.3-1c0-0.1,0-0.2,0-0.3c0.1-0.5,0.4-1,0.9-1.3c0.4-0.3,0.8-0.4,1.3-0.4c0.1,0,0.3,0,0.5,0l0.1,0
		c1.2,0.2,1.9,0.9,2,2.1H75.5z"/>
	<path class="st0" d="M81.3,25.9h1.5v0.9h-1.5v8.3h-0.9v-8.3H79v-0.9h1.5v-2.1h0.9V25.9z"/>
	<path class="st0" d="M86.4,22.3c0.1,0.2,0.2,0.3,0.2,0.6c0,0.2-0.1,0.4-0.2,0.5c-0.1,0.2-0.3,0.2-0.6,0.2s-0.4-0.1-0.6-0.2
		c-0.2-0.2-0.2-0.3-0.2-0.5c0-0.2,0.1-0.4,0.2-0.6c0.2-0.2,0.3-0.2,0.6-0.2S86.3,22.2,86.4,22.3z M86.3,35.1h-0.9V26h0.9V35.1z"/>
	<path class="st0" d="M90.3,35.1h-0.9V26h0.9v0.8c0.5-0.6,1.3-0.9,2.5-0.9h0c1.9,0,2.9,1.4,2.9,4.1c0,0.1,0,0.3,0,0.4v4.8h-0.9v-4.6
		c0-0.2,0-0.3,0-0.4c0-2.1-0.6-3.2-1.9-3.4h-0.1c-1.4,0-2.2,0.7-2.4,2.2V35.1z"/>
	<path class="st0" d="M104.2,35.1h-3c-2.2,0-3.3-1.1-3.4-3.2v-0.2c0-2.1,1-3.1,3-3.1c1.1,0,1.9,0.3,2.4,0.9l0-0.6
		c-0.2-1.5-1-2.3-2.4-2.3c-0.4,0-0.8,0.1-1.1,0.3L99,26.3c0.5-0.4,1.1-0.6,1.9-0.6c1.9,0,3,1,3.3,2.9V35.1z M98.7,31.8
		c0.1,1.6,0.9,2.3,2.4,2.3h2.2v-2.6c-0.2-1.5-1.1-2.2-2.4-2.2c-1.4,0-2.2,0.8-2.2,2.2C98.7,31.6,98.7,31.7,98.7,31.8z"/>
	<path class="st0" d="M107.8,35.1h-0.9V23h0.9V35.1z"/>
	<path class="st0" d="M110.7,34.9c-0.1,0-0.3-0.1-0.4-0.2c-0.2-0.2-0.3-0.5-0.3-0.8c0-0.3,0.1-0.5,0.3-0.7c0.2-0.2,0.5-0.3,0.7-0.3
		c0.3,0,0.5,0.1,0.8,0.3c0.2,0.2,0.3,0.5,0.3,0.7c0,0.3-0.1,0.6-0.3,1c-0.2,0.4-0.6,0.9-1.3,1.5l0,0l-0.5-0.6v0
		C110.3,35.5,110.5,35.2,110.7,34.9z"/>
	<path class="st0" d="M120.4,25.9h0.9c0.7-0.2,1.4-0.3,1.9-0.3c2.2,0,3.4,1.4,3.6,4.2c0,0.3,0,0.6,0,0.9c0,3-1,4.4-3.1,4.4
		c-1.1,0-1.9-0.3-2.4-0.9V38h-0.9V25.9z M123.4,26.5c-0.6,0-1.3,0.1-2.1,0.4v5.2c0.3,1.5,1.1,2.2,2.4,2.2h0.1c1.5,0,2.2-1.3,2.2-3.8
		c0-0.2,0-0.4,0-0.6C126,27.6,125.1,26.5,123.4,26.5z"/>
	<path class="st0" d="M132.1,25.6c2.2,0,3.3,1.6,3.5,4.8c-0.1,3.3-1.3,4.9-3.5,4.9c-2.3,0-3.5-1.6-3.5-4.9
		C128.8,27.2,129.9,25.6,132.1,25.6z M134.7,30.4c-0.1-2.6-1-3.8-2.6-3.8c-1.6,0-2.5,1.3-2.6,3.8c0.1,2.7,0.9,4,2.6,4
		C133.8,34.4,134.7,33.1,134.7,30.4z"/>
	<path class="st0" d="M138.4,35.1h-0.9V26h0.9v0.4c0.2-0.2,0.5-0.4,1-0.5c0.2,0,0.3-0.1,0.5-0.1c0.3,0,0.7,0.1,1.2,0.2l-0.4,0.7
		c-0.3-0.1-0.5-0.1-0.7-0.1c-0.3,0-0.5,0.1-0.8,0.2c-0.4,0.2-0.6,0.6-0.8,1.4V35.1z"/>
	<path class="st0" d="M149.8,29.3c0,0.4,0,0.7,0,1.1c0,2.7,0.8,4.1,2.4,4.1c0.1,0,0.1,0,0.2,0c1.7-0.2,2.6-1.3,2.7-3.3h0.7
		c-0.2,2.7-1.5,4.1-3.9,4.1c-1.7-0.1-2.6-1.1-3-3c-0.1-0.8-0.2-1.5-0.2-2.1c0-0.9,0.1-1.7,0.4-2.2c0.6-1.4,1.7-2.2,3.1-2.2
		c0.1,0,0.2,0,0.4,0c1.6,0.1,2.5,1.3,2.7,3.6H149.8z M152.5,26.6c-0.1,0-0.1,0-0.2,0c-0.1,0-0.2,0-0.3,0c-1,0-1.7,0.7-2.2,2h4.7
		C154.3,27.3,153.7,26.7,152.5,26.6z"/>
	<path class="st0" d="M159.2,35.1h-0.9V23h0.9V35.1z"/>
	<path class="st0" d="M163,35.1h-0.9V23h0.9V35.1z"/>
	<path class="st0" d="M168.6,25.6c2.2,0,3.3,1.6,3.5,4.8c-0.1,3.3-1.3,4.9-3.5,4.9c-2.3,0-3.5-1.6-3.5-4.9
		C165.3,27.2,166.5,25.6,168.6,25.6z M171.2,30.4c-0.1-2.6-1-3.8-2.6-3.8s-2.5,1.3-2.6,3.8c0.1,2.7,0.9,4,2.6,4
		C170.3,34.4,171.2,33.1,171.2,30.4z"/>
	<path class="st0" d="M174.1,34.9c-0.1,0-0.3-0.1-0.4-0.2c-0.2-0.2-0.3-0.5-0.3-0.8c0-0.3,0.1-0.5,0.3-0.7s0.5-0.3,0.7-0.3
		c0.3,0,0.5,0.1,0.8,0.3c0.2,0.2,0.3,0.5,0.3,0.7c0,0.3-0.1,0.6-0.3,1c-0.2,0.4-0.6,0.9-1.3,1.5l0,0l-0.5-0.6v0
		C173.7,35.5,173.9,35.2,174.1,34.9z"/>
	<path class="st0" d="M185.1,35.1h-0.9V23h0.9V35.1z"/>
	<path class="st0" d="M190.7,25.6c2.2,0,3.3,1.6,3.5,4.8c-0.1,3.3-1.3,4.9-3.5,4.9c-2.3,0-3.5-1.6-3.5-4.9
		C187.4,27.2,188.5,25.6,190.7,25.6z M193.3,30.4c-0.1-2.6-1-3.8-2.6-3.8s-2.5,1.3-2.6,3.8c0.1,2.7,0.9,4,2.6,4
		C192.4,34.4,193.3,33.1,193.3,30.4z"/>
	<path class="st0" d="M200.3,27.7c-0.2-0.7-0.6-1.1-1.4-1.2l-0.1,0c-0.1,0-0.2,0-0.2,0c-0.2,0-0.5,0.1-0.7,0.2
		c-0.3,0.2-0.5,0.4-0.6,0.8c0,0.1,0,0.1,0,0.2c0,0.5,0.3,0.8,0.8,1c0.6,0.2,1.4,0.4,2.2,0.6c0.9,0.3,1.4,0.7,1.7,1.2
		c0.2,0.3,0.2,0.7,0.2,1.1c0,0.3,0,0.5-0.1,0.8l-0.1,0.3c-0.5,1.7-1.5,2.6-3.1,2.6c-0.2,0-0.4,0-0.7-0.1c-1.7-0.3-2.6-1.5-2.6-3.5
		c0-0.1,0-0.3,0-0.4h1c0,0.2,0,0.3,0,0.5c0,1.6,0.6,2.5,1.8,2.7c0.2,0,0.3,0,0.5,0c1.1,0,1.9-0.6,2.3-1.9c0-0.1,0.1-0.3,0.1-0.4
		c0-0.2,0.1-0.4,0.1-0.6c0-0.3,0-0.5-0.1-0.7c-0.2-0.4-0.4-0.6-0.8-0.8c-0.4-0.2-1-0.4-2-0.6c-0.9-0.2-1.5-0.5-1.8-0.9
		c-0.2-0.3-0.3-0.6-0.3-1c0-0.1,0-0.2,0-0.3c0.1-0.5,0.4-1,0.9-1.3c0.4-0.3,0.8-0.4,1.3-0.4c0.1,0,0.3,0,0.5,0l0.1,0
		c1.2,0.2,1.9,0.9,2,2.1H200.3z"/>
	<g>
		<path class="st0" d="M214,25.2c-0.6,0-1.3,0.1-2,0.3h-1.3v12.7h1.8v-3.1c0.4,0.2,1,0.3,1.9,0.3c2.3,0,3.5-1.6,3.5-4.8
			c0-0.3,0-0.6,0-0.9C217.8,26.7,216.4,25.2,214,25.2z M214.5,33.8h-0.1c-1.1,0-1.7-0.6-1.9-1.7v-4.8c0.6-0.2,1.1-0.3,1.6-0.3
			c1.3,0,2,0.9,2.1,2.8v0.6C216.3,33.8,215,33.8,214.5,33.8z"/>
		<path class="st0" d="M222.2,25.5c-0.3,0-0.6,0.2-0.9,0.3v-0.3h-1.8v9.8h1.8l0-7.1c0.2-0.8,0.4-1,0.6-1.1c0.2-0.1,0.3-0.1,0.5-0.1
			c0.1,0,0.3,0,0.8,0.1l0.2,0.1l0.8-1.5l-0.3-0.1C223.3,25.5,222.8,25.5,222.2,25.5z"/>
		<path class="st0" d="M228.4,25.2c-2.4,0-3.7,1.7-3.9,5.1c0.1,3.5,1.4,5.2,3.9,5.2c2.5,0,3.8-1.8,3.9-5.3
			C232.1,26.9,230.8,25.2,228.4,25.2z M228.4,33.8c-1.4,0-2-1.1-2.1-3.4c0.1-2.2,0.8-3.3,2.1-3.3c1.3,0,2,1.1,2.1,3.3
			C230.5,32.7,229.8,33.8,228.4,33.8z"/>
		<path class="st0" d="M237.6,25.5c-0.8,0-1.5,0.2-1.9,0.5v-3.3h-1.8v12.7h4.5c0.1,0,0.1,0,0.2,0c1.6,0,2.4-1.4,2.5-4.3
			c0-0.3,0-0.6,0-0.9C241.2,27.1,240,25.5,237.6,25.5z M237.6,27.1h0.1c0.4,0,1.7,0,1.7,3.3V31c0,1.7-0.5,2.6-1.3,2.6h-2.5l0-4.8
			C235.9,27.7,236.6,27.1,237.6,27.1z"/>
		<path class="st0" d="M243.9,22.1c-0.2,0.2-0.4,0.5-0.4,0.8c0,0.3,0.1,0.6,0.4,0.8c0.2,0.2,0.5,0.3,0.9,0.3c0.4,0,0.6-0.1,0.9-0.4
			c0.2-0.2,0.3-0.5,0.3-0.8c0-0.3-0.1-0.6-0.3-0.8C245.2,21.7,244.3,21.7,243.9,22.1z"/>
		<rect x="243.8" y="25.6" class="st0" width="1.8" height="9.8"/>
		<polygon class="st0" points="254.3,22.1 251.5,22.1 250.3,24.9 252,25 		"/>
		<path class="st0" d="M251.8,25.2c-2.4,0-3.7,1.7-3.9,5.1c0.1,3.5,1.4,5.2,3.9,5.2c2.5,0,3.8-1.8,3.9-5.3
			C255.5,26.9,254.2,25.2,251.8,25.2z M251.8,33.8c-1.4,0-2-1.1-2.1-3.4c0.1-2.2,0.8-3.3,2.1-3.3c1.3,0,2,1.1,2.1,3.3
			C253.8,32.7,253.1,33.8,251.8,33.8z"/>
		<polygon class="st0" points="259.5,23.5 257.6,23.5 257.6,25.5 256.2,25.5 256.2,27.3 257.6,27.3 257.6,35.4 259.5,35.4 
			259.5,27.3 260.9,27.3 260.9,25.5 259.5,25.5 		"/>
		<rect x="263" y="25.6" class="st0" width="1.8" height="9.8"/>
		<path class="st0" d="M263,22.1c-0.2,0.2-0.4,0.5-0.4,0.8c0,0.3,0.1,0.6,0.4,0.8c0.2,0.2,0.5,0.3,0.9,0.3c0.4,0,0.6-0.1,0.9-0.4
			c0.2-0.2,0.3-0.5,0.3-0.8c0-0.3-0.1-0.6-0.3-0.8C264.3,21.7,263.5,21.7,263,22.1z"/>
		<path class="st0" d="M273.4,30.9c0,1.8-0.7,2.8-2.1,3h-0.1c-1.1,0-1.8-0.6-2-1.8c-0.1-0.5-0.1-1-0.1-1.5c0-0.8,0.1-1.5,0.4-2.1
			c0.3-0.8,0.8-1.2,1.4-1.2c0.1,0,0.2,0,0.3,0c0.7,0,1.2,0.4,1.7,1.1l0.2,0.3l1.3-1.2l-0.1-0.2c-0.7-1.1-1.7-1.7-3-1.7h-0.2
			c-1.6,0-2.8,0.8-3.3,2.4c-0.3,0.8-0.5,1.7-0.5,2.7c0,0.7,0.1,1.5,0.3,2.2c0.4,1.8,1.6,2.7,3.5,2.7c0.1,0,0.2,0,0.3,0
			c2.6-0.1,3.9-1.7,4-4.6l0-0.3l-1.8,0L273.4,30.9z"/>
		<path class="st0" d="M280.2,25.2c-2.4,0-3.7,1.7-3.9,5.1c0.1,3.5,1.4,5.2,3.9,5.2c2.5,0,3.8-1.8,3.9-5.3
			C283.9,26.9,282.6,25.2,280.2,25.2z M280.2,33.8c-1.4,0-2-1.1-2.1-3.4c0.1-2.2,0.8-3.3,2.1-3.3c1.3,0,2,1.1,2.1,3.3
			C282.3,32.7,281.6,33.8,280.2,33.8z"/>
		<path class="st0" d="M290.4,28.7c-0.9-0.3-1.6-0.5-2.2-0.6c-0.4-0.1-0.5-0.3-0.5-0.5l0-0.1c0-0.2,0.1-0.4,0.3-0.5
			c0.2-0.1,0.3-0.1,0.4-0.1c0.1,0,0.1,0,0.1,0l0.1,0c0.5,0.1,0.9,0.4,1,1l0,0.2h1.6l0-0.3c-0.1-1.5-0.9-2.4-2.3-2.6l-0.1,0
			c-0.8-0.1-1.5,0-2.1,0.4c-0.6,0.4-0.9,0.9-1,1.6c0,0.1,0,0.2,0,0.3c0,0.5,0.1,0.9,0.4,1.3c0.3,0.4,1,0.8,2,1
			c0.9,0.2,1.5,0.4,1.9,0.6c0.3,0.1,0.5,0.3,0.6,0.6c0.1,0.1,0.1,0.3,0.1,0.5c0,0.1,0,0.3,0,0.5c0,0.1,0,0.2-0.1,0.3
			c-0.3,1-0.9,1.6-1.8,1.6c-0.1,0-0.3,0-0.4,0c-0.9-0.2-1.3-0.9-1.3-2.2c0-0.1,0-0.4,0-0.7l0-0.3h-1.9l0,0.2c0,0.3,0,0.5,0,0.6
			c0,2.2,1,3.5,2.9,3.9c0.3,0,0.5,0.1,0.7,0.1c1.8,0,2.9-1,3.5-2.9l0.1-0.4c0.1-0.3,0.1-0.6,0.1-0.9c0-0.5-0.1-0.9-0.3-1.3
			C291.9,29.5,291.3,29,290.4,28.7z"/>
		<path class="st0" d="M305.3,28.7c-0.9-0.3-1.6-0.5-2.2-0.6c-0.4-0.1-0.5-0.3-0.5-0.5l0-0.1c0-0.2,0.1-0.4,0.3-0.5
			c0.2-0.1,0.3-0.1,0.4-0.1c0.1,0,0.1,0,0.1,0l0.1,0c0.5,0.1,0.9,0.4,1,1l0,0.2h1.6l0-0.3c-0.1-1.5-0.9-2.4-2.3-2.6l-0.1,0
			c-0.8-0.1-1.5,0-2.1,0.4c-0.6,0.4-0.9,0.9-1,1.6c0,0.1,0,0.2,0,0.3c0,0.5,0.1,0.9,0.4,1.3c0.3,0.4,1,0.8,2,1
			c0.9,0.2,1.5,0.4,1.9,0.6c0.3,0.1,0.5,0.3,0.6,0.6c0.1,0.1,0.1,0.3,0.1,0.5c0,0.1,0,0.3,0,0.5c0,0.1,0,0.2-0.1,0.3
			c-0.3,1-0.9,1.6-1.8,1.6c-0.1,0-0.3,0-0.4,0c-0.9-0.2-1.3-0.9-1.3-2.2c0-0.1,0-0.4,0-0.7l0-0.3h-1.9l0,0.2c0,0.3,0,0.5,0,0.6
			c0,2.2,1,3.5,2.9,3.9c0.3,0,0.5,0.1,0.7,0.1c1.8,0,2.9-1,3.5-2.9l0.1-0.4c0.1-0.3,0.1-0.6,0.1-0.9c0-0.5-0.1-0.9-0.3-1.3
			C306.9,29.5,306.2,29,305.3,28.7z"/>
		<path class="st0" d="M312.5,25.2c-2.4,0-3.7,1.7-3.9,5.1c0.1,3.5,1.4,5.2,3.9,5.2c2.5,0,3.8-1.8,3.9-5.3
			C316.2,26.9,314.9,25.2,312.5,25.2z M312.5,33.8c-1.4,0-2-1.1-2.1-3.4c0.1-2.2,0.8-3.3,2.1-3.3c1.3,0,2,1.1,2.1,3.3
			C314.5,32.7,313.8,33.8,312.5,33.8z"/>
		<path class="st0" d="M321.5,25.5c-0.8,0-1.5,0.2-1.9,0.5v-0.4h-1.8v9.8h1.8l0-6.5c0.2-1.2,0.8-1.8,1.9-1.8l0.1,0
			c1,0.1,1.5,1,1.5,2.9c0,0.1,0,0.3,0,0.4v4.9h1.8v-5.1c0-0.1,0-0.3,0-0.4C324.8,26.9,323.7,25.5,321.5,25.5z"/>
		<rect x="333.9" y="25.6" class="st0" width="1.8" height="9.8"/>
		<path class="st0" d="M333.9,22.1c-0.2,0.2-0.4,0.5-0.4,0.8c0,0.3,0.1,0.6,0.4,0.8c0.2,0.2,0.5,0.3,0.9,0.3c0.4,0,0.6-0.1,0.9-0.4
			c0.2-0.2,0.3-0.5,0.3-0.8c0-0.3-0.1-0.6-0.3-0.8C335.2,21.7,334.4,21.7,333.9,22.1z"/>
		<path class="st0" d="M346.3,25.5c-0.9,0-1.7,0.3-2.2,0.8c-0.4-0.4-1-0.7-1.9-0.8c-0.9,0-1.5,0.2-1.9,0.5v-0.4h-1.8v9.8h1.8l0-6.5
			c0.2-1.1,0.7-1.7,1.6-1.7h0.1c0.9,0,1.3,0.5,1.3,1.4v6.8h1.8v-7.4c0.4-0.7,0.9-0.9,1.7-0.7c0.7,0.2,1.1,1.1,1.1,2.9
			c0,0.1,0,0.2,0,0.3v4.9h1.8l0-5.1c0-0.2,0-0.4,0-0.5C349.6,26.9,348.5,25.5,346.3,25.5z"/>
		<path class="st0" d="M355,25.2c-0.6,0-1.3,0.1-2,0.3h-1.3v12.7h1.8v-3.1c0.4,0.2,1,0.3,1.9,0.3c2.3,0,3.5-1.6,3.5-4.8
			c0-0.3,0-0.6,0-0.9C358.8,26.7,357.5,25.2,355,25.2z M355.6,33.8h-0.1c-1.1,0-1.7-0.6-1.9-1.7v-4.8c0.6-0.2,1.1-0.3,1.6-0.3
			c1.3,0,2,0.9,2.1,2.8v0.6C357.3,33.8,356,33.8,355.6,33.8z"/>
		<path class="st0" d="M364.1,25.2c-2.4,0-3.7,1.7-3.9,5.1c0.1,3.5,1.4,5.2,3.9,5.2c2.5,0,3.8-1.8,3.9-5.3
			C367.8,26.9,366.5,25.2,364.1,25.2z M364.1,33.8c-1.4,0-2-1.1-2.1-3.4c0.1-2.2,0.8-3.3,2.1-3.3c1.3,0,2,1.1,2.1,3.3
			C366.1,32.7,365.5,33.8,364.1,33.8z"/>
		<path class="st0" d="M372,25.5c-0.3,0-0.6,0.2-0.9,0.3v-0.3h-1.8v9.8h1.8l0-7.1c0.2-0.8,0.4-1,0.6-1.1c0.2-0.1,0.3-0.1,0.5-0.1
			c0.1,0,0.3,0,0.8,0.1l0.2,0.1l0.8-1.5l-0.3-0.1C373.2,25.5,372.6,25.5,372,25.5z"/>
		<polygon class="st0" points="377.6,23.5 375.8,23.5 375.8,25.5 374.3,25.5 374.3,27.3 375.8,27.3 375.8,35.4 377.6,35.4 
			377.6,27.3 379,27.3 379,25.5 377.6,25.5 		"/>
		<path class="st0" d="M383.5,25.4c-0.8,0-1.6,0.3-2.3,0.8l-0.3,0.2l1.4,1.1l0.2-0.1c0.3-0.2,0.6-0.3,1-0.3c0.9,0,1.5,0.5,1.7,1.4
			c-0.4-0.2-1-0.4-1.8-0.4c-2.2,0-3.4,1.2-3.4,3.5v0.2c0.1,2.4,1.3,3.6,3.8,3.6h3.4l0-6.8C386.9,26.5,385.6,25.4,383.5,25.4z
			 M385.4,31.5v2.1h-1.7c-1.2,0-1.8-0.6-1.9-1.9c0-0.1,0-0.2,0-0.2c0-1.1,0.5-1.6,1.7-1.7C384.6,29.8,385.2,30.3,385.4,31.5z"/>
		<path class="st0" d="M392.6,25.5c-0.8,0-1.5,0.2-1.9,0.5v-0.4h-1.8v9.8h1.8l0-6.5c0.2-1.2,0.8-1.8,1.9-1.8l0.1,0
			c1,0.1,1.5,1,1.5,2.9c0,0.1,0,0.3,0,0.4v4.9h1.8v-5.1c0-0.1,0-0.3,0-0.4C395.9,26.9,394.8,25.5,392.6,25.5z"/>
		<polygon class="st0" points="400.1,23.5 398.3,23.5 398.3,25.5 396.9,25.5 396.9,27.3 398.3,27.3 398.3,35.4 400.1,35.4 
			400.1,27.3 401.6,27.3 401.6,25.5 400.1,25.5 		"/>
		<path class="st0" d="M408.4,30.9c-0.1,1.8-0.9,2.8-2.3,2.9c0,0-0.1,0-0.1,0c-0.5,0-1.9,0-1.9-3.4c0-0.2,0-0.4,0-0.6h5.6l0-0.3
			c-0.3-2.6-1.3-4-3.1-4.1c-0.1,0-0.3,0-0.4,0c-1.6,0-2.7,0.8-3.4,2.4c-0.3,0.6-0.4,1.4-0.4,2.4c0,0.6,0.1,1.4,0.2,2.2
			c0.3,2.1,1.5,3.2,3.3,3.3h0h0c2.6,0,4-1.6,4.3-4.6l0-0.3h-1.7L408.4,30.9z M406.1,27.1h0.1c0.8,0,1.3,0.3,1.5,1h-3.3
			C404.7,27.4,405.3,27.1,406.1,27.1z"/>
		<path class="st0" d="M418.2,30.2c-0.3-0.7-1-1.1-1.9-1.4c-0.9-0.3-1.6-0.5-2.2-0.6c-0.4-0.1-0.5-0.3-0.5-0.5l0-0.1
			c0-0.2,0.1-0.4,0.3-0.5c0.2-0.1,0.3-0.1,0.4-0.1c0.1,0,0.1,0,0.1,0l0.1,0c0.5,0.1,0.9,0.4,1,1l0,0.2h1.6l0-0.3
			c-0.1-1.5-0.9-2.4-2.3-2.6l-0.1,0c-0.8-0.1-1.5,0-2.1,0.4c-0.6,0.4-0.9,0.9-1,1.6c0,0.1,0,0.2,0,0.3c0,0.5,0.1,0.9,0.4,1.3
			c0.3,0.4,1,0.8,2,1c0.9,0.2,1.5,0.4,1.9,0.6c0.3,0.1,0.5,0.3,0.6,0.6c0.1,0.1,0.1,0.3,0.1,0.5c0,0.1,0,0.3,0,0.5
			c0,0.1,0,0.2-0.1,0.3c-0.3,1-0.9,1.6-1.8,1.6c-0.1,0-0.3,0-0.4,0c-0.9-0.2-1.3-0.9-1.3-2.2c0-0.1,0-0.4,0-0.7l0-0.3h-1.9l0,0.2
			c0,0.3,0,0.5,0,0.6c0,2.2,1,3.5,2.9,3.9c0.3,0,0.5,0.1,0.7,0.1c1.8,0,2.9-1,3.5-2.9l0.1-0.4c0.1-0.3,0.1-0.6,0.1-0.9
			C418.5,30.9,418.4,30.5,418.2,30.2z"/>
		<path class="st0" d="M3.5,47.5c-0.8,0-1.6,0.3-2.3,0.8l-0.3,0.2l1.4,1.1l0.2-0.1c0.3-0.2,0.6-0.3,1-0.3c0.9,0,1.5,0.5,1.7,1.4
			c-0.4-0.2-1-0.4-1.8-0.4c-2.2,0-3.4,1.2-3.4,3.5v0.2c0.1,2.4,1.3,3.6,3.8,3.6h3.4l0-6.8C6.8,48.6,5.6,47.5,3.5,47.5z M5.3,53.6
			v2.1H3.7c-1.2,0-1.8-0.6-1.9-1.9c0-0.1,0-0.2,0-0.2c0-1.1,0.5-1.6,1.7-1.7C4.5,51.9,5.1,52.4,5.3,53.6z"/>
		<path class="st0" d="M14.2,54.1c-0.2,1.2-0.8,1.8-1.9,1.8h-0.1c-0.9,0-1.4-1.1-1.4-3.3v-4.9H9v5.1c0,3.2,1.1,4.8,3.3,4.8
			c0.9,0,1.5-0.2,1.9-0.5v0.4H16v-9.8h-1.8L14.2,54.1z"/>
		<polygon class="st0" points="23.7,47.6 21.4,51 19.2,47.6 17.2,47.6 20.4,52.5 17.2,57.5 19.2,57.5 21.4,54.1 23.6,57.5 
			25.7,57.5 22.5,52.5 25.7,47.6 		"/>
		<path class="st0" d="M27.6,44.2c-0.2,0.2-0.4,0.5-0.4,0.8c0,0.3,0.1,0.6,0.4,0.8c0.2,0.2,0.5,0.4,0.9,0.4c0.4,0,0.6-0.1,0.9-0.4
			c0.2-0.2,0.3-0.5,0.3-0.8c0-0.3-0.1-0.6-0.3-0.8C28.9,43.8,28.1,43.8,27.6,44.2z"/>
		<rect x="27.6" y="47.7" class="st0" width="1.8" height="9.8"/>
		<rect x="32.6" y="44.8" class="st0" width="1.8" height="12.7"/>
		<path class="st0" d="M37.6,44.2c-0.2,0.2-0.4,0.5-0.4,0.8c0,0.3,0.1,0.6,0.4,0.8c0.2,0.2,0.5,0.4,0.9,0.4c0.4,0,0.6-0.1,0.9-0.4
			c0.2-0.2,0.3-0.5,0.3-0.8c0-0.3-0.1-0.6-0.3-0.8C38.9,43.8,38.1,43.8,37.6,44.2z"/>
		<rect x="37.6" y="47.7" class="st0" width="1.8" height="9.8"/>
		<path class="st0" d="M45.3,47.5c-0.8,0-1.6,0.3-2.3,0.8l-0.3,0.2l1.4,1.1l0.2-0.1c0.3-0.2,0.6-0.3,1-0.3c0.9,0,1.5,0.5,1.7,1.4
			c-0.4-0.2-1-0.4-1.8-0.4c-2.2,0-3.4,1.2-3.4,3.5v0.2c0.1,2.4,1.3,3.6,3.8,3.6H49l0-6.8C48.7,48.6,47.4,47.5,45.3,47.5z M47.2,53.6
			v2.1h-1.7c-1.2,0-1.8-0.6-1.9-1.9c0-0.1,0-0.2,0-0.2c0-1.1,0.5-1.6,1.7-1.7C46.4,51.9,47,52.4,47.2,53.6z"/>
		<path class="st0" d="M53.3,47.6c-0.3,0-0.6,0.2-0.9,0.3v-0.3h-1.8v9.8h1.8l0-7.1c0.2-0.8,0.4-1,0.6-1.1c0.2-0.1,0.3-0.1,0.5-0.1
			c0.1,0,0.3,0,0.8,0.1l0.2,0.1l0.8-1.5L55,47.8C54.4,47.6,53.9,47.6,53.3,47.6z"/>
		<path class="st0" d="M62,53c-0.1,1.8-0.9,2.8-2.3,2.9c0,0-0.1,0-0.1,0c-0.5,0-1.9,0-1.9-3.4c0-0.2,0-0.4,0-0.6h5.6l0-0.3
			c-0.3-2.6-1.3-4-3.1-4.1c-0.1,0-0.3,0-0.4,0c-1.6,0-2.7,0.8-3.4,2.4c-0.3,0.6-0.4,1.4-0.4,2.4c0,0.6,0.1,1.4,0.2,2.2
			c0.3,2.1,1.5,3.2,3.3,3.3h0h0c2.6,0,4-1.6,4.3-4.6l0-0.3H62L62,53z M59.7,49.2h0.1c0.8,0,1.3,0.3,1.5,1H58
			C58.4,49.5,59,49.2,59.7,49.2z"/>
		<path class="st0" d="M69.9,50.8c-0.9-0.3-1.6-0.5-2.2-0.6c-0.4-0.1-0.5-0.3-0.5-0.5l0-0.1c0-0.2,0.1-0.4,0.3-0.5
			C67.7,49,67.8,49,68,49c0.1,0,0.1,0,0.1,0l0.1,0c0.5,0.1,0.9,0.4,1,1l0,0.2h1.6l0-0.3c-0.1-1.5-0.9-2.4-2.3-2.6l-0.1,0
			c-0.8-0.1-1.5,0-2.1,0.4c-0.6,0.4-0.9,0.9-1,1.6c0,0.1,0,0.2,0,0.3c0,0.5,0.1,0.9,0.4,1.3c0.3,0.4,1,0.8,2,1
			c0.9,0.2,1.5,0.4,1.9,0.6c0.3,0.1,0.5,0.3,0.6,0.6c0.1,0.1,0.1,0.3,0.1,0.5c0,0.1,0,0.3,0,0.5c0,0.1,0,0.2-0.1,0.3
			c-0.3,1-0.9,1.6-1.8,1.6c-0.1,0-0.3,0-0.4,0c-0.9-0.2-1.3-0.9-1.3-2.2c0-0.1,0-0.4,0-0.7l0-0.3h-1.9l0,0.2c0,0.3,0,0.5,0,0.6
			c0,2.2,1,3.5,2.9,3.9c0.3,0,0.5,0.1,0.7,0.1c1.8,0,2.9-1,3.5-2.9l0.1-0.4c0.1-0.3,0.1-0.6,0.1-0.9c0-0.5-0.1-0.9-0.3-1.3
			C71.5,51.6,70.9,51.1,69.9,50.8z"/>
	</g>
	<path class="st0" d="M81,51.4c0,0.4,0,0.7,0,1.1c0,2.7,0.8,4.1,2.4,4.1c0.1,0,0.1,0,0.2,0c1.7-0.2,2.6-1.3,2.7-3.3h0.7
		c-0.2,2.7-1.5,4.1-3.9,4.1c-1.7-0.1-2.6-1.1-3-3c-0.1-0.8-0.2-1.5-0.2-2.1c0-0.9,0.1-1.7,0.4-2.2c0.6-1.4,1.7-2.2,3.1-2.2
		c0.1,0,0.2,0,0.4,0c1.6,0.1,2.5,1.3,2.7,3.6H81z M83.8,48.7c-0.1,0-0.1,0-0.2,0c-0.1,0-0.2,0-0.3,0c-1,0-1.7,0.7-2.2,2h4.7
		C85.6,49.4,84.9,48.8,83.8,48.7z"/>
	<path class="st0" d="M89.9,57.2H89v-9.2h0.9v0.8c0.5-0.6,1.3-0.9,2.5-0.9h0c1.9,0,2.9,1.4,2.9,4.1c0,0.1,0,0.3,0,0.4v4.8h-0.9v-4.6
		c0-0.2,0-0.3,0-0.4c0-2.1-0.6-3.2-1.9-3.4h-0.1c-1.4,0-2.2,0.7-2.4,2.2V57.2z"/>
	<path class="st0" d="M108.1,49.8c-0.2-0.7-0.6-1.1-1.4-1.2l-0.1,0c-0.1,0-0.2,0-0.2,0c-0.2,0-0.5,0.1-0.7,0.2
		c-0.3,0.2-0.5,0.4-0.6,0.8c0,0,0,0.1,0,0.1c0,0.5,0.3,0.8,0.8,1c0.6,0.2,1.4,0.4,2.2,0.6c0.9,0.3,1.4,0.7,1.7,1.2
		c0.2,0.3,0.2,0.7,0.2,1.1c0,0.3,0,0.5-0.1,0.8l-0.1,0.4c-0.5,1.7-1.5,2.6-3.1,2.6c-0.2,0-0.4,0-0.7-0.1c-1.7-0.3-2.6-1.5-2.6-3.5
		c0-0.1,0-0.3,0-0.4h1c0,0.2,0,0.3,0,0.5c0,1.6,0.6,2.5,1.8,2.7c0.2,0,0.3,0,0.5,0c1.1,0,1.9-0.6,2.3-1.9c0-0.1,0.1-0.3,0.1-0.4
		c0-0.2,0.1-0.4,0.1-0.6c0-0.3,0-0.5-0.1-0.7c-0.2-0.4-0.4-0.6-0.8-0.8c-0.4-0.2-1-0.4-2-0.6c-0.9-0.2-1.5-0.5-1.8-0.9
		c-0.2-0.3-0.3-0.6-0.3-1c0-0.1,0-0.2,0-0.3c0.1-0.5,0.4-1,0.9-1.3c0.4-0.3,0.8-0.4,1.3-0.4c0.1,0,0.3,0,0.5,0l0.1,0
		c1.2,0.2,1.9,0.9,2,2.1H108.1z"/>
	<path class="st0" d="M117.7,48.1h0.9v9.2h-0.9v-0.8c-0.5,0.6-1.3,0.9-2.4,0.9c-1.9,0-2.9-1.5-2.9-4.4v-4.8h0.9v4.6
		c0,2.6,0.6,3.8,1.9,3.8h0.1c1.4,0,2.2-0.7,2.5-2.2V48.1z"/>
	<path class="st0" d="M133.9,57.2h-4.2c0,0-0.1,0-0.1,0c-1.3,0-2-1.3-2.1-3.9c0-0.3,0-0.6,0-0.9c0-3,1-4.4,3.1-4.4
		c1.1,0,1.9,0.3,2.5,0.9v-3.8h0.9V57.2z M128.2,53.2c0,2.1,0.6,3.1,1.8,3.1h3.1l0-5.4c-0.3-1.5-1.1-2.2-2.4-2.2h-0.1
		c-1.5,0-2.2,1.3-2.2,3.8C128.2,52.8,128.2,53,128.2,53.2z"/>
	<path class="st0" d="M137.1,51.4c0,0.4,0,0.7,0,1.1c0,2.7,0.8,4.1,2.4,4.1c0.1,0,0.1,0,0.2,0c1.7-0.2,2.6-1.3,2.7-3.3h0.7
		c-0.2,2.7-1.5,4.1-3.9,4.1c-1.7-0.1-2.6-1.1-3-3c-0.1-0.8-0.2-1.5-0.2-2.1c0-0.9,0.1-1.7,0.4-2.2c0.6-1.4,1.7-2.2,3.1-2.2
		c0.1,0,0.2,0,0.4,0c1.6,0.1,2.5,1.3,2.7,3.6H137.1z M139.9,48.7c-0.1,0-0.1,0-0.2,0c-0.1,0-0.2,0-0.3,0c-1,0-1.7,0.7-2.2,2h4.7
		C141.7,49.4,141,48.8,139.9,48.7z"/>
	<path class="st0" d="M149.3,49.8c-0.2-0.7-0.6-1.1-1.4-1.2l-0.1,0c-0.1,0-0.2,0-0.2,0c-0.2,0-0.5,0.1-0.7,0.2
		c-0.3,0.2-0.5,0.4-0.6,0.8c0,0,0,0.1,0,0.1c0,0.5,0.3,0.8,0.8,1c0.6,0.2,1.4,0.4,2.2,0.6c0.9,0.3,1.4,0.7,1.7,1.2
		c0.2,0.3,0.2,0.7,0.2,1.1c0,0.3,0,0.5-0.1,0.8l-0.1,0.4c-0.5,1.7-1.5,2.6-3.1,2.6c-0.2,0-0.4,0-0.7-0.1c-1.7-0.3-2.6-1.5-2.6-3.5
		c0-0.1,0-0.3,0-0.4h1c0,0.2,0,0.3,0,0.5c0,1.6,0.6,2.5,1.8,2.7c0.2,0,0.3,0,0.5,0c1.1,0,1.9-0.6,2.3-1.9c0-0.1,0.1-0.3,0.1-0.4
		c0-0.2,0.1-0.4,0.1-0.6c0-0.3,0-0.5-0.1-0.7c-0.2-0.4-0.4-0.6-0.8-0.8c-0.4-0.2-1-0.4-2-0.6c-0.9-0.2-1.5-0.5-1.8-0.9
		c-0.2-0.3-0.3-0.6-0.3-1c0-0.1,0-0.2,0-0.3c0.1-0.5,0.4-1,0.9-1.3c0.4-0.3,0.8-0.4,1.3-0.4c0.1,0,0.3,0,0.5,0l0.1,0
		c1.2,0.2,1.9,0.9,2,2.1H149.3z"/>
	<path class="st0" d="M159.5,57.2h-3c-2.2,0-3.3-1.1-3.4-3.2v-0.2c0-2.1,1-3.1,3-3.1c1.1,0,1.9,0.3,2.4,0.9l0-0.6
		c-0.2-1.5-1-2.3-2.4-2.3c-0.4,0-0.8,0.1-1.1,0.3l-0.7-0.6c0.5-0.4,1.1-0.6,1.9-0.6c1.9,0,3,1,3.3,2.9V57.2z M154,53.9
		c0.1,1.6,0.9,2.3,2.4,2.3h2.2v-2.6c-0.2-1.5-1.1-2.2-2.4-2.2c-1.4,0-2.2,0.8-2.2,2.2C154,53.7,154,53.8,154,53.9z"/>
	<path class="st0" d="M162.5,57.2h-0.9v-9.2h0.9v0.4c0.2-0.2,0.5-0.4,1-0.5c0.2,0,0.3-0.1,0.5-0.1c0.3,0,0.7,0.1,1.2,0.2l-0.4,0.7
		c-0.3-0.1-0.5-0.1-0.7-0.1c-0.3,0-0.5,0.1-0.8,0.2c-0.4,0.2-0.6,0.6-0.8,1.4V57.2z"/>
	<path class="st0" d="M167.6,57.2h-0.9v-9.2h0.9v0.4c0.2-0.2,0.5-0.4,1-0.5c0.2,0,0.3-0.1,0.5-0.1c0.3,0,0.7,0.1,1.2,0.2l-0.4,0.7
		c-0.3-0.1-0.5-0.1-0.7-0.1c-0.3,0-0.5,0.1-0.8,0.2c-0.4,0.2-0.6,0.6-0.8,1.4V57.2z"/>
	<path class="st0" d="M174.8,47.7c2.2,0,3.3,1.6,3.5,4.8c-0.1,3.3-1.3,4.9-3.5,4.9c-2.3,0-3.5-1.6-3.5-4.9
		C171.5,49.3,172.7,47.7,174.8,47.7z M177.4,52.5c-0.1-2.6-1-3.8-2.6-3.8c-1.6,0-2.5,1.3-2.6,3.8c0.1,2.7,0.9,4,2.6,4
		C176.5,56.5,177.4,55.2,177.4,52.5z"/>
	<path class="st0" d="M181.7,57.2h-0.9V45.1h0.9V57.2z"/>
	<path class="st0" d="M185.5,57.2h-0.9V45.1h0.9V57.2z"/>
	<path class="st0" d="M191.1,47.7c2.2,0,3.3,1.6,3.5,4.8c-0.1,3.3-1.3,4.9-3.5,4.9c-2.3,0-3.5-1.6-3.5-4.9
		C187.8,49.3,189,47.7,191.1,47.7z M193.7,52.5c-0.1-2.6-1-3.8-2.6-3.8c-1.6,0-2.5,1.3-2.6,3.8c0.1,2.7,0.9,4,2.6,4
		C192.8,56.5,193.7,55.2,193.7,52.5z"/>
	<path class="st0" d="M197.7,55.4c0.2,0.2,0.3,0.5,0.3,0.7c0,0.3-0.1,0.5-0.3,0.7c-0.2,0.2-0.5,0.3-0.8,0.3c-0.3,0-0.5-0.1-0.7-0.3
		c-0.2-0.2-0.3-0.5-0.3-0.7c0-0.3,0.1-0.5,0.3-0.7c0.2-0.2,0.5-0.3,0.7-0.3C197.3,55.1,197.5,55.2,197.7,55.4z"/>
	<path class="st0" d="M201.5,46.6l-0.7,0l1.2-1.6v7.1h-0.5V46.6z"/>
	<path class="st0" d="M205,52c-0.1,0-0.2-0.1-0.2-0.1c-0.1-0.1-0.2-0.3-0.2-0.4c0-0.2,0.1-0.3,0.2-0.4c0.1-0.1,0.3-0.2,0.4-0.2
		c0.2,0,0.3,0.1,0.4,0.2c0.1,0.1,0.2,0.3,0.2,0.4c0,0.2-0.1,0.4-0.2,0.6c-0.1,0.2-0.4,0.5-0.7,0.9l0,0l-0.3-0.3v0
		C204.7,52.3,204.9,52.2,205,52z"/>
	<path class="st0" d="M210.8,51.6v0.5h-3.7c0-1.5,0.5-2.5,1.5-3.3c0.9-0.7,1.3-1.4,1.3-2.1c-0.1-0.8-0.5-1.3-1.1-1.3
		c-0.7,0-1.1,0.6-1.2,1.8h-0.5c0-0.1,0-0.1,0-0.2c0-1.3,0.6-2,1.7-2.1c1,0,1.5,0.6,1.6,1.8c0,0.8-0.5,1.6-1.4,2.3
		c-0.9,0.7-1.4,1.6-1.4,2.5H210.8z"/>
</g>
</svg>
