<!-- Generator: Adobe Illustrator 20.1.0, SVG Export Plug-In  -->
<svg version="1.1"
	 xmlns="http://www.w3.org/2000/svg" xmlns:xlink="http://www.w3.org/1999/xlink" xmlns:a="http://ns.adobe.com/AdobeSVGViewerExtensions/3.0/"
	 x="0px" y="0px" width="519.8px" height="101.3px" viewBox="0 0 519.8 101.3"
	 style="overflow:scroll;enable-background:new 0 0 519.8 101.3;" xml:space="preserve">
<style type="text/css">
	.st0{opacity:0.36;fill:url(#SVGID_1_);}
	.st1{opacity:0.29;fill:url(#SVGID_2_);}
	.st2{opacity:0.29;fill:url(#SVGID_3_);}
	.st3{opacity:0.29;fill:url(#SVGID_4_);}
	.st4{opacity:0.29;fill:url(#SVGID_5_);}
	.st5{opacity:0.18;fill:url(#SVGID_6_);}
	.st6{opacity:0.16;fill:url(#SVGID_7_);}
	.st7{fill:#FFFFFF;}
	.st8{fill:#58595B;}
	.st9{fill:#1C3F94;}
	.st10{opacity:0.36;fill:url(#SVGID_8_);}
	.st11{opacity:0.29;fill:url(#SVGID_9_);}
	.st12{opacity:0.29;fill:url(#SVGID_10_);}
	.st13{opacity:0.29;fill:url(#SVGID_11_);}
	.st14{opacity:0.29;fill:url(#SVGID_12_);}
	.st15{opacity:0.18;fill:url(#SVGID_13_);}
	.st16{opacity:0.16;fill:url(#SVGID_14_);}
</style>
<defs>
</defs>
<g>
	
		<radialGradient id="SVGID_1_" cx="421.728" cy="2008.2826" r="22.2218" gradientTransform="matrix(4.9021 0.4577 0.2298 -0.4008 -2178.7866 689.8514)" gradientUnits="userSpaceOnUse">
		<stop  offset="0" style="stop-color:#7E797B"/>
		<stop  offset="0.1281" style="stop-color:#817C7E"/>
		<stop  offset="0.2341" style="stop-color:#888489"/>
		<stop  offset="0.264" style="stop-color:#8C888E"/>
		<stop  offset="0.6667" style="stop-color:#C8C9CA"/>
		<stop  offset="0.8976" style="stop-color:#D3D5D5"/>
		<stop  offset="0.9939" style="stop-color:#D9DDDC"/>
	</radialGradient>
	<path class="st0" d="M471.5,89.3c3.1-5.4-48.8-14.9-115.8-21.2c-67.1-6.3-124-6.9-127.1-1.5c-3.1,5.4,48.8,14.9,115.8,21.2
		C411.5,94,468.4,94.7,471.5,89.3z"/>
	
		<radialGradient id="SVGID_2_" cx="840.3798" cy="4447.7324" r="23.7591" gradientTransform="matrix(-4.9679 0.51 0.1899 0.4031 3471.334 -2138.8911)" gradientUnits="userSpaceOnUse">
		<stop  offset="0" style="stop-color:#A7A9AC"/>
		<stop  offset="0.1261" style="stop-color:#A9ABAD"/>
		<stop  offset="0.3218" style="stop-color:#B2B3B5"/>
		<stop  offset="0.5611" style="stop-color:#BEBFC0"/>
		<stop  offset="0.7697" style="stop-color:#C8C9CA"/>
		<stop  offset="0.8384" style="stop-color:#D0D0D1"/>
		<stop  offset="0.963" style="stop-color:#E7E7E7"/>
		<stop  offset="0.9939" style="stop-color:#F1F2F2"/>
	</radialGradient>
	<path class="st1" d="M0.1,93.5C2.6,99,94,97.8,162,90.8c68-7,121-17.1,118.4-22.5c-2.6-5.5-59.8-4.2-127.7,2.8
		C84.7,78-2.5,88.1,0.1,93.5z"/>
	
		<radialGradient id="SVGID_3_" cx="816.7827" cy="4626.3472" r="23.7894" gradientTransform="matrix(-5.0652 0.2186 8.130000e-02 0.411 3908.5715 -1997.1277)" gradientUnits="userSpaceOnUse">
		<stop  offset="0" style="stop-color:#A7A9AC"/>
		<stop  offset="0.1261" style="stop-color:#A9ABAD"/>
		<stop  offset="0.3218" style="stop-color:#B2B3B5"/>
		<stop  offset="0.5611" style="stop-color:#BEBFC0"/>
		<stop  offset="0.7697" style="stop-color:#C8C9CA"/>
		<stop  offset="0.8384" style="stop-color:#D0D0D1"/>
		<stop  offset="0.963" style="stop-color:#E7E7E7"/>
		<stop  offset="0.9939" style="stop-color:#F1F2F2"/>
	</radialGradient>
	<path class="st2" d="M4.8,87.5c1.1,5.6,92.4,7.6,161.7,4.7c69.3-3,124.6-9.9,123.5-15.5c-1.1-5.6-58.2-7.6-127.5-4.6
		C93.2,75,3.7,82,4.8,87.5z"/>
	
		<radialGradient id="SVGID_4_" cx="371.222" cy="2608.3494" r="22.225" gradientTransform="matrix(5.4104 0.3709 -4.780000e-02 -0.6679 -1497.9954 1686.9487)" gradientUnits="userSpaceOnUse">
		<stop  offset="0" style="stop-color:#A7A9AC"/>
		<stop  offset="0.1261" style="stop-color:#A9ABAD"/>
		<stop  offset="0.3218" style="stop-color:#B2B3B5"/>
		<stop  offset="0.5611" style="stop-color:#BEBFC0"/>
		<stop  offset="0.7697" style="stop-color:#C8C9CA"/>
		<stop  offset="0.8384" style="stop-color:#D0D0D1"/>
		<stop  offset="0.963" style="stop-color:#E7E7E7"/>
		<stop  offset="0.9939" style="stop-color:#F1F2F2"/>
	</radialGradient>
	<path class="st3" d="M519.8,91.7c-0.6-9-61.2-20.5-135.2-25.5c-74-5.1-133.5-1.9-132.9,7.2c0.7,9,61.2,20.5,135.2,25.5
		C461,104,520.5,100.7,519.8,91.7z"/>
	
		<radialGradient id="SVGID_5_" cx="781.1805" cy="3993.1028" r="23.8077" gradientTransform="matrix(-8.8548 -9.560000e-02 0.1623 0.5147 6532.0444 -1967.9275)" gradientUnits="userSpaceOnUse">
		<stop  offset="0" style="stop-color:#A7A9AC"/>
		<stop  offset="0.1261" style="stop-color:#A9ABAD"/>
		<stop  offset="0.3218" style="stop-color:#B2B3B5"/>
		<stop  offset="0.5611" style="stop-color:#BEBFC0"/>
		<stop  offset="0.7697" style="stop-color:#C8C9CA"/>
		<stop  offset="0.8384" style="stop-color:#D0D0D1"/>
		<stop  offset="0.963" style="stop-color:#E7E7E7"/>
		<stop  offset="0.9939" style="stop-color:#F1F2F2"/>
	</radialGradient>
	<path class="st4" d="M26.5,10.5c2.2,7,136.4,13.7,257.6,15c121.2,1.3,217.6-3.3,215.4-10.2c-2.2-7-102.2-13.7-223.4-15
		C155-1.1,24.3,3.5,26.5,10.5z"/>
	
		<radialGradient id="SVGID_6_" cx="367.2392" cy="448.576" r="173.7758" gradientTransform="matrix(2.5646 0 0 0.4178 -685.6545 -140.0051)" gradientUnits="userSpaceOnUse">
		<stop  offset="0" style="stop-color:#010101"/>
		<stop  offset="7.111907e-02" style="stop-color:#0A0B0B"/>
		<stop  offset="0.1816" style="stop-color:#1E1E1E"/>
		<stop  offset="0.3175" style="stop-color:#383737"/>
		<stop  offset="0.4736" style="stop-color:#5B5A5A"/>
		<stop  offset="0.6445" style="stop-color:#929191"/>
		<stop  offset="0.7697" style="stop-color:#C8C9CA"/>
		<stop  offset="0.9279" style="stop-color:#D3D5D5"/>
		<stop  offset="0.9939" style="stop-color:#D9DDDC"/>
	</radialGradient>
	<path class="st5" d="M485.2,86.4c0,1.9-9.5,3.5-21.2,3.5H48.4c-11.7,0-21.2-1.5-21.2-3.5v-78c0-1.9,9.5-3.5,21.2-3.5H464
		c11.7,0,21.2,1.5,21.2,3.5V86.4z"/>
	
		<radialGradient id="SVGID_7_" cx="433.9958" cy="69.4769" r="96.453" gradientTransform="matrix(5.193 0 0 0.845 -1997.2445 -11.0656)" gradientUnits="userSpaceOnUse">
		<stop  offset="0" style="stop-color:#010101"/>
		<stop  offset="7.111907e-02" style="stop-color:#0A0B0B"/>
		<stop  offset="0.1816" style="stop-color:#1E1E1E"/>
		<stop  offset="0.3175" style="stop-color:#383737"/>
		<stop  offset="0.4736" style="stop-color:#5B5A5A"/>
		<stop  offset="0.6445" style="stop-color:#929191"/>
		<stop  offset="0.7697" style="stop-color:#C8C9CA"/>
		<stop  offset="0.9279" style="stop-color:#D3D5D5"/>
		<stop  offset="0.9939" style="stop-color:#D9DDDC"/>
	</radialGradient>
	<rect x="29.1" y="5.5" class="st6" width="454.7" height="84.3"/>
	<rect x="27.3" y="4.1" class="st7" width="454.1" height="84"/>
</g>
<g>
	<path class="st8" d="M46.4,32.2L46.4,32.2l-0.9,0V20.1h0.9v11.3h4.9v0.9H46.4z"/>
	<path class="st8" d="M55.9,22.7c2.2,0,3.3,1.6,3.5,4.8c-0.1,3.3-1.3,4.9-3.5,4.9c-2.3,0-3.5-1.6-3.5-4.9
		C52.6,24.3,53.7,22.7,55.9,22.7z M58.5,27.5c-0.1-2.6-1-3.8-2.6-3.8c-1.6,0-2.5,1.3-2.6,3.8c0.1,2.7,0.9,4,2.6,4
		C57.6,31.5,58.4,30.1,58.5,27.5z"/>
	<path class="st8" d="M65.5,24.8c-0.2-0.7-0.6-1.1-1.4-1.2l-0.1,0c-0.1,0-0.2,0-0.2,0c-0.2,0-0.5,0.1-0.7,0.2
		c-0.3,0.2-0.5,0.4-0.6,0.8c0,0.1,0,0.1,0,0.2c0,0.5,0.3,0.8,0.8,1c0.6,0.2,1.4,0.4,2.2,0.6c0.9,0.3,1.4,0.7,1.7,1.2
		c0.2,0.3,0.2,0.7,0.2,1.1c0,0.3,0,0.5-0.1,0.8l-0.1,0.3c-0.5,1.7-1.5,2.6-3.1,2.6c-0.2,0-0.4,0-0.7-0.1C61.9,32,61,30.9,61,28.8
		c0-0.1,0-0.3,0-0.4h1c0,0.2,0,0.3,0,0.5c0,1.6,0.6,2.5,1.8,2.7c0.2,0,0.3,0,0.5,0c1.1,0,1.9-0.6,2.3-1.9c0-0.1,0.1-0.3,0.1-0.4
		c0-0.2,0.1-0.4,0.1-0.6c0-0.3,0-0.5-0.1-0.7c-0.2-0.4-0.4-0.6-0.8-0.8c-0.4-0.2-1-0.4-2-0.6c-0.9-0.2-1.5-0.5-1.8-0.9
		c-0.2-0.3-0.3-0.6-0.3-1c0-0.1,0-0.2,0-0.3c0.1-0.5,0.4-1,0.9-1.3c0.4-0.3,0.8-0.4,1.3-0.4c0.1,0,0.3,0,0.5,0l0.1,0
		c1.2,0.2,1.9,0.9,2,2.1H65.5z"/>
	<path class="st8" d="M75.7,23h0.9c0.7-0.2,1.4-0.3,1.9-0.3c2.2,0,3.4,1.4,3.6,4.2c0,0.3,0,0.6,0,0.9c0,3-1,4.4-3.1,4.4
		c-1.1,0-1.9-0.3-2.4-0.9v3.8h-0.9V23z M78.7,23.6c-0.6,0-1.3,0.1-2.1,0.4v5.2c0.3,1.5,1.1,2.2,2.4,2.2h0.1c1.5,0,2.2-1.3,2.2-3.8
		c0-0.2,0-0.4,0-0.6C81.3,24.7,80.4,23.6,78.7,23.6z"/>
	<path class="st8" d="M85.1,32.2h-0.9V23h0.9v0.4c0.2-0.2,0.5-0.4,1-0.5c0.2,0,0.3-0.1,0.5-0.1c0.3,0,0.7,0.1,1.2,0.2l-0.4,0.7
		c-0.3-0.1-0.5-0.1-0.7-0.1c-0.3,0-0.5,0.1-0.8,0.2c-0.4,0.2-0.6,0.6-0.8,1.4V32.2z"/>
	<path class="st8" d="M92.3,22.7c2.2,0,3.3,1.6,3.5,4.8c-0.1,3.3-1.3,4.9-3.5,4.9c-2.3,0-3.5-1.6-3.5-4.9
		C89,24.3,90.2,22.7,92.3,22.7z M94.9,27.5c-0.1-2.6-1-3.8-2.6-3.8c-1.6,0-2.5,1.3-2.6,3.8c0.1,2.7,0.9,4,2.6,4
		C94,31.5,94.9,30.1,94.9,27.5z"/>
	<path class="st8" d="M97.9,20h0.9v3.8c0.5-0.6,1.3-0.9,2.4-0.9c2.1,0,3.1,1.5,3.1,4.4c0,0.3,0,0.6,0,0.9c-0.1,2.6-0.8,3.9-2.1,3.9
		c-0.1,0-0.1,0-0.1,0h-4.2V20z M103.6,28.2c0-0.2,0-0.4,0-0.6c0-2.6-0.7-3.8-2.2-3.8h-0.1c-1.4,0-2.2,0.7-2.4,2.2l0,5.4h3.1
		C103,31.3,103.6,30.3,103.6,28.2z"/>
	<path class="st8" d="M108.6,19.4c0.1,0.2,0.2,0.3,0.2,0.6c0,0.2-0.1,0.4-0.2,0.5c-0.1,0.2-0.3,0.2-0.6,0.2s-0.4-0.1-0.6-0.2
		c-0.2-0.2-0.2-0.3-0.2-0.5c0-0.2,0.1-0.4,0.2-0.6c0.2-0.2,0.3-0.2,0.6-0.2S108.4,19.2,108.6,19.4z M108.5,32.2h-0.9V23h0.9V32.2z"
		/>
	<path class="st8" d="M114.8,22.7c2.2,0,3.3,1.6,3.5,4.8c-0.1,3.3-1.3,4.9-3.5,4.9c-2.3,0-3.5-1.6-3.5-4.9
		C111.4,24.3,112.6,22.7,114.8,22.7z M117.4,27.5c-0.1-2.6-1-3.8-2.6-3.8c-1.6,0-2.5,1.3-2.6,3.8c0.1,2.7,0.9,4,2.6,4
		C116.4,31.5,117.3,30.1,117.4,27.5z M114,21.5l0.8-2h1.6l-1.7,2L114,21.5z"/>
	<path class="st8" d="M121.6,23h1.5v0.9h-1.5v8.3h-0.9v-8.3h-1.5V23h1.5v-2.1h0.9V23z"/>
	<path class="st8" d="M126.7,19.4c0.1,0.2,0.2,0.3,0.2,0.6c0,0.2-0.1,0.4-0.2,0.5c-0.1,0.2-0.3,0.2-0.6,0.2s-0.4-0.1-0.6-0.2
		c-0.2-0.2-0.2-0.3-0.2-0.5c0-0.2,0.1-0.4,0.2-0.6c0.2-0.2,0.3-0.2,0.6-0.2S126.6,19.2,126.7,19.4z M126.6,32.2h-0.9V23h0.9V32.2z"
		/>
	<path class="st8" d="M132.8,23.8c-0.8,0-1.4,0.5-1.8,1.5c-0.3,0.7-0.4,1.4-0.4,2.3c0,0.5,0,1,0.1,1.6c0.2,1.5,1.1,2.3,2.5,2.3h0.1
		c1.7-0.2,2.6-1.3,2.6-3.3l0.9,0c-0.1,2.6-1.3,4-3.7,4.1c-0.1,0-0.2,0-0.2,0c-1.7,0-2.7-0.8-3.1-2.4c-0.2-0.8-0.3-1.5-0.3-2.2
		c0-0.9,0.2-1.8,0.5-2.6c0.5-1.5,1.5-2.2,3-2.2h0.2c1.1,0,2,0.5,2.6,1.4l-0.6,0.6c-0.5-0.7-1.1-1.1-2-1.1
		C133.1,23.8,132.9,23.8,132.8,23.8z"/>
	<path class="st8" d="M141.9,22.7c2.2,0,3.3,1.6,3.5,4.8c-0.1,3.3-1.3,4.9-3.5,4.9c-2.3,0-3.5-1.6-3.5-4.9
		C138.6,24.3,139.8,22.7,141.9,22.7z M144.5,27.5c-0.1-2.6-1-3.8-2.6-3.8s-2.5,1.3-2.6,3.8c0.1,2.7,0.9,4,2.6,4
		C143.6,31.5,144.5,30.1,144.5,27.5z"/>
	<path class="st8" d="M151.5,24.8c-0.2-0.7-0.6-1.1-1.4-1.2l-0.1,0c-0.1,0-0.2,0-0.2,0c-0.2,0-0.5,0.1-0.7,0.2
		c-0.3,0.2-0.5,0.4-0.6,0.8c0,0.1,0,0.1,0,0.2c0,0.5,0.3,0.8,0.8,1c0.6,0.2,1.4,0.4,2.2,0.6c0.9,0.3,1.4,0.7,1.7,1.2
		c0.2,0.3,0.2,0.7,0.2,1.1c0,0.3,0,0.5-0.1,0.8l-0.1,0.3c-0.5,1.7-1.5,2.6-3.1,2.6c-0.2,0-0.4,0-0.7-0.1c-1.7-0.3-2.6-1.5-2.6-3.5
		c0-0.1,0-0.3,0-0.4h1c0,0.2,0,0.3,0,0.5c0,1.6,0.6,2.5,1.8,2.7c0.2,0,0.3,0,0.5,0c1.1,0,1.9-0.6,2.3-1.9c0-0.1,0.1-0.3,0.1-0.4
		c0-0.2,0.1-0.4,0.1-0.6c0-0.3,0-0.5-0.1-0.7c-0.2-0.4-0.4-0.6-0.8-0.8c-0.4-0.2-1-0.4-2-0.6c-0.9-0.2-1.5-0.5-1.8-0.9
		c-0.2-0.3-0.3-0.6-0.3-1c0-0.1,0-0.2,0-0.3c0.1-0.5,0.4-1,0.9-1.3c0.4-0.3,0.8-0.4,1.3-0.4c0.1,0,0.3,0,0.5,0l0.1,0
		c1.2,0.2,1.9,0.9,2,2.1H151.5z"/>
	<path class="st8" d="M168,32.2h-4.2c0,0-0.1,0-0.1,0c-1.3,0-2-1.3-2.1-3.9c0-0.3,0-0.6,0-0.9c0-3,1-4.4,3.1-4.4
		c1.1,0,1.9,0.3,2.5,0.9V20h0.9V32.2z M162.3,28.2c0,2.1,0.6,3.1,1.8,3.1h3.1l0-5.4c-0.3-1.5-1.1-2.2-2.4-2.2h-0.1
		c-1.5,0-2.2,1.3-2.2,3.8C162.3,27.8,162.3,28,162.3,28.2z"/>
	<path class="st8" d="M171.3,26.4c0,0.4,0,0.7,0,1.1c0,2.7,0.8,4.1,2.4,4.1c0.1,0,0.1,0,0.2,0c1.7-0.2,2.6-1.3,2.7-3.3h0.7
		c-0.2,2.7-1.5,4.1-3.9,4.1c-1.7-0.1-2.6-1.1-3-3c-0.1-0.8-0.2-1.5-0.2-2.1c0-0.9,0.1-1.7,0.4-2.2c0.6-1.4,1.7-2.2,3.1-2.2
		c0.1,0,0.2,0,0.4,0c1.6,0.1,2.5,1.3,2.7,3.6H171.3z M174,23.7c-0.1,0-0.1,0-0.2,0c-0.1,0-0.2,0-0.3,0c-1,0-1.7,0.7-2.2,2h4.7
		C175.8,24.4,175.2,23.8,174,23.7z"/>
	<path class="st9" d="M186.7,26.9v5.3h-1.3V20h2.4c2.8,0,4.3,1.2,4.3,3.5c0,2.3-1.4,3.5-4.3,3.5H186.7z M186.7,21.2v4.4h1
		c2,0,3-0.7,3-2.2c0-1.5-1-2.2-3-2.2H186.7z"/>
	<path class="st9" d="M195.2,26.6c0,0.2,0,0.5,0,0.8c0,2.4,0.7,3.6,2.2,3.6c0,0,0.1,0,0.2,0c1.5-0.1,2.4-1.1,2.5-3.1h1.2
		c-0.2,2.9-1.5,4.4-4,4.4c-1.7-0.1-2.8-1.1-3.1-3.1c-0.1-0.8-0.2-1.5-0.2-2.1c0-0.9,0.1-1.7,0.4-2.3c0.7-1.5,1.7-2.2,3.2-2.2
		c0.1,0,0.2,0,0.4,0c1.7,0.1,2.6,1.4,2.9,3.9H195.2z M197.6,23.9h-0.1c-1,0-1.7,0.5-2.1,1.5h4C199.2,24.5,198.6,24,197.6,23.9z"/>
	<path class="st9" d="M209.5,32.2h-3.1c-2.3,0-3.4-1.1-3.5-3.4v-0.2c0-2.1,1.1-3.2,3.2-3.2c1.2,0,1.9,0.3,2.2,0.9
		c-0.2-1.6-0.9-2.4-2.1-2.4c-0.4,0-0.7,0.1-1.1,0.4l-1-0.8c0.6-0.5,1.4-0.7,2.1-0.7c2,0,3.1,1.1,3.4,3V32.2z M204.2,28.7
		c0.1,1.4,0.8,2.1,2.1,2.1h1.9v-2.3c-0.2-1.3-0.9-2-2.1-2c-1.3,0-1.9,0.7-1.9,1.9C204.2,28.6,204.2,28.7,204.2,28.7z"/>
	<path class="st9" d="M213,32.2h-1.3v-9.3h1.3v0.8c0.2-0.5,0.6-0.7,1.1-0.8c0.2,0,0.4,0,0.5,0c0.4,0,0.7,0.1,1,0.2l-0.5,1.1
		c-0.4-0.1-0.6-0.2-0.8-0.2c-0.2,0-0.4,0.1-0.6,0.2c-0.3,0.1-0.5,0.6-0.7,1.2V32.2z"/>
	<path class="st9" d="M219,32.2h-1.3V20h1.3V32.2z"/>
	<path class="st9" d="M225.9,25c-0.2-0.7-0.6-1.1-1.2-1.2l-0.1,0c-0.1,0-0.1,0-0.2,0c-0.2,0-0.4,0-0.6,0.1c-0.2,0.1-0.4,0.4-0.4,0.7
		v0.1c0,0.4,0.2,0.6,0.7,0.8c0.6,0.2,1.3,0.4,2.2,0.6c0.9,0.3,1.4,0.7,1.8,1.3c0.2,0.3,0.3,0.7,0.3,1.2c0,0.3,0,0.5-0.1,0.8
		l-0.1,0.4c-0.5,1.8-1.6,2.7-3.2,2.7c-0.2,0-0.5,0-0.7-0.1c-1.8-0.3-2.7-1.5-2.7-3.6c0-0.1,0-0.4,0-0.6h1.4c0,0.3,0,0.5,0,0.7
		c0,1.4,0.5,2.2,1.5,2.4c0.1,0,0.3,0,0.4,0c1,0,1.7-0.6,2-1.7c0-0.1,0.1-0.2,0.1-0.4c0-0.2,0.1-0.4,0.1-0.5c0-0.2,0-0.5-0.1-0.6
		c-0.1-0.3-0.4-0.5-0.7-0.7c-0.3-0.1-1-0.3-1.9-0.6c-0.9-0.2-1.5-0.5-1.8-0.9c-0.2-0.3-0.4-0.7-0.4-1.1c0-0.1,0-0.2,0-0.3
		c0.1-0.6,0.4-1.1,0.9-1.4c0.4-0.3,0.9-0.4,1.4-0.4c0.2,0,0.3,0,0.5,0l0.1,0c1.3,0.2,2,1,2.1,2.4H225.9z"/>
	<path class="st9" d="M233.2,20.8h-0.9v4.4h-1v-4.4h-1.5v-0.9h4.3l1.7,2.4l1.5-2.1v-0.2h1.1v5.3h-1.1v-3.3l-1,1.5h-0.9l-1-1.5v3.3
		h-1V20.8z"/>
	<path class="st8" d="M250.1,24.8c-0.2-0.7-0.6-1.1-1.4-1.2l-0.1,0c-0.1,0-0.2,0-0.2,0c-0.2,0-0.5,0.1-0.7,0.2
		c-0.3,0.2-0.5,0.4-0.6,0.8c0,0.1,0,0.1,0,0.2c0,0.5,0.3,0.8,0.8,1c0.6,0.2,1.4,0.4,2.2,0.6c0.9,0.3,1.4,0.7,1.7,1.2
		c0.2,0.3,0.2,0.7,0.2,1.1c0,0.3,0,0.5-0.1,0.8l-0.1,0.3c-0.5,1.7-1.5,2.6-3.1,2.6c-0.2,0-0.4,0-0.7-0.1c-1.7-0.3-2.6-1.5-2.6-3.5
		c0-0.1,0-0.3,0-0.4h1c0,0.2,0,0.3,0,0.5c0,1.6,0.6,2.5,1.8,2.7c0.2,0,0.3,0,0.5,0c1.1,0,1.9-0.6,2.3-1.9c0-0.1,0.1-0.3,0.1-0.4
		c0-0.2,0.1-0.4,0.1-0.6c0-0.3,0-0.5-0.1-0.7c-0.2-0.4-0.4-0.6-0.8-0.8c-0.4-0.2-1-0.4-2-0.6c-0.9-0.2-1.5-0.5-1.8-0.9
		c-0.2-0.3-0.3-0.6-0.3-1c0-0.1,0-0.2,0-0.3c0.1-0.5,0.4-1,0.9-1.3c0.4-0.3,0.8-0.4,1.3-0.4c0.1,0,0.3,0,0.5,0l0.1,0
		c1.2,0.2,1.9,0.9,2,2.1H250.1z"/>
	<path class="st8" d="M257.3,22.7c2.2,0,3.3,1.6,3.5,4.8c-0.1,3.3-1.3,4.9-3.5,4.9c-2.3,0-3.5-1.6-3.5-4.9
		C254,24.3,255.2,22.7,257.3,22.7z M259.9,27.5c-0.1-2.6-1-3.8-2.6-3.8c-1.6,0-2.5,1.3-2.6,3.8c0.1,2.7,0.9,4,2.6,4
		C259,31.5,259.9,30.1,259.9,27.5z"/>
	<path class="st8" d="M263.6,32.2h-0.9V23h0.9v0.8c0.5-0.6,1.3-0.9,2.5-0.9h0c1.9,0,2.9,1.4,2.9,4.1c0,0.1,0,0.3,0,0.4v4.8h-0.9
		v-4.6c0-0.2,0-0.3,0-0.4c0-2.1-0.6-3.2-1.9-3.4h-0.1c-1.4,0-2.2,0.7-2.4,2.2V32.2z"/>
	<path class="st8" d="M278.7,32.2h-0.9V20.1h0.9V32.2z"/>
	<path class="st8" d="M283.4,19.4c0.1,0.2,0.2,0.3,0.2,0.6c0,0.2-0.1,0.4-0.2,0.5c-0.1,0.2-0.3,0.2-0.6,0.2c-0.2,0-0.4-0.1-0.6-0.2
		c-0.2-0.2-0.2-0.3-0.2-0.5c0-0.2,0.1-0.4,0.2-0.6c0.2-0.2,0.3-0.2,0.6-0.2C283.1,19.2,283.2,19.2,283.4,19.4z M283.3,32.2h-0.9V23
		h0.9V32.2z"/>
	<path class="st8" d="M286.6,20h0.9v3.8c0.5-0.6,1.3-0.9,2.4-0.9c2.1,0,3.1,1.5,3.1,4.4c0,0.3,0,0.6,0,0.9c-0.1,2.6-0.8,3.9-2.1,3.9
		c-0.1,0-0.1,0-0.1,0h-4.2V20z M292.3,28.2c0-0.2,0-0.4,0-0.6c0-2.6-0.7-3.8-2.2-3.8h-0.1c-1.4,0-2.2,0.7-2.4,2.2l0,5.4h3.1
		C291.7,31.3,292.3,30.3,292.3,28.2z"/>
	<path class="st8" d="M296.1,26.4c0,0.4,0,0.7,0,1.1c0,2.7,0.8,4.1,2.4,4.1c0.1,0,0.1,0,0.2,0c1.7-0.2,2.6-1.3,2.7-3.3h0.7
		c-0.2,2.7-1.5,4.1-3.9,4.1c-1.7-0.1-2.6-1.1-3-3c-0.1-0.8-0.2-1.5-0.2-2.1c0-0.9,0.1-1.7,0.4-2.2c0.6-1.4,1.7-2.2,3.1-2.2
		c0.1,0,0.2,0,0.4,0c1.6,0.1,2.5,1.3,2.7,3.6H296.1z M298.9,23.7c-0.1,0-0.1,0-0.2,0c-0.1,0-0.2,0-0.3,0c-1,0-1.7,0.7-2.2,2h4.7
		C300.7,24.4,300,23.8,298.9,23.7z"/>
	<path class="st8" d="M304.6,32.2h-0.9V23h0.9v0.4c0.2-0.2,0.5-0.4,1-0.5c0.2,0,0.3-0.1,0.5-0.1c0.3,0,0.7,0.1,1.2,0.2l-0.4,0.7
		c-0.3-0.1-0.5-0.1-0.7-0.1c-0.3,0-0.5,0.1-0.8,0.2c-0.4,0.2-0.6,0.6-0.8,1.4V32.2z"/>
	<path class="st8" d="M314.9,32.2h-3c-2.2,0-3.3-1.1-3.4-3.2v-0.2c0-2.1,1-3.1,3-3.1c1.1,0,1.9,0.3,2.4,0.9l0-0.6
		c-0.2-1.5-1-2.3-2.4-2.3c-0.4,0-0.8,0.1-1.1,0.3l-0.7-0.6c0.5-0.4,1.1-0.6,1.9-0.6c1.9,0,3,1,3.3,2.9V32.2z M309.5,28.9
		c0.1,1.6,0.9,2.3,2.4,2.3h2.2v-2.6c-0.2-1.5-1.1-2.2-2.4-2.2c-1.4,0-2.2,0.8-2.2,2.2C309.4,28.7,309.4,28.8,309.5,28.9z"/>
	<path class="st8" d="M323.6,32.2h-4.2c0,0-0.1,0-0.1,0c-1.3,0-2-1.3-2.1-3.9c0-0.3,0-0.6,0-0.9c0-3,1-4.4,3.1-4.4
		c1.1,0,1.9,0.3,2.5,0.9V20h0.9V32.2z M317.9,28.2c0,2.1,0.6,3.1,1.8,3.1h3.1l0-5.4c-0.3-1.5-1.1-2.2-2.4-2.2h-0.1
		c-1.5,0-2.2,1.3-2.2,3.8C317.9,27.8,317.9,28,317.9,28.2z"/>
	<path class="st8" d="M329.1,22.7c2.2,0,3.3,1.6,3.5,4.8c-0.1,3.3-1.3,4.9-3.5,4.9c-2.3,0-3.5-1.6-3.5-4.9
		C325.8,24.3,327,22.7,329.1,22.7z M331.7,27.5c-0.1-2.6-1-3.8-2.6-3.8c-1.6,0-2.5,1.3-2.6,3.8c0.1,2.7,0.9,4,2.6,4
		C330.8,31.5,331.7,30.1,331.7,27.5z"/>
	<path class="st8" d="M338.7,24.8c-0.2-0.7-0.6-1.1-1.4-1.2l-0.1,0c-0.1,0-0.2,0-0.2,0c-0.2,0-0.5,0.1-0.7,0.2
		c-0.3,0.2-0.5,0.4-0.6,0.8c0,0.1,0,0.1,0,0.2c0,0.5,0.3,0.8,0.8,1c0.6,0.2,1.4,0.4,2.2,0.6c0.9,0.3,1.4,0.7,1.7,1.2
		c0.2,0.3,0.2,0.7,0.2,1.1c0,0.3,0,0.5-0.1,0.8l-0.1,0.3c-0.5,1.7-1.5,2.6-3.1,2.6c-0.2,0-0.4,0-0.7-0.1c-1.7-0.3-2.6-1.5-2.6-3.5
		c0-0.1,0-0.3,0-0.4h1c0,0.2,0,0.3,0,0.5c0,1.6,0.6,2.5,1.8,2.7c0.2,0,0.3,0,0.5,0c1.1,0,1.9-0.6,2.3-1.9c0-0.1,0.1-0.3,0.1-0.4
		c0-0.2,0.1-0.4,0.1-0.6c0-0.3,0-0.5-0.1-0.7c-0.2-0.4-0.4-0.6-0.8-0.8c-0.4-0.2-1-0.4-2-0.6c-0.9-0.2-1.5-0.5-1.8-0.9
		c-0.2-0.3-0.3-0.6-0.3-1c0-0.1,0-0.2,0-0.3c0.1-0.5,0.4-1,0.9-1.3c0.4-0.3,0.8-0.4,1.3-0.4c0.1,0,0.3,0,0.5,0l0.1,0
		c1.2,0.2,1.9,0.9,2,2.1H338.7z"/>
	<path class="st8" d="M355.2,32.2H351c0,0-0.1,0-0.1,0c-1.3,0-2-1.3-2.1-3.9c0-0.3,0-0.6,0-0.9c0-3,1-4.4,3.1-4.4
		c1.1,0,1.9,0.3,2.5,0.9V20h0.9V32.2z M349.5,28.2c0,2.1,0.6,3.1,1.8,3.1h3.1l0-5.4c-0.3-1.5-1.1-2.2-2.4-2.2h-0.1
		c-1.5,0-2.2,1.3-2.2,3.8C349.5,27.8,349.5,28,349.5,28.2z"/>
	<path class="st8" d="M359.6,19.4c0.1,0.2,0.2,0.3,0.2,0.6c0,0.2-0.1,0.4-0.2,0.5c-0.1,0.2-0.3,0.2-0.6,0.2c-0.2,0-0.4-0.1-0.6-0.2
		c-0.2-0.2-0.2-0.3-0.2-0.5c0-0.2,0.1-0.4,0.2-0.6c0.2-0.2,0.3-0.2,0.6-0.2C359.3,19.2,359.4,19.2,359.6,19.4z M359.5,32.2h-0.9V23
		h0.9V32.2z"/>
	<path class="st8" d="M363.5,32.2h-0.9V23h0.9v0.4c0.2-0.2,0.5-0.4,1-0.5c0.2,0,0.3-0.1,0.5-0.1c0.3,0,0.7,0.1,1.2,0.2l-0.4,0.7
		c-0.3-0.1-0.5-0.1-0.7-0.1c-0.3,0-0.5,0.1-0.8,0.2c-0.4,0.2-0.6,0.6-0.8,1.4V32.2z"/>
	<path class="st8" d="M368.4,26.4c0,0.4,0,0.7,0,1.1c0,2.7,0.8,4.1,2.4,4.1c0.1,0,0.1,0,0.2,0c1.7-0.2,2.6-1.3,2.7-3.3h0.7
		c-0.2,2.7-1.5,4.1-3.9,4.1c-1.7-0.1-2.6-1.1-3-3c-0.1-0.8-0.2-1.5-0.2-2.1c0-0.9,0.1-1.7,0.4-2.2c0.6-1.4,1.7-2.2,3.1-2.2
		c0.1,0,0.2,0,0.4,0c1.6,0.1,2.5,1.3,2.7,3.6H368.4z M371.1,23.7c-0.1,0-0.1,0-0.2,0c-0.1,0-0.2,0-0.3,0c-1,0-1.7,0.7-2.2,2h4.7
		C372.9,24.4,372.3,23.8,371.1,23.7z"/>
	<path class="st8" d="M379.4,23.8c-0.8,0-1.4,0.5-1.8,1.5c-0.3,0.7-0.4,1.4-0.4,2.3c0,0.5,0,1,0.1,1.6c0.2,1.5,1.1,2.3,2.5,2.3h0.1
		c1.7-0.2,2.6-1.3,2.6-3.3l0.9,0c-0.1,2.6-1.3,4-3.7,4.1c-0.1,0-0.2,0-0.2,0c-1.7,0-2.7-0.8-3.1-2.4c-0.2-0.8-0.3-1.5-0.3-2.2
		c0-0.9,0.2-1.8,0.5-2.6c0.5-1.5,1.5-2.2,3-2.2h0.2c1.1,0,2,0.5,2.6,1.4l-0.6,0.6c-0.5-0.7-1.1-1.1-2-1.1
		C379.6,23.8,379.5,23.8,379.4,23.8z"/>
	<path class="st8" d="M386.8,23h1.5v0.9h-1.5v8.3h-0.9v-8.3h-1.5V23h1.5v-2.1h0.9V23z"/>
	<path class="st8" d="M396.2,32.2h-3c-2.2,0-3.3-1.1-3.4-3.2v-0.2c0-2.1,1-3.1,3-3.1c1.1,0,1.9,0.3,2.4,0.9l0-0.6
		c-0.2-1.5-1-2.3-2.4-2.3c-0.4,0-0.8,0.1-1.1,0.3l-0.7-0.6c0.5-0.4,1.1-0.6,1.9-0.6c1.9,0,3,1,3.3,2.9V32.2z M390.7,28.9
		c0.1,1.6,0.9,2.3,2.4,2.3h2.2v-2.6c-0.2-1.5-1.1-2.2-2.4-2.2c-1.4,0-2.2,0.8-2.2,2.2C390.7,28.7,390.7,28.8,390.7,28.9z"/>
	<path class="st8" d="M404.3,24.9v7.3h-0.9v-6.5c0-1.2-0.6-1.8-1.8-1.8h-0.1c-1.2,0-1.9,0.7-2.2,2.1v6.2h-0.9V23h0.9v0.8
		c0.5-0.6,1.3-0.9,2.5-0.9c0.9,0.1,1.6,0.5,1.9,1.1c0.6-0.8,1.4-1.1,2.4-1.1h0c2,0,2.9,1.3,2.9,3.9c0,0.2,0,0.4,0,0.5v4.8h-0.9v-4.6
		c0-0.1,0-0.2,0-0.3c0-2-0.5-3.2-1.5-3.4c-0.2,0-0.4-0.1-0.6-0.1C405.2,23.8,404.6,24.2,404.3,24.9z"/>
	<path class="st8" d="M412.2,26.4c0,0.4,0,0.7,0,1.1c0,2.7,0.8,4.1,2.4,4.1c0.1,0,0.1,0,0.2,0c1.7-0.2,2.6-1.3,2.7-3.3h0.7
		c-0.2,2.7-1.5,4.1-3.9,4.1c-1.7-0.1-2.6-1.1-3-3c-0.1-0.8-0.2-1.5-0.2-2.1c0-0.9,0.1-1.7,0.4-2.2c0.6-1.4,1.7-2.2,3.1-2.2
		c0.1,0,0.2,0,0.4,0c1.6,0.1,2.5,1.3,2.7,3.6H412.2z M414.9,23.7c-0.1,0-0.1,0-0.2,0c-0.1,0-0.2,0-0.3,0c-1,0-1.7,0.7-2.2,2h4.7
		C416.7,24.4,416.1,23.8,414.9,23.7z"/>
	<path class="st8" d="M421.1,32.2h-0.9V23h0.9v0.8c0.5-0.6,1.3-0.9,2.5-0.9h0c1.9,0,2.9,1.4,2.9,4.1c0,0.1,0,0.3,0,0.4v4.8h-0.9
		v-4.6c0-0.2,0-0.3,0-0.4c0-2.1-0.6-3.2-1.9-3.4h-0.1c-1.4,0-2.2,0.7-2.4,2.2V32.2z"/>
	<path class="st8" d="M430.3,23h1.5v0.9h-1.5v8.3h-0.9v-8.3H428V23h1.5v-2.1h0.9V23z"/>
	<path class="st8" d="M433.9,26.4c0,0.4,0,0.7,0,1.1c0,2.7,0.8,4.1,2.4,4.1c0.1,0,0.1,0,0.2,0c1.7-0.2,2.6-1.3,2.7-3.3h0.7
		c-0.2,2.7-1.5,4.1-3.9,4.1c-1.7-0.1-2.6-1.1-3-3c-0.1-0.8-0.2-1.5-0.2-2.1c0-0.9,0.1-1.7,0.4-2.2c0.6-1.4,1.7-2.2,3.1-2.2
		c0.1,0,0.2,0,0.4,0c1.6,0.1,2.5,1.3,2.7,3.6H433.9z M436.7,23.7c-0.1,0-0.1,0-0.2,0c-0.1,0-0.2,0-0.3,0c-1,0-1.7,0.7-2.2,2h4.7
		C438.5,24.4,437.8,23.8,436.7,23.7z"/>
	<path class="st8" d="M448.6,26.4c0,0.4,0,0.7,0,1.1c0,2.7,0.8,4.1,2.4,4.1c0.1,0,0.1,0,0.2,0c1.7-0.2,2.6-1.3,2.7-3.3h0.7
		c-0.2,2.7-1.5,4.1-3.9,4.1c-1.7-0.1-2.6-1.1-3-3c-0.1-0.8-0.2-1.5-0.2-2.1c0-0.9,0.1-1.7,0.4-2.2c0.6-1.4,1.7-2.2,3.1-2.2
		c0.1,0,0.2,0,0.4,0c1.6,0.1,2.5,1.3,2.7,3.6H448.6z M451.4,23.7c-0.1,0-0.1,0-0.2,0c-0.1,0-0.2,0-0.3,0c-1,0-1.7,0.7-2.2,2h4.7
		C453.2,24.4,452.5,23.8,451.4,23.7z"/>
	<path class="st8" d="M457.5,32.2h-0.9V23h0.9v0.8c0.5-0.6,1.3-0.9,2.5-0.9h0c1.9,0,2.9,1.4,2.9,4.1c0,0.1,0,0.3,0,0.4v4.8H462v-4.6
		c0-0.2,0-0.3,0-0.4c0-2.1-0.6-3.2-1.9-3.4h-0.1c-1.4,0-2.2,0.7-2.4,2.2V32.2z"/>
	<path class="st8" d="M46.2,46.8c0,0.4,0,0.7,0,1.1c0,2.7,0.8,4.1,2.4,4.1c0.1,0,0.1,0,0.2,0c1.7-0.2,2.6-1.3,2.7-3.3h0.7
		c-0.2,2.7-1.5,4.1-3.9,4.1c-1.7-0.1-2.6-1.1-3-3c-0.1-0.8-0.2-1.5-0.2-2.1c0-0.9,0.1-1.7,0.4-2.2c0.6-1.4,1.7-2.2,3.1-2.2
		c0.1,0,0.2,0,0.4,0c1.6,0.1,2.5,1.3,2.7,3.6H46.2z M48.9,44.1c-0.1,0-0.1,0-0.2,0c-0.1,0-0.2,0-0.3,0c-1,0-1.7,0.7-2.2,2h4.7
		C50.7,44.8,50.1,44.2,48.9,44.1z"/>
	<path class="st8" d="M55.6,52.6h-0.9V40.5h0.9V52.6z"/>
	<path class="st8" d="M67.2,39.8c0.1,0.2,0.2,0.3,0.2,0.6c0,0.2-0.1,0.4-0.2,0.5c-0.1,0.2-0.3,0.2-0.6,0.2s-0.4-0.1-0.6-0.2
		c-0.2-0.2-0.2-0.3-0.2-0.5c0-0.2,0.1-0.4,0.2-0.6c0.2-0.2,0.3-0.2,0.6-0.2S67.1,39.6,67.2,39.8z M67.1,52.6h-0.9v-9.2h0.9V52.6z"/>
	<path class="st8" d="M71.1,52.6h-0.9v-9.2h0.9v0.8c0.5-0.6,1.3-0.9,2.5-0.9h0c1.9,0,2.9,1.4,2.9,4.1c0,0.1,0,0.3,0,0.4v4.8h-0.9V48
		c0-0.2,0-0.3,0-0.4c0-2.1-0.6-3.2-1.9-3.4h-0.1c-1.4,0-2.2,0.7-2.4,2.2V52.6z"/>
	<path class="st8" d="M80.4,43.4h1.5v0.9h-1.5v8.3h-0.9v-8.3h-1.5v-0.9h1.5v-2.1h0.9V43.4z"/>
	<path class="st8" d="M84,46.8c0,0.4,0,0.7,0,1.1c0,2.7,0.8,4.1,2.4,4.1c0.1,0,0.1,0,0.2,0c1.7-0.2,2.6-1.3,2.7-3.3h0.7
		c-0.2,2.7-1.5,4.1-3.9,4.1c-1.7-0.1-2.6-1.1-3-3c-0.1-0.8-0.2-1.5-0.2-2.1c0-0.9,0.1-1.7,0.4-2.2c0.6-1.4,1.7-2.2,3.1-2.2
		c0.1,0,0.2,0,0.4,0c1.6,0.1,2.5,1.3,2.7,3.6H84z M86.7,44.1c-0.1,0-0.1,0-0.2,0c-0.1,0-0.2,0-0.3,0c-1,0-1.7,0.7-2.2,2h4.7
		C88.5,44.8,87.9,44.2,86.7,44.1z"/>
	<path class="st8" d="M96.1,45.2c-0.2-0.7-0.6-1.1-1.4-1.2l-0.1,0c-0.1,0-0.2,0-0.2,0c-0.2,0-0.5,0.1-0.7,0.2
		c-0.3,0.2-0.5,0.4-0.6,0.8c0,0.1,0,0.1,0,0.2c0,0.5,0.3,0.8,0.8,1c0.6,0.2,1.4,0.4,2.2,0.6c0.9,0.3,1.4,0.7,1.7,1.2
		c0.2,0.3,0.2,0.7,0.2,1.1c0,0.3,0,0.5-0.1,0.8l-0.1,0.3c-0.5,1.7-1.5,2.6-3.1,2.6c-0.2,0-0.4,0-0.7-0.1c-1.7-0.3-2.6-1.5-2.6-3.5
		c0-0.1,0-0.3,0-0.4h1c0,0.2,0,0.3,0,0.5c0,1.6,0.6,2.5,1.8,2.7c0.2,0,0.3,0,0.5,0c1.1,0,1.9-0.6,2.3-1.9c0-0.1,0.1-0.3,0.1-0.4
		c0-0.2,0.1-0.4,0.1-0.6c0-0.3,0-0.5-0.1-0.7c-0.2-0.4-0.4-0.6-0.8-0.8c-0.4-0.2-1-0.4-2-0.6c-0.9-0.2-1.5-0.5-1.8-0.9
		c-0.2-0.3-0.3-0.6-0.3-1c0-0.1,0-0.2,0-0.3c0.1-0.5,0.4-1,0.9-1.3c0.4-0.3,0.8-0.4,1.3-0.4c0.1,0,0.3,0,0.5,0l0.1,0
		c1.2,0.2,1.9,0.9,2,2.1H96.1z"/>
	<path class="st8" d="M102,43.4h1.5v0.9H102v8.3h-0.9v-8.3h-1.5v-0.9h1.5v-2.1h0.9V43.4z"/>
	<path class="st8" d="M107.1,39.8c0.1,0.2,0.2,0.3,0.2,0.6c0,0.2-0.1,0.4-0.2,0.5c-0.1,0.2-0.3,0.2-0.6,0.2c-0.2,0-0.4-0.1-0.6-0.2
		c-0.2-0.2-0.2-0.3-0.2-0.5c0-0.2,0.1-0.4,0.2-0.6c0.2-0.2,0.3-0.2,0.6-0.2C106.8,39.6,107,39.6,107.1,39.8z M107,52.6h-0.9v-9.2
		h0.9V52.6z"/>
	<path class="st8" d="M111,52.6h-0.9v-9.2h0.9v0.8c0.5-0.6,1.3-0.9,2.5-0.9h0c1.9,0,2.9,1.4,2.9,4.1c0,0.1,0,0.3,0,0.4v4.8h-0.9V48
		c0-0.2,0-0.3,0-0.4c0-2.1-0.6-3.2-1.9-3.4h-0.1c-1.4,0-2.2,0.7-2.4,2.2V52.6z"/>
	<path class="st8" d="M121.8,43.1c2.2,0,3.3,1.6,3.5,4.8c-0.1,3.3-1.3,4.9-3.5,4.9c-2.3,0-3.5-1.6-3.5-4.9
		C118.5,44.7,119.7,43.1,121.8,43.1z M124.4,47.9c-0.1-2.6-1-3.8-2.6-3.8c-1.6,0-2.5,1.3-2.6,3.8c0.1,2.7,0.9,4,2.6,4
		C123.5,51.9,124.4,50.5,124.4,47.9z"/>
	<path class="st8" d="M140.6,52.5c-0.3,1.9-1.4,2.9-3.3,2.9c-0.8,0-1.4-0.2-1.9-0.6l0.7-0.6c0.3,0.2,0.7,0.3,1.1,0.3
		c1.4,0,2.2-0.8,2.4-2.3l0-0.6c-0.5,0.6-1.3,0.9-2.5,0.9c-2.1,0-3.1-1.5-3.1-4.4c0-0.3,0-0.6,0-0.9c0.2-2.8,1.4-4.2,3.6-4.2
		c0.6,0,1.2,0.1,1.9,0.3h0.9L140.6,52.5z M134.9,47.3c0,0.2,0,0.4,0,0.6c0,2.6,0.7,3.8,2.2,3.8h0.1c1.4,0,2.2-0.7,2.4-2.2v-5.2
		c-0.8-0.3-1.5-0.4-2.1-0.4C135.9,44,135,45.1,134.9,47.3z"/>
	<path class="st8" d="M144.1,52.6h-0.9v-9.2h0.9v0.4c0.2-0.2,0.5-0.4,1-0.5c0.2,0,0.3-0.1,0.5-0.1c0.3,0,0.7,0.1,1.2,0.2l-0.4,0.7
		c-0.3-0.1-0.5-0.1-0.7-0.1c-0.3,0-0.5,0.1-0.8,0.2c-0.4,0.2-0.6,0.6-0.8,1.4V52.6z"/>
	<path class="st8" d="M154.4,52.6h-3c-2.2,0-3.3-1.1-3.4-3.2v-0.2c0-2.1,1-3.1,3-3.1c1.1,0,1.9,0.3,2.4,0.9l0-0.6
		c-0.2-1.5-1-2.3-2.4-2.3c-0.4,0-0.8,0.1-1.1,0.3l-0.7-0.6c0.5-0.4,1.1-0.6,1.9-0.6c1.9,0,3,1,3.3,2.9V52.6z M148.9,49.3
		c0.1,1.6,0.9,2.3,2.4,2.3h2.2V49c-0.2-1.5-1.1-2.2-2.4-2.2c-1.4,0-2.2,0.8-2.2,2.2C148.9,49.1,148.9,49.2,148.9,49.3z"/>
	<path class="st8" d="M159.6,44.2c-0.8,0-1.4,0.5-1.8,1.5c-0.3,0.7-0.4,1.4-0.4,2.3c0,0.5,0,1,0.1,1.6c0.2,1.5,1.1,2.3,2.5,2.3h0.1
		c1.7-0.2,2.6-1.3,2.6-3.3l0.9,0c-0.1,2.6-1.3,4-3.7,4.1c-0.1,0-0.2,0-0.2,0c-1.7,0-2.7-0.8-3.1-2.4c-0.2-0.8-0.3-1.5-0.3-2.2
		c0-0.9,0.2-1.8,0.5-2.6c0.5-1.5,1.5-2.2,3-2.2h0.2c1.1,0,2,0.5,2.6,1.4l-0.6,0.6c-0.5-0.7-1.1-1.1-2-1.1
		C159.8,44.2,159.7,44.2,159.6,44.2z"/>
	<path class="st8" d="M167.6,39.8c0.1,0.2,0.2,0.3,0.2,0.6c0,0.2-0.1,0.4-0.2,0.5c-0.1,0.2-0.3,0.2-0.6,0.2c-0.2,0-0.4-0.1-0.6-0.2
		c-0.2-0.2-0.2-0.3-0.2-0.5c0-0.2,0.1-0.4,0.2-0.6c0.2-0.2,0.3-0.2,0.6-0.2C167.3,39.6,167.4,39.6,167.6,39.8z M167.5,52.6h-0.9
		v-9.2h0.9V52.6z"/>
	<path class="st8" d="M176.8,52.6h-3c-2.2,0-3.3-1.1-3.4-3.2v-0.2c0-2.1,1-3.1,3-3.1c1.1,0,1.9,0.3,2.4,0.9l0-0.6
		c-0.2-1.5-1-2.3-2.4-2.3c-0.4,0-0.8,0.1-1.1,0.3l-0.7-0.6c0.5-0.4,1.1-0.6,1.9-0.6c1.9,0,3,1,3.3,2.9V52.6z M171.3,49.3
		c0.1,1.6,0.9,2.3,2.4,2.3h2.2V49c-0.2-1.5-1.1-2.2-2.4-2.2c-1.4,0-2.2,0.8-2.2,2.2C171.3,49.1,171.3,49.2,171.3,49.3z"/>
	<path class="st8" d="M183.1,45.2c-0.2-0.7-0.6-1.1-1.4-1.2l-0.1,0c-0.1,0-0.2,0-0.2,0c-0.2,0-0.5,0.1-0.7,0.2
		c-0.3,0.2-0.5,0.4-0.6,0.8c0,0.1,0,0.1,0,0.2c0,0.5,0.3,0.8,0.8,1c0.6,0.2,1.4,0.4,2.2,0.6c0.9,0.3,1.4,0.7,1.7,1.2
		c0.2,0.3,0.2,0.7,0.2,1.1c0,0.3,0,0.5-0.1,0.8l-0.1,0.3c-0.5,1.7-1.5,2.6-3.1,2.6c-0.2,0-0.4,0-0.7-0.1c-1.7-0.3-2.6-1.5-2.6-3.5
		c0-0.1,0-0.3,0-0.4h1c0,0.2,0,0.3,0,0.5c0,1.6,0.6,2.5,1.8,2.7c0.2,0,0.3,0,0.5,0c1.1,0,1.9-0.6,2.3-1.9c0-0.1,0.1-0.3,0.1-0.4
		c0-0.2,0.1-0.4,0.1-0.6c0-0.3,0-0.5-0.1-0.7c-0.2-0.4-0.4-0.6-0.8-0.8c-0.4-0.2-1-0.4-2-0.6c-0.9-0.2-1.5-0.5-1.8-0.9
		c-0.2-0.3-0.3-0.6-0.3-1c0-0.1,0-0.2,0-0.3c0.1-0.5,0.4-1,0.9-1.3c0.4-0.3,0.8-0.4,1.3-0.4c0.1,0,0.3,0,0.5,0l0.1,0
		c1.2,0.2,1.9,0.9,2,2.1H183.1z"/>
	<path class="st8" d="M200.2,52.6h-3c-2.2,0-3.3-1.1-3.4-3.2v-0.2c0-2.1,1-3.1,3-3.1c1.1,0,1.9,0.3,2.4,0.9l0-0.6
		c-0.2-1.5-1-2.3-2.4-2.3c-0.4,0-0.8,0.1-1.1,0.3l-0.7-0.6c0.5-0.4,1.1-0.6,1.9-0.6c1.9,0,3,1,3.3,2.9V52.6z M194.8,49.3
		c0.1,1.6,0.9,2.3,2.4,2.3h2.2V49c-0.2-1.5-1.1-2.2-2.4-2.2c-1.4,0-2.2,0.8-2.2,2.2C194.8,49.1,194.8,49.2,194.8,49.3z"/>
	<path class="st8" d="M213.5,45.2c-0.2-0.7-0.6-1.1-1.4-1.2l-0.1,0c-0.1,0-0.2,0-0.2,0c-0.2,0-0.5,0.1-0.7,0.2
		c-0.3,0.2-0.5,0.4-0.6,0.8c0,0.1,0,0.1,0,0.2c0,0.5,0.3,0.8,0.8,1c0.6,0.2,1.4,0.4,2.2,0.6c0.9,0.3,1.4,0.7,1.7,1.2
		c0.2,0.3,0.2,0.7,0.2,1.1c0,0.3,0,0.5-0.1,0.8l-0.1,0.3c-0.5,1.7-1.5,2.6-3.1,2.6c-0.2,0-0.4,0-0.7-0.1c-1.7-0.3-2.6-1.5-2.6-3.5
		c0-0.1,0-0.3,0-0.4h1c0,0.2,0,0.3,0,0.5c0,1.6,0.6,2.5,1.8,2.7c0.2,0,0.3,0,0.5,0c1.1,0,1.9-0.6,2.3-1.9c0-0.1,0.1-0.3,0.1-0.4
		c0-0.2,0.1-0.4,0.1-0.6c0-0.3,0-0.5-0.1-0.7c-0.2-0.4-0.4-0.6-0.8-0.8c-0.4-0.2-1-0.4-2-0.6c-0.9-0.2-1.5-0.5-1.8-0.9
		c-0.2-0.3-0.3-0.6-0.3-1c0-0.1,0-0.2,0-0.3c0.1-0.5,0.4-1,0.9-1.3c0.4-0.3,0.8-0.4,1.3-0.4c0.1,0,0.3,0,0.5,0l0.1,0
		c1.2,0.2,1.9,0.9,2,2.1H213.5z"/>
	<path class="st8" d="M223.1,43.4h0.9v9.2h-0.9v-0.8c-0.5,0.6-1.3,0.9-2.4,0.9c-1.9,0-2.9-1.5-2.9-4.4v-4.8h0.9V48
		c0,2.6,0.6,3.8,1.9,3.8h0.1c1.4,0,2.2-0.7,2.5-2.2V43.4z"/>
	<path class="st8" d="M235.1,43.4h1.5v0.9h-1.5v8.3h-0.9v-8.3h-1.5v-0.9h1.5v-2.1h0.9V43.4z"/>
	<path class="st8" d="M238.8,46.8c0,0.4,0,0.7,0,1.1c0,2.7,0.8,4.1,2.4,4.1c0.1,0,0.1,0,0.2,0c1.7-0.2,2.6-1.3,2.7-3.3h0.7
		c-0.2,2.7-1.5,4.1-3.9,4.1c-1.7-0.1-2.6-1.1-3-3c-0.1-0.8-0.2-1.5-0.2-2.1c0-0.9,0.1-1.7,0.4-2.2c0.6-1.4,1.7-2.2,3.1-2.2
		c0.1,0,0.2,0,0.4,0c1.6,0.1,2.5,1.3,2.7,3.6H238.8z M241.6,44.1c-0.1,0-0.1,0-0.2,0c-0.1,0-0.2,0-0.3,0c-1,0-1.7,0.7-2.2,2h4.7
		C243.4,44.8,242.7,44.2,241.6,44.1z M240.6,41.9l0.8-2h1.6l-1.7,2L240.6,41.9z"/>
	<path class="st8" d="M249.9,44.2c-0.8,0-1.4,0.5-1.8,1.5c-0.3,0.7-0.4,1.4-0.4,2.3c0,0.5,0,1,0.1,1.6c0.2,1.5,1.1,2.3,2.5,2.3h0.1
		c1.7-0.2,2.6-1.3,2.6-3.3l0.9,0c-0.1,2.6-1.3,4-3.7,4.1c-0.1,0-0.2,0-0.2,0c-1.7,0-2.7-0.8-3.1-2.4c-0.2-0.8-0.3-1.5-0.3-2.2
		c0-0.9,0.2-1.8,0.5-2.6c0.5-1.5,1.5-2.2,3-2.2h0.2c1.1,0,2,0.5,2.6,1.4l-0.6,0.6c-0.5-0.7-1.1-1.1-2-1.1
		C250.1,44.2,250,44.2,249.9,44.2z"/>
	<path class="st8" d="M256.9,52.6H256v-9.2h0.9v0.8c0.5-0.6,1.3-0.9,2.5-0.9h0c1.9,0,2.9,1.4,2.9,4.1c0,0.1,0,0.3,0,0.4v4.8h-0.9V48
		c0-0.2,0-0.3,0-0.4c0-2.1-0.6-3.2-1.9-3.4h-0.1c-1.4,0-2.2,0.7-2.4,2.2V52.6z"/>
	<path class="st8" d="M266.4,39.8c0.1,0.2,0.2,0.3,0.2,0.6c0,0.2-0.1,0.4-0.2,0.5c-0.1,0.2-0.3,0.2-0.6,0.2c-0.2,0-0.4-0.1-0.6-0.2
		c-0.2-0.2-0.2-0.3-0.2-0.5c0-0.2,0.1-0.4,0.2-0.6c0.2-0.2,0.3-0.2,0.6-0.2C266.1,39.6,266.3,39.6,266.4,39.8z M266.3,52.6h-0.9
		v-9.2h0.9V52.6z"/>
	<path class="st8" d="M272.5,44.2c-0.8,0-1.4,0.5-1.8,1.5c-0.3,0.7-0.4,1.4-0.4,2.3c0,0.5,0,1,0.1,1.6c0.2,1.5,1.1,2.3,2.5,2.3h0.1
		c1.7-0.2,2.6-1.3,2.6-3.3l0.9,0c-0.1,2.6-1.3,4-3.7,4.1c-0.1,0-0.2,0-0.2,0c-1.7,0-2.7-0.8-3.1-2.4c-0.2-0.8-0.3-1.5-0.3-2.2
		c0-0.9,0.2-1.8,0.5-2.6c0.5-1.5,1.5-2.2,3-2.2h0.2c1.1,0,2,0.5,2.6,1.4l-0.6,0.6c-0.5-0.7-1.1-1.1-2-1.1
		C272.7,44.2,272.6,44.2,272.5,44.2z"/>
	<path class="st8" d="M284.5,52.6h-3c-2.2,0-3.3-1.1-3.4-3.2v-0.2c0-2.1,1-3.1,3-3.1c1.1,0,1.9,0.3,2.4,0.9l0-0.6
		c-0.2-1.5-1-2.3-2.4-2.3c-0.4,0-0.8,0.1-1.1,0.3l-0.7-0.6c0.5-0.4,1.1-0.6,1.9-0.6c1.9,0,3,1,3.3,2.9V52.6z M279,49.3
		c0.1,1.6,0.9,2.3,2.4,2.3h2.2V49c-0.2-1.5-1.1-2.2-2.4-2.2c-1.4,0-2.2,0.8-2.2,2.2C279,49.1,279,49.2,279,49.3z"/>
	<path class="st8" d="M300,52.6h-4.2c0,0-0.1,0-0.1,0c-1.3,0-2-1.3-2.1-3.9c0-0.3,0-0.6,0-0.9c0-3,1-4.4,3.1-4.4
		c1.1,0,1.9,0.3,2.5,0.9v-3.8h0.9V52.6z M294.3,48.6c0,2.1,0.6,3.1,1.8,3.1h3.1l0-5.4c-0.3-1.5-1.1-2.2-2.4-2.2h-0.1
		c-1.5,0-2.2,1.3-2.2,3.8C294.3,48.2,294.3,48.4,294.3,48.6z"/>
	<path class="st8" d="M303.2,46.8c0,0.4,0,0.7,0,1.1c0,2.7,0.8,4.1,2.4,4.1c0.1,0,0.1,0,0.2,0c1.7-0.2,2.6-1.3,2.7-3.3h0.7
		c-0.2,2.7-1.5,4.1-3.9,4.1c-1.7-0.1-2.6-1.1-3-3c-0.1-0.8-0.2-1.5-0.2-2.1c0-0.9,0.1-1.7,0.4-2.2c0.6-1.4,1.7-2.2,3.1-2.2
		c0.1,0,0.2,0,0.4,0c1.6,0.1,2.5,1.3,2.7,3.6H303.2z M306,44.1c-0.1,0-0.1,0-0.2,0c-0.1,0-0.2,0-0.3,0c-1,0-1.7,0.7-2.2,2h4.7
		C307.8,44.8,307.1,44.2,306,44.1z"/>
	<path class="st8" d="M318.9,46.8c0,0.4,0,0.7,0,1.1c0,2.7,0.8,4.1,2.4,4.1c0.1,0,0.1,0,0.2,0c1.7-0.2,2.6-1.3,2.7-3.3h0.7
		c-0.2,2.7-1.5,4.1-3.9,4.1c-1.7-0.1-2.6-1.1-3-3c-0.1-0.8-0.2-1.5-0.2-2.1c0-0.9,0.1-1.7,0.4-2.2c0.6-1.4,1.7-2.2,3.1-2.2
		c0.1,0,0.2,0,0.4,0c1.6,0.1,2.5,1.3,2.7,3.6H318.9z M321.7,44.1c-0.1,0-0.1,0-0.2,0c-0.1,0-0.2,0-0.3,0c-1,0-1.7,0.7-2.2,2h4.7
		C323.5,44.8,322.8,44.2,321.7,44.1z"/>
	<path class="st8" d="M327.8,52.6h-0.9v-9.2h0.9v0.8c0.5-0.6,1.3-0.9,2.5-0.9h0c1.9,0,2.9,1.4,2.9,4.1c0,0.1,0,0.3,0,0.4v4.8h-0.9
		V48c0-0.2,0-0.3,0-0.4c0-2.1-0.6-3.2-1.9-3.4h-0.1c-1.4,0-2.2,0.7-2.4,2.2V52.6z"/>
	<path class="st8" d="M338.4,44.2c-0.8,0-1.4,0.5-1.8,1.5c-0.3,0.7-0.4,1.4-0.4,2.3c0,0.5,0,1,0.1,1.6c0.2,1.5,1.1,2.3,2.5,2.3h0.1
		c1.7-0.2,2.6-1.3,2.6-3.3l0.9,0c-0.1,2.6-1.3,4-3.7,4.1c-0.1,0-0.2,0-0.2,0c-1.7,0-2.7-0.8-3.1-2.4c-0.2-0.8-0.3-1.5-0.3-2.2
		c0-0.9,0.2-1.8,0.5-2.6c0.5-1.5,1.5-2.2,3-2.2h0.2c1.1,0,2,0.5,2.6,1.4l-0.6,0.6c-0.5-0.7-1.1-1.1-2-1.1
		C338.7,44.2,338.6,44.2,338.4,44.2z"/>
	<path class="st8" d="M350.4,52.6h-3c-2.2,0-3.3-1.1-3.4-3.2v-0.2c0-2.1,1-3.1,3-3.1c1.1,0,1.9,0.3,2.4,0.9l0-0.6
		c-0.2-1.5-1-2.3-2.4-2.3c-0.4,0-0.8,0.1-1.1,0.3l-0.7-0.6c0.5-0.4,1.1-0.6,1.9-0.6c1.9,0,3,1,3.3,2.9V52.6z M345,49.3
		c0.1,1.6,0.9,2.3,2.4,2.3h2.2V49c-0.2-1.5-1.1-2.2-2.4-2.2c-1.4,0-2.2,0.8-2.2,2.2C345,49.1,345,49.2,345,49.3z"/>
	<path class="st8" d="M352.8,43.4h0.9c0.7-0.2,1.4-0.3,1.9-0.3c2.2,0,3.4,1.4,3.6,4.2c0,0.3,0,0.6,0,0.9c0,3-1,4.4-3.1,4.4
		c-1.1,0-1.9-0.3-2.4-0.9v3.8h-0.9V43.4z M355.8,44c-0.6,0-1.3,0.1-2.1,0.4v5.2c0.3,1.5,1.1,2.2,2.4,2.2h0.1c1.5,0,2.2-1.3,2.2-3.8
		c0-0.2,0-0.4,0-0.6C358.4,45.1,357.5,44,355.8,44z"/>
	<path class="st8" d="M365.5,45.2c-0.2-0.7-0.6-1.1-1.4-1.2l-0.1,0c-0.1,0-0.2,0-0.2,0c-0.2,0-0.5,0.1-0.7,0.2
		c-0.3,0.2-0.5,0.4-0.6,0.8c0,0.1,0,0.1,0,0.2c0,0.5,0.3,0.8,0.8,1c0.6,0.2,1.4,0.4,2.2,0.6c0.9,0.3,1.4,0.7,1.7,1.2
		c0.2,0.3,0.2,0.7,0.2,1.1c0,0.3,0,0.5-0.1,0.8l-0.1,0.3c-0.5,1.7-1.5,2.6-3.1,2.6c-0.2,0-0.4,0-0.7-0.1c-1.7-0.3-2.6-1.5-2.6-3.5
		c0-0.1,0-0.3,0-0.4h1c0,0.2,0,0.3,0,0.5c0,1.6,0.6,2.5,1.8,2.7c0.2,0,0.3,0,0.5,0c1.1,0,1.9-0.6,2.3-1.9c0-0.1,0.1-0.3,0.1-0.4
		c0-0.2,0.1-0.4,0.1-0.6c0-0.3,0-0.5-0.1-0.7c-0.2-0.4-0.4-0.6-0.8-0.8c-0.4-0.2-1-0.4-2-0.6c-0.9-0.2-1.5-0.5-1.8-0.9
		c-0.2-0.3-0.3-0.6-0.3-1c0-0.1,0-0.2,0-0.3c0.1-0.5,0.4-1,0.9-1.3c0.4-0.3,0.8-0.4,1.3-0.4c0.1,0,0.3,0,0.5,0l0.1,0
		c1.2,0.2,1.9,0.9,2,2.1H365.5z"/>
	<path class="st8" d="M375.1,43.4h0.9v9.2h-0.9v-0.8c-0.5,0.6-1.3,0.9-2.4,0.9c-1.9,0-2.9-1.5-2.9-4.4v-4.8h0.9V48
		c0,2.6,0.6,3.8,1.9,3.8h0.1c1.4,0,2.2-0.7,2.5-2.2V43.4z"/>
	<path class="st8" d="M379.9,52.6H379V40.5h0.9V52.6z"/>
	<path class="st8" d="M388.9,52.6h-3c-2.2,0-3.3-1.1-3.4-3.2v-0.2c0-2.1,1-3.1,3-3.1c1.1,0,1.9,0.3,2.4,0.9l0-0.6
		c-0.2-1.5-1-2.3-2.4-2.3c-0.4,0-0.8,0.1-1.1,0.3l-0.7-0.6c0.5-0.4,1.1-0.6,1.9-0.6c1.9,0,3,1,3.3,2.9V52.6z M383.4,49.3
		c0.1,1.6,0.9,2.3,2.4,2.3h2.2V49c-0.2-1.5-1.1-2.2-2.4-2.2c-1.4,0-2.2,0.8-2.2,2.2C383.4,49.1,383.4,49.2,383.4,49.3z"/>
	<path class="st8" d="M394.1,44.2c-0.8,0-1.4,0.5-1.8,1.5c-0.3,0.7-0.4,1.4-0.4,2.3c0,0.5,0,1,0.1,1.6c0.2,1.5,1.1,2.3,2.5,2.3h0.1
		c1.7-0.2,2.6-1.3,2.6-3.3l0.9,0c-0.1,2.6-1.3,4-3.7,4.1c-0.1,0-0.2,0-0.2,0c-1.7,0-2.7-0.8-3.1-2.4c-0.2-0.8-0.3-1.5-0.3-2.2
		c0-0.9,0.2-1.8,0.5-2.6c0.5-1.5,1.5-2.2,3-2.2h0.2c1.1,0,2,0.5,2.6,1.4l-0.6,0.6c-0.5-0.7-1.1-1.1-2-1.1
		C394.3,44.2,394.2,44.2,394.1,44.2z"/>
	<path class="st8" d="M402.1,39.8c0.1,0.2,0.2,0.3,0.2,0.6c0,0.2-0.1,0.4-0.2,0.5c-0.1,0.2-0.3,0.2-0.6,0.2c-0.2,0-0.4-0.1-0.6-0.2
		c-0.2-0.2-0.2-0.3-0.2-0.5c0-0.2,0.1-0.4,0.2-0.6c0.2-0.2,0.3-0.2,0.6-0.2C401.8,39.6,402,39.6,402.1,39.8z M402,52.6h-0.9v-9.2
		h0.9V52.6z"/>
	<path class="st8" d="M408.3,43.1c2.2,0,3.3,1.6,3.5,4.8c-0.1,3.3-1.3,4.9-3.5,4.9c-2.3,0-3.5-1.6-3.5-4.9
		C405,44.7,406.1,43.1,408.3,43.1z M410.9,47.9c-0.1-2.6-1-3.8-2.6-3.8s-2.5,1.3-2.6,3.8c0.1,2.7,0.9,4,2.6,4
		C410,51.9,410.8,50.5,410.9,47.9z M407.5,41.9l0.8-2h1.6l-1.7,2L407.5,41.9z"/>
	<path class="st8" d="M414.6,52.6h-0.9v-9.2h0.9v0.8c0.5-0.6,1.3-0.9,2.5-0.9h0c1.9,0,2.9,1.4,2.9,4.1c0,0.1,0,0.3,0,0.4v4.8h-0.9
		V48c0-0.2,0-0.3,0-0.4c0-2.1-0.6-3.2-1.9-3.4H417c-1.4,0-2.2,0.7-2.4,2.2V52.6z"/>
	<path class="st9" d="M432.4,53.9c-1.4-0.1-2.4-0.7-3-2.1c-0.6-1.3-0.9-3.1-0.9-5.3c0-2.2,0.3-4,0.9-5.3c0.6-1.3,1.6-2,3-2.1v1
		c-0.7,0.1-1.3,0.6-1.7,1.7c-0.5,1.1-0.7,2.7-0.7,4.8c0,2,0.2,3.6,0.7,4.8c0.4,1,1,1.6,1.7,1.6V53.9z"/>
	<path class="st9" d="M438.3,41.6v11H437v-11h-3.4v-1.2h8v1.2H438.3z"/>
	<path class="st9" d="M442.7,52.6h-1.3v-9.3h1.3V44c0.2-0.5,0.6-0.7,1.1-0.8c0.2,0,0.4,0,0.5,0c0.4,0,0.7,0.1,1,0.2l-0.5,1.1
		c-0.4-0.1-0.6-0.2-0.8-0.2c-0.2,0-0.4,0.1-0.6,0.2c-0.3,0.1-0.5,0.6-0.7,1.2V52.6z"/>
	<path class="st9" d="M452.3,43.3h1.3v9.3h-1.3v-0.8c-0.3,0.6-1,0.9-2.2,0.9c-2,0-3.1-1.5-3.1-4.5v-4.9h1.3v4.7
		c0,2.4,0.6,3.6,1.7,3.6h0.1c1.2,0,1.9-0.7,2.2-2V43.3z"/>
	<path class="st9" d="M457.3,46.9c0,0.2,0,0.5,0,0.8c0,2.4,0.7,3.6,2.2,3.6c0,0,0.1,0,0.2,0c1.5-0.1,2.4-1.1,2.5-3.1h1.2
		c-0.2,2.9-1.5,4.4-4,4.4c-1.7-0.1-2.8-1.1-3.1-3.1c-0.1-0.8-0.2-1.5-0.2-2.1c0-0.9,0.1-1.7,0.4-2.3c0.7-1.5,1.7-2.2,3.2-2.2
		c0.1,0,0.2,0,0.4,0c1.7,0.1,2.6,1.4,2.9,3.9H457.3z M459.6,44.3h-0.1c-1,0-1.7,0.5-2.1,1.5h4C461.3,44.9,460.7,44.4,459.6,44.3z"/>
	<path class="st9" d="M48.2,73h-2.7V60.8h2.7c3.3,0.2,4.9,2.2,5,6.1C53.1,70.8,51.5,72.8,48.2,73z M47.8,62h-0.9v9.7h0.9
		c2.6,0,4-1.6,4-4.8C51.8,63.6,50.4,62,47.8,62z"/>
	<path class="st9" d="M56.4,67.3c0,0.2,0,0.5,0,0.8c0,2.4,0.7,3.6,2.2,3.6c0,0,0.1,0,0.2,0c1.5-0.1,2.4-1.1,2.5-3.1h1.2
		c-0.2,2.9-1.5,4.4-4,4.4C56.7,73,55.6,72,55.3,70c-0.1-0.8-0.2-1.5-0.2-2.1c0-0.9,0.1-1.7,0.4-2.3c0.7-1.5,1.7-2.2,3.2-2.2
		c0.1,0,0.2,0,0.4,0c1.7,0.1,2.6,1.4,2.9,3.9H56.4z M58.8,64.7h-0.1c-1,0-1.7,0.5-2.1,1.5h4C60.5,65.3,59.9,64.8,58.8,64.7z"/>
	<path class="st9" d="M66.2,73h-1.3V60.8h1.3V73z"/>
	<path class="st9" d="M71.2,60.2c0.2,0.2,0.3,0.4,0.3,0.7c0,0.3-0.1,0.5-0.3,0.7c-0.2,0.2-0.4,0.3-0.7,0.3c-0.3,0-0.5-0.1-0.7-0.3
		c-0.2-0.2-0.3-0.4-0.3-0.7c0-0.3,0.1-0.5,0.3-0.7c0.2-0.2,0.4-0.3,0.7-0.3C70.8,59.9,71.1,60,71.2,60.2z M71.2,73h-1.3v-9.3h1.3V73
		z"/>
	<path class="st9" d="M81.3,63.6c-0.4,4.3-1.6,7.6-3.6,9.8c-2.2-2.9-3.4-6.2-3.6-9.8l1.3,0c0.2,3.2,0.9,5.7,2.2,7.6
		c1.3-1.9,2-4.4,2.2-7.6H81.3z"/>
	<path class="st9" d="M84.4,67.3c0,0.2,0,0.5,0,0.8c0,2.4,0.7,3.6,2.2,3.6c0,0,0.1,0,0.2,0c1.5-0.1,2.4-1.1,2.5-3.1h1.2
		c-0.2,2.9-1.5,4.4-4,4.4C84.6,73,83.6,72,83.3,70c-0.1-0.8-0.2-1.5-0.2-2.1c0-0.9,0.1-1.7,0.4-2.3c0.7-1.5,1.7-2.2,3.2-2.2
		c0.1,0,0.2,0,0.4,0c1.7,0.1,2.6,1.4,2.9,3.9H84.4z M86.7,64.7h-0.1c-1,0-1.7,0.5-2.1,1.5h4C88.4,65.3,87.8,64.8,86.7,64.7z"/>
	<path class="st9" d="M93.2,73h-1.3v-9.3h1.3v0.8c0.2-0.5,0.6-0.7,1.1-0.8c0.2,0,0.4,0,0.5,0c0.4,0,0.7,0.1,1,0.2l-0.5,1.1
		c-0.4-0.1-0.6-0.2-0.8-0.2c-0.2,0-0.4,0.1-0.6,0.2c-0.3,0.1-0.5,0.6-0.7,1.2V73z"/>
	<path class="st9" d="M102.6,72.1c-0.3,0.6-1,0.9-2.2,0.9c-2,0-3.1-1.5-3.1-4.5v-4.9h1.3v4.7c0,2.4,0.6,3.6,1.7,3.6h0.1
		c1.2,0,1.9-0.7,2.2-2v-6.3h1.3v9.1c-0.3,1.9-1.5,2.9-3.4,3c-0.8,0-1.5-0.3-2.1-0.7l1-0.8c0.4,0.3,0.7,0.4,1.1,0.4
		C101.8,74.6,102.5,73.7,102.6,72.1z"/>
	<path class="st9" d="M109,61.6h-0.9V66h-1v-4.4h-1.5v-0.9h4.3l1.7,2.4l1.5-2.1v-0.2h1.1V66H113v-3.3l-1,1.5h-0.9l-1-1.5V66h-1V61.6
		z"/>
	<path class="st9" d="M126.4,62v11h-1.3V62h-3.4v-1.2h8V62H126.4z"/>
	<path class="st9" d="M130.8,67.3c0,0.2,0,0.5,0,0.8c0,2.4,0.7,3.6,2.2,3.6c0,0,0.1,0,0.2,0c1.5-0.1,2.4-1.1,2.5-3.1h1.2
		c-0.2,2.9-1.5,4.4-4,4.4C131,73,130,72,129.7,70c-0.1-0.8-0.2-1.5-0.2-2.1c0-0.9,0.1-1.7,0.4-2.3c0.7-1.5,1.7-2.2,3.2-2.2
		c0.1,0,0.2,0,0.4,0c1.7,0.1,2.6,1.4,2.9,3.9H130.8z M133.2,64.7h-0.1c-1,0-1.7,0.5-2.1,1.5h4C134.8,65.3,134.2,64.8,133.2,64.7z"/>
	<path class="st9" d="M141.8,64.8c-0.7,0-1.2,0.5-1.6,1.4c-0.3,0.6-0.4,1.3-0.4,2.2c0,0.5,0,1,0.1,1.5c0.2,1.4,0.9,2.1,2.2,2.1h0.1
		c1.5-0.2,2.3-1.2,2.3-3.2l1.3,0c-0.1,2.8-1.3,4.3-3.8,4.4c-0.1,0-0.2,0-0.3,0c-1.7,0-2.8-0.8-3.2-2.5c-0.2-0.7-0.3-1.5-0.3-2.2
		c0-0.9,0.2-1.7,0.5-2.6c0.6-1.5,1.6-2.3,3.1-2.3h0.2c1.2,0,2.1,0.5,2.8,1.6l-0.9,0.8c-0.5-0.8-1.2-1.2-1.9-1.2
		C142.1,64.8,142,64.8,141.8,64.8z"/>
	<path class="st9" d="M149.8,73h-1.3V60.8h1.3v3.7c0.3-0.6,1-0.9,2.2-0.9c2,0,3,1.3,3,3.8V73h-1.3v-5.5c0-1.8-0.5-2.7-1.6-2.7h-0.1
		c-1.2,0-1.9,0.7-2.2,2V73z"/>
	<path class="st9" d="M159,73h-1.3v-9.3h1.3v0.8c0.3-0.6,1-0.9,2.2-0.9h0c2,0,3,1.4,3,4.1c0,0.1,0,0.3,0,0.4V73H163v-4.7
		c0-0.2,0-0.3,0-0.4c0-2-0.6-3-1.7-3.1h-0.1c-1.2,0-1.9,0.7-2.2,2V73z"/>
	<path class="st9" d="M169.8,63.3c2.2,0,3.5,1.6,3.7,4.8c-0.1,3.3-1.3,5-3.7,5c-2.4,0-3.6-1.7-3.6-5
		C166.3,64.9,167.5,63.3,169.8,63.3z M172.1,68.2c-0.1-2.4-0.9-3.6-2.3-3.6c-1.4,0-2.2,1.2-2.3,3.6c0.1,2.5,0.8,3.7,2.3,3.7
		C171.3,71.9,172,70.7,172.1,68.2z"/>
	<path class="st9" d="M177.2,73h-1.3V60.8h1.3V73z"/>
	<path class="st9" d="M182.9,63.3c2.2,0,3.5,1.6,3.7,4.8c-0.1,3.3-1.3,5-3.7,5c-2.4,0-3.6-1.7-3.6-5
		C179.5,64.9,180.7,63.3,182.9,63.3z M185.2,68.2c-0.1-2.4-0.9-3.6-2.3-3.6c-1.4,0-2.2,1.2-2.3,3.6c0.1,2.5,0.8,3.7,2.3,3.7
		C184.4,71.9,185.2,70.7,185.2,68.2z"/>
	<path class="st9" d="M195.1,72.7c-0.3,2-1.4,3-3.4,3c-0.8,0-1.5-0.3-2.1-0.7l1-0.8c0.4,0.3,0.7,0.4,1.1,0.4c1.3,0,2-0.9,2.1-2.5
		c-0.3,0.6-1,0.9-2.2,0.9c-2.2,0-3.3-1.5-3.3-4.5c0-0.3,0-0.6,0-0.9c0.2-2.9,1.4-4.3,3.7-4.3c0.6,0,1.2,0.1,1.9,0.3h1.1L195.1,72.7z
		 M189.6,67.7c0,0.2,0,0.4,0,0.6c0,2.4,0.7,3.6,2,3.6h0.1c1.2,0,1.9-0.7,2.1-2V65c-0.7-0.2-1.3-0.4-1.9-0.4
		C190.5,64.6,189.7,65.6,189.6,67.7z"/>
	<path class="st9" d="M203,72.1c-0.3,0.6-1,0.9-2.2,0.9c-2,0-3.1-1.5-3.1-4.5v-4.9h1.3v4.7c0,2.4,0.6,3.6,1.7,3.6h0.1
		c1.2,0,1.9-0.7,2.2-2v-6.3h1.3v9.1c-0.3,1.9-1.5,2.9-3.4,3c-0.8,0-1.5-0.3-2.1-0.7l1-0.8c0.4,0.3,0.7,0.4,1.1,0.4
		C202.3,74.6,203,73.7,203,72.1z"/>
	<path class="st9" d="M206,73.3c0.7-0.1,1.3-0.6,1.7-1.6c0.5-1.1,0.7-2.7,0.7-4.8c0-2-0.2-3.6-0.7-4.8c-0.4-1-1-1.6-1.7-1.7v-1
		c1.4,0.1,2.4,0.7,3,2.1c0.6,1.3,0.9,3.1,0.9,5.3c0,2.2-0.3,4-0.9,5.3c-0.6,1.3-1.6,2-3,2.1V73.3z"/>
	<path class="st9" d="M213.1,70.9c0.2,0.2,0.4,0.5,0.4,0.9c0,0.3-0.1,0.6-0.4,0.9c-0.2,0.2-0.5,0.4-0.9,0.4c-0.4,0-0.6-0.1-0.9-0.4
		c-0.2-0.2-0.4-0.5-0.4-0.9c0-0.3,0.1-0.6,0.4-0.9c0.2-0.2,0.5-0.4,0.9-0.4C212.6,70.5,212.9,70.6,213.1,70.9z"/>
	<path class="st9" d="M216.9,63.2l-0.5,0.6l-0.6-0.5l1.1-1.8h-1.5l0-0.7h2.3l0.3,0.4l-0.9,1.3c1,0,1.6,0.4,1.9,1.3
		c0.1,0.3,0.1,0.6,0.1,1c0,0.5-0.1,1.1-0.4,1.7c-0.4,1-1.1,1.5-2,1.5c0,0,0,0-0.1,0c-0.9,0-1.6-0.6-2-1.9l0.7-0.2
		c0.3,0.9,0.8,1.3,1.4,1.3c0.6,0,1-0.4,1.3-1.1c0.2-0.5,0.3-0.9,0.3-1.3c0-0.2,0-0.5-0.1-0.7C218.2,63.4,217.7,63.2,216.9,63.2
		L216.9,63.2z"/>
</g>
</svg>
