<?xml version="1.0" encoding="utf-8"?>
<!-- Generator: Adobe Illustrator 20.1.0, SVG Export Plug-In . SVG Version: 6.00 Build 0)  -->
<svg version="1.1" id="Layer_1" xmlns="http://www.w3.org/2000/svg" xmlns:xlink="http://www.w3.org/1999/xlink" x="0px" y="0px"
	 viewBox="0 0 500.7 85" style="enable-background:new 0 0 500.7 85;" xml:space="preserve">
<style type="text/css">
	.st0{fill:#056CB0;}
</style>
<g>
	<g>
		<path class="st0" d="M1.8,5.8h2.1v13.3h6.7V21H1.8V5.8z"/>
		<path class="st0" d="M20.4,10.2c0.9,0.5,1.6,1.2,2.1,2.1c0.5,0.9,0.8,1.9,0.8,3s-0.3,2.1-0.8,3c-0.5,0.9-1.2,1.6-2.1,2.1
			c-0.9,0.5-1.9,0.7-3.1,0.7c-1.2,0-2.2-0.2-3.1-0.7c-0.9-0.5-1.6-1.2-2.1-2.1c-0.5-0.9-0.8-1.9-0.8-3c0-1.1,0.2-2.1,0.8-3
			c0.5-0.9,1.2-1.6,2.1-2.1c0.9-0.5,1.9-0.7,3.1-0.7C18.5,9.5,19.5,9.7,20.4,10.2z M15.4,11.7c-0.6,0.3-1,0.8-1.4,1.4
			c-0.3,0.6-0.5,1.3-0.5,2.1c0,0.8,0.2,1.5,0.5,2.1c0.3,0.6,0.8,1.1,1.4,1.4c0.6,0.3,1.3,0.5,2,0.5c0.7,0,1.4-0.2,2-0.5
			c0.6-0.3,1-0.8,1.4-1.4c0.3-0.6,0.5-1.3,0.5-2.1c0-0.8-0.2-1.5-0.5-2.1c-0.3-0.6-0.8-1.1-1.4-1.4c-0.6-0.3-1.3-0.5-2-0.5
			C16.6,11.2,15.9,11.4,15.4,11.7z"/>
		<path class="st0" d="M30.6,11.4c-0.6-0.2-1.1-0.3-1.6-0.3c-0.6,0-1.1,0.1-1.5,0.3c-0.4,0.2-0.6,0.6-0.6,1c0,0.5,0.2,0.8,0.6,1.1
			c0.4,0.2,1,0.5,1.9,0.7c0.8,0.2,1.5,0.5,2,0.7c0.5,0.2,0.9,0.6,1.3,1c0.4,0.4,0.5,1,0.5,1.8c0,1.1-0.4,1.9-1.2,2.5
			c-0.8,0.6-1.8,0.8-3.1,0.8c-0.9,0-1.7-0.1-2.5-0.4c-0.8-0.3-1.5-0.7-2-1.2l0.8-1.5c0.5,0.4,1.1,0.8,1.8,1c0.7,0.3,1.4,0.4,2.1,0.4
			c0.7,0,1.2-0.1,1.6-0.4c0.4-0.2,0.6-0.6,0.6-1.1c0-0.5-0.2-0.9-0.6-1.2c-0.4-0.3-1.1-0.5-1.9-0.8c-0.8-0.2-1.4-0.4-1.9-0.7
			c-0.5-0.2-0.9-0.6-1.2-1c-0.3-0.4-0.5-1-0.5-1.7c0-1.1,0.4-1.9,1.2-2.4C27,9.7,28,9.4,29.1,9.4c0.7,0,1.4,0.1,2.1,0.3
			c0.7,0.2,1.3,0.5,1.8,0.8l-0.7,1.5C31.7,11.8,31.2,11.6,30.6,11.4z"/>
		<path class="st0" d="M50.9,10.2c0.8,0.5,1.5,1.2,2,2.1c0.5,0.9,0.7,1.9,0.7,3c0,1.1-0.2,2.1-0.7,3c-0.5,0.9-1.1,1.6-1.9,2
			c-0.8,0.5-1.8,0.7-2.9,0.7c-1,0-1.8-0.2-2.6-0.6c-0.7-0.4-1.3-1-1.7-1.7v6.5h-2V9.5h2v2.3c0.4-0.8,1-1.3,1.7-1.7
			c0.7-0.4,1.6-0.6,2.5-0.6C49.1,9.5,50.1,9.7,50.9,10.2z M49.6,18.8c0.6-0.3,1-0.8,1.4-1.5c0.3-0.6,0.5-1.3,0.5-2.1
			c0-0.8-0.2-1.5-0.5-2.1c-0.3-0.6-0.8-1.1-1.4-1.5c-0.6-0.3-1.2-0.5-2-0.5s-1.4,0.2-2,0.5c-0.6,0.3-1,0.8-1.4,1.5
			c-0.3,0.6-0.5,1.3-0.5,2.1c0,0.8,0.2,1.5,0.5,2.1c0.3,0.6,0.8,1.1,1.4,1.4c0.6,0.3,1.3,0.5,2,0.5S49,19.2,49.6,18.8z"/>
		<path class="st0" d="M59.7,10.1c0.7-0.4,1.5-0.6,2.5-0.7v2c-1.2,0-2.1,0.3-2.9,0.9c-0.7,0.7-1.1,1.5-1.2,2.6V21h-2V9.5h2V12
			C58.5,11.2,59,10.6,59.7,10.1z"/>
		<path class="st0" d="M71.9,10.2c0.9,0.5,1.6,1.2,2.1,2.1c0.5,0.9,0.8,1.9,0.8,3s-0.3,2.1-0.8,3c-0.5,0.9-1.2,1.6-2.1,2.1
			c-0.9,0.5-1.9,0.7-3.1,0.7c-1.2,0-2.2-0.2-3.1-0.7c-0.9-0.5-1.6-1.2-2.1-2.1c-0.5-0.9-0.8-1.9-0.8-3c0-1.1,0.2-2.1,0.8-3
			c0.5-0.9,1.2-1.6,2.1-2.1c0.9-0.5,1.9-0.7,3.1-0.7C70,9.5,71,9.7,71.9,10.2z M66.9,11.7c-0.6,0.3-1,0.8-1.4,1.4
			c-0.3,0.6-0.5,1.3-0.5,2.1c0,0.8,0.2,1.5,0.5,2.1c0.3,0.6,0.8,1.1,1.4,1.4c0.6,0.3,1.3,0.5,2,0.5c0.7,0,1.4-0.2,2-0.5
			c0.6-0.3,1-0.8,1.4-1.4c0.3-0.6,0.5-1.3,0.5-2.1c0-0.8-0.2-1.5-0.5-2.1c-0.3-0.6-0.8-1.1-1.4-1.4c-0.6-0.3-1.3-0.5-2-0.5
			C68.1,11.2,67.4,11.4,66.9,11.7z"/>
		<path class="st0" d="M86.5,10.2c0.8,0.5,1.5,1.2,2,2.1c0.5,0.9,0.7,1.9,0.7,3c0,1.1-0.2,2.1-0.7,3c-0.5,0.9-1.1,1.6-1.9,2
			c-0.8,0.5-1.8,0.7-2.9,0.7c-1,0-1.8-0.2-2.6-0.6c-0.7-0.4-1.3-1-1.7-1.7V21h-2V4.9h2v6.9c0.4-0.8,1-1.3,1.7-1.7
			c0.7-0.4,1.6-0.6,2.5-0.6C84.7,9.5,85.7,9.7,86.5,10.2z M85.2,18.8c0.6-0.3,1-0.8,1.4-1.5c0.3-0.6,0.5-1.3,0.5-2.1
			c0-0.8-0.2-1.5-0.5-2.1c-0.3-0.6-0.8-1.1-1.4-1.5c-0.6-0.3-1.2-0.5-2-0.5c-0.7,0-1.4,0.2-2,0.5c-0.6,0.3-1,0.8-1.4,1.5
			c-0.3,0.6-0.5,1.3-0.5,2.1c0,0.8,0.2,1.5,0.5,2.1c0.3,0.6,0.8,1.1,1.4,1.4c0.6,0.3,1.3,0.5,2,0.5C84,19.3,84.6,19.2,85.2,18.8z"/>
		<path class="st0" d="M93.5,5.3c0.2,0.2,0.4,0.6,0.4,0.9c0,0.4-0.1,0.7-0.4,0.9c-0.2,0.2-0.5,0.4-0.9,0.4c-0.4,0-0.7-0.1-0.9-0.4
			c-0.2-0.2-0.4-0.6-0.4-0.9c0-0.4,0.1-0.7,0.4-0.9c0.2-0.2,0.5-0.4,0.9-0.4C93,4.9,93.3,5.1,93.5,5.3z M91.6,9.5h2V21h-2V9.5z"/>
		<path class="st0" d="M105.1,10.2c0.9,0.5,1.6,1.2,2.1,2.1c0.5,0.9,0.8,1.9,0.8,3s-0.3,2.1-0.8,3c-0.5,0.9-1.2,1.6-2.1,2.1
			c-0.9,0.5-1.9,0.7-3.1,0.7c-1.2,0-2.2-0.2-3.1-0.7c-0.9-0.5-1.6-1.2-2.1-2.1c-0.5-0.9-0.8-1.9-0.8-3c0-1.1,0.2-2.1,0.8-3
			c0.5-0.9,1.2-1.6,2.1-2.1c0.9-0.5,1.9-0.7,3.1-0.7C103.2,9.5,104.2,9.7,105.1,10.2z M100,11.7c-0.6,0.3-1,0.8-1.4,1.4
			c-0.3,0.6-0.5,1.3-0.5,2.1c0,0.8,0.2,1.5,0.5,2.1c0.3,0.6,0.8,1.1,1.4,1.4c0.6,0.3,1.3,0.5,2,0.5c0.7,0,1.4-0.2,2-0.5
			c0.6-0.3,1-0.8,1.4-1.4c0.3-0.6,0.5-1.3,0.5-2.1c0-0.8-0.2-1.5-0.5-2.1c-0.3-0.6-0.8-1.1-1.4-1.4c-0.6-0.3-1.3-0.5-2-0.5
			C101.3,11.2,100.6,11.4,100,11.7z M103.2,4.7l2.1,0.9l-2.7,2.1l-1.7-0.2L103.2,4.7z"/>
		<path class="st0" d="M116.4,20.3c-0.9,0.6-1.8,0.8-2.7,0.8c-0.9,0-1.7-0.3-2.2-0.8c-0.6-0.5-0.8-1.4-0.8-2.5v-6.4H109V9.9h1.6V6.8
			h2v3.1h3.5v1.5h-3.5v6c0,0.6,0.1,1.1,0.3,1.4c0.2,0.3,0.6,0.4,1,0.4c0.6,0,1.1-0.2,1.8-0.5L116.4,20.3z"/>
		<path class="st0" d="M120.3,5.3c0.2,0.2,0.4,0.6,0.4,0.9c0,0.4-0.1,0.7-0.4,0.9c-0.2,0.2-0.5,0.4-0.9,0.4c-0.4,0-0.7-0.1-0.9-0.4
			c-0.2-0.2-0.4-0.6-0.4-0.9c0-0.4,0.1-0.7,0.4-0.9c0.2-0.2,0.5-0.4,0.9-0.4C119.8,4.9,120.1,5.1,120.3,5.3z M118.4,9.5h2V21h-2V9.5
			z"/>
		<path class="st0" d="M128.8,11.3c-0.8,0-1.4,0.2-2,0.5c-0.6,0.3-1,0.8-1.4,1.4c-0.3,0.6-0.5,1.3-0.5,2.1c0,0.8,0.2,1.5,0.5,2.1
			c0.3,0.6,0.8,1.1,1.3,1.4c0.6,0.3,1.2,0.5,2,0.5c0.7,0,1.4-0.1,2-0.4c0.6-0.2,1.1-0.6,1.5-1.1l1.2,1.2c-0.5,0.7-1.2,1.2-2,1.5
			c-0.8,0.3-1.7,0.5-2.7,0.5c-1.1,0-2.1-0.2-3-0.7c-0.9-0.5-1.5-1.2-2-2.1c-0.5-0.9-0.7-1.9-0.7-3c0-1.1,0.2-2.1,0.7-3
			c0.5-0.9,1.2-1.6,2-2.1c0.9-0.5,1.9-0.7,3-0.7c1,0,1.8,0.1,2.6,0.4c0.8,0.3,1.4,0.7,1.9,1.3l-1.1,1.4
			C131.2,11.7,130.1,11.3,128.8,11.3z"/>
		<path class="st0" d="M143.6,10.2c0.9,0.5,1.6,1.2,2.1,2.1c0.5,0.9,0.8,1.9,0.8,3s-0.3,2.1-0.8,3c-0.5,0.9-1.2,1.6-2.1,2.1
			c-0.9,0.5-1.9,0.7-3.1,0.7c-1.2,0-2.2-0.2-3.1-0.7c-0.9-0.5-1.6-1.2-2.1-2.1c-0.5-0.9-0.8-1.9-0.8-3c0-1.1,0.2-2.1,0.8-3
			c0.5-0.9,1.2-1.6,2.1-2.1c0.9-0.5,1.9-0.7,3.1-0.7C141.7,9.5,142.7,9.7,143.6,10.2z M138.5,11.7c-0.6,0.3-1,0.8-1.4,1.4
			c-0.3,0.6-0.5,1.3-0.5,2.1c0,0.8,0.2,1.5,0.5,2.1c0.3,0.6,0.8,1.1,1.4,1.4c0.6,0.3,1.3,0.5,2,0.5c0.7,0,1.4-0.2,2-0.5
			c0.6-0.3,1-0.8,1.4-1.4c0.3-0.6,0.5-1.3,0.5-2.1c0-0.8-0.2-1.5-0.5-2.1c-0.3-0.6-0.8-1.1-1.4-1.4c-0.6-0.3-1.3-0.5-2-0.5
			C139.7,11.2,139.1,11.4,138.5,11.7z"/>
		<path class="st0" d="M153.8,11.4c-0.6-0.2-1.1-0.3-1.6-0.3c-0.6,0-1.1,0.1-1.5,0.3c-0.4,0.2-0.6,0.6-0.6,1c0,0.5,0.2,0.8,0.6,1.1
			c0.4,0.2,1,0.5,1.9,0.7c0.8,0.2,1.5,0.5,2,0.7c0.5,0.2,0.9,0.6,1.3,1c0.4,0.4,0.5,1,0.5,1.8c0,1.1-0.4,1.9-1.2,2.5
			c-0.8,0.6-1.8,0.8-3.1,0.8c-0.9,0-1.7-0.1-2.5-0.4c-0.8-0.3-1.5-0.7-2-1.2l0.8-1.5c0.5,0.4,1.1,0.8,1.8,1c0.7,0.3,1.4,0.4,2.1,0.4
			c0.7,0,1.2-0.1,1.6-0.4c0.4-0.2,0.6-0.6,0.6-1.1c0-0.5-0.2-0.9-0.6-1.2c-0.4-0.3-1.1-0.5-1.9-0.8c-0.8-0.2-1.4-0.4-1.9-0.7
			c-0.5-0.2-0.9-0.6-1.2-1c-0.3-0.4-0.5-1-0.5-1.7c0-1.1,0.4-1.9,1.2-2.4c0.8-0.5,1.8-0.8,2.9-0.8c0.7,0,1.4,0.1,2.1,0.3
			c0.7,0.2,1.3,0.5,1.8,0.8l-0.7,1.5C154.9,11.8,154.3,11.6,153.8,11.4z"/>
		<path class="st0" d="M169.5,11.4c-0.6-0.2-1.1-0.3-1.6-0.3c-0.6,0-1.1,0.1-1.5,0.3c-0.4,0.2-0.6,0.6-0.6,1c0,0.5,0.2,0.8,0.6,1.1
			c0.4,0.2,1,0.5,1.9,0.7c0.8,0.2,1.5,0.5,2,0.7c0.5,0.2,0.9,0.6,1.3,1c0.4,0.4,0.5,1,0.5,1.8c0,1.1-0.4,1.9-1.2,2.5
			c-0.8,0.6-1.8,0.8-3.1,0.8c-0.9,0-1.7-0.1-2.5-0.4c-0.8-0.3-1.5-0.7-2-1.2L164,18c0.5,0.4,1.1,0.8,1.8,1c0.7,0.3,1.4,0.4,2.1,0.4
			c0.7,0,1.2-0.1,1.6-0.4c0.4-0.2,0.6-0.6,0.6-1.1c0-0.5-0.2-0.9-0.6-1.2c-0.4-0.3-1.1-0.5-1.9-0.8c-0.8-0.2-1.4-0.4-1.9-0.7
			c-0.5-0.2-0.9-0.6-1.2-1c-0.3-0.4-0.5-1-0.5-1.7c0-1.1,0.4-1.9,1.2-2.4c0.8-0.5,1.8-0.8,2.9-0.8c0.7,0,1.4,0.1,2.1,0.3
			c0.7,0.2,1.3,0.5,1.8,0.8l-0.7,1.5C170.6,11.8,170.1,11.6,169.5,11.4z"/>
		<path class="st0" d="M182.5,10.2c0.9,0.5,1.6,1.2,2.1,2.1c0.5,0.9,0.8,1.9,0.8,3s-0.3,2.1-0.8,3c-0.5,0.9-1.2,1.6-2.1,2.1
			c-0.9,0.5-1.9,0.7-3.1,0.7c-1.2,0-2.2-0.2-3.1-0.7c-0.9-0.5-1.6-1.2-2.1-2.1c-0.5-0.9-0.8-1.9-0.8-3c0-1.1,0.2-2.1,0.8-3
			c0.5-0.9,1.2-1.6,2.1-2.1c0.9-0.5,1.9-0.7,3.1-0.7C180.6,9.5,181.7,9.7,182.5,10.2z M177.5,11.7c-0.6,0.3-1,0.8-1.4,1.4
			c-0.3,0.6-0.5,1.3-0.5,2.1c0,0.8,0.2,1.5,0.5,2.1c0.3,0.6,0.8,1.1,1.4,1.4c0.6,0.3,1.3,0.5,2,0.5c0.7,0,1.4-0.2,2-0.5
			c0.6-0.3,1-0.8,1.4-1.4c0.3-0.6,0.5-1.3,0.5-2.1c0-0.8-0.2-1.5-0.5-2.1c-0.3-0.6-0.8-1.1-1.4-1.4c-0.6-0.3-1.3-0.5-2-0.5
			C178.7,11.2,178.1,11.4,177.5,11.7z"/>
		<path class="st0" d="M197.5,10.6c0.8,0.8,1.2,1.9,1.2,3.3V21h-2v-6.6c0-1-0.3-1.7-0.8-2.3c-0.5-0.5-1.3-0.8-2.3-0.8
			c-1,0-1.9,0.3-2.5,1c-0.6,0.6-1,1.5-1.1,2.5V21h-2V9.5h2V12c0.8-1.6,2.2-2.5,4.4-2.5C195.6,9.5,196.7,9.9,197.5,10.6z"/>
		<path class="st0" d="M215,21v-1.6c-0.9,1.1-2.2,1.7-4,1.7c-0.8,0-1.5-0.2-2.1-0.5c-0.6-0.3-1.1-0.7-1.4-1.3
			c-0.3-0.5-0.5-1.1-0.5-1.8c0-1,0.4-1.8,1.1-2.4c0.8-0.6,1.8-0.9,3.2-0.9h3.7v-0.5c0-0.8-0.3-1.4-0.8-1.9c-0.5-0.4-1.2-0.7-2.2-0.7
			c-1.2,0-2.3,0.4-3.5,1.2l-0.8-1.4c0.8-0.5,1.6-0.9,2.3-1.2c0.7-0.2,1.5-0.4,2.5-0.4c1.4,0,2.5,0.4,3.3,1.1
			c0.8,0.7,1.2,1.7,1.2,2.9l0,7.6H215z M213.8,18.8c0.7-0.5,1.1-1.1,1.2-1.8v-1.2h-3.4c-0.9,0-1.6,0.1-2,0.4
			c-0.4,0.3-0.7,0.7-0.7,1.3c0,0.6,0.2,1.1,0.7,1.4c0.4,0.3,1.1,0.5,1.8,0.5C212.3,19.5,213.1,19.2,213.8,18.8z"/>
		<path class="st0" d="M230.4,9.5V21h-2v-2.4c-0.8,1.6-2.2,2.5-4.3,2.5c-1.3,0-2.4-0.4-3.1-1.2c-0.8-0.8-1.1-1.9-1.1-3.3V9.5h2v6.6
			c0,1,0.3,1.7,0.8,2.3c0.5,0.5,1.3,0.8,2.2,0.8c1.1,0,1.9-0.4,2.6-1.1c0.6-0.7,0.9-1.7,0.9-2.9V9.5H230.4z"/>
		<path class="st0" d="M232.7,9.5h2.4l2.9,4.2l2.9-4.2h2.2l-3.8,5.6l4.1,5.9h-2.4l-3-4.5l-3.2,4.5h-2.3l4.1-5.9L232.7,9.5z"/>
		<path class="st0" d="M247.2,5.3c0.2,0.2,0.4,0.6,0.4,0.9c0,0.4-0.1,0.7-0.4,0.9c-0.2,0.2-0.5,0.4-0.9,0.4c-0.4,0-0.7-0.1-0.9-0.4
			c-0.2-0.2-0.4-0.6-0.4-0.9c0-0.4,0.1-0.7,0.4-0.9c0.2-0.2,0.5-0.4,0.9-0.4C246.7,4.9,247,5.1,247.2,5.3z M245.3,9.5h2V21h-2V9.5z"
			/>
		<path class="st0" d="M250.8,4.9h2V21h-2V4.9z"/>
		<path class="st0" d="M258.2,5.3c0.2,0.2,0.4,0.6,0.4,0.9c0,0.4-0.1,0.7-0.4,0.9c-0.2,0.2-0.5,0.4-0.9,0.4s-0.7-0.1-0.9-0.4
			c-0.2-0.2-0.4-0.6-0.4-0.9c0-0.4,0.1-0.7,0.4-0.9c0.2-0.2,0.5-0.4,0.9-0.4S257.9,5.1,258.2,5.3z M256.3,9.5h2V21h-2V9.5z"/>
		<path class="st0" d="M268.8,21v-1.6c-0.9,1.1-2.2,1.7-4,1.7c-0.8,0-1.5-0.2-2.1-0.5c-0.6-0.3-1.1-0.7-1.4-1.3
			c-0.3-0.5-0.5-1.1-0.5-1.8c0-1,0.4-1.8,1.1-2.4c0.8-0.6,1.8-0.9,3.2-0.9h3.7v-0.5c0-0.8-0.3-1.4-0.8-1.9c-0.5-0.4-1.2-0.7-2.2-0.7
			c-1.2,0-2.3,0.4-3.5,1.2l-0.8-1.4c0.8-0.5,1.6-0.9,2.3-1.2c0.7-0.2,1.5-0.4,2.5-0.4c1.4,0,2.5,0.4,3.3,1.1
			c0.8,0.7,1.2,1.7,1.2,2.9l0,7.6H268.8z M267.6,18.8c0.7-0.5,1.1-1.1,1.2-1.8v-1.2h-3.4c-0.9,0-1.6,0.1-2,0.4
			c-0.4,0.3-0.7,0.7-0.7,1.3c0,0.6,0.2,1.1,0.7,1.4c0.4,0.3,1.1,0.5,1.8,0.5C266.1,19.5,266.9,19.2,267.6,18.8z"/>
		<path class="st0" d="M277.6,10.1c0.7-0.4,1.5-0.6,2.5-0.7v2c-1.2,0-2.1,0.3-2.9,0.9c-0.7,0.7-1.1,1.5-1.2,2.6V21h-2V9.5h2V12
			C276.3,11.2,276.9,10.6,277.6,10.1z"/>
		<path class="st0" d="M290.6,11c0.9,1.1,1.4,2.5,1.4,4.4c0,0.3,0,0.5,0,0.7h-9.1c0.2,1,0.6,1.9,1.3,2.5c0.7,0.6,1.6,0.9,2.6,0.9
			c0.7,0,1.3-0.1,1.9-0.4c0.6-0.2,1.1-0.6,1.5-1l1.1,1.2c-0.6,0.6-1.2,1.1-2,1.4c-0.8,0.3-1.7,0.5-2.7,0.5c-1.1,0-2.1-0.2-3-0.7
			c-0.9-0.5-1.6-1.2-2-2.1c-0.5-0.9-0.7-1.9-0.7-3c0-1.1,0.2-2.1,0.7-3c0.5-0.9,1.2-1.6,2-2.1c0.9-0.5,1.9-0.8,3-0.8
			C288.4,9.5,289.7,10,290.6,11z M290.2,14.5c-0.1-1-0.4-1.9-1-2.5c-0.6-0.6-1.5-0.9-2.5-0.9c-1,0-1.9,0.3-2.5,0.9s-1.1,1.4-1.2,2.5
			H290.2z"/>
		<path class="st0" d="M299.3,11.4c-0.6-0.2-1.1-0.3-1.6-0.3c-0.6,0-1.1,0.1-1.5,0.3c-0.4,0.2-0.6,0.6-0.6,1c0,0.5,0.2,0.8,0.6,1.1
			c0.4,0.2,1,0.5,1.9,0.7c0.8,0.2,1.5,0.5,2,0.7c0.5,0.2,0.9,0.6,1.3,1c0.4,0.4,0.5,1,0.5,1.8c0,1.1-0.4,1.9-1.2,2.5
			c-0.8,0.6-1.8,0.8-3.1,0.8c-0.9,0-1.7-0.1-2.5-0.4c-0.8-0.3-1.5-0.7-2-1.2l0.8-1.5c0.5,0.4,1.1,0.8,1.8,1c0.7,0.3,1.4,0.4,2.1,0.4
			c0.7,0,1.2-0.1,1.6-0.4c0.4-0.2,0.6-0.6,0.6-1.1c0-0.5-0.2-0.9-0.6-1.2c-0.4-0.3-1.1-0.5-1.9-0.8c-0.8-0.2-1.4-0.4-1.9-0.7
			c-0.5-0.2-0.9-0.6-1.2-1c-0.3-0.4-0.5-1-0.5-1.7c0-1.1,0.4-1.9,1.2-2.4c0.8-0.5,1.8-0.8,2.9-0.8c0.7,0,1.4,0.1,2.1,0.3
			c0.7,0.2,1.3,0.5,1.8,0.8l-0.7,1.5C300.4,11.8,299.9,11.6,299.3,11.4z"/>
		<path class="st0" d="M319,11c0.9,1.1,1.4,2.5,1.4,4.4c0,0.3,0,0.5,0,0.7h-9.1c0.2,1,0.6,1.9,1.3,2.5c0.7,0.6,1.6,0.9,2.6,0.9
			c0.7,0,1.3-0.1,1.9-0.4c0.6-0.2,1.1-0.6,1.5-1l1.1,1.2c-0.6,0.6-1.2,1.1-2,1.4c-0.8,0.3-1.7,0.5-2.7,0.5c-1.1,0-2.1-0.2-3-0.7
			c-0.9-0.5-1.6-1.2-2-2.1c-0.5-0.9-0.7-1.9-0.7-3c0-1.1,0.2-2.1,0.7-3c0.5-0.9,1.2-1.6,2-2.1c0.9-0.5,1.9-0.8,3-0.8
			C316.7,9.5,318.1,10,319,11z M318.5,14.5c-0.1-1-0.4-1.9-1-2.5c-0.6-0.6-1.5-0.9-2.5-0.9c-1,0-1.9,0.3-2.5,0.9s-1.1,1.4-1.2,2.5
			H318.5z"/>
		<path class="st0" d="M332.4,10.6c0.8,0.8,1.2,1.9,1.2,3.3V21h-2v-6.6c0-1-0.3-1.7-0.8-2.3c-0.5-0.5-1.3-0.8-2.3-0.8
			c-1,0-1.9,0.3-2.5,1c-0.6,0.6-1,1.5-1.1,2.5V21h-2V9.5h2V12c0.8-1.6,2.2-2.5,4.4-2.5C330.6,9.5,331.6,9.9,332.4,10.6z"/>
		<path class="st0" d="M343,4.9h2V21h-2V4.9z"/>
		<path class="st0" d="M355.6,21v-1.6c-0.9,1.1-2.2,1.7-4,1.7c-0.8,0-1.5-0.2-2.1-0.5c-0.6-0.3-1.1-0.7-1.4-1.3
			c-0.3-0.5-0.5-1.1-0.5-1.8c0-1,0.4-1.8,1.1-2.4c0.8-0.6,1.8-0.9,3.2-0.9h3.7v-0.5c0-0.8-0.3-1.4-0.8-1.9c-0.5-0.4-1.2-0.7-2.2-0.7
			c-1.2,0-2.3,0.4-3.5,1.2l-0.8-1.4c0.8-0.5,1.6-0.9,2.3-1.2c0.7-0.2,1.5-0.4,2.5-0.4c1.4,0,2.5,0.4,3.3,1.1
			c0.8,0.7,1.2,1.7,1.2,2.9l0,7.6H355.6z M354.4,18.8c0.7-0.5,1.1-1.1,1.2-1.8v-1.2h-3.4c-0.9,0-1.6,0.1-2,0.4
			c-0.4,0.3-0.7,0.7-0.7,1.3c0,0.6,0.2,1.1,0.7,1.4c0.4,0.3,1.1,0.5,1.8,0.5C353,19.5,353.8,19.2,354.4,18.8z"/>
		<path class="st0" d="M376.2,10.2c0.8,0.5,1.5,1.2,2,2.1c0.5,0.9,0.7,1.9,0.7,3c0,1.1-0.2,2.1-0.7,3c-0.5,0.9-1.1,1.6-1.9,2
			c-0.8,0.5-1.8,0.7-2.9,0.7c-1,0-1.8-0.2-2.6-0.6c-0.7-0.4-1.3-1-1.7-1.7v6.5h-2V9.5h2v2.3c0.4-0.8,1-1.3,1.7-1.7
			c0.7-0.4,1.6-0.6,2.5-0.6C374.4,9.5,375.4,9.7,376.2,10.2z M375,18.8c0.6-0.3,1-0.8,1.4-1.5c0.3-0.6,0.5-1.3,0.5-2.1
			c0-0.8-0.2-1.5-0.5-2.1c-0.3-0.6-0.8-1.1-1.4-1.5c-0.6-0.3-1.2-0.5-2-0.5c-0.7,0-1.4,0.2-2,0.5c-0.6,0.3-1,0.8-1.4,1.5
			c-0.3,0.6-0.5,1.3-0.5,2.1c0,0.8,0.2,1.5,0.5,2.1c0.3,0.6,0.8,1.1,1.4,1.4c0.6,0.3,1.3,0.5,2,0.5C373.7,19.3,374.4,19.2,375,18.8z
			"/>
		<path class="st0" d="M385,10.1c0.7-0.4,1.5-0.6,2.5-0.7v2c-1.2,0-2.1,0.3-2.9,0.9c-0.7,0.7-1.1,1.5-1.2,2.6V21h-2V9.5h2V12
			C383.8,11.2,384.3,10.6,385,10.1z"/>
		<path class="st0" d="M398.1,11c0.9,1.1,1.4,2.5,1.4,4.4c0,0.3,0,0.5,0,0.7h-9.1c0.2,1,0.6,1.9,1.3,2.5c0.7,0.6,1.6,0.9,2.6,0.9
			c0.7,0,1.3-0.1,1.9-0.4c0.6-0.2,1.1-0.6,1.5-1l1.1,1.2c-0.6,0.6-1.2,1.1-2,1.4c-0.8,0.3-1.7,0.5-2.7,0.5c-1.1,0-2.1-0.2-3-0.7
			c-0.9-0.5-1.6-1.2-2-2.1c-0.5-0.9-0.7-1.9-0.7-3c0-1.1,0.2-2.1,0.7-3c0.5-0.9,1.2-1.6,2-2.1c0.9-0.5,1.9-0.8,3-0.8
			C395.8,9.5,397.1,10,398.1,11z M397.6,14.5c-0.1-1-0.4-1.9-1-2.5c-0.6-0.6-1.5-0.9-2.5-0.9c-1,0-1.9,0.3-2.5,0.9
			c-0.7,0.6-1.1,1.4-1.2,2.5H397.6z"/>
		<path class="st0" d="M399.9,9.5h2.2l3.5,9.5l3.4-9.5h2L406.5,21h-2.1L399.9,9.5z"/>
		<path class="st0" d="M421.2,11c0.9,1.1,1.4,2.5,1.4,4.4c0,0.3,0,0.5,0,0.7h-9.1c0.2,1,0.6,1.9,1.3,2.5c0.7,0.6,1.6,0.9,2.6,0.9
			c0.7,0,1.3-0.1,1.9-0.4c0.6-0.2,1.1-0.6,1.5-1l1.1,1.2c-0.6,0.6-1.2,1.1-2,1.4c-0.8,0.3-1.7,0.5-2.7,0.5c-1.1,0-2.1-0.2-3-0.7
			c-0.9-0.5-1.6-1.2-2-2.1c-0.5-0.9-0.7-1.9-0.7-3c0-1.1,0.2-2.1,0.7-3c0.5-0.9,1.2-1.6,2-2.1c0.9-0.5,1.9-0.8,3-0.8
			C418.9,9.5,420.3,10,421.2,11z M420.7,14.5c-0.1-1-0.4-1.9-1-2.5c-0.6-0.6-1.5-0.9-2.5-0.9c-1,0-1.9,0.3-2.5,0.9s-1.1,1.4-1.2,2.5
			H420.7z"/>
		<path class="st0" d="M434.6,10.6c0.8,0.8,1.2,1.9,1.2,3.3V21h-2v-6.6c0-1-0.3-1.7-0.8-2.3c-0.5-0.5-1.3-0.8-2.3-0.8
			c-1,0-1.9,0.3-2.5,1c-0.6,0.6-1,1.5-1.1,2.5V21h-2V9.5h2V12c0.8-1.6,2.2-2.5,4.4-2.5C432.7,9.5,433.8,9.9,434.6,10.6z"/>
		<path class="st0" d="M443.9,11.3c-0.8,0-1.4,0.2-2,0.5c-0.6,0.3-1,0.8-1.4,1.4c-0.3,0.6-0.5,1.3-0.5,2.1c0,0.8,0.2,1.5,0.5,2.1
			c0.3,0.6,0.8,1.1,1.3,1.4c0.6,0.3,1.2,0.5,2,0.5c0.7,0,1.4-0.1,2-0.4c0.6-0.2,1.1-0.6,1.5-1.1l1.2,1.2c-0.5,0.7-1.2,1.2-2,1.5
			c-0.8,0.3-1.7,0.5-2.7,0.5c-1.1,0-2.1-0.2-3-0.7c-0.9-0.5-1.5-1.2-2-2.1c-0.5-0.9-0.7-1.9-0.7-3c0-1.1,0.2-2.1,0.7-3
			c0.5-0.9,1.2-1.6,2-2.1c0.9-0.5,1.9-0.7,3-0.7c1,0,1.8,0.1,2.6,0.4c0.8,0.3,1.4,0.7,1.9,1.3l-1.1,1.4
			C446.3,11.7,445.2,11.3,443.9,11.3z"/>
		<path class="st0" d="M452.6,5.3c0.2,0.2,0.4,0.6,0.4,0.9c0,0.4-0.1,0.7-0.4,0.9c-0.2,0.2-0.5,0.4-0.9,0.4c-0.4,0-0.7-0.1-0.9-0.4
			c-0.2-0.2-0.4-0.6-0.4-0.9c0-0.4,0.1-0.7,0.4-0.9c0.2-0.2,0.5-0.4,0.9-0.4C452.1,4.9,452.4,5.1,452.6,5.3z M450.7,9.5h2V21h-2V9.5
			z"/>
		<path class="st0" d="M464.2,10.2c0.9,0.5,1.6,1.2,2.1,2.1c0.5,0.9,0.8,1.9,0.8,3s-0.3,2.1-0.8,3c-0.5,0.9-1.2,1.6-2.1,2.1
			c-0.9,0.5-1.9,0.7-3.1,0.7c-1.2,0-2.2-0.2-3.1-0.7c-0.9-0.5-1.6-1.2-2.1-2.1c-0.5-0.9-0.8-1.9-0.8-3c0-1.1,0.2-2.1,0.8-3
			c0.5-0.9,1.2-1.6,2.1-2.1c0.9-0.5,1.9-0.7,3.1-0.7C462.3,9.5,463.3,9.7,464.2,10.2z M459.1,11.7c-0.6,0.3-1,0.8-1.4,1.4
			c-0.3,0.6-0.5,1.3-0.5,2.1c0,0.8,0.2,1.5,0.5,2.1c0.3,0.6,0.8,1.1,1.4,1.4c0.6,0.3,1.3,0.5,2,0.5c0.7,0,1.4-0.2,2-0.5
			c0.6-0.3,1-0.8,1.4-1.4c0.3-0.6,0.5-1.3,0.5-2.1c0-0.8-0.2-1.5-0.5-2.1c-0.3-0.6-0.8-1.1-1.4-1.4c-0.6-0.3-1.3-0.5-2-0.5
			C460.4,11.2,459.7,11.4,459.1,11.7z M462.3,4.7l2.1,0.9l-2.7,2.1L460,7.5L462.3,4.7z"/>
		<path class="st0" d="M479.1,10.6c0.8,0.8,1.2,1.9,1.2,3.3V21h-2v-6.6c0-1-0.3-1.7-0.8-2.3c-0.5-0.5-1.3-0.8-2.3-0.8
			c-1,0-1.9,0.3-2.5,1c-0.6,0.6-1,1.5-1.1,2.5V21h-2V9.5h2V12c0.8-1.6,2.2-2.5,4.4-2.5C477.3,9.5,478.3,9.9,479.1,10.6z"/>
		<path class="st0" d="M492.2,24.7c-0.6,0.5-1.3,0.7-2.1,0.7c-0.5,0-0.9-0.1-1.3-0.2c-0.4-0.1-0.8-0.4-1.2-0.7l0.9-1.6
			c0.5,0.4,1,0.5,1.5,0.5c0.9,0,1.5-0.5,2-1.5l0.4-1l-4.8-11.4h2.1l3.7,9.2l3.5-9.2h2.1l-5.3,13.1C493.2,23.6,492.8,24.2,492.2,24.7
			z"/>
		<path class="st0" d="M14.8,38.5c0.9,1.1,1.4,2.5,1.4,4.4c0,0.3,0,0.5,0,0.7H7.1c0.2,1,0.6,1.9,1.3,2.5C9.1,46.6,9.9,47,11,47
			c0.7,0,1.3-0.1,1.9-0.4c0.6-0.2,1.1-0.6,1.5-1l1.1,1.2c-0.6,0.6-1.2,1.1-2,1.4c-0.8,0.3-1.7,0.5-2.7,0.5c-1.1,0-2.1-0.2-3-0.7
			c-0.9-0.5-1.6-1.2-2-2.1c-0.5-0.9-0.7-1.9-0.7-3c0-1.1,0.2-2.1,0.7-3c0.5-0.9,1.2-1.6,2-2.1c0.9-0.5,1.9-0.8,3-0.8
			C12.5,37,13.9,37.5,14.8,38.5z M14.4,42c-0.1-1-0.4-1.9-1-2.5c-0.6-0.6-1.5-0.9-2.5-0.9c-1,0-1.9,0.3-2.5,0.9
			C7.6,40.2,7.2,41,7,42H14.4z"/>
		<path class="st0" d="M18.7,32.4h2v16.2h-2V32.4z"/>
		<path class="st0" d="M48.5,38.2c0.8,0.8,1.1,1.9,1.1,3.3v7.1h-2V42c0-1-0.3-1.7-0.8-2.3c-0.5-0.6-1.3-0.8-2.2-0.8
			c-1.1,0-1.9,0.4-2.6,1.2c-0.6,0.7-0.9,1.7-0.9,2.9v5.7h-2V42c0-1-0.3-1.7-0.8-2.3c-0.5-0.6-1.3-0.8-2.2-0.8
			c-1.1,0-1.9,0.4-2.6,1.2c-0.6,0.7-0.9,1.7-0.9,2.9v5.7h-2V37h2v2.4c0.8-1.6,2.2-2.5,4.3-2.5c1.1,0,1.9,0.3,2.6,0.8
			c0.7,0.5,1.2,1.2,1.4,2.1c0.7-1.9,2.2-2.9,4.5-2.9C46.7,37,47.7,37.4,48.5,38.2z"/>
		<path class="st0" d="M59.9,48.5v-1.6c-0.9,1.1-2.2,1.7-4,1.7c-0.8,0-1.5-0.2-2.1-0.5c-0.6-0.3-1.1-0.7-1.4-1.3
			c-0.3-0.5-0.5-1.1-0.5-1.8c0-1,0.4-1.8,1.1-2.4c0.8-0.6,1.8-0.9,3.2-0.9h3.7v-0.5c0-0.8-0.3-1.4-0.8-1.9c-0.5-0.4-1.2-0.7-2.2-0.7
			c-1.2,0-2.3,0.4-3.5,1.2l-0.8-1.4c0.8-0.5,1.6-0.9,2.3-1.2c0.7-0.2,1.5-0.4,2.5-0.4c1.4,0,2.5,0.4,3.3,1.1
			c0.8,0.7,1.2,1.7,1.2,2.9l0,7.6H59.9z M58.7,46.3c0.7-0.5,1.1-1.1,1.2-1.8v-1.2h-3.4c-0.9,0-1.6,0.1-2,0.4
			C54,44,53.8,44.4,53.8,45c0,0.6,0.2,1.1,0.7,1.4c0.4,0.3,1.1,0.5,1.8,0.5C57.3,47,58.1,46.7,58.7,46.3z"/>
		<path class="st0" d="M74.7,38.1c0.8,0.8,1.2,1.9,1.2,3.3v7.1h-2V42c0-1-0.3-1.7-0.8-2.3c-0.5-0.5-1.3-0.8-2.3-0.8
			c-1,0-1.9,0.3-2.5,1c-0.6,0.6-1,1.5-1.1,2.5v6.2h-2V37h2v2.4c0.8-1.6,2.2-2.5,4.4-2.5C72.8,37,73.9,37.4,74.7,38.1z"/>
		<path class="st0" d="M87.9,38.5c0.9,1.1,1.4,2.5,1.4,4.4c0,0.3,0,0.5,0,0.7h-9.1c0.2,1,0.6,1.9,1.3,2.5C82.1,46.6,83,47,84,47
			c0.7,0,1.3-0.1,1.9-0.4c0.6-0.2,1.1-0.6,1.5-1l1.1,1.2c-0.6,0.6-1.2,1.1-2,1.4c-0.8,0.3-1.7,0.5-2.7,0.5c-1.1,0-2.1-0.2-3-0.7
			c-0.9-0.5-1.6-1.2-2-2.1c-0.5-0.9-0.7-1.9-0.7-3c0-1.1,0.2-2.1,0.7-3c0.5-0.9,1.2-1.6,2-2.1c0.9-0.5,1.9-0.8,3-0.8
			C85.6,37,87,37.5,87.9,38.5z M87.4,42c-0.1-1-0.4-1.9-1-2.5c-0.6-0.6-1.5-0.9-2.5-0.9c-1,0-1.9,0.3-2.5,0.9
			c-0.7,0.6-1.1,1.4-1.2,2.5H87.4z"/>
		<path class="st0" d="M89.9,51.1c0.6,0,1-0.2,1.3-0.6c0.3-0.4,0.4-1,0.4-1.7V37h2v12.1c0,1.2-0.3,2.1-0.9,2.8c-0.6,0.6-1.4,1-2.4,1
			c-0.7,0-1.3-0.1-2-0.4l0.5-1.5C89.2,51,89.6,51.1,89.9,51.1z M93.5,32.8c0.2,0.2,0.4,0.6,0.4,0.9c0,0.4-0.1,0.7-0.4,0.9
			C93.3,34.9,93,35,92.6,35s-0.7-0.1-0.9-0.4c-0.2-0.2-0.4-0.6-0.4-0.9c0-0.4,0.1-0.7,0.4-0.9c0.2-0.2,0.5-0.4,0.9-0.4
			S93.3,32.6,93.5,32.8z"/>
		<path class="st0" d="M105,37.7c0.9,0.5,1.6,1.2,2.1,2.1c0.5,0.9,0.8,1.9,0.8,3c0,1.1-0.3,2.1-0.8,3c-0.5,0.9-1.2,1.6-2.1,2.1
			c-0.9,0.5-1.9,0.7-3.1,0.7c-1.2,0-2.2-0.2-3.1-0.7c-0.9-0.5-1.6-1.2-2.1-2.1c-0.5-0.9-0.8-1.9-0.8-3c0-1.1,0.2-2.1,0.8-3
			c0.5-0.9,1.2-1.6,2.1-2.1c0.9-0.5,1.9-0.7,3.1-0.7C103.1,37,104.1,37.2,105,37.7z M99.9,39.2c-0.6,0.3-1,0.8-1.4,1.4
			c-0.3,0.6-0.5,1.3-0.5,2.1c0,0.8,0.2,1.5,0.5,2.1c0.3,0.6,0.8,1.1,1.4,1.4c0.6,0.3,1.3,0.5,2,0.5c0.7,0,1.4-0.2,2-0.5
			c0.6-0.3,1-0.8,1.4-1.4c0.3-0.6,0.5-1.3,0.5-2.1c0-0.8-0.2-1.5-0.5-2.1c-0.3-0.6-0.8-1.1-1.4-1.4c-0.6-0.3-1.3-0.5-2-0.5
			C101.2,38.7,100.5,38.9,99.9,39.2z"/>
		<path class="st0" d="M127.1,32.4v16.2h-2v-2.3c-0.4,0.8-1,1.4-1.8,1.8c-0.7,0.4-1.6,0.6-2.6,0.6c-1.1,0-2-0.2-2.9-0.8
			c-0.8-0.5-1.5-1.2-1.9-2.1c-0.5-0.9-0.7-1.9-0.7-3.1c0-1.1,0.2-2.1,0.7-3c0.5-0.9,1.1-1.6,1.9-2.1c0.8-0.5,1.8-0.7,2.9-0.7
			c1,0,1.9,0.2,2.6,0.6c0.7,0.4,1.3,1,1.7,1.8v-6.9H127.1z M123.2,46.4c0.6-0.3,1-0.8,1.4-1.5c0.3-0.6,0.5-1.3,0.5-2.1
			c0-0.8-0.2-1.5-0.5-2.1c-0.3-0.6-0.8-1.1-1.4-1.5c-0.6-0.3-1.3-0.5-2-0.5c-0.8,0-1.4,0.2-2,0.5c-0.6,0.4-1,0.8-1.4,1.5
			c-0.3,0.6-0.5,1.3-0.5,2.1c0,0.8,0.2,1.5,0.5,2.1c0.3,0.6,0.8,1.1,1.4,1.5c0.6,0.3,1.3,0.5,2,0.5
			C121.9,46.9,122.6,46.7,123.2,46.4z"/>
		<path class="st0" d="M139.5,38.5c0.9,1.1,1.4,2.5,1.4,4.4c0,0.3,0,0.5,0,0.7h-9.1c0.2,1,0.6,1.9,1.3,2.5c0.7,0.6,1.6,0.9,2.6,0.9
			c0.7,0,1.3-0.1,1.9-0.4c0.6-0.2,1.1-0.6,1.5-1l1.1,1.2c-0.6,0.6-1.2,1.1-2,1.4c-0.8,0.3-1.7,0.5-2.7,0.5c-1.1,0-2.1-0.2-3-0.7
			c-0.9-0.5-1.6-1.2-2-2.1c-0.5-0.9-0.7-1.9-0.7-3c0-1.1,0.2-2.1,0.7-3c0.5-0.9,1.2-1.6,2-2.1c0.9-0.5,1.9-0.8,3-0.8
			C137.2,37,138.6,37.5,139.5,38.5z M139,42c-0.1-1-0.4-1.9-1-2.5c-0.6-0.6-1.5-0.9-2.5-0.9c-1,0-1.9,0.3-2.5,0.9
			c-0.7,0.6-1.1,1.4-1.2,2.5H139z"/>
		<path class="st0" d="M158,38.5c0.9,1.1,1.4,2.5,1.4,4.4c0,0.3,0,0.5,0,0.7h-9.1c0.2,1,0.6,1.9,1.3,2.5c0.7,0.6,1.6,0.9,2.6,0.9
			c0.7,0,1.3-0.1,1.9-0.4c0.6-0.2,1.1-0.6,1.5-1l1.1,1.2c-0.6,0.6-1.2,1.1-2,1.4c-0.8,0.3-1.7,0.5-2.7,0.5c-1.1,0-2.1-0.2-3-0.7
			c-0.9-0.5-1.6-1.2-2-2.1c-0.5-0.9-0.7-1.9-0.7-3c0-1.1,0.2-2.1,0.7-3c0.5-0.9,1.2-1.6,2-2.1c0.9-0.5,1.9-0.8,3-0.8
			C155.7,37,157.1,37.5,158,38.5z M157.5,42c-0.1-1-0.4-1.9-1-2.5c-0.6-0.6-1.5-0.9-2.5-0.9c-1,0-1.9,0.3-2.5,0.9
			c-0.7,0.6-1.1,1.4-1.2,2.5H157.5z"/>
		<path class="st0" d="M171.4,38.1c0.8,0.8,1.2,1.9,1.2,3.3v7.1h-2V42c0-1-0.3-1.7-0.8-2.3c-0.5-0.5-1.3-0.8-2.3-0.8
			c-1,0-1.9,0.3-2.5,1c-0.6,0.6-1,1.5-1.1,2.5v6.2h-2V37h2v2.4c0.8-1.6,2.2-2.5,4.4-2.5C169.5,37,170.6,37.4,171.4,38.1z"/>
		<path class="st0" d="M178.5,34.5c-0.3,0.3-0.5,0.8-0.5,1.4v1.5h3.2V39H178v9.6h-2V39h-1.5v-1.5h1.5v-1.2c0-0.8,0.2-1.6,0.5-2.1
			c0.4-0.6,0.8-1,1.4-1.3c0.6-0.3,1.2-0.4,1.9-0.4c0.6,0,1.3,0.2,2,0.5l-0.5,1.7c-0.5-0.2-1-0.4-1.5-0.4
			C179.3,34.1,178.8,34.2,178.5,34.5z"/>
		<path class="st0" d="M191.5,38.5c0.9,1.1,1.4,2.5,1.4,4.4c0,0.3,0,0.5,0,0.7h-9.1c0.2,1,0.6,1.9,1.3,2.5c0.7,0.6,1.6,0.9,2.6,0.9
			c0.7,0,1.3-0.1,1.9-0.4c0.6-0.2,1.1-0.6,1.5-1l1.1,1.2c-0.6,0.6-1.2,1.1-2,1.4c-0.8,0.3-1.7,0.5-2.7,0.5c-1.1,0-2.1-0.2-3-0.7
			c-0.9-0.5-1.6-1.2-2-2.1c-0.5-0.9-0.7-1.9-0.7-3c0-1.1,0.2-2.1,0.7-3c0.5-0.9,1.2-1.6,2-2.1c0.9-0.5,1.9-0.8,3-0.8
			C189.3,37,190.6,37.5,191.5,38.5z M191.1,42c-0.1-1-0.4-1.9-1-2.5c-0.6-0.6-1.5-0.9-2.5-0.9c-1,0-1.9,0.3-2.5,0.9
			c-0.7,0.6-1.1,1.4-1.2,2.5H191.1z"/>
		<path class="st0" d="M199,37.6c0.7-0.4,1.5-0.6,2.5-0.7v2c-1.2,0-2.1,0.3-2.9,0.9c-0.7,0.7-1.1,1.5-1.2,2.6v6.1h-2V37h2v2.5
			C197.8,38.7,198.3,38.1,199,37.6z"/>
		<path class="st0" d="M221.3,38.2c0.8,0.8,1.1,1.9,1.1,3.3v7.1h-2V42c0-1-0.3-1.7-0.8-2.3c-0.5-0.6-1.3-0.8-2.2-0.8
			c-1.1,0-1.9,0.4-2.6,1.2c-0.6,0.7-0.9,1.7-0.9,2.9v5.7h-2V42c0-1-0.3-1.7-0.8-2.3c-0.5-0.6-1.3-0.8-2.2-0.8
			c-1.1,0-1.9,0.4-2.6,1.2c-0.6,0.7-0.9,1.7-0.9,2.9v5.7h-2V37h2v2.4c0.8-1.6,2.2-2.5,4.3-2.5c1.1,0,1.9,0.3,2.6,0.8
			c0.7,0.5,1.2,1.2,1.4,2.1c0.7-1.9,2.2-2.9,4.5-2.9C219.5,37,220.6,37.4,221.3,38.2z"/>
		<path class="st0" d="M234.5,38.5c0.9,1.1,1.4,2.5,1.4,4.4c0,0.3,0,0.5,0,0.7h-9.1c0.2,1,0.6,1.9,1.3,2.5c0.7,0.6,1.6,0.9,2.6,0.9
			c0.7,0,1.3-0.1,1.9-0.4c0.6-0.2,1.1-0.6,1.5-1l1.1,1.2c-0.6,0.6-1.2,1.1-2,1.4c-0.8,0.3-1.7,0.5-2.7,0.5c-1.1,0-2.1-0.2-3-0.7
			c-0.9-0.5-1.6-1.2-2-2.1c-0.5-0.9-0.7-1.9-0.7-3c0-1.1,0.2-2.1,0.7-3c0.5-0.9,1.2-1.6,2-2.1c0.9-0.5,1.9-0.8,3-0.8
			C232.3,37,233.6,37.5,234.5,38.5z M234.1,42c-0.1-1-0.4-1.9-1-2.5c-0.6-0.6-1.5-0.9-2.5-0.9c-1,0-1.9,0.3-2.5,0.9
			c-0.7,0.6-1.1,1.4-1.2,2.5H234.1z"/>
		<path class="st0" d="M249.4,32.4v16.2h-2v-2.3c-0.4,0.8-1,1.4-1.8,1.8c-0.7,0.4-1.6,0.6-2.6,0.6c-1.1,0-2-0.2-2.9-0.8
			c-0.8-0.5-1.5-1.2-1.9-2.1c-0.5-0.9-0.7-1.9-0.7-3.1c0-1.1,0.2-2.1,0.7-3c0.5-0.9,1.1-1.6,1.9-2.1c0.8-0.5,1.8-0.7,2.9-0.7
			c1,0,1.9,0.2,2.6,0.6c0.7,0.4,1.3,1,1.7,1.8v-6.9H249.4z M245.5,46.4c0.6-0.3,1-0.8,1.4-1.5c0.3-0.6,0.5-1.3,0.5-2.1
			c0-0.8-0.2-1.5-0.5-2.1c-0.3-0.6-0.8-1.1-1.4-1.5c-0.6-0.3-1.3-0.5-2-0.5c-0.8,0-1.4,0.2-2,0.5c-0.6,0.4-1,0.8-1.4,1.5
			c-0.3,0.6-0.5,1.3-0.5,2.1c0,0.8,0.2,1.5,0.5,2.1c0.3,0.6,0.8,1.1,1.4,1.5c0.6,0.3,1.3,0.5,2,0.5
			C244.2,46.9,244.9,46.7,245.5,46.4z"/>
		<path class="st0" d="M260,48.5v-1.6c-0.9,1.1-2.2,1.7-4,1.7c-0.8,0-1.5-0.2-2.1-0.5c-0.6-0.3-1.1-0.7-1.4-1.3
			c-0.3-0.5-0.5-1.1-0.5-1.8c0-1,0.4-1.8,1.1-2.4c0.8-0.6,1.8-0.9,3.2-0.9h3.7v-0.5c0-0.8-0.3-1.4-0.8-1.9c-0.5-0.4-1.2-0.7-2.2-0.7
			c-1.2,0-2.3,0.4-3.5,1.2l-0.8-1.4c0.8-0.5,1.6-0.9,2.3-1.2c0.7-0.2,1.5-0.4,2.5-0.4c1.4,0,2.5,0.4,3.3,1.1
			c0.8,0.7,1.2,1.7,1.2,2.9l0,7.6H260z M258.8,46.3c0.7-0.5,1.1-1.1,1.2-1.8v-1.2h-3.4c-0.9,0-1.6,0.1-2,0.4
			c-0.4,0.3-0.7,0.7-0.7,1.3c0,0.6,0.2,1.1,0.7,1.4c0.4,0.3,1.1,0.5,1.8,0.5C257.3,47,258.1,46.7,258.8,46.3z"/>
		<path class="st0" d="M276.1,32.4v16.2h-2v-2.3c-0.4,0.8-1,1.4-1.8,1.8c-0.7,0.4-1.6,0.6-2.6,0.6c-1.1,0-2-0.2-2.9-0.8
			c-0.8-0.5-1.5-1.2-1.9-2.1c-0.5-0.9-0.7-1.9-0.7-3.1c0-1.1,0.2-2.1,0.7-3c0.5-0.9,1.1-1.6,1.9-2.1c0.8-0.5,1.8-0.7,2.9-0.7
			c1,0,1.9,0.2,2.6,0.6c0.7,0.4,1.3,1,1.7,1.8v-6.9H276.1z M272.2,46.4c0.6-0.3,1-0.8,1.4-1.5c0.3-0.6,0.5-1.3,0.5-2.1
			c0-0.8-0.2-1.5-0.5-2.1c-0.3-0.6-0.8-1.1-1.4-1.5c-0.6-0.3-1.3-0.5-2-0.5c-0.8,0-1.4,0.2-2,0.5c-0.6,0.4-1,0.8-1.4,1.5
			c-0.3,0.6-0.5,1.3-0.5,2.1c0,0.8,0.2,1.5,0.5,2.1c0.3,0.6,0.8,1.1,1.4,1.5c0.6,0.3,1.3,0.5,2,0.5
			C270.9,46.9,271.6,46.7,272.2,46.4z"/>
		<path class="st0" d="M288.5,38.5c0.9,1.1,1.4,2.5,1.4,4.4c0,0.3,0,0.5,0,0.7h-9.1c0.2,1,0.6,1.9,1.3,2.5c0.7,0.6,1.6,0.9,2.6,0.9
			c0.7,0,1.3-0.1,1.9-0.4c0.6-0.2,1.1-0.6,1.5-1l1.1,1.2c-0.6,0.6-1.2,1.1-2,1.4c-0.8,0.3-1.7,0.5-2.7,0.5c-1.1,0-2.1-0.2-3-0.7
			c-0.9-0.5-1.6-1.2-2-2.1c-0.5-0.9-0.7-1.9-0.7-3c0-1.1,0.2-2.1,0.7-3c0.5-0.9,1.2-1.6,2-2.1c0.9-0.5,1.9-0.8,3-0.8
			C286.2,37,287.6,37.5,288.5,38.5z M288,42c-0.1-1-0.4-1.9-1-2.5c-0.6-0.6-1.5-0.9-2.5-0.9c-1,0-1.9,0.3-2.5,0.9
			c-0.7,0.6-1.1,1.4-1.2,2.5H288z"/>
		<path class="st0" d="M297.2,38.9c-0.6-0.2-1.1-0.3-1.6-0.3c-0.6,0-1.1,0.1-1.5,0.3c-0.4,0.2-0.6,0.6-0.6,1c0,0.5,0.2,0.8,0.6,1.1
			c0.4,0.2,1,0.5,1.9,0.7c0.8,0.2,1.5,0.5,2,0.7c0.5,0.2,0.9,0.6,1.3,1c0.4,0.4,0.5,1,0.5,1.8c0,1.1-0.4,1.9-1.2,2.5
			c-0.8,0.6-1.8,0.8-3.1,0.8c-0.9,0-1.7-0.1-2.5-0.4c-0.8-0.3-1.5-0.7-2-1.2l0.8-1.5c0.5,0.4,1.1,0.8,1.8,1c0.7,0.3,1.4,0.4,2.1,0.4
			c0.7,0,1.2-0.1,1.6-0.4c0.4-0.2,0.6-0.6,0.6-1.1c0-0.5-0.2-0.9-0.6-1.2c-0.4-0.3-1.1-0.5-1.9-0.8c-0.8-0.2-1.4-0.4-1.9-0.7
			c-0.5-0.2-0.9-0.6-1.2-1c-0.3-0.4-0.5-1-0.5-1.7c0-1.1,0.4-1.9,1.2-2.4c0.8-0.5,1.8-0.8,2.9-0.8c0.7,0,1.4,0.1,2.1,0.3
			c0.7,0.2,1.3,0.5,1.8,0.8l-0.7,1.5C298.3,39.3,297.8,39.1,297.2,38.9z"/>
		<path class="st0" d="M318.4,37v10.3c0,1.1-0.2,2.1-0.7,2.9c-0.5,0.8-1.2,1.5-2.1,1.9c-0.9,0.4-1.9,0.7-3.1,0.7
			c-1.7,0-3.3-0.5-4.7-1.6l0.9-1.5c0.6,0.5,1.2,0.8,1.8,1c0.6,0.2,1.3,0.3,2,0.3c1.2,0,2.1-0.3,2.9-1c0.7-0.7,1.1-1.6,1.1-2.7v-1.6
			c-0.4,0.7-1,1.2-1.7,1.6c-0.7,0.4-1.5,0.6-2.4,0.6c-1,0-1.9-0.2-2.7-0.7c-0.8-0.5-1.4-1.1-1.8-2c-0.4-0.8-0.7-1.8-0.7-2.9
			c0-1.1,0.2-2,0.7-2.9c0.4-0.8,1-1.5,1.8-1.9c0.8-0.5,1.7-0.7,2.7-0.7c0.9,0,1.7,0.2,2.4,0.6c0.7,0.4,1.2,0.9,1.6,1.6V37H318.4z
			 M314.6,45.9c0.6-0.3,1-0.8,1.3-1.4c0.3-0.6,0.5-1.3,0.5-2c0-0.8-0.2-1.4-0.5-2c-0.3-0.6-0.7-1-1.3-1.4c-0.6-0.3-1.2-0.5-1.9-0.5
			c-0.7,0-1.3,0.2-1.9,0.5c-0.6,0.3-1,0.8-1.3,1.4c-0.3,0.6-0.5,1.3-0.5,2c0,1.1,0.4,2.1,1,2.8c0.7,0.7,1.6,1.1,2.7,1.1
			C313.4,46.4,314,46.2,314.6,45.9z"/>
		<path class="st0" d="M328.8,48.5v-1.6c-0.9,1.1-2.2,1.7-4,1.7c-0.8,0-1.5-0.2-2.1-0.5c-0.6-0.3-1.1-0.7-1.4-1.3
			c-0.3-0.5-0.5-1.1-0.5-1.8c0-1,0.4-1.8,1.1-2.4c0.8-0.6,1.8-0.9,3.2-0.9h3.7v-0.5c0-0.8-0.3-1.4-0.8-1.9c-0.5-0.4-1.2-0.7-2.2-0.7
			c-1.2,0-2.3,0.4-3.5,1.2l-0.8-1.4c0.8-0.5,1.6-0.9,2.3-1.2c0.7-0.2,1.5-0.4,2.5-0.4c1.4,0,2.5,0.4,3.3,1.1
			c0.8,0.7,1.2,1.7,1.2,2.9l0,7.6H328.8z M327.6,46.3c0.7-0.5,1.1-1.1,1.2-1.8v-1.2h-3.4c-0.9,0-1.6,0.1-2,0.4
			c-0.4,0.3-0.7,0.7-0.7,1.3c0,0.6,0.2,1.1,0.7,1.4c0.4,0.3,1.1,0.5,1.8,0.5C326.1,47,326.9,46.7,327.6,46.3z"/>
		<path class="st0" d="M339,38.9c-0.6-0.2-1.1-0.3-1.6-0.3c-0.6,0-1.1,0.1-1.5,0.3c-0.4,0.2-0.6,0.6-0.6,1c0,0.5,0.2,0.8,0.6,1.1
			c0.4,0.2,1,0.5,1.9,0.7c0.8,0.2,1.5,0.5,2,0.7c0.5,0.2,0.9,0.6,1.3,1c0.4,0.4,0.5,1,0.5,1.8c0,1.1-0.4,1.9-1.2,2.5
			c-0.8,0.6-1.8,0.8-3.1,0.8c-0.9,0-1.7-0.1-2.5-0.4c-0.8-0.3-1.5-0.7-2-1.2l0.8-1.5c0.5,0.4,1.1,0.8,1.8,1c0.7,0.3,1.4,0.4,2.1,0.4
			c0.7,0,1.2-0.1,1.6-0.4c0.4-0.2,0.6-0.6,0.6-1.1c0-0.5-0.2-0.9-0.6-1.2c-0.4-0.3-1.1-0.5-1.9-0.8c-0.8-0.2-1.4-0.4-1.9-0.7
			c-0.5-0.2-0.9-0.6-1.2-1c-0.3-0.4-0.5-1-0.5-1.7c0-1.1,0.4-1.9,1.2-2.4c0.8-0.5,1.8-0.8,2.9-0.8c0.7,0,1.4,0.1,2.1,0.3
			c0.7,0.2,1.3,0.5,1.8,0.8l-0.7,1.5C340.1,39.3,339.5,39.1,339,38.9z"/>
		<path class="st0" d="M350.3,47.8c-0.9,0.6-1.8,0.8-2.7,0.8c-0.9,0-1.7-0.3-2.2-0.8c-0.6-0.5-0.8-1.4-0.8-2.5V39h-1.6v-1.5h1.6
			v-3.1h2v3.1h3.5V39h-3.5v6c0,0.6,0.1,1.1,0.3,1.4c0.2,0.3,0.6,0.4,1,0.4c0.6,0,1.1-0.2,1.8-0.5L350.3,47.8z"/>
		<path class="st0" d="M356,37.6c0.7-0.4,1.5-0.6,2.5-0.7v2c-1.2,0-2.1,0.3-2.9,0.9c-0.7,0.7-1.1,1.5-1.2,2.6v6.1h-2V37h2v2.5
			C354.8,38.7,355.3,38.1,356,37.6z"/>
		<path class="st0" d="M368.2,37.7c0.9,0.5,1.6,1.2,2.1,2.1c0.5,0.9,0.8,1.9,0.8,3c0,1.1-0.3,2.1-0.8,3c-0.5,0.9-1.2,1.6-2.1,2.1
			c-0.9,0.5-1.9,0.7-3.1,0.7c-1.2,0-2.2-0.2-3.1-0.7c-0.9-0.5-1.6-1.2-2.1-2.1c-0.5-0.9-0.8-1.9-0.8-3c0-1.1,0.2-2.1,0.8-3
			c0.5-0.9,1.2-1.6,2.1-2.1c0.9-0.5,1.9-0.7,3.1-0.7C366.3,37,367.3,37.2,368.2,37.7z M363.1,39.2c-0.6,0.3-1,0.8-1.4,1.4
			c-0.3,0.6-0.5,1.3-0.5,2.1c0,0.8,0.2,1.5,0.5,2.1c0.3,0.6,0.8,1.1,1.4,1.4c0.6,0.3,1.3,0.5,2,0.5c0.7,0,1.4-0.2,2-0.5
			c0.6-0.3,1-0.8,1.4-1.4c0.3-0.6,0.5-1.3,0.5-2.1c0-0.8-0.2-1.5-0.5-2.1c-0.3-0.6-0.8-1.1-1.4-1.4c-0.6-0.3-1.3-0.5-2-0.5
			C364.4,38.7,363.7,38.9,363.1,39.2z"/>
		<path class="st0" d="M375.4,32.8c0.2,0.2,0.4,0.6,0.4,0.9c0,0.4-0.1,0.7-0.4,0.9c-0.2,0.2-0.5,0.4-0.9,0.4s-0.7-0.1-0.9-0.4
			c-0.2-0.2-0.4-0.6-0.4-0.9c0-0.4,0.1-0.7,0.4-0.9c0.2-0.2,0.5-0.4,0.9-0.4S375.2,32.6,375.4,32.8z M373.5,37h2v11.5h-2V37z"/>
		<path class="st0" d="M388.5,38.1c0.8,0.8,1.2,1.9,1.2,3.3v7.1h-2V42c0-1-0.3-1.7-0.8-2.3c-0.5-0.5-1.3-0.8-2.3-0.8
			c-1,0-1.9,0.3-2.5,1c-0.6,0.6-1,1.5-1.1,2.5v6.2h-2V37h2v2.4c0.8-1.6,2.2-2.5,4.4-2.5C386.7,37,387.8,37.4,388.5,38.1z"/>
		<path class="st0" d="M398.9,47.8c-0.9,0.6-1.8,0.8-2.7,0.8c-0.9,0-1.7-0.3-2.2-0.8c-0.6-0.5-0.8-1.4-0.8-2.5V39h-1.6v-1.5h1.6
			v-3.1h2v3.1h3.5V39h-3.5v6c0,0.6,0.1,1.1,0.3,1.4c0.2,0.3,0.6,0.4,1,0.4c0.6,0,1.1-0.2,1.8-0.5L398.9,47.8z"/>
		<path class="st0" d="M409.5,38.5c0.9,1.1,1.4,2.5,1.4,4.4c0,0.3,0,0.5,0,0.7h-9.1c0.2,1,0.6,1.9,1.3,2.5c0.7,0.6,1.6,0.9,2.6,0.9
			c0.7,0,1.3-0.1,1.9-0.4c0.6-0.2,1.1-0.6,1.5-1l1.1,1.2c-0.6,0.6-1.2,1.1-2,1.4c-0.8,0.3-1.7,0.5-2.7,0.5c-1.1,0-2.1-0.2-3-0.7
			c-0.9-0.5-1.6-1.2-2-2.1c-0.5-0.9-0.7-1.9-0.7-3c0-1.1,0.2-2.1,0.7-3c0.5-0.9,1.2-1.6,2-2.1c0.9-0.5,1.9-0.8,3-0.8
			C407.2,37,408.6,37.5,409.5,38.5z M409,42c-0.1-1-0.4-1.9-1-2.5c-0.6-0.6-1.5-0.9-2.5-0.9c-1,0-1.9,0.3-2.5,0.9
			c-0.7,0.6-1.1,1.4-1.2,2.5H409z"/>
		<path class="st0" d="M418.2,38.9c-0.6-0.2-1.1-0.3-1.6-0.3c-0.6,0-1.1,0.1-1.5,0.3c-0.4,0.2-0.6,0.6-0.6,1c0,0.5,0.2,0.8,0.6,1.1
			c0.4,0.2,1,0.5,1.9,0.7c0.8,0.2,1.5,0.5,2,0.7c0.5,0.2,0.9,0.6,1.3,1c0.4,0.4,0.5,1,0.5,1.8c0,1.1-0.4,1.9-1.2,2.5
			c-0.8,0.6-1.8,0.8-3.1,0.8c-0.9,0-1.7-0.1-2.5-0.4c-0.8-0.3-1.5-0.7-2-1.2l0.8-1.5c0.5,0.4,1.1,0.8,1.8,1c0.7,0.3,1.4,0.4,2.1,0.4
			c0.7,0,1.2-0.1,1.6-0.4c0.4-0.2,0.6-0.6,0.6-1.1c0-0.5-0.2-0.9-0.6-1.2c-0.4-0.3-1.1-0.5-1.9-0.8c-0.8-0.2-1.4-0.4-1.9-0.7
			c-0.5-0.2-0.9-0.6-1.2-1c-0.3-0.4-0.5-1-0.5-1.7c0-1.1,0.4-1.9,1.2-2.4c0.8-0.5,1.8-0.8,2.9-0.8c0.7,0,1.4,0.1,2.1,0.3
			c0.7,0.2,1.3,0.5,1.8,0.8l-0.7,1.5C419.3,39.3,418.8,39.1,418.2,38.9z"/>
		<path class="st0" d="M429.6,47.8c-0.9,0.6-1.8,0.8-2.7,0.8c-0.9,0-1.7-0.3-2.2-0.8c-0.6-0.5-0.8-1.4-0.8-2.5V39h-1.6v-1.5h1.6
			v-3.1h2v3.1h3.5V39h-3.5v6c0,0.6,0.1,1.1,0.3,1.4c0.2,0.3,0.6,0.4,1,0.4c0.6,0,1.1-0.2,1.8-0.5L429.6,47.8z"/>
		<path class="st0" d="M433.5,32.8c0.2,0.2,0.4,0.6,0.4,0.9c0,0.4-0.1,0.7-0.4,0.9c-0.2,0.2-0.5,0.4-0.9,0.4s-0.7-0.1-0.9-0.4
			c-0.2-0.2-0.4-0.6-0.4-0.9c0-0.4,0.1-0.7,0.4-0.9c0.2-0.2,0.5-0.4,0.9-0.4S433.3,32.6,433.5,32.8z M431.6,37h2v11.5h-2V37z"/>
		<path class="st0" d="M446.6,38.1c0.8,0.8,1.2,1.9,1.2,3.3v7.1h-2V42c0-1-0.3-1.7-0.8-2.3c-0.5-0.5-1.3-0.8-2.3-0.8
			c-1,0-1.9,0.3-2.5,1c-0.6,0.6-1,1.5-1.1,2.5v6.2h-2V37h2v2.4c0.8-1.6,2.2-2.5,4.4-2.5C444.8,37,445.8,37.4,446.6,38.1z"/>
		<path class="st0" d="M458.1,48.5v-1.6c-0.9,1.1-2.2,1.7-4,1.7c-0.8,0-1.5-0.2-2.1-0.5c-0.6-0.3-1.1-0.7-1.4-1.3
			c-0.3-0.5-0.5-1.1-0.5-1.8c0-1,0.4-1.8,1.1-2.4c0.8-0.6,1.8-0.9,3.2-0.9h3.7v-0.5c0-0.8-0.3-1.4-0.8-1.9c-0.5-0.4-1.2-0.7-2.2-0.7
			c-1.2,0-2.3,0.4-3.5,1.2l-0.8-1.4c0.8-0.5,1.6-0.9,2.3-1.2c0.7-0.2,1.5-0.4,2.5-0.4c1.4,0,2.5,0.4,3.3,1.1
			c0.8,0.7,1.2,1.7,1.2,2.9l0,7.6H458.1z M456.9,46.3c0.7-0.5,1.1-1.1,1.2-1.8v-1.2h-3.4c-0.9,0-1.6,0.1-2,0.4
			c-0.4,0.3-0.7,0.7-0.7,1.3c0,0.6,0.2,1.1,0.7,1.4c0.4,0.3,1.1,0.5,1.8,0.5C455.4,47,456.2,46.7,456.9,46.3z"/>
		<path class="st0" d="M463.3,32.4h2v16.2h-2V32.4z"/>
		<path class="st0" d="M477.7,38.5c0.9,1.1,1.4,2.5,1.4,4.4c0,0.3,0,0.5,0,0.7H470c0.2,1,0.6,1.9,1.3,2.5c0.7,0.6,1.6,0.9,2.6,0.9
			c0.7,0,1.3-0.1,1.9-0.4c0.6-0.2,1.1-0.6,1.5-1l1.1,1.2c-0.6,0.6-1.2,1.1-2,1.4c-0.8,0.3-1.7,0.5-2.7,0.5c-1.1,0-2.1-0.2-3-0.7
			c-0.9-0.5-1.6-1.2-2-2.1c-0.5-0.9-0.7-1.9-0.7-3c0-1.1,0.2-2.1,0.7-3c0.5-0.9,1.2-1.6,2-2.1c0.9-0.5,1.9-0.8,3-0.8
			C475.5,37,476.8,37.5,477.7,38.5z M477.3,42c-0.1-1-0.4-1.9-1-2.5c-0.6-0.6-1.5-0.9-2.5-0.9c-1,0-1.9,0.3-2.5,0.9
			c-0.7,0.6-1.1,1.4-1.2,2.5H477.3z"/>
		<path class="st0" d="M486.4,38.9c-0.6-0.2-1.1-0.3-1.6-0.3c-0.6,0-1.1,0.1-1.5,0.3c-0.4,0.2-0.6,0.6-0.6,1c0,0.5,0.2,0.8,0.6,1.1
			c0.4,0.2,1,0.5,1.9,0.7c0.8,0.2,1.5,0.5,2,0.7c0.5,0.2,0.9,0.6,1.3,1c0.4,0.4,0.5,1,0.5,1.8c0,1.1-0.4,1.9-1.2,2.5
			c-0.8,0.6-1.8,0.8-3.1,0.8c-0.9,0-1.7-0.1-2.5-0.4c-0.8-0.3-1.5-0.7-2-1.2l0.8-1.5c0.5,0.4,1.1,0.8,1.8,1c0.7,0.3,1.4,0.4,2.1,0.4
			c0.7,0,1.2-0.1,1.6-0.4c0.4-0.2,0.6-0.6,0.6-1.1c0-0.5-0.2-0.9-0.6-1.2c-0.4-0.3-1.1-0.5-1.9-0.8c-0.8-0.2-1.4-0.4-1.9-0.7
			c-0.5-0.2-0.9-0.6-1.2-1c-0.3-0.4-0.5-1-0.5-1.7c0-1.1,0.4-1.9,1.2-2.4c0.8-0.5,1.8-0.8,2.9-0.8c0.7,0,1.4,0.1,2.1,0.3
			c0.7,0.2,1.3,0.5,1.8,0.8l-0.7,1.5C487.5,39.3,487,39.1,486.4,38.9z"/>
		<path class="st0" d="M492.9,46.6c0.2,0.2,0.3,0.5,0.3,0.9c0,0.2,0,0.3-0.1,0.5c-0.1,0.2-0.1,0.3-0.2,0.5l-1.2,2.5h-1.1l0.9-2.5
			c-0.2-0.1-0.4-0.2-0.5-0.4c-0.1-0.2-0.2-0.4-0.2-0.6c0-0.3,0.1-0.6,0.3-0.9c0.2-0.2,0.5-0.3,0.8-0.3
			C492.4,46.3,492.7,46.4,492.9,46.6z"/>
		<path class="st0" d="M188.8,65.2c0.8,0.5,1.5,1.2,2,2.1c0.5,0.9,0.7,1.9,0.7,3c0,1.1-0.2,2.1-0.7,3c-0.5,0.9-1.1,1.6-1.9,2
			c-0.8,0.5-1.8,0.7-2.9,0.7c-1,0-1.8-0.2-2.6-0.6c-0.7-0.4-1.3-1-1.7-1.7v6.5h-2V64.5h2v2.3c0.4-0.8,1-1.3,1.7-1.7
			c0.7-0.4,1.6-0.6,2.5-0.6C187,64.5,188,64.7,188.8,65.2z M187.5,73.8c0.6-0.3,1-0.8,1.4-1.5c0.3-0.6,0.5-1.3,0.5-2.1
			c0-0.8-0.2-1.5-0.5-2.1c-0.3-0.6-0.8-1.1-1.4-1.5c-0.6-0.3-1.2-0.5-2-0.5c-0.7,0-1.4,0.2-2,0.5c-0.6,0.3-1,0.8-1.4,1.5
			c-0.3,0.6-0.5,1.3-0.5,2.1c0,0.8,0.2,1.5,0.5,2.1c0.3,0.6,0.8,1.1,1.4,1.4c0.6,0.3,1.3,0.5,2,0.5
			C186.3,74.3,186.9,74.2,187.5,73.8z"/>
		<path class="st0" d="M202.1,65.2c0.9,0.5,1.6,1.2,2.1,2.1c0.5,0.9,0.8,1.9,0.8,3c0,1.1-0.3,2.1-0.8,3c-0.5,0.9-1.2,1.6-2.1,2.1
			c-0.9,0.5-1.9,0.7-3.1,0.7c-1.2,0-2.2-0.2-3.1-0.7c-0.9-0.5-1.6-1.2-2.1-2.1c-0.5-0.9-0.8-1.9-0.8-3c0-1.1,0.2-2.1,0.8-3
			c0.5-0.9,1.2-1.6,2.1-2.1c0.9-0.5,1.9-0.7,3.1-0.7C200.2,64.5,201.2,64.7,202.1,65.2z M197,66.7c-0.6,0.3-1,0.8-1.4,1.4
			c-0.3,0.6-0.5,1.3-0.5,2.1c0,0.8,0.2,1.5,0.5,2.1c0.3,0.6,0.8,1.1,1.4,1.4c0.6,0.3,1.3,0.5,2,0.5c0.7,0,1.4-0.2,2-0.5
			c0.6-0.3,1-0.8,1.4-1.4c0.3-0.6,0.5-1.3,0.5-2.1c0-0.8-0.2-1.5-0.5-2.1c-0.3-0.6-0.8-1.1-1.4-1.4c-0.6-0.3-1.3-0.5-2-0.5
			C198.3,66.2,197.6,66.4,197,66.7z"/>
		<path class="st0" d="M211.1,65.1c0.7-0.4,1.5-0.6,2.5-0.7v2c-1.2,0-2.1,0.3-2.9,0.9c-0.7,0.7-1.1,1.5-1.2,2.6V76h-2V64.5h2V67
			C209.8,66.2,210.4,65.5,211.1,65.1z"/>
		<path class="st0" d="M230.1,66c0.9,1.1,1.4,2.5,1.4,4.4c0,0.3,0,0.5,0,0.7h-9.1c0.2,1,0.6,1.9,1.3,2.5c0.7,0.6,1.6,0.9,2.6,0.9
			c0.7,0,1.3-0.1,1.9-0.4c0.6-0.2,1.1-0.6,1.5-1l1.1,1.2c-0.6,0.6-1.2,1.1-2,1.4c-0.8,0.3-1.7,0.5-2.7,0.5c-1.1,0-2.1-0.2-3-0.7
			c-0.9-0.5-1.6-1.2-2-2.1c-0.5-0.9-0.7-1.9-0.7-3c0-1.1,0.2-2.1,0.7-3c0.5-0.9,1.2-1.6,2-2.1c0.9-0.5,1.9-0.8,3-0.8
			C227.8,64.5,229.2,65,230.1,66z M229.6,69.5c-0.1-1-0.4-1.9-1-2.5c-0.6-0.6-1.5-0.9-2.5-0.9c-1,0-1.9,0.3-2.5,0.9
			c-0.7,0.6-1.1,1.4-1.2,2.5H229.6z"/>
		<path class="st0" d="M232.2,78.6c0.6,0,1-0.2,1.3-0.6c0.3-0.4,0.4-1,0.4-1.7V64.5h2v12.1c0,1.2-0.3,2.1-0.9,2.8
			c-0.6,0.6-1.4,1-2.4,1c-0.7,0-1.3-0.1-2-0.4l0.5-1.5C231.4,78.5,231.8,78.6,232.2,78.6z M235.8,60.3c0.2,0.2,0.4,0.6,0.4,0.9
			c0,0.4-0.1,0.7-0.4,0.9c-0.2,0.2-0.5,0.4-0.9,0.4c-0.4,0-0.7-0.1-0.9-0.4c-0.2-0.2-0.4-0.6-0.4-0.9c0-0.4,0.1-0.7,0.4-0.9
			c0.2-0.2,0.5-0.4,0.9-0.4C235.2,59.9,235.5,60.1,235.8,60.3z"/>
		<path class="st0" d="M248.1,66c0.9,1.1,1.4,2.5,1.4,4.4c0,0.3,0,0.5,0,0.7h-9.1c0.2,1,0.6,1.9,1.3,2.5c0.7,0.6,1.6,0.9,2.6,0.9
			c0.7,0,1.3-0.1,1.9-0.4c0.6-0.2,1.1-0.6,1.5-1l1.1,1.2c-0.6,0.6-1.2,1.1-2,1.4c-0.8,0.3-1.7,0.5-2.7,0.5c-1.1,0-2.1-0.2-3-0.7
			c-0.9-0.5-1.6-1.2-2-2.1c-0.5-0.9-0.7-1.9-0.7-3c0-1.1,0.2-2.1,0.7-3c0.5-0.9,1.2-1.6,2-2.1c0.9-0.5,1.9-0.8,3-0.8
			C245.8,64.5,247.2,65,248.1,66z M247.6,69.5c-0.1-1-0.4-1.9-1-2.5c-0.6-0.6-1.5-0.9-2.5-0.9c-1,0-1.9,0.3-2.5,0.9
			c-0.7,0.6-1.1,1.4-1.2,2.5H247.6z"/>
		<path class="st0" d="M269.9,65.7c0.8,0.8,1.1,1.9,1.1,3.3V76h-2v-6.6c0-1-0.3-1.7-0.8-2.3c-0.5-0.6-1.3-0.8-2.2-0.8
			c-1.1,0-1.9,0.4-2.6,1.2c-0.6,0.7-0.9,1.7-0.9,2.9V76h-2v-6.6c0-1-0.3-1.7-0.8-2.3c-0.5-0.6-1.3-0.8-2.2-0.8
			c-1.1,0-1.9,0.4-2.6,1.2c-0.6,0.7-0.9,1.7-0.9,2.9V76h-2V64.5h2v2.4c0.8-1.6,2.2-2.5,4.3-2.5c1.1,0,1.9,0.3,2.6,0.8
			c0.7,0.5,1.2,1.2,1.4,2.1c0.7-1.9,2.2-2.9,4.5-2.9C268.1,64.5,269.1,64.9,269.9,65.7z"/>
		<path class="st0" d="M283.4,65.2c0.8,0.5,1.5,1.2,2,2.1c0.5,0.9,0.7,1.9,0.7,3c0,1.1-0.2,2.1-0.7,3c-0.5,0.9-1.1,1.6-1.9,2
			c-0.8,0.5-1.8,0.7-2.9,0.7c-1,0-1.8-0.2-2.6-0.6c-0.7-0.4-1.3-1-1.7-1.7v6.5h-2V64.5h2v2.3c0.4-0.8,1-1.3,1.7-1.7
			c0.7-0.4,1.6-0.6,2.5-0.6C281.6,64.5,282.6,64.7,283.4,65.2z M282.1,73.8c0.6-0.3,1-0.8,1.4-1.5c0.3-0.6,0.5-1.3,0.5-2.1
			c0-0.8-0.2-1.5-0.5-2.1c-0.3-0.6-0.8-1.1-1.4-1.5c-0.6-0.3-1.2-0.5-2-0.5c-0.7,0-1.4,0.2-2,0.5c-0.6,0.3-1,0.8-1.4,1.5
			c-0.3,0.6-0.5,1.3-0.5,2.1c0,0.8,0.2,1.5,0.5,2.1c0.3,0.6,0.8,1.1,1.4,1.4c0.6,0.3,1.3,0.5,2,0.5
			C280.9,74.3,281.6,74.2,282.1,73.8z"/>
		<path class="st0" d="M288.7,59.9h2V76h-2V59.9z"/>
		<path class="st0" d="M302.3,65.2c0.9,0.5,1.6,1.2,2.1,2.1c0.5,0.9,0.8,1.9,0.8,3c0,1.1-0.3,2.1-0.8,3c-0.5,0.9-1.2,1.6-2.1,2.1
			c-0.9,0.5-1.9,0.7-3.1,0.7c-1.2,0-2.2-0.2-3.1-0.7c-0.9-0.5-1.6-1.2-2.1-2.1c-0.5-0.9-0.8-1.9-0.8-3c0-1.1,0.2-2.1,0.8-3
			c0.5-0.9,1.2-1.6,2.1-2.1c0.9-0.5,1.9-0.7,3.1-0.7C300.4,64.5,301.4,64.7,302.3,65.2z M297.2,66.7c-0.6,0.3-1,0.8-1.4,1.4
			c-0.3,0.6-0.5,1.3-0.5,2.1c0,0.8,0.2,1.5,0.5,2.1c0.3,0.6,0.8,1.1,1.4,1.4c0.6,0.3,1.3,0.5,2,0.5c0.7,0,1.4-0.2,2-0.5
			c0.6-0.3,1-0.8,1.4-1.4c0.3-0.6,0.5-1.3,0.5-2.1c0-0.8-0.2-1.5-0.5-2.1c-0.3-0.6-0.8-1.1-1.4-1.4c-0.6-0.3-1.3-0.5-2-0.5
			C298.5,66.2,297.8,66.4,297.2,66.7z"/>
		<path class="st0" d="M308.8,67.6c0.2,0.2,0.3,0.5,0.3,0.9c0,0.4-0.1,0.7-0.3,0.9c-0.2,0.2-0.5,0.4-0.8,0.4c-0.3,0-0.6-0.1-0.8-0.4
			c-0.2-0.2-0.3-0.5-0.3-0.9c0-0.4,0.1-0.7,0.3-0.9c0.2-0.2,0.5-0.3,0.8-0.3C308.3,67.3,308.6,67.4,308.8,67.6z M308.8,74.1
			c0.2,0.2,0.3,0.5,0.3,0.9s-0.1,0.7-0.3,0.9c-0.2,0.2-0.5,0.4-0.8,0.4c-0.3,0-0.6-0.1-0.8-0.4c-0.2-0.2-0.3-0.5-0.3-0.9
			s0.1-0.7,0.3-0.9c0.2-0.2,0.5-0.3,0.8-0.3C308.3,73.7,308.6,73.8,308.8,74.1z"/>
		<path class="st0" d="M320.5,67.7v1.1H314v-0.9l3.4-3.6c0.4-0.4,0.7-0.7,0.9-1.1c0.2-0.4,0.3-0.7,0.3-1c0-0.4-0.2-0.7-0.5-0.9
			c-0.3-0.2-0.7-0.3-1.3-0.3c-0.4,0-0.8,0.1-1.3,0.3c-0.4,0.2-0.9,0.5-1.2,0.8l-0.5-0.9c0.5-0.4,1-0.7,1.5-0.9
			c0.5-0.2,1.1-0.3,1.6-0.3c0.9,0,1.6,0.2,2.1,0.6c0.5,0.4,0.8,0.9,0.8,1.6c0,0.8-0.5,1.8-1.6,2.9l-2.7,2.7H320.5z"/>
	</g>
</g>
</svg>
