<!-- Generator: Adobe Illustrator 20.1.0, SVG Export Plug-In  -->
<svg version="1.1"
	 xmlns="http://www.w3.org/2000/svg" xmlns:xlink="http://www.w3.org/1999/xlink" xmlns:a="http://ns.adobe.com/AdobeSVGViewerExtensions/3.0/"
	 x="0px" y="0px" width="164px" height="16.5px" viewBox="0 0 164 16.5"
	 style="overflow:scroll;enable-background:new 0 0 164 16.5;" xml:space="preserve">
<style type="text/css">
	.st0{fill:#F18A21;}
</style>
<defs>
</defs>
<g>
	<path class="st0" d="M10.9,5.9c-0.1-0.4-0.2-0.7-0.4-1.1C10.3,4.5,10.1,4.2,9.8,4c-0.3-0.2-0.6-0.4-1-0.6C8.4,3.3,8,3.2,7.5,3.2
		c-0.8,0-1.4,0.1-1.9,0.4C5.1,4,4.6,4.4,4.3,4.8C4,5.3,3.7,5.9,3.6,6.5c-0.2,0.6-0.2,1.3-0.2,2c0,0.6,0.1,1.3,0.2,1.9S4,11.5,4.3,12
		c0.3,0.5,0.8,0.9,1.3,1.2c0.5,0.3,1.2,0.4,1.9,0.4c1,0,1.8-0.3,2.4-1c0.6-0.6,0.9-1.5,1.1-2.5h3.3c-0.1,1-0.3,1.8-0.7,2.6
		s-0.8,1.4-1.4,2c-0.6,0.5-1.3,1-2.1,1.3c-0.8,0.3-1.7,0.4-2.6,0.4c-1.2,0-2.2-0.2-3.2-0.6c-0.9-0.4-1.7-1-2.4-1.7s-1.1-1.6-1.5-2.5
		S0,9.6,0,8.5c0-1.1,0.2-2.2,0.5-3.2c0.3-1,0.8-1.8,1.5-2.6C2.6,2,3.4,1.4,4.4,1c0.9-0.4,2-0.6,3.2-0.6c0.8,0,1.6,0.1,2.4,0.4
		c0.8,0.2,1.4,0.6,2,1.1c0.6,0.5,1.1,1,1.5,1.7c0.4,0.7,0.6,1.5,0.7,2.4H10.9z"/>
	<path class="st0" d="M16.3,10.6c0-0.9,0.1-1.7,0.4-2.4s0.7-1.3,1.2-1.8c0.5-0.5,1.1-0.9,1.8-1.2s1.5-0.4,2.4-0.4s1.7,0.1,2.4,0.4
		c0.7,0.3,1.3,0.7,1.8,1.2c0.5,0.5,0.9,1.1,1.2,1.8c0.3,0.7,0.4,1.5,0.4,2.4s-0.1,1.7-0.4,2.4c-0.3,0.7-0.7,1.3-1.2,1.8
		c-0.5,0.5-1.1,0.9-1.8,1.2c-0.7,0.3-1.5,0.4-2.4,0.4s-1.7-0.1-2.4-0.4s-1.3-0.7-1.8-1.2c-0.5-0.5-0.9-1.1-1.2-1.8
		S16.3,11.4,16.3,10.6z M19.4,10.6c0,0.4,0,0.9,0.1,1.3c0.1,0.4,0.2,0.8,0.4,1.1c0.2,0.3,0.5,0.6,0.8,0.8s0.8,0.3,1.3,0.3
		c0.5,0,0.9-0.1,1.3-0.3c0.4-0.2,0.6-0.5,0.8-0.8c0.2-0.3,0.4-0.7,0.4-1.1c0.1-0.4,0.1-0.9,0.1-1.3c0-0.4,0-0.9-0.1-1.3
		c-0.1-0.4-0.2-0.8-0.4-1.1c-0.2-0.3-0.5-0.6-0.8-0.8C23,7.1,22.6,7,22.1,7c-0.5,0-0.9,0.1-1.3,0.3c-0.3,0.2-0.6,0.5-0.8,0.8
		s-0.4,0.7-0.4,1.1C19.4,9.7,19.4,10.1,19.4,10.6z"/>
	<path class="st0" d="M30.2,5h2.9v1.5h0.1c0.4-0.6,0.9-1.1,1.5-1.4s1.2-0.5,1.9-0.5c0.8,0,1.5,0.1,2,0.3c0.5,0.2,0.9,0.5,1.2,0.9
		c0.3,0.4,0.5,0.9,0.6,1.4c0.1,0.6,0.2,1.2,0.2,1.9v6.8h-3V9.8c0-0.9-0.1-1.6-0.4-2.1c-0.3-0.5-0.8-0.7-1.5-0.7
		c-0.8,0-1.4,0.2-1.8,0.7s-0.6,1.3-0.6,2.4v5.8h-3V5z"/>
	<path class="st0" d="M51.3,14.7L51.3,14.7c-0.4,0.6-0.9,1-1.5,1.3s-1.2,0.4-2,0.4c-0.8,0-1.6-0.2-2.2-0.5c-0.6-0.3-1.1-0.8-1.5-1.3
		c-0.4-0.6-0.7-1.2-0.9-1.9c-0.2-0.7-0.3-1.5-0.3-2.2c0-0.7,0.1-1.5,0.3-2.2s0.5-1.3,0.9-1.8c0.4-0.5,0.9-1,1.5-1.3s1.3-0.5,2.1-0.5
		c0.7,0,1.3,0.1,1.9,0.4s1.1,0.7,1.4,1.2h0V0.8h3v15.3h-2.9V14.7z M51.3,10.5c0-0.4,0-0.9-0.1-1.3c-0.1-0.4-0.2-0.8-0.4-1.1
		c-0.2-0.3-0.5-0.6-0.8-0.8C49.6,7.1,49.2,7,48.7,7c-0.5,0-0.9,0.1-1.3,0.3c-0.3,0.2-0.6,0.5-0.8,0.8s-0.4,0.7-0.5,1.1
		C46,9.6,46,10.1,46,10.5c0,0.4,0.1,0.9,0.2,1.3c0.1,0.4,0.3,0.8,0.5,1.1c0.2,0.3,0.5,0.6,0.8,0.8c0.3,0.2,0.7,0.3,1.2,0.3
		c0.5,0,0.9-0.1,1.3-0.3c0.3-0.2,0.6-0.5,0.8-0.8c0.2-0.3,0.3-0.7,0.4-1.1C51.2,11.4,51.3,11,51.3,10.5z"/>
	<path class="st0" d="M67.4,16.1h-2.9v-1.5h-0.1c-0.4,0.6-0.9,1.1-1.5,1.4s-1.2,0.5-1.9,0.5c-0.8,0-1.5-0.1-2-0.3
		c-0.5-0.2-0.9-0.5-1.2-0.9c-0.3-0.4-0.5-0.9-0.6-1.4S57,12.5,57,11.8V5h3v6.3c0,0.9,0.1,1.6,0.4,2.1c0.3,0.5,0.8,0.7,1.5,0.7
		c0.8,0,1.4-0.2,1.8-0.7c0.4-0.5,0.6-1.3,0.6-2.4V5h3V16.1z"/>
	<path class="st0" d="M77.7,8.9c-0.2-1.3-1-1.9-2.3-1.9c-0.5,0-0.9,0.1-1.2,0.3c-0.3,0.2-0.6,0.5-0.8,0.9S73,8.9,73,9.3
		c-0.1,0.4-0.1,0.8-0.1,1.2c0,0.4,0,0.8,0.1,1.2c0.1,0.4,0.2,0.8,0.4,1.1c0.2,0.3,0.5,0.6,0.8,0.8c0.3,0.2,0.7,0.3,1.2,0.3
		c0.7,0,1.3-0.2,1.7-0.6c0.4-0.4,0.7-1,0.8-1.6h2.9c-0.2,1.5-0.8,2.6-1.7,3.4c-0.9,0.8-2.2,1.2-3.6,1.2c-0.8,0-1.6-0.1-2.3-0.4
		s-1.3-0.7-1.8-1.2c-0.5-0.5-0.9-1.1-1.1-1.8s-0.4-1.5-0.4-2.3c0-0.9,0.1-1.7,0.4-2.4s0.6-1.4,1.1-1.9c0.5-0.5,1.1-1,1.8-1.3
		s1.5-0.5,2.4-0.5c0.7,0,1.3,0.1,1.9,0.3C78,5.1,78.5,5.4,79,5.7s0.9,0.8,1.2,1.3c0.3,0.5,0.5,1.1,0.5,1.8H77.7z"/>
	<path class="st0" d="M86.7,5H89v2h-2.2v5.5c0,0.5,0.1,0.9,0.3,1s0.5,0.3,1,0.3c0.3,0,0.7,0,0.9-0.1v2.4c-0.3,0-0.5,0.1-0.9,0.1
		c-0.3,0-0.6,0-0.9,0c-0.5,0-0.9,0-1.3-0.1c-0.4-0.1-0.8-0.2-1.1-0.4s-0.6-0.5-0.8-0.8c-0.2-0.3-0.3-0.8-0.3-1.4V7h-1.8V5h1.8V1.7h3
		V5z"/>
	<path class="st0" d="M101.3,16.1h-2.9v-1.5h-0.1c-0.4,0.6-0.9,1.1-1.5,1.4c-0.6,0.3-1.2,0.5-1.9,0.5c-0.8,0-1.5-0.1-2-0.3
		c-0.5-0.2-0.9-0.5-1.2-0.9c-0.3-0.4-0.5-0.9-0.6-1.4c-0.1-0.6-0.2-1.2-0.2-1.9V5h3v6.3c0,0.9,0.1,1.6,0.4,2.1
		c0.3,0.5,0.8,0.7,1.5,0.7c0.8,0,1.4-0.2,1.8-0.7s0.6-1.3,0.6-2.4V5h3V16.1z"/>
	<path class="st0" d="M103.9,8.4c0-0.7,0.2-1.3,0.5-1.8c0.3-0.5,0.7-0.9,1.2-1.1s1-0.5,1.6-0.6c0.6-0.1,1.2-0.2,1.8-0.2
		c0.6,0,1.1,0,1.7,0.1c0.6,0.1,1.1,0.2,1.6,0.5s0.9,0.6,1.2,1c0.3,0.4,0.5,1,0.5,1.6v5.8c0,0.5,0,1,0.1,1.4c0.1,0.5,0.2,0.8,0.3,1
		h-3.1c-0.1-0.2-0.1-0.3-0.1-0.5c0-0.2-0.1-0.4-0.1-0.5c-0.5,0.5-1.1,0.9-1.7,1.1c-0.7,0.2-1.3,0.3-2,0.3c-0.5,0-1-0.1-1.5-0.2
		c-0.5-0.1-0.9-0.3-1.2-0.6c-0.3-0.3-0.6-0.6-0.8-1c-0.2-0.4-0.3-0.9-0.3-1.5c0-0.6,0.1-1.1,0.3-1.6c0.2-0.4,0.5-0.7,0.9-1
		s0.8-0.4,1.2-0.5c0.5-0.1,0.9-0.2,1.4-0.3c0.5-0.1,0.9-0.1,1.4-0.2s0.8-0.1,1.1-0.2c0.3-0.1,0.6-0.2,0.8-0.4
		c0.2-0.2,0.3-0.4,0.3-0.7c0-0.3-0.1-0.6-0.2-0.8s-0.3-0.3-0.4-0.5c-0.2-0.1-0.4-0.2-0.6-0.2c-0.2,0-0.5-0.1-0.8-0.1
		c-0.6,0-1.1,0.1-1.4,0.4c-0.4,0.3-0.6,0.7-0.6,1.3H103.9z M110.9,10.7c-0.1,0.1-0.3,0.2-0.5,0.3c-0.2,0.1-0.4,0.1-0.6,0.2
		c-0.2,0-0.5,0.1-0.7,0.1c-0.3,0-0.5,0.1-0.7,0.1c-0.2,0-0.5,0.1-0.7,0.2c-0.2,0.1-0.4,0.2-0.6,0.3c-0.2,0.1-0.3,0.3-0.4,0.5
		c-0.1,0.2-0.2,0.4-0.2,0.7c0,0.3,0,0.5,0.2,0.7c0.1,0.2,0.2,0.3,0.4,0.4s0.4,0.2,0.6,0.2c0.2,0,0.5,0.1,0.7,0.1
		c0.6,0,1.1-0.1,1.4-0.3c0.3-0.2,0.6-0.4,0.7-0.7s0.3-0.6,0.3-0.8c0-0.3,0.1-0.5,0.1-0.7V10.7z"/>
	<path class="st0" d="M116.9,0.8h3v15.3h-3V0.8z"/>
	<path class="st0" d="M125.3,11.3c0,1,0.3,1.7,0.8,2.1c0.5,0.5,1.1,0.7,2,0.7c0.6,0,1.1-0.2,1.6-0.5s0.7-0.6,0.8-1h2.7
		c-0.4,1.3-1.1,2.3-2,2.9c-0.9,0.6-2,0.9-3.2,0.9c-0.9,0-1.7-0.1-2.4-0.4c-0.7-0.3-1.3-0.7-1.8-1.2c-0.5-0.5-0.9-1.1-1.1-1.8
		c-0.3-0.7-0.4-1.5-0.4-2.4c0-0.8,0.1-1.6,0.4-2.3c0.3-0.7,0.7-1.3,1.2-1.9c0.5-0.5,1.1-0.9,1.8-1.2c0.7-0.3,1.5-0.5,2.3-0.5
		c0.9,0,1.8,0.2,2.5,0.5c0.7,0.4,1.3,0.9,1.7,1.5c0.5,0.6,0.8,1.3,1,2.1c0.2,0.8,0.3,1.6,0.2,2.5H125.3z M130.2,9.3
		c-0.1-0.8-0.4-1.4-0.8-1.8c-0.4-0.4-0.9-0.6-1.7-0.6c-0.5,0-0.9,0.1-1.2,0.2c-0.3,0.2-0.6,0.4-0.8,0.6s-0.3,0.5-0.4,0.8
		c-0.1,0.3-0.1,0.5-0.1,0.7H130.2z"/>
	<path class="st0" d="M137.9,12.5c0,0.3,0.1,0.6,0.2,0.8c0.1,0.2,0.3,0.4,0.5,0.6s0.5,0.3,0.7,0.3c0.3,0.1,0.6,0.1,0.9,0.1
		c0.2,0,0.4,0,0.7-0.1c0.2-0.1,0.5-0.1,0.6-0.2s0.4-0.3,0.5-0.4s0.2-0.4,0.2-0.7c0-0.2-0.1-0.4-0.2-0.6c-0.2-0.2-0.4-0.3-0.7-0.4
		c-0.3-0.1-0.7-0.2-1.1-0.4s-0.9-0.2-1.5-0.3c-0.4-0.1-0.9-0.2-1.3-0.4c-0.4-0.1-0.8-0.3-1.1-0.5c-0.3-0.2-0.6-0.5-0.8-0.8
		c-0.2-0.3-0.3-0.7-0.3-1.2c0-0.7,0.1-1.3,0.4-1.8c0.3-0.5,0.6-0.8,1.1-1.1c0.5-0.3,1-0.5,1.5-0.6c0.6-0.1,1.2-0.2,1.8-0.2
		s1.2,0.1,1.8,0.2c0.6,0.1,1.1,0.3,1.5,0.6c0.4,0.3,0.8,0.6,1.1,1.1c0.3,0.5,0.5,1,0.5,1.7h-2.9c0-0.6-0.3-1-0.7-1.2
		c-0.4-0.2-0.9-0.3-1.4-0.3c-0.2,0-0.4,0-0.6,0s-0.4,0.1-0.5,0.1c-0.2,0.1-0.3,0.2-0.4,0.3c-0.1,0.1-0.2,0.3-0.2,0.5
		c0,0.3,0.1,0.5,0.3,0.7c0.2,0.2,0.5,0.3,0.8,0.4s0.7,0.2,1.1,0.3c0.4,0.1,0.8,0.2,1.3,0.3c0.4,0.1,0.9,0.2,1.3,0.4
		c0.4,0.1,0.8,0.3,1.1,0.6c0.3,0.2,0.6,0.5,0.8,0.9s0.3,0.8,0.3,1.3c0,0.7-0.1,1.3-0.4,1.8c-0.3,0.5-0.7,0.9-1.1,1.2s-1,0.5-1.6,0.6
		c-0.6,0.1-1.2,0.2-1.9,0.2c-0.6,0-1.3-0.1-1.9-0.2c-0.6-0.1-1.2-0.3-1.6-0.7c-0.5-0.3-0.9-0.7-1.2-1.2c-0.3-0.5-0.5-1.1-0.5-1.8
		H137.9z"/>
	<path class="st0" d="M152.6,1.6H149l-0.4,2l0,0c0.2-0.2,0.5-0.4,0.8-0.5S150,3,150.4,3c0.4,0,0.8,0.1,1.2,0.2
		c0.3,0.2,0.6,0.4,0.8,0.6c0.2,0.3,0.4,0.6,0.5,0.9c0.1,0.4,0.2,0.8,0.2,1.2c0,0.5-0.1,0.9-0.3,1.3c-0.2,0.4-0.4,0.7-0.7,1
		c-0.3,0.3-0.6,0.5-1,0.7c-0.4,0.2-0.8,0.2-1.3,0.2c-0.4,0-0.8-0.1-1.2-0.2s-0.7-0.3-1-0.5c-0.3-0.2-0.5-0.5-0.7-0.9
		c-0.2-0.3-0.3-0.7-0.3-1.2h1.8c0,0.4,0.2,0.7,0.5,1c0.3,0.2,0.6,0.4,1,0.4c0.2,0,0.4,0,0.6-0.1c0.2-0.1,0.3-0.2,0.5-0.4
		c0.1-0.2,0.2-0.3,0.3-0.5c0.1-0.2,0.1-0.4,0.1-0.6c0-0.2,0-0.4-0.1-0.6c-0.1-0.2-0.2-0.4-0.3-0.5c-0.1-0.2-0.3-0.3-0.5-0.4
		c-0.2-0.1-0.4-0.1-0.6-0.1c-0.3,0-0.6,0.1-0.8,0.2c-0.2,0.1-0.4,0.3-0.6,0.5h-1.6l0.9-4.8h4.9V1.6z"/>
	<path class="st0" d="M154.3,7h2v1.9c0,0.3-0.1,0.6-0.2,0.8c-0.1,0.2-0.2,0.4-0.4,0.6c-0.2,0.2-0.4,0.3-0.6,0.4
		c-0.2,0.1-0.5,0.2-0.8,0.2v-0.9c0.1,0,0.3-0.1,0.4-0.1c0.1-0.1,0.2-0.2,0.3-0.3c0.1-0.1,0.1-0.2,0.2-0.4c0-0.1,0.1-0.3,0.1-0.4
		h-0.9V7z"/>
	<path class="st0" d="M162.1,2.4c-0.1-0.3-0.2-0.5-0.4-0.8c-0.2-0.2-0.5-0.3-0.8-0.3c-0.3,0-0.6,0.1-0.8,0.3
		c-0.2,0.2-0.4,0.4-0.5,0.7c-0.1,0.3-0.2,0.6-0.3,0.9s-0.1,0.6-0.1,0.8l0,0c0.2-0.4,0.5-0.6,0.9-0.8c0.3-0.2,0.7-0.2,1.1-0.2
		c0.4,0,0.7,0.1,1.1,0.2c0.4,0.2,0.7,0.4,0.9,0.7c0.2,0.3,0.4,0.6,0.5,0.9c0.1,0.3,0.2,0.7,0.2,1c0,0.5-0.1,0.9-0.2,1.3
		c-0.1,0.4-0.4,0.7-0.6,1s-0.6,0.5-1,0.7s-0.8,0.3-1.3,0.3c-0.7,0-1.2-0.1-1.6-0.4c-0.4-0.3-0.8-0.6-1-1c-0.3-0.4-0.4-0.9-0.5-1.5
		c-0.1-0.5-0.2-1.1-0.2-1.6c0-0.5,0.1-1.1,0.2-1.6s0.3-1,0.6-1.5s0.6-0.8,1.1-1.1c0.4-0.3,1-0.4,1.6-0.4c0.8,0,1.4,0.2,1.9,0.6
		s0.8,1,0.9,1.8H162.1z M160.8,4.4c-0.2,0-0.5,0-0.6,0.1c-0.2,0.1-0.3,0.2-0.4,0.4c-0.1,0.2-0.2,0.3-0.3,0.5s-0.1,0.4-0.1,0.6
		c0,0.2,0,0.4,0.1,0.6c0.1,0.2,0.2,0.4,0.3,0.5c0.1,0.2,0.3,0.3,0.4,0.4c0.2,0.1,0.4,0.1,0.6,0.1c0.2,0,0.4,0,0.6-0.1
		c0.2-0.1,0.3-0.2,0.4-0.4c0.1-0.2,0.2-0.3,0.3-0.5s0.1-0.4,0.1-0.6c0-0.2,0-0.4-0.1-0.6c-0.1-0.2-0.1-0.4-0.2-0.5s-0.2-0.3-0.4-0.4
		C161.3,4.4,161.1,4.4,160.8,4.4z"/>
</g>
</svg>
