<!-- Generator: Adobe Illustrator 20.1.0, SVG Export Plug-In  -->
<svg version="1.1"
	 xmlns="http://www.w3.org/2000/svg" xmlns:xlink="http://www.w3.org/1999/xlink" xmlns:a="http://ns.adobe.com/AdobeSVGViewerExtensions/3.0/"
	 x="0px" y="0px" width="27.6px" height="33.7px" viewBox="0 0 27.6 33.7"
	 style="overflow:scroll;enable-background:new 0 0 27.6 33.7;" xml:space="preserve">
<style type="text/css">
	.st0{fill:#FFFFFF;}
</style>
<defs>
</defs>
<g id="XMLID_1_">
	<g id="XMLID_8_">
		<path id="XMLID_9_" class="st0" d="M22.8,33.4c-2.6,0.8-5.5,0.1-8-0.7c-0.7-0.2-1.3-0.4-2-0.7c-0.7-0.3-1.4-0.5-2-0.9
			c-0.3-0.2-0.6-0.4-0.9-0.6c-0.2-0.2-0.7-0.3-0.8-0.6C9,29.7,8.8,29.3,8.5,29c-0.8-1-1.8-1.9-2.4-3.1c-0.7-1.3-0.8-2.9-0.4-4.3
			c0.5-1.4,1.4-2.6,1.9-4c0.3-0.9,0.5-1.8,0.5-2.8c0-0.3,0-0.6-0.1-0.8c0-0.1-0.1-0.2-0.1-0.4c0-0.1-0.3-0.4-0.3-0.4
			C7.8,13,7.9,12.6,8,12.2c0.1-0.6,0.3-1.3,0.4-1.9c0.1-0.4,0.2-0.8,0.3-1.3c0,0,0,0,0-0.1c0-0.1,0-0.1,0-0.2C8.8,8.6,8.9,8.5,9,8.3
			C9.1,8,9.3,7.7,9.6,7.4c0.5-0.6,1-1.2,1.4-1.8c0.4-0.6,0.6-1.2,0.3-1.9c-0.3-0.7-0.5-1.4-0.7-2.1c-0.1-0.2,0-0.5,0.2-0.6
			c0.3-0.1,0.6-0.2,0.9-0.1c0.4,0.1,0.6,1,0.7,1.3c0.2,0.6,0.6,1.1,1,1.5C13.5,3.8,14,4.3,14.1,4c0.1-0.4,0.2-0.8,0.2-1.1
			c0-0.7-0.2-1.5-0.2-2.3c0-0.3,0.1-0.6,0.4-0.6c0.3,0,0.6,0,0.8,0.1c0.2,0.1,0.2,0.4,0.2,0.7c0,0.4,0.1,0.7,0.2,1.1
			c0.1,0.3,0.2,0.5,0.3,0.8c0.1,0.2,0.2,0.5,0.3,0.7c0.1,0.1,0.5,0.4,0.5,0.2c0-0.3,0.1-0.7,0.1-1C17,2,17,1.4,17,0.8
			c0-0.3,0.1-0.3,0.3-0.3c0.2,0,0.6,0,0.7,0.1c0.3,0.3,0.2,1,0.2,1.4c0,0.6,0.1,1.2,0.4,1.8c0.2,0.5,0.7,0.9,1.2,1.2
			c0.5,0.4,1,0.7,1.3,1.2c-1.1,0.4-2.3,0-3.4,0.1c-0.7,0-1.4,0.2-2,0.7c-0.4,0.3-0.7,0.8-1,1.2c-0.4,0.5-0.8,1.1-1.4,1.4
			c-0.6,0.4-1.2,0.6-1.8,0.9c-0.6,0.3-1.2,0.6-1.8,0.9c-0.3,0.2-0.6,0.3-0.8,0.6c-0.1,0.1-0.1,0.2-0.2,0.3c0,0.2,0.2,0.1,0.3,0
			c0.1-0.1,0.1-0.1,0.1-0.2c0.1-0.1,0.2-0.2,0.3-0.3c0.3-0.2,0.6-0.3,1-0.5c0.6-0.3,1.2-0.5,1.8-0.7c0.6-0.2,1.2-0.4,1.7-0.7
			c0.6-0.4,1.1-0.9,1.5-1.5c0.3-0.4,0.5-0.8,0.9-1.1C16.9,7.1,17.5,7,18.2,7c0.7,0,1.4,0,2.1-0.1c0.3,0,0.6-0.1,0.9-0.3
			c0.1,0,0.1-0.1,0.2-0.1c0.2,0,0.3,0,0.5,0c0.4,0,0.7,0,1.1,0c0.4,0,0.8,0,1.1,0.1C24.7,6.8,25,7.7,24.3,8c-0.3,0.2-0.7,0.2-1,0.3
			c-0.4,0.1-0.8,0.2-1.2,0.3c-0.7,0.2-1.4,0.4-2.2,0.5c-0.2,0-0.3,0-0.5,0.1c-0.1,0-0.2,0-0.3,0c-0.2,0-0.4,0.2-0.5,0.4
			c-0.3,0.6,0,1.4,0.4,1.9c0.4,0.5,1,0.9,1.6,1.3c0.6,0.4,1.2,0.7,1.8,1.2c0.2,0.1,0.3,0.3,0.5,0.4c0,0,0.1,0.1,0.2,0.1
			c0.2,0.1,0.3,0.3,0.4,0.4c0.5,0.6,1,1.1,1.5,1.7c0.4,0.5,0.9,1,1.2,1.6c0.3,0.5,0.5,1.1,0.7,1.7c0.8,2.7,0.9,5.6,0.3,8.4
			c-0.3,1.1-0.6,2.3-1.4,3.3c-0.6,0.8-1.5,1.4-2.5,1.8C23.2,33.3,23,33.3,22.8,33.4C20.9,34,23,33.3,22.8,33.4z M17.8,27
			c0.7,0.2,1.4,0,2.1,0.1c0.7,0,1.4,0.3,2,0.7c0.4,0.3,0.8,0.6,1.2,0.9c0.4,0.3,0.7,0.6,1,1c0.2,0.2,0.6,0.8,0.9,0.7
			c0.1,0,0.2-0.3,0.1-0.4c0-0.1-0.1-0.1-0.2-0.1c-0.1-0.1-0.3-0.3-0.4-0.4c-0.6-0.7-1.3-1.3-2-1.9c-0.8-0.6-1.7-1-2.7-1.1
			c-0.5,0-1,0-1.5,0c-0.2,0-0.4-0.1-0.6-0.2c-0.2-0.1-0.2-0.2-0.3-0.4c-0.4-1.9,0-3.8-0.1-5.7c0.6,0.3,1.3,0.4,1.9,0.6
			c0.7,0.2,1.4,0.5,2,0.9c0.6,0.4,1.2,0.9,1.5,1.6c0.1,0.1,0.2,0.5,0.4,0.2c0.1-0.1-0.1-0.4-0.2-0.5c-0.1-0.3-0.3-0.5-0.5-0.7
			c-0.8-0.9-1.9-1.4-3-1.8c-0.6-0.2-1.3-0.4-1.9-0.7c-0.1-0.1-0.2-0.1-0.3-0.2c0-0.1,0-0.2,0-0.3c0-0.2-0.1-0.5-0.1-0.7
			c-0.1-0.9-0.5-1.7-1-2.4c-0.3-0.6-0.7-1.2-0.8-1.9c-0.2-0.7-0.2-1.4-0.2-2.1c0-0.4,0-0.8,0.1-1.2c0.1-0.6,0.4-1.2,0.7-1.7
			c0.1-0.1,0.3-0.4,0.2-0.5c-0.1-0.3-0.5,0.2-0.6,0.3c-0.4,0.5-0.8,1-1,1.6c-0.1,0.4-0.1,0.8-0.1,1.1c0,0.7,0,1.4,0.1,2.1
			c0.1,0.4,0.1,0.7,0.3,1c0,0.1,0.1,0.2,0.1,0.4c0,0.1-0.1,0.3-0.2,0.4c-0.4,0.6-0.9,1.1-1.4,1.7c-0.8,1-1.5,2.2-1.5,3.5
			c0,0.2,0,0.4,0,0.6c0,0.1,0.1,0.2,0.3,0.1c0.1,0,0.1-0.2,0.1-0.3c0-0.6,0-1.2,0.2-1.7c0.3-0.7,0.7-1.3,1.2-1.9
			c0.5-0.6,1.1-1.2,1.6-1.8c0.3,0.6,0.6,1.1,0.9,1.7c0.1,0.3,0.2,0.6,0.3,0.9c0.3,1.1,0.2,2.3,0.1,3.4c0,0.3,0,0.7,0,1
			c0,0.2-0.3,0.5-0.4,0.6c-0.2,0.3-0.4,0.5-0.6,0.8c-0.5,0.6-0.9,1.2-1.3,1.9c-0.3,0.6-0.6,1.3-0.5,2.1c0,0.6,0.4,1.2,0.7,1.7
			c0.2,0.3,0.4,0.5,0.5,0.8c0.1,0.1,0.2,0.1,0.3,0c0.2-0.1,0.1-0.3,0-0.5c-0.3-0.6-0.8-1.1-1-1.7c-0.1-0.4-0.1-0.8,0-1.2
			c0.1-0.8,0.7-1.5,1.2-2.2c0.3-0.4,0.7-0.9,1-1.3c0,1.2,0.2,2.5,0.7,3.6c0.5,1.1,1.3,2,2.3,2.7c0.3,0.2,0.7,0.4,1,0.6
			c0.2,0.1,0.4-0.1,0.3-0.3c-0.1-0.1-0.2-0.2-0.3-0.2c-1-0.7-1.8-1.5-2.4-2.5C18.1,27.7,17.9,27.3,17.8,27
			C18,27.1,17.9,27.3,17.8,27z"/>
	</g>
	<g id="XMLID_6_">
		<path id="XMLID_7_" class="st0" d="M5.3,25.6c-0.7-0.1-1.3-0.3-2-0.5c-0.5-0.2-1-0.5-1.5-0.8c0,0-0.1,0-0.1,0
			c-0.1-0.1-0.1-0.1-0.2-0.2c-0.1-0.1-0.2-0.2-0.3-0.4c-0.2-0.3-0.4-0.5-0.5-0.8c-1.2-2.3-0.7-5.3,0.7-7.3c0.8-1.1,1.9-2.1,2.2-3.5
			c0.2-0.7,0.2-1.5,0.2-2.3c0-0.5,0-1.1,0-1.6c0-0.3,0-0.5,0.3-0.7c0.3-0.2,0.7-0.3,1-0.3c0.7-0.2,1.5-0.3,2.2-0.3
			c0.3,0,0.5,0.1,0.6,0.4C8,7.6,8.1,8,8.2,8.4c0.1,0.2,0.2,0.5,0.1,0.7C8.2,9.4,8.1,9.6,8,9.9c-0.4,1-0.6,2-0.9,3
			c-0.2-0.1-0.5-0.2-0.8-0.2c-0.1,0-0.4,0.1-0.2,0.2c0.5,0.4,1.1,0.5,1.2,1.1c0.2,0.7,0.1,1.6-0.1,2.3c-0.3,1.4-1.2,2.7-1.7,4
			c-0.6,1.4-0.8,3-0.4,4.4C5.2,25.2,5.3,25.4,5.3,25.6C5.4,25.6,5.3,25.6,5.3,25.6C5.3,25.6,5.3,25.6,5.3,25.6z"/>
	</g>
	<g id="XMLID_4_">
		<path id="XMLID_5_" class="st0" d="M25.5,14.2c-0.2,0-0.5-0.1-0.7-0.2c-0.3-0.1-0.6-0.2-0.9-0.1c-0.1,0-0.3,0.1-0.4,0.2
			c-0.1,0-0.1,0.1-0.2,0.2c0,0-0.1-0.1-0.1-0.1c-0.3-0.2-0.5-0.5-0.8-0.7c-0.6-0.4-1.1-0.8-1.7-1.2c-0.5-0.4-1.1-0.8-1.3-1.4
			c-0.1-0.3-0.1-0.6-0.1-0.9c0-0.3,0.3-0.3,0.5-0.2c0.7,0.1,1.4,0.4,2,0.7c0.6,0.3,1.3,0.5,1.9,0.7c0.4,0.1,0.7,0.1,1-0.1
			c0.3-0.1,0.6-0.3,1-0.4c0.3-0.1,0.4,0.1,0.5,0.3c0.1,0.3,0,0.5-0.2,0.7c-0.7,0.4-1.4,0.7-2.1,1.1c-0.3,0.1,0.5,0.3,0.5,0.3
			c0.4,0.1,0.8,0.2,1.1,0.3c0.1,0,0.4,0.1,0.5,0.2c0.1,0.2,0,0.2,0,0.4C25.9,13.8,25.7,14.1,25.5,14.2L25.5,14.2z"/>
	</g>
	<g id="XMLID_2_">
		<path id="XMLID_3_" class="st0" d="M7,31.9c-0.5,0.1-1.1,0.2-1.5-0.1c-0.5-0.4-0.6-1.2-0.7-1.7c-0.2-0.7-0.4-1.4-0.6-2.1
			c-0.1-0.4-0.2-0.7-0.3-1.1c-0.1-0.3-0.2-0.8-0.4-1.1c0.7,0.2,1.4,0.3,2,0.5c0.2,0,0.2,0.1,0.2,0.2c0.1,0.1,0.2,0.3,0.3,0.4
			c0.2,0.3,0.4,0.5,0.6,0.8c0.2,0.2,0.4,0.5,0.6,0.7c0.5,0.6,1.1,1.1,1.4,1.8c0,0.1,0.1,0.1,0.1,0.2c0,0.1,0,0.2,0,0.3
			c-0.1,0.2-0.1,0.4-0.3,0.6C8.2,31.7,7.5,31.8,7,31.9L7,31.9C6.1,32.2,7,31.9,7,31.9z"/>
	</g>
</g>
</svg>
