<!-- Generator: Adobe Illustrator 20.1.0, SVG Export Plug-In  -->
<svg version="1.1"
	 xmlns="http://www.w3.org/2000/svg" xmlns:xlink="http://www.w3.org/1999/xlink" xmlns:a="http://ns.adobe.com/AdobeSVGViewerExtensions/3.0/"
	 x="0px" y="0px" width="80.6px" height="16.4px" viewBox="0 0 80.6 16.4"
	 style="overflow:scroll;enable-background:new 0 0 80.6 16.4;" xml:space="preserve">
<style type="text/css">
	.st0{fill:#F18A21;}
</style>
<defs>
</defs>
<g>
	<path class="st0" d="M0,0.8h10.8v2.8H3.4v3.5h6.4v2.6H3.4v6.3H0V0.8z"/>
	<path class="st0" d="M15,3.6h-2.1l2.1-3h3.4L15,3.6z M12.9,5h3v11.1h-3V5z"/>
	<path class="st0" d="M21.2,12.5c0,0.3,0.1,0.6,0.2,0.8c0.1,0.2,0.3,0.4,0.5,0.6s0.5,0.3,0.7,0.3c0.3,0.1,0.6,0.1,0.9,0.1
		c0.2,0,0.4,0,0.7-0.1c0.2-0.1,0.5-0.1,0.6-0.2s0.4-0.3,0.5-0.4s0.2-0.4,0.2-0.7c0-0.2-0.1-0.4-0.2-0.6c-0.2-0.2-0.4-0.3-0.7-0.4
		c-0.3-0.1-0.7-0.2-1.1-0.4s-0.9-0.2-1.5-0.3c-0.4-0.1-0.9-0.2-1.3-0.4c-0.4-0.1-0.8-0.3-1.1-0.5c-0.3-0.2-0.6-0.5-0.8-0.8
		c-0.2-0.3-0.3-0.7-0.3-1.2c0-0.7,0.1-1.3,0.4-1.8c0.3-0.5,0.6-0.8,1.1-1.1c0.5-0.3,1-0.5,1.5-0.6c0.6-0.1,1.2-0.2,1.8-0.2
		s1.2,0.1,1.8,0.2c0.6,0.1,1.1,0.3,1.5,0.6c0.4,0.3,0.8,0.6,1.1,1.1c0.3,0.5,0.5,1,0.5,1.7h-2.9c0-0.6-0.3-1-0.7-1.2
		c-0.4-0.2-0.9-0.3-1.4-0.3c-0.2,0-0.4,0-0.6,0c-0.2,0-0.4,0.1-0.5,0.1C22,7,21.9,7.1,21.8,7.2c-0.1,0.1-0.2,0.3-0.2,0.5
		c0,0.3,0.1,0.5,0.3,0.7s0.5,0.3,0.8,0.4s0.7,0.2,1.1,0.3c0.4,0.1,0.8,0.2,1.3,0.3c0.4,0.1,0.9,0.2,1.3,0.4c0.4,0.1,0.8,0.3,1.1,0.6
		s0.6,0.5,0.8,0.9c0.2,0.4,0.3,0.8,0.3,1.3c0,0.7-0.1,1.3-0.4,1.8c-0.3,0.5-0.7,0.9-1.1,1.2c-0.5,0.3-1,0.5-1.6,0.6
		s-1.2,0.2-1.9,0.2c-0.6,0-1.3-0.1-1.9-0.2c-0.6-0.1-1.2-0.3-1.6-0.7c-0.5-0.3-0.9-0.7-1.2-1.2s-0.5-1.1-0.5-1.8H21.2z"/>
	<path class="st0" d="M33.9,3.3h-3V0.8h3V3.3z M30.9,5h3v11.1h-3V5z"/>
	<path class="st0" d="M44.3,8.9c-0.2-1.3-1-1.9-2.3-1.9c-0.5,0-0.9,0.1-1.2,0.3c-0.3,0.2-0.6,0.5-0.8,0.9s-0.4,0.7-0.4,1.2
		c-0.1,0.4-0.1,0.8-0.1,1.2c0,0.4,0,0.8,0.1,1.2c0.1,0.4,0.2,0.8,0.4,1.1c0.2,0.3,0.5,0.6,0.8,0.8c0.3,0.2,0.7,0.3,1.2,0.3
		c0.7,0,1.3-0.2,1.7-0.6c0.4-0.4,0.7-1,0.8-1.6h2.9c-0.2,1.5-0.8,2.6-1.7,3.4c-0.9,0.8-2.2,1.2-3.6,1.2c-0.8,0-1.6-0.1-2.3-0.4
		c-0.7-0.3-1.3-0.7-1.8-1.2c-0.5-0.5-0.9-1.1-1.1-1.8c-0.3-0.7-0.4-1.5-0.4-2.3c0-0.9,0.1-1.7,0.4-2.4c0.3-0.7,0.6-1.4,1.1-1.9
		c0.5-0.5,1.1-1,1.8-1.3s1.5-0.5,2.4-0.5c0.7,0,1.3,0.1,1.9,0.3c0.6,0.2,1.1,0.4,1.6,0.8s0.9,0.8,1.2,1.3c0.3,0.5,0.5,1.1,0.5,1.8
		H44.3z"/>
	<path class="st0" d="M49.2,10.6c0-0.9,0.1-1.7,0.4-2.4c0.3-0.7,0.7-1.3,1.2-1.8c0.5-0.5,1.1-0.9,1.8-1.2c0.7-0.3,1.5-0.4,2.4-0.4
		c0.9,0,1.7,0.1,2.4,0.4s1.3,0.7,1.8,1.2c0.5,0.5,0.9,1.1,1.2,1.8c0.3,0.7,0.4,1.5,0.4,2.4s-0.1,1.7-0.4,2.4
		c-0.3,0.7-0.7,1.3-1.2,1.8c-0.5,0.5-1.1,0.9-1.8,1.2s-1.5,0.4-2.4,0.4c-0.9,0-1.7-0.1-2.4-0.4c-0.7-0.3-1.3-0.7-1.8-1.2
		c-0.5-0.5-0.9-1.1-1.2-1.8C49.3,12.2,49.2,11.4,49.2,10.6z M52.2,10.6c0,0.4,0,0.9,0.1,1.3c0.1,0.4,0.2,0.8,0.4,1.1
		c0.2,0.3,0.5,0.6,0.8,0.8c0.3,0.2,0.8,0.3,1.3,0.3s0.9-0.1,1.3-0.3c0.4-0.2,0.6-0.5,0.8-0.8c0.2-0.3,0.4-0.7,0.4-1.1
		c0.1-0.4,0.1-0.9,0.1-1.3c0-0.4,0-0.9-0.1-1.3c-0.1-0.4-0.2-0.8-0.4-1.1s-0.5-0.6-0.8-0.8C55.8,7.1,55.4,7,54.9,7s-0.9,0.1-1.3,0.3
		c-0.3,0.2-0.6,0.5-0.8,0.8c-0.2,0.3-0.4,0.7-0.4,1.1C52.3,9.7,52.2,10.1,52.2,10.6z"/>
	<path class="st0" d="M65.4,12.5c0,0.3,0.1,0.6,0.2,0.8c0.1,0.2,0.3,0.4,0.5,0.6s0.5,0.3,0.7,0.3c0.3,0.1,0.6,0.1,0.9,0.1
		c0.2,0,0.4,0,0.7-0.1c0.2-0.1,0.5-0.1,0.6-0.2s0.4-0.3,0.5-0.4c0.1-0.2,0.2-0.4,0.2-0.7c0-0.2-0.1-0.4-0.2-0.6
		c-0.2-0.2-0.4-0.3-0.7-0.4c-0.3-0.1-0.7-0.2-1.1-0.4s-0.9-0.2-1.5-0.3c-0.4-0.1-0.9-0.2-1.3-0.4s-0.8-0.3-1.1-0.5
		c-0.3-0.2-0.6-0.5-0.8-0.8c-0.2-0.3-0.3-0.7-0.3-1.2c0-0.7,0.1-1.3,0.4-1.8c0.3-0.5,0.6-0.8,1.1-1.1s1-0.5,1.5-0.6
		c0.6-0.1,1.2-0.2,1.8-0.2s1.2,0.1,1.8,0.2c0.6,0.1,1.1,0.3,1.5,0.6c0.4,0.3,0.8,0.6,1.1,1.1c0.3,0.5,0.5,1,0.5,1.7h-2.9
		c0-0.6-0.3-1-0.7-1.2c-0.4-0.2-0.9-0.3-1.4-0.3c-0.2,0-0.4,0-0.6,0c-0.2,0-0.4,0.1-0.5,0.1C66.3,7,66.1,7.1,66,7.2
		c-0.1,0.1-0.2,0.3-0.2,0.5c0,0.3,0.1,0.5,0.3,0.7c0.2,0.2,0.5,0.3,0.8,0.4C67.2,9,67.6,9,68,9.1c0.4,0.1,0.8,0.2,1.3,0.3
		c0.4,0.1,0.9,0.2,1.3,0.4c0.4,0.1,0.8,0.3,1.1,0.6c0.3,0.2,0.6,0.5,0.8,0.9c0.2,0.4,0.3,0.8,0.3,1.3c0,0.7-0.1,1.3-0.4,1.8
		c-0.3,0.5-0.7,0.9-1.1,1.2s-1,0.5-1.6,0.6c-0.6,0.1-1.2,0.2-1.9,0.2c-0.6,0-1.3-0.1-1.9-0.2c-0.6-0.1-1.2-0.3-1.6-0.7
		c-0.5-0.3-0.9-0.7-1.2-1.2c-0.3-0.5-0.5-1.1-0.5-1.8H65.4z"/>
	<path class="st0" d="M74.3,3.5c0-0.5,0-1,0.2-1.4c0.1-0.4,0.3-0.8,0.6-1.1c0.3-0.3,0.6-0.6,1-0.8C76.5,0.1,77,0,77.5,0
		c0.4,0,0.8,0.1,1.1,0.2s0.7,0.3,1,0.5s0.5,0.5,0.7,0.9c0.2,0.3,0.2,0.7,0.2,1.2c0,0.3,0,0.6-0.1,0.9c-0.1,0.3-0.2,0.5-0.3,0.7
		c-0.1,0.2-0.3,0.4-0.5,0.6c-0.2,0.2-0.4,0.3-0.6,0.5c-0.2,0.2-0.4,0.3-0.7,0.4C78,6,77.8,6.1,77.6,6.3c-0.2,0.2-0.4,0.3-0.6,0.5
		s-0.4,0.4-0.5,0.6h4.1v1.5h-6.4c0-0.5,0.1-1,0.2-1.3c0.1-0.4,0.3-0.7,0.6-1c0.3-0.3,0.5-0.6,0.9-0.8c0.3-0.3,0.7-0.5,1.1-0.8
		c0.2-0.1,0.4-0.3,0.6-0.4c0.2-0.1,0.4-0.3,0.6-0.5s0.3-0.4,0.5-0.6c0.1-0.2,0.2-0.4,0.2-0.7c0-0.4-0.1-0.7-0.4-1
		c-0.2-0.2-0.6-0.4-0.9-0.4c-0.3,0-0.5,0.1-0.7,0.2c-0.2,0.1-0.3,0.3-0.4,0.5c-0.1,0.2-0.2,0.4-0.2,0.6C76,3.1,76,3.3,76,3.5H74.3z"
		/>
</g>
</svg>
