<!-- Generator: Adobe Illustrator 20.1.0, SVG Export Plug-In  -->
<svg version="1.1"
	 xmlns="http://www.w3.org/2000/svg" xmlns:xlink="http://www.w3.org/1999/xlink" xmlns:a="http://ns.adobe.com/AdobeSVGViewerExtensions/3.0/"
	 x="0px" y="0px" width="28.6px" height="22.9px" viewBox="0 0 28.6 22.9"
	 style="overflow:scroll;enable-background:new 0 0 28.6 22.9;" xml:space="preserve">
<style type="text/css">
	.st0{fill:#FFFFFF;}
	.st1{opacity:0.44;fill:#FFFFFF;}
</style>
<defs>
</defs>
<g id="XMLID_1_">
	<path id="XMLID_7_" class="st0" d="M28.5,0c0,0-1.6,5.3-9.2,5.4c-6.5,0-20.6-1.5-19.2,17.5c0.1,0,2-2.8,5.4-3.7
		C6.8,18.9,30.2,19.4,28.5,0z M14.7,7.1c10.5-0.2,12.4-3.6,12.4-3.6c-0.6,4.3-9.3,4.8-13.4,4.8c-9.9,0-12.4,9.2-12.6,8.4
		C3.1,6.3,13.1,7.3,14.7,7.1z M10.8,15.7C7.4,15.9,1,21.1,1,20.6c3.2-5.2,7.9-7.1,11.7-7.3c9.6-0.3,13.5-4,13.5-4
		C21.8,15,17.3,15.3,10.8,15.7z M13.4,11.5c-7.7,0.8-11.8,7.4-11.8,6.9c1.9-8.5,12.2-8.9,12.2-8.9c13.3-0.3,13.5-4.5,13.5-4.5
		C27.4,12,15.7,11.2,13.4,11.5z"/>
	<path id="XMLID_2_" class="st1" d="M28.5,0c0,0-1.6,5.3-9.2,5.4c-6.5,0-20.6-1.5-19.2,17.5c0.1,0,2-2.8,5.4-3.7
		C6.8,18.9,30.2,19.4,28.5,0z M14.7,7.1c10.5-0.2,12.4-3.6,12.4-3.6c-0.6,4.3-9.3,4.8-13.4,4.8c-9.9,0-12.4,9.2-12.6,8.4
		C3.1,6.3,13.1,7.3,14.7,7.1z M10.8,15.7C7.4,15.9,1,21.1,1,20.6c3.2-5.2,7.9-7.1,11.7-7.3c9.6-0.3,13.5-4,13.5-4
		C21.8,15,17.3,15.3,10.8,15.7z M13.4,11.5c-7.7,0.8-11.8,7.4-11.8,6.9c1.9-8.5,12.2-8.9,12.2-8.9c13.3-0.3,13.5-4.5,13.5-4.5
		C27.4,12,15.7,11.2,13.4,11.5z"/>
</g>
</svg>
