<!-- Generator: Adobe Illustrator 20.1.0, SVG Export Plug-In  -->
<svg version="1.1"
	 xmlns="http://www.w3.org/2000/svg" xmlns:xlink="http://www.w3.org/1999/xlink" xmlns:a="http://ns.adobe.com/AdobeSVGViewerExtensions/3.0/"
	 x="0px" y="0px" width="180.7px" height="14.3px" viewBox="0 0 180.7 14.3"
	 style="overflow:scroll;enable-background:new 0 0 180.7 14.3;" xml:space="preserve">
<style type="text/css">
	.st0{opacity:0.8;fill:#333333;}
</style>
<defs>
</defs>
<g>
	<path class="st0" d="M5.6,0L10,11.1H8.8L7.5,7.6h-5l-1.3,3.4H0L4.5,0H5.6z M7.1,6.7L5,1.1L2.8,6.7H7.1z"/>
	<path class="st0" d="M13.6,0v11.1h-1V0H13.6z"/>
	<path class="st0" d="M20.6,3.1v0.8h-1.6v5.4c0,0.3,0,0.6,0.1,0.8s0.3,0.3,0.7,0.3c0.3,0,0.6,0,0.8,0v0.8c-0.1,0-0.3,0-0.4,0
		c-0.1,0-0.3,0-0.4,0c-0.7,0-1.1-0.1-1.4-0.4c-0.3-0.3-0.4-0.7-0.4-1.4V3.9h-1.4V3.1H18V0.7h1v2.4H20.6z"/>
	<path class="st0" d="M24,4.3c0.2-0.3,0.4-0.6,0.7-0.8c0.3-0.2,0.6-0.4,1-0.5c0.4-0.1,0.8-0.2,1.3-0.2c0.4,0,0.7,0,1.1,0.1
		s0.7,0.2,0.9,0.4c0.3,0.2,0.5,0.4,0.7,0.8s0.3,0.8,0.3,1.3v4.2c0,0.4,0.2,0.6,0.6,0.6c0.1,0,0.2,0,0.3-0.1V11c-0.1,0-0.2,0-0.3,0
		c-0.1,0-0.2,0-0.3,0c-0.2,0-0.4,0-0.6-0.1s-0.3-0.2-0.3-0.3c-0.1-0.1-0.1-0.3-0.2-0.4c0-0.2,0-0.4,0-0.6h0
		c-0.2,0.3-0.4,0.5-0.5,0.7c-0.2,0.2-0.4,0.4-0.6,0.5c-0.2,0.1-0.5,0.2-0.8,0.3s-0.6,0.1-1,0.1c-0.4,0-0.7,0-1-0.1
		c-0.3-0.1-0.6-0.2-0.9-0.4c-0.2-0.2-0.4-0.4-0.6-0.7c-0.1-0.3-0.2-0.6-0.2-1c0-0.6,0.1-1,0.4-1.3s0.6-0.6,1-0.7
		c0.4-0.2,0.9-0.3,1.4-0.3c0.5-0.1,1-0.1,1.6-0.2c0.2,0,0.4,0,0.5-0.1c0.2,0,0.3-0.1,0.4-0.2c0.1-0.1,0.2-0.2,0.2-0.3
		c0.1-0.1,0.1-0.3,0.1-0.5c0-0.3-0.1-0.6-0.2-0.8c-0.1-0.2-0.3-0.4-0.4-0.5c-0.2-0.1-0.4-0.2-0.7-0.3c-0.3,0-0.5-0.1-0.8-0.1
		c-0.6,0-1.1,0.1-1.5,0.4c-0.4,0.3-0.6,0.8-0.6,1.4h-1C23.8,5.1,23.9,4.7,24,4.3z M28.9,6.7c-0.1,0.1-0.2,0.2-0.4,0.2
		C28.4,7,28.2,7,28.1,7.1c-0.4,0.1-0.8,0.1-1.3,0.2c-0.4,0.1-0.8,0.1-1.2,0.3C25.3,7.6,25,7.8,24.7,8c-0.2,0.2-0.3,0.5-0.3,0.9
		c0,0.2,0,0.5,0.1,0.7c0.1,0.2,0.2,0.4,0.4,0.5s0.4,0.2,0.6,0.3c0.2,0.1,0.4,0.1,0.7,0.1c0.4,0,0.7-0.1,1.1-0.2
		c0.3-0.1,0.6-0.3,0.9-0.5s0.5-0.5,0.6-0.8c0.1-0.3,0.2-0.7,0.2-1.1L28.9,6.7L28.9,6.7z"/>
	<path class="st0" d="M44.8,4.2c-0.4-0.3-0.9-0.5-1.5-0.5c-0.5,0-0.9,0.1-1.2,0.3c-0.4,0.2-0.6,0.5-0.9,0.8C41,5,40.8,5.4,40.7,5.8
		c-0.1,0.4-0.2,0.8-0.2,1.2c0,0.4,0.1,0.8,0.2,1.2c0.1,0.4,0.3,0.8,0.5,1.1c0.2,0.3,0.5,0.6,0.9,0.8c0.4,0.2,0.8,0.3,1.2,0.3
		c0.3,0,0.6-0.1,0.9-0.2c0.3-0.1,0.5-0.3,0.7-0.5c0.2-0.2,0.4-0.4,0.5-0.7c0.1-0.3,0.2-0.6,0.2-0.9h1c-0.1,1-0.5,1.7-1.1,2.3
		c-0.6,0.5-1.3,0.8-2.2,0.8c-0.6,0-1.1-0.1-1.6-0.3c-0.5-0.2-0.9-0.5-1.2-0.9c-0.3-0.4-0.6-0.8-0.7-1.3c-0.2-0.5-0.2-1.1-0.2-1.6
		c0-0.6,0.1-1.1,0.2-1.6c0.2-0.5,0.4-1,0.7-1.3s0.7-0.7,1.2-0.9c0.5-0.2,1-0.3,1.6-0.3c0.9,0,1.6,0.2,2.2,0.7
		c0.6,0.5,0.9,1.1,1.1,2.1h-1C45.4,5,45.2,4.5,44.8,4.2z"/>
	<path class="st0" d="M50,4.3c0.2-0.3,0.4-0.6,0.7-0.8c0.3-0.2,0.6-0.4,1-0.5c0.4-0.1,0.8-0.2,1.3-0.2c0.4,0,0.7,0,1.1,0.1
		s0.7,0.2,0.9,0.4c0.3,0.2,0.5,0.4,0.7,0.8s0.3,0.8,0.3,1.3v4.2c0,0.4,0.2,0.6,0.6,0.6c0.1,0,0.2,0,0.3-0.1V11c-0.1,0-0.2,0-0.3,0
		c-0.1,0-0.2,0-0.3,0c-0.2,0-0.4,0-0.6-0.1s-0.3-0.2-0.3-0.3c-0.1-0.1-0.1-0.3-0.2-0.4c0-0.2,0-0.4,0-0.6h0
		c-0.2,0.3-0.4,0.5-0.5,0.7c-0.2,0.2-0.4,0.4-0.6,0.5c-0.2,0.1-0.5,0.2-0.8,0.3s-0.6,0.1-1,0.1c-0.4,0-0.7,0-1-0.1
		c-0.3-0.1-0.6-0.2-0.9-0.4c-0.2-0.2-0.4-0.4-0.6-0.7c-0.1-0.3-0.2-0.6-0.2-1c0-0.6,0.1-1,0.4-1.3s0.6-0.6,1-0.7
		c0.4-0.2,0.9-0.3,1.4-0.3c0.5-0.1,1-0.1,1.6-0.2c0.2,0,0.4,0,0.5-0.1c0.2,0,0.3-0.1,0.4-0.2c0.1-0.1,0.2-0.2,0.2-0.3
		c0.1-0.1,0.1-0.3,0.1-0.5c0-0.3-0.1-0.6-0.2-0.8c-0.1-0.2-0.3-0.4-0.4-0.5c-0.2-0.1-0.4-0.2-0.7-0.3c-0.3,0-0.5-0.1-0.8-0.1
		c-0.6,0-1.1,0.1-1.5,0.4c-0.4,0.3-0.6,0.8-0.6,1.4h-1C49.8,5.1,49.9,4.7,50,4.3z M54.9,6.7c-0.1,0.1-0.2,0.2-0.4,0.2
		C54.4,7,54.2,7,54.1,7.1c-0.4,0.1-0.8,0.1-1.3,0.2c-0.4,0.1-0.8,0.1-1.2,0.3c-0.4,0.1-0.7,0.3-0.9,0.5c-0.2,0.2-0.3,0.5-0.3,0.9
		c0,0.2,0,0.5,0.1,0.7c0.1,0.2,0.2,0.4,0.4,0.5s0.4,0.2,0.6,0.3c0.2,0.1,0.4,0.1,0.7,0.1c0.4,0,0.7-0.1,1.1-0.2
		c0.3-0.1,0.6-0.3,0.9-0.5s0.5-0.5,0.6-0.8c0.1-0.3,0.2-0.7,0.2-1.1L54.9,6.7L54.9,6.7z"/>
	<path class="st0" d="M60.6,3.1v1.9h0c0.2-0.7,0.6-1.2,1.2-1.5C62.3,3.1,63,2.9,63.7,3v1c-0.4,0-0.8,0-1.2,0.2
		c-0.4,0.1-0.7,0.3-0.9,0.6s-0.5,0.6-0.6,0.9c-0.1,0.4-0.2,0.7-0.2,1.2v4.3h-1v-8H60.6z"/>
	<path class="st0" d="M73,12c-0.1,0.5-0.3,0.9-0.6,1.2s-0.6,0.6-1.1,0.8s-1,0.3-1.7,0.3c-0.4,0-0.8,0-1.2-0.1
		c-0.4-0.1-0.7-0.2-1-0.4c-0.3-0.2-0.6-0.4-0.8-0.8c-0.2-0.3-0.3-0.7-0.3-1.1h1c0.1,0.3,0.2,0.6,0.3,0.8c0.1,0.2,0.3,0.4,0.5,0.5
		s0.4,0.2,0.7,0.3s0.5,0.1,0.8,0.1c0.9,0,1.6-0.3,2-0.8c0.4-0.5,0.6-1.3,0.6-2.2V9.3h0c-0.2,0.5-0.6,0.9-1,1.2
		c-0.4,0.3-1,0.5-1.5,0.5c-0.6,0-1.2-0.1-1.6-0.3c-0.5-0.2-0.8-0.5-1.1-0.9c-0.3-0.4-0.5-0.8-0.6-1.3c-0.1-0.5-0.2-1-0.2-1.6
		c0-0.5,0.1-1.1,0.2-1.6C66.5,4.8,66.7,4.4,67,4c0.3-0.4,0.7-0.7,1.1-0.9s1-0.3,1.5-0.3c0.3,0,0.6,0,0.8,0.1s0.5,0.2,0.7,0.3
		c0.2,0.1,0.4,0.3,0.6,0.5C72,4,72.1,4.2,72.2,4.5h0V3.1h1v7.3C73.2,11,73.2,11.5,73,12z M70.8,9.9c0.3-0.2,0.6-0.4,0.8-0.7
		c0.2-0.3,0.4-0.6,0.5-1s0.2-0.8,0.2-1.2c0-0.4,0-0.8-0.1-1.2C72,5.4,71.9,5,71.7,4.7c-0.2-0.3-0.5-0.6-0.8-0.8s-0.7-0.3-1.2-0.3
		s-0.9,0.1-1.2,0.3c-0.3,0.2-0.6,0.4-0.8,0.8c-0.2,0.3-0.4,0.7-0.5,1.1C67.1,6.2,67,6.6,67,7c0,0.4,0.1,0.8,0.2,1.2
		c0.1,0.4,0.3,0.7,0.5,1c0.2,0.3,0.5,0.5,0.8,0.7c0.3,0.2,0.7,0.3,1.2,0.3C70.1,10.2,70.5,10.1,70.8,9.9z"/>
	<path class="st0" d="M77.2,4.3c0.2-0.3,0.4-0.6,0.7-0.8c0.3-0.2,0.6-0.4,1-0.5c0.4-0.1,0.8-0.2,1.3-0.2c0.4,0,0.7,0,1.1,0.1
		s0.7,0.2,0.9,0.4c0.3,0.2,0.5,0.4,0.7,0.8s0.3,0.8,0.3,1.3v4.2c0,0.4,0.2,0.6,0.6,0.6c0.1,0,0.2,0,0.3-0.1V11c-0.1,0-0.2,0-0.3,0
		c-0.1,0-0.2,0-0.3,0c-0.2,0-0.4,0-0.6-0.1s-0.3-0.2-0.3-0.3c-0.1-0.1-0.1-0.3-0.2-0.4c0-0.2,0-0.4,0-0.6h0
		c-0.2,0.3-0.4,0.5-0.5,0.7c-0.2,0.2-0.4,0.4-0.6,0.5c-0.2,0.1-0.5,0.2-0.8,0.3s-0.6,0.1-1,0.1c-0.4,0-0.7,0-1-0.1
		c-0.3-0.1-0.6-0.2-0.9-0.4c-0.2-0.2-0.4-0.4-0.6-0.7c-0.1-0.3-0.2-0.6-0.2-1c0-0.6,0.1-1,0.4-1.3s0.6-0.6,1-0.7
		c0.4-0.2,0.9-0.3,1.4-0.3c0.5-0.1,1-0.1,1.6-0.2c0.2,0,0.4,0,0.5-0.1c0.2,0,0.3-0.1,0.4-0.2C81.9,6.1,81.9,6,82,5.8
		c0.1-0.1,0.1-0.3,0.1-0.5c0-0.3-0.1-0.6-0.2-0.8c-0.1-0.2-0.3-0.4-0.4-0.5c-0.2-0.1-0.4-0.2-0.7-0.3c-0.3,0-0.5-0.1-0.8-0.1
		c-0.6,0-1.1,0.1-1.5,0.4c-0.4,0.3-0.6,0.8-0.6,1.4h-1C76.9,5.1,77,4.7,77.2,4.3z M82,6.7c-0.1,0.1-0.2,0.2-0.4,0.2
		C81.5,7,81.4,7,81.2,7.1c-0.4,0.1-0.8,0.1-1.3,0.2c-0.4,0.1-0.8,0.1-1.2,0.3c-0.4,0.1-0.7,0.3-0.9,0.5c-0.2,0.2-0.3,0.5-0.3,0.9
		c0,0.2,0,0.5,0.1,0.7c0.1,0.2,0.2,0.4,0.4,0.5s0.4,0.2,0.6,0.3c0.2,0.1,0.4,0.1,0.7,0.1c0.4,0,0.7-0.1,1.1-0.2
		c0.3-0.1,0.6-0.3,0.9-0.5s0.5-0.5,0.6-0.8C82,8.7,82.1,8.4,82.1,8L82,6.7L82,6.7z"/>
	<path class="st0" d="M99.2,11.1V9.6h0c-0.1,0.3-0.3,0.5-0.5,0.7c-0.2,0.2-0.4,0.4-0.7,0.6c-0.3,0.2-0.5,0.3-0.8,0.3
		c-0.3,0.1-0.6,0.1-0.9,0.1c-0.6,0-1.1-0.1-1.6-0.3c-0.4-0.2-0.8-0.5-1.1-0.9s-0.5-0.8-0.7-1.3c-0.1-0.5-0.2-1.1-0.2-1.6
		c0-0.6,0.1-1.1,0.2-1.6c0.1-0.5,0.4-1,0.7-1.3s0.7-0.7,1.1-0.9s1-0.3,1.6-0.3c0.3,0,0.6,0,0.9,0.1C97.5,3,97.7,3.1,98,3.3
		c0.2,0.2,0.5,0.3,0.7,0.6C98.8,4,99,4.3,99.1,4.6h0V0h1v11.1H99.2z M93.8,8.3c0.1,0.4,0.3,0.8,0.5,1.1c0.2,0.3,0.5,0.6,0.8,0.8
		c0.3,0.2,0.7,0.3,1.2,0.3c0.5,0,1-0.1,1.3-0.3c0.4-0.2,0.6-0.5,0.9-0.8s0.4-0.7,0.5-1.1c0.1-0.4,0.1-0.8,0.1-1.2
		c0-0.4,0-0.8-0.1-1.2c-0.1-0.4-0.3-0.8-0.5-1.1S98,4.2,97.6,4c-0.4-0.2-0.8-0.3-1.3-0.3c-0.5,0-0.9,0.1-1.2,0.3
		c-0.3,0.2-0.6,0.5-0.8,0.8c-0.2,0.3-0.4,0.7-0.5,1.1s-0.1,0.8-0.1,1.2C93.7,7.5,93.7,7.9,93.8,8.3z"/>
	<path class="st0" d="M104.5,8.4c0.1,0.4,0.3,0.7,0.5,1c0.2,0.3,0.5,0.5,0.8,0.7c0.3,0.2,0.7,0.3,1.2,0.3c0.7,0,1.3-0.2,1.7-0.6
		c0.4-0.4,0.7-0.9,0.8-1.5h1c-0.2,0.9-0.6,1.6-1.1,2.1c-0.6,0.5-1.3,0.7-2.3,0.7c-0.6,0-1.2-0.1-1.6-0.3c-0.5-0.2-0.8-0.5-1.1-0.9
		s-0.5-0.8-0.6-1.3c-0.1-0.5-0.2-1.1-0.2-1.6c0-0.5,0.1-1,0.2-1.5c0.1-0.5,0.4-1,0.6-1.4c0.3-0.4,0.7-0.7,1.1-1
		c0.5-0.2,1-0.4,1.6-0.4c0.6,0,1.2,0.1,1.6,0.4c0.5,0.3,0.8,0.6,1.1,1c0.3,0.4,0.5,0.9,0.6,1.4c0.1,0.5,0.2,1.1,0.2,1.7h-6.2
		C104.4,7.7,104.4,8,104.5,8.4z M109.4,5.4c-0.1-0.3-0.3-0.6-0.5-0.9s-0.5-0.5-0.8-0.6c-0.3-0.2-0.7-0.2-1.1-0.2
		c-0.4,0-0.8,0.1-1.1,0.2c-0.3,0.2-0.6,0.4-0.8,0.6c-0.2,0.3-0.4,0.6-0.5,0.9c-0.1,0.3-0.2,0.7-0.3,1.1h5.2
		C109.5,6.1,109.5,5.8,109.4,5.4z"/>
	<path class="st0" d="M123.1,3.1v0.8h-1.6v5.4c0,0.3,0,0.6,0.1,0.8s0.3,0.3,0.7,0.3c0.3,0,0.6,0,0.8,0v0.8c-0.1,0-0.3,0-0.4,0
		c-0.1,0-0.3,0-0.4,0c-0.7,0-1.1-0.1-1.4-0.4c-0.3-0.3-0.4-0.7-0.4-1.4V3.9h-1.4V3.1h1.4V0.7h1v2.4H123.1z"/>
	<path class="st0" d="M127.2,3.1v1.9h0c0.2-0.7,0.6-1.2,1.2-1.5c0.5-0.4,1.1-0.5,1.9-0.5v1c-0.4,0-0.8,0-1.2,0.2
		c-0.4,0.1-0.7,0.3-0.9,0.6s-0.5,0.6-0.6,0.9c-0.1,0.4-0.2,0.7-0.2,1.2v4.3h-1v-8H127.2z"/>
	<path class="st0" d="M133.3,4.3c0.2-0.3,0.4-0.6,0.7-0.8c0.3-0.2,0.6-0.4,1-0.5c0.4-0.1,0.8-0.2,1.3-0.2c0.4,0,0.7,0,1.1,0.1
		s0.7,0.2,0.9,0.4c0.3,0.2,0.5,0.4,0.7,0.8s0.3,0.8,0.3,1.3v4.2c0,0.4,0.2,0.6,0.6,0.6c0.1,0,0.2,0,0.3-0.1V11c-0.1,0-0.2,0-0.3,0
		c-0.1,0-0.2,0-0.3,0c-0.2,0-0.4,0-0.6-0.1s-0.3-0.2-0.3-0.3c-0.1-0.1-0.1-0.3-0.2-0.4c0-0.2,0-0.4,0-0.6h0
		c-0.2,0.3-0.4,0.5-0.5,0.7c-0.2,0.2-0.4,0.4-0.6,0.5c-0.2,0.1-0.5,0.2-0.8,0.3s-0.6,0.1-1,0.1c-0.4,0-0.7,0-1-0.1
		c-0.3-0.1-0.6-0.2-0.9-0.4c-0.2-0.2-0.4-0.4-0.6-0.7c-0.1-0.3-0.2-0.6-0.2-1c0-0.6,0.1-1,0.4-1.3s0.6-0.6,1-0.7
		c0.4-0.2,0.9-0.3,1.4-0.3c0.5-0.1,1-0.1,1.6-0.2c0.2,0,0.4,0,0.5-0.1c0.2,0,0.3-0.1,0.4-0.2c0.1-0.1,0.2-0.2,0.2-0.3
		c0.1-0.1,0.1-0.3,0.1-0.5c0-0.3-0.1-0.6-0.2-0.8c-0.1-0.2-0.3-0.4-0.4-0.5c-0.2-0.1-0.4-0.2-0.7-0.3c-0.3,0-0.5-0.1-0.8-0.1
		c-0.6,0-1.1,0.1-1.5,0.4c-0.4,0.3-0.6,0.8-0.6,1.4h-1C133,5.1,133.1,4.7,133.3,4.3z M138.2,6.7c-0.1,0.1-0.2,0.2-0.4,0.2
		c-0.2,0.1-0.3,0.1-0.5,0.1c-0.4,0.1-0.8,0.1-1.3,0.2c-0.4,0.1-0.8,0.1-1.2,0.3c-0.4,0.1-0.7,0.3-0.9,0.5c-0.2,0.2-0.3,0.5-0.3,0.9
		c0,0.2,0,0.5,0.1,0.7c0.1,0.2,0.2,0.4,0.4,0.5s0.4,0.2,0.6,0.3c0.2,0.1,0.4,0.1,0.7,0.1c0.4,0,0.7-0.1,1.1-0.2
		c0.3-0.1,0.6-0.3,0.9-0.5s0.5-0.5,0.6-0.8c0.1-0.3,0.2-0.7,0.2-1.1L138.2,6.7L138.2,6.7z"/>
	<path class="st0" d="M144,0v4.6h0c0.1-0.3,0.3-0.5,0.4-0.8c0.2-0.2,0.4-0.4,0.7-0.6c0.2-0.1,0.5-0.3,0.8-0.3
		c0.3-0.1,0.6-0.1,0.9-0.1c0.6,0,1.1,0.1,1.6,0.3s0.8,0.5,1.1,0.9s0.5,0.8,0.7,1.3c0.1,0.5,0.2,1.1,0.2,1.6c0,0.6-0.1,1.1-0.2,1.6
		c-0.1,0.5-0.4,1-0.7,1.3s-0.7,0.7-1.1,0.9c-0.4,0.2-1,0.3-1.6,0.3c-0.7,0-1.2-0.1-1.7-0.4s-0.9-0.7-1.1-1.3h0v1.5H143V0H144z
		 M149.2,5.8c-0.1-0.4-0.3-0.8-0.5-1.1S148.3,4.2,148,4c-0.3-0.2-0.7-0.3-1.2-0.3c-0.5,0-1,0.1-1.3,0.3c-0.4,0.2-0.6,0.5-0.9,0.8
		s-0.4,0.7-0.5,1.1C144,6.2,144,6.7,144,7.1c0,0.4,0,0.8,0.1,1.2c0.1,0.4,0.3,0.8,0.5,1.1s0.5,0.6,0.9,0.8c0.4,0.2,0.8,0.3,1.3,0.3
		c0.5,0,0.9-0.1,1.2-0.3s0.6-0.5,0.8-0.8s0.4-0.7,0.5-1.1s0.1-0.8,0.1-1.2C149.4,6.7,149.3,6.2,149.2,5.8z"/>
	<path class="st0" d="M153.9,4.3c0.2-0.3,0.4-0.6,0.7-0.8c0.3-0.2,0.6-0.4,1-0.5c0.4-0.1,0.8-0.2,1.3-0.2c0.4,0,0.7,0,1.1,0.1
		s0.7,0.2,0.9,0.4c0.3,0.2,0.5,0.4,0.7,0.8s0.3,0.8,0.3,1.3v4.2c0,0.4,0.2,0.6,0.6,0.6c0.1,0,0.2,0,0.3-0.1V11c-0.1,0-0.2,0-0.3,0
		c-0.1,0-0.2,0-0.3,0c-0.2,0-0.4,0-0.6-0.1s-0.3-0.2-0.3-0.3c-0.1-0.1-0.1-0.3-0.2-0.4c0-0.2,0-0.4,0-0.6h0
		c-0.2,0.3-0.4,0.5-0.5,0.7c-0.2,0.2-0.4,0.4-0.6,0.5c-0.2,0.1-0.5,0.2-0.8,0.3s-0.6,0.1-1,0.1c-0.4,0-0.7,0-1-0.1
		c-0.3-0.1-0.6-0.2-0.9-0.4c-0.2-0.2-0.4-0.4-0.6-0.7c-0.1-0.3-0.2-0.6-0.2-1c0-0.6,0.1-1,0.4-1.3s0.6-0.6,1-0.7
		c0.4-0.2,0.9-0.3,1.4-0.3c0.5-0.1,1-0.1,1.6-0.2c0.2,0,0.4,0,0.5-0.1c0.2,0,0.3-0.1,0.4-0.2c0.1-0.1,0.2-0.2,0.2-0.3
		c0.1-0.1,0.1-0.3,0.1-0.5c0-0.3-0.1-0.6-0.2-0.8c-0.1-0.2-0.3-0.4-0.4-0.5c-0.2-0.1-0.4-0.2-0.7-0.3c-0.3,0-0.5-0.1-0.8-0.1
		c-0.6,0-1.1,0.1-1.5,0.4c-0.4,0.3-0.6,0.8-0.6,1.4h-1C153.7,5.1,153.8,4.7,153.9,4.3z M158.8,6.7c-0.1,0.1-0.2,0.2-0.4,0.2
		C158.3,7,158.1,7,158,7.1c-0.4,0.1-0.8,0.1-1.3,0.2c-0.4,0.1-0.8,0.1-1.2,0.3c-0.4,0.1-0.7,0.3-0.9,0.5c-0.2,0.2-0.3,0.5-0.3,0.9
		c0,0.2,0,0.5,0.1,0.7c0.1,0.2,0.2,0.4,0.4,0.5s0.4,0.2,0.6,0.3c0.2,0.1,0.4,0.1,0.7,0.1c0.4,0,0.7-0.1,1.1-0.2
		c0.3-0.1,0.6-0.3,0.9-0.5s0.5-0.5,0.6-0.8c0.1-0.3,0.2-0.7,0.2-1.1L158.8,6.7L158.8,6.7z"/>
	<path class="st0" d="M164.6,3.1v8.7c0,0.3,0,0.6-0.1,0.9c0,0.3-0.1,0.5-0.3,0.7s-0.3,0.4-0.5,0.5s-0.5,0.2-0.8,0.2
		c-0.1,0-0.2,0-0.3,0c-0.1,0-0.2,0-0.3,0v-0.8c0.1,0,0.2,0,0.3,0c0.1,0,0.2,0,0.2,0c0.4,0,0.6-0.1,0.7-0.3c0.1-0.2,0.2-0.5,0.2-0.8
		v-9H164.6z M164.6,0v1.6h-1V0H164.6z"/>
	<path class="st0" d="M173.4,3.2c0.5,0.2,0.9,0.5,1.2,0.9s0.6,0.8,0.7,1.3c0.2,0.5,0.2,1.1,0.2,1.6c0,0.6-0.1,1.1-0.2,1.6
		c-0.2,0.5-0.4,1-0.7,1.3c-0.3,0.4-0.7,0.7-1.2,0.9c-0.5,0.2-1,0.3-1.6,0.3s-1.1-0.1-1.6-0.3c-0.5-0.2-0.9-0.5-1.2-0.9
		c-0.3-0.4-0.6-0.8-0.7-1.3c-0.2-0.5-0.2-1.1-0.2-1.6c0-0.6,0.1-1.1,0.2-1.6c0.2-0.5,0.4-1,0.7-1.3s0.7-0.7,1.2-0.9
		c0.5-0.2,1-0.3,1.6-0.3S172.9,3,173.4,3.2z M170.5,4c-0.4,0.2-0.6,0.5-0.9,0.8c-0.2,0.3-0.4,0.7-0.5,1.1C169,6.2,169,6.6,169,7.1
		c0,0.4,0.1,0.8,0.2,1.2c0.1,0.4,0.3,0.8,0.5,1.1c0.2,0.3,0.5,0.6,0.9,0.8c0.4,0.2,0.8,0.3,1.2,0.3c0.5,0,0.9-0.1,1.2-0.3
		s0.6-0.5,0.9-0.8c0.2-0.3,0.4-0.7,0.5-1.1c0.1-0.4,0.2-0.8,0.2-1.2c0-0.4-0.1-0.8-0.2-1.2c-0.1-0.4-0.3-0.8-0.5-1.1
		c-0.2-0.3-0.5-0.6-0.9-0.8s-0.8-0.3-1.2-0.3C171.3,3.7,170.9,3.8,170.5,4z"/>
	<path class="st0" d="M179.4,9.4h1.3v1.6h-1.3V9.4z"/>
</g>
</svg>
