<!-- Generator: Adobe Illustrator 20.1.0, SVG Export Plug-In  -->
<svg version="1.1"
	 xmlns="http://www.w3.org/2000/svg" xmlns:xlink="http://www.w3.org/1999/xlink" xmlns:a="http://ns.adobe.com/AdobeSVGViewerExtensions/3.0/"
	 x="0px" y="0px" width="69.3px" height="24.5px" viewBox="0 0 69.3 24.5"
	 style="overflow:scroll;enable-background:new 0 0 69.3 24.5;" xml:space="preserve">
<style type="text/css">
	.st0{fill:#020202;}
</style>
<defs>
</defs>
<g>
	<g>
		<path class="st0" d="M0,0h4.9C5.3,0,5.7,0.1,6,0.2c0.3,0.1,0.6,0.3,0.8,0.5C7.1,1,7.3,1.2,7.4,1.5s0.2,0.6,0.2,1
			c0,0.5-0.1,1-0.3,1.4C7,4.3,6.6,4.6,6.1,4.8v0C6.4,4.9,6.6,5,6.7,5.1C6.9,5.3,7,5.4,7.1,5.6C7.2,5.8,7.3,6,7.4,6.3
			c0,0.2,0.1,0.5,0.1,0.7c0,0.1,0,0.3,0,0.5c0,0.2,0,0.4,0,0.6c0,0.2,0.1,0.4,0.1,0.6c0,0.2,0.1,0.3,0.2,0.5h-2
			C5.8,8.9,5.7,8.8,5.7,8.6c0-0.2-0.1-0.4-0.1-0.5c0-0.2,0-0.4-0.1-0.6s0-0.4-0.1-0.6c-0.1-0.5-0.2-0.8-0.4-1S4.5,5.5,4,5.5H2v3.6H0
			V0z M2,4.1h2.2c0.4,0,0.8-0.1,1-0.3c0.2-0.2,0.4-0.5,0.4-1c0-0.4-0.1-0.8-0.4-1C5,1.7,4.6,1.6,4.2,1.6H2V4.1z"/>
		<path class="st0" d="M10.5,6.2c0,0.6,0.2,1,0.4,1.3c0.3,0.3,0.7,0.4,1.2,0.4c0.4,0,0.7-0.1,0.9-0.3c0.3-0.2,0.4-0.4,0.5-0.6h1.6
			c-0.3,0.8-0.6,1.3-1.2,1.7S12.8,9.3,12,9.3c-0.5,0-1-0.1-1.4-0.3S9.9,8.6,9.6,8.3C9.3,8,9.1,7.6,8.9,7.2C8.8,6.8,8.7,6.3,8.7,5.8
			c0-0.5,0.1-1,0.2-1.4C9.1,4,9.3,3.6,9.6,3.3c0.3-0.3,0.7-0.6,1.1-0.7c0.4-0.2,0.9-0.3,1.4-0.3c0.6,0,1,0.1,1.5,0.3s0.8,0.5,1,0.9
			c0.3,0.4,0.5,0.8,0.6,1.2c0.1,0.5,0.2,1,0.1,1.5H10.5z M13.4,5.1c-0.1-0.5-0.2-0.8-0.5-1s-0.5-0.4-1-0.4c-0.3,0-0.5,0-0.7,0.1
			s-0.3,0.2-0.5,0.4c-0.1,0.1-0.2,0.3-0.2,0.5c0,0.2-0.1,0.3-0.1,0.4H13.4z"/>
		<path class="st0" d="M17.7,7c0,0.2,0,0.4,0.1,0.5c0.1,0.1,0.2,0.3,0.3,0.3C18.3,7.9,18.4,8,18.6,8c0.2,0,0.3,0.1,0.5,0.1
			c0.1,0,0.3,0,0.4,0c0.1,0,0.3-0.1,0.4-0.1c0.1-0.1,0.2-0.1,0.3-0.3c0.1-0.1,0.1-0.2,0.1-0.4c0-0.1,0-0.3-0.1-0.3s-0.2-0.2-0.4-0.3
			c-0.2-0.1-0.4-0.1-0.6-0.2c-0.3-0.1-0.5-0.1-0.9-0.2C18,6.1,17.7,6.1,17.5,6c-0.3-0.1-0.5-0.2-0.7-0.3c-0.2-0.1-0.4-0.3-0.5-0.5
			s-0.2-0.4-0.2-0.7c0-0.4,0.1-0.8,0.2-1c0.2-0.3,0.4-0.5,0.7-0.6c0.3-0.2,0.6-0.3,0.9-0.3c0.3-0.1,0.7-0.1,1-0.1c0.4,0,0.7,0,1,0.1
			c0.3,0.1,0.6,0.2,0.9,0.3s0.5,0.4,0.7,0.6c0.2,0.3,0.3,0.6,0.3,1h-1.7c0-0.3-0.2-0.6-0.4-0.7S19.3,3.5,19,3.5c-0.1,0-0.2,0-0.3,0
			c-0.1,0-0.2,0-0.3,0.1c-0.1,0-0.2,0.1-0.2,0.2C18,3.9,18,4,18,4.2c0,0.2,0.1,0.3,0.2,0.4c0.1,0.1,0.3,0.2,0.5,0.2
			C18.8,4.9,19,4.9,19.3,5C19.5,5,19.7,5.1,20,5.1c0.3,0.1,0.5,0.1,0.8,0.2s0.5,0.2,0.7,0.3c0.2,0.1,0.4,0.3,0.5,0.5
			C22,6.4,22.1,6.7,22.1,7c0,0.4-0.1,0.8-0.3,1.1c-0.2,0.3-0.4,0.5-0.7,0.7c-0.3,0.2-0.6,0.3-1,0.4c-0.4,0.1-0.7,0.1-1.1,0.1
			c-0.4,0-0.8,0-1.1-0.1c-0.4-0.1-0.7-0.2-1-0.4c-0.3-0.2-0.5-0.4-0.7-0.7S16,7.4,16,7H17.7z"/>
		<path class="st0" d="M25,1.5h-1.8V0H25V1.5z M23.2,2.5H25v6.6h-1.8V2.5z"/>
		<path class="st0" d="M27.8,7c0,0.2,0,0.4,0.1,0.5c0.1,0.1,0.2,0.3,0.3,0.3C28.4,7.9,28.5,8,28.7,8c0.2,0,0.3,0.1,0.5,0.1
			c0.1,0,0.3,0,0.4,0c0.1,0,0.3-0.1,0.4-0.1c0.1-0.1,0.2-0.1,0.3-0.3c0.1-0.1,0.1-0.2,0.1-0.4c0-0.1,0-0.3-0.1-0.3S30,6.7,29.9,6.6
			c-0.2-0.1-0.4-0.1-0.6-0.2c-0.3-0.1-0.5-0.1-0.9-0.2c-0.3-0.1-0.5-0.1-0.8-0.2c-0.3-0.1-0.5-0.2-0.7-0.3c-0.2-0.1-0.4-0.3-0.5-0.5
			s-0.2-0.4-0.2-0.7c0-0.4,0.1-0.8,0.2-1c0.2-0.3,0.4-0.5,0.7-0.6c0.3-0.2,0.6-0.3,0.9-0.3c0.3-0.1,0.7-0.1,1-0.1c0.4,0,0.7,0,1,0.1
			c0.3,0.1,0.6,0.2,0.9,0.3s0.5,0.4,0.7,0.6C31.9,3.7,32,4,32,4.4h-1.7c0-0.3-0.2-0.6-0.4-0.7s-0.5-0.2-0.8-0.2c-0.1,0-0.2,0-0.3,0
			c-0.1,0-0.2,0-0.3,0.1c-0.1,0-0.2,0.1-0.2,0.2c-0.1,0.1-0.1,0.2-0.1,0.3c0,0.2,0.1,0.3,0.2,0.4c0.1,0.1,0.3,0.2,0.5,0.2
			c0.2,0.1,0.4,0.1,0.7,0.2c0.2,0.1,0.5,0.1,0.8,0.2c0.3,0.1,0.5,0.1,0.8,0.2s0.5,0.2,0.7,0.3C31.8,5.8,31.9,6,32,6.2
			c0.1,0.2,0.2,0.5,0.2,0.8c0,0.4-0.1,0.8-0.3,1.1c-0.2,0.3-0.4,0.5-0.7,0.7c-0.3,0.2-0.6,0.3-1,0.4c-0.4,0.1-0.7,0.1-1.1,0.1
			c-0.4,0-0.8,0-1.1-0.1c-0.4-0.1-0.7-0.2-1-0.4c-0.3-0.2-0.5-0.4-0.7-0.7S26.1,7.4,26.1,7H27.8z"/>
		<path class="st0" d="M35.6,2.5h1.3v1.2h-1.3V7c0,0.3,0.1,0.5,0.2,0.6c0.1,0.1,0.3,0.2,0.6,0.2c0.2,0,0.4,0,0.6-0.1v1.4
			c-0.2,0-0.3,0-0.5,0.1c-0.2,0-0.4,0-0.5,0c-0.3,0-0.5,0-0.8-0.1c-0.3,0-0.5-0.1-0.7-0.2S34,8.6,33.9,8.4s-0.2-0.5-0.2-0.8V3.7
			h-1.1V2.5h1.1v-2h1.8V2.5z"/>
		<path class="st0" d="M39.2,6.2c0,0.6,0.2,1,0.4,1.3c0.3,0.3,0.7,0.4,1.2,0.4c0.4,0,0.7-0.1,0.9-0.3c0.3-0.2,0.4-0.4,0.5-0.6h1.6
			c-0.3,0.8-0.6,1.3-1.2,1.7s-1.2,0.5-1.9,0.5c-0.5,0-1-0.1-1.4-0.3s-0.8-0.4-1.1-0.7C38,8,37.8,7.6,37.7,7.2
			c-0.2-0.4-0.2-0.9-0.2-1.4c0-0.5,0.1-1,0.2-1.4c0.2-0.4,0.4-0.8,0.7-1.1C38.7,3,39,2.8,39.4,2.6c0.4-0.2,0.9-0.3,1.4-0.3
			c0.6,0,1,0.1,1.5,0.3s0.8,0.5,1,0.9c0.3,0.4,0.5,0.8,0.6,1.2C44,5.2,44,5.7,44,6.2H39.2z M42.2,5.1c-0.1-0.5-0.2-0.8-0.5-1
			s-0.5-0.4-1-0.4c-0.3,0-0.5,0-0.7,0.1s-0.3,0.2-0.5,0.4c-0.1,0.1-0.2,0.3-0.2,0.5c0,0.2-0.1,0.3-0.1,0.4H42.2z"/>
		<path class="st0" d="M45.1,2.5h1.7v0.9h0c0.2-0.4,0.5-0.6,0.9-0.8c0.4-0.2,0.7-0.3,1.1-0.3c0.5,0,0.9,0.1,1.2,0.2
			c0.3,0.1,0.6,0.3,0.7,0.5c0.2,0.2,0.3,0.5,0.4,0.9c0.1,0.3,0.1,0.7,0.1,1.1v4h-1.8V5.4c0-0.5-0.1-0.9-0.3-1.2
			c-0.2-0.3-0.5-0.4-0.9-0.4c-0.5,0-0.8,0.1-1.1,0.4S46.9,5,46.9,5.6v3.5h-1.8V2.5z"/>
		<path class="st0" d="M57.1,4.8c-0.1-0.8-0.6-1.1-1.3-1.1c-0.3,0-0.5,0.1-0.7,0.2c-0.2,0.1-0.4,0.3-0.5,0.5s-0.2,0.4-0.3,0.7
			c-0.1,0.3-0.1,0.5-0.1,0.7c0,0.2,0,0.5,0.1,0.7c0.1,0.2,0.1,0.5,0.2,0.7c0.1,0.2,0.3,0.4,0.5,0.5c0.2,0.1,0.4,0.2,0.7,0.2
			c0.4,0,0.8-0.1,1-0.4c0.2-0.2,0.4-0.6,0.4-1h1.7c-0.1,0.9-0.5,1.5-1,2s-1.3,0.7-2.2,0.7c-0.5,0-1-0.1-1.4-0.2
			c-0.4-0.2-0.8-0.4-1-0.7C53,8,52.8,7.7,52.6,7.3s-0.2-0.9-0.2-1.4c0-0.5,0.1-1,0.2-1.4C52.8,4,53,3.7,53.3,3.3s0.6-0.6,1.1-0.7
			c0.4-0.2,0.9-0.3,1.4-0.3c0.4,0,0.8,0.1,1.1,0.2s0.7,0.3,1,0.5c0.3,0.2,0.5,0.5,0.7,0.8s0.3,0.7,0.3,1.1H57.1z"/>
		<path class="st0" d="M61.8,1.5H60V0h1.8V1.5z M60,2.5h1.8v6.6H60V2.5z"/>
		<path class="st0" d="M63.1,4.5c0-0.4,0.1-0.8,0.3-1.1c0.2-0.3,0.4-0.5,0.7-0.7s0.6-0.3,1-0.4c0.4-0.1,0.7-0.1,1.1-0.1
			c0.3,0,0.7,0,1,0.1c0.3,0,0.6,0.1,0.9,0.3s0.5,0.3,0.7,0.6c0.2,0.2,0.3,0.6,0.3,1v3.4c0,0.3,0,0.6,0.1,0.9c0,0.3,0.1,0.5,0.2,0.6
			h-1.8c0-0.1-0.1-0.2-0.1-0.3c0-0.1,0-0.2,0-0.3c-0.3,0.3-0.6,0.5-1,0.6c-0.4,0.1-0.8,0.2-1.2,0.2c-0.3,0-0.6,0-0.9-0.1
			c-0.3-0.1-0.5-0.2-0.7-0.4c-0.2-0.2-0.4-0.4-0.5-0.6c-0.1-0.2-0.2-0.5-0.2-0.9c0-0.4,0.1-0.7,0.2-0.9c0.1-0.2,0.3-0.4,0.5-0.6
			c0.2-0.1,0.5-0.3,0.7-0.3s0.5-0.1,0.8-0.2c0.3,0,0.5-0.1,0.8-0.1c0.3,0,0.5-0.1,0.7-0.1C66.8,5,67,5,67.1,4.9
			c0.1-0.1,0.2-0.2,0.2-0.4c0-0.2,0-0.4-0.1-0.5c-0.1-0.1-0.1-0.2-0.3-0.3c-0.1-0.1-0.2-0.1-0.4-0.1c-0.1,0-0.3,0-0.5,0
			c-0.3,0-0.6,0.1-0.8,0.2c-0.2,0.2-0.3,0.4-0.4,0.8H63.1z M67.3,5.9C67.2,5.9,67.1,6,67,6s-0.2,0.1-0.4,0.1c-0.1,0-0.3,0-0.4,0.1
			c-0.1,0-0.3,0-0.4,0.1c-0.1,0-0.3,0.1-0.4,0.1c-0.1,0-0.2,0.1-0.3,0.2s-0.2,0.2-0.2,0.3c-0.1,0.1-0.1,0.3-0.1,0.4
			c0,0.2,0,0.3,0.1,0.4c0.1,0.1,0.1,0.2,0.2,0.3C65.2,8,65.3,8,65.4,8c0.1,0,0.3,0,0.4,0c0.4,0,0.6-0.1,0.8-0.2
			c0.2-0.1,0.3-0.3,0.4-0.4c0.1-0.2,0.2-0.3,0.2-0.5c0-0.2,0-0.3,0-0.4V5.9z"/>
		<path class="st0" d="M9.2,19.8c0-0.4,0.1-0.8,0.3-1.1c0.2-0.3,0.4-0.5,0.7-0.7s0.6-0.3,1-0.4c0.4-0.1,0.7-0.1,1.1-0.1
			c0.3,0,0.7,0,1,0.1c0.3,0,0.6,0.1,0.9,0.3s0.5,0.3,0.7,0.6c0.2,0.2,0.3,0.6,0.3,1v3.4c0,0.3,0,0.6,0.1,0.9c0,0.3,0.1,0.5,0.2,0.6
			h-1.8c0-0.1-0.1-0.2-0.1-0.3c0-0.1,0-0.2,0-0.3c-0.3,0.3-0.6,0.5-1,0.6c-0.4,0.1-0.8,0.2-1.2,0.2c-0.3,0-0.6,0-0.9-0.1
			c-0.3-0.1-0.5-0.2-0.7-0.4c-0.2-0.2-0.4-0.4-0.5-0.6C9,23.2,9,22.9,9,22.6c0-0.4,0.1-0.7,0.2-0.9c0.1-0.2,0.3-0.4,0.5-0.6
			c0.2-0.1,0.5-0.3,0.7-0.3s0.5-0.1,0.8-0.2c0.3,0,0.5-0.1,0.8-0.1c0.3,0,0.5-0.1,0.7-0.1c0.2-0.1,0.4-0.1,0.5-0.2
			c0.1-0.1,0.2-0.2,0.2-0.4c0-0.2,0-0.4-0.1-0.5C13.2,19.1,13.1,19,13,19c-0.1-0.1-0.2-0.1-0.4-0.1c-0.1,0-0.3,0-0.5,0
			c-0.3,0-0.6,0.1-0.8,0.2c-0.2,0.2-0.3,0.4-0.4,0.8H9.2z M13.3,21.1c-0.1,0.1-0.2,0.1-0.3,0.2s-0.2,0.1-0.4,0.1
			c-0.1,0-0.3,0-0.4,0.1c-0.1,0-0.3,0-0.4,0.1c-0.1,0-0.3,0.1-0.4,0.1c-0.1,0-0.2,0.1-0.3,0.2s-0.2,0.2-0.2,0.3
			c-0.1,0.1-0.1,0.3-0.1,0.4c0,0.2,0,0.3,0.1,0.4c0.1,0.1,0.1,0.2,0.2,0.3c0.1,0.1,0.2,0.1,0.4,0.1c0.1,0,0.3,0,0.4,0
			c0.4,0,0.6-0.1,0.8-0.2c0.2-0.1,0.3-0.3,0.4-0.4c0.1-0.2,0.2-0.3,0.2-0.5c0-0.2,0-0.3,0-0.4V21.1z"/>
		<path class="st0" d="M16.6,15.3h1.8v9.1h-1.8V15.3z"/>
		<path class="st0" d="M24.9,21.5c0,0.6,0.2,1,0.4,1.3c0.3,0.3,0.7,0.4,1.2,0.4c0.4,0,0.7-0.1,0.9-0.3c0.3-0.2,0.4-0.4,0.5-0.6h1.6
			c-0.3,0.8-0.6,1.3-1.2,1.7s-1.2,0.5-1.9,0.5c-0.5,0-1-0.1-1.4-0.3s-0.8-0.4-1.1-0.7c-0.3-0.3-0.5-0.7-0.7-1.1
			c-0.2-0.4-0.2-0.9-0.2-1.4c0-0.5,0.1-1,0.2-1.4c0.2-0.4,0.4-0.8,0.7-1.1c0.3-0.3,0.7-0.6,1.1-0.7c0.4-0.2,0.9-0.3,1.4-0.3
			c0.6,0,1,0.1,1.5,0.3s0.8,0.5,1,0.9c0.3,0.4,0.5,0.8,0.6,1.2c0.1,0.5,0.2,1,0.1,1.5H24.9z M27.8,20.4c-0.1-0.5-0.2-0.8-0.5-1
			s-0.5-0.4-1-0.4c-0.3,0-0.5,0-0.7,0.1s-0.3,0.2-0.5,0.4c-0.1,0.1-0.2,0.3-0.2,0.5c0,0.2-0.1,0.3-0.1,0.4H27.8z"/>
		<path class="st0" d="M32.1,22.2c0,0.2,0,0.4,0.1,0.5c0.1,0.1,0.2,0.3,0.3,0.3c0.1,0.1,0.3,0.2,0.4,0.2c0.2,0,0.3,0.1,0.5,0.1
			c0.1,0,0.3,0,0.4,0c0.1,0,0.3-0.1,0.4-0.1c0.1-0.1,0.2-0.1,0.3-0.3c0.1-0.1,0.1-0.2,0.1-0.4c0-0.1,0-0.3-0.1-0.3s-0.2-0.2-0.4-0.3
			c-0.2-0.1-0.4-0.1-0.6-0.2c-0.3-0.1-0.5-0.1-0.9-0.2c-0.3-0.1-0.5-0.1-0.8-0.2c-0.3-0.1-0.5-0.2-0.7-0.3c-0.2-0.1-0.4-0.3-0.5-0.5
			s-0.2-0.4-0.2-0.7c0-0.4,0.1-0.8,0.2-1c0.2-0.3,0.4-0.5,0.7-0.6c0.3-0.2,0.6-0.3,0.9-0.3c0.3-0.1,0.7-0.1,1-0.1c0.4,0,0.7,0,1,0.1
			c0.3,0.1,0.6,0.2,0.9,0.3s0.5,0.4,0.7,0.6c0.2,0.3,0.3,0.6,0.3,1h-1.7c0-0.3-0.2-0.6-0.4-0.7s-0.5-0.2-0.8-0.2c-0.1,0-0.2,0-0.3,0
			c-0.1,0-0.2,0-0.3,0.1c-0.1,0-0.2,0.1-0.2,0.2c-0.1,0.1-0.1,0.2-0.1,0.3c0,0.2,0.1,0.3,0.2,0.4c0.1,0.1,0.3,0.2,0.5,0.2
			c0.2,0.1,0.4,0.1,0.7,0.2c0.2,0.1,0.5,0.1,0.8,0.2c0.3,0.1,0.5,0.1,0.8,0.2s0.5,0.2,0.7,0.3c0.2,0.1,0.4,0.3,0.5,0.5
			c0.1,0.2,0.2,0.5,0.2,0.8c0,0.4-0.1,0.8-0.3,1.1c-0.2,0.3-0.4,0.5-0.7,0.7c-0.3,0.2-0.6,0.3-1,0.4c-0.4,0.1-0.7,0.1-1.1,0.1
			c-0.4,0-0.8,0-1.1-0.1c-0.4-0.1-0.7-0.2-1-0.4c-0.3-0.2-0.5-0.4-0.7-0.7s-0.3-0.7-0.3-1.1H32.1z"/>
		<path class="st0" d="M39.8,17.8h1.3V19h-1.3v3.3c0,0.3,0.1,0.5,0.2,0.6c0.1,0.1,0.3,0.2,0.6,0.2c0.2,0,0.4,0,0.6-0.1v1.4
			c-0.2,0-0.3,0-0.5,0.1c-0.2,0-0.4,0-0.5,0c-0.3,0-0.5,0-0.8-0.1c-0.3,0-0.5-0.1-0.7-0.2s-0.3-0.3-0.5-0.5S38,23.2,38,22.9V19h-1.1
			v-1.2H38v-2h1.8V17.8z"/>
		<path class="st0" d="M42,17.8h1.7V19h0c0.1-0.2,0.2-0.4,0.3-0.6c0.1-0.2,0.3-0.3,0.5-0.4c0.2-0.1,0.4-0.2,0.6-0.3
			c0.2-0.1,0.4-0.1,0.7-0.1c0.1,0,0.3,0,0.4,0.1v1.7c-0.1,0-0.2,0-0.3,0c-0.1,0-0.2,0-0.3,0c-0.3,0-0.6,0.1-0.8,0.2
			c-0.2,0.1-0.4,0.3-0.6,0.5c-0.1,0.2-0.2,0.4-0.3,0.7c-0.1,0.3-0.1,0.5-0.1,0.8v3H42V17.8z"/>
		<path class="st0" d="M48.4,21.5c0,0.6,0.2,1,0.4,1.3c0.3,0.3,0.7,0.4,1.2,0.4c0.4,0,0.7-0.1,0.9-0.3c0.3-0.2,0.4-0.4,0.5-0.6h1.6
			c-0.3,0.8-0.6,1.3-1.2,1.7s-1.2,0.5-1.9,0.5c-0.5,0-1-0.1-1.4-0.3s-0.8-0.4-1.1-0.7c-0.3-0.3-0.5-0.7-0.7-1.1
			c-0.2-0.4-0.2-0.9-0.2-1.4c0-0.5,0.1-1,0.2-1.4c0.2-0.4,0.4-0.8,0.7-1.1c0.3-0.3,0.7-0.6,1.1-0.7c0.4-0.2,0.9-0.3,1.4-0.3
			c0.6,0,1,0.1,1.5,0.3s0.8,0.5,1,0.9c0.3,0.4,0.5,0.8,0.6,1.2c0.1,0.5,0.2,1,0.1,1.5H48.4z M51.4,20.4c-0.1-0.5-0.2-0.8-0.5-1
			s-0.5-0.4-1-0.4c-0.3,0-0.5,0-0.7,0.1s-0.3,0.2-0.5,0.4c-0.1,0.1-0.2,0.3-0.2,0.5c0,0.2-0.1,0.3-0.1,0.4H51.4z M50.2,17H49
			l1.2-1.8h2L50.2,17z"/>
		<path class="st0" d="M55.7,22.2c0,0.2,0,0.4,0.1,0.5c0.1,0.1,0.2,0.3,0.3,0.3c0.1,0.1,0.3,0.2,0.4,0.2c0.2,0,0.3,0.1,0.5,0.1
			c0.1,0,0.3,0,0.4,0c0.1,0,0.3-0.1,0.4-0.1c0.1-0.1,0.2-0.1,0.3-0.3c0.1-0.1,0.1-0.2,0.1-0.4c0-0.1,0-0.3-0.1-0.3s-0.2-0.2-0.4-0.3
			c-0.2-0.1-0.4-0.1-0.6-0.2c-0.3-0.1-0.5-0.1-0.9-0.2c-0.3-0.1-0.5-0.1-0.8-0.2c-0.3-0.1-0.5-0.2-0.7-0.3c-0.2-0.1-0.4-0.3-0.5-0.5
			s-0.2-0.4-0.2-0.7c0-0.4,0.1-0.8,0.2-1c0.2-0.3,0.4-0.5,0.7-0.6c0.3-0.2,0.6-0.3,0.9-0.3c0.3-0.1,0.7-0.1,1-0.1c0.4,0,0.7,0,1,0.1
			c0.3,0.1,0.6,0.2,0.9,0.3s0.5,0.4,0.7,0.6c0.2,0.3,0.3,0.6,0.3,1h-1.7c0-0.3-0.2-0.6-0.4-0.7s-0.5-0.2-0.8-0.2c-0.1,0-0.2,0-0.3,0
			c-0.1,0-0.2,0-0.3,0.1c-0.1,0-0.2,0.1-0.2,0.2c-0.1,0.1-0.1,0.2-0.1,0.3c0,0.2,0.1,0.3,0.2,0.4c0.1,0.1,0.3,0.2,0.5,0.2
			c0.2,0.1,0.4,0.1,0.7,0.2c0.2,0.1,0.5,0.1,0.8,0.2c0.3,0.1,0.5,0.1,0.8,0.2s0.5,0.2,0.7,0.3c0.2,0.1,0.4,0.3,0.5,0.5
			C60,21.7,60,22,60,22.3c0,0.4-0.1,0.8-0.3,1.1c-0.2,0.3-0.4,0.5-0.7,0.7c-0.3,0.2-0.6,0.3-1,0.4c-0.4,0.1-0.7,0.1-1.1,0.1
			c-0.4,0-0.8,0-1.1-0.1c-0.4-0.1-0.7-0.2-1-0.4c-0.3-0.2-0.5-0.4-0.7-0.7s-0.3-0.7-0.3-1.1H55.7z"/>
	</g>
</g>
</svg>
