<!-- Generator: Adobe Illustrator 20.1.0, SVG Export Plug-In  -->
<svg version="1.1"
	 xmlns="http://www.w3.org/2000/svg" xmlns:xlink="http://www.w3.org/1999/xlink" xmlns:a="http://ns.adobe.com/AdobeSVGViewerExtensions/3.0/"
	 x="0px" y="0px" width="147.7px" height="11.5px" viewBox="0 0 147.7 11.5"
	 style="overflow:scroll;enable-background:new 0 0 147.7 11.5;" xml:space="preserve">
<style type="text/css">
	.st0{opacity:0.8;fill:#333333;}
</style>
<defs>
</defs>
<g>
	<path class="st0" d="M5.6,0.2L10,11.3H8.8L7.5,7.9h-5l-1.3,3.4H0L4.5,0.2H5.6z M7.1,7L5,1.3L2.8,7H7.1z"/>
	<path class="st0" d="M12.9,3.3v1.3h0c0.3-0.5,0.6-0.9,1-1.2c0.4-0.3,1-0.4,1.6-0.4c0.5,0,1,0.1,1.4,0.4c0.4,0.3,0.7,0.7,0.9,1.2
		c0.2-0.5,0.6-0.9,1.1-1.2c0.5-0.3,1-0.4,1.5-0.4c1.8,0,2.7,0.9,2.7,2.8v5.4h-1V5.9c0-0.7-0.1-1.2-0.4-1.5c-0.3-0.3-0.8-0.5-1.5-0.5
		c-0.4,0-0.8,0.1-1.1,0.2c-0.3,0.2-0.5,0.4-0.7,0.6c-0.2,0.3-0.3,0.6-0.3,0.9S18,6.4,18,6.8v4.5h-1V5.9c0-0.3,0-0.5-0.1-0.8
		c-0.1-0.2-0.2-0.5-0.3-0.6c-0.1-0.2-0.3-0.3-0.5-0.4c-0.2-0.1-0.5-0.2-0.8-0.2c-0.4,0-0.8,0.1-1.1,0.2c-0.3,0.2-0.6,0.4-0.7,0.6
		c-0.2,0.3-0.3,0.6-0.4,0.9C13.1,6,13,6.4,13,6.8v4.5h-1v-8H12.9z"/>
	<path class="st0" d="M27.2,0.2v4.6h0c0.1-0.3,0.3-0.5,0.4-0.8c0.2-0.2,0.4-0.4,0.7-0.6c0.2-0.1,0.5-0.3,0.8-0.3
		c0.3-0.1,0.6-0.1,0.9-0.1c0.6,0,1.1,0.1,1.6,0.3s0.8,0.5,1.1,0.9s0.5,0.8,0.7,1.3c0.1,0.5,0.2,1.1,0.2,1.6c0,0.6-0.1,1.1-0.2,1.6
		c-0.1,0.5-0.4,1-0.7,1.3S32,11,31.6,11.2c-0.4,0.2-1,0.3-1.6,0.3c-0.7,0-1.2-0.1-1.7-0.4s-0.9-0.7-1.1-1.3h0v1.5h-0.9V0.2H27.2z
		 M32.4,6.1C32.3,5.7,32.2,5.3,32,5s-0.5-0.6-0.8-0.8C30.8,4,30.4,3.9,30,3.9c-0.5,0-1,0.1-1.3,0.3C28.3,4.4,28,4.7,27.8,5
		s-0.4,0.7-0.5,1.1c-0.1,0.4-0.1,0.8-0.1,1.2c0,0.4,0,0.8,0.1,1.2c0.1,0.4,0.3,0.8,0.5,1.1s0.5,0.6,0.9,0.8c0.4,0.2,0.8,0.3,1.3,0.3
		c0.5,0,0.9-0.1,1.2-0.3s0.6-0.5,0.8-0.8s0.4-0.7,0.5-1.1s0.1-0.8,0.1-1.2C32.6,6.9,32.5,6.5,32.4,6.1z"/>
	<path class="st0" d="M37.3,0.2v1.6h-1V0.2H37.3z M37.3,3.3v8h-1v-8H37.3z"/>
	<path class="st0" d="M45.3,4.4c-0.4-0.3-0.9-0.5-1.5-0.5c-0.5,0-0.9,0.1-1.2,0.3C42.2,4.4,42,4.6,41.7,5c-0.2,0.3-0.4,0.7-0.5,1.1
		C41.1,6.5,41,6.9,41,7.3c0,0.4,0.1,0.8,0.2,1.2c0.1,0.4,0.3,0.8,0.5,1.1c0.2,0.3,0.5,0.6,0.9,0.8c0.4,0.2,0.8,0.3,1.2,0.3
		c0.3,0,0.6-0.1,0.9-0.2c0.3-0.1,0.5-0.3,0.7-0.5c0.2-0.2,0.4-0.4,0.5-0.7c0.1-0.3,0.2-0.6,0.2-0.9h1c-0.1,1-0.5,1.7-1.1,2.3
		c-0.6,0.5-1.3,0.8-2.2,0.8c-0.6,0-1.1-0.1-1.6-0.3c-0.5-0.2-0.9-0.5-1.2-0.9c-0.3-0.4-0.6-0.8-0.7-1.3C40.1,8.4,40,7.9,40,7.3
		c0-0.6,0.1-1.1,0.2-1.6c0.2-0.5,0.4-1,0.7-1.3s0.7-0.7,1.2-0.9c0.5-0.2,1-0.3,1.6-0.3c0.9,0,1.6,0.2,2.2,0.7
		c0.6,0.5,0.9,1.1,1.1,2.1h-1C45.9,5.2,45.7,4.7,45.3,4.4z"/>
	<path class="st0" d="M50.7,0.2v1.6h-1V0.2H50.7z M50.7,3.3v8h-1v-8H50.7z"/>
	<path class="st0" d="M58.8,3.4c0.5,0.2,0.9,0.5,1.2,0.9s0.6,0.8,0.7,1.3C60.9,6.2,61,6.7,61,7.3c0,0.6-0.1,1.1-0.2,1.6
		c-0.2,0.5-0.4,1-0.7,1.3c-0.3,0.4-0.7,0.7-1.2,0.9c-0.5,0.2-1,0.3-1.6,0.3s-1.1-0.1-1.6-0.3c-0.5-0.2-0.9-0.5-1.2-0.9
		c-0.3-0.4-0.6-0.8-0.7-1.3c-0.2-0.5-0.2-1.1-0.2-1.6c0-0.6,0.1-1.1,0.2-1.6c0.2-0.5,0.4-1,0.7-1.3s0.7-0.7,1.2-0.9
		c0.5-0.2,1-0.3,1.6-0.3S58.4,3.2,58.8,3.4z M56,4.2c-0.4,0.2-0.6,0.5-0.9,0.8c-0.2,0.3-0.4,0.7-0.5,1.1c-0.1,0.4-0.2,0.8-0.2,1.2
		c0,0.4,0.1,0.8,0.2,1.2c0.1,0.4,0.3,0.8,0.5,1.1c0.2,0.3,0.5,0.6,0.9,0.8c0.4,0.2,0.8,0.3,1.2,0.3c0.5,0,0.9-0.1,1.2-0.3
		s0.6-0.5,0.9-0.8c0.2-0.3,0.4-0.7,0.5-1.1C60,8.1,60,7.7,60,7.3c0-0.4-0.1-0.8-0.2-1.2c-0.1-0.4-0.3-0.8-0.5-1.1
		c-0.2-0.3-0.5-0.6-0.9-0.8s-0.8-0.3-1.2-0.3C56.8,3.9,56.3,4,56,4.2z M56.3,2.2L57.9,0h1.2l-2,2.2H56.3z"/>
	<path class="st0" d="M64.7,3.3v1.4h0c0.2-0.5,0.5-0.9,1-1.2s1-0.4,1.6-0.4c0.6,0,1,0.1,1.4,0.2c0.4,0.1,0.7,0.3,0.9,0.6
		s0.4,0.6,0.5,1c0.1,0.4,0.1,0.8,0.1,1.3v5.1h-1v-5c0-0.3,0-0.7-0.1-1c-0.1-0.3-0.2-0.6-0.3-0.8c-0.2-0.2-0.4-0.4-0.6-0.5
		c-0.3-0.1-0.6-0.2-1-0.2c-0.4,0-0.7,0.1-1,0.2c-0.3,0.1-0.6,0.3-0.8,0.6S65,5.2,64.9,5.5s-0.2,0.7-0.2,1.1v4.7h-1v-8H64.7z"/>
	<path class="st0" d="M79.5,8.7c0.1,0.4,0.3,0.7,0.5,1c0.2,0.3,0.5,0.5,0.8,0.7c0.3,0.2,0.7,0.3,1.2,0.3c0.7,0,1.3-0.2,1.7-0.6
		c0.4-0.4,0.7-0.9,0.8-1.5h1c-0.2,0.9-0.6,1.6-1.1,2.1c-0.6,0.5-1.3,0.7-2.3,0.7c-0.6,0-1.2-0.1-1.6-0.3c-0.5-0.2-0.8-0.5-1.1-0.9
		s-0.5-0.8-0.6-1.3c-0.1-0.5-0.2-1.1-0.2-1.6c0-0.5,0.1-1,0.2-1.5c0.1-0.5,0.4-1,0.6-1.4c0.3-0.4,0.7-0.7,1.1-1
		c0.5-0.2,1-0.4,1.6-0.4c0.6,0,1.2,0.1,1.6,0.4c0.5,0.3,0.8,0.6,1.1,1c0.3,0.4,0.5,0.9,0.6,1.4c0.1,0.5,0.2,1.1,0.2,1.7h-6.2
		C79.4,7.9,79.4,8.3,79.5,8.7z M84.4,5.7c-0.1-0.3-0.3-0.6-0.5-0.9s-0.5-0.5-0.8-0.6C82.8,4,82.4,3.9,82,3.9c-0.4,0-0.8,0.1-1.1,0.2
		c-0.3,0.2-0.6,0.4-0.8,0.6c-0.2,0.3-0.4,0.6-0.5,0.9c-0.1,0.3-0.2,0.7-0.3,1.1h5.2C84.6,6.4,84.5,6,84.4,5.7z"/>
	<path class="st0" d="M88,3.3h1.2l2.3,3l2.2-3H95l-2.9,3.8l3.1,4.2H94l-2.5-3.4L89,11.3h-1.2l3.1-4.2L88,3.3z"/>
	<path class="st0" d="M101.2,3.3v0.8h-1.6v5.4c0,0.3,0,0.6,0.1,0.8s0.3,0.3,0.7,0.3c0.3,0,0.6,0,0.8,0v0.8c-0.1,0-0.3,0-0.4,0
		c-0.1,0-0.3,0-0.4,0c-0.7,0-1.1-0.1-1.4-0.4c-0.3-0.3-0.4-0.7-0.4-1.4V4.1h-1.4V3.3h1.4V0.9h1v2.4H101.2z"/>
	<path class="st0" d="M105.4,3.3v1.9h0c0.2-0.7,0.6-1.2,1.2-1.5c0.5-0.4,1.1-0.5,1.9-0.5v1c-0.4,0-0.8,0-1.2,0.2
		c-0.4,0.1-0.7,0.3-0.9,0.6s-0.5,0.6-0.6,0.9c-0.1,0.4-0.2,0.7-0.2,1.2v4.3h-1v-8H105.4z"/>
	<path class="st0" d="M112,8.7c0.1,0.4,0.3,0.7,0.5,1c0.2,0.3,0.5,0.5,0.8,0.7c0.3,0.2,0.7,0.3,1.2,0.3c0.7,0,1.3-0.2,1.7-0.6
		c0.4-0.4,0.7-0.9,0.8-1.5h1c-0.2,0.9-0.6,1.6-1.1,2.1c-0.6,0.5-1.3,0.7-2.3,0.7c-0.6,0-1.2-0.1-1.6-0.3c-0.5-0.2-0.8-0.5-1.1-0.9
		s-0.5-0.8-0.6-1.3c-0.1-0.5-0.2-1.1-0.2-1.6c0-0.5,0.1-1,0.2-1.5c0.1-0.5,0.4-1,0.6-1.4c0.3-0.4,0.7-0.7,1.1-1
		c0.5-0.2,1-0.4,1.6-0.4c0.6,0,1.2,0.1,1.6,0.4c0.5,0.3,0.8,0.6,1.1,1c0.3,0.4,0.5,0.9,0.6,1.4c0.1,0.5,0.2,1.1,0.2,1.7h-6.2
		C111.8,7.9,111.9,8.3,112,8.7z M116.8,5.7c-0.1-0.3-0.3-0.6-0.5-0.9s-0.5-0.5-0.8-0.6c-0.3-0.2-0.7-0.2-1.1-0.2
		c-0.4,0-0.8,0.1-1.1,0.2c-0.3,0.2-0.6,0.4-0.8,0.6c-0.2,0.3-0.4,0.6-0.5,0.9c-0.1,0.3-0.2,0.7-0.3,1.1h5.2
		C117,6.4,116.9,6,116.8,5.7z"/>
	<path class="st0" d="M122,3.3v1.3h0c0.3-0.5,0.6-0.9,1-1.2c0.4-0.3,1-0.4,1.6-0.4c0.5,0,1,0.1,1.4,0.4c0.4,0.3,0.7,0.7,0.9,1.2
		c0.2-0.5,0.6-0.9,1.1-1.2c0.5-0.3,1-0.4,1.5-0.4c1.8,0,2.7,0.9,2.7,2.8v5.4h-1V5.9c0-0.7-0.1-1.2-0.4-1.5c-0.3-0.3-0.8-0.5-1.5-0.5
		c-0.4,0-0.8,0.1-1.1,0.2c-0.3,0.2-0.5,0.4-0.7,0.6c-0.2,0.3-0.3,0.6-0.3,0.9s-0.1,0.7-0.1,1.1v4.5h-1V5.9c0-0.3,0-0.5-0.1-0.8
		c-0.1-0.2-0.2-0.5-0.3-0.6c-0.1-0.2-0.3-0.3-0.5-0.4c-0.2-0.1-0.5-0.2-0.8-0.2c-0.4,0-0.8,0.1-1.1,0.2c-0.3,0.2-0.6,0.4-0.7,0.6
		c-0.2,0.3-0.3,0.6-0.4,0.9c-0.1,0.4-0.1,0.7-0.1,1.2v4.5h-1v-8H122z"/>
	<path class="st0" d="M136.1,4.5c0.2-0.3,0.4-0.6,0.7-0.8c0.3-0.2,0.6-0.4,1-0.5c0.4-0.1,0.8-0.2,1.3-0.2c0.4,0,0.7,0,1.1,0.1
		s0.7,0.2,0.9,0.4c0.3,0.2,0.5,0.4,0.7,0.8s0.3,0.8,0.3,1.3v4.2c0,0.4,0.2,0.6,0.6,0.6c0.1,0,0.2,0,0.3-0.1v0.8c-0.1,0-0.2,0-0.3,0
		c-0.1,0-0.2,0-0.3,0c-0.2,0-0.4,0-0.6-0.1s-0.3-0.2-0.3-0.3c-0.1-0.1-0.1-0.3-0.2-0.4c0-0.2,0-0.4,0-0.6h0
		c-0.2,0.3-0.4,0.5-0.5,0.7c-0.2,0.2-0.4,0.4-0.6,0.5c-0.2,0.1-0.5,0.2-0.8,0.3s-0.6,0.1-1,0.1c-0.4,0-0.7,0-1-0.1
		c-0.3-0.1-0.6-0.2-0.9-0.4c-0.2-0.2-0.4-0.4-0.6-0.7c-0.1-0.3-0.2-0.6-0.2-1c0-0.6,0.1-1,0.4-1.3s0.6-0.6,1-0.7
		c0.4-0.2,0.9-0.3,1.4-0.3c0.5-0.1,1-0.1,1.6-0.2c0.2,0,0.4,0,0.5-0.1c0.2,0,0.3-0.1,0.4-0.2c0.1-0.1,0.2-0.2,0.2-0.3
		c0.1-0.1,0.1-0.3,0.1-0.5c0-0.3-0.1-0.6-0.2-0.8c-0.1-0.2-0.3-0.4-0.4-0.5C140.2,4.1,140,4,139.8,4c-0.3,0-0.5-0.1-0.8-0.1
		c-0.6,0-1.1,0.1-1.5,0.4c-0.4,0.3-0.6,0.8-0.6,1.4h-1C135.9,5.3,136,4.9,136.1,4.5z M141,6.9c-0.1,0.1-0.2,0.2-0.4,0.2
		c-0.2,0.1-0.3,0.1-0.5,0.1c-0.4,0.1-0.8,0.1-1.3,0.2c-0.4,0.1-0.8,0.1-1.2,0.3c-0.4,0.1-0.7,0.3-0.9,0.5c-0.2,0.2-0.3,0.5-0.3,0.9
		c0,0.2,0,0.5,0.1,0.7c0.1,0.2,0.2,0.4,0.4,0.5s0.4,0.2,0.6,0.3c0.2,0.1,0.4,0.1,0.7,0.1c0.4,0,0.7-0.1,1.1-0.2
		c0.3-0.1,0.6-0.3,0.9-0.5s0.5-0.5,0.6-0.8c0.1-0.3,0.2-0.7,0.2-1.1L141,6.9L141,6.9z"/>
	<path class="st0" d="M146.4,9.7h1.3v1.6h-1.3V9.7z"/>
</g>
</svg>
