<?xml version="1.0" encoding="utf-8"?>
<!-- Generator: Adobe Illustrator 20.1.0, SVG Export Plug-In . SVG Version: 6.00 Build 0)  -->
<svg version="1.1" id="Layer_1" xmlns="http://www.w3.org/2000/svg" xmlns:xlink="http://www.w3.org/1999/xlink" x="0px" y="0px"
	 viewBox="0 0 31.2 30.8" style="enable-background:new 0 0 31.2 30.8;" xml:space="preserve">
<style type="text/css">
	.st0{fill:#F47923;}
	.st1{fill:#FFFFFF;}
</style>
<circle class="st0" cx="15.6" cy="15.4" r="12.5"/>
<g>
	<path class="st1" d="M19.4,15.1c0.7,0.6,1,1.4,1,2.4c0,0.8-0.2,1.5-0.6,2.1s-1,1.1-1.8,1.4c-0.8,0.3-1.6,0.5-2.7,0.5
		c-0.9,0-1.7-0.1-2.5-0.4c-0.8-0.3-1.6-0.6-2.1-1l1-1.9c0.5,0.4,1.1,0.7,1.7,1c0.6,0.2,1.2,0.3,1.9,0.3c0.9,0,1.6-0.2,2.1-0.5
		c0.5-0.4,0.8-0.8,0.8-1.5c0-0.6-0.2-1.1-0.7-1.4c-0.5-0.3-1.2-0.5-2.1-0.5h-1.9v-1.5l3.4-3.3h-5.3l0-2.1h8.5v1.5L16,14l0.7,0.1
		C17.8,14.2,18.7,14.5,19.4,15.1z"/>
</g>
</svg>
