<?xml version="1.0" encoding="utf-8"?>
<!-- Generator: Adobe Illustrator 20.1.0, SVG Export Plug-In . SVG Version: 6.00 Build 0)  -->
<svg version="1.1" id="Layer_1" xmlns="http://www.w3.org/2000/svg" xmlns:xlink="http://www.w3.org/1999/xlink" x="0px" y="0px"
	 viewBox="0 0 291.4 52.9" style="enable-background:new 0 0 291.4 52.9;" xml:space="preserve">
<style type="text/css">
	.st0{fill:#FFFFFF;}
</style>
<g>
	<g>
		<path class="st0" d="M11,9.4C10.2,9.1,9.5,9,8.9,9c-0.4,0-0.8,0.1-1,0.2C7.6,9.4,7.5,9.6,7.5,10c0,0.3,0.1,0.5,0.3,0.7
			c0.2,0.2,0.5,0.4,0.8,0.5c0.3,0.1,0.8,0.3,1.4,0.5c0.9,0.3,1.7,0.5,2.3,0.8c0.6,0.3,1.1,0.7,1.6,1.3c0.4,0.6,0.7,1.3,0.7,2.2
			s-0.2,1.7-0.7,2.3c-0.5,0.6-1.1,1.1-2,1.4c-0.8,0.3-1.8,0.5-2.8,0.5c-1.1,0-2.2-0.2-3.4-0.6c-1.1-0.4-2.1-0.9-2.9-1.6l1.4-2.8
			c0.7,0.6,1.5,1.1,2.4,1.5c0.9,0.4,1.8,0.6,2.5,0.6c0.5,0,0.9-0.1,1.2-0.3c0.3-0.2,0.5-0.5,0.5-0.9c0-0.3-0.1-0.6-0.3-0.8
			c-0.2-0.2-0.5-0.4-0.9-0.5c-0.3-0.1-0.8-0.3-1.4-0.4c-0.9-0.3-1.7-0.5-2.3-0.8c-0.6-0.3-1.1-0.7-1.6-1.2c-0.4-0.5-0.6-1.3-0.6-2.1
			c0-0.8,0.2-1.6,0.7-2.2C4.9,7.4,5.5,7,6.4,6.6c0.8-0.3,1.8-0.5,2.9-0.5c1,0,2,0.1,2.9,0.4c1,0.3,1.8,0.6,2.5,1.1l-1.3,2.8
			C12.6,10,11.8,9.7,11,9.4z"/>
		<path class="st0" d="M26.7,9.5V20h-3.5v-1.7c-0.7,1.2-1.8,1.8-3.4,1.9c-1.1,0-2-0.4-2.7-1.1c-0.7-0.7-1-1.7-1-2.9V9.5h3.5v5.6
			c0,0.6,0.2,1.1,0.5,1.4c0.3,0.3,0.7,0.5,1.2,0.5c0.6,0,1.1-0.2,1.4-0.7c0.3-0.4,0.5-1,0.5-1.7V9.5H26.7z"/>
		<path class="st0" d="M40.5,19.4c-0.4,0.2-0.8,0.4-1.3,0.5c-0.5,0.1-1,0.2-1.5,0.2c-1,0-1.9-0.3-2.5-0.9c-0.6-0.6-1-1.4-1-2.5v-4.5
			h-1.5V10h1.5V7.1h3.4V10h2.7v2.3h-2.7v4c0,0.7,0.3,1.1,0.9,1.1c0.4,0,0.8-0.1,1.3-0.3L40.5,19.4z"/>
		<path class="st0" d="M50.6,10.9c0.9,1,1.4,2.4,1.4,4.1c0,0.3,0,0.5,0,0.6h-7.3c0.2,0.6,0.5,1.1,0.9,1.4c0.4,0.3,0.9,0.5,1.5,0.5
			c0.5,0,0.9-0.1,1.3-0.3c0.4-0.2,0.8-0.4,1.2-0.8l1.8,1.8c-0.5,0.6-1.2,1.1-2,1.4c-0.8,0.3-1.6,0.5-2.6,0.5c-1.1,0-2.1-0.2-2.9-0.7
			c-0.8-0.4-1.5-1.1-1.9-1.9c-0.4-0.8-0.7-1.7-0.7-2.8c0-1.1,0.2-2,0.7-2.8c0.5-0.8,1.1-1.5,1.9-1.9c0.8-0.4,1.8-0.7,2.9-0.7
			C48.4,9.4,49.7,9.9,50.6,10.9z M48.6,13.8c0-0.6-0.2-1.1-0.5-1.5c-0.4-0.4-0.8-0.6-1.4-0.6c-0.5,0-1,0.2-1.4,0.5
			c-0.4,0.4-0.6,0.9-0.7,1.5H48.6z M47.2,5L50,6.1l-2.8,2.2l-2.4-0.2L47.2,5z"/>
		<path class="st0" d="M58.5,12.2c-0.6,0-1.1,0.2-1.5,0.7c-0.4,0.5-0.6,1.1-0.6,1.8c0,0.8,0.2,1.4,0.6,1.8c0.4,0.5,0.9,0.7,1.5,0.7
			c1,0,1.6-0.4,2.1-1.2l2.5,1.5c-0.4,0.8-1,1.4-1.9,1.9c-0.8,0.4-1.8,0.7-2.9,0.7c-1.1,0-2-0.2-2.8-0.7c-0.8-0.4-1.4-1.1-1.9-1.9
			c-0.4-0.8-0.7-1.7-0.7-2.8c0-1.1,0.2-2,0.7-2.8c0.5-0.8,1.1-1.5,1.9-1.9c0.8-0.4,1.8-0.7,2.8-0.7c1,0,2,0.2,2.8,0.6
			c0.8,0.4,1.4,1,1.9,1.8l-2.5,1.5C60,12.6,59.3,12.2,58.5,12.2z"/>
		<path class="st0" d="M74.3,10.4c0.7,0.7,1,1.7,1,2.9V20h-3.4v-5.6c0-0.6-0.2-1.1-0.5-1.4c-0.3-0.3-0.8-0.5-1.3-0.5
			c-0.6,0-1,0.2-1.4,0.6c-0.4,0.4-0.6,0.8-0.6,1.4V20h-3.5V9.5h3.5v1.7c0.4-0.6,0.9-1.1,1.4-1.4c0.6-0.3,1.3-0.5,2-0.5
			C72.7,9.3,73.6,9.7,74.3,10.4z"/>
		<path class="st0" d="M80.7,5.2c0.3,0.3,0.5,0.8,0.5,1.3c0,0.5-0.2,1-0.5,1.3c-0.3,0.3-0.8,0.5-1.3,0.5c-0.5,0-1-0.2-1.3-0.5
			c-0.3-0.3-0.5-0.8-0.5-1.3c0-0.5,0.2-1,0.5-1.3c0.3-0.3,0.8-0.5,1.3-0.5C79.9,4.6,80.4,4.8,80.7,5.2z M77.7,9.5h3.4V20h-3.4V9.5z"
			/>
		<path class="st0" d="M88.5,12.2c-0.6,0-1.1,0.2-1.5,0.7c-0.4,0.5-0.6,1.1-0.6,1.8c0,0.8,0.2,1.4,0.6,1.8c0.4,0.5,0.9,0.7,1.5,0.7
			c1,0,1.6-0.4,2.1-1.2l2.5,1.5c-0.4,0.8-1,1.4-1.9,1.9c-0.8,0.4-1.8,0.7-2.9,0.7c-1.1,0-2-0.2-2.8-0.7c-0.8-0.4-1.4-1.1-1.9-1.9
			c-0.4-0.8-0.7-1.7-0.7-2.8c0-1.1,0.2-2,0.7-2.8c0.5-0.8,1.1-1.5,1.9-1.9c0.8-0.4,1.8-0.7,2.8-0.7c1,0,2,0.2,2.8,0.6
			c0.8,0.4,1.4,1,1.9,1.8l-2.5,1.5C90.1,12.6,89.4,12.2,88.5,12.2z"/>
		<path class="st0" d="M102.6,10.3c0.8,0.7,1.2,1.6,1.2,2.8V20h-3.4v-1.2c-0.7,0.9-1.8,1.3-3.2,1.3c-1.1,0-2-0.3-2.6-0.9
			c-0.6-0.6-1-1.4-1-2.4c0-1,0.3-1.8,1-2.3c0.7-0.6,1.7-0.8,3-0.9h2.7v-0.1c0-0.5-0.2-0.9-0.5-1.2c-0.3-0.3-0.8-0.4-1.5-0.4
			C98,12,97.5,12,97,12.2c-0.5,0.1-1.1,0.3-1.7,0.6l-1-2.3c0.9-0.4,1.7-0.7,2.5-0.9c0.8-0.2,1.6-0.3,2.4-0.3
			C100.7,9.3,101.8,9.7,102.6,10.3z M99.7,17.4c0.4-0.3,0.6-0.6,0.7-1v-0.9h-2.1c-1,0-1.5,0.4-1.5,1.1c0,0.4,0.1,0.6,0.4,0.9
			c0.3,0.2,0.6,0.3,1,0.3C98.9,17.8,99.3,17.6,99.7,17.4z"/>
		<path class="st0" d="M121,5.6V20h-3.5v-1.4c-0.4,0.5-0.8,0.9-1.3,1.1c-0.5,0.3-1.1,0.4-1.8,0.4c-1,0-1.8-0.2-2.6-0.7
			c-0.7-0.5-1.3-1.1-1.7-1.9c-0.4-0.8-0.6-1.8-0.6-2.8c0-1.1,0.2-2,0.6-2.8c0.4-0.8,1-1.4,1.7-1.9c0.7-0.4,1.6-0.7,2.5-0.7
			c0.7,0,1.3,0.1,1.8,0.4c0.5,0.3,1,0.6,1.4,1.1V5.6H121z M117,16.7c0.4-0.5,0.6-1.1,0.6-1.9c0-0.8-0.2-1.4-0.6-1.9
			c-0.4-0.5-1-0.7-1.6-0.7c-0.7,0-1.2,0.2-1.6,0.7c-0.4,0.5-0.6,1.1-0.6,1.9s0.2,1.4,0.6,1.9c0.4,0.5,1,0.7,1.6,0.7
			C116,17.4,116.6,17.1,117,16.7z"/>
		<path class="st0" d="M132.3,10.9c0.9,1,1.4,2.4,1.4,4.1c0,0.3,0,0.5,0,0.6h-7.3c0.2,0.6,0.5,1.1,0.9,1.4c0.4,0.3,0.9,0.5,1.5,0.5
			c0.5,0,0.9-0.1,1.3-0.3c0.4-0.2,0.8-0.4,1.2-0.8l1.8,1.8c-0.5,0.6-1.2,1.1-2,1.4c-0.8,0.3-1.6,0.5-2.6,0.5c-1.1,0-2.1-0.2-2.9-0.7
			c-0.8-0.4-1.5-1.1-1.9-1.9c-0.4-0.8-0.7-1.7-0.7-2.8c0-1.1,0.2-2,0.7-2.8c0.5-0.8,1.1-1.5,1.9-1.9c0.8-0.4,1.8-0.7,2.9-0.7
			C130.1,9.4,131.4,9.9,132.3,10.9z M130.3,13.8c0-0.6-0.2-1.1-0.5-1.5c-0.4-0.4-0.8-0.6-1.4-0.6c-0.5,0-1,0.2-1.4,0.5
			c-0.4,0.4-0.6,0.9-0.7,1.5H130.3z"/>
		<path class="st0" d="M148.3,10.9c0.9,1,1.4,2.4,1.4,4.1c0,0.3,0,0.5,0,0.6h-7.3c0.2,0.6,0.5,1.1,0.9,1.4c0.4,0.3,0.9,0.5,1.5,0.5
			c0.5,0,0.9-0.1,1.3-0.3c0.4-0.2,0.8-0.4,1.2-0.8l1.8,1.8c-0.5,0.6-1.2,1.1-2,1.4c-0.8,0.3-1.6,0.5-2.6,0.5c-1.1,0-2.1-0.2-2.9-0.7
			c-0.8-0.4-1.5-1.1-1.9-1.9c-0.4-0.8-0.7-1.7-0.7-2.8c0-1.1,0.2-2,0.7-2.8c0.5-0.8,1.1-1.5,1.9-1.9c0.8-0.4,1.8-0.7,2.9-0.7
			C146.1,9.4,147.4,9.9,148.3,10.9z M146.3,13.8c0-0.6-0.2-1.1-0.5-1.5c-0.4-0.4-0.8-0.6-1.4-0.6c-0.5,0-1,0.2-1.4,0.5
			c-0.4,0.4-0.6,0.9-0.7,1.5H146.3z"/>
		<path class="st0" d="M161.1,10.4c0.7,0.7,1,1.7,1,2.9V20h-3.4v-5.6c0-0.6-0.2-1.1-0.5-1.4c-0.3-0.3-0.8-0.5-1.3-0.5
			c-0.6,0-1,0.2-1.4,0.6c-0.4,0.4-0.6,0.8-0.6,1.4V20h-3.5V9.5h3.5v1.7c0.4-0.6,0.9-1.1,1.4-1.4c0.6-0.3,1.3-0.5,2-0.5
			C159.5,9.3,160.4,9.7,161.1,10.4z"/>
		<path class="st0" d="M169.2,12.2c-0.6,0-1.1,0.2-1.5,0.7c-0.4,0.5-0.6,1.1-0.6,1.8c0,0.8,0.2,1.4,0.6,1.8c0.4,0.5,0.9,0.7,1.5,0.7
			c1,0,1.6-0.4,2.1-1.2l2.5,1.5c-0.4,0.8-1,1.4-1.9,1.9c-0.8,0.4-1.8,0.7-2.9,0.7c-1.1,0-2-0.2-2.8-0.7c-0.8-0.4-1.4-1.1-1.9-1.9
			c-0.4-0.8-0.7-1.7-0.7-2.8c0-1.1,0.2-2,0.7-2.8c0.5-0.8,1.1-1.5,1.9-1.9c0.8-0.4,1.8-0.7,2.8-0.7c1,0,2,0.2,2.8,0.6
			c0.8,0.4,1.4,1,1.9,1.8l-2.5,1.5C170.8,12.6,170.1,12.2,169.2,12.2z"/>
		<path class="st0" d="M183.3,10.3c0.8,0.7,1.2,1.6,1.2,2.8V20h-3.4v-1.2c-0.7,0.9-1.8,1.3-3.2,1.3c-1.1,0-2-0.3-2.6-0.9
			c-0.6-0.6-1-1.4-1-2.4c0-1,0.3-1.8,1-2.3c0.7-0.6,1.7-0.8,3-0.9h2.7v-0.1c0-0.5-0.2-0.9-0.5-1.2c-0.3-0.3-0.8-0.4-1.5-0.4
			c-0.4,0-0.9,0.1-1.5,0.2c-0.5,0.1-1.1,0.3-1.7,0.6l-1-2.3c0.9-0.4,1.7-0.7,2.5-0.9c0.8-0.2,1.6-0.3,2.4-0.3
			C181.4,9.3,182.5,9.7,183.3,10.3z M180.4,17.4c0.4-0.3,0.6-0.6,0.7-1v-0.9h-2.1c-1,0-1.5,0.4-1.5,1.1c0,0.4,0.1,0.6,0.4,0.9
			c0.3,0.2,0.6,0.3,1,0.3C179.6,17.8,180.1,17.6,180.4,17.4z"/>
		<path class="st0" d="M196.1,10c0.7,0.4,1.3,1.1,1.7,1.9c0.4,0.8,0.6,1.8,0.6,2.8c0,1.1-0.2,2-0.6,2.8c-0.4,0.8-1,1.4-1.7,1.9
			c-0.7,0.4-1.6,0.7-2.5,0.7c-0.7,0-1.3-0.1-1.8-0.4c-0.5-0.3-1-0.6-1.4-1.1v5.1H187V9.5h3.5v1.4c0.8-1,1.8-1.5,3.1-1.5
			C194.5,9.4,195.3,9.6,196.1,10z M194.3,16.6c0.4-0.5,0.6-1.1,0.6-1.9c0-0.8-0.2-1.4-0.6-1.9c-0.4-0.5-1-0.7-1.6-0.7
			c-0.7,0-1.2,0.2-1.6,0.7c-0.4,0.5-0.6,1.1-0.6,1.9c0,0.8,0.2,1.4,0.6,1.9c0.4,0.5,0.9,0.7,1.6,0.7C193.3,17.3,193.9,17,194.3,16.6
			z"/>
		<path class="st0" d="M203.9,11.7c-0.3,0-0.5,0.1-0.7,0.2c-0.2,0.1-0.3,0.3-0.3,0.5c0,0.2,0.1,0.4,0.4,0.6c0.3,0.1,0.7,0.3,1.4,0.5
			c0.7,0.2,1.4,0.4,1.9,0.6c0.5,0.2,0.9,0.5,1.3,1s0.5,1,0.5,1.7c0,1.1-0.4,1.9-1.2,2.5c-0.8,0.6-1.9,0.9-3.2,0.9
			c-0.9,0-1.7-0.1-2.6-0.4c-0.8-0.3-1.5-0.6-2.2-1.1l1.1-2.2c0.6,0.4,1.2,0.7,1.9,1c0.7,0.2,1.3,0.3,1.9,0.3c0.3,0,0.6-0.1,0.8-0.2
			c0.2-0.1,0.3-0.3,0.3-0.5c0-0.3-0.1-0.5-0.4-0.6c-0.3-0.1-0.7-0.3-1.4-0.5c-0.7-0.2-1.3-0.4-1.8-0.6c-0.5-0.2-0.9-0.5-1.3-1
			c-0.4-0.4-0.5-1-0.5-1.7c0-1.1,0.4-1.9,1.2-2.5c0.8-0.6,1.8-0.9,3.1-0.9c0.8,0,1.5,0.1,2.3,0.3c0.7,0.2,1.4,0.5,2.1,0.9l-1.2,2.2
			C205.8,12.1,204.7,11.7,203.9,11.7z"/>
		<path class="st0" d="M220.5,9.5V20H217v-1.7c-0.7,1.2-1.8,1.8-3.4,1.9c-1.1,0-2-0.4-2.7-1.1c-0.7-0.7-1-1.7-1-2.9V9.5h3.5v5.6
			c0,0.6,0.2,1.1,0.5,1.4c0.3,0.3,0.7,0.5,1.2,0.5c0.6,0,1.1-0.2,1.4-0.7c0.3-0.4,0.5-1,0.5-1.7V9.5H220.5z"/>
		<path class="st0" d="M223.2,5.6h3.5V20h-3.5V5.6z"/>
		<path class="st0" d="M237.5,10.3c0.8,0.7,1.2,1.6,1.2,2.8V20h-3.4v-1.2c-0.7,0.9-1.8,1.3-3.2,1.3c-1.1,0-2-0.3-2.6-0.9
			c-0.6-0.6-1-1.4-1-2.4c0-1,0.3-1.8,1-2.3c0.7-0.6,1.7-0.8,3-0.9h2.7v-0.1c0-0.5-0.2-0.9-0.5-1.2c-0.3-0.3-0.8-0.4-1.5-0.4
			c-0.4,0-0.9,0.1-1.5,0.2c-0.5,0.1-1.1,0.3-1.7,0.6l-1-2.3c0.9-0.4,1.7-0.7,2.5-0.9c0.8-0.2,1.6-0.3,2.4-0.3
			C235.5,9.3,236.7,9.7,237.5,10.3z M234.6,17.4c0.4-0.3,0.6-0.6,0.7-1v-0.9h-2.1c-1,0-1.5,0.4-1.5,1.1c0,0.4,0.1,0.6,0.4,0.9
			c0.3,0.2,0.6,0.3,1,0.3C233.7,17.8,234.2,17.6,234.6,17.4z"/>
		<path class="st0" d="M245.7,12.2c-0.6,0-1.1,0.2-1.5,0.7c-0.4,0.5-0.6,1.1-0.6,1.8c0,0.8,0.2,1.4,0.6,1.8c0.4,0.5,0.9,0.7,1.5,0.7
			c1,0,1.6-0.4,2.1-1.2l2.5,1.5c-0.4,0.8-1,1.4-1.9,1.9c-0.8,0.4-1.8,0.7-2.9,0.7c-1.1,0-2-0.2-2.8-0.7c-0.8-0.4-1.4-1.1-1.9-1.9
			c-0.4-0.8-0.7-1.7-0.7-2.8c0-1.1,0.2-2,0.7-2.8c0.5-0.8,1.1-1.5,1.9-1.9c0.8-0.4,1.8-0.7,2.8-0.7c1,0,2,0.2,2.8,0.6
			c0.8,0.4,1.4,1,1.9,1.8l-2.5,1.5C247.3,12.6,246.6,12.2,245.7,12.2z"/>
		<path class="st0" d="M254.9,5.2c0.3,0.3,0.5,0.8,0.5,1.3c0,0.5-0.2,1-0.5,1.3c-0.3,0.3-0.8,0.5-1.3,0.5c-0.5,0-1-0.2-1.3-0.5
			c-0.3-0.3-0.5-0.8-0.5-1.3c0-0.5,0.2-1,0.5-1.3c0.3-0.3,0.8-0.5,1.3-0.5C254.1,4.6,254.6,4.8,254.9,5.2z M251.9,9.5h3.4V20h-3.4
			V9.5z"/>
		<path class="st0" d="M265.9,10c0.9,0.4,1.5,1.1,2,1.9c0.5,0.8,0.7,1.7,0.7,2.8c0,1.1-0.2,2-0.7,2.8c-0.5,0.8-1.2,1.4-2,1.9
			c-0.9,0.4-1.9,0.7-3,0.7c-1.1,0-2.1-0.2-3-0.7c-0.9-0.4-1.5-1.1-2-1.9c-0.5-0.8-0.7-1.7-0.7-2.8c0-1.1,0.2-2,0.7-2.8
			c0.5-0.8,1.1-1.4,2-1.9c0.9-0.4,1.9-0.7,3-0.7C264,9.4,265,9.6,265.9,10z M261.2,12.9c-0.4,0.5-0.6,1.1-0.6,1.9
			c0,0.8,0.2,1.4,0.6,1.9c0.4,0.5,1,0.7,1.6,0.7c0.7,0,1.2-0.2,1.6-0.7c0.4-0.5,0.6-1.1,0.6-1.9c0-0.8-0.2-1.4-0.6-1.9
			c-0.4-0.5-1-0.7-1.6-0.7C262.2,12.1,261.6,12.4,261.2,12.9z M263.4,5l2.9,1.1l-2.8,2.2l-2.4-0.2L263.4,5z"/>
		<path class="st0" d="M280,10.4c0.7,0.7,1,1.7,1,2.9V20h-3.4v-5.6c0-0.6-0.2-1.1-0.5-1.4c-0.3-0.3-0.8-0.5-1.3-0.5
			c-0.6,0-1,0.2-1.4,0.6c-0.4,0.4-0.6,0.8-0.6,1.4V20h-3.5V9.5h3.5v1.7c0.4-0.6,0.9-1.1,1.4-1.4c0.6-0.3,1.3-0.5,2-0.5
			C278.4,9.3,279.3,9.7,280,10.4z"/>
		<path class="st0" d="M13.1,34.5c0.7,0.4,1.3,1.1,1.7,1.9c0.4,0.8,0.6,1.8,0.6,2.8c0,1.1-0.2,2-0.6,2.8c-0.4,0.8-1,1.4-1.7,1.9
			c-0.7,0.4-1.6,0.7-2.5,0.7c-0.7,0-1.3-0.1-1.8-0.4c-0.5-0.3-1-0.6-1.4-1.1v5.1H4V34h3.5v1.4c0.8-1,1.8-1.5,3.1-1.5
			C11.6,33.8,12.4,34.1,13.1,34.5z M11.4,41.1c0.4-0.5,0.6-1.1,0.6-1.9c0-0.8-0.2-1.4-0.6-1.9c-0.4-0.5-1-0.7-1.6-0.7
			c-0.7,0-1.2,0.2-1.6,0.7c-0.4,0.5-0.6,1.1-0.6,1.9c0,0.8,0.2,1.4,0.6,1.9c0.4,0.5,0.9,0.7,1.6,0.7C10.4,41.8,10.9,41.5,11.4,41.1z
			"/>
		<path class="st0" d="M25.8,35.4c0.9,1,1.4,2.4,1.4,4.1c0,0.3,0,0.5,0,0.6h-7.3c0.2,0.6,0.5,1.1,0.9,1.4c0.4,0.3,0.9,0.5,1.5,0.5
			c0.5,0,0.9-0.1,1.3-0.3c0.4-0.2,0.8-0.4,1.2-0.8l1.8,1.8c-0.5,0.6-1.2,1.1-2,1.4c-0.8,0.3-1.6,0.5-2.6,0.5c-1.1,0-2.1-0.2-2.9-0.7
			c-0.8-0.4-1.5-1.1-1.9-1.9c-0.4-0.8-0.7-1.7-0.7-2.8c0-1.1,0.2-2,0.7-2.8c0.5-0.8,1.1-1.5,1.9-1.9c0.8-0.4,1.8-0.7,2.9-0.7
			C23.6,33.8,24.9,34.3,25.8,35.4z M23.8,38.3c0-0.6-0.2-1.1-0.5-1.5c-0.4-0.4-0.8-0.6-1.4-0.6c-0.5,0-1,0.2-1.4,0.5
			c-0.4,0.4-0.6,0.9-0.7,1.5H23.8z"/>
		<path class="st0" d="M33.8,34.3c0.6-0.3,1.2-0.5,2-0.5V37c-0.1,0-0.3,0-0.5,0c-0.8,0-1.5,0.2-2,0.6c-0.5,0.4-0.8,0.9-0.9,1.6v5.4
			h-3.5V34h3.5v1.7C32.8,35.1,33.2,34.6,33.8,34.3z"/>
		<path class="st0" d="M54,34.9c0.7,0.7,1,1.7,1,2.9v6.6h-3.5v-5.6c0-0.6-0.2-1.1-0.5-1.4c-0.3-0.3-0.7-0.5-1.3-0.5
			c-0.6,0-1.1,0.2-1.4,0.7c-0.4,0.4-0.5,1-0.5,1.7v5.2h-3.5v-5.6c0-0.6-0.2-1.1-0.5-1.4c-0.3-0.3-0.7-0.5-1.3-0.5
			c-0.6,0-1.1,0.2-1.5,0.7c-0.4,0.4-0.5,1-0.5,1.7v5.2h-3.4V34h3.4v1.7c0.4-0.6,0.8-1.1,1.4-1.4c0.6-0.3,1.2-0.5,2-0.5
			c0.9,0,1.6,0.2,2.2,0.6c0.6,0.4,1,1,1.3,1.7c0.3-0.8,0.8-1.4,1.4-1.8c0.6-0.4,1.4-0.6,2.2-0.6C52.4,33.8,53.3,34.2,54,34.9z"/>
		<path class="st0" d="M60.4,29.6c0.3,0.3,0.5,0.8,0.5,1.3c0,0.5-0.2,1-0.5,1.3c-0.3,0.3-0.8,0.5-1.3,0.5c-0.5,0-1-0.2-1.3-0.5
			c-0.3-0.3-0.5-0.8-0.5-1.3c0-0.5,0.2-1,0.5-1.3c0.3-0.3,0.8-0.5,1.3-0.5C59.6,29.1,60,29.3,60.4,29.6z M57.4,34h3.4v10.5h-3.4V34z
			"/>
		<path class="st0" d="M70.3,43.9c-0.4,0.2-0.8,0.4-1.3,0.5c-0.5,0.1-1,0.2-1.5,0.2c-1,0-1.9-0.3-2.5-0.9c-0.6-0.6-1-1.4-1-2.5v-4.5
			h-1.5v-2.3h1.5v-2.9h3.4v2.9h2.7v2.3h-2.7v4c0,0.7,0.3,1.1,0.9,1.1c0.4,0,0.8-0.1,1.3-0.3L70.3,43.9z"/>
		<path class="st0" d="M80.4,35.4c0.9,1,1.4,2.4,1.4,4.1c0,0.3,0,0.5,0,0.6h-7.3c0.2,0.6,0.5,1.1,0.9,1.4c0.4,0.3,0.9,0.5,1.5,0.5
			c0.5,0,0.9-0.1,1.3-0.3c0.4-0.2,0.8-0.4,1.2-0.8l1.8,1.8c-0.5,0.6-1.2,1.1-2,1.4c-0.8,0.3-1.6,0.5-2.6,0.5c-1.1,0-2.1-0.2-2.9-0.7
			c-0.8-0.4-1.5-1.1-1.9-1.9c-0.4-0.8-0.7-1.7-0.7-2.8c0-1.1,0.2-2,0.7-2.8c0.5-0.8,1.1-1.5,1.9-1.9c0.8-0.4,1.8-0.7,2.9-0.7
			C78.2,33.8,79.5,34.3,80.4,35.4z M78.4,38.3c0-0.6-0.2-1.1-0.5-1.5c-0.4-0.4-0.8-0.6-1.4-0.6c-0.5,0-1,0.2-1.4,0.5
			c-0.4,0.4-0.6,0.9-0.7,1.5H78.4z"/>
		<path class="st0" d="M98.4,34v14.2H95v-5.1c-0.4,0.5-0.8,0.9-1.3,1.1c-0.5,0.3-1.1,0.4-1.8,0.4c-1,0-1.8-0.2-2.6-0.7
			c-0.7-0.5-1.3-1.1-1.7-1.9c-0.4-0.8-0.6-1.8-0.6-2.8c0-1.1,0.2-2,0.6-2.8c0.4-0.8,1-1.4,1.7-1.9c0.7-0.4,1.6-0.7,2.5-0.7
			c0.7,0,1.3,0.1,1.8,0.4c0.5,0.3,1,0.6,1.4,1.1V34H98.4z M94.4,41.1c0.4-0.5,0.6-1.1,0.6-1.9c0-0.8-0.2-1.4-0.6-1.9
			c-0.4-0.5-1-0.7-1.6-0.7c-0.7,0-1.2,0.2-1.6,0.7c-0.4,0.5-0.6,1.1-0.6,1.9s0.2,1.4,0.6,1.9c0.4,0.5,1,0.7,1.6,0.7
			C93.4,41.9,94,41.6,94.4,41.1z"/>
		<path class="st0" d="M111.4,34v10.5H108v-1.7c-0.7,1.2-1.8,1.8-3.4,1.9c-1.1,0-2-0.4-2.7-1.1c-0.7-0.7-1-1.7-1-2.9V34h3.5v5.6
			c0,0.6,0.2,1.1,0.5,1.4c0.3,0.3,0.7,0.5,1.2,0.5c0.6,0,1.1-0.2,1.4-0.7c0.3-0.4,0.5-1,0.5-1.7V34H111.4z"/>
		<path class="st0" d="M122.6,35.4c0.9,1,1.4,2.4,1.4,4.1c0,0.3,0,0.5,0,0.6h-7.3c0.2,0.6,0.5,1.1,0.9,1.4c0.4,0.3,0.9,0.5,1.5,0.5
			c0.5,0,0.9-0.1,1.3-0.3c0.4-0.2,0.8-0.4,1.2-0.8l1.8,1.8c-0.5,0.6-1.2,1.1-2,1.4c-0.8,0.3-1.6,0.5-2.6,0.5c-1.1,0-2.1-0.2-2.9-0.7
			c-0.8-0.4-1.5-1.1-1.9-1.9c-0.4-0.8-0.7-1.7-0.7-2.8c0-1.1,0.2-2,0.7-2.8c0.5-0.8,1.1-1.5,1.9-1.9c0.8-0.4,1.8-0.7,2.9-0.7
			C120.4,33.8,121.7,34.3,122.6,35.4z M120.6,38.3c0-0.6-0.2-1.1-0.5-1.5c-0.4-0.4-0.8-0.6-1.4-0.6c-0.5,0-1,0.2-1.4,0.5
			c-0.4,0.4-0.6,0.9-0.7,1.5H120.6z"/>
		<path class="st0" d="M130.1,30.1h3.5v14.4h-3.5V30.1z"/>
		<path class="st0" d="M144.2,34.5c0.9,0.4,1.5,1.1,2,1.9c0.5,0.8,0.7,1.7,0.7,2.8c0,1.1-0.2,2-0.7,2.8c-0.5,0.8-1.2,1.4-2,1.9
			c-0.9,0.4-1.9,0.7-3,0.7c-1.1,0-2.1-0.2-3-0.7c-0.9-0.4-1.5-1.1-2-1.9c-0.5-0.8-0.7-1.7-0.7-2.8c0-1.1,0.2-2,0.7-2.8
			c0.5-0.8,1.1-1.4,2-1.9c0.9-0.4,1.9-0.7,3-0.7C142.3,33.8,143.3,34.1,144.2,34.5z M139.6,37.4c-0.4,0.5-0.6,1.1-0.6,1.9
			c0,0.8,0.2,1.4,0.6,1.9c0.4,0.5,1,0.7,1.6,0.7c0.7,0,1.2-0.2,1.6-0.7c0.4-0.5,0.6-1.1,0.6-1.9c0-0.8-0.2-1.4-0.6-1.9
			c-0.4-0.5-1-0.7-1.6-0.7C140.5,36.6,140,36.9,139.6,37.4z"/>
		<path class="st0" d="M152.3,36.2c-0.3,0-0.5,0.1-0.7,0.2c-0.2,0.1-0.3,0.3-0.3,0.5c0,0.2,0.1,0.4,0.4,0.6c0.3,0.1,0.7,0.3,1.4,0.5
			c0.7,0.2,1.4,0.4,1.9,0.6c0.5,0.2,0.9,0.5,1.3,1c0.4,0.4,0.5,1,0.5,1.7c0,1.1-0.4,1.9-1.2,2.5c-0.8,0.6-1.9,0.9-3.2,0.9
			c-0.9,0-1.7-0.1-2.6-0.4c-0.8-0.3-1.5-0.6-2.2-1.1l1.1-2.2c0.6,0.4,1.2,0.7,1.9,1c0.7,0.2,1.3,0.3,1.9,0.3c0.3,0,0.6-0.1,0.8-0.2
			c0.2-0.1,0.3-0.3,0.3-0.5c0-0.3-0.1-0.5-0.4-0.6c-0.3-0.1-0.7-0.3-1.4-0.5c-0.7-0.2-1.3-0.4-1.8-0.6c-0.5-0.2-0.9-0.5-1.3-1
			c-0.4-0.4-0.5-1-0.5-1.7c0-1.1,0.4-1.9,1.2-2.5c0.8-0.6,1.8-0.9,3.1-0.9c0.8,0,1.5,0.1,2.3,0.3c0.7,0.2,1.4,0.5,2.1,0.9l-1.2,2.2
			C154.3,36.6,153.2,36.2,152.3,36.2z"/>
		<path class="st0" d="M172.2,34.5c0.7,0.4,1.3,1.1,1.7,1.9c0.4,0.8,0.6,1.8,0.6,2.8c0,1.1-0.2,2-0.6,2.8s-1,1.4-1.7,1.9
			c-0.7,0.4-1.6,0.7-2.5,0.7c-0.7,0-1.3-0.1-1.8-0.4c-0.5-0.3-1-0.6-1.4-1.1v5.1h-3.5V34h3.5v1.4c0.8-1,1.8-1.5,3.1-1.5
			C170.6,33.8,171.5,34.1,172.2,34.5z M170.4,41.1c0.4-0.5,0.6-1.1,0.6-1.9c0-0.8-0.2-1.4-0.6-1.9c-0.4-0.5-1-0.7-1.6-0.7
			c-0.7,0-1.2,0.2-1.6,0.7c-0.4,0.5-0.6,1.1-0.6,1.9c0,0.8,0.2,1.4,0.6,1.9c0.4,0.5,0.9,0.7,1.6,0.7C169.5,41.8,170,41.5,170.4,41.1
			z"/>
		<path class="st0" d="M181.2,34.3c0.6-0.3,1.2-0.5,2-0.5V37c-0.1,0-0.3,0-0.5,0c-0.8,0-1.5,0.2-2,0.6c-0.5,0.4-0.8,0.9-0.9,1.6v5.4
			h-3.5V34h3.5v1.7C180.1,35.1,180.6,34.6,181.2,34.3z"/>
		<path class="st0" d="M192.5,34.5c0.9,0.4,1.5,1.1,2,1.9c0.5,0.8,0.7,1.7,0.7,2.8c0,1.1-0.2,2-0.7,2.8c-0.5,0.8-1.2,1.4-2,1.9
			c-0.9,0.4-1.9,0.7-3,0.7c-1.1,0-2.1-0.2-3-0.7c-0.9-0.4-1.5-1.1-2-1.9c-0.5-0.8-0.7-1.7-0.7-2.8c0-1.1,0.2-2,0.7-2.8
			c0.5-0.8,1.1-1.4,2-1.9c0.9-0.4,1.9-0.7,3-0.7C190.6,33.8,191.6,34.1,192.5,34.5z M187.9,37.4c-0.4,0.5-0.6,1.1-0.6,1.9
			c0,0.8,0.2,1.4,0.6,1.9c0.4,0.5,1,0.7,1.6,0.7c0.7,0,1.2-0.2,1.6-0.7c0.4-0.5,0.6-1.1,0.6-1.9c0-0.8-0.2-1.4-0.6-1.9
			c-0.4-0.5-1-0.7-1.6-0.7C188.8,36.6,188.3,36.9,187.9,37.4z"/>
		<path class="st0" d="M206.2,34.5c0.7,0.4,1.3,1.1,1.7,1.9c0.4,0.8,0.6,1.8,0.6,2.8c0,1.1-0.2,2-0.6,2.8c-0.4,0.8-1,1.4-1.7,1.9
			c-0.7,0.4-1.6,0.7-2.5,0.7c-0.7,0-1.3-0.1-1.8-0.4c-0.5-0.3-1-0.6-1.4-1.1v1.4h-3.5V30.1h3.5v5.3c0.8-1,1.8-1.5,3.1-1.5
			C204.6,33.8,205.5,34.1,206.2,34.5z M204.4,41.1c0.4-0.5,0.6-1.1,0.6-1.9c0-0.8-0.2-1.4-0.6-1.9c-0.4-0.5-1-0.7-1.6-0.7
			c-0.7,0-1.2,0.2-1.6,0.7c-0.4,0.5-0.6,1.1-0.6,1.9c0,0.8,0.2,1.4,0.6,1.9c0.4,0.5,0.9,0.7,1.6,0.7C203.5,41.8,204,41.5,204.4,41.1
			z"/>
		<path class="st0" d="M213.3,29.6c0.3,0.3,0.5,0.8,0.5,1.3c0,0.5-0.2,1-0.5,1.3c-0.3,0.3-0.8,0.5-1.3,0.5c-0.5,0-1-0.2-1.3-0.5
			c-0.3-0.3-0.5-0.8-0.5-1.3c0-0.5,0.2-1,0.5-1.3c0.3-0.3,0.8-0.5,1.3-0.5C212.5,29.1,213,29.3,213.3,29.6z M210.3,34h3.4v10.5h-3.4
			V34z"/>
		<path class="st0" d="M224.3,34.5c0.9,0.4,1.5,1.1,2,1.9c0.5,0.8,0.7,1.7,0.7,2.8c0,1.1-0.2,2-0.7,2.8c-0.5,0.8-1.2,1.4-2,1.9
			c-0.9,0.4-1.9,0.7-3,0.7c-1.1,0-2.1-0.2-3-0.7c-0.9-0.4-1.5-1.1-2-1.9c-0.5-0.8-0.7-1.7-0.7-2.8c0-1.1,0.2-2,0.7-2.8
			c0.5-0.8,1.1-1.4,2-1.9c0.9-0.4,1.9-0.7,3-0.7C222.4,33.8,223.4,34.1,224.3,34.5z M219.6,37.4c-0.4,0.5-0.6,1.1-0.6,1.9
			c0,0.8,0.2,1.4,0.6,1.9c0.4,0.5,1,0.7,1.6,0.7c0.7,0,1.2-0.2,1.6-0.7c0.4-0.5,0.6-1.1,0.6-1.9c0-0.8-0.2-1.4-0.6-1.9
			c-0.4-0.5-1-0.7-1.6-0.7C220.6,36.6,220,36.9,219.6,37.4z M221.8,29.5l2.9,1.1l-2.8,2.2l-2.4-0.2L221.8,29.5z"/>
		<path class="st0" d="M235.6,43.9c-0.4,0.2-0.8,0.4-1.3,0.5c-0.5,0.1-1,0.2-1.5,0.2c-1,0-1.9-0.3-2.5-0.9c-0.6-0.6-1-1.4-1-2.5
			v-4.5h-1.5v-2.3h1.5v-2.9h3.4v2.9h2.7v2.3h-2.7v4c0,0.7,0.3,1.1,0.9,1.1c0.4,0,0.8-0.1,1.3-0.3L235.6,43.9z"/>
		<path class="st0" d="M240.2,29.6c0.3,0.3,0.5,0.8,0.5,1.3c0,0.5-0.2,1-0.5,1.3c-0.3,0.3-0.8,0.5-1.3,0.5c-0.5,0-1-0.2-1.3-0.5
			c-0.3-0.3-0.5-0.8-0.5-1.3c0-0.5,0.2-1,0.5-1.3c0.3-0.3,0.8-0.5,1.3-0.5C239.4,29.1,239.9,29.3,240.2,29.6z M237.2,34h3.4v10.5
			h-3.4V34z"/>
		<path class="st0" d="M248,36.7c-0.6,0-1.1,0.2-1.5,0.7c-0.4,0.5-0.6,1.1-0.6,1.8c0,0.8,0.2,1.4,0.6,1.8c0.4,0.5,0.9,0.7,1.5,0.7
			c1,0,1.6-0.4,2.1-1.2l2.5,1.5c-0.4,0.8-1,1.4-1.9,1.9c-0.8,0.4-1.8,0.7-2.9,0.7c-1.1,0-2-0.2-2.8-0.7c-0.8-0.4-1.4-1.1-1.9-1.9
			c-0.4-0.8-0.7-1.7-0.7-2.8c0-1.1,0.2-2,0.7-2.8c0.5-0.8,1.1-1.5,1.9-1.9c0.8-0.4,1.8-0.7,2.8-0.7c1,0,2,0.2,2.8,0.6
			c0.8,0.4,1.4,1,1.9,1.8l-2.5,1.5C249.6,37.1,248.9,36.7,248,36.7z"/>
		<path class="st0" d="M261.8,34.5c0.9,0.4,1.5,1.1,2,1.9c0.5,0.8,0.7,1.7,0.7,2.8c0,1.1-0.2,2-0.7,2.8c-0.5,0.8-1.2,1.4-2,1.9
			c-0.9,0.4-1.9,0.7-3,0.7c-1.1,0-2.1-0.2-3-0.7c-0.9-0.4-1.5-1.1-2-1.9c-0.5-0.8-0.7-1.7-0.7-2.8c0-1.1,0.2-2,0.7-2.8
			c0.5-0.8,1.1-1.4,2-1.9c0.9-0.4,1.9-0.7,3-0.7C259.9,33.8,260.9,34.1,261.8,34.5z M257.1,37.4c-0.4,0.5-0.6,1.1-0.6,1.9
			c0,0.8,0.2,1.4,0.6,1.9c0.4,0.5,1,0.7,1.6,0.7c0.7,0,1.2-0.2,1.6-0.7c0.4-0.5,0.6-1.1,0.6-1.9c0-0.8-0.2-1.4-0.6-1.9
			c-0.4-0.5-1-0.7-1.6-0.7C258.1,36.6,257.5,36.9,257.1,37.4z"/>
		<path class="st0" d="M269.9,36.2c-0.3,0-0.5,0.1-0.7,0.2c-0.2,0.1-0.3,0.3-0.3,0.5c0,0.2,0.1,0.4,0.4,0.6c0.3,0.1,0.7,0.3,1.4,0.5
			c0.7,0.2,1.4,0.4,1.9,0.6c0.5,0.2,0.9,0.5,1.3,1c0.4,0.4,0.5,1,0.5,1.7c0,1.1-0.4,1.9-1.2,2.5c-0.8,0.6-1.9,0.9-3.2,0.9
			c-0.9,0-1.7-0.1-2.6-0.4c-0.8-0.3-1.5-0.6-2.2-1.1l1.1-2.2c0.6,0.4,1.2,0.7,1.9,1c0.7,0.2,1.3,0.3,1.9,0.3c0.3,0,0.6-0.1,0.8-0.2
			c0.2-0.1,0.3-0.3,0.3-0.5c0-0.3-0.1-0.5-0.4-0.6c-0.3-0.1-0.7-0.3-1.4-0.5c-0.7-0.2-1.3-0.4-1.8-0.6c-0.5-0.2-0.9-0.5-1.3-1
			c-0.4-0.4-0.5-1-0.5-1.7c0-1.1,0.4-1.9,1.2-2.5c0.8-0.6,1.8-0.9,3.1-0.9c0.8,0,1.5,0.1,2.3,0.3c0.7,0.2,1.4,0.5,2.1,0.9l-1.2,2.2
			C271.9,36.6,270.8,36.2,269.9,36.2z"/>
		<path class="st0" d="M278.5,36c0.3,0.3,0.5,0.7,0.5,1.2s-0.2,0.9-0.5,1.2c-0.3,0.3-0.7,0.5-1.2,0.5c-0.5,0-0.9-0.2-1.2-0.5
			c-0.3-0.3-0.5-0.7-0.5-1.2s0.2-0.9,0.5-1.2c0.3-0.3,0.7-0.5,1.2-0.5C277.8,35.5,278.2,35.6,278.5,36z M278.5,41.7
			c0.3,0.3,0.5,0.7,0.5,1.2c0,0.5-0.2,0.9-0.5,1.2c-0.3,0.3-0.7,0.5-1.2,0.5c-0.5,0-0.9-0.2-1.2-0.5c-0.3-0.3-0.5-0.7-0.5-1.2
			c0-0.5,0.2-0.9,0.5-1.2s0.7-0.5,1.2-0.5C277.8,41.2,278.2,41.4,278.5,41.7z"/>
		<path class="st0" d="M285.6,34c0.4,0.4,0.6,0.9,0.6,1.5c0,0.5-0.1,1-0.4,1.3c-0.3,0.4-0.6,0.7-1.1,0.9c-0.5,0.2-1,0.3-1.7,0.3
			c-0.6,0-1.2-0.1-1.7-0.3c-0.6-0.2-1-0.4-1.4-0.7l0.8-1.5c0.3,0.3,0.7,0.5,1.1,0.6c0.4,0.1,0.8,0.2,1.1,0.2c0.4,0,0.8-0.1,1-0.3
			c0.2-0.2,0.4-0.4,0.4-0.7c0-0.3-0.1-0.6-0.4-0.7c-0.2-0.2-0.6-0.2-1-0.2h-1.3v-1.1l1.8-1.8h-3v-1.6h5.5v1.2l-2.2,2l0.4,0.1
			C284.7,33.4,285.2,33.7,285.6,34z"/>
	</g>
</g>
</svg>
