<?xml version="1.0" encoding="utf-8"?>
<!-- Generator: Adobe Illustrator 20.1.0, SVG Export Plug-In . SVG Version: 6.00 Build 0)  -->
<svg version="1.1" id="Layer_1" xmlns="http://www.w3.org/2000/svg" xmlns:xlink="http://www.w3.org/1999/xlink" x="0px" y="0px"
	 viewBox="0 0 121.1 93.2" style="enable-background:new 0 0 121.1 93.2;" xml:space="preserve">
<style type="text/css">
	.st0{fill:#1C599D;}
</style>
<g>
	<path class="st0" d="M21.2,5h7.7v17h-4.4V8.6h-3.3V5z"/>
	<path class="st0" d="M49.8,9.5c0.9,0.6,1.6,1.3,2.1,2.4c0.5,1,0.8,2.2,0.8,3.5c0,1.3-0.2,2.5-0.7,3.5c-0.5,1-1.2,1.8-2.1,2.3
		c-0.9,0.5-2,0.8-3.2,0.8c-0.8,0-1.6-0.2-2.2-0.5c-0.7-0.3-1.2-0.8-1.7-1.4v6.4h-4.3V8.9h4.3v1.7c1-1.2,2.2-1.8,3.9-1.8
		C47.8,8.7,48.9,9,49.8,9.5z M47.6,17.7c0.5-0.6,0.8-1.4,0.8-2.3c0-1-0.3-1.8-0.8-2.4c-0.5-0.6-1.2-0.9-2-0.9c-0.8,0-1.5,0.3-2,0.9
		c-0.5,0.6-0.8,1.4-0.8,2.4c0,1,0.3,1.8,0.8,2.3c0.5,0.6,1.2,0.9,2,0.9C46.4,18.6,47.1,18.3,47.6,17.7z"/>
	<path class="st0" d="M65.6,10.6c1.1,1.3,1.7,3,1.7,5.2c0,0.3,0,0.6,0,0.8h-9.1c0.2,0.7,0.6,1.3,1.1,1.7c0.5,0.4,1.1,0.6,1.9,0.6
		c0.6,0,1.1-0.1,1.6-0.3c0.5-0.2,1-0.6,1.4-1l2.3,2.3c-0.7,0.8-1.5,1.3-2.5,1.7c-1,0.4-2,0.6-3.3,0.6c-1.4,0-2.6-0.3-3.7-0.8
		c-1-0.5-1.9-1.3-2.4-2.3c-0.6-1-0.8-2.2-0.8-3.5c0-1.3,0.3-2.5,0.8-3.5c0.6-1,1.4-1.8,2.4-2.4c1-0.6,2.2-0.8,3.6-0.8
		C62.8,8.7,64.5,9.3,65.6,10.6z M63.2,14.3c0-0.8-0.2-1.4-0.7-1.8c-0.4-0.5-1-0.7-1.8-0.7c-0.7,0-1.2,0.2-1.7,0.7
		c-0.5,0.5-0.8,1.1-0.9,1.8H63.2z"/>
	<path class="st0" d="M75.6,9.3c0.7-0.4,1.5-0.6,2.5-0.6v3.9c-0.1,0-0.4,0-0.7,0c-1,0-1.8,0.2-2.5,0.7c-0.6,0.5-1,1.1-1.1,1.9V22
		h-4.3V8.9h4.3V11C74.3,10.3,74.9,9.7,75.6,9.3z"/>
	<path class="st0" d="M80.1,4h4.3v18h-4.3V4z"/>
	<path class="st0" d="M97.9,9.9c1,0.8,1.5,2,1.5,3.5V22h-4.2v-1.5c-0.9,1.1-2.2,1.7-3.9,1.7c-1.4,0-2.5-0.4-3.3-1.1
		c-0.8-0.8-1.2-1.7-1.2-3c0-1.2,0.4-2.2,1.3-2.9c0.9-0.7,2.1-1,3.7-1.1h3.4v-0.1c0-0.6-0.2-1.1-0.6-1.5c-0.4-0.3-1-0.5-1.9-0.5
		c-0.5,0-1.2,0.1-1.9,0.3c-0.7,0.2-1.4,0.4-2.1,0.8l-1.2-2.9c1.1-0.5,2.1-0.8,3.1-1.1c1-0.2,2-0.4,3-0.4C95.5,8.7,96.9,9.1,97.9,9.9
		z M94.3,18.7c0.5-0.3,0.8-0.7,0.9-1.2v-1.1h-2.6c-1.2,0-1.8,0.5-1.8,1.4c0,0.5,0.2,0.8,0.5,1.1c0.3,0.3,0.7,0.4,1.3,0.4
		C93.3,19.2,93.8,19.1,94.3,18.7z"/>
	<path class="st0" d="M39.6,35.4c1,0.8,1.5,2,1.5,3.5v8.5h-4.2v-1.5C36,47,34.7,47.6,33,47.6c-1.4,0-2.5-0.4-3.3-1.1
		c-0.8-0.8-1.2-1.7-1.2-3c0-1.2,0.4-2.2,1.3-2.9c0.9-0.7,2.1-1,3.7-1.1h3.4v-0.1c0-0.6-0.2-1.1-0.6-1.5c-0.4-0.3-1-0.5-1.9-0.5
		c-0.5,0-1.2,0.1-1.9,0.3c-0.7,0.2-1.4,0.4-2.1,0.8l-1.2-2.9c1.1-0.5,2.1-0.8,3.1-1.1c1-0.2,2-0.4,3-0.4
		C37.2,34.1,38.6,34.5,39.6,35.4z M36,44.2c0.5-0.3,0.8-0.7,0.9-1.2v-1.1h-2.6c-1.2,0-1.8,0.5-1.8,1.4c0,0.5,0.2,0.8,0.5,1.1
		c0.3,0.3,0.7,0.4,1.3,0.4C34.9,44.6,35.5,44.5,36,44.2z"/>
	<path class="st0" d="M44.2,29.4h4.3v18h-4.3V29.4z"/>
	<path class="st0" d="M70.5,29.4v18h-4.3v-1.7c-0.5,0.6-1,1.1-1.7,1.4c-0.7,0.3-1.4,0.5-2.2,0.5c-1.2,0-2.3-0.3-3.2-0.8
		c-0.9-0.6-1.6-1.4-2.1-2.4c-0.5-1-0.8-2.2-0.8-3.5c0-1.3,0.3-2.5,0.8-3.5c0.5-1,1.2-1.8,2.1-2.3c0.9-0.5,2-0.8,3.1-0.8
		c0.8,0,1.6,0.2,2.3,0.5c0.7,0.3,1.2,0.8,1.7,1.4v-6.6H70.5z M65.4,43.3c0.5-0.6,0.8-1.4,0.8-2.4c0-1-0.3-1.8-0.8-2.4
		c-0.5-0.6-1.2-0.9-2-0.9c-0.8,0-1.5,0.3-2,0.9c-0.5,0.6-0.8,1.4-0.8,2.4c0,1,0.3,1.8,0.8,2.4c0.5,0.6,1.2,0.9,2,0.9
		C64.2,44.2,64.9,43.9,65.4,43.3z"/>
	<path class="st0" d="M76.8,28.7l3.6,1.4l-3.5,2.8l-3-0.2L76.8,28.7z M73.9,34.3h4.3v13.1h-4.3V34.3z"/>
	<path class="st0" d="M91.6,35.4c1,0.8,1.5,2,1.5,3.5v8.5h-4.2v-1.5C88,47,86.7,47.6,85,47.6c-1.4,0-2.5-0.4-3.3-1.1
		c-0.8-0.8-1.2-1.7-1.2-3c0-1.2,0.4-2.2,1.3-2.9c0.9-0.7,2.1-1,3.7-1.1h3.4v-0.1c0-0.6-0.2-1.1-0.6-1.5c-0.4-0.3-1-0.5-1.9-0.5
		c-0.5,0-1.2,0.1-1.9,0.3c-0.7,0.2-1.4,0.4-2.1,0.8l-1.2-2.9c1.1-0.5,2.1-0.8,3.1-1.1c1-0.2,2-0.4,3-0.4
		C89.2,34.1,90.6,34.5,91.6,35.4z M88,44.2c0.5-0.3,0.8-0.7,0.9-1.2v-1.1h-2.6c-1.2,0-1.8,0.5-1.8,1.4c0,0.5,0.2,0.8,0.5,1.1
		c0.3,0.3,0.7,0.4,1.3,0.4C86.9,44.6,87.5,44.5,88,44.2z"/>
	<path class="st0" d="M5.2,52.7h10.6v2.7h-3.7V65H8.9v-9.7H5.2V52.7z"/>
	<path class="st0" d="M21.3,55.8c0.5-0.3,1.1-0.4,1.8-0.4v2.9c-0.1,0-0.3,0-0.5,0c-0.7,0-1.3,0.2-1.8,0.5c-0.5,0.3-0.7,0.8-0.8,1.4
		V65h-3.1v-9.5H20v1.6C20.3,56.5,20.7,56.1,21.3,55.8z"/>
	<path class="st0" d="M31.5,56.3c0.7,0.6,1.1,1.5,1.1,2.5V65h-3.1V64c-0.6,0.8-1.6,1.2-2.9,1.2c-1,0-1.8-0.3-2.4-0.8
		c-0.6-0.5-0.9-1.3-0.9-2.2c0-0.9,0.3-1.6,0.9-2.1c0.6-0.5,1.5-0.8,2.7-0.8h2.5v-0.1c0-0.5-0.2-0.8-0.5-1.1
		c-0.3-0.2-0.8-0.4-1.4-0.4c-0.4,0-0.9,0.1-1.4,0.2c-0.5,0.1-1,0.3-1.5,0.6L24,56.4c0.8-0.4,1.5-0.6,2.2-0.8
		c0.7-0.2,1.4-0.3,2.2-0.3C29.8,55.4,30.8,55.7,31.5,56.3z M28.9,62.7c0.4-0.2,0.6-0.5,0.7-0.9V61h-1.9c-0.9,0-1.3,0.3-1.3,1
		c0,0.3,0.1,0.6,0.3,0.8c0.2,0.2,0.5,0.3,0.9,0.3C28.1,63,28.5,62.9,28.9,62.7z"/>
	<path class="st0" d="M41,64.5c-0.4,0.2-0.8,0.4-1.2,0.5c-0.5,0.1-0.9,0.2-1.4,0.2c-0.9,0-1.7-0.3-2.3-0.8c-0.6-0.5-0.9-1.3-0.9-2.2
		V58h-1.3v-2.1h1.3v-2.6h3.1v2.6h2.5V58h-2.5v3.6c0,0.7,0.3,1,0.8,1c0.3,0,0.7-0.1,1.2-0.3L41,64.5z"/>
	<path class="st0" d="M49.9,56.3c0.7,0.6,1.1,1.5,1.1,2.5V65h-3.1V64c-0.6,0.8-1.6,1.2-2.9,1.2c-1,0-1.8-0.3-2.4-0.8
		c-0.6-0.5-0.9-1.3-0.9-2.2c0-0.9,0.3-1.6,0.9-2.1c0.6-0.5,1.5-0.8,2.7-0.8h2.5v-0.1c0-0.5-0.2-0.8-0.5-1.1
		c-0.3-0.2-0.8-0.4-1.3-0.4c-0.4,0-0.9,0.1-1.4,0.2c-0.5,0.1-1,0.3-1.5,0.6l-0.9-2.1c0.8-0.4,1.5-0.6,2.2-0.8
		c0.7-0.2,1.4-0.3,2.2-0.3C48.1,55.4,49.1,55.7,49.9,56.3z M47.2,62.7c0.4-0.2,0.6-0.5,0.7-0.9V61H46c-0.9,0-1.3,0.3-1.3,1
		c0,0.3,0.1,0.6,0.3,0.8c0.2,0.2,0.5,0.3,0.9,0.3C46.4,63,46.9,62.9,47.2,62.7z"/>
	<path class="st0" d="M68.3,56.4c0.6,0.7,0.9,1.5,0.9,2.7v6h-3.1v-5.1c0-0.5-0.1-1-0.4-1.3c-0.3-0.3-0.7-0.5-1.1-0.5
		c-0.6,0-1,0.2-1.3,0.6c-0.3,0.4-0.5,0.9-0.5,1.5V65h-3.1v-5.1c0-0.5-0.1-1-0.4-1.3c-0.3-0.3-0.7-0.5-1.1-0.5c-0.6,0-1,0.2-1.3,0.6
		c-0.3,0.4-0.5,0.9-0.5,1.5V65h-3.1v-9.5h3.1v1.6c0.3-0.6,0.8-1,1.3-1.3c0.5-0.3,1.1-0.4,1.8-0.4c0.8,0,1.4,0.2,2,0.6
		c0.6,0.4,0.9,0.9,1.2,1.6c0.3-0.7,0.7-1.2,1.3-1.6c0.6-0.4,1.2-0.5,2-0.5C66.9,55.4,67.7,55.7,68.3,56.4z"/>
	<path class="st0" d="M74.1,51.6c0.3,0.3,0.5,0.7,0.5,1.2c0,0.5-0.2,0.9-0.5,1.2c-0.3,0.3-0.7,0.5-1.2,0.5c-0.5,0-0.9-0.2-1.2-0.5
		c-0.3-0.3-0.5-0.7-0.5-1.2c0-0.5,0.2-0.9,0.5-1.2c0.3-0.3,0.7-0.5,1.2-0.5C73.4,51.1,73.8,51.2,74.1,51.6z M71.4,55.5h3.1V65h-3.1
		V55.5z"/>
	<path class="st0" d="M84.7,56.8c0.8,0.9,1.3,2.2,1.3,3.8c0,0.2,0,0.4,0,0.6h-6.6c0.2,0.5,0.4,1,0.8,1.2c0.4,0.3,0.8,0.4,1.4,0.4
		c0.4,0,0.8-0.1,1.2-0.2c0.4-0.2,0.7-0.4,1.1-0.7l1.6,1.6c-0.5,0.6-1.1,1-1.8,1.3c-0.7,0.3-1.5,0.4-2.4,0.4c-1,0-1.9-0.2-2.7-0.6
		c-0.8-0.4-1.4-1-1.8-1.7c-0.4-0.7-0.6-1.6-0.6-2.5c0-1,0.2-1.8,0.6-2.6c0.4-0.7,1-1.3,1.7-1.7c0.8-0.4,1.6-0.6,2.6-0.6
		C82.7,55.4,83.9,55.8,84.7,56.8z M82.9,59.4c0-0.6-0.2-1-0.5-1.3c-0.3-0.3-0.7-0.5-1.3-0.5c-0.5,0-0.9,0.2-1.2,0.5
		c-0.3,0.3-0.6,0.8-0.7,1.3H82.9z"/>
	<path class="st0" d="M96.4,56.4c0.6,0.7,0.9,1.5,0.9,2.7v6h-3.1v-5.1c0-0.5-0.1-1-0.4-1.3c-0.3-0.3-0.7-0.5-1.2-0.5
		c-0.5,0-0.9,0.2-1.3,0.5c-0.3,0.3-0.5,0.8-0.6,1.3v5h-3.1v-9.5h3.1V57c0.3-0.6,0.8-1,1.3-1.3c0.5-0.3,1.1-0.4,1.8-0.4
		C94.9,55.4,95.7,55.7,96.4,56.4z"/>
	<path class="st0" d="M105.7,64.5c-0.4,0.2-0.8,0.4-1.2,0.5c-0.5,0.1-0.9,0.2-1.4,0.2c-0.9,0-1.7-0.3-2.3-0.8
		c-0.6-0.5-0.9-1.3-0.9-2.2V58h-1.3v-2.1h1.3v-2.6h3.1v2.6h2.5V58H103v3.6c0,0.7,0.3,1,0.8,1c0.3,0,0.7-0.1,1.2-0.3L105.7,64.5z"/>
	<path class="st0" d="M114.3,56c0.8,0.4,1.4,1,1.8,1.7c0.4,0.7,0.7,1.6,0.7,2.6c0,1-0.2,1.8-0.7,2.6c-0.4,0.7-1,1.3-1.8,1.7
		c-0.8,0.4-1.7,0.6-2.7,0.6c-1,0-1.9-0.2-2.7-0.6c-0.8-0.4-1.4-1-1.8-1.7c-0.4-0.7-0.6-1.6-0.6-2.6c0-1,0.2-1.8,0.6-2.6
		c0.4-0.7,1-1.3,1.8-1.7c0.8-0.4,1.7-0.6,2.7-0.6C112.6,55.4,113.5,55.6,114.3,56z M110.1,58.6c-0.4,0.4-0.6,1-0.6,1.7
		c0,0.7,0.2,1.3,0.6,1.7c0.4,0.4,0.9,0.7,1.5,0.7c0.6,0,1.1-0.2,1.5-0.7c0.4-0.4,0.6-1,0.6-1.7c0-0.7-0.2-1.3-0.6-1.7
		c-0.4-0.4-0.9-0.7-1.5-0.7C110.9,57.9,110.4,58.1,110.1,58.6z"/>
	<path class="st0" d="M23.9,73.6c0.7,0.4,1.2,1,1.6,1.7c0.4,0.7,0.6,1.6,0.6,2.6c0,1-0.2,1.8-0.5,2.5c-0.4,0.7-0.9,1.3-1.5,1.7
		c-0.7,0.4-1.4,0.6-2.3,0.6c-0.6,0-1.1-0.1-1.6-0.3c-0.5-0.2-0.9-0.6-1.2-1v4.7h-3.1v-13h3.1v1.2c0.7-0.9,1.6-1.3,2.8-1.3
		C22.4,73,23.2,73.2,23.9,73.6z M22.2,79.6c0.4-0.4,0.6-1,0.6-1.7c0-0.7-0.2-1.3-0.6-1.7c-0.4-0.4-0.9-0.7-1.5-0.7
		c-0.6,0-1.1,0.2-1.5,0.7c-0.4,0.4-0.6,1-0.6,1.7c0,0.7,0.2,1.3,0.6,1.7c0.4,0.4,0.9,0.7,1.5,0.7C21.4,80.2,21.9,80,22.2,79.6z"/>
	<path class="st0" d="M35,73.9c0.7,0.6,1.1,1.5,1.1,2.5v6.2H33v-1.1c-0.6,0.8-1.6,1.2-2.9,1.2c-1,0-1.8-0.3-2.4-0.8
		c-0.6-0.5-0.9-1.3-0.9-2.2c0-0.9,0.3-1.6,0.9-2.1c0.6-0.5,1.5-0.8,2.7-0.8H33v-0.1c0-0.5-0.2-0.8-0.5-1.1c-0.3-0.2-0.8-0.4-1.4-0.4
		c-0.4,0-0.9,0.1-1.4,0.2c-0.5,0.1-1,0.3-1.5,0.6L27.5,74c0.8-0.4,1.5-0.6,2.2-0.8c0.7-0.2,1.4-0.3,2.2-0.3
		C33.2,73,34.2,73.3,35,73.9z M32.3,80.3c0.4-0.2,0.6-0.5,0.7-0.9v-0.8h-1.9c-0.9,0-1.3,0.3-1.3,1c0,0.3,0.1,0.6,0.3,0.8
		c0.2,0.2,0.5,0.3,0.9,0.3C31.6,80.7,32,80.6,32.3,80.3z"/>
	<path class="st0" d="M42.6,73.4c0.5-0.3,1.1-0.4,1.8-0.4v2.9c-0.1,0-0.3,0-0.5,0c-0.7,0-1.3,0.2-1.8,0.5s-0.7,0.8-0.8,1.4v4.9h-3.1
		v-9.5h3.1v1.6C41.7,74.2,42.1,73.7,42.6,73.4z"/>
	<path class="st0" d="M52.9,73.9c0.7,0.6,1.1,1.5,1.1,2.5v6.2h-3.1v-1.1c-0.6,0.8-1.6,1.2-2.9,1.2c-1,0-1.8-0.3-2.4-0.8
		c-0.6-0.5-0.9-1.3-0.9-2.2c0-0.9,0.3-1.6,0.9-2.1c0.6-0.5,1.5-0.8,2.7-0.8h2.5v-0.1c0-0.5-0.2-0.8-0.5-1.1
		c-0.3-0.2-0.8-0.4-1.4-0.4c-0.4,0-0.9,0.1-1.4,0.2c-0.5,0.1-1,0.3-1.5,0.6L45.4,74c0.8-0.4,1.5-0.6,2.2-0.8
		c0.7-0.2,1.4-0.3,2.2-0.3C51.1,73,52.2,73.3,52.9,73.9z M50.3,80.3c0.4-0.2,0.6-0.5,0.7-0.9v-0.8h-1.9c-0.9,0-1.3,0.3-1.3,1
		c0,0.3,0.1,0.6,0.3,0.8c0.2,0.2,0.5,0.3,0.9,0.3C49.5,80.7,49.9,80.6,50.3,80.3z"/>
	<path class="st0" d="M58.6,70.3h5.6v12.4H61V73h-2.4V70.3z"/>
	<path class="st0" d="M86.3,74c0.6,0.7,0.9,1.5,0.9,2.7v6h-3.1v-5.1c0-0.5-0.1-1-0.4-1.3c-0.3-0.3-0.7-0.5-1.1-0.5
		c-0.6,0-1,0.2-1.3,0.6c-0.3,0.4-0.5,0.9-0.5,1.5v4.7h-3.1v-5.1c0-0.5-0.1-1-0.4-1.3c-0.3-0.3-0.7-0.5-1.1-0.5c-0.6,0-1,0.2-1.3,0.6
		c-0.3,0.4-0.5,0.9-0.5,1.5v4.7h-3.1v-9.5h3.1v1.6c0.3-0.6,0.8-1,1.3-1.3c0.5-0.3,1.1-0.4,1.8-0.4c0.8,0,1.4,0.2,2,0.6
		c0.6,0.4,0.9,0.9,1.2,1.6c0.3-0.7,0.7-1.2,1.3-1.6s1.2-0.5,2-0.5C84.9,73,85.7,73.3,86.3,74z"/>
	<path class="st0" d="M97.2,74.4c0.8,0.9,1.3,2.2,1.3,3.8c0,0.2,0,0.4,0,0.6h-6.6c0.2,0.5,0.4,1,0.8,1.2c0.4,0.3,0.8,0.4,1.4,0.4
		c0.4,0,0.8-0.1,1.2-0.2c0.4-0.2,0.7-0.4,1.1-0.7l1.6,1.6c-0.5,0.6-1.1,1-1.8,1.3c-0.7,0.3-1.5,0.4-2.4,0.4c-1,0-1.9-0.2-2.7-0.6
		c-0.8-0.4-1.4-1-1.8-1.7c-0.4-0.7-0.6-1.6-0.6-2.5c0-1,0.2-1.8,0.6-2.6c0.4-0.7,1-1.3,1.7-1.7c0.8-0.4,1.6-0.6,2.6-0.6
		C95.1,73,96.3,73.5,97.2,74.4z M95.4,77.1c0-0.6-0.2-1-0.5-1.3c-0.3-0.3-0.7-0.5-1.3-0.5c-0.5,0-0.9,0.2-1.2,0.5
		c-0.3,0.3-0.6,0.8-0.7,1.3H95.4z"/>
	<path class="st0" d="M103.4,75.2c-0.3,0-0.5,0.1-0.7,0.1c-0.2,0.1-0.2,0.2-0.2,0.5c0,0.2,0.1,0.4,0.4,0.5c0.3,0.1,0.7,0.3,1.2,0.4
		c0.7,0.2,1.2,0.4,1.7,0.6c0.5,0.2,0.8,0.5,1.2,0.9c0.3,0.4,0.5,0.9,0.5,1.5c0,1-0.4,1.7-1.1,2.3c-0.7,0.5-1.7,0.8-2.9,0.8
		c-0.8,0-1.6-0.1-2.3-0.3c-0.7-0.2-1.4-0.6-2-1l1-2c0.5,0.4,1.1,0.7,1.7,0.9c0.6,0.2,1.2,0.3,1.7,0.3c0.3,0,0.5-0.1,0.7-0.2
		c0.2-0.1,0.3-0.2,0.3-0.4c0-0.2-0.1-0.4-0.4-0.5c-0.3-0.1-0.7-0.3-1.2-0.4c-0.7-0.2-1.2-0.4-1.7-0.6c-0.4-0.2-0.8-0.5-1.1-0.9
		c-0.3-0.4-0.5-0.9-0.5-1.5c0-1,0.4-1.7,1.1-2.3c0.7-0.5,1.7-0.8,2.8-0.8c0.7,0,1.4,0.1,2.1,0.3c0.7,0.2,1.3,0.5,1.9,0.8l-1.1,2
		C105.2,75.5,104.2,75.2,103.4,75.2z"/>
</g>
</svg>
