<!-- Generator: Adobe Illustrator 20.1.0, SVG Export Plug-In  -->
<svg version="1.1"
	 xmlns="http://www.w3.org/2000/svg" xmlns:xlink="http://www.w3.org/1999/xlink" xmlns:a="http://ns.adobe.com/AdobeSVGViewerExtensions/3.0/"
	 x="0px" y="0px" width="259.7px" height="72.4px" viewBox="0 0 259.7 72.4"
	 style="overflow:scroll;enable-background:new 0 0 259.7 72.4;" xml:space="preserve">
<style type="text/css">
	.st0{fill:#FFFFFF;}
</style>
<defs>
</defs>
<g>
	<g>
		<path class="st0" d="M107.5,9.7c0,3.7-2.7,6.5-7.1,6.5c-4.1,0-6.9-2.9-6.9-6.5c0-3.8,2.8-6.6,7-6.6C104.8,3.1,107.4,5.9,107.5,9.7
			z M94.3,71.3V23.1h12.5v48.2H94.3z"/>
		<path class="st0" d="M158.3,69.8c-2.6,1.2-7.8,2.5-13.9,2.5c-15.4,0-25.4-9.6-25.4-24.5c0-14.4,10.1-25.7,27.4-25.7
			c4.5,0,9.2,1,12,2.3l-2.2,9.1c-2-0.9-4.9-1.9-9.4-1.9c-9.5,0-15.1,6.8-15,15.6c0,9.9,6.6,15.5,15,15.5c4.3,0,7.4-0.9,9.8-1.9
			L158.3,69.8z"/>
		<path class="st0" d="M197.2,71.3l-0.8-5.3h-0.3c-3,3.8-8.2,6.4-14.5,6.4c-9.9,0-15.5-7-15.5-14.3c0-12.2,11-18.3,29.2-18.2v-0.8
			c0-3.2-1.3-8.4-10-8.4c-4.8,0-9.9,1.5-13.2,3.6l-2.4-7.9c3.6-2.2,10-4.3,17.8-4.3c15.8,0,20.3,9.8,20.3,20.3v17.4
			c0,4.4,0.2,8.6,0.7,11.6H197.2z M195.6,47.8c-8.8-0.2-17.2,1.7-17.2,9c0,4.7,3.1,6.9,7.1,6.9c4.9,0,8.6-3.2,9.7-6.6
			c0.3-0.9,0.4-1.9,0.4-2.7V47.8z"/>
		<path class="st0" d="M218.2,64.3l18.5-23.1c2.5-3,4.6-5.3,7.3-8.1v-0.2h-23.9v-9.7h39.1v7.4l-18.1,22.7c-2.4,2.9-4.7,5.6-7.3,8.2
			v0.2h26v9.7h-41.5V64.3z"/>
	</g>
	<g>
		<path class="st0" d="M11.9,50.6c0.3,8.7,7.3,12.5,15.1,12.5c5.8,0,9.9-0.8,13.6-2.2l1.8,8.4c-4.2,1.7-10.1,3-17.2,3
			C9.4,72.3,0,62.7,0,48c0-13.4,8.3-25.9,24-25.9c16,0,21.2,12.9,21.2,23.4c0,2.3-0.2,4.1-0.4,5.1H11.9z M33.5,42.1
			c0.1-4.5-1.9-11.8-10.2-11.8c-7.7,0-10.9,6.8-11.4,11.8H33.5z"/>
		<path class="st0" d="M58.7,71.3V32.2H52v-9.1h6.7v-2.1c0-6.2,1.7-12.5,6-16.4C68.3,1.3,73.2,0,77.5,0c3.3,0,6,0.5,8,1.2l-0.9,9.4
			c-1.3-0.5-3-0.9-5.3-0.9c-6.2,0-8.3,5-8.3,11v2.5h10.8v9.1H71.1v39.1H58.7z"/>
	</g>
</g>
</svg>
