<!-- Generator: Adobe Illustrator 20.1.0, SVG Export Plug-In  -->
<svg version="1.1"
	 xmlns="http://www.w3.org/2000/svg" xmlns:xlink="http://www.w3.org/1999/xlink" xmlns:a="http://ns.adobe.com/AdobeSVGViewerExtensions/3.0/"
	 x="0px" y="0px" width="373.7px" height="210.3px" viewBox="0 0 373.7 210.3"
	 style="overflow:scroll;enable-background:new 0 0 373.7 210.3;" xml:space="preserve">
<style type="text/css">
	.st0{fill:#FFFFFF;}
	.st1{fill:#E7E7E8;}
	.st2{fill:#9A9C9E;}
	.st3{fill:none;stroke:#BBBDBF;stroke-width:0.6661;}
	.st4{fill:#BBBDBF;}
	.st5{fill:none;stroke:#BBBDBF;stroke-width:0.6661;stroke-linecap:round;stroke-linejoin:round;stroke-dasharray:0,1.3304;}
	.st6{fill:none;stroke:#BBBDBF;stroke-width:0.6661;stroke-linecap:round;stroke-linejoin:round;}
	.st7{fill:#DA0962;}
	.st8{fill:#5E5F61;}
	.st9{fill:none;stroke:#BBBDBF;stroke-width:0.6661;stroke-linecap:round;stroke-linejoin:round;stroke-dasharray:0,1.3286;}
	.st10{fill:none;stroke:#BBBDBF;stroke-width:0.6661;stroke-linecap:round;stroke-linejoin:round;stroke-dasharray:0,1.3277;}
</style>
<defs>
</defs>
<g>
	<rect y="160" class="st0" width="373.6" height="50.3"/>
	<path class="st1" d="M160.6,118.9c23.8,0,43.1-10.5,43.1-23.4c0-12.9-19.3-23.4-43.1-23.4c-23.8,0-43.1,10.5-43.1,23.4
		C117.5,108.4,136.8,118.9,160.6,118.9"/>
	<polygon class="st2" points="209.5,15.9 212.5,12.3 215.4,15.9 	"/>
	<line class="st3" x1="86.9" y1="14.5" x2="86.9" y2="183.3"/>
	<polygon class="st4" points="86.9,10.8 85.2,15.6 88.7,15.6 	"/>
	<line class="st3" x1="340.9" y1="181.5" x2="85.2" y2="181.5"/>
	<polygon class="st4" points="344.6,181.5 339.8,179.8 339.8,183.3 	"/>
	<polygon class="st2" points="241.1,28.7 244,25.2 247,28.7 	"/>
	<polygon class="st2" points="278.9,80 281.8,76.5 284.8,80 	"/>
	<polygon class="st2" points="315,83.6 318,80 320.9,83.6 	"/>
	<polygon class="st2" points="330.2,161.4 333.1,157.8 336.1,161.4 	"/>
	<polygon class="st2" points="225.1,85.3 228,81.8 231,85.3 	"/>
	<polygon class="st2" points="220.2,73.1 223.1,69.5 226.1,73.1 	"/>
	<polygon class="st2" points="210,65.3 213,61.7 215.9,65.3 	"/>
	<polygon class="st2" points="177.8,72.5 180.8,69 183.7,72.5 	"/>
	<polygon class="st2" points="174.9,65.3 177.8,61.7 180.8,65.3 	"/>
	<line class="st5" x1="345.5" y1="152.2" x2="87.8" y2="152.2"/>
	<path class="st6" d="M87.2,152.2L87.2,152.2 M346.6,152.2L346.6,152.2"/>
	<line class="st5" x1="345.5" y1="124.4" x2="87.8" y2="124.4"/>
	<path class="st6" d="M87.2,124.4L87.2,124.4 M346.6,124.4L346.6,124.4"/>
	<line class="st5" x1="345.5" y1="96.8" x2="87.8" y2="96.8"/>
	<path class="st6" d="M87.2,96.8L87.2,96.8 M346.6,96.8L346.6,96.8"/>
	<line class="st5" x1="345.5" y1="67.1" x2="87.8" y2="67.1"/>
	<path class="st6" d="M87.2,67.1L87.2,67.1 M346.6,67.1L346.6,67.1"/>
	<line class="st5" x1="345.5" y1="39.2" x2="87.8" y2="39.2"/>
	<path class="st6" d="M87.2,39.2L87.2,39.2 M346.6,39.2L346.6,39.2"/>
	<g>
		<g>
			<path class="st7" d="M129.4,83.1c1.3,0,2.4-1.1,2.4-2.4c0-1.3-1.1-2.4-2.4-2.4s-2.4,1.1-2.4,2.4C127,82,128,83.1,129.4,83.1"/>
			<path class="st7" d="M167.3,111.4c1.3,0,2.4-1.1,2.4-2.4s-1.1-2.4-2.4-2.4c-1.3,0-2.4,1.1-2.4,2.4S166,111.4,167.3,111.4"/>
			<path class="st7" d="M161.4,113.8c1.3,0,2.4-1.1,2.4-2.4s-1.1-2.4-2.4-2.4s-2.4,1.1-2.4,2.4S160.1,113.8,161.4,113.8"/>
			<path class="st7" d="M156.7,111.4c1.3,0,2.4-1.1,2.4-2.4s-1.1-2.4-2.4-2.4c-1.3,0-2.4,1.1-2.4,2.4S155.3,111.4,156.7,111.4"/>
			<path class="st7" d="M159.1,108.2c1.3,0,2.4-1.1,2.4-2.4c0-1.3-1.1-2.4-2.4-2.4c-1.3,0-2.4,1.1-2.4,2.4
				C156.7,107.1,157.7,108.2,159.1,108.2"/>
			<path class="st7" d="M155.6,105.8c1.3,0,2.4-1.1,2.4-2.4s-1.1-2.4-2.4-2.4s-2.4,1.1-2.4,2.4S154.3,105.8,155.6,105.8"/>
			<path class="st7" d="M151.9,105.8c1.3,0,2.4-1.1,2.4-2.4s-1.1-2.4-2.4-2.4s-2.4,1.1-2.4,2.4S150.6,105.8,151.9,105.8"/>
			<path class="st7" d="M153.2,101.6c1.3,0,2.4-1.1,2.4-2.4s-1.1-2.4-2.4-2.4s-2.4,1.1-2.4,2.4S151.9,101.6,153.2,101.6"/>
			<path class="st7" d="M150.3,101.3c1.3,0,2.4-1.1,2.4-2.4c0-1.3-1.1-2.4-2.4-2.4s-2.4,1.1-2.4,2.4
				C147.9,100.2,148.9,101.3,150.3,101.3"/>
			<path class="st7" d="M148.5,96.8c1.3,0,2.4-1.1,2.4-2.4c0-1.3-1.1-2.4-2.4-2.4c-1.3,0-2.4,1.1-2.4,2.4
				C146.1,95.8,147.1,96.8,148.5,96.8"/>
			<path class="st7" d="M153.2,96.5c1.3,0,2.4-1.1,2.4-2.4s-1.1-2.4-2.4-2.4s-2.4,1.1-2.4,2.4S151.9,96.5,153.2,96.5"/>
			<path class="st7" d="M155.6,95.5c1.3,0,2.4-1.1,2.4-2.4s-1.1-2.4-2.4-2.4s-2.4,1.1-2.4,2.4S154.3,95.5,155.6,95.5"/>
			<path class="st7" d="M158.9,97.9c1.3,0,2.4-1.1,2.4-2.4c0-1.3-1.1-2.4-2.4-2.4s-2.4,1.1-2.4,2.4
				C156.5,96.8,157.6,97.9,158.9,97.9"/>
			<path class="st7" d="M158,93.1c1.3,0,2.4-1.1,2.4-2.4s-1.1-2.4-2.4-2.4c-1.3,0-2.4,1.1-2.4,2.4S156.7,93.1,158,93.1"/>
			<path class="st7" d="M157.4,101.3c1.3,0,2.4-1.1,2.4-2.4c0-1.3-1.1-2.4-2.4-2.4c-1.3,0-2.4,1.1-2.4,2.4
				C155,100.2,156.1,101.3,157.4,101.3"/>
			<path class="st7" d="M161.2,105.1c1.3,0,2.4-1.1,2.4-2.4s-1.1-2.4-2.4-2.4c-1.3,0-2.4,1.1-2.4,2.4S159.9,105.1,161.2,105.1"/>
			<path class="st7" d="M164.9,105.1c1.3,0,2.4-1.1,2.4-2.4s-1.1-2.4-2.4-2.4s-2.4,1.1-2.4,2.4S163.6,105.1,164.9,105.1"/>
			<path class="st7" d="M163.8,109c1.3,0,2.4-1.1,2.4-2.4c0-1.3-1.1-2.4-2.4-2.4s-2.4,1.1-2.4,2.4C161.4,107.9,162.5,109,163.8,109"
				/>
			<path class="st7" d="M170.8,109.9c1.3,0,2.4-1.1,2.4-2.4s-1.1-2.4-2.4-2.4s-2.4,1.1-2.4,2.4S169.4,109.9,170.8,109.9"/>
			<path class="st7" d="M162.2,111.4c1.3,0,2.4-1.1,2.4-2.4s-1.1-2.4-2.4-2.4s-2.4,1.1-2.4,2.4S160.9,111.4,162.2,111.4"/>
			<path class="st7" d="M149.5,93.1c1.3,0,2.4-1.1,2.4-2.4s-1.1-2.4-2.4-2.4c-1.3,0-2.4,1.1-2.4,2.4S148.2,93.1,149.5,93.1"/>
			<path class="st7" d="M151.9,92.5c1.3,0,2.4-1.1,2.4-2.4c0-1.3-1.1-2.4-2.4-2.4s-2.4,1.1-2.4,2.4
				C149.5,91.4,150.6,92.5,151.9,92.5"/>
			<path class="st7" d="M155.6,90.7c1.3,0,2.4-1.1,2.4-2.4c0-1.3-1.1-2.4-2.4-2.4s-2.4,1.1-2.4,2.4
				C153.2,89.7,154.3,90.7,155.6,90.7"/>
			<path class="st7" d="M158.9,87.8c1.3,0,2.4-1.1,2.4-2.4s-1.1-2.4-2.4-2.4s-2.4,1.1-2.4,2.4S157.6,87.8,158.9,87.8"/>
			<path class="st7" d="M162.5,90.7c1.3,0,2.4-1.1,2.4-2.4c0-1.3-1.1-2.4-2.4-2.4s-2.4,1.1-2.4,2.4
				C160.1,89.7,161.2,90.7,162.5,90.7"/>
			<path class="st7" d="M162.5,95.5c1.3,0,2.4-1.1,2.4-2.4s-1.1-2.4-2.4-2.4s-2.4,1.1-2.4,2.4S161.2,95.5,162.5,95.5"/>
			<path class="st7" d="M166.1,95.5c1.3,0,2.4-1.1,2.4-2.4s-1.1-2.4-2.4-2.4s-2.4,1.1-2.4,2.4S164.7,95.5,166.1,95.5"/>
			<path class="st7" d="M173.1,113c1.3,0,2.4-1.1,2.4-2.4s-1.1-2.4-2.4-2.4c-1.3,0-2.4,1.1-2.4,2.4S171.8,113,173.1,113"/>
			<path class="st7" d="M143.7,75.6c1.3,0,2.4-1.1,2.4-2.4s-1.1-2.4-2.4-2.4c-1.3,0-2.4,1.1-2.4,2.4S142.4,75.6,143.7,75.6"/>
			<path class="st7" d="M147,79.7c1.3,0,2.4-1.1,2.4-2.4s-1.1-2.4-2.4-2.4s-2.4,1.1-2.4,2.4S145.6,79.7,147,79.7"/>
			<path class="st7" d="M149.4,75.6c1.3,0,2.4-1.1,2.4-2.4s-1.1-2.4-2.4-2.4c-1.3,0-2.4,1.1-2.4,2.4S148,75.6,149.4,75.6"/>
			<path class="st7" d="M151.7,80.3c1.3,0,2.4-1.1,2.4-2.4c0-1.3-1.1-2.4-2.4-2.4c-1.3,0-2.4,1.1-2.4,2.4
				C149.4,79.3,150.4,80.3,151.7,80.3"/>
			<path class="st7" d="M155,79.7c1.3,0,2.4-1.1,2.4-2.4s-1.1-2.4-2.4-2.4c-1.3,0-2.4,1.1-2.4,2.4S153.7,79.7,155,79.7"/>
			<path class="st7" d="M156.5,77.3c1.3,0,2.4-1.1,2.4-2.4c0-1.3-1.1-2.4-2.4-2.4s-2.4,1.1-2.4,2.4
				C154.1,76.2,155.2,77.3,156.5,77.3"/>
			<path class="st7" d="M142.2,90.1c1.3,0,2.4-1.1,2.4-2.4s-1.1-2.4-2.4-2.4c-1.3,0-2.4,1.1-2.4,2.4S140.9,90.1,142.2,90.1"/>
			<path class="st7" d="M146.1,94.9c1.3,0,2.4-1.1,2.4-2.4c0-1.3-1.1-2.4-2.4-2.4s-2.4,1.1-2.4,2.4
				C143.7,93.8,144.8,94.9,146.1,94.9"/>
			<path class="st7" d="M148.5,90.1c1.3,0,2.4-1.1,2.4-2.4s-1.1-2.4-2.4-2.4c-1.3,0-2.4,1.1-2.4,2.4S147.1,90.1,148.5,90.1"/>
			<path class="st7" d="M150.3,87.7c1.3,0,2.4-1.1,2.4-2.4s-1.1-2.4-2.4-2.4s-2.4,1.1-2.4,2.4S148.9,87.7,150.3,87.7"/>
			<path class="st7" d="M153.2,86.6c1.3,0,2.4-1.1,2.4-2.4c0-1.3-1.1-2.4-2.4-2.4s-2.4,1.1-2.4,2.4
				C150.9,85.5,151.9,86.6,153.2,86.6"/>
			<path class="st7" d="M155.6,84.4c1.3,0,2.4-1.1,2.4-2.4c0-1.3-1.1-2.4-2.4-2.4s-2.4,1.1-2.4,2.4
				C153.2,83.4,154.3,84.4,155.6,84.4"/>
			<path class="st7" d="M167.3,88.4c1.3,0,2.4-1.1,2.4-2.4c0-1.3-1.1-2.4-2.4-2.4c-1.3,0-2.4,1.1-2.4,2.4
				C164.9,87.3,166,88.4,167.3,88.4"/>
			<path class="st7" d="M174.1,94.9c1.3,0,2.4-1.1,2.4-2.4c0-1.3-1.1-2.4-2.4-2.4s-2.4,1.1-2.4,2.4
				C171.7,93.8,172.8,94.9,174.1,94.9"/>
			<path class="st7" d="M168.4,96.5c1.3,0,2.4-1.1,2.4-2.4s-1.1-2.4-2.4-2.4c-1.3,0-2.4,1.1-2.4,2.4S167,96.5,168.4,96.5"/>
			<path class="st7" d="M166,101.6c1.3,0,2.4-1.1,2.4-2.4s-1.1-2.4-2.4-2.4c-1.3,0-2.4,1.1-2.4,2.4S164.7,101.6,166,101.6"/>
			<path class="st7" d="M161.4,100.3c1.3,0,2.4-1.1,2.4-2.4s-1.1-2.4-2.4-2.4s-2.4,1.1-2.4,2.4S160.1,100.3,161.4,100.3"/>
			<path class="st7" d="M170.8,101.6c1.3,0,2.4-1.1,2.4-2.4s-1.1-2.4-2.4-2.4s-2.4,1.1-2.4,2.4S169.4,101.6,170.8,101.6"/>
			<path class="st7" d="M168.4,101.8c1.3,0,2.4-1.1,2.4-2.4c0-1.3-1.1-2.4-2.4-2.4c-1.3,0-2.4,1.1-2.4,2.4
				C166,100.8,167,101.8,168.4,101.8"/>
			<path class="st7" d="M169.7,106.6c1.3,0,2.4-1.1,2.4-2.4c0-1.3-1.1-2.4-2.4-2.4s-2.4,1.1-2.4,2.4
				C167.3,105.5,168.4,106.6,169.7,106.6"/>
			<path class="st7" d="M174.1,106.6c1.3,0,2.4-1.1,2.4-2.4c0-1.3-1.1-2.4-2.4-2.4s-2.4,1.1-2.4,2.4
				C171.7,105.5,172.8,106.6,174.1,106.6"/>
		</g>
	</g>
	<g>
		<path class="st8" d="M77.1,37.4L77.1,37.4l-0.9,0.4l-0.2-0.7l1.1-0.6H78v4.7h-0.9V37.4z"/>
		<path class="st8" d="M82.9,38.9c0,1.5-0.6,2.5-1.7,2.5c-1.1,0-1.7-1-1.7-2.4c0-1.5,0.6-2.5,1.7-2.5C82.4,36.5,82.9,37.5,82.9,38.9
			z M80.4,38.9c0,1.1,0.3,1.7,0.8,1.7c0.5,0,0.8-0.6,0.8-1.8c0-1.1-0.3-1.7-0.8-1.7C80.7,37.2,80.4,37.8,80.4,38.9z"/>
		<path class="st8" d="M86.7,39v0.6h-1.8V39H86.7z"/>
	</g>
	<g>
		<path class="st8" d="M82.6,65.6h-1.8l-0.1,0.9c0.1,0,0.2,0,0.3,0c0.4,0,0.8,0.1,1.1,0.3c0.4,0.2,0.6,0.6,0.6,1.2
			c0,0.9-0.7,1.6-1.9,1.6c-0.5,0-1-0.1-1.2-0.3l0.2-0.7c0.2,0.1,0.6,0.2,1,0.2c0.5,0,1-0.3,1-0.9c0-0.5-0.4-0.9-1.3-0.9
			c-0.3,0-0.5,0-0.6,0l0.3-2.4h2.4V65.6z"/>
		<path class="st8" d="M86.7,67.3v0.6h-1.8v-0.6H86.7z"/>
	</g>
	<g>
		<path class="st8" d="M82.9,95.4c0,1.5-0.6,2.5-1.7,2.5c-1.1,0-1.7-1-1.7-2.4c0-1.5,0.6-2.5,1.7-2.5C82.4,93,82.9,94,82.9,95.4z
			 M80.4,95.4c0,1.1,0.3,1.7,0.8,1.7c0.5,0,0.8-0.6,0.8-1.8c0-1.1-0.3-1.7-0.8-1.7C80.7,93.7,80.4,94.3,80.4,95.4z"/>
		<path class="st8" d="M86.7,95.5v0.6h-1.8v-0.6H86.7z"/>
	</g>
	<g>
		<path class="st8" d="M77.1,122.1L77.1,122.1l-0.9,0.4l-0.2-0.7l1.1-0.6H78v4.7h-0.9V122.1z"/>
		<path class="st8" d="M82.6,122.1h-1.8l-0.1,0.9c0.1,0,0.2,0,0.3,0c0.4,0,0.8,0.1,1.1,0.3c0.4,0.2,0.6,0.6,0.6,1.2
			c0,0.9-0.7,1.6-1.9,1.6c-0.5,0-1-0.1-1.2-0.3l0.2-0.7c0.2,0.1,0.6,0.2,1,0.2c0.5,0,1-0.3,1-0.9c0-0.5-0.4-0.9-1.3-0.9
			c-0.3,0-0.5,0-0.6,0l0.3-2.4h2.4V122.1z"/>
		<path class="st8" d="M86.7,123.8v0.6h-1.8v-0.6H86.7z"/>
	</g>
	<g>
		<path class="st8" d="M75.2,152v0.6h-1.8V152H75.2z"/>
		<path class="st8" d="M77.1,150.4L77.1,150.4l-0.9,0.4l-0.2-0.7l1.1-0.6H78v4.7h-0.9V150.4z"/>
		<path class="st8" d="M82.9,151.9c0,1.5-0.6,2.5-1.7,2.5c-1.1,0-1.7-1-1.7-2.4c0-1.5,0.6-2.5,1.7-2.5
			C82.4,149.5,82.9,150.5,82.9,151.9z M80.4,151.9c0,1.1,0.3,1.7,0.8,1.7c0.5,0,0.8-0.6,0.8-1.8c0-1.1-0.3-1.7-0.8-1.7
			C80.8,150.2,80.4,150.8,80.4,151.9z"/>
		<path class="st8" d="M86.7,152v0.6h-1.8V152H86.7z"/>
	</g>
	<g>
		<path class="st8" d="M75.2,181v0.6h-1.8V181H75.2z"/>
		<path class="st8" d="M77.1,179.4L77.1,179.4l-0.9,0.4l-0.2-0.7l1.1-0.6H78v4.7h-0.9V179.4z"/>
		<path class="st8" d="M82.6,179.3h-1.8l-0.1,0.9c0.1,0,0.2,0,0.3,0c0.4,0,0.8,0.1,1.1,0.3c0.4,0.2,0.6,0.6,0.6,1.2
			c0,0.9-0.7,1.6-1.9,1.6c-0.5,0-1-0.1-1.2-0.3l0.2-0.7c0.2,0.1,0.6,0.2,1,0.2c0.5,0,1-0.3,1-0.9c0-0.5-0.4-0.9-1.3-0.9
			c-0.3,0-0.5,0-0.6,0l0.3-2.4h2.4V179.3z"/>
		<path class="st8" d="M86.7,181v0.6h-1.8V181H86.7z"/>
	</g>
	<g>
		<path class="st8" d="M160.8,181.7v1.5h-0.3v-1.5H160.8z"/>
	</g>
	<g>
		<path class="st8" d="M162.4,187.3c0,1.5-0.6,2.5-1.7,2.5c-1.1,0-1.7-1-1.7-2.4c0-1.5,0.6-2.5,1.7-2.5
			C161.8,184.9,162.4,185.9,162.4,187.3z M159.9,187.3c0,1.1,0.3,1.7,0.8,1.7c0.5,0,0.8-0.6,0.8-1.8c0-1.1-0.3-1.7-0.8-1.7
			C160.2,185.6,159.9,186.2,159.9,187.3z"/>
	</g>
	<g>
		<path class="st8" d="M197.7,181.7v1.5h-0.3v-1.5H197.7z"/>
	</g>
	<g>
		<path class="st8" d="M198.9,185.7h-1.8l-0.1,0.9c0.1,0,0.2,0,0.3,0c0.4,0,0.8,0.1,1.1,0.3c0.4,0.2,0.6,0.6,0.6,1.2
			c0,0.9-0.7,1.6-1.9,1.6c-0.5,0-1-0.1-1.2-0.3l0.2-0.7c0.2,0.1,0.6,0.2,1,0.2c0.5,0,1-0.3,1-0.9c0-0.5-0.4-0.9-1.3-0.9
			c-0.3,0-0.5,0-0.6,0l0.3-2.4h2.4V185.7z"/>
	</g>
	<g>
		<path class="st8" d="M234.6,181.7v1.5h-0.3v-1.5H234.6z"/>
	</g>
	<g>
		<path class="st8" d="M232.2,185.8L232.2,185.8l-0.9,0.4l-0.2-0.7l1.1-0.6h0.7v4.7h-0.9V185.8z"/>
		<path class="st8" d="M238.1,187.3c0,1.5-0.6,2.5-1.7,2.5c-1.1,0-1.7-1-1.7-2.4c0-1.5,0.6-2.5,1.7-2.5
			C237.5,184.9,238.1,185.9,238.1,187.3z M235.6,187.3c0,1.1,0.3,1.7,0.8,1.7c0.5,0,0.8-0.6,0.8-1.8c0-1.1-0.3-1.7-0.8-1.7
			C235.9,185.6,235.6,186.2,235.6,187.3z"/>
	</g>
	<g>
		<path class="st8" d="M271.4,181.7v1.5h-0.3v-1.5H271.4z"/>
	</g>
	<g>
		<path class="st8" d="M269.1,185.8L269.1,185.8l-0.9,0.4l-0.2-0.7l1.1-0.6h0.7v4.7h-0.9V185.8z"/>
		<path class="st8" d="M274.6,185.7h-1.8l-0.1,0.9c0.1,0,0.2,0,0.3,0c0.4,0,0.8,0.1,1.1,0.3c0.4,0.2,0.6,0.6,0.6,1.2
			c0,0.9-0.7,1.6-1.9,1.6c-0.5,0-1-0.1-1.2-0.3l0.2-0.7c0.2,0.1,0.6,0.2,1,0.2c0.5,0,1-0.3,1-0.9c0-0.5-0.4-0.9-1.3-0.9
			c-0.3,0-0.5,0-0.6,0l0.3-2.4h2.4V185.7z"/>
	</g>
	<g>
		<path class="st8" d="M308.5,181.7v1.5h-0.3v-1.5H308.5z"/>
	</g>
	<g>
		<path class="st8" d="M304.8,189.7v-0.5l0.6-0.5c1.1-1,1.6-1.6,1.6-2.2c0-0.4-0.2-0.8-0.8-0.8c-0.4,0-0.8,0.2-1,0.4l-0.3-0.6
			c0.3-0.3,0.9-0.5,1.5-0.5c1,0,1.6,0.7,1.6,1.4c0,0.8-0.6,1.5-1.4,2.3l-0.4,0.4v0h1.9v0.7H304.8z"/>
		<path class="st8" d="M312,187.3c0,1.5-0.6,2.5-1.7,2.5c-1.1,0-1.7-1-1.7-2.4c0-1.5,0.6-2.5,1.7-2.5
			C311.5,184.9,312,185.9,312,187.3z M309.5,187.3c0,1.1,0.3,1.7,0.8,1.7c0.5,0,0.8-0.6,0.8-1.8c0-1.1-0.3-1.7-0.8-1.7
			C309.9,185.6,309.5,186.2,309.5,187.3z"/>
	</g>
	<g>
		<path class="st8" d="M123.5,181.7v1.5h-0.3v-1.5H123.5z"/>
	</g>
	<g>
		<path class="st8" d="M122.3,187.4v0.6h-1.8v-0.6H122.3z"/>
		<path class="st8" d="M125.8,185.7H124l-0.1,0.9c0.1,0,0.2,0,0.3,0c0.4,0,0.8,0.1,1.1,0.3c0.4,0.2,0.6,0.6,0.6,1.2
			c0,0.9-0.7,1.6-1.9,1.6c-0.5,0-1-0.1-1.2-0.3l0.2-0.7c0.2,0.1,0.6,0.2,1,0.2c0.5,0,1-0.3,1-0.9c0-0.5-0.4-0.9-1.3-0.9
			c-0.3,0-0.5,0-0.6,0l0.3-2.4h2.4V185.7z"/>
	</g>
	<g>
		<path class="st8" d="M87.1,181.7v1.5h-0.3v-1.5H87.1z"/>
	</g>
	<g>
		<path class="st8" d="M84,187.4v0.6h-1.8v-0.6H84z"/>
		<path class="st8" d="M85.9,185.8L85.9,185.8l-0.9,0.4l-0.2-0.7L86,185h0.7v4.7h-0.9V185.8z"/>
		<path class="st8" d="M91.7,187.3c0,1.5-0.6,2.5-1.7,2.5c-1.1,0-1.7-1-1.7-2.4c0-1.5,0.6-2.5,1.7-2.5
			C91.2,184.9,91.7,185.9,91.7,187.3z M89.2,187.3c0,1.1,0.3,1.7,0.8,1.7c0.5,0,0.8-0.6,0.8-1.8c0-1.1-0.3-1.7-0.8-1.7
			C89.6,185.6,89.2,186.2,89.2,187.3z"/>
	</g>
	<line class="st9" x1="123.6" y1="12.5" x2="123.6" y2="181.1"/>
	<path class="st6" d="M123.6,181.6L123.6,181.6 M123.6,11.4L123.6,11.4"/>
	<line class="st9" x1="160.9" y1="12.5" x2="160.9" y2="181.1"/>
	<path class="st6" d="M160.9,181.6L160.9,181.6 M160.9,11.4L160.9,11.4"/>
	<line class="st9" x1="197.8" y1="12.5" x2="197.8" y2="181.1"/>
	<path class="st6" d="M197.8,181.6L197.8,181.6 M197.8,11.4L197.8,11.4"/>
	<line class="st9" x1="234.7" y1="12.5" x2="234.7" y2="181.1"/>
	<path class="st6" d="M234.7,181.6L234.7,181.6 M234.7,11.4L234.7,11.4"/>
	<line class="st9" x1="271.6" y1="12.5" x2="271.6" y2="181.1"/>
	<path class="st6" d="M271.6,181.6L271.6,181.6 M271.6,11.4L271.6,11.4"/>
	<line class="st10" x1="308.4" y1="40.9" x2="308.4" y2="181.1"/>
	<path class="st6" d="M308.4,181.6L308.4,181.6 M308.4,39.8L308.4,39.8"/>
	<g>
		<g>
			<path class="st7" d="M296.6,3.6h-2.2v1.7h2.5v0.9h-3.6V0.3h3.4v0.9h-2.4v1.5h2.2V3.6z"/>
			<path class="st7" d="M302.5,5.9c-0.4,0.1-1.1,0.3-1.9,0.3c-1,0-1.7-0.3-2.3-0.8c-0.5-0.5-0.8-1.3-0.8-2.2c0-1.9,1.3-3.1,3.3-3.1
				c0.7,0,1.3,0.1,1.6,0.3l-0.2,0.9c-0.3-0.1-0.7-0.3-1.3-0.3c-1.3,0-2.1,0.7-2.1,2.1c0,1.3,0.8,2.1,2,2.1c0.4,0,0.7-0.1,0.8-0.1
				V3.8h-1V3h2.1V5.9z"/>
			<path class="st7" d="M303.5,6.2c0-0.3,0-0.8,0-1.2V0h1.1v2.5h0c0.3-0.4,0.7-0.7,1.4-0.7c1,0,1.8,0.9,1.8,2.2c0,1.5-1,2.3-1.9,2.3
				c-0.6,0-1-0.2-1.3-0.7h0l-0.1,0.6H303.5z M304.6,4.5c0,0.1,0,0.2,0,0.3c0.1,0.4,0.5,0.8,1,0.8c0.7,0,1.1-0.5,1.1-1.4
				c0-0.8-0.4-1.4-1.1-1.4c-0.4,0-0.8,0.3-1,0.8c0,0.1,0,0.2,0,0.3V4.5z"/>
			<path class="st7" d="M314.2,0.5v0.7l-2.4,5h-1.1l2.4-4.8v0h-2.7V0.5H314.2z"/>
			<path class="st7" d="M318.4,1.3c-0.2,0-0.3,0-0.6,0c-1.2,0.1-1.8,0.9-1.9,1.7h0c0.3-0.3,0.7-0.6,1.3-0.6c1,0,1.7,0.7,1.7,1.9
				c0,1.1-0.8,2-2,2c-1.4,0-2.1-1-2.1-2.4c0-1.1,0.4-2,1-2.6c0.5-0.5,1.2-0.8,2-0.8c0.2,0,0.4,0,0.5,0L318.4,1.3z M317.9,4.3
				c0-0.7-0.4-1.1-1-1.1c-0.4,0-0.8,0.2-0.9,0.6c0,0.1-0.1,0.2-0.1,0.3c0,0.8,0.4,1.4,1.1,1.4C317.6,5.5,317.9,5,317.9,4.3z"/>
			<path class="st7" d="M321.3,1.5L321.3,1.5L320.3,2l-0.2-0.8l1.4-0.7h0.9v5.7h-1V1.5z"/>
			<path class="st7" d="M327.4,1.7c0,0.8-0.7,1.5-1.5,1.5c-0.8,0-1.5-0.7-1.5-1.5c0-0.8,0.7-1.5,1.5-1.5
				C326.7,0.2,327.4,0.9,327.4,1.7z M324.8,1.7c0,0.6,0.5,1.1,1.1,1.1c0.6,0,1.1-0.5,1.1-1.1c0-0.6-0.5-1.1-1.1-1.1
				C325.3,0.6,324.8,1.1,324.8,1.7z M325.7,2.4h-0.4V1c0.1,0,0.3,0,0.6,0c0.3,0,0.4,0,0.5,0.1c0.1,0.1,0.2,0.2,0.2,0.3
				c0,0.1-0.1,0.3-0.3,0.3v0c0.1,0.1,0.2,0.2,0.3,0.4c0,0.2,0.1,0.3,0.1,0.3h-0.4c0-0.1-0.1-0.2-0.1-0.3c0-0.1-0.1-0.2-0.3-0.2h-0.1
				V2.4z M325.7,1.6h0.1c0.2,0,0.3-0.1,0.3-0.2c0-0.1-0.1-0.2-0.3-0.2c-0.1,0-0.1,0-0.2,0V1.6z"/>
		</g>
	</g>
	<g>
		<path class="st8" d="M297.6,13.4c0,1.6-1,2.6-2.4,2.6c-1.4,0-2.3-1.1-2.3-2.5c0-1.5,0.9-2.6,2.4-2.6
			C296.8,10.9,297.6,12.1,297.6,13.4z M294.1,13.5c0,1,0.4,1.6,1.2,1.6c0.7,0,1.2-0.7,1.2-1.7c0-0.9-0.4-1.6-1.2-1.6
			C294.5,11.8,294.1,12.5,294.1,13.5z"/>
		<path class="st8" d="M299.6,11.3v1h0.8v0.8h-0.8v1.3c0,0.4,0.1,0.6,0.4,0.6c0.1,0,0.2,0,0.3,0l0,0.8c-0.1,0.1-0.4,0.1-0.7,0.1
			c-0.4,0-0.7-0.1-0.8-0.3c-0.2-0.2-0.3-0.6-0.3-1.1v-1.4h-0.5v-0.8h0.5v-0.8L299.6,11.3z"/>
		<path class="st8" d="M301,13.5c0-0.5,0-0.9,0-1.2h0.9l0,0.7h0c0.2-0.5,0.6-0.7,1-0.7c0.1,0,0.2,0,0.2,0v1c-0.1,0-0.2,0-0.3,0
			c-0.4,0-0.7,0.2-0.8,0.6c0,0.1,0,0.2,0,0.2v1.8H301V13.5z"/>
		<path class="st8" d="M307.3,14.1c0,1.3-0.9,1.9-1.9,1.9c-1,0-1.8-0.7-1.8-1.8c0-1.1,0.8-1.9,1.9-1.9
			C306.5,12.3,307.3,13,307.3,14.1z M304.7,14.1c0,0.6,0.3,1.1,0.7,1.1c0.4,0,0.7-0.4,0.7-1.1c0-0.5-0.2-1.1-0.7-1.1
			C304.9,13.1,304.7,13.6,304.7,14.1z"/>
		<path class="st8" d="M307.9,14.9c0.2,0.1,0.6,0.3,1,0.3c0.3,0,0.5-0.1,0.5-0.3c0-0.2-0.1-0.3-0.5-0.4c-0.7-0.2-1-0.6-1-1.1
			c0-0.7,0.6-1.2,1.4-1.2c0.4,0,0.8,0.1,1,0.2l-0.2,0.8c-0.2-0.1-0.5-0.2-0.8-0.2c-0.3,0-0.4,0.1-0.4,0.3c0,0.2,0.1,0.3,0.6,0.4
			c0.7,0.2,1,0.6,1,1.1c0,0.7-0.5,1.1-1.5,1.1c-0.5,0-0.9-0.1-1.1-0.2L307.9,14.9z"/>
		<path class="st8" d="M313.4,14.5c0,0.5,0.5,0.7,1,0.7c0.4,0,0.7-0.1,1-0.1l0.1,0.7c-0.4,0.1-0.8,0.2-1.3,0.2
			c-1.2,0-1.9-0.7-1.9-1.8c0-0.9,0.6-1.9,1.8-1.9c1.1,0,1.6,0.9,1.6,1.8c0,0.2,0,0.4,0,0.4H313.4z M314.7,13.7
			c0-0.3-0.1-0.7-0.6-0.7c-0.5,0-0.7,0.4-0.7,0.7H314.7z"/>
		<path class="st8" d="M317.1,12.4l0.3,0.6c0.1,0.2,0.2,0.4,0.3,0.5h0c0.1-0.2,0.2-0.4,0.3-0.5l0.3-0.6h1.2l-1.2,1.7l1.2,1.9h-1.2
			l-0.4-0.6c-0.1-0.2-0.2-0.4-0.3-0.5h0c-0.1,0.2-0.2,0.4-0.3,0.5l-0.3,0.6h-1.2l1.2-1.8l-1.2-1.7H317.1z"/>
		<path class="st8" d="M321.4,11.3v1h0.8v0.8h-0.8v1.3c0,0.4,0.1,0.6,0.4,0.6c0.1,0,0.2,0,0.3,0l0,0.8c-0.1,0.1-0.4,0.1-0.7,0.1
			c-0.4,0-0.7-0.1-0.8-0.3c-0.2-0.2-0.3-0.6-0.3-1.1v-1.4h-0.5v-0.8h0.5v-0.8L321.4,11.3z"/>
		<path class="st8" d="M322.8,13.5c0-0.5,0-0.9,0-1.2h0.9l0,0.7h0c0.2-0.5,0.6-0.7,1-0.7c0.1,0,0.2,0,0.2,0v1c-0.1,0-0.2,0-0.3,0
			c-0.4,0-0.7,0.2-0.8,0.6c0,0.1,0,0.2,0,0.2v1.8h-1.1V13.5z"/>
		<path class="st8" d="M327.5,15.9l-0.1-0.4h0c-0.2,0.3-0.6,0.4-1,0.4c-0.7,0-1.1-0.5-1.1-1.1c0-0.9,0.8-1.4,2.1-1.4v0
			c0-0.2-0.1-0.5-0.6-0.5c-0.4,0-0.7,0.1-1,0.3l-0.2-0.7c0.2-0.1,0.7-0.3,1.4-0.3c1.2,0,1.6,0.7,1.6,1.5V15c0,0.3,0,0.7,0.1,0.9
			H327.5z M327.4,14.2c-0.6,0-1,0.1-1,0.6c0,0.3,0.2,0.4,0.4,0.4c0.3,0,0.5-0.2,0.6-0.4c0-0.1,0-0.1,0-0.2V14.2z"/>
		<path class="st8" d="M332,15.8c-0.2,0.1-0.6,0.2-1,0.2c-1.1,0-1.9-0.7-1.9-1.8c0-1,0.7-1.9,2-1.9c0.3,0,0.6,0.1,0.8,0.1l-0.2,0.8
			c-0.1-0.1-0.3-0.1-0.6-0.1c-0.6,0-1,0.4-0.9,1c0,0.7,0.4,1,1,1c0.3,0,0.5,0,0.6-0.1L332,15.8z"/>
		<path class="st8" d="M333.9,11.3v1h0.8v0.8h-0.8v1.3c0,0.4,0.1,0.6,0.4,0.6c0.1,0,0.2,0,0.3,0l0,0.8c-0.1,0.1-0.4,0.1-0.7,0.1
			c-0.4,0-0.7-0.1-0.8-0.3c-0.2-0.2-0.3-0.6-0.3-1.1v-1.4h-0.5v-0.8h0.5v-0.8L333.9,11.3z"/>
		<path class="st8" d="M338.8,14.1c0,1.3-0.9,1.9-1.9,1.9c-1,0-1.8-0.7-1.8-1.8c0-1.1,0.8-1.9,1.9-1.9
			C338.1,12.3,338.8,13,338.8,14.1z M336.2,14.1c0,0.6,0.3,1.1,0.7,1.1c0.4,0,0.7-0.4,0.7-1.1c0-0.5-0.2-1.1-0.7-1.1
			C336.4,13.1,336.2,13.6,336.2,14.1z"/>
		<path class="st8" d="M339.5,14.9c0.2,0.1,0.6,0.3,1,0.3c0.3,0,0.5-0.1,0.5-0.3c0-0.2-0.1-0.3-0.5-0.4c-0.7-0.2-1-0.6-1-1.1
			c0-0.7,0.6-1.2,1.4-1.2c0.4,0,0.8,0.1,1,0.2l-0.2,0.8c-0.2-0.1-0.5-0.2-0.8-0.2c-0.3,0-0.4,0.1-0.4,0.3c0,0.2,0.1,0.3,0.6,0.4
			c0.7,0.2,1,0.6,1,1.1c0,0.7-0.5,1.1-1.5,1.1c-0.5,0-0.9-0.1-1.1-0.2L339.5,14.9z"/>
	</g>
	<g>
		<path class="st8" d="M344.8,10.5v4.1c0,0.4,0,0.8,0,1.1h-1l-0.1-0.5h0c-0.2,0.4-0.7,0.6-1.1,0.6c-0.8,0-1.5-0.7-1.5-1.8
			c0-1.2,0.7-1.9,1.6-1.9c0.4,0,0.8,0.2,0.9,0.4h0v-1.9H344.8z M343.7,13.6c0-0.1,0-0.1,0-0.2c-0.1-0.3-0.3-0.5-0.6-0.5
			c-0.5,0-0.8,0.4-0.8,1c0,0.6,0.3,1,0.8,1c0.3,0,0.6-0.2,0.6-0.5c0-0.1,0-0.2,0-0.3V13.6z"/>
		<path class="st8" d="M346.5,14.2c0,0.5,0.5,0.7,1,0.7c0.4,0,0.7-0.1,1-0.1l0.1,0.7c-0.4,0.1-0.8,0.2-1.3,0.2
			c-1.2,0-1.9-0.7-1.9-1.8c0-0.9,0.6-1.9,1.8-1.9c1.1,0,1.6,0.9,1.6,1.8c0,0.2,0,0.4,0,0.4H346.5z M347.8,13.5
			c0-0.3-0.1-0.7-0.6-0.7c-0.5,0-0.7,0.4-0.7,0.7H347.8z"/>
		<path class="st8" d="M355.1,15.4c-0.3,0.1-1,0.3-1.6,0.3c-0.9,0-1.5-0.2-2-0.7c-0.4-0.4-0.7-1.1-0.7-1.8c0-1.6,1.2-2.6,2.8-2.6
			c0.6,0,1.1,0.1,1.4,0.2l-0.2,0.9c-0.3-0.1-0.6-0.2-1.1-0.2c-0.9,0-1.6,0.5-1.6,1.6c0,1,0.6,1.6,1.5,1.6c0.3,0,0.5,0,0.5-0.1v-1
			h-0.8v-0.9h1.8V15.4z"/>
		<path class="st8" d="M357,11.1c0,0.3-0.2,0.6-0.6,0.6c-0.3,0-0.6-0.2-0.6-0.6c0-0.3,0.2-0.6,0.6-0.6C356.8,10.6,357,10.8,357,11.1
			z M355.9,15.6v-3.5h1.1v3.5H355.9z"/>
		<path class="st8" d="M357.9,13.2c0-0.4,0-0.8,0-1.1h1l0.1,0.5h0c0.1-0.2,0.5-0.6,1.1-0.6c0.7,0,1.3,0.5,1.3,1.5v2.1h-1.1v-2
			c0-0.5-0.2-0.8-0.6-0.8c-0.3,0-0.5,0.2-0.6,0.4c0,0.1,0,0.2,0,0.3v2h-1.1V13.2z"/>
		<path class="st8" d="M363.2,13.6L363.2,13.6c0.1-0.1,0.2-0.3,0.3-0.4l0.7-1.1h1.3l-1.3,1.4l1.4,2.1h-1.4l-0.9-1.5l-0.3,0.3v1.1
			h-1.1v-5.1h1.1V13.6z"/>
		<path class="st8" d="M369.4,12.1c0,0.2,0,0.5,0,1.1v2c0,0.7-0.1,1.2-0.5,1.6c-0.4,0.3-0.9,0.4-1.4,0.4c-0.5,0-1-0.1-1.3-0.3
			l0.2-0.8c0.2,0.1,0.6,0.3,1,0.3c0.5,0,0.9-0.3,0.9-0.9v-0.2h0c-0.2,0.3-0.6,0.5-1,0.5c-0.9,0-1.5-0.7-1.5-1.7
			c0-1.1,0.7-1.9,1.6-1.9c0.5,0,0.8,0.2,1,0.5h0l0-0.4H369.4z M368.2,13.5c0-0.1,0-0.1,0-0.2c-0.1-0.3-0.3-0.5-0.6-0.5
			c-0.4,0-0.7,0.4-0.7,1c0,0.5,0.3,0.9,0.7,0.9c0.3,0,0.5-0.2,0.6-0.4c0-0.1,0-0.2,0-0.3V13.5z"/>
		<path class="st8" d="M373.7,13.8c0,1.3-0.9,1.9-1.9,1.9c-1,0-1.8-0.7-1.8-1.8c0-1.1,0.8-1.9,1.9-1.9C373,12,373.7,12.8,373.7,13.8
			z M371.1,13.9c0,0.6,0.3,1.1,0.7,1.1c0.4,0,0.7-0.4,0.7-1.1c0-0.5-0.2-1.1-0.7-1.1C371.3,12.8,371.1,13.3,371.1,13.9z"/>
	</g>
	<path class="st7" d="M286.7,6.6c1.3,0,2.4-1.1,2.4-2.4s-1.1-2.4-2.4-2.4c-1.3,0-2.4,1.1-2.4,2.4S285.4,6.6,286.7,6.6"/>
	<polygon class="st2" points="283.7,15.9 286.6,12.3 289.6,15.9 	"/>
	<g>
		<path class="st8" d="M63,102.6h1v-0.8h0.7v0.8h1.6c0.4,0,0.7-0.1,0.7-0.5c0-0.2,0-0.3,0-0.3l0.7,0c0.1,0.1,0.1,0.4,0.1,0.6
			c0,0.3-0.1,0.6-0.3,0.8c-0.2,0.2-0.5,0.3-1,0.3h-1.7v0.5H64v-0.5h-0.8L63,102.6z"/>
	</g>
	<polygon class="st8" points="68,101 62.3,101 62.3,99.5 62.8,99.5 62.8,100.3 67.5,100.3 67.5,99.5 68,99.5 	"/>
	<g>
		<path class="st8" d="M67.5,98.9H67l-0.5-0.6c-1-1.1-1.6-1.6-2.2-1.6c-0.4,0-0.8,0.2-0.8,0.8c0,0.4,0.2,0.8,0.4,1l-0.6,0.3
			c-0.3-0.3-0.5-0.9-0.5-1.5c0-1,0.7-1.6,1.4-1.6c0.8,0,1.5,0.6,2.3,1.4l0.4,0.4h0v-1.9h0.7V98.9z"/>
		<path class="st8" d="M62.5,93.7h5.8v1.4h-0.5v-0.7h-4.8v0.7h-0.5V93.7z"/>
	</g>
	<g>
		<path class="st8" d="M215.4,201.5v1h0.8v0.7h-0.8v1.6c0,0.4,0.1,0.7,0.5,0.7c0.2,0,0.3,0,0.3,0l0,0.7c-0.1,0.1-0.4,0.1-0.6,0.1
			c-0.3,0-0.6-0.1-0.8-0.3c-0.2-0.2-0.3-0.5-0.3-1v-1.7H214v-0.7h0.5v-0.8L215.4,201.5z"/>
	</g>
	<polygon class="st8" points="217,206.5 217,200.7 218.4,200.7 218.4,201.3 217.7,201.3 217.7,206 218.4,206 218.4,206.5 	"/>
	<g>
		<path class="st8" d="M220.5,202.1L220.5,202.1l-0.9,0.4l-0.2-0.7l1.1-0.6h0.7v4.7h-0.9V202.1z"/>
		<path class="st8" d="M224.3,201v5.8h-1.4v-0.5h0.7v-4.8h-0.7V201H224.3z"/>
	</g>
</g>
</svg>
