<!-- Generator: Adobe Illustrator 20.1.0, SVG Export Plug-In  -->
<svg version="1.1"
	 xmlns="http://www.w3.org/2000/svg" xmlns:xlink="http://www.w3.org/1999/xlink" xmlns:a="http://ns.adobe.com/AdobeSVGViewerExtensions/3.0/"
	 x="0px" y="0px" width="347.8px" height="218.8px" viewBox="0 0 347.8 218.8"
	 style="overflow:scroll;enable-background:new 0 0 347.8 218.8;" xml:space="preserve">
<style type="text/css">
	.st0{fill:none;stroke:#DF068C;stroke-width:0.8675;stroke-miterlimit:10;}
	.st1{fill:none;stroke:#DF068C;stroke-width:1.7178;stroke-miterlimit:10;}
	.st2{fill:none;stroke:#DF068C;stroke-width:0.7052;stroke-miterlimit:10;}
</style>
<defs>
</defs>
<g>
	<line class="st0" x1="0" y1="54.3" x2="2.2" y2="54.3"/>
	<line class="st0" x1="0" y1="1.5" x2="2.2" y2="1.5"/>
	<line class="st0" x1="0" y1="6.7" x2="2.2" y2="6.7"/>
	<line class="st0" x1="0" y1="12" x2="2.2" y2="12"/>
	<line class="st0" x1="0" y1="17.3" x2="2.2" y2="17.3"/>
	<line class="st0" x1="0" y1="22.6" x2="2.2" y2="22.6"/>
	<line class="st0" x1="0" y1="27.9" x2="2.2" y2="27.9"/>
	<line class="st0" x1="0" y1="33.1" x2="2.2" y2="33.1"/>
	<line class="st0" x1="0" y1="38.4" x2="2.2" y2="38.4"/>
	<line class="st0" x1="0" y1="43.7" x2="2.2" y2="43.7"/>
	<line class="st0" x1="0" y1="49" x2="2.2" y2="49"/>
</g>
<g>
	<line class="st0" x1="0" y1="107.1" x2="2.2" y2="107.1"/>
	<line class="st0" x1="0" y1="54.3" x2="2.2" y2="54.3"/>
	<line class="st0" x1="0" y1="59.5" x2="2.2" y2="59.5"/>
	<line class="st0" x1="0" y1="64.8" x2="2.2" y2="64.8"/>
	<line class="st0" x1="0" y1="70.1" x2="2.2" y2="70.1"/>
	<line class="st0" x1="0" y1="75.4" x2="2.2" y2="75.4"/>
	<line class="st0" x1="0" y1="80.7" x2="2.2" y2="80.7"/>
	<line class="st0" x1="0" y1="86" x2="2.2" y2="86"/>
	<line class="st0" x1="0" y1="91.2" x2="2.2" y2="91.2"/>
	<line class="st0" x1="0" y1="96.5" x2="2.2" y2="96.5"/>
	<line class="st0" x1="0" y1="101.8" x2="2.2" y2="101.8"/>
</g>
<g>
	<line class="st0" x1="0" y1="159.9" x2="2.2" y2="159.9"/>
	<line class="st0" x1="0" y1="107.1" x2="2.2" y2="107.1"/>
	<line class="st0" x1="0" y1="112.4" x2="2.2" y2="112.4"/>
	<line class="st0" x1="0" y1="117.6" x2="2.2" y2="117.6"/>
	<line class="st0" x1="0" y1="122.9" x2="2.2" y2="122.9"/>
	<line class="st0" x1="0" y1="128.2" x2="2.2" y2="128.2"/>
	<line class="st0" x1="0" y1="133.5" x2="2.2" y2="133.5"/>
	<line class="st0" x1="0" y1="138.8" x2="2.2" y2="138.8"/>
	<line class="st0" x1="0" y1="144" x2="2.2" y2="144"/>
	<line class="st0" x1="0" y1="149.3" x2="2.2" y2="149.3"/>
	<line class="st0" x1="0" y1="154.6" x2="2.2" y2="154.6"/>
</g>
<g>
	<line class="st0" x1="0" y1="212.7" x2="2.2" y2="212.7"/>
	<line class="st0" x1="0" y1="159.9" x2="2.2" y2="159.9"/>
	<line class="st0" x1="0" y1="165.2" x2="2.2" y2="165.2"/>
	<line class="st0" x1="0" y1="170.4" x2="2.2" y2="170.4"/>
	<line class="st0" x1="0" y1="175.7" x2="2.2" y2="175.7"/>
	<line class="st0" x1="0" y1="181" x2="2.2" y2="181"/>
	<line class="st0" x1="0" y1="186.3" x2="2.2" y2="186.3"/>
	<line class="st0" x1="0" y1="191.6" x2="2.2" y2="191.6"/>
	<line class="st0" x1="0" y1="196.8" x2="2.2" y2="196.8"/>
	<line class="st0" x1="0" y1="202.1" x2="2.2" y2="202.1"/>
	<line class="st0" x1="0" y1="207.4" x2="2.2" y2="207.4"/>
</g>
<polyline class="st1" points="347.8,215.9 2.2,215.9 2.2,0 "/>
<line class="st2" x1="41.2" y1="216.3" x2="41.2" y2="218.8"/>
<g>
	<line class="st2" x1="79.7" y1="216.3" x2="79.7" y2="218.8"/>
</g>
<line class="st2" x1="117.7" y1="216.3" x2="117.7" y2="218.8"/>
<g>
	<line class="st2" x1="193.7" y1="216.3" x2="193.7" y2="218.8"/>
</g>
<g>
	<line class="st2" x1="231.5" y1="216.3" x2="231.5" y2="218.8"/>
</g>
<g>
	<line class="st2" x1="270.1" y1="216.3" x2="270.1" y2="218.8"/>
</g>
<g>
	<line class="st2" x1="307.6" y1="216.3" x2="307.6" y2="218.8"/>
</g>
<g>
	<line class="st2" x1="345.5" y1="216.3" x2="345.5" y2="218.8"/>
</g>
<g>
	<line class="st2" x1="156.2" y1="216.3" x2="156.2" y2="218.8"/>
</g>
</svg>
