<!-- Generator: Adobe Illustrator 20.1.0, SVG Export Plug-In  -->
<svg version="1.1"
	 xmlns="http://www.w3.org/2000/svg" xmlns:xlink="http://www.w3.org/1999/xlink" xmlns:a="http://ns.adobe.com/AdobeSVGViewerExtensions/3.0/"
	 x="0px" y="0px" width="133.3px" height="67.4px" viewBox="0 0 133.3 67.4"
	 style="overflow:scroll;enable-background:new 0 0 133.3 67.4;" xml:space="preserve">
<style type="text/css">
	.st0{fill:#D51D70;}
	.st1{fill:url(#XMLID_6_);}
	.st2{fill:url(#XMLID_8_);}
</style>
<defs>
</defs>
<path id="XMLID_4_" class="st0" d="M22.9,33.7h89.7c2.2,0,4.3-1.2,5.6-3.3c1.5-2.5,4.1-4.2,7-4.1c4.3,0.1,7.8,4.1,8,8.8
	c0.2,5.3-3.6,9.6-8.2,9.6c-2.8,0-5.2-1.6-6.7-3.9c-1.3-2.1-3.4-3.5-5.7-3.5H22.9V33.7z"/>
<path id="XMLID_3_" class="st0" d="M9.9,9.9C2.8,16.9-0.5,26.4,0.1,35.6c0.4,8,3.7,15.8,9.8,21.9c6.1,6.1,13.9,9.4,21.9,9.8
	c9.3,0.5,18.7-2.7,25.7-9.8c13.2-13.2,13.2-34.5,0-47.6C44.3-3.3,23-3.3,9.9,9.9z"/>
<linearGradient id="XMLID_6_" gradientUnits="userSpaceOnUse" x1="278.0654" y1="15.1057" x2="314.76" y2="54.0584" gradientTransform="matrix(-1 0 0 1 329.2297 0)">
	<stop  offset="0" style="stop-color:#FFFFFF"/>
	<stop  offset="0.9847" style="stop-color:#D2D3D4"/>
	<stop  offset="1" style="stop-color:#D1D2D3"/>
</linearGradient>
<circle id="XMLID_1_" class="st1" cx="33.7" cy="33.7" r="27.2"/>
<g>
	<path class="st0" d="M30.9,58.3c-1.2-0.6-1.5-1.5-1.5-2.8c0.1-8.7,0.2-17.5,0.3-26.2c0-0.3,0-0.6,0-0.9c-0.1,0-0.2,0-0.3-0.1
		c-0.2,1.3-0.6,2.5-0.7,3.8c-0.1,1.1,0,2.1,0,3.2c0,1.2-0.4,1.8-1.4,2c-1,0.2-2.3-0.5-2.4-1.5c-0.1-1.6-0.2-3.2,0-4.8
		c0.3-2.8,1.3-5.4,3.3-7.5c3.3-3.4,11.1-3.5,14.1,1.8c1.8,3.1,2.3,6.4,2,9.9c-0.1,1-0.5,1.7-1.5,2c-1.3,0.4-2.4-0.3-2.4-1.7
		c0.1-2.2,0.1-4.4-0.6-6.5c-0.1-0.3-0.2-0.6-0.3-0.9c0-0.1-0.1-0.1-0.3-0.3c0,0.4-0.1,0.6-0.1,0.9c0.1,8.6,0.2,17.2,0.3,25.8
		c0,0.3,0,0.6,0.1,0.9c0.1,1.7-0.1,2.2-1.6,2.9c-0.3,0-0.7,0-1,0c-1.5-0.5-1.9-1.6-1.9-3c0-4.5-0.1-9.1-0.2-13.6c0-0.2,0-0.4,0-0.5
		c-0.1-0.2-0.2-0.3-0.3-0.4c-0.1,0.1-0.3,0.3-0.3,0.4c-0.1,0.3,0,0.6,0,0.8c-0.1,4.5-0.2,9-0.2,13.5c0,1.3-0.5,2.2-1.8,2.7
		C31.7,58.3,31.3,58.3,30.9,58.3z"/>
	<path class="st0" d="M35.3,11.5c1.3,0.5,2.4,1.2,2.9,2.6c0.7,2.1-0.3,4.3-2.3,5c-2,0.7-4.1-0.2-4.9-2.1c-0.9-2,0-4.2,2-5.1
		c0.2-0.1,0.5-0.2,0.7-0.4C34.2,11.5,34.7,11.5,35.3,11.5z"/>
</g>
</svg>
