<!-- Generator: Adobe Illustrator 20.1.0, SVG Export Plug-In  -->
<svg version="1.1"
	 xmlns="http://www.w3.org/2000/svg" xmlns:xlink="http://www.w3.org/1999/xlink" xmlns:a="http://ns.adobe.com/AdobeSVGViewerExtensions/3.0/"
	 x="0px" y="0px" width="8.4px" height="204.7px" viewBox="0 0 8.4 204.7"
	 style="overflow:scroll;enable-background:new 0 0 8.4 204.7;" xml:space="preserve">
<style type="text/css">
	.st0{fill:#DA0962;}
</style>
<defs>
</defs>
<g>
	<g>
		<path class="st0" d="M8.3,3.6c0,2.4-0.9,3.8-2.5,3.8c-1.4,0-2.3-1.3-2.4-3.7c0-2.4,1-3.7,2.5-3.7C7.4,0,8.3,1.3,8.3,3.6z M4.4,3.7
			c0,1.9,0.6,2.9,1.5,2.9c1,0,1.5-1.2,1.5-3c0-1.8-0.5-2.9-1.5-2.9C5,0.7,4.4,1.8,4.4,3.7z"/>
		<path class="st0" d="M2.7,32.1v0.7H0v-0.7H2.7z"/>
		<path class="st0" d="M5.6,29.2L5.6,29.2l-1.3,0.7l-0.2-0.7l1.6-0.8h0.8v7.2H5.6V29.2z"/>
		<path class="st0" d="M2.7,60.4v0.7H0v-0.7H2.7z"/>
		<path class="st0" d="M3.5,63.7v-0.6l0.8-0.7C6.1,60.6,7,59.7,7,58.6c0-0.7-0.4-1.4-1.4-1.4c-0.6,0-1.2,0.3-1.5,0.6l-0.3-0.7
			c0.5-0.4,1.2-0.7,2-0.7c1.5,0,2.2,1.1,2.2,2.1c0,1.3-1,2.4-2.5,3.8l-0.6,0.5v0h3.2v0.8H3.5z"/>
		<path class="st0" d="M2.7,88.6v0.7H0v-0.7H2.7z"/>
		<path class="st0" d="M3.8,90.8C4,91,4.7,91.2,5.4,91.2c1.2,0,1.6-0.8,1.6-1.4c0-1-0.9-1.4-1.8-1.4H4.6v-0.7h0.5
			c0.7,0,1.6-0.4,1.6-1.2c0-0.6-0.4-1.1-1.3-1.1c-0.6,0-1.1,0.3-1.4,0.5l-0.3-0.7c0.4-0.3,1.1-0.6,1.9-0.6c1.4,0,2,0.8,2,1.7
			c0,0.7-0.4,1.4-1.3,1.7v0C7.3,88.2,8,88.9,8,89.9C8,91,7.1,92,5.4,92c-0.8,0-1.5-0.3-1.9-0.5L3.8,90.8z"/>
		<path class="st0" d="M2.7,116.8v0.7H0v-0.7H2.7z"/>
		<path class="st0" d="M6.5,120.1v-1.9H3.2v-0.6l3.2-4.6h1v4.4h1v0.8h-1v1.9H6.5z M6.5,117.4V115c0-0.4,0-0.7,0-1.1h0
			c-0.2,0.4-0.4,0.7-0.6,1.1l-1.7,2.4v0H6.5z"/>
		<path class="st0" d="M2.7,145v0.7H0V145H2.7z"/>
		<path class="st0" d="M7.8,142H5.1l-0.3,1.8c0.2,0,0.3,0,0.6,0c0.5,0,1.1,0.1,1.5,0.4c0.6,0.3,1,0.9,1,1.8c0,1.4-1.1,2.4-2.7,2.4
			c-0.8,0-1.4-0.2-1.8-0.4l0.2-0.7c0.3,0.2,0.9,0.4,1.5,0.4c0.9,0,1.7-0.6,1.7-1.6c0-0.9-0.6-1.6-2.1-1.6c-0.4,0-0.7,0-1,0.1
			l0.5-3.4h3.4V142z"/>
		<path class="st0" d="M2.7,173.2v0.7H0v-0.7H2.7z"/>
		<path class="st0" d="M7.6,170c-0.2,0-0.5,0-0.7,0c-1.5,0.3-2.3,1.4-2.5,2.5h0c0.3-0.5,0.9-0.8,1.7-0.8c1.3,0,2.2,0.9,2.2,2.3
			c0,1.3-0.9,2.5-2.4,2.5c-1.5,0-2.5-1.2-2.5-3c0-1.4,0.5-2.5,1.2-3.2c0.6-0.6,1.4-0.9,2.3-1.1c0.3,0,0.5-0.1,0.7-0.1V170z
			 M7.3,174.2c0-1-0.6-1.6-1.5-1.6c-0.6,0-1.1,0.4-1.4,0.9c-0.1,0.1-0.1,0.3-0.1,0.4c0,1.2,0.6,2,1.6,2
			C6.8,175.9,7.3,175.2,7.3,174.2z"/>
		<path class="st0" d="M2.7,201.4v0.7H0v-0.7H2.7z"/>
		<path class="st0" d="M8.2,197.6v0.6l-3.1,6.5h-1l3.1-6.3v0H3.7v-0.8H8.2z"/>
	</g>
</g>
</svg>
