<!-- Generator: Adobe Illustrator 20.1.0, SVG Export Plug-In  -->
<svg version="1.1"
	 xmlns="http://www.w3.org/2000/svg" xmlns:xlink="http://www.w3.org/1999/xlink" xmlns:a="http://ns.adobe.com/AdobeSVGViewerExtensions/3.0/"
	 x="0px" y="0px" width="53.5px" height="53px" viewBox="0 0 53.5 53" style="overflow:scroll;enable-background:new 0 0 53.5 53;"
	 xml:space="preserve">
<style type="text/css">
	.st0{opacity:0;}
	.st1{opacity:5.882353e-03;fill:#010101;}
	.st2{opacity:1.176471e-02;fill:#010101;}
	.st3{opacity:1.764706e-02;fill:#020202;}
	.st4{opacity:2.352941e-02;fill:#030203;}
	.st5{opacity:2.941176e-02;fill:#030303;}
	.st6{opacity:3.529412e-02;fill:#040404;}
	.st7{opacity:4.117647e-02;fill:#050404;}
	.st8{opacity:4.705882e-02;fill:#050505;}
	.st9{opacity:5.294118e-02;fill:#060606;}
	.st10{opacity:5.882353e-02;fill:#070606;}
	.st11{opacity:6.470589e-02;fill:#080707;}
	.st12{opacity:7.058824e-02;fill:#080708;}
	.st13{opacity:7.647059e-02;fill:#090808;}
	.st14{opacity:8.235294e-02;fill:#0A0909;}
	.st15{opacity:8.823530e-02;fill:#0A0909;}
	.st16{opacity:9.411765e-02;fill:#0B0A0A;}
	.st17{opacity:0.1;fill:#0C0A0B;}
	.st18{opacity:0.1059;fill:#0C0B0B;}
	.st19{opacity:0.1118;fill:#0D0C0C;}
	.st20{opacity:0.1176;fill:#0E0C0D;}
	.st21{opacity:0.1235;fill:#0E0D0D;}
	.st22{opacity:0.1294;fill:#0F0E0E;}
	.st23{opacity:0.1353;fill:#100E0E;}
	.st24{opacity:0.1412;fill:#100F0F;}
	.st25{opacity:0.1471;fill:#110F10;}
	.st26{opacity:0.1529;fill:#121010;}
	.st27{opacity:0.1588;fill:#131111;}
	.st28{opacity:0.1647;fill:#131112;}
	.st29{opacity:0.1706;fill:#141212;}
	.st30{opacity:0.1765;fill:#151213;}
	.st31{opacity:0.1824;fill:#151314;}
	.st32{opacity:0.1882;fill:#161414;}
	.st33{opacity:0.1941;fill:#171415;}
	.st34{opacity:0.2;fill:#171515;}
	.st35{opacity:0.2059;fill:#181516;}
	.st36{opacity:0.2118;fill:#191617;}
	.st37{opacity:0.2176;fill:#191717;}
	.st38{opacity:0.2235;fill:#1A1718;}
	.st39{opacity:0.2294;fill:#1B1819;}
	.st40{opacity:0.2353;fill:#1B1919;}
	.st41{opacity:0.2412;fill:#1C191A;}
	.st42{opacity:0.2471;fill:#1D1A1A;}
	.st43{opacity:0.2529;fill:#1E1A1B;}
	.st44{opacity:0.2588;fill:#1E1B1C;}
	.st45{opacity:0.2647;fill:#1F1C1C;}
	.st46{opacity:0.2706;fill:#201C1D;}
	.st47{opacity:0.2765;fill:#201D1E;}
	.st48{opacity:0.2824;fill:#211D1E;}
	.st49{opacity:0.2882;fill:#221E1F;}
	.st50{opacity:0.2941;fill:#221F20;}
	.st51{opacity:0.3;}
	.st52{fill:#FFFFFF;}
	.st53{fill:url(#SVGID_1_);}
	.st54{fill:#FEFEFE;}
	.st55{fill:#FCFCFC;}
	.st56{fill:#FBFBFB;}
	.st57{fill:#F9F9F9;}
	.st58{fill:#F8F8F8;}
	.st59{fill:#F6F6F6;}
	.st60{fill:#F5F5F5;}
	.st61{fill:#F3F3F3;}
	.st62{fill:#F2F2F2;}
	.st63{fill:#F0F0F0;}
	.st64{fill:#EFEFEF;}
	.st65{fill:#EDEDED;}
	.st66{fill:#ECECEC;}
	.st67{fill:#EAEAEA;}
	.st68{fill:#E9E9E9;}
	.st69{fill:#E7E7E7;}
	.st70{fill:#E6E6E6;}
	.st71{fill:#E4E4E4;}
	.st72{fill:#E3E3E3;}
	.st73{fill:#E1E1E1;}
	.st74{fill:#E0E0E0;}
	.st75{fill:#DEDEDE;}
	.st76{fill:#DDDDDD;}
	.st77{fill:#DBDBDB;}
	.st78{fill:#DADADA;}
	.st79{fill:#D8D8D8;}
	.st80{fill:#D7D7D7;}
	.st81{fill:#D5D5D5;}
	.st82{fill:#D4D4D4;}
	.st83{fill:#D2D2D2;}
	.st84{fill:#D1D1D1;}
	.st85{fill:#CFCFCF;}
	.st86{fill:#CECECE;}
	.st87{fill:#CCCCCC;}
	.st88{fill:#CBCBCB;}
	.st89{fill:#C9C9C9;}
	.st90{fill:#C8C8C8;}
	.st91{fill:#C6C6C6;}
	.st92{fill:#C5C5C5;}
	.st93{fill:#C3C3C3;}
	.st94{fill:#C2C2C2;}
	.st95{fill:#C0C0C0;}
	.st96{fill:#BFBFBF;}
	.st97{fill:#BDBDBD;}
	.st98{fill:#BCBCBC;}
	.st99{fill:#BABABA;}
	.st100{fill:#B9B9B9;}
	.st101{fill:#B7B7B7;}
	.st102{fill:#B6B6B6;}
	.st103{fill:#B4B4B4;}
	.st104{fill:#B3B3B3;}
	.st105{fill:url(#SVGID_2_);}
	.st106{fill:url(#SVGID_3_);}
	.st107{fill-rule:evenodd;clip-rule:evenodd;fill:#FFFFFF;}
	.st108{fill:url(#SVGID_4_);}
	.st109{fill:url(#SVGID_5_);}
	.st110{fill:url(#SVGID_6_);}
</style>
<defs>
</defs>
<g>
	<g>
		<circle class="st0" cx="28.3" cy="27.9" r="25.2"/>
		<circle class="st1" cx="28.2" cy="27.8" r="25.2"/>
		<circle class="st2" cx="28.2" cy="27.7" r="25.2"/>
		<circle class="st3" cx="28.1" cy="27.7" r="25.2"/>
		<circle class="st4" cx="28.1" cy="27.6" r="25.2"/>
		<circle class="st5" cx="28" cy="27.6" r="25.2"/>
		<circle class="st6" cx="27.9" cy="27.5" r="25.2"/>
		<circle class="st7" cx="27.9" cy="27.5" r="25.2"/>
		<circle class="st8" cx="27.8" cy="27.4" r="25.2"/>
		<circle class="st9" cx="27.7" cy="27.4" r="25.2"/>
		<circle class="st10" cx="27.7" cy="27.3" r="25.2"/>
		<circle class="st11" cx="27.6" cy="27.3" r="25.2"/>
		<circle class="st12" cx="27.6" cy="27.2" r="25.2"/>
		<circle class="st13" cx="27.5" cy="27.2" r="25.2"/>
		<circle class="st14" cx="27.4" cy="27.1" r="25.2"/>
		<circle class="st15" cx="27.4" cy="27.1" r="25.2"/>
		<circle class="st16" cx="27.3" cy="27" r="25.2"/>
		<circle class="st17" cx="27.3" cy="27" r="25.2"/>
		<circle class="st18" cx="27.2" cy="26.9" r="25.2"/>
		<circle class="st19" cx="27.1" cy="26.9" r="25.2"/>
		<circle class="st20" cx="27.1" cy="26.8" r="25.2"/>
		<circle class="st21" cx="27" cy="26.7" r="25.2"/>
		<circle class="st22" cx="26.9" cy="26.7" r="25.2"/>
		<circle class="st23" cx="26.9" cy="26.6" r="25.2"/>
		<circle class="st24" cx="26.8" cy="26.6" r="25.2"/>
		<circle class="st25" cx="26.8" cy="26.5" r="25.2"/>
		<circle class="st26" cx="26.7" cy="26.5" r="25.2"/>
		<circle class="st27" cx="26.6" cy="26.4" r="25.2"/>
		<circle class="st28" cx="26.6" cy="26.4" r="25.2"/>
		<circle class="st29" cx="26.5" cy="26.3" r="25.2"/>
		<circle class="st30" cx="26.5" cy="26.3" r="25.2"/>
		<circle class="st31" cx="26.4" cy="26.2" r="25.2"/>
		<circle class="st32" cx="26.3" cy="26.2" r="25.2"/>
		<circle class="st33" cx="26.3" cy="26.1" r="25.2"/>
		<circle class="st34" cx="26.2" cy="26.1" r="25.2"/>
		<circle class="st35" cx="26.1" cy="26" r="25.2"/>
		<circle class="st36" cx="26.1" cy="26" r="25.2"/>
		<circle class="st37" cx="26" cy="25.9" r="25.2"/>
		<circle class="st38" cx="26" cy="25.8" r="25.2"/>
		<circle class="st39" cx="25.9" cy="25.8" r="25.2"/>
		<circle class="st40" cx="25.8" cy="25.7" r="25.2"/>
		<circle class="st41" cx="25.8" cy="25.7" r="25.2"/>
		<circle class="st42" cx="25.7" cy="25.6" r="25.2"/>
		<circle class="st43" cx="25.7" cy="25.6" r="25.2"/>
		<circle class="st44" cx="25.6" cy="25.5" r="25.2"/>
		<circle class="st45" cx="25.5" cy="25.5" r="25.2"/>
		<circle class="st46" cx="25.5" cy="25.4" r="25.2"/>
		<circle class="st47" cx="25.4" cy="25.4" r="25.2"/>
		<circle class="st48" cx="25.3" cy="25.3" r="25.2"/>
		<circle class="st49" cx="25.3" cy="25.3" r="25.2"/>
		<circle class="st50" cx="25.2" cy="25.2" r="25.2"/>
		<circle class="st51" cx="25.2" cy="25.2" r="25.2"/>
	</g>
	<g>
		<circle class="st52" cx="25.2" cy="25.2" r="25.2"/>
		
			<linearGradient id="SVGID_1_" gradientUnits="userSpaceOnUse" x1="-918.5204" y1="35.7337" x2="-886.2199" y2="12.6619" gradientTransform="matrix(-1 0 0 1 -878.7078 0)">
			<stop  offset="0" style="stop-color:#FFFFFF"/>
			<stop  offset="0.3984" style="stop-color:#FBFBFB"/>
			<stop  offset="0.8065" style="stop-color:#EFEFEF"/>
			<stop  offset="1" style="stop-color:#E6E6E6"/>
		</linearGradient>
		<circle class="st53" cx="25.5" cy="25.5" r="24.8"/>
	</g>
	<g>
		<circle class="st52" cx="27.9" cy="27.5" r="18.8"/>
		<circle class="st54" cx="27.9" cy="27.5" r="18.8"/>
		<circle class="st55" cx="27.8" cy="27.4" r="18.8"/>
		<circle class="st56" cx="27.8" cy="27.4" r="18.8"/>
		<circle class="st57" cx="27.7" cy="27.4" r="18.8"/>
		<circle class="st58" cx="27.7" cy="27.3" r="18.8"/>
		<circle class="st59" cx="27.6" cy="27.3" r="18.8"/>
		<circle class="st60" cx="27.6" cy="27.2" r="18.8"/>
		<circle class="st61" cx="27.5" cy="27.2" r="18.8"/>
		<circle class="st62" cx="27.5" cy="27.2" r="18.8"/>
		<circle class="st63" cx="27.4" cy="27.1" r="18.8"/>
		<circle class="st64" cx="27.4" cy="27.1" r="18.8"/>
		<circle class="st65" cx="27.4" cy="27" r="18.8"/>
		<circle class="st66" cx="27.3" cy="27" r="18.8"/>
		<circle class="st67" cx="27.3" cy="27" r="18.8"/>
		<circle class="st68" cx="27.2" cy="26.9" r="18.8"/>
		<circle class="st69" cx="27.2" cy="26.9" r="18.8"/>
		<circle class="st70" cx="27.1" cy="26.8" r="18.8"/>
		<circle class="st71" cx="27.1" cy="26.8" r="18.8"/>
		<circle class="st72" cx="27" cy="26.8" r="18.8"/>
		<circle class="st73" cx="27" cy="26.7" r="18.8"/>
		<circle class="st74" cx="26.9" cy="26.7" r="18.8"/>
		<circle class="st75" cx="26.9" cy="26.6" r="18.8"/>
		<circle class="st76" cx="26.8" cy="26.6" r="18.8"/>
		<circle class="st77" cx="26.8" cy="26.6" r="18.8"/>
		<circle class="st78" cx="26.8" cy="26.5" r="18.8"/>
		<circle class="st79" cx="26.7" cy="26.5" r="18.8"/>
		<circle class="st80" cx="26.7" cy="26.5" r="18.8"/>
		<circle class="st81" cx="26.6" cy="26.4" r="18.8"/>
		<circle class="st82" cx="26.6" cy="26.4" r="18.8"/>
		<circle class="st83" cx="26.5" cy="26.3" r="18.8"/>
		<circle class="st84" cx="26.5" cy="26.3" r="18.8"/>
		<circle class="st85" cx="26.4" cy="26.3" r="18.8"/>
		<circle class="st86" cx="26.4" cy="26.2" r="18.8"/>
		<circle class="st87" cx="26.3" cy="26.2" r="18.8"/>
		<circle class="st88" cx="26.3" cy="26.1" r="18.8"/>
		<circle class="st89" cx="26.3" cy="26.1" r="18.8"/>
		<circle class="st90" cx="26.2" cy="26.1" r="18.8"/>
		<circle class="st91" cx="26.2" cy="26" r="18.8"/>
		<circle class="st92" cx="26.1" cy="26" r="18.8"/>
		<circle class="st93" cx="26.1" cy="25.9" r="18.8"/>
		<circle class="st94" cx="26" cy="25.9" r="18.8"/>
		<circle class="st95" cx="26" cy="25.9" r="18.8"/>
		<circle class="st96" cx="25.9" cy="25.8" r="18.8"/>
		<circle class="st97" cx="25.9" cy="25.8" r="18.8"/>
		<circle class="st98" cx="25.8" cy="25.7" r="18.8"/>
		<circle class="st99" cx="25.8" cy="25.7" r="18.8"/>
		<circle class="st100" cx="25.7" cy="25.7" r="18.8"/>
		<circle class="st101" cx="25.7" cy="25.6" r="18.8"/>
		<circle class="st102" cx="25.7" cy="25.6" r="18.8"/>
		<circle class="st103" cx="25.6" cy="25.5" r="18.8"/>
		<circle class="st104" cx="25.6" cy="25.5" r="18.8"/>
	</g>
	<g>
		<linearGradient id="SVGID_2_" gradientUnits="userSpaceOnUse" x1="25.164" y1="43.8636" x2="25.164" y2="5.6785">
			<stop  offset="0.1678" style="stop-color:#D51D70"/>
			<stop  offset="1" style="stop-color:#AF055B"/>
		</linearGradient>
		<circle class="st105" cx="25.2" cy="25.2" r="18.8"/>
		
			<linearGradient id="SVGID_3_" gradientUnits="userSpaceOnUse" x1="-2386.8975" y1="-41.8841" x2="-2238.9558" y2="-41.8841" gradientTransform="matrix(-0.25 0 0 0.25 -552.7886 35.9137)">
			<stop  offset="0.1678" style="stop-color:#D51D70"/>
			<stop  offset="1" style="stop-color:#AF055B"/>
		</linearGradient>
		<circle class="st106" cx="25.4" cy="25.4" r="18.5"/>
	</g>
	<path class="st107" d="M13.5,28.7h12.3v4.9L37,25.4l-11.2-8.3v5H13.5c-0.6,0-1.2,0.4-1.2,1.1v4.6C12.3,28.2,12.9,28.7,13.5,28.7
		L13.5,28.7z"/>
</g>
</svg>
