<!-- Generator: Adobe Illustrator 20.1.0, SVG Export Plug-In  -->
<svg version="1.1"
	 xmlns="http://www.w3.org/2000/svg" xmlns:xlink="http://www.w3.org/1999/xlink" xmlns:a="http://ns.adobe.com/AdobeSVGViewerExtensions/3.0/"
	 x="0px" y="0px" width="112.1px" height="97.9px" viewBox="0 0 112.1 97.9"
	 style="overflow:scroll;enable-background:new 0 0 112.1 97.9;" xml:space="preserve">
<style type="text/css">
	.st0{fill-rule:evenodd;clip-rule:evenodd;fill:#D51D70;stroke:#FFFFFF;stroke-width:1.1969;stroke-miterlimit:10;}
	.st1{fill-rule:evenodd;clip-rule:evenodd;fill:#D51D70;}
</style>
<defs>
</defs>
<g>
	<path class="st0" d="M41.2,45C41.1,45,41.1,45,41.2,45c-2.1-0.7-2.7-2.1-2.7-4c0-8.1,0-16.3,0-24.4c0-0.2,0-0.4,0-0.7
		c0-0.4-0.2-0.6-0.6-0.6c-0.4,0-0.6,0.3-0.6,0.6c0,0.2,0,0.4,0,0.5c0,4.6,0,9.2,0,13.7c0,0.3,0,0.5,0,0.9c-1.4-0.7-2.4-1.7-3-3
		c-0.5-1-0.8-2-0.8-3c0-2.7,0-5.4,0-8.1c0-3.4,2.9-7,7.4-6.9c0.4,0,0.8,0,1.3,0c-1.2-0.6-2.2-1.3-2.8-2.5c-0.6-1.2-0.7-2.4-0.3-3.6
		c0.7-2.1,2.8-3.5,5.1-3.4c2.3,0.1,4.3,1.6,4.9,3.7c0.7,2.4-0.4,4.3-3.1,5.9c0.9,0.1,1.8,0,2.6,0.1c3.2,0.5,5.8,2.9,6,6
		c0.3,3.2,0.3,6.4,0,9.6c-0.2,2.1-1.4,3.8-3.3,5C51.2,30.9,51.1,31,51,31c0,0-0.1,0-0.2,0c0-0.2,0-0.4,0-0.6c0-4.7,0-9.3,0-14
		c0-0.2,0-0.4,0-0.6c-0.1-0.3-0.3-0.5-0.6-0.5c-0.3,0-0.5,0.1-0.6,0.4c0,0.3-0.1,0.5-0.1,0.8c0,8.2,0,16.4,0,24.5c0,1.9-0.7,3.4-3,4
		c-0.6,0-1.3,0-1.9,0c0-5.6,0-11.2,0-16.8c0-0.4-0.1-0.7-0.6-0.7c-0.5,0-0.7,0.3-0.7,0.7c0,0.2,0,0.4,0,0.5c0,5.4,0,10.8,0,16.2
		C42.6,45,41.9,45,41.2,45z"/>
	<path class="st0" d="M19.7,45C19.7,45,19.7,45,19.7,45c-2.1-0.7-2.7-2.1-2.7-4c0-8.1,0-16.3,0-24.4c0-0.2,0-0.4,0-0.7
		c0-0.4-0.2-0.6-0.6-0.6c-0.4,0-0.6,0.3-0.6,0.6c0,0.2,0,0.4,0,0.5c0,4.6,0,9.2,0,13.7c0,0.3,0,0.5,0,0.9c-1.4-0.7-2.4-1.7-3-3
		c-0.5-1-0.8-2-0.8-3c0-2.7,0-5.4,0-8.1c0-3.4,2.9-7,7.4-6.9c0.4,0,0.8,0,1.3,0c-1.2-0.6-2.2-1.3-2.8-2.5c-0.6-1.2-0.7-2.4-0.3-3.6
		c0.7-2.1,2.8-3.5,5.1-3.4C25,0.7,27,2.2,27.6,4.3c0.7,2.4-0.4,4.3-3.1,5.9c0.9,0.1,1.8,0,2.6,0.1c3.2,0.5,5.8,2.9,6,6
		c0.3,3.2,0.3,6.4,0,9.6c-0.2,2.1-1.4,3.8-3.3,5c-0.1,0.1-0.2,0.1-0.3,0.1c0,0-0.1,0-0.2,0c0-0.2,0-0.4,0-0.6c0-4.7,0-9.3,0-14
		c0-0.2,0-0.4,0-0.6c-0.1-0.3-0.3-0.5-0.6-0.5c-0.3,0-0.5,0.1-0.6,0.4c0,0.3-0.1,0.5-0.1,0.8c0,8.2,0,16.4,0,24.5c0,1.9-0.7,3.4-3,4
		c-0.6,0-1.3,0-1.9,0c0-5.6,0-11.2,0-16.8c0-0.4-0.1-0.7-0.6-0.7c-0.5,0-0.7,0.3-0.7,0.7c0,0.2,0,0.4,0,0.5c0,5.4,0,10.8,0,16.2
		C21.2,45,20.4,45,19.7,45z"/>
	<path class="st0" d="M8.3,63.5C8.3,63.5,8.3,63.4,8.3,63.5c-2.1-0.7-2.7-2.1-2.7-4c0-8.1,0-16.3,0-24.4c0-0.2,0-0.4,0-0.7
		c0-0.4-0.2-0.6-0.6-0.6c-0.4,0-0.6,0.3-0.6,0.6c0,0.2,0,0.4,0,0.5c0,4.6,0,9.2,0,13.7c0,0.3,0,0.5,0,0.9c-1.4-0.7-2.4-1.7-3-3
		c-0.5-1-0.8-2-0.8-3c0-2.7,0-5.4,0-8.1c0-3.4,2.9-7,7.4-6.9c0.4,0,0.8,0,1.3,0c-1.2-0.6-2.2-1.3-2.8-2.5c-0.6-1.2-0.7-2.4-0.3-3.6
		C6.9,20.4,9,19,11.3,19c2.3,0.1,4.3,1.6,4.9,3.7c0.7,2.4-0.4,4.3-3.1,5.9c0.9,0.1,1.8,0,2.6,0.1c3.2,0.5,5.8,2.9,6,6
		c0.3,3.2,0.3,6.4,0,9.6c-0.2,2.1-1.4,3.8-3.3,5c-0.1,0.1-0.2,0.1-0.3,0.1c0,0-0.1,0-0.2,0c0-0.2,0-0.4,0-0.6c0-4.7,0-9.3,0-14
		c0-0.2,0-0.4,0-0.6c-0.1-0.3-0.3-0.5-0.6-0.5c-0.3,0-0.5,0.1-0.6,0.4c0,0.3-0.1,0.5-0.1,0.8c0,8.2,0,16.4,0,24.5c0,1.9-0.7,3.4-3,4
		c-0.6,0-1.3,0-1.9,0c0-5.6,0-11.2,0-16.8c0-0.4-0.1-0.7-0.6-0.7c-0.5,0-0.7,0.3-0.7,0.7c0,0.2,0,0.4,0,0.5c0,5.4,0,10.8,0,16.2
		C9.8,63.5,9.1,63.5,8.3,63.5z"/>
	<path class="st0" d="M26.6,63.5C26.5,63.5,26.5,63.4,26.6,63.5c-2.1-0.7-2.7-2.1-2.7-4c0-8.1,0-16.3,0-24.4c0-0.2,0-0.4,0-0.7
		c0-0.4-0.2-0.6-0.6-0.6c-0.4,0-0.6,0.3-0.6,0.6c0,0.2,0,0.4,0,0.5c0,4.6,0,9.2,0,13.7c0,0.3,0,0.5,0,0.9c-1.4-0.7-2.4-1.7-3-3
		c-0.5-1-0.8-2-0.8-3c0-2.7,0-5.4,0-8.1c0-3.4,2.9-7,7.4-6.9c0.4,0,0.8,0,1.3,0c-1.2-0.6-2.2-1.3-2.8-2.5c-0.6-1.2-0.7-2.4-0.3-3.6
		c0.7-2.1,2.8-3.5,5.1-3.4c2.3,0.1,4.3,1.6,4.9,3.7c0.7,2.4-0.4,4.3-3.1,5.9c0.9,0.1,1.8,0,2.6,0.1c3.2,0.5,5.8,2.9,6,6
		c0.3,3.2,0.3,6.4,0,9.6c-0.2,2.1-1.4,3.8-3.3,5c-0.1,0.1-0.2,0.1-0.3,0.1c0,0-0.1,0-0.2,0c0-0.2,0-0.4,0-0.6c0-4.7,0-9.3,0-14
		c0-0.2,0-0.4,0-0.6c-0.1-0.3-0.3-0.5-0.6-0.5c-0.3,0-0.5,0.1-0.6,0.4c0,0.3-0.1,0.5-0.1,0.8c0,8.2,0,16.4,0,24.5c0,1.9-0.7,3.4-3,4
		c-0.6,0-1.3,0-1.9,0c0-5.6,0-11.2,0-16.8c0-0.4-0.1-0.7-0.6-0.7c-0.5,0-0.7,0.3-0.7,0.7c0,0.2,0,0.4,0,0.5c0,5.4,0,10.8,0,16.2
		C28,63.5,27.3,63.5,26.6,63.5z"/>
	<path class="st1" d="M19.7,61.1c-2.1-1.2-3.2-2.8-3.7-4.8c-0.1-0.3-0.1-0.6-0.1-0.9c0-2.9-0.1-5.9,0-8.8c0.2-3.7,3.4-6.6,7.1-6.4
		c0.5,0,1,0,1.6,0c-1.3-0.6-2.3-1.5-2.9-2.7c-0.6-1.3-0.6-2.6,0-3.8c0.9-1.9,3-3.2,5.3-3c2.2,0.2,4.2,1.8,4.6,3.9
		c0.4,2-0.3,4.3-3.2,5.7c0.5,0,1,0,1.5,0c3.7-0.1,6.7,2.8,7.1,6.2c0.1,0.8,0,1.4-0.6,2.1c-1.2,1.5-1.7,3.3-1.8,5.2
		c0,1.9,0,3.7,0,5.6c0,1.1-0.2,1.4-1.4,1.9c0-0.2,0-0.5,0-0.7c0-4.7,0-9.3,0-14c0-0.2,0-0.4,0-0.6c-0.1-0.3-0.3-0.5-0.6-0.5
		c-0.3,0-0.5,0.2-0.6,0.4C32,45.9,32,46.2,32,46.4c0,8.3,0,16.6,0,24.8c0,2.1-1.3,4-4.6,3.7c-0.3,0-0.4-0.1-0.4-0.4
		c0-0.4,0-0.8,0-1.2c0-4.9,0-9.9,0-14.8c0-0.2,0-0.4,0-0.5c0-0.3-0.2-0.5-0.6-0.5c-0.3,0-0.6,0.2-0.7,0.5c0,0.2,0,0.4,0,0.6
		c0,5.3,0,10.5,0,15.8c0,0.5-0.1,0.7-0.7,0.6c-0.6,0-1.2,0-1.7-0.2c-1.5-0.4-2.5-1.7-2.5-3.2c0-3.5,0-6.9,0-10.4c0-4.9,0-9.9,0-14.8
		c0-0.2,0-0.4,0-0.6c0-0.3-0.3-0.5-0.6-0.5c-0.3,0-0.5,0.2-0.6,0.5c0,0.2,0,0.4,0,0.6c0,4.7,0,9.4,0,14
		C19.7,60.6,19.7,60.8,19.7,61.1z"/>
	<path class="st0" d="M15.5,90.4C15.5,90.4,15.5,90.3,15.5,90.4c-2.1-0.7-2.7-2.1-2.7-4c0-8.1,0-16.3,0-24.4c0-0.2,0-0.4,0-0.7
		c0-0.4-0.2-0.6-0.6-0.6c-0.4,0-0.6,0.3-0.6,0.6c0,0.2,0,0.4,0,0.5c0,4.6,0,9.2,0,13.7c0,0.3,0,0.5,0,0.9c-1.4-0.7-2.4-1.7-3-3
		c-0.5-1-0.8-2-0.8-3c0-2.7,0-5.4,0-8.1c0-3.4,2.9-7,7.4-6.9c0.4,0,0.8,0,1.3,0c-1.2-0.6-2.2-1.3-2.8-2.5c-0.6-1.2-0.7-2.4-0.3-3.6
		c0.7-2.1,2.8-3.5,5.1-3.4c2.3,0.1,4.3,1.6,4.9,3.7c0.7,2.4-0.4,4.3-3.1,5.9c0.9,0.1,1.8,0,2.6,0.1c3.2,0.5,5.8,2.9,6,6
		c0.3,3.2,0.3,6.4,0,9.6c-0.2,2.1-1.4,3.8-3.3,5c-0.1,0.1-0.2,0.1-0.3,0.1c0,0-0.1,0-0.2,0c0-0.2,0-0.4,0-0.6c0-4.7,0-9.3,0-14
		c0-0.2,0-0.4,0-0.6c-0.1-0.3-0.3-0.5-0.6-0.5c-0.3,0-0.5,0.1-0.6,0.4c0,0.3-0.1,0.5-0.1,0.8c0,8.2,0,16.4,0,24.5c0,1.9-0.7,3.4-3,4
		c-0.6,0-1.3,0-1.9,0c0-5.6,0-11.2,0-16.8c0-0.4-0.1-0.7-0.6-0.7c-0.5,0-0.7,0.3-0.7,0.7c0,0.2,0,0.4,0,0.5c0,5.4,0,10.8,0,16.2
		C17,90.4,16.2,90.4,15.5,90.4z"/>
	<path class="st0" d="M87.5,47.1C87.4,47.1,87.4,47.1,87.5,47.1c-2.1-0.7-2.7-2.1-2.7-4c0-8.1,0-16.3,0-24.4c0-0.2,0-0.4,0-0.7
		c0-0.4-0.2-0.6-0.6-0.6c-0.4,0-0.6,0.3-0.6,0.6c0,0.2,0,0.4,0,0.5c0,4.6,0,9.2,0,13.7c0,0.3,0,0.5,0,0.9c-1.4-0.7-2.4-1.7-3-3
		c-0.5-1-0.8-2-0.8-3c0-2.7,0-5.4,0-8.1c0-3.4,2.9-7,7.4-6.9c0.4,0,0.8,0,1.3,0c-1.2-0.6-2.2-1.3-2.8-2.5c-0.6-1.2-0.7-2.4-0.3-3.6
		c0.7-2.1,2.8-3.5,5.1-3.4c2.3,0.1,4.3,1.6,4.9,3.7c0.7,2.4-0.4,4.3-3.1,5.9c0.9,0.1,1.8,0,2.6,0.1c3.2,0.5,5.8,2.9,6,6
		c0.3,3.2,0.3,6.4,0,9.6c-0.2,2.1-1.4,3.8-3.3,5c-0.1,0.1-0.2,0.1-0.3,0.1c0,0-0.1,0-0.2,0c0-0.2,0-0.4,0-0.6c0-4.7,0-9.3,0-14
		c0-0.2,0-0.4,0-0.6c-0.1-0.3-0.3-0.5-0.6-0.5c-0.3,0-0.5,0.1-0.6,0.4c0,0.3-0.1,0.5-0.1,0.8c0,8.2,0,16.4,0,24.5c0,1.9-0.7,3.4-3,4
		c-0.6,0-1.3,0-1.9,0c0-5.6,0-11.2,0-16.8c0-0.4-0.1-0.7-0.6-0.7c-0.5,0-0.7,0.3-0.7,0.7c0,0.2,0,0.4,0,0.5c0,5.4,0,10.8,0,16.2
		C88.9,47.1,88.2,47.1,87.5,47.1z"/>
	<path class="st0" d="M62.4,46.2C62.4,46.2,62.4,46.1,62.4,46.2c-2.1-0.7-2.7-2.1-2.7-4c0-8.1,0-16.3,0-24.4c0-0.2,0-0.4,0-0.7
		c0-0.4-0.2-0.6-0.6-0.6c-0.4,0-0.6,0.3-0.6,0.6c0,0.2,0,0.4,0,0.5c0,4.6,0,9.2,0,13.7c0,0.3,0,0.5,0,0.9c-1.4-0.7-2.4-1.7-3-3
		c-0.5-1-0.8-2-0.8-3c0-2.7,0-5.4,0-8.1c0-3.4,2.9-7,7.4-6.9c0.4,0,0.8,0,1.3,0c-1.2-0.6-2.2-1.3-2.8-2.5c-0.6-1.2-0.7-2.4-0.3-3.6
		c0.7-2.1,2.8-3.5,5.1-3.4c2.3,0.1,4.3,1.6,4.9,3.7c0.7,2.4-0.4,4.3-3.1,5.9c0.9,0.1,1.8,0,2.6,0.1c3.2,0.5,5.8,2.9,6,6
		c0.3,3.2,0.3,6.4,0,9.6c-0.2,2.1-1.4,3.8-3.3,5c-0.1,0.1-0.2,0.1-0.3,0.1c0,0-0.1,0-0.2,0c0-0.2,0-0.4,0-0.6c0-4.7,0-9.3,0-14
		c0-0.2,0-0.4,0-0.6c-0.1-0.3-0.3-0.5-0.6-0.5c-0.3,0-0.5,0.1-0.6,0.4c0,0.3-0.1,0.5-0.1,0.8c0,8.2,0,16.4,0,24.5c0,1.9-0.7,3.4-3,4
		c-0.6,0-1.3,0-1.9,0c0-5.6,0-11.2,0-16.8c0-0.4-0.1-0.7-0.6-0.7c-0.5,0-0.7,0.3-0.7,0.7c0,0.2,0,0.4,0,0.5c0,5.4,0,10.8,0,16.2
		C63.9,46.2,63.1,46.2,62.4,46.2z"/>
	<path class="st0" d="M96.7,63.5C96.7,63.5,96.7,63.4,96.7,63.5c-2.1-0.7-2.7-2.1-2.7-4c0-8.1,0-16.3,0-24.4c0-0.2,0-0.4,0-0.7
		c0-0.4-0.2-0.6-0.6-0.6c-0.4,0-0.6,0.3-0.6,0.6c0,0.2,0,0.4,0,0.5c0,4.6,0,9.2,0,13.7c0,0.3,0,0.5,0,0.9c-1.4-0.7-2.4-1.7-3-3
		c-0.5-1-0.8-2-0.8-3c0-2.7,0-5.4,0-8.1c0-3.4,2.9-7,7.4-6.9c0.4,0,0.8,0,1.3,0c-1.2-0.6-2.2-1.3-2.8-2.5c-0.6-1.2-0.7-2.4-0.3-3.6
		c0.7-2.1,2.8-3.5,5.1-3.4c2.3,0.1,4.3,1.6,4.9,3.7c0.7,2.4-0.4,4.3-3.1,5.9c0.9,0.1,1.8,0,2.6,0.1c3.2,0.5,5.8,2.9,6,6
		c0.3,3.2,0.3,6.4,0,9.6c-0.2,2.1-1.4,3.8-3.3,5c-0.1,0.1-0.2,0.1-0.3,0.1c0,0-0.1,0-0.2,0c0-0.2,0-0.4,0-0.6c0-4.7,0-9.3,0-14
		c0-0.2,0-0.4,0-0.6c-0.1-0.3-0.3-0.5-0.6-0.5c-0.3,0-0.5,0.1-0.6,0.4c0,0.3-0.1,0.5-0.1,0.8c0,8.2,0,16.4,0,24.5c0,1.9-0.7,3.4-3,4
		c-0.6,0-1.3,0-1.9,0c0-5.6,0-11.2,0-16.8c0-0.4-0.1-0.7-0.6-0.7c-0.5,0-0.7,0.3-0.7,0.7c0,0.2,0,0.4,0,0.5c0,5.4,0,10.8,0,16.2
		C98.2,63.5,97.4,63.5,96.7,63.5z"/>
	<path class="st0" d="M61.3,80.3C61.3,80.3,61.3,80.3,61.3,80.3c-2.1-0.7-2.7-2.1-2.7-4c0-8.1,0-16.3,0-24.4c0-0.2,0-0.4,0-0.7
		c0-0.4-0.2-0.6-0.6-0.6c-0.4,0-0.6,0.3-0.6,0.6c0,0.2,0,0.4,0,0.5c0,4.6,0,9.2,0,13.7c0,0.3,0,0.5,0,0.9c-1.4-0.7-2.4-1.7-3-3
		c-0.5-1-0.8-2-0.8-3c0-2.7,0-5.4,0-8.1c0-3.4,2.9-7,7.4-6.9c0.4,0,0.8,0,1.3,0c-1.2-0.6-2.2-1.3-2.8-2.5c-0.6-1.2-0.7-2.4-0.3-3.6
		c0.7-2.1,2.8-3.5,5.1-3.4c2.3,0.1,4.3,1.6,4.9,3.7c0.7,2.4-0.4,4.3-3.1,5.9c0.9,0.1,1.8,0,2.6,0.1c3.2,0.5,5.8,2.9,6,6
		c0.3,3.2,0.3,6.4,0,9.6c-0.2,2.1-1.4,3.8-3.3,5c-0.1,0.1-0.2,0.1-0.3,0.1c0,0-0.1,0-0.2,0c0-0.2,0-0.4,0-0.6c0-4.7,0-9.3,0-14
		c0-0.2,0-0.4,0-0.6c-0.1-0.3-0.3-0.5-0.6-0.5c-0.3,0-0.5,0.1-0.6,0.4c0,0.3-0.1,0.5-0.1,0.8c0,8.2,0,16.4,0,24.5c0,1.9-0.7,3.4-3,4
		c-0.6,0-1.3,0-1.9,0c0-5.6,0-11.2,0-16.8c0-0.4-0.1-0.7-0.6-0.7c-0.5,0-0.7,0.3-0.7,0.7c0,0.2,0,0.4,0,0.5c0,5.4,0,10.8,0,16.2
		C62.8,80.3,62.1,80.3,61.3,80.3z"/>
	<path class="st0" d="M98,87.7C97.9,87.7,97.9,87.6,98,87.7c-2.1-0.7-2.7-2.1-2.7-4c0-8.1,0-16.3,0-24.4c0-0.2,0-0.4,0-0.7
		c0-0.4-0.2-0.6-0.6-0.6c-0.4,0-0.6,0.3-0.6,0.6c0,0.2,0,0.4,0,0.5c0,4.6,0,9.2,0,13.7c0,0.3,0,0.5,0,0.9c-1.4-0.7-2.4-1.7-3-3
		c-0.5-1-0.8-2-0.8-3c0-2.7,0-5.4,0-8.1c0-3.4,2.9-7,7.4-6.9c0.4,0,0.8,0,1.3,0c-1.2-0.6-2.2-1.3-2.8-2.5c-0.6-1.2-0.7-2.4-0.3-3.6
		c0.7-2.1,2.8-3.5,5.1-3.4c2.3,0.1,4.3,1.6,4.9,3.7c0.7,2.4-0.4,4.3-3.1,5.9c0.9,0.1,1.8,0,2.6,0.1c3.2,0.5,5.8,2.9,6,6
		c0.3,3.2,0.3,6.4,0,9.6c-0.2,2.1-1.4,3.8-3.3,5c-0.1,0.1-0.2,0.1-0.3,0.1c0,0-0.1,0-0.2,0c0-0.2,0-0.4,0-0.6c0-4.7,0-9.3,0-14
		c0-0.2,0-0.4,0-0.6c-0.1-0.3-0.3-0.5-0.6-0.5c-0.3,0-0.5,0.1-0.6,0.4c0,0.3-0.1,0.5-0.1,0.8c0,8.2,0,16.4,0,24.5c0,1.9-0.7,3.4-3,4
		c-0.6,0-1.3,0-1.9,0c0-5.6,0-11.2,0-16.8c0-0.4-0.1-0.7-0.6-0.7c-0.5,0-0.7,0.3-0.7,0.7c0,0.2,0,0.4,0,0.5c0,5.4,0,10.8,0,16.2
		C99.4,87.7,98.7,87.7,98,87.7z"/>
	<path class="st0" d="M94,55.5c0,2.1-1.9,4.9-3.8,5.5c0-0.2,0-0.5,0-0.7c0-4.6,0-9.2,0-13.8c0-0.2,0-0.3,0-0.5
		c0-0.4-0.2-0.7-0.7-0.7c-0.4,0-0.6,0.3-0.6,0.7c0,0.2,0,0.5,0,0.7c0,8.2,0,16.4,0,24.7c0,2.2-1.6,3.9-4.6,3.6
		c-0.2,0-0.3-0.1-0.3-0.3c0-0.2,0-0.3,0-0.5c0-5.2,0-10.4,0-15.6c0-0.2,0-0.4,0-0.6c0-0.3-0.3-0.5-0.6-0.5c-0.3,0-0.6,0.1-0.7,0.4
		c-0.1,0.2,0,0.4,0,0.7c0,5.2,0,10.5,0,15.7c0,0.5-0.2,0.7-0.7,0.7c-1,0-2.1-0.1-2.9-0.8c-0.9-0.7-1.3-1.6-1.3-2.7
		c0-8.4,0-16.8,0-25.1c0-0.5,0.1-1.1-0.6-1.1c-0.7,0-0.6,0.6-0.6,1.1c0,4.7,0,9.4,0,14c0,0.2,0,0.4,0,0.6c-1-0.3-1.2-0.5-1.2-1.5
		c0-2,0-4,0-6c0-2.2-0.8-4.2-2.3-5.9c-0.2-0.2-0.3-0.4-0.3-0.7c0-3.3,2.5-6.2,5.9-6.7c0.9-0.2,1.9,0,3-0.1c-1.8-0.8-2.9-1.9-3.3-3.6
		c-0.4-1.7,0.1-3.3,1.4-4.5c2.1-2.1,5.7-1.9,7.6,0.3c1.1,1.3,1.5,2.8,1.1,4.4c-0.4,1.6-1.5,2.7-3.1,3.5c0.9,0,1.8-0.1,2.7,0
		c2.9,0.4,5.1,2.6,5.8,5.3c0.1,0.3,0,0.6,0.3,0.8c0,0.1,0,0.2,0,0.2c-0.2,0.2-0.1,0.5-0.1,0.7C94,50,94,52.7,94,55.5z"/>
	<path class="st0" d="M53.8,14.2c0.3,0.1,0.7,0.2,1,0.4c1.6,0.7,2.5,2,2.6,3.7c0.1,1.7-0.8,3-2.4,3.8c-0.1,0.1-0.2,0.1-0.3,0.3
		c0.3,0,0.5,0,0.8,0c3.7-0.3,6.3,2.4,6.5,5.4c0.2,2.6,0.1,5.3,0,7.9c0,0.4-0.2,0.6-0.5,0.8c-0.6,0.3-1.1,0.8-1.5,1.3
		c-0.4,0.5-0.7,1-1,1.6c-0.2-0.2-0.1-0.5-0.1-0.7c0-3.6,0-7.3,0-10.9c0-0.2,0-0.4,0-0.5c0-0.3-0.2-0.5-0.5-0.5
		c-0.3,0-0.5,0.2-0.5,0.5c0,0.2,0,0.4,0,0.6c0,5.8,0,11.6,0,17.4c0,0.2,0,0.3,0,0.5c-0.1,0.3-0.4,0.4-0.6,0.4
		c-0.2,0-0.2-0.2-0.2-0.4c-0.4-2-1.3-3.7-3-5.1c-0.3-0.3-0.4-0.5-0.4-0.9c0-0.6,0-1.3,0-1.9c0-0.4-0.1-0.7-0.5-0.7
		c-0.5,0-0.6,0.3-0.6,0.7c0,0.5,0,1.1,0,1.7c-0.6-0.2-1.1-0.4-1.5-0.6c-0.4-0.2,0-0.4,0-0.5c1.1-2.4,0.9-4.6-0.7-6.7
		c-0.4-0.6-1-1.1-1.7-1.5c-0.2-0.2-0.3-0.3-0.3-0.6c0-0.5,0-1.1,0-1.6c0-0.4,0.3-1.2-0.5-1.2c-0.8,0-0.4,0.8-0.5,1.2
		c0,0.4,0,0.7,0,1.1c0,0.2,0,0.3-0.3,0.2c-0.8-0.3-1.7-0.4-2.6-0.3c-0.3,0-0.3-0.1-0.3-0.3c-0.2-3.4,2.5-6.3,5.9-6.3
		c0.5,0,1,0,1.6,0c-0.4-0.2-0.7-0.4-1-0.6c-1.5-1.1-2.1-2.5-1.7-4.2c0.4-1.7,1.5-2.8,3.3-3.2c0.1,0,0.2,0,0.3-0.1
		C52.8,14.2,53.3,14.2,53.8,14.2z"/>
	<path class="st0" d="M78.1,14.2c0.1,0.2,0.4,0.1,0.6,0.2c1.8,0.6,2.8,1.8,3,3.6c0.2,1.7-0.7,3.1-2.3,4c-0.1,0-0.2,0.1-0.2,0.1
		c-0.1,0-0.1,0.1-0.4,0.2c0.6,0,1,0,1.3,0c3.1,0,5.6,2,6.1,4.9c0.1,0.5,0.1,0.9,0.1,1.4c0,0.3-0.1,0.4-0.4,0.3
		c-0.9-0.1-1.8,0-2.6,0.3c-0.3,0.1-0.3,0-0.3-0.2c0-0.5,0-1,0-1.5c0-0.4,0.1-0.9-0.5-0.9c-0.6,0-0.5,0.5-0.5,0.9c0,0.6,0,1.3,0,1.9
		c0,0.3-0.1,0.4-0.3,0.6c-2.9,2.1-3.8,5.2-2.2,8.3c0.2,0.3,0.1,0.4-0.2,0.5c-0.5,0.1-0.9,0.6-1.3,0.4c-0.2-0.2-0.1-0.8-0.1-1.3
		c0,0,0-0.1,0-0.1c0-0.4,0-0.9-0.6-0.9c-0.5,0-0.6,0.4-0.6,0.9c0.2,1.4-0.1,2.6-1.3,3.7c-1.3,1.1-1.8,2.8-2.1,4.4
		c-0.6-0.1-0.8-0.4-0.8-0.9c0-5.8,0-11.6,0-17.4c0-0.2,0-0.4,0-0.5c0-0.3-0.2-0.4-0.5-0.4c-0.3,0-0.5,0.2-0.5,0.5c0,0.2,0,0.4,0,0.7
		c0,3.7,0,7.3,0,11c-0.2,0-0.2-0.2-0.3-0.3c-0.6-1-1.4-1.7-2.4-2.3c-0.3-0.2-0.4-0.3-0.4-0.7c-0.1-2.7-0.2-5.4,0-8.1
		c0.2-2.9,2.9-5.1,6-5.2c0.4,0,0.9,0,1.4-0.1c-0.1-0.1-0.3-0.1-0.4-0.2c-1.6-0.9-2.5-2.2-2.4-3.9c0.1-1.8,1.3-3.2,3.1-3.8
		c0.1,0,0.4,0,0.4-0.2C77,14.2,77.6,14.2,78.1,14.2z"/>
	<path class="st1" d="M94,55.5c0-2.7,0-5.4,0-8.2c0-0.2-0.1-0.5,0.1-0.7c0,3,0,5.9,0,8.9C94,55.5,94,55.5,94,55.5z"/>
	<path class="st0" d="M37.9,61.1c-2.1-1.2-3.2-2.8-3.7-4.8c-0.1-0.3-0.1-0.6-0.1-0.9c0-2.9-0.1-5.9,0-8.8c0.2-3.7,3.4-6.6,7.1-6.4
		c0.5,0,1,0,1.6,0c-1.3-0.6-2.3-1.5-2.9-2.7c-0.6-1.3-0.6-2.6,0-3.8c0.9-1.9,3-3.2,5.3-3c2.2,0.2,4.2,1.8,4.6,3.9
		c0.4,2-0.3,4.3-3.2,5.7c0.5,0,1,0,1.5,0c3.7-0.1,6.7,2.8,7.1,6.2c0.1,0.8,0,1.4-0.6,2.1c-1.2,1.5-1.7,3.3-1.8,5.2
		c0,1.9,0,3.7,0,5.6c0,1.1-0.2,1.4-1.4,1.9c0-0.2,0-0.5,0-0.7c0-4.7,0-9.3,0-14c0-0.2,0-0.4,0-0.6c-0.1-0.3-0.3-0.5-0.6-0.5
		c-0.3,0-0.5,0.2-0.6,0.4c-0.1,0.2-0.1,0.5-0.1,0.7c0,8.3,0,16.6,0,24.8c0,2.1-1.3,4-4.6,3.7c-0.3,0-0.4-0.1-0.4-0.4
		c0-0.4,0-0.8,0-1.2c0-4.9,0-9.9,0-14.8c0-0.2,0-0.4,0-0.5c0-0.3-0.2-0.5-0.6-0.5c-0.3,0-0.6,0.2-0.7,0.5c0,0.2,0,0.4,0,0.6
		c0,5.3,0,10.5,0,15.8c0,0.5-0.1,0.7-0.7,0.6c-0.6,0-1.2,0-1.7-0.2c-1.5-0.4-2.5-1.7-2.5-3.2c0-3.5,0-6.9,0-10.4c0-4.9,0-9.9,0-14.8
		c0-0.2,0-0.4,0-0.6c0-0.3-0.3-0.5-0.6-0.5c-0.3,0-0.5,0.2-0.6,0.5c0,0.2,0,0.4,0,0.6c0,4.7,0,9.4,0,14
		C37.9,60.6,37.9,60.8,37.9,61.1z"/>
	<path class="st0" d="M79.4,93.2C79.3,93.1,79.3,93.1,79.4,93.2c-2.1-0.7-2.7-2.1-2.7-4c0-8.1,0-16.3,0-24.4c0-0.2,0-0.4,0-0.7
		c0-0.4-0.2-0.6-0.6-0.6c-0.4,0-0.6,0.3-0.6,0.6c0,0.2,0,0.4,0,0.5c0,4.6,0,9.2,0,13.7c0,0.3,0,0.5,0,0.9c-1.4-0.7-2.4-1.7-3-3
		c-0.5-1-0.8-2-0.8-3c0-2.7,0-5.4,0-8.1c0-3.4,2.9-7,7.4-6.9c0.4,0,0.8,0,1.3,0c-1.2-0.6-2.2-1.3-2.8-2.5c-0.6-1.2-0.7-2.4-0.3-3.6
		c0.7-2.1,2.8-3.5,5.1-3.4c2.3,0.1,4.3,1.6,4.9,3.7c0.7,2.4-0.4,4.3-3.1,5.9c0.9,0.1,1.8,0,2.6,0.1c3.2,0.5,5.8,2.9,6,6
		c0.3,3.2,0.3,6.4,0,9.6c-0.2,2.1-1.4,3.8-3.3,5c-0.1,0.1-0.2,0.1-0.3,0.1c0,0-0.1,0-0.2,0c0-0.2,0-0.4,0-0.6c0-4.7,0-9.3,0-14
		c0-0.2,0-0.4,0-0.6c-0.1-0.3-0.3-0.5-0.6-0.5c-0.3,0-0.5,0.1-0.6,0.4c0,0.3-0.1,0.5-0.1,0.8c0,8.2,0,16.4,0,24.5c0,1.9-0.7,3.4-3,4
		c-0.6,0-1.3,0-1.9,0c0-5.6,0-11.2,0-16.8c0-0.4-0.1-0.7-0.6-0.7c-0.5,0-0.7,0.3-0.7,0.7c0,0.2,0,0.4,0,0.5c0,5.4,0,10.8,0,16.2
		C80.8,93.2,80.1,93.2,79.4,93.2z"/>
	<path class="st0" d="M57,97.3C57,97.2,57,97.2,57,97.3c-2.1-0.7-2.7-2.1-2.7-4c0-8.1,0-16.3,0-24.4c0-0.2,0-0.4,0-0.7
		c0-0.4-0.2-0.6-0.6-0.6c-0.4,0-0.6,0.3-0.6,0.6c0,0.2,0,0.4,0,0.5c0,4.6,0,9.2,0,13.7c0,0.3,0,0.5,0,0.9c-1.4-0.7-2.4-1.7-3-3
		c-0.5-1-0.8-2-0.8-3c0-2.7,0-5.4,0-8.1c0-3.4,2.9-7,7.4-6.9c0.4,0,0.8,0,1.3,0c-1.2-0.6-2.2-1.3-2.8-2.5c-0.6-1.2-0.7-2.4-0.3-3.6
		c0.7-2.1,2.8-3.5,5.1-3.4c2.3,0.1,4.3,1.6,4.9,3.7c0.7,2.4-0.4,4.3-3.1,5.9c0.9,0.1,1.8,0,2.6,0.1c3.2,0.5,5.8,2.9,6,6
		c0.3,3.2,0.3,6.4,0,9.6c-0.2,2.1-1.4,3.8-3.3,5c-0.1,0.1-0.2,0.1-0.3,0.1c0,0-0.1,0-0.2,0c0-0.2,0-0.4,0-0.6c0-4.7,0-9.3,0-14
		c0-0.2,0-0.4,0-0.6c-0.1-0.3-0.3-0.5-0.6-0.5c-0.3,0-0.5,0.1-0.6,0.4c0,0.3-0.1,0.5-0.1,0.8c0,8.2,0,16.4,0,24.5c0,1.9-0.7,3.4-3,4
		c-0.6,0-1.3,0-1.9,0c0-5.6,0-11.2,0-16.8c0-0.4-0.1-0.7-0.6-0.7c-0.5,0-0.7,0.3-0.7,0.7c0,0.2,0,0.4,0,0.5c0,5.4,0,10.8,0,16.2
		C58.5,97.3,57.7,97.3,57,97.3z"/>
	<path class="st0" d="M33.7,90.4C33.7,90.4,33.7,90.3,33.7,90.4c-2.1-0.7-2.7-2.1-2.7-4c0-8.1,0-16.3,0-24.4c0-0.2,0-0.4,0-0.7
		c0-0.4-0.2-0.6-0.6-0.6c-0.4,0-0.6,0.3-0.6,0.6c0,0.2,0,0.4,0,0.5c0,4.6,0,9.2,0,13.7c0,0.3,0,0.5,0,0.9c-1.4-0.7-2.4-1.7-3-3
		c-0.5-1-0.8-2-0.8-3c0-2.7,0-5.4,0-8.1c0-3.4,2.9-7,7.4-6.9c0.4,0,0.8,0,1.3,0c-1.2-0.6-2.2-1.3-2.8-2.5c-0.6-1.2-0.7-2.4-0.3-3.6
		c0.7-2.1,2.8-3.5,5.1-3.4c2.3,0.1,4.3,1.6,4.9,3.7c0.7,2.4-0.4,4.3-3.1,5.9c0.9,0.1,1.8,0,2.6,0.1c3.2,0.5,5.8,2.9,6,6
		c0.3,3.2,0.3,6.4,0,9.6c-0.2,2.1-1.4,3.8-3.3,5c-0.1,0.1-0.2,0.1-0.3,0.1c0,0-0.1,0-0.2,0c0-0.2,0-0.4,0-0.6c0-4.7,0-9.3,0-14
		c0-0.2,0-0.4,0-0.6c-0.1-0.3-0.3-0.5-0.6-0.5c-0.3,0-0.5,0.1-0.6,0.4c0,0.3-0.1,0.5-0.1,0.8c0,8.2,0,16.4,0,24.5c0,1.9-0.7,3.4-3,4
		c-0.6,0-1.3,0-1.9,0c0-5.6,0-11.2,0-16.8c0-0.4-0.1-0.7-0.6-0.7c-0.5,0-0.7,0.3-0.7,0.7c0,0.2,0,0.4,0,0.5c0,5.4,0,10.8,0,16.2
		C35.2,90.4,34.5,90.4,33.7,90.4z"/>
</g>
</svg>
