<!-- Generator: Adobe Illustrator 20.1.0, SVG Export Plug-In  -->
<svg version="1.1"
	 xmlns="http://www.w3.org/2000/svg" xmlns:xlink="http://www.w3.org/1999/xlink" xmlns:a="http://ns.adobe.com/AdobeSVGViewerExtensions/3.0/"
	 x="0px" y="0px" width="121px" height="22.4px" viewBox="0 0 121 22.4"
	 style="overflow:scroll;enable-background:new 0 0 121 22.4;" xml:space="preserve">
<style type="text/css">
	.st0{fill:#FAFBFA;}
</style>
<defs>
</defs>
<g>
	<path class="st0" d="M11.7,12.7H3.8v6.1h8.8V22H0V1.1h12.2v3.1H3.8v5.4h7.9V12.7z"/>
	<path class="st0" d="M32.7,21.1c-1.3,0.5-3.9,1.2-6.7,1.2c-3.5,0-6.2-0.9-8.2-2.8c-1.9-1.8-2.9-4.5-2.9-7.7
		c0-6.6,4.7-10.9,11.6-10.9c2.6,0,4.6,0.5,5.5,1L31.2,5c-1.1-0.5-2.5-0.9-4.7-0.9c-4.5,0-7.6,2.6-7.6,7.5c0,4.7,2.9,7.6,7.3,7.6
		c1.4,0,2.4-0.2,2.9-0.4v-5.2h-3.7v-3h7.4V21.1z"/>
	<path class="st0" d="M36.3,22c0.1-1,0.1-2.7,0.1-4.2V0h3.8v9h0.1c0.9-1.5,2.6-2.4,4.8-2.4c3.7,0,6.3,3.1,6.3,7.7
		c0,5.4-3.4,8.1-6.9,8.1c-2,0-3.7-0.7-4.8-2.6h-0.1L39.6,22H36.3z M40.3,15.8c0,0.3,0,0.6,0.1,0.9c0.4,1.5,1.7,2.7,3.4,2.7
		c2.4,0,3.8-1.9,3.8-5c0-2.7-1.3-4.8-3.8-4.8c-1.6,0-2.9,1.1-3.4,2.8c-0.1,0.3-0.1,0.6-0.1,1V15.8z"/>
	<path class="st0" d="M74.2,1.9v2.4L65.6,22h-4l8.5-16.9V5h-9.5V1.9H74.2z"/>
	<path class="st0" d="M89.2,4.6c-0.6,0-1.2,0-2,0.1C83,5.1,81,7.8,80.5,10.5h0.1c1-1.1,2.5-2,4.5-2c3.5,0,6.2,2.5,6.2,6.6
		c0,3.8-2.8,7.2-7.1,7.2c-4.9,0-7.6-3.7-7.6-8.7c0-3.9,1.4-7,3.5-9.1c1.9-1.7,4.3-2.7,7.2-3c0.8-0.1,1.5-0.1,1.9-0.1L89.2,4.6z
		 M87.4,15.4c0-2.3-1.3-4-3.5-4c-1.4,0-2.7,0.9-3.3,2.1c-0.2,0.3-0.2,0.7-0.2,1.2c0.1,2.7,1.3,4.8,3.8,4.8
		C86.1,19.5,87.4,17.8,87.4,15.4z"/>
	<path class="st0" d="M99.5,5.3L99.5,5.3l-3.8,1.9l-0.7-2.9l4.9-2.4h3.2V22h-3.7V5.3z"/>
	<path class="st0" d="M121,6c0,2.9-2.4,5.3-5.4,5.3c-3,0-5.4-2.3-5.4-5.3c0-2.9,2.4-5.2,5.4-5.2C118.7,0.8,121,3.1,121,6z M111.8,6
		c0,2.2,1.7,4,3.9,4s3.9-1.8,3.9-4s-1.6-4-3.9-4S111.8,3.8,111.8,6z M114.9,8.6h-1.4v-5c0.4-0.1,1.1-0.2,2.1-0.2
		c1.1,0,1.5,0.2,1.9,0.4s0.6,0.6,0.6,1.1c0,0.5-0.5,1-1.1,1.1v0.1c0.5,0.2,0.8,0.6,1,1.3c0.2,0.7,0.3,1,0.4,1.2h-1.5
		c-0.2-0.2-0.2-0.6-0.4-1.1c-0.1-0.5-0.4-0.7-0.9-0.7h-0.5V8.6z M114.9,5.7h0.5c0.6,0,1-0.2,1-0.7c0-0.4-0.3-0.7-1-0.7
		c-0.2,0-0.4,0-0.6,0V5.7z"/>
</g>
</svg>
