<!-- Generator: Adobe Illustrator 20.1.0, SVG Export Plug-In  -->
<svg version="1.1"
	 xmlns="http://www.w3.org/2000/svg" xmlns:xlink="http://www.w3.org/1999/xlink" xmlns:a="http://ns.adobe.com/AdobeSVGViewerExtensions/3.0/"
	 x="0px" y="0px" width="248.7px" height="186.2px" viewBox="0 0 248.7 186.2"
	 style="overflow:scroll;enable-background:new 0 0 248.7 186.2;" xml:space="preserve">
<style type="text/css">
	.st0{fill:url(#SVGID_1_);}
	.st1{opacity:7.000000e-02;fill:#212427;}
	.st2{opacity:0.41;}
	.st3{fill:#FFFFFF;}
	.st4{opacity:0.2;}
	.st5{fill:#A6A8AB;}
	.st6{opacity:5.000000e-02;fill:#212427;}
	.st7{opacity:0.31;}
	.st8{opacity:0.12;}
	.st9{opacity:0.51;}
	.st10{fill:#6D6E70;}
	.st11{fill:url(#SVGID_2_);}
	.st12{fill:url(#SVGID_3_);}
	.st13{fill:#5A2D81;}
	.st14{fill:url(#SVGID_4_);}
	.st15{fill:url(#SVGID_5_);}
	.st16{fill:url(#SVGID_6_);}
</style>
<defs>
</defs>
<g>
	<linearGradient id="SVGID_1_" gradientUnits="userSpaceOnUse" x1="6.8305" y1="85.7033" x2="31.9839" y2="85.7033">
		<stop  offset="4.375000e-02" style="stop-color:#E2829D"/>
		<stop  offset="0.8555" style="stop-color:#BE597D"/>
	</linearGradient>
	<rect x="6.8" y="0.5" class="st0" width="25.2" height="170.4"/>
	<polygon class="st1" points="32,0.7 32,170.2 6.8,170.2 	"/>
	<g>
		<g class="st2">
			<rect x="6.8" y="0.5" class="st3" width="22.3" height="170.4"/>
		</g>
		<g class="st4">
			<rect x="6.8" y="0.5" class="st3" width="2.1" height="170.4"/>
		</g>
	</g>
</g>
<g>
	<rect x="191.4" y="0.5" class="st5" width="25.1" height="54.2"/>
	<polygon class="st6" points="216.5,0.2 216.5,54.1 191.4,54.1 	"/>
	<g class="st7">
		<g class="st8">
			<rect x="191.4" y="0.7" class="st3" width="22.2" height="53.6"/>
		</g>
		<g class="st9">
			<rect x="191.4" y="0.7" class="st10" width="2.1" height="53.6"/>
		</g>
	</g>
</g>
<g>
	<linearGradient id="SVGID_2_" gradientUnits="userSpaceOnUse" x1="114.2294" y1="43.5413" x2="139.3828" y2="43.5413">
		<stop  offset="4.375000e-02" style="stop-color:#E2829D"/>
		<stop  offset="0.8555" style="stop-color:#BE597D"/>
	</linearGradient>
	<rect x="114.2" y="0.8" class="st11" width="25.2" height="85.6"/>
	<polygon class="st1" points="139.4,0 139.4,86 114.2,86 	"/>
	<g>
		<g class="st2">
			<rect x="114.2" y="0.8" class="st3" width="22.3" height="85.6"/>
		</g>
		<g class="st4">
			<rect x="114.2" y="0.8" class="st3" width="2.1" height="85.6"/>
		</g>
	</g>
</g>
<g>
	<rect x="82.4" y="0.9" class="st5" width="25.1" height="36.8"/>
	<polygon class="st6" points="107.5,0.7 107.5,37.4 82.4,37.4 	"/>
	<g class="st7">
		<g class="st8">
			<rect x="82.4" y="1" class="st3" width="22.2" height="36.5"/>
		</g>
		<g class="st9">
			<rect x="82.4" y="1" class="st10" width="2.1" height="36.5"/>
		</g>
	</g>
</g>
<g>
	<linearGradient id="SVGID_3_" gradientUnits="userSpaceOnUse" x1="223.2671" y1="51.2554" x2="248.4205" y2="51.2554">
		<stop  offset="4.375000e-02" style="stop-color:#E2829D"/>
		<stop  offset="0.8555" style="stop-color:#BE597D"/>
	</linearGradient>
	<rect x="223.3" y="1.1" class="st12" width="25.2" height="100.2"/>
	<polygon class="st1" points="248.4,0 248.4,100.9 223.3,100.9 	"/>
	<g>
		<g class="st2">
			<rect x="223.3" y="1.1" class="st3" width="22.3" height="100.2"/>
		</g>
		<g class="st4">
			<rect x="223.3" y="1.1" class="st3" width="2.1" height="100.2"/>
		</g>
	</g>
</g>
<g>
	<g>
		<path class="st13" d="M0,180.5c0-0.7,0-1.3,0-1.8h1.5l0.1,0.7h0c0.4-0.6,1-0.9,1.8-0.9c1.2,0,2.2,1,2.2,2.7c0,2-1.2,2.9-2.4,2.9
			c-0.6,0-1.2-0.3-1.4-0.6h0v2.7H0V180.5z M1.7,181.7c0,0.1,0,0.3,0,0.4c0.1,0.5,0.5,0.8,1,0.8c0.7,0,1.2-0.6,1.2-1.5
			c0-0.9-0.4-1.5-1.1-1.5c-0.5,0-0.9,0.4-1,0.8c0,0.1,0,0.2,0,0.3V181.7z"/>
		<path class="st13" d="M6.4,180.5v-1h5.7v1H6.4z M6.4,182.7v-1h5.7v1H6.4z"/>
		<path class="st13" d="M18.3,180.4c0,2.2-0.9,3.7-2.7,3.7c-1.8,0-2.7-1.7-2.7-3.7c0-2.1,0.9-3.7,2.7-3.7
			C17.5,176.8,18.3,178.5,18.3,180.4z M14.5,180.5c0,1.6,0.4,2.4,1,2.4s1-0.8,1-2.4c0-1.6-0.3-2.4-1-2.4
			C14.9,178,14.5,178.8,14.5,180.5z"/>
		<path class="st13" d="M19.2,183.1c0-0.6,0.4-1,1-1s1,0.4,1,1c0,0.6-0.4,1-1,1C19.6,184.2,19.2,183.7,19.2,183.1z"/>
		<path class="st13" d="M27.2,180.4c0,2.2-0.9,3.7-2.7,3.7c-1.8,0-2.7-1.7-2.7-3.7c0-2.1,0.9-3.7,2.7-3.7
			C26.5,176.8,27.2,178.5,27.2,180.4z M23.5,180.5c0,1.6,0.4,2.4,1,2.4s1-0.8,1-2.4c0-1.6-0.3-2.4-1-2.4
			C23.9,178,23.5,178.8,23.5,180.5z"/>
		<path class="st13" d="M28.3,182.4c0.3,0.2,1,0.4,1.7,0.4c0.9,0,1.3-0.4,1.3-1c0-0.7-0.7-1-1.4-1h-0.7v-1.2h0.6
			c0.6,0,1.3-0.2,1.3-0.8c0-0.4-0.4-0.7-1.1-0.7c-0.6,0-1.2,0.3-1.5,0.4l-0.3-1.2c0.4-0.3,1.3-0.5,2.2-0.5c1.5,0,2.4,0.8,2.4,1.8
			c0,0.8-0.4,1.4-1.3,1.7v0c0.9,0.2,1.6,0.8,1.6,1.7c0,1.3-1.1,2.2-2.9,2.2c-0.9,0-1.7-0.2-2.1-0.5L28.3,182.4z"/>
		<path class="st13" d="M37.1,184v-1.7h-3.2v-1.1l2.7-4.4h2v4.2h0.9v1.3h-0.9v1.7H37.1z M37.1,181.1v-1.6c0-0.4,0-0.9,0.1-1.3h0
			c-0.2,0.5-0.4,0.9-0.7,1.3l-1,1.6v0H37.1z"/>
	</g>
</g>
<g>
	<g>
		<path class="st13" d="M99.8,95.5c0-0.7,0-1.3,0-1.8h1.5l0.1,0.7h0c0.4-0.6,1-0.9,1.8-0.9c1.2,0,2.2,1,2.2,2.7c0,2-1.2,2.9-2.4,2.9
			c-0.6,0-1.2-0.3-1.4-0.6h0v2.7h-1.7V95.5z M101.5,96.8c0,0.1,0,0.3,0,0.4c0.1,0.5,0.5,0.8,1,0.8c0.7,0,1.2-0.6,1.2-1.5
			c0-0.9-0.4-1.5-1.1-1.5c-0.5,0-0.9,0.4-1,0.8c0,0.1,0,0.2,0,0.3V96.8z"/>
		<path class="st13" d="M106.2,95.5v-1h5.7v1H106.2z M106.2,97.8v-1h5.7v1H106.2z"/>
		<path class="st13" d="M118,95.5c0,2.2-0.9,3.7-2.7,3.7c-1.8,0-2.7-1.7-2.7-3.7c0-2.1,0.9-3.7,2.7-3.7
			C117.3,91.8,118,93.5,118,95.5z M114.3,95.5c0,1.6,0.4,2.4,1,2.4s1-0.8,1-2.4c0-1.6-0.3-2.4-1-2.4
			C114.7,93.1,114.3,93.9,114.3,95.5z"/>
		<path class="st13" d="M119,98.2c0-0.6,0.4-1,1-1s1,0.4,1,1c0,0.6-0.4,1-1,1C119.4,99.2,119,98.8,119,98.2z"/>
		<path class="st13" d="M127,95.5c0,2.2-0.9,3.7-2.7,3.7c-1.8,0-2.7-1.7-2.7-3.7c0-2.1,0.9-3.7,2.7-3.7
			C126.3,91.8,127,93.5,127,95.5z M123.3,95.5c0,1.6,0.4,2.4,1,2.4s1-0.8,1-2.4c0-1.6-0.3-2.4-1-2.4
			C123.7,93.1,123.3,93.9,123.3,95.5z"/>
		<path class="st13" d="M130,93.4L130,93.4l-1.4,0.6l-0.3-1.3l1.9-0.9h1.4v7.2H130V93.4z"/>
		<path class="st13" d="M133.8,97.2c0-0.9,0.5-1.5,1.3-1.8v0c-0.7-0.4-1-0.9-1-1.6c0-1.2,1.1-2,2.5-2c1.7,0,2.4,1,2.4,1.8
			c0,0.6-0.3,1.2-1,1.6v0c0.7,0.3,1.3,0.9,1.3,1.8c0,1.3-1.1,2.2-2.8,2.2C134.7,99.2,133.8,98.2,133.8,97.2z M137.5,97.2
			c0-0.6-0.5-1-1.1-1.2c-0.6,0.2-0.9,0.5-0.9,1.1c0,0.5,0.4,1,1,1C137.1,98.1,137.5,97.7,137.5,97.2z M135.6,93.8c0,0.5,0.4,0.8,1,1
			c0.4-0.1,0.7-0.5,0.7-0.9c0-0.4-0.3-0.9-0.9-0.9C135.9,93,135.6,93.3,135.6,93.8z"/>
	</g>
</g>
<g>
	<g>
		<path class="st13" d="M209.3,108.5c0-0.7,0-1.3,0-1.8h1.5l0.1,0.7h0c0.4-0.6,1-0.9,1.8-0.9c1.2,0,2.2,1,2.2,2.7
			c0,2-1.2,2.9-2.4,2.9c-0.6,0-1.2-0.3-1.4-0.6h0v2.7h-1.7V108.5z M211,109.8c0,0.1,0,0.3,0,0.4c0.1,0.5,0.5,0.8,1,0.8
			c0.7,0,1.2-0.6,1.2-1.5c0-0.9-0.4-1.5-1.1-1.5c-0.5,0-0.9,0.4-1,0.8c0,0.1,0,0.2,0,0.3V109.8z"/>
		<path class="st13" d="M215.7,108.5v-1h5.7v1H215.7z M215.7,110.8v-1h5.7v1H215.7z"/>
		<path class="st13" d="M227.5,108.5c0,2.2-0.9,3.7-2.7,3.7c-1.8,0-2.7-1.7-2.7-3.7c0-2.1,0.9-3.7,2.7-3.7
			C226.8,104.8,227.5,106.5,227.5,108.5z M223.8,108.5c0,1.6,0.4,2.4,1,2.4s1-0.8,1-2.4c0-1.6-0.3-2.4-1-2.4
			C224.2,106.1,223.8,106.9,223.8,108.5z"/>
		<path class="st13" d="M228.5,111.2c0-0.6,0.4-1,1-1s1,0.4,1,1c0,0.6-0.4,1-1,1C228.9,112.2,228.5,111.8,228.5,111.2z"/>
		<path class="st13" d="M236.5,108.5c0,2.2-0.9,3.7-2.7,3.7c-1.8,0-2.7-1.7-2.7-3.7c0-2.1,0.9-3.7,2.7-3.7
			C235.8,104.8,236.5,106.5,236.5,108.5z M232.8,108.5c0,1.6,0.4,2.4,1,2.4s1-0.8,1-2.4c0-1.6-0.3-2.4-1-2.4
			C233.2,106.1,232.8,106.9,232.8,108.5z"/>
		<path class="st13" d="M237.6,110.4c0.3,0.2,1,0.4,1.7,0.4c0.9,0,1.3-0.4,1.3-1c0-0.7-0.7-1-1.4-1h-0.7v-1.2h0.6
			c0.6,0,1.3-0.2,1.3-0.8c0-0.4-0.4-0.7-1.1-0.7c-0.6,0-1.2,0.3-1.5,0.4l-0.3-1.2c0.4-0.3,1.3-0.5,2.2-0.5c1.5,0,2.4,0.8,2.4,1.8
			c0,0.8-0.4,1.4-1.3,1.7v0c0.9,0.2,1.6,0.8,1.6,1.7c0,1.3-1.1,2.2-2.9,2.2c-0.9,0-1.7-0.2-2.1-0.5L237.6,110.4z"/>
		<path class="st13" d="M244,110.9c0.2,0,0.4,0,0.7,0c0.5,0,1-0.2,1.4-0.4c0.5-0.3,0.8-0.8,0.9-1.3l0,0c-0.3,0.3-0.8,0.5-1.4,0.5
			c-1.2,0-2.2-0.8-2.2-2.2c0-1.4,1.1-2.6,2.7-2.6c1.8,0,2.7,1.4,2.7,3.1c0,1.5-0.5,2.6-1.3,3.3c-0.7,0.6-1.6,1-2.7,1
			c-0.3,0-0.6,0-0.8,0V110.9z M245,107.3c0,0.6,0.3,1.1,1,1.1c0.5,0,0.8-0.2,0.9-0.5c0.1-0.1,0.1-0.2,0.1-0.4c0-0.8-0.3-1.5-1-1.5
			C245.4,106,245,106.5,245,107.3z"/>
	</g>
</g>
</svg>
