<!-- Generator: Adobe Illustrator 20.1.0, SVG Export Plug-In  -->
<svg version="1.1"
	 xmlns="http://www.w3.org/2000/svg" xmlns:xlink="http://www.w3.org/1999/xlink" xmlns:a="http://ns.adobe.com/AdobeSVGViewerExtensions/3.0/"
	 x="0px" y="0px" width="248.2px" height="32.3px" viewBox="0 0 248.2 32.3"
	 style="overflow:scroll;enable-background:new 0 0 248.2 32.3;" xml:space="preserve">
<style type="text/css">
	.st0{fill:#FFFFFF;}
</style>
<defs>
</defs>
<g>
	<path class="st0" d="M2.1,20.9c0,6.8,3.8,9.6,8.2,9.6c3.1,0,4.7-0.6,6-1.2l0.5,1.7c-0.8,0.4-3,1.4-6.8,1.4c-6.2,0-10-4.5-10-10.8
		C0,14.3,4.1,9.8,9.7,9.8c7,0,8.4,6.6,8.4,9.7c0,0.6,0,0.9-0.1,1.3H2.1z M15.8,19.2c0-3-1.2-7.5-6.4-7.5c-4.7,0-6.8,4.2-7.2,7.5
		H15.8z"/>
	<path class="st0" d="M23.5,0h2.1v31.8h-2.1V0z"/>
	<path class="st0" d="M45.7,5.6v4.7h6.1v1.7h-6.1v14c0,2.7,0.9,4.4,3.1,4.4c1.1,0,1.9-0.1,2.5-0.3l0.3,1.6c-0.7,0.3-1.7,0.5-3,0.5
		c-1.6,0-2.9-0.5-3.7-1.5c-1-1.1-1.3-3-1.3-5.1V12.1H40v-1.7h3.6V6.4L45.7,5.6z"/>
	<path class="st0" d="M56.6,16.8c0-2.1,0-4.3-0.2-6.4h2l0.1,4.3h0.1c0.9-2.7,3.2-4.8,6.1-4.8c0.3,0,0.6,0,0.9,0.1v2
		c-0.3,0-0.6,0-1,0c-3,0-5.1,2.6-5.6,6c-0.1,0.6-0.2,1.3-0.2,2.1v11.9h-2.1V16.8z"/>
	<path class="st0" d="M83.2,26.7c0,1.7,0,3.4,0.3,5.1h-2l-0.3-3.1h-0.1c-1.1,1.7-3.4,3.6-6.9,3.6c-4.3,0-6.3-3-6.3-5.9
		c0-5,4.3-8,13.1-7.9V18c0-2.1-0.4-6.4-5.5-6.3c-1.9,0-3.8,0.5-5.4,1.6l-0.7-1.6c2-1.3,4.4-1.8,6.3-1.8c6.2,0,7.4,4.7,7.4,8.5V26.7z
		 M81.1,20.3c-4.7-0.1-10.9,0.6-10.9,5.7c0,3.1,2.1,4.5,4.3,4.5c3.6,0,5.6-2.2,6.4-4.3c0.2-0.4,0.2-0.9,0.2-1.3V20.3z"/>
	<path class="st0" d="M93.1,5.6v4.7h6.1v1.7h-6.1v14c0,2.7,0.9,4.4,3.1,4.4c1.1,0,1.9-0.1,2.5-0.3l0.3,1.6c-0.7,0.3-1.7,0.5-3,0.5
		c-1.6,0-2.9-0.5-3.7-1.5c-1-1.1-1.3-3-1.3-5.1V12.1h-3.6v-1.7H91V6.4L93.1,5.6z"/>
	<path class="st0" d="M117.4,26.7c0,1.7,0,3.4,0.3,5.1h-2l-0.3-3.1h-0.1c-1.1,1.7-3.4,3.6-6.9,3.6c-4.3,0-6.3-3-6.3-5.9
		c0-5,4.3-8,13.1-7.9V18c0-2.1-0.4-6.4-5.5-6.3c-1.9,0-3.8,0.5-5.4,1.6l-0.7-1.6c2-1.3,4.4-1.8,6.3-1.8c6.2,0,7.4,4.7,7.4,8.5V26.7z
		 M115.2,20.3c-4.7-0.1-10.9,0.6-10.9,5.7c0,3.1,2.1,4.5,4.3,4.5c3.6,0,5.6-2.2,6.4-4.3c0.2-0.4,0.2-0.9,0.2-1.3V20.3z"/>
	<path class="st0" d="M124.3,15.5c0-2,0-3.4-0.2-5.1h2l0.1,3.8h0.1c1.4-2.5,3.4-4.3,7-4.3c3,0,5.2,2,6.2,4.7h0.1
		c0.6-1.3,1.4-2.2,2.2-2.9c1.4-1.1,2.8-1.7,5.1-1.7c2.1,0,7,1.2,7,9.3v12.7h-2.1V19.3c0-4.8-1.9-7.7-5.6-7.7c-2.7,0-4.8,2-5.6,4.3
		c-0.2,0.6-0.4,1.3-0.4,2.1v13.8h-2.1V18.4c0-3.9-1.8-6.7-5.3-6.7c-2.9,0-5.1,2.3-6,4.8c-0.2,0.6-0.3,1.3-0.3,2.1v13.3h-2.1V15.5z"
		/>
	<path class="st0" d="M162,6c-1,0-1.7-0.9-1.7-1.8c0-1,0.8-1.9,1.7-1.9c1,0,1.7,0.9,1.7,1.9C163.7,5.2,163.1,6,162,6L162,6z
		 M161,31.8V10.3h2.1v21.5H161z"/>
	<path class="st0" d="M170.6,20.9c0,6.8,3.8,9.6,8.2,9.6c3.1,0,4.7-0.6,6-1.2l0.5,1.7c-0.8,0.4-3,1.4-6.8,1.4c-6.2,0-10-4.5-10-10.8
		c0-7.2,4.1-11.6,9.7-11.6c7,0,8.4,6.6,8.4,9.7c0,0.6,0,0.9-0.1,1.3H170.6z M184.3,19.2c0-3-1.2-7.5-6.4-7.5c-4.7,0-6.8,4.2-7.2,7.5
		H184.3z"/>
	<path class="st0" d="M192,15.5c0-2,0-3.4-0.2-5.1h2l0.1,3.9h0.1c1.2-2.4,3.9-4.3,7.4-4.3c2.1,0,7.5,1,7.5,9.1v12.9h-2.1V19.1
		c0-3.9-1.5-7.5-6-7.5c-3,0-5.6,2.1-6.4,5c-0.1,0.5-0.3,1.2-0.3,1.9v13.3H192V15.5z"/>
	<path class="st0" d="M219,5.6v4.7h6.1v1.7H219v14c0,2.7,0.9,4.4,3.1,4.4c1.1,0,1.9-0.1,2.5-0.3l0.3,1.6c-0.7,0.3-1.7,0.5-3,0.5
		c-1.6,0-2.9-0.5-3.7-1.5c-1-1.1-1.3-3-1.3-5.1V12.1h-3.6v-1.7h3.6V6.4L219,5.6z"/>
	<path class="st0" d="M237.9,32.3c-5.6,0-9.8-4.3-9.8-11.1c0-7.3,4.8-11.4,10.2-11.4c6,0,10,4.5,10,11.1
		C248.2,28.9,242.7,32.3,237.9,32.3L237.9,32.3z M238.1,30.5c4.5,0,8-4,8-9.5c0-3.9-2.2-9.4-7.9-9.4c-5.5,0-8,4.9-8,9.5
		C230.2,26.5,233.6,30.5,238.1,30.5L238.1,30.5z"/>
</g>
</svg>
