<!-- Generator: Adobe Illustrator 20.1.0, SVG Export Plug-In  -->
<svg version="1.1"
	 xmlns="http://www.w3.org/2000/svg" xmlns:xlink="http://www.w3.org/1999/xlink" xmlns:a="http://ns.adobe.com/AdobeSVGViewerExtensions/3.0/"
	 x="0px" y="0px" width="861px" height="87.6px" viewBox="0 0 861 87.6"
	 style="overflow:scroll;enable-background:new 0 0 861 87.6;" xml:space="preserve">
<style type="text/css">
	.st0{fill:#DDDFDD;}
	.st1{fill:#DA0962;}
	.st2{fill:#9B1553;}
</style>
<defs>
</defs>
<g>
	<g>
		<polygon class="st0" points="861,85.1 668.8,28.4 507.1,28.4 		"/>
		<polygon class="st0" points="507.1,28.4 615.9,53 398.4,53 		"/>
		<polygon class="st0" points="398.4,53 335.3,38.8 461.5,38.8 		"/>
		<polygon class="st0" points="0,0 461.5,38.8 335.3,38.8 0,28.6 		"/>
	</g>
	<g>
		<polygon class="st1" points="861,87.6 666.1,30.9 507.1,30.9 644.4,62 		"/>
		<polygon class="st2" points="507.1,30.9 615.9,55.6 398.4,55.6 		"/>
		<polygon class="st1" points="461.5,41.3 461.5,41.3 461.5,41.3 398.4,55.6 0,59.3 0,2.5 461.5,41.3 461.5,41.3 		"/>
	</g>
</g>
</svg>
