<!-- Generator: Adobe Illustrator 20.1.0, SVG Export Plug-In  -->
<svg version="1.1"
	 xmlns="http://www.w3.org/2000/svg" xmlns:xlink="http://www.w3.org/1999/xlink" xmlns:a="http://ns.adobe.com/AdobeSVGViewerExtensions/3.0/"
	 x="0px" y="0px" width="214.7px" height="49.7px" viewBox="0 0 214.7 49.7"
	 style="overflow:scroll;enable-background:new 0 0 214.7 49.7;" xml:space="preserve">
<style type="text/css">
	.st0{fill:#DA0962;}
	.st1{fill:#FFFFFF;}
</style>
<defs>
</defs>
<path class="st0" d="M208.8,0c0,0,6,0,5.9,4.8l-0.3,40.1c0,0,0,4.8-6,4.8h-192c0,0-6,0-7.1-4.8L0.1,4.8C0.1,4.8-1,0,4.9,0H208.8z"/>
<g>
	<g>
		<g>
			<g>
				<g>
					<g>
						<path class="st1" d="M50.8,13.2h-5v-3.1h13.6v3.1h-5v13.5h-3.6V13.2z"/>
					</g>
					<g>
						<path class="st1" d="M60.3,21.6c0.1,2.1,1.1,3,2.9,3c1.3,0,2.4-0.8,2.6-1.6h2.9c-0.9,2.8-2.9,4-5.6,4c-3.8,0-6.1-2.6-6.1-6.3
							c0-3.6,2.5-6.3,6.1-6.3c4.1,0,6.1,3.4,5.8,7.1H60.3z M65.7,19.5c-0.3-1.7-1-2.6-2.6-2.6c-2.1,0-2.7,1.6-2.7,2.6H65.7z"/>
						<path class="st1" d="M70.2,10.2h3.3v6h0c0.8-1.2,2.3-1.8,3.8-1.8c2.4,0,5,1.9,5,6.3c0,4.4-2.6,6.3-5,6.3
							c-1.8,0-3.2-0.5-3.9-1.9h0v1.5h-3.1V10.2z M76.2,16.9c-1.9,0-2.8,1.8-2.8,3.9c0,2,0.9,3.8,2.8,3.8c1.9,0,2.8-1.8,2.8-3.8
							C79,18.7,78.1,16.9,76.2,16.9z"/>
						<path class="st1" d="M89.5,14.4c3.8,0,6.2,2.5,6.2,6.3c0,3.8-2.4,6.3-6.2,6.3c-3.8,0-6.2-2.5-6.2-6.3
							C83.3,16.9,85.7,14.4,89.5,14.4z M89.5,24.6c2.3,0,2.9-1.9,2.9-3.8c0-1.9-0.7-3.9-2.9-3.9c-2.2,0-2.9,1.9-2.9,3.9
							C86.6,22.7,87.2,24.6,89.5,24.6z"/>
						<path class="st1" d="M97.3,14.8h3.1v1.7h0.1c0.8-1.3,2.3-2,3.7-2c3.5,0,4.4,2,4.4,4.9v7.4h-3.3V20c0-2-0.6-2.9-2.1-2.9
							c-1.8,0-2.6,1-2.6,3.4v6.3h-3.3V14.8z"/>
						<path class="st1" d="M113.6,12.9h-3.3v-2.7h3.3V12.9z M110.3,14.8h3.3v12h-3.3V14.8z"/>
					</g>
					<g>
						<path class="st1" d="M115.1,14.8h3.1v1.7h0.1c0.8-1.3,2.3-2,3.7-2c3.5,0,4.4,2,4.4,4.9v7.4h-3.3V20c0-2-0.6-2.9-2.1-2.9
							c-1.8,0-2.6,1-2.6,3.4v6.3h-3.3V14.8z"/>
					</g>
					<g>
						<path class="st1" d="M131,11.7c1.8,0,3.5,1.3,3.5,3.4c0,2.1-1.6,3.4-3.5,3.4c-1.8,0-3.5-1.3-3.5-3.4
							C127.6,13.1,129.2,11.7,131,11.7z M131,17.8c1.4,0,2.6-1.1,2.6-2.7c0-1.5-1.2-2.7-2.6-2.7c-1.4,0-2.6,1.1-2.6,2.7
							C128.5,16.7,129.6,17.8,131,17.8z M129.7,13.2h1.4c1,0,1.5,0.3,1.5,1.1c0,0.7-0.4,1-1,1l1,1.7h-0.8l-0.9-1.6h-0.5V17h-0.8
							V13.2z M130.4,14.8h0.7c0.4,0,0.7-0.1,0.7-0.5c0-0.4-0.4-0.5-0.8-0.5h-0.6V14.8z"/>
					</g>
				</g>
			</g>
		</g>
	</g>
	<g>
		<path class="st1" d="M71.5,32.7c-0.8,1-1.4,2.2-1.4,4c0,1.8,0.6,3,1.4,4h-0.4c-0.7-0.8-1.4-2.1-1.4-4c0-1.9,0.7-3.2,1.4-4H71.5z"
			/>
		<path class="st1" d="M75.6,36.2H73v2.9h2.9v0.4h-3.4v-6.6h3.2v0.4H73v2.5h2.6V36.2z"/>
		<path class="st1" d="M81.9,39.2c-0.3,0.1-1,0.4-1.9,0.4c-0.9,0-1.7-0.2-2.3-0.9c-0.5-0.5-0.9-1.4-0.9-2.5c0-1.8,1.2-3.4,3.4-3.4
			c0.7,0,1.3,0.2,1.5,0.3l-0.2,0.4c-0.3-0.2-0.8-0.3-1.4-0.3c-1.8,0-2.9,1.2-2.9,3c0,1.9,1.1,3,2.8,3c0.7,0,1.1-0.1,1.4-0.2v-2.3
			h-1.5v-0.4h2V39.2z"/>
		<path class="st1" d="M83.3,32.6h0.5v3.1h0c0.3-0.6,0.9-1,1.7-1c1.2,0,2,1,2,2.4c0,1.7-1.1,2.5-2.1,2.5c-0.8,0-1.3-0.3-1.7-0.9h0
			l0,0.8h-0.4c0-0.3,0-0.7,0-1.1V32.6z M83.8,37.7c0,0.1,0,0.2,0,0.3c0.2,0.7,0.8,1.2,1.5,1.2c1.1,0,1.7-0.9,1.7-2.1
			c0-1.1-0.6-2-1.6-2c-0.7,0-1.3,0.5-1.6,1.2c0,0.1-0.1,0.2-0.1,0.4V37.7z"/>
		<path class="st1" d="M92.3,33.2v0.3l-2.9,6H89l2.8-5.9v0h-3.2v-0.4H92.3z"/>
		<path class="st1" d="M96.7,33.5c-0.2,0-0.4,0-0.7,0.1c-1.4,0.3-2.1,1.5-2.3,2.7h0c0.3-0.5,0.9-0.9,1.6-0.9c1.2,0,1.9,0.9,1.9,2
			c0,1.1-0.7,2.2-2,2.2c-1.1,0-2.1-0.9-2.1-2.7c0-1.3,0.4-2.3,1-2.9c0.5-0.5,1.1-0.8,1.8-0.9c0.2-0.1,0.5-0.1,0.6-0.1V33.5z
			 M95.3,39.2c0.9,0,1.5-0.7,1.5-1.8c0-1.1-0.6-1.7-1.5-1.7c-0.6,0-1.2,0.4-1.5,0.9c-0.1,0.1-0.1,0.2-0.1,0.4
			C93.7,38.3,94.3,39.2,95.3,39.2L95.3,39.2z"/>
		<path class="st1" d="M100,33.6L100,33.6L99,34.3l-0.1-0.4l1.2-0.7h0.4v6.3H100V33.6z"/>
		<path class="st1" d="M104.5,32.9c0.9,0,1.6,0.7,1.6,1.5c0,0.9-0.7,1.6-1.6,1.6c-0.9,0-1.6-0.7-1.6-1.6
			C102.9,33.5,103.6,32.9,104.5,32.9L104.5,32.9z M104.5,33.1c-0.7,0-1.2,0.6-1.2,1.3c0,0.7,0.5,1.3,1.3,1.3c0.7,0,1.2-0.6,1.2-1.3
			S105.2,33.1,104.5,33.1L104.5,33.1z M104.2,35.3h-0.3v-1.6c0.2,0,0.3,0,0.6,0c0.3,0,0.4,0,0.5,0.1c0.1,0.1,0.2,0.2,0.2,0.4
			c0,0.2-0.1,0.3-0.3,0.4v0c0.1,0.1,0.2,0.2,0.3,0.4c0,0.2,0.1,0.3,0.1,0.4h-0.3c0-0.1-0.1-0.2-0.1-0.4c0-0.2-0.1-0.3-0.4-0.3h-0.2
			V35.3z M104.2,34.4h0.2c0.2,0,0.4-0.1,0.4-0.3c0-0.2-0.1-0.3-0.4-0.3c-0.1,0-0.2,0-0.2,0V34.4z"/>
		<path class="st1" d="M106.7,40.7c0.8-1,1.4-2.2,1.4-4c0-1.8-0.6-3-1.4-4h0.4c0.7,0.8,1.4,2.1,1.4,4c0,1.9-0.7,3.1-1.4,4H106.7z"/>
	</g>
</g>
</svg>
