<!-- Generator: Adobe Illustrator 20.1.0, SVG Export Plug-In  -->
<svg version="1.1"
	 xmlns="http://www.w3.org/2000/svg" xmlns:xlink="http://www.w3.org/1999/xlink" xmlns:a="http://ns.adobe.com/AdobeSVGViewerExtensions/3.0/"
	 x="0px" y="0px" width="174.7px" height="29.8px" viewBox="0 0 174.7 29.8"
	 style="overflow:scroll;enable-background:new 0 0 174.7 29.8;" xml:space="preserve">
<style type="text/css">
	.st0{fill:#DA0962;}
</style>
<defs>
</defs>
<g>
	<path class="st0" d="M7.5,6.9L0,7l0-5.3l21.4-0.1l0,5.3l-7.6,0l0.1,22.6l-6.3,0L7.5,6.9z"/>
	<path class="st0" d="M30.3,21.3c0.2,2.6,2.8,3.8,5.7,3.8c2.1,0,3.9-0.3,5.6-0.8l0.8,4.3c-2.1,0.8-4.6,1.3-7.3,1.3
		c-6.9,0-10.8-3.9-10.8-10.2c0-5.1,3.1-10.8,10.2-10.8c6.5,0,9,5,9,10c0,1.1-0.1,2-0.2,2.5L30.3,21.3z M37.6,17
		c0-1.5-0.7-4.1-3.6-4.1c-2.6,0-3.7,2.4-3.9,4.1L37.6,17z"/>
	<path class="st0" d="M47.9,29.3c0.1-1.3,0.2-3.8,0.1-6L48,0l6.3,0l0,11.5h0.1c1.2-1.7,3.3-2.9,6.1-2.9c4.8,0,8.4,4,8.4,10.2
		c0,7.3-4.6,10.9-9.2,10.9c-2.4,0-4.6-0.9-6.1-3.2h-0.1l-0.2,2.8L47.9,29.3z M54.3,20.7c0,0.4,0,0.8,0.1,1.1c0.4,1.7,1.9,3,3.7,3
		c2.7,0,4.3-2.1,4.3-5.7c0-3.1-1.4-5.6-4.4-5.6c-1.7,0-3.3,1.3-3.7,3.1c-0.1,0.4-0.1,0.7-0.1,1.2L54.3,20.7z"/>
	<path class="st0" d="M93.5,18.9c0,7.4-5.2,10.8-10.6,10.8c-5.9,0-10.5-3.8-10.5-10.4c0-6.5,4.3-10.7,10.7-10.7
		C89.4,8.6,93.5,12.8,93.5,18.9z M78.9,19.1c0,3.5,1.5,6.1,4.2,6.1c2.4,0,4-2.5,4-6.1c0-3-1.2-6.1-4-6.1C80,13,78.9,16.1,78.9,19.1z
		"/>
	<path class="st0" d="M98.2,15.4c0-2.5-0.1-4.7-0.2-6.4l5.5,0l0.3,2.8h0.1c0.8-1.3,2.9-3.2,6.2-3.2c4.1,0,7.2,2.7,7.3,8.6l0,12
		l-6.3,0l0-11.2c0-2.6-0.9-4.4-3.2-4.4c-1.7,0-2.8,1.2-3.2,2.4c-0.2,0.4-0.2,1-0.2,1.6l0,11.6l-6.3,0L98.2,15.4z"/>
	<path class="st0" d="M129.7,3.2c0,1.7-1.3,3.1-3.4,3.2c-2,0-3.3-1.4-3.3-3.1c0-1.8,1.3-3.2,3.3-3.2C128.4,0.1,129.7,1.4,129.7,3.2z
		 M123.3,29.1l-0.1-20.2l6.3,0l0.1,20.2L123.3,29.1z"/>
	<path class="st0" d="M135.4,15.3c0-2.5-0.1-4.7-0.2-6.4l5.5,0l0.3,2.8l0.1,0c0.8-1.3,2.9-3.2,6.2-3.2c4.1,0,7.2,2.7,7.3,8.6l0,12
		l-6.3,0l0-11.2c0-2.6-0.9-4.4-3.2-4.4c-1.7,0-2.8,1.2-3.2,2.4c-0.2,0.4-0.2,1-0.2,1.6l0,11.6l-6.3,0L135.4,15.3z"/>
	<path class="st0" d="M174.7,7.7c0,4-3.2,7.2-7.3,7.2c-4.1,0-7.4-3.2-7.4-7.1c0-3.9,3.2-7.1,7.3-7.1C171.5,0.6,174.7,3.8,174.7,7.7z
		 M162.2,7.8c0,3,2.2,5.3,5.2,5.3c3,0,5.2-2.4,5.1-5.4c0-2.9-2.2-5.3-5.2-5.3C164.4,2.4,162.2,4.8,162.2,7.8z M166.5,11.1l-2,0
		l0-6.6c0.5-0.1,1.5-0.2,2.9-0.2c1.5,0,2.1,0.2,2.6,0.5c0.4,0.3,0.7,0.8,0.7,1.4c0,0.7-0.6,1.2-1.5,1.5v0.1c0.7,0.2,1.2,0.7,1.4,1.7
		c0.2,1,0.3,1.3,0.5,1.6l-2.3,0c-0.2-0.2-0.3-0.8-0.5-1.4c-0.1-0.7-0.5-1-1.1-1l-0.7,0L166.5,11.1z M166.6,7.4l0.6,0
		c0.7,0,1.2-0.3,1.2-0.8c0-0.5-0.5-0.8-1.2-0.8c-0.2,0-0.5,0-0.7,0L166.6,7.4z"/>
</g>
</svg>
