<!-- Generator: Adobe Illustrator 20.1.0, SVG Export Plug-In  -->
<svg version="1.1"
	 xmlns="http://www.w3.org/2000/svg" xmlns:xlink="http://www.w3.org/1999/xlink" xmlns:a="http://ns.adobe.com/AdobeSVGViewerExtensions/3.0/"
	 x="0px" y="0px" width="227px" height="54.5px" viewBox="0 0 227 54.5"
	 style="overflow:scroll;enable-background:new 0 0 227 54.5;" xml:space="preserve">
<style type="text/css">
	.st0{fill:#DA0962;}
</style>
<defs>
</defs>
<g>
	<path class="st0" d="M2.9,0.9v12.8H1.3V0.9H2.9z"/>
	<path class="st0" d="M5.8,7c0-1,0-1.7-0.1-2.5h1.5L7.3,6h0c0.5-0.9,1.5-1.7,3-1.7c1.3,0,3.2,0.8,3.2,3.9v5.5h-1.7V8.4
		c0-1.5-0.6-2.7-2.1-2.7c-1.1,0-2,0.8-2.2,1.7C7.5,7.6,7.4,7.9,7.4,8.2v5.5H5.8V7z"/>
	<path class="st0" d="M22.9,13.4c-0.4,0.2-1.4,0.5-2.6,0.5c-2.8,0-4.6-1.9-4.6-4.7c0-2.8,1.9-4.9,4.9-4.9c1,0,1.9,0.2,2.3,0.5
		l-0.4,1.3c-0.4-0.2-1-0.4-1.9-0.4c-2.1,0-3.2,1.6-3.2,3.5c0,2.1,1.4,3.4,3.2,3.4c1,0,1.6-0.2,2.1-0.5L22.9,13.4z"/>
	<path class="st0" d="M24.8,7.4c0-1.1,0-2-0.1-2.9h1.5l0.1,1.8h0.1c0.4-1.2,1.4-2,2.5-2c0.2,0,0.3,0,0.5,0.1v1.6
		c-0.2,0-0.3-0.1-0.6-0.1c-1.2,0-2,0.9-2.2,2.1c0,0.2-0.1,0.5-0.1,0.8v4.9h-1.7V7.4z"/>
	<path class="st0" d="M32,9.4c0,2.3,1.5,3.2,3.2,3.2c1.2,0,1.9-0.2,2.5-0.5l0.3,1.2c-0.6,0.3-1.6,0.6-3.1,0.6
		c-2.8,0-4.5-1.9-4.5-4.6s1.6-5,4.3-5c3,0,3.8,2.6,3.8,4.3c0,0.3,0,0.6-0.1,0.8H32z M36.9,8.2c0-1.1-0.4-2.7-2.3-2.7
		c-1.7,0-2.4,1.6-2.6,2.7H36.9z"/>
	<path class="st0" d="M40.5,7c0-1,0-1.7-0.1-2.5h1.5L42,6h0.1c0.5-0.9,1.4-1.7,2.9-1.7c1.3,0,2.2,0.8,2.6,1.8h0
		c0.3-0.5,0.6-0.9,1-1.2c0.6-0.4,1.2-0.6,2-0.6c1.2,0,3,0.8,3,4v5.4H52V8.5c0-1.8-0.6-2.8-2-2.8c-0.9,0-1.7,0.7-2,1.5
		C48,7.4,47.9,7.7,47.9,8v5.7h-1.6V8.2c0-1.5-0.6-2.5-1.9-2.5c-1,0-1.8,0.8-2.1,1.7c-0.1,0.2-0.1,0.5-0.1,0.8v5.5h-1.6V7z"/>
	<path class="st0" d="M57.3,9.4c0,2.3,1.5,3.2,3.2,3.2c1.2,0,1.9-0.2,2.5-0.5l0.3,1.2c-0.6,0.3-1.6,0.6-3.1,0.6
		c-2.8,0-4.5-1.9-4.5-4.6s1.6-5,4.3-5c3,0,3.8,2.6,3.8,4.3c0,0.3,0,0.6-0.1,0.8H57.3z M62.2,8.2c0-1.1-0.4-2.7-2.3-2.7
		c-1.7,0-2.4,1.6-2.6,2.7H62.2z"/>
	<path class="st0" d="M65.9,7c0-1,0-1.7-0.1-2.5h1.5L67.4,6h0c0.5-0.9,1.5-1.7,3-1.7c1.3,0,3.2,0.8,3.2,3.9v5.5h-1.7V8.4
		c0-1.5-0.6-2.7-2.1-2.7c-1.1,0-2,0.8-2.2,1.7c-0.1,0.2-0.1,0.5-0.1,0.8v5.5h-1.7V7z"/>
	<path class="st0" d="M78.5,1.9v2.6h2.4v1.3h-2.4v5c0,1.1,0.3,1.8,1.3,1.8c0.4,0,0.8-0.1,1-0.1l0.1,1.3c-0.3,0.1-0.8,0.2-1.5,0.2
		c-0.8,0-1.4-0.2-1.8-0.7c-0.5-0.5-0.6-1.3-0.6-2.4v-5h-1.4V4.5h1.4V2.3L78.5,1.9z"/>
	<path class="st0" d="M91.1,9c0,3.4-2.4,4.9-4.6,4.9c-2.5,0-4.4-1.8-4.4-4.7c0-3.1,2-4.9,4.6-4.9C89.3,4.3,91.1,6.2,91.1,9z
		 M83.8,9.1c0,2,1.2,3.5,2.8,3.5c1.6,0,2.8-1.5,2.8-3.6c0-1.6-0.8-3.5-2.8-3.5S83.8,7.4,83.8,9.1z"/>
	<path class="st0" d="M98.1,9.4c0,2.3,1.5,3.2,3.2,3.2c1.2,0,1.9-0.2,2.5-0.5l0.3,1.2c-0.6,0.3-1.6,0.6-3.1,0.6
		c-2.8,0-4.5-1.9-4.5-4.6s1.6-5,4.3-5c3,0,3.8,2.6,3.8,4.3c0,0.3,0,0.6-0.1,0.8H98.1z M103,8.2c0-1.1-0.4-2.7-2.3-2.7
		c-1.7,0-2.4,1.6-2.6,2.7H103z"/>
	<path class="st0" d="M106.7,7c0-1,0-1.7-0.1-2.5h1.5l0.1,1.5h0c0.5-0.9,1.5-1.7,3-1.7c1.3,0,3.2,0.8,3.2,3.9v5.5h-1.7V8.4
		c0-1.5-0.6-2.7-2.1-2.7c-1.1,0-2,0.8-2.2,1.7c-0.1,0.2-0.1,0.5-0.1,0.8v5.5h-1.7V7z"/>
	<path class="st0" d="M121.3,0.2h1.7v13.5h-1.7V0.2z"/>
	<path class="st0" d="M130.9,13.7l-0.1-1.2h-0.1c-0.5,0.7-1.5,1.4-2.8,1.4c-1.9,0-2.8-1.3-2.8-2.6c0-2.2,2-3.4,5.5-3.4V7.7
		c0-0.8-0.2-2.1-2.1-2.1c-0.9,0-1.7,0.3-2.4,0.7l-0.4-1.1c0.8-0.5,1.9-0.8,3-0.8c2.8,0,3.5,1.9,3.5,3.8v3.4c0,0.8,0,1.6,0.2,2.2
		H130.9z M130.6,9c-1.8,0-3.9,0.3-3.9,2.1c0,1.1,0.7,1.6,1.6,1.6c1.2,0,2-0.8,2.2-1.5c0.1-0.2,0.1-0.4,0.1-0.5V9z"/>
	<path class="st0" d="M139,7.5c0-1.2,0-2.1-0.1-3h1.5l0.1,1.6h0c0.7-1.1,1.8-1.8,3.3-1.8c2.2,0,3.9,1.9,3.9,4.7c0,3.3-2,4.9-4.2,4.9
		c-1.2,0-2.3-0.5-2.8-1.4h0v5H139V7.5z M140.6,10c0,0.2,0,0.5,0.1,0.7c0.3,1.2,1.3,2,2.5,2c1.8,0,2.8-1.4,2.8-3.6
		c0-1.8-1-3.4-2.7-3.4c-1.1,0-2.2,0.8-2.5,2.1c-0.1,0.2-0.1,0.5-0.1,0.7V10z"/>
	<path class="st0" d="M150.7,9.4c0,2.3,1.5,3.2,3.2,3.2c1.2,0,1.9-0.2,2.5-0.5l0.3,1.2c-0.6,0.3-1.6,0.6-3.1,0.6
		c-2.8,0-4.5-1.9-4.5-4.6s1.6-5,4.3-5c3,0,3.8,2.6,3.8,4.3c0,0.3,0,0.6-0.1,0.8H150.7z M155.6,8.2c0-1.1-0.4-2.7-2.3-2.7
		c-1.7,0-2.4,1.6-2.6,2.7H155.6z"/>
	<path class="st0" d="M159.3,7.4c0-1.1,0-2-0.1-2.9h1.5l0.1,1.8h0.1c0.4-1.2,1.4-2,2.5-2c0.2,0,0.3,0,0.5,0.1v1.6
		c-0.2,0-0.3-0.1-0.6-0.1c-1.2,0-2,0.9-2.2,2.1c0,0.2-0.1,0.5-0.1,0.8v4.9h-1.7V7.4z"/>
	<path class="st0" d="M165.7,13.7V5.8h-1.3V4.5h1.3V4.1c0-1.3,0.3-2.5,1.1-3.2c0.6-0.6,1.5-0.9,2.2-0.9c0.6,0,1.1,0.1,1.4,0.3
		l-0.2,1.3c-0.2-0.1-0.6-0.2-1.1-0.2c-1.4,0-1.8,1.3-1.8,2.7v0.5h2.2v1.3h-2.2v7.9H165.7z"/>
	<path class="st0" d="M178.7,11.2c0,1,0,1.8,0.1,2.5h-1.5l-0.1-1.5h0c-0.4,0.7-1.4,1.7-3,1.7c-1.4,0-3.2-0.8-3.2-4V4.5h1.7v5.1
		c0,1.7,0.5,2.9,2.1,2.9c1.1,0,1.9-0.8,2.2-1.5c0.1-0.2,0.2-0.6,0.2-0.9V4.5h1.7V11.2z"/>
	<path class="st0" d="M181.3,12c0.5,0.3,1.4,0.7,2.2,0.7c1.2,0,1.8-0.6,1.8-1.4c0-0.8-0.5-1.2-1.7-1.7c-1.7-0.6-2.4-1.5-2.4-2.6
		c0-1.5,1.2-2.7,3.2-2.7c0.9,0,1.7,0.3,2.3,0.6l-0.4,1.2c-0.4-0.2-1-0.5-1.9-0.5c-1,0-1.5,0.6-1.5,1.3c0,0.8,0.6,1.1,1.7,1.6
		c1.6,0.6,2.4,1.4,2.4,2.8c0,1.6-1.3,2.8-3.4,2.8c-1,0-1.9-0.2-2.6-0.6L181.3,12z"/>
	<path class="st0" d="M190.9,1.9c0,0.6-0.4,1-1.1,1c-0.6,0-1-0.5-1-1c0-0.6,0.4-1,1-1C190.5,0.9,190.9,1.3,190.9,1.9z M189,13.7V4.5
		h1.7v9.2H189z"/>
	<path class="st0" d="M201.8,9c0,3.4-2.4,4.9-4.6,4.9c-2.5,0-4.4-1.8-4.4-4.7c0-3.1,2-4.9,4.6-4.9C200,4.3,201.8,6.2,201.8,9z
		 M194.5,9.1c0,2,1.2,3.5,2.8,3.5c1.6,0,2.8-1.5,2.8-3.6c0-1.6-0.8-3.5-2.8-3.5S194.5,7.4,194.5,9.1z M199.8,0.5l-2.3,2.7h-1.2
		l1.7-2.7H199.8z"/>
	<path class="st0" d="M203.9,7c0-1,0-1.7-0.1-2.5h1.5l0.1,1.5h0c0.5-0.9,1.5-1.7,3-1.7c1.3,0,3.2,0.8,3.2,3.9v5.5h-1.7V8.4
		c0-1.5-0.6-2.7-2.1-2.7c-1.1,0-2,0.8-2.2,1.7c-0.1,0.2-0.1,0.5-0.1,0.8v5.5h-1.7V7z"/>
	<path class="st0" d="M219.1,4.5l2,5.4c0.2,0.6,0.4,1.3,0.6,1.9h0c0.2-0.6,0.4-1.3,0.6-1.9l1.8-5.4h1.8l-2.5,6.6
		c-1.2,3.2-2,4.8-3.2,5.8c-0.8,0.7-1.6,1-2.1,1.1l-0.4-1.4c0.4-0.1,1-0.4,1.5-0.8c0.5-0.4,1-1,1.4-1.9c0.1-0.2,0.1-0.3,0.1-0.4
		s0-0.2-0.1-0.4l-3.4-8.5H219.1z"/>
</g>
<g>
	<path class="st0" d="M1.2,27.2c0-1,0-1.7-0.1-2.5h1.5l0.1,1.5h0.1c0.5-0.9,1.4-1.7,2.9-1.7c1.3,0,2.2,0.8,2.6,1.8h0
		c0.3-0.5,0.6-0.9,1-1.2c0.6-0.4,1.2-0.6,2-0.6c1.2,0,3,0.8,3,4v5.4h-1.6v-5.2c0-1.8-0.6-2.8-2-2.8c-0.9,0-1.7,0.7-2,1.5
		c-0.1,0.2-0.1,0.5-0.1,0.8v5.7H7v-5.5c0-1.5-0.6-2.5-1.9-2.5c-1,0-1.8,0.8-2.1,1.7c-0.1,0.2-0.1,0.5-0.1,0.8v5.5H1.2V27.2z"/>
	<path class="st0" d="M18.9,22.1c0,0.6-0.4,1-1.1,1c-0.6,0-1-0.5-1-1c0-0.6,0.4-1,1-1C18.5,21.1,18.9,21.5,18.9,22.1z M17.1,33.9
		v-9.2h1.7v9.2H17.1z"/>
	<path class="st0" d="M28.1,33.5c-0.4,0.2-1.4,0.5-2.6,0.5c-2.8,0-4.6-1.9-4.6-4.7c0-2.8,1.9-4.9,4.9-4.9c1,0,1.9,0.2,2.3,0.5
		l-0.4,1.3c-0.4-0.2-1-0.4-1.9-0.4c-2.1,0-3.2,1.6-3.2,3.5c0,2.1,1.4,3.4,3.2,3.4c1,0,1.6-0.2,2.1-0.5L28.1,33.5z"/>
	<path class="st0" d="M30,27.6c0-1.1,0-2-0.1-2.9h1.5l0.1,1.8h0.1c0.4-1.2,1.4-2,2.5-2c0.2,0,0.3,0,0.5,0.1v1.6
		c-0.2,0-0.3-0.1-0.6-0.1c-1.2,0-2,0.9-2.2,2.1c0,0.2-0.1,0.5-0.1,0.8v4.9H30V27.6z"/>
	<path class="st0" d="M44.6,29.2c0,3.4-2.4,4.9-4.6,4.9c-2.5,0-4.4-1.8-4.4-4.7c0-3.1,2-4.9,4.6-4.9C42.8,24.5,44.6,26.4,44.6,29.2z
		 M37.3,29.3c0,2,1.2,3.5,2.8,3.5c1.6,0,2.8-1.5,2.8-3.6c0-1.6-0.8-3.5-2.8-3.5S37.3,27.6,37.3,29.3z"/>
	<path class="st0" d="M53.2,33.5c-0.4,0.2-1.4,0.5-2.6,0.5c-2.8,0-4.6-1.9-4.6-4.7c0-2.8,1.9-4.9,4.9-4.9c1,0,1.9,0.2,2.3,0.5
		l-0.4,1.3c-0.4-0.2-1-0.4-1.9-0.4c-2.1,0-3.2,1.6-3.2,3.5c0,2.1,1.4,3.4,3.2,3.4c1,0,1.6-0.2,2.1-0.5L53.2,33.5z"/>
	<path class="st0" d="M57,22.1c0,0.6-0.4,1-1.1,1c-0.6,0-1-0.5-1-1c0-0.6,0.4-1,1-1C56.6,21.1,57,21.5,57,22.1z M55.2,33.9v-9.2h1.7
		v9.2H55.2z"/>
	<path class="st0" d="M59.6,27.6c0-1.1,0-2-0.1-2.9H61l0.1,1.8h0.1c0.4-1.2,1.4-2,2.5-2c0.2,0,0.3,0,0.5,0.1v1.6
		c-0.2,0-0.3-0.1-0.6-0.1c-1.2,0-2,0.9-2.2,2.1c0,0.2-0.1,0.5-0.1,0.8v4.9h-1.7V27.6z"/>
	<path class="st0" d="M72.4,33.5c-0.4,0.2-1.4,0.5-2.6,0.5c-2.8,0-4.6-1.9-4.6-4.7c0-2.8,1.9-4.9,4.9-4.9c1,0,1.9,0.2,2.3,0.5
		L72,26.3c-0.4-0.2-1-0.4-1.9-0.4c-2.1,0-3.2,1.6-3.2,3.5c0,2.1,1.4,3.4,3.2,3.4c1,0,1.6-0.2,2.1-0.5L72.4,33.5z"/>
	<path class="st0" d="M82,31.4c0,1,0,1.8,0.1,2.5h-1.5l-0.1-1.5h0c-0.4,0.7-1.4,1.7-3,1.7c-1.4,0-3.2-0.8-3.2-4v-5.4H76v5.1
		c0,1.7,0.5,2.9,2.1,2.9c1.1,0,1.9-0.8,2.2-1.5c0.1-0.2,0.2-0.6,0.2-0.9v-5.6H82V31.4z"/>
	<path class="st0" d="M84.8,20.4h1.7v13.5h-1.7V20.4z"/>
	<path class="st0" d="M94.4,33.9l-0.1-1.2h-0.1c-0.5,0.7-1.5,1.4-2.8,1.4c-1.9,0-2.8-1.3-2.8-2.6c0-2.2,2-3.4,5.5-3.4v-0.2
		c0-0.8-0.2-2.1-2.1-2.1c-0.9,0-1.7,0.3-2.4,0.7l-0.4-1.1c0.8-0.5,1.9-0.8,3-0.8c2.8,0,3.5,1.9,3.5,3.8v3.4c0,0.8,0,1.6,0.2,2.2
		H94.4z M94.1,29.2c-1.8,0-3.9,0.3-3.9,2.1c0,1.1,0.7,1.6,1.6,1.6c1.2,0,2-0.8,2.2-1.5c0.1-0.2,0.1-0.4,0.1-0.5V29.2z"/>
	<path class="st0" d="M105,33.5c-0.4,0.2-1.4,0.5-2.6,0.5c-2.8,0-4.6-1.9-4.6-4.7c0-2.8,1.9-4.9,4.9-4.9c1,0,1.9,0.2,2.3,0.5
		l-0.4,1.3c-0.4-0.2-1-0.4-1.9-0.4c-2.1,0-3.2,1.6-3.2,3.5c0,2.1,1.4,3.4,3.2,3.4c1,0,1.6-0.2,2.1-0.5L105,33.5z"/>
	<path class="st0" d="M108.8,22.1c0,0.6-0.4,1-1.1,1c-0.6,0-1-0.5-1-1c0-0.6,0.4-1,1-1C108.4,21.1,108.8,21.5,108.8,22.1z M107,33.9
		v-9.2h1.7v9.2H107z"/>
	<path class="st0" d="M119.7,29.2c0,3.4-2.4,4.9-4.6,4.9c-2.5,0-4.4-1.8-4.4-4.7c0-3.1,2-4.9,4.6-4.9
		C118,24.5,119.7,26.4,119.7,29.2z M112.4,29.3c0,2,1.2,3.5,2.8,3.5c1.6,0,2.8-1.5,2.8-3.6c0-1.6-0.8-3.5-2.8-3.5
		S112.4,27.6,112.4,29.3z M117.7,20.7l-2.3,2.7h-1.2l1.7-2.7H117.7z"/>
	<path class="st0" d="M121.8,27.2c0-1,0-1.7-0.1-2.5h1.5l0.1,1.5h0c0.5-0.9,1.5-1.7,3-1.7c1.3,0,3.2,0.8,3.2,3.9v5.5H128v-5.3
		c0-1.5-0.6-2.7-2.1-2.7c-1.1,0-2,0.8-2.2,1.7c-0.1,0.2-0.1,0.5-0.1,0.8v5.5h-1.7V27.2z"/>
	<path class="st0" d="M131,34.6l5.3-13.8h1.3l-5.3,13.8H131z"/>
	<path class="st0" d="M138.8,21.2c0.9-0.2,2.1-0.3,3.9-0.3c1.8,0,3.1,0.3,3.9,1c0.8,0.6,1.4,1.7,1.4,3c0,1.3-0.4,2.3-1.2,3
		c-1,0.9-2.5,1.3-4.2,1.3c-0.4,0-0.7,0-1-0.1v4.6h-2.9V21.2z M141.6,27.1c0.2,0.1,0.6,0.1,1,0.1c1.5,0,2.5-0.8,2.5-2.1
		c0-1.2-0.8-1.9-2.3-1.9c-0.6,0-1,0.1-1.2,0.1V27.1z"/>
	<path class="st0" d="M149.7,27.6c0-1.4,0-2.3-0.1-3.1h2.5l0.1,1.7h0.1c0.5-1.3,1.6-1.9,2.5-1.9c0.3,0,0.4,0,0.6,0v2.7
		c-0.2,0-0.5-0.1-0.8-0.1c-1.1,0-1.8,0.6-2,1.5c0,0.2-0.1,0.4-0.1,0.6v4.7h-2.9V27.6z"/>
	<path class="st0" d="M166.1,29.1c0,3.4-2.4,5-4.9,5c-2.7,0-4.8-1.8-4.8-4.8c0-3,2-4.9,5-4.9C164.2,24.4,166.1,26.3,166.1,29.1z
		 M159.4,29.2c0,1.6,0.7,2.8,1.9,2.8c1.1,0,1.8-1.1,1.8-2.8c0-1.4-0.5-2.8-1.8-2.8C159.9,26.4,159.4,27.9,159.4,29.2z"/>
	<path class="st0" d="M171.1,21.9v2.7h2.1v2.1h-2.1v3.4c0,1.1,0.3,1.6,1.1,1.6c0.4,0,0.6,0,0.9-0.1l0,2.2c-0.4,0.2-1.1,0.2-1.9,0.2
		c-0.9,0-1.7-0.3-2.2-0.8c-0.5-0.6-0.8-1.4-0.8-2.8v-3.8h-1.2v-2.1h1.2v-2L171.1,21.9z"/>
	<path class="st0" d="M177.1,30.2c0.1,1.2,1.3,1.8,2.6,1.8c1,0,1.8-0.1,2.6-0.4l0.4,2c-0.9,0.4-2.1,0.6-3.4,0.6c-3.2,0-5-1.8-5-4.7
		c0-2.4,1.5-5,4.7-5c3,0,4.1,2.3,4.1,4.6c0,0.5-0.1,0.9-0.1,1.1H177.1z M180.5,28.2c0-0.7-0.3-1.9-1.6-1.9c-1.2,0-1.7,1.1-1.8,1.9
		H180.5z"/>
	<path class="st0" d="M191.9,33.7c-0.5,0.2-1.5,0.4-2.6,0.4c-3,0-4.9-1.8-4.9-4.8c0-2.7,1.9-4.9,5.3-4.9c0.8,0,1.6,0.1,2.2,0.4
		l-0.5,2.1c-0.3-0.2-0.9-0.3-1.6-0.3c-1.5,0-2.5,1.1-2.5,2.6c0,1.7,1.1,2.6,2.5,2.6c0.7,0,1.2-0.1,1.7-0.3L191.9,33.7z"/>
	<path class="st0" d="M200.4,33.7c-0.5,0.2-1.5,0.4-2.6,0.4c-3,0-4.9-1.8-4.9-4.8c0-2.7,1.9-4.9,5.3-4.9c0.8,0,1.6,0.1,2.2,0.4
		l-0.5,2.1c-0.3-0.2-0.9-0.3-1.6-0.3c-1.5,0-2.5,1.1-2.5,2.6c0,1.7,1.1,2.6,2.5,2.6c0.7,0,1.2-0.1,1.7-0.3L200.4,33.7z"/>
	<path class="st0" d="M205,22c0,0.8-0.6,1.4-1.6,1.4c-0.9,0-1.5-0.6-1.5-1.4c0-0.8,0.6-1.5,1.5-1.5C204.4,20.5,205,21.2,205,22z
		 M202,33.9v-9.3h2.9v9.3H202z"/>
	<path class="st0" d="M216.4,29.1c0,3.4-2.4,5-4.9,5c-2.7,0-4.8-1.8-4.8-4.8c0-3,2-4.9,5-4.9C214.5,24.4,216.4,26.3,216.4,29.1z
		 M209.7,29.2c0,1.6,0.7,2.8,1.9,2.8c1.1,0,1.8-1.1,1.8-2.8c0-1.4-0.5-2.8-1.8-2.8C210.2,26.4,209.7,27.9,209.7,29.2z M214.6,20.5
		l-2.3,2.9h-2l1.6-2.9H214.6z"/>
	<path class="st0" d="M218.2,27.6c0-1.2,0-2.1-0.1-3h2.5l0.1,1.3h0.1c0.4-0.6,1.3-1.5,2.9-1.5c1.9,0,3.3,1.3,3.3,4v5.5h-2.9v-5.1
		c0-1.2-0.4-2-1.5-2c-0.8,0-1.3,0.6-1.5,1.1c-0.1,0.2-0.1,0.5-0.1,0.7v5.4h-2.9V27.6z"/>
</g>
<g>
	<path class="st0" d="M3.1,45l1.3,4.3c0.2,0.8,0.4,1.5,0.5,2.3H5c0.2-0.8,0.3-1.5,0.5-2.3L6.7,45h3l-3.5,9.3H3.4L0,45H3.1z"/>
	<path class="st0" d="M16.3,54.3l-0.2-0.9h-0.1c-0.6,0.7-1.6,1.1-2.7,1.1c-1.9,0-3-1.4-3-2.8c0-2.4,2.2-3.6,5.5-3.6V48
		c0-0.5-0.3-1.2-1.7-1.2c-1,0-2,0.3-2.6,0.7l-0.5-1.9c0.6-0.4,1.9-0.8,3.6-0.8c3.1,0,4.1,1.8,4.1,4v3.2c0,0.9,0,1.7,0.1,2.3H16.3z
		 M16,49.9c-1.5,0-2.7,0.3-2.7,1.5c0,0.7,0.5,1.1,1.1,1.1c0.7,0,1.3-0.5,1.5-1.1c0-0.2,0.1-0.3,0.1-0.5V49.9z"/>
	<path class="st0" d="M21.1,51.8c0.5,0.3,1.6,0.7,2.5,0.7c0.9,0,1.2-0.3,1.2-0.8s-0.3-0.7-1.4-1.1c-1.9-0.6-2.7-1.7-2.6-2.8
		c0-1.7,1.5-3,3.8-3c1.1,0,2.1,0.2,2.6,0.5l-0.5,2c-0.4-0.2-1.2-0.5-2-0.5c-0.7,0-1.1,0.3-1.1,0.8c0,0.4,0.4,0.7,1.5,1.1
		c1.8,0.6,2.5,1.5,2.5,2.9c0,1.7-1.4,3-4,3c-1.2,0-2.3-0.3-3-0.6L21.1,51.8z"/>
	<path class="st0" d="M36.3,54.1c-0.5,0.2-1.5,0.4-2.6,0.4c-3,0-4.9-1.8-4.9-4.8c0-2.7,1.9-4.9,5.3-4.9c0.8,0,1.6,0.1,2.2,0.4
		l-0.5,2.1C35.5,47.2,35,47,34.3,47c-1.5,0-2.5,1.1-2.5,2.6c0,1.7,1.1,2.6,2.5,2.6c0.7,0,1.2-0.1,1.7-0.3L36.3,54.1z"/>
	<path class="st0" d="M46.7,51.3c0,1.2,0,2.2,0.1,3h-2.5L44.1,53H44c-0.4,0.6-1.2,1.5-2.9,1.5c-1.9,0-3.3-1.2-3.3-4V45h2.9v5
		c0,1.3,0.4,2.2,1.4,2.2c0.8,0,1.3-0.6,1.4-1c0.1-0.2,0.1-0.4,0.1-0.6V45h2.9V51.3z"/>
	<path class="st0" d="M49,40.8h2.9v13.5H49V40.8z"/>
	<path class="st0" d="M59.5,54.3l-0.2-0.9h-0.1c-0.6,0.7-1.6,1.1-2.7,1.1c-1.9,0-3-1.4-3-2.8c0-2.4,2.2-3.6,5.5-3.6V48
		c0-0.5-0.3-1.2-1.7-1.2c-1,0-2,0.3-2.6,0.7l-0.5-1.9c0.6-0.4,1.9-0.8,3.6-0.8c3.1,0,4.1,1.8,4.1,4v3.2c0,0.9,0,1.7,0.1,2.3H59.5z
		 M59.1,49.9c-1.5,0-2.7,0.3-2.7,1.5c0,0.7,0.5,1.1,1.1,1.1c0.7,0,1.3-0.5,1.5-1.1c0-0.2,0.1-0.3,0.1-0.5V49.9z"/>
	<path class="st0" d="M64.2,48.1c0-1.4,0-2.3-0.1-3.1h2.5l0.1,1.7h0.1c0.5-1.3,1.6-1.9,2.5-1.9c0.3,0,0.4,0,0.6,0v2.7
		c-0.2,0-0.5-0.1-0.8-0.1c-1.1,0-1.8,0.6-2,1.5c0,0.2-0.1,0.4-0.1,0.6v4.7h-2.9V48.1z"/>
</g>
</svg>
