<!-- Generator: Adobe Illustrator 20.1.0, SVG Export Plug-In  -->
<svg version="1.1"
	 xmlns="http://www.w3.org/2000/svg" xmlns:xlink="http://www.w3.org/1999/xlink" xmlns:a="http://ns.adobe.com/AdobeSVGViewerExtensions/3.0/"
	 x="0px" y="0px" width="128.6px" height="21.9px" viewBox="0 0 128.6 21.9"
	 style="overflow:scroll;enable-background:new 0 0 128.6 21.9;" xml:space="preserve">
<style type="text/css">
	.st0{fill:#5B2B82;}
</style>
<defs>
</defs>
<g>
	<g>
		<path class="st0" d="M9.4,13.3c0,0.1,0,0.1,0.1,0.1c0.2,0.3,0.3,0.6,0.4,0.9c0,0,0,0.1,0,0.1c0,0,0,0.1,0,0.1c0,0,0,0,0,0
			c0,0,0,0,0,0c0,0.1,0,0.1,0,0.2c0,0.2,0,0.5,0,0.7c0,0.3-0.1,0.6-0.2,0.8c-0.2,0.5-0.4,0.8-0.8,1.2c-0.3,0.2-0.5,0.4-0.9,0.6
			c-0.3,0.1-0.5,0.2-0.8,0.3c-0.3,0.1-0.6,0.1-0.8,0c-0.3,0-0.6-0.1-0.9-0.2c-0.5-0.2-0.9-0.5-1.3-0.9C4,17,3.7,16.6,3.6,16.1
			c-0.1-0.5-0.2-1-0.1-1.5c0.1-0.3,0.2-0.6,0.3-0.9c0-0.1,0.1-0.2,0.1-0.3c0,0,0,0,0,0c0,0,0,0,0-0.1c0,0,0,0,0,0
			c0.1,0,0.1-0.1,0.1-0.1c0-0.1,0.1-0.1,0.2-0.2c0.1-0.1,0.1-0.1,0.2-0.2c0,0,0,0,0,0c0,0,0.1-0.1,0.1-0.1l0,0c0,0,0,0,0.1,0l0,0
			c0,0,0,0,0,0c0.2-0.2,0.4-0.3,0.6-0.4c0.2-0.1,0.4-0.1,0.5-0.2c0,0,0,0,0,0c0,0,0.1,0,0.1,0c0.2,0,0.4-0.1,0.6-0.1
			c0.3,0,0.5,0,0.8,0.1c0,0,0,0,0,0c0,0,0.1,0,0.2,0c0.4,0.1,0.8,0.3,1.2,0.6C9,12.8,9.2,13,9.4,13.3C9.3,13.3,9.3,13.3,9.4,13.3
			L9.4,13.3z M6.7,17.4c1.2,0,2.2-1,2.2-2.2c0-1.2-1-2.2-2.2-2.2c-1.2,0-2.2,1-2.2,2.2C4.5,16.4,5.5,17.4,6.7,17.4z"/>
		<path class="st0" d="M10.5,14.8c0.1-0.1,0.3-0.2,0.4-0.2c0.6,0,1.3,0,1.9,0c0.2,0,0.4,0.1,0.5,0.2c0,0,0,0.1,0.1,0.1l0,0
			c0,0.1,0,0.1,0,0.2c0,0.1,0,0.2-0.1,0.2c-0.1,0.2-0.3,0.3-0.5,0.3c-0.6,0-1.3,0-1.9,0c-0.2,0-0.4-0.1-0.5-0.3
			C10.3,15.2,10.3,15,10.5,14.8C10.5,14.8,10.5,14.8,10.5,14.8z"/>
		<path class="st0" d="M0.3,14.7C0.3,14.7,0.3,14.7,0.3,14.7C0.3,14.7,0.3,14.7,0.3,14.7C0.3,14.7,0.4,14.7,0.3,14.7
			c0.2,0,0.3,0,0.4,0c0.6,0,1.2,0,1.8,0c0.2,0,0.4,0.1,0.5,0.3c0.1,0.3-0.1,0.7-0.5,0.7c-0.7,0-1.4,0-2,0c-0.4,0-0.7-0.4-0.4-0.8
			c0,0,0,0,0,0l0,0C0.2,14.8,0.2,14.7,0.3,14.7z"/>
		<path class="st0" d="M11.1,20c-0.2,0-0.4-0.1-0.5-0.2c-0.1-0.2-0.3-0.3-0.4-0.4c-0.3-0.3-0.6-0.6-0.9-0.9
			c-0.1-0.1-0.2-0.3-0.1-0.5c0.1-0.2,0.2-0.3,0.5-0.4c0.2,0,0.3,0,0.4,0.2c0.3,0.3,0.6,0.6,0.9,0.9c0.2,0.2,0.4,0.3,0.5,0.5
			c0.1,0.1,0.1,0.2,0.1,0.4C11.6,19.8,11.4,20.1,11.1,20z"/>
		<path class="st0" d="M6.2,20.3c0-0.3,0-0.7,0-1c0-0.4,0.3-0.6,0.7-0.5c0.2,0.1,0.3,0.2,0.3,0.5c0,0.5,0,0.9,0,1.4
			c0,0.2,0,0.4,0,0.6c0,0.3-0.3,0.6-0.5,0.5c-0.2,0-0.5-0.2-0.5-0.5C6.2,21,6.2,20.7,6.2,20.3L6.2,20.3z"/>
		<path class="st0" d="M2.3,20c-0.4,0-0.6-0.4-0.5-0.7c0-0.1,0.1-0.1,0.1-0.2c0.4-0.4,0.9-0.9,1.3-1.3c0.1-0.1,0.2-0.2,0.3-0.2
			c0.3,0,0.4,0.1,0.6,0.2c0.1,0.2,0.1,0.4-0.1,0.6c-0.2,0.2-0.4,0.4-0.6,0.6c-0.1,0.1-0.2,0.3-0.4,0.4c-0.2,0.2-0.3,0.3-0.5,0.5
			C2.6,20,2.5,20,2.3,20z"/>
		<path class="st0" d="M9.9,12.7c-0.2,0.1-0.3,0.1-0.5,0c-0.3-0.1-0.4-0.4-0.3-0.7c0.1-0.1,0.1-0.2,0.2-0.3c0.1-0.1,0.1-0.2,0.2-0.2
			c0.3-0.2,0.5-0.5,0.7-0.7c0.1-0.1,0.2-0.2,0.3-0.3c0.2-0.2,0.5-0.2,0.7-0.1c0.2,0.1,0.3,0.4,0.2,0.6c-0.1,0.1-0.2,0.2-0.3,0.4
			c-0.4,0.4-0.8,0.8-1.2,1.2c0,0,0,0-0.1,0.1C10,12.6,9.9,12.6,9.9,12.7z"/>
		<path class="st0" d="M6.2,8.7c0.1-0.2,0.3-0.3,0.5-0.3c0.2,0,0.3,0.1,0.4,0.2c0,0,0,0,0,0.1c0,0.1,0,0.2,0,0.3c0,0.6,0,1.2,0,1.8
			c0,0.1,0,0.2,0,0.3c-0.1,0.1-0.2,0.3-0.3,0.3c-0.1,0-0.2,0-0.4,0c-0.1,0-0.1-0.1-0.2-0.1c-0.1-0.1-0.1-0.2-0.2-0.3
			c0,0,0-0.1,0-0.1c0,0,0-0.1,0-0.1c0-0.1,0-0.2,0-0.2c0,0,0,0,0,0c0-0.2,0-0.4,0-0.5c0,0,0,0,0,0c0-0.1,0-0.1,0-0.2c0,0,0,0,0,0
			c0,0,0,0,0,0c0,0,0,0,0,0c0,0,0-0.1,0-0.1C6.2,9.4,6.2,9.1,6.2,8.7z"/>
		<path class="st0" d="M3.8,12.7C3.8,12.7,3.8,12.7,3.8,12.7c-0.1,0-0.2,0-0.2,0l0,0c-0.1,0-0.1-0.1-0.2-0.1l0,0c0,0,0,0-0.1,0
			c0,0-0.1-0.1-0.1-0.1C2.8,12,2.4,11.6,2,11.1c-0.2-0.2-0.2-0.5,0-0.7c0.2-0.2,0.5-0.2,0.7-0.1c0.1,0.1,0.2,0.2,0.4,0.3
			c0.2,0.2,0.3,0.3,0.5,0.5c0,0,0,0,0.1,0c0,0,0,0,0,0.1c0.1,0.1,0.2,0.2,0.3,0.3c0.1,0.1,0.2,0.2,0.3,0.3l0,0c0,0,0,0.1,0.1,0.1
			c0.1,0.1,0.1,0.2,0.1,0.4C4.2,12.5,4.1,12.7,3.8,12.7z"/>
		<path class="st0" d="M6.6,13.2c0.2,0,0.3,0.1,0.3,0.2c0,0.1-0.1,0.2-0.2,0.2c-0.1,0-0.3,0-0.4,0.1c-0.2,0-0.4,0.1-0.5,0.2
			c-0.2,0.2-0.4,0.4-0.5,0.7c-0.1,0.2-0.1,0.3-0.1,0.5c0,0.1-0.1,0.2-0.2,0.2c-0.1,0-0.1-0.1-0.1-0.2c0-0.2,0-0.5,0.1-0.7
			c0.2-0.4,0.4-0.7,0.7-0.9C6,13.3,6.3,13.2,6.6,13.2z"/>
	</g>
	<g>
		<g>
			<path class="st0" d="M21.7,16.3c0.2-0.7,0.4-1.3,1-1.8c0.3-0.2,0.7-0.3,1-0.5c0.1-0.1,0.2-0.1,0.3-0.2c0.8-1.7,2.7-2.2,4.2-1
				c0.2,0.2,0.5,0,0.7-0.3c0.4-0.9,1-1.5,2-1.8c1.2-0.3,2.5,0.1,3.2,1.1c0.8,1,0.8,2.3,0.1,3.4c-0.1,0.2-0.2,0.3,0,0.5
				c1,1.4,0.1,3.4-1.7,3.5c-0.2,0-0.3,0.1-0.4,0.2c-0.8,1.1-2.4,1.4-3.5,0.6c-0.2-0.1-0.3-0.1-0.5,0c-1,0.4-1.9,0.2-2.8-0.5
				c-0.1-0.1-0.3-0.2-0.4-0.1c-1.5,0.2-2.8-0.7-3.1-2.2c0,0,0-0.1-0.1-0.1C21.7,16.8,21.7,16.5,21.7,16.3z M28.3,14
				c-1.6-1.7-2.9-1.4-3.7,0.7c0,0-0.1,0-0.2,0c-0.8,0-1.4,0.4-1.7,1.2c-0.3,0.7-0.2,1.4,0.4,2c0.6,0.6,1.3,0.8,2,0.5
				c0.2-0.1,0.3,0,0.4,0.2c0.5,0.7,1.2,0.9,2,0.7c0.3-0.1,0.5-0.2,0.8-0.4c0,0,0.1,0.1,0.2,0.1c1.1,1,2.4,0.7,3.1-0.5
				c0.1-0.2,0.3-0.2,0.5-0.2c0.8,0.1,1.5-0.4,1.6-1.1c0.1-0.8-0.4-1.6-1.3-1.6c-0.3,0-0.3-0.1-0.4-0.4c-0.1-1-1-1.8-2-1.9
				C29.4,13.2,28.8,13.5,28.3,14z M33.4,14.9c0.5-0.7,0.6-1.4,0.3-2.2c-0.4-0.8-1.1-1.3-2-1.3c-0.7,0-1.5,0.5-1.7,1
				c0.1,0,0.2,0,0.3,0c1.3,0.1,2.1,0.8,2.6,1.9C32.9,14.7,33,14.8,33.4,14.9z"/>
		</g>
		<path class="st0" d="M34.9,12.8c0.1-0.1,0.2-0.1,0.3-0.1c0.5,0,1,0,1.4,0c0.1,0,0.3,0,0.4,0.2c0,0,0,0.1,0.1,0.1l0,0
			c0,0,0,0.1,0,0.1c0,0.1,0,0.1,0,0.2c-0.1,0.1-0.2,0.2-0.4,0.2c-0.5,0-1,0-1.4,0c-0.2,0-0.3-0.1-0.4-0.2
			C34.7,13.1,34.8,13,34.9,12.8C34.9,12.9,34.9,12.9,34.9,12.8z"/>
		<path class="st0" d="M36,16.8c-0.2,0-0.3-0.1-0.4-0.2c-0.1-0.1-0.2-0.2-0.3-0.3c-0.2-0.2-0.5-0.5-0.7-0.7
			c-0.1-0.1-0.1-0.2-0.1-0.4c0.1-0.2,0.2-0.2,0.3-0.3c0.1,0,0.2,0,0.3,0.1c0.2,0.2,0.4,0.4,0.7,0.7c0.1,0.1,0.3,0.3,0.4,0.4
			c0.1,0.1,0.1,0.2,0.1,0.3C36.4,16.6,36.2,16.8,36,16.8z"/>
		<path class="st0" d="M34.5,11.3c-0.1,0-0.2,0.1-0.3,0c-0.2-0.1-0.3-0.3-0.2-0.5c0-0.1,0.1-0.2,0.2-0.2c0.1,0,0.1-0.1,0.2-0.2
			c0.2-0.2,0.4-0.4,0.5-0.6C34.9,9.7,35,9.7,35,9.6c0.1-0.1,0.3-0.1,0.5-0.1c0.2,0.1,0.2,0.3,0.1,0.5c0,0.1-0.1,0.2-0.2,0.3
			c-0.3,0.3-0.6,0.6-0.9,0.9C34.6,11.2,34.5,11.2,34.5,11.3C34.5,11.2,34.5,11.2,34.5,11.3z"/>
		<path class="st0" d="M31.7,8.3c0.1-0.1,0.2-0.2,0.3-0.2c0.1,0,0.2,0.1,0.3,0.2c0,0,0,0,0,0c0,0.1,0,0.1,0,0.2c0,0.5,0,0.9,0,1.4
			c0,0.1,0,0.1,0,0.2c-0.1,0.1-0.1,0.2-0.2,0.3c-0.1,0-0.2,0-0.3,0c-0.1,0-0.1,0-0.1-0.1c0-0.1-0.1-0.1-0.1-0.2c0,0,0,0,0-0.1
			c0,0,0-0.1,0-0.1c0-0.1,0-0.1,0-0.2c0,0,0,0,0,0c0-0.1,0-0.3,0-0.4c0,0,0,0,0,0c0-0.1,0-0.1,0-0.2c0,0,0,0,0,0c0,0,0,0,0,0
			c0,0,0,0,0,0c0,0,0-0.1,0-0.1C31.7,8.8,31.7,8.6,31.7,8.3z"/>
		<path class="st0" d="M29.4,11.1C29.4,11.1,29.4,11.1,29.4,11.1c-0.1,0-0.1,0-0.2,0l0,0c-0.1,0-0.1-0.1-0.1-0.1l0,0c0,0,0,0,0,0
			c0,0,0-0.1-0.1-0.1c-0.3-0.3-0.6-0.6-1-1c-0.1-0.1-0.1-0.4,0-0.5c0.1-0.1,0.3-0.2,0.5-0.1c0.1,0.1,0.2,0.2,0.3,0.3
			c0.1,0.1,0.2,0.2,0.3,0.3c0,0,0,0,0,0c0,0,0,0,0,0c0.1,0.1,0.1,0.2,0.2,0.2c0.1,0.1,0.1,0.2,0.2,0.2l0,0c0,0,0,0,0,0.1
			c0.1,0.1,0.1,0.2,0.1,0.3C29.7,11,29.6,11,29.4,11.1z"/>
	</g>
	<path class="st0" d="M48.5,10c0.1,0,0.3,0,0.4,0.1c0.7,0.1,1.4,0.4,2,0.7c0.2,0.1,0.4,0.3,0.6,0.4c-0.1,0.1-0.2,0.3-0.3,0.4
		c0,0-0.1,0-0.1,0c-0.2-0.1-0.5-0.1-0.7-0.2c-0.5-0.1-1,0-1.5,0.1c-0.9,0.3-1.6,0.8-2,1.6c-0.3,0.6-0.5,1.2-0.5,1.9
		c0,0.9,0.3,1.7,0.9,2.3c0.5,0.6,1.2,1,2,1.1c0.7,0.1,1.4,0,2-0.2c0.1,0,0.1,0,0.2,0c0.1,0.1,0.2,0.1,0.3,0.2
		c-0.3,0.3-0.6,0.6-1,0.8c-0.5,0.3-1,0.5-1.6,0.6c-0.7,0.1-1.3,0.2-2,0c-2-0.4-3.3-1.6-3.9-3.6c-0.7-2.4,0.5-4.9,2.8-5.9
		c0.5-0.2,1-0.4,1.6-0.4c0,0,0.1,0,0.1,0C48.1,10,48.3,10,48.5,10z M49.3,19.1c-1.9-0.2-3.4-1.6-3.6-3.6c0-0.3,0-0.6,0-0.9
		c0-0.3,0.1-0.6,0.2-0.9c0.1-0.3,0.2-0.6,0.4-0.8c0.2-0.3,0.4-0.5,0.6-0.7c0.2-0.2,0.5-0.4,0.7-0.6c0.3-0.2,0.5-0.3,0.8-0.4
		c0.3-0.1,0.6-0.2,0.9-0.2c-1.8-0.5-3.7,0.3-4.6,1.9c-1,1.6-0.8,3.6,0.4,5C46.2,19.2,48,19.5,49.3,19.1z"/>
</g>
<g>
	<g>
		<g>
			<path class="st0" d="M78.4,0.9v1.6h1.3v1.3h-1.3v2c0,0.7,0.2,1,0.7,1c0.2,0,0.4,0,0.5,0l0,1.3c-0.2,0.1-0.6,0.1-1.1,0.1
				c-0.6,0-1-0.2-1.3-0.5c-0.3-0.3-0.5-0.9-0.5-1.7V3.8H76V2.5h0.7V1.3L78.4,0.9z"/>
			<path class="st0" d="M84.4,8.2l-0.1-0.6h0c-0.4,0.5-0.9,0.7-1.6,0.7c-1.1,0-1.8-0.8-1.8-1.7c0-1.5,1.3-2.2,3.3-2.2V4.3
				c0-0.3-0.2-0.7-1-0.7c-0.6,0-1.2,0.2-1.6,0.4l-0.3-1.1c0.4-0.2,1.2-0.5,2.2-0.5c1.9,0,2.5,1.1,2.5,2.4v2c0,0.5,0,1.1,0.1,1.4
				H84.4z M84.2,5.5c-0.9,0-1.6,0.2-1.6,0.9c0,0.5,0.3,0.7,0.7,0.7c0.4,0,0.8-0.3,0.9-0.6c0-0.1,0-0.2,0-0.3V5.5z"/>
			<path class="st0" d="M87.8,8.2c0-0.4,0-1,0-1.7V0h1.8v3.2h0c0.3-0.5,0.9-0.8,1.7-0.8c1.3,0,2.3,1.1,2.3,2.8c0,2-1.3,3-2.6,3
				c-0.7,0-1.3-0.2-1.7-0.9h0l-0.1,0.8H87.8z M89.6,5.8c0,0.1,0,0.2,0,0.3c0.1,0.5,0.5,0.8,1,0.8c0.7,0,1.2-0.6,1.2-1.6
				c0-0.9-0.4-1.6-1.2-1.6c-0.5,0-0.9,0.4-1,0.9c0,0.1,0,0.2,0,0.3V5.8z"/>
			<path class="st0" d="M95.3,0H97v8.2h-1.8V0z"/>
			<path class="st0" d="M100.3,5.9c0.1,0.7,0.8,1.1,1.6,1.1c0.6,0,1.1-0.1,1.6-0.2l0.2,1.2c-0.6,0.2-1.3,0.3-2,0.3
				c-1.9,0-3-1.1-3-2.9c0-1.4,0.9-3,2.8-3c1.8,0,2.5,1.4,2.5,2.8c0,0.3,0,0.6-0.1,0.7H100.3z M102.4,4.7c0-0.4-0.2-1.1-1-1.1
				c-0.7,0-1,0.7-1.1,1.1H102.4z"/>
			<path class="st0" d="M107.5,0.9v1.6h1.3v1.3h-1.3v2c0,0.7,0.2,1,0.7,1c0.2,0,0.4,0,0.5,0l0,1.3c-0.2,0.1-0.6,0.1-1.1,0.1
				c-0.6,0-1-0.2-1.3-0.5c-0.3-0.3-0.5-0.9-0.5-1.7V3.8h-0.7V2.5h0.7V1.3L107.5,0.9z"/>
			<path class="st0" d="M113.5,8.2l-0.1-0.6h0c-0.4,0.5-0.9,0.7-1.6,0.7c-1.1,0-1.8-0.8-1.8-1.7c0-1.5,1.3-2.2,3.3-2.2V4.3
				c0-0.3-0.2-0.7-1-0.7c-0.6,0-1.2,0.2-1.6,0.4l-0.3-1.1c0.4-0.2,1.2-0.5,2.2-0.5c1.9,0,2.5,1.1,2.5,2.4v2c0,0.5,0,1.1,0.1,1.4
				H113.5z M113.3,5.5c-0.9,0-1.6,0.2-1.6,0.9c0,0.5,0.3,0.7,0.7,0.7c0.4,0,0.8-0.3,0.9-0.6c0-0.1,0-0.2,0-0.3V5.5z"/>
			<path class="st0" d="M79.9,18c-0.3,0.1-0.7,0.2-1.3,0.2c-1.5,0-2.5-0.9-2.5-2.4c0-1.4,0.9-2.5,2.7-2.5c0.4,0,0.8,0.1,1.1,0.2
				l-0.2,1.1c-0.2-0.1-0.4-0.1-0.8-0.1c-0.8,0-1.3,0.5-1.2,1.3c0,0.9,0.6,1.3,1.3,1.3c0.3,0,0.6-0.1,0.8-0.1L79.9,18z"/>
			<path class="st0" d="M83.3,18.1l-0.1-0.5h0c-0.3,0.4-0.8,0.6-1.3,0.6c-0.9,0-1.5-0.7-1.5-1.4c0-1.2,1.1-1.8,2.7-1.8v-0.1
				c0-0.2-0.1-0.6-0.8-0.6c-0.5,0-1,0.2-1.3,0.4l-0.3-0.9c0.3-0.2,1-0.4,1.8-0.4c1.6,0,2.1,0.9,2.1,2V17c0,0.4,0,0.9,0.1,1.1H83.3z
				 M83.1,15.9c-0.8,0-1.4,0.2-1.4,0.7c0,0.4,0.2,0.6,0.6,0.6c0.4,0,0.7-0.2,0.8-0.5c0-0.1,0-0.2,0-0.2V15.9z"/>
			<path class="st0" d="M90.2,11.3v5.4c0,0.5,0,1.1,0,1.4H89l-0.1-0.7h0c-0.3,0.5-0.9,0.8-1.5,0.8c-1.1,0-2-0.9-2-2.4
				c0-1.6,1-2.5,2.1-2.5c0.6,0,1,0.2,1.2,0.5h0v-2.5H90.2z M88.8,15.4c0-0.1,0-0.2,0-0.3c-0.1-0.4-0.4-0.7-0.8-0.7
				c-0.7,0-1,0.6-1,1.3c0,0.8,0.4,1.3,1,1.3c0.4,0,0.8-0.3,0.8-0.7c0-0.1,0-0.2,0-0.3V15.4z"/>
			<path class="st0" d="M94,18.1l-0.1-0.5h0c-0.3,0.4-0.8,0.6-1.3,0.6c-0.9,0-1.5-0.7-1.5-1.4c0-1.2,1.1-1.8,2.7-1.8v-0.1
				c0-0.2-0.1-0.6-0.8-0.6c-0.5,0-1,0.2-1.3,0.4l-0.3-0.9c0.3-0.2,1-0.4,1.8-0.4c1.6,0,2.1,0.9,2.1,2V17c0,0.4,0,0.9,0.1,1.1H94z
				 M93.9,15.9c-0.8,0-1.4,0.2-1.4,0.7c0,0.4,0.2,0.6,0.6,0.6c0.4,0,0.7-0.2,0.8-0.5c0-0.1,0-0.2,0-0.2V15.9z"/>
			<path class="st0" d="M98.1,16.5c0-0.7,0.4-1.3,1.1-1.6v0c-0.6-0.3-0.9-0.8-0.9-1.4c0-1,0.9-1.7,2.2-1.7c1.4,0,2.1,0.8,2.1,1.6
				c0,0.5-0.3,1.1-0.9,1.4v0c0.6,0.2,1.1,0.7,1.1,1.5c0,1.1-0.9,1.9-2.4,1.9C98.8,18.2,98.1,17.3,98.1,16.5z M101.3,16.4
				c0-0.5-0.4-0.9-1-1c-0.5,0.1-0.8,0.5-0.8,0.9c0,0.4,0.3,0.9,0.9,0.9C100.9,17.2,101.3,16.9,101.3,16.4z M99.6,13.5
				c0,0.4,0.4,0.7,0.9,0.8c0.3-0.1,0.6-0.4,0.6-0.8c0-0.4-0.2-0.8-0.8-0.8C99.9,12.8,99.6,13.1,99.6,13.5z"/>
			<path class="st0" d="M105.6,11.3h1.4V14h0c0.2-0.2,0.3-0.4,0.6-0.5c0.2-0.1,0.5-0.2,0.8-0.2c0.9,0,1.6,0.6,1.6,2v2.7h-1.4v-2.6
				c0-0.6-0.2-1-0.8-1c-0.4,0-0.6,0.2-0.7,0.5c0,0.1,0,0.2,0,0.3v2.8h-1.4V11.3z"/>
			<path class="st0" d="M115.8,15.7c0,1.7-1.2,2.5-2.5,2.5c-1.4,0-2.4-0.9-2.4-2.4c0-1.5,1-2.5,2.5-2.5
				C114.8,13.3,115.8,14.3,115.8,15.7z M112.4,15.8c0,0.8,0.3,1.4,1,1.4c0.6,0,0.9-0.6,0.9-1.4c0-0.7-0.3-1.4-0.9-1.4
				C112.6,14.4,112.4,15.1,112.4,15.8z"/>
			<path class="st0" d="M116.6,15c0-0.7,0-1.1,0-1.5h1.2l0,0.9h0c0.2-0.7,0.8-1,1.3-1c0.1,0,0.2,0,0.3,0v1.4c-0.1,0-0.2,0-0.4,0
				c-0.5,0-0.9,0.3-1,0.7c0,0.1,0,0.2,0,0.3v2.4h-1.4V15z"/>
			<path class="st0" d="M122.9,18.1l-0.1-0.5h0c-0.3,0.4-0.8,0.6-1.3,0.6c-0.9,0-1.5-0.7-1.5-1.4c0-1.2,1.1-1.8,2.7-1.8v-0.1
				c0-0.2-0.1-0.6-0.8-0.6c-0.5,0-1,0.2-1.3,0.4l-0.3-0.9c0.3-0.2,1-0.4,1.8-0.4c1.6,0,2.1,0.9,2.1,2V17c0,0.4,0,0.9,0.1,1.1H122.9z
				 M122.8,15.9c-0.8,0-1.4,0.2-1.4,0.7c0,0.4,0.2,0.6,0.6,0.6c0.4,0,0.7-0.2,0.8-0.5c0-0.1,0-0.2,0-0.2V15.9z"/>
			<path class="st0" d="M125.3,16.8c0.3,0.2,0.8,0.4,1.2,0.4c0.4,0,0.6-0.2,0.6-0.4s-0.1-0.4-0.7-0.5c-1-0.3-1.3-0.8-1.3-1.4
				c0-0.9,0.7-1.5,1.9-1.5c0.5,0,1,0.1,1.3,0.3l-0.3,1c-0.2-0.1-0.6-0.3-1-0.3c-0.4,0-0.6,0.1-0.6,0.4c0,0.2,0.2,0.3,0.8,0.5
				c0.9,0.3,1.3,0.8,1.3,1.4c0,0.9-0.7,1.5-2,1.5c-0.6,0-1.2-0.1-1.5-0.3L125.3,16.8z"/>
		</g>
	</g>
	<g>
		<g>
			<path class="st0" d="M68.3,4.4L68.3,4.4l-3.5,1.6l-0.7-3.1l4.8-2.2h3.5v17.9h-4.1V4.4z"/>
		</g>
	</g>
</g>
</svg>
