<!-- Generator: Adobe Illustrator 20.1.0, SVG Export Plug-In  -->
<svg version="1.1"
	 xmlns="http://www.w3.org/2000/svg" xmlns:xlink="http://www.w3.org/1999/xlink" xmlns:a="http://ns.adobe.com/AdobeSVGViewerExtensions/3.0/"
	 x="0px" y="0px" width="250.7px" height="14.9px" viewBox="0 0 250.7 14.9"
	 style="overflow:scroll;enable-background:new 0 0 250.7 14.9;" xml:space="preserve">
<style type="text/css">
	.st0{fill:#DA0962;}
</style>
<defs>
</defs>
<g>
	<g>
		<path class="st0" d="M10.7,14.3c-0.6,0.3-1.8,0.6-3.5,0.6C2.4,14.8,0,11.9,0,8c0-4.7,3.3-7.3,7.5-7.3c1.6,0,2.8,0.3,3.4,0.6
			l-0.6,2.5C9.6,3.5,8.7,3.3,7.6,3.3c-2.5,0-4.4,1.5-4.4,4.5c0,2.7,1.6,4.5,4.4,4.5c0.9,0,2-0.2,2.6-0.4L10.7,14.3z"/>
		<path class="st0" d="M22.4,9.6c0,3.6-2.6,5.3-5.2,5.3c-2.9,0-5.1-1.9-5.1-5.1s2.1-5.3,5.3-5.3C20.4,4.5,22.4,6.6,22.4,9.6z
			 M15.2,9.7c0,1.7,0.7,3,2,3c1.2,0,2-1.2,2-3c0-1.5-0.6-3-2-3C15.8,6.7,15.2,8.2,15.2,9.7z"/>
		<path class="st0" d="M24.3,7.9c0-1.2,0-2.3-0.1-3.2h2.7l0.1,1.4h0.1c0.4-0.6,1.4-1.6,3.1-1.6c2,0,3.6,1.3,3.6,4.3v5.9h-3.1V9.1
			c0-1.3-0.4-2.2-1.6-2.2c-0.9,0-1.4,0.6-1.6,1.2c-0.1,0.2-0.1,0.5-0.1,0.8v5.7h-3.1V7.9z"/>
		<path class="st0" d="M36.2,11.9c0.6,0.3,1.7,0.8,2.7,0.8c0.9,0,1.3-0.3,1.3-0.8s-0.3-0.8-1.5-1.1c-2.1-0.7-2.8-1.8-2.8-3
			c0-1.8,1.6-3.2,4-3.2c1.2,0,2.2,0.3,2.8,0.6l-0.5,2.1c-0.4-0.2-1.3-0.6-2.2-0.6c-0.8,0-1.2,0.3-1.2,0.8c0,0.5,0.4,0.7,1.6,1.1
			c1.9,0.6,2.7,1.6,2.7,3.1c0,1.8-1.5,3.2-4.3,3.2c-1.3,0-2.5-0.3-3.2-0.7L36.2,11.9z"/>
		<path class="st0" d="M47.4,10.7c0.1,1.3,1.4,1.9,2.8,1.9c1.1,0,1.9-0.1,2.7-0.4l0.4,2.1c-1,0.4-2.3,0.6-3.6,0.6
			c-3.4,0-5.3-2-5.3-5.1c0-2.5,1.6-5.3,5-5.3c3.2,0,4.4,2.5,4.4,5c0,0.5-0.1,1-0.1,1.2H47.4z M51.1,8.6c0-0.8-0.3-2-1.7-2
			c-1.3,0-1.8,1.2-1.9,2H51.1z"/>
		<path class="st0" d="M63.2,14.4c-0.5,0.2-1.6,0.4-2.8,0.4c-3.2,0-5.3-2-5.3-5.1c0-2.9,2-5.3,5.7-5.3c0.8,0,1.7,0.1,2.4,0.4
			l-0.5,2.3C62.4,7,61.9,6.9,61,6.9c-1.6,0-2.7,1.2-2.7,2.8c0,1.8,1.2,2.8,2.7,2.8c0.7,0,1.3-0.1,1.8-0.3L63.2,14.4z"/>
		<path class="st0" d="M74.3,11.5c0,1.3,0,2.4,0.1,3.2h-2.7l-0.1-1.4h-0.1c-0.4,0.6-1.3,1.6-3.1,1.6c-2,0-3.5-1.3-3.5-4.3V4.7H68
			v5.3c0,1.4,0.5,2.3,1.5,2.3c0.9,0,1.3-0.6,1.5-1.1c0.1-0.2,0.1-0.4,0.1-0.7V4.7h3.1V11.5z"/>
		<path class="st0" d="M79.2,10.7c0.1,1.3,1.4,1.9,2.8,1.9c1.1,0,1.9-0.1,2.7-0.4l0.4,2.1c-1,0.4-2.3,0.6-3.6,0.6
			c-3.4,0-5.3-2-5.3-5.1c0-2.5,1.6-5.3,5-5.3c3.2,0,4.4,2.5,4.4,5c0,0.5-0.1,1-0.1,1.2H79.2z M82.8,8.6c0-0.8-0.3-2-1.7-2
			c-1.3,0-1.8,1.2-1.9,2H82.8z"/>
		<path class="st0" d="M87.5,7.9c0-1.2,0-2.3-0.1-3.2h2.7l0.1,1.4h0.1c0.4-0.6,1.4-1.6,3.1-1.6c2,0,3.6,1.3,3.6,4.3v5.9h-3.1V9.1
			c0-1.3-0.4-2.2-1.6-2.2c-0.9,0-1.4,0.6-1.6,1.2c-0.1,0.2-0.1,0.5-0.1,0.8v5.7h-3.1V7.9z"/>
		<path class="st0" d="M106.9,14.4c-0.5,0.2-1.6,0.4-2.8,0.4c-3.2,0-5.3-2-5.3-5.1c0-2.9,2-5.3,5.7-5.3c0.8,0,1.7,0.1,2.4,0.4
			l-0.5,2.3c-0.4-0.2-0.9-0.3-1.7-0.3c-1.6,0-2.7,1.2-2.7,2.8c0,1.8,1.2,2.8,2.7,2.8c0.7,0,1.3-0.1,1.8-0.3L106.9,14.4z"/>
		<path class="st0" d="M111.8,2c0,0.9-0.7,1.5-1.7,1.5c-1,0-1.6-0.7-1.6-1.5c0-0.9,0.6-1.6,1.6-1.6S111.8,1.1,111.8,2z M108.6,14.6
			V4.7h3.1v9.9H108.6z"/>
		<path class="st0" d="M119.8,14.6l-0.2-1h-0.1c-0.7,0.8-1.7,1.2-2.8,1.2c-2,0-3.2-1.5-3.2-3c0-2.6,2.3-3.8,5.8-3.8V7.9
			c0-0.5-0.3-1.3-1.8-1.3c-1,0-2.1,0.3-2.7,0.8l-0.6-2c0.7-0.4,2.1-0.9,3.9-0.9c3.3,0,4.4,1.9,4.4,4.3v3.5c0,1,0,1.9,0.1,2.4H119.8z
			 M119.4,10c-1.6,0-2.9,0.4-2.9,1.6c0,0.8,0.5,1.2,1.2,1.2c0.8,0,1.4-0.5,1.6-1.1c0-0.2,0.1-0.3,0.1-0.5V10z"/>
		<path class="st0" d="M124.9,11.9c0.6,0.3,1.7,0.8,2.7,0.8c0.9,0,1.3-0.3,1.3-0.8s-0.3-0.8-1.5-1.1c-2.1-0.7-2.8-1.8-2.8-3
			c0-1.8,1.6-3.2,4-3.2c1.2,0,2.2,0.3,2.8,0.6l-0.5,2.1c-0.4-0.2-1.3-0.6-2.2-0.6c-0.8,0-1.2,0.3-1.2,0.8c0,0.5,0.4,0.7,1.6,1.1
			c1.9,0.6,2.7,1.6,2.7,3.1c0,1.8-1.5,3.2-4.3,3.2c-1.3,0-2.5-0.3-3.2-0.7L124.9,11.9z"/>
		<path class="st0" d="M140.2,10.7c0.1,1.3,1.4,1.9,2.8,1.9c1.1,0,1.9-0.1,2.7-0.4l0.4,2.1c-1,0.4-2.3,0.6-3.6,0.6
			c-3.4,0-5.3-2-5.3-5.1c0-2.5,1.6-5.3,5-5.3c3.2,0,4.4,2.5,4.4,5c0,0.5-0.1,1-0.1,1.2H140.2z M143.8,8.6c0-0.8-0.3-2-1.7-2
			c-1.3,0-1.8,1.2-1.9,2H143.8z"/>
		<path class="st0" d="M148.5,7.9c0-1.2,0-2.3-0.1-3.2h2.7l0.1,1.4h0.1c0.4-0.6,1.4-1.6,3.1-1.6c2,0,3.6,1.3,3.6,4.3v5.9h-3.1V9.1
			c0-1.3-0.4-2.2-1.6-2.2c-0.9,0-1.4,0.6-1.6,1.2c-0.1,0.2-0.1,0.5-0.1,0.8v5.7h-3.1V7.9z"/>
		<path class="st0" d="M164.5,0.2h3.1v14.4h-3.1V0.2z"/>
		<path class="st0" d="M175.8,14.6l-0.2-1h-0.1c-0.7,0.8-1.7,1.2-2.8,1.2c-2,0-3.2-1.5-3.2-3c0-2.6,2.3-3.8,5.8-3.8V7.9
			c0-0.5-0.3-1.3-1.8-1.3c-1,0-2.1,0.3-2.7,0.8l-0.6-2c0.7-0.4,2.1-0.9,3.9-0.9c3.3,0,4.4,1.9,4.4,4.3v3.5c0,1,0,1.9,0.1,2.4H175.8z
			 M175.4,10c-1.6,0-2.9,0.4-2.9,1.6c0,0.8,0.5,1.2,1.2,1.2c0.8,0,1.4-0.5,1.6-1.1c0-0.2,0.1-0.3,0.1-0.5V10z"/>
		<path class="st0" d="M187.3,10.7c0.1,1.3,1.4,1.9,2.8,1.9c1.1,0,1.9-0.1,2.7-0.4l0.4,2.1c-1,0.4-2.3,0.6-3.6,0.6
			c-3.4,0-5.3-2-5.3-5.1c0-2.5,1.6-5.3,5-5.3c3.2,0,4.4,2.5,4.4,5c0,0.5-0.1,1-0.1,1.2H187.3z M191,8.6c0-0.8-0.3-2-1.7-2
			c-1.3,0-1.8,1.2-1.9,2H191z"/>
		<path class="st0" d="M196,14.6V7h-1.3V4.7h1.3V4.3c0-2.7,2.1-4.3,5.2-4.3c1.1,0,2.3,0.2,2.9,0.6l-0.6,2.3
			c-0.5-0.3-1.3-0.5-2.3-0.5c-1.6,0-2.2,0.8-2.2,1.9v0.3h6v9.9h-3.1V7h-2.9v7.7H196z"/>
		<path class="st0" d="M215.1,14.4c-0.5,0.2-1.6,0.4-2.8,0.4c-3.2,0-5.3-2-5.3-5.1c0-2.9,2-5.3,5.7-5.3c0.8,0,1.7,0.1,2.4,0.4
			l-0.5,2.3c-0.4-0.2-0.9-0.3-1.7-0.3c-1.6,0-2.7,1.2-2.7,2.8c0,1.8,1.2,2.8,2.7,2.8c0.7,0,1.3-0.1,1.8-0.3L215.1,14.4z"/>
		<path class="st0" d="M222.4,14.6l-0.2-1h-0.1c-0.7,0.8-1.7,1.2-2.8,1.2c-2,0-3.2-1.5-3.2-3c0-2.6,2.3-3.8,5.8-3.8V7.9
			c0-0.5-0.3-1.3-1.8-1.3c-1,0-2.1,0.3-2.7,0.8l-0.6-2c0.7-0.4,2.1-0.9,3.9-0.9c3.3,0,4.4,1.9,4.4,4.3v3.5c0,1,0,1.9,0.1,2.4H222.4z
			 M222.1,10c-1.6,0-2.9,0.4-2.9,1.6c0,0.8,0.5,1.2,1.2,1.2c0.8,0,1.4-0.5,1.6-1.1c0-0.2,0.1-0.3,0.1-0.5V10z"/>
		<path class="st0" d="M235,14.4c-0.5,0.2-1.6,0.4-2.8,0.4c-3.2,0-5.3-2-5.3-5.1c0-2.9,2-5.3,5.7-5.3c0.8,0,1.7,0.1,2.4,0.4
			l-0.5,2.3c-0.4-0.2-0.9-0.3-1.7-0.3c-1.6,0-2.7,1.2-2.7,2.8c0,1.8,1.2,2.8,2.7,2.8c0.7,0,1.3-0.1,1.8-0.3L235,14.4z"/>
		<path class="st0" d="M239.9,2c0,0.9-0.7,1.5-1.7,1.5c-1,0-1.6-0.7-1.6-1.5c0-0.9,0.6-1.6,1.6-1.6S239.8,1.1,239.9,2z M236.7,14.6
			V4.7h3.1v9.9H236.7z"/>
		<path class="st0" d="M247.9,14.6l-0.2-1h-0.1c-0.7,0.8-1.7,1.2-2.8,1.2c-2,0-3.2-1.5-3.2-3c0-2.6,2.3-3.8,5.8-3.8V7.9
			c0-0.5-0.3-1.3-1.8-1.3c-1,0-2.1,0.3-2.7,0.8l-0.6-2c0.7-0.4,2.1-0.9,3.9-0.9c3.3,0,4.4,1.9,4.4,4.3v3.5c0,1,0,1.9,0.1,2.4H247.9z
			 M247.5,10c-1.6,0-2.9,0.4-2.9,1.6c0,0.8,0.5,1.2,1.2,1.2c0.8,0,1.4-0.5,1.6-1.1c0-0.2,0.1-0.3,0.1-0.5V10z"/>
	</g>
</g>
</svg>
