<!-- Generator: Adobe Illustrator 20.1.0, SVG Export Plug-In  -->
<svg version="1.1"
	 xmlns="http://www.w3.org/2000/svg" xmlns:xlink="http://www.w3.org/1999/xlink" xmlns:a="http://ns.adobe.com/AdobeSVGViewerExtensions/3.0/"
	 x="0px" y="0px" width="272.7px" height="28.2px" viewBox="0 0 272.7 28.2"
	 style="overflow:scroll;enable-background:new 0 0 272.7 28.2;" xml:space="preserve">
<style type="text/css">
	.st0{fill:#58595B;}
	.st1{fill:#DA0962;}
	.st2{fill:#D51D70;}
</style>
<defs>
</defs>
<g>
	<path class="st0" d="M18.8,6c-0.1-1.2-0.1-2.7-0.1-3.9h0c-0.3,1.1-0.7,2.4-1.1,3.6l-1.4,4.1h-1.3l-1.3-4c-0.4-1.2-0.7-2.5-0.9-3.6
		h0c0,1.2-0.1,2.7-0.2,4l-0.2,3.8h-1.6l0.6-9.4h2.2l1.2,3.8c0.3,1.1,0.6,2.2,0.9,3.2h0c0.2-1,0.6-2.2,0.9-3.3l1.3-3.7h2.2l0.5,9.4
		H19L18.8,6z"/>
	<path class="st0" d="M23.6,7c0,1.2,1,1.8,2.1,1.8c0.8,0,1.4-0.1,1.9-0.3l0.3,1.2c-0.6,0.2-1.4,0.4-2.4,0.4C23.3,10,22,8.7,22,6.6
		c0-1.9,1.1-3.6,3.3-3.6c2.2,0,2.9,1.8,2.9,3.3c0,0.3,0,0.6-0.1,0.7H23.6z M26.6,5.8c0-0.6-0.3-1.7-1.4-1.7c-1.1,0-1.5,1-1.6,1.7
		H26.6z"/>
	<path class="st0" d="M28.2,11.4c0.6,0,1-0.2,1.3-0.5c0.3-0.3,0.4-0.9,0.4-2.3V3.1h1.7v6c0,1.4-0.3,2.3-0.9,2.9
		c-0.6,0.6-1.5,0.8-2.4,0.8L28.2,11.4z M31.8,1.2c0,0.5-0.4,0.9-1,0.9c-0.6,0-0.9-0.4-0.9-0.9c0-0.5,0.4-0.9,1-0.9
		C31.4,0.3,31.8,0.7,31.8,1.2z"/>
	<path class="st0" d="M40,6.4c0,2.5-1.8,3.6-3.5,3.6c-1.9,0-3.4-1.3-3.4-3.5c0-2.2,1.5-3.6,3.5-3.6C38.7,2.9,40,4.4,40,6.4z
		 M34.9,6.5c0,1.3,0.6,2.3,1.7,2.3c1,0,1.7-1,1.7-2.3c0-1.1-0.5-2.3-1.6-2.3C35.4,4.2,34.9,5.4,34.9,6.5z"/>
	<path class="st0" d="M41.6,5.3c0-0.9,0-1.6-0.1-2.2H43l0.1,1.3h0.1c0.3-1,1.1-1.4,1.8-1.4c0.2,0,0.3,0,0.4,0v1.6
		c-0.1,0-0.3-0.1-0.5-0.1c-0.8,0-1.4,0.5-1.5,1.3c0,0.2-0.1,0.3-0.1,0.5v3.5h-1.7V5.3z"/>
	<path class="st0" d="M50.5,9.9l-0.1-0.8h0c-0.4,0.5-1.1,0.9-2,0.9c-1.4,0-2.1-1-2.1-2c0-1.7,1.5-2.6,4-2.6V5.3
		c0-0.4-0.2-1.2-1.4-1.2c-0.7,0-1.4,0.2-1.8,0.5l-0.3-1.1c0.5-0.3,1.4-0.6,2.4-0.6c2.2,0,2.8,1.4,2.8,2.8v2.4c0,0.6,0,1.2,0.1,1.6
		H50.5z M50.2,6.6c-1.2,0-2.4,0.2-2.4,1.3c0,0.7,0.4,1,1,1c0.7,0,1.2-0.4,1.3-0.9c0-0.1,0.1-0.3,0.1-0.4V6.6z"/>
	<path class="st0" d="M56.9,0h1.7v9.9h-1.7V0z"/>
	<path class="st0" d="M64.4,9.9l-0.1-0.8h0c-0.4,0.5-1.1,0.9-2,0.9c-1.4,0-2.1-1-2.1-2c0-1.7,1.5-2.6,4-2.6V5.3
		c0-0.4-0.2-1.2-1.4-1.2c-0.7,0-1.4,0.2-1.8,0.5l-0.3-1.1C61.1,3.2,62,2.9,63,2.9c2.2,0,2.8,1.4,2.8,2.8v2.4c0,0.6,0,1.2,0.1,1.6
		H64.4z M64.2,6.6c-1.2,0-2.4,0.2-2.4,1.3c0,0.7,0.4,1,1,1c0.7,0,1.2-0.4,1.3-0.9c0-0.1,0.1-0.3,0.1-0.4V6.6z"/>
	<path class="st0" d="M75.7,9.7c-0.4,0.2-1.1,0.3-1.9,0.3c-2.1,0-3.5-1.3-3.5-3.4c0-2,1.4-3.6,3.8-3.6c0.6,0,1.3,0.1,1.7,0.3
		l-0.3,1.3c-0.3-0.1-0.7-0.3-1.3-0.3c-1.3,0-2.1,1-2.1,2.2c0,1.4,0.9,2.2,2.1,2.2c0.6,0,1-0.1,1.3-0.3L75.7,9.7z"/>
	<path class="st0" d="M79,1.2c0,0.5-0.4,0.9-1,0.9c-0.6,0-0.9-0.4-0.9-0.9c0-0.5,0.4-0.9,1-0.9C78.6,0.3,78.9,0.7,79,1.2z M77.1,9.9
		V3.1h1.7v6.8H77.1z"/>
	<path class="st0" d="M80.8,5.3c0-0.9,0-1.6-0.1-2.2h1.5l0.1,1.3h0.1c0.3-1,1.1-1.4,1.8-1.4c0.2,0,0.3,0,0.4,0v1.6
		c-0.1,0-0.3-0.1-0.5-0.1c-0.8,0-1.4,0.5-1.5,1.3c0,0.2-0.1,0.3-0.1,0.5v3.5h-1.7V5.3z"/>
	<path class="st0" d="M90.9,9.7C90.5,9.8,89.8,10,89,10c-2.1,0-3.5-1.3-3.5-3.4c0-2,1.4-3.6,3.8-3.6c0.6,0,1.3,0.1,1.7,0.3l-0.3,1.3
		c-0.3-0.1-0.7-0.3-1.3-0.3c-1.3,0-2.1,1-2.1,2.2c0,1.4,0.9,2.2,2.1,2.2c0.6,0,1-0.1,1.3-0.3L90.9,9.7z"/>
	<path class="st0" d="M98.3,7.8c0,0.8,0,1.5,0.1,2h-1.5l-0.1-1h0c-0.3,0.5-1,1.2-2.2,1.2c-1.2,0-2.4-0.7-2.4-2.9v-4H94v3.7
		c0,1.1,0.4,1.8,1.3,1.8c0.7,0,1.1-0.5,1.3-0.9c0.1-0.2,0.1-0.3,0.1-0.5V3.1h1.7V7.8z"/>
	<path class="st0" d="M100.3,0h1.7v9.9h-1.7V0z"/>
	<path class="st0" d="M107.8,9.9l-0.1-0.8h0c-0.4,0.5-1.1,0.9-2,0.9c-1.4,0-2.1-1-2.1-2c0-1.7,1.5-2.6,4-2.6V5.3
		c0-0.4-0.2-1.2-1.4-1.2c-0.7,0-1.4,0.2-1.8,0.5L104,3.5c0.5-0.3,1.4-0.6,2.4-0.6c2.2,0,2.8,1.4,2.8,2.8v2.4c0,0.6,0,1.2,0.1,1.6
		H107.8z M107.6,6.6c-1.2,0-2.4,0.2-2.4,1.3c0,0.7,0.4,1,1,1c0.7,0,1.2-0.4,1.3-0.9c0-0.1,0.1-0.3,0.1-0.4V6.6z"/>
	<path class="st0" d="M116.2,9.7c-0.4,0.2-1.1,0.3-1.9,0.3c-2.1,0-3.5-1.3-3.5-3.4c0-2,1.4-3.6,3.8-3.6c0.6,0,1.3,0.1,1.7,0.3
		l-0.3,1.3c-0.3-0.1-0.7-0.3-1.3-0.3c-1.3,0-2.1,1-2.1,2.2c0,1.4,0.9,2.2,2.1,2.2c0.6,0,1-0.1,1.3-0.3L116.2,9.7z"/>
	<path class="st0" d="M119.4,1.2c0,0.5-0.4,0.9-1,0.9c-0.6,0-0.9-0.4-0.9-0.9c0-0.5,0.4-0.9,1-0.9C119,0.3,119.4,0.7,119.4,1.2z
		 M117.6,9.9V3.1h1.7v6.8H117.6z"/>
	<path class="st0" d="M127.7,6.4c0,2.5-1.8,3.6-3.5,3.6c-1.9,0-3.4-1.3-3.4-3.5c0-2.2,1.5-3.6,3.5-3.6
		C126.4,2.9,127.7,4.4,127.7,6.4z M122.6,6.5c0,1.3,0.6,2.3,1.7,2.3c1,0,1.7-1,1.7-2.3c0-1.1-0.5-2.3-1.6-2.3
		C123.1,4.2,122.6,5.4,122.6,6.5z M126.3,0.2l-1.7,2.1h-1.2l1.2-2.1H126.3z"/>
	<path class="st0" d="M129.2,5.1c0-0.8,0-1.4-0.1-2h1.5l0.1,1h0c0.3-0.5,1-1.2,2.2-1.2c1.2,0,2.4,0.8,2.4,2.9v4h-1.7V6
		c0-1-0.4-1.7-1.3-1.7c-0.7,0-1.2,0.5-1.3,1C131,5.5,131,5.7,131,5.9v4h-1.7V5.1z"/>
	<path class="st0" d="M141.5,7c0,1.2,1,1.8,2.1,1.8c0.8,0,1.4-0.1,1.9-0.3l0.3,1.2c-0.6,0.2-1.4,0.4-2.4,0.4c-2.2,0-3.5-1.3-3.5-3.4
		c0-1.9,1.1-3.6,3.3-3.6c2.2,0,2.9,1.8,2.9,3.3c0,0.3,0,0.6-0.1,0.7H141.5z M144.5,5.8c0-0.6-0.3-1.7-1.4-1.7c-1.1,0-1.5,1-1.6,1.7
		H144.5z"/>
	<path class="st0" d="M147.6,5.1c0-0.8,0-1.4-0.1-2h1.5l0.1,1h0c0.3-0.5,1-1.2,2.2-1.2c1.2,0,2.4,0.8,2.4,2.9v4h-1.7V6
		c0-1-0.4-1.7-1.3-1.7c-0.7,0-1.2,0.5-1.3,1c-0.1,0.2-0.1,0.4-0.1,0.6v4h-1.7V5.1z"/>
	<path class="st0" d="M158.7,0h1.7v9.9h-1.7V0z"/>
	<path class="st0" d="M168.9,6.4c0,2.5-1.8,3.6-3.5,3.6c-1.9,0-3.4-1.3-3.4-3.5c0-2.2,1.5-3.6,3.5-3.6
		C167.5,2.9,168.9,4.4,168.9,6.4z M163.8,6.5c0,1.3,0.6,2.3,1.7,2.3c1,0,1.7-1,1.7-2.3c0-1.1-0.5-2.3-1.6-2.3
		C164.3,4.2,163.8,5.4,163.8,6.5z"/>
	<path class="st0" d="M170.3,8.3c0.4,0.2,1.1,0.5,1.7,0.5c0.8,0,1.1-0.3,1.1-0.8c0-0.5-0.3-0.7-1.1-1c-1.3-0.5-1.9-1.2-1.9-2
		c0-1.2,1-2.1,2.6-2.1c0.8,0,1.4,0.2,1.8,0.4l-0.3,1.2c-0.3-0.2-0.8-0.4-1.4-0.4c-0.6,0-0.9,0.3-0.9,0.7c0,0.4,0.3,0.6,1.2,0.9
		c1.2,0.4,1.8,1.1,1.8,2.1c0,1.2-1,2.1-2.8,2.1c-0.8,0-1.6-0.2-2.1-0.5L170.3,8.3z"/>
	<path class="st0" d="M180.4,3.1l1.1,3.4c0.2,0.6,0.3,1.1,0.5,1.7h0c0.1-0.6,0.3-1.1,0.5-1.7l1.1-3.4h1.8l-2.6,6.8h-1.7l-2.5-6.8
		H180.4z"/>
	<path class="st0" d="M190.3,9.9l-0.1-0.8h0c-0.4,0.5-1.1,0.9-2,0.9c-1.4,0-2.1-1-2.1-2c0-1.7,1.5-2.6,4-2.6V5.3
		c0-0.4-0.2-1.2-1.4-1.2c-0.7,0-1.4,0.2-1.8,0.5l-0.3-1.1c0.5-0.3,1.4-0.6,2.4-0.6c2.2,0,2.8,1.4,2.8,2.8v2.4c0,0.6,0,1.2,0.1,1.6
		H190.3z M190.1,6.6c-1.2,0-2.4,0.2-2.4,1.3c0,0.7,0.4,1,1,1c0.7,0,1.2-0.4,1.3-0.9c0-0.1,0.1-0.3,0.1-0.4V6.6z"/>
	<path class="st0" d="M193.6,8.3c0.4,0.2,1.1,0.5,1.7,0.5c0.8,0,1.1-0.3,1.1-0.8c0-0.5-0.3-0.7-1.1-1c-1.3-0.5-1.9-1.2-1.9-2
		c0-1.2,1-2.1,2.6-2.1c0.8,0,1.4,0.2,1.8,0.4l-0.3,1.2c-0.3-0.2-0.8-0.4-1.4-0.4c-0.6,0-0.9,0.3-0.9,0.7c0,0.4,0.3,0.6,1.2,0.9
		c1.2,0.4,1.8,1.1,1.8,2.1c0,1.2-1,2.1-2.8,2.1c-0.8,0-1.6-0.2-2.1-0.5L193.6,8.3z"/>
	<path class="st0" d="M206.1,6.4c0,2.5-1.8,3.6-3.5,3.6c-1.9,0-3.4-1.3-3.4-3.5c0-2.2,1.5-3.6,3.5-3.6
		C204.7,2.9,206.1,4.4,206.1,6.4z M201,6.5c0,1.3,0.6,2.3,1.7,2.3c1,0,1.7-1,1.7-2.3c0-1.1-0.5-2.3-1.6-2.3
		C201.5,4.2,201,5.4,201,6.5z"/>
	<path class="st0" d="M207.5,8.3c0.4,0.2,1.1,0.5,1.7,0.5c0.8,0,1.1-0.3,1.1-0.8c0-0.5-0.3-0.7-1.1-1c-1.3-0.5-1.9-1.2-1.9-2
		c0-1.2,1-2.1,2.6-2.1c0.8,0,1.4,0.2,1.8,0.4l-0.3,1.2c-0.3-0.2-0.8-0.4-1.4-0.4c-0.6,0-0.9,0.3-0.9,0.7c0,0.4,0.3,0.6,1.2,0.9
		c1.2,0.4,1.8,1.1,1.8,2.1c0,1.2-1,2.1-2.8,2.1c-0.8,0-1.6-0.2-2.1-0.5L207.5,8.3z"/>
	<path class="st0" d="M224.5,9.7c-0.4,0.2-1.1,0.3-1.9,0.3c-2.1,0-3.5-1.3-3.5-3.4c0-2,1.4-3.6,3.8-3.6c0.6,0,1.3,0.1,1.7,0.3
		l-0.3,1.3c-0.3-0.1-0.7-0.3-1.3-0.3c-1.3,0-2.1,1-2.1,2.2c0,1.4,0.9,2.2,2.1,2.2c0.6,0,1-0.1,1.3-0.3L224.5,9.7z"/>
	<path class="st0" d="M229.7,9.9l-0.1-0.8h0c-0.4,0.5-1.1,0.9-2,0.9c-1.4,0-2.1-1-2.1-2c0-1.7,1.5-2.6,4-2.6V5.3
		c0-0.4-0.2-1.2-1.4-1.2c-0.7,0-1.4,0.2-1.8,0.5L226,3.5c0.5-0.3,1.4-0.6,2.4-0.6c2.2,0,2.8,1.4,2.8,2.8v2.4c0,0.6,0,1.2,0.1,1.6
		H229.7z M229.5,6.6c-1.2,0-2.4,0.2-2.4,1.3c0,0.7,0.4,1,1,1c0.7,0,1.2-0.4,1.3-0.9c0-0.1,0.1-0.3,0.1-0.4V6.6z"/>
	<path class="st0" d="M233.1,5.3c0-0.9,0-1.6-0.1-2.3h1.5l0.1,1h0c0.5-0.8,1.3-1.2,2.3-1.2c1.6,0,2.8,1.3,2.8,3.4
		c0,2.4-1.5,3.6-3.1,3.6c-0.8,0-1.6-0.4-1.9-0.9h0v3.5h-1.7V5.3z M234.8,7c0,0.2,0,0.3,0.1,0.5c0.2,0.7,0.8,1.2,1.5,1.2
		c1.1,0,1.7-0.9,1.7-2.2c0-1.2-0.6-2.2-1.7-2.2c-0.7,0-1.4,0.5-1.5,1.3c0,0.1-0.1,0.3-0.1,0.4V7z"/>
	<path class="st0" d="M243.2,1.2c0,0.5-0.4,0.9-1,0.9c-0.6,0-0.9-0.4-0.9-0.9c0-0.5,0.4-0.9,1-0.9C242.8,0.3,243.2,0.7,243.2,1.2z
		 M241.4,9.9V3.1h1.7v6.8H241.4z"/>
	<path class="st0" d="M245.1,0h1.7v9.9h-1.7V0z"/>
	<path class="st0" d="M252.6,9.9l-0.1-0.8h0c-0.4,0.5-1.1,0.9-2,0.9c-1.4,0-2.1-1-2.1-2c0-1.7,1.5-2.6,4-2.6V5.3
		c0-0.4-0.2-1.2-1.4-1.2c-0.7,0-1.4,0.2-1.8,0.5l-0.3-1.1c0.5-0.3,1.4-0.6,2.4-0.6c2.2,0,2.8,1.4,2.8,2.8v2.4c0,0.6,0,1.2,0.1,1.6
		H252.6z M252.4,6.6c-1.2,0-2.4,0.2-2.4,1.3c0,0.7,0.4,1,1,1c0.7,0,1.2-0.4,1.3-0.9c0-0.1,0.1-0.3,0.1-0.4V6.6z"/>
	<path class="st0" d="M256,5.3c0-0.9,0-1.6-0.1-2.2h1.5l0.1,1.3h0.1c0.3-1,1.1-1.4,1.8-1.4c0.2,0,0.3,0,0.4,0v1.6
		c-0.1,0-0.3-0.1-0.5-0.1c-0.8,0-1.4,0.5-1.5,1.3c0,0.2-0.1,0.3-0.1,0.5v3.5H256V5.3z"/>
	<path class="st0" d="M262.3,7c0,1.2,1,1.8,2.1,1.8c0.8,0,1.4-0.1,1.9-0.3l0.3,1.2c-0.6,0.2-1.4,0.4-2.4,0.4c-2.2,0-3.5-1.3-3.5-3.4
		c0-1.9,1.1-3.6,3.3-3.6c2.2,0,2.9,1.8,2.9,3.3c0,0.3,0,0.6-0.1,0.7H262.3z M265.2,5.8c0-0.6-0.3-1.7-1.4-1.7c-1.1,0-1.5,1-1.6,1.7
		H265.2z"/>
	<path class="st0" d="M268.3,8.3c0.4,0.2,1.1,0.5,1.7,0.5c0.8,0,1.1-0.3,1.1-0.8c0-0.5-0.3-0.7-1.1-1c-1.3-0.5-1.9-1.2-1.9-2
		c0-1.2,1-2.1,2.6-2.1c0.8,0,1.4,0.2,1.8,0.4l-0.3,1.2c-0.3-0.2-0.8-0.4-1.4-0.4c-0.6,0-0.9,0.3-0.9,0.7c0,0.4,0.3,0.6,1.2,0.9
		c1.2,0.4,1.8,1.1,1.8,2.1c0,1.2-1,2.1-2.8,2.1c-0.8,0-1.6-0.2-2.1-0.5L268.3,8.3z"/>
	<path class="st0" d="M10.9,20.9c0-0.9,0-1.6-0.1-2.2h1.1l0.1,1.2h0c0.5-0.8,1.3-1.3,2.4-1.3c1.6,0,2.8,1.4,2.8,3.4
		c0,2.4-1.5,3.6-3.1,3.6c-0.9,0-1.7-0.4-2.1-1.1h0v3.7h-1.2V20.9z M12.1,22.7c0,0.2,0,0.3,0.1,0.5c0.2,0.8,1,1.4,1.8,1.4
		c1.3,0,2-1.1,2-2.6c0-1.3-0.7-2.5-2-2.5c-0.8,0-1.6,0.6-1.8,1.5c0,0.2-0.1,0.3-0.1,0.5V22.7z"/>
	<path class="st0" d="M19.6,22.3c0,1.7,1.1,2.3,2.3,2.3c0.9,0,1.4-0.2,1.9-0.3l0.2,0.9c-0.4,0.2-1.2,0.4-2.2,0.4
		c-2.1,0-3.3-1.4-3.3-3.4s1.2-3.6,3.2-3.6c2.2,0,2.8,1.9,2.8,3.2c0,0.3,0,0.4,0,0.6H19.6z M23.2,21.5c0-0.8-0.3-2-1.7-2
		c-1.2,0-1.8,1.1-1.9,2H23.2z"/>
	<path class="st0" d="M26,20.8c0-0.8,0-1.5-0.1-2.1H27l0,1.3h0.1c0.3-0.9,1-1.5,1.9-1.5c0.1,0,0.2,0,0.3,0v1.2c-0.1,0-0.3,0-0.4,0
		c-0.9,0-1.5,0.7-1.6,1.6c0,0.2-0.1,0.4-0.1,0.6v3.6H26V20.8z"/>
	<path class="st0" d="M30.7,20.6c0-0.7,0-1.3-0.1-1.8h1.1l0.1,1.1h0c0.4-0.6,1-1.2,2.1-1.2c0.9,0,1.6,0.6,1.9,1.3h0
		c0.2-0.4,0.5-0.7,0.8-0.9c0.4-0.3,0.8-0.5,1.5-0.5c0.9,0,2.2,0.6,2.2,2.9v4h-1.2v-3.8c0-1.3-0.5-2.1-1.5-2.1
		c-0.7,0-1.2,0.5-1.4,1.1c-0.1,0.2-0.1,0.4-0.1,0.6v4.2h-1.2v-4c0-1.1-0.5-1.8-1.4-1.8c-0.8,0-1.3,0.6-1.5,1.2
		c-0.1,0.2-0.1,0.4-0.1,0.6v4.1h-1.2V20.6z"/>
	<path class="st0" d="M43.8,16.9c0,0.4-0.3,0.8-0.8,0.8c-0.4,0-0.7-0.3-0.7-0.8c0-0.4,0.3-0.8,0.8-0.8
		C43.5,16.1,43.8,16.4,43.8,16.9z M42.4,25.5v-6.7h1.2v6.7H42.4z"/>
	<path class="st0" d="M47.3,16.8v1.9H49v0.9h-1.8v3.6c0,0.8,0.2,1.3,0.9,1.3c0.3,0,0.6,0,0.7-0.1l0.1,0.9c-0.2,0.1-0.6,0.2-1.1,0.2
		c-0.6,0-1-0.2-1.3-0.5c-0.3-0.4-0.5-1-0.5-1.7v-3.7h-1v-0.9h1v-1.6L47.3,16.8z"/>
	<path class="st0" d="M51.9,16.9c0,0.4-0.3,0.8-0.8,0.8c-0.4,0-0.7-0.3-0.7-0.8c0-0.4,0.3-0.8,0.8-0.8
		C51.6,16.1,51.9,16.4,51.9,16.9z M50.5,25.5v-6.7h1.2v6.7H50.5z"/>
	<path class="st0" d="M54.6,22.3c0,1.7,1.1,2.3,2.3,2.3c0.9,0,1.4-0.2,1.9-0.3l0.2,0.9c-0.4,0.2-1.2,0.4-2.2,0.4
		c-2.1,0-3.3-1.4-3.3-3.4s1.2-3.6,3.2-3.6c2.2,0,2.8,1.9,2.8,3.2c0,0.3,0,0.4,0,0.6H54.6z M58.2,21.5c0-0.8-0.3-2-1.7-2
		c-1.2,0-1.8,1.1-1.9,2H58.2z"/>
	<path class="st0" d="M61,20.6c0-0.7,0-1.3-0.1-1.8h1.1l0.1,1.1h0c0.3-0.6,1.1-1.3,2.2-1.3c0.9,0,2.4,0.6,2.4,2.9v4h-1.2v-3.9
		c0-1.1-0.4-2-1.6-2c-0.8,0-1.4,0.6-1.6,1.2c-0.1,0.2-0.1,0.4-0.1,0.6v4H61V20.6z"/>
	<path class="st0" d="M74.7,15.6v8.1c0,0.6,0,1.3,0.1,1.7h-1.1l-0.1-1.2h0c-0.4,0.7-1.2,1.3-2.3,1.3c-1.6,0-2.9-1.4-2.9-3.4
		c0-2.2,1.4-3.6,3-3.6c1,0,1.7,0.5,2,1h0v-4H74.7z M73.5,21.5c0-0.2,0-0.4-0.1-0.5c-0.2-0.8-0.8-1.4-1.8-1.4c-1.3,0-2,1.1-2,2.6
		c0,1.4,0.7,2.5,2,2.5c0.8,0,1.6-0.5,1.8-1.5c0-0.2,0.1-0.3,0.1-0.5V21.5z"/>
	<path class="st0" d="M82.9,22.1c0,2.5-1.7,3.6-3.3,3.6c-1.8,0-3.2-1.3-3.2-3.5c0-2.3,1.5-3.6,3.3-3.6C81.6,18.6,82.9,20,82.9,22.1z
		 M77.6,22.1c0,1.5,0.8,2.6,2,2.6c1.2,0,2-1.1,2-2.6c0-1.1-0.6-2.6-2-2.6C78.2,19.5,77.6,20.8,77.6,22.1z"/>
	<path class="st0" d="M93.3,23.6c0,0.7,0,1.3,0.1,1.8h-1.1l-0.1-1.1h0c-0.3,0.5-1,1.2-2.2,1.2c-1.1,0-2.3-0.6-2.3-2.9v-3.9h1.2v3.7
		c0,1.3,0.4,2.1,1.5,2.1c0.8,0,1.4-0.6,1.6-1.1c0.1-0.2,0.1-0.4,0.1-0.6v-4.1h1.2V23.6z"/>
	<path class="st0" d="M95.5,20.6c0-0.7,0-1.3-0.1-1.8h1.1l0.1,1.1h0c0.3-0.6,1.1-1.3,2.2-1.3c0.9,0,2.4,0.6,2.4,2.9v4H100v-3.9
		c0-1.1-0.4-2-1.6-2c-0.8,0-1.4,0.6-1.6,1.2c-0.1,0.2-0.1,0.4-0.1,0.6v4h-1.2V20.6z"/>
	<path class="st0" d="M107,25.5l-0.1-0.8h0c-0.4,0.5-1.1,1-2.1,1c-1.4,0-2.1-1-2.1-1.9c0-1.6,1.4-2.5,4-2.5v-0.1
		c0-0.6-0.2-1.6-1.5-1.6c-0.6,0-1.3,0.2-1.7,0.5l-0.3-0.8c0.6-0.4,1.4-0.6,2.2-0.6c2.1,0,2.6,1.4,2.6,2.7v2.5c0,0.6,0,1.2,0.1,1.6
		H107z M106.8,22c-1.3,0-2.8,0.2-2.8,1.5c0,0.8,0.5,1.2,1.2,1.2c0.9,0,1.4-0.6,1.6-1.1c0-0.1,0.1-0.3,0.1-0.4V22z"/>
	<path class="st1" d="M113,21c0-0.9,0-1.7-0.1-2.3h1.8l0.1,0.9h0c0.5-0.7,1.3-1.1,2.3-1.1c1.5,0,2.8,1.3,2.8,3.5
		c0,2.5-1.6,3.6-3.1,3.6c-0.8,0-1.5-0.3-1.8-0.8h0v3.4H113V21z M115.1,22.6c0,0.2,0,0.3,0,0.4c0.1,0.6,0.6,1,1.2,1
		c0.9,0,1.5-0.8,1.5-1.9c0-1.1-0.5-1.9-1.4-1.9c-0.6,0-1.1,0.4-1.3,1.1c0,0.1,0,0.2,0,0.4V22.6z"/>
	<path class="st1" d="M121.4,20.9c0-1,0-1.7-0.1-2.2h1.8l0.1,1.3h0.1c0.3-1,1.2-1.4,1.8-1.4c0.2,0,0.3,0,0.4,0v2
		c-0.2,0-0.3-0.1-0.6-0.1c-0.8,0-1.3,0.4-1.4,1.1c0,0.1,0,0.3,0,0.5v3.4h-2.1V20.9z"/>
	<path class="st1" d="M133.5,22c0,2.5-1.8,3.6-3.6,3.6c-2,0-3.5-1.3-3.5-3.5c0-2.2,1.4-3.6,3.6-3.6C132.2,18.5,133.5,20,133.5,22z
		 M128.6,22.1c0,1.2,0.5,2,1.4,2c0.8,0,1.3-0.8,1.3-2c0-1-0.4-2-1.3-2C129,20,128.6,21.1,128.6,22.1z"/>
	<path class="st1" d="M137.3,16.7v1.9h1.5v1.6h-1.5v2.5c0,0.8,0.2,1.2,0.8,1.2c0.3,0,0.5,0,0.6-0.1l0,1.6c-0.3,0.1-0.8,0.2-1.4,0.2
		c-0.7,0-1.3-0.2-1.6-0.6c-0.4-0.4-0.6-1.1-0.6-2v-2.8h-0.9v-1.6h0.9v-1.5L137.3,16.7z"/>
	<path class="st1" d="M141.8,22.8c0.1,0.9,0.9,1.3,1.9,1.3c0.7,0,1.3-0.1,1.9-0.3l0.3,1.4c-0.7,0.3-1.5,0.4-2.5,0.4
		c-2.3,0-3.6-1.3-3.6-3.5c0-1.7,1.1-3.6,3.4-3.6c2.2,0,3,1.7,3,3.4c0,0.4,0,0.7-0.1,0.8H141.8z M144.3,21.3c0-0.5-0.2-1.4-1.2-1.4
		c-0.9,0-1.2,0.8-1.3,1.4H144.3z"/>
	<path class="st1" d="M152.8,25.3c-0.4,0.2-1.1,0.3-1.9,0.3c-2.2,0-3.6-1.3-3.6-3.5c0-2,1.4-3.6,3.9-3.6c0.6,0,1.2,0.1,1.6,0.3
		l-0.3,1.6c-0.3-0.1-0.6-0.2-1.2-0.2c-1.1,0-1.8,0.8-1.8,1.9c0,1.3,0.8,1.9,1.9,1.9c0.5,0,0.9-0.1,1.2-0.2L152.8,25.3z"/>
	<path class="st1" d="M159.2,25.3c-0.4,0.2-1.1,0.3-1.9,0.3c-2.2,0-3.6-1.3-3.6-3.5c0-2,1.4-3.6,3.9-3.6c0.6,0,1.2,0.1,1.6,0.3
		l-0.3,1.6c-0.3-0.1-0.6-0.2-1.2-0.2c-1.1,0-1.8,0.8-1.8,1.9c0,1.3,0.8,1.9,1.9,1.9c0.5,0,0.9-0.1,1.2-0.2L159.2,25.3z"/>
	<path class="st1" d="M162.7,16.8c0,0.6-0.4,1.1-1.1,1.1c-0.7,0-1.1-0.5-1.1-1.1c0-0.6,0.4-1.1,1.1-1.1S162.6,16.2,162.7,16.8z
		 M160.5,25.5v-6.8h2.1v6.8H160.5z"/>
	<path class="st1" d="M171.1,22c0,2.5-1.8,3.6-3.6,3.6c-2,0-3.5-1.3-3.5-3.5c0-2.2,1.4-3.6,3.6-3.6C169.7,18.5,171.1,20,171.1,22z
		 M166.2,22.1c0,1.2,0.5,2,1.4,2c0.8,0,1.3-0.8,1.3-2c0-1-0.4-2-1.3-2C166.6,20,166.2,21.1,166.2,22.1z M169.8,15.7l-1.7,2.1h-1.5
		l1.2-2.1H169.8z"/>
	<path class="st1" d="M172.6,20.8c0-0.8,0-1.6-0.1-2.2h1.8l0.1,0.9h0c0.3-0.4,1-1.1,2.1-1.1c1.4,0,2.4,0.9,2.4,2.9v4h-2.1v-3.8
		c0-0.9-0.3-1.5-1.1-1.5c-0.6,0-0.9,0.4-1.1,0.8c-0.1,0.1-0.1,0.3-0.1,0.5v3.9h-2.1V20.8z"/>
	<path class="st1" d="M185.4,18.7l0.9,3.2c0.2,0.6,0.3,1.1,0.4,1.7h0c0.1-0.6,0.2-1.1,0.4-1.7l0.9-3.2h2.2l-2.5,6.8h-2.1l-2.5-6.8
		H185.4z"/>
	<path class="st1" d="M195.1,25.5l-0.1-0.7h0c-0.4,0.5-1.1,0.8-1.9,0.8c-1.4,0-2.2-1-2.2-2.1c0-1.8,1.6-2.6,4-2.6v-0.1
		c0-0.4-0.2-0.9-1.2-0.9c-0.7,0-1.4,0.2-1.9,0.5l-0.4-1.4c0.5-0.3,1.4-0.6,2.6-0.6c2.3,0,3,1.3,3,2.9v2.4c0,0.7,0,1.3,0.1,1.7H195.1
		z M194.9,22.3c-1.1,0-2,0.3-2,1.1c0,0.5,0.4,0.8,0.8,0.8c0.5,0,1-0.3,1.1-0.8c0-0.1,0-0.2,0-0.4V22.3z"/>
	<path class="st1" d="M198.7,23.6c0.4,0.2,1.2,0.5,1.8,0.5c0.6,0,0.9-0.2,0.9-0.6c0-0.3-0.2-0.5-1-0.8c-1.4-0.5-1.9-1.2-1.9-2
		c0-1.3,1.1-2.2,2.8-2.2c0.8,0,1.5,0.2,1.9,0.4l-0.4,1.5c-0.3-0.2-0.9-0.4-1.5-0.4c-0.5,0-0.8,0.2-0.8,0.6c0,0.3,0.3,0.5,1.1,0.8
		c1.3,0.4,1.8,1.1,1.8,2.1c0,1.3-1,2.2-2.9,2.2c-0.9,0-1.7-0.2-2.2-0.5L198.7,23.6z"/>
	<path class="st1" d="M210,25.3c-0.4,0.2-1.1,0.3-1.9,0.3c-2.2,0-3.6-1.3-3.6-3.5c0-2,1.4-3.6,3.9-3.6c0.6,0,1.2,0.1,1.6,0.3
		l-0.3,1.6c-0.3-0.1-0.6-0.2-1.2-0.2c-1.1,0-1.8,0.8-1.8,1.9c0,1.3,0.8,1.9,1.9,1.9c0.5,0,0.9-0.1,1.2-0.2L210,25.3z"/>
	<path class="st1" d="M217.7,23.3c0,0.9,0,1.6,0.1,2.2h-1.8l-0.1-1h0c-0.3,0.4-0.9,1.1-2.1,1.1c-1.4,0-2.4-0.9-2.4-3v-4h2.1v3.7
		c0,1,0.3,1.6,1.1,1.6c0.6,0,0.9-0.4,1.1-0.7c0.1-0.1,0.1-0.3,0.1-0.5v-4h2.1V23.3z"/>
	<path class="st1" d="M219.5,15.6h2.1v9.9h-2.1V15.6z"/>
	<path class="st1" d="M227.4,25.5l-0.1-0.7h0c-0.4,0.5-1.1,0.8-1.9,0.8c-1.4,0-2.2-1-2.2-2.1c0-1.8,1.6-2.6,4-2.6v-0.1
		c0-0.4-0.2-0.9-1.2-0.9c-0.7,0-1.4,0.2-1.9,0.5l-0.4-1.4c0.5-0.3,1.4-0.6,2.6-0.6c2.3,0,3,1.3,3,2.9v2.4c0,0.7,0,1.3,0.1,1.7H227.4
		z M227.1,22.3c-1.1,0-2,0.3-2,1.1c0,0.5,0.4,0.8,0.8,0.8c0.5,0,1-0.3,1.1-0.8c0-0.1,0-0.2,0-0.4V22.3z"/>
	<path class="st1" d="M231,20.9c0-1,0-1.7-0.1-2.2h1.8l0.1,1.3h0.1c0.3-1,1.2-1.4,1.8-1.4c0.2,0,0.3,0,0.4,0v2
		c-0.2,0-0.3-0.1-0.6-0.1c-0.8,0-1.3,0.4-1.4,1.1c0,0.1,0,0.3,0,0.5v3.4H231V20.9z"/>
	<path class="st1" d="M242.3,16.6h-2l-0.1,0.8c0.1,0,0.2,0,0.3,0c0.5,0,1,0.1,1.4,0.4c0.4,0.3,0.6,0.7,0.6,1.3c0,1-0.8,1.8-2.3,1.8
		c-0.6,0-1.2-0.1-1.5-0.3l0.2-0.9c0.2,0.1,0.7,0.3,1.2,0.3c0.5,0,1.1-0.2,1.1-0.8c0-0.5-0.4-0.9-1.5-0.9c-0.3,0-0.5,0-0.7,0l0.3-2.8
		h2.9V16.6z"/>
</g>
<circle class="st2" cx="2.6" cy="3.1" r="2.6"/>
</svg>
