<!-- Generator: Adobe Illustrator 20.1.0, SVG Export Plug-In  -->
<svg version="1.1"
	 xmlns="http://www.w3.org/2000/svg" xmlns:xlink="http://www.w3.org/1999/xlink" xmlns:a="http://ns.adobe.com/AdobeSVGViewerExtensions/3.0/"
	 x="0px" y="0px" width="23.4px" height="9.3px" viewBox="0 0 23.4 9.3"
	 style="overflow:scroll;enable-background:new 0 0 23.4 9.3;" xml:space="preserve">
<style type="text/css">
	.st0{fill:#020202;}
</style>
<defs>
</defs>
<g>
	<g>
		<path class="st0" d="M3.5,0h2.1l3.4,9.1H6.8l-0.7-2H2.7L2,9.1H0L3.5,0z M3.3,5.6h2.4L4.5,2.2h0L3.3,5.6z"/>
		<path class="st0" d="M9.5,0h1.8v9.1H9.5V0z"/>
		<path class="st0" d="M15.1,2.5h1.3v1.2h-1.3V7c0,0.3,0.1,0.5,0.2,0.6c0.1,0.1,0.3,0.2,0.6,0.2c0.2,0,0.4,0,0.6-0.1v1.4
			c-0.2,0-0.3,0-0.5,0.1c-0.2,0-0.4,0-0.5,0c-0.3,0-0.5,0-0.8-0.1c-0.3,0-0.5-0.1-0.7-0.2s-0.3-0.3-0.5-0.5s-0.2-0.5-0.2-0.8V3.7
			h-1.1V2.5h1.1v-2h1.8V2.5z"/>
		<path class="st0" d="M17.2,4.5c0-0.4,0.1-0.8,0.3-1.1c0.2-0.3,0.4-0.5,0.7-0.7s0.6-0.3,1-0.4c0.4-0.1,0.7-0.1,1.1-0.1
			c0.3,0,0.7,0,1,0.1c0.3,0,0.6,0.1,0.9,0.3s0.5,0.3,0.7,0.6c0.2,0.2,0.3,0.6,0.3,1v3.4c0,0.3,0,0.6,0.1,0.9c0,0.3,0.1,0.5,0.2,0.6
			h-1.8c0-0.1-0.1-0.2-0.1-0.3c0-0.1,0-0.2,0-0.3c-0.3,0.3-0.6,0.5-1,0.6c-0.4,0.1-0.8,0.2-1.2,0.2c-0.3,0-0.6,0-0.9-0.1
			c-0.3-0.1-0.5-0.2-0.7-0.4c-0.2-0.2-0.4-0.4-0.5-0.6C17,7.9,17,7.6,17,7.3c0-0.4,0.1-0.7,0.2-0.9c0.1-0.2,0.3-0.4,0.5-0.6
			c0.2-0.1,0.5-0.3,0.7-0.3s0.5-0.1,0.8-0.2c0.3,0,0.5-0.1,0.8-0.1c0.3,0,0.5-0.1,0.7-0.1C20.9,5,21.1,5,21.2,4.9
			c0.1-0.1,0.2-0.2,0.2-0.4c0-0.2,0-0.4-0.1-0.5c-0.1-0.1-0.1-0.2-0.3-0.3c-0.1-0.1-0.2-0.1-0.4-0.1c-0.1,0-0.3,0-0.5,0
			c-0.3,0-0.6,0.1-0.8,0.2C19.2,3.9,19,4.2,19,4.5H17.2z M21.4,5.9C21.3,5.9,21.2,6,21.1,6s-0.2,0.1-0.4,0.1c-0.1,0-0.3,0-0.4,0.1
			c-0.1,0-0.3,0-0.4,0.1c-0.1,0-0.3,0.1-0.4,0.1c-0.1,0-0.2,0.1-0.3,0.2s-0.2,0.2-0.2,0.3c-0.1,0.1-0.1,0.3-0.1,0.4
			c0,0.2,0,0.3,0.1,0.4c0.1,0.1,0.1,0.2,0.2,0.3C19.2,8,19.3,8,19.5,8c0.1,0,0.3,0,0.4,0c0.4,0,0.6-0.1,0.8-0.2
			c0.2-0.1,0.3-0.3,0.4-0.4c0.1-0.2,0.2-0.3,0.2-0.5c0-0.2,0-0.3,0-0.4V5.9z"/>
	</g>
</g>
</svg>
