<!-- Generator: Adobe Illustrator 20.1.0, SVG Export Plug-In  -->
<svg version="1.1"
	 xmlns="http://www.w3.org/2000/svg" xmlns:xlink="http://www.w3.org/1999/xlink" xmlns:a="http://ns.adobe.com/AdobeSVGViewerExtensions/3.0/"
	 x="0px" y="0px" width="25.8px" height="11.4px" viewBox="0 0 25.8 11.4"
	 style="overflow:scroll;enable-background:new 0 0 25.8 11.4;" xml:space="preserve">
<style type="text/css">
	.st0{fill:#020202;}
</style>
<defs>
</defs>
<g>
	<g>
		<path class="st0" d="M0,0h4.3c0.4,0,0.8,0,1.2,0.1s0.7,0.2,0.9,0.4C6.6,0.7,6.8,0.9,7,1.2c0.1,0.3,0.2,0.6,0.2,1.1
			c0,0.5-0.1,0.8-0.3,1.1C6.7,3.7,6.3,4,5.9,4.2c0.6,0.2,1,0.4,1.3,0.8c0.3,0.4,0.4,0.9,0.4,1.5c0,0.5-0.1,0.9-0.3,1.2
			C7.2,8,6.9,8.3,6.6,8.5S6,8.8,5.6,8.9C5.2,9,4.8,9.1,4.4,9.1H0V0z M2,3.7h2c0.4,0,0.6-0.1,0.9-0.3S5.2,3,5.2,2.6
			c0-0.2,0-0.4-0.1-0.5C5.1,1.9,5,1.8,4.8,1.8C4.7,1.7,4.6,1.6,4.4,1.6s-0.3,0-0.5,0H2V3.7z M2,7.5h2.1c0.2,0,0.4,0,0.6-0.1
			S5,7.4,5.2,7.3s0.2-0.2,0.3-0.4c0.1-0.2,0.1-0.3,0.1-0.6c0-0.5-0.1-0.8-0.4-1C5,5.1,4.6,5,4.2,5H2V7.5z"/>
		<path class="st0" d="M8.7,4.5c0-0.4,0.1-0.8,0.3-1.1C9.2,3.2,9.4,3,9.7,2.8s0.6-0.3,1-0.4c0.4-0.1,0.7-0.1,1.1-0.1
			c0.3,0,0.7,0,1,0.1c0.3,0,0.6,0.1,0.9,0.3s0.5,0.3,0.7,0.6c0.2,0.2,0.3,0.6,0.3,1v3.4c0,0.3,0,0.6,0.1,0.9c0,0.3,0.1,0.5,0.2,0.6
			h-1.8C13,9,13,8.9,13,8.8c0-0.1,0-0.2,0-0.3c-0.3,0.3-0.6,0.5-1,0.6c-0.4,0.1-0.8,0.2-1.2,0.2c-0.3,0-0.6,0-0.9-0.1
			C9.6,9.1,9.3,8.9,9.1,8.8C8.9,8.6,8.8,8.4,8.7,8.2C8.6,7.9,8.5,7.6,8.5,7.3c0-0.4,0.1-0.7,0.2-0.9C8.8,6.1,9,5.9,9.2,5.8
			c0.2-0.1,0.5-0.3,0.7-0.3s0.5-0.1,0.8-0.2c0.3,0,0.5-0.1,0.8-0.1c0.3,0,0.5-0.1,0.7-0.1C12.4,5,12.6,5,12.7,4.9
			c0.1-0.1,0.2-0.2,0.2-0.4c0-0.2,0-0.4-0.1-0.5c-0.1-0.1-0.1-0.2-0.3-0.3c-0.1-0.1-0.2-0.1-0.4-0.1c-0.1,0-0.3,0-0.5,0
			c-0.3,0-0.6,0.1-0.8,0.2c-0.2,0.2-0.3,0.4-0.4,0.8H8.7z M12.9,5.9C12.8,5.9,12.7,6,12.6,6s-0.2,0.1-0.4,0.1c-0.1,0-0.3,0-0.4,0.1
			c-0.1,0-0.3,0-0.4,0.1c-0.1,0-0.3,0.1-0.4,0.1c-0.1,0-0.2,0.1-0.3,0.2s-0.2,0.2-0.2,0.3c-0.1,0.1-0.1,0.3-0.1,0.4
			c0,0.2,0,0.3,0.1,0.4c0.1,0.1,0.1,0.2,0.2,0.3C10.7,8,10.9,8,11,8c0.1,0,0.3,0,0.4,0c0.4,0,0.6-0.1,0.8-0.2
			c0.2-0.1,0.3-0.3,0.4-0.4c0.1-0.2,0.2-0.3,0.2-0.5c0-0.2,0-0.3,0-0.4V5.9z"/>
		<path class="st0" d="M15.2,9.9c0.1,0,0.2,0.1,0.4,0.1c0.2,0,0.4,0,0.5-0.1c0.1-0.1,0.2-0.2,0.2-0.5V2.5h1.8v6.9
			c0,0.3,0,0.6-0.1,0.9c-0.1,0.2-0.2,0.5-0.4,0.6c-0.2,0.2-0.4,0.3-0.7,0.4c-0.3,0.1-0.7,0.1-1.1,0.1c-0.1,0-0.2,0-0.3,0
			c-0.1,0-0.2,0-0.3,0V9.9z M18.1,1.5h-1.8V0h1.8V1.5z"/>
		<path class="st0" d="M19.5,4.5c0-0.4,0.1-0.8,0.3-1.1C20,3.2,20.3,3,20.6,2.8s0.6-0.3,1-0.4c0.4-0.1,0.7-0.1,1.1-0.1
			c0.3,0,0.7,0,1,0.1c0.3,0,0.6,0.1,0.9,0.3s0.5,0.3,0.7,0.6c0.2,0.2,0.3,0.6,0.3,1v3.4c0,0.3,0,0.6,0.1,0.9c0,0.3,0.1,0.5,0.2,0.6
			h-1.8c0-0.1-0.1-0.2-0.1-0.3c0-0.1,0-0.2,0-0.3c-0.3,0.3-0.6,0.5-1,0.6c-0.4,0.1-0.8,0.2-1.2,0.2c-0.3,0-0.6,0-0.9-0.1
			c-0.3-0.1-0.5-0.2-0.7-0.4c-0.2-0.2-0.4-0.4-0.5-0.6c-0.1-0.2-0.2-0.5-0.2-0.9c0-0.4,0.1-0.7,0.2-0.9c0.1-0.2,0.3-0.4,0.5-0.6
			c0.2-0.1,0.5-0.3,0.7-0.3s0.5-0.1,0.8-0.2c0.3,0,0.5-0.1,0.8-0.1c0.3,0,0.5-0.1,0.7-0.1C23.3,5,23.4,5,23.5,4.9
			c0.1-0.1,0.2-0.2,0.2-0.4c0-0.2,0-0.4-0.1-0.5c-0.1-0.1-0.1-0.2-0.3-0.3c-0.1-0.1-0.2-0.1-0.4-0.1c-0.1,0-0.3,0-0.5,0
			c-0.3,0-0.6,0.1-0.8,0.2c-0.2,0.2-0.3,0.4-0.4,0.8H19.5z M23.7,5.9C23.6,5.9,23.5,6,23.4,6s-0.2,0.1-0.4,0.1c-0.1,0-0.3,0-0.4,0.1
			c-0.1,0-0.3,0-0.4,0.1c-0.1,0-0.3,0.1-0.4,0.1c-0.1,0-0.2,0.1-0.3,0.2s-0.2,0.2-0.2,0.3c-0.1,0.1-0.1,0.3-0.1,0.4
			c0,0.2,0,0.3,0.1,0.4c0.1,0.1,0.1,0.2,0.2,0.3C21.6,8,21.7,8,21.8,8c0.1,0,0.3,0,0.4,0c0.4,0,0.6-0.1,0.8-0.2
			c0.2-0.1,0.3-0.3,0.4-0.4c0.1-0.2,0.2-0.3,0.2-0.5c0-0.2,0-0.3,0-0.4V5.9z"/>
	</g>
</g>
</svg>
