<!-- Generator: Adobe Illustrator 20.1.0, SVG Export Plug-In  -->
<svg version="1.1"
	 xmlns="http://www.w3.org/2000/svg" xmlns:xlink="http://www.w3.org/1999/xlink" xmlns:a="http://ns.adobe.com/AdobeSVGViewerExtensions/3.0/"
	 x="0px" y="0px" width="72.6px" height="67.6px" viewBox="0 0 72.6 67.6"
	 style="overflow:scroll;enable-background:new 0 0 72.6 67.6;" xml:space="preserve">
<style type="text/css">
	.st0{fill:#020202;}
	.st1{fill:#F6921E;}
</style>
<defs>
</defs>
<g>
	<g>
		<path class="st0" d="M21.6,25.5l3.6,9.1h-1.3l-1-2.7H19l-1,2.7h-1.2l3.5-9.1H21.6z M22.5,30.8l-1.5-4.2h0l-1.5,4.2H22.5z"/>
		<path class="st0" d="M27,25.5v9.1h-1.1v-9.1H27z"/>
		<path class="st0" d="M33.8,34.7c-0.3,0-0.5-0.1-0.7-0.2s-0.2-0.4-0.2-0.8c-0.3,0.4-0.6,0.6-1,0.8c-0.4,0.2-0.8,0.2-1.3,0.2
			c-0.3,0-0.6,0-0.8-0.1c-0.3-0.1-0.5-0.2-0.7-0.3c-0.2-0.1-0.4-0.3-0.5-0.6c-0.1-0.2-0.2-0.5-0.2-0.8c0-0.4,0.1-0.7,0.2-0.9
			c0.1-0.2,0.3-0.4,0.5-0.6s0.4-0.3,0.7-0.3c0.3-0.1,0.5-0.1,0.8-0.2c0.3-0.1,0.6-0.1,0.8-0.1c0.3,0,0.5-0.1,0.7-0.1
			c0.2-0.1,0.4-0.1,0.5-0.2c0.1-0.1,0.2-0.3,0.2-0.5c0-0.2,0-0.4-0.1-0.6c-0.1-0.1-0.2-0.3-0.3-0.3s-0.3-0.1-0.5-0.2
			c-0.2,0-0.3,0-0.5,0c-0.5,0-0.8,0.1-1.1,0.3s-0.5,0.5-0.5,1h-1.1c0-0.4,0.1-0.8,0.3-1s0.4-0.5,0.6-0.7c0.3-0.2,0.5-0.3,0.9-0.4
			s0.7-0.1,1-0.1c0.3,0,0.6,0,0.9,0.1c0.3,0,0.6,0.1,0.8,0.3s0.4,0.3,0.6,0.6c0.1,0.2,0.2,0.5,0.2,0.9V33c0,0.3,0,0.4,0,0.6
			s0.1,0.2,0.3,0.2c0.1,0,0.2,0,0.3-0.1v0.8C34.4,34.6,34.1,34.7,33.8,34.7z M32.2,31.4c-0.2,0-0.5,0.1-0.7,0.1
			c-0.2,0-0.5,0.1-0.7,0.1c-0.2,0-0.5,0.1-0.7,0.2c-0.2,0.1-0.4,0.2-0.5,0.4s-0.2,0.4-0.2,0.6c0,0.2,0,0.3,0.1,0.5s0.2,0.2,0.3,0.3
			s0.3,0.1,0.4,0.2c0.2,0,0.3,0.1,0.5,0.1c0.4,0,0.7,0,0.9-0.1c0.3-0.1,0.5-0.2,0.6-0.4c0.2-0.1,0.3-0.3,0.4-0.5
			c0.1-0.2,0.1-0.3,0.1-0.5v-1.1C32.6,31.3,32.5,31.3,32.2,31.4z"/>
		<path class="st0" d="M36.5,28v1.4h0c0.3-0.5,0.6-0.9,1-1.2s0.9-0.4,1.5-0.4V29c-0.4,0-0.8,0.1-1.1,0.2c-0.3,0.1-0.6,0.3-0.7,0.5
			c-0.2,0.2-0.3,0.5-0.4,0.8c-0.1,0.3-0.1,0.7-0.1,1.1v2.9h-1.1V28H36.5z"/>
		<path class="st0" d="M40.8,28v1h0c0.5-0.7,1.2-1.1,2.1-1.1c0.4,0,0.8,0.1,1.1,0.3c0.3,0.2,0.6,0.5,0.7,0.9
			c0.2-0.4,0.5-0.6,0.9-0.8s0.8-0.3,1.2-0.3c0.3,0,0.6,0,0.9,0.1c0.3,0.1,0.5,0.2,0.7,0.3s0.3,0.4,0.4,0.6c0.1,0.2,0.2,0.5,0.2,0.9
			v4.8h-1.1v-4.3c0-0.2,0-0.4-0.1-0.6c0-0.2-0.1-0.3-0.2-0.5c-0.1-0.1-0.2-0.2-0.4-0.3s-0.4-0.1-0.6-0.1c-0.5,0-1,0.2-1.3,0.5
			s-0.5,0.7-0.5,1.2v4.1h-1.1v-4.3c0-0.2,0-0.4-0.1-0.6c0-0.2-0.1-0.3-0.2-0.5c-0.1-0.1-0.2-0.2-0.4-0.3c-0.2-0.1-0.4-0.1-0.6-0.1
			c-0.3,0-0.6,0.1-0.8,0.2c-0.2,0.1-0.4,0.3-0.5,0.5C41.1,29.6,41,29.8,41,30c-0.1,0.2-0.1,0.3-0.1,0.5v4.1h-1.1V28H40.8z"/>
		<path class="st0" d="M55.7,34.7c-0.3,0-0.5-0.1-0.7-0.2s-0.2-0.4-0.2-0.8c-0.3,0.4-0.6,0.6-1,0.8c-0.4,0.2-0.8,0.2-1.3,0.2
			c-0.3,0-0.6,0-0.8-0.1c-0.3-0.1-0.5-0.2-0.7-0.3c-0.2-0.1-0.4-0.3-0.5-0.6c-0.1-0.2-0.2-0.5-0.2-0.8c0-0.4,0.1-0.7,0.2-0.9
			c0.1-0.2,0.3-0.4,0.5-0.6s0.4-0.3,0.7-0.3c0.3-0.1,0.5-0.1,0.8-0.2c0.3-0.1,0.6-0.1,0.8-0.1c0.3,0,0.5-0.1,0.7-0.1
			c0.2-0.1,0.4-0.1,0.5-0.2c0.1-0.1,0.2-0.3,0.2-0.5c0-0.2,0-0.4-0.1-0.6c-0.1-0.1-0.2-0.3-0.3-0.3s-0.3-0.1-0.5-0.2
			c-0.2,0-0.3,0-0.5,0c-0.5,0-0.8,0.1-1.1,0.3s-0.5,0.5-0.5,1h-1.1c0-0.4,0.1-0.8,0.3-1s0.4-0.5,0.6-0.7c0.3-0.2,0.5-0.3,0.9-0.4
			s0.7-0.1,1-0.1c0.3,0,0.6,0,0.9,0.1c0.3,0,0.6,0.1,0.8,0.3s0.4,0.3,0.6,0.6c0.1,0.2,0.2,0.5,0.2,0.9V33c0,0.3,0,0.4,0,0.6
			s0.1,0.2,0.3,0.2c0.1,0,0.2,0,0.3-0.1v0.8C56.3,34.6,56,34.7,55.7,34.7z M54.2,31.4c-0.2,0-0.5,0.1-0.7,0.1
			c-0.2,0-0.5,0.1-0.7,0.1c-0.2,0-0.5,0.1-0.7,0.2c-0.2,0.1-0.4,0.2-0.5,0.4s-0.2,0.4-0.2,0.6c0,0.2,0,0.3,0.1,0.5s0.2,0.2,0.3,0.3
			s0.3,0.1,0.4,0.2c0.2,0,0.3,0.1,0.5,0.1c0.4,0,0.7,0,0.9-0.1c0.3-0.1,0.5-0.2,0.6-0.4c0.2-0.1,0.3-0.3,0.4-0.5
			c0.1-0.2,0.1-0.3,0.1-0.5v-1.1C54.6,31.3,54.4,31.3,54.2,31.4z"/>
		<path class="st0" d="M1.9,50.9c-0.2-0.5-0.5-0.9-0.6-1.4C1,49,0.9,48.5,0.8,48c-0.1-0.5-0.1-1-0.1-1.6c0-1,0.2-2,0.5-3
			c0.3-1,0.8-2,1.5-2.8h0.8c-0.6,1-1,1.9-1.3,2.9c-0.3,1-0.4,1.9-0.4,3c0,1.1,0.1,2.1,0.4,3c0.3,1,0.7,1.9,1.3,2.9H2.7
			C2.4,51.9,2.1,51.4,1.9,50.9z"/>
		<path class="st0" d="M5.2,43.3v1h0c0.5-0.7,1.2-1.1,2.1-1.1c0.4,0,0.8,0.1,1.1,0.3c0.3,0.2,0.6,0.5,0.7,0.9
			c0.2-0.4,0.5-0.6,0.9-0.8s0.8-0.3,1.2-0.3c0.3,0,0.6,0,0.9,0.1c0.3,0.1,0.5,0.2,0.7,0.3s0.3,0.4,0.4,0.6c0.1,0.2,0.2,0.5,0.2,0.9
			v4.8h-1.1v-4.3c0-0.2,0-0.4-0.1-0.6c0-0.2-0.1-0.3-0.2-0.5c-0.1-0.1-0.2-0.2-0.4-0.3s-0.4-0.1-0.6-0.1c-0.5,0-1,0.2-1.3,0.5
			s-0.5,0.7-0.5,1.2v4.1H8.3v-4.3c0-0.2,0-0.4-0.1-0.6c0-0.2-0.1-0.3-0.2-0.5c-0.1-0.1-0.2-0.2-0.4-0.3c-0.2-0.1-0.4-0.1-0.6-0.1
			c-0.3,0-0.6,0.1-0.8,0.2c-0.2,0.1-0.4,0.3-0.5,0.5c-0.1,0.2-0.2,0.4-0.3,0.6c-0.1,0.2-0.1,0.3-0.1,0.5v4.1H4.2v-6.6H5.2z"/>
		<path class="st0" d="M14.9,45.2c0.1-0.4,0.3-0.8,0.6-1.1c0.3-0.3,0.6-0.6,1-0.7c0.4-0.2,0.9-0.3,1.4-0.3c0.5,0,1,0.1,1.4,0.3
			c0.4,0.2,0.7,0.4,1,0.7c0.3,0.3,0.5,0.7,0.6,1.1c0.1,0.4,0.2,0.9,0.2,1.4c0,0.5-0.1,0.9-0.2,1.3s-0.3,0.8-0.6,1.1
			c-0.3,0.3-0.6,0.6-1,0.7c-0.4,0.2-0.9,0.3-1.4,0.3c-0.5,0-1-0.1-1.4-0.3c-0.4-0.2-0.7-0.4-1-0.7c-0.3-0.3-0.5-0.7-0.6-1.1
			s-0.2-0.9-0.2-1.3C14.7,46.1,14.8,45.6,14.9,45.2z M16,47.6c0.1,0.3,0.3,0.6,0.4,0.8s0.4,0.4,0.7,0.5s0.5,0.2,0.8,0.2
			s0.5-0.1,0.8-0.2c0.3-0.1,0.5-0.3,0.7-0.5c0.2-0.2,0.3-0.5,0.4-0.8c0.1-0.3,0.2-0.7,0.2-1.1c0-0.4-0.1-0.8-0.2-1.1
			c-0.1-0.3-0.3-0.6-0.4-0.8c-0.2-0.2-0.4-0.4-0.7-0.5c-0.3-0.1-0.5-0.2-0.8-0.2s-0.5,0.1-0.8,0.2s-0.5,0.3-0.7,0.5
			c-0.2,0.2-0.3,0.5-0.4,0.8c-0.1,0.3-0.2,0.7-0.2,1.1C15.8,47,15.9,47.3,16,47.6z"/>
		<path class="st0" d="M24.2,49.8l-2.4-6.6h1.2l1.8,5.5h0l1.8-5.5h1.1l-2.4,6.6H24.2z"/>
		<path class="st0" d="M28.8,42.1v-1.3h1.1v1.3H28.8z M29.9,43.3v6.6h-1.1v-6.6H29.9z"/>
		<path class="st0" d="M32.7,40.7v9.1h-1.1v-9.1H32.7z"/>
		<path class="st0" d="M34.4,42.1v-1.3h1.1v1.3H34.4z M35.5,43.3v6.6h-1.1v-6.6H35.5z"/>
		<path class="st0" d="M40.7,44.2h-3.7v-1h5.1V44l-4,4.9h4.2v1h-5.6V49L40.7,44.2z"/>
		<path class="st0" d="M48.4,50c-0.3,0-0.5-0.1-0.7-0.2s-0.2-0.4-0.2-0.8c-0.3,0.4-0.6,0.6-1,0.8C46,49.9,45.6,50,45.1,50
			c-0.3,0-0.6,0-0.8-0.1c-0.3-0.1-0.5-0.2-0.7-0.3c-0.2-0.1-0.4-0.3-0.5-0.6C43,48.8,43,48.5,43,48.1c0-0.4,0.1-0.7,0.2-0.9
			c0.1-0.2,0.3-0.4,0.5-0.6s0.4-0.3,0.7-0.3c0.3-0.1,0.5-0.1,0.8-0.2c0.3-0.1,0.6-0.1,0.8-0.1c0.3,0,0.5-0.1,0.7-0.1
			c0.2-0.1,0.4-0.1,0.5-0.2c0.1-0.1,0.2-0.3,0.2-0.5c0-0.2,0-0.4-0.1-0.6c-0.1-0.1-0.2-0.3-0.3-0.3s-0.3-0.1-0.5-0.2
			c-0.2,0-0.3,0-0.5,0c-0.5,0-0.8,0.1-1.1,0.3s-0.5,0.5-0.5,1h-1.1c0-0.4,0.1-0.8,0.3-1s0.4-0.5,0.6-0.7c0.3-0.2,0.5-0.3,0.9-0.4
			s0.7-0.1,1-0.1c0.3,0,0.6,0,0.9,0.1c0.3,0,0.6,0.1,0.8,0.3s0.4,0.3,0.6,0.6c0.1,0.2,0.2,0.5,0.2,0.9v3.4c0,0.3,0,0.4,0,0.6
			s0.1,0.2,0.3,0.2c0.1,0,0.2,0,0.3-0.1v0.8C49,49.9,48.7,50,48.4,50z M46.9,46.7c-0.2,0-0.5,0.1-0.7,0.1c-0.2,0-0.5,0.1-0.7,0.1
			c-0.2,0-0.5,0.1-0.7,0.2c-0.2,0.1-0.4,0.2-0.5,0.4s-0.2,0.4-0.2,0.6c0,0.2,0,0.3,0.1,0.5s0.2,0.2,0.3,0.3s0.3,0.1,0.4,0.2
			c0.2,0,0.3,0.1,0.5,0.1c0.4,0,0.7,0,0.9-0.1c0.3-0.1,0.5-0.2,0.6-0.4c0.2-0.1,0.3-0.3,0.4-0.5c0.1-0.2,0.1-0.3,0.1-0.5v-1.1
			C47.3,46.5,47.1,46.6,46.9,46.7z"/>
		<path class="st0" d="M54.1,44.4c-0.3-0.2-0.6-0.3-1.1-0.3c-0.4,0-0.7,0.1-1,0.2c-0.3,0.1-0.5,0.3-0.6,0.6s-0.3,0.5-0.3,0.8
			s-0.1,0.6-0.1,1c0,0.3,0,0.6,0.1,0.9c0.1,0.3,0.2,0.5,0.3,0.8s0.4,0.4,0.6,0.5s0.5,0.2,0.9,0.2c0.5,0,1-0.1,1.3-0.4
			s0.5-0.7,0.6-1.2h1.1c-0.1,0.8-0.4,1.4-0.9,1.9c-0.5,0.4-1.2,0.7-2,0.7c-0.5,0-0.9-0.1-1.3-0.2s-0.7-0.4-1-0.7
			c-0.3-0.3-0.5-0.7-0.6-1.1c-0.1-0.4-0.2-0.9-0.2-1.4c0-0.5,0.1-1,0.2-1.4s0.3-0.8,0.6-1.1c0.3-0.3,0.6-0.6,1-0.8s0.8-0.3,1.4-0.3
			c0.4,0,0.7,0,1.1,0.1c0.3,0.1,0.6,0.2,0.9,0.4c0.3,0.2,0.5,0.4,0.6,0.7c0.2,0.3,0.3,0.6,0.3,1h-1.1C54.5,45,54.4,44.6,54.1,44.4z"
			/>
		<path class="st0" d="M57.1,42.1v-1.3h1.1v1.3H57.1z M58.1,43.3v6.6h-1.1v-6.6H58.1z"/>
		<path class="st0" d="M59.7,45.2c0.1-0.4,0.3-0.8,0.6-1.1c0.3-0.3,0.6-0.6,1-0.7c0.4-0.2,0.9-0.3,1.4-0.3c0.5,0,1,0.1,1.4,0.3
			c0.4,0.2,0.7,0.4,1,0.7c0.3,0.3,0.5,0.7,0.6,1.1c0.1,0.4,0.2,0.9,0.2,1.4c0,0.5-0.1,0.9-0.2,1.3S65.3,48.7,65,49
			c-0.3,0.3-0.6,0.6-1,0.7c-0.4,0.2-0.9,0.3-1.4,0.3c-0.5,0-1-0.1-1.4-0.3c-0.4-0.2-0.7-0.4-1-0.7c-0.3-0.3-0.5-0.7-0.6-1.1
			s-0.2-0.9-0.2-1.3C59.5,46.1,59.5,45.6,59.7,45.2z M60.8,47.6c0.1,0.3,0.3,0.6,0.4,0.8s0.4,0.4,0.7,0.5s0.5,0.2,0.8,0.2
			s0.5-0.1,0.8-0.2c0.3-0.1,0.5-0.3,0.7-0.5c0.2-0.2,0.3-0.5,0.4-0.8c0.1-0.3,0.2-0.7,0.2-1.1c0-0.4-0.1-0.8-0.2-1.1
			c-0.1-0.3-0.3-0.6-0.4-0.8c-0.2-0.2-0.4-0.4-0.7-0.5c-0.3-0.1-0.5-0.2-0.8-0.2s-0.5,0.1-0.8,0.2s-0.5,0.3-0.7,0.5
			c-0.2,0.2-0.3,0.5-0.4,0.8c-0.1,0.3-0.2,0.7-0.2,1.1C60.6,47,60.7,47.3,60.8,47.6z M64.4,40.5l-1.7,1.8h-0.8l1.1-1.8H64.4z"/>
		<path class="st0" d="M68.2,43.3v1h0c0.4-0.8,1.2-1.2,2.1-1.2c0.4,0,0.8,0.1,1.1,0.2c0.3,0.1,0.5,0.3,0.7,0.5s0.3,0.5,0.4,0.8
			c0.1,0.3,0.1,0.6,0.1,1v4.3h-1.1v-4.5c0-0.4-0.1-0.7-0.4-1c-0.2-0.2-0.6-0.4-1-0.4c-0.3,0-0.6,0.1-0.9,0.2s-0.4,0.2-0.6,0.4
			c-0.2,0.2-0.3,0.4-0.4,0.7s-0.1,0.5-0.1,0.8v3.7h-1.1v-6.6H68.2z"/>
		<path class="st0" d="M5.2,65.1v-0.9h0C5,64.6,4.7,64.9,4.3,65c-0.4,0.2-0.8,0.2-1.3,0.2c-0.5,0-1-0.1-1.3-0.3
			c-0.4-0.2-0.7-0.4-0.9-0.8c-0.3-0.3-0.4-0.7-0.6-1.1S0,62.3,0,61.8s0.1-0.9,0.2-1.3s0.3-0.8,0.6-1.1c0.3-0.3,0.6-0.6,0.9-0.7
			c0.4-0.2,0.8-0.3,1.3-0.3c0.2,0,0.4,0,0.5,0.1s0.4,0.1,0.6,0.2c0.2,0.1,0.4,0.2,0.6,0.3s0.3,0.3,0.4,0.5h0V56h1.1v9.1H5.2z
			 M1.3,62.8c0.1,0.3,0.2,0.6,0.4,0.8C1.8,63.8,2,64,2.3,64.1c0.3,0.1,0.6,0.2,0.9,0.2c0.4,0,0.7-0.1,0.9-0.2
			c0.3-0.1,0.5-0.3,0.6-0.6S5,63,5.1,62.7c0.1-0.3,0.1-0.6,0.1-0.9c0-0.3,0-0.6-0.1-0.9c-0.1-0.3-0.2-0.6-0.4-0.8s-0.4-0.4-0.6-0.6
			c-0.3-0.1-0.6-0.2-1-0.2c-0.4,0-0.7,0.1-0.9,0.2c-0.3,0.1-0.5,0.3-0.6,0.6s-0.3,0.5-0.3,0.8s-0.1,0.6-0.1,0.9
			C1.1,62.2,1.2,62.5,1.3,62.8z"/>
		<path class="st0" d="M12.6,64.7c-0.5,0.4-1.1,0.6-1.9,0.6c-0.5,0-1-0.1-1.4-0.3c-0.4-0.2-0.7-0.4-1-0.7c-0.3-0.3-0.5-0.7-0.6-1.1
			c-0.1-0.4-0.2-0.9-0.2-1.4c0-0.5,0.1-1,0.2-1.4s0.4-0.8,0.6-1.1s0.6-0.5,1-0.7c0.4-0.2,0.8-0.3,1.2-0.3c0.6,0,1.1,0.1,1.5,0.4
			c0.4,0.2,0.7,0.5,0.9,0.9c0.2,0.4,0.4,0.8,0.5,1.2c0.1,0.4,0.1,0.9,0.1,1.3H8.7c0,0.3,0,0.6,0.1,0.8c0.1,0.3,0.2,0.5,0.4,0.7
			c0.2,0.2,0.4,0.4,0.6,0.5s0.6,0.2,0.9,0.2c0.5,0,0.8-0.1,1.1-0.3c0.3-0.2,0.5-0.5,0.6-1h1.1C13.4,63.8,13.1,64.3,12.6,64.7z
			 M12.3,60.5c-0.1-0.2-0.2-0.4-0.4-0.6c-0.2-0.2-0.4-0.3-0.6-0.4c-0.2-0.1-0.5-0.1-0.7-0.1c-0.3,0-0.5,0-0.8,0.1
			c-0.2,0.1-0.4,0.2-0.6,0.4S9,60.2,8.9,60.5c-0.1,0.2-0.1,0.5-0.2,0.7h3.8C12.5,60.9,12.4,60.7,12.3,60.5z"/>
		<path class="st0" d="M19.3,58.5v1.4h0c0.3-0.5,0.6-0.9,1-1.2s0.9-0.4,1.5-0.4v1.1c-0.4,0-0.8,0.1-1.1,0.2
			c-0.3,0.1-0.6,0.3-0.7,0.5c-0.2,0.2-0.3,0.5-0.4,0.8c-0.1,0.3-0.1,0.7-0.1,1.1v2.9h-1.1v-6.6H19.3z"/>
		<path class="st0" d="M27.2,64.7c-0.5,0.4-1.1,0.6-1.9,0.6c-0.5,0-1-0.1-1.4-0.3c-0.4-0.2-0.7-0.4-1-0.7c-0.3-0.3-0.5-0.7-0.6-1.1
			c-0.1-0.4-0.2-0.9-0.2-1.4c0-0.5,0.1-1,0.2-1.4s0.4-0.8,0.6-1.1s0.6-0.5,1-0.7c0.4-0.2,0.8-0.3,1.2-0.3c0.6,0,1.1,0.1,1.5,0.4
			c0.4,0.2,0.7,0.5,0.9,0.9c0.2,0.4,0.4,0.8,0.5,1.2c0.1,0.4,0.1,0.9,0.1,1.3h-4.9c0,0.3,0,0.6,0.1,0.8c0.1,0.3,0.2,0.5,0.4,0.7
			c0.2,0.2,0.4,0.4,0.6,0.5s0.6,0.2,0.9,0.2c0.5,0,0.8-0.1,1.1-0.3c0.3-0.2,0.5-0.5,0.6-1h1.1C28,63.8,27.7,64.3,27.2,64.7z
			 M26.9,60.5c-0.1-0.2-0.2-0.4-0.4-0.6c-0.2-0.2-0.4-0.3-0.6-0.4c-0.2-0.1-0.5-0.1-0.7-0.1c-0.3,0-0.5,0-0.8,0.1
			c-0.2,0.1-0.4,0.2-0.6,0.4s-0.3,0.4-0.4,0.6c-0.1,0.2-0.1,0.5-0.2,0.7h3.8C27.1,60.9,27,60.7,26.9,60.5z"/>
		<path class="st0" d="M33.3,59.7c-0.3-0.2-0.6-0.3-1.1-0.3c-0.4,0-0.7,0.1-1,0.2c-0.3,0.1-0.5,0.3-0.6,0.6s-0.3,0.5-0.3,0.8
			s-0.1,0.6-0.1,1c0,0.3,0,0.6,0.1,0.9c0.1,0.3,0.2,0.5,0.3,0.8s0.4,0.4,0.6,0.5s0.5,0.2,0.9,0.2c0.5,0,1-0.1,1.3-0.4
			s0.5-0.7,0.6-1.2H35c-0.1,0.8-0.4,1.4-0.9,1.9c-0.5,0.4-1.2,0.7-2,0.7c-0.5,0-0.9-0.1-1.3-0.2s-0.7-0.4-1-0.7
			c-0.3-0.3-0.5-0.7-0.6-1.1c-0.1-0.4-0.2-0.9-0.2-1.4c0-0.5,0.1-1,0.2-1.4s0.3-0.8,0.6-1.1c0.3-0.3,0.6-0.6,1-0.8s0.8-0.3,1.4-0.3
			c0.4,0,0.7,0,1.1,0.1c0.3,0.1,0.6,0.2,0.9,0.4c0.3,0.2,0.5,0.4,0.6,0.7c0.2,0.3,0.3,0.6,0.3,1h-1.1C33.7,60.2,33.6,59.9,33.3,59.7
			z"/>
		<path class="st0" d="M40.6,65.1v-1h0c-0.2,0.4-0.5,0.7-0.9,0.9s-0.8,0.3-1.3,0.3c-0.4,0-0.8-0.1-1.1-0.2c-0.3-0.1-0.5-0.3-0.7-0.5
			c-0.2-0.2-0.3-0.5-0.4-0.8c-0.1-0.3-0.1-0.6-0.1-1v-4.3h1.1V63c0,0.4,0.1,0.7,0.4,1c0.2,0.2,0.6,0.4,1,0.4c0.3,0,0.6-0.1,0.9-0.2
			c0.2-0.1,0.4-0.2,0.6-0.4s0.3-0.4,0.4-0.7c0.1-0.3,0.1-0.5,0.1-0.8v-3.7h1.1v6.6H40.6z"/>
		<path class="st0" d="M44.3,58.5v1.4h0c0.3-0.5,0.6-0.9,1-1.2s0.9-0.4,1.5-0.4v1.1c-0.4,0-0.8,0.1-1.1,0.2
			c-0.3,0.1-0.6,0.3-0.7,0.5c-0.2,0.2-0.3,0.5-0.4,0.8c-0.1,0.3-0.1,0.7-0.1,1.1v2.9h-1.1v-6.6H44.3z"/>
		<path class="st0" d="M48.3,63.6c0.1,0.2,0.2,0.3,0.4,0.4s0.4,0.2,0.6,0.2c0.2,0,0.4,0.1,0.6,0.1c0.2,0,0.3,0,0.5,0
			c0.2,0,0.4-0.1,0.5-0.1c0.2-0.1,0.3-0.2,0.4-0.3c0.1-0.1,0.2-0.3,0.2-0.5c0-0.3-0.1-0.5-0.3-0.6c-0.2-0.1-0.5-0.3-0.8-0.4
			c-0.3-0.1-0.7-0.2-1-0.2c-0.4-0.1-0.7-0.2-1-0.3c-0.3-0.1-0.6-0.3-0.8-0.6c-0.2-0.2-0.3-0.6-0.3-1c0-0.3,0.1-0.6,0.2-0.9
			c0.1-0.2,0.3-0.4,0.6-0.6s0.5-0.3,0.8-0.3c0.3-0.1,0.6-0.1,0.9-0.1c0.4,0,0.7,0,1,0.1c0.3,0.1,0.6,0.2,0.8,0.3
			c0.2,0.2,0.4,0.4,0.6,0.6c0.1,0.3,0.2,0.6,0.3,1h-1.1c0-0.2-0.1-0.4-0.2-0.5c-0.1-0.1-0.2-0.3-0.4-0.3c-0.1-0.1-0.3-0.1-0.5-0.2
			c-0.2,0-0.4-0.1-0.5-0.1c-0.2,0-0.3,0-0.5,0s-0.3,0.1-0.5,0.1c-0.1,0.1-0.2,0.1-0.3,0.3c-0.1,0.1-0.1,0.2-0.1,0.4
			c0,0.2,0.1,0.3,0.2,0.5c0.1,0.1,0.3,0.2,0.5,0.3c0.2,0.1,0.4,0.1,0.7,0.2c0.3,0.1,0.5,0.1,0.8,0.2c0.3,0.1,0.5,0.1,0.8,0.2
			c0.3,0.1,0.5,0.2,0.7,0.3c0.2,0.1,0.4,0.3,0.5,0.5s0.2,0.5,0.2,0.8c0,0.4-0.1,0.7-0.2,1c-0.2,0.3-0.4,0.5-0.6,0.6
			c-0.3,0.2-0.6,0.3-0.9,0.3c-0.3,0.1-0.7,0.1-1,0.1c-0.4,0-0.7,0-1-0.1s-0.6-0.2-0.9-0.4c-0.3-0.2-0.5-0.4-0.6-0.7
			c-0.2-0.3-0.2-0.6-0.3-1h1.1C48.2,63.3,48.2,63.5,48.3,63.6z"/>
		<path class="st0" d="M53.7,60.5c0.1-0.4,0.3-0.8,0.6-1.1c0.3-0.3,0.6-0.6,1-0.7c0.4-0.2,0.9-0.3,1.4-0.3c0.5,0,1,0.1,1.4,0.3
			c0.4,0.2,0.7,0.4,1,0.7c0.3,0.3,0.5,0.7,0.6,1.1c0.1,0.4,0.2,0.9,0.2,1.4c0,0.5-0.1,0.9-0.2,1.3s-0.3,0.8-0.6,1.1
			c-0.3,0.3-0.6,0.6-1,0.7c-0.4,0.2-0.9,0.3-1.4,0.3c-0.5,0-1-0.1-1.4-0.3c-0.4-0.2-0.7-0.4-1-0.7c-0.3-0.3-0.5-0.7-0.6-1.1
			s-0.2-0.9-0.2-1.3C53.5,61.3,53.6,60.9,53.7,60.5z M54.8,62.9c0.1,0.3,0.3,0.6,0.4,0.8s0.4,0.4,0.7,0.5s0.5,0.2,0.8,0.2
			s0.5-0.1,0.8-0.2c0.3-0.1,0.5-0.3,0.7-0.5c0.2-0.2,0.3-0.5,0.4-0.8c0.1-0.3,0.2-0.7,0.2-1.1c0-0.4-0.1-0.8-0.2-1.1
			c-0.1-0.3-0.3-0.6-0.4-0.8c-0.2-0.2-0.4-0.4-0.7-0.5c-0.3-0.1-0.5-0.2-0.8-0.2s-0.5,0.1-0.8,0.2s-0.5,0.3-0.7,0.5
			c-0.2,0.2-0.3,0.5-0.4,0.8c-0.1,0.3-0.2,0.7-0.2,1.1C54.7,62.2,54.7,62.6,54.8,62.9z"/>
		<path class="st0" d="M62,63.6c0.1,0.2,0.2,0.3,0.4,0.4s0.4,0.2,0.6,0.2c0.2,0,0.4,0.1,0.6,0.1c0.2,0,0.3,0,0.5,0
			c0.2,0,0.4-0.1,0.5-0.1c0.2-0.1,0.3-0.2,0.4-0.3c0.1-0.1,0.2-0.3,0.2-0.5c0-0.3-0.1-0.5-0.3-0.6c-0.2-0.1-0.5-0.3-0.8-0.4
			c-0.3-0.1-0.7-0.2-1-0.2c-0.4-0.1-0.7-0.2-1-0.3c-0.3-0.1-0.6-0.3-0.8-0.6c-0.2-0.2-0.3-0.6-0.3-1c0-0.3,0.1-0.6,0.2-0.9
			c0.1-0.2,0.3-0.4,0.6-0.6s0.5-0.3,0.8-0.3c0.3-0.1,0.6-0.1,0.9-0.1c0.4,0,0.7,0,1,0.1c0.3,0.1,0.6,0.2,0.8,0.3
			c0.2,0.2,0.4,0.4,0.6,0.6c0.1,0.3,0.2,0.6,0.3,1H65c0-0.2-0.1-0.4-0.2-0.5c-0.1-0.1-0.2-0.3-0.4-0.3c-0.1-0.1-0.3-0.1-0.5-0.2
			c-0.2,0-0.4-0.1-0.5-0.1c-0.2,0-0.3,0-0.5,0s-0.3,0.1-0.5,0.1c-0.1,0.1-0.2,0.1-0.3,0.3c-0.1,0.1-0.1,0.2-0.1,0.4
			c0,0.2,0.1,0.3,0.2,0.5c0.1,0.1,0.3,0.2,0.5,0.3c0.2,0.1,0.4,0.1,0.7,0.2c0.3,0.1,0.5,0.1,0.8,0.2c0.3,0.1,0.5,0.1,0.8,0.2
			c0.3,0.1,0.5,0.2,0.7,0.3c0.2,0.1,0.4,0.3,0.5,0.5s0.2,0.5,0.2,0.8c0,0.4-0.1,0.7-0.2,1c-0.2,0.3-0.4,0.5-0.6,0.6
			c-0.3,0.2-0.6,0.3-0.9,0.3c-0.3,0.1-0.7,0.1-1,0.1c-0.4,0-0.7,0-1-0.1s-0.6-0.2-0.9-0.4c-0.3-0.2-0.5-0.4-0.6-0.7
			c-0.2-0.3-0.2-0.6-0.3-1h1.1C61.9,63.3,61.9,63.5,62,63.6z"/>
		<path class="st0" d="M67.9,64.8c0.3-1,0.4-2,0.4-3c0-1.1-0.1-2.1-0.4-3c-0.3-1-0.7-1.9-1.3-2.9h0.8c0.3,0.5,0.6,0.9,0.8,1.4
			c0.2,0.5,0.5,1,0.6,1.4s0.3,1,0.4,1.5c0.1,0.5,0.1,1,0.1,1.6c0,1-0.2,2-0.5,3c-0.3,1-0.8,2-1.5,2.8h-0.8
			C67.2,66.7,67.7,65.7,67.9,64.8z"/>
		<path class="st0" d="M71.8,60.9v-3.8h-1.4v-0.5c0.2,0,0.4,0,0.5,0c0.2,0,0.3-0.1,0.5-0.2c0.1-0.1,0.3-0.2,0.3-0.3
			c0.1-0.1,0.2-0.3,0.2-0.5h0.5v5.3H71.8z"/>
	</g>
</g>
<g>
	<g>
		<path class="st1" d="M14,0h7.7v2h-5.3v2.5H21v1.9h-4.6v4.5H14V0z"/>
		<path class="st1" d="M22.8,5.4c0-0.5,0.2-0.9,0.4-1.3s0.5-0.6,0.9-0.8c0.3-0.2,0.7-0.3,1.2-0.4s0.9-0.1,1.3-0.1
			c0.4,0,0.8,0,1.2,0.1c0.4,0.1,0.8,0.2,1.1,0.3c0.3,0.2,0.6,0.4,0.8,0.7c0.2,0.3,0.3,0.7,0.3,1.1v4.1c0,0.4,0,0.7,0.1,1
			c0,0.3,0.1,0.6,0.2,0.7H28c0-0.1-0.1-0.2-0.1-0.4c0-0.1,0-0.3-0.1-0.4c-0.3,0.4-0.8,0.6-1.2,0.8s-0.9,0.2-1.4,0.2
			c-0.4,0-0.7,0-1.1-0.1c-0.3-0.1-0.6-0.2-0.9-0.4c-0.2-0.2-0.4-0.4-0.6-0.7c-0.1-0.3-0.2-0.6-0.2-1.1c0-0.4,0.1-0.8,0.2-1.1
			c0.2-0.3,0.4-0.5,0.6-0.7c0.3-0.2,0.5-0.3,0.9-0.4c0.3-0.1,0.6-0.2,1-0.2c0.3-0.1,0.7-0.1,1-0.1c0.3,0,0.6-0.1,0.8-0.1
			c0.2-0.1,0.4-0.1,0.6-0.3c0.1-0.1,0.2-0.3,0.2-0.5c0-0.2,0-0.4-0.1-0.6c-0.1-0.1-0.2-0.2-0.3-0.3s-0.3-0.1-0.4-0.2
			c-0.2,0-0.3,0-0.5,0c-0.4,0-0.8,0.1-1,0.3S25,5,24.9,5.4H22.8z M27.8,7c-0.1,0.1-0.2,0.1-0.3,0.2c-0.1,0-0.3,0.1-0.4,0.1
			c-0.2,0-0.3,0.1-0.5,0.1c-0.2,0-0.3,0-0.5,0.1c-0.2,0-0.3,0.1-0.5,0.1s-0.3,0.1-0.4,0.2C25,7.9,24.9,8,24.8,8.2
			c-0.1,0.1-0.1,0.3-0.1,0.5c0,0.2,0,0.4,0.1,0.5c0.1,0.1,0.2,0.2,0.3,0.3c0.1,0.1,0.3,0.1,0.4,0.2c0.2,0,0.3,0,0.5,0
			c0.4,0,0.8-0.1,1-0.2s0.4-0.3,0.5-0.5c0.1-0.2,0.2-0.4,0.2-0.6c0-0.2,0-0.4,0-0.5V7z"/>
		<path class="st1" d="M33.3,8.3c0,0.2,0,0.4,0.1,0.6c0.1,0.2,0.2,0.3,0.4,0.4c0.2,0.1,0.3,0.2,0.5,0.2c0.2,0.1,0.4,0.1,0.6,0.1
			c0.2,0,0.3,0,0.5-0.1c0.2,0,0.3-0.1,0.5-0.2c0.1-0.1,0.3-0.2,0.3-0.3c0.1-0.1,0.1-0.3,0.1-0.5c0-0.2-0.1-0.3-0.2-0.4
			c-0.1-0.1-0.3-0.2-0.5-0.3c-0.2-0.1-0.5-0.2-0.8-0.3s-0.7-0.2-1-0.2c-0.3-0.1-0.6-0.2-0.9-0.3c-0.3-0.1-0.6-0.2-0.8-0.4
			s-0.4-0.4-0.6-0.6s-0.2-0.5-0.2-0.9c0-0.5,0.1-0.9,0.3-1.2s0.5-0.6,0.8-0.8c0.3-0.2,0.7-0.3,1.1-0.4c0.4-0.1,0.8-0.1,1.3-0.1
			s0.8,0,1.2,0.1c0.4,0.1,0.8,0.2,1.1,0.4s0.6,0.5,0.8,0.8c0.2,0.3,0.3,0.7,0.4,1.2h-2.1c0-0.4-0.2-0.7-0.5-0.8s-0.6-0.2-1-0.2
			c-0.1,0-0.3,0-0.4,0c-0.1,0-0.3,0-0.4,0.1c-0.1,0.1-0.2,0.1-0.3,0.2c-0.1,0.1-0.1,0.2-0.1,0.4c0,0.2,0.1,0.4,0.2,0.5
			c0.1,0.1,0.3,0.2,0.6,0.3c0.2,0.1,0.5,0.1,0.8,0.2c0.3,0.1,0.6,0.1,0.9,0.2c0.3,0.1,0.6,0.2,0.9,0.3c0.3,0.1,0.6,0.2,0.8,0.4
			C38,7,38.2,7.2,38.3,7.4c0.1,0.3,0.2,0.6,0.2,0.9c0,0.5-0.1,1-0.3,1.3c-0.2,0.4-0.5,0.6-0.8,0.8c-0.3,0.2-0.7,0.4-1.2,0.5
			s-0.9,0.1-1.3,0.1c-0.5,0-0.9,0-1.3-0.1c-0.4-0.1-0.8-0.2-1.2-0.5s-0.6-0.5-0.8-0.9c-0.2-0.4-0.3-0.8-0.4-1.3H33.3z"/>
		<path class="st1" d="M41.6,7.5c0,0.7,0.2,1.2,0.5,1.5s0.8,0.5,1.4,0.5c0.4,0,0.8-0.1,1.1-0.3c0.3-0.2,0.5-0.5,0.6-0.7h1.9
			c-0.3,0.9-0.8,1.6-1.4,2c-0.6,0.4-1.4,0.6-2.3,0.6c-0.6,0-1.2-0.1-1.7-0.3c-0.5-0.2-0.9-0.5-1.3-0.9c-0.3-0.4-0.6-0.8-0.8-1.3
			c-0.2-0.5-0.3-1.1-0.3-1.7c0-0.6,0.1-1.1,0.3-1.6c0.2-0.5,0.5-1,0.8-1.3c0.4-0.4,0.8-0.7,1.3-0.9c0.5-0.2,1-0.3,1.6-0.3
			c0.7,0,1.3,0.1,1.8,0.4s0.9,0.6,1.2,1c0.3,0.4,0.6,0.9,0.7,1.5s0.2,1.1,0.2,1.8H41.6z M45.1,6.1c-0.1-0.5-0.3-1-0.5-1.3
			s-0.7-0.4-1.2-0.4c-0.3,0-0.6,0.1-0.9,0.2C42.3,4.7,42.1,4.9,42,5s-0.2,0.4-0.3,0.5S41.6,6,41.6,6.1H45.1z"/>
		<path class="st1" d="M58,10.9h-2.2V4h-2.7V2.3c0.4,0,0.7,0,1.1-0.1c0.4-0.1,0.7-0.2,1-0.4c0.3-0.2,0.5-0.4,0.7-0.7s0.3-0.6,0.4-1
			H58V10.9z"/>
	</g>
</g>
</svg>
