<!-- Generator: Adobe Illustrator 20.1.0, SVG Export Plug-In  -->
<svg version="1.1"
	 xmlns="http://www.w3.org/2000/svg" xmlns:xlink="http://www.w3.org/1999/xlink" xmlns:a="http://ns.adobe.com/AdobeSVGViewerExtensions/3.0/"
	 x="0px" y="0px" width="65.4px" height="67.6px" viewBox="0 0 65.4 67.6"
	 style="overflow:scroll;enable-background:new 0 0 65.4 67.6;" xml:space="preserve">
<style type="text/css">
	.st0{fill:#020202;}
	.st1{fill:#F6921E;}
</style>
<defs>
</defs>
<g>
	<g>
		<path class="st0" d="M5.3,25.5c0.9,0,1.5,0.2,2,0.6c0.5,0.4,0.7,1,0.7,1.7c0,0.6-0.1,1-0.4,1.5S7.1,30,6.5,30.2v0
			c0.3,0.1,0.5,0.1,0.6,0.3c0.2,0.1,0.3,0.3,0.4,0.4c0.1,0.2,0.2,0.4,0.2,0.6c0,0.2,0.1,0.4,0.1,0.6c0,0.2,0,0.4,0,0.7
			c0,0.2,0,0.5,0.1,0.7c0,0.2,0.1,0.4,0.1,0.6c0.1,0.2,0.2,0.4,0.3,0.5H7.1c-0.1-0.1-0.1-0.2-0.2-0.4s0-0.3-0.1-0.5
			c0-0.2,0-0.4,0-0.6c0-0.2,0-0.5-0.1-0.7c0-0.2-0.1-0.4-0.1-0.6c-0.1-0.2-0.1-0.4-0.2-0.5s-0.3-0.3-0.4-0.4s-0.4-0.1-0.7-0.1h-3
			v3.9H1.1v-9.1H5.3z M5.6,29.6c0.3,0,0.5-0.1,0.7-0.2c0.2-0.1,0.3-0.3,0.5-0.5s0.2-0.5,0.2-0.8c0-0.5-0.1-0.8-0.4-1.1
			c-0.3-0.3-0.7-0.4-1.2-0.4h-3v3.2h2.5C5.1,29.7,5.3,29.6,5.6,29.6z"/>
		<path class="st0" d="M14.3,34.1c-0.5,0.4-1.1,0.6-1.9,0.6c-0.5,0-1-0.1-1.4-0.3c-0.4-0.2-0.7-0.4-1-0.7c-0.3-0.3-0.5-0.7-0.6-1.1
			c-0.1-0.4-0.2-0.9-0.2-1.4c0-0.5,0.1-1,0.2-1.4s0.4-0.8,0.6-1.1s0.6-0.5,1-0.7c0.4-0.2,0.8-0.3,1.2-0.3c0.6,0,1.1,0.1,1.5,0.4
			c0.4,0.2,0.7,0.5,0.9,0.9c0.2,0.4,0.4,0.8,0.5,1.2c0.1,0.4,0.1,0.9,0.1,1.3h-4.9c0,0.3,0,0.6,0.1,0.8c0.1,0.3,0.2,0.5,0.4,0.7
			c0.2,0.2,0.4,0.4,0.6,0.5s0.6,0.2,0.9,0.2c0.5,0,0.8-0.1,1.1-0.3c0.3-0.2,0.5-0.5,0.6-1h1.1C15.1,33.2,14.8,33.8,14.3,34.1z
			 M14,29.9c-0.1-0.2-0.2-0.4-0.4-0.6c-0.2-0.2-0.4-0.3-0.6-0.4c-0.2-0.1-0.5-0.1-0.7-0.1c-0.3,0-0.5,0-0.8,0.1
			c-0.2,0.1-0.4,0.2-0.6,0.4s-0.3,0.4-0.4,0.6c-0.1,0.2-0.1,0.5-0.2,0.7h3.8C14.2,30.4,14.1,30.1,14,29.9z"/>
		<path class="st0" d="M17.3,33.1c0.1,0.2,0.2,0.3,0.4,0.4s0.4,0.2,0.6,0.2c0.2,0,0.4,0.1,0.6,0.1c0.2,0,0.3,0,0.5,0
			c0.2,0,0.4-0.1,0.5-0.1c0.2-0.1,0.3-0.2,0.4-0.3c0.1-0.1,0.2-0.3,0.2-0.5c0-0.3-0.1-0.5-0.3-0.6c-0.2-0.1-0.5-0.3-0.8-0.4
			c-0.3-0.1-0.7-0.2-1-0.2c-0.4-0.1-0.7-0.2-1-0.3c-0.3-0.1-0.6-0.3-0.8-0.6c-0.2-0.2-0.3-0.6-0.3-1c0-0.3,0.1-0.6,0.2-0.9
			c0.1-0.2,0.3-0.4,0.6-0.6s0.5-0.3,0.8-0.3c0.3-0.1,0.6-0.1,0.9-0.1c0.4,0,0.7,0,1,0.1c0.3,0.1,0.6,0.2,0.8,0.3
			c0.2,0.2,0.4,0.4,0.6,0.6c0.1,0.3,0.2,0.6,0.3,1h-1.1c0-0.2-0.1-0.4-0.2-0.5c-0.1-0.1-0.2-0.3-0.4-0.3c-0.1-0.1-0.3-0.1-0.5-0.2
			c-0.2,0-0.4-0.1-0.5-0.1c-0.2,0-0.3,0-0.5,0s-0.3,0.1-0.5,0.1c-0.1,0.1-0.2,0.1-0.3,0.3c-0.1,0.1-0.1,0.2-0.1,0.4
			c0,0.2,0.1,0.3,0.2,0.5c0.1,0.1,0.3,0.2,0.5,0.3c0.2,0.1,0.4,0.1,0.7,0.2c0.3,0.1,0.5,0.1,0.8,0.2c0.3,0.1,0.5,0.1,0.8,0.2
			c0.3,0.1,0.5,0.2,0.7,0.3c0.2,0.1,0.4,0.3,0.5,0.5s0.2,0.5,0.2,0.8c0,0.4-0.1,0.7-0.2,1c-0.2,0.3-0.4,0.5-0.6,0.6
			c-0.3,0.2-0.6,0.3-0.9,0.3c-0.3,0.1-0.7,0.1-1,0.1c-0.4,0-0.7,0-1-0.1s-0.6-0.2-0.9-0.4c-0.3-0.2-0.5-0.4-0.6-0.7
			c-0.2-0.3-0.2-0.6-0.3-1h1.1C17.1,32.7,17.2,32.9,17.3,33.1z"/>
		<path class="st0" d="M22.9,26.8v-1.3H24v1.3H22.9z M24,28v6.6h-1.1V28H24z"/>
		<path class="st0" d="M26.5,33.1c0.1,0.2,0.2,0.3,0.4,0.4s0.4,0.2,0.6,0.2c0.2,0,0.4,0.1,0.6,0.1c0.2,0,0.3,0,0.5,0
			c0.2,0,0.4-0.1,0.5-0.1c0.2-0.1,0.3-0.2,0.4-0.3c0.1-0.1,0.2-0.3,0.2-0.5c0-0.3-0.1-0.5-0.3-0.6c-0.2-0.1-0.5-0.3-0.8-0.4
			c-0.3-0.1-0.7-0.2-1-0.2c-0.4-0.1-0.7-0.2-1-0.3c-0.3-0.1-0.6-0.3-0.8-0.6c-0.2-0.2-0.3-0.6-0.3-1c0-0.3,0.1-0.6,0.2-0.9
			c0.1-0.2,0.3-0.4,0.6-0.6s0.5-0.3,0.8-0.3c0.3-0.1,0.6-0.1,0.9-0.1c0.4,0,0.7,0,1,0.1c0.3,0.1,0.6,0.2,0.8,0.3
			c0.2,0.2,0.4,0.4,0.6,0.6c0.1,0.3,0.2,0.6,0.3,1h-1.1c0-0.2-0.1-0.4-0.2-0.5c-0.1-0.1-0.2-0.3-0.4-0.3c-0.1-0.1-0.3-0.1-0.5-0.2
			c-0.2,0-0.4-0.1-0.5-0.1c-0.2,0-0.3,0-0.5,0s-0.3,0.1-0.5,0.1c-0.1,0.1-0.2,0.1-0.3,0.3c-0.1,0.1-0.1,0.2-0.1,0.4
			c0,0.2,0.1,0.3,0.2,0.5c0.1,0.1,0.3,0.2,0.5,0.3c0.2,0.1,0.4,0.1,0.7,0.2c0.3,0.1,0.5,0.1,0.8,0.2c0.3,0.1,0.5,0.1,0.8,0.2
			c0.3,0.1,0.5,0.2,0.7,0.3c0.2,0.1,0.4,0.3,0.5,0.5s0.2,0.5,0.2,0.8c0,0.4-0.1,0.7-0.2,1c-0.2,0.3-0.4,0.5-0.6,0.6
			c-0.3,0.2-0.6,0.3-0.9,0.3c-0.3,0.1-0.7,0.1-1,0.1c-0.4,0-0.7,0-1-0.1s-0.6-0.2-0.9-0.4c-0.3-0.2-0.5-0.4-0.6-0.7
			c-0.2-0.3-0.2-0.6-0.3-1h1.1C26.3,32.7,26.4,32.9,26.5,33.1z"/>
		<path class="st0" d="M34.8,28v1h-1.3V33c0,0.1,0,0.2,0,0.3c0,0.1,0.1,0.1,0.1,0.2c0.1,0,0.1,0.1,0.2,0.1c0.1,0,0.2,0,0.4,0h0.5v1
			H34c-0.3,0-0.5,0-0.7-0.1c-0.2,0-0.4-0.1-0.5-0.2c-0.1-0.1-0.2-0.2-0.3-0.4c-0.1-0.2-0.1-0.4-0.1-0.7v-4.2h-1.1v-1h1.1v-2h1.1v2
			H34.8z"/>
		<path class="st0" d="M40.7,34.1c-0.5,0.4-1.1,0.6-1.9,0.6c-0.5,0-1-0.1-1.4-0.3c-0.4-0.2-0.7-0.4-1-0.7c-0.3-0.3-0.5-0.7-0.6-1.1
			c-0.1-0.4-0.2-0.9-0.2-1.4c0-0.5,0.1-1,0.2-1.4s0.4-0.8,0.6-1.1s0.6-0.5,1-0.7c0.4-0.2,0.8-0.3,1.2-0.3c0.6,0,1.1,0.1,1.5,0.4
			c0.4,0.2,0.7,0.5,0.9,0.9c0.2,0.4,0.4,0.8,0.5,1.2c0.1,0.4,0.1,0.9,0.1,1.3h-4.9c0,0.3,0,0.6,0.1,0.8c0.1,0.3,0.2,0.5,0.4,0.7
			c0.2,0.2,0.4,0.4,0.6,0.5s0.6,0.2,0.9,0.2c0.5,0,0.8-0.1,1.1-0.3c0.3-0.2,0.5-0.5,0.6-1h1.1C41.5,33.2,41.2,33.8,40.7,34.1z
			 M40.4,29.9c-0.1-0.2-0.2-0.4-0.4-0.6c-0.2-0.2-0.4-0.3-0.6-0.4c-0.2-0.1-0.5-0.1-0.7-0.1c-0.3,0-0.5,0-0.8,0.1
			c-0.2,0.1-0.4,0.2-0.6,0.4s-0.3,0.4-0.4,0.6c-0.1,0.2-0.1,0.5-0.2,0.7h3.8C40.6,30.4,40.5,30.1,40.4,29.9z"/>
		<path class="st0" d="M43.9,28v1h0c0.4-0.8,1.2-1.2,2.1-1.2c0.4,0,0.8,0.1,1.1,0.2c0.3,0.1,0.5,0.3,0.7,0.5s0.3,0.5,0.4,0.8
			c0.1,0.3,0.1,0.6,0.1,1v4.3h-1.1v-4.5c0-0.4-0.1-0.7-0.4-1c-0.2-0.2-0.6-0.4-1-0.4c-0.3,0-0.6,0.1-0.9,0.2s-0.4,0.2-0.6,0.4
			c-0.2,0.2-0.3,0.4-0.4,0.7s-0.1,0.5-0.1,0.8v3.7h-1.1V28H43.9z"/>
		<path class="st0" d="M53.9,29.1c-0.3-0.2-0.6-0.3-1.1-0.3c-0.4,0-0.7,0.1-1,0.2c-0.3,0.1-0.5,0.3-0.6,0.6s-0.3,0.5-0.3,0.8
			s-0.1,0.6-0.1,1c0,0.3,0,0.6,0.1,0.9c0.1,0.3,0.2,0.5,0.3,0.8s0.4,0.4,0.6,0.5s0.5,0.2,0.9,0.2c0.5,0,1-0.1,1.3-0.4
			s0.5-0.7,0.6-1.2h1.1c-0.1,0.8-0.4,1.4-0.9,1.9c-0.5,0.4-1.2,0.7-2,0.7c-0.5,0-0.9-0.1-1.3-0.2s-0.7-0.4-1-0.7
			c-0.3-0.3-0.5-0.7-0.6-1.1c-0.1-0.4-0.2-0.9-0.2-1.4c0-0.5,0.1-1,0.2-1.4s0.3-0.8,0.6-1.1c0.3-0.3,0.6-0.6,1-0.8s0.8-0.3,1.4-0.3
			c0.4,0,0.7,0,1.1,0.1c0.3,0.1,0.6,0.2,0.9,0.4c0.3,0.2,0.5,0.4,0.6,0.7c0.2,0.3,0.3,0.6,0.3,1h-1.1C54.3,29.7,54.1,29.3,53.9,29.1
			z"/>
		<path class="st0" d="M56.8,26.8v-1.3h1.1v1.3H56.8z M57.9,28v6.6h-1.1V28H57.9z"/>
		<path class="st0" d="M64.7,34.7c-0.3,0-0.5-0.1-0.7-0.2s-0.2-0.4-0.2-0.8c-0.3,0.4-0.6,0.6-1,0.8c-0.4,0.2-0.8,0.2-1.3,0.2
			c-0.3,0-0.6,0-0.8-0.1c-0.3-0.1-0.5-0.2-0.7-0.3c-0.2-0.1-0.4-0.3-0.5-0.6c-0.1-0.2-0.2-0.5-0.2-0.8c0-0.4,0.1-0.7,0.2-0.9
			c0.1-0.2,0.3-0.4,0.5-0.6s0.4-0.3,0.7-0.3c0.3-0.1,0.5-0.1,0.8-0.2c0.3-0.1,0.6-0.1,0.8-0.1c0.3,0,0.5-0.1,0.7-0.1
			c0.2-0.1,0.4-0.1,0.5-0.2c0.1-0.1,0.2-0.3,0.2-0.5c0-0.2,0-0.4-0.1-0.6c-0.1-0.1-0.2-0.3-0.3-0.3s-0.3-0.1-0.5-0.2
			c-0.2,0-0.3,0-0.5,0c-0.5,0-0.8,0.1-1.1,0.3s-0.5,0.5-0.5,1h-1.1c0-0.4,0.1-0.8,0.3-1s0.4-0.5,0.6-0.7c0.3-0.2,0.5-0.3,0.9-0.4
			s0.7-0.1,1-0.1c0.3,0,0.6,0,0.9,0.1c0.3,0,0.6,0.1,0.8,0.3s0.4,0.3,0.6,0.6c0.1,0.2,0.2,0.5,0.2,0.9V33c0,0.3,0,0.4,0,0.6
			s0.1,0.2,0.3,0.2c0.1,0,0.2,0,0.3-0.1v0.8C65.2,34.6,65,34.7,64.7,34.7z M63.1,31.4c-0.2,0-0.5,0.1-0.7,0.1
			c-0.2,0-0.5,0.1-0.7,0.1c-0.2,0-0.5,0.1-0.7,0.2c-0.2,0.1-0.4,0.2-0.5,0.4s-0.2,0.4-0.2,0.6c0,0.2,0,0.3,0.1,0.5s0.2,0.2,0.3,0.3
			s0.3,0.1,0.4,0.2c0.2,0,0.3,0.1,0.5,0.1c0.4,0,0.7,0,0.9-0.1c0.3-0.1,0.5-0.2,0.6-0.4c0.2-0.1,0.3-0.3,0.4-0.5
			c0.1-0.2,0.1-0.3,0.1-0.5v-1.1C63.5,31.3,63.4,31.3,63.1,31.4z"/>
		<path class="st0" d="M5.3,50.9C5,50.5,4.8,50,4.6,49.5c-0.2-0.5-0.3-1-0.4-1.5c-0.1-0.5-0.1-1-0.1-1.6c0-1,0.2-2,0.5-3
			c0.3-1,0.8-2,1.5-2.8h0.8c-0.6,1-1,1.9-1.3,2.9c-0.3,1-0.4,1.9-0.4,3c0,1.1,0.1,2.1,0.4,3c0.3,1,0.7,1.9,1.3,2.9H6.1
			C5.8,51.9,5.5,51.4,5.3,50.9z"/>
		<path class="st0" d="M8.7,40.7v9.1H7.7v-9.1H8.7z"/>
		<path class="st0" d="M14.9,49.8v-1h0c-0.2,0.4-0.5,0.7-0.9,0.9S13.2,50,12.7,50c-0.4,0-0.8-0.1-1.1-0.2c-0.3-0.1-0.5-0.3-0.7-0.5
			c-0.2-0.2-0.3-0.5-0.4-0.8c-0.1-0.3-0.1-0.6-0.1-1v-4.3h1.1v4.5c0,0.4,0.1,0.7,0.4,1c0.2,0.2,0.6,0.4,1,0.4c0.3,0,0.6-0.1,0.9-0.2
			c0.2-0.1,0.4-0.2,0.6-0.4s0.3-0.4,0.4-0.7c0.1-0.3,0.1-0.5,0.1-0.8v-3.7h1.1v6.6H14.9z"/>
		<path class="st0" d="M21.4,44.4c-0.3-0.2-0.6-0.3-1.1-0.3c-0.4,0-0.7,0.1-1,0.2c-0.3,0.1-0.5,0.3-0.6,0.6s-0.3,0.5-0.3,0.8
			s-0.1,0.6-0.1,1c0,0.3,0,0.6,0.1,0.9c0.1,0.3,0.2,0.5,0.3,0.8s0.4,0.4,0.6,0.5s0.5,0.2,0.9,0.2c0.5,0,1-0.1,1.3-0.4
			s0.5-0.7,0.6-1.2h1.1c-0.1,0.8-0.4,1.4-0.9,1.9c-0.5,0.4-1.2,0.7-2,0.7c-0.5,0-0.9-0.1-1.3-0.2s-0.7-0.4-1-0.7
			c-0.3-0.3-0.5-0.7-0.6-1.1c-0.1-0.4-0.2-0.9-0.2-1.4c0-0.5,0.1-1,0.2-1.4s0.3-0.8,0.6-1.1c0.3-0.3,0.6-0.6,1-0.8s0.8-0.3,1.4-0.3
			c0.4,0,0.7,0,1.1,0.1c0.3,0.1,0.6,0.2,0.9,0.4c0.3,0.2,0.5,0.4,0.6,0.7c0.2,0.3,0.3,0.6,0.3,1H22C21.9,45,21.7,44.6,21.4,44.4z"/>
		<path class="st0" d="M25.4,40.7v3.5h0c0.1-0.2,0.2-0.4,0.4-0.5s0.3-0.3,0.5-0.3s0.4-0.2,0.6-0.2c0.2,0,0.4-0.1,0.6-0.1
			c0.4,0,0.8,0.1,1.1,0.2c0.3,0.1,0.5,0.3,0.7,0.5s0.3,0.5,0.4,0.8c0.1,0.3,0.1,0.6,0.1,1v4.3h-1.1v-4.5c0-0.4-0.1-0.7-0.4-1
			c-0.2-0.2-0.6-0.4-1-0.4c-0.3,0-0.6,0.1-0.9,0.2s-0.4,0.2-0.6,0.4c-0.2,0.2-0.3,0.4-0.4,0.7s-0.1,0.5-0.1,0.8v3.7h-1.1v-9.1H25.4z
			"/>
		<path class="st0" d="M36.5,50c-0.3,0-0.5-0.1-0.7-0.2s-0.2-0.4-0.2-0.8c-0.3,0.4-0.6,0.6-1,0.8c-0.4,0.2-0.8,0.2-1.3,0.2
			c-0.3,0-0.6,0-0.8-0.1c-0.3-0.1-0.5-0.2-0.7-0.3c-0.2-0.1-0.4-0.3-0.5-0.6c-0.1-0.2-0.2-0.5-0.2-0.8c0-0.4,0.1-0.7,0.2-0.9
			c0.1-0.2,0.3-0.4,0.5-0.6s0.4-0.3,0.7-0.3c0.3-0.1,0.5-0.1,0.8-0.2c0.3-0.1,0.6-0.1,0.8-0.1c0.3,0,0.5-0.1,0.7-0.1
			c0.2-0.1,0.4-0.1,0.5-0.2c0.1-0.1,0.2-0.3,0.2-0.5c0-0.2,0-0.4-0.1-0.6c-0.1-0.1-0.2-0.3-0.3-0.3s-0.3-0.1-0.5-0.2
			c-0.2,0-0.3,0-0.5,0c-0.5,0-0.8,0.1-1.1,0.3s-0.5,0.5-0.5,1h-1.1c0-0.4,0.1-0.8,0.3-1s0.4-0.5,0.6-0.7c0.3-0.2,0.5-0.3,0.9-0.4
			s0.7-0.1,1-0.1c0.3,0,0.6,0,0.9,0.1c0.3,0,0.6,0.1,0.8,0.3s0.4,0.3,0.6,0.6c0.1,0.2,0.2,0.5,0.2,0.9v3.4c0,0.3,0,0.4,0,0.6
			s0.1,0.2,0.3,0.2c0.1,0,0.2,0,0.3-0.1v0.8C37.1,49.9,36.8,50,36.5,50z M35,46.7c-0.2,0-0.5,0.1-0.7,0.1c-0.2,0-0.5,0.1-0.7,0.1
			c-0.2,0-0.5,0.1-0.7,0.2c-0.2,0.1-0.4,0.2-0.5,0.4s-0.2,0.4-0.2,0.6c0,0.2,0,0.3,0.1,0.5s0.2,0.2,0.3,0.3s0.3,0.1,0.4,0.2
			c0.2,0,0.3,0.1,0.5,0.1c0.4,0,0.7,0,0.9-0.1c0.3-0.1,0.5-0.2,0.6-0.4c0.2-0.1,0.3-0.3,0.4-0.5c0.1-0.2,0.1-0.3,0.1-0.5v-1.1
			C35.4,46.5,35.2,46.6,35,46.7z"/>
		<path class="st0" d="M45.7,44.4c-0.3-0.2-0.6-0.3-1.1-0.3c-0.4,0-0.7,0.1-1,0.2c-0.3,0.1-0.5,0.3-0.6,0.6s-0.3,0.5-0.3,0.8
			s-0.1,0.6-0.1,1c0,0.3,0,0.6,0.1,0.9c0.1,0.3,0.2,0.5,0.3,0.8s0.4,0.4,0.6,0.5s0.5,0.2,0.9,0.2c0.5,0,1-0.1,1.3-0.4
			s0.5-0.7,0.6-1.2h1.1c-0.1,0.8-0.4,1.4-0.9,1.9c-0.5,0.4-1.2,0.7-2,0.7c-0.5,0-0.9-0.1-1.3-0.2s-0.7-0.4-1-0.7
			c-0.3-0.3-0.5-0.7-0.6-1.1c-0.1-0.4-0.2-0.9-0.2-1.4c0-0.5,0.1-1,0.2-1.4s0.3-0.8,0.6-1.1c0.3-0.3,0.6-0.6,1-0.8s0.8-0.3,1.4-0.3
			c0.4,0,0.7,0,1.1,0.1c0.3,0.1,0.6,0.2,0.9,0.4c0.3,0.2,0.5,0.4,0.6,0.7c0.2,0.3,0.3,0.6,0.3,1h-1.1C46.2,45,46,44.6,45.7,44.4z"/>
		<path class="st0" d="M48.5,45.2c0.1-0.4,0.3-0.8,0.6-1.1c0.3-0.3,0.6-0.6,1-0.7c0.4-0.2,0.9-0.3,1.4-0.3c0.5,0,1,0.1,1.4,0.3
			c0.4,0.2,0.7,0.4,1,0.7c0.3,0.3,0.5,0.7,0.6,1.1c0.1,0.4,0.2,0.9,0.2,1.4c0,0.5-0.1,0.9-0.2,1.3s-0.3,0.8-0.6,1.1
			c-0.3,0.3-0.6,0.6-1,0.7C52.5,49.9,52,50,51.5,50c-0.5,0-1-0.1-1.4-0.3c-0.4-0.2-0.7-0.4-1-0.7c-0.3-0.3-0.5-0.7-0.6-1.1
			s-0.2-0.9-0.2-1.3C48.3,46.1,48.3,45.6,48.5,45.2z M49.6,47.6c0.1,0.3,0.3,0.6,0.4,0.8s0.4,0.4,0.7,0.5s0.5,0.2,0.8,0.2
			s0.5-0.1,0.8-0.2c0.3-0.1,0.5-0.3,0.7-0.5c0.2-0.2,0.3-0.5,0.4-0.8c0.1-0.3,0.2-0.7,0.2-1.1c0-0.4-0.1-0.8-0.2-1.1
			c-0.1-0.3-0.3-0.6-0.4-0.8c-0.2-0.2-0.4-0.4-0.7-0.5c-0.3-0.1-0.5-0.2-0.8-0.2s-0.5,0.1-0.8,0.2s-0.5,0.3-0.7,0.5
			c-0.2,0.2-0.3,0.5-0.4,0.8c-0.1,0.3-0.2,0.7-0.2,1.1C49.4,47,49.5,47.3,49.6,47.6z"/>
		<path class="st0" d="M57,43.3v1h0c0.4-0.8,1.2-1.2,2.1-1.2c0.4,0,0.8,0.1,1.1,0.2c0.3,0.1,0.5,0.3,0.7,0.5s0.3,0.5,0.4,0.8
			c0.1,0.3,0.1,0.6,0.1,1v4.3h-1.1v-4.5c0-0.4-0.1-0.7-0.4-1c-0.2-0.2-0.6-0.4-1-0.4c-0.3,0-0.6,0.1-0.9,0.2s-0.4,0.2-0.6,0.4
			c-0.2,0.2-0.3,0.4-0.4,0.7S57,45.8,57,46.1v3.7h-1.1v-6.6H57z"/>
		<path class="st0" d="M5,64.7c-0.5,0.4-1.1,0.6-1.9,0.6c-0.5,0-1-0.1-1.4-0.3c-0.4-0.2-0.7-0.4-1-0.7c-0.3-0.3-0.5-0.7-0.6-1.1
			C0.1,62.8,0,62.3,0,61.8c0-0.5,0.1-1,0.2-1.4s0.4-0.8,0.6-1.1s0.6-0.5,1-0.7c0.4-0.2,0.8-0.3,1.2-0.3c0.6,0,1.1,0.1,1.5,0.4
			c0.4,0.2,0.7,0.5,0.9,0.9C5.7,60,5.9,60.4,6,60.9c0.1,0.4,0.1,0.9,0.1,1.3H1.1c0,0.3,0,0.6,0.1,0.8c0.1,0.3,0.2,0.5,0.4,0.7
			C1.8,63.9,2,64,2.3,64.1s0.6,0.2,0.9,0.2c0.5,0,0.8-0.1,1.1-0.3c0.3-0.2,0.5-0.5,0.6-1H6C5.8,63.8,5.5,64.3,5,64.7z M4.8,60.5
			c-0.1-0.2-0.2-0.4-0.4-0.6c-0.2-0.2-0.4-0.3-0.6-0.4c-0.2-0.1-0.5-0.1-0.7-0.1c-0.3,0-0.5,0-0.8,0.1c-0.2,0.1-0.4,0.2-0.6,0.4
			s-0.3,0.4-0.4,0.6c-0.1,0.2-0.1,0.5-0.2,0.7h3.8C4.9,60.9,4.9,60.7,4.8,60.5z"/>
		<path class="st0" d="M8.3,56v9.1H7.3V56H8.3z"/>
		<path class="st0" d="M18.2,64.7c-0.5,0.4-1.1,0.6-1.9,0.6c-0.5,0-1-0.1-1.4-0.3c-0.4-0.2-0.7-0.4-1-0.7c-0.3-0.3-0.5-0.7-0.6-1.1
			c-0.1-0.4-0.2-0.9-0.2-1.4c0-0.5,0.1-1,0.2-1.4s0.4-0.8,0.6-1.1s0.6-0.5,1-0.7c0.4-0.2,0.8-0.3,1.2-0.3c0.6,0,1.1,0.1,1.5,0.4
			c0.4,0.2,0.7,0.5,0.9,0.9c0.2,0.4,0.4,0.8,0.5,1.2c0.1,0.4,0.1,0.9,0.1,1.3h-4.9c0,0.3,0,0.6,0.1,0.8c0.1,0.3,0.2,0.5,0.4,0.7
			c0.2,0.2,0.4,0.4,0.6,0.5s0.6,0.2,0.9,0.2c0.5,0,0.8-0.1,1.1-0.3c0.3-0.2,0.5-0.5,0.6-1h1.1C19,63.8,18.7,64.3,18.2,64.7z
			 M18,60.5c-0.1-0.2-0.2-0.4-0.4-0.6c-0.2-0.2-0.4-0.3-0.6-0.4c-0.2-0.1-0.5-0.1-0.7-0.1c-0.3,0-0.5,0-0.8,0.1
			c-0.2,0.1-0.4,0.2-0.6,0.4s-0.3,0.4-0.4,0.6c-0.1,0.2-0.1,0.5-0.2,0.7h3.8C18.1,60.9,18.1,60.7,18,60.5z"/>
		<path class="st0" d="M21.2,63.6c0.1,0.2,0.2,0.3,0.4,0.4s0.4,0.2,0.6,0.2c0.2,0,0.4,0.1,0.6,0.1c0.2,0,0.3,0,0.5,0
			c0.2,0,0.4-0.1,0.5-0.1c0.2-0.1,0.3-0.2,0.4-0.3c0.1-0.1,0.2-0.3,0.2-0.5c0-0.3-0.1-0.5-0.3-0.6c-0.2-0.1-0.5-0.3-0.8-0.4
			c-0.3-0.1-0.7-0.2-1-0.2c-0.4-0.1-0.7-0.2-1-0.3c-0.3-0.1-0.6-0.3-0.8-0.6c-0.2-0.2-0.3-0.6-0.3-1c0-0.3,0.1-0.6,0.2-0.9
			c0.1-0.2,0.3-0.4,0.6-0.6s0.5-0.3,0.8-0.3c0.3-0.1,0.6-0.1,0.9-0.1c0.4,0,0.7,0,1,0.1c0.3,0.1,0.6,0.2,0.8,0.3
			c0.2,0.2,0.4,0.4,0.6,0.6c0.1,0.3,0.2,0.6,0.3,1h-1.1c0-0.2-0.1-0.4-0.2-0.5c-0.1-0.1-0.2-0.3-0.4-0.3c-0.1-0.1-0.3-0.1-0.5-0.2
			c-0.2,0-0.4-0.1-0.5-0.1c-0.2,0-0.3,0-0.5,0s-0.3,0.1-0.5,0.1c-0.1,0.1-0.2,0.1-0.3,0.3c-0.1,0.1-0.1,0.2-0.1,0.4
			c0,0.2,0.1,0.3,0.2,0.5c0.1,0.1,0.3,0.2,0.5,0.3c0.2,0.1,0.4,0.1,0.7,0.2c0.3,0.1,0.5,0.1,0.8,0.2c0.3,0.1,0.5,0.1,0.8,0.2
			c0.3,0.1,0.5,0.2,0.7,0.3c0.2,0.1,0.4,0.3,0.5,0.5s0.2,0.5,0.2,0.8c0,0.4-0.1,0.7-0.2,1c-0.2,0.3-0.4,0.5-0.6,0.6
			c-0.3,0.2-0.6,0.3-0.9,0.3c-0.3,0.1-0.7,0.1-1,0.1c-0.4,0-0.7,0-1-0.1s-0.6-0.2-0.9-0.4c-0.3-0.2-0.5-0.4-0.6-0.7
			c-0.2-0.3-0.2-0.6-0.3-1h1.1C21.1,63.3,21.1,63.5,21.2,63.6z"/>
		<path class="st0" d="M29.6,58.5v1h-1.3v4.1c0,0.1,0,0.2,0,0.3c0,0.1,0.1,0.1,0.1,0.2c0.1,0,0.1,0.1,0.2,0.1c0.1,0,0.2,0,0.4,0h0.5
			v1h-0.8c-0.3,0-0.5,0-0.7-0.1c-0.2,0-0.4-0.1-0.5-0.2c-0.1-0.1-0.2-0.2-0.3-0.4c-0.1-0.2-0.1-0.4-0.1-0.7v-4.2h-1.1v-1h1.1v-2h1.1
			v2H29.6z"/>
		<path class="st0" d="M31.8,58.5v1.4h0c0.3-0.5,0.6-0.9,1-1.2s0.9-0.4,1.5-0.4v1.1c-0.4,0-0.8,0.1-1.1,0.2
			c-0.3,0.1-0.6,0.3-0.7,0.5c-0.2,0.2-0.3,0.5-0.4,0.8c-0.1,0.3-0.1,0.7-0.1,1.1v2.9h-1.1v-6.6H31.8z"/>
		<path class="st0" d="M39.7,64.7c-0.5,0.4-1.1,0.6-1.9,0.6c-0.5,0-1-0.1-1.4-0.3c-0.4-0.2-0.7-0.4-1-0.7c-0.3-0.3-0.5-0.7-0.6-1.1
			c-0.1-0.4-0.2-0.9-0.2-1.4c0-0.5,0.1-1,0.2-1.4s0.4-0.8,0.6-1.1s0.6-0.5,1-0.7c0.4-0.2,0.8-0.3,1.2-0.3c0.6,0,1.1,0.1,1.5,0.4
			c0.4,0.2,0.7,0.5,0.9,0.9c0.2,0.4,0.4,0.8,0.5,1.2c0.1,0.4,0.1,0.9,0.1,1.3h-4.9c0,0.3,0,0.6,0.1,0.8c0.1,0.3,0.2,0.5,0.4,0.7
			c0.2,0.2,0.4,0.4,0.6,0.5s0.6,0.2,0.9,0.2c0.5,0,0.8-0.1,1.1-0.3c0.3-0.2,0.5-0.5,0.6-1h1.1C40.5,63.8,40.2,64.3,39.7,64.7z
			 M39.4,60.5c-0.1-0.2-0.2-0.4-0.4-0.6c-0.2-0.2-0.4-0.3-0.6-0.4c-0.2-0.1-0.5-0.1-0.7-0.1c-0.3,0-0.5,0-0.8,0.1
			c-0.2,0.1-0.4,0.2-0.6,0.4s-0.3,0.4-0.4,0.6c-0.1,0.2-0.1,0.5-0.2,0.7h3.8C39.6,60.9,39.5,60.7,39.4,60.5z"/>
		<path class="st0" d="M42.7,63.6c0.1,0.2,0.2,0.3,0.4,0.4s0.4,0.2,0.6,0.2c0.2,0,0.4,0.1,0.6,0.1c0.2,0,0.3,0,0.5,0
			c0.2,0,0.4-0.1,0.5-0.1c0.2-0.1,0.3-0.2,0.4-0.3c0.1-0.1,0.2-0.3,0.2-0.5c0-0.3-0.1-0.5-0.3-0.6c-0.2-0.1-0.5-0.3-0.8-0.4
			c-0.3-0.1-0.7-0.2-1-0.2c-0.4-0.1-0.7-0.2-1-0.3c-0.3-0.1-0.6-0.3-0.8-0.6c-0.2-0.2-0.3-0.6-0.3-1c0-0.3,0.1-0.6,0.2-0.9
			c0.1-0.2,0.3-0.4,0.6-0.6s0.5-0.3,0.8-0.3c0.3-0.1,0.6-0.1,0.9-0.1c0.4,0,0.7,0,1,0.1c0.3,0.1,0.6,0.2,0.8,0.3
			c0.2,0.2,0.4,0.4,0.6,0.6c0.1,0.3,0.2,0.6,0.3,1h-1.1c0-0.2-0.1-0.4-0.2-0.5c-0.1-0.1-0.2-0.3-0.4-0.3c-0.1-0.1-0.3-0.1-0.5-0.2
			c-0.2,0-0.4-0.1-0.5-0.1c-0.2,0-0.3,0-0.5,0s-0.3,0.1-0.5,0.1c-0.1,0.1-0.2,0.1-0.3,0.3c-0.1,0.1-0.1,0.2-0.1,0.4
			c0,0.2,0.1,0.3,0.2,0.5c0.1,0.1,0.3,0.2,0.5,0.3c0.2,0.1,0.4,0.1,0.7,0.2c0.3,0.1,0.5,0.1,0.8,0.2c0.3,0.1,0.5,0.1,0.8,0.2
			c0.3,0.1,0.5,0.2,0.7,0.3c0.2,0.1,0.4,0.3,0.5,0.5s0.2,0.5,0.2,0.8c0,0.4-0.1,0.7-0.2,1c-0.2,0.3-0.4,0.5-0.6,0.6
			c-0.3,0.2-0.6,0.3-0.9,0.3c-0.3,0.1-0.7,0.1-1,0.1c-0.4,0-0.7,0-1-0.1s-0.6-0.2-0.9-0.4c-0.3-0.2-0.5-0.4-0.6-0.7
			c-0.2-0.3-0.2-0.6-0.3-1h1.1C42.5,63.3,42.6,63.5,42.7,63.6z"/>
		<path class="st0" d="M48.1,60.5c0.1-0.4,0.3-0.8,0.6-1.1c0.3-0.3,0.6-0.6,1-0.7c0.4-0.2,0.9-0.3,1.4-0.3c0.5,0,1,0.1,1.4,0.3
			c0.4,0.2,0.7,0.4,1,0.7c0.3,0.3,0.5,0.7,0.6,1.1c0.1,0.4,0.2,0.9,0.2,1.4c0,0.5-0.1,0.9-0.2,1.3s-0.3,0.8-0.6,1.1
			c-0.3,0.3-0.6,0.6-1,0.7c-0.4,0.2-0.9,0.3-1.4,0.3c-0.5,0-1-0.1-1.4-0.3c-0.4-0.2-0.7-0.4-1-0.7c-0.3-0.3-0.5-0.7-0.6-1.1
			s-0.2-0.9-0.2-1.3C47.9,61.3,47.9,60.9,48.1,60.5z M49.2,62.9c0.1,0.3,0.3,0.6,0.4,0.8s0.4,0.4,0.7,0.5s0.5,0.2,0.8,0.2
			s0.5-0.1,0.8-0.2c0.3-0.1,0.5-0.3,0.7-0.5c0.2-0.2,0.3-0.5,0.4-0.8c0.1-0.3,0.2-0.7,0.2-1.1c0-0.4-0.1-0.8-0.2-1.1
			c-0.1-0.3-0.3-0.6-0.4-0.8c-0.2-0.2-0.4-0.4-0.7-0.5c-0.3-0.1-0.5-0.2-0.8-0.2s-0.5,0.1-0.8,0.2s-0.5,0.3-0.7,0.5
			c-0.2,0.2-0.3,0.5-0.4,0.8c-0.1,0.3-0.2,0.7-0.2,1.1C49,62.2,49.1,62.6,49.2,62.9z"/>
		<path class="st0" d="M56.5,58.5v1.4h0c0.3-0.5,0.6-0.9,1-1.2s0.9-0.4,1.5-0.4v1.1c-0.4,0-0.8,0.1-1.1,0.2
			c-0.3,0.1-0.6,0.3-0.7,0.5c-0.2,0.2-0.3,0.5-0.4,0.8c-0.1,0.3-0.1,0.7-0.1,1.1v2.9h-1.1v-6.6H56.5z"/>
		<path class="st0" d="M60.1,64.8c0.3-1,0.4-2,0.4-3c0-1.1-0.1-2.1-0.4-3c-0.3-1-0.7-1.9-1.3-2.9h0.8c0.3,0.5,0.6,0.9,0.8,1.4
			c0.2,0.5,0.5,1,0.6,1.4s0.3,1,0.4,1.5c0.1,0.5,0.1,1,0.1,1.6c0,1-0.2,2-0.5,3c-0.3,1-0.8,2-1.5,2.8h-0.8
			C59.4,66.7,59.9,65.7,60.1,64.8z"/>
		<path class="st0" d="M64,60.9v-3.8h-1.4v-0.5c0.2,0,0.4,0,0.5,0c0.2,0,0.3-0.1,0.5-0.2c0.1-0.1,0.3-0.2,0.3-0.3
			c0.1-0.1,0.2-0.3,0.2-0.5h0.5v5.3H64z"/>
	</g>
</g>
<g>
	<g>
		<path class="st1" d="M10.1,0h7.7v2h-5.3v2.5h4.6v1.9h-4.6v4.5h-2.4V0z"/>
		<path class="st1" d="M18.9,5.4c0-0.5,0.2-0.9,0.4-1.3s0.5-0.6,0.9-0.8c0.3-0.2,0.7-0.3,1.2-0.4s0.9-0.1,1.3-0.1
			c0.4,0,0.8,0,1.2,0.1c0.4,0.1,0.8,0.2,1.1,0.3c0.3,0.2,0.6,0.4,0.8,0.7C25.9,4.2,26,4.6,26,5v4.1c0,0.4,0,0.7,0.1,1
			c0,0.3,0.1,0.6,0.2,0.7h-2.2c0-0.1-0.1-0.2-0.1-0.4c0-0.1,0-0.3-0.1-0.4c-0.3,0.4-0.8,0.6-1.2,0.8s-0.9,0.2-1.4,0.2
			c-0.4,0-0.7,0-1.1-0.1c-0.3-0.1-0.6-0.2-0.9-0.4c-0.2-0.2-0.4-0.4-0.6-0.7c-0.1-0.3-0.2-0.6-0.2-1.1c0-0.4,0.1-0.8,0.2-1.1
			C19,7.4,19.2,7.1,19.5,7c0.3-0.2,0.5-0.3,0.9-0.4c0.3-0.1,0.6-0.2,1-0.2c0.3-0.1,0.7-0.1,1-0.1c0.3,0,0.6-0.1,0.8-0.1
			c0.2-0.1,0.4-0.1,0.6-0.3c0.1-0.1,0.2-0.3,0.2-0.5c0-0.2,0-0.4-0.1-0.6c-0.1-0.1-0.2-0.2-0.3-0.3S23.2,4.3,23,4.3
			c-0.2,0-0.3,0-0.5,0c-0.4,0-0.8,0.1-1,0.3S21.1,5,21,5.4H18.9z M23.9,7c-0.1,0.1-0.2,0.1-0.3,0.2c-0.1,0-0.3,0.1-0.4,0.1
			c-0.2,0-0.3,0.1-0.5,0.1c-0.2,0-0.3,0-0.5,0.1c-0.2,0-0.3,0.1-0.5,0.1s-0.3,0.1-0.4,0.2C21.1,7.9,21,8,20.9,8.2
			c-0.1,0.1-0.1,0.3-0.1,0.5c0,0.2,0,0.4,0.1,0.5c0.1,0.1,0.2,0.2,0.3,0.3c0.1,0.1,0.3,0.1,0.4,0.2c0.2,0,0.3,0,0.5,0
			c0.4,0,0.8-0.1,1-0.2s0.4-0.3,0.5-0.5c0.1-0.2,0.2-0.4,0.2-0.6c0-0.2,0-0.4,0-0.5V7z"/>
		<path class="st1" d="M29.4,8.3c0,0.2,0,0.4,0.1,0.6c0.1,0.2,0.2,0.3,0.4,0.4c0.2,0.1,0.3,0.2,0.5,0.2c0.2,0.1,0.4,0.1,0.6,0.1
			c0.2,0,0.3,0,0.5-0.1c0.2,0,0.3-0.1,0.5-0.2c0.1-0.1,0.3-0.2,0.3-0.3c0.1-0.1,0.1-0.3,0.1-0.5c0-0.2-0.1-0.3-0.2-0.4
			c-0.1-0.1-0.3-0.2-0.5-0.3c-0.2-0.1-0.5-0.2-0.8-0.3s-0.7-0.2-1-0.2c-0.3-0.1-0.6-0.2-0.9-0.3c-0.3-0.1-0.6-0.2-0.8-0.4
			s-0.4-0.4-0.6-0.6s-0.2-0.5-0.2-0.9c0-0.5,0.1-0.9,0.3-1.2s0.5-0.6,0.8-0.8c0.3-0.2,0.7-0.3,1.1-0.4c0.4-0.1,0.8-0.1,1.3-0.1
			s0.8,0,1.2,0.1C32.6,3,33,3.1,33.3,3.3s0.6,0.5,0.8,0.8c0.2,0.3,0.3,0.7,0.4,1.2h-2.1c0-0.4-0.2-0.7-0.5-0.8s-0.6-0.2-1-0.2
			c-0.1,0-0.3,0-0.4,0c-0.1,0-0.3,0-0.4,0.1c-0.1,0.1-0.2,0.1-0.3,0.2c-0.1,0.1-0.1,0.2-0.1,0.4c0,0.2,0.1,0.4,0.2,0.5
			c0.1,0.1,0.3,0.2,0.6,0.3C30.7,5.8,31,5.9,31.3,6c0.3,0.1,0.6,0.1,0.9,0.2c0.3,0.1,0.6,0.2,0.9,0.3c0.3,0.1,0.6,0.2,0.8,0.4
			c0.2,0.2,0.4,0.4,0.6,0.6c0.1,0.3,0.2,0.6,0.2,0.9c0,0.5-0.1,1-0.3,1.3c-0.2,0.4-0.5,0.6-0.8,0.8c-0.3,0.2-0.7,0.4-1.2,0.5
			s-0.9,0.1-1.3,0.1c-0.5,0-0.9,0-1.3-0.1c-0.4-0.1-0.8-0.2-1.2-0.5s-0.6-0.5-0.8-0.9c-0.2-0.4-0.3-0.8-0.4-1.3H29.4z"/>
		<path class="st1" d="M37.7,7.5c0,0.7,0.2,1.2,0.5,1.5s0.8,0.5,1.4,0.5c0.4,0,0.8-0.1,1.1-0.3c0.3-0.2,0.5-0.5,0.6-0.7h1.9
			c-0.3,0.9-0.8,1.6-1.4,2c-0.6,0.4-1.4,0.6-2.3,0.6c-0.6,0-1.2-0.1-1.7-0.3c-0.5-0.2-0.9-0.5-1.3-0.9c-0.3-0.4-0.6-0.8-0.8-1.3
			c-0.2-0.5-0.3-1.1-0.3-1.7c0-0.6,0.1-1.1,0.3-1.6c0.2-0.5,0.5-1,0.8-1.3c0.4-0.4,0.8-0.7,1.3-0.9c0.5-0.2,1-0.3,1.6-0.3
			c0.7,0,1.3,0.1,1.8,0.4s0.9,0.6,1.2,1c0.3,0.4,0.6,0.9,0.7,1.5s0.2,1.1,0.2,1.8H37.7z M41.2,6.1c-0.1-0.5-0.3-1-0.5-1.3
			s-0.7-0.4-1.2-0.4c-0.3,0-0.6,0.1-0.9,0.2c-0.2,0.1-0.4,0.3-0.5,0.4s-0.2,0.4-0.3,0.5S37.7,6,37.7,6.1H41.2z"/>
		<path class="st1" d="M48.7,4.3c0-0.6,0.1-1.2,0.2-1.7c0.2-0.5,0.4-1,0.7-1.4c0.3-0.4,0.7-0.7,1.2-0.9S51.9,0,52.6,0
			c0.5,0,1,0.1,1.4,0.2c0.4,0.2,0.8,0.4,1.2,0.7c0.3,0.3,0.6,0.6,0.8,1.1s0.3,0.9,0.3,1.4c0,0.4-0.1,0.8-0.2,1.1
			C56,4.7,55.8,5,55.7,5.3c-0.2,0.3-0.4,0.5-0.6,0.7c-0.2,0.2-0.5,0.4-0.7,0.6c-0.3,0.2-0.5,0.4-0.8,0.5c-0.3,0.2-0.6,0.4-0.8,0.6
			c-0.3,0.2-0.5,0.4-0.8,0.6c-0.3,0.2-0.5,0.5-0.7,0.7h5.1v1.9h-7.9c0-0.6,0.1-1.2,0.3-1.6c0.2-0.5,0.4-0.9,0.7-1.2s0.7-0.7,1.1-1
			s0.8-0.6,1.3-0.9c0.2-0.2,0.5-0.3,0.7-0.5c0.3-0.2,0.5-0.4,0.7-0.6c0.2-0.2,0.4-0.4,0.6-0.7c0.1-0.3,0.2-0.5,0.2-0.9
			c0-0.5-0.2-0.9-0.5-1.2c-0.3-0.3-0.7-0.4-1.2-0.4c-0.3,0-0.6,0.1-0.8,0.2c-0.2,0.2-0.4,0.3-0.5,0.6c-0.1,0.2-0.2,0.5-0.3,0.8
			c-0.1,0.3-0.1,0.6-0.1,0.9H48.7z"/>
	</g>
</g>
</svg>
