<!-- Generator: Adobe Illustrator 20.1.0, SVG Export Plug-In  -->
<svg version="1.1"
	 xmlns="http://www.w3.org/2000/svg" xmlns:xlink="http://www.w3.org/1999/xlink" xmlns:a="http://ns.adobe.com/AdobeSVGViewerExtensions/3.0/"
	 x="0px" y="0px" width="113.1px" height="52.5px" viewBox="0 0 113.1 52.5"
	 style="overflow:scroll;enable-background:new 0 0 113.1 52.5;" xml:space="preserve">
<style type="text/css">
	.st0{fill:#020202;}
	.st1{fill:#F6921E;}
</style>
<defs>
</defs>
<g>
	<g>
		<path class="st0" d="M25.5,25.5l3.6,9.1h-1.3l-1-2.7h-3.8l-1,2.7h-1.2l3.5-9.1H25.5z M26.3,30.8l-1.5-4.2h0l-1.5,4.2H26.3z"/>
		<path class="st0" d="M34.7,36.4c-0.5,0.5-1.3,0.8-2.3,0.8c-0.3,0-0.6,0-0.9-0.1c-0.3-0.1-0.6-0.2-0.9-0.3
			c-0.3-0.2-0.5-0.4-0.6-0.6s-0.3-0.5-0.3-0.9h1.1c0,0.2,0.1,0.4,0.2,0.5s0.3,0.2,0.4,0.3c0.2,0.1,0.3,0.1,0.5,0.2
			c0.2,0,0.4,0.1,0.6,0.1c0.4,0,0.7-0.1,0.9-0.2c0.2-0.1,0.4-0.3,0.6-0.5c0.2-0.2,0.3-0.5,0.4-0.8s0.1-0.6,0.1-1v-0.4h0
			c-0.2,0.4-0.5,0.7-0.8,0.9c-0.4,0.2-0.8,0.3-1.2,0.3c-0.5,0-0.9-0.1-1.3-0.3c-0.4-0.2-0.7-0.4-0.9-0.7c-0.2-0.3-0.4-0.7-0.6-1.1
			c-0.1-0.4-0.2-0.8-0.2-1.3c0-0.4,0.1-0.8,0.2-1.2c0.1-0.4,0.3-0.8,0.5-1.1c0.2-0.3,0.6-0.6,0.9-0.8c0.4-0.2,0.9-0.3,1.4-0.3
			c0.4,0,0.8,0.1,1.1,0.3s0.6,0.5,0.8,0.8h0V28h1v6C35.4,35.1,35.2,35.9,34.7,36.4z M33.3,33.5c0.3-0.1,0.5-0.3,0.6-0.6
			c0.2-0.2,0.3-0.5,0.3-0.8c0.1-0.3,0.1-0.6,0.1-0.9c0-0.3,0-0.6-0.1-0.9s-0.2-0.5-0.3-0.8c-0.1-0.2-0.3-0.4-0.6-0.5
			c-0.2-0.1-0.5-0.2-0.9-0.2c-0.3,0-0.6,0.1-0.9,0.2s-0.4,0.3-0.6,0.5c-0.2,0.2-0.3,0.5-0.3,0.8c-0.1,0.3-0.1,0.6-0.1,0.9
			c0,0.3,0,0.6,0.1,0.9c0.1,0.3,0.2,0.6,0.3,0.8c0.1,0.2,0.3,0.4,0.6,0.6c0.2,0.1,0.5,0.2,0.9,0.2S33,33.6,33.3,33.5z"/>
		<path class="st0" d="M36.9,29.9c0.1-0.4,0.3-0.8,0.6-1.1c0.3-0.3,0.6-0.6,1-0.7c0.4-0.2,0.9-0.3,1.4-0.3c0.5,0,1,0.1,1.4,0.3
			c0.4,0.2,0.7,0.4,1,0.7c0.3,0.3,0.5,0.7,0.6,1.1c0.1,0.4,0.2,0.9,0.2,1.4c0,0.5-0.1,0.9-0.2,1.3s-0.3,0.8-0.6,1.1
			c-0.3,0.3-0.6,0.6-1,0.7c-0.4,0.2-0.9,0.3-1.4,0.3c-0.5,0-1-0.1-1.4-0.3c-0.4-0.2-0.7-0.4-1-0.7c-0.3-0.3-0.5-0.7-0.6-1.1
			s-0.2-0.9-0.2-1.3C36.7,30.8,36.8,30.3,36.9,29.9z M38,32.3c0.1,0.3,0.3,0.6,0.4,0.8s0.4,0.4,0.7,0.5s0.5,0.2,0.8,0.2
			s0.5-0.1,0.8-0.2c0.3-0.1,0.5-0.3,0.7-0.5c0.2-0.2,0.3-0.5,0.4-0.8c0.1-0.3,0.2-0.7,0.2-1.1c0-0.4-0.1-0.8-0.2-1.1
			c-0.1-0.3-0.3-0.6-0.4-0.8c-0.2-0.2-0.4-0.4-0.7-0.5c-0.3-0.1-0.5-0.2-0.8-0.2s-0.5,0.1-0.8,0.2s-0.5,0.3-0.7,0.5
			c-0.2,0.2-0.3,0.5-0.4,0.8c-0.1,0.3-0.2,0.7-0.2,1.1C37.8,31.7,37.9,32,38,32.3z"/>
		<path class="st0" d="M47.2,28v1h-1.3V33c0,0.1,0,0.2,0,0.3c0,0.1,0.1,0.1,0.1,0.2c0.1,0,0.1,0.1,0.2,0.1c0.1,0,0.2,0,0.4,0h0.5v1
			h-0.8c-0.3,0-0.5,0-0.7-0.1c-0.2,0-0.4-0.1-0.5-0.2c-0.1-0.1-0.2-0.2-0.3-0.4c-0.1-0.2-0.1-0.4-0.1-0.7v-4.2h-1.1v-1h1.1v-2h1.1v2
			H47.2z"/>
		<path class="st0" d="M53.4,34.7c-0.3,0-0.5-0.1-0.7-0.2s-0.2-0.4-0.2-0.8c-0.3,0.4-0.6,0.6-1,0.8c-0.4,0.2-0.8,0.2-1.3,0.2
			c-0.3,0-0.6,0-0.8-0.1c-0.3-0.1-0.5-0.2-0.7-0.3c-0.2-0.1-0.4-0.3-0.5-0.6c-0.1-0.2-0.2-0.5-0.2-0.8c0-0.4,0.1-0.7,0.2-0.9
			c0.1-0.2,0.3-0.4,0.5-0.6s0.4-0.3,0.7-0.3c0.3-0.1,0.5-0.1,0.8-0.2c0.3-0.1,0.6-0.1,0.8-0.1c0.3,0,0.5-0.1,0.7-0.1
			c0.2-0.1,0.4-0.1,0.5-0.2c0.1-0.1,0.2-0.3,0.2-0.5c0-0.2,0-0.4-0.1-0.6C52.2,29.2,52.1,29,52,29s-0.3-0.1-0.5-0.2
			c-0.2,0-0.3,0-0.5,0c-0.5,0-0.8,0.1-1.1,0.3s-0.5,0.5-0.5,1h-1.1c0-0.4,0.1-0.8,0.3-1s0.4-0.5,0.6-0.7c0.3-0.2,0.5-0.3,0.9-0.4
			s0.7-0.1,1-0.1c0.3,0,0.6,0,0.9,0.1c0.3,0,0.6,0.1,0.8,0.3s0.4,0.3,0.6,0.6c0.1,0.2,0.2,0.5,0.2,0.9V33c0,0.3,0,0.4,0,0.6
			s0.1,0.2,0.3,0.2c0.1,0,0.2,0,0.3-0.1v0.8C54,34.6,53.8,34.7,53.4,34.7z M51.9,31.4c-0.2,0-0.5,0.1-0.7,0.1
			c-0.2,0-0.5,0.1-0.7,0.1c-0.2,0-0.5,0.1-0.7,0.2c-0.2,0.1-0.4,0.2-0.5,0.4s-0.2,0.4-0.2,0.6c0,0.2,0,0.3,0.1,0.5s0.2,0.2,0.3,0.3
			s0.3,0.1,0.4,0.2c0.2,0,0.3,0.1,0.5,0.1c0.4,0,0.7,0,0.9-0.1c0.3-0.1,0.5-0.2,0.6-0.4c0.2-0.1,0.3-0.3,0.4-0.5
			c0.1-0.2,0.1-0.3,0.1-0.5v-1.1C52.3,31.3,52.1,31.3,51.9,31.4z"/>
		<path class="st0" d="M56.2,28v1h0c0.5-0.7,1.2-1.1,2.1-1.1c0.4,0,0.8,0.1,1.1,0.3c0.3,0.2,0.6,0.5,0.7,0.9
			c0.2-0.4,0.5-0.6,0.9-0.8s0.8-0.3,1.2-0.3c0.3,0,0.6,0,0.9,0.1c0.3,0.1,0.5,0.2,0.7,0.3s0.3,0.4,0.4,0.6c0.1,0.2,0.2,0.5,0.2,0.9
			v4.8h-1.1v-4.3c0-0.2,0-0.4-0.1-0.6c0-0.2-0.1-0.3-0.2-0.5c-0.1-0.1-0.2-0.2-0.4-0.3s-0.4-0.1-0.6-0.1c-0.5,0-1,0.2-1.3,0.5
			s-0.5,0.7-0.5,1.2v4.1h-1.1v-4.3c0-0.2,0-0.4-0.1-0.6c0-0.2-0.1-0.3-0.2-0.5c-0.1-0.1-0.2-0.2-0.4-0.3c-0.2-0.1-0.4-0.1-0.6-0.1
			c-0.3,0-0.6,0.1-0.8,0.2c-0.2,0.1-0.4,0.3-0.5,0.5c-0.1,0.2-0.2,0.4-0.3,0.6c-0.1,0.2-0.1,0.3-0.1,0.5v4.1h-1.1V28H56.2z"/>
		<path class="st0" d="M66.1,26.8v-1.3h1.1v1.3H66.1z M67.2,28v6.6h-1.1V28H67.2z"/>
		<path class="st0" d="M73.6,34.1c-0.5,0.4-1.1,0.6-1.9,0.6c-0.5,0-1-0.1-1.4-0.3c-0.4-0.2-0.7-0.4-1-0.7c-0.3-0.3-0.5-0.7-0.6-1.1
			c-0.1-0.4-0.2-0.9-0.2-1.4c0-0.5,0.1-1,0.2-1.4s0.4-0.8,0.6-1.1s0.6-0.5,1-0.7c0.4-0.2,0.8-0.3,1.2-0.3c0.6,0,1.1,0.1,1.5,0.4
			c0.4,0.2,0.7,0.5,0.9,0.9c0.2,0.4,0.4,0.8,0.5,1.2c0.1,0.4,0.1,0.9,0.1,1.3h-4.9c0,0.3,0,0.6,0.1,0.8c0.1,0.3,0.2,0.5,0.4,0.7
			c0.2,0.2,0.4,0.4,0.6,0.5s0.6,0.2,0.9,0.2c0.5,0,0.8-0.1,1.1-0.3c0.3-0.2,0.5-0.5,0.6-1h1.1C74.4,33.2,74,33.8,73.6,34.1z
			 M73.3,29.9c-0.1-0.2-0.2-0.4-0.4-0.6c-0.2-0.2-0.4-0.3-0.6-0.4c-0.2-0.1-0.5-0.1-0.7-0.1c-0.3,0-0.5,0-0.8,0.1
			c-0.2,0.1-0.4,0.2-0.6,0.4s-0.3,0.4-0.4,0.6c-0.1,0.2-0.1,0.5-0.2,0.7h3.8C73.4,30.4,73.4,30.1,73.3,29.9z"/>
		<path class="st0" d="M76.7,28v1h0c0.4-0.8,1.2-1.2,2.1-1.2c0.4,0,0.8,0.1,1.1,0.2c0.3,0.1,0.5,0.3,0.7,0.5s0.3,0.5,0.4,0.8
			c0.1,0.3,0.1,0.6,0.1,1v4.3h-1.1v-4.5c0-0.4-0.1-0.7-0.4-1c-0.2-0.2-0.6-0.4-1-0.4c-0.3,0-0.6,0.1-0.9,0.2s-0.4,0.2-0.6,0.4
			c-0.2,0.2-0.3,0.4-0.4,0.7s-0.1,0.5-0.1,0.8v3.7h-1.1V28H76.7z"/>
		<path class="st0" d="M85.6,28v1h-1.3V33c0,0.1,0,0.2,0,0.3c0,0.1,0.1,0.1,0.1,0.2c0.1,0,0.1,0.1,0.2,0.1c0.1,0,0.2,0,0.4,0h0.5v1
			h-0.8c-0.3,0-0.5,0-0.7-0.1c-0.2,0-0.4-0.1-0.5-0.2c-0.1-0.1-0.2-0.2-0.3-0.4c-0.1-0.2-0.1-0.4-0.1-0.7v-4.2h-1.1v-1h1.1v-2h1.1v2
			H85.6z"/>
		<path class="st0" d="M86.7,29.9c0.1-0.4,0.3-0.8,0.6-1.1c0.3-0.3,0.6-0.6,1-0.7c0.4-0.2,0.9-0.3,1.4-0.3c0.5,0,1,0.1,1.4,0.3
			c0.4,0.2,0.7,0.4,1,0.7c0.3,0.3,0.5,0.7,0.6,1.1c0.1,0.4,0.2,0.9,0.2,1.4c0,0.5-0.1,0.9-0.2,1.3s-0.3,0.8-0.6,1.1
			c-0.3,0.3-0.6,0.6-1,0.7c-0.4,0.2-0.9,0.3-1.4,0.3c-0.5,0-1-0.1-1.4-0.3c-0.4-0.2-0.7-0.4-1-0.7c-0.3-0.3-0.5-0.7-0.6-1.1
			s-0.2-0.9-0.2-1.3C86.5,30.8,86.5,30.3,86.7,29.9z M87.8,32.3c0.1,0.3,0.3,0.6,0.4,0.8s0.4,0.4,0.7,0.5s0.5,0.2,0.8,0.2
			s0.5-0.1,0.8-0.2c0.3-0.1,0.5-0.3,0.7-0.5c0.2-0.2,0.3-0.5,0.4-0.8c0.1-0.3,0.2-0.7,0.2-1.1c0-0.4-0.1-0.8-0.2-1.1
			c-0.1-0.3-0.3-0.6-0.4-0.8c-0.2-0.2-0.4-0.4-0.7-0.5c-0.3-0.1-0.5-0.2-0.8-0.2s-0.5,0.1-0.8,0.2s-0.5,0.3-0.7,0.5
			c-0.2,0.2-0.3,0.5-0.4,0.8c-0.1,0.3-0.2,0.7-0.2,1.1C87.6,31.7,87.7,32,87.8,32.3z"/>
		<path class="st0" d="M1.2,50.9c-0.2-0.5-0.5-0.9-0.6-1.4c-0.2-0.5-0.3-1-0.4-1.5C0,47.5,0,47,0,46.4c0-1,0.2-2,0.5-3
			c0.3-1,0.8-2,1.5-2.8h0.8c-0.6,1-1,1.9-1.3,2.9c-0.3,1-0.4,1.9-0.4,3c0,1.1,0.1,2.1,0.4,3c0.3,1,0.7,1.9,1.3,2.9H2
			C1.7,51.9,1.4,51.4,1.2,50.9z"/>
		<path class="st0" d="M4.5,43.3v1.4h0c0.3-0.5,0.6-0.9,1-1.2s0.9-0.4,1.5-0.4v1.1c-0.4,0-0.8,0.1-1.1,0.2c-0.3,0.1-0.6,0.3-0.7,0.5
			c-0.2,0.2-0.3,0.5-0.4,0.8c-0.1,0.3-0.1,0.7-0.1,1.1v2.9H3.5v-6.6H4.5z"/>
		<path class="st0" d="M12.4,49.4c-0.5,0.4-1.1,0.6-1.9,0.6c-0.5,0-1-0.1-1.4-0.3c-0.4-0.2-0.7-0.4-1-0.7c-0.3-0.3-0.5-0.7-0.6-1.1
			c-0.1-0.4-0.2-0.9-0.2-1.4c0-0.5,0.1-1,0.2-1.4s0.4-0.8,0.6-1.1s0.6-0.5,1-0.7c0.4-0.2,0.8-0.3,1.2-0.3c0.6,0,1.1,0.1,1.5,0.4
			c0.4,0.2,0.7,0.5,0.9,0.9c0.2,0.4,0.4,0.8,0.5,1.2c0.1,0.4,0.1,0.9,0.1,1.3H8.5c0,0.3,0,0.6,0.1,0.8c0.1,0.3,0.2,0.5,0.4,0.7
			c0.2,0.2,0.4,0.4,0.6,0.5s0.6,0.2,0.9,0.2c0.5,0,0.8-0.1,1.1-0.3c0.3-0.2,0.5-0.5,0.6-1h1.1C13.2,48.5,12.9,49,12.4,49.4z
			 M12.2,45.2c-0.1-0.2-0.2-0.4-0.4-0.6c-0.2-0.2-0.4-0.3-0.6-0.4c-0.2-0.1-0.5-0.1-0.7-0.1c-0.3,0-0.5,0-0.8,0.1
			c-0.2,0.1-0.4,0.2-0.6,0.4S8.8,45,8.7,45.2c-0.1,0.2-0.1,0.5-0.2,0.7h3.8C12.3,45.7,12.3,45.4,12.2,45.2z"/>
		<path class="st0" d="M15.4,48.4c0.1,0.2,0.2,0.3,0.4,0.4s0.4,0.2,0.6,0.2c0.2,0,0.4,0.1,0.6,0.1c0.2,0,0.3,0,0.5,0
			c0.2,0,0.4-0.1,0.5-0.1c0.2-0.1,0.3-0.2,0.4-0.3c0.1-0.1,0.2-0.3,0.2-0.5c0-0.3-0.1-0.5-0.3-0.6c-0.2-0.1-0.5-0.3-0.8-0.4
			c-0.3-0.1-0.7-0.2-1-0.2c-0.4-0.1-0.7-0.2-1-0.3c-0.3-0.1-0.6-0.3-0.8-0.6c-0.2-0.2-0.3-0.6-0.3-1c0-0.3,0.1-0.6,0.2-0.9
			c0.1-0.2,0.3-0.4,0.6-0.6s0.5-0.3,0.8-0.3c0.3-0.1,0.6-0.1,0.9-0.1c0.4,0,0.7,0,1,0.1c0.3,0.1,0.6,0.2,0.8,0.3
			c0.2,0.2,0.4,0.4,0.6,0.6c0.1,0.3,0.2,0.6,0.3,1h-1.1c0-0.2-0.1-0.4-0.2-0.5c-0.1-0.1-0.2-0.3-0.4-0.3c-0.1-0.1-0.3-0.1-0.5-0.2
			c-0.2,0-0.4-0.1-0.5-0.1c-0.2,0-0.3,0-0.5,0s-0.3,0.1-0.5,0.1c-0.1,0.1-0.2,0.1-0.3,0.3c-0.1,0.1-0.1,0.2-0.1,0.4
			c0,0.2,0.1,0.3,0.2,0.5c0.1,0.1,0.3,0.2,0.5,0.3c0.2,0.1,0.4,0.1,0.7,0.2c0.3,0.1,0.5,0.1,0.8,0.2c0.3,0.1,0.5,0.1,0.8,0.2
			c0.3,0.1,0.5,0.2,0.7,0.3c0.2,0.1,0.4,0.3,0.5,0.5s0.2,0.5,0.2,0.8c0,0.4-0.1,0.7-0.2,1c-0.2,0.3-0.4,0.5-0.6,0.6
			c-0.3,0.2-0.6,0.3-0.9,0.3c-0.3,0.1-0.7,0.1-1,0.1c-0.4,0-0.7,0-1-0.1s-0.6-0.2-0.9-0.4c-0.3-0.2-0.5-0.4-0.6-0.7
			c-0.2-0.3-0.2-0.6-0.3-1h1.1C15.3,48,15.3,48.2,15.4,48.4z"/>
		<path class="st0" d="M25.6,49.4c-0.5,0.4-1.1,0.6-1.9,0.6c-0.5,0-1-0.1-1.4-0.3c-0.4-0.2-0.7-0.4-1-0.7c-0.3-0.3-0.5-0.7-0.6-1.1
			c-0.1-0.4-0.2-0.9-0.2-1.4c0-0.5,0.1-1,0.2-1.4s0.4-0.8,0.6-1.1s0.6-0.5,1-0.7c0.4-0.2,0.8-0.3,1.2-0.3c0.6,0,1.1,0.1,1.5,0.4
			c0.4,0.2,0.7,0.5,0.9,0.9c0.2,0.4,0.4,0.8,0.5,1.2c0.1,0.4,0.1,0.9,0.1,1.3h-4.9c0,0.3,0,0.6,0.1,0.8c0.1,0.3,0.2,0.5,0.4,0.7
			c0.2,0.2,0.4,0.4,0.6,0.5s0.6,0.2,0.9,0.2c0.5,0,0.8-0.1,1.1-0.3c0.3-0.2,0.5-0.5,0.6-1h1.1C26.4,48.5,26.1,49,25.6,49.4z
			 M25.4,45.2c-0.1-0.2-0.2-0.4-0.4-0.6c-0.2-0.2-0.4-0.3-0.6-0.4c-0.2-0.1-0.5-0.1-0.7-0.1c-0.3,0-0.5,0-0.8,0.1
			c-0.2,0.1-0.4,0.2-0.6,0.4S22,45,21.9,45.2c-0.1,0.2-0.1,0.5-0.2,0.7h3.8C25.5,45.7,25.5,45.4,25.4,45.2z"/>
		<path class="st0" d="M28.8,43.3v1.4h0c0.3-0.5,0.6-0.9,1-1.2s0.9-0.4,1.5-0.4v1.1c-0.4,0-0.8,0.1-1.1,0.2
			c-0.3,0.1-0.6,0.3-0.7,0.5c-0.2,0.2-0.3,0.5-0.4,0.8c-0.1,0.3-0.1,0.7-0.1,1.1v2.9h-1.1v-6.6H28.8z"/>
		<path class="st0" d="M33.8,49.8l-2.4-6.6h1.2l1.8,5.5h0l1.8-5.5h1.1L35,49.8H33.8z"/>
		<path class="st0" d="M43.5,50c-0.3,0-0.5-0.1-0.7-0.2s-0.2-0.4-0.2-0.8c-0.3,0.4-0.6,0.6-1,0.8c-0.4,0.2-0.8,0.2-1.3,0.2
			c-0.3,0-0.6,0-0.8-0.1c-0.3-0.1-0.5-0.2-0.7-0.3c-0.2-0.1-0.4-0.3-0.5-0.6c-0.1-0.2-0.2-0.5-0.2-0.8c0-0.4,0.1-0.7,0.2-0.9
			c0.1-0.2,0.3-0.4,0.5-0.6s0.4-0.3,0.7-0.3c0.3-0.1,0.5-0.1,0.8-0.2c0.3-0.1,0.6-0.1,0.8-0.1c0.3,0,0.5-0.1,0.7-0.1
			c0.2-0.1,0.4-0.1,0.5-0.2c0.1-0.1,0.2-0.3,0.2-0.5c0-0.2,0-0.4-0.1-0.6c-0.1-0.1-0.2-0.3-0.3-0.3s-0.3-0.1-0.5-0.2
			c-0.2,0-0.3,0-0.5,0c-0.5,0-0.8,0.1-1.1,0.3s-0.5,0.5-0.5,1h-1.1c0-0.4,0.1-0.8,0.3-1s0.4-0.5,0.6-0.7c0.3-0.2,0.5-0.3,0.9-0.4
			s0.7-0.1,1-0.1c0.3,0,0.6,0,0.9,0.1c0.3,0,0.6,0.1,0.8,0.3s0.4,0.3,0.6,0.6c0.1,0.2,0.2,0.5,0.2,0.9v3.4c0,0.3,0,0.4,0,0.6
			s0.1,0.2,0.3,0.2c0.1,0,0.2,0,0.3-0.1v0.8C44,49.9,43.8,50,43.5,50z M41.9,46.7c-0.2,0-0.5,0.1-0.7,0.1c-0.2,0-0.5,0.1-0.7,0.1
			c-0.2,0-0.5,0.1-0.7,0.2c-0.2,0.1-0.4,0.2-0.5,0.4s-0.2,0.4-0.2,0.6c0,0.2,0,0.3,0.1,0.5s0.2,0.2,0.3,0.3s0.3,0.1,0.4,0.2
			c0.2,0,0.3,0.1,0.5,0.1c0.4,0,0.7,0,0.9-0.1c0.3-0.1,0.5-0.2,0.6-0.4c0.2-0.1,0.3-0.3,0.4-0.5c0.1-0.2,0.1-0.3,0.1-0.5v-1.1
			C42.3,46.5,42.2,46.6,41.9,46.7z"/>
		<path class="st0" d="M46.1,48.4c0.1,0.2,0.2,0.3,0.4,0.4s0.4,0.2,0.6,0.2c0.2,0,0.4,0.1,0.6,0.1c0.2,0,0.3,0,0.5,0
			c0.2,0,0.4-0.1,0.5-0.1c0.2-0.1,0.3-0.2,0.4-0.3c0.1-0.1,0.2-0.3,0.2-0.5c0-0.3-0.1-0.5-0.3-0.6c-0.2-0.1-0.5-0.3-0.8-0.4
			c-0.3-0.1-0.7-0.2-1-0.2c-0.4-0.1-0.7-0.2-1-0.3c-0.3-0.1-0.6-0.3-0.8-0.6c-0.2-0.2-0.3-0.6-0.3-1c0-0.3,0.1-0.6,0.2-0.9
			c0.1-0.2,0.3-0.4,0.6-0.6s0.5-0.3,0.8-0.3c0.3-0.1,0.6-0.1,0.9-0.1c0.4,0,0.7,0,1,0.1c0.3,0.1,0.6,0.2,0.8,0.3
			c0.2,0.2,0.4,0.4,0.6,0.6c0.1,0.3,0.2,0.6,0.3,1H49c0-0.2-0.1-0.4-0.2-0.5c-0.1-0.1-0.2-0.3-0.4-0.3c-0.1-0.1-0.3-0.1-0.5-0.2
			c-0.2,0-0.4-0.1-0.5-0.1c-0.2,0-0.3,0-0.5,0s-0.3,0.1-0.5,0.1c-0.1,0.1-0.2,0.1-0.3,0.3c-0.1,0.1-0.1,0.2-0.1,0.4
			c0,0.2,0.1,0.3,0.2,0.5c0.1,0.1,0.3,0.2,0.5,0.3c0.2,0.1,0.4,0.1,0.7,0.2c0.3,0.1,0.5,0.1,0.8,0.2c0.3,0.1,0.5,0.1,0.8,0.2
			c0.3,0.1,0.5,0.2,0.7,0.3c0.2,0.1,0.4,0.3,0.5,0.5s0.2,0.5,0.2,0.8c0,0.4-0.1,0.7-0.2,1c-0.2,0.3-0.4,0.5-0.6,0.6
			c-0.3,0.2-0.6,0.3-0.9,0.3c-0.3,0.1-0.7,0.1-1,0.1c-0.4,0-0.7,0-1-0.1s-0.6-0.2-0.9-0.4c-0.3-0.2-0.5-0.4-0.6-0.7
			c-0.2-0.3-0.2-0.6-0.3-1h1.1C45.9,48,46,48.2,46.1,48.4z"/>
		<path class="st0" d="M60.2,50c-0.3,0-0.5-0.1-0.7-0.2s-0.2-0.4-0.2-0.8c-0.3,0.4-0.6,0.6-1,0.8C57.8,49.9,57.4,50,57,50
			c-0.3,0-0.6,0-0.8-0.1c-0.3-0.1-0.5-0.2-0.7-0.3c-0.2-0.1-0.4-0.3-0.5-0.6c-0.1-0.2-0.2-0.5-0.2-0.8c0-0.4,0.1-0.7,0.2-0.9
			c0.1-0.2,0.3-0.4,0.5-0.6s0.4-0.3,0.7-0.3c0.3-0.1,0.5-0.1,0.8-0.2c0.3-0.1,0.6-0.1,0.8-0.1c0.3,0,0.5-0.1,0.7-0.1
			c0.2-0.1,0.4-0.1,0.5-0.2c0.1-0.1,0.2-0.3,0.2-0.5c0-0.2,0-0.4-0.1-0.6c-0.1-0.1-0.2-0.3-0.3-0.3s-0.3-0.1-0.5-0.2
			c-0.2,0-0.3,0-0.5,0c-0.5,0-0.8,0.1-1.1,0.3s-0.5,0.5-0.5,1H55c0-0.4,0.1-0.8,0.3-1s0.4-0.5,0.6-0.7c0.3-0.2,0.5-0.3,0.9-0.4
			s0.7-0.1,1-0.1c0.3,0,0.6,0,0.9,0.1c0.3,0,0.6,0.1,0.8,0.3s0.4,0.3,0.6,0.6c0.1,0.2,0.2,0.5,0.2,0.9v3.4c0,0.3,0,0.4,0,0.6
			s0.1,0.2,0.3,0.2c0.1,0,0.2,0,0.3-0.1v0.8C60.8,49.9,60.5,50,60.2,50z M58.7,46.7c-0.2,0-0.5,0.1-0.7,0.1c-0.2,0-0.5,0.1-0.7,0.1
			c-0.2,0-0.5,0.1-0.7,0.2c-0.2,0.1-0.4,0.2-0.5,0.4s-0.2,0.4-0.2,0.6c0,0.2,0,0.3,0.1,0.5s0.2,0.2,0.3,0.3s0.3,0.1,0.4,0.2
			c0.2,0,0.3,0.1,0.5,0.1c0.4,0,0.7,0,0.9-0.1c0.3-0.1,0.5-0.2,0.6-0.4c0.2-0.1,0.3-0.3,0.4-0.5c0.1-0.2,0.1-0.3,0.1-0.5v-1.1
			C59.1,46.5,58.9,46.6,58.7,46.7z"/>
		<path class="st0" d="M66.9,51.7c-0.5,0.5-1.3,0.8-2.3,0.8c-0.3,0-0.6,0-0.9-0.1c-0.3-0.1-0.6-0.2-0.9-0.3
			c-0.3-0.2-0.5-0.4-0.6-0.6s-0.3-0.5-0.3-0.9H63c0,0.2,0.1,0.4,0.2,0.5s0.3,0.2,0.4,0.3c0.2,0.1,0.3,0.1,0.5,0.2
			c0.2,0,0.4,0.1,0.6,0.1c0.4,0,0.7-0.1,0.9-0.2c0.2-0.1,0.4-0.3,0.6-0.5c0.2-0.2,0.3-0.5,0.4-0.8s0.1-0.6,0.1-1v-0.4h0
			c-0.2,0.4-0.5,0.7-0.8,0.9c-0.4,0.2-0.8,0.3-1.2,0.3c-0.5,0-0.9-0.1-1.3-0.3c-0.4-0.2-0.7-0.4-0.9-0.7c-0.2-0.3-0.4-0.7-0.6-1.1
			c-0.1-0.4-0.2-0.8-0.2-1.3c0-0.4,0.1-0.8,0.2-1.2c0.1-0.4,0.3-0.8,0.5-1.1c0.2-0.3,0.6-0.6,0.9-0.8c0.4-0.2,0.9-0.3,1.4-0.3
			c0.4,0,0.8,0.1,1.1,0.3s0.6,0.5,0.8,0.8h0v-0.9h1v6C67.7,50.4,67.4,51.2,66.9,51.7z M65.5,48.7c0.3-0.1,0.5-0.3,0.6-0.6
			c0.2-0.2,0.3-0.5,0.3-0.8c0.1-0.3,0.1-0.6,0.1-0.9c0-0.3,0-0.6-0.1-0.9s-0.2-0.5-0.3-0.8c-0.1-0.2-0.3-0.4-0.6-0.5
			c-0.2-0.1-0.5-0.2-0.9-0.2c-0.3,0-0.6,0.1-0.9,0.2s-0.4,0.3-0.6,0.5c-0.2,0.2-0.3,0.5-0.3,0.8c-0.1,0.3-0.1,0.6-0.1,0.9
			c0,0.3,0,0.6,0.1,0.9c0.1,0.3,0.2,0.6,0.3,0.8c0.1,0.2,0.3,0.4,0.6,0.6c0.2,0.1,0.5,0.2,0.9,0.2S65.3,48.9,65.5,48.7z"/>
		<path class="st0" d="M69.1,45.2c0.1-0.4,0.3-0.8,0.6-1.1c0.3-0.3,0.6-0.6,1-0.7c0.4-0.2,0.9-0.3,1.4-0.3c0.5,0,1,0.1,1.4,0.3
			c0.4,0.2,0.7,0.4,1,0.7c0.3,0.3,0.5,0.7,0.6,1.1c0.1,0.4,0.2,0.9,0.2,1.4c0,0.5-0.1,0.9-0.2,1.3s-0.3,0.8-0.6,1.1
			c-0.3,0.3-0.6,0.6-1,0.7c-0.4,0.2-0.9,0.3-1.4,0.3c-0.5,0-1-0.1-1.4-0.3c-0.4-0.2-0.7-0.4-1-0.7c-0.3-0.3-0.5-0.7-0.6-1.1
			s-0.2-0.9-0.2-1.3C68.9,46.1,69,45.6,69.1,45.2z M70.2,47.6c0.1,0.3,0.3,0.6,0.4,0.8s0.4,0.4,0.7,0.5s0.5,0.2,0.8,0.2
			s0.5-0.1,0.8-0.2c0.3-0.1,0.5-0.3,0.7-0.5c0.2-0.2,0.3-0.5,0.4-0.8c0.1-0.3,0.2-0.7,0.2-1.1c0-0.4-0.1-0.8-0.2-1.1
			c-0.1-0.3-0.3-0.6-0.4-0.8c-0.2-0.2-0.4-0.4-0.7-0.5c-0.3-0.1-0.5-0.2-0.8-0.2s-0.5,0.1-0.8,0.2s-0.5,0.3-0.7,0.5
			c-0.2,0.2-0.3,0.5-0.4,0.8c-0.1,0.3-0.2,0.7-0.2,1.1C70.1,47,70.1,47.3,70.2,47.6z"/>
		<path class="st0" d="M79.4,43.3v1h-1.3v4.1c0,0.1,0,0.2,0,0.3c0,0.1,0.1,0.1,0.1,0.2c0.1,0,0.1,0.1,0.2,0.1c0.1,0,0.2,0,0.4,0h0.5
			v1h-0.8c-0.3,0-0.5,0-0.7-0.1c-0.2,0-0.4-0.1-0.5-0.2c-0.1-0.1-0.2-0.2-0.3-0.4C77,48.9,77,48.7,77,48.4v-4.2h-1.1v-1H77v-2h1.1v2
			H79.4z"/>
		<path class="st0" d="M85.7,50c-0.3,0-0.5-0.1-0.7-0.2s-0.2-0.4-0.2-0.8c-0.3,0.4-0.6,0.6-1,0.8c-0.4,0.2-0.8,0.2-1.3,0.2
			c-0.3,0-0.6,0-0.8-0.1c-0.3-0.1-0.5-0.2-0.7-0.3c-0.2-0.1-0.4-0.3-0.5-0.6c-0.1-0.2-0.2-0.5-0.2-0.8c0-0.4,0.1-0.7,0.2-0.9
			c0.1-0.2,0.3-0.4,0.5-0.6s0.4-0.3,0.7-0.3c0.3-0.1,0.5-0.1,0.8-0.2c0.3-0.1,0.6-0.1,0.8-0.1c0.3,0,0.5-0.1,0.7-0.1
			c0.2-0.1,0.4-0.1,0.5-0.2c0.1-0.1,0.2-0.3,0.2-0.5c0-0.2,0-0.4-0.1-0.6c-0.1-0.1-0.2-0.3-0.3-0.3s-0.3-0.1-0.5-0.2
			c-0.2,0-0.3,0-0.5,0c-0.5,0-0.8,0.1-1.1,0.3s-0.5,0.5-0.5,1h-1.1c0-0.4,0.1-0.8,0.3-1s0.4-0.5,0.6-0.7c0.3-0.2,0.5-0.3,0.9-0.4
			s0.7-0.1,1-0.1c0.3,0,0.6,0,0.9,0.1c0.3,0,0.6,0.1,0.8,0.3s0.4,0.3,0.6,0.6c0.1,0.2,0.2,0.5,0.2,0.9v3.4c0,0.3,0,0.4,0,0.6
			s0.1,0.2,0.3,0.2c0.1,0,0.2,0,0.3-0.1v0.8C86.3,49.9,86,50,85.7,50z M84.1,46.7c-0.2,0-0.5,0.1-0.7,0.1c-0.2,0-0.5,0.1-0.7,0.1
			c-0.2,0-0.5,0.1-0.7,0.2c-0.2,0.1-0.4,0.2-0.5,0.4s-0.2,0.4-0.2,0.6c0,0.2,0,0.3,0.1,0.5s0.2,0.2,0.3,0.3s0.3,0.1,0.4,0.2
			c0.2,0,0.3,0.1,0.5,0.1c0.4,0,0.7,0,0.9-0.1c0.3-0.1,0.5-0.2,0.6-0.4c0.2-0.1,0.3-0.3,0.4-0.5c0.1-0.2,0.1-0.3,0.1-0.5v-1.1
			C84.5,46.5,84.4,46.6,84.1,46.7z"/>
		<path class="st0" d="M92.2,49.8v-0.9h0c-0.2,0.4-0.5,0.6-0.8,0.8C91,49.9,90.6,50,90.1,50c-0.5,0-1-0.1-1.3-0.3
			c-0.4-0.2-0.7-0.4-0.9-0.8c-0.3-0.3-0.4-0.7-0.6-1.1s-0.2-0.9-0.2-1.3s0.1-0.9,0.2-1.3s0.3-0.8,0.6-1.1c0.3-0.3,0.6-0.6,0.9-0.7
			c0.4-0.2,0.8-0.3,1.3-0.3c0.2,0,0.4,0,0.5,0.1s0.4,0.1,0.6,0.2c0.2,0.1,0.4,0.2,0.6,0.3s0.3,0.3,0.4,0.5h0v-3.4h1.1v9.1H92.2z
			 M88.4,47.5c0.1,0.3,0.2,0.6,0.4,0.8c0.2,0.2,0.4,0.4,0.6,0.5c0.3,0.1,0.6,0.2,0.9,0.2c0.4,0,0.7-0.1,0.9-0.2
			c0.3-0.1,0.5-0.3,0.6-0.6s0.3-0.5,0.4-0.8c0.1-0.3,0.1-0.6,0.1-0.9c0-0.3,0-0.6-0.1-0.9c-0.1-0.3-0.2-0.6-0.4-0.8
			s-0.4-0.4-0.6-0.6c-0.3-0.1-0.6-0.2-1-0.2c-0.4,0-0.7,0.1-0.9,0.2c-0.3,0.1-0.5,0.3-0.6,0.6s-0.3,0.5-0.3,0.8s-0.1,0.6-0.1,0.9
			C88.2,46.9,88.3,47.2,88.4,47.5z"/>
		<path class="st0" d="M100.1,50c-0.3,0-0.5-0.1-0.7-0.2s-0.2-0.4-0.2-0.8c-0.3,0.4-0.6,0.6-1,0.8c-0.4,0.2-0.8,0.2-1.3,0.2
			c-0.3,0-0.6,0-0.8-0.1c-0.3-0.1-0.5-0.2-0.7-0.3c-0.2-0.1-0.4-0.3-0.5-0.6c-0.1-0.2-0.2-0.5-0.2-0.8c0-0.4,0.1-0.7,0.2-0.9
			c0.1-0.2,0.3-0.4,0.5-0.6s0.4-0.3,0.7-0.3c0.3-0.1,0.5-0.1,0.8-0.2c0.3-0.1,0.6-0.1,0.8-0.1c0.3,0,0.5-0.1,0.7-0.1
			c0.2-0.1,0.4-0.1,0.5-0.2c0.1-0.1,0.2-0.3,0.2-0.5c0-0.2,0-0.4-0.1-0.6c-0.1-0.1-0.2-0.3-0.3-0.3s-0.3-0.1-0.5-0.2
			c-0.2,0-0.3,0-0.5,0c-0.5,0-0.8,0.1-1.1,0.3s-0.5,0.5-0.5,1h-1.1c0-0.4,0.1-0.8,0.3-1s0.4-0.5,0.6-0.7c0.3-0.2,0.5-0.3,0.9-0.4
			s0.7-0.1,1-0.1c0.3,0,0.6,0,0.9,0.1c0.3,0,0.6,0.1,0.8,0.3s0.4,0.3,0.6,0.6c0.1,0.2,0.2,0.5,0.2,0.9v3.4c0,0.3,0,0.4,0,0.6
			s0.1,0.2,0.3,0.2c0.1,0,0.2,0,0.3-0.1v0.8C100.6,49.9,100.4,50,100.1,50z M98.5,46.7c-0.2,0-0.5,0.1-0.7,0.1
			c-0.2,0-0.5,0.1-0.7,0.1c-0.2,0-0.5,0.1-0.7,0.2c-0.2,0.1-0.4,0.2-0.5,0.4s-0.2,0.4-0.2,0.6c0,0.2,0,0.3,0.1,0.5s0.2,0.2,0.3,0.3
			s0.3,0.1,0.4,0.2c0.2,0,0.3,0.1,0.5,0.1c0.4,0,0.7,0,0.9-0.1c0.3-0.1,0.5-0.2,0.6-0.4c0.2-0.1,0.3-0.3,0.4-0.5
			c0.1-0.2,0.1-0.3,0.1-0.5v-1.1C98.9,46.5,98.8,46.6,98.5,46.7z"/>
		<path class="st0" d="M102.7,48.4c0.1,0.2,0.2,0.3,0.4,0.4s0.4,0.2,0.6,0.2c0.2,0,0.4,0.1,0.6,0.1c0.2,0,0.3,0,0.5,0
			c0.2,0,0.4-0.1,0.5-0.1c0.2-0.1,0.3-0.2,0.4-0.3c0.1-0.1,0.2-0.3,0.2-0.5c0-0.3-0.1-0.5-0.3-0.6c-0.2-0.1-0.5-0.3-0.8-0.4
			c-0.3-0.1-0.7-0.2-1-0.2c-0.4-0.1-0.7-0.2-1-0.3c-0.3-0.1-0.6-0.3-0.8-0.6c-0.2-0.2-0.3-0.6-0.3-1c0-0.3,0.1-0.6,0.2-0.9
			c0.1-0.2,0.3-0.4,0.6-0.6s0.5-0.3,0.8-0.3c0.3-0.1,0.6-0.1,0.9-0.1c0.4,0,0.7,0,1,0.1c0.3,0.1,0.6,0.2,0.8,0.3
			c0.2,0.2,0.4,0.4,0.6,0.6c0.1,0.3,0.2,0.6,0.3,1h-1.1c0-0.2-0.1-0.4-0.2-0.5c-0.1-0.1-0.2-0.3-0.4-0.3c-0.1-0.1-0.3-0.1-0.5-0.2
			c-0.2,0-0.4-0.1-0.5-0.1c-0.2,0-0.3,0-0.5,0s-0.3,0.1-0.5,0.1c-0.1,0.1-0.2,0.1-0.3,0.3c-0.1,0.1-0.1,0.2-0.1,0.4
			c0,0.2,0.1,0.3,0.2,0.5c0.1,0.1,0.3,0.2,0.5,0.3c0.2,0.1,0.4,0.1,0.7,0.2c0.3,0.1,0.5,0.1,0.8,0.2c0.3,0.1,0.5,0.1,0.8,0.2
			c0.3,0.1,0.5,0.2,0.7,0.3c0.2,0.1,0.4,0.3,0.5,0.5s0.2,0.5,0.2,0.8c0,0.4-0.1,0.7-0.2,1c-0.2,0.3-0.4,0.5-0.6,0.6
			c-0.3,0.2-0.6,0.3-0.9,0.3c-0.3,0.1-0.7,0.1-1,0.1c-0.4,0-0.7,0-1-0.1s-0.6-0.2-0.9-0.4c-0.3-0.2-0.5-0.4-0.6-0.7
			c-0.2-0.3-0.2-0.6-0.3-1h1.1C102.5,48,102.6,48.2,102.7,48.4z"/>
		<path class="st0" d="M108.6,49.5c0.3-1,0.4-2,0.4-3c0-1.1-0.1-2.1-0.4-3c-0.3-1-0.7-1.9-1.3-2.9h0.8c0.3,0.5,0.6,0.9,0.8,1.4
			c0.2,0.5,0.5,1,0.6,1.4s0.3,1,0.4,1.5c0.1,0.5,0.1,1,0.1,1.6c0,1-0.2,2-0.5,3c-0.3,1-0.8,2-1.5,2.8h-0.8
			C107.9,51.4,108.3,50.4,108.6,49.5z"/>
		<path class="st0" d="M112.5,45.6v-3.8h-1.4v-0.5c0.2,0,0.4,0,0.5,0c0.2,0,0.3-0.1,0.5-0.2c0.1-0.1,0.3-0.2,0.3-0.3
			c0.1-0.1,0.2-0.3,0.2-0.5h0.5v5.3H112.5z"/>
	</g>
</g>
<g>
	<g>
		<path class="st1" d="M34.3,0h7.7v2h-5.3v2.5h4.6v1.9h-4.6v4.5h-2.4V0z"/>
		<path class="st1" d="M43,5.4c0-0.5,0.2-0.9,0.4-1.3s0.5-0.6,0.9-0.8C44.6,3.2,45,3,45.4,2.9s0.9-0.1,1.3-0.1c0.4,0,0.8,0,1.2,0.1
			C48.3,2.9,48.7,3,49,3.2c0.3,0.2,0.6,0.4,0.8,0.7c0.2,0.3,0.3,0.7,0.3,1.1v4.1c0,0.4,0,0.7,0.1,1c0,0.3,0.1,0.6,0.2,0.7h-2.2
			c0-0.1-0.1-0.2-0.1-0.4c0-0.1,0-0.3-0.1-0.4c-0.3,0.4-0.8,0.6-1.2,0.8s-0.9,0.2-1.4,0.2c-0.4,0-0.7,0-1.1-0.1
			c-0.3-0.1-0.6-0.2-0.9-0.4c-0.2-0.2-0.4-0.4-0.6-0.7c-0.1-0.3-0.2-0.6-0.2-1.1c0-0.4,0.1-0.8,0.2-1.1c0.2-0.3,0.4-0.5,0.6-0.7
			c0.3-0.2,0.5-0.3,0.9-0.4c0.3-0.1,0.6-0.2,1-0.2c0.3-0.1,0.7-0.1,1-0.1c0.3,0,0.6-0.1,0.8-0.1c0.2-0.1,0.4-0.1,0.6-0.3
			C48,5.7,48,5.5,48,5.3c0-0.2,0-0.4-0.1-0.6c-0.1-0.1-0.2-0.2-0.3-0.3s-0.3-0.1-0.4-0.2c-0.2,0-0.3,0-0.5,0c-0.4,0-0.8,0.1-1,0.3
			S45.2,5,45.2,5.4H43z M48,7c-0.1,0.1-0.2,0.1-0.3,0.2c-0.1,0-0.3,0.1-0.4,0.1c-0.2,0-0.3,0.1-0.5,0.1c-0.2,0-0.3,0-0.5,0.1
			c-0.2,0-0.3,0.1-0.5,0.1s-0.3,0.1-0.4,0.2C45.2,7.9,45.1,8,45,8.2c-0.1,0.1-0.1,0.3-0.1,0.5c0,0.2,0,0.4,0.1,0.5
			c0.1,0.1,0.2,0.2,0.3,0.3c0.1,0.1,0.3,0.1,0.4,0.2c0.2,0,0.3,0,0.5,0c0.4,0,0.8-0.1,1-0.2s0.4-0.3,0.5-0.5C47.9,8.7,48,8.5,48,8.3
			c0-0.2,0-0.4,0-0.5V7z"/>
		<path class="st1" d="M53.6,8.3c0,0.2,0,0.4,0.1,0.6c0.1,0.2,0.2,0.3,0.4,0.4c0.2,0.1,0.3,0.2,0.5,0.2c0.2,0.1,0.4,0.1,0.6,0.1
			c0.2,0,0.3,0,0.5-0.1c0.2,0,0.3-0.1,0.5-0.2c0.1-0.1,0.3-0.2,0.3-0.3c0.1-0.1,0.1-0.3,0.1-0.5c0-0.2-0.1-0.3-0.2-0.4
			C56.4,8.1,56.2,8,56,7.9c-0.2-0.1-0.5-0.2-0.8-0.3s-0.7-0.2-1-0.2c-0.3-0.1-0.6-0.2-0.9-0.3C53,7.1,52.7,7,52.5,6.8
			S52,6.5,51.9,6.2s-0.2-0.5-0.2-0.9c0-0.5,0.1-0.9,0.3-1.2s0.5-0.6,0.8-0.8c0.3-0.2,0.7-0.3,1.1-0.4c0.4-0.1,0.8-0.1,1.3-0.1
			s0.8,0,1.2,0.1c0.4,0.1,0.8,0.2,1.1,0.4s0.6,0.5,0.8,0.8c0.2,0.3,0.3,0.7,0.4,1.2h-2.1c0-0.4-0.2-0.7-0.5-0.8s-0.6-0.2-1-0.2
			c-0.1,0-0.3,0-0.4,0c-0.1,0-0.3,0-0.4,0.1C54.1,4.4,54,4.5,54,4.6c-0.1,0.1-0.1,0.2-0.1,0.4c0,0.2,0.1,0.4,0.2,0.5
			c0.1,0.1,0.3,0.2,0.6,0.3c0.2,0.1,0.5,0.1,0.8,0.2C55.7,6,56,6.1,56.3,6.2c0.3,0.1,0.6,0.2,0.9,0.3c0.3,0.1,0.6,0.2,0.8,0.4
			c0.2,0.2,0.4,0.4,0.6,0.6c0.1,0.3,0.2,0.6,0.2,0.9c0,0.5-0.1,1-0.3,1.3c-0.2,0.4-0.5,0.6-0.8,0.8c-0.3,0.2-0.7,0.4-1.2,0.5
			s-0.9,0.1-1.3,0.1c-0.5,0-0.9,0-1.3-0.1c-0.4-0.1-0.8-0.2-1.2-0.5s-0.6-0.5-0.8-0.9c-0.2-0.4-0.3-0.8-0.4-1.3H53.6z"/>
		<path class="st1" d="M61.9,7.5c0,0.7,0.2,1.2,0.5,1.5s0.8,0.5,1.4,0.5c0.4,0,0.8-0.1,1.1-0.3c0.3-0.2,0.5-0.5,0.6-0.7h1.9
			c-0.3,0.9-0.8,1.6-1.4,2c-0.6,0.4-1.4,0.6-2.3,0.6c-0.6,0-1.2-0.1-1.7-0.3c-0.5-0.2-0.9-0.5-1.3-0.9c-0.3-0.4-0.6-0.8-0.8-1.3
			c-0.2-0.5-0.3-1.1-0.3-1.7c0-0.6,0.1-1.1,0.3-1.6c0.2-0.5,0.5-1,0.8-1.3c0.4-0.4,0.8-0.7,1.3-0.9c0.5-0.2,1-0.3,1.6-0.3
			c0.7,0,1.3,0.1,1.8,0.4s0.9,0.6,1.2,1c0.3,0.4,0.6,0.9,0.7,1.5s0.2,1.1,0.2,1.8H61.9z M65.4,6.1c-0.1-0.5-0.3-1-0.5-1.3
			s-0.7-0.4-1.2-0.4c-0.3,0-0.6,0.1-0.9,0.2c-0.2,0.1-0.4,0.3-0.5,0.4S62,5.4,62,5.6S61.9,6,61.9,6.1H65.4z"/>
		<path class="st1" d="M75.8,4.5c0.2,0,0.5,0,0.7,0c0.3,0,0.5-0.1,0.7-0.2c0.2-0.1,0.4-0.2,0.6-0.4C78,3.8,78,3.5,78,3.2
			c0-0.5-0.2-0.8-0.5-1.1c-0.3-0.2-0.7-0.4-1.1-0.4c-0.5,0-1,0.2-1.2,0.5c-0.3,0.4-0.4,0.8-0.4,1.4h-2.1c0-0.5,0.1-1.1,0.3-1.5
			s0.4-0.8,0.7-1.2s0.7-0.6,1.2-0.8C75.5,0.1,76,0,76.5,0c0.4,0,0.9,0.1,1.3,0.2c0.4,0.1,0.8,0.3,1.2,0.6s0.6,0.6,0.8,0.9
			C80,2.1,80.1,2.5,80.1,3c0,0.5-0.1,1-0.4,1.4c-0.2,0.4-0.6,0.7-1.1,0.8v0C79.2,5.3,79.7,5.6,80,6c0.3,0.4,0.5,1,0.5,1.6
			c0,0.6-0.1,1.1-0.3,1.5c-0.2,0.4-0.5,0.8-0.9,1.1c-0.4,0.3-0.8,0.5-1.3,0.7c-0.5,0.2-1,0.2-1.5,0.2c-0.6,0-1.1-0.1-1.6-0.3
			s-0.9-0.4-1.3-0.8c-0.3-0.3-0.6-0.7-0.8-1.2c-0.2-0.5-0.3-1-0.3-1.6h2.1c0,0.3,0.1,0.6,0.1,0.8c0.1,0.3,0.2,0.5,0.4,0.7
			s0.3,0.3,0.6,0.5c0.2,0.1,0.5,0.2,0.8,0.2c0.5,0,0.9-0.2,1.2-0.5c0.3-0.3,0.5-0.7,0.5-1.2c0-0.4-0.1-0.7-0.2-0.9
			c-0.2-0.2-0.4-0.4-0.6-0.5s-0.5-0.2-0.8-0.2c-0.3,0-0.6,0-0.8,0V4.5z"/>
	</g>
</g>
</svg>
