<!-- Generator: Adobe Illustrator 20.1.0, SVG Export Plug-In  -->
<svg version="1.1"
	 xmlns="http://www.w3.org/2000/svg" xmlns:xlink="http://www.w3.org/1999/xlink" xmlns:a="http://ns.adobe.com/AdobeSVGViewerExtensions/3.0/"
	 x="0px" y="0px" width="262.4px" height="14.3px" viewBox="0 0 262.4 14.3"
	 style="overflow:scroll;enable-background:new 0 0 262.4 14.3;" xml:space="preserve">
<style type="text/css">
	.st0{opacity:0.8;fill:#333333;}
</style>
<defs>
</defs>
<g>
	<path class="st0" d="M5.6,0L10,11.1H8.8L7.5,7.6h-5l-1.3,3.4H0L4.5,0H5.6z M7.1,6.7L5,1.1L2.8,6.7H7.1z"/>
	<path class="st0" d="M13.6,0v11.1h-1V0H13.6z"/>
	<path class="st0" d="M20.6,3.1v0.8h-1.6v5.4c0,0.3,0,0.6,0.1,0.8s0.3,0.3,0.7,0.3c0.3,0,0.6,0,0.8,0v0.8c-0.1,0-0.3,0-0.4,0
		c-0.1,0-0.3,0-0.4,0c-0.7,0-1.1-0.1-1.4-0.4c-0.3-0.3-0.4-0.7-0.4-1.4V3.9h-1.4V3.1H18V0.7h1v2.4H20.6z"/>
	<path class="st0" d="M24,4.3c0.2-0.3,0.4-0.6,0.7-0.8c0.3-0.2,0.6-0.4,1-0.5c0.4-0.1,0.8-0.2,1.3-0.2c0.4,0,0.7,0,1.1,0.1
		s0.7,0.2,0.9,0.4c0.3,0.2,0.5,0.4,0.7,0.8s0.3,0.8,0.3,1.3v4.2c0,0.4,0.2,0.6,0.6,0.6c0.1,0,0.2,0,0.3-0.1V11c-0.1,0-0.2,0-0.3,0
		c-0.1,0-0.2,0-0.3,0c-0.2,0-0.4,0-0.6-0.1s-0.3-0.2-0.3-0.3c-0.1-0.1-0.1-0.3-0.2-0.4c0-0.2,0-0.4,0-0.6h0
		c-0.2,0.3-0.4,0.5-0.5,0.7c-0.2,0.2-0.4,0.4-0.6,0.5c-0.2,0.1-0.5,0.2-0.8,0.3s-0.6,0.1-1,0.1c-0.4,0-0.7,0-1-0.1
		c-0.3-0.1-0.6-0.2-0.9-0.4c-0.2-0.2-0.4-0.4-0.6-0.7c-0.1-0.3-0.2-0.6-0.2-1c0-0.6,0.1-1,0.4-1.3s0.6-0.6,1-0.7
		c0.4-0.2,0.9-0.3,1.4-0.3c0.5-0.1,1-0.1,1.6-0.2c0.2,0,0.4,0,0.5-0.1c0.2,0,0.3-0.1,0.4-0.2c0.1-0.1,0.2-0.2,0.2-0.3
		c0.1-0.1,0.1-0.3,0.1-0.5c0-0.3-0.1-0.6-0.2-0.8c-0.1-0.2-0.3-0.4-0.4-0.5c-0.2-0.1-0.4-0.2-0.7-0.3c-0.3,0-0.5-0.1-0.8-0.1
		c-0.6,0-1.1,0.1-1.5,0.4c-0.4,0.3-0.6,0.8-0.6,1.4h-1C23.8,5.1,23.9,4.7,24,4.3z M28.9,6.7c-0.1,0.1-0.2,0.2-0.4,0.2
		C28.4,7,28.2,7,28.1,7.1c-0.4,0.1-0.8,0.1-1.3,0.2c-0.4,0.1-0.8,0.1-1.2,0.3C25.3,7.6,25,7.8,24.7,8c-0.2,0.2-0.3,0.5-0.3,0.9
		c0,0.2,0,0.5,0.1,0.7c0.1,0.2,0.2,0.4,0.4,0.5s0.4,0.2,0.6,0.3c0.2,0.1,0.4,0.1,0.7,0.1c0.4,0,0.7-0.1,1.1-0.2
		c0.3-0.1,0.6-0.3,0.9-0.5s0.5-0.5,0.6-0.8c0.1-0.3,0.2-0.7,0.2-1.1L28.9,6.7L28.9,6.7z"/>
	<path class="st0" d="M40.6,8.4c0.1,0.4,0.3,0.7,0.5,1c0.2,0.3,0.5,0.5,0.8,0.7c0.3,0.2,0.7,0.3,1.2,0.3c0.7,0,1.3-0.2,1.7-0.6
		c0.4-0.4,0.7-0.9,0.8-1.5h1c-0.2,0.9-0.6,1.6-1.1,2.1c-0.6,0.5-1.3,0.7-2.3,0.7c-0.6,0-1.2-0.1-1.6-0.3c-0.5-0.2-0.8-0.5-1.1-0.9
		s-0.5-0.8-0.6-1.3c-0.1-0.5-0.2-1.1-0.2-1.6c0-0.5,0.1-1,0.2-1.5c0.1-0.5,0.4-1,0.6-1.4c0.3-0.4,0.7-0.7,1.1-1
		c0.5-0.2,1-0.4,1.6-0.4c0.6,0,1.2,0.1,1.6,0.4c0.5,0.3,0.8,0.6,1.1,1c0.3,0.4,0.5,0.9,0.6,1.4c0.1,0.5,0.2,1.1,0.2,1.7h-6.2
		C40.5,7.7,40.5,8,40.6,8.4z M45.5,5.4c-0.1-0.3-0.3-0.6-0.5-0.9s-0.5-0.5-0.8-0.6c-0.3-0.2-0.7-0.2-1.1-0.2c-0.4,0-0.8,0.1-1.1,0.2
		c-0.3,0.2-0.6,0.4-0.8,0.6c-0.2,0.3-0.4,0.6-0.5,0.9c-0.1,0.3-0.2,0.7-0.3,1.1h5.2C45.7,6.1,45.6,5.8,45.5,5.4z"/>
	<path class="st0" d="M49.1,3.1h1.2l2.3,3l2.2-3h1.2l-2.9,3.8l3.1,4.2h-1.2l-2.5-3.4l-2.5,3.4h-1.2L52,6.9L49.1,3.1z"/>
	<path class="st0" d="M60.1,0v1.6h-1V0H60.1z M60.1,3.1v8h-1v-8H60.1z"/>
	<path class="st0" d="M70.4,12c-0.1,0.5-0.3,0.9-0.6,1.2s-0.6,0.6-1.1,0.8s-1,0.3-1.7,0.3c-0.4,0-0.8,0-1.2-0.1
		c-0.4-0.1-0.7-0.2-1-0.4c-0.3-0.2-0.6-0.4-0.8-0.8c-0.2-0.3-0.3-0.7-0.3-1.1h1c0.1,0.3,0.2,0.6,0.3,0.8c0.1,0.2,0.3,0.4,0.5,0.5
		s0.4,0.2,0.7,0.3s0.5,0.1,0.8,0.1c0.9,0,1.6-0.3,2-0.8c0.4-0.5,0.6-1.3,0.6-2.2V9.3h0c-0.2,0.5-0.6,0.9-1,1.2
		c-0.4,0.3-1,0.5-1.5,0.5c-0.6,0-1.2-0.1-1.6-0.3c-0.5-0.2-0.8-0.5-1.1-0.9C64,9.4,63.8,9,63.7,8.5c-0.1-0.5-0.2-1-0.2-1.6
		c0-0.5,0.1-1.1,0.2-1.6c0.2-0.5,0.4-0.9,0.7-1.3c0.3-0.4,0.7-0.7,1.1-0.9s1-0.3,1.5-0.3c0.3,0,0.6,0,0.8,0.1s0.5,0.2,0.7,0.3
		c0.2,0.1,0.4,0.3,0.6,0.5c0.2,0.2,0.3,0.4,0.4,0.6h0V3.1h1v7.3C70.6,11,70.6,11.5,70.4,12z M68.2,9.9c0.3-0.2,0.6-0.4,0.8-0.7
		c0.2-0.3,0.4-0.6,0.5-1s0.2-0.8,0.2-1.2c0-0.4,0-0.8-0.1-1.2c-0.1-0.4-0.2-0.7-0.4-1.1c-0.2-0.3-0.5-0.6-0.8-0.8s-0.7-0.3-1.2-0.3
		s-0.9,0.1-1.2,0.3c-0.3,0.2-0.6,0.4-0.8,0.8c-0.2,0.3-0.4,0.7-0.5,1.1c-0.1,0.4-0.1,0.8-0.1,1.2c0,0.4,0.1,0.8,0.2,1.2
		c0.1,0.4,0.3,0.7,0.5,1c0.2,0.3,0.5,0.5,0.8,0.7c0.3,0.2,0.7,0.3,1.2,0.3C67.5,10.2,67.9,10.1,68.2,9.9z"/>
	<path class="st0" d="M75.1,8.4c0.1,0.4,0.3,0.7,0.5,1c0.2,0.3,0.5,0.5,0.8,0.7c0.3,0.2,0.7,0.3,1.2,0.3c0.7,0,1.3-0.2,1.7-0.6
		c0.4-0.4,0.7-0.9,0.8-1.5h1c-0.2,0.9-0.6,1.6-1.1,2.1c-0.6,0.5-1.3,0.7-2.3,0.7c-0.6,0-1.2-0.1-1.6-0.3c-0.5-0.2-0.8-0.5-1.1-0.9
		s-0.5-0.8-0.6-1.3c-0.1-0.5-0.2-1.1-0.2-1.6c0-0.5,0.1-1,0.2-1.5c0.1-0.5,0.4-1,0.6-1.4c0.3-0.4,0.7-0.7,1.1-1
		c0.5-0.2,1-0.4,1.6-0.4c0.6,0,1.2,0.1,1.6,0.4c0.5,0.3,0.8,0.6,1.1,1c0.3,0.4,0.5,0.9,0.6,1.4c0.1,0.5,0.2,1.1,0.2,1.7h-6.2
		C74.9,7.7,75,8,75.1,8.4z M79.9,5.4c-0.1-0.3-0.3-0.6-0.5-0.9s-0.5-0.5-0.8-0.6c-0.3-0.2-0.7-0.2-1.1-0.2c-0.4,0-0.8,0.1-1.1,0.2
		c-0.3,0.2-0.6,0.4-0.8,0.6c-0.2,0.3-0.4,0.6-0.5,0.9c-0.1,0.3-0.2,0.7-0.3,1.1h5.2C80.1,6.1,80,5.8,79.9,5.4z"/>
	<path class="st0" d="M85.2,3.1v1.4h0c0.2-0.5,0.5-0.9,1-1.2s1-0.4,1.6-0.4c0.6,0,1,0.1,1.4,0.2c0.4,0.1,0.7,0.3,0.9,0.6
		s0.4,0.6,0.5,1c0.1,0.4,0.1,0.8,0.1,1.3v5.1h-1v-5c0-0.3,0-0.7-0.1-1c-0.1-0.3-0.2-0.6-0.3-0.8C89.2,4.1,89,4,88.7,3.8
		c-0.3-0.1-0.6-0.2-1-0.2c-0.4,0-0.7,0.1-1,0.2c-0.3,0.1-0.6,0.3-0.8,0.6S85.5,5,85.4,5.3S85.2,6,85.2,6.4v4.7h-1v-8H85.2z"/>
	<path class="st0" d="M99.3,4.2c-0.4-0.3-0.9-0.5-1.5-0.5c-0.5,0-0.9,0.1-1.2,0.3c-0.4,0.2-0.6,0.5-0.9,0.8
		c-0.2,0.3-0.4,0.7-0.5,1.1C95.1,6.2,95,6.6,95,7.1c0,0.4,0.1,0.8,0.2,1.2c0.1,0.4,0.3,0.8,0.5,1.1c0.2,0.3,0.5,0.6,0.9,0.8
		c0.4,0.2,0.8,0.3,1.2,0.3c0.3,0,0.6-0.1,0.9-0.2c0.3-0.1,0.5-0.3,0.7-0.5c0.2-0.2,0.4-0.4,0.5-0.7c0.1-0.3,0.2-0.6,0.2-0.9h1
		c-0.1,1-0.5,1.7-1.1,2.3c-0.6,0.5-1.3,0.8-2.2,0.8c-0.6,0-1.1-0.1-1.6-0.3c-0.5-0.2-0.9-0.5-1.2-0.9c-0.3-0.4-0.6-0.8-0.7-1.3
		C94.1,8.2,94,7.6,94,7.1c0-0.6,0.1-1.1,0.2-1.6c0.2-0.5,0.4-1,0.7-1.3s0.7-0.7,1.2-0.9c0.5-0.2,1-0.3,1.6-0.3
		c0.9,0,1.6,0.2,2.2,0.7c0.6,0.5,0.9,1.1,1.1,2.1h-1C100,5,99.7,4.5,99.3,4.2z"/>
	<path class="st0" d="M105.3,0v1.6h-1V0H105.3z M105.3,3.1v8h-1v-8H105.3z"/>
	<path class="st0" d="M109.3,4.3c0.2-0.3,0.4-0.6,0.7-0.8c0.3-0.2,0.6-0.4,1-0.5c0.4-0.1,0.8-0.2,1.3-0.2c0.4,0,0.7,0,1.1,0.1
		s0.7,0.2,0.9,0.4c0.3,0.2,0.5,0.4,0.7,0.8s0.3,0.8,0.3,1.3v4.2c0,0.4,0.2,0.6,0.6,0.6c0.1,0,0.2,0,0.3-0.1V11c-0.1,0-0.2,0-0.3,0
		c-0.1,0-0.2,0-0.3,0c-0.2,0-0.4,0-0.6-0.1s-0.3-0.2-0.3-0.3c-0.1-0.1-0.1-0.3-0.2-0.4c0-0.2,0-0.4,0-0.6h0
		c-0.2,0.3-0.4,0.5-0.5,0.7c-0.2,0.2-0.4,0.4-0.6,0.5c-0.2,0.1-0.5,0.2-0.8,0.3s-0.6,0.1-1,0.1c-0.4,0-0.7,0-1-0.1
		c-0.3-0.1-0.6-0.2-0.9-0.4c-0.2-0.2-0.4-0.4-0.6-0.7c-0.1-0.3-0.2-0.6-0.2-1c0-0.6,0.1-1,0.4-1.3s0.6-0.6,1-0.7
		c0.4-0.2,0.9-0.3,1.4-0.3c0.5-0.1,1-0.1,1.6-0.2c0.2,0,0.4,0,0.5-0.1c0.2,0,0.3-0.1,0.4-0.2c0.1-0.1,0.2-0.2,0.2-0.3
		c0.1-0.1,0.1-0.3,0.1-0.5c0-0.3-0.1-0.6-0.2-0.8c-0.1-0.2-0.3-0.4-0.4-0.5c-0.2-0.1-0.4-0.2-0.7-0.3c-0.3,0-0.5-0.1-0.8-0.1
		c-0.6,0-1.1,0.1-1.5,0.4c-0.4,0.3-0.6,0.8-0.6,1.4h-1C109,5.1,109.1,4.7,109.3,4.3z M114.2,6.7c-0.1,0.1-0.2,0.2-0.4,0.2
		c-0.2,0.1-0.3,0.1-0.5,0.1c-0.4,0.1-0.8,0.1-1.3,0.2c-0.4,0.1-0.8,0.1-1.2,0.3c-0.4,0.1-0.7,0.3-0.9,0.5c-0.2,0.2-0.3,0.5-0.3,0.9
		c0,0.2,0,0.5,0.1,0.7c0.1,0.2,0.2,0.4,0.4,0.5s0.4,0.2,0.6,0.3c0.2,0.1,0.4,0.1,0.7,0.1c0.4,0,0.7-0.1,1.1-0.2
		c0.3-0.1,0.6-0.3,0.9-0.5s0.5-0.5,0.6-0.8c0.1-0.3,0.2-0.7,0.2-1.1L114.2,6.7L114.2,6.7z"/>
	<path class="st0" d="M125.9,8.4c0.1,0.4,0.3,0.7,0.5,1c0.2,0.3,0.5,0.5,0.8,0.7c0.3,0.2,0.7,0.3,1.2,0.3c0.7,0,1.3-0.2,1.7-0.6
		c0.4-0.4,0.7-0.9,0.8-1.5h1c-0.2,0.9-0.6,1.6-1.1,2.1c-0.6,0.5-1.3,0.7-2.3,0.7c-0.6,0-1.2-0.1-1.6-0.3c-0.5-0.2-0.8-0.5-1.1-0.9
		s-0.5-0.8-0.6-1.3c-0.1-0.5-0.2-1.1-0.2-1.6c0-0.5,0.1-1,0.2-1.5c0.1-0.5,0.4-1,0.6-1.4c0.3-0.4,0.7-0.7,1.1-1
		c0.5-0.2,1-0.4,1.6-0.4c0.6,0,1.2,0.1,1.6,0.4c0.5,0.3,0.8,0.6,1.1,1c0.3,0.4,0.5,0.9,0.6,1.4c0.1,0.5,0.2,1.1,0.2,1.7h-6.2
		C125.7,7.7,125.8,8,125.9,8.4z M130.7,5.4c-0.1-0.3-0.3-0.6-0.5-0.9s-0.5-0.5-0.8-0.6c-0.3-0.2-0.7-0.2-1.1-0.2
		c-0.4,0-0.8,0.1-1.1,0.2c-0.3,0.2-0.6,0.4-0.8,0.6c-0.2,0.3-0.4,0.6-0.5,0.9c-0.1,0.3-0.2,0.7-0.3,1.1h5.2
		C130.9,6.1,130.8,5.8,130.7,5.4z"/>
	<path class="st0" d="M135.4,3.1v1.4h0c0.2-0.5,0.5-0.9,1-1.2s1-0.4,1.6-0.4c0.6,0,1,0.1,1.4,0.2c0.4,0.1,0.7,0.3,0.9,0.6
		s0.4,0.6,0.5,1c0.1,0.4,0.1,0.8,0.1,1.3v5.1h-1v-5c0-0.3,0-0.7-0.1-1c-0.1-0.3-0.2-0.6-0.3-0.8c-0.2-0.2-0.4-0.4-0.6-0.5
		c-0.3-0.1-0.6-0.2-1-0.2c-0.4,0-0.7,0.1-1,0.2c-0.3,0.1-0.6,0.3-0.8,0.6s-0.4,0.5-0.5,0.9s-0.2,0.7-0.2,1.1v4.7h-1v-8H135.4z"/>
	<path class="st0" d="M150.3,8.4c0.1,0.4,0.3,0.7,0.5,1c0.2,0.3,0.5,0.5,0.8,0.7c0.3,0.2,0.7,0.3,1.2,0.3c0.7,0,1.3-0.2,1.7-0.6
		c0.4-0.4,0.7-0.9,0.8-1.5h1c-0.2,0.9-0.6,1.6-1.1,2.1c-0.6,0.5-1.3,0.7-2.3,0.7c-0.6,0-1.2-0.1-1.6-0.3c-0.5-0.2-0.8-0.5-1.1-0.9
		s-0.5-0.8-0.6-1.3c-0.1-0.5-0.2-1.1-0.2-1.6c0-0.5,0.1-1,0.2-1.5c0.1-0.5,0.4-1,0.6-1.4c0.3-0.4,0.7-0.7,1.1-1
		c0.5-0.2,1-0.4,1.6-0.4c0.6,0,1.2,0.1,1.6,0.4c0.5,0.3,0.8,0.6,1.1,1c0.3,0.4,0.5,0.9,0.6,1.4c0.1,0.5,0.2,1.1,0.2,1.7h-6.2
		C150.1,7.7,150.2,8,150.3,8.4z M155.1,5.4c-0.1-0.3-0.3-0.6-0.5-0.9s-0.5-0.5-0.8-0.6c-0.3-0.2-0.7-0.2-1.1-0.2
		c-0.4,0-0.8,0.1-1.1,0.2c-0.3,0.2-0.6,0.4-0.8,0.6c-0.2,0.3-0.4,0.6-0.5,0.9c-0.1,0.3-0.2,0.7-0.3,1.1h5.2
		C155.3,6.1,155.3,5.8,155.1,5.4z"/>
	<path class="st0" d="M159.9,0v11.1h-1V0H159.9z"/>
	<path class="st0" d="M169.4,3.1v1.9h0c0.2-0.7,0.6-1.2,1.2-1.5c0.5-0.4,1.1-0.5,1.9-0.5v1c-0.4,0-0.8,0-1.2,0.2
		c-0.4,0.1-0.7,0.3-0.9,0.6s-0.5,0.6-0.6,0.9c-0.1,0.4-0.2,0.7-0.2,1.2v4.3h-1v-8H169.4z"/>
	<path class="st0" d="M175.4,8.4c0.1,0.4,0.3,0.7,0.5,1c0.2,0.3,0.5,0.5,0.8,0.7c0.3,0.2,0.7,0.3,1.2,0.3c0.7,0,1.3-0.2,1.7-0.6
		c0.4-0.4,0.7-0.9,0.8-1.5h1c-0.2,0.9-0.6,1.6-1.1,2.1c-0.6,0.5-1.3,0.7-2.3,0.7c-0.6,0-1.2-0.1-1.6-0.3c-0.5-0.2-0.8-0.5-1.1-0.9
		s-0.5-0.8-0.6-1.3c-0.1-0.5-0.2-1.1-0.2-1.6c0-0.5,0.1-1,0.2-1.5c0.1-0.5,0.4-1,0.6-1.4c0.3-0.4,0.7-0.7,1.1-1
		c0.5-0.2,1-0.4,1.6-0.4c0.6,0,1.2,0.1,1.6,0.4c0.5,0.3,0.8,0.6,1.1,1c0.3,0.4,0.5,0.9,0.6,1.4c0.1,0.5,0.2,1.1,0.2,1.7h-6.2
		C175.2,7.7,175.3,8,175.4,8.4z M180.2,5.4c-0.1-0.3-0.3-0.6-0.5-0.9s-0.5-0.5-0.8-0.6c-0.3-0.2-0.7-0.2-1.1-0.2
		c-0.4,0-0.8,0.1-1.1,0.2c-0.3,0.2-0.6,0.4-0.8,0.6c-0.2,0.3-0.4,0.6-0.5,0.9c-0.1,0.3-0.2,0.7-0.3,1.1h5.2
		C180.4,6.1,180.3,5.8,180.2,5.4z"/>
	<path class="st0" d="M184.9,3.1v1.4h0c0.2-0.5,0.5-0.9,1-1.2s1-0.4,1.6-0.4c0.6,0,1,0.1,1.4,0.2c0.4,0.1,0.7,0.3,0.9,0.6
		s0.4,0.6,0.5,1c0.1,0.4,0.1,0.8,0.1,1.3v5.1h-1v-5c0-0.3,0-0.7-0.1-1c-0.1-0.3-0.2-0.6-0.3-0.8c-0.2-0.2-0.4-0.4-0.6-0.5
		c-0.3-0.1-0.6-0.2-1-0.2c-0.4,0-0.7,0.1-1,0.2c-0.3,0.1-0.6,0.3-0.8,0.6s-0.4,0.5-0.5,0.9s-0.2,0.7-0.2,1.1v4.7h-1v-8H184.9z"/>
	<path class="st0" d="M199.6,11.1V9.6h0c-0.1,0.3-0.3,0.5-0.5,0.7c-0.2,0.2-0.4,0.4-0.7,0.6c-0.3,0.2-0.5,0.3-0.8,0.3
		c-0.3,0.1-0.6,0.1-0.9,0.1c-0.6,0-1.1-0.1-1.6-0.3c-0.4-0.2-0.8-0.5-1.1-0.9s-0.5-0.8-0.7-1.3c-0.1-0.5-0.2-1.1-0.2-1.6
		c0-0.6,0.1-1.1,0.2-1.6c0.1-0.5,0.4-1,0.7-1.3s0.7-0.7,1.1-0.9s1-0.3,1.6-0.3c0.3,0,0.6,0,0.9,0.1c0.3,0.1,0.6,0.2,0.8,0.3
		c0.2,0.2,0.5,0.3,0.7,0.6c0.2,0.2,0.3,0.5,0.4,0.8h0V0h1v11.1H199.6z M194.3,8.3c0.1,0.4,0.3,0.8,0.5,1.1c0.2,0.3,0.5,0.6,0.8,0.8
		c0.3,0.2,0.7,0.3,1.2,0.3c0.5,0,1-0.1,1.3-0.3c0.4-0.2,0.6-0.5,0.9-0.8s0.4-0.7,0.5-1.1c0.1-0.4,0.1-0.8,0.1-1.2
		c0-0.4,0-0.8-0.1-1.2c-0.1-0.4-0.3-0.8-0.5-1.1s-0.5-0.6-0.9-0.8c-0.4-0.2-0.8-0.3-1.3-0.3c-0.5,0-0.9,0.1-1.2,0.3
		c-0.3,0.2-0.6,0.5-0.8,0.8c-0.2,0.3-0.4,0.7-0.5,1.1s-0.1,0.8-0.1,1.2C194.1,7.5,194.2,7.9,194.3,8.3z"/>
	<path class="st0" d="M204.6,0v1.6h-1V0H204.6z M204.6,3.1v8h-1v-8H204.6z"/>
	<path class="st0" d="M208.7,3.1v1.3h0c0.3-0.5,0.6-0.9,1-1.2c0.4-0.3,1-0.4,1.6-0.4c0.5,0,1,0.1,1.4,0.4c0.4,0.3,0.7,0.7,0.9,1.2
		c0.2-0.5,0.6-0.9,1.1-1.2c0.5-0.3,1-0.4,1.5-0.4c1.8,0,2.7,0.9,2.7,2.8v5.4h-1V5.7c0-0.7-0.1-1.2-0.4-1.5c-0.3-0.3-0.8-0.5-1.5-0.5
		c-0.4,0-0.8,0.1-1.1,0.2c-0.3,0.2-0.5,0.4-0.7,0.6c-0.2,0.3-0.3,0.6-0.3,0.9s-0.1,0.7-0.1,1.1v4.5h-1V5.6c0-0.3,0-0.5-0.1-0.8
		c-0.1-0.2-0.2-0.5-0.3-0.6c-0.1-0.2-0.3-0.3-0.5-0.4c-0.2-0.1-0.5-0.2-0.8-0.2c-0.4,0-0.8,0.1-1.1,0.2c-0.3,0.2-0.6,0.4-0.7,0.6
		c-0.2,0.3-0.3,0.6-0.4,0.9c-0.1,0.4-0.1,0.7-0.1,1.2v4.5h-1v-8H208.7z"/>
	<path class="st0" d="M222.9,0v1.6h-1V0H222.9z M222.9,3.1v8h-1v-8H222.9z"/>
	<path class="st0" d="M226.7,8.4c0.1,0.4,0.3,0.7,0.5,1c0.2,0.3,0.5,0.5,0.8,0.7c0.3,0.2,0.7,0.3,1.2,0.3c0.7,0,1.3-0.2,1.7-0.6
		c0.4-0.4,0.7-0.9,0.8-1.5h1c-0.2,0.9-0.6,1.6-1.1,2.1c-0.6,0.5-1.3,0.7-2.3,0.7c-0.6,0-1.2-0.1-1.6-0.3c-0.5-0.2-0.8-0.5-1.1-0.9
		s-0.5-0.8-0.6-1.3c-0.1-0.5-0.2-1.1-0.2-1.6c0-0.5,0.1-1,0.2-1.5c0.1-0.5,0.4-1,0.6-1.4c0.3-0.4,0.7-0.7,1.1-1
		c0.5-0.2,1-0.4,1.6-0.4c0.6,0,1.2,0.1,1.6,0.4c0.5,0.3,0.8,0.6,1.1,1c0.3,0.4,0.5,0.9,0.6,1.4c0.1,0.5,0.2,1.1,0.2,1.7h-6.2
		C226.6,7.7,226.6,8,226.7,8.4z M231.6,5.4c-0.1-0.3-0.3-0.6-0.5-0.9s-0.5-0.5-0.8-0.6c-0.3-0.2-0.7-0.2-1.1-0.2
		c-0.4,0-0.8,0.1-1.1,0.2c-0.3,0.2-0.6,0.4-0.8,0.6c-0.2,0.3-0.4,0.6-0.5,0.9c-0.1,0.3-0.2,0.7-0.3,1.1h5.2
		C231.8,6.1,231.7,5.8,231.6,5.4z"/>
	<path class="st0" d="M236.3,3.1v1.4h0c0.2-0.5,0.5-0.9,1-1.2s1-0.4,1.6-0.4c0.6,0,1,0.1,1.4,0.2c0.4,0.1,0.7,0.3,0.9,0.6
		s0.4,0.6,0.5,1c0.1,0.4,0.1,0.8,0.1,1.3v5.1h-1v-5c0-0.3,0-0.7-0.1-1c-0.1-0.3-0.2-0.6-0.3-0.8c-0.2-0.2-0.4-0.4-0.6-0.5
		c-0.3-0.1-0.6-0.2-1-0.2c-0.4,0-0.7,0.1-1,0.2c-0.3,0.1-0.6,0.3-0.8,0.6s-0.4,0.5-0.5,0.9s-0.2,0.7-0.2,1.1v4.7h-1v-8H236.3z"/>
	<path class="st0" d="M248.1,3.1v0.8h-1.6v5.4c0,0.3,0,0.6,0.1,0.8s0.3,0.3,0.7,0.3c0.3,0,0.6,0,0.8,0v0.8c-0.1,0-0.3,0-0.4,0
		c-0.1,0-0.3,0-0.4,0c-0.7,0-1.1-0.1-1.4-0.4c-0.3-0.3-0.4-0.7-0.4-1.4V3.9h-1.4V3.1h1.4V0.7h1v2.4H248.1z"/>
	<path class="st0" d="M255.7,3.2c0.5,0.2,0.9,0.5,1.2,0.9s0.6,0.8,0.7,1.3c0.2,0.5,0.2,1.1,0.2,1.6c0,0.6-0.1,1.1-0.2,1.6
		c-0.2,0.5-0.4,1-0.7,1.3c-0.3,0.4-0.7,0.7-1.2,0.9c-0.5,0.2-1,0.3-1.6,0.3s-1.1-0.1-1.6-0.3c-0.5-0.2-0.9-0.5-1.2-0.9
		c-0.3-0.4-0.6-0.8-0.7-1.3c-0.2-0.5-0.2-1.1-0.2-1.6c0-0.6,0.1-1.1,0.2-1.6c0.2-0.5,0.4-1,0.7-1.3s0.7-0.7,1.2-0.9
		c0.5-0.2,1-0.3,1.6-0.3S255.2,3,255.7,3.2z M252.9,4c-0.4,0.2-0.6,0.5-0.9,0.8c-0.2,0.3-0.4,0.7-0.5,1.1c-0.1,0.4-0.2,0.8-0.2,1.2
		c0,0.4,0.1,0.8,0.2,1.2c0.1,0.4,0.3,0.8,0.5,1.1c0.2,0.3,0.5,0.6,0.9,0.8c0.4,0.2,0.8,0.3,1.2,0.3c0.5,0,0.9-0.1,1.2-0.3
		s0.6-0.5,0.9-0.8c0.2-0.3,0.4-0.7,0.5-1.1c0.1-0.4,0.2-0.8,0.2-1.2c0-0.4-0.1-0.8-0.2-1.2c-0.1-0.4-0.3-0.8-0.5-1.1
		c-0.2-0.3-0.5-0.6-0.9-0.8s-0.8-0.3-1.2-0.3C253.6,3.7,253.2,3.8,252.9,4z"/>
	<path class="st0" d="M261.1,9.4h1.3v1.6h-1.3V9.4z"/>
</g>
</svg>
