<!-- Generator: Adobe Illustrator 20.1.0, SVG Export Plug-In  -->
<svg version="1.1"
	 xmlns="http://www.w3.org/2000/svg" xmlns:xlink="http://www.w3.org/1999/xlink" xmlns:a="http://ns.adobe.com/AdobeSVGViewerExtensions/3.0/"
	 x="0px" y="0px" width="286.6px" height="14.5px" viewBox="0 0 286.6 14.5"
	 style="overflow:scroll;enable-background:new 0 0 286.6 14.5;" xml:space="preserve">
<style type="text/css">
	.st0{opacity:0.8;fill:#333333;}
</style>
<defs>
</defs>
<g>
	<path class="st0" d="M7,0.2v0.9h-6v4h5.3V6H1.1v5.3H0V0.2H7z"/>
	<path class="st0" d="M10.2,4.5c0.2-0.3,0.4-0.6,0.7-0.8c0.3-0.2,0.6-0.4,1-0.5c0.4-0.1,0.8-0.2,1.3-0.2c0.4,0,0.7,0,1.1,0.1
		s0.7,0.2,0.9,0.4c0.3,0.2,0.5,0.4,0.7,0.8s0.3,0.8,0.3,1.3v4.2c0,0.4,0.2,0.6,0.6,0.6c0.1,0,0.2,0,0.3-0.1v0.8c-0.1,0-0.2,0-0.3,0
		c-0.1,0-0.2,0-0.3,0c-0.2,0-0.4,0-0.6-0.1s-0.3-0.2-0.3-0.3c-0.1-0.1-0.1-0.3-0.2-0.4c0-0.2,0-0.4,0-0.6h0
		c-0.2,0.3-0.4,0.5-0.5,0.7c-0.2,0.2-0.4,0.4-0.6,0.5c-0.2,0.1-0.5,0.2-0.8,0.3s-0.6,0.1-1,0.1c-0.4,0-0.7,0-1-0.1
		c-0.3-0.1-0.6-0.2-0.9-0.4c-0.2-0.2-0.4-0.4-0.6-0.7c-0.1-0.3-0.2-0.6-0.2-1c0-0.6,0.1-1,0.4-1.3s0.6-0.6,1-0.7
		c0.4-0.2,0.9-0.3,1.4-0.3c0.5-0.1,1-0.1,1.6-0.2c0.2,0,0.4,0,0.5-0.1c0.2,0,0.3-0.1,0.4-0.2C14.9,6.3,15,6.2,15,6.1
		c0.1-0.1,0.1-0.3,0.1-0.5c0-0.3-0.1-0.6-0.2-0.8c-0.1-0.2-0.3-0.4-0.4-0.5C14.3,4.1,14.1,4,13.8,4c-0.3,0-0.5-0.1-0.8-0.1
		c-0.6,0-1.1,0.1-1.5,0.4c-0.4,0.3-0.6,0.8-0.6,1.4h-1C9.9,5.3,10,4.9,10.2,4.5z M15.1,6.9C15,7,14.9,7.1,14.7,7.2
		c-0.2,0.1-0.3,0.1-0.5,0.1c-0.4,0.1-0.8,0.1-1.3,0.2c-0.4,0.1-0.8,0.1-1.2,0.3c-0.4,0.1-0.7,0.3-0.9,0.5c-0.2,0.2-0.3,0.5-0.3,0.9
		c0,0.2,0,0.5,0.1,0.7c0.1,0.2,0.2,0.4,0.4,0.5s0.4,0.2,0.6,0.3c0.2,0.1,0.4,0.1,0.7,0.1c0.4,0,0.7-0.1,1.1-0.2
		c0.3-0.1,0.6-0.3,0.9-0.5s0.5-0.5,0.6-0.8c0.1-0.3,0.2-0.7,0.2-1.1L15.1,6.9L15.1,6.9z"/>
	<path class="st0" d="M24.8,4.4c-0.4-0.3-0.9-0.5-1.5-0.5c-0.5,0-0.9,0.1-1.2,0.3c-0.4,0.2-0.6,0.5-0.9,0.8
		c-0.2,0.3-0.4,0.7-0.5,1.1c-0.1,0.4-0.2,0.8-0.2,1.2c0,0.4,0.1,0.8,0.2,1.2C20.8,9,21,9.3,21.2,9.6c0.2,0.3,0.5,0.6,0.9,0.8
		c0.4,0.2,0.8,0.3,1.2,0.3c0.3,0,0.6-0.1,0.9-0.2c0.3-0.1,0.5-0.3,0.7-0.5c0.2-0.2,0.4-0.4,0.5-0.7c0.1-0.3,0.2-0.6,0.2-0.9h1
		c-0.1,1-0.5,1.7-1.1,2.3c-0.6,0.5-1.3,0.8-2.2,0.8c-0.6,0-1.1-0.1-1.6-0.3c-0.5-0.2-0.9-0.5-1.2-0.9c-0.3-0.4-0.6-0.8-0.7-1.3
		c-0.2-0.5-0.2-1.1-0.2-1.6c0-0.6,0.1-1.1,0.2-1.6c0.2-0.5,0.4-1,0.7-1.3s0.7-0.7,1.2-0.9c0.5-0.2,1-0.3,1.6-0.3
		c0.9,0,1.6,0.2,2.2,0.7c0.6,0.5,0.9,1.1,1.1,2.1h-1C25.4,5.2,25.2,4.7,24.8,4.4z"/>
	<path class="st0" d="M33,3.3v0.8h-1.6v5.4c0,0.3,0,0.6,0.1,0.8s0.3,0.3,0.7,0.3c0.3,0,0.6,0,0.8,0v0.8c-0.1,0-0.3,0-0.4,0
		c-0.1,0-0.3,0-0.4,0c-0.7,0-1.1-0.1-1.4-0.4c-0.3-0.3-0.4-0.7-0.4-1.4V4.1H29V3.3h1.4V0.9h1v2.4H33z"/>
	<path class="st0" d="M41.3,3.4c0.5,0.2,0.9,0.5,1.2,0.9s0.6,0.8,0.7,1.3c0.2,0.5,0.2,1.1,0.2,1.6c0,0.6-0.1,1.1-0.2,1.6
		c-0.2,0.5-0.4,1-0.7,1.3c-0.3,0.4-0.7,0.7-1.2,0.9c-0.5,0.2-1,0.3-1.6,0.3s-1.1-0.1-1.6-0.3c-0.5-0.2-0.9-0.5-1.2-0.9
		c-0.3-0.4-0.6-0.8-0.7-1.3c-0.2-0.5-0.2-1.1-0.2-1.6c0-0.6,0.1-1.1,0.2-1.6c0.2-0.5,0.4-1,0.7-1.3s0.7-0.7,1.2-0.9
		c0.5-0.2,1-0.3,1.6-0.3S40.8,3.2,41.3,3.4z M38.4,4.2c-0.4,0.2-0.6,0.5-0.9,0.8c-0.2,0.3-0.4,0.7-0.5,1.1c-0.1,0.4-0.2,0.8-0.2,1.2
		c0,0.4,0.1,0.8,0.2,1.2c0.1,0.4,0.3,0.8,0.5,1.1c0.2,0.3,0.5,0.6,0.9,0.8c0.4,0.2,0.8,0.3,1.2,0.3c0.5,0,0.9-0.1,1.2-0.3
		s0.6-0.5,0.9-0.8C42,9.3,42.2,9,42.3,8.6c0.1-0.4,0.2-0.8,0.2-1.2c0-0.4-0.1-0.8-0.2-1.2C42.2,5.6,42,5.3,41.8,5
		c-0.2-0.3-0.5-0.6-0.9-0.8s-0.8-0.3-1.2-0.3C39.2,3.9,38.8,4,38.4,4.2z"/>
	<path class="st0" d="M47.7,3.3v1.9h0c0.2-0.7,0.6-1.2,1.2-1.5c0.5-0.4,1.1-0.5,1.9-0.5v1c-0.4,0-0.8,0-1.2,0.2
		c-0.4,0.1-0.7,0.3-0.9,0.6s-0.5,0.6-0.6,0.9c-0.1,0.4-0.2,0.7-0.2,1.2v4.3h-1v-8H47.7z"/>
	<path class="st0" d="M54.2,8.7c0.1,0.4,0.3,0.7,0.5,1c0.2,0.3,0.5,0.5,0.8,0.7c0.3,0.2,0.7,0.3,1.2,0.3c0.7,0,1.3-0.2,1.7-0.6
		c0.4-0.4,0.7-0.9,0.8-1.5h1c-0.2,0.9-0.6,1.6-1.1,2.1c-0.6,0.5-1.3,0.7-2.3,0.7c-0.6,0-1.2-0.1-1.6-0.3c-0.5-0.2-0.8-0.5-1.1-0.9
		s-0.5-0.8-0.6-1.3c-0.1-0.5-0.2-1.1-0.2-1.6c0-0.5,0.1-1,0.2-1.5c0.1-0.5,0.4-1,0.6-1.4c0.3-0.4,0.7-0.7,1.1-1
		c0.5-0.2,1-0.4,1.6-0.4c0.6,0,1.2,0.1,1.6,0.4c0.5,0.3,0.8,0.6,1.1,1c0.3,0.4,0.5,0.9,0.6,1.4c0.1,0.5,0.2,1.1,0.2,1.7h-6.2
		C54.1,7.9,54.1,8.3,54.2,8.7z M59.1,5.7c-0.1-0.3-0.3-0.6-0.5-0.9s-0.5-0.5-0.8-0.6c-0.3-0.2-0.7-0.2-1.1-0.2
		c-0.4,0-0.8,0.1-1.1,0.2c-0.3,0.2-0.6,0.4-0.8,0.6c-0.2,0.3-0.4,0.6-0.5,0.9c-0.1,0.3-0.2,0.7-0.3,1.1h5.2
		C59.2,6.4,59.2,6,59.1,5.7z"/>
	<path class="st0" d="M68,4.9c-0.1-0.2-0.3-0.4-0.5-0.6S67.1,4.1,66.9,4c-0.2-0.1-0.5-0.1-0.8-0.1c-0.2,0-0.4,0-0.7,0.1
		c-0.2,0-0.4,0.1-0.6,0.2s-0.3,0.3-0.4,0.4c-0.1,0.2-0.2,0.4-0.2,0.7c0,0.2,0.1,0.4,0.2,0.6c0.1,0.2,0.2,0.3,0.4,0.4
		c0.2,0.1,0.3,0.2,0.5,0.3s0.4,0.1,0.5,0.2l1.3,0.3C67.5,7,67.7,7,68,7.1s0.5,0.3,0.7,0.4c0.2,0.2,0.4,0.4,0.5,0.7
		c0.1,0.3,0.2,0.6,0.2,0.9c0,0.4-0.1,0.8-0.3,1.1c-0.2,0.3-0.4,0.6-0.8,0.7c-0.3,0.2-0.6,0.3-1,0.4s-0.8,0.1-1.1,0.1
		c-0.9,0-1.7-0.2-2.3-0.7c-0.6-0.4-0.9-1.2-1-2.1h1c0,0.7,0.3,1.2,0.7,1.5c0.4,0.3,1,0.5,1.6,0.5c0.2,0,0.5,0,0.7-0.1
		c0.3-0.1,0.5-0.1,0.7-0.3c0.2-0.1,0.4-0.3,0.5-0.5s0.2-0.4,0.2-0.7c0-0.2,0-0.4-0.1-0.6s-0.2-0.3-0.4-0.4c-0.2-0.1-0.4-0.2-0.6-0.3
		s-0.4-0.1-0.6-0.2l-1.3-0.3c-0.3-0.1-0.6-0.2-0.9-0.3c-0.3-0.1-0.5-0.2-0.7-0.4s-0.4-0.4-0.5-0.6s-0.2-0.5-0.2-0.9
		c0-0.4,0.1-0.7,0.3-1c0.2-0.3,0.4-0.5,0.7-0.7c0.3-0.2,0.6-0.3,1-0.4c0.4-0.1,0.7-0.1,1.1-0.1c0.4,0,0.8,0.1,1.1,0.2
		c0.3,0.1,0.7,0.3,0.9,0.5c0.3,0.2,0.5,0.5,0.6,0.8c0.2,0.3,0.2,0.7,0.3,1.1h-1C68.2,5.3,68.1,5.1,68,4.9z"/>
	<path class="st0" d="M83.5,4.9c-0.1-0.2-0.3-0.4-0.5-0.6S82.6,4.1,82.4,4c-0.2-0.1-0.5-0.1-0.8-0.1c-0.2,0-0.4,0-0.7,0.1
		c-0.2,0-0.4,0.1-0.6,0.2S80,4.4,79.9,4.6c-0.1,0.2-0.2,0.4-0.2,0.7c0,0.2,0.1,0.4,0.2,0.6C80,6,80.1,6.1,80.3,6.2
		c0.2,0.1,0.3,0.2,0.5,0.3s0.4,0.1,0.5,0.2l1.3,0.3c0.3,0,0.6,0.1,0.8,0.2s0.5,0.3,0.7,0.4c0.2,0.2,0.4,0.4,0.5,0.7
		c0.1,0.3,0.2,0.6,0.2,0.9c0,0.4-0.1,0.8-0.3,1.1c-0.2,0.3-0.4,0.6-0.8,0.7c-0.3,0.2-0.6,0.3-1,0.4s-0.8,0.1-1.1,0.1
		c-0.9,0-1.7-0.2-2.3-0.7c-0.6-0.4-0.9-1.2-1-2.1h1c0,0.7,0.3,1.2,0.7,1.5c0.4,0.3,1,0.5,1.6,0.5c0.2,0,0.5,0,0.7-0.1
		c0.3-0.1,0.5-0.1,0.7-0.3c0.2-0.1,0.4-0.3,0.5-0.5S84,9.5,84,9.2c0-0.2,0-0.4-0.1-0.6s-0.2-0.3-0.4-0.4c-0.2-0.1-0.4-0.2-0.6-0.3
		s-0.4-0.1-0.6-0.2L81,7.5c-0.3-0.1-0.6-0.2-0.9-0.3c-0.3-0.1-0.5-0.2-0.7-0.4S79,6.4,78.9,6.2s-0.2-0.5-0.2-0.9
		c0-0.4,0.1-0.7,0.3-1c0.2-0.3,0.4-0.5,0.7-0.7c0.3-0.2,0.6-0.3,1-0.4c0.4-0.1,0.7-0.1,1.1-0.1c0.4,0,0.8,0.1,1.1,0.2
		c0.3,0.1,0.7,0.3,0.9,0.5c0.3,0.2,0.5,0.5,0.6,0.8c0.2,0.3,0.2,0.7,0.3,1.1h-1C83.7,5.3,83.6,5.1,83.5,4.9z"/>
	<path class="st0" d="M93.2,3.4c0.5,0.2,0.9,0.5,1.2,0.9s0.6,0.8,0.7,1.3c0.2,0.5,0.2,1.1,0.2,1.6c0,0.6-0.1,1.1-0.2,1.6
		c-0.2,0.5-0.4,1-0.7,1.3c-0.3,0.4-0.7,0.7-1.2,0.9c-0.5,0.2-1,0.3-1.6,0.3s-1.1-0.1-1.6-0.3c-0.5-0.2-0.9-0.5-1.2-0.9
		c-0.3-0.4-0.6-0.8-0.7-1.3c-0.2-0.5-0.2-1.1-0.2-1.6c0-0.6,0.1-1.1,0.2-1.6c0.2-0.5,0.4-1,0.7-1.3s0.7-0.7,1.2-0.9
		c0.5-0.2,1-0.3,1.6-0.3S92.7,3.2,93.2,3.4z M90.4,4.2C90,4.4,89.7,4.6,89.5,5c-0.2,0.3-0.4,0.7-0.5,1.1c-0.1,0.4-0.2,0.8-0.2,1.2
		c0,0.4,0.1,0.8,0.2,1.2c0.1,0.4,0.3,0.8,0.5,1.1c0.2,0.3,0.5,0.6,0.9,0.8c0.4,0.2,0.8,0.3,1.2,0.3c0.5,0,0.9-0.1,1.2-0.3
		s0.6-0.5,0.9-0.8c0.2-0.3,0.4-0.7,0.5-1.1c0.1-0.4,0.2-0.8,0.2-1.2c0-0.4-0.1-0.8-0.2-1.2c-0.1-0.4-0.3-0.8-0.5-1.1
		c-0.2-0.3-0.5-0.6-0.9-0.8s-0.8-0.3-1.2-0.3C91.1,3.9,90.7,4,90.4,4.2z"/>
	<path class="st0" d="M103.6,4.4c-0.4-0.3-0.9-0.5-1.5-0.5c-0.5,0-0.9,0.1-1.2,0.3c-0.4,0.2-0.6,0.5-0.9,0.8
		c-0.2,0.3-0.4,0.7-0.5,1.1c-0.1,0.4-0.2,0.8-0.2,1.2c0,0.4,0.1,0.8,0.2,1.2c0.1,0.4,0.3,0.8,0.5,1.1c0.2,0.3,0.5,0.6,0.9,0.8
		c0.4,0.2,0.8,0.3,1.2,0.3c0.3,0,0.6-0.1,0.9-0.2c0.3-0.1,0.5-0.3,0.7-0.5c0.2-0.2,0.4-0.4,0.5-0.7c0.1-0.3,0.2-0.6,0.2-0.9h1
		c-0.1,1-0.5,1.7-1.1,2.3c-0.6,0.5-1.3,0.8-2.2,0.8c-0.6,0-1.1-0.1-1.6-0.3c-0.5-0.2-0.9-0.5-1.2-0.9c-0.3-0.4-0.6-0.8-0.7-1.3
		c-0.2-0.5-0.2-1.1-0.2-1.6c0-0.6,0.1-1.1,0.2-1.6c0.2-0.5,0.4-1,0.7-1.3s0.7-0.7,1.2-0.9c0.5-0.2,1-0.3,1.6-0.3
		c0.9,0,1.6,0.2,2.2,0.7c0.6,0.5,0.9,1.1,1.1,2.1h-1C104.2,5.2,104,4.7,103.6,4.4z"/>
	<path class="st0" d="M109.6,0.2v1.6h-1V0.2H109.6z M109.6,3.3v8h-1v-8H109.6z"/>
	<path class="st0" d="M113.5,4.5c0.2-0.3,0.4-0.6,0.7-0.8c0.3-0.2,0.6-0.4,1-0.5c0.4-0.1,0.8-0.2,1.3-0.2c0.4,0,0.7,0,1.1,0.1
		s0.7,0.2,0.9,0.4c0.3,0.2,0.5,0.4,0.7,0.8s0.3,0.8,0.3,1.3v4.2c0,0.4,0.2,0.6,0.6,0.6c0.1,0,0.2,0,0.3-0.1v0.8c-0.1,0-0.2,0-0.3,0
		c-0.1,0-0.2,0-0.3,0c-0.2,0-0.4,0-0.6-0.1s-0.3-0.2-0.3-0.3c-0.1-0.1-0.1-0.3-0.2-0.4c0-0.2,0-0.4,0-0.6h0
		c-0.2,0.3-0.4,0.5-0.5,0.7c-0.2,0.2-0.4,0.4-0.6,0.5c-0.2,0.1-0.5,0.2-0.8,0.3s-0.6,0.1-1,0.1c-0.4,0-0.7,0-1-0.1
		c-0.3-0.1-0.6-0.2-0.9-0.4c-0.2-0.2-0.4-0.4-0.6-0.7c-0.1-0.3-0.2-0.6-0.2-1c0-0.6,0.1-1,0.4-1.3s0.6-0.6,1-0.7
		c0.4-0.2,0.9-0.3,1.4-0.3c0.5-0.1,1-0.1,1.6-0.2c0.2,0,0.4,0,0.5-0.1c0.2,0,0.3-0.1,0.4-0.2c0.1-0.1,0.2-0.2,0.2-0.3
		c0.1-0.1,0.1-0.3,0.1-0.5c0-0.3-0.1-0.6-0.2-0.8c-0.1-0.2-0.3-0.4-0.4-0.5c-0.2-0.1-0.4-0.2-0.7-0.3c-0.3,0-0.5-0.1-0.8-0.1
		c-0.6,0-1.1,0.1-1.5,0.4c-0.4,0.3-0.6,0.8-0.6,1.4h-1C113.3,5.3,113.4,4.9,113.5,4.5z M118.4,6.9c-0.1,0.1-0.2,0.2-0.4,0.2
		c-0.2,0.1-0.3,0.1-0.5,0.1c-0.4,0.1-0.8,0.1-1.3,0.2c-0.4,0.1-0.8,0.1-1.2,0.3c-0.4,0.1-0.7,0.3-0.9,0.5c-0.2,0.2-0.3,0.5-0.3,0.9
		c0,0.2,0,0.5,0.1,0.7c0.1,0.2,0.2,0.4,0.4,0.5s0.4,0.2,0.6,0.3c0.2,0.1,0.4,0.1,0.7,0.1c0.4,0,0.7-0.1,1.1-0.2
		c0.3-0.1,0.6-0.3,0.9-0.5s0.5-0.5,0.6-0.8c0.1-0.3,0.2-0.7,0.2-1.1L118.4,6.9L118.4,6.9z"/>
	<path class="st0" d="M124.2,0.2v11.1h-1V0.2H124.2z"/>
	<path class="st0" d="M128.7,8.7c0.1,0.4,0.3,0.7,0.5,1c0.2,0.3,0.5,0.5,0.8,0.7c0.3,0.2,0.7,0.3,1.2,0.3c0.7,0,1.3-0.2,1.7-0.6
		c0.4-0.4,0.7-0.9,0.8-1.5h1c-0.2,0.9-0.6,1.6-1.1,2.1c-0.6,0.5-1.3,0.7-2.3,0.7c-0.6,0-1.2-0.1-1.6-0.3c-0.5-0.2-0.8-0.5-1.1-0.9
		s-0.5-0.8-0.6-1.3c-0.1-0.5-0.2-1.1-0.2-1.6c0-0.5,0.1-1,0.2-1.5c0.1-0.5,0.4-1,0.6-1.4c0.3-0.4,0.7-0.7,1.1-1
		c0.5-0.2,1-0.4,1.6-0.4c0.6,0,1.2,0.1,1.6,0.4c0.5,0.3,0.8,0.6,1.1,1c0.3,0.4,0.5,0.9,0.6,1.4c0.1,0.5,0.2,1.1,0.2,1.7h-6.2
		C128.5,7.9,128.6,8.3,128.7,8.7z M133.5,5.7c-0.1-0.3-0.3-0.6-0.5-0.9s-0.5-0.5-0.8-0.6c-0.3-0.2-0.7-0.2-1.1-0.2
		c-0.4,0-0.8,0.1-1.1,0.2c-0.3,0.2-0.6,0.4-0.8,0.6c-0.2,0.3-0.4,0.6-0.5,0.9c-0.1,0.3-0.2,0.7-0.3,1.1h5.2
		C133.7,6.4,133.6,6,133.5,5.7z"/>
	<path class="st0" d="M142.5,4.9c-0.1-0.2-0.3-0.4-0.5-0.6s-0.4-0.3-0.7-0.3c-0.2-0.1-0.5-0.1-0.8-0.1c-0.2,0-0.4,0-0.7,0.1
		c-0.2,0-0.4,0.1-0.6,0.2s-0.3,0.3-0.4,0.4c-0.1,0.2-0.2,0.4-0.2,0.7c0,0.2,0.1,0.4,0.2,0.6c0.1,0.2,0.2,0.3,0.4,0.4
		c0.2,0.1,0.3,0.2,0.5,0.3s0.4,0.1,0.5,0.2l1.3,0.3c0.3,0,0.6,0.1,0.8,0.2s0.5,0.3,0.7,0.4c0.2,0.2,0.4,0.4,0.5,0.7
		c0.1,0.3,0.2,0.6,0.2,0.9c0,0.4-0.1,0.8-0.3,1.1c-0.2,0.3-0.4,0.6-0.8,0.7c-0.3,0.2-0.6,0.3-1,0.4s-0.8,0.1-1.1,0.1
		c-0.9,0-1.7-0.2-2.3-0.7c-0.6-0.4-0.9-1.2-1-2.1h1c0,0.7,0.3,1.2,0.7,1.5c0.4,0.3,1,0.5,1.6,0.5c0.2,0,0.5,0,0.7-0.1
		c0.3-0.1,0.5-0.1,0.7-0.3c0.2-0.1,0.4-0.3,0.5-0.5s0.2-0.4,0.2-0.7c0-0.2,0-0.4-0.1-0.6s-0.2-0.3-0.4-0.4c-0.2-0.1-0.4-0.2-0.6-0.3
		s-0.4-0.1-0.6-0.2l-1.3-0.3c-0.3-0.1-0.6-0.2-0.9-0.3c-0.3-0.1-0.5-0.2-0.7-0.4s-0.4-0.4-0.5-0.6s-0.2-0.5-0.2-0.9
		c0-0.4,0.1-0.7,0.3-1c0.2-0.3,0.4-0.5,0.7-0.7c0.3-0.2,0.6-0.3,1-0.4c0.4-0.1,0.7-0.1,1.1-0.1c0.4,0,0.8,0.1,1.1,0.2
		c0.3,0.1,0.7,0.3,0.9,0.5c0.3,0.2,0.5,0.5,0.6,0.8c0.2,0.3,0.2,0.7,0.3,1.1h-1C142.7,5.3,142.6,5.1,142.5,4.9z"/>
	<path class="st0" d="M154.5,12.6c-0.3-0.6-0.5-1.1-0.7-1.7c-0.2-0.6-0.3-1.2-0.4-1.8s-0.1-1.2-0.1-1.9c0-1.3,0.2-2.6,0.6-3.8
		c0.4-1.2,0.9-2.3,1.6-3.4h0.8c-0.7,1.1-1.2,2.3-1.5,3.6c-0.3,1.3-0.5,2.6-0.5,4c0,0.6,0,1.1,0.1,1.7c0.1,0.6,0.2,1.2,0.4,1.8
		c0.2,0.6,0.4,1.2,0.6,1.7c0.2,0.5,0.5,1.1,0.8,1.5h-0.8C155.1,13.7,154.8,13.1,154.5,12.6z"/>
	<path class="st0" d="M160.5,4.1v7.2h-1V4.1h-1.4V3.3h1.4V2.6c0-0.3,0-0.7,0.1-0.9s0.1-0.5,0.3-0.7c0.1-0.2,0.3-0.4,0.6-0.5
		c0.3-0.1,0.6-0.2,1-0.2c0.1,0,0.3,0,0.4,0c0.1,0,0.3,0,0.4,0v0.8c-0.1,0-0.3,0-0.4-0.1c-0.1,0-0.2,0-0.3,0c-0.3,0-0.5,0-0.6,0.1
		c-0.1,0.1-0.3,0.2-0.3,0.3c-0.1,0.1-0.1,0.3-0.1,0.5c0,0.2,0,0.4,0,0.6v0.7h1.6v0.8H160.5z"/>
	<path class="st0" d="M165,4.5c0.2-0.3,0.4-0.6,0.7-0.8c0.3-0.2,0.6-0.4,1-0.5c0.4-0.1,0.8-0.2,1.3-0.2c0.4,0,0.7,0,1.1,0.1
		s0.7,0.2,0.9,0.4c0.3,0.2,0.5,0.4,0.7,0.8s0.3,0.8,0.3,1.3v4.2c0,0.4,0.2,0.6,0.6,0.6c0.1,0,0.2,0,0.3-0.1v0.8c-0.1,0-0.2,0-0.3,0
		c-0.1,0-0.2,0-0.3,0c-0.2,0-0.4,0-0.6-0.1s-0.3-0.2-0.3-0.3c-0.1-0.1-0.1-0.3-0.2-0.4c0-0.2,0-0.4,0-0.6h0
		c-0.2,0.3-0.4,0.5-0.5,0.7c-0.2,0.2-0.4,0.4-0.6,0.5c-0.2,0.1-0.5,0.2-0.8,0.3s-0.6,0.1-1,0.1c-0.4,0-0.7,0-1-0.1
		c-0.3-0.1-0.6-0.2-0.9-0.4c-0.2-0.2-0.4-0.4-0.6-0.7c-0.1-0.3-0.2-0.6-0.2-1c0-0.6,0.1-1,0.4-1.3s0.6-0.6,1-0.7
		c0.4-0.2,0.9-0.3,1.4-0.3c0.5-0.1,1-0.1,1.6-0.2c0.2,0,0.4,0,0.5-0.1c0.2,0,0.3-0.1,0.4-0.2c0.1-0.1,0.2-0.2,0.2-0.3
		c0.1-0.1,0.1-0.3,0.1-0.5c0-0.3-0.1-0.6-0.2-0.8c-0.1-0.2-0.3-0.4-0.4-0.5c-0.2-0.1-0.4-0.2-0.7-0.3c-0.3,0-0.5-0.1-0.8-0.1
		c-0.6,0-1.1,0.1-1.5,0.4c-0.4,0.3-0.6,0.8-0.6,1.4h-1C164.8,5.3,164.9,4.9,165,4.5z M169.9,6.9c-0.1,0.1-0.2,0.2-0.4,0.2
		c-0.2,0.1-0.3,0.1-0.5,0.1c-0.4,0.1-0.8,0.1-1.3,0.2c-0.4,0.1-0.8,0.1-1.2,0.3c-0.4,0.1-0.7,0.3-0.9,0.5c-0.2,0.2-0.3,0.5-0.3,0.9
		c0,0.2,0,0.5,0.1,0.7c0.1,0.2,0.2,0.4,0.4,0.5s0.4,0.2,0.6,0.3c0.2,0.1,0.4,0.1,0.7,0.1c0.4,0,0.7-0.1,1.1-0.2
		c0.3-0.1,0.6-0.3,0.9-0.5s0.5-0.5,0.6-0.8c0.1-0.3,0.2-0.7,0.2-1.1L169.9,6.9L169.9,6.9z"/>
	<path class="st0" d="M175.7,3.3v1.3h0c0.3-0.5,0.6-0.9,1-1.2c0.4-0.3,1-0.4,1.6-0.4c0.5,0,1,0.1,1.4,0.4c0.4,0.3,0.7,0.7,0.9,1.2
		c0.2-0.5,0.6-0.9,1.1-1.2c0.5-0.3,1-0.4,1.5-0.4c1.8,0,2.7,0.9,2.7,2.8v5.4h-1V5.9c0-0.7-0.1-1.2-0.4-1.5c-0.3-0.3-0.8-0.5-1.5-0.5
		c-0.4,0-0.8,0.1-1.1,0.2c-0.3,0.2-0.5,0.4-0.7,0.6c-0.2,0.3-0.3,0.6-0.3,0.9s-0.1,0.7-0.1,1.1v4.5h-1V5.9c0-0.3,0-0.5-0.1-0.8
		c-0.1-0.2-0.2-0.5-0.3-0.6c-0.1-0.2-0.3-0.3-0.5-0.4c-0.2-0.1-0.5-0.2-0.8-0.2c-0.4,0-0.8,0.1-1.1,0.2c-0.3,0.2-0.6,0.4-0.7,0.6
		c-0.2,0.3-0.3,0.6-0.4,0.9c-0.1,0.4-0.1,0.7-0.1,1.2v4.5h-1v-8H175.7z"/>
	<path class="st0" d="M190.5,0.2v1.6h-1V0.2H190.5z M190.5,3.3v8h-1v-8H190.5z"/>
	<path class="st0" d="M195.3,0.2v11.1h-1V0.2H195.3z"/>
	<path class="st0" d="M200,0.2v1.6h-1V0.2H200z M200,3.3v8h-1v-8H200z"/>
	<path class="st0" d="M203.9,4.5c0.2-0.3,0.4-0.6,0.7-0.8c0.3-0.2,0.6-0.4,1-0.5c0.4-0.1,0.8-0.2,1.3-0.2c0.4,0,0.7,0,1.1,0.1
		s0.7,0.2,0.9,0.4c0.3,0.2,0.5,0.4,0.7,0.8s0.3,0.8,0.3,1.3v4.2c0,0.4,0.2,0.6,0.6,0.6c0.1,0,0.2,0,0.3-0.1v0.8c-0.1,0-0.2,0-0.3,0
		c-0.1,0-0.2,0-0.3,0c-0.2,0-0.4,0-0.6-0.1s-0.3-0.2-0.3-0.3c-0.1-0.1-0.1-0.3-0.2-0.4c0-0.2,0-0.4,0-0.6h0
		c-0.2,0.3-0.4,0.5-0.5,0.7c-0.2,0.2-0.4,0.4-0.6,0.5c-0.2,0.1-0.5,0.2-0.8,0.3s-0.6,0.1-1,0.1c-0.4,0-0.7,0-1-0.1
		c-0.3-0.1-0.6-0.2-0.9-0.4c-0.2-0.2-0.4-0.4-0.6-0.7c-0.1-0.3-0.2-0.6-0.2-1c0-0.6,0.1-1,0.4-1.3s0.6-0.6,1-0.7
		c0.4-0.2,0.9-0.3,1.4-0.3c0.5-0.1,1-0.1,1.6-0.2c0.2,0,0.4,0,0.5-0.1c0.2,0,0.3-0.1,0.4-0.2c0.1-0.1,0.2-0.2,0.2-0.3
		c0.1-0.1,0.1-0.3,0.1-0.5c0-0.3-0.1-0.6-0.2-0.8c-0.1-0.2-0.3-0.4-0.4-0.5C208,4.1,207.8,4,207.6,4c-0.3,0-0.5-0.1-0.8-0.1
		c-0.6,0-1.1,0.1-1.5,0.4c-0.4,0.3-0.6,0.8-0.6,1.4h-1C203.7,5.3,203.8,4.9,203.9,4.5z M208.8,6.9c-0.1,0.1-0.2,0.2-0.4,0.2
		c-0.2,0.1-0.3,0.1-0.5,0.1c-0.4,0.1-0.8,0.1-1.3,0.2c-0.4,0.1-0.8,0.1-1.2,0.3c-0.4,0.1-0.7,0.3-0.9,0.5c-0.2,0.2-0.3,0.5-0.3,0.9
		c0,0.2,0,0.5,0.1,0.7c0.1,0.2,0.2,0.4,0.4,0.5s0.4,0.2,0.6,0.3c0.2,0.1,0.4,0.1,0.7,0.1c0.4,0,0.7-0.1,1.1-0.2
		c0.3-0.1,0.6-0.3,0.9-0.5s0.5-0.5,0.6-0.8c0.1-0.3,0.2-0.7,0.2-1.1L208.8,6.9L208.8,6.9z"/>
	<path class="st0" d="M215.5,11.3c0,0.2,0,0.5-0.1,0.7c-0.1,0.2-0.1,0.4-0.3,0.6s-0.3,0.4-0.4,0.5s-0.4,0.2-0.6,0.3v-0.7
		c0.1,0,0.2-0.1,0.3-0.2c0.1-0.1,0.2-0.2,0.2-0.4c0.1-0.1,0.1-0.3,0.1-0.4c0-0.2,0-0.3,0-0.4h-0.7V9.7h1.3V11.3z"/>
	<path class="st0" d="M226.2,4.5c0.2-0.3,0.4-0.6,0.7-0.8c0.3-0.2,0.6-0.4,1-0.5c0.4-0.1,0.8-0.2,1.3-0.2c0.4,0,0.7,0,1.1,0.1
		s0.7,0.2,0.9,0.4c0.3,0.2,0.5,0.4,0.7,0.8s0.3,0.8,0.3,1.3v4.2c0,0.4,0.2,0.6,0.6,0.6c0.1,0,0.2,0,0.3-0.1v0.8c-0.1,0-0.2,0-0.3,0
		c-0.1,0-0.2,0-0.3,0c-0.2,0-0.4,0-0.6-0.1s-0.3-0.2-0.3-0.3c-0.1-0.1-0.1-0.3-0.2-0.4c0-0.2,0-0.4,0-0.6h0
		c-0.2,0.3-0.4,0.5-0.5,0.7c-0.2,0.2-0.4,0.4-0.6,0.5c-0.2,0.1-0.5,0.2-0.8,0.3s-0.6,0.1-1,0.1c-0.4,0-0.7,0-1-0.1
		c-0.3-0.1-0.6-0.2-0.9-0.4c-0.2-0.2-0.4-0.4-0.6-0.7c-0.1-0.3-0.2-0.6-0.2-1c0-0.6,0.1-1,0.4-1.3s0.6-0.6,1-0.7
		c0.4-0.2,0.9-0.3,1.4-0.3c0.5-0.1,1-0.1,1.6-0.2c0.2,0,0.4,0,0.5-0.1c0.2,0,0.3-0.1,0.4-0.2c0.1-0.1,0.2-0.2,0.2-0.3
		c0.1-0.1,0.1-0.3,0.1-0.5c0-0.3-0.1-0.6-0.2-0.8c-0.1-0.2-0.3-0.4-0.4-0.5c-0.2-0.1-0.4-0.2-0.7-0.3c-0.3,0-0.5-0.1-0.8-0.1
		c-0.6,0-1.1,0.1-1.5,0.4c-0.4,0.3-0.6,0.8-0.6,1.4h-1C225.9,5.3,226,4.9,226.2,4.5z M231.1,6.9c-0.1,0.1-0.2,0.2-0.4,0.2
		c-0.2,0.1-0.3,0.1-0.5,0.1c-0.4,0.1-0.8,0.1-1.3,0.2c-0.4,0.1-0.8,0.1-1.2,0.3c-0.4,0.1-0.7,0.3-0.9,0.5c-0.2,0.2-0.3,0.5-0.3,0.9
		c0,0.2,0,0.5,0.1,0.7c0.1,0.2,0.2,0.4,0.4,0.5s0.4,0.2,0.6,0.3c0.2,0.1,0.4,0.1,0.7,0.1c0.4,0,0.7-0.1,1.1-0.2
		c0.3-0.1,0.6-0.3,0.9-0.5s0.5-0.5,0.6-0.8c0.1-0.3,0.2-0.7,0.2-1.1L231.1,6.9L231.1,6.9z"/>
	<path class="st0" d="M235.8,3.3v1.3h0c0.3-0.5,0.6-0.9,1-1.2c0.4-0.3,1-0.4,1.6-0.4c0.5,0,1,0.1,1.4,0.4c0.4,0.3,0.7,0.7,0.9,1.2
		c0.2-0.5,0.6-0.9,1.1-1.2c0.5-0.3,1-0.4,1.5-0.4c1.8,0,2.7,0.9,2.7,2.8v5.4h-1V5.9c0-0.7-0.1-1.2-0.4-1.5c-0.3-0.3-0.8-0.5-1.5-0.5
		c-0.4,0-0.8,0.1-1.1,0.2c-0.3,0.2-0.5,0.4-0.7,0.6c-0.2,0.3-0.3,0.6-0.3,0.9S241,6.4,241,6.8v4.5h-1V5.9c0-0.3,0-0.5-0.1-0.8
		c-0.1-0.2-0.2-0.5-0.3-0.6c-0.1-0.2-0.3-0.3-0.5-0.4c-0.2-0.1-0.5-0.2-0.8-0.2c-0.4,0-0.8,0.1-1.1,0.2c-0.3,0.2-0.6,0.4-0.7,0.6
		c-0.2,0.3-0.3,0.6-0.4,0.9c-0.1,0.4-0.1,0.7-0.1,1.2v4.5h-1v-8H235.8z"/>
	<path class="st0" d="M249.8,0.2v1.6h-1V0.2H249.8z M249.8,3.3v8h-1v-8H249.8z"/>
	<path class="st0" d="M259.2,12.3c-0.1,0.5-0.3,0.9-0.6,1.2s-0.6,0.6-1.1,0.8s-1,0.3-1.7,0.3c-0.4,0-0.8,0-1.2-0.1
		c-0.4-0.1-0.7-0.2-1-0.4c-0.3-0.2-0.6-0.4-0.8-0.8c-0.2-0.3-0.3-0.7-0.3-1.1h1c0.1,0.3,0.2,0.6,0.3,0.8c0.1,0.2,0.3,0.4,0.5,0.5
		s0.4,0.2,0.7,0.3s0.5,0.1,0.8,0.1c0.9,0,1.6-0.3,2-0.8c0.4-0.5,0.6-1.3,0.6-2.2V9.6h0c-0.2,0.5-0.6,0.9-1,1.2
		c-0.4,0.3-1,0.5-1.5,0.5c-0.6,0-1.2-0.1-1.6-0.3c-0.5-0.2-0.8-0.5-1.1-0.9c-0.3-0.4-0.5-0.8-0.6-1.3c-0.1-0.5-0.2-1-0.2-1.6
		c0-0.5,0.1-1.1,0.2-1.6c0.2-0.5,0.4-0.9,0.7-1.3c0.3-0.4,0.7-0.7,1.1-0.9s1-0.3,1.5-0.3c0.3,0,0.6,0,0.8,0.1s0.5,0.2,0.7,0.3
		c0.2,0.1,0.4,0.3,0.6,0.5c0.2,0.2,0.3,0.4,0.4,0.6h0V3.3h1v7.3C259.4,11.2,259.3,11.8,259.2,12.3z M256.9,10.1
		c0.3-0.2,0.6-0.4,0.8-0.7c0.2-0.3,0.4-0.6,0.5-1s0.2-0.8,0.2-1.2c0-0.4,0-0.8-0.1-1.2c-0.1-0.4-0.2-0.7-0.4-1.1
		c-0.2-0.3-0.5-0.6-0.8-0.8s-0.7-0.3-1.2-0.3s-0.9,0.1-1.2,0.3c-0.3,0.2-0.6,0.4-0.8,0.8c-0.2,0.3-0.4,0.7-0.5,1.1
		c-0.1,0.4-0.1,0.8-0.1,1.2c0,0.4,0.1,0.8,0.2,1.2c0.1,0.4,0.3,0.7,0.5,1c0.2,0.3,0.5,0.5,0.8,0.7c0.3,0.2,0.7,0.3,1.2,0.3
		C256.2,10.4,256.6,10.3,256.9,10.1z"/>
	<path class="st0" d="M267.1,3.4c0.5,0.2,0.9,0.5,1.2,0.9s0.6,0.8,0.7,1.3c0.2,0.5,0.2,1.1,0.2,1.6c0,0.6-0.1,1.1-0.2,1.6
		c-0.2,0.5-0.4,1-0.7,1.3c-0.3,0.4-0.7,0.7-1.2,0.9c-0.5,0.2-1,0.3-1.6,0.3s-1.1-0.1-1.6-0.3c-0.5-0.2-0.9-0.5-1.2-0.9
		c-0.3-0.4-0.6-0.8-0.7-1.3c-0.2-0.5-0.2-1.1-0.2-1.6c0-0.6,0.1-1.1,0.2-1.6c0.2-0.5,0.4-1,0.7-1.3s0.7-0.7,1.2-0.9
		c0.5-0.2,1-0.3,1.6-0.3S266.7,3.2,267.1,3.4z M264.3,4.2c-0.4,0.2-0.6,0.5-0.9,0.8c-0.2,0.3-0.4,0.7-0.5,1.1
		c-0.1,0.4-0.2,0.8-0.2,1.2c0,0.4,0.1,0.8,0.2,1.2c0.1,0.4,0.3,0.8,0.5,1.1c0.2,0.3,0.5,0.6,0.9,0.8c0.4,0.2,0.8,0.3,1.2,0.3
		c0.5,0,0.9-0.1,1.2-0.3s0.6-0.5,0.9-0.8c0.2-0.3,0.4-0.7,0.5-1.1c0.1-0.4,0.2-0.8,0.2-1.2c0-0.4-0.1-0.8-0.2-1.2
		c-0.1-0.4-0.3-0.8-0.5-1.1c-0.2-0.3-0.5-0.6-0.9-0.8s-0.8-0.3-1.2-0.3C265.1,3.9,264.7,4,264.3,4.2z"/>
	<path class="st0" d="M276.3,4.9c-0.1-0.2-0.3-0.4-0.5-0.6s-0.4-0.3-0.7-0.3c-0.2-0.1-0.5-0.1-0.8-0.1c-0.2,0-0.4,0-0.7,0.1
		c-0.2,0-0.4,0.1-0.6,0.2s-0.3,0.3-0.4,0.4c-0.1,0.2-0.2,0.4-0.2,0.7c0,0.2,0.1,0.4,0.2,0.6c0.1,0.2,0.2,0.3,0.4,0.4
		c0.2,0.1,0.3,0.2,0.5,0.3s0.4,0.1,0.5,0.2l1.3,0.3c0.3,0,0.6,0.1,0.8,0.2s0.5,0.3,0.7,0.4c0.2,0.2,0.4,0.4,0.5,0.7
		c0.1,0.3,0.2,0.6,0.2,0.9c0,0.4-0.1,0.8-0.3,1.1c-0.2,0.3-0.4,0.6-0.8,0.7c-0.3,0.2-0.6,0.3-1,0.4s-0.8,0.1-1.1,0.1
		c-0.9,0-1.7-0.2-2.3-0.7c-0.6-0.4-0.9-1.2-1-2.1h1c0,0.7,0.3,1.2,0.7,1.5c0.4,0.3,1,0.5,1.6,0.5c0.2,0,0.5,0,0.7-0.1
		c0.3-0.1,0.5-0.1,0.7-0.3c0.2-0.1,0.4-0.3,0.5-0.5s0.2-0.4,0.2-0.7c0-0.2,0-0.4-0.1-0.6s-0.2-0.3-0.4-0.4c-0.2-0.1-0.4-0.2-0.6-0.3
		s-0.4-0.1-0.6-0.2l-1.3-0.3c-0.3-0.1-0.6-0.2-0.9-0.3c-0.3-0.1-0.5-0.2-0.7-0.4s-0.4-0.4-0.5-0.6s-0.2-0.5-0.2-0.9
		c0-0.4,0.1-0.7,0.3-1c0.2-0.3,0.4-0.5,0.7-0.7c0.3-0.2,0.6-0.3,1-0.4c0.4-0.1,0.7-0.1,1.1-0.1c0.4,0,0.8,0.1,1.1,0.2
		c0.3,0.1,0.7,0.3,0.9,0.5c0.3,0.2,0.5,0.5,0.6,0.8c0.2,0.3,0.2,0.7,0.3,1.1h-1C276.5,5.3,276.4,5.1,276.3,4.9z"/>
	<path class="st0" d="M280.8,1.7c0.3,0.6,0.5,1.1,0.7,1.7c0.2,0.6,0.3,1.2,0.4,1.8c0.1,0.6,0.1,1.3,0.1,1.9c0,1.3-0.2,2.6-0.6,3.8
		c-0.4,1.2-0.9,2.3-1.6,3.4h-0.8c0.7-1.1,1.2-2.3,1.5-3.6c0.3-1.3,0.5-2.6,0.5-4c0-0.6,0-1.1-0.1-1.7c-0.1-0.6-0.2-1.2-0.4-1.7
		c-0.2-0.6-0.4-1.1-0.6-1.7c-0.2-0.5-0.5-1.1-0.8-1.6h0.8C280.3,0.6,280.6,1.1,280.8,1.7z"/>
	<path class="st0" d="M285.3,9.7h1.3v1.6h-1.3V9.7z"/>
</g>
</svg>
