<!-- Generator: Adobe Illustrator 20.1.0, SVG Export Plug-In  -->
<svg version="1.1"
	 xmlns="http://www.w3.org/2000/svg" xmlns:xlink="http://www.w3.org/1999/xlink" xmlns:a="http://ns.adobe.com/AdobeSVGViewerExtensions/3.0/"
	 x="0px" y="0px" width="54.1px" height="9px" viewBox="0 0 54.1 9" style="overflow:scroll;enable-background:new 0 0 54.1 9;"
	 xml:space="preserve">
<style type="text/css">
	.st0{fill:#333333;}
</style>
<defs>
</defs>
<g>
	<path class="st0" d="M3.4,0h2l3.3,8.9h-2L6,6.9H2.7L2,8.9H0L3.4,0z M3.2,5.4h2.3L4.4,2.2h0L3.2,5.4z"/>
	<path class="st0" d="M15.3,8.9h-1.7V8h0c-0.2,0.4-0.5,0.6-0.9,0.8C12.4,9,12,9,11.6,9c-0.5,0-0.9-0.1-1.2-0.2
		c-0.3-0.1-0.5-0.3-0.7-0.5C9.6,8.1,9.4,7.8,9.4,7.5C9.3,7.2,9.3,6.8,9.3,6.4v-4H11v3.6c0,0.5,0.1,0.9,0.3,1.2
		c0.2,0.3,0.5,0.4,0.9,0.4c0.5,0,0.8-0.1,1-0.4c0.2-0.3,0.3-0.8,0.3-1.4V2.4h1.8V8.9z"/>
	<path class="st0" d="M18,6.8c0,0.2,0,0.4,0.1,0.5s0.2,0.2,0.3,0.3c0.1,0.1,0.3,0.2,0.4,0.2c0.2,0,0.3,0.1,0.5,0.1
		c0.1,0,0.3,0,0.4,0c0.1,0,0.3-0.1,0.4-0.1c0.1-0.1,0.2-0.1,0.3-0.2s0.1-0.2,0.1-0.4c0-0.1,0-0.2-0.1-0.3c-0.1-0.1-0.2-0.2-0.4-0.3
		c-0.2-0.1-0.4-0.1-0.6-0.2c-0.2-0.1-0.5-0.1-0.8-0.2C18.3,6,18,5.9,17.8,5.8c-0.2-0.1-0.5-0.2-0.7-0.3c-0.2-0.1-0.3-0.3-0.5-0.5
		c-0.1-0.2-0.2-0.4-0.2-0.7c0-0.4,0.1-0.7,0.2-1c0.2-0.3,0.4-0.5,0.6-0.6c0.3-0.2,0.6-0.3,0.9-0.3c0.3-0.1,0.7-0.1,1-0.1
		c0.3,0,0.7,0,1,0.1s0.6,0.2,0.9,0.3c0.3,0.2,0.5,0.4,0.6,0.6c0.2,0.3,0.3,0.6,0.3,1h-1.7c0-0.3-0.2-0.6-0.4-0.7
		c-0.2-0.1-0.5-0.2-0.8-0.2c-0.1,0-0.2,0-0.3,0c-0.1,0-0.2,0-0.3,0.1c-0.1,0-0.2,0.1-0.2,0.2c-0.1,0.1-0.1,0.2-0.1,0.3
		c0,0.2,0.1,0.3,0.2,0.4c0.1,0.1,0.3,0.2,0.5,0.2c0.2,0.1,0.4,0.1,0.6,0.2C19.8,4.9,20,5,20.2,5c0.3,0.1,0.5,0.1,0.8,0.2
		c0.2,0.1,0.5,0.2,0.7,0.3s0.3,0.3,0.5,0.5c0.1,0.2,0.2,0.5,0.2,0.8c0,0.4-0.1,0.8-0.3,1.1c-0.2,0.3-0.4,0.5-0.7,0.7
		s-0.6,0.3-0.9,0.4C20.1,9,19.7,9,19.4,9c-0.4,0-0.7,0-1.1-0.1c-0.4-0.1-0.7-0.2-1-0.4c-0.3-0.2-0.5-0.4-0.7-0.7
		c-0.2-0.3-0.3-0.6-0.3-1.1H18z"/>
	<path class="st0" d="M24.8,6.1c0,0.6,0.2,1,0.4,1.2c0.3,0.3,0.6,0.4,1.1,0.4c0.4,0,0.7-0.1,0.9-0.3c0.3-0.2,0.4-0.4,0.5-0.6h1.6
		c-0.2,0.8-0.6,1.3-1.1,1.7C27.6,8.9,27,9,26.3,9c-0.5,0-1-0.1-1.4-0.2c-0.4-0.2-0.8-0.4-1-0.7S23.4,7.4,23.2,7
		C23.1,6.6,23,6.2,23,5.7c0-0.5,0.1-0.9,0.2-1.3c0.2-0.4,0.4-0.8,0.7-1.1c0.3-0.3,0.6-0.5,1-0.7c0.4-0.2,0.8-0.3,1.3-0.3
		c0.5,0,1,0.1,1.4,0.3c0.4,0.2,0.7,0.5,1,0.9c0.3,0.4,0.4,0.8,0.6,1.2c0.1,0.5,0.2,0.9,0.1,1.4H24.8z M27.6,5
		c-0.1-0.4-0.2-0.8-0.4-1c-0.2-0.2-0.5-0.3-1-0.3c-0.3,0-0.5,0-0.7,0.1c-0.2,0.1-0.3,0.2-0.4,0.4s-0.2,0.3-0.2,0.4S24.8,4.8,24.8,5
		H27.6z"/>
	<path class="st0" d="M30.4,2.4h1.7v0.9h0C32.4,3,32.7,2.7,33,2.5c0.4-0.2,0.7-0.3,1.1-0.3c0.5,0,0.9,0.1,1.2,0.2
		C35.6,2.6,35.8,2.8,36,3c0.2,0.2,0.3,0.5,0.4,0.8c0.1,0.3,0.1,0.7,0.1,1.1v4h-1.8V5.2c0-0.5-0.1-0.9-0.3-1.2
		c-0.2-0.3-0.5-0.4-0.9-0.4c-0.5,0-0.8,0.1-1,0.4c-0.2,0.3-0.3,0.8-0.3,1.4v3.4h-1.8V2.4z"/>
	<path class="st0" d="M42.2,4.7c-0.1-0.7-0.6-1.1-1.3-1.1c-0.3,0-0.5,0.1-0.7,0.2c-0.2,0.1-0.3,0.3-0.5,0.5S39.5,4.7,39.5,5
		c0,0.2-0.1,0.5-0.1,0.7c0,0.2,0,0.5,0.1,0.7c0,0.2,0.1,0.5,0.2,0.7c0.1,0.2,0.3,0.4,0.5,0.5c0.2,0.1,0.4,0.2,0.7,0.2
		c0.4,0,0.7-0.1,1-0.4s0.4-0.6,0.4-1H44c-0.1,0.9-0.4,1.5-1,2C42.4,8.8,41.7,9,40.9,9c-0.5,0-0.9-0.1-1.3-0.2
		c-0.4-0.2-0.7-0.4-1-0.7s-0.5-0.6-0.7-1c-0.2-0.4-0.2-0.8-0.2-1.3c0-0.5,0.1-1,0.2-1.4c0.1-0.4,0.4-0.8,0.6-1.1
		c0.3-0.3,0.6-0.6,1-0.7c0.4-0.2,0.9-0.3,1.4-0.3c0.4,0,0.7,0,1.1,0.1c0.4,0.1,0.7,0.3,0.9,0.5c0.3,0.2,0.5,0.5,0.7,0.8
		s0.3,0.7,0.3,1.1H42.2z"/>
	<path class="st0" d="M46.8,1.5H45V0h1.8V1.5z M45,2.4h1.8v6.4H45V2.4z"/>
	<path class="st0" d="M48.1,4.4c0-0.4,0.1-0.8,0.3-1s0.4-0.5,0.7-0.7s0.6-0.3,0.9-0.4s0.7-0.1,1.1-0.1c0.3,0,0.7,0,1,0.1
		c0.3,0,0.6,0.1,0.9,0.3s0.5,0.3,0.7,0.6c0.2,0.2,0.3,0.6,0.3,0.9v3.3c0,0.3,0,0.6,0,0.8c0,0.3,0.1,0.5,0.2,0.6h-1.8
		c0-0.1-0.1-0.2-0.1-0.3s0-0.2,0-0.3c-0.3,0.3-0.6,0.5-1,0.6C50.9,9,50.5,9,50.1,9c-0.3,0-0.6,0-0.9-0.1c-0.3-0.1-0.5-0.2-0.7-0.4
		c-0.2-0.2-0.4-0.4-0.5-0.6s-0.2-0.5-0.2-0.9c0-0.4,0.1-0.7,0.2-0.9c0.1-0.2,0.3-0.4,0.5-0.6s0.4-0.2,0.7-0.3
		c0.3-0.1,0.5-0.1,0.8-0.2c0.3,0,0.5-0.1,0.8-0.1C51.1,5,51.3,5,51.5,5c0.2,0,0.3-0.1,0.5-0.2c0.1-0.1,0.2-0.2,0.2-0.4
		c0-0.2,0-0.3-0.1-0.5c-0.1-0.1-0.1-0.2-0.2-0.3c-0.1-0.1-0.2-0.1-0.4-0.1s-0.3,0-0.4,0c-0.3,0-0.6,0.1-0.8,0.2
		c-0.2,0.1-0.3,0.4-0.4,0.7H48.1z M52.2,5.7c-0.1,0.1-0.2,0.1-0.3,0.2S51.6,6,51.5,6c-0.1,0-0.3,0-0.4,0.1c-0.1,0-0.3,0-0.4,0.1
		c-0.1,0-0.3,0.1-0.4,0.1c-0.1,0-0.2,0.1-0.3,0.2s-0.2,0.2-0.2,0.3c-0.1,0.1-0.1,0.2-0.1,0.4c0,0.2,0,0.3,0.1,0.4s0.1,0.2,0.2,0.2
		c0.1,0.1,0.2,0.1,0.3,0.1c0.1,0,0.3,0,0.4,0c0.3,0,0.6-0.1,0.8-0.2c0.2-0.1,0.3-0.3,0.4-0.4c0.1-0.2,0.1-0.3,0.2-0.5
		c0-0.2,0-0.3,0-0.4V5.7z"/>
</g>
</svg>
