<!-- Generator: Adobe Illustrator 20.1.0, SVG Export Plug-In  -->
<svg version="1.1"
	 xmlns="http://www.w3.org/2000/svg" xmlns:xlink="http://www.w3.org/1999/xlink" xmlns:a="http://ns.adobe.com/AdobeSVGViewerExtensions/3.0/"
	 x="0px" y="0px" width="10.1px" height="207.7px" viewBox="0 0 10.1 207.7"
	 style="overflow:scroll;enable-background:new 0 0 10.1 207.7;" xml:space="preserve">
<style type="text/css">
	.st0{fill:#58595B;}
</style>
<defs>
</defs>
<g>
	<g>
		<path class="st0" d="M3.5,200.8c-0.2,0-0.5,0.1-0.7,0.2c-0.2,0.1-0.4,0.3-0.5,0.5c-0.2,0.2-0.3,0.4-0.4,0.6
			c-0.1,0.2-0.1,0.5-0.1,0.7c0,0.5,0.1,0.9,0.3,1.2c0.2,0.3,0.4,0.6,0.7,0.8s0.7,0.4,1.1,0.5c0.4,0.1,0.8,0.1,1.2,0.1
			c0.4,0,0.8,0,1.2-0.1c0.4-0.1,0.7-0.2,1-0.5s0.5-0.5,0.7-0.8s0.3-0.7,0.3-1.2c0-0.6-0.2-1.2-0.6-1.5c-0.4-0.4-0.9-0.6-1.6-0.7v-2
			c0.6,0.1,1.1,0.2,1.6,0.4c0.5,0.2,0.9,0.5,1.2,0.9c0.3,0.4,0.6,0.8,0.8,1.3c0.2,0.5,0.3,1,0.3,1.6c0,0.7-0.1,1.4-0.4,2
			c-0.3,0.6-0.6,1.1-1.1,1.5c-0.4,0.4-1,0.7-1.6,0.9c-0.6,0.2-1.3,0.3-2,0.3c-0.7,0-1.4-0.1-2-0.3c-0.6-0.2-1.2-0.5-1.6-0.9
			c-0.5-0.4-0.8-0.9-1.1-1.5c-0.3-0.6-0.4-1.2-0.4-2c0-0.5,0.1-1,0.2-1.5c0.2-0.5,0.4-0.9,0.7-1.3c0.3-0.4,0.7-0.7,1.1-0.9
			c0.4-0.2,0.9-0.4,1.5-0.5V200.8z"/>
		<path class="st0" d="M5,197.6c-0.4,0-0.8-0.1-1.1-0.3c-0.3-0.2-0.5-0.4-0.7-0.8c-0.2-0.3-0.3-0.6-0.4-1c-0.1-0.4-0.1-0.8-0.1-1.2
			c0-0.4,0-0.7,0.1-1.1c0-0.4,0.1-0.7,0.3-1c0.1-0.3,0.3-0.5,0.6-0.7c0.3-0.2,0.6-0.3,1-0.3h3.6c0.3,0,0.6,0,0.9-0.1
			c0.3,0,0.5-0.1,0.6-0.2v1.9c-0.1,0-0.2,0.1-0.3,0.1c-0.1,0-0.2,0-0.3,0c0.3,0.3,0.5,0.7,0.7,1.1c0.1,0.4,0.2,0.8,0.2,1.3
			c0,0.3,0,0.6-0.1,0.9c-0.1,0.3-0.2,0.5-0.4,0.8c-0.2,0.2-0.4,0.4-0.6,0.5s-0.6,0.2-0.9,0.2c-0.4,0-0.7-0.1-1-0.2s-0.5-0.3-0.6-0.5
			c-0.2-0.2-0.3-0.5-0.3-0.8c-0.1-0.3-0.1-0.6-0.2-0.9c0-0.3-0.1-0.6-0.1-0.8c0-0.3-0.1-0.5-0.1-0.7s-0.1-0.4-0.2-0.5
			c-0.1-0.1-0.3-0.2-0.5-0.2c-0.2,0-0.4,0-0.5,0.1s-0.2,0.2-0.3,0.3S4,193.8,4,193.9c0,0.1,0,0.3,0,0.5c0,0.4,0.1,0.7,0.2,0.9
			c0.2,0.2,0.4,0.3,0.8,0.4V197.6z M6.4,193.1c0.1,0.1,0.1,0.2,0.2,0.3c0,0.1,0.1,0.3,0.1,0.4c0,0.1,0,0.3,0.1,0.4s0,0.3,0.1,0.5
			c0,0.2,0.1,0.3,0.1,0.4c0,0.1,0.1,0.3,0.2,0.4c0.1,0.1,0.2,0.2,0.3,0.3c0.1,0.1,0.3,0.1,0.4,0.1c0.2,0,0.3,0,0.4-0.1
			c0.1-0.1,0.2-0.1,0.3-0.3c0.1-0.1,0.1-0.2,0.1-0.4s0-0.3,0-0.4c0-0.4-0.1-0.7-0.2-0.9c-0.1-0.2-0.3-0.4-0.5-0.5
			c-0.2-0.1-0.4-0.2-0.5-0.2c-0.2,0-0.3,0-0.4,0H6.4z"/>
		<path class="st0" d="M2.9,189.7v-1.8h0.9v0c-0.4-0.3-0.6-0.6-0.8-0.9c-0.2-0.4-0.3-0.8-0.3-1.2c0-0.4,0.1-0.8,0.3-1.2
			c0.2-0.4,0.5-0.6,0.9-0.8c-0.3-0.2-0.6-0.5-0.8-0.8c-0.2-0.4-0.4-0.8-0.4-1.3c0-0.4,0-0.7,0.1-1c0.1-0.3,0.2-0.6,0.4-0.8
			c0.2-0.2,0.5-0.4,0.8-0.5c0.3-0.1,0.7-0.2,1.2-0.2h4.7v1.9H5.9c-0.2,0-0.5,0-0.7,0c-0.2,0-0.4,0.1-0.5,0.1
			c-0.2,0.1-0.3,0.2-0.4,0.4s-0.1,0.4-0.1,0.6c0,0.3,0.1,0.5,0.2,0.7c0.1,0.2,0.2,0.3,0.4,0.4c0.2,0.1,0.4,0.2,0.6,0.2
			c0.2,0,0.4,0,0.6,0h3.9v1.9H5.9c-0.2,0-0.4,0-0.6,0s-0.4,0-0.6,0.1c-0.2,0.1-0.3,0.2-0.4,0.3c-0.1,0.2-0.2,0.4-0.2,0.7
			c0,0.1,0,0.2,0.1,0.4c0,0.1,0.1,0.3,0.2,0.4c0.1,0.1,0.3,0.3,0.5,0.4s0.5,0.1,0.8,0.1h4v1.9H2.9z"/>
		<path class="st0" d="M0.2,177.6v-1.9h3.5v0c-0.4-0.2-0.6-0.5-0.8-0.9s-0.2-0.8-0.2-1.2c0-0.4,0.1-0.7,0.2-1
			c0.1-0.3,0.4-0.6,0.7-0.9c0.3-0.3,0.7-0.5,1.1-0.7c0.5-0.2,1-0.3,1.6-0.3c0.6,0,1.2,0.1,1.6,0.3c0.5,0.2,0.8,0.4,1.1,0.7
			c0.3,0.3,0.5,0.6,0.7,0.9c0.1,0.3,0.2,0.7,0.2,1c0,0.5-0.1,1-0.2,1.4s-0.4,0.7-0.8,0.9v0h0.9v1.8H0.2z M6.4,172.5
			c-0.3,0-0.6,0-0.8,0.1c-0.3,0.1-0.5,0.2-0.7,0.3s-0.4,0.3-0.5,0.5c-0.1,0.2-0.2,0.4-0.2,0.7c0,0.3,0.1,0.5,0.2,0.7
			c0.1,0.2,0.3,0.4,0.5,0.5s0.4,0.2,0.7,0.3c0.3,0.1,0.6,0.1,0.8,0.1c0.3,0,0.6,0,0.8-0.1c0.3-0.1,0.5-0.2,0.7-0.3s0.4-0.3,0.5-0.5
			s0.2-0.4,0.2-0.7c0-0.3-0.1-0.5-0.2-0.7s-0.3-0.4-0.5-0.5s-0.4-0.2-0.7-0.3C6.9,172.5,6.7,172.5,6.4,172.5z"/>
		<path class="st0" d="M1.8,167.4v1.9H0.2v-1.9H1.8z M2.9,169.3v-1.9h7v1.9H2.9z"/>
		<path class="st0" d="M6.4,166.1c-0.6,0-1.1-0.1-1.5-0.3c-0.5-0.2-0.8-0.4-1.2-0.7c-0.3-0.3-0.6-0.7-0.7-1.1
			c-0.2-0.4-0.3-0.9-0.3-1.5s0.1-1,0.3-1.5c0.2-0.4,0.4-0.8,0.7-1.1c0.3-0.3,0.7-0.6,1.2-0.7s1-0.3,1.5-0.3s1.1,0.1,1.5,0.3
			c0.4,0.2,0.8,0.4,1.2,0.7c0.3,0.3,0.6,0.7,0.7,1.1c0.2,0.4,0.3,0.9,0.3,1.5s-0.1,1-0.3,1.5c-0.2,0.4-0.4,0.8-0.7,1.1
			c-0.3,0.3-0.7,0.6-1.2,0.7C7.4,166,6.9,166.1,6.4,166.1z M6.4,164.2c0.3,0,0.5,0,0.8-0.1c0.3-0.1,0.5-0.1,0.7-0.3
			c0.2-0.1,0.4-0.3,0.5-0.5c0.1-0.2,0.2-0.5,0.2-0.8s-0.1-0.6-0.2-0.8c-0.1-0.2-0.3-0.4-0.5-0.5c-0.2-0.1-0.4-0.2-0.7-0.3
			c-0.3-0.1-0.5-0.1-0.8-0.1s-0.6,0-0.8,0.1c-0.3,0.1-0.5,0.1-0.7,0.3c-0.2,0.1-0.4,0.3-0.5,0.5c-0.1,0.2-0.2,0.5-0.2,0.8
			s0.1,0.6,0.2,0.8c0.1,0.2,0.3,0.4,0.5,0.5c0.2,0.1,0.4,0.2,0.7,0.3C5.8,164.1,6.1,164.2,6.4,164.2z"/>
		<path class="st0" d="M6.8,152.3c0.6,0,1.1-0.2,1.3-0.5s0.4-0.7,0.4-1.2c0-0.4-0.1-0.7-0.3-1s-0.4-0.4-0.6-0.5v-1.7
			c0.8,0.3,1.4,0.7,1.8,1.2c0.4,0.6,0.6,1.2,0.6,2c0,0.5-0.1,1-0.3,1.5c-0.2,0.4-0.4,0.8-0.8,1.1c-0.3,0.3-0.7,0.5-1.2,0.7
			s-0.9,0.2-1.5,0.2c-0.5,0-1-0.1-1.5-0.3c-0.4-0.2-0.8-0.4-1.2-0.7s-0.6-0.7-0.8-1.1c-0.2-0.4-0.3-0.9-0.3-1.4
			c0-0.6,0.1-1.1,0.3-1.5s0.5-0.8,0.9-1.1c0.4-0.3,0.8-0.5,1.3-0.6c0.5-0.1,1-0.2,1.5-0.1V152.3z M5.6,149.2
			c-0.5,0.1-0.9,0.2-1.1,0.5c-0.3,0.2-0.4,0.6-0.4,1c0,0.3,0.1,0.6,0.2,0.8c0.1,0.2,0.2,0.4,0.4,0.5c0.2,0.1,0.3,0.2,0.5,0.3
			c0.2,0,0.3,0.1,0.5,0.1V149.2z"/>
		<path class="st0" d="M2.9,146.2v-1.8h1v0c-0.4-0.2-0.7-0.6-0.9-0.9s-0.3-0.8-0.3-1.2c0-0.5,0.1-0.9,0.2-1.3
			c0.1-0.3,0.3-0.6,0.6-0.8c0.2-0.2,0.5-0.3,0.9-0.4s0.7-0.1,1.2-0.1h4.3v1.9H5.9c-0.6,0-1,0.1-1.3,0.3c-0.3,0.2-0.4,0.5-0.4,0.9
			c0,0.5,0.2,0.9,0.5,1.1c0.3,0.2,0.8,0.4,1.5,0.4h3.6v1.9H2.9z"/>
		<path class="st0" d="M0.2,134.4v-1.9h9.6v1.9H0.2z"/>
		<path class="st0" d="M5,131c-0.4,0-0.8-0.1-1.1-0.3c-0.3-0.2-0.5-0.4-0.7-0.8c-0.2-0.3-0.3-0.6-0.4-1c-0.1-0.4-0.1-0.8-0.1-1.2
			c0-0.4,0-0.7,0.1-1.1c0-0.4,0.1-0.7,0.3-1c0.1-0.3,0.3-0.5,0.6-0.7c0.3-0.2,0.6-0.3,1-0.3h3.6c0.3,0,0.6,0,0.9-0.1
			c0.3,0,0.5-0.1,0.6-0.2v1.9c-0.1,0-0.2,0.1-0.3,0.1c-0.1,0-0.2,0-0.3,0c0.3,0.3,0.5,0.7,0.7,1.1c0.1,0.4,0.2,0.8,0.2,1.3
			c0,0.3,0,0.6-0.1,0.9c-0.1,0.3-0.2,0.5-0.4,0.8c-0.2,0.2-0.4,0.4-0.6,0.5s-0.6,0.2-0.9,0.2c-0.4,0-0.7-0.1-1-0.2s-0.5-0.3-0.6-0.5
			c-0.2-0.2-0.3-0.5-0.3-0.8c-0.1-0.3-0.1-0.6-0.2-0.9c0-0.3-0.1-0.6-0.1-0.8c0-0.3-0.1-0.5-0.1-0.7s-0.1-0.4-0.2-0.5
			c-0.1-0.1-0.3-0.2-0.5-0.2c-0.2,0-0.4,0-0.5,0.1s-0.2,0.2-0.3,0.3S4,127.2,4,127.4c0,0.1,0,0.3,0,0.5c0,0.4,0.1,0.7,0.2,0.9
			c0.2,0.2,0.4,0.3,0.8,0.4V131z M6.4,126.6c0.1,0.1,0.1,0.2,0.2,0.3c0,0.1,0.1,0.3,0.1,0.4c0,0.1,0,0.3,0.1,0.4s0,0.3,0.1,0.5
			c0,0.2,0.1,0.3,0.1,0.4c0,0.1,0.1,0.3,0.2,0.4c0.1,0.1,0.2,0.2,0.3,0.3c0.1,0.1,0.3,0.1,0.4,0.1c0.2,0,0.3,0,0.4-0.1
			c0.1-0.1,0.2-0.1,0.3-0.3c0.1-0.1,0.1-0.2,0.1-0.4s0-0.3,0-0.4c0-0.4-0.1-0.7-0.2-0.9c-0.1-0.2-0.3-0.4-0.5-0.5
			c-0.2-0.1-0.4-0.2-0.5-0.2c-0.2,0-0.3,0-0.4,0H6.4z"/>
		<path class="st0" d="M6.8,117.9c0.6,0,1.1-0.2,1.3-0.5s0.4-0.7,0.4-1.2c0-0.4-0.1-0.7-0.3-1s-0.4-0.4-0.6-0.5V113
			c0.8,0.3,1.4,0.7,1.8,1.2c0.4,0.6,0.6,1.2,0.6,2c0,0.5-0.1,1-0.3,1.5c-0.2,0.4-0.4,0.8-0.8,1.1c-0.3,0.3-0.7,0.5-1.2,0.7
			s-0.9,0.2-1.5,0.2c-0.5,0-1-0.1-1.5-0.3c-0.4-0.2-0.8-0.4-1.2-0.7s-0.6-0.7-0.8-1.1c-0.2-0.4-0.3-0.9-0.3-1.4
			c0-0.6,0.1-1.1,0.3-1.5s0.5-0.8,0.9-1.1c0.4-0.3,0.8-0.5,1.3-0.6c0.5-0.1,1-0.2,1.5-0.1V117.9z M5.6,114.8
			c-0.5,0.1-0.9,0.2-1.1,0.5c-0.3,0.2-0.4,0.6-0.4,1c0,0.3,0.1,0.6,0.2,0.8c0.1,0.2,0.2,0.4,0.4,0.5c0.2,0.1,0.3,0.2,0.5,0.3
			c0.2,0,0.3,0.1,0.5,0.1V114.8z"/>
		<path class="st0" d="M7.6,110.3c0.2,0,0.4,0,0.5-0.1c0.1-0.1,0.3-0.2,0.4-0.3s0.2-0.3,0.2-0.5c0-0.2,0.1-0.4,0.1-0.5
			c0-0.1,0-0.3,0-0.4c0-0.1-0.1-0.3-0.1-0.4s-0.2-0.2-0.3-0.3s-0.3-0.1-0.4-0.1c-0.1,0-0.3,0-0.4,0.1c-0.1,0.1-0.2,0.2-0.3,0.4
			s-0.2,0.4-0.2,0.7s-0.1,0.6-0.2,0.9c-0.1,0.3-0.1,0.5-0.2,0.8s-0.2,0.5-0.3,0.7c-0.1,0.2-0.3,0.4-0.5,0.5s-0.5,0.2-0.8,0.2
			c-0.4,0-0.8-0.1-1.1-0.3c-0.3-0.2-0.5-0.4-0.7-0.7s-0.3-0.6-0.4-1c-0.1-0.4-0.1-0.7-0.1-1.1s0-0.7,0.1-1.1s0.2-0.7,0.4-0.9
			s0.4-0.5,0.7-0.7c0.3-0.2,0.6-0.3,1.1-0.3v1.8c-0.4,0-0.6,0.2-0.7,0.4C4,108.3,4,108.6,4,109c0,0.1,0,0.2,0,0.3
			c0,0.1,0,0.2,0.1,0.3s0.1,0.2,0.2,0.3c0.1,0.1,0.2,0.1,0.3,0.1c0.2,0,0.3-0.1,0.4-0.2c0.1-0.1,0.2-0.3,0.3-0.5
			c0.1-0.2,0.1-0.4,0.2-0.7c0.1-0.3,0.1-0.5,0.2-0.8c0.1-0.3,0.1-0.5,0.2-0.8c0.1-0.3,0.2-0.5,0.4-0.7c0.1-0.2,0.3-0.4,0.6-0.5
			c0.2-0.1,0.5-0.2,0.8-0.2c0.5,0,0.8,0.1,1.2,0.3c0.3,0.2,0.6,0.4,0.7,0.7c0.2,0.3,0.3,0.6,0.4,1c0.1,0.4,0.1,0.8,0.1,1.2
			c0,0.4,0,0.8-0.1,1.2c-0.1,0.4-0.2,0.7-0.4,1s-0.4,0.5-0.8,0.7c-0.3,0.2-0.7,0.3-1.2,0.3V110.3z"/>
		<path class="st0" d="M5.3,99.8c-0.8,0.1-1.2,0.6-1.2,1.4c0,0.3,0.1,0.6,0.2,0.8s0.3,0.4,0.5,0.5s0.5,0.2,0.7,0.3
			c0.3,0.1,0.5,0.1,0.8,0.1s0.5,0,0.8-0.1c0.3-0.1,0.5-0.1,0.7-0.3c0.2-0.1,0.4-0.3,0.5-0.5c0.1-0.2,0.2-0.5,0.2-0.8
			c0-0.4-0.1-0.8-0.4-1s-0.6-0.4-1-0.5v-1.8c0.9,0.1,1.6,0.5,2.1,1.1c0.5,0.6,0.7,1.4,0.7,2.3c0,0.5-0.1,1-0.3,1.4
			c-0.2,0.4-0.4,0.8-0.7,1.1c-0.3,0.3-0.7,0.5-1.1,0.7c-0.4,0.2-0.9,0.3-1.4,0.3c-0.5,0-1-0.1-1.5-0.2c-0.5-0.2-0.9-0.4-1.2-0.7
			c-0.3-0.3-0.6-0.7-0.8-1.1c-0.2-0.4-0.3-0.9-0.3-1.5c0-0.4,0.1-0.8,0.2-1.2c0.1-0.4,0.3-0.7,0.5-1c0.2-0.3,0.5-0.5,0.8-0.7
			c0.3-0.2,0.7-0.3,1.2-0.3V99.8z"/>
		<path class="st0" d="M5,96.9c-0.4,0-0.8-0.1-1.1-0.3c-0.3-0.2-0.5-0.4-0.7-0.8c-0.2-0.3-0.3-0.6-0.4-1c-0.1-0.4-0.1-0.8-0.1-1.2
			c0-0.4,0-0.7,0.1-1.1c0-0.4,0.1-0.7,0.3-1c0.1-0.3,0.3-0.5,0.6-0.7c0.3-0.2,0.6-0.3,1-0.3h3.6c0.3,0,0.6,0,0.9-0.1
			c0.3,0,0.5-0.1,0.6-0.2v1.9c-0.1,0-0.2,0.1-0.3,0.1c-0.1,0-0.2,0-0.3,0c0.3,0.3,0.5,0.7,0.7,1.1c0.1,0.4,0.2,0.8,0.2,1.3
			c0,0.3,0,0.6-0.1,0.9c-0.1,0.3-0.2,0.5-0.4,0.8c-0.2,0.2-0.4,0.4-0.6,0.5s-0.6,0.2-0.9,0.2c-0.4,0-0.7-0.1-1-0.2s-0.5-0.3-0.6-0.5
			c-0.2-0.2-0.3-0.5-0.3-0.8c-0.1-0.3-0.1-0.6-0.2-0.9c0-0.3-0.1-0.6-0.1-0.8c0-0.3-0.1-0.5-0.1-0.7s-0.1-0.4-0.2-0.5
			c-0.1-0.1-0.3-0.2-0.5-0.2c-0.2,0-0.4,0-0.5,0.1s-0.2,0.2-0.3,0.3S4,93.1,4,93.2c0,0.1,0,0.3,0,0.5c0,0.4,0.1,0.7,0.2,0.9
			C4.4,94.8,4.6,94.9,5,95V96.9z M6.4,92.5c0.1,0.1,0.1,0.2,0.2,0.3c0,0.1,0.1,0.3,0.1,0.4c0,0.1,0,0.3,0.1,0.4s0,0.3,0.1,0.5
			c0,0.2,0.1,0.3,0.1,0.4c0,0.1,0.1,0.3,0.2,0.4c0.1,0.1,0.2,0.2,0.3,0.3c0.1,0.1,0.3,0.1,0.4,0.1c0.2,0,0.3,0,0.4-0.1
			c0.1-0.1,0.2-0.1,0.3-0.3c0.1-0.1,0.1-0.2,0.1-0.4s0-0.3,0-0.4c0-0.4-0.1-0.7-0.2-0.9c-0.1-0.2-0.3-0.4-0.5-0.5
			c-0.2-0.1-0.4-0.2-0.5-0.2c-0.2,0-0.3,0-0.4,0H6.4z"/>
		<path class="st0" d="M0.2,89v-1.9h9.6V89H0.2z"/>
		<path class="st0" d="M5,85.7c-0.4,0-0.8-0.1-1.1-0.3c-0.3-0.2-0.5-0.4-0.7-0.8c-0.2-0.3-0.3-0.6-0.4-1c-0.1-0.4-0.1-0.8-0.1-1.2
			c0-0.4,0-0.7,0.1-1.1c0-0.4,0.1-0.7,0.3-1c0.1-0.3,0.3-0.5,0.6-0.7c0.3-0.2,0.6-0.3,1-0.3h3.6c0.3,0,0.6,0,0.9-0.1
			c0.3,0,0.5-0.1,0.6-0.2V81c-0.1,0-0.2,0.1-0.3,0.1c-0.1,0-0.2,0-0.3,0c0.3,0.3,0.5,0.7,0.7,1.1c0.1,0.4,0.2,0.8,0.2,1.3
			c0,0.3,0,0.6-0.1,0.9c-0.1,0.3-0.2,0.5-0.4,0.8c-0.2,0.2-0.4,0.4-0.6,0.5s-0.6,0.2-0.9,0.2c-0.4,0-0.7-0.1-1-0.2s-0.5-0.3-0.6-0.5
			c-0.2-0.2-0.3-0.5-0.3-0.8c-0.1-0.3-0.1-0.6-0.2-0.9c0-0.3-0.1-0.6-0.1-0.8c0-0.3-0.1-0.5-0.1-0.7s-0.1-0.4-0.2-0.5
			c-0.1-0.1-0.3-0.2-0.5-0.2c-0.2,0-0.4,0-0.5,0.1s-0.2,0.2-0.3,0.3S4,81.9,4,82c0,0.1,0,0.3,0,0.5c0,0.4,0.1,0.7,0.2,0.9
			c0.2,0.2,0.4,0.3,0.8,0.4V85.7z M6.4,81.3c0.1,0.1,0.1,0.2,0.2,0.3c0,0.1,0.1,0.3,0.1,0.4c0,0.1,0,0.3,0.1,0.4s0,0.3,0.1,0.5
			c0,0.2,0.1,0.3,0.1,0.4c0,0.1,0.1,0.3,0.2,0.4c0.1,0.1,0.2,0.2,0.3,0.3C7.5,83.9,7.7,84,7.9,84c0.2,0,0.3,0,0.4-0.1
			c0.1-0.1,0.2-0.1,0.3-0.3c0.1-0.1,0.1-0.2,0.1-0.4s0-0.3,0-0.4c0-0.4-0.1-0.7-0.2-0.9c-0.1-0.2-0.3-0.4-0.5-0.5
			c-0.2-0.1-0.4-0.2-0.5-0.2c-0.2,0-0.3,0-0.4,0H6.4z"/>
		<path class="st0" d="M9,69.2L9,69.2c0.4,0.3,0.7,0.5,0.8,0.9s0.3,0.8,0.3,1.2c0,0.5-0.1,1-0.3,1.4c-0.2,0.4-0.5,0.7-0.8,1
			c-0.3,0.3-0.7,0.4-1.2,0.6s-0.9,0.2-1.4,0.2c-0.5,0-0.9-0.1-1.4-0.2s-0.8-0.3-1.2-0.6s-0.6-0.6-0.8-1c-0.2-0.4-0.3-0.8-0.3-1.3
			c0-0.4,0.1-0.8,0.3-1.2c0.2-0.4,0.4-0.7,0.8-0.9v0H0.2v-1.9h9.6v1.8H9z M6.3,69.2c-0.3,0-0.6,0-0.8,0.1c-0.3,0.1-0.5,0.1-0.7,0.3
			S4.4,69.8,4.3,70c-0.1,0.2-0.2,0.5-0.2,0.8c0,0.3,0.1,0.6,0.2,0.8c0.1,0.2,0.3,0.4,0.5,0.5s0.4,0.2,0.7,0.3
			c0.3,0.1,0.5,0.1,0.8,0.1c0.3,0,0.5,0,0.8-0.1c0.3-0.1,0.5-0.2,0.7-0.3c0.2-0.1,0.4-0.3,0.5-0.5c0.1-0.2,0.2-0.5,0.2-0.8
			c0-0.3-0.1-0.6-0.2-0.8c-0.1-0.2-0.3-0.4-0.5-0.5c-0.2-0.1-0.5-0.2-0.7-0.3C6.9,69.2,6.6,69.2,6.3,69.2z"/>
		<path class="st0" d="M6.8,64.3c0.6,0,1.1-0.2,1.3-0.5s0.4-0.7,0.4-1.2c0-0.4-0.1-0.7-0.3-1s-0.4-0.4-0.6-0.5v-1.7
			c0.8,0.3,1.4,0.7,1.8,1.2c0.4,0.6,0.6,1.2,0.6,2c0,0.5-0.1,1-0.3,1.5C9.6,64.6,9.3,65,9,65.3c-0.3,0.3-0.7,0.5-1.2,0.7
			s-0.9,0.2-1.5,0.2c-0.5,0-1-0.1-1.5-0.3c-0.4-0.2-0.8-0.4-1.2-0.7S3.2,64.6,3,64.1c-0.2-0.4-0.3-0.9-0.3-1.4
			c0-0.6,0.1-1.1,0.3-1.5S3.6,60.3,4,60c0.4-0.3,0.8-0.5,1.3-0.6c0.5-0.1,1-0.2,1.5-0.1V64.3z M5.6,61.2c-0.5,0.1-0.9,0.2-1.1,0.5
			c-0.3,0.2-0.4,0.6-0.4,1c0,0.3,0.1,0.6,0.2,0.8c0.1,0.2,0.2,0.4,0.4,0.5c0.2,0.1,0.3,0.2,0.5,0.3c0.2,0,0.3,0.1,0.5,0.1V61.2z"/>
		<path class="st0" d="M6.7,52.8c0.3,0,0.6-0.1,0.8-0.2c0.2-0.1,0.4-0.3,0.5-0.5c0.1-0.2,0.2-0.4,0.3-0.7s0.1-0.5,0.1-0.8
			c0-0.2,0-0.4,0-0.6c0-0.2-0.1-0.4-0.2-0.6S8,49.1,7.8,49c-0.2-0.1-0.4-0.2-0.6-0.2c-0.3,0-0.5,0.1-0.6,0.2
			c-0.2,0.2-0.3,0.4-0.4,0.7C6.1,50,6,50.3,5.9,50.6c-0.1,0.3-0.2,0.7-0.3,1c-0.1,0.4-0.2,0.7-0.3,1C5.2,53,5,53.3,4.8,53.6
			c-0.2,0.3-0.5,0.5-0.8,0.7c-0.3,0.2-0.7,0.2-1.1,0.2c-0.5,0-0.9-0.1-1.3-0.3C1.3,54,1,53.7,0.7,53.4c-0.2-0.3-0.4-0.7-0.5-1.2
			C0.1,51.8,0,51.3,0,50.9c0-0.5,0.1-1,0.2-1.4s0.3-0.9,0.5-1.2c0.3-0.4,0.6-0.6,1-0.9s0.9-0.3,1.4-0.3v2c-0.3,0-0.5,0.1-0.7,0.2
			c-0.2,0.1-0.3,0.2-0.4,0.4c-0.1,0.2-0.2,0.4-0.2,0.6S1.6,50.8,1.6,51c0,0.2,0,0.3,0.1,0.5c0,0.2,0.1,0.3,0.2,0.5
			c0.1,0.1,0.2,0.3,0.3,0.3s0.3,0.1,0.5,0.1c0.2,0,0.3,0,0.5-0.1c0.1-0.1,0.2-0.2,0.3-0.4s0.2-0.5,0.3-0.9c0.1-0.4,0.2-0.9,0.4-1.5
			c0-0.1,0.1-0.3,0.1-0.5s0.1-0.4,0.2-0.6s0.2-0.4,0.3-0.6c0.1-0.2,0.3-0.4,0.5-0.6C5.5,47.1,5.8,47,6,46.9c0.3-0.1,0.6-0.2,0.9-0.2
			c0.4,0,0.8,0.1,1.2,0.3c0.4,0.2,0.7,0.4,1,0.8s0.5,0.8,0.6,1.3c0.2,0.5,0.2,1.1,0.2,1.7c0,0.5-0.1,1-0.2,1.5
			c-0.1,0.5-0.3,0.9-0.6,1.3s-0.6,0.7-1.1,0.9c-0.4,0.2-0.9,0.3-1.5,0.3V52.8z"/>
		<path class="st0" d="M0.2,45.7v-1.9h3.6v0c-0.4-0.2-0.7-0.6-0.9-0.9s-0.3-0.7-0.3-1.1c0-0.5,0.1-0.9,0.2-1.3
			c0.1-0.3,0.3-0.6,0.6-0.8c0.2-0.2,0.5-0.3,0.9-0.4s0.7-0.1,1.2-0.1h4.3v1.9H5.9c-0.6,0-1,0.1-1.3,0.3c-0.3,0.2-0.4,0.5-0.4,0.9
			c0,0.5,0.2,0.9,0.5,1.1c0.3,0.2,0.8,0.4,1.5,0.4h3.6v1.9H0.2z"/>
		<path class="st0" d="M6.8,36.1c0.6,0,1.1-0.2,1.3-0.5s0.4-0.7,0.4-1.2c0-0.4-0.1-0.7-0.3-1S7.9,33,7.7,32.9v-1.7
			c0.8,0.3,1.4,0.7,1.8,1.2c0.4,0.6,0.6,1.2,0.6,2c0,0.5-0.1,1-0.3,1.5c-0.2,0.4-0.4,0.8-0.8,1.1c-0.3,0.3-0.7,0.5-1.2,0.7
			S6.9,38,6.4,38c-0.5,0-1-0.1-1.5-0.3c-0.4-0.2-0.8-0.4-1.2-0.7S3.2,36.4,3,35.9c-0.2-0.4-0.3-0.9-0.3-1.4c0-0.6,0.1-1.1,0.3-1.5
			s0.5-0.8,0.9-1.1c0.4-0.3,0.8-0.5,1.3-0.6c0.5-0.1,1-0.2,1.5-0.1V36.1z M5.6,33c-0.5,0.1-0.9,0.2-1.1,0.5c-0.3,0.2-0.4,0.6-0.4,1
			c0,0.3,0.1,0.6,0.2,0.8c0.1,0.2,0.2,0.4,0.4,0.5C4.8,35.9,5,36,5.2,36c0.2,0,0.3,0.1,0.5,0.1V33z"/>
		<path class="st0" d="M6.8,28.4c0.6,0,1.1-0.2,1.3-0.5s0.4-0.7,0.4-1.2c0-0.4-0.1-0.7-0.3-1s-0.4-0.4-0.6-0.5v-1.7
			c0.8,0.3,1.4,0.7,1.8,1.2c0.4,0.6,0.6,1.2,0.6,2c0,0.5-0.1,1-0.3,1.5C9.6,28.7,9.3,29,9,29.4c-0.3,0.3-0.7,0.5-1.2,0.7
			s-0.9,0.2-1.5,0.2c-0.5,0-1-0.1-1.5-0.3c-0.4-0.2-0.8-0.4-1.2-0.7S3.2,28.6,3,28.2c-0.2-0.4-0.3-0.9-0.3-1.4
			c0-0.6,0.1-1.1,0.3-1.5s0.5-0.8,0.9-1.1c0.4-0.3,0.8-0.5,1.3-0.6c0.5-0.1,1-0.2,1.5-0.1V28.4z M5.6,25.3c-0.5,0.1-0.9,0.2-1.1,0.5
			c-0.3,0.2-0.4,0.6-0.4,1c0,0.3,0.1,0.6,0.2,0.8c0.1,0.2,0.2,0.4,0.4,0.5c0.2,0.1,0.3,0.2,0.5,0.3c0.2,0,0.3,0.1,0.5,0.1V25.3z"/>
		<path class="st0" d="M0.2,22.2v-1.9h3.6v0C3.5,20,3.2,19.7,3,19.4s-0.3-0.7-0.3-1.1c0-0.5,0.1-0.9,0.2-1.3
			c0.1-0.3,0.3-0.6,0.6-0.8C3.7,16,4,15.9,4.4,15.8s0.7-0.1,1.2-0.1h4.3v1.9H5.9c-0.6,0-1,0.1-1.3,0.3c-0.3,0.2-0.4,0.5-0.4,0.9
			c0,0.5,0.2,0.9,0.5,1.1c0.3,0.2,0.8,0.4,1.5,0.4h3.6v1.9H0.2z"/>
		<path class="st0" d="M5,14.3c-0.4,0-0.8-0.1-1.1-0.3c-0.3-0.2-0.5-0.4-0.7-0.8c-0.2-0.3-0.3-0.6-0.4-1c-0.1-0.4-0.1-0.8-0.1-1.2
			c0-0.4,0-0.7,0.1-1.1c0-0.4,0.1-0.7,0.3-1c0.1-0.3,0.3-0.5,0.6-0.7C3.9,8.1,4.3,8,4.7,8h3.6C8.6,8,8.9,8,9.2,8
			c0.3,0,0.5-0.1,0.6-0.2v1.9c-0.1,0-0.2,0.1-0.3,0.1c-0.1,0-0.2,0-0.3,0c0.3,0.3,0.5,0.7,0.7,1.1c0.1,0.4,0.2,0.8,0.2,1.3
			c0,0.3,0,0.6-0.1,0.9c-0.1,0.3-0.2,0.5-0.4,0.8c-0.2,0.2-0.4,0.4-0.6,0.5s-0.6,0.2-0.9,0.2c-0.4,0-0.7-0.1-1-0.2S6.5,14,6.4,13.8
			c-0.2-0.2-0.3-0.5-0.3-0.8c-0.1-0.3-0.1-0.6-0.2-0.9c0-0.3-0.1-0.6-0.1-0.8c0-0.3-0.1-0.5-0.1-0.7s-0.1-0.4-0.2-0.5
			C5.3,10,5.1,9.9,4.9,9.9c-0.2,0-0.4,0-0.5,0.1s-0.2,0.2-0.3,0.3S4,10.5,4,10.7c0,0.1,0,0.3,0,0.5c0,0.4,0.1,0.7,0.2,0.9
			c0.2,0.2,0.4,0.3,0.8,0.4V14.3z M6.4,9.9c0.1,0.1,0.1,0.2,0.2,0.3c0,0.1,0.1,0.3,0.1,0.4c0,0.1,0,0.3,0.1,0.4s0,0.3,0.1,0.5
			c0,0.2,0.1,0.3,0.1,0.4c0,0.1,0.1,0.3,0.2,0.4c0.1,0.1,0.2,0.2,0.3,0.3c0.1,0.1,0.3,0.1,0.4,0.1c0.2,0,0.3,0,0.4-0.1
			c0.1-0.1,0.2-0.1,0.3-0.3c0.1-0.1,0.1-0.2,0.1-0.4s0-0.3,0-0.4c0-0.4-0.1-0.7-0.2-0.9c-0.1-0.2-0.3-0.4-0.5-0.5
			C7.9,10,7.8,10,7.6,10c-0.2,0-0.3,0-0.4,0H6.4z"/>
		<path class="st0" d="M2.9,6.5V4.7h1v0C3.5,4.4,3.2,4.1,3,3.7S2.7,2.9,2.7,2.5c0-0.5,0.1-0.9,0.2-1.3C3,1,3.2,0.7,3.5,0.5
			C3.7,0.3,4,0.2,4.4,0.1S5.1,0,5.6,0h4.3v1.9H5.9c-0.6,0-1,0.1-1.3,0.3C4.3,2.4,4.2,2.7,4.2,3.1c0,0.5,0.2,0.9,0.5,1.1
			C5,4.5,5.5,4.6,6.2,4.6h3.6v1.9H2.9z"/>
	</g>
</g>
</svg>
