<!-- Generator: Adobe Illustrator 20.1.0, SVG Export Plug-In  -->
<svg version="1.1"
	 xmlns="http://www.w3.org/2000/svg" xmlns:xlink="http://www.w3.org/1999/xlink" xmlns:a="http://ns.adobe.com/AdobeSVGViewerExtensions/3.0/"
	 x="0px" y="0px" width="15.2px" height="285.3px" viewBox="0 0 15.2 285.3"
	 style="overflow:scroll;enable-background:new 0 0 15.2 285.3;" xml:space="preserve">
<style type="text/css">
	.st0{fill:#58595B;}
</style>
<defs>
</defs>
<g>
	<g>
		<path class="st0" d="M2.8,10.9V3.1H0v-1c0.4,0,0.7,0,1.1-0.1C1.4,1.9,1.7,1.8,2,1.6S2.5,1.3,2.7,1s0.3-0.6,0.4-1h1v10.9H2.8z"/>
		<path class="st0" d="M7.9,4.3c0-0.4,0.1-0.9,0.2-1.3c0.1-0.4,0.2-0.8,0.4-1.2s0.4-0.7,0.6-1c0.3-0.3,0.6-0.5,1-0.7
			C10.5,0.1,11,0,11.5,0c0.6,0,1.1,0.1,1.5,0.2c0.4,0.2,0.7,0.4,1,0.7c0.3,0.3,0.5,0.6,0.6,1s0.3,0.8,0.4,1.2
			c0.1,0.4,0.1,0.8,0.2,1.3c0,0.4,0,0.8,0,1.2c0,0.4,0,0.8,0,1.2c0,0.4-0.1,0.9-0.2,1.3c-0.1,0.4-0.2,0.8-0.4,1.2
			c-0.2,0.4-0.4,0.7-0.6,1c-0.3,0.3-0.6,0.5-1,0.7s-0.9,0.2-1.5,0.2c-0.6,0-1.1-0.1-1.5-0.2c-0.4-0.2-0.7-0.4-1-0.7
			c-0.3-0.3-0.5-0.6-0.6-1C8.3,8.9,8.1,8.5,8.1,8.1C8,7.7,7.9,7.2,7.9,6.8s0-0.8,0-1.2C7.9,5.2,7.9,4.7,7.9,4.3z M9.3,6.9
			c0,0.5,0.1,1,0.2,1.4c0.1,0.4,0.4,0.8,0.7,1.1C10.5,9.8,11,10,11.5,10c0.6,0,1-0.2,1.3-0.5c0.3-0.3,0.5-0.7,0.7-1.1
			c0.1-0.4,0.2-0.9,0.2-1.4c0-0.5,0-1,0-1.4c0-0.3,0-0.6,0-0.9c0-0.3,0-0.6-0.1-1c0-0.3-0.1-0.6-0.2-0.9s-0.2-0.6-0.4-0.8
			s-0.4-0.4-0.6-0.6c-0.3-0.1-0.6-0.2-0.9-0.2c-0.4,0-0.7,0.1-0.9,0.2c-0.3,0.1-0.5,0.3-0.6,0.6C9.8,2.2,9.6,2.4,9.6,2.7
			C9.5,3.1,9.4,3.4,9.4,3.7c0,0.3-0.1,0.6-0.1,1c0,0.3,0,0.6,0,0.9C9.3,6,9.3,6.4,9.3,6.9z"/>
	</g>
</g>
<g>
	<g>
		<path class="st0" d="M11.5,42.4c-0.5,0.8-0.9,1.6-1.3,2.4c-0.4,0.9-0.7,1.7-0.9,2.6c-0.2,0.9-0.4,1.8-0.4,2.6H7.4
			c0.1-0.9,0.2-1.8,0.5-2.7c0.2-0.9,0.6-1.7,0.9-2.5c0.4-0.8,0.8-1.6,1.3-2.3c0.5-0.7,1-1.4,1.6-2H6v-1.2h7.1v1.1
			C12.5,41,12,41.7,11.5,42.4z"/>
	</g>
</g>
<g>
	<g>
		<path class="st0" d="M11.1,79.9c-0.3-0.3-0.7-0.4-1.3-0.4c-0.6,0-1,0.1-1.3,0.4c-0.3,0.3-0.6,0.6-0.8,1c-0.2,0.4-0.3,0.9-0.4,1.3
			c-0.1,0.5-0.1,0.9-0.1,1.4l0,0c0.3-0.5,0.7-0.9,1.1-1.1c0.5-0.2,1-0.3,1.6-0.3c0.5,0,1,0.1,1.4,0.3c0.4,0.2,0.8,0.4,1,0.7
			s0.5,0.7,0.7,1.1c0.2,0.4,0.2,0.9,0.2,1.4c0,0.4-0.1,0.8-0.2,1.2s-0.3,0.8-0.6,1.2c-0.3,0.4-0.7,0.6-1.1,0.9
			c-0.5,0.2-1,0.3-1.7,0.3c-0.8,0-1.5-0.2-2-0.5c-0.5-0.3-0.9-0.8-1.1-1.3C6.2,87.2,6.1,86.6,6,86c-0.1-0.6-0.1-1.2-0.1-1.8
			c0-0.8,0.1-1.5,0.2-2.2s0.3-1.3,0.7-1.9c0.3-0.5,0.7-1,1.2-1.3c0.5-0.3,1.2-0.5,1.9-0.5c0.9,0,1.6,0.2,2.2,0.7
			c0.5,0.5,0.8,1.2,0.9,2.1h-1.3C11.6,80.6,11.4,80.2,11.1,79.9z M8.7,83.6c-0.3,0.1-0.5,0.3-0.7,0.5c-0.2,0.2-0.3,0.5-0.4,0.8
			c-0.1,0.3-0.1,0.6-0.1,1s0.1,0.7,0.2,1c0.1,0.3,0.2,0.6,0.4,0.8c0.2,0.2,0.4,0.4,0.7,0.5c0.3,0.1,0.6,0.2,1,0.2s0.7-0.1,0.9-0.2
			c0.3-0.1,0.5-0.3,0.7-0.5c0.2-0.2,0.3-0.5,0.4-0.8s0.1-0.6,0.1-0.9c0-0.3,0-0.7-0.1-1c-0.1-0.3-0.2-0.6-0.4-0.8s-0.4-0.4-0.7-0.5
			c-0.3-0.1-0.6-0.2-1-0.2S9,83.5,8.7,83.6z"/>
	</g>
</g>
<g>
	<g>
		<path class="st0" d="M8.1,118.8L7.5,122l0,0c0.2-0.3,0.5-0.5,0.9-0.6c0.4-0.1,0.7-0.2,1.1-0.2c0.5,0,0.9,0.1,1.4,0.2
			s0.8,0.4,1.1,0.7c0.3,0.3,0.6,0.7,0.8,1.2c0.2,0.5,0.3,1,0.3,1.6c0,0.5-0.1,0.9-0.2,1.3c-0.2,0.4-0.4,0.8-0.7,1.2
			c-0.3,0.3-0.7,0.6-1.2,0.8c-0.5,0.2-1,0.3-1.7,0.3c-0.5,0-0.9-0.1-1.3-0.2c-0.4-0.1-0.8-0.3-1.1-0.6c-0.3-0.3-0.6-0.6-0.8-1
			c-0.2-0.4-0.3-0.8-0.3-1.3h1.3c0,0.3,0.1,0.5,0.2,0.8s0.3,0.5,0.5,0.6c0.2,0.2,0.4,0.3,0.7,0.4c0.3,0.1,0.6,0.1,0.9,0.1
			c0.3,0,0.6-0.1,0.9-0.2c0.3-0.1,0.5-0.3,0.7-0.5c0.2-0.2,0.4-0.5,0.5-0.8c0.1-0.3,0.2-0.7,0.2-1.1c0-0.4-0.1-0.7-0.2-1
			s-0.3-0.6-0.5-0.8s-0.5-0.4-0.8-0.5c-0.3-0.1-0.6-0.2-1-0.2c-0.4,0-0.8,0.1-1.1,0.3c-0.3,0.2-0.6,0.4-0.9,0.7l-1.1-0.1l1-5.7h5.4
			v1.2H8.1z"/>
	</g>
</g>
<g>
	<g>
		<path class="st0" d="M13.2,163.9v1.2h-1.5v2.6h-1.2V165H5.7v-1.3l5-7.1h1v7.2H13.2z M10.5,158.5L10.5,158.5l-3.7,5.3h3.7V158.5z"
			/>
	</g>
</g>
<g>
	<g>
		<path class="st0" d="M8.7,200.5c0.1,0,0.1,0,0.2,0h0.3c0.3,0,0.5,0,0.8-0.1s0.5-0.2,0.7-0.3c0.2-0.1,0.3-0.3,0.5-0.6
			c0.1-0.2,0.2-0.5,0.2-0.8c0-0.6-0.2-1-0.6-1.3S9.9,197,9.3,197c-0.3,0-0.7,0.1-0.9,0.2c-0.3,0.1-0.5,0.3-0.6,0.5
			c-0.2,0.2-0.3,0.5-0.4,0.8c-0.1,0.3-0.1,0.6-0.1,0.9H5.9c0-0.5,0.1-1,0.3-1.4c0.1-0.4,0.4-0.8,0.6-1.1c0.3-0.3,0.6-0.5,1-0.7
			c0.4-0.2,0.9-0.3,1.4-0.3c0.5,0,0.9,0.1,1.3,0.2c0.4,0.1,0.8,0.3,1.1,0.5c0.3,0.2,0.5,0.5,0.7,0.9c0.2,0.4,0.3,0.8,0.3,1.3
			c0,0.5-0.1,0.9-0.4,1.3c-0.3,0.4-0.6,0.7-1.1,0.9v0c0.7,0.1,1.2,0.5,1.5,0.9c0.3,0.5,0.5,1.1,0.5,1.7c0,0.5-0.1,1-0.3,1.4
			c-0.2,0.4-0.5,0.8-0.8,1c-0.3,0.3-0.7,0.5-1.2,0.6c-0.5,0.1-0.9,0.2-1.5,0.2c-0.6,0-1.1-0.1-1.5-0.2S7,206.3,6.7,206
			c-0.3-0.3-0.6-0.7-0.7-1.1c-0.2-0.4-0.2-0.9-0.2-1.5H7c0,0.7,0.2,1.3,0.6,1.7s1,0.7,1.7,0.7c0.3,0,0.6,0,0.9-0.1
			c0.3-0.1,0.5-0.2,0.8-0.4s0.4-0.4,0.5-0.7c0.1-0.3,0.2-0.6,0.2-0.9c0-0.3-0.1-0.6-0.2-0.9c-0.1-0.3-0.3-0.5-0.5-0.7
			s-0.4-0.3-0.7-0.4c-0.3-0.1-0.6-0.1-0.9-0.1c-0.3,0-0.5,0-0.8,0v-1.1C8.7,200.5,8.7,200.5,8.7,200.5z"/>
	</g>
</g>
<g>
	<g>
		<path class="st0" d="M6.1,237.3c0.1-0.5,0.4-0.9,0.7-1.2s0.7-0.6,1.1-0.8c0.5-0.2,1-0.3,1.5-0.3c0.5,0,0.9,0.1,1.3,0.2
			c0.4,0.1,0.8,0.3,1.1,0.6c0.3,0.3,0.6,0.6,0.7,1s0.3,0.8,0.3,1.4c0,0.5-0.1,0.9-0.2,1.3c-0.1,0.4-0.3,0.7-0.6,1s-0.5,0.6-0.8,0.8
			c-0.3,0.2-0.6,0.5-1,0.7c-0.3,0.2-0.7,0.4-1,0.6c-0.3,0.2-0.7,0.4-0.9,0.6c-0.3,0.2-0.5,0.5-0.7,0.7c-0.2,0.3-0.3,0.6-0.4,0.9h5.6
			v1.2H5.6c0.1-0.6,0.2-1.2,0.3-1.7s0.4-0.9,0.7-1.2c0.3-0.3,0.6-0.6,0.9-0.9s0.7-0.5,1.1-0.7c0.5-0.3,0.9-0.6,1.2-0.8
			c0.3-0.2,0.6-0.5,0.9-0.7c0.2-0.2,0.4-0.5,0.5-0.8s0.2-0.6,0.2-1c0-0.3-0.1-0.6-0.2-0.8c-0.1-0.2-0.3-0.4-0.5-0.6
			c-0.2-0.2-0.4-0.3-0.7-0.4c-0.3-0.1-0.5-0.1-0.8-0.1c-0.4,0-0.7,0.1-1,0.2s-0.5,0.4-0.7,0.6s-0.3,0.5-0.4,0.9
			c-0.1,0.3-0.1,0.7-0.1,1H5.9C5.9,238.3,6,237.8,6.1,237.3z"/>
	</g>
</g>
<g>
	<g>
		<path class="st0" d="M7.2,278.5c0-0.4,0.1-0.9,0.2-1.3c0.1-0.4,0.2-0.8,0.4-1.2s0.4-0.7,0.6-1c0.3-0.3,0.6-0.5,1-0.7
			c0.4-0.2,0.9-0.2,1.5-0.2c0.6,0,1.1,0.1,1.5,0.2c0.4,0.2,0.7,0.4,1,0.7c0.3,0.3,0.5,0.6,0.6,1s0.3,0.8,0.4,1.2
			c0.1,0.4,0.1,0.8,0.2,1.3c0,0.4,0,0.8,0,1.2c0,0.4,0,0.8,0,1.2c0,0.4-0.1,0.9-0.2,1.3c-0.1,0.4-0.2,0.8-0.4,1.2
			c-0.2,0.4-0.4,0.7-0.6,1c-0.3,0.3-0.6,0.5-1,0.7s-0.9,0.2-1.5,0.2c-0.6,0-1.1-0.1-1.5-0.2c-0.4-0.2-0.7-0.4-1-0.7
			c-0.3-0.3-0.5-0.6-0.6-1c-0.2-0.4-0.3-0.8-0.4-1.2c-0.1-0.4-0.1-0.8-0.2-1.3s0-0.8,0-1.2C7.2,279.3,7.2,278.9,7.2,278.5z
			 M8.6,281.1c0,0.5,0.1,1,0.2,1.4c0.1,0.4,0.4,0.8,0.7,1.1c0.3,0.3,0.7,0.5,1.3,0.5c0.6,0,1-0.2,1.3-0.5c0.3-0.3,0.5-0.7,0.7-1.1
			c0.1-0.4,0.2-0.9,0.2-1.4c0-0.5,0-1,0-1.4c0-0.3,0-0.6,0-0.9c0-0.3,0-0.6-0.1-1c0-0.3-0.1-0.6-0.2-0.9s-0.2-0.6-0.4-0.8
			s-0.4-0.4-0.6-0.6c-0.3-0.1-0.6-0.2-0.9-0.2c-0.4,0-0.7,0.1-0.9,0.2c-0.3,0.1-0.5,0.3-0.6,0.6c-0.2,0.2-0.3,0.5-0.4,0.8
			c-0.1,0.3-0.2,0.6-0.2,0.9c0,0.3-0.1,0.6-0.1,1c0,0.3,0,0.6,0,0.9C8.6,280.1,8.6,280.6,8.6,281.1z"/>
	</g>
</g>
</svg>
