<?xml version="1.0" encoding="utf-8"?>
<!-- Generator: Adobe Illustrator 20.1.0, SVG Export Plug-In . SVG Version: 6.00 Build 0)  -->
<svg version="1.1" id="Layer_1" xmlns="http://www.w3.org/2000/svg" xmlns:xlink="http://www.w3.org/1999/xlink" x="0px" y="0px"
	 viewBox="0 0 141.5 46.6" style="enable-background:new 0 0 141.5 46.6;" xml:space="preserve">
<style type="text/css">
	.st0{fill:#FFFFFF;}
</style>
<g>
	<path class="st0" d="M24.7,39.9l0.2,1H24l0.2-1c0.1-0.5,0.2-0.9,0.2-1.2h0C24.5,39,24.6,39.4,24.7,39.9 M29.1,40.5h-0.6V42h0.6
		c0.5,0,0.7-0.2,0.7-0.8C29.8,40.8,29.7,40.5,29.1,40.5 M29.7,38.8c0-0.4-0.2-0.6-0.6-0.6h-0.6v1.3h0.6
		C29.5,39.5,29.7,39.3,29.7,38.8 M37.5,45.6H1.4V1h36.1V45.6z M3.9,34.6l25.3,0c3.2,0,5.8-2.6,5.8-5.8l0-25.3H9.7
		c-3.2,0-5.8,2.3-5.8,5.5L3.9,34.6z M7.3,41.3c0-1.3-0.8-1.6-1.7-1.9C5.1,39.2,5,39.1,5,38.7c0-0.4,0.2-0.6,0.7-0.6
		c0.4,0,0.7,0.1,1,0.3l0.4-0.9C6.6,37.2,6.2,37,5.5,37c-1.1,0-1.8,0.5-1.8,1.7c0,1.2,0.6,1.5,1.5,1.8C5.8,40.8,6,40.9,6,41.4
		c0,0.4-0.2,0.7-0.8,0.7c-0.5,0-0.9-0.2-1.3-0.4l-0.4,1c0.4,0.3,1.1,0.5,1.8,0.5C6.8,43.1,7.3,42.4,7.3,41.3 M11.6,42.6l-0.5-0.9
		c-0.2,0.3-0.5,0.4-1,0.4c-0.7,0-1-0.4-1-2c0-1.5,0.2-1.9,1-1.9c0.4,0,0.7,0.1,0.9,0.3l0.5-1C11.2,37.2,10.7,37,10,37
		c-1.5,0-2.3,0.8-2.3,3.1c0,2.1,0.7,3,2.3,3C10.8,43.1,11.2,42.9,11.6,42.6 M15.9,37.2h-1.2v2.2h-1.4v-2.2h-1.2V43h1.2v-2.6h1.4V43
		h1.2V37.2z M21.6,43l1.1-5.9h-1.2l-0.3,2c-0.1,0.9-0.2,1.8-0.2,2.3h0c-0.1-0.6-0.2-1.5-0.3-2.2l-0.4-2.1h-1l-0.4,2.1
		c-0.2,1-0.3,1.7-0.3,2.2h0c0-0.3-0.1-1.4-0.2-2.3l-0.4-2h-1.3l1.1,5.9H19l0.5-2.5c0.1-0.6,0.2-1.3,0.2-1.6h0c0,0.4,0.1,1,0.2,1.6
		l0.5,2.5H21.6z M26.7,43l-1.5-5.9h-1.3L22.3,43h1.3l0.3-1.2h1.3l0.3,1.2H26.7z M31.1,41.3c0-0.8-0.4-1.3-1-1.4
		c0.6-0.2,0.7-0.6,0.7-1.2c0-1-0.6-1.5-1.5-1.5h-2.1V43h2.1C30.6,43,31.1,42.5,31.1,41.3 M35.1,42h-2.1v-1.5h1.6v-1h-1.6v-1.2H35
		v-1.1h-3.2V43h3.3V42z M32.5,29c0-1.8-0.9-2.8-2.8-4.6c0,0-12.3-12.3-12.6-12.6c-0.3-0.3-0.2-0.9,0.4-0.9c0.3,0,11.7,0,11.7,0
		c1.5,0,3.2-1.5,3.2-3.2l0-1.6H9.8c-2,0-3.3,1.7-3.3,3.1c0,1.8,0.9,2.8,2.8,4.6c0,0,12.3,12.3,12.6,12.6c0.3,0.3,0.2,0.9-0.4,0.9
		c-0.3,0-11.7,0-11.7,0c-1.5,0-3.2,1.5-3.2,3.2v1.6l22.7,0C31.1,32.1,32.4,30.4,32.5,29"/>
	<g>
		<path class="st0" d="M47.8,17.1l0.6-1.2c0.7,0.5,1.3,0.7,2.1,0.7c1.1,0,1.5-0.5,1.5-1.3c0-0.9-0.5-1.2-1.5-1.5
			c-1.5-0.5-2.4-1.1-2.4-2.8c0-1.7,1.1-2.5,2.7-2.5c1.1,0,1.7,0.2,2.4,0.6l-0.6,1.2c-0.5-0.4-1-0.5-1.6-0.5c-0.8,0-1.3,0.3-1.3,1.1
			c0,0.8,0.3,1,1.3,1.4c1.5,0.5,2.6,1,2.6,3c0,1.6-0.7,2.8-3,2.8C49.5,18,48.5,17.6,47.8,17.1z"/>
		<path class="st0" d="M54.9,14.5c0-2.5,1-3.5,2.7-3.5c0.8,0,1.4,0.2,2,0.8l-0.8,1c-0.3-0.4-0.7-0.5-1.1-0.5c-0.9,0-1.2,0.4-1.2,2.3
			c0,1.9,0.3,2.3,1.3,2.3c0.5,0,0.8-0.2,1.2-0.6l0.7,1c-0.5,0.5-1.1,0.8-2,0.8C55.9,18,54.9,16.9,54.9,14.5z"/>
		<path class="st0" d="M61,8.1h1.5v3.6c0.5-0.5,1.1-0.8,1.8-0.8c1.1,0,1.7,0.5,1.7,1.8v5.2h-1.5v-4.8c0-0.7-0.2-0.9-0.7-0.9
			c-0.5,0-0.9,0.3-1.3,0.6v5.1H61V8.1z"/>
		<path class="st0" d="M67.2,11.1h1.6l0.7,2.9c0.2,0.7,0.3,1.8,0.3,2.1h0c0-0.3,0.2-1.2,0.3-1.9l0.8-3.1h1.5l0.7,3.1
			c0.2,0.7,0.3,1.6,0.3,1.9h0c0-0.3,0.2-1.3,0.3-2l0.7-2.9h1.5l-1.8,6.8h-1.4l-0.8-3.2c-0.1-0.6-0.3-1.5-0.3-1.9h0
			c-0.1,0.4-0.2,1.2-0.3,1.9l-0.8,3.2H69L67.2,11.1z"/>
		<path class="st0" d="M76.7,15.9c0-1.5,0.9-2.2,3-2.2h0.5v-0.4c0-0.7-0.1-1.1-0.9-1.1c-0.7,0-1.3,0.3-1.9,0.6l-0.6-1.1
			c0.7-0.5,1.5-0.8,2.6-0.8c1.5,0,2.2,0.6,2.2,2.1v4.8h-1.2l-0.2-0.6C80,17.7,79.4,18,78.7,18C77.4,18,76.7,17.2,76.7,15.9z
			 M80.2,16.3v-1.7h-0.2c-1.5,0-1.7,0.4-1.7,1.2c0,0.8,0.2,1,0.8,1C79.5,16.9,79.9,16.6,80.2,16.3z"/>
		<path class="st0" d="M84.9,17.2l-0.2,0.6h-1.2V8.1H85v3.6c0.4-0.4,1-0.8,1.7-0.8c1.4,0,2.3,0.7,2.3,3.5c0,2.7-0.8,3.6-2.3,3.6
			C85.9,18,85.3,17.6,84.9,17.2z M87.4,14.5c0-1.9-0.3-2.3-1.1-2.3c-0.5,0-0.9,0.3-1.3,0.6v3.5c0.3,0.3,0.7,0.5,1.2,0.5
			C87.1,16.8,87.4,16.4,87.4,14.5z"/>
		<path class="st0" d="M90.1,14.5c0-2.6,1-3.5,2.7-3.5c1.8,0,2.7,1,2.7,3.5v0.5h-3.8c0.1,1.5,0.4,1.9,1.4,1.9c0.7,0,1.1-0.3,1.5-0.6
			l0.7,1c-0.6,0.5-1.3,0.8-2.3,0.8C91.1,18,90.1,17,90.1,14.5z M91.8,13.8H94c0-1.3-0.3-1.8-1.1-1.8C92.2,12,91.8,12.4,91.8,13.8z"
			/>
		<path class="st0" d="M100.3,8.6h2.7c2,0,3.1,0.8,3.1,2.8c0,1.8-0.7,2.9-2.9,2.9h-1.2v3.5h-1.6V8.6z M103.1,13
			c0.9,0,1.3-0.3,1.3-1.5c0-1.2-0.4-1.5-1.3-1.5h-1.2v3H103.1z"/>
		<path class="st0" d="M107.5,8.1h1.5v3.6c0.5-0.5,1.1-0.8,1.8-0.8c1.1,0,1.7,0.5,1.7,1.8v5.2h-1.5v-4.8c0-0.7-0.2-0.9-0.7-0.9
			c-0.5,0-0.9,0.3-1.3,0.6v5.1h-1.5V8.1z"/>
		<path class="st0" d="M114,15.9c0-1.5,0.9-2.2,3-2.2h0.5v-0.4c0-0.7-0.1-1.1-0.9-1.1c-0.7,0-1.3,0.3-1.9,0.6l-0.6-1.1
			c0.7-0.5,1.5-0.8,2.6-0.8c1.5,0,2.2,0.6,2.2,2.1v4.8h-1.2l-0.2-0.6c-0.4,0.4-0.9,0.8-1.6,0.8C114.6,18,114,17.2,114,15.9z
			 M117.5,16.3v-1.7h-0.2c-1.5,0-1.7,0.4-1.7,1.2c0,0.8,0.2,1,0.8,1C116.8,16.9,117.2,16.6,117.5,16.3z"/>
		<path class="st0" d="M120.8,11.1h1.2l0.2,0.9c0.5-0.6,1.1-1,1.8-1c0.1,0,0.3,0,0.4,0.1l-0.2,1.6c-0.1-0.1-0.3-0.1-0.5-0.1
			c-0.5,0-0.9,0.2-1.2,0.5v4.9h-1.5V11.1z"/>
		<path class="st0" d="M125.5,11.1h1.2l0.2,0.7c0.6-0.5,1.1-0.9,1.9-0.9c0.7,0,1.2,0.3,1.4,0.9c0.6-0.5,1.2-0.9,1.9-0.9
			c1,0,1.6,0.5,1.6,1.7v5.2h-1.5V13c0-0.7-0.2-0.9-0.6-0.9c-0.4,0-0.8,0.2-1.2,0.6v5.1h-1.5V13c0-0.7-0.2-0.9-0.6-0.9
			c-0.4,0-0.8,0.3-1.2,0.6v5.1h-1.5V11.1z"/>
		<path class="st0" d="M135.1,15.9c0-1.5,0.9-2.2,3-2.2h0.5v-0.4c0-0.7-0.1-1.1-0.9-1.1c-0.7,0-1.3,0.3-1.9,0.6l-0.6-1.1
			c0.7-0.5,1.5-0.8,2.6-0.8c1.5,0,2.2,0.6,2.2,2.1v4.8h-1.2l-0.2-0.6c-0.4,0.4-0.9,0.8-1.6,0.8C135.8,18,135.1,17.2,135.1,15.9z
			 M138.6,16.3v-1.7h-0.2c-1.5,0-1.7,0.4-1.7,1.2c0,0.8,0.2,1,0.8,1C137.9,16.9,138.3,16.6,138.6,16.3z"/>
	</g>
	<g>
		<path class="st0" d="M48.5,22.9h2.2l1.3,4.3c0.2,0.8,0.3,1.5,0.4,2.1h0c0.1-0.5,0.1-1.3,0.4-2.1l1.2-4.3h2.3v9.2h-1.6v-4.7
			c0-1.5,0.1-2.7,0.1-3.2h0c-0.1,0.5-0.4,1.9-0.7,2.9l-1.1,3.3h-1.5l-1-3.2c-0.3-1.1-0.6-2.6-0.7-3.1h0c0,0.5,0.1,1.9,0.1,3.2v4.7
			h-1.4V22.9z"/>
		<path class="st0" d="M57.9,28.7c0-2.6,1-3.5,2.7-3.5c1.8,0,2.7,1,2.7,3.5v0.5h-3.8c0.1,1.5,0.4,1.9,1.4,1.9c0.7,0,1.1-0.3,1.5-0.6
			l0.7,1c-0.6,0.5-1.3,0.8-2.3,0.8C58.9,32.3,57.9,31.3,57.9,28.7z M59.2,23.8l2.6-1.8l0.8,1.3l-2.8,1.4L59.2,23.8z M59.6,28.1h2.2
			c0-1.3-0.3-1.8-1.1-1.8C60,26.3,59.6,26.7,59.6,28.1z"/>
		<path class="st0" d="M66.2,28.4l-1.8-3.1h1.8l0.5,0.9c0.3,0.5,0.4,0.8,0.5,1.2h0c0.1-0.3,0.2-0.7,0.5-1.2l0.4-0.9h1.7l-1.8,3.1
			l2.1,3.7h-1.8l-0.7-1.4c-0.2-0.5-0.4-0.9-0.5-1.2h0c-0.1,0.3-0.2,0.7-0.5,1.2l-0.7,1.4h-1.7L66.2,28.4z"/>
		<path class="st0" d="M71.5,26.5l-0.9-0.2v-1H73v6.8h-1.5V26.5z M71.3,23.4c0-0.5,0.4-1,1-1c0.5,0,1,0.4,1,1c0,0.5-0.4,1-1,1
			C71.7,24.3,71.3,23.9,71.3,23.4z"/>
		<path class="st0" d="M74.5,28.7c0-2.5,1-3.5,2.7-3.5c0.8,0,1.4,0.2,2,0.8l-0.8,1c-0.3-0.4-0.7-0.5-1.1-0.5c-0.9,0-1.2,0.4-1.2,2.3
			c0,1.9,0.3,2.3,1.3,2.3c0.5,0,0.8-0.2,1.2-0.6l0.7,1c-0.5,0.5-1.1,0.8-2,0.8C75.5,32.3,74.5,31.2,74.5,28.7z"/>
		<path class="st0" d="M80.2,28.7c0-2.5,1.1-3.5,2.8-3.5c1.7,0,2.9,1,2.9,3.6c0,2.5-1.1,3.6-2.8,3.6C81.3,32.3,80.2,31.3,80.2,28.7z
			 M84.3,28.7c0-1.9-0.3-2.4-1.2-2.4c-0.9,0-1.2,0.5-1.2,2.4c0,1.9,0.3,2.4,1.2,2.4C84,31.1,84.3,30.6,84.3,28.7z"/>
	</g>
</g>
</svg>
