<?xml version="1.0" encoding="utf-8"?>
<!-- Generator: Adobe Illustrator 20.1.0, SVG Export Plug-In . SVG Version: 6.00 Build 0)  -->
<svg version="1.1" id="Layer_1" xmlns="http://www.w3.org/2000/svg" xmlns:xlink="http://www.w3.org/1999/xlink" x="0px" y="0px"
	 viewBox="0 0 335.4 113" style="enable-background:new 0 0 335.4 113;" xml:space="preserve">
<style type="text/css">
	.st0{fill-rule:evenodd;clip-rule:evenodd;fill:url(#SVGID_1_);}
	.st1{fill-rule:evenodd;clip-rule:evenodd;fill:url(#SVGID_2_);}
	.st2{fill-rule:evenodd;clip-rule:evenodd;fill:url(#SVGID_3_);}
	.st3{fill:#FFFFFF;}
</style>
<radialGradient id="SVGID_1_" cx="11.7137" cy="13.3501" r="7.7914" gradientUnits="userSpaceOnUse">
	<stop  offset="0" style="stop-color:#FFF79B"/>
	<stop  offset="1" style="stop-color:#B2A730"/>
</radialGradient>
<path class="st0" d="M19.9,5.9c0,0-3.7-0.2-7.9,5.7c-0.6,0.8-1.8,2.4-2.7,3.8c0,0,0,0,0,0c-0.6-1.2-1.5-3-2.9-3.2
	c-1.7-0.2-2.8,1.4-2.8,1.4c2.7,0,4.1,7.2,4.5,7.1c0.3,0,2-0.9,2.3-1.4C11.4,17.8,17.3,5.9,19.9,5.9z"/>
<radialGradient id="SVGID_2_" cx="11.7137" cy="35.4094" r="7.7914" gradientUnits="userSpaceOnUse">
	<stop  offset="0" style="stop-color:#FFF79B"/>
	<stop  offset="1" style="stop-color:#B2A730"/>
</radialGradient>
<path class="st1" d="M19.9,28c0,0-3.7-0.2-7.9,5.7c-0.6,0.8-1.8,2.4-2.7,3.8c0,0,0,0,0,0c-0.6-1.2-1.5-3-2.9-3.2
	c-1.7-0.2-2.8,1.4-2.8,1.4c2.7,0,4.1,7.2,4.5,7.1c0.3,0,2-0.9,2.3-1.4C11.4,39.8,17.3,28,19.9,28z"/>
<radialGradient id="SVGID_3_" cx="11.7137" cy="61.6276" r="7.7914" gradientUnits="userSpaceOnUse">
	<stop  offset="0" style="stop-color:#FFF79B"/>
	<stop  offset="1" style="stop-color:#B2A730"/>
</radialGradient>
<path class="st2" d="M19.9,54.2c0,0-3.7-0.2-7.9,5.7c-0.6,0.8-1.8,2.4-2.7,3.8c0,0,0,0,0,0c-0.6-1.2-1.5-3-2.9-3.2
	c-1.7-0.2-2.8,1.4-2.8,1.4c2.7,0,4.1,7.2,4.5,7.1c0.3,0,2-0.9,2.3-1.4C11.4,66.1,17.3,54.2,19.9,54.2z"/>
<g>
	<path class="st3" d="M37.1,7.7c-0.7-0.2-1.3-0.3-1.9-0.3c-0.8,0-1.4,0.2-1.9,0.5c-0.5,0.3-0.7,0.7-0.7,1.3c0,0.5,0.1,0.9,0.4,1.2
		c0.3,0.3,0.6,0.5,1,0.7c0.4,0.2,1,0.4,1.7,0.6c0.9,0.3,1.7,0.6,2.2,0.8c0.6,0.3,1.1,0.6,1.5,1.2c0.4,0.5,0.6,1.2,0.6,2
		c0,0.8-0.2,1.5-0.6,2s-1,1-1.8,1.3c-0.8,0.3-1.6,0.5-2.6,0.5c-1,0-2-0.2-2.9-0.6s-1.8-0.9-2.4-1.6l0.8-1.6c0.6,0.6,1.4,1.1,2.2,1.5
		c0.8,0.3,1.6,0.5,2.4,0.5c0.9,0,1.6-0.2,2.1-0.5c0.5-0.4,0.8-0.8,0.8-1.4c0-0.5-0.1-0.9-0.4-1.2c-0.3-0.3-0.6-0.6-1.1-0.7
		c-0.4-0.2-1-0.4-1.8-0.6c-0.9-0.3-1.6-0.5-2.2-0.8c-0.6-0.3-1.1-0.6-1.4-1.1c-0.4-0.5-0.6-1.2-0.6-2c0-0.7,0.2-1.4,0.6-1.9
		c0.4-0.6,1-1,1.7-1.3c0.7-0.3,1.6-0.4,2.5-0.4c0.8,0,1.6,0.1,2.4,0.4c0.8,0.2,1.5,0.6,2.1,1l-0.8,1.7C38.4,8.2,37.8,7.9,37.1,7.7z"
		/>
	<path class="st3" d="M52,9v10.3h-1.8v-2.2c-0.7,1.5-1.9,2.2-3.8,2.2c-1.2,0-2.1-0.4-2.8-1.1c-0.7-0.7-1-1.7-1-2.9V9h1.8v5.9
		c0,0.9,0.2,1.5,0.7,2c0.5,0.5,1.1,0.7,1.9,0.7c1,0,1.7-0.4,2.3-1c0.6-0.7,0.8-1.5,0.8-2.5V9H52z"/>
	<path class="st3" d="M63.8,9.6c0.7,0.4,1.3,1.1,1.7,1.8c0.4,0.8,0.6,1.7,0.6,2.7c0,1-0.2,1.9-0.6,2.7c-0.4,0.8-1,1.4-1.7,1.8
		c-0.7,0.4-1.6,0.6-2.5,0.6c-0.9,0-1.6-0.2-2.3-0.5c-0.7-0.4-1.2-0.9-1.6-1.6v5.8h-1.8V9h1.8v2c0.4-0.7,0.9-1.2,1.5-1.6
		C59.6,9.2,60.3,9,61.2,9C62.2,9,63,9.2,63.8,9.6z M62.6,17.3c0.5-0.3,0.9-0.7,1.2-1.3c0.3-0.6,0.4-1.2,0.4-1.9
		c0-0.7-0.1-1.3-0.4-1.9s-0.7-1-1.2-1.3c-0.5-0.3-1.1-0.5-1.8-0.5s-1.3,0.2-1.8,0.5c-0.5,0.3-0.9,0.7-1.2,1.3s-0.4,1.2-0.4,1.9
		c0,0.7,0.1,1.3,0.4,1.9c0.3,0.5,0.7,1,1.2,1.3c0.5,0.3,1.1,0.5,1.8,0.5S62.1,17.6,62.6,17.3z"/>
	<path class="st3" d="M76.4,10.4c0.8,0.9,1.2,2.2,1.2,3.9c0,0.3,0,0.5,0,0.6h-8.1c0.1,0.9,0.5,1.6,1.2,2.2c0.6,0.5,1.4,0.8,2.3,0.8
		c0.6,0,1.2-0.1,1.7-0.3s1-0.5,1.4-0.9l1,1c-0.5,0.5-1.1,1-1.8,1.3c-0.7,0.3-1.5,0.4-2.4,0.4c-1,0-1.9-0.2-2.7-0.6
		c-0.8-0.4-1.4-1-1.8-1.8c-0.4-0.8-0.6-1.7-0.6-2.7c0-1,0.2-1.9,0.6-2.7s1-1.4,1.8-1.8S71.8,9,72.7,9C74.3,9,75.5,9.5,76.4,10.4z
		 M75.9,13.5c-0.1-0.9-0.4-1.7-0.9-2.2c-0.6-0.5-1.3-0.8-2.2-0.8c-0.9,0-1.7,0.3-2.3,0.8c-0.6,0.5-1,1.3-1.1,2.2H75.9z"/>
	<path class="st3" d="M83.3,9.6C83.9,9.2,84.6,9,85.5,9v1.7c-1,0-1.9,0.2-2.5,0.8c-0.6,0.6-1,1.4-1.1,2.3v5.4H80V9h1.8v2.2
		C82.2,10.5,82.7,10,83.3,9.6z"/>
	<path class="st3" d="M95.2,10.4c0.8,0.9,1.2,2.2,1.2,3.9c0,0.3,0,0.5,0,0.6h-8.1c0.1,0.9,0.5,1.6,1.2,2.2c0.6,0.5,1.4,0.8,2.3,0.8
		c0.6,0,1.2-0.1,1.7-0.3s1-0.5,1.4-0.9l1,1c-0.5,0.5-1.1,1-1.8,1.3c-0.7,0.3-1.5,0.4-2.4,0.4c-1,0-1.9-0.2-2.7-0.6
		c-0.8-0.4-1.4-1-1.8-1.8c-0.4-0.8-0.6-1.7-0.6-2.7c0-1,0.2-1.9,0.6-2.7s1-1.4,1.8-1.8S90.6,9,91.6,9C93.1,9,94.3,9.5,95.2,10.4z
		 M94.8,13.5c-0.1-0.9-0.4-1.7-0.9-2.2c-0.6-0.5-1.3-0.8-2.2-0.8c-0.9,0-1.7,0.3-2.3,0.8c-0.6,0.5-1,1.3-1.1,2.2H94.8z"/>
	<path class="st3" d="M107.4,10c0.7,0.7,1,1.7,1,2.9v6.3h-1.8v-5.9c0-0.9-0.2-1.5-0.7-2c-0.5-0.5-1.2-0.7-2-0.7
		c-0.9,0-1.7,0.3-2.2,0.9c-0.6,0.6-0.9,1.3-1,2.2v5.5h-1.8V9h1.8v2.2c0.7-1.5,2-2.2,3.9-2.2C105.7,9,106.7,9.3,107.4,10z"/>
	<path class="st3" d="M116.8,4.9h1.8v14.4h-1.8V4.9z"/>
	<path class="st3" d="M128.5,19.3v-1.4c-0.8,1-2,1.5-3.6,1.5c-0.7,0-1.3-0.1-1.9-0.4c-0.5-0.3-1-0.6-1.2-1.1c-0.3-0.5-0.4-1-0.4-1.6
		c0-0.9,0.3-1.6,1-2.2c0.7-0.5,1.6-0.8,2.8-0.8h3.3v-0.5c0-0.7-0.2-1.3-0.7-1.7c-0.4-0.4-1.1-0.6-1.9-0.6c-1,0-2.1,0.4-3.2,1.1
		l-0.8-1.2c0.7-0.5,1.4-0.8,2-1c0.6-0.2,1.4-0.3,2.2-0.3c1.3,0,2.3,0.3,3,0.9s1.1,1.5,1.1,2.6l0,6.7H128.5z M127.4,17.3
		c0.6-0.4,0.9-0.9,1.1-1.6v-1h-3c-0.8,0-1.4,0.1-1.8,0.4c-0.4,0.2-0.6,0.6-0.6,1.2c0,0.5,0.2,1,0.6,1.3c0.4,0.3,0.9,0.5,1.6,0.5
		C126.1,17.9,126.8,17.7,127.4,17.3z"/>
	<path class="st3" d="M144.8,19.3v-1.4c-0.8,1-2,1.5-3.6,1.5c-0.7,0-1.3-0.1-1.9-0.4c-0.5-0.3-1-0.6-1.2-1.1c-0.3-0.5-0.4-1-0.4-1.6
		c0-0.9,0.3-1.6,1-2.2c0.7-0.5,1.6-0.8,2.8-0.8h3.3v-0.5c0-0.7-0.2-1.3-0.7-1.7c-0.4-0.4-1.1-0.6-1.9-0.6c-1,0-2.1,0.4-3.2,1.1
		l-0.8-1.2c0.7-0.5,1.4-0.8,2-1c0.6-0.2,1.4-0.3,2.2-0.3c1.3,0,2.3,0.3,3,0.9s1.1,1.5,1.1,2.6l0,6.7H144.8z M143.7,17.3
		c0.6-0.4,0.9-0.9,1.1-1.6v-1h-3c-0.8,0-1.4,0.1-1.8,0.4c-0.4,0.2-0.6,0.6-0.6,1.2c0,0.5,0.2,1,0.6,1.3c0.4,0.3,0.9,0.5,1.6,0.5
		C142.4,17.9,143.2,17.7,143.7,17.3z"/>
	<path class="st3" d="M154.1,10.6c-0.7,0-1.3,0.1-1.8,0.4s-0.9,0.7-1.2,1.3c-0.3,0.5-0.4,1.2-0.4,1.9c0,0.7,0.1,1.3,0.4,1.9
		c0.3,0.5,0.7,1,1.2,1.3c0.5,0.3,1.1,0.5,1.8,0.5s1.3-0.1,1.8-0.3c0.5-0.2,1-0.5,1.3-0.9l1,1c-0.5,0.6-1.1,1-1.8,1.3
		s-1.5,0.5-2.4,0.5c-1,0-1.9-0.2-2.7-0.7c-0.8-0.4-1.4-1-1.8-1.8c-0.4-0.8-0.6-1.7-0.6-2.7c0-1,0.2-1.9,0.6-2.7
		c0.4-0.8,1-1.4,1.8-1.8c0.8-0.4,1.7-0.7,2.7-0.7c0.9,0,1.6,0.1,2.3,0.4c0.7,0.3,1.3,0.6,1.7,1.2l-1,1.2
		C156.2,11,155.2,10.6,154.1,10.6z"/>
	<path class="st3" d="M162.4,5.3c0.2,0.2,0.3,0.5,0.3,0.8c0,0.3-0.1,0.6-0.3,0.8c-0.2,0.2-0.5,0.3-0.8,0.3s-0.6-0.1-0.8-0.3
		c-0.2-0.2-0.3-0.5-0.3-0.8c0-0.3,0.1-0.6,0.3-0.8c0.2-0.2,0.5-0.3,0.8-0.3S162.2,5.1,162.4,5.3z M160.7,9h1.8v10.3h-1.8V9z"/>
	<path class="st3" d="M175.6,4.9v14.4h-1.8v-2c-0.4,0.7-0.9,1.2-1.6,1.6c-0.7,0.4-1.4,0.6-2.3,0.6c-1,0-1.8-0.2-2.6-0.7
		s-1.3-1.1-1.7-1.9c-0.4-0.8-0.6-1.7-0.6-2.7c0-1,0.2-1.9,0.6-2.7c0.4-0.8,1-1.4,1.7-1.8c0.7-0.4,1.6-0.7,2.5-0.7
		c0.9,0,1.6,0.2,2.3,0.5s1.2,0.9,1.6,1.6V4.9H175.6z M172.1,17.4c0.5-0.3,0.9-0.7,1.2-1.3c0.3-0.6,0.4-1.2,0.4-1.9
		c0-0.7-0.1-1.3-0.4-1.9c-0.3-0.6-0.7-1-1.2-1.3c-0.5-0.3-1.1-0.5-1.8-0.5s-1.3,0.2-1.8,0.5c-0.5,0.3-0.9,0.8-1.2,1.3
		c-0.3,0.6-0.4,1.2-0.4,1.9s0.1,1.3,0.4,1.9c0.3,0.6,0.7,1,1.2,1.3c0.5,0.3,1.1,0.5,1.8,0.5S171.6,17.7,172.1,17.4z"/>
	<path class="st3" d="M186.9,10.4c0.8,0.9,1.2,2.2,1.2,3.9c0,0.3,0,0.5,0,0.6H180c0.1,0.9,0.5,1.6,1.2,2.2c0.6,0.5,1.4,0.8,2.3,0.8
		c0.6,0,1.2-0.1,1.7-0.3s1-0.5,1.4-0.9l1,1c-0.5,0.5-1.1,1-1.8,1.3c-0.7,0.3-1.5,0.4-2.4,0.4c-1,0-1.9-0.2-2.7-0.6
		c-0.8-0.4-1.4-1-1.8-1.8c-0.4-0.8-0.6-1.7-0.6-2.7c0-1,0.2-1.9,0.6-2.7c0.4-0.8,1-1.4,1.8-1.8s1.7-0.7,2.7-0.7
		C184.9,9,186.1,9.5,186.9,10.4z M186.5,13.5c-0.1-0.9-0.4-1.7-0.9-2.2c-0.6-0.5-1.3-0.8-2.2-0.8c-0.9,0-1.7,0.3-2.3,0.8
		c-0.6,0.5-1,1.3-1.1,2.2H186.5z"/>
	<path class="st3" d="M189.8,9l8.2,0v1.3l-6.2,7.5l6.4,0v1.5l-8.6,0V18l6.2-7.5l-6,0V9z"/>
	<path class="st3" d="M214.9,9v9.2c0,1-0.2,1.8-0.6,2.6c-0.4,0.7-1,1.3-1.8,1.7c-0.8,0.4-1.7,0.6-2.8,0.6c-1.5,0-2.9-0.5-4.2-1.4
		l0.8-1.3c0.5,0.4,1,0.7,1.6,0.9c0.5,0.2,1.1,0.3,1.8,0.3c1.1,0,1.9-0.3,2.5-0.9c0.6-0.6,1-1.4,1-2.4v-1.4c-0.4,0.6-0.9,1.1-1.5,1.4
		c-0.6,0.3-1.3,0.5-2.1,0.5c-0.9,0-1.7-0.2-2.4-0.6c-0.7-0.4-1.2-1-1.6-1.8c-0.4-0.7-0.6-1.6-0.6-2.6c0-1,0.2-1.8,0.6-2.5
		c0.4-0.7,0.9-1.3,1.6-1.7c0.7-0.4,1.5-0.6,2.4-0.6c0.8,0,1.5,0.2,2.1,0.5c0.6,0.3,1.1,0.8,1.5,1.4V9H214.9z M211.5,16.9
		c0.5-0.3,0.9-0.7,1.2-1.2c0.3-0.5,0.4-1.1,0.4-1.8c0-0.7-0.1-1.3-0.4-1.8c-0.3-0.5-0.7-0.9-1.2-1.2s-1.1-0.4-1.7-0.4
		s-1.2,0.1-1.7,0.4c-0.5,0.3-0.9,0.7-1.2,1.2s-0.4,1.1-0.4,1.8c0,1,0.3,1.8,0.9,2.5c0.6,0.6,1.4,1,2.4,1
		C210.5,17.4,211,17.2,211.5,16.9z"/>
	<path class="st3" d="M224.5,19.3v-1.4c-0.8,1-2,1.5-3.6,1.5c-0.7,0-1.3-0.1-1.9-0.4c-0.5-0.3-1-0.6-1.2-1.1c-0.3-0.5-0.4-1-0.4-1.6
		c0-0.9,0.3-1.6,1-2.2c0.7-0.5,1.6-0.8,2.8-0.8h3.3v-0.5c0-0.7-0.2-1.3-0.7-1.7c-0.4-0.4-1.1-0.6-1.9-0.6c-1,0-2.1,0.4-3.2,1.1
		l-0.8-1.2c0.7-0.5,1.4-0.8,2-1c0.6-0.2,1.4-0.3,2.2-0.3c1.3,0,2.3,0.3,3,0.9c0.7,0.6,1.1,1.5,1.1,2.6l0,6.7H224.5z M223.4,17.3
		c0.6-0.4,0.9-0.9,1.1-1.6v-1h-3c-0.8,0-1.4,0.1-1.8,0.4c-0.4,0.2-0.6,0.6-0.6,1.2c0,0.5,0.2,1,0.6,1.3c0.4,0.3,0.9,0.5,1.6,0.5
		C222.1,17.9,222.8,17.7,223.4,17.3z M223.1,4.7l1.9,0.8l-2.4,1.9L221,7.2L223.1,4.7z"/>
	<path class="st3" d="M233.7,10.7c-0.5-0.2-1-0.2-1.5-0.2c-0.5,0-1,0.1-1.3,0.3c-0.3,0.2-0.5,0.5-0.5,0.9s0.2,0.7,0.6,0.9
		c0.4,0.2,0.9,0.4,1.7,0.6c0.7,0.2,1.3,0.4,1.7,0.6c0.5,0.2,0.8,0.5,1.2,0.9c0.3,0.4,0.5,0.9,0.5,1.6c0,1-0.4,1.7-1.1,2.2
		c-0.7,0.5-1.6,0.8-2.7,0.8c-0.8,0-1.5-0.1-2.2-0.4c-0.7-0.2-1.3-0.6-1.8-1l0.7-1.3c0.4,0.4,1,0.7,1.6,0.9c0.6,0.2,1.2,0.3,1.8,0.3
		s1.1-0.1,1.4-0.3c0.4-0.2,0.5-0.6,0.5-1c0-0.5-0.2-0.8-0.6-1s-1-0.5-1.7-0.7c-0.7-0.2-1.2-0.4-1.7-0.6c-0.4-0.2-0.8-0.5-1.1-0.9
		s-0.5-0.9-0.5-1.5c0-1,0.3-1.7,1-2.2c0.7-0.5,1.6-0.7,2.6-0.7c0.6,0,1.2,0.1,1.8,0.3c0.6,0.2,1.1,0.4,1.6,0.7l-0.7,1.4
		C234.7,11.1,234.2,10.8,233.7,10.7z"/>
	<path class="st3" d="M243.9,18.6c-0.8,0.5-1.6,0.8-2.4,0.8s-1.5-0.2-2-0.7s-0.8-1.2-0.8-2.2v-5.7h-1.5V9.4h1.5V6.6h1.8v2.8h3.1v1.4
		h-3.1v5.4c0,0.6,0.1,1,0.3,1.2c0.2,0.2,0.5,0.4,0.9,0.4c0.5,0,1-0.2,1.6-0.5L243.9,18.6z"/>
	<path class="st3" d="M249.3,9.6c0.6-0.4,1.4-0.6,2.2-0.6v1.7c-1,0-1.9,0.2-2.5,0.8s-1,1.4-1.1,2.3v5.4h-1.8V9h1.8v2.2
		C248.2,10.5,248.7,10,249.3,9.6z"/>
	<path class="st3" d="M255.2,5.3c0.2,0.2,0.3,0.5,0.3,0.8c0,0.3-0.1,0.6-0.3,0.8c-0.2,0.2-0.5,0.3-0.8,0.3s-0.6-0.1-0.8-0.3
		c-0.2-0.2-0.3-0.5-0.3-0.8c0-0.3,0.1-0.6,0.3-0.8c0.2-0.2,0.5-0.3,0.8-0.3S255,5.1,255.2,5.3z M253.5,9h1.8v10.3h-1.8V9z"/>
	<path class="st3" d="M263.1,10.6c-0.7,0-1.3,0.1-1.8,0.4s-0.9,0.7-1.2,1.3c-0.3,0.5-0.4,1.2-0.4,1.9c0,0.7,0.1,1.3,0.4,1.9
		c0.3,0.5,0.7,1,1.2,1.3c0.5,0.3,1.1,0.5,1.8,0.5s1.3-0.1,1.8-0.3c0.5-0.2,1-0.5,1.3-0.9l1,1c-0.5,0.6-1.1,1-1.8,1.3
		c-0.7,0.3-1.5,0.5-2.4,0.5c-1,0-1.9-0.2-2.7-0.7c-0.8-0.4-1.4-1-1.8-1.8c-0.4-0.8-0.6-1.7-0.6-2.7c0-1,0.2-1.9,0.6-2.7
		c0.4-0.8,1-1.4,1.8-1.8c0.8-0.4,1.7-0.7,2.7-0.7c0.9,0,1.6,0.1,2.3,0.4c0.7,0.3,1.3,0.6,1.7,1.2l-1,1.2
		C265.2,11,264.2,10.6,263.1,10.6z"/>
	<path class="st3" d="M275.5,19.3v-1.4c-0.8,1-2,1.5-3.6,1.5c-0.7,0-1.3-0.1-1.9-0.4c-0.5-0.3-1-0.6-1.2-1.1c-0.3-0.5-0.4-1-0.4-1.6
		c0-0.9,0.3-1.6,1-2.2c0.7-0.5,1.6-0.8,2.8-0.8h3.3v-0.5c0-0.7-0.2-1.3-0.7-1.7c-0.4-0.4-1.1-0.6-1.9-0.6c-1,0-2.1,0.4-3.2,1.1
		l-0.8-1.2c0.7-0.5,1.4-0.8,2-1c0.6-0.2,1.4-0.3,2.2-0.3c1.3,0,2.3,0.3,3,0.9c0.7,0.6,1.1,1.5,1.1,2.6l0,6.7H275.5z M274.4,17.3
		c0.6-0.4,0.9-0.9,1.1-1.6v-1h-3c-0.8,0-1.4,0.1-1.8,0.4c-0.4,0.2-0.6,0.6-0.6,1.2c0,0.5,0.2,1,0.6,1.3c0.4,0.3,0.9,0.5,1.6,0.5
		C273.1,17.9,273.8,17.7,274.4,17.3z"/>
	<path class="st3" d="M31.1,30.2H33v11.9h5.9v1.7h-7.8V30.2z"/>
	<path class="st3" d="M41.2,29.4H43v14.4h-1.8V29.4z"/>
	<path class="st3" d="M54.4,34.9c0.8,0.9,1.2,2.2,1.2,3.9c0,0.3,0,0.5,0,0.6h-8.1c0.1,0.9,0.5,1.6,1.2,2.2c0.6,0.5,1.4,0.8,2.3,0.8
		c0.6,0,1.2-0.1,1.7-0.3s1-0.5,1.4-0.9l1,1c-0.5,0.5-1.1,1-1.8,1.3c-0.7,0.3-1.5,0.4-2.4,0.4c-1,0-1.9-0.2-2.7-0.6
		c-0.8-0.4-1.4-1-1.8-1.8c-0.4-0.8-0.6-1.7-0.6-2.7c0-1,0.2-1.9,0.6-2.7s1-1.4,1.8-1.8s1.7-0.7,2.7-0.7
		C52.4,33.5,53.6,33.9,54.4,34.9z M54,38c-0.1-0.9-0.4-1.7-0.9-2.2c-0.6-0.5-1.3-0.8-2.2-0.8c-0.9,0-1.7,0.3-2.3,0.8
		c-0.6,0.5-1,1.3-1.1,2.2H54z"/>
	<path class="st3" d="M67.1,33.5v9.2c0,1-0.2,1.8-0.6,2.6c-0.4,0.7-1,1.3-1.8,1.7c-0.8,0.4-1.7,0.6-2.8,0.6c-1.5,0-2.9-0.5-4.2-1.4
		l0.8-1.3c0.5,0.4,1,0.7,1.6,0.9c0.5,0.2,1.1,0.3,1.8,0.3c1.1,0,1.9-0.3,2.5-0.9c0.6-0.6,1-1.4,1-2.4v-1.4c-0.4,0.6-0.9,1.1-1.5,1.4
		c-0.6,0.3-1.3,0.5-2.1,0.5c-0.9,0-1.7-0.2-2.4-0.6s-1.2-1-1.6-1.8c-0.4-0.7-0.6-1.6-0.6-2.6c0-1,0.2-1.8,0.6-2.5
		c0.4-0.7,0.9-1.3,1.6-1.7s1.5-0.6,2.4-0.6c0.8,0,1.5,0.2,2.1,0.5c0.6,0.3,1.1,0.8,1.5,1.4v-1.9H67.1z M63.7,41.4
		c0.5-0.3,0.9-0.7,1.2-1.2s0.4-1.1,0.4-1.8c0-0.7-0.1-1.3-0.4-1.8s-0.7-0.9-1.2-1.2c-0.5-0.3-1.1-0.4-1.7-0.4
		c-0.6,0-1.2,0.1-1.7,0.4c-0.5,0.3-0.9,0.7-1.2,1.2c-0.3,0.5-0.4,1.1-0.4,1.8c0,1,0.3,1.8,0.9,2.5c0.6,0.6,1.4,1,2.4,1
		C62.7,41.9,63.2,41.7,63.7,41.4z"/>
	<path class="st3" d="M78.1,34.9c0.8,0.9,1.2,2.2,1.2,3.9c0,0.3,0,0.5,0,0.6h-8.1c0.1,0.9,0.5,1.6,1.2,2.2c0.6,0.5,1.4,0.8,2.3,0.8
		c0.6,0,1.2-0.1,1.7-0.3s1-0.5,1.4-0.9l1,1c-0.5,0.5-1.1,1-1.8,1.3c-0.7,0.3-1.5,0.4-2.4,0.4c-1,0-1.9-0.2-2.7-0.6
		c-0.8-0.4-1.4-1-1.8-1.8c-0.4-0.8-0.6-1.7-0.6-2.7c0-1,0.2-1.9,0.6-2.7s1-1.4,1.8-1.8s1.7-0.7,2.7-0.7
		C76.1,33.5,77.3,33.9,78.1,34.9z M77.7,38c-0.1-0.9-0.4-1.7-0.9-2.2c-0.6-0.5-1.3-0.8-2.2-0.8c-0.9,0-1.7,0.3-2.3,0.8
		c-0.6,0.5-1,1.3-1.1,2.2H77.7z"/>
	<path class="st3" d="M90.4,34.5c0.7,0.7,1,1.7,1,2.9v6.3h-1.8v-5.9c0-0.9-0.2-1.5-0.7-2c-0.5-0.5-1.2-0.7-2-0.7
		c-0.9,0-1.7,0.3-2.2,0.9c-0.6,0.6-0.9,1.3-1,2.2v5.5h-1.8V33.5h1.8v2.2c0.7-1.5,2-2.2,3.9-2.2C88.7,33.5,89.7,33.8,90.4,34.5z"/>
	<path class="st3" d="M105.9,43.8v-1.4c-0.8,1-2,1.5-3.6,1.5c-0.7,0-1.3-0.1-1.9-0.4c-0.5-0.3-1-0.6-1.2-1.1c-0.3-0.5-0.4-1-0.4-1.6
		c0-0.9,0.3-1.6,1-2.2c0.7-0.5,1.6-0.8,2.8-0.8h3.3v-0.5c0-0.7-0.2-1.3-0.7-1.7c-0.4-0.4-1.1-0.6-1.9-0.6c-1,0-2.1,0.4-3.2,1.1
		l-0.8-1.2c0.7-0.5,1.4-0.8,2-1c0.6-0.2,1.4-0.3,2.2-0.3c1.3,0,2.3,0.3,3,0.9s1.1,1.5,1.1,2.6l0,6.7H105.9z M104.9,41.8
		c0.6-0.4,0.9-0.9,1.1-1.6v-1h-3c-0.8,0-1.4,0.1-1.8,0.4c-0.4,0.2-0.6,0.6-0.6,1.2c0,0.5,0.2,1,0.6,1.3c0.4,0.3,0.9,0.5,1.6,0.5
		C103.6,42.4,104.3,42.2,104.9,41.8z"/>
	<path class="st3" d="M115.2,35.1c-0.7,0-1.3,0.1-1.8,0.4s-0.9,0.7-1.2,1.3c-0.3,0.5-0.4,1.2-0.4,1.9c0,0.7,0.1,1.3,0.4,1.9
		c0.3,0.5,0.7,1,1.2,1.3c0.5,0.3,1.1,0.5,1.8,0.5s1.3-0.1,1.8-0.3c0.5-0.2,1-0.5,1.3-0.9l1,1c-0.5,0.6-1.1,1-1.8,1.3
		s-1.5,0.5-2.4,0.5c-1,0-1.9-0.2-2.7-0.7c-0.8-0.4-1.4-1-1.8-1.8c-0.4-0.8-0.6-1.7-0.6-2.7c0-1,0.2-1.9,0.6-2.7
		c0.4-0.8,1-1.4,1.8-1.8c0.8-0.4,1.7-0.7,2.7-0.7c0.9,0,1.6,0.1,2.3,0.4c0.7,0.3,1.3,0.6,1.7,1.2l-1,1.2
		C117.3,35.5,116.3,35.1,115.2,35.1z"/>
	<path class="st3" d="M127.3,43.1c-0.8,0.5-1.6,0.8-2.4,0.8c-0.8,0-1.5-0.2-2-0.7c-0.5-0.5-0.8-1.2-0.8-2.2v-5.7h-1.5v-1.4h1.5v-2.8
		h1.8v2.8h3.1v1.4H124v5.4c0,0.6,0.1,1,0.3,1.2c0.2,0.2,0.5,0.4,0.9,0.4c0.5,0,1-0.2,1.6-0.5L127.3,43.1z"/>
	<path class="st3" d="M131.2,29.8c0.2,0.2,0.3,0.5,0.3,0.8c0,0.3-0.1,0.6-0.3,0.8c-0.2,0.2-0.5,0.3-0.8,0.3s-0.6-0.1-0.8-0.3
		c-0.2-0.2-0.3-0.5-0.3-0.8c0-0.3,0.1-0.6,0.3-0.8c0.2-0.2,0.5-0.3,0.8-0.3S131,29.5,131.2,29.8z M129.5,33.5h1.8v10.3h-1.8V33.5z"
		/>
	<path class="st3" d="M133.1,33.5h1.9l3.1,8.5l3.1-8.5h1.8l-4,10.3h-1.9L133.1,33.5z"/>
	<path class="st3" d="M151.4,34.1c0.8,0.4,1.4,1.1,1.9,1.8c0.4,0.8,0.7,1.7,0.7,2.7c0,1-0.2,1.9-0.7,2.7c-0.4,0.8-1.1,1.4-1.9,1.8
		c-0.8,0.4-1.7,0.7-2.7,0.7c-1,0-1.9-0.2-2.7-0.7c-0.8-0.4-1.4-1-1.9-1.8c-0.4-0.8-0.7-1.7-0.7-2.7c0-1,0.2-1.9,0.7-2.7
		c0.4-0.8,1.1-1.4,1.9-1.8c0.8-0.4,1.7-0.7,2.7-0.7C149.7,33.5,150.6,33.7,151.4,34.1z M146.9,35.5c-0.5,0.3-0.9,0.7-1.2,1.3
		c-0.3,0.5-0.4,1.2-0.4,1.9c0,0.7,0.1,1.3,0.4,1.9c0.3,0.6,0.7,1,1.2,1.3s1.1,0.5,1.8,0.5c0.7,0,1.2-0.2,1.8-0.5s0.9-0.7,1.2-1.3
		c0.3-0.6,0.4-1.2,0.4-1.9c0-0.7-0.1-1.3-0.4-1.9c-0.3-0.5-0.7-1-1.2-1.3s-1.1-0.5-1.8-0.5C148,35,147.4,35.2,146.9,35.5z"/>
	<path class="st3" d="M160.6,35.2c-0.5-0.2-1-0.2-1.5-0.2c-0.5,0-1,0.1-1.3,0.3c-0.3,0.2-0.5,0.5-0.5,0.9s0.2,0.7,0.6,0.9
		c0.4,0.2,0.9,0.4,1.7,0.6c0.7,0.2,1.3,0.4,1.7,0.6c0.5,0.2,0.8,0.5,1.2,0.9c0.3,0.4,0.5,0.9,0.5,1.6c0,1-0.4,1.7-1.1,2.2
		c-0.7,0.5-1.6,0.8-2.7,0.8c-0.8,0-1.5-0.1-2.2-0.4s-1.3-0.6-1.8-1l0.7-1.3c0.4,0.4,1,0.7,1.6,0.9c0.6,0.2,1.2,0.3,1.8,0.3
		c0.6,0,1.1-0.1,1.4-0.3c0.4-0.2,0.5-0.6,0.5-1c0-0.5-0.2-0.8-0.6-1c-0.4-0.2-1-0.5-1.7-0.7c-0.7-0.2-1.2-0.4-1.7-0.6
		s-0.8-0.5-1.1-0.9s-0.5-0.9-0.5-1.5c0-1,0.3-1.7,1-2.2c0.7-0.5,1.6-0.7,2.6-0.7c0.6,0,1.2,0.1,1.8,0.3c0.6,0.2,1.1,0.4,1.6,0.7
		l-0.7,1.4C161.6,35.5,161.1,35.3,160.6,35.2z"/>
	<path class="st3" d="M176.7,43.8v-1.4c-0.8,1-2,1.5-3.6,1.5c-0.7,0-1.3-0.1-1.9-0.4c-0.5-0.3-1-0.6-1.2-1.1c-0.3-0.5-0.4-1-0.4-1.6
		c0-0.9,0.3-1.6,1-2.2c0.7-0.5,1.6-0.8,2.8-0.8h3.3v-0.5c0-0.7-0.2-1.3-0.7-1.7c-0.4-0.4-1.1-0.6-1.9-0.6c-1,0-2.1,0.4-3.2,1.1
		l-0.8-1.2c0.7-0.5,1.4-0.8,2-1c0.6-0.2,1.4-0.3,2.2-0.3c1.3,0,2.3,0.3,3,0.9c0.7,0.6,1.1,1.5,1.1,2.6l0,6.7H176.7z M175.6,41.8
		c0.6-0.4,0.9-0.9,1.1-1.6v-1h-3c-0.8,0-1.4,0.1-1.8,0.4c-0.4,0.2-0.6,0.6-0.6,1.2c0,0.5,0.2,1,0.6,1.3c0.4,0.3,0.9,0.5,1.6,0.5
		C174.3,42.4,175,42.2,175.6,41.8z"/>
	<path class="st3" d="M181.8,29.4h1.8v14.4h-1.8V29.4z"/>
	<path class="st3" d="M194,29.8c0.2,0.2,0.3,0.5,0.3,0.8c0,0.3-0.1,0.6-0.3,0.8c-0.2,0.2-0.5,0.3-0.8,0.3s-0.6-0.1-0.8-0.3
		c-0.2-0.2-0.3-0.5-0.3-0.8c0-0.3,0.1-0.6,0.3-0.8s0.5-0.3,0.8-0.3S193.8,29.5,194,29.8z M192.3,33.5h1.8v10.3h-1.8V33.5z"/>
	<path class="st3" d="M206.1,34.5c0.7,0.7,1,1.7,1,2.9v6.3h-1.8v-5.9c0-0.9-0.2-1.5-0.7-2c-0.5-0.5-1.2-0.7-2-0.7
		c-0.9,0-1.7,0.3-2.2,0.9c-0.6,0.6-0.9,1.3-1,2.2v5.5h-1.8V33.5h1.8v2.2c0.7-1.5,2-2.2,3.9-2.2C204.5,33.5,205.4,33.8,206.1,34.5z"
		/>
	<path class="st3" d="M215.9,43.1c-0.8,0.5-1.6,0.8-2.4,0.8s-1.5-0.2-2-0.7s-0.8-1.2-0.8-2.2v-5.7h-1.5v-1.4h1.5v-2.8h1.8v2.8h3.1
		v1.4h-3.1v5.4c0,0.6,0.1,1,0.3,1.2c0.2,0.2,0.5,0.4,0.9,0.4c0.5,0,1-0.2,1.6-0.5L215.9,43.1z"/>
	<path class="st3" d="M225.6,34.9c0.8,0.9,1.2,2.2,1.2,3.9c0,0.3,0,0.5,0,0.6h-8.1c0.1,0.9,0.5,1.6,1.2,2.2c0.6,0.5,1.4,0.8,2.3,0.8
		c0.6,0,1.2-0.1,1.7-0.3s1-0.5,1.4-0.9l1,1c-0.5,0.5-1.1,1-1.8,1.3s-1.5,0.4-2.4,0.4c-1,0-1.9-0.2-2.7-0.6c-0.8-0.4-1.4-1-1.8-1.8
		c-0.4-0.8-0.6-1.7-0.6-2.7c0-1,0.2-1.9,0.6-2.7c0.4-0.8,1-1.4,1.8-1.8s1.7-0.7,2.7-0.7C223.6,33.5,224.8,33.9,225.6,34.9z
		 M225.2,38c-0.1-0.9-0.4-1.7-0.9-2.2c-0.6-0.5-1.3-0.8-2.2-0.8c-0.9,0-1.7,0.3-2.3,0.8c-0.6,0.5-1,1.3-1.1,2.2H225.2z"/>
	<path class="st3" d="M233.5,35.2c-0.5-0.2-1-0.2-1.5-0.2c-0.5,0-1,0.1-1.3,0.3c-0.3,0.2-0.5,0.5-0.5,0.9s0.2,0.7,0.6,0.9
		c0.4,0.2,0.9,0.4,1.7,0.6c0.7,0.2,1.3,0.4,1.7,0.6c0.5,0.2,0.8,0.5,1.2,0.9c0.3,0.4,0.5,0.9,0.5,1.6c0,1-0.4,1.7-1.1,2.2
		c-0.7,0.5-1.6,0.8-2.7,0.8c-0.8,0-1.5-0.1-2.2-0.4c-0.7-0.2-1.3-0.6-1.8-1l0.7-1.3c0.4,0.4,1,0.7,1.6,0.9c0.6,0.2,1.2,0.3,1.8,0.3
		c0.6,0,1.1-0.1,1.4-0.3c0.4-0.2,0.5-0.6,0.5-1c0-0.5-0.2-0.8-0.6-1c-0.4-0.2-1-0.5-1.7-0.7c-0.7-0.2-1.2-0.4-1.7-0.6
		c-0.4-0.2-0.8-0.5-1.1-0.9s-0.5-0.9-0.5-1.5c0-1,0.3-1.7,1-2.2c0.7-0.5,1.6-0.7,2.6-0.7c0.6,0,1.2,0.1,1.8,0.3
		c0.6,0.2,1.1,0.4,1.6,0.7l-0.7,1.4C234.5,35.5,234,35.3,233.5,35.2z"/>
	<path class="st3" d="M243.8,43.1c-0.8,0.5-1.6,0.8-2.4,0.8c-0.8,0-1.5-0.2-2-0.7c-0.5-0.5-0.8-1.2-0.8-2.2v-5.7h-1.5v-1.4h1.5v-2.8
		h1.8v2.8h3.1v1.4h-3.1v5.4c0,0.6,0.1,1,0.3,1.2c0.2,0.2,0.5,0.4,0.9,0.4c0.5,0,1-0.2,1.6-0.5L243.8,43.1z"/>
	<path class="st3" d="M247.6,29.8c0.2,0.2,0.3,0.5,0.3,0.8c0,0.3-0.1,0.6-0.3,0.8c-0.2,0.2-0.5,0.3-0.8,0.3s-0.6-0.1-0.8-0.3
		c-0.2-0.2-0.3-0.5-0.3-0.8c0-0.3,0.1-0.6,0.3-0.8s0.5-0.3,0.8-0.3S247.4,29.5,247.6,29.8z M245.9,33.5h1.8v10.3h-1.8V33.5z"/>
	<path class="st3" d="M259.8,34.5c0.7,0.7,1,1.7,1,2.9v6.3H259v-5.9c0-0.9-0.2-1.5-0.7-2c-0.5-0.5-1.2-0.7-2-0.7
		c-0.9,0-1.7,0.3-2.2,0.9c-0.6,0.6-0.9,1.3-1,2.2v5.5h-1.8V33.5h1.8v2.2c0.7-1.5,2-2.2,3.9-2.2C258.2,33.5,259.1,33.8,259.8,34.5z"
		/>
	<path class="st3" d="M271,34.1c0.8,0.4,1.4,1.1,1.9,1.8c0.4,0.8,0.7,1.7,0.7,2.7c0,1-0.2,1.9-0.7,2.7c-0.4,0.8-1.1,1.4-1.9,1.8
		c-0.8,0.4-1.7,0.7-2.7,0.7c-1,0-1.9-0.2-2.7-0.7c-0.8-0.4-1.4-1-1.9-1.8c-0.4-0.8-0.7-1.7-0.7-2.7c0-1,0.2-1.9,0.7-2.7
		c0.4-0.8,1.1-1.4,1.9-1.8c0.8-0.4,1.7-0.7,2.7-0.7C269.3,33.5,270.2,33.7,271,34.1z M266.5,35.5c-0.5,0.3-0.9,0.7-1.2,1.3
		c-0.3,0.5-0.4,1.2-0.4,1.9c0,0.7,0.1,1.3,0.4,1.9c0.3,0.6,0.7,1,1.2,1.3s1.1,0.5,1.8,0.5c0.7,0,1.2-0.2,1.8-0.5s0.9-0.7,1.2-1.3
		c0.3-0.6,0.4-1.2,0.4-1.9c0-0.7-0.1-1.3-0.4-1.9c-0.3-0.5-0.7-1-1.2-1.3S269,35,268.3,35C267.6,35,267,35.2,266.5,35.5z"/>
	<path class="st3" d="M37.1,56.6c-0.7-0.2-1.3-0.3-1.9-0.3c-0.8,0-1.4,0.2-1.9,0.5c-0.5,0.3-0.7,0.7-0.7,1.2c0,0.5,0.1,0.9,0.4,1.2
		c0.3,0.3,0.6,0.5,1,0.7c0.4,0.2,1,0.4,1.7,0.6c0.9,0.3,1.7,0.6,2.2,0.8s1.1,0.6,1.5,1.2c0.4,0.5,0.6,1.2,0.6,2c0,0.8-0.2,1.5-0.6,2
		c-0.4,0.6-1,1-1.8,1.3c-0.8,0.3-1.6,0.5-2.6,0.5c-1,0-2-0.2-2.9-0.6s-1.8-0.9-2.4-1.6l0.8-1.6c0.6,0.6,1.4,1.1,2.2,1.5
		c0.8,0.3,1.6,0.5,2.4,0.5c0.9,0,1.6-0.2,2.1-0.5c0.5-0.4,0.8-0.8,0.8-1.4c0-0.5-0.1-0.9-0.4-1.2c-0.3-0.3-0.6-0.6-1.1-0.7
		c-0.4-0.2-1-0.4-1.8-0.6c-0.9-0.3-1.6-0.5-2.2-0.8c-0.6-0.3-1.1-0.6-1.4-1.1c-0.4-0.5-0.6-1.2-0.6-2c0-0.7,0.2-1.4,0.6-1.9
		c0.4-0.6,1-1,1.7-1.3c0.7-0.3,1.6-0.4,2.5-0.4c0.8,0,1.6,0.1,2.4,0.4c0.8,0.2,1.5,0.6,2.1,1l-0.8,1.7
		C38.4,57.1,37.8,56.8,37.1,56.6z"/>
	<path class="st3" d="M50.6,59.4c0.8,0.9,1.2,2.2,1.2,3.9c0,0.3,0,0.5,0,0.6h-8.1c0.1,0.9,0.5,1.6,1.2,2.2c0.6,0.5,1.4,0.8,2.3,0.8
		c0.6,0,1.2-0.1,1.7-0.3s1-0.5,1.4-0.9l1,1c-0.5,0.5-1.1,1-1.8,1.3c-0.7,0.3-1.5,0.4-2.4,0.4c-1,0-1.9-0.2-2.7-0.6
		c-0.8-0.4-1.4-1-1.8-1.8c-0.4-0.8-0.6-1.7-0.6-2.7c0-1,0.2-1.9,0.6-2.7c0.4-0.8,1-1.4,1.8-1.8C45.1,58.2,46,58,47,58
		C48.6,58,49.8,58.4,50.6,59.4z M50.2,62.5c-0.1-0.9-0.4-1.7-0.9-2.2c-0.6-0.5-1.3-0.8-2.2-0.8c-0.9,0-1.7,0.3-2.3,0.8
		s-1,1.3-1.1,2.2H50.2z"/>
	<path class="st3" d="M75.4,59c0.7,0.7,1,1.7,1,2.9v6.3h-1.8v-5.9c0-0.9-0.2-1.5-0.7-2c-0.5-0.5-1.1-0.7-1.9-0.7c-1,0-1.7,0.4-2.3,1
		c-0.6,0.7-0.8,1.5-0.8,2.5v5.1H67v-5.9c0-0.9-0.2-1.5-0.7-2s-1.1-0.7-2-0.7c-1,0-1.7,0.4-2.3,1c-0.6,0.7-0.8,1.5-0.8,2.5v5.1h-1.8
		V58h1.8v2.2c0.7-1.4,1.9-2.2,3.8-2.2c0.9,0,1.7,0.2,2.4,0.7c0.6,0.5,1,1.1,1.3,1.9c0.6-1.7,2-2.6,4-2.6C73.8,58,74.7,58.3,75.4,59z
		"/>
	<path class="st3" d="M88.7,58v10.3h-1.8v-2.2c-0.7,1.5-1.9,2.2-3.8,2.2c-1.2,0-2.1-0.4-2.8-1.1c-0.7-0.7-1-1.7-1-2.9V58h1.8v5.9
		c0,0.9,0.2,1.5,0.7,2s1.1,0.7,1.9,0.7c1,0,1.7-0.4,2.3-1c0.6-0.7,0.8-1.5,0.8-2.5v-5H88.7z"/>
	<path class="st3" d="M92.3,53.9h1.8v14.4h-1.8V53.9z"/>
	<path class="st3" d="M103.2,67.6c-0.8,0.5-1.6,0.8-2.4,0.8c-0.8,0-1.5-0.2-2-0.7c-0.5-0.5-0.8-1.2-0.8-2.2v-5.7h-1.5v-1.4h1.5v-2.8
		h1.8v2.8h3.1v1.4h-3.1v5.4c0,0.6,0.1,1,0.3,1.2c0.2,0.2,0.5,0.4,0.9,0.4c0.5,0,1-0.2,1.6-0.5L103.2,67.6z"/>
	<path class="st3" d="M107.1,54.3c0.2,0.2,0.3,0.5,0.3,0.8s-0.1,0.6-0.3,0.8c-0.2,0.2-0.5,0.3-0.8,0.3s-0.6-0.1-0.8-0.3
		c-0.2-0.2-0.3-0.5-0.3-0.8s0.1-0.6,0.3-0.8c0.2-0.2,0.5-0.3,0.8-0.3S106.9,54,107.1,54.3z M105.4,58h1.8v10.3h-1.8V58z"/>
	<path class="st3" d="M119,58.6c0.7,0.4,1.3,1.1,1.7,1.8c0.4,0.8,0.6,1.7,0.6,2.7c0,1-0.2,1.9-0.6,2.7c-0.4,0.8-1,1.4-1.7,1.8
		c-0.7,0.4-1.6,0.6-2.5,0.6c-0.9,0-1.6-0.2-2.3-0.5c-0.7-0.4-1.2-0.9-1.6-1.6V72h-1.8V58h1.8v2c0.4-0.7,0.9-1.2,1.5-1.6
		c0.7-0.4,1.4-0.5,2.3-0.5C117.4,58,118.3,58.2,119,58.6z M117.9,66.3c0.5-0.3,0.9-0.7,1.2-1.3c0.3-0.6,0.4-1.2,0.4-1.9
		c0-0.7-0.1-1.3-0.4-1.9s-0.7-1-1.2-1.3c-0.5-0.3-1.1-0.5-1.8-0.5s-1.3,0.2-1.8,0.5c-0.5,0.3-0.9,0.7-1.2,1.3s-0.4,1.2-0.4,1.9
		c0,0.7,0.1,1.3,0.4,1.9c0.3,0.5,0.7,1,1.2,1.3s1.1,0.5,1.8,0.5S117.3,66.6,117.9,66.3z"/>
	<path class="st3" d="M124,53.9h1.8v14.4H124V53.9z"/>
	<path class="st3" d="M131.1,54.3c0.2,0.2,0.3,0.5,0.3,0.8s-0.1,0.6-0.3,0.8c-0.2,0.2-0.5,0.3-0.8,0.3s-0.6-0.1-0.8-0.3
		c-0.2-0.2-0.3-0.5-0.3-0.8s0.1-0.6,0.3-0.8c0.2-0.2,0.5-0.3,0.8-0.3S130.9,54,131.1,54.3z M129.4,58h1.8v10.3h-1.8V58z"/>
	<path class="st3" d="M144.3,58v14h-1.8v-5.8c-0.4,0.7-0.9,1.2-1.6,1.6c-0.7,0.4-1.4,0.6-2.3,0.6c-1,0-1.8-0.2-2.6-0.7
		c-0.7-0.4-1.3-1.1-1.7-1.9c-0.4-0.8-0.6-1.7-0.6-2.7c0-1,0.2-1.9,0.6-2.7c0.4-0.8,1-1.4,1.7-1.8s1.6-0.7,2.5-0.7
		c0.9,0,1.6,0.2,2.3,0.5c0.7,0.4,1.2,0.9,1.6,1.6v-2H144.3z M140.8,66.4c0.5-0.3,0.9-0.7,1.2-1.3c0.3-0.6,0.4-1.2,0.4-1.9
		c0-0.7-0.1-1.3-0.4-1.9c-0.3-0.6-0.7-1-1.2-1.3c-0.5-0.3-1.1-0.5-1.8-0.5s-1.3,0.2-1.8,0.5c-0.5,0.3-0.9,0.8-1.2,1.3
		c-0.3,0.6-0.4,1.2-0.4,1.9c0,0.7,0.1,1.3,0.4,1.9c0.3,0.6,0.7,1,1.2,1.3c0.5,0.3,1.1,0.5,1.8,0.5S140.3,66.7,140.8,66.4z"/>
	<path class="st3" d="M157,58v10.3h-1.8v-2.2c-0.7,1.5-1.9,2.2-3.8,2.2c-1.2,0-2.1-0.4-2.8-1.1c-0.7-0.7-1-1.7-1-2.9V58h1.8v5.9
		c0,0.9,0.2,1.5,0.7,2s1.1,0.7,1.9,0.7c1,0,1.7-0.4,2.3-1c0.6-0.7,0.8-1.5,0.8-2.5v-5H157z"/>
	<path class="st3" d="M168.2,59.4c0.8,0.9,1.2,2.2,1.2,3.9c0,0.3,0,0.5,0,0.6h-8.1c0.1,0.9,0.5,1.6,1.2,2.2c0.6,0.5,1.4,0.8,2.3,0.8
		c0.6,0,1.2-0.1,1.7-0.3s1-0.5,1.4-0.9l1,1c-0.5,0.5-1.1,1-1.8,1.3c-0.7,0.3-1.5,0.4-2.4,0.4c-1,0-1.9-0.2-2.7-0.6
		c-0.8-0.4-1.4-1-1.8-1.8c-0.4-0.8-0.6-1.7-0.6-2.7c0-1,0.2-1.9,0.6-2.7c0.4-0.8,1-1.4,1.8-1.8c0.8-0.4,1.7-0.7,2.7-0.7
		C166.2,58,167.4,58.4,168.2,59.4z M167.8,62.5c-0.1-0.9-0.4-1.7-0.9-2.2c-0.6-0.5-1.3-0.8-2.2-0.8c-0.9,0-1.7,0.3-2.3,0.8
		s-1,1.3-1.1,2.2H167.8z"/>
	<path class="st3" d="M180.4,59c0.7,0.7,1,1.7,1,2.9v6.3h-1.8v-5.9c0-0.9-0.2-1.5-0.7-2c-0.5-0.5-1.2-0.7-2-0.7
		c-0.9,0-1.7,0.3-2.2,0.9s-0.9,1.3-1,2.2v5.5h-1.8V58h1.8v2.2c0.7-1.5,2-2.2,3.9-2.2C178.8,58,179.7,58.3,180.4,59z"/>
	<path class="st3" d="M198,58.6c0.7,0.4,1.3,1.1,1.7,1.8c0.4,0.8,0.6,1.7,0.6,2.7c0,1-0.2,1.9-0.6,2.7c-0.4,0.8-1,1.4-1.7,1.8
		c-0.7,0.4-1.6,0.6-2.5,0.6c-0.9,0-1.6-0.2-2.3-0.5c-0.7-0.4-1.2-0.9-1.6-1.6V72h-1.8V58h1.8v2c0.4-0.7,0.9-1.2,1.5-1.6
		c0.7-0.4,1.4-0.5,2.3-0.5C196.4,58,197.2,58.2,198,58.6z M196.9,66.3c0.5-0.3,0.9-0.7,1.2-1.3s0.4-1.2,0.4-1.9
		c0-0.7-0.1-1.3-0.4-1.9c-0.3-0.6-0.7-1-1.2-1.3c-0.5-0.3-1.1-0.5-1.8-0.5s-1.2,0.2-1.8,0.5c-0.5,0.3-0.9,0.7-1.2,1.3
		c-0.3,0.6-0.4,1.2-0.4,1.9c0,0.7,0.1,1.3,0.4,1.9c0.3,0.5,0.7,1,1.2,1.3s1.1,0.5,1.8,0.5S196.3,66.6,196.9,66.3z"/>
	<path class="st3" d="M209.1,68.3v-1.4c-0.8,1-2,1.5-3.6,1.5c-0.7,0-1.3-0.1-1.9-0.4s-1-0.6-1.2-1.1c-0.3-0.5-0.4-1-0.4-1.6
		c0-0.9,0.3-1.6,1-2.2s1.6-0.8,2.8-0.8h3.3v-0.5c0-0.7-0.2-1.3-0.7-1.7c-0.4-0.4-1.1-0.6-1.9-0.6c-1,0-2.1,0.4-3.2,1.1l-0.8-1.2
		c0.7-0.5,1.4-0.8,2-1c0.6-0.2,1.4-0.3,2.2-0.3c1.3,0,2.3,0.3,3,0.9c0.7,0.6,1.1,1.5,1.1,2.6l0,6.7H209.1z M208.1,66.2
		c0.6-0.4,0.9-0.9,1.1-1.6v-1h-3c-0.8,0-1.4,0.1-1.8,0.4c-0.4,0.2-0.6,0.6-0.6,1.2s0.2,1,0.6,1.3c0.4,0.3,0.9,0.5,1.6,0.5
		C206.8,66.9,207.5,66.7,208.1,66.2z"/>
	<path class="st3" d="M217.4,58.6c0.6-0.4,1.4-0.6,2.2-0.6v1.7c-1,0-1.9,0.2-2.5,0.8c-0.6,0.6-1,1.4-1.1,2.3v5.4h-1.8V58h1.8v2.2
		C216.3,59.5,216.8,58.9,217.4,58.6z"/>
	<path class="st3" d="M227.4,68.3v-1.4c-0.8,1-2,1.5-3.6,1.5c-0.7,0-1.3-0.1-1.9-0.4s-1-0.6-1.2-1.1c-0.3-0.5-0.4-1-0.4-1.6
		c0-0.9,0.3-1.6,1-2.2s1.6-0.8,2.8-0.8h3.3v-0.5c0-0.7-0.2-1.3-0.7-1.7c-0.4-0.4-1.1-0.6-1.9-0.6c-1,0-2.1,0.4-3.2,1.1l-0.8-1.2
		c0.7-0.5,1.4-0.8,2-1c0.6-0.2,1.4-0.3,2.2-0.3c1.3,0,2.3,0.3,3,0.9c0.7,0.6,1.1,1.5,1.1,2.6l0,6.7H227.4z M226.3,66.2
		c0.6-0.4,0.9-0.9,1.1-1.6v-1h-3c-0.8,0-1.4,0.1-1.8,0.4c-0.4,0.2-0.6,0.6-0.6,1.2s0.2,1,0.6,1.3c0.4,0.3,0.9,0.5,1.6,0.5
		C225,66.9,225.7,66.7,226.3,66.2z"/>
	<path class="st3" d="M240.1,55.8c-0.3,0.3-0.5,0.7-0.5,1.2v1.3h2.8v1.4h-2.8v8.5h-1.8v-8.5h-1.3v-1.4h1.3v-1.1
		c0-0.7,0.2-1.4,0.5-1.9c0.3-0.5,0.7-0.9,1.3-1.2c0.5-0.3,1.1-0.4,1.7-0.4c0.6,0,1.2,0.2,1.8,0.5l-0.4,1.5c-0.5-0.2-0.9-0.3-1.3-0.3
		C240.8,55.4,240.4,55.5,240.1,55.8z"/>
	<path class="st3" d="M250.9,58.6c0.8,0.4,1.4,1,1.9,1.8c0.4,0.8,0.7,1.7,0.7,2.7c0,1-0.2,1.9-0.7,2.7c-0.4,0.8-1.1,1.4-1.9,1.8
		c-0.8,0.4-1.7,0.7-2.7,0.7c-1,0-1.9-0.2-2.7-0.7c-0.8-0.4-1.4-1-1.9-1.8c-0.4-0.8-0.7-1.7-0.7-2.7c0-1,0.2-1.9,0.7-2.7
		c0.4-0.8,1.1-1.4,1.9-1.8c0.8-0.4,1.7-0.7,2.7-0.7C249.2,58,250.1,58.2,250.9,58.6z M246.4,60c-0.5,0.3-0.9,0.7-1.2,1.3
		c-0.3,0.5-0.4,1.2-0.4,1.9c0,0.7,0.1,1.3,0.4,1.9c0.3,0.6,0.7,1,1.2,1.3s1.1,0.5,1.8,0.5c0.7,0,1.2-0.2,1.8-0.5s0.9-0.7,1.2-1.3
		c0.3-0.6,0.4-1.2,0.4-1.9c0-0.7-0.1-1.3-0.4-1.9c-0.3-0.5-0.7-1-1.2-1.3c-0.5-0.3-1.1-0.5-1.8-0.5C247.5,59.5,246.9,59.7,246.4,60z
		"/>
	<path class="st3" d="M259.2,58.6c0.6-0.4,1.4-0.6,2.2-0.6v1.7c-1,0-1.9,0.2-2.5,0.8c-0.6,0.6-1,1.4-1.1,2.3v5.4h-1.8V58h1.8v2.2
		C258.1,59.5,258.5,58.9,259.2,58.6z"/>
	<path class="st3" d="M268.8,67.6c-0.8,0.5-1.6,0.8-2.4,0.8s-1.5-0.2-2-0.7c-0.5-0.5-0.8-1.2-0.8-2.2v-5.7h-1.5v-1.4h1.5v-2.8h1.8
		v2.8h3.1v1.4h-3.1v5.4c0,0.6,0.1,1,0.3,1.2c0.2,0.2,0.5,0.4,0.9,0.4c0.5,0,1-0.2,1.6-0.5L268.8,67.6z"/>
	<path class="st3" d="M277.3,68.3v-1.4c-0.8,1-2,1.5-3.6,1.5c-0.7,0-1.3-0.1-1.9-0.4s-1-0.6-1.2-1.1c-0.3-0.5-0.4-1-0.4-1.6
		c0-0.9,0.3-1.6,1-2.2s1.6-0.8,2.8-0.8h3.3v-0.5c0-0.7-0.2-1.3-0.7-1.7c-0.4-0.4-1.1-0.6-1.9-0.6c-1,0-2.1,0.4-3.2,1.1l-0.8-1.2
		c0.7-0.5,1.4-0.8,2-1c0.6-0.2,1.4-0.3,2.2-0.3c1.3,0,2.3,0.3,3,0.9c0.7,0.6,1.1,1.5,1.1,2.6l0,6.7H277.3z M276.2,66.2
		c0.6-0.4,0.9-0.9,1.1-1.6v-1h-3c-0.8,0-1.4,0.1-1.8,0.4c-0.4,0.2-0.6,0.6-0.6,1.2s0.2,1,0.6,1.3c0.4,0.3,0.9,0.5,1.6,0.5
		C274.9,66.9,275.6,66.7,276.2,66.2z"/>
	<path class="st3" d="M282.4,53.9h1.8v14.4h-1.8V53.9z"/>
	<path class="st3" d="M295.5,59.4c0.8,0.9,1.2,2.2,1.2,3.9c0,0.3,0,0.5,0,0.6h-8.1c0.1,0.9,0.5,1.6,1.2,2.2s1.4,0.8,2.3,0.8
		c0.6,0,1.2-0.1,1.7-0.3s1-0.5,1.4-0.9l1,1c-0.5,0.5-1.1,1-1.8,1.3c-0.7,0.3-1.5,0.4-2.4,0.4c-1,0-1.9-0.2-2.7-0.6
		c-0.8-0.4-1.4-1-1.8-1.8c-0.4-0.8-0.6-1.7-0.6-2.7c0-1,0.2-1.9,0.6-2.7c0.4-0.8,1-1.4,1.8-1.8c0.8-0.4,1.7-0.7,2.7-0.7
		C293.5,58,294.7,58.4,295.5,59.4z M295.1,62.5c-0.1-0.9-0.4-1.7-0.9-2.2c-0.6-0.5-1.3-0.8-2.2-0.8c-0.9,0-1.7,0.3-2.3,0.8
		c-0.6,0.5-1,1.3-1.1,2.2H295.1z"/>
	<path class="st3" d="M303.5,59.6c-0.7,0-1.3,0.1-1.8,0.4c-0.5,0.3-0.9,0.7-1.2,1.3c-0.3,0.5-0.4,1.2-0.4,1.9s0.1,1.3,0.4,1.9
		c0.3,0.5,0.7,1,1.2,1.3s1.1,0.5,1.8,0.5s1.3-0.1,1.8-0.3c0.5-0.2,1-0.5,1.3-1l1,1c-0.5,0.6-1.1,1-1.8,1.3c-0.7,0.3-1.5,0.5-2.4,0.5
		c-1,0-1.9-0.2-2.7-0.7c-0.8-0.4-1.4-1-1.8-1.8c-0.4-0.8-0.6-1.7-0.6-2.7c0-1,0.2-1.9,0.6-2.7c0.4-0.8,1-1.4,1.8-1.8
		s1.7-0.7,2.7-0.7c0.9,0,1.6,0.1,2.3,0.4s1.3,0.6,1.7,1.2l-1,1.2C305.6,60,304.6,59.6,303.5,59.6z"/>
	<path class="st3" d="M317.4,59.4c0.8,0.9,1.2,2.2,1.2,3.9c0,0.3,0,0.5,0,0.6h-8.1c0.1,0.9,0.5,1.6,1.2,2.2c0.6,0.5,1.4,0.8,2.3,0.8
		c0.6,0,1.2-0.1,1.7-0.3s1-0.5,1.4-0.9l1,1c-0.5,0.5-1.1,1-1.8,1.3c-0.7,0.3-1.5,0.4-2.4,0.4c-1,0-1.9-0.2-2.7-0.6
		c-0.8-0.4-1.4-1-1.8-1.8c-0.4-0.8-0.6-1.7-0.6-2.7c0-1,0.2-1.9,0.6-2.7c0.4-0.8,1-1.4,1.8-1.8c0.8-0.4,1.7-0.7,2.7-0.7
		C315.4,58,316.6,58.4,317.4,59.4z M317,62.5c-0.1-0.9-0.4-1.7-0.9-2.2c-0.6-0.5-1.3-0.8-2.2-0.8c-0.9,0-1.7,0.3-2.3,0.8
		c-0.6,0.5-1,1.3-1.1,2.2H317z"/>
	<path class="st3" d="M324.3,58.6c0.6-0.4,1.4-0.6,2.2-0.6v1.7c-1,0-1.9,0.2-2.5,0.8c-0.6,0.6-1,1.4-1.1,2.3v5.4h-1.8V58h1.8v2.2
		C323.2,59.5,323.7,58.9,324.3,58.6z"/>
	<path class="st3" d="M31.1,78.4h1.8v14.4h-1.8V78.4z"/>
	<path class="st3" d="M42.8,92.8v-1.4c-0.8,1-2,1.5-3.6,1.5c-0.7,0-1.3-0.1-1.9-0.4c-0.5-0.3-1-0.6-1.2-1.1c-0.3-0.5-0.4-1-0.4-1.6
		c0-0.9,0.3-1.6,1-2.2c0.7-0.5,1.6-0.8,2.8-0.8h3.3v-0.5c0-0.7-0.2-1.3-0.7-1.7c-0.4-0.4-1.1-0.6-1.9-0.6c-1,0-2.1,0.4-3.2,1.1
		l-0.8-1.2c0.7-0.5,1.4-0.8,2-1s1.4-0.3,2.2-0.3c1.3,0,2.3,0.3,3,0.9s1.1,1.5,1.1,2.6l0,6.7H42.8z M41.7,90.7
		c0.6-0.4,0.9-0.9,1.1-1.6v-1h-3c-0.8,0-1.4,0.1-1.8,0.4c-0.4,0.2-0.6,0.6-0.6,1.2c0,0.5,0.2,1,0.6,1.3c0.4,0.3,0.9,0.5,1.6,0.5
		C40.4,91.3,41.1,91.1,41.7,90.7z"/>
	<path class="st3" d="M68.9,83.5c0.7,0.7,1,1.7,1,2.9v6.3H68v-5.9c0-0.9-0.2-1.5-0.7-2c-0.5-0.5-1.1-0.7-1.9-0.7c-1,0-1.7,0.4-2.3,1
		c-0.6,0.7-0.8,1.5-0.8,2.5v5.1h-1.8v-5.9c0-0.9-0.2-1.5-0.7-2s-1.1-0.7-2-0.7c-1,0-1.7,0.4-2.3,1c-0.6,0.7-0.8,1.5-0.8,2.5v5.1
		h-1.8V82.5h1.8v2.2c0.7-1.4,1.9-2.2,3.8-2.2c0.9,0,1.7,0.2,2.4,0.7c0.6,0.5,1,1.1,1.3,1.9c0.6-1.7,2-2.6,4-2.6
		C67.3,82.4,68.2,82.8,68.9,83.5z"/>
	<path class="st3" d="M74.8,78.7c0.2,0.2,0.3,0.5,0.3,0.8c0,0.3-0.1,0.6-0.3,0.8s-0.5,0.3-0.8,0.3s-0.6-0.1-0.8-0.3
		c-0.2-0.2-0.3-0.5-0.3-0.8c0-0.3,0.1-0.6,0.3-0.8c0.2-0.2,0.5-0.3,0.8-0.3S74.6,78.5,74.8,78.7z M73.1,82.5h1.8v10.3h-1.8V82.5z"/>
	<path class="st3" d="M82.7,84.1c-0.7,0-1.3,0.1-1.8,0.4c-0.5,0.3-0.9,0.7-1.2,1.3c-0.3,0.5-0.4,1.2-0.4,1.9c0,0.7,0.1,1.3,0.4,1.9
		c0.3,0.5,0.7,1,1.2,1.3c0.5,0.3,1.1,0.5,1.8,0.5s1.3-0.1,1.8-0.3c0.5-0.2,1-0.5,1.3-0.9l1,1c-0.5,0.6-1.1,1-1.8,1.3
		c-0.7,0.3-1.5,0.5-2.4,0.5c-1,0-1.9-0.2-2.7-0.7s-1.4-1-1.8-1.8s-0.6-1.7-0.6-2.7c0-1,0.2-1.9,0.6-2.7c0.4-0.8,1-1.4,1.8-1.8
		c0.8-0.4,1.7-0.7,2.7-0.7c0.9,0,1.6,0.1,2.3,0.4c0.7,0.3,1.3,0.6,1.7,1.2l-1,1.2C84.8,84.5,83.8,84.1,82.7,84.1z"/>
	<path class="st3" d="M92.5,83c0.6-0.4,1.4-0.6,2.2-0.6v1.7c-1,0-1.9,0.2-2.5,0.8c-0.6,0.6-1,1.4-1.1,2.3v5.4h-1.8V82.5h1.8v2.2
		C91.4,84,91.9,83.4,92.5,83z"/>
	<path class="st3" d="M103.7,83.1c0.8,0.4,1.4,1.1,1.9,1.8c0.4,0.8,0.7,1.7,0.7,2.7c0,1-0.2,1.9-0.7,2.7s-1.1,1.4-1.9,1.8
		s-1.7,0.7-2.7,0.7c-1,0-1.9-0.2-2.7-0.7c-0.8-0.4-1.4-1-1.9-1.8s-0.7-1.7-0.7-2.7c0-1,0.2-1.9,0.7-2.7c0.4-0.8,1.1-1.4,1.9-1.8
		c0.8-0.4,1.7-0.7,2.7-0.7C102,82.4,102.9,82.7,103.7,83.1z M99.2,84.5c-0.5,0.3-0.9,0.7-1.2,1.3c-0.3,0.5-0.4,1.2-0.4,1.9
		c0,0.7,0.1,1.3,0.4,1.9c0.3,0.6,0.7,1,1.2,1.3s1.1,0.5,1.8,0.5c0.7,0,1.2-0.2,1.8-0.5s0.9-0.7,1.2-1.3c0.3-0.6,0.4-1.2,0.4-1.9
		c0-0.7-0.1-1.3-0.4-1.9c-0.3-0.5-0.7-1-1.2-1.3c-0.5-0.3-1.1-0.5-1.8-0.5C100.3,84,99.7,84.2,99.2,84.5z"/>
	<path class="st3" d="M117,83.1c0.7,0.4,1.3,1.1,1.7,1.8c0.4,0.8,0.6,1.7,0.6,2.7c0,1-0.2,1.9-0.6,2.7c-0.4,0.8-1,1.4-1.7,1.8
		c-0.7,0.4-1.6,0.6-2.5,0.6c-0.9,0-1.6-0.2-2.3-0.5c-0.7-0.4-1.2-0.9-1.6-1.6v2h-1.8V78.4h1.8v6.2c0.4-0.7,0.9-1.2,1.5-1.6
		c0.7-0.4,1.4-0.5,2.3-0.5C115.4,82.4,116.2,82.7,117,83.1z M115.9,90.8c0.5-0.3,0.9-0.7,1.2-1.3c0.3-0.6,0.4-1.2,0.4-1.9
		c0-0.7-0.1-1.3-0.4-1.9s-0.7-1-1.2-1.3c-0.5-0.3-1.1-0.5-1.8-0.5s-1.3,0.2-1.8,0.5s-0.9,0.7-1.2,1.3s-0.4,1.2-0.4,1.9
		c0,0.7,0.1,1.3,0.4,1.9c0.3,0.5,0.7,1,1.2,1.3c0.5,0.3,1.1,0.5,1.8,0.5S115.3,91.1,115.9,90.8z"/>
	<path class="st3" d="M123.6,78.7c0.2,0.2,0.3,0.5,0.3,0.8c0,0.3-0.1,0.6-0.3,0.8s-0.5,0.3-0.8,0.3s-0.6-0.1-0.8-0.3
		c-0.2-0.2-0.3-0.5-0.3-0.8c0-0.3,0.1-0.6,0.3-0.8c0.2-0.2,0.5-0.3,0.8-0.3S123.4,78.5,123.6,78.7z M121.9,82.5h1.8v10.3h-1.8V82.5z
		"/>
	<path class="st3" d="M134.2,83.1c0.8,0.4,1.4,1.1,1.9,1.8c0.4,0.8,0.7,1.7,0.7,2.7c0,1-0.2,1.9-0.7,2.7s-1.1,1.4-1.9,1.8
		s-1.7,0.7-2.7,0.7c-1,0-1.9-0.2-2.7-0.7c-0.8-0.4-1.4-1-1.9-1.8s-0.7-1.7-0.7-2.7c0-1,0.2-1.9,0.7-2.7c0.4-0.8,1.1-1.4,1.9-1.8
		c0.8-0.4,1.7-0.7,2.7-0.7C132.5,82.4,133.4,82.7,134.2,83.1z M129.7,84.5c-0.5,0.3-0.9,0.7-1.2,1.3c-0.3,0.5-0.4,1.2-0.4,1.9
		c0,0.7,0.1,1.3,0.4,1.9c0.3,0.6,0.7,1,1.2,1.3s1.1,0.5,1.8,0.5c0.7,0,1.2-0.2,1.8-0.5s0.9-0.7,1.2-1.3c0.3-0.6,0.4-1.2,0.4-1.9
		c0-0.7-0.1-1.3-0.4-1.9c-0.3-0.5-0.7-1-1.2-1.3c-0.5-0.3-1.1-0.5-1.8-0.5C130.8,84,130.2,84.2,129.7,84.5z"/>
	<path class="st3" d="M144.7,92.1c-0.8,0.5-1.6,0.8-2.4,0.8c-0.8,0-1.5-0.2-2-0.7c-0.5-0.5-0.8-1.2-0.8-2.2v-5.7h-1.5v-1.4h1.5v-2.8
		h1.8v2.8h3.1v1.4h-3.1v5.4c0,0.6,0.1,1,0.3,1.2c0.2,0.2,0.5,0.4,0.9,0.4c0.5,0,1-0.2,1.6-0.5L144.7,92.1z"/>
	<path class="st3" d="M153.2,92.8v-1.4c-0.8,1-2,1.5-3.6,1.5c-0.7,0-1.3-0.1-1.9-0.4c-0.5-0.3-1-0.6-1.2-1.1c-0.3-0.5-0.4-1-0.4-1.6
		c0-0.9,0.3-1.6,1-2.2c0.7-0.5,1.6-0.8,2.8-0.8h3.3v-0.5c0-0.7-0.2-1.3-0.7-1.7c-0.4-0.4-1.1-0.6-1.9-0.6c-1,0-2.1,0.4-3.2,1.1
		l-0.8-1.2c0.7-0.5,1.4-0.8,2-1s1.4-0.3,2.2-0.3c1.3,0,2.3,0.3,3,0.9s1.1,1.5,1.1,2.6l0,6.7H153.2z M152.1,90.7
		c0.6-0.4,0.9-0.9,1.1-1.6v-1h-3c-0.8,0-1.4,0.1-1.8,0.4c-0.4,0.2-0.6,0.6-0.6,1.2c0,0.5,0.2,1,0.6,1.3c0.4,0.3,0.9,0.5,1.6,0.5
		C150.8,91.3,151.5,91.1,152.1,90.7z"/>
	<path class="st3" d="M165,78.7c0.2,0.2,0.3,0.5,0.3,0.8c0,0.3-0.1,0.6-0.3,0.8s-0.5,0.3-0.8,0.3s-0.6-0.1-0.8-0.3
		c-0.2-0.2-0.3-0.5-0.3-0.8c0-0.3,0.1-0.6,0.3-0.8c0.2-0.2,0.5-0.3,0.8-0.3S164.7,78.5,165,78.7z M163.3,82.5h1.8v10.3h-1.8V82.5z"
		/>
	<path class="st3" d="M177.1,83.5c0.7,0.7,1,1.7,1,2.9v6.3h-1.8v-5.9c0-0.9-0.2-1.5-0.7-2c-0.5-0.5-1.2-0.7-2-0.7
		c-0.9,0-1.7,0.3-2.2,0.9c-0.6,0.6-0.9,1.3-1,2.2v5.5h-1.8V82.5h1.8v2.2c0.7-1.5,2-2.2,3.9-2.2C175.5,82.4,176.4,82.8,177.1,83.5z"
		/>
	<path class="st3" d="M186.9,92.1c-0.8,0.5-1.6,0.8-2.4,0.8s-1.5-0.2-2-0.7c-0.5-0.5-0.8-1.2-0.8-2.2v-5.7h-1.5v-1.4h1.5v-2.8h1.8
		v2.8h3.1v1.4h-3.1v5.4c0,0.6,0.1,1,0.3,1.2c0.2,0.2,0.5,0.4,0.9,0.4c0.5,0,1-0.2,1.6-0.5L186.9,92.1z"/>
	<path class="st3" d="M196.6,83.9c0.8,0.9,1.2,2.2,1.2,3.9c0,0.3,0,0.5,0,0.6h-8.1c0.1,0.9,0.5,1.6,1.2,2.2c0.6,0.5,1.4,0.8,2.3,0.8
		c0.6,0,1.2-0.1,1.7-0.3s1-0.5,1.4-0.9l1,1c-0.5,0.5-1.1,1-1.8,1.3c-0.7,0.3-1.5,0.4-2.4,0.4c-1,0-1.9-0.2-2.7-0.6
		c-0.8-0.4-1.4-1-1.8-1.8c-0.4-0.8-0.6-1.7-0.6-2.7c0-1,0.2-1.9,0.6-2.7c0.4-0.8,1-1.4,1.8-1.8c0.8-0.4,1.7-0.7,2.7-0.7
		C194.6,82.4,195.8,82.9,196.6,83.9z M196.2,86.9c-0.1-0.9-0.4-1.7-0.9-2.2c-0.6-0.5-1.3-0.8-2.2-0.8c-0.9,0-1.7,0.3-2.3,0.8
		c-0.6,0.5-1,1.3-1.1,2.2H196.2z"/>
	<path class="st3" d="M204.5,84.2c-0.5-0.2-1-0.2-1.5-0.2c-0.5,0-1,0.1-1.3,0.3c-0.3,0.2-0.5,0.5-0.5,0.9c0,0.4,0.2,0.7,0.6,0.9
		c0.4,0.2,0.9,0.4,1.7,0.6c0.7,0.2,1.3,0.4,1.7,0.6c0.5,0.2,0.8,0.5,1.2,0.9c0.3,0.4,0.5,0.9,0.5,1.6c0,1-0.4,1.7-1.1,2.2
		c-0.7,0.5-1.6,0.8-2.7,0.8c-0.8,0-1.5-0.1-2.2-0.4c-0.7-0.2-1.3-0.6-1.8-1l0.7-1.3c0.4,0.4,1,0.7,1.6,0.9c0.6,0.2,1.2,0.3,1.8,0.3
		s1.1-0.1,1.4-0.3c0.4-0.2,0.5-0.6,0.5-1c0-0.5-0.2-0.8-0.6-1s-1-0.5-1.7-0.7c-0.7-0.2-1.2-0.4-1.7-0.6c-0.4-0.2-0.8-0.5-1.1-0.9
		s-0.5-0.9-0.5-1.5c0-1,0.3-1.7,1-2.2c0.7-0.5,1.6-0.7,2.6-0.7c0.6,0,1.2,0.1,1.8,0.3c0.6,0.2,1.1,0.4,1.6,0.7l-0.7,1.4
		C205.5,84.5,205,84.3,204.5,84.2z"/>
	<path class="st3" d="M214.7,92.1c-0.8,0.5-1.6,0.8-2.4,0.8s-1.5-0.2-2-0.7c-0.5-0.5-0.8-1.2-0.8-2.2v-5.7h-1.5v-1.4h1.5v-2.8h1.8
		v2.8h3.1v1.4h-3.1v5.4c0,0.6,0.1,1,0.3,1.2c0.2,0.2,0.5,0.4,0.9,0.4c0.5,0,1-0.2,1.6-0.5L214.7,92.1z"/>
	<path class="st3" d="M218.6,78.7c0.2,0.2,0.3,0.5,0.3,0.8c0,0.3-0.1,0.6-0.3,0.8c-0.2,0.2-0.5,0.3-0.8,0.3s-0.6-0.1-0.8-0.3
		c-0.2-0.2-0.3-0.5-0.3-0.8c0-0.3,0.1-0.6,0.3-0.8c0.2-0.2,0.5-0.3,0.8-0.3S218.4,78.5,218.6,78.7z M216.9,82.5h1.8v10.3h-1.8V82.5z
		"/>
	<path class="st3" d="M230.8,83.5c0.7,0.7,1,1.7,1,2.9v6.3H230v-5.9c0-0.9-0.2-1.5-0.7-2c-0.5-0.5-1.2-0.7-2-0.7
		c-0.9,0-1.7,0.3-2.2,0.9c-0.6,0.6-0.9,1.3-1,2.2v5.5h-1.8V82.5h1.8v2.2c0.7-1.5,2-2.2,3.9-2.2C229.1,82.4,230.1,82.8,230.8,83.5z"
		/>
	<path class="st3" d="M241.3,92.8v-1.4c-0.8,1-2,1.5-3.6,1.5c-0.7,0-1.3-0.1-1.9-0.4s-1-0.6-1.2-1.1c-0.3-0.5-0.4-1-0.4-1.6
		c0-0.9,0.3-1.6,1-2.2c0.7-0.5,1.6-0.8,2.8-0.8h3.3v-0.5c0-0.7-0.2-1.3-0.7-1.7c-0.4-0.4-1.1-0.6-1.9-0.6c-1,0-2.1,0.4-3.2,1.1
		l-0.8-1.2c0.7-0.5,1.4-0.8,2-1s1.4-0.3,2.2-0.3c1.3,0,2.3,0.3,3,0.9c0.7,0.6,1.1,1.5,1.1,2.6l0,6.7H241.3z M240.2,90.7
		c0.6-0.4,0.9-0.9,1.1-1.6v-1h-3c-0.8,0-1.4,0.1-1.8,0.4c-0.4,0.2-0.6,0.6-0.6,1.2c0,0.5,0.2,1,0.6,1.3c0.4,0.3,0.9,0.5,1.6,0.5
		C238.9,91.3,239.6,91.1,240.2,90.7z"/>
	<path class="st3" d="M246.4,78.4h1.8v14.4h-1.8V78.4z"/>
</g>
</svg>
