<?xml version="1.0" encoding="utf-8"?>
<!-- Generator: Adobe Illustrator 20.1.0, SVG Export Plug-In . SVG Version: 6.00 Build 0)  -->
<svg version="1.1" id="Layer_1" xmlns="http://www.w3.org/2000/svg" xmlns:xlink="http://www.w3.org/1999/xlink" x="0px" y="0px"
	 viewBox="0 0 467.7 67" style="enable-background:new 0 0 467.7 67;" xml:space="preserve">
<style type="text/css">
	.st0{fill:#6D6E71;}
	.st1{fill:#F47923;}
</style>
<g>
	<g>
		<path class="st0" d="M63.8,11.3c0.3,0.3,0.4,0.6,0.4,1c0,0.4-0.1,0.8-0.4,1c-0.3,0.3-0.6,0.4-1,0.4c-0.4,0-0.7-0.1-1-0.4
			c-0.3-0.3-0.4-0.6-0.4-1c0-0.4,0.1-0.8,0.4-1c0.3-0.3,0.6-0.4,1-0.4C63.2,10.9,63.5,11.1,63.8,11.3z"/>
		<path class="st0" d="M78.9,5.9C79.8,6.4,80.5,7.1,81,8c0.5,0.9,0.8,1.9,0.8,3c0,1.1-0.3,2.1-0.8,3c-0.5,0.9-1.3,1.6-2.2,2.1
			c-0.9,0.5-2,0.8-3.1,0.8H71V5.1h4.8C76.9,5.1,78,5.4,78.9,5.9z M78,14.8c0.7-0.4,1.2-0.9,1.6-1.6c0.4-0.7,0.6-1.4,0.6-2.2
			c0-0.8-0.2-1.6-0.6-2.3c-0.4-0.7-0.9-1.2-1.6-1.6c-0.7-0.4-1.4-0.6-2.2-0.6h-3.1v8.8h3.2C76.6,15.4,77.4,15.2,78,14.8z"/>
		<path class="st0" d="M85.3,4.7c0.2,0.2,0.3,0.4,0.3,0.7c0,0.3-0.1,0.5-0.3,0.7c-0.2,0.2-0.4,0.3-0.7,0.3s-0.5-0.1-0.7-0.3
			c-0.2-0.2-0.3-0.4-0.3-0.7c0-0.3,0.1-0.5,0.3-0.7c0.2-0.2,0.4-0.3,0.7-0.3S85.1,4.6,85.3,4.7z M83.8,8h1.6v8.8h-1.6V8z"/>
		<path class="st0" d="M91.9,9.4c-0.4-0.1-0.9-0.2-1.3-0.2c-0.5,0-0.8,0.1-1.1,0.3C89.2,9.6,89,9.9,89,10.3c0,0.4,0.2,0.6,0.5,0.8
			c0.3,0.2,0.8,0.4,1.4,0.6c0.6,0.2,1.1,0.4,1.5,0.5c0.4,0.2,0.7,0.4,1,0.8c0.3,0.3,0.4,0.8,0.4,1.4c0,0.8-0.3,1.5-0.9,1.9
			c-0.6,0.4-1.4,0.7-2.4,0.7c-0.7,0-1.3-0.1-1.9-0.3c-0.6-0.2-1.1-0.5-1.6-0.9l0.6-1.1c0.4,0.3,0.8,0.6,1.4,0.8
			c0.5,0.2,1.1,0.3,1.6,0.3c0.5,0,0.9-0.1,1.2-0.3c0.3-0.2,0.5-0.5,0.5-0.9c0-0.4-0.2-0.7-0.5-0.9c-0.3-0.2-0.8-0.4-1.5-0.6
			c-0.6-0.2-1.1-0.3-1.4-0.5c-0.4-0.2-0.7-0.4-1-0.8c-0.3-0.3-0.4-0.8-0.4-1.3c0-0.8,0.3-1.4,0.9-1.9c0.6-0.4,1.4-0.6,2.3-0.6
			c0.5,0,1.1,0.1,1.6,0.2c0.5,0.2,1,0.4,1.3,0.6l-0.6,1.2C92.7,9.7,92.3,9.5,91.9,9.4z"/>
		<path class="st0" d="M102.8,8.5c0.6,0.4,1.1,0.9,1.5,1.6c0.4,0.7,0.5,1.5,0.5,2.3c0,0.9-0.2,1.6-0.5,2.3c-0.4,0.7-0.8,1.2-1.5,1.6
			c-0.6,0.4-1.4,0.6-2.2,0.6c-0.7,0-1.4-0.2-2-0.5c-0.6-0.3-1-0.8-1.3-1.3v5h-1.6V8h1.6v1.8c0.3-0.6,0.8-1,1.3-1.3
			c0.6-0.3,1.2-0.5,1.9-0.5C101.4,7.9,102.2,8.1,102.8,8.5z M101.9,15.1c0.5-0.3,0.8-0.6,1.1-1.1c0.3-0.5,0.4-1,0.4-1.6
			c0-0.6-0.1-1.1-0.4-1.6c-0.3-0.5-0.6-0.9-1.1-1.1c-0.4-0.3-1-0.4-1.5-0.4c-0.6,0-1.1,0.1-1.5,0.4c-0.5,0.3-0.8,0.6-1.1,1.1
			c-0.3,0.5-0.4,1-0.4,1.6c0,0.6,0.1,1.2,0.4,1.6c0.3,0.5,0.6,0.8,1.1,1.1c0.5,0.3,1,0.4,1.5,0.4C100.9,15.5,101.4,15.4,101.9,15.1z
			"/>
		<path class="st0" d="M113.7,9.1c0.7,0.8,1.1,1.9,1.1,3.4c0,0.2,0,0.4,0,0.5h-7c0.1,0.8,0.5,1.4,1,1.9c0.5,0.5,1.2,0.7,2,0.7
			c0.5,0,1-0.1,1.5-0.3c0.5-0.2,0.8-0.5,1.2-0.8l0.9,0.9c-0.4,0.5-1,0.8-1.6,1.1c-0.6,0.3-1.3,0.4-2,0.4c-0.9,0-1.6-0.2-2.3-0.6
			c-0.7-0.4-1.2-0.9-1.6-1.6c-0.4-0.7-0.6-1.5-0.6-2.3c0-0.9,0.2-1.6,0.6-2.3c0.4-0.7,0.9-1.2,1.6-1.6c0.7-0.4,1.4-0.6,2.3-0.6
			C111.9,7.9,113,8.3,113.7,9.1z M113.3,11.8c0-0.8-0.3-1.4-0.8-1.9c-0.5-0.5-1.1-0.7-1.9-0.7c-0.8,0-1.4,0.2-1.9,0.7
			c-0.5,0.5-0.8,1.1-0.9,1.9H113.3z"/>
		<path class="st0" d="M123.7,8.5c0.6,0.4,1.1,0.9,1.5,1.6c0.4,0.7,0.5,1.5,0.5,2.3c0,0.9-0.2,1.6-0.5,2.3c-0.4,0.7-0.8,1.2-1.5,1.6
			c-0.6,0.4-1.4,0.6-2.2,0.6c-0.7,0-1.4-0.2-2-0.5c-0.6-0.3-1-0.8-1.3-1.3v5h-1.6V8h1.6v1.8c0.3-0.6,0.8-1,1.3-1.3
			c0.6-0.3,1.2-0.5,1.9-0.5C122.3,7.9,123.1,8.1,123.7,8.5z M122.8,15.1c0.5-0.3,0.8-0.6,1.1-1.1c0.3-0.5,0.4-1,0.4-1.6
			c0-0.6-0.1-1.1-0.4-1.6c-0.3-0.5-0.6-0.9-1.1-1.1c-0.4-0.3-1-0.4-1.5-0.4c-0.6,0-1.1,0.1-1.5,0.4c-0.5,0.3-0.8,0.6-1.1,1.1
			c-0.3,0.5-0.4,1-0.4,1.6c0,0.6,0.1,1.2,0.4,1.6c0.3,0.5,0.6,0.8,1.1,1.1c0.5,0.3,1,0.4,1.5,0.4C121.8,15.5,122.3,15.4,122.8,15.1z
			"/>
		<path class="st0" d="M131.5,9.4c-0.4-0.1-0.9-0.2-1.3-0.2c-0.5,0-0.8,0.1-1.1,0.3c-0.3,0.2-0.4,0.4-0.4,0.8c0,0.4,0.2,0.6,0.5,0.8
			c0.3,0.2,0.8,0.4,1.4,0.6c0.6,0.2,1.1,0.4,1.5,0.5c0.4,0.2,0.7,0.4,1,0.8c0.3,0.3,0.4,0.8,0.4,1.4c0,0.8-0.3,1.5-0.9,1.9
			c-0.6,0.4-1.4,0.7-2.4,0.7c-0.7,0-1.3-0.1-1.9-0.3c-0.6-0.2-1.1-0.5-1.6-0.9l0.6-1.1c0.4,0.3,0.8,0.6,1.4,0.8
			c0.5,0.2,1.1,0.3,1.6,0.3c0.5,0,0.9-0.1,1.2-0.3c0.3-0.2,0.5-0.5,0.5-0.9c0-0.4-0.2-0.7-0.5-0.9c-0.3-0.2-0.8-0.4-1.5-0.6
			c-0.6-0.2-1.1-0.3-1.4-0.5c-0.4-0.2-0.7-0.4-1-0.8c-0.3-0.3-0.4-0.8-0.4-1.3c0-0.8,0.3-1.4,0.9-1.9c0.6-0.4,1.4-0.6,2.3-0.6
			c0.5,0,1.1,0.1,1.6,0.2c0.5,0.2,1,0.4,1.3,0.6l-0.6,1.2C132.3,9.7,131.9,9.5,131.5,9.4z"/>
		<path class="st0" d="M136.8,4.7c0.2,0.2,0.3,0.4,0.3,0.7c0,0.3-0.1,0.5-0.3,0.7c-0.2,0.2-0.4,0.3-0.7,0.3c-0.3,0-0.5-0.1-0.7-0.3
			c-0.2-0.2-0.3-0.4-0.3-0.7c0-0.3,0.1-0.5,0.3-0.7c0.2-0.2,0.4-0.3,0.7-0.3C136.4,4.5,136.6,4.6,136.8,4.7z M135.3,8h1.6v8.8h-1.6
			V8z"/>
		<path class="st0" d="M145,16.8v-1.2c-0.7,0.9-1.7,1.3-3.1,1.3c-0.6,0-1.2-0.1-1.6-0.4c-0.5-0.2-0.8-0.6-1.1-1
			c-0.3-0.4-0.4-0.9-0.4-1.4c0-0.8,0.3-1.4,0.9-1.9c0.6-0.5,1.4-0.7,2.5-0.7h2.8v-0.4c0-0.6-0.2-1.1-0.6-1.4
			c-0.4-0.3-0.9-0.5-1.7-0.5c-0.9,0-1.8,0.3-2.7,1l-0.7-1.1c0.6-0.4,1.2-0.7,1.8-0.9c0.5-0.2,1.2-0.3,1.9-0.3c1.1,0,2,0.3,2.6,0.8
			c0.6,0.5,0.9,1.3,0.9,2.3l0,5.8H145z M144,15.1c0.5-0.4,0.8-0.8,0.9-1.4v-0.9h-2.6c-0.7,0-1.2,0.1-1.6,0.3s-0.5,0.5-0.5,1
			c0,0.5,0.2,0.8,0.5,1.1c0.3,0.3,0.8,0.4,1.4,0.4C142.9,15.6,143.5,15.4,144,15.1z"/>
		<path class="st1" d="M155.3,11.3c0.3,0.3,0.4,0.6,0.4,1c0,0.4-0.1,0.8-0.4,1c-0.3,0.3-0.6,0.4-1,0.4c-0.4,0-0.7-0.1-1-0.4
			c-0.3-0.3-0.4-0.6-0.4-1c0-0.4,0.1-0.8,0.4-1c0.3-0.3,0.6-0.4,1-0.4C154.7,10.9,155,11.1,155.3,11.3z"/>
		<path class="st1" d="M170.4,5.9c0.9,0.5,1.6,1.2,2.2,2.1c0.5,0.9,0.8,1.9,0.8,3c0,1.1-0.3,2.1-0.8,3c-0.5,0.9-1.3,1.6-2.2,2.1
			c-0.9,0.5-2,0.8-3.1,0.8h-4.7V5.1h4.8C168.5,5.1,169.5,5.4,170.4,5.9z M169.6,14.8c0.7-0.4,1.2-0.9,1.6-1.6
			c0.4-0.7,0.6-1.4,0.6-2.2c0-0.8-0.2-1.6-0.6-2.3c-0.4-0.7-0.9-1.2-1.6-1.6c-0.7-0.4-1.4-0.6-2.2-0.6h-3.1v8.8h3.2
			C168.2,15.4,168.9,15.2,169.6,14.8z"/>
		<path class="st1" d="M176.8,4.7c0.2,0.2,0.3,0.4,0.3,0.7c0,0.3-0.1,0.5-0.3,0.7c-0.2,0.2-0.4,0.3-0.7,0.3c-0.3,0-0.5-0.1-0.7-0.3
			c-0.2-0.2-0.3-0.4-0.3-0.7c0-0.3,0.1-0.5,0.3-0.7c0.2-0.2,0.4-0.3,0.7-0.3C176.4,4.5,176.7,4.6,176.8,4.7z M175.4,8h1.6v8.8h-1.6
			V8z"/>
		<path class="st1" d="M185,16.8v-1.2c-0.7,0.9-1.7,1.3-3.1,1.3c-0.6,0-1.2-0.1-1.6-0.4c-0.5-0.2-0.8-0.6-1.1-1
			c-0.3-0.4-0.4-0.9-0.4-1.4c0-0.8,0.3-1.4,0.9-1.9c0.6-0.5,1.4-0.7,2.5-0.7h2.8v-0.4c0-0.6-0.2-1.1-0.6-1.4
			c-0.4-0.3-0.9-0.5-1.7-0.5c-0.9,0-1.8,0.3-2.7,1l-0.7-1.1c0.6-0.4,1.2-0.7,1.8-0.9c0.5-0.2,1.2-0.3,1.9-0.3c1.1,0,2,0.3,2.6,0.8
			c0.6,0.5,0.9,1.3,0.9,2.3l0,5.8H185z M184.1,15.1c0.5-0.4,0.8-0.8,0.9-1.4v-0.9h-2.6c-0.7,0-1.2,0.1-1.6,0.3
			c-0.3,0.2-0.5,0.5-0.5,1c0,0.5,0.2,0.8,0.5,1.1c0.3,0.3,0.8,0.4,1.4,0.4C183,15.6,183.6,15.4,184.1,15.1z"/>
		<path class="st1" d="M191.8,8.4c0.5-0.3,1.2-0.5,1.9-0.5v1.5c-0.9,0-1.6,0.2-2.2,0.7c-0.6,0.5-0.9,1.2-1,2v4.7H189V8h1.6v1.9
			C190.9,9.3,191.3,8.8,191.8,8.4z"/>
		<path class="st1" d="M198,8.4c0.5-0.3,1.2-0.5,1.9-0.5v1.5c-0.9,0-1.6,0.2-2.2,0.7c-0.6,0.5-0.9,1.2-1,2v4.7h-1.6V8h1.6v1.9
			C197.1,9.3,197.5,8.8,198,8.4z"/>
		<path class="st1" d="M208,9.1c0.7,0.8,1.1,1.9,1.1,3.4c0,0.2,0,0.4,0,0.5h-7c0.1,0.8,0.5,1.4,1,1.9c0.5,0.5,1.2,0.7,2,0.7
			c0.5,0,1-0.1,1.5-0.3c0.5-0.2,0.8-0.5,1.2-0.8l0.9,0.9c-0.4,0.5-1,0.8-1.6,1.1c-0.6,0.3-1.3,0.4-2,0.4c-0.9,0-1.6-0.2-2.3-0.6
			c-0.7-0.4-1.2-0.9-1.6-1.6c-0.4-0.7-0.6-1.5-0.6-2.3c0-0.9,0.2-1.6,0.6-2.3c0.4-0.7,0.9-1.2,1.6-1.6c0.7-0.4,1.4-0.6,2.3-0.6
			C206.3,7.9,207.3,8.3,208,9.1z M207.7,11.8c0-0.8-0.3-1.4-0.8-1.9c-0.5-0.5-1.1-0.7-1.9-0.7c-0.8,0-1.4,0.2-1.9,0.7
			c-0.5,0.5-0.8,1.1-0.9,1.9H207.7z"/>
		<path class="st1" d="M216.5,16.8v-1.2c-0.7,0.9-1.7,1.3-3.1,1.3c-0.6,0-1.2-0.1-1.6-0.4c-0.5-0.2-0.8-0.6-1.1-1
			c-0.3-0.4-0.4-0.9-0.4-1.4c0-0.8,0.3-1.4,0.9-1.9c0.6-0.5,1.4-0.7,2.5-0.7h2.8v-0.4c0-0.6-0.2-1.1-0.6-1.4
			c-0.4-0.3-0.9-0.5-1.7-0.5c-0.9,0-1.8,0.3-2.7,1l-0.7-1.1c0.6-0.4,1.2-0.7,1.8-0.9c0.5-0.2,1.2-0.3,1.9-0.3c1.1,0,2,0.3,2.6,0.8
			c0.6,0.5,0.9,1.3,0.9,2.3l0,5.8H216.5z M215.6,15.1c0.5-0.4,0.8-0.8,0.9-1.4v-0.9h-2.6c-0.7,0-1.2,0.1-1.6,0.3
			c-0.3,0.2-0.5,0.5-0.5,1c0,0.5,0.2,0.8,0.5,1.1c0.3,0.3,0.8,0.4,1.4,0.4C214.4,15.6,215.1,15.4,215.6,15.1z"/>
		<path class="st1" d="M230.6,16.8v-1.2c-0.7,0.9-1.7,1.3-3.1,1.3c-0.6,0-1.2-0.1-1.6-0.4c-0.5-0.2-0.8-0.6-1.1-1
			c-0.3-0.4-0.4-0.9-0.4-1.4c0-0.8,0.3-1.4,0.9-1.9c0.6-0.5,1.4-0.7,2.5-0.7h2.8v-0.4c0-0.6-0.2-1.1-0.6-1.4
			c-0.4-0.3-0.9-0.5-1.7-0.5c-0.9,0-1.8,0.3-2.7,1l-0.7-1.1c0.6-0.4,1.2-0.7,1.8-0.9c0.5-0.2,1.2-0.3,1.9-0.3c1.1,0,2,0.3,2.6,0.8
			c0.6,0.5,0.9,1.3,0.9,2.3l0,5.8H230.6z M229.7,15.1c0.5-0.4,0.8-0.8,0.9-1.4v-0.9H228c-0.7,0-1.2,0.1-1.6,0.3
			c-0.3,0.2-0.5,0.5-0.5,1c0,0.5,0.2,0.8,0.5,1.1c0.3,0.3,0.8,0.4,1.4,0.4C228.5,15.6,229.2,15.4,229.7,15.1z"/>
		<path class="st1" d="M238.4,9.4c-0.4-0.1-0.9-0.2-1.3-0.2c-0.5,0-0.8,0.1-1.1,0.3c-0.3,0.2-0.4,0.4-0.4,0.8c0,0.4,0.2,0.6,0.5,0.8
			c0.3,0.2,0.8,0.4,1.4,0.6c0.6,0.2,1.1,0.4,1.5,0.5c0.4,0.2,0.7,0.4,1,0.8c0.3,0.3,0.4,0.8,0.4,1.4c0,0.8-0.3,1.5-0.9,1.9
			c-0.6,0.4-1.4,0.7-2.4,0.7c-0.7,0-1.3-0.1-1.9-0.3c-0.6-0.2-1.1-0.5-1.6-0.9l0.6-1.1c0.4,0.3,0.8,0.6,1.4,0.8
			c0.5,0.2,1.1,0.3,1.6,0.3c0.5,0,0.9-0.1,1.2-0.3c0.3-0.2,0.5-0.5,0.5-0.9c0-0.4-0.2-0.7-0.5-0.9c-0.3-0.2-0.8-0.4-1.5-0.6
			c-0.6-0.2-1.1-0.3-1.4-0.5c-0.4-0.2-0.7-0.4-1-0.8c-0.3-0.3-0.4-0.8-0.4-1.3c0-0.8,0.3-1.4,0.9-1.9c0.6-0.4,1.4-0.6,2.3-0.6
			c0.5,0,1.1,0.1,1.6,0.2c0.5,0.2,1,0.4,1.3,0.6l-0.6,1.2C239.3,9.7,238.9,9.5,238.4,9.4z"/>
		<path class="st1" d="M248.5,8.5c0.7,0.4,1.2,0.9,1.6,1.6c0.4,0.7,0.6,1.4,0.6,2.3c0,0.9-0.2,1.6-0.6,2.3c-0.4,0.7-0.9,1.2-1.6,1.6
			c-0.7,0.4-1.5,0.6-2.4,0.6c-0.9,0-1.7-0.2-2.4-0.6c-0.7-0.4-1.2-0.9-1.6-1.6c-0.4-0.7-0.6-1.5-0.6-2.3c0-0.9,0.2-1.6,0.6-2.3
			c0.4-0.7,0.9-1.2,1.6-1.6c0.7-0.4,1.5-0.6,2.4-0.6C247,7.9,247.8,8.1,248.5,8.5z M244.6,9.7c-0.5,0.3-0.8,0.6-1.1,1.1
			c-0.3,0.5-0.4,1-0.4,1.6c0,0.6,0.1,1.2,0.4,1.6c0.3,0.5,0.6,0.9,1.1,1.1c0.5,0.3,1,0.4,1.5,0.4c0.6,0,1.1-0.1,1.5-0.4
			c0.5-0.3,0.8-0.6,1.1-1.1c0.3-0.5,0.4-1,0.4-1.6c0-0.6-0.1-1.1-0.4-1.6c-0.3-0.5-0.6-0.8-1.1-1.1c-0.5-0.3-1-0.4-1.5-0.4
			C245.6,9.3,245,9.4,244.6,9.7z"/>
		<path class="st1" d="M256.5,9.3c-0.6,0-1.1,0.1-1.5,0.4c-0.5,0.3-0.8,0.6-1.1,1.1c-0.3,0.5-0.4,1-0.4,1.6c0,0.6,0.1,1.2,0.4,1.6
			c0.3,0.5,0.6,0.8,1,1.1c0.4,0.3,0.9,0.4,1.5,0.4c0.6,0,1.1-0.1,1.5-0.3c0.5-0.2,0.8-0.5,1.1-0.8l0.9,0.9c-0.4,0.5-0.9,0.9-1.5,1.2
			c-0.6,0.3-1.3,0.4-2.1,0.4c-0.9,0-1.6-0.2-2.3-0.6c-0.7-0.4-1.2-0.9-1.6-1.6c-0.4-0.7-0.6-1.4-0.6-2.3c0-0.9,0.2-1.6,0.6-2.3
			c0.4-0.7,0.9-1.2,1.6-1.6c0.7-0.4,1.4-0.6,2.3-0.6c0.7,0,1.4,0.1,2,0.3c0.6,0.2,1.1,0.6,1.5,1l-0.9,1.1
			C258.3,9.7,257.5,9.3,256.5,9.3z"/>
		<path class="st1" d="M263.2,4.7c0.2,0.2,0.3,0.4,0.3,0.7c0,0.3-0.1,0.5-0.3,0.7c-0.2,0.2-0.4,0.3-0.7,0.3c-0.3,0-0.5-0.1-0.7-0.3
			c-0.2-0.2-0.3-0.4-0.3-0.7c0-0.3,0.1-0.5,0.3-0.7c0.2-0.2,0.4-0.3,0.7-0.3C262.8,4.5,263,4.6,263.2,4.7z M261.8,8h1.6v8.8h-1.6V8z
			"/>
		<path class="st1" d="M271.4,16.8v-1.2c-0.7,0.9-1.7,1.3-3.1,1.3c-0.6,0-1.2-0.1-1.6-0.4c-0.5-0.2-0.8-0.6-1.1-1
			c-0.3-0.4-0.4-0.9-0.4-1.4c0-0.8,0.3-1.4,0.9-1.9c0.6-0.5,1.4-0.7,2.5-0.7h2.8v-0.4c0-0.6-0.2-1.1-0.6-1.4
			c-0.4-0.3-0.9-0.5-1.7-0.5c-0.9,0-1.8,0.3-2.7,1l-0.7-1.1c0.6-0.4,1.2-0.7,1.8-0.9c0.5-0.2,1.2-0.3,1.9-0.3c1.1,0,2,0.3,2.6,0.8
			c0.6,0.5,0.9,1.3,0.9,2.3l0,5.8H271.4z M270.5,15.1c0.5-0.4,0.8-0.8,0.9-1.4v-0.9h-2.6c-0.7,0-1.2,0.1-1.6,0.3
			c-0.3,0.2-0.5,0.5-0.5,1c0,0.5,0.2,0.8,0.5,1.1s0.8,0.4,1.4,0.4C269.4,15.6,270,15.4,270.5,15.1z"/>
		<path class="st1" d="M283.8,4.4v12.4h-1.6v-1.8c-0.3,0.6-0.8,1-1.3,1.4c-0.6,0.3-1.2,0.5-2,0.5c-0.8,0-1.6-0.2-2.2-0.6
			c-0.6-0.4-1.1-0.9-1.5-1.6c-0.4-0.7-0.5-1.5-0.5-2.3c0-0.9,0.2-1.6,0.5-2.3c0.4-0.7,0.9-1.2,1.5-1.6c0.6-0.4,1.4-0.6,2.2-0.6
			c0.8,0,1.4,0.2,2,0.5c0.6,0.3,1,0.8,1.3,1.4V4.4H283.8z M280.8,15.2c0.5-0.3,0.8-0.6,1.1-1.1c0.3-0.5,0.4-1,0.4-1.6
			c0-0.6-0.1-1.2-0.4-1.6c-0.3-0.5-0.6-0.9-1.1-1.1c-0.5-0.3-1-0.4-1.5-0.4c-0.6,0-1.1,0.1-1.5,0.4c-0.5,0.3-0.8,0.6-1.1,1.1
			c-0.3,0.5-0.4,1-0.4,1.6c0,0.6,0.1,1.1,0.4,1.6c0.3,0.5,0.6,0.9,1.1,1.1c0.5,0.3,1,0.4,1.5,0.4C279.9,15.6,280.4,15.4,280.8,15.2z
			"/>
		<path class="st1" d="M292,16.8v-1.2c-0.7,0.9-1.7,1.3-3.1,1.3c-0.6,0-1.2-0.1-1.6-0.4c-0.5-0.2-0.8-0.6-1.1-1
			c-0.3-0.4-0.4-0.9-0.4-1.4c0-0.8,0.3-1.4,0.9-1.9c0.6-0.5,1.4-0.7,2.5-0.7h2.8v-0.4c0-0.6-0.2-1.1-0.6-1.4
			c-0.4-0.3-0.9-0.5-1.7-0.5c-0.9,0-1.8,0.3-2.7,1l-0.7-1.1c0.6-0.4,1.2-0.7,1.8-0.9c0.5-0.2,1.2-0.3,1.9-0.3c1.1,0,2,0.3,2.6,0.8
			c0.6,0.5,0.9,1.3,0.9,2.3l0,5.8H292z M291.1,15.1c0.5-0.4,0.8-0.8,0.9-1.4v-0.9h-2.6c-0.7,0-1.2,0.1-1.6,0.3
			c-0.3,0.2-0.5,0.5-0.5,1c0,0.5,0.2,0.8,0.5,1.1c0.3,0.3,0.8,0.4,1.4,0.4C290,15.6,290.6,15.4,291.1,15.1z"/>
		<path class="st1" d="M306.1,16.8v-1.2c-0.7,0.9-1.7,1.3-3.1,1.3c-0.6,0-1.2-0.1-1.6-0.4c-0.5-0.2-0.8-0.6-1.1-1
			c-0.3-0.4-0.4-0.9-0.4-1.4c0-0.8,0.3-1.4,0.9-1.9c0.6-0.5,1.4-0.7,2.5-0.7h2.8v-0.4c0-0.6-0.2-1.1-0.6-1.4
			c-0.4-0.3-0.9-0.5-1.7-0.5c-0.9,0-1.8,0.3-2.7,1l-0.7-1.1c0.6-0.4,1.2-0.7,1.8-0.9c0.5-0.2,1.2-0.3,1.9-0.3c1.1,0,2,0.3,2.6,0.8
			c0.6,0.5,0.9,1.3,0.9,2.3l0,5.8H306.1z M305.2,15.1c0.5-0.4,0.8-0.8,0.9-1.4v-0.9h-2.6c-0.7,0-1.2,0.1-1.6,0.3
			c-0.3,0.2-0.5,0.5-0.5,1c0,0.5,0.2,0.8,0.5,1.1s0.8,0.4,1.4,0.4C304.1,15.6,304.7,15.4,305.2,15.1z"/>
		<path class="st1" d="M320.2,16.8v-1.2c-0.7,0.9-1.7,1.3-3.1,1.3c-0.6,0-1.2-0.1-1.6-0.4c-0.5-0.2-0.8-0.6-1.1-1
			c-0.3-0.4-0.4-0.9-0.4-1.4c0-0.8,0.3-1.4,0.9-1.9c0.6-0.5,1.4-0.7,2.5-0.7h2.8v-0.4c0-0.6-0.2-1.1-0.6-1.4
			c-0.4-0.3-0.9-0.5-1.7-0.5c-0.9,0-1.8,0.3-2.7,1l-0.7-1.1c0.6-0.4,1.2-0.7,1.8-0.9c0.5-0.2,1.2-0.3,1.9-0.3c1.1,0,2,0.3,2.6,0.8
			c0.6,0.5,0.9,1.3,0.9,2.3l0,5.8H320.2z M319.3,15.1c0.5-0.4,0.8-0.8,0.9-1.4v-0.9h-2.6c-0.7,0-1.2,0.1-1.6,0.3
			c-0.3,0.2-0.5,0.5-0.5,1c0,0.5,0.2,0.8,0.5,1.1c0.3,0.3,0.8,0.4,1.4,0.4C318.2,15.6,318.8,15.4,319.3,15.1z"/>
		<path class="st1" d="M331.6,8.8c0.6,0.6,0.9,1.4,0.9,2.5v5.5h-1.6v-5.1c0-0.7-0.2-1.3-0.6-1.7c-0.4-0.4-1-0.6-1.7-0.6
			c-0.8,0-1.4,0.3-1.9,0.8c-0.5,0.5-0.8,1.1-0.8,1.9v4.7h-1.6V8h1.6v1.9c0.6-1.3,1.7-1.9,3.4-1.9C330.2,7.9,331,8.2,331.6,8.8z"/>
		<path class="st1" d="M339.6,16.2c-0.7,0.4-1.4,0.7-2.1,0.7c-0.7,0-1.3-0.2-1.7-0.6c-0.4-0.4-0.7-1.1-0.7-1.9V9.5h-1.3V8.3h1.3V5.9
			h1.6v2.4h2.7v1.2h-2.7v4.6c0,0.5,0.1,0.8,0.3,1.1c0.2,0.2,0.4,0.3,0.8,0.3c0.4,0,0.9-0.1,1.4-0.4L339.6,16.2z"/>
		<path class="st1" d="M342.6,4.7c0.2,0.2,0.3,0.4,0.3,0.7c0,0.3-0.1,0.5-0.3,0.7c-0.2,0.2-0.4,0.3-0.7,0.3c-0.3,0-0.5-0.1-0.7-0.3
			C341,6,341,5.8,341,5.5c0-0.3,0.1-0.5,0.3-0.7c0.2-0.2,0.4-0.3,0.7-0.3C342.2,4.5,342.4,4.6,342.6,4.7z M341.2,8h1.6v8.8h-1.6V8z"
			/>
		<path class="st1" d="M352.4,8.5c0.6,0.4,1.1,0.9,1.5,1.6c0.4,0.7,0.5,1.5,0.5,2.3c0,0.9-0.2,1.6-0.5,2.3c-0.4,0.7-0.8,1.2-1.5,1.6
			c-0.6,0.4-1.4,0.6-2.2,0.6c-0.7,0-1.4-0.2-2-0.5c-0.6-0.3-1-0.8-1.3-1.3v1.8h-1.6V4.4h1.6v5.3c0.3-0.6,0.8-1,1.3-1.3
			c0.6-0.3,1.2-0.5,1.9-0.5C351,7.9,351.8,8.1,352.4,8.5z M351.5,15.1c0.5-0.3,0.8-0.6,1.1-1.1c0.3-0.5,0.4-1,0.4-1.6
			c0-0.6-0.1-1.1-0.4-1.6c-0.3-0.5-0.6-0.9-1.1-1.1c-0.4-0.3-1-0.4-1.5-0.4c-0.6,0-1.1,0.1-1.5,0.4s-0.8,0.6-1.1,1.1
			c-0.3,0.5-0.4,1-0.4,1.6c0,0.6,0.1,1.2,0.4,1.6c0.3,0.5,0.6,0.8,1.1,1.1s1,0.4,1.5,0.4C350.5,15.5,351,15.4,351.5,15.1z"/>
		<path class="st1" d="M357.9,4.7c0.2,0.2,0.3,0.4,0.3,0.7c0,0.3-0.1,0.5-0.3,0.7c-0.2,0.2-0.4,0.3-0.7,0.3s-0.5-0.1-0.7-0.3
			c-0.2-0.2-0.3-0.4-0.3-0.7c0-0.3,0.1-0.5,0.3-0.7c0.2-0.2,0.4-0.3,0.7-0.3S357.7,4.6,357.9,4.7z M356.4,8h1.6v8.8h-1.6V8z"/>
		<path class="st1" d="M366.8,8.5c0.7,0.4,1.2,0.9,1.6,1.6c0.4,0.7,0.6,1.4,0.6,2.3c0,0.9-0.2,1.6-0.6,2.3c-0.4,0.7-0.9,1.2-1.6,1.6
			c-0.7,0.4-1.5,0.6-2.4,0.6c-0.9,0-1.7-0.2-2.4-0.6c-0.7-0.4-1.2-0.9-1.6-1.6c-0.4-0.7-0.6-1.5-0.6-2.3c0-0.9,0.2-1.6,0.6-2.3
			c0.4-0.7,0.9-1.2,1.6-1.6c0.7-0.4,1.5-0.6,2.4-0.6C365.3,7.9,366.1,8.1,366.8,8.5z M362.9,9.7c-0.5,0.3-0.8,0.6-1.1,1.1
			c-0.3,0.5-0.4,1-0.4,1.6c0,0.6,0.1,1.2,0.4,1.6c0.3,0.5,0.6,0.9,1.1,1.1c0.5,0.3,1,0.4,1.5,0.4c0.6,0,1.1-0.1,1.5-0.4
			c0.5-0.3,0.8-0.6,1.1-1.1c0.3-0.5,0.4-1,0.4-1.6c0-0.6-0.1-1.1-0.4-1.6c-0.3-0.5-0.6-0.8-1.1-1.1s-1-0.4-1.5-0.4
			C363.8,9.3,363.3,9.4,362.9,9.7z M365.3,4.3L367,5l-2.1,1.6l-1.3-0.2L365.3,4.3z"/>
		<path class="st1" d="M375.5,16.2c-0.7,0.4-1.4,0.7-2.1,0.7c-0.7,0-1.3-0.2-1.7-0.6c-0.4-0.4-0.7-1.1-0.7-1.9V9.5h-1.3V8.3h1.3V5.9
			h1.6v2.4h2.7v1.2h-2.7v4.6c0,0.5,0.1,0.8,0.3,1.1c0.2,0.2,0.4,0.3,0.8,0.3c0.4,0,0.9-0.1,1.4-0.4L375.5,16.2z"/>
		<path class="st1" d="M378.6,4.7c0.2,0.2,0.3,0.4,0.3,0.7c0,0.3-0.1,0.5-0.3,0.7c-0.2,0.2-0.4,0.3-0.7,0.3s-0.5-0.1-0.7-0.3
			c-0.2-0.2-0.3-0.4-0.3-0.7c0-0.3,0.1-0.5,0.3-0.7c0.2-0.2,0.4-0.3,0.7-0.3S378.4,4.6,378.6,4.7z M377.1,8h1.6v8.8h-1.6V8z"/>
		<path class="st1" d="M385.1,9.3c-0.6,0-1.1,0.1-1.5,0.4c-0.5,0.3-0.8,0.6-1.1,1.1c-0.3,0.5-0.4,1-0.4,1.6c0,0.6,0.1,1.2,0.4,1.6
			c0.3,0.5,0.6,0.8,1,1.1c0.4,0.3,0.9,0.4,1.5,0.4c0.6,0,1.1-0.1,1.5-0.3c0.5-0.2,0.8-0.5,1.1-0.8l0.9,0.9c-0.4,0.5-0.9,0.9-1.5,1.2
			c-0.6,0.3-1.3,0.4-2.1,0.4c-0.9,0-1.6-0.2-2.3-0.6c-0.7-0.4-1.2-0.9-1.6-1.6c-0.4-0.7-0.6-1.4-0.6-2.3c0-0.9,0.2-1.6,0.6-2.3
			c0.4-0.7,0.9-1.2,1.6-1.6c0.7-0.4,1.4-0.6,2.3-0.6c0.7,0,1.4,0.1,2,0.3c0.6,0.2,1.1,0.6,1.5,1l-0.9,1.1
			C386.9,9.7,386.1,9.3,385.1,9.3z"/>
		<path class="st1" d="M396.4,8.5c0.7,0.4,1.2,0.9,1.6,1.6c0.4,0.7,0.6,1.4,0.6,2.3c0,0.9-0.2,1.6-0.6,2.3c-0.4,0.7-0.9,1.2-1.6,1.6
			c-0.7,0.4-1.5,0.6-2.4,0.6c-0.9,0-1.7-0.2-2.4-0.6c-0.7-0.4-1.2-0.9-1.6-1.6c-0.4-0.7-0.6-1.5-0.6-2.3c0-0.9,0.2-1.6,0.6-2.3
			c0.4-0.7,0.9-1.2,1.6-1.6c0.7-0.4,1.5-0.6,2.4-0.6C395,7.9,395.8,8.1,396.4,8.5z M392.6,9.7c-0.5,0.3-0.8,0.6-1.1,1.1
			c-0.3,0.5-0.4,1-0.4,1.6c0,0.6,0.1,1.2,0.4,1.6c0.3,0.5,0.6,0.9,1.1,1.1c0.5,0.3,1,0.4,1.5,0.4c0.6,0,1.1-0.1,1.5-0.4
			c0.5-0.3,0.8-0.6,1.1-1.1c0.3-0.5,0.4-1,0.4-1.6c0-0.6-0.1-1.1-0.4-1.6c-0.3-0.5-0.6-0.8-1.1-1.1c-0.5-0.3-1-0.4-1.5-0.4
			C393.5,9.3,393,9.4,392.6,9.7z"/>
		<path class="st1" d="M404.3,9.4c-0.4-0.1-0.9-0.2-1.3-0.2c-0.5,0-0.8,0.1-1.1,0.3c-0.3,0.2-0.4,0.4-0.4,0.8c0,0.4,0.2,0.6,0.5,0.8
			c0.3,0.2,0.8,0.4,1.4,0.6c0.6,0.2,1.1,0.4,1.5,0.5c0.4,0.2,0.7,0.4,1,0.8c0.3,0.3,0.4,0.8,0.4,1.4c0,0.8-0.3,1.5-0.9,1.9
			c-0.6,0.4-1.4,0.7-2.3,0.7c-0.7,0-1.3-0.1-1.9-0.3c-0.6-0.2-1.1-0.5-1.6-0.9l0.6-1.1c0.4,0.3,0.8,0.6,1.4,0.8
			c0.5,0.2,1.1,0.3,1.6,0.3c0.5,0,0.9-0.1,1.2-0.3c0.3-0.2,0.5-0.5,0.5-0.9c0-0.4-0.2-0.7-0.5-0.9c-0.3-0.2-0.8-0.4-1.5-0.6
			c-0.6-0.2-1.1-0.3-1.4-0.5c-0.4-0.2-0.7-0.4-1-0.8c-0.3-0.3-0.4-0.8-0.4-1.3c0-0.8,0.3-1.4,0.9-1.9c0.6-0.4,1.4-0.6,2.3-0.6
			c0.5,0,1.1,0.1,1.6,0.2c0.5,0.2,1,0.4,1.3,0.6l-0.6,1.2C405.2,9.7,404.8,9.5,404.3,9.4z"/>
		<path class="st1" d="M7.9,34.3c0.3,0.3,0.4,0.6,0.4,1c0,0.4-0.1,0.8-0.4,1c-0.3,0.3-0.6,0.4-1,0.4c-0.4,0-0.7-0.1-1-0.4
			c-0.3-0.3-0.4-0.6-0.4-1c0-0.4,0.1-0.8,0.4-1c0.3-0.3,0.6-0.4,1-0.4C7.3,33.9,7.6,34,7.9,34.3z"/>
		<path class="st1" d="M15.1,28h1.6v11.7h-1.6V28z"/>
		<path class="st1" d="M26.9,31.8c0.6,0.6,0.9,1.4,0.9,2.5v5.5h-1.6v-5.1c0-0.7-0.2-1.3-0.6-1.7c-0.4-0.4-1-0.6-1.7-0.6
			c-0.8,0-1.4,0.3-1.9,0.8c-0.5,0.5-0.8,1.1-0.8,1.9v4.7h-1.6v-8.8h1.6v1.9c0.6-1.3,1.7-1.9,3.4-1.9C25.5,30.8,26.3,31.2,26.9,31.8z
			"/>
		<path class="st1" d="M34.9,39.2c-0.7,0.4-1.4,0.7-2.1,0.7c-0.7,0-1.3-0.2-1.7-0.6c-0.4-0.4-0.7-1.1-0.7-1.9v-4.9h-1.3v-1.2h1.3
			v-2.4h1.6v2.4h2.7v1.2h-2.7V37c0,0.5,0.1,0.8,0.3,1.1c0.2,0.2,0.4,0.3,0.8,0.3c0.4,0,0.9-0.1,1.4-0.4L34.9,39.2z"/>
		<path class="st1" d="M42.5,31.4c0.7,0.4,1.2,0.9,1.6,1.6s0.6,1.4,0.6,2.3c0,0.9-0.2,1.6-0.6,2.3c-0.4,0.7-0.9,1.2-1.6,1.6
			c-0.7,0.4-1.5,0.6-2.4,0.6c-0.9,0-1.7-0.2-2.4-0.6c-0.7-0.4-1.2-0.9-1.6-1.6c-0.4-0.7-0.6-1.5-0.6-2.3c0-0.9,0.2-1.6,0.6-2.3
			c0.4-0.7,0.9-1.2,1.6-1.6c0.7-0.4,1.5-0.6,2.4-0.6C41,30.8,41.8,31,42.5,31.4z M38.6,32.6c-0.5,0.3-0.8,0.6-1.1,1.1
			c-0.3,0.5-0.4,1-0.4,1.6c0,0.6,0.1,1.2,0.4,1.6c0.3,0.5,0.6,0.9,1.1,1.1c0.5,0.3,1,0.4,1.5,0.4c0.6,0,1.1-0.1,1.5-0.4
			c0.5-0.3,0.8-0.6,1.1-1.1s0.4-1,0.4-1.6c0-0.6-0.1-1.1-0.4-1.6c-0.3-0.5-0.6-0.8-1.1-1.1c-0.5-0.3-1-0.4-1.5-0.4
			C39.5,32.2,39,32.3,38.6,32.6z"/>
		<path class="st1" d="M46.6,27.3h1.6v12.4h-1.6V27.3z"/>
		<path class="st1" d="M57.8,32.1c0.7,0.8,1.1,1.9,1.1,3.4c0,0.2,0,0.4,0,0.5h-7c0.1,0.8,0.5,1.4,1,1.9c0.5,0.5,1.2,0.7,2,0.7
			c0.5,0,1-0.1,1.5-0.3c0.5-0.2,0.8-0.5,1.2-0.8l0.9,0.9c-0.4,0.5-1,0.8-1.6,1.1c-0.6,0.3-1.3,0.4-2,0.4c-0.9,0-1.6-0.2-2.3-0.6
			c-0.7-0.4-1.2-0.9-1.6-1.6c-0.4-0.7-0.6-1.5-0.6-2.3c0-0.9,0.2-1.6,0.6-2.3c0.4-0.7,0.9-1.2,1.6-1.6c0.7-0.4,1.4-0.6,2.3-0.6
			C56,30.8,57.1,31.3,57.8,32.1z M57.4,34.7c0-0.8-0.3-1.4-0.8-1.9c-0.5-0.5-1.1-0.7-1.9-0.7c-0.8,0-1.4,0.2-1.9,0.7
			c-0.5,0.5-0.8,1.1-0.9,1.9H57.4z"/>
		<path class="st1" d="M63.5,31.4c0.5-0.3,1.2-0.5,1.9-0.5v1.5c-0.9,0-1.6,0.2-2.2,0.7c-0.6,0.5-0.9,1.2-1,2v4.7h-1.6v-8.8h1.6v1.9
			C62.6,32.2,63,31.7,63.5,31.4z"/>
		<path class="st1" d="M72.4,39.7v-1.2c-0.7,0.9-1.7,1.3-3.1,1.3c-0.6,0-1.2-0.1-1.6-0.4c-0.5-0.2-0.8-0.6-1.1-1
			c-0.3-0.4-0.4-0.9-0.4-1.4c0-0.8,0.3-1.4,0.9-1.9c0.6-0.5,1.4-0.7,2.5-0.7h2.8v-0.4c0-0.6-0.2-1.1-0.6-1.4
			c-0.4-0.3-0.9-0.5-1.7-0.5c-0.9,0-1.8,0.3-2.7,1L66.8,32c0.6-0.4,1.2-0.7,1.8-0.9c0.5-0.2,1.2-0.3,1.9-0.3c1.1,0,2,0.3,2.6,0.8
			c0.6,0.5,0.9,1.3,0.9,2.3l0,5.8H72.4z M71.5,38c0.5-0.4,0.8-0.8,0.9-1.4v-0.9h-2.6c-0.7,0-1.2,0.1-1.6,0.3c-0.3,0.2-0.5,0.5-0.5,1
			c0,0.5,0.2,0.8,0.5,1.1c0.3,0.3,0.8,0.4,1.4,0.4C70.4,38.5,71,38.4,71.5,38z"/>
		<path class="st1" d="M83.8,31.8c0.6,0.6,0.9,1.4,0.9,2.5v5.5h-1.6v-5.1c0-0.7-0.2-1.3-0.6-1.7c-0.4-0.4-1-0.6-1.7-0.6
			c-0.8,0-1.4,0.3-1.9,0.8C78.3,33.6,78,34.2,78,35v4.7h-1.6v-8.8H78v1.9c0.6-1.3,1.7-1.9,3.4-1.9C82.4,30.8,83.2,31.2,83.8,31.8z"
			/>
		<path class="st1" d="M91,32.2c-0.6,0-1.1,0.1-1.5,0.4c-0.5,0.3-0.8,0.6-1.1,1.1c-0.3,0.5-0.4,1-0.4,1.6c0,0.6,0.1,1.2,0.4,1.6
			c0.3,0.5,0.6,0.8,1,1.1c0.4,0.3,0.9,0.4,1.5,0.4c0.6,0,1.1-0.1,1.5-0.3c0.5-0.2,0.8-0.5,1.1-0.8l0.9,0.9c-0.4,0.5-0.9,0.9-1.5,1.2
			c-0.6,0.3-1.3,0.4-2.1,0.4c-0.9,0-1.6-0.2-2.3-0.6c-0.7-0.4-1.2-0.9-1.6-1.6c-0.4-0.7-0.6-1.4-0.6-2.3c0-0.9,0.2-1.6,0.6-2.3
			c0.4-0.7,0.9-1.2,1.6-1.6c0.7-0.4,1.4-0.6,2.3-0.6c0.7,0,1.4,0.1,2,0.3c0.6,0.2,1.1,0.6,1.5,1l-0.9,1.1C92.8,32.6,92,32.2,91,32.2
			z"/>
		<path class="st1" d="M97.7,27.7c0.2,0.2,0.3,0.4,0.3,0.7c0,0.3-0.1,0.5-0.3,0.7c-0.2,0.2-0.4,0.3-0.7,0.3c-0.3,0-0.5-0.1-0.7-0.3
			c-0.2-0.2-0.3-0.4-0.3-0.7c0-0.3,0.1-0.5,0.3-0.7c0.2-0.2,0.4-0.3,0.7-0.3C97.3,27.4,97.5,27.5,97.7,27.7z M96.2,30.9h1.6v8.8
			h-1.6V30.9z"/>
		<path class="st1" d="M105.9,39.7v-1.2c-0.7,0.9-1.7,1.3-3.1,1.3c-0.6,0-1.2-0.1-1.6-0.4c-0.5-0.2-0.8-0.6-1.1-1
			c-0.3-0.4-0.4-0.9-0.4-1.4c0-0.8,0.3-1.4,0.9-1.9c0.6-0.5,1.4-0.7,2.5-0.7h2.8v-0.4c0-0.6-0.2-1.1-0.6-1.4
			c-0.4-0.3-0.9-0.5-1.7-0.5c-0.9,0-1.8,0.3-2.7,1l-0.7-1.1c0.6-0.4,1.2-0.7,1.8-0.9c0.5-0.2,1.2-0.3,1.9-0.3c1.1,0,2,0.3,2.6,0.8
			c0.6,0.5,0.9,1.3,0.9,2.3l0,5.8H105.9z M105,38c0.5-0.4,0.8-0.8,0.9-1.4v-0.9h-2.6c-0.7,0-1.2,0.1-1.6,0.3c-0.3,0.2-0.5,0.5-0.5,1
			c0,0.5,0.2,0.8,0.5,1.1c0.3,0.3,0.8,0.4,1.4,0.4C103.8,38.5,104.4,38.4,105,38z"/>
		<path class="st1" d="M120,39.7v-1.2c-0.7,0.9-1.7,1.3-3.1,1.3c-0.6,0-1.2-0.1-1.6-0.4c-0.5-0.2-0.8-0.6-1.1-1
			c-0.3-0.4-0.4-0.9-0.4-1.4c0-0.8,0.3-1.4,0.9-1.9c0.6-0.5,1.4-0.7,2.5-0.7h2.8v-0.4c0-0.6-0.2-1.1-0.6-1.4
			c-0.4-0.3-0.9-0.5-1.7-0.5c-0.9,0-1.8,0.3-2.7,1l-0.7-1.1c0.6-0.4,1.2-0.7,1.8-0.9c0.5-0.2,1.2-0.3,1.9-0.3c1.1,0,2,0.3,2.6,0.8
			c0.6,0.5,0.9,1.3,0.9,2.3l0,5.8H120z M119.1,38c0.5-0.4,0.8-0.8,0.9-1.4v-0.9h-2.6c-0.7,0-1.2,0.1-1.6,0.3c-0.3,0.2-0.5,0.5-0.5,1
			c0,0.5,0.2,0.8,0.5,1.1s0.8,0.4,1.4,0.4C117.9,38.5,118.5,38.4,119.1,38z"/>
		<path class="st1" d="M128.8,27.3h1.6v12.4h-1.6V27.3z"/>
		<path class="st1" d="M138.5,39.7v-1.2c-0.7,0.9-1.7,1.3-3.1,1.3c-0.6,0-1.2-0.1-1.6-0.4c-0.5-0.2-0.8-0.6-1.1-1
			c-0.3-0.4-0.4-0.9-0.4-1.4c0-0.8,0.3-1.4,0.9-1.9c0.6-0.5,1.4-0.7,2.5-0.7h2.8v-0.4c0-0.6-0.2-1.1-0.6-1.4
			c-0.4-0.3-0.9-0.5-1.7-0.5c-0.9,0-1.8,0.3-2.7,1l-0.7-1.1c0.6-0.4,1.2-0.7,1.8-0.9c0.5-0.2,1.2-0.3,1.9-0.3c1.1,0,2,0.3,2.6,0.8
			c0.6,0.5,0.9,1.3,0.9,2.3l0,5.8H138.5z M137.6,38c0.5-0.4,0.8-0.8,0.9-1.4v-0.9h-2.6c-0.7,0-1.2,0.1-1.6,0.3
			c-0.3,0.2-0.5,0.5-0.5,1c0,0.5,0.2,0.8,0.5,1.1c0.3,0.3,0.8,0.4,1.4,0.4C136.5,38.5,137.1,38.4,137.6,38z"/>
		<path class="st1" d="M147.3,27.3h1.6v12.4h-1.6V27.3z"/>
		<path class="st1" d="M157.1,39.7v-1.2c-0.7,0.9-1.7,1.3-3.1,1.3c-0.6,0-1.2-0.1-1.6-0.4c-0.5-0.2-0.8-0.6-1.1-1
			c-0.3-0.4-0.4-0.9-0.4-1.4c0-0.8,0.3-1.4,0.9-1.9c0.6-0.5,1.4-0.7,2.5-0.7h2.8v-0.4c0-0.6-0.2-1.1-0.6-1.4
			c-0.4-0.3-0.9-0.5-1.7-0.5c-0.9,0-1.8,0.3-2.7,1l-0.7-1.1c0.6-0.4,1.2-0.7,1.8-0.9c0.5-0.2,1.2-0.3,1.9-0.3c1.1,0,2,0.3,2.6,0.8
			c0.6,0.5,0.9,1.3,0.9,2.3l0,5.8H157.1z M156.1,38c0.5-0.4,0.8-0.8,0.9-1.4v-0.9h-2.6c-0.7,0-1.2,0.1-1.6,0.3
			c-0.3,0.2-0.5,0.5-0.5,1c0,0.5,0.2,0.8,0.5,1.1s0.8,0.4,1.4,0.4C155,38.5,155.6,38.4,156.1,38z"/>
		<path class="st1" d="M164.9,32.2c-0.6,0-1.1,0.1-1.5,0.4c-0.5,0.3-0.8,0.6-1.1,1.1c-0.3,0.5-0.4,1-0.4,1.6c0,0.6,0.1,1.2,0.4,1.6
			c0.3,0.5,0.6,0.8,1,1.1c0.4,0.3,0.9,0.4,1.5,0.4c0.6,0,1.1-0.1,1.5-0.3c0.5-0.2,0.8-0.5,1.1-0.8l0.9,0.9c-0.4,0.5-0.9,0.9-1.5,1.2
			c-0.6,0.3-1.3,0.4-2.1,0.4c-0.9,0-1.6-0.2-2.3-0.6c-0.7-0.4-1.2-0.9-1.6-1.6c-0.4-0.7-0.6-1.4-0.6-2.3c0-0.9,0.2-1.6,0.6-2.3
			c0.4-0.7,0.9-1.2,1.6-1.6c0.7-0.4,1.4-0.6,2.3-0.6c0.7,0,1.4,0.1,2,0.3c0.6,0.2,1.1,0.6,1.5,1l-0.9,1.1
			C166.7,32.6,165.9,32.2,164.9,32.2z"/>
		<path class="st1" d="M175.3,39.2c-0.7,0.4-1.4,0.7-2.1,0.7c-0.7,0-1.3-0.2-1.7-0.6c-0.4-0.4-0.7-1.1-0.7-1.9v-4.9h-1.3v-1.2h1.3
			v-2.4h1.6v2.4h2.7v1.2h-2.7V37c0,0.5,0.1,0.8,0.3,1.1c0.2,0.2,0.4,0.3,0.8,0.3c0.4,0,0.9-0.1,1.4-0.4L175.3,39.2z"/>
		<path class="st1" d="M182.9,31.4c0.7,0.4,1.2,0.9,1.6,1.6c0.4,0.7,0.6,1.4,0.6,2.3c0,0.9-0.2,1.6-0.6,2.3
			c-0.4,0.7-0.9,1.2-1.6,1.6c-0.7,0.4-1.5,0.6-2.4,0.6c-0.9,0-1.7-0.2-2.4-0.6c-0.7-0.4-1.2-0.9-1.6-1.6c-0.4-0.7-0.6-1.5-0.6-2.3
			c0-0.9,0.2-1.6,0.6-2.3c0.4-0.7,0.9-1.2,1.6-1.6c0.7-0.4,1.5-0.6,2.4-0.6C181.4,30.8,182.2,31,182.9,31.4z M179,32.6
			c-0.5,0.3-0.8,0.6-1.1,1.1c-0.3,0.5-0.4,1-0.4,1.6c0,0.6,0.1,1.2,0.4,1.6c0.3,0.5,0.6,0.9,1.1,1.1c0.5,0.3,1,0.4,1.5,0.4
			c0.6,0,1.1-0.1,1.5-0.4c0.5-0.3,0.8-0.6,1.1-1.1c0.3-0.5,0.4-1,0.4-1.6c0-0.6-0.1-1.1-0.4-1.6c-0.3-0.5-0.6-0.8-1.1-1.1
			c-0.5-0.3-1-0.4-1.5-0.4C179.9,32.2,179.4,32.3,179,32.6z"/>
		<path class="st1" d="M190.7,32.3c-0.4-0.1-0.9-0.2-1.3-0.2c-0.5,0-0.8,0.1-1.1,0.3c-0.3,0.2-0.4,0.4-0.4,0.8
			c0,0.4,0.2,0.6,0.5,0.8c0.3,0.2,0.8,0.4,1.4,0.6c0.6,0.2,1.1,0.4,1.5,0.5c0.4,0.2,0.7,0.4,1,0.8c0.3,0.3,0.4,0.8,0.4,1.4
			c0,0.8-0.3,1.5-0.9,1.9c-0.6,0.4-1.4,0.7-2.4,0.7c-0.7,0-1.3-0.1-1.9-0.3c-0.6-0.2-1.1-0.5-1.6-0.9l0.6-1.1
			c0.4,0.3,0.8,0.6,1.4,0.8c0.5,0.2,1.1,0.3,1.6,0.3c0.5,0,0.9-0.1,1.2-0.3c0.3-0.2,0.5-0.5,0.5-0.9c0-0.4-0.2-0.7-0.5-0.9
			c-0.3-0.2-0.8-0.4-1.5-0.6c-0.6-0.2-1.1-0.3-1.4-0.5c-0.4-0.2-0.7-0.4-1-0.8c-0.3-0.3-0.4-0.8-0.4-1.3c0-0.8,0.3-1.4,0.9-1.9
			c0.6-0.4,1.4-0.6,2.3-0.6c0.5,0,1.1,0.1,1.6,0.2c0.5,0.2,1,0.4,1.3,0.6l-0.6,1.2C191.6,32.6,191.2,32.5,190.7,32.3z"/>
		<path class="st1" d="M200.2,39.7v-1.2c-0.7,0.9-1.7,1.3-3.1,1.3c-0.6,0-1.2-0.1-1.6-0.4c-0.5-0.2-0.8-0.6-1.1-1
			c-0.3-0.4-0.4-0.9-0.4-1.4c0-0.8,0.3-1.4,0.9-1.9c0.6-0.5,1.4-0.7,2.5-0.7h2.8v-0.4c0-0.6-0.2-1.1-0.6-1.4
			c-0.4-0.3-0.9-0.5-1.7-0.5c-0.9,0-1.8,0.3-2.7,1l-0.7-1.1c0.6-0.4,1.2-0.7,1.8-0.9c0.5-0.2,1.2-0.3,1.9-0.3c1.1,0,2,0.3,2.6,0.8
			c0.6,0.5,0.9,1.3,0.9,2.3l0,5.8H200.2z M199.3,38c0.5-0.4,0.8-0.8,0.9-1.4v-0.9h-2.6c-0.7,0-1.2,0.1-1.6,0.3
			c-0.3,0.2-0.5,0.5-0.5,1c0,0.5,0.2,0.8,0.5,1.1c0.3,0.3,0.8,0.4,1.4,0.4C198.1,38.5,198.7,38.4,199.3,38z"/>
		<path class="st0" d="M210.5,34.3c0.3,0.3,0.4,0.6,0.4,1c0,0.4-0.1,0.8-0.4,1c-0.3,0.3-0.6,0.4-1,0.4c-0.4,0-0.7-0.1-1-0.4
			c-0.3-0.3-0.4-0.6-0.4-1c0-0.4,0.1-0.8,0.4-1c0.3-0.3,0.6-0.4,1-0.4C209.9,33.9,210.3,34,210.5,34.3z"/>
		<path class="st0" d="M222.9,29.7c-0.6-0.2-1.1-0.3-1.6-0.3c-0.7,0-1.2,0.1-1.6,0.4c-0.4,0.3-0.6,0.6-0.6,1.1c0,0.4,0.1,0.8,0.4,1
			c0.2,0.3,0.5,0.5,0.9,0.6c0.4,0.2,0.9,0.3,1.5,0.5c0.8,0.2,1.4,0.5,1.9,0.7c0.5,0.2,0.9,0.6,1.3,1c0.3,0.4,0.5,1,0.5,1.7
			c0,0.7-0.2,1.3-0.5,1.8c-0.4,0.5-0.9,0.9-1.5,1.2c-0.7,0.3-1.4,0.4-2.2,0.4c-0.9,0-1.7-0.2-2.5-0.5c-0.8-0.3-1.5-0.8-2.1-1.3
			l0.7-1.4c0.6,0.5,1.2,1,1.9,1.3c0.7,0.3,1.4,0.4,2,0.4c0.8,0,1.4-0.2,1.8-0.5c0.5-0.3,0.7-0.7,0.7-1.2c0-0.4-0.1-0.8-0.4-1
			c-0.2-0.3-0.6-0.5-0.9-0.6c-0.4-0.2-0.9-0.3-1.5-0.5c-0.8-0.2-1.4-0.5-1.9-0.7c-0.5-0.2-0.9-0.6-1.2-1c-0.3-0.4-0.5-1-0.5-1.7
			c0-0.6,0.2-1.2,0.5-1.7c0.3-0.5,0.8-0.8,1.5-1.1c0.6-0.3,1.3-0.4,2.2-0.4c0.7,0,1.4,0.1,2.1,0.3c0.7,0.2,1.3,0.5,1.8,0.8l-0.7,1.4
			C224.1,30.1,223.5,29.9,222.9,29.7z"/>
		<path class="st0" d="M229.3,27.2l1.6,0.7l-2.1,1.6l-1.3-0.2L229.3,27.2z M227.6,30.9h1.6v8.8h-1.6V30.9z"/>
		<path class="st0" d="M239.1,31.8c0.6,0.6,0.9,1.4,0.9,2.5v5.5h-1.6v-5.1c0-0.7-0.2-1.3-0.6-1.7c-0.4-0.4-1-0.6-1.7-0.6
			c-0.8,0-1.4,0.3-1.9,0.8c-0.5,0.5-0.8,1.1-0.8,1.9v4.7h-1.6v-8.8h1.6v1.9c0.6-1.3,1.7-1.9,3.4-1.9
			C237.7,30.8,238.5,31.2,239.1,31.8z"/>
		<path class="st0" d="M250.9,27.3v12.4h-1.6V38c-0.3,0.6-0.8,1-1.3,1.4c-0.6,0.3-1.2,0.5-2,0.5c-0.8,0-1.6-0.2-2.2-0.6
			c-0.6-0.4-1.1-0.9-1.5-1.6c-0.4-0.7-0.5-1.5-0.5-2.3c0-0.9,0.2-1.6,0.5-2.3c0.4-0.7,0.9-1.2,1.5-1.6c0.6-0.4,1.4-0.6,2.2-0.6
			c0.8,0,1.4,0.2,2,0.5c0.6,0.3,1,0.8,1.3,1.4v-5.3H250.9z M247.9,38.1c0.5-0.3,0.8-0.6,1.1-1.1c0.3-0.5,0.4-1,0.4-1.6
			c0-0.6-0.1-1.2-0.4-1.6c-0.3-0.5-0.6-0.9-1.1-1.1c-0.5-0.3-1-0.4-1.5-0.4c-0.6,0-1.1,0.1-1.5,0.4c-0.5,0.3-0.8,0.6-1.1,1.1
			c-0.3,0.5-0.4,1-0.4,1.6c0,0.6,0.1,1.1,0.4,1.6c0.3,0.5,0.6,0.9,1.1,1.1c0.5,0.3,1,0.4,1.5,0.4C247,38.5,247.5,38.4,247.9,38.1z"
			/>
		<path class="st0" d="M256.4,31.4c0.5-0.3,1.2-0.5,1.9-0.5v1.5c-0.9,0-1.6,0.2-2.2,0.7c-0.6,0.5-0.9,1.2-1,2v4.7h-1.6v-8.8h1.6v1.9
			C255.5,32.2,255.9,31.7,256.4,31.4z"/>
		<path class="st0" d="M265.8,31.4c0.7,0.4,1.2,0.9,1.6,1.6c0.4,0.7,0.6,1.4,0.6,2.3c0,0.9-0.2,1.6-0.6,2.3
			c-0.4,0.7-0.9,1.2-1.6,1.6c-0.7,0.4-1.5,0.6-2.4,0.6c-0.9,0-1.7-0.2-2.4-0.6c-0.7-0.4-1.2-0.9-1.6-1.6c-0.4-0.7-0.6-1.5-0.6-2.3
			c0-0.9,0.2-1.6,0.6-2.3c0.4-0.7,0.9-1.2,1.6-1.6c0.7-0.4,1.5-0.6,2.4-0.6C264.4,30.8,265.1,31,265.8,31.4z M261.9,32.6
			c-0.5,0.3-0.8,0.6-1.1,1.1c-0.3,0.5-0.4,1-0.4,1.6c0,0.6,0.1,1.2,0.4,1.6s0.6,0.9,1.1,1.1c0.5,0.3,1,0.4,1.5,0.4
			c0.6,0,1.1-0.1,1.5-0.4c0.5-0.3,0.8-0.6,1.1-1.1c0.3-0.5,0.4-1,0.4-1.6c0-0.6-0.1-1.1-0.4-1.6c-0.3-0.5-0.6-0.8-1.1-1.1
			c-0.5-0.3-1-0.4-1.5-0.4C262.9,32.2,262.4,32.3,261.9,32.6z"/>
		<path class="st0" d="M283.8,31.8c0.6,0.6,0.9,1.4,0.9,2.5v5.5h-1.6v-5.1c0-0.7-0.2-1.3-0.6-1.8c-0.4-0.4-1-0.6-1.7-0.6
			c-0.8,0-1.5,0.3-2,0.9c-0.5,0.6-0.7,1.3-0.7,2.2v4.4h-1.6v-5.1c0-0.7-0.2-1.3-0.6-1.8c-0.4-0.4-1-0.6-1.7-0.6
			c-0.8,0-1.5,0.3-2,0.9c-0.5,0.6-0.7,1.3-0.7,2.2v4.4H270v-8.8h1.6v1.9c0.6-1.2,1.7-1.9,3.3-1.9c0.8,0,1.5,0.2,2,0.6
			c0.5,0.4,0.9,0.9,1.1,1.6c0.5-1.5,1.7-2.2,3.4-2.2C282.4,30.8,283.2,31.2,283.8,31.8z"/>
		<path class="st0" d="M293.9,32.1c0.7,0.8,1.1,1.9,1.1,3.4c0,0.2,0,0.4,0,0.5h-7c0.1,0.8,0.5,1.4,1,1.9c0.5,0.5,1.2,0.7,2,0.7
			c0.5,0,1-0.1,1.5-0.3c0.5-0.2,0.8-0.5,1.2-0.8l0.9,0.9c-0.4,0.5-1,0.8-1.6,1.1c-0.6,0.3-1.3,0.4-2,0.4c-0.9,0-1.6-0.2-2.3-0.6
			c-0.7-0.4-1.2-0.9-1.6-1.6c-0.4-0.7-0.6-1.5-0.6-2.3c0-0.9,0.2-1.6,0.6-2.3c0.4-0.7,0.9-1.2,1.6-1.6c0.7-0.4,1.4-0.6,2.3-0.6
			C292.2,30.8,293.2,31.3,293.9,32.1z M293.6,34.7c0-0.8-0.3-1.4-0.8-1.9c-0.5-0.5-1.1-0.7-1.9-0.7c-0.8,0-1.4,0.2-1.9,0.7
			c-0.5,0.5-0.8,1.1-0.9,1.9H293.6z"/>
		<path class="st0" d="M309.7,27.3v12.4h-1.6V38c-0.3,0.6-0.8,1-1.3,1.4c-0.6,0.3-1.2,0.5-2,0.5c-0.8,0-1.6-0.2-2.2-0.6
			c-0.6-0.4-1.1-0.9-1.5-1.6c-0.4-0.7-0.5-1.5-0.5-2.3c0-0.9,0.2-1.6,0.5-2.3c0.4-0.7,0.9-1.2,1.5-1.6c0.6-0.4,1.4-0.6,2.2-0.6
			c0.8,0,1.4,0.2,2,0.5c0.6,0.3,1,0.8,1.3,1.4v-5.3H309.7z M306.7,38.1c0.5-0.3,0.8-0.6,1.1-1.1c0.3-0.5,0.4-1,0.4-1.6
			c0-0.6-0.1-1.2-0.4-1.6c-0.3-0.5-0.6-0.9-1.1-1.1c-0.5-0.3-1-0.4-1.5-0.4c-0.6,0-1.1,0.1-1.5,0.4c-0.5,0.3-0.8,0.6-1.1,1.1
			c-0.3,0.5-0.4,1-0.4,1.6c0,0.6,0.1,1.1,0.4,1.6c0.3,0.5,0.6,0.9,1.1,1.1c0.5,0.3,1,0.4,1.5,0.4C305.8,38.5,306.3,38.4,306.7,38.1z
			"/>
		<path class="st0" d="M319.3,32.1c0.7,0.8,1.1,1.9,1.1,3.4c0,0.2,0,0.4,0,0.5h-7c0.1,0.8,0.5,1.4,1,1.9c0.5,0.5,1.2,0.7,2,0.7
			c0.5,0,1-0.1,1.5-0.3c0.5-0.2,0.8-0.5,1.2-0.8l0.9,0.9c-0.4,0.5-1,0.8-1.6,1.1c-0.6,0.3-1.3,0.4-2,0.4c-0.9,0-1.6-0.2-2.3-0.6
			c-0.7-0.4-1.2-0.9-1.6-1.6c-0.4-0.7-0.6-1.5-0.6-2.3c0-0.9,0.2-1.6,0.6-2.3c0.4-0.7,0.9-1.2,1.6-1.6c0.7-0.4,1.4-0.6,2.3-0.6
			C317.5,30.8,318.6,31.3,319.3,32.1z M318.9,34.7c0-0.8-0.3-1.4-0.8-1.9c-0.5-0.5-1.1-0.7-1.9-0.7c-0.8,0-1.4,0.2-1.9,0.7
			c-0.5,0.5-0.8,1.1-0.9,1.9H318.9z"/>
		<path class="st0" d="M327,28h1.6v11.7H327V28z"/>
		<path class="st0" d="M338.8,31.8c0.6,0.6,0.9,1.4,0.9,2.5v5.5h-1.6v-5.1c0-0.7-0.2-1.3-0.6-1.7c-0.4-0.4-1-0.6-1.7-0.6
			c-0.8,0-1.4,0.3-1.9,0.8c-0.5,0.5-0.8,1.1-0.8,1.9v4.7h-1.6v-8.8h1.6v1.9c0.6-1.3,1.7-1.9,3.4-1.9
			C337.4,30.8,338.2,31.2,338.8,31.8z"/>
		<path class="st0" d="M346.8,39.2c-0.7,0.4-1.4,0.7-2.1,0.7c-0.7,0-1.3-0.2-1.7-0.6c-0.4-0.4-0.7-1.1-0.7-1.9v-4.9h-1.3v-1.2h1.3
			v-2.4h1.6v2.4h2.7v1.2h-2.7V37c0,0.5,0.1,0.8,0.3,1.1c0.2,0.2,0.4,0.3,0.8,0.3c0.4,0,0.9-0.1,1.4-0.4L346.8,39.2z"/>
		<path class="st0" d="M355,32.1c0.7,0.8,1.1,1.9,1.1,3.4c0,0.2,0,0.4,0,0.5h-7c0.1,0.8,0.5,1.4,1,1.9c0.5,0.5,1.2,0.7,2,0.7
			c0.5,0,1-0.1,1.5-0.3c0.5-0.2,0.8-0.5,1.2-0.8l0.9,0.9c-0.4,0.5-1,0.8-1.6,1.1c-0.6,0.3-1.3,0.4-2,0.4c-0.9,0-1.6-0.2-2.3-0.6
			c-0.7-0.4-1.2-0.9-1.6-1.6c-0.4-0.7-0.6-1.5-0.6-2.3c0-0.9,0.2-1.6,0.6-2.3c0.4-0.7,0.9-1.2,1.6-1.6c0.7-0.4,1.4-0.6,2.3-0.6
			C353.2,30.8,354.2,31.3,355,32.1z M354.6,34.7c0-0.8-0.3-1.4-0.8-1.9c-0.5-0.5-1.1-0.7-1.9-0.7c-0.8,0-1.4,0.2-1.9,0.7
			c-0.5,0.5-0.8,1.1-0.9,1.9H354.6z"/>
		<path class="st0" d="M361.7,32.3c-0.4-0.1-0.9-0.2-1.3-0.2c-0.5,0-0.8,0.1-1.1,0.3c-0.3,0.2-0.4,0.4-0.4,0.8
			c0,0.4,0.2,0.6,0.5,0.8c0.3,0.2,0.8,0.4,1.4,0.6c0.6,0.2,1.1,0.4,1.5,0.5c0.4,0.2,0.7,0.4,1,0.8c0.3,0.3,0.4,0.8,0.4,1.4
			c0,0.8-0.3,1.5-0.9,1.9c-0.6,0.4-1.4,0.7-2.4,0.7c-0.7,0-1.3-0.1-1.9-0.3c-0.6-0.2-1.1-0.5-1.6-0.9l0.6-1.1
			c0.4,0.3,0.8,0.6,1.4,0.8c0.5,0.2,1.1,0.3,1.6,0.3c0.5,0,0.9-0.1,1.2-0.3c0.3-0.2,0.5-0.5,0.5-0.9c0-0.4-0.2-0.7-0.5-0.9
			c-0.3-0.2-0.8-0.4-1.5-0.6c-0.6-0.2-1.1-0.3-1.4-0.5c-0.4-0.2-0.7-0.4-1-0.8c-0.3-0.3-0.4-0.8-0.4-1.3c0-0.8,0.3-1.4,0.9-1.9
			c0.6-0.4,1.4-0.6,2.3-0.6c0.5,0,1.1,0.1,1.6,0.2c0.5,0.2,1,0.4,1.3,0.6l-0.6,1.2C362.5,32.6,362.1,32.5,361.7,32.3z"/>
		<path class="st0" d="M370.4,39.2c-0.7,0.4-1.4,0.7-2.1,0.7c-0.7,0-1.3-0.2-1.7-0.6c-0.4-0.4-0.7-1.1-0.7-1.9v-4.9h-1.3v-1.2h1.3
			v-2.4h1.6v2.4h2.7v1.2h-2.7V37c0,0.5,0.1,0.8,0.3,1.1c0.2,0.2,0.4,0.3,0.8,0.3c0.4,0,0.9-0.1,1.4-0.4L370.4,39.2z"/>
		<path class="st0" d="M373.5,27.7c0.2,0.2,0.3,0.4,0.3,0.7c0,0.3-0.1,0.5-0.3,0.7c-0.2,0.2-0.4,0.3-0.7,0.3s-0.5-0.1-0.7-0.3
			c-0.2-0.2-0.3-0.4-0.3-0.7c0-0.3,0.1-0.5,0.3-0.7c0.2-0.2,0.4-0.3,0.7-0.3S373.3,27.5,373.5,27.7z M372,30.9h1.6v8.8H372V30.9z"/>
		<path class="st0" d="M383.6,31.8c0.6,0.6,0.9,1.4,0.9,2.5v5.5h-1.6v-5.1c0-0.7-0.2-1.3-0.6-1.7c-0.4-0.4-1-0.6-1.7-0.6
			c-0.8,0-1.4,0.3-1.9,0.8c-0.5,0.5-0.8,1.1-0.8,1.9v4.7h-1.6v-8.8h1.6v1.9c0.6-1.3,1.7-1.9,3.4-1.9C382.2,30.8,383,31.2,383.6,31.8
			z"/>
		<path class="st0" d="M393.1,31.4c0.7,0.4,1.2,0.9,1.6,1.6c0.4,0.7,0.6,1.4,0.6,2.3c0,0.9-0.2,1.6-0.6,2.3
			c-0.4,0.7-0.9,1.2-1.6,1.6c-0.7,0.4-1.5,0.6-2.4,0.6c-0.9,0-1.7-0.2-2.4-0.6c-0.7-0.4-1.2-0.9-1.6-1.6c-0.4-0.7-0.6-1.5-0.6-2.3
			c0-0.9,0.2-1.6,0.6-2.3c0.4-0.7,0.9-1.2,1.6-1.6c0.7-0.4,1.5-0.6,2.4-0.6C391.7,30.8,392.4,31,393.1,31.4z M389.2,32.6
			c-0.5,0.3-0.8,0.6-1.1,1.1c-0.3,0.5-0.4,1-0.4,1.6c0,0.6,0.1,1.2,0.4,1.6c0.3,0.5,0.6,0.9,1.1,1.1c0.5,0.3,1,0.4,1.5,0.4
			c0.6,0,1.1-0.1,1.5-0.4c0.5-0.3,0.8-0.6,1.1-1.1c0.3-0.5,0.4-1,0.4-1.6c0-0.6-0.1-1.1-0.4-1.6c-0.3-0.5-0.6-0.8-1.1-1.1
			c-0.5-0.3-1-0.4-1.5-0.4C390.2,32.2,389.7,32.3,389.2,32.6z"/>
		<path class="st0" d="M402,28h1.6v11.7H402V28z"/>
		<path class="st0" d="M409.2,31.4c0.5-0.3,1.2-0.5,1.9-0.5v1.5c-0.9,0-1.6,0.2-2.2,0.7c-0.6,0.5-0.9,1.2-1,2v4.7h-1.6v-8.8h1.6v1.9
			C408.3,32.2,408.7,31.7,409.2,31.4z"/>
		<path class="st0" d="M415.4,31.4c0.5-0.3,1.2-0.5,1.9-0.5v1.5c-0.9,0-1.6,0.2-2.2,0.7c-0.6,0.5-0.9,1.2-1,2v4.7h-1.6v-8.8h1.6v1.9
			C414.5,32.2,414.9,31.7,415.4,31.4z"/>
		<path class="st0" d="M420.3,27.7c0.2,0.2,0.3,0.4,0.3,0.7c0,0.3-0.1,0.5-0.3,0.7c-0.2,0.2-0.4,0.3-0.7,0.3s-0.5-0.1-0.7-0.3
			c-0.2-0.2-0.3-0.4-0.3-0.7c0-0.3,0.1-0.5,0.3-0.7c0.2-0.2,0.4-0.3,0.7-0.3S420.1,27.5,420.3,27.7z M418.8,30.9h1.6v8.8h-1.6V30.9z
			"/>
		<path class="st0" d="M427.7,39.2c-0.7,0.4-1.4,0.7-2.1,0.7c-0.7,0-1.3-0.2-1.7-0.6c-0.4-0.4-0.7-1.1-0.7-1.9v-4.9H422v-1.2h1.3
			v-2.4h1.6v2.4h2.7v1.2h-2.7V37c0,0.5,0.1,0.8,0.3,1.1c0.2,0.2,0.4,0.3,0.8,0.3c0.4,0,0.9-0.1,1.4-0.4L427.7,39.2z"/>
		<path class="st0" d="M434.9,39.7v-1.2c-0.7,0.9-1.7,1.3-3.1,1.3c-0.6,0-1.2-0.1-1.6-0.4c-0.5-0.2-0.8-0.6-1.1-1
			c-0.3-0.4-0.4-0.9-0.4-1.4c0-0.8,0.3-1.4,0.9-1.9c0.6-0.5,1.4-0.7,2.5-0.7h2.8v-0.4c0-0.6-0.2-1.1-0.6-1.4
			c-0.4-0.3-0.9-0.5-1.7-0.5c-0.9,0-1.8,0.3-2.7,1l-0.7-1.1c0.6-0.4,1.2-0.7,1.8-0.9c0.5-0.2,1.2-0.3,1.9-0.3c1.1,0,2,0.3,2.6,0.8
			c0.6,0.5,0.9,1.3,0.9,2.3l0,5.8H434.9z M433.9,38c0.5-0.4,0.8-0.8,0.9-1.4v-0.9h-2.6c-0.7,0-1.2,0.1-1.6,0.3
			c-0.3,0.2-0.5,0.5-0.5,1c0,0.5,0.2,0.8,0.5,1.1s0.8,0.4,1.4,0.4C432.8,38.5,433.4,38.4,433.9,38z"/>
		<path class="st0" d="M445.9,31.4c0.6,0.4,1.1,0.9,1.5,1.6c0.4,0.7,0.5,1.5,0.5,2.3c0,0.9-0.2,1.6-0.5,2.3
			c-0.4,0.7-0.8,1.2-1.5,1.6c-0.6,0.4-1.4,0.6-2.2,0.6c-0.7,0-1.4-0.2-2-0.5c-0.6-0.3-1-0.8-1.3-1.3v1.8h-1.6V27.3h1.6v5.3
			c0.3-0.6,0.8-1,1.3-1.3c0.6-0.3,1.2-0.5,1.9-0.5C444.6,30.8,445.3,31,445.9,31.4z M445,38c0.5-0.3,0.8-0.6,1.1-1.1
			c0.3-0.5,0.4-1,0.4-1.6c0-0.6-0.1-1.1-0.4-1.6c-0.3-0.5-0.6-0.9-1.1-1.1c-0.4-0.3-1-0.4-1.5-0.4c-0.6,0-1.1,0.1-1.5,0.4
			c-0.5,0.3-0.8,0.6-1.1,1.1c-0.3,0.5-0.4,1-0.4,1.6c0,0.6,0.1,1.2,0.4,1.6c0.3,0.5,0.6,0.8,1.1,1.1c0.5,0.3,1,0.4,1.5,0.4
			C444,38.4,444.5,38.3,445,38z"/>
		<path class="st0" d="M450,27.3h1.6v12.4H450V27.3z"/>
		<path class="st0" d="M461.1,32.1c0.7,0.8,1.1,1.9,1.1,3.4c0,0.2,0,0.4,0,0.5h-7c0.1,0.8,0.5,1.4,1,1.9c0.5,0.5,1.2,0.7,2,0.7
			c0.5,0,1-0.1,1.5-0.3c0.5-0.2,0.8-0.5,1.2-0.8l0.9,0.9c-0.4,0.5-1,0.8-1.6,1.1c-0.6,0.3-1.3,0.4-2,0.4c-0.9,0-1.6-0.2-2.3-0.6
			c-0.7-0.4-1.2-0.9-1.6-1.6c-0.4-0.7-0.6-1.5-0.6-2.3c0-0.9,0.2-1.6,0.6-2.3c0.4-0.7,0.9-1.2,1.6-1.6c0.7-0.4,1.4-0.6,2.3-0.6
			C459.4,30.8,460.4,31.3,461.1,32.1z M460.8,34.7c0-0.8-0.3-1.4-0.8-1.9c-0.5-0.5-1.1-0.7-1.9-0.7c-0.8,0-1.4,0.2-1.9,0.7
			c-0.5,0.5-0.8,1.1-0.9,1.9H460.8z"/>
		<path class="st1" d="M91.2,57.2c0.3,0.3,0.4,0.6,0.4,1c0,0.4-0.1,0.8-0.4,1c-0.3,0.3-0.6,0.4-1,0.4c-0.4,0-0.7-0.1-1-0.4
			c-0.3-0.3-0.4-0.6-0.4-1c0-0.4,0.1-0.8,0.4-1c0.3-0.3,0.6-0.4,1-0.4C90.6,56.8,90.9,56.9,91.2,57.2z"/>
		<path class="st1" d="M98.4,51h8.1v1.5H100V56h5.8v1.5H100v3.7h6.7v1.5h-8.3V51z"/>
		<path class="st1" d="M116,54.7c0.6,0.6,0.9,1.4,0.9,2.5v5.5h-1.6v-5.1c0-0.7-0.2-1.3-0.6-1.7c-0.4-0.4-1-0.6-1.7-0.6
			c-0.8,0-1.4,0.3-1.9,0.8c-0.5,0.5-0.8,1.1-0.8,1.9v4.7h-1.6v-8.8h1.6v1.9c0.6-1.3,1.7-1.9,3.4-1.9C114.6,53.8,115.4,54.1,116,54.7
			z"/>
		<path class="st1" d="M121.5,51.9c-0.3,0.2-0.4,0.6-0.4,1.1v1.2h2.4v1.2h-2.4v7.4h-1.6v-7.4h-1.2v-1.2h1.2v-1
			c0-0.6,0.1-1.2,0.4-1.6c0.3-0.5,0.6-0.8,1.1-1c0.4-0.2,0.9-0.3,1.4-0.3c0.5,0,1,0.1,1.5,0.4l-0.4,1.3c-0.4-0.2-0.8-0.3-1.1-0.3
			C122.1,51.5,121.8,51.7,121.5,51.9z"/>
		<path class="st1" d="M131.6,55c0.7,0.8,1.1,1.9,1.1,3.4c0,0.2,0,0.4,0,0.5h-7c0.1,0.8,0.5,1.4,1,1.9c0.5,0.5,1.2,0.7,2,0.7
			c0.5,0,1-0.1,1.5-0.3c0.5-0.2,0.8-0.5,1.2-0.8l0.9,0.9c-0.4,0.5-1,0.8-1.6,1.1c-0.6,0.3-1.3,0.4-2,0.4c-0.9,0-1.6-0.2-2.3-0.6
			c-0.7-0.4-1.2-0.9-1.6-1.6c-0.4-0.7-0.6-1.5-0.6-2.3c0-0.9,0.2-1.6,0.6-2.3c0.4-0.7,0.9-1.2,1.6-1.6c0.7-0.4,1.4-0.6,2.3-0.6
			C129.8,53.8,130.9,54.2,131.6,55z M131.2,57.6c0-0.8-0.3-1.4-0.8-1.9c-0.5-0.5-1.1-0.7-1.9-0.7c-0.8,0-1.4,0.2-1.9,0.7
			c-0.5,0.5-0.8,1.1-0.9,1.9H131.2z"/>
		<path class="st1" d="M137.3,54.3c0.5-0.3,1.2-0.5,1.9-0.5v1.5c-0.9,0-1.6,0.2-2.2,0.7c-0.6,0.5-0.9,1.2-1,2v4.7h-1.6v-8.8h1.6v1.9
			C136.4,55.1,136.8,54.6,137.3,54.3z"/>
		<path class="st1" d="M154.5,54.7c0.6,0.6,0.9,1.4,0.9,2.5v5.5h-1.6v-5.1c0-0.7-0.2-1.3-0.6-1.8c-0.4-0.4-1-0.6-1.7-0.6
			c-0.8,0-1.5,0.3-2,0.9c-0.5,0.6-0.7,1.3-0.7,2.2v4.4h-1.6v-5.1c0-0.7-0.2-1.3-0.6-1.8c-0.4-0.4-1-0.6-1.7-0.6
			c-0.8,0-1.5,0.3-2,0.9c-0.5,0.6-0.7,1.3-0.7,2.2v4.4h-1.6v-8.8h1.6v1.9c0.6-1.2,1.7-1.9,3.3-1.9c0.8,0,1.5,0.2,2,0.6
			c0.5,0.4,0.9,0.9,1.1,1.6c0.5-1.5,1.7-2.2,3.4-2.2C153.1,53.8,153.9,54.1,154.5,54.7z"/>
		<path class="st1" d="M164.7,55c0.7,0.8,1.1,1.9,1.1,3.4c0,0.2,0,0.4,0,0.5h-7c0.1,0.8,0.5,1.4,1,1.9c0.5,0.5,1.2,0.7,2,0.7
			c0.5,0,1-0.1,1.5-0.3c0.5-0.2,0.8-0.5,1.2-0.8l0.9,0.9c-0.4,0.5-1,0.8-1.6,1.1c-0.6,0.3-1.3,0.4-2,0.4c-0.9,0-1.6-0.2-2.3-0.6
			c-0.7-0.4-1.2-0.9-1.6-1.6c-0.4-0.7-0.6-1.5-0.6-2.3c0-0.9,0.2-1.6,0.6-2.3c0.4-0.7,0.9-1.2,1.6-1.6c0.7-0.4,1.4-0.6,2.3-0.6
			C162.9,53.8,164,54.2,164.7,55z M164.3,57.6c0-0.8-0.3-1.4-0.8-1.9c-0.5-0.5-1.1-0.7-1.9-0.7c-0.8,0-1.4,0.2-1.9,0.7
			c-0.5,0.5-0.8,1.1-0.9,1.9H164.3z"/>
		<path class="st1" d="M176.1,50.2v12.4h-1.6v-1.8c-0.3,0.6-0.8,1-1.3,1.4c-0.6,0.3-1.2,0.5-2,0.5c-0.8,0-1.6-0.2-2.2-0.6
			c-0.6-0.4-1.1-0.9-1.5-1.6c-0.4-0.7-0.5-1.5-0.5-2.3c0-0.9,0.2-1.6,0.5-2.3c0.4-0.7,0.9-1.2,1.5-1.6c0.6-0.4,1.4-0.6,2.2-0.6
			c0.8,0,1.4,0.2,2,0.5c0.6,0.3,1,0.8,1.3,1.4v-5.3H176.1z M173.1,61c0.5-0.3,0.8-0.6,1.1-1.1c0.3-0.5,0.4-1,0.4-1.6
			c0-0.6-0.1-1.2-0.4-1.6c-0.3-0.5-0.6-0.9-1.1-1.1c-0.5-0.3-1-0.4-1.5-0.4c-0.6,0-1.1,0.1-1.5,0.4c-0.5,0.3-0.8,0.6-1.1,1.1
			c-0.3,0.5-0.4,1-0.4,1.6c0,0.6,0.1,1.1,0.4,1.6c0.3,0.5,0.6,0.9,1.1,1.1c0.5,0.3,1,0.4,1.5,0.4C172.1,61.4,172.7,61.3,173.1,61z"
			/>
		<path class="st1" d="M184.3,62.7v-1.2c-0.7,0.9-1.7,1.3-3.1,1.3c-0.6,0-1.2-0.1-1.6-0.4c-0.5-0.2-0.8-0.6-1.1-1
			c-0.3-0.4-0.4-0.9-0.4-1.4c0-0.8,0.3-1.4,0.9-1.9c0.6-0.5,1.4-0.7,2.5-0.7h2.8V57c0-0.6-0.2-1.1-0.6-1.4c-0.4-0.3-0.9-0.5-1.7-0.5
			c-0.9,0-1.8,0.3-2.7,1l-0.7-1.1c0.6-0.4,1.2-0.7,1.8-0.9c0.5-0.2,1.2-0.3,1.9-0.3c1.1,0,2,0.3,2.6,0.8c0.6,0.5,0.9,1.3,0.9,2.3
			l0,5.8H184.3z M183.4,60.9c0.5-0.4,0.8-0.8,0.9-1.4v-0.9h-2.6c-0.7,0-1.2,0.1-1.6,0.3c-0.3,0.2-0.5,0.5-0.5,1
			c0,0.5,0.2,0.8,0.5,1.1c0.3,0.3,0.8,0.4,1.4,0.4C182.3,61.4,182.9,61.3,183.4,60.9z"/>
		<path class="st1" d="M196.7,50.2v12.4h-1.6v-1.8c-0.3,0.6-0.8,1-1.3,1.4c-0.6,0.3-1.2,0.5-2,0.5c-0.8,0-1.6-0.2-2.2-0.6
			c-0.6-0.4-1.1-0.9-1.5-1.6c-0.4-0.7-0.5-1.5-0.5-2.3c0-0.9,0.2-1.6,0.5-2.3c0.4-0.7,0.9-1.2,1.5-1.6c0.6-0.4,1.4-0.6,2.2-0.6
			c0.8,0,1.4,0.2,2,0.5c0.6,0.3,1,0.8,1.3,1.4v-5.3H196.7z M193.7,61c0.5-0.3,0.8-0.6,1.1-1.1c0.3-0.5,0.4-1,0.4-1.6
			c0-0.6-0.1-1.2-0.4-1.6c-0.3-0.5-0.6-0.9-1.1-1.1c-0.5-0.3-1-0.4-1.5-0.4c-0.6,0-1.1,0.1-1.5,0.4c-0.5,0.3-0.8,0.6-1.1,1.1
			c-0.3,0.5-0.4,1-0.4,1.6c0,0.6,0.1,1.1,0.4,1.6c0.3,0.5,0.6,0.9,1.1,1.1c0.5,0.3,1,0.4,1.5,0.4C192.8,61.4,193.3,61.3,193.7,61z"
			/>
		<path class="st1" d="M204.4,51h1.6v11.7h-1.6V51z"/>
		<path class="st1" d="M216.2,54.7c0.6,0.6,0.9,1.4,0.9,2.5v5.5h-1.6v-5.1c0-0.7-0.2-1.3-0.6-1.7c-0.4-0.4-1-0.6-1.7-0.6
			c-0.8,0-1.4,0.3-1.9,0.8c-0.5,0.5-0.8,1.1-0.8,1.9v4.7h-1.6v-8.8h1.6v1.9c0.6-1.3,1.7-1.9,3.4-1.9
			C214.8,53.8,215.6,54.1,216.2,54.7z"/>
		<path class="st1" d="M221.7,51.9c-0.3,0.2-0.4,0.6-0.4,1.1v1.2h2.4v1.2h-2.4v7.4h-1.6v-7.4h-1.2v-1.2h1.2v-1
			c0-0.6,0.1-1.2,0.4-1.6c0.3-0.5,0.6-0.8,1.1-1c0.4-0.2,0.9-0.3,1.4-0.3c0.5,0,1,0.1,1.5,0.4l-0.4,1.3c-0.4-0.2-0.8-0.3-1.1-0.3
			C222.3,51.5,222,51.7,221.7,51.9z M225.4,50.2h1.6v12.4h-1.6V50.2z"/>
		<path class="st1" d="M235.2,62.7v-1.2c-0.7,0.9-1.7,1.3-3.1,1.3c-0.6,0-1.2-0.1-1.6-0.4c-0.5-0.2-0.8-0.6-1.1-1
			c-0.3-0.4-0.4-0.9-0.4-1.4c0-0.8,0.3-1.4,0.9-1.9c0.6-0.5,1.4-0.7,2.5-0.7h2.8V57c0-0.6-0.2-1.1-0.6-1.4c-0.4-0.3-0.9-0.5-1.7-0.5
			c-0.9,0-1.8,0.3-2.7,1l-0.7-1.1c0.6-0.4,1.2-0.7,1.8-0.9c0.5-0.2,1.2-0.3,1.9-0.3c1.1,0,2,0.3,2.6,0.8c0.6,0.5,0.9,1.3,0.9,2.3
			l0,5.8H235.2z M234.3,60.9c0.5-0.4,0.8-0.8,0.9-1.4v-0.9h-2.6c-0.7,0-1.2,0.1-1.6,0.3c-0.3,0.2-0.5,0.5-0.5,1
			c0,0.5,0.2,0.8,0.5,1.1c0.3,0.3,0.8,0.4,1.4,0.4C233.1,61.4,233.7,61.3,234.3,60.9z"/>
		<path class="st1" d="M253,54.7c0.6,0.6,0.9,1.4,0.9,2.5v5.5h-1.6v-5.1c0-0.7-0.2-1.3-0.6-1.8c-0.4-0.4-1-0.6-1.7-0.6
			c-0.8,0-1.5,0.3-2,0.9c-0.5,0.6-0.7,1.3-0.7,2.2v4.4h-1.6v-5.1c0-0.7-0.2-1.3-0.6-1.8c-0.4-0.4-1-0.6-1.7-0.6
			c-0.8,0-1.5,0.3-2,0.9c-0.5,0.6-0.7,1.3-0.7,2.2v4.4h-1.6v-8.8h1.6v1.9c0.6-1.2,1.7-1.9,3.3-1.9c0.8,0,1.5,0.2,2,0.6
			c0.5,0.4,0.9,0.9,1.1,1.6c0.5-1.5,1.7-2.2,3.4-2.2C251.6,53.8,252.4,54.1,253,54.7z"/>
		<path class="st1" d="M261.8,62.7v-1.2c-0.7,0.9-1.7,1.3-3.1,1.3c-0.6,0-1.2-0.1-1.6-0.4c-0.5-0.2-0.8-0.6-1.1-1
			c-0.3-0.4-0.4-0.9-0.4-1.4c0-0.8,0.3-1.4,0.9-1.9c0.6-0.5,1.4-0.7,2.5-0.7h2.8V57c0-0.6-0.2-1.1-0.6-1.4c-0.4-0.3-0.9-0.5-1.7-0.5
			c-0.9,0-1.8,0.3-2.7,1l-0.7-1.1c0.6-0.4,1.2-0.7,1.8-0.9c0.5-0.2,1.2-0.3,1.9-0.3c1.1,0,2,0.3,2.6,0.8c0.6,0.5,0.9,1.3,0.9,2.3
			l0,5.8H261.8z M260.9,60.9c0.5-0.4,0.8-0.8,0.9-1.4v-0.9h-2.6c-0.7,0-1.2,0.1-1.6,0.3c-0.3,0.2-0.5,0.5-0.5,1
			c0,0.5,0.2,0.8,0.5,1.1c0.3,0.3,0.8,0.4,1.4,0.4C259.8,61.4,260.4,61.3,260.9,60.9z"/>
		<path class="st1" d="M270.5,62.1c-0.7,0.4-1.4,0.7-2.1,0.7c-0.7,0-1.3-0.2-1.7-0.6c-0.4-0.4-0.7-1.1-0.7-1.9v-4.9h-1.3v-1.2h1.3
			v-2.4h1.6v2.4h2.7v1.2h-2.7v4.6c0,0.5,0.1,0.8,0.3,1.1c0.2,0.2,0.4,0.3,0.8,0.3c0.4,0,0.9-0.1,1.4-0.4L270.5,62.1z"/>
		<path class="st1" d="M278,54.3c0.7,0.4,1.2,0.9,1.6,1.6c0.4,0.7,0.6,1.4,0.6,2.3c0,0.9-0.2,1.6-0.6,2.3c-0.4,0.7-0.9,1.2-1.6,1.6
			c-0.7,0.4-1.5,0.6-2.4,0.6c-0.9,0-1.7-0.2-2.4-0.6c-0.7-0.4-1.2-0.9-1.6-1.6c-0.4-0.7-0.6-1.5-0.6-2.3c0-0.9,0.2-1.6,0.6-2.3
			c0.4-0.7,0.9-1.2,1.6-1.6c0.7-0.4,1.5-0.6,2.4-0.6C276.5,53.8,277.3,54,278,54.3z M274.1,55.5c-0.5,0.3-0.8,0.6-1.1,1.1
			c-0.3,0.5-0.4,1-0.4,1.6c0,0.6,0.1,1.2,0.4,1.6c0.3,0.5,0.6,0.9,1.1,1.1s1,0.4,1.5,0.4c0.6,0,1.1-0.1,1.5-0.4
			c0.5-0.3,0.8-0.6,1.1-1.1c0.3-0.5,0.4-1,0.4-1.6c0-0.6-0.1-1.1-0.4-1.6c-0.3-0.5-0.6-0.8-1.1-1.1c-0.5-0.3-1-0.4-1.5-0.4
			C275.1,55.1,274.6,55.3,274.1,55.5z"/>
		<path class="st1" d="M284.9,54.3c0.5-0.3,1.2-0.5,1.9-0.5v1.5c-0.9,0-1.6,0.2-2.2,0.7c-0.6,0.5-0.9,1.2-1,2v4.7h-1.6v-8.8h1.6v1.9
			C284,55.1,284.4,54.6,284.9,54.3z"/>
		<path class="st1" d="M289.8,50.6c0.2,0.2,0.3,0.4,0.3,0.7c0,0.3-0.1,0.5-0.3,0.7c-0.2,0.2-0.4,0.3-0.7,0.3s-0.5-0.1-0.7-0.3
			c-0.2-0.2-0.3-0.4-0.3-0.7c0-0.3,0.1-0.5,0.3-0.7c0.2-0.2,0.4-0.3,0.7-0.3S289.6,50.4,289.8,50.6z M288.3,53.8h1.6v8.8h-1.6V53.8z
			"/>
		<path class="st1" d="M298,62.7v-1.2c-0.7,0.9-1.7,1.3-3.1,1.3c-0.6,0-1.2-0.1-1.6-0.4c-0.5-0.2-0.8-0.6-1.1-1
			c-0.3-0.4-0.4-0.9-0.4-1.4c0-0.8,0.3-1.4,0.9-1.9c0.6-0.5,1.4-0.7,2.5-0.7h2.8V57c0-0.6-0.2-1.1-0.6-1.4c-0.4-0.3-0.9-0.5-1.7-0.5
			c-0.9,0-1.8,0.3-2.7,1l-0.7-1.1c0.6-0.4,1.2-0.7,1.8-0.9c0.5-0.2,1.2-0.3,1.9-0.3c1.1,0,2,0.3,2.6,0.8c0.6,0.5,0.9,1.3,0.9,2.3
			l0,5.8H298z M297,60.9c0.5-0.4,0.8-0.8,0.9-1.4v-0.9h-2.6c-0.7,0-1.2,0.1-1.6,0.3c-0.3,0.2-0.5,0.5-0.5,1c0,0.5,0.2,0.8,0.5,1.1
			c0.3,0.3,0.8,0.4,1.4,0.4C295.9,61.4,296.5,61.3,297,60.9z"/>
		<path class="st1" d="M306.8,51h1.6v11.7h-1.6V51z"/>
		<path class="st1" d="M318.6,54.7c0.6,0.6,0.9,1.4,0.9,2.5v5.5h-1.6v-5.1c0-0.7-0.2-1.3-0.6-1.7c-0.4-0.4-1-0.6-1.7-0.6
			c-0.8,0-1.4,0.3-1.9,0.8c-0.5,0.5-0.8,1.1-0.8,1.9v4.7h-1.6v-8.8h1.6v1.9c0.6-1.3,1.7-1.9,3.4-1.9C317.2,53.8,318,54.1,318.6,54.7
			z"/>
		<path class="st1" d="M326.6,62.1c-0.7,0.4-1.4,0.7-2.1,0.7c-0.7,0-1.3-0.2-1.7-0.6c-0.4-0.4-0.7-1.1-0.7-1.9v-4.9h-1.3v-1.2h1.3
			v-2.4h1.6v2.4h2.7v1.2h-2.7v4.6c0,0.5,0.1,0.8,0.3,1.1c0.2,0.2,0.4,0.3,0.8,0.3c0.4,0,0.9-0.1,1.4-0.4L326.6,62.1z"/>
		<path class="st1" d="M334.8,55c0.7,0.8,1.1,1.9,1.1,3.4c0,0.2,0,0.4,0,0.5h-7c0.1,0.8,0.5,1.4,1,1.9c0.5,0.5,1.2,0.7,2,0.7
			c0.5,0,1-0.1,1.5-0.3c0.5-0.2,0.8-0.5,1.2-0.8l0.9,0.9c-0.4,0.5-1,0.8-1.6,1.1c-0.6,0.3-1.3,0.4-2,0.4c-0.9,0-1.6-0.2-2.3-0.6
			c-0.7-0.4-1.2-0.9-1.6-1.6c-0.4-0.7-0.6-1.5-0.6-2.3c0-0.9,0.2-1.6,0.6-2.3c0.4-0.7,0.9-1.2,1.6-1.6c0.7-0.4,1.4-0.6,2.3-0.6
			C333,53.8,334.1,54.2,334.8,55z M334.4,57.6c0-0.8-0.3-1.4-0.8-1.9c-0.5-0.5-1.1-0.7-1.9-0.7c-0.8,0-1.4,0.2-1.9,0.7
			c-0.5,0.5-0.8,1.1-0.9,1.9H334.4z"/>
		<path class="st1" d="M341.5,55.2c-0.4-0.1-0.9-0.2-1.3-0.2c-0.5,0-0.8,0.1-1.1,0.3c-0.3,0.2-0.4,0.4-0.4,0.8
			c0,0.4,0.2,0.6,0.5,0.8c0.3,0.2,0.8,0.4,1.4,0.6c0.6,0.2,1.1,0.4,1.5,0.5c0.4,0.2,0.7,0.4,1,0.8c0.3,0.3,0.4,0.8,0.4,1.4
			c0,0.8-0.3,1.5-0.9,1.9c-0.6,0.4-1.4,0.7-2.4,0.7c-0.7,0-1.3-0.1-1.9-0.3c-0.6-0.2-1.1-0.5-1.6-0.9l0.6-1.1
			c0.4,0.3,0.8,0.6,1.4,0.8c0.5,0.2,1.1,0.3,1.6,0.3c0.5,0,0.9-0.1,1.2-0.3c0.3-0.2,0.5-0.5,0.5-0.9c0-0.4-0.2-0.7-0.5-0.9
			c-0.3-0.2-0.8-0.4-1.5-0.6c-0.6-0.2-1.1-0.3-1.4-0.5c-0.4-0.2-0.7-0.4-1-0.8c-0.3-0.3-0.4-0.8-0.4-1.3c0-0.8,0.3-1.4,0.9-1.9
			c0.6-0.4,1.4-0.6,2.3-0.6c0.5,0,1.1,0.1,1.6,0.2c0.5,0.2,1,0.4,1.3,0.6l-0.6,1.2C342.3,55.5,341.9,55.4,341.5,55.2z"/>
		<path class="st1" d="M350.3,62.1c-0.7,0.4-1.4,0.7-2.1,0.7c-0.7,0-1.3-0.2-1.7-0.6c-0.4-0.4-0.7-1.1-0.7-1.9v-4.9h-1.3v-1.2h1.3
			v-2.4h1.6v2.4h2.7v1.2h-2.7v4.6c0,0.5,0.1,0.8,0.3,1.1c0.2,0.2,0.4,0.3,0.8,0.3c0.4,0,0.9-0.1,1.4-0.4L350.3,62.1z"/>
		<path class="st1" d="M353.3,50.6c0.2,0.2,0.3,0.4,0.3,0.7c0,0.3-0.1,0.5-0.3,0.7c-0.2,0.2-0.4,0.3-0.7,0.3s-0.5-0.1-0.7-0.3
			c-0.2-0.2-0.3-0.4-0.3-0.7c0-0.3,0.1-0.5,0.3-0.7c0.2-0.2,0.4-0.3,0.7-0.3S353.1,50.4,353.3,50.6z M351.8,53.8h1.6v8.8h-1.6V53.8z
			"/>
		<path class="st1" d="M363.4,54.7c0.6,0.6,0.9,1.4,0.9,2.5v5.5h-1.6v-5.1c0-0.7-0.2-1.3-0.6-1.7c-0.4-0.4-1-0.6-1.7-0.6
			c-0.8,0-1.4,0.3-1.9,0.8c-0.5,0.5-0.8,1.1-0.8,1.9v4.7H356v-8.8h1.6v1.9c0.6-1.3,1.7-1.9,3.4-1.9C362,53.8,362.8,54.1,363.4,54.7z
			"/>
		<path class="st1" d="M372.2,62.7v-1.2c-0.7,0.9-1.7,1.3-3.1,1.3c-0.6,0-1.2-0.1-1.6-0.4c-0.5-0.2-0.8-0.6-1.1-1
			c-0.3-0.4-0.4-0.9-0.4-1.4c0-0.8,0.3-1.4,0.9-1.9c0.6-0.5,1.4-0.7,2.5-0.7h2.8V57c0-0.6-0.2-1.1-0.6-1.4c-0.4-0.3-0.9-0.5-1.7-0.5
			c-0.9,0-1.8,0.3-2.7,1l-0.7-1.1c0.6-0.4,1.2-0.7,1.8-0.9c0.5-0.2,1.2-0.3,1.9-0.3c1.1,0,2,0.3,2.6,0.8c0.6,0.5,0.9,1.3,0.9,2.3
			l0,5.8H372.2z M371.3,60.9c0.5-0.4,0.8-0.8,0.9-1.4v-0.9h-2.6c-0.7,0-1.2,0.1-1.6,0.3c-0.3,0.2-0.5,0.5-0.5,1
			c0,0.5,0.2,0.8,0.5,1.1c0.3,0.3,0.8,0.4,1.4,0.4C370.2,61.4,370.8,61.3,371.3,60.9z"/>
		<path class="st1" d="M376.3,50.2h1.6v12.4h-1.6V50.2z"/>
	</g>
</g>
</svg>
