<!-- Generator: Adobe Illustrator 20.1.0, SVG Export Plug-In  -->
<svg version="1.1"
	 xmlns="http://www.w3.org/2000/svg" xmlns:xlink="http://www.w3.org/1999/xlink" xmlns:a="http://ns.adobe.com/AdobeSVGViewerExtensions/3.0/"
	 x="0px" y="0px" width="206.5px" height="66.3px" viewBox="0 0 206.5 66.3"
	 style="overflow:scroll;enable-background:new 0 0 206.5 66.3;" xml:space="preserve">
<style type="text/css">
	.st0{fill:#FFFFFF;}
</style>
<defs>
</defs>
<path class="st0" d="M34.7,57.9l0.3,1.5h-1.3l0.4-1.5c0.2-0.8,0.3-1.4,0.3-1.8h0C34.5,56.5,34.6,57.1,34.7,57.9 M41.3,58.8h-1V61h1
	c0.7,0,1-0.4,1-1.1C42.3,59.2,42.1,58.8,41.3,58.8 M42.1,56.3c0-0.6-0.3-0.9-0.9-0.9h-0.9v2h0.9C41.9,57.3,42.1,56.9,42.1,56.3
	 M53.8,66.3H0V0h53.8V66.3z M3.8,50l37.6,0c4.8,0,8.6-3.9,8.6-8.6l0-37.6H12.4c-4.8,0-8.6,3.5-8.6,8.2L3.8,50z M8.8,59.9
	c0-1.9-1.2-2.4-2.5-2.8c-0.8-0.3-1-0.5-1-1.1c0-0.5,0.3-0.8,1-0.8c0.6,0,1,0.1,1.5,0.4l0.6-1.4c-0.6-0.4-1.3-0.6-2.3-0.6
	c-1.6,0-2.7,0.8-2.7,2.6c0,1.7,0.9,2.3,2.3,2.8c0.8,0.3,1.1,0.4,1.1,1.1c0,0.6-0.4,1-1.2,1c-0.7,0-1.4-0.2-1.9-0.7l-0.6,1.5
	c0.6,0.4,1.6,0.8,2.7,0.8C8.1,62.7,8.8,61.6,8.8,59.9 M15.2,61.9l-0.8-1.4c-0.4,0.4-0.8,0.6-1.4,0.6c-1,0-1.5-0.6-1.5-3
	c0-2.3,0.3-2.9,1.5-2.9c0.5,0,1,0.2,1.4,0.5l0.7-1.4c-0.5-0.4-1.2-0.7-2.2-0.7c-2.2,0-3.4,1.2-3.4,4.6c0,3.2,1.1,4.5,3.4,4.5
	C14,62.7,14.7,62.3,15.2,61.9 M21.6,53.8h-1.8v3.3h-2v-3.3h-1.8v8.8h1.8v-3.8h2v3.8h1.8V53.8z M30,62.5l1.7-8.8h-1.9l-0.5,2.9
	c-0.2,1.4-0.3,2.6-0.3,3.5h0c-0.1-1-0.2-2.3-0.4-3.3L28,53.8h-1.6L25.9,57c-0.3,1.5-0.4,2.6-0.4,3.3h0c0-0.4-0.1-2.1-0.4-3.5l-0.5-3
	h-1.9l1.7,8.8h1.9l0.7-3.7c0.2-0.8,0.3-1.9,0.3-2.4h0c0,0.6,0.1,1.5,0.3,2.4l0.7,3.7H30z M37.7,62.5l-2.3-8.8h-1.9l-2.4,8.8H33
	l0.4-1.8h2l0.4,1.8H37.7z M44.3,60c0-1.3-0.6-1.9-1.4-2.1C43.7,57.5,44,57,44,56c0-1.5-0.9-2.2-2.2-2.2h-3.2v8.8h3.1
	C43.4,62.5,44.3,61.7,44.3,60 M50.2,60.9h-3.1v-2.2h2.3v-1.6h-2.3v-1.8H50v-1.6h-4.7v8.8h4.9V60.9z M46.2,41.7
	c0.1-2.7-1.3-4.1-4.1-6.9c0,0-18.3-18.3-18.8-18.7c-0.5-0.5-0.2-1.4,0.6-1.4c0.4,0,17.5,0,17.5,0c2.2,0,4.8-2.2,4.8-4.8l0-2.4H12.5
	c-2.9,0-4.9,2.5-4.9,4.6c-0.1,2.7,1.3,4.1,4.1,6.9c0,0,18.3,18.3,18.8,18.7c0.5,0.5,0.2,1.4-0.6,1.4c-0.4,0-17.5,0-17.5,0
	c-2.2,0-4.8,2.2-4.8,4.8v2.4l33.8,0C44.3,46.3,46.2,43.7,46.2,41.7"/>
<path class="st0" d="M69.1,23.9l0.9-1.8c1,0.7,1.9,1.1,3.2,1.1c1.6,0,2.2-0.7,2.2-1.9c0-1.4-0.8-1.8-2.2-2.3
	c-2.3-0.8-3.5-1.7-3.5-4.2c0-2.6,1.6-3.8,4.1-3.8c1.6,0,2.6,0.3,3.5,1l-0.9,1.8C75.6,13.3,74.9,13,74,13c-1.2,0-1.9,0.5-1.9,1.6
	c0,1.2,0.4,1.6,1.9,2c2.2,0.8,3.9,1.5,3.9,4.4c0,2.3-1.1,4.2-4.5,4.2C71.7,25.3,70.1,24.7,69.1,23.9"/>
<path class="st0" d="M79.7,20c0-3.8,1.5-5.3,4.1-5.3c1.2,0,2.1,0.3,3,1.2l-1.2,1.5c-0.5-0.5-1-0.8-1.7-0.8c-1.3,0-1.8,0.5-1.8,3.4
	c0,2.8,0.5,3.5,1.9,3.5c0.8,0,1.2-0.4,1.7-0.8l1.1,1.5c-0.7,0.7-1.6,1.2-3,1.2C81.1,25.3,79.7,23.6,79.7,20"/>
<path class="st0" d="M88.8,10.5h2.3v5.3c0.7-0.7,1.6-1.2,2.7-1.2c1.6,0,2.5,0.7,2.5,2.6V25h-2.3v-7.1c0-1.1-0.3-1.3-1.1-1.3
	c-0.7,0-1.4,0.4-1.9,0.9V25h-2.3V10.5z"/>
<path class="st0" d="M98,15h2.3l1,4.4c0.2,1.1,0.4,2.6,0.5,3.1h0c0-0.4,0.2-1.8,0.5-2.8l1.1-4.6h2.2l1.1,4.6c0.2,1,0.5,2.4,0.5,2.8
	h0c0-0.4,0.3-2,0.5-3l1-4.4h2.3L108.3,25h-2.1l-1.2-4.8c-0.2-0.9-0.4-2.2-0.5-2.8h0c-0.1,0.6-0.3,1.8-0.5,2.8l-1.2,4.8h-2.1L98,15z"
	/>
<path class="st0" d="M112.1,22.1c0-2.3,1.4-3.3,4.5-3.3h0.7v-0.6c0-1.1-0.1-1.6-1.3-1.6c-1,0-1.9,0.4-2.8,0.9l-0.8-1.6
	c1.1-0.7,2.2-1.2,3.9-1.2c2.2,0,3.3,0.9,3.3,3.1V25h-1.8l-0.3-0.9c-0.6,0.6-1.3,1.1-2.4,1.1C113.1,25.3,112.1,24.1,112.1,22.1
	 M117.3,22.8v-2.5H117c-2.2,0-2.5,0.6-2.5,1.8c0,1.2,0.3,1.6,1.2,1.6C116.4,23.6,116.9,23.2,117.3,22.8"/>
<path class="st0" d="M124.3,24.1l-0.3,0.9h-1.8V10.5h2.3v5.3c0.6-0.6,1.5-1.1,2.5-1.1c2,0,3.4,1.1,3.4,5.1c0,4-1.1,5.4-3.4,5.4
	C125.9,25.3,124.9,24.7,124.3,24.1 M128,20c0-2.8-0.4-3.4-1.6-3.4c-0.8,0-1.4,0.4-1.9,0.9v5.2c0.4,0.4,1.1,0.8,1.7,0.8
	C127.6,23.4,128,22.9,128,20"/>
<path class="st0" d="M132.1,20c0-3.8,1.6-5.3,4.1-5.3c2.7,0,4,1.5,4,5.2v0.7h-5.6c0.1,2.3,0.6,2.8,2.1,2.8c1,0,1.7-0.4,2.3-0.9
	l1.1,1.6c-0.9,0.7-1.9,1.2-3.4,1.2C133.6,25.3,132.1,23.7,132.1,20 M134.6,19h3.3c0-1.9-0.4-2.6-1.6-2.6
	C135.2,16.4,134.7,16.9,134.6,19"/>
<path class="st0" d="M147.3,11.3h4c3,0,4.6,1.3,4.6,4.2c0,2.7-1.1,4.4-4.4,4.4h-1.8V25h-2.4V11.3z M151.4,17.8c1.4,0,2-0.5,2-2.2
	c0-1.8-0.6-2.3-2-2.3h-1.7v4.5H151.4z"/>
<path class="st0" d="M158,10.5h2.3v5.3c0.7-0.7,1.6-1.2,2.7-1.2c1.6,0,2.5,0.7,2.5,2.6V25h-2.3v-7.1c0-1.1-0.3-1.3-1.1-1.3
	c-0.7,0-1.4,0.4-1.9,0.9V25H158V10.5z"/>
<path class="st0" d="M167.6,22.1c0-2.3,1.4-3.3,4.5-3.3h0.7v-0.6c0-1.1-0.1-1.6-1.3-1.6c-1,0-1.9,0.4-2.8,0.9l-0.8-1.6
	c1.1-0.7,2.2-1.2,3.9-1.2c2.2,0,3.3,0.9,3.3,3.1V25h-1.8l-0.3-0.9c-0.6,0.6-1.3,1.1-2.4,1.1C168.6,25.3,167.6,24.1,167.6,22.1
	 M172.8,22.8v-2.5h-0.4c-2.2,0-2.5,0.6-2.5,1.8c0,1.2,0.3,1.6,1.2,1.6C171.9,23.6,172.4,23.2,172.8,22.8"/>
<path class="st0" d="M177.8,15h1.8l0.3,1.3c0.7-0.9,1.6-1.5,2.6-1.5c0.2,0,0.5,0,0.6,0.1l-0.4,2.3c-0.2-0.1-0.5-0.2-0.8-0.2
	c-0.8,0-1.3,0.2-1.8,0.7V25h-2.3V15z"/>
<path class="st0" d="M184.8,15h1.8l0.2,1.1c0.8-0.8,1.7-1.3,2.8-1.3c1,0,1.7,0.4,2.1,1.3c0.9-0.8,1.8-1.3,2.9-1.3
	c1.5,0,2.4,0.7,2.4,2.6V25h-2.3v-7.1c0-1.1-0.3-1.3-1-1.3c-0.6,0-1.2,0.4-1.8,0.8V25h-2.3v-7.1c0-1.1-0.3-1.3-1-1.3
	c-0.6,0-1.2,0.4-1.8,0.9V25h-2.3V15z"/>
<path class="st0" d="M199.1,22.1c0-2.3,1.4-3.3,4.5-3.3h0.7v-0.6c0-1.1-0.1-1.6-1.3-1.6c-1,0-1.9,0.4-2.8,0.9l-0.8-1.6
	c1.1-0.7,2.2-1.2,3.9-1.2c2.2,0,3.3,0.9,3.3,3.1V25h-1.8l-0.3-0.9c-0.6,0.6-1.3,1.1-2.4,1.1C200.1,25.3,199.1,24.1,199.1,22.1
	 M204.3,22.8v-2.5h-0.4c-2.2,0-2.5,0.6-2.5,1.8c0,1.2,0.3,1.6,1.2,1.6C203.3,23.6,203.9,23.2,204.3,22.8"/>
<path class="st0" d="M70.2,32.5h3.3l1.9,6.4c0.4,1.2,0.5,2.3,0.6,3.1h0c0.1-0.8,0.2-1.9,0.5-3.1l1.8-6.4h3.4v13.8h-2.3v-7.1
	c0-2.3,0.1-4,0.2-4.7h0c-0.1,0.8-0.5,2.8-1,4.4l-1.6,5h-2.2l-1.6-4.8c-0.5-1.6-0.9-3.8-1-4.6h0c0.1,0.7,0.2,2.8,0.2,4.8v7h-2.1V32.5
	z"/>
<path class="st0" d="M84.2,41.2c0-3.8,1.6-5.3,4.1-5.3c2.7,0,4,1.5,4,5.2v0.7h-5.6c0.1,2.3,0.6,2.8,2.1,2.8c1,0,1.7-0.4,2.3-0.9
	l1.1,1.6c-0.9,0.7-1.9,1.2-3.4,1.2C85.7,46.5,84.2,45,84.2,41.2 M86,33.8l3.8-2.7l1.1,2l-4.2,2L86,33.8z M86.6,40.3h3.3
	c0-1.9-0.4-2.6-1.6-2.6C87.3,37.6,86.7,38.2,86.6,40.3"/>
<path class="st0" d="M96.5,40.8l-2.7-4.6h2.6l0.7,1.4c0.4,0.8,0.6,1.3,0.8,1.8h0c0.2-0.5,0.3-1.1,0.7-1.8l0.6-1.4h2.5l-2.7,4.6
	l3.1,5.5h-2.6l-1-2c-0.4-0.7-0.6-1.4-0.8-1.8h0c-0.2,0.5-0.4,1-0.8,1.8l-1,2h-2.5L96.5,40.8z"/>
<path class="st0" d="M104.4,37.9l-1.3-0.2v-1.5h3.6v10.1h-2.2V37.9z M104.1,33.3c0-0.8,0.6-1.5,1.4-1.5c0.8,0,1.5,0.6,1.5,1.5
	c0,0.8-0.6,1.5-1.5,1.5C104.7,34.7,104.1,34.1,104.1,33.3"/>
<path class="st0" d="M108.9,41.2c0-3.8,1.5-5.3,4.1-5.3c1.2,0,2.1,0.3,3,1.2l-1.2,1.5c-0.5-0.5-1-0.8-1.7-0.8
	c-1.3,0-1.8,0.5-1.8,3.4c0,2.8,0.5,3.5,1.9,3.5c0.8,0,1.2-0.4,1.7-0.8l1.1,1.5c-0.7,0.7-1.6,1.2-3,1.2
	C110.3,46.5,108.9,44.8,108.9,41.2"/>
<path class="st0" d="M117.4,41.2c0-3.8,1.6-5.3,4.2-5.3c2.6,0,4.3,1.5,4.3,5.3c0,3.8-1.6,5.3-4.2,5.3C119,46.5,117.4,45,117.4,41.2
	 M123.4,41.2c0-2.9-0.5-3.6-1.8-3.6c-1.3,0-1.8,0.7-1.8,3.6c0,2.8,0.5,3.6,1.8,3.6C122.9,44.8,123.4,44.1,123.4,41.2"/>
</svg>
