<!-- Generator: Adobe Illustrator 20.1.0, SVG Export Plug-In  -->
<svg version="1.1"
	 xmlns="http://www.w3.org/2000/svg" xmlns:xlink="http://www.w3.org/1999/xlink" xmlns:a="http://ns.adobe.com/AdobeSVGViewerExtensions/3.0/"
	 x="0px" y="0px" width="43.2px" height="11.6px" viewBox="0 0 43.2 11.6"
	 style="overflow:scroll;enable-background:new 0 0 43.2 11.6;" xml:space="preserve">
<style type="text/css">
	.st0{fill:#58595B;}
</style>
<defs>
</defs>
<g>
	<path class="st0" d="M4.2,0.3h2.5l4.2,11.1H8.3L7.5,8.9H3.3l-0.9,2.5H0L4.2,0.3z M4,7.1h2.9L5.5,3h0L4,7.1z"/>
	<path class="st0" d="M19.5,4c0-0.3-0.1-0.5-0.3-0.8c-0.1-0.2-0.3-0.4-0.5-0.6c-0.2-0.2-0.5-0.3-0.7-0.4c-0.3-0.1-0.6-0.1-0.9-0.1
		c-0.5,0-1,0.1-1.4,0.3c-0.4,0.2-0.7,0.5-0.9,0.9S14.4,4,14.3,4.4c-0.1,0.5-0.2,0.9-0.2,1.4c0,0.5,0.1,0.9,0.2,1.4
		c0.1,0.4,0.3,0.8,0.5,1.2C15,8.8,15.3,9,15.7,9.3c0.4,0.2,0.9,0.3,1.4,0.3c0.7,0,1.3-0.2,1.7-0.7c0.4-0.5,0.7-1.1,0.8-1.8H22
		c-0.1,0.7-0.2,1.3-0.5,1.9s-0.6,1-1,1.4c-0.4,0.4-0.9,0.7-1.5,0.9c-0.6,0.2-1.2,0.3-1.9,0.3c-0.9,0-1.6-0.2-2.3-0.5
		s-1.2-0.7-1.7-1.2c-0.5-0.5-0.8-1.1-1.1-1.8c-0.2-0.7-0.4-1.5-0.4-2.3c0-0.8,0.1-1.6,0.4-2.3c0.2-0.7,0.6-1.3,1.1-1.9
		c0.5-0.5,1-0.9,1.7-1.2C15.5,0.2,16.3,0,17.1,0c0.6,0,1.2,0.1,1.7,0.3s1,0.4,1.5,0.8c0.4,0.3,0.8,0.8,1.1,1.3
		c0.3,0.5,0.5,1.1,0.5,1.7H19.5z"/>
	<path class="st0" d="M26.4,2.3h-3.3V0.3h9.1v2.1h-3.3v9h-2.4V2.3z"/>
	<path class="st0" d="M33.8,0.3h2.4v4.3h4.5V0.3h2.4v11.1h-2.4V6.6h-4.5v4.8h-2.4V0.3z"/>
</g>
</svg>
