<!-- Generator: Adobe Illustrator 20.1.0, SVG Export Plug-In  -->
<svg version="1.1"
	 xmlns="http://www.w3.org/2000/svg" xmlns:xlink="http://www.w3.org/1999/xlink" xmlns:a="http://ns.adobe.com/AdobeSVGViewerExtensions/3.0/"
	 x="0px" y="0px" width="25.3px" height="30.9px" viewBox="0 0 25.3 30.9"
	 style="overflow:scroll;enable-background:new 0 0 25.3 30.9;" xml:space="preserve">
<style type="text/css">
	.st0{fill:#FFFFFF;}
</style>
<defs>
</defs>
<g id="XMLID_1_">
	<g id="XMLID_8_">
		<path id="XMLID_9_" class="st0" d="M20.9,30.6c-2.4,0.7-5,0.1-7.3-0.6c-0.6-0.2-1.2-0.4-1.8-0.6c-0.6-0.2-1.3-0.5-1.9-0.8
			c-0.3-0.2-0.5-0.3-0.8-0.5c-0.2-0.1-0.6-0.3-0.7-0.5c-0.2-0.4-0.4-0.7-0.6-1c-0.7-0.9-1.6-1.8-2.2-2.8c-0.6-1.2-0.8-2.6-0.3-3.9
			c0.4-1.3,1.3-2.4,1.8-3.6c0.3-0.8,0.5-1.7,0.4-2.5c0-0.3,0-0.5-0.1-0.7c0-0.1-0.1-0.2-0.1-0.3c0-0.1-0.3-0.3-0.3-0.4
			c0.2-0.3,0.3-0.6,0.3-1c0.1-0.6,0.2-1.2,0.4-1.7C7.8,9.1,7.9,8.7,8,8.3c0,0,0,0,0-0.1c0-0.1,0-0.1,0-0.2c0.1-0.1,0.1-0.3,0.2-0.4
			c0.2-0.3,0.3-0.6,0.5-0.8c0.4-0.6,0.9-1.1,1.3-1.6c0.4-0.6,0.5-1.1,0.3-1.7c-0.2-0.6-0.5-1.3-0.7-2C9.6,1.3,9.7,1,9.9,1
			c0.2-0.1,0.6-0.2,0.8-0.1c0.4,0.1,0.5,0.9,0.7,1.2c0.2,0.5,0.5,1,1,1.4c0.1,0.1,0.5,0.5,0.6,0.3C13,3.3,13.1,3,13.1,2.6
			c0-0.7-0.2-1.4-0.2-2.1C12.9,0.3,13,0,13.3,0c0.2,0,0.6,0,0.8,0.1c0.2,0.1,0.2,0.4,0.2,0.6c0,0.3,0.1,0.7,0.1,1
			c0.1,0.3,0.2,0.5,0.3,0.7C14.7,2.7,14.8,3,15,3.1c0,0.1,0.4,0.4,0.4,0.2c0-0.3,0.1-0.6,0.1-0.9c0.1-0.5,0.1-1.1,0.1-1.6
			c0-0.2,0.1-0.3,0.3-0.2c0.2,0,0.5,0,0.7,0.1c0.3,0.3,0.1,0.9,0.2,1.3c0,0.6,0.1,1.1,0.3,1.6c0.2,0.5,0.7,0.8,1.1,1.1
			C18.5,5,19,5.3,19.3,5.8c-1,0.3-2.1,0-3.1,0.1c-0.6,0-1.3,0.2-1.8,0.6c-0.4,0.3-0.7,0.7-0.9,1.1c-0.4,0.5-0.8,1-1.3,1.3
			c-0.5,0.3-1.1,0.6-1.7,0.8C10,10,9.4,10.2,8.9,10.5c-0.3,0.1-0.5,0.3-0.7,0.5C8.1,11.2,8,11.3,8,11.4c0,0.1,0.2,0.1,0.2,0
			c0.1-0.1,0.1-0.1,0.1-0.2c0.1-0.1,0.2-0.2,0.3-0.2c0.3-0.2,0.6-0.3,0.9-0.4c0.5-0.2,1.1-0.4,1.6-0.6c0.5-0.2,1.1-0.4,1.6-0.7
			c0.5-0.3,1-0.8,1.4-1.4c0.3-0.4,0.5-0.8,0.9-1c0.5-0.4,1.1-0.5,1.7-0.5c0.6,0,1.3,0,1.9-0.1c0.3,0,0.6-0.1,0.8-0.2
			C19.4,6,19.5,6,19.6,6c0.2,0,0.3,0,0.5,0c0.3,0,0.7,0,1,0c0.3,0,0.7,0,1,0.1c0.5,0.2,0.8,1,0.2,1.3c-0.3,0.1-0.6,0.2-0.9,0.3
			c-0.4,0.1-0.7,0.2-1.1,0.3c-0.7,0.2-1.3,0.4-2,0.5c-0.1,0-0.3,0-0.4,0.1c-0.1,0-0.2,0-0.2,0c-0.2,0-0.4,0.2-0.5,0.4
			c-0.2,0.6,0,1.3,0.3,1.7c0.4,0.5,1,0.8,1.5,1.2c0.6,0.3,1.1,0.7,1.6,1.1c0.2,0.1,0.3,0.2,0.5,0.4c0,0,0.1,0.1,0.2,0.1
			c0.1,0.1,0.3,0.3,0.4,0.4c0.5,0.5,0.9,1,1.4,1.5c0.4,0.5,0.8,0.9,1.1,1.4c0.3,0.5,0.5,1,0.6,1.5c0.7,2.5,0.8,5.2,0.2,7.6
			c-0.2,1-0.6,2.1-1.2,3c-0.6,0.8-1.4,1.3-2.3,1.6C21.3,30.5,21.1,30.5,20.9,30.6C19.1,31.1,21.1,30.5,20.9,30.6z M16.3,24.7
			c0.6,0.2,1.3,0,1.9,0.1c0.7,0,1.3,0.3,1.9,0.6c0.4,0.3,0.7,0.6,1.1,0.9c0.3,0.3,0.7,0.6,0.9,0.9c0.1,0.2,0.6,0.7,0.8,0.7
			c0.1,0,0.2-0.2,0.1-0.3c0,0-0.1-0.1-0.2-0.1c-0.1-0.1-0.3-0.2-0.4-0.4c-0.5-0.6-1.2-1.2-1.8-1.7c-0.7-0.6-1.6-0.9-2.5-1
			c-0.4,0-0.9,0-1.3,0c-0.2,0-0.4-0.1-0.5-0.1C16.1,24,16.1,24,16,23.7c-0.4-1.7,0-3.5-0.1-5.2c0.6,0.3,1.2,0.4,1.8,0.6
			c0.6,0.2,1.2,0.4,1.8,0.8c0.6,0.4,1.1,0.8,1.4,1.4c0.1,0.1,0.2,0.4,0.4,0.2c0.1-0.1-0.1-0.4-0.1-0.5c-0.1-0.2-0.3-0.5-0.5-0.7
			C20,19.6,19,19.1,18,18.8c-0.6-0.2-1.2-0.4-1.7-0.6c-0.1,0-0.2-0.1-0.3-0.2c0-0.1,0-0.2,0-0.3c0-0.2-0.1-0.4-0.1-0.7
			c-0.1-0.8-0.5-1.5-0.9-2.2c-0.3-0.6-0.6-1.1-0.8-1.8c-0.2-0.6-0.2-1.3-0.2-1.9c0-0.4,0-0.7,0.1-1.1c0.1-0.5,0.4-1.1,0.7-1.5
			c0.1-0.1,0.3-0.3,0.2-0.4c-0.1-0.3-0.5,0.2-0.5,0.3c-0.4,0.4-0.7,0.9-0.9,1.5c-0.1,0.3-0.1,0.7-0.1,1c0,0.6,0,1.3,0.1,1.9
			c0.1,0.3,0.1,0.6,0.2,1c0,0.1,0.1,0.2,0.1,0.3c0,0.1-0.1,0.2-0.2,0.3c-0.3,0.6-0.8,1-1.2,1.5c-0.7,0.9-1.4,2-1.4,3.2
			c0,0.2,0,0.4,0,0.6c0,0.1,0.1,0.2,0.2,0.1c0.1,0,0.1-0.1,0.1-0.2c0-0.5,0-1.1,0.2-1.6c0.2-0.6,0.6-1.2,1.1-1.7
			c0.5-0.6,1-1.1,1.4-1.7c0.3,0.5,0.6,1,0.8,1.6c0.1,0.3,0.2,0.5,0.3,0.8c0.3,1,0.2,2.1,0.1,3.1c0,0.3,0,0.6,0,0.9
			c0,0.2-0.2,0.4-0.3,0.6c-0.2,0.2-0.4,0.5-0.5,0.7c-0.4,0.5-0.8,1.1-1.2,1.7c-0.3,0.6-0.5,1.2-0.4,1.9c0,0.6,0.4,1.1,0.7,1.5
			c0.2,0.2,0.3,0.5,0.5,0.7c0.1,0.1,0.2,0.1,0.2,0c0.2-0.1,0.1-0.3,0-0.4c-0.3-0.5-0.7-1-0.9-1.6c-0.1-0.4-0.1-0.7,0-1.1
			c0.1-0.7,0.6-1.4,1.1-2c0.3-0.4,0.6-0.8,0.9-1.2c0,1.1,0.2,2.3,0.7,3.3c0.5,1,1.2,1.9,2.1,2.5c0.3,0.2,0.6,0.4,0.9,0.6
			c0.2,0.1,0.4-0.1,0.3-0.3c-0.1-0.1-0.2-0.1-0.3-0.2c-0.9-0.6-1.7-1.4-2.2-2.3C16.5,25.3,16.4,25,16.3,24.7
			C16.5,24.8,16.4,25,16.3,24.7z"/>
	</g>
	<g id="XMLID_6_">
		<path id="XMLID_7_" class="st0" d="M4.9,23.5c-0.6-0.1-1.2-0.3-1.8-0.5c-0.5-0.2-0.9-0.5-1.4-0.7c0,0-0.1,0-0.1,0
			c-0.1-0.1-0.1-0.1-0.1-0.2c-0.1-0.1-0.2-0.2-0.3-0.3c-0.2-0.2-0.4-0.5-0.5-0.8c-1.1-2.1-0.6-4.8,0.7-6.7c0.7-1,1.7-1.9,2-3.2
			C3.5,10.4,3.4,9.7,3.5,9c0-0.5,0-1,0-1.5c0-0.3,0-0.5,0.3-0.7C4,6.6,4.3,6.5,4.6,6.5c0.7-0.2,1.3-0.2,2-0.2c0.3,0,0.5,0.1,0.6,0.4
			C7.3,7,7.4,7.3,7.5,7.7c0.1,0.2,0.2,0.4,0.1,0.6C7.6,8.6,7.5,8.8,7.4,9.1C7,10,6.8,10.9,6.5,11.9c-0.2-0.1-0.5-0.2-0.7-0.2
			c-0.1,0-0.4,0.1-0.2,0.2c0.4,0.3,1,0.5,1.1,1c0.2,0.6,0.1,1.5-0.1,2.1c-0.3,1.3-1.1,2.4-1.6,3.7c-0.5,1.3-0.7,2.7-0.4,4.1
			C4.7,23,4.8,23.3,4.9,23.5C4.9,23.5,4.9,23.5,4.9,23.5C4.8,23.5,4.9,23.5,4.9,23.5z"/>
	</g>
	<g id="XMLID_4_">
		<path id="XMLID_5_" class="st0" d="M23.4,13c-0.2,0-0.5-0.1-0.7-0.2c-0.3-0.1-0.6-0.2-0.9-0.1c-0.1,0-0.2,0.1-0.4,0.2
			c-0.1,0-0.1,0.1-0.2,0.1c0,0-0.1-0.1-0.1-0.1c-0.2-0.2-0.5-0.4-0.7-0.6c-0.5-0.4-1.1-0.7-1.6-1.1c-0.5-0.3-1-0.7-1.2-1.3
			c-0.1-0.3-0.1-0.6-0.1-0.8c0-0.3,0.3-0.3,0.5-0.2c0.6,0.1,1.2,0.4,1.8,0.6c0.6,0.2,1.2,0.5,1.8,0.6c0.3,0.1,0.6,0.1,0.9-0.1
			c0.3-0.1,0.6-0.3,0.9-0.4c0.2-0.1,0.4,0.1,0.5,0.3c0.1,0.3,0,0.5-0.2,0.6c-0.6,0.4-1.3,0.7-1.9,1c-0.3,0.1,0.4,0.3,0.5,0.3
			c0.4,0.1,0.7,0.2,1.1,0.3c0.1,0,0.4,0.1,0.4,0.2c0.1,0.2,0,0.2,0,0.4C23.7,12.7,23.6,12.9,23.4,13L23.4,13z"/>
	</g>
	<g id="XMLID_2_">
		<path id="XMLID_3_" class="st0" d="M6.4,29.3c-0.4,0.1-1,0.2-1.4-0.1c-0.4-0.4-0.6-1.1-0.7-1.6c-0.2-0.7-0.3-1.3-0.5-2
			c-0.1-0.3-0.2-0.7-0.3-1c-0.1-0.3-0.1-0.7-0.3-1c0.6,0.2,1.2,0.3,1.9,0.4c0.1,0,0.2,0.1,0.2,0.2c0.1,0.1,0.2,0.3,0.2,0.4
			c0.2,0.2,0.4,0.5,0.6,0.7c0.2,0.2,0.4,0.4,0.6,0.6c0.5,0.5,1,1,1.3,1.6c0,0.1,0,0.1,0.1,0.2c0,0.1,0,0.2,0,0.3
			c-0.1,0.2-0.1,0.4-0.2,0.5C7.5,29,6.9,29.1,6.4,29.3L6.4,29.3C5.6,29.5,6.4,29.3,6.4,29.3z"/>
	</g>
</g>
</svg>
