<!-- Generator: Adobe Illustrator 20.1.0, SVG Export Plug-In  -->
<svg version="1.1"
	 xmlns="http://www.w3.org/2000/svg" xmlns:xlink="http://www.w3.org/1999/xlink" xmlns:a="http://ns.adobe.com/AdobeSVGViewerExtensions/3.0/"
	 x="0px" y="0px" width="63.9px" height="11.8px" viewBox="0 0 63.9 11.8"
	 style="overflow:scroll;enable-background:new 0 0 63.9 11.8;" xml:space="preserve">
<style type="text/css">
	.st0{fill:#58595B;}
</style>
<defs>
</defs>
<g>
	<g>
		<path class="st0" d="M7.9,4.2c0-0.3-0.1-0.5-0.3-0.8C7.5,3.1,7.3,2.9,7.1,2.8C6.8,2.6,6.6,2.5,6.3,2.4C6,2.3,5.8,2.2,5.5,2.2
			c-0.5,0-1,0.1-1.4,0.3C3.7,2.7,3.4,3,3.1,3.4S2.7,4.1,2.6,4.6C2.5,5.1,2.4,5.5,2.4,6c0,0.5,0.1,0.9,0.2,1.4
			c0.1,0.4,0.3,0.8,0.5,1.2c0.2,0.4,0.5,0.6,0.9,0.8c0.4,0.2,0.9,0.3,1.4,0.3c0.7,0,1.3-0.2,1.7-0.7S7.9,8,8,7.2h2.4
			c-0.1,0.7-0.2,1.3-0.5,1.9s-0.6,1-1,1.4c-0.4,0.4-0.9,0.7-1.5,0.9c-0.6,0.2-1.2,0.3-1.9,0.3c-0.9,0-1.6-0.2-2.3-0.5
			s-1.2-0.7-1.7-1.2C1,9.6,0.6,9,0.4,8.3C0.1,7.6,0,6.8,0,6c0-0.8,0.1-1.6,0.4-2.3S1,2.4,1.4,1.9c0.5-0.5,1-0.9,1.7-1.2
			c0.7-0.3,1.4-0.5,2.3-0.5c0.6,0,1.2,0.1,1.7,0.3c0.5,0.2,1,0.4,1.5,0.8c0.4,0.3,0.8,0.8,1.1,1.3c0.3,0.5,0.5,1.1,0.5,1.7H7.9z"/>
		<path class="st0" d="M11.8,7.5c0-0.6,0.1-1.2,0.3-1.7c0.2-0.5,0.5-1,0.8-1.3c0.4-0.4,0.8-0.7,1.3-0.9s1.1-0.3,1.7-0.3
			s1.2,0.1,1.7,0.3s1,0.5,1.3,0.9c0.4,0.4,0.6,0.8,0.8,1.3c0.2,0.5,0.3,1.1,0.3,1.7S20,8.7,19.9,9.3c-0.2,0.5-0.5,1-0.8,1.3
			c-0.4,0.4-0.8,0.7-1.3,0.9c-0.5,0.2-1.1,0.3-1.7,0.3s-1.2-0.1-1.7-0.3c-0.5-0.2-0.9-0.5-1.3-0.9c-0.4-0.4-0.6-0.8-0.8-1.3
			C11.9,8.7,11.8,8.2,11.8,7.5z M14,7.5c0,0.3,0,0.6,0.1,0.9c0.1,0.3,0.2,0.6,0.3,0.8s0.3,0.4,0.6,0.6s0.6,0.2,0.9,0.2
			s0.7-0.1,0.9-0.2s0.5-0.3,0.6-0.6s0.3-0.5,0.3-0.8s0.1-0.6,0.1-0.9s0-0.6-0.1-0.9c-0.1-0.3-0.2-0.6-0.3-0.8
			c-0.2-0.2-0.4-0.4-0.6-0.6S16.4,4.9,16,4.9S15.3,5,15,5.2s-0.4,0.3-0.6,0.6c-0.2,0.2-0.3,0.5-0.3,0.8C14.1,6.9,14,7.2,14,7.5z"/>
		<path class="st0" d="M21.9,3.5H24V5h0c0.1-0.2,0.2-0.5,0.4-0.7c0.2-0.2,0.4-0.4,0.6-0.5c0.2-0.2,0.5-0.3,0.7-0.3s0.5-0.1,0.8-0.1
			c0.2,0,0.3,0,0.5,0.1v2.1c-0.1,0-0.2,0-0.4-0.1c-0.1,0-0.3,0-0.4,0c-0.4,0-0.7,0.1-1,0.2c-0.3,0.1-0.5,0.3-0.7,0.6
			c-0.2,0.2-0.3,0.5-0.4,0.8c-0.1,0.3-0.1,0.7-0.1,1v3.6h-2.2V3.5z"/>
		<path class="st0" d="M31,3.5h1.6V5H31v4c0,0.4,0.1,0.6,0.2,0.7c0.1,0.1,0.4,0.2,0.7,0.2c0.2,0,0.5,0,0.7-0.1v1.7
			c-0.2,0-0.4,0.1-0.6,0.1c-0.2,0-0.5,0-0.7,0c-0.3,0-0.7,0-1-0.1s-0.6-0.1-0.8-0.3c-0.2-0.1-0.4-0.3-0.6-0.6
			c-0.1-0.2-0.2-0.6-0.2-1V5h-1.3V3.5h1.3V1.1H31V3.5z"/>
		<path class="st0" d="M36.3,2.2h-2.2V0.4h2.2V2.2z M34.1,3.5h2.2v8h-2.2V3.5z"/>
		<path class="st0" d="M40.1,8.9c0,0.2,0,0.4,0.1,0.6c0.1,0.2,0.2,0.3,0.4,0.4c0.2,0.1,0.3,0.2,0.5,0.2s0.4,0.1,0.6,0.1
			c0.2,0,0.3,0,0.5-0.1s0.3-0.1,0.5-0.2c0.1-0.1,0.3-0.2,0.3-0.3c0.1-0.1,0.1-0.3,0.1-0.5c0-0.2-0.1-0.3-0.2-0.4s-0.3-0.2-0.5-0.3
			c-0.2-0.1-0.5-0.2-0.8-0.3c-0.3-0.1-0.7-0.2-1.1-0.2c-0.3-0.1-0.6-0.2-0.9-0.3s-0.6-0.2-0.8-0.4c-0.2-0.2-0.4-0.4-0.6-0.6
			c-0.1-0.2-0.2-0.5-0.2-0.9c0-0.5,0.1-0.9,0.3-1.3s0.5-0.6,0.8-0.8c0.3-0.2,0.7-0.3,1.1-0.4c0.4-0.1,0.8-0.1,1.3-0.1s0.9,0,1.3,0.1
			c0.4,0.1,0.8,0.2,1.1,0.4c0.3,0.2,0.6,0.5,0.8,0.8c0.2,0.3,0.3,0.7,0.4,1.2h-2.1c0-0.4-0.2-0.7-0.5-0.9c-0.3-0.2-0.6-0.2-1-0.2
			c-0.1,0-0.3,0-0.4,0c-0.1,0-0.3,0-0.4,0.1S40.6,5,40.5,5.1s-0.1,0.2-0.1,0.4c0,0.2,0.1,0.4,0.2,0.5c0.1,0.1,0.3,0.2,0.6,0.3
			c0.2,0.1,0.5,0.1,0.8,0.2c0.3,0.1,0.6,0.1,0.9,0.2c0.3,0.1,0.6,0.2,0.9,0.3s0.6,0.2,0.8,0.4C44.9,7.5,45,7.7,45.2,8
			c0.1,0.3,0.2,0.6,0.2,0.9c0,0.5-0.1,1-0.3,1.3c-0.2,0.4-0.5,0.6-0.8,0.9c-0.3,0.2-0.7,0.4-1.2,0.5c-0.4,0.1-0.9,0.1-1.3,0.1
			c-0.5,0-0.9,0-1.4-0.1c-0.4-0.1-0.8-0.3-1.2-0.5c-0.3-0.2-0.6-0.5-0.9-0.9C38.1,9.9,38,9.4,38,8.9H40.1z"/>
		<path class="st0" d="M46.8,7.5c0-0.6,0.1-1.2,0.3-1.7c0.2-0.5,0.5-1,0.8-1.3c0.4-0.4,0.8-0.7,1.3-0.9s1.1-0.3,1.7-0.3
			s1.2,0.1,1.7,0.3s1,0.5,1.3,0.9c0.4,0.4,0.6,0.8,0.8,1.3c0.2,0.5,0.3,1.1,0.3,1.7S55,8.7,54.8,9.3c-0.2,0.5-0.5,1-0.8,1.3
			c-0.4,0.4-0.8,0.7-1.3,0.9c-0.5,0.2-1.1,0.3-1.7,0.3s-1.2-0.1-1.7-0.3c-0.5-0.2-0.9-0.5-1.3-0.9c-0.4-0.4-0.6-0.8-0.8-1.3
			C46.9,8.7,46.8,8.2,46.8,7.5z M49,7.5c0,0.3,0,0.6,0.1,0.9c0.1,0.3,0.2,0.6,0.3,0.8s0.3,0.4,0.6,0.6s0.6,0.2,0.9,0.2
			s0.7-0.1,0.9-0.2s0.5-0.3,0.6-0.6s0.3-0.5,0.3-0.8s0.1-0.6,0.1-0.9s0-0.6-0.1-0.9c-0.1-0.3-0.2-0.6-0.3-0.8
			c-0.2-0.2-0.4-0.4-0.6-0.6s-0.6-0.2-0.9-0.2S50.2,5,50,5.2s-0.4,0.3-0.6,0.6c-0.2,0.2-0.3,0.5-0.3,0.8C49,6.9,49,7.2,49,7.5z"/>
		<path class="st0" d="M56.9,0.4h2.2v11.1h-2.2V0.4z"/>
		<path class="st0" d="M63.9,6.3h-1.3V2.2H61v-1c0.2,0,0.4,0,0.6,0c0.2,0,0.4-0.1,0.6-0.2s0.3-0.2,0.4-0.4c0.1-0.2,0.2-0.4,0.2-0.6
			h1V6.3z"/>
	</g>
</g>
</svg>
