<!-- Generator: Adobe Illustrator 20.1.0, SVG Export Plug-In  -->
<svg version="1.1"
	 xmlns="http://www.w3.org/2000/svg" xmlns:xlink="http://www.w3.org/1999/xlink" xmlns:a="http://ns.adobe.com/AdobeSVGViewerExtensions/3.0/"
	 x="0px" y="0px" width="60.3px" height="12.5px" viewBox="0 0 60.3 12.5"
	 style="overflow:scroll;enable-background:new 0 0 60.3 12.5;" xml:space="preserve">
<style type="text/css">
	.st0{fill:#F18A21;}
</style>
<defs>
</defs>
<g>
	<path class="st0" d="M0,0.4h8.3v2.2H2.6v2.7h5v2h-5v4.9H0V0.4z"/>
	<path class="st0" d="M11.6,2.7H9.9l1.6-2.4h2.6L11.6,2.7z M10,3.7h2.4v8.6H10V3.7z"/>
	<path class="st0" d="M16.4,9.5c0,0.3,0.1,0.5,0.2,0.7s0.2,0.3,0.4,0.4c0.2,0.1,0.4,0.2,0.6,0.3c0.2,0.1,0.4,0.1,0.7,0.1
		c0.2,0,0.3,0,0.5-0.1c0.2,0,0.3-0.1,0.5-0.2c0.1-0.1,0.3-0.2,0.4-0.3c0.1-0.1,0.1-0.3,0.1-0.5c0-0.2-0.1-0.3-0.2-0.5
		c-0.1-0.1-0.3-0.2-0.5-0.3c-0.2-0.1-0.5-0.2-0.8-0.3S17.5,8.6,17,8.5c-0.3-0.1-0.7-0.2-1-0.3c-0.3-0.1-0.6-0.2-0.9-0.4
		c-0.3-0.2-0.5-0.4-0.6-0.6c-0.2-0.3-0.2-0.6-0.2-1c0-0.5,0.1-1,0.3-1.4c0.2-0.4,0.5-0.6,0.9-0.8c0.4-0.2,0.8-0.3,1.2-0.4
		c0.4-0.1,0.9-0.1,1.4-0.1s0.9,0,1.4,0.1c0.4,0.1,0.8,0.2,1.2,0.4c0.3,0.2,0.6,0.5,0.9,0.8s0.4,0.8,0.4,1.3h-2.2
		c0-0.5-0.2-0.8-0.5-0.9c-0.3-0.2-0.7-0.2-1.1-0.2c-0.1,0-0.3,0-0.4,0c-0.2,0-0.3,0.1-0.4,0.1c-0.1,0.1-0.2,0.1-0.3,0.2
		c-0.1,0.1-0.1,0.2-0.1,0.4c0,0.2,0.1,0.4,0.2,0.5c0.2,0.1,0.4,0.2,0.6,0.3s0.5,0.2,0.9,0.2s0.6,0.1,1,0.2c0.3,0.1,0.7,0.2,1,0.3
		c0.3,0.1,0.6,0.3,0.9,0.4c0.3,0.2,0.5,0.4,0.6,0.7c0.2,0.3,0.2,0.6,0.2,1c0,0.6-0.1,1-0.3,1.4c-0.2,0.4-0.5,0.7-0.9,0.9
		s-0.8,0.4-1.3,0.5c-0.5,0.1-0.9,0.1-1.4,0.1c-0.5,0-1,0-1.5-0.1c-0.5-0.1-0.9-0.3-1.3-0.5c-0.4-0.2-0.7-0.6-0.9-0.9
		c-0.2-0.4-0.4-0.9-0.4-1.4H16.4z"/>
	<path class="st0" d="M26.2,2.4h-2.4V0.4h2.4V2.4z M23.9,3.7h2.4v8.6h-2.4V3.7z"/>
	<path class="st0" d="M34.2,6.7c-0.2-1-0.7-1.5-1.7-1.5c-0.4,0-0.7,0.1-0.9,0.3c-0.3,0.2-0.5,0.4-0.6,0.7s-0.3,0.6-0.3,0.9
		c-0.1,0.3-0.1,0.7-0.1,1c0,0.3,0,0.6,0.1,0.9c0.1,0.3,0.2,0.6,0.3,0.9c0.1,0.3,0.4,0.5,0.6,0.6c0.3,0.2,0.6,0.2,0.9,0.2
		c0.6,0,1-0.2,1.3-0.5s0.5-0.7,0.6-1.3h2.3c-0.2,1.1-0.6,2-1.3,2.6c-0.7,0.6-1.7,0.9-2.8,0.9c-0.7,0-1.2-0.1-1.8-0.3
		c-0.5-0.2-1-0.5-1.4-0.9c-0.4-0.4-0.7-0.9-0.9-1.4c-0.2-0.5-0.3-1.1-0.3-1.8c0-0.7,0.1-1.3,0.3-1.9s0.5-1.1,0.9-1.5
		c0.4-0.4,0.8-0.7,1.4-1c0.5-0.2,1.2-0.3,1.9-0.3c0.5,0,1,0.1,1.5,0.2c0.5,0.1,0.9,0.3,1.3,0.6c0.4,0.3,0.7,0.6,0.9,1
		c0.2,0.4,0.4,0.9,0.4,1.4H34.2z"/>
	<path class="st0" d="M38.2,6.4c0-0.6,0.2-1,0.4-1.4c0.2-0.4,0.6-0.7,0.9-0.9c0.4-0.2,0.8-0.4,1.3-0.5c0.5-0.1,0.9-0.1,1.4-0.1
		c0.4,0,0.9,0,1.3,0.1c0.4,0.1,0.8,0.2,1.2,0.4c0.4,0.2,0.7,0.4,0.9,0.7C45.8,5,46,5.4,46,5.9v4.5c0,0.4,0,0.8,0.1,1.1
		c0,0.4,0.1,0.6,0.2,0.8h-2.4c0-0.1-0.1-0.3-0.1-0.4c0-0.1,0-0.3-0.1-0.4c-0.4,0.4-0.8,0.7-1.3,0.8s-1,0.2-1.6,0.2
		c-0.4,0-0.8-0.1-1.1-0.2c-0.4-0.1-0.7-0.3-0.9-0.5c-0.3-0.2-0.5-0.5-0.6-0.8c-0.1-0.3-0.2-0.7-0.2-1.1c0-0.5,0.1-0.9,0.2-1.2
		s0.4-0.6,0.7-0.8c0.3-0.2,0.6-0.3,0.9-0.4c0.3-0.1,0.7-0.2,1.1-0.2c0.4-0.1,0.7-0.1,1-0.1s0.6-0.1,0.9-0.1C43,7,43.2,6.9,43.4,6.8
		c0.2-0.1,0.2-0.3,0.2-0.6c0-0.3,0-0.5-0.1-0.6s-0.2-0.3-0.3-0.3c-0.1-0.1-0.3-0.1-0.5-0.2c-0.2,0-0.4,0-0.6,0
		c-0.5,0-0.8,0.1-1.1,0.3c-0.3,0.2-0.4,0.5-0.5,1H38.2z M43.6,8.1c-0.1,0.1-0.2,0.2-0.4,0.2s-0.3,0.1-0.5,0.1
		c-0.2,0-0.4,0.1-0.5,0.1c-0.2,0-0.4,0-0.6,0.1c-0.2,0-0.4,0.1-0.5,0.1c-0.2,0.1-0.3,0.1-0.4,0.2c-0.1,0.1-0.2,0.2-0.3,0.4
		c-0.1,0.1-0.1,0.3-0.1,0.5c0,0.2,0,0.4,0.1,0.5c0.1,0.1,0.2,0.2,0.3,0.3c0.1,0.1,0.3,0.1,0.5,0.2c0.2,0,0.4,0,0.5,0
		c0.5,0,0.8-0.1,1.1-0.2c0.3-0.2,0.4-0.3,0.6-0.6s0.2-0.4,0.2-0.7c0-0.2,0-0.4,0-0.5V8.1z"/>
	<path class="st0" d="M49.9,9.5c0,0.3,0.1,0.5,0.2,0.7s0.2,0.3,0.4,0.4c0.2,0.1,0.4,0.2,0.6,0.3c0.2,0.1,0.4,0.1,0.7,0.1
		c0.2,0,0.3,0,0.5-0.1c0.2,0,0.3-0.1,0.5-0.2c0.1-0.1,0.3-0.2,0.4-0.3c0.1-0.1,0.1-0.3,0.1-0.5c0-0.2-0.1-0.3-0.2-0.5
		c-0.1-0.1-0.3-0.2-0.5-0.3c-0.2-0.1-0.5-0.2-0.8-0.3S51,8.6,50.6,8.5c-0.3-0.1-0.7-0.2-1-0.3C49.3,8.2,49,8,48.8,7.8
		c-0.3-0.2-0.5-0.4-0.6-0.6c-0.2-0.3-0.2-0.6-0.2-1c0-0.5,0.1-1,0.3-1.4c0.2-0.4,0.5-0.6,0.9-0.8c0.4-0.2,0.8-0.3,1.2-0.4
		c0.4-0.1,0.9-0.1,1.4-0.1s0.9,0,1.4,0.1c0.4,0.1,0.8,0.2,1.2,0.4c0.3,0.2,0.6,0.5,0.9,0.8s0.4,0.8,0.4,1.3h-2.2
		c0-0.5-0.2-0.8-0.5-0.9c-0.3-0.2-0.7-0.2-1.1-0.2c-0.1,0-0.3,0-0.4,0c-0.2,0-0.3,0.1-0.4,0.1c-0.1,0.1-0.2,0.1-0.3,0.2
		c-0.1,0.1-0.1,0.2-0.1,0.4c0,0.2,0.1,0.4,0.2,0.5c0.2,0.1,0.4,0.2,0.6,0.3s0.5,0.2,0.9,0.2s0.6,0.1,1,0.2c0.3,0.1,0.7,0.2,1,0.3
		c0.3,0.1,0.6,0.3,0.9,0.4c0.3,0.2,0.5,0.4,0.6,0.7c0.2,0.3,0.2,0.6,0.2,1c0,0.6-0.1,1-0.3,1.4c-0.2,0.4-0.5,0.7-0.9,0.9
		s-0.8,0.4-1.3,0.5c-0.5,0.1-0.9,0.1-1.4,0.1c-0.5,0-1,0-1.5-0.1c-0.5-0.1-0.9-0.3-1.3-0.5c-0.4-0.2-0.7-0.6-0.9-0.9
		c-0.2-0.4-0.4-0.9-0.4-1.4H49.9z"/>
	<path class="st0" d="M60.3,6.8h-1.4V2.4h-1.7v-1c0.2,0,0.5,0,0.7-0.1c0.2,0,0.4-0.1,0.6-0.2s0.3-0.2,0.5-0.4
		c0.1-0.2,0.2-0.4,0.2-0.6h1.1V6.8z"/>
</g>
</svg>
