<!-- Generator: Adobe Illustrator 20.1.0, SVG Export Plug-In  -->
<svg version="1.1"
	 xmlns="http://www.w3.org/2000/svg" xmlns:xlink="http://www.w3.org/1999/xlink" xmlns:a="http://ns.adobe.com/AdobeSVGViewerExtensions/3.0/"
	 x="0px" y="0px" width="73.5px" height="16.2px" viewBox="0 0 73.5 16.2"
	 style="overflow:scroll;enable-background:new 0 0 73.5 16.2;" xml:space="preserve">
<style type="text/css">
	.st0{fill:url(#XMLID_2_);}
	.st1{fill:#FFFFFF;}
	.st2{fill:url(#XMLID_3_);}
</style>
<defs>
</defs>
<linearGradient id="XMLID_2_" gradientUnits="userSpaceOnUse" x1="0" y1="8.0963" x2="73.473" y2="8.0963">
	<stop  offset="0.1678" style="stop-color:#F18A21"/>
	<stop  offset="1" style="stop-color:#F05A28"/>
</linearGradient>
<path id="XMLID_1_" class="st0" d="M71.5,16.2H2c-1.1,0-2-0.9-2-2V2c0-1.1,0.9-2,2-2h69.4c1.1,0,2,0.9,2,2v12.1
	C73.5,15.3,72.6,16.2,71.5,16.2z"/>
<g>
	<path class="st1" d="M3.9,2.2v4.2h5.8V2.2h0.9v9.7H9.7V7.2H3.9v4.7H3V2.2H3.9z"/>
	<path class="st1" d="M13.5,2.2v1.4h-0.9V2.2H13.5z M13.5,4.9v7h-0.9v-7H13.5z"/>
	<path class="st1" d="M16.2,4.9v1.3h0c0.2-0.5,0.5-0.9,1-1.1c0.4-0.3,1-0.4,1.5-0.4c0.5,0,1,0.1,1.4,0.3c0.4,0.2,0.7,0.5,1,0.8
		c0.3,0.3,0.5,0.7,0.6,1.2c0.1,0.4,0.2,0.9,0.2,1.4c0,0.5-0.1,1-0.2,1.4c-0.1,0.4-0.3,0.8-0.6,1.2c-0.3,0.3-0.6,0.6-1,0.8
		s-0.9,0.3-1.4,0.3c-0.3,0-0.5,0-0.8-0.1s-0.5-0.2-0.7-0.3s-0.4-0.3-0.6-0.5s-0.3-0.4-0.4-0.7h0v3.9h-0.9V4.9H16.2z M20.9,7.3
		c-0.1-0.4-0.2-0.7-0.4-1c-0.2-0.3-0.4-0.5-0.7-0.7c-0.3-0.2-0.6-0.3-1-0.3c-0.5,0-0.9,0.1-1.2,0.2S17,6,16.8,6.3s-0.3,0.6-0.4,1
		c-0.1,0.4-0.1,0.7-0.1,1.1c0,0.4,0,0.7,0.1,1.1c0.1,0.4,0.2,0.7,0.4,1c0.2,0.3,0.4,0.5,0.8,0.7c0.3,0.2,0.7,0.3,1.1,0.3
		c0.4,0,0.8-0.1,1-0.3c0.3-0.2,0.5-0.4,0.7-0.7c0.2-0.3,0.3-0.6,0.4-1c0.1-0.4,0.1-0.7,0.1-1.1S21,7.7,20.9,7.3z"/>
	<path class="st1" d="M27.9,5c0.4,0.2,0.8,0.5,1,0.8s0.5,0.7,0.6,1.2c0.1,0.4,0.2,0.9,0.2,1.4s-0.1,1-0.2,1.4
		c-0.1,0.4-0.4,0.8-0.6,1.2c-0.3,0.3-0.6,0.6-1,0.8c-0.4,0.2-0.9,0.3-1.4,0.3s-1-0.1-1.4-0.3c-0.4-0.2-0.8-0.5-1-0.8
		c-0.3-0.3-0.5-0.7-0.6-1.2c-0.1-0.4-0.2-0.9-0.2-1.4s0.1-1,0.2-1.4c0.1-0.4,0.4-0.8,0.6-1.2s0.6-0.6,1-0.8c0.4-0.2,0.9-0.3,1.4-0.3
		S27.5,4.8,27.9,5z M25.4,5.7c-0.3,0.2-0.6,0.4-0.8,0.7s-0.4,0.6-0.5,1C24.1,7.7,24,8,24,8.4c0,0.4,0.1,0.7,0.2,1.1
		c0.1,0.4,0.3,0.7,0.5,1c0.2,0.3,0.5,0.5,0.8,0.7c0.3,0.2,0.7,0.3,1.1,0.3s0.8-0.1,1.1-0.3c0.3-0.2,0.6-0.4,0.8-0.7
		c0.2-0.3,0.4-0.6,0.5-1C28.9,9.1,29,8.8,29,8.4c0-0.4-0.1-0.7-0.2-1.1c-0.1-0.4-0.3-0.7-0.5-1s-0.5-0.5-0.8-0.7
		c-0.3-0.2-0.7-0.3-1.1-0.3S25.7,5.5,25.4,5.7z"/>
	<path class="st1" d="M34.2,4.9v0.7h-1.4v4.7c0,0.3,0,0.5,0.1,0.7s0.3,0.2,0.6,0.3c0.2,0,0.5,0,0.7,0v0.7c-0.1,0-0.3,0-0.4,0
		c-0.1,0-0.3,0-0.4,0c-0.6,0-1-0.1-1.2-0.3c-0.2-0.2-0.3-0.6-0.3-1.2V5.6h-1.2V4.9h1.2V2.8h0.9v2.1H34.2z"/>
	<path class="st1" d="M35.8,6c0.1-0.3,0.3-0.5,0.6-0.7C36.7,5,37,4.9,37.3,4.8c0.3-0.1,0.7-0.1,1.1-0.1c0.3,0,0.6,0,0.9,0.1
		c0.3,0.1,0.6,0.2,0.8,0.3c0.2,0.2,0.4,0.4,0.6,0.7C40.9,6.1,41,6.5,41,6.9v3.7c0,0.3,0.2,0.5,0.5,0.5c0.1,0,0.2,0,0.3-0.1v0.7
		c-0.1,0-0.2,0-0.3,0c-0.1,0-0.2,0-0.3,0c-0.2,0-0.4,0-0.5-0.1s-0.2-0.1-0.3-0.3c-0.1-0.1-0.1-0.2-0.1-0.4c0-0.1,0-0.3,0-0.5h0
		c-0.2,0.2-0.3,0.4-0.5,0.6c-0.2,0.2-0.3,0.3-0.5,0.4s-0.4,0.2-0.7,0.3c-0.3,0.1-0.5,0.1-0.9,0.1c-0.3,0-0.6,0-0.9-0.1
		c-0.3-0.1-0.5-0.2-0.7-0.4c-0.2-0.2-0.4-0.4-0.5-0.6c-0.1-0.3-0.2-0.6-0.2-0.9c0-0.5,0.1-0.9,0.3-1.1c0.2-0.3,0.5-0.5,0.9-0.6
		C36.8,8.1,37.2,8,37.7,8c0.4-0.1,0.9-0.1,1.4-0.2c0.2,0,0.3,0,0.5-0.1c0.1,0,0.3-0.1,0.3-0.1C40,7.5,40,7.4,40.1,7.3
		c0-0.1,0.1-0.3,0.1-0.5c0-0.3,0-0.5-0.1-0.7c-0.1-0.2-0.2-0.3-0.4-0.4c-0.2-0.1-0.4-0.2-0.6-0.2c-0.2,0-0.5-0.1-0.7-0.1
		c-0.5,0-1,0.1-1.3,0.4C36.6,6,36.5,6.5,36.4,7h-0.9C35.6,6.6,35.7,6.3,35.8,6z M40.1,8.1c-0.1,0.1-0.2,0.2-0.3,0.2
		s-0.3,0.1-0.4,0.1c-0.4,0.1-0.7,0.1-1.1,0.2c-0.4,0.1-0.7,0.1-1.1,0.2c-0.3,0.1-0.6,0.2-0.8,0.4c-0.2,0.2-0.3,0.5-0.3,0.8
		c0,0.2,0,0.4,0.1,0.6c0.1,0.2,0.2,0.3,0.3,0.4c0.1,0.1,0.3,0.2,0.5,0.3c0.2,0.1,0.4,0.1,0.6,0.1c0.3,0,0.6,0,0.9-0.1
		c0.3-0.1,0.6-0.2,0.8-0.4c0.2-0.2,0.4-0.4,0.5-0.7s0.2-0.6,0.2-0.9L40.1,8.1L40.1,8.1z M37.6,3.9L39,2h1.1l-1.8,1.9H37.6z"/>
	<path class="st1" d="M43.9,2.2v9.7H43V2.2H43.9z"/>
	<path class="st1" d="M46,6c0.1-0.3,0.3-0.5,0.6-0.7c0.2-0.2,0.5-0.3,0.9-0.4c0.3-0.1,0.7-0.1,1.1-0.1c0.3,0,0.6,0,0.9,0.1
		c0.3,0.1,0.6,0.2,0.8,0.3c0.2,0.2,0.4,0.4,0.6,0.7c0.2,0.3,0.2,0.7,0.2,1.1v3.7c0,0.3,0.2,0.5,0.5,0.5c0.1,0,0.2,0,0.3-0.1v0.7
		c-0.1,0-0.2,0-0.3,0c-0.1,0-0.2,0-0.3,0c-0.2,0-0.4,0-0.5-0.1s-0.2-0.1-0.3-0.3c-0.1-0.1-0.1-0.2-0.1-0.4c0-0.1,0-0.3,0-0.5h0
		c-0.2,0.2-0.3,0.4-0.5,0.6c-0.2,0.2-0.3,0.3-0.5,0.4s-0.4,0.2-0.7,0.3c-0.3,0.1-0.5,0.1-0.9,0.1c-0.3,0-0.6,0-0.9-0.1
		c-0.3-0.1-0.5-0.2-0.7-0.4c-0.2-0.2-0.4-0.4-0.5-0.6c-0.1-0.3-0.2-0.6-0.2-0.9c0-0.5,0.1-0.9,0.3-1.1c0.2-0.3,0.5-0.5,0.9-0.6
		C47,8.1,47.4,8,47.8,8c0.4-0.1,0.9-0.1,1.4-0.2c0.2,0,0.3,0,0.5-0.1c0.1,0,0.3-0.1,0.3-0.1c0.1-0.1,0.2-0.2,0.2-0.3
		c0-0.1,0.1-0.3,0.1-0.5c0-0.3,0-0.5-0.1-0.7c-0.1-0.2-0.2-0.3-0.4-0.4c-0.2-0.1-0.4-0.2-0.6-0.2c-0.2,0-0.5-0.1-0.7-0.1
		c-0.5,0-1,0.1-1.3,0.4C46.8,6,46.6,6.5,46.6,7h-0.9C45.7,6.6,45.8,6.3,46,6z M50.3,8.1c-0.1,0.1-0.2,0.2-0.3,0.2s-0.3,0.1-0.4,0.1
		c-0.4,0.1-0.7,0.1-1.1,0.2c-0.4,0.1-0.7,0.1-1.1,0.2C47,8.9,46.8,9,46.6,9.2c-0.2,0.2-0.3,0.5-0.3,0.8c0,0.2,0,0.4,0.1,0.6
		c0.1,0.2,0.2,0.3,0.3,0.4c0.1,0.1,0.3,0.2,0.5,0.3c0.2,0.1,0.4,0.1,0.6,0.1c0.3,0,0.6,0,0.9-0.1c0.3-0.1,0.6-0.2,0.8-0.4
		c0.2-0.2,0.4-0.4,0.5-0.7s0.2-0.6,0.2-0.9L50.3,8.1L50.3,8.1z"/>
	<path class="st1" d="M53.9,4.9v1.2h0c0.2-0.4,0.5-0.8,0.9-1c0.4-0.2,0.8-0.4,1.4-0.4c0.5,0,0.9,0.1,1.3,0.3c0.4,0.2,0.6,0.6,0.8,1
		c0.2-0.5,0.5-0.8,0.9-1s0.8-0.3,1.3-0.3c1.6,0,2.3,0.8,2.3,2.5v4.8H62V7.2c0-0.6-0.1-1-0.4-1.3s-0.7-0.5-1.3-0.5
		c-0.4,0-0.7,0.1-0.9,0.2c-0.2,0.1-0.4,0.3-0.6,0.6c-0.1,0.2-0.2,0.5-0.3,0.8c-0.1,0.3-0.1,0.6-0.1,0.9v4h-0.9V7.1
		c0-0.2,0-0.5-0.1-0.7c0-0.2-0.1-0.4-0.2-0.6S57,5.6,56.8,5.5c-0.2-0.1-0.4-0.1-0.7-0.1c-0.4,0-0.7,0.1-0.9,0.2
		c-0.3,0.1-0.5,0.3-0.7,0.5c-0.2,0.2-0.3,0.5-0.4,0.8C54,7.3,54,7.6,54,8v3.9h-0.9v-7H53.9z"/>
	<path class="st1" d="M69.1,5c0.4,0.2,0.8,0.5,1,0.8s0.5,0.7,0.6,1.2C70.9,7.4,71,7.9,71,8.4s-0.1,1-0.2,1.4
		c-0.1,0.4-0.4,0.8-0.6,1.2c-0.3,0.3-0.6,0.6-1,0.8c-0.4,0.2-0.9,0.3-1.4,0.3s-1-0.1-1.4-0.3c-0.4-0.2-0.8-0.5-1-0.8
		c-0.3-0.3-0.5-0.7-0.6-1.2c-0.1-0.4-0.2-0.9-0.2-1.4s0.1-1,0.2-1.4c0.1-0.4,0.4-0.8,0.6-1.2s0.6-0.6,1-0.8c0.4-0.2,0.9-0.3,1.4-0.3
		S68.7,4.8,69.1,5z M66.6,5.7c-0.3,0.2-0.6,0.4-0.8,0.7s-0.4,0.6-0.5,1c-0.1,0.4-0.2,0.7-0.2,1.1c0,0.4,0.1,0.7,0.2,1.1
		c0.1,0.4,0.3,0.7,0.5,1c0.2,0.3,0.5,0.5,0.8,0.7c0.3,0.2,0.7,0.3,1.1,0.3s0.8-0.1,1.1-0.3c0.3-0.2,0.6-0.4,0.8-0.7
		c0.2-0.3,0.4-0.6,0.5-1c0.1-0.4,0.2-0.7,0.2-1.1c0-0.4-0.1-0.7-0.2-1.1c-0.1-0.4-0.3-0.7-0.5-1s-0.5-0.5-0.8-0.7
		c-0.3-0.2-0.7-0.3-1.1-0.3S66.9,5.5,66.6,5.7z"/>
</g>
</svg>
