<!-- Generator: Adobe Illustrator 20.1.0, SVG Export Plug-In  -->
<svg version="1.1"
	 xmlns="http://www.w3.org/2000/svg" xmlns:xlink="http://www.w3.org/1999/xlink" xmlns:a="http://ns.adobe.com/AdobeSVGViewerExtensions/3.0/"
	 x="0px" y="0px" width="218.7px" height="442.6px" viewBox="0 0 218.7 442.6"
	 style="overflow:scroll;enable-background:new 0 0 218.7 442.6;" xml:space="preserve">
<style type="text/css">
	.st0{opacity:0.71;fill:#929497;}
</style>
<defs>
</defs>
<path id="XMLID_1_" class="st0" d="M214.1,225.1c1.6,1.3,4.3,0.1,4.6-1.2c0.3-1.3-6.5-5.6-8.3-7.9c-1.8-2.2-3.7-4.1-7.7-6.1
	c-4-1.9-3.3-3-5-6.1c-1.8-3.1-3.6-11.7-6.1-16.7c-2.5-5-2.7-9-5.8-20.5c-3.1-11.4-8.1-19.3-8.1-19.3c-4.1-4.4-5.3-10.4-5.3-10.4
	c-0.3-5.8-3.7-18.8-3.7-18.8c-1.2-3-0.9-7.1-0.9-7.1c1-5.3,0.9-12.7,0.9-12.7c-3.7-29-27.9-23.1-27.9-23.1
	c-5.2-0.1-16.9-9.8-18.5-12.2c-1.6-2.4,0.8-14.3,1.3-15.1c3.2-5.4,8.5-9.3,10.3-19.3c0.9-5.2,1.8-22.2-14.2-27.4
	C111.6-1.2,87.9-2.8,88,23.4c0,2.1-4.1,4.6-5.1,6.4c-0.1,0.2-0.4,2,1.1,2.8c0.4,0.3,2.2,1.2,2.3,1.7c0.1,0.7-0.5,3.1-0.6,4.4
	c0,0.2,0,0.6,0.6,0.7c0.1,0-0.5,1.6,0,2.1c0.4,0.3,1.3,1,1.4,1.2c0.4,0.7-3.4,6.4-0.9,7.7c1.8,0.9,2.9,1.1,6.8,2.7
	c0.6,0.2,1.4,0.7,2.1,1.6c0.3,4,0.1,9.3,0.1,9.3c-9.5,8.7-19.9,11-19.9,11c-4.8-0.9-12.7,0.3-20.9,8.5c-8.2,8.2-5.2,21.6-5,24.8
	c0.2,3.2,0.2,9.2-0.6,11.4c-0.8,2.2-2.4,11.9-2.8,15.5c-0.4,3.6-4.8,10.5-6.5,13.1c-1.7,2.7-4.8,7.6-5.7,10.9
	c-1,3.3-3.4,17.3-4.4,21.3c-0.9,4-6.9,18.7-7.9,21c-1,2.3-4.3,7-5.1,7.8c-0.9,0.8-5.6,4.4-6.3,5.5c-0.7,1.1-4.9,4.5-5.7,5.1
	c-0.8,0.7-3,2.8-4.4,3.5c-1.3,0.8-0.7,1.5,0.7,2.2c1.3,0.7,4.9-0.5,6-1.4c1-0.9,3.1-2.6,3.1-2.6c-0.4,0.7-1.8,6.6-2.9,9.3
	c-1.1,2.8-4.8,9.1-4.8,9.1c-1.7,3.5,0.1,3.8,0.1,3.8c1,0.3,2.5-0.9,3.2-2c0.8-1.1,5.4-9,5.7-9.3c0.3-0.3,1-1.5,1.1-0.8
	c0.1,0.8-2,6.7-2.7,7.6c-0.7,0.9-2.9,6.9-2.9,6.9c-2.1,3.4,0.5,4.4,0.5,4.4c2.5,0.6,4.5-5.3,4.9-6.3c0.5-1,4.3-10.4,4.7-10.7
	c0.4-0.4,0.8-0.3,1,0.2c0.3,0.5-0.9,6.3-1.6,7.6c-0.8,1.3-2.4,8.1-2.4,8.1c-1,2.1,1.1,2.9,1.1,2.9c1,0.1,1.4-0.5,2.2-1.5
	c0.8-1,4.8-15.4,5.4-16.3c0.6-0.9,1-0.3,1-0.3c0.3,1.3-0.2,11.1-0.2,11.1c-0.8,2.3,1.5,2.8,1.5,2.8c1.7-0.4,1.7-2.8,1.7-2.8
	l0.7-11.8c0,0,2.5-2.5,4.6-10.1c2.1-7.6,2.5-15.2,7.2-24.9c4.6-9.7,11.4-21.1,16.4-29.1c5.1-8,3.4-11.8,5.5-18.1
	c2.1-6.3,8.8-23.6,8.8-23.6c0.8,2.1,6.3,24.9,5.9,30.8c-0.4,5.9-1.7,24.9-4.6,32.9c-2.9,8-4.6,27-6.7,42.1C63,249.1,71,291.2,71,295
	c0,3.8,1.7,13.9,0.4,20.6c-1.3,6.7-3.4,19.8-4.6,27.4c-1.3,7.6,5.1,45.5,5.5,51.4c0.4,5.9,0,15.6-0.8,16.9c-0.8,1.3-2.9,5.9-7.2,11
	c-4.2,5.1-12.6,8.8-12.6,8.8c-8,6.3,3.8,8.8,3.8,8.8c6.3,8,17.7-5.1,18.5-6.7c0.8-1.7,8-3.4,12.2-5.5c4.2-2.1,1.7-6.7,0-11
	c-1.7-4.2-0.4-6.7-0.4-12.2c0-5.5,1.7-27.4,5.5-35.8c3.8-8.4,2.5-23.2,1.7-29.5c-0.8-6.3-1.3-13.9-1.3-13.9
	c4.2-5.9,5.1-24.9,5.1-24.9c6.3-25.7,11-67.8,11-67.8h3c-1.7,15.6,8.8,44.7,8.8,53.1c0,8.4,4.6,25.3,5.9,35c1.3,9.7,3,10.1,0,22.8
	c-2.9,12.6,4.6,33.7,5.5,40c0.8,6.3,2.1,13.9,1.7,16.4c-0.4,2.5-1.7,8-0.4,11.4c1.3,3.4-0.8,7.6-0.8,7.6c-3.4,3.8,1.3,9.7,4.2,10.1
	c2.9,0.4,7.6,2.9,7.6,2.9c1.3,6.3,8.4,8.4,8.4,8.4c5.5,3.4,8.8,0.4,8.8,0.4c16-2.1,0.4-13.5-3.8-16.4c-4.2-2.9-9.3-11-10.1-15.6
	c-0.8-4.6-2.1-12.6,1.3-24.9c3.4-12.2,4.6-38.8,4.2-46.4c-0.4-7.6-2.9-22.8-2.9-29.1c0-6.3-2.1-14.7,1.7-29.9
	c3.8-15.2,3-38.3,2.5-49.3c-0.4-11-7.6-36.7-7.6-42.1c0-5.5-2.5-21.1-2.5-21.1c-3-15.2,5.1-37.9,5.1-37.9c0.8,1.3,8.8,22.8,8.8,22.8
	c-0.8,8.4,11.8,28.7,11.8,28.7c3.8,6.3,13.9,25.7,13.9,25.7c0.5,1.7,1.7,5.8,1.8,8.5c0.2,2.7,0.7,3.7,1.4,6.8
	c0.6,3.1,4.1,10.1,4.5,11.3c0.4,1.1,1,3,0.9,5c-0.1,2,0.6,8.7,0.6,8.7c0.3,2.1,2.2,2.3,2.2,2.3c1-0.1,1.1-1,1.1-1
	c0.5-0.7,0.1-12.1,0.1-12.5c0-0.4,0.9-1,0.8-0.1c-0.1,0.9,5,14.9,5,14.9c0.6,3.2,2.8,2.9,2.8,2.9c1.3-0.4,1.1-2.5,0.8-3
	c-0.3-0.5-3.1-13.3-3.3-14.7c-0.2-1.5,0.6-1,0.6-1l6.1,12.7c1.1,3.9,3.4,3.4,3.4,3.4c1.8-0.9-1.4-7.5-1.4-7.5l-2.2-9
	c0,0,3.5,4.7,5,7.8c1.4,3.1,3.5,2.8,3.5,2.8c0,0,0.1,0,0.1-0.1c1.9-1.9-6.5-18.6-7.2-20.1C208.3,221.9,212.4,223.8,214.1,225.1z"/>
</svg>
