<!-- Generator: Adobe Illustrator 21.1.0, SVG Export Plug-In  -->
<svg version="1.1"
	 xmlns="http://www.w3.org/2000/svg" xmlns:xlink="http://www.w3.org/1999/xlink" xmlns:a="http://ns.adobe.com/AdobeSVGViewerExtensions/3.0/"
	 x="0px" y="0px" width="398.7px" height="65.5px" viewBox="0 0 398.7 65.5" style="enable-background:new 0 0 398.7 65.5;"
	 xml:space="preserve">
<style type="text/css">
	.st0{opacity:0.9;fill:#FFFFFF;enable-background:new    ;}
</style>
<defs>
</defs>
<path class="st0" d="M0.2,0.1H5c0.7,0,1.4,0.1,2,0.3s1.2,0.6,1.6,1c0.5,0.5,0.8,1,1.1,1.7s0.4,1.5,0.4,2.4c0,0.8-0.1,1.6-0.3,2.2
	S9.3,9,8.9,9.5S8,10.4,7.3,10.7c-0.6,0.3-1.4,0.4-2.2,0.4H0.2V0.1z M2.6,9.2h2.2c0.4,0,0.7-0.1,1-0.2s0.6-0.3,0.9-0.6s0.5-0.6,0.6-1
	C7.5,7,7.6,6.5,7.6,5.9S7.5,4.8,7.4,4.4C7.3,3.9,7.1,3.5,6.9,3.2c-0.3-0.3-0.6-0.6-1-0.7S5,2.2,4.4,2.2H2.6V9.2z"/>
<path class="st0" d="M13.6,7.8c0,0.7,0.2,1.2,0.5,1.5s0.8,0.5,1.4,0.5c0.4,0,0.8-0.1,1.2-0.3C17,9.3,17.2,9,17.3,8.8h1.9
	c-0.3,1-0.8,1.6-1.4,2.1s-1.4,0.6-2.3,0.6c-0.6,0-1.2-0.1-1.7-0.3c-0.5-0.2-0.9-0.5-1.3-0.9S11.9,9.5,11.7,9s-0.3-1.1-0.3-1.7
	s0.1-1.2,0.3-1.7s0.5-1,0.8-1.3c0.4-0.4,0.8-0.7,1.3-0.9C14.3,3.1,14.9,3,15.5,3c0.7,0,1.3,0.1,1.8,0.4s0.9,0.6,1.3,1.1
	c0.3,0.4,0.6,1,0.7,1.5s0.2,1.2,0.2,1.8H13.6z M17.2,6.4c-0.1-0.6-0.3-1-0.6-1.3c-0.3-0.3-0.7-0.4-1.2-0.4c-0.4,0-0.6,0.1-0.9,0.2
	c-0.2,0.1-0.4,0.3-0.6,0.4c-0.1,0.2-0.2,0.4-0.3,0.6s-0.1,0.4-0.1,0.5H17.2z"/>
<path class="st0" d="M22.8,8.6c0,0.2,0,0.4,0.1,0.6c0.1,0.2,0.2,0.3,0.4,0.4c0.2,0.1,0.3,0.2,0.5,0.2c0.2,0.1,0.4,0.1,0.6,0.1
	s0.3,0,0.5-0.1c0.2,0,0.3-0.1,0.5-0.2c0.1-0.1,0.3-0.2,0.4-0.3c0.1,0,0.1-0.1,0.1-0.3s-0.1-0.3-0.2-0.4c-0.1-0.1-0.3-0.2-0.5-0.3
	C25,8.1,24.8,8,24.5,8c-0.3-0.1-0.7-0.2-1.1-0.2c-0.3-0.1-0.6-0.2-0.9-0.3c-0.3-0.1-0.6-0.2-0.8-0.4c-0.2-0.2-0.4-0.4-0.6-0.6
	C21,6.3,20.9,6,20.9,5.6c0-0.5,0.1-0.9,0.3-1.3c0.1-0.3,0.4-0.6,0.7-0.8s0.7-0.3,1.1-0.4C23.5,3,23.9,3,24.3,3s0.9,0,1.3,0.1
	s0.8,0.2,1.1,0.4C27,3.7,27.3,4,27.5,4.3c0.2,0.3,0.4,0.8,0.4,1.3h-2.1c0-0.4-0.2-0.7-0.5-0.9c-0.3-0.2-0.6-0.2-1-0.2
	c-0.1,0-0.3,0-0.4,0s-0.3,0-0.4,0.1s-0.2,0.1-0.3,0.2S23.1,5,23.1,5.2s0.1,0.4,0.2,0.5s0.3,0.2,0.6,0.3c0.2,0.1,0.5,0.1,0.8,0.2
	s0.6,0.1,0.9,0.2s0.6,0.2,0.9,0.3c0.3,0.1,0.6,0.2,0.8,0.4c0.2,0.2,0.4,0.4,0.6,0.6C28,8,28.1,8.3,28.1,8.6c0,0.5-0.1,1-0.3,1.3
	c-0.2,0.4-0.5,0.6-0.8,0.9c-0.3,0.2-0.7,0.4-1.2,0.5c-0.4,0.1-0.9,0.1-1.3,0.1c-0.5,0-0.9,0-1.4-0.1c-0.4-0.1-0.8-0.3-1.2-0.5
	c-0.3-0.2-0.6-0.5-0.9-0.9c-0.2-0.4-0.3-0.8-0.4-1.3C20.6,8.6,22.8,8.6,22.8,8.6z"/>
<path class="st0" d="M35.5,10.2L35.5,10.2c-0.3,0.4-0.6,0.8-1.1,1c-0.4,0.2-0.9,0.3-1.4,0.3c-0.6,0-1.1-0.1-1.6-0.4
	c-0.5-0.2-0.8-0.6-1.1-1s-0.5-0.9-0.7-1.4s-0.2-1.1-0.2-1.6s0.1-1.1,0.2-1.6C29.8,5,30,4.6,30.3,4.2s0.7-0.7,1.1-0.9
	C31.8,3.1,32.3,3,32.9,3c0.5,0,0.9,0.1,1.4,0.3c0.4,0.2,0.8,0.5,1,0.9l0,0v-4h2.2v11.1h-2.1L35.5,10.2L35.5,10.2z M35.4,7.2
	c0-0.3,0-0.6-0.1-0.9S35.1,5.7,35,5.5c-0.1-0.3-0.3-0.5-0.6-0.6s-0.5-0.2-0.9-0.2s-0.7,0.1-0.9,0.2S32.2,5.2,32,5.5S31.8,6,31.7,6.3
	s-0.1,0.6-0.1,1c0,0.3,0,0.6,0.1,0.9C31.8,8.5,31.9,8.7,32,9c0.2,0.2,0.4,0.4,0.6,0.6c0.2,0.2,0.5,0.2,0.9,0.2s0.7-0.1,0.9-0.2
	S34.9,9.3,35,9c0.1-0.2,0.2-0.5,0.3-0.8S35.4,7.5,35.4,7.2z"/>
<path class="st0" d="M41.4,7.8c0,0.7,0.2,1.2,0.5,1.5s0.8,0.5,1.4,0.5c0.4,0,0.8-0.1,1.2-0.3C44.8,9.3,45,9,45.1,8.8H47
	c-0.3,1-0.8,1.6-1.4,2.1c-0.6,0.4-1.4,0.6-2.3,0.6c-0.6,0-1.2-0.1-1.7-0.3s-0.9-0.5-1.3-0.9c-0.4-0.4-0.7-0.8-0.9-1.3
	s-0.3-1.1-0.3-1.7s0.1-1.2,0.3-1.7s0.5-1,0.8-1.3c0.4-0.4,0.8-0.7,1.3-0.9C42.1,3.1,42.7,3,43.3,3c0.7,0,1.3,0.1,1.8,0.4
	S46,4,46.4,4.5s0.6,1,0.7,1.5s0.2,1.2,0.2,1.8H41.4z M45,6.4c-0.1-0.6-0.3-1-0.6-1.3c-0.3-0.3-0.7-0.4-1.2-0.4
	c-0.4,0-0.6,0.1-0.9,0.2c-0.2,0.1-0.4,0.2-0.5,0.4c-0.1,0.2-0.2,0.4-0.3,0.6s-0.1,0.4-0.1,0.5H45z"/>
<path class="st0" d="M55.3,7.8c0,0.7,0.2,1.2,0.5,1.5s0.8,0.5,1.4,0.5c0.4,0,0.8-0.1,1.2-0.3C58.7,9.3,58.9,9,59,8.8h1.9
	c-0.3,1-0.8,1.6-1.4,2.1s-1.4,0.6-2.3,0.6c-0.6,0-1.2-0.1-1.7-0.3s-0.9-0.5-1.3-0.9S53.5,9.5,53.3,9S53,7.9,53,7.3s0.1-1.2,0.3-1.7
	s0.5-1,0.8-1.3c0.4-0.4,0.8-0.7,1.3-0.9C56,3.1,56.5,3,57.2,3s1.3,0.1,1.8,0.4s0.9,0.6,1.2,1.1c0.3,0.4,0.6,1,0.7,1.5
	c0.1,0.6,0.2,1.2,0.2,1.8H55.3z M58.9,6.4c-0.1-0.6-0.3-1-0.6-1.3c-0.3-0.3-0.7-0.4-1.2-0.4c-0.4,0-0.6,0.1-0.9,0.2
	C56,5,55.8,5.2,55.6,5.3c-0.1,0.2-0.2,0.4-0.3,0.6s-0.1,0.4-0.1,0.5H58.9z"/>
<path class="st0" d="M62.7,0.1h2.2v11.1h-2.2V0.1z"/>
<path class="st0" d="M71.6,3.2h2.1v1l0,0c0.3-0.4,0.6-0.8,1-0.9c0.5-0.2,1-0.3,1.5-0.3c0.6,0,1.2,0.1,1.6,0.4s0.8,0.6,1.1,0.9
	c0.3,0.4,0.5,0.9,0.7,1.4c0.1,0.5,0.2,1.1,0.2,1.6s-0.1,1.1-0.2,1.6s-0.4,0.9-0.7,1.3c-0.3,0.4-0.7,0.7-1.1,0.9s-1,0.4-1.5,0.4
	s-0.9-0.1-1.4-0.3s-0.8-0.5-1-0.9l0,0v3.8h-2.2V3.2H71.6z M75.7,9.8c0.4,0,0.7-0.1,0.9-0.2S77,9.3,77.2,9s0.3-0.5,0.3-0.8
	s0.1-0.6,0.1-1c0-0.3,0-0.6-0.1-1c-0.1-0.3-0.2-0.6-0.3-0.8C77,5.2,76.8,5,76.6,4.8s-0.5-0.2-0.9-0.2S75,4.7,74.8,4.8
	c-0.2,0.2-0.4,0.3-0.6,0.6S73.9,6,73.9,6.3c-0.1,0.3-0.1,0.6-0.1,1c0,0.3,0,0.7,0.1,1s0.2,0.6,0.3,0.8s0.3,0.4,0.6,0.6
	C75,9.7,75.3,9.8,75.7,9.8z"/>
<path class="st0" d="M89,11.3h-2.1v-1.1l0,0c-0.3,0.5-0.6,0.8-1.1,1c-0.4,0.2-0.9,0.3-1.4,0.3c-0.6,0-1.1-0.1-1.5-0.2
	c-0.4-0.2-0.7-0.4-0.9-0.7c-0.2-0.3-0.4-0.6-0.5-1s-0.1-0.9-0.1-1.4v-5h2.2v4.5c0,0.7,0.1,1.2,0.3,1.5c0.2,0.3,0.6,0.5,1.1,0.5
	c0.6,0,1-0.2,1.3-0.5c0.3-0.4,0.4-0.9,0.4-1.8V3.2h2.2L89,11.3L89,11.3z"/>
<path class="st0" d="M91,3.2h2.1v1.1l0,0c0.3-0.5,0.6-0.8,1.1-1c0.5-0.2,1-0.3,1.4-0.3c0.6,0,1.1,0.1,1.5,0.2
	c0.4,0.2,0.7,0.4,0.9,0.7s0.4,0.6,0.5,1s0.1,0.9,0.1,1.4v5h-2.2V6.7c0-0.7-0.1-1.2-0.3-1.5c-0.2-0.3-0.6-0.5-1.1-0.5
	c-0.6,0-1,0.2-1.3,0.5c-0.3,0.4-0.4,0.9-0.4,1.8v4.2h-2.2L91,3.2L91,3.2z"/>
<path class="st0" d="M103.4,3.2h1.6v1.5h-1.6v4c0,0.4,0.1,0.6,0.2,0.7c0.1,0.1,0.4,0.2,0.7,0.2c0.2,0,0.5,0,0.7-0.1v1.7
	c-0.2,0-0.4,0.1-0.6,0.1s-0.5,0-0.7,0c-0.3,0-0.7,0-1-0.1c-0.3,0-0.6-0.1-0.8-0.3s-0.4-0.3-0.6-0.6s-0.2-0.6-0.2-1V4.7h-1.3V3.2h1.3
	V0.8h2.2v2.4H103.4z"/>
<path class="st0" d="M106.1,7.2c0-0.6,0.1-1.2,0.3-1.8c0.2-0.5,0.5-1,0.8-1.3c0.4-0.4,0.8-0.7,1.3-0.9s1.1-0.3,1.7-0.3
	s1.2,0.1,1.7,0.3s1,0.5,1.3,0.9c0.4,0.4,0.6,0.8,0.8,1.3c0.2,0.5,0.3,1.1,0.3,1.8s-0.1,1.2-0.3,1.7c-0.2,0.5-0.5,1-0.8,1.3
	s-0.8,0.7-1.3,0.9s-1.1,0.3-1.7,0.3s-1.2-0.1-1.7-0.3s-0.9-0.5-1.3-0.9s-0.6-0.8-0.8-1.3C106.2,8.5,106.1,7.9,106.1,7.2z M108.3,7.2
	c0,0.3,0,0.6,0.1,0.9c0.1,0.3,0.2,0.6,0.3,0.8c0.2,0.2,0.4,0.4,0.6,0.6s0.6,0.2,0.9,0.2s0.7-0.1,0.9-0.2c0.3-0.1,0.5-0.3,0.6-0.6
	c0.2-0.2,0.3-0.5,0.3-0.8c0.1-0.3,0.1-0.6,0.1-0.9s0-0.6-0.1-0.9s-0.2-0.6-0.3-0.8s-0.4-0.4-0.6-0.6c-0.3-0.2-0.6-0.2-0.9-0.2
	s-0.7,0.1-0.9,0.2s-0.4,0.3-0.6,0.6s-0.3,0.5-0.3,0.8C108.3,6.6,108.3,6.9,108.3,7.2z"/>
<path class="st0" d="M126.6,10.2L126.6,10.2c-0.3,0.4-0.6,0.8-1.1,1c-0.4,0.2-0.9,0.3-1.4,0.3c-0.6,0-1.1-0.1-1.6-0.4
	s-0.8-0.6-1.1-1c-0.3-0.4-0.5-0.9-0.7-1.4s-0.2-1.1-0.2-1.6s0.1-1.1,0.2-1.6s0.4-0.9,0.7-1.3c0.3-0.4,0.7-0.7,1.1-0.9s1-0.4,1.6-0.4
	c0.5,0,0.9,0.1,1.4,0.3c0.4,0.2,0.8,0.5,1,0.9l0,0v-4h2.2v11.1h-2.1V10.2z M126.5,7.2c0-0.3,0-0.6-0.1-0.9s-0.2-0.6-0.3-0.8
	c-0.2-0.2-0.3-0.4-0.6-0.6s-0.5-0.2-0.9-0.2s-0.7,0.1-0.9,0.2s-0.4,0.3-0.6,0.6s-0.2,0.5-0.3,0.8s-0.1,0.6-0.1,1
	c0,0.3,0,0.6,0.1,0.9c0.1,0.3,0.2,0.6,0.4,0.8c0.2,0.2,0.4,0.4,0.6,0.6c0.2,0.2,0.5,0.2,0.9,0.2s0.7-0.1,0.9-0.2s0.4-0.3,0.6-0.6
	c0.1-0.2,0.2-0.5,0.3-0.8S126.5,7.5,126.5,7.2z"/>
<path class="st0" d="M132.5,7.8c0,0.7,0.2,1.2,0.5,1.5s0.8,0.5,1.4,0.5c0.4,0,0.8-0.1,1.2-0.3c0.3-0.2,0.5-0.5,0.6-0.7h1.9
	c-0.3,1-0.8,1.6-1.4,2.1s-1.4,0.6-2.3,0.6c-0.6,0-1.2-0.1-1.7-0.3s-0.9-0.5-1.3-0.9c-0.4-0.4-0.6-0.8-0.8-1.3s-0.3-1.1-0.3-1.7
	s0.1-1.2,0.3-1.7s0.5-1,0.8-1.3c0.4-0.4,0.8-0.7,1.3-0.9s1.1-0.3,1.7-0.3c0.7,0,1.3,0.1,1.8,0.4s0.9,0.6,1.3,1.1s0.6,1,0.7,1.5
	s0.2,1.2,0.2,1.8h-5.9V7.8z M136.1,6.4c-0.1-0.6-0.3-1-0.6-1.3c-0.3-0.3-0.7-0.4-1.2-0.4c-0.4,0-0.6,0.1-0.9,0.2
	c-0.2,0.1-0.4,0.3-0.6,0.4c-0.1,0.2-0.2,0.4-0.3,0.6s-0.1,0.4-0.1,0.5H136.1z"/>
<path class="st0" d="M149,11.3h-2.5l-2.8-8h2.3l1.7,5.5l0,0l1.7-5.5h2.2L149,11.3z"/>
<path class="st0" d="M155.2,2H153V0.1h2.2V2z M153,3.2h2.2v8H153V3.2z"/>
<path class="st0" d="M159,8.6c0,0.2,0,0.4,0.1,0.6c0.1,0.2,0.2,0.3,0.4,0.4c0.2,0.1,0.3,0.2,0.5,0.2c0.2,0.1,0.4,0.1,0.6,0.1
	c0.2,0,0.3,0,0.5-0.1c0.2,0,0.3-0.1,0.5-0.2c0.1-0.1,0.3-0.2,0.4-0.3s0.1-0.3,0.1-0.5s-0.1-0.3-0.2-0.4c-0.1-0.1-0.3-0.2-0.5-0.3
	s-0.5-0.2-0.8-0.3c-0.3-0.1-0.7-0.2-1.1-0.2c-0.3-0.1-0.6-0.2-0.9-0.3c-0.3-0.1-0.6-0.2-0.8-0.4c-0.2-0.2-0.4-0.4-0.6-0.6
	c-0.1-0.2-0.2-0.5-0.2-0.9c0-0.5,0.1-0.9,0.3-1.3c0.2-0.3,0.5-0.6,0.8-0.8s0.7-0.3,1.1-0.4c0.4-0.1,0.8-0.1,1.3-0.1
	c0.4,0,0.9,0,1.3,0.1c0.4,0.1,0.8,0.2,1.1,0.4s0.6,0.5,0.8,0.8s0.3,0.7,0.4,1.2H162c0-0.4-0.2-0.7-0.5-0.9c-0.3-0.2-0.6-0.2-1-0.2
	c-0.1,0-0.3,0-0.4,0c-0.1,0-0.3,0-0.4,0.1s-0.2,0.1-0.3,0.2s-0.1,0.2-0.1,0.4c0,0.2,0.1,0.4,0.2,0.5s0.3,0.2,0.6,0.3
	c0.2,0.1,0.5,0.1,0.8,0.2s0.6,0.1,0.9,0.2c0.3,0.1,0.6,0.2,0.9,0.3c0.3,0.1,0.6,0.2,0.8,0.4c0.2,0.2,0.4,0.4,0.6,0.6
	c0.1,0.3,0.2,0.6,0.2,0.9c0,0.5-0.1,1-0.3,1.3s-0.5,0.6-0.8,0.9c-0.3,0.2-0.7,0.4-1.2,0.5c-0.4,0.1-0.9,0.1-1.3,0.1
	c-0.5,0-0.9,0-1.4-0.1c-0.4-0.1-0.8-0.3-1.2-0.5s-0.6-0.5-0.9-0.9c-0.2-0.4-0.3-0.8-0.4-1.3h2.2V8.6z"/>
<path class="st0" d="M168.7,3.2h1.6v1.5h-1.6v4c0,0.4,0.1,0.6,0.2,0.7c0.1,0.1,0.4,0.2,0.7,0.2c0.2,0,0.5,0,0.7-0.1v1.7
	c-0.2,0-0.4,0.1-0.6,0.1s-0.5,0-0.7,0c-0.3,0-0.7,0-1-0.1c-0.3,0-0.6-0.1-0.8-0.3s-0.4-0.3-0.6-0.6s-0.2-0.6-0.2-1V4.7h-1.3V3.2h1.3
	V0.8h2.2v2.4H168.7z"/>
<path class="st0" d="M171.6,5.7c0-0.5,0.2-0.9,0.4-1.3c0.2-0.3,0.5-0.6,0.9-0.8s0.7-0.4,1.2-0.4c0.4-0.1,0.9-0.1,1.3-0.1
	c0.4,0,0.8,0,1.2,0.1s0.8,0.2,1.1,0.3c0.3,0.2,0.6,0.4,0.8,0.7c0.2,0.3,0.3,0.7,0.3,1.2v4.2c0,0.4,0,0.7,0.1,1
	c0,0.3,0.1,0.6,0.2,0.7h-2.2c0-0.1-0.1-0.3-0.1-0.4c0-0.1,0-0.3-0.1-0.4c-0.4,0.4-0.8,0.6-1.2,0.8s-1,0.2-1.5,0.2
	c-0.4,0-0.7,0-1.1-0.1c-0.3-0.1-0.6-0.2-0.9-0.4s-0.4-0.4-0.6-0.7c-0.1-0.3-0.2-0.7-0.2-1.1c0-0.5,0.1-0.8,0.2-1.1
	c0.2-0.3,0.4-0.5,0.6-0.7c0.3-0.2,0.6-0.3,0.9-0.4s0.7-0.2,1-0.2c0.3-0.1,0.7-0.1,1-0.1s0.6-0.1,0.8-0.1c0.2-0.1,0.4-0.2,0.6-0.3
	c0.1-0.1,0.2-0.3,0.2-0.5s0-0.4-0.1-0.6c-0.1-0.1-0.2-0.2-0.3-0.3c-0.1-0.1-0.3-0.1-0.5-0.2c-0.2,0-0.4,0-0.6,0
	c-0.4,0-0.8,0.1-1,0.3c-0.3,0.2-0.4,0.5-0.4,0.9h-2V5.7z M176.7,7.3c-0.1,0.1-0.2,0.1-0.4,0.2c-0.1,0-0.3,0.1-0.5,0.1
	s-0.3,0.1-0.5,0.1s-0.4,0-0.5,0.1c-0.2,0-0.3,0.1-0.5,0.1C174.1,8,174,8,173.9,8.1c-0.1,0.1-0.2,0.2-0.3,0.3s-0.1,0.3-0.1,0.5
	s0,0.4,0.1,0.5s0.2,0.2,0.3,0.3s0.3,0.1,0.4,0.2c0.2,0,0.3,0,0.5,0c0.4,0,0.8-0.1,1-0.2c0.2-0.1,0.4-0.3,0.5-0.5s0.2-0.4,0.2-0.6
	c0-0.2,0-0.4,0-0.5V7.3H176.7z"/>
<path class="st0" d="M185.7,3.2h2.1v1.1l0,0c0.3-0.4,0.6-0.7,1.1-1s0.9-0.3,1.4-0.3s1,0.1,1.4,0.3s0.7,0.5,1,1
	c0.2-0.4,0.6-0.7,1-0.9c0.4-0.3,0.9-0.4,1.5-0.4c0.4,0,0.8,0.1,1.2,0.2c0.4,0.1,0.7,0.3,0.9,0.5c0.3,0.2,0.5,0.5,0.6,0.9
	s0.2,0.8,0.2,1.3v5.4h-2.2V6.7c0-0.3,0-0.5,0-0.8c0-0.2-0.1-0.4-0.2-0.6c-0.1-0.2-0.2-0.3-0.4-0.4s-0.4-0.2-0.7-0.2
	s-0.6,0.1-0.8,0.2s-0.3,0.3-0.5,0.5c-0.1,0.2-0.2,0.4-0.2,0.7c0,0.2-0.1,0.5-0.1,0.7v4.5h-2.2V6.7c0-0.2,0-0.5,0-0.7
	s-0.1-0.5-0.1-0.7s-0.2-0.4-0.4-0.5s-0.4-0.2-0.8-0.2c-0.1,0-0.3,0-0.4,0.1c-0.2,0-0.3,0.1-0.5,0.3c-0.2,0.1-0.3,0.3-0.4,0.6
	c-0.1,0.2-0.2,0.6-0.2,1v4.7h-2.2V3.2H185.7z"/>
<path class="st0" d="M201.9,7.8c0,0.7,0.2,1.2,0.5,1.5s0.8,0.5,1.4,0.5c0.4,0,0.8-0.1,1.2-0.3c0.3-0.2,0.5-0.5,0.6-0.7h1.9
	c-0.3,1-0.8,1.6-1.4,2.1s-1.4,0.6-2.3,0.6c-0.6,0-1.2-0.1-1.7-0.3s-0.9-0.5-1.3-0.9c-0.4-0.4-0.6-0.8-0.8-1.3s-0.3-1.1-0.3-1.7
	s0.1-1.2,0.3-1.7s0.5-1,0.8-1.3c0.4-0.4,0.8-0.7,1.3-0.9s1.1-0.3,1.7-0.3c0.7,0,1.3,0.1,1.8,0.4s0.9,0.6,1.3,1.1s0.6,1,0.7,1.5
	s0.2,1.2,0.2,1.8h-5.9V7.8z M205.5,6.4c-0.1-0.6-0.3-1-0.6-1.3c-0.3-0.3-0.7-0.4-1.2-0.4c-0.4,0-0.6,0.1-0.9,0.2
	c-0.2,0.1-0.4,0.3-0.6,0.4c-0.1,0.2-0.2,0.4-0.3,0.6s0,0.3,0,0.5H205.5z M204,2.2h-1.5L204,0h2.4L204,2.2z"/>
<path class="st0" d="M215,10.2L215,10.2c-0.3,0.4-0.6,0.8-1.1,1c-0.4,0.2-0.9,0.3-1.4,0.3c-0.6,0-1.1-0.1-1.6-0.4s-0.8-0.6-1.1-1
	s-0.5-0.9-0.7-1.4s-0.2-1-0.2-1.5s0.1-1.1,0.2-1.6s0.4-0.9,0.7-1.3c0.3-0.4,0.7-0.7,1.1-0.9c0.4-0.2,1-0.4,1.6-0.4
	c0.5,0,0.9,0.1,1.4,0.3c0.4,0.2,0.8,0.5,1,0.9l0,0v-4h2.2v11.1H215L215,10.2L215,10.2z M215,7.2c0-0.3,0-0.6-0.1-0.9
	s-0.2-0.6-0.3-0.8c-0.2-0.2-0.3-0.4-0.6-0.6s-0.5-0.2-0.9-0.2s-0.7,0.1-0.9,0.2s-0.4,0.3-0.6,0.6s-0.3,0.5-0.3,0.8s-0.1,0.6-0.1,1
	c0,0.3,0,0.6,0.1,0.9s0.2,0.6,0.4,0.8s0.4,0.4,0.6,0.6c0.2,0.2,0.5,0.2,0.9,0.2s0.7-0.1,0.9-0.2s0.4-0.3,0.6-0.6
	c0.1-0.2,0.2-0.5,0.3-0.8S215,7.5,215,7.2z"/>
<path class="st0" d="M221.4,2h-2.2V0.1h2.2V2z M219.2,3.2h2.2v8h-2.2V3.2z"/>
<path class="st0" d="M228.9,6c-0.1-0.9-0.7-1.4-1.6-1.4c-0.4,0-0.6,0.1-0.9,0.2c-0.2,0.2-0.4,0.4-0.6,0.6s-0.3,0.5-0.3,0.8
	c-0.1,0.3-0.1,0.6-0.1,0.9s0,0.6,0.1,0.9s0.2,0.6,0.3,0.8s0.3,0.4,0.6,0.6c0.2,0.2,0.5,0.2,0.9,0.2c0.5,0,0.9-0.1,1.2-0.4
	c0.3-0.3,0.5-0.7,0.5-1.2h2.1c-0.1,1.1-0.6,1.9-1.2,2.5c-0.7,0.6-1.6,0.8-2.6,0.8c-0.6,0-1.2-0.1-1.7-0.3s-0.9-0.5-1.3-0.9
	c-0.4-0.4-0.6-0.8-0.8-1.3s-0.3-1.1-0.3-1.7s0.1-1.2,0.3-1.7s0.4-1,0.8-1.4c0.4-0.4,0.8-0.7,1.3-0.9s1.1-0.3,1.7-0.3
	c0.5,0,0.9,0.1,1.4,0.2s0.8,0.3,1.2,0.6s0.6,0.6,0.8,1s0.4,0.8,0.4,1.3L228.9,6L228.9,6z"/>
<path class="st0" d="M232.4,7.2c0-0.6,0.1-1.2,0.3-1.8c0.2-0.5,0.5-1,0.8-1.3c0.4-0.4,0.8-0.7,1.3-0.9s1.1-0.3,1.7-0.3
	s1.2,0.1,1.7,0.3s1,0.5,1.3,0.9c0.4,0.4,0.6,0.8,0.8,1.3s0.3,1.1,0.3,1.8s-0.1,1.2-0.3,1.7s-0.5,1-0.8,1.3s-0.8,0.7-1.3,0.9
	s-1.1,0.3-1.7,0.3s-1.2-0.1-1.7-0.3s-0.9-0.5-1.3-0.9s-0.6-0.7-0.8-1.2S232.4,7.9,232.4,7.2z M234.7,7.2c0,0.3,0,0.6,0.1,0.9
	c0.1,0.3,0.2,0.6,0.3,0.8c0.2,0.2,0.4,0.4,0.6,0.6s0.6,0.2,0.9,0.2s0.7-0.1,0.9-0.2c0.3-0.1,0.5-0.3,0.6-0.6
	c0.2-0.2,0.3-0.5,0.3-0.8c0.1-0.3,0.1-0.6,0.1-0.9s0-0.6-0.1-0.9s-0.2-0.6-0.3-0.8s-0.4-0.4-0.6-0.6c-0.3-0.2-0.6-0.2-0.9-0.2
	s-0.7,0.1-0.9,0.2s-0.4,0.3-0.6,0.6s-0.3,0.5-0.3,0.8C234.7,6.6,234.7,6.9,234.7,7.2z"/>
<path class="st0" d="M242.6,8.9h2.4v2.4c0,0.4-0.1,0.7-0.2,1c-0.1,0.3-0.3,0.5-0.5,0.8c-0.2,0.2-0.5,0.4-0.8,0.5s-0.6,0.2-0.9,0.3
	v-1.1c0.2,0,0.3-0.1,0.5-0.2c0.1-0.1,0.3-0.2,0.4-0.3c0.1-0.1,0.2-0.3,0.2-0.4c0.1-0.2,0.1-0.3,0.1-0.5h-1.1L242.6,8.9L242.6,8.9z"
	/>
<path class="st0" d="M253.6,7.8c0,0.7,0.2,1.2,0.5,1.5c0.3,0.3,0.8,0.5,1.4,0.5c0.4,0,0.8-0.1,1.2-0.3c0.3-0.2,0.5-0.5,0.6-0.7h1.9
	c-0.3,1-0.8,1.6-1.4,2.1s-1.4,0.6-2.3,0.6c-0.6,0-1.2-0.1-1.7-0.3c-0.5-0.2-0.9-0.5-1.3-0.9c-0.4-0.4-0.6-0.8-0.8-1.3
	s-0.3-1.1-0.3-1.7s0.1-1.2,0.3-1.7s0.5-1,0.8-1.3c0.4-0.4,0.8-0.7,1.3-0.9c0.5-0.2,1.1-0.3,1.7-0.3c0.7,0,1.3,0.1,1.8,0.4
	s0.9,0.6,1.3,1.1s0.6,1,0.7,1.5s0.2,1.2,0.2,1.8h-5.9V7.8z M257.2,6.4c-0.1-0.6-0.3-1-0.6-1.3c-0.3-0.3-0.7-0.4-1.2-0.4
	c-0.4,0-0.6,0.1-0.9,0.2c-0.2,0.1-0.4,0.3-0.6,0.4c-0.1,0.2-0.2,0.4-0.3,0.6s-0.1,0.4-0.1,0.5H257.2z"/>
<path class="st0" d="M261.1,0.1h2.2v11.1h-2.2V0.1z"/>
<path class="st0" d="M271.8,7.8c0,0.7,0.2,1.2,0.5,1.5s0.8,0.5,1.4,0.5c0.4,0,0.8-0.1,1.2-0.3c0.3-0.2,0.5-0.5,0.6-0.7h1.9
	c-0.3,1-0.8,1.6-1.4,2.1s-1.4,0.6-2.3,0.6c-0.6,0-1.2-0.1-1.7-0.3s-0.9-0.5-1.3-0.9s-0.6-0.8-0.8-1.3c-0.2-0.5-0.3-1.1-0.3-1.7
	s0.1-1.2,0.3-1.7s0.5-1,0.8-1.3c0.4-0.4,0.8-0.7,1.3-0.9s1.1-0.3,1.7-0.3c0.7,0,1.3,0.1,1.8,0.4s0.9,0.6,1.3,1.1s0.6,1,0.7,1.5
	s0.2,1.2,0.2,1.8h-5.9V7.8z M275.4,6.4c-0.1-0.6-0.3-1-0.6-1.3c-0.3-0.3-0.7-0.4-1.2-0.4c-0.4,0-0.6,0.1-0.9,0.2
	c-0.2,0.1-0.4,0.3-0.6,0.4c-0.1,0.2-0.2,0.4-0.3,0.6s-0.1,0.4-0.1,0.5H275.4z"/>
<path class="st0" d="M281,8.6c0,0.2,0,0.4,0.1,0.6c0.1,0.2,0.2,0.3,0.4,0.4c0.2,0.1,0.3,0.2,0.5,0.2c0.2,0.1,0.4,0.1,0.6,0.1
	s0.3,0,0.5-0.1c0.2,0,0.3-0.1,0.5-0.2c0.1-0.1,0.3-0.2,0.4-0.3s0.1-0.3,0.1-0.5s-0.1-0.3-0.2-0.4c-0.1-0.1-0.3-0.2-0.5-0.3
	s-0.5-0.2-0.8-0.3c-0.3-0.1-0.7-0.2-1.1-0.2c-0.3-0.1-0.6-0.2-0.9-0.3c-0.3-0.1-0.6-0.2-0.8-0.4c-0.2-0.2-0.4-0.4-0.6-0.6
	c-0.1-0.2-0.2-0.5-0.2-0.9c0-0.5,0.1-0.9,0.3-1.3c0.2-0.3,0.5-0.6,0.8-0.8s0.7-0.3,1.1-0.4c0.4-0.1,0.8-0.1,1.3-0.1
	c0.4,0,0.9,0,1.3,0.1s0.8,0.2,1.1,0.4c0.3,0.2,0.6,0.5,0.8,0.8c0.2,0.3,0.3,0.7,0.4,1.2H284c0-0.4-0.2-0.7-0.5-0.9
	c-0.3-0.2-0.6-0.2-1-0.2c-0.1,0-0.3,0-0.4,0s-0.3,0-0.4,0.1s-0.2,0.1-0.3,0.2s-0.1,0.2-0.1,0.4c0,0.2,0.1,0.4,0.2,0.5
	s0.3,0.2,0.6,0.3c0.2,0.1,0.5,0.1,0.8,0.2s0.6,0.1,0.9,0.2s0.6,0.2,0.9,0.3c0.3,0.1,0.6,0.2,0.8,0.4c0.2,0.2,0.4,0.4,0.6,0.6
	c0.1,0.3,0.2,0.6,0.2,0.9c0,0.5-0.1,1-0.3,1.3s-0.5,0.6-0.8,0.9c-0.3,0.2-0.7,0.4-1.2,0.5c-0.4,0.1-0.9,0.1-1.3,0.1
	c-0.5,0-0.9,0-1.4-0.1c-0.4-0.1-0.8-0.3-1.2-0.5s-0.6-0.5-0.9-0.9c-0.2-0.4-0.3-0.8-0.4-1.3h2.2V8.6z"/>
<path class="st0" d="M290.7,3.2h1.6v1.5h-1.6v4c0,0.4,0.1,0.6,0.2,0.7c0.1,0.1,0.4,0.2,0.7,0.2c0.2,0,0.5,0,0.7-0.1v1.7
	c-0.2,0-0.4,0.1-0.6,0.1s-0.5,0-0.7,0c-0.3,0-0.7,0-1-0.1c-0.3,0-0.6-0.1-0.8-0.3s-0.4-0.3-0.6-0.6s-0.2-0.6-0.2-1V4.7h-1.3V3.2h1.3
	V0.8h2.2L290.7,3.2L290.7,3.2z"/>
<path class="st0" d="M293.7,3.2h2.1v1.5l0,0c0.1-0.2,0.2-0.5,0.4-0.7c0.2-0.2,0.4-0.4,0.6-0.5c0.2-0.2,0.5-0.3,0.7-0.4
	c0.4-0.1,0.7-0.1,0.9-0.1s0.3,0,0.5,0.1v2.1c-0.1,0-0.2,0-0.4-0.1c-0.1,0-0.3,0-0.4,0c-0.4,0-0.7,0.1-1,0.2s-0.5,0.3-0.7,0.6
	c-0.2,0.2-0.3,0.5-0.4,0.8s-0.1,0.7-0.1,1v3.6h-2.2V3.2z"/>
<path class="st0" d="M301.9,7.8c0,0.7,0.2,1.2,0.5,1.5s0.8,0.5,1.4,0.5c0.4,0,0.8-0.1,1.2-0.3c0.3-0.2,0.5-0.5,0.6-0.7h1.9
	c-0.3,1-0.8,1.6-1.4,2.1s-1.4,0.6-2.3,0.6c-0.6,0-1.2-0.1-1.7-0.3s-0.9-0.5-1.3-0.9S300.2,9.5,300,9c-0.2-0.5-0.3-1.1-0.3-1.7
	s0.1-1.2,0.3-1.7s0.5-1,0.8-1.3c0.4-0.4,0.8-0.7,1.3-0.9s1.1-0.3,1.7-0.3c0.7,0,1.3,0.1,1.8,0.4s0.9,0.6,1.3,1.1s0.6,1,0.7,1.5
	s0.2,1.2,0.2,1.8h-5.9V7.8z M305.5,6.4c-0.1-0.6-0.3-1-0.6-1.3c-0.3-0.3-0.7-0.4-1.2-0.4c-0.4,0-0.6,0.1-0.9,0.2
	c-0.2,0.1-0.4,0.3-0.6,0.4c-0.1,0.2-0.2,0.4-0.3,0.6s0,0.3,0,0.5H305.5z M304.1,2.2h-1.5l1.5-2.2h2.4L304.1,2.2z"/>
<path class="st0" d="M311.1,8.6c0,0.2,0,0.4,0.1,0.6c0.1,0.2,0.2,0.3,0.4,0.4c0.2,0.1,0.3,0.2,0.5,0.2c0.2,0.1,0.4,0.1,0.6,0.1
	s0.3,0,0.5-0.1c0.2,0,0.3-0.1,0.5-0.2c0.1-0.1,0.3-0.2,0.4-0.3s0.1-0.3,0.1-0.5s-0.1-0.3-0.2-0.4c-0.1-0.1-0.3-0.2-0.5-0.3
	s-0.5-0.2-0.8-0.3c-0.3-0.1-0.7-0.2-1.1-0.2c-0.3-0.1-0.6-0.2-0.9-0.3c-0.3-0.1-0.6-0.2-0.8-0.4c-0.2-0.2-0.4-0.4-0.6-0.6
	c-0.1-0.2-0.2-0.5-0.2-0.9c0-0.5,0.1-0.9,0.3-1.3c0.2-0.3,0.5-0.6,0.8-0.8s0.7-0.3,1.1-0.4c0.4-0.1,0.8-0.1,1.3-0.1
	c0.4,0,0.9,0,1.3,0.1s0.8,0.2,1.1,0.4c0.3,0.2,0.6,0.5,0.8,0.8c0.2,0.3,0.3,0.7,0.4,1.2h-2.1c0-0.4-0.2-0.7-0.5-0.9
	c-0.3-0.2-0.6-0.2-1-0.2c-0.1,0-0.3,0-0.4,0s-0.3,0-0.4,0.1s-0.2,0.1-0.3,0.2s-0.1,0.2-0.1,0.4c0,0.2,0.1,0.4,0.2,0.5
	s0.3,0.2,0.6,0.3c0.2,0.1,0.5,0.1,0.8,0.2s0.6,0.1,0.9,0.2s0.6,0.2,0.9,0.3c0.3,0.1,0.6,0.2,0.8,0.4c0.2,0.2,0.4,0.4,0.6,0.6
	c0.1,0.3,0.2,0.6,0.2,0.9c0,0.5-0.1,1-0.3,1.3s-0.5,0.6-0.8,0.9c-0.3,0.2-0.7,0.4-1.2,0.5c-0.4,0.1-0.9,0.1-1.3,0.1
	c-0.5,0-0.9,0-1.4-0.1c-0.4-0.1-0.8-0.3-1.2-0.5s-0.6-0.5-0.9-0.9c-0.2-0.4-0.3-0.8-0.4-1.3h2.2V8.6z"/>
<path class="st0" d="M322.6,5.7c0-0.5,0.2-0.9,0.4-1.3c0.2-0.3,0.5-0.6,0.9-0.8s0.7-0.4,1.2-0.4c0.3-0.2,0.8-0.2,1.2-0.2
	s0.8,0,1.2,0.1s0.8,0.2,1.1,0.3c0.3,0.2,0.6,0.4,0.8,0.7c0.2,0.3,0.3,0.7,0.3,1.2v4.2c0,0.4,0,0.7,0.1,1c0,0.3,0.1,0.6,0.2,0.7h-2.1
	c0-0.1-0.1-0.3-0.1-0.4c0-0.1,0-0.3-0.1-0.4c-0.4,0.4-0.8,0.6-1.2,0.8s-1,0.2-1.5,0.2c-0.4,0-0.7,0-1.1-0.1
	c-0.3-0.1-0.6-0.2-0.9-0.4s-0.4-0.4-0.6-0.7c-0.1-0.3-0.2-0.7-0.2-1.1c0-0.5,0.1-0.8,0.2-1.1c0.2-0.3,0.4-0.5,0.6-0.7
	c0.3-0.2,0.6-0.3,0.9-0.4s0.7-0.2,1-0.2c0.3-0.1,0.7-0.1,1-0.1s0.6-0.1,0.8-0.1c0.2-0.1,0.4-0.2,0.6-0.3c0.1-0.1,0.2-0.3,0.2-0.5
	s0-0.4-0.1-0.6c-0.1-0.1-0.2-0.2-0.3-0.3c-0.1-0.1-0.3-0.1-0.5-0.2c-0.2,0-0.4,0-0.6,0c-0.4,0-0.8,0.1-1,0.3
	c-0.3,0.2-0.4,0.5-0.4,0.9h-2V5.7z M327.7,7.3c-0.1,0.1-0.2,0.1-0.4,0.2c-0.1,0-0.3,0.1-0.5,0.1s-0.3,0.1-0.5,0.1s-0.4,0-0.5,0.1
	c-0.2,0-0.3,0.1-0.5,0.1C325.2,8,325,8,324.9,8.1s-0.2,0.2-0.3,0.3c-0.1,0.1-0.1,0.3-0.1,0.5s0,0.4,0.1,0.5s0.2,0.2,0.3,0.3
	c0.1,0.1,0.3,0.1,0.4,0.2c0.2,0,0.3,0,0.5,0c0.4,0,0.8-0.1,1-0.2c0.2-0.1,0.4-0.3,0.5-0.5s0.2-0.4,0.2-0.6c0-0.2,0-0.4,0-0.5V7.3
	H327.7z"/>
<path class="st0" d="M332.4,4.7h-1.3V3.2h1.3V2.6c0-0.4,0.1-0.7,0.2-1s0.3-0.6,0.5-0.8s0.5-0.4,0.8-0.5s0.7-0.2,1.2-0.2
	c0.2,0,0.4,0,0.6,0s0.4,0,0.6,0v1.7c-0.3,0-0.5,0-0.8,0S335,1.9,334.9,2c-0.1,0.1-0.2,0.4-0.2,0.7v0.5h1.5v1.5h-1.5v6.6h-2.2V4.7
	H332.4z"/>
<path class="st0" d="M339.2,7.8c0,0.7,0.2,1.2,0.5,1.5s0.8,0.5,1.4,0.5c0.4,0,0.8-0.1,1.2-0.3c0.3-0.2,0.5-0.5,0.6-0.7h1.9
	c-0.3,1-0.8,1.6-1.4,2.1s-1.4,0.6-2.3,0.6c-0.6,0-1.2-0.1-1.7-0.3s-0.9-0.5-1.3-0.9s-0.6-0.8-0.8-1.3c-0.2-0.5-0.3-1.1-0.3-1.7
	s0.1-1.2,0.3-1.7s0.5-1,0.8-1.3c0.4-0.4,0.8-0.7,1.3-0.9s1.1-0.3,1.7-0.3c0.7,0,1.3,0.1,1.8,0.4s0.9,0.6,1.3,1.1s0.6,1,0.7,1.5
	s0.2,1.2,0.2,1.8h-5.9V7.8z M342.8,6.4c-0.1-0.6-0.3-1-0.6-1.3c-0.3-0.3-0.7-0.4-1.2-0.4c-0.4,0-0.6,0.1-0.9,0.2
	c-0.2,0.1-0.4,0.3-0.6,0.4c-0.1,0.2-0.2,0.4-0.3,0.6s-0.1,0.4-0.1,0.5H342.8z"/>
<path class="st0" d="M352.1,6c-0.1-0.9-0.7-1.4-1.6-1.4c-0.4,0-0.6,0.1-0.9,0.2c-0.2,0.2-0.4,0.4-0.6,0.6s-0.3,0.5-0.3,0.8
	c-0.1,0.3-0.1,0.6-0.1,0.9s0,0.6,0.1,0.9s0.2,0.6,0.3,0.8c0.1,0.2,0.3,0.4,0.6,0.6c0.2,0.2,0.5,0.2,0.9,0.2c0.5,0,0.9-0.1,1.2-0.4
	c0.3-0.3,0.5-0.7,0.5-1.2h2.1c-0.1,1.1-0.6,1.9-1.2,2.5c-0.7,0.6-1.6,0.8-2.6,0.8c-0.6,0-1.2-0.1-1.7-0.3s-0.9-0.5-1.3-0.9
	s-0.6-0.8-0.8-1.3c-0.2-0.5-0.3-1.1-0.3-1.7s0.1-1.2,0.3-1.7c0.2-0.5,0.4-1,0.8-1.4s0.8-0.7,1.3-0.9s1.1-0.3,1.7-0.3
	c0.5,0,0.9,0.1,1.4,0.2s0.8,0.3,1.2,0.6s0.6,0.6,0.8,1c0.2,0.4,0.4,0.8,0.4,1.3L352.1,6L352.1,6z"/>
<path class="st0" d="M358.7,3.2h1.6v1.5h-1.6v4c0,0.4,0.1,0.6,0.2,0.7c0.1,0.1,0.4,0.2,0.7,0.2c0.2,0,0.5,0,0.7-0.1v1.7
	c-0.2,0-0.4,0.1-0.6,0.1s-0.5,0-0.7,0c-0.3,0-0.7,0-1-0.1c-0.3,0-0.6-0.1-0.8-0.3s-0.4-0.3-0.6-0.6s-0.2-0.6-0.2-1V4.7h-1.3V3.2h1.3
	V0.8h2.2L358.7,3.2L358.7,3.2z"/>
<path class="st0" d="M361.6,5.7c0-0.5,0.2-0.9,0.4-1.3c0.2-0.3,0.5-0.6,0.9-0.8s0.7-0.4,1.2-0.4c0.4-0.2,0.8-0.2,1.3-0.2
	c0.4,0,0.8,0,1.2,0.1s0.8,0.2,1.1,0.3c0.3,0.2,0.6,0.4,0.8,0.7c0.2,0.3,0.3,0.7,0.3,1.2v4.2c0,0.4,0,0.7,0.1,1
	c0,0.3,0.1,0.6,0.2,0.7h-2.2c0-0.1-0.1-0.3-0.1-0.4c0-0.1,0-0.3-0.1-0.4c-0.4,0.4-0.8,0.6-1.2,0.8s-1,0.2-1.5,0.2
	c-0.4,0-0.7,0-1.1-0.1c-0.3-0.1-0.6-0.2-0.9-0.4s-0.4-0.4-0.6-0.7c-0.1-0.3-0.2-0.7-0.2-1.1c0-0.5,0.1-0.8,0.2-1.1
	c0.2-0.3,0.4-0.5,0.6-0.7c0.3-0.2,0.6-0.3,0.9-0.4s0.7-0.2,1-0.2c0.3-0.1,0.7-0.1,1-0.1s0.6-0.1,0.8-0.1c0.2-0.1,0.4-0.2,0.6-0.3
	c0.1-0.1,0.2-0.3,0.2-0.5s0-0.4-0.1-0.6c-0.1-0.1-0.2-0.2-0.3-0.3c-0.1-0.1-0.3-0.1-0.5-0.2c-0.2,0-0.4,0-0.6,0
	c-0.4,0-0.8,0.1-1,0.3c-0.3,0.2-0.4,0.5-0.4,0.9h-2V5.7z M366.7,7.3c-0.1,0.1-0.2,0.1-0.4,0.2c-0.1,0-0.3,0.1-0.5,0.1
	s-0.3,0.1-0.5,0.1s-0.4,0-0.5,0.1c-0.2,0-0.3,0.1-0.5,0.1C364.1,8,364,8,363.9,8.1c-0.1,0.1-0.2,0.2-0.3,0.3
	c-0.1,0.1-0.1,0.3-0.1,0.5s0,0.4,0.1,0.5s0.2,0.2,0.3,0.3c0.1,0.1,0.3,0.1,0.4,0.2c0.2,0,0.3,0,0.5,0c0.4,0,0.8-0.1,1-0.2
	c0.2-0.1,0.4-0.3,0.5-0.5s0.2-0.4,0.2-0.6c0-0.2,0-0.4,0-0.5V7.3H366.7z"/>
<path class="st0" d="M0.8,22.4c0-0.5,0.2-0.9,0.4-1.3c0.2-0.3,0.5-0.6,0.9-0.8c0.4-0.2,0.7-0.4,1.2-0.4c0.4-0.1,0.9-0.1,1.3-0.1
	s0.8,0,1.2,0.1s0.8,0.2,1.1,0.3c0.3,0.2,0.6,0.4,0.8,0.7C7.9,21.2,8,21.6,8,22.1v4.2c0,0.4,0,0.7,0.1,1c0,0.3,0.1,0.6,0.2,0.7H6.1
	c0-0.1-0.1-0.3-0.1-0.4c0-0.1,0-0.3-0.1-0.4c-0.4,0.4-0.8,0.6-1.2,0.8s-1,0.2-1.5,0.2c-0.4,0-0.7,0-1.1-0.1
	c-0.3-0.1-0.6-0.2-0.9-0.4c-0.3-0.2-0.4-0.4-0.6-0.7c-0.1-0.3-0.2-0.7-0.2-1.1c0-0.5,0.1-0.8,0.2-1.1c0.2-0.3,0.4-0.5,0.6-0.7
	c0.3-0.2,0.6-0.3,0.9-0.4c0.3-0.1,0.7-0.2,1-0.2c0.3-0.1,0.7-0.1,1-0.1s0.6-0.1,0.8-0.1c0.2-0.1,0.4-0.2,0.6-0.3
	c0.1-0.1,0.2-0.3,0.2-0.5c0-0.2,0-0.4-0.1-0.6c-0.1-0.1-0.2-0.2-0.3-0.3c-0.1-0.1-0.3-0.1-0.5-0.2c-0.2,0-0.4,0-0.6,0
	c-0.4,0-0.8,0.1-1,0.3c-0.3,0.2-0.4,0.5-0.4,0.9h-2V22.4z M5.9,24c-0.1,0.1-0.2,0.1-0.4,0.2c-0.1,0-0.3,0.1-0.5,0.1
	s-0.3,0.1-0.5,0.1s-0.4,0-0.5,0.1c-0.2,0-0.3,0.1-0.5,0.1c-0.2,0.1-0.3,0.1-0.4,0.2S2.9,25,2.8,25.1c-0.1,0.1-0.1,0.3-0.1,0.5
	c0,0.2,0,0.4,0.1,0.5c0.1,0.1,0.2,0.2,0.3,0.3c0.1,0.1,0.3,0.1,0.4,0.2c0.2,0,0.3,0,0.5,0c0.4,0,0.8-0.1,1-0.2
	c0.2-0.1,0.4-0.3,0.5-0.5s0.2-0.4,0.2-0.6c0-0.2,0-0.4,0-0.5V24H5.9z"/>
<path class="st0" d="M17.6,19.9h1.6v1.5h-1.6v4c0,0.4,0.1,0.6,0.2,0.7c0.1,0.1,0.4,0.2,0.7,0.2c0.2,0,0.5,0,0.7-0.1v1.7
	c-0.2,0-0.4,0.1-0.6,0.1s-0.5,0-0.7,0c-0.3,0-0.7,0-1-0.1c-0.3,0-0.6-0.1-0.8-0.3c-0.2-0.2-0.4-0.3-0.6-0.6s-0.2-0.6-0.2-1v-4.6H14
	v-1.5h1.3v-2.4h2.2L17.6,19.9L17.6,19.9z"/>
<path class="st0" d="M20.3,23.9c0-0.6,0.1-1.2,0.3-1.8c0.2-0.5,0.5-1,0.8-1.3c0.4-0.4,0.8-0.7,1.3-0.9c0.5-0.2,1.1-0.3,1.7-0.3
	s1.2,0.1,1.7,0.3c0.5,0.2,1,0.5,1.3,0.9c0.4,0.4,0.6,0.8,0.8,1.3c0.2,0.5,0.3,1.1,0.3,1.8s-0.1,1.2-0.3,1.7c-0.2,0.5-0.5,1-0.8,1.3
	s-0.8,0.7-1.3,0.9s-1.1,0.3-1.7,0.3s-1.2-0.1-1.7-0.3s-0.9-0.5-1.3-0.9s-0.6-0.8-0.8-1.3C20.4,25.2,20.3,24.6,20.3,23.9z M22.5,23.9
	c0,0.3,0,0.6,0.1,0.9c0.1,0.3,0.2,0.6,0.3,0.8c0.2,0.2,0.4,0.4,0.6,0.6s0.6,0.2,0.9,0.2s0.7-0.1,0.9-0.2c0.3-0.1,0.5-0.3,0.6-0.6
	c0.2-0.2,0.3-0.5,0.3-0.8c0.1-0.3,0.1-0.6,0.1-0.9c0-0.3,0-0.6-0.1-0.9c-0.1-0.3-0.2-0.6-0.3-0.8s-0.4-0.4-0.6-0.6
	c-0.3-0.2-0.6-0.2-0.9-0.2s-0.7,0.1-0.9,0.2s-0.4,0.3-0.6,0.6s-0.3,0.5-0.3,0.8C22.6,23.3,22.5,23.6,22.5,23.9z"/>
<path class="st0" d="M36.1,26.9L36.1,26.9c-0.3,0.4-0.6,0.8-1.1,1c-0.4,0.2-0.9,0.3-1.4,0.3c-0.6,0-1.1-0.1-1.6-0.4
	c-0.5-0.3-0.8-0.6-1.1-1c-0.3-0.4-0.5-0.9-0.7-1.4S30,24.3,30,23.8s0.1-1.1,0.2-1.6s0.4-0.9,0.7-1.3c0.3-0.4,0.7-0.7,1.1-0.9
	c0.4-0.2,1-0.4,1.6-0.4c0.5,0,0.9,0.1,1.4,0.3c0.4,0.2,0.8,0.5,1,0.9l0,0v-4h2.2v11.1h-2.1V26.9z M36.1,23.9c0-0.3,0-0.6-0.1-0.9
	c-0.1-0.3-0.2-0.6-0.3-0.8c-0.2-0.2-0.3-0.4-0.6-0.6c-0.3-0.2-0.5-0.2-0.9-0.2s-0.7,0.1-0.9,0.2c-0.2,0.1-0.4,0.3-0.6,0.6
	s-0.3,0.5-0.3,0.8c0,0.3-0.1,0.6-0.1,1c0,0.3,0,0.6,0.1,0.9s0.2,0.6,0.4,0.8c0.2,0.2,0.4,0.4,0.6,0.6c0.2,0.2,0.5,0.2,0.9,0.2
	s0.7-0.1,0.9-0.2c0.2-0.1,0.4-0.3,0.6-0.6c0.1-0.2,0.2-0.5,0.3-0.8S36.1,24.2,36.1,23.9z"/>
<path class="st0" d="M40,23.9c0-0.6,0.1-1.2,0.3-1.8c0.2-0.5,0.5-1,0.8-1.3c0.4-0.4,0.8-0.7,1.3-0.9c0.5-0.2,1.1-0.3,1.7-0.3
	s1.2,0.1,1.7,0.3c0.5,0.2,1,0.5,1.3,0.9c0.4,0.4,0.6,0.8,0.8,1.3c0.2,0.5,0.3,1.1,0.3,1.8s0,1.3-0.2,1.8s-0.5,1-0.8,1.3
	s-0.8,0.7-1.3,0.9s-1.1,0.3-1.7,0.3s-1.2-0.1-1.7-0.3s-0.9-0.5-1.3-0.9s-0.6-0.8-0.8-1.3C40.1,25.2,40,24.6,40,23.9z M42.2,23.9
	c0,0.3,0,0.6,0.1,0.9c0.1,0.3,0.2,0.6,0.3,0.8c0.2,0.2,0.4,0.4,0.6,0.6s0.6,0.2,0.9,0.2s0.7-0.1,0.9-0.2c0.3-0.1,0.5-0.3,0.6-0.6
	c0.2-0.2,0.3-0.5,0.3-0.8c0.1-0.3,0.1-0.6,0.1-0.9c0-0.3,0-0.6-0.1-0.9c-0.1-0.3-0.2-0.6-0.3-0.8s-0.4-0.4-0.6-0.6
	c-0.3-0.2-0.6-0.2-0.9-0.2s-0.7,0.1-0.9,0.2s-0.4,0.3-0.6,0.6s-0.3,0.5-0.3,0.8C42.2,23.3,42.2,23.6,42.2,23.9z"/>
<path class="st0" d="M56.5,24.5c0,0.7,0.2,1.2,0.5,1.5s0.8,0.5,1.4,0.5c0.4,0,0.8-0.1,1.2-0.3c0.3-0.2,0.5-0.5,0.6-0.7h1.9
	c-0.3,1-0.8,1.6-1.4,2.1c-0.6,0.5-1.4,0.6-2.3,0.6c-0.6,0-1.2-0.1-1.7-0.3s-0.9-0.5-1.3-0.9s-0.6-0.8-0.8-1.3
	c-0.2-0.5-0.3-1.1-0.3-1.7s0.1-1.2,0.3-1.7s0.5-1,0.8-1.3c0.4-0.4,0.8-0.7,1.3-0.9c0.5-0.2,1.1-0.3,1.7-0.3c0.7,0,1.3,0.1,1.8,0.4
	c0.5,0.3,0.9,0.6,1.3,1.1s0.6,1,0.7,1.5s0.2,1.2,0.2,1.8h-5.9V24.5z M60.1,23.1c-0.1-0.6-0.3-1-0.6-1.3c-0.3-0.3-0.7-0.4-1.2-0.4
	c-0.4,0-0.6,0.1-0.9,0.2c-0.2,0.1-0.4,0.3-0.6,0.4c-0.1,0.2-0.2,0.4-0.3,0.6c-0.1,0.2-0.1,0.4-0.1,0.5H60.1z"/>
<path class="st0" d="M63.7,16.8h2.2v11.1h-2.2V16.8z"/>
<path class="st0" d="M77.4,22.7c-0.1-0.9-0.7-1.4-1.6-1.4c-0.4,0-0.6,0.1-0.9,0.2c-0.2,0.2-0.4,0.4-0.6,0.6
	c-0.2,0.2-0.3,0.5-0.3,0.8c-0.1,0.3-0.1,0.6-0.1,0.9c0,0.3,0,0.6,0.1,0.9c0.1,0.3,0.2,0.6,0.3,0.8c0.1,0.2,0.3,0.4,0.6,0.6
	c0.2,0.2,0.5,0.2,0.9,0.2c0.5,0,0.9-0.1,1.2-0.4c0.3-0.3,0.5-0.7,0.5-1.2h2.1c-0.1,1.1-0.6,1.9-1.2,2.5c-0.7,0.6-1.6,0.8-2.6,0.8
	c-0.6,0-1.2-0.1-1.7-0.3s-0.9-0.5-1.3-0.9S72.2,26,72,25.5c-0.2-0.5-0.3-1.1-0.3-1.7s0.1-1.2,0.3-1.7c0.2-0.5,0.4-1,0.8-1.4
	s0.8-0.7,1.3-0.9s1.1-0.3,1.7-0.3c0.5,0,0.9,0.1,1.4,0.2s0.8,0.3,1.2,0.6s0.6,0.6,0.8,1c0.2,0.4,0.4,0.8,0.4,1.3L77.4,22.7
	L77.4,22.7z"/>
<path class="st0" d="M88.4,28h-2.1v-1.1l0,0c-0.3,0.5-0.6,0.8-1.1,1c-0.4,0.2-0.9,0.3-1.4,0.3c-0.6,0-1.1-0.1-1.5-0.2
	c-0.4-0.2-0.7-0.4-0.9-0.7c-0.2-0.3-0.4-0.6-0.5-1c-0.1-0.4-0.1-0.9-0.1-1.4v-5H83v4.5c0,0.7,0.1,1.2,0.3,1.5
	c0.2,0.3,0.6,0.5,1.1,0.5c0.6,0,1-0.2,1.3-0.5c0.3-0.4,0.4-0.9,0.4-1.8v-4.2h2.2V28H88.4z"/>
<path class="st0" d="M92,24.5c0,0.7,0.2,1.2,0.5,1.5s0.8,0.5,1.4,0.5c0.4,0,0.8-0.1,1.2-0.3c0.3-0.2,0.5-0.5,0.6-0.7h1.9
	c-0.3,1-0.8,1.6-1.4,2.1c-0.6,0.5-1.4,0.6-2.3,0.6c-0.6,0-1.2-0.1-1.7-0.3s-0.9-0.5-1.3-0.9s-0.6-0.8-0.8-1.3
	c-0.2-0.5-0.3-1.1-0.3-1.7s0.1-1.2,0.3-1.7s0.5-1,0.8-1.3c0.4-0.4,0.8-0.7,1.3-0.9c0.5-0.2,1.1-0.3,1.7-0.3c0.7,0,1.3,0.1,1.8,0.4
	c0.5,0.3,0.9,0.6,1.3,1.1s0.6,1,0.7,1.5s0.2,1.2,0.2,1.8H92V24.5z M95.5,23.1c-0.1-0.6-0.3-1-0.6-1.3c-0.3-0.3-0.7-0.4-1.2-0.4
	c-0.4,0-0.6,0.1-0.9,0.2c-0.2,0.1-0.4,0.3-0.6,0.4c-0.1,0.2-0.2,0.4-0.3,0.6c-0.1,0.2-0.1,0.4-0.1,0.5H95.5z"/>
<path class="st0" d="M99.1,19.9h2.1v1.5l0,0c0.1-0.2,0.2-0.5,0.4-0.7c0.2-0.2,0.4-0.4,0.6-0.5c0.2-0.2,0.5-0.3,0.7-0.4
	c0.3-0.1,0.6-0.1,0.9-0.1c0.2,0,0.3,0,0.5,0.1v2.1c-0.1,0-0.2,0-0.4-0.1c-0.1,0-0.3,0-0.4,0c-0.4,0-0.7,0.1-1,0.2s-0.5,0.3-0.7,0.6
	c-0.2,0.2-0.3,0.5-0.4,0.8s-0.1,0.7-0.1,1V28h-2.2V19.9z"/>
<path class="st0" d="M105.1,19.9h2.1v1l0,0c0.3-0.4,0.6-0.8,1-0.9c0.4-0.2,0.9-0.3,1.4-0.3c0.6,0,1.2,0.1,1.6,0.4
	c0.4,0.3,0.8,0.6,1.1,0.9c0.3,0.4,0.5,0.9,0.7,1.4c0.1,0.5,0.2,1.1,0.2,1.6s-0.1,1.1-0.2,1.6s-0.4,0.9-0.7,1.3
	c-0.3,0.4-0.7,0.7-1.1,0.9s-1,0.4-1.5,0.4s-0.9-0.1-1.4-0.3c-0.5-0.2-0.8-0.5-1-0.9l0,0v3.8h-2.2V19.9z M109.2,26.5
	c0.4,0,0.7-0.1,0.9-0.2c0.2-0.1,0.4-0.3,0.6-0.6c0.2-0.3,0.3-0.5,0.3-0.8s0.1-0.6,0.1-1c0-0.3,0-0.6-0.1-1c-0.1-0.3-0.2-0.6-0.3-0.8
	c-0.2-0.2-0.4-0.4-0.6-0.6c-0.2-0.2-0.5-0.2-0.9-0.2s-0.7,0.1-0.9,0.2c-0.2,0.2-0.4,0.3-0.6,0.6c-0.2,0.3-0.3,0.5-0.3,0.8
	c-0.1,0.3-0.1,0.6-0.1,1c0,0.3,0,0.7,0.1,1s0.2,0.6,0.3,0.8c0.1,0.2,0.3,0.4,0.6,0.6C108.5,26.4,108.8,26.5,109.2,26.5z"/>
<path class="st0" d="M114.4,23.9c0-0.6,0.1-1.2,0.3-1.8c0.2-0.5,0.5-1,0.8-1.3c0.4-0.4,0.8-0.7,1.3-0.9c0.5-0.2,1.1-0.3,1.7-0.3
	s1.2,0.1,1.7,0.3c0.5,0.2,1,0.5,1.3,0.9c0.4,0.4,0.6,0.8,0.8,1.3c0.2,0.5,0.3,1.1,0.3,1.8s-0.1,1.2-0.3,1.7c-0.2,0.5-0.5,1-0.8,1.3
	s-0.8,0.7-1.3,0.9s-1.1,0.3-1.7,0.3s-1.2-0.1-1.7-0.3s-0.9-0.5-1.3-0.9s-0.6-0.8-0.8-1.3C114.5,25.2,114.4,24.6,114.4,23.9z
	 M116.6,23.9c0,0.3,0,0.6,0.1,0.9c0.1,0.3,0.2,0.6,0.3,0.8c0.2,0.2,0.4,0.4,0.6,0.6s0.6,0.2,0.9,0.2s0.7-0.1,0.9-0.2
	c0.3-0.1,0.5-0.3,0.6-0.6c0.2-0.2,0.3-0.5,0.3-0.8c0.1-0.3,0.1-0.6,0.1-0.9c0-0.3,0-0.6-0.1-0.9c-0.1-0.3-0.2-0.6-0.3-0.8
	s-0.4-0.4-0.6-0.6c-0.3-0.2-0.6-0.2-0.9-0.2s-0.7,0.1-0.9,0.2s-0.4,0.3-0.6,0.6s-0.3,0.5-0.3,0.8C116.6,23.3,116.6,23.6,116.6,23.9z
	"/>
<path class="st0" d="M130.3,24.5c0,0.7,0.2,1.2,0.5,1.5s0.8,0.5,1.4,0.5c0.4,0,0.8-0.1,1.2-0.3c0.3-0.2,0.5-0.5,0.6-0.7h1.9
	c-0.3,1-0.8,1.6-1.4,2.1c-0.6,0.5-1.4,0.6-2.3,0.6c-0.6,0-1.2-0.1-1.7-0.3s-0.9-0.5-1.3-0.9s-0.6-0.8-0.8-1.3
	c-0.2-0.5-0.3-1.1-0.3-1.7s0.1-1.2,0.3-1.7s0.5-1,0.8-1.3c0.4-0.4,0.8-0.7,1.3-0.9c0.5-0.2,1.1-0.3,1.7-0.3c0.7,0,1.3,0.1,1.8,0.4
	c0.5,0.3,0.9,0.6,1.3,1.1s0.6,1,0.7,1.5s0.2,1.2,0.2,1.8h-5.9V24.5z M133.9,23.1c-0.1-0.6-0.3-1-0.6-1.3c-0.3-0.3-0.7-0.4-1.2-0.4
	c-0.4,0-0.6,0.1-0.9,0.2c-0.2,0.1-0.4,0.3-0.6,0.4c-0.1,0.2-0.2,0.4-0.3,0.6c-0.1,0.2-0.1,0.4-0.1,0.5H133.9z"/>
<path class="st0" d="M144,18.7h-2.2v-1.9h2.2V18.7z M141.8,19.9h2.2v8h-2.2V19.9z"/>
<path class="st0" d="M145.8,19.9h2.1V21l0,0c0.3-0.4,0.6-0.7,1.1-1s0.9-0.3,1.4-0.3s1,0.1,1.4,0.3s0.7,0.5,1,1
	c0.2-0.4,0.6-0.7,1-0.9c0.4-0.3,0.9-0.4,1.5-0.4c0.4,0,0.8,0.1,1.2,0.2s0.7,0.3,0.9,0.5c0.3,0.2,0.5,0.5,0.6,0.9s0.2,0.8,0.2,1.3V28
	H156v-4.6c0-0.3,0-0.5,0-0.8c0-0.2-0.1-0.4-0.2-0.6c-0.1-0.2-0.2-0.3-0.4-0.4c-0.2-0.1-0.4-0.2-0.7-0.2s-0.6,0.1-0.8,0.2
	c-0.2,0.1-0.3,0.3-0.5,0.5c-0.2,0.2-0.2,0.4-0.3,0.6c0,0.2-0.1,0.5-0.1,0.7v4.5h-2.2v-4.5c0-0.2,0-0.5,0-0.7c0-0.2-0.1-0.5-0.1-0.7
	s-0.2-0.4-0.4-0.5s-0.4-0.2-0.8-0.2c-0.1,0-0.3,0-0.4,0.1c-0.2,0-0.3,0.1-0.5,0.3c-0.2,0.1-0.3,0.3-0.4,0.6c-0.1,0.2-0.2,0.6-0.2,1
	V28h-2.2V19.9z"/>
<path class="st0" d="M159.9,19.9h2.1v1l0,0c0.3-0.4,0.6-0.8,1-0.9c0.4-0.2,0.9-0.3,1.4-0.3c0.6,0,1.2,0.1,1.6,0.4
	c0.4,0.3,0.8,0.6,1.1,0.9c0.3,0.4,0.5,0.9,0.7,1.4c0.1,0.5,0.2,1.1,0.2,1.6s-0.1,1.1-0.2,1.6c-0.1,0.5-0.4,0.9-0.7,1.3
	c-0.3,0.4-0.7,0.7-1.1,0.9c-0.4,0.2-1,0.4-1.5,0.4s-0.9-0.1-1.4-0.3c-0.5-0.2-0.8-0.5-1-0.9l0,0v3.8h-2.2L159.9,19.9L159.9,19.9z
	 M163.9,26.5c0.4,0,0.7-0.1,0.9-0.2c0.2-0.1,0.4-0.3,0.6-0.6c0.2-0.3,0.3-0.5,0.3-0.8s0.1-0.6,0.1-1c0-0.3,0-0.6-0.1-1
	c-0.1-0.3-0.2-0.6-0.3-0.8c-0.2-0.2-0.4-0.4-0.6-0.6c-0.2-0.2-0.5-0.2-0.9-0.2s-0.7,0.1-0.9,0.2c-0.2,0.2-0.4,0.3-0.6,0.6
	c-0.2,0.3-0.2,0.6-0.3,0.9s-0.1,0.6-0.1,1c0,0.3,0,0.7,0.1,1s0.2,0.6,0.3,0.8c0.1,0.2,0.3,0.4,0.6,0.6
	C163.3,26.4,163.6,26.5,163.9,26.5z"/>
<path class="st0" d="M169.4,16.8h2.2v11.1h-2.2V16.8z"/>
<path class="st0" d="M175.7,18.7h-2.2v-1.9h2.2V18.7z M173.5,19.9h2.2v8h-2.2V19.9z"/>
<path class="st0" d="M182.9,22.7c-0.1-0.9-0.7-1.4-1.6-1.4c-0.4,0-0.6,0.1-0.9,0.2c-0.2,0.2-0.4,0.4-0.6,0.6
	c-0.2,0.2-0.3,0.5-0.3,0.8c-0.1,0.3-0.1,0.6-0.1,0.9c0,0.3,0,0.6,0.1,0.9c0.1,0.3,0.2,0.6,0.3,0.8s0.3,0.4,0.6,0.6
	c0.2,0.2,0.5,0.2,0.9,0.2c0.5,0,0.9-0.1,1.2-0.4s0.5-0.7,0.5-1.2h2.1c-0.1,1.1-0.6,1.9-1.2,2.5c-0.7,0.6-1.6,0.8-2.6,0.8
	c-0.6,0-1.2-0.1-1.7-0.3s-0.9-0.5-1.3-0.9c-0.4-0.4-0.6-0.8-0.8-1.3c-0.2-0.3-0.3-0.8-0.3-1.5c0-0.6,0.1-1.2,0.3-1.7s0.4-1,0.8-1.4
	c0.4-0.4,0.8-0.7,1.3-0.9s1.1-0.3,1.7-0.3c0.5,0,0.9,0.1,1.4,0.2s0.8,0.3,1.2,0.6c0.4,0.3,0.6,0.6,0.8,1s0.4,0.8,0.4,1.3h-2.2V22.7z
	"/>
<path class="st0" d="M186.3,22.4c0-0.5,0.2-0.9,0.4-1.3c0.2-0.3,0.5-0.6,0.9-0.8c0.4-0.2,0.7-0.4,1.2-0.4c0.4-0.1,0.9-0.1,1.3-0.1
	c0.4,0,0.8,0,1.2,0.1s0.8,0.2,1.1,0.3c0.3,0.2,0.6,0.4,0.8,0.7s0.3,0.7,0.3,1.2v4.2c0,0.4,0,0.7,0.1,1c0,0.3,0.1,0.6,0.2,0.7h-2.2
	c0-0.1-0.1-0.3-0.1-0.4c0-0.1,0-0.3-0.1-0.4c-0.4,0.4-0.8,0.6-1.2,0.8s-1,0.2-1.5,0.2c-0.4,0-0.7,0-1.1-0.1
	c-0.3-0.1-0.6-0.2-0.9-0.4c-0.3-0.2-0.4-0.4-0.6-0.7c-0.1-0.3-0.2-0.7-0.2-1.1c0-0.5,0.1-0.8,0.2-1.1c0.2-0.3,0.4-0.5,0.6-0.7
	c0.3-0.2,0.6-0.3,0.9-0.4c0.3-0.1,0.7-0.2,1-0.2c0.3-0.1,0.7-0.1,1-0.1s0.6-0.1,0.8-0.1c0.2-0.1,0.4-0.2,0.6-0.3
	c0.1-0.1,0.2-0.3,0.2-0.5c0-0.2,0-0.4-0.1-0.6c-0.1-0.1-0.2-0.2-0.3-0.3c-0.1-0.1-0.3-0.1-0.5-0.2c-0.2,0-0.4,0-0.6,0
	c-0.4,0-0.8,0.1-1,0.3c-0.3,0.2-0.4,0.5-0.4,0.9h-2V22.4z M191.4,24c-0.1,0.1-0.2,0.1-0.4,0.2c-0.1,0-0.3,0.1-0.5,0.1
	s-0.3,0.1-0.5,0.1s-0.4,0-0.5,0.1c-0.2,0-0.3,0.1-0.5,0.1c-0.2,0.1-0.3,0.1-0.4,0.2c-0.1,0.1-0.2,0.2-0.3,0.3c0,0.2-0.1,0.4-0.1,0.6
	c0,0.2,0,0.4,0.1,0.5c0.1,0.1,0.2,0.2,0.3,0.3s0.3,0.1,0.4,0.2c0.2,0,0.3,0,0.5,0c0.4,0,0.8-0.1,1-0.2s0.4-0.3,0.5-0.5
	s0.2-0.4,0.2-0.6s0-0.4,0-0.5V24H191.4z"/>
<path class="st0" d="M207.2,28h-2.1v-1.1l0,0c-0.3,0.5-0.6,0.8-1.1,1c-0.4,0.2-0.9,0.3-1.4,0.3c-0.6,0-1.1-0.1-1.5-0.2
	c-0.4-0.2-0.7-0.4-0.9-0.7c-0.2-0.3-0.4-0.6-0.5-1c-0.1-0.4-0.1-0.9-0.1-1.4v-5h2.2v4.5c0,0.7,0.1,1.2,0.3,1.5
	c0.2,0.3,0.6,0.5,1.1,0.5c0.6,0,1-0.2,1.3-0.5c0.3-0.4,0.4-0.9,0.4-1.8v-4.2h2.2L207.2,28L207.2,28z"/>
<path class="st0" d="M208.9,19.9h2.1V21l0,0c0.3-0.5,0.6-0.8,1.1-1c0.4-0.2,0.9-0.3,1.4-0.3c0.6,0,1.1,0.1,1.5,0.2
	c0.4,0.2,0.7,0.4,0.9,0.7s0.4,0.6,0.5,1s0.1,0.9,0.1,1.4v5h-2.3v-4.6c0-0.7-0.1-1.2-0.3-1.5s-0.6-0.5-1.1-0.5c-0.6,0-1,0.2-1.3,0.5
	c-0.3,0.4-0.4,0.9-0.4,1.8v4.2h-2.2V19.9z"/>
<path class="st0" d="M230.2,27.4c0,0.2,0,0.5-0.1,0.7c0,0.3-0.1,0.5-0.2,0.8s-0.2,0.5-0.4,0.8c-0.2,0.2-0.4,0.5-0.7,0.7
	s-0.7,0.3-1.1,0.5c-0.4,0.1-1,0.2-1.6,0.2c-0.4,0-0.8,0-1.2-0.1c-0.4-0.1-0.8-0.3-1.1-0.5c-0.3-0.2-0.6-0.5-0.8-0.8
	s-0.4-0.7-0.4-1.2h2.2c0.1,0.4,0.3,0.7,0.6,0.9c0.3,0.2,0.6,0.2,1,0.2c0.6,0,1.1-0.2,1.4-0.6c0.3-0.4,0.4-0.9,0.4-1.4v-1.1l0,0
	c-0.2,0.4-0.6,0.7-1,0.9s-0.9,0.3-1.4,0.3c-0.6,0-1.1-0.1-1.6-0.3c-0.4-0.2-0.8-0.5-1.1-0.9s-0.5-0.8-0.6-1.3
	c-0.3-0.5-0.3-1-0.3-1.5s0.1-1,0.2-1.5c0.2-0.5,0.4-0.9,0.7-1.3s0.7-0.7,1.1-0.9c0.4-0.2,0.9-0.3,1.5-0.3c0.5,0,1,0.1,1.4,0.3
	c0.4,0.2,0.7,0.5,1,1l0,0v-1.1h2.1V27.4z M226.2,26.1c0.3,0,0.6-0.1,0.8-0.2c0.2-0.1,0.4-0.3,0.6-0.5c0.2-0.2,0.3-0.4,0.4-0.7
	c0.1-0.3,0.1-0.5,0.1-0.8s0-0.6-0.1-0.9c-0.1-0.3-0.2-0.6-0.3-0.8c-0.1-0.2-0.3-0.4-0.6-0.5c-0.3-0.1-0.5-0.2-0.9-0.2
	c-0.3,0-0.6,0.1-0.8,0.2c-0.2,0.1-0.4,0.3-0.6,0.5c-0.2,0.2-0.3,0.5-0.3,0.7c-0.1,0.3-0.1,0.6-0.1,0.9s0,0.6,0.1,0.9
	s0.2,0.5,0.3,0.8c0.1,0.2,0.3,0.4,0.6,0.6C225.5,26,225.8,26.1,226.2,26.1z"/>
<path class="st0" d="M231.9,19.9h2.1v1.5l0,0c0.1-0.2,0.2-0.5,0.4-0.7c0.2-0.2,0.4-0.4,0.6-0.5c0.2-0.2,0.5-0.3,0.7-0.4
	c0.3-0.1,0.5-0.1,0.8-0.1c0.2,0,0.3,0,0.5,0.1v2.1c-0.1,0-0.2,0-0.4-0.1c-0.1,0-0.3,0-0.4,0c-0.4,0-0.7,0.1-1,0.2s-0.5,0.3-0.7,0.6
	c-0.2,0.2-0.3,0.5-0.4,0.8c-0.1,0.3-0.1,0.7-0.1,1V28h-2.2v-8.1H231.9z"/>
<path class="st0" d="M245.5,28h-2.1v-1.1l0,0c-0.3,0.5-0.6,0.8-1.1,1c-0.4,0.2-0.9,0.3-1.4,0.3c-0.6,0-1.1-0.1-1.5-0.2
	c-0.4-0.2-0.7-0.4-0.9-0.7c-0.2-0.3-0.4-0.6-0.5-1c-0.1-0.4-0.1-0.9-0.1-1.4v-5h2.2v4.5c0,0.7,0.1,1.2,0.3,1.5
	c0.2,0.3,0.6,0.5,1.1,0.5c0.6,0,1-0.2,1.3-0.5c0.3-0.4,0.4-0.9,0.4-1.8v-4.2h2.2L245.5,28L245.5,28z"/>
<path class="st0" d="M247.2,19.9h2.1v1l0,0c0.3-0.4,0.6-0.8,1-0.9c0.4-0.2,0.9-0.3,1.4-0.3c0.6,0,1.2,0.1,1.6,0.4
	c0.4,0.3,0.8,0.6,1.1,0.9c0.3,0.4,0.5,0.9,0.7,1.4c0.1,0.5,0.2,1.1,0.2,1.6s-0.1,1.1-0.2,1.6c-0.1,0.5-0.4,0.9-0.7,1.3
	c-0.3,0.4-0.7,0.7-1.1,0.9c-0.4,0.2-1,0.4-1.5,0.4s-0.9-0.1-1.4-0.3c-0.5-0.2-0.8-0.5-1-0.9l0,0v3.8h-2.2V19.9z M251.3,26.5
	c0.4,0,0.7-0.1,0.9-0.2c0.2-0.1,0.4-0.3,0.6-0.6c0.2-0.3,0.3-0.5,0.3-0.8s0.1-0.6,0.1-1c0-0.3,0-0.6-0.1-1c-0.1-0.3-0.2-0.6-0.3-0.8
	c-0.2-0.2-0.4-0.4-0.6-0.6c-0.2-0.2-0.5-0.2-0.9-0.2s-0.7,0.1-0.9,0.2c-0.2,0.2-0.4,0.3-0.6,0.6c-0.2,0.3-0.3,0.5-0.3,0.8
	c-0.1,0.3-0.1,0.6-0.1,1c0,0.3,0,0.7,0.1,1s0.2,0.6,0.3,0.8c0.1,0.2,0.3,0.4,0.6,0.6C250.6,26.4,250.9,26.5,251.3,26.5z"/>
<path class="st0" d="M256.5,23.9c0-0.6,0.1-1.2,0.3-1.8c0.2-0.5,0.5-1,0.8-1.3c0.4-0.4,0.8-0.7,1.3-0.9c0.5-0.2,1.1-0.3,1.7-0.3
	s1.2,0.1,1.7,0.3c0.5,0.2,1,0.5,1.3,0.9c0.4,0.4,0.6,0.8,0.8,1.3s0.3,1.1,0.3,1.8s-0.1,1.2-0.3,1.7s-0.5,1-0.8,1.3s-0.8,0.7-1.3,0.9
	s-1.1,0.3-1.7,0.3s-1.2-0.1-1.7-0.3s-0.9-0.5-1.3-0.9s-0.6-0.8-0.8-1.3C256.6,25.2,256.5,24.6,256.5,23.9z M258.7,23.9
	c0,0.3,0,0.6,0.1,0.9c0.1,0.3,0.2,0.6,0.3,0.8c0.2,0.2,0.4,0.4,0.6,0.6s0.6,0.2,0.9,0.2s0.7-0.1,0.9-0.2c0.3-0.1,0.5-0.3,0.6-0.6
	c0.2-0.2,0.3-0.5,0.3-0.8c0.1-0.3,0.1-0.6,0.1-0.9c0-0.3,0-0.6-0.1-0.9c-0.1-0.3-0.2-0.6-0.3-0.8s-0.4-0.4-0.6-0.6
	c-0.3-0.2-0.6-0.2-0.9-0.2s-0.7,0.1-0.9,0.2s-0.4,0.3-0.6,0.6s-0.3,0.5-0.3,0.8C258.7,23.3,258.7,23.6,258.7,23.9z"/>
<path class="st0" d="M276.3,26.9L276.3,26.9c-0.3,0.4-0.6,0.8-1.1,1c-0.4,0.2-0.9,0.3-1.4,0.3c-0.6,0-1.1-0.1-1.6-0.4
	s-0.8-0.6-1.1-1c-0.3-0.4-0.5-0.9-0.7-1.4s-0.2-1-0.2-1.5s0.1-1.1,0.2-1.6s0.4-0.9,0.7-1.3s0.7-0.7,1.1-0.9c0.4-0.2,1-0.4,1.6-0.4
	c0.5,0,0.9,0.1,1.4,0.3c0.4,0.2,0.8,0.5,1,0.9l0,0v-4h2.2V28h-2.1L276.3,26.9L276.3,26.9z M276.3,23.9c0-0.3,0-0.6-0.1-0.9
	c-0.1-0.3-0.2-0.6-0.3-0.8c-0.2-0.2-0.3-0.4-0.6-0.6c-0.3-0.2-0.5-0.2-0.9-0.2s-0.7,0.1-0.9,0.2c-0.2,0.1-0.4,0.3-0.6,0.6
	s-0.3,0.5-0.3,0.8c0,0.3-0.1,0.6-0.1,1c0,0.3,0,0.6,0.1,0.9s0.2,0.6,0.4,0.8c0.2,0.2,0.4,0.4,0.6,0.6c0.2,0.2,0.5,0.2,0.9,0.2
	s0.7-0.1,0.9-0.2c0.2-0.1,0.4-0.3,0.6-0.6c0.1-0.2,0.2-0.5,0.3-0.8S276.3,24.2,276.3,23.9z"/>
<path class="st0" d="M281.9,24.5c0,0.7,0.2,1.2,0.5,1.5s0.8,0.5,1.4,0.5c0.4,0,0.8-0.1,1.2-0.3c0.3-0.2,0.5-0.5,0.6-0.7h1.9
	c-0.3,1-0.8,1.6-1.4,2.1c-0.6,0.5-1.4,0.6-2.3,0.6c-0.6,0-1.2-0.1-1.7-0.3s-0.9-0.5-1.3-0.9c-0.4-0.4-0.6-0.8-0.8-1.3
	s-0.3-1.1-0.3-1.7s0.1-1.2,0.3-1.7s0.5-1,0.8-1.3c0.4-0.4,0.8-0.7,1.3-0.9c0.5-0.2,1.1-0.3,1.7-0.3c0.7,0,1.3,0.1,1.8,0.4
	c0.5,0.3,0.9,0.6,1.3,1.1s0.6,1,0.7,1.5s0.2,1.2,0.2,1.8h-5.9V24.5z M285.5,23.1c-0.1-0.6-0.3-1-0.6-1.3c-0.3-0.3-0.7-0.4-1.2-0.4
	c-0.4,0-0.6,0.1-0.9,0.2c-0.2,0.1-0.4,0.3-0.6,0.4c-0.1,0.2-0.2,0.4-0.3,0.6c-0.1,0.2-0.1,0.4-0.1,0.5H285.5z"/>
<path class="st0" d="M293.4,19.9h2.1v1.5l0,0c0.1-0.2,0.2-0.5,0.4-0.7c0.2-0.2,0.4-0.4,0.6-0.5c0.2-0.2,0.5-0.3,0.7-0.4
	c0.3-0.1,0.5-0.1,0.8-0.1c0.2,0,0.3,0,0.5,0.1v2.1c-0.1,0-0.2,0-0.4-0.1c-0.1,0-0.3,0-0.4,0c-0.4,0-0.7,0.1-1,0.2s-0.5,0.3-0.7,0.6
	c-0.2,0.2-0.3,0.5-0.4,0.8c-0.1,0.3-0.1,0.7-0.1,1V28h-2.2v-8.1H293.4z"/>
<path class="st0" d="M301.2,24.5c0,0.7,0.2,1.2,0.5,1.5s0.8,0.5,1.4,0.5c0.4,0,0.8-0.1,1.2-0.3c0.3-0.2,0.5-0.5,0.6-0.7h1.9
	c-0.3,1-0.8,1.6-1.4,2.1c-0.6,0.5-1.4,0.6-2.3,0.6c-0.6,0-1.2-0.1-1.7-0.3s-0.9-0.5-1.3-0.9c-0.4-0.4-0.6-0.8-0.8-1.3
	S299,24.6,299,24s0.1-1.2,0.3-1.7s0.5-1,0.8-1.3c0.4-0.4,0.8-0.7,1.3-0.9c0.5-0.2,1.1-0.3,1.7-0.3c0.7,0,1.3,0.1,1.8,0.4
	c0.5,0.3,0.9,0.6,1.3,1.1s0.6,1,0.7,1.5s0.2,1.2,0.2,1.8h-5.9V24.5z M304.8,23.1c-0.1-0.6-0.3-1-0.6-1.3c-0.3-0.3-0.7-0.4-1.2-0.4
	c-0.4,0-0.6,0.1-0.9,0.2c-0.2,0.1-0.4,0.3-0.6,0.4c-0.1,0.2-0.2,0.4-0.3,0.6c-0.1,0.2,0,0.3,0,0.5H304.8z"/>
<path class="st0" d="M308.3,22.4c0-0.5,0.2-0.9,0.4-1.3c0.2-0.3,0.5-0.6,0.9-0.8c0.4-0.2,0.7-0.4,1.2-0.4c0.4-0.1,0.9-0.1,1.3-0.1
	c0.4,0,0.8,0,1.2,0.1s0.8,0.2,1.1,0.3c0.3,0.2,0.6,0.4,0.8,0.7s0.3,0.7,0.3,1.2v4.2c0,0.4,0,0.7,0.1,1c0,0.3,0.1,0.6,0.2,0.7h-2.2
	c0-0.1-0.1-0.3-0.1-0.4c0-0.1,0-0.3-0.1-0.4c-0.4,0.4-0.8,0.6-1.2,0.8s-1,0.2-1.5,0.2c-0.4,0-0.7,0-1.1-0.1
	c-0.3-0.1-0.6-0.2-0.9-0.4c-0.3-0.2-0.4-0.4-0.6-0.7c-0.1-0.3-0.2-0.7-0.2-1.1c0-0.5,0.1-0.8,0.2-1.1c0.2-0.3,0.4-0.5,0.6-0.7
	c0.3-0.2,0.6-0.3,0.9-0.4c0.3-0.1,0.7-0.2,1-0.2c0.3-0.1,0.7-0.1,1-0.1s0.6-0.1,0.8-0.1c0.2-0.1,0.4-0.2,0.6-0.3
	c0.1-0.1,0.2-0.3,0.2-0.5c0-0.2,0-0.4-0.1-0.6c-0.1-0.1-0.2-0.2-0.3-0.3c-0.1-0.1-0.3-0.1-0.5-0.2c-0.2,0-0.4,0-0.6,0
	c-0.4,0-0.8,0.1-1,0.3c-0.3,0.2-0.4,0.5-0.4,0.9h-2V22.4z M313.4,24c-0.1,0.1-0.2,0.1-0.4,0.2c-0.1,0-0.3,0.1-0.5,0.1
	s-0.3,0.1-0.5,0.1s-0.4,0-0.5,0.1c-0.2,0-0.3,0.1-0.5,0.1c-0.2,0.1-0.3,0.1-0.4,0.2c-0.1,0.1-0.2,0.2-0.3,0.3c0,0.2-0.1,0.4-0.1,0.6
	c0,0.2,0,0.4,0.1,0.5c0.1,0.1,0.2,0.2,0.3,0.3s0.3,0.1,0.4,0.2c0.2,0,0.3,0,0.5,0c0.4,0,0.8-0.1,1-0.2s0.4-0.3,0.5-0.5
	s0.2-0.4,0.2-0.6s0-0.4,0-0.5V24H313.4z"/>
<path class="st0" d="M322.8,22.7c-0.1-0.9-0.7-1.4-1.6-1.4c-0.4,0-0.6,0.1-0.9,0.2c-0.2,0.2-0.4,0.4-0.6,0.6
	c-0.2,0.2-0.3,0.5-0.3,0.8c-0.1,0.5-0.2,0.8-0.2,1.1s0,0.6,0.1,0.9s0.2,0.6,0.3,0.8c0.1,0.2,0.3,0.4,0.6,0.6
	c0.2,0.2,0.5,0.2,0.9,0.2c0.5,0,0.9-0.1,1.2-0.4s0.5-0.7,0.5-1.2h2.1c-0.1,1.1-0.6,1.9-1.2,2.5c-0.7,0.6-1.6,0.8-2.6,0.8
	c-0.6,0-1.2-0.1-1.7-0.3c-0.5-0.2-0.9-0.5-1.3-0.9c-0.4-0.4-0.6-0.8-0.8-1.3S317,24.6,317,24c0-0.6,0.1-1.2,0.3-1.7s0.4-1,0.8-1.4
	c0.4-0.4,0.8-0.7,1.3-0.9c0.5-0.2,1.1-0.3,1.7-0.3c0.5,0,0.9,0.1,1.4,0.2s0.8,0.3,1.2,0.6c0.4,0.3,0.6,0.6,0.8,1
	c0.2,0.4,0.4,0.8,0.4,1.3h-2.1V22.7z"/>
<path class="st0" d="M331.7,22.7c-0.1-0.9-0.7-1.4-1.6-1.4c-0.4,0-0.6,0.1-0.9,0.2c-0.2,0.2-0.4,0.4-0.6,0.6
	c-0.2,0.2-0.3,0.5-0.3,0.8c-0.1,0.5-0.1,0.8-0.1,1.1s0,0.6,0.1,0.9s0.2,0.6,0.3,0.8c0.1,0.2,0.3,0.4,0.6,0.6
	c0.2,0.2,0.5,0.2,0.9,0.2c0.5,0,0.9-0.1,1.2-0.4s0.5-0.7,0.5-1.2h2.1c-0.1,1.1-0.6,1.9-1.2,2.5c-0.7,0.6-1.6,0.8-2.6,0.8
	c-0.6,0-1.2-0.1-1.7-0.3c-0.5-0.2-0.9-0.5-1.3-0.9c-0.4-0.4-0.6-0.8-0.8-1.3S326,24.6,326,24c0-0.6,0.1-1.2,0.3-1.7s0.4-1,0.8-1.4
	c0.4-0.4,0.8-0.7,1.3-0.9c0.5-0.2,1.1-0.3,1.7-0.3c0.5,0,0.9,0.1,1.4,0.2s0.8,0.3,1.2,0.6c0.4,0.3,0.6,0.6,0.8,1
	c0.2,0.4,0.4,0.8,0.4,1.3h-2.2V22.7z"/>
<path class="st0" d="M337.4,18.7h-2.2v-1.9h2.2V18.7z M335.2,19.9h2.2v8h-2.2V19.9z"/>
<path class="st0" d="M338.9,23.9c0-0.6,0.1-1.2,0.3-1.8c0.2-0.5,0.5-1,0.8-1.3c0.4-0.4,0.8-0.7,1.3-0.9c0.5-0.2,1.1-0.3,1.7-0.3
	s1.2,0.1,1.7,0.3c0.5,0.2,1,0.5,1.3,0.9c0.4,0.4,0.6,0.8,0.8,1.3s0.3,1.1,0.3,1.8s0.1,1.3-0.1,1.8s-0.5,1-0.8,1.3s-0.8,0.7-1.3,0.9
	s-1.1,0.3-1.7,0.3s-1.2-0.1-1.7-0.3s-0.9-0.5-1.3-0.9s-0.8-0.8-1-1.3S338.9,24.6,338.9,23.9z M341.1,23.9c0,0.3,0,0.6,0.1,0.9
	c0.1,0.3,0.2,0.6,0.3,0.8c0.2,0.2,0.4,0.4,0.6,0.6s0.6,0.2,0.9,0.2s0.7-0.1,0.9-0.2c0.3-0.1,0.5-0.3,0.6-0.6
	c0.2-0.2,0.3-0.5,0.3-0.8c0.1-0.3,0.1-0.6,0.1-0.9c0-0.3,0-0.6-0.1-0.9c-0.1-0.3-0.2-0.6-0.3-0.8s-0.4-0.4-0.6-0.6
	c-0.3-0.2-0.6-0.2-0.9-0.2s-0.7,0.1-0.9,0.2s-0.4,0.3-0.6,0.6s-0.2,0.5-0.3,0.8C341.2,23.3,341.1,23.6,341.1,23.9z"/>
<path class="st0" d="M348.7,19.9h2.1V21l0,0c0.3-0.5,0.6-0.8,1.1-1c0.4-0.2,0.9-0.3,1.4-0.3c0.6,0,1.1,0.1,1.5,0.2
	c0.4,0.2,0.7,0.4,0.9,0.7s0.4,0.6,0.5,1s0.1,0.9,0.1,1.4v5h-2.2v-4.6c0-0.7-0.1-1.2-0.3-1.5s-0.6-0.5-1.1-0.5c-0.6,0-1,0.2-1.3,0.5
	c-0.3,0.4-0.4,0.9-0.4,1.8v4.2h-2.2L348.7,19.9L348.7,19.9z"/>
<path class="st0" d="M359.7,24.5c0,0.7,0.2,1.2,0.5,1.5s0.8,0.5,1.4,0.5c0.4,0,0.8-0.1,1.2-0.3c0.3-0.2,0.5-0.5,0.6-0.7h1.9
	c-0.3,1-0.8,1.6-1.4,2.1c-0.6,0.5-1.4,0.6-2.3,0.6c-0.6,0-1.2-0.1-1.7-0.3s-0.9-0.5-1.3-0.9c-0.4-0.4-0.6-0.8-0.8-1.3
	s-0.3-1.1-0.3-1.7s0.1-1.2,0.3-1.7s0.5-1,0.8-1.3c0.4-0.4,0.8-0.7,1.3-0.9c0.5-0.2,1.1-0.3,1.7-0.3c0.7,0,1.3,0.1,1.8,0.4
	c0.5,0.3,0.9,0.6,1.3,1.1s0.6,1,0.7,1.5s0.2,1.2,0.2,1.8h-5.9V24.5z M363.3,23.1c-0.1-0.6-0.3-1-0.6-1.3c-0.3-0.3-0.7-0.4-1.2-0.4
	c-0.4,0-0.6,0.1-0.9,0.2c-0.2,0.1-0.4,0.3-0.6,0.4c-0.1,0.2-0.2,0.4-0.3,0.6c-0.1,0.2-0.1,0.4-0.1,0.5H363.3z"/>
<path class="st0" d="M368.6,25.3c0,0.2,0,0.4,0.1,0.6s0.2,0.3,0.4,0.4c0.2,0.1,0.3,0.2,0.5,0.2c0.2,0.1,0.4,0.1,0.6,0.1
	c0.2,0,0.3,0,0.5-0.1c0.2,0,0.3-0.1,0.5-0.2c0.1-0.1,0.3-0.2,0.4-0.3s0.1-0.3,0.1-0.5s-0.1-0.3-0.2-0.4c-0.1-0.1-0.3-0.2-0.5-0.3
	c-0.2-0.1-0.5-0.2-0.8-0.3s-0.7-0.2-1.1-0.2c-0.3-0.1-0.6-0.2-0.9-0.3c-0.3-0.1-0.6-0.2-0.8-0.4s-0.4-0.4-0.6-0.6
	c-0.1-0.2-0.2-0.5-0.2-0.9c0-0.5,0.1-0.9,0.3-1.3c0.2-0.3,0.5-0.6,0.8-0.8c0.3-0.2,0.7-0.3,1.1-0.4c0.5,0.1,0.9,0.1,1.4,0.1
	c0.4,0,0.9,0,1.3,0.1c0.4,0.1,0.8,0.2,1.1,0.4c0.3,0.2,0.6,0.5,0.8,0.8s0.3,0.7,0.4,1.2h-2.1c0-0.4-0.2-0.7-0.5-0.9
	c-0.3-0.2-0.6-0.2-1-0.2c-0.1,0-0.3,0-0.4,0c-0.1,0-0.3,0-0.4,0.1c-0.1,0.1-0.2,0.1-0.3,0.2s-0.1,0.2-0.1,0.4c0,0.2,0.1,0.4,0.2,0.5
	s0.3,0.2,0.6,0.3c0.2,0.1,0.5,0.1,0.8,0.2s0.6,0.1,0.9,0.2c0.3,0.1,0.6,0.2,0.9,0.3c0.3,0.1,0.6,0.2,0.8,0.4
	c0.2,0.2,0.4,0.4,0.6,0.6c0.1,0.3,0.2,0.6,0.2,0.9c0,0.5-0.1,1-0.3,1.3s-0.5,0.6-0.8,0.9c-0.3,0.2-0.7,0.4-1.2,0.5
	c-0.4,0.1-0.9,0.1-1.3,0.1c-0.5,0-0.9,0-1.4-0.1c-0.4-0.1-0.8-0.3-1.2-0.5s-0.6-0.5-0.9-0.9c-0.2-0.4-0.3-0.8-0.4-1.3h2.1V25.3z"/>
<path class="st0" d="M0,36.3h2.1v1.1l0,0c0.3-0.4,0.6-0.7,1.1-1c0.4-0.2,0.9-0.3,1.4-0.3s1,0.1,1.4,0.3c0.4,0.2,0.7,0.5,1,1
	c0.2-0.4,0.6-0.7,1-0.9c0.4-0.3,0.9-0.4,1.5-0.4c0.4,0,0.8,0.1,1.2,0.2c0.4,0.1,0.7,0.3,0.9,0.5c0.3,0.2,0.5,0.5,0.6,0.9
	c0.1,0.4,0.2,0.8,0.2,1.3v5.4h-2.2v-4.6c0-0.3,0-0.5,0-0.8s-0.2-0.4-0.3-0.6S9.7,38.1,9.5,38c-0.2-0.1-0.4-0.2-0.7-0.2
	S8.2,37.9,8,38c-0.2,0.1-0.3,0.3-0.5,0.5c-0.1,0.2-0.2,0.4-0.2,0.7c0,0.2-0.1,0.5-0.1,0.7v4.5H5v-4.5c0-0.2,0-0.5,0-0.7
	s-0.1-0.5-0.1-0.7c-0.1-0.2-0.2-0.4-0.4-0.5c-0.2-0.1-0.4-0.2-0.8-0.2c-0.1,0-0.3,0-0.4,0.1c-0.2,0-0.3,0.1-0.5,0.3
	c-0.2,0.1-0.3,0.3-0.4,0.6c-0.1,0.2-0.2,0.6-0.2,1v4.7H0V36.3z"/>
<path class="st0" d="M13.8,40.3c0-0.6,0.1-1.2,0.3-1.8c0.2-0.5,0.5-1,0.8-1.3c0.4-0.4,0.8-0.7,1.3-0.9s1.1-0.3,1.7-0.3
	s1.2,0.1,1.7,0.3c0.5,0.2,1,0.5,1.3,0.9c0.4,0.4,0.6,0.8,0.8,1.3c0.2,0.5,0.3,1.1,0.3,1.8c0,0.7-0.1,1.2-0.3,1.7
	c-0.2,0.5-0.5,1-0.8,1.3s-0.8,0.7-1.3,0.9c-0.5,0.2-1.1,0.3-1.7,0.3s-1.2-0.1-1.7-0.3s-0.9-0.5-1.3-0.9c-0.4-0.4-0.6-0.8-0.8-1.3
	C13.9,41.5,13.8,41,13.8,40.3z M16,40.3c0,0.3,0,0.6,0.1,0.9s0.2,0.6,0.3,0.8c0.2,0.2,0.4,0.4,0.6,0.6s0.6,0.2,0.9,0.2
	c0.4,0,0.7-0.1,0.9-0.2c0.3-0.1,0.5-0.3,0.6-0.6c0.2-0.2,0.3-0.5,0.3-0.8s0.1-0.6,0.1-0.9s0-0.6-0.1-0.9s-0.2-0.6-0.3-0.8
	c-0.1-0.2-0.4-0.4-0.6-0.6c-0.3-0.2-0.6-0.2-0.9-0.2c-0.4,0-0.7,0.1-0.9,0.2c-0.2,0.1-0.4,0.3-0.6,0.6c-0.2,0.3-0.3,0.5-0.3,0.8
	C16,39.7,16,40,16,40.3z"/>
<path class="st0" d="M23.6,33.2h2.2v11.1h-2.2V33.2z"/>
<path class="st0" d="M29.4,40.9c0,0.7,0.2,1.2,0.5,1.5s0.8,0.5,1.4,0.5c0.4,0,0.8-0.1,1.2-0.3c0.3-0.2,0.5-0.5,0.6-0.7H35
	c-0.3,1-0.8,1.6-1.4,2.1c-0.6,0.4-1.4,0.6-2.3,0.6c-0.6,0-1.2-0.1-1.7-0.3c-0.5-0.2-0.9-0.5-1.3-0.9c-0.4-0.4-0.6-0.8-0.8-1.3
	c-0.2-0.5-0.3-1.1-0.3-1.7c0-0.6,0.1-1.2,0.3-1.7c0.2-0.5,0.5-1,0.8-1.3c0.4-0.4,0.8-0.7,1.3-0.9s1.1-0.3,1.7-0.3
	c0.7,0,1.3,0.1,1.8,0.4s0.9,0.6,1.3,1.1s0.6,1,0.7,1.5s0.2,1.2,0.2,1.8h-5.9V40.9z M33,39.5c-0.1-0.6-0.3-1-0.6-1.3
	s-0.7-0.4-1.2-0.4c-0.4,0-0.6,0.1-0.9,0.2c-0.2,0.1-0.4,0.3-0.6,0.4c-0.1,0.2-0.2,0.4-0.3,0.6c-0.1,0.2-0.1,0.4-0.1,0.5
	C29.3,39.5,33,39.5,33,39.5z"/>
<path class="st0" d="M42,39.1c-0.1-0.9-0.7-1.4-1.6-1.4c-0.4,0-0.6,0.1-0.9,0.2c-0.2,0.2-0.4,0.4-0.6,0.6s-0.3,0.5-0.3,0.8
	s-0.1,0.6-0.1,0.9s0,0.6,0.1,0.9s0.2,0.6,0.3,0.8c0.1,0.2,0.3,0.4,0.6,0.6c0.2,0.2,0.5,0.2,0.9,0.2c0.5,0,0.9-0.1,1.2-0.4
	s0.5-0.7,0.5-1.2h2.1c-0.1,1.1-0.6,1.9-1.2,2.5c-0.7,0.6-1.6,0.8-2.6,0.8c-0.6,0-1.2-0.1-1.7-0.3s-0.9-0.5-1.3-0.9
	c-0.4-0.4-0.6-0.8-0.8-1.3s-0.3-1.1-0.3-1.7c0-0.6,0.1-1.2,0.3-1.7s0.4-1,0.8-1.4c0.4-0.4,0.8-0.7,1.3-0.9c0.5-0.2,1.1-0.3,1.7-0.3
	c0.5,0,0.9,0.1,1.4,0.2c0.4,0.1,0.8,0.3,1.2,0.6c0.4,0.3,0.6,0.6,0.8,1c0.2,0.4,0.4,0.8,0.4,1.3L42,39.1L42,39.1z"/>
<path class="st0" d="M53,44.3h-2.1v-1.1l0,0c-0.3,0.5-0.6,0.8-1.1,1c-0.4,0.2-0.9,0.3-1.4,0.3c-0.6,0-1.1-0.1-1.5-0.2
	c-0.4-0.2-0.7-0.4-0.9-0.7c-0.2-0.3-0.4-0.6-0.5-1c-0.1-0.4-0.1-0.9-0.1-1.4v-5h2.2v4.5c0,0.7,0.1,1.2,0.3,1.5s0.6,0.5,1.1,0.5
	c0.6,0,1-0.2,1.3-0.5c0.3-0.4,0.4-0.9,0.4-1.8v-4.2H53V44.3z"/>
<path class="st0" d="M54.7,33.2H57v11.1h-2.2L54.7,33.2L54.7,33.2z"/>
<path class="st0" d="M58.6,38.8c0-0.5,0.2-0.9,0.4-1.3c0.2-0.3,0.5-0.6,0.9-0.8c0.4-0.2,0.7-0.4,1.2-0.4c0.4-0.1,0.9-0.1,1.3-0.1
	c0.4,0,0.8,0,1.2,0.1c0.4,0.1,0.8,0.2,1.1,0.3c0.3,0.2,0.6,0.4,0.8,0.7c0.2,0.3,0.3,0.7,0.3,1.2v4.2c0,0.4,0,0.7,0.1,1
	c0,0.3,0.1,0.6,0.2,0.7H64c0-0.1-0.1-0.3-0.1-0.4c0-0.1,0-0.3-0.1-0.4c-0.4,0.4-0.8,0.6-1.2,0.8c-0.4,0.2-1,0.2-1.5,0.2
	c-0.4,0-0.7,0-1.1-0.1c-0.3-0.1-0.6-0.2-0.9-0.4c-0.3-0.2-0.4-0.4-0.6-0.7c-0.1-0.3-0.2-0.7-0.2-1.1c0-0.5,0.1-0.8,0.2-1.1
	c0.2-0.3,0.4-0.5,0.6-0.7c0.3-0.2,0.6-0.3,0.9-0.4c0.3-0.1,0.7-0.2,1-0.2c0.3-0.1,0.7-0.1,1-0.1s0.6-0.1,0.8-0.1
	c0.2-0.1,0.4-0.2,0.6-0.3c0.1-0.1,0.2-0.3,0.2-0.5s0-0.4-0.1-0.6c-0.1-0.1-0.2-0.2-0.3-0.3s-0.3-0.1-0.5-0.2c-0.2,0-0.4,0-0.6,0
	c-0.4,0-0.8,0.1-1,0.3c-0.3,0.2-0.4,0.5-0.4,0.9h-2.1V38.8z M63.7,40.4c-0.1,0.1-0.2,0.1-0.4,0.2c-0.1,0-0.3,0.1-0.5,0.1
	s-0.3,0.1-0.5,0.1s-0.4,0-0.5,0.1c-0.2,0-0.3,0.1-0.5,0.1c-0.2,0.1-0.3,0.1-0.4,0.2c-0.1,0.1-0.2,0.2-0.3,0.3s-0.1,0.3-0.1,0.5
	s0,0.4,0.1,0.5c0.1,0.1,0.2,0.2,0.3,0.3c0.1,0.1,0.3,0.1,0.4,0.2c0.2,0,0.3,0,0.5,0c0.4,0,0.8-0.1,1-0.2c0.2-0.1,0.4-0.3,0.5-0.5
	s0.2-0.4,0.2-0.6s0-0.4,0-0.5v-0.8H63.7z"/>
<path class="st0" d="M67.6,36.3h2.1v1.5l0,0c0.1-0.2,0.2-0.5,0.4-0.7c0.2-0.2,0.4-0.4,0.6-0.5c0.2-0.2,0.5-0.3,0.7-0.4
	c0.3-0.1,0.5-0.1,0.8-0.1c0.2,0,0.3,0,0.5,0.1v2.1c-0.1,0-0.2,0-0.4-0.1c-0.1,0-0.3,0-0.4,0c-0.4,0-0.7,0.1-1,0.2
	c-0.3,0.1-0.5,0.3-0.7,0.6c0,0.1-0.2,0.4-0.2,0.7c-0.1,0.3-0.1,0.7-0.1,1v3.6h-2.2v-8H67.6z"/>
<path class="st0" d="M75.5,40.9c0,0.7,0.2,1.2,0.5,1.5s0.8,0.5,1.4,0.5c0.4,0,0.8-0.1,1.2-0.3c0.3-0.2,0.5-0.5,0.6-0.7h1.9
	c-0.3,1-0.8,1.6-1.4,2.1s-1.4,0.6-2.3,0.6c-0.6,0-1.2-0.1-1.7-0.3s-0.9-0.5-1.3-0.9c-0.4-0.4-0.6-0.8-0.8-1.3
	c-0.2-0.5-0.3-1.1-0.3-1.7c0-0.6,0.1-1.2,0.3-1.7s0.5-1,0.8-1.3c0.4-0.4,0.8-0.7,1.3-0.9s1.1-0.3,1.7-0.3c0.7,0,1.3,0.1,1.8,0.4
	s0.9,0.6,1.3,1.1s0.6,1,0.7,1.5s0.2,1.2,0.2,1.8h-5.9V40.9z M79.1,39.5c-0.1-0.6-0.3-1-0.6-1.3c-0.3-0.3-0.7-0.4-1.2-0.4
	c-0.4,0-0.6,0.1-0.9,0.2c-0.2,0.1-0.4,0.3-0.6,0.4c-0.1,0.2-0.2,0.4-0.3,0.6s-0.1,0.4-0.1,0.5C75.4,39.5,79.1,39.5,79.1,39.5z"/>
<path class="st0" d="M84.3,41.7c0,0.2,0,0.4,0.1,0.6s0.2,0.3,0.4,0.4c0.2,0.1,0.3,0.2,0.5,0.2c0.2,0.1,0.4,0.1,0.6,0.1
	s0.3,0,0.5-0.1c0.2,0,0.3-0.1,0.5-0.2c0.1-0.1,0.3-0.2,0.4-0.3s0.1-0.3,0.1-0.5s-0.1-0.3-0.2-0.4c-0.1-0.1-0.3-0.2-0.5-0.3
	c-0.2-0.1-0.5-0.2-0.8-0.3c-0.3-0.1-0.7-0.2-1.1-0.2c-0.3-0.1-0.6-0.2-0.9-0.3c-0.3-0.1-0.6-0.2-0.8-0.4c-0.2-0.2-0.4-0.4-0.6-0.6
	c-0.1-0.2-0.2-0.5-0.2-0.9c0-0.5,0.1-0.9,0.3-1.3c0.2-0.3,0.5-0.6,0.8-0.8s0.7-0.3,1.1-0.4c0.4-0.1,0.8-0.1,1.3-0.1
	c0.4,0,0.9,0,1.3,0.1c0.4,0.1,0.8,0.2,1.1,0.4c0.3,0.2,0.6,0.5,0.8,0.8c0.2,0.3,0.3,0.7,0.4,1.2h-2.1c0-0.4-0.2-0.7-0.5-0.9
	c-0.3-0.2-0.6-0.2-1-0.2c-0.1,0-0.3,0-0.4,0s-0.3,0-0.4,0.1c-0.1,0.1-0.2,0.1-0.3,0.2c-0.1,0.1-0.1,0.2-0.1,0.4s0.1,0.4,0.2,0.5
	c0.1,0.1,0.3,0.2,0.6,0.3c0.2,0.1,0.5,0.1,0.8,0.2c0.3,0.1,0.6,0.1,0.9,0.2c0.3,0.1,0.6,0.2,0.9,0.3s0.6,0.2,0.8,0.4
	c0.2,0.2,0.4,0.4,0.6,0.6c0.1,0.3,0.2,0.6,0.2,0.9c0,0.5-0.1,1-0.3,1.3s-0.5,0.6-0.8,0.9c-0.3,0.2-0.7,0.4-1.2,0.5
	c-0.4,0.1-0.9,0.1-1.3,0.1c-0.5,0-0.9,0-1.4-0.1c-0.4-0.1-0.8-0.3-1.2-0.5s-0.6-0.5-0.9-0.9c-0.2-0.4-0.3-0.8-0.4-1.3h2.2V41.7z"/>
<path class="st0" d="M99.3,45.4c-0.2,0.6-0.6,1.1-1,1.4c-0.4,0.3-1,0.4-1.8,0.4c-0.2,0-0.5,0-0.7,0s-0.4,0-0.7-0.1v-1.8
	c0.2,0,0.4,0,0.6,0.1c0.2,0,0.4,0,0.7,0c0.2,0,0.3-0.1,0.5-0.2c0.2-0.1,0.2-0.2,0.3-0.4c0.1-0.1,0.1-0.3,0.1-0.5s0-0.3-0.1-0.5
	l-2.8-7.6h2.4l1.8,5.5l0,0l1.8-5.5h2.3L99.3,45.4z"/>
<path class="st0" d="M113.8,39.1c-0.1-0.9-0.7-1.4-1.6-1.4c-0.4,0-0.6,0.1-0.9,0.2c-0.2,0.2-0.4,0.4-0.6,0.6s-0.3,0.5-0.3,0.8
	c-0.1,0.3-0.1,0.6-0.1,0.9s0,0.6,0.1,0.9s0.2,0.6,0.3,0.8c0.1,0.2,0.3,0.4,0.6,0.6c0.2,0.2,0.5,0.2,0.9,0.2c0.5,0,0.9-0.1,1.2-0.4
	c0.3-0.3,0.5-0.7,0.5-1.2h2.1c-0.1,1.1-0.6,1.9-1.2,2.5c-0.7,0.6-1.6,0.8-2.6,0.8c-0.6,0-1.2-0.1-1.7-0.3s-0.9-0.5-1.3-0.9
	c-0.4-0.4-0.6-0.8-0.8-1.3c-0.2-0.5-0.3-1.1-0.3-1.7c0-0.6,0.1-1.2,0.3-1.7c0.2-0.5,0.4-1,0.8-1.4c0.4-0.4,0.8-0.7,1.3-0.9
	c0.5-0.2,1.1-0.3,1.7-0.3c0.5,0,0.9,0.1,1.4,0.2c0.5,0.1,0.8,0.3,1.2,0.6c0.4,0.3,0.6,0.6,0.8,1c0.2,0.4,0.4,0.8,0.4,1.3L113.8,39.1
	L113.8,39.1z"/>
<path class="st0" d="M119.4,40.9c0,0.7,0.2,1.2,0.5,1.5s0.8,0.5,1.4,0.5c0.4,0,0.8-0.1,1.2-0.3c0.3-0.2,0.5-0.5,0.6-0.7h1.9
	c-0.3,1-0.8,1.6-1.4,2.1s-1.4,0.6-2.3,0.6c-0.6,0-1.2-0.1-1.7-0.3s-0.9-0.5-1.3-0.9c-0.4-0.4-0.6-0.8-0.8-1.3
	c-0.2-0.5-0.3-1.1-0.3-1.7c0-0.6,0.1-1.2,0.3-1.7s0.5-1,0.8-1.3c0.4-0.4,0.8-0.7,1.3-0.9s1.1-0.3,1.7-0.3c0.7,0,1.3,0.1,1.8,0.4
	s0.9,0.6,1.3,1.1s0.6,1,0.7,1.5s0.2,1.2,0.2,1.8h-5.9V40.9z M123,39.5c-0.1-0.6-0.3-1-0.6-1.3c-0.3-0.3-0.7-0.4-1.2-0.4
	c-0.4,0-0.6,0.1-0.9,0.2c-0.2,0.1-0.4,0.3-0.6,0.4c-0.1,0.2-0.2,0.4-0.3,0.6s-0.1,0.4-0.1,0.5C119.3,39.5,123,39.5,123,39.5z"/>
<path class="st0" d="M126.9,33.2h2.2v11.1h-2.2C126.9,44.3,126.9,33.2,126.9,33.2z"/>
<path class="st0" d="M138.7,44.3h-2.1v-1.1l0,0c-0.3,0.5-0.6,0.8-1.1,1c-0.4,0.2-0.9,0.3-1.4,0.3c-0.6,0-1.1-0.1-1.5-0.2
	c-0.4-0.2-0.7-0.4-0.9-0.7c-0.2-0.3-0.4-0.6-0.5-1c-0.1-0.4-0.1-0.9-0.1-1.4v-5h2.2v4.5c0,0.7,0.1,1.2,0.3,1.5s0.6,0.5,1.1,0.5
	c0.6,0,1-0.2,1.3-0.5c0.3-0.4,0.4-0.9,0.4-1.8v-4.2h2.2v8.1H138.7z"/>
<path class="st0" d="M140.8,33.2h2.2v11.1h-2.2V33.2z"/>
<path class="st0" d="M145,38.8c0-0.5,0.2-0.9,0.4-1.3c0.2-0.3,0.5-0.6,0.9-0.8c0.4-0.2,0.7-0.4,1.2-0.4c0.4-0.1,0.9-0.1,1.3-0.1
	c0.4,0,0.8,0,1.2,0.1c0.4,0.1,0.8,0.2,1.1,0.3c0.3,0.2,0.6,0.4,0.8,0.7s0.3,0.7,0.3,1.2v4.2c0,0.4,0,0.7,0.1,1
	c0,0.3,0.1,0.6,0.2,0.7h-2.2c0-0.1-0.1-0.3-0.1-0.4c0-0.1,0-0.3-0.1-0.4c-0.4,0.4-0.8,0.6-1.2,0.8c-0.4,0.2-1,0.2-1.5,0.2
	c-0.4,0-0.7,0-1.1-0.1c-0.3-0.1-0.6-0.2-0.9-0.4c-0.3-0.2-0.4-0.4-0.6-0.7c-0.1-0.3-0.2-0.7-0.2-1.1c0-0.5,0.1-0.8,0.2-1.1
	c0.2-0.3,0.4-0.5,0.6-0.7c0.3-0.2,0.6-0.3,0.9-0.4c0.3-0.1,0.7-0.2,1-0.2c0.3-0.1,0.7-0.1,1-0.1s0.6-0.1,0.8-0.1
	c0.2-0.1,0.4-0.2,0.6-0.3c0.1-0.1,0.2-0.3,0.2-0.5s0-0.4-0.1-0.6c-0.1-0.1-0.2-0.2-0.3-0.3s-0.3-0.1-0.5-0.2c-0.2,0-0.4,0-0.6,0
	c-0.4,0-0.8,0.1-1,0.3c-0.3,0.2-0.4,0.5-0.4,0.9h-2V38.8z M150.1,40.4c-0.1,0.1-0.2,0.1-0.4,0.2c-0.1,0-0.3,0.1-0.5,0.1
	s-0.3,0.1-0.5,0.1s-0.4,0-0.5,0.1c-0.2,0-0.3,0.1-0.5,0.1c-0.2,0.1-0.3,0.1-0.4,0.2c-0.1,0.1-0.2,0.2-0.3,0.3
	c-0.1,0.1-0.1,0.3-0.1,0.5s0,0.4,0.1,0.5c0.1,0.1,0.2,0.2,0.3,0.3c0.1,0.1,0.3,0.1,0.4,0.2c0.2,0,0.3,0,0.5,0c0.4,0,0.8-0.1,1-0.2
	c0.2-0.1,0.4-0.3,0.5-0.5s0.2-0.4,0.2-0.6s0-0.4,0-0.5v-0.8H150.1z"/>
<path class="st0" d="M154.3,36.3h2.1v1.5l0,0c0.1-0.2,0.2-0.5,0.4-0.7s0.4-0.4,0.6-0.5c0.2-0.2,0.5-0.3,0.7-0.4
	c0.3-0.1,0.5-0.1,0.8-0.1c0.2,0,0.3,0,0.5,0.1v2.1c-0.1,0-0.2,0-0.4-0.1c-0.1,0-0.3,0-0.4,0c-0.4,0-0.7,0.1-1,0.2
	c-0.3,0.1-0.5,0.3-0.7,0.6c-0.2,0.2-0.3,0.5-0.4,0.8c-0.1,0.3-0.1,0.7-0.1,1v3.6h-2.2L154.3,36.3L154.3,36.3z"/>
<path class="st0" d="M162.5,40.9c0,0.7,0.2,1.2,0.5,1.5s0.8,0.5,1.4,0.5c0.4,0,0.8-0.1,1.2-0.3c0.3-0.2,0.5-0.5,0.6-0.7h1.9
	c-0.3,1-0.8,1.6-1.4,2.1s-1.4,0.6-2.3,0.6c-0.6,0-1.2-0.1-1.7-0.3s-0.9-0.5-1.3-0.9c-0.4-0.4-0.6-0.8-0.8-1.3s-0.3-1.1-0.3-1.7
	c0-0.6,0.1-1.2,0.3-1.7s0.5-1,0.8-1.3c0.4-0.4,0.8-0.7,1.3-0.9s1.1-0.3,1.7-0.3c0.7,0,1.3,0.1,1.8,0.4s0.9,0.6,1.3,1.1
	s0.6,1,0.7,1.5s0.2,1.2,0.2,1.8h-5.9V40.9z M166.1,39.5c-0.1-0.6-0.3-1-0.6-1.3s-0.7-0.4-1.2-0.4c-0.4,0-0.6,0.1-0.9,0.2
	c-0.2,0.1-0.4,0.3-0.6,0.4c-0.1,0.2-0.2,0.4-0.3,0.6s-0.1,0.4-0.1,0.5C162.4,39.5,166.1,39.5,166.1,39.5z"/>
<path class="st0" d="M171.6,41.7c0,0.2,0,0.4,0.1,0.6s0.2,0.3,0.4,0.4c0.2,0.1,0.3,0.2,0.5,0.2c0.2,0.1,0.4,0.1,0.6,0.1
	c0.2,0,0.3,0,0.5-0.1c0.2,0,0.3-0.1,0.5-0.2c0.1-0.1,0.3-0.2,0.4-0.3s0.1-0.3,0.1-0.5s-0.1-0.3-0.2-0.4c-0.1-0.1-0.3-0.2-0.5-0.3
	c-0.2-0.1-0.5-0.2-0.8-0.3c-0.3-0.1-0.7-0.2-1.1-0.2c-0.3-0.1-0.6-0.2-0.9-0.3c-0.3-0.1-0.6-0.2-0.8-0.4s-0.4-0.4-0.6-0.6
	c-0.1-0.2-0.2-0.5-0.2-0.9c0-0.5,0.1-0.9,0.3-1.3c0.2-0.3,0.5-0.6,0.8-0.8s0.7-0.3,1.1-0.4c0.4-0.1,0.8-0.1,1.3-0.1
	c0.4,0,0.9,0,1.3,0.1c0.4,0.1,0.8,0.2,1.1,0.4c0.3,0.2,0.6,0.5,0.8,0.8s0.3,0.7,0.4,1.2h-2.1c0-0.4-0.2-0.7-0.5-0.9
	c-0.3-0.2-0.6-0.2-1-0.2c-0.1,0-0.3,0-0.4,0c-0.1,0-0.3,0-0.4,0.1c-0.1,0.1-0.2,0.1-0.3,0.2c-0.1,0.1-0.1,0.2-0.1,0.4
	s0.1,0.4,0.2,0.5c0.1,0.1,0.3,0.2,0.6,0.3c0.2,0.1,0.5,0.1,0.8,0.2c0.3,0.1,0.6,0.1,0.9,0.2c0.3,0.1,0.6,0.2,0.9,0.3
	c0.3,0.1,0.6,0.2,0.8,0.4c0.2,0.2,0.4,0.4,0.6,0.6c0.1,0.3,0.2,0.6,0.2,0.9c0,0.5-0.1,1-0.3,1.3s-0.5,0.6-0.8,0.9
	c-0.3,0.2-0.7,0.4-1.2,0.5c-0.4,0.1-0.9,0.1-1.3,0.1c-0.5,0-0.9,0-1.4-0.1c-0.4-0.1-0.8-0.3-1.2-0.5s-0.6-0.5-0.9-0.9
	c-0.2-0.4-0.3-0.8-0.4-1.3h2.2V41.7z"/>
<path class="st0" d="M191.1,47.2h-2.2v-3.8l0,0c-0.3,0.4-0.6,0.8-1.1,0.9c-0.5,0.2-1,0.3-1.4,0.3s-0.8-0.1-1.2-0.2
	c-0.4-0.1-0.8-0.4-1.1-0.7c-0.3-0.3-0.6-0.8-0.8-1.3s-0.3-1.2-0.3-2c0-0.5,0.1-1.1,0.2-1.6s0.4-1,0.7-1.4c0.3-0.4,0.7-0.7,1.1-1
	s1-0.4,1.6-0.4c0.5,0,1,0.1,1.4,0.3c0.4,0.2,0.8,0.5,1,1l0,0v-1h2.1V47.2z M185.1,40.3c0,0.3,0,0.6,0.1,0.9s0.2,0.6,0.3,0.8
	c0.2,0.2,0.3,0.4,0.6,0.6c0.2,0.1,0.5,0.2,0.9,0.2s0.7-0.1,0.9-0.2c0.2-0.1,0.4-0.3,0.6-0.6c0.2-0.3,0.3-0.5,0.3-0.8s0.1-0.6,0.1-1
	c0-0.3,0-0.6-0.1-0.9s-0.2-0.6-0.3-0.8c-0.1-0.2-0.3-0.5-0.6-0.6c-0.3-0.1-0.5-0.2-0.9-0.2s-0.7,0.1-0.9,0.2
	c-0.3,0.1-0.5,0.3-0.6,0.6c-0.2,0.2-0.3,0.5-0.3,0.8C185.1,39.7,185.1,40,185.1,40.3z"/>
<path class="st0" d="M200.6,44.3h-2.1v-1.1l0,0c-0.3,0.5-0.6,0.8-1.1,1c-0.4,0.2-0.9,0.3-1.4,0.3c-0.6,0-1.1-0.1-1.5-0.2
	c-0.4-0.2-0.7-0.4-0.9-0.7c-0.2-0.3-0.4-0.6-0.5-1c-0.1-0.4-0.1-0.9-0.1-1.4v-5h2.2v4.5c0,0.7,0.1,1.2,0.3,1.5s0.6,0.5,1.1,0.5
	c0.6,0,1-0.2,1.3-0.5c0.3-0.4,0.4-0.9,0.4-1.8v-4.2h2.2v8.1H200.6z"/>
<path class="st0" d="M204.4,40.9c0,0.7,0.2,1.2,0.5,1.5s0.8,0.5,1.4,0.5c0.4,0,0.8-0.1,1.2-0.3c0.3-0.2,0.5-0.5,0.6-0.7h1.9
	c-0.3,1-0.8,1.6-1.4,2.1s-1.4,0.6-2.3,0.6c-0.6,0-1.2-0.1-1.7-0.3s-0.9-0.5-1.3-0.9c-0.4-0.4-0.6-0.8-0.8-1.3s-0.3-1.1-0.3-1.7
	c0-0.6,0.1-1.2,0.3-1.7s0.5-1,0.8-1.3c0.4-0.4,0.8-0.7,1.3-0.9s1.1-0.3,1.7-0.3c0.7,0,1.3,0.1,1.8,0.4s0.9,0.6,1.3,1.1
	s0.6,1,0.7,1.5s0.2,1.2,0.2,1.8h-5.9V40.9z M208,39.5c-0.1-0.6-0.3-1-0.6-1.3s-0.7-0.4-1.2-0.4c-0.4,0-0.6,0.1-0.9,0.2
	c-0.2,0.1-0.4,0.3-0.6,0.4c-0.1,0.2-0.2,0.4-0.3,0.6s-0.1,0.4-0.1,0.5C204.3,39.5,208,39.5,208,39.5z"/>
<path class="st0" d="M216.4,38.8c0-0.5,0.2-0.9,0.4-1.3c0.2-0.3,0.5-0.6,0.9-0.8c0.4-0.2,0.7-0.4,1.2-0.4c0.4-0.1,0.9-0.1,1.3-0.1
	c0.4,0,0.8,0,1.2,0.1c0.4,0.1,0.8,0.2,1.1,0.3c0.3,0.2,0.6,0.4,0.8,0.7s0.3,0.7,0.3,1.2v4.2c0,0.4,0,0.7,0.1,1
	c0,0.3,0.1,0.6,0.2,0.7h-2.2c0-0.1-0.1-0.3-0.1-0.4c0-0.1,0-0.3-0.1-0.4c-0.4,0.4-0.8,0.6-1.2,0.8c-0.4,0.2-1,0.2-1.5,0.2
	c-0.4,0-0.7,0-1.1-0.1c-0.3-0.1-0.6-0.2-0.9-0.4c-0.3-0.2-0.4-0.4-0.6-0.7c-0.1-0.3-0.2-0.7-0.2-1.1c0-0.5,0.1-0.8,0.2-1.1
	c0.2-0.3,0.4-0.5,0.6-0.7c0.3-0.2,0.6-0.3,0.9-0.4c0.3-0.1,0.7-0.2,1-0.2c0.3-0.1,0.7-0.1,1-0.1s0.6-0.1,0.8-0.1
	c0.2-0.1,0.4-0.2,0.6-0.3c0.1-0.1,0.2-0.3,0.2-0.5s0-0.4-0.1-0.6c-0.1-0.1-0.2-0.2-0.3-0.3s-0.3-0.1-0.5-0.2c-0.2,0-0.4,0-0.6,0
	c-0.4,0-0.8,0.1-1,0.3c-0.3,0.2-0.4,0.5-0.4,0.9h-2V38.8z M221.5,40.4c-0.1,0.1-0.2,0.1-0.4,0.2c-0.1,0-0.3,0.1-0.5,0.1
	s-0.3,0.1-0.5,0.1s-0.4,0-0.5,0.1c-0.2,0-0.3,0.1-0.5,0.1c-0.2,0.1-0.3,0.1-0.4,0.2c-0.1,0.1-0.2,0.2-0.3,0.3
	c-0.1,0.1-0.1,0.3-0.1,0.5s0,0.4,0.1,0.5c0.1,0.1,0.2,0.2,0.3,0.3c0.1,0.1,0.3,0.1,0.4,0.2c0.2,0,0.3,0,0.5,0c0.4,0,0.8-0.1,1-0.2
	c0.2-0.1,0.4-0.3,0.5-0.5s0.2-0.4,0.2-0.6s0-0.4,0-0.5v-0.8H221.5z"/>
<path class="st0" d="M230.4,33.2h2.2v11.1h-2.2V33.2z"/>
<path class="st0" d="M234.6,38.8c0-0.5,0.2-0.9,0.4-1.3c0.2-0.3,0.5-0.6,0.9-0.8c0.4-0.2,0.7-0.4,1.2-0.4c0.4-0.1,0.9-0.1,1.3-0.1
	c0.4,0,0.8,0,1.2,0.1c0.4,0.1,0.8,0.2,1.1,0.3c0.3,0.2,0.6,0.4,0.8,0.7s0.3,0.7,0.3,1.2v4.2c0,0.4,0,0.7,0.1,1
	c0,0.3,0.1,0.6,0.2,0.7H240c0-0.1-0.1-0.3-0.1-0.4c0-0.1,0-0.3-0.1-0.4c-0.4,0.4-0.8,0.6-1.2,0.8c-0.4,0.2-1,0.2-1.5,0.2
	c-0.4,0-0.7,0-1.1-0.1c-0.3-0.1-0.6-0.2-0.9-0.4c-0.3-0.2-0.4-0.4-0.6-0.7c-0.1-0.3-0.2-0.7-0.2-1.1c0-0.5,0.1-0.8,0.2-1.1
	c0.2-0.3,0.4-0.5,0.6-0.7c0.3-0.2,0.6-0.3,0.9-0.4c0.3-0.1,0.7-0.2,1-0.2c0.3-0.1,0.7-0.1,1-0.1s0.6-0.1,0.8-0.1
	c0.2-0.1,0.4-0.2,0.6-0.3c0.1-0.1,0.2-0.3,0.2-0.5s0-0.4-0.1-0.6c-0.1-0.1-0.2-0.2-0.3-0.3s-0.3-0.1-0.5-0.2c-0.2,0-0.4,0-0.6,0
	c-0.4,0-0.8,0.1-1,0.3c-0.3,0.2-0.4,0.5-0.4,0.9h-2.1V38.8z M239.7,40.4c-0.1,0.1-0.2,0.1-0.4,0.2c-0.1,0-0.3,0.1-0.5,0.1
	s-0.3,0.1-0.5,0.1s-0.4,0-0.5,0.1c-0.2,0-0.3,0.1-0.5,0.1c-0.2,0.1-0.3,0.1-0.4,0.2c-0.1,0.1-0.2,0.2-0.3,0.3
	c-0.1,0.1-0.1,0.3-0.1,0.5s0,0.4,0.1,0.5c0.1,0.1,0.2,0.2,0.3,0.3c0.1,0.1,0.3,0.1,0.4,0.2c0.2,0,0.3,0,0.5,0c0.4,0,0.8-0.1,1-0.2
	c0.2-0.1,0.4-0.3,0.5-0.5s0.2-0.4,0.2-0.6s0-0.4,0-0.5v-0.8H239.7z"/>
<path class="st0" d="M244,36.3h2.1v1.5l0,0c0.1-0.2,0.2-0.5,0.4-0.7s0.4-0.4,0.6-0.5c0.2-0.2,0.5-0.3,0.7-0.4
	c0.3-0.1,0.5-0.1,0.8-0.1c0.2,0,0.3,0,0.5,0.1v2.1c-0.1,0-0.2,0-0.4-0.1c-0.1,0-0.3,0-0.4,0c-0.4,0-0.7,0.1-1,0.2
	c-0.3,0.1-0.5,0.3-0.7,0.6c-0.2,0.2-0.3,0.5-0.4,0.8c-0.1,0.3-0.1,0.7-0.1,1v3.6H244V36.3z"/>
<path class="st0" d="M258.1,43.8c0,0.2,0,0.5-0.1,0.7c0,0.3-0.1,0.5-0.2,0.8s-0.2,0.5-0.4,0.8c-0.2,0.2-0.4,0.5-0.7,0.7
	c-0.3,0.2-0.7,0.3-1.1,0.5c-0.4,0.1-1,0.2-1.6,0.2c-0.4,0-0.8,0-1.2-0.1s-0.8-0.3-1.1-0.5s-0.6-0.5-0.8-0.8s-0.4-0.7-0.4-1.2h2.2
	c0.1,0.4,0.3,0.7,0.6,0.9s0.6,0.2,1,0.2c0.6,0,1.1-0.2,1.4-0.6c0.3-0.4,0.4-0.9,0.4-1.4v-1.1l0,0c-0.2,0.4-0.6,0.7-1,0.9
	s-0.9,0.3-1.4,0.3c-0.6,0-1.1-0.1-1.6-0.3c-0.4-0.2-0.8-0.5-1.1-0.9c-0.3-0.4-0.5-0.8-0.6-1.3s-0.2-1-0.2-1.6c0-0.5,0.1-1,0.2-1.5
	c0.2-0.5,0.4-0.9,0.7-1.3c0.3-0.4,0.7-0.7,1.1-0.9c0.4-0.2,0.9-0.3,1.5-0.3c0.5,0,1,0.1,1.4,0.3c0.4,0.2,0.7,0.5,1,1l0,0v-1.1h2.1
	L258.1,43.8L258.1,43.8z M254.1,42.4c0.3,0,0.6-0.1,0.8-0.2c0.2-0.1,0.4-0.3,0.6-0.5c0.2-0.2,0.3-0.4,0.4-0.7
	c0.1-0.3,0.1-0.5,0.1-0.8s0-0.6-0.1-0.9s-0.2-0.6-0.3-0.8c-0.1-0.2-0.3-0.4-0.6-0.5c-0.3-0.1-0.5-0.2-0.9-0.2
	c-0.3,0-0.6,0.1-0.8,0.2c-0.2,0.1-0.4,0.3-0.6,0.5c-0.2,0.2-0.3,0.5-0.3,0.7c-0.1,0.3-0.1,0.6-0.1,0.9s0,0.6,0.1,0.9
	s0.2,0.5,0.3,0.8c0.1,0.2,0.3,0.4,0.6,0.6C253.4,42.4,253.7,42.4,254.1,42.4z"/>
<path class="st0" d="M259.9,40.3c0-0.6,0.1-1.2,0.3-1.8c0.2-0.5,0.5-1,0.8-1.3c0.4-0.4,0.8-0.7,1.3-0.9s1.1-0.3,1.7-0.3
	s1.2,0.1,1.7,0.3c0.5,0.2,1,0.5,1.3,0.9c0.4,0.4,0.6,0.8,0.8,1.3c0.2,0.5,0.3,1.1,0.3,1.8c0,0.7-0.1,1.2-0.3,1.7
	c-0.2,0.5-0.5,1-0.8,1.3s-0.8,0.7-1.3,0.9c-0.5,0.2-1.1,0.3-1.7,0.3s-1.2-0.1-1.7-0.3s-0.9-0.5-1.3-0.9c-0.4-0.4-0.6-0.8-0.8-1.3
	S259.9,41,259.9,40.3z M262.1,40.3c0,0.3,0,0.6,0.1,0.9s0.2,0.6,0.3,0.8c0.2,0.2,0.4,0.4,0.6,0.6s0.6,0.2,0.9,0.2s0.7-0.1,0.9-0.2
	c0.3-0.1,0.5-0.3,0.6-0.6c0.2-0.2,0.3-0.5,0.3-0.8c0.1-0.3,0.1-0.6,0.1-0.9s0-0.6-0.1-0.9s-0.2-0.6-0.3-0.8
	c-0.1-0.2-0.4-0.4-0.6-0.6c-0.3-0.2-0.6-0.2-0.9-0.2s-0.7,0.1-0.9,0.2c-0.2,0.1-0.4,0.3-0.6,0.6c-0.2,0.3-0.3,0.5-0.3,0.8
	C262.1,39.7,262.1,40,262.1,40.3z"/>
<path class="st0" d="M274.6,36.3h2.1v1l0,0c0.3-0.4,0.6-0.8,1-0.9c0.4-0.2,0.9-0.3,1.4-0.3c0.6,0,1.2,0.1,1.6,0.4s0.8,0.6,1.1,0.9
	c0.3,0.4,0.5,0.9,0.7,1.4c0.1,0.5,0.2,1.1,0.2,1.6s-0.1,1.1-0.2,1.6s-0.4,0.9-0.7,1.3c-0.3,0.4-0.7,0.7-1.1,0.9
	c-0.4,0.2-1,0.4-1.5,0.4s-0.9-0.1-1.4-0.3c-0.5-0.2-0.8-0.5-1-0.9l0,0v3.8h-2.2V36.3z M278.7,42.9c0.4,0,0.7-0.1,0.9-0.2
	c0.2-0.1,0.4-0.3,0.6-0.6c0.2-0.3,0.3-0.5,0.3-0.8s0.1-0.6,0.1-1c0-0.3,0-0.6-0.1-1c-0.1-0.3-0.2-0.6-0.3-0.8
	c-0.2-0.2-0.4-0.4-0.6-0.6s-0.5-0.2-0.9-0.2s-0.7,0.1-0.9,0.2c-0.2,0.2-0.4,0.3-0.6,0.6c-0.2,0.3-0.3,0.5-0.3,0.8
	c-0.1,0.3-0.1,0.6-0.1,1c0,0.3,0,0.7,0.1,1s0.2,0.6,0.3,0.8c0.1,0.2,0.3,0.4,0.6,0.6C278,42.8,278.3,42.9,278.7,42.9z"/>
<path class="st0" d="M284.5,33.2h2.2v11.1h-2.2V33.2z"/>
<path class="st0" d="M288.7,38.8c0-0.5,0.2-0.9,0.4-1.3c0.2-0.3,0.5-0.6,0.9-0.8c0.4-0.2,0.7-0.4,1.2-0.4c0.4-0.1,0.9-0.1,1.3-0.1
	s0.8,0,1.2,0.1c0.4,0.1,0.8,0.2,1.1,0.3c0.3,0.2,0.6,0.4,0.8,0.7c0.2,0.3,0.3,0.7,0.3,1.2v4.2c0,0.4,0,0.7,0.1,1
	c0,0.3,0.1,0.6,0.2,0.7H294c0-0.1-0.1-0.3-0.1-0.4c0-0.1,0-0.3-0.1-0.4c-0.4,0.4-0.8,0.6-1.2,0.8c-0.4,0.2-1,0.2-1.5,0.2
	c-0.4,0-0.7,0-1.1-0.1c-0.3-0.1-0.6-0.2-0.9-0.4c-0.3-0.2-0.4-0.4-0.6-0.7c-0.1-0.3-0.2-0.7-0.2-1.1c0-0.5,0.1-0.8,0.2-1.1
	c0.2-0.3,0.4-0.5,0.6-0.7c0.3-0.2,0.6-0.3,0.9-0.4c0.3-0.1,0.7-0.2,1-0.2c0.3-0.1,0.7-0.1,1-0.1s0.6-0.1,0.8-0.1
	c0.2-0.1,0.4-0.2,0.6-0.3c0.1-0.1,0.2-0.3,0.2-0.5s0-0.4-0.1-0.6c-0.1-0.1-0.2-0.2-0.3-0.3c-0.1-0.1-0.3-0.1-0.5-0.2
	c-0.2,0-0.4,0-0.6,0c-0.4,0-0.8,0.1-1,0.3c-0.3,0.2-0.4,0.5-0.4,0.9h-2V38.8z M293.8,40.4c-0.1,0.1-0.2,0.1-0.4,0.2
	c-0.1,0-0.3,0.1-0.5,0.1s-0.3,0.1-0.5,0.1s-0.4,0-0.5,0.1c-0.2,0-0.3,0.1-0.5,0.1c-0.2,0.1-0.3,0.1-0.4,0.2
	c-0.1,0.1-0.2,0.2-0.3,0.3c-0.1,0.1-0.1,0.3-0.1,0.5s0,0.4,0.1,0.5c0.1,0.1,0.2,0.2,0.3,0.3c0.1,0.1,0.3,0.1,0.4,0.2
	c0.2,0,0.3,0,0.5,0c0.4,0,0.8-0.1,1-0.2c0.2-0.1,0.4-0.3,0.5-0.5s0.2-0.4,0.2-0.6s0-0.4,0-0.5v-0.8H293.8z"/>
<path class="st0" d="M297.5,42.7l4.2-4.7h-3.9v-1.7h6.8V38l-4.2,4.7h4.5v1.7h-7.4V42.7z"/>
<path class="st0" d="M306.2,40.3c0-0.6,0.1-1.2,0.3-1.8c0.2-0.5,0.5-1,0.8-1.3c0.4-0.4,0.8-0.7,1.3-0.9s1.1-0.3,1.7-0.3
	s1.2,0.1,1.7,0.3c0.5,0.2,1,0.5,1.3,0.9c0.4,0.4,0.6,0.8,0.8,1.3c0.2,0.5,0.3,1.1,0.3,1.8c0,0.7-0.1,1.2-0.3,1.7
	c-0.2,0.5-0.5,1-0.8,1.3s-0.8,0.7-1.3,0.9c-0.5,0.2-1.1,0.3-1.7,0.3s-1.2-0.1-1.7-0.3s-0.9-0.5-1.3-0.9c-0.4-0.4-0.6-0.8-0.8-1.3
	C306.3,41.5,306.2,41,306.2,40.3z M308.4,40.3c0,0.3,0,0.6,0.1,0.9s0.2,0.6,0.3,0.8c0.2,0.2,0.4,0.4,0.6,0.6s0.6,0.2,0.9,0.2
	s0.7-0.1,0.9-0.2c0.3-0.1,0.5-0.3,0.6-0.6c0.2-0.2,0.3-0.5,0.3-0.8c0.1-0.3,0.1-0.6,0.1-0.9s0-0.6-0.1-0.9s-0.2-0.6-0.3-0.8
	c-0.1-0.2-0.4-0.4-0.6-0.6c-0.3-0.2-0.6-0.2-0.9-0.2s-0.7,0.1-0.9,0.2c-0.2,0.1-0.4,0.3-0.6,0.6c-0.2,0.3-0.3,0.5-0.3,0.8
	C308.4,39.7,308.4,40,308.4,40.3z"/>
<path class="st0" d="M326.6,43.3L326.6,43.3c-0.3,0.4-0.6,0.8-1.1,1c-0.4,0.2-0.9,0.3-1.4,0.3c-0.6,0-1.1-0.1-1.6-0.4
	s-0.8-0.6-1.1-1c-0.3-0.4-0.5-0.9-0.7-1.4s-0.2-1.1-0.2-1.6s0.1-1.1,0.2-1.6s0.4-0.9,0.7-1.3c0.3-0.4,0.7-0.7,1.1-0.9s1-0.4,1.6-0.4
	c0.5,0,0.9,0.1,1.4,0.3c0.4,0.2,0.8,0.5,1,0.9l0,0v-4h2.2v11.1h-2.1V43.3z M326.6,40.3c0-0.3,0-0.6-0.1-0.9s-0.2-0.6-0.3-0.8
	c-0.2-0.2-0.3-0.4-0.6-0.6s-0.5-0.2-0.9-0.2s-0.7,0.1-0.9,0.2c-0.2,0.1-0.4,0.3-0.6,0.6c-0.2,0.3-0.3,0.5-0.3,0.8s-0.1,0.6-0.1,1
	c0,0.3,0,0.6,0.1,0.9s0.2,0.6,0.4,0.8c0.2,0.2,0.4,0.4,0.6,0.6s0.5,0.2,0.9,0.2s0.7-0.1,0.9-0.2c0.2-0.1,0.4-0.3,0.6-0.6
	c0.1-0.2,0.2-0.5,0.3-0.8S326.6,40.6,326.6,40.3z"/>
<path class="st0" d="M332.5,40.9c0,0.7,0.2,1.2,0.5,1.5s0.8,0.5,1.4,0.5c0.4,0,0.8-0.1,1.2-0.3c0.3-0.2,0.5-0.5,0.6-0.7h1.9
	c-0.3,1-0.8,1.6-1.4,2.1s-1.4,0.6-2.3,0.6c-0.6,0-1.2-0.1-1.7-0.3s-0.9-0.5-1.3-0.9c-0.4-0.4-0.6-0.8-0.8-1.3
	c-0.2-0.5-0.3-1.1-0.3-1.7c0-0.6,0.1-1.2,0.3-1.7s0.5-1,0.8-1.3c0.4-0.4,0.8-0.7,1.3-0.9s1.1-0.3,1.7-0.3c0.7,0,1.3,0.1,1.8,0.4
	s0.9,0.6,1.3,1.1s0.6,1,0.7,1.5s0.2,1.2,0.2,1.8h-5.9V40.9z M336.1,39.5c-0.1-0.6-0.3-1-0.6-1.3c-0.3-0.3-0.7-0.4-1.2-0.4
	c-0.4,0-0.6,0.1-0.9,0.2c-0.2,0.1-0.4,0.3-0.6,0.4c-0.1,0.2-0.2,0.4-0.3,0.6s-0.1,0.4-0.1,0.5C332.4,39.5,336.1,39.5,336.1,39.5z"/>
<path class="st0" d="M342.8,36.3h1.6v1.5h-1.6v4c0,0.4,0.1,0.6,0.2,0.7c0.1,0.1,0.4,0.2,0.7,0.2c0.2,0,0.5,0,0.7-0.1v1.8
	c-0.2,0-0.4,0.1-0.6,0.1s-0.5,0-0.7,0c-0.3,0-0.7,0-1-0.1c-0.3,0-0.6-0.1-0.8-0.3c-0.2-0.2-0.4-0.3-0.6-0.6c-0.2-0.3-0.2-0.6-0.2-1
	v-4.7h-1.3v-1.5h1.3v-2.4h2.2L342.8,36.3L342.8,36.3z"/>
<path class="st0" d="M347.6,40.9c0,0.7,0.2,1.2,0.5,1.5s0.8,0.5,1.4,0.5c0.4,0,0.8-0.1,1.2-0.3c0.3-0.2,0.5-0.5,0.6-0.7h1.9
	c-0.3,1-0.8,1.6-1.4,2.1s-1.4,0.6-2.3,0.6c-0.6,0-1.2-0.1-1.7-0.3s-0.9-0.5-1.3-0.9c-0.4-0.4-0.6-0.8-0.8-1.3
	c-0.2-0.5-0.3-1.1-0.3-1.7c0-0.6,0.1-1.2,0.3-1.7s0.5-1,0.8-1.3c0.4-0.4,0.8-0.7,1.3-0.9s1.1-0.3,1.7-0.3c0.7,0,1.3,0.1,1.8,0.4
	s0.9,0.6,1.3,1.1s0.6,1,0.7,1.5s0.2,1.2,0.2,1.8h-5.9V40.9z M351.2,39.5c-0.1-0.6-0.3-1-0.6-1.3c-0.3-0.3-0.7-0.4-1.2-0.4
	c-0.4,0-0.6,0.1-0.9,0.2c-0.2,0.1-0.4,0.3-0.6,0.4c-0.1,0.2-0.2,0.4-0.3,0.6s-0.1,0.4-0.1,0.5C347.5,39.5,351.2,39.5,351.2,39.5z"/>
<path class="st0" d="M355,36.3h2.1v1.5l0,0c0.1-0.2,0.2-0.5,0.4-0.7c0.2-0.2,0.4-0.4,0.6-0.5c0.2-0.2,0.5-0.3,0.7-0.4
	c0.3-0.1,0.5-0.1,0.8-0.1c0.2,0,0.3,0,0.5,0.1v2.1c-0.1,0-0.2,0-0.4-0.1c-0.1,0-0.3,0-0.4,0c-0.4,0-0.7,0.1-1,0.2
	c-0.3,0.1-0.5,0.3-0.7,0.6c-0.2,0.2-0.3,0.5-0.4,0.8s-0.1,0.7-0.1,1v3.6H355V36.3z"/>
<path class="st0" d="M363.6,35h-2.2v-1.8h2.2V35z M361.4,36.3h2.2v8h-2.2V36.3z"/>
<path class="st0" d="M365.4,40.3c0-0.6,0.1-1.2,0.3-1.8c0.2-0.5,0.5-1,0.8-1.3c0.4-0.4,0.8-0.7,1.3-0.9s1.1-0.3,1.7-0.3
	s1.2,0.1,1.7,0.3c0.5,0.2,1,0.5,1.3,0.9c0.4,0.4,0.6,0.8,0.8,1.3c0.2,0.5,0.3,1.1,0.3,1.8c0,0.7-0.1,1.2-0.3,1.7
	c-0.2,0.5-0.5,1-0.8,1.3s-0.8,0.7-1.3,0.9c-0.5,0.2-1.1,0.3-1.7,0.3s-1.2-0.1-1.7-0.3s-0.9-0.5-1.3-0.9c-0.4-0.4-0.6-0.8-0.8-1.3
	S365.4,41,365.4,40.3z M367.6,40.3c0,0.3,0,0.6,0.1,0.9s0.2,0.6,0.3,0.8c0.2,0.2,0.4,0.4,0.6,0.6s0.6,0.2,0.9,0.2s0.7-0.1,0.9-0.2
	c0.3-0.1,0.5-0.3,0.6-0.6c0.2-0.2,0.3-0.5,0.3-0.8c0.1-0.3,0.1-0.6,0.1-0.9s0-0.6-0.1-0.9s-0.2-0.6-0.3-0.8
	c-0.1-0.2-0.4-0.4-0.6-0.6c-0.3-0.2-0.6-0.2-0.9-0.2s-0.7,0.1-0.9,0.2c-0.2,0.1-0.4,0.3-0.6,0.6c-0.2,0.3-0.3,0.5-0.3,0.8
	S367.6,40,367.6,40.3z"/>
<path class="st0" d="M375.5,36.3h2.1v1.5l0,0c0.1-0.2,0.2-0.5,0.4-0.7c0.2-0.2,0.4-0.4,0.6-0.5c0.2-0.2,0.5-0.3,0.7-0.4
	c0.3-0.1,0.5-0.1,0.8-0.1c0.2,0,0.3,0,0.5,0.1v2.1c-0.1,0-0.2,0-0.4-0.1c-0.1,0-0.3,0-0.4,0c-0.4,0-0.7,0.1-1,0.2
	c-0.3,0.1-0.5,0.3-0.7,0.6c-0.2,0.2-0.3,0.5-0.4,0.8s-0.1,0.7-0.1,1v3.6h-2.2v-8.1H375.5z"/>
<path class="st0" d="M381.8,38.8c0-0.5,0.2-0.9,0.4-1.3c0.2-0.3,0.5-0.6,0.9-0.8c0.4-0.2,0.7-0.4,1.2-0.4c0.4-0.1,0.9-0.1,1.3-0.1
	s0.8,0,1.2,0.1c0.4,0.1,0.8,0.2,1.1,0.3c0.3,0.2,0.6,0.4,0.8,0.7c0.2,0.3,0.3,0.7,0.3,1.2v4.2c0,0.4,0,0.7,0.1,1
	c0,0.3,0.1,0.6,0.2,0.7h-2.2c0-0.1-0.1-0.3-0.1-0.4c0-0.1,0-0.3-0.1-0.4c-0.4,0.4-0.8,0.6-1.2,0.8c-0.4,0.2-1,0.2-1.5,0.2
	c-0.4,0-0.7,0-1.1-0.1c-0.3-0.1-0.6-0.2-0.9-0.4c-0.3-0.2-0.4-0.4-0.6-0.7c-0.1-0.3-0.2-0.7-0.2-1.1c0-0.5,0.1-0.8,0.2-1.1
	c0.2-0.3,0.4-0.5,0.6-0.7c0.3-0.2,0.6-0.3,0.9-0.4c0.3-0.1,0.7-0.2,1-0.2c0.3-0.1,0.7-0.1,1-0.1s0.6-0.1,0.8-0.1
	c0.2-0.1,0.4-0.2,0.6-0.3c0.1-0.1,0.2-0.3,0.2-0.5s0-0.4-0.1-0.6c-0.1-0.1-0.2-0.2-0.3-0.3c-0.1-0.1-0.3-0.1-0.5-0.2
	c-0.2,0-0.4,0-0.6,0c-0.4,0-0.8,0.1-1,0.3c-0.3,0.2-0.4,0.5-0.4,0.9h-2V38.8z M386.9,40.4c-0.1,0.1-0.2,0.1-0.4,0.2
	c-0.1,0-0.3,0.1-0.5,0.1s-0.3,0.1-0.5,0.1s-0.4,0-0.5,0.1c-0.2,0-0.3,0.1-0.5,0.1c-0.2,0.1-0.3,0.1-0.4,0.2
	c-0.1,0.1-0.2,0.2-0.3,0.3c-0.1,0.1-0.1,0.3-0.1,0.5s0,0.4,0.1,0.5c0.1,0.1,0.2,0.2,0.3,0.3c0.1,0.1,0.3,0.1,0.4,0.2
	c0.2,0,0.3,0,0.5,0c0.4,0,0.8-0.1,1-0.2c0.2-0.1,0.4-0.3,0.5-0.5s0.2-0.4,0.2-0.6s0-0.4,0-0.5v-0.8H386.9z"/>
<path class="st0" d="M391.1,36.3h2.1v1.1l0,0c0.3-0.5,0.6-0.8,1.1-1c0.4-0.2,0.9-0.3,1.4-0.3c0.6,0,1.1,0.1,1.5,0.2
	c0.4,0.2,0.7,0.4,0.9,0.7c0.2,0.3,0.4,0.6,0.5,1c0.1,0.4,0.1,0.9,0.1,1.4v5h-2.2v-4.5c0-0.7-0.1-1.2-0.3-1.5
	c-0.2-0.3-0.6-0.5-1.1-0.5c-0.6,0-1,0.2-1.3,0.5c-0.3,0.4-0.4,0.9-0.4,1.8v4.2h-2.2v-8.1H391.1z"/>
<path class="st0" d="M0.2,51.2h2.2v11.1H0.2V51.2z"/>
<path class="st0" d="M4.3,56.8c0-0.5,0.2-0.9,0.4-1.3c0.2-0.3,0.5-0.6,0.9-0.8s0.7-0.4,1.2-0.4c0.4-0.1,0.9-0.1,1.3-0.1
	s0.8,0,1.2,0.1c0.4,0.1,0.8,0.2,1.1,0.3c0.3,0.2,0.6,0.4,0.8,0.7c0.2,0.3,0.3,0.7,0.3,1.2v4.2c0,0.4,0,0.7,0.1,1
	c0,0.3,0.1,0.6,0.2,0.7H9.6c0-0.1-0.1-0.3-0.1-0.4c0-0.1,0-0.3-0.1-0.4C9,62,8.6,62.2,8.2,62.4c-0.4,0.2-1,0.2-1.5,0.2
	c-0.4,0-0.7,0-1.1-0.1c-0.3-0.1-0.6-0.2-0.9-0.4c-0.3-0.2-0.4-0.4-0.6-0.7c-0.1-0.3-0.2-0.7-0.2-1.1c0-0.5,0.1-0.8,0.2-1.1
	c0.2-0.3,0.4-0.5,0.6-0.7c0.3-0.2,0.6-0.3,0.9-0.4c0.3-0.1,0.7-0.2,1-0.2c0.3-0.1,0.7-0.1,1-0.1s0.6-0.1,0.8-0.1
	c0.2-0.1,0.4-0.2,0.6-0.3c0.1-0.1,0.2-0.3,0.2-0.5s0-0.4-0.1-0.6C9,56.2,8.9,56.1,8.8,56c-0.1-0.1-0.3-0.1-0.5-0.2
	c-0.2,0-0.4,0-0.6,0c-0.4,0-0.8,0.1-1,0.3c-0.3,0.2-0.4,0.5-0.4,0.9h-2V56.8z M9.5,58.4c-0.1,0.1-0.2,0.1-0.4,0.2
	c-0.1,0-0.3,0.1-0.5,0.1s-0.3,0.1-0.5,0.1s-0.4,0-0.5,0.1c-0.2,0-0.3,0.1-0.5,0.1c-0.2,0.1-0.3,0.1-0.4,0.2
	c-0.1,0.1-0.2,0.2-0.3,0.3c-0.1,0.1-0.1,0.3-0.1,0.5s0,0.4,0.1,0.5c0.1,0.1,0.2,0.2,0.3,0.3C6.8,60.9,7,60.9,7.1,61
	c0.2,0,0.3,0,0.5,0c0.4,0,0.8-0.1,1-0.2c0.2-0.1,0.4-0.3,0.5-0.5s0.2-0.4,0.2-0.6s0-0.4,0-0.5v-0.8H9.5z"/>
<path class="st0" d="M18.8,55.8h-1.3v-1.5h1.3v-0.6c0-0.4,0.1-0.7,0.2-1s0.3-0.6,0.5-0.8c0.2-0.2,0.5-0.4,0.8-0.5
	c0.3-0.1,0.7-0.2,1.2-0.2c0.2,0,0.4,0,0.6,0s0.4,0,0.6,0v1.7c-0.3,0-0.5,0-0.8,0s-0.5,0.1-0.6,0.2c-0.1,0.1-0.2,0.4-0.2,0.7v0.5h1.5
	v1.5h-1.5v6.6h-2.3V55.8z"/>
<path class="st0" d="M31.4,62.3h-2.1v-1.1l0,0c-0.3,0.5-0.6,0.8-1.1,1c-0.4,0.2-0.9,0.3-1.4,0.3c-0.6,0-1.1-0.1-1.5-0.2
	c-0.4-0.2-0.7-0.4-0.9-0.7c-0.2-0.3-0.4-0.6-0.5-1c-0.1-0.4-0.1-0.9-0.1-1.4v-5H26v4.5c0,0.7,0.1,1.2,0.3,1.5
	c0.2,0.3,0.6,0.5,1.1,0.5c0.6,0,1-0.2,1.3-0.5c0.3-0.4,0.4-0.9,0.4-1.8v-4.2h2.2v8.1H31.4z"/>
<path class="st0" d="M33.4,54.3h2.1v1.1l0,0c0.3-0.5,0.6-0.8,1.1-1c0.4-0.2,0.9-0.3,1.4-0.3c0.6,0,1.1,0.1,1.5,0.2
	c0.4,0.2,0.7,0.4,0.9,0.7c0.2,0.3,0.4,0.6,0.5,1c0.1,0.4,0.1,0.9,0.1,1.4v5h-2.2v-4.5c0-0.7-0.1-1.2-0.3-1.5
	c-0.2-0.3-0.6-0.5-1.1-0.5c-0.6,0-1,0.2-1.3,0.5c-0.3,0.4-0.4,0.9-0.4,1.8v4.2h-2.2v-8.1H33.4z"/>
<path class="st0" d="M48.4,57.1c-0.1-0.9-0.7-1.4-1.6-1.4c-0.4,0-0.6,0.1-0.9,0.2c-0.2,0.2-0.4,0.4-0.6,0.6S45,57,45,57.3
	c-0.1,0.3-0.1,0.6-0.1,0.9s0,0.6,0.1,0.9s0.2,0.6,0.3,0.8c0.1,0.2,0.3,0.4,0.6,0.6c0.2,0.2,0.5,0.2,0.9,0.2c0.5,0,0.9-0.1,1.2-0.4
	c0.3-0.3,0.5-0.7,0.5-1.2h2.1c-0.1,1.1-0.6,1.9-1.2,2.5c-0.7,0.6-1.6,0.8-2.6,0.8c-0.6,0-1.2-0.1-1.7-0.3c-0.5-0.2-0.9-0.5-1.3-0.9
	c-0.4-0.4-0.6-0.8-0.8-1.3c-0.2-0.5-0.3-1.1-0.3-1.7c0-0.6,0.1-1.2,0.3-1.7c0.2-0.5,0.4-1,0.8-1.4c0.4-0.4,0.8-0.7,1.3-0.9
	s1.1-0.3,1.7-0.3c0.5,0,0.9,0.1,1.4,0.2c0.5,0.1,0.8,0.3,1.2,0.6c0.4,0.3,0.6,0.6,0.8,1c0.2,0.4,0.4,0.8,0.4,1.3L48.4,57.1
	L48.4,57.1z"/>
<path class="st0" d="M54.4,53h-2.2v-1.8h2.2V53z M52.2,54.3h2.2v8h-2.2V54.3z"/>
<path class="st0" d="M56.2,58.3c0-0.6,0.1-1.2,0.3-1.8c0.2-0.5,0.5-1,0.8-1.3c0.4-0.4,0.8-0.7,1.3-0.9c0.5-0.2,1.1-0.3,1.7-0.3
	s1.2,0.1,1.7,0.3s1,0.5,1.3,0.9c0.4,0.4,0.6,0.8,0.8,1.3c0.2,0.5,0.3,1.1,0.3,1.8c0,0.7-0.1,1.2-0.3,1.7c-0.2,0.5-0.5,1-0.8,1.3
	S62.5,62,62,62.2s-1.1,0.3-1.7,0.3s-1.2-0.1-1.7-0.3c-0.5-0.2-0.9-0.5-1.3-0.9c-0.4-0.4-0.6-0.8-0.8-1.3S56.2,59,56.2,58.3z
	 M58.5,58.3c0,0.3,0,0.6,0.1,0.9s0.2,0.6,0.3,0.8c0.2,0.2,0.4,0.4,0.6,0.6s0.6,0.2,0.9,0.2s0.7-0.1,0.9-0.2c0.3-0.1,0.5-0.3,0.6-0.6
	c0.2-0.2,0.3-0.5,0.3-0.8c0.1-0.3,0.1-0.6,0.1-0.9s0-0.6-0.1-0.9s-0.2-0.6-0.3-0.8c-0.1-0.2-0.4-0.4-0.6-0.6
	c-0.3-0.2-0.6-0.2-0.9-0.2s-0.7,0.1-0.9,0.2c-0.2,0.1-0.4,0.3-0.6,0.6c-0.2,0.3-0.3,0.5-0.3,0.8C58.5,57.7,58.5,58,58.5,58.3z
	 M60.8,53.3h-1.5l1.5-2.2h2.4L60.8,53.3z"/>
<path class="st0" d="M66.3,54.3h2.1v1.1l0,0c0.3-0.5,0.6-0.8,1.1-1c0.4-0.2,0.9-0.3,1.4-0.3c0.6,0,1.1,0.1,1.5,0.2
	c0.4,0.2,0.7,0.4,0.9,0.7c0.2,0.3,0.4,0.6,0.5,1c0.1,0.4,0.1,0.9,0.1,1.4v5h-2.2v-4.5c0-0.7-0.1-1.2-0.3-1.5
	c-0.2-0.3-0.6-0.5-1.1-0.5c-0.6,0-1,0.2-1.3,0.5c-0.3,0.4-0.4,0.9-0.4,1.8v4.2h-2.2v-8.1H66.3z"/>
<path class="st0" d="M86.2,61.3L86.2,61.3c-0.3,0.4-0.6,0.8-1.1,1c-0.4,0.2-0.9,0.3-1.4,0.3c-0.6,0-1.1-0.1-1.6-0.4s-0.8-0.6-1.1-1
	c-0.3-0.4-0.5-0.9-0.7-1.4s-0.2-1.1-0.2-1.6s0.1-1.1,0.2-1.6s0.4-0.9,0.7-1.3c0.3-0.4,0.7-0.7,1.1-0.9c0.4-0.2,1-0.4,1.6-0.4
	c0.5,0,0.9,0.1,1.4,0.3c0.4,0.2,0.8,0.5,1,0.9l0,0v-4h2.2v11.1h-2.1V61.3z M86.2,58.3c0-0.3,0-0.6-0.1-0.9s-0.2-0.6-0.3-0.8
	c-0.2-0.2-0.3-0.4-0.6-0.6s-0.5-0.2-0.9-0.2s-0.7,0.1-0.9,0.2c-0.2,0.1-0.4,0.3-0.6,0.6c-0.2,0.3-0.3,0.5-0.3,0.8s-0.1,0.6-0.1,1
	c0,0.3,0,0.6,0.1,0.9s0.2,0.6,0.4,0.8c0.2,0.2,0.4,0.4,0.6,0.6s0.5,0.2,0.9,0.2s0.7-0.1,0.9-0.2c0.2-0.1,0.4-0.3,0.6-0.6
	c0.1-0.2,0.2-0.5,0.3-0.8S86.2,58.6,86.2,58.3z"/>
<path class="st0" d="M92.5,58.9c0,0.7,0.2,1.2,0.5,1.5s0.8,0.5,1.4,0.5c0.4,0,0.8-0.1,1.2-0.3c0.3-0.2,0.5-0.5,0.6-0.7h1.9
	c-0.3,1-0.8,1.6-1.4,2.1s-1.4,0.6-2.3,0.6c-0.6,0-1.2-0.1-1.7-0.3c-0.5-0.2-0.9-0.5-1.3-0.9c-0.4-0.4-0.6-0.8-0.8-1.3
	c-0.2-0.5-0.3-1.1-0.3-1.7c0-0.6,0.1-1.2,0.3-1.7s0.5-1,0.8-1.3c0.4-0.4,0.8-0.7,1.3-0.9c0.5-0.2,1.1-0.3,1.7-0.3
	c0.7,0,1.3,0.1,1.8,0.4s0.9,0.6,1.3,1.1s0.6,1,0.7,1.5s0.2,1.2,0.2,1.8h-5.9V58.9z M96.1,57.5c-0.1-0.6-0.3-1-0.6-1.3
	c-0.3-0.3-0.7-0.4-1.2-0.4c-0.4,0-0.6,0.1-0.9,0.2c-0.2,0.1-0.4,0.3-0.6,0.4c-0.1,0.2-0.2,0.4-0.3,0.6s-0.1,0.4-0.1,0.5
	C92.4,57.5,96.1,57.5,96.1,57.5z"/>
<path class="st0" d="M100.3,51.2h2.2v11.1h-2.2V51.2z"/>
<path class="st0" d="M109.5,58.3c0-0.6,0.1-1.2,0.3-1.8c0.2-0.5,0.5-1,0.8-1.3c0.4-0.4,0.8-0.7,1.3-0.9c0.5-0.2,1.1-0.3,1.7-0.3
	s1.2,0.1,1.7,0.3s1,0.5,1.3,0.9c0.4,0.4,0.6,0.8,0.8,1.3s0.3,1.1,0.3,1.8c0,0.7-0.1,1.2-0.3,1.7s-0.5,1-0.8,1.3s-0.8,0.7-1.3,0.9
	s-1.1,0.3-1.7,0.3s-1.2-0.1-1.7-0.3c-0.5-0.2-0.9-0.5-1.3-0.9c-0.4-0.4-0.6-0.8-0.8-1.3S109.5,59,109.5,58.3z M111.8,58.3
	c0,0.3,0,0.6,0.1,0.9s0.2,0.6,0.3,0.8c0.2,0.2,0.4,0.4,0.6,0.6s0.6,0.2,0.9,0.2s0.7-0.1,0.9-0.2c0.3-0.1,0.5-0.3,0.6-0.6
	c0.2-0.2,0.3-0.5,0.3-0.8c0.1-0.3,0.1-0.6,0.1-0.9s0-0.6-0.1-0.9s-0.2-0.6-0.3-0.8c-0.1-0.2-0.4-0.4-0.6-0.6
	c-0.3-0.2-0.6-0.2-0.9-0.2s-0.7,0.1-0.9,0.2c-0.2,0.1-0.4,0.3-0.6,0.6c-0.2,0.3-0.3,0.5-0.3,0.8C111.8,57.7,111.8,58,111.8,58.3z"/>
<path class="st0" d="M119.9,54.3h2.1v1.5l0,0c0.1-0.2,0.2-0.5,0.4-0.7s0.4-0.4,0.6-0.5c0.2-0.2,0.5-0.3,0.7-0.4
	c0.3-0.1,0.5-0.1,0.8-0.1c0.2,0,0.3,0,0.5,0.1v2.1c-0.1,0-0.2,0-0.4-0.1c-0.1,0-0.3,0-0.4,0c-0.4,0-0.7,0.1-1,0.2
	c-0.3,0.1-0.5,0.3-0.7,0.6c-0.2,0.2-0.3,0.5-0.4,0.8c-0.1,0.3-0.1,0.7-0.1,1v3.6h-2.2v-8.1H119.9z"/>
<path class="st0" d="M134.3,61.8c0,0.2,0,0.5-0.1,0.7c0,0.3-0.1,0.5-0.2,0.8s-0.2,0.5-0.4,0.8c-0.2,0.2-0.4,0.5-0.7,0.7
	c-0.3,0.2-0.7,0.3-1.1,0.5c-0.4,0.1-1,0.2-1.6,0.2c-0.4,0-0.8,0-1.2-0.1s-0.8-0.3-1.1-0.5c-0.3-0.2-0.6-0.5-0.8-0.8
	c-0.2-0.3-0.4-0.7-0.4-1.2h2.2c0.1,0.4,0.3,0.7,0.6,0.9c0.3,0.2,0.6,0.2,1,0.2c0.6,0,1.1-0.2,1.4-0.6c0.3-0.4,0.4-0.9,0.4-1.4v-1.1
	l0,0c-0.2,0.4-0.6,0.7-1,0.9c-0.4,0.2-0.9,0.3-1.4,0.3c-0.6,0-1.1-0.1-1.6-0.3c-0.4-0.2-0.8-0.5-1.1-0.9c-0.3-0.4-0.5-0.8-0.6-1.3
	s-0.2-1-0.2-1.6c0-0.5,0.1-1,0.2-1.5c0.2-0.5,0.4-0.9,0.7-1.3c0.3-0.4,0.7-0.7,1.1-0.9c0.4-0.2,0.9-0.3,1.5-0.3c0.5,0,1,0.1,1.4,0.3
	s0.7,0.5,1,1l0,0v-1.1h2.1v7.6H134.3z M130.4,60.4c0.3,0,0.6-0.1,0.8-0.2c0.2-0.1,0.4-0.3,0.6-0.5c0.2-0.2,0.3-0.4,0.4-0.7
	c0.1-0.3,0.1-0.5,0.1-0.8s0-0.6-0.1-0.9s-0.2-0.6-0.3-0.8s-0.3-0.4-0.6-0.5c-0.3-0.1-0.5-0.2-0.9-0.2c-0.3,0-0.6,0.1-0.8,0.2
	c-0.2,0.1-0.4,0.3-0.6,0.5c-0.2,0.2-0.3,0.5-0.3,0.7c-0.1,0.3-0.1,0.6-0.1,0.9s0,0.6,0.1,0.9s0.2,0.5,0.3,0.8
	c0.1,0.2,0.3,0.4,0.6,0.6C129.7,60.4,130,60.4,130.4,60.4z"/>
<path class="st0" d="M136.6,56.8c0-0.5,0.2-0.9,0.4-1.3c0.2-0.3,0.5-0.6,0.9-0.8s0.7-0.4,1.2-0.4c0.4-0.1,0.9-0.1,1.3-0.1
	c0.4,0,0.8,0,1.2,0.1c0.4,0.1,0.8,0.2,1.1,0.3c0.3,0.2,0.6,0.4,0.8,0.7c0.2,0.3,0.3,0.7,0.3,1.2v4.2c0,0.4,0,0.7,0.1,1
	c0,0.3,0.1,0.6,0.2,0.7h-2.2c0-0.1-0.1-0.3-0.1-0.4c0-0.1,0-0.3-0.1-0.4c-0.4,0.4-0.8,0.6-1.2,0.8c-0.4,0.2-1,0.2-1.5,0.2
	c-0.4,0-0.7,0-1.1-0.1c-0.3-0.1-0.6-0.2-0.9-0.4c-0.3-0.2-0.4-0.4-0.6-0.7c-0.1-0.3-0.2-0.7-0.2-1.1c0-0.5,0.1-0.8,0.2-1.1
	c0.2-0.3,0.4-0.5,0.6-0.7c0.3-0.2,0.6-0.3,0.9-0.4c0.3-0.1,0.7-0.2,1-0.2c0.3-0.1,0.7-0.1,1-0.1s0.6-0.1,0.8-0.1
	c0.2-0.1,0.4-0.2,0.6-0.3c0.1-0.1,0.2-0.3,0.2-0.5s0-0.4-0.1-0.6c-0.1-0.1-0.2-0.2-0.3-0.3c-0.1-0.1-0.3-0.1-0.5-0.2
	c-0.2,0-0.4,0-0.6,0c-0.4,0-0.8,0.1-1,0.3c-0.3,0.2-0.4,0.5-0.4,0.9h-2V56.8z M141.8,58.4c-0.1,0.1-0.2,0.1-0.4,0.2
	c-0.1,0-0.3,0.1-0.5,0.1s-0.3,0.1-0.5,0.1s-0.4,0-0.5,0.1c-0.2,0-0.3,0.1-0.5,0.1c-0.2,0.1-0.3,0.1-0.4,0.2
	c-0.1,0.1-0.2,0.2-0.3,0.3s-0.1,0.3-0.1,0.5s0,0.4,0.1,0.5c0.1,0.1,0.2,0.2,0.3,0.3s0.3,0.1,0.4,0.2c0.2,0,0.3,0,0.5,0
	c0.4,0,0.8-0.1,1-0.2c0.2-0.1,0.4-0.3,0.5-0.5s0.2-0.4,0.2-0.6s0-0.4,0-0.5v-0.8H141.8z"/>
<path class="st0" d="M146.3,54.3h2.1v1.1l0,0c0.3-0.5,0.6-0.8,1.1-1c0.4-0.2,0.9-0.3,1.4-0.3c0.6,0,1.1,0.1,1.5,0.2
	c0.4,0.2,0.7,0.4,0.9,0.7c0.2,0.3,0.4,0.6,0.5,1c0.1,0.4,0.1,0.9,0.1,1.4v5h-2.2v-4.5c0-0.7-0.1-1.2-0.3-1.5s-0.6-0.5-1.1-0.5
	c-0.6,0-1,0.2-1.3,0.5c-0.3,0.4-0.4,0.9-0.4,1.8v4.2h-2.2L146.3,54.3L146.3,54.3z"/>
<path class="st0" d="M158.4,53h-2.2v-1.8h2.2V53z M156.2,54.3h2.2v8h-2.2V54.3z"/>
<path class="st0" d="M162.5,59.7c0,0.2,0,0.4,0.1,0.6s0.2,0.3,0.4,0.4c0.2,0.1,0.3,0.2,0.5,0.2c0.2,0.1,0.4,0.1,0.6,0.1
	c0.2,0,0.3,0,0.5-0.1c0.2,0,0.3-0.1,0.5-0.2c0.1-0.1,0.3-0.2,0.4-0.3s0.1-0.3,0.1-0.5s-0.1-0.3-0.2-0.4c-0.1-0.1-0.3-0.2-0.5-0.3
	s-0.5-0.2-0.8-0.3s-0.7-0.2-1.1-0.2c-0.3-0.1-0.6-0.2-0.9-0.3c-0.3-0.1-0.6-0.2-0.8-0.4c-0.2-0.2-0.4-0.4-0.6-0.6
	c-0.1-0.2-0.2-0.5-0.2-0.9c0-0.5,0.1-0.9,0.3-1.3c0.2-0.3,0.5-0.6,0.8-0.8c0.3-0.2,0.7-0.3,1.1-0.4c0.4-0.1,0.8-0.1,1.3-0.1
	c0.4,0,0.9,0,1.3,0.1c0.4,0.1,0.8,0.2,1.1,0.4s0.6,0.5,0.8,0.8s0.3,0.7,0.4,1.2h-2.1c0-0.4-0.2-0.7-0.5-0.9s-0.6-0.2-1-0.2
	c-0.1,0-0.3,0-0.4,0c-0.1,0-0.3,0-0.4,0.1c-0.1,0.1-0.2,0.1-0.3,0.2c-0.1,0.1-0.1,0.2-0.1,0.4c0,0.2,0.1,0.4,0.2,0.5
	c0.1,0.1,0.3,0.2,0.6,0.3c0.2,0.1,0.5,0.1,0.8,0.2c0.3,0.1,0.6,0.1,0.9,0.2c0.3,0.1,0.6,0.2,0.9,0.3c0.3,0.1,0.6,0.2,0.8,0.4
	s0.4,0.4,0.6,0.6c0.1,0.3,0.2,0.6,0.2,0.9c0,0.5-0.1,1-0.3,1.3s-0.5,0.6-0.8,0.9c-0.3,0.2-0.7,0.4-1.2,0.5c-0.4,0.1-0.9,0.1-1.3,0.1
	c-0.5,0-0.9,0-1.4-0.1c-0.4-0.1-0.8-0.3-1.2-0.5s-0.6-0.5-0.9-0.9c-0.2-0.4-0.3-0.8-0.4-1.3h2.2V59.7z"/>
<path class="st0" d="M169.8,54.3h2.1v1.1l0,0c0.3-0.4,0.6-0.7,1.1-1s0.9-0.3,1.4-0.3s1,0.1,1.4,0.3s0.7,0.5,1,1
	c0.2-0.4,0.6-0.7,1-0.9c0.4-0.3,0.9-0.4,1.5-0.4c0.4,0,0.8,0.1,1.2,0.2c0.4,0.1,0.7,0.3,0.9,0.5c0.3,0.2,0.5,0.5,0.6,0.9
	c0.1,0.4,0.2,0.8,0.2,1.3v5.4H180v-4.6c0-0.3,0-0.5,0-0.8c0-0.2-0.1-0.4-0.2-0.6c-0.1-0.2-0.2-0.3-0.4-0.4c-0.2-0.1-0.4-0.2-0.7-0.2
	s-0.6,0.1-0.8,0.2c-0.2,0.1-0.3,0.3-0.5,0.5c-0.1,0.2-0.2,0.4-0.2,0.7c0,0.2-0.1,0.5-0.1,0.7v4.5h-2.2v-4.5c0-0.2,0-0.5,0-0.7
	s-0.1-0.5-0.1-0.7s-0.2-0.4-0.4-0.5c-0.2-0.1-0.4-0.2-0.8-0.2c-0.1,0-0.3,0-0.4,0.1c-0.2,0-0.3,0.1-0.5,0.3
	c-0.2,0.1-0.3,0.3-0.4,0.6c-0.1,0.2-0.2,0.6-0.2,1v4.7h-2.3V54.3z"/>
<path class="st0" d="M184.3,58.3c0-0.6,0.1-1.2,0.3-1.8c0.2-0.5,0.5-1,0.8-1.3c0.4-0.4,0.8-0.7,1.3-0.9c0.5-0.2,1.1-0.3,1.7-0.3
	s1.2,0.1,1.7,0.3s1,0.5,1.3,0.9c0.4,0.4,0.6,0.8,0.8,1.3s0.3,1.1,0.3,1.8c0,0.7-0.1,1.2-0.3,1.7s-0.5,1-0.8,1.3s-0.8,0.7-1.3,0.9
	s-1.1,0.3-1.7,0.3s-1.2-0.1-1.7-0.3c-0.5-0.2-0.9-0.5-1.3-0.9c-0.4-0.4-0.6-0.8-0.8-1.3S184.3,59,184.3,58.3z M186.5,58.3
	c0,0.3,0,0.6,0.1,0.9s0.2,0.6,0.3,0.8c0.2,0.2,0.4,0.4,0.6,0.6s0.6,0.2,0.9,0.2s0.7-0.1,0.9-0.2c0.3-0.1,0.5-0.3,0.6-0.6
	c0.2-0.2,0.3-0.5,0.3-0.8c0.1-0.3,0.1-0.6,0.1-0.9s0-0.6-0.1-0.9s-0.2-0.6-0.3-0.8c-0.1-0.2-0.4-0.4-0.6-0.6
	c-0.3-0.2-0.6-0.2-0.9-0.2s-0.7,0.1-0.9,0.2c-0.2,0.1-0.4,0.3-0.6,0.6c-0.2,0.3-0.3,0.5-0.3,0.8C186.5,57.7,186.5,58,186.5,58.3z"/>
<path class="st0" d="M199.5,56.8c0-0.5,0.2-0.9,0.4-1.3c0.2-0.3,0.5-0.6,0.9-0.8s0.7-0.4,1.2-0.4c0.4-0.1,0.9-0.1,1.3-0.1
	c0.4,0,0.8,0,1.2,0.1c0.4,0.1,0.8,0.2,1.1,0.3c0.3,0.2,0.6,0.4,0.8,0.7c0.2,0.3,0.3,0.7,0.3,1.2v4.2c0,0.4,0,0.7,0.1,1
	c0,0.3,0.1,0.6,0.2,0.7h-2.2c0-0.1-0.1-0.3-0.1-0.4c0-0.1,0-0.3-0.1-0.4c-0.4,0.4-0.8,0.6-1.2,0.8c-0.4,0.2-1,0.2-1.5,0.2
	c-0.4,0-0.7,0-1.1-0.1c-0.3-0.1-0.6-0.2-0.9-0.4c-0.3-0.2-0.4-0.4-0.6-0.7c-0.1-0.3-0.2-0.7-0.2-1.1c0-0.5,0.1-0.8,0.2-1.1
	c0.2-0.3,0.4-0.5,0.6-0.7c0.3-0.2,0.6-0.3,0.9-0.4c0.3-0.1,0.7-0.2,1-0.2c0.3-0.1,0.7-0.1,1-0.1s0.6-0.1,0.8-0.1
	c0.2-0.1,0.4-0.2,0.6-0.3c0.1-0.1,0.2-0.3,0.2-0.5s0-0.4-0.1-0.6c-0.1-0.1-0.2-0.2-0.3-0.3c-0.1-0.1-0.3-0.1-0.5-0.2
	c-0.2,0-0.4,0-0.6,0c-0.4,0-0.8,0.1-1,0.3c-0.3,0.2-0.4,0.5-0.4,0.9h-2V56.8z M204.6,58.4c-0.1,0.1-0.2,0.1-0.4,0.2
	c-0.1,0-0.3,0.1-0.5,0.1s-0.3,0.1-0.5,0.1s-0.4,0-0.5,0.1c-0.2,0-0.3,0.1-0.5,0.1c-0.2,0.1-0.3,0.1-0.4,0.2
	c-0.1,0.1-0.2,0.2-0.3,0.3s-0.1,0.3-0.1,0.5s0,0.4,0.1,0.5c0.1,0.1,0.2,0.2,0.3,0.3s0.3,0.1,0.4,0.2c0.2,0,0.3,0,0.5,0
	c0.4,0,0.8-0.1,1-0.2c0.2-0.1,0.4-0.3,0.5-0.5s0.2-0.4,0.2-0.6s0-0.4,0-0.5v-0.8H204.6z"/>
<path class="st0" d="M219.9,61.3L219.9,61.3c-0.3,0.4-0.6,0.8-1.1,1c-0.4,0.2-0.9,0.3-1.4,0.3c-0.6,0-1.1-0.1-1.6-0.4
	s-0.8-0.6-1.1-1c-0.3-0.4-0.5-0.9-0.7-1.4s-0.2-1.1-0.2-1.6s0.1-1.1,0.2-1.6s0.4-0.9,0.7-1.3c0.3-0.4,0.7-0.7,1.1-0.9
	c0.4-0.2,1-0.4,1.6-0.4c0.5,0,0.9,0.1,1.4,0.3c0.4,0.2,0.8,0.5,1,0.9l0,0v-4h2.2v11.1h-2.1L219.9,61.3L219.9,61.3z M219.8,58.3
	c0-0.3,0-0.6-0.1-0.9s-0.2-0.6-0.3-0.8c-0.2-0.2-0.3-0.4-0.6-0.6s-0.5-0.2-0.9-0.2s-0.7,0.1-0.9,0.2c-0.2,0.1-0.4,0.3-0.6,0.6
	c-0.2,0.3-0.3,0.5-0.3,0.8s-0.1,0.6-0.1,1c0,0.3,0,0.6,0.1,0.9s0.2,0.6,0.4,0.8c0.2,0.2,0.4,0.4,0.6,0.6c0.2,0.2,0.5,0.2,0.9,0.2
	s0.7-0.1,0.9-0.2c0.2-0.1,0.4-0.3,0.6-0.6c0.1-0.2,0.2-0.5,0.3-0.8S219.8,58.6,219.8,58.3z"/>
<path class="st0" d="M226.5,53h-2.2v-1.8h2.2V53z M224.3,54.3h2.2v8h-2.2V54.3z"/>
<path class="st0" d="M230.6,59.7c0,0.2,0,0.4,0.1,0.6s0.2,0.3,0.4,0.4c0.2,0.1,0.3,0.2,0.5,0.2c0.2,0.1,0.4,0.1,0.6,0.1
	c0.2,0,0.3,0,0.5-0.1c0.2,0,0.3-0.1,0.5-0.2c0.1-0.1,0.3-0.2,0.4-0.3s0.1-0.3,0.1-0.5s-0.1-0.3-0.2-0.4c-0.1-0.1-0.3-0.2-0.5-0.3
	s-0.5-0.2-0.8-0.3s-0.7-0.2-1.1-0.2c-0.3-0.1-0.6-0.2-0.9-0.3c-0.3-0.1-0.6-0.2-0.8-0.4c-0.2-0.2-0.4-0.4-0.6-0.6
	c-0.1-0.2-0.2-0.5-0.2-0.9c0-0.5,0.1-0.9,0.3-1.3c0.2-0.3,0.5-0.6,0.8-0.8c0.3-0.2,0.7-0.3,1.1-0.4c0.4-0.1,0.8-0.1,1.3-0.1
	c0.4,0,0.9,0,1.3,0.1c0.4,0.1,0.8,0.2,1.1,0.4s0.6,0.5,0.8,0.8s0.3,0.7,0.4,1.2h-2.1c0-0.4-0.2-0.7-0.5-0.9s-0.6-0.2-1-0.2
	c-0.1,0-0.3,0-0.4,0c-0.1,0-0.3,0-0.4,0.1c-0.1,0.1-0.2,0.1-0.3,0.2c-0.1,0.1-0.1,0.2-0.1,0.4c0,0.2,0.1,0.4,0.2,0.5
	c0.1,0.1,0.3,0.2,0.6,0.3c0.2,0.1,0.5,0.1,0.8,0.2c0.3,0.1,0.6,0.1,0.9,0.2c0.3,0.1,0.6,0.2,0.9,0.3c0.3,0.1,0.6,0.2,0.8,0.4
	s0.4,0.4,0.6,0.6c0.1,0.3,0.2,0.6,0.2,0.9c0,0.5-0.1,1-0.3,1.3s-0.5,0.6-0.8,0.9c-0.3,0.2-0.7,0.4-1.2,0.5c-0.4,0.1-0.9,0.1-1.3,0.1
	c-0.5,0-0.9,0-1.4-0.1c-0.4-0.1-0.8-0.3-1.2-0.5s-0.6-0.5-0.9-0.9c-0.2-0.4-0.3-0.8-0.4-1.3h2.2V59.7z"/>
<path class="st0" d="M240.7,54.3h1.6v1.5h-1.6v4c0,0.4,0.1,0.6,0.2,0.7c0.1,0.1,0.4,0.2,0.7,0.2c0.2,0,0.5,0,0.7-0.1v1.8
	c-0.2,0-0.4,0.1-0.6,0.1s-0.5,0-0.7,0c-0.3,0-0.7,0-1-0.1c-0.3,0-0.6-0.1-0.8-0.3c-0.2-0.2-0.4-0.3-0.6-0.6c-0.2-0.3-0.2-0.6-0.2-1
	v-4.7h-1.3v-1.5h1.3v-2.4h2.2L240.7,54.3L240.7,54.3z"/>
<path class="st0" d="M246.3,53h-2.2v-1.8h2.2V53z M244,54.3h2.2v8H244V54.3z"/>
<path class="st0" d="M248.6,54.3h2.1v1.1l0,0c0.3-0.5,0.6-0.8,1.1-1c0.4-0.2,0.9-0.3,1.4-0.3c0.6,0,1.1,0.1,1.5,0.2
	c0.4,0.2,0.7,0.4,0.9,0.7c0.2,0.3,0.4,0.6,0.5,1c0.1,0.4,0.1,0.9,0.1,1.4v5H254v-4.5c0-0.7-0.1-1.2-0.3-1.5s-0.6-0.5-1.1-0.5
	c-0.6,0-1,0.2-1.3,0.5c-0.3,0.4-0.4,0.9-0.4,1.8v4.2h-2.2L248.6,54.3L248.6,54.3z"/>
<path class="st0" d="M261.3,54.3h1.6v1.5h-1.6v4c0,0.4,0.1,0.6,0.2,0.7c0.1,0.1,0.4,0.2,0.7,0.2c0.2,0,0.5,0,0.7-0.1v1.8
	c-0.2,0-0.4,0.1-0.6,0.1s-0.5,0-0.7,0c-0.3,0-0.7,0-1-0.1c-0.3,0-0.6-0.1-0.8-0.3c-0.2-0.2-0.4-0.3-0.6-0.6c-0.2-0.3-0.2-0.6-0.2-1
	v-4.7h-1.3v-1.5h1.3v-2.4h2.2L261.3,54.3L261.3,54.3z"/>
<path class="st0" d="M264.3,58.3c0-0.6,0.1-1.2,0.3-1.8c0.2-0.5,0.5-1,0.8-1.3c0.4-0.4,0.8-0.7,1.3-0.9c0.5-0.2,1.1-0.3,1.7-0.3
	s1.2,0.1,1.7,0.3s1,0.5,1.3,0.9c0.4,0.4,0.6,0.8,0.8,1.3s0.3,1.1,0.3,1.8c0,0.7-0.1,1.2-0.3,1.7s-0.5,1-0.8,1.3s-0.8,0.7-1.3,0.9
	s-1.1,0.3-1.7,0.3s-1.2-0.1-1.7-0.3c-0.5-0.2-0.9-0.5-1.3-0.9c-0.4-0.4-0.6-0.8-0.8-1.3S264.3,59,264.3,58.3z M266.5,58.3
	c0,0.3,0,0.6,0.1,0.9s0.2,0.6,0.3,0.8c0.2,0.2,0.4,0.4,0.6,0.6s0.6,0.2,0.9,0.2s0.7-0.1,0.9-0.2c0.3-0.1,0.5-0.3,0.6-0.6
	c0.2-0.2,0.3-0.5,0.3-0.8c0.1-0.3,0.1-0.6,0.1-0.9s0-0.6-0.1-0.9s-0.2-0.6-0.3-0.8c-0.1-0.2-0.4-0.4-0.6-0.6
	c-0.3-0.2-0.6-0.2-0.9-0.2s-0.7,0.1-0.9,0.2c-0.2,0.1-0.4,0.3-0.6,0.6c-0.2,0.3-0.3,0.5-0.3,0.8S266.5,58,266.5,58.3z"/>
<path class="st0" d="M276.4,59.7c0,0.2,0,0.4,0.1,0.6s0.2,0.3,0.4,0.4c0.2,0.1,0.3,0.2,0.5,0.2c0.2,0.1,0.4,0.1,0.6,0.1
	c0.2,0,0.3,0,0.5-0.1c0.2,0,0.3-0.1,0.5-0.2c0.1-0.1,0.3-0.2,0.4-0.3s0.1-0.3,0.1-0.5s-0.1-0.3-0.2-0.4c-0.1-0.1-0.3-0.2-0.5-0.3
	s-0.5-0.2-0.8-0.3s-0.7-0.2-1.1-0.2c-0.3-0.1-0.6-0.2-0.9-0.3c-0.3-0.1-0.6-0.2-0.8-0.4c-0.2-0.2-0.4-0.4-0.6-0.6
	c-0.1-0.2-0.2-0.5-0.2-0.9c0-0.5,0.1-0.9,0.3-1.3c0.2-0.3,0.5-0.6,0.8-0.8c0.3-0.2,0.7-0.3,1.1-0.4c0.4-0.1,0.8-0.1,1.3-0.1
	c0.4,0,0.9,0,1.3,0.1c0.4,0.1,0.8,0.2,1.1,0.4s0.6,0.5,0.8,0.8s0.3,0.7,0.4,1.2h-2.1c0-0.4-0.2-0.7-0.5-0.9s-0.6-0.2-1-0.2
	c-0.1,0-0.3,0-0.4,0c-0.1,0-0.3,0-0.4,0.1c-0.1,0.1-0.2,0.1-0.3,0.2c-0.1,0.1-0.1,0.2-0.1,0.4c0,0.2,0.1,0.4,0.2,0.5
	c0.1,0.1,0.3,0.2,0.6,0.3c0.2,0.1,0.5,0.1,0.8,0.2c0.3,0.1,0.6,0.1,0.9,0.2c0.3,0.1,0.6,0.2,0.9,0.3c0.3,0.1,0.6,0.2,0.8,0.4
	s0.4,0.4,0.6,0.6c0.1,0.3,0.2,0.6,0.2,0.9c0,0.5-0.1,1-0.3,1.3s-0.5,0.6-0.8,0.9c-0.3,0.2-0.7,0.4-1.2,0.5c-0.4,0.1-0.9,0.1-1.3,0.1
	c-0.5,0-0.9,0-1.4-0.1c-0.4-0.1-0.8-0.3-1.2-0.5s-0.6-0.5-0.9-0.9c-0.2-0.4-0.3-0.8-0.4-1.3h2.2V59.7z"/>
<path class="st0" d="M288.6,54.3h2.1v1.1l0,0c0.3-0.5,0.6-0.8,1.1-1c0.4-0.2,0.9-0.3,1.4-0.3c0.6,0,1.1,0.1,1.5,0.2
	c0.4,0.2,0.7,0.4,0.9,0.7c0.2,0.3,0.4,0.6,0.5,1c0.1,0.4,0.1,0.9,0.1,1.4v5H294v-4.5c0-0.7-0.1-1.2-0.3-1.5s-0.6-0.5-1.1-0.5
	c-0.6,0-1,0.2-1.3,0.5c-0.3,0.4-0.4,0.9-0.4,1.8v4.2h-2.2L288.6,54.3L288.6,54.3z"/>
<path class="st0" d="M300.8,53h-2.2v-1.8h2.2V53z M298.6,54.3h2.2v8h-2.2V54.3z"/>
<path class="st0" d="M307.6,62.3h-2.5l-2.8-8h2.3l1.7,5.5l0,0l1.7-5.5h2.2L307.6,62.3z"/>
<path class="st0" d="M313.7,58.9c0,0.7,0.2,1.2,0.5,1.5s0.8,0.5,1.4,0.5c0.4,0,0.8-0.1,1.2-0.3c0.3-0.2,0.5-0.5,0.6-0.7h1.9
	c-0.3,1-0.8,1.6-1.4,2.1s-1.4,0.6-2.3,0.6c-0.6,0-1.2-0.1-1.7-0.3c-0.5-0.2-0.9-0.5-1.3-0.9c-0.4-0.4-0.6-0.8-0.8-1.3
	s-0.3-1.1-0.3-1.7c0-0.6,0.1-1.2,0.3-1.7s0.5-1,0.8-1.3c0.4-0.4,0.8-0.7,1.3-0.9c0.5-0.2,1.1-0.3,1.7-0.3c0.7,0,1.3,0.1,1.8,0.4
	s0.9,0.6,1.3,1.1s0.6,1,0.7,1.5s0.2,1.2,0.2,1.8h-5.9V58.9z M317.3,57.5c-0.1-0.6-0.3-1-0.6-1.3s-0.7-0.4-1.2-0.4
	c-0.4,0-0.6,0.1-0.9,0.2c-0.2,0.1-0.4,0.3-0.6,0.4c-0.1,0.2-0.2,0.4-0.3,0.6s-0.1,0.4-0.1,0.5C313.6,57.5,317.3,57.5,317.3,57.5z"/>
<path class="st0" d="M321.5,51.2h2.2v11.1h-2.2V51.2z"/>
<path class="st0" d="M327.9,58.9c0,0.7,0.2,1.2,0.5,1.5s0.8,0.5,1.4,0.5c0.4,0,0.8-0.1,1.2-0.3c0.3-0.2,0.5-0.5,0.6-0.7h1.9
	c-0.3,1-0.8,1.6-1.4,2.1s-1.4,0.6-2.3,0.6c-0.6,0-1.2-0.1-1.7-0.3c-0.5-0.2-0.9-0.5-1.3-0.9c-0.4-0.4-0.6-0.8-0.8-1.3
	s-0.3-1.1-0.3-1.7c0-0.6,0.1-1.2,0.3-1.7s0.5-1,0.8-1.3c0.4-0.4,0.8-0.7,1.3-0.9c0.5-0.2,1.1-0.3,1.7-0.3c0.7,0,1.3,0.1,1.8,0.4
	s0.9,0.6,1.3,1.1s0.6,1,0.7,1.5s0.2,1.2,0.2,1.8h-5.9V58.9z M331.5,57.5c-0.1-0.6-0.3-1-0.6-1.3s-0.7-0.4-1.2-0.4
	c-0.4,0-0.6,0.1-0.9,0.2c-0.2,0.1-0.4,0.3-0.6,0.4c-0.1,0.2-0.2,0.4-0.3,0.6s-0.1,0.4-0.1,0.5C327.8,57.5,331.5,57.5,331.5,57.5z"/>
<path class="st0" d="M337.3,59.7c0,0.2,0,0.4,0.1,0.6s0.2,0.3,0.4,0.4c0.2,0.1,0.3,0.2,0.5,0.2c0.2,0.1,0.4,0.1,0.6,0.1
	c0.2,0,0.3,0,0.5-0.1c0.2,0,0.3-0.1,0.5-0.2c0.1-0.1,0.3-0.2,0.4-0.3s0.1-0.3,0.1-0.5s-0.1-0.3-0.2-0.4c-0.1-0.1-0.3-0.2-0.5-0.3
	s-0.5-0.2-0.8-0.3s-0.7-0.2-1.1-0.2c-0.3-0.1-0.6-0.2-0.9-0.3c-0.3-0.1-0.6-0.2-0.8-0.4c-0.2-0.2-0.4-0.4-0.6-0.6
	c-0.1-0.2-0.2-0.5-0.2-0.9c0-0.5,0.1-0.9,0.3-1.3c0.2-0.3,0.5-0.6,0.8-0.8c0.3-0.2,0.7-0.3,1.1-0.4c0.4-0.1,0.8-0.1,1.3-0.1
	c0.4,0,0.9,0,1.3,0.1c0.4,0.1,0.8,0.2,1.1,0.4s0.6,0.5,0.8,0.8s0.3,0.7,0.4,1.2h-2.1c0-0.4-0.2-0.7-0.5-0.9s-0.6-0.2-1-0.2
	c-0.1,0-0.3,0-0.4,0c-0.1,0-0.3,0-0.4,0.1c-0.1,0.1-0.2,0.1-0.3,0.2c-0.1,0.1-0.1,0.2-0.1,0.4c0,0.2,0.1,0.4,0.2,0.5
	c0.1,0.1,0.3,0.2,0.6,0.3c0.2,0.1,0.5,0.1,0.8,0.2c0.3,0.1,0.6,0.1,0.9,0.2c0.3,0.1,0.6,0.2,0.9,0.3c0.3,0.1,0.6,0.2,0.8,0.4
	s0.4,0.4,0.6,0.6c0.1,0.3,0.2,0.6,0.2,0.9c0,0.5-0.1,1-0.3,1.3s-0.5,0.6-0.8,0.9c-0.3,0.2-0.7,0.4-1.2,0.5c-0.4,0.1-0.9,0.1-1.3,0.1
	c-0.5,0-0.9,0-1.4-0.1c-0.4-0.1-0.8-0.3-1.2-0.5s-0.6-0.5-0.9-0.9c-0.2-0.4-0.3-0.8-0.4-1.3h2.2V59.7z"/>
<path class="st0" d="M344.7,59.9h2.4v2.4h-2.4V59.9z"/>
</svg>
