<!-- Generator: Adobe Illustrator 20.1.0, SVG Export Plug-In  -->
<svg version="1.1"
	 xmlns="http://www.w3.org/2000/svg" xmlns:xlink="http://www.w3.org/1999/xlink" xmlns:a="http://ns.adobe.com/AdobeSVGViewerExtensions/3.0/"
	 x="0px" y="0px" width="12.5px" height="183.6px" viewBox="0 0 12.5 183.6"
	 style="overflow:scroll;enable-background:new 0 0 12.5 183.6;" xml:space="preserve">
<style type="text/css">
	.st0{fill:#58595B;}
</style>
<defs>
</defs>
<g>
	<g>
		<path class="st0" d="M0.1,183.6v-5.2c0-0.4,0.1-0.8,0.2-1.2c0.1-0.3,0.3-0.6,0.6-0.9c0.2-0.2,0.5-0.4,0.9-0.6
			c0.3-0.1,0.7-0.2,1-0.2c0.6,0,1.1,0.1,1.5,0.4s0.7,0.6,1,1.2h0c0.1-0.3,0.2-0.5,0.3-0.7c0.2-0.2,0.3-0.3,0.5-0.4
			c0.2-0.1,0.4-0.2,0.7-0.2c0.2,0,0.5-0.1,0.7-0.1c0.2,0,0.3,0,0.5,0c0.2,0,0.4,0,0.6,0c0.2,0,0.4-0.1,0.6-0.1s0.4-0.1,0.5-0.2v2.1
			c-0.2,0.1-0.3,0.1-0.5,0.1c-0.2,0-0.4,0.1-0.6,0.1s-0.4,0-0.6,0.1s-0.4,0-0.6,0.1c-0.5,0.1-0.9,0.2-1.1,0.5
			c-0.2,0.2-0.4,0.6-0.4,1.2v2.1h3.8v2.1H0.1z M4.5,181.5v-2.3c0-0.5-0.1-0.8-0.3-1.1c-0.2-0.2-0.6-0.4-1.1-0.4
			c-0.5,0-0.8,0.1-1,0.4c-0.2,0.3-0.3,0.6-0.3,1.1v2.3H4.5z"/>
		<path class="st0" d="M6.8,172.1c0.6,0,1.1-0.2,1.4-0.5c0.3-0.3,0.4-0.7,0.4-1.3c0-0.4-0.1-0.7-0.3-1c-0.2-0.3-0.4-0.5-0.6-0.5
			v-1.7c0.8,0.3,1.4,0.7,1.8,1.3s0.6,1.2,0.6,2c0,0.6-0.1,1.1-0.3,1.5c-0.2,0.4-0.4,0.8-0.8,1.1c-0.3,0.3-0.7,0.5-1.2,0.7
			c-0.5,0.2-1,0.3-1.5,0.3c-0.5,0-1-0.1-1.5-0.3c-0.5-0.2-0.8-0.4-1.2-0.7c-0.3-0.3-0.6-0.7-0.8-1.1c-0.2-0.4-0.3-0.9-0.3-1.5
			c0-0.6,0.1-1.1,0.3-1.6s0.5-0.8,0.9-1.1c0.4-0.3,0.8-0.5,1.3-0.6c0.5-0.1,1-0.2,1.6-0.1V172.1z M5.6,169c-0.5,0.1-0.9,0.3-1.1,0.5
			c-0.3,0.2-0.4,0.6-0.4,1.1c0,0.3,0.1,0.6,0.2,0.8c0.1,0.2,0.2,0.4,0.4,0.5s0.3,0.2,0.5,0.3s0.3,0.1,0.5,0.1V169z"/>
		<path class="st0" d="M2.8,163.2v-1.4h1.3v1.4h3.5c0.3,0,0.5-0.1,0.7-0.2c0.1-0.1,0.2-0.3,0.2-0.7c0-0.2,0-0.4-0.1-0.6h1.5
			c0,0.2,0,0.3,0.1,0.5c0,0.2,0,0.4,0,0.6c0,0.3,0,0.6-0.1,0.9s-0.1,0.5-0.2,0.7c-0.1,0.2-0.3,0.4-0.5,0.5c-0.2,0.1-0.5,0.2-0.9,0.2
			H4.1v1.2H2.8v-1.2H0.7v-1.9H2.8z"/>
		<path class="st0" d="M2.8,160.6v-1.8h1.3v0c-0.2-0.1-0.4-0.2-0.6-0.4c-0.2-0.2-0.3-0.3-0.5-0.5c-0.1-0.2-0.2-0.4-0.3-0.6
			c-0.1-0.2-0.1-0.5-0.1-0.7c0-0.1,0-0.3,0.1-0.4h1.8c0,0.1,0,0.2,0,0.3c0,0.1,0,0.3,0,0.4c0,0.4,0.1,0.7,0.2,0.9
			c0.1,0.2,0.3,0.4,0.5,0.6s0.4,0.3,0.7,0.3c0.3,0.1,0.6,0.1,0.9,0.1h3.2v1.9H2.8z"/>
		<path class="st0" d="M6.3,155.2c-0.6,0-1.1-0.1-1.5-0.3c-0.5-0.2-0.8-0.4-1.2-0.7c-0.3-0.3-0.6-0.7-0.7-1.1s-0.3-0.9-0.3-1.5
			s0.1-1.1,0.3-1.5c0.2-0.4,0.4-0.8,0.7-1.1c0.3-0.3,0.7-0.6,1.2-0.7c0.5-0.2,1-0.3,1.5-0.3c0.6,0,1.1,0.1,1.5,0.3
			c0.5,0.2,0.8,0.4,1.2,0.7c0.3,0.3,0.6,0.7,0.7,1.1c0.2,0.4,0.3,1,0.3,1.5s-0.1,1.1-0.3,1.5s-0.4,0.8-0.7,1.1
			c-0.3,0.3-0.7,0.6-1.2,0.7C7.4,155.2,6.9,155.2,6.3,155.2z M6.3,153.3c0.3,0,0.6,0,0.8-0.1c0.3-0.1,0.5-0.1,0.7-0.3
			c0.2-0.1,0.4-0.3,0.5-0.5c0.1-0.2,0.2-0.5,0.2-0.8s-0.1-0.6-0.2-0.8c-0.1-0.2-0.3-0.4-0.5-0.5c-0.2-0.1-0.5-0.2-0.7-0.3
			s-0.5-0.1-0.8-0.1c-0.3,0-0.6,0-0.8,0.1c-0.3,0.1-0.5,0.1-0.7,0.3c-0.2,0.1-0.4,0.3-0.5,0.5c-0.1,0.2-0.2,0.5-0.2,0.8
			s0.1,0.6,0.2,0.8c0.1,0.2,0.3,0.4,0.5,0.5c0.2,0.1,0.4,0.2,0.7,0.3C5.8,153.3,6,153.3,6.3,153.3z"/>
		<path class="st0" d="M5,146.5c-0.5,0-0.8-0.1-1.1-0.3c-0.3-0.2-0.5-0.5-0.7-0.8c-0.2-0.3-0.3-0.7-0.4-1c-0.1-0.4-0.1-0.8-0.1-1.2
			c0-0.4,0-0.7,0.1-1.1c0-0.4,0.1-0.7,0.3-1c0.1-0.3,0.3-0.5,0.6-0.7s0.6-0.3,1-0.3h3.7c0.3,0,0.6,0,0.9-0.1c0.3,0,0.5-0.1,0.7-0.2
			v2c-0.1,0-0.2,0.1-0.3,0.1c-0.1,0-0.2,0-0.3,0c0.3,0.3,0.5,0.7,0.7,1.1c0.1,0.4,0.2,0.8,0.2,1.3c0,0.3,0,0.6-0.1,0.9
			c-0.1,0.3-0.2,0.5-0.4,0.8c-0.2,0.2-0.4,0.4-0.7,0.5c-0.3,0.1-0.6,0.2-0.9,0.2c-0.4,0-0.7-0.1-1-0.2c-0.3-0.1-0.5-0.3-0.6-0.5
			c-0.2-0.2-0.3-0.5-0.3-0.8c-0.1-0.3-0.1-0.6-0.2-0.9c0-0.3-0.1-0.6-0.1-0.9s-0.1-0.5-0.1-0.7c-0.1-0.2-0.1-0.4-0.2-0.5
			s-0.3-0.2-0.5-0.2c-0.2,0-0.4,0-0.5,0.1s-0.2,0.2-0.3,0.3c-0.1,0.1-0.1,0.2-0.1,0.4c0,0.1,0,0.3,0,0.5c0,0.4,0.1,0.7,0.2,0.9
			c0.2,0.2,0.4,0.4,0.8,0.4V146.5z M6.4,142.1c0.1,0.1,0.1,0.2,0.2,0.3c0,0.1,0.1,0.3,0.1,0.4s0,0.3,0.1,0.4c0,0.2,0,0.3,0.1,0.5
			c0,0.2,0.1,0.3,0.1,0.4c0,0.1,0.1,0.3,0.2,0.4c0.1,0.1,0.2,0.2,0.3,0.3s0.3,0.1,0.4,0.1c0.2,0,0.3,0,0.4-0.1s0.2-0.1,0.3-0.3
			c0.1-0.1,0.1-0.2,0.1-0.4s0-0.3,0-0.4c0-0.4-0.1-0.7-0.2-0.9s-0.3-0.4-0.5-0.5c-0.2-0.1-0.4-0.2-0.5-0.2c-0.2,0-0.3,0-0.4,0H6.4z"
			/>
		<path class="st0" d="M0.1,138.3v-1.9h9.7v1.9H0.1z"/>
		<path class="st0" d="M1.7,132.6v1.9H0.1v-1.9H1.7z M2.8,134.5v-1.9h7v1.9H2.8z"/>
		<path class="st0" d="M2.8,130.8v-1.8h1v0c-0.4-0.3-0.6-0.6-0.8-0.9c-0.2-0.4-0.3-0.8-0.3-1.2c0-0.4,0.1-0.9,0.3-1.2
			s0.5-0.6,0.9-0.8c-0.3-0.2-0.6-0.5-0.8-0.9c-0.2-0.4-0.4-0.8-0.4-1.3c0-0.4,0-0.7,0.1-1c0.1-0.3,0.2-0.6,0.4-0.8s0.5-0.4,0.8-0.5
			s0.7-0.2,1.2-0.2h4.7v1.9h-4c-0.2,0-0.5,0-0.7,0c-0.2,0-0.4,0.1-0.5,0.1c-0.2,0.1-0.3,0.2-0.4,0.4c-0.1,0.2-0.1,0.4-0.1,0.6
			s0.1,0.5,0.2,0.7c0.1,0.2,0.2,0.3,0.4,0.4s0.4,0.2,0.6,0.2s0.4,0,0.6,0h3.9v1.9H5.9c-0.2,0-0.4,0-0.6,0c-0.2,0-0.4,0-0.6,0.1
			c-0.2,0.1-0.3,0.2-0.4,0.3c-0.1,0.2-0.2,0.4-0.2,0.7c0,0.1,0,0.2,0.1,0.4s0.1,0.3,0.2,0.4s0.3,0.3,0.5,0.4
			c0.2,0.1,0.5,0.1,0.8,0.1h4.1v1.9H2.8z"/>
		<path class="st0" d="M6.8,116.6c0.6,0,1.1-0.2,1.4-0.5c0.3-0.3,0.4-0.7,0.4-1.3c0-0.4-0.1-0.7-0.3-1c-0.2-0.3-0.4-0.5-0.6-0.5
			v-1.7c0.8,0.3,1.4,0.7,1.8,1.3c0.4,0.6,0.6,1.2,0.6,2c0,0.6-0.1,1.1-0.3,1.5c-0.2,0.4-0.4,0.8-0.8,1.1c-0.3,0.3-0.7,0.5-1.2,0.7
			c-0.5,0.2-1,0.3-1.5,0.3c-0.5,0-1-0.1-1.5-0.3c-0.5-0.2-0.8-0.4-1.2-0.7c-0.3-0.3-0.6-0.7-0.8-1.1s-0.3-0.9-0.3-1.5
			c0-0.6,0.1-1.1,0.3-1.6s0.5-0.8,0.9-1.1c0.4-0.3,0.8-0.5,1.3-0.6c0.5-0.1,1-0.2,1.6-0.1V116.6z M5.6,113.5
			c-0.5,0.1-0.9,0.3-1.1,0.5c-0.3,0.2-0.4,0.6-0.4,1.1c0,0.3,0.1,0.6,0.2,0.8c0.1,0.2,0.2,0.4,0.4,0.5s0.3,0.2,0.5,0.3
			c0.2,0.1,0.3,0.1,0.5,0.1V113.5z"/>
		<path class="st0" d="M2.8,110.1v-1.8h1v0c-0.4-0.2-0.7-0.6-0.9-1c-0.2-0.4-0.3-0.8-0.3-1.2c0-0.5,0.1-0.9,0.2-1.3s0.3-0.6,0.6-0.8
			s0.6-0.3,0.9-0.4c0.4-0.1,0.8-0.1,1.2-0.1h4.3v1.9h-4c-0.6,0-1,0.1-1.3,0.3c-0.3,0.2-0.4,0.5-0.4,1c0,0.5,0.2,0.9,0.5,1.1
			c0.3,0.2,0.8,0.4,1.5,0.4h3.7v1.9H2.8z"/>
		<path class="st0" d="M2.8,99.3v-1.4h1.3v1.4h3.5c0.3,0,0.5-0.1,0.7-0.2c0.1-0.1,0.2-0.3,0.2-0.7c0-0.2,0-0.4-0.1-0.6h1.5
			c0,0.2,0,0.3,0.1,0.5c0,0.2,0,0.4,0,0.6c0,0.3,0,0.6-0.1,0.9s-0.1,0.5-0.2,0.7c-0.1,0.2-0.3,0.4-0.5,0.5c-0.2,0.1-0.5,0.2-0.9,0.2
			H4.1v1.2H2.8v-1.2H0.7v-1.9H2.8z"/>
		<path class="st0" d="M5,96.8c-0.5,0-0.8-0.1-1.1-0.3c-0.3-0.2-0.5-0.5-0.7-0.8c-0.2-0.3-0.3-0.7-0.4-1c-0.1-0.4-0.1-0.8-0.1-1.2
			c0-0.4,0-0.7,0.1-1.1c0-0.4,0.1-0.7,0.3-1c0.1-0.3,0.3-0.5,0.6-0.7s0.6-0.3,1-0.3h3.7c0.3,0,0.6,0,0.9-0.1c0.3,0,0.5-0.1,0.7-0.2
			v2c-0.1,0-0.2,0.1-0.3,0.1c-0.1,0-0.2,0-0.3,0c0.3,0.3,0.5,0.7,0.7,1.1c0.1,0.4,0.2,0.8,0.2,1.3c0,0.3,0,0.6-0.1,0.9
			c-0.1,0.3-0.2,0.5-0.4,0.8c-0.2,0.2-0.4,0.4-0.7,0.5C8.6,97,8.3,97,7.9,97c-0.4,0-0.7-0.1-1-0.2c-0.3-0.1-0.5-0.3-0.6-0.5
			C6.2,96.1,6,95.8,6,95.5c-0.1-0.3-0.1-0.6-0.2-0.9c0-0.3-0.1-0.6-0.1-0.9s-0.1-0.5-0.1-0.7c-0.1-0.2-0.1-0.4-0.2-0.5
			s-0.3-0.2-0.5-0.2c-0.2,0-0.4,0-0.5,0.1s-0.2,0.2-0.3,0.3C4,92.8,4,93,3.9,93.1c0,0.1,0,0.3,0,0.5c0,0.4,0.1,0.7,0.2,0.9
			c0.2,0.2,0.4,0.4,0.8,0.4V96.8z M6.4,92.4c0.1,0.1,0.1,0.2,0.2,0.3c0,0.1,0.1,0.3,0.1,0.4s0,0.3,0.1,0.4c0,0.2,0,0.3,0.1,0.5
			c0,0.2,0.1,0.3,0.1,0.4c0,0.1,0.1,0.3,0.2,0.4c0.1,0.1,0.2,0.2,0.3,0.3s0.3,0.1,0.4,0.1c0.2,0,0.3,0,0.4-0.1s0.2-0.1,0.3-0.3
			c0.1-0.1,0.1-0.2,0.1-0.4s0-0.3,0-0.4c0-0.4-0.1-0.7-0.2-0.9s-0.3-0.4-0.5-0.5c-0.2-0.1-0.4-0.2-0.5-0.2c-0.2,0-0.3,0-0.4,0H6.4z"
			/>
		<path class="st0" d="M5.3,83.9c-0.8,0.1-1.2,0.6-1.2,1.4c0,0.3,0.1,0.6,0.2,0.8s0.3,0.4,0.5,0.5c0.2,0.1,0.5,0.2,0.7,0.3
			c0.3,0.1,0.5,0.1,0.8,0.1c0.3,0,0.5,0,0.8-0.1c0.3-0.1,0.5-0.1,0.7-0.3c0.2-0.1,0.4-0.3,0.5-0.5c0.1-0.2,0.2-0.5,0.2-0.8
			c0-0.5-0.1-0.8-0.4-1.1c-0.3-0.3-0.6-0.4-1-0.5v-1.9c0.9,0.1,1.6,0.5,2.1,1.1s0.7,1.4,0.7,2.3c0,0.5-0.1,1-0.3,1.5
			c-0.2,0.4-0.4,0.8-0.7,1.1c-0.3,0.3-0.7,0.5-1.1,0.7c-0.4,0.2-0.9,0.3-1.4,0.3c-0.5,0-1-0.1-1.5-0.2S4,88.2,3.7,87.9
			c-0.3-0.3-0.6-0.7-0.8-1.1c-0.2-0.4-0.3-1-0.3-1.5c0-0.4,0.1-0.8,0.2-1.2c0.1-0.4,0.3-0.7,0.5-1c0.2-0.3,0.5-0.5,0.8-0.7
			C4.4,82.1,4.8,82,5.3,82V83.9z"/>
		<path class="st0" d="M1.7,78.6v1.9H0.1v-1.9H1.7z M2.8,80.5v-1.9h7v1.9H2.8z"/>
		<path class="st0" d="M1.9,73.1v1.3L0,73.1V71L1.9,73.1z M6.3,77c-0.6,0-1.1-0.1-1.5-0.3c-0.5-0.2-0.8-0.4-1.2-0.7
			c-0.3-0.3-0.6-0.7-0.7-1.1s-0.3-0.9-0.3-1.5s0.1-1.1,0.3-1.5c0.2-0.4,0.4-0.8,0.7-1.1c0.3-0.3,0.7-0.6,1.2-0.7
			c0.5-0.2,1-0.3,1.5-0.3c0.6,0,1.1,0.1,1.5,0.3c0.5,0.2,0.8,0.4,1.2,0.7c0.3,0.3,0.6,0.7,0.7,1.1c0.2,0.4,0.3,0.9,0.3,1.5
			s-0.1,1.1-0.3,1.5S9.3,75.7,9,76c-0.3,0.3-0.7,0.6-1.2,0.7C7.4,76.9,6.9,77,6.3,77z M6.3,75.1c0.3,0,0.6,0,0.8-0.1
			c0.3-0.1,0.5-0.1,0.7-0.3c0.2-0.1,0.4-0.3,0.5-0.5s0.2-0.5,0.2-0.8c0-0.3-0.1-0.6-0.2-0.8c-0.1-0.2-0.3-0.4-0.5-0.5
			c-0.2-0.1-0.5-0.2-0.7-0.3s-0.5-0.1-0.8-0.1c-0.3,0-0.6,0-0.8,0.1C5.2,71.8,5,71.9,4.8,72c-0.2,0.1-0.4,0.3-0.5,0.5
			c-0.1,0.2-0.2,0.5-0.2,0.8c0,0.3,0.1,0.6,0.2,0.8c0.1,0.2,0.3,0.4,0.5,0.5C5,74.9,5.2,74.9,5.5,75C5.8,75.1,6,75.1,6.3,75.1z"/>
		<path class="st0" d="M2.8,68.2v-1.8h1v0c-0.4-0.2-0.7-0.6-0.9-1c-0.2-0.4-0.3-0.8-0.3-1.2c0-0.5,0.1-0.9,0.2-1.3s0.3-0.6,0.6-0.8
			s0.6-0.3,0.9-0.4c0.4-0.1,0.8-0.1,1.2-0.1h4.3v1.9h-4c-0.6,0-1,0.1-1.3,0.3c-0.3,0.2-0.4,0.5-0.4,1c0,0.5,0.2,0.9,0.5,1.1
			c0.3,0.2,0.8,0.4,1.5,0.4h3.7v1.9H2.8z"/>
		<path class="st0" d="M2.8,55.8V54h1v0c-0.4-0.2-0.7-0.6-0.9-1c-0.2-0.4-0.3-0.8-0.3-1.2c0-0.5,0.1-0.9,0.2-1.3s0.3-0.6,0.6-0.8
			s0.6-0.3,0.9-0.4c0.4-0.1,0.8-0.1,1.2-0.1h4.3v1.9h-4c-0.6,0-1,0.1-1.3,0.3c-0.3,0.2-0.4,0.5-0.4,1c0,0.5,0.2,0.9,0.5,1.1
			c0.3,0.2,0.8,0.4,1.5,0.4h3.7v1.9H2.8z"/>
		<path class="st0" d="M6.8,45.9c0.6,0,1.1-0.2,1.4-0.5c0.3-0.3,0.4-0.7,0.4-1.3c0-0.4-0.1-0.7-0.3-1c-0.2-0.3-0.4-0.5-0.6-0.5v-1.7
			c0.8,0.3,1.4,0.7,1.8,1.3c0.4,0.6,0.6,1.2,0.6,2c0,0.6-0.1,1.1-0.3,1.5c-0.2,0.4-0.4,0.8-0.8,1.1c-0.3,0.3-0.7,0.5-1.2,0.7
			c-0.5,0.2-1,0.3-1.5,0.3c-0.5,0-1-0.1-1.5-0.3c-0.5-0.2-0.8-0.4-1.2-0.7c-0.3-0.3-0.6-0.7-0.8-1.1s-0.3-0.9-0.3-1.5
			c0-0.6,0.1-1.1,0.3-1.6s0.5-0.8,0.9-1.1c0.4-0.3,0.8-0.5,1.3-0.6c0.5-0.1,1-0.2,1.6-0.1V45.9z M5.6,42.7c-0.5,0.1-0.9,0.3-1.1,0.5
			c-0.3,0.2-0.4,0.6-0.4,1.1c0,0.3,0.1,0.6,0.2,0.8c0.1,0.2,0.2,0.4,0.4,0.5s0.3,0.2,0.5,0.3c0.2,0.1,0.3,0.1,0.5,0.1V42.7z"/>
		<path class="st0" d="M9.4,32.6c0.2,0,0.4,0,0.6,0s0.5,0.1,0.7,0.2c0.2,0.1,0.5,0.2,0.7,0.4c0.2,0.2,0.4,0.4,0.6,0.7s0.3,0.6,0.4,1
			c0.1,0.4,0.1,0.9,0.1,1.4c0,0.3,0,0.7-0.1,1.1c-0.1,0.4-0.2,0.7-0.4,1c-0.2,0.3-0.4,0.5-0.7,0.7c-0.3,0.2-0.6,0.3-1,0.3v-1.9
			c0.4-0.1,0.6-0.3,0.8-0.5s0.2-0.6,0.2-0.9c0-0.5-0.2-0.9-0.5-1.2c-0.3-0.3-0.7-0.4-1.3-0.4H8.5v0c0.4,0.2,0.6,0.5,0.8,0.9
			c0.2,0.4,0.3,0.8,0.3,1.2c0,0.5-0.1,1-0.3,1.4c-0.2,0.4-0.4,0.7-0.8,0.9c-0.3,0.2-0.7,0.4-1.1,0.5c-0.4,0.1-0.9,0.2-1.4,0.2
			c-0.5,0-0.9-0.1-1.3-0.2c-0.4-0.1-0.8-0.3-1.1-0.6c-0.3-0.3-0.6-0.6-0.8-0.9c-0.2-0.4-0.3-0.8-0.3-1.3c0-0.5,0.1-0.9,0.3-1.2
			C3,35,3.3,34.7,3.7,34.5v0H2.8v-1.8H9.4z M8.2,36.1c0-0.3-0.1-0.5-0.2-0.7c-0.1-0.2-0.3-0.4-0.4-0.5c-0.2-0.1-0.4-0.2-0.6-0.3
			c-0.2-0.1-0.5-0.1-0.7-0.1c-0.3,0-0.6,0-0.8,0.1c-0.3,0.1-0.5,0.1-0.7,0.3s-0.4,0.3-0.5,0.5c-0.1,0.2-0.2,0.5-0.2,0.8
			c0,0.3,0.1,0.5,0.2,0.7c0.1,0.2,0.3,0.4,0.4,0.5c0.2,0.1,0.4,0.2,0.6,0.3s0.5,0.1,0.8,0.1c0.3,0,0.5,0,0.8-0.1s0.5-0.1,0.7-0.3
			c0.2-0.1,0.4-0.3,0.5-0.5C8.1,36.7,8.2,36.4,8.2,36.1z"/>
		<path class="st0" d="M5,30.9c-0.5,0-0.8-0.1-1.1-0.3c-0.3-0.2-0.5-0.5-0.7-0.8c-0.2-0.3-0.3-0.7-0.4-1c-0.1-0.4-0.1-0.8-0.1-1.2
			c0-0.4,0-0.7,0.1-1.1c0-0.4,0.1-0.7,0.3-1c0.1-0.3,0.3-0.5,0.6-0.7s0.6-0.3,1-0.3h3.7c0.3,0,0.6,0,0.9-0.1c0.3,0,0.5-0.1,0.7-0.2
			v2c-0.1,0-0.2,0.1-0.3,0.1c-0.1,0-0.2,0-0.3,0c0.3,0.3,0.5,0.7,0.7,1.1c0.1,0.4,0.2,0.8,0.2,1.3c0,0.3,0,0.6-0.1,0.9
			c-0.1,0.3-0.2,0.5-0.4,0.8c-0.2,0.2-0.4,0.4-0.7,0.5c-0.3,0.1-0.6,0.2-0.9,0.2c-0.4,0-0.7-0.1-1-0.2c-0.3-0.1-0.5-0.3-0.6-0.5
			C6.2,30.1,6,29.9,6,29.6c-0.1-0.3-0.1-0.6-0.2-0.9c0-0.3-0.1-0.6-0.1-0.9s-0.1-0.5-0.1-0.7c-0.1-0.2-0.1-0.4-0.2-0.5
			s-0.3-0.2-0.5-0.2c-0.2,0-0.4,0-0.5,0.1s-0.2,0.2-0.3,0.3C4,26.9,4,27.1,3.9,27.2c0,0.1,0,0.3,0,0.5c0,0.4,0.1,0.7,0.2,0.9
			C4.3,28.8,4.6,28.9,5,29V30.9z M6.4,26.4c0.1,0.1,0.1,0.2,0.2,0.3c0,0.1,0.1,0.3,0.1,0.4s0,0.3,0.1,0.4c0,0.2,0,0.3,0.1,0.5
			c0,0.2,0.1,0.3,0.1,0.4c0,0.1,0.1,0.3,0.2,0.4c0.1,0.1,0.2,0.2,0.3,0.3s0.3,0.1,0.4,0.1c0.2,0,0.3,0,0.4-0.1s0.2-0.1,0.3-0.3
			c0.1-0.1,0.1-0.2,0.1-0.4s0-0.3,0-0.4c0-0.4-0.1-0.7-0.2-0.9s-0.3-0.4-0.5-0.5c-0.2-0.1-0.4-0.2-0.5-0.2c-0.2,0-0.3,0-0.4,0H6.4z"
			/>
		<path class="st0" d="M2.8,20.3v-1.4h1.3v1.4h3.5c0.3,0,0.5-0.1,0.7-0.2c0.1-0.1,0.2-0.3,0.2-0.7c0-0.2,0-0.4-0.1-0.6h1.5
			c0,0.2,0,0.3,0.1,0.5c0,0.2,0,0.4,0,0.6c0,0.3,0,0.6-0.1,0.9s-0.1,0.5-0.2,0.7c-0.1,0.2-0.3,0.4-0.5,0.5c-0.2,0.1-0.5,0.2-0.9,0.2
			H4.1v1.2H2.8v-1.2H0.7v-1.9H2.8z"/>
		<path class="st0" d="M1.7,15.7v1.9H0.1v-1.9H1.7z M2.8,17.6v-1.9h7v1.9H2.8z"/>
		<path class="st0" d="M9.8,10v2.1l-7,2.4v-2l4.8-1.5v0L2.8,9.5V7.6L9.8,10z"/>
		<path class="st0" d="M5,6.6c-0.5,0-0.8-0.1-1.1-0.3C3.5,6.1,3.3,5.8,3.1,5.5c-0.2-0.3-0.3-0.7-0.4-1C2.7,4.1,2.6,3.7,2.6,3.3
			c0-0.4,0-0.7,0.1-1.1c0-0.4,0.1-0.7,0.3-1C3.1,1,3.3,0.7,3.6,0.5s0.6-0.3,1-0.3h3.7c0.3,0,0.6,0,0.9-0.1c0.3,0,0.5-0.1,0.7-0.2v2
			C9.7,2,9.6,2,9.5,2c-0.1,0-0.2,0-0.3,0c0.3,0.3,0.5,0.7,0.7,1.1C10,3.6,10,4,10,4.5c0,0.3,0,0.6-0.1,0.9C9.8,5.7,9.7,5.9,9.5,6.2
			C9.3,6.4,9.1,6.5,8.9,6.7C8.6,6.8,8.3,6.9,7.9,6.9c-0.4,0-0.7-0.1-1-0.2C6.7,6.5,6.5,6.3,6.3,6.1C6.2,5.9,6,5.6,6,5.3
			C5.9,5.1,5.8,4.8,5.8,4.5c0-0.3-0.1-0.6-0.1-0.9S5.6,3.1,5.5,2.9C5.5,2.7,5.4,2.5,5.3,2.4S5.1,2.2,4.9,2.2c-0.2,0-0.4,0-0.5,0.1
			S4.1,2.4,4.1,2.6C4,2.7,4,2.8,3.9,2.9c0,0.1,0,0.3,0,0.5c0,0.4,0.1,0.7,0.2,0.9C4.3,4.5,4.6,4.7,5,4.7V6.6z M6.4,2.2
			c0.1,0.1,0.1,0.2,0.2,0.3c0,0.1,0.1,0.3,0.1,0.4s0,0.3,0.1,0.4c0,0.2,0,0.3,0.1,0.5c0,0.2,0.1,0.3,0.1,0.4C7,4.4,7,4.5,7.1,4.6
			c0.1,0.1,0.2,0.2,0.3,0.3s0.3,0.1,0.4,0.1c0.2,0,0.3,0,0.4-0.1s0.2-0.1,0.3-0.3c0.1-0.1,0.1-0.2,0.1-0.4s0-0.3,0-0.4
			c0-0.4-0.1-0.7-0.2-0.9S8.3,2.5,8.1,2.4C7.9,2.3,7.7,2.2,7.5,2.2c-0.2,0-0.3,0-0.4,0H6.4z"/>
	</g>
</g>
</svg>
