<!-- Generator: Adobe Illustrator 20.1.0, SVG Export Plug-In  -->
<svg version="1.1"
	 xmlns="http://www.w3.org/2000/svg" xmlns:xlink="http://www.w3.org/1999/xlink" xmlns:a="http://ns.adobe.com/AdobeSVGViewerExtensions/3.0/"
	 x="0px" y="0px" width="701.2px" height="49.4px" viewBox="0 0 701.2 49.4"
	 style="overflow:scroll;enable-background:new 0 0 701.2 49.4;" xml:space="preserve">
<style type="text/css">
	.st0{fill:#58595B;}
</style>
<defs>
</defs>
<g>
	<path class="st0" d="M433.5,39.9c0-0.3-0.1-0.5-0.3-0.7c-0.1-0.2-0.3-0.4-0.5-0.6c-0.2-0.2-0.4-0.3-0.7-0.4
		c-0.3-0.1-0.5-0.1-0.8-0.1c-0.5,0-0.9,0.1-1.3,0.3c-0.4,0.2-0.6,0.5-0.9,0.8c-0.2,0.3-0.4,0.7-0.5,1.1c-0.1,0.4-0.2,0.9-0.2,1.3
		c0,0.4,0.1,0.9,0.2,1.3c0.1,0.4,0.3,0.8,0.5,1.1c0.2,0.3,0.5,0.6,0.9,0.8c0.4,0.2,0.8,0.3,1.3,0.3c0.7,0,1.2-0.2,1.6-0.6
		c0.4-0.4,0.6-1,0.7-1.7h2.2c-0.1,0.6-0.2,1.2-0.4,1.8c-0.2,0.5-0.6,1-1,1.3c-0.4,0.4-0.9,0.6-1.4,0.8c-0.5,0.2-1.1,0.3-1.8,0.3
		c-0.8,0-1.5-0.1-2.1-0.4c-0.6-0.3-1.2-0.7-1.6-1.1c-0.4-0.5-0.8-1.1-1-1.7c-0.2-0.7-0.3-1.4-0.3-2.1c0-0.8,0.1-1.5,0.3-2.1
		c0.2-0.7,0.6-1.2,1-1.7c0.4-0.5,1-0.9,1.6-1.2c0.6-0.3,1.3-0.4,2.1-0.4c0.6,0,1.1,0.1,1.6,0.2c0.5,0.2,1,0.4,1.4,0.7
		c0.4,0.3,0.7,0.7,1,1.2c0.3,0.5,0.4,1,0.5,1.6H433.5z"/>
	<path class="st0" d="M437.2,43.1c0-0.6,0.1-1.1,0.3-1.6c0.2-0.5,0.4-0.9,0.8-1.2c0.3-0.3,0.7-0.6,1.2-0.8c0.5-0.2,1-0.3,1.6-0.3
		c0.6,0,1.1,0.1,1.6,0.3c0.5,0.2,0.9,0.5,1.2,0.8c0.3,0.3,0.6,0.8,0.8,1.2c0.2,0.5,0.3,1,0.3,1.6s-0.1,1.1-0.3,1.6s-0.4,0.9-0.8,1.2
		s-0.7,0.6-1.2,0.8c-0.5,0.2-1,0.3-1.6,0.3c-0.6,0-1.1-0.1-1.6-0.3s-0.9-0.5-1.2-0.8s-0.6-0.8-0.8-1.2S437.2,43.7,437.2,43.1z
		 M439.3,43.1c0,0.3,0,0.6,0.1,0.9c0.1,0.3,0.2,0.5,0.3,0.8c0.1,0.2,0.3,0.4,0.6,0.5c0.2,0.1,0.5,0.2,0.9,0.2s0.6-0.1,0.9-0.2
		c0.2-0.1,0.4-0.3,0.6-0.5c0.1-0.2,0.2-0.5,0.3-0.8c0.1-0.3,0.1-0.6,0.1-0.9c0-0.3,0-0.6-0.1-0.9s-0.2-0.5-0.3-0.8
		c-0.1-0.2-0.3-0.4-0.6-0.5c-0.2-0.1-0.5-0.2-0.9-0.2s-0.6,0.1-0.9,0.2c-0.2,0.1-0.4,0.3-0.6,0.5c-0.1,0.2-0.2,0.5-0.3,0.8
		S439.3,42.8,439.3,43.1z"/>
	<path class="st0" d="M446.6,39.3h2v1h0c0.3-0.4,0.6-0.7,1-0.9c0.4-0.2,0.8-0.3,1.3-0.3c0.6,0,1,0.1,1.4,0.2s0.6,0.4,0.8,0.6
		c0.2,0.3,0.3,0.6,0.4,1c0.1,0.4,0.1,0.8,0.1,1.3v4.6h-2.1v-4.2c0-0.6-0.1-1.1-0.3-1.4c-0.2-0.3-0.5-0.5-1-0.5c-0.6,0-1,0.2-1.2,0.5
		c-0.3,0.3-0.4,0.9-0.4,1.6v3.9h-2.1V39.3z"/>
	<path class="st0" d="M457,44.4c0,0.2,0,0.4,0.1,0.6s0.2,0.3,0.4,0.4c0.1,0.1,0.3,0.2,0.5,0.2c0.2,0,0.4,0.1,0.6,0.1
		c0.1,0,0.3,0,0.5-0.1c0.2,0,0.3-0.1,0.4-0.2c0.1-0.1,0.2-0.2,0.3-0.3c0.1-0.1,0.1-0.3,0.1-0.5c0-0.2-0.1-0.3-0.2-0.4
		c-0.1-0.1-0.3-0.2-0.5-0.3s-0.4-0.2-0.7-0.2c-0.3-0.1-0.6-0.1-1-0.2c-0.3-0.1-0.6-0.1-0.9-0.2c-0.3-0.1-0.5-0.2-0.8-0.4
		c-0.2-0.1-0.4-0.3-0.5-0.6s-0.2-0.5-0.2-0.8c0-0.5,0.1-0.9,0.3-1.2s0.4-0.6,0.7-0.7c0.3-0.2,0.7-0.3,1-0.4c0.4-0.1,0.8-0.1,1.2-0.1
		c0.4,0,0.8,0,1.2,0.1c0.4,0.1,0.7,0.2,1,0.4c0.3,0.2,0.5,0.4,0.7,0.7c0.2,0.3,0.3,0.7,0.4,1.2h-2c0-0.4-0.2-0.7-0.4-0.8
		s-0.6-0.2-1-0.2c-0.1,0-0.2,0-0.4,0c-0.1,0-0.3,0-0.4,0.1c-0.1,0-0.2,0.1-0.3,0.2s-0.1,0.2-0.1,0.4c0,0.2,0.1,0.3,0.2,0.4
		c0.1,0.1,0.3,0.2,0.5,0.3c0.2,0.1,0.5,0.1,0.7,0.2c0.3,0.1,0.6,0.1,0.9,0.2c0.3,0.1,0.6,0.1,0.9,0.2c0.3,0.1,0.5,0.2,0.8,0.4
		s0.4,0.4,0.5,0.6s0.2,0.5,0.2,0.9c0,0.5-0.1,0.9-0.3,1.2s-0.5,0.6-0.8,0.8s-0.7,0.3-1.1,0.4S459,47,458.6,47c-0.4,0-0.9,0-1.3-0.1
		c-0.4-0.1-0.8-0.2-1.1-0.4c-0.3-0.2-0.6-0.5-0.8-0.8c-0.2-0.3-0.3-0.8-0.3-1.2H457z"/>
	<path class="st0" d="M465.2,43.6c0,0.7,0.2,1.1,0.5,1.4c0.3,0.3,0.8,0.5,1.3,0.5c0.4,0,0.8-0.1,1.1-0.3c0.3-0.2,0.5-0.4,0.5-0.7
		h1.8c-0.3,0.9-0.7,1.5-1.3,1.9S467.8,47,467,47c-0.6,0-1.1-0.1-1.6-0.3s-0.9-0.5-1.2-0.8c-0.3-0.3-0.6-0.8-0.8-1.2
		c-0.2-0.5-0.3-1-0.3-1.6c0-0.6,0.1-1.1,0.3-1.6s0.4-0.9,0.8-1.3s0.7-0.6,1.2-0.8c0.5-0.2,1-0.3,1.6-0.3c0.6,0,1.2,0.1,1.7,0.4
		c0.5,0.2,0.9,0.6,1.2,1c0.3,0.4,0.5,0.9,0.7,1.4c0.1,0.5,0.2,1.1,0.1,1.7H465.2z M468.6,42.2c-0.1-0.5-0.3-0.9-0.5-1.2
		s-0.6-0.4-1.1-0.4c-0.3,0-0.6,0.1-0.8,0.2s-0.4,0.2-0.5,0.4c-0.1,0.2-0.2,0.3-0.3,0.5c-0.1,0.2-0.1,0.3-0.1,0.5H468.6z"/>
	<path class="st0" d="M477.2,41.9c-0.1-0.9-0.6-1.3-1.5-1.3c-0.3,0-0.6,0.1-0.8,0.2c-0.2,0.1-0.4,0.3-0.5,0.6
		c-0.1,0.2-0.2,0.5-0.3,0.8c-0.1,0.3-0.1,0.6-0.1,0.8c0,0.3,0,0.5,0.1,0.8c0.1,0.3,0.2,0.5,0.3,0.8s0.3,0.4,0.5,0.6
		c0.2,0.1,0.5,0.2,0.8,0.2c0.5,0,0.9-0.1,1.1-0.4c0.3-0.3,0.4-0.6,0.5-1.1h2c-0.1,1-0.5,1.8-1.2,2.3s-1.5,0.8-2.4,0.8
		c-0.6,0-1.1-0.1-1.5-0.3s-0.9-0.5-1.2-0.8s-0.6-0.7-0.8-1.2c-0.2-0.5-0.3-1-0.3-1.5c0-0.6,0.1-1.1,0.3-1.6c0.2-0.5,0.4-0.9,0.7-1.3
		s0.7-0.6,1.2-0.8s1-0.3,1.6-0.3c0.4,0,0.9,0.1,1.3,0.2s0.8,0.3,1.1,0.5s0.6,0.5,0.8,0.9s0.3,0.8,0.4,1.2H477.2z"/>
	<path class="st0" d="M487.7,46.8h-2v-1h0c-0.3,0.4-0.6,0.7-1,0.9c-0.4,0.2-0.8,0.3-1.3,0.3c-0.6,0-1-0.1-1.4-0.2
		c-0.4-0.1-0.6-0.4-0.8-0.6c-0.2-0.3-0.3-0.6-0.4-1c-0.1-0.4-0.1-0.8-0.1-1.3v-4.6h2.1v4.2c0,0.6,0.1,1.1,0.3,1.4
		c0.2,0.3,0.5,0.5,1,0.5c0.6,0,1-0.2,1.2-0.5c0.3-0.3,0.4-0.9,0.4-1.6v-3.9h2.1V46.8z"/>
	<path class="st0" d="M491.3,43.6c0,0.7,0.2,1.1,0.5,1.4c0.3,0.3,0.8,0.5,1.3,0.5c0.4,0,0.8-0.1,1.1-0.3c0.3-0.2,0.5-0.4,0.6-0.7
		h1.8c-0.3,0.9-0.7,1.5-1.3,1.9c-0.6,0.4-1.3,0.6-2.2,0.6c-0.6,0-1.1-0.1-1.6-0.3s-0.9-0.5-1.2-0.8c-0.3-0.3-0.6-0.8-0.8-1.2
		c-0.2-0.5-0.3-1-0.3-1.6c0-0.6,0.1-1.1,0.3-1.6c0.2-0.5,0.4-0.9,0.8-1.3c0.3-0.4,0.7-0.6,1.2-0.8c0.5-0.2,1-0.3,1.6-0.3
		c0.6,0,1.2,0.1,1.7,0.4s0.9,0.6,1.2,1c0.3,0.4,0.5,0.9,0.7,1.4c0.1,0.5,0.2,1.1,0.1,1.7H491.3z M494.6,42.2
		c-0.1-0.5-0.3-0.9-0.5-1.2c-0.2-0.3-0.6-0.4-1.1-0.4c-0.3,0-0.6,0.1-0.8,0.2c-0.2,0.1-0.4,0.2-0.5,0.4c-0.1,0.2-0.2,0.3-0.3,0.5
		c-0.1,0.2-0.1,0.3-0.1,0.5H494.6z"/>
	<path class="st0" d="M498.2,39.3h2v1h0c0.3-0.4,0.6-0.7,1-0.9c0.4-0.2,0.8-0.3,1.3-0.3c0.6,0,1,0.1,1.4,0.2s0.6,0.4,0.8,0.6
		c0.2,0.3,0.3,0.6,0.4,1c0.1,0.4,0.1,0.8,0.1,1.3v4.6h-2.1v-4.2c0-0.6-0.1-1.1-0.3-1.4c-0.2-0.3-0.5-0.5-1-0.5c-0.6,0-1,0.2-1.2,0.5
		c-0.3,0.3-0.4,0.9-0.4,1.6v3.9h-2.1V39.3z"/>
	<path class="st0" d="M512.1,41.9c-0.1-0.9-0.6-1.3-1.5-1.3c-0.3,0-0.6,0.1-0.8,0.2c-0.2,0.1-0.4,0.3-0.5,0.6
		c-0.1,0.2-0.2,0.5-0.3,0.8c-0.1,0.3-0.1,0.6-0.1,0.8c0,0.3,0,0.5,0.1,0.8c0.1,0.3,0.2,0.5,0.3,0.8s0.3,0.4,0.5,0.6
		c0.2,0.1,0.5,0.2,0.8,0.2c0.5,0,0.9-0.1,1.1-0.4c0.3-0.3,0.4-0.6,0.5-1.1h2c-0.1,1-0.5,1.8-1.2,2.3s-1.5,0.8-2.4,0.8
		c-0.6,0-1.1-0.1-1.5-0.3s-0.9-0.5-1.2-0.8s-0.6-0.7-0.8-1.2c-0.2-0.5-0.3-1-0.3-1.5c0-0.6,0.1-1.1,0.3-1.6c0.2-0.5,0.4-0.9,0.7-1.3
		s0.7-0.6,1.2-0.8s1-0.3,1.6-0.3c0.4,0,0.9,0.1,1.3,0.2s0.8,0.3,1.1,0.5s0.6,0.5,0.8,0.9s0.3,0.8,0.4,1.2H512.1z"/>
	<path class="st0" d="M517.8,38.2h-2.1v-1.7h2.1V38.2z M515.7,39.3h2.1v7.5h-2.1V39.3z"/>
	<path class="st0" d="M519.6,41.6c0-0.5,0.2-0.9,0.4-1.2c0.2-0.3,0.5-0.6,0.8-0.8s0.7-0.3,1.1-0.4c0.4-0.1,0.8-0.1,1.2-0.1
		c0.4,0,0.8,0,1.1,0.1c0.4,0.1,0.7,0.2,1.1,0.3c0.3,0.2,0.6,0.4,0.8,0.7c0.2,0.3,0.3,0.6,0.3,1.1v3.9c0,0.3,0,0.7,0.1,1
		c0,0.3,0.1,0.5,0.2,0.7h-2.1c0-0.1-0.1-0.2-0.1-0.4c0-0.1,0-0.2-0.1-0.4c-0.3,0.3-0.7,0.6-1.2,0.7c-0.4,0.1-0.9,0.2-1.4,0.2
		c-0.4,0-0.7,0-1-0.1c-0.3-0.1-0.6-0.2-0.8-0.4c-0.2-0.2-0.4-0.4-0.5-0.7s-0.2-0.6-0.2-1c0-0.4,0.1-0.8,0.2-1s0.3-0.5,0.6-0.7
		c0.2-0.2,0.5-0.3,0.8-0.4c0.3-0.1,0.6-0.1,0.9-0.2c0.3,0,0.6-0.1,0.9-0.1s0.5-0.1,0.8-0.1c0.2-0.1,0.4-0.1,0.5-0.3s0.2-0.3,0.2-0.5
		c0-0.2,0-0.4-0.1-0.5s-0.2-0.2-0.3-0.3c-0.1-0.1-0.3-0.1-0.4-0.1c-0.2,0-0.3,0-0.5,0c-0.4,0-0.7,0.1-0.9,0.3
		c-0.2,0.2-0.4,0.5-0.4,0.9H519.6z M524.3,43.1c-0.1,0.1-0.2,0.1-0.3,0.2s-0.3,0.1-0.4,0.1c-0.1,0-0.3,0.1-0.5,0.1
		c-0.2,0-0.3,0-0.5,0.1c-0.2,0-0.3,0.1-0.5,0.1c-0.1,0-0.3,0.1-0.4,0.2s-0.2,0.2-0.3,0.3c-0.1,0.1-0.1,0.3-0.1,0.5
		c0,0.2,0,0.3,0.1,0.5c0.1,0.1,0.2,0.2,0.3,0.3c0.1,0.1,0.3,0.1,0.4,0.2c0.2,0,0.3,0,0.5,0c0.4,0,0.7-0.1,0.9-0.2
		c0.2-0.1,0.4-0.3,0.5-0.5c0.1-0.2,0.2-0.4,0.2-0.6c0-0.2,0-0.3,0-0.5V43.1z"/>
	<path class="st0" d="M529.9,44.4c0,0.2,0,0.4,0.1,0.6s0.2,0.3,0.4,0.4c0.1,0.1,0.3,0.2,0.5,0.2s0.4,0.1,0.6,0.1
		c0.1,0,0.3,0,0.5-0.1c0.2,0,0.3-0.1,0.4-0.2c0.1-0.1,0.2-0.2,0.3-0.3c0.1-0.1,0.1-0.3,0.1-0.5c0-0.2-0.1-0.3-0.2-0.4
		c-0.1-0.1-0.3-0.2-0.5-0.3c-0.2-0.1-0.4-0.2-0.7-0.2s-0.6-0.1-1-0.2c-0.3-0.1-0.6-0.1-0.9-0.2s-0.5-0.2-0.8-0.4s-0.4-0.3-0.5-0.6
		s-0.2-0.5-0.2-0.8c0-0.5,0.1-0.9,0.3-1.2c0.2-0.3,0.4-0.6,0.7-0.7c0.3-0.2,0.7-0.3,1-0.4c0.4-0.1,0.8-0.1,1.2-0.1
		c0.4,0,0.8,0,1.2,0.1c0.4,0.1,0.7,0.2,1,0.4c0.3,0.2,0.5,0.4,0.7,0.7c0.2,0.3,0.3,0.7,0.4,1.2h-2c0-0.4-0.2-0.7-0.4-0.8
		c-0.3-0.1-0.6-0.2-1-0.2c-0.1,0-0.2,0-0.4,0c-0.1,0-0.3,0-0.4,0.1s-0.2,0.1-0.3,0.2c-0.1,0.1-0.1,0.2-0.1,0.4
		c0,0.2,0.1,0.3,0.2,0.4c0.1,0.1,0.3,0.2,0.5,0.3c0.2,0.1,0.5,0.1,0.7,0.2c0.3,0.1,0.6,0.1,0.9,0.2c0.3,0.1,0.6,0.1,0.9,0.2
		c0.3,0.1,0.5,0.2,0.8,0.4c0.2,0.2,0.4,0.4,0.5,0.6s0.2,0.5,0.2,0.9c0,0.5-0.1,0.9-0.3,1.2c-0.2,0.3-0.5,0.6-0.8,0.8
		s-0.7,0.3-1.1,0.4s-0.8,0.1-1.3,0.1c-0.4,0-0.9,0-1.3-0.1c-0.4-0.1-0.8-0.2-1.1-0.4c-0.3-0.2-0.6-0.5-0.8-0.8
		c-0.2-0.3-0.3-0.8-0.3-1.2H529.9z"/>
	<path class="st0" d="M540.6,39.3h2v1h0c0.3-0.4,0.6-0.7,1-0.9c0.4-0.2,0.8-0.3,1.3-0.3c0.6,0,1.1,0.1,1.5,0.3
		c0.4,0.2,0.8,0.5,1.1,0.9s0.5,0.8,0.6,1.3c0.1,0.5,0.2,1,0.2,1.5c0,0.5-0.1,1-0.2,1.4c-0.1,0.5-0.3,0.9-0.6,1.2
		c-0.3,0.4-0.6,0.6-1,0.9S545.5,47,545,47c-0.5,0-0.9-0.1-1.3-0.3c-0.4-0.2-0.7-0.5-1-0.8h0v3.6h-2.1V39.3z M544.4,45.4
		c0.3,0,0.6-0.1,0.8-0.2c0.2-0.1,0.4-0.3,0.6-0.5c0.1-0.2,0.2-0.5,0.3-0.8c0.1-0.3,0.1-0.6,0.1-0.9c0-0.3,0-0.6-0.1-0.9
		c-0.1-0.3-0.2-0.5-0.3-0.8s-0.3-0.4-0.6-0.6c-0.2-0.1-0.5-0.2-0.8-0.2c-0.3,0-0.6,0.1-0.8,0.2c-0.2,0.1-0.4,0.3-0.6,0.5
		c-0.1,0.2-0.2,0.5-0.3,0.8c-0.1,0.3-0.1,0.6-0.1,0.9c0,0.3,0,0.6,0.1,0.9c0.1,0.3,0.2,0.5,0.3,0.8c0.1,0.2,0.3,0.4,0.5,0.5
		C543.8,45.4,544.1,45.4,544.4,45.4z"/>
	<path class="st0" d="M549.5,43.1c0-0.6,0.1-1.1,0.3-1.6c0.2-0.5,0.4-0.9,0.8-1.2c0.3-0.3,0.7-0.6,1.2-0.8c0.5-0.2,1-0.3,1.6-0.3
		c0.6,0,1.1,0.1,1.6,0.3c0.5,0.2,0.9,0.5,1.2,0.8c0.3,0.3,0.6,0.8,0.8,1.2c0.2,0.5,0.3,1,0.3,1.6s-0.1,1.1-0.3,1.6s-0.4,0.9-0.8,1.2
		s-0.7,0.6-1.2,0.8c-0.5,0.2-1,0.3-1.6,0.3c-0.6,0-1.1-0.1-1.6-0.3s-0.9-0.5-1.2-0.8s-0.6-0.8-0.8-1.2
		C549.6,44.2,549.5,43.7,549.5,43.1z M551.6,43.1c0,0.3,0,0.6,0.1,0.9c0.1,0.3,0.2,0.5,0.3,0.8c0.1,0.2,0.3,0.4,0.6,0.5
		c0.2,0.1,0.5,0.2,0.9,0.2s0.6-0.1,0.9-0.2c0.2-0.1,0.4-0.3,0.6-0.5c0.1-0.2,0.2-0.5,0.3-0.8c0.1-0.3,0.1-0.6,0.1-0.9
		c0-0.3,0-0.6-0.1-0.9c-0.1-0.3-0.2-0.5-0.3-0.8c-0.1-0.2-0.3-0.4-0.6-0.5c-0.2-0.1-0.5-0.2-0.9-0.2s-0.6,0.1-0.9,0.2
		c-0.2,0.1-0.4,0.3-0.6,0.5c-0.1,0.2-0.2,0.5-0.3,0.8C551.6,42.5,551.6,42.8,551.6,43.1z"/>
	<path class="st0" d="M561.5,39.3h1.5v1.4h-1.5v3.7c0,0.3,0.1,0.6,0.2,0.7c0.1,0.1,0.3,0.2,0.7,0.2c0.2,0,0.4,0,0.6-0.1v1.6
		c-0.2,0-0.4,0-0.6,0.1s-0.4,0-0.6,0c-0.3,0-0.6,0-0.9-0.1c-0.3,0-0.5-0.1-0.8-0.3s-0.4-0.3-0.5-0.5c-0.1-0.2-0.2-0.5-0.2-0.9v-4.4
		h-1.2v-1.4h1.2v-2.2h2.1V39.3z"/>
	<path class="st0" d="M566,43.6c0,0.7,0.2,1.1,0.5,1.4c0.3,0.3,0.8,0.5,1.3,0.5c0.4,0,0.8-0.1,1.1-0.3c0.3-0.2,0.5-0.4,0.5-0.7h1.8
		c-0.3,0.9-0.7,1.5-1.3,1.9s-1.3,0.6-2.2,0.6c-0.6,0-1.1-0.1-1.6-0.3s-0.9-0.5-1.2-0.8c-0.3-0.3-0.6-0.8-0.8-1.2
		c-0.2-0.5-0.3-1-0.3-1.6c0-0.6,0.1-1.1,0.3-1.6s0.4-0.9,0.8-1.3s0.7-0.6,1.2-0.8c0.5-0.2,1-0.3,1.6-0.3c0.6,0,1.2,0.1,1.7,0.4
		c0.5,0.2,0.9,0.6,1.2,1c0.3,0.4,0.5,0.9,0.7,1.4c0.1,0.5,0.2,1.1,0.1,1.7H566z M569.3,42.2c-0.1-0.5-0.3-0.9-0.5-1.2
		s-0.6-0.4-1.1-0.4c-0.3,0-0.6,0.1-0.8,0.2s-0.4,0.2-0.5,0.4c-0.1,0.2-0.2,0.3-0.3,0.5c-0.1,0.2-0.1,0.3-0.1,0.5H569.3z"/>
	<path class="st0" d="M572.9,39.3h2v1h0c0.3-0.4,0.6-0.7,1-0.9c0.4-0.2,0.8-0.3,1.3-0.3c0.5,0,1,0.1,1.4,0.2
		c0.4,0.1,0.6,0.4,0.8,0.6c0.2,0.3,0.3,0.6,0.4,1c0.1,0.4,0.1,0.8,0.1,1.3v4.6h-2.1v-4.2c0-0.6-0.1-1.1-0.3-1.4
		c-0.2-0.3-0.5-0.5-1-0.5c-0.6,0-1,0.2-1.2,0.5c-0.3,0.3-0.4,0.9-0.4,1.6v3.9h-2.1V39.3z"/>
	<path class="st0" d="M586.8,41.9c-0.1-0.9-0.6-1.3-1.5-1.3c-0.3,0-0.6,0.1-0.8,0.2c-0.2,0.1-0.4,0.3-0.5,0.6
		c-0.1,0.2-0.2,0.5-0.3,0.8s-0.1,0.6-0.1,0.8c0,0.3,0,0.5,0.1,0.8s0.2,0.5,0.3,0.8c0.1,0.2,0.3,0.4,0.5,0.6c0.2,0.1,0.5,0.2,0.8,0.2
		c0.5,0,0.9-0.1,1.1-0.4s0.4-0.6,0.5-1.1h2c-0.1,1-0.5,1.8-1.2,2.3s-1.5,0.8-2.4,0.8c-0.6,0-1.1-0.1-1.5-0.3
		c-0.5-0.2-0.9-0.5-1.2-0.8s-0.6-0.7-0.8-1.2c-0.2-0.5-0.3-1-0.3-1.5c0-0.6,0.1-1.1,0.3-1.6c0.2-0.5,0.4-0.9,0.7-1.3
		c0.3-0.4,0.7-0.6,1.2-0.8s1-0.3,1.6-0.3c0.4,0,0.9,0.1,1.3,0.2s0.8,0.3,1.1,0.5s0.6,0.5,0.8,0.9c0.2,0.4,0.3,0.8,0.4,1.2H586.8z"/>
	<path class="st0" d="M592.5,38.2h-2.1v-1.7h2.1V38.2z M590.4,39.3h2.1v7.5h-2.1V39.3z"/>
	<path class="st0" d="M594.3,41.6c0-0.5,0.1-0.9,0.4-1.2s0.5-0.6,0.8-0.8s0.7-0.3,1.1-0.4c0.4-0.1,0.8-0.1,1.2-0.1
		c0.4,0,0.8,0,1.1,0.1c0.4,0.1,0.7,0.2,1.1,0.3c0.3,0.2,0.6,0.4,0.8,0.7c0.2,0.3,0.3,0.6,0.3,1.1v3.9c0,0.3,0,0.7,0.1,1
		c0,0.3,0.1,0.5,0.2,0.7h-2.1c0-0.1-0.1-0.2-0.1-0.4c0-0.1,0-0.2-0.1-0.4c-0.3,0.3-0.7,0.6-1.2,0.7s-0.9,0.2-1.4,0.2
		c-0.4,0-0.7,0-1-0.1c-0.3-0.1-0.6-0.2-0.8-0.4c-0.2-0.2-0.4-0.4-0.5-0.7c-0.1-0.3-0.2-0.6-0.2-1c0-0.4,0.1-0.8,0.2-1
		c0.1-0.3,0.3-0.5,0.6-0.7c0.2-0.2,0.5-0.3,0.8-0.4c0.3-0.1,0.6-0.1,0.9-0.2c0.3,0,0.6-0.1,0.9-0.1c0.3,0,0.5-0.1,0.8-0.1
		c0.2-0.1,0.4-0.1,0.5-0.3c0.1-0.1,0.2-0.3,0.2-0.5c0-0.2,0-0.4-0.1-0.5s-0.2-0.2-0.3-0.3c-0.1-0.1-0.3-0.1-0.4-0.1
		c-0.2,0-0.3,0-0.5,0c-0.4,0-0.7,0.1-0.9,0.3c-0.2,0.2-0.4,0.5-0.4,0.9H594.3z M599,43.1c-0.1,0.1-0.2,0.1-0.3,0.2
		c-0.1,0-0.3,0.1-0.4,0.1c-0.2,0-0.3,0.1-0.5,0.1c-0.2,0-0.3,0-0.5,0.1c-0.2,0-0.3,0.1-0.5,0.1c-0.1,0-0.3,0.1-0.4,0.2
		c-0.1,0.1-0.2,0.2-0.3,0.3c-0.1,0.1-0.1,0.3-0.1,0.5c0,0.2,0,0.3,0.1,0.5c0.1,0.1,0.2,0.2,0.3,0.3c0.1,0.1,0.3,0.1,0.4,0.2
		c0.2,0,0.3,0,0.5,0c0.4,0,0.7-0.1,0.9-0.2c0.2-0.1,0.4-0.3,0.5-0.5c0.1-0.2,0.2-0.4,0.2-0.6c0-0.2,0-0.3,0-0.5V43.1z"/>
	<path class="st0" d="M603,36.5h2.1v10.3H603V36.5z"/>
	<path class="st0" d="M608.7,43.6c0,0.7,0.2,1.1,0.5,1.4c0.3,0.3,0.8,0.5,1.3,0.5c0.4,0,0.8-0.1,1.1-0.3c0.3-0.2,0.5-0.4,0.5-0.7
		h1.8c-0.3,0.9-0.7,1.5-1.3,1.9s-1.3,0.6-2.2,0.6c-0.6,0-1.1-0.1-1.6-0.3s-0.9-0.5-1.2-0.8c-0.3-0.3-0.6-0.8-0.8-1.2
		c-0.2-0.5-0.3-1-0.3-1.6c0-0.6,0.1-1.1,0.3-1.6s0.4-0.9,0.8-1.3s0.7-0.6,1.2-0.8c0.5-0.2,1-0.3,1.6-0.3c0.6,0,1.2,0.1,1.7,0.4
		c0.5,0.2,0.9,0.6,1.2,1c0.3,0.4,0.5,0.9,0.7,1.4c0.1,0.5,0.2,1.1,0.1,1.7H608.7z M612,42.2c-0.1-0.5-0.3-0.9-0.5-1.2
		s-0.6-0.4-1.1-0.4c-0.3,0-0.6,0.1-0.8,0.2s-0.4,0.2-0.5,0.4c-0.1,0.2-0.2,0.3-0.3,0.5c-0.1,0.2-0.1,0.3-0.1,0.5H612z"/>
	<path class="st0" d="M617.2,44.4c0,0.2,0,0.4,0.1,0.6s0.2,0.3,0.4,0.4c0.1,0.1,0.3,0.2,0.5,0.2c0.2,0,0.4,0.1,0.6,0.1
		c0.1,0,0.3,0,0.5-0.1c0.2,0,0.3-0.1,0.4-0.2c0.1-0.1,0.2-0.2,0.3-0.3c0.1-0.1,0.1-0.3,0.1-0.5c0-0.2-0.1-0.3-0.2-0.4
		c-0.1-0.1-0.3-0.2-0.5-0.3s-0.4-0.2-0.7-0.2c-0.3-0.1-0.6-0.1-1-0.2c-0.3-0.1-0.6-0.1-0.9-0.2c-0.3-0.1-0.5-0.2-0.8-0.4
		c-0.2-0.1-0.4-0.3-0.5-0.6s-0.2-0.5-0.2-0.8c0-0.5,0.1-0.9,0.3-1.2s0.4-0.6,0.7-0.7c0.3-0.2,0.7-0.3,1-0.4c0.4-0.1,0.8-0.1,1.2-0.1
		c0.4,0,0.8,0,1.2,0.1c0.4,0.1,0.7,0.2,1,0.4c0.3,0.2,0.5,0.4,0.7,0.7c0.2,0.3,0.3,0.7,0.4,1.2h-2c0-0.4-0.2-0.7-0.4-0.8
		s-0.6-0.2-1-0.2c-0.1,0-0.2,0-0.4,0c-0.1,0-0.3,0-0.4,0.1c-0.1,0-0.2,0.1-0.3,0.2s-0.1,0.2-0.1,0.4c0,0.2,0.1,0.3,0.2,0.4
		c0.1,0.1,0.3,0.2,0.5,0.3c0.2,0.1,0.5,0.1,0.7,0.2c0.3,0.1,0.6,0.1,0.9,0.2c0.3,0.1,0.6,0.1,0.9,0.2c0.3,0.1,0.5,0.2,0.8,0.4
		s0.4,0.4,0.5,0.6s0.2,0.5,0.2,0.9c0,0.5-0.1,0.9-0.3,1.2s-0.5,0.6-0.8,0.8s-0.7,0.3-1.1,0.4s-0.8,0.1-1.3,0.1c-0.4,0-0.9,0-1.3-0.1
		c-0.4-0.1-0.8-0.2-1.1-0.4c-0.3-0.2-0.6-0.5-0.8-0.8c-0.2-0.3-0.3-0.8-0.3-1.2H617.2z"/>
	<path class="st0" d="M633.3,45.8L633.3,45.8c-0.3,0.4-0.6,0.7-1,0.9c-0.4,0.2-0.8,0.3-1.3,0.3c-0.6,0-1.1-0.1-1.5-0.3
		c-0.4-0.2-0.8-0.5-1-0.9c-0.3-0.4-0.5-0.8-0.6-1.3c-0.1-0.5-0.2-1-0.2-1.5c0-0.5,0.1-1,0.2-1.5c0.1-0.5,0.3-0.9,0.6-1.2
		s0.6-0.6,1-0.9c0.4-0.2,0.9-0.3,1.4-0.3c0.4,0,0.9,0.1,1.3,0.3c0.4,0.2,0.7,0.5,0.9,0.8h0v-3.8h2.1v10.3h-2V45.8z M633.3,43
		c0-0.3,0-0.6-0.1-0.9c-0.1-0.3-0.2-0.5-0.3-0.8c-0.1-0.2-0.3-0.4-0.6-0.5s-0.5-0.2-0.8-0.2c-0.3,0-0.6,0.1-0.9,0.2
		c-0.2,0.1-0.4,0.3-0.6,0.5c-0.1,0.2-0.2,0.5-0.3,0.8c-0.1,0.3-0.1,0.6-0.1,0.9c0,0.3,0,0.6,0.1,0.9c0.1,0.3,0.2,0.5,0.3,0.8
		c0.1,0.2,0.3,0.4,0.6,0.6s0.5,0.2,0.8,0.2c0.3,0,0.6-0.1,0.8-0.2c0.2-0.1,0.4-0.3,0.5-0.5c0.1-0.2,0.2-0.5,0.3-0.8
		C633.2,43.6,633.3,43.3,633.3,43z"/>
	<path class="st0" d="M638.8,43.6c0,0.7,0.2,1.1,0.5,1.4c0.3,0.3,0.8,0.5,1.3,0.5c0.4,0,0.8-0.1,1.1-0.3c0.3-0.2,0.5-0.4,0.6-0.7
		h1.8c-0.3,0.9-0.7,1.5-1.3,1.9c-0.6,0.4-1.3,0.6-2.2,0.6c-0.6,0-1.1-0.1-1.6-0.3s-0.9-0.5-1.2-0.8c-0.3-0.3-0.6-0.8-0.8-1.2
		c-0.2-0.5-0.3-1-0.3-1.6c0-0.6,0.1-1.1,0.3-1.6c0.2-0.5,0.4-0.9,0.8-1.3c0.3-0.4,0.7-0.6,1.2-0.8c0.5-0.2,1-0.3,1.6-0.3
		c0.6,0,1.2,0.1,1.7,0.4s0.9,0.6,1.2,1c0.3,0.4,0.5,0.9,0.7,1.4c0.1,0.5,0.2,1.1,0.1,1.7H638.8z M642.1,42.2
		c-0.1-0.5-0.3-0.9-0.5-1.2c-0.2-0.3-0.6-0.4-1.1-0.4c-0.3,0-0.6,0.1-0.8,0.2c-0.2,0.1-0.4,0.2-0.5,0.4c-0.1,0.2-0.2,0.3-0.3,0.5
		c-0.1,0.2-0.1,0.3-0.1,0.5H642.1z"/>
	<path class="st0" d="M645.7,36.5h2.1v10.3h-2.1V36.5z"/>
	<path class="st0" d="M655.7,43.6c0,0.7,0.2,1.1,0.5,1.4c0.3,0.3,0.8,0.5,1.3,0.5c0.4,0,0.8-0.1,1.1-0.3c0.3-0.2,0.5-0.4,0.6-0.7
		h1.8c-0.3,0.9-0.7,1.5-1.3,1.9c-0.6,0.4-1.3,0.6-2.2,0.6c-0.6,0-1.1-0.1-1.6-0.3s-0.9-0.5-1.2-0.8c-0.3-0.3-0.6-0.8-0.8-1.2
		c-0.2-0.5-0.3-1-0.3-1.6c0-0.6,0.1-1.1,0.3-1.6c0.2-0.5,0.4-0.9,0.8-1.3c0.3-0.4,0.7-0.6,1.2-0.8c0.5-0.2,1-0.3,1.6-0.3
		c0.6,0,1.2,0.1,1.7,0.4s0.9,0.6,1.2,1c0.3,0.4,0.5,0.9,0.7,1.4c0.1,0.5,0.2,1.1,0.1,1.7H655.7z M659.1,42.2
		c-0.1-0.5-0.3-0.9-0.5-1.2c-0.2-0.3-0.6-0.4-1.1-0.4c-0.3,0-0.6,0.1-0.8,0.2c-0.2,0.1-0.4,0.2-0.5,0.4c-0.1,0.2-0.2,0.3-0.3,0.5
		c-0.1,0.2-0.1,0.3-0.1,0.5H659.1z"/>
	<path class="st0" d="M664.2,44.4c0,0.2,0,0.4,0.1,0.6s0.2,0.3,0.4,0.4c0.1,0.1,0.3,0.2,0.5,0.2c0.2,0,0.4,0.1,0.6,0.1
		c0.1,0,0.3,0,0.5-0.1c0.2,0,0.3-0.1,0.4-0.2c0.1-0.1,0.2-0.2,0.3-0.3c0.1-0.1,0.1-0.3,0.1-0.5c0-0.2-0.1-0.3-0.2-0.4
		c-0.1-0.1-0.3-0.2-0.5-0.3s-0.4-0.2-0.7-0.2c-0.3-0.1-0.6-0.1-1-0.2c-0.3-0.1-0.6-0.1-0.9-0.2c-0.3-0.1-0.5-0.2-0.8-0.4
		c-0.2-0.1-0.4-0.3-0.5-0.6s-0.2-0.5-0.2-0.8c0-0.5,0.1-0.9,0.3-1.2s0.4-0.6,0.7-0.7c0.3-0.2,0.7-0.3,1-0.4c0.4-0.1,0.8-0.1,1.2-0.1
		c0.4,0,0.8,0,1.2,0.1c0.4,0.1,0.7,0.2,1,0.4c0.3,0.2,0.5,0.4,0.7,0.7c0.2,0.3,0.3,0.7,0.4,1.2h-2c0-0.4-0.2-0.7-0.4-0.8
		s-0.6-0.2-1-0.2c-0.1,0-0.2,0-0.4,0c-0.1,0-0.3,0-0.4,0.1c-0.1,0-0.2,0.1-0.3,0.2s-0.1,0.2-0.1,0.4c0,0.2,0.1,0.3,0.2,0.4
		c0.1,0.1,0.3,0.2,0.5,0.3c0.2,0.1,0.5,0.1,0.7,0.2c0.3,0.1,0.6,0.1,0.9,0.2c0.3,0.1,0.6,0.1,0.9,0.2c0.3,0.1,0.5,0.2,0.8,0.4
		s0.4,0.4,0.5,0.6s0.2,0.5,0.2,0.9c0,0.5-0.1,0.9-0.3,1.2s-0.5,0.6-0.8,0.8s-0.7,0.3-1.1,0.4s-0.8,0.1-1.3,0.1c-0.4,0-0.9,0-1.3-0.1
		c-0.4-0.1-0.8-0.2-1.1-0.4c-0.3-0.2-0.6-0.5-0.8-0.8c-0.2-0.3-0.3-0.8-0.3-1.2H664.2z"/>
	<path class="st0" d="M673.3,39.3h1.5v1.4h-1.5v3.7c0,0.3,0.1,0.6,0.2,0.7c0.1,0.1,0.3,0.2,0.7,0.2c0.2,0,0.4,0,0.6-0.1v1.6
		c-0.2,0-0.4,0-0.6,0.1c-0.2,0-0.4,0-0.6,0c-0.3,0-0.6,0-0.9-0.1c-0.3,0-0.5-0.1-0.8-0.3c-0.2-0.1-0.4-0.3-0.5-0.5
		c-0.1-0.2-0.2-0.5-0.2-0.9v-4.4H670v-1.4h1.2v-2.2h2.1V39.3z"/>
	<path class="st0" d="M676.1,39.3h2v1.4h0c0.1-0.2,0.2-0.4,0.4-0.6s0.4-0.4,0.6-0.5c0.2-0.1,0.4-0.2,0.7-0.3
		c0.2-0.1,0.5-0.1,0.7-0.1c0.2,0,0.3,0,0.4,0.1v1.9c-0.1,0-0.2,0-0.3-0.1c-0.1,0-0.3,0-0.4,0c-0.4,0-0.7,0.1-1,0.2s-0.5,0.3-0.6,0.5
		c-0.2,0.2-0.3,0.5-0.3,0.8c-0.1,0.3-0.1,0.6-0.1,0.9v3.4h-2.1V39.3z"/>
	<path class="st0" d="M683.7,43.6c0,0.7,0.2,1.1,0.5,1.4c0.3,0.3,0.8,0.5,1.3,0.5c0.4,0,0.8-0.1,1.1-0.3c0.3-0.2,0.5-0.4,0.5-0.7
		h1.8c-0.3,0.9-0.7,1.5-1.3,1.9s-1.3,0.6-2.2,0.6c-0.6,0-1.1-0.1-1.6-0.3s-0.9-0.5-1.2-0.8c-0.3-0.3-0.6-0.8-0.8-1.2
		c-0.2-0.5-0.3-1-0.3-1.6c0-0.6,0.1-1.1,0.3-1.6s0.4-0.9,0.8-1.3s0.7-0.6,1.2-0.8c0.5-0.2,1-0.3,1.6-0.3c0.6,0,1.2,0.1,1.7,0.4
		c0.5,0.2,0.9,0.6,1.2,1c0.3,0.4,0.5,0.9,0.7,1.4c0.1,0.5,0.2,1.1,0.1,1.7H683.7z M687,42.2c-0.1-0.5-0.3-0.9-0.5-1.2
		s-0.6-0.4-1.1-0.4c-0.3,0-0.6,0.1-0.8,0.2s-0.4,0.2-0.5,0.4c-0.1,0.2-0.2,0.3-0.3,0.5c-0.1,0.2-0.1,0.3-0.1,0.5H687z M685.7,38.4
		h-1.4l1.4-2.1h2.3L685.7,38.4z"/>
	<path class="st0" d="M692.2,44.4c0,0.2,0,0.4,0.1,0.6s0.2,0.3,0.4,0.4c0.1,0.1,0.3,0.2,0.5,0.2s0.4,0.1,0.6,0.1
		c0.1,0,0.3,0,0.5-0.1c0.2,0,0.3-0.1,0.4-0.2c0.1-0.1,0.2-0.2,0.3-0.3c0.1-0.1,0.1-0.3,0.1-0.5c0-0.2-0.1-0.3-0.2-0.4
		c-0.1-0.1-0.3-0.2-0.5-0.3c-0.2-0.1-0.4-0.2-0.7-0.2s-0.6-0.1-1-0.2c-0.3-0.1-0.6-0.1-0.9-0.2s-0.5-0.2-0.8-0.4s-0.4-0.3-0.5-0.6
		s-0.2-0.5-0.2-0.8c0-0.5,0.1-0.9,0.3-1.2c0.2-0.3,0.4-0.6,0.7-0.7c0.3-0.2,0.7-0.3,1-0.4c0.4-0.1,0.8-0.1,1.2-0.1
		c0.4,0,0.8,0,1.2,0.1c0.4,0.1,0.7,0.2,1,0.4c0.3,0.2,0.5,0.4,0.7,0.7c0.2,0.3,0.3,0.7,0.4,1.2h-2c0-0.4-0.2-0.7-0.4-0.8
		c-0.3-0.1-0.6-0.2-1-0.2c-0.1,0-0.2,0-0.4,0c-0.1,0-0.3,0-0.4,0.1s-0.2,0.1-0.3,0.2c-0.1,0.1-0.1,0.2-0.1,0.4
		c0,0.2,0.1,0.3,0.2,0.4c0.1,0.1,0.3,0.2,0.5,0.3c0.2,0.1,0.5,0.1,0.7,0.2c0.3,0.1,0.6,0.1,0.9,0.2c0.3,0.1,0.6,0.1,0.9,0.2
		c0.3,0.1,0.5,0.2,0.8,0.4c0.2,0.2,0.4,0.4,0.5,0.6s0.2,0.5,0.2,0.9c0,0.5-0.1,0.9-0.3,1.2c-0.2,0.3-0.5,0.6-0.8,0.8
		s-0.7,0.3-1.1,0.4s-0.8,0.1-1.3,0.1c-0.4,0-0.9,0-1.3-0.1c-0.4-0.1-0.8-0.2-1.1-0.4c-0.3-0.2-0.6-0.5-0.8-0.8
		c-0.2-0.3-0.3-0.8-0.3-1.2H692.2z"/>
	<path class="st0" d="M701.2,42H700v-3.8h-1.5v-0.9c0.2,0,0.4,0,0.6,0c0.2,0,0.4-0.1,0.5-0.2c0.2-0.1,0.3-0.2,0.4-0.4
		c0.1-0.2,0.2-0.3,0.2-0.6h1V42z"/>
</g>
<g>
	<path class="st0" d="M8.1,0.4v1h-7v4.3h6.6v1H1.1v4.6h7.1v1H0V0.4H8.1z"/>
	<path class="st0" d="M11.6,0.4v11.8h-1V0.4H11.6z"/>
	<path class="st0" d="M20.9,9.4c0.1,0.4,0.3,0.8,0.5,1.1s0.5,0.6,0.9,0.8c0.4,0.2,0.8,0.3,1.3,0.3c0.8,0,1.4-0.2,1.8-0.6
		c0.4-0.4,0.7-0.9,0.9-1.6h1c-0.2,1-0.6,1.7-1.2,2.2c-0.6,0.5-1.4,0.8-2.5,0.8c-0.7,0-1.3-0.1-1.7-0.4s-0.9-0.6-1.2-1
		c-0.3-0.4-0.5-0.9-0.7-1.4c-0.1-0.5-0.2-1.1-0.2-1.7c0-0.6,0.1-1.1,0.2-1.6s0.4-1,0.7-1.4c0.3-0.4,0.7-0.8,1.2-1
		c0.5-0.3,1.1-0.4,1.7-0.4c0.7,0,1.3,0.1,1.7,0.4c0.5,0.3,0.9,0.6,1.2,1.1c0.3,0.4,0.5,1,0.7,1.5s0.2,1.2,0.2,1.8h-6.5
		C20.8,8.6,20.8,9,20.9,9.4z M26.1,6.2c-0.1-0.4-0.3-0.7-0.5-1C25.3,5,25,4.8,24.7,4.6c-0.3-0.2-0.7-0.3-1.1-0.3
		c-0.4,0-0.8,0.1-1.1,0.3c-0.3,0.2-0.6,0.4-0.8,0.7c-0.2,0.3-0.4,0.6-0.6,1c-0.1,0.4-0.2,0.7-0.3,1.1h5.5C26.3,7,26.2,6.6,26.1,6.2z
		"/>
	<path class="st0" d="M34.6,5.4c-0.1-0.2-0.3-0.4-0.5-0.6s-0.4-0.3-0.7-0.3c-0.3-0.1-0.5-0.1-0.8-0.1c-0.2,0-0.5,0-0.7,0.1
		c-0.2,0-0.5,0.1-0.7,0.2c-0.2,0.1-0.4,0.3-0.5,0.5c-0.1,0.2-0.2,0.4-0.2,0.7c0,0.2,0.1,0.4,0.2,0.6s0.3,0.3,0.4,0.4
		c0.2,0.1,0.4,0.2,0.6,0.3c0.2,0.1,0.4,0.1,0.6,0.2l1.4,0.3c0.3,0,0.6,0.1,0.9,0.2s0.5,0.3,0.8,0.5c0.2,0.2,0.4,0.4,0.6,0.7
		s0.2,0.6,0.2,1c0,0.5-0.1,0.9-0.3,1.2c-0.2,0.3-0.5,0.6-0.8,0.8c-0.3,0.2-0.7,0.3-1.1,0.4s-0.8,0.1-1.2,0.1c-1,0-1.8-0.2-2.4-0.7
		c-0.6-0.5-1-1.2-1.1-2.3h1c0,0.7,0.3,1.2,0.8,1.6s1,0.5,1.7,0.5c0.3,0,0.5,0,0.8-0.1c0.3-0.1,0.5-0.1,0.7-0.3s0.4-0.3,0.6-0.5
		s0.2-0.5,0.2-0.7c0-0.3-0.1-0.5-0.2-0.6c-0.1-0.2-0.2-0.3-0.4-0.4s-0.4-0.2-0.6-0.3c-0.2-0.1-0.5-0.1-0.7-0.2l-1.3-0.3
		C31.5,8,31.2,7.9,31,7.8c-0.3-0.1-0.5-0.3-0.7-0.4C30,7.2,29.8,7,29.7,6.8s-0.2-0.6-0.2-0.9c0-0.4,0.1-0.8,0.3-1.1
		C30,4.4,30.2,4.2,30.6,4c0.3-0.2,0.7-0.3,1-0.4s0.8-0.1,1.1-0.1c0.4,0,0.8,0.1,1.2,0.2c0.4,0.1,0.7,0.3,1,0.5s0.5,0.5,0.7,0.9
		c0.2,0.3,0.3,0.7,0.3,1.2h-1C34.8,5.9,34.7,5.6,34.6,5.4z"/>
	<path class="st0" d="M42,3.7v0.9h-1.7v5.7c0,0.3,0,0.6,0.1,0.8c0.1,0.2,0.3,0.3,0.7,0.3c0.3,0,0.6,0,0.9,0v0.9c-0.2,0-0.3,0-0.5,0
		c-0.2,0-0.3,0-0.5,0c-0.7,0-1.2-0.1-1.4-0.4c-0.3-0.3-0.4-0.8-0.4-1.5V4.6h-1.5V3.7h1.5V1.2h1v2.6H42z"/>
	<path class="st0" d="M45.4,3.7v2h0c0.3-0.7,0.7-1.2,1.2-1.6c0.6-0.4,1.2-0.5,2-0.5v1c-0.5,0-0.9,0-1.3,0.2c-0.4,0.1-0.7,0.4-1,0.6
		s-0.5,0.6-0.7,1c-0.2,0.4-0.2,0.8-0.2,1.2v4.5h-1V3.7H45.4z"/>
	<path class="st0" d="M51.4,9.4c0.1,0.4,0.3,0.8,0.5,1.1s0.5,0.6,0.9,0.8c0.4,0.2,0.8,0.3,1.3,0.3c0.8,0,1.4-0.2,1.8-0.6
		c0.4-0.4,0.7-0.9,0.9-1.6h1c-0.2,1-0.6,1.7-1.2,2.2c-0.6,0.5-1.4,0.8-2.5,0.8c-0.7,0-1.3-0.1-1.7-0.4s-0.9-0.6-1.2-1
		c-0.3-0.4-0.5-0.9-0.7-1.4c-0.1-0.5-0.2-1.1-0.2-1.7c0-0.6,0.1-1.1,0.2-1.6s0.4-1,0.7-1.4c0.3-0.4,0.7-0.8,1.2-1
		c0.5-0.3,1.1-0.4,1.7-0.4c0.7,0,1.3,0.1,1.7,0.4C56.3,4.1,56.7,4.5,57,5c0.3,0.4,0.5,1,0.7,1.5s0.2,1.2,0.2,1.8h-6.5
		C51.3,8.6,51.3,9,51.4,9.4z M56.6,6.2c-0.1-0.4-0.3-0.7-0.5-1c-0.2-0.3-0.5-0.5-0.8-0.7c-0.3-0.2-0.7-0.3-1.1-0.3
		c-0.4,0-0.8,0.1-1.1,0.3c-0.3,0.2-0.6,0.4-0.8,0.7c-0.2,0.3-0.4,0.6-0.6,1c-0.1,0.4-0.2,0.7-0.3,1.1h5.5C56.8,7,56.7,6.6,56.6,6.2z
		 M53,2.5l1.7-2.3H56l-2.2,2.3H53z"/>
	<path class="st0" d="M65.1,5.4c-0.1-0.2-0.3-0.4-0.5-0.6s-0.4-0.3-0.7-0.3c-0.3-0.1-0.5-0.1-0.8-0.1c-0.2,0-0.5,0-0.7,0.1
		c-0.2,0-0.5,0.1-0.7,0.2c-0.2,0.1-0.4,0.3-0.5,0.5C61.1,5.3,61,5.5,61,5.8c0,0.2,0.1,0.4,0.2,0.6s0.3,0.3,0.4,0.4
		C61.8,6.9,62,7,62.2,7.1c0.2,0.1,0.4,0.1,0.6,0.2l1.4,0.3c0.3,0,0.6,0.1,0.9,0.2s0.5,0.3,0.8,0.5c0.2,0.2,0.4,0.4,0.6,0.7
		s0.2,0.6,0.2,1c0,0.5-0.1,0.9-0.3,1.2c-0.2,0.3-0.5,0.6-0.8,0.8c-0.3,0.2-0.7,0.3-1.1,0.4s-0.8,0.1-1.2,0.1c-1,0-1.8-0.2-2.4-0.7
		c-0.6-0.5-1-1.2-1.1-2.3h1c0,0.7,0.3,1.2,0.8,1.6s1,0.5,1.7,0.5c0.3,0,0.5,0,0.8-0.1c0.3-0.1,0.5-0.1,0.7-0.3s0.4-0.3,0.6-0.5
		s0.2-0.5,0.2-0.7c0-0.3-0.1-0.5-0.2-0.6C65.3,9.2,65.2,9,65,8.9s-0.4-0.2-0.6-0.3c-0.2-0.1-0.5-0.1-0.7-0.2l-1.3-0.3
		C62,8,61.7,7.9,61.4,7.8c-0.3-0.1-0.5-0.3-0.7-0.4c-0.2-0.2-0.4-0.4-0.5-0.6S60,6.2,60,5.8c0-0.4,0.1-0.8,0.3-1.1
		C60.5,4.4,60.7,4.2,61,4c0.3-0.2,0.7-0.3,1-0.4s0.8-0.1,1.1-0.1c0.4,0,0.8,0.1,1.2,0.2c0.4,0.1,0.7,0.3,1,0.5S65.9,4.7,66,5
		c0.2,0.3,0.3,0.7,0.3,1.2h-1C65.3,5.9,65.2,5.6,65.1,5.4z"/>
	<path class="st0" d="M75.6,3.7v1.6h0c0.2-0.6,0.6-1.1,1.2-1.4c0.5-0.3,1.2-0.5,1.9-0.5c0.6,0,1.2,0.1,1.7,0.4
		c0.5,0.2,0.9,0.6,1.2,1c0.3,0.4,0.6,0.9,0.7,1.4c0.2,0.5,0.2,1.1,0.2,1.7c0,0.6-0.1,1.2-0.2,1.7c-0.2,0.5-0.4,1-0.7,1.4
		c-0.3,0.4-0.7,0.7-1.2,1c-0.5,0.2-1,0.4-1.7,0.4c-0.3,0-0.6,0-0.9-0.1s-0.6-0.2-0.9-0.3s-0.5-0.3-0.7-0.6s-0.4-0.5-0.5-0.8h0v4.7
		h-1V3.7H75.6z M81.3,6.6c-0.1-0.4-0.3-0.8-0.5-1.2c-0.2-0.3-0.5-0.6-0.9-0.8c-0.4-0.2-0.8-0.3-1.3-0.3c-0.6,0-1,0.1-1.4,0.3
		s-0.7,0.5-0.9,0.8c-0.2,0.3-0.4,0.7-0.5,1.2C75.8,7,75.7,7.5,75.7,8c0,0.4,0.1,0.9,0.2,1.3c0.1,0.4,0.3,0.8,0.5,1.2
		s0.5,0.6,0.9,0.8c0.4,0.2,0.8,0.3,1.4,0.3c0.5,0,0.9-0.1,1.3-0.3c0.4-0.2,0.6-0.5,0.9-0.8c0.2-0.3,0.4-0.7,0.5-1.2
		c0.1-0.4,0.2-0.9,0.2-1.3C81.5,7.5,81.4,7.1,81.3,6.6z"/>
	<path class="st0" d="M85.9,9.4c0.1,0.4,0.3,0.8,0.5,1.1s0.5,0.6,0.9,0.8c0.4,0.2,0.8,0.3,1.3,0.3c0.8,0,1.4-0.2,1.8-0.6
		c0.4-0.4,0.7-0.9,0.9-1.6h1c-0.2,1-0.6,1.7-1.2,2.2c-0.6,0.5-1.4,0.8-2.5,0.8c-0.7,0-1.3-0.1-1.7-0.4s-0.9-0.6-1.2-1
		c-0.3-0.4-0.5-0.9-0.7-1.4c-0.1-0.5-0.2-1.1-0.2-1.7c0-0.6,0.1-1.1,0.2-1.6s0.4-1,0.7-1.4c0.3-0.4,0.7-0.8,1.2-1
		c0.5-0.3,1.1-0.4,1.7-0.4c0.7,0,1.3,0.1,1.7,0.4c0.5,0.3,0.9,0.6,1.2,1.1c0.3,0.4,0.5,1,0.7,1.5s0.2,1.2,0.2,1.8h-6.5
		C85.7,8.6,85.8,9,85.9,9.4z M91,6.2c-0.1-0.4-0.3-0.7-0.5-1C90.3,5,90,4.8,89.6,4.6c-0.3-0.2-0.7-0.3-1.1-0.3
		c-0.4,0-0.8,0.1-1.1,0.3c-0.3,0.2-0.6,0.4-0.8,0.7c-0.2,0.3-0.4,0.6-0.6,1c-0.1,0.4-0.2,0.7-0.3,1.1h5.5C91.2,7,91.1,6.6,91,6.2z"
		/>
	<path class="st0" d="M95.6,3.7v2h0c0.3-0.7,0.7-1.2,1.2-1.6c0.6-0.4,1.2-0.5,2-0.5v1c-0.5,0-0.9,0-1.3,0.2c-0.4,0.1-0.7,0.4-1,0.6
		s-0.5,0.6-0.7,1c-0.2,0.4-0.2,0.8-0.2,1.2v4.5h-1V3.7H95.6z"/>
	<path class="st0" d="M105.7,5.4c-0.1-0.2-0.3-0.4-0.5-0.6s-0.4-0.3-0.7-0.3c-0.3-0.1-0.5-0.1-0.8-0.1c-0.2,0-0.5,0-0.7,0.1
		c-0.2,0-0.5,0.1-0.7,0.2c-0.2,0.1-0.4,0.3-0.5,0.5c-0.1,0.2-0.2,0.4-0.2,0.7c0,0.2,0.1,0.4,0.2,0.6s0.3,0.3,0.4,0.4
		c0.2,0.1,0.4,0.2,0.6,0.3c0.2,0.1,0.4,0.1,0.6,0.2l1.4,0.3c0.3,0,0.6,0.1,0.9,0.2s0.5,0.3,0.8,0.5c0.2,0.2,0.4,0.4,0.6,0.7
		s0.2,0.6,0.2,1c0,0.5-0.1,0.9-0.3,1.2c-0.2,0.3-0.5,0.6-0.8,0.8c-0.3,0.2-0.7,0.3-1.1,0.4s-0.8,0.1-1.2,0.1c-1,0-1.8-0.2-2.4-0.7
		c-0.6-0.5-1-1.2-1.1-2.3h1c0,0.7,0.3,1.2,0.8,1.6s1,0.5,1.7,0.5c0.3,0,0.5,0,0.8-0.1c0.3-0.1,0.5-0.1,0.7-0.3s0.4-0.3,0.6-0.5
		s0.2-0.5,0.2-0.7c0-0.3-0.1-0.5-0.2-0.6c-0.1-0.2-0.2-0.3-0.4-0.4s-0.4-0.2-0.6-0.3c-0.2-0.1-0.5-0.1-0.7-0.2L103,8.1
		c-0.3-0.1-0.7-0.2-0.9-0.3c-0.3-0.1-0.5-0.3-0.7-0.4c-0.2-0.2-0.4-0.4-0.5-0.6s-0.2-0.6-0.2-0.9c0-0.4,0.1-0.8,0.3-1.1
		c0.2-0.3,0.4-0.6,0.7-0.7c0.3-0.2,0.7-0.3,1-0.4s0.8-0.1,1.1-0.1c0.4,0,0.8,0.1,1.2,0.2c0.4,0.1,0.7,0.3,1,0.5s0.5,0.5,0.7,0.9
		c0.2,0.3,0.3,0.7,0.3,1.2h-1C105.9,5.9,105.8,5.6,105.7,5.4z"/>
	<path class="st0" d="M110.8,0.4v1.7h-1V0.4H110.8z M110.8,3.7v8.5h-1V3.7H110.8z"/>
	<path class="st0" d="M118.7,5.4c-0.1-0.2-0.3-0.4-0.5-0.6s-0.4-0.3-0.7-0.3c-0.3-0.1-0.5-0.1-0.8-0.1c-0.2,0-0.5,0-0.7,0.1
		c-0.2,0-0.5,0.1-0.7,0.2c-0.2,0.1-0.4,0.3-0.5,0.5c-0.1,0.2-0.2,0.4-0.2,0.7c0,0.2,0.1,0.4,0.2,0.6s0.3,0.3,0.4,0.4
		c0.2,0.1,0.4,0.2,0.6,0.3c0.2,0.1,0.4,0.1,0.6,0.2l1.4,0.3c0.3,0,0.6,0.1,0.9,0.2s0.5,0.3,0.8,0.5c0.2,0.2,0.4,0.4,0.6,0.7
		s0.2,0.6,0.2,1c0,0.5-0.1,0.9-0.3,1.2c-0.2,0.3-0.5,0.6-0.8,0.8c-0.3,0.2-0.7,0.3-1.1,0.4s-0.8,0.1-1.2,0.1c-1,0-1.8-0.2-2.4-0.7
		c-0.6-0.5-1-1.2-1.1-2.3h1c0,0.7,0.3,1.2,0.8,1.6s1,0.5,1.7,0.5c0.3,0,0.5,0,0.8-0.1c0.3-0.1,0.5-0.1,0.7-0.3s0.4-0.3,0.6-0.5
		s0.2-0.5,0.2-0.7c0-0.3-0.1-0.5-0.2-0.6c-0.1-0.2-0.2-0.3-0.4-0.4s-0.4-0.2-0.6-0.3c-0.2-0.1-0.5-0.1-0.7-0.2L116,8.1
		c-0.3-0.1-0.7-0.2-0.9-0.3c-0.3-0.1-0.5-0.3-0.7-0.4c-0.2-0.2-0.4-0.4-0.5-0.6s-0.2-0.6-0.2-0.9c0-0.4,0.1-0.8,0.3-1.1
		c0.2-0.3,0.4-0.6,0.7-0.7c0.3-0.2,0.7-0.3,1-0.4s0.8-0.1,1.1-0.1c0.4,0,0.8,0.1,1.2,0.2c0.4,0.1,0.7,0.3,1,0.5s0.5,0.5,0.7,0.9
		c0.2,0.3,0.3,0.7,0.3,1.2h-1C118.9,5.9,118.8,5.6,118.7,5.4z"/>
	<path class="st0" d="M126.1,3.7v0.9h-1.7v5.7c0,0.3,0,0.6,0.1,0.8c0.1,0.2,0.3,0.3,0.7,0.3c0.3,0,0.6,0,0.9,0v0.9
		c-0.2,0-0.3,0-0.5,0c-0.2,0-0.3,0-0.5,0c-0.7,0-1.2-0.1-1.4-0.4c-0.3-0.3-0.4-0.8-0.4-1.5V4.6h-1.5V3.7h1.5V1.2h1v2.6H126.1z"/>
	<path class="st0" d="M129.3,9.4c0.1,0.4,0.3,0.8,0.5,1.1s0.5,0.6,0.9,0.8c0.4,0.2,0.8,0.3,1.3,0.3c0.8,0,1.4-0.2,1.8-0.6
		c0.4-0.4,0.7-0.9,0.9-1.6h1c-0.2,1-0.6,1.7-1.2,2.2c-0.6,0.5-1.4,0.8-2.5,0.8c-0.7,0-1.3-0.1-1.7-0.4s-0.9-0.6-1.2-1
		c-0.3-0.4-0.5-0.9-0.7-1.4c-0.1-0.5-0.2-1.1-0.2-1.7c0-0.6,0.1-1.1,0.2-1.6s0.4-1,0.7-1.4c0.3-0.4,0.7-0.8,1.2-1
		c0.5-0.3,1.1-0.4,1.7-0.4c0.7,0,1.3,0.1,1.7,0.4c0.5,0.3,0.9,0.6,1.2,1.1c0.3,0.4,0.5,1,0.7,1.5s0.2,1.2,0.2,1.8h-6.5
		C129.2,8.6,129.2,9,129.3,9.4z M134.5,6.2c-0.1-0.4-0.3-0.7-0.5-1c-0.2-0.3-0.5-0.5-0.8-0.7c-0.3-0.2-0.7-0.3-1.1-0.3
		c-0.4,0-0.8,0.1-1.1,0.3c-0.3,0.2-0.6,0.4-0.8,0.7c-0.2,0.3-0.4,0.6-0.6,1c-0.1,0.4-0.2,0.7-0.3,1.1h5.5
		C134.6,7,134.6,6.6,134.5,6.2z"/>
	<path class="st0" d="M139.1,3.7v1.5h0c0.2-0.5,0.5-0.9,1.1-1.2s1.1-0.5,1.7-0.5c0.6,0,1.1,0.1,1.5,0.2c0.4,0.2,0.7,0.4,1,0.7
		c0.2,0.3,0.4,0.6,0.5,1s0.1,0.9,0.1,1.4v5.5h-1V6.9c0-0.4,0-0.7-0.1-1c-0.1-0.3-0.2-0.6-0.3-0.8c-0.2-0.2-0.4-0.4-0.7-0.5
		c-0.3-0.1-0.6-0.2-1-0.2c-0.4,0-0.8,0.1-1.1,0.2c-0.3,0.1-0.6,0.4-0.8,0.6c-0.2,0.3-0.4,0.6-0.5,0.9c-0.1,0.4-0.2,0.7-0.2,1.2v5h-1
		V3.7H139.1z"/>
	<path class="st0" d="M151.3,3.7v0.9h-1.7v5.7c0,0.3,0,0.6,0.1,0.8c0.1,0.2,0.3,0.3,0.7,0.3c0.3,0,0.6,0,0.9,0v0.9
		c-0.2,0-0.3,0-0.5,0c-0.2,0-0.3,0-0.5,0c-0.7,0-1.2-0.1-1.4-0.4c-0.3-0.3-0.4-0.8-0.4-1.5V4.6H147V3.7h1.5V1.2h1v2.6H151.3z"/>
	<path class="st0" d="M154.5,9.4c0.1,0.4,0.3,0.8,0.5,1.1s0.5,0.6,0.9,0.8c0.4,0.2,0.8,0.3,1.3,0.3c0.8,0,1.4-0.2,1.8-0.6
		c0.4-0.4,0.7-0.9,0.9-1.6h1c-0.2,1-0.6,1.7-1.2,2.2c-0.6,0.5-1.4,0.8-2.5,0.8c-0.7,0-1.3-0.1-1.7-0.4s-0.9-0.6-1.2-1
		c-0.3-0.4-0.5-0.9-0.7-1.4c-0.1-0.5-0.2-1.1-0.2-1.7c0-0.6,0.1-1.1,0.2-1.6s0.4-1,0.7-1.4c0.3-0.4,0.7-0.8,1.2-1
		c0.5-0.3,1.1-0.4,1.7-0.4c0.7,0,1.3,0.1,1.7,0.4c0.5,0.3,0.9,0.6,1.2,1.1c0.3,0.4,0.5,1,0.7,1.5s0.2,1.2,0.2,1.8h-6.5
		C154.4,8.6,154.4,9,154.5,9.4z M159.7,6.2c-0.1-0.4-0.3-0.7-0.5-1c-0.2-0.3-0.5-0.5-0.8-0.7c-0.3-0.2-0.7-0.3-1.1-0.3
		c-0.4,0-0.8,0.1-1.1,0.3c-0.3,0.2-0.6,0.4-0.8,0.7c-0.2,0.3-0.4,0.6-0.6,1c-0.1,0.4-0.2,0.7-0.3,1.1h5.5
		C159.9,7,159.8,6.6,159.7,6.2z"/>
	<path class="st0" d="M169.9,0.4v1.7h-1V0.4H169.9z M169.9,3.7v8.5h-1V3.7H169.9z"/>
	<path class="st0" d="M173.9,3.7v1.5h0c0.2-0.5,0.5-0.9,1.1-1.2s1.1-0.5,1.7-0.5c0.6,0,1.1,0.1,1.5,0.2c0.4,0.2,0.7,0.4,1,0.7
		c0.2,0.3,0.4,0.6,0.5,1s0.1,0.9,0.1,1.4v5.5h-1V6.9c0-0.4,0-0.7-0.1-1c-0.1-0.3-0.2-0.6-0.3-0.8c-0.2-0.2-0.4-0.4-0.7-0.5
		c-0.3-0.1-0.6-0.2-1-0.2c-0.4,0-0.8,0.1-1.1,0.2c-0.3,0.1-0.6,0.4-0.8,0.6c-0.2,0.3-0.4,0.6-0.5,0.9c-0.1,0.4-0.2,0.7-0.2,1.2v5h-1
		V3.7H173.9z"/>
	<path class="st0" d="M183.8,0.4v4.7h0c0.2-0.5,0.5-0.9,1.1-1.2s1.1-0.5,1.7-0.5c0.6,0,1.1,0.1,1.5,0.2c0.4,0.2,0.7,0.4,1,0.7
		c0.2,0.3,0.4,0.6,0.5,1s0.1,0.9,0.1,1.4v5.5h-1V6.9c0-0.4,0-0.7-0.1-1c-0.1-0.3-0.2-0.6-0.3-0.8c-0.2-0.2-0.4-0.4-0.7-0.5
		c-0.3-0.1-0.6-0.2-1-0.2c-0.4,0-0.8,0.1-1.1,0.2c-0.3,0.1-0.6,0.4-0.8,0.6c-0.2,0.3-0.4,0.6-0.5,0.9c-0.1,0.4-0.2,0.7-0.2,1.2v5h-1
		V0.4H183.8z"/>
	<path class="st0" d="M193.6,0.4v1.7h-1V0.4H193.6z M193.6,3.7v8.5h-1V3.7H193.6z"/>
	<path class="st0" d="M197.7,0.4v4.9h0c0.1-0.3,0.3-0.6,0.5-0.8s0.4-0.4,0.7-0.6c0.3-0.2,0.5-0.3,0.9-0.4c0.3-0.1,0.6-0.1,0.9-0.1
		c0.6,0,1.2,0.1,1.7,0.4c0.5,0.2,0.9,0.6,1.2,1c0.3,0.4,0.6,0.9,0.7,1.4c0.2,0.5,0.2,1.1,0.2,1.7c0,0.6-0.1,1.2-0.2,1.7
		c-0.2,0.5-0.4,1-0.7,1.4c-0.3,0.4-0.7,0.7-1.2,1c-0.5,0.2-1,0.4-1.7,0.4c-0.7,0-1.3-0.2-1.9-0.5s-0.9-0.8-1.2-1.4h0v1.6h-1V0.4
		H197.7z M203.3,6.6c-0.1-0.4-0.3-0.8-0.5-1.2c-0.2-0.3-0.5-0.6-0.9-0.8c-0.4-0.2-0.8-0.3-1.3-0.3c-0.5,0-1,0.1-1.4,0.3
		c-0.4,0.2-0.7,0.5-0.9,0.8c-0.2,0.3-0.4,0.7-0.5,1.2c-0.1,0.4-0.2,0.9-0.2,1.3c0,0.4,0.1,0.9,0.2,1.3c0.1,0.4,0.3,0.8,0.5,1.2
		s0.5,0.6,0.9,0.8c0.4,0.2,0.8,0.3,1.4,0.3c0.5,0,0.9-0.1,1.3-0.3c0.4-0.2,0.6-0.5,0.9-0.8c0.2-0.3,0.4-0.7,0.5-1.2
		c0.1-0.4,0.2-0.9,0.2-1.3C203.4,7.5,203.4,7.1,203.3,6.6z"/>
	<path class="st0" d="M207.8,9.4c0.1,0.4,0.3,0.8,0.5,1.1s0.5,0.6,0.9,0.8c0.4,0.2,0.8,0.3,1.3,0.3c0.8,0,1.4-0.2,1.8-0.6
		c0.4-0.4,0.7-0.9,0.9-1.6h1c-0.2,1-0.6,1.7-1.2,2.2c-0.6,0.5-1.4,0.8-2.5,0.8c-0.7,0-1.3-0.1-1.7-0.4s-0.9-0.6-1.2-1
		c-0.3-0.4-0.5-0.9-0.7-1.4c-0.1-0.5-0.2-1.1-0.2-1.7c0-0.6,0.1-1.1,0.2-1.6s0.4-1,0.7-1.4c0.3-0.4,0.7-0.8,1.2-1
		c0.5-0.3,1.1-0.4,1.7-0.4c0.7,0,1.3,0.1,1.7,0.4c0.5,0.3,0.9,0.6,1.2,1.1c0.3,0.4,0.5,1,0.7,1.5s0.2,1.2,0.2,1.8h-6.5
		C207.7,8.6,207.7,9,207.8,9.4z M213,6.2c-0.1-0.4-0.3-0.7-0.5-1c-0.2-0.3-0.5-0.5-0.8-0.7c-0.3-0.2-0.7-0.3-1.1-0.3
		c-0.4,0-0.8,0.1-1.1,0.3c-0.3,0.2-0.6,0.4-0.8,0.7c-0.2,0.3-0.4,0.6-0.6,1c-0.1,0.4-0.2,0.7-0.3,1.1h5.5C213.2,7,213.1,6.6,213,6.2
		z"/>
	<path class="st0" d="M222.9,9.4c0.1,0.4,0.3,0.8,0.5,1.1s0.5,0.6,0.9,0.8c0.4,0.2,0.8,0.3,1.3,0.3c0.8,0,1.4-0.2,1.8-0.6
		c0.4-0.4,0.7-0.9,0.9-1.6h1c-0.2,1-0.6,1.7-1.2,2.2c-0.6,0.5-1.4,0.8-2.5,0.8c-0.7,0-1.3-0.1-1.7-0.4s-0.9-0.6-1.2-1
		c-0.3-0.4-0.5-0.9-0.7-1.4c-0.1-0.5-0.2-1.1-0.2-1.7c0-0.6,0.1-1.1,0.2-1.6s0.4-1,0.7-1.4c0.3-0.4,0.7-0.8,1.2-1
		c0.5-0.3,1.1-0.4,1.7-0.4c0.7,0,1.3,0.1,1.7,0.4c0.5,0.3,0.9,0.6,1.2,1.1c0.3,0.4,0.5,1,0.7,1.5s0.2,1.2,0.2,1.8h-6.5
		C222.8,8.6,222.8,9,222.9,9.4z M228.1,6.2c-0.1-0.4-0.3-0.7-0.5-1c-0.2-0.3-0.5-0.5-0.8-0.7c-0.3-0.2-0.7-0.3-1.1-0.3
		c-0.4,0-0.8,0.1-1.1,0.3c-0.3,0.2-0.6,0.4-0.8,0.7c-0.2,0.3-0.4,0.6-0.6,1c-0.1,0.4-0.2,0.7-0.3,1.1h5.5
		C228.3,7,228.2,6.6,228.1,6.2z"/>
	<path class="st0" d="M232.8,0.4v11.8h-1V0.4H232.8z"/>
	<path class="st0" d="M242.3,3.7v1.4h0c0.3-0.5,0.6-0.9,1.1-1.2c0.4-0.3,1-0.4,1.7-0.4c0.6,0,1.1,0.1,1.5,0.4
		c0.5,0.3,0.8,0.7,0.9,1.3c0.3-0.6,0.6-1,1.1-1.3c0.5-0.3,1-0.4,1.6-0.4c1.9,0,2.8,1,2.8,3v5.8h-1V6.5c0-0.7-0.1-1.2-0.4-1.6
		c-0.3-0.4-0.8-0.6-1.6-0.6c-0.5,0-0.8,0.1-1.1,0.3s-0.5,0.4-0.7,0.7c-0.2,0.3-0.3,0.6-0.4,1c-0.1,0.4-0.1,0.7-0.1,1.1v4.8h-1V6.4
		c0-0.3,0-0.6-0.1-0.8c-0.1-0.3-0.2-0.5-0.3-0.7c-0.1-0.2-0.3-0.3-0.6-0.5c-0.2-0.1-0.5-0.2-0.8-0.2c-0.4,0-0.8,0.1-1.1,0.2
		S243.2,5,243,5.2c-0.2,0.3-0.4,0.6-0.5,1c-0.1,0.4-0.1,0.8-0.1,1.2v4.7h-1V3.7H242.3z"/>
	<path class="st0" d="M256.8,9.4c0.1,0.4,0.3,0.8,0.5,1.1s0.5,0.6,0.9,0.8c0.4,0.2,0.8,0.3,1.3,0.3c0.8,0,1.4-0.2,1.8-0.6
		c0.4-0.4,0.7-0.9,0.9-1.6h1c-0.2,1-0.6,1.7-1.2,2.2c-0.6,0.5-1.4,0.8-2.5,0.8c-0.7,0-1.3-0.1-1.7-0.4s-0.9-0.6-1.2-1
		c-0.3-0.4-0.5-0.9-0.7-1.4c-0.1-0.5-0.2-1.1-0.2-1.7c0-0.6,0.1-1.1,0.2-1.6s0.4-1,0.7-1.4c0.3-0.4,0.7-0.8,1.2-1
		c0.5-0.3,1.1-0.4,1.7-0.4c0.7,0,1.3,0.1,1.7,0.4c0.5,0.3,0.9,0.6,1.2,1.1c0.3,0.4,0.5,1,0.7,1.5s0.2,1.2,0.2,1.8h-6.5
		C256.6,8.6,256.7,9,256.8,9.4z M261.9,6.2c-0.1-0.4-0.3-0.7-0.5-1c-0.2-0.3-0.5-0.5-0.8-0.7c-0.3-0.2-0.7-0.3-1.1-0.3
		c-0.4,0-0.8,0.1-1.1,0.3c-0.3,0.2-0.6,0.4-0.8,0.7c-0.2,0.3-0.4,0.6-0.6,1c-0.1,0.4-0.2,0.7-0.3,1.1h5.5
		C262.1,7,262.1,6.6,261.9,6.2z"/>
	<path class="st0" d="M270.8,4.9c-0.4-0.4-0.9-0.5-1.6-0.5c-0.5,0-0.9,0.1-1.3,0.3c-0.4,0.2-0.7,0.5-0.9,0.8
		c-0.2,0.3-0.4,0.7-0.6,1.2s-0.2,0.9-0.2,1.3c0,0.5,0.1,0.9,0.2,1.3c0.1,0.4,0.3,0.8,0.6,1.2c0.2,0.3,0.6,0.6,0.9,0.8
		c0.4,0.2,0.8,0.3,1.3,0.3c0.3,0,0.6-0.1,0.9-0.2c0.3-0.1,0.5-0.3,0.8-0.5c0.2-0.2,0.4-0.5,0.5-0.8c0.1-0.3,0.2-0.6,0.3-1h1
		c-0.1,1-0.5,1.8-1.1,2.4s-1.4,0.9-2.4,0.9c-0.6,0-1.2-0.1-1.7-0.4c-0.5-0.2-0.9-0.6-1.3-1s-0.6-0.9-0.8-1.4
		c-0.2-0.5-0.3-1.1-0.3-1.7c0-0.6,0.1-1.2,0.3-1.7c0.2-0.5,0.4-1,0.8-1.4c0.3-0.4,0.8-0.7,1.3-1c0.5-0.2,1.1-0.4,1.7-0.4
		c0.9,0,1.7,0.2,2.3,0.7c0.6,0.5,1,1.2,1.1,2.2h-1C271.4,5.7,271.1,5.2,270.8,4.9z"/>
	<path class="st0" d="M275.3,5c0.2-0.4,0.4-0.7,0.7-0.9s0.7-0.4,1.1-0.5c0.4-0.1,0.9-0.2,1.4-0.2c0.4,0,0.7,0,1.1,0.1
		c0.4,0.1,0.7,0.2,1,0.4c0.3,0.2,0.5,0.5,0.7,0.8c0.2,0.4,0.3,0.8,0.3,1.4v4.5c0,0.4,0.2,0.6,0.6,0.6c0.1,0,0.2,0,0.3-0.1v0.9
		c-0.1,0-0.2,0-0.3,0c-0.1,0-0.2,0-0.4,0c-0.3,0-0.5,0-0.6-0.1s-0.3-0.2-0.4-0.3s-0.1-0.3-0.2-0.5s0-0.4,0-0.6h0
		c-0.2,0.3-0.4,0.5-0.6,0.7c-0.2,0.2-0.4,0.4-0.6,0.5c-0.2,0.1-0.5,0.3-0.8,0.3c-0.3,0.1-0.7,0.1-1.1,0.1c-0.4,0-0.8,0-1.1-0.1
		c-0.3-0.1-0.6-0.2-0.9-0.4c-0.3-0.2-0.5-0.5-0.6-0.8c-0.1-0.3-0.2-0.7-0.2-1.1c0-0.6,0.1-1.1,0.4-1.4c0.3-0.3,0.6-0.6,1-0.8
		c0.4-0.2,0.9-0.3,1.5-0.4c0.5-0.1,1.1-0.1,1.7-0.2c0.2,0,0.4,0,0.6-0.1c0.2,0,0.3-0.1,0.4-0.2c0.1-0.1,0.2-0.2,0.3-0.3
		c0.1-0.1,0.1-0.3,0.1-0.6c0-0.4-0.1-0.6-0.2-0.9s-0.3-0.4-0.5-0.5s-0.4-0.2-0.7-0.3c-0.3,0-0.6-0.1-0.9-0.1c-0.7,0-1.2,0.2-1.6,0.5
		s-0.6,0.8-0.7,1.5h-1C275,5.8,275.1,5.4,275.3,5z M280.5,7.6c-0.1,0.1-0.2,0.2-0.4,0.3c-0.2,0.1-0.4,0.1-0.5,0.1
		c-0.4,0.1-0.9,0.1-1.4,0.2c-0.5,0.1-0.9,0.2-1.3,0.3c-0.4,0.1-0.7,0.3-0.9,0.5s-0.4,0.5-0.4,1c0,0.3,0.1,0.5,0.2,0.7
		c0.1,0.2,0.2,0.4,0.4,0.5c0.2,0.1,0.4,0.3,0.6,0.3c0.2,0.1,0.5,0.1,0.7,0.1c0.4,0,0.8-0.1,1.1-0.2c0.4-0.1,0.7-0.3,0.9-0.5
		c0.3-0.2,0.5-0.5,0.6-0.8s0.2-0.7,0.2-1.1L280.5,7.6L280.5,7.6z"/>
	<path class="st0" d="M285.7,3.7v1.5h0c0.2-0.5,0.5-0.9,1.1-1.2s1.1-0.5,1.7-0.5c0.6,0,1.1,0.1,1.5,0.2c0.4,0.2,0.7,0.4,1,0.7
		c0.2,0.3,0.4,0.6,0.5,1s0.1,0.9,0.1,1.4v5.5h-1V6.9c0-0.4,0-0.7-0.1-1c-0.1-0.3-0.2-0.6-0.3-0.8c-0.2-0.2-0.4-0.4-0.7-0.5
		c-0.3-0.1-0.6-0.2-1-0.2c-0.4,0-0.8,0.1-1.1,0.2c-0.3,0.1-0.6,0.4-0.8,0.6c-0.2,0.3-0.4,0.6-0.5,0.9c-0.1,0.4-0.2,0.7-0.2,1.2v5h-1
		V3.7H285.7z"/>
	<path class="st0" d="M295.5,0.4v1.7h-1V0.4H295.5z M295.5,3.7v8.5h-1V3.7H295.5z"/>
	<path class="st0" d="M303.4,5.4c-0.1-0.2-0.3-0.4-0.5-0.6s-0.4-0.3-0.7-0.3c-0.3-0.1-0.5-0.1-0.8-0.1c-0.2,0-0.5,0-0.7,0.1
		c-0.2,0-0.5,0.1-0.7,0.2c-0.2,0.1-0.4,0.3-0.5,0.5c-0.1,0.2-0.2,0.4-0.2,0.7c0,0.2,0.1,0.4,0.2,0.6s0.3,0.3,0.4,0.4
		c0.2,0.1,0.4,0.2,0.6,0.3c0.2,0.1,0.4,0.1,0.6,0.2l1.4,0.3c0.3,0,0.6,0.1,0.9,0.2s0.5,0.3,0.8,0.5c0.2,0.2,0.4,0.4,0.6,0.7
		s0.2,0.6,0.2,1c0,0.5-0.1,0.9-0.3,1.2c-0.2,0.3-0.5,0.6-0.8,0.8c-0.3,0.2-0.7,0.3-1.1,0.4s-0.8,0.1-1.2,0.1c-1,0-1.8-0.2-2.4-0.7
		c-0.6-0.5-1-1.2-1.1-2.3h1c0,0.7,0.3,1.2,0.8,1.6s1,0.5,1.7,0.5c0.3,0,0.5,0,0.8-0.1c0.3-0.1,0.5-0.1,0.7-0.3s0.4-0.3,0.6-0.5
		s0.2-0.5,0.2-0.7c0-0.3-0.1-0.5-0.2-0.6c-0.1-0.2-0.2-0.3-0.4-0.4s-0.4-0.2-0.6-0.3c-0.2-0.1-0.5-0.1-0.7-0.2l-1.3-0.3
		c-0.3-0.1-0.7-0.2-0.9-0.3c-0.3-0.1-0.5-0.3-0.7-0.4c-0.2-0.2-0.4-0.4-0.5-0.6s-0.2-0.6-0.2-0.9c0-0.4,0.1-0.8,0.3-1.1
		c0.2-0.3,0.4-0.6,0.7-0.7c0.3-0.2,0.7-0.3,1-0.4s0.8-0.1,1.1-0.1c0.4,0,0.8,0.1,1.2,0.2c0.4,0.1,0.7,0.3,1,0.5s0.5,0.5,0.7,0.9
		c0.2,0.3,0.3,0.7,0.3,1.2h-1C303.6,5.9,303.5,5.6,303.4,5.4z"/>
	<path class="st0" d="M308.4,3.7v1.4h0c0.3-0.5,0.6-0.9,1.1-1.2c0.4-0.3,1-0.4,1.7-0.4c0.6,0,1.1,0.1,1.5,0.4
		c0.5,0.3,0.8,0.7,0.9,1.3c0.3-0.6,0.6-1,1.1-1.3c0.5-0.3,1-0.4,1.6-0.4c1.9,0,2.8,1,2.8,3v5.8h-1V6.5c0-0.7-0.1-1.2-0.4-1.6
		c-0.3-0.4-0.8-0.6-1.6-0.6c-0.5,0-0.8,0.1-1.1,0.3s-0.5,0.4-0.7,0.7c-0.2,0.3-0.3,0.6-0.4,1c-0.1,0.4-0.1,0.7-0.1,1.1v4.8h-1V6.4
		c0-0.3,0-0.6-0.1-0.8c-0.1-0.3-0.2-0.5-0.3-0.7c-0.1-0.2-0.3-0.3-0.6-0.5c-0.2-0.1-0.5-0.2-0.8-0.2c-0.4,0-0.8,0.1-1.1,0.2
		s-0.6,0.4-0.8,0.7c-0.2,0.3-0.4,0.6-0.5,1c-0.1,0.4-0.1,0.8-0.1,1.2v4.7h-1V3.7H308.4z"/>
	<path class="st0" d="M327.4,3.8c0.5,0.2,0.9,0.6,1.3,1c0.3,0.4,0.6,0.9,0.8,1.4c0.2,0.5,0.3,1.1,0.3,1.7c0,0.6-0.1,1.2-0.3,1.7
		c-0.2,0.5-0.4,1-0.8,1.4s-0.8,0.7-1.3,1c-0.5,0.2-1.1,0.4-1.7,0.4c-0.6,0-1.2-0.1-1.7-0.4c-0.5-0.2-0.9-0.6-1.3-1s-0.6-0.9-0.8-1.4
		c-0.2-0.5-0.3-1.1-0.3-1.7c0-0.6,0.1-1.2,0.3-1.7c0.2-0.5,0.4-1,0.8-1.4c0.3-0.4,0.8-0.7,1.3-1c0.5-0.2,1.1-0.4,1.7-0.4
		C326.4,3.5,326.9,3.6,327.4,3.8z M324.4,4.6c-0.4,0.2-0.7,0.5-0.9,0.8c-0.2,0.3-0.4,0.7-0.6,1.2s-0.2,0.9-0.2,1.3
		c0,0.5,0.1,0.9,0.2,1.3c0.1,0.4,0.3,0.8,0.6,1.2c0.2,0.3,0.6,0.6,0.9,0.8c0.4,0.2,0.8,0.3,1.3,0.3s0.9-0.1,1.3-0.3
		c0.4-0.2,0.7-0.5,0.9-0.8c0.2-0.3,0.4-0.7,0.6-1.2c0.1-0.4,0.2-0.9,0.2-1.3c0-0.4-0.1-0.9-0.2-1.3s-0.3-0.8-0.6-1.2
		c-0.2-0.3-0.6-0.6-0.9-0.8c-0.4-0.2-0.8-0.3-1.3-0.3S324.8,4.4,324.4,4.6z"/>
	<path class="st0" d="M344.4,12.2v-1.6h0c-0.1,0.3-0.3,0.5-0.5,0.8s-0.5,0.4-0.7,0.6c-0.3,0.2-0.6,0.3-0.9,0.4
		c-0.3,0.1-0.6,0.1-0.9,0.1c-0.6,0-1.2-0.1-1.7-0.4s-0.9-0.6-1.2-1c-0.3-0.4-0.6-0.9-0.7-1.4c-0.2-0.5-0.2-1.1-0.2-1.7
		c0-0.6,0.1-1.2,0.2-1.7s0.4-1,0.7-1.4c0.3-0.4,0.7-0.7,1.2-1c0.5-0.2,1-0.4,1.7-0.4c0.3,0,0.6,0,0.9,0.1c0.3,0.1,0.6,0.2,0.8,0.4
		c0.3,0.2,0.5,0.4,0.7,0.6s0.4,0.5,0.5,0.8h0V0.4h1v11.8H344.4z M338.7,9.3c0.1,0.4,0.3,0.8,0.5,1.2c0.2,0.3,0.5,0.6,0.9,0.8
		c0.4,0.2,0.8,0.3,1.3,0.3c0.5,0,1-0.1,1.4-0.3c0.4-0.2,0.7-0.5,0.9-0.8s0.4-0.7,0.5-1.2c0.1-0.4,0.2-0.9,0.2-1.3
		c0-0.4-0.1-0.9-0.2-1.3c-0.1-0.4-0.3-0.8-0.5-1.2c-0.2-0.3-0.5-0.6-0.9-0.8c-0.4-0.2-0.8-0.3-1.4-0.3c-0.5,0-0.9,0.1-1.3,0.3
		c-0.4,0.2-0.6,0.5-0.9,0.8c-0.2,0.3-0.4,0.7-0.5,1.2c-0.1,0.4-0.2,0.9-0.2,1.3C338.5,8.4,338.6,8.8,338.7,9.3z"/>
	<path class="st0" d="M348.7,9.4c0.1,0.4,0.3,0.8,0.5,1.1s0.5,0.6,0.9,0.8c0.4,0.2,0.8,0.3,1.3,0.3c0.8,0,1.4-0.2,1.8-0.6
		c0.4-0.4,0.7-0.9,0.9-1.6h1c-0.2,1-0.6,1.7-1.2,2.2c-0.6,0.5-1.4,0.8-2.5,0.8c-0.7,0-1.3-0.1-1.7-0.4s-0.9-0.6-1.2-1
		c-0.3-0.4-0.5-0.9-0.7-1.4c-0.1-0.5-0.2-1.1-0.2-1.7c0-0.6,0.1-1.1,0.2-1.6s0.4-1,0.7-1.4c0.3-0.4,0.7-0.8,1.2-1
		c0.5-0.3,1.1-0.4,1.7-0.4c0.7,0,1.3,0.1,1.7,0.4c0.5,0.3,0.9,0.6,1.2,1.1c0.3,0.4,0.5,1,0.7,1.5s0.2,1.2,0.2,1.8h-6.5
		C348.6,8.6,348.6,9,348.7,9.4z M353.9,6.2c-0.1-0.4-0.3-0.7-0.5-1c-0.2-0.3-0.5-0.5-0.8-0.7c-0.3-0.2-0.7-0.3-1.1-0.3
		c-0.4,0-0.8,0.1-1.1,0.3c-0.3,0.2-0.6,0.4-0.8,0.7c-0.2,0.3-0.4,0.6-0.6,1c-0.1,0.4-0.2,0.7-0.3,1.1h5.5C354.1,7,354,6.6,353.9,6.2
		z"/>
	<path class="st0" d="M362.3,3.7h2.2v1.6h0c0.1-0.3,0.3-0.5,0.4-0.7c0.2-0.2,0.4-0.4,0.6-0.6c0.2-0.2,0.5-0.3,0.8-0.4
		s0.6-0.1,0.8-0.1c0.2,0,0.3,0,0.5,0.1v2.2c-0.1,0-0.2,0-0.4-0.1c-0.2,0-0.3,0-0.4,0c-0.4,0-0.8,0.1-1.1,0.2
		c-0.3,0.1-0.5,0.3-0.7,0.6c-0.2,0.2-0.3,0.5-0.4,0.9s-0.1,0.7-0.1,1.1v3.8h-2.3V3.7z"/>
	<path class="st0" d="M371.3,8.5c0,0.7,0.2,1.3,0.6,1.6c0.4,0.3,0.9,0.5,1.5,0.5c0.5,0,0.9-0.1,1.2-0.4c0.3-0.2,0.5-0.5,0.6-0.7h2.1
		c-0.3,1-0.8,1.7-1.5,2.2s-1.5,0.7-2.5,0.7c-0.7,0-1.3-0.1-1.8-0.3c-0.5-0.2-1-0.5-1.4-0.9c-0.4-0.4-0.7-0.9-0.9-1.4
		C369.1,9.2,369,8.6,369,8c0-0.6,0.1-1.2,0.3-1.8c0.2-0.5,0.5-1,0.9-1.4c0.4-0.4,0.8-0.7,1.4-0.9c0.5-0.2,1.1-0.3,1.8-0.3
		c0.7,0,1.4,0.1,1.9,0.4c0.5,0.3,1,0.7,1.3,1.1s0.6,1,0.7,1.6c0.2,0.6,0.2,1.2,0.2,1.9H371.3z M375.1,7c-0.1-0.6-0.3-1-0.6-1.4
		c-0.3-0.3-0.7-0.5-1.3-0.5c-0.4,0-0.7,0.1-0.9,0.2c-0.2,0.1-0.4,0.3-0.6,0.5c-0.1,0.2-0.3,0.4-0.3,0.6c-0.1,0.2-0.1,0.4-0.1,0.6
		H375.1z"/>
	<path class="st0" d="M382.4,3.7h1.7v1.6h-1.7v4.2c0,0.4,0.1,0.7,0.2,0.8s0.4,0.2,0.8,0.2c0.3,0,0.5,0,0.7-0.1v1.8
		c-0.2,0-0.4,0.1-0.7,0.1c-0.2,0-0.5,0-0.7,0c-0.4,0-0.7,0-1-0.1c-0.3,0-0.6-0.1-0.9-0.3c-0.2-0.1-0.4-0.4-0.6-0.6
		c-0.1-0.3-0.2-0.6-0.2-1v-5h-1.4V3.7h1.4V1.1h2.3V3.7z"/>
	<path class="st0" d="M385.9,3.7h2.2v1.6h0c0.1-0.3,0.3-0.5,0.4-0.7c0.2-0.2,0.4-0.4,0.6-0.6c0.2-0.2,0.5-0.3,0.8-0.4
		s0.6-0.1,0.8-0.1c0.2,0,0.3,0,0.5,0.1v2.2c-0.1,0-0.2,0-0.4-0.1c-0.2,0-0.3,0-0.4,0c-0.4,0-0.8,0.1-1.1,0.2
		c-0.3,0.1-0.5,0.3-0.7,0.6c-0.2,0.2-0.3,0.5-0.4,0.9s-0.1,0.7-0.1,1.1v3.8h-2.3V3.7z"/>
	<path class="st0" d="M392.7,8c0-0.7,0.1-1.3,0.3-1.9c0.2-0.6,0.5-1,0.9-1.4c0.4-0.4,0.8-0.7,1.4-0.9c0.5-0.2,1.1-0.3,1.8-0.3
		c0.7,0,1.3,0.1,1.8,0.3c0.5,0.2,1,0.5,1.4,0.9c0.4,0.4,0.7,0.9,0.9,1.4c0.2,0.6,0.3,1.2,0.3,1.9c0,0.7-0.1,1.3-0.3,1.8
		c-0.2,0.5-0.5,1-0.9,1.4c-0.4,0.4-0.8,0.7-1.4,0.9c-0.5,0.2-1.2,0.3-1.8,0.3c-0.7,0-1.3-0.1-1.8-0.3c-0.5-0.2-1-0.5-1.4-0.9
		c-0.4-0.4-0.7-0.9-0.9-1.4C392.8,9.3,392.7,8.6,392.7,8z M395.1,8c0,0.3,0,0.7,0.1,1c0.1,0.3,0.2,0.6,0.3,0.9
		c0.2,0.3,0.4,0.5,0.6,0.6c0.3,0.2,0.6,0.2,1,0.2c0.4,0,0.7-0.1,1-0.2c0.3-0.2,0.5-0.4,0.6-0.6c0.2-0.3,0.3-0.5,0.3-0.9
		c0.1-0.3,0.1-0.7,0.1-1c0-0.3,0-0.7-0.1-1c-0.1-0.3-0.2-0.6-0.3-0.9s-0.4-0.5-0.6-0.6c-0.3-0.2-0.6-0.2-1-0.2c-0.4,0-0.7,0.1-1,0.2
		c-0.3,0.2-0.5,0.4-0.6,0.6s-0.3,0.5-0.3,0.9C395.1,7.3,395.1,7.6,395.1,8z"/>
	<path class="st0" d="M403.6,6.3c0-0.5,0.2-1,0.4-1.4c0.2-0.4,0.5-0.7,0.9-0.9c0.4-0.2,0.8-0.4,1.3-0.5s0.9-0.1,1.4-0.1
		c0.4,0,0.9,0,1.3,0.1c0.4,0.1,0.8,0.2,1.2,0.4s0.7,0.4,0.9,0.7s0.3,0.7,0.3,1.2v4.4c0,0.4,0,0.8,0.1,1.1s0.1,0.6,0.2,0.8h-2.4
		c0-0.1-0.1-0.3-0.1-0.4c0-0.1,0-0.3-0.1-0.4c-0.4,0.4-0.8,0.7-1.3,0.8s-1,0.2-1.5,0.2c-0.4,0-0.8-0.1-1.1-0.2
		c-0.4-0.1-0.7-0.3-0.9-0.5c-0.3-0.2-0.5-0.5-0.6-0.8c-0.1-0.3-0.2-0.7-0.2-1.1c0-0.5,0.1-0.9,0.2-1.2c0.2-0.3,0.4-0.6,0.7-0.7
		s0.6-0.3,0.9-0.4c0.3-0.1,0.7-0.2,1.1-0.2c0.4-0.1,0.7-0.1,1-0.1c0.3,0,0.6-0.1,0.9-0.1c0.3-0.1,0.5-0.2,0.6-0.3
		c0.2-0.1,0.2-0.3,0.2-0.6c0-0.3,0-0.5-0.1-0.6c-0.1-0.1-0.2-0.3-0.3-0.3c-0.1-0.1-0.3-0.1-0.5-0.2c-0.2,0-0.4,0-0.6,0
		c-0.5,0-0.8,0.1-1.1,0.3c-0.3,0.2-0.4,0.5-0.5,1H403.6z M409,8c-0.1,0.1-0.2,0.2-0.4,0.2c-0.1,0-0.3,0.1-0.5,0.1
		c-0.2,0-0.4,0.1-0.5,0.1c-0.2,0-0.4,0-0.6,0.1c-0.2,0-0.4,0.1-0.5,0.1c-0.2,0.1-0.3,0.1-0.4,0.2c-0.1,0.1-0.2,0.2-0.3,0.4
		c-0.1,0.1-0.1,0.3-0.1,0.5c0,0.2,0,0.4,0.1,0.5c0.1,0.1,0.2,0.2,0.3,0.3c0.1,0.1,0.3,0.1,0.5,0.2c0.2,0,0.4,0,0.5,0
		c0.5,0,0.8-0.1,1.1-0.2c0.3-0.2,0.4-0.3,0.6-0.6c0.1-0.2,0.2-0.4,0.2-0.7s0-0.4,0-0.5V8z"/>
	<path class="st0" d="M413.9,0.4h2.3v11.8h-2.3V0.4z"/>
	<path class="st0" d="M421.2,2.4h-2.3V0.4h2.3V2.4z M418.8,3.7h2.3v8.5h-2.3V3.7z"/>
	<path class="st0" d="M423.7,3.7h2.2v1.2h0c0.3-0.4,0.7-0.8,1.1-1c0.4-0.2,0.9-0.4,1.5-0.4c0.5,0,1,0.1,1.5,0.3
		c0.4,0.2,0.8,0.6,1,1.1c0.3-0.4,0.6-0.7,1-1c0.4-0.3,0.9-0.4,1.5-0.4c0.5,0,0.9,0.1,1.3,0.2c0.4,0.1,0.7,0.3,1,0.5
		c0.3,0.2,0.5,0.6,0.6,0.9c0.2,0.4,0.2,0.9,0.2,1.4v5.7h-2.3V7.4c0-0.3,0-0.6,0-0.8c0-0.3-0.1-0.5-0.2-0.7c-0.1-0.2-0.2-0.3-0.4-0.4
		c-0.2-0.1-0.5-0.2-0.8-0.2s-0.6,0.1-0.8,0.2c-0.2,0.1-0.4,0.3-0.5,0.5c-0.1,0.2-0.2,0.4-0.2,0.7c0,0.3-0.1,0.5-0.1,0.8v4.7h-2.3
		V7.4c0-0.2,0-0.5,0-0.7c0-0.3-0.1-0.5-0.1-0.7s-0.2-0.4-0.4-0.5c-0.2-0.1-0.5-0.2-0.8-0.2c-0.1,0-0.3,0-0.4,0.1s-0.3,0.1-0.5,0.3
		c-0.2,0.1-0.3,0.3-0.4,0.6c-0.1,0.3-0.2,0.6-0.2,1v4.9h-2.3V3.7z"/>
	<path class="st0" d="M441.2,8.5c0,0.7,0.2,1.3,0.6,1.6c0.4,0.3,0.9,0.5,1.5,0.5c0.5,0,0.9-0.1,1.2-0.4c0.3-0.2,0.5-0.5,0.6-0.7h2.1
		c-0.3,1-0.8,1.7-1.5,2.2s-1.5,0.7-2.5,0.7c-0.7,0-1.3-0.1-1.8-0.3c-0.5-0.2-1-0.5-1.4-0.9c-0.4-0.4-0.7-0.9-0.9-1.4
		c-0.2-0.5-0.3-1.2-0.3-1.8c0-0.6,0.1-1.2,0.3-1.8c0.2-0.5,0.5-1,0.9-1.4c0.4-0.4,0.8-0.7,1.4-0.9c0.5-0.2,1.1-0.3,1.8-0.3
		c0.7,0,1.4,0.1,1.9,0.4c0.5,0.3,1,0.7,1.3,1.1s0.6,1,0.7,1.6c0.2,0.6,0.2,1.2,0.2,1.9H441.2z M445,7c-0.1-0.6-0.3-1-0.6-1.4
		c-0.3-0.3-0.7-0.5-1.3-0.5c-0.4,0-0.7,0.1-0.9,0.2c-0.2,0.1-0.4,0.3-0.6,0.5c-0.1,0.2-0.3,0.4-0.3,0.6c-0.1,0.2-0.1,0.4-0.1,0.6
		H445z"/>
	<path class="st0" d="M449.4,3.7h2.2v1.2h0c0.3-0.5,0.7-0.8,1.2-1.1c0.5-0.2,1-0.3,1.5-0.3c0.6,0,1.1,0.1,1.5,0.3
		c0.4,0.2,0.7,0.4,0.9,0.7c0.2,0.3,0.4,0.7,0.5,1.1c0.1,0.4,0.1,0.9,0.1,1.4v5.2H455V7.4c0-0.7-0.1-1.2-0.3-1.6
		c-0.2-0.3-0.6-0.5-1.2-0.5c-0.6,0-1.1,0.2-1.4,0.6c-0.3,0.4-0.4,1-0.4,1.9v4.5h-2.3V3.7z"/>
	<path class="st0" d="M462.7,3.7h1.7v1.6h-1.7v4.2c0,0.4,0.1,0.7,0.2,0.8s0.4,0.2,0.8,0.2c0.3,0,0.5,0,0.7-0.1v1.8
		c-0.2,0-0.4,0.1-0.7,0.1c-0.2,0-0.5,0-0.7,0c-0.4,0-0.7,0-1-0.1c-0.3,0-0.6-0.1-0.9-0.3c-0.2-0.1-0.4-0.4-0.6-0.6
		c-0.1-0.3-0.2-0.6-0.2-1v-5H459V3.7h1.4V1.1h2.3V3.7z"/>
	<path class="st0" d="M466.1,6.3c0-0.5,0.2-1,0.4-1.4c0.2-0.4,0.5-0.7,0.9-0.9c0.4-0.2,0.8-0.4,1.3-0.5s0.9-0.1,1.4-0.1
		c0.4,0,0.9,0,1.3,0.1c0.4,0.1,0.8,0.2,1.2,0.4s0.7,0.4,0.9,0.7s0.3,0.7,0.3,1.2v4.4c0,0.4,0,0.8,0.1,1.1s0.1,0.6,0.2,0.8h-2.4
		c0-0.1-0.1-0.3-0.1-0.4c0-0.1,0-0.3-0.1-0.4c-0.4,0.4-0.8,0.7-1.3,0.8s-1,0.2-1.5,0.2c-0.4,0-0.8-0.1-1.1-0.2
		c-0.4-0.1-0.7-0.3-0.9-0.5c-0.3-0.2-0.5-0.5-0.6-0.8c-0.1-0.3-0.2-0.7-0.2-1.1c0-0.5,0.1-0.9,0.2-1.2c0.2-0.3,0.4-0.6,0.7-0.7
		s0.6-0.3,0.9-0.4c0.3-0.1,0.7-0.2,1.1-0.2c0.4-0.1,0.7-0.1,1-0.1c0.3,0,0.6-0.1,0.9-0.1c0.3-0.1,0.5-0.2,0.6-0.3
		c0.2-0.1,0.2-0.3,0.2-0.6c0-0.3,0-0.5-0.1-0.6c-0.1-0.1-0.2-0.3-0.3-0.3c-0.1-0.1-0.3-0.1-0.5-0.2c-0.2,0-0.4,0-0.6,0
		c-0.5,0-0.8,0.1-1.1,0.3c-0.3,0.2-0.4,0.5-0.5,1H466.1z M471.5,8c-0.1,0.1-0.2,0.2-0.4,0.2c-0.1,0-0.3,0.1-0.5,0.1
		c-0.2,0-0.4,0.1-0.5,0.1c-0.2,0-0.4,0-0.6,0.1c-0.2,0-0.4,0.1-0.5,0.1c-0.2,0.1-0.3,0.1-0.4,0.2c-0.1,0.1-0.2,0.2-0.3,0.4
		c-0.1,0.1-0.1,0.3-0.1,0.5c0,0.2,0,0.4,0.1,0.5c0.1,0.1,0.2,0.2,0.3,0.3c0.1,0.1,0.3,0.1,0.5,0.2c0.2,0,0.4,0,0.5,0
		c0.5,0,0.8-0.1,1.1-0.2c0.3-0.2,0.4-0.3,0.6-0.6c0.1-0.2,0.2-0.4,0.2-0.7s0-0.4,0-0.5V8z"/>
	<path class="st0" d="M482.1,6.7c-0.2-1-0.7-1.5-1.7-1.5c-0.4,0-0.7,0.1-0.9,0.3c-0.3,0.2-0.5,0.4-0.6,0.7s-0.3,0.6-0.3,0.9
		c-0.1,0.3-0.1,0.6-0.1,1c0,0.3,0,0.6,0.1,0.9c0.1,0.3,0.2,0.6,0.3,0.9c0.1,0.3,0.3,0.5,0.6,0.6c0.3,0.2,0.6,0.2,0.9,0.2
		c0.5,0,1-0.2,1.3-0.5s0.5-0.7,0.6-1.3h2.3c-0.2,1.1-0.6,2-1.3,2.6s-1.7,0.9-2.8,0.9c-0.6,0-1.2-0.1-1.8-0.3c-0.5-0.2-1-0.5-1.4-0.9
		c-0.4-0.4-0.7-0.9-0.9-1.4c-0.2-0.5-0.3-1.1-0.3-1.8c0-0.7,0.1-1.3,0.3-1.8c0.2-0.6,0.5-1.1,0.8-1.5c0.4-0.4,0.8-0.7,1.4-1
		c0.5-0.2,1.2-0.3,1.8-0.3c0.5,0,1,0.1,1.5,0.2s0.9,0.3,1.2,0.6s0.7,0.6,0.9,1c0.2,0.4,0.4,0.9,0.4,1.4H482.1z"/>
	<path class="st0" d="M488.9,2.4h-2.3V0.4h2.3V2.4z M486.5,3.7h2.3v8.5h-2.3V3.7z"/>
	<path class="st0" d="M491.1,8c0-0.7,0.1-1.3,0.3-1.9c0.2-0.6,0.5-1,0.9-1.4c0.4-0.4,0.8-0.7,1.4-0.9c0.5-0.2,1.1-0.3,1.8-0.3
		c0.7,0,1.3,0.1,1.8,0.3c0.5,0.2,1,0.5,1.4,0.9c0.4,0.4,0.7,0.9,0.9,1.4c0.2,0.6,0.3,1.2,0.3,1.9c0,0.7-0.1,1.3-0.3,1.8
		c-0.2,0.5-0.5,1-0.9,1.4c-0.4,0.4-0.8,0.7-1.4,0.9c-0.5,0.2-1.2,0.3-1.8,0.3c-0.7,0-1.3-0.1-1.8-0.3c-0.5-0.2-1-0.5-1.4-0.9
		c-0.4-0.4-0.7-0.9-0.9-1.4C491.2,9.3,491.1,8.6,491.1,8z M493.4,8c0,0.3,0,0.7,0.1,1c0.1,0.3,0.2,0.6,0.3,0.9
		c0.2,0.3,0.4,0.5,0.6,0.6c0.3,0.2,0.6,0.2,1,0.2c0.4,0,0.7-0.1,1-0.2c0.3-0.2,0.5-0.4,0.6-0.6c0.2-0.3,0.3-0.5,0.3-0.9
		c0.1-0.3,0.1-0.7,0.1-1c0-0.3,0-0.7-0.1-1c-0.1-0.3-0.2-0.6-0.3-0.9s-0.4-0.5-0.6-0.6c-0.3-0.2-0.6-0.2-1-0.2c-0.4,0-0.7,0.1-1,0.2
		c-0.3,0.2-0.5,0.4-0.6,0.6s-0.3,0.5-0.3,0.9C493.5,7.3,493.4,7.6,493.4,8z M495.9,2.6h-1.6l1.6-2.3h2.6L495.9,2.6z"/>
	<path class="st0" d="M502.1,3.7h2.2v1.2h0c0.3-0.5,0.7-0.8,1.2-1.1c0.5-0.2,1-0.3,1.5-0.3c0.6,0,1.1,0.1,1.5,0.3
		c0.4,0.2,0.7,0.4,0.9,0.7c0.2,0.3,0.4,0.7,0.5,1.1c0.1,0.4,0.1,0.9,0.1,1.4v5.2h-2.3V7.4c0-0.7-0.1-1.2-0.3-1.6
		c-0.2-0.3-0.6-0.5-1.2-0.5c-0.6,0-1.1,0.2-1.4,0.6c-0.3,0.4-0.4,1-0.4,1.9v4.5h-2.3V3.7z"/>
	<path class="st0" d="M517.8,3.7h2.2v1.2h0c0.3-0.5,0.7-0.8,1.2-1.1c0.5-0.2,1-0.3,1.5-0.3c0.6,0,1.1,0.1,1.5,0.3
		c0.4,0.2,0.7,0.4,0.9,0.7c0.2,0.3,0.4,0.7,0.5,1.1c0.1,0.4,0.1,0.9,0.1,1.4v5.2h-2.3V7.4c0-0.7-0.1-1.2-0.3-1.6
		c-0.2-0.3-0.6-0.5-1.2-0.5c-0.6,0-1.1,0.2-1.4,0.6c-0.3,0.4-0.4,1-0.4,1.9v4.5h-2.3V3.7z"/>
	<path class="st0" d="M530.1,8.5c0,0.7,0.2,1.3,0.6,1.6c0.4,0.3,0.9,0.5,1.5,0.5c0.5,0,0.9-0.1,1.2-0.4c0.3-0.2,0.5-0.5,0.6-0.7h2.1
		c-0.3,1-0.8,1.7-1.5,2.2s-1.5,0.7-2.5,0.7c-0.7,0-1.3-0.1-1.8-0.3c-0.5-0.2-1-0.5-1.4-0.9c-0.4-0.4-0.7-0.9-0.9-1.4
		c-0.2-0.5-0.3-1.2-0.3-1.8c0-0.6,0.1-1.2,0.3-1.8c0.2-0.5,0.5-1,0.9-1.4c0.4-0.4,0.8-0.7,1.4-0.9c0.5-0.2,1.1-0.3,1.8-0.3
		c0.7,0,1.4,0.1,1.9,0.4c0.5,0.3,1,0.7,1.3,1.1s0.6,1,0.7,1.6c0.2,0.6,0.2,1.2,0.2,1.9H530.1z M533.9,7c-0.1-0.6-0.3-1-0.6-1.4
		c-0.3-0.3-0.7-0.5-1.3-0.5c-0.4,0-0.7,0.1-0.9,0.2c-0.2,0.1-0.4,0.3-0.6,0.5c-0.1,0.2-0.3,0.4-0.3,0.6c-0.1,0.2-0.1,0.4-0.1,0.6
		H533.9z"/>
	<path class="st0" d="M546.5,11.7c0,0.2,0,0.5-0.1,0.8c0,0.3-0.1,0.6-0.2,0.8c-0.1,0.3-0.3,0.5-0.5,0.8c-0.2,0.3-0.5,0.5-0.8,0.7
		c-0.3,0.2-0.7,0.4-1.2,0.5c-0.5,0.1-1,0.2-1.7,0.2c-0.4,0-0.8-0.1-1.3-0.2c-0.4-0.1-0.8-0.3-1.2-0.5c-0.4-0.2-0.7-0.5-0.9-0.8
		s-0.4-0.8-0.4-1.2h2.3c0.1,0.4,0.3,0.7,0.6,0.9s0.7,0.3,1.1,0.3c0.6,0,1.1-0.2,1.4-0.6c0.3-0.4,0.5-0.9,0.4-1.5v-1.1h0
		c-0.3,0.5-0.6,0.8-1.1,1c-0.5,0.2-1,0.3-1.5,0.3c-0.6,0-1.2-0.1-1.6-0.3c-0.5-0.2-0.8-0.5-1.1-0.9c-0.3-0.4-0.5-0.8-0.7-1.4
		c-0.1-0.5-0.2-1.1-0.2-1.7c0-0.5,0.1-1.1,0.2-1.6c0.2-0.5,0.4-1,0.7-1.4c0.3-0.4,0.7-0.7,1.1-0.9c0.5-0.2,1-0.3,1.6-0.3
		c0.6,0,1.1,0.1,1.5,0.3s0.8,0.6,1.1,1.1h0V3.7h2.2V11.7z M542.3,10.2c0.3,0,0.6-0.1,0.9-0.2c0.3-0.1,0.5-0.3,0.6-0.5
		c0.2-0.2,0.3-0.5,0.4-0.7c0.1-0.3,0.1-0.6,0.1-0.9c0-0.3,0-0.7-0.1-1c-0.1-0.3-0.2-0.6-0.3-0.8c-0.2-0.2-0.4-0.4-0.6-0.6
		c-0.3-0.1-0.6-0.2-0.9-0.2c-0.3,0-0.6,0.1-0.8,0.2S541,5.7,540.8,6s-0.3,0.5-0.3,0.8c-0.1,0.3-0.1,0.6-0.1,0.9c0,0.3,0,0.6,0.1,0.9
		s0.2,0.6,0.3,0.8c0.1,0.2,0.3,0.4,0.6,0.6S541.9,10.2,542.3,10.2z"/>
	<path class="st0" d="M548.9,6.3c0-0.5,0.2-1,0.4-1.4c0.2-0.4,0.5-0.7,0.9-0.9c0.4-0.2,0.8-0.4,1.3-0.5s0.9-0.1,1.4-0.1
		c0.4,0,0.9,0,1.3,0.1c0.4,0.1,0.8,0.2,1.2,0.4s0.7,0.4,0.9,0.7s0.3,0.7,0.3,1.2v4.4c0,0.4,0,0.8,0.1,1.1s0.1,0.6,0.2,0.8h-2.4
		c0-0.1-0.1-0.3-0.1-0.4c0-0.1,0-0.3-0.1-0.4c-0.4,0.4-0.8,0.7-1.3,0.8s-1,0.2-1.5,0.2c-0.4,0-0.8-0.1-1.1-0.2
		c-0.4-0.1-0.7-0.3-0.9-0.5c-0.3-0.2-0.5-0.5-0.6-0.8c-0.1-0.3-0.2-0.7-0.2-1.1c0-0.5,0.1-0.9,0.2-1.2c0.2-0.3,0.4-0.6,0.7-0.7
		s0.6-0.3,0.9-0.4c0.3-0.1,0.7-0.2,1.1-0.2c0.4-0.1,0.7-0.1,1-0.1c0.3,0,0.6-0.1,0.9-0.1c0.3-0.1,0.5-0.2,0.6-0.3
		c0.2-0.1,0.2-0.3,0.2-0.6c0-0.3,0-0.5-0.1-0.6c-0.1-0.1-0.2-0.3-0.3-0.3c-0.1-0.1-0.3-0.1-0.5-0.2c-0.2,0-0.4,0-0.6,0
		c-0.5,0-0.8,0.1-1.1,0.3c-0.3,0.2-0.4,0.5-0.5,1H548.9z M554.3,8c-0.1,0.1-0.2,0.2-0.4,0.2c-0.1,0-0.3,0.1-0.5,0.1
		c-0.2,0-0.4,0.1-0.5,0.1c-0.2,0-0.4,0-0.6,0.1c-0.2,0-0.4,0.1-0.5,0.1c-0.2,0.1-0.3,0.1-0.4,0.2c-0.1,0.1-0.2,0.2-0.3,0.4
		C551,9.4,551,9.6,551,9.8c0,0.2,0,0.4,0.1,0.5c0.1,0.1,0.2,0.2,0.3,0.3c0.1,0.1,0.3,0.1,0.5,0.2c0.2,0,0.4,0,0.5,0
		c0.5,0,0.8-0.1,1.1-0.2c0.3-0.2,0.4-0.3,0.6-0.6c0.1-0.2,0.2-0.4,0.2-0.7s0-0.4,0-0.5V8z"/>
	<path class="st0" d="M562.1,3.7h1.7v1.6h-1.7v4.2c0,0.4,0.1,0.7,0.2,0.8s0.4,0.2,0.8,0.2c0.3,0,0.5,0,0.7-0.1v1.8
		c-0.2,0-0.4,0.1-0.7,0.1c-0.2,0-0.5,0-0.7,0c-0.4,0-0.7,0-1-0.1c-0.3,0-0.6-0.1-0.9-0.3c-0.2-0.1-0.4-0.4-0.6-0.6
		c-0.1-0.3-0.2-0.6-0.2-1v-5h-1.4V3.7h1.4V1.1h2.3V3.7z"/>
	<path class="st0" d="M568,2.4h-2.3V0.4h2.3V2.4z M565.7,3.7h2.3v8.5h-2.3V3.7z"/>
	<path class="st0" d="M575.2,12.2h-2.6l-2.9-8.5h2.5l1.8,5.8h0l1.8-5.8h2.3L575.2,12.2z"/>
	<path class="st0" d="M579.6,6.3c0-0.5,0.2-1,0.4-1.4c0.2-0.4,0.5-0.7,0.9-0.9c0.4-0.2,0.8-0.4,1.3-0.5s0.9-0.1,1.4-0.1
		c0.4,0,0.9,0,1.3,0.1c0.4,0.1,0.8,0.2,1.2,0.4s0.7,0.4,0.9,0.7s0.3,0.7,0.3,1.2v4.4c0,0.4,0,0.8,0.1,1.1s0.1,0.6,0.2,0.8h-2.4
		c0-0.1-0.1-0.3-0.1-0.4c0-0.1,0-0.3-0.1-0.4c-0.4,0.4-0.8,0.7-1.3,0.8s-1,0.2-1.5,0.2c-0.4,0-0.8-0.1-1.1-0.2
		c-0.4-0.1-0.7-0.3-0.9-0.5c-0.3-0.2-0.5-0.5-0.6-0.8c-0.1-0.3-0.2-0.7-0.2-1.1c0-0.5,0.1-0.9,0.2-1.2c0.2-0.3,0.4-0.6,0.7-0.7
		s0.6-0.3,0.9-0.4c0.3-0.1,0.7-0.2,1.1-0.2c0.4-0.1,0.7-0.1,1-0.1c0.3,0,0.6-0.1,0.9-0.1c0.3-0.1,0.5-0.2,0.6-0.3
		c0.2-0.1,0.2-0.3,0.2-0.6c0-0.3,0-0.5-0.1-0.6c-0.1-0.1-0.2-0.3-0.3-0.3c-0.1-0.1-0.3-0.1-0.5-0.2c-0.2,0-0.4,0-0.6,0
		c-0.5,0-0.8,0.1-1.1,0.3c-0.3,0.2-0.4,0.5-0.5,1H579.6z M585,8c-0.1,0.1-0.2,0.2-0.4,0.2c-0.1,0-0.3,0.1-0.5,0.1
		c-0.2,0-0.4,0.1-0.5,0.1c-0.2,0-0.4,0-0.6,0.1c-0.2,0-0.4,0.1-0.5,0.1c-0.2,0.1-0.3,0.1-0.4,0.2c-0.1,0.1-0.2,0.2-0.3,0.4
		c-0.1,0.1-0.1,0.3-0.1,0.5c0,0.2,0,0.4,0.1,0.5c0.1,0.1,0.2,0.2,0.3,0.3c0.1,0.1,0.3,0.1,0.5,0.2c0.2,0,0.4,0,0.5,0
		c0.5,0,0.8-0.1,1.1-0.2c0.3-0.2,0.4-0.3,0.6-0.6c0.1-0.2,0.2-0.4,0.2-0.7s0-0.4,0-0.5V8z"/>
	<path class="st0" d="M601.2,11.1L601.2,11.1c-0.3,0.5-0.7,0.8-1.1,1s-1,0.3-1.5,0.3c-0.6,0-1.2-0.1-1.7-0.4s-0.9-0.6-1.2-1
		c-0.3-0.4-0.5-0.9-0.7-1.5c-0.2-0.5-0.2-1.1-0.2-1.7c0-0.6,0.1-1.1,0.2-1.7c0.2-0.5,0.4-1,0.7-1.4c0.3-0.4,0.7-0.7,1.2-1
		c0.5-0.2,1-0.4,1.6-0.4c0.5,0,1,0.1,1.4,0.3c0.5,0.2,0.8,0.5,1.1,0.9h0V0.4h2.3v11.8h-2.2V11.1z M601.1,7.9c0-0.3,0-0.7-0.1-1
		s-0.2-0.6-0.3-0.9s-0.4-0.4-0.6-0.6s-0.6-0.2-0.9-0.2c-0.4,0-0.7,0.1-1,0.2s-0.5,0.4-0.6,0.6c-0.2,0.3-0.3,0.5-0.3,0.9
		c-0.1,0.3-0.1,0.7-0.1,1c0,0.3,0,0.7,0.1,1c0.1,0.3,0.2,0.6,0.4,0.9c0.2,0.3,0.4,0.5,0.6,0.6s0.6,0.2,0.9,0.2c0.4,0,0.7-0.1,1-0.2
		c0.3-0.2,0.5-0.4,0.6-0.6c0.2-0.3,0.3-0.6,0.3-0.9C601.1,8.6,601.1,8.3,601.1,7.9z"/>
	<path class="st0" d="M607.7,8.5c0,0.7,0.2,1.3,0.6,1.6c0.4,0.3,0.9,0.5,1.5,0.5c0.5,0,0.9-0.1,1.2-0.4c0.3-0.2,0.5-0.5,0.6-0.7h2.1
		c-0.3,1-0.8,1.7-1.5,2.2s-1.5,0.7-2.5,0.7c-0.7,0-1.3-0.1-1.8-0.3c-0.5-0.2-1-0.5-1.4-0.9c-0.4-0.4-0.7-0.9-0.9-1.4
		c-0.2-0.5-0.3-1.2-0.3-1.8c0-0.6,0.1-1.2,0.3-1.8c0.2-0.5,0.5-1,0.9-1.4c0.4-0.4,0.8-0.7,1.4-0.9c0.5-0.2,1.1-0.3,1.8-0.3
		c0.7,0,1.4,0.1,1.9,0.4c0.5,0.3,1,0.7,1.3,1.1s0.6,1,0.7,1.6c0.2,0.6,0.2,1.2,0.2,1.9H607.7z M611.5,7c-0.1-0.6-0.3-1-0.6-1.4
		c-0.3-0.3-0.7-0.5-1.3-0.5c-0.4,0-0.7,0.1-0.9,0.2c-0.2,0.1-0.4,0.3-0.6,0.5c-0.1,0.2-0.3,0.4-0.3,0.6c-0.1,0.2-0.1,0.4-0.1,0.6
		H611.5z"/>
	<path class="st0" d="M616,0.4h2.3v11.8H616V0.4z"/>
	<path class="st0" d="M631.9,6.7c-0.2-1-0.7-1.5-1.7-1.5c-0.4,0-0.7,0.1-0.9,0.3c-0.3,0.2-0.5,0.4-0.6,0.7s-0.3,0.6-0.3,0.9
		c-0.1,0.3-0.1,0.6-0.1,1c0,0.3,0,0.6,0.1,0.9c0.1,0.3,0.2,0.6,0.3,0.9c0.1,0.3,0.3,0.5,0.6,0.6c0.3,0.2,0.6,0.2,0.9,0.2
		c0.5,0,1-0.2,1.3-0.5s0.5-0.7,0.6-1.3h2.3c-0.2,1.1-0.6,2-1.3,2.6s-1.7,0.9-2.8,0.9c-0.6,0-1.2-0.1-1.8-0.3c-0.5-0.2-1-0.5-1.4-0.9
		c-0.4-0.4-0.7-0.9-0.9-1.4c-0.2-0.5-0.3-1.1-0.3-1.8c0-0.7,0.1-1.3,0.3-1.8c0.2-0.6,0.5-1.1,0.8-1.5c0.4-0.4,0.8-0.7,1.4-1
		c0.5-0.2,1.2-0.3,1.8-0.3c0.5,0,1,0.1,1.5,0.2s0.9,0.3,1.2,0.6s0.7,0.6,0.9,1c0.2,0.4,0.4,0.9,0.4,1.4H631.9z"/>
	<path class="st0" d="M635.9,8c0-0.7,0.1-1.3,0.3-1.9c0.2-0.6,0.5-1,0.9-1.4c0.4-0.4,0.8-0.7,1.4-0.9c0.5-0.2,1.1-0.3,1.8-0.3
		c0.7,0,1.3,0.1,1.8,0.3c0.5,0.2,1,0.5,1.4,0.9c0.4,0.4,0.7,0.9,0.9,1.4c0.2,0.6,0.3,1.2,0.3,1.9c0,0.7-0.1,1.3-0.3,1.8
		c-0.2,0.5-0.5,1-0.9,1.4c-0.4,0.4-0.8,0.7-1.4,0.9c-0.5,0.2-1.2,0.3-1.8,0.3c-0.7,0-1.3-0.1-1.8-0.3c-0.5-0.2-1-0.5-1.4-0.9
		c-0.4-0.4-0.7-0.9-0.9-1.4C636,9.3,635.9,8.6,635.9,8z M638.3,8c0,0.3,0,0.7,0.1,1c0.1,0.3,0.2,0.6,0.3,0.9
		c0.2,0.3,0.4,0.5,0.6,0.6c0.3,0.2,0.6,0.2,1,0.2c0.4,0,0.7-0.1,1-0.2c0.3-0.2,0.5-0.4,0.6-0.6c0.2-0.3,0.3-0.5,0.3-0.9
		c0.1-0.3,0.1-0.7,0.1-1c0-0.3,0-0.7-0.1-1c-0.1-0.3-0.2-0.6-0.3-0.9s-0.4-0.5-0.6-0.6c-0.3-0.2-0.6-0.2-1-0.2c-0.4,0-0.7,0.1-1,0.2
		c-0.3,0.2-0.5,0.4-0.6,0.6s-0.3,0.5-0.3,0.9C638.3,7.3,638.3,7.6,638.3,8z"/>
	<path class="st0" d="M646.9,3.7h2.2v1.6h0c0.1-0.3,0.3-0.5,0.4-0.7c0.2-0.2,0.4-0.4,0.6-0.6c0.2-0.2,0.5-0.3,0.8-0.4
		s0.6-0.1,0.8-0.1c0.2,0,0.3,0,0.5,0.1v2.2c-0.1,0-0.2,0-0.4-0.1c-0.2,0-0.3,0-0.4,0c-0.4,0-0.8,0.1-1.1,0.2
		c-0.3,0.1-0.5,0.3-0.7,0.6c-0.2,0.2-0.3,0.5-0.4,0.9s-0.1,0.7-0.1,1.1v3.8h-2.3V3.7z"/>
	<path class="st0" d="M656.9,3.7h1.7v1.6h-1.7v4.2c0,0.4,0.1,0.7,0.2,0.8s0.4,0.2,0.8,0.2c0.3,0,0.5,0,0.7-0.1v1.8
		c-0.2,0-0.4,0.1-0.7,0.1c-0.2,0-0.5,0-0.7,0c-0.4,0-0.7,0-1-0.1c-0.3,0-0.6-0.1-0.9-0.3c-0.2-0.1-0.4-0.4-0.6-0.6
		c-0.1-0.3-0.2-0.6-0.2-1v-5h-1.4V3.7h1.4V1.1h2.3V3.7z"/>
	<path class="st0" d="M662.8,2.4h-2.3V0.4h2.3V2.4z M660.5,3.7h2.3v8.5h-2.3V3.7z"/>
	<path class="st0" d="M667.1,9.4c0,0.3,0.1,0.5,0.2,0.7s0.2,0.3,0.4,0.4c0.2,0.1,0.4,0.2,0.6,0.3c0.2,0.1,0.4,0.1,0.7,0.1
		c0.2,0,0.3,0,0.5-0.1c0.2,0,0.3-0.1,0.5-0.2c0.1-0.1,0.3-0.2,0.4-0.3c0.1-0.1,0.1-0.3,0.1-0.5c0-0.2-0.1-0.3-0.2-0.5
		c-0.1-0.1-0.3-0.2-0.5-0.3c-0.2-0.1-0.5-0.2-0.8-0.3c-0.3-0.1-0.7-0.2-1.1-0.3c-0.3-0.1-0.7-0.2-1-0.3c-0.3-0.1-0.6-0.2-0.9-0.4
		c-0.3-0.2-0.5-0.4-0.6-0.6c-0.2-0.3-0.2-0.6-0.2-0.9c0-0.5,0.1-1,0.3-1.3c0.2-0.4,0.5-0.6,0.8-0.8s0.7-0.3,1.2-0.4
		c0.4-0.1,0.9-0.1,1.4-0.1c0.5,0,0.9,0,1.3,0.1c0.4,0.1,0.8,0.2,1.2,0.4c0.3,0.2,0.6,0.5,0.8,0.8c0.2,0.3,0.4,0.8,0.4,1.3h-2.2
		c0-0.5-0.2-0.8-0.5-0.9c-0.3-0.2-0.7-0.2-1.1-0.2c-0.1,0-0.3,0-0.4,0c-0.2,0-0.3,0.1-0.4,0.1c-0.1,0.1-0.2,0.1-0.3,0.2
		s-0.1,0.2-0.1,0.4c0,0.2,0.1,0.4,0.2,0.5c0.2,0.1,0.4,0.2,0.6,0.3c0.2,0.1,0.5,0.2,0.8,0.2s0.6,0.1,1,0.2c0.3,0.1,0.7,0.2,1,0.3
		c0.3,0.1,0.6,0.3,0.9,0.4c0.3,0.2,0.5,0.4,0.6,0.7c0.2,0.3,0.2,0.6,0.2,1c0,0.6-0.1,1-0.3,1.4c-0.2,0.4-0.5,0.7-0.9,0.9
		c-0.4,0.2-0.8,0.4-1.2,0.5c-0.5,0.1-0.9,0.1-1.4,0.1c-0.5,0-1,0-1.4-0.1c-0.5-0.1-0.9-0.3-1.3-0.5s-0.7-0.5-0.9-0.9
		c-0.2-0.4-0.4-0.9-0.4-1.4H667.1z"/>
	<path class="st0" d="M674.6,8c0-0.7,0.1-1.3,0.3-1.9c0.2-0.6,0.5-1,0.9-1.4c0.4-0.4,0.8-0.7,1.4-0.9c0.5-0.2,1.1-0.3,1.8-0.3
		c0.7,0,1.3,0.1,1.8,0.3c0.5,0.2,1,0.5,1.4,0.9c0.4,0.4,0.7,0.9,0.9,1.4c0.2,0.6,0.3,1.2,0.3,1.9c0,0.7-0.1,1.3-0.3,1.8
		c-0.2,0.5-0.5,1-0.9,1.4c-0.4,0.4-0.8,0.7-1.4,0.9c-0.5,0.2-1.2,0.3-1.8,0.3c-0.7,0-1.3-0.1-1.8-0.3c-0.5-0.2-1-0.5-1.4-0.9
		c-0.4-0.4-0.7-0.9-0.9-1.4C674.7,9.3,674.6,8.6,674.6,8z M676.9,8c0,0.3,0,0.7,0.1,1c0.1,0.3,0.2,0.6,0.3,0.9
		c0.2,0.3,0.4,0.5,0.6,0.6c0.3,0.2,0.6,0.2,1,0.2c0.4,0,0.7-0.1,1-0.2c0.3-0.2,0.5-0.4,0.6-0.6c0.2-0.3,0.3-0.5,0.3-0.9
		c0.1-0.3,0.1-0.7,0.1-1c0-0.3,0-0.7-0.1-1c-0.1-0.3-0.2-0.6-0.3-0.9s-0.4-0.5-0.6-0.6c-0.3-0.2-0.6-0.2-1-0.2c-0.4,0-0.7,0.1-1,0.2
		c-0.3,0.2-0.5,0.4-0.6,0.6S677.1,6.6,677,7C676.9,7.3,676.9,7.6,676.9,8z"/>
	<path class="st0" d="M685.6,0.4h2.3v11.8h-2.3V0.4z"/>
	<path class="st0" d="M690.6,9.7h2.6v2.5h-2.6V9.7z"/>
	<path class="st0" d="M698.6,6.7h-1.4V2.4h-1.7v-1c0.2,0,0.5,0,0.7-0.1c0.2,0,0.4-0.1,0.6-0.2c0.2-0.1,0.3-0.2,0.4-0.4
		c0.1-0.2,0.2-0.4,0.2-0.6h1.1V6.7z"/>
</g>
</svg>
