<!-- Generator: Adobe Illustrator 20.1.0, SVG Export Plug-In  -->
<svg version="1.1"
	 xmlns="http://www.w3.org/2000/svg" xmlns:xlink="http://www.w3.org/1999/xlink" xmlns:a="http://ns.adobe.com/AdobeSVGViewerExtensions/3.0/"
	 x="0px" y="0px" width="49px" height="8.8px" viewBox="0 0 49 8.8" style="overflow:scroll;enable-background:new 0 0 49 8.8;"
	 xml:space="preserve">
<style type="text/css">
	.st0{fill:#58595B;}
</style>
<defs>
</defs>
<g>
	<g>
		<path class="st0" d="M0.2,3.7C0.3,3.4,0.4,3.2,0.6,3C0.8,2.9,1,2.7,1.3,2.6c0.3-0.1,0.5-0.2,0.8-0.2c0.3,0,0.6,0.1,0.8,0.2
			C3.1,2.7,3.3,2.9,3.5,3C3.7,3.2,3.9,3.4,4,3.7s0.2,0.5,0.2,0.8S4.1,5.1,4,5.3C3.9,5.6,3.7,5.8,3.5,6C3.3,6.2,3.1,6.3,2.9,6.4
			C2.6,6.5,2.4,6.6,2.1,6.6c-0.3,0-0.6-0.1-0.8-0.2C1,6.3,0.8,6.2,0.6,6C0.4,5.8,0.3,5.6,0.2,5.3C0.1,5.1,0,4.8,0,4.5
			S0.1,3.9,0.2,3.7z"/>
		<path class="st0" d="M11.7,0.4V1H8.8v7.6H8V1H5.2V0.4H11.7z"/>
		<path class="st0" d="M13.3,0.4v1.2h-0.7V0.4H13.3z M13.3,2.7v6h-0.7v-6H13.3z"/>
		<path class="st0" d="M15.7,2.7v1h0c0.1-0.4,0.4-0.7,0.7-0.9s0.7-0.3,1.2-0.3c0.4,0,0.8,0.1,1.1,0.2c0.3,0.1,0.5,0.3,0.7,0.5
			c0.2,0.2,0.3,0.4,0.4,0.7c0.1,0.3,0.1,0.6,0.1,1v3.9h-0.7V4.9c0-0.3,0-0.5-0.1-0.7c0-0.2-0.1-0.4-0.2-0.6
			c-0.1-0.2-0.3-0.3-0.5-0.4c-0.2-0.1-0.4-0.1-0.7-0.1S17,3.1,16.8,3.3c-0.2,0.1-0.4,0.2-0.6,0.4s-0.3,0.4-0.4,0.7
			c-0.1,0.3-0.1,0.5-0.1,0.8v3.5H15v-6H15.7z"/>
		<path class="st0" d="M22.2,2.7v1h0c0.1-0.4,0.4-0.7,0.7-0.9s0.7-0.3,1.2-0.3c0.4,0,0.8,0.1,1.1,0.2c0.3,0.1,0.5,0.3,0.7,0.5
			c0.2,0.2,0.3,0.4,0.4,0.7c0.1,0.3,0.1,0.6,0.1,1v3.9h-0.7V4.9c0-0.3,0-0.5-0.1-0.7c0-0.2-0.1-0.4-0.2-0.6
			c-0.1-0.2-0.3-0.3-0.5-0.4c-0.2-0.1-0.4-0.1-0.7-0.1s-0.6,0.1-0.8,0.2c-0.2,0.1-0.4,0.2-0.6,0.4s-0.3,0.4-0.4,0.7
			c-0.1,0.3-0.1,0.5-0.1,0.8v3.5h-0.7v-6H22.2z"/>
		<path class="st0" d="M28.7,0.4v1.2h-0.7V0.4H28.7z M28.7,2.7v6h-0.7v-6H28.7z"/>
		<path class="st0" d="M32.7,2.7v0.6h-1.2v4c0,0.2,0,0.4,0.1,0.6c0.1,0.1,0.2,0.2,0.5,0.2c0.2,0,0.4,0,0.6,0v0.6c-0.1,0-0.2,0-0.3,0
			s-0.2,0-0.3,0c-0.5,0-0.8-0.1-1-0.3c-0.2-0.2-0.3-0.5-0.3-1.1V3.3h-1V2.7h1V0.9h0.7v1.8H32.7z"/>
		<path class="st0" d="M38.2,8.7V7.6h0c-0.2,0.4-0.5,0.7-0.8,0.9c-0.4,0.2-0.8,0.3-1.2,0.3c-0.4,0-0.7-0.1-1-0.2s-0.5-0.3-0.7-0.4
			c-0.2-0.2-0.3-0.4-0.4-0.7S34,6.9,34,6.5V2.7h0.7v3.9c0,0.5,0.1,1,0.4,1.2s0.6,0.4,1.2,0.4c0.3,0,0.6-0.1,0.8-0.2
			c0.2-0.1,0.4-0.3,0.6-0.5C37.8,7.2,37.9,7,38,6.7c0.1-0.3,0.1-0.6,0.1-0.9V2.7h0.7v6H38.2z"/>
		<path class="st0" d="M43.9,3.8c-0.1-0.2-0.2-0.3-0.3-0.4c-0.1-0.1-0.3-0.2-0.5-0.2s-0.4-0.1-0.6-0.1c-0.2,0-0.3,0-0.5,0.1
			c-0.2,0-0.3,0.1-0.5,0.2c-0.1,0.1-0.3,0.2-0.3,0.3C41.1,3.8,41,3.9,41,4.1c0,0.2,0,0.3,0.1,0.4c0.1,0.1,0.2,0.2,0.3,0.3
			C41.6,4.9,41.7,5,41.9,5c0.1,0.1,0.3,0.1,0.4,0.1l1,0.2c0.2,0,0.4,0.1,0.6,0.2c0.2,0.1,0.4,0.2,0.5,0.3c0.2,0.1,0.3,0.3,0.4,0.5
			C44.9,6.5,45,6.8,45,7c0,0.3-0.1,0.6-0.2,0.8s-0.3,0.4-0.6,0.6c-0.2,0.1-0.5,0.2-0.8,0.3c-0.3,0.1-0.6,0.1-0.8,0.1
			c-0.7,0-1.3-0.2-1.7-0.5s-0.7-0.9-0.7-1.6h0.7c0,0.5,0.2,0.9,0.5,1.1c0.3,0.3,0.7,0.4,1.2,0.4c0.2,0,0.4,0,0.6-0.1S43.5,8,43.7,8
			c0.2-0.1,0.3-0.2,0.4-0.4c0.1-0.1,0.2-0.3,0.2-0.5c0-0.2,0-0.3-0.1-0.4c-0.1-0.1-0.2-0.2-0.3-0.3c-0.1-0.1-0.3-0.1-0.4-0.2
			C43.3,6.1,43.1,6,42.9,6L42,5.8c-0.2-0.1-0.5-0.1-0.7-0.2c-0.2-0.1-0.4-0.2-0.5-0.3c-0.2-0.1-0.3-0.3-0.4-0.4s-0.1-0.4-0.1-0.6
			c0-0.3,0.1-0.6,0.2-0.8C40.7,3.2,40.8,3,41,2.9c0.2-0.1,0.5-0.2,0.7-0.3c0.3-0.1,0.5-0.1,0.8-0.1c0.3,0,0.6,0,0.8,0.1
			c0.3,0.1,0.5,0.2,0.7,0.4s0.4,0.4,0.5,0.6c0.1,0.2,0.2,0.5,0.2,0.8H44C44,4.2,44,4,43.9,3.8z"/>
		<path class="st0" d="M46.3,3.8c0.1,0.2,0.1,0.3,0.2,0.4s0.2,0.2,0.4,0.3c0.2,0.1,0.3,0.1,0.5,0.1c0.2,0,0.3,0,0.5-0.1
			c0.1,0,0.3-0.1,0.4-0.2s0.2-0.2,0.3-0.3c0.1-0.1,0.1-0.3,0.1-0.4c0-0.2,0-0.3-0.1-0.4c-0.1-0.1-0.1-0.2-0.2-0.3
			c-0.1-0.1-0.2-0.1-0.4-0.2c-0.1,0-0.3-0.1-0.4-0.1h-0.4V2.1h0.4c0.1,0,0.2,0,0.3-0.1C47.9,2,48,2,48.1,1.9
			c0.1-0.1,0.2-0.2,0.2-0.3s0.1-0.2,0.1-0.4c0-0.2,0-0.3-0.1-0.4c-0.1-0.1-0.1-0.2-0.2-0.3c-0.1-0.1-0.2-0.1-0.3-0.2
			c-0.1,0-0.3-0.1-0.4-0.1c-0.2,0-0.3,0-0.5,0.1s-0.2,0.1-0.3,0.2c-0.1,0.1-0.2,0.2-0.2,0.4c0,0.1-0.1,0.3-0.1,0.5h-0.4
			c0-0.2,0-0.4,0.1-0.6c0.1-0.2,0.2-0.4,0.3-0.5c0.1-0.1,0.3-0.2,0.5-0.3C47,0,47.2,0,47.4,0c0.2,0,0.4,0,0.5,0.1
			c0.2,0,0.3,0.1,0.5,0.2s0.2,0.2,0.3,0.4c0.1,0.2,0.1,0.3,0.1,0.5c0,0.3-0.1,0.5-0.2,0.7c-0.1,0.2-0.3,0.3-0.6,0.4v0
			c0.3,0,0.6,0.2,0.7,0.4C49,2.9,49,3.1,49,3.4c0,0.2,0,0.4-0.1,0.6c-0.1,0.2-0.2,0.3-0.4,0.5S48.2,4.7,48,4.8
			c-0.2,0.1-0.4,0.1-0.6,0.1c-0.2,0-0.5,0-0.7-0.1c-0.2-0.1-0.4-0.2-0.5-0.3C46.1,4.3,46,4.2,45.9,4c-0.1-0.2-0.1-0.4-0.1-0.7h0.4
			C46.2,3.5,46.2,3.6,46.3,3.8z"/>
	</g>
</g>
</svg>
