<!-- Generator: Adobe Illustrator 20.1.0, SVG Export Plug-In  -->
<svg version="1.1"
	 xmlns="http://www.w3.org/2000/svg" xmlns:xlink="http://www.w3.org/1999/xlink" xmlns:a="http://ns.adobe.com/AdobeSVGViewerExtensions/3.0/"
	 x="0px" y="0px" width="79.4px" height="36.3px" viewBox="0 0 79.4 36.3"
	 style="overflow:scroll;enable-background:new 0 0 79.4 36.3;" xml:space="preserve">
<style type="text/css">
	.st0{fill:#58595B;}
</style>
<defs>
</defs>
<g>
	<g>
		<path class="st0" d="M0.2,3.3c0.1-0.3,0.3-0.5,0.4-0.7C0.8,2.5,1,2.4,1.3,2.2c0.3-0.1,0.5-0.2,0.8-0.2c0.3,0,0.6,0.1,0.8,0.2
			c0.3,0.1,0.5,0.3,0.7,0.4C3.7,2.9,3.9,3.1,4,3.3c0.1,0.3,0.2,0.5,0.2,0.8C4.1,4.4,4.1,4.7,4,5C3.9,5.2,3.7,5.4,3.5,5.6
			C3.3,5.8,3.1,6,2.9,6.1C2.6,6.2,2.4,6.2,2.1,6.2c-0.3,0-0.6-0.1-0.8-0.2C1,6,0.8,5.8,0.6,5.6C0.4,5.4,0.3,5.2,0.2,5
			C0.1,4.7,0,4.4,0,4.1C0,3.9,0.1,3.6,0.2,3.3z"/>
		<path class="st0" d="M9.4,0l3.3,8.3h-0.8l-1-2.6H7L6,8.3H5.1L8.5,0H9.4z M10.5,5L8.9,0.8L7.2,5H10.5z"/>
		<path class="st0" d="M17.6,8.3V7.2h0c-0.2,0.4-0.5,0.7-0.8,0.9c-0.4,0.2-0.8,0.3-1.2,0.3c-0.4,0-0.7-0.1-1-0.2S14.1,8,13.9,7.9
			c-0.2-0.2-0.3-0.4-0.4-0.7c-0.1-0.3-0.1-0.6-0.1-1V2.3h0.7v3.9c0,0.5,0.1,1,0.4,1.2c0.2,0.3,0.6,0.4,1.2,0.4
			c0.3,0,0.6-0.1,0.8-0.2s0.4-0.3,0.6-0.5c0.1-0.2,0.3-0.5,0.3-0.8c0.1-0.3,0.1-0.6,0.1-0.9V2.3h0.7v6H17.6z"/>
		<path class="st0" d="M20.6,2.3v1h0c0.2-0.4,0.4-0.7,0.8-0.9s0.7-0.3,1.2-0.3c0.4,0,0.8,0.1,1.1,0.3c0.3,0.2,0.5,0.5,0.6,0.9
			c0.2-0.4,0.4-0.7,0.8-0.9c0.3-0.2,0.7-0.3,1.1-0.3c1.3,0,2,0.7,2,2.1v4.1h-0.7v-4c0-0.5-0.1-0.9-0.3-1.1c-0.2-0.3-0.6-0.4-1.1-0.4
			c-0.3,0-0.6,0.1-0.8,0.2s-0.4,0.3-0.5,0.5s-0.2,0.4-0.3,0.7c-0.1,0.3-0.1,0.5-0.1,0.8v3.4h-0.7V4.2c0-0.2,0-0.4-0.1-0.6
			c0-0.2-0.1-0.3-0.2-0.5S23.2,2.9,23,2.9c-0.2-0.1-0.4-0.1-0.6-0.1c-0.3,0-0.6,0.1-0.8,0.2s-0.4,0.3-0.6,0.5
			c-0.1,0.2-0.3,0.4-0.3,0.7c-0.1,0.3-0.1,0.6-0.1,0.9v3.3h-0.7v-6H20.6z"/>
		<path class="st0" d="M30.4,6.3c0.1,0.3,0.2,0.5,0.4,0.8s0.4,0.4,0.6,0.6c0.2,0.1,0.5,0.2,0.9,0.2c0.5,0,1-0.1,1.3-0.4
			c0.3-0.3,0.5-0.7,0.6-1.1h0.7C34.7,7,34.4,7.5,34,7.9c-0.4,0.4-1,0.6-1.8,0.6c-0.5,0-0.9-0.1-1.2-0.3c-0.3-0.2-0.6-0.4-0.8-0.7
			c-0.2-0.3-0.4-0.6-0.5-1c-0.1-0.4-0.2-0.8-0.2-1.2c0-0.4,0.1-0.8,0.2-1.2c0.1-0.4,0.3-0.7,0.5-1c0.2-0.3,0.5-0.5,0.8-0.7
			c0.3-0.2,0.8-0.3,1.2-0.3c0.5,0,0.9,0.1,1.2,0.3c0.3,0.2,0.6,0.4,0.8,0.8s0.4,0.7,0.5,1.1c0.1,0.4,0.1,0.8,0.1,1.2h-4.6
			C30.3,5.8,30.3,6,30.4,6.3z M34,4.1c-0.1-0.3-0.2-0.5-0.4-0.7C33.5,3.2,33.3,3,33,2.9s-0.5-0.2-0.8-0.2c-0.3,0-0.6,0.1-0.8,0.2
			S31,3.2,30.8,3.4s-0.3,0.4-0.4,0.7c-0.1,0.3-0.2,0.5-0.2,0.8h3.9C34.1,4.6,34.1,4.3,34,4.1z"/>
		<path class="st0" d="M36.8,2.3v1h0C37,3,37.2,2.7,37.6,2.5s0.7-0.3,1.2-0.3c0.4,0,0.8,0.1,1.1,0.2c0.3,0.1,0.5,0.3,0.7,0.5
			c0.2,0.2,0.3,0.4,0.4,0.7c0.1,0.3,0.1,0.6,0.1,1v3.9h-0.7V4.6c0-0.3,0-0.5-0.1-0.7c0-0.2-0.1-0.4-0.2-0.6
			c-0.1-0.2-0.3-0.3-0.5-0.4c-0.2-0.1-0.4-0.1-0.7-0.1s-0.6,0.1-0.8,0.2s-0.4,0.2-0.6,0.4C37.2,3.5,37.1,3.7,37,4s-0.1,0.5-0.1,0.8
			v3.5h-0.7v-6H36.8z"/>
		<path class="st0" d="M45,2.3v0.6h-1.2v4c0,0.2,0,0.4,0.1,0.6c0.1,0.1,0.2,0.2,0.5,0.2c0.2,0,0.4,0,0.6,0v0.6c-0.1,0-0.2,0-0.3,0
			c-0.1,0-0.2,0-0.3,0c-0.5,0-0.8-0.1-1-0.3C43.1,7.9,43,7.5,43,7V2.9h-1V2.3h1V0.5h0.7v1.8H45z"/>
		<path class="st0" d="M50,2.4c0.4,0.2,0.6,0.4,0.9,0.7c0.2,0.3,0.4,0.6,0.5,1c0.1,0.4,0.2,0.8,0.2,1.2c0,0.4-0.1,0.8-0.2,1.2
			c-0.1,0.4-0.3,0.7-0.5,1C50.6,7.8,50.3,8,50,8.2c-0.4,0.2-0.8,0.3-1.2,0.3s-0.9-0.1-1.2-0.3c-0.4-0.2-0.6-0.4-0.9-0.7
			c-0.2-0.3-0.4-0.6-0.5-1c-0.1-0.4-0.2-0.8-0.2-1.2c0-0.4,0.1-0.8,0.2-1.2s0.3-0.7,0.5-1c0.2-0.3,0.5-0.5,0.9-0.7
			c0.4-0.2,0.8-0.3,1.2-0.3S49.6,2.2,50,2.4z M47.9,3c-0.3,0.1-0.5,0.3-0.7,0.6c-0.2,0.2-0.3,0.5-0.4,0.8c-0.1,0.3-0.1,0.6-0.1,0.9
			c0,0.3,0,0.6,0.1,0.9c0.1,0.3,0.2,0.6,0.4,0.8c0.2,0.2,0.4,0.4,0.7,0.6c0.3,0.1,0.6,0.2,0.9,0.2s0.7-0.1,0.9-0.2
			c0.3-0.1,0.5-0.3,0.7-0.6c0.2-0.2,0.3-0.5,0.4-0.8c0.1-0.3,0.1-0.6,0.1-0.9c0-0.3,0-0.6-0.1-0.9c-0.1-0.3-0.2-0.6-0.4-0.8
			C50.2,3.3,50,3.1,49.7,3c-0.3-0.1-0.6-0.2-0.9-0.2S48.1,2.8,47.9,3z"/>
		<path class="st0" d="M61,8.3V7.2h0c-0.1,0.2-0.2,0.4-0.3,0.5c-0.2,0.2-0.3,0.3-0.5,0.4c-0.2,0.1-0.4,0.2-0.6,0.3
			c-0.2,0.1-0.4,0.1-0.7,0.1c-0.5,0-0.9-0.1-1.2-0.3C57.3,8,57,7.8,56.8,7.5c-0.2-0.3-0.4-0.6-0.5-1c-0.1-0.4-0.2-0.8-0.2-1.2
			c0-0.4,0.1-0.8,0.2-1.2s0.3-0.7,0.5-1c0.2-0.3,0.5-0.5,0.8-0.7c0.3-0.2,0.7-0.3,1.2-0.3c0.2,0,0.4,0,0.7,0.1
			c0.2,0.1,0.4,0.1,0.6,0.3c0.2,0.1,0.3,0.3,0.5,0.4c0.1,0.2,0.3,0.4,0.3,0.6h0V0h0.7v8.3H61z M57,6.2c0.1,0.3,0.2,0.6,0.3,0.8
			c0.2,0.2,0.4,0.4,0.6,0.6s0.5,0.2,0.9,0.2c0.4,0,0.7-0.1,1-0.2s0.5-0.3,0.7-0.6c0.2-0.2,0.3-0.5,0.4-0.8c0.1-0.3,0.1-0.6,0.1-0.9
			c0-0.3,0-0.6-0.1-0.9c-0.1-0.3-0.2-0.6-0.4-0.8c-0.2-0.2-0.4-0.4-0.7-0.6c-0.3-0.2-0.6-0.2-1-0.2c-0.3,0-0.6,0.1-0.9,0.2
			c-0.2,0.2-0.5,0.3-0.6,0.6c-0.2,0.2-0.3,0.5-0.3,0.8c-0.1,0.3-0.1,0.6-0.1,0.9C56.9,5.6,56.9,5.9,57,6.2z"/>
		<path class="st0" d="M63.8,6.3c0.1,0.3,0.2,0.5,0.4,0.8s0.4,0.4,0.6,0.6c0.2,0.1,0.5,0.2,0.9,0.2c0.5,0,1-0.1,1.3-0.4
			c0.3-0.3,0.5-0.7,0.6-1.1h0.7c-0.2,0.7-0.4,1.2-0.9,1.6c-0.4,0.4-1,0.6-1.8,0.6c-0.5,0-0.9-0.1-1.2-0.3c-0.3-0.2-0.6-0.4-0.8-0.7
			c-0.2-0.3-0.4-0.6-0.5-1C63.1,6.1,63,5.7,63,5.3c0-0.4,0.1-0.8,0.2-1.2c0.1-0.4,0.3-0.7,0.5-1c0.2-0.3,0.5-0.5,0.8-0.7
			c0.3-0.2,0.8-0.3,1.2-0.3c0.5,0,0.9,0.1,1.2,0.3c0.3,0.2,0.6,0.4,0.8,0.8s0.4,0.7,0.5,1.1c0.1,0.4,0.1,0.8,0.1,1.2h-4.6
			C63.7,5.8,63.8,6,63.8,6.3z M67.5,4.1c-0.1-0.3-0.2-0.5-0.4-0.7c-0.2-0.2-0.4-0.4-0.6-0.5S66,2.7,65.7,2.7c-0.3,0-0.6,0.1-0.8,0.2
			s-0.4,0.3-0.6,0.5S64,3.8,63.9,4.1c-0.1,0.3-0.2,0.5-0.2,0.8h3.9C67.6,4.6,67.6,4.3,67.5,4.1z"/>
		<path class="st0" d="M6.8,17.4c-0.1-0.2-0.2-0.3-0.3-0.4c-0.1-0.1-0.3-0.2-0.5-0.2s-0.4-0.1-0.6-0.1c-0.2,0-0.3,0-0.5,0.1
			c-0.2,0-0.3,0.1-0.5,0.2c-0.1,0.1-0.3,0.2-0.3,0.3c-0.1,0.1-0.1,0.3-0.1,0.5c0,0.2,0,0.3,0.1,0.4c0.1,0.1,0.2,0.2,0.3,0.3
			c0.1,0.1,0.3,0.1,0.4,0.2c0.1,0,0.3,0.1,0.4,0.1l1,0.2c0.2,0,0.4,0.1,0.6,0.2c0.2,0.1,0.4,0.2,0.5,0.3c0.2,0.1,0.3,0.3,0.4,0.5
			c0.1,0.2,0.2,0.4,0.2,0.7c0,0.3-0.1,0.6-0.2,0.8S7.3,21.9,7.1,22s-0.5,0.2-0.8,0.3c-0.3,0.1-0.6,0.1-0.8,0.1
			c-0.7,0-1.3-0.2-1.7-0.5S3,21,3,20.3h0.7c0,0.5,0.2,0.9,0.5,1.1c0.3,0.3,0.7,0.4,1.2,0.4c0.2,0,0.4,0,0.6-0.1
			c0.2,0,0.4-0.1,0.5-0.2c0.2-0.1,0.3-0.2,0.4-0.4c0.1-0.1,0.2-0.3,0.2-0.5c0-0.2,0-0.3-0.1-0.4c-0.1-0.1-0.2-0.2-0.3-0.3
			c-0.1-0.1-0.3-0.1-0.4-0.2c-0.2-0.1-0.3-0.1-0.5-0.1l-0.9-0.2c-0.2-0.1-0.5-0.1-0.7-0.2S3.8,19,3.7,18.8c-0.2-0.1-0.3-0.3-0.4-0.4
			c-0.1-0.2-0.1-0.4-0.1-0.6c0-0.3,0.1-0.6,0.2-0.8s0.3-0.4,0.5-0.5c0.2-0.1,0.5-0.2,0.7-0.3c0.3-0.1,0.5-0.1,0.8-0.1
			c0.3,0,0.6,0,0.8,0.1s0.5,0.2,0.7,0.4c0.2,0.2,0.4,0.4,0.5,0.6s0.2,0.5,0.2,0.8H6.9C6.9,17.8,6.9,17.6,6.8,17.4z"/>
		<path class="st0" d="M13.3,22.2v-1.1h0c-0.2,0.4-0.5,0.7-0.8,0.9c-0.4,0.2-0.8,0.3-1.2,0.3c-0.4,0-0.7-0.1-1-0.2S9.8,22,9.6,21.8
			c-0.2-0.2-0.3-0.4-0.4-0.7c-0.1-0.3-0.1-0.6-0.1-1v-3.9h0.7v3.9c0,0.5,0.1,1,0.4,1.2c0.2,0.3,0.6,0.4,1.2,0.4
			c0.3,0,0.6-0.1,0.8-0.2s0.4-0.3,0.6-0.5c0.1-0.2,0.3-0.5,0.3-0.8c0.1-0.3,0.1-0.6,0.1-0.9v-3.1H14v6H13.3z"/>
		<path class="st0" d="M19.1,17.4c-0.1-0.2-0.2-0.3-0.3-0.4c-0.1-0.1-0.3-0.2-0.5-0.2s-0.4-0.1-0.6-0.1c-0.2,0-0.3,0-0.5,0.1
			c-0.2,0-0.3,0.1-0.5,0.2c-0.1,0.1-0.3,0.2-0.3,0.3c-0.1,0.1-0.1,0.3-0.1,0.5c0,0.2,0,0.3,0.1,0.4c0.1,0.1,0.2,0.2,0.3,0.3
			c0.1,0.1,0.3,0.1,0.4,0.2c0.1,0,0.3,0.1,0.4,0.1l1,0.2c0.2,0,0.4,0.1,0.6,0.2c0.2,0.1,0.4,0.2,0.5,0.3c0.2,0.1,0.3,0.3,0.4,0.5
			c0.1,0.2,0.2,0.4,0.2,0.7c0,0.3-0.1,0.6-0.2,0.8s-0.3,0.4-0.6,0.6s-0.5,0.2-0.8,0.3c-0.3,0.1-0.6,0.1-0.8,0.1
			c-0.7,0-1.3-0.2-1.7-0.5s-0.7-0.9-0.7-1.6H16c0,0.5,0.2,0.9,0.5,1.1c0.3,0.3,0.7,0.4,1.2,0.4c0.2,0,0.4,0,0.6-0.1
			c0.2,0,0.4-0.1,0.5-0.2c0.2-0.1,0.3-0.2,0.4-0.4c0.1-0.1,0.2-0.3,0.2-0.5c0-0.2,0-0.3-0.1-0.4c-0.1-0.1-0.2-0.2-0.3-0.3
			c-0.1-0.1-0.3-0.1-0.4-0.2c-0.2-0.1-0.3-0.1-0.5-0.1l-0.9-0.2c-0.2-0.1-0.5-0.1-0.7-0.2S16.1,19,16,18.8c-0.2-0.1-0.3-0.3-0.4-0.4
			c-0.1-0.2-0.1-0.4-0.1-0.6c0-0.3,0.1-0.6,0.2-0.8s0.3-0.4,0.5-0.5c0.2-0.1,0.5-0.2,0.7-0.3c0.3-0.1,0.5-0.1,0.8-0.1
			c0.3,0,0.6,0,0.8,0.1s0.5,0.2,0.7,0.4c0.2,0.2,0.4,0.4,0.5,0.6s0.2,0.5,0.2,0.8h-0.7C19.2,17.8,19.2,17.6,19.1,17.4z"/>
		<path class="st0" d="M25.1,17.1c-0.3-0.3-0.7-0.4-1.1-0.4c-0.3,0-0.7,0.1-0.9,0.2c-0.3,0.1-0.5,0.3-0.7,0.6
			c-0.2,0.2-0.3,0.5-0.4,0.8c-0.1,0.3-0.1,0.6-0.1,0.9c0,0.3,0,0.6,0.1,0.9c0.1,0.3,0.2,0.6,0.4,0.8c0.2,0.2,0.4,0.4,0.7,0.6
			c0.3,0.1,0.6,0.2,0.9,0.2c0.2,0,0.4,0,0.6-0.1s0.4-0.2,0.5-0.4c0.2-0.2,0.3-0.3,0.4-0.5s0.2-0.4,0.2-0.7h0.7
			c-0.1,0.7-0.4,1.3-0.8,1.7c-0.4,0.4-1,0.6-1.7,0.6c-0.5,0-0.9-0.1-1.2-0.3c-0.4-0.2-0.6-0.4-0.9-0.7c-0.2-0.3-0.4-0.6-0.5-1
			c-0.1-0.4-0.2-0.8-0.2-1.2c0-0.4,0.1-0.8,0.2-1.2s0.3-0.7,0.5-1c0.2-0.3,0.5-0.5,0.9-0.7c0.4-0.2,0.8-0.3,1.2-0.3
			c0.6,0,1.2,0.2,1.6,0.5s0.7,0.9,0.8,1.5h-0.7C25.6,17.7,25.4,17.3,25.1,17.1z"/>
		<path class="st0" d="M28.2,20.3c0.1,0.3,0.2,0.5,0.4,0.8s0.4,0.4,0.6,0.6c0.2,0.1,0.5,0.2,0.9,0.2c0.5,0,1-0.1,1.3-0.4
			c0.3-0.3,0.5-0.7,0.6-1.1h0.7c-0.2,0.7-0.4,1.2-0.9,1.6c-0.4,0.4-1,0.6-1.8,0.6c-0.5,0-0.9-0.1-1.2-0.3c-0.3-0.2-0.6-0.4-0.8-0.7
			c-0.2-0.3-0.4-0.6-0.5-1c-0.1-0.4-0.2-0.8-0.2-1.2c0-0.4,0.1-0.8,0.2-1.2c0.1-0.4,0.3-0.7,0.5-1c0.2-0.3,0.5-0.5,0.8-0.7
			c0.3-0.2,0.8-0.3,1.2-0.3c0.5,0,0.9,0.1,1.2,0.3c0.3,0.2,0.6,0.4,0.8,0.8s0.4,0.7,0.5,1.1c0.1,0.4,0.1,0.8,0.1,1.2h-4.6
			C28.1,19.7,28.2,20,28.2,20.3z M31.9,18c-0.1-0.3-0.2-0.5-0.4-0.7c-0.2-0.2-0.4-0.4-0.6-0.5s-0.5-0.2-0.8-0.2
			c-0.3,0-0.6,0.1-0.8,0.2s-0.4,0.3-0.6,0.5s-0.3,0.4-0.4,0.7c-0.1,0.3-0.2,0.5-0.2,0.8H32C32,18.5,32,18.3,31.9,18z"/>
		<path class="st0" d="M34.6,16.2v1.1h0c0.2-0.4,0.4-0.7,0.8-1c0.4-0.2,0.8-0.3,1.3-0.3c0.5,0,0.9,0.1,1.2,0.3
			c0.3,0.2,0.6,0.4,0.8,0.7c0.2,0.3,0.4,0.6,0.5,1s0.2,0.8,0.2,1.2c0,0.4-0.1,0.8-0.2,1.2c-0.1,0.4-0.3,0.7-0.5,1
			c-0.2,0.3-0.5,0.5-0.8,0.7c-0.3,0.2-0.7,0.3-1.2,0.3c-0.2,0-0.4,0-0.7-0.1c-0.2-0.1-0.4-0.1-0.6-0.2c-0.2-0.1-0.4-0.2-0.5-0.4
			c-0.1-0.2-0.3-0.4-0.3-0.6h0v3.3H34v-8.2H34.6z M38.7,18.3c-0.1-0.3-0.2-0.6-0.3-0.8c-0.2-0.2-0.4-0.4-0.6-0.6
			c-0.2-0.2-0.5-0.2-0.9-0.2c-0.4,0-0.7,0.1-1,0.2c-0.3,0.1-0.5,0.3-0.7,0.6c-0.2,0.2-0.3,0.5-0.3,0.8c-0.1,0.3-0.1,0.6-0.1,1
			c0,0.3,0,0.6,0.1,0.9c0.1,0.3,0.2,0.6,0.4,0.8c0.2,0.2,0.4,0.4,0.7,0.6c0.3,0.2,0.6,0.2,1,0.2c0.3,0,0.6-0.1,0.9-0.2
			s0.5-0.3,0.6-0.6c0.2-0.2,0.3-0.5,0.3-0.8c0.1-0.3,0.1-0.6,0.1-0.9C38.8,18.9,38.7,18.6,38.7,18.3z"/>
		<path class="st0" d="M43.2,16.2v0.6H42v4c0,0.2,0,0.4,0.1,0.6c0.1,0.1,0.2,0.2,0.5,0.2c0.2,0,0.4,0,0.6,0v0.6c-0.1,0-0.2,0-0.3,0
			c-0.1,0-0.2,0-0.3,0c-0.5,0-0.8-0.1-1-0.3c-0.2-0.2-0.3-0.5-0.3-1.1v-4.1h-1v-0.6h1v-1.8H42v1.8H43.2z"/>
		<path class="st0" d="M45.3,13.9v1.2h-0.7v-1.2H45.3z M45.3,16.2v6h-0.7v-6H45.3z"/>
		<path class="st0" d="M47.6,13.9v3.4h0c0.1-0.2,0.2-0.4,0.3-0.6c0.1-0.2,0.3-0.3,0.5-0.4s0.4-0.2,0.6-0.3c0.2-0.1,0.4-0.1,0.7-0.1
			c0.5,0,0.9,0.1,1.2,0.3c0.3,0.2,0.6,0.4,0.8,0.7c0.2,0.3,0.4,0.6,0.5,1s0.2,0.8,0.2,1.2c0,0.4-0.1,0.8-0.2,1.2
			c-0.1,0.4-0.3,0.7-0.5,1c-0.2,0.3-0.5,0.5-0.8,0.7c-0.3,0.2-0.7,0.3-1.2,0.3c-0.5,0-0.9-0.1-1.3-0.3c-0.4-0.2-0.7-0.5-0.8-1h0v1.1
			h-0.7v-8.3H47.6z M51.6,18.3c-0.1-0.3-0.2-0.6-0.3-0.8c-0.2-0.2-0.4-0.4-0.6-0.6c-0.2-0.2-0.5-0.2-0.9-0.2c-0.4,0-0.7,0.1-1,0.2
			c-0.3,0.2-0.5,0.3-0.7,0.6c-0.2,0.2-0.3,0.5-0.4,0.8c-0.1,0.3-0.1,0.6-0.1,0.9c0,0.3,0,0.6,0.1,0.9c0.1,0.3,0.2,0.6,0.4,0.8
			c0.2,0.2,0.4,0.4,0.7,0.6c0.3,0.2,0.6,0.2,1,0.2c0.3,0,0.6-0.1,0.9-0.2s0.5-0.3,0.6-0.6c0.2-0.2,0.3-0.5,0.3-0.8
			c0.1-0.3,0.1-0.6,0.1-0.9C51.7,18.9,51.7,18.6,51.6,18.3z"/>
		<path class="st0" d="M54.6,13.9v1.2h-0.7v-1.2H54.6z M54.6,16.2v6h-0.7v-6H54.6z"/>
		<path class="st0" d="M56.9,13.9v8.3h-0.7v-8.3H56.9z"/>
		<path class="st0" d="M59.3,13.9v1.2h-0.7v-1.2H59.3z M59.3,16.2v6h-0.7v-6H59.3z"/>
		<path class="st0" d="M65.6,22.2v-1.1h0c-0.1,0.2-0.2,0.4-0.3,0.5c-0.2,0.2-0.3,0.3-0.5,0.4c-0.2,0.1-0.4,0.2-0.6,0.3
			c-0.2,0.1-0.4,0.1-0.7,0.1c-0.5,0-0.9-0.1-1.2-0.3c-0.3-0.2-0.6-0.4-0.8-0.7c-0.2-0.3-0.4-0.6-0.5-1c-0.1-0.4-0.2-0.8-0.2-1.2
			c0-0.4,0.1-0.8,0.2-1.2s0.3-0.7,0.5-1c0.2-0.3,0.5-0.5,0.8-0.7c0.3-0.2,0.7-0.3,1.2-0.3c0.2,0,0.4,0,0.7,0.1
			c0.2,0.1,0.4,0.1,0.6,0.3c0.2,0.1,0.3,0.3,0.5,0.4c0.1,0.2,0.3,0.4,0.3,0.6h0v-3.4h0.7v8.3H65.6z M61.6,20.2
			c0.1,0.3,0.2,0.6,0.3,0.8c0.2,0.2,0.4,0.4,0.6,0.6s0.5,0.2,0.9,0.2c0.4,0,0.7-0.1,1-0.2s0.5-0.3,0.7-0.6c0.2-0.2,0.3-0.5,0.4-0.8
			c0.1-0.3,0.1-0.6,0.1-0.9c0-0.3,0-0.6-0.1-0.9c-0.1-0.3-0.2-0.6-0.4-0.8c-0.2-0.2-0.4-0.4-0.7-0.6c-0.3-0.2-0.6-0.2-1-0.2
			c-0.3,0-0.6,0.1-0.9,0.2c-0.2,0.2-0.5,0.3-0.6,0.6c-0.2,0.2-0.3,0.5-0.3,0.8c-0.1,0.3-0.1,0.6-0.1,0.9
			C61.4,19.6,61.5,19.9,61.6,20.2z"/>
		<path class="st0" d="M68,17.2c0.1-0.3,0.3-0.5,0.5-0.6c0.2-0.2,0.5-0.3,0.8-0.4c0.3-0.1,0.6-0.1,1-0.1c0.3,0,0.5,0,0.8,0.1
			c0.3,0.1,0.5,0.1,0.7,0.3s0.4,0.3,0.5,0.6c0.1,0.3,0.2,0.6,0.2,1v3.2c0,0.3,0.1,0.4,0.4,0.4c0.1,0,0.2,0,0.2,0v0.6
			c-0.1,0-0.2,0-0.2,0s-0.1,0-0.3,0c-0.2,0-0.3,0-0.4-0.1c-0.1-0.1-0.2-0.1-0.3-0.2c-0.1-0.1-0.1-0.2-0.1-0.3c0-0.1,0-0.3,0-0.4h0
			c-0.1,0.2-0.3,0.4-0.4,0.5c-0.1,0.2-0.3,0.3-0.5,0.4c-0.2,0.1-0.4,0.2-0.6,0.2c-0.2,0.1-0.5,0.1-0.8,0.1c-0.3,0-0.5,0-0.8-0.1
			c-0.2-0.1-0.5-0.2-0.6-0.3c-0.2-0.1-0.3-0.3-0.4-0.5s-0.2-0.5-0.2-0.8c0-0.4,0.1-0.7,0.3-1c0.2-0.2,0.4-0.4,0.7-0.5
			c0.3-0.1,0.7-0.2,1-0.3c0.4,0,0.8-0.1,1.2-0.1c0.2,0,0.3,0,0.4-0.1s0.2-0.1,0.3-0.1c0.1-0.1,0.1-0.1,0.2-0.2
			c0-0.1,0.1-0.2,0.1-0.4c0-0.2,0-0.5-0.1-0.6c-0.1-0.2-0.2-0.3-0.3-0.4c-0.1-0.1-0.3-0.2-0.5-0.2c-0.2,0-0.4-0.1-0.6-0.1
			c-0.5,0-0.8,0.1-1.1,0.3c-0.3,0.2-0.4,0.6-0.5,1.1h-0.7C67.8,17.7,67.9,17.4,68,17.2z M71.7,19c0,0.1-0.1,0.1-0.3,0.2
			s-0.2,0.1-0.3,0.1c-0.3,0.1-0.6,0.1-1,0.1c-0.3,0-0.6,0.1-0.9,0.2c-0.3,0.1-0.5,0.2-0.7,0.4c-0.2,0.2-0.3,0.4-0.3,0.7
			c0,0.2,0,0.4,0.1,0.5c0.1,0.1,0.2,0.3,0.3,0.4s0.3,0.2,0.4,0.2c0.2,0.1,0.3,0.1,0.5,0.1c0.3,0,0.5,0,0.8-0.1
			c0.3-0.1,0.5-0.2,0.7-0.4c0.2-0.2,0.3-0.4,0.5-0.6s0.2-0.5,0.2-0.8L71.7,19L71.7,19z"/>
		<path class="st0" d="M78.7,22.2v-1.1h0c-0.1,0.2-0.2,0.4-0.3,0.5c-0.2,0.2-0.3,0.3-0.5,0.4c-0.2,0.1-0.4,0.2-0.6,0.3
			c-0.2,0.1-0.4,0.1-0.7,0.1c-0.5,0-0.9-0.1-1.2-0.3c-0.3-0.2-0.6-0.4-0.8-0.7c-0.2-0.3-0.4-0.6-0.5-1c-0.1-0.4-0.2-0.8-0.2-1.2
			c0-0.4,0.1-0.8,0.2-1.2s0.3-0.7,0.5-1c0.2-0.3,0.5-0.5,0.8-0.7c0.3-0.2,0.7-0.3,1.2-0.3c0.2,0,0.4,0,0.7,0.1
			c0.2,0.1,0.4,0.1,0.6,0.3c0.2,0.1,0.3,0.3,0.5,0.4c0.1,0.2,0.3,0.4,0.3,0.6h0v-3.4h0.7v8.3H78.7z M74.7,20.2
			c0.1,0.3,0.2,0.6,0.3,0.8c0.2,0.2,0.4,0.4,0.6,0.6s0.5,0.2,0.9,0.2c0.4,0,0.7-0.1,1-0.2s0.5-0.3,0.7-0.6c0.2-0.2,0.3-0.5,0.4-0.8
			c0.1-0.3,0.1-0.6,0.1-0.9c0-0.3,0-0.6-0.1-0.9c-0.1-0.3-0.2-0.6-0.4-0.8c-0.2-0.2-0.4-0.4-0.7-0.6c-0.3-0.2-0.6-0.2-1-0.2
			c-0.3,0-0.6,0.1-0.9,0.2c-0.2,0.2-0.5,0.3-0.6,0.6c-0.2,0.2-0.3,0.5-0.3,0.8c-0.1,0.3-0.1,0.6-0.1,0.9
			C74.6,19.6,74.6,19.9,74.7,20.2z"/>
		<path class="st0" d="M3.5,31.1c0.1-0.3,0.3-0.5,0.5-0.6c0.2-0.2,0.5-0.3,0.8-0.4C5,30.1,5.3,30,5.7,30c0.3,0,0.5,0,0.8,0.1
			c0.3,0.1,0.5,0.1,0.7,0.3s0.4,0.3,0.5,0.6c0.1,0.3,0.2,0.6,0.2,1v3.2c0,0.3,0.1,0.4,0.4,0.4c0.1,0,0.2,0,0.2,0v0.6
			c-0.1,0-0.2,0-0.2,0s-0.1,0-0.3,0c-0.2,0-0.3,0-0.4-0.1c-0.1-0.1-0.2-0.1-0.3-0.2c-0.1-0.1-0.1-0.2-0.1-0.3c0-0.1,0-0.3,0-0.4h0
			c-0.1,0.2-0.3,0.4-0.4,0.5c-0.1,0.2-0.3,0.3-0.5,0.4c-0.2,0.1-0.4,0.2-0.6,0.2c-0.2,0.1-0.5,0.1-0.8,0.1c-0.3,0-0.5,0-0.8-0.1
			c-0.2-0.1-0.5-0.2-0.6-0.3c-0.2-0.1-0.3-0.3-0.4-0.5S3,34.9,3,34.6c0-0.4,0.1-0.7,0.3-1c0.2-0.2,0.4-0.4,0.7-0.5
			c0.3-0.1,0.7-0.2,1-0.3c0.4,0,0.8-0.1,1.2-0.1c0.2,0,0.3,0,0.4-0.1s0.2-0.1,0.3-0.1c0.1-0.1,0.1-0.1,0.2-0.2
			c0-0.1,0.1-0.2,0.1-0.4c0-0.2,0-0.5-0.1-0.6C7,31.1,6.8,31,6.7,30.9c-0.1-0.1-0.3-0.2-0.5-0.2c-0.2,0-0.4-0.1-0.6-0.1
			c-0.5,0-0.8,0.1-1.1,0.3C4.2,31.2,4,31.5,4,32H3.3C3.3,31.7,3.4,31.4,3.5,31.1z M7.1,32.9c0,0.1-0.1,0.1-0.3,0.2s-0.2,0.1-0.3,0.1
			c-0.3,0.1-0.6,0.1-1,0.1c-0.3,0-0.6,0.1-0.9,0.2c-0.3,0.1-0.5,0.2-0.7,0.4c-0.2,0.2-0.3,0.4-0.3,0.7c0,0.2,0,0.4,0.1,0.5
			c0.1,0.1,0.2,0.3,0.3,0.4s0.3,0.2,0.4,0.2c0.2,0.1,0.3,0.1,0.5,0.1c0.3,0,0.5,0,0.8-0.1c0.3-0.1,0.5-0.2,0.7-0.4
			c0.2-0.2,0.3-0.4,0.5-0.6s0.2-0.5,0.2-0.8L7.1,32.9L7.1,32.9z"/>
		<path class="st0" d="M13.8,27.9v1.2h-0.7v-1.2H13.8z M13.8,30.2v6h-0.7v-6H13.8z"/>
		<path class="st0" d="M16.2,30.2v1h0c0.1-0.4,0.4-0.7,0.7-0.9s0.7-0.3,1.2-0.3c0.4,0,0.8,0.1,1.1,0.2c0.3,0.1,0.5,0.3,0.7,0.5
			c0.2,0.2,0.3,0.4,0.4,0.7c0.1,0.3,0.1,0.6,0.1,1v3.9h-0.7v-3.7c0-0.3,0-0.5-0.1-0.7c0-0.2-0.1-0.4-0.2-0.6
			c-0.1-0.2-0.3-0.3-0.5-0.4c-0.2-0.1-0.4-0.1-0.7-0.1s-0.6,0.1-0.8,0.2s-0.4,0.2-0.6,0.4c-0.2,0.2-0.3,0.4-0.4,0.7
			s-0.1,0.5-0.1,0.8v3.5h-0.7v-6H16.2z"/>
		<path class="st0" d="M23,30.8v5.4h-0.7v-5.4h-1v-0.6h1v-0.5c0-0.3,0-0.5,0.1-0.7s0.1-0.4,0.2-0.6c0.1-0.2,0.3-0.3,0.4-0.4
			c0.2-0.1,0.4-0.1,0.7-0.1c0.1,0,0.2,0,0.3,0s0.2,0,0.3,0v0.6c-0.1,0-0.2,0-0.3,0c-0.1,0-0.2,0-0.3,0c-0.2,0-0.4,0-0.5,0.1
			c-0.1,0.1-0.2,0.1-0.2,0.3S23,29.1,23,29.2s0,0.3,0,0.5v0.5h1.2v0.6H23z"/>
		<path class="st0" d="M25.7,34.2c0.1,0.3,0.2,0.5,0.4,0.8s0.4,0.4,0.6,0.6c0.2,0.1,0.5,0.2,0.9,0.2c0.5,0,1-0.1,1.3-0.4
			c0.3-0.3,0.5-0.7,0.6-1.1h0.7c-0.2,0.7-0.4,1.2-0.9,1.6c-0.4,0.4-1,0.6-1.8,0.6c-0.5,0-0.9-0.1-1.2-0.3c-0.3-0.2-0.6-0.4-0.8-0.7
			c-0.2-0.3-0.4-0.6-0.5-1c-0.1-0.4-0.2-0.8-0.2-1.2c0-0.4,0.1-0.8,0.2-1.2c0.1-0.4,0.3-0.7,0.5-1c0.2-0.3,0.5-0.5,0.8-0.7
			c0.3-0.2,0.8-0.3,1.2-0.3c0.5,0,0.9,0.1,1.2,0.3c0.3,0.2,0.6,0.4,0.8,0.8s0.4,0.7,0.5,1.1c0.1,0.4,0.1,0.8,0.1,1.2h-4.6
			C25.6,33.6,25.6,33.9,25.7,34.2z M29.3,32c-0.1-0.3-0.2-0.5-0.4-0.7c-0.2-0.2-0.4-0.4-0.6-0.5s-0.5-0.2-0.8-0.2
			c-0.3,0-0.6,0.1-0.8,0.2s-0.4,0.3-0.6,0.5s-0.3,0.4-0.4,0.7c-0.1,0.3-0.2,0.5-0.2,0.8h3.9C29.4,32.5,29.4,32.2,29.3,32z"/>
		<path class="st0" d="M35.1,31c-0.3-0.3-0.7-0.4-1.1-0.4c-0.3,0-0.7,0.1-0.9,0.2c-0.3,0.1-0.5,0.3-0.7,0.6
			c-0.2,0.2-0.3,0.5-0.4,0.8c-0.1,0.3-0.1,0.6-0.1,0.9c0,0.3,0,0.6,0.1,0.9c0.1,0.3,0.2,0.6,0.4,0.8c0.2,0.2,0.4,0.4,0.7,0.6
			c0.3,0.1,0.6,0.2,0.9,0.2c0.2,0,0.4,0,0.6-0.1s0.4-0.2,0.5-0.4c0.2-0.2,0.3-0.3,0.4-0.5s0.2-0.4,0.2-0.7h0.7
			c-0.1,0.7-0.4,1.3-0.8,1.7c-0.4,0.4-1,0.6-1.7,0.6c-0.5,0-0.9-0.1-1.2-0.3c-0.4-0.2-0.6-0.4-0.9-0.7c-0.2-0.3-0.4-0.6-0.5-1
			c-0.1-0.4-0.2-0.8-0.2-1.2c0-0.4,0.1-0.8,0.2-1.2s0.3-0.7,0.5-1c0.2-0.3,0.5-0.5,0.9-0.7c0.4-0.2,0.8-0.3,1.2-0.3
			c0.6,0,1.2,0.2,1.6,0.5s0.7,0.9,0.8,1.5h-0.7C35.5,31.6,35.3,31.3,35.1,31z"/>
		<path class="st0" d="M41.3,31c-0.3-0.3-0.7-0.4-1.1-0.4c-0.3,0-0.7,0.1-0.9,0.2c-0.3,0.1-0.5,0.3-0.7,0.6
			c-0.2,0.2-0.3,0.5-0.4,0.8c-0.1,0.3-0.1,0.6-0.1,0.9c0,0.3,0,0.6,0.1,0.9c0.1,0.3,0.2,0.6,0.4,0.8c0.2,0.2,0.4,0.4,0.7,0.6
			c0.3,0.1,0.6,0.2,0.9,0.2c0.2,0,0.4,0,0.6-0.1s0.4-0.2,0.5-0.4c0.2-0.2,0.3-0.3,0.4-0.5s0.2-0.4,0.2-0.7h0.7
			c-0.1,0.7-0.4,1.3-0.8,1.7c-0.4,0.4-1,0.6-1.7,0.6c-0.5,0-0.9-0.1-1.2-0.3c-0.4-0.2-0.6-0.4-0.9-0.7c-0.2-0.3-0.4-0.6-0.5-1
			c-0.1-0.4-0.2-0.8-0.2-1.2c0-0.4,0.1-0.8,0.2-1.2s0.3-0.7,0.5-1c0.2-0.3,0.5-0.5,0.9-0.7c0.4-0.2,0.8-0.3,1.2-0.3
			c0.6,0,1.2,0.2,1.6,0.5s0.7,0.9,0.8,1.5h-0.7C41.8,31.6,41.6,31.3,41.3,31z"/>
		<path class="st0" d="M44.7,27.9v1.2h-0.7v-1.2H44.7z M44.7,30.2v6h-0.7v-6H44.7z"/>
		<path class="st0" d="M50.1,30.3c0.4,0.2,0.6,0.4,0.9,0.7c0.2,0.3,0.4,0.6,0.5,1c0.1,0.4,0.2,0.8,0.2,1.2c0,0.4-0.1,0.8-0.2,1.2
			c-0.1,0.4-0.3,0.7-0.5,1c-0.2,0.3-0.5,0.5-0.9,0.7c-0.4,0.2-0.8,0.3-1.2,0.3s-0.9-0.1-1.2-0.3c-0.4-0.2-0.6-0.4-0.9-0.7
			c-0.2-0.3-0.4-0.6-0.5-1C46.1,34,46,33.6,46,33.2c0-0.4,0.1-0.8,0.2-1.2s0.3-0.7,0.5-1c0.2-0.3,0.5-0.5,0.9-0.7
			c0.4-0.2,0.8-0.3,1.2-0.3S49.7,30.1,50.1,30.3z M47.9,30.8c-0.3,0.1-0.5,0.3-0.7,0.6c-0.2,0.2-0.3,0.5-0.4,0.8
			c-0.1,0.3-0.1,0.6-0.1,0.9c0,0.3,0,0.6,0.1,0.9c0.1,0.3,0.2,0.6,0.4,0.8c0.2,0.2,0.4,0.4,0.7,0.6c0.3,0.1,0.6,0.2,0.9,0.2
			s0.7-0.1,0.9-0.2c0.3-0.1,0.5-0.3,0.7-0.6c0.2-0.2,0.3-0.5,0.4-0.8c0.1-0.3,0.1-0.6,0.1-0.9c0-0.3,0-0.6-0.1-0.9
			c-0.1-0.3-0.2-0.6-0.4-0.8c-0.2-0.2-0.4-0.4-0.7-0.6c-0.3-0.1-0.6-0.2-0.9-0.2S48.2,30.7,47.9,30.8z"/>
		<path class="st0" d="M53.7,30.2v1h0c0.1-0.4,0.4-0.7,0.7-0.9s0.7-0.3,1.2-0.3c0.4,0,0.8,0.1,1.1,0.2c0.3,0.1,0.5,0.3,0.7,0.5
			c0.2,0.2,0.3,0.4,0.4,0.7c0.1,0.3,0.1,0.6,0.1,1v3.9h-0.7v-3.7c0-0.3,0-0.5-0.1-0.7c0-0.2-0.1-0.4-0.2-0.6
			c-0.1-0.2-0.3-0.3-0.5-0.4c-0.2-0.1-0.4-0.1-0.7-0.1s-0.6,0.1-0.8,0.2s-0.4,0.2-0.6,0.4c-0.2,0.2-0.3,0.4-0.4,0.7
			s-0.1,0.5-0.1,0.8v3.5H53v-6H53.7z"/>
		<path class="st0" d="M60,34.2c0.1,0.3,0.2,0.5,0.4,0.8s0.4,0.4,0.6,0.6c0.2,0.1,0.5,0.2,0.9,0.2c0.5,0,1-0.1,1.3-0.4
			c0.3-0.3,0.5-0.7,0.6-1.1h0.7c-0.2,0.7-0.4,1.2-0.9,1.6c-0.4,0.4-1,0.6-1.8,0.6c-0.5,0-0.9-0.1-1.2-0.3c-0.3-0.2-0.6-0.4-0.8-0.7
			c-0.2-0.3-0.4-0.6-0.5-1c-0.1-0.4-0.2-0.8-0.2-1.2c0-0.4,0.1-0.8,0.2-1.2c0.1-0.4,0.3-0.7,0.5-1c0.2-0.3,0.5-0.5,0.8-0.7
			c0.3-0.2,0.8-0.3,1.2-0.3c0.5,0,0.9,0.1,1.2,0.3c0.3,0.2,0.6,0.4,0.8,0.8s0.4,0.7,0.5,1.1c0.1,0.4,0.1,0.8,0.1,1.2h-4.6
			C59.9,33.6,59.9,33.9,60,34.2z M63.6,32c-0.1-0.3-0.2-0.5-0.4-0.7c-0.2-0.2-0.4-0.4-0.6-0.5s-0.5-0.2-0.8-0.2
			c-0.3,0-0.6,0.1-0.8,0.2s-0.4,0.3-0.6,0.5s-0.3,0.4-0.4,0.7c-0.1,0.3-0.2,0.5-0.2,0.8h3.9C63.8,32.5,63.7,32.2,63.6,32z"/>
		<path class="st0" d="M69.2,31.4c-0.1-0.2-0.2-0.3-0.3-0.4c-0.1-0.1-0.3-0.2-0.5-0.2s-0.4-0.1-0.6-0.1c-0.2,0-0.3,0-0.5,0.1
			c-0.2,0-0.3,0.1-0.5,0.2c-0.1,0.1-0.3,0.2-0.3,0.3c-0.1,0.1-0.1,0.3-0.1,0.5c0,0.2,0,0.3,0.1,0.4c0.1,0.1,0.2,0.2,0.3,0.3
			c0.1,0.1,0.3,0.1,0.4,0.2c0.1,0,0.3,0.1,0.4,0.1l1,0.2c0.2,0,0.4,0.1,0.6,0.2c0.2,0.1,0.4,0.2,0.5,0.3c0.2,0.1,0.3,0.3,0.4,0.5
			c0.1,0.2,0.2,0.4,0.2,0.7c0,0.3-0.1,0.6-0.2,0.8s-0.3,0.4-0.6,0.6s-0.5,0.2-0.8,0.3c-0.3,0.1-0.6,0.1-0.8,0.1
			c-0.7,0-1.3-0.2-1.7-0.5s-0.7-0.9-0.7-1.6h0.7c0,0.5,0.2,0.9,0.5,1.1c0.3,0.3,0.7,0.4,1.2,0.4c0.2,0,0.4,0,0.6-0.1
			c0.2,0,0.4-0.1,0.5-0.2c0.2-0.1,0.3-0.2,0.4-0.4c0.1-0.1,0.2-0.3,0.2-0.5c0-0.2,0-0.3-0.1-0.4c-0.1-0.1-0.2-0.2-0.3-0.3
			c-0.1-0.1-0.3-0.1-0.4-0.2c-0.2-0.1-0.3-0.1-0.5-0.1l-0.9-0.2c-0.2-0.1-0.5-0.1-0.7-0.2s-0.4-0.2-0.5-0.3
			c-0.2-0.1-0.3-0.3-0.4-0.4c-0.1-0.2-0.1-0.4-0.1-0.6c0-0.3,0.1-0.6,0.2-0.8s0.3-0.4,0.5-0.5c0.2-0.1,0.5-0.2,0.7-0.3
			c0.3-0.1,0.5-0.1,0.8-0.1c0.3,0,0.6,0,0.8,0.1s0.5,0.2,0.7,0.4c0.2,0.2,0.4,0.4,0.5,0.6s0.2,0.5,0.2,0.8h-0.7
			C69.3,31.7,69.3,31.5,69.2,31.4z"/>
		<path class="st0" d="M72,28.5c0.2,0,0.3-0.1,0.4-0.1s0.2-0.1,0.3-0.3c0.1-0.1,0.1-0.3,0.2-0.5h0.3v4.7h-0.4v-3.5h-1.3v-0.3
			C71.7,28.5,71.9,28.5,72,28.5z"/>
	</g>
</g>
</svg>
