<!-- Generator: Adobe Illustrator 20.1.0, SVG Export Plug-In  -->
<svg version="1.1"
	 xmlns="http://www.w3.org/2000/svg" xmlns:xlink="http://www.w3.org/1999/xlink" xmlns:a="http://ns.adobe.com/AdobeSVGViewerExtensions/3.0/"
	 x="0px" y="0px" width="110.6px" height="23.7px" viewBox="0 0 110.6 23.7"
	 style="overflow:scroll;enable-background:new 0 0 110.6 23.7;" xml:space="preserve">
<style type="text/css">
	.st0{fill:#58595B;}
</style>
<defs>
</defs>
<g>
	<path class="st0" d="M4.3,0.2l3.1,7.9H6.2L5.3,5.7H2L1.1,8.1H0l3.1-7.9H4.3z M5,4.9L3.7,1.1h0L2.3,4.9H5z"/>
	<path class="st0" d="M13.2,1.3c-0.4-0.3-0.9-0.4-1.4-0.4c-0.5,0-0.9,0.1-1.2,0.3c-0.3,0.2-0.6,0.4-0.8,0.7c-0.2,0.3-0.4,0.6-0.5,1
		C9.1,3.3,9,3.7,9,4.1C9,4.6,9.1,5,9.2,5.4c0.1,0.4,0.3,0.8,0.5,1.1s0.5,0.5,0.8,0.7c0.3,0.2,0.7,0.3,1.2,0.3c0.3,0,0.7-0.1,0.9-0.2
		c0.3-0.1,0.5-0.3,0.7-0.5c0.2-0.2,0.4-0.4,0.5-0.7C13.9,5.8,14,5.5,14,5.1h1.1c-0.1,1-0.4,1.8-1,2.3c-0.6,0.6-1.4,0.8-2.4,0.8
		C11,8.3,10.5,8.2,10,8C9.6,7.8,9.2,7.5,8.9,7.1C8.6,6.8,8.4,6.3,8.2,5.8S8,4.8,8,4.2c0-0.6,0.1-1.1,0.2-1.6c0.2-0.5,0.4-1,0.7-1.3
		c0.3-0.4,0.7-0.7,1.2-0.9c0.5-0.2,1-0.3,1.6-0.3c0.4,0,0.8,0.1,1.2,0.2s0.7,0.3,1,0.5c0.3,0.2,0.5,0.5,0.7,0.8
		C14.8,1.8,15,2.2,15,2.6H14C13.8,2,13.6,1.6,13.2,1.3z"/>
	<path class="st0" d="M15.8,1.1V0.2h6.4v0.9h-2.6v7.1h-1.1V1.1H15.8z"/>
	<path class="st0" d="M24.3,0.2v3.4h4.2V0.2h1.1v7.9h-1.1V4.5h-4.2v3.6h-1.1V0.2H24.3z"/>
	<path class="st0" d="M31.6,3.6V2.4h1.2v1.2H31.6z M32.8,6.9v1.2h-1.2V6.9H32.8z"/>
	<path class="st0" d="M38.9,0.2v3h0C39,3,39.1,2.9,39.3,2.8c0.1-0.1,0.3-0.2,0.5-0.3c0.2-0.1,0.3-0.1,0.5-0.2c0.2,0,0.4-0.1,0.5-0.1
		c0.4,0,0.7,0.1,0.9,0.2s0.5,0.2,0.6,0.4c0.2,0.2,0.3,0.4,0.3,0.7c0.1,0.3,0.1,0.5,0.1,0.9v3.8h-0.9V4.2c0-0.4-0.1-0.6-0.3-0.8
		c-0.2-0.2-0.5-0.3-0.9-0.3c-0.3,0-0.5,0-0.8,0.1c-0.2,0.1-0.4,0.2-0.5,0.4S39.1,4,39,4.2c-0.1,0.2-0.1,0.5-0.1,0.7v3.3H38V0.2H38.9
		z"/>
	<path class="st0" d="M44.3,4.1c0.1-0.4,0.3-0.7,0.5-1c0.2-0.3,0.5-0.5,0.9-0.6c0.3-0.2,0.8-0.2,1.2-0.2c0.5,0,0.9,0.1,1.2,0.2
		c0.3,0.2,0.6,0.4,0.9,0.6c0.2,0.3,0.4,0.6,0.5,1c0.1,0.4,0.2,0.8,0.2,1.2s-0.1,0.8-0.2,1.2c-0.1,0.4-0.3,0.7-0.5,1S48.4,7.9,48.1,8
		c-0.3,0.2-0.7,0.2-1.2,0.2c-0.5,0-0.9-0.1-1.2-0.2c-0.3-0.2-0.6-0.4-0.9-0.6c-0.2-0.3-0.4-0.6-0.5-1c-0.1-0.4-0.2-0.8-0.2-1.2
		S44.1,4.4,44.3,4.1z M45.2,6.2c0.1,0.3,0.2,0.5,0.4,0.7c0.2,0.2,0.4,0.3,0.6,0.4s0.5,0.1,0.7,0.1c0.2,0,0.5,0,0.7-0.1
		c0.2-0.1,0.4-0.2,0.6-0.4c0.2-0.2,0.3-0.4,0.4-0.7c0.1-0.3,0.1-0.6,0.1-0.9c0-0.3,0-0.7-0.1-0.9c-0.1-0.3-0.2-0.5-0.4-0.7
		s-0.4-0.3-0.6-0.4c-0.2-0.1-0.5-0.1-0.7-0.1c-0.2,0-0.5,0-0.7,0.1c-0.2,0.1-0.4,0.2-0.6,0.4c-0.2,0.2-0.3,0.4-0.4,0.7
		c-0.1,0.3-0.1,0.6-0.1,0.9C45.1,5.6,45.1,5.9,45.2,6.2z"/>
	<path class="st0" d="M51.9,2.4v1.2h0c0.2-0.5,0.5-0.8,0.8-1s0.8-0.3,1.3-0.3v1c-0.4,0-0.7,0.1-1,0.2c-0.3,0.1-0.5,0.3-0.6,0.5
		c-0.2,0.2-0.3,0.4-0.4,0.7c-0.1,0.3-0.1,0.6-0.1,1v2.6H51V2.4H51.9z"/>
	<path class="st0" d="M55.8,2.4v0.8h0c0.4-0.7,1.1-1,1.9-1c0.4,0,0.7,0.1,1,0.2s0.5,0.4,0.6,0.8c0.2-0.3,0.4-0.6,0.8-0.7
		c0.3-0.2,0.7-0.3,1-0.3c0.3,0,0.6,0,0.8,0.1c0.2,0.1,0.4,0.2,0.6,0.3c0.2,0.1,0.3,0.3,0.4,0.5C63,3.4,63,3.6,63,3.9v4.2h-0.9V4.4
		c0-0.2,0-0.3,0-0.5c0-0.2-0.1-0.3-0.2-0.4s-0.2-0.2-0.3-0.3c-0.1-0.1-0.3-0.1-0.6-0.1c-0.5,0-0.8,0.1-1.1,0.4
		c-0.3,0.3-0.4,0.6-0.4,1.1v3.6h-0.9V4.4c0-0.2,0-0.4-0.1-0.5c0-0.2-0.1-0.3-0.2-0.4c-0.1-0.1-0.2-0.2-0.3-0.3
		c-0.1-0.1-0.3-0.1-0.5-0.1c-0.3,0-0.5,0.1-0.7,0.2s-0.4,0.2-0.5,0.4C56.1,3.8,56,4,56,4.1c-0.1,0.2-0.1,0.3-0.1,0.4v3.6h-0.9V2.4
		H55.8z"/>
	<path class="st0" d="M64.5,4.1c0.1-0.4,0.3-0.7,0.5-1c0.2-0.3,0.5-0.5,0.9-0.6c0.3-0.2,0.8-0.2,1.2-0.2c0.5,0,0.9,0.1,1.2,0.2
		c0.3,0.2,0.6,0.4,0.9,0.6c0.2,0.3,0.4,0.6,0.5,1c0.1,0.4,0.2,0.8,0.2,1.2s-0.1,0.8-0.2,1.2c-0.1,0.4-0.3,0.7-0.5,1S68.7,7.9,68.3,8
		c-0.3,0.2-0.7,0.2-1.2,0.2c-0.5,0-0.9-0.1-1.2-0.2c-0.3-0.2-0.6-0.4-0.9-0.6c-0.2-0.3-0.4-0.6-0.5-1c-0.1-0.4-0.2-0.8-0.2-1.2
		S64.4,4.4,64.5,4.1z M65.5,6.2c0.1,0.3,0.2,0.5,0.4,0.7c0.2,0.2,0.4,0.3,0.6,0.4s0.5,0.1,0.7,0.1c0.2,0,0.5,0,0.7-0.1
		c0.2-0.1,0.4-0.2,0.6-0.4c0.2-0.2,0.3-0.4,0.4-0.7c0.1-0.3,0.1-0.6,0.1-0.9c0-0.3,0-0.7-0.1-0.9c-0.1-0.3-0.2-0.5-0.4-0.7
		S68,3.3,67.8,3.2c-0.2-0.1-0.5-0.1-0.7-0.1c-0.2,0-0.5,0-0.7,0.1c-0.2,0.1-0.4,0.2-0.6,0.4c-0.2,0.2-0.3,0.4-0.4,0.7
		c-0.1,0.3-0.1,0.6-0.1,0.9C65.3,5.6,65.4,5.9,65.5,6.2z"/>
	<path class="st0" d="M72.1,2.4v0.9h0c0.4-0.7,1-1,1.9-1c0.4,0,0.7,0.1,0.9,0.2c0.3,0.1,0.5,0.2,0.6,0.4s0.3,0.4,0.3,0.7
		S76,4,76,4.4v3.8h-0.9V4.2c0-0.4-0.1-0.6-0.3-0.8c-0.2-0.2-0.5-0.3-0.9-0.3c-0.3,0-0.5,0-0.8,0.1s-0.4,0.2-0.5,0.4
		c-0.1,0.2-0.2,0.4-0.3,0.6s-0.1,0.5-0.1,0.7v3.3h-0.9V2.4H72.1z"/>
	<path class="st0" d="M82.1,8.3c-0.2,0-0.4-0.1-0.6-0.2c-0.1-0.1-0.2-0.4-0.2-0.7c-0.3,0.3-0.6,0.5-0.9,0.7
		c-0.3,0.1-0.7,0.2-1.1,0.2c-0.3,0-0.5,0-0.7-0.1S78.1,8,77.9,7.9s-0.3-0.3-0.4-0.5c-0.1-0.2-0.2-0.5-0.2-0.7c0-0.3,0.1-0.6,0.2-0.8
		c0.1-0.2,0.3-0.4,0.4-0.5s0.4-0.2,0.6-0.3c0.2-0.1,0.5-0.1,0.7-0.2c0.3-0.1,0.5-0.1,0.7-0.1c0.2,0,0.4-0.1,0.6-0.1
		c0.2,0,0.3-0.1,0.4-0.2c0.1-0.1,0.2-0.2,0.2-0.4c0-0.2,0-0.4-0.1-0.5c-0.1-0.1-0.2-0.2-0.3-0.3c-0.1-0.1-0.3-0.1-0.4-0.1
		c-0.2,0-0.3,0-0.5,0c-0.4,0-0.7,0.1-1,0.2s-0.4,0.4-0.4,0.9h-0.9c0-0.4,0.1-0.7,0.2-0.9c0.1-0.2,0.3-0.4,0.5-0.6
		c0.2-0.2,0.5-0.3,0.8-0.3s0.6-0.1,0.9-0.1c0.3,0,0.5,0,0.8,0.1c0.3,0,0.5,0.1,0.7,0.2C81.7,2.6,81.9,2.8,82,3
		c0.1,0.2,0.2,0.5,0.2,0.8v3c0,0.2,0,0.4,0,0.5c0,0.1,0.1,0.2,0.3,0.2c0.1,0,0.2,0,0.3-0.1v0.7C82.6,8.2,82.4,8.3,82.1,8.3z
		 M80.8,5.4c-0.2,0-0.4,0.1-0.6,0.1c-0.2,0-0.4,0.1-0.6,0.1s-0.4,0.1-0.6,0.2c-0.2,0.1-0.3,0.2-0.4,0.3c-0.1,0.1-0.2,0.3-0.2,0.6
		c0,0.2,0,0.3,0.1,0.4c0.1,0.1,0.1,0.2,0.2,0.3c0.1,0.1,0.2,0.1,0.4,0.1c0.1,0,0.3,0,0.4,0c0.3,0,0.6,0,0.8-0.1s0.4-0.2,0.5-0.3
		s0.2-0.3,0.3-0.4c0.1-0.2,0.1-0.3,0.1-0.4v-1C81.1,5.3,81,5.3,80.8,5.4z"/>
	<path class="st0" d="M5.2,21.6c-0.2,0-0.4-0.1-0.6-0.2c-0.1-0.1-0.2-0.4-0.2-0.7c-0.3,0.3-0.6,0.5-0.9,0.7
		c-0.3,0.1-0.7,0.2-1.1,0.2c-0.3,0-0.5,0-0.7-0.1S1.2,21.4,1,21.3S0.7,21,0.6,20.8c-0.1-0.2-0.2-0.5-0.2-0.7c0-0.3,0.1-0.6,0.2-0.8
		c0.1-0.2,0.3-0.4,0.4-0.5s0.4-0.2,0.6-0.3c0.2-0.1,0.5-0.1,0.7-0.2c0.3-0.1,0.5-0.1,0.7-0.1c0.2,0,0.4-0.1,0.6-0.1
		c0.2,0,0.3-0.1,0.4-0.2c0.1-0.1,0.2-0.2,0.2-0.4c0-0.2,0-0.4-0.1-0.5c-0.1-0.1-0.2-0.2-0.3-0.3c-0.1-0.1-0.3-0.1-0.4-0.1
		c-0.2,0-0.3,0-0.5,0c-0.4,0-0.7,0.1-1,0.2s-0.4,0.4-0.4,0.9H0.7c0-0.4,0.1-0.7,0.2-0.9C1,16.4,1.2,16.2,1.4,16
		c0.2-0.2,0.5-0.3,0.8-0.3s0.6-0.1,0.9-0.1c0.3,0,0.5,0,0.8,0.1c0.3,0,0.5,0.1,0.7,0.2C4.8,16,5,16.2,5.1,16.4
		c0.1,0.2,0.2,0.5,0.2,0.8v3c0,0.2,0,0.4,0,0.5c0,0.1,0.1,0.2,0.3,0.2c0.1,0,0.2,0,0.3-0.1v0.7C5.7,21.6,5.5,21.6,5.2,21.6z
		 M3.9,18.7c-0.2,0-0.4,0.1-0.6,0.1c-0.2,0-0.4,0.1-0.6,0.1S2.2,19,2,19.1c-0.2,0.1-0.3,0.2-0.4,0.3c-0.1,0.1-0.2,0.3-0.2,0.6
		c0,0.2,0,0.3,0.1,0.4c0.1,0.1,0.1,0.2,0.2,0.3c0.1,0.1,0.2,0.1,0.4,0.1c0.1,0,0.3,0,0.4,0c0.3,0,0.6,0,0.8-0.1s0.4-0.2,0.5-0.3
		s0.2-0.3,0.3-0.4c0.1-0.2,0.1-0.3,0.1-0.4v-1C4.2,18.6,4.1,18.7,3.9,18.7z"/>
	<path class="st0" d="M11.2,21.5v-0.8h0c-0.2,0.3-0.4,0.5-0.7,0.7c-0.3,0.1-0.7,0.2-1.1,0.2c-0.4,0-0.8-0.1-1.2-0.2S7.5,21,7.3,20.7
		s-0.4-0.6-0.5-1S6.7,19,6.7,18.6c0-0.4,0.1-0.8,0.2-1.2c0.1-0.4,0.3-0.7,0.5-1c0.2-0.3,0.5-0.5,0.8-0.6c0.3-0.2,0.7-0.2,1.2-0.2
		c0.1,0,0.3,0,0.5,0s0.3,0.1,0.5,0.2s0.3,0.2,0.5,0.3s0.3,0.3,0.4,0.4h0v-3h0.9v7.9H11.2z M7.8,19.5c0.1,0.3,0.2,0.5,0.3,0.7
		c0.1,0.2,0.3,0.4,0.6,0.5c0.2,0.1,0.5,0.2,0.8,0.2c0.3,0,0.6-0.1,0.8-0.2s0.4-0.3,0.5-0.5s0.2-0.4,0.3-0.7c0.1-0.3,0.1-0.5,0.1-0.8
		c0-0.3,0-0.6-0.1-0.8c-0.1-0.3-0.2-0.5-0.3-0.7s-0.3-0.4-0.6-0.5c-0.2-0.1-0.5-0.2-0.8-0.2c-0.3,0-0.6,0.1-0.8,0.2S8.2,16.9,8,17.1
		c-0.1,0.2-0.2,0.4-0.3,0.7c-0.1,0.3-0.1,0.5-0.1,0.8C7.7,18.9,7.7,19.2,7.8,19.5z"/>
	<path class="st0" d="M14.7,15.7V17h0c0.2-0.5,0.5-0.8,0.8-1s0.8-0.3,1.3-0.3v1c-0.4,0-0.7,0.1-1,0.2c-0.3,0.1-0.5,0.3-0.6,0.5
		c-0.2,0.2-0.3,0.4-0.4,0.7c-0.1,0.3-0.1,0.6-0.1,1v2.6h-0.9v-5.8H14.7z"/>
	<path class="st0" d="M21.8,21.1c-0.4,0.3-1,0.5-1.6,0.5c-0.5,0-0.9-0.1-1.2-0.2c-0.3-0.1-0.6-0.4-0.9-0.6c-0.2-0.3-0.4-0.6-0.5-1
		s-0.2-0.8-0.2-1.2c0-0.4,0.1-0.8,0.2-1.2c0.1-0.4,0.3-0.7,0.6-0.9c0.2-0.3,0.5-0.5,0.9-0.6s0.7-0.2,1.1-0.2c0.5,0,0.9,0.1,1.3,0.3
		c0.3,0.2,0.6,0.5,0.8,0.8c0.2,0.3,0.3,0.7,0.4,1.1s0.1,0.8,0.1,1.1h-4.3c0,0.3,0,0.5,0.1,0.7c0.1,0.2,0.2,0.4,0.3,0.6
		s0.3,0.3,0.6,0.4c0.2,0.1,0.5,0.2,0.8,0.2c0.4,0,0.7-0.1,1-0.3s0.4-0.5,0.5-0.8h0.9C22.5,20.3,22.2,20.8,21.8,21.1z M21.6,17.4
		c-0.1-0.2-0.2-0.4-0.3-0.5s-0.3-0.3-0.5-0.3c-0.2-0.1-0.4-0.1-0.7-0.1c-0.2,0-0.5,0-0.7,0.1c-0.2,0.1-0.4,0.2-0.5,0.4
		s-0.3,0.3-0.3,0.5c-0.1,0.2-0.1,0.4-0.1,0.6h3.3C21.7,17.8,21.7,17.6,21.6,17.4z"/>
	<path class="st0" d="M24.8,15.7v0.9h0c0.4-0.7,1-1,1.9-1c0.4,0,0.7,0.1,0.9,0.2s0.5,0.2,0.6,0.4c0.2,0.2,0.3,0.4,0.3,0.7
		c0.1,0.3,0.1,0.5,0.1,0.9v3.8h-0.9v-3.9c0-0.4-0.1-0.6-0.3-0.8c-0.2-0.2-0.5-0.3-0.9-0.3c-0.3,0-0.5,0-0.8,0.1
		c-0.2,0.1-0.4,0.2-0.5,0.4s-0.2,0.4-0.3,0.6c-0.1,0.2-0.1,0.5-0.1,0.7v3.3h-0.9v-5.8H24.8z"/>
	<path class="st0" d="M30.2,17.4c0.1-0.4,0.3-0.7,0.5-1c0.2-0.3,0.5-0.5,0.9-0.6c0.3-0.2,0.8-0.2,1.2-0.2c0.5,0,0.9,0.1,1.2,0.2
		c0.3,0.2,0.6,0.4,0.9,0.6c0.2,0.3,0.4,0.6,0.5,1c0.1,0.4,0.2,0.8,0.2,1.2s-0.1,0.8-0.2,1.2c-0.1,0.4-0.3,0.7-0.5,1
		s-0.5,0.5-0.9,0.6c-0.3,0.2-0.7,0.2-1.2,0.2c-0.5,0-0.9-0.1-1.2-0.2c-0.3-0.2-0.6-0.4-0.9-0.6c-0.2-0.3-0.4-0.6-0.5-1
		C30.1,19.4,30,19,30,18.6S30.1,17.8,30.2,17.4z M31.2,19.6c0.1,0.3,0.2,0.5,0.4,0.7c0.2,0.2,0.4,0.3,0.6,0.4s0.5,0.1,0.7,0.1
		c0.2,0,0.5,0,0.7-0.1c0.2-0.1,0.4-0.2,0.6-0.4c0.2-0.2,0.3-0.4,0.4-0.7c0.1-0.3,0.1-0.6,0.1-0.9c0-0.3,0-0.7-0.1-0.9
		c-0.1-0.3-0.2-0.5-0.4-0.7s-0.4-0.3-0.6-0.4c-0.2-0.1-0.5-0.1-0.7-0.1c-0.2,0-0.5,0-0.7,0.1c-0.2,0.1-0.4,0.2-0.6,0.4
		c-0.2,0.2-0.3,0.4-0.4,0.7C31.1,18,31,18.3,31,18.6C31,19,31.1,19.3,31.2,19.6z"/>
	<path class="st0" d="M40.4,16.7c-0.2-0.2-0.6-0.3-1-0.3c-0.3,0-0.6,0.1-0.9,0.2c-0.2,0.1-0.4,0.3-0.6,0.5c-0.1,0.2-0.2,0.4-0.3,0.7
		c-0.1,0.3-0.1,0.6-0.1,0.8c0,0.3,0,0.5,0.1,0.8c0.1,0.3,0.2,0.5,0.3,0.7c0.1,0.2,0.3,0.4,0.5,0.5c0.2,0.1,0.5,0.2,0.8,0.2
		c0.5,0,0.8-0.1,1.1-0.4s0.4-0.6,0.5-1h1c-0.1,0.7-0.4,1.3-0.8,1.6c-0.4,0.4-1,0.6-1.7,0.6c-0.4,0-0.8-0.1-1.2-0.2
		c-0.3-0.1-0.6-0.3-0.8-0.6s-0.4-0.6-0.5-0.9c-0.1-0.4-0.2-0.8-0.2-1.2c0-0.4,0.1-0.8,0.2-1.2s0.3-0.7,0.5-1s0.5-0.5,0.9-0.7
		c0.3-0.2,0.7-0.2,1.2-0.2c0.3,0,0.6,0,0.9,0.1c0.3,0.1,0.5,0.2,0.8,0.4c0.2,0.2,0.4,0.4,0.5,0.6c0.1,0.2,0.2,0.5,0.3,0.9h-1
		C40.8,17.2,40.6,16.9,40.4,16.7z"/>
	<path class="st0" d="M43,17.4c0.1-0.4,0.3-0.7,0.5-1c0.2-0.3,0.5-0.5,0.9-0.6c0.3-0.2,0.8-0.2,1.2-0.2c0.5,0,0.9,0.1,1.2,0.2
		c0.3,0.2,0.6,0.4,0.9,0.6c0.2,0.3,0.4,0.6,0.5,1c0.1,0.4,0.2,0.8,0.2,1.2s-0.1,0.8-0.2,1.2c-0.1,0.4-0.3,0.7-0.5,1
		c-0.2,0.3-0.5,0.5-0.9,0.6c-0.3,0.2-0.7,0.2-1.2,0.2c-0.5,0-0.9-0.1-1.2-0.2c-0.3-0.2-0.6-0.4-0.9-0.6c-0.2-0.3-0.4-0.6-0.5-1
		c-0.1-0.4-0.2-0.8-0.2-1.2S42.9,17.8,43,17.4z M44,19.6c0.1,0.3,0.2,0.5,0.4,0.7c0.2,0.2,0.4,0.3,0.6,0.4s0.4,0.1,0.7,0.1
		c0.2,0,0.5,0,0.7-0.1s0.4-0.2,0.6-0.4c0.2-0.2,0.3-0.4,0.4-0.7c0.1-0.3,0.1-0.6,0.1-0.9c0-0.3,0-0.7-0.1-0.9
		c-0.1-0.3-0.2-0.5-0.4-0.7c-0.2-0.2-0.4-0.3-0.6-0.4c-0.2-0.1-0.5-0.1-0.7-0.1c-0.2,0-0.5,0-0.7,0.1c-0.2,0.1-0.4,0.2-0.6,0.4
		c-0.2,0.2-0.3,0.4-0.4,0.7c-0.1,0.3-0.1,0.6-0.1,0.9C43.8,19,43.9,19.3,44,19.6z"/>
	<path class="st0" d="M50.6,15.7V17h0c0.2-0.5,0.5-0.8,0.8-1s0.8-0.3,1.3-0.3v1c-0.4,0-0.7,0.1-1,0.2c-0.3,0.1-0.5,0.3-0.6,0.5
		c-0.2,0.2-0.3,0.4-0.4,0.7c-0.1,0.3-0.1,0.6-0.1,1v2.6h-0.9v-5.8H50.6z"/>
	<path class="st0" d="M56.2,15.7v0.8H55v3.6c0,0.1,0,0.2,0,0.3c0,0.1,0.1,0.1,0.1,0.2c0.1,0,0.1,0.1,0.2,0.1c0.1,0,0.2,0,0.4,0h0.4
		v0.8h-0.7c-0.2,0-0.5,0-0.6,0c-0.2,0-0.3-0.1-0.4-0.2c-0.1-0.1-0.2-0.2-0.2-0.4c-0.1-0.2-0.1-0.4-0.1-0.6v-3.7h-1v-0.8h1V14H55v1.7
		H56.2z"/>
	<path class="st0" d="M57.5,14.7v-1.2h0.9v1.2H57.5z M58.4,15.7v5.8h-0.9v-5.8H58.4z"/>
	<path class="st0" d="M63.6,16.7c-0.2-0.2-0.6-0.3-1-0.3c-0.3,0-0.6,0.1-0.9,0.2c-0.2,0.1-0.4,0.3-0.6,0.5c-0.1,0.2-0.2,0.4-0.3,0.7
		c-0.1,0.3-0.1,0.6-0.1,0.8c0,0.3,0,0.5,0.1,0.8c0.1,0.3,0.2,0.5,0.3,0.7c0.1,0.2,0.3,0.4,0.5,0.5c0.2,0.1,0.5,0.2,0.8,0.2
		c0.5,0,0.8-0.1,1.1-0.4s0.4-0.6,0.5-1h1c-0.1,0.7-0.4,1.3-0.8,1.6c-0.4,0.4-1,0.6-1.7,0.6c-0.4,0-0.8-0.1-1.2-0.2
		c-0.3-0.1-0.6-0.3-0.8-0.6s-0.4-0.6-0.5-0.9c-0.1-0.4-0.2-0.8-0.2-1.2c0-0.4,0.1-0.8,0.2-1.2s0.3-0.7,0.5-1s0.5-0.5,0.9-0.7
		c0.3-0.2,0.7-0.2,1.2-0.2c0.3,0,0.6,0,0.9,0.1c0.3,0.1,0.5,0.2,0.8,0.4c0.2,0.2,0.4,0.4,0.5,0.6c0.1,0.2,0.2,0.5,0.3,0.9h-1
		C63.9,17.2,63.8,16.9,63.6,16.7z"/>
	<path class="st0" d="M66.2,17.4c0.1-0.4,0.3-0.7,0.5-1c0.2-0.3,0.5-0.5,0.9-0.6c0.3-0.2,0.8-0.2,1.2-0.2c0.5,0,0.9,0.1,1.2,0.2
		c0.3,0.2,0.6,0.4,0.9,0.6c0.2,0.3,0.4,0.6,0.5,1c0.1,0.4,0.2,0.8,0.2,1.2s-0.1,0.8-0.2,1.2c-0.1,0.4-0.3,0.7-0.5,1
		c-0.2,0.3-0.5,0.5-0.9,0.6c-0.3,0.2-0.7,0.2-1.2,0.2c-0.5,0-0.9-0.1-1.2-0.2c-0.3-0.2-0.6-0.4-0.9-0.6c-0.2-0.3-0.4-0.6-0.5-1
		C66.1,19.4,66,19,66,18.6S66.1,17.8,66.2,17.4z M67.1,19.6c0.1,0.3,0.2,0.5,0.4,0.7c0.2,0.2,0.4,0.3,0.6,0.4s0.4,0.1,0.7,0.1
		c0.2,0,0.5,0,0.7-0.1s0.4-0.2,0.6-0.4c0.2-0.2,0.3-0.4,0.4-0.7c0.1-0.3,0.1-0.6,0.1-0.9c0-0.3,0-0.7-0.1-0.9
		c-0.1-0.3-0.2-0.5-0.4-0.7c-0.2-0.2-0.4-0.3-0.6-0.4c-0.2-0.1-0.5-0.1-0.7-0.1c-0.2,0-0.5,0-0.7,0.1c-0.2,0.1-0.4,0.2-0.6,0.4
		c-0.2,0.2-0.3,0.4-0.4,0.7C67.1,18,67,18.3,67,18.6C67,19,67.1,19.3,67.1,19.6z"/>
	<path class="st0" d="M75.4,15.7v0.8h-1.1v3.6c0,0.1,0,0.2,0,0.3c0,0.1,0.1,0.1,0.1,0.2c0.1,0,0.1,0.1,0.2,0.1c0.1,0,0.2,0,0.4,0
		h0.4v0.8h-0.7c-0.2,0-0.5,0-0.6,0s-0.3-0.1-0.4-0.2c-0.1-0.1-0.2-0.2-0.2-0.4c-0.1-0.2-0.1-0.4-0.1-0.6v-3.7h-1v-0.8h1V14h0.9v1.7
		H75.4z"/>
	<path class="st0" d="M77.5,15.7V17h0c0.2-0.5,0.5-0.8,0.8-1s0.8-0.3,1.3-0.3v1c-0.4,0-0.7,0.1-1,0.2c-0.3,0.1-0.5,0.3-0.6,0.5
		c-0.2,0.2-0.3,0.4-0.4,0.7c-0.1,0.3-0.1,0.6-0.1,1v2.6h-0.9v-5.8H77.5z"/>
	<path class="st0" d="M80.5,17.4c0.1-0.4,0.3-0.7,0.5-1c0.2-0.3,0.5-0.5,0.9-0.6c0.3-0.2,0.8-0.2,1.2-0.2c0.5,0,0.9,0.1,1.2,0.2
		c0.3,0.2,0.6,0.4,0.9,0.6c0.2,0.3,0.4,0.6,0.5,1c0.1,0.4,0.2,0.8,0.2,1.2s-0.1,0.8-0.2,1.2c-0.1,0.4-0.3,0.7-0.5,1
		c-0.2,0.3-0.5,0.5-0.9,0.6c-0.3,0.2-0.7,0.2-1.2,0.2c-0.5,0-0.9-0.1-1.2-0.2c-0.3-0.2-0.6-0.4-0.9-0.6c-0.2-0.3-0.4-0.6-0.5-1
		c-0.1-0.4-0.2-0.8-0.2-1.2S80.3,17.8,80.5,17.4z M81.4,19.6c0.1,0.3,0.2,0.5,0.4,0.7c0.2,0.2,0.4,0.3,0.6,0.4s0.4,0.1,0.7,0.1
		c0.2,0,0.5,0,0.7-0.1s0.4-0.2,0.6-0.4c0.2-0.2,0.3-0.4,0.4-0.7c0.1-0.3,0.1-0.6,0.1-0.9c0-0.3,0-0.7-0.1-0.9
		c-0.1-0.3-0.2-0.5-0.4-0.7c-0.2-0.2-0.4-0.3-0.6-0.4c-0.2-0.1-0.5-0.1-0.7-0.1c-0.2,0-0.5,0-0.7,0.1c-0.2,0.1-0.4,0.2-0.6,0.4
		c-0.2,0.2-0.3,0.4-0.4,0.7c-0.1,0.3-0.1,0.6-0.1,0.9C81.3,19,81.3,19.3,81.4,19.6z M84.6,13.4l-1.5,1.6h-0.7l1-1.6H84.6z"/>
	<path class="st0" d="M88.2,15.7v0.8h0c0.2-0.3,0.4-0.6,0.7-0.7s0.7-0.2,1.1-0.2c0.4,0,0.8,0.1,1.2,0.2s0.6,0.4,0.8,0.7
		c0.2,0.3,0.4,0.6,0.5,1c0.1,0.4,0.2,0.8,0.2,1.2s-0.1,0.8-0.2,1.2s-0.3,0.7-0.5,1c-0.2,0.3-0.5,0.5-0.8,0.6
		c-0.3,0.2-0.7,0.2-1.2,0.2c-0.1,0-0.3,0-0.5,0c-0.2,0-0.3-0.1-0.5-0.1c-0.2-0.1-0.3-0.2-0.5-0.3c-0.2-0.1-0.3-0.3-0.4-0.4h0v3h-0.9
		v-7.9H88.2z M91.6,17.8c-0.1-0.3-0.2-0.5-0.3-0.7s-0.3-0.4-0.6-0.5c-0.2-0.1-0.5-0.2-0.8-0.2c-0.3,0-0.6,0.1-0.8,0.2
		s-0.4,0.3-0.5,0.5c-0.1,0.2-0.2,0.4-0.3,0.7s-0.1,0.5-0.1,0.8c0,0.3,0,0.6,0.1,0.8c0.1,0.3,0.2,0.5,0.3,0.7s0.3,0.4,0.6,0.5
		c0.2,0.1,0.5,0.2,0.8,0.2s0.6-0.1,0.8-0.2s0.4-0.3,0.5-0.5c0.1-0.2,0.2-0.4,0.3-0.7c0.1-0.3,0.1-0.5,0.1-0.8
		C91.7,18.3,91.6,18,91.6,17.8z"/>
	<path class="st0" d="M94.1,14.7v-1.2H95v1.2H94.1z M95,15.7v5.8h-0.9v-5.8H95z"/>
	<path class="st0" d="M100.2,16.7c-0.2-0.2-0.6-0.3-1-0.3c-0.3,0-0.6,0.1-0.9,0.2c-0.2,0.1-0.4,0.3-0.6,0.5
		c-0.1,0.2-0.2,0.4-0.3,0.7c-0.1,0.3-0.1,0.6-0.1,0.8c0,0.3,0,0.5,0.1,0.8c0.1,0.3,0.2,0.5,0.3,0.7c0.1,0.2,0.3,0.4,0.5,0.5
		c0.2,0.1,0.5,0.2,0.8,0.2c0.5,0,0.8-0.1,1.1-0.4s0.4-0.6,0.5-1h1c-0.1,0.7-0.4,1.3-0.8,1.6c-0.4,0.4-1,0.6-1.7,0.6
		c-0.4,0-0.8-0.1-1.2-0.2c-0.3-0.1-0.6-0.3-0.8-0.6s-0.4-0.6-0.5-0.9c-0.1-0.4-0.2-0.8-0.2-1.2c0-0.4,0.1-0.8,0.2-1.2s0.3-0.7,0.5-1
		s0.5-0.5,0.9-0.7c0.3-0.2,0.7-0.2,1.2-0.2c0.3,0,0.6,0,0.9,0.1c0.3,0.1,0.5,0.2,0.8,0.4c0.2,0.2,0.4,0.4,0.5,0.6
		c0.1,0.2,0.2,0.5,0.3,0.9h-1C100.5,17.2,100.4,16.9,100.2,16.7z"/>
	<path class="st0" d="M107.3,21.6c-0.2,0-0.4-0.1-0.6-0.2c-0.1-0.1-0.2-0.4-0.2-0.7c-0.3,0.3-0.6,0.5-0.9,0.7
		c-0.3,0.1-0.7,0.2-1.1,0.2c-0.3,0-0.5,0-0.7-0.1s-0.4-0.1-0.6-0.3s-0.3-0.3-0.4-0.5c-0.1-0.2-0.2-0.5-0.2-0.7
		c0-0.3,0.1-0.6,0.2-0.8c0.1-0.2,0.3-0.4,0.4-0.5s0.4-0.2,0.6-0.3c0.2-0.1,0.5-0.1,0.7-0.2c0.3-0.1,0.5-0.1,0.7-0.1
		c0.2,0,0.4-0.1,0.6-0.1c0.2,0,0.3-0.1,0.4-0.2c0.1-0.1,0.2-0.2,0.2-0.4c0-0.2,0-0.4-0.1-0.5c-0.1-0.1-0.2-0.2-0.3-0.3
		c-0.1-0.1-0.3-0.1-0.4-0.1c-0.2,0-0.3,0-0.5,0c-0.4,0-0.7,0.1-1,0.2s-0.4,0.4-0.4,0.9h-0.9c0-0.4,0.1-0.7,0.2-0.9
		c0.1-0.2,0.3-0.4,0.5-0.6c0.2-0.2,0.5-0.3,0.8-0.3s0.6-0.1,0.9-0.1c0.3,0,0.5,0,0.8,0.1c0.3,0,0.5,0.1,0.7,0.2
		c0.2,0.1,0.4,0.3,0.5,0.5c0.1,0.2,0.2,0.5,0.2,0.8v3c0,0.2,0,0.4,0,0.5c0,0.1,0.1,0.2,0.3,0.2c0.1,0,0.2,0,0.3-0.1v0.7
		C107.8,21.6,107.6,21.6,107.3,21.6z M106,18.7c-0.2,0-0.4,0.1-0.6,0.1c-0.2,0-0.4,0.1-0.6,0.1s-0.4,0.1-0.6,0.2
		c-0.2,0.1-0.3,0.2-0.4,0.3c-0.1,0.1-0.2,0.3-0.2,0.6c0,0.2,0,0.3,0.1,0.4c0.1,0.1,0.1,0.2,0.2,0.3c0.1,0.1,0.2,0.1,0.4,0.1
		c0.1,0,0.3,0,0.4,0c0.3,0,0.6,0,0.8-0.1s0.4-0.2,0.5-0.3s0.2-0.3,0.3-0.4c0.1-0.2,0.1-0.3,0.1-0.4v-1
		C106.4,18.6,106.2,18.7,106,18.7z"/>
	<path class="st0" d="M110.6,20.3v1.2h-1.2v-1.2H110.6z"/>
</g>
</svg>
