<!-- Generator: Adobe Illustrator 20.1.0, SVG Export Plug-In  -->
<svg version="1.1"
	 xmlns="http://www.w3.org/2000/svg" xmlns:xlink="http://www.w3.org/1999/xlink" xmlns:a="http://ns.adobe.com/AdobeSVGViewerExtensions/3.0/"
	 x="0px" y="0px" width="168.4px" height="15.3px" viewBox="0 0 168.4 15.3"
	 style="overflow:scroll;enable-background:new 0 0 168.4 15.3;" xml:space="preserve">
<style type="text/css">
	.st0{opacity:0.9;}
	.st1{opacity:0.9;fill:#F18A21;}
</style>
<defs>
</defs>
<g class="st0">
	<g>
		<path class="st1" d="M8.5,4.3c0-0.3-0.1-0.6-0.3-0.8C8,3.2,7.9,3,7.6,2.8C7.4,2.6,7.1,2.5,6.8,2.4S6.2,2.2,5.9,2.2
			c-0.6,0-1.1,0.1-1.5,0.3C4,2.8,3.6,3.1,3.4,3.5C3.1,3.9,2.9,4.3,2.8,4.8c-0.1,0.5-0.2,1-0.2,1.5c0,0.5,0.1,1,0.2,1.5
			c0.1,0.5,0.3,0.9,0.6,1.3C3.6,9.5,4,9.8,4.4,10c0.4,0.2,0.9,0.3,1.5,0.3c0.8,0,1.4-0.2,1.9-0.7s0.7-1.1,0.8-1.9h2.6
			c-0.1,0.7-0.2,1.4-0.5,2c-0.3,0.6-0.6,1.1-1.1,1.5c-0.5,0.4-1,0.8-1.6,1c-0.6,0.2-1.3,0.3-2,0.3c-0.9,0-1.8-0.2-2.5-0.5
			c-0.7-0.3-1.3-0.8-1.8-1.3c-0.5-0.6-0.9-1.2-1.2-2C0.1,8,0,7.2,0,6.3c0-0.9,0.1-1.7,0.4-2.5c0.3-0.8,0.7-1.4,1.2-2
			c0.5-0.6,1.1-1,1.8-1.3C4.1,0.2,5,0,5.9,0c0.7,0,1.3,0.1,1.9,0.3c0.6,0.2,1.1,0.5,1.6,0.8c0.5,0.4,0.8,0.8,1.1,1.4
			C10.8,3,11,3.6,11.1,4.3H8.5z"/>
		<path class="st1" d="M12.9,6.3c0-0.6,0.2-1,0.4-1.4s0.6-0.7,0.9-0.9c0.4-0.2,0.8-0.4,1.3-0.5c0.5-0.1,1-0.1,1.4-0.1
			c0.4,0,0.9,0,1.3,0.1c0.4,0.1,0.9,0.2,1.2,0.4c0.4,0.2,0.7,0.4,0.9,0.8s0.4,0.7,0.4,1.3v4.5c0,0.4,0,0.8,0.1,1.1
			c0,0.4,0.1,0.6,0.2,0.8h-2.4c0-0.1-0.1-0.3-0.1-0.4c0-0.1,0-0.3-0.1-0.4c-0.4,0.4-0.8,0.7-1.3,0.8s-1,0.2-1.6,0.2
			c-0.4,0-0.8-0.1-1.2-0.2c-0.4-0.1-0.7-0.3-0.9-0.5c-0.3-0.2-0.5-0.5-0.6-0.8c-0.2-0.3-0.2-0.7-0.2-1.2c0-0.5,0.1-0.9,0.3-1.2
			c0.2-0.3,0.4-0.6,0.7-0.8c0.3-0.2,0.6-0.3,0.9-0.4c0.4-0.1,0.7-0.2,1.1-0.2c0.4-0.1,0.7-0.1,1.1-0.1C17,7.1,17.3,7,17.6,7
			c0.3-0.1,0.5-0.2,0.6-0.3c0.2-0.1,0.2-0.3,0.2-0.6c0-0.3,0-0.5-0.1-0.6c-0.1-0.2-0.2-0.3-0.3-0.4C17.8,5.1,17.7,5,17.5,5
			c-0.2,0-0.4,0-0.6,0c-0.5,0-0.8,0.1-1.1,0.3s-0.4,0.5-0.5,1H12.9z M18.4,8c-0.1,0.1-0.2,0.2-0.4,0.2s-0.3,0.1-0.5,0.1
			c-0.2,0-0.4,0.1-0.6,0.1s-0.4,0-0.6,0.1c-0.2,0-0.4,0.1-0.5,0.1c-0.2,0.1-0.3,0.1-0.4,0.2c-0.1,0.1-0.2,0.2-0.3,0.4
			c-0.1,0.2-0.1,0.3-0.1,0.5c0,0.2,0,0.4,0.1,0.5c0.1,0.1,0.2,0.3,0.3,0.3c0.1,0.1,0.3,0.1,0.5,0.2c0.2,0,0.4,0,0.6,0
			c0.5,0,0.8-0.1,1.1-0.2c0.3-0.2,0.4-0.3,0.6-0.6s0.2-0.4,0.2-0.7c0-0.2,0-0.4,0-0.5V8z"/>
		<path class="st1" d="M21.8,13.3c0.1,0,0.3,0.1,0.5,0.1c0.2,0,0.5,0,0.6-0.1c0.2-0.1,0.3-0.3,0.3-0.6v-9h2.4v9.1
			c0,0.4,0,0.8-0.1,1.2c-0.1,0.3-0.3,0.6-0.5,0.8c-0.2,0.2-0.5,0.4-0.9,0.5c-0.4,0.1-0.9,0.2-1.5,0.2c-0.1,0-0.3,0-0.4,0
			c-0.1,0-0.3,0-0.4-0.1V13.3z M25.6,2.2h-2.4v-2h2.4V2.2z"/>
		<path class="st1" d="M27.9,6.3c0-0.6,0.2-1,0.4-1.4s0.6-0.7,0.9-0.9c0.4-0.2,0.8-0.4,1.3-0.5c0.5-0.1,1-0.1,1.4-0.1
			c0.4,0,0.9,0,1.3,0.1c0.4,0.1,0.9,0.2,1.2,0.4c0.4,0.2,0.7,0.4,0.9,0.8s0.4,0.7,0.4,1.3v4.5c0,0.4,0,0.8,0.1,1.1
			c0,0.4,0.1,0.6,0.2,0.8h-2.4c0-0.1-0.1-0.3-0.1-0.4c0-0.1,0-0.3-0.1-0.4c-0.4,0.4-0.8,0.7-1.3,0.8s-1,0.2-1.6,0.2
			c-0.4,0-0.8-0.1-1.2-0.2c-0.4-0.1-0.7-0.3-0.9-0.5c-0.3-0.2-0.5-0.5-0.6-0.8c-0.2-0.3-0.2-0.7-0.2-1.2c0-0.5,0.1-0.9,0.3-1.2
			c0.2-0.3,0.4-0.6,0.7-0.8c0.3-0.2,0.6-0.3,0.9-0.4c0.4-0.1,0.7-0.2,1.1-0.2c0.4-0.1,0.7-0.1,1.1-0.1C32,7.1,32.3,7,32.5,7
			c0.3-0.1,0.5-0.2,0.6-0.3c0.2-0.1,0.2-0.3,0.2-0.6c0-0.3,0-0.5-0.1-0.6c-0.1-0.2-0.2-0.3-0.3-0.4C32.8,5.1,32.6,5,32.5,5
			c-0.2,0-0.4,0-0.6,0c-0.5,0-0.8,0.1-1.1,0.3s-0.4,0.5-0.5,1H27.9z M33.4,8c-0.1,0.1-0.2,0.2-0.4,0.2s-0.3,0.1-0.5,0.1
			c-0.2,0-0.4,0.1-0.6,0.1s-0.4,0-0.6,0.1c-0.2,0-0.4,0.1-0.5,0.1c-0.2,0.1-0.3,0.1-0.4,0.2c-0.1,0.1-0.2,0.2-0.3,0.4
			C30.1,9.4,30,9.6,30,9.8c0,0.2,0,0.4,0.1,0.5c0.1,0.1,0.2,0.3,0.3,0.3c0.1,0.1,0.3,0.1,0.5,0.2c0.2,0,0.4,0,0.6,0
			c0.5,0,0.8-0.1,1.1-0.2c0.3-0.2,0.4-0.3,0.6-0.6s0.2-0.4,0.2-0.7c0-0.2,0-0.4,0-0.5V8z"/>
		<path class="st1" d="M48.9,6.6c-0.2-1-0.7-1.5-1.8-1.5c-0.4,0-0.7,0.1-1,0.3c-0.3,0.2-0.5,0.4-0.6,0.7S45.3,6.7,45.2,7
			c-0.1,0.3-0.1,0.7-0.1,1c0,0.3,0,0.6,0.1,1c0.1,0.3,0.2,0.6,0.3,0.9c0.2,0.3,0.4,0.5,0.6,0.6c0.3,0.2,0.6,0.3,0.9,0.3
			c0.6,0,1-0.2,1.3-0.5s0.5-0.7,0.6-1.3h2.3c-0.2,1.2-0.6,2-1.3,2.6c-0.7,0.6-1.7,0.9-2.8,0.9c-0.7,0-1.3-0.1-1.8-0.3
			c-0.5-0.2-1-0.5-1.4-0.9c-0.4-0.4-0.7-0.9-0.9-1.4c-0.2-0.5-0.3-1.1-0.3-1.8c0-0.7,0.1-1.3,0.3-1.9s0.5-1.1,0.9-1.5
			c0.4-0.4,0.8-0.7,1.4-1c0.5-0.2,1.2-0.4,1.9-0.4c0.5,0,1,0.1,1.5,0.2c0.5,0.1,0.9,0.3,1.3,0.6c0.4,0.3,0.7,0.6,0.9,1
			c0.2,0.4,0.4,0.9,0.4,1.4H48.9z"/>
		<path class="st1" d="M52.7,7.9c0-0.7,0.1-1.3,0.3-1.9c0.2-0.6,0.5-1,0.9-1.4c0.4-0.4,0.9-0.7,1.4-0.9c0.5-0.2,1.2-0.3,1.8-0.3
			c0.7,0,1.3,0.1,1.9,0.3c0.6,0.2,1,0.5,1.4,0.9C60.8,5,61.1,5.5,61.3,6c0.2,0.6,0.3,1.2,0.3,1.9s-0.1,1.3-0.3,1.9
			c-0.2,0.6-0.5,1-0.9,1.4C60,11.6,59.6,12,59,12.2c-0.6,0.2-1.2,0.3-1.9,0.3c-0.7,0-1.3-0.1-1.8-0.3c-0.5-0.2-1-0.5-1.4-0.9
			c-0.4-0.4-0.7-0.9-0.9-1.4C52.8,9.3,52.7,8.6,52.7,7.9z M55.1,7.9c0,0.3,0,0.7,0.1,1c0.1,0.3,0.2,0.6,0.3,0.9s0.4,0.5,0.6,0.6
			c0.3,0.2,0.6,0.2,1,0.2s0.7-0.1,1-0.2c0.3-0.2,0.5-0.4,0.7-0.6C59,9.6,59.1,9.3,59.2,9c0.1-0.3,0.1-0.7,0.1-1c0-0.3,0-0.7-0.1-1
			C59.1,6.6,59,6.3,58.8,6c-0.2-0.3-0.4-0.5-0.7-0.6c-0.3-0.2-0.6-0.2-1-0.2s-0.7,0.1-1,0.2S55.7,5.8,55.5,6
			c-0.2,0.3-0.3,0.6-0.3,0.9C55.1,7.2,55.1,7.6,55.1,7.9z"/>
		<path class="st1" d="M63.5,3.6h2.3v1.2h0.1c0.3-0.5,0.7-0.9,1.2-1.1s1-0.4,1.5-0.4c0.6,0,1.2,0.1,1.6,0.3c0.4,0.2,0.7,0.4,1,0.7
			c0.2,0.3,0.4,0.7,0.5,1.1c0.1,0.4,0.1,0.9,0.1,1.5v5.3h-2.4V7.4c0-0.7-0.1-1.3-0.3-1.6c-0.2-0.4-0.6-0.5-1.2-0.5
			c-0.6,0-1.1,0.2-1.4,0.6c-0.3,0.4-0.4,1-0.4,1.9v4.5h-2.4V3.6z"/>
		<path class="st1" d="M81.7,5.3c0.3,0,0.5,0,0.8,0c0.3,0,0.6-0.1,0.8-0.2C83.6,5,83.8,4.8,84,4.6c0.2-0.2,0.2-0.5,0.2-0.8
			c0-0.5-0.2-0.9-0.5-1.2c-0.3-0.3-0.7-0.4-1.2-0.4c-0.6,0-1.1,0.2-1.4,0.6c-0.3,0.4-0.5,0.9-0.4,1.5h-2.3c0-0.6,0.1-1.2,0.3-1.7
			s0.5-0.9,0.8-1.3s0.8-0.6,1.3-0.8c0.5-0.2,1-0.3,1.6-0.3c0.5,0,0.9,0.1,1.4,0.2c0.5,0.1,0.9,0.3,1.3,0.6c0.4,0.3,0.7,0.6,0.9,1
			c0.2,0.4,0.4,0.9,0.4,1.4c0,0.6-0.1,1.1-0.4,1.5c-0.3,0.4-0.7,0.7-1.2,0.9v0c0.6,0.1,1.2,0.5,1.5,0.9s0.6,1.1,0.6,1.7
			c0,0.6-0.1,1.2-0.4,1.6c-0.2,0.5-0.6,0.9-1,1.2c-0.4,0.3-0.9,0.6-1.4,0.7s-1.1,0.3-1.6,0.3c-0.7,0-1.3-0.1-1.8-0.3
			c-0.5-0.2-1-0.5-1.4-0.8s-0.7-0.8-0.9-1.4s-0.3-1.1-0.3-1.8h2.3c0,0.3,0.1,0.6,0.2,0.9c0.1,0.3,0.2,0.5,0.4,0.7
			c0.2,0.2,0.4,0.4,0.6,0.5c0.3,0.1,0.6,0.2,0.9,0.2c0.5,0,1-0.2,1.4-0.5c0.4-0.3,0.6-0.8,0.6-1.3c0-0.4-0.1-0.8-0.3-1
			c-0.2-0.2-0.4-0.4-0.7-0.5C83.3,7.1,83,7,82.7,7c-0.3,0-0.6,0-0.9,0V5.3z"/>
		<path class="st1" d="M87.9,6.3c0-1.1,0.1-2.1,0.3-2.9s0.5-1.4,0.9-1.9c0.4-0.5,0.8-0.8,1.4-1c0.5-0.2,1.1-0.3,1.7-0.3
			c0.6,0,1.1,0.1,1.7,0.3c0.5,0.2,1,0.5,1.4,1c0.4,0.5,0.7,1.1,0.9,1.9c0.2,0.8,0.3,1.7,0.3,2.9c0,1.2-0.1,2.2-0.3,2.9
			c-0.2,0.8-0.5,1.4-0.9,1.9c-0.4,0.5-0.9,0.8-1.4,1s-1.1,0.3-1.7,0.3c-0.6,0-1.1-0.1-1.7-0.3c-0.5-0.2-1-0.5-1.4-1
			c-0.4-0.5-0.7-1.1-0.9-1.9S87.9,7.5,87.9,6.3z M90.3,6.3c0,0.3,0,0.7,0,1.2c0,0.5,0.1,0.9,0.2,1.4c0.1,0.4,0.3,0.8,0.6,1.1
			c0.3,0.3,0.6,0.5,1.1,0.5c0.5,0,0.9-0.2,1.1-0.5c0.3-0.3,0.5-0.7,0.6-1.1C94,8.5,94.1,8,94.1,7.6c0-0.5,0-0.9,0-1.2
			c0-0.2,0-0.4,0-0.7s0-0.6-0.1-0.9c0-0.3-0.1-0.6-0.2-0.9S93.7,3.3,93.6,3c-0.1-0.2-0.3-0.4-0.6-0.6c-0.2-0.1-0.5-0.2-0.8-0.2
			c-0.3,0-0.6,0.1-0.8,0.2C91.2,2.6,91,2.8,90.9,3c-0.1,0.2-0.2,0.5-0.3,0.8s-0.1,0.6-0.2,0.9c0,0.3-0.1,0.6-0.1,0.9
			C90.3,5.9,90.3,6.1,90.3,6.3z"/>
		<path class="st1" d="M106.2,3.6h1.7v1.6h-1.7v4.3c0,0.4,0.1,0.7,0.2,0.8c0.1,0.1,0.4,0.2,0.8,0.2c0.3,0,0.5,0,0.7-0.1v1.9
			c-0.2,0-0.4,0.1-0.7,0.1c-0.2,0-0.5,0-0.7,0c-0.4,0-0.7,0-1-0.1c-0.3-0.1-0.6-0.2-0.9-0.3c-0.3-0.2-0.5-0.4-0.6-0.6
			c-0.1-0.3-0.2-0.6-0.2-1.1V5.2h-1.4V3.6h1.4V1h2.4V3.6z"/>
		<path class="st1" d="M109.3,6.3c0-0.6,0.2-1,0.4-1.4s0.6-0.7,0.9-0.9c0.4-0.2,0.8-0.4,1.3-0.5c0.5-0.1,1-0.1,1.4-0.1
			c0.4,0,0.9,0,1.3,0.1c0.4,0.1,0.9,0.2,1.2,0.4c0.4,0.2,0.7,0.4,0.9,0.8s0.4,0.7,0.4,1.3v4.5c0,0.4,0,0.8,0.1,1.1
			c0,0.4,0.1,0.6,0.2,0.8h-2.4c0-0.1-0.1-0.3-0.1-0.4c0-0.1,0-0.3-0.1-0.4c-0.4,0.4-0.8,0.7-1.3,0.8s-1,0.2-1.6,0.2
			c-0.4,0-0.8-0.1-1.2-0.2c-0.4-0.1-0.7-0.3-0.9-0.5c-0.3-0.2-0.5-0.5-0.6-0.8c-0.2-0.3-0.2-0.7-0.2-1.2c0-0.5,0.1-0.9,0.3-1.2
			c0.2-0.3,0.4-0.6,0.7-0.8c0.3-0.2,0.6-0.3,0.9-0.4c0.4-0.1,0.7-0.2,1.1-0.2c0.4-0.1,0.7-0.1,1.1-0.1c0.3,0,0.6-0.1,0.9-0.2
			c0.3-0.1,0.5-0.2,0.6-0.3c0.2-0.1,0.2-0.3,0.2-0.6c0-0.3,0-0.5-0.1-0.6c-0.1-0.2-0.2-0.3-0.3-0.4C114.2,5.1,114,5,113.8,5
			c-0.2,0-0.4,0-0.6,0c-0.5,0-0.8,0.1-1.1,0.3s-0.4,0.5-0.5,1H109.3z M114.8,8c-0.1,0.1-0.2,0.2-0.4,0.2s-0.3,0.1-0.5,0.1
			c-0.2,0-0.4,0.1-0.6,0.1s-0.4,0-0.6,0.1c-0.2,0-0.4,0.1-0.5,0.1c-0.2,0.1-0.3,0.1-0.4,0.2c-0.1,0.1-0.2,0.2-0.3,0.4
			c-0.1,0.2-0.1,0.3-0.1,0.5c0,0.2,0,0.4,0.1,0.5c0.1,0.1,0.2,0.3,0.3,0.3c0.1,0.1,0.3,0.1,0.5,0.2c0.2,0,0.4,0,0.6,0
			c0.5,0,0.8-0.1,1.1-0.2c0.3-0.2,0.4-0.3,0.6-0.6s0.2-0.4,0.2-0.7c0-0.2,0-0.4,0-0.5V8z"/>
		<path class="st1" d="M119.4,0.3h2.4v4.4h0c0.3-0.4,0.7-0.8,1.2-1c0.5-0.2,1-0.3,1.6-0.3c0.4,0,0.9,0.1,1.3,0.3
			c0.4,0.2,0.8,0.5,1.1,0.8s0.6,0.8,0.8,1.4s0.3,1.3,0.3,2.1c0,0.8-0.1,1.5-0.3,2.1s-0.5,1.1-0.8,1.4s-0.7,0.7-1.1,0.8
			c-0.4,0.2-0.9,0.3-1.3,0.3c-0.6,0-1.2-0.1-1.7-0.3s-0.9-0.6-1.1-1h0v1.1h-2.3V0.3z M125.7,7.9c0-0.4,0-0.7-0.1-1.1
			c-0.1-0.3-0.2-0.6-0.4-0.9c-0.2-0.3-0.4-0.5-0.6-0.6c-0.3-0.2-0.6-0.2-0.9-0.2c-0.4,0-0.7,0.1-0.9,0.2c-0.3,0.2-0.5,0.4-0.6,0.6
			c-0.2,0.3-0.3,0.6-0.4,0.9c-0.1,0.3-0.1,0.7-0.1,1.1c0,0.4,0,0.7,0.1,1c0.1,0.3,0.2,0.6,0.4,0.9s0.4,0.5,0.6,0.6
			c0.3,0.2,0.6,0.2,0.9,0.2c0.3,0,0.6-0.1,0.9-0.2c0.3-0.2,0.5-0.4,0.6-0.6c0.2-0.3,0.3-0.6,0.4-0.9C125.7,8.6,125.7,8.3,125.7,7.9z
			"/>
		<path class="st1" d="M130,0.3h2.4v12H130V0.3z"/>
		<path class="st1" d="M136.6,8.5c0,0.8,0.2,1.3,0.6,1.7c0.4,0.4,0.9,0.5,1.5,0.5c0.5,0,0.9-0.1,1.2-0.4c0.3-0.2,0.6-0.5,0.6-0.8
			h2.1c-0.3,1-0.9,1.8-1.5,2.2c-0.7,0.5-1.5,0.7-2.5,0.7c-0.7,0-1.3-0.1-1.8-0.3s-1-0.5-1.4-0.9c-0.4-0.4-0.7-0.9-0.9-1.4
			s-0.3-1.2-0.3-1.8c0-0.6,0.1-1.3,0.3-1.8c0.2-0.6,0.5-1,0.9-1.5c0.4-0.4,0.9-0.7,1.4-1s1.1-0.4,1.8-0.4c0.7,0,1.4,0.1,1.9,0.4
			c0.5,0.3,1,0.7,1.4,1.2c0.4,0.5,0.6,1,0.8,1.6s0.2,1.3,0.2,1.9H136.6z M140.5,7c-0.1-0.6-0.3-1.1-0.6-1.4
			c-0.3-0.3-0.7-0.5-1.3-0.5c-0.4,0-0.7,0.1-0.9,0.2c-0.3,0.1-0.5,0.3-0.6,0.5c-0.2,0.2-0.3,0.4-0.3,0.6c-0.1,0.2-0.1,0.4-0.1,0.6
			H140.5z"/>
		<path class="st1" d="M147.6,3.6h1.7v1.6h-1.7v4.3c0,0.4,0.1,0.7,0.2,0.8c0.1,0.1,0.4,0.2,0.8,0.2c0.3,0,0.5,0,0.7-0.1v1.9
			c-0.2,0-0.4,0.1-0.7,0.1c-0.2,0-0.5,0-0.7,0c-0.4,0-0.7,0-1-0.1c-0.3-0.1-0.6-0.2-0.9-0.3c-0.3-0.2-0.5-0.4-0.6-0.6
			c-0.1-0.3-0.2-0.6-0.2-1.1V5.2h-1.4V3.6h1.4V1h2.4V3.6z"/>
		<path class="st1" d="M150.7,6.3c0-0.6,0.2-1,0.4-1.4s0.6-0.7,0.9-0.9c0.4-0.2,0.8-0.4,1.3-0.5c0.5-0.1,1-0.1,1.4-0.1
			c0.4,0,0.9,0,1.3,0.1c0.4,0.1,0.9,0.2,1.2,0.4c0.4,0.2,0.7,0.4,0.9,0.8s0.4,0.7,0.4,1.3v4.5c0,0.4,0,0.8,0.1,1.1
			c0,0.4,0.1,0.6,0.2,0.8h-2.4c0-0.1-0.1-0.3-0.1-0.4c0-0.1,0-0.3-0.1-0.4c-0.4,0.4-0.8,0.7-1.3,0.8s-1,0.2-1.6,0.2
			c-0.4,0-0.8-0.1-1.2-0.2c-0.4-0.1-0.7-0.3-0.9-0.5c-0.3-0.2-0.5-0.5-0.6-0.8c-0.2-0.3-0.2-0.7-0.2-1.2c0-0.5,0.1-0.9,0.3-1.2
			c0.2-0.3,0.4-0.6,0.7-0.8c0.3-0.2,0.6-0.3,0.9-0.4c0.4-0.1,0.7-0.2,1.1-0.2c0.4-0.1,0.7-0.1,1.1-0.1c0.3,0,0.6-0.1,0.9-0.2
			c0.3-0.1,0.5-0.2,0.6-0.3c0.2-0.1,0.2-0.3,0.2-0.6c0-0.3,0-0.5-0.1-0.6c-0.1-0.2-0.2-0.3-0.3-0.4c-0.1-0.1-0.3-0.1-0.5-0.2
			c-0.2,0-0.4,0-0.6,0c-0.5,0-0.8,0.1-1.1,0.3s-0.4,0.5-0.5,1H150.7z M156.2,8c-0.1,0.1-0.2,0.2-0.4,0.2s-0.3,0.1-0.5,0.1
			c-0.2,0-0.4,0.1-0.6,0.1s-0.4,0-0.6,0.1c-0.2,0-0.4,0.1-0.5,0.1c-0.2,0.1-0.3,0.1-0.4,0.2C153.1,9,153,9.1,153,9.3
			c-0.1,0.2-0.1,0.3-0.1,0.5c0,0.2,0,0.4,0.1,0.5c0.1,0.1,0.2,0.3,0.3,0.3c0.1,0.1,0.3,0.1,0.5,0.2c0.2,0,0.4,0,0.6,0
			c0.5,0,0.8-0.1,1.1-0.2c0.3-0.2,0.4-0.3,0.6-0.6s0.2-0.4,0.2-0.7c0-0.2,0-0.4,0-0.5V8z"/>
		<path class="st1" d="M162.6,9.4c0,0.3,0.1,0.5,0.2,0.7c0.1,0.2,0.2,0.3,0.4,0.5c0.2,0.1,0.4,0.2,0.6,0.3c0.2,0.1,0.4,0.1,0.7,0.1
			c0.2,0,0.3,0,0.5-0.1s0.4-0.1,0.5-0.2s0.3-0.2,0.4-0.3c0.1-0.1,0.2-0.3,0.2-0.5c0-0.2-0.1-0.3-0.2-0.5c-0.1-0.1-0.3-0.2-0.5-0.3
			c-0.2-0.1-0.5-0.2-0.8-0.3c-0.3-0.1-0.7-0.2-1.1-0.3c-0.3-0.1-0.7-0.2-1-0.3c-0.3-0.1-0.6-0.2-0.9-0.4c-0.3-0.2-0.5-0.4-0.6-0.7
			s-0.2-0.6-0.2-1c0-0.5,0.1-1,0.3-1.4c0.2-0.4,0.5-0.6,0.9-0.9s0.8-0.4,1.2-0.4c0.4-0.1,0.9-0.1,1.4-0.1s0.9,0,1.4,0.1
			c0.4,0.1,0.8,0.2,1.2,0.5c0.3,0.2,0.6,0.5,0.9,0.8c0.2,0.4,0.4,0.8,0.4,1.3h-2.3c0-0.5-0.2-0.8-0.5-0.9C165.1,5,164.7,5,164.3,5
			c-0.1,0-0.3,0-0.4,0c-0.2,0-0.3,0.1-0.4,0.1c-0.1,0.1-0.2,0.1-0.3,0.2C163,5.4,163,5.6,163,5.8c0,0.2,0.1,0.4,0.2,0.5
			c0.2,0.1,0.4,0.2,0.6,0.3c0.3,0.1,0.5,0.2,0.9,0.2c0.3,0.1,0.7,0.1,1,0.2c0.3,0.1,0.7,0.2,1,0.3c0.3,0.1,0.6,0.3,0.9,0.4
			c0.3,0.2,0.5,0.4,0.6,0.7c0.2,0.3,0.2,0.6,0.2,1c0,0.6-0.1,1-0.3,1.4c-0.2,0.4-0.5,0.7-0.9,0.9c-0.4,0.2-0.8,0.4-1.3,0.5
			c-0.5,0.1-1,0.2-1.5,0.2c-0.5,0-1-0.1-1.5-0.2c-0.5-0.1-0.9-0.3-1.3-0.5c-0.4-0.2-0.7-0.6-0.9-0.9s-0.4-0.9-0.4-1.4H162.6z"/>
	</g>
</g>
</svg>
