<!-- Generator: Adobe Illustrator 20.1.0, SVG Export Plug-In  -->
<svg version="1.1"
	 xmlns="http://www.w3.org/2000/svg" xmlns:xlink="http://www.w3.org/1999/xlink" xmlns:a="http://ns.adobe.com/AdobeSVGViewerExtensions/3.0/"
	 x="0px" y="0px" width="77.5px" height="23.4px" viewBox="0 0 77.5 23.4"
	 style="overflow:scroll;enable-background:new 0 0 77.5 23.4;" xml:space="preserve">
<style type="text/css">
	.st0{opacity:0.8;}
	.st1{opacity:0.9;fill:#F18A21;}
</style>
<defs>
</defs>
<g class="st0">
	<g>
		<path class="st1" d="M4.1,8.3H2.4V3h-2V1.8c0.3,0,0.6,0,0.8-0.1S1.7,1.6,2,1.4s0.4-0.3,0.5-0.5c0.1-0.2,0.2-0.5,0.3-0.8h1.3V8.3z"
			/>
		<path class="st0" d="M11.1,2.9c0.1-0.3,0.3-0.5,0.5-0.7c0.2-0.2,0.5-0.3,0.8-0.4c0.3-0.1,0.6-0.1,1-0.1c0.3,0,0.6,0,0.8,0.1
			S14.8,2,15,2.1s0.4,0.4,0.5,0.6c0.1,0.3,0.2,0.6,0.2,1v3.4c0,0.3,0.2,0.5,0.5,0.5c0.1,0,0.2,0,0.2,0v0.7c-0.1,0-0.2,0-0.2,0
			c-0.1,0-0.2,0-0.3,0c-0.2,0-0.4,0-0.5-0.1c-0.1-0.1-0.2-0.1-0.3-0.2c-0.1-0.1-0.1-0.2-0.1-0.4c0-0.1,0-0.3,0-0.5h0
			c-0.1,0.2-0.3,0.4-0.4,0.6c-0.1,0.2-0.3,0.3-0.5,0.4c-0.2,0.1-0.4,0.2-0.6,0.2c-0.2,0.1-0.5,0.1-0.8,0.1c-0.3,0-0.6,0-0.8-0.1
			c-0.3-0.1-0.5-0.2-0.7-0.3c-0.2-0.2-0.3-0.3-0.5-0.6s-0.2-0.5-0.2-0.8c0-0.4,0.1-0.8,0.3-1c0.2-0.3,0.5-0.4,0.8-0.6
			s0.7-0.2,1.1-0.3s0.8-0.1,1.2-0.2c0.2,0,0.3,0,0.4-0.1c0.1,0,0.2-0.1,0.3-0.1c0.1-0.1,0.1-0.1,0.2-0.3S15,3.9,15,3.7
			c0-0.3,0-0.5-0.1-0.6c-0.1-0.2-0.2-0.3-0.4-0.4c-0.2-0.1-0.3-0.2-0.5-0.2s-0.4-0.1-0.6-0.1c-0.5,0-0.9,0.1-1.2,0.4
			c-0.3,0.2-0.5,0.6-0.5,1.1h-0.8C10.9,3.5,10.9,3.2,11.1,2.9z M15,4.8c0,0.1-0.1,0.2-0.3,0.2c-0.1,0-0.3,0.1-0.4,0.1
			c-0.3,0.1-0.7,0.1-1,0.2c-0.4,0-0.7,0.1-1,0.2c-0.3,0.1-0.5,0.2-0.7,0.4s-0.3,0.4-0.3,0.7c0,0.2,0,0.4,0.1,0.5s0.2,0.3,0.3,0.4
			c0.1,0.1,0.3,0.2,0.5,0.3c0.2,0.1,0.4,0.1,0.5,0.1c0.3,0,0.6,0,0.9-0.1c0.3-0.1,0.5-0.2,0.7-0.4c0.2-0.2,0.4-0.4,0.5-0.6
			S15,6.1,15,5.8L15,4.8L15,4.8z"/>
		<path class="st0" d="M18.6,1.9V3h0c0.1-0.4,0.4-0.7,0.8-0.9c0.4-0.2,0.8-0.4,1.2-0.4c0.4,0,0.8,0.1,1.1,0.2
			c0.3,0.1,0.5,0.3,0.7,0.5c0.2,0.2,0.3,0.5,0.4,0.8s0.1,0.6,0.1,1v4.1h-0.8v-4c0-0.3,0-0.5-0.1-0.8c0-0.2-0.1-0.4-0.3-0.6
			c-0.1-0.2-0.3-0.3-0.5-0.4c-0.2-0.1-0.5-0.1-0.8-0.1c-0.3,0-0.6,0.1-0.8,0.2S19.3,2.8,19.1,3s-0.3,0.4-0.4,0.7
			c-0.1,0.3-0.1,0.6-0.2,0.9v3.7h-0.8V1.9H18.6z"/>
		<path class="st0" d="M27.5,1.9v0.7h-1.3v4.3c0,0.3,0,0.5,0.1,0.6c0.1,0.1,0.2,0.2,0.5,0.2c0.2,0,0.4,0,0.7,0v0.7
			c-0.1,0-0.2,0-0.3,0c-0.1,0-0.2,0-0.3,0c-0.5,0-0.9-0.1-1.1-0.3s-0.3-0.6-0.3-1.1V2.6h-1.1V1.9h1.1V0h0.8v1.9H27.5z"/>
		<path class="st0" d="M29.7,6.2c0.1,0.3,0.2,0.6,0.4,0.8c0.2,0.2,0.4,0.4,0.7,0.6c0.3,0.2,0.6,0.2,1,0.2c0.6,0,1-0.1,1.3-0.4
			c0.3-0.3,0.5-0.7,0.7-1.2h0.8c-0.2,0.7-0.5,1.3-0.9,1.7c-0.4,0.4-1.1,0.6-1.9,0.6c-0.5,0-0.9-0.1-1.3-0.3C30,8,29.7,7.8,29.5,7.5
			c-0.2-0.3-0.4-0.7-0.5-1.1c-0.1-0.4-0.2-0.8-0.2-1.3c0-0.4,0.1-0.8,0.2-1.2s0.3-0.8,0.5-1.1C29.7,2.5,30,2.2,30.4,2
			c0.4-0.2,0.8-0.3,1.3-0.3c0.5,0,0.9,0.1,1.3,0.3c0.4,0.2,0.7,0.5,0.9,0.8c0.2,0.3,0.4,0.7,0.5,1.1c0.1,0.4,0.1,0.9,0.1,1.3h-4.9
			C29.6,5.6,29.6,5.9,29.7,6.2z M33.5,3.8c-0.1-0.3-0.2-0.5-0.4-0.7c-0.2-0.2-0.4-0.4-0.6-0.5c-0.2-0.1-0.5-0.2-0.8-0.2
			c-0.3,0-0.6,0.1-0.9,0.2c-0.2,0.1-0.5,0.3-0.6,0.5c-0.2,0.2-0.3,0.5-0.4,0.7c-0.1,0.3-0.2,0.6-0.2,0.8h4.1
			C33.7,4.4,33.6,4.1,33.5,3.8z"/>
		<path class="st0" d="M39.7,3.2c-0.1-0.2-0.2-0.3-0.4-0.4S39,2.5,38.8,2.5c-0.2-0.1-0.4-0.1-0.6-0.1c-0.2,0-0.3,0-0.5,0.1
			c-0.2,0-0.3,0.1-0.5,0.2C37,2.7,36.9,2.8,36.8,3c-0.1,0.1-0.1,0.3-0.1,0.5c0,0.2,0,0.3,0.1,0.4C36.9,4,37,4.1,37.1,4.2
			s0.3,0.2,0.4,0.2c0.2,0.1,0.3,0.1,0.4,0.1l1,0.2c0.2,0,0.4,0.1,0.7,0.2s0.4,0.2,0.6,0.3s0.3,0.3,0.4,0.5c0.1,0.2,0.2,0.5,0.2,0.7
			c0,0.3-0.1,0.6-0.2,0.9S40.2,7.9,40,8s-0.5,0.3-0.8,0.3s-0.6,0.1-0.9,0.1c-0.8,0-1.4-0.2-1.8-0.5S35.7,7,35.7,6.2h0.8
			c0,0.5,0.2,0.9,0.6,1.2c0.4,0.3,0.8,0.4,1.3,0.4c0.2,0,0.4,0,0.6-0.1c0.2,0,0.4-0.1,0.6-0.2c0.2-0.1,0.3-0.2,0.4-0.4
			s0.2-0.3,0.2-0.6c0-0.2,0-0.3-0.1-0.5s-0.2-0.2-0.3-0.3c-0.1-0.1-0.3-0.2-0.5-0.2s-0.3-0.1-0.5-0.1l-1-0.2C37.4,5.2,37.2,5.1,37,5
			c-0.2-0.1-0.4-0.2-0.6-0.3c-0.2-0.1-0.3-0.3-0.4-0.5s-0.1-0.4-0.1-0.7c0-0.3,0.1-0.6,0.2-0.8c0.1-0.2,0.3-0.4,0.6-0.6
			c0.2-0.1,0.5-0.2,0.8-0.3s0.6-0.1,0.8-0.1c0.3,0,0.6,0,0.9,0.1s0.5,0.2,0.7,0.4c0.2,0.2,0.4,0.4,0.5,0.6c0.1,0.3,0.2,0.6,0.2,0.9
			h-0.8C39.8,3.5,39.8,3.3,39.7,3.2z"/>
		<path class="st0" d="M5.2,21.3v-1.2h0c-0.1,0.2-0.2,0.4-0.4,0.6c-0.2,0.2-0.3,0.3-0.5,0.4c-0.2,0.1-0.4,0.2-0.7,0.3
			c-0.2,0.1-0.5,0.1-0.7,0.1c-0.5,0-0.9-0.1-1.3-0.3c-0.4-0.2-0.7-0.4-0.9-0.7c-0.2-0.3-0.4-0.7-0.5-1.1C0.1,19,0,18.6,0,18.1
			s0.1-0.9,0.2-1.3c0.1-0.4,0.3-0.8,0.5-1.1c0.2-0.3,0.5-0.6,0.9-0.7c0.4-0.2,0.8-0.3,1.3-0.3c0.2,0,0.5,0,0.7,0.1
			C3.8,14.9,4,15,4.2,15.1c0.2,0.1,0.4,0.3,0.5,0.4c0.2,0.2,0.3,0.4,0.4,0.6h0v-3.7h0.8v8.8H5.2z M0.9,19.1C1,19.4,1.1,19.7,1.3,20
			c0.2,0.3,0.4,0.5,0.6,0.6c0.3,0.2,0.6,0.2,1,0.2c0.4,0,0.8-0.1,1-0.2c0.3-0.2,0.5-0.4,0.7-0.6c0.2-0.3,0.3-0.5,0.4-0.9
			c0.1-0.3,0.1-0.7,0.1-1s0-0.7-0.1-1c-0.1-0.3-0.2-0.6-0.4-0.9c-0.2-0.3-0.4-0.5-0.7-0.6s-0.6-0.2-1-0.2c-0.4,0-0.7,0.1-1,0.2
			S1.4,16,1.3,16.3c-0.2,0.3-0.3,0.5-0.4,0.9c-0.1,0.3-0.1,0.7-0.1,1S0.8,18.8,0.9,19.1z"/>
		<path class="st0" d="M8.4,19.2c0.1,0.3,0.2,0.6,0.4,0.8c0.2,0.2,0.4,0.4,0.7,0.6c0.3,0.2,0.6,0.2,1,0.2c0.6,0,1-0.1,1.3-0.4
			s0.5-0.7,0.7-1.2h0.8c-0.2,0.7-0.5,1.3-0.9,1.7c-0.4,0.4-1.1,0.6-1.9,0.6c-0.5,0-0.9-0.1-1.3-0.3c-0.4-0.2-0.7-0.4-0.9-0.7
			c-0.2-0.3-0.4-0.7-0.5-1.1c-0.1-0.4-0.2-0.8-0.2-1.3c0-0.4,0.1-0.8,0.2-1.2c0.1-0.4,0.3-0.8,0.5-1.1c0.2-0.3,0.5-0.6,0.9-0.8
			c0.4-0.2,0.8-0.3,1.3-0.3c0.5,0,0.9,0.1,1.3,0.3c0.4,0.2,0.7,0.5,0.9,0.8c0.2,0.3,0.4,0.7,0.5,1.1c0.1,0.4,0.1,0.9,0.1,1.3H8.3
			C8.3,18.6,8.4,18.9,8.4,19.2z M12.3,16.8c-0.1-0.3-0.2-0.5-0.4-0.7c-0.2-0.2-0.4-0.4-0.6-0.5c-0.2-0.1-0.5-0.2-0.8-0.2
			c-0.3,0-0.6,0.1-0.9,0.2s-0.5,0.3-0.6,0.5c-0.2,0.2-0.3,0.5-0.4,0.7c-0.1,0.3-0.2,0.6-0.2,0.8h4.1C12.4,17.4,12.4,17.1,12.3,16.8z
			"/>
		<path class="st0" d="M15.6,12.5v8.8h-0.8v-8.8H15.6z"/>
		<path class="st1" d="M25.7,20.5L25.7,20.5c-0.2,0.3-0.5,0.6-0.8,0.7s-0.7,0.2-1.1,0.2c-0.5,0-0.9-0.1-1.2-0.3
			c-0.3-0.2-0.6-0.4-0.8-0.7c-0.2-0.3-0.4-0.6-0.5-1c-0.1-0.4-0.2-0.8-0.2-1.2c0-0.4,0.1-0.8,0.2-1.2c0.1-0.4,0.3-0.7,0.5-1
			c0.2-0.3,0.5-0.5,0.8-0.7c0.3-0.2,0.7-0.3,1.2-0.3c0.4,0,0.7,0.1,1,0.2c0.3,0.2,0.6,0.4,0.8,0.7h0v-3h1.7v8.3h-1.6V20.5z
			 M25.6,18.3c0-0.2,0-0.5-0.1-0.7s-0.1-0.4-0.2-0.6c-0.1-0.2-0.3-0.3-0.4-0.4s-0.4-0.2-0.7-0.2c-0.3,0-0.5,0.1-0.7,0.2
			s-0.3,0.3-0.4,0.4c-0.1,0.2-0.2,0.4-0.2,0.6s-0.1,0.5-0.1,0.7c0,0.2,0,0.5,0.1,0.7c0.1,0.2,0.1,0.4,0.3,0.6s0.3,0.3,0.5,0.4
			c0.2,0.1,0.4,0.2,0.7,0.2c0.3,0,0.5-0.1,0.7-0.2c0.2-0.1,0.3-0.3,0.4-0.4c0.1-0.2,0.2-0.4,0.2-0.6C25.6,18.8,25.6,18.5,25.6,18.3z
			"/>
		<path class="st1" d="M30.3,18.7c0,0.5,0.2,0.9,0.4,1.2c0.2,0.2,0.6,0.4,1.1,0.4c0.3,0,0.6-0.1,0.9-0.3c0.2-0.2,0.4-0.3,0.4-0.5
			h1.5c-0.2,0.7-0.6,1.2-1.1,1.5c-0.5,0.3-1.1,0.5-1.7,0.5c-0.5,0-0.9-0.1-1.3-0.2s-0.7-0.4-1-0.7s-0.5-0.6-0.6-1s-0.2-0.8-0.2-1.3
			c0-0.4,0.1-0.9,0.2-1.3c0.1-0.4,0.4-0.7,0.6-1s0.6-0.5,1-0.7c0.4-0.2,0.8-0.2,1.3-0.2c0.5,0,1,0.1,1.3,0.3
			c0.4,0.2,0.7,0.5,0.9,0.8c0.2,0.3,0.4,0.7,0.5,1.1c0.1,0.4,0.1,0.9,0.1,1.3H30.3z M33,17.7c-0.1-0.4-0.2-0.7-0.4-1
			c-0.2-0.2-0.5-0.3-0.9-0.3c-0.3,0-0.5,0-0.7,0.1c-0.2,0.1-0.3,0.2-0.4,0.3s-0.2,0.3-0.2,0.4c0,0.1-0.1,0.3-0.1,0.4H33z"/>
		<path class="st1" d="M37.4,19.4c0,0.2,0,0.3,0.1,0.5c0.1,0.1,0.2,0.2,0.3,0.3c0.1,0.1,0.3,0.1,0.4,0.2c0.2,0,0.3,0.1,0.5,0.1
			c0.1,0,0.2,0,0.4,0c0.1,0,0.2-0.1,0.3-0.1c0.1-0.1,0.2-0.1,0.3-0.2c0.1-0.1,0.1-0.2,0.1-0.4c0-0.1,0-0.2-0.1-0.3
			c-0.1-0.1-0.2-0.2-0.4-0.2s-0.4-0.1-0.6-0.2c-0.2-0.1-0.5-0.1-0.8-0.2c-0.2-0.1-0.5-0.1-0.7-0.2s-0.4-0.2-0.6-0.3
			c-0.2-0.1-0.3-0.3-0.4-0.5c-0.1-0.2-0.2-0.4-0.2-0.7c0-0.4,0.1-0.7,0.2-0.9s0.4-0.4,0.6-0.6c0.2-0.1,0.5-0.2,0.8-0.3
			c0.3-0.1,0.6-0.1,1-0.1c0.3,0,0.6,0,0.9,0.1c0.3,0.1,0.6,0.2,0.8,0.3c0.2,0.1,0.4,0.3,0.6,0.6c0.2,0.2,0.3,0.6,0.3,0.9h-1.6
			c0-0.3-0.1-0.5-0.4-0.6c-0.2-0.1-0.5-0.2-0.8-0.2c-0.1,0-0.2,0-0.3,0c-0.1,0-0.2,0-0.3,0.1c-0.1,0-0.2,0.1-0.2,0.2
			c-0.1,0.1-0.1,0.2-0.1,0.3c0,0.1,0.1,0.3,0.2,0.4c0.1,0.1,0.3,0.2,0.4,0.2c0.2,0.1,0.4,0.1,0.6,0.2s0.5,0.1,0.7,0.2
			c0.2,0.1,0.5,0.1,0.7,0.2c0.2,0.1,0.4,0.2,0.6,0.3c0.2,0.1,0.3,0.3,0.4,0.5c0.1,0.2,0.2,0.4,0.2,0.7c0,0.4-0.1,0.7-0.2,1
			s-0.4,0.5-0.6,0.6c-0.3,0.2-0.5,0.3-0.9,0.3c-0.3,0.1-0.7,0.1-1,0.1c-0.3,0-0.7,0-1-0.1c-0.3-0.1-0.6-0.2-0.9-0.4
			c-0.3-0.2-0.5-0.4-0.6-0.7s-0.3-0.6-0.3-1H37.4z"/>
		<path class="st1" d="M42.8,17.1c0-0.4,0.1-0.7,0.3-1s0.4-0.5,0.7-0.6c0.3-0.2,0.6-0.3,0.9-0.3c0.3-0.1,0.7-0.1,1-0.1
			c0.3,0,0.6,0,0.9,0.1s0.6,0.1,0.8,0.3s0.5,0.3,0.6,0.5c0.2,0.2,0.2,0.5,0.2,0.9V20c0,0.3,0,0.5,0,0.8c0,0.2,0.1,0.4,0.2,0.6h-1.7
			c0-0.1-0.1-0.2-0.1-0.3c0-0.1,0-0.2,0-0.3c-0.3,0.3-0.6,0.5-0.9,0.6c-0.4,0.1-0.7,0.2-1.1,0.2c-0.3,0-0.6,0-0.8-0.1
			c-0.2-0.1-0.5-0.2-0.7-0.3c-0.2-0.1-0.3-0.3-0.4-0.6c-0.1-0.2-0.2-0.5-0.2-0.8c0-0.3,0.1-0.6,0.2-0.8c0.1-0.2,0.3-0.4,0.5-0.5
			c0.2-0.1,0.4-0.2,0.7-0.3c0.2-0.1,0.5-0.1,0.8-0.2s0.5-0.1,0.7-0.1c0.2,0,0.4-0.1,0.6-0.1c0.2,0,0.3-0.1,0.4-0.2
			c0.1-0.1,0.2-0.2,0.2-0.4c0-0.2,0-0.3-0.1-0.4c-0.1-0.1-0.1-0.2-0.2-0.2c-0.1-0.1-0.2-0.1-0.3-0.1c-0.1,0-0.3,0-0.4,0
			c-0.3,0-0.6,0.1-0.8,0.2c-0.2,0.1-0.3,0.4-0.3,0.7H42.8z M46.7,18.4c-0.1,0.1-0.2,0.1-0.3,0.1c-0.1,0-0.2,0.1-0.3,0.1
			s-0.2,0-0.4,0.1c-0.1,0-0.3,0-0.4,0.1c-0.1,0-0.3,0.1-0.4,0.1c-0.1,0-0.2,0.1-0.3,0.2c-0.1,0.1-0.2,0.2-0.2,0.3
			c-0.1,0.1-0.1,0.2-0.1,0.4c0,0.2,0,0.3,0.1,0.4c0.1,0.1,0.1,0.2,0.2,0.2c0.1,0.1,0.2,0.1,0.3,0.1s0.3,0,0.4,0
			c0.3,0,0.6-0.1,0.8-0.2c0.2-0.1,0.3-0.2,0.4-0.4c0.1-0.2,0.1-0.3,0.2-0.5c0-0.2,0-0.3,0-0.4V18.4z"/>
		<path class="st1" d="M53.1,22.1c-0.2,0.5-0.4,0.8-0.7,1c-0.3,0.2-0.8,0.3-1.3,0.3c-0.2,0-0.3,0-0.5,0c-0.2,0-0.3,0-0.5,0V22
			c0.2,0,0.3,0,0.5,0s0.3,0,0.5,0c0.1,0,0.3-0.1,0.4-0.1s0.2-0.2,0.2-0.3c0-0.1,0.1-0.2,0.1-0.3c0-0.1,0-0.3-0.1-0.4l-2.1-5.6h1.8
			l1.4,4.1h0l1.3-4.1h1.7L53.1,22.1z"/>
		<path class="st1" d="M62.3,21.3h-1.6v-0.8h0c-0.2,0.3-0.5,0.6-0.8,0.8c-0.3,0.2-0.7,0.2-1,0.2c-0.4,0-0.8-0.1-1.1-0.2
			c-0.3-0.1-0.5-0.3-0.7-0.5c-0.2-0.2-0.3-0.5-0.3-0.8c-0.1-0.3-0.1-0.6-0.1-1v-3.7h1.7v3.4c0,0.5,0.1,0.9,0.2,1.1
			c0.2,0.2,0.4,0.4,0.8,0.4c0.5,0,0.8-0.1,1-0.4c0.2-0.3,0.3-0.7,0.3-1.3v-3.2h1.7V21.3z"/>
		<path class="st1" d="M64,15.3h1.6v0.8h0c0.2-0.3,0.5-0.6,0.8-0.8c0.3-0.2,0.7-0.2,1-0.2c0.4,0,0.8,0.1,1.1,0.2
			c0.3,0.1,0.5,0.3,0.7,0.5c0.2,0.2,0.3,0.5,0.3,0.8c0.1,0.3,0.1,0.6,0.1,1v3.7H68v-3.4c0-0.5-0.1-0.9-0.2-1.1
			c-0.2-0.2-0.4-0.4-0.8-0.4c-0.4,0-0.8,0.1-1,0.4c-0.2,0.3-0.3,0.7-0.3,1.3v3.2H64V15.3z"/>
		<path class="st1" d="M71.2,18.3c0-0.5,0.1-0.9,0.2-1.3s0.4-0.7,0.6-1s0.6-0.5,1-0.6c0.4-0.2,0.8-0.2,1.3-0.2
			c0.5,0,0.9,0.1,1.3,0.2c0.4,0.2,0.7,0.4,1,0.6s0.5,0.6,0.6,1s0.2,0.8,0.2,1.3c0,0.5-0.1,0.9-0.2,1.3s-0.4,0.7-0.6,1
			s-0.6,0.5-1,0.6s-0.8,0.2-1.3,0.2c-0.5,0-0.9-0.1-1.3-0.2c-0.4-0.2-0.7-0.4-1-0.6s-0.5-0.6-0.6-1S71.2,18.8,71.2,18.3z M72.9,18.3
			c0,0.2,0,0.5,0.1,0.7c0,0.2,0.1,0.4,0.2,0.6c0.1,0.2,0.3,0.3,0.4,0.4c0.2,0.1,0.4,0.2,0.7,0.2s0.5-0.1,0.7-0.2
			c0.2-0.1,0.3-0.3,0.5-0.4c0.1-0.2,0.2-0.4,0.2-0.6c0-0.2,0.1-0.5,0.1-0.7s0-0.5-0.1-0.7c0-0.2-0.1-0.4-0.2-0.6
			c-0.1-0.2-0.3-0.3-0.5-0.4c-0.2-0.1-0.4-0.2-0.7-0.2s-0.5,0.1-0.7,0.2c-0.2,0.1-0.3,0.3-0.4,0.4c-0.1,0.2-0.2,0.4-0.2,0.6
			C72.9,17.8,72.9,18.1,72.9,18.3z"/>
	</g>
</g>
</svg>
