<!-- Generator: Adobe Illustrator 20.1.0, SVG Export Plug-In  -->
<svg version="1.1"
	 xmlns="http://www.w3.org/2000/svg" xmlns:xlink="http://www.w3.org/1999/xlink" xmlns:a="http://ns.adobe.com/AdobeSVGViewerExtensions/3.0/"
	 x="0px" y="0px" width="688.9px" height="16.8px" viewBox="0 0 688.9 16.8"
	 style="overflow:scroll;enable-background:new 0 0 688.9 16.8;" xml:space="preserve">
<style type="text/css">
	.st0{opacity:0.9;fill:#F18A21;}
	.st1{opacity:0.8;fill:#333333;}
</style>
<defs>
</defs>
<path class="st0" d="M0,0.5h4l3,8.8h0l2.8-8.8h4v12.8h-2.6V4.3h0L8,13.4H5.8l-3.1-9h0v9H0V0.5z"/>
<path class="st0" d="M17.5,8.7c0-0.7,0.1-1.4,0.3-2s0.6-1.1,1-1.5c0.4-0.4,0.9-0.8,1.5-1c0.6-0.2,1.2-0.4,2-0.4s1.4,0.1,2,0.4
	c0.6,0.2,1.1,0.6,1.5,1s0.7,0.9,1,1.5c0.2,0.6,0.3,1.3,0.3,2s-0.1,1.4-0.3,2c-0.2,0.6-0.6,1.1-1,1.5c-0.4,0.4-0.9,0.8-1.5,1
	c-0.6,0.2-1.3,0.4-2,0.4s-1.4-0.1-2-0.4c-0.6-0.2-1.1-0.6-1.5-1c-0.4-0.4-0.7-0.9-1-1.5C17.6,10.2,17.5,9.5,17.5,8.7z M20.1,8.7
	c0,0.4,0,0.7,0.1,1.1s0.2,0.7,0.4,1s0.4,0.5,0.7,0.7c0.3,0.2,0.6,0.3,1.1,0.3c0.4,0,0.8-0.1,1.1-0.3c0.3-0.2,0.5-0.4,0.7-0.7
	s0.3-0.6,0.4-1s0.1-0.7,0.1-1.1s0-0.7-0.1-1.1s-0.2-0.7-0.4-1S23.7,6.2,23.4,6c-0.3-0.2-0.7-0.3-1.1-0.3c-0.4,0-0.8,0.1-1.1,0.3
	c-0.3,0.2-0.5,0.4-0.7,0.7s-0.3,0.6-0.4,1S20.1,8.4,20.1,8.7z"/>
<path class="st0" d="M37.2,12.2L37.2,12.2c-0.3,0.5-0.7,0.9-1.2,1.1c-0.5,0.2-1,0.3-1.6,0.3c-0.7,0-1.3-0.1-1.8-0.4
	c-0.5-0.3-1-0.6-1.3-1.1c-0.3-0.5-0.6-1-0.8-1.6s-0.3-1.2-0.3-1.9c0-0.6,0.1-1.2,0.3-1.8c0.2-0.6,0.4-1.1,0.8-1.5
	c0.3-0.4,0.8-0.8,1.3-1.1C33,4,33.6,3.8,34.3,3.8c0.5,0,1.1,0.1,1.6,0.4c0.5,0.2,0.9,0.6,1.2,1h0V0.5h2.6v12.8h-2.4V12.2z M37.2,8.7
	c0-0.4,0-0.7-0.1-1.1s-0.2-0.7-0.4-0.9S36.3,6.2,36,6c-0.3-0.2-0.6-0.3-1-0.3c-0.4,0-0.8,0.1-1.1,0.3c-0.3,0.2-0.5,0.4-0.7,0.7
	s-0.3,0.6-0.4,0.9c-0.1,0.4-0.1,0.7-0.1,1.1c0,0.4,0,0.7,0.1,1.1c0.1,0.4,0.2,0.7,0.4,1s0.4,0.5,0.7,0.7s0.6,0.3,1,0.3
	c0.4,0,0.8-0.1,1.1-0.3s0.5-0.4,0.7-0.7s0.3-0.6,0.4-1S37.2,9.1,37.2,8.7z"/>
<path class="st0" d="M52.1,13.4h-2.4v-1.3h-0.1c-0.3,0.5-0.7,0.9-1.3,1.2s-1,0.4-1.6,0.4c-0.7,0-1.2-0.1-1.7-0.3
	c-0.4-0.2-0.8-0.4-1-0.8c-0.3-0.3-0.4-0.7-0.5-1.2c-0.1-0.5-0.2-1-0.2-1.6V4.1h2.6v5.2c0,0.8,0.1,1.3,0.4,1.7s0.7,0.6,1.3,0.6
	c0.7,0,1.2-0.2,1.5-0.6c0.3-0.4,0.5-1.1,0.5-2V4.1h2.6V13.4z"/>
<path class="st0" d="M55.9,0.5h2.6v12.8h-2.6V0.5z"/>
<path class="st0" d="M62.1,6.9c0-0.6,0.2-1.1,0.4-1.5c0.3-0.4,0.6-0.7,1-1C64,4.3,64.4,4.1,64.9,4c0.5-0.1,1-0.2,1.5-0.2
	c0.5,0,0.9,0,1.4,0.1c0.5,0.1,0.9,0.2,1.3,0.4s0.7,0.5,1,0.8c0.3,0.3,0.4,0.8,0.4,1.3v4.8c0,0.4,0,0.8,0.1,1.2
	c0,0.4,0.1,0.7,0.3,0.9h-2.6c0-0.1-0.1-0.3-0.1-0.4c0-0.1-0.1-0.3-0.1-0.5c-0.4,0.4-0.9,0.7-1.4,0.9c-0.6,0.2-1.1,0.3-1.7,0.3
	c-0.4,0-0.9-0.1-1.2-0.2c-0.4-0.1-0.7-0.3-1-0.5c-0.3-0.2-0.5-0.5-0.7-0.9c-0.2-0.3-0.2-0.8-0.2-1.2c0-0.5,0.1-1,0.3-1.3
	c0.2-0.3,0.4-0.6,0.7-0.8c0.3-0.2,0.6-0.4,1-0.5C64.2,8.2,64.6,8.1,65,8c0.4-0.1,0.8-0.1,1.1-0.1c0.4,0,0.7-0.1,1-0.2
	s0.5-0.2,0.7-0.3S68,7.1,68,6.8c0-0.3,0-0.5-0.1-0.7c-0.1-0.2-0.2-0.3-0.4-0.4c-0.2-0.1-0.3-0.1-0.5-0.2c-0.2,0-0.4,0-0.6,0
	c-0.5,0-0.9,0.1-1.2,0.3c-0.3,0.2-0.5,0.6-0.5,1.1H62.1z M68,8.8c-0.1,0.1-0.2,0.2-0.4,0.2c-0.2,0.1-0.3,0.1-0.5,0.1
	s-0.4,0.1-0.6,0.1c-0.2,0-0.4,0.1-0.6,0.1c-0.2,0-0.4,0.1-0.6,0.1S65,9.7,64.8,9.8s-0.2,0.2-0.3,0.4s-0.1,0.4-0.1,0.6
	c0,0.2,0,0.4,0.1,0.6c0.1,0.1,0.2,0.3,0.3,0.4c0.1,0.1,0.3,0.2,0.5,0.2c0.2,0,0.4,0.1,0.6,0.1c0.5,0,0.9-0.1,1.2-0.3
	s0.5-0.4,0.6-0.6s0.2-0.5,0.2-0.7c0-0.2,0-0.4,0-0.6V8.8z"/>
<path class="st0" d="M81.2,0.5h2.6v12.8h-2.6V0.5z"/>
<path class="st0" d="M87.5,6.9c0-0.6,0.2-1.1,0.4-1.5c0.3-0.4,0.6-0.7,1-1c0.4-0.2,0.9-0.4,1.4-0.5c0.5-0.1,1-0.2,1.5-0.2
	c0.5,0,0.9,0,1.4,0.1c0.5,0.1,0.9,0.2,1.3,0.4s0.7,0.5,1,0.8c0.3,0.3,0.4,0.8,0.4,1.3v4.8c0,0.4,0,0.8,0.1,1.2
	c0,0.4,0.1,0.7,0.3,0.9h-2.6c0-0.1-0.1-0.3-0.1-0.4c0-0.1-0.1-0.3-0.1-0.5c-0.4,0.4-0.9,0.7-1.4,0.9c-0.6,0.2-1.1,0.3-1.7,0.3
	c-0.4,0-0.9-0.1-1.2-0.2c-0.4-0.1-0.7-0.3-1-0.5c-0.3-0.2-0.5-0.5-0.7-0.9c-0.2-0.3-0.2-0.8-0.2-1.2c0-0.5,0.1-1,0.3-1.3
	c0.2-0.3,0.4-0.6,0.7-0.8c0.3-0.2,0.6-0.4,1-0.5c0.4-0.1,0.8-0.2,1.2-0.2c0.4-0.1,0.8-0.1,1.1-0.1c0.4,0,0.7-0.1,1-0.2
	s0.5-0.2,0.7-0.3s0.3-0.3,0.3-0.6c0-0.3,0-0.5-0.1-0.7C93.1,6,93,5.9,92.9,5.8c-0.2-0.1-0.3-0.1-0.5-0.2c-0.2,0-0.4,0-0.6,0
	c-0.5,0-0.9,0.1-1.2,0.3c-0.3,0.2-0.5,0.6-0.5,1.1H87.5z M93.3,8.8c-0.1,0.1-0.2,0.2-0.4,0.2c-0.2,0.1-0.3,0.1-0.5,0.1
	S92,9.3,91.8,9.3c-0.2,0-0.4,0.1-0.6,0.1c-0.2,0-0.4,0.1-0.6,0.1s-0.3,0.1-0.5,0.2s-0.2,0.2-0.3,0.4s-0.1,0.4-0.1,0.6
	c0,0.2,0,0.4,0.1,0.6c0.1,0.1,0.2,0.3,0.3,0.4c0.1,0.1,0.3,0.2,0.5,0.2c0.2,0,0.4,0.1,0.6,0.1c0.5,0,0.9-0.1,1.2-0.3
	s0.5-0.4,0.6-0.6s0.2-0.5,0.2-0.7c0-0.2,0-0.4,0-0.6V8.8z"/>
<path class="st0" d="M106.5,0.5h2.6v12.8h-2.6V0.5z"/>
<path class="st0" d="M115.5,2.7H113V0.5h2.6V2.7z M113,4.1h2.6v9.3H113V4.1z"/>
<path class="st0" d="M119.3,0.5h2.6v4.7h0c0.3-0.5,0.7-0.8,1.3-1.1c0.5-0.2,1.1-0.3,1.7-0.3c0.5,0,0.9,0.1,1.4,0.3
	c0.5,0.2,0.9,0.5,1.2,0.9c0.4,0.4,0.7,0.9,0.9,1.5c0.2,0.6,0.3,1.4,0.3,2.2s-0.1,1.6-0.3,2.2s-0.5,1.1-0.9,1.5
	c-0.4,0.4-0.8,0.7-1.2,0.9s-0.9,0.3-1.4,0.3c-0.7,0-1.3-0.1-1.8-0.3c-0.5-0.2-0.9-0.6-1.2-1.1h0v1.2h-2.4V0.5z M126.1,8.7
	c0-0.4,0-0.8-0.1-1.1s-0.2-0.7-0.4-1c-0.2-0.3-0.4-0.5-0.7-0.7c-0.3-0.2-0.6-0.2-1-0.2c-0.4,0-0.7,0.1-1,0.2
	c-0.3,0.2-0.5,0.4-0.7,0.7c-0.2,0.3-0.3,0.6-0.4,1c-0.1,0.4-0.1,0.7-0.1,1.1c0,0.4,0,0.8,0.1,1.1c0.1,0.4,0.2,0.7,0.4,1
	s0.4,0.5,0.7,0.7c0.3,0.2,0.6,0.2,1,0.2c0.4,0,0.7-0.1,1-0.2c0.3-0.2,0.5-0.4,0.7-0.7s0.3-0.6,0.4-1S126.1,9.1,126.1,8.7z"/>
<path class="st0" d="M134.2,9.4c0,0.8,0.2,1.4,0.6,1.8c0.4,0.4,0.9,0.6,1.7,0.6c0.5,0,1-0.1,1.3-0.4s0.6-0.5,0.7-0.8h2.2
	c-0.4,1.1-0.9,1.9-1.7,2.4s-1.6,0.7-2.7,0.7c-0.7,0-1.4-0.1-2-0.4s-1.1-0.6-1.5-1s-0.7-0.9-0.9-1.5c-0.2-0.6-0.3-1.3-0.3-2
	c0-0.7,0.1-1.3,0.3-1.9c0.2-0.6,0.6-1.1,1-1.6c0.4-0.4,0.9-0.8,1.5-1c0.6-0.3,1.2-0.4,1.9-0.4c0.8,0,1.5,0.2,2.1,0.5
	c0.6,0.3,1.1,0.7,1.4,1.2s0.6,1.1,0.8,1.8c0.2,0.7,0.2,1.3,0.2,2.1H134.2z M138.3,7.7c-0.1-0.6-0.3-1.1-0.6-1.5
	c-0.3-0.3-0.8-0.5-1.4-0.5c-0.4,0-0.7,0.1-1,0.2c-0.3,0.1-0.5,0.3-0.6,0.5c-0.2,0.2-0.3,0.4-0.3,0.6c-0.1,0.2-0.1,0.4-0.1,0.6H138.3
	z"/>
<path class="st0" d="M144.2,4.1h2.4v1.7h0c0.1-0.3,0.3-0.6,0.5-0.8c0.2-0.2,0.4-0.5,0.7-0.6s0.5-0.3,0.9-0.4
	c0.3-0.1,0.6-0.1,0.9-0.1c0.2,0,0.4,0,0.6,0.1v2.4c-0.1,0-0.3,0-0.4-0.1c-0.2,0-0.3,0-0.5,0c-0.5,0-0.9,0.1-1.2,0.2
	s-0.6,0.4-0.8,0.6c-0.2,0.3-0.3,0.6-0.4,1c-0.1,0.4-0.1,0.8-0.1,1.2v4.2h-2.6V4.1z"/>
<path class="st0" d="M152.9,6.9c0-0.6,0.2-1.1,0.4-1.5c0.3-0.4,0.6-0.7,1-1c0.4-0.2,0.9-0.4,1.4-0.5c0.5-0.1,1-0.2,1.5-0.2
	c0.5,0,0.9,0,1.4,0.1c0.5,0.1,0.9,0.2,1.3,0.4s0.7,0.5,1,0.8c0.3,0.3,0.4,0.8,0.4,1.3v4.8c0,0.4,0,0.8,0.1,1.2
	c0,0.4,0.1,0.7,0.3,0.9H159c0-0.1-0.1-0.3-0.1-0.4c0-0.1-0.1-0.3-0.1-0.5c-0.4,0.4-0.9,0.7-1.4,0.9c-0.6,0.2-1.1,0.3-1.7,0.3
	c-0.4,0-0.9-0.1-1.2-0.2c-0.4-0.1-0.7-0.3-1-0.5c-0.3-0.2-0.5-0.5-0.7-0.9c-0.2-0.3-0.2-0.8-0.2-1.2c0-0.5,0.1-1,0.3-1.3
	c0.2-0.3,0.4-0.6,0.7-0.8c0.3-0.2,0.6-0.4,1-0.5c0.4-0.1,0.8-0.2,1.2-0.2c0.4-0.1,0.8-0.1,1.1-0.1c0.4,0,0.7-0.1,1-0.2
	s0.5-0.2,0.7-0.3s0.3-0.3,0.3-0.6c0-0.3,0-0.5-0.1-0.7c-0.1-0.2-0.2-0.3-0.4-0.4c-0.2-0.1-0.3-0.1-0.5-0.2c-0.2,0-0.4,0-0.6,0
	c-0.5,0-0.9,0.1-1.2,0.3c-0.3,0.2-0.5,0.6-0.5,1.1H152.9z M158.8,8.8c-0.1,0.1-0.2,0.2-0.4,0.2c-0.2,0.1-0.3,0.1-0.5,0.1
	s-0.4,0.1-0.6,0.1c-0.2,0-0.4,0.1-0.6,0.1c-0.2,0-0.4,0.1-0.6,0.1s-0.3,0.1-0.5,0.2s-0.2,0.2-0.3,0.4s-0.1,0.4-0.1,0.6
	c0,0.2,0,0.4,0.1,0.6c0.1,0.1,0.2,0.3,0.3,0.4c0.1,0.1,0.3,0.2,0.5,0.2c0.2,0,0.4,0.1,0.6,0.1c0.5,0,0.9-0.1,1.2-0.3
	s0.5-0.4,0.6-0.6s0.2-0.5,0.2-0.7c0-0.2,0-0.4,0-0.6V8.8z"/>
<path class="st0" d="M171.4,7.4c-0.2-1.1-0.8-1.6-1.9-1.6c-0.4,0-0.7,0.1-1,0.3s-0.5,0.4-0.7,0.7s-0.3,0.6-0.4,1s-0.1,0.7-0.1,1
	s0,0.7,0.1,1c0.1,0.3,0.2,0.7,0.4,0.9c0.2,0.3,0.4,0.5,0.7,0.7s0.6,0.3,1,0.3c0.6,0,1.1-0.2,1.4-0.5c0.3-0.3,0.5-0.8,0.6-1.4h2.5
	c-0.2,1.2-0.6,2.2-1.4,2.8c-0.8,0.7-1.8,1-3,1c-0.7,0-1.3-0.1-1.9-0.4c-0.6-0.2-1.1-0.6-1.5-1c-0.4-0.4-0.7-0.9-1-1.5
	c-0.2-0.6-0.3-1.2-0.3-1.9c0-0.7,0.1-1.4,0.3-2c0.2-0.6,0.5-1.1,0.9-1.6c0.4-0.4,0.9-0.8,1.5-1.1c0.6-0.3,1.3-0.4,2-0.4
	c0.5,0,1.1,0.1,1.6,0.2c0.5,0.1,1,0.4,1.4,0.7s0.7,0.7,1,1.1c0.3,0.4,0.4,1,0.4,1.5H171.4z"/>
<path class="st0" d="M179.8,2.7h-2.6V0.5h2.6V2.7z M177.3,4.1h2.6v9.3h-2.6V4.1z"/>
<path class="st0" d="M183.3,8.7c0-0.7,0.1-1.4,0.3-2s0.6-1.1,1-1.5c0.4-0.4,0.9-0.8,1.5-1c0.6-0.2,1.2-0.4,2-0.4s1.4,0.1,2,0.4
	c0.6,0.2,1.1,0.6,1.5,1s0.7,0.9,1,1.5c0.2,0.6,0.3,1.3,0.3,2s-0.1,1.4-0.3,2c-0.2,0.6-0.6,1.1-1,1.5c-0.4,0.4-0.9,0.8-1.5,1
	c-0.6,0.2-1.3,0.4-2,0.4s-1.4-0.1-2-0.4c-0.6-0.2-1.1-0.6-1.5-1c-0.4-0.4-0.7-0.9-1-1.5C183.4,10.2,183.3,9.5,183.3,8.7z M185.9,8.7
	c0,0.4,0,0.7,0.1,1.1s0.2,0.7,0.4,1s0.4,0.5,0.7,0.7c0.3,0.2,0.6,0.3,1.1,0.3c0.4,0,0.8-0.1,1.1-0.3c0.3-0.2,0.5-0.4,0.7-0.7
	s0.3-0.6,0.4-1s0.1-0.7,0.1-1.1s0-0.7-0.1-1.1s-0.2-0.7-0.4-1s-0.4-0.5-0.7-0.7c-0.3-0.2-0.7-0.3-1.1-0.3c-0.4,0-0.8,0.1-1.1,0.3
	c-0.3,0.2-0.5,0.4-0.7,0.7s-0.3,0.6-0.4,1S185.9,8.4,185.9,8.7z M188.6,2.9h-1.8l1.7-2.6h2.8L188.6,2.9z"/>
<path class="st0" d="M196.4,4.1h2.4v1.3h0.1c0.3-0.5,0.7-0.9,1.3-1.2s1-0.4,1.6-0.4c0.7,0,1.2,0.1,1.7,0.3s0.8,0.4,1,0.8
	c0.3,0.3,0.4,0.7,0.5,1.2c0.1,0.5,0.2,1,0.2,1.6v5.7h-2.6V8.1c0-0.8-0.1-1.3-0.4-1.7c-0.2-0.4-0.7-0.6-1.3-0.6
	c-0.7,0-1.2,0.2-1.5,0.6c-0.3,0.4-0.5,1.1-0.5,2v4.9h-2.6V4.1z"/>
<path class="st0" d="M222.3,12.2L222.3,12.2c-0.3,0.5-0.7,0.9-1.2,1.1c-0.5,0.2-1,0.3-1.6,0.3c-0.7,0-1.3-0.1-1.8-0.4
	c-0.5-0.3-1-0.6-1.3-1.1c-0.3-0.5-0.6-1-0.8-1.6s-0.3-1.2-0.3-1.9c0-0.6,0.1-1.2,0.3-1.8c0.2-0.6,0.4-1.1,0.8-1.5
	c0.3-0.4,0.8-0.8,1.3-1.1c0.5-0.3,1.1-0.4,1.8-0.4c0.5,0,1.1,0.1,1.6,0.4c0.5,0.2,0.9,0.6,1.2,1h0V0.5h2.6v12.8h-2.4V12.2z
	 M222.2,8.7c0-0.4,0-0.7-0.1-1.1s-0.2-0.7-0.4-0.9s-0.4-0.5-0.7-0.7c-0.3-0.2-0.6-0.3-1-0.3c-0.4,0-0.8,0.1-1.1,0.3
	c-0.3,0.2-0.5,0.4-0.7,0.7s-0.3,0.6-0.4,0.9c-0.1,0.4-0.1,0.7-0.1,1.1c0,0.4,0,0.7,0.1,1.1c0.1,0.4,0.2,0.7,0.4,1s0.4,0.5,0.7,0.7
	s0.6,0.3,1,0.3c0.4,0,0.8-0.1,1.1-0.3s0.5-0.4,0.7-0.7s0.3-0.6,0.4-1S222.2,9.1,222.2,8.7z"/>
<path class="st0" d="M230.5,9.4c0,0.8,0.2,1.4,0.6,1.8c0.4,0.4,0.9,0.6,1.7,0.6c0.5,0,1-0.1,1.3-0.4s0.6-0.5,0.7-0.8h2.2
	c-0.4,1.1-0.9,1.9-1.7,2.4s-1.6,0.7-2.7,0.7c-0.7,0-1.4-0.1-2-0.4s-1.1-0.6-1.5-1s-0.7-0.9-0.9-1.5c-0.2-0.6-0.3-1.3-0.3-2
	c0-0.7,0.1-1.3,0.3-1.9c0.2-0.6,0.6-1.1,1-1.6c0.4-0.4,0.9-0.8,1.5-1c0.6-0.3,1.2-0.4,1.9-0.4c0.8,0,1.5,0.2,2.1,0.5
	c0.6,0.3,1.1,0.7,1.4,1.2s0.6,1.1,0.8,1.8c0.2,0.7,0.2,1.3,0.2,2.1H230.5z M234.6,7.7c-0.1-0.6-0.3-1.1-0.6-1.5
	c-0.3-0.3-0.8-0.5-1.4-0.5c-0.4,0-0.7,0.1-1,0.2c-0.3,0.1-0.5,0.3-0.6,0.5c-0.2,0.2-0.3,0.4-0.3,0.6c-0.1,0.2-0.1,0.4-0.1,0.6H234.6
	z"/>
<path class="st0" d="M247.3,0.5h2.6v4.8h0.1c0.3-0.5,0.7-0.9,1.2-1.2s1-0.4,1.5-0.4c0.7,0,1.2,0.1,1.7,0.3s0.8,0.4,1,0.8
	c0.3,0.3,0.4,0.7,0.5,1.2c0.1,0.5,0.2,1,0.2,1.6v5.7h-2.6V8.1c0-0.8-0.1-1.3-0.4-1.7c-0.2-0.4-0.7-0.6-1.3-0.6
	c-0.7,0-1.2,0.2-1.5,0.6c-0.3,0.4-0.5,1.1-0.5,2v4.9h-2.6V0.5z"/>
<path class="st0" d="M259.5,8.7c0-0.7,0.1-1.4,0.3-2s0.6-1.1,1-1.5c0.4-0.4,0.9-0.8,1.5-1c0.6-0.2,1.2-0.4,2-0.4s1.4,0.1,2,0.4
	c0.6,0.2,1.1,0.6,1.5,1s0.7,0.9,1,1.5c0.2,0.6,0.3,1.3,0.3,2s-0.1,1.4-0.3,2c-0.2,0.6-0.6,1.1-1,1.5c-0.4,0.4-0.9,0.8-1.5,1
	c-0.6,0.2-1.3,0.4-2,0.4s-1.4-0.1-2-0.4c-0.6-0.2-1.1-0.6-1.5-1c-0.4-0.4-0.7-0.9-1-1.5C259.6,10.2,259.5,9.5,259.5,8.7z M262,8.7
	c0,0.4,0,0.7,0.1,1.1s0.2,0.7,0.4,1s0.4,0.5,0.7,0.7c0.3,0.2,0.6,0.3,1.1,0.3c0.4,0,0.8-0.1,1.1-0.3c0.3-0.2,0.5-0.4,0.7-0.7
	s0.3-0.6,0.4-1s0.1-0.7,0.1-1.1s0-0.7-0.1-1.1s-0.2-0.7-0.4-1s-0.4-0.5-0.7-0.7c-0.3-0.2-0.7-0.3-1.1-0.3c-0.4,0-0.8,0.1-1.1,0.3
	c-0.3,0.2-0.5,0.4-0.7,0.7s-0.3,0.6-0.4,1S262,8.4,262,8.7z"/>
<path class="st0" d="M272.5,4.1h2.4v1.7h0c0.1-0.3,0.3-0.6,0.5-0.8c0.2-0.2,0.4-0.5,0.7-0.6s0.5-0.3,0.9-0.4
	c0.3-0.1,0.6-0.1,0.9-0.1c0.2,0,0.4,0,0.6,0.1v2.4c-0.1,0-0.3,0-0.4-0.1c-0.2,0-0.3,0-0.5,0c-0.5,0-0.9,0.1-1.2,0.2
	s-0.6,0.4-0.8,0.6c-0.2,0.3-0.3,0.6-0.4,1c-0.1,0.4-0.1,0.8-0.1,1.2v4.2h-2.6V4.1z"/>
<path class="st0" d="M281.4,4.1h2.4v1.3h0c0.3-0.5,0.7-0.8,1.2-1.1c0.5-0.3,1-0.4,1.6-0.4c0.6,0,1.1,0.1,1.6,0.4
	c0.5,0.2,0.9,0.6,1.1,1.2c0.3-0.4,0.6-0.8,1.1-1.1s1-0.5,1.7-0.5c0.5,0,0.9,0.1,1.4,0.2c0.4,0.1,0.8,0.3,1.1,0.6
	c0.3,0.3,0.5,0.6,0.7,1c0.2,0.4,0.3,0.9,0.3,1.5v6.2H293V8.1c0-0.3,0-0.6,0-0.9c0-0.3-0.1-0.5-0.2-0.7c-0.1-0.2-0.3-0.4-0.5-0.5
	c-0.2-0.1-0.5-0.2-0.9-0.2s-0.6,0.1-0.9,0.2c-0.2,0.1-0.4,0.3-0.5,0.5c-0.1,0.2-0.2,0.5-0.3,0.8c0,0.3-0.1,0.6-0.1,0.9v5.2h-2.6V8.2
	c0-0.3,0-0.5,0-0.8c0-0.3-0.1-0.5-0.2-0.8c-0.1-0.2-0.2-0.4-0.4-0.5c-0.2-0.1-0.5-0.2-0.9-0.2c-0.1,0-0.3,0-0.5,0.1
	c-0.2,0.1-0.4,0.2-0.6,0.3c-0.2,0.2-0.3,0.4-0.5,0.6s-0.2,0.7-0.2,1.1v5.4h-2.6V4.1z"/>
<path class="st0" d="M299.1,8.7c0-0.7,0.1-1.4,0.3-2s0.6-1.1,1-1.5c0.4-0.4,0.9-0.8,1.5-1c0.6-0.2,1.2-0.4,2-0.4s1.4,0.1,2,0.4
	c0.6,0.2,1.1,0.6,1.5,1s0.7,0.9,1,1.5c0.2,0.6,0.3,1.3,0.3,2s-0.1,1.4-0.3,2c-0.2,0.6-0.6,1.1-1,1.5c-0.4,0.4-0.9,0.8-1.5,1
	c-0.6,0.2-1.3,0.4-2,0.4s-1.4-0.1-2-0.4c-0.6-0.2-1.1-0.6-1.5-1c-0.4-0.4-0.7-0.9-1-1.5C299.2,10.2,299.1,9.5,299.1,8.7z M301.6,8.7
	c0,0.4,0,0.7,0.1,1.1s0.2,0.7,0.4,1s0.4,0.5,0.7,0.7c0.3,0.2,0.6,0.3,1.1,0.3c0.4,0,0.8-0.1,1.1-0.3c0.3-0.2,0.5-0.4,0.7-0.7
	s0.3-0.6,0.4-1s0.1-0.7,0.1-1.1s0-0.7-0.1-1.1s-0.2-0.7-0.4-1S305.3,6.2,305,6c-0.3-0.2-0.7-0.3-1.1-0.3c-0.4,0-0.8,0.1-1.1,0.3
	c-0.3,0.2-0.5,0.4-0.7,0.7s-0.3,0.6-0.4,1S301.6,8.4,301.6,8.7z"/>
<path class="st0" d="M312.1,4.1h2.4v1.3h0.1c0.3-0.5,0.7-0.9,1.3-1.2s1-0.4,1.6-0.4c0.7,0,1.2,0.1,1.7,0.3s0.8,0.4,1,0.8
	c0.3,0.3,0.4,0.7,0.5,1.2c0.1,0.5,0.2,1,0.2,1.6v5.7h-2.6V8.1c0-0.8-0.1-1.3-0.4-1.7c-0.2-0.4-0.7-0.6-1.3-0.6
	c-0.7,0-1.2,0.2-1.5,0.6c-0.3,0.4-0.5,1.1-0.5,2v4.9h-2.6V4.1z"/>
<path class="st0" d="M324.5,6.9c0-0.6,0.2-1.1,0.4-1.5c0.3-0.4,0.6-0.7,1-1c0.4-0.2,0.9-0.4,1.4-0.5c0.5-0.1,1-0.2,1.5-0.2
	c0.5,0,0.9,0,1.4,0.1c0.5,0.1,0.9,0.2,1.3,0.4s0.7,0.5,1,0.8c0.3,0.3,0.4,0.8,0.4,1.3v4.8c0,0.4,0,0.8,0.1,1.2
	c0,0.4,0.1,0.7,0.3,0.9h-2.6c0-0.1-0.1-0.3-0.1-0.4c0-0.1-0.1-0.3-0.1-0.5c-0.4,0.4-0.9,0.7-1.4,0.9c-0.6,0.2-1.1,0.3-1.7,0.3
	c-0.4,0-0.9-0.1-1.2-0.2c-0.4-0.1-0.7-0.3-1-0.5c-0.3-0.2-0.5-0.5-0.7-0.9c-0.2-0.3-0.2-0.8-0.2-1.2c0-0.5,0.1-1,0.3-1.3
	c0.2-0.3,0.4-0.6,0.7-0.8c0.3-0.2,0.6-0.4,1-0.5c0.4-0.1,0.8-0.2,1.2-0.2c0.4-0.1,0.8-0.1,1.1-0.1c0.4,0,0.7-0.1,1-0.2
	s0.5-0.2,0.7-0.3s0.3-0.3,0.3-0.6c0-0.3,0-0.5-0.1-0.7c-0.1-0.2-0.2-0.3-0.4-0.4c-0.2-0.1-0.3-0.1-0.5-0.2c-0.2,0-0.4,0-0.6,0
	c-0.5,0-0.9,0.1-1.2,0.3c-0.3,0.2-0.5,0.6-0.5,1.1H324.5z M330.4,8.8c-0.1,0.1-0.2,0.2-0.4,0.2c-0.2,0.1-0.3,0.1-0.5,0.1
	s-0.4,0.1-0.6,0.1c-0.2,0-0.4,0.1-0.6,0.1c-0.2,0-0.4,0.1-0.6,0.1s-0.3,0.1-0.5,0.2s-0.2,0.2-0.3,0.4s-0.1,0.4-0.1,0.6
	c0,0.2,0,0.4,0.1,0.6c0.1,0.1,0.2,0.3,0.3,0.4c0.1,0.1,0.3,0.2,0.5,0.2c0.2,0,0.4,0.1,0.6,0.1c0.5,0,0.9-0.1,1.2-0.3
	s0.5-0.4,0.6-0.6s0.2-0.5,0.2-0.7c0-0.2,0-0.4,0-0.6V8.8z"/>
<path class="st0" d="M338.7,10.4c0,0.3,0.1,0.5,0.2,0.7s0.3,0.4,0.4,0.5c0.2,0.1,0.4,0.2,0.6,0.3c0.2,0.1,0.5,0.1,0.7,0.1
	c0.2,0,0.4,0,0.6-0.1c0.2,0,0.4-0.1,0.5-0.2c0.2-0.1,0.3-0.2,0.4-0.4c0.1-0.1,0.2-0.3,0.2-0.6c0-0.2-0.1-0.4-0.2-0.5
	s-0.3-0.3-0.6-0.4s-0.5-0.2-0.9-0.3s-0.8-0.2-1.2-0.3c-0.4-0.1-0.7-0.2-1.1-0.3c-0.4-0.1-0.7-0.3-0.9-0.4c-0.3-0.2-0.5-0.4-0.7-0.7
	c-0.2-0.3-0.3-0.6-0.3-1c0-0.6,0.1-1.1,0.4-1.5c0.2-0.4,0.5-0.7,0.9-0.9c0.4-0.2,0.8-0.4,1.3-0.5c0.5-0.1,1-0.1,1.5-0.1s1,0,1.5,0.1
	c0.5,0.1,0.9,0.3,1.3,0.5c0.4,0.2,0.7,0.5,0.9,0.9c0.2,0.4,0.4,0.9,0.4,1.4h-2.4c0-0.5-0.2-0.8-0.6-1c-0.3-0.2-0.7-0.3-1.2-0.3
	c-0.1,0-0.3,0-0.5,0c-0.2,0-0.3,0.1-0.5,0.1c-0.1,0.1-0.3,0.1-0.4,0.3S339,6.2,339,6.4c0,0.2,0.1,0.4,0.3,0.6
	c0.2,0.1,0.4,0.3,0.7,0.3s0.6,0.2,0.9,0.2c0.3,0.1,0.7,0.2,1.1,0.2c0.4,0.1,0.7,0.2,1.1,0.3c0.4,0.1,0.7,0.3,0.9,0.5
	c0.3,0.2,0.5,0.4,0.7,0.7c0.2,0.3,0.3,0.7,0.3,1.1c0,0.6-0.1,1.1-0.4,1.5c-0.2,0.4-0.6,0.7-1,1c-0.4,0.3-0.8,0.4-1.4,0.5
	c-0.5,0.1-1,0.2-1.6,0.2c-0.5,0-1.1-0.1-1.6-0.2c-0.5-0.1-1-0.3-1.4-0.5c-0.4-0.3-0.7-0.6-1-1c-0.3-0.4-0.4-0.9-0.4-1.5H338.7z"/>
<path class="st0" d="M361.5,12.2L361.5,12.2c-0.3,0.5-0.7,0.9-1.2,1.1c-0.5,0.2-1,0.3-1.6,0.3c-0.7,0-1.3-0.1-1.8-0.4
	c-0.5-0.3-1-0.6-1.3-1.1c-0.3-0.5-0.6-1-0.8-1.6s-0.3-1.2-0.3-1.9c0-0.6,0.1-1.2,0.3-1.8c0.2-0.6,0.4-1.1,0.8-1.5
	c0.3-0.4,0.8-0.8,1.3-1.1c0.5-0.3,1.1-0.4,1.8-0.4c0.5,0,1.1,0.1,1.6,0.4c0.5,0.2,0.9,0.6,1.2,1h0V0.5h2.6v12.8h-2.4V12.2z
	 M361.5,8.7c0-0.4,0-0.7-0.1-1.1s-0.2-0.7-0.4-0.9s-0.4-0.5-0.7-0.7c-0.3-0.2-0.6-0.3-1-0.3c-0.4,0-0.8,0.1-1.1,0.3
	c-0.3,0.2-0.5,0.4-0.7,0.7s-0.3,0.6-0.4,0.9c-0.1,0.4-0.1,0.7-0.1,1.1c0,0.4,0,0.7,0.1,1.1c0.1,0.4,0.2,0.7,0.4,1s0.4,0.5,0.7,0.7
	s0.6,0.3,1,0.3c0.4,0,0.8-0.1,1.1-0.3s0.5-0.4,0.7-0.7s0.3-0.6,0.4-1S361.5,9.1,361.5,8.7z"/>
<path class="st0" d="M369.8,9.4c0,0.8,0.2,1.4,0.6,1.8c0.4,0.4,0.9,0.6,1.7,0.6c0.5,0,1-0.1,1.3-0.4s0.6-0.5,0.7-0.8h2.2
	c-0.4,1.1-0.9,1.9-1.7,2.4s-1.6,0.7-2.7,0.7c-0.7,0-1.4-0.1-2-0.4s-1.1-0.6-1.5-1s-0.7-0.9-0.9-1.5c-0.2-0.6-0.3-1.3-0.3-2
	c0-0.7,0.1-1.3,0.3-1.9c0.2-0.6,0.6-1.1,1-1.6c0.4-0.4,0.9-0.8,1.5-1c0.6-0.3,1.2-0.4,1.9-0.4c0.8,0,1.5,0.2,2.1,0.5
	c0.6,0.3,1.1,0.7,1.4,1.2s0.6,1.1,0.8,1.8c0.2,0.7,0.2,1.3,0.2,2.1H369.8z M373.9,7.7c-0.1-0.6-0.3-1.1-0.6-1.5
	c-0.3-0.3-0.8-0.5-1.4-0.5c-0.4,0-0.7,0.1-1,0.2c-0.3,0.1-0.5,0.3-0.6,0.5c-0.2,0.2-0.3,0.4-0.3,0.6c-0.1,0.2-0.1,0.4-0.1,0.6H373.9
	z"/>
<path class="st0" d="M379.9,0.5h2.6v12.8h-2.6V0.5z"/>
<path class="st0" d="M395.1,9.4c0,0.8,0.2,1.4,0.6,1.8c0.4,0.4,0.9,0.6,1.7,0.6c0.5,0,1-0.1,1.3-0.4s0.6-0.5,0.7-0.8h2.2
	c-0.4,1.1-0.9,1.9-1.7,2.4s-1.6,0.7-2.7,0.7c-0.7,0-1.4-0.1-2-0.4s-1.1-0.6-1.5-1s-0.7-0.9-0.9-1.5c-0.2-0.6-0.3-1.3-0.3-2
	c0-0.7,0.1-1.3,0.3-1.9c0.2-0.6,0.6-1.1,1-1.6c0.4-0.4,0.9-0.8,1.5-1c0.6-0.3,1.2-0.4,1.9-0.4c0.8,0,1.5,0.2,2.1,0.5
	c0.6,0.3,1.1,0.7,1.4,1.2s0.6,1.1,0.8,1.8c0.2,0.7,0.2,1.3,0.2,2.1H395.1z M399.3,7.7c-0.1-0.6-0.3-1.1-0.6-1.5
	c-0.3-0.3-0.8-0.5-1.4-0.5c-0.4,0-0.7,0.1-1,0.2c-0.3,0.1-0.5,0.3-0.6,0.5c-0.2,0.2-0.3,0.4-0.3,0.6c-0.1,0.2-0.1,0.4-0.1,0.6H399.3
	z"/>
<path class="st0" d="M407.1,10.4c0,0.3,0.1,0.5,0.2,0.7s0.3,0.4,0.4,0.5c0.2,0.1,0.4,0.2,0.6,0.3c0.2,0.1,0.5,0.1,0.7,0.1
	c0.2,0,0.4,0,0.6-0.1c0.2,0,0.4-0.1,0.5-0.2c0.2-0.1,0.3-0.2,0.4-0.4c0.1-0.1,0.2-0.3,0.2-0.6c0-0.2-0.1-0.4-0.2-0.5
	s-0.3-0.3-0.6-0.4s-0.5-0.2-0.9-0.3s-0.8-0.2-1.2-0.3c-0.4-0.1-0.7-0.2-1.1-0.3c-0.4-0.1-0.7-0.3-0.9-0.4c-0.3-0.2-0.5-0.4-0.7-0.7
	c-0.2-0.3-0.3-0.6-0.3-1c0-0.6,0.1-1.1,0.4-1.5c0.2-0.4,0.5-0.7,0.9-0.9c0.4-0.2,0.8-0.4,1.3-0.5c0.5-0.1,1-0.1,1.5-0.1s1,0,1.5,0.1
	c0.5,0.1,0.9,0.3,1.3,0.5c0.4,0.2,0.7,0.5,0.9,0.9c0.2,0.4,0.4,0.9,0.4,1.4h-2.4c0-0.5-0.2-0.8-0.6-1c-0.3-0.2-0.7-0.3-1.2-0.3
	c-0.1,0-0.3,0-0.5,0c-0.2,0-0.3,0.1-0.5,0.1c-0.1,0.1-0.3,0.1-0.4,0.3s-0.1,0.3-0.1,0.5c0,0.2,0.1,0.4,0.3,0.6
	c0.2,0.1,0.4,0.3,0.7,0.3s0.6,0.2,0.9,0.2c0.3,0.1,0.7,0.2,1.1,0.2c0.4,0.1,0.7,0.2,1.1,0.3c0.4,0.1,0.7,0.3,0.9,0.5
	c0.3,0.2,0.5,0.4,0.7,0.7c0.2,0.3,0.3,0.7,0.3,1.1c0,0.6-0.1,1.1-0.4,1.5c-0.2,0.4-0.6,0.7-1,1c-0.4,0.3-0.8,0.4-1.4,0.5
	c-0.5,0.1-1,0.2-1.6,0.2c-0.5,0-1.1-0.1-1.6-0.2c-0.5-0.1-1-0.3-1.4-0.5c-0.4-0.3-0.7-0.6-1-1c-0.3-0.4-0.4-0.9-0.4-1.5H407.1z"/>
<path class="st0" d="M419.8,4.1h1.9v1.7h-1.9v4.6c0,0.4,0.1,0.7,0.2,0.9c0.1,0.1,0.4,0.2,0.9,0.2c0.3,0,0.6,0,0.8-0.1v2
	c-0.2,0-0.5,0.1-0.7,0.1c-0.3,0-0.5,0-0.8,0c-0.4,0-0.8,0-1.1-0.1c-0.4-0.1-0.7-0.2-0.9-0.3s-0.5-0.4-0.6-0.7s-0.2-0.7-0.2-1.1V5.8
	h-1.5V4.1h1.5V1.3h2.6V4.1z"/>
<path class="st0" d="M424.7,4.1h2.4v1.7h0c0.1-0.3,0.3-0.6,0.5-0.8c0.2-0.2,0.4-0.5,0.7-0.6s0.5-0.3,0.9-0.4
	c0.3-0.1,0.6-0.1,0.9-0.1c0.2,0,0.4,0,0.6,0.1v2.4c-0.1,0-0.3,0-0.4-0.1c-0.2,0-0.3,0-0.5,0c-0.5,0-0.9,0.1-1.2,0.2
	s-0.6,0.4-0.8,0.6c-0.2,0.3-0.3,0.6-0.4,1c-0.1,0.4-0.1,0.8-0.1,1.2v4.2h-2.6V4.1z"/>
<path class="st0" d="M435.6,9.4c0,0.8,0.2,1.4,0.6,1.8c0.4,0.4,0.9,0.6,1.7,0.6c0.5,0,1-0.1,1.3-0.4s0.6-0.5,0.7-0.8h2.2
	c-0.4,1.1-0.9,1.9-1.7,2.4s-1.6,0.7-2.7,0.7c-0.7,0-1.4-0.1-2-0.4s-1.1-0.6-1.5-1s-0.7-0.9-0.9-1.5c-0.2-0.6-0.3-1.3-0.3-2
	c0-0.7,0.1-1.3,0.3-1.9c0.2-0.6,0.6-1.1,1-1.6c0.4-0.4,0.9-0.8,1.5-1c0.6-0.3,1.2-0.4,1.9-0.4c0.8,0,1.5,0.2,2.1,0.5
	c0.6,0.3,1.1,0.7,1.4,1.2s0.6,1.1,0.8,1.8c0.2,0.7,0.2,1.3,0.2,2.1H435.6z M439.7,7.7c-0.1-0.6-0.3-1.1-0.6-1.5
	c-0.3-0.3-0.8-0.5-1.4-0.5c-0.4,0-0.7,0.1-1,0.2c-0.3,0.1-0.5,0.3-0.6,0.5c-0.2,0.2-0.3,0.4-0.3,0.6c-0.1,0.2-0.1,0.4-0.1,0.6H439.7
	z M438.1,2.9h-1.8l1.7-2.6h2.8L438.1,2.9z"/>
<path class="st0" d="M447.5,10.4c0,0.3,0.1,0.5,0.2,0.7s0.3,0.4,0.4,0.5c0.2,0.1,0.4,0.2,0.6,0.3c0.2,0.1,0.5,0.1,0.7,0.1
	c0.2,0,0.4,0,0.6-0.1c0.2,0,0.4-0.1,0.5-0.2c0.2-0.1,0.3-0.2,0.4-0.4c0.1-0.1,0.2-0.3,0.2-0.6c0-0.2-0.1-0.4-0.2-0.5
	s-0.3-0.3-0.6-0.4s-0.5-0.2-0.9-0.3s-0.8-0.2-1.2-0.3c-0.4-0.1-0.7-0.2-1.1-0.3c-0.4-0.1-0.7-0.3-0.9-0.4c-0.3-0.2-0.5-0.4-0.7-0.7
	c-0.2-0.3-0.3-0.6-0.3-1c0-0.6,0.1-1.1,0.4-1.5c0.2-0.4,0.5-0.7,0.9-0.9c0.4-0.2,0.8-0.4,1.3-0.5c0.5-0.1,1-0.1,1.5-0.1s1,0,1.5,0.1
	c0.5,0.1,0.9,0.3,1.3,0.5c0.4,0.2,0.7,0.5,0.9,0.9c0.2,0.4,0.4,0.9,0.4,1.4H451c0-0.5-0.2-0.8-0.6-1c-0.3-0.2-0.7-0.3-1.2-0.3
	c-0.1,0-0.3,0-0.5,0c-0.2,0-0.3,0.1-0.5,0.1c-0.1,0.1-0.3,0.1-0.4,0.3s-0.1,0.3-0.1,0.5c0,0.2,0.1,0.4,0.3,0.6
	c0.2,0.1,0.4,0.3,0.7,0.3s0.6,0.2,0.9,0.2c0.3,0.1,0.7,0.2,1.1,0.2c0.4,0.1,0.7,0.2,1.1,0.3c0.4,0.1,0.7,0.3,0.9,0.5
	c0.3,0.2,0.5,0.4,0.7,0.7c0.2,0.3,0.3,0.7,0.3,1.1c0,0.6-0.1,1.1-0.4,1.5c-0.2,0.4-0.6,0.7-1,1c-0.4,0.3-0.8,0.4-1.4,0.5
	c-0.5,0.1-1,0.2-1.6,0.2c-0.5,0-1.1-0.1-1.6-0.2c-0.5-0.1-1-0.3-1.4-0.5c-0.4-0.3-0.7-0.6-1-1c-0.3-0.4-0.4-0.9-0.4-1.5H447.5z"/>
<path class="st1" d="M465.2,14.8c-0.3-0.6-0.6-1.3-0.8-2c-0.2-0.7-0.4-1.3-0.5-2c-0.1-0.7-0.2-1.4-0.2-2.2c0-1.5,0.2-3,0.7-4.4
	s1.1-2.7,1.9-3.9h0.9c-0.8,1.3-1.4,2.7-1.8,4.1s-0.5,3-0.5,4.6c0,0.6,0.1,1.3,0.2,2c0.1,0.7,0.3,1.4,0.5,2c0.2,0.7,0.4,1.3,0.7,2
	s0.6,1.2,0.9,1.8h-0.9C465.9,16.1,465.5,15.5,465.2,14.8z"/>
<path class="st1" d="M475.7,5.4c-0.4-0.4-1-0.6-1.8-0.6c-0.5,0-1,0.1-1.4,0.3s-0.7,0.5-1,0.9s-0.5,0.8-0.6,1.3
	c-0.1,0.5-0.2,1-0.2,1.4c0,0.5,0.1,1,0.2,1.4c0.1,0.5,0.3,0.9,0.6,1.3s0.6,0.7,1,0.9s0.9,0.3,1.4,0.3c0.3,0,0.7-0.1,1-0.2
	c0.3-0.1,0.6-0.3,0.8-0.5c0.2-0.2,0.4-0.5,0.6-0.8c0.2-0.3,0.3-0.7,0.3-1.1h1.1c-0.2,1.1-0.6,2-1.2,2.6c-0.7,0.6-1.5,0.9-2.6,0.9
	c-0.7,0-1.3-0.1-1.9-0.4c-0.5-0.3-1-0.6-1.4-1.1s-0.7-1-0.8-1.6c-0.2-0.6-0.3-1.2-0.3-1.9c0-0.7,0.1-1.3,0.3-1.9
	c0.2-0.6,0.5-1.1,0.8-1.6c0.4-0.4,0.8-0.8,1.4-1.1s1.2-0.4,1.9-0.4c1,0,1.8,0.3,2.5,0.8c0.7,0.5,1.1,1.3,1.2,2.4h-1.1
	C476.4,6.3,476.1,5.8,475.7,5.4z"/>
<path class="st1" d="M486.9,4.2c0.5,0.3,1,0.6,1.4,1.1c0.4,0.4,0.7,1,0.8,1.6c0.2,0.6,0.3,1.2,0.3,1.9c0,0.7-0.1,1.3-0.3,1.9
	c-0.2,0.6-0.5,1.1-0.8,1.6s-0.8,0.8-1.4,1.1c-0.5,0.3-1.2,0.4-1.9,0.4c-0.7,0-1.3-0.1-1.9-0.4c-0.5-0.3-1-0.6-1.4-1.1
	s-0.7-1-0.8-1.6c-0.2-0.6-0.3-1.2-0.3-1.9c0-0.7,0.1-1.3,0.3-1.9c0.2-0.6,0.5-1.1,0.8-1.6c0.4-0.4,0.8-0.8,1.4-1.1s1.2-0.4,1.9-0.4
	C485.8,3.8,486.4,4,486.9,4.2z M483.7,5.1c-0.4,0.2-0.7,0.5-1,0.9s-0.5,0.8-0.6,1.3c-0.1,0.5-0.2,1-0.2,1.4c0,0.5,0.1,1,0.2,1.4
	c0.1,0.5,0.3,0.9,0.6,1.3s0.6,0.7,1,0.9s0.9,0.3,1.4,0.3s1-0.1,1.4-0.3s0.7-0.5,1-0.9c0.3-0.4,0.5-0.8,0.6-1.3s0.2-1,0.2-1.4
	c0-0.5-0.1-1-0.2-1.4s-0.3-0.9-0.6-1.3c-0.3-0.4-0.6-0.7-1-0.9s-0.9-0.3-1.4-0.3S484.1,4.9,483.7,5.1z"/>
<path class="st1" d="M494,4.1v2.2h0c0.3-0.8,0.7-1.3,1.3-1.7c0.6-0.4,1.3-0.6,2.2-0.6v1.1c-0.5,0-1,0-1.4,0.2
	c-0.4,0.2-0.8,0.4-1.1,0.7c-0.3,0.3-0.5,0.7-0.7,1.1c-0.2,0.4-0.3,0.9-0.3,1.4v4.9h-1.1V4.1H494z"/>
<path class="st1" d="M504.1,4.1v1h-1.9v6.3c0,0.4,0.1,0.7,0.2,0.9c0.1,0.2,0.4,0.3,0.8,0.4c0.3,0,0.6,0,1-0.1v1c-0.2,0-0.3,0-0.5,0
	c-0.2,0-0.3,0-0.5,0c-0.8,0-1.3-0.1-1.6-0.4c-0.3-0.3-0.4-0.8-0.4-1.6V5.1h-1.6v-1h1.6V1.3h1.1v2.8H504.1z"/>
<path class="st1" d="M508.7,0.5v1.8h-1.1V0.5H508.7z M508.7,4.1v9.3h-1.1V4.1H508.7z"/>
<path class="st1" d="M518,5.9c-0.1-0.3-0.3-0.5-0.5-0.6c-0.2-0.2-0.5-0.3-0.8-0.4c-0.3-0.1-0.6-0.1-0.9-0.1c-0.3,0-0.5,0-0.8,0.1
	c-0.3,0.1-0.5,0.1-0.7,0.3c-0.2,0.1-0.4,0.3-0.5,0.5c-0.1,0.2-0.2,0.5-0.2,0.8c0,0.3,0.1,0.5,0.2,0.6s0.3,0.3,0.5,0.4
	c0.2,0.1,0.4,0.2,0.6,0.3s0.4,0.1,0.6,0.2l1.5,0.3c0.3,0,0.6,0.1,1,0.3s0.6,0.3,0.8,0.5c0.2,0.2,0.4,0.5,0.6,0.8
	c0.2,0.3,0.2,0.7,0.2,1.1c0,0.5-0.1,0.9-0.3,1.3s-0.5,0.6-0.9,0.9c-0.4,0.2-0.8,0.4-1.2,0.5s-0.9,0.1-1.3,0.1c-1.1,0-2-0.3-2.6-0.8
	c-0.7-0.5-1.1-1.3-1.2-2.5h1.1c0,0.8,0.3,1.3,0.8,1.7s1.1,0.6,1.9,0.6c0.3,0,0.6,0,0.9-0.1c0.3-0.1,0.6-0.2,0.8-0.3
	c0.3-0.1,0.5-0.3,0.6-0.5c0.2-0.2,0.2-0.5,0.2-0.8c0-0.3-0.1-0.5-0.2-0.7c-0.1-0.2-0.3-0.3-0.5-0.5c-0.2-0.1-0.4-0.2-0.7-0.3
	c-0.2-0.1-0.5-0.2-0.7-0.2L515,8.9c-0.4-0.1-0.7-0.2-1-0.3c-0.3-0.1-0.6-0.3-0.8-0.5c-0.2-0.2-0.4-0.4-0.5-0.7
	c-0.1-0.3-0.2-0.6-0.2-1c0-0.5,0.1-0.9,0.3-1.2c0.2-0.3,0.5-0.6,0.8-0.8s0.7-0.4,1.1-0.4s0.8-0.1,1.2-0.1c0.5,0,0.9,0.1,1.3,0.2
	s0.8,0.3,1.1,0.6s0.5,0.6,0.7,0.9s0.3,0.8,0.3,1.3h-1.1C518.2,6.5,518.1,6.2,518,5.9z"/>
<path class="st1" d="M528.9,4.2c0.5,0.3,1,0.6,1.4,1.1c0.4,0.4,0.7,1,0.8,1.6c0.2,0.6,0.3,1.2,0.3,1.9c0,0.7-0.1,1.3-0.3,1.9
	c-0.2,0.6-0.5,1.1-0.8,1.6s-0.8,0.8-1.4,1.1c-0.5,0.3-1.2,0.4-1.9,0.4c-0.7,0-1.3-0.1-1.9-0.4c-0.5-0.3-1-0.6-1.4-1.1
	s-0.7-1-0.8-1.6c-0.2-0.6-0.3-1.2-0.3-1.9c0-0.7,0.1-1.3,0.3-1.9c0.2-0.6,0.5-1.1,0.8-1.6c0.4-0.4,0.8-0.8,1.4-1.1s1.2-0.4,1.9-0.4
	C527.7,3.8,528.3,4,528.9,4.2z M525.6,5.1c-0.4,0.2-0.7,0.5-1,0.9s-0.5,0.8-0.6,1.3c-0.1,0.5-0.2,1-0.2,1.4c0,0.5,0.1,1,0.2,1.4
	c0.1,0.5,0.3,0.9,0.6,1.3s0.6,0.7,1,0.9s0.9,0.3,1.4,0.3s1-0.1,1.4-0.3s0.7-0.5,1-0.9c0.3-0.4,0.5-0.8,0.6-1.3s0.2-1,0.2-1.4
	c0-0.5-0.1-1-0.2-1.4s-0.3-0.9-0.6-1.3c-0.3-0.4-0.6-0.7-1-0.9s-0.9-0.3-1.4-0.3S526,4.9,525.6,5.1z"/>
<path class="st1" d="M536,0.5v12.8h-1.1V0.5H536z"/>
<path class="st1" d="M546.9,4.1L550,12l2.9-7.9h1.1l-4,10.7c-0.2,0.4-0.3,0.7-0.5,1s-0.3,0.5-0.5,0.6c-0.2,0.1-0.4,0.3-0.6,0.3
	s-0.5,0.1-0.9,0.1c-0.2,0-0.4,0-0.5,0s-0.2,0-0.3-0.1v-1c0.1,0,0.3,0,0.4,0.1c0.1,0,0.3,0,0.4,0c0.3,0,0.5,0,0.6-0.1
	c0.2-0.1,0.3-0.2,0.4-0.3c0.1-0.1,0.2-0.3,0.3-0.5s0.2-0.4,0.3-0.6l0.4-1l-3.7-9.2H546.9z"/>
<path class="st1" d="M563.9,5.5c0.2-0.4,0.5-0.7,0.8-1c0.3-0.3,0.7-0.4,1.2-0.6s0.9-0.2,1.5-0.2c0.4,0,0.8,0,1.2,0.1
	c0.4,0.1,0.8,0.2,1.1,0.4s0.6,0.5,0.8,0.9c0.2,0.4,0.3,0.9,0.3,1.5v4.9c0,0.5,0.2,0.7,0.7,0.7c0.1,0,0.3,0,0.4-0.1v1
	c-0.1,0-0.2,0-0.3,0.1c-0.1,0-0.2,0-0.4,0c-0.3,0-0.5,0-0.7-0.1s-0.3-0.2-0.4-0.3c-0.1-0.1-0.2-0.3-0.2-0.5c0-0.2,0-0.4,0-0.7h0
	c-0.2,0.3-0.4,0.6-0.6,0.8c-0.2,0.2-0.4,0.4-0.7,0.6c-0.3,0.2-0.6,0.3-0.9,0.4s-0.7,0.1-1.2,0.1c-0.4,0-0.8-0.1-1.2-0.2
	s-0.7-0.3-1-0.5c-0.3-0.2-0.5-0.5-0.7-0.8c-0.2-0.3-0.2-0.7-0.2-1.2c0-0.6,0.1-1.2,0.4-1.5s0.7-0.6,1.1-0.8c0.5-0.2,1-0.3,1.6-0.4
	c0.6-0.1,1.2-0.2,1.8-0.2c0.2,0,0.4-0.1,0.6-0.1s0.3-0.1,0.4-0.2c0.1-0.1,0.2-0.2,0.3-0.4c0.1-0.2,0.1-0.4,0.1-0.6
	c0-0.4-0.1-0.7-0.2-0.9c-0.1-0.2-0.3-0.4-0.5-0.6c-0.2-0.1-0.5-0.2-0.8-0.3c-0.3-0.1-0.6-0.1-0.9-0.1c-0.7,0-1.3,0.2-1.8,0.5
	s-0.7,0.9-0.7,1.6h-1.1C563.6,6.4,563.7,5.9,563.9,5.5z M569.5,8.3c-0.1,0.1-0.2,0.2-0.4,0.3c-0.2,0.1-0.4,0.1-0.5,0.1
	c-0.5,0.1-1,0.2-1.5,0.2c-0.5,0.1-1,0.2-1.4,0.3c-0.4,0.1-0.8,0.3-1,0.6c-0.3,0.2-0.4,0.6-0.4,1.1c0,0.3,0.1,0.5,0.2,0.8
	c0.1,0.2,0.3,0.4,0.5,0.6c0.2,0.2,0.4,0.3,0.7,0.4c0.3,0.1,0.5,0.1,0.8,0.1c0.4,0,0.8-0.1,1.2-0.2c0.4-0.1,0.7-0.3,1-0.6
	c0.3-0.3,0.5-0.6,0.7-0.9c0.2-0.4,0.3-0.8,0.3-1.2L569.5,8.3L569.5,8.3z"/>
<path class="st1" d="M581.9,13.4v-1.8h0c-0.1,0.3-0.3,0.6-0.5,0.8s-0.5,0.5-0.8,0.6c-0.3,0.2-0.6,0.3-1,0.4c-0.3,0.1-0.7,0.1-1,0.1
	c-0.7,0-1.3-0.1-1.8-0.4c-0.5-0.3-1-0.6-1.3-1.1c-0.3-0.4-0.6-1-0.8-1.6c-0.2-0.6-0.3-1.2-0.3-1.9s0.1-1.3,0.3-1.9
	c0.2-0.6,0.4-1.1,0.8-1.6c0.3-0.4,0.8-0.8,1.3-1.1c0.5-0.3,1.1-0.4,1.8-0.4c0.3,0,0.7,0,1,0.1s0.6,0.2,0.9,0.4
	c0.3,0.2,0.5,0.4,0.8,0.6s0.4,0.5,0.5,0.9h0V0.5h1.1v12.8H581.9z M575.7,10.2c0.1,0.5,0.3,0.9,0.5,1.3c0.2,0.4,0.6,0.7,0.9,0.9
	c0.4,0.2,0.8,0.3,1.4,0.3c0.6,0,1.1-0.1,1.5-0.3s0.7-0.5,1-0.9c0.3-0.4,0.4-0.8,0.6-1.3c0.1-0.5,0.2-0.9,0.2-1.4s-0.1-1-0.2-1.4
	c-0.1-0.5-0.3-0.9-0.6-1.3c-0.3-0.4-0.6-0.7-1-0.9c-0.4-0.2-0.9-0.3-1.5-0.3c-0.5,0-1,0.1-1.4,0.3c-0.4,0.2-0.7,0.5-0.9,0.9
	c-0.2,0.4-0.4,0.8-0.5,1.3c-0.1,0.5-0.2,0.9-0.2,1.4S575.6,9.7,575.7,10.2z"/>
<path class="st1" d="M587.9,4.1v2.2h0c0.3-0.8,0.7-1.3,1.3-1.7c0.6-0.4,1.3-0.6,2.2-0.6v1.1c-0.5,0-1,0-1.4,0.2
	c-0.4,0.2-0.8,0.4-1.1,0.7c-0.3,0.3-0.5,0.7-0.7,1.1c-0.2,0.4-0.3,0.9-0.3,1.4v4.9h-1.1V4.1H587.9z"/>
<path class="st1" d="M595.2,10.3c0.1,0.4,0.3,0.8,0.5,1.2c0.3,0.3,0.6,0.6,1,0.9c0.4,0.2,0.8,0.3,1.4,0.3c0.8,0,1.5-0.2,1.9-0.6
	c0.5-0.4,0.8-1,1-1.7h1.1c-0.2,1.1-0.7,1.9-1.3,2.4s-1.5,0.9-2.7,0.9c-0.7,0-1.4-0.1-1.9-0.4c-0.5-0.3-1-0.6-1.3-1.1s-0.6-1-0.7-1.6
	c-0.2-0.6-0.2-1.2-0.2-1.9c0-0.6,0.1-1.2,0.2-1.8c0.2-0.6,0.4-1.1,0.7-1.6s0.8-0.8,1.3-1.1c0.5-0.3,1.2-0.4,1.9-0.4
	c0.7,0,1.4,0.1,1.9,0.4c0.5,0.3,1,0.7,1.3,1.2c0.3,0.5,0.6,1,0.7,1.7s0.2,1.3,0.2,1.9H595C595,9.5,595.1,9.9,595.2,10.3z M600.8,6.9
	c-0.1-0.4-0.3-0.7-0.6-1.1c-0.3-0.3-0.6-0.6-0.9-0.7c-0.4-0.2-0.8-0.3-1.2-0.3c-0.5,0-0.9,0.1-1.2,0.3s-0.7,0.4-0.9,0.7
	c-0.3,0.3-0.5,0.7-0.6,1.1c-0.2,0.4-0.2,0.8-0.3,1.2h6C601,7.7,600.9,7.3,600.8,6.9z"/>
<path class="st1" d="M606.6,4.1v1.6h0c0.2-0.6,0.6-1,1.1-1.4s1.2-0.5,1.8-0.5c0.6,0,1.2,0.1,1.6,0.3c0.4,0.2,0.8,0.4,1.1,0.7
	s0.4,0.7,0.6,1.1c0.1,0.4,0.2,0.9,0.2,1.5v6h-1.1V7.6c0-0.4,0-0.8-0.1-1.1c-0.1-0.3-0.2-0.6-0.4-0.9c-0.2-0.3-0.4-0.4-0.7-0.6
	c-0.3-0.1-0.7-0.2-1.1-0.2c-0.5,0-0.9,0.1-1.2,0.2s-0.7,0.4-0.9,0.7c-0.2,0.3-0.4,0.6-0.6,1c-0.1,0.4-0.2,0.8-0.2,1.3v5.4h-1.1V4.1
	H606.6z"/>
<path class="st1" d="M617.1,5.5c0.2-0.4,0.5-0.7,0.8-1c0.3-0.3,0.7-0.4,1.2-0.6s0.9-0.2,1.5-0.2c0.4,0,0.8,0,1.2,0.1
	c0.4,0.1,0.8,0.2,1.1,0.4s0.6,0.5,0.8,0.9c0.2,0.4,0.3,0.9,0.3,1.5v4.9c0,0.5,0.2,0.7,0.7,0.7c0.1,0,0.3,0,0.4-0.1v1
	c-0.1,0-0.2,0-0.3,0.1c-0.1,0-0.2,0-0.4,0c-0.3,0-0.5,0-0.7-0.1s-0.3-0.2-0.4-0.3c-0.1-0.1-0.2-0.3-0.2-0.5c0-0.2,0-0.4,0-0.7h0
	c-0.2,0.3-0.4,0.6-0.6,0.8c-0.2,0.2-0.4,0.4-0.7,0.6c-0.3,0.2-0.6,0.3-0.9,0.4s-0.7,0.1-1.2,0.1c-0.4,0-0.8-0.1-1.2-0.2
	s-0.7-0.3-1-0.5c-0.3-0.2-0.5-0.5-0.7-0.8c-0.2-0.3-0.2-0.7-0.2-1.2c0-0.6,0.1-1.2,0.4-1.5s0.7-0.6,1.1-0.8c0.5-0.2,1-0.3,1.6-0.4
	c0.6-0.1,1.2-0.2,1.8-0.2c0.2,0,0.4-0.1,0.6-0.1s0.3-0.1,0.4-0.2c0.1-0.1,0.2-0.2,0.3-0.4c0.1-0.2,0.1-0.4,0.1-0.6
	c0-0.4-0.1-0.7-0.2-0.9c-0.1-0.2-0.3-0.4-0.5-0.6c-0.2-0.1-0.5-0.2-0.8-0.3c-0.3-0.1-0.6-0.1-0.9-0.1c-0.7,0-1.3,0.2-1.8,0.5
	s-0.7,0.9-0.7,1.6h-1.1C616.8,6.4,616.9,5.9,617.1,5.5z M622.8,8.3c-0.1,0.1-0.2,0.2-0.4,0.3c-0.2,0.1-0.4,0.1-0.5,0.1
	c-0.5,0.1-1,0.2-1.5,0.2c-0.5,0.1-1,0.2-1.4,0.3c-0.4,0.1-0.8,0.3-1,0.6c-0.3,0.2-0.4,0.6-0.4,1.1c0,0.3,0.1,0.5,0.2,0.8
	c0.1,0.2,0.3,0.4,0.5,0.6c0.2,0.2,0.4,0.3,0.7,0.4c0.3,0.1,0.5,0.1,0.8,0.1c0.4,0,0.8-0.1,1.2-0.2c0.4-0.1,0.7-0.3,1-0.6
	c0.3-0.3,0.5-0.6,0.7-0.9c0.2-0.4,0.3-0.8,0.3-1.2L622.8,8.3L622.8,8.3z"/>
<path class="st1" d="M629.2,0.5v12.8H628V0.5H629.2z"/>
<path class="st1" d="M634.3,0.5v1.8h-1.1V0.5H634.3z M634.3,4.1v9.3h-1.1V4.1H634.3z"/>
<path class="st1" d="M639.4,4.1v1.6h0c0.2-0.6,0.6-1,1.1-1.4s1.2-0.5,1.8-0.5c0.6,0,1.2,0.1,1.6,0.3c0.4,0.2,0.8,0.4,1.1,0.7
	s0.4,0.7,0.6,1.1c0.1,0.4,0.2,0.9,0.2,1.5v6h-1.1V7.6c0-0.4,0-0.8-0.1-1.1c-0.1-0.3-0.2-0.6-0.4-0.9c-0.2-0.3-0.4-0.4-0.7-0.6
	c-0.3-0.1-0.7-0.2-1.1-0.2c-0.5,0-0.9,0.1-1.2,0.2s-0.7,0.4-0.9,0.7c-0.2,0.3-0.4,0.6-0.6,1c-0.1,0.4-0.2,0.8-0.2,1.3v5.4h-1.1V4.1
	H639.4z"/>
<path class="st1" d="M649.9,5.5c0.2-0.4,0.5-0.7,0.8-1c0.3-0.3,0.7-0.4,1.2-0.6s0.9-0.2,1.5-0.2c0.4,0,0.8,0,1.2,0.1
	c0.4,0.1,0.8,0.2,1.1,0.4s0.6,0.5,0.8,0.9c0.2,0.4,0.3,0.9,0.3,1.5v4.9c0,0.5,0.2,0.7,0.7,0.7c0.1,0,0.3,0,0.4-0.1v1
	c-0.1,0-0.2,0-0.3,0.1c-0.1,0-0.2,0-0.4,0c-0.3,0-0.5,0-0.7-0.1s-0.3-0.2-0.4-0.3c-0.1-0.1-0.2-0.3-0.2-0.5c0-0.2,0-0.4,0-0.7h0
	c-0.2,0.3-0.4,0.6-0.6,0.8c-0.2,0.2-0.4,0.4-0.7,0.6c-0.3,0.2-0.6,0.3-0.9,0.4s-0.7,0.1-1.2,0.1c-0.4,0-0.8-0.1-1.2-0.2
	s-0.7-0.3-1-0.5c-0.3-0.2-0.5-0.5-0.7-0.8c-0.2-0.3-0.2-0.7-0.2-1.2c0-0.6,0.1-1.2,0.4-1.5s0.7-0.6,1.1-0.8c0.5-0.2,1-0.3,1.6-0.4
	c0.6-0.1,1.2-0.2,1.8-0.2c0.2,0,0.4-0.1,0.6-0.1s0.3-0.1,0.4-0.2c0.1-0.1,0.2-0.2,0.3-0.4c0.1-0.2,0.1-0.4,0.1-0.6
	c0-0.4-0.1-0.7-0.2-0.9c-0.1-0.2-0.3-0.4-0.5-0.6c-0.2-0.1-0.5-0.2-0.8-0.3c-0.3-0.1-0.6-0.1-0.9-0.1c-0.7,0-1.3,0.2-1.8,0.5
	s-0.7,0.9-0.7,1.6h-1.1C649.6,6.4,649.7,5.9,649.9,5.5z M655.6,8.3c-0.1,0.1-0.2,0.2-0.4,0.3c-0.2,0.1-0.4,0.1-0.5,0.1
	c-0.5,0.1-1,0.2-1.5,0.2c-0.5,0.1-1,0.2-1.4,0.3c-0.4,0.1-0.8,0.3-1,0.6c-0.3,0.2-0.4,0.6-0.4,1.1c0,0.3,0.1,0.5,0.2,0.8
	c0.1,0.2,0.3,0.4,0.5,0.6c0.2,0.2,0.4,0.3,0.7,0.4c0.3,0.1,0.5,0.1,0.8,0.1c0.4,0,0.8-0.1,1.2-0.2c0.4-0.1,0.7-0.3,1-0.6
	c0.3-0.3,0.5-0.6,0.7-0.9c0.2-0.4,0.3-0.8,0.3-1.2L655.6,8.3L655.6,8.3z"/>
<path class="st1" d="M661.7,2.2c0.3,0.6,0.6,1.3,0.8,2s0.4,1.3,0.5,2.1c0.1,0.7,0.2,1.4,0.2,2.2c0,1.5-0.2,3-0.7,4.4
	s-1.1,2.7-1.9,3.9h-0.9c0.8-1.3,1.4-2.7,1.7-4.1s0.5-3,0.5-4.6c0-0.7-0.1-1.3-0.2-2c-0.1-0.7-0.3-1.4-0.5-2
	c-0.2-0.7-0.4-1.3-0.7-1.9s-0.6-1.2-0.9-1.8h0.9C661,0.9,661.4,1.6,661.7,2.2z"/>
<path class="st1" d="M667.6,11.5h1.5v1.9h-1.5V11.5z"/>
<path class="st1" d="M677.9,0.2v0.6c-0.2,0.2-0.5,0.6-0.8,1s-0.6,0.9-0.9,1.4s-0.6,1.2-0.8,1.9c-0.2,0.7-0.4,1.5-0.4,2.3h-0.7
	c0-0.6,0.1-1.2,0.3-1.8s0.3-1.1,0.6-1.6c0.2-0.5,0.5-1.1,0.9-1.6c0.4-0.5,0.8-1.1,1.3-1.7h-4.1V0.2H677.9z"/>
<path class="st1" d="M681.4,7.4c0,0.2,0,0.3-0.1,0.5c0,0.1-0.1,0.3-0.2,0.4s-0.2,0.2-0.3,0.3s-0.3,0.2-0.4,0.2V8.4
	c0.1,0,0.2-0.1,0.2-0.2c0.1-0.1,0.1-0.2,0.2-0.3s0.1-0.2,0.1-0.3s0-0.2,0-0.3h-0.4V6.3h0.9V7.4z"/>
<path class="st1" d="M688.3,2.9c-0.2,0.3-0.5,0.5-0.9,0.6v0c0.5,0.1,0.9,0.3,1.1,0.6c0.3,0.3,0.4,0.7,0.4,1.2c0,0.4-0.1,0.7-0.2,1
	c-0.1,0.3-0.3,0.5-0.5,0.7s-0.5,0.3-0.8,0.4s-0.6,0.1-1,0.1c-0.3,0-0.7,0-1-0.1c-0.3-0.1-0.6-0.2-0.8-0.4s-0.4-0.4-0.5-0.7
	c-0.1-0.3-0.2-0.6-0.2-1c0-0.5,0.1-0.9,0.4-1.2c0.3-0.3,0.6-0.6,1.1-0.6v0c-0.4-0.1-0.7-0.3-0.9-0.6s-0.3-0.6-0.3-1
	c0-0.3,0.1-0.6,0.2-0.8c0.1-0.2,0.3-0.4,0.5-0.6c0.2-0.2,0.4-0.3,0.7-0.3c0.3-0.1,0.5-0.1,0.8-0.1s0.5,0,0.8,0.1
	c0.3,0.1,0.5,0.2,0.7,0.3s0.4,0.3,0.5,0.6s0.2,0.5,0.2,0.8C688.6,2.2,688.5,2.6,688.3,2.9z M687.1,6.9c0.2-0.1,0.4-0.2,0.6-0.3
	c0.2-0.1,0.3-0.3,0.4-0.5c0.1-0.2,0.1-0.5,0.1-0.7c0-0.3-0.1-0.5-0.2-0.7c-0.1-0.2-0.2-0.4-0.4-0.5s-0.4-0.2-0.6-0.3
	c-0.2-0.1-0.5-0.1-0.7-0.1c-0.3,0-0.5,0-0.7,0.1c-0.2,0.1-0.4,0.2-0.6,0.3c-0.2,0.1-0.3,0.3-0.4,0.5c-0.1,0.2-0.2,0.4-0.2,0.7
	c0,0.3,0,0.5,0.1,0.7c0.1,0.2,0.2,0.4,0.4,0.5c0.2,0.1,0.4,0.2,0.6,0.3c0.2,0.1,0.5,0.1,0.7,0.1C686.6,7,686.9,7,687.1,6.9z
	 M687,3.1c0.2-0.1,0.4-0.1,0.5-0.2c0.1-0.1,0.3-0.3,0.3-0.4c0.1-0.2,0.1-0.4,0.1-0.6c0-0.2,0-0.4-0.1-0.6c-0.1-0.2-0.2-0.3-0.3-0.4
	s-0.3-0.2-0.5-0.2c-0.2-0.1-0.4-0.1-0.6-0.1c-0.2,0-0.4,0-0.6,0.1c-0.2,0.1-0.4,0.1-0.5,0.2s-0.3,0.2-0.4,0.4
	c-0.1,0.2-0.1,0.3-0.1,0.6c0,0.2,0,0.5,0.1,0.6s0.2,0.3,0.4,0.4c0.1,0.1,0.3,0.2,0.5,0.2s0.4,0.1,0.6,0.1
	C686.6,3.2,686.8,3.2,687,3.1z"/>
</svg>
