<!-- Generator: Adobe Illustrator 20.1.0, SVG Export Plug-In  -->
<svg version="1.1"
	 xmlns="http://www.w3.org/2000/svg" xmlns:xlink="http://www.w3.org/1999/xlink" xmlns:a="http://ns.adobe.com/AdobeSVGViewerExtensions/3.0/"
	 x="0px" y="0px" width="325px" height="17px" viewBox="0 0 325 17" style="overflow:scroll;enable-background:new 0 0 325 17;"
	 xml:space="preserve">
<style type="text/css">
	.st0{opacity:0.9;fill:#F18A21;}
</style>
<defs>
</defs>
<g>
	<path class="st0" d="M0,0.6h9V3H2.8v3h5.4v2.2H2.8v5.3H0V0.6z"/>
	<path class="st0" d="M11.9,7c0-0.6,0.2-1.1,0.4-1.5c0.3-0.4,0.6-0.7,1-1c0.4-0.2,0.9-0.4,1.4-0.5s1-0.2,1.5-0.2
		c0.5,0,0.9,0,1.4,0.1c0.5,0.1,0.9,0.2,1.3,0.4s0.7,0.5,1,0.8c0.3,0.3,0.4,0.8,0.4,1.3v4.8c0,0.4,0,0.8,0.1,1.2
		c0,0.4,0.1,0.7,0.3,0.9h-2.6c0-0.1-0.1-0.3-0.1-0.4c0-0.1-0.1-0.3-0.1-0.5c-0.4,0.4-0.9,0.7-1.4,0.9c-0.6,0.2-1.1,0.3-1.7,0.3
		c-0.4,0-0.9-0.1-1.2-0.2c-0.4-0.1-0.7-0.3-1-0.5c-0.3-0.2-0.5-0.5-0.7-0.9c-0.2-0.3-0.2-0.8-0.2-1.2c0-0.5,0.1-1,0.3-1.3
		c0.2-0.3,0.4-0.6,0.7-0.8c0.3-0.2,0.6-0.4,1-0.5c0.4-0.1,0.8-0.2,1.2-0.2C15.2,8,15.5,8,15.9,8c0.4,0,0.7-0.1,1-0.2
		c0.3-0.1,0.5-0.2,0.7-0.3c0.2-0.1,0.3-0.3,0.3-0.6c0-0.3,0-0.5-0.1-0.7c-0.1-0.2-0.2-0.3-0.4-0.4c-0.2-0.1-0.3-0.2-0.5-0.2
		c-0.2,0-0.4,0-0.6,0c-0.5,0-0.9,0.1-1.2,0.3c-0.3,0.2-0.5,0.6-0.5,1.1H11.9z M17.8,8.9c-0.1,0.1-0.2,0.2-0.4,0.2
		c-0.2,0.1-0.3,0.1-0.5,0.1c-0.2,0-0.4,0.1-0.6,0.1c-0.2,0-0.4,0.1-0.6,0.1c-0.2,0-0.4,0.1-0.6,0.1c-0.2,0.1-0.3,0.1-0.5,0.2
		s-0.2,0.2-0.3,0.4c-0.1,0.2-0.1,0.4-0.1,0.6c0,0.2,0,0.4,0.1,0.6s0.2,0.3,0.3,0.4c0.1,0.1,0.3,0.2,0.5,0.2c0.2,0,0.4,0.1,0.6,0.1
		c0.5,0,0.9-0.1,1.2-0.3s0.5-0.4,0.6-0.6c0.1-0.2,0.2-0.5,0.2-0.7c0-0.2,0-0.4,0-0.6V8.9z"/>
	<path class="st0" d="M29.1,13.5h-2.8L23,4.2h2.7l2,6.3h0l2-6.3h2.5L29.1,13.5z"/>
	<path class="st0" d="M34.6,8.8c0-0.7,0.1-1.4,0.3-2c0.2-0.6,0.6-1.1,1-1.5c0.4-0.4,0.9-0.8,1.5-1c0.6-0.2,1.2-0.4,2-0.4
		s1.4,0.1,2,0.4s1.1,0.6,1.5,1s0.7,0.9,1,1.5c0.2,0.6,0.3,1.3,0.3,2s-0.1,1.4-0.3,2c-0.2,0.6-0.6,1.1-1,1.5c-0.4,0.4-0.9,0.8-1.5,1
		s-1.3,0.3-2,0.3s-1.4-0.1-2-0.3c-0.6-0.2-1.1-0.6-1.5-1c-0.4-0.4-0.7-0.9-1-1.5S34.6,9.6,34.6,8.8z M37.1,8.8c0,0.4,0,0.7,0.1,1.1
		c0.1,0.4,0.2,0.7,0.4,1s0.4,0.5,0.7,0.7c0.3,0.2,0.6,0.3,1.1,0.3c0.4,0,0.8-0.1,1.1-0.3c0.3-0.2,0.5-0.4,0.7-0.7s0.3-0.6,0.4-1
		c0.1-0.4,0.1-0.7,0.1-1.1s0-0.7-0.1-1.1s-0.2-0.7-0.4-1s-0.4-0.5-0.7-0.7c-0.3-0.2-0.7-0.3-1.1-0.3c-0.4,0-0.8,0.1-1.1,0.3
		c-0.3,0.2-0.5,0.4-0.7,0.7s-0.3,0.6-0.4,1S37.1,8.5,37.1,8.8z"/>
	<path class="st0" d="M47.5,4.2h2.4v1.7h0c0.1-0.3,0.3-0.6,0.5-0.8c0.2-0.2,0.4-0.5,0.7-0.6c0.3-0.2,0.5-0.3,0.9-0.4
		c0.3-0.1,0.6-0.1,0.9-0.1c0.2,0,0.4,0,0.6,0.1v2.4c-0.1,0-0.3,0-0.4-0.1c-0.2,0-0.3,0-0.5,0c-0.5,0-0.9,0.1-1.2,0.2
		c-0.3,0.2-0.6,0.4-0.8,0.6s-0.3,0.6-0.4,1C50.1,8.5,50,8.9,50,9.3v4.2h-2.6V4.2z"/>
	<path class="st0" d="M56,7c0-0.6,0.2-1.1,0.4-1.5c0.3-0.4,0.6-0.7,1-1c0.4-0.2,0.9-0.4,1.4-0.5s1-0.2,1.5-0.2c0.5,0,0.9,0,1.4,0.1
		c0.5,0.1,0.9,0.2,1.3,0.4s0.7,0.5,1,0.8c0.3,0.3,0.4,0.8,0.4,1.3v4.8c0,0.4,0,0.8,0.1,1.2c0,0.4,0.1,0.7,0.3,0.9h-2.6
		c0-0.1-0.1-0.3-0.1-0.4c0-0.1-0.1-0.3-0.1-0.5c-0.4,0.4-0.9,0.7-1.4,0.9c-0.6,0.2-1.1,0.3-1.7,0.3c-0.4,0-0.9-0.1-1.2-0.2
		c-0.4-0.1-0.7-0.3-1-0.5c-0.3-0.2-0.5-0.5-0.7-0.9c-0.2-0.3-0.2-0.8-0.2-1.2c0-0.5,0.1-1,0.3-1.3c0.2-0.3,0.4-0.6,0.7-0.8
		c0.3-0.2,0.6-0.4,1-0.5c0.4-0.1,0.8-0.2,1.2-0.2C59.2,8,59.6,8,60,8c0.4,0,0.7-0.1,1-0.2c0.3-0.1,0.5-0.2,0.7-0.3
		c0.2-0.1,0.3-0.3,0.3-0.6c0-0.3,0-0.5-0.1-0.7c-0.1-0.2-0.2-0.3-0.4-0.4c-0.2-0.1-0.3-0.2-0.5-0.2c-0.2,0-0.4,0-0.6,0
		c-0.5,0-0.9,0.1-1.2,0.3c-0.3,0.2-0.5,0.6-0.5,1.1H56z M61.9,8.9c-0.1,0.1-0.2,0.2-0.4,0.2c-0.2,0.1-0.3,0.1-0.5,0.1
		c-0.2,0-0.4,0.1-0.6,0.1c-0.2,0-0.4,0.1-0.6,0.1c-0.2,0-0.4,0.1-0.6,0.1c-0.2,0.1-0.3,0.1-0.5,0.2s-0.2,0.2-0.3,0.4
		c-0.1,0.2-0.1,0.4-0.1,0.6c0,0.2,0,0.4,0.1,0.6s0.2,0.3,0.3,0.4c0.1,0.1,0.3,0.2,0.5,0.2c0.2,0,0.4,0.1,0.6,0.1
		c0.5,0,0.9-0.1,1.2-0.3s0.5-0.4,0.6-0.6c0.1-0.2,0.2-0.5,0.2-0.7c0-0.2,0-0.4,0-0.6V8.9z"/>
	<path class="st0" d="M68,0.6h2.6v4.7h0c0.3-0.5,0.7-0.8,1.3-1.1c0.5-0.2,1.1-0.3,1.7-0.3c0.5,0,0.9,0.1,1.4,0.3s0.9,0.5,1.2,0.9
		S76.8,6,77,6.6c0.2,0.6,0.3,1.4,0.3,2.2c0,0.9-0.1,1.6-0.3,2.2c-0.2,0.6-0.5,1.1-0.9,1.5s-0.8,0.7-1.2,0.9s-0.9,0.3-1.4,0.3
		c-0.7,0-1.3-0.1-1.8-0.3s-0.9-0.6-1.2-1.1h0v1.2H68V0.6z M74.8,8.8c0-0.4,0-0.8-0.1-1.1s-0.2-0.7-0.4-1s-0.4-0.5-0.7-0.7
		c-0.3-0.2-0.6-0.2-1-0.2c-0.4,0-0.7,0.1-1,0.2c-0.3,0.2-0.5,0.4-0.7,0.7s-0.3,0.6-0.4,1c-0.1,0.4-0.1,0.7-0.1,1.1
		c0,0.4,0,0.8,0.1,1.1c0.1,0.4,0.2,0.7,0.4,1s0.4,0.5,0.7,0.7c0.3,0.2,0.6,0.2,1,0.2c0.4,0,0.7-0.1,1-0.2c0.3-0.2,0.5-0.4,0.7-0.7
		s0.3-0.6,0.4-1S74.8,9.2,74.8,8.8z"/>
	<path class="st0" d="M80.7,0.6h2.6v12.8h-2.6V0.6z"/>
	<path class="st0" d="M88.9,9.4c0,0.8,0.2,1.4,0.6,1.8c0.4,0.4,0.9,0.6,1.7,0.6c0.5,0,1-0.1,1.3-0.4s0.6-0.5,0.7-0.8h2.2
		c-0.4,1.1-0.9,1.9-1.7,2.4c-0.7,0.5-1.6,0.7-2.7,0.7c-0.7,0-1.4-0.1-2-0.4s-1.1-0.6-1.5-1c-0.4-0.4-0.7-0.9-0.9-1.5
		c-0.2-0.6-0.3-1.3-0.3-2c0-0.7,0.1-1.3,0.3-1.9c0.2-0.6,0.6-1.1,1-1.6c0.4-0.4,0.9-0.8,1.5-1c0.6-0.3,1.2-0.4,1.9-0.4
		c0.8,0,1.5,0.2,2.1,0.5c0.6,0.3,1.1,0.7,1.4,1.2c0.4,0.5,0.6,1.1,0.8,1.8c0.2,0.7,0.2,1.3,0.2,2.1H88.9z M93.1,7.8
		c-0.1-0.6-0.3-1.1-0.6-1.5c-0.3-0.3-0.8-0.5-1.4-0.5c-0.4,0-0.7,0.1-1,0.2s-0.5,0.3-0.6,0.5c-0.2,0.2-0.3,0.4-0.3,0.6
		C89,7.4,89,7.6,88.9,7.8H93.1z"/>
	<path class="st0" d="M105.4,4.2h2.4v1.2h0c0.3-0.5,0.7-0.9,1.2-1.1c0.5-0.2,1-0.3,1.6-0.3c0.7,0,1.4,0.1,1.9,0.4
		c0.5,0.3,1,0.6,1.3,1.1c0.3,0.5,0.6,1,0.8,1.6s0.3,1.2,0.3,1.9c0,0.6-0.1,1.2-0.3,1.8c-0.2,0.6-0.4,1.1-0.8,1.5
		c-0.3,0.4-0.8,0.8-1.3,1.1c-0.5,0.3-1.1,0.4-1.8,0.4c-0.6,0-1.1-0.1-1.6-0.4s-0.9-0.6-1.2-1h0v4.4h-2.6V4.2z M110.1,11.8
		c0.4,0,0.8-0.1,1.1-0.3c0.3-0.2,0.5-0.4,0.7-0.7c0.2-0.3,0.3-0.6,0.4-0.9c0.1-0.4,0.1-0.7,0.1-1.1c0-0.4,0-0.7-0.1-1.1
		c-0.1-0.4-0.2-0.7-0.4-1s-0.4-0.5-0.7-0.7c-0.3-0.2-0.6-0.3-1-0.3c-0.4,0-0.8,0.1-1.1,0.3c-0.3,0.2-0.5,0.4-0.7,0.7
		c-0.2,0.3-0.3,0.6-0.4,1c-0.1,0.4-0.1,0.7-0.1,1.1c0,0.4,0,0.8,0.1,1.1c0.1,0.4,0.2,0.7,0.4,0.9c0.2,0.3,0.4,0.5,0.7,0.7
		S109.6,11.8,110.1,11.8z"/>
	<path class="st0" d="M120.1,9.4c0,0.8,0.2,1.4,0.6,1.8c0.4,0.4,0.9,0.6,1.7,0.6c0.5,0,1-0.1,1.3-0.4s0.6-0.5,0.7-0.8h2.2
		c-0.4,1.1-0.9,1.9-1.7,2.4c-0.7,0.5-1.6,0.7-2.7,0.7c-0.7,0-1.4-0.1-2-0.4s-1.1-0.6-1.5-1c-0.4-0.4-0.7-0.9-0.9-1.5
		c-0.2-0.6-0.3-1.3-0.3-2c0-0.7,0.1-1.3,0.3-1.9c0.2-0.6,0.6-1.1,1-1.6c0.4-0.4,0.9-0.8,1.5-1c0.6-0.3,1.2-0.4,1.9-0.4
		c0.8,0,1.5,0.2,2.1,0.5c0.6,0.3,1.1,0.7,1.4,1.2c0.4,0.5,0.6,1.1,0.8,1.8c0.2,0.7,0.2,1.3,0.2,2.1H120.1z M124.2,7.8
		c-0.1-0.6-0.3-1.1-0.6-1.5c-0.3-0.3-0.8-0.5-1.4-0.5c-0.4,0-0.7,0.1-1,0.2s-0.5,0.3-0.6,0.5c-0.2,0.2-0.3,0.4-0.3,0.6
		c-0.1,0.2-0.1,0.4-0.1,0.6H124.2z"/>
	<path class="st0" d="M129.9,4.2h2.4v1.7h0c0.1-0.3,0.3-0.6,0.5-0.8c0.2-0.2,0.4-0.5,0.7-0.6c0.3-0.2,0.5-0.3,0.9-0.4
		c0.3-0.1,0.6-0.1,0.9-0.1c0.2,0,0.4,0,0.6,0.1v2.4c-0.1,0-0.3,0-0.4-0.1c-0.2,0-0.3,0-0.5,0c-0.5,0-0.9,0.1-1.2,0.2
		c-0.3,0.2-0.6,0.4-0.8,0.6s-0.3,0.6-0.4,1c-0.1,0.4-0.1,0.8-0.1,1.2v4.2h-2.6V4.2z"/>
	<path class="st0" d="M139.1,5.9h-1.5V4.2h1.5V3.5c0-0.4,0.1-0.8,0.2-1.1c0.1-0.3,0.3-0.6,0.6-0.9c0.3-0.3,0.6-0.4,1-0.6
		c0.4-0.1,0.8-0.2,1.4-0.2c0.2,0,0.5,0,0.7,0s0.4,0,0.7,0v1.9c-0.3,0-0.6-0.1-0.9-0.1c-0.3,0-0.6,0.1-0.7,0.2
		c-0.1,0.2-0.2,0.4-0.2,0.8v0.6h1.8v1.7h-1.8v7.6h-2.6V5.9z"/>
	<path class="st0" d="M148.7,2.7h-2.6V0.6h2.6V2.7z M146.2,4.2h2.6v9.3h-2.6V4.2z"/>
	<path class="st0" d="M152.4,0.6h2.6v12.8h-2.6V0.6z"/>
	<path class="st0" d="M171.8,12.3L171.8,12.3c-0.3,0.5-0.7,0.9-1.2,1.1c-0.5,0.2-1,0.3-1.6,0.3c-0.7,0-1.3-0.1-1.8-0.4
		c-0.5-0.3-1-0.6-1.3-1.1c-0.3-0.5-0.6-1-0.8-1.6s-0.3-1.2-0.3-1.9c0-0.6,0.1-1.2,0.3-1.8c0.2-0.6,0.4-1.1,0.8-1.5
		c0.3-0.4,0.8-0.8,1.3-1.1s1.1-0.4,1.8-0.4c0.5,0,1.1,0.1,1.6,0.4s0.9,0.6,1.2,1h0V0.6h2.6v12.8h-2.4V12.3z M171.8,8.8
		c0-0.4,0-0.7-0.1-1.1s-0.2-0.7-0.4-0.9s-0.4-0.5-0.7-0.7s-0.6-0.3-1-0.3c-0.4,0-0.8,0.1-1.1,0.3c-0.3,0.2-0.5,0.4-0.7,0.7
		c-0.2,0.3-0.3,0.6-0.4,0.9c-0.1,0.4-0.1,0.7-0.1,1.1c0,0.4,0,0.7,0.1,1.1s0.2,0.7,0.4,1s0.4,0.5,0.7,0.7s0.6,0.3,1,0.3
		c0.4,0,0.8-0.1,1.1-0.3s0.5-0.4,0.7-0.7s0.3-0.6,0.4-1S171.8,9.2,171.8,8.8z"/>
	<path class="st0" d="M179.9,9.4c0,0.8,0.2,1.4,0.6,1.8c0.4,0.4,0.9,0.6,1.7,0.6c0.5,0,1-0.1,1.3-0.4s0.6-0.5,0.7-0.8h2.2
		c-0.4,1.1-0.9,1.9-1.7,2.4c-0.7,0.5-1.6,0.7-2.7,0.7c-0.7,0-1.4-0.1-2-0.4s-1.1-0.6-1.5-1c-0.4-0.4-0.7-0.9-0.9-1.5
		c-0.2-0.6-0.3-1.3-0.3-2c0-0.7,0.1-1.3,0.3-1.9c0.2-0.6,0.6-1.1,1-1.6c0.4-0.4,0.9-0.8,1.5-1c0.6-0.3,1.2-0.4,1.9-0.4
		c0.8,0,1.5,0.2,2.1,0.5c0.6,0.3,1.1,0.7,1.4,1.2c0.4,0.5,0.6,1.1,0.8,1.8c0.2,0.7,0.2,1.3,0.2,2.1H179.9z M184.1,7.8
		c-0.1-0.6-0.3-1.1-0.6-1.5c-0.3-0.3-0.8-0.5-1.4-0.5c-0.4,0-0.7,0.1-1,0.2s-0.5,0.3-0.6,0.5c-0.2,0.2-0.3,0.4-0.3,0.6
		c-0.1,0.2-0.1,0.4-0.1,0.6H184.1z"/>
	<path class="st0" d="M198.3,10.4c0,0.3,0.1,0.5,0.2,0.7c0.1,0.2,0.3,0.4,0.4,0.5s0.4,0.2,0.6,0.3c0.2,0.1,0.5,0.1,0.7,0.1
		c0.2,0,0.4,0,0.6-0.1c0.2,0,0.4-0.1,0.5-0.2c0.2-0.1,0.3-0.2,0.4-0.4c0.1-0.2,0.2-0.3,0.2-0.6c0-0.2-0.1-0.4-0.2-0.5
		c-0.1-0.1-0.3-0.3-0.6-0.4c-0.2-0.1-0.5-0.2-0.9-0.3s-0.8-0.2-1.2-0.3c-0.4-0.1-0.7-0.2-1.1-0.3c-0.4-0.1-0.7-0.3-0.9-0.4
		s-0.5-0.4-0.7-0.7c-0.2-0.3-0.3-0.6-0.3-1c0-0.6,0.1-1.1,0.4-1.5c0.2-0.4,0.5-0.7,0.9-0.9c0.4-0.2,0.8-0.4,1.3-0.5
		c0.5-0.1,1-0.1,1.5-0.1s1,0,1.5,0.1c0.5,0.1,0.9,0.3,1.3,0.5s0.7,0.5,0.9,0.9c0.2,0.4,0.4,0.9,0.4,1.4h-2.4c0-0.5-0.2-0.8-0.6-1
		c-0.3-0.2-0.7-0.3-1.2-0.3c-0.1,0-0.3,0-0.5,0c-0.2,0-0.3,0.1-0.5,0.1s-0.3,0.1-0.4,0.3c-0.1,0.1-0.1,0.3-0.1,0.5
		c0,0.2,0.1,0.4,0.3,0.6c0.2,0.1,0.4,0.3,0.7,0.3s0.6,0.2,0.9,0.2c0.3,0.1,0.7,0.1,1.1,0.2c0.4,0.1,0.7,0.2,1.1,0.3
		c0.4,0.1,0.7,0.3,0.9,0.5c0.3,0.2,0.5,0.4,0.7,0.7c0.2,0.3,0.3,0.7,0.3,1.1c0,0.6-0.1,1.1-0.4,1.5c-0.2,0.4-0.6,0.7-1,1
		c-0.4,0.3-0.8,0.4-1.4,0.5s-1,0.2-1.6,0.2c-0.5,0-1.1-0.1-1.6-0.2s-1-0.3-1.4-0.5s-0.7-0.6-1-1c-0.3-0.4-0.4-0.9-0.4-1.5H198.3z"/>
	<path class="st0" d="M209.7,9.4c0,0.8,0.2,1.4,0.6,1.8c0.4,0.4,0.9,0.6,1.7,0.6c0.5,0,1-0.1,1.3-0.4s0.6-0.5,0.7-0.8h2.2
		c-0.4,1.1-0.9,1.9-1.7,2.4c-0.7,0.5-1.6,0.7-2.7,0.7c-0.7,0-1.4-0.1-2-0.4s-1.1-0.6-1.5-1c-0.4-0.4-0.7-0.9-0.9-1.5
		c-0.2-0.6-0.3-1.3-0.3-2c0-0.7,0.1-1.3,0.3-1.9c0.2-0.6,0.6-1.1,1-1.6c0.4-0.4,0.9-0.8,1.5-1c0.6-0.3,1.2-0.4,1.9-0.4
		c0.8,0,1.5,0.2,2.1,0.5c0.6,0.3,1.1,0.7,1.4,1.2c0.4,0.5,0.6,1.1,0.8,1.8c0.2,0.7,0.2,1.3,0.2,2.1H209.7z M213.8,7.8
		c-0.1-0.6-0.3-1.1-0.6-1.5c-0.3-0.3-0.8-0.5-1.4-0.5c-0.4,0-0.7,0.1-1,0.2s-0.5,0.3-0.6,0.5c-0.2,0.2-0.3,0.4-0.3,0.6
		c-0.1,0.2-0.1,0.4-0.1,0.6H213.8z"/>
	<path class="st0" d="M228.5,12.9c0,0.3,0,0.5-0.1,0.8c0,0.3-0.1,0.6-0.2,0.9c-0.1,0.3-0.3,0.6-0.5,0.9c-0.2,0.3-0.5,0.5-0.9,0.8
		s-0.8,0.4-1.3,0.5c-0.5,0.1-1.1,0.2-1.8,0.2c-0.5,0-0.9-0.1-1.4-0.2c-0.5-0.1-0.9-0.3-1.3-0.5c-0.4-0.2-0.7-0.5-1-0.9
		c-0.3-0.4-0.4-0.8-0.4-1.4h2.5c0.1,0.5,0.4,0.8,0.7,1c0.3,0.2,0.7,0.3,1.2,0.3c0.7,0,1.2-0.2,1.6-0.6c0.3-0.4,0.5-1,0.5-1.7v-1.2h0
		c-0.3,0.5-0.7,0.9-1.2,1.1c-0.5,0.2-1,0.4-1.6,0.4c-0.7,0-1.3-0.1-1.8-0.4c-0.5-0.2-0.9-0.6-1.2-1s-0.6-0.9-0.7-1.5
		c-0.2-0.6-0.2-1.2-0.2-1.8c0-0.6,0.1-1.2,0.3-1.7c0.2-0.6,0.4-1,0.8-1.5s0.8-0.8,1.2-1c0.5-0.3,1.1-0.4,1.7-0.4
		c0.6,0,1.1,0.1,1.6,0.3s0.8,0.6,1.2,1.1h0V4.2h2.4V12.9z M223.9,11.3c0.4,0,0.7-0.1,1-0.2c0.3-0.1,0.5-0.3,0.7-0.6s0.3-0.5,0.4-0.8
		c0.1-0.3,0.1-0.6,0.1-1c0-0.4,0-0.7-0.1-1.1c-0.1-0.3-0.2-0.7-0.4-0.9c-0.2-0.3-0.4-0.5-0.7-0.6c-0.3-0.2-0.6-0.2-1-0.2
		c-0.4,0-0.7,0.1-0.9,0.2c-0.3,0.1-0.5,0.3-0.6,0.6c-0.2,0.2-0.3,0.5-0.4,0.8c-0.1,0.3-0.1,0.7-0.1,1c0,0.3,0,0.7,0.1,1
		c0.1,0.3,0.2,0.6,0.3,0.9c0.2,0.3,0.4,0.5,0.6,0.6C223.1,11.2,223.5,11.3,223.9,11.3z"/>
	<path class="st0" d="M240.8,13.5h-2.4v-1.3h-0.1c-0.3,0.5-0.7,0.9-1.3,1.2c-0.5,0.3-1,0.4-1.6,0.4c-0.7,0-1.2-0.1-1.7-0.3
		c-0.4-0.2-0.8-0.4-1-0.8c-0.3-0.3-0.4-0.7-0.5-1.2c-0.1-0.5-0.2-1-0.2-1.6V4.2h2.6v5.2c0,0.8,0.1,1.3,0.4,1.7s0.7,0.6,1.3,0.6
		c0.7,0,1.2-0.2,1.5-0.6c0.3-0.4,0.5-1.1,0.5-2V4.2h2.6V13.5z"/>
	<path class="st0" d="M244.4,4.2h2.4v1.7h0c0.1-0.3,0.3-0.6,0.5-0.8c0.2-0.2,0.4-0.5,0.7-0.6c0.3-0.2,0.5-0.3,0.9-0.4
		c0.3-0.1,0.6-0.1,0.9-0.1c0.2,0,0.4,0,0.6,0.1v2.4c-0.1,0-0.3,0-0.4-0.1c-0.2,0-0.3,0-0.5,0c-0.5,0-0.9,0.1-1.2,0.2
		c-0.3,0.2-0.6,0.4-0.8,0.6s-0.3,0.6-0.4,1c-0.1,0.4-0.1,0.8-0.1,1.2v4.2h-2.6V4.2z"/>
	<path class="st0" d="M255.6,2.7h-2.6V0.6h2.6V2.7z M253.1,4.2h2.6v9.3h-2.6V4.2z"/>
	<path class="st0" d="M265.9,12.3L265.9,12.3c-0.3,0.5-0.7,0.9-1.2,1.1c-0.5,0.2-1,0.3-1.6,0.3c-0.7,0-1.3-0.1-1.8-0.4
		c-0.5-0.3-1-0.6-1.3-1.1c-0.3-0.5-0.6-1-0.8-1.6s-0.3-1.2-0.3-1.9c0-0.6,0.1-1.2,0.3-1.8c0.2-0.6,0.4-1.1,0.8-1.5
		c0.3-0.4,0.8-0.8,1.3-1.1s1.1-0.4,1.8-0.4c0.5,0,1.1,0.1,1.6,0.4s0.9,0.6,1.2,1h0V0.6h2.6v12.8h-2.4V12.3z M265.8,8.8
		c0-0.4,0-0.7-0.1-1.1s-0.2-0.7-0.4-0.9s-0.4-0.5-0.7-0.7s-0.6-0.3-1-0.3c-0.4,0-0.8,0.1-1.1,0.3c-0.3,0.2-0.5,0.4-0.7,0.7
		c-0.2,0.3-0.3,0.6-0.4,0.9c-0.1,0.4-0.1,0.7-0.1,1.1c0,0.4,0,0.7,0.1,1.1s0.2,0.7,0.4,1s0.4,0.5,0.7,0.7s0.6,0.3,1,0.3
		c0.4,0,0.8-0.1,1.1-0.3s0.5-0.4,0.7-0.7s0.3-0.6,0.4-1S265.8,9.2,265.8,8.8z"/>
	<path class="st0" d="M271.7,7c0-0.6,0.2-1.1,0.4-1.5c0.3-0.4,0.6-0.7,1-1c0.4-0.2,0.9-0.4,1.4-0.5s1-0.2,1.5-0.2
		c0.5,0,0.9,0,1.4,0.1c0.5,0.1,0.9,0.2,1.3,0.4s0.7,0.5,1,0.8c0.3,0.3,0.4,0.8,0.4,1.3v4.8c0,0.4,0,0.8,0.1,1.2
		c0,0.4,0.1,0.7,0.3,0.9h-2.6c0-0.1-0.1-0.3-0.1-0.4c0-0.1-0.1-0.3-0.1-0.5c-0.4,0.4-0.9,0.7-1.4,0.9c-0.6,0.2-1.1,0.3-1.7,0.3
		c-0.4,0-0.9-0.1-1.2-0.2c-0.4-0.1-0.7-0.3-1-0.5c-0.3-0.2-0.5-0.5-0.7-0.9c-0.2-0.3-0.2-0.8-0.2-1.2c0-0.5,0.1-1,0.3-1.3
		c0.2-0.3,0.4-0.6,0.7-0.8c0.3-0.2,0.6-0.4,1-0.5c0.4-0.1,0.8-0.2,1.2-0.2C275,8,275.4,8,275.7,8c0.4,0,0.7-0.1,1-0.2
		c0.3-0.1,0.5-0.2,0.7-0.3c0.2-0.1,0.3-0.3,0.3-0.6c0-0.3,0-0.5-0.1-0.7c-0.1-0.2-0.2-0.3-0.4-0.4c-0.2-0.1-0.3-0.2-0.5-0.2
		c-0.2,0-0.4,0-0.6,0c-0.5,0-0.9,0.1-1.2,0.3c-0.3,0.2-0.5,0.6-0.5,1.1H271.7z M277.6,8.9c-0.1,0.1-0.2,0.2-0.4,0.2
		c-0.2,0.1-0.3,0.1-0.5,0.1c-0.2,0-0.4,0.1-0.6,0.1c-0.2,0-0.4,0.1-0.6,0.1c-0.2,0-0.4,0.1-0.6,0.1c-0.2,0.1-0.3,0.1-0.5,0.2
		s-0.2,0.2-0.3,0.4c-0.1,0.2-0.1,0.4-0.1,0.6c0,0.2,0,0.4,0.1,0.6s0.2,0.3,0.3,0.4c0.1,0.1,0.3,0.2,0.5,0.2c0.2,0,0.4,0.1,0.6,0.1
		c0.5,0,0.9-0.1,1.2-0.3s0.5-0.4,0.6-0.6c0.1-0.2,0.2-0.5,0.2-0.7c0-0.2,0-0.4,0-0.6V8.9z"/>
	<path class="st0" d="M290.4,12.3L290.4,12.3c-0.3,0.5-0.7,0.9-1.2,1.1c-0.5,0.2-1,0.3-1.6,0.3c-0.7,0-1.3-0.1-1.8-0.4
		c-0.5-0.3-1-0.6-1.3-1.1c-0.3-0.5-0.6-1-0.8-1.6s-0.3-1.2-0.3-1.9c0-0.6,0.1-1.2,0.3-1.8c0.2-0.6,0.4-1.1,0.8-1.5
		c0.3-0.4,0.8-0.8,1.3-1.1s1.1-0.4,1.8-0.4c0.5,0,1.1,0.1,1.6,0.4s0.9,0.6,1.2,1h0V0.6h2.6v12.8h-2.4V12.3z M290.3,8.8
		c0-0.4,0-0.7-0.1-1.1S290,7,289.9,6.7s-0.4-0.5-0.7-0.7s-0.6-0.3-1-0.3c-0.4,0-0.8,0.1-1.1,0.3c-0.3,0.2-0.5,0.4-0.7,0.7
		c-0.2,0.3-0.3,0.6-0.4,0.9c-0.1,0.4-0.1,0.7-0.1,1.1c0,0.4,0,0.7,0.1,1.1s0.2,0.7,0.4,1s0.4,0.5,0.7,0.7s0.6,0.3,1,0.3
		c0.4,0,0.8-0.1,1.1-0.3s0.5-0.4,0.7-0.7s0.3-0.6,0.4-1S290.3,9.2,290.3,8.8z"/>
	<path class="st0" d="M296.5,10.7h2.8v2.8h-2.8V10.7z"/>
	<path class="st0" d="M302.4,2c0-0.3,0.1-0.6,0.2-0.9c0.1-0.3,0.3-0.5,0.6-0.6c0.2-0.2,0.5-0.3,0.8-0.4c0.3-0.1,0.6-0.1,0.9-0.1
		c0.5,0,0.8,0.1,1.2,0.2c0.3,0.1,0.6,0.3,0.8,0.5c0.2,0.2,0.3,0.4,0.4,0.6s0.1,0.4,0.1,0.6c0,0.4-0.1,0.7-0.3,1
		c-0.2,0.3-0.4,0.5-0.8,0.6v0c0.4,0.1,0.8,0.3,1,0.6c0.2,0.3,0.4,0.7,0.4,1.2c0,0.4-0.1,0.7-0.2,1c-0.2,0.3-0.4,0.5-0.6,0.7
		c-0.3,0.2-0.6,0.3-0.9,0.4c-0.3,0.1-0.7,0.1-1,0.1c-0.4,0-0.7,0-1-0.1c-0.3-0.1-0.6-0.2-0.9-0.4s-0.5-0.4-0.6-0.7
		c-0.2-0.3-0.2-0.6-0.2-1c0-0.5,0.1-0.9,0.4-1.2c0.2-0.3,0.6-0.5,1-0.6v0c-0.4-0.1-0.6-0.3-0.8-0.6C302.5,2.7,302.4,2.4,302.4,2z
		 M303.6,5.3c0,0.2,0,0.4,0.1,0.5c0.1,0.2,0.2,0.3,0.3,0.4c0.1,0.1,0.3,0.2,0.4,0.3c0.2,0.1,0.3,0.1,0.5,0.1c0.2,0,0.3,0,0.5-0.1
		c0.2-0.1,0.3-0.1,0.4-0.3c0.1-0.1,0.2-0.2,0.3-0.4c0.1-0.2,0.1-0.3,0.1-0.5c0-0.2,0-0.3-0.1-0.5c-0.1-0.1-0.2-0.3-0.3-0.4
		c-0.1-0.1-0.2-0.2-0.4-0.2c-0.2-0.1-0.3-0.1-0.5-0.1c-0.4,0-0.7,0.1-0.9,0.3C303.7,4.6,303.6,4.9,303.6,5.3z M303.8,2.1
		c0,0.2,0,0.3,0.1,0.4c0.1,0.1,0.1,0.2,0.2,0.3c0.1,0.1,0.2,0.1,0.4,0.2c0.1,0,0.3,0.1,0.4,0.1c0.3,0,0.6-0.1,0.8-0.2
		c0.2-0.2,0.3-0.4,0.3-0.7c0-0.1,0-0.2,0-0.3c0-0.1-0.1-0.2-0.2-0.3c-0.1-0.1-0.2-0.2-0.3-0.3c-0.1-0.1-0.3-0.1-0.6-0.1
		c-0.3,0-0.6,0.1-0.8,0.3C303.9,1.6,303.8,1.8,303.8,2.1z"/>
	<path class="st0" d="M309.4,5.9h1.6v1.6c0,0.2,0,0.5-0.1,0.7c-0.1,0.2-0.2,0.4-0.4,0.5c-0.1,0.2-0.3,0.3-0.5,0.4
		c-0.2,0.1-0.4,0.2-0.6,0.2V8.5c0.1,0,0.2-0.1,0.3-0.1c0.1-0.1,0.2-0.1,0.2-0.2c0.1-0.1,0.1-0.2,0.2-0.3c0-0.1,0-0.2,0-0.3h-0.8V5.9
		z"/>
	<path class="st0" d="M316.7,7.5h-1.5V2.7h-1.8V1.6c0.3,0,0.5,0,0.7-0.1c0.2,0,0.5-0.1,0.7-0.2s0.4-0.3,0.5-0.5s0.2-0.4,0.3-0.7h1.2
		V7.5z"/>
	<path class="st0" d="M319.6,3.8c0-0.7,0.1-1.3,0.2-1.8c0.1-0.5,0.3-0.9,0.6-1.2s0.5-0.5,0.9-0.6c0.3-0.1,0.7-0.2,1-0.2
		s0.7,0.1,1,0.2c0.3,0.1,0.6,0.3,0.9,0.6c0.2,0.3,0.4,0.7,0.6,1.2c0.1,0.5,0.2,1.1,0.2,1.8c0,0.7-0.1,1.3-0.2,1.8
		c-0.1,0.5-0.3,0.9-0.6,1.2c-0.2,0.3-0.5,0.5-0.9,0.6s-0.7,0.2-1,0.2s-0.7-0.1-1-0.2s-0.6-0.3-0.9-0.6s-0.4-0.7-0.6-1.2
		C319.7,5.1,319.6,4.5,319.6,3.8z M321.1,3.8c0,0.2,0,0.5,0,0.8c0,0.3,0.1,0.6,0.1,0.9c0.1,0.3,0.2,0.5,0.4,0.7
		c0.2,0.2,0.4,0.3,0.7,0.3c0.3,0,0.5-0.1,0.7-0.3c0.2-0.2,0.3-0.4,0.4-0.7c0.1-0.3,0.1-0.6,0.1-0.9c0-0.3,0-0.5,0-0.8
		c0-0.1,0-0.3,0-0.5c0-0.2,0-0.4,0-0.5s-0.1-0.4-0.1-0.6c0-0.2-0.1-0.4-0.2-0.5c-0.1-0.1-0.2-0.3-0.3-0.4s-0.3-0.1-0.5-0.1
		c-0.2,0-0.4,0-0.5,0.1c-0.1,0.1-0.3,0.2-0.3,0.4s-0.2,0.3-0.2,0.5c0,0.2-0.1,0.4-0.1,0.6c0,0.2,0,0.4,0,0.5
		C321.1,3.5,321.1,3.7,321.1,3.8z"/>
</g>
</svg>
