<!-- Generator: Adobe Illustrator 20.1.0, SVG Export Plug-In  -->
<svg version="1.1"
	 xmlns="http://www.w3.org/2000/svg" xmlns:xlink="http://www.w3.org/1999/xlink" xmlns:a="http://ns.adobe.com/AdobeSVGViewerExtensions/3.0/"
	 x="0px" y="0px" width="100.9px" height="12.4px" viewBox="0 0 100.9 12.4"
	 style="overflow:scroll;enable-background:new 0 0 100.9 12.4;" xml:space="preserve">
<style type="text/css">
	.st0{opacity:0.8;}
	.st1{opacity:0.9;fill:#F18A21;}
</style>
<defs>
</defs>
<g class="st0">
	<g>
		<path class="st1" d="M4.8,9.8H2.7L0,1.5h1.9l1.9,5.8h0l1.9-5.8h1.9L4.8,9.8z"/>
		<path class="st1" d="M9.8,2.9H8.1V1.5h1.7V2.9z M8.1,3.8h1.7v6H8.1V3.8z"/>
		<path class="st1" d="M13.1,3.8h1.2v1.1h-1.2v3c0,0.3,0,0.5,0.1,0.6s0.3,0.1,0.6,0.1c0.2,0,0.4,0,0.5,0v1.3c-0.1,0-0.3,0-0.5,0
			c-0.2,0-0.3,0-0.5,0c-0.3,0-0.5,0-0.7-0.1c-0.2,0-0.4-0.1-0.6-0.2c-0.2-0.1-0.3-0.3-0.4-0.4c-0.1-0.2-0.2-0.4-0.2-0.7V4.9h-1V3.8
			h1V2h1.7V3.8z"/>
		<path class="st1" d="M15.1,5.6c0-0.4,0.1-0.7,0.3-1c0.2-0.3,0.4-0.5,0.7-0.6s0.6-0.3,0.9-0.3c0.3-0.1,0.7-0.1,1-0.1
			c0.3,0,0.6,0,0.9,0.1c0.3,0,0.6,0.1,0.8,0.3c0.3,0.1,0.5,0.3,0.6,0.5s0.2,0.5,0.2,0.9v3.1c0,0.3,0,0.5,0,0.8
			c0,0.2,0.1,0.4,0.2,0.6h-1.7c0-0.1-0.1-0.2-0.1-0.3c0-0.1,0-0.2,0-0.3c-0.3,0.3-0.6,0.5-0.9,0.6S17.3,10,16.9,10
			c-0.3,0-0.6,0-0.8-0.1c-0.2-0.1-0.5-0.2-0.7-0.3c-0.2-0.1-0.3-0.3-0.4-0.6s-0.2-0.5-0.2-0.8c0-0.3,0.1-0.6,0.2-0.8
			s0.3-0.4,0.5-0.5c0.2-0.1,0.4-0.2,0.7-0.3c0.2-0.1,0.5-0.1,0.8-0.2c0.3,0,0.5-0.1,0.7-0.1s0.4-0.1,0.6-0.1c0.2,0,0.3-0.1,0.4-0.2
			c0.1-0.1,0.2-0.2,0.2-0.4c0-0.2,0-0.3-0.1-0.4c-0.1-0.1-0.1-0.2-0.2-0.2s-0.2-0.1-0.3-0.1c-0.1,0-0.3,0-0.4,0
			c-0.3,0-0.6,0.1-0.8,0.2c-0.2,0.1-0.3,0.4-0.3,0.7H15.1z M18.9,6.9C18.8,6.9,18.7,7,18.6,7s-0.2,0.1-0.3,0.1s-0.2,0-0.4,0.1
			s-0.3,0-0.4,0.1c-0.1,0-0.3,0.1-0.4,0.1c-0.1,0-0.2,0.1-0.3,0.2c-0.1,0.1-0.2,0.2-0.2,0.3c-0.1,0.1-0.1,0.2-0.1,0.4
			c0,0.2,0,0.3,0.1,0.4c0.1,0.1,0.1,0.2,0.2,0.2s0.2,0.1,0.3,0.1c0.1,0,0.3,0,0.4,0c0.3,0,0.6-0.1,0.8-0.2c0.2-0.1,0.3-0.2,0.4-0.4
			c0.1-0.2,0.1-0.3,0.2-0.5c0-0.2,0-0.3,0-0.4V6.9z"/>
		<path class="st1" d="M21.8,3.8h1.6v0.8h0c0.2-0.3,0.5-0.6,0.8-0.8s0.7-0.2,1-0.2c0.4,0,0.8,0.1,1.1,0.2c0.3,0.1,0.5,0.3,0.7,0.5
			s0.3,0.5,0.3,0.8c0.1,0.3,0.1,0.6,0.1,1v3.7h-1.7V6.4c0-0.5-0.1-0.9-0.2-1.1c-0.2-0.2-0.4-0.4-0.8-0.4c-0.4,0-0.8,0.1-1,0.4
			c-0.2,0.3-0.3,0.7-0.3,1.3v3.2h-1.7V3.8z"/>
		<path class="st1" d="M32.8,5.9c-0.1-0.7-0.5-1-1.2-1c-0.3,0-0.5,0.1-0.7,0.2c-0.2,0.1-0.3,0.3-0.4,0.5s-0.2,0.4-0.2,0.6
			c0,0.2-0.1,0.5-0.1,0.7s0,0.4,0.1,0.7s0.1,0.4,0.2,0.6c0.1,0.2,0.2,0.3,0.4,0.4s0.4,0.2,0.7,0.2c0.4,0,0.7-0.1,0.9-0.3
			c0.2-0.2,0.4-0.5,0.4-0.9h1.6c-0.1,0.8-0.4,1.4-0.9,1.8c-0.5,0.4-1.2,0.6-2,0.6c-0.5,0-0.9-0.1-1.2-0.2c-0.4-0.2-0.7-0.4-1-0.6
			s-0.5-0.6-0.6-1c-0.1-0.4-0.2-0.8-0.2-1.2c0-0.5,0.1-0.9,0.2-1.3c0.1-0.4,0.3-0.7,0.6-1s0.6-0.5,1-0.7c0.4-0.2,0.8-0.2,1.3-0.2
			c0.4,0,0.7,0,1,0.1C33,3.9,33.3,4,33.5,4.2s0.5,0.4,0.6,0.7c0.2,0.3,0.3,0.6,0.3,1H32.8z"/>
		<path class="st1" d="M35.2,6.8c0-0.5,0.1-0.9,0.2-1.3c0.1-0.4,0.4-0.7,0.6-1s0.6-0.5,1-0.6c0.4-0.2,0.8-0.2,1.3-0.2
			c0.5,0,0.9,0.1,1.3,0.2c0.4,0.2,0.7,0.4,1,0.6s0.5,0.6,0.6,1c0.1,0.4,0.2,0.8,0.2,1.3s-0.1,0.9-0.2,1.3c-0.1,0.4-0.4,0.7-0.6,1
			s-0.6,0.5-1,0.6c-0.4,0.2-0.8,0.2-1.3,0.2c-0.5,0-0.9-0.1-1.3-0.2c-0.4-0.2-0.7-0.4-1-0.6s-0.5-0.6-0.6-1
			C35.3,7.7,35.2,7.3,35.2,6.8z M36.9,6.8c0,0.2,0,0.5,0.1,0.7c0,0.2,0.1,0.4,0.2,0.6c0.1,0.2,0.3,0.3,0.4,0.4
			c0.2,0.1,0.4,0.2,0.7,0.2s0.5-0.1,0.7-0.2c0.2-0.1,0.3-0.3,0.5-0.4c0.1-0.2,0.2-0.4,0.2-0.6c0-0.2,0.1-0.5,0.1-0.7s0-0.5-0.1-0.7
			c0-0.2-0.1-0.4-0.2-0.6C39.4,5.3,39.2,5.2,39,5c-0.2-0.1-0.4-0.2-0.7-0.2S37.8,4.9,37.6,5c-0.2,0.1-0.3,0.3-0.4,0.4
			c-0.1,0.2-0.2,0.4-0.2,0.6C36.9,6.3,36.9,6.6,36.9,6.8z"/>
		<path class="st1" d="M45.6,4.2c0-0.5,0-1,0.2-1.5s0.3-0.8,0.6-1.2s0.6-0.6,1.1-0.8c0.4-0.2,0.9-0.3,1.5-0.3c0.4,0,0.8,0.1,1.2,0.2
			s0.7,0.3,1,0.6c0.3,0.2,0.5,0.5,0.7,0.9c0.2,0.4,0.3,0.8,0.3,1.2c0,0.3,0,0.6-0.1,0.9c-0.1,0.3-0.2,0.5-0.4,0.7s-0.3,0.4-0.5,0.6
			s-0.4,0.4-0.6,0.5c-0.2,0.2-0.5,0.3-0.7,0.5C49.5,6.7,49.3,6.9,49,7s-0.5,0.3-0.7,0.5C48.1,7.8,48,8,47.8,8.2h4.3v1.6h-6.7
			c0-0.5,0.1-1,0.2-1.4C45.8,8,46,7.7,46.3,7.4c0.3-0.3,0.6-0.6,0.9-0.9s0.7-0.5,1.1-0.8c0.2-0.1,0.4-0.3,0.6-0.4
			c0.2-0.1,0.4-0.3,0.6-0.5c0.2-0.2,0.3-0.4,0.5-0.6c0.1-0.2,0.2-0.5,0.2-0.7c0-0.4-0.1-0.8-0.4-1c-0.3-0.3-0.6-0.4-1-0.4
			c-0.3,0-0.5,0.1-0.7,0.2c-0.2,0.1-0.3,0.3-0.4,0.5c-0.1,0.2-0.2,0.4-0.2,0.7c0,0.2-0.1,0.5-0.1,0.7H45.6z"/>
		<path class="st1" d="M52.7,5.2c0-0.9,0.1-1.6,0.3-2.2s0.4-1.1,0.7-1.5c0.3-0.4,0.7-0.6,1.1-0.8c0.4-0.2,0.8-0.2,1.3-0.2
			c0.5,0,0.9,0.1,1.3,0.2c0.4,0.2,0.8,0.4,1.1,0.8c0.3,0.4,0.6,0.9,0.7,1.5c0.2,0.6,0.3,1.4,0.3,2.2c0,0.9-0.1,1.7-0.3,2.3
			C59,8.1,58.7,8.6,58.4,9c-0.3,0.4-0.7,0.6-1.1,0.8C56.9,9.9,56.5,10,56,10c-0.5,0-0.9-0.1-1.3-0.2C54.3,9.6,54,9.3,53.7,9
			c-0.3-0.4-0.5-0.9-0.7-1.5S52.7,6.1,52.7,5.2z M54.5,5.2c0,0.3,0,0.6,0,0.9c0,0.4,0.1,0.7,0.2,1.1s0.2,0.6,0.4,0.9
			s0.5,0.4,0.9,0.4s0.7-0.1,0.9-0.4s0.4-0.5,0.5-0.9c0.1-0.3,0.1-0.7,0.2-1.1s0-0.7,0-0.9c0-0.2,0-0.3,0-0.6c0-0.2,0-0.5-0.1-0.7
			c0-0.2-0.1-0.5-0.1-0.7c-0.1-0.2-0.1-0.4-0.3-0.6c-0.1-0.2-0.3-0.3-0.4-0.4C56.5,2.1,56.3,2,56,2c-0.2,0-0.5,0.1-0.6,0.2
			c-0.2,0.1-0.3,0.3-0.4,0.4c-0.1,0.2-0.2,0.4-0.3,0.6c-0.1,0.2-0.1,0.5-0.1,0.7c0,0.2,0,0.5,0,0.7C54.5,4.8,54.5,5,54.5,5.2z"/>
		<path class="st1" d="M60,5.2c0-0.9,0.1-1.6,0.3-2.2s0.4-1.1,0.7-1.5c0.3-0.4,0.7-0.6,1.1-0.8c0.4-0.2,0.8-0.2,1.3-0.2
			c0.5,0,0.9,0.1,1.3,0.2c0.4,0.2,0.8,0.4,1.1,0.8c0.3,0.4,0.6,0.9,0.7,1.5c0.2,0.6,0.3,1.4,0.3,2.2c0,0.9-0.1,1.7-0.3,2.3
			C66.2,8.1,66,8.6,65.7,9c-0.3,0.4-0.7,0.6-1.1,0.8c-0.4,0.2-0.8,0.2-1.3,0.2c-0.5,0-0.9-0.1-1.3-0.2C61.6,9.6,61.3,9.3,61,9
			c-0.3-0.4-0.5-0.9-0.7-1.5S60,6.1,60,5.2z M61.8,5.2c0,0.3,0,0.6,0,0.9c0,0.4,0.1,0.7,0.2,1.1s0.2,0.6,0.4,0.9s0.5,0.4,0.9,0.4
			s0.7-0.1,0.9-0.4s0.4-0.5,0.5-0.9c0.1-0.3,0.1-0.7,0.2-1.1s0-0.7,0-0.9c0-0.2,0-0.3,0-0.6c0-0.2,0-0.5-0.1-0.7
			c0-0.2-0.1-0.5-0.1-0.7c-0.1-0.2-0.1-0.4-0.3-0.6c-0.1-0.2-0.3-0.3-0.4-0.4C63.8,2.1,63.6,2,63.3,2c-0.2,0-0.5,0.1-0.6,0.2
			c-0.2,0.1-0.3,0.3-0.4,0.4C62.1,2.8,62.1,3,62,3.2c-0.1,0.2-0.1,0.5-0.1,0.7c0,0.2,0,0.5,0,0.7C61.8,4.8,61.8,5,61.8,5.2z"/>
		<path class="st1" d="M71.4,3h1.8V4h0c0.2-0.3,0.5-0.6,0.9-0.8c0.3-0.2,0.7-0.3,1.2-0.3c0.4,0,0.8,0.1,1.2,0.3
			C76.7,3.3,77,3.6,77.2,4c0.2-0.3,0.5-0.6,0.8-0.8c0.3-0.2,0.8-0.3,1.2-0.3c0.4,0,0.7,0,1,0.1c0.3,0.1,0.6,0.2,0.8,0.4
			s0.4,0.4,0.5,0.8c0.1,0.3,0.2,0.7,0.2,1.1v4.5h-1.9V6c0-0.2,0-0.4,0-0.6c0-0.2-0.1-0.4-0.1-0.5c-0.1-0.1-0.2-0.3-0.3-0.4
			c-0.2-0.1-0.4-0.1-0.6-0.1s-0.5,0-0.6,0.2c-0.2,0.1-0.3,0.2-0.4,0.4c-0.1,0.2-0.2,0.3-0.2,0.5c0,0.2,0,0.4,0,0.6v3.8h-1.9V6
			c0-0.2,0-0.4,0-0.6c0-0.2,0-0.4-0.1-0.6s-0.2-0.3-0.3-0.4c-0.2-0.1-0.4-0.2-0.7-0.2c-0.1,0-0.2,0-0.4,0.1s-0.3,0.1-0.4,0.2
			c-0.1,0.1-0.3,0.3-0.3,0.5c-0.1,0.2-0.1,0.5-0.1,0.8v3.9h-1.9V3z"/>
		<path class="st1" d="M89.7,9.4c0,0.2,0,0.4,0,0.6c0,0.2-0.1,0.4-0.2,0.7c-0.1,0.2-0.2,0.4-0.4,0.6c-0.2,0.2-0.4,0.4-0.6,0.5
			c-0.3,0.2-0.6,0.3-1,0.4c-0.4,0.1-0.8,0.1-1.3,0.1c-0.3,0-0.7,0-1-0.1s-0.7-0.2-0.9-0.4c-0.3-0.2-0.5-0.4-0.7-0.7s-0.3-0.6-0.3-1
			H85c0.1,0.3,0.3,0.6,0.5,0.7s0.5,0.2,0.9,0.2c0.5,0,0.9-0.2,1.1-0.5c0.2-0.3,0.4-0.7,0.4-1.2V8.6h0c-0.2,0.4-0.5,0.6-0.9,0.8
			s-0.8,0.3-1.2,0.3c-0.5,0-0.9-0.1-1.3-0.3c-0.4-0.2-0.7-0.4-0.9-0.7c-0.2-0.3-0.4-0.7-0.5-1.1C83,7.1,83,6.7,83,6.2
			c0-0.4,0.1-0.9,0.2-1.3c0.1-0.4,0.3-0.8,0.6-1.1s0.5-0.6,0.9-0.7c0.4-0.2,0.8-0.3,1.3-0.3c0.4,0,0.8,0.1,1.2,0.2
			c0.3,0.2,0.6,0.4,0.8,0.8h0V3h1.8V9.4z M86.3,8.2c0.3,0,0.5-0.1,0.7-0.2c0.2-0.1,0.4-0.2,0.5-0.4s0.2-0.4,0.3-0.6s0.1-0.5,0.1-0.7
			c0-0.3,0-0.5-0.1-0.8c-0.1-0.3-0.1-0.5-0.3-0.7c-0.1-0.2-0.3-0.3-0.5-0.5c-0.2-0.1-0.5-0.2-0.8-0.2c-0.3,0-0.5,0.1-0.7,0.2
			s-0.3,0.2-0.5,0.4C85,5,85,5.2,84.9,5.5s-0.1,0.5-0.1,0.7c0,0.2,0,0.5,0.1,0.7c0,0.2,0.1,0.5,0.2,0.6c0.1,0.2,0.3,0.3,0.5,0.5
			C85.8,8.2,86,8.2,86.3,8.2z"/>
		<path class="st1" d="M94.4,1c-0.3,0.2-0.5,0.5-0.7,0.9c-0.2,0.4-0.4,0.7-0.5,1.1c-0.1,0.4-0.3,0.8-0.3,1.2
			c-0.1,0.4-0.1,0.8-0.1,1.2h-1.2c0.1-0.8,0.2-1.6,0.6-2.3s0.7-1.4,1.2-2h-2.5v-1h3.6V1z"/>
		<path class="st1" d="M95.2,4.3h1.2v1.2c0,0.2,0,0.3-0.1,0.5S96.1,6.2,96,6.3s-0.2,0.2-0.4,0.3c-0.1,0.1-0.3,0.1-0.5,0.1V6.2
			c0.1,0,0.2,0,0.2-0.1c0.1,0,0.1-0.1,0.2-0.2c0.1-0.1,0.1-0.1,0.1-0.2c0-0.1,0-0.2,0-0.2h-0.5V4.3z"/>
		<path class="st1" d="M98.1,4.1c0,0.2,0.1,0.3,0.2,0.5s0.3,0.2,0.5,0.2c0.2,0,0.4-0.1,0.5-0.2c0.1-0.1,0.2-0.3,0.3-0.4
			c0.1-0.2,0.1-0.3,0.2-0.5c0-0.2,0.1-0.4,0.1-0.5l0,0c-0.1,0.2-0.3,0.4-0.5,0.5s-0.4,0.1-0.7,0.1c-0.2,0-0.5,0-0.7-0.1
			s-0.4-0.2-0.6-0.4c-0.1-0.2-0.2-0.3-0.3-0.6C97,2.4,97,2.2,97,2c0-0.3,0-0.5,0.1-0.8c0.1-0.2,0.2-0.4,0.4-0.6s0.4-0.3,0.6-0.4
			C98.3,0.1,98.6,0,98.9,0c0.4,0,0.7,0.1,1,0.2s0.5,0.4,0.6,0.6c0.2,0.3,0.3,0.6,0.3,0.9c0.1,0.3,0.1,0.7,0.1,1c0,0.3,0,0.7-0.1,1
			s-0.2,0.6-0.4,0.9c-0.2,0.3-0.4,0.5-0.6,0.7c-0.3,0.2-0.6,0.3-1,0.3c-0.5,0-0.9-0.1-1.2-0.4s-0.5-0.6-0.6-1.1H98.1z M98.9,2.9
			c0.1,0,0.3,0,0.4-0.1c0.1-0.1,0.2-0.1,0.3-0.2c0.1-0.1,0.1-0.2,0.2-0.3c0-0.1,0.1-0.2,0.1-0.4c0-0.1,0-0.2-0.1-0.4
			c0-0.1-0.1-0.2-0.2-0.3C99.4,1.1,99.4,1,99.2,1c-0.1-0.1-0.2-0.1-0.4-0.1c-0.1,0-0.2,0-0.3,0.1c-0.1,0.1-0.2,0.1-0.3,0.2
			c-0.1,0.1-0.1,0.2-0.2,0.3c0,0.1-0.1,0.2-0.1,0.4c0,0.1,0,0.3,0,0.4s0.1,0.2,0.1,0.3c0.1,0.1,0.2,0.2,0.3,0.2S98.7,2.9,98.9,2.9z"
			/>
	</g>
</g>
</svg>
