<!-- Generator: Adobe Illustrator 20.1.0, SVG Export Plug-In  -->
<svg version="1.1"
	 xmlns="http://www.w3.org/2000/svg" xmlns:xlink="http://www.w3.org/1999/xlink" xmlns:a="http://ns.adobe.com/AdobeSVGViewerExtensions/3.0/"
	 x="0px" y="0px" width="326.8px" height="9.6px" viewBox="0 0 326.8 9.6"
	 style="overflow:scroll;enable-background:new 0 0 326.8 9.6;" xml:space="preserve">
<style type="text/css">
	.st0{fill:#DA0962;}
</style>
<defs>
</defs>
<g>
	<g>
		<path class="st0" d="M2,5.5l-0.6,2H0l2.3-7.1h1.7l2.3,7.1H4.9l-0.6-2H2z M4,4.5L3.4,2.7C3.3,2.3,3.2,1.8,3.1,1.4h0
			C2.9,1.8,2.8,2.3,2.7,2.7L2.2,4.5H4z"/>
		<path class="st0" d="M7.2,3.9c0-0.6,0-1.1,0-1.5h1.1l0.1,0.8h0C8.6,2.7,9.1,2.2,10,2.2c0.9,0,1.8,0.6,1.8,2.2v3.1h-1.3V4.6
			c0-0.7-0.3-1.3-1-1.3c-0.5,0-0.9,0.4-1,0.8c0,0.1-0.1,0.3-0.1,0.4v3H7.2V3.9z"/>
		<path class="st0" d="M16.1,7.5L16,6.9h0c-0.3,0.4-0.9,0.7-1.5,0.7c-1,0-1.6-0.8-1.6-1.5c0-1.3,1.2-2,3.1-1.9V4.1
			c0-0.3-0.1-0.9-1-0.9c-0.5,0-1,0.2-1.4,0.4l-0.3-0.8c0.4-0.2,1-0.5,1.9-0.5c1.6,0,2.1,1,2.1,2.2v1.9c0,0.5,0,0.9,0.1,1.2H16.1z
			 M15.9,5c-0.9,0-1.8,0.2-1.8,1c0,0.5,0.3,0.7,0.7,0.7c0.5,0,0.9-0.3,1-0.7c0-0.1,0-0.2,0-0.3V5z M16.7,0.1l-1.3,1.6h-0.9l0.9-1.6
			H16.7z"/>
		<path class="st0" d="M18.6,0h1.3v7.5h-1.3V0z"/>
		<path class="st0" d="M22.7,0.9c0,0.4-0.3,0.7-0.7,0.7c-0.4,0-0.7-0.3-0.7-0.7c0-0.4,0.3-0.7,0.7-0.7C22.4,0.2,22.6,0.5,22.7,0.9z
			 M21.3,7.5V2.4h1.3v5.1H21.3z"/>
		<path class="st0" d="M23.9,6.3c0.3,0.2,0.9,0.4,1.3,0.4c0.6,0,0.8-0.2,0.8-0.6c0-0.3-0.2-0.5-0.8-0.8c-1-0.3-1.4-0.9-1.4-1.5
			c0-0.9,0.7-1.6,1.9-1.6c0.6,0,1.1,0.1,1.4,0.3l-0.3,0.9c-0.2-0.1-0.6-0.3-1.1-0.3c-0.5,0-0.7,0.2-0.7,0.5c0,0.3,0.2,0.5,0.9,0.7
			c0.9,0.3,1.4,0.8,1.4,1.6c0,0.9-0.7,1.6-2.1,1.6c-0.6,0-1.2-0.1-1.6-0.4L23.9,6.3z"/>
		<path class="st0" d="M29.8,0.9c0,0.4-0.3,0.7-0.7,0.7c-0.4,0-0.7-0.3-0.7-0.7c0-0.4,0.3-0.7,0.7-0.7C29.5,0.2,29.8,0.5,29.8,0.9z
			 M28.4,7.5V2.4h1.3v5.1H28.4z"/>
		<path class="st0" d="M31,6.3c0.3,0.2,0.9,0.4,1.3,0.4c0.6,0,0.8-0.2,0.8-0.6c0-0.3-0.2-0.5-0.8-0.8c-1-0.3-1.4-0.9-1.4-1.5
			c0-0.9,0.7-1.6,1.9-1.6c0.6,0,1.1,0.1,1.4,0.3L34,3.5c-0.2-0.1-0.6-0.3-1.1-0.3c-0.5,0-0.7,0.2-0.7,0.5c0,0.3,0.2,0.5,0.9,0.7
			C34,4.8,34.4,5.2,34.4,6c0,0.9-0.7,1.6-2.1,1.6c-0.6,0-1.2-0.1-1.6-0.4L31,6.3z"/>
		<path class="st0" d="M42.4,0v6.1c0,0.5,0,1.1,0,1.4h-1.2l-0.1-0.8h0c-0.3,0.6-0.9,0.9-1.7,0.9c-1.2,0-2.2-1-2.2-2.6
			c0-1.7,1.1-2.7,2.3-2.7c0.7,0,1.2,0.3,1.4,0.7h0V0H42.4z M41.1,4.5c0-0.1,0-0.2,0-0.3C41,3.7,40.6,3.2,40,3.2
			c-0.8,0-1.3,0.7-1.3,1.7c0,0.9,0.5,1.6,1.3,1.6c0.5,0,1-0.4,1.1-0.9c0-0.1,0-0.2,0-0.4V4.5z"/>
		<path class="st0" d="M44.7,5.3c0,0.9,0.8,1.3,1.6,1.3c0.6,0,1-0.1,1.4-0.2l0.2,0.9c-0.4,0.2-1.1,0.3-1.8,0.3c-1.7,0-2.7-1-2.7-2.6
			c0-1.4,0.9-2.8,2.5-2.8c1.7,0,2.2,1.4,2.2,2.5c0,0.2,0,0.4,0,0.5H44.7z M47,4.4c0-0.5-0.2-1.3-1.1-1.3c-0.8,0-1.1,0.7-1.2,1.3H47z
			"/>
		<path class="st0" d="M49.3,0h1.3v7.5h-1.3V0z"/>
		<path class="st0" d="M57.9,7.3c-0.3,0.1-0.8,0.3-1.5,0.3c-1.6,0-2.7-1-2.7-2.6c0-1.5,1.1-2.7,2.9-2.7c0.5,0,1,0.1,1.3,0.2l-0.2,1
			c-0.2-0.1-0.5-0.2-1-0.2c-1,0-1.6,0.7-1.6,1.7c0,1.1,0.7,1.7,1.6,1.7c0.5,0,0.8-0.1,1-0.2L57.9,7.3z"/>
		<path class="st0" d="M63.7,4.9c0,1.9-1.3,2.7-2.6,2.7c-1.5,0-2.6-1-2.6-2.7c0-1.7,1.1-2.7,2.7-2.7C62.7,2.2,63.7,3.3,63.7,4.9z
			 M59.8,4.9c0,1,0.5,1.7,1.3,1.7c0.7,0,1.3-0.7,1.3-1.8c0-0.8-0.4-1.7-1.2-1.7C60.2,3.2,59.8,4.1,59.8,4.9z"/>
		<path class="st0" d="M64.8,3.9c0-0.6,0-1.1,0-1.5h1.1l0.1,0.8h0c0.3-0.4,0.7-0.9,1.6-0.9c0.7,0,1.2,0.4,1.4,1h0
			c0.2-0.3,0.4-0.5,0.6-0.6c0.3-0.2,0.6-0.3,1-0.3c0.9,0,1.7,0.6,1.7,2.2v3h-1.3V4.7c0-0.9-0.3-1.4-0.9-1.4c-0.4,0-0.8,0.3-0.9,0.7
			c0,0.1-0.1,0.3-0.1,0.4v3.1h-1.3v-3c0-0.7-0.3-1.2-0.9-1.2c-0.5,0-0.8,0.4-0.9,0.7C66.1,4.2,66,4.3,66,4.5v3h-1.3V3.9z"/>
		<path class="st0" d="M73.7,4.1c0-0.7,0-1.2,0-1.7h1.1l0.1,0.8h0c0.4-0.6,1-0.9,1.8-0.9c1.2,0,2.2,1,2.2,2.6c0,1.9-1.2,2.8-2.3,2.8
			c-0.6,0-1.2-0.3-1.4-0.7h0v2.7h-1.3V4.1z M75,5.3c0,0.1,0,0.2,0,0.4c0.1,0.5,0.6,0.9,1.1,0.9c0.8,0,1.3-0.7,1.3-1.7
			c0-0.9-0.4-1.6-1.3-1.6c-0.5,0-1,0.4-1.2,1c0,0.1-0.1,0.2-0.1,0.3V5.3z"/>
		<path class="st0" d="M84.8,4.9c0,1.9-1.3,2.7-2.6,2.7c-1.5,0-2.6-1-2.6-2.7c0-1.7,1.1-2.7,2.7-2.7C83.8,2.2,84.8,3.3,84.8,4.9z
			 M80.9,4.9c0,1,0.5,1.7,1.3,1.7c0.7,0,1.3-0.7,1.3-1.8c0-0.8-0.4-1.7-1.2-1.7C81.3,3.2,80.9,4.1,80.9,4.9z"/>
		<path class="st0" d="M85.9,3.9c0-0.6,0-1.1,0-1.5H87L87,3.1h0c0.2-0.4,0.8-0.9,1.6-0.9c0.9,0,1.8,0.6,1.8,2.2v3.1h-1.3V4.6
			c0-0.7-0.3-1.3-1-1.3c-0.5,0-0.9,0.4-1,0.8c0,0.1-0.1,0.3-0.1,0.4v3h-1.3V3.9z"/>
		<path class="st0" d="M92.8,5.3c0,0.9,0.8,1.3,1.6,1.3c0.6,0,1-0.1,1.4-0.2L96,7.3c-0.4,0.2-1.1,0.3-1.8,0.3c-1.7,0-2.7-1-2.7-2.6
			c0-1.4,0.9-2.8,2.5-2.8c1.7,0,2.2,1.4,2.2,2.5c0,0.2,0,0.4,0,0.5H92.8z M95.1,4.4c0-0.5-0.2-1.3-1.1-1.3c-0.8,0-1.1,0.7-1.2,1.3
			H95.1z"/>
		<path class="st0" d="M97.4,3.9c0-0.6,0-1.1,0-1.5h1.1l0.1,0.8h0c0.2-0.4,0.8-0.9,1.6-0.9c0.9,0,1.8,0.6,1.8,2.2v3.1h-1.3V4.6
			c0-0.7-0.3-1.3-1-1.3c-0.5,0-0.9,0.4-1,0.8c0,0.1-0.1,0.3-0.1,0.4v3h-1.3V3.9z"/>
		<path class="st0" d="M104.8,0.9v1.5h1.2v1h-1.2v2.3c0,0.6,0.2,1,0.7,1c0.2,0,0.4,0,0.5-0.1l0,1c-0.2,0.1-0.5,0.1-0.9,0.1
			c-0.5,0-0.9-0.2-1.1-0.4c-0.3-0.3-0.4-0.8-0.4-1.4V3.3h-0.7v-1h0.7V1.2L104.8,0.9z"/>
		<path class="st0" d="M107.9,5.3c0,0.9,0.8,1.3,1.6,1.3c0.6,0,1-0.1,1.4-0.2l0.2,0.9c-0.4,0.2-1.1,0.3-1.8,0.3
			c-1.7,0-2.7-1-2.7-2.6c0-1.4,0.9-2.8,2.5-2.8c1.7,0,2.2,1.4,2.2,2.5c0,0.2,0,0.4,0,0.5H107.9z M110.2,4.4c0-0.5-0.2-1.3-1.1-1.3
			c-0.8,0-1.1,0.7-1.2,1.3H110.2z"/>
		<path class="st0" d="M114.6,4.1c0-0.7,0-1.2,0-1.7h1.1l0.1,0.8h0c0.4-0.6,1-0.9,1.8-0.9c1.2,0,2.2,1,2.2,2.6
			c0,1.9-1.2,2.8-2.3,2.8c-0.6,0-1.2-0.3-1.4-0.7h0v2.7h-1.3V4.1z M115.9,5.3c0,0.1,0,0.2,0,0.4c0.1,0.5,0.6,0.9,1.1,0.9
			c0.8,0,1.3-0.7,1.3-1.7c0-0.9-0.4-1.6-1.3-1.6c-0.5,0-1,0.4-1.2,1c0,0.1-0.1,0.2-0.1,0.3V5.3z"/>
		<path class="st0" d="M120.8,4c0-0.7,0-1.2,0-1.7h1.1l0,1h0c0.3-0.7,0.9-1.1,1.4-1.1c0.1,0,0.2,0,0.3,0v1.2c-0.1,0-0.2,0-0.4,0
			c-0.6,0-1,0.4-1.2,1c0,0.1,0,0.3,0,0.4v2.7h-1.3V4z"/>
		<path class="st0" d="M126,0.9c0,0.4-0.3,0.7-0.7,0.7c-0.4,0-0.7-0.3-0.7-0.7c0-0.4,0.3-0.7,0.7-0.7C125.7,0.2,126,0.5,126,0.9z
			 M124.6,7.5V2.4h1.3v5.1H124.6z"/>
		<path class="st0" d="M127.3,3.9c0-0.6,0-1.1,0-1.5h1.1l0.1,0.8h0c0.2-0.4,0.8-0.9,1.6-0.9c0.9,0,1.8,0.6,1.8,2.2v3.1h-1.3V4.6
			c0-0.7-0.3-1.3-1-1.3c-0.5,0-0.9,0.4-1,0.8c0,0.1-0.1,0.3-0.1,0.4v3h-1.3V3.9z"/>
		<path class="st0" d="M137.1,7.3c-0.3,0.1-0.8,0.3-1.5,0.3c-1.6,0-2.7-1-2.7-2.6c0-1.5,1.1-2.7,2.9-2.7c0.5,0,1,0.1,1.3,0.2l-0.2,1
			c-0.2-0.1-0.5-0.2-1-0.2c-1,0-1.6,0.7-1.6,1.7c0,1.1,0.7,1.7,1.6,1.7c0.5,0,0.8-0.1,1-0.2L137.1,7.3z"/>
		<path class="st0" d="M139.5,0.9c0,0.4-0.3,0.7-0.7,0.7c-0.4,0-0.7-0.3-0.7-0.7c0-0.4,0.3-0.7,0.7-0.7
			C139.2,0.2,139.4,0.5,139.5,0.9z M138.1,7.5V2.4h1.3v5.1H138.1z"/>
		<path class="st0" d="M140.8,4.1c0-0.7,0-1.2,0-1.7h1.1l0.1,0.8h0c0.4-0.6,1-0.9,1.8-0.9c1.2,0,2.2,1,2.2,2.6
			c0,1.9-1.2,2.8-2.3,2.8c-0.6,0-1.2-0.3-1.4-0.7h0v2.7h-1.3V4.1z M142.1,5.3c0,0.1,0,0.2,0,0.4c0.1,0.5,0.6,0.9,1.1,0.9
			c0.8,0,1.3-0.7,1.3-1.7c0-0.9-0.4-1.6-1.3-1.6c-0.5,0-1,0.4-1.2,1c0,0.1-0.1,0.2-0.1,0.3V5.3z"/>
		<path class="st0" d="M149.8,7.5l-0.1-0.6h0c-0.3,0.4-0.9,0.7-1.5,0.7c-1,0-1.6-0.8-1.6-1.5c0-1.3,1.2-2,3.1-1.9V4.1
			c0-0.3-0.1-0.9-1-0.9c-0.5,0-1,0.2-1.4,0.4L147,2.7c0.4-0.2,1-0.5,1.9-0.5c1.6,0,2.1,1,2.1,2.2v1.9c0,0.5,0,0.9,0.1,1.2H149.8z
			 M149.7,5c-0.9,0-1.8,0.2-1.8,1c0,0.5,0.3,0.7,0.7,0.7c0.5,0,0.9-0.3,1-0.7c0-0.1,0-0.2,0-0.3V5z"/>
		<path class="st0" d="M152.3,0h1.3v7.5h-1.3V0z"/>
		<path class="st0" d="M158.1,0.7L157,2v0l1.6-0.3v0.9L157,2.5v0l1.1,1.3l-0.8,0.5l-0.6-1.6l0,0L156,4.2l-0.8-0.5l1.1-1.3v0
			l-1.6,0.3V1.8l1.6,0.3l0,0l-1.1-1.3l0.8-0.5l0.6,1.6h0l0.6-1.6L158.1,0.7z"/>
		<path class="st0" d="M166.6,0v6.1c0,0.5,0,1.1,0,1.4h-1.2l-0.1-0.8h0c-0.3,0.6-0.9,0.9-1.7,0.9c-1.2,0-2.2-1-2.2-2.6
			c0-1.7,1.1-2.7,2.3-2.7c0.7,0,1.2,0.3,1.4,0.7h0V0H166.6z M165.3,4.5c0-0.1,0-0.2,0-0.3c-0.1-0.5-0.5-0.9-1.1-0.9
			c-0.8,0-1.3,0.7-1.3,1.7c0,0.9,0.5,1.6,1.3,1.6c0.5,0,1-0.4,1.1-0.9c0-0.1,0-0.2,0-0.4V4.5z"/>
		<path class="st0" d="M168.9,5.3c0,0.9,0.8,1.3,1.6,1.3c0.6,0,1-0.1,1.4-0.2l0.2,0.9c-0.4,0.2-1.1,0.3-1.8,0.3
			c-1.7,0-2.7-1-2.7-2.6c0-1.4,0.9-2.8,2.5-2.8c1.7,0,2.2,1.4,2.2,2.5c0,0.2,0,0.4,0,0.5H168.9z M171.2,4.4c0-0.5-0.2-1.3-1.1-1.3
			c-0.8,0-1.1,0.7-1.2,1.3H171.2z"/>
		<path class="st0" d="M175.6,6.2c0.3,0.2,0.9,0.4,1.6,0.4c1,0,1.4-0.6,1.4-1.1c0-0.8-0.8-1.2-1.6-1.2h-0.6v-1h0.6
			c0.6,0,1.4-0.3,1.4-1c0-0.5-0.3-0.9-1.1-0.9c-0.6,0-1.1,0.2-1.4,0.4L175.6,1c0.4-0.3,1.2-0.5,2-0.5c1.4,0,2.1,0.8,2.1,1.7
			c0,0.7-0.4,1.3-1.3,1.6v0c0.8,0.1,1.5,0.8,1.5,1.7c0,1.2-1,2.1-2.7,2.1c-0.8,0-1.6-0.2-1.9-0.5L175.6,6.2z"/>
		<path class="st0" d="M181.6,6.6c0.2,0,0.4,0,0.7,0c0.5,0,1-0.2,1.4-0.5c0.4-0.4,0.8-0.9,0.9-1.5l0,0c-0.3,0.4-0.8,0.6-1.5,0.6
			c-1.2,0-2.1-0.9-2.1-2.1c0-1.3,1-2.4,2.5-2.4c1.6,0,2.5,1.3,2.5,2.9c0,1.5-0.5,2.5-1.2,3.2c-0.6,0.6-1.4,0.9-2.3,0.9
			c-0.3,0-0.6,0-0.8,0V6.6z M182.2,2.9c0,0.7,0.4,1.3,1.1,1.3c0.5,0,0.9-0.2,1.1-0.6c0-0.1,0.1-0.2,0.1-0.4c0-0.9-0.3-1.7-1.2-1.7
			C182.7,1.5,182.2,2.1,182.2,2.9z"/>
		<path class="st0" d="M191.4,0.6v0.8l-2.9,6h-1.4l2.9-5.8v0h-3.2V0.6H191.4z"/>
		<path class="st0" d="M194.8,0h1.3v7.5h-1.3V0z"/>
		<path class="st0" d="M202.4,4.9c0,1.9-1.3,2.7-2.6,2.7c-1.5,0-2.6-1-2.6-2.7c0-1.7,1.1-2.7,2.7-2.7C201.4,2.2,202.4,3.3,202.4,4.9
			z M198.5,4.9c0,1,0.5,1.7,1.3,1.7c0.7,0,1.3-0.7,1.3-1.8c0-0.8-0.4-1.7-1.2-1.7C198.9,3.2,198.5,4.1,198.5,4.9z"/>
		<path class="st0" d="M204.9,0.9v1.5h1.2v1h-1.2v2.3c0,0.6,0.2,1,0.7,1c0.2,0,0.4,0,0.5-0.1l0,1c-0.2,0.1-0.5,0.1-0.9,0.1
			c-0.5,0-0.9-0.2-1.1-0.4c-0.3-0.3-0.4-0.8-0.4-1.4V3.3h-0.7v-1h0.7V1.2L204.9,0.9z"/>
		<path class="st0" d="M208,5.3c0,0.9,0.8,1.3,1.6,1.3c0.6,0,1-0.1,1.4-0.2l0.2,0.9c-0.4,0.2-1.1,0.3-1.8,0.3c-1.7,0-2.7-1-2.7-2.6
			c0-1.4,0.9-2.8,2.5-2.8c1.7,0,2.2,1.4,2.2,2.5c0,0.2,0,0.4,0,0.5H208z M210.3,4.4c0-0.5-0.2-1.3-1.1-1.3c-0.8,0-1.1,0.7-1.2,1.3
			H210.3z"/>
		<path class="st0" d="M212.5,6.3c0.3,0.2,0.9,0.4,1.3,0.4c0.6,0,0.8-0.2,0.8-0.6c0-0.3-0.2-0.5-0.8-0.8c-1-0.3-1.4-0.9-1.4-1.5
			c0-0.9,0.8-1.6,1.9-1.6c0.6,0,1.1,0.1,1.4,0.3l-0.3,0.9c-0.2-0.1-0.6-0.3-1.1-0.3c-0.5,0-0.7,0.2-0.7,0.5c0,0.3,0.2,0.5,0.9,0.7
			c0.9,0.3,1.4,0.8,1.4,1.6c0,0.9-0.7,1.6-2.1,1.6c-0.6,0-1.2-0.1-1.6-0.4L212.5,6.3z"/>
		<path class="st0" d="M223.9,0v6.1c0,0.5,0,1.1,0,1.4h-1.2l-0.1-0.8h0c-0.3,0.6-0.9,0.9-1.7,0.9c-1.2,0-2.2-1-2.2-2.6
			c0-1.7,1.1-2.7,2.3-2.7c0.7,0,1.2,0.3,1.4,0.7h0V0H223.9z M222.6,4.5c0-0.1,0-0.2,0-0.3c-0.1-0.5-0.5-0.9-1.1-0.9
			c-0.8,0-1.3,0.7-1.3,1.7c0,0.9,0.5,1.6,1.3,1.6c0.5,0,1-0.4,1.1-0.9c0-0.1,0-0.2,0-0.4V4.5z"/>
		<path class="st0" d="M226.2,5.3c0,0.9,0.8,1.3,1.6,1.3c0.6,0,1-0.1,1.4-0.2l0.2,0.9c-0.4,0.2-1.1,0.3-1.8,0.3
			c-1.7,0-2.7-1-2.7-2.6c0-1.4,0.9-2.8,2.5-2.8c1.7,0,2.2,1.4,2.2,2.5c0,0.2,0,0.4,0,0.5H226.2z M228.5,4.4c0-0.5-0.2-1.3-1.1-1.3
			c-0.8,0-1.1,0.7-1.2,1.3H228.5z"/>
		<path class="st0" d="M237,4.3h-2.7v2.1h3v1.1H233V0.4h4.1v1.1h-2.8v1.8h2.7V4.3z"/>
		<path class="st0" d="M244.1,7.2c-0.5,0.2-1.3,0.4-2.3,0.4c-1.2,0-2.1-0.3-2.8-1c-0.6-0.6-1-1.5-1-2.6c0-2.2,1.6-3.7,4-3.7
			c0.9,0,1.6,0.2,1.9,0.3l-0.3,1c-0.4-0.2-0.9-0.3-1.6-0.3c-1.5,0-2.6,0.9-2.6,2.6c0,1.6,1,2.6,2.5,2.6c0.5,0,0.8-0.1,1-0.1V4.6
			h-1.3v-1h2.5V7.2z"/>
		<path class="st0" d="M245.4,7.5c0-0.3,0-0.9,0-1.4V0h1.3v3.1h0c0.3-0.5,0.9-0.8,1.6-0.8c1.3,0,2.2,1,2.1,2.6
			c0,1.8-1.2,2.8-2.3,2.8c-0.7,0-1.3-0.3-1.6-0.9h0l-0.1,0.8H245.4z M246.7,5.4c0,0.1,0,0.2,0,0.3c0.1,0.5,0.6,0.9,1.2,0.9
			c0.8,0,1.3-0.7,1.3-1.7c0-0.9-0.4-1.6-1.3-1.6c-0.5,0-1,0.4-1.2,1c0,0.1,0,0.2,0,0.3V5.4z"/>
		<path class="st0" d="M258.3,0.6v0.8l-2.9,6H254l2.9-5.8v0h-3.2V0.6H258.3z"/>
		<path class="st0" d="M263.4,1.6c-0.2,0-0.4,0-0.7,0c-1.4,0.2-2.1,1.1-2.3,2h0c0.3-0.4,0.9-0.7,1.5-0.7c1.2,0,2.1,0.8,2.1,2.2
			c0,1.3-1,2.5-2.4,2.5c-1.7,0-2.6-1.3-2.6-3c0-1.3,0.5-2.4,1.2-3.1c0.6-0.6,1.5-0.9,2.4-1c0.3,0,0.5,0,0.7,0L263.4,1.6z M262.8,5.2
			c0-0.8-0.4-1.4-1.2-1.4c-0.5,0-0.9,0.3-1.1,0.7c-0.1,0.1-0.1,0.2-0.1,0.4c0,0.9,0.5,1.6,1.3,1.6C262.3,6.6,262.8,6.1,262.8,5.2z"
			/>
		<path class="st0" d="M266.9,1.8L266.9,1.8l-1.3,0.6l-0.2-1l1.7-0.8h1.1v6.9h-1.3V1.8z"/>
		<path class="st0" d="M274.2,2c0,1-0.8,1.8-1.8,1.8c-1,0-1.8-0.8-1.8-1.8c0-1,0.8-1.8,1.8-1.8C273.4,0.3,274.2,1.1,274.2,2z
			 M271.1,2c0,0.8,0.6,1.4,1.3,1.4c0.8,0,1.3-0.6,1.3-1.4c0-0.8-0.6-1.4-1.3-1.4C271.6,0.7,271.1,1.3,271.1,2z M272.2,2.9h-0.5V1.2
			c0.1,0,0.4-0.1,0.7-0.1c0.4,0,0.5,0.1,0.6,0.1c0.1,0.1,0.2,0.2,0.2,0.4c0,0.2-0.2,0.3-0.4,0.4v0c0.2,0.1,0.3,0.2,0.3,0.4
			c0.1,0.3,0.1,0.3,0.1,0.4h-0.5c-0.1-0.1-0.1-0.2-0.1-0.4c0-0.2-0.1-0.3-0.3-0.3h-0.2V2.9z M272.2,2h0.2c0.2,0,0.3-0.1,0.3-0.2
			c0-0.1-0.1-0.2-0.3-0.2c-0.1,0-0.1,0-0.2,0V2z"/>
	</g>
	<g>
		<path class="st0" d="M279.8,5.3c0,0.9,0.8,1.3,1.6,1.3c0.6,0,1-0.1,1.4-0.2l0.2,0.9c-0.4,0.2-1.1,0.3-1.8,0.3
			c-1.7,0-2.7-1-2.7-2.6c0-1.4,0.9-2.8,2.5-2.8c1.7,0,2.2,1.4,2.2,2.5c0,0.2,0,0.4,0,0.5H279.8z M282.1,4.4c0-0.5-0.2-1.3-1.1-1.3
			c-0.8,0-1.1,0.7-1.2,1.3H282.1z"/>
		<path class="st0" d="M284.4,3.9c0-0.6,0-1.1,0-1.5h1.1l0.1,0.8h0c0.2-0.4,0.8-0.9,1.6-0.9c0.9,0,1.8,0.6,1.8,2.2v3.1h-1.3V4.6
			c0-0.7-0.3-1.3-1-1.3c-0.5,0-0.9,0.4-1,0.8c0,0.1-0.1,0.3-0.1,0.4v3h-1.3V3.9z"/>
		<path class="st0" d="M294.4,1.8L294.4,1.8l-1.3,0.6l-0.2-1l1.7-0.8h1.1v6.9h-1.3V1.8z"/>
		<path class="st0" d="M302.8,4c0,2.2-0.9,3.6-2.5,3.6c-1.6,0-2.4-1.4-2.4-3.5c0-2.1,0.9-3.6,2.5-3.6C302.1,0.5,302.8,2,302.8,4z
			 M299.2,4.1c0,1.7,0.5,2.5,1.2,2.5c0.8,0,1.2-0.9,1.2-2.6c0-1.6-0.4-2.5-1.2-2.5C299.7,1.5,299.2,2.4,299.2,4.1z"/>
		<path class="st0" d="M309,7.5l-0.1-0.6h0c-0.3,0.4-0.9,0.7-1.5,0.7c-1,0-1.6-0.8-1.6-1.5c0-1.3,1.2-2,3.1-1.9V4.1
			c0-0.3-0.1-0.9-1-0.9c-0.5,0-1,0.2-1.4,0.4l-0.3-0.8c0.4-0.2,1-0.5,1.9-0.5c1.6,0,2.1,1,2.1,2.2v1.9c0,0.5,0,0.9,0.1,1.2H309z
			 M308.8,5c-0.9,0-1.8,0.2-1.8,1c0,0.5,0.3,0.7,0.7,0.7c0.5,0,0.9-0.3,1-0.7c0-0.1,0-0.2,0-0.3V5z"/>
		<path class="st0" d="M311.5,3.9c0-0.6,0-1.1,0-1.5h1.1l0.1,0.8h0c0.2-0.4,0.8-0.9,1.6-0.9c0.9,0,1.8,0.6,1.8,2.2v3.1h-1.3V4.6
			c0-0.7-0.3-1.3-1-1.3c-0.5,0-0.9,0.4-1,0.8c0,0.1-0.1,0.3-0.1,0.4v3h-1.3V3.9z M312.4,1.6c0-0.8,0.3-1.3,0.8-1.3
			c0.3,0,0.5,0.1,0.7,0.2c0.2,0.1,0.3,0.2,0.4,0.2c0.2,0,0.3-0.1,0.3-0.5h0.6c0,0.8-0.3,1.2-0.8,1.2c-0.3,0-0.5-0.1-0.7-0.2
			c-0.2-0.1-0.3-0.2-0.4-0.2c-0.2,0-0.3,0.2-0.3,0.5H312.4z"/>
		<path class="st0" d="M322.4,4.9c0,1.9-1.3,2.7-2.6,2.7c-1.5,0-2.6-1-2.6-2.7c0-1.7,1.1-2.7,2.7-2.7C321.4,2.2,322.4,3.3,322.4,4.9
			z M318.5,4.9c0,1,0.5,1.7,1.3,1.7c0.7,0,1.3-0.7,1.3-1.8c0-0.8-0.4-1.7-1.2-1.7C318.9,3.2,318.5,4.1,318.5,4.9z"/>
		<path class="st0" d="M323.4,6.3c0.3,0.2,0.9,0.4,1.3,0.4c0.6,0,0.8-0.2,0.8-0.6c0-0.3-0.2-0.5-0.8-0.8c-1-0.3-1.4-0.9-1.4-1.5
			c0-0.9,0.7-1.6,1.9-1.6c0.6,0,1.1,0.1,1.4,0.3l-0.3,0.9c-0.2-0.1-0.6-0.3-1.1-0.3c-0.5,0-0.7,0.2-0.7,0.5c0,0.3,0.2,0.5,0.9,0.7
			c0.9,0.3,1.4,0.8,1.4,1.6c0,0.9-0.7,1.6-2.1,1.6c-0.6,0-1.2-0.1-1.6-0.4L323.4,6.3z"/>
	</g>
</g>
</svg>
