<!-- Generator: Adobe Illustrator 20.1.0, SVG Export Plug-In  -->
<svg version="1.1"
	 xmlns="http://www.w3.org/2000/svg" xmlns:xlink="http://www.w3.org/1999/xlink" xmlns:a="http://ns.adobe.com/AdobeSVGViewerExtensions/3.0/"
	 x="0px" y="0px" width="130px" height="67px" viewBox="0 0 130 67" style="overflow:scroll;enable-background:new 0 0 130 67;"
	 xml:space="preserve">
<style type="text/css">
	.st0{fill:#58595B;}
	.st1{fill:#D51D70;}
</style>
<defs>
</defs>
<g>
	<path class="st0" d="M2.7,7.1L2.1,9.4H0l2.7-8.9h2.6l2.8,8.9H6L5.3,7.1H2.7z M5,5.6L4.4,3.7C4.3,3.2,4.1,2.5,4,2h0
		C3.8,2.5,3.7,3.2,3.5,3.7L3,5.6H5z"/>
	<path class="st0" d="M9.4,0h2v9.4h-2V0z"/>
	<path class="st0" d="M15.4,1.1v1.8h1.4v1.5h-1.4v2.3c0,0.8,0.2,1.1,0.8,1.1c0.3,0,0.4,0,0.6-0.1l0,1.5c-0.3,0.1-0.7,0.2-1.3,0.2
		c-0.6,0-1.2-0.2-1.5-0.6c-0.4-0.4-0.6-1-0.6-1.9V4.4h-0.9V2.9h0.9V1.5L15.4,1.1z"/>
	<path class="st0" d="M21.9,9.4l-0.1-0.6h0c-0.4,0.5-1.1,0.8-1.8,0.8c-1.3,0-2.1-1-2.1-2c0-1.7,1.5-2.5,3.8-2.5V5
		c0-0.3-0.2-0.8-1.2-0.8c-0.7,0-1.4,0.2-1.8,0.5l-0.4-1.3c0.4-0.3,1.3-0.6,2.5-0.6c2.2,0,2.8,1.3,2.8,2.8v2.2c0,0.6,0,1.2,0.1,1.6
		H21.9z M21.6,6.3c-1.1,0-1.9,0.2-1.9,1c0,0.5,0.3,0.8,0.8,0.8c0.5,0,0.9-0.3,1-0.7c0-0.1,0-0.2,0-0.3V6.3z"/>
	<path class="st0" d="M28.2,5.1c0-0.8,0-1.6-0.1-2.2h1.7L30,3.8h0c0.5-0.7,1.2-1,2.2-1c1.4,0,2.7,1.2,2.7,3.3c0,2.4-1.5,3.5-2.9,3.5
		c-0.8,0-1.4-0.3-1.7-0.7h0V12h-2V5.1z M30.2,6.6c0,0.2,0,0.3,0,0.4c0.1,0.5,0.6,1,1.2,1c0.9,0,1.4-0.7,1.4-1.8c0-1-0.5-1.8-1.4-1.8
		c-0.6,0-1.1,0.4-1.2,1c0,0.1,0,0.2,0,0.4V6.6z"/>
	<path class="st0" d="M36.2,5c0-1,0-1.6-0.1-2.1h1.7L38,4.1H38c0.3-0.9,1.1-1.3,1.7-1.3c0.2,0,0.3,0,0.4,0v1.9
		c-0.1,0-0.3-0.1-0.5-0.1c-0.7,0-1.2,0.4-1.4,1c0,0.1,0,0.3,0,0.4v3.3h-2V5z"/>
	<path class="st0" d="M43,6.8C43,7.6,43.8,8,44.8,8c0.7,0,1.2-0.1,1.8-0.3l0.3,1.4c-0.7,0.3-1.5,0.4-2.3,0.4c-2.2,0-3.4-1.3-3.4-3.3
		c0-1.6,1-3.4,3.3-3.4c2.1,0,2.9,1.6,2.9,3.2c0,0.3,0,0.6-0.1,0.8H43z M45.3,5.4c0-0.5-0.2-1.3-1.1-1.3c-0.8,0-1.2,0.8-1.2,1.3H45.3
		z"/>
	<path class="st0" d="M50,2.9l0.9,3c0.2,0.5,0.3,1.1,0.4,1.6h0c0.1-0.5,0.2-1,0.4-1.6l0.8-3h2.1l-2.4,6.5h-2l-2.4-6.5H50z"/>
	<path class="st0" d="M59.4,9.4l-0.1-0.6h0c-0.4,0.5-1.1,0.8-1.8,0.8c-1.3,0-2.1-1-2.1-2c0-1.7,1.5-2.5,3.8-2.5V5
		c0-0.3-0.2-0.8-1.2-0.8c-0.7,0-1.4,0.2-1.8,0.5l-0.4-1.3c0.4-0.3,1.3-0.6,2.5-0.6c2.2,0,2.8,1.3,2.8,2.8v2.2c0,0.6,0,1.2,0.1,1.6
		H59.4z M59.1,6.3c-1.1,0-1.9,0.2-1.9,1c0,0.5,0.3,0.8,0.8,0.8c0.5,0,0.9-0.3,1-0.7c0-0.1,0-0.2,0-0.3V6.3z"/>
	<path class="st0" d="M62.8,0h2v9.4h-2V0z"/>
	<path class="st0" d="M68.2,6.8C68.3,7.6,69.1,8,70,8c0.7,0,1.2-0.1,1.8-0.3l0.3,1.4c-0.7,0.3-1.5,0.4-2.3,0.4
		c-2.2,0-3.4-1.3-3.4-3.3c0-1.6,1-3.4,3.3-3.4c2.1,0,2.9,1.6,2.9,3.2c0,0.3,0,0.6-0.1,0.8H68.2z M70.6,5.4c0-0.5-0.2-1.3-1.1-1.3
		c-0.8,0-1.2,0.8-1.2,1.3H70.6z"/>
	<path class="st0" d="M73.8,5c0-0.8,0-1.5-0.1-2.1h1.7l0.1,0.9h0c0.3-0.4,0.9-1,2-1c1.3,0,2.3,0.9,2.3,2.8v3.8h-2V5.8
		c0-0.8-0.3-1.4-1-1.4c-0.6,0-0.9,0.4-1,0.8c-0.1,0.1-0.1,0.3-0.1,0.5v3.7h-2V5z"/>
	<path class="st0" d="M86.5,9.2c-0.4,0.2-1,0.3-1.8,0.3c-2.1,0-3.4-1.3-3.4-3.3c0-1.9,1.3-3.4,3.7-3.4c0.5,0,1.1,0.1,1.5,0.3
		l-0.3,1.5c-0.2-0.1-0.6-0.2-1.1-0.2c-1.1,0-1.7,0.8-1.7,1.8c0,1.2,0.8,1.8,1.8,1.8c0.5,0,0.8-0.1,1.1-0.2L86.5,9.2z"/>
	<path class="st0" d="M89.9,1.1c0,0.6-0.4,1-1.1,1c-0.6,0-1.1-0.4-1-1c0-0.6,0.4-1,1.1-1C89.5,0.1,89.9,0.5,89.9,1.1z M87.8,9.4V2.9
		h2v6.5H87.8z"/>
	<path class="st0" d="M95.3,9.4l-0.1-0.6h0c-0.4,0.5-1.1,0.8-1.8,0.8c-1.3,0-2.1-1-2.1-2c0-1.7,1.5-2.5,3.8-2.5V5
		c0-0.3-0.2-0.8-1.2-0.8c-0.7,0-1.4,0.2-1.8,0.5l-0.4-1.3c0.4-0.3,1.3-0.6,2.5-0.6C96.3,2.8,97,4,97,5.6v2.2c0,0.6,0,1.2,0.1,1.6
		H95.3z M95,6.3c-1.1,0-1.9,0.2-1.9,1c0,0.5,0.3,0.8,0.8,0.8c0.5,0,0.9-0.3,1-0.7c0-0.1,0-0.2,0-0.3V6.3z"/>
	<path class="st0" d="M107.4,0v7.7c0,0.6,0,1.2,0.1,1.7h-1l-0.1-1.1h0c-0.4,0.7-1.1,1.3-2.2,1.3c-1.5,0-2.7-1.3-2.7-3.3
		c0-2.1,1.3-3.4,2.9-3.4c1,0,1.6,0.5,1.9,1h0V0H107.4z M106.2,5.6c0-0.1,0-0.3-0.1-0.5c-0.2-0.7-0.8-1.3-1.7-1.3
		c-1.2,0-1.9,1.1-1.9,2.5c0,1.3,0.6,2.4,1.9,2.4c0.8,0,1.5-0.5,1.7-1.4c0-0.2,0.1-0.3,0.1-0.5V5.6z"/>
	<path class="st0" d="M110.1,6.4c0,1.6,1,2.2,2.2,2.2c0.8,0,1.3-0.1,1.8-0.3l0.2,0.8c-0.4,0.2-1.1,0.4-2.1,0.4c-2,0-3.1-1.3-3.1-3.2
		c0-1.9,1.1-3.4,3-3.4c2.1,0,2.6,1.8,2.6,3c0,0.2,0,0.4,0,0.5H110.1z M113.5,5.6c0-0.7-0.3-1.9-1.6-1.9c-1.2,0-1.7,1.1-1.8,1.9
		H113.5z"/>
	<path class="st0" d="M116.2,0h1.2v9.4h-1.2V0z"/>
	<path class="st1" d="M6.8,19.2v7.5c0,0.7,0,1.5,0.1,1.9H5.1l-0.1-1h0c-0.4,0.7-1.2,1.1-2,1.1c-1.5,0-2.8-1.3-2.8-3.3
		c0-2.2,1.3-3.4,2.9-3.4c0.8,0,1.4,0.3,1.7,0.7h0v-3.5H6.8z M4.8,24.8c0-0.1,0-0.3,0-0.4c-0.1-0.5-0.6-1-1.2-1
		c-0.9,0-1.4,0.8-1.4,1.8c0,1.1,0.5,1.8,1.4,1.8c0.6,0,1-0.4,1.2-1c0-0.1,0.1-0.3,0.1-0.5V24.8z"/>
	<path class="st1" d="M10,26c0.1,0.8,0.9,1.2,1.8,1.2c0.7,0,1.2-0.1,1.8-0.3l0.3,1.4c-0.7,0.3-1.5,0.4-2.3,0.4
		c-2.2,0-3.4-1.3-3.4-3.3c0-1.6,1-3.4,3.3-3.4c2.1,0,2.9,1.6,2.9,3.2c0,0.3,0,0.6-0.1,0.8H10z M12.4,24.6c0-0.5-0.2-1.3-1.1-1.3
		c-0.8,0-1.2,0.8-1.2,1.3H12.4z"/>
	<path class="st1" d="M17.7,20.2v1.8h1.4v1.5h-1.4v2.3c0,0.8,0.2,1.1,0.8,1.1c0.3,0,0.4,0,0.6-0.1l0,1.5c-0.3,0.1-0.7,0.2-1.3,0.2
		c-0.6,0-1.2-0.2-1.5-0.6c-0.4-0.4-0.6-1-0.6-1.9v-2.6h-0.9v-1.5h0.9v-1.4L17.7,20.2z"/>
	<path class="st1" d="M21.8,26c0.1,0.8,0.9,1.2,1.8,1.2c0.7,0,1.2-0.1,1.8-0.3l0.3,1.4c-0.7,0.3-1.5,0.4-2.3,0.4
		c-2.2,0-3.4-1.3-3.4-3.3c0-1.6,1-3.4,3.3-3.4c2.1,0,2.9,1.6,2.9,3.2c0,0.3,0,0.6-0.1,0.8H21.8z M24.2,24.6c0-0.5-0.2-1.3-1.1-1.3
		c-0.8,0-1.2,0.8-1.2,1.3H24.2z"/>
	<path class="st1" d="M27.3,24.2c0-1,0-1.6-0.1-2.1h1.7l0.1,1.2h0.1c0.3-0.9,1.1-1.3,1.7-1.3c0.2,0,0.3,0,0.4,0v1.9
		c-0.1,0-0.3-0.1-0.5-0.1c-0.7,0-1.2,0.4-1.4,1c0,0.1,0,0.3,0,0.4v3.3h-2V24.2z"/>
	<path class="st1" d="M34.4,20.3c0,0.6-0.4,1-1.1,1c-0.6,0-1.1-0.4-1-1c0-0.6,0.4-1,1.1-1S34.3,19.7,34.4,20.3z M32.3,28.5v-6.5h2
		v6.5H32.3z"/>
	<path class="st1" d="M42.3,25.2c0,2.4-1.7,3.4-3.4,3.4c-1.9,0-3.3-1.2-3.3-3.3s1.4-3.4,3.4-3.4C41,21.9,42.3,23.3,42.3,25.2z
		 M37.6,25.3c0,1.1,0.5,1.9,1.3,1.9c0.8,0,1.3-0.8,1.3-1.9c0-1-0.4-1.9-1.3-1.9C38,23.4,37.6,24.4,37.6,25.3z"/>
	<path class="st1" d="M43.5,24.2c0-1,0-1.6-0.1-2.1h1.7l0.1,1.2h0.1c0.3-0.9,1.1-1.3,1.7-1.3c0.2,0,0.3,0,0.4,0v1.9
		c-0.1,0-0.3-0.1-0.5-0.1c-0.7,0-1.2,0.4-1.4,1c0,0.1,0,0.3,0,0.4v3.3h-2V24.2z"/>
	<path class="st1" d="M54.9,25.2c0,2.4-1.7,3.4-3.4,3.4c-1.9,0-3.3-1.2-3.3-3.3s1.4-3.4,3.4-3.4C53.6,21.9,54.9,23.3,54.9,25.2z
		 M50.3,25.3c0,1.1,0.5,1.9,1.3,1.9c0.8,0,1.3-0.8,1.3-1.9c0-1-0.4-1.9-1.3-1.9C50.6,23.4,50.3,24.4,50.3,25.3z"/>
	<path class="st1" d="M63.7,28.4c-0.4,0.2-1,0.3-1.8,0.3c-2.1,0-3.4-1.3-3.4-3.3c0-1.9,1.3-3.4,3.7-3.4c0.5,0,1.1,0.1,1.5,0.3
		l-0.3,1.5c-0.2-0.1-0.6-0.2-1.1-0.2c-1.1,0-1.7,0.8-1.7,1.8c0,1.2,0.8,1.8,1.8,1.8c0.5,0,0.8-0.1,1.1-0.2L63.7,28.4z"/>
	<path class="st1" d="M71.2,25.2c0,2.4-1.7,3.4-3.4,3.4c-1.9,0-3.3-1.2-3.3-3.3s1.4-3.4,3.4-3.4C69.9,21.9,71.2,23.3,71.2,25.2z
		 M66.5,25.3c0,1.1,0.5,1.9,1.3,1.9c0.8,0,1.3-0.8,1.3-1.9c0-1-0.4-1.9-1.3-1.9C66.9,23.4,66.5,24.4,66.5,25.3z"/>
	<path class="st1" d="M78.6,22.1c0,0.4-0.1,1-0.1,1.9v3.6c0,1.2-0.3,2.3-1,2.9c-0.7,0.6-1.7,0.8-2.6,0.8c-0.8,0-1.7-0.2-2.3-0.5
		l0.4-1.5c0.4,0.2,1.1,0.5,1.9,0.5c1,0,1.7-0.5,1.7-1.7v-0.4h0c-0.4,0.5-1,0.8-1.7,0.8c-1.6,0-2.7-1.3-2.7-3.2
		c0-2.1,1.3-3.4,2.9-3.4c0.9,0,1.4,0.4,1.8,0.9h0l0.1-0.8H78.6z M76.5,24.7c0-0.1,0-0.3,0-0.4c-0.1-0.5-0.5-0.9-1.1-0.9
		c-0.7,0-1.3,0.7-1.3,1.8c0,1,0.5,1.7,1.3,1.7c0.5,0,0.9-0.3,1.1-0.8c0.1-0.1,0.1-0.4,0.1-0.5V24.7z"/>
	<path class="st1" d="M80.2,24.1c0-0.8,0-1.5-0.1-2.1h1.7l0.1,0.9h0c0.3-0.4,0.9-1,2-1c1.3,0,2.3,0.9,2.3,2.8v3.8h-2V25
		c0-0.8-0.3-1.4-1-1.4c-0.6,0-0.9,0.4-1,0.8c-0.1,0.1-0.1,0.3-0.1,0.5v3.7h-2V24.1z"/>
	<path class="st1" d="M90,20.3c0,0.6-0.4,1-1.1,1c-0.6,0-1.1-0.4-1-1c0-0.6,0.4-1,1.1-1C89.6,19.3,90,19.7,90,20.3z M87.9,28.5v-6.5
		h2v6.5H87.9z"/>
	<path class="st1" d="M93.8,20.2v1.8h1.4v1.5h-1.4v2.3c0,0.8,0.2,1.1,0.8,1.1c0.3,0,0.4,0,0.6-0.1l0,1.5c-0.3,0.1-0.7,0.2-1.3,0.2
		c-0.6,0-1.2-0.2-1.5-0.6c-0.4-0.4-0.6-1-0.6-1.9v-2.6h-0.9v-1.5h0.9v-1.4L93.8,20.2z"/>
	<path class="st1" d="M98.4,20.3c0,0.6-0.4,1-1.1,1c-0.6,0-1.1-0.4-1-1c0-0.6,0.4-1,1.1-1S98.4,19.7,98.4,20.3z M96.4,28.5v-6.5h2
		v6.5H96.4z"/>
	<path class="st1" d="M101.5,22.1l0.9,3c0.2,0.5,0.3,1.1,0.4,1.6h0c0.1-0.5,0.2-1,0.4-1.6l0.8-3h2.1l-2.4,6.5h-2l-2.4-6.5H101.5z"/>
	<path class="st1" d="M113.4,25.2c0,2.4-1.7,3.4-3.4,3.4c-1.9,0-3.3-1.2-3.3-3.3s1.4-3.4,3.4-3.4C112.1,21.9,113.4,23.3,113.4,25.2z
		 M108.7,25.3c0,1.1,0.5,1.9,1.3,1.9c0.8,0,1.3-0.8,1.3-1.9c0-1-0.4-1.9-1.3-1.9C109.1,23.4,108.7,24.4,108.7,25.3z"/>
	<path class="st0" d="M118.4,25.6c0,1.6,1,2.2,2.2,2.2c0.8,0,1.3-0.1,1.8-0.3l0.2,0.8c-0.4,0.2-1.1,0.4-2.1,0.4
		c-2,0-3.1-1.3-3.1-3.2c0-1.9,1.1-3.4,3-3.4c2.1,0,2.6,1.8,2.6,3c0,0.2,0,0.4,0,0.5H118.4z M121.8,24.7c0-0.7-0.3-1.9-1.6-1.9
		c-1.2,0-1.7,1.1-1.8,1.9H121.8z"/>
	<path class="st0" d="M124.5,23.9c0-0.7,0-1.2-0.1-1.7h1l0.1,1.1h0c0.3-0.6,1.1-1.2,2.1-1.2c0.9,0,2.3,0.5,2.3,2.7v3.8h-1.2v-3.7
		c0-1-0.4-1.9-1.5-1.9c-0.8,0-1.4,0.5-1.6,1.2c-0.1,0.1-0.1,0.3-0.1,0.5v3.8h-1.2V23.9z"/>
	<path class="st0" d="M0.7,38.3h1.2v9.4H0.7V38.3z"/>
	<path class="st0" d="M7.6,47.7l-0.1-0.8h0c-0.4,0.5-1,1-2,1c-1.3,0-2-0.9-2-1.8c0-1.5,1.4-2.4,3.8-2.4v-0.1C7.4,43,7.2,42,5.9,42
		c-0.6,0-1.2,0.2-1.7,0.5L4,41.7c0.5-0.3,1.3-0.6,2.1-0.6c2,0,2.4,1.3,2.4,2.6v2.4c0,0.6,0,1.1,0.1,1.5H7.6z M7.4,44.4
		c-1.3,0-2.7,0.2-2.7,1.4c0,0.8,0.5,1.1,1.1,1.1c0.8,0,1.4-0.5,1.5-1.1c0-0.1,0.1-0.3,0.1-0.4V44.4z"/>
	<path class="st0" d="M13.5,43.4c0-0.8,0-1.5-0.1-2.1h1l0.1,1.1h0c0.5-0.8,1.2-1.2,2.3-1.2c1.5,0,2.7,1.3,2.7,3.3
		c0,2.3-1.4,3.4-2.9,3.4c-0.8,0-1.6-0.4-2-1h0v3.5h-1.1V43.4z M14.7,45.1c0,0.2,0,0.3,0.1,0.5c0.2,0.8,0.9,1.4,1.7,1.4
		c1.2,0,1.9-1,1.9-2.5c0-1.3-0.7-2.4-1.9-2.4c-0.8,0-1.5,0.6-1.8,1.4c0,0.1-0.1,0.3-0.1,0.5V45.1z"/>
	<path class="st0" d="M27,44.5c0,2.4-1.6,3.4-3.2,3.4c-1.7,0-3.1-1.3-3.1-3.3c0-2.1,1.4-3.4,3.2-3.4C25.7,41.2,27,42.5,27,44.5z
		 M21.9,44.5c0,1.4,0.8,2.5,1.9,2.5c1.1,0,1.9-1,1.9-2.5c0-1.1-0.5-2.5-1.9-2.5C22.5,42,21.9,43.3,21.9,44.5z"/>
	<path class="st0" d="M28.5,47.7c0-0.4,0.1-1.1,0.1-1.7v-7.7h1.1v4h0c0.4-0.7,1.1-1.2,2.2-1.2c1.6,0,2.7,1.3,2.7,3.3
		c0,2.3-1.4,3.4-2.9,3.4c-0.9,0-1.7-0.4-2.1-1.2h0l-0.1,1.1H28.5z M29.7,45.1c0,0.1,0,0.3,0.1,0.4c0.2,0.8,0.9,1.4,1.7,1.4
		c1.2,0,1.9-1,1.9-2.5c0-1.3-0.7-2.4-1.9-2.4c-0.8,0-1.5,0.5-1.8,1.4c0,0.1-0.1,0.3-0.1,0.5V45.1z"/>
	<path class="st0" d="M36.3,38.3h1.2v9.4h-1.2V38.3z"/>
	<path class="st0" d="M43.1,47.7L43,46.9h0c-0.4,0.5-1,1-2,1c-1.3,0-2-0.9-2-1.8c0-1.5,1.4-2.4,3.8-2.4v-0.1c0-0.5-0.1-1.5-1.5-1.5
		c-0.6,0-1.2,0.2-1.7,0.5l-0.3-0.8c0.5-0.3,1.3-0.6,2.1-0.6c2,0,2.4,1.3,2.4,2.6v2.4c0,0.6,0,1.1,0.1,1.5H43.1z M42.9,44.4
		c-1.3,0-2.7,0.2-2.7,1.4c0,0.8,0.5,1.1,1.1,1.1c0.8,0,1.4-0.5,1.5-1.1c0-0.1,0.1-0.3,0.1-0.4V44.4z"/>
	<path class="st0" d="M50.6,47.5c-0.3,0.2-1,0.4-1.8,0.4c-1.9,0-3.2-1.3-3.2-3.3c0-2,1.3-3.4,3.4-3.4c0.7,0,1.3,0.2,1.6,0.3
		l-0.3,0.9c-0.3-0.2-0.7-0.3-1.3-0.3c-1.5,0-2.3,1.1-2.3,2.4c0,1.5,1,2.4,2.2,2.4c0.7,0,1.1-0.2,1.4-0.3L50.6,47.5z"/>
	<path class="st0" d="M53.5,39.5c0,0.4-0.3,0.7-0.7,0.7c-0.4,0-0.7-0.3-0.7-0.7c0-0.4,0.3-0.7,0.7-0.7
		C53.2,38.8,53.5,39.1,53.5,39.5z M52.2,47.7v-6.4h1.2v6.4H52.2z"/>
	<path class="st0" d="M61.2,44.5c0,2.4-1.6,3.4-3.2,3.4c-1.7,0-3.1-1.3-3.1-3.3c0-2.1,1.4-3.4,3.2-3.4C60,41.2,61.2,42.5,61.2,44.5z
		 M56.1,44.5c0,1.4,0.8,2.5,1.9,2.5c1.1,0,1.9-1,1.9-2.5c0-1.1-0.5-2.5-1.9-2.5C56.7,42,56.1,43.3,56.1,44.5z M59.8,38.5l-1.6,1.9
		h-0.8l1.2-1.9H59.8z"/>
	<path class="st0" d="M62.8,43c0-0.7,0-1.2-0.1-1.7h1l0.1,1.1h0c0.3-0.6,1.1-1.2,2.1-1.2c0.9,0,2.3,0.5,2.3,2.7v3.8h-1.2V44
		c0-1-0.4-1.9-1.5-1.9c-0.8,0-1.4,0.5-1.6,1.2C64,43.5,64,43.7,64,43.9v3.8h-1.2V43z"/>
	<path class="st0" d="M0.8,61.6c0-0.9,0-1.6-0.1-2.2h1.6l0.1,1.1h0c0.4-0.6,1-1.3,2.3-1.3c1,0,1.7,0.6,2.1,1.4h0
		c0.3-0.4,0.6-0.7,0.9-0.9c0.4-0.3,0.9-0.4,1.5-0.4c1.2,0,2.5,0.8,2.5,3.2v4.4H9.9v-4.1c0-1.2-0.4-2-1.3-2c-0.6,0-1.1,0.5-1.3,1
		c0,0.2-0.1,0.4-0.1,0.6v4.5H5.4v-4.3c0-1-0.4-1.8-1.3-1.8c-0.7,0-1.2,0.6-1.3,1.1c-0.1,0.2-0.1,0.4-0.1,0.6v4.4H0.8V61.6z"/>
	<path class="st0" d="M15.3,63.7c0,1.3,1.1,1.9,2.3,1.9c0.9,0,1.5-0.1,2.1-0.3l0.3,1.3c-0.6,0.3-1.5,0.5-2.6,0.5
		c-2.4,0-3.8-1.5-3.8-3.8c0-2.1,1.3-4,3.6-4c2.4,0,3.2,2,3.2,3.6c0,0.4,0,0.6-0.1,0.8H15.3z M18.6,62.3c0-0.7-0.3-1.8-1.5-1.8
		c-1.2,0-1.7,1.1-1.7,1.8H18.6z"/>
	<path class="st0" d="M23.3,59.4l0.9,1.4c0.2,0.4,0.5,0.8,0.7,1.1h0c0.2-0.4,0.4-0.8,0.6-1.2l0.8-1.4h2.1L25.9,63l2.5,3.9h-2.1
		l-0.9-1.5c-0.2-0.4-0.5-0.8-0.7-1.2h0c-0.2,0.4-0.4,0.8-0.7,1.2l-0.9,1.5h-2.1l2.6-3.8l-2.5-3.7H23.3z"/>
	<path class="st0" d="M31.8,57.3c0,0.6-0.4,1-1.1,1c-0.6,0-1-0.4-1-1c0-0.6,0.4-1,1.1-1C31.4,56.3,31.8,56.7,31.8,57.3z M29.8,66.9
		v-7.5h1.9v7.5H29.8z"/>
	<path class="st0" d="M39.3,66.6c-0.4,0.2-1.2,0.4-2.1,0.4c-2.3,0-3.8-1.5-3.8-3.8c0-2.2,1.5-4,4.1-4c0.7,0,1.4,0.2,1.8,0.4L39,61
		c-0.3-0.1-0.8-0.3-1.4-0.3c-1.4,0-2.3,1.1-2.3,2.4c0,1.5,1,2.4,2.3,2.4c0.7,0,1.1-0.1,1.5-0.3L39.3,66.6z"/>
	<path class="st0" d="M45.1,66.9L45,66h0c-0.5,0.6-1.2,1-2.2,1c-1.5,0-2.3-1.1-2.3-2.2c0-1.9,1.7-2.8,4.4-2.8v-0.1
		c0-0.5-0.2-1.3-1.5-1.3c-0.7,0-1.5,0.2-2,0.6l-0.4-1.2c0.6-0.3,1.5-0.7,2.7-0.7c2.4,0,3.1,1.5,3.1,3.1v2.7c0,0.7,0,1.3,0.1,1.8
		H45.1z M44.9,63.2c-1.3,0-2.6,0.3-2.6,1.4c0,0.7,0.5,1.1,1.1,1.1c0.8,0,1.3-0.5,1.5-1c0-0.1,0.1-0.3,0.1-0.4V63.2z"/>
	<path class="st0" d="M48.9,61.6c0-0.9,0-1.6-0.1-2.2h1.7l0.1,1.1h0c0.3-0.6,1.1-1.3,2.4-1.3c1.3,0,2.6,0.8,2.6,3.2v4.4h-1.9v-4.2
		c0-1.1-0.4-1.9-1.4-1.9c-0.8,0-1.3,0.5-1.5,1.1c-0.1,0.2-0.1,0.4-0.1,0.6v4.4h-1.9V61.6z"/>
	<path class="st0" d="M62,66.9L61.9,66h0c-0.5,0.6-1.2,1-2.2,1c-1.5,0-2.3-1.1-2.3-2.2c0-1.9,1.7-2.8,4.4-2.8v-0.1
		c0-0.5-0.2-1.3-1.5-1.3c-0.7,0-1.5,0.2-2,0.6l-0.4-1.2c0.6-0.3,1.5-0.7,2.7-0.7c2.4,0,3.1,1.5,3.1,3.1v2.7c0,0.7,0,1.3,0.1,1.8H62z
		 M61.8,63.2c-1.3,0-2.6,0.3-2.6,1.4c0,0.7,0.5,1.1,1.1,1.1c0.8,0,1.3-0.5,1.5-1c0-0.1,0.1-0.3,0.1-0.4V63.2z"/>
	<path class="st0" d="M66.9,56.7L66.9,56.7l-1,0.5l-0.2-0.6L67,56h0.7v5.8h-0.8V56.7z"/>
</g>
</svg>
