<!-- Generator: Adobe Illustrator 20.1.0, SVG Export Plug-In  -->
<svg version="1.1"
	 xmlns="http://www.w3.org/2000/svg" xmlns:xlink="http://www.w3.org/1999/xlink" xmlns:a="http://ns.adobe.com/AdobeSVGViewerExtensions/3.0/"
	 x="0px" y="0px" width="314.4px" height="21.6px" viewBox="0 0 314.4 21.6"
	 style="overflow:scroll;enable-background:new 0 0 314.4 21.6;" xml:space="preserve">
<style type="text/css">
	.st0{fill:#FAFBFA;}
</style>
<defs>
</defs>
<g>
	<path class="st0" d="M0,0.6c1.7-0.3,3.8-0.4,6.1-0.4c3.9,0,6.6,0.8,8.5,2.4c2,1.6,3.3,4.1,3.3,7.7c0,3.7-1.3,6.5-3.3,8.3
		c-2.1,1.9-5.4,2.9-9.5,2.9c-2.2,0-3.9-0.1-5.1-0.3V0.6z M3.8,18.3c0.5,0.1,1.3,0.1,2.1,0.1c5,0,7.9-2.7,7.9-8
		c0-4.6-2.6-7.3-7.4-7.3c-1.2,0-2.1,0.1-2.6,0.2V18.3z"/>
	<path class="st0" d="M32.9,12H25v6.1h8.8v3.1H21.2V0.3h12.2v3.1H25v5.4h7.9V12z"/>
	<path class="st0" d="M41.1,3.5h-6V0.3H51v3.2h-6v17.7h-3.8V3.5z"/>
	<path class="st0" d="M65.1,12h-7.9v6.1H66v3.1H53.4V0.3h12.2v3.1h-8.3v5.4h7.9V12z"/>
	<path class="st0" d="M69.4,0.6c1.4-0.2,3.6-0.4,5.8-0.4c3,0,5.1,0.5,6.4,1.7c1.1,1,1.8,2.4,1.8,4.2c0,2.7-1.8,4.5-3.8,5.2v0.1
		c1.5,0.6,2.4,2,2.9,4c0.7,2.6,1.2,5,1.6,5.8h-3.9c-0.3-0.6-0.8-2.3-1.4-4.9c-0.6-2.7-1.6-3.6-3.8-3.7h-1.9v8.6h-3.8V0.6z M73.2,9.9
		h2.3c2.6,0,4.2-1.4,4.2-3.4c0-2.3-1.6-3.3-4.1-3.3c-1.2,0-2,0.1-2.4,0.2V9.9z"/>
	<path class="st0" d="M90.8,0.3v20.9H87V0.3H90.8z"/>
	<path class="st0" d="M113.7,10.6c0,7-4.2,11-10,11c-5.9,0-9.6-4.5-9.6-10.6c0-6.4,4-10.9,9.9-10.9C110.1,0,113.7,4.6,113.7,10.6z
		 M98.1,10.9c0,4.2,2.1,7.6,5.8,7.6c3.7,0,5.8-3.4,5.8-7.8c0-3.9-2-7.7-5.8-7.7C100.2,3.1,98.1,6.6,98.1,10.9z"/>
	<path class="st0" d="M117,0.6c1.4-0.2,3.6-0.4,5.8-0.4c3,0,5.1,0.5,6.4,1.7c1.1,1,1.8,2.4,1.8,4.2c0,2.7-1.8,4.5-3.8,5.2v0.1
		c1.5,0.6,2.4,2,2.9,4c0.7,2.6,1.2,5,1.6,5.8h-3.9c-0.3-0.6-0.8-2.3-1.4-4.9c-0.6-2.7-1.6-3.6-3.8-3.7h-1.9v8.6H117V0.6z M120.8,9.9
		h2.3c2.6,0,4.2-1.4,4.2-3.4c0-2.3-1.6-3.3-4.1-3.3c-1.2,0-2,0.1-2.4,0.2V9.9z"/>
	<path class="st0" d="M153.2,10.6c0,7-4.2,11-10,11c-5.9,0-9.6-4.5-9.6-10.6c0-6.4,4-10.9,9.9-10.9C149.6,0,153.2,4.6,153.2,10.6z
		 M137.6,10.9c0,4.2,2.1,7.6,5.8,7.6c3.7,0,5.8-3.4,5.8-7.8c0-3.9-2-7.7-5.8-7.7C139.6,3.1,137.6,6.6,137.6,10.9z"/>
	<path class="st0" d="M177.9,20.6c-0.9,0.5-2.9,0.9-5.4,0.9c-6.6,0-10.7-4.2-10.7-10.5c0-6.9,4.8-11,11.2-11c2.5,0,4.3,0.5,5.1,0.9
		l-0.8,3c-1-0.4-2.4-0.8-4.1-0.8c-4.2,0-7.3,2.7-7.3,7.7c0,4.6,2.7,7.5,7.3,7.5c1.6,0,3.2-0.3,4.2-0.8L177.9,20.6z"/>
	<path class="st0" d="M199.7,10.6c0,7-4.2,11-10,11c-5.9,0-9.6-4.5-9.6-10.6c0-6.4,4-10.9,9.9-10.9C196.1,0,199.7,4.6,199.7,10.6z
		 M184.1,10.9c0,4.2,2.1,7.6,5.8,7.6c3.7,0,5.8-3.4,5.8-7.8c0-3.9-2-7.7-5.8-7.7C186.1,3.1,184.1,6.6,184.1,10.9z"/>
	<path class="st0" d="M219.7,20.3c-1.3,0.5-3.9,1.2-6.7,1.2c-3.5,0-6.2-0.9-8.2-2.8c-1.9-1.8-2.9-4.5-2.9-7.7
		c0-6.6,4.7-10.9,11.6-10.9c2.6,0,4.6,0.5,5.5,1l-0.8,3.1c-1.1-0.5-2.5-0.9-4.7-0.9c-4.5,0-7.6,2.6-7.6,7.5c0,4.7,2.9,7.6,7.3,7.6
		c1.4,0,2.4-0.2,2.9-0.4v-5.2h-3.7v-3h7.4V20.3z"/>
	<path class="st0" d="M223.6,21.2V0.3h4.3l5.4,9c1.4,2.3,2.6,4.7,3.6,7h0.1c-0.2-2.8-0.3-5.5-0.3-8.7V0.3h3.5v20.9h-3.9l-5.5-9.2
		c-1.3-2.3-2.7-4.9-3.8-7.2l-0.1,0c0.2,2.7,0.2,5.5,0.2,8.9v7.5H223.6z"/>
	<path class="st0" d="M248.4,0.3v20.9h-3.8V0.3H248.4z"/>
	<path class="st0" d="M256.7,3.5h-6V0.3h15.8v3.2h-6v17.7h-3.8V3.5z"/>
	<path class="st0" d="M272.8,0.3v20.9H269V0.3H272.8z"/>
	<path class="st0" d="M282,21.2l-6.8-20.9h4.2l2.9,9.5c0.8,2.6,1.5,5.1,2,7.6h0.1c0.6-2.5,1.3-5,2.1-7.6l3-9.5h4.1l-7.2,20.9H282z"
		/>
	<path class="st0" d="M314.4,10.6c0,7-4.2,11-10,11c-5.9,0-9.6-4.5-9.6-10.6c0-6.4,4-10.9,9.9-10.9C310.8,0,314.4,4.6,314.4,10.6z
		 M298.8,10.9c0,4.2,2.1,7.6,5.8,7.6c3.7,0,5.8-3.4,5.8-7.8c0-3.9-2-7.7-5.8-7.7C300.8,3.1,298.8,6.6,298.8,10.9z"/>
</g>
</svg>
