<!-- Generator: Adobe Illustrator 20.1.0, SVG Export Plug-In  -->
<svg version="1.1"
	 xmlns="http://www.w3.org/2000/svg" xmlns:xlink="http://www.w3.org/1999/xlink" xmlns:a="http://ns.adobe.com/AdobeSVGViewerExtensions/3.0/"
	 x="0px" y="0px" width="401.8px" height="115.8px" viewBox="0 0 401.8 115.8"
	 style="overflow:scroll;enable-background:new 0 0 401.8 115.8;" xml:space="preserve">
<style type="text/css">
	.st0{fill:#DA0962;}
	.st1{fill:#808184;}
</style>
<defs>
</defs>
<g>
	<g>
		<path class="st0" d="M6.7,48.4c0.7-0.1,1.6-0.2,2.6-0.2c1.6,0,2.7,0.3,3.5,0.9c0.9,0.7,1.5,1.7,1.5,3.2c0,1.6-0.6,2.8-1.4,3.5
			c-0.9,0.8-2.3,1.1-4,1.1c-1,0-1.7-0.1-2.2-0.1V48.4z M8.7,55.4c0.2,0,0.4,0,0.7,0c1.8,0,2.9-1,2.9-3c0-1.8-1-2.7-2.7-2.7
			c-0.4,0-0.7,0-0.9,0.1V55.4z"/>
		<path class="st0" d="M19.2,56.9l-0.1-0.6h0c-0.4,0.5-1,0.8-1.8,0.8c-1.3,0-2-0.9-2-1.9c0-1.6,1.5-2.4,3.7-2.4v-0.1
			c0-0.3-0.2-0.8-1.1-0.8c-0.6,0-1.3,0.2-1.7,0.5L15.7,51c0.4-0.2,1.3-0.5,2.4-0.5c2.1,0,2.7,1.2,2.7,2.7v2.2c0,0.6,0,1.2,0.1,1.5
			H19.2z M18.9,53.9c-1,0-1.8,0.2-1.8,1c0,0.5,0.3,0.7,0.8,0.7c0.5,0,0.9-0.3,1-0.7c0-0.1,0-0.2,0-0.3V53.9z"/>
		<path class="st0" d="M28.5,47.8V55c0,0.7,0,1.4,0.1,1.9h-1.7L26.7,56h0c-0.4,0.7-1.2,1.1-2,1.1c-1.5,0-2.7-1.3-2.7-3.2
			c0-2.1,1.3-3.3,2.8-3.3c0.8,0,1.4,0.3,1.6,0.7h0v-3.4H28.5z M26.6,53.3c0-0.1,0-0.2,0-0.3c-0.1-0.5-0.5-1-1.1-1
			c-0.9,0-1.3,0.8-1.3,1.8c0,1.1,0.5,1.7,1.3,1.7c0.6,0,1-0.4,1.1-0.9c0-0.1,0.1-0.3,0.1-0.4V53.3z"/>
		<path class="st0" d="M36.3,53.7c0,2.3-1.6,3.3-3.3,3.3c-1.8,0-3.2-1.2-3.2-3.2c0-2,1.3-3.3,3.3-3.3C35,50.5,36.3,51.8,36.3,53.7z
			 M31.8,53.8c0,1.1,0.4,1.9,1.3,1.9c0.8,0,1.2-0.8,1.2-1.9c0-0.9-0.4-1.9-1.2-1.9C32.1,51.9,31.8,52.8,31.8,53.8z"/>
		<path class="st0" d="M45.1,56.1L45.1,56.1c-0.4,0.6-1,0.9-1.9,0.9c-1.4,0-2.6-1.2-2.6-3.2c0-2.2,1.4-3.4,2.8-3.4
			c0.8,0,1.4,0.3,1.7,0.9h0l0.1-0.7h1.9c0,0.6,0,1.2,0,1.9v6.9h-1.9V56.1z M45.1,53.3c0-0.1,0-0.2,0-0.3C45,52.4,44.6,52,44,52
			c-0.9,0-1.3,0.8-1.3,1.8c0,1,0.5,1.7,1.3,1.7c0.5,0,1-0.4,1.1-0.9c0-0.1,0.1-0.3,0.1-0.4V53.3z"/>
		<path class="st0" d="M54.6,54.9c0,0.8,0,1.5,0.1,2h-1.7L52.9,56h0c-0.2,0.4-0.8,1-2,1c-1.3,0-2.2-0.8-2.2-2.7v-3.7h2V54
			c0,0.9,0.3,1.5,1,1.5c0.5,0,0.8-0.4,1-0.7c0.1-0.1,0.1-0.3,0.1-0.4v-3.7h2V54.9z"/>
		<path class="st0" d="M57.7,54.4c0.1,0.8,0.9,1.2,1.8,1.2c0.7,0,1.2-0.1,1.7-0.3l0.3,1.3C60.8,56.9,60,57,59.2,57
			c-2.1,0-3.3-1.2-3.3-3.2c0-1.6,1-3.3,3.2-3.3c2,0,2.8,1.6,2.8,3.1c0,0.3,0,0.6-0.1,0.8H57.7z M60,53.1c0-0.5-0.2-1.3-1.1-1.3
			c-0.8,0-1.2,0.7-1.2,1.3H60z"/>
		<path class="st0" d="M66.5,52.6c0-0.8,0-1.4-0.1-2h1.7l0.1,0.9h0c0.3-0.4,0.9-1,1.9-1c1.3,0,2.2,0.8,2.2,2.7v3.7h-1.9v-3.5
			c0-0.8-0.3-1.4-1-1.4c-0.5,0-0.9,0.4-1,0.7c-0.1,0.1-0.1,0.3-0.1,0.5v3.6h-1.9V52.6z"/>
		<path class="st0" d="M80.2,53.7c0,2.3-1.6,3.3-3.3,3.3c-1.8,0-3.2-1.2-3.2-3.2c0-2,1.3-3.3,3.3-3.3C78.9,50.5,80.2,51.8,80.2,53.7
			z M75.7,53.8c0,1.1,0.4,1.9,1.3,1.9c0.8,0,1.2-0.8,1.2-1.9c0-0.9-0.4-1.9-1.2-1.9C76,51.9,75.7,52.8,75.7,53.8z"/>
		<path class="st0" d="M86.4,54.4c0.1,0.8,0.9,1.2,1.8,1.2c0.7,0,1.2-0.1,1.7-0.3l0.3,1.3c-0.6,0.3-1.4,0.4-2.3,0.4
			c-2.1,0-3.3-1.2-3.3-3.2c0-1.6,1-3.3,3.2-3.3c2,0,2.8,1.6,2.8,3.1c0,0.3,0,0.6-0.1,0.8H86.4z M88.7,53.1c0-0.5-0.2-1.3-1.1-1.3
			c-0.8,0-1.2,0.7-1.2,1.3H88.7z"/>
		<path class="st0" d="M93.2,50.6l0.6,1c0.2,0.3,0.3,0.6,0.5,0.9h0c0.2-0.3,0.3-0.7,0.5-1l0.5-1h2.1l-2.1,3l2.1,3.3h-2.2l-0.6-1.1
			c-0.2-0.3-0.3-0.6-0.5-0.9h0c-0.2,0.3-0.3,0.6-0.5,0.9l-0.6,1.1H91l2.1-3.2L91,50.6H93.2z"/>
		<path class="st0" d="M100.4,48.9c0,0.5-0.4,1-1,1c-0.6,0-1-0.4-1-1c0-0.6,0.4-1,1-1C100,47.9,100.4,48.3,100.4,48.9z M98.4,56.9
			v-6.3h1.9v6.3H98.4z"/>
		<path class="st0" d="M102,55.2c0.4,0.2,1.1,0.5,1.7,0.5c0.6,0,0.8-0.2,0.8-0.5s-0.2-0.5-0.9-0.7c-1.3-0.4-1.8-1.1-1.8-1.9
			c0-1.2,1-2,2.5-2c0.7,0,1.4,0.2,1.8,0.4l-0.3,1.3c-0.3-0.2-0.8-0.4-1.4-0.4c-0.5,0-0.7,0.2-0.7,0.5c0,0.3,0.2,0.4,1,0.7
			c1.2,0.4,1.7,1,1.7,1.9c0,1.2-0.9,2-2.7,2c-0.8,0-1.5-0.2-2-0.4L102,55.2z"/>
		<path class="st0" d="M109.8,48.8v1.8h1.4v1.4h-1.4v2.3c0,0.8,0.2,1.1,0.8,1.1c0.2,0,0.4,0,0.6-0.1l0,1.5c-0.3,0.1-0.7,0.2-1.3,0.2
			c-0.6,0-1.2-0.2-1.5-0.5c-0.4-0.4-0.5-1-0.5-1.9v-2.6h-0.8v-1.4h0.8v-1.4L109.8,48.8z"/>
		<path class="st0" d="M113.9,54.4c0.1,0.8,0.9,1.2,1.8,1.2c0.7,0,1.2-0.1,1.7-0.3l0.3,1.3c-0.6,0.3-1.4,0.4-2.3,0.4
			c-2.1,0-3.3-1.2-3.3-3.2c0-1.6,1-3.3,3.2-3.3c2,0,2.8,1.6,2.8,3.1c0,0.3,0,0.6-0.1,0.8H113.9z M116.2,53.1c0-0.5-0.2-1.3-1.1-1.3
			c-0.8,0-1.2,0.7-1.2,1.3H116.2z"/>
		<path class="st0" d="M119.2,52.6c0-0.8,0-1.4-0.1-2h1.7l0.1,0.9h0c0.3-0.4,0.9-1,1.9-1c1.3,0,2.2,0.8,2.2,2.7v3.7h-1.9v-3.5
			c0-0.8-0.3-1.4-1-1.4c-0.5,0-0.9,0.4-1,0.7c-0.1,0.1-0.1,0.3-0.1,0.5v3.6h-1.9V52.6z"/>
		<path class="st0" d="M136.3,47.8V55c0,0.7,0,1.4,0.1,1.9h-1.7l-0.1-0.9h0c-0.4,0.7-1.2,1.1-2,1.1c-1.5,0-2.7-1.3-2.7-3.2
			c0-2.1,1.3-3.3,2.8-3.3c0.8,0,1.4,0.3,1.6,0.7h0v-3.4H136.3z M134.3,53.3c0-0.1,0-0.2,0-0.3c-0.1-0.5-0.5-1-1.1-1
			c-0.9,0-1.3,0.8-1.3,1.8c0,1.1,0.5,1.7,1.3,1.7c0.6,0,1-0.4,1.1-0.9c0-0.1,0.1-0.3,0.1-0.4V53.3z"/>
		<path class="st0" d="M141.4,56.9l-0.1-0.6h0c-0.4,0.5-1,0.8-1.8,0.8c-1.3,0-2-0.9-2-1.9c0-1.6,1.5-2.4,3.7-2.4v-0.1
			c0-0.3-0.2-0.8-1.1-0.8c-0.6,0-1.3,0.2-1.7,0.5l-0.4-1.3c0.4-0.2,1.3-0.5,2.4-0.5c2.1,0,2.7,1.2,2.7,2.7v2.2c0,0.6,0,1.2,0.1,1.5
			H141.4z M141.2,53.9c-1,0-1.8,0.2-1.8,1c0,0.5,0.3,0.7,0.8,0.7c0.5,0,0.9-0.3,1-0.7c0-0.1,0-0.2,0-0.3V53.9z"/>
		<path class="st0" d="M146.9,48.8v1.8h1.4v1.4h-1.4v2.3c0,0.8,0.2,1.1,0.8,1.1c0.2,0,0.4,0,0.6-0.1l0,1.5C148,57,147.5,57,147,57
			c-0.6,0-1.2-0.2-1.5-0.5c-0.4-0.4-0.5-1-0.5-1.9v-2.6h-0.8v-1.4h0.8v-1.4L146.9,48.8z"/>
		<path class="st0" d="M155.6,53.7c0,2.3-1.6,3.3-3.3,3.3c-1.8,0-3.2-1.2-3.2-3.2c0-2,1.3-3.3,3.3-3.3
			C154.4,50.5,155.6,51.8,155.6,53.7z M151.1,53.8c0,1.1,0.4,1.9,1.3,1.9c0.8,0,1.2-0.8,1.2-1.9c0-0.9-0.4-1.9-1.2-1.9
			C151.5,51.9,151.1,52.8,151.1,53.8z"/>
		<path class="st0" d="M156.9,55.2c0.4,0.2,1.1,0.5,1.7,0.5c0.6,0,0.8-0.2,0.8-0.5s-0.2-0.5-0.9-0.7c-1.3-0.4-1.8-1.1-1.8-1.9
			c0-1.2,1-2,2.5-2c0.7,0,1.4,0.2,1.8,0.4l-0.3,1.3c-0.3-0.2-0.8-0.4-1.4-0.4c-0.5,0-0.7,0.2-0.7,0.5c0,0.3,0.2,0.4,1,0.7
			c1.2,0.4,1.7,1,1.7,1.9c0,1.2-0.9,2-2.7,2c-0.8,0-1.5-0.2-2-0.4L156.9,55.2z"/>
		<path class="st0" d="M172,47.8V55c0,0.7,0,1.4,0.1,1.9h-1.7l-0.1-0.9h0c-0.4,0.7-1.2,1.1-2,1.1c-1.5,0-2.7-1.3-2.7-3.2
			c0-2.1,1.3-3.3,2.8-3.3c0.8,0,1.4,0.3,1.6,0.7h0v-3.4H172z M170.1,53.3c0-0.1,0-0.2,0-0.3c-0.1-0.5-0.5-1-1.1-1
			c-0.9,0-1.3,0.8-1.3,1.8c0,1.1,0.5,1.7,1.3,1.7c0.6,0,1-0.4,1.1-0.9c0-0.1,0.1-0.3,0.1-0.4V53.3z"/>
		<path class="st0" d="M175.2,54.4c0.1,0.8,0.9,1.2,1.8,1.2c0.7,0,1.2-0.1,1.7-0.3l0.3,1.3c-0.6,0.3-1.4,0.4-2.3,0.4
			c-2.1,0-3.3-1.2-3.3-3.2c0-1.6,1-3.3,3.2-3.3c2,0,2.8,1.6,2.8,3.1c0,0.3,0,0.6-0.1,0.8H175.2z M177.4,53.1c0-0.5-0.2-1.3-1.1-1.3
			c-0.8,0-1.2,0.7-1.2,1.3H177.4z"/>
		<path class="st0" d="M183.9,56.9c0-0.4,0.1-1.2,0.1-1.9v-7.2h1.9v3.6h0c0.4-0.5,1-0.9,1.9-0.9c1.5,0,2.6,1.2,2.6,3.2
			c0,2.3-1.4,3.4-2.9,3.4c-0.7,0-1.4-0.3-1.9-1h0l-0.1,0.9H183.9z M185.9,54.2c0,0.1,0,0.2,0,0.3c0.1,0.5,0.6,0.9,1.1,0.9
			c0.8,0,1.3-0.6,1.3-1.8c0-1-0.4-1.7-1.3-1.7c-0.5,0-1,0.4-1.1,1c0,0.1,0,0.2,0,0.4V54.2z"/>
		<path class="st0" d="M193.6,48.9c0,0.5-0.4,1-1,1c-0.6,0-1-0.4-1-1c0-0.6,0.4-1,1-1C193.2,47.9,193.6,48.3,193.6,48.9z
			 M191.6,56.9v-6.3h1.9v6.3H191.6z"/>
		<path class="st0" d="M201.4,53.7c0,2.3-1.6,3.3-3.3,3.3c-1.8,0-3.2-1.2-3.2-3.2c0-2,1.3-3.3,3.3-3.3
			C200.1,50.5,201.4,51.8,201.4,53.7z M196.9,53.8c0,1.1,0.4,1.9,1.3,1.9c0.8,0,1.2-0.8,1.2-1.9c0-0.9-0.4-1.9-1.2-1.9
			C197.2,51.9,196.9,52.8,196.9,53.8z"/>
		<path class="st0" d="M204.1,54.4c0.1,0.8,0.9,1.2,1.8,1.2c0.7,0,1.2-0.1,1.7-0.3l0.3,1.3c-0.6,0.3-1.4,0.4-2.3,0.4
			c-2.1,0-3.3-1.2-3.3-3.2c0-1.6,1-3.3,3.2-3.3c2,0,2.8,1.6,2.8,3.1c0,0.3,0,0.6-0.1,0.8H204.1z M206.4,53.1c0-0.5-0.2-1.3-1.1-1.3
			c-0.8,0-1.2,0.7-1.2,1.3H206.4z"/>
		<path class="st0" d="M213.6,56.1L213.6,56.1c-0.4,0.6-1,0.9-1.9,0.9c-1.4,0-2.6-1.2-2.6-3.2c0-2.2,1.4-3.4,2.8-3.4
			c0.8,0,1.4,0.3,1.7,0.9h0l0.1-0.7h1.9c0,0.6,0,1.2,0,1.9v6.9h-1.9V56.1z M213.6,53.3c0-0.1,0-0.2,0-0.3c-0.1-0.5-0.5-0.9-1.1-0.9
			c-0.9,0-1.3,0.8-1.3,1.8c0,1,0.5,1.7,1.3,1.7c0.5,0,1-0.4,1.1-0.9c0-0.1,0.1-0.3,0.1-0.4V53.3z"/>
		<path class="st0" d="M223,54.9c0,0.8,0,1.5,0.1,2h-1.7l-0.1-0.9h0c-0.2,0.4-0.8,1-2,1c-1.3,0-2.2-0.8-2.2-2.7v-3.7h2V54
			c0,0.9,0.3,1.5,1,1.5c0.5,0,0.8-0.4,1-0.7c0.1-0.1,0.1-0.3,0.1-0.4v-3.7h2V54.9z"/>
		<path class="st0" d="M226.7,48.9c0,0.5-0.4,1-1,1c-0.6,0-1-0.4-1-1c0-0.6,0.4-1,1-1C226.3,47.9,226.7,48.3,226.7,48.9z
			 M224.7,56.9v-6.3h1.9v6.3H224.7z"/>
		<path class="st0" d="M229.7,50.6l0.8,2.9c0.2,0.5,0.3,1,0.4,1.5h0c0.1-0.5,0.2-1,0.3-1.5l0.8-2.9h2l-2.3,6.3h-1.9l-2.3-6.3H229.7z
			"/>
		<path class="st0" d="M238.6,56.9l-0.1-0.6h0c-0.4,0.5-1,0.8-1.8,0.8c-1.3,0-2-0.9-2-1.9c0-1.6,1.5-2.4,3.7-2.4v-0.1
			c0-0.3-0.2-0.8-1.1-0.8c-0.6,0-1.3,0.2-1.7,0.5l-0.4-1.3c0.4-0.2,1.3-0.5,2.4-0.5c2.1,0,2.7,1.2,2.7,2.7v2.2c0,0.6,0,1.2,0.1,1.5
			H238.6z M238.4,53.9c-1,0-1.8,0.2-1.8,1c0,0.5,0.3,0.7,0.8,0.7c0.5,0,0.9-0.3,1-0.7c0-0.1,0-0.2,0-0.3V53.9z"/>
		<path class="st0" d="M241.9,47.8h1.9v9.1h-1.9V47.8z"/>
		<path class="st0" d="M247,54.4c0.1,0.8,0.9,1.2,1.8,1.2c0.7,0,1.2-0.1,1.7-0.3l0.3,1.3c-0.6,0.3-1.4,0.4-2.3,0.4
			c-2.1,0-3.3-1.2-3.3-3.2c0-1.6,1-3.3,3.2-3.3c2,0,2.8,1.6,2.8,3.1c0,0.3,0,0.6-0.1,0.8H247z M249.3,53.1c0-0.5-0.2-1.3-1.1-1.3
			c-0.8,0-1.2,0.7-1.2,1.3H249.3z"/>
		<path class="st0" d="M252.3,52.6c0-0.8,0-1.4-0.1-2h1.7l0.1,0.9h0c0.3-0.4,0.9-1,1.9-1c1.3,0,2.2,0.8,2.2,2.7v3.7h-1.9v-3.5
			c0-0.8-0.3-1.4-1-1.4c-0.5,0-0.9,0.4-1,0.7c-0.1,0.1-0.1,0.3-0.1,0.5v3.6h-1.9V52.6z"/>
		<path class="st0" d="M264.5,56.7c-0.3,0.2-1,0.3-1.7,0.3c-2,0-3.3-1.2-3.3-3.2c0-1.8,1.3-3.3,3.6-3.3c0.5,0,1.1,0.1,1.5,0.2
			l-0.3,1.4c-0.2-0.1-0.6-0.2-1.1-0.2c-1,0-1.7,0.7-1.7,1.8c0,1.2,0.8,1.8,1.7,1.8c0.5,0,0.8-0.1,1.1-0.2L264.5,56.7z"/>
		<path class="st0" d="M267.7,48.9c0,0.5-0.4,1-1,1c-0.6,0-1-0.4-1-1c0-0.6,0.4-1,1-1C267.3,47.9,267.7,48.3,267.7,48.9z
			 M265.7,56.9v-6.3h1.9v6.3H265.7z"/>
		<path class="st0" d="M272.8,56.9l-0.1-0.6h0c-0.4,0.5-1,0.8-1.8,0.8c-1.3,0-2-0.9-2-1.9c0-1.6,1.5-2.4,3.7-2.4v-0.1
			c0-0.3-0.2-0.8-1.1-0.8c-0.6,0-1.3,0.2-1.7,0.5l-0.4-1.3c0.4-0.2,1.3-0.5,2.4-0.5c2.1,0,2.7,1.2,2.7,2.7v2.2c0,0.6,0,1.2,0.1,1.5
			H272.8z M272.6,53.9c-1,0-1.8,0.2-1.8,1c0,0.5,0.3,0.7,0.8,0.7c0.5,0,0.9-0.3,1-0.7c0-0.1,0-0.2,0-0.3V53.9z"/>
		<path class="st0" d="M275.3,58.4c0.4-1.1,0.7-2.5,0.9-3.6l2-0.1c-0.4,1.3-1,2.6-1.6,3.6L275.3,58.4z"/>
		<path class="st0" d="M285,51.7c0,0.7-0.4,1.2-1.1,1.2c-0.7,0-1.1-0.5-1.1-1.2c0-0.7,0.5-1.2,1.1-1.2C284.5,50.6,285,51,285,51.7z
			 M282.8,59.4l0.3-5.8h1.5l0.3,5.8H282.8z"/>
		<path class="st0" d="M287.9,54.4c0.1,0.8,0.9,1.2,1.8,1.2c0.7,0,1.2-0.1,1.7-0.3l0.3,1.3c-0.6,0.3-1.4,0.4-2.3,0.4
			c-2.1,0-3.3-1.2-3.3-3.2c0-1.6,1-3.3,3.2-3.3c2,0,2.8,1.6,2.8,3.1c0,0.3,0,0.6-0.1,0.8H287.9z M290.2,53.1c0-0.5-0.2-1.3-1.1-1.3
			c-0.8,0-1.2,0.7-1.2,1.3H290.2z"/>
		<path class="st0" d="M293.2,55.2c0.4,0.2,1.1,0.5,1.7,0.5c0.6,0,0.8-0.2,0.8-0.5s-0.2-0.5-0.9-0.7c-1.3-0.4-1.8-1.1-1.8-1.9
			c0-1.2,1-2,2.5-2c0.7,0,1.4,0.2,1.8,0.4l-0.3,1.3c-0.3-0.2-0.8-0.4-1.4-0.4c-0.5,0-0.7,0.2-0.7,0.5c0,0.3,0.2,0.4,1,0.7
			c1.2,0.4,1.7,1,1.7,1.9c0,1.2-0.9,2-2.7,2c-0.8,0-1.5-0.2-2-0.4L293.2,55.2z"/>
		<path class="st0" d="M304.3,48.9c0,0.5-0.4,1-1,1c-0.6,0-1-0.4-1-1c0-0.6,0.4-1,1-1C303.9,47.9,304.3,48.3,304.3,48.9z
			 M302.3,56.9v-6.3h1.9v6.3H302.3z"/>
		<path class="st0" d="M305.8,52.6c0-0.8,0-1.4-0.1-2h1.6l0.1,0.8h0c0.3-0.4,0.8-1,1.9-1c0.8,0,1.4,0.4,1.7,1.1h0
			c0.2-0.3,0.5-0.6,0.8-0.8c0.3-0.2,0.7-0.3,1.2-0.3c1.2,0,2.1,0.8,2.1,2.7v3.7h-1.9v-3.4c0-0.9-0.3-1.4-0.9-1.4
			c-0.4,0-0.8,0.3-0.9,0.7c-0.1,0.1-0.1,0.3-0.1,0.5v3.7h-1.9v-3.5c0-0.8-0.3-1.3-0.9-1.3c-0.5,0-0.8,0.4-0.9,0.7
			c-0.1,0.2-0.1,0.3-0.1,0.5v3.6h-1.9V52.6z"/>
		<path class="st0" d="M316.9,52.7c0-0.8,0-1.5-0.1-2.1h1.7l0.1,0.9h0c0.5-0.7,1.2-1,2.1-1c1.4,0,2.6,1.2,2.6,3.2
			c0,2.3-1.4,3.4-2.8,3.4c-0.8,0-1.3-0.3-1.6-0.7h0v3.1h-1.9V52.7z M318.9,54.2c0,0.2,0,0.3,0,0.4c0.1,0.5,0.6,0.9,1.1,0.9
			c0.8,0,1.3-0.7,1.3-1.8c0-1-0.4-1.8-1.3-1.8c-0.5,0-1,0.4-1.2,1c0,0.1,0,0.2,0,0.3V54.2z"/>
		<path class="st0" d="M330.8,53.7c0,2.3-1.6,3.3-3.3,3.3c-1.8,0-3.2-1.2-3.2-3.2c0-2,1.3-3.3,3.3-3.3
			C329.5,50.5,330.8,51.8,330.8,53.7z M326.3,53.8c0,1.1,0.4,1.9,1.3,1.9c0.8,0,1.2-0.8,1.2-1.9c0-0.9-0.4-1.9-1.2-1.9
			C326.6,51.9,326.3,52.8,326.3,53.8z"/>
		<path class="st0" d="M332.1,55.2c0.4,0.2,1.1,0.5,1.7,0.5c0.6,0,0.8-0.2,0.8-0.5s-0.2-0.5-0.9-0.7c-1.3-0.4-1.8-1.1-1.8-1.9
			c0-1.2,1-2,2.5-2c0.7,0,1.4,0.2,1.8,0.4l-0.3,1.3c-0.3-0.2-0.8-0.4-1.4-0.4c-0.5,0-0.7,0.2-0.7,0.5c0,0.3,0.2,0.4,1,0.7
			c1.2,0.4,1.7,1,1.7,1.9c0,1.2-0.9,2-2.7,2c-0.8,0-1.5-0.2-2-0.4L332.1,55.2z"/>
		<path class="st0" d="M339.7,48.9c0,0.5-0.4,1-1,1c-0.6,0-1-0.4-1-1c0-0.6,0.4-1,1-1C339.3,47.9,339.7,48.3,339.7,48.9z
			 M337.7,56.9v-6.3h1.9v6.3H337.7z"/>
		<path class="st0" d="M341.2,56.9c0-0.4,0.1-1.2,0.1-1.9v-7.2h1.9v3.6h0c0.4-0.5,1-0.9,1.9-0.9c1.5,0,2.6,1.2,2.6,3.2
			c0,2.3-1.4,3.4-2.9,3.4c-0.7,0-1.4-0.3-1.9-1h0l-0.1,0.9H341.2z M343.2,54.2c0,0.1,0,0.2,0,0.3c0.1,0.5,0.6,0.9,1.1,0.9
			c0.8,0,1.3-0.6,1.3-1.8c0-1-0.4-1.7-1.3-1.7c-0.5,0-1,0.4-1.1,1c0,0.1,0,0.2,0,0.4V54.2z"/>
		<path class="st0" d="M349,47.8h1.9v9.1H349V47.8z"/>
		<path class="st0" d="M354,54.4c0.1,0.8,0.9,1.2,1.8,1.2c0.7,0,1.2-0.1,1.7-0.3l0.3,1.3c-0.6,0.3-1.4,0.4-2.3,0.4
			c-2.1,0-3.3-1.2-3.3-3.2c0-1.6,1-3.3,3.2-3.3c2,0,2.8,1.6,2.8,3.1c0,0.3,0,0.6-0.1,0.8H354z M356.3,53.1c0-0.5-0.2-1.3-1.1-1.3
			c-0.8,0-1.2,0.7-1.2,1.3H356.3z"/>
		<path class="st0" d="M6.7,68.1h1.9v3.6h0c0.2-0.3,0.5-0.5,0.8-0.6c0.3-0.2,0.7-0.2,1-0.2c1.2,0,2.2,0.9,2.2,2.7v3.7h-1.9v-3.4
			c0-0.8-0.3-1.4-1-1.4c-0.5,0-0.8,0.3-1,0.7c-0.1,0.1-0.1,0.3-0.1,0.4v3.7H6.7V68.1z"/>
		<path class="st0" d="M17.8,77.2l-0.1-0.6h0c-0.4,0.5-1,0.8-1.8,0.8c-1.3,0-2-0.9-2-1.9c0-1.6,1.5-2.4,3.7-2.4v-0.1
			c0-0.3-0.2-0.8-1.1-0.8c-0.6,0-1.3,0.2-1.7,0.5l-0.4-1.3c0.4-0.2,1.3-0.5,2.4-0.5c2.1,0,2.7,1.2,2.7,2.7v2.2c0,0.6,0,1.2,0.1,1.5
			H17.8z M17.5,74.3c-1,0-1.8,0.2-1.8,1c0,0.5,0.3,0.7,0.8,0.7c0.5,0,0.9-0.3,1-0.7c0-0.1,0-0.2,0-0.3V74.3z"/>
		<path class="st0" d="M25.7,77.1c-0.3,0.2-1,0.3-1.7,0.3c-2,0-3.3-1.2-3.3-3.2c0-1.8,1.3-3.3,3.6-3.3c0.5,0,1.1,0.1,1.5,0.2
			l-0.3,1.4c-0.2-0.1-0.6-0.2-1.1-0.2c-1,0-1.7,0.7-1.7,1.8c0,1.2,0.8,1.8,1.7,1.8c0.5,0,0.8-0.1,1.1-0.2L25.7,77.1z"/>
		<path class="st0" d="M28.4,74.7c0.1,0.8,0.9,1.2,1.8,1.2c0.7,0,1.2-0.1,1.7-0.3l0.3,1.3c-0.6,0.3-1.4,0.4-2.3,0.4
			c-2.1,0-3.3-1.2-3.3-3.2c0-1.6,1-3.3,3.2-3.3c2,0,2.8,1.6,2.8,3.1c0,0.3,0,0.6-0.1,0.8H28.4z M30.6,73.4c0-0.5-0.2-1.3-1.1-1.3
			c-0.8,0-1.2,0.7-1.2,1.3H30.6z"/>
		<path class="st0" d="M33.7,73c0-0.9,0-1.5-0.1-2.1h1.7l0.1,1.2h0.1c0.3-0.9,1.1-1.3,1.7-1.3c0.2,0,0.3,0,0.4,0v1.8
			c-0.1,0-0.3-0.1-0.5-0.1c-0.7,0-1.2,0.4-1.3,1c0,0.1,0,0.3,0,0.4v3.2h-1.9V73z"/>
		<path class="st0" d="M41.3,73c0-0.9,0-1.5-0.1-2.1h1.7l0.1,1.2H43c0.3-0.9,1.1-1.3,1.7-1.3c0.2,0,0.3,0,0.4,0v1.8
			c-0.1,0-0.3-0.1-0.5-0.1c-0.7,0-1.2,0.4-1.3,1c0,0.1,0,0.3,0,0.4v3.2h-1.9V73z"/>
		<path class="st0" d="M47.7,74.7c0.1,0.8,0.9,1.2,1.8,1.2c0.7,0,1.2-0.1,1.7-0.3l0.3,1.3c-0.6,0.3-1.4,0.4-2.3,0.4
			c-2.1,0-3.3-1.2-3.3-3.2c0-1.6,1-3.3,3.2-3.3c2,0,2.8,1.6,2.8,3.1c0,0.3,0,0.6-0.1,0.8H47.7z M50,73.4c0-0.5-0.2-1.3-1.1-1.3
			c-0.8,0-1.2,0.7-1.2,1.3H50z"/>
		<path class="st0" d="M53.2,77.2v-4.8h-0.8V71h0.8v-0.2c0-0.8,0.2-1.6,0.8-2.1c0.5-0.5,1.2-0.6,1.7-0.6c0.4,0,0.8,0.1,1,0.1
			l-0.1,1.5c-0.2-0.1-0.4-0.1-0.6-0.1c-0.6,0-0.9,0.5-0.9,1.1V71h1.3v1.4h-1.2v4.8H53.2z"/>
		<path class="st0" d="M58.9,74.7c0.1,0.8,0.9,1.2,1.8,1.2c0.7,0,1.2-0.1,1.7-0.3l0.3,1.3c-0.6,0.3-1.4,0.4-2.3,0.4
			c-2.1,0-3.3-1.2-3.3-3.2c0-1.6,1-3.3,3.2-3.3c2,0,2.8,1.6,2.8,3.1c0,0.3,0,0.6-0.1,0.8H58.9z M61.2,73.4c0-0.5-0.2-1.3-1.1-1.3
			c-0.8,0-1.2,0.7-1.2,1.3H61.2z"/>
		<path class="st0" d="M64.2,73c0-0.9,0-1.5-0.1-2.1h1.7l0.1,1.2H66c0.3-0.9,1.1-1.3,1.7-1.3c0.2,0,0.3,0,0.4,0v1.8
			c-0.1,0-0.3-0.1-0.5-0.1c-0.7,0-1.2,0.4-1.3,1c0,0.1,0,0.3,0,0.4v3.2h-1.9V73z"/>
		<path class="st0" d="M70.7,74.7c0.1,0.8,0.9,1.2,1.8,1.2c0.7,0,1.2-0.1,1.7-0.3l0.3,1.3c-0.6,0.3-1.4,0.4-2.3,0.4
			c-2.1,0-3.3-1.2-3.3-3.2c0-1.6,1-3.3,3.2-3.3c2,0,2.8,1.6,2.8,3.1c0,0.3,0,0.6-0.1,0.8H70.7z M72.9,73.4c0-0.5-0.2-1.3-1.1-1.3
			c-0.8,0-1.2,0.7-1.2,1.3H72.9z"/>
		<path class="st0" d="M76,72.9c0-0.8,0-1.4-0.1-2h1.7l0.1,0.9h0c0.3-0.4,0.9-1,1.9-1c1.3,0,2.2,0.8,2.2,2.7v3.7H80v-3.5
			c0-0.8-0.3-1.4-1-1.4c-0.5,0-0.9,0.4-1,0.7c-0.1,0.1-0.1,0.3-0.1,0.5v3.6H76V72.9z"/>
		<path class="st0" d="M88.2,77.1c-0.3,0.2-1,0.3-1.7,0.3c-2,0-3.3-1.2-3.3-3.2c0-1.8,1.3-3.3,3.6-3.3c0.5,0,1.1,0.1,1.5,0.2
			l-0.3,1.4c-0.2-0.1-0.6-0.2-1.1-0.2c-1,0-1.7,0.7-1.7,1.8c0,1.2,0.8,1.8,1.7,1.8c0.5,0,0.8-0.1,1.1-0.2L88.2,77.1z"/>
		<path class="st0" d="M91.4,69.2c0,0.5-0.4,1-1,1c-0.6,0-1-0.4-1-1c0-0.6,0.4-1,1-1C91,68.2,91.4,68.7,91.4,69.2z M89.4,77.2V71
			h1.9v6.3H89.4z"/>
		<path class="st0" d="M96.5,77.2l-0.1-0.6h0c-0.4,0.5-1,0.8-1.8,0.8c-1.3,0-2-0.9-2-1.9c0-1.6,1.5-2.4,3.7-2.4v-0.1
			c0-0.3-0.2-0.8-1.1-0.8c-0.6,0-1.3,0.2-1.7,0.5L93,71.4c0.4-0.2,1.3-0.5,2.4-0.5c2.1,0,2.7,1.2,2.7,2.7v2.2c0,0.6,0,1.2,0.1,1.5
			H96.5z M96.3,74.3c-1,0-1.8,0.2-1.8,1c0,0.5,0.3,0.7,0.8,0.7c0.5,0,0.9-0.3,1-0.7c0-0.1,0-0.2,0-0.3V74.3z"/>
		<path class="st0" d="M106,77.2l-0.1-0.6h0c-0.4,0.5-1,0.8-1.8,0.8c-1.3,0-2-0.9-2-1.9c0-1.6,1.5-2.4,3.7-2.4v-0.1
			c0-0.3-0.2-0.8-1.1-0.8c-0.6,0-1.3,0.2-1.7,0.5l-0.4-1.3c0.4-0.2,1.3-0.5,2.4-0.5c2.1,0,2.7,1.2,2.7,2.7v2.2c0,0.6,0,1.2,0.1,1.5
			H106z M105.7,74.3c-1,0-1.8,0.2-1.8,1c0,0.5,0.3,0.7,0.8,0.7c0.5,0,0.9-0.3,1-0.7c0-0.1,0-0.2,0-0.3V74.3z"/>
		<path class="st0" d="M111.9,68.1h1.9v9.1h-1.9V68.1z"/>
		<path class="st0" d="M119,77.2l-0.1-0.6h0c-0.4,0.5-1,0.8-1.8,0.8c-1.3,0-2-0.9-2-1.9c0-1.6,1.5-2.4,3.7-2.4v-0.1
			c0-0.3-0.2-0.8-1.1-0.8c-0.6,0-1.3,0.2-1.7,0.5l-0.4-1.3c0.4-0.2,1.3-0.5,2.4-0.5c2.1,0,2.7,1.2,2.7,2.7v2.2c0,0.6,0,1.2,0.1,1.5
			H119z M118.8,74.3c-1,0-1.8,0.2-1.8,1c0,0.5,0.3,0.7,0.8,0.7c0.5,0,0.9-0.3,1-0.7c0-0.1,0-0.2,0-0.3V74.3z"/>
		<path class="st0" d="M126.4,74.7c0.1,0.8,0.9,1.2,1.8,1.2c0.7,0,1.2-0.1,1.7-0.3l0.3,1.3c-0.6,0.3-1.4,0.4-2.3,0.4
			c-2.1,0-3.3-1.2-3.3-3.2c0-1.6,1-3.3,3.2-3.3c2,0,2.8,1.6,2.8,3.1c0,0.3,0,0.6-0.1,0.8H126.4z M128.7,73.4c0-0.5-0.2-1.3-1.1-1.3
			c-0.8,0-1.2,0.7-1.2,1.3H128.7z"/>
		<path class="st0" d="M132,77.2v-4.8h-0.8V71h0.8v-0.3c0-1.7,1.3-2.7,3.3-2.7c0.7,0,1.5,0.2,1.8,0.4l-0.4,1.5
			c-0.3-0.2-0.8-0.3-1.4-0.3c-1,0-1.4,0.5-1.4,1.2V71h3.8v6.3h-1.9v-4.8h-1.8v4.8H132z"/>
		<path class="st0" d="M144,77.1c-0.3,0.2-1,0.3-1.7,0.3c-2,0-3.3-1.2-3.3-3.2c0-1.8,1.3-3.3,3.6-3.3c0.5,0,1.1,0.1,1.5,0.2
			l-0.3,1.4c-0.2-0.1-0.6-0.2-1.1-0.2c-1,0-1.7,0.7-1.7,1.8c0,1.2,0.8,1.8,1.7,1.8c0.5,0,0.8-0.1,1.1-0.2L144,77.1z"/>
		<path class="st0" d="M148.7,77.2l-0.1-0.6h0c-0.4,0.5-1,0.8-1.8,0.8c-1.3,0-2-0.9-2-1.9c0-1.6,1.5-2.4,3.7-2.4v-0.1
			c0-0.3-0.2-0.8-1.1-0.8c-0.6,0-1.3,0.2-1.7,0.5l-0.4-1.3c0.4-0.2,1.3-0.5,2.4-0.5c2.1,0,2.7,1.2,2.7,2.7v2.2c0,0.6,0,1.2,0.1,1.5
			H148.7z M148.5,74.3c-1,0-1.8,0.2-1.8,1c0,0.5,0.3,0.7,0.8,0.7c0.5,0,0.9-0.3,1-0.7c0-0.1,0-0.2,0-0.3V74.3z"/>
		<path class="st0" d="M156.7,77.1c-0.3,0.2-1,0.3-1.7,0.3c-2,0-3.3-1.2-3.3-3.2c0-1.8,1.3-3.3,3.6-3.3c0.5,0,1.1,0.1,1.5,0.2
			l-0.3,1.4c-0.2-0.1-0.6-0.2-1.1-0.2c-1,0-1.7,0.7-1.7,1.8c0,1.2,0.8,1.8,1.7,1.8c0.5,0,0.8-0.1,1.1-0.2L156.7,77.1z"/>
		<path class="st0" d="M159.8,69.2c0,0.5-0.4,1-1,1c-0.6,0-1-0.4-1-1c0-0.6,0.4-1,1-1C159.4,68.2,159.8,68.7,159.8,69.2z
			 M157.8,77.2V71h1.9v6.3H157.8z"/>
		<path class="st0" d="M164.9,77.2l-0.1-0.6h0c-0.4,0.5-1,0.8-1.8,0.8c-1.3,0-2-0.9-2-1.9c0-1.6,1.5-2.4,3.7-2.4v-0.1
			c0-0.3-0.2-0.8-1.1-0.8c-0.6,0-1.3,0.2-1.7,0.5l-0.4-1.3c0.4-0.2,1.3-0.5,2.4-0.5c2.1,0,2.7,1.2,2.7,2.7v2.2c0,0.6,0,1.2,0.1,1.5
			H164.9z M164.7,74.3c-1,0-1.8,0.2-1.8,1c0,0.5,0.3,0.7,0.8,0.7c0.5,0,0.9-0.3,1-0.7c0-0.1,0-0.2,0-0.3V74.3z"/>
		<path class="st0" d="M175.5,77.1c-0.3,0.2-1,0.3-1.7,0.3c-2,0-3.3-1.2-3.3-3.2c0-1.8,1.3-3.3,3.6-3.3c0.5,0,1.1,0.1,1.5,0.2
			l-0.3,1.4c-0.2-0.1-0.6-0.2-1.1-0.2c-1,0-1.7,0.7-1.7,1.8c0,1.2,0.8,1.8,1.7,1.8c0.5,0,0.8-0.1,1.1-0.2L175.5,77.1z"/>
		<path class="st0" d="M176.7,68.1h1.9v9.1h-1.9V68.1z"/>
		<path class="st0" d="M180.3,77.2V71h1.9v6.3H180.3z M183.3,68.2l-1.6,1.9h-1.3l1.1-1.9H183.3z"/>
		<path class="st0" d="M183.8,72.9c0-0.8,0-1.4-0.1-2h1.7l0.1,0.9h0c0.3-0.4,0.9-1,1.9-1c1.3,0,2.2,0.8,2.2,2.7v3.7h-1.9v-3.5
			c0-0.8-0.3-1.4-1-1.4c-0.5,0-0.9,0.4-1,0.7c-0.1,0.1-0.1,0.3-0.1,0.5v3.6h-1.9V72.9z"/>
		<path class="st0" d="M193.4,69.2c0,0.5-0.4,1-1,1c-0.6,0-1-0.4-1-1c0-0.6,0.4-1,1-1C193,68.2,193.4,68.7,193.4,69.2z M191.4,77.2
			V71h1.9v6.3H191.4z"/>
		<path class="st0" d="M199.6,77.1c-0.3,0.2-1,0.3-1.7,0.3c-2,0-3.3-1.2-3.3-3.2c0-1.8,1.3-3.3,3.6-3.3c0.5,0,1.1,0.1,1.5,0.2
			l-0.3,1.4c-0.2-0.1-0.6-0.2-1.1-0.2c-1,0-1.7,0.7-1.7,1.8c0,1.2,0.8,1.8,1.7,1.8c0.5,0,0.8-0.1,1.1-0.2L199.6,77.1z"/>
		<path class="st0" d="M204.3,77.2l-0.1-0.6h0c-0.4,0.5-1,0.8-1.8,0.8c-1.3,0-2-0.9-2-1.9c0-1.6,1.5-2.4,3.7-2.4v-0.1
			c0-0.3-0.2-0.8-1.1-0.8c-0.6,0-1.3,0.2-1.7,0.5l-0.4-1.3c0.4-0.2,1.3-0.5,2.4-0.5c2.1,0,2.7,1.2,2.7,2.7v2.2c0,0.6,0,1.2,0.1,1.5
			H204.3z M204.1,74.3c-1,0-1.8,0.2-1.8,1c0,0.5,0.3,0.7,0.8,0.7c0.5,0,0.9-0.3,1-0.7c0-0.1,0-0.2,0-0.3V74.3z"/>
		<path class="st0" d="M216.3,68.1v7.2c0,0.7,0,1.4,0.1,1.9h-1.7l-0.1-0.9h0c-0.4,0.7-1.2,1.1-2,1.1c-1.5,0-2.7-1.3-2.7-3.2
			c0-2.1,1.3-3.3,2.8-3.3c0.8,0,1.4,0.3,1.6,0.7h0v-3.4H216.3z M214.4,73.6c0-0.1,0-0.2,0-0.3c-0.1-0.5-0.5-1-1.1-1
			c-0.9,0-1.3,0.8-1.3,1.8c0,1.1,0.5,1.7,1.3,1.7c0.6,0,1-0.4,1.1-0.9c0-0.1,0.1-0.3,0.1-0.4V73.6z"/>
		<path class="st0" d="M219.4,74.7c0.1,0.8,0.9,1.2,1.8,1.2c0.7,0,1.2-0.1,1.7-0.3l0.3,1.3c-0.6,0.3-1.4,0.4-2.3,0.4
			c-2.1,0-3.3-1.2-3.3-3.2c0-1.6,1-3.3,3.2-3.3c2,0,2.8,1.6,2.8,3.1c0,0.3,0,0.6-0.1,0.8H219.4z M221.7,73.4c0-0.5-0.2-1.3-1.1-1.3
			c-0.8,0-1.2,0.7-1.2,1.3H221.7z"/>
		<path class="st0" d="M224.8,68.1h1.9v9.1h-1.9V68.1z"/>
		<path class="st0" d="M236.2,73.6H233v2h3.5v1.6h-5.5v-8.6h5.3v1.6H233V72h3.2V73.6z"/>
		<path class="st0" d="M245.1,76.8c-0.6,0.2-1.7,0.5-2.9,0.5c-1.6,0-2.7-0.4-3.5-1.2c-0.8-0.7-1.2-1.9-1.2-3.1
			c0-2.9,2.1-4.5,4.9-4.5c1.1,0,2,0.2,2.4,0.4l-0.4,1.6c-0.5-0.2-1.1-0.4-2-0.4c-1.6,0-2.9,0.9-2.9,2.8c0,1.8,1.1,2.8,2.7,2.8
			c0.4,0,0.8-0.1,1-0.1v-1.8h-1.3v-1.5h3.2V76.8z"/>
		<path class="st0" d="M246.6,77.2c0-0.4,0.1-1.2,0.1-1.9v-7.2h1.9v3.6h0c0.4-0.5,1-0.9,1.9-0.9c1.5,0,2.6,1.2,2.6,3.2
			c0,2.3-1.4,3.4-2.9,3.4c-0.7,0-1.4-0.3-1.9-1h0l-0.1,0.9H246.6z M248.6,74.5c0,0.1,0,0.2,0,0.3c0.1,0.5,0.6,0.9,1.1,0.9
			c0.8,0,1.3-0.6,1.3-1.8c0-1-0.4-1.7-1.3-1.7c-0.5,0-1,0.4-1.1,1c0,0.1,0,0.2,0,0.4V74.5z"/>
		<path class="st0" d="M262.7,68.9v1.2l-3.4,7.1h-2.1l3.4-6.7v0h-3.8v-1.6H262.7z"/>
		<path class="st0" d="M269.3,70.3c-0.2,0-0.4,0-0.8,0c-1.7,0.1-2.5,1-2.7,2h0c0.4-0.4,1-0.7,1.8-0.7c1.4,0,2.6,1,2.6,2.7
			c0,1.6-1.3,3-3.1,3c-2.2,0-3.3-1.6-3.3-3.6c0-1.6,0.6-2.9,1.5-3.7c0.8-0.8,1.9-1.2,3.2-1.2c0.4,0,0.6,0,0.8,0V70.3z M268.2,74.4
			c0-0.8-0.4-1.4-1.2-1.4c-0.5,0-1,0.3-1.2,0.7c-0.1,0.1-0.1,0.3-0.1,0.5c0,0.9,0.5,1.7,1.3,1.7C267.8,75.9,268.2,75.3,268.2,74.4z"
			/>
		<path class="st0" d="M273.6,70.6L273.6,70.6l-1.6,0.8l-0.3-1.5l2.2-1h1.6v8.3h-1.9V70.6z"/>
		<path class="st0" d="M282.9,70.6c0,1.2-1,2.2-2.3,2.2c-1.3,0-2.3-1-2.3-2.2c0-1.2,1-2.2,2.3-2.2C281.9,68.4,282.9,69.4,282.9,70.6
			z M279.1,70.7c0,0.9,0.7,1.6,1.6,1.6c0.9,0,1.6-0.7,1.6-1.7c0-0.9-0.7-1.6-1.6-1.6C279.8,69,279.1,69.7,279.1,70.7z M280.4,71.7
			h-0.6v-2c0.1,0,0.5-0.1,0.9-0.1c0.5,0,0.7,0.1,0.8,0.2c0.1,0.1,0.2,0.2,0.2,0.4c0,0.2-0.2,0.4-0.5,0.5v0c0.2,0.1,0.4,0.2,0.4,0.5
			c0.1,0.3,0.1,0.4,0.1,0.5h-0.7c-0.1-0.1-0.1-0.3-0.1-0.4c0-0.2-0.1-0.3-0.3-0.3h-0.2V71.7z M280.4,70.5h0.2c0.2,0,0.4-0.1,0.4-0.2
			c0-0.2-0.1-0.3-0.4-0.3c-0.1,0-0.2,0-0.2,0V70.5z"/>
		<path class="st0" d="M284.2,76.2c0-0.7,0.5-1.2,1.2-1.2s1.1,0.5,1.1,1.2c0,0.7-0.4,1.2-1.1,1.2S284.2,76.8,284.2,76.2z
			 M284.7,74.4l-0.3-5.8h2l-0.3,5.8H284.7z"/>
	</g>
</g>
<g>
	<path class="st1" d="M2,1.1L2,1.1L0.8,1.8L0.7,1.4L2,0.6h0.5v6.7H2V1.1z"/>
	<path class="st1" d="M4.7,8.6c0.8-1.1,1.4-2.4,1.4-4.2c0-1.9-0.6-3.2-1.4-4.2h0.5C5.9,1,6.6,2.3,6.6,4.4c0,2-0.7,3.3-1.5,4.2H4.7z"
		/>
	<path class="st1" d="M11.2,4.9l-0.9,2.4H9.9l2.5-7h0.5l2.5,7h-0.5L14,4.9H11.2z M13.8,4.5L13,2.2c-0.2-0.5-0.3-0.8-0.4-1.2h0
		c-0.1,0.4-0.2,0.8-0.4,1.2l-0.9,2.3H13.8z"/>
	<path class="st1" d="M16.5,0h0.5v7.3h-0.5V0z"/>
	<path class="st1" d="M19.3,1.3v1.1h1.4v0.4h-1.4V6c0,0.6,0.2,1,0.7,1c0.3,0,0.4,0,0.6-0.1l0.1,0.4c-0.2,0.1-0.4,0.1-0.7,0.1
		c-0.4,0-0.7-0.1-0.8-0.3c-0.2-0.3-0.3-0.7-0.3-1.2V2.8H18V2.4h0.8V1.5L19.3,1.3z"/>
	<path class="st1" d="M24.9,6.2c0,0.4,0,0.8,0.1,1.2h-0.5l-0.1-0.7h0c-0.2,0.4-0.8,0.8-1.6,0.8c-1,0-1.5-0.7-1.5-1.4
		c0-1.1,1-1.8,3-1.8V4.1c0-0.5-0.1-1.5-1.3-1.5c-0.4,0-0.9,0.1-1.3,0.4l-0.2-0.4c0.5-0.3,1-0.4,1.5-0.4c1.4,0,1.7,1.1,1.7,2V6.2z
		 M24.4,4.7c-1.1,0-2.5,0.1-2.5,1.3c0,0.7,0.5,1,1,1c0.8,0,1.3-0.5,1.5-1c0-0.1,0.1-0.2,0.1-0.3V4.7z"/>
	<path class="st1" d="M32.2,7.1c-0.2,0.1-0.7,0.3-1.5,0.3c-1.4,0-2.4-1-2.4-2.5c0-1.6,1.1-2.6,2.6-2.6c0.6,0,1.1,0.2,1.3,0.3L32.1,3
		c-0.2-0.1-0.6-0.3-1.2-0.3c-1.3,0-2,1-2,2.2c0,1.3,0.8,2.1,2,2.1c0.6,0,1-0.2,1.2-0.3L32.2,7.1z"/>
	<path class="st1" d="M35.3,7.5c-1.3,0-2.3-1-2.3-2.6c0-1.7,1.1-2.6,2.3-2.6c1.4,0,2.3,1,2.3,2.6C37.6,6.7,36.4,7.5,35.3,7.5
		L35.3,7.5z M35.3,7c1,0,1.8-0.9,1.8-2.2c0-0.9-0.5-2.2-1.8-2.2c-1.3,0-1.8,1.1-1.8,2.2C33.5,6.1,34.3,7,35.3,7L35.3,7z"/>
	<path class="st1" d="M38.9,3.6c0-0.5,0-0.8,0-1.2h0.5l0,0.9h0c0.3-0.6,0.9-1,1.7-1c0.5,0,1.7,0.2,1.7,2.1v3h-0.5V4.4
		c0-0.9-0.4-1.7-1.4-1.7c-0.7,0-1.3,0.5-1.5,1.1c0,0.1-0.1,0.3-0.1,0.4v3.1h-0.5V3.6z"/>
	<path class="st1" d="M44.2,6.7C44.5,6.9,44.9,7,45.3,7c0.8,0,1.2-0.4,1.2-0.9c0-0.5-0.3-0.8-1-1.1c-0.8-0.3-1.3-0.8-1.3-1.4
		c0-0.7,0.6-1.3,1.5-1.3c0.5,0,0.8,0.1,1.1,0.3L46.6,3c-0.2-0.1-0.5-0.3-1-0.3c-0.6,0-1,0.4-1,0.9c0,0.5,0.4,0.7,1,1
		C46.5,4.9,47,5.3,47,6c0,0.8-0.7,1.4-1.7,1.4c-0.5,0-0.9-0.1-1.3-0.3L44.2,6.7z"/>
	<path class="st1" d="M48.5,1.4c-0.2,0-0.4-0.2-0.4-0.4c0-0.2,0.2-0.4,0.4-0.4c0.2,0,0.4,0.2,0.4,0.4C48.9,1.2,48.8,1.4,48.5,1.4
		L48.5,1.4z M48.3,7.3v-5h0.5v5H48.3z"/>
	<path class="st1" d="M50.2,6.7C50.5,6.9,50.9,7,51.4,7c0.8,0,1.2-0.4,1.2-0.9c0-0.5-0.3-0.8-1-1.1c-0.8-0.3-1.3-0.8-1.3-1.4
		c0-0.7,0.6-1.3,1.5-1.3c0.5,0,0.8,0.1,1.1,0.3L52.6,3c-0.2-0.1-0.5-0.3-1-0.3c-0.6,0-1,0.4-1,0.9c0,0.5,0.4,0.7,1,1
		C52.5,4.9,53,5.3,53,6c0,0.8-0.7,1.4-1.7,1.4c-0.5,0-0.9-0.1-1.3-0.3L50.2,6.7z"/>
	<path class="st1" d="M55,1.3v1.1h1.4v0.4H55V6c0,0.6,0.2,1,0.7,1C56,7,56.2,7,56.3,7l0.1,0.4c-0.2,0.1-0.4,0.1-0.7,0.1
		c-0.4,0-0.7-0.1-0.8-0.3c-0.2-0.3-0.3-0.7-0.3-1.2V2.8h-0.8V2.4h0.8V1.5L55,1.3z"/>
	<path class="st1" d="M57.5,4.8c0,1.6,0.9,2.2,1.9,2.2c0.7,0,1.1-0.1,1.4-0.3l0.1,0.4c-0.2,0.1-0.7,0.3-1.6,0.3
		c-1.4,0-2.3-1-2.3-2.5c0-1.7,1-2.7,2.2-2.7c1.6,0,1.9,1.5,1.9,2.2c0,0.1,0,0.2,0,0.3H57.5z M60.7,4.4c0-0.7-0.3-1.7-1.5-1.7
		c-1.1,0-1.6,1-1.7,1.7H60.7z"/>
	<path class="st1" d="M62.4,3.6c0-0.5,0-0.8,0-1.2h0.5l0,0.9h0c0.3-0.6,0.9-1,1.7-1c0.5,0,1.7,0.2,1.7,2.1v3h-0.5V4.4
		c0-0.9-0.4-1.7-1.4-1.7c-0.7,0-1.3,0.5-1.5,1.1c0,0.1-0.1,0.3-0.1,0.4v3.1h-0.5V3.6z"/>
	<path class="st1" d="M71.4,7.1c-0.2,0.1-0.7,0.3-1.5,0.3c-1.4,0-2.4-1-2.4-2.5c0-1.6,1.1-2.6,2.6-2.6c0.6,0,1.1,0.2,1.3,0.3L71.2,3
		c-0.2-0.1-0.6-0.3-1.2-0.3c-1.3,0-2,1-2,2.2c0,1.3,0.8,2.1,2,2.1c0.6,0,1-0.2,1.2-0.3L71.4,7.1z"/>
	<path class="st1" d="M72.8,1.4c-0.2,0-0.4-0.2-0.4-0.4c0-0.2,0.2-0.4,0.4-0.4c0.2,0,0.4,0.2,0.4,0.4C73.2,1.2,73.1,1.4,72.8,1.4
		L72.8,1.4z M72.6,7.3v-5h0.5v5H72.6z"/>
	<path class="st1" d="M77.8,6.2c0,0.4,0,0.8,0.1,1.2h-0.5l-0.1-0.7h0c-0.2,0.4-0.8,0.8-1.6,0.8c-1,0-1.5-0.7-1.5-1.4
		c0-1.1,1-1.8,3-1.8V4.1c0-0.5-0.1-1.5-1.3-1.5c-0.4,0-0.9,0.1-1.3,0.4l-0.2-0.4c0.5-0.3,1-0.4,1.5-0.4c1.4,0,1.7,1.1,1.7,2V6.2z
		 M77.3,4.7c-1.1,0-2.5,0.1-2.5,1.3c0,0.7,0.5,1,1,1c0.8,0,1.3-0.5,1.5-1c0-0.1,0.1-0.2,0.1-0.3V4.7z"/>
	<path class="st1" d="M81.8,4.8c0,1.6,0.9,2.2,1.9,2.2c0.7,0,1.1-0.1,1.4-0.3l0.1,0.4c-0.2,0.1-0.7,0.3-1.6,0.3
		c-1.4,0-2.3-1-2.3-2.5c0-1.7,1-2.7,2.2-2.7c1.6,0,1.9,1.5,1.9,2.2c0,0.1,0,0.2,0,0.3H81.8z M84.9,4.4c0-0.7-0.3-1.7-1.5-1.7
		c-1.1,0-1.6,1-1.7,1.7H84.9z"/>
	<path class="st1" d="M86.7,3.6c0-0.5,0-0.8,0-1.2h0.5l0,0.9h0c0.3-0.6,0.9-1,1.7-1c0.5,0,1.7,0.2,1.7,2.1v3h-0.5V4.4
		c0-0.9-0.4-1.7-1.4-1.7c-0.7,0-1.3,0.5-1.5,1.1c0,0.1-0.1,0.3-0.1,0.4v3.1h-0.5V3.6z"/>
	<path class="st1" d="M92.9,1.3v1.1h1.4v0.4h-1.4V6c0,0.6,0.2,1,0.7,1c0.3,0,0.4,0,0.6-0.1l0.1,0.4c-0.2,0.1-0.4,0.1-0.7,0.1
		c-0.4,0-0.7-0.1-0.8-0.3c-0.2-0.3-0.3-0.7-0.3-1.2V2.8h-0.8V2.4h0.8V1.5L92.9,1.3z"/>
	<path class="st1" d="M95.4,3.9c0-0.5,0-1,0-1.5h0.5l0,1h0c0.2-0.6,0.7-1.1,1.4-1.1c0.1,0,0.1,0,0.2,0v0.5c-0.1,0-0.1,0-0.2,0
		c-0.7,0-1.2,0.6-1.3,1.4c0,0.1,0,0.3,0,0.5v2.7h-0.5V3.9z"/>
	<path class="st1" d="M98.5,4.8c0,1.6,0.9,2.2,1.9,2.2c0.7,0,1.1-0.1,1.4-0.3l0.1,0.4c-0.2,0.1-0.7,0.3-1.6,0.3
		c-1.4,0-2.3-1-2.3-2.5c0-1.7,1-2.7,2.2-2.7c1.6,0,1.9,1.5,1.9,2.2c0,0.1,0,0.2,0,0.3H98.5z M101.6,4.4c0-0.7-0.3-1.7-1.5-1.7
		c-1.1,0-1.6,1-1.7,1.7H101.6z"/>
	<path class="st1" d="M105.7,0h0.5v7.3h-0.5V0z"/>
	<path class="st1" d="M109.7,7.5c-1.3,0-2.3-1-2.3-2.6c0-1.7,1.1-2.6,2.3-2.6c1.4,0,2.3,1,2.3,2.6C112.1,6.7,110.8,7.5,109.7,7.5
		L109.7,7.5z M109.7,7c1,0,1.8-0.9,1.8-2.2c0-0.9-0.5-2.2-1.8-2.2c-1.3,0-1.8,1.1-1.8,2.2C107.9,6.1,108.7,7,109.7,7L109.7,7z"/>
	<path class="st1" d="M114,1.3v1.1h1.4v0.4H114V6c0,0.6,0.2,1,0.7,1c0.3,0,0.4,0,0.6-0.1l0.1,0.4c-0.2,0.1-0.4,0.1-0.7,0.1
		c-0.4,0-0.7-0.1-0.8-0.3c-0.2-0.3-0.3-0.7-0.3-1.2V2.8h-0.8V2.4h0.8V1.5L114,1.3z"/>
	<path class="st1" d="M116.6,4.8c0,1.6,0.9,2.2,1.9,2.2c0.7,0,1.1-0.1,1.4-0.3l0.1,0.4c-0.2,0.1-0.7,0.3-1.6,0.3
		c-1.4,0-2.3-1-2.3-2.5c0-1.7,1-2.7,2.2-2.7c1.6,0,1.9,1.5,1.9,2.2c0,0.1,0,0.2,0,0.3H116.6z M119.7,4.4c0-0.7-0.3-1.7-1.5-1.7
		c-1.1,0-1.6,1-1.7,1.7H119.7z"/>
	<path class="st1" d="M123.6,2.4l1.3,3.2c0.1,0.4,0.3,0.8,0.4,1.1h0c0.1-0.3,0.2-0.7,0.4-1.1l1.2-3.2h0.5l-1.5,3.7
		c-0.6,1.5-1,2.5-1.7,3c-0.4,0.3-0.8,0.5-0.9,0.5l-0.2-0.4c0.2-0.1,0.6-0.3,0.9-0.5c0.2-0.2,0.6-0.7,0.8-1.3c0-0.1,0.1-0.2,0.1-0.2
		c0,0,0-0.1-0.1-0.2L123,2.4H123.6z"/>
	<path class="st1" d="M130.6,0h0.5v7.3h-0.5V0z"/>
	<path class="st1" d="M134.6,7.5c-1.3,0-2.3-1-2.3-2.6c0-1.7,1.1-2.6,2.3-2.6c1.4,0,2.3,1,2.3,2.6C137,6.7,135.7,7.5,134.6,7.5
		L134.6,7.5z M134.7,7c1,0,1.8-0.9,1.8-2.2c0-0.9-0.5-2.2-1.8-2.2c-1.3,0-1.8,1.1-1.8,2.2C132.8,6.1,133.6,7,134.7,7L134.7,7z"/>
	<path class="st1" d="M138.9,1.3v1.1h1.4v0.4h-1.4V6c0,0.6,0.2,1,0.7,1c0.3,0,0.4,0,0.6-0.1l0.1,0.4c-0.2,0.1-0.4,0.1-0.7,0.1
		c-0.4,0-0.7-0.1-0.8-0.3c-0.2-0.3-0.3-0.7-0.3-1.2V2.8h-0.8V2.4h0.8V1.5L138.9,1.3z"/>
	<path class="st1" d="M141.5,4.8c0,1.6,0.9,2.2,1.9,2.2c0.7,0,1.1-0.1,1.4-0.3l0.1,0.4c-0.2,0.1-0.7,0.3-1.6,0.3
		c-1.4,0-2.3-1-2.3-2.5c0-1.7,1-2.7,2.2-2.7c1.6,0,1.9,1.5,1.9,2.2c0,0.1,0,0.2,0,0.3H141.5z M144.6,4.4c0-0.7-0.3-1.7-1.5-1.7
		c-1.1,0-1.6,1-1.7,1.7H144.6z"/>
	<path class="st1" d="M152.6,0v6.2c0,0.4,0,0.8,0,1.1h-0.4l0-0.9h0c-0.3,0.5-0.8,1.1-1.8,1.1c-1.2,0-2.1-1-2.1-2.5
		c0-1.7,1-2.7,2.2-2.7c0.9,0,1.4,0.4,1.6,0.9h0V0H152.6z M152.1,4.3c0-0.1,0-0.3-0.1-0.5c-0.2-0.7-0.8-1.2-1.6-1.2
		c-1.1,0-1.8,0.9-1.8,2.2c0,1.1,0.6,2.1,1.7,2.1c0.7,0,1.4-0.5,1.6-1.3c0-0.1,0.1-0.3,0.1-0.4V4.3z"/>
	<path class="st1" d="M154.4,4.8c0,1.6,0.9,2.2,1.9,2.2c0.7,0,1.1-0.1,1.4-0.3l0.1,0.4c-0.2,0.1-0.7,0.3-1.6,0.3
		c-1.4,0-2.3-1-2.3-2.5c0-1.7,1-2.7,2.2-2.7c1.6,0,1.9,1.5,1.9,2.2c0,0.1,0,0.2,0,0.3H154.4z M157.5,4.4c0-0.7-0.3-1.7-1.5-1.7
		c-1.1,0-1.6,1-1.7,1.7H157.5z"/>
</g>
<g>
	<path class="st0" d="M165.5,4.4H163v1.7h2.9v1.3h-4.4v-7h4.3v1.3H163v1.4h2.6V4.4z"/>
	<path class="st0" d="M172.7,7c-0.5,0.2-1.4,0.4-2.3,0.4c-1.3,0-2.2-0.3-2.8-0.9c-0.6-0.6-1-1.5-1-2.5c0-2.3,1.7-3.6,4-3.6
		c0.9,0,1.6,0.2,1.9,0.3l-0.3,1.3c-0.4-0.2-0.9-0.3-1.6-0.3c-1.3,0-2.3,0.7-2.3,2.3c0,1.4,0.9,2.3,2.2,2.3c0.4,0,0.7,0,0.8-0.1V4.6
		h-1.1V3.4h2.6V7z"/>
	<path class="st0" d="M173.9,7.3c0-0.3,0-0.9,0-1.5V0h1.6v2.9h0c0.3-0.4,0.8-0.7,1.5-0.7c1.2,0,2.1,1,2.1,2.6c0,1.8-1.2,2.7-2.3,2.7
		c-0.6,0-1.2-0.2-1.5-0.8h0l-0.1,0.7H173.9z M175.5,5.2c0,0.1,0,0.2,0,0.3c0.1,0.4,0.5,0.7,0.9,0.7c0.7,0,1.1-0.5,1.1-1.4
		c0-0.8-0.4-1.4-1.1-1.4c-0.4,0-0.8,0.3-0.9,0.8c0,0.1,0,0.2,0,0.3V5.2z"/>
	<path class="st0" d="M186.8,0.6v1l-2.8,5.7h-1.7l2.8-5.4v0h-3.1V0.6H186.8z"/>
	<path class="st0" d="M192,1.7c-0.2,0-0.4,0-0.6,0c-1.4,0.1-2,0.8-2.2,1.6h0c0.3-0.3,0.8-0.5,1.4-0.5c1.1,0,2.1,0.8,2.1,2.2
		c0,1.3-1,2.4-2.5,2.4c-1.8,0-2.7-1.3-2.7-2.9c0-1.3,0.5-2.3,1.2-3c0.7-0.6,1.5-0.9,2.6-1c0.3,0,0.5,0,0.6,0V1.7z M191.2,5.1
		c0-0.6-0.3-1.2-1-1.2c-0.4,0-0.8,0.3-0.9,0.6c0,0.1-0.1,0.2-0.1,0.4c0,0.7,0.4,1.4,1.1,1.4C190.8,6.3,191.2,5.8,191.2,5.1z"/>
	<path class="st0" d="M195.5,2L195.5,2l-1.3,0.6l-0.3-1.2l1.8-0.8h1.3v6.7h-1.5V2z"/>
	<path class="st0" d="M203,2c0,1-0.8,1.8-1.8,1.8S199.3,3,199.3,2c0-1,0.8-1.8,1.8-1.8S203,1.1,203,2z M199.9,2.1
		c0,0.7,0.5,1.3,1.3,1.3s1.3-0.6,1.3-1.3c0-0.7-0.5-1.3-1.3-1.3C200.4,0.7,199.9,1.3,199.9,2.1z M200.9,2.9h-0.5V1.3
		c0.1,0,0.4-0.1,0.7-0.1c0.4,0,0.5,0.1,0.7,0.1c0.1,0.1,0.2,0.2,0.2,0.4s-0.2,0.3-0.4,0.4v0c0.2,0.1,0.3,0.2,0.3,0.4
		s0.1,0.3,0.1,0.4h-0.6c-0.1-0.1-0.1-0.2-0.1-0.4c0-0.2-0.1-0.2-0.3-0.2h-0.2V2.9z M201,2h0.1c0.2,0,0.3-0.1,0.3-0.2
		c0-0.1-0.1-0.2-0.3-0.2c-0.1,0-0.1,0-0.2,0V2z"/>
</g>
<path class="st1" d="M0,26.3V26l0.6-0.6c1.9-1.8,2.7-2.8,2.7-3.9c0-0.8-0.3-1.5-1.5-1.5c-0.6,0-1.1,0.3-1.4,0.6l-0.2-0.3
	c0.4-0.4,1-0.7,1.7-0.7c1.4,0,1.9,1.1,1.9,1.8c0,1.3-1,2.4-2.6,4l-0.5,0.5v0H4v0.4H0z M4.7,27.6c0.8-1.1,1.4-2.4,1.4-4.2
	c0-1.9-0.6-3.2-1.4-4.2h0.5c0.7,0.9,1.5,2.2,1.5,4.2c0,2-0.7,3.3-1.5,4.2H4.7z M16.1,22.8c0,2.5-1.5,3.7-3.1,3.7c-1.7,0-3-1.4-3-3.5
	c0-2.3,1.4-3.7,3.1-3.7C14.8,19.2,16.1,20.6,16.1,22.8z M10.5,22.9c0,1.6,0.9,3.1,2.6,3.1s2.6-1.5,2.6-3.2c0-1.5-0.8-3.2-2.6-3.2
	C11.3,19.7,10.5,21.3,10.5,22.9z M18.2,20.3v1.1h1.4v0.4h-1.4V25c0,0.6,0.2,1,0.7,1c0.3,0,0.4,0,0.6-0.1l0.1,0.4
	c-0.2,0.1-0.4,0.1-0.7,0.1c-0.4,0-0.7-0.1-0.8-0.4c-0.2-0.3-0.3-0.7-0.3-1.2v-3.1h-0.8v-0.4h0.8v-0.9L18.2,20.3z M20.7,22.9
	c0-0.5,0-1,0-1.5h0.5l0,1h0c0.2-0.6,0.7-1.1,1.4-1.1c0.1,0,0.1,0,0.2,0v0.5c-0.1,0-0.1,0-0.2,0c-0.7,0-1.2,0.6-1.3,1.4
	c0,0.1,0,0.3,0,0.5v2.7h-0.5V22.9z M27.9,23.8c0,1.8-1.3,2.6-2.4,2.6c-1.3,0-2.3-1-2.3-2.6c0-1.7,1.1-2.6,2.3-2.6
	C27,21.3,27.9,22.3,27.9,23.8z M23.8,23.9c0,1.2,0.8,2.2,1.8,2.2c1,0,1.8-0.9,1.8-2.2c0-0.9-0.5-2.2-1.8-2.2
	C24.3,21.7,23.8,22.8,23.8,23.9z M29,25.7c0.3,0.2,0.7,0.3,1.1,0.3c0.8,0,1.2-0.4,1.2-0.9c0-0.5-0.3-0.8-1-1.1
	c-0.8-0.3-1.3-0.8-1.3-1.4c0-0.7,0.6-1.3,1.5-1.3c0.5,0,0.8,0.1,1.1,0.3L31.4,22c-0.2-0.1-0.5-0.3-1-0.3c-0.6,0-1,0.4-1,0.9
	c0,0.5,0.4,0.7,1,1c0.8,0.3,1.3,0.7,1.3,1.5c0,0.8-0.7,1.4-1.7,1.4c-0.5,0-0.9-0.1-1.3-0.3L29,25.7z M35.4,23.8
	c0,1.6,0.9,2.2,1.9,2.2c0.7,0,1.1-0.1,1.4-0.3l0.1,0.4c-0.2,0.1-0.7,0.3-1.6,0.3c-1.4,0-2.3-1-2.3-2.5c0-1.7,1-2.7,2.2-2.7
	c1.6,0,1.9,1.5,1.9,2.2c0,0.1,0,0.2,0,0.3H35.4z M38.5,23.4c0-0.7-0.3-1.7-1.5-1.7c-1.1,0-1.6,1-1.7,1.7H38.5z M40.2,21.4l0.8,1.2
	c0.2,0.3,0.4,0.5,0.6,0.8h0c0.2-0.3,0.4-0.6,0.6-0.8l0.8-1.2h0.5l-1.7,2.4l1.8,2.5h-0.6l-0.9-1.3c-0.2-0.3-0.4-0.6-0.6-0.9h0
	c-0.2,0.3-0.4,0.6-0.6,0.9l-0.9,1.3h-0.6l1.8-2.5l-1.7-2.4H40.2z M45.5,20.3v1.1H47v0.4h-1.4V25c0,0.6,0.2,1,0.7,1
	c0.3,0,0.4,0,0.6-0.1l0.1,0.4c-0.2,0.1-0.4,0.1-0.7,0.1c-0.4,0-0.7-0.1-0.8-0.4c-0.2-0.3-0.3-0.7-0.3-1.2v-3.1h-0.8v-0.4h0.8v-0.9
	L45.5,20.3z M48.1,22.9c0-0.5,0-1,0-1.5h0.5l0,1h0c0.2-0.6,0.7-1.1,1.4-1.1c0.1,0,0.1,0,0.2,0v0.5c-0.1,0-0.1,0-0.2,0
	c-0.7,0-1.2,0.6-1.3,1.4c0,0.1,0,0.3,0,0.5v2.7h-0.5V22.9z M54.2,25.2c0,0.4,0,0.8,0.1,1.2h-0.5l-0.1-0.7h0
	c-0.2,0.4-0.8,0.8-1.6,0.8c-1,0-1.5-0.7-1.5-1.4c0-1.1,1-1.8,3-1.8v-0.1c0-0.5-0.1-1.5-1.3-1.5c-0.4,0-0.9,0.1-1.2,0.4L51,21.7
	c0.5-0.3,1-0.4,1.5-0.4c1.4,0,1.7,1.1,1.7,2V25.2z M53.7,23.7c-1.1,0-2.5,0.1-2.5,1.3c0,0.7,0.5,1,1,1c0.8,0,1.3-0.5,1.5-1
	c0-0.1,0.1-0.2,0.1-0.3V23.7z M59.2,26.1c-0.2,0.1-0.7,0.3-1.5,0.3c-1.4,0-2.4-1-2.4-2.5c0-1.6,1.1-2.6,2.6-2.6
	c0.6,0,1.1,0.2,1.3,0.3L59.1,22c-0.2-0.1-0.6-0.3-1.2-0.3c-1.3,0-2,1-2,2.2c0,1.3,0.8,2.1,2,2.1c0.6,0,1-0.2,1.2-0.3L59.2,26.1z
	 M61.2,20.3v1.1h1.4v0.4h-1.4V25c0,0.6,0.2,1,0.7,1c0.3,0,0.4,0,0.6-0.1l0.1,0.4c-0.2,0.1-0.4,0.1-0.7,0.1c-0.4,0-0.7-0.1-0.8-0.4
	c-0.2-0.3-0.3-0.7-0.3-1.2v-3.1h-0.8v-0.4h0.8v-0.9L61.2,20.3z M67.9,23.8c0,1.8-1.3,2.6-2.4,2.6c-1.3,0-2.3-1-2.3-2.6
	c0-1.7,1.1-2.6,2.3-2.6C67,21.3,67.9,22.3,67.9,23.8z M63.7,23.9c0,1.2,0.8,2.2,1.8,2.2c1,0,1.8-0.9,1.8-2.2c0-0.9-0.5-2.2-1.8-2.2
	C64.3,21.7,63.7,22.8,63.7,23.9z M68.9,25.7c0.3,0.2,0.7,0.3,1.1,0.3c0.8,0,1.2-0.4,1.2-0.9c0-0.5-0.3-0.8-1-1.1
	c-0.8-0.3-1.3-0.8-1.3-1.4c0-0.7,0.6-1.3,1.5-1.3c0.5,0,0.8,0.1,1.1,0.3L71.4,22c-0.2-0.1-0.5-0.3-1-0.3c-0.6,0-1,0.4-1,0.9
	c0,0.5,0.4,0.7,1,1c0.8,0.3,1.3,0.7,1.3,1.5c0,0.8-0.7,1.4-1.7,1.4c-0.5,0-0.9-0.1-1.3-0.3L68.9,25.7z M79.2,19v6.2
	c0,0.4,0,0.8,0,1.2h-0.4l0-0.9h0c-0.3,0.5-0.8,1.1-1.8,1.1c-1.2,0-2.1-1-2.1-2.5c0-1.7,1-2.7,2.2-2.7c0.9,0,1.4,0.4,1.6,0.9h0V19
	H79.2z M78.7,23.3c0-0.1,0-0.3-0.1-0.5c-0.2-0.7-0.8-1.2-1.6-1.2c-1.1,0-1.8,0.9-1.8,2.2c0,1.1,0.6,2.1,1.7,2.1
	c0.7,0,1.4-0.5,1.6-1.3c0-0.1,0.1-0.3,0.1-0.4V23.3z M81,23.8c0,1.6,0.9,2.2,1.9,2.2c0.7,0,1.1-0.1,1.4-0.3l0.1,0.4
	c-0.2,0.1-0.7,0.3-1.6,0.3c-1.4,0-2.3-1-2.3-2.5c0-1.7,1-2.7,2.2-2.7c1.6,0,1.9,1.5,1.9,2.2c0,0.1,0,0.2,0,0.3H81z M84.1,23.4
	c0-0.7-0.3-1.7-1.5-1.7c-1.1,0-1.6,1-1.7,1.7H84.1z M93.2,26c-0.4,0.1-1.1,0.4-2,0.4c-0.9,0-1.8-0.2-2.5-0.9c-0.6-0.6-1-1.5-1-2.6
	c0-1.9,1.3-3.6,3.6-3.6c0.7,0,1.4,0.2,1.6,0.3L92.8,20c-0.4-0.2-0.8-0.3-1.5-0.3c-1.9,0-3.1,1.2-3.1,3.1c0,2,1.1,3.1,3,3.1
	c0.7,0,1.2-0.1,1.5-0.2v-2.5h-1.6v-0.4h2.1V26z M95.3,20c0,0.2-0.2,0.4-0.4,0.4c-0.2,0-0.4-0.2-0.4-0.4c0-0.2,0.2-0.4,0.4-0.4
	C95.1,19.5,95.3,19.7,95.3,20z M94.6,26.3v-5h0.5v5H94.6z M96.8,22.6c0-0.5,0-0.8,0-1.2h0.5l0,0.9h0c0.3-0.6,0.9-1,1.7-1
	c0.5,0,1.7,0.2,1.7,2.1v3h-0.5v-2.9c0-0.9-0.4-1.7-1.4-1.7c-0.7,0-1.3,0.5-1.5,1.1c0,0.1-0.1,0.3-0.1,0.4v3.1h-0.5V22.6z
	 M102.8,23.8L102.8,23.8c0.1-0.2,0.3-0.4,0.5-0.5l1.8-1.8h0.6l-2,2.1l2.3,2.9h-0.6l-2-2.6l-0.5,0.5v2.1h-0.5V19h0.5V23.8z
	 M110.8,25.6c0,1.3-0.3,1.9-0.7,2.3c-0.5,0.4-1.1,0.6-1.7,0.6c-0.6,0-1.2-0.1-1.6-0.4l0.2-0.4c0.4,0.2,0.8,0.4,1.5,0.4
	c1,0,1.8-0.5,1.8-2v-0.7h0c-0.3,0.5-0.8,1-1.7,1c-1.2,0-2.1-1.1-2.1-2.4c0-1.7,1.1-2.6,2.2-2.6c1,0,1.5,0.5,1.7,1h0l0-0.8h0.5
	c0,0.4,0,0.8,0,1.3V25.6z M110.3,23.3c0-0.2,0-0.3-0.1-0.5c-0.2-0.6-0.7-1.1-1.5-1.1c-1.1,0-1.8,0.9-1.8,2.2c0,1.1,0.6,2.1,1.8,2.1
	c0.7,0,1.3-0.4,1.5-1.1c0.1-0.2,0.1-0.4,0.1-0.5V23.3z M116.7,23.8c0,1.8-1.3,2.6-2.4,2.6c-1.3,0-2.3-1-2.3-2.6
	c0-1.7,1.1-2.6,2.3-2.6C115.7,21.3,116.7,22.3,116.7,23.8z M112.5,23.9c0,1.2,0.8,2.2,1.8,2.2c1,0,1.8-0.9,1.8-2.2
	c0-0.9-0.5-2.2-1.8-2.2C113.1,21.7,112.5,22.8,112.5,23.9z M120.2,26.3v-4.6h-0.7v-0.4h0.7v-0.3c0-0.8,0.1-1.4,0.5-1.8
	c0.3-0.3,0.7-0.4,1.1-0.4c0.3,0,0.6,0.1,0.7,0.2l-0.2,0.4c-0.1-0.1-0.3-0.1-0.6-0.1c-0.9,0-1.1,0.8-1.1,1.8v0.3h1.3v0.4h-1.3v4.6
	H120.2z M126.7,25.1c0,0.4,0,0.8,0,1.2h-0.5l0-0.9h0c-0.2,0.5-0.8,1-1.7,1c-0.6,0-1.7-0.3-1.7-2.2v-2.9h0.5v2.8
	c0,1.1,0.3,1.8,1.3,1.8c0.7,0,1.2-0.5,1.5-1c0.1-0.2,0.1-0.4,0.1-0.5v-3.1h0.5V25.1z M128.4,23.8c0,1.6,0.9,2.2,1.9,2.2
	c0.7,0,1.1-0.1,1.4-0.3l0.1,0.4c-0.2,0.1-0.7,0.3-1.6,0.3c-1.4,0-2.3-1-2.3-2.5c0-1.7,1-2.7,2.2-2.7c1.6,0,1.9,1.5,1.9,2.2
	c0,0.1,0,0.2,0,0.3H128.4z M131.6,23.4c0-0.7-0.3-1.7-1.5-1.7c-1.1,0-1.6,1-1.7,1.7H131.6z M133.4,22.9c0-0.5,0-1,0-1.5h0.5l0,1h0
	c0.2-0.6,0.7-1.1,1.4-1.1c0.1,0,0.1,0,0.2,0v0.5c-0.1,0-0.1,0-0.2,0c-0.7,0-1.2,0.6-1.3,1.4c0,0.1,0,0.3,0,0.5v2.7h-0.5V22.9z
	 M140.6,23.8c0,1.8-1.3,2.6-2.4,2.6c-1.3,0-2.3-1-2.3-2.6c0-1.7,1.1-2.6,2.3-2.6C139.6,21.3,140.6,22.3,140.6,23.8z M136.4,23.9
	c0,1.2,0.8,2.2,1.8,2.2c1,0,1.8-0.9,1.8-2.2c0-0.9-0.5-2.2-1.8-2.2C137,21.7,136.4,22.8,136.4,23.9z M141.8,22.6c0-0.5,0-0.8,0-1.2
	h0.5l0,0.9h0c0.3-0.6,0.9-1,1.7-1c0.5,0,1.7,0.2,1.7,2.1v3h-0.5v-2.9c0-0.9-0.4-1.7-1.4-1.7c-0.7,0-1.3,0.5-1.5,1.1
	c0,0.1-0.1,0.3-0.1,0.4v3.1h-0.5V22.6z M149.4,25.7c0.3,0.2,0.7,0.3,1.1,0.3c0.8,0,1.2-0.4,1.2-0.9c0-0.5-0.3-0.8-1-1.1
	c-0.8-0.3-1.3-0.8-1.3-1.4c0-0.7,0.6-1.3,1.5-1.3c0.5,0,0.8,0.1,1.1,0.3l-0.2,0.4c-0.2-0.1-0.5-0.3-1-0.3c-0.6,0-1,0.4-1,0.9
	c0,0.5,0.4,0.7,1,1c0.8,0.3,1.3,0.7,1.3,1.5c0,0.8-0.7,1.4-1.7,1.4c-0.5,0-0.9-0.1-1.3-0.3L149.4,25.7z M154.1,20
	c0,0.2-0.2,0.4-0.4,0.4c-0.2,0-0.4-0.2-0.4-0.4c0-0.2,0.2-0.4,0.4-0.4C153.9,19.5,154.1,19.7,154.1,20z M153.5,26.3v-5h0.5v5H153.5z
	 M159.6,25.6c0,1.3-0.3,1.9-0.7,2.3c-0.5,0.4-1.1,0.6-1.7,0.6c-0.6,0-1.2-0.1-1.6-0.4l0.2-0.4c0.4,0.2,0.8,0.4,1.5,0.4
	c1,0,1.8-0.5,1.8-2v-0.7h0c-0.3,0.5-0.8,1-1.7,1c-1.2,0-2.1-1.1-2.1-2.4c0-1.7,1.1-2.6,2.2-2.6c1,0,1.5,0.5,1.7,1h0l0-0.8h0.5
	c0,0.4,0,0.8,0,1.3V25.6z M159.1,23.3c0-0.2,0-0.3-0.1-0.5c-0.2-0.6-0.7-1.1-1.5-1.1c-1.1,0-1.8,0.9-1.8,2.2c0,1.1,0.6,2.1,1.8,2.1
	c0.7,0,1.3-0.4,1.5-1.1c0.1-0.2,0.1-0.4,0.1-0.5V23.3z M161.2,22.6c0-0.5,0-0.8,0-1.2h0.5l0,0.9h0c0.3-0.6,0.9-1,1.7-1
	c0.5,0,1.7,0.2,1.7,2.1v3h-0.5v-2.9c0-0.9-0.4-1.7-1.4-1.7c-0.7,0-1.3,0.5-1.5,1.1c0,0.1-0.1,0.3-0.1,0.4v3.1h-0.5V22.6z M167.4,20
	c0,0.2-0.2,0.4-0.4,0.4c-0.2,0-0.4-0.2-0.4-0.4c0-0.2,0.2-0.4,0.4-0.4C167.2,19.5,167.4,19.7,167.4,20z M166.7,26.3v-5h0.5v5H166.7z
	 M168.9,26.3v-4.6h-0.7v-0.4h0.7v-0.3c0-1.3,0.6-2.2,1.9-2.2c0.4,0,0.9,0.2,1.1,0.3l-0.2,0.4c-0.2-0.2-0.6-0.3-1-0.3
	c-1,0-1.3,0.8-1.3,1.8v0.3h2.8v5h-0.5v-4.6h-2.3v4.6H168.9z M177.3,26.1c-0.2,0.1-0.7,0.3-1.5,0.3c-1.4,0-2.4-1-2.4-2.5
	c0-1.6,1.1-2.6,2.6-2.6c0.6,0,1.1,0.2,1.3,0.3l-0.2,0.4c-0.2-0.1-0.6-0.3-1.2-0.3c-1.3,0-2,1-2,2.2c0,1.3,0.8,2.1,2,2.1
	c0.6,0,1-0.2,1.2-0.3L177.3,26.1z M181.6,25.2c0,0.4,0,0.8,0.1,1.2h-0.5l-0.1-0.7h0c-0.2,0.4-0.8,0.8-1.6,0.8c-1,0-1.5-0.7-1.5-1.4
	c0-1.1,1-1.8,3-1.8v-0.1c0-0.5-0.1-1.5-1.3-1.5c-0.4,0-0.9,0.1-1.2,0.4l-0.2-0.4c0.5-0.3,1-0.4,1.5-0.4c1.4,0,1.7,1.1,1.7,2V25.2z
	 M181.1,23.7c-1.1,0-2.5,0.1-2.5,1.3c0,0.7,0.5,1,1,1c0.8,0,1.3-0.5,1.5-1c0-0.1,0.1-0.2,0.1-0.3V23.7z M183.9,20.3v1.1h1.4v0.4
	h-1.4V25c0,0.6,0.2,1,0.7,1c0.3,0,0.4,0,0.6-0.1l0.1,0.4c-0.2,0.1-0.4,0.1-0.7,0.1c-0.4,0-0.7-0.1-0.8-0.4c-0.2-0.3-0.3-0.7-0.3-1.2
	v-3.1h-0.8v-0.4h0.8v-0.9L183.9,20.3z M187,20c0,0.2-0.2,0.4-0.4,0.4c-0.2,0-0.4-0.2-0.4-0.4c0-0.2,0.2-0.4,0.4-0.4
	C186.8,19.5,187,19.7,187,20z M186.4,26.3v-5h0.5v5H186.4z M188.4,21.4l1.2,3.1c0.2,0.5,0.4,0.9,0.5,1.3h0c0.1-0.4,0.3-0.8,0.5-1.3
	l1.2-3.1h0.5l-2,5h-0.4l-1.9-5H188.4z M196.3,25.2c0,0.4,0,0.8,0.1,1.2h-0.5l-0.1-0.7h0c-0.2,0.4-0.8,0.8-1.6,0.8
	c-1,0-1.5-0.7-1.5-1.4c0-1.1,1-1.8,3-1.8v-0.1c0-0.5-0.1-1.5-1.3-1.5c-0.4,0-0.9,0.1-1.2,0.4l-0.2-0.4c0.5-0.3,1-0.4,1.5-0.4
	c1.4,0,1.7,1.1,1.7,2V25.2z M195.8,23.7c-1.1,0-2.5,0.1-2.5,1.3c0,0.7,0.5,1,1,1c0.8,0,1.3-0.5,1.5-1c0-0.1,0.1-0.2,0.1-0.3V23.7z
	 M197.9,22.6c0-0.5,0-0.8,0-1.2h0.5l0,0.9h0c0.3-0.6,0.8-1,1.6-1c0.7,0,1.2,0.5,1.4,1.1h0c0.1-0.3,0.3-0.5,0.5-0.7
	c0.3-0.3,0.7-0.4,1.2-0.4c0.5,0,1.6,0.3,1.6,2.1v2.9h-0.5v-2.9c0-1.1-0.4-1.8-1.3-1.8c-0.6,0-1.1,0.5-1.3,1c0,0.1-0.1,0.3-0.1,0.5
	v3.2h-0.5v-3.1c0-0.9-0.4-1.5-1.2-1.5c-0.7,0-1.2,0.5-1.4,1.1c0,0.1-0.1,0.3-0.1,0.5v3.1h-0.5V22.6z M206.4,23.8
	c0,1.6,0.9,2.2,1.9,2.2c0.7,0,1.1-0.1,1.4-0.3l0.1,0.4c-0.2,0.1-0.7,0.3-1.6,0.3c-1.4,0-2.3-1-2.3-2.5c0-1.7,1-2.7,2.2-2.7
	c1.6,0,1.9,1.5,1.9,2.2c0,0.1,0,0.2,0,0.3H206.4z M209.6,23.4c0-0.7-0.3-1.7-1.5-1.7c-1.1,0-1.6,1-1.7,1.7H209.6z M211.4,22.6
	c0-0.5,0-0.8,0-1.2h0.5l0,0.9h0c0.3-0.6,0.9-1,1.7-1c0.5,0,1.7,0.2,1.7,2.1v3h-0.5v-2.9c0-0.9-0.4-1.7-1.4-1.7
	c-0.7,0-1.3,0.5-1.5,1.1c0,0.1-0.1,0.3-0.1,0.4v3.1h-0.5V22.6z M217.6,20.3v1.1h1.4v0.4h-1.4V25c0,0.6,0.2,1,0.7,1
	c0.3,0,0.4,0,0.6-0.1l0.1,0.4c-0.2,0.1-0.4,0.1-0.7,0.1c-0.4,0-0.7-0.1-0.8-0.4c-0.2-0.3-0.3-0.7-0.3-1.2v-3.1h-0.8v-0.4h0.8v-0.9
	L217.6,20.3z M220.1,23.8c0,1.6,0.9,2.2,1.9,2.2c0.7,0,1.1-0.1,1.4-0.3l0.1,0.4c-0.2,0.1-0.7,0.3-1.6,0.3c-1.4,0-2.3-1-2.3-2.5
	c0-1.7,1-2.7,2.2-2.7c1.6,0,1.9,1.5,1.9,2.2c0,0.1,0,0.2,0,0.3H220.1z M223.3,23.4c0-0.7-0.3-1.7-1.5-1.7c-1.1,0-1.6,1-1.7,1.7
	H223.3z M231.3,19v6.2c0,0.4,0,0.8,0,1.2h-0.4l0-0.9h0c-0.3,0.5-0.8,1.1-1.8,1.1c-1.2,0-2.1-1-2.1-2.5c0-1.7,1-2.7,2.2-2.7
	c0.9,0,1.4,0.4,1.6,0.9h0V19H231.3z M230.8,23.3c0-0.1,0-0.3-0.1-0.5c-0.2-0.7-0.8-1.2-1.6-1.2c-1.1,0-1.8,0.9-1.8,2.2
	c0,1.1,0.6,2.1,1.7,2.1c0.7,0,1.4-0.5,1.6-1.3c0-0.1,0.1-0.3,0.1-0.4V23.3z M233.6,20c0,0.2-0.2,0.4-0.4,0.4c-0.2,0-0.4-0.2-0.4-0.4
	c0-0.2,0.2-0.4,0.4-0.4C233.4,19.5,233.6,19.7,233.6,20z M232.9,26.3v-5h0.5v5H232.9z M235.1,26.3v-4.6h-0.7v-0.4h0.7v-0.3
	c0-0.8,0.1-1.4,0.5-1.8c0.3-0.3,0.7-0.4,1.1-0.4c0.3,0,0.6,0.1,0.7,0.2l-0.2,0.4c-0.1-0.1-0.3-0.1-0.6-0.1c-0.9,0-1.1,0.8-1.1,1.8
	v0.3h1.3v0.4h-1.3v4.6H235.1z M237.7,23.8c0,1.6,0.9,2.2,1.9,2.2c0.7,0,1.1-0.1,1.4-0.3l0.1,0.4c-0.2,0.1-0.7,0.3-1.6,0.3
	c-1.4,0-2.3-1-2.3-2.5c0-1.7,1-2.7,2.2-2.7c1.6,0,1.9,1.5,1.9,2.2c0,0.1,0,0.2,0,0.3H237.7z M240.9,23.4c0-0.7-0.3-1.7-1.5-1.7
	c-1.1,0-1.6,1-1.7,1.7H240.9z M242.6,22.9c0-0.5,0-1,0-1.5h0.5l0,1h0c0.2-0.6,0.7-1.1,1.4-1.1c0.1,0,0.1,0,0.2,0v0.5
	c-0.1,0-0.1,0-0.2,0c-0.7,0-1.2,0.6-1.3,1.4c0,0.1,0,0.3,0,0.5v2.7h-0.5V22.9z M245.7,23.8c0,1.6,0.9,2.2,1.9,2.2
	c0.7,0,1.1-0.1,1.4-0.3l0.1,0.4c-0.2,0.1-0.7,0.3-1.6,0.3c-1.4,0-2.3-1-2.3-2.5c0-1.7,1-2.7,2.2-2.7c1.6,0,1.9,1.5,1.9,2.2
	c0,0.1,0,0.2,0,0.3H245.7z M248.8,23.4c0-0.7-0.3-1.7-1.5-1.7c-1.1,0-1.6,1-1.7,1.7H248.8z M250.6,22.6c0-0.5,0-0.8,0-1.2h0.5l0,0.9
	h0c0.3-0.6,0.9-1,1.7-1c0.5,0,1.7,0.2,1.7,2.1v3H254v-2.9c0-0.9-0.4-1.7-1.4-1.7c-0.7,0-1.3,0.5-1.5,1.1c0,0.1-0.1,0.3-0.1,0.4v3.1
	h-0.5V22.6z M256.8,20.3v1.1h1.4v0.4h-1.4V25c0,0.6,0.2,1,0.7,1c0.3,0,0.4,0,0.6-0.1l0.1,0.4c-0.2,0.1-0.4,0.1-0.7,0.1
	c-0.4,0-0.7-0.1-0.8-0.4c-0.2-0.3-0.3-0.7-0.3-1.2v-3.1h-0.8v-0.4h0.8v-0.9L256.8,20.3z M259.3,23.8c0,1.6,0.9,2.2,1.9,2.2
	c0.7,0,1.1-0.1,1.4-0.3l0.1,0.4c-0.2,0.1-0.7,0.3-1.6,0.3c-1.4,0-2.3-1-2.3-2.5c0-1.7,1-2.7,2.2-2.7c1.6,0,1.9,1.5,1.9,2.2
	c0,0.1,0,0.2,0,0.3H259.3z M262.5,23.4c0-0.7-0.3-1.7-1.5-1.7c-1.1,0-1.6,1-1.7,1.7H262.5z M264.1,25.7c0.3,0.2,0.7,0.3,1.1,0.3
	c0.8,0,1.2-0.4,1.2-0.9c0-0.5-0.3-0.8-1-1.1c-0.8-0.3-1.3-0.8-1.3-1.4c0-0.7,0.6-1.3,1.5-1.3c0.5,0,0.8,0.1,1.1,0.3l-0.2,0.4
	c-0.2-0.1-0.5-0.3-1-0.3c-0.6,0-1,0.4-1,0.9c0,0.5,0.4,0.7,1,1c0.8,0.3,1.3,0.7,1.3,1.5c0,0.8-0.7,1.4-1.7,1.4
	c-0.5,0-0.9-0.1-1.3-0.3L264.1,25.7z"/>
<g>
	<path class="st0" d="M290.7,108.1l-0.9,1.1v0l1.4-0.2v0.8l-1.4-0.2v0l0.9,1.1l-0.7,0.4l-0.5-1.3l0,0l-0.5,1.3l-0.6-0.4l0.9-1.1v0
		l-1.4,0.2V109l1.4,0.2l0,0l-0.9-1.1l0.7-0.4l0.5,1.3h0l0.5-1.3L290.7,108.1z"/>
	<path class="st0" d="M292,107.9c0.4-0.1,0.9-0.1,1.7-0.1c0.8,0,1.4,0.2,1.8,0.5c0.4,0.3,0.6,0.8,0.6,1.3c0,0.6-0.2,1.1-0.5,1.4
		c-0.4,0.4-1.1,0.6-1.9,0.6c-0.2,0-0.4,0-0.5,0v2.3H292V107.9z M293.1,110.7c0.1,0,0.3,0,0.5,0c0.8,0,1.3-0.4,1.3-1.1
		c0-0.7-0.5-1-1.2-1c-0.3,0-0.5,0-0.6,0.1V110.7z"/>
	<path class="st0" d="M301.4,113.7c-0.3,0.1-0.8,0.3-1.6,0.3c-1.9,0-3.1-1.2-3.1-3.1c0-2,1.4-3.2,3.2-3.2c0.7,0,1.3,0.2,1.5,0.3
		l-0.2,0.9c-0.3-0.1-0.7-0.2-1.2-0.2c-1.2,0-2.1,0.8-2.1,2.2c0,1.3,0.8,2.2,2.1,2.2c0.5,0,0.9-0.1,1.2-0.2L301.4,113.7z"/>
	<path class="st0" d="M303.6,112.2l-0.5,1.7H302l1.9-6.1h1.4l2,6.1h-1.2l-0.5-1.7H303.6z M305.4,111.3l-0.5-1.5
		c-0.1-0.4-0.2-0.8-0.3-1.1h0c-0.1,0.4-0.2,0.8-0.3,1.1l-0.5,1.5H305.4z"/>
	<path class="st0" d="M307.6,115c0.2-0.7,0.5-1.6,0.6-2.4l1.2-0.1c-0.3,0.8-0.7,1.8-1,2.4L307.6,115z"/>
	<path class="st0" d="M312.1,111c0-0.6,0-1,0-1.5h1l0.1,0.7h0c0.3-0.5,0.8-0.8,1.5-0.8c1,0,1.8,0.9,1.8,2.2c0,1.6-1,2.3-2,2.3
		c-0.5,0-1-0.2-1.2-0.6h0v2.3h-1.1V111z M313.2,112.1c0,0.1,0,0.2,0,0.3c0.1,0.5,0.5,0.8,1,0.8c0.7,0,1.1-0.6,1.1-1.5
		c0-0.8-0.4-1.4-1.1-1.4c-0.5,0-0.9,0.3-1,0.8c0,0.1,0,0.2,0,0.3V112.1z"/>
	<path class="st0" d="M321.5,111.7c0,1.6-1.1,2.3-2.3,2.3c-1.2,0-2.2-0.9-2.2-2.3c0-1.4,0.9-2.3,2.3-2.3
		C320.7,109.4,321.5,110.3,321.5,111.7z M318.2,111.7c0,0.8,0.4,1.5,1.1,1.5c0.6,0,1.1-0.6,1.1-1.5c0-0.7-0.3-1.5-1.1-1.5
		C318.5,110.2,318.2,111,318.2,111.7z"/>
	<path class="st0" d="M322.4,110.9c0-0.6,0-1,0-1.4h1l0,0.8h0c0.2-0.6,0.7-0.9,1.2-0.9c0.1,0,0.2,0,0.3,0v1c-0.1,0-0.2,0-0.3,0
		c-0.5,0-0.9,0.3-1,0.8c0,0.1,0,0.2,0,0.3v2.3h-1.1V110.9z"/>
	<path class="st0" d="M327.4,112.9c0.3,0.2,0.7,0.3,1.1,0.3c0.5,0,0.7-0.2,0.7-0.5c0-0.3-0.2-0.5-0.7-0.6c-0.9-0.3-1.2-0.8-1.2-1.3
		c0-0.8,0.6-1.4,1.7-1.4c0.5,0,0.9,0.1,1.2,0.3l-0.2,0.8c-0.2-0.1-0.5-0.3-0.9-0.3c-0.4,0-0.6,0.2-0.6,0.5c0,0.3,0.2,0.4,0.8,0.6
		c0.8,0.3,1.2,0.7,1.2,1.3c0,0.8-0.6,1.4-1.8,1.4c-0.5,0-1-0.1-1.3-0.3L327.4,112.9z"/>
	<path class="st0" d="M335.2,112.6c0,0.5,0,1,0,1.3h-1l-0.1-0.7h0c-0.2,0.3-0.6,0.8-1.4,0.8c-0.8,0-1.5-0.5-1.5-1.9v-2.6h1.1v2.4
		c0,0.7,0.2,1.2,0.8,1.2c0.4,0,0.7-0.3,0.8-0.6c0-0.1,0.1-0.2,0.1-0.3v-2.6h1.1V112.6z"/>
	<path class="st0" d="M336.3,112.9c0.3,0.2,0.7,0.3,1.1,0.3c0.5,0,0.7-0.2,0.7-0.5c0-0.3-0.2-0.5-0.7-0.6c-0.9-0.3-1.2-0.8-1.2-1.3
		c0-0.8,0.6-1.4,1.7-1.4c0.5,0,0.9,0.1,1.2,0.3l-0.2,0.8c-0.2-0.1-0.5-0.3-0.9-0.3c-0.4,0-0.6,0.2-0.6,0.5c0,0.3,0.2,0.4,0.8,0.6
		c0.8,0.3,1.2,0.7,1.2,1.3c0,0.8-0.6,1.4-1.8,1.4c-0.5,0-1-0.1-1.3-0.3L336.3,112.9z"/>
	<path class="st0" d="M341.9,112.9c0.3,0.2,0.7,0.3,1.1,0.3c0.5,0,0.7-0.2,0.7-0.5c0-0.3-0.2-0.5-0.7-0.6c-0.9-0.3-1.2-0.8-1.2-1.3
		c0-0.8,0.6-1.4,1.7-1.4c0.5,0,0.9,0.1,1.2,0.3l-0.2,0.8c-0.2-0.1-0.5-0.3-0.9-0.3c-0.4,0-0.6,0.2-0.6,0.5c0,0.3,0.2,0.4,0.8,0.6
		c0.8,0.3,1.2,0.7,1.2,1.3c0,0.8-0.6,1.4-1.8,1.4c-0.5,0-1-0.1-1.3-0.3L341.9,112.9z"/>
	<path class="st0" d="M346.9,108.3c0,0.3-0.2,0.6-0.6,0.6c-0.4,0-0.6-0.3-0.6-0.6c0-0.3,0.3-0.6,0.6-0.6
		C346.7,107.7,346.9,108,346.9,108.3z M345.7,113.9v-4.4h1.1v4.4H345.7z"/>
	<path class="st0" d="M352.1,109.5c0,0.3,0,0.7,0,1.3v2.5c0,0.9-0.2,1.6-0.6,2c-0.5,0.4-1.1,0.5-1.7,0.5c-0.6,0-1.2-0.1-1.5-0.4
		l0.2-0.8c0.3,0.2,0.7,0.3,1.3,0.3c0.7,0,1.3-0.4,1.3-1.3v-0.4h0c-0.3,0.4-0.7,0.6-1.3,0.6c-1.1,0-1.9-0.9-1.9-2.1
		c0-1.4,0.9-2.3,2-2.3c0.7,0,1.1,0.3,1.3,0.7h0l0-0.6H352.1z M350.9,111.3c0-0.1,0-0.2,0-0.3c-0.1-0.4-0.4-0.7-0.9-0.7
		c-0.6,0-1.1,0.5-1.1,1.4c0,0.7,0.4,1.4,1.1,1.4c0.4,0,0.8-0.3,0.9-0.7c0-0.1,0-0.3,0-0.4V111.3z"/>
	<path class="st0" d="M353.2,107.5h1.1v6.4h-1.1V107.5z"/>
	<path class="st0" d="M358,113.9l-0.1-0.5h0c-0.3,0.3-0.7,0.6-1.3,0.6c-0.9,0-1.4-0.6-1.4-1.3c0-1.1,1-1.7,2.6-1.7V111
		c0-0.3-0.1-0.8-0.9-0.8c-0.4,0-0.9,0.1-1.2,0.3l-0.2-0.7c0.3-0.2,0.9-0.4,1.6-0.4c1.4,0,1.8,0.9,1.8,1.8v1.6c0,0.4,0,0.8,0.1,1.1
		H358z M357.8,111.8c-0.8,0-1.5,0.2-1.5,0.8c0,0.4,0.3,0.6,0.6,0.6c0.4,0,0.8-0.3,0.9-0.6c0-0.1,0-0.2,0-0.2V111.8z"/>
	<path class="st0" d="M360,112.9c0.3,0.2,0.7,0.3,1.1,0.3c0.5,0,0.7-0.2,0.7-0.5c0-0.3-0.2-0.5-0.7-0.6c-0.9-0.3-1.2-0.8-1.2-1.3
		c0-0.8,0.6-1.4,1.7-1.4c0.5,0,0.9,0.1,1.2,0.3l-0.2,0.8c-0.2-0.1-0.5-0.3-0.9-0.3c-0.4,0-0.6,0.2-0.6,0.5c0,0.3,0.2,0.4,0.8,0.6
		c0.8,0.3,1.2,0.7,1.2,1.3c0,0.8-0.6,1.4-1.8,1.4c-0.5,0-1-0.1-1.3-0.3L360,112.9z"/>
	<path class="st0" d="M366.5,112c0,0.8,0.6,1.1,1.4,1.1c0.5,0,0.9-0.1,1.2-0.2l0.2,0.8c-0.4,0.2-0.9,0.3-1.5,0.3
		c-1.4,0-2.3-0.9-2.3-2.2c0-1.2,0.7-2.4,2.1-2.4c1.4,0,1.9,1.2,1.9,2.1c0,0.2,0,0.4,0,0.5H366.5z M368.4,111.2
		c0-0.4-0.2-1.1-0.9-1.1c-0.7,0-1,0.6-1,1.1H368.4z"/>
	<path class="st0" d="M370.3,110.8c0-0.5,0-0.9,0-1.3h1l0.1,0.7h0c0.2-0.3,0.7-0.8,1.4-0.8c0.8,0,1.6,0.5,1.6,1.9v2.6h-1.1v-2.5
		c0-0.6-0.2-1.1-0.8-1.1c-0.4,0-0.7,0.3-0.9,0.6c0,0.1,0,0.2,0,0.4v2.6h-1.1V110.8z"/>
	<path class="st0" d="M378.5,108.3c0,0.3-0.2,0.6-0.6,0.6c-0.4,0-0.6-0.3-0.6-0.6c0-0.3,0.3-0.6,0.6-0.6
		C378.3,107.7,378.5,108,378.5,108.3z M377.4,113.9v-4.4h1.1v4.4H377.4z"/>
	<path class="st0" d="M379.7,110.8c0-0.5,0-0.9,0-1.3h1l0.1,0.7h0c0.2-0.3,0.7-0.8,1.4-0.8c0.8,0,1.6,0.5,1.6,1.9v2.6h-1.1v-2.5
		c0-0.6-0.2-1.1-0.8-1.1c-0.4,0-0.7,0.3-0.9,0.6c0,0.1,0,0.2,0,0.4v2.6h-1.1V110.8z"/>
	<path class="st0" d="M388.8,109.5c0,0.3,0,0.7,0,1.3v2.5c0,0.9-0.2,1.6-0.6,2c-0.5,0.4-1.1,0.5-1.7,0.5c-0.6,0-1.2-0.1-1.5-0.4
		l0.2-0.8c0.3,0.2,0.7,0.3,1.3,0.3c0.7,0,1.3-0.4,1.3-1.3v-0.4h0c-0.3,0.4-0.7,0.6-1.3,0.6c-1.1,0-1.9-0.9-1.9-2.1
		c0-1.4,0.9-2.3,2-2.3c0.7,0,1.1,0.3,1.3,0.7h0l0-0.6H388.8z M387.7,111.3c0-0.1,0-0.2,0-0.3c-0.1-0.4-0.4-0.7-0.9-0.7
		c-0.6,0-1.1,0.5-1.1,1.4c0,0.7,0.4,1.4,1.1,1.4c0.4,0,0.8-0.3,0.9-0.7c0-0.1,0-0.3,0-0.4V111.3z"/>
	<path class="st0" d="M390,107.5h1.1v6.4H390V107.5z"/>
	<path class="st0" d="M393.1,112c0,0.8,0.6,1.1,1.4,1.1c0.5,0,0.9-0.1,1.2-0.2l0.2,0.8c-0.4,0.2-0.9,0.3-1.5,0.3
		c-1.4,0-2.3-0.9-2.3-2.2c0-1.2,0.7-2.4,2.1-2.4c1.4,0,1.9,1.2,1.9,2.1c0,0.2,0,0.4,0,0.5H393.1z M395,111.2c0-0.4-0.2-1.1-0.9-1.1
		c-0.7,0-1,0.6-1,1.1H395z M395.5,107.6l-1.1,1.3h-0.8l0.8-1.3H395.5z"/>
	<path class="st0" d="M396.9,112.9c0.3,0.2,0.7,0.3,1.1,0.3c0.5,0,0.7-0.2,0.7-0.5c0-0.3-0.2-0.5-0.7-0.6c-0.9-0.3-1.2-0.8-1.2-1.3
		c0-0.8,0.6-1.4,1.7-1.4c0.5,0,0.9,0.1,1.2,0.3l-0.2,0.8c-0.2-0.1-0.5-0.3-0.9-0.3c-0.4,0-0.6,0.2-0.6,0.5c0,0.3,0.2,0.4,0.8,0.6
		c0.8,0.3,1.2,0.7,1.2,1.3c0,0.8-0.6,1.4-1.8,1.4c-0.5,0-1-0.1-1.3-0.3L396.9,112.9z"/>
	<path class="st0" d="M400.4,113.3c0-0.4,0.3-0.7,0.7-0.7c0.4,0,0.7,0.3,0.7,0.7c0,0.4-0.3,0.7-0.7,0.7
		C400.7,114,400.4,113.7,400.4,113.3z"/>
</g>
</svg>
