<!-- Generator: Adobe Illustrator 20.1.0, SVG Export Plug-In  -->
<svg version="1.1"
	 xmlns="http://www.w3.org/2000/svg" xmlns:xlink="http://www.w3.org/1999/xlink" xmlns:a="http://ns.adobe.com/AdobeSVGViewerExtensions/3.0/"
	 x="0px" y="0px" width="125.2px" height="56.8px" viewBox="0 0 125.2 56.8"
	 style="overflow:scroll;enable-background:new 0 0 125.2 56.8;" xml:space="preserve">
<style type="text/css">
	.st0{fill:#58595B;}
	.st1{fill:#D51D70;}
</style>
<defs>
</defs>
<g>
	<path class="st0" d="M0.5,7.7C1.1,8,2,8.3,2.9,8.3c1,0,1.5-0.4,1.5-1c0-0.6-0.4-0.9-1.6-1.3C1.2,5.4,0.2,4.5,0.2,3.2
		c0-1.6,1.3-2.8,3.5-2.8c1.1,0,1.8,0.2,2.4,0.5L5.7,2.5c-0.4-0.2-1-0.4-2-0.4C2.8,2.1,2.4,2.5,2.4,3c0,0.6,0.5,0.9,1.7,1.3
		c1.7,0.6,2.4,1.5,2.4,2.8c0,1.6-1.2,2.9-3.8,2.9c-1.1,0-2.1-0.3-2.7-0.6L0.5,7.7z"/>
	<path class="st0" d="M9.7,7.2c0.1,0.9,0.9,1.3,1.9,1.3c0.7,0,1.3-0.1,1.9-0.3l0.3,1.4c-0.7,0.3-1.5,0.4-2.5,0.4
		C9,10,7.7,8.7,7.7,6.6c0-1.7,1.1-3.6,3.4-3.6c2.2,0,3,1.7,3,3.4c0,0.4,0,0.7-0.1,0.8H9.7z M12.2,5.7c0-0.5-0.2-1.4-1.2-1.4
		c-0.9,0-1.3,0.8-1.3,1.4H12.2z"/>
	<path class="st0" d="M18.6,5.3c0-1,0-1.7-0.1-2.2h1.8l0.1,1.3h0.1c0.3-1,1.2-1.4,1.8-1.4c0.2,0,0.3,0,0.4,0v2
		c-0.2,0-0.3-0.1-0.6-0.1c-0.8,0-1.3,0.4-1.4,1.1c0,0.1,0,0.3,0,0.5v3.5h-2.1V5.3z"/>
	<path class="st0" d="M25.6,7.2c0.1,0.9,0.9,1.3,1.9,1.3c0.7,0,1.3-0.1,1.9-0.3l0.3,1.4C29,9.9,28.2,10,27.3,10
		c-2.3,0-3.6-1.3-3.6-3.5c0-1.7,1.1-3.6,3.4-3.6c2.2,0,3,1.7,3,3.4c0,0.4,0,0.7-0.1,0.8H25.6z M28.1,5.7c0-0.5-0.2-1.4-1.2-1.4
		c-0.9,0-1.3,0.8-1.3,1.4H28.1z"/>
	<path class="st0" d="M31.5,0h2.1v9.9h-2.1V0z"/>
	<path class="st0" d="M39.4,9.9l-0.1-0.7h0c-0.4,0.5-1.1,0.8-1.9,0.8c-1.4,0-2.2-1-2.2-2.1c0-1.8,1.6-2.6,4-2.6V5.2
		c0-0.4-0.2-0.9-1.2-0.9c-0.7,0-1.4,0.2-1.9,0.5l-0.4-1.4C36,3.3,37,2.9,38.2,2.9c2.3,0,3,1.3,3,2.9v2.4c0,0.7,0,1.3,0.1,1.7H39.4z
		 M39.1,6.7c-1.1,0-2,0.3-2,1.1c0,0.5,0.4,0.8,0.8,0.8c0.5,0,1-0.3,1.1-0.8c0-0.1,0-0.2,0-0.4V6.7z"/>
	<path class="st0" d="M48.1,9.7C47.8,9.9,47,10,46.2,10c-2.2,0-3.6-1.3-3.6-3.5c0-2,1.4-3.6,3.9-3.6c0.6,0,1.2,0.1,1.6,0.3l-0.3,1.6
		c-0.3-0.1-0.6-0.2-1.2-0.2c-1.1,0-1.8,0.8-1.8,1.9c0,1.3,0.8,1.9,1.9,1.9c0.5,0,0.9-0.1,1.2-0.2L48.1,9.7z"/>
	<path class="st0" d="M51.6,1.2c0,0.6-0.4,1.1-1.1,1.1c-0.7,0-1.1-0.5-1.1-1.1c0-0.6,0.4-1.1,1.1-1.1C51.2,0.1,51.6,0.6,51.6,1.2z
		 M49.5,9.9V3.1h2.1v6.8H49.5z"/>
	<path class="st0" d="M60.2,6.4c0,2.5-1.8,3.6-3.6,3.6c-2,0-3.5-1.3-3.5-3.5c0-2.2,1.4-3.6,3.6-3.6C58.8,2.9,60.2,4.4,60.2,6.4z
		 M55.2,6.5c0,1.2,0.5,2,1.4,2c0.8,0,1.3-0.8,1.3-2c0-1-0.4-2-1.3-2C55.6,4.4,55.2,5.5,55.2,6.5z"/>
	<path class="st0" d="M61.6,5.2c0-0.8,0-1.6-0.1-2.2h1.8L63.5,4h0c0.3-0.4,1-1.1,2.1-1.1c1.4,0,2.4,0.9,2.4,2.9v4H66V6.1
		c0-0.9-0.3-1.5-1.1-1.5c-0.6,0-0.9,0.4-1.1,0.8c-0.1,0.1-0.1,0.3-0.1,0.5v3.9h-2.1V5.2z"/>
	<path class="st0" d="M73.8,9.9l-0.1-0.7h0c-0.4,0.5-1.1,0.8-1.9,0.8c-1.4,0-2.2-1-2.2-2.1c0-1.8,1.6-2.6,4-2.6V5.2
		c0-0.4-0.2-0.9-1.2-0.9c-0.7,0-1.4,0.2-1.9,0.5L70,3.5c0.5-0.3,1.4-0.6,2.6-0.6c2.3,0,3,1.3,3,2.9v2.4c0,0.7,0,1.3,0.1,1.7H73.8z
		 M73.6,6.7c-1.1,0-2,0.3-2,1.1c0,0.5,0.4,0.8,0.8,0.8c0.5,0,1-0.3,1.1-0.8c0-0.1,0-0.2,0-0.4V6.7z"/>
	<path class="st0" d="M85.6,1v7.3c0,0.5,0,1.2,0,1.6h-1l-0.1-1.1h0c-0.3,0.7-1.1,1.2-2.1,1.2c-1.5,0-2.6-1.2-2.6-3.1
		c0-2,1.2-3.3,2.7-3.3c0.9,0,1.6,0.4,1.8,0.9h0V1H85.6z M84.5,6.3c0-0.1,0-0.3-0.1-0.5c-0.2-0.7-0.8-1.3-1.6-1.3
		c-1.1,0-1.8,1-1.8,2.3c0,1.2,0.6,2.2,1.8,2.2c0.7,0,1.4-0.5,1.6-1.3c0-0.2,0.1-0.3,0.1-0.5V6.3z"/>
	<path class="st0" d="M88.2,7.1c0,1.5,1,2.1,2.1,2.1c0.8,0,1.3-0.1,1.7-0.3l0.2,0.8c-0.4,0.2-1.1,0.4-2,0.4c-1.9,0-3-1.2-3-3.1
		c0-1.8,1.1-3.3,2.8-3.3c2,0,2.5,1.7,2.5,2.9c0,0.2,0,0.4,0,0.5H88.2z M91.4,6.3c0-0.7-0.3-1.8-1.5-1.8c-1.1,0-1.6,1-1.7,1.8H91.4z"
		/>
	<path class="st0" d="M0.5,20.5c0-0.6,0-1.1-0.1-1.6h1l0.1,1h0c0.3-0.6,0.9-1.1,1.9-1.1c0.8,0,1.5,0.5,1.7,1.2h0
		c0.2-0.3,0.4-0.6,0.7-0.8c0.4-0.3,0.8-0.4,1.3-0.4c0.8,0,2,0.5,2,2.6v3.6H8v-3.4c0-1.2-0.4-1.9-1.3-1.9c-0.6,0-1.1,0.5-1.3,1
		c0,0.2-0.1,0.4-0.1,0.6v3.7H4.2v-3.6c0-1-0.4-1.7-1.3-1.7c-0.7,0-1.2,0.6-1.4,1.1c-0.1,0.2-0.1,0.4-0.1,0.5v3.7H0.5V20.5z"/>
	<path class="st0" d="M14.4,24.9l-0.1-0.8h0c-0.3,0.5-1,0.9-1.9,0.9c-1.2,0-1.9-0.9-1.9-1.7c0-1.5,1.3-2.3,3.6-2.3v-0.1
		c0-0.5-0.1-1.4-1.4-1.4c-0.6,0-1.2,0.2-1.6,0.5L11,19.2c0.5-0.3,1.2-0.5,2-0.5c1.9,0,2.3,1.3,2.3,2.5v2.3c0,0.5,0,1,0.1,1.5H14.4z
		 M14.2,21.8c-1.2,0-2.6,0.2-2.6,1.4c0,0.7,0.5,1.1,1,1.1c0.8,0,1.3-0.5,1.5-1c0-0.1,0.1-0.2,0.1-0.3V21.8z"/>
	<path class="st0" d="M17.2,20.5c0-0.6,0-1.1-0.1-1.6h1l0.1,1h0c0.3-0.6,1-1.1,2-1.1c0.8,0,2.1,0.5,2.1,2.6v3.6h-1.1v-3.5
		c0-1-0.4-1.8-1.4-1.8c-0.7,0-1.3,0.5-1.5,1.1c0,0.1-0.1,0.3-0.1,0.5v3.6h-1.1V20.5z"/>
	<path class="st0" d="M24.9,22.1c0,1.5,1,2.1,2.1,2.1c0.8,0,1.3-0.1,1.7-0.3l0.2,0.8c-0.4,0.2-1.1,0.4-2,0.4c-1.9,0-3-1.2-3-3.1
		c0-1.8,1.1-3.3,2.8-3.3c2,0,2.5,1.7,2.5,2.9c0,0.2,0,0.4,0,0.5H24.9z M28.2,21.3c0-0.7-0.3-1.8-1.5-1.8c-1.1,0-1.6,1-1.7,1.8H28.2z
		"/>
	<path class="st0" d="M30.8,20.7c0-0.7,0-1.3-0.1-1.9h1l0,1.2h0.1c0.3-0.8,0.9-1.3,1.7-1.3c0.1,0,0.2,0,0.3,0v1c-0.1,0-0.2,0-0.4,0
		c-0.8,0-1.3,0.6-1.5,1.4c0,0.2,0,0.3,0,0.5v3.2h-1.1V20.7z"/>
	<path class="st0" d="M38.3,24.9l-0.1-0.8h0c-0.3,0.5-1,0.9-1.9,0.9c-1.2,0-1.9-0.9-1.9-1.7c0-1.5,1.3-2.3,3.6-2.3v-0.1
		c0-0.5-0.1-1.4-1.4-1.4c-0.6,0-1.2,0.2-1.6,0.5L35,19.2c0.5-0.3,1.2-0.5,2-0.5c1.9,0,2.3,1.3,2.3,2.5v2.3c0,0.5,0,1,0.1,1.5H38.3z
		 M38.2,21.8c-1.2,0-2.6,0.2-2.6,1.4c0,0.7,0.5,1.1,1,1.1c0.8,0,1.3-0.5,1.5-1c0-0.1,0.1-0.2,0.1-0.3V21.8z"/>
	<path class="st0" d="M45.2,17.1c0,0.4-0.3,0.7-0.7,0.7c-0.4,0-0.7-0.3-0.7-0.7c0-0.4,0.3-0.7,0.7-0.7
		C44.9,16.5,45.2,16.8,45.2,17.1z M44,24.9v-6.1h1.1v6.1H44z"/>
	<path class="st0" d="M47.1,20.5c0-0.6,0-1.1-0.1-1.6h1l0.1,1h0c0.3-0.6,0.9-1.1,1.9-1.1c0.8,0,1.5,0.5,1.7,1.2h0
		c0.2-0.3,0.4-0.6,0.7-0.8c0.4-0.3,0.8-0.4,1.3-0.4c0.8,0,2,0.5,2,2.6v3.6h-1.1v-3.4c0-1.2-0.4-1.9-1.3-1.9c-0.6,0-1.1,0.5-1.3,1
		c0,0.2-0.1,0.4-0.1,0.6v3.7h-1.1v-3.6c0-1-0.4-1.7-1.3-1.7c-0.7,0-1.2,0.6-1.4,1.1c-0.1,0.2-0.1,0.4-0.1,0.5v3.7h-1.1V20.5z"/>
	<path class="st0" d="M57.7,20.8c0-0.8,0-1.4-0.1-2h1l0,1h0c0.5-0.7,1.2-1.2,2.2-1.2c1.5,0,2.6,1.2,2.6,3.1c0,2.2-1.3,3.3-2.8,3.3
		c-0.8,0-1.5-0.4-1.9-1h0v3.3h-1.1V20.8z M58.7,22.4c0,0.2,0,0.3,0.1,0.5c0.2,0.8,0.9,1.3,1.7,1.3c1.2,0,1.8-1,1.8-2.3
		c0-1.2-0.6-2.3-1.8-2.3c-0.8,0-1.5,0.5-1.7,1.4c0,0.1-0.1,0.3-0.1,0.5V22.4z"/>
	<path class="st0" d="M70.4,21.8c0,2.2-1.6,3.2-3,3.2c-1.6,0-2.9-1.2-2.9-3.1c0-2,1.3-3.2,3-3.2C69.2,18.7,70.4,20,70.4,21.8z
		 M65.6,21.9c0,1.3,0.8,2.3,1.8,2.3c1.1,0,1.8-1,1.8-2.4c0-1-0.5-2.3-1.8-2.3C66.2,19.5,65.6,20.7,65.6,21.9z"/>
	<path class="st0" d="M71.9,20.7c0-0.7,0-1.3-0.1-1.9h1l0,1.2H73c0.3-0.8,0.9-1.3,1.7-1.3c0.1,0,0.2,0,0.3,0v1c-0.1,0-0.2,0-0.4,0
		c-0.8,0-1.3,0.6-1.5,1.4c0,0.2,0,0.3,0,0.5v3.2h-1.1V20.7z"/>
	<path class="st0" d="M77.5,17.1v1.7h1.6v0.8h-1.6V23c0,0.8,0.2,1.2,0.8,1.2c0.3,0,0.5,0,0.6-0.1l0.1,0.8c-0.2,0.1-0.6,0.2-1,0.2
		c-0.5,0-0.9-0.2-1.2-0.5c-0.3-0.3-0.4-0.9-0.4-1.6v-3.3h-0.9v-0.8h0.9v-1.5L77.5,17.1z"/>
	<path class="st0" d="M83.8,24.9l-0.1-0.8h0c-0.3,0.5-1,0.9-1.9,0.9c-1.2,0-1.9-0.9-1.9-1.7c0-1.5,1.3-2.3,3.6-2.3v-0.1
		c0-0.5-0.1-1.4-1.4-1.4c-0.6,0-1.2,0.2-1.6,0.5l-0.3-0.7c0.5-0.3,1.2-0.5,2-0.5c1.9,0,2.3,1.3,2.3,2.5v2.3c0,0.5,0,1,0.1,1.5H83.8z
		 M83.7,21.8c-1.2,0-2.6,0.2-2.6,1.4c0,0.7,0.5,1.1,1,1.1c0.8,0,1.3-0.5,1.5-1c0-0.1,0.1-0.2,0.1-0.3V21.8z"/>
	<path class="st0" d="M86.7,20.5c0-0.6,0-1.1-0.1-1.6h1l0.1,1h0c0.3-0.6,1-1.1,2-1.1c0.8,0,2.1,0.5,2.1,2.6v3.6h-1.1v-3.5
		c0-1-0.4-1.8-1.4-1.8c-0.7,0-1.3,0.5-1.5,1.1c0,0.1-0.1,0.3-0.1,0.5v3.6h-1.1V20.5z"/>
	<path class="st0" d="M95.1,17.1v1.7h1.6v0.8h-1.6V23c0,0.8,0.2,1.2,0.8,1.2c0.3,0,0.5,0,0.6-0.1l0,0.8c-0.2,0.1-0.6,0.2-1,0.2
		c-0.5,0-0.9-0.2-1.2-0.5C94.1,24.2,94,23.7,94,23v-3.3h-0.9v-0.8H94v-1.5L95.1,17.1z"/>
	<path class="st0" d="M98.7,22.1c0,1.5,1,2.1,2.1,2.1c0.8,0,1.3-0.1,1.7-0.3l0.2,0.8c-0.4,0.2-1.1,0.4-2,0.4c-1.9,0-3-1.2-3-3.1
		c0-1.8,1.1-3.3,2.8-3.3c2,0,2.5,1.7,2.5,2.9c0,0.2,0,0.4,0,0.5H98.7z M101.9,21.3c0-0.7-0.3-1.8-1.5-1.8c-1.1,0-1.6,1-1.7,1.8
		H101.9z"/>
	<path class="st0" d="M111.6,24.7c-0.3,0.2-0.9,0.4-1.7,0.4c-1.8,0-3-1.2-3-3.1c0-1.9,1.3-3.2,3.3-3.2c0.7,0,1.2,0.2,1.5,0.3
		l-0.3,0.9c-0.3-0.2-0.7-0.3-1.3-0.3c-1.4,0-2.1,1-2.1,2.3c0,1.4,0.9,2.3,2.1,2.3c0.6,0,1-0.2,1.4-0.3L111.6,24.7z"/>
	<path class="st0" d="M118.5,21.8c0,2.2-1.6,3.2-3,3.2c-1.6,0-2.9-1.2-2.9-3.1c0-2,1.3-3.2,3-3.2C117.4,18.7,118.5,20,118.5,21.8z
		 M113.7,21.9c0,1.3,0.8,2.3,1.8,2.3c1.1,0,1.8-1,1.8-2.4c0-1-0.5-2.3-1.8-2.3C114.3,19.5,113.7,20.7,113.7,21.9z"/>
	<path class="st0" d="M120.1,20.5c0-0.6,0-1.1-0.1-1.6h1l0.1,1h0c0.3-0.6,1-1.1,2-1.1c0.8,0,2.1,0.5,2.1,2.6v3.6h-1.1v-3.5
		c0-1-0.4-1.8-1.4-1.8c-0.7,0-1.3,0.5-1.5,1.1c0,0.1-0.1,0.3-0.1,0.5v3.6h-1.1V20.5z"/>
	<path class="st0" d="M1.1,37.1c0,1.5,1,2.1,2.1,2.1c0.8,0,1.3-0.1,1.7-0.3L5,39.7c-0.4,0.2-1.1,0.4-2,0.4c-1.9,0-3-1.2-3-3.1
		c0-1.8,1.1-3.3,2.8-3.3c2,0,2.5,1.7,2.5,2.9c0,0.2,0,0.4,0,0.5H1.1z M4.3,36.3c0-0.7-0.3-1.8-1.5-1.8c-1.1,0-1.6,1-1.7,1.8H4.3z"/>
	<path class="st0" d="M6.9,35.5c0-0.6,0-1.1-0.1-1.6h1l0.1,1h0c0.3-0.6,1-1.1,2-1.1c0.8,0,2.1,0.5,2.1,2.6v3.6h-1.1v-3.5
		c0-1-0.4-1.8-1.4-1.8c-0.7,0-1.3,0.5-1.5,1.1C8,35.9,8,36.1,8,36.3v3.6H6.9V35.5z"/>
	<path class="st0" d="M14.1,39.9v-5.2h-0.9v-0.8h0.9v-0.3c0-0.9,0.2-1.6,0.7-2.1c0.4-0.4,1-0.6,1.5-0.6c0.4,0,0.7,0.1,0.9,0.2
		l-0.2,0.9c-0.2-0.1-0.4-0.1-0.7-0.1c-0.9,0-1.2,0.8-1.2,1.8v0.3h1.5v0.8h-1.5v5.2H14.1z"/>
	<path class="st0" d="M18.4,37.1c0,1.5,1,2.1,2.1,2.1c0.8,0,1.3-0.1,1.7-0.3l0.2,0.8c-0.4,0.2-1.1,0.4-2,0.4c-1.9,0-3-1.2-3-3.1
		c0-1.8,1.1-3.3,2.8-3.3c2,0,2.5,1.7,2.5,2.9c0,0.2,0,0.4,0,0.5H18.4z M21.6,36.3c0-0.7-0.3-1.8-1.5-1.8c-1.1,0-1.6,1-1.7,1.8H21.6z
		"/>
	<path class="st0" d="M24.2,35.8c0-0.7,0-1.3-0.1-1.9h1l0,1.2h0.1c0.3-0.8,0.9-1.3,1.7-1.3c0.1,0,0.2,0,0.3,0v1c-0.1,0-0.2,0-0.4,0
		c-0.8,0-1.3,0.6-1.5,1.4c0,0.2,0,0.3,0,0.5v3.2h-1.1V35.8z"/>
	<path class="st0" d="M28.4,35.5c0-0.6,0-1.1-0.1-1.6h1l0.1,1h0c0.3-0.6,0.9-1.1,1.9-1.1c0.8,0,1.5,0.5,1.7,1.2h0
		c0.2-0.3,0.4-0.6,0.7-0.8c0.4-0.3,0.8-0.4,1.3-0.4c0.8,0,2,0.5,2,2.6v3.6H36v-3.4c0-1.2-0.4-1.9-1.3-1.9c-0.6,0-1.1,0.5-1.3,1
		c0,0.2-0.1,0.4-0.1,0.6v3.7h-1.1v-3.6c0-1-0.4-1.7-1.3-1.7c-0.7,0-1.2,0.6-1.4,1.1c-0.1,0.2-0.1,0.4-0.1,0.5v3.7h-1.1V35.5z"/>
	<path class="st0" d="M39.7,37.1c0,1.5,1,2.1,2.1,2.1c0.8,0,1.3-0.1,1.7-0.3l0.2,0.8c-0.4,0.2-1.1,0.4-2,0.4c-1.9,0-3-1.2-3-3.1
		c0-1.8,1.1-3.3,2.8-3.3c2,0,2.5,1.7,2.5,2.9c0,0.2,0,0.4,0,0.5H39.7z M42.9,36.3c0-0.7-0.3-1.8-1.5-1.8c-1.1,0-1.6,1-1.7,1.8H42.9z
		"/>
	<path class="st0" d="M50.7,31v7.3c0,0.5,0,1.2,0,1.6h-1l-0.1-1.1h0c-0.3,0.7-1.1,1.2-2.1,1.2c-1.5,0-2.6-1.2-2.6-3.1
		c0-2,1.2-3.3,2.7-3.3c0.9,0,1.6,0.4,1.8,0.9h0V31H50.7z M49.6,36.3c0-0.1,0-0.3-0.1-0.5c-0.2-0.7-0.8-1.3-1.6-1.3
		c-1.1,0-1.8,1-1.8,2.3c0,1.2,0.6,2.2,1.8,2.2c0.7,0,1.4-0.5,1.6-1.3c0-0.2,0.1-0.3,0.1-0.5V36.3z"/>
	<path class="st0" d="M56,39.9l-0.1-0.8h0c-0.3,0.5-1,0.9-1.9,0.9c-1.2,0-1.9-0.9-1.9-1.7c0-1.5,1.3-2.3,3.6-2.3v-0.1
		c0-0.5-0.1-1.4-1.4-1.4c-0.6,0-1.2,0.2-1.6,0.5l-0.3-0.7c0.5-0.3,1.2-0.5,2-0.5c1.9,0,2.3,1.3,2.3,2.5v2.3c0,0.5,0,1,0.1,1.5H56z
		 M55.9,36.8c-1.2,0-2.6,0.2-2.6,1.4c0,0.7,0.5,1.1,1,1.1c0.8,0,1.3-0.5,1.5-1c0-0.1,0.1-0.2,0.1-0.3V36.8z"/>
	<path class="st0" d="M64.1,31v7.3c0,0.5,0,1.2,0,1.6h-1l-0.1-1.1h0c-0.3,0.7-1.1,1.2-2.1,1.2c-1.5,0-2.6-1.2-2.6-3.1
		c0-2,1.2-3.3,2.7-3.3c0.9,0,1.6,0.4,1.8,0.9h0V31H64.1z M63,36.3c0-0.1,0-0.3-0.1-0.5c-0.2-0.7-0.8-1.3-1.6-1.3
		c-1.1,0-1.8,1-1.8,2.3c0,1.2,0.6,2.2,1.8,2.2c0.7,0,1.4-0.5,1.6-1.3c0-0.2,0.1-0.3,0.1-0.5V36.3z"/>
	<path class="st0" d="M66.7,37.1c0,1.5,1,2.1,2.1,2.1c0.8,0,1.3-0.1,1.7-0.3l0.2,0.8c-0.4,0.2-1.1,0.4-2,0.4c-1.9,0-3-1.2-3-3.1
		c0-1.8,1.1-3.3,2.8-3.3c2,0,2.5,1.7,2.5,2.9c0,0.2,0,0.4,0,0.5H66.7z M69.9,36.3c0-0.7-0.3-1.8-1.5-1.8c-1.1,0-1.6,1-1.7,1.8H69.9z
		"/>
	<path class="st0" d="M72.3,38.8c0.3,0.2,0.9,0.4,1.5,0.4c0.8,0,1.2-0.4,1.2-0.9c0-0.5-0.3-0.8-1.1-1.1c-1.1-0.4-1.6-1-1.6-1.7
		c0-1,0.8-1.8,2.1-1.8c0.6,0,1.2,0.2,1.5,0.4l-0.3,0.8c-0.2-0.2-0.7-0.4-1.2-0.4c-0.7,0-1,0.4-1,0.8c0,0.5,0.4,0.7,1.2,1
		c1.1,0.4,1.6,0.9,1.6,1.8c0,1.1-0.8,1.8-2.3,1.8c-0.7,0-1.3-0.2-1.7-0.4L72.3,38.8z"/>
	<path class="st1" d="M5.5,56.5c-0.4,0.2-1.1,0.3-1.9,0.3c-2.2,0-3.6-1.3-3.6-3.5c0-2,1.4-3.6,3.9-3.6c0.6,0,1.2,0.1,1.6,0.3
		l-0.3,1.6c-0.3-0.1-0.6-0.2-1.2-0.2c-1.1,0-1.8,0.8-1.8,1.9c0,1.3,0.8,1.9,1.9,1.9c0.5,0,0.9-0.1,1.2-0.2L5.5,56.5z"/>
	<path class="st1" d="M6.7,52.1c0-1,0-1.7-0.1-2.2h1.8l0.1,1.3h0.1c0.3-1,1.2-1.4,1.8-1.4c0.2,0,0.3,0,0.4,0v2
		c-0.2,0-0.3-0.1-0.6-0.1c-0.8,0-1.3,0.4-1.4,1.1c0,0.1,0,0.3,0,0.5v3.5H6.7V52.1z"/>
	<path class="st1" d="M18.7,53.1c0,2.5-1.8,3.6-3.6,3.6c-2,0-3.5-1.3-3.5-3.5c0-2.2,1.4-3.6,3.6-3.6C17.3,49.7,18.7,51.1,18.7,53.1z
		 M13.7,53.2c0,1.2,0.5,2,1.4,2c0.8,0,1.4-0.8,1.4-2c0-1-0.4-2-1.4-2C14.1,51.2,13.7,52.2,13.7,53.2z M17.3,46.9L15.6,49h-1.5
		l1.2-2.1H17.3z"/>
	<path class="st1" d="M20,52c0-0.8,0-1.6-0.1-2.2h1.8l0.1,0.9h0c0.3-0.4,1-1.1,2.1-1.1c1.4,0,2.4,0.9,2.4,2.9v4h-2.1v-3.8
		c0-0.9-0.3-1.5-1.1-1.5c-0.6,0-0.9,0.4-1.1,0.8c-0.1,0.1-0.1,0.3-0.1,0.5v3.9H20V52z"/>
	<path class="st1" d="M30.3,47.9c0,0.6-0.4,1.1-1.1,1.1c-0.7,0-1.1-0.5-1.1-1.1c0-0.6,0.4-1.1,1.1-1.1
		C29.9,46.9,30.3,47.3,30.3,47.9z M28.1,56.6v-6.8h2.1v6.8H28.1z"/>
	<path class="st1" d="M37,56.5c-0.4,0.2-1.1,0.3-1.9,0.3c-2.2,0-3.6-1.3-3.6-3.5c0-2,1.4-3.6,3.9-3.6c0.6,0,1.2,0.1,1.6,0.3
		l-0.3,1.6c-0.3-0.1-0.6-0.2-1.2-0.2c-1.1,0-1.8,0.8-1.8,1.9c0,1.3,0.8,1.9,1.9,1.9c0.5,0,0.9-0.1,1.2-0.2L37,56.5z"/>
	<path class="st1" d="M42.1,56.6L42,55.9h0c-0.4,0.5-1.1,0.8-1.9,0.8c-1.4,0-2.2-1-2.2-2.1c0-1.8,1.6-2.6,4-2.6V52
		c0-0.4-0.2-0.9-1.2-0.9c-0.7,0-1.4,0.2-1.9,0.5l-0.4-1.4c0.5-0.3,1.4-0.6,2.6-0.6c2.3,0,3,1.3,3,2.9V55c0,0.7,0,1.3,0.1,1.7H42.1z
		 M41.8,53.4c-1.1,0-2,0.3-2,1.1c0,0.5,0.4,0.8,0.8,0.8c0.5,0,1-0.3,1.1-0.8c0-0.1,0-0.2,0-0.4V53.4z"/>
	<path class="st1" d="M45.5,54.8c0.4,0.2,1.2,0.5,1.8,0.5c0.6,0,0.9-0.2,0.9-0.6c0-0.3-0.2-0.5-1-0.8c-1.4-0.5-1.9-1.2-1.9-2
		c0-1.3,1.1-2.2,2.8-2.2c0.8,0,1.5,0.2,1.9,0.4l-0.4,1.5c-0.3-0.2-0.9-0.4-1.5-0.4c-0.5,0-0.8,0.2-0.8,0.6c0,0.3,0.3,0.5,1.1,0.8
		c1.3,0.4,1.8,1.1,1.9,2.1c0,1.3-1,2.2-3,2.2c-0.9,0-1.7-0.2-2.2-0.5L45.5,54.8z"/>
	<path class="st1" d="M54.6,56.6v-5.2h-0.9v-1.6h0.9v-0.3c0-0.8,0.3-1.7,0.9-2.3c0.5-0.5,1.3-0.7,1.9-0.7c0.5,0,0.8,0.1,1.1,0.1
		l-0.1,1.6c-0.2-0.1-0.4-0.1-0.7-0.1c-0.7,0-1,0.5-1,1.2v0.3h1.4v1.6h-1.3v5.2H54.6z"/>
	<path class="st1" d="M59.1,52.1c0-1,0-1.7-0.1-2.2h1.8l0.1,1.3H61c0.3-1,1.2-1.4,1.8-1.4c0.2,0,0.3,0,0.4,0v2
		c-0.2,0-0.3-0.1-0.6-0.1c-0.8,0-1.3,0.4-1.4,1.1c0,0.1,0,0.3,0,0.5v3.5h-2.1V52.1z"/>
	<path class="st1" d="M66.1,53.9c0.1,0.9,0.9,1.3,1.9,1.3c0.7,0,1.3-0.1,1.9-0.3l0.3,1.4c-0.7,0.3-1.5,0.4-2.5,0.4
		c-2.3,0-3.6-1.3-3.6-3.5c0-1.7,1.1-3.6,3.4-3.6c2.2,0,3,1.7,3,3.4c0,0.4,0,0.7-0.1,0.8H66.1z M68.6,52.4c0-0.5-0.2-1.4-1.2-1.4
		c-0.9,0-1.3,0.8-1.3,1.4H68.6z"/>
	<path class="st1" d="M76.9,56.5c-0.4,0.2-1.1,0.3-1.9,0.3c-2.2,0-3.6-1.3-3.6-3.5c0-2,1.4-3.6,3.9-3.6c0.6,0,1.2,0.1,1.6,0.3
		l-0.3,1.6c-0.3-0.1-0.6-0.2-1.2-0.2c-1.1,0-1.8,0.8-1.8,1.9c0,1.3,0.8,1.9,1.9,1.9c0.5,0,0.9-0.1,1.2-0.2L76.9,56.5z"/>
	<path class="st1" d="M84.5,54.4c0,0.9,0,1.6,0.1,2.2h-1.8l-0.1-1h0c-0.3,0.4-0.9,1.1-2.1,1.1c-1.4,0-2.4-0.9-2.4-3v-4h2.1v3.7
		c0,1,0.3,1.6,1.1,1.6c0.6,0,0.9-0.4,1.1-0.7c0.1-0.1,0.1-0.3,0.1-0.5v-4h2.1V54.4z"/>
	<path class="st1" d="M87.8,53.9c0.1,0.9,0.9,1.3,1.9,1.3c0.7,0,1.3-0.1,1.9-0.3l0.3,1.4c-0.7,0.3-1.5,0.4-2.5,0.4
		c-2.3,0-3.6-1.3-3.6-3.5c0-1.7,1.1-3.6,3.4-3.6c2.2,0,3,1.7,3,3.4c0,0.4,0,0.7-0.1,0.8H87.8z M90.3,52.4c0-0.5-0.2-1.4-1.2-1.4
		c-0.9,0-1.3,0.8-1.3,1.4H90.3z"/>
	<path class="st1" d="M93.5,52c0-0.8,0-1.6-0.1-2.2h1.8l0.1,0.9h0c0.3-0.4,1-1.1,2.1-1.1c1.4,0,2.4,0.9,2.4,2.9v4h-2.1v-3.8
		c0-0.9-0.3-1.5-1.1-1.5c-0.6,0-0.9,0.4-1.1,0.8c-0.1,0.1-0.1,0.3-0.1,0.5v3.9h-2.1V52z"/>
	<path class="st1" d="M104,47.9v1.9h1.5v1.6H104v2.5c0,0.8,0.2,1.2,0.8,1.2c0.3,0,0.5,0,0.6-0.1l0,1.6c-0.3,0.1-0.8,0.2-1.4,0.2
		c-0.7,0-1.3-0.2-1.6-0.6c-0.4-0.4-0.6-1.1-0.6-2v-2.8H101v-1.6h0.9v-1.5L104,47.9z"/>
	<path class="st1" d="M108.4,53.9c0.1,0.9,0.9,1.3,1.9,1.3c0.7,0,1.3-0.1,1.9-0.3l0.3,1.4c-0.7,0.3-1.5,0.4-2.5,0.4
		c-2.3,0-3.6-1.3-3.6-3.5c0-1.7,1.1-3.6,3.4-3.6c2.2,0,3,1.7,3,3.4c0,0.4,0,0.7-0.1,0.8H108.4z M110.9,52.4c0-0.5-0.2-1.4-1.2-1.4
		c-0.9,0-1.3,0.8-1.3,1.4H110.9z"/>
	<path class="st1" d="M114.1,54.8c0.4,0.2,1.2,0.5,1.8,0.5c0.6,0,0.9-0.2,0.9-0.6c0-0.3-0.2-0.5-1-0.8c-1.4-0.5-1.9-1.2-1.9-2
		c0-1.3,1.1-2.2,2.8-2.2c0.8,0,1.5,0.2,1.9,0.4l-0.4,1.5c-0.3-0.2-0.9-0.4-1.5-0.4c-0.5,0-0.8,0.2-0.8,0.6c0,0.3,0.3,0.5,1.1,0.8
		c1.3,0.4,1.8,1.1,1.9,2.1c0,1.3-1,2.2-3,2.2c-0.9,0-1.7-0.2-2.2-0.5L114.1,54.8z"/>
</g>
</svg>
