<!-- Generator: Adobe Illustrator 20.1.0, SVG Export Plug-In  -->
<svg version="1.1"
	 xmlns="http://www.w3.org/2000/svg" xmlns:xlink="http://www.w3.org/1999/xlink" xmlns:a="http://ns.adobe.com/AdobeSVGViewerExtensions/3.0/"
	 x="0px" y="0px" width="257.5px" height="28.5px" viewBox="0 0 257.5 28.5"
	 style="overflow:scroll;enable-background:new 0 0 257.5 28.5;" xml:space="preserve">
<style type="text/css">
	.st0{fill:#58595B;}
	.st1{fill:#DA0962;}
	.st2{fill:#D51D70;}
</style>
<defs>
</defs>
<g>
	<g>
		<path class="st0" d="M16.1,5.9h-3.5v2.7h3.9V10h-5.7V0.7h5.4v1.4h-3.7v2.4h3.5V5.9z"/>
		<path class="st0" d="M18.3,10V4.5h-0.9V3.2h0.9V2.9c0-1.8,1.3-2.9,3.3-2.9c0.7,0,1.5,0.2,1.9,0.4l-0.4,1.3
			c-0.3-0.2-0.8-0.4-1.5-0.4C20.4,1.4,20,2.1,20,3v0.3h4V10h-1.7V4.5H20V10H18.3z"/>
		<path class="st0" d="M31,9.8c-0.4,0.2-1.1,0.3-1.9,0.3c-2.1,0-3.5-1.3-3.5-3.4c0-2,1.4-3.6,3.8-3.6c0.6,0,1.3,0.1,1.7,0.3
			l-0.3,1.3c-0.3-0.1-0.7-0.3-1.3-0.3c-1.3,0-2.1,1-2.1,2.2c0,1.4,0.9,2.2,2.1,2.2c0.6,0,1-0.1,1.3-0.3L31,9.8z"/>
		<path class="st0" d="M36.2,10l-0.1-0.8h0c-0.4,0.5-1.1,0.9-2,0.9c-1.4,0-2.1-1-2.1-2c0-1.7,1.5-2.6,4-2.6V5.5
			c0-0.4-0.2-1.2-1.4-1.2c-0.7,0-1.4,0.2-1.8,0.5l-0.3-1.1c0.5-0.3,1.4-0.6,2.4-0.6c2.2,0,2.8,1.4,2.8,2.8v2.4c0,0.6,0,1.2,0.1,1.6
			H36.2z M35.9,6.7c-1.2,0-2.4,0.2-2.4,1.3c0,0.7,0.4,1,1,1c0.7,0,1.2-0.4,1.3-0.9c0-0.1,0.1-0.3,0.1-0.4V6.7z"/>
		<path class="st0" d="M44.5,9.8c-0.4,0.2-1.1,0.3-1.9,0.3c-2.1,0-3.5-1.3-3.5-3.4c0-2,1.4-3.6,3.8-3.6c0.6,0,1.3,0.1,1.7,0.3
			l-0.3,1.3c-0.3-0.1-0.7-0.3-1.3-0.3c-1.3,0-2.1,1-2.1,2.2c0,1.4,0.9,2.2,2.1,2.2c0.6,0,1-0.1,1.3-0.3L44.5,9.8z"/>
		<path class="st0" d="M47.7,1.4c0,0.5-0.4,0.9-1,0.9c-0.6,0-0.9-0.4-0.9-0.9c0-0.5,0.4-0.9,1-0.9C47.4,0.4,47.7,0.8,47.7,1.4z
			 M45.9,10V3.2h1.7V10H45.9z"/>
		<path class="st0" d="M53.4,10l-0.1-0.8h0c-0.4,0.5-1.1,0.9-2,0.9c-1.4,0-2.1-1-2.1-2c0-1.7,1.5-2.6,4-2.6V5.5
			c0-0.4-0.2-1.2-1.4-1.2c-0.7,0-1.4,0.2-1.8,0.5l-0.3-1.1c0.5-0.3,1.4-0.6,2.4-0.6c2.2,0,2.8,1.4,2.8,2.8v2.4c0,0.6,0,1.2,0.1,1.6
			H53.4z M53.2,6.7c-1.2,0-2.4,0.2-2.4,1.3c0,0.7,0.4,1,1,1c0.7,0,1.2-0.4,1.3-0.9c0-0.1,0.1-0.3,0.1-0.4V6.7z"/>
		<path class="st0" d="M64.8,9.8c-0.4,0.2-1.1,0.3-1.9,0.3c-2.1,0-3.5-1.3-3.5-3.4c0-2,1.4-3.6,3.8-3.6c0.6,0,1.3,0.1,1.7,0.3
			l-0.3,1.3c-0.3-0.1-0.7-0.3-1.3-0.3c-1.3,0-2.1,1-2.1,2.2c0,1.4,0.9,2.2,2.1,2.2c0.6,0,1-0.1,1.3-0.3L64.8,9.8z"/>
		<path class="st0" d="M66.2,0.2h1.7V10h-1.7V0.2z"/>
		<path class="st0" d="M69.9,10V3.2h1.7V10H69.9z M72.8,0.3l-1.7,2.1H70l1.2-2.1H72.8z"/>
		<path class="st0" d="M73.6,5.3c0-0.8,0-1.4-0.1-2H75l0.1,1h0c0.3-0.5,1-1.2,2.2-1.2c1.2,0,2.4,0.8,2.4,2.9v4H78V6.2
			c0-1-0.4-1.7-1.3-1.7c-0.7,0-1.2,0.5-1.3,1c-0.1,0.2-0.1,0.4-0.1,0.6v4h-1.7V5.3z"/>
		<path class="st0" d="M83.5,1.4c0,0.5-0.4,0.9-1,0.9c-0.6,0-0.9-0.4-0.9-0.9c0-0.5,0.4-0.9,1-0.9C83.1,0.4,83.5,0.8,83.5,1.4z
			 M81.7,10V3.2h1.7V10H81.7z"/>
		<path class="st0" d="M90.3,9.8c-0.4,0.2-1.1,0.3-1.9,0.3c-2.1,0-3.5-1.3-3.5-3.4c0-2,1.4-3.6,3.8-3.6c0.6,0,1.3,0.1,1.7,0.3
			L90,4.7c-0.3-0.1-0.7-0.3-1.3-0.3c-1.3,0-2.1,1-2.1,2.2c0,1.4,0.9,2.2,2.1,2.2c0.6,0,1-0.1,1.3-0.3L90.3,9.8z"/>
		<path class="st0" d="M95.5,10l-0.1-0.8h0c-0.4,0.5-1.1,0.9-2,0.9c-1.4,0-2.1-1-2.1-2c0-1.7,1.5-2.6,4-2.6V5.5
			c0-0.4-0.2-1.2-1.4-1.2c-0.7,0-1.4,0.2-1.8,0.5l-0.3-1.1c0.5-0.3,1.4-0.6,2.4-0.6c2.2,0,2.8,1.4,2.8,2.8v2.4c0,0.6,0,1.2,0.1,1.6
			H95.5z M95.3,6.7C94.1,6.7,93,6.9,93,8c0,0.7,0.4,1,1,1c0.7,0,1.2-0.4,1.3-0.9c0-0.1,0.1-0.3,0.1-0.4V6.7z"/>
		<path class="st0" d="M98.1,11.7c0.4-1.1,0.8-2.5,0.9-3.7l1.8-0.1c-0.4,1.3-1,2.8-1.6,3.7L98.1,11.7z"/>
		<path class="st0" d="M105.3,8.4c0.4,0.2,1.1,0.5,1.7,0.5c0.8,0,1.1-0.3,1.1-0.8c0-0.5-0.3-0.7-1.1-1c-1.3-0.5-1.9-1.2-1.9-2
			c0-1.2,1-2.1,2.6-2.1c0.8,0,1.4,0.2,1.8,0.4l-0.3,1.2c-0.3-0.2-0.8-0.4-1.4-0.4c-0.6,0-0.9,0.3-0.9,0.7c0,0.4,0.3,0.6,1.2,0.9
			c1.2,0.4,1.8,1.1,1.8,2.1c0,1.2-1,2.1-2.8,2.1c-0.8,0-1.6-0.2-2.1-0.5L105.3,8.4z"/>
		<path class="st0" d="M112.5,7.1c0,1.2,1,1.8,2.1,1.8c0.8,0,1.4-0.1,1.9-0.3l0.3,1.2c-0.6,0.2-1.4,0.4-2.4,0.4
			c-2.2,0-3.5-1.3-3.5-3.4c0-1.9,1.1-3.6,3.3-3.6c2.2,0,2.9,1.8,2.9,3.3c0,0.3,0,0.6-0.1,0.7H112.5z M115.5,5.9
			c0-0.6-0.3-1.7-1.4-1.7c-1.1,0-1.5,1-1.6,1.7H115.5z"/>
		<path class="st0" d="M124.8,3.2c0,0.5-0.1,1-0.1,1.9V9c0,1.4-0.3,2.4-1,3.1c-0.7,0.6-1.7,0.8-2.6,0.8c-0.9,0-1.8-0.2-2.4-0.5
			l0.4-1.3c0.4,0.3,1.2,0.5,2,0.5c1.1,0,1.9-0.6,1.9-2V9h0c-0.4,0.6-1.1,1-2,1c-1.7,0-2.9-1.4-2.9-3.3c0-2.2,1.4-3.6,3.1-3.6
			c1,0,1.6,0.5,2,1.1h0l0.1-0.9H124.8z M123,6c0-0.2,0-0.3-0.1-0.5c-0.2-0.6-0.7-1.1-1.4-1.1c-1,0-1.7,0.8-1.7,2.2
			c0,1.2,0.6,2.1,1.7,2.1c0.6,0,1.2-0.4,1.4-1c0-0.2,0.1-0.4,0.1-0.6V6z"/>
		<path class="st0" d="M132.7,8c0,0.8,0,1.5,0.1,2h-1.5l-0.1-1h0c-0.3,0.5-1,1.2-2.2,1.2c-1.2,0-2.4-0.7-2.4-2.9v-4h1.7v3.7
			c0,1.1,0.4,1.8,1.3,1.8c0.7,0,1.1-0.5,1.3-0.9c0.1-0.2,0.1-0.3,0.1-0.5V3.2h1.7V8z"/>
		<path class="st0" d="M134.7,5.4c0-0.9,0-1.6-0.1-2.2h1.5l0.1,1.3h0.1c0.3-1,1.1-1.4,1.8-1.4c0.2,0,0.3,0,0.4,0v1.6
			c-0.1,0-0.3-0.1-0.5-0.1c-0.8,0-1.4,0.5-1.5,1.3c0,0.2-0.1,0.3-0.1,0.5V10h-1.7V5.4z"/>
		<path class="st0" d="M141.6,1.4c0,0.5-0.4,0.9-1,0.9c-0.6,0-0.9-0.4-0.9-0.9c0-0.5,0.4-0.9,1-0.9C141.2,0.4,141.6,0.8,141.6,1.4z
			 M139.8,10V3.2h1.7V10H139.8z"/>
		<path class="st0" d="M149.7,0.2v8c0,0.7,0,1.4,0.1,1.9h-1.5l-0.1-1.1h0c-0.4,0.8-1.2,1.2-2.2,1.2c-1.6,0-2.9-1.4-2.9-3.5
			c0-2.3,1.4-3.6,3-3.6c0.9,0,1.6,0.4,1.9,0.9h0V0.2H149.7z M148,6.1c0-0.1,0-0.3,0-0.4c-0.2-0.7-0.7-1.2-1.5-1.2
			c-1.1,0-1.7,1-1.7,2.2c0,1.2,0.6,2.1,1.7,2.1c0.7,0,1.3-0.5,1.5-1.2c0-0.2,0.1-0.3,0.1-0.5V6.1z"/>
		<path class="st0" d="M155.5,10l-0.1-0.8h0c-0.4,0.5-1.1,0.9-2,0.9c-1.4,0-2.1-1-2.1-2c0-1.7,1.5-2.6,4-2.6V5.5
			c0-0.4-0.2-1.2-1.4-1.2c-0.7,0-1.4,0.2-1.8,0.5l-0.3-1.1c0.5-0.3,1.4-0.6,2.4-0.6c2.2,0,2.8,1.4,2.8,2.8v2.4c0,0.6,0,1.2,0.1,1.6
			H155.5z M155.3,6.7c-1.2,0-2.4,0.2-2.4,1.3c0,0.7,0.4,1,1,1c0.7,0,1.2-0.4,1.3-0.9c0-0.1,0.1-0.3,0.1-0.4V6.7z"/>
		<path class="st0" d="M165.1,0.2v8c0,0.7,0,1.4,0.1,1.9h-1.5l-0.1-1.1h0c-0.4,0.8-1.2,1.2-2.2,1.2c-1.6,0-2.9-1.4-2.9-3.5
			c0-2.3,1.4-3.6,3-3.6c0.9,0,1.6,0.4,1.9,0.9h0V0.2H165.1z M163.4,6.1c0-0.1,0-0.3,0-0.4c-0.2-0.7-0.7-1.2-1.5-1.2
			c-1.1,0-1.7,1-1.7,2.2c0,1.2,0.6,2.1,1.7,2.1c0.7,0,1.3-0.5,1.5-1.2c0-0.2,0.1-0.3,0.1-0.5V6.1z"/>
		<path class="st0" d="M171.2,3.2l1.2,3.6c0.1,0.4,0.3,0.9,0.4,1.3h0c0.1-0.4,0.2-0.9,0.4-1.3l1.1-3.6h1.8l-1.7,4.6
			c-0.9,2.5-1.6,3.7-2.4,4.3c-0.7,0.6-1.4,0.8-1.8,0.9l-0.4-1.4c0.3-0.1,0.7-0.2,1-0.5c0.3-0.2,0.7-0.6,0.9-1.1
			c0.1-0.1,0.1-0.2,0.1-0.3c0-0.1,0-0.2-0.1-0.3l-2.5-6.2H171.2z"/>
		<path class="st0" d="M182.1,1.3v1.9h1.6v1.3h-1.6v3c0,0.8,0.2,1.2,0.9,1.2c0.3,0,0.5,0,0.7-0.1l0,1.3c-0.3,0.1-0.7,0.2-1.2,0.2
			c-0.6,0-1.2-0.2-1.5-0.6c-0.4-0.4-0.5-1-0.5-1.9V4.5h-1V3.2h1V1.7L182.1,1.3z"/>
		<path class="st0" d="M191.6,6.6c0,2.5-1.8,3.6-3.5,3.6c-1.9,0-3.4-1.3-3.4-3.5c0-2.2,1.5-3.6,3.5-3.6
			C190.3,3.1,191.6,4.5,191.6,6.6z M186.5,6.6c0,1.3,0.6,2.3,1.7,2.3c1,0,1.7-1,1.7-2.3c0-1.1-0.5-2.3-1.6-2.3
			C187,4.3,186.5,5.5,186.5,6.6z"/>
		<path class="st0" d="M193.2,0.2h1.7V10h-1.7V0.2z"/>
		<path class="st0" d="M198.1,7.1c0,1.2,1,1.8,2.1,1.8c0.8,0,1.4-0.1,1.9-0.3l0.3,1.2c-0.6,0.2-1.4,0.4-2.4,0.4
			c-2.2,0-3.5-1.3-3.5-3.4c0-1.9,1.1-3.6,3.3-3.6c2.2,0,2.9,1.8,2.9,3.3c0,0.3,0,0.6-0.1,0.7H198.1z M201,5.9c0-0.6-0.3-1.7-1.4-1.7
			c-1.1,0-1.5,1-1.6,1.7H201z"/>
		<path class="st0" d="M204.2,5.4c0-0.9,0-1.6-0.1-2.2h1.5l0.1,1.3h0.1c0.3-1,1.1-1.4,1.8-1.4c0.2,0,0.3,0,0.4,0v1.6
			c-0.1,0-0.3-0.1-0.5-0.1c-0.8,0-1.4,0.5-1.5,1.3c0,0.2-0.1,0.3-0.1,0.5V10h-1.7V5.4z"/>
		<path class="st0" d="M213,10l-0.1-0.8h0c-0.4,0.5-1.1,0.9-2,0.9c-1.4,0-2.1-1-2.1-2c0-1.7,1.5-2.6,4-2.6V5.5
			c0-0.4-0.2-1.2-1.4-1.2c-0.7,0-1.4,0.2-1.8,0.5l-0.3-1.1c0.5-0.3,1.4-0.6,2.4-0.6c2.2,0,2.8,1.4,2.8,2.8v2.4c0,0.6,0,1.2,0.1,1.6
			H213z M212.8,6.7c-1.2,0-2.4,0.2-2.4,1.3c0,0.7,0.4,1,1,1c0.7,0,1.2-0.4,1.3-0.9c0-0.1,0.1-0.3,0.1-0.4V6.7z"/>
		<path class="st0" d="M216.4,10c0-0.5,0.1-1.2,0.1-1.9v-8h1.7v4h0c0.4-0.7,1.2-1.1,2.2-1.1c1.7,0,2.8,1.4,2.8,3.4
			c0,2.4-1.5,3.6-3.1,3.6c-0.9,0-1.7-0.3-2.1-1.2h0l-0.1,1H216.4z M218.1,7.2c0,0.1,0,0.3,0,0.4c0.2,0.7,0.8,1.2,1.5,1.2
			c1.1,0,1.7-0.9,1.7-2.2c0-1.2-0.6-2.2-1.7-2.2c-0.7,0-1.3,0.5-1.5,1.3c0,0.1-0.1,0.3-0.1,0.4V7.2z"/>
		<path class="st0" d="M226.5,1.4c0,0.5-0.4,0.9-1,0.9c-0.6,0-0.9-0.4-0.9-0.9c0-0.5,0.4-0.9,1-0.9C226.1,0.4,226.5,0.8,226.5,1.4z
			 M224.7,10V3.2h1.7V10H224.7z"/>
		<path class="st0" d="M228.4,0.2h1.7V10h-1.7V0.2z"/>
		<path class="st0" d="M233.9,1.4c0,0.5-0.4,0.9-1,0.9c-0.6,0-0.9-0.4-0.9-0.9c0-0.5,0.4-0.9,1-0.9C233.5,0.4,233.9,0.8,233.9,1.4z
			 M232.1,10V3.2h1.7V10H232.1z"/>
		<path class="st0" d="M242,0.2v8c0,0.7,0,1.4,0.1,1.9h-1.5l-0.1-1.1h0c-0.4,0.8-1.2,1.2-2.2,1.2c-1.6,0-2.9-1.4-2.9-3.5
			c0-2.3,1.4-3.6,3-3.6c0.9,0,1.6,0.4,1.9,0.9h0V0.2H242z M240.3,6.1c0-0.1,0-0.3,0-0.4c-0.2-0.7-0.7-1.2-1.5-1.2
			c-1.1,0-1.7,1-1.7,2.2c0,1.2,0.6,2.1,1.7,2.1c0.7,0,1.3-0.5,1.5-1.2c0-0.2,0.1-0.3,0.1-0.5V6.1z"/>
		<path class="st0" d="M247.8,10l-0.1-0.8h0c-0.4,0.5-1.1,0.9-2,0.9c-1.4,0-2.1-1-2.1-2c0-1.7,1.5-2.6,4-2.6V5.5
			c0-0.4-0.2-1.2-1.4-1.2c-0.7,0-1.4,0.2-1.8,0.5L244,3.7c0.5-0.3,1.4-0.6,2.4-0.6c2.2,0,2.8,1.4,2.8,2.8v2.4c0,0.6,0,1.2,0.1,1.6
			H247.8z M247.6,6.7c-1.2,0-2.4,0.2-2.4,1.3c0,0.7,0.4,1,1,1c0.7,0,1.2-0.4,1.3-0.9c0-0.1,0.1-0.3,0.1-0.4V6.7z"/>
		<path class="st0" d="M257.4,0.2v8c0,0.7,0,1.4,0.1,1.9h-1.5l-0.1-1.1h0c-0.4,0.8-1.2,1.2-2.2,1.2c-1.6,0-2.9-1.4-2.9-3.5
			c0-2.3,1.4-3.6,3-3.6c0.9,0,1.6,0.4,1.9,0.9h0V0.2H257.4z M255.7,6.1c0-0.1,0-0.3,0-0.4c-0.2-0.7-0.7-1.2-1.5-1.2
			c-1.1,0-1.7,1-1.7,2.2c0,1.2,0.6,2.1,1.7,2.1c0.7,0,1.3-0.5,1.5-1.2c0-0.2,0.1-0.3,0.1-0.5V6.1z"/>
		<path class="st0" d="M16.7,15.8v8.1c0,0.6,0,1.3,0.1,1.7h-1.1l-0.1-1.2h0c-0.4,0.7-1.2,1.3-2.3,1.3c-1.6,0-2.9-1.4-2.9-3.4
			c0-2.2,1.4-3.6,3-3.6c1,0,1.7,0.5,2,1h0v-4H16.7z M15.5,21.6c0-0.2,0-0.4-0.1-0.5c-0.2-0.8-0.8-1.4-1.8-1.4c-1.3,0-2,1.1-2,2.6
			c0,1.4,0.7,2.5,2,2.5c0.8,0,1.6-0.5,1.8-1.5c0-0.2,0.1-0.3,0.1-0.5V21.6z"/>
		<path class="st0" d="M19.6,22.5c0,1.7,1.1,2.3,2.3,2.3c0.9,0,1.4-0.2,1.9-0.3l0.2,0.9c-0.4,0.2-1.2,0.4-2.2,0.4
			c-2.1,0-3.3-1.4-3.3-3.4s1.2-3.6,3.2-3.6c2.2,0,2.8,1.9,2.8,3.2c0,0.3,0,0.4,0,0.6H19.6z M23.1,21.6c0-0.8-0.3-2-1.7-2
			c-1.2,0-1.8,1.1-1.9,2H23.1z"/>
		<path class="st1" d="M37.5,21.7H34v2.2h3.8v1.7h-6v-9.4h5.8V18H34v1.9h3.4V21.7z"/>
		<path class="st1" d="M47.3,25.2c-0.7,0.2-1.9,0.5-3.1,0.5c-1.7,0-2.9-0.4-3.8-1.3c-0.9-0.8-1.3-2-1.3-3.4c0-3.1,2.3-4.9,5.3-4.9
			c1.2,0,2.1,0.2,2.6,0.5l-0.4,1.7c-0.5-0.2-1.2-0.4-2.2-0.4c-1.8,0-3.1,1-3.1,3c0,1.9,1.2,3.1,2.9,3.1c0.5,0,0.9-0.1,1-0.1v-2h-1.4
			v-1.7h3.5V25.2z"/>
		<path class="st1" d="M48.9,25.6c0-0.4,0.1-1.3,0.1-2v-7.8h2.1v3.9h0c0.4-0.6,1.1-1,2.1-1c1.6,0,2.8,1.3,2.8,3.4
			c0,2.4-1.6,3.7-3.1,3.7c-0.8,0-1.6-0.3-2-1.1h0l-0.1,0.9H48.9z M51.1,22.7c0,0.1,0,0.3,0,0.4c0.1,0.6,0.6,1,1.2,1
			c0.9,0,1.5-0.7,1.5-1.9c0-1.1-0.5-1.9-1.5-1.9c-0.6,0-1.1,0.4-1.2,1c0,0.1,0,0.3,0,0.4V22.7z"/>
		<path class="st1" d="M63.6,16.6v1.3l-3.7,7.7h-2.2l3.7-7.3v0h-4.1v-1.7H63.6z"/>
		<path class="st1" d="M70.8,18.1c-0.2,0-0.5,0-0.8,0c-1.9,0.2-2.7,1.1-2.9,2.2h0c0.4-0.5,1.1-0.7,1.9-0.7c1.5,0,2.8,1.1,2.8,2.9
			c0,1.8-1.4,3.3-3.3,3.3c-2.4,0-3.6-1.8-3.6-3.9c0-1.7,0.6-3.1,1.6-4c0.9-0.8,2.1-1.3,3.5-1.3c0.4,0,0.6,0,0.8,0V18.1z M69.6,22.6
			c0-0.8-0.4-1.6-1.3-1.6c-0.6,0-1,0.3-1.3,0.8c-0.1,0.1-0.1,0.3-0.1,0.5c0,1,0.5,1.8,1.5,1.8C69.1,24.2,69.6,23.5,69.6,22.6z"/>
		<path class="st1" d="M75.5,18.5L75.5,18.5l-1.8,0.8l-0.3-1.6l2.4-1.1h1.8v9h-2V18.5z"/>
		<path class="st1" d="M85.7,18.5c0,1.3-1.1,2.4-2.5,2.4c-1.4,0-2.5-1.1-2.5-2.4c0-1.3,1.1-2.4,2.5-2.4
			C84.7,16.1,85.7,17.2,85.7,18.5z M81.6,18.5c0,1,0.7,1.8,1.7,1.8c1,0,1.7-0.8,1.7-1.8c0-1-0.7-1.8-1.8-1.8
			C82.3,16.7,81.6,17.5,81.6,18.5z M83,19.6h-0.7v-2.2c0.2,0,0.5-0.1,1-0.1c0.5,0,0.7,0.1,0.9,0.2c0.1,0.1,0.2,0.3,0.2,0.5
			c0,0.2-0.2,0.4-0.5,0.5v0c0.3,0.1,0.4,0.3,0.5,0.6s0.1,0.4,0.2,0.5h-0.8c-0.1-0.1-0.1-0.3-0.2-0.5c0-0.2-0.2-0.3-0.4-0.3H83V19.6z
			 M83,18.4h0.2c0.3,0,0.4-0.1,0.4-0.3c0-0.2-0.2-0.3-0.4-0.3c-0.1,0-0.2,0-0.2,0V18.4z"/>
		<path class="st1" d="M93.1,15.9c-1.2,1.4-1.9,3.2-1.9,5.7c0,2.5,0.8,4.2,1.9,5.7h-0.6c-1-1.2-2-2.9-2-5.7c0-2.8,1-4.5,2-5.7H93.1z
			"/>
		<path class="st1" d="M101.2,25.2c-0.5,0.2-1.5,0.5-2.7,0.5c-1.2,0-2.4-0.3-3.3-1.2c-0.8-0.8-1.3-2-1.3-3.5c0-2.6,1.7-4.8,4.9-4.8
			c1,0,1.8,0.2,2.2,0.4l-0.2,0.5c-0.5-0.2-1.1-0.4-2-0.4c-2.6,0-4.2,1.7-4.2,4.2c0,2.6,1.5,4.2,4,4.2c1,0,1.6-0.1,2-0.3v-3.3h-2.2
			V21h2.8V25.2z"/>
		<path class="st1" d="M103.6,17.6c-0.3,0-0.5-0.3-0.5-0.6s0.2-0.6,0.5-0.6s0.5,0.3,0.5,0.6C104.2,17.4,103.9,17.6,103.6,17.6
			L103.6,17.6z M103.3,25.6V19h0.7v6.7H103.3z"/>
		<path class="st1" d="M106.3,20.6c0-0.6,0-1.1-0.1-1.6h0.6l0,1.2h0c0.4-0.8,1.2-1.3,2.3-1.3c0.6,0,2.3,0.3,2.3,2.8v4h-0.7v-3.9
			c0-1.2-0.5-2.3-1.8-2.3c-0.9,0-1.7,0.7-2,1.5c0,0.2-0.1,0.4-0.1,0.6v4.1h-0.7V20.6z"/>
		<path class="st1" d="M114.6,22.2L114.6,22.2c0.2-0.2,0.5-0.5,0.7-0.7l2.4-2.5h0.8l-2.7,2.8l3.1,3.9H118l-2.7-3.5l-0.7,0.7v2.8
			h-0.7v-9.9h0.7V22.2z"/>
		<path class="st1" d="M125.2,24.7c0,1.7-0.4,2.6-0.9,3.1c-0.6,0.6-1.5,0.8-2.3,0.8c-0.8,0-1.6-0.2-2.1-0.6l0.2-0.5
			c0.5,0.3,1.1,0.6,2,0.6c1.4,0,2.4-0.7,2.4-2.7v-0.9h0c-0.3,0.7-1.1,1.3-2.3,1.3c-1.7,0-2.9-1.5-2.9-3.3c0-2.3,1.5-3.5,3-3.5
			c1.3,0,2,0.7,2.3,1.3h0l0-1.1h0.6c0,0.5-0.1,1-0.1,1.7V24.7z M124.6,21.5c0-0.2,0-0.5-0.1-0.7c-0.3-0.8-1-1.5-2.1-1.5
			c-1.4,0-2.4,1.2-2.4,2.9c0,1.5,0.8,2.8,2.4,2.8c0.9,0,1.7-0.6,2.1-1.5c0.1-0.2,0.1-0.5,0.1-0.7V21.5z"/>
		<path class="st1" d="M130.1,25.8c-1.7,0-3.1-1.3-3.1-3.4c0-2.3,1.5-3.5,3.2-3.5c1.8,0,3.1,1.4,3.1,3.4
			C133.3,24.7,131.6,25.8,130.1,25.8L130.1,25.8z M130.2,25.2c1.4,0,2.5-1.3,2.5-3c0-1.2-0.7-2.9-2.4-2.9c-1.7,0-2.5,1.5-2.5,2.9
			C127.7,24,128.8,25.2,130.2,25.2L130.2,25.2z"/>
		<path class="st1" d="M138.3,16.4c0.5-0.1,1.2-0.2,1.9-0.2c1.2,0,1.9,0.3,2.4,0.8c0.4,0.4,0.6,0.9,0.6,1.5c0,1-0.7,1.8-1.6,2.1v0
			c0.8,0.2,2,0.9,2,2.4c0,0.8-0.3,1.3-0.7,1.8c-0.6,0.6-1.6,0.9-3,0.9c-0.7,0-1.2-0.1-1.6-0.1V16.4z M139,20.4h1.4
			c1.4,0,2.2-0.8,2.2-1.8c0-1.3-1-1.8-2.4-1.8c-0.6,0-1,0-1.2,0.1V20.4z M139,25.1c0.3,0.1,0.7,0.1,1.2,0.1c1.4,0,2.8-0.5,2.8-2.1
			c0-1.5-1.3-2.1-2.7-2.1H139V25.1z"/>
		<path class="st1" d="M145.8,17.6c-0.3,0-0.5-0.3-0.5-0.6s0.2-0.6,0.5-0.6s0.5,0.3,0.5,0.6C146.3,17.4,146.1,17.6,145.8,17.6
			L145.8,17.6z M145.5,25.6V19h0.7v6.7H145.5z"/>
		<path class="st1" d="M148.5,15.8h0.7v9.9h-0.7V15.8z"/>
		<path class="st1" d="M154.1,25.8c-1.7,0-3.1-1.3-3.1-3.4c0-2.3,1.5-3.5,3.2-3.5c1.8,0,3.1,1.4,3.1,3.4
			C157.3,24.7,155.6,25.8,154.1,25.8L154.1,25.8z M154.1,25.2c1.4,0,2.5-1.3,2.5-3c0-1.2-0.7-2.9-2.4-2.9c-1.7,0-2.5,1.5-2.5,2.9
			C151.7,24,152.8,25.2,154.1,25.2L154.1,25.2z"/>
		<path class="st1" d="M159.1,15.8h0.7v4.5h0c0.4-0.9,1.3-1.4,2.4-1.4c1.7,0,2.8,1.4,2.8,3.4c0,2.4-1.5,3.6-3,3.6
			c-1.1,0-1.9-0.4-2.4-1.3h0l-0.1,1.2H159c0-0.5,0.1-1.1,0.1-1.6V15.8z M159.8,23.1c0,0.2,0,0.3,0.1,0.5c0.3,1,1.2,1.7,2.2,1.7
			c1.5,0,2.4-1.3,2.4-3c0-1.5-0.8-2.9-2.3-2.9c-1,0-1.9,0.7-2.2,1.8c0,0.2-0.1,0.3-0.1,0.6V23.1z"/>
		<path class="st1" d="M171.1,24c0,0.5,0,1.1,0.1,1.6h-0.6l-0.1-1h0c-0.3,0.5-1.1,1.1-2.1,1.1c-1.3,0-2-0.9-2-1.8
			c0-1.5,1.3-2.5,4.1-2.4v-0.2c0-0.7-0.1-2-1.7-2c-0.6,0-1.2,0.2-1.7,0.5l-0.2-0.5c0.6-0.4,1.4-0.6,2-0.6c1.9,0,2.3,1.4,2.3,2.6V24z
			 M170.4,22.1c-1.5,0-3.4,0.2-3.4,1.8c0,1,0.6,1.4,1.3,1.4c1.1,0,1.8-0.7,2-1.3c0.1-0.1,0.1-0.3,0.1-0.4V22.1z"/>
		<path class="st1" d="M172.4,27.3c1.1-1.4,1.9-3.2,1.9-5.7c0-2.5-0.8-4.2-1.9-5.7h0.6c1,1.2,2,2.9,2,5.7c0,2.7-1,4.5-2,5.7H172.4z"
			/>
		<path class="st1" d="M176.6,20.4c0.2,0.1,0.6,0.3,1.1,0.3c1.1,0,1.3-0.7,1.3-1.2c0-0.9-0.8-1.2-1.5-1.2h-0.3V18h0.3
			c0.6,0,1.3-0.3,1.3-1.1c0-0.5-0.3-0.9-1-0.9c-0.4,0-0.8,0.2-1,0.4l-0.2-0.3c0.3-0.2,0.7-0.4,1.2-0.4c1,0,1.4,0.6,1.4,1.2
			c0,0.5-0.3,1-1,1.2v0c0.7,0.1,1.2,0.6,1.2,1.4c0,0.8-0.6,1.6-1.8,1.6c-0.5,0-1-0.2-1.2-0.4L176.6,20.4z"/>
	</g>
	<circle class="st2" cx="2.6" cy="4.6" r="2.6"/>
</g>
</svg>
