<!-- Generator: Adobe Illustrator 20.1.0, SVG Export Plug-In  -->
<svg version="1.1"
	 xmlns="http://www.w3.org/2000/svg" xmlns:xlink="http://www.w3.org/1999/xlink" xmlns:a="http://ns.adobe.com/AdobeSVGViewerExtensions/3.0/"
	 x="0px" y="0px" width="142.9px" height="9.2px" viewBox="0 0 142.9 9.2"
	 style="overflow:scroll;enable-background:new 0 0 142.9 9.2;" xml:space="preserve">
<style type="text/css">
	.st0{fill:#5A2D81;}
</style>
<defs>
</defs>
<g>
	<g>
		<path class="st0" d="M0,0.4c0.6-0.1,1.3-0.1,2.1-0.1c1.3,0,2.1,0.2,2.8,0.7C5.5,1.5,6,2.4,6,3.6c0,1.3-0.5,2.2-1.1,2.7
			C4.1,6.9,3,7.2,1.7,7.2C0.9,7.2,0.4,7.1,0,7.1V0.4z M1.5,5.9c0.1,0,0.3,0,0.5,0c1.4,0,2.3-0.8,2.3-2.4c0-1.4-0.8-2.1-2.1-2.1
			c-0.3,0-0.6,0-0.7,0.1V5.9z"/>
		<path class="st0" d="M11.6,5.5c0,0.6,0,1.2,0,1.6h-1.3l-0.1-0.7h0C10,6.7,9.5,7.2,8.7,7.2c-1,0-1.7-0.6-1.7-2.1V2.2h1.5v2.6
			C8.5,5.5,8.7,6,9.2,6C9.6,6,9.9,5.7,10,5.4c0-0.1,0-0.2,0-0.3V2.2h1.5V5.5z"/>
		<path class="st0" d="M12.8,3.8c0-0.7,0-1.2,0-1.6h1.3l0,0.9h0c0.3-0.7,0.8-1,1.3-1c0.1,0,0.2,0,0.3,0v1.4c-0.1,0-0.2,0-0.4,0
			c-0.6,0-0.9,0.3-1,0.8c0,0.1,0,0.2,0,0.3v2.5h-1.5V3.8z"/>
		<path class="st0" d="M19.3,7.1l-0.1-0.5h0c-0.3,0.4-0.8,0.6-1.4,0.6c-1,0-1.6-0.7-1.6-1.5c0-1.3,1.1-1.9,2.9-1.9V3.8
			c0-0.3-0.1-0.6-0.9-0.6c-0.5,0-1,0.2-1.3,0.4l-0.3-1c0.3-0.2,1-0.4,1.9-0.4c1.6,0,2.1,1,2.1,2.1v1.7c0,0.5,0,0.9,0.1,1.2H19.3z
			 M19.1,4.8c-0.8,0-1.4,0.2-1.4,0.8c0,0.4,0.3,0.6,0.6,0.6c0.4,0,0.7-0.3,0.8-0.6c0-0.1,0-0.2,0-0.3V4.8z"/>
		<path class="st0" d="M25.4,7c-0.3,0.1-0.8,0.2-1.4,0.2c-1.6,0-2.6-1-2.6-2.5c0-1.4,1-2.6,2.8-2.6c0.4,0,0.8,0.1,1.2,0.2l-0.2,1.1
			c-0.2-0.1-0.4-0.2-0.8-0.2c-0.8,0-1.3,0.6-1.3,1.4C23,5.5,23.6,6,24.4,6c0.4,0,0.6-0.1,0.9-0.1L25.4,7z"/>
		<path class="st0" d="M27.8,0.8c0,0.4-0.3,0.8-0.8,0.8c-0.5,0-0.8-0.3-0.8-0.8c0-0.4,0.3-0.8,0.8-0.8S27.8,0.4,27.8,0.8z M26.3,7.1
			V2.2h1.5v4.9H26.3z"/>
		<path class="st0" d="M33.8,4.6c0,1.8-1.3,2.6-2.6,2.6c-1.4,0-2.5-0.9-2.5-2.5c0-1.6,1-2.6,2.6-2.6C32.8,2.1,33.8,3.1,33.8,4.6z
			 M30.3,4.6c0,0.8,0.3,1.5,1,1.5c0.6,0,1-0.6,1-1.5c0-0.7-0.3-1.5-1-1.5C30.6,3.2,30.3,3.9,30.3,4.6z M32.9,0.1l-1.2,1.5h-1
			l0.9-1.5H32.9z"/>
		<path class="st0" d="M34.8,3.8c0-0.6,0-1.1,0-1.6h1.3l0.1,0.7h0c0.2-0.3,0.7-0.8,1.5-0.8c1,0,1.7,0.7,1.7,2.1v2.9h-1.5V4.4
			c0-0.6-0.2-1.1-0.8-1.1c-0.4,0-0.7,0.3-0.8,0.6c0,0.1-0.1,0.2-0.1,0.4v2.8h-1.5V3.8z"/>
		<path class="st0" d="M47.4,0v5.6c0,0.5,0,1.1,0,1.5h-1.3L46,6.4h0c-0.3,0.5-0.9,0.8-1.5,0.8c-1.2,0-2.1-1-2.1-2.5
			c0-1.6,1-2.6,2.2-2.6c0.6,0,1.1,0.2,1.3,0.5h0V0H47.4z M45.9,4.3c0-0.1,0-0.2,0-0.3c-0.1-0.4-0.4-0.8-0.9-0.8c-0.7,0-1,0.6-1,1.4
			c0,0.8,0.4,1.3,1,1.3c0.4,0,0.8-0.3,0.9-0.7c0-0.1,0-0.2,0-0.3V4.3z"/>
		<path class="st0" d="M49.8,5.1c0.1,0.6,0.7,0.9,1.4,0.9c0.5,0,0.9-0.1,1.3-0.2l0.2,1c-0.5,0.2-1.1,0.3-1.8,0.3
			c-1.7,0-2.6-1-2.6-2.5c0-1.2,0.8-2.6,2.5-2.6c1.6,0,2.2,1.2,2.2,2.4c0,0.3,0,0.5,0,0.6H49.8z M51.6,4.1c0-0.4-0.2-1-0.9-1
			c-0.6,0-0.9,0.6-0.9,1H51.6z"/>
		<path class="st0" d="M53.9,0h1.5v7.1h-1.5V0z"/>
		<path class="st0" d="M58.7,5.8c0.3,0.2,0.9,0.4,1.3,0.4c0.5,0,0.6-0.2,0.6-0.4s-0.1-0.4-0.7-0.6c-1-0.3-1.4-0.9-1.4-1.5
			c0-0.9,0.8-1.6,2-1.6c0.6,0,1.1,0.1,1.4,0.3l-0.3,1c-0.2-0.1-0.6-0.3-1.1-0.3c-0.4,0-0.6,0.2-0.6,0.4c0,0.2,0.2,0.3,0.8,0.6
			c0.9,0.3,1.3,0.8,1.3,1.5c0,0.9-0.7,1.6-2.1,1.6c-0.6,0-1.2-0.1-1.6-0.3L58.7,5.8z"/>
		<path class="st0" d="M64.2,5.1c0.1,0.6,0.7,0.9,1.4,0.9c0.5,0,0.9-0.1,1.3-0.2l0.2,1c-0.5,0.2-1.1,0.3-1.8,0.3
			c-1.7,0-2.6-1-2.6-2.5c0-1.2,0.8-2.6,2.5-2.6c1.6,0,2.2,1.2,2.2,2.4c0,0.3,0,0.5,0,0.6H64.2z M66,4.1c0-0.4-0.2-1-0.9-1
			c-0.6,0-0.9,0.6-0.9,1H66z"/>
		<path class="st0" d="M73,2.2c0,0.3,0,0.7,0,1.4v2.7c0,0.9-0.2,1.7-0.7,2.2c-0.5,0.5-1.3,0.6-2,0.6c-0.6,0-1.3-0.1-1.8-0.4l0.3-1.1
			C69,7.8,69.6,8,70.1,8c0.7,0,1.3-0.4,1.3-1.3V6.4h0c-0.3,0.4-0.8,0.6-1.3,0.6c-1.2,0-2.1-1-2.1-2.4c0-1.6,1-2.6,2.2-2.6
			c0.7,0,1.1,0.3,1.3,0.7h0l0.1-0.6H73z M71.4,4.2c0-0.1,0-0.2,0-0.3c-0.1-0.4-0.4-0.7-0.8-0.7c-0.5,0-1,0.5-1,1.4
			c0,0.7,0.4,1.3,1,1.3c0.4,0,0.7-0.3,0.8-0.6c0-0.1,0-0.3,0-0.4V4.2z"/>
		<path class="st0" d="M78.7,5.5c0,0.6,0,1.2,0,1.6h-1.3l-0.1-0.7h0c-0.2,0.3-0.6,0.8-1.5,0.8c-1,0-1.7-0.6-1.7-2.1V2.2h1.5v2.6
			c0,0.7,0.2,1.1,0.8,1.1c0.4,0,0.7-0.3,0.8-0.5c0-0.1,0-0.2,0-0.3V2.2h1.5V5.5z"/>
		<path class="st0" d="M81.5,0.8c0,0.4-0.3,0.8-0.8,0.8c-0.5,0-0.8-0.3-0.8-0.8c0-0.4,0.3-0.8,0.8-0.8S81.5,0.4,81.5,0.8z M80,7.1
			V2.2h1.5v4.9H80z"/>
		<path class="st0" d="M82.7,3.8c0-0.6,0-1.1,0-1.6h1.3L84,2.9h0c0.2-0.3,0.6-0.8,1.5-0.8c0.6,0,1.1,0.3,1.3,0.8h0
			c0.2-0.3,0.4-0.4,0.6-0.6c0.3-0.2,0.6-0.2,0.9-0.2c0.9,0,1.6,0.7,1.6,2.1v2.9h-1.5V4.4c0-0.7-0.2-1.1-0.7-1.1
			c-0.4,0-0.6,0.2-0.7,0.5c0,0.1-0.1,0.3-0.1,0.4v2.9h-1.5V4.4c0-0.6-0.2-1-0.7-1c-0.4,0-0.6,0.3-0.7,0.5c-0.1,0.1-0.1,0.3-0.1,0.4
			v2.8h-1.5V3.8z"/>
		<path class="st0" d="M92.9,0.8c0,0.4-0.3,0.8-0.8,0.8c-0.5,0-0.8-0.3-0.8-0.8c0-0.4,0.3-0.8,0.8-0.8S92.9,0.4,92.9,0.8z M91.3,7.1
			V2.2h1.5v4.9H91.3z"/>
		<path class="st0" d="M95.2,5.1c0.1,0.6,0.7,0.9,1.4,0.9c0.5,0,0.9-0.1,1.3-0.2l0.2,1c-0.5,0.2-1.1,0.3-1.8,0.3
			c-1.7,0-2.6-1-2.6-2.5c0-1.2,0.8-2.6,2.5-2.6c1.6,0,2.2,1.2,2.2,2.4c0,0.3,0,0.5,0,0.6H95.2z M97,4.1c0-0.4-0.2-1-0.9-1
			c-0.6,0-0.9,0.6-0.9,1H97z"/>
		<path class="st0" d="M99.3,3.8c0-0.6,0-1.1,0-1.6h1.3l0.1,0.7h0c0.2-0.3,0.7-0.8,1.5-0.8c1,0,1.7,0.7,1.7,2.1v2.9h-1.5V4.4
			c0-0.6-0.2-1.1-0.8-1.1c-0.4,0-0.7,0.3-0.8,0.6c0,0.1-0.1,0.2-0.1,0.4v2.8h-1.5V3.8z"/>
		<path class="st0" d="M106.8,0.8v1.4h1.1v1.1h-1.1v1.8c0,0.6,0.1,0.9,0.6,0.9c0.2,0,0.3,0,0.4,0l0,1.1c-0.2,0.1-0.6,0.1-1,0.1
			c-0.5,0-0.9-0.2-1.1-0.4c-0.3-0.3-0.4-0.8-0.4-1.4v-2h-0.6V2.2h0.6V1.1L106.8,0.8z"/>
		<path class="st0" d="M113.6,4.6c0,1.8-1.3,2.6-2.6,2.6c-1.4,0-2.5-0.9-2.5-2.5c0-1.6,1-2.6,2.6-2.6C112.6,2.1,113.6,3.1,113.6,4.6
			z M110,4.6c0,0.8,0.3,1.5,1,1.5c0.6,0,1-0.6,1-1.5c0-0.7-0.3-1.5-1-1.5C110.3,3.2,110,3.9,110,4.6z"/>
		<path class="st0" d="M118.7,0.2c-0.6,0.9-1,2.3-1,4c0,1.8,0.4,3.1,1,4h-1.1c-0.5-0.8-1.1-2.1-1.1-4c0-1.9,0.6-3.3,1.1-4H118.7z"/>
		<path class="st0" d="M122.5,7.1l-0.1-0.5h0c-0.3,0.4-0.8,0.6-1.4,0.6c-1,0-1.6-0.7-1.6-1.5c0-1.3,1.1-1.9,2.9-1.9V3.8
			c0-0.3-0.1-0.6-0.9-0.6c-0.5,0-1,0.2-1.3,0.4l-0.3-1c0.3-0.2,1-0.4,1.9-0.4c1.6,0,2.1,1,2.1,2.1v1.7c0,0.5,0,0.9,0.1,1.2H122.5z
			 M122.3,4.8c-0.8,0-1.4,0.2-1.4,0.8c0,0.4,0.3,0.6,0.6,0.6c0.4,0,0.7-0.3,0.8-0.6c0-0.1,0-0.2,0-0.3V4.8z"/>
		<path class="st0" d="M125,3.8c0-0.6,0-1.1,0-1.6h1.3l0.1,0.7h0c0.2-0.3,0.7-0.8,1.5-0.8c1,0,1.7,0.7,1.7,2.1v2.9h-1.5V4.4
			c0-0.6-0.2-1.1-0.8-1.1c-0.4,0-0.7,0.3-0.8,0.6c0,0.1-0.1,0.2-0.1,0.4v2.8H125V3.8z M125.9,1.5c0-0.8,0.3-1.3,0.8-1.3
			c0.2,0,0.4,0.1,0.6,0.2c0.2,0.1,0.3,0.2,0.4,0.2c0.2,0,0.2-0.1,0.3-0.5h0.7c0,0.9-0.3,1.3-0.8,1.3c-0.3,0-0.5-0.1-0.7-0.2
			c-0.2-0.1-0.3-0.2-0.4-0.2c-0.1,0-0.2,0.1-0.2,0.4H125.9z"/>
		<path class="st0" d="M135.6,4.6c0,1.8-1.3,2.6-2.6,2.6c-1.4,0-2.5-0.9-2.5-2.5c0-1.6,1-2.6,2.6-2.6C134.6,2.1,135.6,3.1,135.6,4.6
			z M132.1,4.6c0,0.8,0.3,1.5,1,1.5c0.6,0,1-0.6,1-1.5c0-0.7-0.3-1.5-1-1.5C132.4,3.2,132.1,3.9,132.1,4.6z"/>
		<path class="st0" d="M136.6,5.8c0.3,0.2,0.9,0.4,1.3,0.4c0.5,0,0.6-0.2,0.6-0.4s-0.1-0.4-0.7-0.6c-1-0.3-1.4-0.9-1.4-1.5
			c0-0.9,0.8-1.6,2-1.6c0.6,0,1.1,0.1,1.4,0.3l-0.3,1c-0.2-0.1-0.6-0.3-1.1-0.3c-0.4,0-0.6,0.2-0.6,0.4c0,0.2,0.2,0.3,0.8,0.6
			c0.9,0.3,1.3,0.8,1.3,1.5c0,0.9-0.7,1.6-2.1,1.6c-0.6,0-1.2-0.1-1.6-0.3L136.6,5.8z"/>
		<path class="st0" d="M140.7,8.3c0.5-0.9,1-2.3,1-4c0-1.8-0.4-3.1-1-4h1.1c0.5,0.8,1.1,2.1,1.1,4c0,1.9-0.6,3.3-1.1,4H140.7z"/>
	</g>
</g>
</svg>
