<!-- Generator: Adobe Illustrator 20.1.0, SVG Export Plug-In  -->
<svg version="1.1"
	 xmlns="http://www.w3.org/2000/svg" xmlns:xlink="http://www.w3.org/1999/xlink" xmlns:a="http://ns.adobe.com/AdobeSVGViewerExtensions/3.0/"
	 x="0px" y="0px" width="424.1px" height="138.6px" viewBox="0 0 424.1 138.6"
	 style="overflow:scroll;enable-background:new 0 0 424.1 138.6;" xml:space="preserve">
<style type="text/css">
	.st0{fill:url(#SVGID_1_);}
	.st1{fill:url(#SVGID_2_);}
	.st2{fill:url(#SVGID_3_);}
	.st3{fill:url(#SVGID_4_);}
	.st4{fill:url(#SVGID_5_);}
	.st5{fill:url(#SVGID_6_);}
	.st6{fill:url(#SVGID_7_);}
	.st7{fill:url(#SVGID_8_);}
	.st8{fill:url(#SVGID_9_);}
	.st9{fill:url(#SVGID_10_);}
	.st10{fill:url(#SVGID_11_);}
	.st11{fill:url(#SVGID_12_);}
	.st12{fill:url(#SVGID_13_);}
	.st13{fill:url(#SVGID_14_);}
	.st14{fill:url(#SVGID_15_);}
	.st15{fill:url(#SVGID_16_);}
	.st16{fill:url(#SVGID_17_);}
	.st17{fill:url(#SVGID_18_);}
	.st18{fill:url(#SVGID_19_);}
	.st19{fill:url(#SVGID_20_);}
	.st20{fill:url(#SVGID_21_);}
	.st21{fill:url(#SVGID_22_);}
	.st22{fill:url(#SVGID_23_);}
	.st23{fill:url(#SVGID_24_);}
	.st24{fill:url(#SVGID_25_);}
	.st25{fill:url(#SVGID_26_);}
	.st26{fill:url(#SVGID_27_);}
	.st27{fill:url(#SVGID_28_);}
	.st28{fill:url(#SVGID_29_);}
	.st29{fill:url(#SVGID_30_);}
	.st30{fill:url(#SVGID_31_);}
	.st31{fill:url(#SVGID_32_);}
	.st32{fill:url(#SVGID_33_);}
	.st33{fill:url(#SVGID_34_);}
	.st34{fill:url(#SVGID_35_);}
	.st35{fill:url(#SVGID_36_);}
	.st36{fill:url(#SVGID_37_);}
	.st37{fill:url(#SVGID_38_);}
	.st38{fill:url(#SVGID_39_);}
	.st39{fill:url(#SVGID_40_);}
	.st40{fill:url(#SVGID_41_);}
	.st41{fill:url(#SVGID_42_);}
	.st42{fill:url(#SVGID_43_);}
	.st43{fill:url(#SVGID_44_);}
	.st44{fill:url(#SVGID_45_);}
	.st45{fill:url(#SVGID_46_);}
	.st46{fill:url(#SVGID_47_);}
	.st47{fill:url(#SVGID_48_);}
	.st48{fill:url(#SVGID_49_);}
	.st49{fill:url(#SVGID_50_);}
	.st50{fill:url(#SVGID_51_);}
	.st51{fill:url(#SVGID_52_);}
	.st52{fill:url(#SVGID_53_);}
	.st53{fill:url(#SVGID_54_);}
	.st54{fill:url(#SVGID_55_);}
	.st55{fill:url(#SVGID_56_);}
	.st56{fill:url(#SVGID_57_);}
	.st57{fill:url(#SVGID_58_);}
	.st58{fill:url(#SVGID_59_);}
	.st59{fill:url(#SVGID_60_);}
	.st60{fill:url(#SVGID_61_);}
	.st61{fill:#8A5D3B;}
	.st62{fill:url(#SVGID_62_);}
	.st63{fill:url(#SVGID_63_);}
	.st64{fill:url(#SVGID_64_);}
	.st65{fill:url(#SVGID_65_);}
	.st66{fill:url(#SVGID_66_);}
	.st67{fill:url(#SVGID_67_);}
	.st68{fill:url(#SVGID_68_);}
	.st69{fill:url(#SVGID_69_);}
	.st70{fill:url(#SVGID_70_);}
	.st71{fill:url(#SVGID_71_);}
	.st72{fill:url(#SVGID_72_);}
	.st73{fill:url(#SVGID_73_);}
	.st74{fill:url(#SVGID_74_);}
	.st75{fill:url(#SVGID_75_);}
	.st76{fill:url(#SVGID_76_);}
	.st77{fill:url(#SVGID_77_);}
	.st78{fill:url(#SVGID_78_);}
	.st79{fill:url(#SVGID_79_);}
	.st80{fill:url(#SVGID_80_);}
	.st81{fill:url(#SVGID_81_);}
	.st82{fill:url(#SVGID_82_);}
	.st83{fill:url(#SVGID_83_);}
	.st84{fill:url(#SVGID_84_);}
	.st85{fill:url(#SVGID_85_);}
	.st86{fill:url(#SVGID_86_);}
	.st87{fill:url(#SVGID_87_);}
	.st88{fill:url(#SVGID_88_);}
	.st89{fill:url(#SVGID_89_);}
	.st90{fill:url(#SVGID_90_);}
	.st91{fill:url(#SVGID_91_);}
	.st92{fill:url(#SVGID_92_);}
	.st93{fill:url(#SVGID_93_);}
	.st94{fill:url(#SVGID_94_);}
	.st95{fill:url(#SVGID_95_);}
	.st96{fill:url(#SVGID_96_);}
	.st97{fill:url(#SVGID_97_);}
	.st98{fill:url(#SVGID_98_);}
	.st99{fill:url(#SVGID_99_);}
	.st100{fill:url(#SVGID_100_);}
	.st101{fill:url(#SVGID_101_);}
	.st102{fill:url(#SVGID_102_);}
	.st103{fill:url(#SVGID_103_);}
	.st104{fill:url(#SVGID_104_);}
	.st105{fill:url(#SVGID_105_);}
	.st106{fill:url(#SVGID_106_);}
	.st107{fill:url(#SVGID_107_);}
	.st108{fill:url(#SVGID_108_);}
	.st109{fill:url(#SVGID_109_);}
	.st110{fill:url(#SVGID_110_);}
	.st111{fill:url(#SVGID_111_);}
	.st112{fill:url(#SVGID_112_);}
	.st113{fill:url(#SVGID_113_);}
	.st114{fill:url(#SVGID_114_);}
	.st115{fill:url(#SVGID_115_);}
	.st116{fill:url(#SVGID_116_);}
	.st117{fill:url(#SVGID_117_);}
	.st118{fill:url(#SVGID_118_);}
	.st119{fill:url(#SVGID_119_);}
	.st120{fill:url(#SVGID_120_);}
	.st121{fill:url(#SVGID_121_);}
	.st122{fill:url(#SVGID_122_);}
	.st123{fill:url(#SVGID_123_);}
	.st124{fill:url(#SVGID_124_);}
	.st125{fill:url(#SVGID_125_);}
	.st126{fill:url(#SVGID_126_);}
	.st127{fill:url(#SVGID_127_);}
	.st128{fill:url(#SVGID_128_);}
	.st129{fill:url(#SVGID_129_);}
	.st130{fill:url(#SVGID_130_);}
	.st131{fill:url(#SVGID_131_);}
	.st132{fill:url(#SVGID_132_);}
	.st133{fill:url(#SVGID_133_);}
	.st134{fill:url(#SVGID_134_);}
	.st135{fill:url(#SVGID_135_);}
	.st136{fill:url(#SVGID_136_);}
	.st137{fill:url(#SVGID_137_);}
	.st138{fill:url(#SVGID_138_);}
	.st139{fill:url(#SVGID_139_);}
	.st140{fill:url(#SVGID_140_);}
	.st141{fill:url(#SVGID_141_);}
	.st142{fill:url(#SVGID_142_);}
	.st143{fill:url(#SVGID_143_);}
	.st144{fill:url(#SVGID_144_);}
	.st145{fill:url(#SVGID_145_);}
	.st146{fill:url(#SVGID_146_);}
	.st147{fill:url(#SVGID_147_);}
	.st148{fill:url(#SVGID_148_);}
	.st149{fill:url(#SVGID_149_);}
	.st150{fill:url(#SVGID_150_);}
	.st151{fill:url(#SVGID_151_);}
	.st152{fill:url(#SVGID_152_);}
	.st153{fill:url(#SVGID_153_);}
	.st154{fill:url(#SVGID_154_);}
	.st155{fill:url(#SVGID_155_);}
	.st156{fill:url(#SVGID_156_);}
	.st157{fill:url(#SVGID_157_);}
	.st158{fill:url(#SVGID_158_);}
	.st159{fill:url(#SVGID_159_);}
	.st160{fill:url(#SVGID_160_);}
	.st161{fill:url(#SVGID_161_);}
	.st162{fill:url(#SVGID_162_);}
	.st163{fill:url(#SVGID_163_);}
	.st164{fill:url(#SVGID_164_);}
	.st165{fill:url(#SVGID_165_);}
	.st166{fill:url(#SVGID_166_);}
	.st167{fill:url(#SVGID_167_);}
	.st168{fill:url(#SVGID_168_);}
	.st169{fill:url(#SVGID_169_);}
	.st170{fill:url(#SVGID_170_);}
	.st171{fill:url(#SVGID_171_);}
	.st172{fill:url(#SVGID_172_);}
	.st173{fill:url(#SVGID_173_);}
	.st174{fill:url(#SVGID_174_);}
	.st175{fill:url(#SVGID_175_);}
	.st176{fill:url(#SVGID_176_);}
	.st177{fill:url(#SVGID_177_);}
	.st178{fill:url(#SVGID_178_);}
	.st179{fill:url(#SVGID_179_);}
	.st180{fill:url(#SVGID_180_);}
	.st181{fill:url(#SVGID_181_);}
	.st182{fill:url(#SVGID_182_);}
	.st183{fill:url(#SVGID_183_);}
	.st184{fill:url(#SVGID_184_);}
	.st185{fill:url(#SVGID_185_);}
	.st186{fill:url(#SVGID_186_);}
	.st187{fill:url(#SVGID_187_);}
	.st188{fill:url(#SVGID_188_);}
	.st189{fill:url(#SVGID_189_);}
	.st190{fill:url(#SVGID_190_);}
	.st191{fill:url(#SVGID_191_);}
	.st192{fill:url(#SVGID_192_);}
	.st193{fill:url(#SVGID_193_);}
	.st194{fill:url(#SVGID_194_);}
	.st195{fill:url(#SVGID_195_);}
	.st196{fill:url(#SVGID_196_);}
	.st197{fill:url(#SVGID_197_);}
	.st198{fill:url(#SVGID_198_);}
	.st199{fill:url(#SVGID_199_);}
	.st200{fill:url(#SVGID_200_);}
	.st201{fill:url(#SVGID_201_);}
	.st202{fill:url(#SVGID_202_);}
	.st203{fill:url(#SVGID_203_);}
	.st204{fill:url(#SVGID_204_);}
	.st205{fill:url(#SVGID_205_);}
	.st206{fill:url(#SVGID_206_);}
	.st207{fill:url(#SVGID_207_);}
	.st208{fill:url(#SVGID_208_);}
	.st209{fill:url(#SVGID_209_);}
	.st210{fill:url(#SVGID_210_);}
	.st211{fill:url(#SVGID_211_);}
	.st212{fill:url(#SVGID_212_);}
	.st213{fill:url(#SVGID_213_);}
	.st214{fill:url(#SVGID_214_);}
	.st215{fill:url(#SVGID_215_);}
	.st216{fill:url(#SVGID_216_);}
	.st217{fill:url(#SVGID_217_);}
	.st218{fill:url(#SVGID_218_);}
	.st219{fill:url(#SVGID_219_);}
	.st220{fill:url(#SVGID_220_);}
	.st221{fill:url(#SVGID_221_);}
	.st222{fill:url(#SVGID_222_);}
	.st223{fill:url(#SVGID_223_);}
	.st224{fill:url(#SVGID_224_);}
	.st225{fill:url(#SVGID_225_);}
	.st226{fill:url(#SVGID_226_);}
	.st227{fill:url(#SVGID_227_);}
	.st228{fill:url(#SVGID_228_);}
	.st229{fill:url(#SVGID_229_);}
	.st230{fill:url(#SVGID_230_);}
	.st231{fill:url(#SVGID_231_);}
	.st232{fill:url(#SVGID_232_);}
	.st233{fill:url(#SVGID_233_);}
	.st234{fill:url(#SVGID_234_);}
</style>
<defs>
</defs>
<g>
	<g>
		<linearGradient id="SVGID_1_" gradientUnits="userSpaceOnUse" x1="0.4884" y1="69.2792" x2="423.6426" y2="69.2792">
			<stop  offset="0" style="stop-color:#EBBA52"/>
			<stop  offset="0.1035" style="stop-color:#F4D474"/>
			<stop  offset="0.2097" style="stop-color:#FCEB93"/>
			<stop  offset="0.4462" style="stop-color:#9A6228"/>
			<stop  offset="0.6667" style="stop-color:#EDA254"/>
			<stop  offset="1" style="stop-color:#EBBA52"/>
		</linearGradient>
		<path class="st0" d="M13.8,0.5c0,0-13.4,0-13.3,13.3l0.7,111c0,0,0.1,13.3,13.5,13.3H387c0,0,13.4,0,15.9-13.3l20.7-110.9
			c0,0,2.5-13.3-10.9-13.3H13.8z"/>
		<linearGradient id="SVGID_2_" gradientUnits="userSpaceOnUse" x1="0.4884" y1="69.2792" x2="423.6426" y2="69.2792">
			<stop  offset="0" style="stop-color:#EBBA52"/>
			<stop  offset="0.1035" style="stop-color:#F4D474"/>
			<stop  offset="0.2097" style="stop-color:#FCEB93"/>
			<stop  offset="0.4462" style="stop-color:#9A6228"/>
			<stop  offset="0.6667" style="stop-color:#EDA254"/>
			<stop  offset="1" style="stop-color:#EBBA52"/>
		</linearGradient>
		<path class="st1" d="M13.8,0.5c0,0-13.4,0-13.3,13.3l0.7,111c0,0,0.1,13.3,13.5,13.3H387c0,0,13.4,0,15.9-13.3l20.7-110.9
			c0,0,2.5-13.3-10.9-13.3H13.8z"/>
		<linearGradient id="SVGID_3_" gradientUnits="userSpaceOnUse" x1="18.5517" y1="60.6795" x2="202.9638" y2="60.6795">
			<stop  offset="0" style="stop-color:#EBBA52"/>
			<stop  offset="0.1035" style="stop-color:#F4D474"/>
			<stop  offset="0.2097" style="stop-color:#FCEB93"/>
			<stop  offset="0.4462" style="stop-color:#9A6228"/>
			<stop  offset="0.6667" style="stop-color:#EDA254"/>
			<stop  offset="1" style="stop-color:#EBBA52"/>
		</linearGradient>
		<path class="st2" d="M165.2,68.1c0-1.1,0.1-2,0.3-3c1.1-4.7,5.2-8.1,9.6-8.1c7.6,0,11.3,6.5,11.3,14.6c0,9.5-4.3,14.8-11.3,14.8
			c-4.7,0-8.5-3.4-9.6-7.7c-0.2-0.9-0.3-1.8-0.3-2.9V68.1z M148.9,82.5c0,5.9-0.2,12.2-0.4,15.7h13.9l0.6-7.3h0.2
			c3.7,6.2,9.7,8.5,15.8,8.5c12,0,24-9.5,24-28.4c0.1-16.1-9-26.5-21.6-26.5c-7.3,0-12.8,2.9-15.9,7.4h-0.2v-30h-16.3V82.5z
			 M136.3,56.8h-27v12.8h11.2v15.3c-1.3,0.5-4.3,1-8,1c-13.4,0-22.9-8.7-22.9-23.7c0-15.8,10.4-23.4,24.1-23.4
			c8,0,12.8,1.3,16.8,3.1l3.4-13.2c-3.5-1.6-10.8-3.4-20.1-3.4c-23.7,0-41.3,13.8-41.4,37.8c0,10.6,3.7,20.1,10.2,26.4
			c6.7,6.3,16.2,9.7,29.4,9.7c9.6,0,19.1-2.4,24.2-4.1V56.8z M61.5,54.3H34.9v-15h28.3V25.8H18.6v72.4h46.1V84.8H34.9V67.6h26.7
			V54.3z"/>
		<linearGradient id="SVGID_4_" gradientUnits="userSpaceOnUse" x1="18.5517" y1="60.6795" x2="202.9638" y2="60.6795">
			<stop  offset="0" style="stop-color:#EBBA52"/>
			<stop  offset="0.1035" style="stop-color:#F4D474"/>
			<stop  offset="0.2097" style="stop-color:#FCEB93"/>
			<stop  offset="0.4462" style="stop-color:#9A6228"/>
			<stop  offset="0.6667" style="stop-color:#EDA254"/>
			<stop  offset="1" style="stop-color:#EBBA52"/>
		</linearGradient>
		<path class="st3" d="M165.2,68.1c0-1.1,0.1-2,0.3-3c1.1-4.7,5.2-8.1,9.6-8.1c7.6,0,11.3,6.5,11.3,14.6c0,9.5-4.3,14.8-11.3,14.8
			c-4.7,0-8.5-3.4-9.6-7.7c-0.2-0.9-0.3-1.8-0.3-2.9V68.1z M148.9,82.5c0,5.9-0.2,12.2-0.4,15.7h13.9l0.6-7.3h0.2
			c3.7,6.2,9.7,8.5,15.8,8.5c12,0,24-9.5,24-28.4c0.1-16.1-9-26.5-21.6-26.5c-7.3,0-12.8,2.9-15.9,7.4h-0.2v-30h-16.3V82.5z
			 M136.3,56.8h-27v12.8h11.2v15.3c-1.3,0.5-4.3,1-8,1c-13.4,0-22.9-8.7-22.9-23.7c0-15.8,10.4-23.4,24.1-23.4
			c8,0,12.8,1.3,16.8,3.1l3.4-13.2c-3.5-1.6-10.8-3.4-20.1-3.4c-23.7,0-41.3,13.8-41.4,37.8c0,10.6,3.7,20.1,10.2,26.4
			c6.7,6.3,16.2,9.7,29.4,9.7c9.6,0,19.1-2.4,24.2-4.1V56.8z M61.5,54.3H34.9v-15h28.3V25.8H18.6v72.4h46.1V84.8H34.9V67.6h26.7
			V54.3z"/>
		<linearGradient id="SVGID_5_" gradientUnits="userSpaceOnUse" x1="218.185" y1="63.3652" x2="363.6906" y2="63.3652">
			<stop  offset="0" style="stop-color:#EBBA52"/>
			<stop  offset="0.1035" style="stop-color:#F4D474"/>
			<stop  offset="0.2097" style="stop-color:#FCEB93"/>
			<stop  offset="0.4462" style="stop-color:#9A6228"/>
			<stop  offset="0.6667" style="stop-color:#EDA254"/>
			<stop  offset="1" style="stop-color:#EBBA52"/>
		</linearGradient>
		<path class="st4" d="M347.9,98.2h15.8V28.4h-13.4L331.7,37l2.7,12.3l13.3-6.3h0.2V98.2z M299.1,87.4c-7.5,0-11.1-6.7-11.4-14.1
			c0-1.9,0.2-3.2,0.8-4.2c1.5-3.4,5.1-6.1,9.6-6.1c7,0,10.4,5.6,10.4,12C308.5,82.1,304.8,87.4,299.1,87.4 M317.4,27.4
			c-1.5-0.1-3.6-0.2-6.6,0.1c-10.9,0.5-20,3.9-26.9,10.2c-7.6,7.1-12.5,18.1-12.5,31.2c0,16.7,9.1,30.5,27.8,30.5
			c15,0,25.7-11.4,25.7-25.2c0-14.5-9.9-22.8-21.6-22.8c-6.4,0-11.4,2.1-14.8,5.5h-0.3c1.8-8.1,8.3-15.5,22.8-16.7
			c2.6-0.2,4.5-0.3,6.3-0.2V27.4z M218.2,28.4v13.4h32V42l-28.8,56.2h17l29.1-59.5V28.4H218.2z"/>
		<linearGradient id="SVGID_6_" gradientUnits="userSpaceOnUse" x1="218.185" y1="63.3652" x2="363.6906" y2="63.3652">
			<stop  offset="0" style="stop-color:#EBBA52"/>
			<stop  offset="0.1035" style="stop-color:#F4D474"/>
			<stop  offset="0.2097" style="stop-color:#FCEB93"/>
			<stop  offset="0.4462" style="stop-color:#9A6228"/>
			<stop  offset="0.6667" style="stop-color:#EDA254"/>
			<stop  offset="1" style="stop-color:#EBBA52"/>
		</linearGradient>
		<path class="st5" d="M347.9,98.2h15.8V28.4h-13.4L331.7,37l2.7,12.3l13.3-6.3h0.2V98.2z M299.1,87.4c-7.5,0-11.1-6.7-11.4-14.1
			c0-1.9,0.2-3.2,0.8-4.2c1.5-3.4,5.1-6.1,9.6-6.1c7,0,10.4,5.6,10.4,12C308.5,82.1,304.8,87.4,299.1,87.4 M317.4,27.4
			c-1.5-0.1-3.6-0.2-6.6,0.1c-10.9,0.5-20,3.9-26.9,10.2c-7.6,7.1-12.5,18.1-12.5,31.2c0,16.7,9.1,30.5,27.8,30.5
			c15,0,25.7-11.4,25.7-25.2c0-14.5-9.9-22.8-21.6-22.8c-6.4,0-11.4,2.1-14.8,5.5h-0.3c1.8-8.1,8.3-15.5,22.8-16.7
			c2.6-0.2,4.5-0.3,6.3-0.2V27.4z M218.2,28.4v13.4h32V42l-28.8,56.2h17l29.1-59.5V28.4H218.2z"/>
		<linearGradient id="SVGID_7_" gradientUnits="userSpaceOnUse" x1="373.3172" y1="38.7934" x2="395.5354" y2="38.7934">
			<stop  offset="0" style="stop-color:#EBBA52"/>
			<stop  offset="0.1035" style="stop-color:#F4D474"/>
			<stop  offset="0.2097" style="stop-color:#FCEB93"/>
			<stop  offset="0.4462" style="stop-color:#9A6228"/>
			<stop  offset="0.6667" style="stop-color:#EDA254"/>
			<stop  offset="1" style="stop-color:#EBBA52"/>
		</linearGradient>
		<path class="st6" d="M384.4,30.1c4.8,0,8.4,3.9,8.4,8.7c0,4.8-3.6,8.6-8.2,8.6c-4.8,0-8.4-3.8-8.4-8.6
			C376.1,34,379.7,30.1,384.4,30.1 M384.5,27.9c-6.3,0-11.2,4.8-11.2,10.8c0,6.1,4.9,10.9,11.1,10.9c6.2,0,11.1-4.8,11.1-10.9
			C395.5,32.7,390.7,27.9,384.5,27.9 M382.8,35.2c0.3-0.1,0.7-0.1,1.4-0.1c1.6,0,2.3,0.7,2.3,1.7c0,1.1-1.1,1.6-2.5,1.6h-1.2V35.2z
			 M382.7,40.1h1.2c1.4,0,2,0.5,2.2,1.6c0.3,1.3,0.5,2.2,0.9,2.6h2.6c-0.2-0.4-0.5-1-0.8-2.6c-0.3-1.4-0.9-2.3-1.9-2.6V39
			c1.3-0.4,2.2-1.2,2.2-2.6c0-1.1-0.5-1.8-1.1-2.3c-0.7-0.5-1.6-0.9-3.7-0.9c-1.8,0-3.2,0.2-4.1,0.3v10.8h2.5V40.1z"/>
		<linearGradient id="SVGID_8_" gradientUnits="userSpaceOnUse" x1="373.3172" y1="38.7934" x2="395.5354" y2="38.7934">
			<stop  offset="0" style="stop-color:#EBBA52"/>
			<stop  offset="0.1035" style="stop-color:#F4D474"/>
			<stop  offset="0.2097" style="stop-color:#FCEB93"/>
			<stop  offset="0.4462" style="stop-color:#9A6228"/>
			<stop  offset="0.6667" style="stop-color:#EDA254"/>
			<stop  offset="1" style="stop-color:#EBBA52"/>
		</linearGradient>
		<path class="st7" d="M384.4,30.1c4.8,0,8.4,3.9,8.4,8.7c0,4.8-3.6,8.6-8.2,8.6c-4.8,0-8.4-3.8-8.4-8.6
			C376.1,34,379.7,30.1,384.4,30.1 M384.5,27.9c-6.3,0-11.2,4.8-11.2,10.8c0,6.1,4.9,10.9,11.1,10.9c6.2,0,11.1-4.8,11.1-10.9
			C395.5,32.7,390.7,27.9,384.5,27.9 M382.8,35.2c0.3-0.1,0.7-0.1,1.4-0.1c1.6,0,2.3,0.7,2.3,1.7c0,1.1-1.1,1.6-2.5,1.6h-1.2V35.2z
			 M382.7,40.1h1.2c1.4,0,2,0.5,2.2,1.6c0.3,1.3,0.5,2.2,0.9,2.6h2.6c-0.2-0.4-0.5-1-0.8-2.6c-0.3-1.4-0.9-2.3-1.9-2.6V39
			c1.3-0.4,2.2-1.2,2.2-2.6c0-1.1-0.5-1.8-1.1-2.3c-0.7-0.5-1.6-0.9-3.7-0.9c-1.8,0-3.2,0.2-4.1,0.3v10.8h2.5V40.1z"/>
		<linearGradient id="SVGID_9_" gradientUnits="userSpaceOnUse" x1="18.0969" y1="125.5585" x2="29.7731" y2="125.5585">
			<stop  offset="0" style="stop-color:#EBBA52"/>
			<stop  offset="0.1035" style="stop-color:#F4D474"/>
			<stop  offset="0.2097" style="stop-color:#FCEB93"/>
			<stop  offset="0.4462" style="stop-color:#9A6228"/>
			<stop  offset="0.6667" style="stop-color:#EDA254"/>
			<stop  offset="1" style="stop-color:#EBBA52"/>
		</linearGradient>
		<path class="st8" d="M29.8,131.4c-1,0.3-2.7,0.7-4.4,0.7c-2.5,0-4.3-0.6-5.4-1.7c-1.2-1.1-1.8-2.8-1.8-4.7c0-4.5,3.3-6.7,7.5-6.7
			c1.7,0,3.1,0.3,3.7,0.6l-0.7,2.7c-0.7-0.3-1.6-0.5-3.1-0.5c-2.1,0-3.9,1.1-3.9,3.7c0,2.4,1.5,3.8,3.7,3.8c0.5,0,0.9-0.1,1.1-0.1
			V127h-1.7v-2.7h5V131.4z"/>
		<linearGradient id="SVGID_10_" gradientUnits="userSpaceOnUse" x1="18.0969" y1="125.5585" x2="29.7731" y2="125.5585">
			<stop  offset="0" style="stop-color:#EBBA52"/>
			<stop  offset="0.1035" style="stop-color:#F4D474"/>
			<stop  offset="0.2097" style="stop-color:#FCEB93"/>
			<stop  offset="0.4462" style="stop-color:#9A6228"/>
			<stop  offset="0.6667" style="stop-color:#EDA254"/>
			<stop  offset="1" style="stop-color:#EBBA52"/>
		</linearGradient>
		<path class="st9" d="M29.8,131.4c-1,0.3-2.7,0.7-4.4,0.7c-2.5,0-4.3-0.6-5.4-1.7c-1.2-1.1-1.8-2.8-1.8-4.7c0-4.5,3.3-6.7,7.5-6.7
			c1.7,0,3.1,0.3,3.7,0.6l-0.7,2.7c-0.7-0.3-1.6-0.5-3.1-0.5c-2.1,0-3.9,1.1-3.9,3.7c0,2.4,1.5,3.8,3.7,3.8c0.5,0,0.9-0.1,1.1-0.1
			V127h-1.7v-2.7h5V131.4z"/>
		<linearGradient id="SVGID_11_" gradientUnits="userSpaceOnUse" x1="33.2484" y1="125.5589" x2="45.8778" y2="125.5589">
			<stop  offset="0" style="stop-color:#EBBA52"/>
			<stop  offset="0.1035" style="stop-color:#F4D474"/>
			<stop  offset="0.2097" style="stop-color:#FCEB93"/>
			<stop  offset="0.4462" style="stop-color:#9A6228"/>
			<stop  offset="0.6667" style="stop-color:#EDA254"/>
			<stop  offset="1" style="stop-color:#EBBA52"/>
		</linearGradient>
		<path class="st10" d="M45.9,125.4c0,4.1-2.5,6.8-6.4,6.8c-4,0-6.2-3-6.2-6.6c0-3.7,2.5-6.7,6.4-6.7
			C43.8,118.9,45.9,122,45.9,125.4 M36.9,125.6c0,2.4,1,3.9,2.7,3.9c1.7,0,2.6-1.6,2.6-3.9c0-2.2-1-3.9-2.7-3.9
			C37.9,121.6,36.9,123.2,36.9,125.6"/>
		<linearGradient id="SVGID_12_" gradientUnits="userSpaceOnUse" x1="33.2484" y1="125.5589" x2="45.8778" y2="125.5589">
			<stop  offset="0" style="stop-color:#EBBA52"/>
			<stop  offset="0.1035" style="stop-color:#F4D474"/>
			<stop  offset="0.2097" style="stop-color:#FCEB93"/>
			<stop  offset="0.4462" style="stop-color:#9A6228"/>
			<stop  offset="0.6667" style="stop-color:#EDA254"/>
			<stop  offset="1" style="stop-color:#EBBA52"/>
		</linearGradient>
		<path class="st11" d="M45.9,125.4c0,4.1-2.5,6.8-6.4,6.8c-4,0-6.2-3-6.2-6.6c0-3.7,2.5-6.7,6.4-6.7
			C43.8,118.9,45.9,122,45.9,125.4z M36.9,125.6c0,2.4,1,3.9,2.7,3.9c1.7,0,2.6-1.6,2.6-3.9c0-2.2-1-3.9-2.7-3.9
			C37.9,121.6,36.9,123.2,36.9,125.6z"/>
		<linearGradient id="SVGID_13_" gradientUnits="userSpaceOnUse" x1="49.5634" y1="125.5581" x2="57.9575" y2="125.5581">
			<stop  offset="0" style="stop-color:#EBBA52"/>
			<stop  offset="0.1035" style="stop-color:#F4D474"/>
			<stop  offset="0.2097" style="stop-color:#FCEB93"/>
			<stop  offset="0.4462" style="stop-color:#9A6228"/>
			<stop  offset="0.6667" style="stop-color:#EDA254"/>
			<stop  offset="1" style="stop-color:#EBBA52"/>
		</linearGradient>
		<polygon class="st12" points="49.6,119.1 53,119.1 53,129.1 58,129.1 58,132 49.6,132 		"/>
		<linearGradient id="SVGID_14_" gradientUnits="userSpaceOnUse" x1="49.5634" y1="125.5581" x2="57.9575" y2="125.5581">
			<stop  offset="0" style="stop-color:#EBBA52"/>
			<stop  offset="0.1035" style="stop-color:#F4D474"/>
			<stop  offset="0.2097" style="stop-color:#FCEB93"/>
			<stop  offset="0.4462" style="stop-color:#9A6228"/>
			<stop  offset="0.6667" style="stop-color:#EDA254"/>
			<stop  offset="1" style="stop-color:#EBBA52"/>
		</linearGradient>
		<polygon class="st13" points="49.6,119.1 53,119.1 53,129.1 58,129.1 58,132 49.6,132 		"/>
		<linearGradient id="SVGID_15_" gradientUnits="userSpaceOnUse" x1="61.4901" y1="125.5871" x2="73.204" y2="125.5871">
			<stop  offset="0" style="stop-color:#EBBA52"/>
			<stop  offset="0.1035" style="stop-color:#F4D474"/>
			<stop  offset="0.2097" style="stop-color:#FCEB93"/>
			<stop  offset="0.4462" style="stop-color:#9A6228"/>
			<stop  offset="0.6667" style="stop-color:#EDA254"/>
			<stop  offset="1" style="stop-color:#EBBA52"/>
		</linearGradient>
		<path class="st14" d="M61.5,119.3c1.1-0.2,2.6-0.3,4.1-0.3c2.5,0,4,0.4,5.3,1.3c1.4,1,2.3,2.6,2.3,4.9c0,2.6-1,4.3-2.3,5.3
			c-1.4,1.1-3.5,1.6-6,1.6c-1.7,0-2.8-0.1-3.4-0.2V119.3z M64.9,129.4c0.2,0,0.5,0,0.7,0c2.2,0,3.9-1.2,3.9-4.1
			c0-2.5-1.5-3.7-3.5-3.7c-0.6,0-0.9,0-1,0.1V129.4z"/>
		<linearGradient id="SVGID_16_" gradientUnits="userSpaceOnUse" x1="61.4901" y1="125.5871" x2="73.204" y2="125.5871">
			<stop  offset="0" style="stop-color:#EBBA52"/>
			<stop  offset="0.1035" style="stop-color:#F4D474"/>
			<stop  offset="0.2097" style="stop-color:#FCEB93"/>
			<stop  offset="0.4462" style="stop-color:#9A6228"/>
			<stop  offset="0.6667" style="stop-color:#EDA254"/>
			<stop  offset="1" style="stop-color:#EBBA52"/>
		</linearGradient>
		<path class="st15" d="M61.5,119.3c1.1-0.2,2.6-0.3,4.1-0.3c2.5,0,4,0.4,5.3,1.3c1.4,1,2.3,2.6,2.3,4.9c0,2.6-1,4.3-2.3,5.3
			c-1.4,1.1-3.5,1.6-6,1.6c-1.7,0-2.8-0.1-3.4-0.2V119.3z M64.9,129.4c0.2,0,0.5,0,0.7,0c2.2,0,3.9-1.2,3.9-4.1
			c0-2.5-1.5-3.7-3.5-3.7c-0.6,0-0.9,0-1,0.1V129.4z"/>
		<linearGradient id="SVGID_17_" gradientUnits="userSpaceOnUse" x1="85.477" y1="125.5585" x2="94.7488" y2="125.5585">
			<stop  offset="0" style="stop-color:#EBBA52"/>
			<stop  offset="0.1035" style="stop-color:#F4D474"/>
			<stop  offset="0.2097" style="stop-color:#FCEB93"/>
			<stop  offset="0.4462" style="stop-color:#9A6228"/>
			<stop  offset="0.6667" style="stop-color:#EDA254"/>
			<stop  offset="1" style="stop-color:#EBBA52"/>
		</linearGradient>
		<path class="st16" d="M86.1,128.6c0.8,0.4,2.1,0.8,3.3,0.8c1.2,0,1.8-0.4,1.8-1c0-0.6-0.6-1-2-1.5c-2.2-0.8-3.6-2-3.6-3.9
			c0-2.3,1.9-4,5.2-4c1.5,0,2.6,0.3,3.5,0.7l-0.7,2.7c-0.6-0.2-1.5-0.6-2.8-0.6c-1,0-1.6,0.4-1.6,1c0,0.6,0.7,0.9,2.3,1.5
			c2.3,0.8,3.4,2.1,3.4,3.9c0,2.2-1.7,4.1-5.5,4.1c-1.5,0-3.1-0.4-3.8-0.8L86.1,128.6z"/>
		<linearGradient id="SVGID_18_" gradientUnits="userSpaceOnUse" x1="85.477" y1="125.5585" x2="94.7488" y2="125.5585">
			<stop  offset="0" style="stop-color:#EBBA52"/>
			<stop  offset="0.1035" style="stop-color:#F4D474"/>
			<stop  offset="0.2097" style="stop-color:#FCEB93"/>
			<stop  offset="0.4462" style="stop-color:#9A6228"/>
			<stop  offset="0.6667" style="stop-color:#EDA254"/>
			<stop  offset="1" style="stop-color:#EBBA52"/>
		</linearGradient>
		<path class="st17" d="M86.1,128.6c0.8,0.4,2.1,0.8,3.3,0.8c1.2,0,1.8-0.4,1.8-1c0-0.6-0.6-1-2-1.5c-2.2-0.8-3.6-2-3.6-3.9
			c0-2.3,1.9-4,5.2-4c1.5,0,2.6,0.3,3.5,0.7l-0.7,2.7c-0.6-0.2-1.5-0.6-2.8-0.6c-1,0-1.6,0.4-1.6,1c0,0.6,0.7,0.9,2.3,1.5
			c2.3,0.8,3.4,2.1,3.4,3.9c0,2.2-1.7,4.1-5.5,4.1c-1.5,0-3.1-0.4-3.8-0.8L86.1,128.6z"/>
		<linearGradient id="SVGID_19_" gradientUnits="userSpaceOnUse" x1="97.671" y1="125.5585" x2="107.743" y2="125.5585">
			<stop  offset="0" style="stop-color:#EBBA52"/>
			<stop  offset="0.1035" style="stop-color:#F4D474"/>
			<stop  offset="0.2097" style="stop-color:#FCEB93"/>
			<stop  offset="0.4462" style="stop-color:#9A6228"/>
			<stop  offset="0.6667" style="stop-color:#EDA254"/>
			<stop  offset="1" style="stop-color:#EBBA52"/>
		</linearGradient>
		<polygon class="st18" points="101,122 97.7,122 97.7,119.1 107.7,119.1 107.7,122 104.4,122 104.4,132 101,132 		"/>
		<linearGradient id="SVGID_20_" gradientUnits="userSpaceOnUse" x1="97.671" y1="125.5585" x2="107.743" y2="125.5585">
			<stop  offset="0" style="stop-color:#EBBA52"/>
			<stop  offset="0.1035" style="stop-color:#F4D474"/>
			<stop  offset="0.2097" style="stop-color:#FCEB93"/>
			<stop  offset="0.4462" style="stop-color:#9A6228"/>
			<stop  offset="0.6667" style="stop-color:#EDA254"/>
			<stop  offset="1" style="stop-color:#EBBA52"/>
		</linearGradient>
		<polygon class="st19" points="101,122 97.7,122 97.7,119.1 107.7,119.1 107.7,122 104.4,122 104.4,132 101,132 		"/>
		<linearGradient id="SVGID_21_" gradientUnits="userSpaceOnUse" x1="108.9293" y1="125.5581" x2="121.0804" y2="125.5581">
			<stop  offset="0" style="stop-color:#EBBA52"/>
			<stop  offset="0.1035" style="stop-color:#F4D474"/>
			<stop  offset="0.2097" style="stop-color:#FCEB93"/>
			<stop  offset="0.4462" style="stop-color:#9A6228"/>
			<stop  offset="0.6667" style="stop-color:#EDA254"/>
			<stop  offset="1" style="stop-color:#EBBA52"/>
		</linearGradient>
		<path class="st20" d="M113.2,129l-0.7,3h-3.6l3.7-12.9h4.6l3.8,12.9h-3.7l-0.8-3H113.2z M116.1,126.5l-0.6-2.3
			c-0.2-0.7-0.4-1.8-0.6-2.5h0c-0.2,0.8-0.4,1.8-0.6,2.6l-0.6,2.3H116.1z"/>
		<linearGradient id="SVGID_22_" gradientUnits="userSpaceOnUse" x1="108.9293" y1="125.5581" x2="121.0804" y2="125.5581">
			<stop  offset="0" style="stop-color:#EBBA52"/>
			<stop  offset="0.1035" style="stop-color:#F4D474"/>
			<stop  offset="0.2097" style="stop-color:#FCEB93"/>
			<stop  offset="0.4462" style="stop-color:#9A6228"/>
			<stop  offset="0.6667" style="stop-color:#EDA254"/>
			<stop  offset="1" style="stop-color:#EBBA52"/>
		</linearGradient>
		<path class="st21" d="M113.2,129l-0.7,3h-3.6l3.7-12.9h4.6l3.8,12.9h-3.7l-0.8-3H113.2z M116.1,126.5l-0.6-2.3
			c-0.2-0.7-0.4-1.8-0.6-2.5h0c-0.2,0.8-0.4,1.8-0.6,2.6l-0.6,2.3H116.1z"/>
		<linearGradient id="SVGID_23_" gradientUnits="userSpaceOnUse" x1="124.576" y1="125.5581" x2="135.64" y2="125.5581">
			<stop  offset="0" style="stop-color:#EBBA52"/>
			<stop  offset="0.1035" style="stop-color:#F4D474"/>
			<stop  offset="0.2097" style="stop-color:#FCEB93"/>
			<stop  offset="0.4462" style="stop-color:#9A6228"/>
			<stop  offset="0.6667" style="stop-color:#EDA254"/>
			<stop  offset="1" style="stop-color:#EBBA52"/>
		</linearGradient>
		<path class="st22" d="M124.6,132v-12.9h4.1l2,3.9c0.7,1.3,1.5,3,2,4.5h0.1c-0.2-1.7-0.3-3.5-0.3-5.4v-3h3.1V132H132l-2.2-4.3
			c-0.7-1.4-1.6-3.1-2.2-4.7h-0.1c0.1,1.7,0.1,3.7,0.1,5.8v3.2H124.6z"/>
		<linearGradient id="SVGID_24_" gradientUnits="userSpaceOnUse" x1="124.576" y1="125.5581" x2="135.64" y2="125.5581">
			<stop  offset="0" style="stop-color:#EBBA52"/>
			<stop  offset="0.1035" style="stop-color:#F4D474"/>
			<stop  offset="0.2097" style="stop-color:#FCEB93"/>
			<stop  offset="0.4462" style="stop-color:#9A6228"/>
			<stop  offset="0.6667" style="stop-color:#EDA254"/>
			<stop  offset="1" style="stop-color:#EBBA52"/>
		</linearGradient>
		<path class="st23" d="M124.6,132v-12.9h4.1l2,3.9c0.7,1.3,1.5,3,2,4.5h0.1c-0.2-1.7-0.3-3.5-0.3-5.4v-3h3.1V132H132l-2.2-4.3
			c-0.7-1.4-1.6-3.1-2.2-4.7h-0.1c0.1,1.7,0.1,3.7,0.1,5.8v3.2H124.6z"/>
		<linearGradient id="SVGID_25_" gradientUnits="userSpaceOnUse" x1="139.8795" y1="125.5871" x2="151.5935" y2="125.5871">
			<stop  offset="0" style="stop-color:#EBBA52"/>
			<stop  offset="0.1035" style="stop-color:#F4D474"/>
			<stop  offset="0.2097" style="stop-color:#FCEB93"/>
			<stop  offset="0.4462" style="stop-color:#9A6228"/>
			<stop  offset="0.6667" style="stop-color:#EDA254"/>
			<stop  offset="1" style="stop-color:#EBBA52"/>
		</linearGradient>
		<path class="st24" d="M139.9,119.3c1.1-0.2,2.6-0.3,4.1-0.3c2.5,0,4,0.4,5.3,1.3c1.4,1,2.3,2.6,2.3,4.9c0,2.6-1,4.3-2.3,5.3
			c-1.4,1.1-3.5,1.6-6,1.6c-1.7,0-2.8-0.1-3.4-0.2V119.3z M143.3,129.4c0.2,0,0.5,0,0.7,0c2.2,0,3.9-1.2,3.9-4.1
			c0-2.5-1.5-3.7-3.5-3.7c-0.6,0-0.9,0-1,0.1V129.4z"/>
		<linearGradient id="SVGID_26_" gradientUnits="userSpaceOnUse" x1="139.8795" y1="125.5871" x2="151.5935" y2="125.5871">
			<stop  offset="0" style="stop-color:#EBBA52"/>
			<stop  offset="0.1035" style="stop-color:#F4D474"/>
			<stop  offset="0.2097" style="stop-color:#FCEB93"/>
			<stop  offset="0.4462" style="stop-color:#9A6228"/>
			<stop  offset="0.6667" style="stop-color:#EDA254"/>
			<stop  offset="1" style="stop-color:#EBBA52"/>
		</linearGradient>
		<path class="st25" d="M139.9,119.3c1.1-0.2,2.6-0.3,4.1-0.3c2.5,0,4,0.4,5.3,1.3c1.4,1,2.3,2.6,2.3,4.9c0,2.6-1,4.3-2.3,5.3
			c-1.4,1.1-3.5,1.6-6,1.6c-1.7,0-2.8-0.1-3.4-0.2V119.3z M143.3,129.4c0.2,0,0.5,0,0.7,0c2.2,0,3.9-1.2,3.9-4.1
			c0-2.5-1.5-3.7-3.5-3.7c-0.6,0-0.9,0-1,0.1V129.4z"/>
		<linearGradient id="SVGID_27_" gradientUnits="userSpaceOnUse" x1="154.0584" y1="125.5581" x2="166.2094" y2="125.5581">
			<stop  offset="0" style="stop-color:#EBBA52"/>
			<stop  offset="0.1035" style="stop-color:#F4D474"/>
			<stop  offset="0.2097" style="stop-color:#FCEB93"/>
			<stop  offset="0.4462" style="stop-color:#9A6228"/>
			<stop  offset="0.6667" style="stop-color:#EDA254"/>
			<stop  offset="1" style="stop-color:#EBBA52"/>
		</linearGradient>
		<path class="st26" d="M158.4,129l-0.7,3h-3.6l3.7-12.9h4.6l3.8,12.9h-3.7l-0.8-3H158.4z M161.2,126.5l-0.6-2.3
			c-0.2-0.7-0.4-1.8-0.6-2.5h0c-0.2,0.8-0.4,1.8-0.6,2.6l-0.6,2.3H161.2z"/>
		<linearGradient id="SVGID_28_" gradientUnits="userSpaceOnUse" x1="154.0584" y1="125.5581" x2="166.2094" y2="125.5581">
			<stop  offset="0" style="stop-color:#EBBA52"/>
			<stop  offset="0.1035" style="stop-color:#F4D474"/>
			<stop  offset="0.2097" style="stop-color:#FCEB93"/>
			<stop  offset="0.4462" style="stop-color:#9A6228"/>
			<stop  offset="0.6667" style="stop-color:#EDA254"/>
			<stop  offset="1" style="stop-color:#EBBA52"/>
		</linearGradient>
		<path class="st27" d="M158.4,129l-0.7,3h-3.6l3.7-12.9h4.6l3.8,12.9h-3.7l-0.8-3H158.4z M161.2,126.5l-0.6-2.3
			c-0.2-0.7-0.4-1.8-0.6-2.5h0c-0.2,0.8-0.4,1.8-0.6,2.6l-0.6,2.3H161.2z"/>
		<linearGradient id="SVGID_29_" gradientUnits="userSpaceOnUse" x1="169.7041" y1="125.511" x2="179.9864" y2="125.511">
			<stop  offset="0" style="stop-color:#EBBA52"/>
			<stop  offset="0.1035" style="stop-color:#F4D474"/>
			<stop  offset="0.2097" style="stop-color:#FCEB93"/>
			<stop  offset="0.4462" style="stop-color:#9A6228"/>
			<stop  offset="0.6667" style="stop-color:#EDA254"/>
			<stop  offset="1" style="stop-color:#EBBA52"/>
		</linearGradient>
		<path class="st28" d="M169.7,119.3c1-0.2,2.4-0.3,4.2-0.3c2,0,3.4,0.3,4.3,1c0.8,0.6,1.3,1.5,1.3,2.8c0,1.6-1.2,2.7-2.2,3.1v0.1
			c0.9,0.4,1.3,1.2,1.6,2.3c0.4,1.3,0.8,3.2,1.1,3.7h-3.5c-0.2-0.4-0.5-1.4-0.9-3c-0.3-1.5-0.8-1.9-1.9-1.9h-0.6v4.8h-3.4V119.3z
			 M173.1,124.7h0.9c1.3,0,2-0.6,2-1.6c0-1-0.6-1.5-1.8-1.5c-0.6,0-1,0-1.2,0.1V124.7z"/>
		<linearGradient id="SVGID_30_" gradientUnits="userSpaceOnUse" x1="169.7041" y1="125.511" x2="179.9864" y2="125.511">
			<stop  offset="0" style="stop-color:#EBBA52"/>
			<stop  offset="0.1035" style="stop-color:#F4D474"/>
			<stop  offset="0.2097" style="stop-color:#FCEB93"/>
			<stop  offset="0.4462" style="stop-color:#9A6228"/>
			<stop  offset="0.6667" style="stop-color:#EDA254"/>
			<stop  offset="1" style="stop-color:#EBBA52"/>
		</linearGradient>
		<path class="st29" d="M169.7,119.3c1-0.2,2.4-0.3,4.2-0.3c2,0,3.4,0.3,4.3,1c0.8,0.6,1.3,1.5,1.3,2.8c0,1.6-1.2,2.7-2.2,3.1v0.1
			c0.9,0.4,1.3,1.2,1.6,2.3c0.4,1.3,0.8,3.2,1.1,3.7h-3.5c-0.2-0.4-0.5-1.4-0.9-3c-0.3-1.5-0.8-1.9-1.9-1.9h-0.6v4.8h-3.4V119.3z
			 M173.1,124.7h0.9c1.3,0,2-0.6,2-1.6c0-1-0.6-1.5-1.8-1.5c-0.6,0-1,0-1.2,0.1V124.7z"/>
		<linearGradient id="SVGID_31_" gradientUnits="userSpaceOnUse" x1="183.329" y1="125.5871" x2="195.043" y2="125.5871">
			<stop  offset="0" style="stop-color:#EBBA52"/>
			<stop  offset="0.1035" style="stop-color:#F4D474"/>
			<stop  offset="0.2097" style="stop-color:#FCEB93"/>
			<stop  offset="0.4462" style="stop-color:#9A6228"/>
			<stop  offset="0.6667" style="stop-color:#EDA254"/>
			<stop  offset="1" style="stop-color:#EBBA52"/>
		</linearGradient>
		<path class="st30" d="M183.3,119.3c1.1-0.2,2.6-0.3,4.1-0.3c2.5,0,4,0.4,5.3,1.3c1.4,1,2.3,2.6,2.3,4.9c0,2.6-1,4.3-2.3,5.3
			c-1.4,1.1-3.5,1.6-6,1.6c-1.7,0-2.8-0.1-3.4-0.2V119.3z M186.8,129.4c0.2,0,0.5,0,0.7,0c2.2,0,3.9-1.2,3.9-4.1
			c0-2.5-1.5-3.7-3.5-3.7c-0.6,0-0.9,0-1,0.1V129.4z"/>
		<linearGradient id="SVGID_32_" gradientUnits="userSpaceOnUse" x1="183.329" y1="125.5871" x2="195.043" y2="125.5871">
			<stop  offset="0" style="stop-color:#EBBA52"/>
			<stop  offset="0.1035" style="stop-color:#F4D474"/>
			<stop  offset="0.2097" style="stop-color:#FCEB93"/>
			<stop  offset="0.4462" style="stop-color:#9A6228"/>
			<stop  offset="0.6667" style="stop-color:#EDA254"/>
			<stop  offset="1" style="stop-color:#EBBA52"/>
		</linearGradient>
		<path class="st31" d="M183.3,119.3c1.1-0.2,2.6-0.3,4.1-0.3c2.5,0,4,0.4,5.3,1.3c1.4,1,2.3,2.6,2.3,4.9c0,2.6-1,4.3-2.3,5.3
			c-1.4,1.1-3.5,1.6-6,1.6c-1.7,0-2.8-0.1-3.4-0.2V119.3z M186.8,129.4c0.2,0,0.5,0,0.7,0c2.2,0,3.9-1.2,3.9-4.1
			c0-2.5-1.5-3.7-3.5-3.7c-0.6,0-0.9,0-1,0.1V129.4z"/>
		<linearGradient id="SVGID_33_" gradientUnits="userSpaceOnUse" x1="207.2007" y1="125.5585" x2="218.876" y2="125.5585">
			<stop  offset="0" style="stop-color:#EBBA52"/>
			<stop  offset="0.1035" style="stop-color:#F4D474"/>
			<stop  offset="0.2097" style="stop-color:#FCEB93"/>
			<stop  offset="0.4462" style="stop-color:#9A6228"/>
			<stop  offset="0.6667" style="stop-color:#EDA254"/>
			<stop  offset="1" style="stop-color:#EBBA52"/>
		</linearGradient>
		<path class="st32" d="M218.9,131.4c-1,0.3-2.7,0.7-4.4,0.7c-2.5,0-4.3-0.6-5.4-1.7c-1.2-1.1-1.8-2.8-1.8-4.7
			c0-4.5,3.3-6.7,7.5-6.7c1.7,0,3.1,0.3,3.7,0.6l-0.7,2.7c-0.7-0.3-1.6-0.5-3.1-0.5c-2.1,0-3.9,1.1-3.9,3.7c0,2.4,1.5,3.8,3.7,3.8
			c0.5,0,0.9-0.1,1.1-0.1V127h-1.7v-2.7h5V131.4z"/>
		<linearGradient id="SVGID_34_" gradientUnits="userSpaceOnUse" x1="207.2007" y1="125.5585" x2="218.876" y2="125.5585">
			<stop  offset="0" style="stop-color:#EBBA52"/>
			<stop  offset="0.1035" style="stop-color:#F4D474"/>
			<stop  offset="0.2097" style="stop-color:#FCEB93"/>
			<stop  offset="0.4462" style="stop-color:#9A6228"/>
			<stop  offset="0.6667" style="stop-color:#EDA254"/>
			<stop  offset="1" style="stop-color:#EBBA52"/>
		</linearGradient>
		<path class="st33" d="M218.9,131.4c-1,0.3-2.7,0.7-4.4,0.7c-2.5,0-4.3-0.6-5.4-1.7c-1.2-1.1-1.8-2.8-1.8-4.7
			c0-4.5,3.3-6.7,7.5-6.7c1.7,0,3.1,0.3,3.7,0.6l-0.7,2.7c-0.7-0.3-1.6-0.5-3.1-0.5c-2.1,0-3.9,1.1-3.9,3.7c0,2.4,1.5,3.8,3.7,3.8
			c0.5,0,0.9-0.1,1.1-0.1V127h-1.7v-2.7h5V131.4z"/>
		<linearGradient id="SVGID_35_" gradientUnits="userSpaceOnUse" x1="222.886" y1="125.5577" x2="226.3387" y2="125.5577">
			<stop  offset="0" style="stop-color:#EBBA52"/>
			<stop  offset="0.1035" style="stop-color:#F4D474"/>
			<stop  offset="0.2097" style="stop-color:#FCEB93"/>
			<stop  offset="0.4462" style="stop-color:#9A6228"/>
			<stop  offset="0.6667" style="stop-color:#EDA254"/>
			<stop  offset="1" style="stop-color:#EBBA52"/>
		</linearGradient>
		<rect x="222.9" y="119.1" class="st34" width="3.5" height="12.9"/>
		<linearGradient id="SVGID_36_" gradientUnits="userSpaceOnUse" x1="222.886" y1="125.5577" x2="226.3387" y2="125.5577">
			<stop  offset="0" style="stop-color:#EBBA52"/>
			<stop  offset="0.1035" style="stop-color:#F4D474"/>
			<stop  offset="0.2097" style="stop-color:#FCEB93"/>
			<stop  offset="0.4462" style="stop-color:#9A6228"/>
			<stop  offset="0.6667" style="stop-color:#EDA254"/>
			<stop  offset="1" style="stop-color:#EBBA52"/>
		</linearGradient>
		<rect x="222.9" y="119.1" class="st35" width="3.5" height="12.9"/>
		<linearGradient id="SVGID_37_" gradientUnits="userSpaceOnUse" x1="230.5573" y1="125.5581" x2="241.6213" y2="125.5581">
			<stop  offset="0" style="stop-color:#EBBA52"/>
			<stop  offset="0.1035" style="stop-color:#F4D474"/>
			<stop  offset="0.2097" style="stop-color:#FCEB93"/>
			<stop  offset="0.4462" style="stop-color:#9A6228"/>
			<stop  offset="0.6667" style="stop-color:#EDA254"/>
			<stop  offset="1" style="stop-color:#EBBA52"/>
		</linearGradient>
		<path class="st36" d="M230.6,132v-12.9h4.1l2,3.9c0.7,1.3,1.5,3,2,4.5h0.1c-0.2-1.7-0.3-3.5-0.3-5.4v-3h3.1V132H238l-2.2-4.3
			c-0.7-1.4-1.6-3.1-2.2-4.7h-0.1c0.1,1.7,0.1,3.7,0.1,5.8v3.2H230.6z"/>
		<linearGradient id="SVGID_38_" gradientUnits="userSpaceOnUse" x1="230.5573" y1="125.5581" x2="241.6213" y2="125.5581">
			<stop  offset="0" style="stop-color:#EBBA52"/>
			<stop  offset="0.1035" style="stop-color:#F4D474"/>
			<stop  offset="0.2097" style="stop-color:#FCEB93"/>
			<stop  offset="0.4462" style="stop-color:#9A6228"/>
			<stop  offset="0.6667" style="stop-color:#EDA254"/>
			<stop  offset="1" style="stop-color:#EBBA52"/>
		</linearGradient>
		<path class="st37" d="M230.6,132v-12.9h4.1l2,3.9c0.7,1.3,1.5,3,2,4.5h0.1c-0.2-1.7-0.3-3.5-0.3-5.4v-3h3.1V132H238l-2.2-4.3
			c-0.7-1.4-1.6-3.1-2.2-4.7h-0.1c0.1,1.7,0.1,3.7,0.1,5.8v3.2H230.6z"/>
		<linearGradient id="SVGID_39_" gradientUnits="userSpaceOnUse" x1="245.8609" y1="125.5581" x2="257.0023" y2="125.5581">
			<stop  offset="0" style="stop-color:#EBBA52"/>
			<stop  offset="0.1035" style="stop-color:#F4D474"/>
			<stop  offset="0.2097" style="stop-color:#FCEB93"/>
			<stop  offset="0.4462" style="stop-color:#9A6228"/>
			<stop  offset="0.6667" style="stop-color:#EDA254"/>
			<stop  offset="1" style="stop-color:#EBBA52"/>
		</linearGradient>
		<path class="st38" d="M245.9,119.1h3.4v5.5h0c0.3-0.5,0.6-1,0.8-1.4l2.5-4h4.2l-4.1,5.5l4.2,7.4h-4l-2.7-5.2l-1,1.3v3.9h-3.4
			V119.1z"/>
		<linearGradient id="SVGID_40_" gradientUnits="userSpaceOnUse" x1="245.8609" y1="125.5581" x2="257.0023" y2="125.5581">
			<stop  offset="0" style="stop-color:#EBBA52"/>
			<stop  offset="0.1035" style="stop-color:#F4D474"/>
			<stop  offset="0.2097" style="stop-color:#FCEB93"/>
			<stop  offset="0.4462" style="stop-color:#9A6228"/>
			<stop  offset="0.6667" style="stop-color:#EDA254"/>
			<stop  offset="1" style="stop-color:#EBBA52"/>
		</linearGradient>
		<path class="st39" d="M245.9,119.1h3.4v5.5h0c0.3-0.5,0.6-1,0.8-1.4l2.5-4h4.2l-4.1,5.5l4.2,7.4h-4l-2.7-5.2l-1,1.3v3.9h-3.4
			V119.1z"/>
		<linearGradient id="SVGID_41_" gradientUnits="userSpaceOnUse" x1="258.7408" y1="125.5585" x2="270.417" y2="125.5585">
			<stop  offset="0" style="stop-color:#EBBA52"/>
			<stop  offset="0.1035" style="stop-color:#F4D474"/>
			<stop  offset="0.2097" style="stop-color:#FCEB93"/>
			<stop  offset="0.4462" style="stop-color:#9A6228"/>
			<stop  offset="0.6667" style="stop-color:#EDA254"/>
			<stop  offset="1" style="stop-color:#EBBA52"/>
		</linearGradient>
		<path class="st40" d="M270.4,131.4c-1,0.3-2.7,0.7-4.4,0.7c-2.5,0-4.3-0.6-5.4-1.7c-1.2-1.1-1.8-2.8-1.8-4.7
			c0-4.5,3.3-6.7,7.5-6.7c1.7,0,3.1,0.3,3.7,0.6l-0.7,2.7c-0.7-0.3-1.6-0.5-3.1-0.5c-2.1,0-3.9,1.1-3.9,3.7c0,2.4,1.5,3.8,3.7,3.8
			c0.5,0,0.9-0.1,1.1-0.1V127h-1.7v-2.7h5V131.4z"/>
		<linearGradient id="SVGID_42_" gradientUnits="userSpaceOnUse" x1="258.7408" y1="125.5585" x2="270.417" y2="125.5585">
			<stop  offset="0" style="stop-color:#EBBA52"/>
			<stop  offset="0.1035" style="stop-color:#F4D474"/>
			<stop  offset="0.2097" style="stop-color:#FCEB93"/>
			<stop  offset="0.4462" style="stop-color:#9A6228"/>
			<stop  offset="0.6667" style="stop-color:#EDA254"/>
			<stop  offset="1" style="stop-color:#EBBA52"/>
		</linearGradient>
		<path class="st41" d="M270.4,131.4c-1,0.3-2.7,0.7-4.4,0.7c-2.5,0-4.3-0.6-5.4-1.7c-1.2-1.1-1.8-2.8-1.8-4.7
			c0-4.5,3.3-6.7,7.5-6.7c1.7,0,3.1,0.3,3.7,0.6l-0.7,2.7c-0.7-0.3-1.6-0.5-3.1-0.5c-2.1,0-3.9,1.1-3.9,3.7c0,2.4,1.5,3.8,3.7,3.8
			c0.5,0,0.9-0.1,1.1-0.1V127h-1.7v-2.7h5V131.4z"/>
		<linearGradient id="SVGID_43_" gradientUnits="userSpaceOnUse" x1="273.8932" y1="125.5589" x2="286.5218" y2="125.5589">
			<stop  offset="0" style="stop-color:#EBBA52"/>
			<stop  offset="0.1035" style="stop-color:#F4D474"/>
			<stop  offset="0.2097" style="stop-color:#FCEB93"/>
			<stop  offset="0.4462" style="stop-color:#9A6228"/>
			<stop  offset="0.6667" style="stop-color:#EDA254"/>
			<stop  offset="1" style="stop-color:#EBBA52"/>
		</linearGradient>
		<path class="st42" d="M286.5,125.4c0,4.1-2.5,6.8-6.4,6.8c-4,0-6.2-3-6.2-6.6c0-3.7,2.5-6.7,6.4-6.7
			C284.4,118.9,286.5,122,286.5,125.4 M277.5,125.6c0,2.4,1,3.9,2.7,3.9c1.7,0,2.6-1.6,2.6-3.9c0-2.2-1-3.9-2.7-3.9
			C278.6,121.6,277.5,123.2,277.5,125.6"/>
		<linearGradient id="SVGID_44_" gradientUnits="userSpaceOnUse" x1="273.8932" y1="125.5589" x2="286.5218" y2="125.5589">
			<stop  offset="0" style="stop-color:#EBBA52"/>
			<stop  offset="0.1035" style="stop-color:#F4D474"/>
			<stop  offset="0.2097" style="stop-color:#FCEB93"/>
			<stop  offset="0.4462" style="stop-color:#9A6228"/>
			<stop  offset="0.6667" style="stop-color:#EDA254"/>
			<stop  offset="1" style="stop-color:#EBBA52"/>
		</linearGradient>
		<path class="st43" d="M286.5,125.4c0,4.1-2.5,6.8-6.4,6.8c-4,0-6.2-3-6.2-6.6c0-3.7,2.5-6.7,6.4-6.7
			C284.4,118.9,286.5,122,286.5,125.4z M277.5,125.6c0,2.4,1,3.9,2.7,3.9c1.7,0,2.6-1.6,2.6-3.9c0-2.2-1-3.9-2.7-3.9
			C278.6,121.6,277.5,123.2,277.5,125.6z"/>
		<linearGradient id="SVGID_45_" gradientUnits="userSpaceOnUse" x1="299.2151" y1="125.5875" x2="309.3646" y2="125.5875">
			<stop  offset="0" style="stop-color:#EBBA52"/>
			<stop  offset="0.1035" style="stop-color:#F4D474"/>
			<stop  offset="0.2097" style="stop-color:#FCEB93"/>
			<stop  offset="0.4462" style="stop-color:#9A6228"/>
			<stop  offset="0.6667" style="stop-color:#EDA254"/>
			<stop  offset="1" style="stop-color:#EBBA52"/>
		</linearGradient>
		<path class="st44" d="M299.2,119.3c0.8-0.1,2.5-0.3,4.1-0.3c1.8,0,2.9,0.1,3.9,0.6c1,0.5,1.7,1.4,1.7,2.6c0,1.1-0.6,2.1-2.1,2.7v0
			c1.6,0.4,2.5,1.6,2.5,3.1c0,1.2-0.6,2.2-1.4,2.8c-1,0.7-2.6,1.2-5.3,1.2c-1.6,0-2.7-0.1-3.4-0.2V119.3z M302.6,124.1h0.7
			c1.5,0,2.2-0.5,2.2-1.3c0-0.8-0.6-1.2-1.7-1.2c-0.6,0-0.9,0-1.1,0.1V124.1z M302.6,129.6c0.2,0,0.6,0,1,0c1.1,0,2.1-0.5,2.1-1.6
			c0-1.1-1-1.5-2.3-1.5h-0.8V129.6z"/>
		<linearGradient id="SVGID_46_" gradientUnits="userSpaceOnUse" x1="299.2151" y1="125.5875" x2="309.3646" y2="125.5875">
			<stop  offset="0" style="stop-color:#EBBA52"/>
			<stop  offset="0.1035" style="stop-color:#F4D474"/>
			<stop  offset="0.2097" style="stop-color:#FCEB93"/>
			<stop  offset="0.4462" style="stop-color:#9A6228"/>
			<stop  offset="0.6667" style="stop-color:#EDA254"/>
			<stop  offset="1" style="stop-color:#EBBA52"/>
		</linearGradient>
		<path class="st45" d="M299.2,119.3c0.8-0.1,2.5-0.3,4.1-0.3c1.8,0,2.9,0.1,3.9,0.6c1,0.5,1.7,1.4,1.7,2.6c0,1.1-0.6,2.1-2.1,2.7v0
			c1.6,0.4,2.5,1.6,2.5,3.1c0,1.2-0.6,2.2-1.4,2.8c-1,0.7-2.6,1.2-5.3,1.2c-1.6,0-2.7-0.1-3.4-0.2V119.3z M302.6,124.1h0.7
			c1.5,0,2.2-0.5,2.2-1.3c0-0.8-0.6-1.2-1.7-1.2c-0.6,0-0.9,0-1.1,0.1V124.1z M302.6,129.6c0.2,0,0.6,0,1,0c1.1,0,2.1-0.5,2.1-1.6
			c0-1.1-1-1.5-2.3-1.5h-0.8V129.6z"/>
		<linearGradient id="SVGID_47_" gradientUnits="userSpaceOnUse" x1="313.1064" y1="125.5577" x2="316.5599" y2="125.5577">
			<stop  offset="0" style="stop-color:#EBBA52"/>
			<stop  offset="0.1035" style="stop-color:#F4D474"/>
			<stop  offset="0.2097" style="stop-color:#FCEB93"/>
			<stop  offset="0.4462" style="stop-color:#9A6228"/>
			<stop  offset="0.6667" style="stop-color:#EDA254"/>
			<stop  offset="1" style="stop-color:#EBBA52"/>
		</linearGradient>
		<rect x="313.1" y="119.1" class="st46" width="3.5" height="12.9"/>
		<linearGradient id="SVGID_48_" gradientUnits="userSpaceOnUse" x1="313.1064" y1="125.5577" x2="316.5599" y2="125.5577">
			<stop  offset="0" style="stop-color:#EBBA52"/>
			<stop  offset="0.1035" style="stop-color:#F4D474"/>
			<stop  offset="0.2097" style="stop-color:#FCEB93"/>
			<stop  offset="0.4462" style="stop-color:#9A6228"/>
			<stop  offset="0.6667" style="stop-color:#EDA254"/>
			<stop  offset="1" style="stop-color:#EBBA52"/>
		</linearGradient>
		<rect x="313.1" y="119.1" class="st47" width="3.5" height="12.9"/>
		<linearGradient id="SVGID_49_" gradientUnits="userSpaceOnUse" x1="320.7784" y1="125.5581" x2="329.1717" y2="125.5581">
			<stop  offset="0" style="stop-color:#EBBA52"/>
			<stop  offset="0.1035" style="stop-color:#F4D474"/>
			<stop  offset="0.2097" style="stop-color:#FCEB93"/>
			<stop  offset="0.4462" style="stop-color:#9A6228"/>
			<stop  offset="0.6667" style="stop-color:#EDA254"/>
			<stop  offset="1" style="stop-color:#EBBA52"/>
		</linearGradient>
		<polygon class="st48" points="320.8,119.1 324.2,119.1 324.2,129.1 329.2,129.1 329.2,132 320.8,132 		"/>
		<linearGradient id="SVGID_50_" gradientUnits="userSpaceOnUse" x1="320.7784" y1="125.5581" x2="329.1717" y2="125.5581">
			<stop  offset="0" style="stop-color:#EBBA52"/>
			<stop  offset="0.1035" style="stop-color:#F4D474"/>
			<stop  offset="0.2097" style="stop-color:#FCEB93"/>
			<stop  offset="0.4462" style="stop-color:#9A6228"/>
			<stop  offset="0.6667" style="stop-color:#EDA254"/>
			<stop  offset="1" style="stop-color:#EBBA52"/>
		</linearGradient>
		<polygon class="st49" points="320.8,119.1 324.2,119.1 324.2,129.1 329.2,129.1 329.2,132 320.8,132 		"/>
		<linearGradient id="SVGID_51_" gradientUnits="userSpaceOnUse" x1="331.4458" y1="125.5589" x2="344.0744" y2="125.5589">
			<stop  offset="0" style="stop-color:#EBBA52"/>
			<stop  offset="0.1035" style="stop-color:#F4D474"/>
			<stop  offset="0.2097" style="stop-color:#FCEB93"/>
			<stop  offset="0.4462" style="stop-color:#9A6228"/>
			<stop  offset="0.6667" style="stop-color:#EDA254"/>
			<stop  offset="1" style="stop-color:#EBBA52"/>
		</linearGradient>
		<path class="st50" d="M344.1,125.4c0,4.1-2.5,6.8-6.4,6.8c-4,0-6.2-3-6.2-6.6c0-3.7,2.5-6.7,6.4-6.7
			C342,118.9,344.1,122,344.1,125.4 M335.1,125.6c0,2.4,1,3.9,2.7,3.9c1.7,0,2.6-1.6,2.6-3.9c0-2.2-1-3.9-2.7-3.9
			C336.1,121.6,335.1,123.2,335.1,125.6"/>
		<linearGradient id="SVGID_52_" gradientUnits="userSpaceOnUse" x1="331.4458" y1="125.5589" x2="344.0744" y2="125.5589">
			<stop  offset="0" style="stop-color:#EBBA52"/>
			<stop  offset="0.1035" style="stop-color:#F4D474"/>
			<stop  offset="0.2097" style="stop-color:#FCEB93"/>
			<stop  offset="0.4462" style="stop-color:#9A6228"/>
			<stop  offset="0.6667" style="stop-color:#EDA254"/>
			<stop  offset="1" style="stop-color:#EBBA52"/>
		</linearGradient>
		<path class="st51" d="M344.1,125.4c0,4.1-2.5,6.8-6.4,6.8c-4,0-6.2-3-6.2-6.6c0-3.7,2.5-6.7,6.4-6.7
			C342,118.9,344.1,122,344.1,125.4z M335.1,125.6c0,2.4,1,3.9,2.7,3.9c1.7,0,2.6-1.6,2.6-3.9c0-2.2-1-3.9-2.7-3.9
			C336.1,121.6,335.1,123.2,335.1,125.6z"/>
		<linearGradient id="SVGID_53_" gradientUnits="userSpaceOnUse" x1="347.7616" y1="125.5875" x2="357.9101" y2="125.5875">
			<stop  offset="0" style="stop-color:#EBBA52"/>
			<stop  offset="0.1035" style="stop-color:#F4D474"/>
			<stop  offset="0.2097" style="stop-color:#FCEB93"/>
			<stop  offset="0.4462" style="stop-color:#9A6228"/>
			<stop  offset="0.6667" style="stop-color:#EDA254"/>
			<stop  offset="1" style="stop-color:#EBBA52"/>
		</linearGradient>
		<path class="st52" d="M347.8,119.3c0.8-0.1,2.5-0.3,4.1-0.3c1.8,0,2.9,0.1,3.9,0.6c1,0.5,1.7,1.4,1.7,2.6c0,1.1-0.6,2.1-2.1,2.7v0
			c1.6,0.4,2.5,1.6,2.5,3.1c0,1.2-0.6,2.2-1.4,2.8c-1,0.7-2.6,1.2-5.3,1.2c-1.6,0-2.7-0.1-3.4-0.2V119.3z M351.2,124.1h0.7
			c1.5,0,2.2-0.5,2.2-1.3c0-0.8-0.6-1.2-1.7-1.2c-0.6,0-0.9,0-1.1,0.1V124.1z M351.2,129.6c0.2,0,0.6,0,1,0c1.1,0,2.1-0.5,2.1-1.6
			c0-1.1-1-1.5-2.3-1.5h-0.8V129.6z"/>
		<linearGradient id="SVGID_54_" gradientUnits="userSpaceOnUse" x1="347.7616" y1="125.5875" x2="357.9101" y2="125.5875">
			<stop  offset="0" style="stop-color:#EBBA52"/>
			<stop  offset="0.1035" style="stop-color:#F4D474"/>
			<stop  offset="0.2097" style="stop-color:#FCEB93"/>
			<stop  offset="0.4462" style="stop-color:#9A6228"/>
			<stop  offset="0.6667" style="stop-color:#EDA254"/>
			<stop  offset="1" style="stop-color:#EBBA52"/>
		</linearGradient>
		<path class="st53" d="M347.8,119.3c0.8-0.1,2.5-0.3,4.1-0.3c1.8,0,2.9,0.1,3.9,0.6c1,0.5,1.7,1.4,1.7,2.6c0,1.1-0.6,2.1-2.1,2.7v0
			c1.6,0.4,2.5,1.6,2.5,3.1c0,1.2-0.6,2.2-1.4,2.8c-1,0.7-2.6,1.2-5.3,1.2c-1.6,0-2.7-0.1-3.4-0.2V119.3z M351.2,124.1h0.7
			c1.5,0,2.2-0.5,2.2-1.3c0-0.8-0.6-1.2-1.7-1.2c-0.6,0-0.9,0-1.1,0.1V124.1z M351.2,129.6c0.2,0,0.6,0,1,0c1.1,0,2.1-0.5,2.1-1.6
			c0-1.1-1-1.5-2.3-1.5h-0.8V129.6z"/>
		<linearGradient id="SVGID_55_" gradientUnits="userSpaceOnUse" x1="360.6415" y1="125.5581" x2="372.7926" y2="125.5581">
			<stop  offset="0" style="stop-color:#EBBA52"/>
			<stop  offset="0.1035" style="stop-color:#F4D474"/>
			<stop  offset="0.2097" style="stop-color:#FCEB93"/>
			<stop  offset="0.4462" style="stop-color:#9A6228"/>
			<stop  offset="0.6667" style="stop-color:#EDA254"/>
			<stop  offset="1" style="stop-color:#EBBA52"/>
		</linearGradient>
		<path class="st54" d="M364.9,129l-0.7,3h-3.6l3.7-12.9h4.6l3.8,12.9h-3.7l-0.8-3H364.9z M367.8,126.5l-0.6-2.3
			c-0.2-0.7-0.4-1.8-0.6-2.5h0c-0.2,0.8-0.4,1.8-0.6,2.6l-0.6,2.3H367.8z"/>
		<linearGradient id="SVGID_56_" gradientUnits="userSpaceOnUse" x1="360.6415" y1="125.5581" x2="372.7926" y2="125.5581">
			<stop  offset="0" style="stop-color:#EBBA52"/>
			<stop  offset="0.1035" style="stop-color:#F4D474"/>
			<stop  offset="0.2097" style="stop-color:#FCEB93"/>
			<stop  offset="0.4462" style="stop-color:#9A6228"/>
			<stop  offset="0.6667" style="stop-color:#EDA254"/>
			<stop  offset="1" style="stop-color:#EBBA52"/>
		</linearGradient>
		<path class="st55" d="M364.9,129l-0.7,3h-3.6l3.7-12.9h4.6l3.8,12.9h-3.7l-0.8-3H364.9z M367.8,126.5l-0.6-2.3
			c-0.2-0.7-0.4-1.8-0.6-2.5h0c-0.2,0.8-0.4,1.8-0.6,2.6l-0.6,2.3H367.8z"/>
		<linearGradient id="SVGID_57_" gradientUnits="userSpaceOnUse" x1="7.0025" y1="112.874" x2="392.7629" y2="112.874">
			<stop  offset="0" style="stop-color:#EBBA52"/>
			<stop  offset="0.1035" style="stop-color:#F4D474"/>
			<stop  offset="0.2097" style="stop-color:#FCEB93"/>
			<stop  offset="0.4462" style="stop-color:#9A6228"/>
			<stop  offset="0.6667" style="stop-color:#EDA254"/>
			<stop  offset="1" style="stop-color:#EBBA52"/>
		</linearGradient>
		<rect x="7" y="112.2" class="st56" width="385.8" height="1.4"/>
		<linearGradient id="SVGID_58_" gradientUnits="userSpaceOnUse" x1="7.0025" y1="112.874" x2="392.7629" y2="112.874">
			<stop  offset="0" style="stop-color:#EBBA52"/>
			<stop  offset="0.1035" style="stop-color:#F4D474"/>
			<stop  offset="0.2097" style="stop-color:#FCEB93"/>
			<stop  offset="0.4462" style="stop-color:#9A6228"/>
			<stop  offset="0.6667" style="stop-color:#EDA254"/>
			<stop  offset="1" style="stop-color:#EBBA52"/>
		</linearGradient>
		<rect x="7" y="112.2" class="st57" width="385.8" height="1.4"/>
	</g>
	<g>
		<linearGradient id="SVGID_59_" gradientUnits="userSpaceOnUse" x1="0.4884" y1="69.2792" x2="423.6426" y2="69.2792">
			<stop  offset="0" style="stop-color:#EBBA52"/>
			<stop  offset="0.1035" style="stop-color:#F4D474"/>
			<stop  offset="0.2097" style="stop-color:#FCEB93"/>
			<stop  offset="0.4462" style="stop-color:#9A6228"/>
			<stop  offset="0.6667" style="stop-color:#EDA254"/>
			<stop  offset="1" style="stop-color:#EBBA52"/>
		</linearGradient>
		<path class="st58" d="M13.8,0.5c0,0-13.4,0-13.3,13.3l0.7,111c0,0,0.1,13.3,13.5,13.3H387c0,0,13.4,0,15.9-13.3l20.7-110.9
			c0,0,2.5-13.3-10.9-13.3H13.8z"/>
		<g>
			<linearGradient id="SVGID_60_" gradientUnits="userSpaceOnUse" x1="0.4884" y1="69.2792" x2="423.6426" y2="69.2792">
				<stop  offset="0" style="stop-color:#EBBA52"/>
				<stop  offset="5.407698e-02" style="stop-color:#B78137"/>
				<stop  offset="8.801790e-02" style="stop-color:#9A6228"/>
				<stop  offset="0.2833" style="stop-color:#EBBA52"/>
				<stop  offset="0.3834" style="stop-color:#B78137"/>
				<stop  offset="0.4462" style="stop-color:#9A6228"/>
				<stop  offset="0.6183" style="stop-color:#EDA254"/>
				<stop  offset="0.7488" style="stop-color:#EBBA52"/>
				<stop  offset="0.9686" style="stop-color:#9A6228"/>
			</linearGradient>
			<path class="st59" d="M13.8,0.5c0,0-13.4,0-13.3,13.3l0.7,111c0,0,0.1,13.3,13.5,13.3H387c0,0,13.4,0,15.9-13.3l20.7-110.9
				c0,0,2.5-13.3-10.9-13.3H13.8z"/>
			<linearGradient id="SVGID_61_" gradientUnits="userSpaceOnUse" x1="0" y1="69.2796" x2="424.137" y2="69.2796">
				<stop  offset="0" style="stop-color:#EBBA52"/>
				<stop  offset="0.1035" style="stop-color:#F4D474"/>
				<stop  offset="0.2097" style="stop-color:#FCEB93"/>
				<stop  offset="0.4462" style="stop-color:#9A6228"/>
				<stop  offset="0.6667" style="stop-color:#EDA254"/>
				<stop  offset="0.9435" style="stop-color:#9A6228"/>
				<stop  offset="1" style="stop-color:#EBBA52"/>
			</linearGradient>
			<path class="st60" d="M387,138.6H14.7C1,138.6,0.7,125,0.7,124.8L0,13.8c0-4,1.2-7.3,3.5-9.7C7.5,0,13.5,0,13.8,0h398.8
				c4.1,0,7.1,1.2,9.1,3.6c3.4,4.1,2.3,10.1,2.3,10.4l-20.7,110.9C400.8,138.4,387.1,138.6,387,138.6z M13.8,1C13.7,1,7.9,1,4.2,4.8
				C2,7,0.9,10,1,13.8l0.7,111c0,0.5,0.2,12.8,13,12.8H387c0.5,0,13-0.2,15.4-12.9L423,13.7c0-0.1,1-5.8-2.1-9.6
				c-1.8-2.1-4.6-3.2-8.3-3.2H13.8z"/>
		</g>
		<g>
			<path class="st61" d="M30.7,132.4c-1,0.3-2.7,0.7-4.4,0.7c-2.5,0-4.3-0.6-5.4-1.7c-1.2-1.1-1.8-2.8-1.8-4.7
				c0-4.5,3.3-6.7,7.5-6.7c1.7,0,3.1,0.3,3.7,0.6l-0.7,2.7c-0.7-0.3-1.6-0.5-3.1-0.5c-2.1,0-3.9,1.1-3.9,3.7c0,2.4,1.5,3.8,3.7,3.8
				c0.5,0,0.9-0.1,1.1-0.1V128h-1.7v-2.7h5V132.4z"/>
			<path class="st61" d="M30.7,132.4c-1,0.3-2.7,0.7-4.4,0.7c-2.5,0-4.3-0.6-5.4-1.7c-1.2-1.1-1.8-2.8-1.8-4.7
				c0-4.5,3.3-6.7,7.5-6.7c1.7,0,3.1,0.3,3.7,0.6l-0.7,2.7c-0.7-0.3-1.6-0.5-3.1-0.5c-2.1,0-3.9,1.1-3.9,3.7c0,2.4,1.5,3.8,3.7,3.8
				c0.5,0,0.9-0.1,1.1-0.1V128h-1.7v-2.7h5V132.4z"/>
			<path class="st61" d="M46.9,126.4c0,4.1-2.5,6.8-6.4,6.8c-4,0-6.2-3-6.2-6.6c0-3.7,2.5-6.7,6.4-6.7
				C44.8,119.9,46.9,123,46.9,126.4 M37.9,126.6c0,2.4,1,3.9,2.7,3.9c1.7,0,2.6-1.6,2.6-3.9c0-2.2-1-3.9-2.7-3.9
				C38.9,122.6,37.9,124.2,37.9,126.6"/>
			<path class="st61" d="M46.9,126.4c0,4.1-2.5,6.8-6.4,6.8c-4,0-6.2-3-6.2-6.6c0-3.7,2.5-6.7,6.4-6.7
				C44.8,119.9,46.9,123,46.9,126.4z M37.9,126.6c0,2.4,1,3.9,2.7,3.9c1.7,0,2.6-1.6,2.6-3.9c0-2.2-1-3.9-2.7-3.9
				C38.9,122.6,37.9,124.2,37.9,126.6z"/>
			<polygon class="st61" points="50.5,120.1 54,120.1 54,130.1 58.9,130.1 58.9,133 50.5,133 			"/>
			<polygon class="st61" points="50.5,120.1 54,120.1 54,130.1 58.9,130.1 58.9,133 50.5,133 			"/>
			<path class="st61" d="M62.5,120.3c1.1-0.2,2.6-0.3,4.1-0.3c2.5,0,4,0.4,5.3,1.3c1.4,1,2.3,2.6,2.3,4.9c0,2.6-1,4.3-2.3,5.3
				c-1.4,1.1-3.5,1.6-6,1.6c-1.7,0-2.8-0.1-3.4-0.2V120.3z M65.9,130.4c0.2,0,0.5,0,0.7,0c2.2,0,3.9-1.2,3.9-4.1
				c0-2.5-1.5-3.7-3.5-3.7c-0.6,0-0.9,0-1,0.1V130.4z"/>
			<path class="st61" d="M62.5,120.3c1.1-0.2,2.6-0.3,4.1-0.3c2.5,0,4,0.4,5.3,1.3c1.4,1,2.3,2.6,2.3,4.9c0,2.6-1,4.3-2.3,5.3
				c-1.4,1.1-3.5,1.6-6,1.6c-1.7,0-2.8-0.1-3.4-0.2V120.3z M65.9,130.4c0.2,0,0.5,0,0.7,0c2.2,0,3.9-1.2,3.9-4.1
				c0-2.5-1.5-3.7-3.5-3.7c-0.6,0-0.9,0-1,0.1V130.4z"/>
			<path class="st61" d="M87.1,129.5c0.8,0.4,2.1,0.8,3.3,0.8c1.2,0,1.8-0.4,1.8-1c0-0.6-0.6-1-2-1.5c-2.2-0.8-3.6-2-3.6-3.9
				c0-2.3,1.9-4,5.2-4c1.5,0,2.6,0.3,3.5,0.7l-0.7,2.7c-0.6-0.2-1.5-0.6-2.8-0.6c-1.1,0-1.6,0.4-1.6,1c0,0.6,0.7,0.9,2.3,1.5
				c2.3,0.8,3.4,2.1,3.4,3.9c0,2.2-1.7,4.1-5.5,4.1c-1.5,0-3.1-0.4-3.8-0.8L87.1,129.5z"/>
			<path class="st61" d="M87.1,129.5c0.8,0.4,2.1,0.8,3.3,0.8c1.2,0,1.8-0.4,1.8-1c0-0.6-0.6-1-2-1.5c-2.2-0.8-3.6-2-3.6-3.9
				c0-2.3,1.9-4,5.2-4c1.5,0,2.6,0.3,3.5,0.7l-0.7,2.7c-0.6-0.2-1.5-0.6-2.8-0.6c-1.1,0-1.6,0.4-1.6,1c0,0.6,0.7,0.9,2.3,1.5
				c2.3,0.8,3.4,2.1,3.4,3.9c0,2.2-1.7,4.1-5.5,4.1c-1.5,0-3.1-0.4-3.8-0.8L87.1,129.5z"/>
			<polygon class="st61" points="101.9,123 98.6,123 98.6,120.1 108.7,120.1 108.7,123 105.4,123 105.4,133 101.9,133 			"/>
			<polygon class="st61" points="101.9,123 98.6,123 98.6,120.1 108.7,120.1 108.7,123 105.4,123 105.4,133 101.9,133 			"/>
			<path class="st61" d="M114.2,130l-0.7,3h-3.6l3.7-12.9h4.6l3.8,12.9h-3.7l-0.8-3H114.2z M117,127.4l-0.6-2.3
				c-0.2-0.7-0.4-1.8-0.6-2.5h0c-0.2,0.8-0.4,1.8-0.6,2.6l-0.6,2.3H117z"/>
			<path class="st61" d="M114.2,130l-0.7,3h-3.6l3.7-12.9h4.6l3.8,12.9h-3.7l-0.8-3H114.2z M117,127.4l-0.6-2.3
				c-0.2-0.7-0.4-1.8-0.6-2.5h0c-0.2,0.8-0.4,1.8-0.6,2.6l-0.6,2.3H117z"/>
			<path class="st61" d="M125.6,133v-12.9h4.1l2,3.9c0.7,1.3,1.5,3,2,4.5h0.1c-0.2-1.7-0.3-3.5-0.3-5.4v-3h3.1V133H133l-2.2-4.3
				c-0.7-1.4-1.6-3.1-2.2-4.7h-0.1c0.1,1.7,0.1,3.7,0.1,5.8v3.2H125.6z"/>
			<path class="st61" d="M125.6,133v-12.9h4.1l2,3.9c0.7,1.3,1.5,3,2,4.5h0.1c-0.2-1.7-0.3-3.5-0.3-5.4v-3h3.1V133H133l-2.2-4.3
				c-0.7-1.4-1.6-3.1-2.2-4.7h-0.1c0.1,1.7,0.1,3.7,0.1,5.8v3.2H125.6z"/>
			<path class="st61" d="M140.9,120.3c1.1-0.2,2.6-0.3,4.1-0.3c2.5,0,4,0.4,5.3,1.3c1.4,1,2.3,2.6,2.3,4.9c0,2.6-1,4.3-2.3,5.3
				c-1.4,1.1-3.5,1.6-6,1.6c-1.7,0-2.8-0.1-3.4-0.2V120.3z M144.3,130.4c0.2,0,0.5,0,0.7,0c2.2,0,3.9-1.2,3.9-4.1
				c0-2.5-1.5-3.7-3.5-3.7c-0.6,0-0.9,0-1,0.1V130.4z"/>
			<path class="st61" d="M140.9,120.3c1.1-0.2,2.6-0.3,4.1-0.3c2.5,0,4,0.4,5.3,1.3c1.4,1,2.3,2.6,2.3,4.9c0,2.6-1,4.3-2.3,5.3
				c-1.4,1.1-3.5,1.6-6,1.6c-1.7,0-2.8-0.1-3.4-0.2V120.3z M144.3,130.4c0.2,0,0.5,0,0.7,0c2.2,0,3.9-1.2,3.9-4.1
				c0-2.5-1.5-3.7-3.5-3.7c-0.6,0-0.9,0-1,0.1V130.4z"/>
			<path class="st61" d="M159.3,130l-0.7,3H155l3.7-12.9h4.6l3.8,12.9h-3.7l-0.8-3H159.3z M162.2,127.4l-0.6-2.3
				c-0.2-0.7-0.4-1.8-0.6-2.5h0c-0.2,0.8-0.4,1.8-0.6,2.6l-0.6,2.3H162.2z"/>
			<path class="st61" d="M159.3,130l-0.7,3H155l3.7-12.9h4.6l3.8,12.9h-3.7l-0.8-3H159.3z M162.2,127.4l-0.6-2.3
				c-0.2-0.7-0.4-1.8-0.6-2.5h0c-0.2,0.8-0.4,1.8-0.6,2.6l-0.6,2.3H162.2z"/>
			<path class="st61" d="M170.7,120.3c1-0.2,2.4-0.3,4.2-0.3c2,0,3.4,0.3,4.3,1c0.8,0.6,1.3,1.5,1.3,2.8c0,1.6-1.2,2.7-2.2,3.1v0.1
				c0.9,0.4,1.3,1.2,1.6,2.3c0.4,1.3,0.8,3.2,1.1,3.7h-3.5c-0.2-0.4-0.5-1.4-0.9-3c-0.3-1.5-0.8-1.9-1.9-1.9h-0.6v4.8h-3.4V120.3z
				 M174.1,125.7h0.9c1.3,0,2-0.6,2-1.6c0-1-0.6-1.5-1.8-1.5c-0.6,0-1,0-1.2,0.1V125.7z"/>
			<path class="st61" d="M170.7,120.3c1-0.2,2.4-0.3,4.2-0.3c2,0,3.4,0.3,4.3,1c0.8,0.6,1.3,1.5,1.3,2.8c0,1.6-1.2,2.7-2.2,3.1v0.1
				c0.9,0.4,1.3,1.2,1.6,2.3c0.4,1.3,0.8,3.2,1.1,3.7h-3.5c-0.2-0.4-0.5-1.4-0.9-3c-0.3-1.5-0.8-1.9-1.9-1.9h-0.6v4.8h-3.4V120.3z
				 M174.1,125.7h0.9c1.3,0,2-0.6,2-1.6c0-1-0.6-1.5-1.8-1.5c-0.6,0-1,0-1.2,0.1V125.7z"/>
			<path class="st61" d="M184.3,120.3c1.1-0.2,2.6-0.3,4.1-0.3c2.5,0,4,0.4,5.3,1.3c1.4,1,2.3,2.6,2.3,4.9c0,2.6-1,4.3-2.3,5.3
				c-1.4,1.1-3.5,1.6-6,1.6c-1.7,0-2.8-0.1-3.4-0.2V120.3z M187.8,130.4c0.2,0,0.5,0,0.7,0c2.2,0,3.9-1.2,3.9-4.1
				c0-2.5-1.5-3.7-3.5-3.7c-0.6,0-0.9,0-1,0.1V130.4z"/>
			<path class="st61" d="M184.3,120.3c1.1-0.2,2.6-0.3,4.1-0.3c2.5,0,4,0.4,5.3,1.3c1.4,1,2.3,2.6,2.3,4.9c0,2.6-1,4.3-2.3,5.3
				c-1.4,1.1-3.5,1.6-6,1.6c-1.7,0-2.8-0.1-3.4-0.2V120.3z M187.8,130.4c0.2,0,0.5,0,0.7,0c2.2,0,3.9-1.2,3.9-4.1
				c0-2.5-1.5-3.7-3.5-3.7c-0.6,0-0.9,0-1,0.1V130.4z"/>
			<path class="st61" d="M219.9,132.4c-1,0.3-2.7,0.7-4.4,0.7c-2.5,0-4.3-0.6-5.4-1.7c-1.2-1.1-1.8-2.8-1.8-4.7
				c0-4.5,3.3-6.7,7.5-6.7c1.7,0,3.1,0.3,3.7,0.6l-0.7,2.7c-0.7-0.3-1.6-0.5-3.1-0.5c-2.1,0-3.9,1.1-3.9,3.7c0,2.4,1.5,3.8,3.7,3.8
				c0.5,0,0.9-0.1,1.1-0.1V128h-1.7v-2.7h5V132.4z"/>
			<path class="st61" d="M219.9,132.4c-1,0.3-2.7,0.7-4.4,0.7c-2.5,0-4.3-0.6-5.4-1.7c-1.2-1.1-1.8-2.8-1.8-4.7
				c0-4.5,3.3-6.7,7.5-6.7c1.7,0,3.1,0.3,3.7,0.6l-0.7,2.7c-0.7-0.3-1.6-0.5-3.1-0.5c-2.1,0-3.9,1.1-3.9,3.7c0,2.4,1.5,3.8,3.7,3.8
				c0.5,0,0.9-0.1,1.1-0.1V128h-1.7v-2.7h5V132.4z"/>
			<rect x="223.9" y="120.1" class="st61" width="3.5" height="12.9"/>
			<rect x="223.9" y="120.1" class="st61" width="3.5" height="12.9"/>
			<path class="st61" d="M231.5,133v-12.9h4.1l2,3.9c0.7,1.3,1.5,3,2,4.5h0.1c-0.2-1.7-0.3-3.5-0.3-5.4v-3h3.1V133H239l-2.2-4.3
				c-0.7-1.4-1.6-3.1-2.2-4.7h-0.1c0.1,1.7,0.1,3.7,0.1,5.8v3.2H231.5z"/>
			<path class="st61" d="M231.5,133v-12.9h4.1l2,3.9c0.7,1.3,1.5,3,2,4.5h0.1c-0.2-1.7-0.3-3.5-0.3-5.4v-3h3.1V133H239l-2.2-4.3
				c-0.7-1.4-1.6-3.1-2.2-4.7h-0.1c0.1,1.7,0.1,3.7,0.1,5.8v3.2H231.5z"/>
			<path class="st61" d="M246.8,120.1h3.4v5.5h0c0.3-0.5,0.6-1,0.8-1.4l2.5-4h4.2l-4.1,5.5l4.2,7.4h-4l-2.7-5.2l-1,1.3v3.9h-3.4
				V120.1z"/>
			<path class="st61" d="M246.8,120.1h3.4v5.5h0c0.3-0.5,0.6-1,0.8-1.4l2.5-4h4.2l-4.1,5.5l4.2,7.4h-4l-2.7-5.2l-1,1.3v3.9h-3.4
				V120.1z"/>
			<path class="st61" d="M271.4,132.4c-1,0.3-2.7,0.7-4.4,0.7c-2.5,0-4.3-0.6-5.4-1.7c-1.2-1.1-1.8-2.8-1.8-4.7
				c0-4.5,3.3-6.7,7.5-6.7c1.7,0,3.1,0.3,3.7,0.6l-0.7,2.7c-0.7-0.3-1.6-0.5-3.1-0.5c-2.1,0-3.9,1.1-3.9,3.7c0,2.4,1.5,3.8,3.7,3.8
				c0.5,0,0.9-0.1,1.1-0.1V128h-1.7v-2.7h5V132.4z"/>
			<path class="st61" d="M271.4,132.4c-1,0.3-2.7,0.7-4.4,0.7c-2.5,0-4.3-0.6-5.4-1.7c-1.2-1.1-1.8-2.8-1.8-4.7
				c0-4.5,3.3-6.7,7.5-6.7c1.7,0,3.1,0.3,3.7,0.6l-0.7,2.7c-0.7-0.3-1.6-0.5-3.1-0.5c-2.1,0-3.9,1.1-3.9,3.7c0,2.4,1.5,3.8,3.7,3.8
				c0.5,0,0.9-0.1,1.1-0.1V128h-1.7v-2.7h5V132.4z"/>
			<path class="st61" d="M287.5,126.4c0,4.1-2.5,6.8-6.4,6.8c-4,0-6.2-3-6.2-6.6c0-3.7,2.5-6.7,6.4-6.7
				C285.4,119.9,287.5,123,287.5,126.4 M278.5,126.6c0,2.4,1,3.9,2.7,3.9c1.7,0,2.6-1.6,2.6-3.9c0-2.2-1-3.9-2.7-3.9
				C279.6,122.6,278.5,124.2,278.5,126.6"/>
			<path class="st61" d="M287.5,126.4c0,4.1-2.5,6.8-6.4,6.8c-4,0-6.2-3-6.2-6.6c0-3.7,2.5-6.7,6.4-6.7
				C285.4,119.9,287.5,123,287.5,126.4z M278.5,126.6c0,2.4,1,3.9,2.7,3.9c1.7,0,2.6-1.6,2.6-3.9c0-2.2-1-3.9-2.7-3.9
				C279.6,122.6,278.5,124.2,278.5,126.6z"/>
			<path class="st61" d="M300.2,120.3c0.8-0.1,2.5-0.3,4.1-0.3c1.8,0,2.9,0.1,3.9,0.6c1,0.5,1.7,1.4,1.7,2.6c0,1.1-0.6,2.1-2.1,2.7
				v0c1.6,0.4,2.5,1.6,2.5,3.1c0,1.2-0.6,2.2-1.4,2.8c-1,0.7-2.6,1.2-5.3,1.2c-1.6,0-2.7-0.1-3.4-0.2V120.3z M303.6,125h0.7
				c1.5,0,2.2-0.5,2.2-1.3c0-0.8-0.6-1.2-1.7-1.2c-0.6,0-0.9,0-1.1,0.1V125z M303.6,130.5c0.2,0,0.6,0,1,0c1.1,0,2.1-0.5,2.1-1.6
				c0-1.1-1-1.5-2.3-1.5h-0.8V130.5z"/>
			<path class="st61" d="M300.2,120.3c0.8-0.1,2.5-0.3,4.1-0.3c1.8,0,2.9,0.1,3.9,0.6c1,0.5,1.7,1.4,1.7,2.6c0,1.1-0.6,2.1-2.1,2.7
				v0c1.6,0.4,2.5,1.6,2.5,3.1c0,1.2-0.6,2.2-1.4,2.8c-1,0.7-2.6,1.2-5.3,1.2c-1.6,0-2.7-0.1-3.4-0.2V120.3z M303.6,125h0.7
				c1.5,0,2.2-0.5,2.2-1.3c0-0.8-0.6-1.2-1.7-1.2c-0.6,0-0.9,0-1.1,0.1V125z M303.6,130.5c0.2,0,0.6,0,1,0c1.1,0,2.1-0.5,2.1-1.6
				c0-1.1-1-1.5-2.3-1.5h-0.8V130.5z"/>
			<rect x="314.1" y="120.1" class="st61" width="3.5" height="12.9"/>
			<rect x="314.1" y="120.1" class="st61" width="3.5" height="12.9"/>
			<polygon class="st61" points="321.8,120.1 325.2,120.1 325.2,130.1 330.1,130.1 330.1,133 321.8,133 			"/>
			<polygon class="st61" points="321.8,120.1 325.2,120.1 325.2,130.1 330.1,130.1 330.1,133 321.8,133 			"/>
			<path class="st61" d="M345.1,126.4c0,4.1-2.5,6.8-6.4,6.8c-4,0-6.2-3-6.2-6.6c0-3.7,2.5-6.7,6.4-6.7
				C343,119.9,345.1,123,345.1,126.4 M336.1,126.6c0,2.4,1,3.9,2.7,3.9c1.7,0,2.6-1.6,2.6-3.9c0-2.2-1-3.9-2.7-3.9
				C337.1,122.6,336.1,124.2,336.1,126.6"/>
			<path class="st61" d="M345.1,126.4c0,4.1-2.5,6.8-6.4,6.8c-4,0-6.2-3-6.2-6.6c0-3.7,2.5-6.7,6.4-6.7
				C343,119.9,345.1,123,345.1,126.4z M336.1,126.6c0,2.4,1,3.9,2.7,3.9c1.7,0,2.6-1.6,2.6-3.9c0-2.2-1-3.9-2.7-3.9
				C337.1,122.6,336.1,124.2,336.1,126.6z"/>
			<path class="st61" d="M348.7,120.3c0.8-0.1,2.5-0.3,4.1-0.3c1.8,0,2.9,0.1,3.9,0.6c1,0.5,1.7,1.4,1.7,2.6c0,1.1-0.6,2.1-2.1,2.7
				v0c1.6,0.4,2.5,1.6,2.5,3.1c0,1.2-0.6,2.2-1.4,2.8c-1,0.7-2.6,1.2-5.3,1.2c-1.6,0-2.7-0.1-3.4-0.2V120.3z M352.2,125h0.7
				c1.5,0,2.2-0.5,2.2-1.3c0-0.8-0.6-1.2-1.7-1.2c-0.6,0-0.9,0-1.1,0.1V125z M352.2,130.5c0.2,0,0.6,0,1,0c1.1,0,2.1-0.5,2.1-1.6
				c0-1.1-1-1.5-2.3-1.5h-0.8V130.5z"/>
			<path class="st61" d="M348.7,120.3c0.8-0.1,2.5-0.3,4.1-0.3c1.8,0,2.9,0.1,3.9,0.6c1,0.5,1.7,1.4,1.7,2.6c0,1.1-0.6,2.1-2.1,2.7
				v0c1.6,0.4,2.5,1.6,2.5,3.1c0,1.2-0.6,2.2-1.4,2.8c-1,0.7-2.6,1.2-5.3,1.2c-1.6,0-2.7-0.1-3.4-0.2V120.3z M352.2,125h0.7
				c1.5,0,2.2-0.5,2.2-1.3c0-0.8-0.6-1.2-1.7-1.2c-0.6,0-0.9,0-1.1,0.1V125z M352.2,130.5c0.2,0,0.6,0,1,0c1.1,0,2.1-0.5,2.1-1.6
				c0-1.1-1-1.5-2.3-1.5h-0.8V130.5z"/>
			<path class="st61" d="M365.9,130l-0.7,3h-3.6l3.7-12.9h4.6l3.8,12.9H370l-0.8-3H365.9z M368.8,127.4l-0.6-2.3
				c-0.2-0.7-0.4-1.8-0.6-2.5h0c-0.2,0.8-0.4,1.8-0.6,2.6l-0.6,2.3H368.8z"/>
			<path class="st61" d="M365.9,130l-0.7,3h-3.6l3.7-12.9h4.6l3.8,12.9H370l-0.8-3H365.9z M368.8,127.4l-0.6-2.3
				c-0.2-0.7-0.4-1.8-0.6-2.5h0c-0.2,0.8-0.4,1.8-0.6,2.6l-0.6,2.3H368.8z"/>
		</g>
		<linearGradient id="SVGID_62_" gradientUnits="userSpaceOnUse" x1="18.5517" y1="60.6795" x2="202.9638" y2="60.6795">
			<stop  offset="0" style="stop-color:#EBBA52"/>
			<stop  offset="0.1035" style="stop-color:#F4D474"/>
			<stop  offset="0.2097" style="stop-color:#FCEB93"/>
			<stop  offset="0.4462" style="stop-color:#9A6228"/>
			<stop  offset="0.6667" style="stop-color:#EDA254"/>
			<stop  offset="1" style="stop-color:#EBBA52"/>
		</linearGradient>
		<path class="st62" d="M165.2,68.1c0-1.1,0.1-2,0.3-3c1.1-4.7,5.2-8.1,9.6-8.1c7.6,0,11.3,6.5,11.3,14.6c0,9.5-4.3,14.8-11.3,14.8
			c-4.7,0-8.5-3.4-9.6-7.7c-0.2-0.9-0.3-1.8-0.3-2.9V68.1z M148.9,82.5c0,5.9-0.2,12.2-0.4,15.7h13.9l0.6-7.3h0.2
			c3.7,6.2,9.7,8.5,15.8,8.5c12,0,24-9.5,24-28.4c0.1-16.1-9-26.5-21.6-26.5c-7.3,0-12.8,2.9-15.9,7.4h-0.2v-30h-16.3V82.5z
			 M136.3,56.8h-27v12.8h11.2v15.3c-1.3,0.5-4.3,1-8,1c-13.4,0-22.9-8.7-22.9-23.7c0-15.8,10.4-23.4,24.1-23.4
			c8,0,12.8,1.3,16.8,3.1l3.4-13.2c-3.5-1.6-10.8-3.4-20.1-3.4c-23.7,0-41.3,13.8-41.4,37.8c0,10.6,3.7,20.1,10.2,26.4
			c6.7,6.3,16.2,9.7,29.4,9.7c9.6,0,19.1-2.4,24.2-4.1V56.8z M61.5,54.3H34.9v-15h28.3V25.8H18.6v72.4h46.1V84.8H34.9V67.6h26.7
			V54.3z"/>
		<linearGradient id="SVGID_63_" gradientUnits="userSpaceOnUse" x1="18.5517" y1="60.6795" x2="202.9638" y2="60.6795">
			<stop  offset="0" style="stop-color:#EBBA52"/>
			<stop  offset="0.1035" style="stop-color:#F4D474"/>
			<stop  offset="0.2097" style="stop-color:#FCEB93"/>
			<stop  offset="0.4462" style="stop-color:#9A6228"/>
			<stop  offset="0.6667" style="stop-color:#EDA254"/>
			<stop  offset="1" style="stop-color:#EBBA52"/>
		</linearGradient>
		<path class="st63" d="M165.2,68.1c0-1.1,0.1-2,0.3-3c1.1-4.7,5.2-8.1,9.6-8.1c7.6,0,11.3,6.5,11.3,14.6c0,9.5-4.3,14.8-11.3,14.8
			c-4.7,0-8.5-3.4-9.6-7.7c-0.2-0.9-0.3-1.8-0.3-2.9V68.1z M148.9,82.5c0,5.9-0.2,12.2-0.4,15.7h13.9l0.6-7.3h0.2
			c3.7,6.2,9.7,8.5,15.8,8.5c12,0,24-9.5,24-28.4c0.1-16.1-9-26.5-21.6-26.5c-7.3,0-12.8,2.9-15.9,7.4h-0.2v-30h-16.3V82.5z
			 M136.3,56.8h-27v12.8h11.2v15.3c-1.3,0.5-4.3,1-8,1c-13.4,0-22.9-8.7-22.9-23.7c0-15.8,10.4-23.4,24.1-23.4
			c8,0,12.8,1.3,16.8,3.1l3.4-13.2c-3.5-1.6-10.8-3.4-20.1-3.4c-23.7,0-41.3,13.8-41.4,37.8c0,10.6,3.7,20.1,10.2,26.4
			c6.7,6.3,16.2,9.7,29.4,9.7c9.6,0,19.1-2.4,24.2-4.1V56.8z M61.5,54.3H34.9v-15h28.3V25.8H18.6v72.4h46.1V84.8H34.9V67.6h26.7
			V54.3z"/>
		<linearGradient id="SVGID_64_" gradientUnits="userSpaceOnUse" x1="218.185" y1="63.3652" x2="363.6906" y2="63.3652">
			<stop  offset="0" style="stop-color:#EBBA52"/>
			<stop  offset="0.1035" style="stop-color:#F4D474"/>
			<stop  offset="0.2097" style="stop-color:#FCEB93"/>
			<stop  offset="0.4462" style="stop-color:#9A6228"/>
			<stop  offset="0.6667" style="stop-color:#EDA254"/>
			<stop  offset="1" style="stop-color:#EBBA52"/>
		</linearGradient>
		<path class="st64" d="M347.9,98.2h15.8V28.4h-13.4L331.7,37l2.7,12.3l13.3-6.3h0.2V98.2z M299.1,87.4c-7.5,0-11.1-6.7-11.4-14.1
			c0-1.9,0.2-3.2,0.8-4.2c1.5-3.4,5.1-6.1,9.6-6.1c7,0,10.4,5.6,10.4,12C308.5,82.1,304.8,87.4,299.1,87.4 M317.4,27.4
			c-1.5-0.1-3.6-0.2-6.6,0.1c-10.9,0.5-20,3.9-26.9,10.2c-7.6,7.1-12.5,18.1-12.5,31.2c0,16.7,9.1,30.5,27.8,30.5
			c15,0,25.7-11.4,25.7-25.2c0-14.5-9.9-22.8-21.6-22.8c-6.4,0-11.4,2.1-14.8,5.5h-0.3c1.8-8.1,8.3-15.5,22.8-16.7
			c2.6-0.2,4.5-0.3,6.3-0.2V27.4z M218.2,28.4v13.4h32V42l-28.8,56.2h17l29.1-59.5V28.4H218.2z"/>
		<linearGradient id="SVGID_65_" gradientUnits="userSpaceOnUse" x1="218.185" y1="63.3652" x2="363.6906" y2="63.3652">
			<stop  offset="0" style="stop-color:#EBBA52"/>
			<stop  offset="0.1035" style="stop-color:#F4D474"/>
			<stop  offset="0.2097" style="stop-color:#FCEB93"/>
			<stop  offset="0.4462" style="stop-color:#9A6228"/>
			<stop  offset="0.6667" style="stop-color:#EDA254"/>
			<stop  offset="1" style="stop-color:#EBBA52"/>
		</linearGradient>
		<path class="st65" d="M347.9,98.2h15.8V28.4h-13.4L331.7,37l2.7,12.3l13.3-6.3h0.2V98.2z M299.1,87.4c-7.5,0-11.1-6.7-11.4-14.1
			c0-1.9,0.2-3.2,0.8-4.2c1.5-3.4,5.1-6.1,9.6-6.1c7,0,10.4,5.6,10.4,12C308.5,82.1,304.8,87.4,299.1,87.4 M317.4,27.4
			c-1.5-0.1-3.6-0.2-6.6,0.1c-10.9,0.5-20,3.9-26.9,10.2c-7.6,7.1-12.5,18.1-12.5,31.2c0,16.7,9.1,30.5,27.8,30.5
			c15,0,25.7-11.4,25.7-25.2c0-14.5-9.9-22.8-21.6-22.8c-6.4,0-11.4,2.1-14.8,5.5h-0.3c1.8-8.1,8.3-15.5,22.8-16.7
			c2.6-0.2,4.5-0.3,6.3-0.2V27.4z M218.2,28.4v13.4h32V42l-28.8,56.2h17l29.1-59.5V28.4H218.2z"/>
		<linearGradient id="SVGID_66_" gradientUnits="userSpaceOnUse" x1="373.3172" y1="38.7934" x2="395.5354" y2="38.7934">
			<stop  offset="0" style="stop-color:#EBBA52"/>
			<stop  offset="0.1035" style="stop-color:#F4D474"/>
			<stop  offset="0.2097" style="stop-color:#FCEB93"/>
			<stop  offset="0.4462" style="stop-color:#9A6228"/>
			<stop  offset="0.6667" style="stop-color:#EDA254"/>
			<stop  offset="1" style="stop-color:#EBBA52"/>
		</linearGradient>
		<path class="st66" d="M384.4,30.1c4.8,0,8.4,3.9,8.4,8.7c0,4.8-3.6,8.6-8.2,8.6c-4.8,0-8.4-3.8-8.4-8.6
			C376.1,34,379.7,30.1,384.4,30.1 M384.5,27.9c-6.3,0-11.2,4.8-11.2,10.8c0,6.1,4.9,10.9,11.1,10.9c6.2,0,11.1-4.8,11.1-10.9
			C395.5,32.7,390.7,27.9,384.5,27.9 M382.8,35.2c0.3-0.1,0.7-0.1,1.4-0.1c1.6,0,2.3,0.7,2.3,1.7c0,1.1-1.1,1.6-2.5,1.6h-1.2V35.2z
			 M382.7,40.1h1.2c1.4,0,2,0.5,2.2,1.6c0.3,1.3,0.5,2.2,0.9,2.6h2.6c-0.2-0.4-0.5-1-0.8-2.6c-0.3-1.4-0.9-2.3-1.9-2.6V39
			c1.3-0.4,2.2-1.2,2.2-2.6c0-1.1-0.5-1.8-1.1-2.3c-0.7-0.5-1.6-0.9-3.7-0.9c-1.8,0-3.2,0.2-4.1,0.3v10.8h2.5V40.1z"/>
		<linearGradient id="SVGID_67_" gradientUnits="userSpaceOnUse" x1="373.3172" y1="38.7934" x2="395.5354" y2="38.7934">
			<stop  offset="0" style="stop-color:#EBBA52"/>
			<stop  offset="0.3404" style="stop-color:#EDA254"/>
			<stop  offset="0.7401" style="stop-color:#EBBA52"/>
		</linearGradient>
		<path class="st67" d="M384.4,30.1c4.8,0,8.4,3.9,8.4,8.7c0,4.8-3.6,8.6-8.2,8.6c-4.8,0-8.4-3.8-8.4-8.6
			C376.1,34,379.7,30.1,384.4,30.1 M384.5,27.9c-6.3,0-11.2,4.8-11.2,10.8c0,6.1,4.9,10.9,11.1,10.9c6.2,0,11.1-4.8,11.1-10.9
			C395.5,32.7,390.7,27.9,384.5,27.9 M382.8,35.2c0.3-0.1,0.7-0.1,1.4-0.1c1.6,0,2.3,0.7,2.3,1.7c0,1.1-1.1,1.6-2.5,1.6h-1.2V35.2z
			 M382.7,40.1h1.2c1.4,0,2,0.5,2.2,1.6c0.3,1.3,0.5,2.2,0.9,2.6h2.6c-0.2-0.4-0.5-1-0.8-2.6c-0.3-1.4-0.9-2.3-1.9-2.6V39
			c1.3-0.4,2.2-1.2,2.2-2.6c0-1.1-0.5-1.8-1.1-2.3c-0.7-0.5-1.6-0.9-3.7-0.9c-1.8,0-3.2,0.2-4.1,0.3v10.8h2.5V40.1z"/>
		<linearGradient id="SVGID_68_" gradientUnits="userSpaceOnUse" x1="7.0025" y1="112.874" x2="392.7629" y2="112.874">
			<stop  offset="0" style="stop-color:#EBBA52"/>
			<stop  offset="0.1035" style="stop-color:#F4D474"/>
			<stop  offset="0.2097" style="stop-color:#FCEB93"/>
			<stop  offset="0.4462" style="stop-color:#9A6228"/>
			<stop  offset="0.6667" style="stop-color:#EDA254"/>
			<stop  offset="1" style="stop-color:#EBBA52"/>
		</linearGradient>
		<rect x="7" y="112.2" class="st68" width="385.8" height="1.4"/>
		<linearGradient id="SVGID_69_" gradientUnits="userSpaceOnUse" x1="7.0025" y1="112.874" x2="392.7629" y2="112.874">
			<stop  offset="0" style="stop-color:#EBBA52"/>
			<stop  offset="0.1035" style="stop-color:#F4D474"/>
			<stop  offset="0.2097" style="stop-color:#FCEB93"/>
			<stop  offset="0.4462" style="stop-color:#9A6228"/>
			<stop  offset="0.6667" style="stop-color:#EDA254"/>
			<stop  offset="1" style="stop-color:#EBBA52"/>
		</linearGradient>
		<rect x="7" y="112.2" class="st69" width="385.8" height="1.4"/>
		<g>
			<linearGradient id="SVGID_70_" gradientUnits="userSpaceOnUse" x1="18.0969" y1="125.5585" x2="29.7731" y2="125.5585">
				<stop  offset="0" style="stop-color:#EBBA52"/>
				<stop  offset="0.3404" style="stop-color:#EDA254"/>
				<stop  offset="0.7401" style="stop-color:#EBBA52"/>
			</linearGradient>
			<path class="st70" d="M29.8,131.4c-1,0.3-2.7,0.7-4.4,0.7c-2.5,0-4.3-0.6-5.4-1.7c-1.2-1.1-1.8-2.8-1.8-4.7
				c0-4.5,3.3-6.7,7.5-6.7c1.7,0,3.1,0.3,3.7,0.6l-0.7,2.7c-0.7-0.3-1.6-0.5-3.1-0.5c-2.1,0-3.9,1.1-3.9,3.7c0,2.4,1.5,3.8,3.7,3.8
				c0.5,0,0.9-0.1,1.1-0.1V127h-1.7v-2.7h5V131.4z"/>
			<linearGradient id="SVGID_71_" gradientUnits="userSpaceOnUse" x1="18.0969" y1="125.5585" x2="29.7731" y2="125.5585">
				<stop  offset="0" style="stop-color:#EBBA52"/>
				<stop  offset="0.3404" style="stop-color:#EDA254"/>
				<stop  offset="0.7401" style="stop-color:#EBBA52"/>
			</linearGradient>
			<path class="st71" d="M29.8,131.4c-1,0.3-2.7,0.7-4.4,0.7c-2.5,0-4.3-0.6-5.4-1.7c-1.2-1.1-1.8-2.8-1.8-4.7
				c0-4.5,3.3-6.7,7.5-6.7c1.7,0,3.1,0.3,3.7,0.6l-0.7,2.7c-0.7-0.3-1.6-0.5-3.1-0.5c-2.1,0-3.9,1.1-3.9,3.7c0,2.4,1.5,3.8,3.7,3.8
				c0.5,0,0.9-0.1,1.1-0.1V127h-1.7v-2.7h5V131.4z"/>
			<linearGradient id="SVGID_72_" gradientUnits="userSpaceOnUse" x1="33.2484" y1="125.5589" x2="45.8778" y2="125.5589">
				<stop  offset="0" style="stop-color:#EBBA52"/>
				<stop  offset="0.3404" style="stop-color:#EDA254"/>
				<stop  offset="0.7401" style="stop-color:#EBBA52"/>
			</linearGradient>
			<path class="st72" d="M45.9,125.4c0,4.1-2.5,6.8-6.4,6.8c-4,0-6.2-3-6.2-6.6c0-3.7,2.5-6.7,6.4-6.7
				C43.8,118.9,45.9,122,45.9,125.4 M36.9,125.6c0,2.4,1,3.9,2.7,3.9c1.7,0,2.6-1.6,2.6-3.9c0-2.2-1-3.9-2.7-3.9
				C37.9,121.6,36.9,123.2,36.9,125.6"/>
			<linearGradient id="SVGID_73_" gradientUnits="userSpaceOnUse" x1="33.2484" y1="125.5589" x2="45.8778" y2="125.5589">
				<stop  offset="0" style="stop-color:#EBBA52"/>
				<stop  offset="0.3404" style="stop-color:#EDA254"/>
				<stop  offset="0.7401" style="stop-color:#EBBA52"/>
			</linearGradient>
			<path class="st73" d="M45.9,125.4c0,4.1-2.5,6.8-6.4,6.8c-4,0-6.2-3-6.2-6.6c0-3.7,2.5-6.7,6.4-6.7
				C43.8,118.9,45.9,122,45.9,125.4z M36.9,125.6c0,2.4,1,3.9,2.7,3.9c1.7,0,2.6-1.6,2.6-3.9c0-2.2-1-3.9-2.7-3.9
				C37.9,121.6,36.9,123.2,36.9,125.6z"/>
			<linearGradient id="SVGID_74_" gradientUnits="userSpaceOnUse" x1="49.5634" y1="125.5581" x2="57.9575" y2="125.5581">
				<stop  offset="0" style="stop-color:#EBBA52"/>
				<stop  offset="0.3404" style="stop-color:#EDA254"/>
				<stop  offset="0.7401" style="stop-color:#EBBA52"/>
			</linearGradient>
			<polygon class="st74" points="49.6,119.1 53,119.1 53,129.1 58,129.1 58,132 49.6,132 			"/>
			<linearGradient id="SVGID_75_" gradientUnits="userSpaceOnUse" x1="49.5634" y1="125.5581" x2="57.9575" y2="125.5581">
				<stop  offset="0" style="stop-color:#EBBA52"/>
				<stop  offset="0.3404" style="stop-color:#EDA254"/>
				<stop  offset="0.7401" style="stop-color:#EBBA52"/>
			</linearGradient>
			<polygon class="st75" points="49.6,119.1 53,119.1 53,129.1 58,129.1 58,132 49.6,132 			"/>
			<linearGradient id="SVGID_76_" gradientUnits="userSpaceOnUse" x1="61.4901" y1="125.5871" x2="73.204" y2="125.5871">
				<stop  offset="0" style="stop-color:#EBBA52"/>
				<stop  offset="0.3404" style="stop-color:#EDA254"/>
				<stop  offset="0.7401" style="stop-color:#EBBA52"/>
			</linearGradient>
			<path class="st76" d="M61.5,119.3c1.1-0.2,2.6-0.3,4.1-0.3c2.5,0,4,0.4,5.3,1.3c1.4,1,2.3,2.6,2.3,4.9c0,2.6-1,4.3-2.3,5.3
				c-1.4,1.1-3.5,1.6-6,1.6c-1.7,0-2.8-0.1-3.4-0.2V119.3z M64.9,129.4c0.2,0,0.5,0,0.7,0c2.2,0,3.9-1.2,3.9-4.1
				c0-2.5-1.5-3.7-3.5-3.7c-0.6,0-0.9,0-1,0.1V129.4z"/>
			<linearGradient id="SVGID_77_" gradientUnits="userSpaceOnUse" x1="61.4901" y1="125.5871" x2="73.204" y2="125.5871">
				<stop  offset="0" style="stop-color:#EBBA52"/>
				<stop  offset="0.3404" style="stop-color:#EDA254"/>
				<stop  offset="0.7401" style="stop-color:#EBBA52"/>
			</linearGradient>
			<path class="st77" d="M61.5,119.3c1.1-0.2,2.6-0.3,4.1-0.3c2.5,0,4,0.4,5.3,1.3c1.4,1,2.3,2.6,2.3,4.9c0,2.6-1,4.3-2.3,5.3
				c-1.4,1.1-3.5,1.6-6,1.6c-1.7,0-2.8-0.1-3.4-0.2V119.3z M64.9,129.4c0.2,0,0.5,0,0.7,0c2.2,0,3.9-1.2,3.9-4.1
				c0-2.5-1.5-3.7-3.5-3.7c-0.6,0-0.9,0-1,0.1V129.4z"/>
			<linearGradient id="SVGID_78_" gradientUnits="userSpaceOnUse" x1="85.477" y1="125.5585" x2="94.7488" y2="125.5585">
				<stop  offset="0" style="stop-color:#EBBA52"/>
				<stop  offset="0.3404" style="stop-color:#EDA254"/>
				<stop  offset="0.7401" style="stop-color:#EBBA52"/>
			</linearGradient>
			<path class="st78" d="M86.1,128.6c0.8,0.4,2.1,0.8,3.3,0.8c1.2,0,1.8-0.4,1.8-1c0-0.6-0.6-1-2-1.5c-2.2-0.8-3.6-2-3.6-3.9
				c0-2.3,1.9-4,5.2-4c1.5,0,2.6,0.3,3.5,0.7l-0.7,2.7c-0.6-0.2-1.5-0.6-2.8-0.6c-1,0-1.6,0.4-1.6,1c0,0.6,0.7,0.9,2.3,1.5
				c2.3,0.8,3.4,2.1,3.4,3.9c0,2.2-1.7,4.1-5.5,4.1c-1.5,0-3.1-0.4-3.8-0.8L86.1,128.6z"/>
			<linearGradient id="SVGID_79_" gradientUnits="userSpaceOnUse" x1="85.477" y1="125.5585" x2="94.7488" y2="125.5585">
				<stop  offset="0" style="stop-color:#EBBA52"/>
				<stop  offset="0.3404" style="stop-color:#EDA254"/>
				<stop  offset="0.7401" style="stop-color:#EBBA52"/>
			</linearGradient>
			<path class="st79" d="M86.1,128.6c0.8,0.4,2.1,0.8,3.3,0.8c1.2,0,1.8-0.4,1.8-1c0-0.6-0.6-1-2-1.5c-2.2-0.8-3.6-2-3.6-3.9
				c0-2.3,1.9-4,5.2-4c1.5,0,2.6,0.3,3.5,0.7l-0.7,2.7c-0.6-0.2-1.5-0.6-2.8-0.6c-1,0-1.6,0.4-1.6,1c0,0.6,0.7,0.9,2.3,1.5
				c2.3,0.8,3.4,2.1,3.4,3.9c0,2.2-1.7,4.1-5.5,4.1c-1.5,0-3.1-0.4-3.8-0.8L86.1,128.6z"/>
			<linearGradient id="SVGID_80_" gradientUnits="userSpaceOnUse" x1="97.671" y1="125.5585" x2="107.743" y2="125.5585">
				<stop  offset="0" style="stop-color:#EBBA52"/>
				<stop  offset="0.3404" style="stop-color:#EDA254"/>
				<stop  offset="0.7401" style="stop-color:#EBBA52"/>
			</linearGradient>
			<polygon class="st80" points="101,122 97.7,122 97.7,119.1 107.7,119.1 107.7,122 104.4,122 104.4,132 101,132 			"/>
			<linearGradient id="SVGID_81_" gradientUnits="userSpaceOnUse" x1="97.671" y1="125.5585" x2="107.743" y2="125.5585">
				<stop  offset="0" style="stop-color:#EBBA52"/>
				<stop  offset="0.3404" style="stop-color:#EDA254"/>
				<stop  offset="0.7401" style="stop-color:#EBBA52"/>
			</linearGradient>
			<polygon class="st81" points="101,122 97.7,122 97.7,119.1 107.7,119.1 107.7,122 104.4,122 104.4,132 101,132 			"/>
			<linearGradient id="SVGID_82_" gradientUnits="userSpaceOnUse" x1="108.9293" y1="125.5581" x2="121.0804" y2="125.5581">
				<stop  offset="0" style="stop-color:#EBBA52"/>
				<stop  offset="0.3404" style="stop-color:#EDA254"/>
				<stop  offset="0.7401" style="stop-color:#EBBA52"/>
			</linearGradient>
			<path class="st82" d="M113.2,129l-0.7,3h-3.6l3.7-12.9h4.6l3.8,12.9h-3.7l-0.8-3H113.2z M116.1,126.5l-0.6-2.3
				c-0.2-0.7-0.4-1.8-0.6-2.5h0c-0.2,0.8-0.4,1.8-0.6,2.6l-0.6,2.3H116.1z"/>
			<linearGradient id="SVGID_83_" gradientUnits="userSpaceOnUse" x1="108.9293" y1="125.5581" x2="121.0804" y2="125.5581">
				<stop  offset="0" style="stop-color:#EBBA52"/>
				<stop  offset="0.3404" style="stop-color:#EDA254"/>
				<stop  offset="0.7401" style="stop-color:#EBBA52"/>
			</linearGradient>
			<path class="st83" d="M113.2,129l-0.7,3h-3.6l3.7-12.9h4.6l3.8,12.9h-3.7l-0.8-3H113.2z M116.1,126.5l-0.6-2.3
				c-0.2-0.7-0.4-1.8-0.6-2.5h0c-0.2,0.8-0.4,1.8-0.6,2.6l-0.6,2.3H116.1z"/>
			<linearGradient id="SVGID_84_" gradientUnits="userSpaceOnUse" x1="124.576" y1="125.5581" x2="135.64" y2="125.5581">
				<stop  offset="0" style="stop-color:#EBBA52"/>
				<stop  offset="0.3404" style="stop-color:#EDA254"/>
				<stop  offset="0.7401" style="stop-color:#EBBA52"/>
			</linearGradient>
			<path class="st84" d="M124.6,132v-12.9h4.1l2,3.9c0.7,1.3,1.5,3,2,4.5h0.1c-0.2-1.7-0.3-3.5-0.3-5.4v-3h3.1V132H132l-2.2-4.3
				c-0.7-1.4-1.6-3.1-2.2-4.7h-0.1c0.1,1.7,0.1,3.7,0.1,5.8v3.2H124.6z"/>
			<linearGradient id="SVGID_85_" gradientUnits="userSpaceOnUse" x1="124.576" y1="125.5581" x2="135.64" y2="125.5581">
				<stop  offset="0" style="stop-color:#EBBA52"/>
				<stop  offset="0.3404" style="stop-color:#EDA254"/>
				<stop  offset="0.7401" style="stop-color:#EBBA52"/>
			</linearGradient>
			<path class="st85" d="M124.6,132v-12.9h4.1l2,3.9c0.7,1.3,1.5,3,2,4.5h0.1c-0.2-1.7-0.3-3.5-0.3-5.4v-3h3.1V132H132l-2.2-4.3
				c-0.7-1.4-1.6-3.1-2.2-4.7h-0.1c0.1,1.7,0.1,3.7,0.1,5.8v3.2H124.6z"/>
			<linearGradient id="SVGID_86_" gradientUnits="userSpaceOnUse" x1="139.8795" y1="125.5871" x2="151.5935" y2="125.5871">
				<stop  offset="0" style="stop-color:#EBBA52"/>
				<stop  offset="0.3404" style="stop-color:#EDA254"/>
				<stop  offset="0.7401" style="stop-color:#EBBA52"/>
			</linearGradient>
			<path class="st86" d="M139.9,119.3c1.1-0.2,2.6-0.3,4.1-0.3c2.5,0,4,0.4,5.3,1.3c1.4,1,2.3,2.6,2.3,4.9c0,2.6-1,4.3-2.3,5.3
				c-1.4,1.1-3.5,1.6-6,1.6c-1.7,0-2.8-0.1-3.4-0.2V119.3z M143.3,129.4c0.2,0,0.5,0,0.7,0c2.2,0,3.9-1.2,3.9-4.1
				c0-2.5-1.5-3.7-3.5-3.7c-0.6,0-0.9,0-1,0.1V129.4z"/>
			<linearGradient id="SVGID_87_" gradientUnits="userSpaceOnUse" x1="139.8795" y1="125.5871" x2="151.5935" y2="125.5871">
				<stop  offset="0" style="stop-color:#EBBA52"/>
				<stop  offset="0.3404" style="stop-color:#EDA254"/>
				<stop  offset="0.7401" style="stop-color:#EBBA52"/>
			</linearGradient>
			<path class="st87" d="M139.9,119.3c1.1-0.2,2.6-0.3,4.1-0.3c2.5,0,4,0.4,5.3,1.3c1.4,1,2.3,2.6,2.3,4.9c0,2.6-1,4.3-2.3,5.3
				c-1.4,1.1-3.5,1.6-6,1.6c-1.7,0-2.8-0.1-3.4-0.2V119.3z M143.3,129.4c0.2,0,0.5,0,0.7,0c2.2,0,3.9-1.2,3.9-4.1
				c0-2.5-1.5-3.7-3.5-3.7c-0.6,0-0.9,0-1,0.1V129.4z"/>
			<linearGradient id="SVGID_88_" gradientUnits="userSpaceOnUse" x1="154.0584" y1="125.5581" x2="166.2094" y2="125.5581">
				<stop  offset="0" style="stop-color:#EBBA52"/>
				<stop  offset="0.3404" style="stop-color:#EDA254"/>
				<stop  offset="0.7401" style="stop-color:#EBBA52"/>
			</linearGradient>
			<path class="st88" d="M158.4,129l-0.7,3h-3.6l3.7-12.9h4.6l3.8,12.9h-3.7l-0.8-3H158.4z M161.2,126.5l-0.6-2.3
				c-0.2-0.7-0.4-1.8-0.6-2.5h0c-0.2,0.8-0.4,1.8-0.6,2.6l-0.6,2.3H161.2z"/>
			<linearGradient id="SVGID_89_" gradientUnits="userSpaceOnUse" x1="154.0584" y1="125.5581" x2="166.2094" y2="125.5581">
				<stop  offset="0" style="stop-color:#EBBA52"/>
				<stop  offset="0.3404" style="stop-color:#EDA254"/>
				<stop  offset="0.7401" style="stop-color:#EBBA52"/>
			</linearGradient>
			<path class="st89" d="M158.4,129l-0.7,3h-3.6l3.7-12.9h4.6l3.8,12.9h-3.7l-0.8-3H158.4z M161.2,126.5l-0.6-2.3
				c-0.2-0.7-0.4-1.8-0.6-2.5h0c-0.2,0.8-0.4,1.8-0.6,2.6l-0.6,2.3H161.2z"/>
			<linearGradient id="SVGID_90_" gradientUnits="userSpaceOnUse" x1="169.7041" y1="125.511" x2="179.9864" y2="125.511">
				<stop  offset="0" style="stop-color:#EBBA52"/>
				<stop  offset="0.3404" style="stop-color:#EDA254"/>
				<stop  offset="0.7401" style="stop-color:#EBBA52"/>
			</linearGradient>
			<path class="st90" d="M169.7,119.3c1-0.2,2.4-0.3,4.2-0.3c2,0,3.4,0.3,4.3,1c0.8,0.6,1.3,1.5,1.3,2.8c0,1.6-1.2,2.7-2.2,3.1v0.1
				c0.9,0.4,1.3,1.2,1.6,2.3c0.4,1.3,0.8,3.2,1.1,3.7h-3.5c-0.2-0.4-0.5-1.4-0.9-3c-0.3-1.5-0.8-1.9-1.9-1.9h-0.6v4.8h-3.4V119.3z
				 M173.1,124.7h0.9c1.3,0,2-0.6,2-1.6c0-1-0.6-1.5-1.8-1.5c-0.6,0-1,0-1.2,0.1V124.7z"/>
			<linearGradient id="SVGID_91_" gradientUnits="userSpaceOnUse" x1="169.7041" y1="125.511" x2="179.9864" y2="125.511">
				<stop  offset="0" style="stop-color:#EBBA52"/>
				<stop  offset="0.3404" style="stop-color:#EDA254"/>
				<stop  offset="0.7401" style="stop-color:#EBBA52"/>
			</linearGradient>
			<path class="st91" d="M169.7,119.3c1-0.2,2.4-0.3,4.2-0.3c2,0,3.4,0.3,4.3,1c0.8,0.6,1.3,1.5,1.3,2.8c0,1.6-1.2,2.7-2.2,3.1v0.1
				c0.9,0.4,1.3,1.2,1.6,2.3c0.4,1.3,0.8,3.2,1.1,3.7h-3.5c-0.2-0.4-0.5-1.4-0.9-3c-0.3-1.5-0.8-1.9-1.9-1.9h-0.6v4.8h-3.4V119.3z
				 M173.1,124.7h0.9c1.3,0,2-0.6,2-1.6c0-1-0.6-1.5-1.8-1.5c-0.6,0-1,0-1.2,0.1V124.7z"/>
			<linearGradient id="SVGID_92_" gradientUnits="userSpaceOnUse" x1="183.329" y1="125.5871" x2="195.043" y2="125.5871">
				<stop  offset="0" style="stop-color:#EBBA52"/>
				<stop  offset="0.3404" style="stop-color:#EDA254"/>
				<stop  offset="0.7401" style="stop-color:#EBBA52"/>
			</linearGradient>
			<path class="st92" d="M183.3,119.3c1.1-0.2,2.6-0.3,4.1-0.3c2.5,0,4,0.4,5.3,1.3c1.4,1,2.3,2.6,2.3,4.9c0,2.6-1,4.3-2.3,5.3
				c-1.4,1.1-3.5,1.6-6,1.6c-1.7,0-2.8-0.1-3.4-0.2V119.3z M186.8,129.4c0.2,0,0.5,0,0.7,0c2.2,0,3.9-1.2,3.9-4.1
				c0-2.5-1.5-3.7-3.5-3.7c-0.6,0-0.9,0-1,0.1V129.4z"/>
			<linearGradient id="SVGID_93_" gradientUnits="userSpaceOnUse" x1="183.329" y1="125.5871" x2="195.043" y2="125.5871">
				<stop  offset="0" style="stop-color:#EBBA52"/>
				<stop  offset="0.3404" style="stop-color:#EDA254"/>
				<stop  offset="0.7401" style="stop-color:#EBBA52"/>
			</linearGradient>
			<path class="st93" d="M183.3,119.3c1.1-0.2,2.6-0.3,4.1-0.3c2.5,0,4,0.4,5.3,1.3c1.4,1,2.3,2.6,2.3,4.9c0,2.6-1,4.3-2.3,5.3
				c-1.4,1.1-3.5,1.6-6,1.6c-1.7,0-2.8-0.1-3.4-0.2V119.3z M186.8,129.4c0.2,0,0.5,0,0.7,0c2.2,0,3.9-1.2,3.9-4.1
				c0-2.5-1.5-3.7-3.5-3.7c-0.6,0-0.9,0-1,0.1V129.4z"/>
			<linearGradient id="SVGID_94_" gradientUnits="userSpaceOnUse" x1="207.2007" y1="125.5585" x2="218.876" y2="125.5585">
				<stop  offset="0" style="stop-color:#EBBA52"/>
				<stop  offset="0.3404" style="stop-color:#EDA254"/>
				<stop  offset="0.7401" style="stop-color:#EBBA52"/>
			</linearGradient>
			<path class="st94" d="M218.9,131.4c-1,0.3-2.7,0.7-4.4,0.7c-2.5,0-4.3-0.6-5.4-1.7c-1.2-1.1-1.8-2.8-1.8-4.7
				c0-4.5,3.3-6.7,7.5-6.7c1.7,0,3.1,0.3,3.7,0.6l-0.7,2.7c-0.7-0.3-1.6-0.5-3.1-0.5c-2.1,0-3.9,1.1-3.9,3.7c0,2.4,1.5,3.8,3.7,3.8
				c0.5,0,0.9-0.1,1.1-0.1V127h-1.7v-2.7h5V131.4z"/>
			<linearGradient id="SVGID_95_" gradientUnits="userSpaceOnUse" x1="207.2007" y1="125.5585" x2="218.876" y2="125.5585">
				<stop  offset="0" style="stop-color:#EBBA52"/>
				<stop  offset="0.3404" style="stop-color:#EDA254"/>
				<stop  offset="0.7401" style="stop-color:#EBBA52"/>
			</linearGradient>
			<path class="st95" d="M218.9,131.4c-1,0.3-2.7,0.7-4.4,0.7c-2.5,0-4.3-0.6-5.4-1.7c-1.2-1.1-1.8-2.8-1.8-4.7
				c0-4.5,3.3-6.7,7.5-6.7c1.7,0,3.1,0.3,3.7,0.6l-0.7,2.7c-0.7-0.3-1.6-0.5-3.1-0.5c-2.1,0-3.9,1.1-3.9,3.7c0,2.4,1.5,3.8,3.7,3.8
				c0.5,0,0.9-0.1,1.1-0.1V127h-1.7v-2.7h5V131.4z"/>
			<linearGradient id="SVGID_96_" gradientUnits="userSpaceOnUse" x1="222.886" y1="125.5577" x2="226.3387" y2="125.5577">
				<stop  offset="0" style="stop-color:#EBBA52"/>
				<stop  offset="0.3404" style="stop-color:#EDA254"/>
				<stop  offset="0.7401" style="stop-color:#EBBA52"/>
			</linearGradient>
			<rect x="222.9" y="119.1" class="st96" width="3.5" height="12.9"/>
			<linearGradient id="SVGID_97_" gradientUnits="userSpaceOnUse" x1="222.886" y1="125.5577" x2="226.3387" y2="125.5577">
				<stop  offset="0" style="stop-color:#EBBA52"/>
				<stop  offset="0.3404" style="stop-color:#EDA254"/>
				<stop  offset="0.7401" style="stop-color:#EBBA52"/>
			</linearGradient>
			<rect x="222.9" y="119.1" class="st97" width="3.5" height="12.9"/>
			<linearGradient id="SVGID_98_" gradientUnits="userSpaceOnUse" x1="230.5573" y1="125.5581" x2="241.6213" y2="125.5581">
				<stop  offset="0" style="stop-color:#EBBA52"/>
				<stop  offset="0.3404" style="stop-color:#EDA254"/>
				<stop  offset="0.7401" style="stop-color:#EBBA52"/>
			</linearGradient>
			<path class="st98" d="M230.6,132v-12.9h4.1l2,3.9c0.7,1.3,1.5,3,2,4.5h0.1c-0.2-1.7-0.3-3.5-0.3-5.4v-3h3.1V132H238l-2.2-4.3
				c-0.7-1.4-1.6-3.1-2.2-4.7h-0.1c0.1,1.7,0.1,3.7,0.1,5.8v3.2H230.6z"/>
			<linearGradient id="SVGID_99_" gradientUnits="userSpaceOnUse" x1="230.5573" y1="125.5581" x2="241.6213" y2="125.5581">
				<stop  offset="0" style="stop-color:#EBBA52"/>
				<stop  offset="0.3404" style="stop-color:#EDA254"/>
				<stop  offset="0.7401" style="stop-color:#EBBA52"/>
			</linearGradient>
			<path class="st99" d="M230.6,132v-12.9h4.1l2,3.9c0.7,1.3,1.5,3,2,4.5h0.1c-0.2-1.7-0.3-3.5-0.3-5.4v-3h3.1V132H238l-2.2-4.3
				c-0.7-1.4-1.6-3.1-2.2-4.7h-0.1c0.1,1.7,0.1,3.7,0.1,5.8v3.2H230.6z"/>
			<linearGradient id="SVGID_100_" gradientUnits="userSpaceOnUse" x1="245.8609" y1="125.5581" x2="257.0023" y2="125.5581">
				<stop  offset="0" style="stop-color:#EBBA52"/>
				<stop  offset="0.3404" style="stop-color:#EDA254"/>
				<stop  offset="0.7401" style="stop-color:#EBBA52"/>
			</linearGradient>
			<path class="st100" d="M245.9,119.1h3.4v5.5h0c0.3-0.5,0.6-1,0.8-1.4l2.5-4h4.2l-4.1,5.5l4.2,7.4h-4l-2.7-5.2l-1,1.3v3.9h-3.4
				V119.1z"/>
			<linearGradient id="SVGID_101_" gradientUnits="userSpaceOnUse" x1="245.8609" y1="125.5581" x2="257.0023" y2="125.5581">
				<stop  offset="0" style="stop-color:#EBBA52"/>
				<stop  offset="0.3404" style="stop-color:#EDA254"/>
				<stop  offset="0.7401" style="stop-color:#EBBA52"/>
			</linearGradient>
			<path class="st101" d="M245.9,119.1h3.4v5.5h0c0.3-0.5,0.6-1,0.8-1.4l2.5-4h4.2l-4.1,5.5l4.2,7.4h-4l-2.7-5.2l-1,1.3v3.9h-3.4
				V119.1z"/>
			<linearGradient id="SVGID_102_" gradientUnits="userSpaceOnUse" x1="258.7408" y1="125.5585" x2="270.417" y2="125.5585">
				<stop  offset="0" style="stop-color:#EBBA52"/>
				<stop  offset="0.3404" style="stop-color:#EDA254"/>
				<stop  offset="0.7401" style="stop-color:#EBBA52"/>
			</linearGradient>
			<path class="st102" d="M270.4,131.4c-1,0.3-2.7,0.7-4.4,0.7c-2.5,0-4.3-0.6-5.4-1.7c-1.2-1.1-1.8-2.8-1.8-4.7
				c0-4.5,3.3-6.7,7.5-6.7c1.7,0,3.1,0.3,3.7,0.6l-0.7,2.7c-0.7-0.3-1.6-0.5-3.1-0.5c-2.1,0-3.9,1.1-3.9,3.7c0,2.4,1.5,3.8,3.7,3.8
				c0.5,0,0.9-0.1,1.1-0.1V127h-1.7v-2.7h5V131.4z"/>
			<linearGradient id="SVGID_103_" gradientUnits="userSpaceOnUse" x1="258.7408" y1="125.5585" x2="270.417" y2="125.5585">
				<stop  offset="0" style="stop-color:#EBBA52"/>
				<stop  offset="0.3404" style="stop-color:#EDA254"/>
				<stop  offset="0.7401" style="stop-color:#EBBA52"/>
			</linearGradient>
			<path class="st103" d="M270.4,131.4c-1,0.3-2.7,0.7-4.4,0.7c-2.5,0-4.3-0.6-5.4-1.7c-1.2-1.1-1.8-2.8-1.8-4.7
				c0-4.5,3.3-6.7,7.5-6.7c1.7,0,3.1,0.3,3.7,0.6l-0.7,2.7c-0.7-0.3-1.6-0.5-3.1-0.5c-2.1,0-3.9,1.1-3.9,3.7c0,2.4,1.5,3.8,3.7,3.8
				c0.5,0,0.9-0.1,1.1-0.1V127h-1.7v-2.7h5V131.4z"/>
			<linearGradient id="SVGID_104_" gradientUnits="userSpaceOnUse" x1="273.8932" y1="125.5589" x2="286.5218" y2="125.5589">
				<stop  offset="0" style="stop-color:#EBBA52"/>
				<stop  offset="0.3404" style="stop-color:#EDA254"/>
				<stop  offset="0.7401" style="stop-color:#EBBA52"/>
			</linearGradient>
			<path class="st104" d="M286.5,125.4c0,4.1-2.5,6.8-6.4,6.8c-4,0-6.2-3-6.2-6.6c0-3.7,2.5-6.7,6.4-6.7
				C284.4,118.9,286.5,122,286.5,125.4 M277.5,125.6c0,2.4,1,3.9,2.7,3.9c1.7,0,2.6-1.6,2.6-3.9c0-2.2-1-3.9-2.7-3.9
				C278.6,121.6,277.5,123.2,277.5,125.6"/>
			<linearGradient id="SVGID_105_" gradientUnits="userSpaceOnUse" x1="273.8932" y1="125.5589" x2="286.5218" y2="125.5589">
				<stop  offset="0" style="stop-color:#EBBA52"/>
				<stop  offset="0.3404" style="stop-color:#EDA254"/>
				<stop  offset="0.7401" style="stop-color:#EBBA52"/>
			</linearGradient>
			<path class="st105" d="M286.5,125.4c0,4.1-2.5,6.8-6.4,6.8c-4,0-6.2-3-6.2-6.6c0-3.7,2.5-6.7,6.4-6.7
				C284.4,118.9,286.5,122,286.5,125.4z M277.5,125.6c0,2.4,1,3.9,2.7,3.9c1.7,0,2.6-1.6,2.6-3.9c0-2.2-1-3.9-2.7-3.9
				C278.6,121.6,277.5,123.2,277.5,125.6z"/>
			<linearGradient id="SVGID_106_" gradientUnits="userSpaceOnUse" x1="299.2151" y1="125.5875" x2="309.3646" y2="125.5875">
				<stop  offset="0" style="stop-color:#EBBA52"/>
				<stop  offset="0.3404" style="stop-color:#EDA254"/>
				<stop  offset="0.7401" style="stop-color:#EBBA52"/>
			</linearGradient>
			<path class="st106" d="M299.2,119.3c0.8-0.1,2.5-0.3,4.1-0.3c1.8,0,2.9,0.1,3.9,0.6c1,0.5,1.7,1.4,1.7,2.6c0,1.1-0.6,2.1-2.1,2.7
				v0c1.6,0.4,2.5,1.6,2.5,3.1c0,1.2-0.6,2.2-1.4,2.8c-1,0.7-2.6,1.2-5.3,1.2c-1.6,0-2.7-0.1-3.4-0.2V119.3z M302.6,124.1h0.7
				c1.5,0,2.2-0.5,2.2-1.3c0-0.8-0.6-1.2-1.7-1.2c-0.6,0-0.9,0-1.1,0.1V124.1z M302.6,129.6c0.2,0,0.6,0,1,0c1.1,0,2.1-0.5,2.1-1.6
				c0-1.1-1-1.5-2.3-1.5h-0.8V129.6z"/>
			<linearGradient id="SVGID_107_" gradientUnits="userSpaceOnUse" x1="299.2151" y1="125.5875" x2="309.3646" y2="125.5875">
				<stop  offset="0" style="stop-color:#EBBA52"/>
				<stop  offset="0.3404" style="stop-color:#EDA254"/>
				<stop  offset="0.7401" style="stop-color:#EBBA52"/>
			</linearGradient>
			<path class="st107" d="M299.2,119.3c0.8-0.1,2.5-0.3,4.1-0.3c1.8,0,2.9,0.1,3.9,0.6c1,0.5,1.7,1.4,1.7,2.6c0,1.1-0.6,2.1-2.1,2.7
				v0c1.6,0.4,2.5,1.6,2.5,3.1c0,1.2-0.6,2.2-1.4,2.8c-1,0.7-2.6,1.2-5.3,1.2c-1.6,0-2.7-0.1-3.4-0.2V119.3z M302.6,124.1h0.7
				c1.5,0,2.2-0.5,2.2-1.3c0-0.8-0.6-1.2-1.7-1.2c-0.6,0-0.9,0-1.1,0.1V124.1z M302.6,129.6c0.2,0,0.6,0,1,0c1.1,0,2.1-0.5,2.1-1.6
				c0-1.1-1-1.5-2.3-1.5h-0.8V129.6z"/>
			<linearGradient id="SVGID_108_" gradientUnits="userSpaceOnUse" x1="313.1064" y1="125.5577" x2="316.5599" y2="125.5577">
				<stop  offset="0" style="stop-color:#EBBA52"/>
				<stop  offset="0.3404" style="stop-color:#EDA254"/>
				<stop  offset="0.7401" style="stop-color:#EBBA52"/>
			</linearGradient>
			<rect x="313.1" y="119.1" class="st108" width="3.5" height="12.9"/>
			<linearGradient id="SVGID_109_" gradientUnits="userSpaceOnUse" x1="313.1064" y1="125.5577" x2="316.5599" y2="125.5577">
				<stop  offset="0" style="stop-color:#EBBA52"/>
				<stop  offset="0.3404" style="stop-color:#EDA254"/>
				<stop  offset="0.7401" style="stop-color:#EBBA52"/>
			</linearGradient>
			<rect x="313.1" y="119.1" class="st109" width="3.5" height="12.9"/>
			<linearGradient id="SVGID_110_" gradientUnits="userSpaceOnUse" x1="320.7784" y1="125.5581" x2="329.1717" y2="125.5581">
				<stop  offset="0" style="stop-color:#EBBA52"/>
				<stop  offset="0.3404" style="stop-color:#EDA254"/>
				<stop  offset="0.7401" style="stop-color:#EBBA52"/>
			</linearGradient>
			<polygon class="st110" points="320.8,119.1 324.2,119.1 324.2,129.1 329.2,129.1 329.2,132 320.8,132 			"/>
			<linearGradient id="SVGID_111_" gradientUnits="userSpaceOnUse" x1="320.7784" y1="125.5581" x2="329.1717" y2="125.5581">
				<stop  offset="0" style="stop-color:#EBBA52"/>
				<stop  offset="0.3404" style="stop-color:#EDA254"/>
				<stop  offset="0.7401" style="stop-color:#EBBA52"/>
			</linearGradient>
			<polygon class="st111" points="320.8,119.1 324.2,119.1 324.2,129.1 329.2,129.1 329.2,132 320.8,132 			"/>
			<linearGradient id="SVGID_112_" gradientUnits="userSpaceOnUse" x1="331.4458" y1="125.5589" x2="344.0744" y2="125.5589">
				<stop  offset="0" style="stop-color:#EBBA52"/>
				<stop  offset="0.3404" style="stop-color:#EDA254"/>
				<stop  offset="0.7401" style="stop-color:#EBBA52"/>
			</linearGradient>
			<path class="st112" d="M344.1,125.4c0,4.1-2.5,6.8-6.4,6.8c-4,0-6.2-3-6.2-6.6c0-3.7,2.5-6.7,6.4-6.7
				C342,118.9,344.1,122,344.1,125.4 M335.1,125.6c0,2.4,1,3.9,2.7,3.9c1.7,0,2.6-1.6,2.6-3.9c0-2.2-1-3.9-2.7-3.9
				C336.1,121.6,335.1,123.2,335.1,125.6"/>
			<linearGradient id="SVGID_113_" gradientUnits="userSpaceOnUse" x1="331.4458" y1="125.5589" x2="344.0744" y2="125.5589">
				<stop  offset="0" style="stop-color:#EBBA52"/>
				<stop  offset="0.3404" style="stop-color:#EDA254"/>
				<stop  offset="0.7401" style="stop-color:#EBBA52"/>
			</linearGradient>
			<path class="st113" d="M344.1,125.4c0,4.1-2.5,6.8-6.4,6.8c-4,0-6.2-3-6.2-6.6c0-3.7,2.5-6.7,6.4-6.7
				C342,118.9,344.1,122,344.1,125.4z M335.1,125.6c0,2.4,1,3.9,2.7,3.9c1.7,0,2.6-1.6,2.6-3.9c0-2.2-1-3.9-2.7-3.9
				C336.1,121.6,335.1,123.2,335.1,125.6z"/>
			<linearGradient id="SVGID_114_" gradientUnits="userSpaceOnUse" x1="347.7616" y1="125.5875" x2="357.9101" y2="125.5875">
				<stop  offset="0" style="stop-color:#EBBA52"/>
				<stop  offset="0.3404" style="stop-color:#EDA254"/>
				<stop  offset="0.7401" style="stop-color:#EBBA52"/>
			</linearGradient>
			<path class="st114" d="M347.8,119.3c0.8-0.1,2.5-0.3,4.1-0.3c1.8,0,2.9,0.1,3.9,0.6c1,0.5,1.7,1.4,1.7,2.6c0,1.1-0.6,2.1-2.1,2.7
				v0c1.6,0.4,2.5,1.6,2.5,3.1c0,1.2-0.6,2.2-1.4,2.8c-1,0.7-2.6,1.2-5.3,1.2c-1.6,0-2.7-0.1-3.4-0.2V119.3z M351.2,124.1h0.7
				c1.5,0,2.2-0.5,2.2-1.3c0-0.8-0.6-1.2-1.7-1.2c-0.6,0-0.9,0-1.1,0.1V124.1z M351.2,129.6c0.2,0,0.6,0,1,0c1.1,0,2.1-0.5,2.1-1.6
				c0-1.1-1-1.5-2.3-1.5h-0.8V129.6z"/>
			<linearGradient id="SVGID_115_" gradientUnits="userSpaceOnUse" x1="347.7616" y1="125.5875" x2="357.9101" y2="125.5875">
				<stop  offset="0" style="stop-color:#EBBA52"/>
				<stop  offset="0.3404" style="stop-color:#EDA254"/>
				<stop  offset="0.7401" style="stop-color:#EBBA52"/>
			</linearGradient>
			<path class="st115" d="M347.8,119.3c0.8-0.1,2.5-0.3,4.1-0.3c1.8,0,2.9,0.1,3.9,0.6c1,0.5,1.7,1.4,1.7,2.6c0,1.1-0.6,2.1-2.1,2.7
				v0c1.6,0.4,2.5,1.6,2.5,3.1c0,1.2-0.6,2.2-1.4,2.8c-1,0.7-2.6,1.2-5.3,1.2c-1.6,0-2.7-0.1-3.4-0.2V119.3z M351.2,124.1h0.7
				c1.5,0,2.2-0.5,2.2-1.3c0-0.8-0.6-1.2-1.7-1.2c-0.6,0-0.9,0-1.1,0.1V124.1z M351.2,129.6c0.2,0,0.6,0,1,0c1.1,0,2.1-0.5,2.1-1.6
				c0-1.1-1-1.5-2.3-1.5h-0.8V129.6z"/>
			<linearGradient id="SVGID_116_" gradientUnits="userSpaceOnUse" x1="360.6415" y1="125.5581" x2="372.7926" y2="125.5581">
				<stop  offset="0" style="stop-color:#EBBA52"/>
				<stop  offset="0.3404" style="stop-color:#EDA254"/>
				<stop  offset="0.7401" style="stop-color:#EBBA52"/>
			</linearGradient>
			<path class="st116" d="M364.9,129l-0.7,3h-3.6l3.7-12.9h4.6l3.8,12.9h-3.7l-0.8-3H364.9z M367.8,126.5l-0.6-2.3
				c-0.2-0.7-0.4-1.8-0.6-2.5h0c-0.2,0.8-0.4,1.8-0.6,2.6l-0.6,2.3H367.8z"/>
			<linearGradient id="SVGID_117_" gradientUnits="userSpaceOnUse" x1="360.6415" y1="125.5581" x2="372.7926" y2="125.5581">
				<stop  offset="0" style="stop-color:#EBBA52"/>
				<stop  offset="0.3404" style="stop-color:#EDA254"/>
				<stop  offset="0.7401" style="stop-color:#EBBA52"/>
			</linearGradient>
			<path class="st117" d="M364.9,129l-0.7,3h-3.6l3.7-12.9h4.6l3.8,12.9h-3.7l-0.8-3H364.9z M367.8,126.5l-0.6-2.3
				c-0.2-0.7-0.4-1.8-0.6-2.5h0c-0.2,0.8-0.4,1.8-0.6,2.6l-0.6,2.3H367.8z"/>
		</g>
	</g>
</g>
</svg>
