<!-- Generator: Adobe Illustrator 20.1.0, SVG Export Plug-In  -->
<svg version="1.1"
	 xmlns="http://www.w3.org/2000/svg" xmlns:xlink="http://www.w3.org/1999/xlink" xmlns:a="http://ns.adobe.com/AdobeSVGViewerExtensions/3.0/"
	 x="0px" y="0px" width="368.4px" height="84.4px" viewBox="0 0 368.4 84.4"
	 style="overflow:scroll;enable-background:new 0 0 368.4 84.4;" xml:space="preserve">
<style type="text/css">
	.st0{fill:#231F20;}
	.st1{font-family:'MyriadPro-Regular';}
	.st2{font-size:7.8163px;}
	.st3{fill:#D51067;}
	.st4{opacity:0.84;fill:none;stroke:#BBBDBF;stroke-width:0.8675;stroke-miterlimit:10;}
	.st5{fill:none;stroke:#808184;stroke-width:0.8589;stroke-miterlimit:10;}
	.st6{fill:none;stroke:#A6A8AB;stroke-width:0.8588;stroke-miterlimit:10;}
	.st7{fill:none;stroke:#A6A8AB;stroke-width:0.8588;stroke-miterlimit:10;stroke-dasharray:2.6477,1.7651;}
	.st8{fill:none;stroke:#5A2D81;stroke-width:0.8675;stroke-miterlimit:10;}
	.st9{fill:none;stroke:#5A2D81;stroke-width:0.9028;stroke-miterlimit:10;}
</style>
<defs>
</defs>
<text transform="matrix(1 0 0 1 366.7247 82.402)" class="st0 st1 st2"> </text>
<g>
	<g>
		<path class="st3" d="M3,30.2c12.6-0.3,25.1-0.5,37.7-0.8c3.4-0.1,6.6,1.3,10.3,2.5c7.6,2.4,15.2,4.7,22.8,7.1
			c10.4,3.2,21.4,3.3,32.2,4.2c11.1,1,22.1,2.4,33.2,3.8c5.2,0.7,10.4,1.5,15.6,2c5,0.4,10.2-0.2,15.2-0.4
			c11.1-0.4,21.8-1.1,32.8,0.2c11.3,1.3,22.7,2.2,34,4.1c7.8,1.3,15.6,2.6,23.5,3.9c3.4,0.6,7.6,2.1,10.9,1.1
			c6.3-1.9,12.5-5.4,18.5-8c3.7-1.6,7.4-3.2,11-4.7c2.2-0.9,4.6-2.4,6.9-3c0.6-0.1,0.7-0.2,0.4-0.2c0.6,0,1.5,0.6,2.1,0.8
			c3,1.1,6,2.3,8.9,3.4c7.4,2.8,14.7,5.6,22.1,8.4c1.5,0.6,2.9,1.1,4.4,1.7c0.9,0.3-1.5-2.6-2.5-3c-11.8-4.5-23.6-9-35.5-13.4
			c-3.4-1.3-5,0.2-8.4,1.7c-7.3,3.2-14.7,6.3-22,9.5c-3.3,1.4-7.9,4.3-11.1,4.2c-6.8-0.3-14-2.3-20.7-3.4
			c-10.9-1.8-21.7-3.2-32.7-4.5c-6.9-0.8-13.7-1.8-20.6-2.4c-3.9-0.3-7.9,0.1-11.8,0.3c-11.1,0.4-22.4,1.6-33.4,0.2
			c-11.3-1.5-22.6-3.3-33.9-4.3c-7.5-0.7-14.9-1.3-22.4-2c-4.2-0.4-10.1-0.5-13.6-1.3c-6.1-1.4-12.1-3.8-18.1-5.6
			c-5.9-1.8-12.1-4.6-18.2-5.7c-3.9-0.7-8.5,0-12.4,0.1c-7.8,0.2-15.7,0.3-23.5,0.5c-1.6,0-3.1,0.1-4.7,0.1
			C-0.3,27.1,1.8,30.2,3,30.2L3,30.2z"/>
	</g>
</g>
<line class="st4" x1="1.5" y1="8" x2="344.3" y2="8"/>
<path class="st5" d="M344.3,22.3"/>
<path class="st5" d="M2,8.5L41.6,4c0,0,41.5,9,49.6,10c8.2,1,26.2,2.5,26.2,2.5l37.1,3.4h37.9L231,30.4l37.6-10.6
	c0,0,29.9-0.5,38-1.2"/>
<g>
	<g>
		<line class="st6" x1="1.2" y1="10.1" x2="2.3" y2="10.1"/>
		<polyline class="st7" points="3.9,10.2 41.8,11.5 79.8,18.5 117.1,23.2 155.8,31.1 192.6,35.1 231.6,39 268.6,41.4 306.7,45.3 
			344.3,49.3 		"/>
		<line class="st6" x1="345.1" y1="49.3" x2="346.2" y2="49.5"/>
	</g>
</g>
<line class="st8" x1="304.7" y1="9.5" x2="308.6" y2="9.5"/>
<line class="st8" x1="266.7" y1="12" x2="270.5" y2="12"/>
<line class="st8" x1="190.5" y1="26.4" x2="194.4" y2="26.4"/>
<line class="st8" x1="190.5" y1="37.1" x2="194.4" y2="37.1"/>
<line class="st8" x1="190.5" y1="67.8" x2="194.4" y2="67.8"/>
<line class="st8" x1="190.5" y1="33.5" x2="194.4" y2="33.5"/>
<line class="st8" x1="190.5" y1="14" x2="194.4" y2="14"/>
<line class="st8" x1="229" y1="21.6" x2="232.9" y2="21.6"/>
<line class="st8" x1="229" y1="27.2" x2="232.9" y2="27.2"/>
<line class="st8" x1="229" y1="36.6" x2="232.9" y2="36.6"/>
<line class="st8" x1="229" y1="40.4" x2="232.9" y2="40.4"/>
<line class="st8" x1="229" y1="73.4" x2="232.9" y2="73.4"/>
<line class="st8" x1="266.7" y1="28.6" x2="270.5" y2="28.6"/>
<line class="st8" x1="266.7" y1="39.5" x2="270.5" y2="39.5"/>
<line class="st8" x1="266.7" y1="44.3" x2="270.5" y2="44.3"/>
<line class="st8" x1="266.7" y1="83.6" x2="270.5" y2="83.6"/>
<line class="st8" x1="304.7" y1="43.2" x2="308.6" y2="43.2"/>
<line class="st8" x1="304.7" y1="47.6" x2="308.6" y2="47.6"/>
<line class="st8" x1="304.7" y1="61.5" x2="308.6" y2="61.5"/>
<line class="st8" x1="304.7" y1="27.7" x2="308.6" y2="27.7"/>
<line class="st8" x1="306.6" y1="9.4" x2="306.7" y2="61.5"/>
<line class="st8" x1="231" y1="21.3" x2="231" y2="73.4"/>
<path class="st8" d="M269.7,51.7"/>
<path class="st8" d="M269.7,12.7"/>
<g>
	<line class="st8" x1="342.4" y1="8" x2="346.2" y2="8"/>
	<line class="st8" x1="342.4" y1="35.5" x2="346.2" y2="35.5"/>
	<line class="st9" x1="344.3" y1="35.5" x2="344.3" y2="8"/>
</g>
<g>
	<line class="st8" x1="342.4" y1="47.1" x2="346.3" y2="47.1"/>
	<line class="st8" x1="342.4" y1="51.8" x2="346.3" y2="51.8"/>
	<line class="st8" x1="344.3" y1="47.1" x2="344.3" y2="51.8"/>
</g>
<line class="st8" x1="192.4" y1="14" x2="192.4" y2="67.8"/>
<line class="st8" x1="152.6" y1="13.6" x2="156.5" y2="13.6"/>
<line class="st8" x1="152.6" y1="21.3" x2="156.5" y2="21.3"/>
<line class="st8" x1="152.6" y1="26.4" x2="156.5" y2="26.4"/>
<line class="st8" x1="152.6" y1="32.8" x2="156.5" y2="32.8"/>
<line class="st8" x1="152.6" y1="29" x2="156.5" y2="29"/>
<line class="st8" x1="152.6" y1="73.4" x2="156.5" y2="73.4"/>
<line class="st8" x1="154.6" y1="13.6" x2="154.6" y2="73.4"/>
<line class="st8" x1="115.2" y1="11.2" x2="119.1" y2="11.2"/>
<line class="st8" x1="115.2" y1="22.1" x2="119.1" y2="22.1"/>
<line class="st8" x1="115.2" y1="25.4" x2="119.1" y2="25.4"/>
<line class="st8" x1="115.2" y1="64.3" x2="119.1" y2="64.3"/>
<path class="st8" d="M117.4,31.1"/>
<path class="st8" d="M117.4,11.9"/>
<line class="st8" x1="77.5" y1="7.7" x2="81.3" y2="7.7"/>
<line class="st8" x1="77.5" y1="16.5" x2="81.3" y2="16.5"/>
<line class="st8" x1="77.5" y1="19.1" x2="81.3" y2="19.1"/>
<line class="st8" x1="77.5" y1="28" x2="81.3" y2="28"/>
<line class="st8" x1="77.5" y1="50.8" x2="81.3" y2="50.8"/>
<line class="st8" x1="79.4" y1="7.7" x2="79.4" y2="19.4"/>
<line class="st8" x1="79.4" y1="28" x2="79.4" y2="50.8"/>
<line class="st8" x1="39.6" y1="0.4" x2="43.5" y2="0.4"/>
<line class="st8" x1="39.6" y1="12.2" x2="43.5" y2="12.2"/>
<line class="st8" x1="39.6" y1="42.8" x2="43.5" y2="42.8"/>
<line class="st8" x1="39.6" y1="9.8" x2="43.5" y2="9.8"/>
<line class="st8" x1="41.6" y1="0.4" x2="41.6" y2="42.8"/>
<line class="st8" x1="2" y1="3.6" x2="5.8" y2="3.6"/>
<line class="st8" x1="5.8" y1="8.5" x2="2" y2="8.5"/>
<line class="st8" x1="2" y1="12.2" x2="5.8" y2="12.2"/>
<line class="st8" x1="2" y1="15.6" x2="5.8" y2="15.6"/>
<line class="st8" x1="2" y1="41.4" x2="5.8" y2="41.4"/>
<line class="st8" x1="3.9" y1="3.6" x2="3.9" y2="12.6"/>
<line class="st8" x1="3.9" y1="15.6" x2="3.9" y2="41.4"/>
<line class="st8" x1="117.1" y1="11.2" x2="117.1" y2="64.3"/>
<line class="st8" x1="268.6" y1="12" x2="268.6" y2="83.6"/>
<path class="st9" d="M306.6,18.6"/>
<line class="st5" x1="306.6" y1="18.6" x2="344.3" y2="22.3"/>
</svg>
