<!-- Generator: Adobe Illustrator 20.1.0, SVG Export Plug-In  -->
<svg version="1.1"
	 xmlns="http://www.w3.org/2000/svg" xmlns:xlink="http://www.w3.org/1999/xlink" xmlns:a="http://ns.adobe.com/AdobeSVGViewerExtensions/3.0/"
	 x="0px" y="0px" width="344.2px" height="5.4px" viewBox="0 0 344.2 5.4"
	 style="overflow:scroll;enable-background:new 0 0 344.2 5.4;" xml:space="preserve">
<style type="text/css">
	.st0{fill:#DA0962;}
</style>
<defs>
</defs>
<g>
	<path class="st0" d="M3.5,2.6c0,1.8-0.7,2.7-1.8,2.7c-1,0-1.7-1-1.7-2.7C0,1,0.7,0,1.8,0C2.9,0,3.5,1,3.5,2.6z M0.7,2.7
		c0,1.4,0.4,2.1,1,2.1c0.7,0,1.1-0.8,1.1-2.2c0-1.3-0.3-2.1-1-2.1C1.1,0.5,0.7,1.3,0.7,2.7z"/>
	<path class="st0" d="M41.1,0.7L41.1,0.7l-0.9,0.5l-0.1-0.5l1.1-0.6h0.6v5.2h-0.7V0.7z"/>
	<path class="st0" d="M77,4.5c0.2,0.1,0.7,0.3,1.1,0.3c0.9,0,1.2-0.6,1.2-1c0-0.7-0.7-1-1.3-1h-0.4V2.2H78c0.5,0,1.2-0.3,1.2-0.9
		c0-0.4-0.3-0.8-0.9-0.8c-0.4,0-0.8,0.2-1,0.3L77,0.4C77.3,0.2,77.8,0,78.4,0c1,0,1.5,0.6,1.5,1.2c0,0.5-0.3,1-1,1.2v0
		c0.6,0.1,1.2,0.6,1.2,1.3c0,0.8-0.6,1.6-1.9,1.6c-0.6,0-1.1-0.2-1.3-0.4L77,4.5z"/>
	<path class="st0" d="M116.7,0.7h-2L114.5,2c0.1,0,0.2,0,0.4,0c0.4,0,0.8,0.1,1.1,0.3c0.4,0.2,0.7,0.7,0.7,1.3c0,1-0.8,1.8-1.9,1.8
		c-0.6,0-1-0.2-1.3-0.3l0.2-0.5c0.2,0.1,0.6,0.3,1.1,0.3c0.7,0,1.2-0.4,1.2-1.1c0-0.7-0.5-1.2-1.5-1.2c-0.3,0-0.5,0-0.7,0.1l0.3-2.5
		h2.5V0.7z"/>
	<path class="st0" d="M152.6,4c0-0.7,0.4-1.1,1-1.4l0,0c-0.6-0.3-0.8-0.7-0.8-1.2c0-0.8,0.7-1.4,1.6-1.4c1,0,1.5,0.6,1.5,1.3
		c0,0.4-0.2,0.9-0.8,1.2v0c0.6,0.3,1,0.7,1,1.3c0,0.9-0.8,1.5-1.8,1.5C153.2,5.4,152.6,4.7,152.6,4z M155.3,3.9
		c0-0.6-0.4-0.9-1.1-1.1c-0.6,0.2-0.9,0.6-0.9,1.1c0,0.5,0.4,1,1,1C154.9,4.9,155.3,4.5,155.3,3.9z M153.4,1.3c0,0.5,0.4,0.8,1,1
		c0.4-0.2,0.8-0.5,0.8-0.9c0-0.4-0.2-0.8-0.9-0.8C153.7,0.5,153.4,0.9,153.4,1.3z"/>
	<path class="st0" d="M190.3,0.7L190.3,0.7l-0.9,0.5l-0.1-0.5l1.1-0.6h0.6v5.2h-0.7V0.7z"/>
	<path class="st0" d="M195.5,2.6c0,1.8-0.7,2.7-1.8,2.7c-1,0-1.7-1-1.7-2.7c0-1.7,0.7-2.7,1.8-2.7C194.9,0,195.5,1,195.5,2.6z
		 M192.7,2.7c0,1.4,0.4,2.1,1,2.1c0.7,0,1.1-0.8,1.1-2.2c0-1.3-0.3-2.1-1-2.1C193.2,0.5,192.7,1.3,192.7,2.7z"/>
	<path class="st0" d="M227.6,0.7L227.6,0.7l-0.9,0.5l-0.1-0.5l1.1-0.6h0.6v5.2h-0.7V0.7z"/>
	<path class="st0" d="M229.5,4.5c0.2,0.1,0.7,0.3,1.1,0.3c0.9,0,1.2-0.6,1.2-1c0-0.7-0.7-1-1.3-1h-0.4V2.2h0.4
		c0.5,0,1.2-0.3,1.2-0.9c0-0.4-0.3-0.8-0.9-0.8c-0.4,0-0.8,0.2-1,0.3l-0.2-0.5c0.3-0.2,0.8-0.4,1.3-0.4c1,0,1.5,0.6,1.5,1.2
		c0,0.5-0.3,1-1,1.2v0c0.6,0.1,1.2,0.6,1.2,1.3c0,0.8-0.6,1.6-1.9,1.6c-0.6,0-1.1-0.2-1.3-0.4L229.5,4.5z"/>
	<path class="st0" d="M266.1,0.7L266.1,0.7l-0.9,0.5L265,0.7l1.1-0.6h0.6v5.2h-0.7V0.7z"/>
	<path class="st0" d="M270.9,0.7h-2L268.8,2c0.1,0,0.2,0,0.4,0c0.4,0,0.8,0.1,1.1,0.3c0.4,0.2,0.7,0.7,0.7,1.3c0,1-0.8,1.8-1.9,1.8
		c-0.6,0-1-0.2-1.3-0.3l0.2-0.5c0.2,0.1,0.6,0.3,1.1,0.3c0.7,0,1.2-0.4,1.2-1.1c0-0.7-0.5-1.2-1.5-1.2c-0.3,0-0.5,0-0.7,0.1l0.3-2.5
		h2.5V0.7z"/>
	<path class="st0" d="M303.3,0.7L303.3,0.7l-0.9,0.5l-0.1-0.5l1.1-0.6h0.6v5.2h-0.7V0.7z"/>
	<path class="st0" d="M308.4,0.1v0.5l-2.2,4.7h-0.7l2.2-4.6v0h-2.5V0.1H308.4z"/>
	<path class="st0" d="M337.5,5.3V4.9l0.5-0.5c1.3-1.3,1.9-1.9,1.9-2.7c0-0.5-0.3-1-1-1c-0.5,0-0.9,0.2-1.1,0.4l-0.2-0.5
		c0.4-0.3,0.9-0.5,1.5-0.5c1.1,0,1.6,0.8,1.6,1.5c0,1-0.7,1.7-1.8,2.8l-0.4,0.4v0h2.3v0.6H337.5z"/>
	<path class="st0" d="M344.2,2.6c0,1.8-0.7,2.7-1.8,2.7c-1,0-1.7-1-1.7-2.7c0-1.7,0.7-2.7,1.8-2.7C343.6,0,344.2,1,344.2,2.6z
		 M341.4,2.7c0,1.4,0.4,2.1,1,2.1c0.7,0,1.1-0.8,1.1-2.2c0-1.3-0.3-2.1-1-2.1C341.8,0.5,341.4,1.3,341.4,2.7z"/>
</g>
</svg>
