<!-- Generator: Adobe Illustrator 20.1.0, SVG Export Plug-In  -->
<svg version="1.1"
	 xmlns="http://www.w3.org/2000/svg" xmlns:xlink="http://www.w3.org/1999/xlink" xmlns:a="http://ns.adobe.com/AdobeSVGViewerExtensions/3.0/"
	 x="0px" y="0px" width="334.2px" height="63.7px" viewBox="0 0 334.2 63.7"
	 style="overflow:scroll;enable-background:new 0 0 334.2 63.7;" xml:space="preserve">
<style type="text/css">
	.st0{fill:#FFFFFF;}
</style>
<defs>
</defs>
<g>
	<g>
		<g>
			<g>
				<g>
					<path class="st0" d="M18.7,11.6H0V0h51.2v11.6H32.5v50.9H18.7V11.6z"/>
				</g>
				<g>
					<path class="st0" d="M54.6,42.9c0.4,7.9,4.2,11.5,11.1,11.5c5,0,9-3.1,9.8-5.9h10.9c-3.5,10.7-10.9,15.2-21.2,15.2
						c-14.3,0-23.1-9.8-23.1-23.8c0-13.6,9.4-23.9,23.1-23.9c15.4,0,22.8,13,22,26.9H54.6z M74.8,35c-1.1-6.3-3.9-9.6-9.9-9.6
						c-7.9,0-10.2,6.1-10.3,9.6H74.8z"/>
					<path class="st0" d="M91.7,0h12.4v22.7h0.2c3.1-4.6,8.7-6.7,14.3-6.7c9,0,18.7,7.3,18.7,23.8c0,16.6-9.7,23.9-18.7,23.9
						c-6.6,0-12.2-2-14.9-7h-0.2v5.8H91.7V0z M114.3,25.4c-7.3,0-10.6,6.9-10.6,14.5c0,7.5,3.2,14.4,10.6,14.4
						c7.4,0,10.6-6.9,10.6-14.4C124.9,32.3,121.7,25.4,114.3,25.4z"/>
					<path class="st0" d="M164.3,16c14.3,0,23.4,9.5,23.4,23.9c0,14.3-9.2,23.8-23.4,23.8c-14.2,0-23.4-9.4-23.4-23.8
						C141,25.5,150.2,16,164.3,16z M164.3,54.3c8.5,0,11-7.3,11-14.4c0-7.3-2.5-14.5-11-14.5c-8.4,0-10.9,7.3-10.9,14.5
						C153.4,47.1,155.9,54.3,164.3,54.3z"/>
					<path class="st0" d="M193.7,17.2h11.8v6.3h0.3c3.2-5.1,8.6-7.5,13.8-7.5c13.2,0,16.5,7.4,16.5,18.6v27.8h-12.4V36.9
						c0-7.4-2.2-11.1-8-11.1c-6.7,0-9.6,3.8-9.6,12.9v23.7h-12.4V17.2z"/>
					<path class="st0" d="M255.2,10.2h-12.4V0h12.4V10.2z M242.8,17.2h12.4v45.2h-12.4V17.2z"/>
				</g>
				<g>
					<path class="st0" d="M261,17.2h11.8v6.3h0.3c3.1-5.1,8.6-7.5,13.8-7.5c13.2,0,16.5,7.4,16.5,18.6v27.8H291V36.9
						c0-7.4-2.2-11.1-8-11.1c-6.7,0-9.6,3.8-9.6,12.9v23.7H261V17.2z"/>
				</g>
				<g>
					<path class="st0" d="M321.1,5.8c6.9,0,13.1,5,13.1,12.7c0,7.8-6.2,12.8-13.1,12.8c-6.9,0-13.1-5-13.1-12.8
						C308,10.8,314.1,5.8,321.1,5.8z M321.1,28.7c5.3,0,9.6-4.2,9.6-10.1c0-5.8-4.3-10-9.6-10c-5.4,0-9.6,4.2-9.6,10
						C311.4,24.4,315.7,28.7,321.1,28.7z M316,11.4h5.4c3.6,0,5.6,1.1,5.6,4.2c0,2.6-1.6,3.7-3.8,3.8l3.8,6.3h-3l-3.5-6.1h-1.8v6.1
						H316V11.4z M318.8,17.4h2.5c1.6,0,2.8-0.2,2.8-2c0-1.5-1.6-1.8-2.9-1.8h-2.4V17.4z"/>
				</g>
			</g>
		</g>
	</g>
</g>
</svg>
