<!-- Generator: Adobe Illustrator 20.1.0, SVG Export Plug-In  -->
<svg version="1.1"
	 xmlns="http://www.w3.org/2000/svg" xmlns:xlink="http://www.w3.org/1999/xlink" xmlns:a="http://ns.adobe.com/AdobeSVGViewerExtensions/3.0/"
	 x="0px" y="0px" width="340.3px" height="43.3px" viewBox="0 0 340.3 43.3"
	 style="overflow:scroll;enable-background:new 0 0 340.3 43.3;" xml:space="preserve">
<style type="text/css">
	.st0{fill:#DA0962;}
</style>
<defs>
</defs>
<g>
	<path class="st0" d="M0,0.9c1-0.2,2.3-0.3,4.2-0.3c1.9,0,3.3,0.4,4.2,1.1c0.9,0.7,1.5,1.8,1.5,3.2c0,1.3-0.4,2.5-1.3,3.3
		C7.5,9.1,6,9.6,4.1,9.6c-0.4,0-0.8,0-1.1-0.1v4.9H0V0.9z M3.1,7.1c0.3,0.1,0.6,0.1,1,0.1c1.6,0,2.7-0.8,2.7-2.2c0-1.3-0.9-2-2.4-2
		C3.7,3,3.3,3,3.1,3.1V7.1z"/>
	<path class="st0" d="M11.7,7.8c0-1.5,0-2.4-0.1-3.3h2.7l0.1,1.8h0.1c0.5-1.4,1.7-2.1,2.7-2.1c0.3,0,0.4,0,0.6,0v2.9
		c-0.2,0-0.5-0.1-0.8-0.1c-1.1,0-1.9,0.6-2.1,1.6c0,0.2-0.1,0.4-0.1,0.7v5h-3.1V7.8z"/>
	<path class="st0" d="M29.2,9.3c0,3.6-2.6,5.3-5.2,5.3c-2.9,0-5.1-1.9-5.1-5.1s2.1-5.3,5.3-5.3C27.2,4.3,29.2,6.4,29.2,9.3z M22,9.4
		c0,1.7,0.7,3,2,3c1.2,0,2-1.2,2-3c0-1.5-0.6-3-2-3C22.6,6.5,22,8,22,9.4z"/>
	<path class="st0" d="M38.6,14.2c-0.5,0.2-1.6,0.4-2.8,0.4c-3.2,0-5.3-2-5.3-5.1c0-2.9,2-5.3,5.7-5.3c0.8,0,1.7,0.1,2.4,0.4
		l-0.5,2.3c-0.4-0.2-0.9-0.3-1.7-0.3c-1.6,0-2.7,1.2-2.7,2.8c0,1.8,1.2,2.8,2.7,2.8c0.7,0,1.3-0.1,1.8-0.3L38.6,14.2z"/>
	<path class="st0" d="M42.7,10.4c0.1,1.3,1.4,1.9,2.8,1.9c1.1,0,1.9-0.1,2.7-0.4l0.4,2.1c-1,0.4-2.3,0.6-3.6,0.6
		c-3.4,0-5.3-2-5.3-5.1c0-2.5,1.6-5.3,5-5.3c3.2,0,4.4,2.5,4.4,5c0,0.5-0.1,1-0.1,1.2H42.7z M46.3,8.3c0-0.8-0.3-2-1.7-2
		c-1.3,0-1.8,1.2-1.9,2H46.3z"/>
	<path class="st0" d="M60.7,0v11.5c0,1.1,0,2.3,0.1,3H58L57.9,13h0c-0.6,1.1-1.8,1.7-3.1,1.7c-2.4,0-4.2-2-4.2-5.1
		c0-3.4,2.1-5.3,4.4-5.3c1.2,0,2.2,0.4,2.6,1.1h0V0H60.7z M57.6,8.7c0-0.2,0-0.4,0-0.5c-0.2-0.8-0.9-1.5-1.8-1.5
		c-1.4,0-2.1,1.3-2.1,2.8c0,1.7,0.8,2.7,2.1,2.7c0.9,0,1.6-0.6,1.8-1.5c0.1-0.2,0.1-0.4,0.1-0.7V8.7z"/>
	<path class="st0" d="M66.3,1.7c0,0.9-0.7,1.5-1.7,1.5c-1,0-1.6-0.7-1.6-1.5c0-0.9,0.6-1.6,1.6-1.6S66.3,0.8,66.3,1.7z M63.1,14.4
		V4.5h3.1v9.9H63.1z"/>
	<path class="st0" d="M68.7,7.7c0-1.2,0-2.3-0.1-3.2h2.6l0.1,1.3h0.1c0.4-0.6,1.3-1.6,3-1.6c1.3,0,2.3,0.6,2.7,1.7h0
		C77.6,5.4,78,5,78.5,4.8c0.5-0.3,1.2-0.5,1.9-0.5c1.9,0,3.4,1.3,3.4,4.3v5.8h-3V9c0-1.4-0.5-2.3-1.5-2.3c-0.7,0-1.2,0.5-1.4,1.1
		c-0.1,0.2-0.1,0.5-0.1,0.8v5.8h-3V8.9c0-1.3-0.4-2.1-1.4-2.1c-0.8,0-1.3,0.6-1.4,1.1c-0.1,0.2-0.1,0.5-0.1,0.8v5.8h-3V7.7z"/>
	<path class="st0" d="M89.4,1.7c0,0.9-0.7,1.5-1.7,1.5c-1,0-1.6-0.7-1.6-1.5c0-0.9,0.6-1.6,1.6-1.6S89.3,0.8,89.4,1.7z M86.2,14.4
		V4.5h3.1v9.9H86.2z"/>
	<path class="st0" d="M94.1,10.4c0.1,1.3,1.4,1.9,2.8,1.9c1.1,0,1.9-0.1,2.7-0.4l0.4,2.1c-1,0.4-2.3,0.6-3.6,0.6
		c-3.4,0-5.3-2-5.3-5.1c0-2.5,1.6-5.3,5-5.3c3.2,0,4.4,2.5,4.4,5c0,0.5-0.1,1-0.1,1.2H94.1z M97.8,8.3c0-0.8-0.3-2-1.7-2
		c-1.3,0-1.8,1.2-1.9,2H97.8z"/>
	<path class="st0" d="M102.5,7.7c0-1.2,0-2.3-0.1-3.2h2.7l0.1,1.4h0.1c0.4-0.6,1.4-1.6,3.1-1.6c2,0,3.6,1.3,3.6,4.3v5.9h-3.1V8.9
		c0-1.3-0.4-2.2-1.6-2.2c-0.9,0-1.4,0.6-1.6,1.2c-0.1,0.2-0.1,0.5-0.1,0.8v5.7h-3.1V7.7z"/>
	<path class="st0" d="M117.8,1.6v2.8h2.2v2.3h-2.2v3.6c0,1.2,0.3,1.7,1.2,1.7c0.4,0,0.7,0,0.9-0.1l0,2.3c-0.4,0.2-1.1,0.3-2,0.3
		c-1,0-1.8-0.3-2.3-0.9c-0.6-0.6-0.9-1.5-0.9-2.9V6.8h-1.3V4.5h1.3V2.3L117.8,1.6z"/>
	<path class="st0" d="M131.6,9.3c0,3.6-2.6,5.3-5.2,5.3c-2.9,0-5.1-1.9-5.1-5.1s2.1-5.3,5.3-5.3C129.6,4.3,131.6,6.4,131.6,9.3z
		 M124.5,9.4c0,1.7,0.7,3,2,3c1.2,0,2-1.2,2-3c0-1.5-0.6-3-2-3C125,6.5,124.5,8,124.5,9.4z"/>
	<path class="st0" d="M140,10.4c0.1,1.3,1.4,1.9,2.8,1.9c1.1,0,1.9-0.1,2.7-0.4L146,14c-1,0.4-2.3,0.6-3.6,0.6c-3.4,0-5.3-2-5.3-5.1
		c0-2.5,1.6-5.3,5-5.3c3.2,0,4.4,2.5,4.4,5c0,0.5-0.1,1-0.1,1.2H140z M143.7,8.3c0-0.8-0.3-2-1.7-2c-1.3,0-1.8,1.2-1.9,2H143.7z"/>
	<path class="st0" d="M148.4,11.7c0.6,0.3,1.7,0.8,2.7,0.8c0.9,0,1.3-0.3,1.3-0.8s-0.3-0.8-1.5-1.1c-2.1-0.7-2.8-1.8-2.8-3
		c0-1.8,1.6-3.2,4-3.2c1.2,0,2.2,0.3,2.8,0.6L154.4,7c-0.4-0.2-1.3-0.6-2.2-0.6c-0.8,0-1.2,0.3-1.2,0.8c0,0.5,0.4,0.7,1.6,1.1
		c1.9,0.6,2.7,1.6,2.7,3.1c0,1.8-1.5,3.2-4.3,3.2c-1.3,0-2.5-0.3-3.2-0.7L148.4,11.7z"/>
	<path class="st0" d="M157.2,7.8c0-1.3,0-2.4-0.1-3.3h2.7l0.1,1.4h0c0.7-1.1,1.9-1.6,3.3-1.6c2.2,0,4.1,1.9,4.1,5.1
		c0,3.6-2.3,5.3-4.5,5.3c-1.2,0-2.1-0.5-2.6-1.1h0v4.9h-3.1V7.8z M160.3,10.2c0,0.2,0,0.5,0.1,0.6c0.2,0.8,0.9,1.5,1.8,1.5
		c1.3,0,2.1-1.1,2.1-2.8c0-1.6-0.7-2.8-2.1-2.8c-0.9,0-1.6,0.7-1.8,1.6c0,0.2-0.1,0.4-0.1,0.5V10.2z"/>
	<path class="st0" d="M171.7,10.4c0.1,1.3,1.4,1.9,2.8,1.9c1.1,0,1.9-0.1,2.7-0.4l0.4,2.1c-1,0.4-2.3,0.6-3.6,0.6
		c-3.4,0-5.3-2-5.3-5.1c0-2.5,1.6-5.3,5-5.3c3.2,0,4.4,2.5,4.4,5c0,0.5-0.1,1-0.1,1.2H171.7z M175.4,8.3c0-0.8-0.3-2-1.7-2
		c-1.3,0-1.8,1.2-1.9,2H175.4z"/>
	<path class="st0" d="M187.5,14.2c-0.5,0.2-1.6,0.4-2.8,0.4c-3.2,0-5.3-2-5.3-5.1c0-2.9,2-5.3,5.7-5.3c0.8,0,1.7,0.1,2.4,0.4
		l-0.5,2.3c-0.4-0.2-0.9-0.3-1.7-0.3c-1.6,0-2.7,1.2-2.7,2.8c0,1.8,1.2,2.8,2.7,2.8c0.7,0,1.3-0.1,1.8-0.3L187.5,14.2z"/>
	<path class="st0" d="M192.4,1.7c0,0.9-0.7,1.5-1.7,1.5c-1,0-1.6-0.7-1.6-1.5c0-0.9,0.6-1.6,1.6-1.6S192.4,0.8,192.4,1.7z
		 M189.2,14.4V4.5h3.1v9.9H189.2z"/>
	<path class="st0" d="M200.4,14.4l-0.2-1h-0.1c-0.7,0.8-1.7,1.2-2.8,1.2c-2,0-3.2-1.5-3.2-3c0-2.6,2.3-3.8,5.8-3.8V7.7
		c0-0.5-0.3-1.3-1.8-1.3c-1,0-2.1,0.3-2.7,0.8l-0.6-2c0.7-0.4,2.1-0.9,3.9-0.9c3.3,0,4.4,1.9,4.4,4.3V12c0,1,0,1.9,0.1,2.4H200.4z
		 M200.1,9.7c-1.6,0-2.9,0.4-2.9,1.6c0,0.8,0.5,1.2,1.2,1.2c0.8,0,1.4-0.5,1.6-1.1c0-0.2,0.1-0.3,0.1-0.5V9.7z"/>
	<path class="st0" d="M205.5,0h3.1v14.4h-3.1V0z"/>
	<path class="st0" d="M224.8,0v11.5c0,1.1,0,2.3,0.1,3h-2.7L222,13h0c-0.6,1.1-1.8,1.7-3.1,1.7c-2.4,0-4.2-2-4.2-5.1
		c0-3.4,2.1-5.3,4.4-5.3c1.2,0,2.2,0.4,2.6,1.1h0V0H224.8z M221.8,8.7c0-0.2,0-0.4,0-0.5c-0.2-0.8-0.9-1.5-1.8-1.5
		c-1.4,0-2.1,1.3-2.1,2.8c0,1.7,0.8,2.7,2.1,2.7c0.9,0,1.6-0.6,1.8-1.5c0.1-0.2,0.1-0.4,0.1-0.7V8.7z"/>
	<path class="st0" d="M229.7,10.4c0.1,1.3,1.4,1.9,2.8,1.9c1.1,0,1.9-0.1,2.7-0.4l0.4,2.1c-1,0.4-2.3,0.6-3.6,0.6
		c-3.4,0-5.3-2-5.3-5.1c0-2.5,1.6-5.3,5-5.3c3.2,0,4.4,2.5,4.4,5c0,0.5-0.1,1-0.1,1.2H229.7z M233.3,8.3c0-0.8-0.3-2-1.7-2
		c-1.3,0-1.8,1.2-1.9,2H233.3z"/>
	<path class="st0" d="M244.5,10.4c0.1,1.3,1.4,1.9,2.8,1.9c1.1,0,1.9-0.1,2.7-0.4l0.4,2.1c-1,0.4-2.3,0.6-3.6,0.6
		c-3.4,0-5.3-2-5.3-5.1c0-2.5,1.6-5.3,5-5.3c3.2,0,4.4,2.5,4.4,5c0,0.5-0.1,1-0.1,1.2H244.5z M248.2,8.3c0-0.8-0.3-2-1.7-2
		c-1.3,0-1.8,1.2-1.9,2H248.2z"/>
	<path class="st0" d="M255.2,4.5l1,1.6c0.3,0.5,0.5,1,0.8,1.5h0c0.3-0.5,0.5-1,0.8-1.5l0.9-1.6h3.4l-3.3,4.7l3.3,5.2h-3.5l-1-1.8
		c-0.3-0.5-0.5-1-0.8-1.5h-0.1c-0.2,0.5-0.5,1-0.8,1.5l-0.9,1.8h-3.4l3.4-5.1l-3.3-4.9H255.2z"/>
	<path class="st0" d="M266.9,1.6v2.8h2.2v2.3h-2.2v3.6c0,1.2,0.3,1.7,1.2,1.7c0.4,0,0.7,0,0.9-0.1l0,2.3c-0.4,0.2-1.1,0.3-2,0.3
		c-1,0-1.8-0.3-2.3-0.9c-0.6-0.6-0.9-1.5-0.9-2.9V6.8h-1.3V4.5h1.3V2.3L266.9,1.6z"/>
	<path class="st0" d="M270.9,7.8c0-1.5,0-2.4-0.1-3.3h2.7l0.1,1.8h0.1c0.5-1.4,1.7-2.1,2.7-2.1c0.3,0,0.4,0,0.7,0v2.9
		c-0.2,0-0.5-0.1-0.8-0.1c-1.1,0-1.9,0.6-2.1,1.6c0,0.2-0.1,0.4-0.1,0.7v5h-3.1V7.8z"/>
	<path class="st0" d="M284.3,14.4l-0.2-1H284c-0.7,0.8-1.7,1.2-2.8,1.2c-2,0-3.2-1.5-3.2-3c0-2.6,2.3-3.8,5.8-3.8V7.7
		c0-0.5-0.3-1.3-1.8-1.3c-1,0-2.1,0.3-2.7,0.8l-0.6-2c0.7-0.4,2.1-0.9,3.9-0.9c3.3,0,4.4,1.9,4.4,4.3V12c0,1,0,1.9,0.1,2.4H284.3z
		 M283.9,9.7c-1.6,0-2.9,0.4-2.9,1.6c0,0.8,0.5,1.2,1.2,1.2c0.8,0,1.4-0.5,1.6-1.1c0-0.2,0.1-0.3,0.1-0.5V9.7z"/>
	<path class="st0" d="M296.8,14.2c-0.5,0.2-1.6,0.4-2.8,0.4c-3.2,0-5.3-2-5.3-5.1c0-2.9,2-5.3,5.7-5.3c0.8,0,1.7,0.1,2.4,0.4
		l-0.5,2.3c-0.4-0.2-0.9-0.3-1.7-0.3c-1.6,0-2.7,1.2-2.7,2.8c0,1.8,1.2,2.8,2.7,2.8c0.7,0,1.3-0.1,1.8-0.3L296.8,14.2z"/>
	<path class="st0" d="M305.9,14.2c-0.5,0.2-1.6,0.4-2.8,0.4c-3.2,0-5.3-2-5.3-5.1c0-2.9,2-5.3,5.7-5.3c0.8,0,1.7,0.1,2.4,0.4
		l-0.5,2.3c-0.4-0.2-0.9-0.3-1.7-0.3c-1.6,0-2.7,1.2-2.7,2.8c0,1.8,1.2,2.8,2.7,2.8c0.7,0,1.3-0.1,1.8-0.3L305.9,14.2z"/>
	<path class="st0" d="M310.8,1.7c0,0.9-0.7,1.5-1.7,1.5c-1,0-1.6-0.7-1.6-1.5c0-0.9,0.6-1.6,1.6-1.6S310.8,0.8,310.8,1.7z
		 M307.7,14.4V4.5h3.1v9.9H307.7z"/>
	<path class="st0" d="M323,9.3c0,3.6-2.6,5.3-5.2,5.3c-2.9,0-5.1-1.9-5.1-5.1s2.1-5.3,5.3-5.3C321,4.3,323,6.4,323,9.3z M315.8,9.4
		c0,1.7,0.7,3,2,3c1.2,0,2-1.2,2-3c0-1.5-0.6-3-2-3C316.4,6.5,315.8,8,315.8,9.4z M321.1,0.2l-2.5,3.1h-2.1l1.7-3.1H321.1z"/>
	<path class="st0" d="M324.9,7.7c0-1.2,0-2.3-0.1-3.2h2.7l0.1,1.4h0.1c0.4-0.6,1.4-1.6,3.1-1.6c2,0,3.6,1.3,3.6,4.3v5.9h-3.1V8.9
		c0-1.3-0.4-2.2-1.6-2.2c-0.9,0-1.4,0.6-1.6,1.2c-0.1,0.2-0.1,0.5-0.1,0.8v5.7h-3.1V7.7z"/>
	<path class="st0" d="M335.7,16.8c0.6-1.8,1.2-3.9,1.5-5.8l3.1-0.2c-0.7,2.1-1.6,4.2-2.6,5.8L335.7,16.8z"/>
	<path class="st0" d="M29.2,32.2c0-1.3,0-2.4-0.1-3.3h2.7l0.1,1.4h0c0.7-1.1,1.9-1.6,3.3-1.6c2.2,0,4.1,1.9,4.1,5.1
		c0,3.6-2.3,5.3-4.5,5.3c-1.2,0-2.1-0.5-2.6-1.1h0v4.9h-3.1V32.2z M32.3,34.5c0,0.2,0,0.5,0.1,0.6c0.2,0.8,0.9,1.5,1.8,1.5
		c1.3,0,2.1-1.1,2.1-2.8c0-1.6-0.7-2.8-2.1-2.8c-0.9,0-1.6,0.7-1.8,1.6c0,0.2-0.1,0.4-0.1,0.5V34.5z"/>
	<path class="st0" d="M47,38.8l-0.2-1h-0.1c-0.7,0.8-1.7,1.2-2.8,1.2c-2,0-3.2-1.5-3.2-3c0-2.6,2.3-3.8,5.8-3.8V32
		c0-0.5-0.3-1.3-1.8-1.3c-1,0-2.1,0.3-2.7,0.8l-0.6-2c0.7-0.4,2.1-0.9,3.9-0.9c3.3,0,4.4,1.9,4.4,4.3v3.5c0,1,0,1.9,0.1,2.4H47z
		 M46.7,34.1c-1.6,0-2.9,0.4-2.9,1.6c0,0.8,0.5,1.2,1.2,1.2c0.8,0,1.4-0.5,1.6-1.1c0-0.2,0.1-0.3,0.1-0.5V34.1z"/>
	<path class="st0" d="M55.6,26v2.8h2.2v2.3h-2.2v3.6c0,1.2,0.3,1.7,1.2,1.7c0.4,0,0.7,0,0.9-0.1l0,2.3c-0.4,0.2-1.1,0.3-2,0.3
		c-1,0-1.8-0.3-2.3-0.9c-0.6-0.6-0.9-1.5-0.9-2.9v-4.1h-1.3v-2.3h1.3v-2.2L55.6,26z"/>
	<path class="st0" d="M61.9,34.8c0.1,1.3,1.4,1.9,2.8,1.9c1.1,0,1.9-0.1,2.7-0.4l0.4,2.1c-1,0.4-2.3,0.6-3.6,0.6
		c-3.4,0-5.3-2-5.3-5.1c0-2.5,1.6-5.3,5-5.3c3.2,0,4.4,2.5,4.4,5c0,0.5-0.1,1-0.1,1.2H61.9z M65.6,32.7c0-0.8-0.3-2-1.7-2
		c-1.3,0-1.8,1.2-1.9,2H65.6z"/>
	<path class="st0" d="M70.3,32c0-1.2,0-2.3-0.1-3.2h2.7l0.1,1.4h0.1c0.4-0.6,1.4-1.6,3.1-1.6c2,0,3.6,1.3,3.6,4.3v5.9h-3.1v-5.5
		c0-1.3-0.4-2.2-1.6-2.2c-0.9,0-1.4,0.6-1.6,1.2c-0.1,0.2-0.1,0.5-0.1,0.8v5.7h-3.1V32z"/>
	<path class="st0" d="M85.6,26v2.8h2.2v2.3h-2.2v3.6c0,1.2,0.3,1.7,1.2,1.7c0.4,0,0.7,0,0.9-0.1l0,2.3c-0.4,0.2-1.1,0.3-2,0.3
		c-1,0-1.8-0.3-2.3-0.9c-0.6-0.6-0.9-1.5-0.9-2.9v-4.1h-1.3v-2.3h1.3v-2.2L85.6,26z"/>
	<path class="st0" d="M95.3,38.8l-0.2-1H95c-0.7,0.8-1.7,1.2-2.8,1.2c-2,0-3.2-1.5-3.2-3c0-2.6,2.3-3.8,5.8-3.8V32
		c0-0.5-0.3-1.3-1.8-1.3c-1,0-2.1,0.3-2.7,0.8l-0.6-2c0.7-0.4,2.1-0.9,3.9-0.9c3.3,0,4.4,1.9,4.4,4.3v3.5c0,1,0,1.9,0.1,2.4H95.3z
		 M94.9,34.1c-1.6,0-2.9,0.4-2.9,1.6c0,0.8,0.5,1.2,1.2,1.2c0.8,0,1.4-0.5,1.6-1.1c0-0.2,0.1-0.3,0.1-0.5V34.1z"/>
	<path class="st0" d="M110,24.4v11.5c0,1.1,0,2.3,0.1,3h-2.7l-0.1-1.5h0c-0.6,1.1-1.8,1.7-3.1,1.7c-2.4,0-4.2-2-4.2-5.1
		c0-3.4,2.1-5.3,4.4-5.3c1.2,0,2.2,0.4,2.6,1.1h0v-5.4H110z M106.9,33.1c0-0.2,0-0.4,0-0.5c-0.2-0.8-0.9-1.5-1.8-1.5
		c-1.4,0-2.1,1.3-2.1,2.8c0,1.7,0.8,2.7,2.1,2.7c0.9,0,1.6-0.6,1.8-1.5c0.1-0.2,0.1-0.4,0.1-0.7V33.1z"/>
	<path class="st0" d="M122.3,33.7c0,3.6-2.6,5.3-5.2,5.3c-2.9,0-5.1-1.9-5.1-5.1s2.1-5.3,5.3-5.3C120.3,28.6,122.3,30.7,122.3,33.7z
		 M115.1,33.8c0,1.7,0.7,3,2,3c1.2,0,2-1.2,2-3c0-1.5-0.6-3-2-3C115.6,30.8,115.1,32.4,115.1,33.8z"/>
	<path class="st0" d="M130.6,28.9l1.5,4.9c0.2,0.6,0.4,1.3,0.5,1.8h0.1c0.1-0.5,0.3-1.3,0.4-1.8l1.2-4.9h3.3l-2.3,6.5
		c-1.4,3.9-2.4,5.5-3.5,6.5c-1.1,0.9-2.2,1.3-3,1.4l-0.6-2.6c0.4-0.1,0.9-0.2,1.3-0.5c0.5-0.2,1-0.7,1.3-1.2
		c0.1-0.1,0.2-0.3,0.2-0.4c0-0.1,0-0.3-0.1-0.5l-3.6-9.1H130.6z"/>
	<path class="st0" d="M152.7,24.4v11.5c0,1.1,0,2.3,0.1,3H150l-0.1-1.5h0c-0.6,1.1-1.8,1.7-3.1,1.7c-2.4,0-4.2-2-4.2-5.1
		c0-3.4,2.1-5.3,4.4-5.3c1.2,0,2.2,0.4,2.6,1.1h0v-5.4H152.7z M149.6,33.1c0-0.2,0-0.4,0-0.5c-0.2-0.8-0.9-1.5-1.8-1.5
		c-1.4,0-2.1,1.3-2.1,2.8c0,1.7,0.8,2.7,2.1,2.7c0.9,0,1.6-0.6,1.8-1.5c0.1-0.2,0.1-0.4,0.1-0.7V33.1z"/>
	<path class="st0" d="M157.5,34.8c0.1,1.3,1.4,1.9,2.8,1.9c1.1,0,1.9-0.1,2.7-0.4l0.4,2.1c-1,0.4-2.3,0.6-3.6,0.6
		c-3.4,0-5.3-2-5.3-5.1c0-2.5,1.6-5.3,5-5.3c3.2,0,4.4,2.5,4.4,5c0,0.5-0.1,1-0.1,1.2H157.5z M161.1,32.7c0-0.8-0.3-2-1.7-2
		c-1.3,0-1.8,1.2-1.9,2H161.1z"/>
	<path class="st0" d="M170,32c0-1.2,0-2.3-0.1-3.2h2.6l0.1,1.3h0.1c0.4-0.6,1.3-1.6,3-1.6c1.3,0,2.3,0.6,2.7,1.7h0
		c0.4-0.5,0.8-0.9,1.3-1.2c0.5-0.3,1.2-0.5,1.9-0.5c1.9,0,3.4,1.3,3.4,4.3v5.8h-3v-5.4c0-1.4-0.5-2.3-1.5-2.3
		c-0.7,0-1.2,0.5-1.4,1.1c-0.1,0.2-0.1,0.5-0.1,0.8v5.8h-3v-5.6c0-1.3-0.4-2.1-1.4-2.1c-0.8,0-1.3,0.6-1.4,1.1
		c-0.1,0.2-0.1,0.5-0.1,0.8v5.8h-3V32z"/>
	<path class="st0" d="M193.1,38.8l-0.2-1h-0.1c-0.7,0.8-1.7,1.2-2.8,1.2c-2,0-3.2-1.5-3.2-3c0-2.6,2.3-3.8,5.8-3.8V32
		c0-0.5-0.3-1.3-1.8-1.3c-1,0-2.1,0.3-2.7,0.8l-0.6-2c0.7-0.4,2.1-0.9,3.9-0.9c3.3,0,4.4,1.9,4.4,4.3v3.5c0,1,0,1.9,0.1,2.4H193.1z
		 M192.7,34.1c-1.6,0-2.9,0.4-2.9,1.6c0,0.8,0.5,1.2,1.2,1.2c0.8,0,1.4-0.5,1.6-1.1c0-0.2,0.1-0.3,0.1-0.5V34.1z M194.8,24.5
		l-2.5,3.1h-2.1l1.7-3.1H194.8z"/>
	<path class="st0" d="M198.1,36.1c0.6,0.3,1.7,0.8,2.7,0.8c0.9,0,1.3-0.3,1.3-0.8s-0.3-0.8-1.5-1.1c-2.1-0.7-2.8-1.8-2.8-3
		c0-1.8,1.6-3.2,4-3.2c1.2,0,2.2,0.3,2.8,0.6l-0.5,2.1c-0.4-0.2-1.3-0.6-2.2-0.6c-0.8,0-1.2,0.3-1.2,0.8c0,0.5,0.4,0.7,1.6,1.1
		c1.9,0.6,2.7,1.6,2.7,3.1c0,1.8-1.5,3.2-4.3,3.2c-1.3,0-2.5-0.3-3.2-0.7L198.1,36.1z"/>
	<path class="st0" d="M220.7,24.4v11.5c0,1.1,0,2.3,0.1,3h-2.7l-0.1-1.5h0c-0.6,1.1-1.8,1.7-3.1,1.7c-2.4,0-4.2-2-4.2-5.1
		c0-3.4,2.1-5.3,4.4-5.3c1.2,0,2.2,0.4,2.6,1.1h0v-5.4H220.7z M217.6,33.1c0-0.2,0-0.4,0-0.5c-0.2-0.8-0.9-1.5-1.8-1.5
		c-1.4,0-2.1,1.3-2.1,2.8c0,1.7,0.8,2.7,2.1,2.7c0.9,0,1.6-0.6,1.8-1.5c0.1-0.2,0.1-0.4,0.1-0.7V33.1z"/>
	<path class="st0" d="M225.6,34.8c0.1,1.3,1.4,1.9,2.8,1.9c1.1,0,1.9-0.1,2.7-0.4l0.4,2.1c-1,0.4-2.3,0.6-3.6,0.6
		c-3.4,0-5.3-2-5.3-5.1c0-2.5,1.6-5.3,5-5.3c3.2,0,4.4,2.5,4.4,5c0,0.5-0.1,1-0.1,1.2H225.6z M229.2,32.7c0-0.8-0.3-2-1.7-2
		c-1.3,0-1.8,1.2-1.9,2H229.2z"/>
	<path class="st0" d="M237.6,38.8v-1.9l1.7-1.5c2.9-2.6,4.3-4.1,4.3-5.6c0-1.1-0.6-1.9-2.2-1.9c-1.1,0-2.1,0.6-2.8,1.1l-0.9-2.2
		c1-0.8,2.5-1.4,4.3-1.4c3,0,4.6,1.7,4.6,4.1c0,2.2-1.6,4-3.5,5.7l-1.2,1v0h5v2.5H237.6z"/>
	<path class="st0" d="M257.7,28.1h-5.1l-0.3,2c0.3,0,0.5,0,0.9,0c1.3,0,2.5,0.3,3.5,1c1,0.7,1.6,1.8,1.6,3.3c0,2.5-2.1,4.6-5.7,4.6
		c-1.6,0-2.9-0.4-3.7-0.8l0.5-2.3c0.6,0.3,1.8,0.7,3,0.7c1.3,0,2.6-0.6,2.6-2c0-1.4-1.1-2.2-3.7-2.2c-0.7,0-1.2,0-1.8,0.1l0.9-6.9
		h7.3V28.1z"/>
	<path class="st0" d="M264.7,32.2c0-1.3,0-2.4-0.1-3.3h2.7l0.1,1.4h0c0.7-1.1,1.9-1.6,3.3-1.6c2.2,0,4.1,1.9,4.1,5.1
		c0,3.6-2.3,5.3-4.5,5.3c-1.2,0-2.1-0.5-2.6-1.1h0v4.9h-3.1V32.2z M267.8,34.5c0,0.2,0,0.5,0.1,0.6c0.2,0.8,0.9,1.5,1.8,1.5
		c1.3,0,2.1-1.1,2.1-2.8c0-1.6-0.7-2.8-2.1-2.8c-0.9,0-1.6,0.7-1.8,1.6c0,0.2-0.1,0.4-0.1,0.5V34.5z"/>
	<path class="st0" d="M282.5,38.8l-0.2-1h-0.1c-0.7,0.8-1.7,1.2-2.8,1.2c-2,0-3.2-1.5-3.2-3c0-2.6,2.3-3.8,5.8-3.8V32
		c0-0.5-0.3-1.3-1.8-1.3c-1,0-2.1,0.3-2.7,0.8l-0.6-2c0.7-0.4,2.1-0.9,3.9-0.9c3.3,0,4.4,1.9,4.4,4.3v3.5c0,1,0,1.9,0.1,2.4H282.5z
		 M282.1,34.1c-1.6,0-2.9,0.4-2.9,1.6c0,0.8,0.5,1.2,1.2,1.2c0.8,0,1.4-0.5,1.6-1.1c0-0.2,0.1-0.3,0.1-0.5V34.1z"/>
	<path class="st0" d="M287.5,36.1c0.6,0.3,1.7,0.8,2.7,0.8c0.9,0,1.3-0.3,1.3-0.8s-0.3-0.8-1.5-1.1c-2.1-0.7-2.8-1.8-2.8-3
		c0-1.8,1.6-3.2,4-3.2c1.2,0,2.2,0.3,2.8,0.6l-0.5,2.1c-0.4-0.2-1.3-0.6-2.2-0.6c-0.8,0-1.2,0.3-1.2,0.8c0,0.5,0.4,0.7,1.6,1.1
		c1.9,0.6,2.7,1.6,2.7,3.1c0,1.8-1.5,3.2-4.3,3.2c-1.3,0-2.5-0.3-3.2-0.7L287.5,36.1z"/>
	<path class="st0" d="M306.2,33.7c0,3.6-2.6,5.3-5.2,5.3c-2.9,0-5.1-1.9-5.1-5.1s2.1-5.3,5.3-5.3C304.1,28.6,306.2,30.7,306.2,33.7z
		 M299,33.8c0,1.7,0.7,3,2,3c1.2,0,2-1.2,2-3c0-1.5-0.6-3-2-3C299.5,30.8,299,32.4,299,33.8z"/>
	<path class="st0" d="M308.1,36.1c0.6,0.3,1.7,0.8,2.7,0.8c0.9,0,1.3-0.3,1.3-0.8s-0.3-0.8-1.5-1.1c-2.1-0.7-2.8-1.8-2.8-3
		c0-1.8,1.6-3.2,4-3.2c1.2,0,2.2,0.3,2.8,0.6l-0.5,2.1c-0.4-0.2-1.3-0.6-2.2-0.6c-0.8,0-1.2,0.3-1.2,0.8c0,0.5,0.4,0.7,1.6,1.1
		c1.9,0.6,2.7,1.6,2.7,3.1c0,1.8-1.5,3.2-4.3,3.2c-1.3,0-2.5-0.3-3.2-0.7L308.1,36.1z"/>
</g>
</svg>
