<!-- Generator: Adobe Illustrator 20.1.0, SVG Export Plug-In  -->
<svg version="1.1"
	 xmlns="http://www.w3.org/2000/svg" xmlns:xlink="http://www.w3.org/1999/xlink" xmlns:a="http://ns.adobe.com/AdobeSVGViewerExtensions/3.0/"
	 x="0px" y="0px" width="7.9px" height="12.4px" viewBox="0 0 7.9 12.4"
	 style="overflow:scroll;enable-background:new 0 0 7.9 12.4;" xml:space="preserve">
<style type="text/css">
	.st0{fill:#5A2D81;}
</style>
<defs>
</defs>
<g>
	<g>
		<path class="st0" d="M0,6.9h6.2c0.6,0,1.2,0,1.6,0v1.5L7,8.4v0c0.6,0.3,0.9,1,0.9,1.7c0,1.3-1.1,2.3-2.8,2.3
			c-1.8,0-2.9-1.1-2.9-2.4c0-0.7,0.2-1.2,0.6-1.4v0H0V6.9z M4.7,8.6c-0.1,0-0.2,0-0.3,0C4,8.7,3.6,9.1,3.6,9.6
			c0,0.8,0.7,1.2,1.5,1.2c0.9,0,1.5-0.5,1.5-1.1c0-0.5-0.3-0.9-0.8-1c-0.1,0-0.2,0-0.4,0H4.7z"/>
		<path class="st0" d="M0.5,5.5C0.4,5.1,0.3,4.2,0.3,3.3c0-1,0.1-1.7,0.4-2.2C1,0.6,1.5,0.3,2.2,0.3c0.7,0,1.3,0.4,1.6,1.2h0
			C4,0.6,4.7,0,5.6,0c0.7,0,1.2,0.3,1.6,0.8c0.4,0.5,0.7,1.4,0.7,2.9c0,0.8-0.1,1.4-0.1,1.8H0.5z M3.3,3.8V3.3
			c0-0.9-0.4-1.4-0.9-1.4c-0.6,0-0.9,0.4-0.9,1.2c0,0.4,0,0.6,0,0.7H3.3z M6.6,3.8c0-0.2,0-0.4,0-0.6c0-0.8-0.3-1.4-1.1-1.4
			c-0.7,0-1,0.7-1,1.5v0.6H6.6z"/>
	</g>
</g>
</svg>
