<!-- Generator: Adobe Illustrator 20.1.0, SVG Export Plug-In  -->
<svg version="1.1"
	 xmlns="http://www.w3.org/2000/svg" xmlns:xlink="http://www.w3.org/1999/xlink" xmlns:a="http://ns.adobe.com/AdobeSVGViewerExtensions/3.0/"
	 x="0px" y="0px" width="29.5px" height="322.7px" viewBox="0 0 29.5 322.7"
	 style="overflow:scroll;enable-background:new 0 0 29.5 322.7;" xml:space="preserve">
<style type="text/css">
	.st0{fill:#DB5A84;}
	.st1{fill:#E2829D;}
	.st2{fill:#FFFFFF;}
</style>
<defs>
</defs>
<rect class="st0" width="14.8" height="322.7"/>
<rect x="14.7" class="st1" width="14.8" height="322.7"/>
<g>
	<path class="st2" d="M22.9,305.1v2.9h2.2v-3.3h1.1v4.7h-7.5v-4.5h1.1v3.1h1.9v-2.9H22.9z"/>
	<path class="st2" d="M25.8,296c0.2,0.5,0.4,1.5,0.4,2.5c0,1.3-0.3,2.3-1,3c-0.6,0.7-1.6,1.1-2.8,1.1c-2.4,0-3.9-1.7-3.9-4.3
		c0-1,0.2-1.7,0.4-2.1l1.1,0.3c-0.2,0.4-0.3,0.9-0.3,1.8c0,1.7,0.9,2.8,2.7,2.8c1.7,0,2.7-1.1,2.7-2.7c0-0.5-0.1-0.9-0.2-1.1h-1.9
		v1.4H22V296H25.8z"/>
	<path class="st2" d="M26.2,293.4c-0.4,0-1,0-1.5,0h-6.4V292h3.2v0c-0.5-0.3-0.9-1-0.9-1.8c0-1.4,1.1-2.3,2.7-2.3
		c1.9,0,2.9,1.3,2.9,2.5c0,0.7-0.3,1.4-0.9,1.8v0l0.8,0.1V293.4z M23.9,292c0.1,0,0.2,0,0.3,0c0.5-0.1,1-0.6,1-1.2
		c0-0.9-0.7-1.4-1.8-1.4c-1,0-1.7,0.5-1.7,1.4c0,0.6,0.4,1.1,1,1.2c0.1,0,0.2,0,0.4,0H23.9z"/>
	<path class="st2" d="M18.9,276.8h0.9l6.4,3.2v1.5l-6.1-3.1h0v3.5h-1.1V276.8z"/>
	<path class="st2" d="M19.9,270c0,0.2,0,0.4,0,0.7c0.2,1.6,1.1,2.3,2.1,2.5v0c-0.4-0.4-0.7-0.9-0.7-1.7c0-1.3,0.9-2.3,2.4-2.3
		c1.4,0,2.6,1,2.6,2.6c0,1.8-1.3,2.8-3.1,2.8c-1.4,0-2.5-0.5-3.2-1.3c-0.6-0.7-1-1.6-1.1-2.6c0-0.3,0-0.5,0-0.7L19.9,270z
		 M23.8,270.7c-0.8,0-1.4,0.5-1.4,1.3c0,0.5,0.3,1,0.7,1.2c0.1,0.1,0.2,0.1,0.4,0.1c1,0,1.7-0.5,1.7-1.4
		C25.3,271.1,24.7,270.7,23.8,270.7z"/>
	<path class="st2" d="M20.2,264.9L20.2,264.9l0.7,1.4l-1,0.2l-0.9-1.8v-1.2h7.2v1.4H20.2z"/>
	<path class="st2" d="M20.4,255.6c1.1,0,1.9,0.9,1.9,2c0,1.1-0.8,2-1.9,2c-1,0-1.9-0.9-1.9-2C18.6,256.5,19.4,255.6,20.4,255.6z
		 M20.4,259.1c0.8,0,1.4-0.6,1.4-1.4s-0.6-1.4-1.4-1.4c-0.8,0-1.4,0.6-1.4,1.4S19.6,259.1,20.4,259.1z M21.4,257.9v0.5h-1.8
		c0-0.1-0.1-0.4-0.1-0.8c0-0.4,0.1-0.6,0.1-0.7c0.1-0.1,0.2-0.2,0.4-0.2c0.2,0,0.3,0.2,0.4,0.4h0c0.1-0.2,0.2-0.3,0.5-0.4
		c0.3-0.1,0.4-0.1,0.4-0.1v0.6c-0.1,0.1-0.2,0.1-0.4,0.1c-0.2,0-0.3,0.1-0.3,0.3v0.2H21.4z M20.3,257.9v-0.2c0-0.2-0.1-0.4-0.2-0.4
		c-0.2,0-0.2,0.1-0.2,0.4c0,0.1,0,0.2,0,0.2H20.3z"/>
</g>
<g>
	<path class="st2" d="M12,306.6l-7.5,2.5v-1.5l3.4-1.1c0.9-0.3,1.8-0.5,2.7-0.8v0c-0.9-0.2-1.8-0.5-2.7-0.8l-3.4-1.1v-1.5L12,305
		V306.6z"/>
	<path class="st2" d="M2.8,295.8l1.3,1.4v1.1l-1.3-1V295.8z M8.7,295.6v2.9h2.2v-3.3H12v4.7H4.5v-4.5h1.1v3.1h1.9v-2.9H8.7z"/>
	<path class="st2" d="M4.6,292.4c-0.1-0.5-0.2-1.3-0.2-2.1c0-1.1,0.2-1.9,0.6-2.4c0.3-0.4,0.9-0.7,1.5-0.7c1,0,1.6,0.7,1.9,1.4h0
		c0.2-0.6,0.7-0.9,1.4-1.1c0.9-0.2,1.8-0.4,2.1-0.6v1.5c-0.2,0.1-0.8,0.3-1.8,0.5c-1,0.2-1.3,0.6-1.3,1.4v0.7H12v1.4H4.6z M7.9,291
		v-0.8c0-1-0.5-1.5-1.2-1.5c-0.8,0-1.2,0.6-1.2,1.5c0,0.4,0,0.7,0.1,0.9H7.9z"/>
	<path class="st2" d="M5.7,282.8v2.2H4.5v-5.8h1.1v2.2H12v1.4H5.7z"/>
	<path class="st2" d="M4.5,275.2H12v1.4H4.5V275.2z"/>
	<path class="st2" d="M11.7,265.8c0.2,0.5,0.4,1.5,0.4,2.5c0,1.3-0.3,2.3-1,3c-0.6,0.7-1.6,1.1-2.8,1.1c-2.4,0-3.9-1.7-3.9-4.3
		c0-1,0.2-1.7,0.4-2.1l1.1,0.3c-0.2,0.4-0.3,0.9-0.3,1.8c0,1.7,0.9,2.8,2.7,2.8c1.7,0,2.7-1.1,2.7-2.7c0-0.5-0.1-0.9-0.2-1.1H8.9
		v1.4H7.9v-2.7H11.7z"/>
	<path class="st2" d="M8.2,255.9c2.5,0,3.9,1.6,3.9,3.7c0,2.2-1.6,3.6-3.8,3.6c-2.3,0-3.9-1.5-3.9-3.7C4.4,257.3,6,255.9,8.2,255.9z
		 M8.3,261.7c1.5,0,2.7-0.8,2.7-2.1c0-1.4-1.2-2.1-2.8-2.1c-1.4,0-2.7,0.7-2.7,2.1C5.5,260.9,6.7,261.7,8.3,261.7z"/>
	<path class="st2" d="M8.6,246.7h0.9v2.9H8.6V246.7z"/>
	<path class="st2" d="M5.7,238.5v2.2H4.5v-5.8h1.1v2.2H12v1.4H5.7z"/>
	<path class="st2" d="M4.5,230.9H12v1.4H4.5V230.9z"/>
	<path class="st2" d="M12,227.7H4.5v-1.6l3.2-2c0.8-0.5,1.7-1,2.5-1.3v0c-1,0.1-2,0.1-3.1,0.1H4.5v-1.3H12v1.5l-3.3,2
		c-0.8,0.5-1.7,1-2.6,1.4l0,0c1-0.1,2-0.1,3.2-0.1H12V227.7z"/>
	<path class="st2" d="M12,218.4H4.5v-1.6l3.2-2c0.8-0.5,1.7-1,2.5-1.3v0c-1,0.1-2,0.1-3.1,0.1H4.5v-1.3H12v1.5l-3.3,2
		c-0.8,0.5-1.7,1-2.6,1.4l0,0c1-0.1,2-0.1,3.2-0.1H12V218.4z"/>
	<path class="st2" d="M4.5,207.6H12v1.4H4.5V207.6z"/>
	<path class="st2" d="M5.7,202.9v2.2H4.5v-5.8h1.1v2.2H12v1.4H5.7z"/>
	<path class="st2" d="M4.5,195.4h4.4c1.5,0,2.1-0.6,2.1-1.6c0-1-0.7-1.6-2.1-1.6H4.5v-1.4h4.3c2.3,0,3.3,1.2,3.3,3.1
		c0,1.8-1,2.9-3.3,2.9H4.5V195.4z"/>
	<path class="st2" d="M10.5,187.6c0.3-0.5,0.5-1.1,0.5-1.9c0-0.9-0.4-1.4-1-1.4c-0.6,0-0.9,0.4-1.2,1.4c-0.4,1.3-1.1,2.1-2.2,2.1
		c-1.2,0-2.2-1.1-2.2-2.7c0-0.8,0.2-1.5,0.4-1.9l1.1,0.3c-0.1,0.3-0.4,0.8-0.4,1.5c0,0.9,0.5,1.3,0.9,1.3c0.6,0,0.8-0.4,1.2-1.5
		c0.5-1.3,1.1-2,2.2-2c1.2,0,2.2,0.9,2.2,2.9c0,0.8-0.2,1.7-0.5,2.1L10.5,187.6z"/>
</g>
</svg>
