<!-- Generator: Adobe Illustrator 20.1.0, SVG Export Plug-In  -->
<svg version="1.1"
	 xmlns="http://www.w3.org/2000/svg" xmlns:xlink="http://www.w3.org/1999/xlink" xmlns:a="http://ns.adobe.com/AdobeSVGViewerExtensions/3.0/"
	 x="0px" y="0px" width="146.4px" height="25.1px" viewBox="0 0 146.4 25.1"
	 style="overflow:scroll;enable-background:new 0 0 146.4 25.1;" xml:space="preserve">
<style type="text/css">
	.st0{fill:#FAFBFA;}
</style>
<defs>
</defs>
<g>
	<g>
		<path class="st0" d="M6.9,4.1H0V0.4h18.3v3.7h-7v20.6H6.9V4.1z"/>
		<path class="st0" d="M25.6,0.4v24.3h-4.4V0.4H25.6z"/>
		<path class="st0" d="M30.7,24.7V0.4h5L42,10.8c1.6,2.7,3,5.5,4.1,8.1h0.1c-0.3-3.2-0.4-6.4-0.4-10.1V0.4h4.1v24.3h-4.6L39,14
			c-1.5-2.7-3.2-5.7-4.4-8.4l-0.1,0c0.2,3.1,0.2,6.3,0.2,10.3v8.7H30.7z"/>
		<path class="st0" d="M55,24.7V0.4h5l6.3,10.4c1.6,2.7,3,5.5,4.1,8.1h0.1c-0.3-3.2-0.4-6.4-0.4-10.1V0.4h4.1v24.3h-4.6L63.3,14
			c-1.5-2.7-3.2-5.7-4.4-8.4l-0.1,0C59,8.8,59.1,12,59.1,16v8.7H55z"/>
		<path class="st0" d="M83.8,0.4v24.3h-4.4V0.4H83.8z"/>
		<path class="st0" d="M93.5,4.1h-6.9V0.4h18.3v3.7h-7v20.6h-4.4V4.1z"/>
		<path class="st0" d="M112.1,0.4v14.1c0,4.8,2,6.9,5,6.9c3.2,0,5.1-2.2,5.1-6.9V0.4h4.4v13.9c0,7.5-3.9,10.8-9.7,10.8
			c-5.6,0-9.3-3.1-9.3-10.8V0.4H112.1z"/>
		<path class="st0" d="M131.6,19.8c1.4,0.8,3.6,1.5,5.9,1.5c2.8,0,4.4-1.3,4.4-3.3c0-1.8-1.2-2.9-4.3-4c-4-1.4-6.6-3.6-6.6-7.1
			c0-4,3.3-7,8.6-7c2.6,0,4.6,0.6,5.8,1.2l-1.1,3.6c-0.9-0.5-2.6-1.2-4.8-1.2c-2.8,0-4,1.5-4,2.9c0,1.9,1.4,2.7,4.6,4
			c4.2,1.6,6.3,3.7,6.3,7.2c0,3.9-3,7.3-9.2,7.3c-2.6,0-5.2-0.7-6.6-1.5L131.6,19.8z"/>
	</g>
</g>
</svg>
