<!-- Generator: Adobe Illustrator 20.1.0, SVG Export Plug-In  -->
<svg version="1.1"
	 xmlns="http://www.w3.org/2000/svg" xmlns:xlink="http://www.w3.org/1999/xlink" xmlns:a="http://ns.adobe.com/AdobeSVGViewerExtensions/3.0/"
	 x="0px" y="0px" width="141px" height="17.1px" viewBox="0 0 141 17.1"
	 style="overflow:scroll;enable-background:new 0 0 141 17.1;" xml:space="preserve">
<style type="text/css">
	.st0{fill:#D51D70;}
</style>
<defs>
</defs>
<g>
	<g>
		<path class="st0" d="M0,13.3V0.5h3.4L6,5.2c0.8,1.3,1.5,2.9,2.1,4.4h0.1C8,7.9,7.9,6.2,7.9,4.3V0.5h2.7v12.8h-3L4.8,8.4
			C4.1,7,3.2,5.4,2.6,3.9l-0.1,0c0.1,1.7,0.1,3.5,0.1,5.6v3.9H0z"/>
		<path class="st0" d="M15.2,9.6c0.1,1.2,1.3,1.8,2.6,1.8c1,0,1.8-0.1,2.6-0.4l0.4,2c-0.9,0.4-2.1,0.6-3.4,0.6c-3.2,0-5-1.8-5-4.7
			c0-2.4,1.5-5,4.7-5c3,0,4.1,2.3,4.1,4.6c0,0.5-0.1,0.9-0.1,1.1H15.2z M18.6,7.6c0-0.7-0.3-1.9-1.6-1.9c-1.2,0-1.7,1.1-1.8,1.9
			H18.6z"/>
		<path class="st0" d="M31.8,10.4c0,1.2,0,2.2,0.1,3h-2.5L29.2,12h-0.1c-0.4,0.6-1.2,1.5-2.9,1.5c-1.9,0-3.3-1.2-3.3-4V4h2.9v5
			c0,1.3,0.4,2.2,1.4,2.2c0.8,0,1.3-0.6,1.4-1c0.1-0.2,0.1-0.4,0.1-0.6V4h2.9V10.4z"/>
		<path class="st0" d="M34.1,7.1c0-1.4,0-2.3-0.1-3.1h2.5l0.1,1.7h0.1c0.5-1.3,1.6-1.9,2.5-1.9c0.3,0,0.4,0,0.6,0v2.7
			c-0.2,0-0.5-0.1-0.8-0.1c-1.1,0-1.8,0.6-2,1.5C37,8.2,37,8.4,37,8.6v4.7h-2.9V7.1z"/>
		<path class="st0" d="M50.5,8.6c0,3.4-2.4,5-4.9,5c-2.7,0-4.8-1.8-4.8-4.8c0-3,2-4.9,5-4.9C48.6,3.8,50.5,5.8,50.5,8.6z M43.8,8.7
			c0,1.6,0.7,2.8,1.9,2.8c1.1,0,1.8-1.1,1.8-2.8c0-1.4-0.5-2.8-1.8-2.8C44.3,5.9,43.8,7.3,43.8,8.7z"/>
		<path class="st0" d="M52.3,7.2c0-1.2,0-2.3-0.1-3.1h2.5l0.1,1.3h0c0.7-1,1.7-1.5,3.1-1.5c2,0,3.9,1.8,3.9,4.7c0,3.4-2.1,5-4.2,5
			c-1.1,0-2-0.5-2.4-1.1h0v4.6h-2.9V7.2z M55.2,9.3c0,0.2,0,0.4,0.1,0.6c0.2,0.8,0.9,1.4,1.7,1.4c1.3,0,2-1,2-2.6
			c0-1.5-0.7-2.6-2-2.6c-0.8,0-1.5,0.6-1.7,1.5c0,0.2-0.1,0.3-0.1,0.5V9.3z"/>
		<path class="st0" d="M63.7,7.1c0-1.4,0-2.3-0.1-3.1h2.5l0.1,1.7h0.1c0.5-1.3,1.6-1.9,2.5-1.9c0.3,0,0.4,0,0.6,0v2.7
			c-0.2,0-0.5-0.1-0.8-0.1c-1.1,0-1.8,0.6-2,1.5c0,0.2-0.1,0.4-0.1,0.6v4.7h-2.9V7.1z"/>
		<path class="st0" d="M80.1,8.6c0,3.4-2.4,5-4.9,5c-2.7,0-4.8-1.8-4.8-4.8c0-3,2-4.9,5-4.9C78.2,3.8,80.1,5.8,80.1,8.6z M73.3,8.7
			c0,1.6,0.7,2.8,1.9,2.8c1.1,0,1.8-1.1,1.8-2.8c0-1.4-0.5-2.8-1.8-2.8C73.9,5.9,73.3,7.3,73.3,8.7z"/>
		<path class="st0" d="M85.1,1.4V4h2.1v2.1h-2.1v3.4c0,1.1,0.3,1.6,1.1,1.6c0.4,0,0.6,0,0.9-0.1l0,2.2c-0.4,0.2-1.1,0.2-1.9,0.2
			c-0.9,0-1.7-0.3-2.2-0.8c-0.5-0.6-0.8-1.4-0.8-2.8V6.2H81V4h1.2V2L85.1,1.4z"/>
		<path class="st0" d="M91,9.6c0.1,1.2,1.3,1.8,2.6,1.8c1,0,1.8-0.1,2.6-0.4l0.4,2c-0.9,0.4-2.1,0.6-3.4,0.6c-3.2,0-5-1.8-5-4.7
			c0-2.4,1.5-5,4.7-5c3,0,4.1,2.3,4.1,4.6c0,0.5-0.1,0.9-0.1,1.1H91z M94.4,7.6c0-0.7-0.3-1.9-1.6-1.9c-1.2,0-1.7,1.1-1.8,1.9H94.4z
			"/>
		<path class="st0" d="M105.8,13.1c-0.5,0.2-1.5,0.4-2.6,0.4c-3,0-4.9-1.8-4.9-4.8c0-2.7,1.9-4.9,5.3-4.9c0.8,0,1.6,0.1,2.2,0.4
			l-0.5,2.1c-0.3-0.2-0.9-0.3-1.6-0.3c-1.5,0-2.5,1.1-2.5,2.6c0,1.7,1.1,2.6,2.5,2.6c0.7,0,1.2-0.1,1.7-0.3L105.8,13.1z"/>
		<path class="st0" d="M114.4,13.1c-0.5,0.2-1.5,0.4-2.6,0.4c-3,0-4.9-1.8-4.9-4.8c0-2.7,1.9-4.9,5.3-4.9c0.8,0,1.6,0.1,2.2,0.4
			L114,6.3c-0.3-0.2-0.9-0.3-1.6-0.3c-1.5,0-2.5,1.1-2.5,2.6c0,1.7,1.1,2.6,2.5,2.6c0.7,0,1.2-0.1,1.7-0.3L114.4,13.1z"/>
		<path class="st0" d="M119,1.5c0,0.8-0.6,1.4-1.6,1.4c-0.9,0-1.5-0.6-1.5-1.4c0-0.8,0.6-1.5,1.5-1.5S119,0.6,119,1.5z M116,13.3V4
			h2.9v9.3H116z"/>
		<path class="st0" d="M130.4,8.6c0,3.4-2.4,5-4.9,5c-2.7,0-4.8-1.8-4.8-4.8c0-3,2-4.9,5-4.9C128.5,3.8,130.4,5.8,130.4,8.6z
			 M123.6,8.7c0,1.6,0.7,2.8,1.9,2.8c1.1,0,1.8-1.1,1.8-2.8c0-1.4-0.5-2.8-1.8-2.8C124.2,5.9,123.6,7.3,123.6,8.7z M128.6,0
			l-2.3,2.9h-2l1.6-2.9H128.6z"/>
		<path class="st0" d="M132.2,7c0-1.2,0-2.1-0.1-3h2.5l0.1,1.3h0.1c0.4-0.6,1.3-1.5,2.9-1.5c1.9,0,3.3,1.3,3.3,4v5.5h-2.9V8.2
			c0-1.2-0.4-2-1.5-2c-0.8,0-1.3,0.6-1.5,1.1C135.1,7.4,135,7.7,135,8v5.4h-2.9V7z"/>
	</g>
</g>
</svg>
