<!-- Generator: Adobe Illustrator 20.1.0, SVG Export Plug-In  -->
<svg version="1.1"
	 xmlns="http://www.w3.org/2000/svg" xmlns:xlink="http://www.w3.org/1999/xlink" xmlns:a="http://ns.adobe.com/AdobeSVGViewerExtensions/3.0/"
	 x="0px" y="0px" width="292.9px" height="13px" viewBox="0 0 292.9 13"
	 style="overflow:scroll;enable-background:new 0 0 292.9 13;" xml:space="preserve">
<style type="text/css">
	.st0{fill:#58595B;}
	.st1{fill:#DA0962;}
	.st2{fill:#D51D70;}
</style>
<defs>
</defs>
<g>
	<path class="st0" d="M10,0.7c0.6-0.1,1.5-0.2,2.6-0.2c1.2,0,2.2,0.3,2.8,0.8c0.6,0.5,0.9,1.2,0.9,2.1c0,0.9-0.3,1.6-0.8,2.1
		c-0.7,0.7-1.8,1-3,1c-0.3,0-0.6,0-0.8-0.1V10H10V0.7z M11.7,5.1c0.2,0.1,0.5,0.1,0.8,0.1c1.3,0,2.1-0.6,2.1-1.7
		c0-1-0.7-1.6-1.9-1.6c-0.5,0-0.8,0-1,0.1V5.1z"/>
	<path class="st0" d="M17.6,5.4c0-0.9,0-1.6-0.1-2.2H19L19,4.5h0.1c0.3-1,1.1-1.4,1.8-1.4c0.2,0,0.3,0,0.4,0v1.6
		c-0.1,0-0.3-0.1-0.5-0.1c-0.8,0-1.4,0.5-1.5,1.3c0,0.2-0.1,0.3-0.1,0.5V10h-1.7V5.4z"/>
	<path class="st0" d="M28.8,6.5c0,2.5-1.8,3.6-3.5,3.6c-1.9,0-3.4-1.3-3.4-3.5c0-2.2,1.5-3.6,3.5-3.6C27.4,3,28.8,4.5,28.8,6.5z
		 M23.7,6.6c0,1.3,0.6,2.3,1.7,2.3c1,0,1.7-1,1.7-2.3c0-1.1-0.5-2.3-1.6-2.3C24.2,4.3,23.7,5.5,23.7,6.6z"/>
	<path class="st0" d="M32,1.3v1.9h1.6v1.3H32v3c0,0.8,0.2,1.2,0.9,1.2c0.3,0,0.5,0,0.7-0.1l0,1.3c-0.3,0.1-0.7,0.2-1.2,0.2
		c-0.6,0-1.2-0.2-1.5-0.6c-0.4-0.4-0.5-1-0.5-1.9V4.5h-1V3.2h1V1.7L32,1.3z"/>
	<path class="st0" d="M36,7.1c0,1.2,1,1.8,2.1,1.8c0.8,0,1.4-0.1,1.9-0.3l0.3,1.2c-0.6,0.2-1.4,0.4-2.4,0.4c-2.2,0-3.5-1.3-3.5-3.4
		c0-1.9,1.1-3.6,3.3-3.6c2.2,0,2.9,1.8,2.9,3.3c0,0.3,0,0.6-0.1,0.7H36z M39,5.9c0-0.6-0.3-1.7-1.4-1.7c-1.1,0-1.5,1-1.6,1.7H39z"/>
	<path class="st0" d="M48,3.2c0,0.5-0.1,1-0.1,1.9V9c0,1.4-0.3,2.4-1,3.1c-0.7,0.6-1.7,0.8-2.6,0.8c-0.9,0-1.8-0.2-2.4-0.5l0.4-1.3
		c0.4,0.3,1.2,0.5,2,0.5c1.1,0,1.9-0.6,1.9-2V8.9h0c-0.4,0.6-1.1,1-2,1c-1.7,0-2.9-1.4-2.9-3.3c0-2.2,1.4-3.6,3.1-3.6
		c1,0,1.6,0.5,2,1.1h0l0.1-0.9H48z M46.2,5.9c0-0.2,0-0.3-0.1-0.5c-0.2-0.6-0.7-1.1-1.4-1.1c-1,0-1.7,0.8-1.7,2.2
		c0,1.2,0.6,2.1,1.7,2.1c0.6,0,1.2-0.4,1.4-1c0-0.2,0.1-0.4,0.1-0.6V5.9z"/>
	<path class="st0" d="M50.8,7.1c0,1.2,1,1.8,2.1,1.8c0.8,0,1.4-0.1,1.9-0.3L55,9.7c-0.6,0.2-1.4,0.4-2.4,0.4c-2.2,0-3.5-1.3-3.5-3.4
		c0-1.9,1.1-3.6,3.3-3.6c2.2,0,2.9,1.8,2.9,3.3c0,0.3,0,0.6-0.1,0.7H50.8z M53.8,5.9c0-0.6-0.3-1.7-1.4-1.7c-1.1,0-1.5,1-1.6,1.7
		H53.8z"/>
	<path class="st0" d="M65.6,0.1v8c0,0.7,0,1.4,0.1,1.9h-1.5l-0.1-1.1h0c-0.4,0.8-1.2,1.2-2.2,1.2c-1.6,0-2.9-1.4-2.9-3.5
		c0-2.3,1.4-3.6,3-3.6c0.9,0,1.6,0.4,1.9,0.9h0V0.1H65.6z M63.9,6c0-0.1,0-0.3,0-0.4c-0.2-0.7-0.7-1.2-1.5-1.2c-1.1,0-1.7,1-1.7,2.2
		c0,1.2,0.6,2.1,1.7,2.1c0.7,0,1.3-0.5,1.5-1.2c0-0.2,0.1-0.3,0.1-0.5V6z"/>
	<path class="st0" d="M68.5,7.1c0,1.2,1,1.8,2.1,1.8c0.8,0,1.4-0.1,1.9-0.3l0.3,1.2c-0.6,0.2-1.4,0.4-2.4,0.4
		c-2.2,0-3.5-1.3-3.5-3.4C66.9,4.8,68,3,70.2,3c2.2,0,2.9,1.8,2.9,3.3c0,0.3,0,0.6-0.1,0.7H68.5z M71.5,5.9c0-0.6-0.3-1.7-1.4-1.7
		c-1.1,0-1.5,1-1.6,1.7H71.5z"/>
	<path class="st0" d="M74.3,0.1h1.7V10h-1.7V0.1z"/>
	<path class="st0" d="M82.3,1.3c0,0.5-0.4,0.9-1,0.9c-0.6,0-0.9-0.4-0.9-0.9c0-0.5,0.4-0.9,1-0.9C81.9,0.4,82.3,0.8,82.3,1.3z
		 M80.5,10V3.2h1.7V10H80.5z"/>
	<path class="st0" d="M83.9,5.2c0-0.8,0-1.4-0.1-2h1.5l0.1,1h0C85.8,3.7,86.4,3,87.5,3c0.9,0,1.6,0.5,1.9,1.2h0
		c0.2-0.4,0.5-0.7,0.8-0.8C90.6,3.2,91.1,3,91.6,3c1.1,0,2.3,0.8,2.3,2.9v4h-1.7V6.2c0-1.1-0.4-1.8-1.2-1.8c-0.6,0-1,0.4-1.2,0.9
		c0,0.2-0.1,0.4-0.1,0.6V10h-1.7V6c0-0.9-0.4-1.6-1.2-1.6c-0.6,0-1.1,0.5-1.2,1c-0.1,0.2-0.1,0.4-0.1,0.6v4h-1.7V5.2z"/>
	<path class="st0" d="M95.5,5.4c0-0.9,0-1.6-0.1-2.2H97l0.1,1h0C97.6,3.5,98.4,3,99.4,3c1.6,0,2.8,1.3,2.8,3.4
		c0,2.4-1.5,3.6-3.1,3.6c-0.8,0-1.6-0.4-1.9-0.9h0v3.5h-1.7V5.4z M97.2,7.1c0,0.2,0,0.3,0.1,0.5c0.2,0.7,0.8,1.2,1.5,1.2
		c1.1,0,1.7-0.9,1.7-2.2c0-1.2-0.6-2.2-1.7-2.2c-0.7,0-1.4,0.5-1.5,1.3c0,0.1-0.1,0.3-0.1,0.4V7.1z"/>
	<path class="st0" d="M107.3,10l-0.1-0.8h0c-0.4,0.5-1.1,0.9-2,0.9c-1.4,0-2.1-1-2.1-2c0-1.7,1.5-2.6,4-2.6V5.4
		c0-0.4-0.2-1.2-1.4-1.2c-0.7,0-1.4,0.2-1.8,0.5l-0.3-1.1C104,3.3,104.9,3,106,3c2.2,0,2.8,1.4,2.8,2.8v2.4c0,0.6,0,1.2,0.1,1.6
		H107.3z M107.1,6.7c-1.2,0-2.4,0.2-2.4,1.3c0,0.7,0.4,1,1,1c0.7,0,1.2-0.4,1.3-0.9c0-0.1,0.1-0.3,0.1-0.4V6.7z"/>
	<path class="st0" d="M115.4,9.7c-0.4,0.2-1.1,0.3-1.9,0.3c-2.1,0-3.5-1.3-3.5-3.4c0-2,1.4-3.6,3.8-3.6c0.6,0,1.3,0.1,1.7,0.3
		l-0.3,1.3c-0.3-0.1-0.7-0.3-1.3-0.3c-1.3,0-2.1,1-2.1,2.2c0,1.4,0.9,2.2,2.1,2.2c0.6,0,1-0.1,1.3-0.3L115.4,9.7z"/>
	<path class="st0" d="M118.5,1.3v1.9h1.6v1.3h-1.6v3c0,0.8,0.2,1.2,0.9,1.2c0.3,0,0.5,0,0.7-0.1l0,1.3c-0.3,0.1-0.7,0.2-1.2,0.2
		c-0.6,0-1.2-0.2-1.5-0.6c-0.4-0.4-0.5-1-0.5-1.9V4.5h-1V3.2h1V1.7L118.5,1.3z"/>
	<path class="st0" d="M127.7,6.5c0,2.5-1.8,3.6-3.5,3.6c-1.9,0-3.4-1.3-3.4-3.5c0-2.2,1.5-3.6,3.5-3.6C126.3,3,127.7,4.5,127.7,6.5z
		 M122.6,6.6c0,1.3,0.6,2.3,1.7,2.3c1,0,1.7-1,1.7-2.3c0-1.1-0.5-2.3-1.6-2.3C123.1,4.3,122.6,5.5,122.6,6.6z"/>
	<path class="st0" d="M137.9,0.1v8c0,0.7,0,1.4,0.1,1.9h-1.5l-0.1-1.1h0c-0.4,0.8-1.2,1.2-2.2,1.2c-1.6,0-2.9-1.4-2.9-3.5
		c0-2.3,1.4-3.6,3-3.6c0.9,0,1.6,0.4,1.9,0.9h0V0.1H137.9z M136.2,6c0-0.1,0-0.3,0-0.4c-0.2-0.7-0.7-1.2-1.5-1.2
		c-1.1,0-1.7,1-1.7,2.2c0,1.2,0.6,2.1,1.7,2.1c0.7,0,1.3-0.5,1.5-1.2c0-0.2,0.1-0.3,0.1-0.5V6z"/>
	<path class="st0" d="M140.8,7.1c0,1.2,1,1.8,2.1,1.8c0.8,0,1.4-0.1,1.9-0.3l0.3,1.2c-0.6,0.2-1.4,0.4-2.4,0.4
		c-2.2,0-3.5-1.3-3.5-3.4c0-1.9,1.1-3.6,3.3-3.6c2.2,0,2.9,1.8,2.9,3.3c0,0.3,0,0.6-0.1,0.7H140.8z M143.8,5.9
		c0-0.6-0.3-1.7-1.4-1.7c-1.1,0-1.5,1-1.6,1.7H143.8z"/>
	<path class="st0" d="M149.4,0.1h1.7V10h-1.7V0.1z"/>
	<path class="st0" d="M156.6,10l-0.1-0.8h0c-0.4,0.5-1.1,0.9-2,0.9c-1.4,0-2.1-1-2.1-2c0-1.7,1.5-2.6,4-2.6V5.4
		c0-0.4-0.2-1.2-1.4-1.2c-0.7,0-1.4,0.2-1.8,0.5l-0.3-1.1c0.5-0.3,1.4-0.6,2.4-0.6c2.2,0,2.8,1.4,2.8,2.8v2.4c0,0.6,0,1.2,0.1,1.6
		H156.6z M156.4,6.7c-1.2,0-2.4,0.2-2.4,1.3c0,0.7,0.4,1,1,1c0.7,0,1.2-0.4,1.3-0.9c0-0.1,0.1-0.3,0.1-0.4V6.7z"/>
	<path class="st1" d="M162.4,0.1h2.1V4h0c0.2-0.3,0.5-0.5,0.8-0.7c0.3-0.2,0.7-0.3,1.1-0.3c1.3,0,2.4,0.9,2.4,3v4h-2.1V6.2
		c0-0.9-0.3-1.5-1.1-1.5c-0.6,0-0.9,0.4-1.1,0.7c-0.1,0.1-0.1,0.3-0.1,0.5v4h-2.1V0.1z"/>
	<path class="st1" d="M172.5,1.3c0,0.6-0.4,1.1-1.1,1.1c-0.7,0-1.1-0.5-1.1-1.1c0-0.6,0.4-1.1,1.1-1.1S172.5,0.7,172.5,1.3z
		 M170.4,10V3.2h2.1V10H170.4z"/>
	<path class="st1" d="M174,5.4c0-0.9,0-1.7-0.1-2.3h1.8l0.1,0.9h0c0.5-0.7,1.3-1.1,2.3-1.1c1.5,0,2.8,1.3,2.8,3.5
		c0,2.5-1.6,3.6-3.1,3.6c-0.8,0-1.5-0.3-1.8-0.8h0v3.4H174V5.4z M176.1,7c0,0.2,0,0.3,0,0.4c0.1,0.6,0.6,1,1.2,1
		c0.9,0,1.5-0.8,1.5-1.9c0-1.1-0.5-1.9-1.4-1.9c-0.6,0-1.1,0.4-1.3,1.1c0,0.1,0,0.2,0,0.4V7z"/>
	<path class="st1" d="M188.9,6.5c0,2.5-1.8,3.6-3.6,3.6c-2,0-3.5-1.3-3.5-3.5c0-2.2,1.4-3.6,3.6-3.6C187.5,3,188.9,4.4,188.9,6.5z
		 M184,6.6c0,1.2,0.5,2,1.4,2c0.8,0,1.3-0.8,1.3-2c0-1-0.4-2-1.3-2C184.4,4.5,184,5.6,184,6.6z"/>
	<path class="st1" d="M191.7,3.2l0.7,1.1c0.2,0.3,0.4,0.7,0.6,1h0c0.2-0.4,0.3-0.7,0.5-1l0.6-1.1h2.3l-2.2,3.2l2.3,3.6H194l-0.7-1.2
		c-0.2-0.3-0.4-0.7-0.5-1h0c-0.2,0.4-0.3,0.7-0.5,1l-0.6,1.2h-2.3l2.3-3.5l-2.2-3.3H191.7z"/>
	<path class="st1" d="M199.3,1.3c0,0.6-0.4,1.1-1.1,1.1c-0.7,0-1.1-0.5-1.1-1.1c0-0.6,0.4-1.1,1.1-1.1S199.3,0.7,199.3,1.3z
		 M197.1,10V3.2h2.1V10H197.1z"/>
	<path class="st1" d="M204.7,10l-0.1-0.7h0c-0.4,0.5-1.1,0.8-1.9,0.8c-1.4,0-2.2-1-2.2-2.1c0-1.8,1.6-2.6,4-2.6V5.3
		c0-0.4-0.2-0.9-1.2-0.9c-0.7,0-1.4,0.2-1.9,0.5l-0.4-1.4c0.5-0.3,1.4-0.6,2.6-0.6c2.3,0,3,1.3,3,2.9v2.4c0,0.7,0,1.3,0.1,1.7H204.7
		z M204.4,6.7c-1.1,0-2,0.3-2,1.1c0,0.5,0.4,0.8,0.8,0.8c0.5,0,1-0.3,1.1-0.8c0-0.1,0-0.2,0-0.4V6.7z"/>
	<path class="st1" d="M212.2,3.2l1,3.3c0.1,0.4,0.3,0.9,0.3,1.3h0c0.1-0.4,0.2-0.9,0.3-1.3l0.8-3.3h2.3l-1.6,4.5
		c-1,2.7-1.6,3.8-2.4,4.5c-0.7,0.6-1.5,0.9-2,0.9l-0.4-1.8c0.3,0,0.6-0.2,0.9-0.4c0.3-0.2,0.7-0.5,0.9-0.8c0.1-0.1,0.1-0.2,0.1-0.3
		c0-0.1,0-0.2-0.1-0.3l-2.5-6.2H212.2z"/>
	<path class="st1" d="M220.4,0.1h2.1V10h-2.1V0.1z"/>
	<path class="st1" d="M228,10l-0.1-0.7h0c-0.4,0.5-1.1,0.8-1.9,0.8c-1.4,0-2.2-1-2.2-2.1c0-1.8,1.6-2.6,4-2.6V5.3
		c0-0.4-0.2-0.9-1.2-0.9c-0.7,0-1.4,0.2-1.9,0.5l-0.4-1.4c0.5-0.3,1.4-0.6,2.6-0.6c2.3,0,3,1.3,3,2.9v2.4c0,0.7,0,1.3,0.1,1.7H228z
		 M227.7,6.7c-1.1,0-2,0.3-2,1.1c0,0.5,0.4,0.8,0.8,0.8c0.5,0,1-0.3,1.1-0.8c0-0.1,0-0.2,0-0.4V6.7z"/>
	<path class="st1" d="M236.1,1.3c0,0.6-0.4,1.1-1.1,1.1c-0.7,0-1.1-0.5-1.1-1.1c0-0.6,0.4-1.1,1.1-1.1S236.1,0.7,236.1,1.3z M234,10
		V3.2h2.1V10H234z"/>
	<path class="st1" d="M237.6,8.1c0.4,0.2,1.2,0.5,1.8,0.5c0.6,0,0.9-0.2,0.9-0.6c0-0.3-0.2-0.5-1-0.8c-1.4-0.5-1.9-1.2-1.9-2
		c0-1.3,1.1-2.2,2.8-2.2c0.8,0,1.5,0.2,1.9,0.4l-0.4,1.5c-0.3-0.2-0.9-0.4-1.5-0.4c-0.5,0-0.8,0.2-0.8,0.6c0,0.3,0.3,0.5,1.1,0.8
		c1.3,0.4,1.8,1.1,1.8,2.1c0,1.3-1,2.2-2.9,2.2c-0.9,0-1.7-0.2-2.2-0.5L237.6,8.1z"/>
	<path class="st1" d="M248,9.1L248,9.1c-0.5,0.6-1.1,1-2,1c-1.5,0-2.8-1.3-2.8-3.5c0-2.4,1.6-3.6,3-3.6c0.9,0,1.5,0.3,1.9,0.9h0
		l0.1-0.8h2c0,0.7,0,1.3,0,2v7.5H248V9.1z M248,6c0-0.1,0-0.2,0-0.3c-0.1-0.5-0.6-1-1.2-1c-1,0-1.5,0.8-1.5,1.9
		c0,1.1,0.5,1.9,1.4,1.9c0.6,0,1.1-0.4,1.2-1c0-0.1,0.1-0.3,0.1-0.5V6z"/>
	<path class="st1" d="M258,7.8c0,0.9,0,1.6,0.1,2.2h-1.8l-0.1-1h0c-0.3,0.4-0.9,1.1-2.1,1.1c-1.4,0-2.4-0.9-2.4-3v-4h2.1v3.7
		c0,1,0.3,1.6,1.1,1.6c0.6,0,0.9-0.4,1.1-0.7c0.1-0.1,0.1-0.3,0.1-0.5v-4h2.1V7.8z"/>
	<path class="st1" d="M261.2,7.2c0.1,0.9,0.9,1.3,1.9,1.3c0.7,0,1.3-0.1,1.9-0.3l0.3,1.4c-0.7,0.3-1.5,0.4-2.5,0.4
		c-2.3,0-3.6-1.3-3.6-3.5c0-1.7,1.1-3.6,3.4-3.6c2.2,0,3,1.7,3,3.4c0,0.4,0,0.7-0.1,0.8H261.2z M263.7,5.8c0-0.5-0.2-1.4-1.2-1.4
		c-0.9,0-1.2,0.8-1.3,1.4H263.7z"/>
	<path class="st1" d="M266.8,5.3c0-0.8,0-1.6-0.1-2.2h1.8l0.1,0.9h0c0.3-0.4,0.9-1.1,2.1-1.1c0.9,0,1.6,0.4,1.9,1.2h0
		c0.3-0.3,0.6-0.6,0.9-0.8c0.4-0.2,0.8-0.3,1.3-0.3c1.3,0,2.3,0.9,2.3,2.9v4H275V6.3c0-1-0.3-1.6-1-1.6c-0.5,0-0.8,0.3-1,0.7
		c-0.1,0.2-0.1,0.4-0.1,0.5v4h-2.1V6.2c0-0.9-0.3-1.4-1-1.4c-0.5,0-0.9,0.4-1,0.8c-0.1,0.2-0.1,0.4-0.1,0.5v4h-2.1V5.3z"/>
	<path class="st1" d="M280.8,1.3c0,0.6-0.4,1.1-1.1,1.1c-0.7,0-1.1-0.5-1.1-1.1c0-0.6,0.4-1.1,1.1-1.1S280.7,0.7,280.8,1.3z
		 M278.6,10V3.2h2.1V10H278.6z"/>
	<path class="st1" d="M286.1,10L286,9.3h0c-0.4,0.5-1.1,0.8-1.9,0.8c-1.4,0-2.2-1-2.2-2.1c0-1.8,1.6-2.6,4-2.6V5.3
		c0-0.4-0.2-0.9-1.2-0.9c-0.7,0-1.4,0.2-1.9,0.5l-0.4-1.4c0.5-0.3,1.4-0.6,2.6-0.6c2.3,0,3,1.3,3,2.9v2.4c0,0.7,0,1.3,0.1,1.7H286.1
		z M285.9,6.7c-1.1,0-2,0.3-2,1.1c0,0.5,0.4,0.8,0.8,0.8c0.5,0,1-0.3,1.1-0.8c0-0.1,0-0.2,0-0.4V6.7z"/>
	<path class="st1" d="M292.3,1c-0.1,0-0.3,0-0.5,0c-1.1,0.1-1.6,0.6-1.7,1.3h0c0.3-0.3,0.6-0.4,1.1-0.4c0.9,0,1.6,0.6,1.6,1.7
		c0,1-0.8,1.9-1.9,1.9c-1.4,0-2.1-1-2.1-2.3c0-1,0.4-1.8,0.9-2.3c0.5-0.5,1.2-0.7,2-0.8c0.2,0,0.4,0,0.5,0V1z M291.6,3.6
		c0-0.5-0.3-0.9-0.8-0.9c-0.3,0-0.6,0.2-0.7,0.5c0,0.1,0,0.2,0,0.3c0,0.6,0.3,1.1,0.8,1.1C291.3,4.5,291.6,4.1,291.6,3.6z"/>
</g>
<circle class="st2" cx="2.6" cy="4.2" r="2.6"/>
</svg>
