<!-- Generator: Adobe Illustrator 20.1.0, SVG Export Plug-In  -->
<svg version="1.1"
	 xmlns="http://www.w3.org/2000/svg" xmlns:xlink="http://www.w3.org/1999/xlink" xmlns:a="http://ns.adobe.com/AdobeSVGViewerExtensions/3.0/"
	 x="0px" y="0px" width="114.8px" height="18.2px" viewBox="0 0 114.8 18.2"
	 style="overflow:scroll;enable-background:new 0 0 114.8 18.2;" xml:space="preserve">
<style type="text/css">
	.st0{fill:#58595B;}
</style>
<defs>
</defs>
<g>
	<g>
		<path class="st0" d="M1.3,4L0.7,5.7H0l1.8-5.4h0.8l1.8,5.4H3.8L3.2,4H1.3z M3,3.4L2.5,1.9c-0.1-0.4-0.2-0.7-0.3-1h0
			C2.1,1.2,2.1,1.6,2,1.9L1.4,3.4H3z"/>
		<path class="st0" d="M8.5,0v4.7c0,0.3,0,0.7,0,1H7.9l0-0.7h0C7.7,5.4,7.2,5.8,6.6,5.8c-0.9,0-1.7-0.8-1.7-2c0-1.3,0.8-2.1,1.7-2.1
			c0.6,0,1,0.3,1.2,0.6h0V0H8.5z M7.8,3.4c0-0.1,0-0.2,0-0.3c-0.1-0.4-0.5-0.8-1-0.8C6,2.3,5.6,2.9,5.6,3.8c0,0.8,0.4,1.4,1.1,1.4
			c0.5,0,0.9-0.3,1-0.8c0-0.1,0-0.2,0-0.3V3.4z"/>
		<path class="st0" d="M11.8,5.7l-0.1-0.5h0c-0.2,0.3-0.6,0.6-1.2,0.6c-0.8,0-1.2-0.6-1.2-1.1c0-0.9,0.8-1.4,2.3-1.4V3.1
			c0-0.3-0.1-0.9-0.9-0.9c-0.4,0-0.7,0.1-1,0.3L9.7,2.1c0.3-0.2,0.8-0.3,1.3-0.3c1.2,0,1.5,0.8,1.5,1.6v1.4c0,0.3,0,0.7,0.1,0.9
			H11.8z M11.7,3.7c-0.8,0-1.6,0.1-1.6,0.9c0,0.5,0.3,0.7,0.7,0.7c0.5,0,0.8-0.3,0.9-0.6c0-0.1,0-0.2,0-0.2V3.7z"/>
		<path class="st0" d="M13.6,3.1c0-0.5,0-0.9,0-1.3h0.6l0,0.7h0c0.3-0.5,0.7-0.8,1.4-0.8c0.9,0,1.6,0.8,1.6,2c0,1.4-0.8,2.1-1.8,2.1
			c-0.5,0-1-0.2-1.2-0.6h0v2.1h-0.7V3.1z M14.2,4.1c0,0.1,0,0.2,0,0.3c0.1,0.5,0.6,0.8,1.1,0.8c0.7,0,1.2-0.6,1.2-1.5
			c0-0.8-0.4-1.4-1.2-1.4c-0.5,0-0.9,0.3-1.1,0.9c0,0.1,0,0.2,0,0.3V4.1z"/>
		<path class="st0" d="M19,0.7v1.1h1v0.5h-1v2.1c0,0.5,0.1,0.8,0.5,0.8c0.2,0,0.3,0,0.4,0l0,0.5c-0.1,0.1-0.4,0.1-0.6,0.1
			c-0.3,0-0.6-0.1-0.8-0.3c-0.2-0.2-0.3-0.6-0.3-1V2.3h-0.6V1.8h0.6V0.9L19,0.7z"/>
		<path class="st0" d="M22.9,5.7l-0.1-0.5h0c-0.2,0.3-0.6,0.6-1.2,0.6c-0.8,0-1.2-0.6-1.2-1.1c0-0.9,0.8-1.4,2.3-1.4V3.1
			c0-0.3-0.1-0.9-0.9-0.9c-0.4,0-0.7,0.1-1,0.3l-0.2-0.5C21,1.9,21.5,1.7,22,1.7c1.2,0,1.5,0.8,1.5,1.6v1.4c0,0.3,0,0.7,0.1,0.9
			H22.9z M22.8,3.7c-0.8,0-1.6,0.1-1.6,0.9c0,0.5,0.3,0.7,0.7,0.7c0.5,0,0.8-0.3,0.9-0.6c0-0.1,0-0.2,0-0.2V3.7z"/>
		<path class="st0" d="M27.9,0v4.7c0,0.3,0,0.7,0,1h-0.6l0-0.7h0c-0.2,0.4-0.7,0.8-1.3,0.8c-0.9,0-1.7-0.8-1.7-2
			c0-1.3,0.8-2.1,1.7-2.1c0.6,0,1,0.3,1.2,0.6h0V0H27.9z M27.2,3.4c0-0.1,0-0.2,0-0.3c-0.1-0.4-0.5-0.8-1-0.8
			c-0.7,0-1.2,0.6-1.2,1.5c0,0.8,0.4,1.4,1.1,1.4c0.5,0,0.9-0.3,1-0.8c0-0.1,0-0.2,0-0.3V3.4z"/>
		<path class="st0" d="M32.6,3.7c0,1.4-1,2.1-1.9,2.1c-1,0-1.9-0.8-1.9-2c0-1.3,0.8-2.1,1.9-2.1C31.9,1.7,32.6,2.5,32.6,3.7z
			 M29.6,3.8c0,0.8,0.5,1.5,1.2,1.5c0.7,0,1.2-0.6,1.2-1.5c0-0.7-0.3-1.5-1.2-1.5C29.9,2.2,29.6,3,29.6,3.8z"/>
		<path class="st0" d="M38.5,0v4.7c0,0.3,0,0.7,0,1H38l0-0.7h0c-0.2,0.4-0.7,0.8-1.3,0.8c-0.9,0-1.7-0.8-1.7-2
			c0-1.3,0.8-2.1,1.7-2.1c0.6,0,1,0.3,1.2,0.6h0V0H38.5z M37.8,3.4c0-0.1,0-0.2,0-0.3c-0.1-0.4-0.5-0.8-1-0.8
			c-0.7,0-1.2,0.6-1.2,1.5c0,0.8,0.4,1.4,1.1,1.4c0.5,0,0.9-0.3,1-0.8c0-0.1,0-0.2,0-0.3V3.4z"/>
		<path class="st0" d="M40.1,3.9c0,1,0.6,1.3,1.3,1.3c0.5,0,0.8-0.1,1.1-0.2l0.1,0.5c-0.2,0.1-0.7,0.2-1.3,0.2c-1.2,0-1.9-0.8-1.9-2
			s0.7-2.1,1.8-2.1c1.3,0,1.6,1.1,1.6,1.8c0,0.1,0,0.3,0,0.3H40.1z M42.2,3.4c0-0.4-0.2-1.1-1-1.1c-0.7,0-1,0.7-1.1,1.1H42.2z"/>
		<path class="st0" d="M46.3,4l-0.6,1.7H45l1.8-5.4h0.8l1.8,5.4h-0.7L48.2,4H46.3z M48.1,3.4l-0.5-1.6c-0.1-0.4-0.2-0.7-0.3-1h0
			c-0.1,0.3-0.2,0.6-0.3,1l-0.5,1.6H48.1z"/>
		<path class="st0" d="M50.3,2.9c0-0.4,0-0.7,0-1h0.6l0,0.6h0c0.2-0.4,0.6-0.7,1.2-0.7c0.5,0,0.9,0.3,1.1,0.8h0
			c0.1-0.2,0.3-0.4,0.4-0.5c0.2-0.2,0.5-0.3,0.9-0.3c0.5,0,1.3,0.3,1.3,1.7v2.3h-0.7V3.5c0-0.7-0.3-1.2-0.8-1.2
			c-0.4,0-0.7,0.3-0.8,0.6c0,0.1-0.1,0.2-0.1,0.4v2.4h-0.7V3.4c0-0.6-0.3-1.1-0.8-1.1c-0.4,0-0.8,0.4-0.9,0.7C51,3.1,51,3.2,51,3.3
			v2.3h-0.7V2.9z"/>
		<path class="st0" d="M57.8,0.7c0,0.2-0.2,0.4-0.4,0.4c-0.2,0-0.4-0.2-0.4-0.4c0-0.2,0.2-0.4,0.4-0.4C57.6,0.3,57.8,0.5,57.8,0.7z
			 M57,5.7V1.8h0.7v3.9H57z"/>
		<path class="st0" d="M59.2,3.9c0,1,0.6,1.3,1.3,1.3c0.5,0,0.8-0.1,1.1-0.2l0.1,0.5c-0.2,0.1-0.7,0.2-1.3,0.2c-1.2,0-1.9-0.8-1.9-2
			s0.7-2.1,1.8-2.1c1.3,0,1.6,1.1,1.6,1.8c0,0.1,0,0.3,0,0.3H59.2z M61.3,3.4c0-0.4-0.2-1.1-1-1.1c-0.7,0-1,0.7-1.1,1.1H61.3z"/>
		<path class="st0" d="M63.1,1.8L63.9,4c0.1,0.4,0.2,0.7,0.3,1h0c0.1-0.3,0.2-0.6,0.3-1l0.8-2.2H66l-1.5,3.9h-0.7l-1.5-3.9H63.1z"/>
		<path class="st0" d="M68.8,5.7l-0.1-0.5h0c-0.2,0.3-0.6,0.6-1.2,0.6c-0.8,0-1.2-0.6-1.2-1.1c0-0.9,0.8-1.4,2.3-1.4V3.1
			c0-0.3-0.1-0.9-0.9-0.9c-0.4,0-0.7,0.1-1,0.3l-0.2-0.5c0.3-0.2,0.8-0.3,1.3-0.3c1.2,0,1.5,0.8,1.5,1.6v1.4c0,0.3,0,0.7,0.1,0.9
			H68.8z M68.7,3.7c-0.8,0-1.6,0.1-1.6,0.9c0,0.5,0.3,0.7,0.7,0.7c0.5,0,0.8-0.3,0.9-0.6c0-0.1,0-0.2,0-0.2V3.7z"/>
		<path class="st0" d="M72.9,0.3v2.3h2.6V0.3h0.7v5.4h-0.7V3.2h-2.6v2.5h-0.7V0.3H72.9z"/>
		<path class="st0" d="M77,6.7c0.2-0.5,0.4-1.3,0.5-1.9l0.8-0.1c-0.2,0.7-0.5,1.6-0.8,1.9L77,6.7z"/>
		<path class="st0" d="M83.2,5.5c-0.3,0.2-0.8,0.3-1.3,0.3c-1,0-1.5-0.7-1.5-1.6c0-1.2,0.9-2.5,2.1-2.5c0.7,0,1.1,0.4,1.1,1
			c0,1-1.1,1.3-2.6,1.3c0,0.2,0,0.5,0.1,0.7c0.2,0.3,0.5,0.5,0.9,0.5c0.5,0,0.8-0.1,1-0.3L83.2,5.5z M82.5,2.2
			c-0.6,0-1.1,0.6-1.3,1.2c1,0,1.9-0.1,1.9-0.7C83.1,2.4,82.8,2.2,82.5,2.2z"/>
		<path class="st0" d="M85.8,0.8l-0.2,1h0.9l-0.1,0.5h-0.9l-0.4,1.9c0,0.2-0.1,0.4-0.1,0.6c0,0.2,0.1,0.4,0.4,0.4c0.1,0,0.2,0,0.3,0
			l0,0.5c-0.1,0-0.3,0.1-0.5,0.1c-0.6,0-0.8-0.4-0.8-0.8c0-0.2,0-0.4,0.1-0.7l0.4-2h-0.6l0.1-0.5h0.6l0.2-0.9L85.8,0.8z"/>
		<path class="st0" d="M90.6,5.7c0-0.2,0-0.6,0.1-1h0c-0.4,0.8-1,1.1-1.5,1.1c-0.7,0-1.1-0.5-1.1-1.3c0-1.3,1-2.8,2.7-2.8
			c0.4,0,0.8,0.1,1,0.2l-0.4,2c-0.1,0.7-0.2,1.4-0.2,1.8H90.6z M91,2.3c-0.1,0-0.2-0.1-0.5-0.1c-1,0-1.8,1-1.8,2.1
			c0,0.4,0.2,0.9,0.7,0.9c0.6,0,1.2-0.7,1.4-1.8L91,2.3z"/>
		<path class="st0" d="M92.2,5.7L93.3,0h0.7l-1.1,5.7H92.2z"/>
		<path class="st0" d="M93.8,5.3c0-0.3,0.2-0.5,0.5-0.5c0.3,0,0.4,0.2,0.4,0.5c0,0.3-0.2,0.5-0.5,0.5C94,5.8,93.8,5.6,93.8,5.3z"/>
		<path class="st0" d="M97.4,5.7V5.2L98,4.7c1.3-1.3,1.9-1.9,1.9-2.7c0-0.5-0.3-1-1-1c-0.5,0-0.9,0.2-1.1,0.4l-0.2-0.5
			c0.4-0.3,0.9-0.5,1.5-0.5c1.1,0,1.6,0.8,1.6,1.5c0,1-0.7,1.7-1.8,2.8l-0.4,0.4v0h2.3v0.6H97.4z"/>
		<path class="st0" d="M105,3c0,1.8-0.7,2.7-1.8,2.7c-1,0-1.7-1-1.7-2.7c0-1.7,0.8-2.7,1.8-2.7C104.3,0.4,105,1.4,105,3z M102.2,3.1
			c0,1.4,0.4,2.1,1.1,2.1c0.7,0,1.1-0.8,1.1-2.2c0-1.3-0.3-2.1-1.1-2.1C102.6,0.9,102.2,1.7,102.2,3.1z"/>
		<path class="st0" d="M107.1,1.1L107.1,1.1l-0.9,0.5l-0.1-0.5l1.1-0.6h0.6v5.2h-0.7V1.1z"/>
		<path class="st0" d="M109.9,4.9c0.2,0.1,0.7,0.3,1.2,0.3c0.9,0,1.2-0.6,1.2-1c0-0.7-0.7-1-1.3-1h-0.4V2.6h0.4
			c0.5,0,1.2-0.3,1.2-0.9c0-0.4-0.3-0.8-0.9-0.8c-0.4,0-0.8,0.2-1,0.3l-0.2-0.5c0.3-0.2,0.8-0.4,1.4-0.4c1,0,1.5,0.6,1.5,1.2
			c0,0.5-0.3,1-1,1.2v0c0.6,0.1,1.2,0.6,1.2,1.3c0,0.8-0.6,1.6-1.9,1.6c-0.6,0-1.1-0.2-1.4-0.4L109.9,4.9z"/>
		<path class="st0" d="M113.9,5.3c0-0.3,0.2-0.5,0.5-0.5s0.5,0.2,0.5,0.5c0,0.3-0.2,0.5-0.5,0.5C114.1,5.8,113.9,5.5,113.9,5.3z"/>
		<path class="st0" d="M2.4,11.3l-0.8,1v0l1.2-0.2v0.5l-1.2-0.1v0l0.8,1l-0.5,0.3l-0.5-1.1h0l-0.5,1.1l-0.5-0.3l0.8-1v0L0,12.7v-0.5
			l1.2,0.2v0l-0.8-1L1,11l0.5,1.1h0L2,11L2.4,11.3z"/>
		<path class="st0" d="M10,14.1c0-0.8-0.1-1.7-0.1-2.3h0c-0.2,0.6-0.4,1.3-0.7,2l-1,2.6H7.7l-0.9-2.6c-0.3-0.8-0.5-1.5-0.6-2.1h0
			c0,0.7-0.1,1.6-0.1,2.4l-0.1,2.3H5.3l0.4-5.4h0.9l0.9,2.6C7.7,14.4,7.9,15,8,15.5h0c0.1-0.5,0.3-1.1,0.6-1.8l1-2.6h0.9l0.3,5.4
			h-0.7L10,14.1z"/>
		<path class="st0" d="M14.6,14h-2.1v1.9h2.3v0.6h-3v-5.4h2.9v0.6h-2.2v1.7h2.1V14z"/>
		<path class="st0" d="M19.6,16.3c-0.3,0.1-0.8,0.3-1.4,0.3c-1.5,0-2.7-1-2.7-2.7c0-1.7,1.1-2.8,2.8-2.8c0.7,0,1.1,0.1,1.3,0.2
			l-0.2,0.6c-0.3-0.1-0.6-0.2-1.1-0.2c-1.3,0-2.1,0.8-2.1,2.2c0,1.3,0.8,2.2,2.1,2.2c0.4,0,0.9-0.1,1.1-0.2L19.6,16.3z"/>
		<path class="st0" d="M20.2,13.3c0-0.3,0.2-0.5,0.5-0.5s0.5,0.2,0.5,0.5c0,0.3-0.2,0.5-0.5,0.5C20.4,13.8,20.2,13.6,20.2,13.3z
			 M20.2,16.1c0-0.3,0.2-0.5,0.5-0.5s0.5,0.2,0.5,0.5c0,0.3-0.2,0.5-0.5,0.5C20.4,16.6,20.2,16.4,20.2,16.1z"/>
		<path class="st0" d="M28.3,14.1c0-0.8-0.1-1.7-0.1-2.3h0c-0.2,0.6-0.4,1.3-0.7,2l-1,2.6h-0.5l-0.9-2.6c-0.3-0.8-0.5-1.5-0.6-2.1h0
			c0,0.7-0.1,1.6-0.1,2.4l-0.1,2.3h-0.7l0.4-5.4h0.9l0.9,2.6c0.2,0.7,0.4,1.3,0.5,1.8h0c0.1-0.5,0.3-1.1,0.6-1.8l1-2.6h0.9l0.3,5.4
			h-0.7L28.3,14.1z"/>
		<path class="st0" d="M31.1,11.6c0,0.2-0.2,0.4-0.4,0.4c-0.2,0-0.4-0.2-0.4-0.4c0-0.2,0.2-0.4,0.4-0.4
			C30.9,11.1,31.1,11.3,31.1,11.6z M30.3,16.5v-3.9H31v3.9H30.3z"/>
		<path class="st0" d="M32.2,13.7c0-0.4,0-0.7,0-1h0.6l0,0.6h0c0.2-0.4,0.6-0.7,1.3-0.7c0.5,0,1.4,0.3,1.4,1.6v2.3h-0.7v-2.2
			c0-0.6-0.2-1.1-0.9-1.1c-0.5,0-0.8,0.3-0.9,0.7c0,0.1,0,0.2,0,0.3v2.3h-0.7V13.7z"/>
		<path class="st0" d="M37.4,11.6c0,0.2-0.2,0.4-0.4,0.4c-0.2,0-0.4-0.2-0.4-0.4c0-0.2,0.2-0.4,0.4-0.4
			C37.2,11.1,37.4,11.3,37.4,11.6z M36.6,16.5v-3.9h0.7v3.9H36.6z"/>
		<path class="st0" d="M40.1,14.1v0.5h-2v-0.5H40.1z"/>
		<path class="st0" d="M43.7,14h-2.1v1.9H44v0.6h-3v-5.4h2.9v0.6h-2.2v1.7h2.1V14z"/>
		<path class="st0" d="M45.2,12.6l0.6,0.8c0.1,0.2,0.3,0.4,0.4,0.6h0c0.1-0.2,0.3-0.4,0.4-0.6l0.5-0.8h0.8l-1.3,1.9l1.4,2h-0.8
			l-0.6-0.9c-0.2-0.2-0.3-0.4-0.4-0.7h0c-0.1,0.2-0.3,0.4-0.4,0.7l-0.6,0.9h-0.8l1.4-2l-1.3-1.9H45.2z"/>
		<path class="st0" d="M50.7,16.5L50.7,16h0c-0.2,0.3-0.6,0.6-1.2,0.6c-0.8,0-1.2-0.6-1.2-1.1c0-0.9,0.8-1.4,2.3-1.4V14
			c0-0.3-0.1-0.9-0.9-0.9c-0.4,0-0.7,0.1-1,0.3l-0.2-0.5c0.3-0.2,0.8-0.3,1.3-0.3c1.2,0,1.5,0.8,1.5,1.6v1.4c0,0.3,0,0.7,0.1,0.9
			H50.7z M50.6,14.5c-0.8,0-1.6,0.1-1.6,0.9c0,0.5,0.3,0.7,0.7,0.7c0.5,0,0.8-0.3,0.9-0.6c0-0.1,0-0.2,0-0.2V14.5z"/>
		<path class="st0" d="M52.4,13.7c0-0.4,0-0.7,0-1H53l0,0.6h0c0.2-0.4,0.6-0.7,1.2-0.7c0.5,0,0.9,0.3,1.1,0.8h0
			c0.1-0.2,0.3-0.4,0.4-0.5c0.2-0.2,0.5-0.3,0.9-0.3c0.5,0,1.3,0.3,1.3,1.7v2.3h-0.7v-2.2c0-0.7-0.3-1.2-0.8-1.2
			c-0.4,0-0.7,0.3-0.8,0.6c0,0.1-0.1,0.2-0.1,0.4v2.4h-0.7v-2.3c0-0.6-0.3-1.1-0.8-1.1c-0.4,0-0.8,0.4-0.9,0.7
			c0,0.1-0.1,0.2-0.1,0.3v2.3h-0.7V13.7z"/>
		<path class="st0" d="M59.5,14.7c0,1,0.6,1.3,1.3,1.3c0.5,0,0.8-0.1,1.1-0.2l0.1,0.5c-0.2,0.1-0.7,0.2-1.3,0.2
			c-1.2,0-1.9-0.8-1.9-2s0.7-2.1,1.8-2.1c1.3,0,1.6,1.1,1.6,1.8c0,0.1,0,0.3,0,0.3H59.5z M61.5,14.2c0-0.4-0.2-1.1-1-1.1
			c-0.7,0-1,0.7-1.1,1.1H61.5z"/>
		<path class="st0" d="M63.1,13.7c0-0.4,0-0.7,0-1h0.6l0,0.6h0c0.2-0.4,0.6-0.7,1.3-0.7c0.5,0,1.4,0.3,1.4,1.6v2.3h-0.7v-2.2
			c0-0.6-0.2-1.1-0.9-1.1c-0.5,0-0.8,0.3-0.9,0.7c0,0.1,0,0.2,0,0.3v2.3h-0.7V13.7z"/>
		<path class="st0" d="M73,16.3c-0.3,0.1-0.8,0.3-1.4,0.3c-1.5,0-2.7-1-2.7-2.7c0-1.7,1.1-2.8,2.8-2.8c0.7,0,1.1,0.1,1.3,0.2
			l-0.2,0.6c-0.3-0.1-0.6-0.2-1.1-0.2c-1.3,0-2.1,0.8-2.1,2.2c0,1.3,0.8,2.2,2.1,2.2c0.4,0,0.9-0.1,1.1-0.2L73,16.3z"/>
		<path class="st0" d="M77.3,14.5c0,1.4-1,2.1-1.9,2.1c-1,0-1.9-0.8-1.9-2c0-1.3,0.8-2.1,1.9-2.1C76.5,12.6,77.3,13.4,77.3,14.5z
			 M74.2,14.6c0,0.8,0.5,1.5,1.2,1.5c0.7,0,1.2-0.6,1.2-1.5c0-0.7-0.3-1.5-1.2-1.5C74.6,13.1,74.2,13.8,74.2,14.6z"/>
		<path class="st0" d="M81.5,12.6c0,0.3,0,0.6,0,1.1v2.2c0,0.9-0.2,1.4-0.6,1.8c-0.4,0.4-0.9,0.5-1.4,0.5c-0.5,0-1-0.1-1.3-0.3
			l0.2-0.5c0.3,0.2,0.7,0.3,1.1,0.3c0.7,0,1.2-0.4,1.2-1.4v-0.4h0c-0.2,0.4-0.6,0.6-1.2,0.6c-1,0-1.6-0.8-1.6-1.9
			c0-1.3,0.9-2.1,1.7-2.1c0.7,0,1,0.4,1.2,0.7h0l0-0.6H81.5z M80.8,14.2c0-0.1,0-0.2,0-0.3c-0.1-0.4-0.5-0.7-1-0.7
			c-0.7,0-1.2,0.6-1.2,1.5c0,0.8,0.4,1.4,1.1,1.4c0.4,0,0.8-0.3,1-0.7c0-0.1,0.1-0.3,0.1-0.4V14.2z"/>
		<path class="st0" d="M82.6,13.7c0-0.4,0-0.7,0-1h0.6l0,0.6h0c0.2-0.4,0.6-0.7,1.3-0.7c0.5,0,1.4,0.3,1.4,1.6v2.3h-0.7v-2.2
			c0-0.6-0.2-1.1-0.9-1.1c-0.5,0-0.8,0.3-0.9,0.7c0,0.1,0,0.2,0,0.3v2.3h-0.7V13.7z"/>
		<path class="st0" d="M90.5,14.5c0,1.4-1,2.1-1.9,2.1c-1,0-1.9-0.8-1.9-2c0-1.3,0.8-2.1,1.9-2.1C89.8,12.6,90.5,13.4,90.5,14.5z
			 M87.5,14.6c0,0.8,0.5,1.5,1.2,1.5c0.7,0,1.2-0.6,1.2-1.5c0-0.7-0.3-1.5-1.2-1.5C87.8,13.1,87.5,13.8,87.5,14.6z"/>
		<path class="st0" d="M91.3,15.8c0.2,0.1,0.6,0.3,0.9,0.3c0.5,0,0.8-0.3,0.8-0.6c0-0.3-0.2-0.5-0.7-0.7c-0.7-0.2-1-0.6-1-1.1
			c0-0.6,0.5-1.1,1.3-1.1c0.4,0,0.7,0.1,1,0.2l-0.2,0.5c-0.2-0.1-0.4-0.2-0.8-0.2c-0.4,0-0.6,0.2-0.6,0.5c0,0.3,0.2,0.5,0.7,0.7
			c0.7,0.3,1,0.6,1,1.2c0,0.7-0.5,1.2-1.4,1.2c-0.4,0-0.8-0.1-1.1-0.3L91.3,15.8z"/>
		<path class="st0" d="M97.4,16.4c-0.2,0.1-0.6,0.2-1.1,0.2c-1.2,0-1.9-0.8-1.9-2c0-1.2,0.8-2.1,2.1-2.1c0.4,0,0.8,0.1,1,0.2
			l-0.2,0.5c-0.2-0.1-0.4-0.2-0.8-0.2c-0.9,0-1.4,0.7-1.4,1.5c0,0.9,0.6,1.4,1.3,1.4c0.4,0,0.7-0.1,0.9-0.2L97.4,16.4z"/>
		<path class="st0" d="M99,11.6c0,0.2-0.2,0.4-0.4,0.4c-0.2,0-0.4-0.2-0.4-0.4c0-0.2,0.2-0.4,0.4-0.4C98.8,11.1,99,11.3,99,11.6z
			 M98.2,16.5v-3.9h0.7v3.9H98.2z"/>
		<path class="st0" d="M100.9,11.5v1.1h1v0.5h-1v2.1c0,0.5,0.1,0.8,0.5,0.8c0.2,0,0.3,0,0.4,0l0,0.5c-0.1,0.1-0.4,0.1-0.6,0.1
			c-0.3,0-0.6-0.1-0.8-0.3c-0.2-0.2-0.3-0.6-0.3-1v-2.1h-0.6v-0.5h0.6v-0.9L100.9,11.5z"/>
		<path class="st0" d="M103.5,11.6c0,0.2-0.2,0.4-0.4,0.4c-0.2,0-0.4-0.2-0.4-0.4c0-0.2,0.2-0.4,0.4-0.4
			C103.3,11.1,103.5,11.3,103.5,11.6z M102.7,16.5v-3.9h0.7v3.9H102.7z"/>
		<path class="st0" d="M104.9,12.6l0.8,2.2c0.1,0.4,0.2,0.7,0.3,1h0c0.1-0.3,0.2-0.6,0.3-1l0.8-2.2h0.7l-1.5,3.9h-0.7l-1.5-3.9
			H104.9z"/>
		<path class="st0" d="M111.9,14.5c0,1.4-1,2.1-1.9,2.1c-1,0-1.9-0.8-1.9-2c0-1.3,0.8-2.1,1.9-2.1C111.1,12.6,111.9,13.4,111.9,14.5
			z M108.8,14.6c0,0.8,0.5,1.5,1.2,1.5c0.7,0,1.2-0.6,1.2-1.5c0-0.7-0.3-1.5-1.2-1.5C109.1,13.1,108.8,13.8,108.8,14.6z"/>
	</g>
</g>
</svg>
