<!-- Generator: Adobe Illustrator 20.1.0, SVG Export Plug-In  -->
<svg version="1.1"
	 xmlns="http://www.w3.org/2000/svg" xmlns:xlink="http://www.w3.org/1999/xlink" xmlns:a="http://ns.adobe.com/AdobeSVGViewerExtensions/3.0/"
	 x="0px" y="0px" width="289.8px" height="62.1px" viewBox="0 0 289.8 62.1"
	 style="overflow:scroll;enable-background:new 0 0 289.8 62.1;" xml:space="preserve">
<style type="text/css">
	.st0{fill:#DA0962;}
</style>
<defs>
</defs>
<g>
	<g>
		<path class="st0" d="M26.7,6h-3.5v2.2h3.9V10h-6V0.5h5.8v1.8h-3.7v2h3.5V6z"/>
		<path class="st0" d="M30.2,3.1l0.7,1.1c0.2,0.3,0.4,0.7,0.6,1h0c0.2-0.4,0.4-0.7,0.5-1.1l0.6-1.1h2.3l-2.3,3.3l2.3,3.6h-2.4
			l-0.7-1.2c-0.2-0.3-0.4-0.7-0.5-1h0c-0.2,0.4-0.4,0.7-0.5,1L30.1,10h-2.3l2.3-3.5l-2.3-3.4H30.2z"/>
		<path class="st0" d="M38.4,1.1v2h1.5v1.6h-1.5v2.5c0,0.8,0.2,1.2,0.8,1.2c0.3,0,0.5,0,0.6-0.1l0,1.6c-0.3,0.1-0.8,0.2-1.4,0.2
			c-0.7,0-1.3-0.2-1.6-0.6c-0.4-0.4-0.6-1.1-0.6-2V4.7h-0.9V3.1h0.9V1.6L38.4,1.1z"/>
		<path class="st0" d="M41.3,5.4c0-1,0-1.7-0.1-2.3H43l0.1,1.3h0.1C43.5,3.4,44.4,3,45,3c0.2,0,0.3,0,0.4,0v2
			c-0.2,0-0.3-0.1-0.6-0.1c-0.8,0-1.3,0.4-1.5,1.1c0,0.1,0,0.3,0,0.5V10h-2.1V5.4z"/>
		<path class="st0" d="M50.6,10l-0.1-0.7h0c-0.4,0.5-1.1,0.8-2,0.8c-1.4,0-2.2-1-2.2-2.1c0-1.8,1.6-2.6,4-2.6V5.3
			c0-0.4-0.2-0.9-1.2-0.9c-0.7,0-1.4,0.2-1.9,0.5l-0.4-1.4C47.2,3.3,48.2,3,49.4,3c2.3,0,3,1.3,3,3v2.4c0,0.7,0,1.3,0.1,1.7H50.6z
			 M50.4,6.7c-1.1,0-2,0.3-2,1.1c0,0.5,0.4,0.8,0.8,0.8c0.5,0,1-0.4,1.1-0.8c0-0.1,0-0.2,0-0.4V6.7z"/>
		<path class="st0" d="M59.4,9.8c-0.4,0.2-1.1,0.3-1.9,0.3c-2.2,0-3.6-1.3-3.6-3.5c0-2,1.4-3.6,3.9-3.6c0.6,0,1.2,0.1,1.6,0.3
			l-0.3,1.6c-0.3-0.1-0.6-0.2-1.2-0.2c-1.1,0-1.8,0.8-1.8,1.9c0,1.3,0.8,1.9,1.9,1.9c0.5,0,0.9-0.1,1.2-0.2L59.4,9.8z"/>
		<path class="st0" d="M63.1,1.1v2h1.5v1.6h-1.5v2.5c0,0.8,0.2,1.2,0.8,1.2c0.3,0,0.5,0,0.6-0.1l0,1.6c-0.3,0.1-0.8,0.2-1.4,0.2
			c-0.7,0-1.3-0.2-1.6-0.6c-0.4-0.4-0.6-1.1-0.6-2V4.7h-0.9V3.1H61V1.6L63.1,1.1z"/>
		<path class="st0" d="M72.8,6.5c0,2.5-1.8,3.7-3.6,3.7c-2,0-3.5-1.3-3.5-3.5S67.1,3,69.3,3C71.4,3,72.8,4.4,72.8,6.5z M67.8,6.5
			c0,1.2,0.5,2.1,1.4,2.1c0.8,0,1.4-0.8,1.4-2.1c0-1-0.4-2.1-1.4-2.1C68.2,4.5,67.8,5.5,67.8,6.5z"/>
		<path class="st0" d="M83.8,0v7.9c0,0.8,0,1.6,0.1,2H82l-0.1-1h0c-0.4,0.8-1.3,1.2-2.1,1.2c-1.6,0-2.9-1.4-2.9-3.5
			c0-2.3,1.4-3.6,3.1-3.6c0.8,0,1.5,0.3,1.8,0.8h0V0H83.8z M81.7,6c0-0.1,0-0.3,0-0.4c-0.1-0.6-0.6-1.1-1.2-1.1
			c-1,0-1.5,0.9-1.5,1.9c0,1.2,0.6,1.9,1.5,1.9c0.6,0,1.1-0.4,1.2-1c0-0.2,0.1-0.3,0.1-0.5V6z"/>
		<path class="st0" d="M87.3,7.2c0.1,0.9,0.9,1.3,1.9,1.3c0.7,0,1.3-0.1,1.9-0.3l0.3,1.4c-0.7,0.3-1.6,0.4-2.5,0.4
			c-2.3,0-3.7-1.3-3.7-3.5c0-1.7,1.1-3.7,3.5-3.7c2.2,0,3.1,1.7,3.1,3.4c0,0.4,0,0.7-0.1,0.8H87.3z M89.8,5.8c0-0.5-0.2-1.4-1.2-1.4
			c-0.9,0-1.3,0.8-1.3,1.4H89.8z"/>
		<path class="st0" d="M104.8,6h-3.5v2.2h3.9V10h-6V0.5h5.8v1.8h-3.7v2h3.5V6z"/>
		<path class="st0" d="M114.7,9.5c-0.7,0.2-1.9,0.5-3.2,0.5c-1.7,0-3-0.4-3.8-1.3c-0.9-0.8-1.3-2-1.3-3.4c0-3.1,2.3-4.9,5.4-4.9
			c1.2,0,2.2,0.2,2.6,0.5l-0.4,1.7c-0.5-0.2-1.2-0.4-2.2-0.4c-1.8,0-3.1,1-3.1,3.1c0,1.9,1.2,3.1,3,3.1c0.5,0,0.9-0.1,1.1-0.1v-2
			h-1.5V4.6h3.5V9.5z"/>
		<path class="st0" d="M116.4,10c0-0.4,0.1-1.3,0.1-2V0h2.1v3.9h0c0.4-0.6,1.1-1,2.1-1c1.6,0,2.8,1.4,2.8,3.5c0,2.5-1.6,3.7-3.1,3.7
			c-0.8,0-1.6-0.3-2.1-1.1h0l-0.1,1H116.4z M118.6,7c0,0.1,0,0.3,0,0.4c0.1,0.6,0.6,1,1.2,1c0.9,0,1.5-0.7,1.5-1.9
			c0-1.1-0.5-1.9-1.5-1.9c-0.6,0-1.1,0.4-1.2,1.1c0,0.1,0,0.3,0,0.4V7z"/>
		<path class="st0" d="M131.2,0.9v1.3l-3.8,7.8h-2.3l3.8-7.3v0h-4.2V0.9H131.2z"/>
		<path class="st0" d="M138.4,2.4c-0.2,0-0.5,0-0.8,0c-1.9,0.2-2.7,1.1-3,2.2h0c0.4-0.5,1.1-0.7,1.9-0.7c1.5,0,2.8,1.1,2.8,3
			c0,1.8-1.4,3.3-3.4,3.3c-2.4,0-3.6-1.8-3.6-4c0-1.7,0.6-3.1,1.6-4c0.9-0.8,2.1-1.3,3.5-1.3c0.4,0,0.6,0,0.9,0V2.4z M137.2,6.9
			c0-0.8-0.4-1.6-1.4-1.6c-0.6,0-1.1,0.4-1.3,0.8c-0.1,0.1-0.1,0.3-0.1,0.5c0,1,0.5,1.8,1.5,1.8C136.8,8.5,137.2,7.9,137.2,6.9z"/>
		<path class="st0" d="M143.2,2.7L143.2,2.7l-1.8,0.8L141.1,2l2.4-1.1h1.8V10h-2.1V2.7z"/>
		<path class="st0" d="M153.5,2.8c0,1.3-1.1,2.4-2.5,2.4s-2.5-1.1-2.5-2.4c0-1.3,1.1-2.4,2.5-2.4S153.5,1.4,153.5,2.8z M149.3,2.8
			c0,1,0.7,1.8,1.8,1.8c1,0,1.8-0.8,1.8-1.8c0-1-0.7-1.8-1.8-1.8C150,1,149.3,1.8,149.3,2.8z M150.7,3.9H150V1.7
			c0.2,0,0.5-0.1,1-0.1c0.5,0,0.7,0.1,0.9,0.2c0.1,0.1,0.2,0.3,0.2,0.5c0,0.2-0.2,0.4-0.5,0.5v0c0.3,0.1,0.4,0.3,0.5,0.6
			c0.1,0.3,0.1,0.4,0.2,0.5h-0.8c-0.1-0.1-0.1-0.3-0.2-0.5c0-0.2-0.2-0.3-0.4-0.3h-0.2V3.9z M150.8,2.6h0.2c0.3,0,0.4-0.1,0.4-0.3
			c0-0.2-0.2-0.3-0.4-0.3c-0.1,0-0.2,0-0.2,0V2.6z"/>
		<path class="st0" d="M160.9,0.2c-1.2,1.4-2,3.2-2,5.8c0,2.5,0.8,4.2,2,5.7h-0.6c-1-1.2-2-3-2-5.7c0-2.8,1-4.5,2-5.8H160.9z"/>
		<path class="st0" d="M169.1,9.6c-0.5,0.2-1.5,0.5-2.8,0.5c-1.2,0-2.4-0.3-3.3-1.2c-0.8-0.8-1.3-2-1.3-3.6c0-2.6,1.7-4.8,4.9-4.8
			c1,0,1.8,0.2,2.2,0.4l-0.2,0.5c-0.5-0.2-1.1-0.4-2-0.4c-2.6,0-4.2,1.7-4.2,4.3c0,2.7,1.6,4.3,4,4.3c1,0,1.6-0.1,2-0.3V5.8h-2.2
			V5.3h2.9V9.6z"/>
		<path class="st0" d="M171.5,1.9c-0.3,0-0.5-0.3-0.5-0.6c0-0.3,0.2-0.6,0.5-0.6s0.5,0.3,0.5,0.6C172.1,1.6,171.9,1.9,171.5,1.9
			L171.5,1.9z M171.2,10V3.2h0.7V10H171.2z"/>
		<path class="st0" d="M174.3,4.8c0-0.6,0-1.1-0.1-1.6h0.6l0,1.2h0c0.4-0.8,1.2-1.4,2.3-1.4c0.6,0,2.4,0.3,2.4,2.8v4h-0.7V6
			c0-1.2-0.5-2.3-1.9-2.3c-0.9,0-1.8,0.7-2,1.6c0,0.2-0.1,0.4-0.1,0.6V10h-0.7V4.8z"/>
		<path class="st0" d="M182.6,6.5L182.6,6.5c0.2-0.2,0.5-0.5,0.7-0.7l2.4-2.5h0.8L183.7,6l3.1,3.9H186l-2.7-3.5l-0.7,0.7V10h-0.7V0
			h0.7V6.5z"/>
		<path class="st0" d="M193.3,9c0,1.7-0.4,2.6-0.9,3.1c-0.6,0.6-1.5,0.8-2.3,0.8c-0.8,0-1.6-0.2-2.1-0.6l0.2-0.5
			c0.5,0.3,1.1,0.6,2,0.6c1.4,0,2.4-0.7,2.4-2.7v-1h0c-0.4,0.7-1.1,1.3-2.3,1.3c-1.7,0-2.9-1.5-2.9-3.3c0-2.3,1.5-3.6,3-3.6
			c1.3,0,2,0.7,2.3,1.3h0l0-1.1h0.6c0,0.5-0.1,1-0.1,1.7V9z M192.7,5.8c0-0.3,0-0.5-0.1-0.7c-0.3-0.8-1-1.5-2.1-1.5
			c-1.4,0-2.4,1.2-2.4,2.9c0,1.5,0.8,2.8,2.4,2.8c0.9,0,1.7-0.6,2.1-1.5c0.1-0.2,0.1-0.5,0.1-0.7V5.8z"/>
		<path class="st0" d="M198.3,10.1c-1.7,0-3.1-1.4-3.1-3.5c0-2.3,1.5-3.6,3.2-3.6c1.9,0,3.1,1.4,3.1,3.5
			C201.5,9,199.8,10.1,198.3,10.1L198.3,10.1z M198.3,9.6c1.4,0,2.5-1.3,2.5-3c0-1.2-0.7-2.9-2.5-2.9c-1.7,0-2.5,1.5-2.5,3
			C195.8,8.3,196.9,9.6,198.3,9.6L198.3,9.6z"/>
		<path class="st0" d="M206.5,0.7c0.5-0.1,1.2-0.2,1.9-0.2c1.2,0,1.9,0.3,2.5,0.8c0.4,0.4,0.6,0.9,0.6,1.5c0,1-0.7,1.8-1.6,2.1v0
			c0.8,0.2,2,0.9,2,2.4c0,0.8-0.3,1.4-0.7,1.8c-0.6,0.6-1.7,0.9-3,0.9c-0.7,0-1.3-0.1-1.6-0.1V0.7z M207.2,4.7h1.4
			c1.4,0,2.2-0.8,2.2-1.8c0-1.3-1-1.8-2.4-1.8c-0.6,0-1,0-1.2,0.1V4.7z M207.2,9.4c0.3,0.1,0.7,0.1,1.2,0.1c1.4,0,2.8-0.5,2.8-2.1
			c0-1.5-1.3-2.1-2.8-2.1h-1.2V9.4z"/>
		<path class="st0" d="M214,1.9c-0.3,0-0.5-0.3-0.5-0.6c0-0.3,0.2-0.6,0.5-0.6s0.5,0.3,0.5,0.6C214.6,1.6,214.4,1.9,214,1.9L214,1.9
			z M213.7,10V3.2h0.7V10H213.7z"/>
		<path class="st0" d="M216.8,0h0.7v10h-0.7V0z"/>
		<path class="st0" d="M222.4,10.1c-1.7,0-3.1-1.4-3.1-3.5c0-2.3,1.5-3.6,3.2-3.6c1.9,0,3.1,1.4,3.1,3.5
			C225.7,9,223.9,10.1,222.4,10.1L222.4,10.1z M222.5,9.6c1.4,0,2.5-1.3,2.5-3c0-1.2-0.7-2.9-2.5-2.9c-1.7,0-2.5,1.5-2.5,3
			C220,8.3,221.1,9.6,222.5,9.6L222.5,9.6z"/>
		<path class="st0" d="M227.5,0h0.7v4.5h0c0.4-0.9,1.3-1.4,2.5-1.4c1.7,0,2.9,1.4,2.9,3.4c0,2.4-1.5,3.6-3,3.6
			c-1.1,0-1.9-0.4-2.4-1.4h0L228,10h-0.6c0-0.5,0.1-1.1,0.1-1.6V0z M228.2,7.4c0,0.2,0,0.3,0.1,0.5c0.3,1,1.2,1.7,2.2,1.7
			c1.5,0,2.4-1.3,2.4-3c0-1.5-0.8-2.9-2.4-2.9c-1,0-1.9,0.7-2.2,1.8c0,0.2-0.1,0.4-0.1,0.6V7.4z"/>
		<path class="st0" d="M239.6,8.4c0,0.5,0,1.1,0.1,1.6H239l-0.1-1h0c-0.3,0.5-1.1,1.1-2.2,1.1c-1.4,0-2-1-2-1.8
			c0-1.6,1.4-2.5,4.1-2.5V5.6c0-0.7-0.1-2-1.7-2c-0.6,0-1.2,0.2-1.7,0.5l-0.2-0.5c0.6-0.4,1.4-0.6,2-0.6c1.9,0,2.3,1.5,2.3,2.6V8.4z
			 M238.9,6.4c-1.5,0-3.4,0.2-3.4,1.8c0,1,0.6,1.4,1.3,1.4c1.1,0,1.8-0.7,2-1.3c0.1-0.1,0.1-0.3,0.1-0.4V6.4z"/>
		<path class="st0" d="M240.9,11.7c1.1-1.4,2-3.2,2-5.8c0-2.5-0.8-4.3-2-5.7h0.6c1,1.2,2,3,2,5.7c0,2.8-1,4.5-2,5.7H240.9z"/>
		<path class="st0" d="M250,3.1l1,3.4c0.1,0.4,0.3,0.9,0.3,1.3h0c0.1-0.4,0.2-0.9,0.3-1.3l0.8-3.4h2.3l-1.6,4.5
			c-1,2.7-1.6,3.8-2.4,4.5c-0.7,0.6-1.5,0.9-2.1,0.9l-0.4-1.8c0.3,0,0.6-0.2,0.9-0.4c0.3-0.2,0.7-0.5,0.9-0.9
			c0.1-0.1,0.1-0.2,0.1-0.3c0-0.1,0-0.2-0.1-0.3l-2.5-6.3H250z"/>
		<path class="st0" d="M260.5,7.2c0.1,0.9,0.9,1.3,1.9,1.3c0.7,0,1.3-0.1,1.9-0.3l0.3,1.4c-0.7,0.3-1.6,0.4-2.5,0.4
			c-2.3,0-3.7-1.3-3.7-3.5c0-1.7,1.1-3.7,3.5-3.7c2.2,0,3.1,1.7,3.1,3.4c0,0.4,0,0.7-0.1,0.8H260.5z M263,5.8c0-0.5-0.2-1.4-1.2-1.4
			c-0.9,0-1.3,0.8-1.3,1.4H263z"/>
		<path class="st0" d="M266.4,0h2.1V10h-2.1V0z"/>
		<path class="st0" d="M36.4,17.4c0.8-0.1,1.8-0.2,2.9-0.2c1.8,0,3,0.3,3.9,1c1,0.7,1.6,1.9,1.6,3.6c0,1.8-0.7,3.1-1.6,3.8
			c-1,0.8-2.5,1.2-4.4,1.2c-1.1,0-1.9-0.1-2.4-0.1V17.4z M38.5,25.1c0.2,0,0.5,0,0.7,0c1.9,0,3.2-1.1,3.2-3.3c0-2-1.1-3-3-3
			c-0.5,0-0.8,0-1,0.1V25.1z"/>
		<path class="st0" d="M47.9,24c0.1,0.9,0.9,1.3,1.9,1.3c0.7,0,1.3-0.1,1.9-0.3l0.3,1.4c-0.7,0.3-1.6,0.4-2.5,0.4
			c-2.3,0-3.7-1.3-3.7-3.5c0-1.7,1.1-3.7,3.5-3.7c2.2,0,3.1,1.7,3.1,3.4c0,0.4,0,0.7-0.1,0.8H47.9z M50.4,22.6
			c0-0.5-0.2-1.4-1.2-1.4c-0.9,0-1.3,0.8-1.3,1.4H50.4z"/>
		<path class="st0" d="M56.1,17.9v2h1.5v1.6h-1.5V24c0,0.8,0.2,1.2,0.8,1.2c0.3,0,0.5,0,0.6-0.1l0,1.6c-0.3,0.1-0.8,0.2-1.4,0.2
			c-0.7,0-1.3-0.2-1.6-0.6c-0.4-0.4-0.6-1.1-0.6-2v-2.8h-0.9v-1.6H54v-1.5L56.1,17.9z"/>
		<path class="st0" d="M60.7,24c0.1,0.9,0.9,1.3,1.9,1.3c0.7,0,1.3-0.1,1.9-0.3l0.3,1.4c-0.7,0.3-1.6,0.4-2.5,0.4
			c-2.3,0-3.7-1.3-3.7-3.5c0-1.7,1.1-3.7,3.5-3.7c2.2,0,3.1,1.7,3.1,3.4c0,0.4,0,0.7-0.1,0.8H60.7z M63.2,22.6
			c0-0.5-0.2-1.4-1.2-1.4c-0.9,0-1.3,0.8-1.3,1.4H63.2z"/>
		<path class="st0" d="M66.6,22.2c0-1,0-1.7-0.1-2.3h1.8l0.1,1.3h0.1c0.4-1,1.2-1.4,1.8-1.4c0.2,0,0.3,0,0.4,0v2
			c-0.2,0-0.3-0.1-0.6-0.1c-0.8,0-1.3,0.4-1.5,1.1c0,0.1,0,0.3,0,0.5v3.5h-2.1V22.2z"/>
		<path class="st0" d="M74.2,18c0,0.6-0.4,1.1-1.1,1.1c-0.7,0-1.1-0.5-1.1-1.1c0-0.6,0.4-1.1,1.1-1.1C73.8,16.9,74.2,17.4,74.2,18z
			 M72,26.8v-6.8h2.1v6.8H72z"/>
		<path class="st0" d="M82.8,23.3c0,2.5-1.8,3.7-3.6,3.7c-2,0-3.5-1.3-3.5-3.5s1.5-3.6,3.7-3.6C81.4,19.8,82.8,21.2,82.8,23.3z
			 M77.8,23.3c0,1.2,0.5,2.1,1.4,2.1c0.8,0,1.4-0.8,1.4-2.1c0-1-0.4-2.1-1.4-2.1C78.2,21.3,77.8,22.3,77.8,23.3z"/>
		<path class="st0" d="M84.2,22.2c0-1,0-1.7-0.1-2.3H86l0.1,1.3h0.1c0.4-1,1.2-1.4,1.8-1.4c0.2,0,0.3,0,0.4,0v2
			c-0.2,0-0.3-0.1-0.6-0.1c-0.8,0-1.3,0.4-1.5,1.1c0,0.1,0,0.3,0,0.5v3.5h-2.1V22.2z"/>
		<path class="st0" d="M96.4,23.3c0,2.5-1.8,3.7-3.6,3.7c-2,0-3.5-1.3-3.5-3.5s1.5-3.6,3.7-3.6C95,19.8,96.4,21.2,96.4,23.3z
			 M91.5,23.3c0,1.2,0.5,2.1,1.4,2.1c0.8,0,1.4-0.8,1.4-2.1c0-1-0.4-2.1-1.4-2.1C91.9,21.3,91.5,22.3,91.5,23.3z"/>
		<path class="st0" d="M107.9,26.5c-0.4,0.2-1.3,0.4-2.4,0.4c-3.3,0-4.9-2-4.9-4.7c0-3.2,2.3-5,5.2-5c1.1,0,1.9,0.2,2.3,0.4
			l-0.4,1.7c-0.4-0.2-1-0.3-1.8-0.3c-1.7,0-3,1-3,3.1c0,1.9,1.1,3.1,3,3.1c0.6,0,1.4-0.1,1.8-0.3L107.9,26.5z"/>
		<path class="st0" d="M116.1,23.3c0,2.5-1.8,3.7-3.6,3.7c-2,0-3.5-1.3-3.5-3.5s1.5-3.6,3.7-3.6C114.7,19.8,116.1,21.2,116.1,23.3z
			 M111.1,23.3c0,1.2,0.5,2.1,1.4,2.1c0.8,0,1.4-0.8,1.4-2.1c0-1-0.4-2.1-1.4-2.1C111.5,21.3,111.1,22.3,111.1,23.3z"/>
		<path class="st0" d="M124.1,19.9c0,0.4-0.1,1-0.1,2v3.8c0,1.3-0.3,2.4-1,3.1c-0.8,0.6-1.8,0.8-2.8,0.8c-0.9,0-1.8-0.2-2.5-0.5
			l0.4-1.6c0.4,0.3,1.2,0.5,2,0.5c1,0,1.8-0.5,1.8-1.8v-0.4h0c-0.4,0.6-1.1,0.9-1.8,0.9c-1.7,0-2.9-1.4-2.9-3.3
			c0-2.2,1.4-3.6,3.1-3.6c0.9,0,1.5,0.4,1.9,1h0l0.1-0.8H124.1z M121.9,22.7c0-0.1,0-0.3,0-0.4c-0.2-0.6-0.6-0.9-1.1-0.9
			c-0.8,0-1.4,0.7-1.4,1.9c0,1,0.5,1.8,1.4,1.8c0.5,0,1-0.4,1.1-0.9c0.1-0.2,0.1-0.4,0.1-0.6V22.7z"/>
		<path class="st0" d="M125.9,22.1c0-0.9,0-1.6-0.1-2.2h1.8l0.1,0.9h0c0.3-0.4,1-1.1,2.1-1.1c1.4,0,2.5,0.9,2.5,2.9v4.1h-2.1V23
			c0-0.9-0.3-1.5-1.1-1.5c-0.6,0-0.9,0.4-1.1,0.8c-0.1,0.1-0.1,0.3-0.1,0.5v4h-2.1V22.1z"/>
		<path class="st0" d="M136.4,18c0,0.6-0.4,1.1-1.1,1.1c-0.7,0-1.1-0.5-1.1-1.1c0-0.6,0.4-1.1,1.1-1.1S136.4,17.4,136.4,18z
			 M134.2,26.8v-6.8h2.1v6.8H134.2z"/>
		<path class="st0" d="M140.6,17.9v2h1.5v1.6h-1.5V24c0,0.8,0.2,1.2,0.8,1.2c0.3,0,0.5,0,0.6-0.1l0,1.6c-0.3,0.1-0.8,0.2-1.4,0.2
			c-0.7,0-1.3-0.2-1.6-0.6c-0.4-0.4-0.6-1.1-0.6-2v-2.8h-0.9v-1.6h0.9v-1.5L140.6,17.9z"/>
		<path class="st0" d="M145.7,18c0,0.6-0.4,1.1-1.1,1.1c-0.7,0-1.1-0.5-1.1-1.1c0-0.6,0.4-1.1,1.1-1.1S145.7,17.4,145.7,18z
			 M143.5,26.8v-6.8h2.1v6.8H143.5z"/>
		<path class="st0" d="M149,19.9l0.9,3.2c0.2,0.6,0.3,1.1,0.4,1.7h0c0.1-0.6,0.2-1.1,0.4-1.7l0.9-3.2h2.2l-2.5,6.8h-2.1l-2.5-6.8
			H149z"/>
		<path class="st0" d="M161.8,23.3c0,2.5-1.8,3.7-3.6,3.7c-2,0-3.5-1.3-3.5-3.5s1.5-3.6,3.7-3.6C160.4,19.8,161.8,21.2,161.8,23.3z
			 M156.8,23.3c0,1.2,0.5,2.1,1.4,2.1c0.8,0,1.4-0.8,1.4-2.1c0-1-0.4-2.1-1.4-2.1C157.2,21.3,156.8,22.3,156.8,23.3z"/>
		<path class="st0" d="M170.1,26.8l-0.1-0.7h0c-0.4,0.5-1.1,0.8-2,0.8c-1.4,0-2.2-1-2.2-2.1c0-1.8,1.6-2.6,4-2.6v-0.1
			c0-0.4-0.2-0.9-1.2-0.9c-0.7,0-1.4,0.2-1.9,0.5l-0.4-1.4c0.5-0.3,1.4-0.6,2.7-0.6c2.3,0,3,1.3,3,3v2.4c0,0.7,0,1.3,0.1,1.7H170.1z
			 M169.8,23.5c-1.1,0-2,0.3-2,1.1c0,0.5,0.4,0.8,0.8,0.8c0.5,0,1-0.4,1.1-0.8c0-0.1,0-0.2,0-0.4V23.5z"/>
		<path class="st0" d="M176.8,17.3h2.1V25h3.8v1.8h-5.9V17.3z"/>
		<path class="st0" d="M187.9,26.8l-0.1-0.7h0c-0.4,0.5-1.1,0.8-2,0.8c-1.4,0-2.2-1-2.2-2.1c0-1.8,1.6-2.6,4-2.6v-0.1
			c0-0.4-0.2-0.9-1.2-0.9c-0.7,0-1.4,0.2-1.9,0.5l-0.4-1.4c0.5-0.3,1.4-0.6,2.7-0.6c2.3,0,3,1.3,3,3v2.4c0,0.7,0,1.3,0.1,1.7H187.9z
			 M187.6,23.5c-1.1,0-2,0.3-2,1.1c0,0.5,0.4,0.8,0.8,0.8c0.5,0,1-0.4,1.1-0.8c0-0.1,0-0.2,0-0.4V23.5z"/>
		<path class="st0" d="M191.5,22.2c0-1,0-1.7-0.1-2.3h1.8l0.1,1.3h0.1c0.4-1,1.2-1.4,1.8-1.4c0.2,0,0.3,0,0.4,0v2
			c-0.2,0-0.3-0.1-0.6-0.1c-0.8,0-1.3,0.4-1.5,1.1c0,0.1,0,0.3,0,0.5v3.5h-2.1V22.2z"/>
		<path class="st0" d="M203.5,19.9c0,0.4-0.1,1-0.1,2v3.8c0,1.3-0.3,2.4-1,3.1c-0.8,0.6-1.8,0.8-2.8,0.8c-0.9,0-1.8-0.2-2.5-0.5
			l0.4-1.6c0.4,0.3,1.2,0.5,2,0.5c1,0,1.8-0.5,1.8-1.8v-0.4h0c-0.4,0.6-1.1,0.9-1.8,0.9c-1.7,0-2.9-1.4-2.9-3.3
			c0-2.2,1.4-3.6,3.1-3.6c0.9,0,1.5,0.4,1.9,1h0l0.1-0.8H203.5z M201.3,22.7c0-0.1,0-0.3,0-0.4c-0.2-0.6-0.6-0.9-1.1-0.9
			c-0.8,0-1.4,0.7-1.4,1.9c0,1,0.5,1.8,1.4,1.8c0.5,0,1-0.4,1.1-0.9c0.1-0.2,0.1-0.4,0.1-0.6V22.7z"/>
		<path class="st0" d="M212.1,23.3c0,2.5-1.8,3.7-3.6,3.7c-2,0-3.5-1.3-3.5-3.5s1.5-3.6,3.7-3.6C210.7,19.8,212.1,21.2,212.1,23.3z
			 M207.1,23.3c0,1.2,0.5,2.1,1.4,2.1c0.8,0,1.4-0.8,1.4-2.1c0-1-0.4-2.1-1.4-2.1C207.5,21.3,207.1,22.3,207.1,23.3z"/>
		<path class="st0" d="M216.6,17.4c0.7-0.1,1.6-0.2,2.9-0.2c1.3,0,2.3,0.3,2.9,0.8c0.6,0.5,1,1.3,1,2.2c0,0.9-0.3,1.7-0.9,2.2
			c-0.7,0.7-1.8,1-3.1,1c-0.3,0-0.5,0-0.7,0v3.4h-2.1V17.4z M218.7,21.7c0.2,0,0.4,0.1,0.7,0.1c1.1,0,1.8-0.6,1.8-1.5
			c0-0.9-0.6-1.4-1.7-1.4c-0.4,0-0.7,0-0.9,0.1V21.7z"/>
		<path class="st0" d="M224.8,16.8h2.1v9.9h-2.1V16.8z"/>
		<path class="st0" d="M232.7,26.8l-0.1-0.7h0c-0.4,0.5-1.1,0.8-2,0.8c-1.4,0-2.2-1-2.2-2.1c0-1.8,1.6-2.6,4-2.6v-0.1
			c0-0.4-0.2-0.9-1.2-0.9c-0.7,0-1.4,0.2-1.9,0.5l-0.4-1.4c0.5-0.3,1.4-0.6,2.7-0.6c2.3,0,3,1.3,3,3v2.4c0,0.7,0,1.3,0.1,1.7H232.7z
			 M232.4,23.5c-1.1,0-2,0.3-2,1.1c0,0.5,0.4,0.8,0.8,0.8c0.5,0,1-0.4,1.1-0.8c0-0.1,0-0.2,0-0.4V23.5z"/>
		<path class="st0" d="M235.7,25.5l2.2-2.7c0.4-0.5,0.7-0.8,1.1-1.2v0h-3v-1.7h5.6v1.3l-2.1,2.6c-0.4,0.4-0.7,0.9-1.1,1.3v0h3.3v1.7
			h-6V25.5z"/>
		<path class="st0" d="M249.8,23.3c0,2.5-1.8,3.7-3.6,3.7c-2,0-3.5-1.3-3.5-3.5s1.5-3.6,3.7-3.6C248.4,19.8,249.8,21.2,249.8,23.3z
			 M244.8,23.3c0,1.2,0.5,2.1,1.4,2.1c0.8,0,1.4-0.8,1.4-2.1c0-1-0.4-2.1-1.4-2.1C245.2,21.3,244.8,22.3,244.8,23.3z"/>
		<path class="st0" d="M251.1,21.1c0-0.8,0.5-1.3,1.3-1.3c0.7,0,1.2,0.5,1.2,1.3c0,0.7-0.5,1.3-1.3,1.3
			C251.6,22.4,251.1,21.8,251.1,21.1z M251.1,25.6c0-0.7,0.5-1.3,1.3-1.3c0.7,0,1.2,0.5,1.2,1.3c0,0.7-0.5,1.3-1.3,1.3
			C251.6,26.9,251.1,26.4,251.1,25.6z"/>
		<path class="st0" d="M0.7,34.1v5.7c0,2.4,1.1,3.3,2.5,3.3c1.6,0,2.6-1,2.6-3.3v-5.7h0.7v5.6c0,2.9-1.6,4-3.3,4
			c-1.7,0-3.2-1-3.2-3.9v-5.7H0.7z"/>
		<path class="st0" d="M8.9,38.4c0-0.6,0-1.1-0.1-1.6h0.6l0,1.2h0c0.4-0.8,1.2-1.4,2.3-1.4c0.6,0,2.4,0.3,2.4,2.8v4h-0.7v-4
			c0-1.2-0.5-2.3-1.9-2.3c-0.9,0-1.8,0.7-2,1.6c0,0.2-0.1,0.4-0.1,0.6v4.2H8.9V38.4z"/>
		<path class="st0" d="M24.2,38.9h-3.8V43h4.2v0.6h-4.9v-9.4h4.7v0.6h-4v3.6h3.8V38.9z"/>
		<path class="st0" d="M26.1,42.7c0.4,0.2,0.9,0.5,1.5,0.5c1.1,0,1.6-0.6,1.6-1.3c0-0.7-0.4-1.1-1.4-1.5c-1.1-0.4-1.7-1-1.7-1.8
			c0-1,0.8-1.8,2.1-1.8c0.6,0,1.1,0.2,1.5,0.4l-0.3,0.5c-0.2-0.2-0.7-0.4-1.3-0.4c-0.9,0-1.3,0.5-1.3,1.2c0,0.7,0.5,1,1.4,1.4
			c1.1,0.4,1.7,1,1.7,2c0,1.1-0.9,1.9-2.3,1.9c-0.6,0-1.3-0.2-1.7-0.5L26.1,42.7z"/>
		<path class="st0" d="M32.7,35.4v1.5h1.9v0.5h-1.9v4.4c0,0.9,0.3,1.4,1,1.4c0.4,0,0.6,0,0.8-0.1l0.1,0.5c-0.2,0.1-0.5,0.2-0.9,0.2
			c-0.5,0-0.9-0.2-1.1-0.5c-0.3-0.4-0.4-0.9-0.4-1.6v-4.2h-1.1v-0.5H32v-1.2L32.7,35.4z"/>
		<path class="st0" d="M41.4,41.9c0,0.6,0,1.1,0.1,1.6h-0.6l0-1.2h0c-0.3,0.6-1.1,1.4-2.3,1.4c-0.9,0-2.3-0.4-2.3-3v-3.9h0.7v3.8
			c0,1.5,0.4,2.5,1.8,2.5c1,0,1.7-0.7,2-1.4c0.1-0.2,0.1-0.5,0.1-0.7v-4.2h0.7V41.9z"/>
		<path class="st0" d="M49.2,33.6V42c0,0.5,0,1.1,0.1,1.6h-0.6l-0.1-1.3h0c-0.4,0.7-1.1,1.4-2.4,1.4c-1.7,0-2.9-1.4-2.9-3.4
			c0-2.2,1.4-3.6,3-3.6c1.2,0,1.9,0.6,2.2,1.2h0v-4.3H49.2z M48.5,39.5c0-0.2,0-0.4-0.1-0.6c-0.2-0.9-1-1.6-2.1-1.6
			c-1.5,0-2.4,1.3-2.4,3c0,1.5,0.8,2.9,2.4,2.9c1,0,1.9-0.6,2.2-1.8c0.1-0.2,0.1-0.4,0.1-0.6V39.5z"/>
		<path class="st0" d="M51.9,35.5c-0.3,0-0.5-0.3-0.5-0.6c0-0.3,0.2-0.6,0.5-0.6s0.5,0.3,0.5,0.6C52.4,35.2,52.2,35.5,51.9,35.5
			L51.9,35.5z M51.6,43.6v-6.7h0.7v6.7H51.6z"/>
		<path class="st0" d="M57.2,43.7c-1.7,0-3.1-1.4-3.1-3.5c0-2.3,1.5-3.6,3.2-3.6c1.9,0,3.1,1.4,3.1,3.5
			C60.4,42.6,58.7,43.7,57.2,43.7L57.2,43.7z M57.2,43.2c1.4,0,2.5-1.3,2.5-3c0-1.2-0.7-2.9-2.5-2.9c-1.7,0-2.5,1.5-2.5,3
			C54.8,41.9,55.8,43.2,57.2,43.2L57.2,43.2z"/>
		<path class="st0" d="M65.4,34.2c0.5-0.1,1.2-0.2,2-0.2c1.1,0,2,0.3,2.5,0.8c0.5,0.4,0.7,1.1,0.7,1.8c0,0.8-0.2,1.4-0.7,1.9
			c-0.6,0.7-1.6,1.1-2.8,1.1c-0.4,0-0.8,0-1.1-0.1v4h-0.7V34.2z M66.1,38.9c0.3,0.1,0.7,0.1,1.2,0.1c1.7,0,2.7-0.8,2.7-2.3
			c0-1.5-1.1-2.2-2.6-2.2c-0.6,0-1.1,0.1-1.3,0.1V38.9z"/>
		<path class="st0" d="M75.1,43.7c-1.7,0-3.1-1.4-3.1-3.5c0-2.3,1.5-3.6,3.2-3.6c1.9,0,3.1,1.4,3.1,3.5
			C78.3,42.6,76.6,43.7,75.1,43.7L75.1,43.7z M75.2,43.2c1.4,0,2.5-1.3,2.5-3c0-1.2-0.7-2.9-2.5-2.9c-1.7,0-2.5,1.5-2.5,3
			C72.7,41.9,73.8,43.2,75.2,43.2L75.2,43.2z"/>
		<path class="st0" d="M80.2,33.6h0.7v4.5h0c0.4-0.9,1.3-1.4,2.5-1.4c1.7,0,2.9,1.4,2.9,3.4c0,2.4-1.5,3.6-3,3.6
			c-1.1,0-1.9-0.4-2.4-1.4h0l-0.1,1.2h-0.6c0-0.5,0.1-1.1,0.1-1.6V33.6z M80.8,41c0,0.2,0,0.3,0.1,0.5c0.3,1,1.2,1.7,2.2,1.7
			c1.5,0,2.4-1.3,2.4-3c0-1.5-0.8-2.9-2.4-2.9c-1,0-1.9,0.7-2.2,1.8c0,0.2-0.1,0.4-0.1,0.6V41z"/>
		<path class="st0" d="M88.1,33.6h0.7v10h-0.7V33.6z"/>
		<path class="st0" d="M95.4,42c0,0.5,0,1.1,0.1,1.6h-0.6l-0.1-1h0c-0.3,0.5-1.1,1.1-2.2,1.1c-1.4,0-2-1-2-1.8
			c0-1.6,1.4-2.5,4.1-2.5v-0.2c0-0.7-0.1-2-1.7-2c-0.6,0-1.2,0.2-1.7,0.5l-0.2-0.5c0.6-0.4,1.4-0.6,2-0.6c1.9,0,2.3,1.5,2.3,2.6V42z
			 M94.7,40c-1.5,0-3.4,0.2-3.4,1.8c0,1,0.6,1.4,1.3,1.4c1.1,0,1.8-0.7,2-1.3c0.1-0.1,0.1-0.3,0.1-0.4V40z"/>
		<path class="st0" d="M102.3,43.3c-0.3,0.1-1,0.4-2,0.4c-1.9,0-3.2-1.4-3.2-3.4c0-2.1,1.5-3.6,3.5-3.6c0.8,0,1.5,0.2,1.8,0.4
			l-0.2,0.5c-0.3-0.2-0.8-0.4-1.6-0.4c-1.8,0-2.7,1.4-2.7,3c0,1.8,1.1,2.9,2.7,2.9c0.8,0,1.3-0.2,1.7-0.4L102.3,43.3z"/>
		<path class="st0" d="M104.4,35.5c-0.3,0-0.5-0.3-0.5-0.6c0-0.3,0.2-0.6,0.5-0.6s0.5,0.3,0.5,0.6C104.9,35.2,104.7,35.5,104.4,35.5
			L104.4,35.5z M104,43.6v-6.7h0.7v6.7H104z"/>
		<path class="st0" d="M109.6,43.7c-1.7,0-3.1-1.4-3.1-3.5c0-2.3,1.5-3.6,3.2-3.6c1.9,0,3.1,1.4,3.1,3.5
			C112.9,42.6,111.1,43.7,109.6,43.7L109.6,43.7z M109.7,43.2c1.4,0,2.5-1.3,2.5-3c0-1.2-0.7-2.9-2.5-2.9c-1.7,0-2.5,1.5-2.5,3
			C107.2,41.9,108.3,43.2,109.7,43.2L109.7,43.2z"/>
		<path class="st0" d="M114.7,38.4c0-0.6,0-1.1-0.1-1.6h0.6l0,1.2h0c0.4-0.8,1.2-1.4,2.3-1.4c0.6,0,2.4,0.3,2.4,2.8v4h-0.7v-4
			c0-1.2-0.5-2.3-1.9-2.3c-0.9,0-1.8,0.7-2,1.6c0,0.2-0.1,0.4-0.1,0.6v4.2h-0.7V38.4z"/>
		<path class="st0" d="M126.5,42c0,0.5,0,1.1,0.1,1.6H126l-0.1-1h0c-0.3,0.5-1.1,1.1-2.2,1.1c-1.4,0-2-1-2-1.8
			c0-1.6,1.4-2.5,4.1-2.5v-0.2c0-0.7-0.1-2-1.7-2c-0.6,0-1.2,0.2-1.7,0.5l-0.2-0.5c0.6-0.4,1.4-0.6,2-0.6c1.9,0,2.3,1.5,2.3,2.6V42z
			 M125.9,40c-1.5,0-3.4,0.2-3.4,1.8c0,1,0.6,1.4,1.3,1.4c1.1,0,1.8-0.7,2-1.3c0.1-0.1,0.1-0.3,0.1-0.4V40z"/>
		<path class="st0" d="M128.8,33.6h0.7v10h-0.7V33.6z"/>
		<path class="st0" d="M140.5,33.6V42c0,0.5,0,1.1,0.1,1.6H140l-0.1-1.3h0c-0.4,0.7-1.1,1.4-2.4,1.4c-1.7,0-2.9-1.4-2.9-3.4
			c0-2.2,1.4-3.6,3-3.6c1.2,0,1.9,0.6,2.2,1.2h0v-4.3H140.5z M139.8,39.5c0-0.2,0-0.4-0.1-0.6c-0.2-0.9-1-1.6-2.1-1.6
			c-1.5,0-2.4,1.3-2.4,3c0,1.5,0.8,2.9,2.4,2.9c1,0,1.9-0.6,2.2-1.8c0.1-0.2,0.1-0.4,0.1-0.6V39.5z"/>
		<path class="st0" d="M143,40.1c0,2.1,1.2,3,2.6,3c1,0,1.5-0.2,1.9-0.4l0.2,0.5c-0.3,0.1-0.9,0.4-2.1,0.4c-1.9,0-3.1-1.4-3.1-3.4
			c0-2.2,1.3-3.6,3-3.6c2.2,0,2.6,2.1,2.6,3c0,0.2,0,0.3,0,0.4H143z M147.3,39.6c0-0.9-0.4-2.4-2-2.4c-1.5,0-2.1,1.3-2.2,2.4H147.3z
			"/>
		<path class="st0" d="M152.6,43.6v-0.4l0.8-0.9c2.5-2.5,3.6-3.8,3.6-5.3c0-1-0.4-2.1-2-2.1c-0.9,0-1.5,0.4-1.9,0.8l-0.3-0.5
			c0.6-0.5,1.4-0.9,2.3-0.9c1.9,0,2.5,1.4,2.5,2.5c0,1.8-1.3,3.2-3.6,5.5l-0.6,0.7v0h4.5v0.6H152.6z"/>
		<path class="st0" d="M162.2,43.7c-1.4,0-2.7-1.4-2.8-4.7c0-3.3,1.5-4.7,3-4.7c1.6,0,2.8,1.4,2.8,4.6
			C165.2,42.1,164,43.7,162.2,43.7L162.2,43.7z M162.3,43.2c1.5,0,2.2-1.7,2.2-4.2c0-2.4-0.6-4.1-2.2-4.1c-1.3,0-2.2,1.7-2.2,4.1
			C160.1,41.5,160.9,43.2,162.3,43.2L162.3,43.2z"/>
		<path class="st0" d="M174.4,42c0,0.5,0,1.1,0.1,1.6h-0.6l-0.1-1h0c-0.3,0.5-1.1,1.1-2.2,1.1c-1.4,0-2-1-2-1.8
			c0-1.6,1.4-2.5,4.1-2.5v-0.2c0-0.7-0.1-2-1.7-2c-0.6,0-1.2,0.2-1.7,0.5l-0.2-0.5c0.6-0.4,1.4-0.6,2-0.6c1.9,0,2.3,1.5,2.3,2.6V42z
			 M173.7,40c-1.5,0-3.4,0.2-3.4,1.8c0,1,0.6,1.4,1.3,1.4c1.1,0,1.8-0.7,2-1.3c0.1-0.1,0.1-0.3,0.1-0.4V40z"/>
		<path class="st0" d="M176.7,38.4c0-0.6,0-1.1-0.1-1.6h0.6l0,1.2h0c0.4-0.8,1.2-1.4,2.3-1.4c0.6,0,2.4,0.3,2.4,2.8v4h-0.7v-4
			c0-1.2-0.5-2.3-1.9-2.3c-0.9,0-1.8,0.7-2,1.6c0,0.2-0.1,0.4-0.1,0.6v4.2h-0.7V38.4z M177.8,35.5c0-0.8,0.3-1.2,0.8-1.2
			c0.3,0,0.5,0.1,0.8,0.3c0.2,0.1,0.4,0.2,0.6,0.2c0.2,0,0.4-0.1,0.4-0.6h0.5c0,0.7-0.2,1.2-0.8,1.2c-0.3,0-0.5-0.1-0.8-0.3
			c-0.3-0.2-0.5-0.3-0.6-0.3c-0.2,0-0.4,0.3-0.4,0.6H177.8z"/>
		<path class="st0" d="M186.9,43.7c-1.7,0-3.1-1.4-3.1-3.5c0-2.3,1.5-3.6,3.2-3.6c1.9,0,3.1,1.4,3.1,3.5
			C190.1,42.6,188.4,43.7,186.9,43.7L186.9,43.7z M186.9,43.2c1.4,0,2.5-1.3,2.5-3c0-1.2-0.7-2.9-2.5-2.9c-1.7,0-2.5,1.5-2.5,3
			C184.4,41.9,185.5,43.2,186.9,43.2L186.9,43.2z"/>
		<path class="st0" d="M191.6,42.7c0.4,0.2,0.9,0.5,1.5,0.5c1.1,0,1.6-0.6,1.6-1.3c0-0.7-0.4-1.1-1.4-1.5c-1.1-0.4-1.7-1-1.7-1.8
			c0-1,0.8-1.8,2.1-1.8c0.6,0,1.1,0.2,1.5,0.4l-0.3,0.5c-0.2-0.2-0.7-0.4-1.3-0.4c-0.9,0-1.3,0.5-1.3,1.2c0,0.7,0.5,1,1.4,1.4
			c1.1,0.4,1.7,1,1.7,2c0,1.1-0.9,1.9-2.3,1.9c-0.6,0-1.3-0.2-1.7-0.5L191.6,42.7z"/>
		<path class="st0" d="M205.9,33.6V42c0,0.5,0,1.1,0.1,1.6h-0.6l-0.1-1.3h0c-0.4,0.7-1.1,1.4-2.4,1.4c-1.7,0-2.9-1.4-2.9-3.4
			c0-2.2,1.4-3.6,3-3.6c1.2,0,1.9,0.6,2.2,1.2h0v-4.3H205.9z M205.2,39.5c0-0.2,0-0.4-0.1-0.6c-0.2-0.9-1-1.6-2.1-1.6
			c-1.5,0-2.4,1.3-2.4,3c0,1.5,0.8,2.9,2.4,2.9c1,0,1.9-0.6,2.2-1.8c0.1-0.2,0.1-0.4,0.1-0.6V39.5z"/>
		<path class="st0" d="M208.3,40.1c0,2.1,1.2,3,2.6,3c1,0,1.5-0.2,1.9-0.4l0.2,0.5c-0.3,0.1-0.9,0.4-2.1,0.4c-1.9,0-3.1-1.4-3.1-3.4
			c0-2.2,1.3-3.6,3-3.6c2.2,0,2.6,2.1,2.6,3c0,0.2,0,0.3,0,0.4H208.3z M212.6,39.6c0-0.9-0.4-2.4-2-2.4c-1.5,0-2.1,1.3-2.2,2.4
			H212.6z"/>
		<path class="st0" d="M218.1,42.5c0.5,0.4,1.3,0.6,2.1,0.6c1.4,0,2.3-0.8,2.3-2c0-1.1-0.5-1.7-1.9-2.2c-1.5-0.5-2.4-1.3-2.4-2.6
			c0-1.4,1.1-2.4,2.7-2.4c0.9,0,1.6,0.2,1.9,0.4l-0.3,0.6c-0.3-0.2-0.9-0.4-1.7-0.4c-1.5,0-2,1-2,1.7c0,1,0.6,1.6,2,2.1
			c1.6,0.6,2.4,1.3,2.4,2.7c0,1.4-1,2.6-3,2.6c-0.8,0-1.8-0.3-2.3-0.6L218.1,42.5z"/>
		<path class="st0" d="M225.1,40.1c0,2.1,1.2,3,2.6,3c1,0,1.5-0.2,1.9-0.4l0.2,0.5c-0.3,0.1-0.9,0.4-2.1,0.4c-1.9,0-3.1-1.4-3.1-3.4
			c0-2.2,1.3-3.6,3-3.6c2.2,0,2.6,2.1,2.6,3c0,0.2,0,0.3,0,0.4H225.1z M229.4,39.6c0-0.9-0.4-2.4-2-2.4c-1.5,0-2.1,1.3-2.2,2.4
			H229.4z"/>
		<path class="st0" d="M237.3,42.6c0,1.7-0.4,2.6-0.9,3.1c-0.6,0.6-1.5,0.8-2.3,0.8c-0.8,0-1.6-0.2-2.1-0.6l0.2-0.5
			c0.5,0.3,1.1,0.6,2,0.6c1.4,0,2.4-0.7,2.4-2.7v-1h0c-0.4,0.7-1.1,1.3-2.3,1.3c-1.7,0-2.9-1.5-2.9-3.3c0-2.3,1.5-3.6,3-3.6
			c1.3,0,2,0.7,2.3,1.3h0l0-1.1h0.6c0,0.5-0.1,1-0.1,1.7V42.6z M236.6,39.4c0-0.3,0-0.5-0.1-0.7c-0.3-0.8-1-1.5-2.1-1.5
			c-1.4,0-2.4,1.2-2.4,2.9c0,1.5,0.8,2.8,2.4,2.8c0.9,0,1.7-0.6,2.1-1.5c0.1-0.2,0.1-0.5,0.1-0.7V39.4z"/>
		<path class="st0" d="M244.9,41.9c0,0.6,0,1.1,0.1,1.6h-0.6l0-1.2h0c-0.3,0.6-1.1,1.4-2.3,1.4c-0.9,0-2.3-0.4-2.3-3v-3.9h0.7v3.8
			c0,1.5,0.4,2.5,1.8,2.5c1,0,1.7-0.7,2-1.4c0.1-0.2,0.1-0.5,0.1-0.7v-4.2h0.7V41.9z"/>
		<path class="st0" d="M247.6,35.5c-0.3,0-0.5-0.3-0.5-0.6c0-0.3,0.2-0.6,0.5-0.6s0.5,0.3,0.5,0.6C248.1,35.2,247.9,35.5,247.6,35.5
			L247.6,35.5z M247.3,43.6v-6.7h0.7v6.7H247.3z"/>
		<path class="st0" d="M250.3,38.4c0-0.6,0-1.1-0.1-1.6h0.6l0,1.2h0c0.4-0.8,1.1-1.3,2.2-1.3c0.9,0,1.6,0.6,1.9,1.5h0
			c0.2-0.4,0.4-0.7,0.7-0.9c0.4-0.4,0.9-0.5,1.6-0.5c0.7,0,2.2,0.4,2.2,2.9v4h-0.7v-3.9c0-1.5-0.6-2.4-1.8-2.4
			c-0.8,0-1.5,0.6-1.8,1.3c-0.1,0.2-0.1,0.4-0.1,0.7v4.3h-0.7v-4.2c0-1.2-0.6-2.1-1.7-2.1c-0.9,0-1.6,0.7-1.9,1.5
			c-0.1,0.2-0.1,0.4-0.1,0.7v4.1h-0.7V38.4z"/>
		<path class="st0" d="M262.3,35.5c-0.3,0-0.5-0.3-0.5-0.6c0-0.3,0.2-0.6,0.5-0.6s0.5,0.3,0.5,0.6C262.8,35.2,262.6,35.5,262.3,35.5
			L262.3,35.5z M261.9,43.6v-6.7h0.7v6.7H261.9z"/>
		<path class="st0" d="M265.1,40.1c0,2.1,1.2,3,2.6,3c1,0,1.5-0.2,1.9-0.4l0.2,0.5c-0.3,0.1-0.9,0.4-2.1,0.4c-1.9,0-3.1-1.4-3.1-3.4
			c0-2.2,1.3-3.6,3-3.6c2.2,0,2.6,2.1,2.6,3c0,0.2,0,0.3,0,0.4H265.1z M269.4,39.6c0-0.9-0.4-2.4-2-2.4c-1.5,0-2.1,1.3-2.2,2.4
			H269.4z"/>
		<path class="st0" d="M271.9,38.4c0-0.6,0-1.1-0.1-1.6h0.6l0,1.2h0c0.4-0.8,1.2-1.4,2.3-1.4c0.6,0,2.4,0.3,2.4,2.8v4h-0.7v-4
			c0-1.2-0.5-2.3-1.9-2.3c-0.9,0-1.8,0.7-2,1.6c0,0.2-0.1,0.4-0.1,0.6v4.2h-0.7V38.4z"/>
		<path class="st0" d="M280.5,35.4v1.5h1.9v0.5h-1.9v4.4c0,0.9,0.3,1.4,1,1.4c0.4,0,0.6,0,0.8-0.1l0.1,0.5c-0.2,0.1-0.5,0.2-0.9,0.2
			c-0.5,0-0.9-0.2-1.1-0.5c-0.3-0.4-0.4-0.9-0.4-1.6v-4.2h-1.1v-0.5h1.1v-1.2L280.5,35.4z"/>
		<path class="st0" d="M286.6,43.7c-1.7,0-3.1-1.4-3.1-3.5c0-2.3,1.5-3.6,3.2-3.6c1.9,0,3.1,1.4,3.1,3.5
			C289.8,42.6,288.1,43.7,286.6,43.7L286.6,43.7z M286.6,43.2c1.4,0,2.5-1.3,2.5-3c0-1.2-0.7-2.9-2.5-2.9c-1.7,0-2.5,1.5-2.5,3
			C284.2,41.9,285.2,43.2,286.6,43.2L286.6,43.2z"/>
		<path class="st0" d="M117.2,50.6c-1.2,1.4-2,3.2-2,5.8c0,2.5,0.8,4.2,2,5.7h-0.6c-1-1.2-2-3-2-5.7c0-2.8,1-4.5,2-5.8H117.2z"/>
		<path class="st0" d="M118.6,51c0.5-0.1,1.2-0.2,2-0.2c1.1,0,2,0.3,2.5,0.8c0.5,0.4,0.7,1.1,0.7,1.8c0,0.8-0.2,1.4-0.7,1.9
			c-0.6,0.7-1.6,1.1-2.8,1.1c-0.4,0-0.8,0-1.1-0.1v4h-0.7V51z M119.3,55.7c0.3,0.1,0.7,0.1,1.2,0.1c1.7,0,2.7-0.8,2.7-2.3
			c0-1.5-1.1-2.2-2.6-2.2c-0.6,0-1.1,0.1-1.3,0.1V55.7z"/>
		<path class="st0" d="M126.9,57.1l-1.2,3.3h-0.7l3.4-9.4h0.6l3.4,9.4h-0.7l-1.2-3.3H126.9z M130.4,56.5l-1.1-3.2
			c-0.2-0.7-0.4-1.1-0.5-1.7h0c-0.1,0.5-0.3,1-0.5,1.6l-1.2,3.2H130.4z"/>
		<path class="st0" d="M141.7,61.6c-1.2-0.3-2.6-0.7-3.5-1c-0.2-0.1-0.4-0.1-0.5-0.1c-2.3-0.1-4.2-1.8-4.2-4.8c0-3.2,1.9-5,4.3-5
			c2.4,0,4.1,1.9,4.1,4.8c0,2.6-1.2,4.2-3,4.7v0.1c1.1,0.2,2.2,0.5,3.1,0.6L141.7,61.6z M137.7,60c2.2,0,3.5-2,3.5-4.4
			c0-2-1.1-4.3-3.4-4.3c-2.4,0-3.5,2.2-3.5,4.4C134.2,57.9,135.4,60,137.7,60L137.7,60z"/>
		<path class="st0" d="M144.3,50.9v5.7c0,2.4,1.1,3.3,2.5,3.3c1.6,0,2.6-1,2.6-3.3v-5.7h0.7v5.6c0,2.9-1.6,4-3.3,4
			c-1.7,0-3.2-1-3.2-3.9v-5.7H144.3z"/>
		<path class="st0" d="M153.2,50.9v9.4h-0.7v-9.4H153.2z"/>
		<path class="st0" d="M155.6,51.1c0.7-0.1,1.5-0.2,2.4-0.2c1.7,0,3,0.5,3.8,1.3c0.8,0.8,1.2,1.8,1.2,3.3c0,1.4-0.4,2.6-1.2,3.6
			c-0.8,0.9-2.3,1.4-4.1,1.4c-0.7,0-1.4,0-2.1-0.1V51.1z M156.3,59.8c0.4,0.1,0.9,0.1,1.5,0.1c3,0,4.5-1.7,4.5-4.4
			c0-2.4-1.3-4-4.3-4c-0.7,0-1.3,0.1-1.7,0.2V59.8z"/>
		<path class="st0" d="M163.9,62.1c1.1-1.4,2-3.2,2-5.8c0-2.5-0.8-4.3-2-5.7h0.6c1,1.2,2,3,2,5.7c0,2.8-1,4.5-2,5.7H163.9z"/>
		<path class="st0" d="M172.7,50.8L172.7,50.8l-0.9,0.5l-0.1-0.3l1-0.6h0.4v5.3h-0.4V50.8z"/>
		<path class="st0" d="M176.8,55.8c-0.8,0-1.6-0.8-1.6-2.7c0-1.9,0.8-2.8,1.7-2.8c0.9,0,1.6,0.8,1.6,2.7
			C178.5,54.9,177.8,55.8,176.8,55.8L176.8,55.8z M176.8,55.5c0.9,0,1.3-1,1.3-2.4c0-1.4-0.4-2.4-1.3-2.4c-0.8,0-1.3,1-1.3,2.4
			C175.5,54.5,176,55.5,176.8,55.5L176.8,55.5z"/>
	</g>
</g>
</svg>
