<!-- Generator: Adobe Illustrator 20.1.0, SVG Export Plug-In  -->
<svg version="1.1"
	 xmlns="http://www.w3.org/2000/svg" xmlns:xlink="http://www.w3.org/1999/xlink" xmlns:a="http://ns.adobe.com/AdobeSVGViewerExtensions/3.0/"
	 x="0px" y="0px" width="138.8px" height="134.5px" viewBox="0 0 138.8 134.5"
	 style="overflow:scroll;enable-background:new 0 0 138.8 134.5;" xml:space="preserve">
<style type="text/css">
	.st0{fill:none;stroke:#DA0962;stroke-miterlimit:10;stroke-dasharray:3.3214,3.3214;}
	.st1{fill:none;stroke:#DA0962;stroke-miterlimit:10;stroke-dasharray:3.3897,3.3897;}
	.st2{fill:#58595B;}
	.st3{fill:#D51D70;}
	.st4{fill-rule:evenodd;clip-rule:evenodd;fill:#D51D70;}
	.st5{fill:#FFFFFF;}
	.st6{fill-rule:evenodd;clip-rule:evenodd;fill:#FFFFFF;}
</style>
<defs>
</defs>
<path class="st0" d="M0,44.6c5.8,0,11.6,0,17.3,0"/>
<path class="st1" d="M0.1,74.9c6,0,11.2,0,17.3,0"/>
<path class="st1" d="M0.1,99.2c6,0,11.2,0,17.3,0"/>
<path class="st1" d="M0.1,126c6,0,11.2,0,17.3,0"/>
<line class="st0" x1="0.5" y1="126.5" x2="0.5" y2="0"/>
<g>
	<path class="st2" d="M22.8,14.4H20v-2H28v2h-2.8v8.4h-2.3V14.4z"/>
	<path class="st2" d="M33.6,22.8L33.4,22h0c-0.5,0.6-1.3,0.9-2.1,0.9c-1.5,0-2.4-1.1-2.4-2.3c0-1.9,1.7-2.9,4.4-2.9v-0.1
		c0-0.4-0.2-1-1.4-1c-0.8,0-1.6,0.3-2.1,0.6l-0.4-1.5c0.5-0.3,1.5-0.7,2.9-0.7c2.5,0,3.3,1.5,3.3,3.2V21c0,0.7,0,1.4,0.1,1.8H33.6z
		 M33.3,19.3c-1.2,0-2.2,0.3-2.2,1.2c0,0.6,0.4,0.9,0.9,0.9c0.6,0,1.1-0.4,1.2-0.9c0-0.1,0-0.3,0-0.4V19.3z"/>
	<path class="st2" d="M37.6,11.9h2.3v10.9h-2.3V11.9z"/>
	<path class="st2" d="M43.8,19.8c0.1,1,1,1.4,2.1,1.4c0.8,0,1.4-0.1,2.1-0.3l0.3,1.6c-0.8,0.3-1.7,0.5-2.7,0.5c-2.5,0-4-1.5-4-3.8
		c0-1.9,1.2-4,3.8-4c2.4,0,3.3,1.9,3.3,3.7c0,0.4,0,0.8-0.1,0.9H43.8z M46.5,18.2c0-0.6-0.2-1.5-1.3-1.5c-1,0-1.4,0.9-1.4,1.5H46.5z
		"/>
	<path class="st2" d="M50.2,20.8c0.4,0.3,1.3,0.6,2,0.6c0.7,0,1-0.2,1-0.6s-0.2-0.6-1.1-0.9c-1.5-0.5-2.1-1.4-2.1-2.2
		c0-1.4,1.2-2.4,3-2.4c0.9,0,1.7,0.2,2.1,0.4l-0.4,1.6c-0.3-0.2-1-0.4-1.6-0.4c-0.6,0-0.9,0.2-0.9,0.6c0,0.4,0.3,0.5,1.2,0.9
		c1.4,0.5,2,1.2,2,2.3c0,1.4-1.1,2.4-3.2,2.4c-1,0-1.9-0.2-2.4-0.5L50.2,20.8z"/>
	<path class="st2" d="M66,22.6c-0.4,0.2-1.2,0.3-2.1,0.3c-2.4,0-4-1.5-4-3.8c0-2.2,1.5-4,4.3-4c0.6,0,1.3,0.1,1.8,0.3l-0.4,1.7
		c-0.3-0.1-0.7-0.2-1.3-0.2c-1.2,0-2,0.9-2,2.1c0,1.4,0.9,2.1,2.1,2.1c0.6,0,1-0.1,1.3-0.2L66,22.6z"/>
	<path class="st2" d="M74.8,19c0,2.7-1.9,4-3.9,4c-2.2,0-3.9-1.4-3.9-3.9s1.6-4,4-4C73.3,15.1,74.8,16.7,74.8,19z M69.4,19
		c0,1.3,0.5,2.3,1.5,2.3c0.9,0,1.5-0.9,1.5-2.3c0-1.1-0.4-2.2-1.5-2.2C69.8,16.8,69.4,17.9,69.4,19z"/>
	<path class="st2" d="M76.4,17.7c0-0.9,0-1.7-0.1-2.4h2l0.1,1h0c0.3-0.5,1-1.2,2.3-1.2c1,0,1.7,0.5,2.1,1.3h0c0.3-0.4,0.6-0.7,1-0.9
		c0.4-0.2,0.9-0.4,1.4-0.4c1.4,0,2.5,1,2.5,3.2v4.4h-2.3v-4.1c0-1.1-0.4-1.7-1.1-1.7c-0.5,0-0.9,0.4-1.1,0.8
		c-0.1,0.2-0.1,0.4-0.1,0.6v4.4h-2.3v-4.2c0-0.9-0.3-1.6-1.1-1.6c-0.6,0-0.9,0.5-1.1,0.8c-0.1,0.2-0.1,0.4-0.1,0.6v4.4h-2.3V17.7z"
		/>
	<path class="st2" d="M97.2,19c0,2.7-1.9,4-3.9,4c-2.2,0-3.9-1.4-3.9-3.9s1.6-4,4-4C95.6,15.1,97.2,16.7,97.2,19z M91.7,19
		c0,1.3,0.5,2.3,1.5,2.3c0.9,0,1.5-0.9,1.5-2.3c0-1.1-0.4-2.2-1.5-2.2C92.2,16.8,91.7,17.9,91.7,19z"/>
	<path class="st2" d="M98.6,16.6c0-0.8,0.6-1.4,1.4-1.4s1.3,0.6,1.4,1.4c0,0.8-0.6,1.4-1.4,1.4C99.2,18,98.6,17.4,98.6,16.6z
		 M98.6,21.6c0-0.8,0.6-1.4,1.4-1.4s1.3,0.6,1.4,1.4c0,0.8-0.6,1.4-1.4,1.4C99.2,23,98.6,22.4,98.6,21.6z"/>
	<path class="st2" d="M107.4,12.6L107.4,12.6l-1,0.5l-0.2-0.6l1.3-0.7h0.7v5.8h-0.8V12.6z"/>
</g>
<g>
	<g>
		<path class="st3" d="M46.1,39.3c0.6-0.1,1.3-0.1,2-0.1c1.3,0,2.2,0.3,2.9,0.8c0.7,0.6,1.1,1.4,1.1,2.6c0,1.2-0.4,2.2-1.1,2.8
			c-0.7,0.6-1.8,1-3.2,1c-0.7,0-1.3,0-1.7-0.1V39.3z M47.4,45.2c0.2,0,0.4,0,0.7,0c1.7,0,2.6-0.9,2.6-2.7c0-1.5-0.9-2.4-2.5-2.4
			c-0.4,0-0.7,0-0.9,0.1V45.2z"/>
		<path class="st3" d="M54.5,39.8c0,0.4-0.3,0.7-0.7,0.7c-0.4,0-0.7-0.3-0.7-0.7c0-0.4,0.3-0.7,0.7-0.7
			C54.3,39.1,54.5,39.4,54.5,39.8z M53.2,46.2v-5.1h1.3v5.1H53.2z"/>
		<path class="st3" d="M58.7,46.2l-0.1-0.6h0c-0.3,0.4-0.8,0.7-1.5,0.7c-1,0-1.6-0.7-1.6-1.5c0-1.3,1.1-1.9,3-1.9v-0.1
			c0-0.3-0.1-0.9-1-0.9c-0.5,0-1,0.2-1.4,0.4l-0.2-0.8c0.4-0.2,1-0.4,1.8-0.4c1.6,0,2.1,1,2.1,2.1V45c0,0.5,0,0.9,0.1,1.2H58.7z
			 M58.5,43.8c-0.9,0-1.8,0.2-1.8,0.9c0,0.5,0.3,0.7,0.7,0.7c0.5,0,0.9-0.3,1-0.7c0-0.1,0-0.2,0-0.3V43.8z"/>
		<path class="st3" d="M61.1,46.2c0-0.3,0-0.9,0-1.4v-5.9h1.3v3h0c0.3-0.5,0.9-0.8,1.6-0.8c1.2,0,2.1,1,2.1,2.6
			c0,1.8-1.2,2.7-2.3,2.7c-0.7,0-1.2-0.2-1.6-0.9h0l-0.1,0.8H61.1z M62.4,44.1c0,0.1,0,0.2,0,0.3c0.1,0.5,0.6,0.9,1.1,0.9
			c0.8,0,1.3-0.6,1.3-1.7c0-0.9-0.4-1.6-1.3-1.6c-0.5,0-1,0.4-1.1,0.9c0,0.1,0,0.2,0,0.3V44.1z"/>
		<path class="st3" d="M68.1,44.1c0,0.9,0.7,1.3,1.6,1.3c0.6,0,1-0.1,1.4-0.2l0.2,0.9c-0.4,0.2-1,0.3-1.8,0.3c-1.6,0-2.6-1-2.6-2.6
			c0-1.4,0.9-2.7,2.5-2.7c1.6,0,2.2,1.3,2.2,2.5c0,0.2,0,0.4,0,0.5H68.1z M70.3,43.2c0-0.5-0.2-1.2-1-1.2c-0.8,0-1.1,0.7-1.2,1.2
			H70.3z"/>
		<path class="st3" d="M74,39.7v1.4h1.2v1H74v2.2c0,0.6,0.2,0.9,0.7,0.9c0.2,0,0.4,0,0.5-0.1l0,1c-0.2,0.1-0.5,0.1-0.9,0.1
			c-0.5,0-0.9-0.2-1.1-0.4c-0.3-0.3-0.4-0.7-0.4-1.4v-2.4H72v-1h0.7V40L74,39.7z"/>
		<path class="st3" d="M77.1,44.1c0,0.9,0.7,1.3,1.6,1.3c0.6,0,1-0.1,1.4-0.2l0.2,0.9c-0.4,0.2-1,0.3-1.8,0.3c-1.6,0-2.6-1-2.6-2.6
			c0-1.4,0.9-2.7,2.5-2.7c1.6,0,2.2,1.3,2.2,2.5c0,0.2,0,0.4,0,0.5H77.1z M79.3,43.2c0-0.5-0.2-1.2-1-1.2c-0.8,0-1.1,0.7-1.2,1.2
			H79.3z"/>
		<path class="st3" d="M81.5,45c0.3,0.2,0.8,0.4,1.3,0.4c0.6,0,0.8-0.2,0.8-0.6c0-0.3-0.2-0.5-0.8-0.7c-1-0.3-1.4-0.9-1.4-1.5
			c0-0.9,0.7-1.6,1.9-1.6c0.6,0,1,0.1,1.3,0.3l-0.2,0.9c-0.2-0.1-0.6-0.3-1.1-0.3c-0.5,0-0.7,0.2-0.7,0.5c0,0.3,0.2,0.5,0.9,0.7
			c0.9,0.3,1.3,0.8,1.3,1.5c0,0.9-0.7,1.6-2.1,1.6c-0.6,0-1.2-0.1-1.5-0.4L81.5,45z"/>
		<path class="st3" d="M88,42.7c0-0.6,0-1.1,0-1.5h1.1l0.1,0.7h0c0.2-0.4,0.7-0.9,1.6-0.9c0.7,0,1.2,0.4,1.4,0.9h0
			c0.2-0.3,0.4-0.5,0.6-0.6c0.3-0.2,0.6-0.3,1-0.3c0.8,0,1.7,0.6,1.7,2.2v3h-1.2v-2.8c0-0.8-0.3-1.3-0.9-1.3c-0.4,0-0.8,0.3-0.9,0.7
			c0,0.1-0.1,0.3-0.1,0.4v3h-1.2v-2.9c0-0.7-0.3-1.2-0.9-1.2c-0.5,0-0.8,0.4-0.9,0.7c-0.1,0.1-0.1,0.3-0.1,0.4v3H88V42.7z"/>
		<path class="st3" d="M97.7,44.1c0,0.9,0.7,1.3,1.6,1.3c0.6,0,1-0.1,1.4-0.2l0.2,0.9c-0.4,0.2-1,0.3-1.8,0.3c-1.6,0-2.6-1-2.6-2.6
			c0-1.4,0.9-2.7,2.5-2.7c1.6,0,2.2,1.3,2.2,2.5c0,0.2,0,0.4,0,0.5H97.7z M99.9,43.2c0-0.5-0.2-1.2-1-1.2c-0.8,0-1.1,0.7-1.2,1.2
			H99.9z"/>
		<path class="st3" d="M102.2,38.9h1.3v7.4h-1.3V38.9z"/>
		<path class="st3" d="M104.8,38.9h1.3v7.4h-1.3V38.9z"/>
		<path class="st3" d="M108.9,39.8c0,0.4-0.3,0.7-0.7,0.7c-0.4,0-0.7-0.3-0.7-0.7c0-0.4,0.3-0.7,0.7-0.7
			C108.6,39.1,108.8,39.4,108.9,39.8z M107.5,46.2v-5.1h1.3v5.1H107.5z"/>
		<path class="st3" d="M111.6,39.7v1.4h1.2v1h-1.2v2.2c0,0.6,0.2,0.9,0.7,0.9c0.2,0,0.4,0,0.5-0.1l0,1c-0.2,0.1-0.5,0.1-0.9,0.1
			c-0.5,0-0.9-0.2-1.1-0.4c-0.3-0.3-0.4-0.7-0.4-1.4v-2.4h-0.7v-1h0.7V40L111.6,39.7z"/>
		<path class="st3" d="M118.3,44.7c0,0.6,0,1.1,0,1.5h-1.1l-0.1-0.8h0c-0.2,0.4-0.7,0.9-1.6,0.9c-0.9,0-1.8-0.5-1.8-2.2v-3h1.3v2.7
			c0,0.8,0.3,1.4,0.9,1.4c0.5,0,0.8-0.4,1-0.7c0-0.1,0.1-0.2,0.1-0.4v-3h1.3V44.7z"/>
		<path class="st3" d="M119.6,45c0.3,0.2,0.8,0.4,1.3,0.4c0.6,0,0.8-0.2,0.8-0.6c0-0.3-0.2-0.5-0.8-0.7c-1-0.3-1.4-0.9-1.4-1.5
			c0-0.9,0.7-1.6,1.9-1.6c0.6,0,1,0.1,1.3,0.3l-0.2,0.9c-0.2-0.1-0.6-0.3-1.1-0.3c-0.5,0-0.7,0.2-0.7,0.5c0,0.3,0.2,0.5,0.9,0.7
			c0.9,0.3,1.3,0.8,1.3,1.5c0,0.9-0.7,1.6-2.1,1.6c-0.6,0-1.2-0.1-1.5-0.4L119.6,45z"/>
	</g>
</g>
<g>
	<path class="st2" d="M47.1,69.3v2.8h3v-2.8h1.3v7h-1.3v-3.1h-3v3.1h-1.3v-7H47.1z"/>
	<path class="st2" d="M54.1,69.8c0,0.4-0.3,0.7-0.7,0.7c-0.4,0-0.7-0.3-0.7-0.7c0-0.4,0.3-0.7,0.7-0.7
		C53.9,69.1,54.1,69.4,54.1,69.8z M52.8,76.3v-5.1h1.3v5.1H52.8z"/>
	<path class="st2" d="M55.4,72.9c0-0.7,0-1.2,0-1.7h1.1l0.1,0.8h0c0.4-0.6,1-0.9,1.7-0.9c1.2,0,2.1,1,2.1,2.6c0,1.8-1.2,2.7-2.3,2.7
		c-0.6,0-1.2-0.3-1.4-0.7h0v2.6h-1.3V72.9z M56.7,74.2c0,0.1,0,0.2,0,0.4c0.1,0.5,0.6,0.9,1.1,0.9c0.8,0,1.3-0.7,1.3-1.7
		c0-0.9-0.4-1.6-1.3-1.6c-0.5,0-1,0.4-1.1,0.9c0,0.1-0.1,0.2-0.1,0.3V74.2z"/>
	<path class="st2" d="M62.4,74.1c0,0.9,0.7,1.3,1.6,1.3c0.6,0,1-0.1,1.4-0.2l0.2,0.9c-0.4,0.2-1,0.3-1.8,0.3c-1.6,0-2.6-1-2.6-2.6
		c0-1.4,0.9-2.7,2.5-2.7c1.6,0,2.2,1.3,2.2,2.5c0,0.2,0,0.4,0,0.5H62.4z M64.6,73.2c0-0.5-0.2-1.2-1-1.2c-0.8,0-1.1,0.7-1.2,1.2
		H64.6z"/>
	<path class="st2" d="M66.9,72.8c0-0.7,0-1.2,0-1.6h1.1l0,1h0c0.2-0.7,0.8-1.1,1.4-1.1c0.1,0,0.2,0,0.3,0v1.2c-0.1,0-0.2,0-0.4,0
		c-0.6,0-1,0.4-1.1,1c0,0.1,0,0.2,0,0.4v2.6h-1.3V72.8z"/>
	<path class="st2" d="M72,69.8v1.4h1.2v1H72v2.2c0,0.6,0.2,0.9,0.7,0.9c0.2,0,0.4,0,0.5-0.1l0,1c-0.2,0.1-0.5,0.1-0.9,0.1
		c-0.5,0-0.9-0.2-1.1-0.4c-0.3-0.3-0.4-0.7-0.4-1.4v-2.4H70v-1h0.7v-1.1L72,69.8z"/>
	<path class="st2" d="M75.1,74.1c0,0.9,0.7,1.3,1.6,1.3c0.6,0,1-0.1,1.4-0.2l0.2,0.9c-0.4,0.2-1,0.3-1.8,0.3c-1.6,0-2.6-1-2.6-2.6
		c0-1.4,0.9-2.7,2.5-2.7c1.6,0,2.2,1.3,2.2,2.5c0,0.2,0,0.4,0,0.5H75.1z M77.3,73.2c0-0.5-0.2-1.2-1-1.2c-0.8,0-1.1,0.7-1.2,1.2
		H77.3z"/>
	<path class="st2" d="M79.6,72.7c0-0.6,0-1.1,0-1.5h1.1l0.1,0.8h0c0.2-0.4,0.8-0.9,1.6-0.9c0.9,0,1.8,0.6,1.8,2.2v3h-1.3v-2.9
		c0-0.7-0.3-1.3-1-1.3c-0.5,0-0.9,0.4-1,0.7c0,0.1-0.1,0.3-0.1,0.4v3h-1.3V72.7z"/>
	<path class="st2" d="M85.4,75.1c0.3,0.2,0.8,0.4,1.3,0.4c0.6,0,0.8-0.2,0.8-0.6c0-0.3-0.2-0.5-0.8-0.7c-1-0.3-1.4-0.9-1.4-1.5
		c0-0.9,0.7-1.6,1.9-1.6c0.6,0,1,0.1,1.3,0.3l-0.2,0.9c-0.2-0.1-0.6-0.3-1.1-0.3c-0.5,0-0.7,0.2-0.7,0.5c0,0.3,0.2,0.5,0.9,0.7
		c0.9,0.3,1.3,0.8,1.3,1.5c0,0.9-0.7,1.6-2.1,1.6c-0.6,0-1.2-0.1-1.5-0.4L85.4,75.1z"/>
	<path class="st2" d="M91.2,69.8c0,0.4-0.3,0.7-0.7,0.7c-0.4,0-0.7-0.3-0.7-0.7c0-0.4,0.3-0.7,0.7-0.7
		C90.9,69.1,91.2,69.4,91.2,69.8z M89.8,76.3v-5.1h1.3v5.1H89.8z"/>
	<path class="st2" d="M97.3,73.7c0,1.9-1.3,2.7-2.6,2.7c-1.4,0-2.5-1-2.5-2.6c0-1.7,1.1-2.7,2.6-2.7C96.3,71.1,97.3,72.2,97.3,73.7z
		 M93.5,73.7c0,1,0.5,1.7,1.3,1.7c0.7,0,1.2-0.7,1.2-1.7c0-0.8-0.4-1.7-1.2-1.7C93.8,72,93.5,72.9,93.5,73.7z M96.2,69L95,70.6h-0.9
		L95,69H96.2z"/>
	<path class="st2" d="M98.3,72.7c0-0.6,0-1.1,0-1.5h1.1l0.1,0.8h0c0.2-0.4,0.8-0.9,1.6-0.9c0.9,0,1.8,0.6,1.8,2.2v3h-1.3v-2.9
		c0-0.7-0.3-1.3-1-1.3c-0.5,0-0.9,0.4-1,0.7c0,0.1-0.1,0.3-0.1,0.4v3h-1.3V72.7z"/>
</g>
<g>
	<path class="st3" d="M50.1,97.8h-2.6v2.1h2.9v1h-4.2v-7h4.1v1h-2.8v1.8h2.6V97.8z"/>
	<path class="st3" d="M51.4,97.3c0-0.6,0-1.1,0-1.5h1.1l0.1,0.8h0c0.2-0.4,0.8-0.9,1.6-0.9c0.9,0,1.8,0.6,1.8,2.2v3h-1.3V98
		c0-0.7-0.3-1.3-1-1.3c-0.5,0-0.9,0.4-1,0.7c0,0.1-0.1,0.3-0.1,0.4v3h-1.3V97.3z"/>
	<path class="st3" d="M57.5,100.9v-4.1h-0.7v-1h0.7v-0.2c0-0.7,0.2-1.3,0.6-1.7c0.4-0.4,0.9-0.5,1.3-0.5c0.3,0,0.6,0.1,0.8,0.1
		l-0.1,1c-0.1-0.1-0.3-0.1-0.5-0.1c-0.6,0-0.9,0.5-0.9,1.2v0.3h1.1v1h-1.1v4.1H57.5z"/>
	<path class="st3" d="M61.6,98.7c0,0.9,0.7,1.3,1.6,1.3c0.6,0,1-0.1,1.4-0.2l0.2,0.9c-0.4,0.2-1,0.3-1.8,0.3c-1.6,0-2.6-1-2.6-2.6
		c0-1.4,0.9-2.7,2.5-2.7c1.6,0,2.2,1.3,2.2,2.5c0,0.2,0,0.4,0,0.5H61.6z M63.8,97.8c0-0.5-0.2-1.2-1-1.2c-0.8,0-1.1,0.7-1.2,1.2
		H63.8z"/>
	<path class="st3" d="M66,97.4c0-0.7,0-1.2,0-1.6h1.1l0,1h0c0.2-0.7,0.8-1.1,1.4-1.1c0.1,0,0.2,0,0.3,0v1.2c-0.1,0-0.2,0-0.4,0
		c-0.6,0-1,0.4-1.1,1c0,0.1,0,0.2,0,0.4v2.6H66V97.4z"/>
	<path class="st3" d="M69.7,97.3c0-0.6,0-1.1,0-1.5h1.1l0.1,0.7h0c0.2-0.4,0.7-0.9,1.6-0.9c0.7,0,1.2,0.4,1.4,0.9h0
		c0.2-0.3,0.4-0.5,0.6-0.6c0.3-0.2,0.6-0.3,1-0.3c0.8,0,1.7,0.6,1.7,2.2v3h-1.2v-2.8c0-0.8-0.3-1.3-0.9-1.3c-0.4,0-0.8,0.3-0.9,0.7
		c0,0.1-0.1,0.3-0.1,0.4v3h-1.2v-2.9c0-0.7-0.3-1.2-0.9-1.2c-0.5,0-0.8,0.4-0.9,0.7C71,97.6,71,97.7,71,97.9v3h-1.2V97.3z"/>
	<path class="st3" d="M79.4,98.7c0,0.9,0.7,1.3,1.6,1.3c0.6,0,1-0.1,1.4-0.2l0.2,0.9c-0.4,0.2-1,0.3-1.8,0.3c-1.6,0-2.6-1-2.6-2.6
		c0-1.4,0.9-2.7,2.5-2.7c1.6,0,2.2,1.3,2.2,2.5c0,0.2,0,0.4,0,0.5H79.4z M81.7,97.8c0-0.5-0.2-1.2-1-1.2c-0.8,0-1.1,0.7-1.2,1.2
		H81.7z"/>
	<path class="st3" d="M88.5,93.5v5.9c0,0.5,0,1.1,0,1.4h-1.1l-0.1-0.8h0c-0.3,0.6-0.9,0.9-1.6,0.9c-1.2,0-2.2-1-2.2-2.6
		c0-1.7,1-2.7,2.3-2.7c0.7,0,1.2,0.3,1.4,0.7h0v-2.9H88.5z M87.3,97.9c0-0.1,0-0.2,0-0.3c-0.1-0.5-0.5-0.9-1.1-0.9
		c-0.8,0-1.3,0.7-1.3,1.7c0,0.9,0.5,1.6,1.3,1.6c0.5,0,1-0.4,1.1-0.9c0-0.1,0-0.2,0-0.4V97.9z"/>
	<path class="st3" d="M92.8,100.9l-0.1-0.6h0c-0.3,0.4-0.8,0.7-1.5,0.7c-1,0-1.6-0.7-1.6-1.5c0-1.3,1.1-1.9,3-1.9v-0.1
		c0-0.3-0.1-0.9-1-0.9c-0.5,0-1,0.2-1.4,0.4l-0.2-0.8c0.4-0.2,1-0.4,1.8-0.4c1.6,0,2.1,1,2.1,2.1v1.8c0,0.5,0,0.9,0.1,1.2H92.8z
		 M92.6,98.4c-0.9,0-1.8,0.2-1.8,0.9c0,0.5,0.3,0.7,0.7,0.7c0.5,0,0.9-0.3,1-0.7c0-0.1,0-0.2,0-0.3V98.4z"/>
	<path class="st3" d="M99.9,93.5v5.9c0,0.5,0,1.1,0,1.4h-1.1l-0.1-0.8h0c-0.3,0.6-0.9,0.9-1.6,0.9c-1.2,0-2.2-1-2.2-2.6
		c0-1.7,1-2.7,2.3-2.7c0.7,0,1.2,0.3,1.4,0.7h0v-2.9H99.9z M98.6,97.9c0-0.1,0-0.2,0-0.3c-0.1-0.5-0.5-0.9-1.1-0.9
		c-0.8,0-1.3,0.7-1.3,1.7c0,0.9,0.5,1.6,1.3,1.6c0.5,0,1-0.4,1.1-0.9c0-0.1,0-0.2,0-0.4V97.9z"/>
	<path class="st3" d="M107.1,100.7c-0.3,0.1-0.8,0.3-1.4,0.3c-1.6,0-2.6-1-2.6-2.6c0-1.5,1-2.7,2.8-2.7c0.5,0,0.9,0.1,1.2,0.2
		l-0.2,1c-0.2-0.1-0.5-0.2-1-0.2c-1,0-1.6,0.7-1.5,1.6c0,1,0.7,1.6,1.5,1.6c0.4,0,0.8-0.1,1-0.2L107.1,100.7z"/>
	<path class="st3" d="M108.9,98.7c0,0.9,0.7,1.3,1.6,1.3c0.6,0,1-0.1,1.4-0.2l0.2,0.9c-0.4,0.2-1,0.3-1.8,0.3c-1.6,0-2.6-1-2.6-2.6
		c0-1.4,0.9-2.7,2.5-2.7c1.6,0,2.2,1.3,2.2,2.5c0,0.2,0,0.4,0,0.5H108.9z M111.2,97.8c0-0.5-0.2-1.2-1-1.2c-0.8,0-1.1,0.7-1.2,1.2
		H111.2z"/>
	<path class="st3" d="M113.4,97.4c0-0.7,0-1.2,0-1.6h1.1l0,1h0c0.2-0.7,0.8-1.1,1.4-1.1c0.1,0,0.2,0,0.3,0v1.2c-0.1,0-0.2,0-0.4,0
		c-0.6,0-1,0.4-1.1,1c0,0.1,0,0.2,0,0.4v2.6h-1.3V97.4z"/>
	<path class="st3" d="M118,98.7c0,0.9,0.7,1.3,1.6,1.3c0.6,0,1-0.1,1.4-0.2l0.2,0.9c-0.4,0.2-1,0.3-1.8,0.3c-1.6,0-2.6-1-2.6-2.6
		c0-1.4,0.9-2.7,2.5-2.7c1.6,0,2.2,1.3,2.2,2.5c0,0.2,0,0.4,0,0.5H118z M120.2,97.8c0-0.5-0.2-1.2-1-1.2c-0.8,0-1.1,0.7-1.2,1.2
		H120.2z"/>
	<path class="st3" d="M122.4,100.9c0-0.3,0-0.9,0-1.4v-5.9h1.3v3h0c0.3-0.5,0.9-0.8,1.6-0.8c1.2,0,2.1,1,2.1,2.6
		c0,1.8-1.2,2.7-2.3,2.7c-0.7,0-1.2-0.2-1.6-0.9h0l-0.1,0.8H122.4z M123.7,98.8c0,0.1,0,0.2,0,0.3c0.1,0.5,0.6,0.9,1.1,0.9
		c0.8,0,1.3-0.6,1.3-1.7c0-0.9-0.4-1.6-1.3-1.6c-0.5,0-1,0.4-1.1,0.9c0,0.1,0,0.2,0,0.3V98.8z"/>
	<path class="st3" d="M128.5,97.4c0-0.7,0-1.2,0-1.6h1.1l0,1h0c0.2-0.7,0.8-1.1,1.4-1.1c0.1,0,0.2,0,0.3,0v1.2c-0.1,0-0.2,0-0.4,0
		c-0.6,0-1,0.4-1.1,1c0,0.1,0,0.2,0,0.4v2.6h-1.3V97.4z"/>
	<path class="st3" d="M135,100.9l-0.1-0.6h0c-0.3,0.4-0.8,0.7-1.5,0.7c-1,0-1.6-0.7-1.6-1.5c0-1.3,1.1-1.9,3-1.9v-0.1
		c0-0.3-0.1-0.9-1-0.9c-0.5,0-1,0.2-1.4,0.4l-0.2-0.8c0.4-0.2,1-0.4,1.8-0.4c1.6,0,2.1,1,2.1,2.1v1.8c0,0.5,0,0.9,0.1,1.2H135z
		 M134.9,98.4c-0.9,0-1.8,0.2-1.8,0.9c0,0.5,0.3,0.7,0.7,0.7c0.5,0,0.9-0.3,1-0.7c0-0.1,0-0.2,0-0.3V98.4z"/>
	<path class="st3" d="M137.5,93.5h1.3v7.4h-1.3V93.5z"/>
</g>
<g>
	<path class="st4" d="M28.5,90.9c-0.2,0.8,0,1.4,0.6,1.8c0.5,0.3,1.4,0.3,2-0.2c-0.1-0.2-0.2-0.4-0.3-0.5c-0.3,0.1-0.6,0.2-0.9,0.2
		c-0.5,0-0.9-0.4-0.8-0.9c0-0.3,0.2-0.5,0.5-0.5c0.3,0,0.6,0,0.9,0c0.4,0,0.9,0.1,1.3,0.1c0.7,0.1,1.2,0.8,1.1,1.4
		c-0.1,0.6-0.5,0.9-1,1.1c-0.2,0.1-0.4,0.1-0.6,0.1c-0.7,0-1.2,0.3-1.5,0.9c-0.7,1.2-0.3,2.6,0.9,3.3c0.2,0.1,0.4,0.2,0.7,0.3
		c0.1-0.2,0.1-0.4,0.2-0.6c-0.3-0.1-0.5-0.2-0.7-0.4c-0.8-0.5-1-1.6-0.5-2.4c0.2-0.3,0.5-0.5,0.9-0.5c0.6,0,1.2-0.2,1.6-0.6
		c0.7-0.6,0.9-1.4,0.5-2.3c0.1,0,0.1,0,0.2,0.1c1,0.4,1.9,0.9,2.8,1.5c0.7,0.5,0.7,1.3-0.1,1.7c-0.4,0.2-0.7,0.3-1.2,0.2
		c-0.1,0-0.2-0.1-0.3-0.2c-0.4-0.3-0.4-0.7-0.1-1c-0.1-0.2-0.2-0.3-0.4-0.5c-0.3,0.2-0.4,0.4-0.5,0.7c-0.1,0.6,0.1,1.2,0.7,1.5
		c1,0.5,2.3,0.1,2.8-0.9c0.1-0.1,0.1-0.3,0.2-0.5c0.1,0.1,0.2,0.2,0.3,0.3c0.6,0.6,1,1.4,1.2,2.2c0.2,0.9,0,1.8-0.7,2.5
		c-0.6,0.5-1.3,0.7-2,0.5c-0.6-0.2-0.9-0.7-0.7-1.2c0.1-0.4,0.4-0.6,0.8-0.6c0.1,0,0.2,0,0.4,0c0-0.2,0-0.4,0.1-0.6
		c-1.1-0.2-2.4,0.8-1.8,2.2c-0.3,0-0.5-0.1-0.8-0.1c-0.3,0-0.5,0-0.8,0c0.6-0.8,0.9-1.8,0.3-2.8c-0.4-0.7-1-1-1.8-1.1
		c0,0.2,0,0.4-0.1,0.6c0.1,0,0.3,0,0.4,0.1c0.9,0.3,1.4,1.1,1,2.1c-0.3,0.7-0.8,1.1-1.4,1.4c-0.6,0.3-1.2,0.5-1.8,0.7c0,0,0,0-0.1,0
		c0-0.1,0-0.3-0.1-0.4c-0.3-1.1-1.9-1.6-2.8-0.9c-0.6,0.5-0.6,1.3,0,1.8c0.1-0.2,0.3-0.3,0.4-0.5c-0.3-0.4-0.1-0.8,0.4-1
		c0.5-0.1,1.1,0.1,1.3,0.6c0.1,0.2,0.1,0.5-0.1,0.7c-0.2,0.3-0.6,0.5-0.9,0.6c-0.8,0.4-1.6,0.5-2.4,0.4c-1.1-0.2-1.7-1.2-1.5-2
		c0.1-0.6,0.5-0.9,1.2-1c0.1,0,0.2,0,0.4,0c0-0.2,0.1-0.4,0.1-0.6c-1.4-0.3-2.7,0.8-2.2,2.6c-1.1-0.7-1.9-3.2-1.5-4.5
		c0.6,1,1.6,1.1,2.6,0.9c0.7-0.1,1.4-0.4,2-0.8c0.8-0.6,1.2-1.5,1.1-2.5c-0.1-0.7-0.7-1.2-1.5-1.1c0,0.2,0,0.4,0,0.6
		c0.1,0,0.2,0,0.3,0c0.3,0.1,0.5,0.3,0.5,0.6c0,0.7-0.3,1.4-0.9,1.8c-0.8,0.5-1.6,0.8-2.6,0.7c-0.2,0-0.4-0.1-0.6-0.2
		C23,96,22.7,95.6,22.8,95c0.1-0.5,0.3-1,0.7-1.4c0.1,0.6,0.4,1,1,1.2c0.4,0.1,1,0.1,1.3-0.1c-0.1-0.2-0.1-0.4-0.2-0.6
		c-0.2,0-0.3,0.1-0.5,0.1c-0.5,0.1-0.8-0.1-1-0.5c-0.2-0.4,0-0.9,0.3-1.1c0.9-0.7,1.9-1.1,2.9-1.4C27.8,91.1,28.2,91,28.5,90.9z"/>
	<path class="st4" d="M33.8,99.8c-0.4,0.6-0.8,1.1-1.3,1.5c-0.4,0.4-0.9,0.7-1.3,1.1c-1,0.9-1.8,2-2.4,3.2c0,0.1-0.1,0.2-0.1,0.2
		c-0.1,0.2-0.3,0.2-0.5,0.1c-0.2-0.1-0.3-0.3-0.2-0.5c0.1-0.4,0.2-0.8,0.4-1.2c0,0,0,0,0-0.1c0.1-0.2,0.2-0.3,0.4-0.3
		c0.9-0.3,1.4-1,1.6-1.9c-0.2,0-0.4-0.1-0.6-0.1c0,0,0,0.1,0,0.1c-0.1,0.4-0.4,0.8-0.7,1c-0.2,0.2-0.5,0.2-0.8,0.3
		c-0.8,0.1-1.7,0.2-2.5-0.1c-0.9-0.3-1.5-0.9-1.8-1.8c0,0,0-0.1,0-0.2c0.5,0.3,1,0.6,1.5,0.8c1.4,0.4,2.7,0.2,3.9-0.6
		c0.9-0.5,1.8-1,2.8-1.4C32.6,100,33.1,99.9,33.8,99.8z"/>
</g>
<g>
	<g>
		<path class="st2" d="M46.7,123.3c0.6-0.1,1.3-0.1,2-0.1c1.3,0,2.2,0.3,2.9,0.8c0.7,0.6,1.1,1.4,1.1,2.6c0,1.2-0.4,2.2-1.1,2.8
			c-0.7,0.6-1.8,1-3.2,1c-0.7,0-1.3,0-1.7-0.1V123.3z M47.9,129.2c0.2,0,0.4,0,0.7,0c1.7,0,2.6-0.9,2.6-2.7c0-1.5-0.9-2.4-2.5-2.4
			c-0.4,0-0.7,0-0.9,0.1V129.2z"/>
		<path class="st2" d="M54.6,128c0,0.9,0.7,1.3,1.6,1.3c0.6,0,1-0.1,1.4-0.2l0.2,0.9c-0.4,0.2-1,0.3-1.8,0.3c-1.6,0-2.6-1-2.6-2.6
			c0-1.4,0.9-2.7,2.5-2.7c1.6,0,2.2,1.3,2.2,2.5c0,0.2,0,0.4,0,0.5H54.6z M56.8,127.1c0-0.5-0.2-1.2-1-1.2c-0.8,0-1.1,0.7-1.2,1.2
			H56.8z"/>
		<path class="st2" d="M59,126.8c0-0.7,0-1.2,0-1.7h1.1l0.1,0.8h0c0.4-0.6,1-0.9,1.7-0.9c1.2,0,2.1,1,2.1,2.6c0,1.8-1.2,2.7-2.3,2.7
			c-0.6,0-1.2-0.3-1.4-0.7h0v2.6H59V126.8z M60.3,128.1c0,0.1,0,0.2,0,0.4c0.1,0.5,0.6,0.9,1.1,0.9c0.8,0,1.3-0.7,1.3-1.7
			c0-0.9-0.4-1.6-1.3-1.6c-0.5,0-1,0.4-1.1,0.9c0,0.1-0.1,0.2-0.1,0.3V128.1z"/>
		<path class="st2" d="M65.1,126.8c0-0.7,0-1.2,0-1.6h1.1l0,1h0c0.2-0.7,0.8-1.1,1.4-1.1c0.1,0,0.2,0,0.3,0v1.2c-0.1,0-0.2,0-0.4,0
			c-0.6,0-1,0.4-1.1,1c0,0.1,0,0.2,0,0.4v2.6h-1.3V126.8z"/>
		<path class="st2" d="M69.7,128c0,0.9,0.7,1.3,1.6,1.3c0.6,0,1-0.1,1.4-0.2l0.2,0.9c-0.4,0.2-1,0.3-1.8,0.3c-1.6,0-2.6-1-2.6-2.6
			c0-1.4,0.9-2.7,2.5-2.7c1.6,0,2.2,1.3,2.2,2.5c0,0.2,0,0.4,0,0.5H69.7z M71.9,127.1c0-0.5-0.2-1.2-1-1.2c-0.8,0-1.1,0.7-1.2,1.2
			H71.9z"/>
		<path class="st2" d="M74.1,129c0.3,0.2,0.8,0.4,1.3,0.4c0.6,0,0.8-0.2,0.8-0.6c0-0.3-0.2-0.5-0.8-0.7c-1-0.3-1.4-0.9-1.4-1.5
			c0-0.9,0.7-1.6,1.9-1.6c0.6,0,1,0.1,1.3,0.3l-0.2,0.9c-0.2-0.1-0.6-0.3-1.1-0.3c-0.5,0-0.7,0.2-0.7,0.5c0,0.3,0.2,0.5,0.9,0.7
			c0.9,0.3,1.3,0.8,1.3,1.5c0,0.9-0.7,1.6-2.1,1.6c-0.6,0-1.2-0.1-1.5-0.4L74.1,129z"/>
		<path class="st2" d="M79.9,123.7c0,0.4-0.3,0.7-0.7,0.7c-0.4,0-0.7-0.3-0.7-0.7c0-0.4,0.3-0.7,0.7-0.7
			C79.6,123,79.8,123.3,79.9,123.7z M78.5,130.2v-5.1h1.3v5.1H78.5z"/>
		<path class="st2" d="M86,127.6c0,1.9-1.3,2.7-2.6,2.7c-1.4,0-2.5-1-2.5-2.6c0-1.7,1.1-2.7,2.6-2.7C84.9,125,86,126.1,86,127.6z
			 M82.1,127.7c0,1,0.5,1.7,1.3,1.7c0.7,0,1.2-0.7,1.2-1.7c0-0.8-0.4-1.7-1.2-1.7C82.5,126,82.1,126.8,82.1,127.7z M84.9,122.9
			l-1.3,1.5h-0.9l0.9-1.5H84.9z"/>
		<path class="st2" d="M87,126.6c0-0.6,0-1.1,0-1.5h1.1l0.1,0.8h0c0.2-0.4,0.8-0.9,1.6-0.9c0.9,0,1.8,0.6,1.8,2.2v3h-1.3v-2.9
			c0-0.7-0.3-1.3-1-1.3c-0.5,0-0.9,0.4-1,0.7c0,0.1-0.1,0.3-0.1,0.4v3H87V126.6z"/>
	</g>
</g>
<g>
	<path class="st3" d="M29,43.2c-1,0.6-1.4,2.1-0.2,3.1c-0.5,0.4-0.7,1-0.6,1.6c0.1,0.7,0.5,1.1,1.1,1.3c0,0-0.1,0-0.1,0
		c-1.8,0-3.5,0-5.3,0c-1,0-1.6-0.6-1.6-1.6c0-0.8,0-1.6,0-2.4c0-1.9,0-3.7,0-5.6c0-0.5,0.1-1,0.2-1.5c0-0.1,0.1-0.1,0.2-0.1
		c1,0,1.9,0,2.9,0c1.9,0,3.8,0.1,5.7,0.2c2.4,0.1,4.7,0.2,7.1,0.2c0.3,0,0.6,0,0.9,0c0.8,0,1.2,0.6,1.2,1.3c0,0.1,0,0.2,0,0.3
		c-0.1,0.5-0.5,0.8-1,0.8c-1.4,0-2.8,0-4.2-0.1c-0.4,0-0.8-0.1-1.2-0.2c-0.9-0.2-1.8-0.3-2.7-0.5c-0.5-0.1-1-0.3-1.4-0.4
		c-0.9-0.3-1.9-0.6-2.8-0.9c-0.2-0.1-0.3,0-0.4,0.1c0,0.1,0,0.3,0.2,0.4c0.4,0.1,0.8,0.3,1.1,0.4c1,0.3,2,0.7,3,1
		c0.5,0.2,0.7,0.5,0.8,1c0.1,0.5-0.1,0.9-0.4,1.2c-0.3,0.2-0.7,0.3-1,0.2c-0.6-0.2-1.1-0.4-1.7-0.6c-0.6-0.2-1.1-0.2-1.7,0
		c-0.4,0.2-0.8,0.3-1.3,0.5c-0.5,0.2-1.1,0.3-1.6,0.3c-0.2,0-0.3,0.1-0.3,0.2c0,0.1,0.1,0.3,0.3,0.3c0.4,0,0.9-0.1,1.3-0.2
		c0.5-0.2,0.9-0.4,1.4-0.5c0.3-0.1,0.5-0.2,0.8-0.3C28.1,42.9,28.5,43,29,43.2C28.9,43.2,29,43.2,29,43.2z"/>
	<path class="st3" d="M40.2,47c0,0.8-0.2,1.4-0.7,1.8c-0.7,0.8-2.4,0.8-3-0.6c-0.3-0.6-0.3-1.3-0.1-1.9c0.2-0.6,0.4-1.3,0.7-1.8
		c0.3-0.7,0.7-1.4,1-2.1c0,0,0-0.1,0.1-0.1c0.1-0.2,0.1-0.2,0.2,0c0.3,0.5,0.5,1,0.8,1.6c0.4,0.8,0.7,1.7,0.9,2.6
		C40.2,46.6,40.2,46.8,40.2,47z M39.3,46.1c0-0.2,0-0.3,0-0.5c0-0.1,0-0.1-0.1-0.1c-0.2,0-0.3,0-0.5,0c-0.1,0-0.2,0-0.2-0.2
		c0-0.2,0-0.4,0-0.6c0-0.1,0-0.2-0.2-0.2c0,0-0.1,0-0.1,0c-0.1,0-0.2,0-0.1,0.2c0,0.2,0,0.4,0,0.5c0,0.2-0.1,0.2-0.2,0.2
		c-0.2,0-0.4,0-0.6,0c0,0.2,0,0.4,0,0.6c0.2,0,0.4,0,0.6,0c0.1,0,0.1,0,0.1,0.1c0,0.2,0,0.4,0,0.6c0,0,0,0.1,0.1,0.1
		c0.1,0,0.2,0,0.4,0c0-0.2,0-0.5,0-0.7c0-0.1,0-0.2,0.2-0.2C38.9,46.1,39.1,46.1,39.3,46.1z M38.3,48.1
		C38.3,48.1,38.3,48.1,38.3,48.1c0.2,0,0.4,0,0.6,0c0.4,0,0.4,0,0.4-0.4c0-0.1,0-0.2-0.1-0.1c-0.5,0-1,0-1.4,0c-0.4,0-0.4,0-0.4,0.4
		c0,0.1,0,0.1,0.2,0.1C37.7,48.1,38,48.1,38.3,48.1z"/>
	<path class="st3" d="M34.5,45.5c0,0.6-0.6,1.2-1.4,1.1c-0.8-0.1-1.5-0.2-2.3-0.3c-0.4-0.1-0.9-0.1-1.3-0.2
		c-0.8-0.1-1.3-1.1-0.8-1.9c0.3-0.4,0.7-0.6,1.2-0.5c0.5,0.1,1.1,0.2,1.6,0.2c0.6,0.1,1.2,0.2,1.8,0.3c0.1,0,0.3,0,0.4,0.1
		C34.2,44.4,34.5,45,34.5,45.5z"/>
	<path class="st3" d="M31.8,43.4c0.7-0.7,0.7-1.5,0.3-2.4c0.2,0,0.3,0,0.5,0.1c0.7,0.1,1.4,0.2,2.2,0.4c0.5,0.1,0.8,0.4,1,0.9
		c0.1,0.5,0,1-0.4,1.3c-0.2,0.2-0.5,0.2-0.8,0.2c-0.6-0.1-1.1-0.2-1.7-0.2C32.5,43.5,32.2,43.4,31.8,43.4z"/>
	<path class="st3" d="M28.6,47.7c0-0.7,0.5-1.1,1.2-1.1c0.7,0.1,1.4,0.2,2.1,0.3c0.6,0.1,0.9,0.6,0.8,1.2c-0.1,0.6-0.6,1-1.2,0.9
		c-0.7-0.1-1.4-0.2-2.1-0.3C29,48.7,28.6,48.2,28.6,47.7z"/>
</g>
<g>
	<path class="st4" d="M37.1,68.2c-1.8-1.2-4.2-0.9-5.9,0.6c-0.3,0.2-0.4,0.2-0.6,0c-1.2-1-2.6-1.5-4.2-1.3c-2.2,0.3-4.1,2.7-3.9,4.9
		c0.2,1.6,0.8,2.9,1.9,4c1.8,1.8,3.9,3.1,6.2,4.1c0.1,0.1,0.4,0.1,0.5,0c2.2-1,4.4-2.2,6.1-4c1.1-1.2,2-2.5,1.9-4.2
		C39.1,70.6,38.5,69.1,37.1,68.2z"/>
	<path class="st5" d="M22.3,73.9c0,0.1,0.2,0.1,0.3,0.2c0,0,0.1,0,0.1,0c0.7,0.2,1.2-0.2,1.5-0.8c0.1-0.3,0.4-0.6,0.5-0.8
		c0.1-0.2,0.3-0.3,0.5-0.2c0.1,0.1,0.3,0.2,0.3,0.4c0.2,0.7,0.3,1.5,0.5,2.3c0-0.1,0.1-0.2,0.1-0.3c0.4-1.6,0.7-3.2,1.1-4.8
		c0.1-0.4,0.2-0.4,0.5-0.4c0.3,0,0.4,0.2,0.4,0.5c0.2,1.7,0.4,3.3,0.6,5c0,0,0,0.1,0.1,0.1c0.1-0.5,0.3-0.9,0.4-1.4
		c0-0.2,0.1-0.3,0.1-0.5c0.1-0.2,0.2-0.4,0.4-0.4c0.3,0,0.4,0.2,0.4,0.4c0.1,0.6,0.2,1.3,0.4,1.9c0,0,0,0.1,0,0.2
		c0.1-0.2,0.2-0.4,0.3-0.6c0.1-0.3,0.3-0.4,0.6-0.4c0.6,0,1.2,0,1.9,0c0.1,0,0.3-0.1,0.4-0.2c0.4-0.3,0.9-0.3,1.2,0
		c0.3,0.3,0.3,0.9,0,1.2c-0.3,0.3-0.9,0.3-1.2,0c-0.1-0.2-0.3-0.2-0.4-0.2c-0.5,0-1,0-1.5,0c-0.2,0-0.3,0-0.3,0.2
		c-0.2,0.5-0.4,0.9-0.6,1.4c-0.1,0.2-0.2,0.4-0.5,0.3c-0.2,0-0.3-0.2-0.4-0.4c-0.1-0.5-0.2-1-0.3-1.6c0,0.1-0.1,0.2-0.1,0.3
		c-0.2,0.7-0.4,1.3-0.5,2c-0.1,0.2-0.2,0.4-0.5,0.4c-0.3,0-0.4-0.2-0.4-0.5c-0.2-1.5-0.4-3.1-0.6-4.6c0-0.1,0-0.1-0.1-0.2
		c-0.1,0.6-0.3,1.2-0.4,1.8c-0.2,0.9-0.4,1.7-0.6,2.6c-0.1,0.2-0.1,0.5-0.4,0.5c-0.3,0-0.4-0.2-0.4-0.5c-0.2-1-0.4-2-0.7-3
		c-0.2,0.3-0.4,0.6-0.5,0.8c-0.2,0.3-0.4,0.5-0.8,0.4c-0.2,0-0.5,0-0.7,0c0,0.1,0.1,0.1,0.1,0.2"/>
</g>
<g>
	<circle class="st3" cx="31.8" cy="126.2" r="8.3"/>
	<g>
		<g>
			<path class="st5" d="M31.3,118.5c0.3,0,0.7,0,1,0c0,0,0.1,0,0.1,0c0.4,0.1,0.8,0.1,1.2,0.2c1.5,0.4,2.7,1.1,3.7,2.2
				c1.1,1.1,1.7,2.5,2,4c0,0.2,0.1,0.4,0.1,0.6c0,0.3,0,0.7,0,1c0,0,0,0.1,0,0.1c-0.1,0.4-0.1,0.8-0.2,1.2c-0.4,1.5-1.1,2.7-2.2,3.7
				c-1.1,1.1-2.5,1.7-4,2c-0.2,0-0.4,0.1-0.6,0.1c-0.3,0-0.7,0-1,0c0,0-0.1,0-0.1,0c-0.3,0-0.6-0.1-0.9-0.1c-1.5-0.3-2.9-1.1-4-2.2
				c-1.1-1.2-1.8-2.5-2-4.1c0-0.2-0.1-0.4-0.1-0.7c0-0.3,0-0.7,0-1c0,0,0-0.1,0-0.1c0.1-0.4,0.1-0.8,0.2-1.2
				c0.4-1.5,1.1-2.7,2.2-3.7c1.1-1.1,2.5-1.7,4-2C30.9,118.6,31.1,118.6,31.3,118.5z M38.8,126.2c0-3.9-3.2-7-7-7c-3.9,0-7,3.2-7,7
				c0,3.9,3.2,7,7,7C35.7,133.2,38.8,130,38.8,126.2z"/>
			<path class="st6" d="M32,128.1c1.5,0,2.9,0.7,4.1,1.9c0.1,0.1,0.1,0.1,0.1,0.2c0,0.1,0,0.3-0.2,0.3c-0.1,0.1-0.3,0-0.4-0.1
				c-0.2-0.2-0.3-0.4-0.5-0.5c-0.8-0.7-1.7-1.1-2.7-1.2c-1.8-0.2-3.3,0.3-4.5,1.6c0,0,0,0.1-0.1,0.1c-0.1,0.1-0.3,0.1-0.5,0
				c-0.1-0.1-0.1-0.3,0-0.5c0.3-0.4,0.7-0.7,1.1-1C29.6,128.5,30.6,128.1,32,128.1z"/>
		</g>
		<path class="st6" d="M34.4,125.2c-1,0-1.9-0.8-1.9-1.9c0-0.2,0.1-0.4,0.3-0.4c0.2,0,0.3,0.1,0.3,0.3c0,0.6,0.5,1.2,1.3,1.2
			c0.7,0,1.2-0.5,1.3-1.3c0-0.2,0.1-0.4,0.3-0.3c0.2,0,0.3,0.2,0.3,0.4c0,0.1,0,0.1,0,0.2C36.1,124.5,35.3,125.2,34.4,125.2z"/>
		<path class="st6" d="M29.3,125.3c-1,0-1.9-0.8-1.9-1.9c0-0.2,0.1-0.4,0.3-0.4c0.2,0,0.3,0.1,0.3,0.4c0,0.7,0.5,1.2,1.2,1.2
			c0.6,0,1.2-0.4,1.3-1.1c0-0.1,0-0.1,0-0.2c0-0.2,0.2-0.3,0.3-0.3c0.2,0,0.3,0.2,0.3,0.4c0,0.9-0.7,1.7-1.6,1.9
			C29.5,125.2,29.4,125.2,29.3,125.3z"/>
	</g>
</g>
</svg>
