<!-- Generator: Adobe Illustrator 20.1.0, SVG Export Plug-In  -->
<svg version="1.1"
	 xmlns="http://www.w3.org/2000/svg" xmlns:xlink="http://www.w3.org/1999/xlink" xmlns:a="http://ns.adobe.com/AdobeSVGViewerExtensions/3.0/"
	 x="0px" y="0px" width="94px" height="92.8px" viewBox="0 0 94 92.8" style="overflow:scroll;enable-background:new 0 0 94 92.8;"
	 xml:space="preserve">
<style type="text/css">
	.st0{fill:#E63C2F;}
	.st1{opacity:0.35;clip-path:url(#SVGID_2_);}
	.st2{fill:#231F20;}
	.st3{clip-path:url(#SVGID_2_);fill:#FFFFFF;}
	.st4{opacity:0.35;clip-path:url(#SVGID_4_);}
	.st5{clip-path:url(#SVGID_4_);fill:#FFFFFF;}
</style>
<defs>
</defs>
<g>
	<circle class="st0" cx="59.5" cy="34.5" r="34.5"/>
	<g>
		<defs>
			<circle id="SVGID_1_" cx="59.5" cy="34.5" r="34.5"/>
		</defs>
		<clipPath id="SVGID_2_">
			<use xlink:href="#SVGID_1_"  style="overflow:visible;"/>
		</clipPath>
		<g class="st1">
			<path class="st2" d="M37.4,37.2c-0.1-0.1-0.1-0.2-0.1-0.2c-0.1-0.2-0.2-0.4-0.3-0.6c0-0.1-0.1-0.2-0.1-0.3
				c-0.1-0.2-0.1-0.4-0.2-0.6c0-0.1,0-0.3,0-0.4c0-0.2,0-0.3,0-0.5c0-0.2,0-0.4,0-0.5c0-0.1,0-0.3,0-0.4c0-0.2,0.1-0.4,0.2-0.6
				c0-0.1,0.1-0.2,0.1-0.3c0.1-0.2,0.2-0.4,0.3-0.6c0-0.1,0.1-0.2,0.1-0.3c0.1-0.2,0.3-0.4,0.5-0.6C37.9,31.1,38,31,38,31l0,0
				l16.7-16.7c2-2,5.2-2,7.1,0c2,2,2,5.2,0,7.1l-8.1,8.1h23.9v0c2.6,0.1,4.8,2.3,4.8,5c0,2.7-2.1,4.9-4.8,5v0H53.8l8.1,8.1
				c2,2,2,5.2,0,7.1c-2,2-5.2,2-7.1,0L38,38l0,0c-0.1-0.1-0.1-0.1-0.2-0.2C37.7,37.6,37.5,37.4,37.4,37.2z"/>
			<path class="st2" d="M37.2,37.5c-0.1-0.1-0.1-0.2-0.1-0.2c-0.1-0.2-0.2-0.4-0.3-0.6c0-0.1-0.1-0.2-0.1-0.3
				c-0.1-0.2-0.1-0.4-0.2-0.6c0-0.1,0-0.3,0-0.4c0-0.2,0-0.3,0-0.5c0-0.2,0-0.4,0-0.5c0-0.1,0-0.3,0-0.4c0-0.2,0.1-0.4,0.2-0.6
				c0-0.1,0.1-0.2,0.1-0.3c0.1-0.2,0.2-0.4,0.3-0.6c0-0.1,0.1-0.2,0.1-0.3c0.1-0.2,0.3-0.4,0.5-0.6c0.1-0.1,0.1-0.1,0.2-0.2l0,0
				l16.7-16.7c2-2,5.2-2,7.1,0c2,2,2,5.2,0,7.1l-8.1,8.1h23.9v0c2.6,0.1,4.8,2.3,4.8,5c0,2.7-2.1,4.9-4.8,5v0H53.5l8.1,8.1
				c2,2,2,5.2,0,7.1c-2,2-5.2,2-7.1,0L37.8,38.3l0,0c-0.1-0.1-0.1-0.1-0.2-0.2C37.5,37.9,37.3,37.7,37.2,37.5z"/>
			<path class="st2" d="M36.9,37.7c-0.1-0.1-0.1-0.2-0.1-0.2c-0.1-0.2-0.2-0.4-0.3-0.6c0-0.1-0.1-0.2-0.1-0.3
				c-0.1-0.2-0.1-0.4-0.2-0.6c0-0.1,0-0.3,0-0.4c0-0.2,0-0.3,0-0.5c0-0.2,0-0.4,0-0.5c0-0.1,0-0.3,0-0.4c0-0.2,0.1-0.4,0.2-0.6
				c0-0.1,0.1-0.2,0.1-0.3c0.1-0.2,0.2-0.4,0.3-0.6c0-0.1,0.1-0.2,0.1-0.3c0.1-0.2,0.3-0.4,0.5-0.6c0.1-0.1,0.1-0.1,0.2-0.2l0,0
				l16.7-16.7c2-2,5.2-2,7.1,0c2,2,2,5.2,0,7.1l-8.1,8.1h23.9v0c2.6,0.1,4.8,2.3,4.8,5c0,2.7-2.1,4.9-4.8,5v0H53.3l8.1,8.1
				c2,2,2,5.2,0,7.1c-2,2-5.2,2-7.1,0L37.5,38.5l0,0c-0.1-0.1-0.1-0.1-0.2-0.2C37.2,38.1,37,37.9,36.9,37.7z"/>
			<path class="st2" d="M36.7,38c-0.1-0.1-0.1-0.2-0.1-0.2c-0.1-0.2-0.2-0.4-0.3-0.6c0-0.1-0.1-0.2-0.1-0.3
				c-0.1-0.2-0.1-0.4-0.2-0.6c0-0.1,0-0.3,0-0.4c0-0.2,0-0.3,0-0.5c0-0.2,0-0.4,0-0.5c0-0.1,0-0.3,0-0.4c0-0.2,0.1-0.4,0.2-0.6
				c0-0.1,0.1-0.2,0.1-0.3c0.1-0.2,0.2-0.4,0.3-0.6c0-0.1,0.1-0.2,0.1-0.3c0.1-0.2,0.3-0.4,0.5-0.6c0.1-0.1,0.1-0.1,0.2-0.2l0,0
				L54,15c2-2,5.2-2,7.1,0c2,2,2,5.2,0,7.1L53,30.2H77v0c2.6,0.1,4.8,2.3,4.8,5c0,2.7-2.1,4.9-4.8,5v0H53l8.1,8.1c2,2,2,5.2,0,7.1
				c-2,2-5.2,2-7.1,0L37.3,38.7l0,0c-0.1-0.1-0.1-0.1-0.2-0.2C37,38.4,36.8,38.2,36.7,38z"/>
			<path class="st2" d="M36.4,38.2c-0.1-0.1-0.1-0.2-0.1-0.2c-0.1-0.2-0.2-0.4-0.3-0.6c0-0.1-0.1-0.2-0.1-0.3
				c-0.1-0.2-0.1-0.4-0.2-0.6c0-0.1,0-0.3,0-0.4c0-0.2,0-0.3,0-0.5c0-0.2,0-0.4,0-0.5c0-0.1,0-0.3,0-0.4c0-0.2,0.1-0.4,0.2-0.6
				c0-0.1,0.1-0.2,0.1-0.3c0.1-0.2,0.2-0.4,0.3-0.6c0-0.1,0.1-0.2,0.1-0.3c0.1-0.2,0.3-0.4,0.5-0.6c0.1-0.1,0.1-0.1,0.2-0.2l0,0
				l16.7-16.7c2-2,5.2-2,7.1,0c2,2,2,5.2,0,7.1l-8.1,8.1h23.9v0c2.6,0.1,4.8,2.3,4.8,5c0,2.7-2.1,4.9-4.8,5v0H52.8l8.1,8.1
				c2,2,2,5.2,0,7.1c-2,2-5.2,2-7.1,0L37,39l0,0c-0.1-0.1-0.1-0.1-0.2-0.2C36.7,38.6,36.6,38.4,36.4,38.2z"/>
			<path class="st2" d="M36.2,38.4c-0.1-0.1-0.1-0.2-0.1-0.2c-0.1-0.2-0.2-0.4-0.3-0.6c0-0.1-0.1-0.2-0.1-0.3
				c-0.1-0.2-0.1-0.4-0.2-0.6c0-0.1,0-0.3,0-0.4c0-0.2,0-0.3,0-0.5c0-0.2,0-0.4,0-0.5c0-0.1,0-0.3,0-0.4c0-0.2,0.1-0.4,0.2-0.6
				c0-0.1,0.1-0.2,0.1-0.3c0.1-0.2,0.2-0.4,0.3-0.6c0-0.1,0.1-0.2,0.1-0.3c0.1-0.2,0.3-0.4,0.5-0.6c0.1-0.1,0.1-0.1,0.2-0.2l0,0
				l16.7-16.7c2-2,5.2-2,7.1,0c2,2,2,5.2,0,7.1l-8.1,8.1h23.9v0c2.6,0.1,4.8,2.3,4.8,5c0,2.7-2.1,4.9-4.8,5v0H52.6l8.1,8.1
				c2,2,2,5.2,0,7.1c-2,2-5.2,2-7.1,0L36.8,39.2l0,0c-0.1-0.1-0.1-0.1-0.2-0.2C36.5,38.8,36.3,38.7,36.2,38.4z"/>
			<path class="st2" d="M35.9,38.7c-0.1-0.1-0.1-0.2-0.1-0.2c-0.1-0.2-0.2-0.4-0.3-0.6c0-0.1-0.1-0.2-0.1-0.3
				c-0.1-0.2-0.1-0.4-0.2-0.6c0-0.1,0-0.3,0-0.4c0-0.2,0-0.3,0-0.5c0-0.2,0-0.4,0-0.5c0-0.1,0-0.3,0-0.4c0-0.2,0.1-0.4,0.2-0.6
				c0-0.1,0.1-0.2,0.1-0.3c0.1-0.2,0.2-0.4,0.3-0.6c0-0.1,0.1-0.2,0.1-0.3c0.1-0.2,0.3-0.4,0.5-0.6c0.1-0.1,0.1-0.1,0.2-0.2l0,0
				l16.7-16.7c2-2,5.2-2,7.1,0c2,2,2,5.2,0,7.1l-8.1,8.1h23.9v0c2.6,0.1,4.8,2.3,4.8,5c0,2.7-2.1,4.9-4.8,5v0H52.3l8.1,8.1
				c2,2,2,5.2,0,7.1c-2,2-5.2,2-7.1,0L36.6,39.5l0,0c-0.1-0.1-0.1-0.1-0.2-0.2C36.2,39.1,36.1,38.9,35.9,38.7z"/>
			<path class="st2" d="M35.7,38.9c-0.1-0.1-0.1-0.2-0.1-0.2c-0.1-0.2-0.2-0.4-0.3-0.6c0-0.1-0.1-0.2-0.1-0.3
				c-0.1-0.2-0.1-0.4-0.2-0.6c0-0.1,0-0.3,0-0.4c0-0.2,0-0.3,0-0.5c0-0.2,0-0.4,0-0.5c0-0.1,0-0.3,0-0.4c0-0.2,0.1-0.4,0.2-0.6
				c0-0.1,0.1-0.2,0.1-0.3c0.1-0.2,0.2-0.4,0.3-0.6c0-0.1,0.1-0.2,0.1-0.3c0.1-0.2,0.3-0.4,0.5-0.6c0.1-0.1,0.1-0.1,0.2-0.2l0,0
				l16.7-16.7c2-2,5.2-2,7.1,0c2,2,2,5.2,0,7.1l-8.1,8.1H76v0c2.6,0.1,4.8,2.3,4.8,5c0,2.7-2.1,4.9-4.8,5v0H52.1l8.1,8.1
				c2,2,2,5.2,0,7.1c-2,2-5.2,2-7.1,0L36.3,39.7l0,0c-0.1-0.1-0.1-0.1-0.2-0.2C36,39.3,35.8,39.1,35.7,38.9z"/>
			<path class="st2" d="M35.5,39.2c-0.1-0.1-0.1-0.2-0.1-0.2c-0.1-0.2-0.2-0.4-0.3-0.6c0-0.1-0.1-0.2-0.1-0.3
				c-0.1-0.2-0.1-0.4-0.2-0.6c0-0.1,0-0.3,0-0.4c0-0.2,0-0.3,0-0.5c0-0.2,0-0.4,0-0.5c0-0.1,0-0.3,0-0.4c0-0.2,0.1-0.4,0.2-0.6
				c0-0.1,0.1-0.2,0.1-0.3c0.1-0.2,0.2-0.4,0.3-0.6c0-0.1,0.1-0.2,0.1-0.3c0.1-0.2,0.3-0.4,0.5-0.6c0.1-0.1,0.1-0.1,0.2-0.2l0,0
				l16.7-16.7c2-2,5.2-2,7.1,0c2,2,2,5.2,0,7.1l-8.1,8.1h23.9v0c2.6,0.1,4.8,2.3,4.8,5c0,2.7-2.1,4.9-4.8,5v0H51.8l8.1,8.1
				c2,2,2,5.2,0,7.1c-2,2-5.2,2-7.1,0L36.1,39.9l0,0c-0.1-0.1-0.1-0.1-0.2-0.2C35.8,39.6,35.6,39.4,35.5,39.2z"/>
			<path class="st2" d="M35.2,39.4c-0.1-0.1-0.1-0.2-0.1-0.2c-0.1-0.2-0.2-0.4-0.3-0.6c0-0.1-0.1-0.2-0.1-0.3
				c-0.1-0.2-0.1-0.4-0.2-0.6c0-0.1,0-0.3,0-0.4c0-0.2,0-0.3,0-0.5c0-0.2,0-0.4,0-0.5c0-0.1,0-0.3,0-0.4c0-0.2,0.1-0.4,0.2-0.6
				c0-0.1,0.1-0.2,0.1-0.3c0.1-0.2,0.2-0.4,0.3-0.6c0-0.1,0.1-0.2,0.1-0.3c0.1-0.2,0.3-0.4,0.5-0.6c0.1-0.1,0.1-0.1,0.2-0.2l0,0
				l16.7-16.7c2-2,5.2-2,7.1,0c2,2,2,5.2,0,7.1l-8.1,8.1h23.9v0c2.6,0.1,4.8,2.3,4.8,5c0,2.7-2.1,4.9-4.8,5v0H51.6l8.1,8.1
				c2,2,2,5.2,0,7.1c-2,2-5.2,2-7.1,0L35.8,40.2l0,0c-0.1-0.1-0.1-0.1-0.2-0.2C35.5,39.8,35.3,39.6,35.2,39.4z"/>
			<path class="st2" d="M35,39.7c-0.1-0.1-0.1-0.2-0.1-0.2c-0.1-0.2-0.2-0.4-0.3-0.6c0-0.1-0.1-0.2-0.1-0.3
				c-0.1-0.2-0.1-0.4-0.2-0.6c0-0.1,0-0.3,0-0.4c0-0.2,0-0.3,0-0.5c0-0.2,0-0.4,0-0.5c0-0.1,0-0.3,0-0.4c0-0.2,0.1-0.4,0.2-0.6
				c0-0.1,0.1-0.2,0.1-0.3c0.1-0.2,0.2-0.4,0.3-0.6c0-0.1,0.1-0.2,0.1-0.3c0.1-0.2,0.3-0.4,0.5-0.6c0.1-0.1,0.1-0.1,0.2-0.2l0,0
				l16.7-16.7c2-2,5.2-2,7.1,0c2,2,2,5.2,0,7.1l-8.1,8.1h23.9v0c2.6,0.1,4.8,2.3,4.8,5c0,2.7-2.1,4.9-4.8,5v0H51.3l8.1,8.1
				c2,2,2,5.2,0,7.1c-2,2-5.2,2-7.1,0L35.6,40.4l0,0c-0.1-0.1-0.1-0.1-0.2-0.2C35.3,40,35.1,39.9,35,39.7z"/>
			<path class="st2" d="M34.7,39.9c-0.1-0.1-0.1-0.2-0.1-0.2c-0.1-0.2-0.2-0.4-0.3-0.6c0-0.1-0.1-0.2-0.1-0.3
				c-0.1-0.2-0.1-0.4-0.2-0.6c0-0.1,0-0.3,0-0.4c0-0.2,0-0.3,0-0.5c0-0.2,0-0.4,0-0.5c0-0.1,0-0.3,0-0.4c0-0.2,0.1-0.4,0.2-0.6
				c0-0.1,0.1-0.2,0.1-0.3c0.1-0.2,0.2-0.4,0.3-0.6c0-0.1,0.1-0.2,0.1-0.3c0.1-0.2,0.3-0.4,0.5-0.6c0.1-0.1,0.1-0.1,0.2-0.2l0,0
				l16.7-16.7c2-2,5.2-2,7.1,0c2,2,2,5.2,0,7.1l-8.1,8.1H75v0c2.6,0.1,4.8,2.3,4.8,5c0,2.7-2.1,4.9-4.8,5v0H51.1l8.1,8.1
				c2,2,2,5.2,0,7.1c-2,2-5.2,2-7.1,0L35.4,40.7l0,0c-0.1-0.1-0.1-0.1-0.2-0.2C35,40.3,34.9,40.1,34.7,39.9z"/>
			<path class="st2" d="M34.5,40.1c-0.1-0.1-0.1-0.2-0.1-0.2c-0.1-0.2-0.2-0.4-0.3-0.6c0-0.1-0.1-0.2-0.1-0.3
				c-0.1-0.2-0.1-0.4-0.2-0.6c0-0.1,0-0.3,0-0.4c0-0.2,0-0.3,0-0.5c0-0.2,0-0.4,0-0.5c0-0.1,0-0.3,0-0.4c0-0.2,0.1-0.4,0.2-0.6
				c0-0.1,0.1-0.2,0.1-0.3c0.1-0.2,0.2-0.4,0.3-0.6c0-0.1,0.1-0.2,0.1-0.3c0.1-0.2,0.3-0.4,0.5-0.6c0.1-0.1,0.1-0.1,0.2-0.2l0,0
				l16.7-16.7c2-2,5.2-2,7.1,0c2,2,2,5.2,0,7.1l-8.1,8.1h23.9v0c2.6,0.1,4.8,2.3,4.8,5c0,2.7-2.1,4.9-4.8,5v0H50.9l8.1,8.1
				c2,2,2,5.2,0,7.1c-2,2-5.2,2-7.1,0L35.1,40.9l0,0c-0.1-0.1-0.1-0.1-0.2-0.2C34.8,40.5,34.6,40.3,34.5,40.1z"/>
			<path class="st2" d="M34.2,40.4c-0.1-0.1-0.1-0.2-0.1-0.2c-0.1-0.2-0.2-0.4-0.3-0.6c0-0.1-0.1-0.2-0.1-0.3
				c-0.1-0.2-0.1-0.4-0.2-0.6c0-0.1,0-0.3,0-0.4c0-0.2,0-0.3,0-0.5c0-0.2,0-0.4,0-0.5c0-0.1,0-0.3,0-0.4c0-0.2,0.1-0.4,0.2-0.6
				c0-0.1,0.1-0.2,0.1-0.3c0.1-0.2,0.2-0.4,0.3-0.6c0-0.1,0.1-0.2,0.1-0.3c0.1-0.2,0.3-0.4,0.5-0.6c0.1-0.1,0.1-0.1,0.2-0.2l0,0
				l16.7-16.7c2-2,5.2-2,7.1,0c2,2,2,5.2,0,7.1l-8.1,8.1h23.9v0c2.6,0.1,4.8,2.3,4.8,5c0,2.7-2.1,4.9-4.8,5v0H50.6l8.1,8.1
				c2,2,2,5.2,0,7.1c-2,2-5.2,2-7.1,0L34.9,41.2l0,0c-0.1-0.1-0.1-0.1-0.2-0.2C34.5,40.8,34.4,40.6,34.2,40.4z"/>
			<path class="st2" d="M34,40.6c-0.1-0.1-0.1-0.2-0.1-0.2c-0.1-0.2-0.2-0.4-0.3-0.6c0-0.1-0.1-0.2-0.1-0.3
				c-0.1-0.2-0.1-0.4-0.2-0.6c0-0.1,0-0.3,0-0.4c0-0.2,0-0.3,0-0.5c0-0.2,0-0.4,0-0.5c0-0.1,0-0.3,0-0.4c0-0.2,0.1-0.4,0.2-0.6
				c0-0.1,0.1-0.2,0.1-0.3c0.1-0.2,0.2-0.4,0.3-0.6c0-0.1,0.1-0.2,0.1-0.3c0.1-0.2,0.3-0.4,0.5-0.6c0.1-0.1,0.1-0.1,0.2-0.2l0,0
				l16.7-16.7c2-2,5.2-2,7.1,0c2,2,2,5.2,0,7.1l-8.1,8.1h23.9v0c2.6,0.1,4.8,2.3,4.8,5c0,2.7-2.1,4.9-4.8,5v0H50.4l8.1,8.1
				c2,2,2,5.2,0,7.1c-2,2-5.2,2-7.1,0L34.6,41.4l0,0c-0.1-0.1-0.1-0.1-0.2-0.2C34.3,41,34.1,40.8,34,40.6z"/>
			<path class="st2" d="M33.8,40.9c-0.1-0.1-0.1-0.2-0.1-0.2c-0.1-0.2-0.2-0.4-0.3-0.6c0-0.1-0.1-0.2-0.1-0.3
				c-0.1-0.2-0.1-0.4-0.2-0.6c0-0.1,0-0.3,0-0.4c0-0.2,0-0.3,0-0.5c0-0.2,0-0.4,0-0.5c0-0.1,0-0.3,0-0.4c0-0.2,0.1-0.4,0.2-0.6
				c0-0.1,0.1-0.2,0.1-0.3c0.1-0.2,0.2-0.4,0.3-0.6c0-0.1,0.1-0.2,0.1-0.3c0.1-0.2,0.3-0.4,0.5-0.6c0.1-0.1,0.1-0.1,0.2-0.2l0,0
				l16.7-16.7c2-2,5.2-2,7.1,0c2,2,2,5.2,0,7.1l-8.1,8.1h23.9v0c2.6,0.1,4.8,2.3,4.8,5c0,2.7-2.1,4.9-4.8,5v0H50.1l8.1,8.1
				c2,2,2,5.2,0,7.1c-2,2-5.2,2-7.1,0L34.4,41.6l0,0c-0.1-0.1-0.1-0.1-0.2-0.2C34.1,41.3,33.9,41.1,33.8,40.9z"/>
			<path class="st2" d="M33.5,41.1c-0.1-0.1-0.1-0.2-0.1-0.2c-0.1-0.2-0.2-0.4-0.3-0.6c0-0.1-0.1-0.2-0.1-0.3
				c-0.1-0.2-0.1-0.4-0.2-0.6c0-0.1,0-0.3,0-0.4c0-0.2,0-0.3,0-0.5c0-0.2,0-0.4,0-0.5c0-0.1,0-0.3,0-0.4c0-0.2,0.1-0.4,0.2-0.6
				c0-0.1,0.1-0.2,0.1-0.3c0.1-0.2,0.2-0.4,0.3-0.6c0-0.1,0.1-0.2,0.1-0.3c0.1-0.2,0.3-0.4,0.5-0.6c0.1-0.1,0.1-0.1,0.2-0.2l0,0
				l16.7-16.7c2-2,5.2-2,7.1,0c2,2,2,5.2,0,7.1l-8.1,8.1h23.9v0c2.6,0.1,4.8,2.3,4.8,5c0,2.7-2.1,4.9-4.8,5v0H49.9l8.1,8.1
				c2,2,2,5.2,0,7.1c-2,2-5.2,2-7.1,0L34.1,41.9l0,0c-0.1-0.1-0.1-0.1-0.2-0.2C33.8,41.5,33.7,41.3,33.5,41.1z"/>
			<path class="st2" d="M33.3,41.4c-0.1-0.1-0.1-0.2-0.1-0.2c-0.1-0.2-0.2-0.4-0.3-0.6c0-0.1-0.1-0.2-0.1-0.3
				c-0.1-0.2-0.1-0.4-0.2-0.6c0-0.1,0-0.3,0-0.4c0-0.2,0-0.3,0-0.5c0-0.2,0-0.4,0-0.5c0-0.1,0-0.3,0-0.4c0-0.2,0.1-0.4,0.2-0.6
				c0-0.1,0.1-0.2,0.1-0.3c0.1-0.2,0.2-0.4,0.3-0.6c0-0.1,0.1-0.2,0.1-0.3c0.1-0.2,0.3-0.4,0.5-0.6c0.1-0.1,0.1-0.1,0.2-0.2l0,0
				l16.7-16.7c2-2,5.2-2,7.1,0c2,2,2,5.2,0,7.1l-8.1,8.1h23.9v0c2.6,0.1,4.8,2.3,4.8,5c0,2.7-2.1,4.9-4.8,5v0H49.6l8.1,8.1
				c2,2,2,5.2,0,7.1c-2,2-5.2,2-7.1,0L33.9,42.1l0,0c-0.1-0.1-0.1-0.1-0.2-0.2C33.6,41.7,33.4,41.6,33.3,41.4z"/>
			<path class="st2" d="M33,41.6c-0.1-0.1-0.1-0.2-0.1-0.2c-0.1-0.2-0.2-0.4-0.3-0.6c0-0.1-0.1-0.2-0.1-0.3
				c-0.1-0.2-0.1-0.4-0.2-0.6c0-0.1,0-0.3,0-0.4c0-0.2,0-0.3,0-0.5c0-0.2,0-0.4,0-0.5c0-0.1,0-0.3,0-0.4c0-0.2,0.1-0.4,0.2-0.6
				c0-0.1,0.1-0.2,0.1-0.3c0.1-0.2,0.2-0.4,0.3-0.6c0-0.1,0.1-0.2,0.1-0.3c0.1-0.2,0.3-0.4,0.5-0.6c0.1-0.1,0.1-0.1,0.2-0.2l0,0
				l16.7-16.7c2-2,5.2-2,7.1,0c2,2,2,5.2,0,7.1l-8.1,8.1h23.9v0c2.6,0.1,4.8,2.3,4.8,5c0,2.7-2.1,4.9-4.8,5v0H49.4l8.1,8.1
				c2,2,2,5.2,0,7.1c-2,2-5.2,2-7.1,0L33.7,42.4l0,0c-0.1-0.1-0.1-0.1-0.2-0.2C33.3,42,33.2,41.8,33,41.6z"/>
			<path class="st2" d="M32.8,41.8c-0.1-0.1-0.1-0.2-0.1-0.2c-0.1-0.2-0.2-0.4-0.3-0.6c0-0.1-0.1-0.2-0.1-0.3
				c-0.1-0.2-0.1-0.4-0.2-0.6c0-0.1,0-0.3,0-0.4c0-0.2,0-0.3,0-0.5c0-0.2,0-0.4,0-0.5c0-0.1,0-0.3,0-0.4c0-0.2,0.1-0.4,0.2-0.6
				c0-0.1,0.1-0.2,0.1-0.3c0.1-0.2,0.2-0.4,0.3-0.6c0-0.1,0.1-0.2,0.1-0.3c0.1-0.2,0.3-0.4,0.5-0.6c0.1-0.1,0.1-0.1,0.2-0.2l0,0
				l16.7-16.7c2-2,5.2-2,7.1,0c2,2,2,5.2,0,7.1l-8.1,8.1h23.9v0c2.6,0.1,4.8,2.3,4.8,5c0,2.7-2.1,4.9-4.8,5v0H49.2l8.1,8.1
				c2,2,2,5.2,0,7.1c-2,2-5.2,2-7.1,0L33.4,42.6l0,0c-0.1-0.1-0.1-0.1-0.2-0.2C33.1,42.2,32.9,42,32.8,41.8z"/>
			<path class="st2" d="M32.5,42.1c-0.1-0.1-0.1-0.2-0.1-0.2c-0.1-0.2-0.2-0.4-0.3-0.6c0-0.1-0.1-0.2-0.1-0.3
				c-0.1-0.2-0.1-0.4-0.2-0.6c0-0.1,0-0.3,0-0.4c0-0.2,0-0.3,0-0.5c0-0.2,0-0.4,0-0.5c0-0.1,0-0.3,0-0.4c0-0.2,0.1-0.4,0.2-0.6
				c0-0.1,0.1-0.2,0.1-0.3c0.1-0.2,0.2-0.4,0.3-0.6c0-0.1,0.1-0.2,0.1-0.3c0.1-0.2,0.3-0.4,0.5-0.6c0.1-0.1,0.1-0.1,0.2-0.2l0,0
				l16.7-16.7c2-2,5.2-2,7.1,0c2,2,2,5.2,0,7.1l-8.1,8.1h23.9v0c2.6,0.1,4.8,2.3,4.8,5c0,2.7-2.1,4.9-4.8,5v0H48.9l8.1,8.1
				c2,2,2,5.2,0,7.1c-2,2-5.2,2-7.1,0L33.2,42.9l0,0c-0.1-0.1-0.1-0.1-0.2-0.2C32.9,42.5,32.7,42.3,32.5,42.1z"/>
			<path class="st2" d="M32.3,42.3c-0.1-0.1-0.1-0.2-0.1-0.2c-0.1-0.2-0.2-0.4-0.3-0.6c0-0.1-0.1-0.2-0.1-0.3
				c-0.1-0.2-0.1-0.4-0.2-0.6c0-0.1,0-0.3,0-0.4c0-0.2,0-0.3,0-0.5c0-0.2,0-0.4,0-0.5c0-0.1,0-0.3,0-0.4c0-0.2,0.1-0.4,0.2-0.6
				c0-0.1,0.1-0.2,0.1-0.3c0.1-0.2,0.2-0.4,0.3-0.6c0-0.1,0.1-0.2,0.1-0.3c0.1-0.2,0.3-0.4,0.5-0.6c0.1-0.1,0.1-0.1,0.2-0.2l0,0
				l16.7-16.7c2-2,5.2-2,7.1,0c2,2,2,5.2,0,7.1l-8.1,8.1h23.9v0c2.6,0.1,4.8,2.3,4.8,5c0,2.7-2.1,4.9-4.8,5v0H48.7l8.1,8.1
				c2,2,2,5.2,0,7.1c-2,2-5.2,2-7.1,0L32.9,43.1l0,0c-0.1-0.1-0.1-0.1-0.2-0.2C32.6,42.7,32.4,42.5,32.3,42.3z"/>
			<path class="st2" d="M32.1,42.6c-0.1-0.1-0.1-0.2-0.1-0.2c-0.1-0.2-0.2-0.4-0.3-0.6c0-0.1-0.1-0.2-0.1-0.3
				c-0.1-0.2-0.1-0.4-0.2-0.6c0-0.1,0-0.3,0-0.4c0-0.2,0-0.3,0-0.5c0-0.2,0-0.4,0-0.5c0-0.1,0-0.3,0-0.4c0-0.2,0.1-0.4,0.2-0.6
				c0-0.1,0.1-0.2,0.1-0.3c0.1-0.2,0.2-0.4,0.3-0.6c0-0.1,0.1-0.2,0.1-0.3c0.1-0.2,0.3-0.4,0.5-0.6c0.1-0.1,0.1-0.1,0.2-0.2l0,0
				l16.7-16.7c2-2,5.2-2,7.1,0c2,2,2,5.2,0,7.1l-8.1,8.1h23.9v0c2.6,0.1,4.8,2.3,4.8,5c0,2.7-2.1,4.9-4.8,5v0H48.4l8.1,8.1
				c2,2,2,5.2,0,7.1c-2,2-5.2,2-7.1,0L32.7,43.3l0,0c-0.1-0.1-0.1-0.1-0.2-0.2C32.4,43,32.2,42.8,32.1,42.6z"/>
			<path class="st2" d="M31.8,42.8c-0.1-0.1-0.1-0.2-0.1-0.2c-0.1-0.2-0.2-0.4-0.3-0.6c0-0.1-0.1-0.2-0.1-0.3
				c-0.1-0.2-0.1-0.4-0.2-0.6c0-0.1,0-0.3,0-0.4c0-0.2,0-0.3,0-0.5c0-0.2,0-0.4,0-0.5c0-0.1,0-0.3,0-0.4c0-0.2,0.1-0.4,0.2-0.6
				c0-0.1,0.1-0.2,0.1-0.3c0.1-0.2,0.2-0.4,0.3-0.6c0-0.1,0.1-0.2,0.1-0.3c0.1-0.2,0.3-0.4,0.5-0.6c0.1-0.1,0.1-0.1,0.2-0.2l0,0
				l16.7-16.7c2-2,5.2-2,7.1,0c2,2,2,5.2,0,7.1L48.2,35h23.9v0c2.6,0.1,4.8,2.3,4.8,5c0,2.7-2.1,4.9-4.8,5v0H48.2l8.1,8.1
				c2,2,2,5.2,0,7.1c-2,2-5.2,2-7.1,0L32.4,43.6l0,0c-0.1-0.1-0.1-0.1-0.2-0.2C32.1,43.2,32,43,31.8,42.8z"/>
			<path class="st2" d="M31.6,43c-0.1-0.1-0.1-0.2-0.1-0.2c-0.1-0.2-0.2-0.4-0.3-0.6c0-0.1-0.1-0.2-0.1-0.3
				c-0.1-0.2-0.1-0.4-0.2-0.6c0-0.1,0-0.3,0-0.4c0-0.2,0-0.3,0-0.5c0-0.2,0-0.4,0-0.5c0-0.1,0-0.3,0-0.4c0-0.2,0.1-0.4,0.2-0.6
				c0-0.1,0.1-0.2,0.1-0.3c0.1-0.2,0.2-0.4,0.3-0.6c0-0.1,0.1-0.2,0.1-0.3c0.1-0.2,0.3-0.4,0.5-0.6c0.1-0.1,0.1-0.1,0.2-0.2l0,0
				L48.9,20c2-2,5.2-2,7.1,0c2,2,2,5.2,0,7.1l-8.1,8.1h23.9v0c2.6,0.1,4.8,2.3,4.8,5c0,2.7-2.1,4.9-4.8,5v0H47.9l8.1,8.1
				c2,2,2,5.2,0,7.1c-2,2-5.2,2-7.1,0L32.2,43.8l0,0c-0.1-0.1-0.1-0.1-0.2-0.2C31.9,43.4,31.7,43.3,31.6,43z"/>
			<path class="st2" d="M31.3,43.3c-0.1-0.1-0.1-0.2-0.1-0.2c-0.1-0.2-0.2-0.4-0.3-0.6c0-0.1-0.1-0.2-0.1-0.3
				c-0.1-0.2-0.1-0.4-0.2-0.6c0-0.1,0-0.3,0-0.4c0-0.2,0-0.3,0-0.5c0-0.2,0-0.4,0-0.5c0-0.1,0-0.3,0-0.4c0-0.2,0.1-0.4,0.2-0.6
				c0-0.1,0.1-0.2,0.1-0.3c0.1-0.2,0.2-0.4,0.3-0.6c0-0.1,0.1-0.2,0.1-0.3c0.1-0.2,0.3-0.4,0.5-0.6c0.1-0.1,0.1-0.1,0.2-0.2l0,0
				l16.7-16.7c2-2,5.2-2,7.1,0c2,2,2,5.2,0,7.1l-8.1,8.1h23.9v0c2.6,0.1,4.8,2.3,4.8,5c0,2.7-2.1,4.9-4.8,5v0H47.7l8.1,8.1
				c2,2,2,5.2,0,7.1c-2,2-5.2,2-7.1,0L32,44.1l0,0c-0.1-0.1-0.1-0.1-0.2-0.2C31.6,43.7,31.5,43.5,31.3,43.3z"/>
			<path class="st2" d="M31.1,43.5C31,43.5,31,43.4,31,43.3c-0.1-0.2-0.2-0.4-0.3-0.6c0-0.1-0.1-0.2-0.1-0.3
				c-0.1-0.2-0.1-0.4-0.2-0.6c0-0.1,0-0.3,0-0.4c0-0.2,0-0.3,0-0.5c0-0.2,0-0.4,0-0.5c0-0.1,0-0.3,0-0.4c0-0.2,0.1-0.4,0.2-0.6
				c0-0.1,0.1-0.2,0.1-0.3c0.1-0.2,0.2-0.4,0.3-0.6c0-0.1,0.1-0.2,0.1-0.3c0.1-0.2,0.3-0.4,0.5-0.6c0.1-0.1,0.1-0.1,0.2-0.2l0,0
				l16.7-16.7c2-2,5.2-2,7.1,0c2,2,2,5.2,0,7.1l-8.1,8.1h23.9v0c2.6,0.1,4.8,2.3,4.8,5c0,2.7-2.1,4.9-4.8,5v0H47.5l8.1,8.1
				c2,2,2,5.2,0,7.1c-2,2-5.2,2-7.1,0L31.7,44.3l0,0c-0.1-0.1-0.1-0.1-0.2-0.2C31.4,43.9,31.2,43.7,31.1,43.5z"/>
			<path class="st2" d="M30.9,43.8c-0.1-0.1-0.1-0.2-0.1-0.2c-0.1-0.2-0.2-0.4-0.3-0.6c0-0.1-0.1-0.2-0.1-0.3
				c-0.1-0.2-0.1-0.4-0.2-0.6c0-0.1,0-0.3,0-0.4c0-0.2,0-0.3,0-0.5c0-0.2,0-0.4,0-0.5c0-0.1,0-0.3,0-0.4c0-0.2,0.1-0.4,0.2-0.6
				c0-0.1,0.1-0.2,0.1-0.3c0.1-0.2,0.2-0.4,0.3-0.6c0-0.1,0.1-0.2,0.1-0.3c0.1-0.2,0.3-0.4,0.5-0.6c0.1-0.1,0.1-0.1,0.2-0.2l0,0
				l16.7-16.7c2-2,5.2-2,7.1,0c2,2,2,5.2,0,7.1L47.2,36h23.9v0c2.6,0.1,4.8,2.3,4.8,5c0,2.7-2.1,4.9-4.8,5v0H47.2l8.1,8.1
				c2,2,2,5.2,0,7.1c-2,2-5.2,2-7.1,0L31.5,44.6l0,0c-0.1-0.1-0.1-0.1-0.2-0.2C31.2,44.2,31,44,30.9,43.8z"/>
			<path class="st2" d="M30.6,44c-0.1-0.1-0.1-0.2-0.1-0.2c-0.1-0.2-0.2-0.4-0.3-0.6c0-0.1-0.1-0.2-0.1-0.3
				c-0.1-0.2-0.1-0.4-0.2-0.6c0-0.1,0-0.3,0-0.4c0-0.2,0-0.3,0-0.5c0-0.2,0-0.4,0-0.5c0-0.1,0-0.3,0-0.4c0-0.2,0.1-0.4,0.2-0.6
				c0-0.1,0.1-0.2,0.1-0.3c0.1-0.2,0.2-0.4,0.3-0.6c0-0.1,0.1-0.2,0.1-0.3c0.1-0.2,0.3-0.4,0.5-0.6c0.1-0.1,0.1-0.1,0.2-0.2l0,0
				L48,21c2-2,5.2-2,7.1,0c2,2,2,5.2,0,7.1L47,36.2h23.9v0c2.6,0.1,4.8,2.3,4.8,5c0,2.7-2.1,4.9-4.8,5v0H47l8.1,8.1c2,2,2,5.2,0,7.1
				c-2,2-5.2,2-7.1,0L31.2,44.8l0,0c-0.1-0.1-0.1-0.1-0.2-0.2C30.9,44.4,30.7,44.2,30.6,44z"/>
			<path class="st2" d="M30.4,44.3c-0.1-0.1-0.1-0.2-0.1-0.2c-0.1-0.2-0.2-0.4-0.3-0.6c0-0.1-0.1-0.2-0.1-0.3
				c-0.1-0.2-0.1-0.4-0.2-0.6c0-0.1,0-0.3,0-0.4c0-0.2,0-0.3,0-0.5c0-0.2,0-0.4,0-0.5c0-0.1,0-0.3,0-0.4c0-0.2,0.1-0.4,0.2-0.6
				c0-0.1,0.1-0.2,0.1-0.3c0.1-0.2,0.2-0.4,0.3-0.6c0-0.1,0.1-0.2,0.1-0.3c0.1-0.2,0.3-0.4,0.5-0.6c0.1-0.1,0.1-0.1,0.2-0.2l0,0
				l16.7-16.7c2-2,5.2-2,7.1,0c2,2,2,5.2,0,7.1l-8.1,8.1h23.9v0c2.6,0.1,4.8,2.3,4.8,5c0,2.7-2.1,4.9-4.8,5v0H46.7l8.1,8.1
				c2,2,2,5.2,0,7.1c-2,2-5.2,2-7.1,0L31,45l0,0c-0.1-0.1-0.1-0.1-0.2-0.2C30.7,44.7,30.5,44.5,30.4,44.3z"/>
			<path class="st2" d="M30.1,44.5c-0.1-0.1-0.1-0.2-0.1-0.2c-0.1-0.2-0.2-0.4-0.3-0.6c0-0.1-0.1-0.2-0.1-0.3
				c-0.1-0.2-0.1-0.4-0.2-0.6c0-0.1,0-0.3,0-0.4c0-0.2,0-0.3,0-0.5c0-0.2,0-0.4,0-0.5c0-0.1,0-0.3,0-0.4c0-0.2,0.1-0.4,0.2-0.6
				c0-0.1,0.1-0.2,0.1-0.3c0.1-0.2,0.2-0.4,0.3-0.6c0-0.1,0.1-0.2,0.1-0.3c0.1-0.2,0.3-0.4,0.5-0.6c0.1-0.1,0.1-0.1,0.2-0.2l0,0
				l16.7-16.7c2-2,5.2-2,7.1,0c2,2,2,5.2,0,7.1l-8.1,8.1h23.9v0c2.6,0.1,4.8,2.3,4.8,5c0,2.7-2.1,4.9-4.8,5v0H46.5l8.1,8.1
				c2,2,2,5.2,0,7.1c-2,2-5.2,2-7.1,0L30.7,45.3l0,0c-0.1-0.1-0.1-0.1-0.2-0.2C30.4,44.9,30.3,44.7,30.1,44.5z"/>
			<path class="st2" d="M29.9,44.7c-0.1-0.1-0.1-0.2-0.1-0.2c-0.1-0.2-0.2-0.4-0.3-0.6c0-0.1-0.1-0.2-0.1-0.3
				c-0.1-0.2-0.1-0.4-0.2-0.6c0-0.1,0-0.3,0-0.4c0-0.2,0-0.3,0-0.5c0-0.2,0-0.4,0-0.5c0-0.1,0-0.3,0-0.4c0-0.2,0.1-0.4,0.2-0.6
				c0-0.1,0.1-0.2,0.1-0.3c0.1-0.2,0.2-0.4,0.3-0.6c0-0.1,0.1-0.2,0.1-0.3c0.1-0.2,0.3-0.4,0.5-0.6c0.1-0.1,0.1-0.1,0.2-0.2l0,0
				l16.7-16.7c2-2,5.2-2,7.1,0c2,2,2,5.2,0,7.1L46.3,37h23.9v0c2.6,0.1,4.8,2.3,4.8,5c0,2.7-2.1,4.9-4.8,5v0H46.3l8.1,8.1
				c2,2,2,5.2,0,7.1c-2,2-5.2,2-7.1,0L30.5,45.5l0,0c-0.1-0.1-0.1-0.1-0.2-0.2C30.2,45.1,30,44.9,29.9,44.7z"/>
			<path class="st2" d="M29.6,45c-0.1-0.1-0.1-0.2-0.1-0.2c-0.1-0.2-0.2-0.4-0.3-0.6c0-0.1-0.1-0.2-0.1-0.3
				c-0.1-0.2-0.1-0.4-0.2-0.6c0-0.1,0-0.3,0-0.4c0-0.2,0-0.3,0-0.5c0-0.2,0-0.4,0-0.5c0-0.1,0-0.3,0-0.4c0-0.2,0.1-0.4,0.2-0.6
				c0-0.1,0.1-0.2,0.1-0.3c0.1-0.2,0.2-0.4,0.3-0.6c0-0.1,0.1-0.2,0.1-0.3c0.1-0.2,0.3-0.4,0.5-0.6c0.1-0.1,0.1-0.1,0.2-0.2l0,0
				L47,22c2-2,5.2-2,7.1,0c2,2,2,5.2,0,7.1L46,37.2H70v0c2.6,0.1,4.8,2.3,4.8,5c0,2.7-2.1,4.9-4.8,5v0H46l8.1,8.1c2,2,2,5.2,0,7.1
				c-2,2-5.2,2-7.1,0L30.3,45.8l0,0c-0.1-0.1-0.1-0.1-0.2-0.2C29.9,45.4,29.8,45.2,29.6,45z"/>
			<path class="st2" d="M29.4,45.2c-0.1-0.1-0.1-0.2-0.1-0.2c-0.1-0.2-0.2-0.4-0.3-0.6c0-0.1-0.1-0.2-0.1-0.3
				c-0.1-0.2-0.1-0.4-0.2-0.6c0-0.1,0-0.3,0-0.4c0-0.2,0-0.3,0-0.5c0-0.2,0-0.4,0-0.5c0-0.1,0-0.3,0-0.4c0-0.2,0.1-0.4,0.2-0.6
				c0-0.1,0.1-0.2,0.1-0.3c0.1-0.2,0.2-0.4,0.3-0.6c0-0.1,0.1-0.2,0.1-0.3c0.1-0.2,0.3-0.4,0.5-0.6C29.9,39.1,30,39,30,39l0,0
				l16.7-16.7c2-2,5.2-2,7.1,0c2,2,2,5.2,0,7.1l-8.1,8.1h23.9v0c2.6,0.1,4.8,2.3,4.8,5c0,2.7-2.1,4.9-4.8,5v0H45.8l8.1,8.1
				c2,2,2,5.2,0,7.1c-2,2-5.2,2-7.1,0L30,46l0,0c-0.1-0.1-0.1-0.1-0.2-0.2C29.7,45.6,29.5,45.4,29.4,45.2z"/>
			<path class="st2" d="M29.2,45.5c-0.1-0.1-0.1-0.2-0.1-0.2c-0.1-0.2-0.2-0.4-0.3-0.6c0-0.1-0.1-0.2-0.1-0.3
				c-0.1-0.2-0.1-0.4-0.2-0.6c0-0.1,0-0.3,0-0.4c0-0.2,0-0.3,0-0.5c0-0.2,0-0.4,0-0.5c0-0.1,0-0.3,0-0.4c0-0.2,0.1-0.4,0.2-0.6
				c0-0.1,0.1-0.2,0.1-0.3c0.1-0.2,0.2-0.4,0.3-0.6c0-0.1,0.1-0.2,0.1-0.3c0.1-0.2,0.3-0.4,0.5-0.6c0.1-0.1,0.1-0.1,0.2-0.2l0,0
				l16.7-16.7c2-2,5.2-2,7.1,0c2,2,2,5.2,0,7.1l-8.1,8.1h23.9v0c2.6,0.1,4.8,2.3,4.8,5c0,2.7-2.1,4.9-4.8,5v0H45.5l8.1,8.1
				c2,2,2,5.2,0,7.1c-2,2-5.2,2-7.1,0L29.8,46.2l0,0c-0.1-0.1-0.1-0.1-0.2-0.2C29.5,45.9,29.3,45.7,29.2,45.5z"/>
			<path class="st2" d="M28.9,45.7c-0.1-0.1-0.1-0.2-0.1-0.2c-0.1-0.2-0.2-0.4-0.3-0.6c0-0.1-0.1-0.2-0.1-0.3
				c-0.1-0.2-0.1-0.4-0.2-0.6c0-0.1,0-0.3,0-0.4c0-0.2,0-0.3,0-0.5c0-0.2,0-0.4,0-0.5c0-0.1,0-0.3,0-0.4c0-0.2,0.1-0.4,0.2-0.6
				c0-0.1,0.1-0.2,0.1-0.3c0.1-0.2,0.2-0.4,0.3-0.6c0-0.1,0.1-0.2,0.1-0.3c0.1-0.2,0.3-0.4,0.5-0.6c0.1-0.1,0.1-0.1,0.2-0.2l0,0
				l16.7-16.7c2-2,5.2-2,7.1,0c2,2,2,5.2,0,7.1l-8.1,8.1h23.9v0c2.6,0.1,4.8,2.3,4.8,5c0,2.7-2.1,4.9-4.8,5v0H45.3l8.1,8.1
				c2,2,2,5.2,0,7.1c-2,2-5.2,2-7.1,0L29.5,46.5l0,0c-0.1-0.1-0.1-0.1-0.2-0.2C29.2,46.1,29.1,45.9,28.9,45.7z"/>
			<path class="st2" d="M28.7,46c-0.1-0.1-0.1-0.2-0.1-0.2c-0.1-0.2-0.2-0.4-0.3-0.6c0-0.1-0.1-0.2-0.1-0.3
				c-0.1-0.2-0.1-0.4-0.2-0.6c0-0.1,0-0.3,0-0.4c0-0.2,0-0.3,0-0.5c0-0.2,0-0.4,0-0.5c0-0.1,0-0.3,0-0.4c0-0.2,0.1-0.4,0.2-0.6
				c0-0.1,0.1-0.2,0.1-0.3c0.1-0.2,0.2-0.4,0.3-0.6c0-0.1,0.1-0.2,0.1-0.3c0.1-0.2,0.3-0.4,0.5-0.6c0.1-0.1,0.1-0.1,0.2-0.2l0,0
				L46,22.9c2-2,5.2-2,7.1,0c2,2,2,5.2,0,7.1L45,38.2H69v0c2.6,0.1,4.8,2.3,4.8,5c0,2.7-2.1,4.9-4.8,5v0H45l8.1,8.1c2,2,2,5.2,0,7.1
				c-2,2-5.2,2-7.1,0L29.3,46.7l0,0c-0.1-0.1-0.1-0.1-0.2-0.2C29,46.3,28.8,46.2,28.7,46z"/>
			<path class="st2" d="M28.4,46.2c-0.1-0.1-0.1-0.2-0.1-0.2c-0.1-0.2-0.2-0.4-0.3-0.6c0-0.1-0.1-0.2-0.1-0.3
				c-0.1-0.2-0.1-0.4-0.2-0.6c0-0.1,0-0.3,0-0.4c0-0.2,0-0.3,0-0.5c0-0.2,0-0.4,0-0.5c0-0.1,0-0.3,0-0.4c0-0.2,0.1-0.4,0.2-0.6
				c0-0.1,0.1-0.2,0.1-0.3c0.1-0.2,0.2-0.4,0.3-0.6c0-0.1,0.1-0.2,0.1-0.3c0.1-0.2,0.3-0.4,0.5-0.6c0.1-0.1,0.1-0.1,0.2-0.2l0,0
				l16.7-16.7c2-2,5.2-2,7.1,0c2,2,2,5.2,0,7.1l-8.1,8.1h23.9v0c2.6,0.1,4.8,2.3,4.8,5c0,2.7-2.1,4.9-4.8,5v0H44.8l8.1,8.1
				c2,2,2,5.2,0,7.1c-2,2-5.2,2-7.1,0L29.1,47l0,0c-0.1-0.1-0.1-0.1-0.2-0.2C28.7,46.6,28.6,46.4,28.4,46.2z"/>
			<path class="st2" d="M28.2,46.4c-0.1-0.1-0.1-0.2-0.1-0.2c-0.1-0.2-0.2-0.4-0.3-0.6c0-0.1-0.1-0.2-0.1-0.3
				c-0.1-0.2-0.1-0.4-0.2-0.6c0-0.1,0-0.3,0-0.4c0-0.2,0-0.3,0-0.5c0-0.2,0-0.4,0-0.5c0-0.1,0-0.3,0-0.4c0-0.2,0.1-0.4,0.2-0.6
				c0-0.1,0.1-0.2,0.1-0.3c0.1-0.2,0.2-0.4,0.3-0.6c0-0.1,0.1-0.2,0.1-0.3c0.1-0.2,0.3-0.4,0.5-0.6c0.1-0.1,0.1-0.1,0.2-0.2l0,0
				l16.7-16.7c2-2,5.2-2,7.1,0c2,2,2,5.2,0,7.1l-8.1,8.1h23.9v0c2.6,0.1,4.8,2.3,4.8,5c0,2.7-2.1,4.9-4.8,5v0H44.6l8.1,8.1
				c2,2,2,5.2,0,7.1c-2,2-5.2,2-7.1,0L28.8,47.2l0,0c-0.1-0.1-0.1-0.1-0.2-0.2C28.5,46.8,28.3,46.6,28.2,46.4z"/>
			<path class="st2" d="M27.9,46.7c-0.1-0.1-0.1-0.2-0.1-0.2c-0.1-0.2-0.2-0.4-0.3-0.6c0-0.1-0.1-0.2-0.1-0.3
				c-0.1-0.2-0.1-0.4-0.2-0.6c0-0.1,0-0.3,0-0.4c0-0.2,0-0.3,0-0.5c0-0.2,0-0.4,0-0.5c0-0.1,0-0.3,0-0.4c0-0.2,0.1-0.4,0.2-0.6
				c0-0.1,0.1-0.2,0.1-0.3c0.1-0.2,0.2-0.4,0.3-0.6c0-0.1,0.1-0.2,0.1-0.3c0.1-0.2,0.3-0.4,0.5-0.6c0.1-0.1,0.1-0.1,0.2-0.2l0,0
				l16.7-16.7c2-2,5.2-2,7.1,0c2,2,2,5.2,0,7.1l-8.1,8.1h23.9v0c2.6,0.1,4.8,2.3,4.8,5c0,2.7-2.1,4.9-4.8,5v0H44.3l8.1,8.1
				c2,2,2,5.2,0,7.1c-2,2-5.2,2-7.1,0L28.6,47.5l0,0c-0.1-0.1-0.1-0.1-0.2-0.2C28.3,47.1,28.1,46.9,27.9,46.7z"/>
			<path class="st2" d="M27.7,46.9c-0.1-0.1-0.1-0.2-0.1-0.2c-0.1-0.2-0.2-0.4-0.3-0.6c0-0.1-0.1-0.2-0.1-0.3
				c-0.1-0.2-0.1-0.4-0.2-0.6c0-0.1,0-0.3,0-0.4c0-0.2,0-0.3,0-0.5c0-0.2,0-0.4,0-0.5c0-0.1,0-0.3,0-0.4c0-0.2,0.1-0.4,0.2-0.6
				c0-0.1,0.1-0.2,0.1-0.3c0.1-0.2,0.2-0.4,0.3-0.6c0-0.1,0.1-0.2,0.1-0.3c0.1-0.2,0.3-0.4,0.5-0.6c0.1-0.1,0.1-0.1,0.2-0.2l0,0
				l16.7-16.7c2-2,5.2-2,7.1,0c2,2,2,5.2,0,7.1l-8.1,8.1H68v0c2.6,0.1,4.8,2.3,4.8,5c0,2.7-2.1,4.9-4.8,5v0H44.1l8.1,8.1
				c2,2,2,5.2,0,7.1c-2,2-5.2,2-7.1,0L28.3,47.7l0,0c-0.1-0.1-0.1-0.1-0.2-0.2C28,47.3,27.8,47.1,27.7,46.9z"/>
			<path class="st2" d="M27.5,47.2c-0.1-0.1-0.1-0.2-0.1-0.2c-0.1-0.2-0.2-0.4-0.3-0.6c0-0.1-0.1-0.2-0.1-0.3
				c-0.1-0.2-0.1-0.4-0.2-0.6c0-0.1,0-0.3,0-0.4c0-0.2,0-0.3,0-0.5c0-0.2,0-0.4,0-0.5c0-0.1,0-0.3,0-0.4c0-0.2,0.1-0.4,0.2-0.6
				c0-0.1,0.1-0.2,0.1-0.3c0.1-0.2,0.2-0.4,0.3-0.6c0-0.1,0.1-0.2,0.1-0.3c0.1-0.2,0.3-0.4,0.5-0.6c0.1-0.1,0.1-0.1,0.2-0.2l0,0
				l16.7-16.7c2-2,5.2-2,7.1,0c2,2,2,5.2,0,7.1l-8.1,8.1h23.9v0c2.6,0.1,4.8,2.3,4.8,5c0,2.7-2.1,4.9-4.8,5v0H43.8l8.1,8.1
				c2,2,2,5.2,0,7.1c-2,2-5.2,2-7.1,0L28.1,47.9l0,0c-0.1-0.1-0.1-0.1-0.2-0.2C27.8,47.6,27.6,47.4,27.5,47.2z"/>
			<path class="st2" d="M27.2,47.4c-0.1-0.1-0.1-0.2-0.1-0.2c-0.1-0.2-0.2-0.4-0.3-0.6c0-0.1-0.1-0.2-0.1-0.3
				c-0.1-0.2-0.1-0.4-0.2-0.6c0-0.1,0-0.3,0-0.4c0-0.2,0-0.3,0-0.5c0-0.2,0-0.4,0-0.5c0-0.1,0-0.3,0-0.4c0-0.2,0.1-0.4,0.2-0.6
				c0-0.1,0.1-0.2,0.1-0.3c0.1-0.2,0.2-0.4,0.3-0.6c0-0.1,0.1-0.2,0.1-0.3c0.1-0.2,0.3-0.4,0.5-0.6c0.1-0.1,0.1-0.1,0.2-0.2l0,0
				l16.7-16.7c2-2,5.2-2,7.1,0c2,2,2,5.2,0,7.1l-8.1,8.1h23.9v0c2.6,0.1,4.8,2.3,4.8,5c0,2.7-2.1,4.9-4.8,5v0H43.6l8.1,8.1
				c2,2,2,5.2,0,7.1c-2,2-5.2,2-7.1,0L27.8,48.2l0,0c-0.1-0.1-0.1-0.1-0.2-0.2C27.5,47.8,27.4,47.6,27.2,47.4z"/>
			<path class="st2" d="M27,47.7c-0.1-0.1-0.1-0.2-0.1-0.2c-0.1-0.2-0.2-0.4-0.3-0.6c0-0.1-0.1-0.2-0.1-0.3
				c-0.1-0.2-0.1-0.4-0.2-0.6c0-0.1,0-0.3,0-0.4c0-0.2,0-0.3,0-0.5c0-0.2,0-0.4,0-0.5c0-0.1,0-0.3,0-0.4c0-0.2,0.1-0.4,0.2-0.6
				c0-0.1,0.1-0.2,0.1-0.3c0.1-0.2,0.2-0.4,0.3-0.6c0-0.1,0.1-0.2,0.1-0.3c0.1-0.2,0.3-0.4,0.5-0.6c0.1-0.1,0.1-0.1,0.2-0.2l0,0
				l16.7-16.7c2-2,5.2-2,7.1,0c2,2,2,5.2,0,7.1l-8.1,8.1h23.9v0c2.6,0.1,4.8,2.3,4.8,5c0,2.7-2.1,4.9-4.8,5v0H43.3l8.1,8.1
				c2,2,2,5.2,0,7.1c-2,2-5.2,2-7.1,0L27.6,48.4l0,0c-0.1-0.1-0.1-0.1-0.2-0.2C27.3,48,27.1,47.9,27,47.7z"/>
			<path class="st2" d="M26.7,47.9c-0.1-0.1-0.1-0.2-0.1-0.2c-0.1-0.2-0.2-0.4-0.3-0.6c0-0.1-0.1-0.2-0.1-0.3
				c-0.1-0.2-0.1-0.4-0.2-0.6c0-0.1,0-0.3,0-0.4c0-0.2,0-0.3,0-0.5c0-0.2,0-0.4,0-0.5c0-0.1,0-0.3,0-0.4c0-0.2,0.1-0.4,0.2-0.6
				c0-0.1,0.1-0.2,0.1-0.3c0.1-0.2,0.2-0.4,0.3-0.6c0-0.1,0.1-0.2,0.1-0.3c0.1-0.2,0.3-0.4,0.5-0.6c0.1-0.1,0.1-0.1,0.2-0.2l0,0
				l16.7-16.7c2-2,5.2-2,7.1,0c2,2,2,5.2,0,7.1l-8.1,8.1H67v0c2.6,0.1,4.8,2.3,4.8,5c0,2.7-2.1,4.9-4.8,5v0H43.1l8.1,8.1
				c2,2,2,5.2,0,7.1c-2,2-5.2,2-7.1,0L27.4,48.7l0,0c-0.1-0.1-0.1-0.1-0.2-0.2C27,48.3,26.9,48.1,26.7,47.9z"/>
			<path class="st2" d="M26.5,48.1c-0.1-0.1-0.1-0.2-0.1-0.2c-0.1-0.2-0.2-0.4-0.3-0.6c0-0.1-0.1-0.2-0.1-0.3
				c-0.1-0.2-0.1-0.4-0.2-0.6c0-0.1,0-0.3,0-0.4c0-0.2,0-0.3,0-0.5c0-0.2,0-0.4,0-0.5c0-0.1,0-0.3,0-0.4c0-0.2,0.1-0.4,0.2-0.6
				c0-0.1,0.1-0.2,0.1-0.3c0.1-0.2,0.2-0.4,0.3-0.6c0-0.1,0.1-0.2,0.1-0.3c0.1-0.2,0.3-0.4,0.5-0.6c0.1-0.1,0.1-0.1,0.2-0.2l0,0
				l16.7-16.7c2-2,5.2-2,7.1,0c2,2,2,5.2,0,7.1l-8.1,8.1h23.9v0c2.6,0.1,4.8,2.3,4.8,5c0,2.7-2.1,4.9-4.8,5v0H42.9l8.1,8.1
				c2,2,2,5.2,0,7.1c-2,2-5.2,2-7.1,0L27.1,48.9l0,0c-0.1-0.1-0.1-0.1-0.2-0.2C26.8,48.5,26.6,48.3,26.5,48.1z"/>
			<path class="st2" d="M26.3,48.4c-0.1-0.1-0.1-0.2-0.1-0.2c-0.1-0.2-0.2-0.4-0.3-0.6c0-0.1-0.1-0.2-0.1-0.3
				c-0.1-0.2-0.1-0.4-0.2-0.6c0-0.1,0-0.3,0-0.4c0-0.2,0-0.3,0-0.5c0-0.2,0-0.4,0-0.5c0-0.1,0-0.3,0-0.4c0-0.2,0.1-0.4,0.2-0.6
				c0-0.1,0.1-0.2,0.1-0.3c0.1-0.2,0.2-0.4,0.3-0.6c0-0.1,0.1-0.2,0.1-0.3c0.1-0.2,0.3-0.4,0.5-0.6c0.1-0.1,0.1-0.1,0.2-0.2l0,0
				l16.7-16.7c2-2,5.2-2,7.1,0c2,2,2,5.2,0,7.1l-8.1,8.1h23.9v0c2.6,0.1,4.8,2.3,4.8,5c0,2.7-2.1,4.9-4.8,5v0H42.6l8.1,8.1
				c2,2,2,5.2,0,7.1c-2,2-5.2,2-7.1,0L26.9,49.2l0,0c-0.1-0.1-0.1-0.1-0.2-0.2C26.6,48.8,26.4,48.6,26.3,48.4z"/>
			<path class="st2" d="M26,48.6c-0.1-0.1-0.1-0.2-0.1-0.2c-0.1-0.2-0.2-0.4-0.3-0.6c0-0.1-0.1-0.2-0.1-0.3
				c-0.1-0.2-0.1-0.4-0.2-0.6c0-0.1,0-0.3,0-0.4c0-0.2,0-0.3,0-0.5c0-0.2,0-0.4,0-0.5c0-0.1,0-0.3,0-0.4c0-0.2,0.1-0.4,0.2-0.6
				c0-0.1,0.1-0.2,0.1-0.3c0.1-0.2,0.2-0.4,0.3-0.6c0-0.1,0.1-0.2,0.1-0.3c0.1-0.2,0.3-0.4,0.5-0.6c0.1-0.1,0.1-0.1,0.2-0.2l0,0
				l16.7-16.7c2-2,5.2-2,7.1,0c2,2,2,5.2,0,7.1l-8.1,8.1h23.9v0c2.6,0.1,4.8,2.3,4.8,5c0,2.7-2.1,4.9-4.8,5v0H42.4l8.1,8.1
				c2,2,2,5.2,0,7.1c-2,2-5.2,2-7.1,0L26.6,49.4l0,0c-0.1-0.1-0.1-0.1-0.2-0.2C26.3,49,26.1,48.8,26,48.6z"/>
			<path class="st2" d="M25.8,48.9c-0.1-0.1-0.1-0.2-0.1-0.2c-0.1-0.2-0.2-0.4-0.3-0.6c0-0.1-0.1-0.2-0.1-0.3
				c-0.1-0.2-0.1-0.4-0.2-0.6c0-0.1,0-0.3,0-0.4c0-0.2,0-0.3,0-0.5c0-0.2,0-0.4,0-0.5c0-0.1,0-0.3,0-0.4c0-0.2,0.1-0.4,0.2-0.6
				c0-0.1,0.1-0.2,0.1-0.3c0.1-0.2,0.2-0.4,0.3-0.6c0-0.1,0.1-0.2,0.1-0.3c0.1-0.2,0.3-0.4,0.5-0.6c0.1-0.1,0.1-0.1,0.2-0.2l0,0
				l16.7-16.7c2-2,5.2-2,7.1,0c2,2,2,5.2,0,7.1l-8.1,8.1h23.9v0c2.6,0.1,4.8,2.3,4.8,5c0,2.7-2.1,4.9-4.8,5v0H42.1l8.1,8.1
				c2,2,2,5.2,0,7.1c-2,2-5.2,2-7.1,0L26.4,49.6l0,0c-0.1-0.1-0.1-0.1-0.2-0.2C26.1,49.3,25.9,49.1,25.8,48.9z"/>
			<path class="st2" d="M25.5,49.1c-0.1-0.1-0.1-0.2-0.1-0.2c-0.1-0.2-0.2-0.4-0.3-0.6c0-0.1-0.1-0.2-0.1-0.3
				c-0.1-0.2-0.1-0.4-0.2-0.6c0-0.1,0-0.3,0-0.4c0-0.2,0-0.3,0-0.5c0-0.2,0-0.4,0-0.5c0-0.1,0-0.3,0-0.4c0-0.2,0.1-0.4,0.2-0.6
				c0-0.1,0.1-0.2,0.1-0.3c0.1-0.2,0.2-0.4,0.3-0.6c0-0.1,0.1-0.2,0.1-0.3c0.1-0.2,0.3-0.4,0.5-0.6c0.1-0.1,0.1-0.1,0.2-0.2l0,0
				l16.7-16.7c2-2,5.2-2,7.1,0c2,2,2,5.2,0,7.1l-8.1,8.1h23.9v0c2.6,0.1,4.8,2.3,4.8,5c0,2.7-2.1,4.9-4.8,5v0H41.9l8.1,8.1
				c2,2,2,5.2,0,7.1c-2,2-5.2,2-7.1,0L26.1,49.9l0,0c-0.1-0.1-0.1-0.1-0.2-0.2C25.8,49.5,25.7,49.3,25.5,49.1z"/>
			<path class="st2" d="M25.3,49.3c-0.1-0.1-0.1-0.2-0.1-0.2c-0.1-0.2-0.2-0.4-0.3-0.6c0-0.1-0.1-0.2-0.1-0.3
				c-0.1-0.2-0.1-0.4-0.2-0.6c0-0.1,0-0.3,0-0.4c0-0.2,0-0.3,0-0.5c0-0.2,0-0.4,0-0.5c0-0.1,0-0.3,0-0.4c0-0.2,0.1-0.4,0.2-0.6
				c0-0.1,0.1-0.2,0.1-0.3c0.1-0.2,0.2-0.4,0.3-0.6c0-0.1,0.1-0.2,0.1-0.3c0.1-0.2,0.3-0.4,0.5-0.6c0.1-0.1,0.1-0.1,0.2-0.2l0,0
				l16.7-16.7c2-2,5.2-2,7.1,0c2,2,2,5.2,0,7.1l-8.1,8.1h23.9v0c2.6,0.1,4.8,2.3,4.8,5c0,2.7-2.1,4.9-4.8,5v0H41.6l8.1,8.1
				c2,2,2,5.2,0,7.1c-2,2-5.2,2-7.1,0L25.9,50.1l0,0c-0.1-0.1-0.1-0.1-0.2-0.2C25.6,49.7,25.4,49.6,25.3,49.3z"/>
			<path class="st2" d="M25,49.6c-0.1-0.1-0.1-0.2-0.1-0.2c-0.1-0.2-0.2-0.4-0.3-0.6c0-0.1-0.1-0.2-0.1-0.3
				c-0.1-0.2-0.1-0.4-0.2-0.6c0-0.1,0-0.3,0-0.4c0-0.2,0-0.3,0-0.5c0-0.2,0-0.4,0-0.5c0-0.1,0-0.3,0-0.4c0-0.2,0.1-0.4,0.2-0.6
				c0-0.1,0.1-0.2,0.1-0.3c0.1-0.2,0.2-0.4,0.3-0.6c0-0.1,0.1-0.2,0.1-0.3c0.1-0.2,0.3-0.4,0.5-0.6c0.1-0.1,0.1-0.1,0.2-0.2l0,0
				l16.7-16.7c2-2,5.2-2,7.1,0c2,2,2,5.2,0,7.1l-8.1,8.1h23.9v0c2.6,0.1,4.8,2.3,4.8,5c0,2.7-2.1,4.9-4.8,5v0H41.4l8.1,8.1
				c2,2,2,5.2,0,7.1c-2,2-5.2,2-7.1,0L25.7,50.4l0,0c-0.1-0.1-0.1-0.1-0.2-0.2C25.3,50,25.2,49.8,25,49.6z"/>
			<path class="st2" d="M24.8,49.8c-0.1-0.1-0.1-0.2-0.1-0.2c-0.1-0.2-0.2-0.4-0.3-0.6c0-0.1-0.1-0.2-0.1-0.3
				c-0.1-0.2-0.1-0.4-0.2-0.6c0-0.1,0-0.3,0-0.4c0-0.2,0-0.3,0-0.5c0-0.2,0-0.4,0-0.5c0-0.1,0-0.3,0-0.4c0-0.2,0.1-0.4,0.2-0.6
				c0-0.1,0.1-0.2,0.1-0.3c0.1-0.2,0.2-0.4,0.3-0.6c0-0.1,0.1-0.2,0.1-0.3c0.1-0.2,0.3-0.4,0.5-0.6c0.1-0.1,0.1-0.1,0.2-0.2l0,0
				l16.7-16.7c2-2,5.2-2,7.1,0c2,2,2,5.2,0,7.1l-8.1,8.1h23.9v0c2.6,0.1,4.8,2.3,4.8,5c0,2.7-2.1,4.9-4.8,5v0H41.2l8.1,8.1
				c2,2,2,5.2,0,7.1c-2,2-5.2,2-7.1,0L25.4,50.6l0,0c-0.1-0.1-0.1-0.1-0.2-0.2C25.1,50.2,24.9,50,24.8,49.8z"/>
			<path class="st2" d="M24.6,50.1c-0.1-0.1-0.1-0.2-0.1-0.2c-0.1-0.2-0.2-0.4-0.3-0.6c0-0.1-0.1-0.2-0.1-0.3
				c-0.1-0.2-0.1-0.4-0.2-0.6c0-0.1,0-0.3,0-0.4c0-0.2,0-0.3,0-0.5c0-0.2,0-0.4,0-0.5c0-0.1,0-0.3,0-0.4c0-0.2,0.1-0.4,0.2-0.6
				c0-0.1,0.1-0.2,0.1-0.3c0.1-0.2,0.2-0.4,0.3-0.6c0-0.1,0.1-0.2,0.1-0.3c0.1-0.2,0.3-0.4,0.5-0.6c0.1-0.1,0.1-0.1,0.2-0.2l0,0
				l16.7-16.7c2-2,5.2-2,7.1,0c2,2,2,5.2,0,7.1l-8.1,8.1h23.9v0c2.6,0.1,4.8,2.3,4.8,5c0,2.7-2.1,4.9-4.8,5v0H40.9l8.1,8.1
				c2,2,2,5.2,0,7.1c-2,2-5.2,2-7.1,0L25.2,50.9l0,0c-0.1-0.1-0.1-0.1-0.2-0.2C24.9,50.5,24.7,50.3,24.6,50.1z"/>
			<path class="st2" d="M24.3,50.3c-0.1-0.1-0.1-0.2-0.1-0.2c-0.1-0.2-0.2-0.4-0.3-0.6c0-0.1-0.1-0.2-0.1-0.3
				c-0.1-0.2-0.1-0.4-0.2-0.6c0-0.1,0-0.3,0-0.4c0-0.2,0-0.3,0-0.5c0-0.2,0-0.4,0-0.5c0-0.1,0-0.3,0-0.4c0-0.2,0.1-0.4,0.2-0.6
				c0-0.1,0.1-0.2,0.1-0.3c0.1-0.2,0.2-0.4,0.3-0.6c0-0.1,0.1-0.2,0.1-0.3c0.1-0.2,0.3-0.4,0.5-0.6c0.1-0.1,0.1-0.1,0.2-0.2l0,0
				l16.7-16.7c2-2,5.2-2,7.1,0c2,2,2,5.2,0,7.1l-8.1,8.1h23.9v0c2.6,0.1,4.8,2.3,4.8,5c0,2.7-2.1,4.9-4.8,5v0H40.7l8.1,8.1
				c2,2,2,5.2,0,7.1c-2,2-5.2,2-7.1,0L24.9,51.1l0,0c-0.1-0.1-0.1-0.1-0.2-0.2C24.6,50.7,24.4,50.5,24.3,50.3z"/>
			<path class="st2" d="M24.1,50.6c-0.1-0.1-0.1-0.2-0.1-0.2c-0.1-0.2-0.2-0.4-0.3-0.6c0-0.1-0.1-0.2-0.1-0.3
				c-0.1-0.2-0.1-0.4-0.2-0.6c0-0.1,0-0.3,0-0.4c0-0.2,0-0.3,0-0.5c0-0.2,0-0.4,0-0.5c0-0.1,0-0.3,0-0.4c0-0.2,0.1-0.4,0.2-0.6
				c0-0.1,0.1-0.2,0.1-0.3c0.1-0.2,0.2-0.4,0.3-0.6c0-0.1,0.1-0.2,0.1-0.3c0.1-0.2,0.3-0.4,0.5-0.6c0.1-0.1,0.1-0.1,0.2-0.2l0,0
				l16.7-16.7c2-2,5.2-2,7.1,0c2,2,2,5.2,0,7.1l-8.1,8.1h23.9v0c2.6,0.1,4.8,2.3,4.8,5c0,2.7-2.1,4.9-4.8,5v0H40.4l8.1,8.1
				c2,2,2,5.2,0,7.1c-2,2-5.2,2-7.1,0L24.7,51.3l0,0c-0.1-0.1-0.1-0.1-0.2-0.2C24.4,51,24.2,50.8,24.1,50.6z"/>
			<path class="st2" d="M23.8,50.8c-0.1-0.1-0.1-0.2-0.1-0.2c-0.1-0.2-0.2-0.4-0.3-0.6c0-0.1-0.1-0.2-0.1-0.3
				c-0.1-0.2-0.1-0.4-0.2-0.6c0-0.1,0-0.3,0-0.4c0-0.2,0-0.3,0-0.5c0-0.2,0-0.4,0-0.5c0-0.1,0-0.3,0-0.4c0-0.2,0.1-0.4,0.2-0.6
				c0-0.1,0.1-0.2,0.1-0.3c0.1-0.2,0.2-0.4,0.3-0.6c0-0.1,0.1-0.2,0.1-0.3c0.1-0.2,0.3-0.4,0.5-0.6c0.1-0.1,0.1-0.1,0.2-0.2l0,0
				l16.7-16.7c2-2,5.2-2,7.1,0c2,2,2,5.2,0,7.1L40.2,43h23.9v0c2.6,0.1,4.8,2.3,4.8,5c0,2.7-2.1,4.9-4.8,5v0H40.2l8.1,8.1
				c2,2,2,5.2,0,7.1c-2,2-5.2,2-7.1,0L24.4,51.6l0,0c-0.1-0.1-0.1-0.1-0.2-0.2C24.1,51.2,24,51,23.8,50.8z"/>
			<path class="st2" d="M23.6,51c-0.1-0.1-0.1-0.2-0.1-0.2c-0.1-0.2-0.2-0.4-0.3-0.6c0-0.1-0.1-0.2-0.1-0.3
				c-0.1-0.2-0.1-0.4-0.2-0.6c0-0.1,0-0.3,0-0.4c0-0.2,0-0.3,0-0.5c0-0.2,0-0.4,0-0.5c0-0.1,0-0.3,0-0.4c0-0.2,0.1-0.4,0.2-0.6
				c0-0.1,0.1-0.2,0.1-0.3c0.1-0.2,0.2-0.4,0.3-0.6c0-0.1,0.1-0.2,0.1-0.3c0.1-0.2,0.3-0.4,0.5-0.6c0.1-0.1,0.1-0.1,0.2-0.2l0,0
				L41,28c2-2,5.2-2,7.1,0c2,2,2,5.2,0,7.1L40,43.3h23.9v0c2.6,0.1,4.8,2.3,4.8,5c0,2.7-2.1,4.9-4.8,5v0H40l8.1,8.1c2,2,2,5.2,0,7.1
				c-2,2-5.2,2-7.1,0L24.2,51.8l0,0c-0.1-0.1-0.1-0.1-0.2-0.2C23.9,51.4,23.7,51.2,23.6,51z"/>
			<path class="st2" d="M23.3,51.3c-0.1-0.1-0.1-0.2-0.1-0.2c-0.1-0.2-0.2-0.4-0.3-0.6c0-0.1-0.1-0.2-0.1-0.3
				c-0.1-0.2-0.1-0.4-0.2-0.6c0-0.1,0-0.3,0-0.4c0-0.2,0-0.3,0-0.5c0-0.2,0-0.4,0-0.5c0-0.1,0-0.3,0-0.4c0-0.2,0.1-0.4,0.2-0.6
				c0-0.1,0.1-0.2,0.1-0.3c0.1-0.2,0.2-0.4,0.3-0.6c0-0.1,0.1-0.2,0.1-0.3c0.1-0.2,0.3-0.4,0.5-0.6c0.1-0.1,0.1-0.1,0.2-0.2l0,0
				l16.7-16.7c2-2,5.2-2,7.1,0c2,2,2,5.2,0,7.1l-8.1,8.1h23.9v0c2.6,0.1,4.8,2.3,4.8,5c0,2.7-2.1,4.9-4.8,5v0H39.7l8.1,8.1
				c2,2,2,5.2,0,7.1c-2,2-5.2,2-7.1,0L24,52.1l0,0c-0.1-0.1-0.1-0.1-0.2-0.2C23.6,51.7,23.5,51.5,23.3,51.3z"/>
			<path class="st2" d="M23.1,51.5c-0.1-0.1-0.1-0.2-0.1-0.2c-0.1-0.2-0.2-0.4-0.3-0.6c0-0.1-0.1-0.2-0.1-0.3
				c-0.1-0.2-0.1-0.4-0.2-0.6c0-0.1,0-0.3,0-0.4c0-0.2,0-0.3,0-0.5c0-0.2,0-0.4,0-0.5c0-0.1,0-0.3,0-0.4c0-0.2,0.1-0.4,0.2-0.6
				c0-0.1,0.1-0.2,0.1-0.3c0.1-0.2,0.2-0.4,0.3-0.6c0-0.1,0.1-0.2,0.1-0.3c0.1-0.2,0.3-0.4,0.5-0.6c0.1-0.1,0.1-0.1,0.2-0.2l0,0
				l16.7-16.7c2-2,5.2-2,7.1,0c2,2,2,5.2,0,7.1l-8.1,8.1h23.9v0c2.6,0.1,4.8,2.3,4.8,5c0,2.7-2.1,4.9-4.8,5v0H39.5l8.1,8.1
				c2,2,2,5.2,0,7.1c-2,2-5.2,2-7.1,0L23.7,52.3l0,0c-0.1-0.1-0.1-0.1-0.2-0.2C23.4,51.9,23.2,51.7,23.1,51.5z"/>
			<path class="st2" d="M22.9,51.8c-0.1-0.1-0.1-0.2-0.1-0.2c-0.1-0.2-0.2-0.4-0.3-0.6c0-0.1-0.1-0.2-0.1-0.3
				c-0.1-0.2-0.1-0.4-0.2-0.6c0-0.1,0-0.3,0-0.4c0-0.2,0-0.3,0-0.5c0-0.2,0-0.4,0-0.5c0-0.1,0-0.3,0-0.4c0-0.2,0.1-0.4,0.2-0.6
				c0-0.1,0.1-0.2,0.1-0.3c0.1-0.2,0.2-0.4,0.3-0.6c0-0.1,0.1-0.2,0.1-0.3c0.1-0.2,0.3-0.4,0.5-0.6c0.1-0.1,0.1-0.1,0.2-0.2l0,0
				l16.7-16.7c2-2,5.2-2,7.1,0c2,2,2,5.2,0,7.1L39.2,44h23.9v0c2.6,0.1,4.8,2.3,4.8,5c0,2.7-2.1,4.9-4.8,5v0H39.2l8.1,8.1
				c2,2,2,5.2,0,7.1c-2,2-5.2,2-7.1,0L23.5,52.5l0,0c-0.1-0.1-0.1-0.1-0.2-0.2C23.2,52.2,23,52,22.9,51.8z"/>
			<path class="st2" d="M22.6,52c-0.1-0.1-0.1-0.2-0.1-0.2c-0.1-0.2-0.2-0.4-0.3-0.6c0-0.1-0.1-0.2-0.1-0.3
				c-0.1-0.2-0.1-0.4-0.2-0.6c0-0.1,0-0.3,0-0.4c0-0.2,0-0.3,0-0.5c0-0.2,0-0.4,0-0.5c0-0.1,0-0.3,0-0.4c0-0.2,0.1-0.4,0.2-0.6
				c0-0.1,0.1-0.2,0.1-0.3c0.1-0.2,0.2-0.4,0.3-0.6c0-0.1,0.1-0.2,0.1-0.3c0.1-0.2,0.3-0.4,0.5-0.6c0.1-0.1,0.1-0.1,0.2-0.2l0,0
				L40,29c2-2,5.2-2,7.1,0c2,2,2,5.2,0,7.1L39,44.2h23.9v0c2.6,0.1,4.8,2.3,4.8,5c0,2.7-2.1,4.9-4.8,5v0H39l8.1,8.1c2,2,2,5.2,0,7.1
				c-2,2-5.2,2-7.1,0L23.2,52.8l0,0c-0.1-0.1-0.1-0.1-0.2-0.2C22.9,52.4,22.8,52.2,22.6,52z"/>
			<path class="st2" d="M22.4,52.3c-0.1-0.1-0.1-0.2-0.1-0.2c-0.1-0.2-0.2-0.4-0.3-0.6c0-0.1-0.1-0.2-0.1-0.3
				c-0.1-0.2-0.1-0.4-0.2-0.6c0-0.1,0-0.3,0-0.4c0-0.2,0-0.3,0-0.5c0-0.2,0-0.4,0-0.5c0-0.1,0-0.3,0-0.4c0-0.2,0.1-0.4,0.2-0.6
				c0-0.1,0.1-0.2,0.1-0.3c0.1-0.2,0.2-0.4,0.3-0.6c0-0.1,0.1-0.2,0.1-0.3c0.1-0.2,0.3-0.4,0.5-0.6c0.1-0.1,0.1-0.1,0.2-0.2l0,0
				l16.7-16.7c2-2,5.2-2,7.1,0c2,2,2,5.2,0,7.1l-8.1,8.1h23.9v0c2.6,0.1,4.8,2.3,4.8,5c0,2.7-2.1,4.9-4.8,5v0H38.7l8.1,8.1
				c2,2,2,5.2,0,7.1c-2,2-5.2,2-7.1,0L23,53l0,0c-0.1-0.1-0.1-0.1-0.2-0.2C22.7,52.6,22.5,52.5,22.4,52.3z"/>
			<path class="st2" d="M22.1,52.5c-0.1-0.1-0.1-0.2-0.1-0.2c-0.1-0.2-0.2-0.4-0.3-0.6c0-0.1-0.1-0.2-0.1-0.3
				c-0.1-0.2-0.1-0.4-0.2-0.6c0-0.1,0-0.3,0-0.4c0-0.2,0-0.3,0-0.5c0-0.2,0-0.4,0-0.5c0-0.1,0-0.3,0-0.4c0-0.2,0.1-0.4,0.2-0.6
				c0-0.1,0.1-0.2,0.1-0.3c0.1-0.2,0.2-0.4,0.3-0.6c0-0.1,0.1-0.2,0.1-0.3c0.1-0.2,0.3-0.4,0.5-0.6c0.1-0.1,0.1-0.1,0.2-0.2l0,0
				l16.7-16.7c2-2,5.2-2,7.1,0c2,2,2,5.2,0,7.1l-8.1,8.1h23.9v0c2.6,0.1,4.8,2.3,4.8,5c0,2.7-2.1,4.9-4.8,5v0H38.5l8.1,8.1
				c2,2,2,5.2,0,7.1c-2,2-5.2,2-7.1,0L22.8,53.3l0,0c-0.1-0.1-0.1-0.1-0.2-0.2C22.4,52.9,22.3,52.7,22.1,52.5z"/>
			<path class="st2" d="M21.9,52.7c-0.1-0.1-0.1-0.2-0.1-0.2c-0.1-0.2-0.2-0.4-0.3-0.6c0-0.1-0.1-0.2-0.1-0.3
				c-0.1-0.2-0.1-0.4-0.2-0.6c0-0.1,0-0.3,0-0.4c0-0.2,0-0.3,0-0.5c0-0.2,0-0.4,0-0.5c0-0.1,0-0.3,0-0.4c0-0.2,0.1-0.4,0.2-0.6
				c0-0.1,0.1-0.2,0.1-0.3c0.1-0.2,0.2-0.4,0.3-0.6c0-0.1,0.1-0.2,0.1-0.3c0.1-0.2,0.3-0.4,0.5-0.6c0.1-0.1,0.1-0.1,0.2-0.2l0,0
				l16.7-16.7c2-2,5.2-2,7.1,0c2,2,2,5.2,0,7.1L38.3,45h23.9v0c2.6,0.1,4.8,2.3,4.8,5c0,2.7-2.1,4.9-4.8,5v0H38.3l8.1,8.1
				c2,2,2,5.2,0,7.1c-2,2-5.2,2-7.1,0L22.5,53.5l0,0c-0.1-0.1-0.1-0.1-0.2-0.2C22.2,53.1,22,52.9,21.9,52.7z"/>
			<path class="st2" d="M21.6,53c-0.1-0.1-0.1-0.2-0.1-0.2c-0.1-0.2-0.2-0.4-0.3-0.6c0-0.1-0.1-0.2-0.1-0.3
				c-0.1-0.2-0.1-0.4-0.2-0.6c0-0.1,0-0.3,0-0.4c0-0.2,0-0.3,0-0.5c0-0.2,0-0.4,0-0.5c0-0.1,0-0.3,0-0.4c0-0.2,0.1-0.4,0.2-0.6
				c0-0.1,0.1-0.2,0.1-0.3c0.1-0.2,0.2-0.4,0.3-0.6c0-0.1,0.1-0.2,0.1-0.3c0.1-0.2,0.3-0.4,0.5-0.6c0.1-0.1,0.1-0.1,0.2-0.2l0,0
				L39,30c2-2,5.2-2,7.1,0c2,2,2,5.2,0,7.1L38,45.2H62v0c2.6,0.1,4.8,2.3,4.8,5c0,2.7-2.1,4.9-4.8,5v0H38l8.1,8.1c2,2,2,5.2,0,7.1
				c-2,2-5.2,2-7.1,0L22.3,53.8l0,0c-0.1-0.1-0.1-0.1-0.2-0.2C22,53.4,21.8,53.2,21.6,53z"/>
			<path class="st2" d="M21.4,53.2c-0.1-0.1-0.1-0.2-0.1-0.2c-0.1-0.2-0.2-0.4-0.3-0.6c0-0.1-0.1-0.2-0.1-0.3
				c-0.1-0.2-0.1-0.4-0.2-0.6c0-0.1,0-0.3,0-0.4c0-0.2,0-0.3,0-0.5c0-0.2,0-0.4,0-0.5c0-0.1,0-0.3,0-0.4c0-0.2,0.1-0.4,0.2-0.6
				c0-0.1,0.1-0.2,0.1-0.3c0.1-0.2,0.2-0.4,0.3-0.6c0-0.1,0.1-0.2,0.1-0.3c0.1-0.2,0.3-0.4,0.5-0.6C21.9,47.1,22,47,22,47l0,0
				l16.7-16.7c2-2,5.2-2,7.1,0c2,2,2,5.2,0,7.1l-8.1,8.1h23.9v0c2.6,0.1,4.8,2.3,4.8,5c0,2.7-2.1,4.9-4.8,5v0H37.8l8.1,8.1
				c2,2,2,5.2,0,7.1c-2,2-5.2,2-7.1,0L22,54l0,0c-0.1-0.1-0.1-0.1-0.2-0.2C21.7,53.6,21.5,53.4,21.4,53.2z"/>
			<path class="st2" d="M21.2,53.5c-0.1-0.1-0.1-0.2-0.1-0.2c-0.1-0.2-0.2-0.4-0.3-0.6c0-0.1-0.1-0.2-0.1-0.3
				c-0.1-0.2-0.1-0.4-0.2-0.6c0-0.1,0-0.3,0-0.4c0-0.2,0-0.3,0-0.5c0-0.2,0-0.4,0-0.5c0-0.1,0-0.3,0-0.4c0-0.2,0.1-0.4,0.2-0.6
				c0-0.1,0.1-0.2,0.1-0.3c0.1-0.2,0.2-0.4,0.3-0.6c0-0.1,0.1-0.2,0.1-0.3c0.1-0.2,0.3-0.4,0.5-0.6c0.1-0.1,0.1-0.1,0.2-0.2l0,0
				l16.7-16.7c2-2,5.2-2,7.1,0c2,2,2,5.2,0,7.1l-8.1,8.1h23.9v0c2.6,0.1,4.8,2.3,4.8,5c0,2.7-2.1,4.9-4.8,5v0H37.5l8.1,8.1
				c2,2,2,5.2,0,7.1c-2,2-5.2,2-7.1,0L21.8,54.2l0,0c-0.1-0.1-0.1-0.1-0.2-0.2C21.5,53.9,21.3,53.7,21.2,53.5z"/>
			<path class="st2" d="M20.9,53.7c-0.1-0.1-0.1-0.2-0.1-0.2c-0.1-0.2-0.2-0.4-0.3-0.6c0-0.1-0.1-0.2-0.1-0.3
				c-0.1-0.2-0.1-0.4-0.2-0.6c0-0.1,0-0.3,0-0.4c0-0.2,0-0.3,0-0.5c0-0.2,0-0.4,0-0.5c0-0.1,0-0.3,0-0.4c0-0.2,0.1-0.4,0.2-0.6
				c0-0.1,0.1-0.2,0.1-0.3c0.1-0.2,0.2-0.4,0.3-0.6c0-0.1,0.1-0.2,0.1-0.3c0.1-0.2,0.3-0.4,0.5-0.6c0.1-0.1,0.1-0.1,0.2-0.2l0,0
				l16.7-16.7c2-2,5.2-2,7.1,0c2,2,2,5.2,0,7.1l-8.1,8.1h23.9v0c2.6,0.1,4.8,2.3,4.8,5c0,2.7-2.1,4.9-4.8,5v0H37.3l8.1,8.1
				c2,2,2,5.2,0,7.1c-2,2-5.2,2-7.1,0L21.5,54.5l0,0c-0.1-0.1-0.1-0.1-0.2-0.2C21.2,54.1,21.1,53.9,20.9,53.7z"/>
			<path class="st2" d="M20.7,53.9c-0.1-0.1-0.1-0.2-0.1-0.2c-0.1-0.2-0.2-0.4-0.3-0.6c0-0.1-0.1-0.2-0.1-0.3
				c-0.1-0.2-0.1-0.4-0.2-0.6c0-0.1,0-0.3,0-0.4c0-0.2,0-0.3,0-0.5c0-0.2,0-0.4,0-0.5c0-0.1,0-0.3,0-0.4c0-0.2,0.1-0.4,0.2-0.6
				c0-0.1,0.1-0.2,0.1-0.3c0.1-0.2,0.2-0.4,0.3-0.6c0-0.1,0.1-0.2,0.1-0.3c0.1-0.2,0.3-0.4,0.5-0.6c0.1-0.1,0.1-0.1,0.2-0.2l0,0
				L38,30.9c2-2,5.2-2,7.1,0c2,2,2,5.2,0,7.1L37,46.2H61v0c2.6,0.1,4.8,2.3,4.8,5c0,2.7-2.1,4.9-4.8,5v0H37l8.1,8.1c2,2,2,5.2,0,7.1
				c-2,2-5.2,2-7.1,0L21.3,54.7l0,0c-0.1-0.1-0.1-0.1-0.2-0.2C21,54.3,20.8,54.2,20.7,53.9z"/>
			<path class="st2" d="M20.4,54.2c-0.1-0.1-0.1-0.2-0.1-0.2c-0.1-0.2-0.2-0.4-0.3-0.6c0-0.1-0.1-0.2-0.1-0.3
				c-0.1-0.2-0.1-0.4-0.2-0.6c0-0.1,0-0.3,0-0.4c0-0.2,0-0.3,0-0.5c0-0.2,0-0.4,0-0.5c0-0.1,0-0.3,0-0.4c0-0.2,0.1-0.4,0.2-0.6
				c0-0.1,0.1-0.2,0.1-0.3c0.1-0.2,0.2-0.4,0.3-0.6c0-0.1,0.1-0.2,0.1-0.3c0.1-0.2,0.3-0.4,0.5-0.6c0.1-0.1,0.1-0.1,0.2-0.2l0,0
				l16.7-16.7c2-2,5.2-2,7.1,0c2,2,2,5.2,0,7.1l-8.1,8.1h23.9v0c2.6,0.1,4.8,2.3,4.8,5c0,2.7-2.1,4.9-4.8,5v0H36.8l8.1,8.1
				c2,2,2,5.2,0,7.1c-2,2-5.2,2-7.1,0L21.1,55l0,0c-0.1-0.1-0.1-0.1-0.2-0.2C20.7,54.6,20.6,54.4,20.4,54.2z"/>
			<path class="st2" d="M20.2,54.4c-0.1-0.1-0.1-0.2-0.1-0.2c-0.1-0.2-0.2-0.4-0.3-0.6c0-0.1-0.1-0.2-0.1-0.3
				c-0.1-0.2-0.1-0.4-0.2-0.6c0-0.1,0-0.3,0-0.4c0-0.2,0-0.3,0-0.5c0-0.2,0-0.4,0-0.5c0-0.1,0-0.3,0-0.4c0-0.2,0.1-0.4,0.2-0.6
				c0-0.1,0.1-0.2,0.1-0.3c0.1-0.2,0.2-0.4,0.3-0.6c0-0.1,0.1-0.2,0.1-0.3c0.1-0.2,0.3-0.4,0.5-0.6c0.1-0.1,0.1-0.1,0.2-0.2l0,0
				l16.7-16.7c2-2,5.2-2,7.1,0c2,2,2,5.2,0,7.1l-8.1,8.1h23.9v0c2.6,0.1,4.8,2.3,4.8,5c0,2.7-2.1,4.9-4.8,5v0H36.6l8.1,8.1
				c2,2,2,5.2,0,7.1c-2,2-5.2,2-7.1,0L20.8,55.2l0,0c-0.1-0.1-0.1-0.1-0.2-0.2C20.5,54.8,20.3,54.6,20.2,54.4z"/>
			<path class="st2" d="M20,54.7c-0.1-0.1-0.1-0.2-0.1-0.2c-0.1-0.2-0.2-0.4-0.3-0.6c0-0.1-0.1-0.2-0.1-0.3
				c-0.1-0.2-0.1-0.4-0.2-0.6c0-0.1,0-0.3,0-0.4c0-0.2,0-0.3,0-0.5c0-0.2,0-0.4,0-0.5c0-0.1,0-0.3,0-0.4c0-0.2,0.1-0.4,0.2-0.6
				c0-0.1,0.1-0.2,0.1-0.3c0.1-0.2,0.2-0.4,0.3-0.6c0-0.1,0.1-0.2,0.1-0.3c0.1-0.2,0.3-0.4,0.5-0.6c0.1-0.1,0.1-0.1,0.2-0.2l0,0
				l16.7-16.7c2-2,5.2-2,7.1,0c2,2,2,5.2,0,7.1l-8.1,8.1h23.9v0c2.6,0.1,4.8,2.3,4.8,5c0,2.7-2.1,4.9-4.8,5v0H36.3l8.1,8.1
				c2,2,2,5.2,0,7.1c-2,2-5.2,2-7.1,0L20.6,55.5l0,0c-0.1-0.1-0.1-0.1-0.2-0.2C20.3,55.1,20.1,54.9,20,54.7z"/>
			<path class="st2" d="M19.7,54.9c-0.1-0.1-0.1-0.2-0.1-0.2c-0.1-0.2-0.2-0.4-0.3-0.6c0-0.1-0.1-0.2-0.1-0.3
				c-0.1-0.2-0.1-0.4-0.2-0.6c0-0.1,0-0.3,0-0.4c0-0.2,0-0.3,0-0.5c0-0.2,0-0.4,0-0.5c0-0.1,0-0.3,0-0.4c0-0.2,0.1-0.4,0.2-0.6
				c0-0.1,0.1-0.2,0.1-0.3c0.1-0.2,0.2-0.4,0.3-0.6c0-0.1,0.1-0.2,0.1-0.3c0.1-0.2,0.3-0.4,0.5-0.6c0.1-0.1,0.1-0.1,0.2-0.2l0,0
				l16.7-16.7c2-2,5.2-2,7.1,0c2,2,2,5.2,0,7.1l-8.1,8.1H60v0c2.6,0.1,4.8,2.3,4.8,5c0,2.7-2.1,4.9-4.8,5v0H36.1l8.1,8.1
				c2,2,2,5.2,0,7.1c-2,2-5.2,2-7.1,0L20.3,55.7l0,0c-0.1-0.1-0.1-0.1-0.2-0.2C20,55.3,19.8,55.1,19.7,54.9z"/>
			<path class="st2" d="M19.5,55.2c-0.1-0.1-0.1-0.2-0.1-0.2c-0.1-0.2-0.2-0.4-0.3-0.6c0-0.1-0.1-0.2-0.1-0.3
				c-0.1-0.2-0.1-0.4-0.2-0.6c0-0.1,0-0.3,0-0.4c0-0.2,0-0.3,0-0.5c0-0.2,0-0.4,0-0.5c0-0.1,0-0.3,0-0.4c0-0.2,0.1-0.4,0.2-0.6
				c0-0.1,0.1-0.2,0.1-0.3c0.1-0.2,0.2-0.4,0.3-0.6c0-0.1,0.1-0.2,0.1-0.3c0.1-0.2,0.3-0.4,0.5-0.6C20,49,20,49,20.1,48.9l0,0
				l16.7-16.7c2-2,5.2-2,7.1,0c2,2,2,5.2,0,7.1l-8.1,8.1h23.9v0c2.6,0.1,4.8,2.3,4.8,5c0,2.7-2.1,4.9-4.8,5v0H35.8l8.1,8.1
				c2,2,2,5.2,0,7.1c-2,2-5.2,2-7.1,0L20.1,55.9l0,0c-0.1-0.1-0.1-0.1-0.2-0.2C19.8,55.6,19.6,55.4,19.5,55.2z"/>
			<path class="st2" d="M19.2,55.4c-0.1-0.1-0.1-0.2-0.1-0.2c-0.1-0.2-0.2-0.4-0.3-0.6c0-0.1-0.1-0.2-0.1-0.3
				c-0.1-0.2-0.1-0.4-0.2-0.6c0-0.1,0-0.3,0-0.4c0-0.2,0-0.3,0-0.5c0-0.2,0-0.4,0-0.5c0-0.1,0-0.3,0-0.4c0-0.2,0.1-0.4,0.2-0.6
				c0-0.1,0.1-0.2,0.1-0.3c0.1-0.2,0.2-0.4,0.3-0.6c0-0.1,0.1-0.2,0.1-0.3c0.1-0.2,0.3-0.4,0.5-0.6c0.1-0.1,0.1-0.1,0.2-0.2l0,0
				l16.7-16.7c2-2,5.2-2,7.1,0c2,2,2,5.2,0,7.1l-8.1,8.1h23.9v0c2.6,0.1,4.8,2.3,4.8,5c0,2.7-2.1,4.9-4.8,5v0H35.6l8.1,8.1
				c2,2,2,5.2,0,7.1c-2,2-5.2,2-7.1,0L19.8,56.2l0,0c-0.1-0.1-0.1-0.1-0.2-0.2C19.5,55.8,19.4,55.6,19.2,55.4z"/>
			<path class="st2" d="M19,55.6c-0.1-0.1-0.1-0.2-0.1-0.2c-0.1-0.2-0.2-0.4-0.3-0.6c0-0.1-0.1-0.2-0.1-0.3
				c-0.1-0.2-0.1-0.4-0.2-0.6c0-0.1,0-0.3,0-0.4c0-0.2,0-0.3,0-0.5c0-0.2,0-0.4,0-0.5c0-0.1,0-0.3,0-0.4c0-0.2,0.1-0.4,0.2-0.6
				c0-0.1,0.1-0.2,0.1-0.3c0.1-0.2,0.2-0.4,0.3-0.6c0-0.1,0.1-0.2,0.1-0.3c0.1-0.2,0.3-0.4,0.5-0.6c0.1-0.1,0.1-0.1,0.2-0.2l0,0
				l16.7-16.7c2-2,5.2-2,7.1,0c2,2,2,5.2,0,7.1l-8.1,8.1h23.9v0c2.6,0.1,4.8,2.3,4.8,5c0,2.7-2.1,4.9-4.8,5v0H35.3l8.1,8.1
				c2,2,2,5.2,0,7.1c-2,2-5.2,2-7.1,0L19.6,56.4l0,0c-0.1-0.1-0.1-0.1-0.2-0.2C19.3,56,19.1,55.9,19,55.6z"/>
			<path class="st2" d="M18.7,55.9c-0.1-0.1-0.1-0.2-0.1-0.2c-0.1-0.2-0.2-0.4-0.3-0.6c0-0.1-0.1-0.2-0.1-0.3
				c-0.1-0.2-0.1-0.4-0.2-0.6c0-0.1,0-0.3,0-0.4c0-0.2,0-0.3,0-0.5c0-0.2,0-0.4,0-0.5c0-0.1,0-0.3,0-0.4c0-0.2,0.1-0.4,0.2-0.6
				c0-0.1,0.1-0.2,0.1-0.3c0.1-0.2,0.2-0.4,0.3-0.6c0-0.1,0.1-0.2,0.1-0.3c0.1-0.2,0.3-0.4,0.5-0.6c0.1-0.1,0.1-0.1,0.2-0.2l0,0
				l16.7-16.7c2-2,5.2-2,7.1,0c2,2,2,5.2,0,7.1l-8.1,8.1h23.9v0c2.6,0.1,4.8,2.3,4.8,5c0,2.7-2.1,4.9-4.8,5v0H35.1l8.1,8.1
				c2,2,2,5.2,0,7.1c-2,2-5.2,2-7.1,0L19.4,56.7l0,0c-0.1-0.1-0.1-0.1-0.2-0.2C19,56.3,18.9,56.1,18.7,55.9z"/>
			<path class="st2" d="M18.5,56.1c-0.1-0.1-0.1-0.2-0.1-0.2c-0.1-0.2-0.2-0.4-0.3-0.6c0-0.1-0.1-0.2-0.1-0.3
				c-0.1-0.2-0.1-0.4-0.2-0.6c0-0.1,0-0.3,0-0.4c0-0.2,0-0.3,0-0.5c0-0.2,0-0.4,0-0.5c0-0.1,0-0.3,0-0.4c0-0.2,0.1-0.4,0.2-0.6
				c0-0.1,0.1-0.2,0.1-0.3c0.1-0.2,0.2-0.4,0.3-0.6c0-0.1,0.1-0.2,0.1-0.3c0.1-0.2,0.3-0.4,0.5-0.6c0.1-0.1,0.1-0.1,0.2-0.2l0,0
				l16.7-16.7c2-2,5.2-2,7.1,0c2,2,2,5.2,0,7.1l-8.1,8.1h23.9v0c2.6,0.1,4.8,2.3,4.8,5c0,2.7-2.1,4.9-4.8,5v0H34.9l8.1,8.1
				c2,2,2,5.2,0,7.1c-2,2-5.2,2-7.1,0L19.1,56.9l0,0c-0.1-0.1-0.1-0.1-0.2-0.2C18.8,56.5,18.6,56.3,18.5,56.1z"/>
			<path class="st2" d="M18.3,56.4c-0.1-0.1-0.1-0.2-0.1-0.2c-0.1-0.2-0.2-0.4-0.3-0.6c0-0.1-0.1-0.2-0.1-0.3
				c-0.1-0.2-0.1-0.4-0.2-0.6c0-0.1,0-0.3,0-0.4c0-0.2,0-0.3,0-0.5c0-0.2,0-0.4,0-0.5c0-0.1,0-0.3,0-0.4c0-0.2,0.1-0.4,0.2-0.6
				c0-0.1,0.1-0.2,0.1-0.3c0.1-0.2,0.2-0.4,0.3-0.6c0-0.1,0.1-0.2,0.1-0.3c0.1-0.2,0.3-0.4,0.5-0.6c0.1-0.1,0.1-0.1,0.2-0.2l0,0
				l16.7-16.7c2-2,5.2-2,7.1,0c2,2,2,5.2,0,7.1l-8.1,8.1h23.9v0c2.6,0.1,4.8,2.3,4.8,5c0,2.7-2.1,4.9-4.8,5v0H34.6l8.1,8.1
				c2,2,2,5.2,0,7.1c-2,2-5.2,2-7.1,0L18.9,57.2l0,0c-0.1-0.1-0.1-0.1-0.2-0.2C18.6,56.8,18.4,56.6,18.3,56.4z"/>
			<path class="st2" d="M18,56.6c-0.1-0.1-0.1-0.2-0.1-0.2c-0.1-0.2-0.2-0.4-0.3-0.6c0-0.1-0.1-0.2-0.1-0.3
				c-0.1-0.2-0.1-0.4-0.2-0.6c0-0.1,0-0.3,0-0.4c0-0.2,0-0.3,0-0.5c0-0.2,0-0.4,0-0.5c0-0.1,0-0.3,0-0.4c0-0.2,0.1-0.4,0.2-0.6
				c0-0.1,0.1-0.2,0.1-0.3c0.1-0.2,0.2-0.4,0.3-0.6c0-0.1,0.1-0.2,0.1-0.3c0.1-0.2,0.3-0.4,0.5-0.6c0.1-0.1,0.1-0.1,0.2-0.2l0,0
				l16.7-16.7c2-2,5.2-2,7.1,0c2,2,2,5.2,0,7.1l-8.1,8.1h23.9v0c2.6,0.1,4.8,2.3,4.8,5c0,2.7-2.1,4.9-4.8,5v0H34.4l8.1,8.1
				c2,2,2,5.2,0,7.1c-2,2-5.2,2-7.1,0L18.6,57.4l0,0c-0.1-0.1-0.1-0.1-0.2-0.2C18.3,57,18.1,56.8,18,56.6z"/>
			<path class="st2" d="M17.8,56.9c-0.1-0.1-0.1-0.2-0.1-0.2c-0.1-0.2-0.2-0.4-0.3-0.6c0-0.1-0.1-0.2-0.1-0.3
				c-0.1-0.2-0.1-0.4-0.2-0.6c0-0.1,0-0.3,0-0.4c0-0.2,0-0.3,0-0.5c0-0.2,0-0.4,0-0.5c0-0.1,0-0.3,0-0.4c0-0.2,0.1-0.4,0.2-0.6
				c0-0.1,0.1-0.2,0.1-0.3c0.1-0.2,0.2-0.4,0.3-0.6c0-0.1,0.1-0.2,0.1-0.3c0.1-0.2,0.3-0.4,0.5-0.6c0.1-0.1,0.1-0.1,0.2-0.2l0,0
				l16.7-16.7c2-2,5.2-2,7.1,0c2,2,2,5.2,0,7.1l-8.1,8.1h23.9v0c2.6,0.1,4.8,2.3,4.8,5c0,2.7-2.1,4.9-4.8,5v0H34.1l8.1,8.1
				c2,2,2,5.2,0,7.1c-2,2-5.2,2-7.1,0L18.4,57.6l0,0c-0.1-0.1-0.1-0.1-0.2-0.2C18.1,57.3,17.9,57.1,17.8,56.9z"/>
			<path class="st2" d="M17.5,57.1c-0.1-0.1-0.1-0.2-0.1-0.2c-0.1-0.2-0.2-0.4-0.3-0.6c0-0.1-0.1-0.2-0.1-0.3
				c-0.1-0.2-0.1-0.4-0.2-0.6c0-0.1,0-0.3,0-0.4c0-0.2,0-0.3,0-0.5c0-0.2,0-0.4,0-0.5c0-0.1,0-0.3,0-0.4c0-0.2,0.1-0.4,0.2-0.6
				c0-0.1,0.1-0.2,0.1-0.3c0.1-0.2,0.2-0.4,0.3-0.6c0-0.1,0.1-0.2,0.1-0.3c0.1-0.2,0.3-0.4,0.5-0.6c0.1-0.1,0.1-0.1,0.2-0.2l0,0
				l16.7-16.7c2-2,5.2-2,7.1,0c2,2,2,5.2,0,7.1l-8.1,8.1h23.9v0c2.6,0.1,4.8,2.3,4.8,5c0,2.7-2.1,4.9-4.8,5v0H33.9l8.1,8.1
				c2,2,2,5.2,0,7.1c-2,2-5.2,2-7.1,0L18.1,57.9l0,0c-0.1-0.1-0.1-0.1-0.2-0.2C17.8,57.5,17.7,57.3,17.5,57.1z"/>
			<path class="st2" d="M17.3,57.3c-0.1-0.1-0.1-0.2-0.1-0.2c-0.1-0.2-0.2-0.4-0.3-0.6c0-0.1-0.1-0.2-0.1-0.3
				c-0.1-0.2-0.1-0.4-0.2-0.6c0-0.1,0-0.3,0-0.4c0-0.2,0-0.3,0-0.5c0-0.2,0-0.4,0-0.5c0-0.1,0-0.3,0-0.4c0-0.2,0.1-0.4,0.2-0.6
				c0-0.1,0.1-0.2,0.1-0.3c0.1-0.2,0.2-0.4,0.3-0.6c0-0.1,0.1-0.2,0.1-0.3c0.1-0.2,0.3-0.4,0.5-0.6c0.1-0.1,0.1-0.1,0.2-0.2l0,0
				l16.7-16.7c2-2,5.2-2,7.1,0c2,2,2,5.2,0,7.1l-8.1,8.1h23.9v0c2.6,0.1,4.8,2.3,4.8,5c0,2.7-2.1,4.9-4.8,5v0H33.7l8.1,8.1
				c2,2,2,5.2,0,7.1c-2,2-5.2,2-7.1,0L17.9,58.1l0,0c-0.1-0.1-0.1-0.1-0.2-0.2C17.6,57.7,17.4,57.5,17.3,57.3z"/>
			<path class="st2" d="M17,57.6c-0.1-0.1-0.1-0.2-0.1-0.2c-0.1-0.2-0.2-0.4-0.3-0.6c0-0.1-0.1-0.2-0.1-0.3
				c-0.1-0.2-0.1-0.4-0.2-0.6c0-0.1,0-0.3,0-0.4c0-0.2,0-0.3,0-0.5c0-0.2,0-0.4,0-0.5c0-0.1,0-0.3,0-0.4c0-0.2,0.1-0.4,0.2-0.6
				c0-0.1,0.1-0.2,0.1-0.3c0.1-0.2,0.2-0.4,0.3-0.6c0-0.1,0.1-0.2,0.1-0.3c0.1-0.2,0.3-0.4,0.5-0.6c0.1-0.1,0.1-0.1,0.2-0.2l0,0
				l16.7-16.7c2-2,5.2-2,7.1,0c2,2,2,5.2,0,7.1l-8.1,8.1h23.9v0c2.6,0.1,4.8,2.3,4.8,5c0,2.7-2.1,4.9-4.8,5v0H33.4l8.1,8.1
				c2,2,2,5.2,0,7.1c-2,2-5.2,2-7.1,0L17.7,58.4l0,0c-0.1-0.1-0.1-0.1-0.2-0.2C17.3,58,17.2,57.8,17,57.6z"/>
			<path class="st2" d="M16.8,57.8c-0.1-0.1-0.1-0.2-0.1-0.2c-0.1-0.2-0.2-0.4-0.3-0.6c0-0.1-0.1-0.2-0.1-0.3
				c-0.1-0.2-0.1-0.4-0.2-0.6c0-0.1,0-0.3,0-0.4c0-0.2,0-0.3,0-0.5c0-0.2,0-0.4,0-0.5c0-0.1,0-0.3,0-0.4c0-0.2,0.1-0.4,0.2-0.6
				c0-0.1,0.1-0.2,0.1-0.3c0.1-0.2,0.2-0.4,0.3-0.6c0-0.1,0.1-0.2,0.1-0.3c0.1-0.2,0.3-0.4,0.5-0.6c0.1-0.1,0.1-0.1,0.2-0.2l0,0
				l16.7-16.7c2-2,5.2-2,7.1,0c2,2,2,5.2,0,7.1l-8.1,8.1h23.9v0c2.6,0.1,4.8,2.3,4.8,5c0,2.7-2.1,4.9-4.8,5v0H33.2l8.1,8.1
				c2,2,2,5.2,0,7.1c-2,2-5.2,2-7.1,0L17.4,58.6l0,0c-0.1-0.1-0.1-0.1-0.2-0.2C17.1,58.2,16.9,58,16.8,57.8z"/>
			<path class="st2" d="M16.6,58.1c-0.1-0.1-0.1-0.2-0.1-0.2c-0.1-0.2-0.2-0.4-0.3-0.6c0-0.1-0.1-0.2-0.1-0.3
				c-0.1-0.2-0.1-0.4-0.2-0.6c0-0.1,0-0.3,0-0.4c0-0.2,0-0.3,0-0.5c0-0.2,0-0.4,0-0.5c0-0.1,0-0.3,0-0.4c0-0.2,0.1-0.4,0.2-0.6
				c0-0.1,0.1-0.2,0.1-0.3c0.1-0.2,0.2-0.4,0.3-0.6c0-0.1,0.1-0.2,0.1-0.3c0.1-0.2,0.3-0.4,0.5-0.6c0.1-0.1,0.1-0.1,0.2-0.2l0,0
				l16.7-16.7c2-2,5.2-2,7.1,0c2,2,2,5.2,0,7.1l-8.1,8.1h23.9v0c2.6,0.1,4.8,2.3,4.8,5c0,2.7-2.1,4.9-4.8,5v0H32.9l8.1,8.1
				c2,2,2,5.2,0,7.1c-2,2-5.2,2-7.1,0L17.2,58.8l0,0c-0.1-0.1-0.1-0.1-0.2-0.2C16.9,58.5,16.7,58.3,16.6,58.1z"/>
			<path class="st2" d="M16.3,58.3c-0.1-0.1-0.1-0.2-0.1-0.2c-0.1-0.2-0.2-0.4-0.3-0.6c0-0.1-0.1-0.2-0.1-0.3
				c-0.1-0.2-0.1-0.4-0.2-0.6c0-0.1,0-0.3,0-0.4c0-0.2,0-0.3,0-0.5c0-0.2,0-0.4,0-0.5c0-0.1,0-0.3,0-0.4c0-0.2,0.1-0.4,0.2-0.6
				c0-0.1,0.1-0.2,0.1-0.3c0.1-0.2,0.2-0.4,0.3-0.6c0-0.1,0.1-0.2,0.1-0.3c0.1-0.2,0.3-0.4,0.5-0.6c0.1-0.1,0.1-0.1,0.2-0.2l0,0
				l16.7-16.7c2-2,5.2-2,7.1,0c2,2,2,5.2,0,7.1l-8.1,8.1h23.9v0c2.6,0.1,4.8,2.3,4.8,5c0,2.7-2.1,4.9-4.8,5v0H32.7l8.1,8.1
				c2,2,2,5.2,0,7.1c-2,2-5.2,2-7.1,0L16.9,59.1l0,0c-0.1-0.1-0.1-0.1-0.2-0.2C16.6,58.7,16.5,58.5,16.3,58.3z"/>
			<path class="st2" d="M16.1,58.6c-0.1-0.1-0.1-0.2-0.1-0.2c-0.1-0.2-0.2-0.4-0.3-0.6c0-0.1-0.1-0.2-0.1-0.3
				c-0.1-0.2-0.1-0.4-0.2-0.6c0-0.1,0-0.3,0-0.4c0-0.2,0-0.3,0-0.5c0-0.2,0-0.4,0-0.5c0-0.1,0-0.3,0-0.4c0-0.2,0.1-0.4,0.2-0.6
				c0-0.1,0.1-0.2,0.1-0.3c0.1-0.2,0.2-0.4,0.3-0.6c0-0.1,0.1-0.2,0.1-0.3c0.1-0.2,0.3-0.4,0.5-0.6c0.1-0.1,0.1-0.1,0.2-0.2l0,0
				l16.7-16.7c2-2,5.2-2,7.1,0c2,2,2,5.2,0,7.1l-8.1,8.1h23.9v0c2.6,0.1,4.8,2.3,4.8,5c0,2.7-2.1,4.9-4.8,5v0H32.4l8.1,8.1
				c2,2,2,5.2,0,7.1c-2,2-5.2,2-7.1,0L16.7,59.3l0,0c-0.1-0.1-0.1-0.1-0.2-0.2C16.4,58.9,16.2,58.8,16.1,58.6z"/>
			<path class="st2" d="M15.8,58.8c-0.1-0.1-0.1-0.2-0.1-0.2c-0.1-0.2-0.2-0.4-0.3-0.6c0-0.1-0.1-0.2-0.1-0.3
				c-0.1-0.2-0.1-0.4-0.2-0.6c0-0.1,0-0.3,0-0.4c0-0.2,0-0.3,0-0.5c0-0.2,0-0.4,0-0.5c0-0.1,0-0.3,0-0.4c0-0.2,0.1-0.4,0.2-0.6
				c0-0.1,0.1-0.2,0.1-0.3c0.1-0.2,0.2-0.4,0.3-0.6c0-0.1,0.1-0.2,0.1-0.3c0.1-0.2,0.3-0.4,0.5-0.6c0.1-0.1,0.1-0.1,0.2-0.2l0,0
				l16.7-16.7c2-2,5.2-2,7.1,0c2,2,2,5.2,0,7.1L32.2,51h23.9v0c2.6,0.1,4.8,2.3,4.8,5c0,2.7-2.1,4.9-4.8,5v0H32.2l8.1,8.1
				c2,2,2,5.2,0,7.1c-2,2-5.2,2-7.1,0L16.5,59.6l0,0c-0.1-0.1-0.1-0.1-0.2-0.2C16.1,59.2,16,59,15.8,58.8z"/>
			<path class="st2" d="M15.6,59c-0.1-0.1-0.1-0.2-0.1-0.2c-0.1-0.2-0.2-0.4-0.3-0.6c0-0.1-0.1-0.2-0.1-0.3
				c-0.1-0.2-0.1-0.4-0.2-0.6c0-0.1,0-0.3,0-0.4c0-0.2,0-0.3,0-0.5c0-0.2,0-0.4,0-0.5c0-0.1,0-0.3,0-0.4c0-0.2,0.1-0.4,0.2-0.6
				c0-0.1,0.1-0.2,0.1-0.3c0.1-0.2,0.2-0.4,0.3-0.6c0-0.1,0.1-0.2,0.1-0.3c0.1-0.2,0.3-0.4,0.5-0.6c0.1-0.1,0.1-0.1,0.2-0.2l0,0
				L33,36c2-2,5.2-2,7.1,0c2,2,2,5.2,0,7.1L32,51.3h23.9v0c2.6,0.1,4.8,2.3,4.8,5c0,2.7-2.1,4.9-4.8,5v0H32l8.1,8.1c2,2,2,5.2,0,7.1
				c-2,2-5.2,2-7.1,0L16.2,59.8l0,0c-0.1-0.1-0.1-0.1-0.2-0.2C15.9,59.4,15.7,59.2,15.6,59z"/>
			<path class="st2" d="M15.3,59.3c-0.1-0.1-0.1-0.2-0.1-0.2c-0.1-0.2-0.2-0.4-0.3-0.6c0-0.1-0.1-0.2-0.1-0.3
				c-0.1-0.2-0.1-0.4-0.2-0.6c0-0.1,0-0.3,0-0.4c0-0.2,0-0.3,0-0.5c0-0.2,0-0.4,0-0.5c0-0.1,0-0.3,0-0.4c0-0.2,0.1-0.4,0.2-0.6
				c0-0.1,0.1-0.2,0.1-0.3c0.1-0.2,0.2-0.4,0.3-0.6c0-0.1,0.1-0.2,0.1-0.3c0.1-0.2,0.3-0.4,0.5-0.6c0.1-0.1,0.1-0.1,0.2-0.2l0,0
				l16.7-16.7c2-2,5.2-2,7.1,0c2,2,2,5.2,0,7.1l-8.1,8.1h23.9v0c2.6,0.1,4.8,2.3,4.8,5c0,2.7-2.1,4.9-4.8,5v0H31.7l8.1,8.1
				c2,2,2,5.2,0,7.1c-2,2-5.2,2-7.1,0L16,60.1l0,0c-0.1-0.1-0.1-0.1-0.2-0.2C15.7,59.7,15.5,59.5,15.3,59.3z"/>
			<path class="st2" d="M15.1,59.5c-0.1-0.1-0.1-0.2-0.1-0.2c-0.1-0.2-0.2-0.4-0.3-0.6c0-0.1-0.1-0.2-0.1-0.3
				c-0.1-0.2-0.1-0.4-0.2-0.6c0-0.1,0-0.3,0-0.4c0-0.2,0-0.3,0-0.5c0-0.2,0-0.4,0-0.5c0-0.1,0-0.3,0-0.4c0-0.2,0.1-0.4,0.2-0.6
				c0-0.1,0.1-0.2,0.1-0.3c0.1-0.2,0.2-0.4,0.3-0.6c0-0.1,0.1-0.2,0.1-0.3c0.1-0.2,0.3-0.4,0.5-0.6c0.1-0.1,0.1-0.1,0.2-0.2l0,0
				l16.7-16.7c2-2,5.2-2,7.1,0c2,2,2,5.2,0,7.1l-8.1,8.1h23.9v0c2.6,0.1,4.8,2.3,4.8,5c0,2.7-2.1,4.9-4.8,5v0H31.5l8.1,8.1
				c2,2,2,5.2,0,7.1c-2,2-5.2,2-7.1,0L15.7,60.3l0,0c-0.1-0.1-0.1-0.1-0.2-0.2C15.4,59.9,15.2,59.7,15.1,59.5z"/>
			<path class="st2" d="M14.9,59.8c-0.1-0.1-0.1-0.2-0.1-0.2c-0.1-0.2-0.2-0.4-0.3-0.6c0-0.1-0.1-0.2-0.1-0.3
				c-0.1-0.2-0.1-0.4-0.2-0.6c0-0.1,0-0.3,0-0.4c0-0.2,0-0.3,0-0.5c0-0.2,0-0.4,0-0.5c0-0.1,0-0.3,0-0.4c0-0.2,0.1-0.4,0.2-0.6
				c0-0.1,0.1-0.2,0.1-0.3c0.1-0.2,0.2-0.4,0.3-0.6c0-0.1,0.1-0.2,0.1-0.3c0.1-0.2,0.3-0.4,0.5-0.6c0.1-0.1,0.1-0.1,0.2-0.2l0,0
				l16.7-16.7c2-2,5.2-2,7.1,0c2,2,2,5.2,0,7.1L31.2,52h23.9v0c2.6,0.1,4.8,2.3,4.8,5c0,2.7-2.1,4.9-4.8,5v0H31.2l8.1,8.1
				c2,2,2,5.2,0,7.1c-2,2-5.2,2-7.1,0L15.5,60.5l0,0c-0.1-0.1-0.1-0.1-0.2-0.2C15.2,60.2,15,60,14.9,59.8z"/>
			<path class="st2" d="M14.6,60c-0.1-0.1-0.1-0.2-0.1-0.2c-0.1-0.2-0.2-0.4-0.3-0.6c0-0.1-0.1-0.2-0.1-0.3
				c-0.1-0.2-0.1-0.4-0.2-0.6c0-0.1,0-0.3,0-0.4c0-0.2,0-0.3,0-0.5c0-0.2,0-0.4,0-0.5c0-0.1,0-0.3,0-0.4c0-0.2,0.1-0.4,0.2-0.6
				c0-0.1,0.1-0.2,0.1-0.3c0.1-0.2,0.2-0.4,0.3-0.6c0-0.1,0.1-0.2,0.1-0.3c0.1-0.2,0.3-0.4,0.5-0.6c0.1-0.1,0.1-0.1,0.2-0.2l0,0
				L32,37c2-2,5.2-2,7.1,0c2,2,2,5.2,0,7.1L31,52.2h23.9v0c2.6,0.1,4.8,2.3,4.8,5c0,2.7-2.1,4.9-4.8,5v0H31l8.1,8.1c2,2,2,5.2,0,7.1
				c-2,2-5.2,2-7.1,0L15.2,60.8l0,0c-0.1-0.1-0.1-0.1-0.2-0.2C14.9,60.4,14.8,60.2,14.6,60z"/>
			<path class="st2" d="M14.4,60.2c-0.1-0.1-0.1-0.2-0.1-0.2c-0.1-0.2-0.2-0.4-0.3-0.6c0-0.1-0.1-0.2-0.1-0.3
				c-0.1-0.2-0.1-0.4-0.2-0.6c0-0.1,0-0.3,0-0.4c0-0.2,0-0.3,0-0.5c0-0.2,0-0.4,0-0.5c0-0.1,0-0.3,0-0.4c0-0.2,0.1-0.4,0.2-0.6
				c0-0.1,0.1-0.2,0.1-0.3c0.1-0.2,0.2-0.4,0.3-0.6c0-0.1,0.1-0.2,0.1-0.3c0.1-0.2,0.3-0.4,0.5-0.6c0.1-0.1,0.1-0.1,0.2-0.2l0,0
				l16.7-16.7c2-2,5.2-2,7.1,0c2,2,2,5.2,0,7.1l-8.1,8.1h23.9v0c2.6,0.1,4.8,2.3,4.8,5c0,2.7-2.1,4.9-4.8,5v0H30.7l8.1,8.1
				c2,2,2,5.2,0,7.1c-2,2-5.2,2-7.1,0L15,61l0,0c-0.1-0.1-0.1-0.1-0.2-0.2C14.7,60.6,14.5,60.5,14.4,60.2z"/>
			<path class="st2" d="M14.1,60.5c-0.1-0.1-0.1-0.2-0.1-0.2c-0.1-0.2-0.2-0.4-0.3-0.6c0-0.1-0.1-0.2-0.1-0.3
				c-0.1-0.2-0.1-0.4-0.2-0.6c0-0.1,0-0.3,0-0.4c0-0.2,0-0.3,0-0.5c0-0.2,0-0.4,0-0.5c0-0.1,0-0.3,0-0.4c0-0.2,0.1-0.4,0.2-0.6
				c0-0.1,0.1-0.2,0.1-0.3c0.1-0.2,0.2-0.4,0.3-0.6c0-0.1,0.1-0.2,0.1-0.3c0.1-0.2,0.3-0.4,0.5-0.6c0.1-0.1,0.1-0.1,0.2-0.2l0,0
				l16.7-16.7c2-2,5.2-2,7.1,0c2,2,2,5.2,0,7.1l-8.1,8.1h23.9v0c2.6,0.1,4.8,2.3,4.8,5c0,2.7-2.1,4.9-4.8,5v0H30.5l8.1,8.1
				c2,2,2,5.2,0,7.1c-2,2-5.2,2-7.1,0L14.8,61.3l0,0c-0.1-0.1-0.1-0.1-0.2-0.2C14.4,60.9,14.3,60.7,14.1,60.5z"/>
			<path class="st2" d="M13.9,60.7c-0.1-0.1-0.1-0.2-0.1-0.2c-0.1-0.2-0.2-0.4-0.3-0.6c0-0.1-0.1-0.2-0.1-0.3
				c-0.1-0.2-0.1-0.4-0.2-0.6c0-0.1,0-0.3,0-0.4c0-0.2,0-0.3,0-0.5c0-0.2,0-0.4,0-0.5c0-0.1,0-0.3,0-0.4c0-0.2,0.1-0.4,0.2-0.6
				c0-0.1,0.1-0.2,0.1-0.3c0.1-0.2,0.2-0.4,0.3-0.6c0-0.1,0.1-0.2,0.1-0.3c0.1-0.2,0.3-0.4,0.5-0.6c0.1-0.1,0.1-0.1,0.2-0.2l0,0
				l16.7-16.7c2-2,5.2-2,7.1,0c2,2,2,5.2,0,7.1L30.3,53h23.9v0c2.6,0.1,4.8,2.3,4.8,5c0,2.7-2.1,4.9-4.8,5v0H30.3l8.1,8.1
				c2,2,2,5.2,0,7.1c-2,2-5.2,2-7.1,0L14.5,61.5l0,0c-0.1-0.1-0.1-0.1-0.2-0.2C14.2,61.1,14,60.9,13.9,60.7z"/>
			<path class="st2" d="M13.7,61c-0.1-0.1-0.1-0.2-0.1-0.2c-0.1-0.2-0.2-0.4-0.3-0.6c0-0.1-0.1-0.2-0.1-0.3
				c-0.1-0.2-0.1-0.4-0.2-0.6c0-0.1,0-0.3,0-0.4c0-0.2,0-0.3,0-0.5c0-0.2,0-0.4,0-0.5c0-0.1,0-0.3,0-0.4c0-0.2,0.1-0.4,0.2-0.6
				c0-0.1,0.1-0.2,0.1-0.3c0.1-0.2,0.2-0.4,0.3-0.6c0-0.1,0.1-0.2,0.1-0.3c0.1-0.2,0.3-0.4,0.5-0.6c0.1-0.1,0.1-0.1,0.2-0.2l0,0
				L31,38c2-2,5.2-2,7.1,0c2,2,2,5.2,0,7.1L30,53.2H54v0c2.6,0.1,4.8,2.3,4.8,5c0,2.7-2.1,4.9-4.8,5v0H30l8.1,8.1c2,2,2,5.2,0,7.1
				c-2,2-5.2,2-7.1,0L14.3,61.8l0,0c-0.1-0.1-0.1-0.1-0.2-0.2C14,61.4,13.8,61.2,13.7,61z"/>
			<path class="st2" d="M13.4,61.2c-0.1-0.1-0.1-0.2-0.1-0.2c-0.1-0.2-0.2-0.4-0.3-0.6c0-0.1-0.1-0.2-0.1-0.3
				c-0.1-0.2-0.1-0.4-0.2-0.6c0-0.1,0-0.3,0-0.4c0-0.2,0-0.3,0-0.5c0-0.2,0-0.4,0-0.5c0-0.1,0-0.3,0-0.4c0-0.2,0.1-0.4,0.2-0.6
				c0-0.1,0.1-0.2,0.1-0.3c0.1-0.2,0.2-0.4,0.3-0.6c0-0.1,0.1-0.2,0.1-0.3c0.1-0.2,0.3-0.4,0.5-0.6C13.9,55.1,14,55,14,55l0,0
				l16.7-16.7c2-2,5.2-2,7.1,0c2,2,2,5.2,0,7.1l-8.1,8.1h23.9v0c2.6,0.1,4.8,2.3,4.8,5c0,2.7-2.1,4.9-4.8,5v0H29.8l8.1,8.1
				c2,2,2,5.2,0,7.1c-2,2-5.2,2-7.1,0L14,62l0,0c-0.1-0.1-0.1-0.1-0.2-0.2C13.7,61.6,13.5,61.4,13.4,61.2z"/>
			<path class="st2" d="M13.2,61.5c-0.1-0.1-0.1-0.2-0.1-0.2c-0.1-0.2-0.2-0.4-0.3-0.6c0-0.1-0.1-0.2-0.1-0.3
				c-0.1-0.2-0.1-0.4-0.2-0.6c0-0.1,0-0.3,0-0.4c0-0.2,0-0.3,0-0.5c0-0.2,0-0.4,0-0.5c0-0.1,0-0.3,0-0.4c0-0.2,0.1-0.4,0.2-0.6
				c0-0.1,0.1-0.2,0.1-0.3c0.1-0.2,0.2-0.4,0.3-0.6c0-0.1,0.1-0.2,0.1-0.3c0.1-0.2,0.3-0.4,0.5-0.6c0.1-0.1,0.1-0.1,0.2-0.2l0,0
				l16.7-16.7c2-2,5.2-2,7.1,0c2,2,2,5.2,0,7.1l-8.1,8.1h23.9v0c2.6,0.1,4.8,2.3,4.8,5c0,2.7-2.1,4.9-4.8,5v0H29.5l8.1,8.1
				c2,2,2,5.2,0,7.1c-2,2-5.2,2-7.1,0L13.8,62.2l0,0c-0.1-0.1-0.1-0.1-0.2-0.2C13.5,61.9,13.3,61.7,13.2,61.5z"/>
			<path class="st2" d="M12.9,61.7c-0.1-0.1-0.1-0.2-0.1-0.2c-0.1-0.2-0.2-0.4-0.3-0.6c0-0.1-0.1-0.2-0.1-0.3
				c-0.1-0.2-0.1-0.4-0.2-0.6c0-0.1,0-0.3,0-0.4c0-0.2,0-0.3,0-0.5c0-0.2,0-0.4,0-0.5c0-0.1,0-0.3,0-0.4c0-0.2,0.1-0.4,0.2-0.6
				c0-0.1,0.1-0.2,0.1-0.3c0.1-0.2,0.2-0.4,0.3-0.6c0-0.1,0.1-0.2,0.1-0.3c0.1-0.2,0.3-0.4,0.5-0.6c0.1-0.1,0.1-0.1,0.2-0.2l0,0
				l16.7-16.7c2-2,5.2-2,7.1,0c2,2,2,5.2,0,7.1l-8.1,8.1h23.9v0c2.6,0.1,4.8,2.3,4.8,5c0,2.7-2.1,4.9-4.8,5v0H29.3l8.1,8.1
				c2,2,2,5.2,0,7.1c-2,2-5.2,2-7.1,0L13.5,62.5l0,0c-0.1-0.1-0.1-0.1-0.2-0.2C13.2,62.1,13.1,61.9,12.9,61.7z"/>
			<path class="st2" d="M12.7,61.9c-0.1-0.1-0.1-0.2-0.1-0.2c-0.1-0.2-0.2-0.4-0.3-0.6c0-0.1-0.1-0.2-0.1-0.3
				c-0.1-0.2-0.1-0.4-0.2-0.6c0-0.1,0-0.3,0-0.4c0-0.2,0-0.3,0-0.5c0-0.2,0-0.4,0-0.5c0-0.1,0-0.3,0-0.4c0-0.2,0.1-0.4,0.2-0.6
				c0-0.1,0.1-0.2,0.1-0.3c0.1-0.2,0.2-0.4,0.3-0.6c0-0.1,0.1-0.2,0.1-0.3c0.1-0.2,0.3-0.4,0.5-0.6c0.1-0.1,0.1-0.1,0.2-0.2l0,0
				L30,38.9c2-2,5.2-2,7.1,0c2,2,2,5.2,0,7.1l-8.1,8.1H53v0c2.6,0.1,4.8,2.3,4.8,5c0,2.7-2.1,4.9-4.8,5v0H29.1l8.1,8.1
				c2,2,2,5.2,0,7.1c-2,2-5.2,2-7.1,0L13.3,62.7l0,0c-0.1-0.1-0.1-0.1-0.2-0.2C13,62.3,12.8,62.2,12.7,61.9z"/>
			<path class="st2" d="M12.4,62.2c-0.1-0.1-0.1-0.2-0.1-0.2c-0.1-0.2-0.2-0.4-0.3-0.6c0-0.1-0.1-0.2-0.1-0.3
				c-0.1-0.2-0.1-0.4-0.2-0.6c0-0.1,0-0.3,0-0.4c0-0.2,0-0.3,0-0.5c0-0.2,0-0.4,0-0.5c0-0.1,0-0.3,0-0.4c0-0.2,0.1-0.4,0.2-0.6
				c0-0.1,0.1-0.2,0.1-0.3c0.1-0.2,0.2-0.4,0.3-0.6c0-0.1,0.1-0.2,0.1-0.3c0.1-0.2,0.3-0.4,0.5-0.6c0.1-0.1,0.1-0.1,0.2-0.2l0,0
				l16.7-16.7c2-2,5.2-2,7.1,0c2,2,2,5.2,0,7.1l-8.1,8.1h23.9v0c2.6,0.1,4.8,2.3,4.8,5c0,2.7-2.1,4.9-4.8,5v0H28.8l8.1,8.1
				c2,2,2,5.2,0,7.1c-2,2-5.2,2-7.1,0L13.1,63l0,0c-0.1-0.1-0.1-0.1-0.2-0.2C12.7,62.6,12.6,62.4,12.4,62.2z"/>
			<path class="st2" d="M12.2,62.4c-0.1-0.1-0.1-0.2-0.1-0.2c-0.1-0.2-0.2-0.4-0.3-0.6c0-0.1-0.1-0.2-0.1-0.3
				c-0.1-0.2-0.1-0.4-0.2-0.6c0-0.1,0-0.3,0-0.4c0-0.2,0-0.3,0-0.5c0-0.2,0-0.4,0-0.5c0-0.1,0-0.3,0-0.4c0-0.2,0.1-0.4,0.2-0.6
				c0-0.1,0.1-0.2,0.1-0.3c0.1-0.2,0.2-0.4,0.3-0.6c0-0.1,0.1-0.2,0.1-0.3c0.1-0.2,0.3-0.4,0.5-0.6c0.1-0.1,0.1-0.1,0.2-0.2l0,0
				l16.7-16.7c2-2,5.2-2,7.1,0c2,2,2,5.2,0,7.1l-8.1,8.1h23.9v0c2.6,0.1,4.8,2.3,4.8,5c0,2.7-2.1,4.9-4.8,5v0H28.6l8.1,8.1
				c2,2,2,5.2,0,7.1c-2,2-5.2,2-7.1,0L12.8,63.2l0,0c-0.1-0.1-0.1-0.1-0.2-0.2C12.5,62.8,12.3,62.6,12.2,62.4z"/>
			<path class="st2" d="M12,62.7c-0.1-0.1-0.1-0.2-0.1-0.2c-0.1-0.2-0.2-0.4-0.3-0.6c0-0.1-0.1-0.2-0.1-0.3
				c-0.1-0.2-0.1-0.4-0.2-0.6c0-0.1,0-0.3,0-0.4c0-0.2,0-0.3,0-0.5c0-0.2,0-0.4,0-0.5c0-0.1,0-0.3,0-0.4c0-0.2,0.1-0.4,0.2-0.6
				c0-0.1,0.1-0.2,0.1-0.3c0.1-0.2,0.2-0.4,0.3-0.6c0-0.1,0.1-0.2,0.1-0.3c0.1-0.2,0.3-0.4,0.5-0.6c0.1-0.1,0.1-0.1,0.2-0.2l0,0
				l16.7-16.7c2-2,5.2-2,7.1,0c2,2,2,5.2,0,7.1l-8.1,8.1h23.9v0c2.6,0.1,4.8,2.3,4.8,5c0,2.7-2.1,4.9-4.8,5v0H28.3l8.1,8.1
				c2,2,2,5.2,0,7.1c-2,2-5.2,2-7.1,0L12.6,63.5l0,0c-0.1-0.1-0.1-0.1-0.2-0.2C12.3,63.1,12.1,62.9,12,62.7z"/>
			<path class="st2" d="M11.7,62.9c-0.1-0.1-0.1-0.2-0.1-0.2c-0.1-0.2-0.2-0.4-0.3-0.6c0-0.1-0.1-0.2-0.1-0.3
				c-0.1-0.2-0.1-0.4-0.2-0.6c0-0.1,0-0.3,0-0.4c0-0.2,0-0.3,0-0.5c0-0.2,0-0.4,0-0.5c0-0.1,0-0.3,0-0.4c0-0.2,0.1-0.4,0.2-0.6
				c0-0.1,0.1-0.2,0.1-0.3c0.1-0.2,0.2-0.4,0.3-0.6c0-0.1,0.1-0.2,0.1-0.3c0.1-0.2,0.3-0.4,0.5-0.6c0.1-0.1,0.1-0.1,0.2-0.2l0,0
				l16.7-16.7c2-2,5.2-2,7.1,0c2,2,2,5.2,0,7.1l-8.1,8.1H52v0c2.6,0.1,4.8,2.3,4.8,5c0,2.7-2.1,4.9-4.8,5v0H28.1l8.1,8.1
				c2,2,2,5.2,0,7.1c-2,2-5.2,2-7.1,0L12.3,63.7l0,0c-0.1-0.1-0.1-0.1-0.2-0.2C12,63.3,11.8,63.1,11.7,62.9z"/>
			<path class="st2" d="M11.5,63.2c-0.1-0.1-0.1-0.2-0.1-0.2c-0.1-0.2-0.2-0.4-0.3-0.6c0-0.1-0.1-0.2-0.1-0.3
				c-0.1-0.2-0.1-0.4-0.2-0.6c0-0.1,0-0.3,0-0.4c0-0.2,0-0.3,0-0.5c0-0.2,0-0.4,0-0.5c0-0.1,0-0.3,0-0.4c0-0.2,0.1-0.4,0.2-0.6
				c0-0.1,0.1-0.2,0.1-0.3c0.1-0.2,0.2-0.4,0.3-0.6c0-0.1,0.1-0.2,0.1-0.3c0.1-0.2,0.3-0.4,0.5-0.6C12,57,12,57,12.1,56.9l0,0
				l16.7-16.7c2-2,5.2-2,7.1,0c2,2,2,5.2,0,7.1l-8.1,8.1h23.9v0c2.6,0.1,4.8,2.3,4.8,5c0,2.7-2.1,4.9-4.8,5v0H27.8l8.1,8.1
				c2,2,2,5.2,0,7.1c-2,2-5.2,2-7.1,0L12.1,63.9l0,0c-0.1-0.1-0.1-0.1-0.2-0.2C11.8,63.6,11.6,63.4,11.5,63.2z"/>
			<path class="st2" d="M11.2,63.4c-0.1-0.1-0.1-0.2-0.1-0.2c-0.1-0.2-0.2-0.4-0.3-0.6c0-0.1-0.1-0.2-0.1-0.3
				c-0.1-0.2-0.1-0.4-0.2-0.6c0-0.1,0-0.3,0-0.4c0-0.2,0-0.3,0-0.5c0-0.2,0-0.4,0-0.5c0-0.1,0-0.3,0-0.4c0-0.2,0.1-0.4,0.2-0.6
				c0-0.1,0.1-0.2,0.1-0.3c0.1-0.2,0.2-0.4,0.3-0.6c0-0.1,0.1-0.2,0.1-0.3c0.1-0.2,0.3-0.4,0.5-0.6c0.1-0.1,0.1-0.1,0.2-0.2l0,0
				l16.7-16.7c2-2,5.2-2,7.1,0c2,2,2,5.2,0,7.1l-8.1,8.1h23.9v0c2.6,0.1,4.8,2.3,4.8,5c0,2.7-2.1,4.9-4.8,5v0H27.6l8.1,8.1
				c2,2,2,5.2,0,7.1c-2,2-5.2,2-7.1,0L11.9,64.2l0,0c-0.1-0.1-0.1-0.1-0.2-0.2C11.5,63.8,11.4,63.6,11.2,63.4z"/>
			<path class="st2" d="M11,63.6c-0.1-0.1-0.1-0.2-0.1-0.2c-0.1-0.2-0.2-0.4-0.3-0.6c0-0.1-0.1-0.2-0.1-0.3
				c-0.1-0.2-0.1-0.4-0.2-0.6c0-0.1,0-0.3,0-0.4c0-0.2,0-0.3,0-0.5c0-0.2,0-0.4,0-0.5c0-0.1,0-0.3,0-0.4c0-0.2,0.1-0.4,0.2-0.6
				c0-0.1,0.1-0.2,0.1-0.3c0.1-0.2,0.2-0.4,0.3-0.6c0-0.1,0.1-0.2,0.1-0.3c0.1-0.2,0.3-0.4,0.5-0.6c0.1-0.1,0.1-0.1,0.2-0.2l0,0
				l16.7-16.7c2-2,5.2-2,7.1,0c2,2,2,5.2,0,7.1l-8.1,8.1h23.9v0c2.6,0.1,4.8,2.3,4.8,5c0,2.7-2.1,4.9-4.8,5v0H27.4l8.1,8.1
				c2,2,2,5.2,0,7.1c-2,2-5.2,2-7.1,0L11.6,64.4l0,0c-0.1-0.1-0.1-0.1-0.2-0.2C11.3,64,11.1,63.8,11,63.6z"/>
			<path class="st2" d="M10.7,63.9c-0.1-0.1-0.1-0.2-0.1-0.2c-0.1-0.2-0.2-0.4-0.3-0.6c0-0.1-0.1-0.2-0.1-0.3
				c-0.1-0.2-0.1-0.4-0.2-0.6c0-0.1,0-0.3,0-0.4c0-0.2,0-0.3,0-0.5c0-0.2,0-0.4,0-0.5c0-0.1,0-0.3,0-0.4c0-0.2,0.1-0.4,0.2-0.6
				c0-0.1,0.1-0.2,0.1-0.3c0.1-0.2,0.2-0.4,0.3-0.6c0-0.1,0.1-0.2,0.1-0.3c0.1-0.2,0.3-0.4,0.5-0.6c0.1-0.1,0.1-0.1,0.2-0.2l0,0
				l16.7-16.7c2-2,5.2-2,7.1,0c2,2,2,5.2,0,7.1l-8.1,8.1h23.9v0c2.6,0.1,4.8,2.3,4.8,5c0,2.7-2.1,4.9-4.8,5v0H27.1l8.1,8.1
				c2,2,2,5.2,0,7.1c-2,2-5.2,2-7.1,0L11.4,64.7l0,0c-0.1-0.1-0.1-0.1-0.2-0.2C11,64.3,10.9,64.1,10.7,63.9z"/>
			<path class="st2" d="M10.5,64.1c-0.1-0.1-0.1-0.2-0.1-0.2c-0.1-0.2-0.2-0.4-0.3-0.6c0-0.1-0.1-0.2-0.1-0.3
				c-0.1-0.2-0.1-0.4-0.2-0.6c0-0.1,0-0.3,0-0.4c0-0.2,0-0.3,0-0.5c0-0.2,0-0.4,0-0.5c0-0.1,0-0.3,0-0.4c0-0.2,0.1-0.4,0.2-0.6
				c0-0.1,0.1-0.2,0.1-0.3c0.1-0.2,0.2-0.4,0.3-0.6c0-0.1,0.1-0.2,0.1-0.3c0.1-0.2,0.3-0.4,0.5-0.6c0.1-0.1,0.1-0.1,0.2-0.2l0,0
				l16.7-16.7c2-2,5.2-2,7.1,0c2,2,2,5.2,0,7.1l-8.1,8.1h23.9v0c2.6,0.1,4.8,2.3,4.8,5c0,2.7-2.1,4.9-4.8,5v0H26.9l8.1,8.1
				c2,2,2,5.2,0,7.1c-2,2-5.2,2-7.1,0L11.1,64.9l0,0c-0.1-0.1-0.1-0.1-0.2-0.2C10.8,64.5,10.6,64.3,10.5,64.1z"/>
			<path class="st2" d="M10.3,64.4c-0.1-0.1-0.1-0.2-0.1-0.2c-0.1-0.2-0.2-0.4-0.3-0.6c0-0.1-0.1-0.2-0.1-0.3
				c-0.1-0.2-0.1-0.4-0.2-0.6c0-0.1,0-0.3,0-0.4c0-0.2,0-0.3,0-0.5c0-0.2,0-0.4,0-0.5c0-0.1,0-0.3,0-0.4c0-0.2,0.1-0.4,0.2-0.6
				c0-0.1,0.1-0.2,0.1-0.3c0.1-0.2,0.2-0.4,0.3-0.6c0-0.1,0.1-0.2,0.1-0.3c0.1-0.2,0.3-0.4,0.5-0.6c0.1-0.1,0.1-0.1,0.2-0.2l0,0
				l16.7-16.7c2-2,5.2-2,7.1,0c2,2,2,5.2,0,7.1l-8.1,8.1h23.9v0c2.6,0.1,4.8,2.3,4.8,5c0,2.7-2.1,4.9-4.8,5v0H26.6l8.1,8.1
				c2,2,2,5.2,0,7.1c-2,2-5.2,2-7.1,0L10.9,65.1l0,0c-0.1-0.1-0.1-0.1-0.2-0.2C10.6,64.8,10.4,64.6,10.3,64.4z"/>
			<path class="st2" d="M10,64.6c-0.1-0.1-0.1-0.2-0.1-0.2c-0.1-0.2-0.2-0.4-0.3-0.6c0-0.1-0.1-0.2-0.1-0.3
				c-0.1-0.2-0.1-0.4-0.2-0.6c0-0.1,0-0.3,0-0.4c0-0.2,0-0.3,0-0.5c0-0.2,0-0.4,0-0.5c0-0.1,0-0.3,0-0.4c0-0.2,0.1-0.4,0.2-0.6
				c0-0.1,0.1-0.2,0.1-0.3c0.1-0.2,0.2-0.4,0.3-0.6c0-0.1,0.1-0.2,0.1-0.3c0.1-0.2,0.3-0.4,0.5-0.6c0.1-0.1,0.1-0.1,0.2-0.2l0,0
				l16.7-16.7c2-2,5.2-2,7.1,0c2,2,2,5.2,0,7.1l-8.1,8.1h23.9v0c2.6,0.1,4.8,2.3,4.8,5c0,2.7-2.1,4.9-4.8,5v0H26.4l8.1,8.1
				c2,2,2,5.2,0,7.1c-2,2-5.2,2-7.1,0L10.6,65.4l0,0c-0.1-0.1-0.1-0.1-0.2-0.2C10.3,65,10.2,64.8,10,64.6z"/>
			<path class="st2" d="M9.8,64.9c-0.1-0.1-0.1-0.2-0.1-0.2c-0.1-0.2-0.2-0.4-0.3-0.6c0-0.1-0.1-0.2-0.1-0.3
				c-0.1-0.2-0.1-0.4-0.2-0.6c0-0.1,0-0.3,0-0.4c0-0.2,0-0.3,0-0.5c0-0.2,0-0.4,0-0.5c0-0.1,0-0.3,0-0.4c0-0.2,0.1-0.4,0.2-0.6
				c0-0.1,0.1-0.2,0.1-0.3c0.1-0.2,0.2-0.4,0.3-0.6c0-0.1,0.1-0.2,0.1-0.3c0.1-0.2,0.3-0.4,0.5-0.6c0.1-0.1,0.1-0.1,0.2-0.2l0,0
				l16.7-16.7c2-2,5.2-2,7.1,0c2,2,2,5.2,0,7.1l-8.1,8.1h23.9v0c2.6,0.1,4.8,2.3,4.8,5c0,2.7-2.1,4.9-4.8,5v0H26.1l8.1,8.1
				c2,2,2,5.2,0,7.1c-2,2-5.2,2-7.1,0L10.4,65.6l0,0c-0.1-0.1-0.1-0.1-0.2-0.2C10.1,65.2,9.9,65.1,9.8,64.9z"/>
			<path class="st2" d="M9.5,65.1c-0.1-0.1-0.1-0.2-0.1-0.2c-0.1-0.2-0.2-0.4-0.3-0.6C9,64.1,9,64,9,63.9c-0.1-0.2-0.1-0.4-0.2-0.6
				c0-0.1,0-0.3,0-0.4c0-0.2,0-0.3,0-0.5c0-0.2,0-0.4,0-0.5c0-0.1,0-0.3,0-0.4c0-0.2,0.1-0.4,0.2-0.6c0-0.1,0.1-0.2,0.1-0.3
				c0.1-0.2,0.2-0.4,0.3-0.6c0-0.1,0.1-0.2,0.1-0.3c0.1-0.2,0.3-0.4,0.5-0.6c0.1-0.1,0.1-0.1,0.2-0.2l0,0l16.7-16.7c2-2,5.2-2,7.1,0
				c2,2,2,5.2,0,7.1l-8.1,8.1h23.9v0c2.6,0.1,4.8,2.3,4.8,5c0,2.7-2.1,4.9-4.8,5v0H25.9l8.1,8.1c2,2,2,5.2,0,7.1c-2,2-5.2,2-7.1,0
				L10.2,65.9l0,0c-0.1-0.1-0.1-0.1-0.2-0.2C9.8,65.5,9.7,65.3,9.5,65.1z"/>
			<path class="st2" d="M9.3,65.3c-0.1-0.1-0.1-0.2-0.1-0.2c-0.1-0.2-0.2-0.4-0.3-0.6c0-0.1-0.1-0.2-0.1-0.3
				c-0.1-0.2-0.1-0.4-0.2-0.6c0-0.1,0-0.3,0-0.4c0-0.2,0-0.3,0-0.5c0-0.2,0-0.4,0-0.5c0-0.1,0-0.3,0-0.4c0-0.2,0.1-0.4,0.2-0.6
				c0-0.1,0.1-0.2,0.1-0.3c0.1-0.2,0.2-0.4,0.3-0.6c0-0.1,0.1-0.2,0.1-0.3c0.1-0.2,0.3-0.4,0.5-0.6c0.1-0.1,0.1-0.1,0.2-0.2l0,0
				l16.7-16.7c2-2,5.2-2,7.1,0c2,2,2,5.2,0,7.1l-8.1,8.1h23.9v0c2.6,0.1,4.8,2.3,4.8,5c0,2.7-2.1,4.9-4.8,5v0H25.7l8.1,8.1
				c2,2,2,5.2,0,7.1c-2,2-5.2,2-7.1,0L9.9,66.1l0,0c-0.1-0.1-0.1-0.1-0.2-0.2C9.6,65.7,9.4,65.5,9.3,65.3z"/>
			<path class="st2" d="M9,65.6C9,65.5,9,65.4,8.9,65.3c-0.1-0.2-0.2-0.4-0.3-0.6c0-0.1-0.1-0.2-0.1-0.3c-0.1-0.2-0.1-0.4-0.2-0.6
				c0-0.1,0-0.3,0-0.4c0-0.2,0-0.3,0-0.5c0-0.2,0-0.4,0-0.5c0-0.1,0-0.3,0-0.4c0-0.2,0.1-0.4,0.2-0.6c0-0.1,0.1-0.2,0.1-0.3
				c0.1-0.2,0.2-0.4,0.3-0.6C9,60.3,9,60.2,9,60.1c0.1-0.2,0.3-0.4,0.5-0.6c0.1-0.1,0.1-0.1,0.2-0.2l0,0l16.7-16.7c2-2,5.2-2,7.1,0
				c2,2,2,5.2,0,7.1l-8.1,8.1h23.9v0c2.6,0.1,4.8,2.3,4.8,5c0,2.7-2.1,4.9-4.8,5v0H25.4l8.1,8.1c2,2,2,5.2,0,7.1c-2,2-5.2,2-7.1,0
				L9.7,66.4l0,0c-0.1-0.1-0.1-0.1-0.2-0.2C9.4,66,9.2,65.8,9,65.6z"/>
			<path class="st2" d="M8.8,65.8c-0.1-0.1-0.1-0.2-0.1-0.2c-0.1-0.2-0.2-0.4-0.3-0.6c0-0.1-0.1-0.2-0.1-0.3
				c-0.1-0.2-0.1-0.4-0.2-0.6c0-0.1,0-0.3,0-0.4c0-0.2,0-0.3,0-0.5c0-0.2,0-0.4,0-0.5c0-0.1,0-0.3,0-0.4c0-0.2,0.1-0.4,0.2-0.6
				c0-0.1,0.1-0.2,0.1-0.3c0.1-0.2,0.2-0.4,0.3-0.6c0-0.1,0.1-0.2,0.1-0.3c0.1-0.2,0.3-0.4,0.5-0.6c0.1-0.1,0.1-0.1,0.2-0.2l0,0
				l16.7-16.7c2-2,5.2-2,7.1,0c2,2,2,5.2,0,7.1L25.2,58h23.9v0c2.6,0.1,4.8,2.3,4.8,5c0,2.7-2.1,4.9-4.8,5v0H25.2l8.1,8.1
				c2,2,2,5.2,0,7.1c-2,2-5.2,2-7.1,0L9.4,66.6l0,0c-0.1-0.1-0.1-0.1-0.2-0.2C9.1,66.2,8.9,66,8.8,65.8z"/>
			<path class="st2" d="M8.6,66.1c-0.1-0.1-0.1-0.2-0.1-0.2c-0.1-0.2-0.2-0.4-0.3-0.6c0-0.1-0.1-0.2-0.1-0.3
				c-0.1-0.2-0.1-0.4-0.2-0.6c0-0.1,0-0.3,0-0.4c0-0.2,0-0.3,0-0.5c0-0.2,0-0.4,0-0.5c0-0.1,0-0.3,0-0.4C7.9,62.2,8,62,8,61.8
				c0-0.1,0.1-0.2,0.1-0.3c0.1-0.2,0.2-0.4,0.3-0.6c0-0.1,0.1-0.2,0.1-0.3C8.7,60.4,8.9,60.2,9,60c0.1-0.1,0.1-0.1,0.2-0.2l0,0
				l16.7-16.7c2-2,5.2-2,7.1,0c2,2,2,5.2,0,7.1l-8.1,8.1h23.9v0c2.6,0.1,4.8,2.3,4.8,5c0,2.7-2.1,4.9-4.8,5v0H24.9l8.1,8.1
				c2,2,2,5.2,0,7.1c-2,2-5.2,2-7.1,0L9.2,66.8l0,0c-0.1-0.1-0.1-0.1-0.2-0.2C8.9,66.5,8.7,66.3,8.6,66.1z"/>
			<path class="st2" d="M8.3,66.3c-0.1-0.1-0.1-0.2-0.1-0.2c-0.1-0.2-0.2-0.4-0.3-0.6c0-0.1-0.1-0.2-0.1-0.3
				c-0.1-0.2-0.1-0.4-0.2-0.6c0-0.1,0-0.3,0-0.4c0-0.2,0-0.3,0-0.5c0-0.2,0-0.4,0-0.5c0-0.1,0-0.3,0-0.4c0-0.2,0.1-0.4,0.2-0.6
				c0-0.1,0.1-0.2,0.1-0.3c0.1-0.2,0.2-0.4,0.3-0.6c0-0.1,0.1-0.2,0.1-0.3c0.1-0.2,0.3-0.4,0.5-0.6c0.1-0.1,0.1-0.1,0.2-0.2l0,0
				l16.7-16.7c2-2,5.2-2,7.1,0c2,2,2,5.2,0,7.1l-8.1,8.1h23.9v0c2.6,0.1,4.8,2.3,4.8,5c0,2.7-2.1,4.9-4.8,5v0H24.7l8.1,8.1
				c2,2,2,5.2,0,7.1c-2,2-5.2,2-7.1,0L8.9,67.1l0,0C8.9,67,8.8,67,8.8,66.9C8.6,66.7,8.5,66.5,8.3,66.3z"/>
			<path class="st2" d="M8.1,66.5C8,66.5,8,66.4,8,66.3c-0.1-0.2-0.2-0.4-0.3-0.6c0-0.1-0.1-0.2-0.1-0.3c-0.1-0.2-0.1-0.4-0.2-0.6
				c0-0.1,0-0.3,0-0.4c0-0.2,0-0.3,0-0.5c0-0.2,0-0.4,0-0.5c0-0.1,0-0.3,0-0.4c0-0.2,0.1-0.4,0.2-0.6c0-0.1,0.1-0.2,0.1-0.3
				c0.1-0.2,0.2-0.4,0.3-0.6c0-0.1,0.1-0.2,0.1-0.3c0.1-0.2,0.3-0.4,0.5-0.6c0.1-0.1,0.1-0.1,0.2-0.2l0,0l16.7-16.7c2-2,5.2-2,7.1,0
				c2,2,2,5.2,0,7.1l-8.1,8.1h23.9v0c2.6,0.1,4.8,2.3,4.8,5c0,2.7-2.1,4.9-4.8,5v0H24.4l8.1,8.1c2,2,2,5.2,0,7.1c-2,2-5.2,2-7.1,0
				L8.7,67.3l0,0c-0.1-0.1-0.1-0.1-0.2-0.2C8.4,66.9,8.2,66.8,8.1,66.5z"/>
			<path class="st2" d="M7.8,66.8c-0.1-0.1-0.1-0.2-0.1-0.2c-0.1-0.2-0.2-0.4-0.3-0.6c0-0.1-0.1-0.2-0.1-0.3
				c-0.1-0.2-0.1-0.4-0.2-0.6c0-0.1,0-0.3,0-0.4c0-0.2,0-0.3,0-0.5c0-0.2,0-0.4,0-0.5c0-0.1,0-0.3,0-0.4c0-0.2,0.1-0.4,0.2-0.6
				c0-0.1,0.1-0.2,0.1-0.3c0.1-0.2,0.2-0.4,0.3-0.6c0-0.1,0.1-0.2,0.1-0.3c0.1-0.2,0.3-0.4,0.5-0.6c0.1-0.1,0.1-0.1,0.2-0.2l0,0
				l16.7-16.7c2-2,5.2-2,7.1,0c2,2,2,5.2,0,7.1L24.2,59h23.9v0c2.6,0.1,4.8,2.3,4.8,5c0,2.7-2.1,4.9-4.8,5v0H24.2l8.1,8.1
				c2,2,2,5.2,0,7.1c-2,2-5.2,2-7.1,0L8.5,67.6l0,0c-0.1-0.1-0.1-0.1-0.2-0.2C8.1,67.2,8,67,7.8,66.8z"/>
			<path class="st2" d="M7.6,67c-0.1-0.1-0.1-0.2-0.1-0.2c-0.1-0.2-0.2-0.4-0.3-0.6c0-0.1-0.1-0.2-0.1-0.3c-0.1-0.2-0.1-0.4-0.2-0.6
				c0-0.1,0-0.3,0-0.4c0-0.2,0-0.3,0-0.5c0-0.2,0-0.4,0-0.5c0-0.1,0-0.3,0-0.4c0-0.2,0.1-0.4,0.2-0.6c0-0.1,0.1-0.2,0.1-0.3
				c0.1-0.2,0.2-0.4,0.3-0.6c0-0.1,0.1-0.2,0.1-0.3C7.7,61.4,7.9,61.2,8,61c0.1-0.1,0.1-0.1,0.2-0.2l0,0L25,44c2-2,5.2-2,7.1,0
				c2,2,2,5.2,0,7.1L24,59.3h23.9v0c2.6,0.1,4.8,2.3,4.8,5c0,2.7-2.1,4.9-4.8,5v0H24l8.1,8.1c2,2,2,5.2,0,7.1c-2,2-5.2,2-7.1,0
				L8.2,67.8l0,0c-0.1-0.1-0.1-0.1-0.2-0.2C7.9,67.4,7.7,67.2,7.6,67z"/>
			<path class="st2" d="M7.4,67.3c-0.1-0.1-0.1-0.2-0.1-0.2c-0.1-0.2-0.2-0.4-0.3-0.6c0-0.1-0.1-0.2-0.1-0.3
				c-0.1-0.2-0.1-0.4-0.2-0.6c0-0.1,0-0.3,0-0.4c0-0.2,0-0.3,0-0.5c0-0.2,0-0.4,0-0.5c0-0.1,0-0.3,0-0.4c0-0.2,0.1-0.4,0.2-0.6
				c0-0.1,0.1-0.2,0.1-0.3c0.1-0.2,0.2-0.4,0.3-0.6c0-0.1,0.1-0.2,0.1-0.3c0.1-0.2,0.3-0.4,0.5-0.6C7.9,61.2,7.9,61.1,8,61l0,0
				l16.7-16.7c2-2,5.2-2,7.1,0c2,2,2,5.2,0,7.1l-8.1,8.1h23.9v0c2.6,0.1,4.8,2.3,4.8,5c0,2.7-2.1,4.9-4.8,5v0H23.7l8.1,8.1
				c2,2,2,5.2,0,7.1c-2,2-5.2,2-7.1,0L8,68.1l0,0c-0.1-0.1-0.1-0.1-0.2-0.2C7.7,67.7,7.5,67.5,7.4,67.3z"/>
			<path class="st2" d="M7.1,67.5C7.1,67.4,7,67.4,7,67.3c-0.1-0.2-0.2-0.4-0.3-0.6c0-0.1-0.1-0.2-0.1-0.3c-0.1-0.2-0.1-0.4-0.2-0.6
				c0-0.1,0-0.3,0-0.4c0-0.2,0-0.3,0-0.5c0-0.2,0-0.4,0-0.5c0-0.1,0-0.3,0-0.4c0-0.2,0.1-0.4,0.2-0.6c0-0.1,0.1-0.2,0.1-0.3
				c0.1-0.2,0.2-0.4,0.3-0.6c0-0.1,0.1-0.2,0.1-0.3c0.1-0.2,0.3-0.4,0.5-0.6c0.1-0.1,0.1-0.1,0.2-0.2l0,0l16.7-16.7c2-2,5.2-2,7.1,0
				c2,2,2,5.2,0,7.1l-8.1,8.1h23.9v0c2.6,0.1,4.8,2.3,4.8,5c0,2.7-2.1,4.9-4.8,5v0H23.5l8.1,8.1c2,2,2,5.2,0,7.1c-2,2-5.2,2-7.1,0
				L7.7,68.3l0,0c-0.1-0.1-0.1-0.1-0.2-0.2C7.4,67.9,7.2,67.7,7.1,67.5z"/>
			<path class="st2" d="M6.9,67.8c-0.1-0.1-0.1-0.2-0.1-0.2c-0.1-0.2-0.2-0.4-0.3-0.6c0-0.1-0.1-0.2-0.1-0.3
				c-0.1-0.2-0.1-0.4-0.2-0.6c0-0.1,0-0.3,0-0.4c0-0.2,0-0.3,0-0.5c0-0.2,0-0.4,0-0.5c0-0.1,0-0.3,0-0.4c0-0.2,0.1-0.4,0.2-0.6
				c0-0.1,0.1-0.2,0.1-0.3c0.1-0.2,0.2-0.4,0.3-0.6c0-0.1,0.1-0.2,0.1-0.3c0.1-0.2,0.3-0.4,0.5-0.6c0.1-0.1,0.1-0.1,0.2-0.2l0,0
				l16.7-16.7c2-2,5.2-2,7.1,0c2,2,2,5.2,0,7.1L23.2,60h23.9v0c2.6,0.1,4.8,2.3,4.8,5c0,2.7-2.1,4.9-4.8,5v0H23.2l8.1,8.1
				c2,2,2,5.2,0,7.1c-2,2-5.2,2-7.1,0L7.5,68.5l0,0c-0.1-0.1-0.1-0.1-0.2-0.2C7.2,68.2,7,68,6.9,67.8z"/>
			<path class="st2" d="M6.6,68c-0.1-0.1-0.1-0.2-0.1-0.2c-0.1-0.2-0.2-0.4-0.3-0.6c0-0.1-0.1-0.2-0.1-0.3c-0.1-0.2-0.1-0.4-0.2-0.6
				c0-0.1,0-0.3,0-0.4c0-0.2,0-0.3,0-0.5c0-0.2,0-0.4,0-0.5c0-0.1,0-0.3,0-0.4c0-0.2,0.1-0.4,0.2-0.6c0-0.1,0.1-0.2,0.1-0.3
				c0.1-0.2,0.2-0.4,0.3-0.6c0-0.1,0.1-0.2,0.1-0.3c0.1-0.2,0.3-0.4,0.5-0.6c0.1-0.1,0.1-0.1,0.2-0.2l0,0L24,45c2-2,5.2-2,7.1,0
				c2,2,2,5.2,0,7.1L23,60.2h23.9v0c2.6,0.1,4.8,2.3,4.8,5c0,2.7-2.1,4.9-4.8,5v0H23l8.1,8.1c2,2,2,5.2,0,7.1c-2,2-5.2,2-7.1,0
				L7.2,68.8l0,0c-0.1-0.1-0.1-0.1-0.2-0.2C6.9,68.4,6.8,68.2,6.6,68z"/>
			<path class="st2" d="M6.4,68.2c-0.1-0.1-0.1-0.2-0.1-0.2c-0.1-0.2-0.2-0.4-0.3-0.6c0-0.1-0.1-0.2-0.1-0.3
				c-0.1-0.2-0.1-0.4-0.2-0.6c0-0.1,0-0.3,0-0.4c0-0.2,0-0.3,0-0.5c0-0.2,0-0.4,0-0.5c0-0.1,0-0.3,0-0.4c0-0.2,0.1-0.4,0.2-0.6
				c0-0.1,0.1-0.2,0.1-0.3C6,63.4,6.1,63.2,6.2,63c0-0.1,0.1-0.2,0.1-0.3c0.1-0.2,0.3-0.4,0.5-0.6C6.9,62.1,6.9,62.1,7,62l0,0
				l16.7-16.7c2-2,5.2-2,7.1,0c2,2,2,5.2,0,7.1l-8.1,8.1h23.9v0c2.6,0.1,4.8,2.3,4.8,5c0,2.7-2.1,4.9-4.8,5v0H22.8l8.1,8.1
				c2,2,2,5.2,0,7.1c-2,2-5.2,2-7.1,0L7,69l0,0c-0.1-0.1-0.1-0.1-0.2-0.2C6.7,68.6,6.5,68.5,6.4,68.2z"/>
			<path class="st2" d="M6.1,68.5c-0.1-0.1-0.1-0.2-0.1-0.2c-0.1-0.2-0.2-0.4-0.3-0.6c0-0.1-0.1-0.2-0.1-0.3
				c-0.1-0.2-0.1-0.4-0.2-0.6c0-0.1,0-0.3,0-0.4c0-0.2,0-0.3,0-0.5c0-0.2,0-0.4,0-0.5c0-0.1,0-0.3,0-0.4c0-0.2,0.1-0.4,0.2-0.6
				c0-0.1,0.1-0.2,0.1-0.3c0.1-0.2,0.2-0.4,0.3-0.6c0-0.1,0.1-0.2,0.1-0.3c0.1-0.2,0.3-0.4,0.5-0.6c0.1-0.1,0.1-0.1,0.2-0.2l0,0
				l16.7-16.7c2-2,5.2-2,7.1,0c2,2,2,5.2,0,7.1l-8.1,8.1h23.9v0c2.6,0.1,4.8,2.3,4.8,5c0,2.7-2.1,4.9-4.8,5v0H22.5l8.1,8.1
				c2,2,2,5.2,0,7.1c-2,2-5.2,2-7.1,0L6.8,69.3l0,0c-0.1-0.1-0.1-0.1-0.2-0.2C6.4,68.9,6.3,68.7,6.1,68.5z"/>
			<path class="st2" d="M5.9,68.7c-0.1-0.1-0.1-0.2-0.1-0.2c-0.1-0.2-0.2-0.4-0.3-0.6c0-0.1-0.1-0.2-0.1-0.3
				c-0.1-0.2-0.1-0.4-0.2-0.6c0-0.1,0-0.3,0-0.4c0-0.2,0-0.3,0-0.5c0-0.2,0-0.4,0-0.5c0-0.1,0-0.3,0-0.4c0-0.2,0.1-0.4,0.2-0.6
				c0-0.1,0.1-0.2,0.1-0.3c0.1-0.2,0.2-0.4,0.3-0.6c0-0.1,0.1-0.2,0.1-0.3C6,63,6.2,62.9,6.4,62.7c0.1-0.1,0.1-0.1,0.2-0.2l0,0
				l16.7-16.7c2-2,5.2-2,7.1,0c2,2,2,5.2,0,7.1L22.3,61h23.9v0c2.6,0.1,4.8,2.3,4.8,5c0,2.7-2.1,4.9-4.8,5v0H22.3l8.1,8.1
				c2,2,2,5.2,0,7.1c-2,2-5.2,2-7.1,0L6.5,69.5l0,0c-0.1-0.1-0.1-0.1-0.2-0.2C6.2,69.1,6,68.9,5.9,68.7z"/>
			<path class="st2" d="M5.7,69c-0.1-0.1-0.1-0.2-0.1-0.2c-0.1-0.2-0.2-0.4-0.3-0.6c0-0.1-0.1-0.2-0.1-0.3C5,67.6,5,67.4,4.9,67.2
				c0-0.1,0-0.3,0-0.4c0-0.2,0-0.3,0-0.5c0-0.2,0-0.4,0-0.5c0-0.1,0-0.3,0-0.4c0-0.2,0.1-0.4,0.2-0.6c0-0.1,0.1-0.2,0.1-0.3
				c0.1-0.2,0.2-0.4,0.3-0.6c0-0.1,0.1-0.2,0.1-0.3c0.1-0.2,0.3-0.4,0.5-0.6c0.1-0.1,0.1-0.1,0.2-0.2l0,0L23,46c2-2,5.2-2,7.1,0
				c2,2,2,5.2,0,7.1L22,61.2H46v0c2.6,0.1,4.8,2.3,4.8,5c0,2.7-2.1,4.9-4.8,5v0H22l8.1,8.1c2,2,2,5.2,0,7.1c-2,2-5.2,2-7.1,0
				L6.3,69.7l0,0c-0.1-0.1-0.1-0.1-0.2-0.2C6,69.4,5.8,69.2,5.7,69z"/>
			<path class="st2" d="M5.4,69.2c-0.1-0.1-0.1-0.2-0.1-0.2C5.2,68.8,5,68.6,5,68.3c0-0.1-0.1-0.2-0.1-0.3c-0.1-0.2-0.1-0.4-0.2-0.6
				c0-0.1,0-0.3,0-0.4c0-0.2,0-0.3,0-0.5c0-0.2,0-0.4,0-0.5c0-0.1,0-0.3,0-0.4c0-0.2,0.1-0.4,0.2-0.6c0-0.1,0.1-0.2,0.1-0.3
				C5,64.4,5.2,64.2,5.3,64c0-0.1,0.1-0.2,0.1-0.3c0.1-0.2,0.3-0.4,0.5-0.6C5.9,63.1,6,63,6,63l0,0l16.7-16.7c2-2,5.2-2,7.1,0
				c2,2,2,5.2,0,7.1l-8.1,8.1h23.9v0c2.6,0.1,4.8,2.3,4.8,5c0,2.7-2.1,4.9-4.8,5v0H21.8l8.1,8.1c2,2,2,5.2,0,7.1c-2,2-5.2,2-7.1,0
				L6,70l0,0c-0.1-0.1-0.1-0.1-0.2-0.2C5.7,69.6,5.5,69.4,5.4,69.2z"/>
			<path class="st2" d="M5.2,69.5c-0.1-0.1-0.1-0.2-0.1-0.2c-0.1-0.2-0.2-0.4-0.3-0.6c0-0.1-0.1-0.2-0.1-0.3
				c-0.1-0.2-0.1-0.4-0.2-0.6c0-0.1,0-0.3,0-0.4c0-0.2,0-0.3,0-0.5c0-0.2,0-0.4,0-0.5c0-0.1,0-0.3,0-0.4c0-0.2,0.1-0.4,0.2-0.6
				c0-0.1,0.1-0.2,0.1-0.3c0.1-0.2,0.2-0.4,0.3-0.6c0-0.1,0.1-0.2,0.1-0.3c0.1-0.2,0.3-0.4,0.5-0.6c0.1-0.1,0.1-0.1,0.2-0.2l0,0
				l16.7-16.7c2-2,5.2-2,7.1,0c2,2,2,5.2,0,7.1l-8.1,8.1h23.9v0c2.6,0.1,4.8,2.3,4.8,5c0,2.7-2.1,4.9-4.8,5v0H21.5l8.1,8.1
				c2,2,2,5.2,0,7.1c-2,2-5.2,2-7.1,0L5.8,70.2l0,0c-0.1-0.1-0.1-0.1-0.2-0.2C5.5,69.8,5.3,69.7,5.2,69.5z"/>
			<path class="st2" d="M4.9,69.7c-0.1-0.1-0.1-0.2-0.1-0.2c-0.1-0.2-0.2-0.4-0.3-0.6c0-0.1-0.1-0.2-0.1-0.3
				c-0.1-0.2-0.1-0.4-0.2-0.6c0-0.1,0-0.3,0-0.4c0-0.2,0-0.3,0-0.5c0-0.2,0-0.4,0-0.5c0-0.1,0-0.3,0-0.4c0-0.2,0.1-0.4,0.2-0.6
				c0-0.1,0.1-0.2,0.1-0.3c0.1-0.2,0.2-0.4,0.3-0.6c0-0.1,0.1-0.2,0.1-0.3c0.1-0.2,0.3-0.4,0.5-0.6c0.1-0.1,0.1-0.1,0.2-0.2l0,0
				l16.7-16.7c2-2,5.2-2,7.1,0c2,2,2,5.2,0,7.1l-8.1,8.1h23.9v0c2.6,0.1,4.8,2.3,4.8,5c0,2.7-2.1,4.9-4.8,5v0H21.3l8.1,8.1
				c2,2,2,5.2,0,7.1c-2,2-5.2,2-7.1,0L5.6,70.5l0,0c-0.1-0.1-0.1-0.1-0.2-0.2C5.2,70.1,5.1,69.9,4.9,69.7z"/>
			<path class="st2" d="M4.7,69.9c-0.1-0.1-0.1-0.2-0.1-0.2c-0.1-0.2-0.2-0.4-0.3-0.6c0-0.1-0.1-0.2-0.1-0.3C4.1,68.6,4,68.4,4,68.1
				c0-0.1,0-0.3,0-0.4c0-0.2,0-0.3,0-0.5c0-0.2,0-0.4,0-0.5c0-0.1,0-0.3,0-0.4c0-0.2,0.1-0.4,0.2-0.6c0-0.1,0.1-0.2,0.1-0.3
				c0.1-0.2,0.2-0.4,0.3-0.6c0-0.1,0.1-0.2,0.1-0.3c0.1-0.2,0.3-0.4,0.5-0.6c0.1-0.1,0.1-0.1,0.2-0.2l0,0l16.7-16.7c2-2,5.2-2,7.1,0
				c2,2,2,5.2,0,7.1l-8.1,8.1H45v0c2.6,0.1,4.8,2.3,4.8,5c0,2.7-2.1,4.9-4.8,5v0H21.1l8.1,8.1c2,2,2,5.2,0,7.1c-2,2-5.2,2-7.1,0
				L5.3,70.7l0,0c-0.1-0.1-0.1-0.1-0.2-0.2C5,70.3,4.8,70.1,4.7,69.9z"/>
			<path class="st2" d="M4.4,70.2c-0.1-0.1-0.1-0.2-0.1-0.2c-0.1-0.2-0.2-0.4-0.3-0.6c0-0.1-0.1-0.2-0.1-0.3
				c-0.1-0.2-0.1-0.4-0.2-0.6c0-0.1,0-0.3,0-0.4c0-0.2,0-0.3,0-0.5c0-0.2,0-0.4,0-0.5c0-0.1,0-0.3,0-0.4c0-0.2,0.1-0.4,0.2-0.6
				c0-0.1,0.1-0.2,0.1-0.3c0.1-0.2,0.2-0.4,0.3-0.6c0-0.1,0.1-0.2,0.1-0.3c0.1-0.2,0.3-0.4,0.5-0.6C5,64.1,5,64,5.1,63.9l0,0
				l16.7-16.7c2-2,5.2-2,7.1,0c2,2,2,5.2,0,7.1l-8.1,8.1h23.9v0c2.6,0.1,4.8,2.3,4.8,5c0,2.7-2.1,4.9-4.8,5v0H20.8l8.1,8.1
				c2,2,2,5.2,0,7.1c-2,2-5.2,2-7.1,0L5.1,71l0,0C5,70.9,5,70.8,4.9,70.8C4.7,70.6,4.6,70.4,4.4,70.2z"/>
			<path class="st2" d="M4.2,70.4c-0.1-0.1-0.1-0.2-0.1-0.2C4,70,3.8,69.8,3.8,69.6c0-0.1-0.1-0.2-0.1-0.3c-0.1-0.2-0.1-0.4-0.2-0.6
				c0-0.1,0-0.3,0-0.4c0-0.2,0-0.3,0-0.5c0-0.2,0-0.4,0-0.5c0-0.1,0-0.3,0-0.4c0-0.2,0.1-0.4,0.2-0.6c0-0.1,0.1-0.2,0.1-0.3
				c0.1-0.2,0.2-0.4,0.3-0.6c0-0.1,0.1-0.2,0.1-0.3c0.1-0.2,0.3-0.4,0.5-0.6c0.1-0.1,0.1-0.1,0.2-0.2l0,0l16.7-16.7c2-2,5.2-2,7.1,0
				c2,2,2,5.2,0,7.1l-8.1,8.1h23.9v0c2.6,0.1,4.8,2.3,4.8,5c0,2.7-2.1,4.9-4.8,5v0H20.6l8.1,8.1c2,2,2,5.2,0,7.1c-2,2-5.2,2-7.1,0
				L4.8,71.2l0,0c-0.1-0.1-0.1-0.1-0.2-0.2C4.5,70.8,4.3,70.6,4.2,70.4z"/>
			<path class="st2" d="M4,70.7c-0.1-0.1-0.1-0.2-0.1-0.2c-0.1-0.2-0.2-0.4-0.3-0.6c0-0.1-0.1-0.2-0.1-0.3c-0.1-0.2-0.1-0.4-0.2-0.6
				c0-0.1,0-0.3,0-0.4c0-0.2,0-0.3,0-0.5c0-0.2,0-0.4,0-0.5c0-0.1,0-0.3,0-0.4c0-0.2,0.1-0.4,0.2-0.6c0-0.1,0.1-0.2,0.1-0.3
				c0.1-0.2,0.2-0.4,0.3-0.6c0-0.1,0.1-0.2,0.1-0.3c0.1-0.2,0.3-0.4,0.5-0.6c0.1-0.1,0.1-0.1,0.2-0.2l0,0l16.7-16.7c2-2,5.2-2,7.1,0
				c2,2,2,5.2,0,7.1l-8.1,8.1h23.9v0c2.6,0.1,4.8,2.3,4.8,5c0,2.7-2.1,4.9-4.8,5v0H20.3l8.1,8.1c2,2,2,5.2,0,7.1c-2,2-5.2,2-7.1,0
				L4.6,71.4l0,0c-0.1-0.1-0.1-0.1-0.2-0.2C4.3,71.1,4.1,70.9,4,70.7z"/>
			<path class="st2" d="M3.7,70.9c-0.1-0.1-0.1-0.2-0.1-0.2c-0.1-0.2-0.2-0.4-0.3-0.6c0-0.1-0.1-0.2-0.1-0.3C3.1,69.5,3,69.3,3,69.1
				c0-0.1,0-0.3,0-0.4c0-0.2,0-0.3,0-0.5c0-0.2,0-0.4,0-0.5c0-0.1,0-0.3,0-0.4c0-0.2,0.1-0.4,0.2-0.6c0-0.1,0.1-0.2,0.1-0.3
				c0.1-0.2,0.2-0.4,0.3-0.6c0-0.1,0.1-0.2,0.1-0.3C3.9,65.2,4,65,4.2,64.9c0.1-0.1,0.1-0.1,0.2-0.2l0,0l16.7-16.7c2-2,5.2-2,7.1,0
				c2,2,2,5.2,0,7.1l-8.1,8.1H44v0c2.6,0.1,4.8,2.3,4.8,5c0,2.7-2.1,4.9-4.8,5v0H20.1l8.1,8.1c2,2,2,5.2,0,7.1c-2,2-5.2,2-7.1,0
				L4.3,71.7l0,0c-0.1-0.1-0.1-0.1-0.2-0.2C4,71.3,3.9,71.1,3.7,70.9z"/>
			<path class="st2" d="M3.5,71.2c-0.1-0.1-0.1-0.2-0.1-0.2c-0.1-0.2-0.2-0.4-0.3-0.6C3,70.2,3,70.1,2.9,70
				c-0.1-0.2-0.1-0.4-0.2-0.6c0-0.1,0-0.3,0-0.4c0-0.2,0-0.3,0-0.5c0-0.2,0-0.4,0-0.5c0-0.1,0-0.3,0-0.4c0-0.2,0.1-0.4,0.2-0.6
				C3,66.8,3,66.6,3,66.5c0.1-0.2,0.2-0.4,0.3-0.6c0-0.1,0.1-0.2,0.1-0.3c0.1-0.2,0.3-0.4,0.5-0.6C4,65,4,65,4.1,64.9l0,0l16.7-16.7
				c2-2,5.2-2,7.1,0c2,2,2,5.2,0,7.1l-8.1,8.1h23.9v0c2.6,0.1,4.8,2.3,4.8,5c0,2.7-2.1,4.9-4.8,5v0H19.8l8.1,8.1c2,2,2,5.2,0,7.1
				c-2,2-5.2,2-7.1,0L4.1,71.9l0,0C4,71.9,4,71.8,3.9,71.7C3.8,71.5,3.6,71.4,3.5,71.2z"/>
			<path class="st2" d="M3.2,71.4c-0.1-0.1-0.1-0.2-0.1-0.2c-0.1-0.2-0.2-0.4-0.3-0.6c0-0.1-0.1-0.2-0.1-0.3
				c-0.1-0.2-0.1-0.4-0.2-0.6c0-0.1,0-0.3,0-0.4c0-0.2,0-0.3,0-0.5c0-0.2,0-0.4,0-0.5c0-0.1,0-0.3,0-0.4c0-0.2,0.1-0.4,0.2-0.6
				c0-0.1,0.1-0.2,0.1-0.3c0.1-0.2,0.2-0.4,0.3-0.6c0-0.1,0.1-0.2,0.1-0.3c0.1-0.2,0.3-0.4,0.5-0.6c0.1-0.1,0.1-0.1,0.2-0.2l0,0
				l16.7-16.7c2-2,5.2-2,7.1,0c2,2,2,5.2,0,7.1l-8.1,8.1h23.9v0c2.6,0.1,4.8,2.3,4.8,5c0,2.7-2.1,4.9-4.8,5v0H19.6l8.1,8.1
				c2,2,2,5.2,0,7.1c-2,2-5.2,2-7.1,0L3.9,72.2l0,0C3.8,72.1,3.8,72,3.7,72C3.5,71.8,3.4,71.6,3.2,71.4z"/>
			<path class="st2" d="M3,71.6c-0.1-0.1-0.1-0.2-0.1-0.2c-0.1-0.2-0.2-0.4-0.3-0.6c0-0.1-0.1-0.2-0.1-0.3c-0.1-0.2-0.1-0.4-0.2-0.6
				c0-0.1,0-0.3,0-0.4c0-0.2,0-0.3,0-0.5c0-0.2,0-0.4,0-0.5c0-0.1,0-0.3,0-0.4c0-0.2,0.1-0.4,0.2-0.6c0-0.1,0.1-0.2,0.1-0.3
				c0.1-0.2,0.2-0.4,0.3-0.6c0-0.1,0.1-0.2,0.1-0.3c0.1-0.2,0.3-0.4,0.5-0.6c0.1-0.1,0.1-0.1,0.2-0.2l0,0l16.7-16.7c2-2,5.2-2,7.1,0
				c2,2,2,5.2,0,7.1l-8.1,8.1h23.9v0c2.6,0.1,4.8,2.3,4.8,5c0,2.7-2.1,4.9-4.8,5v0H19.4l8.1,8.1c2,2,2,5.2,0,7.1c-2,2-5.2,2-7.1,0
				L3.6,72.4l0,0c-0.1-0.1-0.1-0.1-0.2-0.2C3.3,72,3.1,71.8,3,71.6z"/>
			<path class="st2" d="M2.7,71.9c-0.1-0.1-0.1-0.2-0.1-0.2c-0.1-0.2-0.2-0.4-0.3-0.6c0-0.1-0.1-0.2-0.1-0.3
				c-0.1-0.2-0.1-0.4-0.2-0.6c0-0.1,0-0.3,0-0.4c0-0.2,0-0.3,0-0.5c0-0.2,0-0.4,0-0.5c0-0.1,0-0.3,0-0.4c0-0.2,0.1-0.4,0.2-0.6
				c0-0.1,0.1-0.2,0.1-0.3c0.1-0.2,0.2-0.4,0.3-0.6c0-0.1,0.1-0.2,0.1-0.3C2.9,66.2,3,66,3.2,65.8c0.1-0.1,0.1-0.1,0.2-0.2l0,0
				l16.7-16.7c2-2,5.2-2,7.1,0c2,2,2,5.2,0,7.1l-8.1,8.1h23.9v0c2.6,0.1,4.8,2.3,4.8,5c0,2.7-2.1,4.9-4.8,5v0H19.1l8.1,8.1
				c2,2,2,5.2,0,7.1c-2,2-5.2,2-7.1,0L3.4,72.7l0,0c-0.1-0.1-0.1-0.1-0.2-0.2C3.1,72.3,2.9,72.1,2.7,71.9z"/>
			<path class="st2" d="M2.5,72.1C2.5,72,2.4,72,2.4,71.9c-0.1-0.2-0.2-0.4-0.3-0.6C2,71.1,2,71,2,70.9c-0.1-0.2-0.1-0.4-0.2-0.6
				c0-0.1,0-0.3,0-0.4c0-0.2,0-0.3,0-0.5c0-0.2,0-0.4,0-0.5c0-0.1,0-0.3,0-0.4c0-0.2,0.1-0.4,0.2-0.6c0-0.1,0.1-0.2,0.1-0.3
				c0.1-0.2,0.2-0.4,0.3-0.6c0-0.1,0.1-0.2,0.1-0.3c0.1-0.2,0.3-0.4,0.5-0.6C3,66,3.1,65.9,3.1,65.9l0,0l16.7-16.7c2-2,5.2-2,7.1,0
				c2,2,2,5.2,0,7.1l-8.1,8.1h23.9v0c2.6,0.1,4.8,2.3,4.8,5c0,2.7-2.1,4.9-4.8,5v0H18.9l8.1,8.1c2,2,2,5.2,0,7.1c-2,2-5.2,2-7.1,0
				L3.1,72.9l0,0C3.1,72.8,3,72.8,3,72.7C2.8,72.5,2.6,72.3,2.5,72.1z"/>
			<path class="st2" d="M2.3,72.4c-0.1-0.1-0.1-0.2-0.1-0.2c-0.1-0.2-0.2-0.4-0.3-0.6c0-0.1-0.1-0.2-0.1-0.3
				c-0.1-0.2-0.1-0.4-0.2-0.6c0-0.1,0-0.3,0-0.4c0-0.2,0-0.3,0-0.5c0-0.2,0-0.4,0-0.5c0-0.1,0-0.3,0-0.4c0-0.2,0.1-0.4,0.2-0.6
				c0-0.1,0.1-0.2,0.1-0.3c0.1-0.2,0.2-0.4,0.3-0.6c0-0.1,0.1-0.2,0.1-0.3c0.1-0.2,0.3-0.4,0.5-0.6c0.1-0.1,0.1-0.1,0.2-0.2l0,0
				l16.7-16.7c2-2,5.2-2,7.1,0c2,2,2,5.2,0,7.1l-8.1,8.1h23.9v0c2.6,0.1,4.8,2.3,4.8,5c0,2.7-2.1,4.9-4.8,5v0H18.6l8.1,8.1
				c2,2,2,5.2,0,7.1c-2,2-5.2,2-7.1,0L2.9,73.1l0,0c-0.1-0.1-0.1-0.1-0.2-0.2C2.6,72.8,2.4,72.6,2.3,72.4z"/>
			<path class="st2" d="M2,72.6c-0.1-0.1-0.1-0.2-0.1-0.2c-0.1-0.2-0.2-0.4-0.3-0.6c0-0.1-0.1-0.2-0.1-0.3c-0.1-0.2-0.1-0.4-0.2-0.6
				c0-0.1,0-0.3,0-0.4c0-0.2,0-0.3,0-0.5c0-0.2,0-0.4,0-0.5c0-0.1,0-0.3,0-0.4c0-0.2,0.1-0.4,0.2-0.6c0-0.1,0.1-0.2,0.1-0.3
				c0.1-0.2,0.2-0.4,0.3-0.6c0-0.1,0.1-0.2,0.1-0.3c0.1-0.2,0.3-0.4,0.5-0.6c0.1-0.1,0.1-0.1,0.2-0.2l0,0l16.7-16.7c2-2,5.2-2,7.1,0
				c2,2,2,5.2,0,7.1l-8.1,8.1h23.9v0c2.6,0.1,4.8,2.3,4.8,5c0,2.7-2.1,4.9-4.8,5v0H18.4l8.1,8.1c2,2,2,5.2,0,7.1c-2,2-5.2,2-7.1,0
				L2.6,73.4l0,0c-0.1-0.1-0.1-0.1-0.2-0.2C2.3,73,2.2,72.8,2,72.6z"/>
			<path class="st2" d="M1.8,72.8c-0.1-0.1-0.1-0.2-0.1-0.2c-0.1-0.2-0.2-0.4-0.3-0.6c0-0.1-0.1-0.2-0.1-0.3
				c-0.1-0.2-0.1-0.4-0.2-0.6c0-0.1,0-0.3,0-0.4c0-0.2,0-0.3,0-0.5c0-0.2,0-0.4,0-0.5c0-0.1,0-0.3,0-0.4c0-0.2,0.1-0.4,0.2-0.6
				c0-0.1,0.1-0.2,0.1-0.3c0.1-0.2,0.2-0.4,0.3-0.6c0-0.1,0.1-0.2,0.1-0.3c0.1-0.2,0.3-0.4,0.5-0.6c0.1-0.1,0.1-0.1,0.2-0.2l0,0
				l16.7-16.7c2-2,5.2-2,7.1,0c2,2,2,5.2,0,7.1l-8.1,8.1h23.9v0c2.6,0.1,4.8,2.3,4.8,5c0,2.7-2.1,4.9-4.8,5v0H18.1l8.1,8.1
				c2,2,2,5.2,0,7.1c-2,2-5.2,2-7.1,0L2.4,73.6l0,0c-0.1-0.1-0.1-0.1-0.2-0.2C2.1,73.2,1.9,73.1,1.8,72.8z"/>
			<path class="st2" d="M1.5,73.1c-0.1-0.1-0.1-0.2-0.1-0.2c-0.1-0.2-0.2-0.4-0.3-0.6C1,72.1,1,72,1,71.9c-0.1-0.2-0.1-0.4-0.2-0.6
				c0-0.1,0-0.3,0-0.4c0-0.2,0-0.3,0-0.5c0-0.2,0-0.4,0-0.5c0-0.1,0-0.3,0-0.4c0-0.2,0.1-0.4,0.2-0.6c0-0.1,0.1-0.2,0.1-0.3
				c0.1-0.2,0.2-0.4,0.3-0.6c0-0.1,0.1-0.2,0.1-0.3C1.7,67.4,1.8,67.2,2,67c0.1-0.1,0.1-0.1,0.2-0.2l0,0l16.7-16.7c2-2,5.2-2,7.1,0
				c2,2,2,5.2,0,7.1l-8.1,8.1h23.9v0c2.6,0.1,4.8,2.3,4.8,5c0,2.7-2.1,4.9-4.8,5v0H17.9l8.1,8.1c2,2,2,5.2,0,7.1c-2,2-5.2,2-7.1,0
				L2.2,73.9l0,0c-0.1-0.1-0.1-0.1-0.2-0.2C1.8,73.5,1.7,73.3,1.5,73.1z"/>
			<path class="st2" d="M1.3,73.3c-0.1-0.1-0.1-0.2-0.1-0.2c-0.1-0.2-0.2-0.4-0.3-0.6c0-0.1-0.1-0.2-0.1-0.3
				c-0.1-0.2-0.1-0.4-0.2-0.6c0-0.1,0-0.3,0-0.4c0-0.2,0-0.3,0-0.5c0-0.2,0-0.4,0-0.5c0-0.1,0-0.3,0-0.4c0-0.2,0.1-0.4,0.2-0.6
				c0-0.1,0.1-0.2,0.1-0.3c0.1-0.2,0.2-0.4,0.3-0.6c0-0.1,0.1-0.2,0.1-0.3c0.1-0.2,0.3-0.4,0.5-0.6c0.1-0.1,0.1-0.1,0.2-0.2l0,0
				l16.7-16.7c2-2,5.2-2,7.1,0c2,2,2,5.2,0,7.1l-8.1,8.1h23.9v0c2.6,0.1,4.8,2.3,4.8,5c0,2.7-2.1,4.9-4.8,5v0H17.7l8.1,8.1
				c2,2,2,5.2,0,7.1c-2,2-5.2,2-7.1,0L1.9,74.1l0,0C1.9,74,1.8,74,1.8,73.9C1.6,73.7,1.4,73.5,1.3,73.3z"/>
			<path class="st2" d="M1.1,73.6C1,73.5,1,73.4,0.9,73.3c-0.1-0.2-0.2-0.4-0.3-0.6c0-0.1-0.1-0.2-0.1-0.3c-0.1-0.2-0.1-0.4-0.2-0.6
				c0-0.1,0-0.3,0-0.4c0-0.2,0-0.3,0-0.5c0-0.2,0-0.4,0-0.5c0-0.1,0-0.3,0-0.4c0-0.2,0.1-0.4,0.2-0.6c0-0.1,0.1-0.2,0.1-0.3
				c0.1-0.2,0.2-0.4,0.3-0.6c0-0.1,0.1-0.2,0.1-0.3c0.1-0.2,0.3-0.4,0.5-0.6c0.1-0.1,0.1-0.1,0.2-0.2l0,0l16.7-16.7c2-2,5.2-2,7.1,0
				c2,2,2,5.2,0,7.1l-8.1,8.1h23.9v0c2.6,0.1,4.8,2.3,4.8,5c0,2.7-2.1,4.9-4.8,5v0H17.4l8.1,8.1c2,2,2,5.2,0,7.1c-2,2-5.2,2-7.1,0
				L1.7,74.4l0,0c-0.1-0.1-0.1-0.1-0.2-0.2C1.4,74,1.2,73.8,1.1,73.6z"/>
			<path class="st2" d="M0.8,73.8c-0.1-0.1-0.1-0.2-0.1-0.2c-0.1-0.2-0.2-0.4-0.3-0.6c0-0.1-0.1-0.2-0.1-0.3
				c-0.1-0.2-0.1-0.4-0.2-0.6c0-0.1,0-0.3,0-0.4c0-0.2,0-0.3,0-0.5c0-0.2,0-0.4,0-0.5c0-0.1,0-0.3,0-0.4c0-0.2,0.1-0.4,0.2-0.6
				c0-0.1,0.1-0.2,0.1-0.3c0.1-0.2,0.2-0.4,0.3-0.6c0-0.1,0.1-0.2,0.1-0.3c0.1-0.2,0.3-0.4,0.5-0.6c0.1-0.1,0.1-0.1,0.2-0.2l0,0
				l16.7-16.7c2-2,5.2-2,7.1,0c2,2,2,5.2,0,7.1L17.2,66h23.9v0c2.6,0.1,4.8,2.3,4.8,5c0,2.7-2.1,4.9-4.8,5v0H17.2l8.1,8.1
				c2,2,2,5.2,0,7.1c-2,2-5.2,2-7.1,0L1.4,74.6l0,0c-0.1-0.1-0.1-0.1-0.2-0.2C1.1,74.2,0.9,74,0.8,73.8z"/>
		</g>
		<path class="st3" d="M37.4,37.2c-0.1-0.1-0.1-0.2-0.1-0.2c-0.1-0.2-0.2-0.4-0.3-0.6c0-0.1-0.1-0.2-0.1-0.3
			c-0.1-0.2-0.1-0.4-0.2-0.6c0-0.1,0-0.3,0-0.4c0-0.2,0-0.3,0-0.5c0-0.2,0-0.4,0-0.5c0-0.1,0-0.3,0-0.4c0-0.2,0.1-0.4,0.2-0.6
			c0-0.1,0.1-0.2,0.1-0.3c0.1-0.2,0.2-0.4,0.3-0.6c0-0.1,0.1-0.2,0.1-0.3c0.1-0.2,0.3-0.4,0.5-0.6C37.9,31.1,38,31,38,31l0,0
			l16.7-16.7c2-2,5.2-2,7.1,0c2,2,2,5.2,0,7.1l-8.1,8.1h23.9v0c2.6,0.1,4.8,2.3,4.8,5c0,2.7-2.1,4.9-4.8,5v0H53.8l8.1,8.1
			c2,2,2,5.2,0,7.1c-2,2-5.2,2-7.1,0L38,38l0,0c-0.1-0.1-0.1-0.1-0.2-0.2C37.7,37.6,37.5,37.4,37.4,37.2z"/>
	</g>
</g>
</svg>
