<!-- Generator: Adobe Illustrator 20.1.0, SVG Export Plug-In  -->
<svg version="1.1"
	 xmlns="http://www.w3.org/2000/svg" xmlns:xlink="http://www.w3.org/1999/xlink" xmlns:a="http://ns.adobe.com/AdobeSVGViewerExtensions/3.0/"
	 x="0px" y="0px" width="169.2px" height="42.5px" viewBox="0 0 169.2 42.5"
	 style="overflow:scroll;enable-background:new 0 0 169.2 42.5;" xml:space="preserve">
<style type="text/css">
	.st0{fill:#009ABF;}
</style>
<defs>
</defs>
<g>
	<g>
		<path class="st0" d="M0.6,1.5H5c5.2,0,8,2.8,8,8.4c0,5.6-3.4,8.4-8,8.4H0.6V1.5z M3.7,15.9h1c3.5,0,5-2.4,5-6c0-3.7-1.6-6-5-6h-1
			V15.9z"/>
		<path class="st0" d="M15.5,0.7h3.1v2.9h-3.1V0.7z M15.5,5.9h3v12.4h-3V5.9z"/>
		<path class="st0" d="M22.2,8.1h-2.1V5.9h2.1V3.4C22.2,1.6,23,0,25.7,0c0.8,0,1.6,0.2,2.1,0.3l-0.1,2.2c-0.4-0.1-0.7-0.2-1.2-0.2
			c-0.9,0-1.4,0.6-1.4,1.5v2.1h2.3v2.2h-2.3v10.2h-3V8.1z M29,0.7h3.1v2.9H29V0.7z M29,5.9h3v12.4h-3V5.9z"/>
		<path class="st0" d="M43.2,18c-0.7,0.3-1.7,0.5-2.9,0.5c-4.1,0-5.8-2.9-5.8-6.4c0-3.5,1.8-6.4,6-6.4c0.9,0,2,0.3,2.6,0.5l-0.2,2.4
			C42.3,8.3,41.5,8,40.7,8c-2.3,0-3.2,1.5-3.2,4.2c0,2.3,1.1,4.1,3.4,4.1c0.7,0,1.7-0.3,2.1-0.6L43.2,18z"/>
		<path class="st0" d="M54.5,16.3c0,0.8,0,1.5,0.1,2h-2.8c0-0.6-0.1-1.3-0.1-1.9l-0.1,0l0,0c-0.6,0.9-1.3,2.1-3.3,2.1
			c-2.8,0-3.6-2.1-3.6-4.6v-8h3v7.4c0,1.9,0.5,2.7,1.8,2.7c1.6,0,2-1.4,2-3V5.9h3V16.3z"/>
		<path class="st0" d="M57.2,0.3h3v18h-3V0.3z"/>
		<path class="st0" d="M64.1,3.4l3-0.9v3.5h2.5v2.2H67v6.4c0,1.3,0.5,1.7,1.3,1.7c0.5,0,0.9-0.1,1.1-0.3v2.1c-0.5,0.2-1.1,0.4-2,0.4
			c-2.2,0-3.5-1-3.5-3.6V8.1h-2V5.9h2V3.4z"/>
		<path class="st0" d="M71.8,6.6c0.8-0.4,2-0.9,3.9-0.9c3.8,0,4.7,1.9,4.7,5v5.4c0,0.9,0.1,1.7,0.2,2.2h-2.7
			c-0.1-0.5-0.2-1.1-0.2-1.7h0c-0.7,1-1.7,1.9-3.5,1.9c-1.9,0-3.7-1.3-3.7-3.6c0-3.4,2.7-4.2,6.5-4.2h0.6v-0.5
			c0-1.2-0.6-2.4-2.3-2.4c-1.5,0-2.8,0.7-3.4,1.2L71.8,6.6z M77.6,12.2h-0.3c-2.5,0-4.1,0.5-4.1,2.3c0,1.1,0.7,1.9,1.9,1.9
			c1.8,0,2.4-1.3,2.4-3.5V12.2z"/>
		<path class="st0" d="M93.1,0.3v15.9c0,0.9,0,1.7,0.1,2.1h-2.8c0-0.4-0.1-1.1-0.1-1.9h-0.1c-0.5,1.1-1.4,2.1-3.3,2.1
			c-3.1,0-4.3-2.9-4.3-6.4c0-4,1.6-6.4,4.3-6.4c1.8,0,2.8,1,3.2,2h0V0.3H93.1z M87.7,16.3c1.8,0,2.4-1.9,2.4-4.2
			c0-2.4-0.7-4.2-2.3-4.2c-1.7,0-2.2,1.6-2.2,4.1C85.6,14.9,86,16.3,87.7,16.3z"/>
		<path class="st0" d="M101.6,8c0-0.9,0-1.7-0.1-2.1h2.8c0,0.4,0.1,1.1,0.1,1.9h0.1c0.5-1.1,1.4-2.1,3.3-2.1c3.1,0,4.3,2.9,4.3,6.4
			c0,4-1.6,6.4-4.3,6.4c-1.8,0-2.8-1-3.2-2h0v7h-3V8z M106.9,16.3c1.7,0,2.2-1.6,2.2-4.1c0-2.9-0.5-4.3-2.2-4.3
			c-1.8,0-2.4,1.9-2.4,4.2C104.6,14.5,105.3,16.3,106.9,16.3z"/>
		<path class="st0" d="M114.8,6.6c0.8-0.4,2-0.9,3.9-0.9c3.8,0,4.7,1.9,4.7,5v5.4c0,0.9,0.1,1.7,0.2,2.2h-2.7
			c-0.1-0.5-0.2-1.1-0.2-1.7h0c-0.7,1-1.7,1.9-3.5,1.9c-1.9,0-3.7-1.3-3.7-3.6c0-3.4,2.7-4.2,6.5-4.2h0.6v-0.5
			c0-1.2-0.6-2.4-2.3-2.4c-1.5,0-2.8,0.7-3.4,1.2L114.8,6.6z M120.7,12.2h-0.3c-2.5,0-4.1,0.5-4.1,2.3c0,1.1,0.7,1.9,1.9,1.9
			c1.8,0,2.4-1.3,2.4-3.5V12.2z"/>
		<path class="st0" d="M126.1,8c0-0.8,0-1.5-0.1-2h2.7c0,0.7,0.1,1.5,0.1,2.3h0c0.4-1,1.3-2.4,3.1-2.4c0.2,0,0.3,0,0.5,0.1v2.8
			c-0.3-0.1-0.5-0.1-0.8-0.1c-1.2,0-2.6,0.7-2.6,3v6.8h-3V8z"/>
		<path class="st0" d="M134.5,6.6c0.8-0.4,2-0.9,3.9-0.9c3.8,0,4.7,1.9,4.7,5v5.4c0,0.9,0.1,1.7,0.2,2.2h-2.7
			c-0.1-0.5-0.2-1.1-0.2-1.7h0c-0.7,1-1.7,1.9-3.5,1.9c-1.9,0-3.7-1.3-3.7-3.6c0-3.4,2.7-4.2,6.5-4.2h0.6v-0.5
			c0-1.2-0.6-2.4-2.3-2.4c-1.5,0-2.8,0.7-3.4,1.2L134.5,6.6z M140.4,12.2h-0.3c-2.5,0-4.1,0.5-4.1,2.3c0,1.1,0.7,1.9,1.9,1.9
			c1.8,0,2.4-1.3,2.4-3.5V12.2z"/>
		<path class="st0" d="M8.7,42C8,42.2,7,42.5,5.8,42.5c-4.1,0-5.8-2.9-5.8-6.4c0-3.5,1.8-6.4,6-6.4c0.9,0,2,0.3,2.6,0.5l-0.2,2.4
			C7.9,32.3,7.1,32,6.3,32c-2.3,0-3.2,1.5-3.2,4.2c0,2.3,1.1,4.1,3.4,4.1c0.7,0,1.7-0.3,2.1-0.6L8.7,42z"/>
		<path class="st0" d="M15.4,29.7c2.5,0,5.4,1.3,5.4,6.4c0,5.2-2.9,6.4-5.4,6.4c-2.5,0-5.4-1.2-5.4-6.4C10,31.1,12.9,29.7,15.4,29.7
			z M15.4,40.4c1.9,0,2.4-2.2,2.4-4.3s-0.4-4.2-2.4-4.2s-2.4,2.2-2.4,4.2S13.5,40.4,15.4,40.4z"/>
		<path class="st0" d="M23,32c0-0.8,0-1.5-0.1-2h2.8c0,0.6,0.1,1.3,0.1,1.9h0c0.4-0.7,1.3-2.1,3.3-2.1c2.8,0,3.6,2.1,3.6,4.6v8h-3
			v-7.4c0-1.9-0.5-2.7-1.7-2.7c-1.6,0-2.1,1.3-2.1,2.9v7.2h-3V32z"/>
		<path class="st0" d="M43.6,42c-0.7,0.3-1.7,0.5-2.9,0.5c-4.1,0-5.8-2.9-5.8-6.4c0-3.5,1.8-6.4,6-6.4c0.9,0,2,0.3,2.6,0.5l-0.2,2.4
			C42.7,32.3,42,32,41.2,32c-2.3,0-3.2,1.5-3.2,4.2c0,2.3,1.1,4.1,3.4,4.1c0.7,0,1.7-0.3,2.1-0.6L43.6,42z"/>
		<path class="st0" d="M45.4,24.7h3.1v2.9h-3.1V24.7z M45.5,29.9h3v12.4h-3V29.9z"/>
		<path class="st0" d="M51.5,24.3h3v18h-3V24.3z"/>
		<path class="st0" d="M57.4,24.7h3.1v2.9h-3.1V24.7z M57.5,29.9h3v12.4h-3V29.9z"/>
		<path class="st0" d="M63.8,30.6c0.8-0.4,2-0.9,3.9-0.9c3.8,0,4.7,1.9,4.7,5v5.4c0,0.9,0.1,1.7,0.2,2.2h-2.7
			c-0.1-0.5-0.2-1.1-0.2-1.7h0c-0.7,1-1.7,1.9-3.5,1.9c-1.9,0-3.7-1.3-3.7-3.6c0-3.4,2.7-4.2,6.5-4.2h0.6v-0.5
			c0-1.2-0.6-2.4-2.3-2.4c-1.5,0-2.8,0.7-3.4,1.2L63.8,30.6z M69.6,36.2h-0.3c-2.5,0-4.1,0.5-4.1,2.3c0,1.1,0.7,1.9,1.9,1.9
			c1.8,0,2.4-1.3,2.4-3.5V36.2z"/>
		<path class="st0" d="M75,32c0-0.8,0-1.5-0.1-2h2.7c0,0.7,0.1,1.5,0.1,2.3h0c0.4-1,1.3-2.4,3.1-2.4c0.2,0,0.3,0,0.5,0.1v2.8
			c-0.3-0.1-0.5-0.1-0.8-0.1c-1.2,0-2.6,0.7-2.6,3v6.8h-3V32z"/>
		<path class="st0" d="M98.2,41.7c-0.6,0.3-1.9,0.8-3.7,0.8c-4,0-5.7-2.9-5.7-6.2c0-3.7,1.9-6.6,5.1-6.6c2.7,0,4.9,1.6,4.9,6.6v0.6
			h-7.2c0,2.1,0.8,3.4,3.1,3.4c1.8,0,2.7-0.6,3.2-1L98.2,41.7z M96,35c0-2.2-0.7-3.3-2.1-3.3c-1.6,0-2.2,1.7-2.2,3.3H96z"/>
		<path class="st0" d="M101.2,24.3h3v18h-3V24.3z"/>
		<path class="st0" d="M112.6,39.4c0.5,0.2,1.7,0.8,3.1,0.8c1.1,0,1.9-0.3,1.9-1.2c0-0.5-0.2-0.9-1.3-1.6l-1.2-0.7
			c-1.2-0.7-2.6-1.5-2.6-3.5c0-1.7,1.7-3.5,4.3-3.5c1.6,0,2.8,0.4,3.1,0.5l-0.2,2.3c-0.7-0.3-1.5-0.6-2.6-0.6
			c-1.2,0-1.7,0.5-1.7,1.2c0,0.7,0.5,1,1.4,1.6l1.5,0.9c1.5,1,2.3,1.7,2.3,3.1c0,2.3-1.9,3.6-4.6,3.6c-1.5,0-2.8-0.4-3.4-0.6
			L112.6,39.4z"/>
		<path class="st0" d="M132.2,40.3c0,0.8,0,1.5,0.1,2h-2.8c0-0.6-0.1-1.3-0.1-1.9l-0.1,0l0,0c-0.6,0.9-1.3,2.1-3.3,2.1
			c-2.8,0-3.6-2.1-3.6-4.6v-8h3v7.4c0,1.9,0.5,2.7,1.8,2.7c1.6,0,2-1.4,2-3v-7.1h3V40.3z"/>
		<path class="st0" d="M143.7,41.7c-0.6,0.3-1.9,0.8-3.7,0.8c-4,0-5.7-2.9-5.7-6.2c0-3.7,1.9-6.6,5.1-6.6c2.7,0,4.9,1.6,4.9,6.6v0.6
			h-7.2c0,2.1,0.8,3.4,3.1,3.4c1.8,0,2.7-0.6,3.2-1L143.7,41.7z M141.5,35c0-2.2-0.7-3.3-2.1-3.3c-1.6,0-2.2,1.7-2.2,3.3H141.5z"/>
		<path class="st0" d="M146.4,32c0-0.8,0-1.5-0.1-2h2.8c0,0.6,0.1,1.3,0.1,1.9h0c0.4-0.7,1.3-2.1,3.3-2.1c2.8,0,3.6,2.1,3.6,4.6v8
			h-3v-7.4c0-1.9-0.5-2.7-1.7-2.7c-1.6,0-2.1,1.3-2.1,2.9v7.2h-3V32z M147.7,28.3c0-0.8,0.5-2.8,2.3-2.8c1.1,0,2,0.8,2.8,0.8
			c0.5,0,0.7-0.5,0.7-0.9h1.5c0,0.7-0.5,2.8-2.2,2.8c-0.9,0-1.8-0.8-2.7-0.8c-0.6,0-0.9,0.4-0.9,0.9H147.7z"/>
		<path class="st0" d="M163.7,29.7c2.5,0,5.4,1.3,5.4,6.4c0,5.2-2.9,6.4-5.4,6.4c-2.5,0-5.4-1.2-5.4-6.4
			C158.3,31.1,161.2,29.7,163.7,29.7z M163.7,40.4c1.9,0,2.4-2.2,2.4-4.3s-0.4-4.2-2.4-4.2s-2.4,2.2-2.4,4.2S161.8,40.4,163.7,40.4z
			"/>
	</g>
</g>
</svg>
