<!-- Generator: Adobe Illustrator 20.1.0, SVG Export Plug-In  -->
<svg version="1.1"
	 xmlns="http://www.w3.org/2000/svg" xmlns:xlink="http://www.w3.org/1999/xlink" xmlns:a="http://ns.adobe.com/AdobeSVGViewerExtensions/3.0/"
	 x="0px" y="0px" width="366.6px" height="45.2px" viewBox="0 0 366.6 45.2"
	 style="overflow:scroll;enable-background:new 0 0 366.6 45.2;" xml:space="preserve">
<style type="text/css">
	.st0{fill:#009ABF;}
	.st1{fill:none;stroke:#006938;stroke-width:1.8808;stroke-miterlimit:10;}
	.st2{fill:#FFFFFF;}
	.st3{fill-rule:evenodd;clip-rule:evenodd;fill:#FFFFFF;}
</style>
<defs>
</defs>
<polygon class="st0" points="366.6,45.2 0,45.2 0,0 366.3,0 "/>
<g>
	<g>
		<path class="st1" d="M38,19c0.7-1.2,1.1-1.7,1.8-2.2c0.9-0.7,1.9-1.1,2.8-1.1c2.6,0,4.1,2,3.9,5.3c-0.3,5.4-3.6,9.7-7.4,9.7
			c-0.9,0-1.5-0.1-2.5-0.4l-1.1,7.7H32l1.4-9.4c-1.1-1.2-1.3-1.5-1.8-2.3l0.6-3.1c0.8,1.3,1,1.6,1.7,2.5l1.7-11.5l3.1-0.5L38,19z
			 M36.9,27.7c0.5,0.3,0.9,0.4,1.4,0.4c1.4,0.1,2.6-0.7,3.5-2.2c0.8-1.4,1.3-3.6,1.2-5.3c-0.1-1.3-0.7-2.1-1.7-2
			c-1.3,0.1-2.3,1.2-3.6,3.7L36.9,27.7z"/>
		<path class="st1" d="M59.8,24c-0.1,0.8-0.3,1.9-0.3,2.5c-0.1,1.4,0.3,1.8,1.6,1.8l-0.7,2.2c-0.4,0.1-0.5,0.1-1,0.1
			c-2.3,0-3.1-0.9-3.1-3.4c-1.5,2.5-2.9,3.4-4.9,3.4c-2.4,0-3.9-2.2-3.6-5.6c0.4-5.3,3.7-9.2,8.1-9.4c1.6-0.1,3.1,0.1,5.1,0.7
			L59.8,24z M57.4,18.5c-0.9-0.2-1.4-0.2-2-0.2c-1.3,0.2-2.2,0.8-2.9,2.2c-0.7,1.2-1.1,2.7-1.2,4.1c-0.2,2.1,0.4,3.2,1.7,3.2
			c1.1,0,2.2-1.1,3.6-3.6L57.4,18.5z"/>
		<path class="st1" d="M72.6,19.2c-0.6-0.1-0.9-0.1-1.2-0.1c-1.6,0.2-3,1.7-4.2,4.5l-1,6.6h-3.3l1.3-8.7c0.1-0.5,0.2-1.1,0.2-1.8
			c0.1-1.3,0.1-2.3-0.2-2.9c0,0-0.1-0.2-0.2-0.4l2.8-0.7c0.5,0.5,0.8,1.3,0.8,2.4c0,0.5,0,0.7-0.1,0.9l-0.1,1.1
			c0.8-1.5,1.1-2,1.6-2.6c0.9-1.2,1.8-1.7,3-1.8c0.4,0,0.7,0,1.2,0.2L72.6,19.2z"/>
		<path class="st1" d="M84.5,24c-0.1,0.8-0.3,1.9-0.3,2.5c-0.1,1.4,0.3,1.8,1.6,1.8l-0.7,2.2c-0.4,0.1-0.5,0.1-1,0.1
			c-2.3,0-3.1-0.9-3.1-3.4c-1.5,2.5-2.9,3.4-4.9,3.4c-2.4,0-3.9-2.2-3.6-5.6c0.4-5.3,3.7-9.2,8.1-9.4c1.6-0.1,3.1,0.1,5.1,0.7
			L84.5,24z M82,18.5c-0.9-0.2-1.4-0.2-2-0.2c-1.3,0.2-2.2,0.8-2.9,2.2c-0.7,1.2-1.1,2.7-1.2,4.1c-0.2,2.1,0.4,3.2,1.7,3.2
			c1.1,0,2.2-1.1,3.6-3.6L82,18.5z"/>
		<path class="st1" d="M105.6,24c-0.1,0.8-0.3,1.9-0.3,2.5c-0.1,1.4,0.3,1.8,1.6,1.8l-0.7,2.2c-0.4,0.1-0.5,0.1-1,0.1
			c-2.3,0-3.1-0.9-3.1-3.4c-1.5,2.5-2.9,3.4-4.9,3.4c-2.4,0-3.9-2.2-3.6-5.6c0.4-5.4,3.7-9.2,8.1-9.4c0.6,0,1,0,1.8,0.1l1.1-7.6h3.3
			L105.6,24z M103.1,18.5c-0.9-0.2-1.4-0.2-2-0.2c-1.3,0.2-2.2,0.8-2.9,2.2c-0.7,1.2-1.1,2.7-1.2,4.1c-0.2,2.1,0.4,3.2,1.7,3.2
			c1.1,0,2.2-1.1,3.6-3.6L103.1,18.5z"/>
		<path class="st1" d="M111.9,30.3h-3.3l2.1-14.2h3.3L111.9,30.3z M115.1,11.4c0,1.3-0.9,2.3-2.2,2.3c-1.2,0-1.8-0.7-1.8-1.8
			c0-1.3,1-2.2,2.3-2.2C114.3,9.7,115.1,10.4,115.1,11.4z"/>
		<path class="st1" d="M124.3,19.2c-1-0.6-1.9-0.9-2.8-0.9c-1.1,0-2,0.7-2,1.6c0,0.5,0.4,1,1.4,1.9c2.3,2,2.9,2.8,2.9,4.3
			c0,2.6-2.3,4.7-5.4,4.7c-1.6,0-3.2-0.4-4.5-1.3l0.8-2.7c0.9,0.7,2.2,1.2,3.3,1.3c1.3,0.1,2.3-0.9,2.2-1.9
			c-0.1-0.4-0.3-0.8-0.8-1.3c-0.2-0.2,0.1,0.1-0.7-0.6l-0.5-0.4l-0.5-0.4c-1.2-1.1-1.8-2.2-1.7-3.4c0.1-2.3,2.2-4,5-4
			c1.3,0,2.3,0.3,3.6,0.9L124.3,19.2z"/>
		<path class="st1" d="M135.1,18.5H132l-1.5,9.8c-0.3,2.4-0.5,3-0.7,3.9c-1.1,4-3.5,6.1-6.7,5.9c-0.2,0-0.4,0-0.7-0.1v-2.3
			c2.5,0.1,3.8-1.6,4.4-5.6l1.7-11.6h-2.6l0.3-2.4h2.6l0.2-0.9c0.4-2.7,0.6-3.3,1.2-4.3c0.9-1.6,2.7-2.6,4.6-2.7
			c0.7,0,1.2,0,2.1,0.1l-0.4,2.4c-0.2,0-0.4,0-0.4,0c-1.1,0-1.7,0.2-2.4,0.7c-0.8,0.7-1.1,1.5-1.5,3.6l-0.2,1.1h3.2L135.1,18.5z"/>
		<path class="st1" d="M144.9,19.2c-0.6-0.1-0.9-0.1-1.2-0.1c-1.6,0.2-3,1.7-4.2,4.5l-1,6.6h-3.3l1.3-8.7c0.1-0.5,0.2-1.1,0.2-1.8
			c0.1-1.3,0.1-2.3-0.2-2.9c0,0-0.1-0.2-0.2-0.4l2.8-0.7c0.5,0.5,0.8,1.3,0.8,2.4c0,0.5,0,0.7-0.1,0.9l-0.1,1.1
			c0.8-1.5,1.1-2,1.6-2.6c0.9-1.2,1.8-1.7,3-1.8c0.4,0,0.7,0,1.2,0.2L144.9,19.2z"/>
		<path class="st1" d="M157.5,24c-0.1,0.8-0.2,1.9-0.3,2.5c-0.1,1.4,0.3,1.8,1.6,1.8l-0.7,2.2c-0.4,0.1-0.5,0.1-1,0.1
			c-2.2,0-3.1-0.9-3.1-3.2c-0.8,1.1-1.1,1.5-1.8,2c-1,0.8-2.2,1.3-3.3,1.3c-1.9,0-3-1.2-3-3.1c0-0.4,0.1-1.1,0.2-1.8l1.5-9.7h3.3
			l-1.4,9.4c-0.1,0.5-0.1,0.9-0.1,1.2c0,0.7,0.4,1.1,1.1,1.1c1.2,0,2.5-1.2,3.7-3.5l1.2-8.1h3.3L157.5,24z"/>
		<path class="st1" d="M170.5,18.5h-3.7l-0.9,6.3c-0.1,0.5-0.1,1.1-0.1,1.4c0,1.2,0.6,1.8,1.7,1.8c0.9,0,1.3-0.1,2.3-0.5l0.6,2.1
			c-1.4,0.9-2.6,1.1-4.4,1.1c-2.3,0-3.8-1.5-3.6-3.7c0-0.5,0.1-1.2,0.3-2.1l0.9-6.4h-2.7l0.3-1.9c3.4-0.3,3.8-0.6,5-4.4h1.7
			l-0.6,3.9h3.7L170.5,18.5z"/>
		<path class="st1" d="M183.3,24c-0.1,0.8-0.3,1.9-0.3,2.5c-0.1,1.4,0.3,1.8,1.6,1.8l-0.7,2.2c-0.4,0.1-0.5,0.1-1,0.1
			c-2.3,0-3.1-0.9-3.1-3.4c-1.5,2.5-2.9,3.4-4.9,3.4c-2.4,0-3.9-2.2-3.6-5.6c0.4-5.3,3.7-9.2,8.1-9.4c1.6-0.1,3.1,0.1,5.1,0.7
			L183.3,24z M180.8,18.5c-0.9-0.2-1.4-0.2-2-0.2c-1.3,0.2-2.2,0.8-2.9,2.2c-0.7,1.2-1.1,2.7-1.2,4.1c-0.2,2.1,0.4,3.2,1.7,3.2
			c1.1,0,2.2-1.1,3.6-3.6L180.8,18.5z"/>
		<path class="st1" d="M196.1,19.2c-0.6-0.1-0.9-0.1-1.2-0.1c-1.6,0.2-3,1.7-4.2,4.5l-1,6.6h-3.3l1.3-8.7c0.1-0.5,0.2-1.1,0.2-1.8
			c0.1-1.3,0.1-2.3-0.2-2.9c0,0-0.1-0.2-0.2-0.4l2.8-0.7c0.5,0.5,0.8,1.3,0.8,2.4c0,0.5,0,0.7-0.1,0.9l-0.1,1.1
			c0.8-1.5,1.1-2,1.6-2.6c0.9-1.2,1.8-1.7,3-1.8c0.4,0,0.7,0,1.2,0.2L196.1,19.2z"/>
		<path class="st1" d="M212.1,19.9c-0.9-1.1-1.4-1.4-2.2-1.3c-1,0.1-1.8,0.7-2.5,1.9c-0.6,1-1,2.8-1,4c0,1.4,0.2,2.1,0.6,2.7
			c0.3,0.5,0.9,0.8,1.4,0.8c1.2,0,2-0.5,3.4-1.8l0.9,2.2c-1.4,1.6-2.9,2.4-4.7,2.5c-3,0.2-5-2.2-5-5.9c0-2.3,0.9-4.8,2.2-6.6
			c1.3-1.6,2.8-2.5,4.7-2.6c1.8-0.1,3.1,0.6,4.2,2.1L212.1,19.9z"/>
		<path class="st1" d="M226.1,24c-0.1,0.8-0.3,1.9-0.3,2.5c-0.1,1.4,0.3,1.8,1.6,1.8l-0.7,2.2c-0.4,0.1-0.5,0.1-1,0.1
			c-2.3,0-3.1-0.9-3.1-3.4c-1.5,2.5-2.9,3.4-4.9,3.4c-2.4,0-3.9-2.2-3.6-5.6c0.4-5.3,3.7-9.2,8.1-9.4c1.6-0.1,3.1,0.1,5.1,0.7
			L226.1,24z M223.6,18.5c-0.9-0.2-1.4-0.2-2-0.2c-1.3,0.2-2.2,0.8-2.9,2.2c-0.7,1.2-1.1,2.7-1.2,4.1c-0.2,2.1,0.4,3.2,1.7,3.2
			c1.1,0,2.2-1.1,3.6-3.6L223.6,18.5z"/>
		<path class="st1" d="M241,24c-0.1,0.8-0.3,1.9-0.3,2.5c-0.1,1.4,0.3,1.8,1.6,1.8l-0.7,2.2c-0.4,0.1-0.5,0.1-1,0.1
			c-2.3,0-3.1-0.9-3.1-3.4c-1.5,2.5-2.9,3.4-4.9,3.4c-2.4,0-3.9-2.2-3.6-5.6c0.4-5.4,3.7-9.2,8.1-9.4c0.6,0,1,0,1.8,0.1l1.1-7.6h3.3
			L241,24z M238.5,18.5c-0.9-0.2-1.4-0.2-2-0.2c-1.3,0.2-2.2,0.8-2.9,2.2c-0.7,1.2-1.1,2.7-1.2,4.1c-0.2,2.1,0.4,3.2,1.7,3.2
			c1.1,0,2.2-1.1,3.6-3.6L238.5,18.5z"/>
		<path class="st1" d="M256.2,24c-0.1,0.8-0.3,1.9-0.3,2.5c-0.1,1.4,0.3,1.8,1.6,1.8l-0.7,2.2c-0.4,0.1-0.5,0.1-1,0.1
			c-2.3,0-3.1-0.9-3.1-3.4c-1.5,2.5-2.9,3.4-4.9,3.4c-2.4,0-3.9-2.2-3.6-5.6c0.4-5.3,3.7-9.2,8.1-9.4c1.6-0.1,3.1,0.1,5.1,0.7
			L256.2,24z M253.7,18.5c-0.9-0.2-1.4-0.2-2-0.2c-1.3,0.2-2.2,0.8-2.9,2.2c-0.7,1.2-1.1,2.7-1.2,4.1c-0.2,2.1,0.4,3.2,1.7,3.2
			c1.1,0,2.2-1.1,3.6-3.6L253.7,18.5z"/>
		<path class="st1" d="M277.2,24c-0.1,0.8-0.3,1.9-0.3,2.5c-0.1,1.4,0.3,1.8,1.6,1.8l-0.7,2.2c-0.4,0.1-0.5,0.1-1,0.1
			c-2.3,0-3.1-0.9-3.1-3.4c-1.5,2.5-2.9,3.4-4.9,3.4c-2.4,0-3.9-2.2-3.6-5.6c0.4-5.4,3.7-9.2,8.1-9.4c0.6,0,1,0,1.8,0.1l1.1-7.6h3.3
			L277.2,24z M274.8,18.5c-0.9-0.2-1.4-0.2-2-0.2c-1.3,0.2-2.2,0.8-2.9,2.2c-0.7,1.2-1.1,2.7-1.2,4.1c-0.2,2.1,0.4,3.2,1.7,3.2
			c1.1,0,2.2-1.1,3.6-3.6L274.8,18.5z"/>
		<path class="st1" d="M283.5,30.3h-3.3l2.1-14.2h3.3L283.5,30.3z M290.1,9.8l-5.8,4.4l-2.3-0.6l5-4.5L290.1,9.8z"/>
		<path class="st1" d="M298.9,24c-0.1,0.8-0.3,1.9-0.3,2.5c-0.1,1.4,0.3,1.8,1.6,1.8l-0.7,2.2c-0.4,0.1-0.5,0.1-1,0.1
			c-2.3,0-3.1-0.9-3.1-3.4c-1.5,2.5-2.9,3.4-4.9,3.4c-2.4,0-3.9-2.2-3.6-5.6c0.4-5.3,3.7-9.2,8.1-9.4c1.6-0.1,3.1,0.1,5.1,0.7
			L298.9,24z M296.4,18.5c-0.9-0.2-1.4-0.2-2-0.2c-1.3,0.2-2.2,0.8-2.9,2.2c-0.7,1.2-1.1,2.7-1.2,4.1c-0.2,2.1,0.4,3.2,1.7,3.2
			c1.1,0,2.2-1.1,3.6-3.6L296.4,18.5z"/>
	</g>
	<g>
		<path class="st2" d="M38,18.5c0.7-1.2,1.1-1.7,1.8-2.2c0.9-0.7,1.9-1.1,2.8-1.1c2.6,0,4.1,2,3.9,5.3c-0.3,5.4-3.6,9.7-7.4,9.7
			c-0.9,0-1.5-0.1-2.5-0.4l-1.1,7.7H32l1.4-9.4c-1.1-1.2-1.3-1.5-1.8-2.3l0.6-3.1c0.8,1.3,1,1.6,1.7,2.5l1.7-11.4l3.1-0.5L38,18.5z
			 M36.9,27.1c0.5,0.3,0.9,0.4,1.4,0.4c1.4,0.1,2.6-0.7,3.5-2.2c0.8-1.4,1.3-3.6,1.2-5.3c-0.1-1.3-0.7-2.1-1.7-2
			c-1.3,0.1-2.3,1.2-3.6,3.7L36.9,27.1z"/>
		<path class="st2" d="M59.8,23.5c-0.1,0.8-0.3,1.9-0.3,2.5c-0.1,1.4,0.3,1.8,1.6,1.8L60.5,30c-0.4,0.1-0.5,0.1-1,0.1
			c-2.3,0-3.1-0.9-3.1-3.4c-1.5,2.5-2.9,3.4-4.9,3.4c-2.4,0-3.9-2.2-3.6-5.6c0.4-5.3,3.7-9.2,8.1-9.4c1.6-0.1,3.1,0.1,5.1,0.7
			L59.8,23.5z M57.4,18c-0.9-0.2-1.4-0.2-2-0.2c-1.3,0.2-2.2,0.8-2.9,2.2c-0.7,1.2-1.1,2.7-1.2,4.1c-0.2,2.1,0.4,3.2,1.7,3.2
			c1.1,0,2.2-1.1,3.6-3.6L57.4,18z"/>
		<path class="st2" d="M72.6,18.7c-0.6-0.1-0.9-0.1-1.2-0.1c-1.6,0.2-3,1.7-4.2,4.5l-1,6.6h-3.3l1.3-8.7c0.1-0.5,0.2-1.1,0.2-1.8
			c0.1-1.3,0.1-2.3-0.2-2.9c0,0-0.1-0.2-0.2-0.4l2.8-0.7c0.5,0.5,0.8,1.3,0.8,2.4c0,0.5,0,0.7-0.1,0.9l-0.1,1.1
			c0.8-1.5,1.1-2,1.6-2.6c0.9-1.2,1.8-1.7,3-1.8c0.4,0,0.7,0,1.2,0.2L72.6,18.7z"/>
		<path class="st2" d="M84.5,23.5c-0.1,0.8-0.3,1.9-0.3,2.5c-0.1,1.4,0.3,1.8,1.6,1.8L85.1,30c-0.4,0.1-0.5,0.1-1,0.1
			c-2.3,0-3.1-0.9-3.1-3.4c-1.5,2.5-2.9,3.4-4.9,3.4c-2.4,0-3.9-2.2-3.6-5.6c0.4-5.3,3.7-9.2,8.1-9.4c1.6-0.1,3.1,0.1,5.1,0.7
			L84.5,23.5z M82,18c-0.9-0.2-1.4-0.2-2-0.2c-1.3,0.2-2.2,0.8-2.9,2.2c-0.7,1.2-1.1,2.7-1.2,4.1c-0.2,2.1,0.4,3.2,1.7,3.2
			c1.1,0,2.2-1.1,3.6-3.6L82,18z"/>
		<path class="st2" d="M105.6,23.5c-0.1,0.8-0.3,1.9-0.3,2.5c-0.1,1.4,0.3,1.8,1.6,1.8l-0.7,2.2c-0.4,0.1-0.5,0.1-1,0.1
			c-2.3,0-3.1-0.9-3.1-3.4c-1.5,2.5-2.9,3.4-4.9,3.4c-2.4,0-3.9-2.2-3.6-5.6c0.4-5.4,3.7-9.2,8.1-9.4c0.6,0,1,0,1.8,0.1l1.1-7.6h3.3
			L105.6,23.5z M103.1,18c-0.9-0.2-1.4-0.2-2-0.2c-1.3,0.2-2.2,0.8-2.9,2.2c-0.7,1.2-1.1,2.7-1.2,4.1c-0.2,2.1,0.4,3.2,1.7,3.2
			c1.1,0,2.2-1.1,3.6-3.6L103.1,18z"/>
		<path class="st2" d="M111.9,29.8h-3.3l2.1-14.2h3.3L111.9,29.8z M115.1,10.9c0,1.3-0.9,2.3-2.2,2.3c-1.2,0-1.8-0.7-1.8-1.8
			c0-1.3,1-2.2,2.3-2.2C114.3,9.1,115.1,9.8,115.1,10.9z"/>
		<path class="st2" d="M124.3,18.7c-1-0.6-1.9-0.9-2.8-0.9c-1.1,0-2,0.7-2,1.6c0,0.5,0.4,1,1.4,1.9c2.3,2,2.9,2.8,2.9,4.3
			c0,2.6-2.3,4.6-5.4,4.6c-1.6,0-3.2-0.4-4.5-1.3l0.8-2.7c0.9,0.7,2.2,1.2,3.3,1.3c1.3,0.1,2.3-0.9,2.2-1.9
			c-0.1-0.4-0.3-0.8-0.8-1.3c-0.2-0.2,0.1,0.1-0.7-0.6l-0.5-0.4l-0.5-0.4c-1.2-1.1-1.8-2.2-1.7-3.4c0.1-2.3,2.2-4,5-4
			c1.3,0,2.3,0.3,3.6,0.9L124.3,18.7z"/>
		<path class="st2" d="M135.1,18H132l-1.5,9.8c-0.3,2.4-0.5,3-0.7,3.9c-1.1,4-3.5,6.1-6.7,5.9c-0.2,0-0.4,0-0.7-0.1v-2.3
			c2.5,0.1,3.8-1.6,4.4-5.6l1.7-11.6h-2.6l0.3-2.4h2.6l0.2-0.9c0.4-2.7,0.6-3.3,1.2-4.3c0.9-1.6,2.7-2.6,4.6-2.7
			c0.7,0,1.2,0,2.1,0.1l-0.4,2.4c-0.2,0-0.4,0-0.4,0c-1.1,0-1.7,0.2-2.4,0.7c-0.8,0.7-1.1,1.5-1.5,3.6l-0.2,1.1h3.2L135.1,18z"/>
		<path class="st2" d="M144.9,18.7c-0.6-0.1-0.9-0.1-1.2-0.1c-1.6,0.2-3,1.7-4.2,4.5l-1,6.6h-3.3l1.3-8.7c0.1-0.5,0.2-1.1,0.2-1.8
			c0.1-1.3,0.1-2.3-0.2-2.9c0,0-0.1-0.2-0.2-0.4l2.8-0.7c0.5,0.5,0.8,1.3,0.8,2.4c0,0.5,0,0.7-0.1,0.9l-0.1,1.1
			c0.8-1.5,1.1-2,1.6-2.6c0.9-1.2,1.8-1.7,3-1.8c0.4,0,0.7,0,1.2,0.2L144.9,18.7z"/>
		<path class="st2" d="M157.5,23.5c-0.1,0.8-0.2,1.9-0.3,2.5c-0.1,1.4,0.3,1.8,1.6,1.8l-0.7,2.2c-0.4,0.1-0.5,0.1-1,0.1
			c-2.2,0-3.1-0.9-3.1-3.2c-0.8,1.1-1.1,1.5-1.8,2c-1,0.8-2.2,1.3-3.3,1.3c-1.9,0-3-1.2-3-3.1c0-0.4,0.1-1.1,0.2-1.8l1.5-9.7h3.3
			l-1.4,9.4c-0.1,0.5-0.1,0.9-0.1,1.2c0,0.7,0.4,1.1,1.1,1.1c1.2,0,2.5-1.2,3.7-3.5l1.2-8.1h3.3L157.5,23.5z"/>
		<path class="st2" d="M170.5,18h-3.7l-0.9,6.3c-0.1,0.5-0.1,1.1-0.1,1.4c0,1.2,0.6,1.8,1.7,1.8c0.9,0,1.3-0.1,2.3-0.5l0.6,2.1
			c-1.4,0.9-2.6,1.1-4.4,1.1c-2.3,0-3.8-1.5-3.6-3.7c0-0.5,0.1-1.2,0.3-2.1l0.9-6.4h-2.7l0.3-1.9c3.4-0.3,3.8-0.6,5-4.4h1.7
			l-0.6,3.9h3.7L170.5,18z"/>
		<path class="st2" d="M183.3,23.5c-0.1,0.8-0.3,1.9-0.3,2.5c-0.1,1.4,0.3,1.8,1.6,1.8l-0.7,2.2c-0.4,0.1-0.5,0.1-1,0.1
			c-2.3,0-3.1-0.9-3.1-3.4c-1.5,2.5-2.9,3.4-4.9,3.4c-2.4,0-3.9-2.2-3.6-5.6c0.4-5.3,3.7-9.2,8.1-9.4c1.6-0.1,3.1,0.1,5.1,0.7
			L183.3,23.5z M180.8,18c-0.9-0.2-1.4-0.2-2-0.2c-1.3,0.2-2.2,0.8-2.9,2.2c-0.7,1.2-1.1,2.7-1.2,4.1c-0.2,2.1,0.4,3.2,1.7,3.2
			c1.1,0,2.2-1.1,3.6-3.6L180.8,18z"/>
		<path class="st2" d="M196.1,18.7c-0.6-0.1-0.9-0.1-1.2-0.1c-1.6,0.2-3,1.7-4.2,4.5l-1,6.6h-3.3l1.3-8.7c0.1-0.5,0.2-1.1,0.2-1.8
			c0.1-1.3,0.1-2.3-0.2-2.9c0,0-0.1-0.2-0.2-0.4l2.8-0.7c0.5,0.5,0.8,1.3,0.8,2.4c0,0.5,0,0.7-0.1,0.9l-0.1,1.1
			c0.8-1.5,1.1-2,1.6-2.6c0.9-1.2,1.8-1.7,3-1.8c0.4,0,0.7,0,1.2,0.2L196.1,18.7z"/>
		<path class="st2" d="M212.1,19.4c-0.9-1.1-1.4-1.4-2.2-1.3c-1,0.1-1.8,0.7-2.5,1.9c-0.6,1-1,2.8-1,4c0,1.4,0.2,2.1,0.6,2.7
			c0.3,0.5,0.9,0.8,1.4,0.8c1.2,0,2-0.5,3.4-1.8l0.9,2.2c-1.4,1.5-2.9,2.4-4.7,2.5c-3,0.2-5-2.2-5-5.9c0-2.3,0.9-4.8,2.2-6.6
			c1.3-1.6,2.8-2.5,4.7-2.6c1.8-0.1,3.1,0.6,4.2,2.1L212.1,19.4z"/>
		<path class="st2" d="M226.1,23.5c-0.1,0.8-0.3,1.9-0.3,2.5c-0.1,1.4,0.3,1.8,1.6,1.8l-0.7,2.2c-0.4,0.1-0.5,0.1-1,0.1
			c-2.3,0-3.1-0.9-3.1-3.4c-1.5,2.5-2.9,3.4-4.9,3.4c-2.4,0-3.9-2.2-3.6-5.6c0.4-5.3,3.7-9.2,8.1-9.4c1.6-0.1,3.1,0.1,5.1,0.7
			L226.1,23.5z M223.6,18c-0.9-0.2-1.4-0.2-2-0.2c-1.3,0.2-2.2,0.8-2.9,2.2c-0.7,1.2-1.1,2.7-1.2,4.1c-0.2,2.1,0.4,3.2,1.7,3.2
			c1.1,0,2.2-1.1,3.6-3.6L223.6,18z"/>
		<path class="st2" d="M241,23.5c-0.1,0.8-0.3,1.9-0.3,2.5c-0.1,1.4,0.3,1.8,1.6,1.8l-0.7,2.2c-0.4,0.1-0.5,0.1-1,0.1
			c-2.3,0-3.1-0.9-3.1-3.4c-1.5,2.5-2.9,3.4-4.9,3.4c-2.4,0-3.9-2.2-3.6-5.6c0.4-5.4,3.7-9.2,8.1-9.4c0.6,0,1,0,1.8,0.1l1.1-7.6h3.3
			L241,23.5z M238.5,18c-0.9-0.2-1.4-0.2-2-0.2c-1.3,0.2-2.2,0.8-2.9,2.2c-0.7,1.2-1.1,2.7-1.2,4.1c-0.2,2.1,0.4,3.2,1.7,3.2
			c1.1,0,2.2-1.1,3.6-3.6L238.5,18z"/>
		<path class="st2" d="M256.2,23.5c-0.1,0.8-0.3,1.9-0.3,2.5c-0.1,1.4,0.3,1.8,1.6,1.8l-0.7,2.2c-0.4,0.1-0.5,0.1-1,0.1
			c-2.3,0-3.1-0.9-3.1-3.4c-1.5,2.5-2.9,3.4-4.9,3.4c-2.4,0-3.9-2.2-3.6-5.6c0.4-5.3,3.7-9.2,8.1-9.4c1.6-0.1,3.1,0.1,5.1,0.7
			L256.2,23.5z M253.7,18c-0.9-0.2-1.4-0.2-2-0.2c-1.3,0.2-2.2,0.8-2.9,2.2c-0.7,1.2-1.1,2.7-1.2,4.1c-0.2,2.1,0.4,3.2,1.7,3.2
			c1.1,0,2.2-1.1,3.6-3.6L253.7,18z"/>
		<path class="st2" d="M277.2,23.5c-0.1,0.8-0.3,1.9-0.3,2.5c-0.1,1.4,0.3,1.8,1.6,1.8l-0.7,2.2c-0.4,0.1-0.5,0.1-1,0.1
			c-2.3,0-3.1-0.9-3.1-3.4c-1.5,2.5-2.9,3.4-4.9,3.4c-2.4,0-3.9-2.2-3.6-5.6c0.4-5.4,3.7-9.2,8.1-9.4c0.6,0,1,0,1.8,0.1l1.1-7.6h3.3
			L277.2,23.5z M274.8,18c-0.9-0.2-1.4-0.2-2-0.2c-1.3,0.2-2.2,0.8-2.9,2.2c-0.7,1.2-1.1,2.7-1.2,4.1c-0.2,2.1,0.4,3.2,1.7,3.2
			c1.1,0,2.2-1.1,3.6-3.6L274.8,18z"/>
		<path class="st2" d="M283.5,29.8h-3.3l2.1-14.2h3.3L283.5,29.8z M290.1,9.3l-5.8,4.4l-2.3-0.6l5-4.5L290.1,9.3z"/>
		<path class="st2" d="M298.9,23.5c-0.1,0.8-0.3,1.9-0.3,2.5c-0.1,1.4,0.3,1.8,1.6,1.8l-0.7,2.2c-0.4,0.1-0.5,0.1-1,0.1
			c-2.3,0-3.1-0.9-3.1-3.4c-1.5,2.5-2.9,3.4-4.9,3.4c-2.4,0-3.9-2.2-3.6-5.6c0.4-5.3,3.7-9.2,8.1-9.4c1.6-0.1,3.1,0.1,5.1,0.7
			L298.9,23.5z M296.4,18c-0.9-0.2-1.4-0.2-2-0.2c-1.3,0.2-2.2,0.8-2.9,2.2c-0.7,1.2-1.1,2.7-1.2,4.1c-0.2,2.1,0.4,3.2,1.7,3.2
			c1.1,0,2.2-1.1,3.6-3.6L296.4,18z"/>
	</g>
</g>
<g>
	<g>
		<path class="st3" d="M328.1,16.2c3.5,0,6.4,3,6.4,6.4c0,3.5-2.9,6.4-6.4,6.4c-3.5,0-6.4-2.9-6.4-6.5
			C321.6,19.1,324.6,16.2,328.1,16.2z"/>
		<path class="st3" d="M327.2,12.8c0-0.5,0-1,0-1.5c0-0.6,0.3-0.9,0.9-0.9c0.6,0,0.8,0.4,0.8,0.9c0,1,0,2,0,3c0,0.5-0.3,0.9-0.9,0.9
			c-0.6,0-0.8-0.4-0.9-1C327.2,13.8,327.2,13.3,327.2,12.8L327.2,12.8z"/>
		<path class="st3" d="M327.2,32.4c0-0.5,0-1,0-1.5c0-0.5,0.3-0.9,0.8-0.9c0.6,0,0.9,0.3,0.9,0.9c0,1,0,2.1,0,3.1
			c0,0.5-0.3,0.9-0.9,0.9c-0.6,0-0.8-0.4-0.8-0.9C327.2,33.5,327.2,32.9,327.2,32.4z"/>
		<path class="st3" d="M337.6,31.4c-0.1,0.2-0.2,0.5-0.5,0.6c-0.3,0.1-0.7,0.1-0.9-0.1c-0.9-0.8-1.7-1.6-2.4-2.4
			c-0.2-0.2-0.1-0.8,0.1-1c0.1-0.2,0.8-0.3,0.9-0.2c0.9,0.8,1.8,1.8,2.7,2.7C337.6,31,337.5,31.2,337.6,31.4z"/>
		<path class="st3" d="M337.7,13.9c-0.2,0.3-0.3,0.6-0.5,0.8c-0.6,0.7-1.3,1.3-2,2c-0.4,0.4-0.9,0.6-1.3,0.1
			c-0.4-0.4-0.3-0.9,0.1-1.3c0.7-0.7,1.4-1.4,2.1-2.1c0.2-0.2,0.7-0.2,1-0.2C337.3,13.2,337.5,13.6,337.7,13.9z"/>
		<path class="st3" d="M318.4,31.3c0.2-0.3,0.3-0.6,0.5-0.8c0.6-0.7,1.3-1.3,1.9-2c0.4-0.4,0.9-0.5,1.3-0.1c0.4,0.4,0.3,0.9-0.1,1.3
			c-0.7,0.7-1.4,1.4-2.1,2.1c-0.2,0.2-0.7,0.3-1,0.2C318.8,32,318.6,31.6,318.4,31.3z"/>
		<path class="st3" d="M318.5,13.8c0.1-0.2,0.2-0.5,0.4-0.6c0.3-0.1,0.7-0.1,0.9,0c0.9,0.8,1.7,1.6,2.5,2.5c0.2,0.2,0.1,0.8-0.1,1
			c-0.2,0.2-0.8,0.3-1,0.1c-0.9-0.8-1.7-1.6-2.5-2.5C318.6,14.3,318.6,14.1,318.5,13.8z"/>
		<path class="st3" d="M318.2,22.9c-0.5,0-1.1,0-1.6,0c-0.5,0-0.8-0.3-0.8-0.8c0-0.5,0.3-0.8,0.8-0.8c1.1,0,2.1,0,3.2,0
			c0.5,0,0.8,0.3,0.8,0.8c0,0.5-0.3,0.8-0.8,0.9C319.3,22.9,318.8,22.9,318.2,22.9C318.2,22.9,318.2,22.9,318.2,22.9z"/>
		<path class="st3" d="M337.9,22.9c-0.5,0-1.1,0-1.6,0c-0.5,0-0.8-0.3-0.8-0.8c0-0.5,0.3-0.8,0.8-0.8c1.1,0,2.2-0.1,3.2,0
			c0.3,0,0.7,0.4,0.8,0.7c0.1,0.5-0.2,0.8-0.7,0.9C339,22.9,338.4,22.9,337.9,22.9z"/>
	</g>
</g>
</svg>
