<!-- Generator: Adobe Illustrator 20.1.0, SVG Export Plug-In  -->
<svg version="1.1"
	 xmlns="http://www.w3.org/2000/svg" xmlns:xlink="http://www.w3.org/1999/xlink" xmlns:a="http://ns.adobe.com/AdobeSVGViewerExtensions/3.0/"
	 x="0px" y="0px" width="170.3px" height="65.5px" viewBox="0 0 170.3 65.5"
	 style="overflow:scroll;enable-background:new 0 0 170.3 65.5;" xml:space="preserve">
<style type="text/css">
	.st0{fill:#FFFFFF;}
</style>
<defs>
</defs>
<g>
	<g>
		<path class="st0" d="M15.6,5.3c-1.8-1.2-3.3-1.7-4.8-1.7c-2,0-3.5,1.2-3.6,3C7.2,8,7.8,8.8,10.4,10.8c2,1.5,2.8,2.3,3.5,3.1
			c0.9,1.2,1.4,2.6,1.4,3.9c0,2.7-1,4.7-3.1,6c-1.4,0.9-2.9,1.3-5.2,1.3c-2.3,0-5.1-1-7-2.5l0.6-4.3c1.8,2,4,3.1,6.3,3.3
			c2.2,0.1,3.9-1.4,3.9-3.5c0-1.1-0.4-1.8-1.5-2.8c-0.3-0.3,0.6,0.4-2.8-2.4C3.8,10.9,3,9.4,3,6.8c0-2.1,1.1-4.2,2.9-5.4
			C7,0.6,8.9,0,10.3,0c2.5,0,3.8,0.3,6.3,1.6L15.6,5.3z"/>
		<path class="st0" d="M31.3,17.4c-0.1,1-0.3,2.2-0.3,2.9c-0.1,1.6,0.3,2.1,1.8,2.1L32,25c-0.4,0.1-0.6,0.1-1.1,0.1
			c-2.6,0-3.6-1.1-3.7-3.8c-0.9,1.3-1.3,1.8-2.1,2.4c-1.2,1-2.6,1.5-3.9,1.5c-2.2,0-3.5-1.4-3.5-3.6c0-0.5,0.1-1.3,0.2-2.1l1.7-11.3
			h3.9l-1.7,10.9c-0.1,0.6-0.1,1-0.1,1.4c0,0.8,0.5,1.3,1.3,1.3c1.4,0,2.9-1.4,4.3-4.1l1.4-9.5h3.9L31.3,17.4z"/>
		<path class="st0" d="M47.6,21.8c-2.2,2.5-4.2,3.5-7,3.5c-3.4,0-5.4-2.6-5.4-7.2c0-2.3,1.1-5.3,2.6-7.3c1.5-2,3.8-3.1,5.9-3.1
			c2.9,0,4.7,1.5,4.7,4c0,1.8-1.5,3.8-3.9,5.2c-1.6,0.9-2.8,1.4-5.3,2.2c0.1,0.7,0.1,1,0.2,1.3c0.4,1.1,1.3,1.8,2.4,2
			c1.6,0.1,2.9-0.6,5-2.7L47.6,21.8z M39.2,16.8c3.7-1.2,5.8-2.9,5.9-4.7c0.1-1-0.6-1.7-1.6-1.7c-1.2,0-2.4,1-3.3,2.7
			c-0.4,0.7-0.6,1.6-0.8,2.4c0,0-0.1,0.4-0.1,0.8L39.2,16.8z"/>
		<path class="st0" d="M58.8,24.7l1.6-10.5c0.1-0.5,0.1-1,0.1-1.5c0-1.1-0.5-1.5-1.5-1.5c-1.4,0-2.9,1.5-4.3,4.4l-1.4,9.1h-3.8
			L51,14.6c0.1-0.6,0.2-1.3,0.3-2.1c0.1-1.5,0.1-2.7-0.2-3.4c0,0-0.1-0.2-0.3-0.5l3.3-0.8c0.6,0.6,0.9,1.5,0.9,2.8
			c0,0.2,0,0.7-0.1,1.2c1-1.4,1.4-2,2.3-2.6c1.1-0.9,2.4-1.4,3.6-1.4c2.5,0,3.8,1.4,3.7,4.1c0,0.6-0.1,1.1-0.2,1.7l-1.7,11.3H58.8z
			 M63.9,3.9c-1,0.7-1.8,1-2.5,1c-0.4,0-0.8,0-1.3-0.2c-0.2-0.1,0.5,0.2-2.1-0.8c-0.6-0.2-1.1-0.3-1.6-0.3c-0.8,0-1.5,0.3-2.5,1.2
			L54.5,2c0.8-0.7,1.4-0.9,2-1c0.4,0,0.9,0,1.4,0.2c0.1,0,0.3,0.1,0.4,0.1l0.6,0.2l0.6,0.2L60,2c0.6,0.3,1.2,0.4,1.7,0.4
			c0.8,0,1.5-0.3,2.8-1.3L63.9,3.9z"/>
		<path class="st0" d="M81.2,14.7c0,2.4-0.9,5.2-2.4,7.3c-1.6,2.1-3.7,3.2-6.2,3.2c-3.8,0-6-2.5-6-6.9c0-2.5,0.9-5.4,2.3-7.3
			c1.5-2.2,3.8-3.3,6.3-3.3C79,7.6,81.2,10.2,81.2,14.7z M71.7,13.1c-0.7,1.5-1.1,3.4-1.1,5.1c0,2.5,0.8,3.9,2.4,3.9
			c1.3,0,2.3-0.7,3-2.3c0.8-1.5,1.2-3.2,1.2-4.9c0-2.8-0.8-4.1-2.5-4.1C73.5,10.8,72.4,11.6,71.7,13.1z"/>
		<path class="st0" d="M12.2,43.5c-0.7-0.1-1-0.1-1.4-0.1c-1.8,0.2-3.5,2-4.9,5.3l-1.2,7.7H0.8l1.5-10.1c0.1-0.6,0.2-1.3,0.3-2.1
			c0.1-1.5,0.1-2.7-0.2-3.4c0,0-0.1-0.2-0.3-0.5l3.3-0.8c0.6,0.6,0.9,1.5,0.9,2.8c0,0.6,0,0.8-0.1,1.1l-0.1,1.3
			c1-1.8,1.3-2.3,1.9-3.1c1.1-1.4,2.1-2,3.5-2.1c0.4,0,0.8,0,1.4,0.2L12.2,43.5z"/>
		<path class="st0" d="M25,53.5C22.8,56,20.8,57,18,57c-3.4,0-5.4-2.6-5.4-7.2c0-2.3,1.1-5.3,2.6-7.3c1.5-2,3.8-3.1,5.9-3.1
			c2.9,0,4.7,1.5,4.7,4c0,1.8-1.5,3.8-3.9,5.2c-1.6,0.9-2.8,1.4-5.3,2.2c0.1,0.7,0.1,1,0.2,1.3c0.4,1.1,1.3,1.8,2.4,2
			c1.6,0.1,2.9-0.6,5-2.7L25,53.5z M16.6,48.5c3.7-1.2,5.8-2.9,5.9-4.7c0.1-1-0.6-1.7-1.6-1.7c-1.2,0-2.4,1-3.3,2.7
			c-0.4,0.7-0.6,1.6-0.8,2.4c0,0-0.1,0.4-0.1,0.8L16.6,48.5z"/>
		<path class="st0" d="M33.5,43.3c0.8-1.4,1.3-2,2.1-2.6c1-0.8,2.2-1.3,3.3-1.3c3.1,0,4.8,2.3,4.5,6.2c-0.3,6.3-4.2,11.4-8.7,11.4
			c-1,0-1.7-0.1-2.9-0.5l-1.3,9h-3.9l1.7-10.9c-1.3-1.4-1.6-1.7-2.1-2.7l0.7-3.6c0.9,1.5,1.1,1.9,2,3l2-13.4l3.7-0.6L33.5,43.3z
			 M32.3,53.4c0.6,0.3,1,0.5,1.7,0.5c1.7,0.1,3-0.8,4.1-2.6c0.9-1.7,1.5-4.2,1.4-6.1c-0.1-1.5-0.8-2.4-2-2.4
			c-1.5,0.1-2.7,1.4-4.2,4.4L32.3,53.4z"/>
		<path class="st0" d="M59.1,49.2c-0.1,1-0.3,2.2-0.3,2.9c-0.1,1.6,0.3,2.1,1.8,2.1l-0.8,2.5c-0.4,0.1-0.6,0.1-1.1,0.1
			c-2.7,0-3.7-1.1-3.6-3.9c-1.8,2.9-3.4,4-5.7,4c-2.8,0-4.5-2.6-4.2-6.5c0.5-6.2,4.4-10.7,9.4-11c1.8-0.1,3.6,0.1,5.9,0.8L59.1,49.2
			z M56.2,42.7c-1.1-0.2-1.6-0.3-2.3-0.2c-1.5,0.2-2.5,1-3.4,2.6c-0.8,1.4-1.3,3.1-1.4,4.8c-0.2,2.4,0.5,3.7,2,3.7
			c1.3,0,2.6-1.3,4.2-4.2L56.2,42.7z"/>
		<path class="st0" d="M74,43.5c-0.7-0.1-1-0.1-1.4-0.1c-1.8,0.2-3.5,2-4.9,5.3l-1.2,7.7h-3.8l1.5-10.1c0.1-0.6,0.2-1.3,0.3-2.1
			c0.1-1.5,0.1-2.7-0.2-3.4c0,0-0.1-0.2-0.3-0.5l3.3-0.8c0.6,0.6,0.9,1.5,0.9,2.8c0,0.6,0,0.8-0.1,1.1L68,44.7
			c1-1.8,1.3-2.3,1.9-3.1c1.1-1.4,2.1-2,3.5-2.1c0.4,0,0.8,0,1.4,0.2L74,43.5z"/>
		<path class="st0" d="M87.9,49.2c-0.1,1-0.3,2.2-0.3,2.9c-0.1,1.6,0.3,2.1,1.8,2.1l-0.8,2.5c-0.4,0.1-0.6,0.1-1.1,0.1
			c-2.7,0-3.7-1.1-3.6-3.9c-1.8,2.9-3.4,4-5.7,4c-2.8,0-4.5-2.6-4.2-6.5c0.5-6.2,4.4-10.7,9.4-11c1.8-0.1,3.6,0.1,5.9,0.8L87.9,49.2
			z M85,42.7c-1.1-0.2-1.6-0.3-2.3-0.2c-1.5,0.2-2.5,1-3.4,2.6c-0.8,1.4-1.3,3.1-1.4,4.8c-0.2,2.4,0.5,3.7,2,3.7
			c1.3,0,2.6-1.3,4.2-4.2L85,42.7z"/>
		<path class="st0" d="M105.2,49.2c-0.1,1-0.3,2.2-0.3,2.9c-0.1,1.6,0.3,2.1,1.8,2.1l-0.8,2.5c-0.4,0.1-0.6,0.1-1.1,0.1
			c-2.7,0-3.7-1.1-3.6-3.9c-1.8,2.9-3.4,4-5.7,4c-2.8,0-4.5-2.6-4.2-6.5c0.5-6.3,4.3-10.7,9.4-10.9c0.7,0,1.2,0,2.1,0.1l1.3-8.8h3.8
			L105.2,49.2z M102.4,42.7c-1.1-0.2-1.6-0.3-2.3-0.2c-1.5,0.2-2.5,1-3.4,2.6c-0.8,1.4-1.3,3.1-1.4,4.8c-0.2,2.4,0.5,3.7,2,3.7
			c1.3,0,2.6-1.3,4.2-4.2L102.4,42.7z"/>
		<path class="st0" d="M123.7,46.5c0,2.4-0.9,5.2-2.4,7.3c-1.6,2.1-3.7,3.2-6.2,3.2c-3.8,0-6-2.5-6-6.9c0-2.5,0.9-5.4,2.3-7.3
			c1.5-2.2,3.8-3.3,6.3-3.3C121.6,39.4,123.7,42,123.7,46.5z M114.2,44.9c-0.7,1.5-1.1,3.4-1.1,5.1c0,2.5,0.8,3.9,2.4,3.9
			c1.3,0,2.3-0.7,3-2.3c0.8-1.5,1.2-3.2,1.2-4.9c0-2.8-0.8-4.1-2.5-4.1C116,42.5,114.9,43.4,114.2,44.9z"/>
		<path class="st0" d="M136.7,43.5c-0.7-0.1-1-0.1-1.4-0.1c-1.8,0.2-3.5,2-4.9,5.3l-1.2,7.7h-3.8l1.5-10.1c0.1-0.6,0.2-1.3,0.3-2.1
			c0.1-1.5,0.1-2.7-0.2-3.4c0,0-0.1-0.2-0.3-0.5l3.3-0.8c0.6,0.6,0.9,1.5,0.9,2.8c0,0.6,0,0.8-0.1,1.1l-0.1,1.3
			c1-1.8,1.3-2.3,1.9-3.1c1.1-1.4,2.1-2,3.5-2.1c0.4,0,0.8,0,1.4,0.2L136.7,43.5z"/>
		<path class="st0" d="M141.3,54.5c0-1.4,0.9-2.3,2.2-2.3c1.3,0,2.2,1,2.2,2.3c0,1.3-0.8,2.3-2.2,2.3
			C142.2,56.9,141.3,55.9,141.3,54.5z M153.6,54.5c0-1.4,0.9-2.3,2.2-2.3s2.1,1,2.2,2.3c0,1.3-0.9,2.3-2.2,2.3
			C154.5,56.9,153.5,55.9,153.6,54.5z M165.9,54.5c0-1.4,0.9-2.3,2.2-2.3c1.3,0,2.2,1,2.2,2.3c0,1.3-0.8,2.3-2.2,2.3
			C166.8,56.9,165.9,55.9,165.9,54.5z"/>
	</g>
</g>
</svg>
