<!-- Generator: Adobe Illustrator 20.1.0, SVG Export Plug-In  -->
<svg version="1.1"
	 xmlns="http://www.w3.org/2000/svg" xmlns:xlink="http://www.w3.org/1999/xlink" xmlns:a="http://ns.adobe.com/AdobeSVGViewerExtensions/3.0/"
	 x="0px" y="0px" width="413.1px" height="18.2px" viewBox="0 0 413.1 18.2"
	 style="overflow:scroll;enable-background:new 0 0 413.1 18.2;" xml:space="preserve">
<style type="text/css">
	.st0{fill:#FFFFFF;}
</style>
<defs>
</defs>
<g>
	<path class="st0" d="M0,1.2h8.8v2.4H3.1v4.5h5.4v2.4H3.1v4.9h6V18H0V1.2z"/>
	<path class="st0" d="M11,15.1c0.5,0.2,1.7,0.8,3.1,0.8c1.1,0,1.9-0.3,1.9-1.2c0-0.5-0.2-0.9-1.3-1.6l-1.2-0.7
		c-1.2-0.7-2.6-1.5-2.6-3.5c0-1.7,1.7-3.5,4.3-3.5c1.6,0,2.8,0.4,3.1,0.5L18,8.3c-0.7-0.3-1.5-0.6-2.6-0.6c-1.2,0-1.7,0.5-1.7,1.2
		c0,0.7,0.5,1,1.4,1.6l1.5,0.9c1.5,1,2.3,1.7,2.3,3.1c0,2.3-1.9,3.6-4.6,3.6c-1.5,0-2.8-0.4-3.4-0.6L11,15.1z"/>
	<path class="st0" d="M27.5,6.4c0.8-0.4,2-0.9,3.9-0.9c3.8,0,4.7,1.9,4.7,5v5.4c0,0.9,0.1,1.7,0.2,2.2h-2.7
		c-0.1-0.5-0.2-1.1-0.2-1.7h0c-0.7,1-1.7,1.9-3.5,1.9c-1.9,0-3.7-1.3-3.7-3.6c0-3.4,2.7-4.2,6.5-4.2h0.6V9.9c0-1.2-0.6-2.4-2.3-2.4
		c-1.5,0-2.8,0.7-3.4,1.2L27.5,6.4z M33.3,12H33c-2.5,0-4.1,0.5-4.1,2.3c0,1.1,0.7,1.9,1.9,1.9c1.8,0,2.4-1.3,2.4-3.5V12z"/>
	<path class="st0" d="M48.4,16c0,0.8,0,1.5,0.1,2h-2.8c0-0.6-0.1-1.3-0.1-1.9l-0.1,0l0,0c-0.6,0.9-1.3,2.1-3.3,2.1
		c-2.8,0-3.6-2.1-3.6-4.6v-8h3v7.4c0,1.9,0.5,2.7,1.8,2.7c1.6,0,2-1.4,2-3V5.6h3V16z"/>
	<path class="st0" d="M53.3,11.3l-3.4-5.7h3.4l1.9,4l2-4h3.1l-3.4,5.7l3.7,6.7h-3.3L55,13.4L52.7,18h-3.2L53.3,11.3z"/>
	<path class="st0" d="M61.9,0.4H65v2.9h-3.1V0.4z M62,5.6h3V18h-3V5.6z"/>
	<path class="st0" d="M68,0h3v18h-3V0z"/>
	<path class="st0" d="M73.9,0.4H77v2.9h-3.1V0.4z M74,5.6h3V18h-3V5.6z"/>
	<path class="st0" d="M80.3,6.4c0.8-0.4,2-0.9,3.9-0.9c3.8,0,4.7,1.9,4.7,5v5.4c0,0.9,0.1,1.7,0.2,2.2h-2.7
		c-0.1-0.5-0.2-1.1-0.2-1.7h0c-0.7,1-1.7,1.9-3.5,1.9c-1.9,0-3.7-1.3-3.7-3.6c0-3.4,2.7-4.2,6.5-4.2h0.6V9.9c0-1.2-0.6-2.4-2.3-2.4
		c-1.5,0-2.8,0.7-3.4,1.2L80.3,6.4z M86.2,12h-0.3c-2.5,0-4.1,0.5-4.1,2.3c0,1.1,0.7,1.9,1.9,1.9c1.8,0,2.4-1.3,2.4-3.5V12z"/>
	<path class="st0" d="M91.6,7.7c0-0.8,0-1.5-0.1-2h2.7c0,0.7,0.1,1.5,0.1,2.3h0c0.4-1,1.3-2.4,3.1-2.4c0.2,0,0.3,0,0.5,0.1v2.8
		c-0.3-0.1-0.5-0.1-0.8-0.1c-1.2,0-2.6,0.7-2.6,3V18h-3V7.7z"/>
	<path class="st0" d="M114.7,17.4c-0.6,0.3-1.9,0.8-3.7,0.8c-4,0-5.7-2.9-5.7-6.2c0-3.7,1.9-6.6,5.1-6.6c2.7,0,4.9,1.6,4.9,6.6v0.6
		h-7.2c0,2.1,0.8,3.4,3.1,3.4c1.8,0,2.7-0.6,3.2-1L114.7,17.4z M112.5,10.8c0-2.2-0.7-3.3-2.1-3.3c-1.6,0-2.2,1.7-2.2,3.3H112.5z"/>
	<path class="st0" d="M117.4,7.7c0-0.8,0-1.5-0.1-2h2.8c0,0.6,0.1,1.3,0.1,1.9h0c0.4-0.7,1.3-2.1,3.3-2.1c2.8,0,3.6,2.1,3.6,4.6v8
		h-3v-7.4c0-1.9-0.5-2.7-1.7-2.7c-1.6,0-2.1,1.3-2.1,2.9V18h-3V7.7z"/>
	<path class="st0" d="M144.7,17.4c-0.6,0.3-1.9,0.8-3.7,0.8c-4,0-5.7-2.9-5.7-6.2c0-3.7,1.9-6.6,5.1-6.6c2.7,0,4.9,1.6,4.9,6.6v0.6
		h-7.2c0,2.1,0.8,3.4,3.1,3.4c1.8,0,2.7-0.6,3.2-1L144.7,17.4z M142.5,10.8c0-2.2-0.7-3.3-2.1-3.3c-1.6,0-2.2,1.7-2.2,3.3H142.5z"/>
	<path class="st0" d="M147.7,0h3v18h-3V0z"/>
	<path class="st0" d="M160.5,3.1l3-0.9v3.5h2.5v2.2h-2.5v6.4c0,1.3,0.5,1.7,1.3,1.7c0.5,0,0.9-0.1,1.1-0.3v2.1
		c-0.5,0.2-1.1,0.4-2,0.4c-2.2,0-3.5-1-3.5-3.6V7.8h-2V5.6h2V3.1z"/>
	<path class="st0" d="M167.7,7.7c0-0.8,0-1.5-0.1-2h2.7c0,0.7,0.1,1.5,0.1,2.3h0c0.4-1,1.3-2.4,3.1-2.4c0.2,0,0.3,0,0.5,0.1v2.8
		c-0.3-0.1-0.5-0.1-0.8-0.1c-1.2,0-2.6,0.7-2.6,3V18h-3V7.7z"/>
	<path class="st0" d="M176.2,6.4c0.8-0.4,2-0.9,3.9-0.9c3.8,0,4.7,1.9,4.7,5v5.4c0,0.9,0.1,1.7,0.2,2.2h-2.7
		c-0.1-0.5-0.2-1.1-0.2-1.7h0c-0.7,1-1.7,1.9-3.5,1.9c-1.9,0-3.7-1.3-3.7-3.6c0-3.4,2.7-4.2,6.5-4.2h0.6V9.9c0-1.2-0.6-2.4-2.3-2.4
		c-1.5,0-2.8,0.7-3.4,1.2L176.2,6.4z M182,12h-0.3c-2.5,0-4.1,0.5-4.1,2.3c0,1.1,0.7,1.9,1.9,1.9c1.8,0,2.4-1.3,2.4-3.5V12z"/>
	<path class="st0" d="M188.4,3.1l3-0.9v3.5h2.5v2.2h-2.5v6.4c0,1.3,0.5,1.7,1.3,1.7c0.5,0,0.9-0.1,1.1-0.3v2.1
		c-0.5,0.2-1.1,0.4-2,0.4c-2.2,0-3.5-1-3.5-3.6V7.8h-2V5.6h2V3.1z"/>
	<path class="st0" d="M196.2,6.4c0.8-0.4,2-0.9,3.9-0.9c3.8,0,4.7,1.9,4.7,5v5.4c0,0.9,0.1,1.7,0.2,2.2h-2.7
		c-0.1-0.5-0.2-1.1-0.2-1.7h0c-0.7,1-1.7,1.9-3.5,1.9c-1.9,0-3.7-1.3-3.7-3.6c0-3.4,2.7-4.2,6.5-4.2h0.6V9.9c0-1.2-0.6-2.4-2.3-2.4
		c-1.5,0-2.8,0.7-3.4,1.2L196.2,6.4z M202,12h-0.3c-2.5,0-4.1,0.5-4.1,2.3c0,1.1,0.7,1.9,1.9,1.9c1.8,0,2.4-1.3,2.4-3.5V12z"/>
	<path class="st0" d="M207.2,7.7c0-0.9,0-1.6-0.1-2h3c0,0.6,0.1,1.3,0.1,1.9h0c0.5-1,1.4-2.1,3.1-2.1c2.1,0,2.8,1.3,3.1,2
		c0.6-0.9,1.5-2,3.3-2c2.7,0,3.6,1.9,3.6,4.9V18h-3v-7.8c0-1.5-0.5-2.3-1.6-2.3c-1.3,0-2,1.2-2,2.6V18h-3v-7.8
		c0-1.5-0.5-2.3-1.6-2.3c-1.3,0-2,1.2-2,2.6V18h-3V7.7z"/>
	<path class="st0" d="M226,0.4h3.1v2.9H226V0.4z M226,5.6h3V18h-3V5.6z"/>
	<path class="st0" d="M240.8,17.4c-0.6,0.3-1.9,0.8-3.7,0.8c-4,0-5.7-2.9-5.7-6.2c0-3.7,1.9-6.6,5.1-6.6c2.7,0,4.9,1.6,4.9,6.6v0.6
		h-7.2c0,2.1,0.8,3.4,3.1,3.4c1.8,0,2.7-0.6,3.2-1L240.8,17.4z M238.6,10.8c0-2.2-0.7-3.3-2.1-3.3c-1.6,0-2.2,1.7-2.2,3.3H238.6z"/>
	<path class="st0" d="M243.5,7.7c0-0.8,0-1.5-0.1-2h2.8c0,0.6,0.1,1.3,0.1,1.9h0c0.4-0.7,1.3-2.1,3.3-2.1c2.8,0,3.6,2.1,3.6,4.6v8
		h-3v-7.4c0-1.9-0.5-2.7-1.7-2.7c-1.6,0-2.1,1.3-2.1,2.9V18h-3V7.7z"/>
	<path class="st0" d="M256.8,3.1l3-0.9v3.5h2.5v2.2h-2.5v6.4c0,1.3,0.5,1.7,1.3,1.7c0.5,0,0.9-0.1,1.1-0.3v2.1
		c-0.5,0.2-1.1,0.4-2,0.4c-2.2,0-3.5-1-3.5-3.6V7.8h-2V5.6h2V3.1z"/>
	<path class="st0" d="M269,5.4c2.5,0,5.4,1.3,5.4,6.4c0,5.2-2.9,6.4-5.4,6.4c-2.5,0-5.4-1.2-5.4-6.4C263.6,6.8,266.5,5.4,269,5.4z
		 M269,16.1c1.9,0,2.4-2.2,2.4-4.3c0-2.1-0.4-4.2-2.4-4.2c-1.9,0-2.4,2.2-2.4,4.2C266.7,13.9,267.1,16.1,269,16.1z"/>
	<path class="st0" d="M292.7,0v15.9c0,0.9,0,1.7,0.1,2.1H290c0-0.4-0.1-1.1-0.1-1.9h-0.1c-0.5,1.1-1.4,2.1-3.3,2.1
		c-3.1,0-4.3-2.9-4.3-6.4c0-4,1.6-6.4,4.3-6.4c1.8,0,2.8,1,3.2,2h0V0H292.7z M287.4,16c1.8,0,2.4-1.9,2.4-4.2c0-2.4-0.7-4.2-2.3-4.2
		c-1.7,0-2.2,1.6-2.2,4.1C285.2,14.6,285.7,16,287.4,16z"/>
	<path class="st0" d="M304.3,17.4c-0.6,0.3-1.9,0.8-3.7,0.8c-4,0-5.7-2.9-5.7-6.2c0-3.7,1.9-6.6,5.1-6.6c2.7,0,4.9,1.6,4.9,6.6v0.6
		h-7.2c0,2.1,0.8,3.4,3.1,3.4c1.8,0,2.7-0.6,3.2-1L304.3,17.4z M302,10.8c0-2.2-0.7-3.3-2.1-3.3c-1.6,0-2.2,1.7-2.2,3.3H302z"/>
	<path class="st0" d="M307.3,0h3v18h-3V0z"/>
	<path class="st0" d="M319.2,0.4h3.1v2.9h-3.1V0.4z M319.3,5.6h3V18h-3V5.6z"/>
	<path class="st0" d="M325,7.7c0-0.8,0-1.5-0.1-2h2.8c0,0.6,0.1,1.3,0.1,1.9h0c0.4-0.7,1.3-2.1,3.3-2.1c2.8,0,3.6,2.1,3.6,4.6v8h-3
		v-7.4c0-1.9-0.5-2.7-1.7-2.7c-1.6,0-2.1,1.3-2.1,2.9V18h-3V7.7z"/>
	<path class="st0" d="M336.9,15.1c0.5,0.2,1.7,0.8,3.1,0.8c1.1,0,1.9-0.3,1.9-1.2c0-0.5-0.2-0.9-1.3-1.6l-1.2-0.7
		c-1.2-0.7-2.6-1.5-2.6-3.5c0-1.7,1.7-3.5,4.3-3.5c1.6,0,2.8,0.4,3.1,0.5l-0.2,2.3c-0.7-0.3-1.5-0.6-2.6-0.6c-1.2,0-1.7,0.5-1.7,1.2
		c0,0.7,0.5,1,1.4,1.6l1.5,0.9c1.5,1,2.3,1.7,2.3,3.1c0,2.3-1.9,3.6-4.6,3.6c-1.5,0-2.8-0.4-3.4-0.6L336.9,15.1z"/>
	<path class="st0" d="M351.8,5.4c2.5,0,5.4,1.3,5.4,6.4c0,5.2-2.9,6.4-5.4,6.4c-2.5,0-5.4-1.2-5.4-6.4
		C346.4,6.8,349.3,5.4,351.8,5.4z M351.8,16.1c1.9,0,2.4-2.2,2.4-4.3c0-2.1-0.4-4.2-2.4-4.2c-1.9,0-2.4,2.2-2.4,4.2
		C349.5,13.9,349.9,16.1,351.8,16.1z"/>
	<path class="st0" d="M359.3,7.7c0-0.9,0-1.6-0.1-2h3c0,0.6,0.1,1.3,0.1,1.9h0c0.5-1,1.4-2.1,3.1-2.1c2.1,0,2.8,1.3,3.1,2
		c0.6-0.9,1.5-2,3.3-2c2.7,0,3.6,1.9,3.6,4.9V18h-3v-7.8c0-1.5-0.5-2.3-1.6-2.3c-1.3,0-2,1.2-2,2.6V18h-3v-7.8
		c0-1.5-0.5-2.3-1.6-2.3c-1.3,0-2,1.2-2,2.6V18h-3V7.7z"/>
	<path class="st0" d="M377.8,7.7c0-0.8,0-1.5-0.1-2h2.8c0,0.6,0.1,1.3,0.1,1.9h0c0.4-0.7,1.3-2.1,3.3-2.1c2.8,0,3.6,2.1,3.6,4.6v8
		h-3v-7.4c0-1.9-0.5-2.7-1.7-2.7c-1.6,0-2.1,1.3-2.1,2.9V18h-3V7.7z"/>
	<path class="st0" d="M390.3,0.4h3.1v2.9h-3.1V0.4z M390.3,5.6h3V18h-3V5.6z"/>
	<path class="st0" d="M401.1,5.4c2.5,0,5.4,1.3,5.4,6.4c0,5.2-2.9,6.4-5.4,6.4c-2.5,0-5.4-1.2-5.4-6.4
		C395.7,6.8,398.6,5.4,401.1,5.4z M401.1,16.1c1.9,0,2.4-2.2,2.4-4.3c0-2.1-0.4-4.2-2.4-4.2c-1.9,0-2.4,2.2-2.4,4.2
		C398.8,13.9,399.2,16.1,401.1,16.1z"/>
	<path class="st0" d="M408,8.5c0.6,0.3,1.3,0.6,1.9,0.6c1.1,0,2-0.8,2-2c0-1-0.7-1.7-1.9-1.7H409v-1h0.5c1.5,0,2.3-0.7,2.3-1.7
		c0-1-0.7-1.6-1.7-1.6c-0.5,0-1.2,0.2-1.8,0.5l-0.1-1.1c0.6-0.3,1.4-0.4,2.1-0.4c1.5,0,2.7,0.8,2.7,2.4c0,1.3-0.8,2.1-1.8,2.3v0
		c1.2,0.2,1.9,1.2,1.9,2.4c0,1.5-1,2.8-3.2,2.8c-0.7,0-1.6-0.2-2.1-0.4L408,8.5z"/>
</g>
</svg>
