<!-- Generator: Adobe Illustrator 20.1.0, SVG Export Plug-In  -->
<svg version="1.1"
	 xmlns="http://www.w3.org/2000/svg" xmlns:xlink="http://www.w3.org/1999/xlink" xmlns:a="http://ns.adobe.com/AdobeSVGViewerExtensions/3.0/"
	 x="0px" y="0px" width="145.5px" height="430.2px" viewBox="0 0 145.5 430.2"
	 style="overflow:scroll;enable-background:new 0 0 145.5 430.2;" xml:space="preserve">
<style type="text/css">
	.st0{opacity:0.3;fill:#808184;}
</style>
<defs>
</defs>
<path class="st0" d="M110.6,412.7H55.2c-21,0-38.3-17.7-38.7-39.5c-0.2-10.9,3.7-21.2,10.9-28.9c7.2-7.8,16.8-12,27-12h35.9
	c29.9,0,54.7-25.5,55.2-56.8c0.2-15.6-5.3-30.4-15.6-41.5c-10.3-11.1-24.1-17.3-38.8-17.3H55.2c-21,0-38.3-17.7-38.7-39.5
	c-0.2-10.9,3.7-21.1,10.8-28.9c7.3-7.9,17.4-12.1,27.7-12.1h35.2c29.9,0,54.7-25.5,55.2-56.8c0.2-15.4-5.1-29.9-15.1-40.9
	c-10.4-11.6-25.1-17.8-40.2-17.8H72.7c-5.6,0-10.1-4.8-10.1-10.7V0H46.2v9.9c0,15.6,11.9,28.2,26.6,28.2h17.7
	c10.4,0,20.5,4.2,27.7,12.1c7.2,7.7,11,18,10.8,28.9c-0.3,21.8-17.7,39.5-38.7,39.5H54.4c-14.7,0-28.5,6.1-38.8,17.3
	C5.3,147-0.2,161.8,0,177.4c0.5,31.3,25.2,56.8,55.2,56.8h35.9c10.2,0,19.8,4.3,27,12c7.2,7.8,11,18,10.9,28.9
	c-0.3,21.8-17.7,39.5-38.7,39.5H54.4c-14.7,0-28.5,6.1-38.8,17.3C5.3,343.1-0.2,357.8,0,373.4c0.5,31.3,25.2,56.8,55.2,56.8h56.3"/>
</svg>
