<!-- Generator: Adobe Illustrator 20.1.0, SVG Export Plug-In  -->
<svg version="1.1"
	 xmlns="http://www.w3.org/2000/svg" xmlns:xlink="http://www.w3.org/1999/xlink" xmlns:a="http://ns.adobe.com/AdobeSVGViewerExtensions/3.0/"
	 x="0px" y="0px" width="130.9px" height="67.4px" viewBox="0 0 130.9 67.4"
	 style="overflow:scroll;enable-background:new 0 0 130.9 67.4;" xml:space="preserve">
<style type="text/css">
	.st0{fill:#D51D70;}
	.st1{fill:url(#XMLID_3_);}
	.st2{fill-rule:evenodd;clip-rule:evenodd;fill:#D51D70;}
	.st3{fill:url(#XMLID_4_);}
</style>
<defs>
</defs>
<g>
	<path id="XMLID_2_" class="st0" d="M73.4,9.9c-7.1,7.1-10.3,16.5-9.8,25.7c0.4,8,3.7,15.8,9.8,21.9c6.1,6.1,13.9,9.4,21.9,9.8
		c9.3,0.5,18.7-2.7,25.7-9.8c13.2-13.2,13.2-34.5,0-47.6C107.9-3.3,86.5-3.3,73.4,9.9z"/>
	
		<linearGradient id="XMLID_3_" gradientUnits="userSpaceOnUse" x1="285.7572" y1="15.1416" x2="322.4514" y2="54.0938" gradientTransform="matrix(-1 0 0 1 400.4461 0)">
		<stop  offset="0" style="stop-color:#FFFFFF"/>
		<stop  offset="0.9847" style="stop-color:#D2D3D4"/>
		<stop  offset="1" style="stop-color:#D1D2D3"/>
	</linearGradient>
	<circle id="XMLID_1_" class="st1" cx="97.2" cy="33.7" r="27.2"/>
</g>
<path class="st0" d="M66.8,35H20.6c-2.3,0-4.4-1.4-5.7-3.5c-1.5-2.4-3.9-3.9-6.7-3.9c-4.6,0-8.4,4.3-8.2,9.6c0.2,4.8,3.7,8.7,8,8.8
	c2.9,0.1,5.5-1.5,7-4.1c1.2-2.1,3.3-3.3,5.6-3.3H67C66.9,37.5,66.9,36.2,66.8,35z"/>
<g>
	<path class="st0" d="M77.7,36c0-0.9,0-1.7,0-2.6c0.1-0.6,0.1-1.1,0.2-1.7c0.6-3.8,2.4-7.2,5.1-9.9c2.9-2.8,6.3-4.5,10.3-5
		c0.8-0.1,1.5-0.1,2.4-0.2c0,6.1,0,12,0,18c6,0,12,0,18,0c0,1.3-0.1,2.5-0.3,3.6c-0.8,3.8-2.6,7-5.4,9.6c-4.3,3.9-9.4,5.4-15.1,4.5
		c-3.7-0.6-6.9-2.2-9.6-4.8c-2.7-2.7-4.5-5.9-5.2-9.7C77.9,37.3,77.8,36.6,77.7,36z"/>
	<path class="st2" d="M117.8,31.6c-0.2,0-0.3,0-0.5,0c-5.6,0-11.3,0-16.9,0c-0.2,0-0.3,0-0.5,0c0-6,0-12,0-18.1
		c1,0.1,1.9,0.1,2.9,0.3c4,0.7,7.5,2.5,10.3,5.5c2.5,2.6,4,5.8,4.6,9.3c0.1,0.5,0.2,1.1,0.2,1.7C117.8,30.8,117.8,31.2,117.8,31.6z"
		/>
</g>
</svg>
