<!-- Generator: Adobe Illustrator 20.1.0, SVG Export Plug-In  -->
<svg version="1.1"
	 xmlns="http://www.w3.org/2000/svg" xmlns:xlink="http://www.w3.org/1999/xlink" xmlns:a="http://ns.adobe.com/AdobeSVGViewerExtensions/3.0/"
	 x="0px" y="0px" width="14.8px" height="322.7px" viewBox="0 0 14.8 322.7"
	 style="overflow:scroll;enable-background:new 0 0 14.8 322.7;" xml:space="preserve">
<style type="text/css">
	.st0{fill:#E2829D;}
	.st1{fill:#FFFFFF;}
</style>
<defs>
</defs>
<rect class="st0" width="14.8" height="322.7"/>
<g>
	<path class="st1" d="M8.2,305.1v2.9h2.2v-3.3h1.1v4.7H4v-4.5h1.1v3.1h1.9v-2.9H8.2z"/>
	<path class="st1" d="M11.2,296c0.2,0.5,0.4,1.5,0.4,2.5c0,1.3-0.3,2.3-1,3c-0.6,0.7-1.6,1.1-2.8,1.1c-2.4,0-3.9-1.7-3.9-4.3
		c0-1,0.2-1.7,0.4-2.1l1.1,0.3c-0.2,0.4-0.3,0.9-0.3,1.8c0,1.7,0.9,2.8,2.7,2.8c1.7,0,2.7-1.1,2.7-2.7c0-0.5-0.1-0.9-0.2-1.1H8.4
		v1.4H7.4V296H11.2z"/>
	<path class="st1" d="M11.5,293.4c-0.4,0-1,0-1.5,0H3.6V292h3.2v0c-0.5-0.3-0.9-1-0.9-1.8c0-1.4,1.1-2.3,2.7-2.3
		c1.9,0,2.9,1.3,2.9,2.5c0,0.7-0.3,1.4-0.9,1.8v0l0.8,0.1V293.4z M9.3,292c0.1,0,0.2,0,0.3,0c0.5-0.1,1-0.6,1-1.2
		c0-0.9-0.7-1.4-1.8-1.4c-1,0-1.7,0.5-1.7,1.4c0,0.6,0.4,1.1,1,1.2c0.1,0,0.2,0,0.4,0H9.3z"/>
	<path class="st1" d="M4.3,276.8h0.9l6.4,3.2v1.5l-6.1-3.1h0v3.5H4.3V276.8z"/>
	<path class="st1" d="M5.2,270c0,0.2,0,0.4,0,0.7c0.2,1.6,1.1,2.3,2.1,2.5v0c-0.4-0.4-0.7-0.9-0.7-1.7c0-1.3,0.9-2.3,2.4-2.3
		c1.4,0,2.6,1,2.6,2.6c0,1.8-1.3,2.8-3.1,2.8c-1.4,0-2.5-0.5-3.2-1.3c-0.6-0.7-1-1.6-1.1-2.6c0-0.3,0-0.5,0-0.7L5.2,270z M9.1,270.7
		c-0.8,0-1.4,0.5-1.4,1.3c0,0.5,0.3,1,0.7,1.2c0.1,0.1,0.2,0.1,0.4,0.1c1,0,1.7-0.5,1.7-1.4C10.6,271.1,10,270.7,9.1,270.7z"/>
	<path class="st1" d="M5.5,264.9L5.5,264.9l0.7,1.4l-1,0.2l-0.9-1.8v-1.2h7.2v1.4H5.5z"/>
	<path class="st1" d="M5.7,255.6c1.1,0,1.9,0.9,1.9,2c0,1.1-0.8,2-1.9,2c-1,0-1.9-0.9-1.9-2C3.9,256.5,4.7,255.6,5.7,255.6z
		 M5.8,259.1c0.8,0,1.4-0.6,1.4-1.4s-0.6-1.4-1.4-1.4c-0.8,0-1.4,0.6-1.4,1.4S5,259.1,5.8,259.1z M6.7,257.9v0.5H4.9
		c0-0.1-0.1-0.4-0.1-0.8c0-0.4,0.1-0.6,0.1-0.7c0.1-0.1,0.2-0.2,0.4-0.2c0.2,0,0.3,0.2,0.4,0.4h0c0.1-0.2,0.2-0.3,0.5-0.4
		c0.3-0.1,0.4-0.1,0.4-0.1v0.6c-0.1,0.1-0.2,0.1-0.4,0.1c-0.2,0-0.3,0.1-0.3,0.3v0.2H6.7z M5.7,257.9v-0.2c0-0.2-0.1-0.4-0.2-0.4
		c-0.2,0-0.2,0.1-0.2,0.4c0,0.1,0,0.2,0,0.2H5.7z"/>
</g>
</svg>
