<!-- Generator: Adobe Illustrator 20.1.0, SVG Export Plug-In  -->
<svg version="1.1"
	 xmlns="http://www.w3.org/2000/svg" xmlns:xlink="http://www.w3.org/1999/xlink" xmlns:a="http://ns.adobe.com/AdobeSVGViewerExtensions/3.0/"
	 x="0px" y="0px" width="43.9px" height="322.7px" viewBox="0 0 43.9 322.7"
	 style="overflow:scroll;enable-background:new 0 0 43.9 322.7;" xml:space="preserve">
<style type="text/css">
	.st0{fill:#EB247E;}
	.st1{fill:#DB5A84;}
	.st2{fill:#E2829D;}
	.st3{fill:#FFFFFF;}
</style>
<defs>
</defs>
<rect class="st0" width="14.8" height="322.7"/>
<rect x="14.4" class="st1" width="14.8" height="322.7"/>
<rect x="29.1" class="st2" width="14.8" height="322.7"/>
<g>
	<path class="st3" d="M37.3,305.1v2.9h2.2v-3.3h1.1v4.7h-7.5v-4.5h1.1v3.1h1.9v-2.9H37.3z"/>
	<path class="st3" d="M40.3,296c0.2,0.5,0.4,1.5,0.4,2.5c0,1.3-0.3,2.3-1,3c-0.6,0.7-1.6,1.1-2.8,1.1c-2.4,0-3.9-1.7-3.9-4.3
		c0-1,0.2-1.7,0.4-2.1l1.1,0.3c-0.2,0.4-0.3,0.9-0.3,1.8c0,1.7,0.9,2.8,2.7,2.8c1.7,0,2.7-1.1,2.7-2.7c0-0.5-0.1-0.9-0.2-1.1h-1.9
		v1.4h-1.1V296H40.3z"/>
	<path class="st3" d="M40.6,293.4c-0.4,0-1,0-1.5,0h-6.4V292h3.2v0c-0.5-0.3-0.9-1-0.9-1.8c0-1.4,1.1-2.3,2.7-2.3
		c1.9,0,2.9,1.3,2.9,2.5c0,0.7-0.3,1.4-0.9,1.8v0l0.8,0.1V293.4z M38.4,292c0.1,0,0.2,0,0.3,0c0.5-0.1,1-0.6,1-1.2
		c0-0.9-0.7-1.4-1.8-1.4c-1,0-1.7,0.5-1.7,1.4c0,0.6,0.4,1.1,1,1.2c0.1,0,0.2,0,0.4,0H38.4z"/>
	<path class="st3" d="M33.4,276.8h0.9l6.4,3.2v1.5l-6.1-3.1h0v3.5h-1.1V276.8z"/>
	<path class="st3" d="M34.3,270c0,0.2,0,0.4,0,0.7c0.2,1.6,1.1,2.3,2.1,2.5v0c-0.4-0.4-0.7-0.9-0.7-1.7c0-1.3,0.9-2.3,2.4-2.3
		c1.4,0,2.6,1,2.6,2.6c0,1.8-1.3,2.8-3.1,2.8c-1.4,0-2.5-0.5-3.2-1.3c-0.6-0.7-1-1.6-1.1-2.6c0-0.3,0-0.5,0-0.7L34.3,270z
		 M38.2,270.7c-0.8,0-1.4,0.5-1.4,1.3c0,0.5,0.3,1,0.7,1.2c0.1,0.1,0.2,0.1,0.4,0.1c1,0,1.7-0.5,1.7-1.4
		C39.7,271.1,39.1,270.7,38.2,270.7z"/>
	<path class="st3" d="M34.6,264.9L34.6,264.9l0.7,1.4l-1,0.2l-0.9-1.8v-1.2h7.2v1.4H34.6z"/>
	<path class="st3" d="M34.8,255.6c1.1,0,1.9,0.9,1.9,2c0,1.1-0.8,2-1.9,2c-1,0-1.9-0.9-1.9-2C33,256.5,33.8,255.6,34.8,255.6z
		 M34.9,259.1c0.8,0,1.4-0.6,1.4-1.4s-0.6-1.4-1.4-1.4c-0.8,0-1.4,0.6-1.4,1.4S34.1,259.1,34.9,259.1z M35.8,257.9v0.5H34
		c0-0.1-0.1-0.4-0.1-0.8c0-0.4,0.1-0.6,0.1-0.7c0.1-0.1,0.2-0.2,0.4-0.2c0.2,0,0.3,0.2,0.4,0.4h0c0.1-0.2,0.2-0.3,0.5-0.4
		c0.3-0.1,0.4-0.1,0.4-0.1v0.6c-0.1,0.1-0.2,0.1-0.4,0.1c-0.2,0-0.3,0.1-0.3,0.3v0.2H35.8z M34.8,257.9v-0.2c0-0.2-0.1-0.4-0.2-0.4
		c-0.2,0-0.2,0.1-0.2,0.4c0,0.1,0,0.2,0,0.2H34.8z"/>
</g>
<g>
	<path class="st3" d="M26.4,306.6l-7.5,2.5v-1.5l3.4-1.1c0.9-0.3,1.8-0.5,2.7-0.8v0c-0.9-0.2-1.8-0.5-2.7-0.8l-3.4-1.1v-1.5l7.5,2.7
		V306.6z"/>
	<path class="st3" d="M17.2,295.8l1.3,1.4v1.1l-1.3-1V295.8z M23.1,295.6v2.9h2.2v-3.3h1.1v4.7h-7.5v-4.5H20v3.1H22v-2.9H23.1z"/>
	<path class="st3" d="M19,292.4c-0.1-0.5-0.2-1.3-0.2-2.1c0-1.1,0.2-1.9,0.6-2.4c0.3-0.4,0.9-0.7,1.5-0.7c1,0,1.6,0.7,1.9,1.4h0
		c0.2-0.6,0.7-0.9,1.4-1.1c0.9-0.2,1.8-0.4,2.1-0.6v1.5c-0.2,0.1-0.8,0.3-1.8,0.5c-1,0.2-1.3,0.6-1.3,1.4v0.7h3.1v1.4H19z M22.3,291
		v-0.8c0-1-0.5-1.5-1.2-1.5c-0.8,0-1.2,0.6-1.2,1.5c0,0.4,0,0.7,0.1,0.9H22.3z"/>
	<path class="st3" d="M20.1,282.8v2.2h-1.1v-5.8h1.1v2.2h6.4v1.4H20.1z"/>
	<path class="st3" d="M18.9,275.2h7.5v1.4h-7.5V275.2z"/>
	<path class="st3" d="M26.1,265.8c0.2,0.5,0.4,1.5,0.4,2.5c0,1.3-0.3,2.3-1,3c-0.6,0.7-1.6,1.1-2.8,1.1c-2.4,0-3.9-1.7-3.9-4.3
		c0-1,0.2-1.7,0.4-2.1l1.1,0.3c-0.2,0.4-0.3,0.9-0.3,1.8c0,1.7,0.9,2.8,2.7,2.8c1.7,0,2.7-1.1,2.7-2.7c0-0.5-0.1-0.9-0.2-1.1h-1.9
		v1.4h-1.1v-2.7H26.1z"/>
	<path class="st3" d="M22.6,255.9c2.5,0,3.9,1.6,3.9,3.7c0,2.2-1.6,3.6-3.8,3.6c-2.3,0-3.9-1.5-3.9-3.7
		C18.8,257.3,20.5,255.9,22.6,255.9z M22.7,261.7c1.5,0,2.7-0.8,2.7-2.1c0-1.4-1.2-2.1-2.8-2.1c-1.4,0-2.7,0.7-2.7,2.1
		C19.9,260.9,21.2,261.7,22.7,261.7z"/>
	<path class="st3" d="M23,246.7h0.9v2.9H23V246.7z"/>
	<path class="st3" d="M20.1,238.5v2.2h-1.1v-5.8h1.1v2.2h6.4v1.4H20.1z"/>
	<path class="st3" d="M18.9,230.9h7.5v1.4h-7.5V230.9z"/>
	<path class="st3" d="M26.4,227.7h-7.5v-1.6l3.2-2c0.8-0.5,1.7-1,2.5-1.3v0c-1,0.1-2,0.1-3.1,0.1h-2.6v-1.3h7.5v1.5l-3.3,2
		c-0.8,0.5-1.7,1-2.6,1.4l0,0c1-0.1,2-0.1,3.2-0.1h2.7V227.7z"/>
	<path class="st3" d="M26.4,218.4h-7.5v-1.6l3.2-2c0.8-0.5,1.7-1,2.5-1.3v0c-1,0.1-2,0.1-3.1,0.1h-2.6v-1.3h7.5v1.5l-3.3,2
		c-0.8,0.5-1.7,1-2.6,1.4l0,0c1-0.1,2-0.1,3.2-0.1h2.7V218.4z"/>
	<path class="st3" d="M18.9,207.6h7.5v1.4h-7.5V207.6z"/>
	<path class="st3" d="M20.1,202.9v2.2h-1.1v-5.8h1.1v2.2h6.4v1.4H20.1z"/>
	<path class="st3" d="M18.9,195.4h4.4c1.5,0,2.1-0.6,2.1-1.6c0-1-0.7-1.6-2.1-1.6h-4.4v-1.4h4.3c2.3,0,3.3,1.2,3.3,3.1
		c0,1.8-1,2.9-3.3,2.9h-4.3V195.4z"/>
	<path class="st3" d="M24.9,187.6c0.3-0.5,0.5-1.1,0.5-1.9c0-0.9-0.4-1.4-1-1.4c-0.6,0-0.9,0.4-1.2,1.4c-0.4,1.3-1.1,2.1-2.2,2.1
		c-1.2,0-2.2-1.1-2.2-2.7c0-0.8,0.2-1.5,0.4-1.9l1.1,0.3c-0.1,0.3-0.4,0.8-0.4,1.5c0,0.9,0.5,1.3,0.9,1.3c0.6,0,0.8-0.4,1.2-1.5
		c0.5-1.3,1.1-2,2.2-2c1.2,0,2.2,0.9,2.2,2.9c0,0.8-0.2,1.7-0.5,2.1L24.9,187.6z"/>
</g>
<g>
	<g>
		<path class="st3" d="M3.3,309.4c-0.1-0.6-0.2-1.4-0.2-2.2c0-1.4,0.3-2.4,0.9-3.2c0.6-0.7,1.5-1.2,2.8-1.2c1.3,0,2.3,0.5,3,1.2
			c0.7,0.8,1,2,1,3.5c0,0.8,0,1.4-0.1,1.9H3.3z M9.7,308c0-0.2,0-0.5,0-0.8c0-1.8-1-2.9-2.9-2.9c-1.7,0-2.6,1-2.6,2.7
			c0,0.4,0,0.8,0.1,1H9.7z"/>
		<path class="st3" d="M7.4,295.7v2.9h2.2v-3.3h1.1v4.7H3.2v-4.5h1.1v3.1h1.9v-2.9H7.4z"/>
		<path class="st3" d="M4.4,291v2.2H3.2v-5.8h1.1v2.2h6.4v1.4H4.4z"/>
		<path class="st3" d="M7.4,280.6v2.9h2.2v-3.3h1.1v4.7H3.2v-4.5h1.1v3.1h1.9v-2.9H7.4z"/>
		<path class="st3" d="M3.3,277.4c-0.1-0.5-0.2-1.3-0.2-2.1c0-1.1,0.2-1.9,0.6-2.4c0.3-0.4,0.9-0.7,1.5-0.7c1,0,1.6,0.7,1.9,1.4h0
			c0.2-0.6,0.7-0.9,1.4-1.1c0.9-0.2,1.8-0.4,2.1-0.6v1.5c-0.2,0.1-0.8,0.3-1.8,0.5c-1,0.2-1.3,0.6-1.3,1.4v0.7h3.1v1.4H3.3z
			 M6.6,276v-0.8c0-1-0.5-1.5-1.2-1.5c-0.8,0-1.2,0.6-1.2,1.5c0,0.4,0,0.7,0.1,0.9H6.6z"/>
		<path class="st3" d="M3.2,267.8h7.5v1.4H3.2V267.8z"/>
		<path class="st3" d="M6.9,257.8c2.5,0,3.9,1.6,3.9,3.7c0,2.2-1.6,3.6-3.8,3.6c-2.3,0-3.9-1.5-3.9-3.7
			C3.1,259.1,4.8,257.8,6.9,257.8z M7,263.5c1.5,0,2.7-0.8,2.7-2.1c0-1.4-1.2-2.1-2.8-2.1c-1.4,0-2.7,0.7-2.7,2.1
			C4.2,262.8,5.5,263.5,7,263.5z"/>
		<path class="st3" d="M3.3,255c-0.1-0.5-0.2-1.3-0.2-2.1c0-1.1,0.2-1.9,0.6-2.4c0.3-0.4,0.9-0.7,1.5-0.7c1,0,1.6,0.7,1.9,1.4h0
			c0.2-0.6,0.7-0.9,1.4-1.1c0.9-0.2,1.8-0.4,2.1-0.6v1.5c-0.2,0.1-0.8,0.3-1.8,0.5c-1,0.2-1.3,0.6-1.3,1.4v0.7h3.1v1.4H3.3z
			 M6.6,253.6v-0.8c0-1-0.5-1.5-1.2-1.5c-0.8,0-1.2,0.6-1.2,1.5c0,0.4,0,0.7,0.1,0.9H6.6z"/>
		<path class="st3" d="M6.9,240c2.5,0,3.9,1.6,3.9,3.7c0,2.2-1.6,3.6-3.8,3.6c-2.3,0-3.9-1.5-3.9-3.7C3.1,241.3,4.8,240,6.9,240z
			 M7,245.7c1.5,0,2.7-0.8,2.7-2.1c0-1.4-1.2-2.1-2.8-2.1c-1.4,0-2.7,0.7-2.7,2.1C4.2,245,5.5,245.7,7,245.7z"/>
		<path class="st3" d="M10.5,227.7c0.2,0.3,0.3,1.1,0.3,2c0,2.5-1.5,3.9-3.8,3.9c-2.5,0-4-1.8-4-4.1c0-0.9,0.2-1.6,0.3-1.9l1.1,0.3
			c-0.2,0.4-0.3,0.9-0.3,1.5c0,1.6,1,2.7,2.8,2.7c1.6,0,2.7-1,2.7-2.7c0-0.6-0.1-1.2-0.3-1.5L10.5,227.7z"/>
		<path class="st3" d="M6.9,218c2.5,0,3.9,1.6,3.9,3.7c0,2.2-1.6,3.6-3.8,3.6c-2.3,0-3.9-1.5-3.9-3.7C3.1,219.3,4.8,218,6.9,218z
			 M7,223.8c1.5,0,2.7-0.8,2.7-2.1c0-1.4-1.2-2.1-2.8-2.1c-1.4,0-2.7,0.7-2.7,2.1C4.2,223,5.5,223.8,7,223.8z"/>
		<path class="st3" d="M10.4,209c0.2,0.5,0.4,1.5,0.4,2.5c0,1.3-0.3,2.3-1,3c-0.6,0.7-1.6,1.1-2.8,1.1c-2.4,0-3.9-1.7-3.9-4.3
			c0-1,0.2-1.7,0.4-2.1l1.1,0.3c-0.2,0.4-0.3,0.9-0.3,1.8c0,1.7,0.9,2.8,2.7,2.8c1.7,0,2.7-1.1,2.7-2.7c0-0.5-0.1-0.9-0.2-1.1H7.7
			v1.4H6.6V209H10.4z"/>
		<path class="st3" d="M10.7,206H3.2v-1.6l3.2-2c0.8-0.5,1.7-1,2.5-1.3v0c-1,0.1-2,0.1-3.1,0.1H3.2v-1.3h7.5v1.5l-3.3,2
			c-0.8,0.5-1.7,1-2.6,1.4l0,0c1-0.1,2-0.1,3.2-0.1h2.7V206z"/>
		<path class="st3" d="M3.2,195.2h7.5v1.4H3.2V195.2z"/>
		<path class="st3" d="M4.4,190.5v2.2H3.2v-5.8h1.1v2.2h6.4v1.4H4.4z"/>
		<path class="st3" d="M3.2,182.9h7.5v1.4H3.2V182.9z"/>
		<path class="st3" d="M10.7,178l-7.5,2.5v-1.5l3.4-1.1c0.9-0.3,1.8-0.5,2.7-0.8v0c-0.9-0.2-1.8-0.5-2.7-0.8l-3.4-1.1v-1.5l7.5,2.7
			V178z"/>
		<path class="st3" d="M6.9,164.4c2.5,0,3.9,1.6,3.9,3.7c0,2.2-1.6,3.6-3.8,3.6c-2.3,0-3.9-1.5-3.9-3.7
			C3.1,165.7,4.8,164.4,6.9,164.4z M7,170.2c1.5,0,2.7-0.8,2.7-2.1c0-1.4-1.2-2.1-2.8-2.1c-1.4,0-2.7,0.7-2.7,2.1
			C4.2,169.4,5.5,170.2,7,170.2z"/>
	</g>
</g>
</svg>
