<!-- Generator: Adobe Illustrator 20.1.0, SVG Export Plug-In  -->
<svg version="1.1"
	 xmlns="http://www.w3.org/2000/svg" xmlns:xlink="http://www.w3.org/1999/xlink" xmlns:a="http://ns.adobe.com/AdobeSVGViewerExtensions/3.0/"
	 x="0px" y="0px" width="273.9px" height="29.6px" viewBox="0 0 273.9 29.6"
	 style="overflow:scroll;enable-background:new 0 0 273.9 29.6;" xml:space="preserve">
<style type="text/css">
	.st0{fill:#58595B;}
	.st1{fill:#DA0962;}
	.st2{fill:#D51D70;}
</style>
<defs>
</defs>
<g>
	<path class="st0" d="M10.9,0.8c0.6-0.1,1.5-0.2,2.6-0.2c1.2,0,2.2,0.3,2.8,0.8c0.6,0.5,0.9,1.2,0.9,2.1c0,0.9-0.3,1.6-0.8,2.1
		c-0.7,0.7-1.8,1-3,1c-0.3,0-0.6,0-0.8-0.1V10h-1.7V0.8z M12.6,5.1c0.2,0.1,0.5,0.1,0.8,0.1c1.3,0,2.1-0.6,2.1-1.7
		c0-1-0.7-1.6-1.9-1.6c-0.5,0-0.8,0-1,0.1V5.1z"/>
	<path class="st0" d="M18.7,5.4c0-0.9,0-1.6-0.1-2.2h1.5l0.1,1.3h0.1c0.3-1,1.1-1.4,1.8-1.4c0.2,0,0.3,0,0.4,0v1.6
		c-0.1,0-0.3-0.1-0.5-0.1c-0.8,0-1.4,0.5-1.5,1.3c0,0.2-0.1,0.3-0.1,0.5V10h-1.7V5.4z"/>
	<path class="st0" d="M30.2,6.6c0,2.5-1.8,3.6-3.5,3.6c-1.9,0-3.4-1.3-3.4-3.5c0-2.2,1.5-3.6,3.5-3.6C28.9,3.1,30.2,4.5,30.2,6.6z
		 M25.1,6.6c0,1.3,0.6,2.3,1.7,2.3c1,0,1.7-1,1.7-2.3c0-1.1-0.5-2.3-1.6-2.3C25.6,4.3,25.1,5.5,25.1,6.6z"/>
	<path class="st0" d="M33.7,1.3v1.9h1.6v1.3h-1.6v3c0,0.8,0.2,1.2,0.9,1.2c0.3,0,0.5,0,0.7-0.1l0,1.3c-0.3,0.1-0.7,0.2-1.2,0.2
		c-0.6,0-1.2-0.2-1.5-0.6c-0.4-0.4-0.5-1-0.5-1.9V4.5h-1V3.2h1V1.7L33.7,1.3z"/>
	<path class="st0" d="M38,7.1c0,1.2,1,1.8,2.1,1.8c0.8,0,1.4-0.1,1.9-0.3l0.3,1.2c-0.6,0.2-1.4,0.4-2.4,0.4c-2.2,0-3.5-1.3-3.5-3.4
		c0-1.9,1.1-3.6,3.3-3.6c2.2,0,2.9,1.8,2.9,3.3c0,0.3,0,0.6-0.1,0.7H38z M40.9,5.9c0-0.6-0.3-1.7-1.4-1.7c-1.1,0-1.5,1-1.6,1.7H40.9
		z"/>
	<path class="st0" d="M50.2,3.2c0,0.5-0.1,1-0.1,1.9V9c0,1.4-0.3,2.4-1,3.1c-0.7,0.6-1.7,0.8-2.6,0.8c-0.9,0-1.8-0.2-2.4-0.5
		l0.4-1.3c0.4,0.3,1.2,0.5,2,0.5c1.1,0,1.9-0.6,1.9-2V9h0c-0.4,0.6-1.1,1-2,1c-1.7,0-2.9-1.4-2.9-3.3c0-2.2,1.4-3.6,3.1-3.6
		c1,0,1.6,0.5,2,1.1h0l0.1-0.9H50.2z M48.5,6c0-0.2,0-0.3-0.1-0.5c-0.2-0.6-0.7-1.1-1.4-1.1c-1,0-1.7,0.8-1.7,2.2
		c0,1.2,0.6,2.1,1.7,2.1c0.6,0,1.2-0.4,1.4-1c0-0.2,0.1-0.4,0.1-0.6V6z"/>
	<path class="st0" d="M53.4,7.1c0,1.2,1,1.8,2.1,1.8c0.8,0,1.4-0.1,1.9-0.3l0.3,1.2c-0.6,0.2-1.4,0.4-2.4,0.4
		c-2.2,0-3.5-1.3-3.5-3.4c0-1.9,1.1-3.6,3.3-3.6c2.2,0,2.9,1.8,2.9,3.3c0,0.3,0,0.6-0.1,0.7H53.4z M56.3,5.9c0-0.6-0.3-1.7-1.4-1.7
		c-1.1,0-1.5,1-1.6,1.7H56.3z"/>
	<path class="st0" d="M67.4,9.8c-0.4,0.2-1.1,0.3-1.9,0.3c-2.1,0-3.5-1.3-3.5-3.4c0-2,1.4-3.6,3.8-3.6c0.6,0,1.3,0.1,1.7,0.3
		l-0.3,1.3c-0.3-0.1-0.7-0.3-1.3-0.3c-1.3,0-2.1,1-2.1,2.2c0,1.4,0.9,2.2,2.1,2.2c0.6,0,1-0.1,1.3-0.3L67.4,9.8z"/>
	<path class="st0" d="M75.3,6.6c0,2.5-1.8,3.6-3.5,3.6c-1.9,0-3.4-1.3-3.4-3.5c0-2.2,1.5-3.6,3.5-3.6C73.9,3.1,75.3,4.5,75.3,6.6z
		 M70.2,6.6c0,1.3,0.6,2.3,1.7,2.3c1,0,1.7-1,1.7-2.3c0-1.1-0.5-2.3-1.6-2.3C70.7,4.3,70.2,5.5,70.2,6.6z"/>
	<path class="st0" d="M76.8,5.3c0-0.8,0-1.4-0.1-2h1.5l0.1,1h0c0.3-0.5,1-1.2,2.2-1.2c1.2,0,2.4,0.8,2.4,2.9v4h-1.7V6.2
		c0-1-0.4-1.7-1.3-1.7c-0.7,0-1.2,0.5-1.3,1c-0.1,0.2-0.1,0.4-0.1,0.6v4h-1.7V5.3z"/>
	<path class="st0" d="M86.8,1.3v1.9h1.6v1.3h-1.6v3c0,0.8,0.2,1.2,0.9,1.2c0.3,0,0.5,0,0.7-0.1l0,1.3c-0.3,0.1-0.7,0.2-1.2,0.2
		c-0.6,0-1.2-0.2-1.5-0.6c-0.4-0.4-0.5-1-0.5-1.9V4.5h-1V3.2h1V1.7L86.8,1.3z"/>
	<path class="st0" d="M89.9,5.4c0-0.9,0-1.6-0.1-2.2h1.5l0.1,1.3h0.1c0.3-1,1.1-1.4,1.8-1.4c0.2,0,0.3,0,0.4,0v1.6
		c-0.1,0-0.3-0.1-0.5-0.1c-0.8,0-1.4,0.5-1.5,1.3c0,0.2-0.1,0.3-0.1,0.5V10h-1.7V5.4z"/>
	<path class="st0" d="M98.8,10l-0.1-0.8h0c-0.4,0.5-1.1,0.9-2,0.9c-1.4,0-2.1-1-2.1-2c0-1.7,1.5-2.6,4-2.6V5.5
		c0-0.4-0.2-1.2-1.4-1.2c-0.7,0-1.4,0.2-1.8,0.5L95,3.7c0.5-0.3,1.4-0.6,2.4-0.6c2.2,0,2.8,1.4,2.8,2.8v2.4c0,0.6,0,1.2,0.1,1.6
		H98.8z M98.6,6.7c-1.2,0-2.4,0.2-2.4,1.3c0,0.7,0.4,1,1,1c0.7,0,1.2-0.4,1.3-0.9c0-0.1,0.1-0.3,0.1-0.4V6.7z"/>
	<path class="st0" d="M106.4,7.1c0,1.2,1,1.8,2.1,1.8c0.8,0,1.4-0.1,1.9-0.3l0.3,1.2c-0.6,0.2-1.4,0.4-2.4,0.4
		c-2.2,0-3.5-1.3-3.5-3.4c0-1.9,1.1-3.6,3.3-3.6c2.2,0,2.9,1.8,2.9,3.3c0,0.3,0,0.6-0.1,0.7H106.4z M109.4,5.9
		c0-0.6-0.3-1.7-1.4-1.7c-1.1,0-1.5,1-1.6,1.7H109.4z"/>
	<path class="st0" d="M112.5,0.2h1.7V10h-1.7V0.2z"/>
	<path class="st0" d="M125.4,0.2v8c0,0.7,0,1.4,0.1,1.9H124l-0.1-1.1h0c-0.4,0.8-1.2,1.2-2.2,1.2c-1.6,0-2.9-1.4-2.9-3.5
		c0-2.3,1.4-3.6,3-3.6c0.9,0,1.6,0.4,1.9,0.9h0V0.2H125.4z M123.7,6.1c0-0.1,0-0.3,0-0.4c-0.2-0.7-0.7-1.2-1.5-1.2
		c-1.1,0-1.7,1-1.7,2.2c0,1.2,0.6,2.1,1.7,2.1c0.7,0,1.3-0.5,1.5-1.2c0-0.2,0.1-0.3,0.1-0.5V6.1z"/>
	<path class="st0" d="M131.2,10l-0.1-0.8h0c-0.4,0.5-1.1,0.9-2,0.9c-1.4,0-2.1-1-2.1-2c0-1.7,1.5-2.6,4-2.6V5.5
		c0-0.4-0.2-1.2-1.4-1.2c-0.7,0-1.4,0.2-1.8,0.5l-0.3-1.1c0.5-0.3,1.4-0.6,2.4-0.6c2.2,0,2.8,1.4,2.8,2.8v2.4c0,0.6,0,1.2,0.1,1.6
		H131.2z M131,6.7c-1.2,0-2.4,0.2-2.4,1.3c0,0.7,0.4,1,1,1c0.7,0,1.2-0.4,1.3-0.9c0-0.1,0.1-0.3,0.1-0.4V6.7z"/>
	<path class="st0" d="M134.6,5.3c0-0.8,0-1.4-0.1-2h1.5l0.1,1h0c0.3-0.5,1-1.2,2.2-1.2c1.2,0,2.4,0.8,2.4,2.9v4H139V6.2
		c0-1-0.4-1.7-1.3-1.7c-0.7,0-1.2,0.5-1.3,1c-0.1,0.2-0.1,0.4-0.1,0.6v4h-1.7V5.3z M135.8,2.2c0-1.1,0.4-1.7,1.1-1.7
		c0.3,0,0.6,0.1,0.9,0.3c0.2,0.1,0.4,0.3,0.6,0.3c0.2,0,0.3-0.1,0.4-0.6h0.8c0,1.1-0.3,1.6-1,1.6c-0.3,0-0.6-0.1-0.9-0.3
		c-0.3-0.2-0.4-0.2-0.6-0.2c-0.2,0-0.3,0.2-0.3,0.6H135.8z"/>
	<path class="st0" d="M149.1,6.6c0,2.5-1.8,3.6-3.5,3.6c-1.9,0-3.4-1.3-3.4-3.5c0-2.2,1.5-3.6,3.5-3.6
		C147.8,3.1,149.1,4.5,149.1,6.6z M144,6.6c0,1.3,0.6,2.3,1.7,2.3c1,0,1.7-1,1.7-2.3c0-1.1-0.5-2.3-1.6-2.3
		C144.5,4.3,144,5.5,144,6.6z"/>
	<path class="st0" d="M153.7,5.5c0-0.9,0-1.6-0.1-2.2h1.1l0.1,1.2h0c0.5-0.8,1.3-1.3,2.4-1.3c1.6,0,2.8,1.4,2.8,3.4
		c0,2.4-1.5,3.6-3.1,3.6c-0.9,0-1.7-0.4-2.1-1.1h0v3.7h-1.2V5.5z M155,7.3c0,0.2,0,0.3,0.1,0.5c0.2,0.8,1,1.4,1.8,1.4
		c1.3,0,2-1.1,2-2.6c0-1.3-0.7-2.5-2-2.5c-0.8,0-1.6,0.6-1.8,1.5c0,0.2-0.1,0.3-0.1,0.5V7.3z"/>
	<path class="st0" d="M167.9,6.6c0,2.5-1.7,3.6-3.3,3.6c-1.8,0-3.2-1.3-3.2-3.5c0-2.3,1.5-3.6,3.3-3.6
		C166.6,3.1,167.9,4.5,167.9,6.6z M162.5,6.7c0,1.5,0.8,2.6,2,2.6c1.2,0,2-1.1,2-2.6c0-1.1-0.6-2.6-2-2.6
		C163.2,4.1,162.5,5.4,162.5,6.7z"/>
	<path class="st0" d="M169.5,5.4c0-0.8,0-1.5-0.1-2.1h1.1l0,1.3h0.1c0.3-0.9,1-1.5,1.9-1.5c0.1,0,0.2,0,0.3,0v1.2
		c-0.1,0-0.3,0-0.4,0c-0.9,0-1.5,0.7-1.6,1.6c0,0.2-0.1,0.4-0.1,0.6V10h-1.2V5.4z"/>
	<path class="st0" d="M178,6.9c0,1.7,1.1,2.3,2.3,2.3c0.9,0,1.4-0.2,1.9-0.3l0.2,0.9c-0.4,0.2-1.2,0.4-2.2,0.4
		c-2.1,0-3.3-1.4-3.3-3.4s1.2-3.6,3.2-3.6c2.2,0,2.8,1.9,2.8,3.2c0,0.3,0,0.4,0,0.6H178z M181.6,6c0-0.8-0.3-2-1.7-2
		c-1.2,0-1.8,1.1-1.9,2H181.6z"/>
	<path class="st0" d="M184.4,0.2h1.2V10h-1.2V0.2z"/>
	<path class="st1" d="M192.7,9.5v0.8c0,0.8,0,1.8,0.2,2.4h-2c-0.2-0.4-0.3-1.4-0.3-2.4V4.3c0-2,0.5-2.9,1.1-3.4
		c0.5-0.5,1.2-0.8,2.3-0.8c1.8,0,2.8,1.1,2.8,2.5c0,0.8-0.4,1.7-1.1,2.1v0.1c1,0.2,1.9,1.2,1.9,2.5c0,1.8-1.3,2.9-3,2.9
		C193.9,10.2,193.2,10,192.7,9.5L192.7,9.5z M192.7,7.9c0.3,0.4,0.8,0.7,1.3,0.7c0.9,0,1.4-0.7,1.4-1.4c0-1-0.7-1.5-1.5-1.6
		c-0.1,0-0.2,0-0.3,0V4.3c0.1,0,0.1,0,0.2,0c0.7-0.1,1.1-0.7,1.1-1.4c0-0.7-0.4-1.3-1-1.3c-0.7,0-1.2,0.6-1.2,2.3V7.9z"/>
	<path class="st1" d="M205.8,10l-0.1-0.7h0c-0.4,0.5-1.1,0.8-1.9,0.8c-1.4,0-2.2-1-2.2-2.1c0-1.8,1.6-2.6,4-2.6V5.4
		c0-0.4-0.2-0.9-1.2-0.9c-0.7,0-1.4,0.2-1.9,0.5L202,3.7c0.5-0.3,1.4-0.6,2.6-0.6c2.3,0,3,1.3,3,2.9v2.4c0,0.7,0,1.3,0.1,1.7H205.8z
		 M205.6,6.8c-1.1,0-2,0.3-2,1.1c0,0.5,0.4,0.8,0.8,0.8c0.5,0,1-0.3,1.1-0.8c0-0.1,0-0.2,0-0.4V6.8z"/>
	<path class="st1" d="M209.4,5.4c0-0.8,0-1.6-0.1-2.2h1.8l0.1,0.9h0c0.3-0.4,0.9-1.1,2.1-1.1c0.9,0,1.6,0.4,1.9,1.2h0
		c0.3-0.3,0.6-0.6,0.9-0.8c0.4-0.2,0.8-0.3,1.3-0.3c1.3,0,2.3,0.9,2.3,2.9v4h-2.1V6.3c0-1-0.3-1.6-1-1.6c-0.5,0-0.8,0.3-1,0.7
		c-0.1,0.2-0.1,0.4-0.1,0.5v4h-2.1V6.2c0-0.9-0.3-1.4-1-1.4c-0.5,0-0.9,0.4-1,0.8c-0.1,0.2-0.1,0.4-0.1,0.5v4h-2.1V5.4z"/>
	<path class="st1" d="M223.7,1.3c0,0.6-0.4,1.1-1.1,1.1c-0.7,0-1.1-0.5-1.1-1.1c0-0.6,0.4-1.1,1.1-1.1S223.7,0.7,223.7,1.3z
		 M221.5,10V3.2h2.1V10H221.5z"/>
	<path class="st1" d="M225.4,0.2h2.1V10h-2.1V0.2z"/>
	<path class="st1" d="M236.1,6.5c0,2.5-1.8,3.6-3.6,3.6c-2,0-3.5-1.3-3.5-3.5c0-2.2,1.4-3.6,3.6-3.6C234.7,3.1,236.1,4.5,236.1,6.5z
		 M231.2,6.6c0,1.2,0.5,2,1.4,2c0.8,0,1.3-0.8,1.3-2c0-1-0.4-2-1.3-2C231.6,4.6,231.2,5.6,231.2,6.6z"/>
	<path class="st1" d="M239.7,1.3c0,0.6-0.4,1.1-1.1,1.1c-0.7,0-1.1-0.5-1.1-1.1c0-0.6,0.4-1.1,1.1-1.1S239.7,0.7,239.7,1.3z
		 M237.5,10V3.2h2.1V10H237.5z"/>
	<path class="st1" d="M248.1,0.2V8c0,0.8,0,1.6,0.1,2h-1.9l-0.1-1h0c-0.4,0.8-1.2,1.2-2.1,1.2c-1.6,0-2.9-1.4-2.9-3.5
		c0-2.3,1.4-3.6,3-3.6c0.8,0,1.5,0.3,1.8,0.8h0V0.2H248.1z M246,6.1c0-0.1,0-0.3,0-0.4c-0.1-0.6-0.6-1-1.2-1c-1,0-1.5,0.9-1.5,1.9
		c0,1.2,0.6,1.9,1.4,1.9c0.6,0,1.1-0.4,1.2-1c0-0.2,0.1-0.3,0.1-0.5V6.1z"/>
	<path class="st1" d="M251.5,7.3c0.1,0.9,0.9,1.3,1.9,1.3c0.7,0,1.3-0.1,1.9-0.3l0.3,1.4c-0.7,0.3-1.5,0.4-2.5,0.4
		c-2.3,0-3.6-1.3-3.6-3.5c0-1.7,1.1-3.6,3.4-3.6c2.2,0,3,1.7,3,3.4c0,0.4,0,0.7-0.1,0.8H251.5z M254,5.8c0-0.5-0.2-1.4-1.2-1.4
		c-0.9,0-1.2,0.8-1.3,1.4H254z"/>
	<path class="st0" d="M11.9,19.7l1.2,3.6c0.1,0.4,0.3,0.9,0.4,1.3h0c0.1-0.4,0.2-0.9,0.4-1.3l1.1-3.6h1.8l-1.7,4.6
		c-0.9,2.5-1.6,3.7-2.4,4.3c-0.7,0.6-1.4,0.8-1.8,0.9l-0.4-1.4c0.3-0.1,0.7-0.2,1-0.5c0.3-0.2,0.7-0.6,0.9-1.1
		c0.1-0.1,0.1-0.2,0.1-0.3c0-0.1,0-0.2-0.1-0.3L10,19.7H11.9z"/>
	<path class="st0" d="M21.7,26.5l-0.1-0.8h0c-0.4,0.5-1.1,0.9-2,0.9c-1.4,0-2.1-1-2.1-2c0-1.7,1.5-2.6,4-2.6V22
		c0-0.4-0.2-1.2-1.4-1.2c-0.7,0-1.4,0.2-1.8,0.5l-0.3-1.1c0.5-0.3,1.4-0.6,2.4-0.6c2.2,0,2.8,1.4,2.8,2.8v2.4c0,0.6,0,1.2,0.1,1.6
		H21.7z M21.5,23.2c-1.2,0-2.4,0.2-2.4,1.3c0,0.7,0.4,1,1,1c0.7,0,1.2-0.4,1.3-0.9c0-0.1,0.1-0.3,0.1-0.4V23.2z"/>
	<path class="st0" d="M32.6,25.6L32.6,25.6c-0.4,0.7-1.1,1.1-2.1,1.1c-1.5,0-2.8-1.3-2.8-3.4c0-2.5,1.6-3.6,3-3.6c0.9,0,1.6,0.4,2,1
		l0,0l0-0.9h1.7c0,0.6-0.1,1.3-0.1,2v7.6h-1.7V25.6z M32.6,22.5c0-0.1,0-0.3,0-0.4c-0.2-0.6-0.7-1.2-1.5-1.2c-1.1,0-1.7,0.9-1.7,2.2
		c0,1.2,0.6,2.2,1.7,2.2c0.7,0,1.3-0.4,1.5-1.1c0.1-0.2,0.1-0.4,0.1-0.5V22.5z"/>
	<path class="st0" d="M42.3,24.5c0,0.8,0,1.5,0.1,2h-1.5l-0.1-1h0c-0.3,0.5-1,1.2-2.2,1.2c-1.2,0-2.4-0.7-2.4-2.9v-4H38v3.7
		c0,1.1,0.4,1.8,1.3,1.8c0.7,0,1.1-0.5,1.3-0.9c0.1-0.2,0.1-0.3,0.1-0.5v-4.1h1.7V24.5z"/>
	<path class="st0" d="M45.5,23.6c0,1.2,1,1.8,2.1,1.8c0.8,0,1.4-0.1,1.9-0.3l0.3,1.2c-0.6,0.2-1.4,0.4-2.4,0.4
		c-2.2,0-3.5-1.3-3.5-3.4c0-1.9,1.1-3.6,3.3-3.6c2.2,0,2.9,1.8,2.9,3.3c0,0.3,0,0.6-0.1,0.7H45.5z M48.5,22.4c0-0.6-0.3-1.7-1.4-1.7
		c-1.1,0-1.5,1-1.6,1.7H48.5z"/>
	<path class="st0" d="M56.5,17.8c0,0.5-0.4,0.9-1,0.9c-0.6,0-0.9-0.4-0.9-0.9c0-0.5,0.4-0.9,1-0.9C56.1,16.9,56.4,17.3,56.5,17.8z
		 M54.6,26.5v-6.8h1.7v6.8H54.6z"/>
	<path class="st0" d="M58.3,21.7c0-0.8,0-1.4-0.1-2h1.5l0.1,1h0c0.3-0.5,1-1.2,2.2-1.2c1.2,0,2.4,0.8,2.4,2.9v4h-1.7v-3.8
		c0-1-0.4-1.7-1.3-1.7c-0.7,0-1.2,0.5-1.3,1c-0.1,0.2-0.1,0.4-0.1,0.6v4h-1.7V21.7z"/>
	<path class="st0" d="M66.4,16.6h1.7v4h0c0.2-0.3,0.5-0.6,0.8-0.8c0.3-0.2,0.7-0.3,1.2-0.3c1.2,0,2.4,0.8,2.4,2.9v4h-1.7v-3.8
		c0-1-0.4-1.7-1.3-1.7c-0.7,0-1.1,0.4-1.3,1c-0.1,0.1-0.1,0.3-0.1,0.5v4h-1.7V16.6z"/>
	<path class="st0" d="M76.3,17.8c0,0.5-0.4,0.9-1,0.9c-0.6,0-0.9-0.4-0.9-0.9c0-0.5,0.4-0.9,1-0.9C75.9,16.9,76.3,17.3,76.3,17.8z
		 M74.5,26.5v-6.8h1.7v6.8H74.5z"/>
	<path class="st0" d="M78.1,26.5c0-0.5,0.1-1.2,0.1-1.9v-8h1.7v4h0c0.4-0.7,1.2-1.1,2.2-1.1c1.7,0,2.8,1.4,2.8,3.4
		c0,2.4-1.5,3.6-3.1,3.6c-0.9,0-1.7-0.3-2.1-1.2h0l-0.1,1H78.1z M79.9,23.7c0,0.1,0,0.3,0,0.4c0.2,0.7,0.8,1.2,1.5,1.2
		c1.1,0,1.7-0.9,1.7-2.2c0-1.2-0.6-2.2-1.7-2.2c-0.7,0-1.3,0.5-1.5,1.3c0,0.1-0.1,0.3-0.1,0.4V23.7z"/>
	<path class="st0" d="M87.6,23.6c0,1.2,1,1.8,2.1,1.8c0.8,0,1.4-0.1,1.9-0.3l0.3,1.2c-0.6,0.2-1.4,0.4-2.4,0.4
		c-2.2,0-3.5-1.3-3.5-3.4c0-1.9,1.1-3.6,3.3-3.6c2.2,0,2.9,1.8,2.9,3.3c0,0.3,0,0.6-0.1,0.7H87.6z M90.6,22.4c0-0.6-0.3-1.7-1.4-1.7
		c-1.1,0-1.5,1-1.6,1.7H90.6z"/>
	<path class="st0" d="M96.8,16.6h1.7v9.9h-1.7V16.6z"/>
	<path class="st0" d="M104.3,26.5l-0.1-0.8h0c-0.4,0.5-1.1,0.9-2,0.9c-1.4,0-2.1-1-2.1-2c0-1.7,1.5-2.6,4-2.6V22
		c0-0.4-0.2-1.2-1.4-1.2c-0.7,0-1.4,0.2-1.8,0.5l-0.3-1.1c0.5-0.3,1.4-0.6,2.4-0.6c2.2,0,2.8,1.4,2.8,2.8v2.4c0,0.6,0,1.2,0.1,1.6
		H104.3z M104,23.2c-1.2,0-2.4,0.2-2.4,1.3c0,0.7,0.4,1,1,1c0.7,0,1.2-0.4,1.3-0.9c0-0.1,0.1-0.3,0.1-0.4V23.2z"/>
	<path class="st0" d="M114.5,26.5l-0.1-0.8h0c-0.4,0.5-1.1,0.9-2,0.9c-1.4,0-2.1-1-2.1-2c0-1.7,1.5-2.6,4-2.6V22
		c0-0.4-0.2-1.2-1.4-1.2c-0.7,0-1.4,0.2-1.8,0.5l-0.3-1.1c0.5-0.3,1.4-0.6,2.4-0.6c2.2,0,2.8,1.4,2.8,2.8v2.4c0,0.6,0,1.2,0.1,1.6
		H114.5z M114.2,23.2c-1.2,0-2.4,0.2-2.4,1.3c0,0.7,0.4,1,1,1c0.7,0,1.2-0.4,1.3-0.9c0-0.1,0.1-0.3,0.1-0.4V23.2z"/>
	<path class="st0" d="M124,19.7c0,0.5-0.1,1-0.1,1.9v3.8c0,1.4-0.3,2.4-1,3.1c-0.7,0.6-1.7,0.8-2.6,0.8c-0.9,0-1.8-0.2-2.4-0.5
		l0.4-1.3c0.4,0.3,1.2,0.5,2,0.5c1.1,0,1.9-0.6,1.9-2v-0.6h0c-0.4,0.6-1.1,1-2,1c-1.7,0-2.9-1.4-2.9-3.3c0-2.2,1.4-3.6,3.1-3.6
		c1,0,1.6,0.5,2,1.1h0l0.1-0.9H124z M122.3,22.4c0-0.2,0-0.3-0.1-0.5c-0.2-0.6-0.7-1.1-1.4-1.1c-1,0-1.7,0.8-1.7,2.2
		c0,1.2,0.6,2.1,1.7,2.1c0.6,0,1.2-0.4,1.4-1c0-0.2,0.1-0.4,0.1-0.6V22.4z"/>
	<path class="st0" d="M125.9,21.9c0-0.9,0-1.6-0.1-2.2h1.5l0.1,1.3h0.1c0.3-1,1.1-1.4,1.8-1.4c0.2,0,0.3,0,0.4,0v1.6
		c-0.1,0-0.3-0.1-0.5-0.1c-0.8,0-1.4,0.5-1.5,1.3c0,0.2-0.1,0.3-0.1,0.5v3.5h-1.7V21.9z"/>
	<path class="st0" d="M132.2,23.6c0,1.2,1,1.8,2.1,1.8c0.8,0,1.4-0.1,1.9-0.3l0.3,1.2c-0.6,0.2-1.4,0.4-2.4,0.4
		c-2.2,0-3.5-1.3-3.5-3.4c0-1.9,1.1-3.6,3.3-3.6c2.2,0,2.9,1.8,2.9,3.3c0,0.3,0,0.6-0.1,0.7H132.2z M135.2,22.4
		c0-0.6-0.3-1.7-1.4-1.7c-1.1,0-1.5,1-1.6,1.7H135.2z"/>
	<path class="st0" d="M144.5,19.7c0,0.5-0.1,1-0.1,1.9v3.8c0,1.4-0.3,2.4-1,3.1c-0.7,0.6-1.7,0.8-2.6,0.8c-0.9,0-1.8-0.2-2.4-0.5
		l0.4-1.3c0.4,0.3,1.2,0.5,2,0.5c1.1,0,1.9-0.6,1.9-2v-0.6h0c-0.4,0.6-1.1,1-2,1c-1.7,0-2.9-1.4-2.9-3.3c0-2.2,1.4-3.6,3.1-3.6
		c1,0,1.6,0.5,2,1.1h0l0.1-0.9H144.5z M142.7,22.4c0-0.2,0-0.3-0.1-0.5c-0.2-0.6-0.7-1.1-1.4-1.1c-1,0-1.7,0.8-1.7,2.2
		c0,1.2,0.6,2.1,1.7,2.1c0.6,0,1.2-0.4,1.4-1c0-0.2,0.1-0.4,0.1-0.6V22.4z"/>
	<path class="st0" d="M150.2,26.5l-0.1-0.8h0c-0.4,0.5-1.1,0.9-2,0.9c-1.4,0-2.1-1-2.1-2c0-1.7,1.5-2.6,4-2.6V22
		c0-0.4-0.2-1.2-1.4-1.2c-0.7,0-1.4,0.2-1.8,0.5l-0.3-1.1c0.5-0.3,1.4-0.6,2.4-0.6c2.2,0,2.8,1.4,2.8,2.8v2.4c0,0.6,0,1.2,0.1,1.6
		H150.2z M150,23.2c-1.2,0-2.4,0.2-2.4,1.3c0,0.7,0.4,1,1,1c0.7,0,1.2-0.4,1.3-0.9c0-0.1,0.1-0.3,0.1-0.4V23.2z"/>
	<path class="st0" d="M158.6,26.3c-0.4,0.2-1.1,0.3-1.9,0.3c-2.1,0-3.5-1.3-3.5-3.4c0-2,1.4-3.6,3.8-3.6c0.6,0,1.3,0.1,1.7,0.3
		l-0.3,1.3c-0.3-0.1-0.7-0.3-1.3-0.3c-1.3,0-2.1,1-2.1,2.2c0,1.4,0.9,2.2,2.1,2.2c0.6,0,1-0.1,1.3-0.3L158.6,26.3z"/>
	<path class="st0" d="M161.8,17.8c0,0.5-0.4,0.9-1,0.9c-0.6,0-0.9-0.4-0.9-0.9c0-0.5,0.4-0.9,1-0.9
		C161.4,16.9,161.8,17.3,161.8,17.8z M160,26.5v-6.8h1.7v6.8H160z"/>
	<path class="st0" d="M170.1,23.1c0,2.5-1.8,3.6-3.5,3.6c-1.9,0-3.4-1.3-3.4-3.5c0-2.2,1.5-3.6,3.5-3.6
		C168.8,19.6,170.1,21,170.1,23.1z M165,23.1c0,1.3,0.6,2.3,1.7,2.3c1,0,1.7-1,1.7-2.3c0-1.1-0.5-2.3-1.6-2.3
		C165.5,20.8,165,22,165,23.1z M168.7,16.8l-1.7,2.1h-1.2l1.2-2.1H168.7z"/>
	<path class="st0" d="M171.6,21.7c0-0.8,0-1.4-0.1-2h1.5l0.1,1h0c0.3-0.5,1-1.2,2.2-1.2c1.2,0,2.4,0.8,2.4,2.9v4h-1.7v-3.8
		c0-1-0.4-1.7-1.3-1.7c-0.7,0-1.2,0.5-1.3,1c-0.1,0.2-0.1,0.4-0.1,0.6v4h-1.7V21.7z"/>
	<path class="st0" d="M189,16.6v8c0,0.7,0,1.4,0.1,1.9h-1.5l-0.1-1.1h0c-0.4,0.8-1.2,1.2-2.2,1.2c-1.6,0-2.9-1.4-2.9-3.5
		c0-2.3,1.4-3.6,3-3.6c0.9,0,1.6,0.4,1.9,0.9h0v-3.8H189z M187.3,22.6c0-0.1,0-0.3,0-0.4c-0.2-0.7-0.7-1.2-1.5-1.2
		c-1.1,0-1.7,1-1.7,2.2c0,1.2,0.6,2.1,1.7,2.1c0.7,0,1.3-0.5,1.5-1.2c0-0.2,0.1-0.3,0.1-0.5V22.6z"/>
	<path class="st0" d="M192.1,23.6c0,1.2,1,1.8,2.1,1.8c0.8,0,1.4-0.1,1.9-0.3l0.3,1.2c-0.6,0.2-1.4,0.4-2.4,0.4
		c-2.2,0-3.5-1.3-3.5-3.4c0-1.9,1.1-3.6,3.3-3.6c2.2,0,2.9,1.8,2.9,3.3c0,0.3,0,0.6-0.1,0.7H192.1z M195.1,22.4
		c0-0.6-0.3-1.7-1.4-1.7c-1.1,0-1.5,1-1.6,1.7H195.1z"/>
	<path class="st0" d="M207.7,23.1c0,2.5-1.8,3.6-3.5,3.6c-1.9,0-3.4-1.3-3.4-3.5c0-2.2,1.5-3.6,3.5-3.6
		C206.3,19.6,207.7,21,207.7,23.1z M202.6,23.1c0,1.3,0.6,2.3,1.7,2.3c1,0,1.7-1,1.7-2.3c0-1.1-0.5-2.3-1.6-2.3
		C203.1,20.8,202.6,22,202.6,23.1z"/>
	<path class="st0" d="M209.2,16.6h1.7v9.9h-1.7V16.6z"/>
	<path class="st0" d="M214.7,17.8c0,0.5-0.4,0.9-1,0.9c-0.6,0-0.9-0.4-0.9-0.9c0-0.5,0.4-0.9,1-0.9
		C214.4,16.9,214.7,17.3,214.7,17.8z M212.9,26.5v-6.8h1.7v6.8H212.9z"/>
	<path class="st0" d="M222.8,19.7c0,0.5-0.1,1-0.1,1.9v3.8c0,1.4-0.3,2.4-1,3.1c-0.7,0.6-1.7,0.8-2.6,0.8c-0.9,0-1.8-0.2-2.4-0.5
		l0.4-1.3c0.4,0.3,1.2,0.5,2,0.5c1.1,0,1.9-0.6,1.9-2v-0.6h0c-0.4,0.6-1.1,1-2,1c-1.7,0-2.9-1.4-2.9-3.3c0-2.2,1.4-3.6,3.1-3.6
		c1,0,1.6,0.5,2,1.1h0l0.1-0.9H222.8z M221,22.4c0-0.2,0-0.3-0.1-0.5c-0.2-0.6-0.7-1.1-1.4-1.1c-1,0-1.7,0.8-1.7,2.2
		c0,1.2,0.6,2.1,1.7,2.1c0.6,0,1.2-0.4,1.4-1c0-0.2,0.1-0.4,0.1-0.6V22.4z"/>
	<path class="st0" d="M231.1,23.1c0,2.5-1.8,3.6-3.5,3.6c-1.9,0-3.4-1.3-3.4-3.5c0-2.2,1.5-3.6,3.5-3.6
		C229.8,19.6,231.1,21,231.1,23.1z M226,23.1c0,1.3,0.6,2.3,1.7,2.3c1,0,1.7-1,1.7-2.3c0-1.1-0.5-2.3-1.6-2.3
		C226.5,20.8,226,22,226,23.1z M229.7,16.8l-1.7,2.1h-1.2l1.2-2.1H229.7z"/>
	<path class="st0" d="M232.7,21.7c0-0.8,0-1.4-0.1-2h1.5l0.1,1h0c0.3-0.5,0.9-1.2,2.1-1.2c0.9,0,1.6,0.5,1.9,1.3h0
		c0.2-0.4,0.5-0.7,0.8-0.8c0.4-0.3,0.8-0.4,1.4-0.4c1.1,0,2.3,0.8,2.3,2.9v4H241v-3.7c0-1.1-0.4-1.8-1.2-1.8c-0.6,0-1,0.4-1.2,0.9
		c0,0.2-0.1,0.4-0.1,0.6v4.1h-1.7v-3.9c0-0.9-0.4-1.6-1.2-1.6c-0.6,0-1.1,0.5-1.2,1c-0.1,0.2-0.1,0.4-0.1,0.6v4h-1.7V21.7z"/>
	<path class="st0" d="M245.8,23.6c0,1.2,1,1.8,2.1,1.8c0.8,0,1.4-0.1,1.9-0.3l0.3,1.2c-0.6,0.2-1.4,0.4-2.4,0.4
		c-2.2,0-3.5-1.3-3.5-3.4c0-1.9,1.1-3.6,3.3-3.6c2.2,0,2.9,1.8,2.9,3.3c0,0.3,0,0.6-0.1,0.7H245.8z M248.8,22.4
		c0-0.6-0.3-1.7-1.4-1.7c-1.1,0-1.5,1-1.6,1.7H248.8z"/>
	<path class="st0" d="M251.9,21.9c0-0.9,0-1.6-0.1-2.2h1.5l0.1,1.3h0.1c0.3-1,1.1-1.4,1.8-1.4c0.2,0,0.3,0,0.4,0v1.6
		c-0.1,0-0.3-0.1-0.5-0.1c-0.8,0-1.4,0.5-1.5,1.3c0,0.2-0.1,0.3-0.1,0.5v3.5h-1.7V21.9z"/>
	<path class="st0" d="M263.4,23.1c0,2.5-1.8,3.6-3.5,3.6c-1.9,0-3.4-1.3-3.4-3.5c0-2.2,1.5-3.6,3.5-3.6
		C262,19.6,263.4,21,263.4,23.1z M258.3,23.1c0,1.3,0.6,2.3,1.7,2.3c1,0,1.7-1,1.7-2.3c0-1.1-0.5-2.3-1.6-2.3
		C258.8,20.8,258.3,22,258.3,23.1z"/>
	<path class="st0" d="M264.8,24.9c0.4,0.2,1.1,0.5,1.7,0.5c0.8,0,1.1-0.3,1.1-0.8c0-0.5-0.3-0.7-1.1-1c-1.3-0.5-1.9-1.2-1.9-2
		c0-1.2,1-2.1,2.6-2.1c0.8,0,1.4,0.2,1.8,0.4l-0.3,1.2c-0.3-0.2-0.8-0.4-1.4-0.4c-0.6,0-0.9,0.3-0.9,0.7c0,0.4,0.3,0.6,1.2,0.9
		c1.2,0.4,1.8,1.1,1.8,2.1c0,1.2-1,2.1-2.8,2.1c-0.8,0-1.6-0.2-2.1-0.5L264.8,24.9z"/>
	<path class="st0" d="M272.5,21.9v-1.4h-2.4V20l2.3-3.4h0.8v3.3h0.7v0.6h-0.7v1.4H272.5z M272.5,19.9v-1.8c0-0.3,0-0.5,0-0.8h0
		c-0.2,0.3-0.3,0.5-0.4,0.8l-1.3,1.8v0H272.5z"/>
</g>
<circle class="st2" cx="2.6" cy="5.4" r="2.6"/>
</svg>
