<!-- Generator: Adobe Illustrator 20.1.0, SVG Export Plug-In  -->
<svg version="1.1"
	 xmlns="http://www.w3.org/2000/svg" xmlns:xlink="http://www.w3.org/1999/xlink" xmlns:a="http://ns.adobe.com/AdobeSVGViewerExtensions/3.0/"
	 x="0px" y="0px" width="374.6px" height="45px" viewBox="0 0 374.6 45"
	 style="overflow:scroll;enable-background:new 0 0 374.6 45;" xml:space="preserve">
<style type="text/css">
	.st0{fill:#DA0962;}
	.st1{fill:#58595B;}
</style>
<defs>
</defs>
<g>
	<path class="st0" d="M2.9,0.2C1.7,1.8,0.8,3.6,0.8,6.4c0,2.7,0.9,4.5,2.1,6.1H2.3c-1-1.3-2.1-3.2-2.1-6.1c0-3,1.1-4.9,2.1-6.2H2.9z
		"/>
	<path class="st0" d="M9.2,5.6h-4v4.4h4.5v0.6H4.5V0.6h5v0.6H5.2V5h4V5.6z"/>
	<path class="st0" d="M18.9,10.2c-0.5,0.2-1.6,0.5-3,0.5c-1.3,0-2.5-0.3-3.6-1.3C11.5,8.6,11,7.3,11,5.6c0-2.8,1.8-5.2,5.3-5.2
		c1.1,0,2,0.3,2.4,0.5l-0.2,0.6c-0.5-0.3-1.2-0.4-2.2-0.4c-2.8,0-4.5,1.8-4.5,4.6c0,2.8,1.7,4.6,4.3,4.6c1.1,0,1.7-0.1,2.1-0.4V6.2
		h-2.3V5.7h3.1V10.2z"/>
	<path class="st0" d="M21.1,0h0.7v4.8h0c0.5-0.9,1.4-1.5,2.6-1.5c1.8,0,3.1,1.5,3.1,3.7c0,2.6-1.6,3.8-3.2,3.8c-1.2,0-2-0.5-2.6-1.5
		h0l-0.1,1.3h-0.6c0-0.5,0.1-1.1,0.1-1.7V0z M21.8,7.9c0,0.2,0,0.3,0.1,0.5c0.3,1.1,1.2,1.8,2.4,1.8c1.7,0,2.6-1.4,2.6-3.2
		c0-1.6-0.9-3.1-2.5-3.1c-1.1,0-2.1,0.7-2.4,1.9c0,0.2-0.1,0.4-0.1,0.6V7.9z"/>
	<path class="st0" d="M35,0.9v0.5l-4.4,9.2h-0.7l4.3-9.1v0h-5V0.9H35z"/>
	<path class="st0" d="M41.7,1.4c-0.3,0-0.6,0-1,0.1c-2.1,0.4-3.3,2.2-3.5,4.2h0c0.5-0.7,1.3-1.4,2.5-1.4c1.8,0,2.9,1.3,2.9,3.1
		c0,1.7-1.1,3.4-3,3.4c-1.8,0-3.2-1.4-3.2-4.1c0-2,0.7-3.5,1.6-4.4c0.7-0.7,1.7-1.2,2.7-1.4c0.4-0.1,0.7-0.1,1-0.1V1.4z M39.6,10.2
		c1.3,0,2.2-1.1,2.2-2.7c0-1.7-1-2.6-2.3-2.6c-0.9,0-1.8,0.6-2.2,1.4c-0.1,0.2-0.2,0.4-0.2,0.6C37.1,8.9,38,10.2,39.6,10.2
		L39.6,10.2z"/>
	<path class="st0" d="M46.8,1.7L46.8,1.7l-1.6,0.9L45,2l1.8-1.1h0.7v9.8h-0.7V1.7z"/>
	<path class="st0" d="M53.7,0.4c1.3,0,2.4,1,2.4,2.4c0,1.4-1,2.4-2.4,2.4s-2.4-1-2.4-2.4C51.3,1.5,52.4,0.4,53.7,0.4L53.7,0.4z
		 M53.7,0.9c-1.1,0-1.9,0.9-1.9,2c0,1.1,0.8,2,1.9,2c1.1,0,1.9-0.9,1.9-2C55.6,1.7,54.8,0.9,53.7,0.9L53.7,0.9z M53.3,4.1h-0.5V1.6
		c0.3,0,0.5-0.1,0.9-0.1c0.4,0,0.6,0.1,0.8,0.2c0.2,0.1,0.3,0.3,0.3,0.5c0,0.3-0.2,0.5-0.5,0.6v0c0.2,0.1,0.3,0.3,0.4,0.6
		c0.1,0.4,0.1,0.5,0.2,0.6h-0.5c-0.1-0.1-0.1-0.3-0.2-0.6c-0.1-0.3-0.2-0.4-0.6-0.4h-0.3V4.1z M53.3,2.7h0.3c0.3,0,0.6-0.1,0.6-0.4
		c0-0.2-0.2-0.4-0.6-0.4c-0.2,0-0.3,0-0.4,0V2.7z"/>
	<path class="st0" d="M57,12.5c1.2-1.5,2.1-3.4,2.1-6.2c0-2.7-0.9-4.6-2.1-6.1h0.7c1,1.3,2.1,3.2,2.1,6.1c0,3-1.1,4.8-2.1,6.1H57z"
		/>
	<path class="st1" d="M65,12.5c0.3-0.9,0.7-2.5,0.9-3.6l1.5-0.1c-0.3,1.3-1,2.9-1.4,3.6L65,12.5z"/>
	<path class="st1" d="M76.9,10.7l-0.1-0.9h0c-0.4,0.6-1.2,1.1-2.2,1.1c-1.5,0-2.2-1-2.2-2.1C72.3,7,73.9,6,76.7,6V5.9
		c0-0.6-0.2-1.7-1.6-1.7c-0.7,0-1.4,0.2-1.9,0.5l-0.3-0.9c0.6-0.4,1.5-0.6,2.4-0.6c2.2,0,2.8,1.5,2.8,3v2.7c0,0.6,0,1.2,0.1,1.7
		H76.9z M76.7,7c-1.4,0-3.1,0.2-3.1,1.6c0,0.9,0.6,1.3,1.2,1.3c0.9,0,1.5-0.6,1.8-1.2c0-0.1,0.1-0.3,0.1-0.4V7z"/>
	<path class="st1" d="M80.8,3.4l1.4,4.1c0.2,0.7,0.4,1.3,0.6,1.9h0c0.2-0.6,0.4-1.2,0.6-1.9l1.4-4.1h1.4l-2.8,7.3h-1.3l-2.8-7.3
		H80.8z"/>
	<path class="st1" d="M91.7,10.7l-0.1-0.9h0c-0.4,0.6-1.2,1.1-2.2,1.1c-1.5,0-2.2-1-2.2-2.1C87.1,7,88.6,6,91.4,6V5.9
		c0-0.6-0.2-1.7-1.6-1.7c-0.7,0-1.4,0.2-1.9,0.5l-0.3-0.9c0.6-0.4,1.5-0.6,2.4-0.6c2.2,0,2.8,1.5,2.8,3v2.7c0,0.6,0,1.2,0.1,1.7
		H91.7z M91.5,7c-1.4,0-3.1,0.2-3.1,1.6c0,0.9,0.6,1.3,1.2,1.3c0.9,0,1.5-0.6,1.8-1.2c0-0.1,0.1-0.3,0.1-0.4V7z"/>
	<path class="st1" d="M95,0h1.3v10.6H95V0z"/>
	<path class="st1" d="M102.7,10.7l-0.1-0.9h0c-0.4,0.6-1.2,1.1-2.2,1.1c-1.5,0-2.2-1-2.2-2.1c0-1.8,1.6-2.7,4.4-2.7V5.9
		c0-0.6-0.2-1.7-1.6-1.7c-0.7,0-1.4,0.2-1.9,0.5l-0.3-0.9c0.6-0.4,1.5-0.6,2.4-0.6c2.2,0,2.8,1.5,2.8,3v2.7c0,0.6,0,1.2,0.1,1.7
		H102.7z M102.5,7c-1.4,0-3.1,0.2-3.1,1.6c0,0.9,0.6,1.3,1.2,1.3c0.9,0,1.5-0.6,1.8-1.2c0-0.1,0.1-0.3,0.1-0.4V7z"/>
	<path class="st1" d="M112.4,0v8.8c0,0.6,0,1.4,0.1,1.9h-1.2l-0.1-1.3h0c-0.4,0.8-1.3,1.4-2.5,1.4c-1.8,0-3.1-1.5-3.1-3.7
		c0-2.4,1.5-3.9,3.3-3.9c1.1,0,1.9,0.5,2.2,1.1h0V0H112.4z M111,6.4c0-0.2,0-0.4-0.1-0.6c-0.2-0.8-0.9-1.5-1.9-1.5
		c-1.4,0-2.2,1.2-2.2,2.8c0,1.5,0.7,2.7,2.1,2.7c0.9,0,1.7-0.6,1.9-1.6c0-0.2,0.1-0.4,0.1-0.6V6.4z"/>
	<path class="st1" d="M121.3,7c0,2.7-1.9,3.9-3.6,3.9c-2,0-3.5-1.4-3.5-3.7c0-2.4,1.6-3.9,3.6-3.9C119.9,3.2,121.3,4.8,121.3,7z
		 M115.5,7c0,1.6,0.9,2.8,2.2,2.8c1.3,0,2.2-1.2,2.2-2.8c0-1.2-0.6-2.8-2.2-2.8C116.2,4.2,115.5,5.7,115.5,7z"/>
	<path class="st1" d="M126.9,5.8c0-0.9,0-1.7-0.1-2.4h1.2l0.1,1.2h0c0.5-0.9,1.4-1.4,2.6-1.4c1.8,0,3.1,1.5,3.1,3.7
		c0,2.6-1.6,3.9-3.3,3.9c-1,0-1.8-0.4-2.2-1.1h0v3.9h-1.3V5.8z M128.2,7.7c0,0.2,0,0.4,0.1,0.5c0.2,0.9,1,1.5,2,1.5
		c1.4,0,2.2-1.1,2.2-2.8c0-1.5-0.8-2.7-2.2-2.7c-0.9,0-1.7,0.6-2,1.6c0,0.2-0.1,0.4-0.1,0.5V7.7z"/>
	<path class="st1" d="M142.1,7c0,2.7-1.9,3.9-3.6,3.9c-2,0-3.5-1.4-3.5-3.7c0-2.4,1.6-3.9,3.6-3.9C140.7,3.2,142.1,4.8,142.1,7z
		 M136.4,7c0,1.6,0.9,2.8,2.2,2.8c1.3,0,2.2-1.2,2.2-2.8c0-1.2-0.6-2.8-2.2-2.8C137,4.2,136.4,5.7,136.4,7z"/>
	<path class="st1" d="M143.9,5.7c0-0.9,0-1.6-0.1-2.3h1.2l0,1.4h0.1c0.3-1,1.1-1.6,2-1.6c0.2,0,0.3,0,0.4,0v1.2c-0.1,0-0.3,0-0.5,0
		c-0.9,0-1.6,0.7-1.8,1.7c0,0.2-0.1,0.4-0.1,0.6v3.9h-1.3V5.7z"/>
	<path class="st1" d="M153.5,7.3c0,1.8,1.2,2.5,2.5,2.5c0.9,0,1.5-0.2,2-0.4l0.2,0.9c-0.5,0.2-1.3,0.5-2.4,0.5
		c-2.2,0-3.6-1.5-3.6-3.7c0-2.2,1.3-3.9,3.4-3.9c2.4,0,3,2.1,3,3.4c0,0.3,0,0.5,0,0.6H153.5z M157.4,6.3c0-0.8-0.3-2.1-1.8-2.1
		c-1.3,0-1.9,1.2-2,2.1H157.4z"/>
	<path class="st1" d="M160.5,0h1.3v10.6h-1.3V0z"/>
	<path class="st1" d="M169.5,7.7c0.1,0.9,1,1.4,2.1,1.4c0.8,0,1.4-0.1,2-0.3l0.3,1.5c-0.8,0.3-1.7,0.5-2.7,0.5
		c-2.5,0-3.9-1.4-3.9-3.7c0-1.9,1.2-3.9,3.7-3.9c2.4,0,3.3,1.8,3.3,3.7c0,0.4,0,0.7-0.1,0.9H169.5z M172.2,6.2
		c0-0.6-0.2-1.5-1.3-1.5c-1,0-1.3,0.9-1.4,1.5H172.2z"/>
	<path class="st1" d="M175.8,8.7c0.4,0.3,1.3,0.6,2,0.6c0.7,0,1-0.2,1-0.6s-0.2-0.6-1.1-0.8c-1.5-0.5-2.1-1.3-2.1-2.2
		c0-1.4,1.2-2.4,3-2.4c0.9,0,1.6,0.2,2.1,0.4l-0.4,1.6c-0.3-0.2-1-0.4-1.6-0.4c-0.6,0-0.9,0.2-0.9,0.6c0,0.3,0.3,0.5,1.2,0.8
		c1.4,0.5,2,1.2,2,2.3c0,1.4-1.1,2.4-3.2,2.4c-1,0-1.8-0.2-2.4-0.5L175.8,8.7z"/>
	<path class="st1" d="M185,1.2v2.1h1.6V5H185v2.7c0,0.9,0.2,1.3,0.9,1.3c0.3,0,0.5,0,0.7-0.1l0,1.7c-0.3,0.1-0.8,0.2-1.5,0.2
		c-0.7,0-1.4-0.3-1.7-0.6C183,9.8,182.8,9,182.8,8V5h-1V3.3h1V1.7L185,1.2z"/>
	<path class="st1" d="M195.1,8.3c0,1,0,1.7,0.1,2.4h-2l-0.1-1h0c-0.3,0.5-1,1.2-2.3,1.2c-1.5,0-2.6-0.9-2.6-3.2V3.3h2.3v3.9
		c0,1.1,0.3,1.7,1.1,1.7c0.6,0,1-0.4,1.1-0.8c0.1-0.1,0.1-0.3,0.1-0.5V3.3h2.3V8.3z"/>
	<path class="st1" d="M204.1,0v8.5c0,0.8,0,1.7,0.1,2.2h-2l-0.1-1.1h0c-0.5,0.8-1.3,1.2-2.3,1.2c-1.7,0-3.1-1.5-3.1-3.8
		c0-2.5,1.5-3.9,3.3-3.9c0.9,0,1.6,0.3,1.9,0.8h0V0H204.1z M201.9,6.4c0-0.1,0-0.3,0-0.4c-0.1-0.6-0.6-1.1-1.3-1.1
		c-1,0-1.6,0.9-1.6,2.1c0,1.2,0.6,2,1.6,2c0.7,0,1.2-0.4,1.3-1.1c0-0.2,0.1-0.3,0.1-0.5V6.4z"/>
	<path class="st1" d="M208.5,1.3c0,0.6-0.5,1.1-1.2,1.1c-0.7,0-1.2-0.5-1.2-1.1c0-0.7,0.5-1.2,1.2-1.2C208,0.1,208.5,0.6,208.5,1.3z
		 M206.1,10.7V3.3h2.3v7.3H206.1z"/>
	<path class="st1" d="M217.6,6.9c0,2.7-1.9,3.9-3.9,3.9c-2.1,0-3.8-1.4-3.8-3.8c0-2.4,1.6-3.9,3.9-3.9
		C216.1,3.2,217.6,4.7,217.6,6.9z M212.3,7c0,1.3,0.5,2.2,1.5,2.2c0.9,0,1.5-0.9,1.5-2.2c0-1.1-0.4-2.2-1.5-2.2
		C212.7,4.8,212.3,5.9,212.3,7z"/>
	<path class="st1" d="M222.9,0.7c0.7-0.1,1.7-0.2,3.1-0.2c1.4,0,2.4,0.3,3.1,0.8c0.6,0.5,1.1,1.4,1.1,2.3c0,1-0.3,1.8-0.9,2.4
		c-0.8,0.7-1.9,1.1-3.3,1.1c-0.3,0-0.6,0-0.8,0v3.6h-2.3V0.7z M225.2,5.3c0.2,0,0.4,0.1,0.8,0.1c1.2,0,2-0.6,2-1.6
		c0-0.9-0.6-1.5-1.8-1.5c-0.5,0-0.8,0-0.9,0.1V5.3z"/>
	<path class="st1" d="M234.1,8.1l-0.7,2.6H231l3.1-10.1h3l3.1,10.1h-2.5L237,8.1H234.1z M236.7,6.4L236,4.2
		c-0.2-0.6-0.4-1.3-0.5-1.9h0c-0.2,0.6-0.3,1.4-0.5,1.9l-0.6,2.1H236.7z"/>
	<path class="st1" d="M250.4,12.4c-1.4-0.4-2.6-0.9-4-1.4c-0.2-0.1-0.5-0.1-0.7-0.2c-2.3-0.2-4.4-1.8-4.4-5.1c0-3,1.9-5.3,4.9-5.3
		c3.1,0,4.8,2.3,4.8,5.1c0,2.3-1.1,3.9-2.4,4.5v0.1c0.8,0.2,1.6,0.4,2.4,0.6L250.4,12.4z M248.6,5.6c0-1.8-0.9-3.4-2.4-3.4
		c-1.6,0-2.5,1.5-2.5,3.4c0,1.9,0.9,3.4,2.4,3.4C247.7,9,248.6,7.6,248.6,5.6z"/>
	<path class="st1" d="M254.9,0.6v5.8c0,1.7,0.7,2.6,1.8,2.6c1.2,0,1.9-0.8,1.9-2.6V0.6h2.3v5.7c0,3.1-1.6,4.6-4.2,4.6
		c-2.5,0-4-1.4-4-4.6V0.6H254.9z"/>
	<path class="st1" d="M265.3,0.6v10.1H263V0.6H265.3z"/>
	<path class="st1" d="M267.5,0.7c0.8-0.1,1.9-0.2,3.1-0.2c1.9,0,3.2,0.3,4.1,1.1c1,0.8,1.7,2,1.7,3.8c0,1.9-0.7,3.3-1.7,4.1
		c-1.1,0.9-2.7,1.3-4.7,1.3c-1.2,0-2-0.1-2.6-0.2V0.7z M269.7,8.9c0.2,0,0.5,0,0.8,0c2.1,0,3.4-1.1,3.4-3.5c0-2.1-1.2-3.2-3.2-3.2
		c-0.5,0-0.8,0-1,0.1V8.9z"/>
	<path class="st1" d="M277.3,12.5c0.3-0.9,0.7-2.5,0.9-3.6l1.5-0.1c-0.3,1.3-1,2.9-1.4,3.6L277.3,12.5z"/>
	<path class="st1" d="M285.9,7.3c0,1.8,1.2,2.5,2.5,2.5c0.9,0,1.5-0.2,2-0.4l0.2,0.9c-0.5,0.2-1.3,0.5-2.4,0.5
		c-2.2,0-3.6-1.5-3.6-3.7c0-2.2,1.3-3.9,3.4-3.9c2.4,0,3,2.1,3,3.4c0,0.3,0,0.5,0,0.6H285.9z M289.8,6.3c0-0.8-0.3-2.1-1.8-2.1
		c-1.3,0-1.9,1.2-2,2.1H289.8z"/>
	<path class="st1" d="M292.9,0h1.3v10.6h-1.3V0z"/>
	<path class="st1" d="M301.1,7.3c0,1.8,1.2,2.5,2.5,2.5c0.9,0,1.5-0.2,2-0.4l0.2,0.9c-0.5,0.2-1.3,0.5-2.4,0.5
		c-2.2,0-3.6-1.5-3.6-3.7c0-2.2,1.3-3.9,3.4-3.9c2.4,0,3,2.1,3,3.4c0,0.3,0,0.5,0,0.6H301.1z M304.9,6.3c0-0.8-0.3-2.1-1.8-2.1
		c-1.3,0-1.9,1.2-2,2.1H304.9z"/>
	<path class="st1" d="M307.8,9.3c0.4,0.3,1.1,0.5,1.7,0.5c1,0,1.4-0.5,1.4-1.1c0-0.6-0.4-1-1.3-1.3c-1.3-0.5-1.9-1.2-1.9-2.1
		c0-1.2,0.9-2.1,2.5-2.1c0.7,0,1.4,0.2,1.8,0.5l-0.3,1c-0.3-0.2-0.8-0.4-1.5-0.4c-0.8,0-1.2,0.5-1.2,1c0,0.6,0.4,0.9,1.4,1.2
		c1.3,0.5,1.9,1.1,1.9,2.2c0,1.3-1,2.2-2.7,2.2c-0.8,0-1.5-0.2-2-0.5L307.8,9.3z"/>
	<path class="st1" d="M315.7,1.3v2.1h1.9v1h-1.9v3.9c0,0.9,0.3,1.4,1,1.4c0.3,0,0.6,0,0.8-0.1l0.1,1c-0.3,0.1-0.7,0.2-1.2,0.2
		c-0.6,0-1.1-0.2-1.4-0.6c-0.4-0.4-0.5-1-0.5-1.9v-4h-1.1v-1h1.1V1.7L315.7,1.3z"/>
	<path class="st1" d="M325.3,8.7c0,0.8,0,1.4,0.1,2h-1.2l-0.1-1.2h0c-0.3,0.6-1.1,1.3-2.4,1.3c-1.1,0-2.5-0.6-2.5-3.2V3.4h1.3v4
		c0,1.4,0.4,2.3,1.6,2.3c0.9,0,1.5-0.6,1.7-1.2c0.1-0.2,0.1-0.4,0.1-0.7V3.4h1.3V8.7z"/>
	<path class="st1" d="M333.9,0v8.8c0,0.6,0,1.4,0.1,1.9h-1.2l-0.1-1.3h0c-0.4,0.8-1.3,1.4-2.5,1.4c-1.8,0-3.1-1.5-3.1-3.7
		c0-2.4,1.5-3.9,3.3-3.9c1.1,0,1.9,0.5,2.2,1.1h0V0H333.9z M332.6,6.4c0-0.2,0-0.4-0.1-0.6c-0.2-0.8-0.9-1.5-1.9-1.5
		c-1.4,0-2.2,1.2-2.2,2.8c0,1.5,0.7,2.7,2.1,2.7c0.9,0,1.7-0.6,1.9-1.6c0-0.2,0.1-0.4,0.1-0.6V6.4z"/>
	<path class="st1" d="M337.7,1.4c0,0.5-0.3,0.8-0.8,0.8c-0.5,0-0.8-0.4-0.8-0.8c0-0.5,0.3-0.8,0.8-0.8
		C337.4,0.5,337.7,0.9,337.7,1.4z M336.2,10.7V3.4h1.3v7.3H336.2z"/>
	<path class="st1" d="M346.5,7c0,2.7-1.9,3.9-3.6,3.9c-2,0-3.5-1.4-3.5-3.7c0-2.4,1.6-3.9,3.6-3.9C345.1,3.2,346.5,4.8,346.5,7z
		 M340.7,7c0,1.6,0.9,2.8,2.2,2.8c1.3,0,2.2-1.2,2.2-2.8c0-1.2-0.6-2.8-2.2-2.8C341.4,4.2,340.7,5.7,340.7,7z"/>
	<path class="st1" d="M357.4,10.5c-0.4,0.2-1.2,0.3-2,0.3c-2.4,0-3.9-1.4-3.9-3.8c0-2.1,1.5-3.9,4.2-3.9c0.6,0,1.3,0.1,1.7,0.3
		L357,5.1c-0.3-0.1-0.7-0.2-1.3-0.2c-1.2,0-2,0.9-2,2.1c0,1.3,0.9,2.1,2,2.1c0.5,0,1-0.1,1.3-0.2L357.4,10.5z"/>
	<path class="st1" d="M366,6.9c0,2.7-1.9,3.9-3.9,3.9c-2.1,0-3.8-1.4-3.8-3.8c0-2.4,1.6-3.9,3.9-3.9C364.5,3.2,366,4.7,366,6.9z
		 M360.7,7c0,1.3,0.5,2.2,1.5,2.2c0.9,0,1.5-0.9,1.5-2.2c0-1.1-0.4-2.2-1.5-2.2C361.1,4.8,360.7,5.9,360.7,7z"/>
	<path class="st1" d="M367.6,5.7c0-0.9,0-1.7-0.1-2.3h2l0.1,1h0c0.3-0.5,1-1.2,2.3-1.2c1.5,0,2.6,1,2.6,3.2v4.3h-2.3V6.6
		c0-0.9-0.3-1.6-1.2-1.6c-0.6,0-1,0.4-1.2,0.9c-0.1,0.1-0.1,0.4-0.1,0.6v4.2h-2.3V5.7z"/>
	<path class="st1" d="M0.1,36.8c0-0.9,0-1.7-0.1-2.3h1.9l0.1,1h0c0.3-0.5,1-1.2,2.2-1.2c0.9,0,1.7,0.5,2,1.2h0
		c0.3-0.4,0.6-0.7,0.9-0.9c0.4-0.2,0.9-0.4,1.4-0.4c1.4,0,2.5,1,2.5,3.2v4.3H8.9v-4c0-1.1-0.3-1.7-1.1-1.7c-0.5,0-0.9,0.4-1,0.8
		c-0.1,0.2-0.1,0.4-0.1,0.6v4.3H4.5v-4.1c0-0.9-0.3-1.6-1-1.6c-0.6,0-0.9,0.5-1.1,0.8c-0.1,0.2-0.1,0.4-0.1,0.6v4.3H0.1V36.8z"/>
	<path class="st1" d="M17.3,41.8l-0.1-0.7h0C16.6,41.7,15.9,42,15,42c-1.5,0-2.4-1.1-2.4-2.3c0-1.9,1.7-2.8,4.3-2.8v-0.1
		c0-0.4-0.2-0.9-1.3-0.9c-0.8,0-1.5,0.3-2,0.6L13.2,35c0.5-0.3,1.5-0.6,2.8-0.6c2.4,0,3.2,1.4,3.2,3.2v2.5c0,0.7,0,1.4,0.1,1.8H17.3
		z M17,38.4c-1.2,0-2.1,0.3-2.1,1.2c0,0.6,0.4,0.9,0.9,0.9c0.6,0,1-0.4,1.2-0.8c0-0.1,0-0.3,0-0.4V38.4z M18.5,31.3l-1.8,2.3h-1.6
		l1.3-2.3H18.5z"/>
	<path class="st1" d="M21.2,39.8c0.4,0.3,1.3,0.6,2,0.6c0.7,0,1-0.2,1-0.6s-0.2-0.6-1.1-0.8c-1.5-0.5-2.1-1.3-2.1-2.2
		c0-1.4,1.2-2.4,3-2.4c0.9,0,1.6,0.2,2.1,0.4l-0.4,1.6c-0.3-0.2-1-0.4-1.6-0.4c-0.6,0-0.9,0.2-0.9,0.6c0,0.3,0.3,0.5,1.2,0.8
		c1.4,0.5,2,1.2,2,2.3c0,1.4-1.1,2.4-3.2,2.4c-1,0-1.8-0.2-2.4-0.5L21.2,39.8z"/>
	<path class="st1" d="M33.6,32.4v2.1h1.6v1.7h-1.6v2.7c0,0.9,0.2,1.3,0.9,1.3c0.3,0,0.5,0,0.7-0.1l0,1.7c-0.3,0.1-0.8,0.2-1.5,0.2
		c-0.7,0-1.4-0.3-1.7-0.6c-0.4-0.4-0.6-1.1-0.6-2.2v-3h-1v-1.7h1v-1.6L33.6,32.4z"/>
	<path class="st1" d="M39,32.5c0,0.6-0.5,1.1-1.2,1.1c-0.7,0-1.2-0.5-1.2-1.1c0-0.7,0.5-1.2,1.2-1.2C38.5,31.3,39,31.8,39,32.5z
		 M36.7,41.8v-7.3H39v7.3H36.7z"/>
	<path class="st1" d="M42.7,38.9c0.1,0.9,1,1.4,2.1,1.4c0.8,0,1.4-0.1,2-0.3l0.3,1.5c-0.8,0.3-1.7,0.5-2.7,0.5
		c-2.5,0-3.9-1.4-3.9-3.7c0-1.9,1.2-3.9,3.7-3.9c2.4,0,3.3,1.8,3.3,3.7c0,0.4,0,0.7-0.1,0.9H42.7z M45.4,37.3c0-0.6-0.2-1.5-1.3-1.5
		c-1,0-1.3,0.9-1.4,1.5H45.4z"/>
	<path class="st1" d="M49,36.8c0-0.9,0-1.7-0.1-2.3h1.9l0.1,1h0c0.3-0.5,1-1.2,2.2-1.2c0.9,0,1.7,0.5,2,1.2h0
		c0.3-0.4,0.6-0.7,0.9-0.9c0.4-0.2,0.9-0.4,1.4-0.4c1.4,0,2.5,1,2.5,3.2v4.3h-2.2v-4c0-1.1-0.3-1.7-1.1-1.7c-0.5,0-0.9,0.4-1,0.8
		c-0.1,0.2-0.1,0.4-0.1,0.6v4.3h-2.2v-4.1c0-0.9-0.3-1.6-1-1.6c-0.6,0-0.9,0.5-1.1,0.8c-0.1,0.2-0.1,0.4-0.1,0.6v4.3H49V36.8z"/>
	<path class="st1" d="M62.1,37c0-1,0-1.8-0.1-2.5h2l0.1,1h0c0.5-0.8,1.4-1.2,2.4-1.2c1.6,0,3,1.4,3,3.7c0,2.7-1.7,3.9-3.3,3.9
		c-0.9,0-1.6-0.4-1.9-0.8h0v3.6h-2.3V37z M64.3,38.7c0,0.2,0,0.3,0,0.5c0.1,0.6,0.7,1.1,1.3,1.1c1,0,1.6-0.8,1.6-2.1
		c0-1.2-0.5-2.1-1.5-2.1c-0.6,0-1.2,0.5-1.4,1.2c0,0.1,0,0.3,0,0.4V38.7z"/>
	<path class="st1" d="M78.4,38.1c0,2.7-1.9,3.9-3.9,3.9c-2.1,0-3.8-1.4-3.8-3.8c0-2.4,1.6-3.9,3.9-3.9
		C76.9,34.3,78.4,35.9,78.4,38.1z M73.1,38.2c0,1.3,0.5,2.2,1.5,2.2c0.9,0,1.5-0.9,1.5-2.2c0-1.1-0.4-2.2-1.5-2.2
		C73.5,36,73.1,37.1,73.1,38.2z"/>
	<path class="st1" d="M90.3,31.2v8.5c0,0.8,0,1.7,0.1,2.2h-2l-0.1-1.1h0c-0.5,0.8-1.3,1.2-2.3,1.2c-1.7,0-3.1-1.5-3.1-3.8
		c0-2.5,1.5-3.9,3.3-3.9c0.9,0,1.6,0.3,1.9,0.8h0v-4H90.3z M88,37.6c0-0.1,0-0.3,0-0.4c-0.1-0.6-0.6-1.1-1.3-1.1
		c-1,0-1.6,0.9-1.6,2.1c0,1.2,0.6,2,1.6,2c0.7,0,1.2-0.4,1.3-1.1c0-0.2,0.1-0.3,0.1-0.5V37.6z"/>
	<path class="st1" d="M94,38.9c0.1,0.9,1,1.4,2.1,1.4c0.8,0,1.4-0.1,2-0.3l0.3,1.5c-0.8,0.3-1.7,0.5-2.7,0.5c-2.5,0-3.9-1.4-3.9-3.7
		c0-1.9,1.2-3.9,3.7-3.9c2.4,0,3.3,1.8,3.3,3.7c0,0.4,0,0.7-0.1,0.9H94z M96.7,37.3c0-0.6-0.2-1.5-1.3-1.5c-1,0-1.3,0.9-1.4,1.5
		H96.7z"/>
	<path class="st1" d="M103.5,39.8c0.4,0.3,1.3,0.6,2,0.6c0.7,0,1-0.2,1-0.6s-0.2-0.6-1.1-0.8c-1.5-0.5-2.1-1.3-2.1-2.2
		c0-1.4,1.2-2.4,3-2.4c0.9,0,1.6,0.2,2.1,0.4l-0.4,1.6c-0.3-0.2-1-0.4-1.6-0.4c-0.6,0-0.9,0.2-0.9,0.6c0,0.3,0.3,0.5,1.2,0.8
		c1.4,0.5,2,1.2,2,2.3c0,1.4-1.1,2.4-3.2,2.4c-1,0-1.8-0.2-2.4-0.5L103.5,39.8z"/>
	<path class="st1" d="M111.9,38.9c0.1,0.9,1,1.4,2.1,1.4c0.8,0,1.4-0.1,2-0.3l0.3,1.5c-0.8,0.3-1.7,0.5-2.7,0.5
		c-2.5,0-3.9-1.4-3.9-3.7c0-1.9,1.2-3.9,3.7-3.9c2.4,0,3.3,1.8,3.3,3.7c0,0.4,0,0.7-0.1,0.9H111.9z M114.6,37.3
		c0-0.6-0.2-1.5-1.3-1.5c-1,0-1.3,0.9-1.4,1.5H114.6z"/>
	<path class="st1" d="M125.2,34.5c0,0.5-0.1,1.1-0.1,2.2v4.1c0,1.4-0.3,2.6-1.1,3.3c-0.8,0.7-1.9,0.9-3,0.9c-1,0-2-0.2-2.6-0.6
		l0.5-1.7c0.5,0.3,1.3,0.6,2.1,0.6c1.1,0,1.9-0.6,1.9-1.9v-0.5h0c-0.4,0.6-1.1,1-2,1c-1.8,0-3.1-1.5-3.1-3.6c0-2.4,1.5-3.9,3.3-3.9
		c1,0,1.6,0.4,2,1h0l0.1-0.9H125.2z M122.9,37.5c0-0.2,0-0.3,0-0.4c-0.2-0.6-0.6-1-1.2-1c-0.8,0-1.5,0.8-1.5,2.1
		c0,1.1,0.5,1.9,1.5,1.9c0.6,0,1-0.4,1.2-0.9c0.1-0.2,0.1-0.4,0.1-0.6V37.5z"/>
	<path class="st1" d="M134.1,39.5c0,1,0,1.7,0.1,2.4h-2l-0.1-1h0c-0.3,0.5-1,1.2-2.3,1.2c-1.5,0-2.6-0.9-2.6-3.2v-4.3h2.3v3.9
		c0,1.1,0.3,1.7,1.1,1.7c0.6,0,1-0.4,1.1-0.8c0.1-0.1,0.1-0.3,0.1-0.5v-4.4h2.3V39.5z"/>
	<path class="st1" d="M138.4,32.5c0,0.6-0.5,1.1-1.2,1.1c-0.7,0-1.2-0.5-1.2-1.1c0-0.7,0.5-1.2,1.2-1.2
		C137.9,31.3,138.4,31.8,138.4,32.5z M136,41.8v-7.3h2.3v7.3H136z"/>
	<path class="st1" d="M140.3,36.8c0-0.9,0-1.7-0.1-2.3h1.9l0.1,1h0c0.3-0.5,1-1.2,2.2-1.2c0.9,0,1.7,0.5,2,1.2h0
		c0.3-0.4,0.6-0.7,0.9-0.9c0.4-0.2,0.9-0.4,1.4-0.4c1.4,0,2.5,1,2.5,3.2v4.3h-2.2v-4c0-1.1-0.3-1.7-1.1-1.7c-0.5,0-0.9,0.4-1,0.8
		c-0.1,0.2-0.1,0.4-0.1,0.6v4.3h-2.2v-4.1c0-0.9-0.3-1.6-1-1.6c-0.6,0-0.9,0.5-1.1,0.8c-0.1,0.2-0.1,0.4-0.1,0.6v4.3h-2.2V36.8z"/>
	<path class="st1" d="M155.7,32.5c0,0.6-0.5,1.1-1.2,1.1c-0.7,0-1.2-0.5-1.2-1.1c0-0.7,0.5-1.2,1.2-1.2
		C155.2,31.3,155.7,31.8,155.7,32.5z M153.4,41.8v-7.3h2.3v7.3H153.4z"/>
	<path class="st1" d="M159.4,38.9c0.1,0.9,1,1.4,2.1,1.4c0.8,0,1.4-0.1,2-0.3l0.3,1.5c-0.8,0.3-1.7,0.5-2.7,0.5
		c-2.5,0-3.9-1.4-3.9-3.7c0-1.9,1.2-3.9,3.7-3.9c2.4,0,3.3,1.8,3.3,3.7c0,0.4,0,0.7-0.1,0.9H159.4z M162.1,37.3
		c0-0.6-0.2-1.5-1.3-1.5c-1,0-1.3,0.9-1.4,1.5H162.1z"/>
	<path class="st1" d="M165.7,36.8c0-0.9,0-1.7-0.1-2.3h2l0.1,1h0c0.3-0.5,1-1.2,2.3-1.2c1.5,0,2.6,1,2.6,3.2v4.3h-2.3v-4.1
		c0-0.9-0.3-1.6-1.2-1.6c-0.6,0-1,0.4-1.2,0.9c-0.1,0.1-0.1,0.4-0.1,0.6v4.2h-2.3V36.8z"/>
	<path class="st1" d="M177.2,32.4v2.1h1.6v1.7h-1.6v2.7c0,0.9,0.2,1.3,0.9,1.3c0.3,0,0.5,0,0.7-0.1l0,1.7c-0.3,0.1-0.8,0.2-1.5,0.2
		c-0.7,0-1.4-0.3-1.7-0.6c-0.4-0.4-0.6-1.1-0.6-2.2v-3h-1v-1.7h1v-1.6L177.2,32.4z"/>
	<path class="st1" d="M187.5,38.1c0,2.7-1.9,3.9-3.9,3.9c-2.1,0-3.8-1.4-3.8-3.8c0-2.4,1.6-3.9,3.9-3.9
		C186,34.3,187.5,35.9,187.5,38.1z M182.2,38.2c0,1.3,0.5,2.2,1.5,2.2c0.9,0,1.5-0.9,1.5-2.2c0-1.1-0.4-2.2-1.5-2.2
		C182.6,36,182.2,37.1,182.2,38.2z"/>
	<path class="st1" d="M193.3,38.4c0,1.8,1.2,2.5,2.5,2.5c0.9,0,1.5-0.2,2-0.4l0.2,0.9c-0.5,0.2-1.3,0.5-2.4,0.5
		c-2.2,0-3.6-1.5-3.6-3.7c0-2.2,1.3-3.9,3.4-3.9c2.4,0,3,2.1,3,3.4c0,0.3,0,0.5,0,0.6H193.3z M197.2,37.5c0-0.8-0.3-2.1-1.8-2.1
		c-1.3,0-1.9,1.2-2,2.1H197.2z"/>
	<path class="st1" d="M200.3,36.5c0-0.8,0-1.4-0.1-2h1.2l0.1,1.2h0c0.4-0.7,1.2-1.4,2.4-1.4c1,0,2.6,0.6,2.6,3.1v4.3h-1.3v-4.2
		c0-1.2-0.4-2.1-1.7-2.1c-0.9,0-1.5,0.6-1.8,1.4c-0.1,0.2-0.1,0.4-0.1,0.6v4.4h-1.3V36.5z"/>
	<path class="st1" d="M212,31.9c0.8-0.1,1.9-0.2,3.1-0.2c1.9,0,3.2,0.3,4.1,1.1c1,0.8,1.7,2,1.7,3.8c0,1.9-0.7,3.3-1.7,4.1
		c-1.1,0.9-2.7,1.3-4.7,1.3c-1.2,0-2-0.1-2.6-0.2V31.9z M214.3,40.1c0.2,0,0.5,0,0.8,0c2.1,0,3.4-1.1,3.4-3.5c0-2.1-1.2-3.2-3.2-3.2
		c-0.5,0-0.8,0-1,0.1V40.1z"/>
	<path class="st1" d="M230,41.6c-0.4,0.2-1.4,0.4-2.6,0.4c-3.5,0-5.3-2.2-5.3-5.1c0-3.4,2.5-5.4,5.5-5.4c1.2,0,2.1,0.2,2.5,0.5
		l-0.5,1.8c-0.5-0.2-1.1-0.4-1.9-0.4c-1.8,0-3.2,1.1-3.2,3.3c0,2,1.2,3.3,3.2,3.3c0.7,0,1.5-0.1,1.9-0.3L230,41.6z"/>
	<path class="st1" d="M231.4,40.6c0-0.8,0.6-1.4,1.3-1.4s1.3,0.6,1.3,1.4c0,0.8-0.5,1.4-1.3,1.4C231.9,42,231.4,41.4,231.4,40.6z"/>
	<path class="st1" d="M236.7,31.9L236.7,31.9l-1,0.5l-0.1-0.6l1.2-0.7h0.7v5.7h-0.7V31.9z"/>
	<path class="st1" d="M243.4,33.9c0,1.9-0.7,3-2,3c-1.1,0-1.9-1-1.9-2.9c0-1.9,0.8-3,2-3C242.7,31.1,243.4,32.1,243.4,33.9z
		 M240.3,34c0,1.5,0.5,2.3,1.2,2.3c0.8,0,1.2-0.9,1.2-2.4c0-1.4-0.4-2.3-1.2-2.3C240.8,31.7,240.3,32.5,240.3,34z"/>
</g>
</svg>
