<!-- Generator: Adobe Illustrator 20.1.0, SVG Export Plug-In  -->
<svg version="1.1"
	 xmlns="http://www.w3.org/2000/svg" xmlns:xlink="http://www.w3.org/1999/xlink" xmlns:a="http://ns.adobe.com/AdobeSVGViewerExtensions/3.0/"
	 x="0px" y="0px" width="326px" height="45.6px" viewBox="0 0 326 45.6"
	 style="overflow:scroll;enable-background:new 0 0 326 45.6;" xml:space="preserve">
<style type="text/css">
	.st0{opacity:0.8;fill:#FFFFFF;}
	.st1{fill:#8DC63F;}
</style>
<defs>
</defs>
<g>
	<g>
		<path class="st0" d="M325,39.8c0,2.7-2.2,4.8-4.8,4.8H5.8c-2.7,0-4.8-2.2-4.8-4.8V5.3c0-2.7,2.2-4.8,4.8-4.8h314.4
			c2.7,0,4.8,2.2,4.8,4.8V39.8z"/>
	</g>
	<g>
		<path class="st1" d="M10.6,45.6H5.8C2.6,45.6,0,43,0,39.8v-34C0,2.6,2.6,0,5.8,0h4.8c0.6,0,1,0.4,1,1s-0.4,1-1,1H5.8
			C3.7,2,2,3.7,2,5.8v34c0,2.1,1.7,3.8,3.8,3.8h4.8c0.6,0,1,0.4,1,1S11.2,45.6,10.6,45.6z"/>
		<path class="st1" d="M320.1,45.6h-4.8c-0.6,0-1-0.4-1-1s0.4-1,1-1h4.8c2.1,0,3.8-1.7,3.8-3.8v-34c0-2.1-1.7-3.8-3.8-3.8h-4.8
			c-0.6,0-1-0.4-1-1s0.4-1,1-1h4.8c3.2,0,5.8,2.6,5.8,5.8v34C326,43,323.4,45.6,320.1,45.6z"/>
	</g>
	<g>
		<path class="st1" d="M26,11.8c-1-0.3-2-0.5-2.8-0.7c-0.7-0.2-0.8-0.6-0.8-0.9l0-0.1c0.1-0.3,0.2-0.6,0.5-0.7
			c0.3-0.1,0.6-0.2,0.9-0.2l0.1,0c0.8,0.1,1.3,0.5,1.5,1.3l0.1,0.2H27l0-0.3c-0.1-1.7-1.1-2.6-2.7-2.9l-0.1,0c-0.2,0-0.3,0-0.5,0
			c-0.7,0-1.3,0.2-1.9,0.6c-0.6,0.5-1,1.1-1.1,1.9c0,0.1,0,0.2,0,0.3c0,0.6,0.2,1.1,0.5,1.5c0.4,0.5,1.2,0.9,2.4,1.1
			c1.1,0.2,1.9,0.5,2.4,0.6c0.4,0.2,0.7,0.4,0.9,0.8c0.1,0.2,0.1,0.5,0.1,0.8c0,0.2,0,0.4,0,0.6c0,0.2,0,0.3-0.1,0.4
			c-0.4,1.5-1.2,2.2-2.5,2.2c-0.1,0-0.3,0-0.4,0c-1.3-0.2-2-1.2-2-3.1c0-0.2,0-0.4,0-0.7l0-0.3h-1.8l0,0.2c0,0.3,0,0.5,0,0.7
			c0,2.8,1.2,4.4,3.6,4.7c0.2,0,0.5,0,0.7,0c2.2,0,3.5-1.2,4.1-3.6l0.1-0.4c0-0.3,0.1-0.6,0.1-0.9c0-0.7-0.1-1.2-0.4-1.7
			C27.9,12.7,27.1,12.1,26,11.8z"/>
		<rect x="31" y="10.6" class="st1" width="1.7" height="9.3"/>
		<path class="st1" d="M31.8,9.4c0.3,0,0.6-0.1,0.8-0.3C32.9,8.8,33,8.5,33,8.2s-0.1-0.6-0.3-0.8C32.2,7,31.4,7,31,7.4
			c-0.2,0.2-0.3,0.5-0.3,0.8c0,0.3,0.1,0.6,0.3,0.8C31.2,9.3,31.5,9.4,31.8,9.4z"/>
		<path class="st1" d="M41.6,15c-0.3-0.6-0.9-1.1-1.8-1.3c-0.8-0.2-1.5-0.4-2.1-0.6c-0.4-0.1-0.4-0.3-0.4-0.5l0-0.1
			c0-0.2,0.1-0.4,0.3-0.4c0.1-0.1,0.3-0.1,0.4-0.1c0,0,0.1,0,0.1,0l0.1,0c0.5,0.1,0.8,0.4,0.9,0.9l0,0.2h1.6l0-0.3
			c-0.1-1.4-0.8-2.3-2.2-2.5l-0.1,0c-0.8-0.1-1.4,0-2,0.4c-0.5,0.4-0.9,0.9-1,1.5c0,0.1,0,0.2,0,0.3c0,0.5,0.1,0.9,0.4,1.2
			c0.3,0.4,0.9,0.7,1.9,1c0.8,0.2,1.4,0.4,1.8,0.5c0.3,0.1,0.5,0.3,0.6,0.5c0.1,0.1,0.1,0.3,0.1,0.5c0,0.1,0,0.3,0,0.5
			c0,0.1,0,0.2-0.1,0.3c-0.3,1-0.8,1.5-1.7,1.5c-0.1,0-0.2,0-0.4,0c-0.8-0.2-1.2-0.8-1.2-2c0-0.1,0-0.3,0-0.6l0-0.3H35l0,0.2
			c0,0.3,0,0.5,0,0.6c0,2.1,0.9,3.4,2.8,3.7c0.2,0,0.5,0.1,0.7,0.1c1.7,0,2.8-0.9,3.3-2.8l0.1-0.3c0-0.3,0.1-0.6,0.1-0.8
			C41.8,15.7,41.7,15.3,41.6,15z"/>
		<polygon class="st1" points="44,19.9 45.8,19.9 45.8,12.3 47.2,12.3 47.2,10.6 45.8,10.6 45.8,8.7 44,8.7 44,10.6 42.7,10.6 
			42.7,12.3 44,12.3 		"/>
		<path class="st1" d="M51.1,20.1L51.1,20.1L51.1,20.1c2.5,0,3.8-1.5,4-4.4l0-0.3h-1.6l0,0.2c-0.1,1.7-0.8,2.6-2.1,2.7
			c0,0-0.1,0-0.1,0c-0.4,0-1.8,0-1.8-3.2c0-0.2,0-0.4,0-0.5h5.3l0-0.3c-0.2-2.5-1.2-3.8-3-3.9c-0.1,0-0.3,0-0.4,0
			c-1.5,0-2.6,0.8-3.3,2.2c-0.3,0.6-0.4,1.4-0.4,2.2c0,0.6,0.1,1.3,0.2,2C48.3,18.9,49.3,20,51.1,20.1z M51.4,12.1L51.4,12.1
			c0.9,0,1.3,0.3,1.5,0.9h-3.1C50.1,12.4,50.6,12.1,51.4,12.1z"/>
		<path class="st1" d="M65.4,15c0,0.1,0,0.2,0,0.3v4.7h1.7l0-4.8c0-0.2,0-0.3,0-0.5c0-2.7-1.1-4-3.2-4c-0.9,0-1.6,0.3-2.1,0.7
			c-0.4-0.4-1-0.6-1.8-0.7c-0.8,0-1.4,0.2-1.8,0.4v-0.4h-1.7v9.3h1.7l0-6.1c0.2-1.1,0.7-1.6,1.5-1.6h0.1c0.9,0,1.3,0.4,1.3,1.3v6.4
			h1.8v-7c0.3-0.6,0.8-0.8,1.6-0.7C65,12.4,65.4,13.3,65.4,15z"/>
		<path class="st1" d="M72.3,19.9h3.2l0-6.4c-0.3-2-1.5-3-3.5-3.1c-0.8,0-1.5,0.3-2.2,0.7l-0.3,0.2l1.4,1.1l0.2-0.1
			c0.3-0.2,0.6-0.3,0.9-0.3c0.8,0,1.3,0.5,1.6,1.3C73.2,13.1,72.7,13,72,13c-2.1,0-3.3,1.1-3.3,3.3v0.2C68.8,18.8,70,19.9,72.3,19.9
			z M70.5,16.2c0-1,0.5-1.5,1.5-1.6c1,0,1.6,0.5,1.8,1.6v1.9h-1.6c-1.1,0-1.7-0.6-1.7-1.7C70.5,16.4,70.5,16.3,70.5,16.2z"/>
		<path class="st1" d="M88.2,11c-0.4-0.3-1-0.4-1.8-0.4c-2.2,0-3.4,1.5-3.4,4.5c0,0.3,0,0.5,0,0.8c0.1,2.7,0.9,4,2.4,4
			c0.1,0,0.1,0,0.1,0h4.3v-12h-1.7V11z M86.3,12.1h0.1c1,0,1.6,0.5,1.8,1.6l0,4.5h-2.4c-0.7,0-1.1-0.8-1.2-2.5c0-0.2,0-0.4,0-0.6
			C84.7,12.1,85.9,12.1,86.3,12.1z"/>
		<path class="st1" d="M97.4,15.7c-0.1,1.7-0.8,2.6-2.1,2.7c0,0-0.1,0-0.1,0c-0.4,0-1.8,0-1.8-3.2c0-0.2,0-0.4,0-0.5h5.3l0-0.3
			c-0.2-2.5-1.2-3.8-3-3.9c-0.1,0-0.3,0-0.4,0c-1.5,0-2.6,0.8-3.3,2.2c-0.3,0.6-0.4,1.4-0.4,2.2c0,0.6,0.1,1.3,0.2,2
			c0.3,2,1.4,3,3.2,3.1h0h0c2.5,0,3.8-1.5,4-4.4l0-0.3h-1.6L97.4,15.7z M95.2,12.1L95.2,12.1c0.9,0,1.3,0.3,1.5,0.9h-3.1
			C94,12.4,94.5,12.1,95.2,12.1z"/>
		<rect x="106.8" y="7.9" class="st1" width="1.7" height="12"/>
		<path class="st1" d="M112.4,9.4c0.3,0,0.6-0.1,0.8-0.3c0.2-0.2,0.3-0.5,0.3-0.8s-0.1-0.6-0.3-0.8c-0.4-0.5-1.2-0.5-1.7,0
			c-0.2,0.2-0.3,0.5-0.3,0.8c0,0.3,0.1,0.6,0.3,0.8C111.8,9.3,112.1,9.4,112.4,9.4z"/>
		<rect x="111.5" y="10.6" class="st1" width="1.7" height="9.3"/>
		<path class="st1" d="M122.8,15.9c0-0.3,0-0.6,0-0.8c0-3-1.1-4.5-3.4-4.5c-0.8,0-1.4,0.2-1.8,0.5V7.9h-1.7v12h4.3
			c0.1,0,0.1,0,0.2,0C121.9,19.9,122.7,18.6,122.8,15.9z M119.5,12.1h0.1c0.4,0,1.6,0,1.6,3.1v0.6c0,1.6-0.4,2.5-1.2,2.5h-2.4l0-4.5
			C117.9,12.7,118.4,12.1,119.5,12.1z"/>
		<path class="st1" d="M127.7,20.1L127.7,20.1L127.7,20.1c2.5,0,3.8-1.5,4-4.4l0-0.3h-1.6l0,0.2c-0.1,1.7-0.8,2.6-2.1,2.7
			c0,0-0.1,0-0.1,0c-0.4,0-1.8,0-1.8-3.2c0-0.2,0-0.4,0-0.5h5.3l0-0.3c-0.2-2.5-1.2-3.8-3-3.9c-0.1,0-0.3,0-0.4,0
			c-1.5,0-2.6,0.8-3.3,2.2c-0.3,0.6-0.4,1.4-0.4,2.2c0,0.6,0.1,1.3,0.2,2C124.9,18.9,125.9,20,127.7,20.1z M128,12.1L128,12.1
			c0.9,0,1.3,0.3,1.5,0.9h-3.1C126.7,12.4,127.2,12.1,128,12.1z"/>
		<path class="st1" d="M135.2,10.6c-0.3,0-0.6,0.1-0.8,0.3v-0.3h-1.7v9.3h1.7l0-6.7c0.2-0.8,0.4-1,0.5-1c0.1-0.1,0.3-0.1,0.5-0.1
			c0.1,0,0.3,0,0.7,0.1l0.2,0.1l0.7-1.5l-0.3-0.1C136.3,10.6,135.7,10.6,135.2,10.6z"/>
		<path class="st1" d="M144.4,19.9l0-6.4c-0.3-2-1.5-3-3.5-3.1c-0.8,0-1.5,0.3-2.2,0.7l-0.3,0.2l1.4,1.1l0.2-0.1
			c0.3-0.2,0.6-0.3,0.9-0.3c0.8,0,1.3,0.5,1.6,1.3c-0.4-0.2-0.9-0.3-1.6-0.3c-2.1,0-3.3,1.1-3.3,3.3v0.2c0.1,2.3,1.3,3.4,3.6,3.4
			H144.4z M139.3,16.4c0-0.1,0-0.1,0-0.2c0-1,0.5-1.5,1.5-1.6c1,0,1.6,0.5,1.8,1.6v1.9h-1.6C139.9,18.2,139.4,17.6,139.3,16.4z"/>
		<path class="st1" d="M149.3,20.1c0.1,0,0.2,0,0.3,0c2.4-0.1,3.7-1.6,3.8-4.4l0-0.3l-1.8,0l0,0.2c0,1.7-0.7,2.6-2,2.8h-0.1
			c-1.1,0-1.7-0.6-1.8-1.7c-0.1-0.5-0.1-1-0.1-1.4c0-0.7,0.1-1.4,0.3-2c0.3-0.8,0.7-1.1,1.3-1.1c0.1,0,0.2,0,0.3,0
			c0.6,0,1.2,0.4,1.6,1l0.2,0.3l1.2-1.1l-0.1-0.2c-0.7-1.1-1.6-1.6-2.8-1.6h-0.2c-1.5,0-2.6,0.8-3.2,2.3c-0.3,0.8-0.4,1.6-0.4,2.5
			c0,0.7,0.1,1.4,0.3,2.1C146.4,19.2,147.5,20.1,149.3,20.1z"/>
		<rect x="155.6" y="10.6" class="st1" width="1.7" height="9.3"/>
		<path class="st1" d="M156.5,9.4c0.3,0,0.6-0.1,0.8-0.3c0.2-0.2,0.3-0.5,0.3-0.8s-0.1-0.6-0.3-0.8c-0.4-0.5-1.2-0.5-1.7,0
			c-0.2,0.2-0.3,0.5-0.3,0.8c0,0.3,0.1,0.6,0.3,0.8C155.9,9.3,156.1,9.4,156.5,9.4z"/>
		<polygon class="st1" points="165.6,7.4 162.9,7.4 161.7,10.1 163.3,10.1 		"/>
		<path class="st1" d="M163.1,10.3c-2.3,0-3.5,1.6-3.7,4.8c0.1,3.3,1.3,5,3.7,5c2.4,0,3.6-1.7,3.7-5
			C166.6,11.9,165.4,10.3,163.1,10.3z M163.1,18.4c-1.3,0-1.9-1.1-2-3.2c0.1-2.1,0.8-3.1,2-3.1c1.2,0,1.8,1,1.9,3.1
			C165,17.4,164.4,18.4,163.1,18.4z"/>
		<path class="st1" d="M173.1,19.9h1.7v-4.8c0-0.1,0-0.3,0-0.4c0-2.8-1-4.2-3.1-4.2c-0.8,0-1.4,0.1-1.8,0.4v-0.4h-1.7v9.3h1.7l0-6.1
			c0.2-1.1,0.8-1.7,1.8-1.7l0.1,0c0.3,0,1.4,0.2,1.4,2.7c0,0.1,0,0.3,0,0.4V19.9z"/>
		<path class="st1" d="M186.2,10.3c-2.3,0-3.6,1.4-3.8,4.3c0,0.3,0,0.6,0,0.8c0,3,1.1,4.5,3.4,4.5c0.8,0,1.4-0.1,1.8-0.2v3h1.7V10.6
			h-1.2C187.4,10.4,186.8,10.3,186.2,10.3z M186.1,12c0.5,0,1,0.1,1.5,0.3l0,4.4c-0.2,1.1-0.8,1.7-1.8,1.7h-0.1
			c-0.4,0-1.6,0-1.6-3.1c0-0.2,0-0.4,0-0.6C184.2,12.9,184.8,12,186.1,12z"/>
		<path class="st1" d="M196.3,16.8c-0.2,1.1-0.8,1.7-1.8,1.7h-0.1c-0.9,0-1.3-1-1.3-3.1v-4.7h-1.7v4.9c0,3,1.1,4.5,3.1,4.5
			c0.8,0,1.4-0.1,1.8-0.4v0.4h1.7v-9.3h-1.7L196.3,16.8z"/>
		<path class="st1" d="M205.5,15.7c-0.1,1.7-0.8,2.6-2.1,2.7c0,0-0.1,0-0.1,0c-0.4,0-1.8,0-1.8-3.2c0-0.2,0-0.4,0-0.5h5.3l0-0.3
			c-0.2-2.5-1.2-3.8-3-3.9c-0.1,0-0.3,0-0.4,0c-1.5,0-2.6,0.8-3.3,2.2c-0.3,0.6-0.4,1.4-0.4,2.2c0,0.6,0.1,1.3,0.2,2
			c0.3,2,1.4,3,3.2,3.1h0h0c2.5,0,3.8-1.5,4-4.4l0-0.3h-1.6L205.5,15.7z M203.3,12.1L203.3,12.1c0.9,0,1.3,0.3,1.5,0.9h-3.1
			C202.1,12.4,202.6,12.1,203.3,12.1z"/>
		<path class="st1" d="M221.4,15.4c0-0.3,0-0.5,0-0.8c-0.2-2.9-1.4-4.3-3.8-4.3c-0.6,0-1.2,0.1-1.9,0.3h-1.2v12.1h1.7v-3
			c0.4,0.2,1,0.2,1.8,0.2C220.3,20,221.4,18.4,221.4,15.4z M218.2,18.4h-0.1c-1,0-1.6-0.5-1.8-1.6v-4.5c0.5-0.2,1.1-0.3,1.5-0.3
			c1.3,0,1.9,0.9,2,2.7v0.6C219.8,18.4,218.6,18.4,218.2,18.4z"/>
		<path class="st1" d="M228.5,15.7c-0.1,1.7-0.8,2.6-2.1,2.7c0,0-0.1,0-0.1,0c-0.4,0-1.8,0-1.8-3.2c0-0.2,0-0.4,0-0.5h5.3l0-0.3
			c-0.2-2.5-1.2-3.8-3-3.9c-0.1,0-0.3,0-0.4,0c-1.5,0-2.6,0.8-3.3,2.2c-0.3,0.6-0.4,1.4-0.4,2.2c0,0.6,0.1,1.3,0.2,2
			c0.3,2,1.4,3,3.2,3.1h0h0c2.5,0,3.8-1.5,4-4.4l0-0.3h-1.6L228.5,15.7z M226.4,12.1L226.4,12.1c0.9,0,1.3,0.3,1.5,0.9h-3.1
			C225.1,12.4,225.7,12.1,226.4,12.1z"/>
		<path class="st1" d="M233.3,12.2c0.1-0.1,0.3-0.1,0.5-0.1c0.1,0,0.3,0,0.7,0.1l0.2,0.1l0.7-1.5l-0.3-0.1c-0.5-0.2-1-0.2-1.6-0.1
			c-0.3,0-0.6,0.1-0.8,0.3v-0.3h-1.7v9.3h1.7l0-6.7C233,12.5,233.2,12.3,233.3,12.2z"/>
		<path class="st1" d="M242.6,19.9v-7c0.3-0.6,0.8-0.8,1.6-0.7c0.7,0.2,1,1.1,1,2.7c0,0.1,0,0.2,0,0.3v4.7h1.7l0-4.8
			c0-0.2,0-0.3,0-0.5c0-2.7-1.1-4-3.2-4c-0.9,0-1.6,0.3-2.1,0.7c-0.4-0.4-1-0.6-1.8-0.7c-0.8,0-1.4,0.2-1.8,0.4v-0.4h-1.7v9.3h1.7
			l0-6.1c0.2-1.1,0.7-1.6,1.5-1.6h0.1c0.9,0,1.3,0.4,1.3,1.3v6.4H242.6z"/>
		<path class="st1" d="M250.5,9.4c0.3,0,0.6-0.1,0.8-0.3c0.2-0.2,0.3-0.5,0.3-0.8s-0.1-0.6-0.3-0.8c-0.4-0.5-1.2-0.5-1.7,0
			c-0.2,0.2-0.3,0.5-0.3,0.8c0,0.3,0.1,0.6,0.3,0.8C249.9,9.3,250.1,9.4,250.5,9.4z"/>
		<rect x="249.6" y="10.6" class="st1" width="1.7" height="9.3"/>
		<polygon class="st1" points="254.3,19.9 256.1,19.9 256.1,12.3 257.4,12.3 257.4,10.6 256.1,10.6 256.1,8.7 254.3,8.7 254.3,10.6 
			253,10.6 253,12.3 254.3,12.3 		"/>
		<path class="st1" d="M261.4,20.1L261.4,20.1L261.4,20.1c2.5,0,3.8-1.5,4-4.4l0-0.3h-1.6l0,0.2c-0.1,1.7-0.8,2.6-2.1,2.7
			c0,0-0.1,0-0.1,0c-0.4,0-1.8,0-1.8-3.2c0-0.2,0-0.4,0-0.5h5.3l0-0.3c-0.2-2.5-1.2-3.8-3-3.9c-0.1,0-0.3,0-0.4,0
			c-1.5,0-2.6,0.8-3.3,2.2c-0.3,0.6-0.4,1.4-0.4,2.2c0,0.6,0.1,1.3,0.2,2C258.5,18.9,259.6,20,261.4,20.1z M261.7,12.1L261.7,12.1
			c0.9,0,1.3,0.3,1.5,0.9h-3.1C260.4,12.4,260.9,12.1,261.7,12.1z"/>
		<path class="st1" d="M276.1,19.9h3.2l0-6.4c-0.3-2-1.5-3-3.5-3.1c-0.8,0-1.5,0.3-2.2,0.7l-0.3,0.2l1.4,1.1l0.2-0.1
			c0.3-0.2,0.6-0.3,0.9-0.3c0.8,0,1.3,0.5,1.6,1.3c-0.4-0.2-0.9-0.3-1.6-0.3c-2.1,0-3.3,1.1-3.3,3.3v0.2
			C272.6,18.8,273.8,19.9,276.1,19.9z M274.2,16.2c0-1,0.5-1.5,1.5-1.6c1,0,1.6,0.5,1.8,1.6v1.9H276c-1.1,0-1.7-0.6-1.7-1.7
			C274.3,16.4,274.2,16.3,274.2,16.2z"/>
		<rect x="287.3" y="7.9" class="st1" width="1.7" height="12"/>
		<path class="st1" d="M294.3,10.3c-2.3,0-3.5,1.6-3.7,4.8c0.1,3.3,1.3,5,3.7,5c2.4,0,3.6-1.7,3.7-5
			C297.8,11.9,296.5,10.3,294.3,10.3z M294.3,18.4c-1.3,0-1.9-1.1-2-3.2c0.1-2.1,0.8-3.1,2-3.1c1.2,0,1.8,1,1.9,3.1
			C296.2,17.4,295.5,18.4,294.3,18.4z"/>
		<path class="st1" d="M305.6,15c-0.3-0.6-0.9-1.1-1.8-1.3c-0.8-0.2-1.5-0.4-2.1-0.6c-0.4-0.1-0.4-0.3-0.4-0.5l0-0.1
			c0-0.2,0.1-0.4,0.3-0.4c0.1-0.1,0.3-0.1,0.4-0.1c0,0,0.1,0,0.1,0l0.1,0c0.5,0.1,0.8,0.4,0.9,0.9l0,0.2h1.6l0-0.3
			c-0.1-1.4-0.8-2.3-2.2-2.5l-0.1,0c-0.8-0.1-1.4,0-2,0.4c-0.5,0.4-0.9,0.9-1,1.5c0,0.1,0,0.2,0,0.3c0,0.5,0.1,0.9,0.4,1.2
			c0.3,0.4,0.9,0.7,1.9,1c0.8,0.2,1.4,0.4,1.8,0.5c0.3,0.1,0.5,0.3,0.6,0.5c0.1,0.1,0.1,0.3,0.1,0.5c0,0.1,0,0.3,0,0.5
			c0,0.1,0,0.2-0.1,0.3c-0.3,1-0.8,1.5-1.7,1.5c-0.1,0-0.2,0-0.4,0c-0.8-0.2-1.2-0.8-1.2-2c0-0.1,0-0.3,0-0.6l0-0.3H299l0,0.2
			c0,0.3,0,0.5,0,0.6c0,2.1,0.9,3.4,2.8,3.7c0.2,0,0.5,0.1,0.7,0.1c1.7,0,2.8-0.9,3.3-2.8l0.1-0.3c0-0.3,0.1-0.6,0.1-0.8
			C305.9,15.7,305.8,15.3,305.6,15z"/>
		<path class="st1" d="M31.8,27.3c-0.6,0-1.2,0.1-1.9,0.3h-1.2v12.1h1.7v-3c0.4,0.2,1,0.2,1.8,0.2c2.2,0,3.4-1.5,3.4-4.5
			c0-0.3,0-0.5,0-0.8C35.4,28.8,34.2,27.3,31.8,27.3z M32.4,35.4h-0.1c-1,0-1.6-0.5-1.8-1.6v-4.5C31,29.1,31.5,29,32,29
			c1.3,0,1.9,0.9,2,2.7v0.6C34,35.4,32.8,35.4,32.4,35.4z"/>
		<path class="st1" d="M39.6,27.6c-0.3,0-0.6,0.1-0.8,0.3v-0.3h-1.7v9.3h1.7l0-6.7c0.2-0.8,0.4-1,0.5-1c0.1-0.1,0.3-0.1,0.5-0.1
			c0.1,0,0.3,0,0.7,0.1l0.2,0.1l0.7-1.5l-0.3-0.1C40.7,27.6,40.2,27.5,39.6,27.6z"/>
		<path class="st1" d="M45.5,27.3c-2.3,0-3.5,1.6-3.7,4.8c0.1,3.3,1.3,5,3.7,5c2.4,0,3.6-1.7,3.7-5C49,28.9,47.8,27.3,45.5,27.3z
			 M45.5,35.4c-1.3,0-1.9-1.1-2-3.2c0.1-2.1,0.8-3.1,2-3.1c1.2,0,1.8,1,1.9,3.1C47.4,34.4,46.8,35.4,45.5,35.4z"/>
		<path class="st1" d="M54.2,27.5c-0.8,0-1.4,0.2-1.8,0.5v-3.1h-1.7v12H55c0.1,0,0.1,0,0.2,0c1.5,0,2.3-1.4,2.4-4c0-0.3,0-0.6,0-0.8
			C57.6,29.1,56.4,27.5,54.2,27.5z M54.2,29.1h0.1c0.4,0,1.6,0,1.6,3.1v0.6c0,1.6-0.4,2.5-1.2,2.5h-2.4l0-4.5
			C52.6,29.7,53.2,29.1,54.2,29.1z"/>
		<rect x="60" y="27.6" class="st1" width="1.7" height="9.3"/>
		<path class="st1" d="M60.1,24.4c-0.2,0.2-0.3,0.5-0.3,0.8c0,0.3,0.1,0.6,0.3,0.8c0.2,0.2,0.5,0.3,0.8,0.3c0.3,0,0.6-0.1,0.8-0.3
			c0.2-0.2,0.3-0.5,0.3-0.8c0-0.3-0.1-0.6-0.3-0.8C61.3,23.9,60.5,24,60.1,24.4z"/>
		<polygon class="st1" points="67.8,27.1 70,24.4 67.3,24.4 66.2,27.1 		"/>
		<path class="st1" d="M67.6,27.3c-2.3,0-3.5,1.6-3.7,4.8c0.1,3.3,1.3,5,3.7,5c2.4,0,3.6-1.7,3.7-5C71.1,28.9,69.8,27.3,67.6,27.3z
			 M67.6,35.4c-1.3,0-1.9-1.1-2-3.2c0.1-2.1,0.8-3.1,2-3.1c1.2,0,1.8,1,1.9,3.1C69.5,34.4,68.8,35.4,67.6,35.4z"/>
		<polygon class="st1" points="74.8,25.7 73.1,25.7 73.1,27.6 71.7,27.6 71.7,29.3 73.1,29.3 73.1,36.9 74.8,36.9 74.8,29.3 
			76.2,29.3 76.2,27.6 74.8,27.6 		"/>
		<path class="st1" d="M78.2,24.4c-0.2,0.2-0.3,0.5-0.3,0.8c0,0.3,0.1,0.6,0.3,0.8c0.2,0.2,0.5,0.3,0.8,0.3c0.3,0,0.6-0.1,0.8-0.3
			c0.2-0.2,0.3-0.5,0.3-0.8c0-0.3-0.1-0.6-0.3-0.8C79.4,23.9,78.6,24,78.2,24.4z"/>
		<rect x="78.1" y="27.6" class="st1" width="1.7" height="9.3"/>
		<path class="st1" d="M88,32.7c0,1.7-0.7,2.6-2,2.8h-0.1c-1.1,0-1.7-0.6-1.8-1.7c-0.1-0.5-0.1-1-0.1-1.4c0-0.7,0.1-1.4,0.3-2
			c0.3-0.8,0.7-1.1,1.3-1.1c0.1,0,0.2,0,0.3,0c0.6,0,1.2,0.4,1.6,1l0.2,0.3l1.2-1.1l-0.1-0.2c-0.7-1.1-1.6-1.6-2.8-1.6h-0.2
			c-1.5,0-2.6,0.8-3.2,2.3c-0.3,0.8-0.4,1.6-0.4,2.5c0,0.7,0.1,1.4,0.3,2.1c0.4,1.7,1.5,2.6,3.3,2.6c0.1,0,0.2,0,0.3,0
			c2.4-0.1,3.7-1.6,3.8-4.4l0-0.3l-1.8,0L88,32.7z"/>
		<path class="st1" d="M94.4,27.3c-2.3,0-3.5,1.6-3.7,4.8c0.1,3.3,1.3,5,3.7,5c2.4,0,3.6-1.7,3.7-5C98,28.9,96.7,27.3,94.4,27.3z
			 M94.4,35.4c-1.3,0-1.9-1.1-2-3.2c0.1-2.1,0.8-3.1,2-3.1c1.2,0,1.8,1,1.9,3.1C96.3,34.4,95.7,35.4,94.4,35.4z"/>
		<path class="st1" d="M104,30.6c-0.8-0.2-1.5-0.4-2.1-0.6c-0.4-0.1-0.4-0.3-0.4-0.5l0-0.1c0-0.2,0.1-0.4,0.3-0.4
			c0.1-0.1,0.3-0.1,0.4-0.1c0,0,0.1,0,0.1,0l0.1,0c0.5,0.1,0.8,0.4,0.9,0.9l0,0.2h1.6l0-0.3c-0.1-1.4-0.8-2.3-2.2-2.5l-0.1,0
			c-0.8-0.1-1.4,0-2,0.4c-0.5,0.4-0.9,0.9-1,1.5c0,0.1,0,0.2,0,0.3c0,0.5,0.1,0.9,0.4,1.2c0.3,0.4,0.9,0.7,1.9,1
			c0.8,0.2,1.4,0.4,1.8,0.5c0.3,0.1,0.5,0.3,0.6,0.5c0.1,0.1,0.1,0.3,0.1,0.5c0,0.1,0,0.3,0,0.5c0,0.1,0,0.2-0.1,0.3
			c-0.3,1-0.8,1.5-1.7,1.5c-0.1,0-0.2,0-0.4,0c-0.8-0.2-1.2-0.8-1.2-2c0-0.1,0-0.3,0-0.6l0-0.3h-1.8l0,0.2c0,0.3,0,0.5,0,0.6
			c0,2.1,0.9,3.4,2.8,3.7c0.2,0,0.5,0.1,0.7,0.1c1.7,0,2.8-0.9,3.3-2.8L106,34c0-0.3,0.1-0.6,0.1-0.8c0-0.5-0.1-0.9-0.3-1.2
			C105.5,31.4,104.9,30.9,104,30.6z"/>
		<path class="st1" d="M118.1,30.6c-0.8-0.2-1.5-0.4-2.1-0.6c-0.4-0.1-0.4-0.3-0.4-0.5l0-0.1c0-0.2,0.1-0.4,0.3-0.4
			c0.1-0.1,0.3-0.1,0.4-0.1c0,0,0.1,0,0.1,0l0.1,0c0.5,0.1,0.8,0.4,0.9,0.9l0,0.2h1.6l0-0.3c-0.1-1.4-0.8-2.3-2.2-2.5l-0.1,0
			c-0.8-0.1-1.4,0-2,0.4c-0.5,0.4-0.9,0.9-1,1.5c0,0.1,0,0.2,0,0.3c0,0.5,0.1,0.9,0.4,1.2c0.3,0.4,0.9,0.7,1.9,1
			c0.8,0.2,1.4,0.4,1.8,0.5c0.3,0.1,0.5,0.3,0.6,0.5c0.1,0.1,0.1,0.3,0.1,0.5c0,0.1,0,0.3,0,0.5c0,0.1,0,0.2-0.1,0.3
			c-0.3,1-0.8,1.5-1.7,1.5c-0.1,0-0.2,0-0.4,0c-0.8-0.2-1.2-0.8-1.2-2c0-0.1,0-0.3,0-0.6l0-0.3h-1.8l0,0.2c0,0.3,0,0.5,0,0.6
			c0,2.1,0.9,3.4,2.8,3.7c0.2,0,0.5,0.1,0.7,0.1c1.7,0,2.8-0.9,3.3-2.8l0.1-0.3c0-0.3,0.1-0.6,0.1-0.8c0-0.5-0.1-0.9-0.3-1.2
			C119.6,31.4,119,30.9,118.1,30.6z"/>
		<path class="st1" d="M124.9,27.3c-2.3,0-3.5,1.6-3.7,4.8c0.1,3.3,1.3,5,3.7,5c2.4,0,3.6-1.7,3.7-5
			C128.4,28.9,127.1,27.3,124.9,27.3z M124.9,35.4c-1.3,0-1.9-1.1-2-3.2c0.1-2.1,0.8-3.1,2-3.1c1.2,0,1.8,1,1.9,3.1
			C126.8,34.4,126.1,35.4,124.9,35.4z"/>
		<path class="st1" d="M133.6,27.5c-0.8,0-1.4,0.2-1.8,0.5v-3.1H130v12h4.3c0.1,0,0.1,0,0.2,0c1.5,0,2.3-1.4,2.4-4
			c0-0.3,0-0.6,0-0.8C136.9,29.1,135.8,27.5,133.6,27.5z M133.5,29.1h0.1c0.4,0,1.6,0,1.6,3.1v0.6c0,1.6-0.4,2.5-1.2,2.5h-2.4l0-4.5
			C132,29.7,132.5,29.1,133.5,29.1z"/>
		<path class="st1" d="M141.1,27.6c-0.3,0-0.6,0.1-0.8,0.3v-0.3h-1.7v9.3h1.7l0-6.7c0.2-0.8,0.4-1,0.5-1c0.1-0.1,0.3-0.1,0.5-0.1
			c0.1,0,0.3,0,0.7,0.1l0.2,0.1l0.7-1.5l-0.3-0.1C142.2,27.6,141.6,27.5,141.1,27.6z"/>
		<path class="st1" d="M149.3,32.7c-0.1,1.7-0.8,2.6-2.1,2.7c0,0-0.1,0-0.1,0c-0.4,0-1.8,0-1.8-3.2c0-0.2,0-0.4,0-0.5h5.3l0-0.3
			c-0.2-2.5-1.2-3.8-3-3.9c-0.1,0-0.3,0-0.4,0c-1.5,0-2.6,0.8-3.3,2.2c-0.3,0.6-0.4,1.4-0.4,2.2c0,0.6,0.1,1.3,0.2,2
			c0.3,2,1.4,3,3.2,3.1h0h0c2.5,0,3.8-1.5,4-4.4l0-0.3h-1.6L149.3,32.7z M147.1,29.1L147.1,29.1c0.9,0,1.3,0.3,1.5,0.9h-3.1
			C145.9,29.4,146.4,29.1,147.1,29.1z"/>
		<path class="st1" d="M157.3,27.8c-0.1,2.8-0.7,5.1-1.8,6.8c-1.1-1.7-1.7-4-1.9-6.7l0-0.2l-1.8,0l0,0.3c0.2,3.5,1.3,6.6,3.4,9.4
			l0.2,0.2l0.2-0.2c1.9-2.2,3-5.4,3.4-9.4l0-0.3h-1.8L157.3,27.8z"/>
		<rect x="161.4" y="27.6" class="st1" width="1.7" height="9.3"/>
		<path class="st1" d="M161.4,24.4c-0.2,0.2-0.3,0.5-0.3,0.8c0,0.3,0.1,0.6,0.3,0.8c0.2,0.2,0.5,0.3,0.8,0.3c0.3,0,0.6-0.1,0.8-0.3
			c0.2-0.2,0.3-0.5,0.3-0.8c0-0.3-0.1-0.6-0.3-0.8C162.7,23.9,161.9,24,161.4,24.4z"/>
		<path class="st1" d="M170.8,27.8c-0.1,2.8-0.7,5.1-1.8,6.8c-1.1-1.7-1.7-4-1.9-6.7l0-0.2l-1.8,0l0,0.3c0.2,3.5,1.3,6.6,3.4,9.4
			l0.2,0.2l0.2-0.2c1.9-2.2,3-5.4,3.4-9.4l0-0.3h-1.8L170.8,27.8z"/>
		<rect x="174.9" y="27.6" class="st1" width="1.7" height="9.3"/>
		<path class="st1" d="M175,24.4c-0.2,0.2-0.3,0.5-0.3,0.8c0,0.3,0.1,0.6,0.3,0.8c0.2,0.2,0.5,0.3,0.8,0.3c0.3,0,0.6-0.1,0.8-0.3
			c0.2-0.2,0.3-0.5,0.3-0.8c0-0.3-0.1-0.6-0.3-0.8C176.2,23.9,175.4,24,175,24.4z"/>
		<path class="st1" d="M181.7,27.6c-0.3,0-0.6,0.1-0.8,0.3v-0.3h-1.7v9.3h1.7l0-6.7c0.2-0.8,0.4-1,0.5-1c0.1-0.1,0.3-0.1,0.5-0.1
			c0.1,0,0.3,0,0.7,0.1l0.2,0.1l0.7-1.5l-0.3-0.1C182.8,27.6,182.2,27.5,181.7,27.6z"/>
		<path class="st1" d="M193.5,27.5c-0.8,0-1.5,0.3-2.2,0.7l-0.3,0.2l1.4,1.1l0.2-0.1c0.3-0.2,0.6-0.3,0.9-0.3c0.8,0,1.3,0.5,1.6,1.3
			c-0.4-0.2-0.9-0.3-1.6-0.3c-2.1,0-3.3,1.1-3.3,3.3v0.2c0.1,2.3,1.3,3.4,3.6,3.4h3.2l0-6.4C196.6,28.5,195.5,27.5,193.5,27.5z
			 M195.2,33.2v1.9h-1.6c-1.1,0-1.7-0.6-1.7-1.7c0-0.1,0-0.1,0-0.2c0-1,0.5-1.5,1.5-1.6C194.5,31.6,195,32.2,195.2,33.2z"/>
		<rect x="199" y="24.9" class="st1" width="1.7" height="12"/>
		<path class="st1" d="M212.2,27.3c-0.6,0-1.2,0.1-1.9,0.3h-1.2v12.1h1.7v-3c0.4,0.2,1,0.2,1.8,0.2c2.2,0,3.4-1.5,3.4-4.5
			c0-0.3,0-0.5,0-0.8C215.8,28.8,214.5,27.3,212.2,27.3z M212.7,35.4h-0.1c-1,0-1.6-0.5-1.8-1.6v-4.5c0.5-0.2,1.1-0.3,1.5-0.3
			c1.3,0,1.9,0.9,2,2.7v0.6C214.3,35.4,213.1,35.4,212.7,35.4z"/>
		<polygon class="st1" points="223.2,30 219.5,30 219.5,24.9 217.8,24.9 217.8,36.9 219.5,36.9 219.5,31.6 223.2,31.6 223.2,36.9 
			224.9,36.9 224.9,24.9 223.2,24.9 		"/>
		<path class="st1" d="M236.7,27.3c-2.3,0-3.6,1.4-3.8,4.3c0,0.3,0,0.6,0,0.8c0,3,1.1,4.5,3.4,4.5c0.7,0,1.2-0.1,1.6-0.3
			c-0.3,0.9-0.8,1.3-1.6,1.3c-0.3,0-0.6-0.1-0.9-0.3l-0.2-0.1l-1.4,1.1l0.3,0.2c0.6,0.5,1.4,0.7,2.2,0.7h0h0c2-0.1,3.2-1.1,3.5-3.1
			l0-8.8h-1.2C237.9,27.4,237.3,27.3,236.7,27.3z M236.6,29c0.5,0,1,0.1,1.5,0.3l0,4.4c-0.2,1.1-0.8,1.7-1.8,1.7h-0.1
			c-0.4,0-1.6,0-1.6-3.1c0-0.2,0-0.4,0-0.6C234.7,29.9,235.3,29,236.6,29z"/>
		<path class="st1" d="M244.7,27.5c-0.8,0-1.5,0.3-2.2,0.7l-0.3,0.2l1.4,1.1l0.2-0.1c0.3-0.2,0.6-0.3,0.9-0.3c0.8,0,1.3,0.5,1.6,1.3
			c-0.4-0.2-0.9-0.3-1.6-0.3c-2.1,0-3.3,1.1-3.3,3.3v0.2c0.1,2.3,1.3,3.4,3.6,3.4h3.2l0-6.4C247.9,28.5,246.7,27.5,244.7,27.5z
			 M246.5,33.2v1.9h-1.6c-1.1,0-1.7-0.6-1.7-1.7c0-0.1,0-0.1,0-0.2c0-1,0.5-1.5,1.5-1.6C245.7,31.6,246.3,32.2,246.5,33.2z"/>
		<polygon class="st1" points="243.5,27.1 245.1,27.1 247.3,24.4 244.6,24.4 		"/>
		<path class="st1" d="M254.2,30.6c-0.8-0.2-1.5-0.4-2.1-0.6c-0.4-0.1-0.4-0.3-0.4-0.5l0-0.1c0-0.2,0.1-0.4,0.3-0.4
			c0.1-0.1,0.3-0.1,0.4-0.1c0,0,0.1,0,0.1,0l0.1,0c0.5,0.1,0.8,0.4,0.9,0.9l0,0.2h1.6l0-0.3c-0.1-1.4-0.8-2.3-2.2-2.5l-0.1,0
			c-0.8-0.1-1.4,0-2,0.4c-0.5,0.4-0.9,0.9-1,1.5c0,0.1,0,0.2,0,0.3c0,0.5,0.1,0.9,0.4,1.2c0.3,0.4,0.9,0.7,1.9,1
			c0.8,0.2,1.4,0.4,1.8,0.5c0.3,0.1,0.5,0.3,0.6,0.5c0.1,0.1,0.1,0.3,0.1,0.5c0,0.1,0,0.3,0,0.5c0,0.1,0,0.2-0.1,0.3
			c-0.3,1-0.8,1.5-1.7,1.5c-0.1,0-0.2,0-0.4,0c-0.8-0.2-1.2-0.8-1.2-2c0-0.1,0-0.3,0-0.6l0-0.3h-1.8l0,0.2c0,0.3,0,0.5,0,0.6
			c0,2.1,0.9,3.4,2.8,3.7c0.2,0,0.5,0.1,0.7,0.1c1.7,0,2.8-0.9,3.3-2.8l0.1-0.3c0-0.3,0.1-0.6,0.1-0.8c0-0.5-0.1-0.9-0.3-1.2
			C255.7,31.4,255.1,30.9,254.2,30.6z"/>
		<polygon class="st1" points="260.2,25.7 258.5,25.7 258.5,27.6 257.2,27.6 257.2,29.3 258.5,29.3 258.5,36.9 260.2,36.9 
			260.2,29.3 261.6,29.3 261.6,27.6 260.2,27.6 		"/>
		<path class="st1" d="M265.2,27.6c-0.3,0-0.6,0.1-0.8,0.3v-0.3h-1.7v9.3h1.7l0-6.7c0.2-0.8,0.4-1,0.5-1c0.1-0.1,0.3-0.1,0.5-0.1
			c0.1,0,0.3,0,0.7,0.1l0.2,0.1l0.7-1.5l-0.3-0.1C266.3,27.6,265.8,27.5,265.2,27.6z"/>
		<rect x="268.8" y="27.6" class="st1" width="1.7" height="9.3"/>
		<path class="st1" d="M268.8,24.4c-0.2,0.2-0.3,0.5-0.3,0.8c0,0.3,0.1,0.6,0.3,0.8c0.2,0.2,0.5,0.3,0.8,0.3c0.3,0,0.6-0.1,0.8-0.3
			c0.2-0.2,0.3-0.5,0.3-0.8c0-0.3-0.1-0.6-0.3-0.8C270,23.9,269.2,24,268.8,24.4z"/>
		<path class="st1" d="M278.6,32.7c0,1.7-0.7,2.6-2,2.8h-0.1c-1.1,0-1.7-0.6-1.8-1.7c-0.1-0.5-0.1-1-0.1-1.4c0-0.7,0.1-1.4,0.3-2
			c0.3-0.8,0.7-1.1,1.3-1.1c0.1,0,0.2,0,0.3,0c0.6,0,1.2,0.4,1.6,1l0.2,0.3l1.2-1.1l-0.1-0.2c-0.7-1.1-1.6-1.6-2.8-1.6h-0.2
			c-1.5,0-2.6,0.8-3.2,2.3c-0.3,0.8-0.4,1.6-0.4,2.5c0,0.7,0.1,1.4,0.3,2.1c0.4,1.7,1.5,2.6,3.3,2.6c0.1,0,0.2,0,0.3,0
			c2.4-0.1,3.7-1.6,3.8-4.4l0-0.3l-1.8,0L278.6,32.7z"/>
		<path class="st1" d="M285.1,27.3c-2.3,0-3.5,1.6-3.7,4.8c0.1,3.3,1.3,5,3.7,5c2.4,0,3.6-1.7,3.7-5
			C288.6,28.9,287.3,27.3,285.1,27.3z M285.1,35.4c-1.3,0-1.9-1.1-2-3.2c0.1-2.1,0.8-3.1,2-3.1c1.2,0,1.8,1,1.9,3.1
			C287,34.4,286.3,35.4,285.1,35.4z"/>
		<path class="st1" d="M289.9,34.5c-0.3,0.3-0.4,0.6-0.4,1c0,0.4,0.1,0.7,0.4,1c0.3,0.3,0.6,0.4,1,0.4c0.4,0,0.7-0.1,1-0.4
			c0.3-0.3,0.4-0.6,0.4-1c0-0.4-0.1-0.7-0.4-1C291.4,34,290.4,34,289.9,34.5z"/>
		<path class="st1" d="M296.1,26.5l0.7-1.1l-0.5-0.6h-2.5l0,1.2h1.2l-0.9,1.5l0.9,0.8l0.5-0.7c0.9,0,1,0.4,1.1,0.6
			c0.1,0.2,0.1,0.4,0.1,0.6c0,0.3-0.1,0.7-0.3,1.1c-0.3,0.6-0.6,0.9-1,0.9c-0.4,0-0.8-0.3-1.1-1.1l-0.1-0.2l-1.2,0.3l0.1,0.3
			c0.4,1.3,1.1,1.9,2.1,1.9l0.1,0l0,0c0.9,0,1.6-0.5,2.1-1.5c0.3-0.6,0.4-1.2,0.4-1.7c0-0.3-0.1-0.7-0.2-1
			C297.4,27.1,296.9,26.6,296.1,26.5z"/>
	</g>
</g>
</svg>
