<!-- Generator: Adobe Illustrator 20.1.0, SVG Export Plug-In  -->
<svg version="1.1"
	 xmlns="http://www.w3.org/2000/svg" xmlns:xlink="http://www.w3.org/1999/xlink" xmlns:a="http://ns.adobe.com/AdobeSVGViewerExtensions/3.0/"
	 x="0px" y="0px" width="275.2px" height="18.3px" viewBox="0 0 275.2 18.3"
	 style="overflow:scroll;enable-background:new 0 0 275.2 18.3;" xml:space="preserve">
<style type="text/css">
	.st0{fill:#58595B;}
	.st1{fill:#6F76B4;}
</style>
<defs>
</defs>
<polygon class="st0" points="11,1 11,15.1 12.2,15.1 17.9,15.1 17.9,13.6 12.4,13.6 12.4,1 "/>
<rect x="19.9" y="1" class="st0" width="1.5" height="14.1"/>
<path class="st0" d="M30.6,10.4c-0.1,2.1-1.1,3.3-2.8,3.5c-0.1,0-0.2,0-0.2,0c-1.7,0-2.5-1.4-2.5-4.3c0-0.3,0-0.6,0-0.9h6.4l0-0.3
	c-0.3-2.7-1.4-4.1-3.3-4.3c-1.9-0.1-3.3,0.7-4.1,2.5c-0.3,0.7-0.5,1.6-0.5,2.6c0,0.7,0.1,1.5,0.2,2.4c0.4,2.3,1.6,3.5,3.6,3.6l0,0h0
	c2.8,0,4.3-1.7,4.6-4.9l0-0.3h-1.3L30.6,10.4z M27.5,5.5c0.1,0,0.2,0,0.3,0c0.1,0,0.1,0,0.2,0c1.1,0.1,1.7,0.6,1.9,1.7h-4.6
	C25.9,6.1,26.6,5.5,27.5,5.5z"/>
<path class="st0" d="M41.3,14.7l0-10.4H40c-0.8-0.3-1.6-0.4-2.2-0.4c-2.6,0-4.1,1.7-4.3,5c0,0.3,0,0.7,0,1c0,3.5,1.3,5.2,3.8,5.2
	c1,0,1.9-0.2,2.5-0.7l0,0.1c-0.2,1.6-1,2.3-2.4,2.4c-0.4,0-0.8-0.1-1.1-0.3l-0.2-0.1l-1.2,0.9l0.3,0.2c0.6,0.4,1.3,0.7,2.2,0.7h0h0
	C39.6,18.2,40.9,17,41.3,14.7z M37.3,13.7h-0.2c-1.5,0-2.3-1.3-2.3-4c0-0.2,0-0.5,0-0.7c0.1-2.4,1-3.5,2.7-3.5
	c0.6,0,1.3,0.1,2.1,0.4l0,5.6C39.5,13,38.7,13.7,37.3,13.7z"/>
<path class="st0" d="M50,11.5c-0.3,1.5-1.1,2.3-2.5,2.3h-0.2c-1.3,0-1.9-1.4-1.9-4V4.3h-1.5V10c0,3.5,1.2,5.2,3.5,5.2
	c1.1,0,1.9-0.2,2.5-0.7v0.6h1.5V4.3H50L50,11.5z"/>
<path class="st0" d="M60.6,10.4c-0.1,2.1-1.1,3.3-2.8,3.5c-0.1,0-0.2,0-0.2,0c-1.7,0-2.5-1.4-2.5-4.3c0-0.3,0-0.6,0-0.9h6.4l0-0.3
	c-0.3-2.7-1.4-4.1-3.3-4.3c-1.9-0.1-3.3,0.7-4.1,2.5c-0.3,0.7-0.5,1.6-0.5,2.6c0,0.7,0.1,1.5,0.2,2.4c0.4,2.3,1.6,3.5,3.6,3.6l0,0h0
	c2.8,0,4.3-1.7,4.6-4.9l0-0.3h-1.3L60.6,10.4z M57.4,5.5c0.1,0,0.2,0,0.3,0c0.1,0,0.1,0,0.2,0c1.1,0.1,1.7,0.6,1.9,1.7h-4.6
	C55.8,6.1,56.5,5.5,57.4,5.5z"/>
<path class="st0" d="M69.6,15.1H71V9.4c0-0.2,0-0.3,0-0.4c0-3.2-1.2-4.8-3.5-4.8c-1.1,0-1.9,0.2-2.5,0.7V4.3h-1.5v10.8H65l0-7.2
	c0.3-1.5,1.1-2.3,2.5-2.3l0.1,0c1.3,0.1,1.9,1.3,1.9,3.5c0,0.2,0,0.3,0,0.5V15.1z"/>
<path class="st0" d="M86.5,4.5c-0.1,3.4-1,6.3-2.5,8.5c-1.5-2.3-2.4-5.1-2.6-8.5l0-0.2l-1.5,0l0,0.3c0.2,4,1.5,7.7,3.9,10.8l0.2,0.2
	l0.2-0.2c2.1-2.4,3.4-6.1,3.9-10.8l0-0.3h-1.6L86.5,4.5z"/>
<rect x="90.9" y="4.3" class="st0" width="1.5" height="10.8"/>
<path class="st0" d="M90.9,0.3c-0.2,0.2-0.3,0.5-0.3,0.8c0,0.3,0.1,0.6,0.3,0.8c0.2,0.2,0.5,0.3,0.8,0.3c0.3,0,0.6-0.1,0.8-0.3
	c0.2-0.2,0.3-0.5,0.3-0.8c0-0.3-0.1-0.6-0.3-0.8C92.1-0.1,91.3-0.1,90.9,0.3z"/>
<path class="st0" d="M101.8,4.5c-0.1,3.4-1,6.3-2.5,8.5c-1.5-2.3-2.4-5.1-2.6-8.5l0-0.2l-1.5,0l0,0.3c0.2,4,1.5,7.7,3.9,10.8
	l0.2,0.2l0.2-0.2c2.1-2.4,3.4-6.1,3.9-10.8l0-0.3h-1.6L101.8,4.5z"/>
<path class="st0" d="M108.8,3.9c-2.6,0-4,1.9-4.2,5.6c0.1,3.8,1.5,5.8,4.2,5.8c2.7,0,4.1-1.9,4.2-5.8C112.8,5.8,111.4,3.9,108.8,3.9
	z M108.8,13.8c-1.7,0-2.6-1.4-2.7-4.2c0.1-2.7,1-4.1,2.7-4.1c1.7,0,2.5,1.3,2.7,4C111.4,12.4,110.6,13.8,108.8,13.8z"/>
<path class="st0" d="M119.8,7.9c-1-0.3-1.8-0.5-2.5-0.7c-0.7-0.2-0.8-0.6-0.8-0.8c0,0,0-0.1,0-0.1c0.1-0.3,0.2-0.6,0.5-0.7
	c0.2-0.1,0.4-0.2,0.7-0.2c0.1,0,0.2,0,0.2,0l0.1,0c0.7,0.1,1.2,0.5,1.3,1.2l0,0.2h1.3l0-0.3c-0.1-1.4-0.9-2.3-2.4-2.5l-0.1,0
	c-0.8-0.1-1.6,0-2.1,0.4c-0.6,0.4-0.9,1-1.1,1.7c0,0.1,0,0.3,0,0.4c0,0.5,0.1,0.9,0.4,1.3c0.4,0.4,1.1,0.8,2.2,1.1
	c1,0.3,1.7,0.5,2.2,0.7c0.4,0.2,0.6,0.4,0.8,0.8c0.1,0.2,0.1,0.4,0.1,0.7c0,0.2,0,0.4-0.1,0.6c0,0.1-0.1,0.3-0.1,0.4
	c-0.4,1.3-1.2,2-2.3,2c-0.2,0-0.3,0-0.5,0c-1.2-0.2-1.8-1.1-1.8-2.7c0-0.2,0-0.4,0-0.5l0-0.3h-1.6l0,0.2c0,0.2,0,0.3,0,0.5
	c0,2.4,1.1,3.8,3.1,4.2c0.3,0,0.5,0.1,0.8,0.1c1.9,0,3.1-1,3.7-3.1l0.1-0.4c0.1-0.4,0.1-0.7,0.1-1c0-0.5-0.1-1-0.3-1.4
	C121.5,8.8,120.8,8.3,119.8,7.9z"/>
<path class="st0" d="M138.9,15.1V8.6c0-2.9-1.2-4.3-3.4-4.3c-1.1,0-1.9,0.2-2.5,0.7V1h-1.5v14.1h1.5l0-7.2c0.3-1.5,1.1-2.3,2.5-2.3
	h0.2c0.4,0,1.8,0,1.8,3.1v6.3H138.9z"/>
<path class="st0" d="M142.7,4.8L142.4,5l1.2,0.9l0.2-0.1c0.3-0.2,0.7-0.3,1.1-0.3c1.5,0,2.3,0.8,2.4,2.3l0,0.1
	c-0.6-0.5-1.4-0.7-2.5-0.7c-2.4,0-3.7,1.3-3.7,3.7v0.2c0.1,2.6,1.4,3.9,4,3.9h3.6l0-7.5c-0.3-2.3-1.7-3.4-3.9-3.5
	C144,4.1,143.3,4.3,142.7,4.8z M147.4,10.8v2.6h-2.2c-1.5,0-2.3-0.8-2.4-2.4c0-0.1,0-0.2,0-0.3c0-1.4,0.7-2.1,2.2-2.2
	C146.3,8.6,147.1,9.4,147.4,10.8z"/>
<path class="st0" d="M153.6,15.3c0.3,0,0.5,0.1,0.8,0.1c1.9,0,3.1-1,3.7-3.1l0.1-0.4c0.1-0.4,0.1-0.7,0.1-1c0-0.5-0.1-1-0.3-1.4
	c-0.3-0.7-1-1.2-2.1-1.5c-1-0.3-1.8-0.5-2.5-0.7c-0.7-0.2-0.8-0.6-0.8-0.8c0,0,0-0.1,0-0.1c0.1-0.3,0.2-0.6,0.5-0.7
	c0.2-0.1,0.4-0.2,0.7-0.2c0.1,0,0.2,0,0.2,0l0.1,0c0.7,0.1,1.2,0.5,1.3,1.2l0,0.2h1.3l0-0.3c-0.1-1.4-0.9-2.3-2.4-2.5l-0.1,0
	c-0.8-0.1-1.6,0-2.1,0.4c-0.6,0.4-0.9,1-1.1,1.7c0,0.1,0,0.3,0,0.4c0,0.5,0.1,0.9,0.4,1.3c0.4,0.4,1.1,0.8,2.2,1.1
	c1,0.3,1.7,0.5,2.2,0.7c0.4,0.2,0.6,0.4,0.8,0.8c0.1,0.2,0.1,0.4,0.1,0.7c0,0.2,0,0.4-0.1,0.6c0,0.1-0.1,0.3-0.1,0.4
	c-0.4,1.3-1.2,2-2.3,2c-0.2,0-0.3,0-0.5,0c-1.2-0.2-1.8-1.1-1.8-2.7c0-0.2,0-0.4,0-0.5l0-0.3h-1.6l0,0.2c0,0.2,0,0.3,0,0.5
	C150.4,13.5,151.5,14.9,153.6,15.3z"/>
<polygon class="st0" points="161,2 161,4.3 159.3,4.3 159.3,5.8 161,5.8 161,15.1 162.5,15.1 162.5,5.8 164.2,5.8 164.2,4.3 
	162.5,4.3 162.5,2 "/>
<path class="st0" d="M169,4.1c-0.9,0-1.6,0.2-2.2,0.7L166.6,5l1.2,0.9l0.2-0.1c0.3-0.2,0.7-0.3,1.1-0.3c1.5,0,2.3,0.8,2.4,2.3l0,0.1
	c-0.6-0.5-1.4-0.7-2.5-0.7c-2.4,0-3.7,1.3-3.7,3.7v0.2c0.1,2.6,1.4,3.9,4,3.9h3.6l0-7.5C172.6,5.3,171.3,4.2,169,4.1z M171.5,10.8
	v2.6h-2.2c-1.5,0-2.3-0.8-2.4-2.4c0-0.1,0-0.2,0-0.3c0-1.4,0.7-2.1,2.2-2.2C170.4,8.6,171.2,9.4,171.5,10.8z"/>
<path class="st0" d="M189.7,8.6l0-0.3c-0.3-2.7-1.4-4.1-3.3-4.3c-1.9-0.1-3.3,0.7-4.1,2.5c-0.3,0.7-0.5,1.6-0.5,2.6
	c0,0.7,0.1,1.5,0.2,2.4c0.4,2.3,1.6,3.5,3.6,3.6l0,0h0c2.8,0,4.3-1.7,4.6-4.9l0-0.3h-1.3l0,0.2c-0.1,2.1-1.1,3.3-2.8,3.5
	c-0.1,0-0.2,0-0.2,0c-1.7,0-2.5-1.4-2.5-4.3c0-0.3,0-0.6,0-0.9H189.7z M185.7,5.5c0.1,0,0.2,0,0.3,0c0.1,0,0.1,0,0.2,0
	c1.1,0.1,1.7,0.6,1.9,1.7h-4.6C184.1,6.1,184.8,5.5,185.7,5.5z"/>
<rect x="192.4" y="1" class="st0" width="1.5" height="14.1"/>
<rect x="204.7" y="4.3" class="st0" width="1.5" height="10.8"/>
<path class="st0" d="M204.7,0.3c-0.2,0.2-0.3,0.5-0.3,0.8c0,0.3,0.1,0.6,0.3,0.8c0.2,0.2,0.5,0.3,0.8,0.3c0.3,0,0.6-0.1,0.8-0.3
	c0.2-0.2,0.3-0.5,0.3-0.8c0-0.3-0.1-0.6-0.3-0.8C205.9-0.1,205.1-0.1,204.7,0.3z"/>
<path class="st0" d="M215.3,15.1h1.5V9.4c0-0.2,0-0.3,0-0.4c0-3.2-1.2-4.8-3.5-4.8c-1.1,0-1.9,0.2-2.5,0.7V4.3h-1.5v10.8h1.5l0-7.2
	c0.3-1.5,1.1-2.3,2.5-2.3l0.1,0c1.3,0.1,1.9,1.3,1.9,3.5c0,0.2,0,0.3,0,0.5V15.1z"/>
<polygon class="st0" points="221.1,15.1 221.1,5.8 222.8,5.8 222.8,4.3 221.1,4.3 221.1,2 219.6,2 219.6,4.3 218,4.3 218,5.8 
	219.6,5.8 219.6,15.1 "/>
<path class="st0" d="M227.4,15.3L227.4,15.3L227.4,15.3c2.8,0,4.4-1.7,4.6-4.9l0-0.3h-1.3l0,0.2c-0.1,2.1-1.1,3.3-2.8,3.5
	c-0.1,0-0.2,0-0.2,0c-1.7,0-2.5-1.4-2.5-4.3c0-0.3,0-0.6,0-0.9h6.4l0-0.3c-0.3-2.7-1.4-4.1-3.3-4.3c-1.9-0.1-3.3,0.7-4.1,2.5
	c-0.3,0.7-0.5,1.6-0.5,2.6c0,0.7,0.1,1.5,0.2,2.4C224.2,14,225.4,15.2,227.4,15.3z M227.5,5.5c0.1,0,0.2,0,0.3,0c0.1,0,0.1,0,0.2,0
	c1.1,0.1,1.7,0.6,1.9,1.7h-4.6C225.9,6.1,226.6,5.5,227.5,5.5z"/>
<path class="st0" d="M237.2,15.3c1.9,0,3.1-1,3.7-3.1l0.1-0.4c0.1-0.4,0.1-0.7,0.1-1c0-0.5-0.1-1-0.3-1.4c-0.3-0.7-1-1.2-2.1-1.5
	c-1-0.3-1.8-0.5-2.5-0.7c-0.7-0.2-0.8-0.6-0.8-0.8c0,0,0-0.1,0-0.1c0.1-0.3,0.2-0.6,0.5-0.7c0.2-0.1,0.4-0.2,0.7-0.2
	c0.1,0,0.2,0,0.2,0l0.1,0c0.7,0.1,1.2,0.5,1.3,1.2l0,0.2h1.3l0-0.3c-0.1-1.4-0.9-2.3-2.4-2.5l-0.1,0c-0.8-0.1-1.6,0-2.1,0.4
	c-0.6,0.4-0.9,1-1.1,1.7c0,0.1,0,0.3,0,0.4c0,0.5,0.1,0.9,0.4,1.3c0.4,0.4,1.1,0.8,2.2,1.1c1,0.3,1.7,0.5,2.2,0.7
	c0.4,0.2,0.6,0.4,0.8,0.8c0.1,0.2,0.1,0.4,0.1,0.7c0,0.2,0,0.4-0.1,0.6c0,0.1-0.1,0.3-0.1,0.4c-0.4,1.3-1.2,2-2.3,2
	c-0.2,0-0.3,0-0.5,0c-1.2-0.2-1.8-1.1-1.8-2.7c0-0.2,0-0.4,0-0.5l0-0.3h-1.6l0,0.2c0,0.2,0,0.3,0,0.5c0,2.4,1.1,3.8,3.1,4.2
	C236.7,15.3,236.9,15.3,237.2,15.3z"/>
<polygon class="st0" points="245.3,15.1 245.3,5.8 247,5.8 247,4.3 245.3,4.3 245.3,2 243.8,2 243.8,4.3 242.2,4.3 242.2,5.8 
	243.8,5.8 243.8,15.1 "/>
<path class="st0" d="M249.3,0.3c-0.2,0.2-0.3,0.5-0.3,0.8c0,0.3,0.1,0.6,0.3,0.8c0.2,0.2,0.5,0.3,0.8,0.3c0.3,0,0.6-0.1,0.8-0.3
	c0.2-0.2,0.3-0.5,0.3-0.8c0-0.3-0.1-0.6-0.3-0.8C250.5-0.1,249.8-0.1,249.3,0.3z"/>
<rect x="249.4" y="4.3" class="st0" width="1.5" height="10.8"/>
<path class="st0" d="M259.9,9.7v5.4h1.5V9.4c0-0.2,0-0.3,0-0.4c0-3.2-1.2-4.8-3.5-4.8c-1.1,0-1.9,0.2-2.5,0.7V4.3h-1.5v10.8h1.5
	l0-7.2c0.3-1.5,1.1-2.3,2.5-2.3l0.1,0c1.3,0.1,1.9,1.3,1.9,3.5C260,9.3,260,9.5,259.9,9.7z"/>
<path class="st0" d="M267.2,3.9c-2.6,0-4,1.9-4.2,5.6c0.1,3.8,1.5,5.8,4.2,5.8c2.7,0,4.1-1.9,4.2-5.8C271.2,5.8,269.8,3.9,267.2,3.9
	z M267.2,13.8c-1.7,0-2.6-1.4-2.7-4.2c0.1-2.7,1-4.1,2.7-4.1c1.7,0,2.5,1.3,2.7,4C269.8,12.4,269,13.8,267.2,13.8z"/>
<path class="st0" d="M272.8,12.6c-0.3,0.3-0.4,0.6-0.4,1c0,0.4,0.1,0.7,0.4,1c0.3,0.3,0.6,0.4,1,0.4c0.4,0,0.7-0.1,1-0.4
	c0.3-0.3,0.4-0.6,0.4-1c0-0.4-0.1-0.7-0.4-1C274.2,12.1,273.3,12.1,272.8,12.6z"/>
<circle class="st1" cx="2.5" cy="8.1" r="2.5"/>
</svg>
