<!-- Generator: Adobe Illustrator 20.1.0, SVG Export Plug-In  -->
<svg version="1.1"
	 xmlns="http://www.w3.org/2000/svg" xmlns:xlink="http://www.w3.org/1999/xlink" xmlns:a="http://ns.adobe.com/AdobeSVGViewerExtensions/3.0/"
	 x="0px" y="0px" width="326.5px" height="18.3px" viewBox="0 0 326.5 18.3"
	 style="overflow:scroll;enable-background:new 0 0 326.5 18.3;" xml:space="preserve">
<style type="text/css">
	.st0{fill:#58595B;}
	.st1{fill:#6F76B4;}
</style>
<defs>
</defs>
<path class="st0" d="M14.6,15.1c0.3,0,0.5,0,0.8,0c2.5,0,4-1.4,4.7-4.1l0.1-0.5c0.1-0.4,0.1-0.7,0.1-1.1c0-0.8-0.1-1.4-0.4-1.9
	c-0.5-0.8-1.3-1.4-2.6-1.8c-1.2-0.3-2.4-0.6-3.3-0.9c-0.8-0.2-1.2-0.6-1.2-1.3c0,0,0-0.1,0-0.1c0.1-0.5,0.3-0.9,0.7-1.1
	c0.3-0.2,0.7-0.3,1-0.3c0.1,0,0.2,0,0.3,0l0.1,0c1.1,0.1,1.8,0.7,2,1.6L17,3.9h1.3l0-0.3c-0.2-1.7-1.2-2.8-3.1-3l-0.2,0
	c-1.1-0.1-1.9,0.1-2.6,0.6c-0.7,0.5-1.1,1.2-1.2,2.1c0,0.1,0,0.2,0,0.4c0,0.7,0.2,1.2,0.6,1.7c0.5,0.5,1.4,1,2.8,1.3
	c1.3,0.3,2.3,0.6,2.9,0.8C18,7.6,18.4,8,18.6,8.5c0.1,0.3,0.2,0.7,0.2,1.1c0,0.2,0,0.5,0,0.7c0,0.2-0.1,0.4-0.1,0.5
	c-0.5,1.9-1.6,2.8-3.3,2.8c-0.2,0-0.4,0-0.5,0c-1.8-0.3-2.7-1.6-2.7-4c0-0.2,0-0.4,0-0.7l0-0.3h-1.6l0,0.2c0,0.2,0,0.4,0,0.7
	C10.6,12.9,11.9,14.7,14.6,15.1z"/>
<path class="st0" d="M25.9,15.3c2.7,0,4.1-1.9,4.2-5.8c-0.2-3.7-1.6-5.6-4.2-5.6c-2.6,0-4,1.9-4.2,5.6
	C21.8,13.3,23.2,15.3,25.9,15.3z M25.9,5.5c1.7,0,2.5,1.3,2.7,4c-0.1,2.8-0.9,4.2-2.7,4.2c-1.7,0-2.6-1.4-2.7-4.2
	C23.3,6.8,24.2,5.5,25.9,5.5z"/>
<path class="st0" d="M37,15.1c1.6,0,2.5-1.6,2.6-4.6c0-0.3,0-0.7,0-1c0-3.5-1.3-5.2-3.8-5.2c-1.1,0-1.9,0.2-2.5,0.7V1h-1.5v14.1
	l4.9,0C36.9,15.1,36.9,15.1,37,15.1z M35.9,5.6H36c1.5,0,2.3,1.3,2.3,4c0,0.2,0,0.5,0,0.7c-0.1,3.3-1.3,3.3-1.7,3.3h-3.2l0-5.8
	C33.7,6.4,34.5,5.6,35.9,5.6z"/>
<path class="st0" d="M43.2,7.2c0.2-0.8,0.5-1.3,0.8-1.4c0.4-0.2,0.9-0.2,1.5-0.1l0.2,0.1l0.6-1.3L46,4.4c-0.8-0.2-1.5-0.3-2-0.1
	c-0.3,0.1-0.6,0.2-0.8,0.3V4.3h-1.5v10.7h1.5L43.2,7.2z"/>
<path class="st0" d="M50.9,15.3L50.9,15.3L50.9,15.3c2.8,0,4.4-1.7,4.6-4.9l0-0.3h-1.3l0,0.2c-0.1,2.1-1.1,3.3-2.8,3.5
	c-0.1,0-0.2,0-0.2,0c-1.7,0-2.5-1.4-2.5-4.3c0-0.3,0-0.6,0-0.9H55l0-0.3c-0.3-2.7-1.4-4.1-3.3-4.3c-1.9-0.2-3.3,0.7-4.1,2.5
	c-0.3,0.7-0.5,1.6-0.5,2.6c0,0.7,0.1,1.5,0.2,2.4C47.7,14,48.9,15.2,50.9,15.3z M51,5.5c0.1,0,0.2,0,0.3,0c0.1,0,0.1,0,0.2,0
	c1.1,0.1,1.7,0.6,1.9,1.7h-4.6C49.4,6.1,50.1,5.5,51,5.5z"/>
<path class="st0" d="M60.6,15.3l0.2,0.2l0.2-0.2c2.1-2.4,3.4-6.1,3.9-10.8l0-0.3h-1.6l0,0.2c-0.1,3.4-1,6.3-2.5,8.5
	c-1.5-2.3-2.4-5.1-2.6-8.5l0-0.2l-1.5,0l0,0.3C56.9,8.5,58.2,12.2,60.6,15.3z"/>
<path class="st0" d="M68.4,2.2c0.3,0,0.6-0.1,0.8-0.3c0.2-0.2,0.3-0.5,0.3-0.8c0-0.3-0.1-0.6-0.3-0.8c-0.4-0.4-1.2-0.4-1.6,0
	c-0.2,0.2-0.3,0.5-0.3,0.8c0,0.3,0.1,0.6,0.3,0.8C67.8,2.1,68.1,2.2,68.4,2.2z"/>
<rect x="67.7" y="4.3" class="st0" width="1.5" height="10.8"/>
<path class="st0" d="M75.9,15.3l0.2,0.2l0.2-0.2c2.1-2.4,3.4-6.1,3.9-10.8l0-0.3h-1.6l0,0.2c-0.1,3.4-1,6.3-2.5,8.5
	c-1.5-2.3-2.4-5.1-2.6-8.5l0-0.2l-1.5,0l0,0.3C72.2,8.5,73.5,12.2,75.9,15.3z"/>
<path class="st0" d="M85.2,4.1c-0.9,0-1.6,0.2-2.2,0.7L82.7,5l1.2,0.9l0.2-0.1c0.3-0.2,0.7-0.3,1.1-0.3c1.5,0,2.3,0.8,2.4,2.3l0,0.1
	c-0.6-0.5-1.4-0.7-2.5-0.7c-2.4,0-3.7,1.3-3.7,3.7v0.2c0.1,2.6,1.4,3.9,4,3.9h3.6l0-7.5C88.8,5.3,87.5,4.2,85.2,4.1z M87.6,10.8v2.6
	h-2.2c-1.5,0-2.3-0.8-2.4-2.4c0-0.1,0-0.2,0-0.3c0-1.4,0.7-2.1,2.2-2.2C86.6,8.6,87.4,9.4,87.6,10.8z"/>
<path class="st0" d="M95.1,5.6c1.3,0.1,1.9,1.3,1.9,3.5c0,0.2,0,0.3,0,0.5v5.4h1.5V9.4c0-0.2,0-0.3,0-0.4c0-3.2-1.2-4.8-3.5-4.8
	c-1.1,0-1.9,0.2-2.5,0.7V4.3H91v10.8h1.5l0-7.2c0.3-1.5,1.1-2.3,2.5-2.3L95.1,5.6z"/>
<path class="st0" d="M111.5,15.1h3.6l0-7.5c-0.3-2.3-1.7-3.4-3.9-3.5c-0.9,0-1.6,0.2-2.2,0.7L108.7,5l1.2,0.9l0.2-0.1
	c0.3-0.2,0.7-0.3,1.1-0.3c1.5,0,2.3,0.8,2.4,2.3l0,0.1c-0.6-0.5-1.4-0.7-2.5-0.7c-2.4,0-3.7,1.3-3.7,3.7v0.2
	C107.6,13.8,108.9,15.1,111.5,15.1z M109,10.8c0-1.4,0.7-2.1,2.2-2.2c1.4,0,2.2,0.7,2.5,2.2v2.6h-2.2c-1.5,0-2.3-0.8-2.4-2.4
	C109,11,109,10.9,109,10.8z"/>
<rect x="124.7" y="1" class="st0" width="1.5" height="14.1"/>
<path class="st0" d="M132.3,15.3c2.7,0,4.1-1.9,4.2-5.8c-0.2-3.7-1.6-5.6-4.2-5.6c-2.6,0-4,1.9-4.2,5.6
	C128.1,13.3,129.6,15.3,132.3,15.3z M132.3,5.5c1.7,0,2.5,1.3,2.7,4c-0.1,2.8-0.9,4.2-2.7,4.2c-1.7,0-2.6-1.4-2.7-4.2
	C129.7,6.8,130.6,5.5,132.3,5.5z"/>
<path class="st0" d="M140.9,15.3c0.3,0,0.5,0.1,0.8,0.1c1.9,0,3.1-1,3.7-3.1l0.1-0.4c0.1-0.4,0.1-0.7,0.1-1c0-0.5-0.1-1-0.3-1.4
	c-0.3-0.7-1-1.2-2.1-1.5c-1-0.3-1.8-0.5-2.5-0.7C140,7,140,6.7,140,6.4c0,0,0-0.1,0-0.1c0.1-0.3,0.2-0.6,0.5-0.7
	c0.2-0.1,0.4-0.2,0.7-0.2c0.1,0,0.2,0,0.2,0l0.1,0c0.7,0.1,1.2,0.5,1.3,1.2l0,0.2h1.3l0-0.3c-0.1-1.4-0.9-2.3-2.4-2.5l-0.1,0
	c-0.8-0.1-1.6,0-2.1,0.4c-0.6,0.4-0.9,1-1.1,1.7c0,0.1,0,0.3,0,0.4c0,0.5,0.1,0.9,0.4,1.3c0.4,0.4,1.1,0.8,2.2,1.1
	c1,0.3,1.7,0.5,2.2,0.7c0.4,0.2,0.6,0.4,0.8,0.8c0.1,0.2,0.1,0.4,0.1,0.7c0,0.2,0,0.4-0.1,0.6c0,0.1-0.1,0.3-0.1,0.4
	c-0.4,1.3-1.2,2-2.3,2c-0.2,0-0.3,0-0.5,0c-1.2-0.2-1.8-1.1-1.8-2.7c0-0.2,0-0.4,0-0.5l0-0.3h-1.6l0,0.2c0,0.2,0,0.3,0,0.5
	C137.8,13.5,138.8,14.9,140.9,15.3z"/>
<polygon class="st0" points="160.2,0.4 157.7,0.4 156.6,3.1 157.9,3.1 "/>
<path class="st0" d="M158.1,15.1h3.6l0-7.5c-0.3-2.3-1.7-3.4-3.9-3.5c-0.9,0-1.6,0.2-2.2,0.7L155.2,5l1.2,0.9l0.2-0.1
	c0.3-0.2,0.7-0.3,1.1-0.3c1.5,0,2.3,0.8,2.4,2.3l0,0.1c-0.6-0.5-1.4-0.7-2.5-0.7c-2.4,0-3.7,1.3-3.7,3.7v0.2
	C154.1,13.8,155.5,15.1,158.1,15.1z M155.5,10.8c0-1.4,0.7-2.1,2.2-2.2c1.4,0,2.2,0.7,2.5,2.2v2.6H158c-1.5,0-2.3-0.8-2.4-2.4
	C155.5,11,155.5,10.9,155.5,10.8z"/>
<path class="st0" d="M167.2,15.3c0.1,0,0.2,0,0.3,0c2.8-0.2,4.2-1.8,4.3-4.9l0-0.3l-1.5,0l0,0.2c-0.1,2.1-0.9,3.3-2.7,3.5h-0.1
	c-1.5,0-2.3-0.8-2.6-2.3c-0.1-0.6-0.1-1.2-0.1-1.8c0-0.9,0.1-1.8,0.4-2.5c0.4-1.1,1-1.6,1.9-1.6c0.1,0,0.3,0,0.4,0
	c0.9,0,1.6,0.4,2,1.1l0.2,0.2l1-1l-0.1-0.2c-0.7-1.1-1.7-1.7-3.1-1.7h-0.2c-1.7,0-2.9,0.9-3.6,2.6c-0.3,0.9-0.5,1.9-0.5,3
	c0,0.8,0.1,1.6,0.3,2.5C164,14.3,165.2,15.3,167.2,15.3z"/>
<path class="st0" d="M174.6,0.3c-0.2,0.2-0.3,0.5-0.3,0.8c0,0.3,0.1,0.6,0.3,0.8c0.2,0.2,0.5,0.3,0.8,0.3c0.3,0,0.6-0.1,0.8-0.3
	c0.2-0.2,0.3-0.5,0.3-0.8c0-0.3-0.1-0.6-0.3-0.8C175.8-0.1,175-0.1,174.6,0.3z"/>
<rect x="174.6" y="4.3" class="st0" width="1.5" height="10.8"/>
<path class="st0" d="M181.8,15.1c0.1,0,0.1,0,0.2,0h4.9V1h-1.5v3.9c-0.6-0.5-1.4-0.7-2.5-0.7c-2.5,0-3.8,1.8-3.8,5.2
	c0,0.3,0,0.7,0,1C179.3,13.5,180.2,15.1,181.8,15.1z M182.8,5.6h0.2c1.4,0,2.2,0.7,2.5,2.2l0,5.8h-3.2c-0.4,0-1.6,0-1.7-3.3
	c0-0.2,0-0.5,0-0.7C180.5,6.9,181.3,5.6,182.8,5.6z"/>
<path class="st0" d="M192.9,3.9c-2.6,0-4,1.9-4.2,5.6c0.1,3.8,1.5,5.8,4.2,5.8c2.7,0,4.1-1.9,4.2-5.8C196.9,5.8,195.5,3.9,192.9,3.9
	z M192.9,13.8c-1.7,0-2.6-1.4-2.7-4.2c0.1-2.7,1-4.1,2.7-4.1c1.7,0,2.5,1.3,2.7,4C195.5,12.4,194.7,13.8,192.9,13.8z"/>
<path class="st0" d="M206.1,12.2l0.1-0.4c0.1-0.4,0.1-0.7,0.1-1c0-0.5-0.1-1-0.3-1.4c-0.3-0.7-1-1.2-2.1-1.5c-1-0.3-1.8-0.5-2.5-0.7
	c-0.7-0.2-0.8-0.6-0.8-0.8c0,0,0-0.1,0-0.1c0.1-0.3,0.2-0.6,0.5-0.7c0.2-0.1,0.4-0.2,0.7-0.2c0.1,0,0.2,0,0.2,0l0.1,0
	c0.7,0.1,1.2,0.5,1.3,1.2l0,0.2h1.3l0-0.3c-0.1-1.4-0.9-2.3-2.4-2.5l-0.1,0c-0.8-0.1-1.6,0-2.1,0.4c-0.6,0.4-0.9,1-1.1,1.7
	c0,0.1,0,0.3,0,0.4c0,0.5,0.1,0.9,0.4,1.3c0.4,0.4,1.1,0.8,2.2,1.1c1,0.3,1.7,0.5,2.2,0.7c0.4,0.2,0.6,0.4,0.8,0.8
	c0.1,0.2,0.1,0.4,0.1,0.7c0,0.2,0,0.4-0.1,0.6c0,0.1-0.1,0.3-0.1,0.4c-0.4,1.3-1.2,2-2.3,2c-0.2,0-0.3,0-0.5,0
	c-1.2-0.2-1.8-1.1-1.8-2.7c0-0.2,0-0.4,0-0.5l0-0.3h-1.6l0,0.2c0,0.2,0,0.3,0,0.5c0,2.4,1.1,3.8,3.1,4.2c0.3,0,0.5,0.1,0.8,0.1
	C204.2,15.3,205.5,14.3,206.1,12.2z"/>
<path class="st0" d="M217.7,15.1c0.1,0,0.1,0,0.2,0h4.9V1h-1.5v3.9c-0.6-0.5-1.4-0.7-2.5-0.7c-2.5,0-3.8,1.8-3.8,5.2
	c0,0.3,0,0.7,0,1C215.2,13.5,216.1,15.1,217.7,15.1z M218.7,5.6h0.2c1.4,0,2.2,0.7,2.5,2.2l0,5.8h-3.2c-0.4,0-1.6,0-1.7-3.3
	c0-0.2,0-0.5,0-0.7C216.4,6.9,217.2,5.6,218.7,5.6z"/>
<path class="st0" d="M228.7,15.3L228.7,15.3L228.7,15.3c2.8,0,4.4-1.7,4.6-4.9l0-0.3H232l0,0.2c-0.1,2.1-1.1,3.3-2.8,3.5
	c-0.1,0-0.2,0-0.2,0c-1.7,0-2.5-1.4-2.5-4.3c0-0.3,0-0.6,0-0.9h6.4l0-0.3c-0.3-2.7-1.4-4.1-3.3-4.3c-1.9-0.2-3.3,0.7-4.1,2.5
	c-0.3,0.7-0.5,1.6-0.5,2.6c0,0.7,0.1,1.5,0.2,2.4C225.5,14,226.7,15.2,228.7,15.3z M228.8,5.5c0.1,0,0.2,0,0.3,0c0.1,0,0.1,0,0.2,0
	c1.1,0.1,1.7,0.6,1.9,1.7h-4.6C227.2,6.1,227.9,5.5,228.8,5.5z"/>
<rect x="235.5" y="1" class="st0" width="1.5" height="14.1"/>
<path class="st0" d="M255,10.1h-1.3l0,0.2c-0.1,2.1-1.1,3.3-2.8,3.5c-0.1,0-0.2,0-0.2,0c-1.7,0-2.5-1.4-2.5-4.3c0-0.3,0-0.6,0-0.9
	h6.4l0-0.3c-0.3-2.7-1.4-4.1-3.3-4.3c-1.9-0.2-3.3,0.7-4.1,2.5c-0.3,0.7-0.5,1.6-0.5,2.6c0,0.7,0.1,1.5,0.2,2.4
	c0.4,2.3,1.6,3.5,3.6,3.6l0,0h0c2.8,0,4.3-1.7,4.6-4.9L255,10.1z M250.5,5.5c0.1,0,0.2,0,0.3,0c0.1,0,0.1,0,0.2,0
	c1.1,0.1,1.7,0.6,1.9,1.7h-4.6C248.9,6.1,249.6,5.5,250.5,5.5z"/>
<path class="st0" d="M259.5,15.3c0.3,0,0.5,0.1,0.8,0.1c1.9,0,3.1-1,3.7-3.1l0.1-0.4c0.1-0.4,0.1-0.7,0.1-1c0-0.5-0.1-1-0.3-1.4
	c-0.3-0.7-1-1.2-2.1-1.5c-1-0.3-1.8-0.5-2.5-0.7c-0.7-0.2-0.8-0.6-0.8-0.8c0,0,0-0.1,0-0.1c0.1-0.3,0.2-0.6,0.5-0.7
	c0.2-0.1,0.4-0.2,0.7-0.2c0.1,0,0.2,0,0.2,0l0.1,0c0.7,0.1,1.2,0.5,1.3,1.2l0,0.2h1.3l0-0.3c-0.1-1.4-0.9-2.3-2.4-2.5l-0.1,0
	c-0.8-0.1-1.6,0-2.1,0.4c-0.6,0.4-0.9,1-1.1,1.7c0,0.1,0,0.3,0,0.4c0,0.5,0.1,0.9,0.4,1.3c0.4,0.4,1.1,0.8,2.2,1.1
	c1,0.3,1.7,0.5,2.2,0.7c0.4,0.2,0.6,0.4,0.8,0.8c0.1,0.2,0.1,0.4,0.1,0.7c0,0.2,0,0.4-0.1,0.6c0,0.1-0.1,0.3-0.1,0.4
	c-0.4,1.3-1.2,2-2.3,2c-0.2,0-0.3,0-0.5,0c-1.2-0.2-1.8-1.1-1.8-2.7c0-0.2,0-0.4,0-0.5l0-0.3h-1.6l0,0.2c0,0.2,0,0.3,0,0.5
	C256.3,13.5,257.4,14.9,259.5,15.3z"/>
<polygon class="st0" points="266.9,15.1 268.4,15.1 268.4,5.8 270,5.8 270,4.3 268.4,4.3 268.4,2 266.9,2 266.9,4.3 265.2,4.3 
	265.2,5.8 266.9,5.8 "/>
<path class="st0" d="M274.9,15.3c2.7,0,4.1-1.9,4.2-5.8c-0.2-3.7-1.6-5.6-4.2-5.6c-2.6,0-4,1.9-4.2,5.6
	C270.8,13.3,272.2,15.3,274.9,15.3z M274.9,5.5c1.7,0,2.5,1.3,2.7,4c-0.1,2.8-0.9,4.2-2.7,4.2c-1.7,0-2.6-1.4-2.7-4.2
	C272.3,6.8,273.2,5.5,274.9,5.5z"/>
<polygon class="st0" points="277.2,0.4 274.8,0.4 273.6,3.1 275,3.1 "/>
<path class="st0" d="M286.3,7.5v7.6h1.5V6.7c0.5-0.9,1.2-1.2,2.3-1c1,0.2,1.5,1.4,1.5,3.6c0,0.1,0,0.2,0,0.4v5.4h1.5l0-5.6
	c0-0.2,0-0.4,0-0.6c0-3.1-1.2-4.6-3.6-4.6c-1,0-1.9,0.4-2.6,1.1c-0.5-0.6-1.2-1-2.2-1.1c-1.1,0-1.9,0.2-2.5,0.7V4.3h-1.5v10.8h1.5
	l0-7.2c0.3-1.5,1-2.2,2.2-2.2h0.1C285.7,5.8,286.3,6.3,286.3,7.5z"/>
<path class="st0" d="M299.1,15.1h3.6l0-7.5c-0.3-2.3-1.7-3.4-3.9-3.5c-0.9,0-1.6,0.2-2.2,0.7L296.3,5l1.2,0.9l0.2-0.1
	c0.3-0.2,0.7-0.3,1.1-0.3c1.5,0,2.3,0.8,2.4,2.3l0,0.1c-0.6-0.5-1.4-0.7-2.5-0.7c-2.4,0-3.7,1.3-3.7,3.7v0.2
	C295.2,13.8,296.5,15.1,299.1,15.1z M296.6,10.8c0-1.4,0.7-2.1,2.2-2.2c1.4,0,2.2,0.7,2.5,2.2v2.6H299c-1.5,0-2.3-0.8-2.4-2.4
	C296.6,11,296.6,10.9,296.6,10.8z"/>
<path class="st0" d="M308.9,3.9c-2.6,0-4.1,1.7-4.3,5c0,0.3,0,0.7,0,1c0,3.5,1.3,5.2,3.8,5.2c1,0,1.9-0.2,2.5-0.7l0,0.1
	c-0.2,1.6-1,2.3-2.4,2.4c-0.4,0-0.8-0.1-1.1-0.3l-0.2-0.1l-1.2,0.9l0.3,0.2c0.6,0.4,1.3,0.7,2.2,0.7h0h0c2.3-0.1,3.6-1.2,3.9-3.5
	l0-10.4h-1.2C310.3,4.1,309.6,3.9,308.9,3.9z M308.4,13.7h-0.2c-1.5,0-2.3-1.3-2.3-4c0-0.2,0-0.5,0-0.7c0.1-2.4,1-3.5,2.7-3.5
	c0.6,0,1.3,0.1,2.1,0.4l0,5.6C310.6,13,309.8,13.7,308.4,13.7z"/>
<path class="st0" d="M318.5,3.9c-2.6,0-4,1.9-4.2,5.6c0.1,3.8,1.5,5.8,4.2,5.8c2.7,0,4.1-1.9,4.2-5.8C322.5,5.8,321.1,3.9,318.5,3.9
	z M318.5,13.8c-1.7,0-2.6-1.4-2.7-4.2c0.1-2.7,1-4.1,2.7-4.1c1.7,0,2.5,1.3,2.7,4C321.1,12.4,320.2,13.8,318.5,13.8z"/>
<path class="st0" d="M325.1,15.1c0.4,0,0.7-0.1,1-0.4c0.3-0.3,0.4-0.6,0.4-1c0-0.4-0.1-0.7-0.4-1c-0.5-0.6-1.5-0.6-2,0
	c-0.3,0.3-0.4,0.6-0.4,1c0,0.4,0.1,0.7,0.4,1C324.3,14.9,324.7,15.1,325.1,15.1z"/>
<circle class="st1" cx="2.5" cy="7.6" r="2.5"/>
</svg>
