<?xml version="1.0" encoding="utf-8"?>
<!-- Generator: Adobe Illustrator 20.1.0, SVG Export Plug-In . SVG Version: 6.00 Build 0)  -->
<svg version="1.1" id="Capa_1" xmlns="http://www.w3.org/2000/svg" xmlns:xlink="http://www.w3.org/1999/xlink" x="0px" y="0px"
	 viewBox="0 0 84.2 39.6" style="enable-background:new 0 0 84.2 39.6;" xml:space="preserve">
<style type="text/css">
	.st0{fill:#FFFFFF;}
</style>
<g>
	<path class="st0" d="M28.2,16.5l0.4-0.7c0.4,0.3,0.8,0.4,1.3,0.4c0.6,0,0.9-0.3,0.9-0.8c0-0.6-0.3-0.7-0.9-0.9
		c-0.9-0.3-1.4-0.7-1.4-1.7c0-1,0.7-1.5,1.7-1.5c0.6,0,1,0.1,1.4,0.4l-0.4,0.7c-0.3-0.2-0.6-0.3-1-0.3c-0.5,0-0.8,0.2-0.8,0.7
		c0,0.5,0.2,0.6,0.8,0.8c0.9,0.3,1.6,0.6,1.6,1.8c0,0.9-0.5,1.7-1.8,1.7C29.2,17,28.6,16.8,28.2,16.5"/>
	<path class="st0" d="M32.5,14.9c0-1.5,0.6-2.1,1.7-2.1c0.5,0,0.9,0.1,1.2,0.5l-0.5,0.6c-0.2-0.2-0.4-0.3-0.7-0.3
		c-0.5,0-0.7,0.2-0.7,1.4c0,1.2,0.2,1.4,0.8,1.4c0.3,0,0.5-0.1,0.7-0.3l0.5,0.6c-0.3,0.3-0.7,0.5-1.2,0.5
		C33.1,17,32.5,16.3,32.5,14.9"/>
	<path class="st0" d="M36.2,11h0.9v2.2c0.3-0.3,0.6-0.5,1.1-0.5c0.6,0,1,0.3,1,1.1v3.1h-0.9V14c0-0.4-0.1-0.5-0.4-0.5
		c-0.3,0-0.6,0.2-0.8,0.4v3.1h-0.9V11z"/>
	<path class="st0" d="M40,12.8h0.9l0.4,1.8c0.1,0.4,0.2,1.1,0.2,1.2h0c0-0.2,0.1-0.7,0.2-1.2l0.5-1.9h0.9l0.4,1.9
		c0.1,0.4,0.2,1,0.2,1.1h0c0-0.2,0.1-0.8,0.2-1.2l0.4-1.8h0.9l-1.1,4.1h-0.9l-0.5-2c-0.1-0.4-0.2-0.9-0.2-1.1h0
		c0,0.3-0.1,0.7-0.2,1.2l-0.5,1.9H41L40,12.8z"/>
	<path class="st0" d="M45.7,15.7c0-0.9,0.6-1.4,1.8-1.4h0.3v-0.2c0-0.4-0.1-0.7-0.5-0.7c-0.4,0-0.8,0.2-1.1,0.4l-0.3-0.7
		c0.4-0.3,0.9-0.5,1.6-0.5c0.9,0,1.3,0.4,1.3,1.3v2.9H48l-0.1-0.4c-0.2,0.2-0.5,0.5-1,0.5C46.1,17,45.7,16.6,45.7,15.7 M47.8,16v-1
		h-0.1c-0.9,0-1,0.2-1,0.7c0,0.5,0.1,0.6,0.5,0.6C47.4,16.4,47.7,16.2,47.8,16"/>
	<path class="st0" d="M50.7,16.5l-0.1,0.4h-0.7V11h0.9v2.2c0.2-0.2,0.6-0.5,1-0.5c0.8,0,1.4,0.5,1.4,2.1c0,1.6-0.5,2.2-1.4,2.2
		C51.3,17,50.9,16.8,50.7,16.5 M52.2,14.9c0-1.2-0.2-1.4-0.6-1.4c-0.3,0-0.6,0.2-0.8,0.4V16c0.2,0.2,0.4,0.3,0.7,0.3
		C52,16.3,52.2,16.1,52.2,14.9"/>
	<path class="st0" d="M53.9,14.9c0-1.6,0.6-2.1,1.7-2.1c1.1,0,1.6,0.6,1.6,2.1v0.3h-2.3c0,0.9,0.3,1.2,0.8,1.2
		c0.4,0,0.7-0.2,0.9-0.4l0.4,0.6c-0.4,0.3-0.8,0.5-1.4,0.5C54.5,17,53.9,16.4,53.9,14.9 M54.9,14.5h1.3c0-0.8-0.2-1.1-0.7-1.1
		C55.1,13.4,54.9,13.6,54.9,14.5"/>
	<path class="st0" d="M60,11.3h1.6c1.2,0,1.9,0.5,1.9,1.7c0,1.1-0.4,1.8-1.8,1.8H61v2.1h-1V11.3z M61.7,14c0.6,0,0.8-0.2,0.8-0.9
		c0-0.7-0.2-0.9-0.8-0.9H61V14H61.7z"/>
	<path class="st0" d="M64.4,11h0.9v2.2c0.3-0.3,0.6-0.5,1.1-0.5c0.6,0,1,0.3,1,1.1v3.1h-0.9V14c0-0.4-0.1-0.5-0.4-0.5
		c-0.3,0-0.6,0.2-0.8,0.4v3.1h-0.9V11z"/>
	<path class="st0" d="M68.3,15.7c0-0.9,0.6-1.4,1.8-1.4h0.3v-0.2c0-0.4-0.1-0.7-0.5-0.7c-0.4,0-0.8,0.2-1.1,0.4l-0.3-0.7
		c0.4-0.3,0.9-0.5,1.6-0.5c0.9,0,1.3,0.4,1.3,1.3v2.9h-0.7l-0.1-0.4c-0.2,0.2-0.5,0.5-1,0.5C68.7,17,68.3,16.6,68.3,15.7 M70.5,16
		v-1h-0.1c-0.9,0-1,0.2-1,0.7c0,0.5,0.1,0.6,0.5,0.6C70.1,16.4,70.3,16.2,70.5,16"/>
	<path class="st0" d="M72.5,12.8h0.7l0.1,0.5c0.3-0.4,0.6-0.6,1.1-0.6c0.1,0,0.2,0,0.2,0l-0.1,0.9c-0.1,0-0.2-0.1-0.3-0.1
		c-0.3,0-0.5,0.1-0.8,0.3v3h-0.9V12.8z"/>
	<path class="st0" d="M75.3,12.8h0.7l0.1,0.4c0.3-0.3,0.7-0.5,1.2-0.5c0.4,0,0.7,0.2,0.9,0.5c0.4-0.3,0.7-0.5,1.2-0.5
		c0.6,0,1,0.3,1,1.1v3.2h-0.9V14c0-0.4-0.1-0.5-0.4-0.5c-0.2,0-0.5,0.1-0.7,0.3v3.1h-0.9V14c0-0.4-0.1-0.5-0.4-0.5
		c-0.2,0-0.5,0.2-0.7,0.4v3.1h-0.9V12.8z"/>
	<path class="st0" d="M81.2,15.7c0-0.9,0.6-1.4,1.8-1.4h0.3v-0.2c0-0.4-0.1-0.7-0.5-0.7c-0.4,0-0.8,0.2-1.1,0.4l-0.3-0.7
		c0.4-0.3,0.9-0.5,1.6-0.5c0.9,0,1.3,0.4,1.3,1.3v2.9h-0.7l-0.1-0.4c-0.2,0.2-0.5,0.5-1,0.5C81.6,17,81.2,16.6,81.2,15.7 M83.3,16
		v-1h-0.1c-0.9,0-1,0.2-1,0.7c0,0.5,0.1,0.6,0.5,0.6C82.9,16.4,83.1,16.2,83.3,16"/>
	<path class="st0" d="M28.6,20H30l0.8,2.6c0.1,0.5,0.2,0.9,0.2,1.3h0c0-0.3,0.1-0.8,0.2-1.3l0.7-2.6h1.4v5.6h-1v-2.9
		c0-0.9,0-1.6,0.1-1.9h0c0,0.3-0.2,1.1-0.4,1.8l-0.6,2h-0.9l-0.6-1.9c-0.2-0.7-0.4-1.6-0.4-1.9h0c0,0.3,0.1,1.1,0.1,1.9v2.9h-0.9V20
		z"/>
	<path class="st0" d="M34.3,23.5c0-1.6,0.6-2.1,1.7-2.1c1.1,0,1.6,0.6,1.6,2.1v0.3h-2.3c0,0.9,0.3,1.2,0.8,1.2
		c0.4,0,0.7-0.2,0.9-0.4l0.4,0.6c-0.4,0.3-0.8,0.5-1.4,0.5C34.9,25.7,34.3,25.1,34.3,23.5 M35.1,20.5l1.6-1.1l0.5,0.8L35.4,21
		L35.1,20.5z M35.3,23.1h1.3c0-0.8-0.2-1.1-0.7-1.1C35.6,22.1,35.4,22.3,35.3,23.1"/>
	<path class="st0" d="M39.3,23.4l-1.1-1.9h1.1l0.3,0.6c0.2,0.3,0.2,0.5,0.3,0.7h0c0.1-0.2,0.1-0.4,0.3-0.7l0.3-0.6h1l-1.1,1.9
		l1.3,2.2h-1.1l-0.4-0.8c-0.1-0.3-0.2-0.6-0.3-0.7h0c-0.1,0.2-0.1,0.4-0.3,0.7l-0.4,0.8h-1L39.3,23.4z"/>
	<path class="st0" d="M42.6,22.2L42,22.1v-0.6h1.5v4.1h-0.9V22.2z M42.4,20.3c0-0.3,0.3-0.6,0.6-0.6c0.3,0,0.6,0.3,0.6,0.6
		c0,0.3-0.3,0.6-0.6,0.6C42.7,20.9,42.4,20.6,42.4,20.3"/>
	<path class="st0" d="M44.4,23.5c0-1.5,0.6-2.1,1.7-2.1c0.5,0,0.9,0.1,1.2,0.5l-0.5,0.6c-0.2-0.2-0.4-0.3-0.7-0.3
		c-0.5,0-0.7,0.2-0.7,1.4c0,1.2,0.2,1.4,0.8,1.4c0.3,0,0.5-0.1,0.7-0.3l0.5,0.6c-0.3,0.3-0.7,0.5-1.2,0.5C45,25.7,44.4,25,44.4,23.5
		"/>
	<path class="st0" d="M47.9,23.5c0-1.5,0.7-2.1,1.7-2.1c1.1,0,1.7,0.6,1.7,2.2c0,1.5-0.7,2.2-1.7,2.2C48.5,25.7,47.9,25.1,47.9,23.5
		 M50.3,23.5c0-1.2-0.2-1.5-0.7-1.5c-0.5,0-0.7,0.3-0.7,1.5c0,1.2,0.2,1.5,0.7,1.5C50.1,25,50.3,24.7,50.3,23.5"/>
	<path class="st0" d="M14.2,30.3l0.1,0.6h-0.5l0.1-0.6C14,30,14,29.8,14,29.6h0C14.1,29.8,14.1,30,14.2,30.3 M16.8,30.7h-0.4v0.9
		h0.4c0.3,0,0.4-0.1,0.4-0.5C17.3,30.9,17.2,30.7,16.8,30.7 M17.2,29.7c0-0.3-0.1-0.4-0.4-0.4h-0.4v0.8h0.4
		C17.1,30.1,17.2,29.9,17.2,29.7 M21.9,33.8H0v-27h21.9V33.8z M1.5,27.1l15.3,0c1.9,0,3.5-1.6,3.5-3.5l0-15.3H5
		c-1.9,0-3.5,1.4-3.5,3.4L1.5,27.1z M3.6,31.2c0-0.8-0.5-1-1-1.2c-0.3-0.1-0.4-0.2-0.4-0.4c0-0.2,0.1-0.3,0.4-0.3
		c0.2,0,0.4,0,0.6,0.2l0.3-0.6c-0.3-0.2-0.5-0.2-0.9-0.2c-0.6,0-1.1,0.3-1.1,1c0,0.7,0.4,0.9,0.9,1.1c0.3,0.1,0.5,0.2,0.5,0.5
		c0,0.3-0.1,0.4-0.5,0.4c-0.3,0-0.6-0.1-0.8-0.3L1.3,32c0.2,0.2,0.7,0.3,1.1,0.3C3.3,32.3,3.6,31.8,3.6,31.2 M6.2,31.9l-0.3-0.6
		c-0.1,0.2-0.3,0.3-0.6,0.3c-0.4,0-0.6-0.2-0.6-1.2c0-0.9,0.1-1.2,0.6-1.2c0.2,0,0.4,0.1,0.6,0.2l0.3-0.6c-0.2-0.2-0.5-0.3-0.9-0.3
		c-0.9,0-1.4,0.5-1.4,1.9c0,1.3,0.4,1.8,1.4,1.8C5.7,32.3,6,32.1,6.2,31.9 M8.8,28.7H8.1V30H7.2v-1.4H6.5v3.6h0.7v-1.6h0.8v1.6h0.7
		V28.7z M12.2,32.2l0.7-3.6h-0.8L12,29.8c-0.1,0.6-0.1,1.1-0.1,1.4h0c0-0.4-0.1-0.9-0.2-1.3l-0.2-1.3h-0.6l-0.2,1.3
		c-0.1,0.6-0.2,1-0.2,1.3h0c0-0.2,0-0.9-0.1-1.4L10,28.7H9.2l0.7,3.6h0.8l0.3-1.5c0.1-0.3,0.1-0.8,0.1-1h0c0,0.2,0,0.6,0.1,1
		l0.3,1.5H12.2z M15.4,32.2l-0.9-3.6h-0.8l-1,3.6h0.8l0.2-0.7h0.8l0.2,0.7H15.4z M18.1,31.2c0-0.5-0.3-0.8-0.6-0.9
		c0.3-0.1,0.4-0.4,0.4-0.8c0-0.6-0.4-0.9-0.9-0.9h-1.3v3.6H17C17.7,32.2,18.1,31.9,18.1,31.2 M20.5,31.6h-1.3v-0.9h1V30h-1v-0.7h1.2
		v-0.7h-1.9v3.6h2V31.6z M18.9,23.7c0-1.1-0.5-1.7-1.7-2.8c0,0-7.5-7.4-7.7-7.6c-0.2-0.2-0.1-0.6,0.2-0.6c0.2,0,7.1,0,7.1,0
		c0.9,0,2-0.9,2-1.9l0-1H5.1c-1.2,0-2,1-2,1.9c0,1.1,0.5,1.7,1.7,2.8c0,0,7.5,7.4,7.7,7.6c0.2,0.2,0.1,0.6-0.3,0.6
		c-0.2,0-7.1,0-7.1,0c-0.9,0-2,0.9-2,1.9v1l13.8,0C18,25.6,18.8,24.6,18.9,23.7"/>
</g>
</svg>
