<!-- Generator: Adobe Illustrator 20.1.0, SVG Export Plug-In  -->
<svg version="1.1"
	 xmlns="http://www.w3.org/2000/svg" xmlns:xlink="http://www.w3.org/1999/xlink" xmlns:a="http://ns.adobe.com/AdobeSVGViewerExtensions/3.0/"
	 x="0px" y="0px" width="27.5px" height="22.4px" viewBox="0 0 27.5 22.4"
	 style="overflow:scroll;enable-background:new 0 0 27.5 22.4;" xml:space="preserve">
<style type="text/css">
	.st0{opacity:0.8;fill:url(#XMLID_4_);}
	.st1{opacity:0.8;fill:url(#XMLID_5_);}
	.st2{opacity:0.8;fill:url(#XMLID_6_);}
	.st3{opacity:0.8;fill:url(#XMLID_7_);}
</style>
<defs>
</defs>
<g id="XMLID_1_">
	
		<linearGradient id="XMLID_4_" gradientUnits="userSpaceOnUse" x1="0" y1="-265.0241" x2="27.5022" y2="-265.0241" gradientTransform="matrix(1 0 0 -1 0 -253.8092)">
		<stop  offset="0.1678" style="stop-color:#F18A21"/>
		<stop  offset="1" style="stop-color:#F05A28"/>
	</linearGradient>
	<path id="XMLID_3_" class="st0" d="M0.2,21.6c-0.4,0.9-0.1,1.1,0.6,0.5l11.5-9.5c0.7-0.6,1.9-0.6,2.7,0l11.8,9.5
		c0.7,0.6,1,0.4,0.6-0.5l-12.9-21c-0.4-0.9-1-0.9-1.4,0L0.2,21.6z"/>
	
		<linearGradient id="XMLID_5_" gradientUnits="userSpaceOnUse" x1="2.7502" y1="-263.3985" x2="24.752" y2="-263.3985" gradientTransform="matrix(1 0 0 -1 0 -253.8092)">
		<stop  offset="0.1678" style="stop-color:#F18A21"/>
		<stop  offset="1" style="stop-color:#F05A28"/>
	</linearGradient>
	<path id="XMLID_2_" class="st1" d="M2.9,17.9c-0.3,0.7-0.1,0.9,0.5,0.4l9.2-7.6c0.6-0.5,1.5-0.5,2.1,0l9.4,7.6
		c0.6,0.5,0.8,0.3,0.5-0.4L14.3,1.1c-0.3-0.7-0.8-0.7-1.1,0L2.9,17.9z"/>
</g>
</svg>
