<!-- Generator: Adobe Illustrator 21.1.0, SVG Export Plug-In  -->
<svg version="1.1"
	 xmlns="http://www.w3.org/2000/svg" xmlns:xlink="http://www.w3.org/1999/xlink" xmlns:a="http://ns.adobe.com/AdobeSVGViewerExtensions/3.0/"
	 x="0px" y="0px" width="468.5px" height="29px" viewBox="0 0 468.5 29" style="enable-background:new 0 0 468.5 29;"
	 xml:space="preserve">
<style type="text/css">
	.st0{fill:#61B088;}
	.st1{opacity:0.8;fill:#FFFFFF;enable-background:new    ;}
</style>
<defs>
</defs>
<path id="XMLID_2_" class="st0" d="M456.5,29H12C5.4,29,0,23.6,0,17v-5C0,5.4,5.4,0,12,0h444.5c6.6,0,12,5.4,12,12v5
	C468.5,23.6,463.1,29,456.5,29z"/>
<g>
	<g>
		<path class="st1" d="M16.4,8.2h4.9c0.7,0,1.4,0.1,2.1,0.3c0.7,0.2,1.1,0.6,1.6,1c0.5,0.5,0.8,1,1.1,1.7c0.2,0.7,0.3,1.5,0.3,2.5
			c0,0.8-0.1,1.6-0.3,2.3c-0.2,0.7-0.6,1.4-1,1.8c-0.5,0.5-1,0.9-1.6,1.3c-0.6,0.3-1.4,0.5-2.3,0.5h-4.9V8.2H16.4z M18.9,17.5h2.3
			c0.3,0,0.7-0.1,1-0.2c0.3-0.1,0.7-0.3,0.9-0.6s0.5-0.7,0.7-1c0.1-0.5,0.2-1,0.2-1.6s0-1.1-0.1-1.6c-0.1-0.5-0.3-0.9-0.6-1.1
			c-0.2-0.3-0.6-0.6-1-0.8c-0.5-0.2-0.9-0.2-1.6-0.2h-1.8V17.5z"/>
		<path class="st1" d="M28,15.5c0-0.7,0.1-1.3,0.3-1.8c0.2-0.6,0.5-1,0.9-1.4c0.5-0.3,0.8-0.7,1.4-0.9c0.6-0.2,1.1-0.3,1.7-0.3
			c0.7,0,1.3,0.1,1.8,0.3s1,0.5,1.4,0.9c0.3,0.5,0.7,0.8,0.9,1.4c0.2,0.6,0.3,1.1,0.3,1.8c0,0.7-0.1,1.3-0.3,1.8s-0.5,1-0.9,1.4
			c-0.5,0.3-0.8,0.7-1.4,0.9c-0.6,0.2-1.1,0.3-1.8,0.3c-0.7,0-1.3-0.1-1.7-0.3c-0.6-0.2-1-0.5-1.4-0.9c-0.3-0.5-0.7-0.8-0.9-1.4
			S28,16.1,28,15.5z M30.3,15.5c0,0.3,0,0.7,0.1,1c0.1,0.3,0.2,0.6,0.3,0.8s0.3,0.5,0.6,0.6s0.6,0.2,0.9,0.2c0.3,0,0.7-0.1,1-0.2
			c0.2-0.1,0.5-0.3,0.6-0.6c0.1-0.2,0.2-0.6,0.3-0.8c0.1-0.2,0.1-0.7,0.1-1c0-0.3,0-0.7-0.1-1c-0.1-0.3-0.2-0.6-0.3-0.8
			c-0.1-0.2-0.3-0.5-0.6-0.6s-0.6-0.2-1-0.2c-0.3,0-0.7,0.1-0.9,0.2c-0.2,0.1-0.5,0.3-0.6,0.6c-0.1,0.2-0.2,0.6-0.3,0.8
			C30.4,14.8,30.3,15.1,30.3,15.5z"/>
		<path class="st1" d="M38.4,8.2h2.3v4.2l0,0c0.2-0.5,0.7-0.7,1.1-0.9c0.5-0.2,1-0.3,1.5-0.3c0.5,0,0.8,0.1,1.3,0.2
			c0.5,0.1,0.8,0.5,1.1,0.8c0.3,0.3,0.6,0.8,0.8,1.4c0.2,0.6,0.3,1.3,0.3,1.9c0,0.7-0.1,1.4-0.3,1.9c-0.2,0.6-0.5,1-0.8,1.4
			c-0.3,0.3-0.7,0.6-1.1,0.8c-0.5,0.2-0.8,0.2-1.3,0.2c-0.6,0-1.1-0.1-1.6-0.3c-0.5-0.2-0.8-0.6-1.1-1l0,0v1h-2.2
			C38.4,19.5,38.4,8.2,38.4,8.2z M44.5,15.5c0-0.3,0-0.7-0.1-1c-0.1-0.3-0.2-0.6-0.3-0.8c-0.1-0.2-0.3-0.5-0.6-0.6s-0.6-0.2-0.9-0.2
			c-0.3,0-0.7,0.1-0.9,0.2c-0.2,0.1-0.5,0.3-0.6,0.6c-0.1,0.2-0.2,0.6-0.3,0.8c-0.1,0.2-0.1,0.7-0.1,1c0,0.3,0,0.7,0.1,1
			c0.1,0.3,0.2,0.6,0.3,0.8c0.1,0.2,0.3,0.5,0.6,0.6s0.6,0.2,0.9,0.2c0.3,0,0.6-0.1,0.9-0.2c0.3-0.1,0.5-0.3,0.6-0.6
			c0.1-0.2,0.2-0.6,0.3-0.8C44.5,16.3,44.5,15.8,44.5,15.5z"/>
		<path class="st1" d="M48.6,8.2h2.3v11.4h-2.3V8.2z"/>
		<path class="st1" d="M54.9,16c0,0.7,0.2,1.3,0.6,1.6c0.3,0.3,0.8,0.5,1.5,0.5c0.5,0,0.9-0.1,1.1-0.3c0.3-0.2,0.6-0.5,0.6-0.7h2.1
			c-0.3,1-0.8,1.7-1.5,2.2c-0.7,0.5-1.5,0.7-2.4,0.7c-0.7,0-1.3-0.1-1.7-0.3c-0.6-0.2-0.9-0.6-1.4-0.9c-0.3-0.3-0.7-0.8-0.8-1.4
			s-0.3-1.1-0.3-1.7c0-0.6,0.1-1.3,0.3-1.7c0.2-0.6,0.5-1,0.9-1.4c0.5-0.3,0.8-0.7,1.4-0.9c0.6-0.2,1.1-0.3,1.7-0.3
			c0.7,0,1.4,0.1,1.8,0.5c0.6,0.2,0.9,0.7,1.3,1.1c0.3,0.5,0.6,1,0.7,1.6c0.1,0.6,0.2,1.3,0.1,1.8h-5.9V16z M58.5,14.6
			c-0.1-0.6-0.3-1-0.6-1.4c-0.2-0.3-0.7-0.5-1.3-0.5c-0.3,0-0.7,0.1-0.9,0.2s-0.5,0.2-0.6,0.5C55.1,13.6,55,13.8,55,14
			c-0.1,0.2-0.1,0.3-0.1,0.6H58.5z"/>
		<path class="st1" d="M67.3,11.2h2.2v1.1l0,0c0.3-0.5,0.7-0.8,1-1c0.5-0.2,0.9-0.3,1.5-0.3c0.6,0,1,0.1,1.5,0.3
			c0.5,0.2,0.8,0.6,1,1c0.2-0.3,0.6-0.7,1-0.9c0.5-0.2,0.9-0.5,1.5-0.5c0.5,0,0.8,0,1.3,0.1c0.3,0.1,0.7,0.2,0.9,0.6
			s0.5,0.6,0.6,0.9c0.1,0.3,0.2,0.8,0.2,1.4v5.6h-2.3v-4.7c0-0.2,0-0.6,0-0.8s-0.1-0.5-0.2-0.7S77.2,13.1,77,13
			c-0.2-0.1-0.5-0.1-0.8-0.1c-0.3,0-0.6,0.1-0.8,0.2c-0.2,0.1-0.3,0.2-0.5,0.5c-0.1,0.2-0.2,0.5-0.2,0.7c0,0.2,0,0.5,0,0.8v4.7h-2.3
			v-4.8c0-0.2,0-0.5,0-0.7s0-0.5-0.1-0.7s-0.2-0.3-0.5-0.5c-0.2-0.1-0.5-0.2-0.8-0.2c-0.1,0-0.2,0-0.5,0.1c-0.2,0-0.3,0.1-0.5,0.2
			c-0.1,0.1-0.2,0.3-0.3,0.6c-0.1,0.2-0.2,0.6-0.2,1v4.8h-2.3V11.2z"/>
		<path class="st1" d="M83.9,16c0,0.7,0.2,1.3,0.6,1.6s0.8,0.5,1.5,0.5c0.5,0,0.9-0.1,1.1-0.3c0.3-0.2,0.6-0.5,0.6-0.7h2.1
			c-0.3,1-0.8,1.7-1.5,2.2c-0.7,0.5-1.5,0.7-2.4,0.7c-0.7,0-1.3-0.1-1.7-0.3c-0.6-0.2-0.9-0.6-1.4-0.9c-0.3-0.3-0.7-0.8-0.8-1.4
			s-0.3-1.1-0.3-1.7c0-0.6,0.1-1.3,0.3-1.7c0.2-0.6,0.5-1,0.9-1.4s0.8-0.7,1.4-0.9s1.1-0.3,1.7-0.3c0.7,0,1.4,0.1,1.8,0.5
			c0.6,0.2,0.9,0.7,1.3,1.1c0.3,0.5,0.6,1,0.7,1.6c0.1,0.6,0.2,1.3,0.1,1.8h-5.9V16z M87.7,14.6c-0.1-0.6-0.3-1-0.6-1.4
			c-0.2-0.3-0.7-0.5-1.3-0.5c-0.3,0-0.7,0.1-0.9,0.2c-0.2,0.1-0.5,0.2-0.6,0.5c-0.1,0.2-0.2,0.3-0.3,0.6c-0.1,0.2-0.1,0.3-0.1,0.6
			H87.7z"/>
		<path class="st1" d="M97.3,14.2c-0.1-0.9-0.7-1.5-1.7-1.5c-0.3,0-0.7,0.1-0.9,0.2c-0.2,0.1-0.5,0.3-0.6,0.7
			c-0.1,0.2-0.2,0.6-0.3,0.9c-0.1,0.3-0.1,0.7-0.1,0.9c0,0.3,0,0.6,0.1,0.9c0.1,0.3,0.1,0.6,0.3,0.8c0.1,0.2,0.3,0.5,0.6,0.6
			c0.2,0.1,0.6,0.2,0.9,0.2c0.6,0,0.9-0.1,1.3-0.5s0.5-0.7,0.6-1.3h2.2c-0.1,1.1-0.6,1.9-1.3,2.5c-0.7,0.6-1.6,0.9-2.7,0.9
			c-0.7,0-1.3-0.1-1.7-0.3s-0.9-0.5-1.4-0.9c-0.3-0.3-0.7-0.8-0.8-1.4c-0.2-0.6-0.3-1.1-0.3-1.7c0-0.7,0.1-1.3,0.2-1.8
			c0.2-0.6,0.5-1,0.8-1.5c0.3-0.5,0.8-0.7,1.4-0.9c0.6-0.2,1.1-0.3,1.8-0.3c0.5,0,0.9,0.1,1.4,0.2c0.5,0.1,0.9,0.3,1.3,0.6
			c0.3,0.2,0.7,0.6,0.9,1c0.2,0.3,0.3,0.9,0.3,1.4h-2.2V14.2z"/>
		<path class="st1" d="M101,13.9c0-0.6,0.1-1,0.5-1.4c0.2-0.3,0.6-0.7,0.9-0.8c0.3-0.2,0.8-0.3,1.3-0.5c0.5-0.1,0.9-0.1,1.4-0.1
			c0.5,0,0.8,0,1.3,0.1c0.5,0.1,0.8,0.2,1.1,0.3c0.3,0.2,0.7,0.5,0.9,0.7c0.2,0.3,0.3,0.7,0.3,1.3v4.3c0,0.3,0,0.7,0.1,1
			c0,0.3,0.1,0.6,0.2,0.8h-2.3c0-0.1-0.1-0.2-0.1-0.3s0-0.2,0-0.5c-0.3,0.3-0.8,0.7-1.3,0.8s-1,0.2-1.5,0.2c-0.3,0-0.8,0-1.1-0.1
			c-0.3-0.1-0.7-0.2-0.9-0.5c-0.2-0.2-0.5-0.5-0.6-0.8c-0.1-0.3-0.2-0.7-0.2-1.1c0-0.5,0.1-0.9,0.2-1.1c0.1-0.3,0.3-0.6,0.7-0.7
			c0.2-0.2,0.6-0.3,0.9-0.5c0.3-0.1,0.7-0.1,1-0.2c0.3,0,0.7-0.1,1-0.1c0.3,0,0.6-0.1,0.9-0.1c0.2-0.1,0.5-0.1,0.6-0.2
			s0.2-0.3,0.2-0.6s0-0.5-0.1-0.6c-0.1-0.1-0.2-0.2-0.3-0.3c-0.1-0.1-0.3-0.1-0.5-0.1c-0.2,0-0.3,0-0.6,0c-0.5,0-0.8,0.1-1,0.3
			c-0.2,0.2-0.5,0.6-0.5,0.9H101V13.9z M106.3,15.6c-0.1,0.1-0.2,0.1-0.3,0.2c-0.1,0-0.3,0.1-0.5,0.1s-0.3,0.1-0.6,0.1
			c-0.2,0-0.3,0-0.6,0.1c-0.2,0-0.3,0.1-0.6,0.1c-0.1,0-0.3,0.1-0.5,0.2s-0.2,0.2-0.3,0.3c-0.1,0.1-0.1,0.3-0.1,0.6s0,0.3,0.1,0.6
			c0.1,0.2,0.2,0.2,0.3,0.3c0.1,0.1,0.2,0.1,0.5,0.1c0.2,0,0.3,0,0.6,0c0.5,0,0.8-0.1,1-0.2s0.5-0.3,0.6-0.6s0.2-0.5,0.2-0.7
			s0-0.3,0-0.6v-0.8H106.3z"/>
		<path class="st1" d="M110.7,11.2h2.2v1.1l0,0c0.3-0.5,0.7-0.8,1.1-1c0.5-0.2,0.9-0.3,1.4-0.3c0.6,0,1.1,0.1,1.5,0.2
			c0.3,0.1,0.7,0.3,0.9,0.7c0.2,0.3,0.3,0.7,0.5,1c0.1,0.5,0.1,0.9,0.1,1.4v5.1h-2.3v-4.6c0-0.7-0.1-1.1-0.3-1.5
			c-0.2-0.3-0.6-0.5-1.1-0.5c-0.6,0-1,0.2-1.4,0.6c-0.2,0.3-0.5,1-0.5,1.8v4.3h-2.3v-8.4H110.7z"/>
		<path class="st1" d="M122.8,10h-2.3V8.2h2.3V10z M120.5,11.2h2.3v8.3h-2.3V11.2z"/>
		<path class="st1" d="M126.6,16.8c0,0.2,0,0.5,0.1,0.7s0.2,0.3,0.3,0.5s0.3,0.2,0.6,0.2s0.5,0.1,0.7,0.1c0.1,0,0.3,0,0.5,0
			c0.2,0,0.3-0.1,0.5-0.2s0.2-0.2,0.3-0.3c0.1-0.1,0.1-0.3,0.1-0.5c0-0.2-0.1-0.3-0.2-0.5c-0.1-0.1-0.3-0.2-0.5-0.3
			c-0.2-0.1-0.5-0.2-0.8-0.2c-0.3-0.1-0.7-0.1-1.1-0.2c-0.3-0.1-0.7-0.1-1-0.2s-0.6-0.2-0.8-0.5c-0.2-0.1-0.5-0.3-0.6-0.6
			c-0.1-0.2-0.2-0.6-0.2-0.9c0-0.6,0.1-0.9,0.3-1.3c0.2-0.3,0.5-0.6,0.8-0.8c0.3-0.2,0.7-0.3,1.1-0.5c0.5-0.1,0.9-0.1,1.4-0.1
			c0.5,0,0.9,0,1.3,0.1c0.5,0.1,0.8,0.2,1.1,0.5c0.3,0.2,0.6,0.5,0.8,0.8s0.3,0.8,0.3,1.3h-2.2c0-0.5-0.2-0.7-0.5-0.9
			c-0.3-0.1-0.7-0.2-1-0.2c-0.1,0-0.2,0-0.5,0c-0.1,0-0.3,0-0.5,0.1c-0.1,0.1-0.2,0.1-0.3,0.2c-0.1,0.1-0.1,0.2-0.1,0.5
			s0.1,0.3,0.2,0.5c0.1,0.1,0.3,0.2,0.6,0.3c0.2,0.1,0.6,0.1,0.8,0.2c0.3,0.1,0.6,0.1,0.9,0.2c0.3,0.1,0.7,0.1,1,0.2
			c0.3,0.1,0.6,0.2,0.8,0.5c0.2,0.2,0.5,0.3,0.6,0.7c0.1,0.2,0.2,0.6,0.2,1c0,0.6-0.1,1-0.3,1.4c-0.2,0.3-0.5,0.7-0.9,0.9
			c-0.3,0.2-0.8,0.3-1.3,0.5s-0.9,0.1-1.4,0.1c-0.5,0-0.9,0-1.4-0.1s-0.9-0.2-1.3-0.5c-0.3-0.2-0.7-0.6-0.9-0.9
			c-0.2-0.3-0.3-0.8-0.3-1.4h2.6V16.8z"/>
		<path class="st1" d="M133.9,11.2h2.2v1.1l0,0c0.3-0.5,0.7-0.8,1-1c0.5-0.2,0.9-0.3,1.5-0.3c0.6,0,1,0.1,1.5,0.3
			c0.5,0.2,0.8,0.6,1,1c0.2-0.3,0.6-0.7,1-0.9c0.5-0.2,0.9-0.5,1.5-0.5c0.5,0,0.8,0,1.3,0.1c0.3,0.1,0.7,0.2,0.9,0.6
			c0.2,0.3,0.5,0.6,0.6,0.9c0.1,0.3,0.2,0.8,0.2,1.4v5.6h-2.3v-4.7c0-0.2,0-0.6,0-0.8s-0.1-0.5-0.2-0.7c-0.1-0.2-0.2-0.3-0.5-0.5
			c-0.2-0.1-0.5-0.1-0.8-0.1c-0.3,0-0.6,0.1-0.8,0.2c-0.2,0.1-0.3,0.2-0.5,0.5c-0.1,0.2-0.2,0.5-0.2,0.7c0,0.2,0,0.5,0,0.8v4.7h-2.3
			v-4.8c0-0.2,0-0.5,0-0.7s0-0.5-0.1-0.7s-0.2-0.3-0.5-0.5c-0.2-0.1-0.5-0.2-0.8-0.2c-0.1,0-0.2,0-0.5,0.1c-0.2,0-0.3,0.1-0.5,0.2
			s-0.3,0.3-0.5,0.6c-0.1,0.2-0.2,0.6-0.2,1v4.8h-2.3v-8.3H133.9z"/>
		<path class="st1" d="M148.4,15.5c0-0.7,0.1-1.3,0.3-1.8c0.2-0.6,0.5-1,0.9-1.4c0.5-0.3,0.8-0.7,1.4-0.9s1.1-0.3,1.7-0.3
			c0.7,0,1.3,0.1,1.8,0.3s1,0.5,1.4,0.9c0.3,0.5,0.7,0.8,0.9,1.4c0.2,0.6,0.3,1.1,0.3,1.8c0,0.7-0.1,1.3-0.3,1.8
			c-0.2,0.6-0.5,1-0.9,1.4c-0.5,0.3-0.8,0.7-1.4,0.9c-0.6,0.2-1.1,0.3-1.8,0.3s-1.3-0.1-1.7-0.3c-0.6-0.2-1-0.5-1.4-0.9
			c-0.3-0.5-0.7-0.8-0.9-1.4S148.4,16.1,148.4,15.5z M150.7,15.5c0,0.3,0,0.7,0.1,1c0.1,0.3,0.2,0.6,0.3,0.8s0.3,0.5,0.6,0.6
			c0.2,0.1,0.6,0.2,0.9,0.2c0.3,0,0.7-0.1,1-0.2c0.2-0.1,0.5-0.3,0.6-0.6c0.1-0.2,0.2-0.6,0.3-0.8c0.1-0.2,0.1-0.7,0.1-1
			c0-0.3,0-0.7-0.1-1c-0.1-0.3-0.2-0.6-0.3-0.8c-0.1-0.2-0.3-0.5-0.6-0.6s-0.6-0.2-1-0.2c-0.3,0-0.7,0.1-0.9,0.2
			c-0.2,0.1-0.5,0.3-0.6,0.6c-0.1,0.2-0.2,0.6-0.3,0.8C150.8,14.8,150.7,15.1,150.7,15.5z"/>
		<path class="st1" d="M169.5,18.5L169.5,18.5c-0.3,0.5-0.7,0.8-1.1,1c-0.5,0.2-0.9,0.3-1.5,0.3c-0.7,0-1.1-0.1-1.6-0.3
			c-0.5-0.2-0.8-0.6-1.1-1c-0.3-0.5-0.6-0.9-0.7-1.4c-0.1-0.6-0.2-1.1-0.2-1.7c0-0.6,0.1-1.1,0.2-1.6c0.1-0.6,0.3-1,0.7-1.4
			c0.3-0.3,0.7-0.7,1.1-0.9c0.5-0.2,1-0.3,1.6-0.3c0.5,0,0.9,0.1,1.4,0.3c0.5,0.2,0.8,0.6,1,0.9l0,0V8.3h2.3v11.4h-2.2v-1.1H169.5z
			 M169.5,15.5c0-0.3,0-0.7-0.1-1c-0.1-0.3-0.2-0.6-0.3-0.8c-0.1-0.2-0.3-0.5-0.6-0.6c-0.2-0.1-0.6-0.2-0.9-0.2
			c-0.3,0-0.7,0.1-0.9,0.2c-0.2,0.1-0.5,0.3-0.6,0.6c-0.1,0.2-0.2,0.6-0.3,0.8c-0.1,0.3-0.1,0.7-0.1,1c0,0.3,0,0.7,0.1,0.9
			c0.1,0.3,0.2,0.6,0.3,0.9c0.1,0.2,0.3,0.5,0.6,0.6c0.2,0.1,0.6,0.2,0.9,0.2c0.3,0,0.7-0.1,0.9-0.2c0.2-0.1,0.5-0.3,0.6-0.6
			s0.2-0.6,0.3-0.9C169.5,16,169.5,15.8,169.5,15.5z"/>
		<path class="st1" d="M175.6,16c0,0.7,0.2,1.3,0.6,1.6c0.3,0.3,0.8,0.5,1.5,0.5c0.5,0,0.9-0.1,1.1-0.3c0.3-0.2,0.6-0.5,0.6-0.7h2.1
			c-0.3,1-0.8,1.7-1.5,2.2s-1.5,0.7-2.4,0.7c-0.7,0-1.3-0.1-1.7-0.3c-0.6-0.2-0.9-0.6-1.4-0.9c-0.3-0.3-0.7-0.8-0.8-1.4
			c-0.1-0.6-0.3-1.1-0.3-1.7c0-0.6,0.1-1.3,0.3-1.7c0.2-0.6,0.5-1,0.9-1.4c0.5-0.3,0.8-0.7,1.4-0.9s1.1-0.3,1.7-0.3
			c0.7,0,1.4,0.1,1.8,0.5c0.6,0.2,0.9,0.7,1.3,1.1c0.3,0.5,0.6,1,0.7,1.6c0.1,0.6,0.2,1.3,0.1,1.8h-5.9V16z M179.3,14.6
			c-0.1-0.6-0.3-1-0.6-1.4c-0.2-0.3-0.7-0.5-1.3-0.5c-0.3,0-0.7,0.1-0.9,0.2s-0.5,0.2-0.6,0.5s-0.2,0.3-0.3,0.6s-0.1,0.3-0.1,0.6
			H179.3z"/>
		<path class="st1" d="M187.9,13.9c0-0.6,0.1-1,0.5-1.4c0.2-0.3,0.6-0.7,0.9-0.8c0.3-0.2,0.8-0.3,1.3-0.5c0.5-0.1,0.9-0.1,1.4-0.1
			c0.5,0,0.8,0,1.3,0.1c0.5,0.1,0.8,0.2,1.1,0.3c0.3,0.2,0.7,0.5,0.9,0.7c0.2,0.3,0.3,0.7,0.3,1.3v4.3c0,0.3,0,0.7,0.1,1
			c0,0.3,0.1,0.6,0.2,0.8h-2.3c0-0.1-0.1-0.2-0.1-0.3s0-0.2,0-0.5c-0.3,0.3-0.8,0.7-1.3,0.8c-0.5,0.1-1,0.2-1.5,0.2
			c-0.3,0-0.8,0-1.1-0.1c-0.3-0.1-0.7-0.2-0.9-0.5c-0.2-0.2-0.5-0.5-0.6-0.8c-0.1-0.3-0.2-0.7-0.2-1.1c0-0.5,0.1-0.9,0.2-1.1
			c0.1-0.3,0.3-0.6,0.7-0.7c0.2-0.2,0.6-0.3,0.9-0.5c0.3-0.1,0.7-0.1,1-0.2c0.3,0,0.7-0.1,1-0.1c0.3,0,0.6-0.1,0.9-0.1
			c0.2-0.1,0.5-0.1,0.6-0.2c0.1-0.1,0.2-0.3,0.2-0.6s0-0.5-0.1-0.6s-0.2-0.2-0.3-0.3s-0.3-0.1-0.5-0.1c-0.2,0-0.3,0-0.6,0
			c-0.5,0-0.8,0.1-1,0.3c-0.2,0.2-0.5,0.6-0.5,0.9h-2.6V13.9z M193.2,15.6c-0.1,0.1-0.2,0.1-0.3,0.2c-0.1,0-0.3,0.1-0.5,0.1
			c-0.1,0-0.3,0.1-0.6,0.1c-0.2,0-0.3,0-0.6,0.1c-0.2,0-0.3,0.1-0.6,0.1c-0.1,0-0.3,0.1-0.5,0.2c-0.1,0.1-0.2,0.2-0.3,0.3
			c-0.1,0.1-0.1,0.3-0.1,0.6s0,0.3,0.1,0.6s0.2,0.2,0.3,0.3c0.1,0.1,0.2,0.1,0.5,0.1c0.2,0,0.3,0,0.6,0c0.5,0,0.8-0.1,1-0.2
			c0.2-0.1,0.5-0.3,0.6-0.6s0.2-0.5,0.2-0.7s0-0.3,0-0.6v-0.8H193.2z"/>
		<path class="st1" d="M203.2,14.2c-0.1-0.9-0.7-1.5-1.7-1.5c-0.3,0-0.7,0.1-0.9,0.2s-0.5,0.3-0.6,0.7c-0.1,0.2-0.2,0.6-0.3,0.9
			c-0.1,0.3-0.1,0.7-0.1,0.9c0,0.3,0,0.6,0.1,0.9c0.1,0.3,0.1,0.6,0.3,0.8c0.1,0.2,0.3,0.5,0.6,0.6s0.6,0.2,0.9,0.2
			c0.6,0,0.9-0.1,1.3-0.5c0.3-0.3,0.5-0.7,0.6-1.3h2.2c-0.1,1.1-0.6,1.9-1.3,2.5c-0.7,0.6-1.6,0.9-2.7,0.9c-0.7,0-1.3-0.1-1.7-0.3
			s-0.9-0.5-1.4-0.9c-0.3-0.3-0.7-0.8-0.8-1.4c-0.2-0.6-0.3-1.1-0.3-1.7c0-0.7,0.1-1.3,0.2-1.8c0.2-0.6,0.5-1,0.8-1.5
			c0.3-0.5,0.8-0.7,1.4-0.9c0.6-0.2,1.1-0.3,1.8-0.3c0.5,0,0.9,0.1,1.4,0.2c0.5,0.1,0.9,0.3,1.3,0.6c0.3,0.2,0.7,0.6,0.9,1
			c0.2,0.3,0.3,0.9,0.3,1.4h-2.2V14.2z"/>
		<path class="st1" d="M212.7,14.2c-0.1-0.9-0.7-1.5-1.7-1.5c-0.3,0-0.7,0.1-0.9,0.2s-0.5,0.3-0.6,0.7c-0.1,0.2-0.2,0.6-0.3,0.9
			c-0.1,0.3-0.1,0.7-0.1,0.9c0,0.3,0,0.6,0.1,0.9c0.1,0.3,0.1,0.6,0.3,0.8c0.1,0.2,0.3,0.5,0.6,0.6s0.6,0.2,0.9,0.2
			c0.6,0,0.9-0.1,1.3-0.5c0.3-0.3,0.5-0.7,0.6-1.3h2.2c-0.1,1.1-0.6,1.9-1.3,2.5c-0.7,0.6-1.6,0.9-2.7,0.9c-0.7,0-1.3-0.1-1.7-0.3
			c-0.5-0.2-0.9-0.5-1.4-0.9c-0.3-0.3-0.7-0.8-0.8-1.4c-0.2-0.6-0.3-1.1-0.3-1.7c0-0.7,0.1-1.3,0.2-1.8c0.2-0.6,0.5-1,0.8-1.5
			c0.3-0.5,0.8-0.7,1.4-0.9c0.6-0.2,1.1-0.3,1.8-0.3c0.5,0,0.9,0.1,1.4,0.2c0.5,0.1,0.9,0.3,1.3,0.6c0.3,0.2,0.7,0.6,0.9,1
			c0.2,0.3,0.3,0.9,0.3,1.4h-2.2V14.2z"/>
		<path class="st1" d="M218.9,10h-2.3V8.2h2.3V10z M216.7,11.2h2.3v8.3h-2.3V11.2z"/>
		<path class="st1" d="M220.8,15.5c0-0.7,0.1-1.3,0.3-1.8c0.2-0.6,0.5-1,0.9-1.4c0.5-0.3,0.8-0.7,1.4-0.9c0.6-0.2,1.1-0.3,1.7-0.3
			c0.7,0,1.3,0.1,1.8,0.3c0.6,0.2,1,0.5,1.4,0.9c0.3,0.5,0.7,0.8,0.9,1.4c0.2,0.6,0.3,1.1,0.3,1.8c0,0.7-0.1,1.3-0.3,1.8
			c-0.2,0.6-0.5,1-0.9,1.4c-0.5,0.3-0.8,0.7-1.4,0.9c-0.6,0.2-1.1,0.3-1.8,0.3c-0.7,0-1.3-0.1-1.7-0.3c-0.6-0.2-1-0.5-1.4-0.9
			c-0.3-0.5-0.7-0.8-0.9-1.4S220.8,16.1,220.8,15.5z M223,15.5c0,0.3,0,0.7,0.1,1c0.1,0.3,0.2,0.6,0.3,0.8s0.3,0.5,0.6,0.6
			c0.2,0.1,0.6,0.2,0.9,0.2c0.3,0,0.7-0.1,1-0.2c0.2-0.1,0.5-0.3,0.6-0.6s0.2-0.6,0.3-0.8c0.1-0.2,0.1-0.7,0.1-1c0-0.3,0-0.7-0.1-1
			c-0.1-0.3-0.2-0.6-0.3-0.8c-0.1-0.2-0.3-0.5-0.6-0.6c-0.2-0.1-0.6-0.2-1-0.2c-0.3,0-0.7,0.1-0.9,0.2c-0.2,0.1-0.5,0.3-0.6,0.6
			c-0.1,0.2-0.2,0.6-0.3,0.8C223,14.8,223,15.1,223,15.5z M225.4,10.2h-1.6l1.6-2.3h2.5L225.4,10.2z"/>
		<path class="st1" d="M231.1,11.2h2.2v1.1l0,0c0.3-0.5,0.7-0.8,1.1-1c0.5-0.2,0.9-0.3,1.4-0.3c0.6,0,1.1,0.1,1.5,0.2
			c0.3,0.1,0.7,0.3,0.9,0.7c0.2,0.3,0.3,0.7,0.5,1c0.1,0.5,0.1,0.9,0.1,1.4v5.1h-2.3v-4.6c0-0.7-0.1-1.1-0.3-1.5
			c-0.2-0.3-0.6-0.5-1.1-0.5c-0.6,0-1,0.2-1.4,0.6c-0.2,0.3-0.5,1-0.5,1.8v4.3h-2.3v-8.4H231.1z"/>
		<path class="st1" d="M241,17.1h2.5v2.5c0,0.3-0.1,0.7-0.2,1c-0.1,0.3-0.3,0.6-0.6,0.8c-0.2,0.2-0.5,0.5-0.8,0.6
			c-0.3,0.1-0.7,0.2-1,0.3v-1.1c0.2,0,0.3-0.1,0.5-0.2c0.1-0.1,0.2-0.2,0.3-0.3c0.1-0.1,0.2-0.3,0.2-0.5s0.1-0.3,0.1-0.6h-1.1v-2.5
			H241z"/>
	</g>
	<g>
		<path class="st1" d="M249.9,15.1c0,0.7,0.2,1.3,0.6,1.6c0.3,0.3,0.8,0.5,1.5,0.5c0.5,0,0.9-0.1,1.1-0.3c0.3-0.2,0.6-0.5,0.6-0.7
			h2.1c-0.2,1-0.8,1.7-1.4,2.2c-0.7,0.5-1.5,0.7-2.4,0.7c-0.7,0-1.3-0.1-1.7-0.3c-0.6-0.2-0.9-0.6-1.4-0.9c-0.3-0.3-0.7-0.8-0.8-1.4
			c-0.1-0.6-0.3-1.1-0.3-1.7s0.1-1.3,0.3-1.7c0.2-0.6,0.5-1,0.9-1.4c0.5-0.3,0.8-0.7,1.4-0.9c0.6-0.2,1.1-0.3,1.7-0.3
			c0.7,0,1.4,0.1,1.8,0.5c0.6,0.2,0.9,0.7,1.3,1.1c0.3,0.5,0.6,1,0.7,1.6c0.1,0.6,0.2,1.3,0.1,1.8h-6V15.1z M253.7,13.6
			c-0.1-0.6-0.3-1-0.6-1.4c-0.2-0.3-0.7-0.5-1.3-0.5c-0.3,0-0.7,0.1-0.9,0.2s-0.5,0.2-0.6,0.5c-0.1,0.2-0.2,0.3-0.3,0.6
			c-0.1,0.2-0.1,0.3-0.1,0.6H253.7z"/>
		<path class="st1" d="M257.5,10.4h2.2v1.1l0,0c0.3-0.5,0.7-0.8,1.1-1c0.5-0.2,0.9-0.3,1.4-0.3c0.6,0,1.1,0.1,1.5,0.2
			c0.3,0.1,0.7,0.3,0.9,0.7c0.2,0.3,0.3,0.7,0.5,1c0.1,0.5,0.1,0.9,0.1,1.4v5.1h-2.3V14c0-0.7-0.1-1.1-0.3-1.5
			c-0.2-0.3-0.6-0.5-1.1-0.5s-1,0.2-1.4,0.6c-0.2,0.3-0.5,1-0.5,1.8v4.3h-2.3v-8.3H257.5z"/>
		<path class="st1" d="M280,18.7h-2.2v-1.1l0,0c-0.3,0.5-0.7,0.8-1.1,1s-0.9,0.3-1.4,0.3c-0.6,0-1.1-0.1-1.5-0.2
			c-0.3-0.1-0.7-0.3-0.9-0.7c-0.2-0.3-0.3-0.7-0.5-1c-0.1-0.5-0.1-0.9-0.1-1.4v-5.1h2.3v4.7c0,0.7,0.1,1.1,0.3,1.5
			c0.2,0.3,0.6,0.5,1.1,0.5s1-0.2,1.4-0.6c0.2-0.3,0.5-1,0.5-1.8v-4.3h2.3v8.3H280z"/>
		<path class="st1" d="M282,10.4h2.2v1.1l0,0c0.3-0.5,0.7-0.8,1.1-1c0.5-0.2,0.9-0.3,1.4-0.3c0.6,0,1.1,0.1,1.5,0.2s0.7,0.3,0.9,0.7
			c0.2,0.3,0.3,0.7,0.5,1c0.1,0.5,0.1,0.9,0.1,1.4v5.1h-2.3V14c0-0.7-0.1-1.1-0.3-1.5c-0.2-0.3-0.6-0.5-1.1-0.5s-1,0.2-1.4,0.6
			c-0.2,0.3-0.5,1-0.5,1.8v4.3h-2.3v-8.3H282z"/>
		<path class="st1" d="M298.3,16c0,0.2,0,0.5,0.1,0.7c0.1,0.2,0.2,0.3,0.3,0.5c0.1,0.1,0.3,0.2,0.6,0.2c0.2,0,0.5,0.1,0.7,0.1
			c0.1,0,0.3,0,0.5,0c0.2,0,0.3-0.1,0.5-0.2c0.1-0.1,0.2-0.2,0.3-0.3c0.1-0.1,0.1-0.3,0.1-0.5c0-0.2-0.1-0.3-0.2-0.5
			c-0.1-0.1-0.3-0.2-0.5-0.3c-0.2-0.1-0.5-0.2-0.8-0.2c-0.3-0.1-0.7-0.1-1.1-0.2c-0.3-0.1-0.7-0.1-1-0.2c-0.3-0.1-0.6-0.2-0.8-0.5
			c-0.2-0.1-0.5-0.3-0.6-0.6s-0.2-0.6-0.2-0.9c0-0.6,0.1-0.9,0.3-1.3c0.2-0.3,0.5-0.6,0.8-0.8s0.7-0.3,1.1-0.5s0.9-0.1,1.4-0.1
			s0.9,0,1.3,0.1c0.5,0.1,0.8,0.2,1.1,0.5c0.3,0.2,0.6,0.5,0.8,0.8c0.2,0.3,0.3,0.8,0.3,1.3h-2.2c0-0.5-0.2-0.7-0.5-0.9
			c-0.3-0.1-0.7-0.2-1-0.2c-0.1,0-0.2,0-0.5,0c-0.1,0-0.3,0-0.5,0.1c-0.1,0.1-0.2,0.1-0.3,0.2c-0.1,0.1-0.1,0.2-0.1,0.5
			c0,0.2,0.1,0.3,0.2,0.5s0.3,0.2,0.6,0.3c0.2,0.1,0.6,0.1,0.8,0.2c0.3,0.1,0.6,0.1,0.9,0.2c0.3,0.1,0.7,0.1,1,0.2
			c0.3,0.1,0.6,0.2,0.8,0.5c0.2,0.2,0.5,0.3,0.6,0.7c0.1,0.2,0.2,0.6,0.2,1c0,0.6-0.1,1-0.3,1.4c-0.2,0.3-0.5,0.7-0.9,0.9
			s-0.8,0.3-1.3,0.5s-0.9,0.1-1.4,0.1c-0.5,0-0.9,0-1.4-0.1c-0.5-0.1-0.9-0.2-1.3-0.5c-0.3-0.2-0.7-0.6-0.9-0.9
			c-0.2-0.3-0.3-0.8-0.3-1.4h2.6V16z"/>
		<path class="st1" d="M305.3,14.6c0-0.7,0.1-1.3,0.3-1.8c0.2-0.6,0.5-1,0.9-1.4s0.8-0.7,1.4-0.9c0.6-0.2,1.1-0.3,1.7-0.3
			c0.7,0,1.3,0.1,1.8,0.3c0.6,0.2,1,0.5,1.4,0.9c0.3,0.5,0.7,0.8,0.9,1.4c0.2,0.6,0.3,1.1,0.3,1.8c0,0.7-0.1,1.3-0.3,1.8
			c-0.2,0.6-0.5,1-0.9,1.4c-0.5,0.3-0.8,0.7-1.4,0.9s-1.1,0.3-1.8,0.3c-0.7,0-1.3-0.1-1.7-0.3c-0.6-0.2-1-0.5-1.4-0.9
			c-0.3-0.5-0.7-0.8-0.9-1.4C305.4,15.8,305.3,15.2,305.3,14.6z M307.6,14.6c0,0.3,0,0.7,0.1,1c0.1,0.3,0.2,0.6,0.3,0.8
			s0.3,0.5,0.6,0.6c0.2,0.1,0.6,0.2,0.9,0.2c0.3,0,0.7-0.1,1-0.2c0.2-0.1,0.5-0.3,0.6-0.6c0.1-0.2,0.2-0.6,0.3-0.8
			c0.1-0.2,0.1-0.7,0.1-1c0-0.3,0-0.7-0.1-1c-0.1-0.3-0.2-0.6-0.3-0.8c-0.1-0.2-0.3-0.5-0.6-0.6c-0.2-0.1-0.6-0.2-1-0.2
			c-0.3,0-0.7,0.1-0.9,0.2c-0.2,0.1-0.5,0.3-0.6,0.6c-0.1,0.2-0.2,0.6-0.3,0.8C307.6,13.9,307.6,14.2,307.6,14.6z"/>
		<path class="st1" d="M315.8,7.3h2.3v11.4h-2.3V7.3z"/>
		<path class="st1" d="M319.9,14.6c0-0.7,0.1-1.3,0.3-1.8c0.2-0.6,0.5-1,0.9-1.4s0.8-0.7,1.4-0.9c0.6-0.2,1.1-0.3,1.7-0.3
			c0.7,0,1.3,0.1,1.8,0.3c0.6,0.2,1,0.5,1.4,0.9c0.3,0.5,0.7,0.8,0.9,1.4c0.2,0.6,0.3,1.1,0.3,1.8c0,0.7-0.1,1.3-0.3,1.8
			c-0.2,0.6-0.5,1-0.9,1.4c-0.5,0.3-0.8,0.7-1.4,0.9s-1.1,0.3-1.8,0.3c-0.7,0-1.3-0.1-1.7-0.3c-0.6-0.2-1-0.5-1.4-0.9
			c-0.3-0.5-0.7-0.8-0.9-1.4C320,15.8,319.9,15.2,319.9,14.6z M322.1,14.6c0,0.3,0,0.7,0.1,1c0.1,0.3,0.2,0.6,0.3,0.8
			s0.3,0.5,0.6,0.6c0.2,0.1,0.6,0.2,0.9,0.2s0.7-0.1,1-0.2c0.2-0.1,0.5-0.3,0.6-0.6c0.1-0.2,0.2-0.6,0.3-0.8c0.1-0.2,0.1-0.7,0.1-1
			c0-0.3,0-0.7-0.1-1c-0.1-0.3-0.2-0.6-0.3-0.8c-0.1-0.2-0.3-0.5-0.6-0.6c-0.2-0.1-0.6-0.2-1-0.2c-0.3,0-0.7,0.1-0.9,0.2
			c-0.2,0.1-0.5,0.3-0.6,0.6c-0.1,0.2-0.2,0.6-0.3,0.8C322.1,13.9,322.1,14.2,322.1,14.6z"/>
		<path class="st1" d="M335,10.4h2.2v1.1l0,0c0.3-0.5,0.7-0.8,1-1c0.5-0.2,0.9-0.3,1.5-0.3c0.6,0,1,0.1,1.5,0.3s0.8,0.6,1,1
			c0.2-0.3,0.6-0.7,1-0.9c0.5-0.2,0.9-0.5,1.5-0.5c0.5,0,0.8,0,1.3,0.1c0.3,0.1,0.7,0.2,0.9,0.6c0.2,0.3,0.5,0.6,0.6,0.9
			c0.1,0.3,0.2,0.8,0.2,1.4v5.6h-2.3v-4.7c0-0.2,0-0.6,0-0.8s-0.1-0.5-0.2-0.7s-0.2-0.3-0.5-0.5c-0.2-0.1-0.5-0.1-0.8-0.1
			c-0.3,0-0.6,0.1-0.8,0.2s-0.3,0.2-0.5,0.5c-0.1,0.2-0.2,0.5-0.2,0.7s0,0.5,0,0.8v4.7h-2.3v-4.7c0-0.2,0-0.5,0-0.7
			c0-0.2,0-0.5-0.1-0.7s-0.2-0.3-0.5-0.5c-0.2-0.1-0.5-0.2-0.8-0.2c-0.1,0-0.2,0-0.5,0.1c-0.2,0-0.3,0.1-0.5,0.2s-0.3,0.3-0.5,0.6
			c-0.1,0.2-0.2,0.6-0.2,1v4.8h-2.3v-8.4H335z"/>
		<path class="st1" d="M351.8,15.1c0,0.7,0.2,1.3,0.6,1.6c0.3,0.3,0.8,0.5,1.5,0.5c0.5,0,0.9-0.1,1.1-0.3c0.3-0.2,0.6-0.5,0.6-0.7
			h2.1c-0.3,1-0.8,1.7-1.5,2.2c-0.7,0.5-1.5,0.7-2.4,0.7c-0.7,0-1.3-0.1-1.7-0.3c-0.6-0.2-0.9-0.6-1.4-0.9c-0.3-0.3-0.7-0.8-0.8-1.4
			c-0.1-0.6-0.3-1.1-0.3-1.7s0.1-1.3,0.3-1.7c0.2-0.6,0.5-1,0.9-1.4c0.5-0.3,0.8-0.7,1.4-0.9c0.6-0.2,1.1-0.3,1.7-0.3
			c0.7,0,1.4,0.1,1.8,0.5c0.6,0.2,0.9,0.7,1.3,1.1c0.3,0.5,0.6,1,0.7,1.6c0.1,0.6,0.2,1.3,0.1,1.8h-5.9V15.1z M355.4,13.6
			c-0.1-0.6-0.3-1-0.6-1.4c-0.2-0.3-0.7-0.5-1.3-0.5c-0.3,0-0.7,0.1-0.9,0.2c-0.2,0.1-0.5,0.2-0.6,0.5c-0.1,0.2-0.2,0.3-0.3,0.6
			c-0.1,0.2-0.1,0.3-0.1,0.6H355.4z"/>
		<path class="st1" d="M365.3,17.6L365.3,17.6c-0.3,0.5-0.7,0.8-1.1,1s-0.9,0.3-1.5,0.3c-0.7,0-1.1-0.1-1.6-0.3s-0.8-0.6-1.1-1
			c-0.3-0.5-0.6-0.9-0.7-1.4c-0.1-0.6-0.2-1.1-0.2-1.7c0-0.6,0.1-1.1,0.2-1.6c0.1-0.6,0.3-1,0.7-1.4c0.3-0.3,0.7-0.7,1.1-0.9
			s1-0.3,1.6-0.3c0.5,0,0.9,0.1,1.4,0.3c0.5,0.2,0.8,0.6,1,0.9l0,0V7.4h2.3v11.4h-2.2v-1.1H365.3z M365.2,14.6c0-0.3,0-0.7-0.1-1
			c-0.1-0.3-0.2-0.6-0.3-0.8c-0.1-0.2-0.3-0.5-0.6-0.6s-0.6-0.2-0.9-0.2s-0.7,0.1-0.9,0.2s-0.5,0.3-0.6,0.6
			c-0.1,0.2-0.2,0.6-0.3,0.8c-0.1,0.3-0.1,0.7-0.1,1c0,0.3,0,0.7,0.1,0.9c0.1,0.3,0.2,0.6,0.3,0.9c0.1,0.2,0.3,0.5,0.6,0.6
			s0.6,0.2,0.9,0.2s0.7-0.1,0.9-0.2c0.2-0.1,0.5-0.3,0.6-0.6c0.1-0.2,0.2-0.6,0.3-0.9C365.2,15.1,365.2,14.9,365.2,14.6z"/>
		<path class="st1" d="M371.8,9.1h-2.3V7.3h2.3V9.1z M369.5,10.4h2.3v8.3h-2.3V10.4z"/>
		<path class="st1" d="M379.6,13.3c-0.1-0.9-0.7-1.5-1.7-1.5c-0.3,0-0.7,0.1-0.9,0.2c-0.2,0.1-0.5,0.3-0.6,0.7
			c-0.1,0.2-0.2,0.6-0.3,0.9c-0.1,0.3-0.1,0.7-0.1,0.9c0,0.3,0,0.6,0.1,0.9c0.1,0.3,0.1,0.6,0.3,0.8c0.1,0.2,0.3,0.5,0.6,0.6
			s0.6,0.2,0.9,0.2c0.6,0,0.9-0.1,1.3-0.5s0.5-0.7,0.6-1.3h2.2c-0.1,1.1-0.6,1.9-1.3,2.5c-0.7,0.6-1.6,0.9-2.7,0.9
			c-0.7,0-1.3-0.1-1.7-0.3c-0.5-0.2-0.9-0.5-1.4-0.9c-0.3-0.3-0.7-0.8-0.8-1.4c-0.2-0.6-0.3-1.1-0.3-1.7c0-0.7,0.1-1.3,0.2-1.8
			c0.2-0.6,0.5-1,0.8-1.5c0.3-0.5,0.8-0.7,1.4-0.9c0.6-0.2,1.1-0.3,1.8-0.3c0.5,0,0.9,0.1,1.4,0.2c0.5,0.1,0.9,0.3,1.3,0.6
			c0.3,0.2,0.7,0.6,0.9,1c0.2,0.3,0.3,0.9,0.3,1.4h-2.2V13.3z"/>
		<path class="st1" d="M383.3,13c0-0.6,0.1-1,0.5-1.4c0.2-0.3,0.6-0.7,0.9-0.8c0.3-0.2,0.8-0.3,1.3-0.5c0.5-0.1,0.9-0.1,1.4-0.1
			c0.5,0,0.8,0,1.3,0.1s0.8,0.2,1.1,0.3c0.3,0.2,0.7,0.5,0.9,0.7c0.2,0.3,0.3,0.7,0.3,1.3v4.3c0,0.3,0,0.7,0.1,1
			c0,0.3,0.1,0.6,0.2,0.8H389c0-0.1-0.1-0.2-0.1-0.3c0-0.1,0-0.2,0-0.5c-0.3,0.3-0.8,0.7-1.3,0.8c-0.5,0.1-1,0.2-1.5,0.2
			c-0.3,0-0.8,0-1.1-0.1s-0.7-0.2-0.9-0.5c-0.2-0.2-0.5-0.5-0.6-0.8c-0.1-0.3-0.2-0.7-0.2-1.1c0-0.5,0.1-0.9,0.2-1.1
			c0.1-0.3,0.3-0.6,0.7-0.7c0.2-0.2,0.6-0.3,0.9-0.5c0.3-0.1,0.7-0.1,1-0.2c0.3,0,0.7-0.1,1-0.1s0.6-0.1,0.9-0.1
			c0.2-0.1,0.5-0.1,0.6-0.2c0.1-0.1,0.2-0.3,0.2-0.6c0-0.2,0-0.5-0.1-0.6c-0.1-0.1-0.2-0.2-0.3-0.3c-0.1-0.1-0.3-0.1-0.5-0.1
			c-0.2,0-0.3,0-0.6,0c-0.5,0-0.8,0.1-1,0.3c-0.2,0.2-0.5,0.6-0.5,0.9h-2.6V13z M388.6,14.7c-0.1,0.1-0.2,0.1-0.3,0.2
			c-0.1,0-0.3,0.1-0.5,0.1s-0.3,0.1-0.6,0.1c-0.2,0-0.3,0-0.6,0.1c-0.2,0-0.3,0.1-0.6,0.1c-0.1,0-0.3,0.1-0.5,0.2
			c-0.1,0.1-0.2,0.2-0.3,0.3c-0.1,0.1-0.1,0.3-0.1,0.6s0,0.3,0.1,0.6c0.1,0.2,0.2,0.2,0.3,0.3c0.1,0.1,0.2,0.1,0.5,0.1
			c0.2,0,0.3,0,0.6,0c0.5,0,0.8-0.1,1-0.2c0.2-0.1,0.5-0.3,0.6-0.6c0.1-0.2,0.2-0.5,0.2-0.7c0-0.2,0-0.3,0-0.6v-0.8H388.6z"/>
		<path class="st1" d="M393,10.4h2.2v1.1l0,0c0.3-0.5,0.7-0.8,1-1c0.5-0.2,0.9-0.3,1.5-0.3c0.6,0,1,0.1,1.5,0.3c0.5,0.2,0.8,0.6,1,1
			c0.2-0.3,0.6-0.7,1-0.9c0.5-0.2,0.9-0.5,1.5-0.5c0.5,0,0.8,0,1.3,0.1c0.3,0.1,0.7,0.2,0.9,0.6c0.2,0.3,0.5,0.6,0.6,0.9
			c0.1,0.3,0.2,0.8,0.2,1.4v5.6h-2.3v-4.7c0-0.2,0-0.6,0-0.8s-0.1-0.5-0.2-0.7c-0.1-0.2-0.2-0.3-0.5-0.5s-0.5-0.1-0.8-0.1
			c-0.3,0-0.6,0.1-0.8,0.2s-0.3,0.2-0.5,0.5c-0.1,0.2-0.2,0.5-0.2,0.7s0,0.5,0,0.8v4.7h-2.3v-4.7c0-0.2,0-0.5,0-0.7
			c0-0.2,0-0.5-0.1-0.7c-0.1-0.2-0.2-0.3-0.5-0.5s-0.5-0.2-0.8-0.2c-0.1,0-0.2,0-0.5,0.1c-0.2,0-0.3,0.1-0.5,0.2s-0.3,0.3-0.5,0.6
			s-0.2,0.6-0.2,1v4.8h-2.3v-8.4H393z"/>
		<path class="st1" d="M409.6,15.1c0,0.7,0.2,1.3,0.6,1.6c0.3,0.3,0.8,0.5,1.5,0.5c0.5,0,0.9-0.1,1.1-0.3c0.3-0.2,0.6-0.5,0.6-0.7
			h2.1c-0.3,1-0.8,1.7-1.5,2.2c-0.7,0.5-1.5,0.7-2.4,0.7c-0.7,0-1.3-0.1-1.7-0.3c-0.6-0.2-0.9-0.6-1.4-0.9c-0.3-0.3-0.7-0.8-0.8-1.4
			c-0.1-0.6-0.3-1.1-0.3-1.7s0.1-1.3,0.3-1.7c0.2-0.6,0.5-1,0.9-1.4c0.5-0.3,0.8-0.7,1.4-0.9c0.6-0.2,1.1-0.3,1.7-0.3
			c0.7,0,1.4,0.1,1.8,0.5c0.6,0.2,0.9,0.7,1.3,1.1c0.3,0.5,0.6,1,0.7,1.6c0.1,0.6,0.2,1.3,0.1,1.8h-5.9V15.1z M413.4,13.6
			c-0.1-0.6-0.3-1-0.6-1.4c-0.2-0.3-0.7-0.5-1.3-0.5c-0.3,0-0.7,0.1-0.9,0.2c-0.2,0.1-0.5,0.2-0.6,0.5c-0.1,0.2-0.2,0.3-0.3,0.6
			c-0.1,0.2-0.1,0.3-0.1,0.6H413.4z"/>
		<path class="st1" d="M417.3,10.4h2.2v1.1l0,0c0.3-0.5,0.7-0.8,1.1-1c0.5-0.2,0.9-0.3,1.4-0.3c0.6,0,1.1,0.1,1.5,0.2
			s0.7,0.3,0.9,0.7c0.2,0.3,0.3,0.7,0.5,1c0.1,0.5,0.1,0.9,0.1,1.4v5.1h-2.3V14c0-0.7-0.1-1.1-0.3-1.5c-0.2-0.3-0.6-0.5-1.1-0.5
			c-0.6,0-1,0.2-1.4,0.6c-0.2,0.3-0.5,1-0.5,1.8v4.3H417v-8.3H417.3z"/>
		<path class="st1" d="M430,10.4h1.7v1.5H430V16c0,0.3,0.1,0.7,0.2,0.8c0.1,0.1,0.3,0.2,0.8,0.2c0.2,0,0.5,0,0.7-0.1v1.8
			c-0.2,0-0.5,0-0.7,0.1c-0.2,0-0.5,0-0.7,0c-0.3,0-0.7,0-1-0.1c-0.3,0-0.6-0.1-0.8-0.3c-0.2-0.1-0.5-0.3-0.6-0.6
			c-0.1-0.2-0.2-0.6-0.2-1v-4.9h-1.4v-1.5h1.4V7.9h2.3V10.4z"/>
		<path class="st1" d="M432.9,14.6c0-0.7,0.1-1.3,0.3-1.8c0.2-0.6,0.5-1,0.9-1.4c0.5-0.3,0.8-0.7,1.4-0.9c0.6-0.2,1.1-0.3,1.7-0.3
			c0.7,0,1.3,0.1,1.8,0.3c0.6,0.2,1,0.5,1.4,0.9c0.3,0.5,0.7,0.8,0.9,1.4c0.2,0.6,0.3,1.1,0.3,1.8c0,0.7-0.1,1.3-0.3,1.8
			c-0.2,0.6-0.5,1-0.9,1.4c-0.5,0.3-0.8,0.7-1.4,0.9s-1.1,0.3-1.8,0.3c-0.7,0-1.3-0.1-1.7-0.3c-0.6-0.2-1-0.5-1.4-0.9
			c-0.3-0.5-0.7-0.8-0.9-1.4C433,15.8,432.9,15.2,432.9,14.6z M435.2,14.6c0,0.3,0,0.7,0.1,1c0.1,0.3,0.2,0.6,0.3,0.8
			c0.1,0.2,0.3,0.5,0.6,0.6c0.2,0.1,0.6,0.2,0.9,0.2s0.7-0.1,1-0.2c0.2-0.1,0.5-0.3,0.6-0.6c0.1-0.2,0.2-0.6,0.3-0.8
			c0.1-0.2,0.1-0.7,0.1-1c0-0.3,0-0.7-0.1-1c-0.1-0.3-0.2-0.6-0.3-0.8c-0.1-0.2-0.3-0.5-0.6-0.6c-0.2-0.1-0.6-0.2-1-0.2
			c-0.3,0-0.7,0.1-0.9,0.2s-0.5,0.3-0.6,0.6c-0.1,0.2-0.2,0.6-0.3,0.8C435.2,13.9,435.2,14.2,435.2,14.6z"/>
		<path class="st1" d="M443.4,16.3h2.5v2.5h-2.5V16.3z"/>
		<path class="st1" d="M447.6,8.5c0-0.3,0.1-0.6,0.2-0.8c0.1-0.2,0.3-0.5,0.5-0.6c0.2-0.1,0.5-0.2,0.7-0.3c0.2-0.1,0.6-0.1,0.8-0.1
			c0.5,0,0.8,0.1,1,0.2c0.2,0.1,0.5,0.2,0.7,0.5c0.2,0.2,0.3,0.3,0.3,0.6c0.1,0.2,0.1,0.3,0.1,0.6c0,0.3-0.1,0.6-0.2,0.8
			c-0.1,0.2-0.5,0.5-0.7,0.6l0,0c0.3,0.1,0.7,0.2,0.9,0.6c0.2,0.2,0.3,0.7,0.3,1c0,0.3-0.1,0.7-0.2,0.9c-0.1,0.2-0.3,0.5-0.6,0.7
			c-0.2,0.2-0.5,0.3-0.8,0.3c-0.3,0.1-0.6,0.1-0.9,0.1s-0.6,0-0.9-0.1s-0.6-0.2-0.8-0.3c-0.2-0.1-0.5-0.3-0.6-0.7
			c-0.1-0.2-0.2-0.6-0.2-0.9c0-0.5,0.1-0.8,0.3-1c0.2-0.2,0.6-0.5,0.9-0.6l0,0c-0.3-0.1-0.6-0.2-0.7-0.5
			C447.6,9.1,447.6,8.7,447.6,8.5z M448.6,11.4c0,0.1,0,0.3,0.1,0.5c0.1,0.1,0.1,0.2,0.2,0.3c0.1,0.1,0.2,0.2,0.3,0.2
			c0.1,0,0.3,0.1,0.5,0.1c0.1,0,0.3,0,0.5-0.1c0.1,0,0.2-0.1,0.3-0.2c0.1-0.1,0.2-0.2,0.2-0.3c0-0.1,0.1-0.3,0.1-0.5s0-0.3-0.1-0.5
			c-0.1-0.1-0.1-0.2-0.2-0.3s-0.2-0.1-0.3-0.2c-0.1,0-0.2-0.1-0.5-0.1c-0.3,0-0.6,0.1-0.8,0.2C448.7,10.8,448.6,11,448.6,11.4z
			 M448.7,8.6c0,0.1,0,0.2,0.1,0.3c0,0.1,0.1,0.2,0.2,0.2c0.1,0.1,0.2,0.1,0.3,0.1c0.1,0,0.2,0,0.3,0c0.2,0,0.5-0.1,0.7-0.2
			c0.2-0.1,0.3-0.3,0.3-0.7c0-0.1,0-0.2,0-0.2c0-0.1-0.1-0.2-0.1-0.3s-0.2-0.2-0.3-0.2c-0.1-0.1-0.3-0.1-0.5-0.1
			c-0.2,0-0.5,0.1-0.7,0.2C448.8,8.1,448.7,8.3,448.7,8.6z"/>
	</g>
</g>
</svg>
