<!-- Generator: Adobe Illustrator 21.1.0, SVG Export Plug-In  -->
<svg version="1.1"
	 xmlns="http://www.w3.org/2000/svg" xmlns:xlink="http://www.w3.org/1999/xlink" xmlns:a="http://ns.adobe.com/AdobeSVGViewerExtensions/3.0/"
	 x="0px" y="0px" width="352.4px" height="72px" viewBox="0 0 352.4 72" style="enable-background:new 0 0 352.4 72;"
	 xml:space="preserve">
<style type="text/css">
	.st0{opacity:0.9;fill:#FFFFFF;enable-background:new    ;}
	.st1{opacity:0.8;fill:#FFFFFF;enable-background:new    ;}
</style>
<defs>
</defs>
<g>
	<path class="st0" d="M24.7,11.6h-2.8L18.2,0.2h2.6l2.5,8l0,0l2.6-8h2.6L24.7,11.6z"/>
	<path class="st0" d="M31.8,2.1h-2.3V0.2h2.3V2.1z M29.6,3.4h2.3v8.2h-2.3V3.4z"/>
	<path class="st0" d="M36.8,3.4h1.6v1.5h-1.6V9c0,0.4,0.1,0.6,0.2,0.8c0.1,0.2,0.4,0.2,0.8,0.2c0.3,0,0.5,0,0.7-0.1v1.8
		c-0.2,0-0.4,0.1-0.6,0.1s-0.5,0-0.7,0c-0.3,0-0.7,0-1-0.1c-0.3,0-0.6-0.1-0.8-0.3c-0.2-0.1-0.4-0.3-0.6-0.6c-0.2-0.3-0.2-0.6-0.2-1
		V4.9h-1.4V3.4h1.4V0.9h2.3L36.8,3.4L36.8,3.4z"/>
	<path class="st0" d="M39.7,5.9c0-0.5,0.2-1,0.4-1.3C40.3,4.3,40.6,4,41,3.8s0.8-0.4,1.2-0.5s0.9-0.1,1.4-0.1c0.4,0,0.8,0,1.3,0.1
		c0.4,0.1,0.8,0.2,1.2,0.3C46.4,3.8,46.7,4,47,4.3c0,0.3,0.2,0.7,0.2,1.2v4.3c0,0.4,0,0.7,0.1,1.1c0,0.3,0.1,0.6,0.2,0.8h-2.3
		c0-0.1-0.1-0.3-0.1-0.4c0-0.1,0-0.3-0.1-0.4c-0.4,0.4-0.8,0.6-1.3,0.8s-1,0.2-1.5,0.2c-0.4,0-0.8,0-1.1-0.2
		c-0.3-0.1-0.6-0.3-0.9-0.5s-0.5-0.5-0.6-0.8c-0.1-0.3-0.2-0.7-0.2-1.1c0-0.5,0.1-0.8,0.2-1.1c0.2-0.3,0.4-0.5,0.6-0.7
		s0.7-0.4,1-0.5s0.7-0.2,1-0.2c0.3-0.1,0.7-0.1,1-0.1s0.6-0.1,0.8-0.1c0.2-0.1,0.4-0.2,0.6-0.3c0.1-0.1,0.2-0.3,0.2-0.5
		s0-0.4-0.1-0.6s-0.2-0.3-0.3-0.3S44.2,4.7,44,4.7s-0.4,0-0.6,0c-0.4,0-0.8,0.1-1,0.3c-0.3,0.2-0.4,0.5-0.5,1L39.7,5.9L39.7,5.9z
		 M44.9,7.5c-0.1,0.1-0.2,0.2-0.4,0.2c-0.2,0-0.3,0.1-0.5,0.1c-0.2,0-0.3,0.1-0.5,0.1C43.4,8,43.2,8,43,8s-0.3,0.1-0.5,0.1
		c-0.2,0.1-0.3,0.1-0.4,0.2c-0.1,0.1-0.2,0.2-0.3,0.3s-0.1,0.3-0.1,0.5s0,0.4,0.1,0.5c0.1,0.1,0.2,0.2,0.3,0.3s0.3,0.1,0.4,0.2
		c0.2,0,0.3,0,0.5,0c0.4,0,0.8-0.1,1-0.2c0.2-0.1,0.4-0.3,0.5-0.5s0.2-0.4,0.2-0.6c0-0.2,0-0.4,0-0.5V7.5H44.9z"/>
	<path class="st0" d="M49.2,3.4h2.1v1.1l0,0c0.3-0.5,0.7-0.8,1.1-1c0.5-0.2,0.9-0.3,1.4-0.3c0.6,0,1.1,0.1,1.5,0.2
		c0.4,0.2,0.7,0.4,0.9,0.7c0.2,0.3,0.4,0.6,0.5,1.1c0.1,0.4,0.1,0.9,0.1,1.4v5h-2.3V6.9c0-0.7-0.1-1.2-0.3-1.5s-0.5-0.5-1-0.5
		c-0.6,0-1.1,0.2-1.3,0.5c-0.3,0.4-0.4,1-0.4,1.8v4.3h-2.3V3.4z"/>
	<path class="st0" d="M64.5,6.2c-0.1-0.9-0.7-1.4-1.7-1.4c-0.4,0-0.7,0.1-0.9,0.2c-0.2,0.2-0.4,0.4-0.6,0.6c-0.1,0.4-0.2,0.7-0.3,1
		c-0.1,0.3-0.1,0.6-0.1,0.9s0,0.6,0.1,0.9s0.2,0.6,0.3,0.8s0.3,0.5,0.6,0.6s0.5,0.2,0.9,0.2c0.5,0,0.9-0.2,1.2-0.5
		c0.3-0.3,0.5-0.7,0.6-1.2h2.2c-0.1,1.1-0.6,1.9-1.3,2.5c-0.7,0.6-1.6,0.9-2.7,0.9c-0.6,0-1.2-0.1-1.7-0.3s-0.9-0.4-1.3-0.8
		S59.2,9.8,59,9.3s-0.3-1.1-0.3-1.7s0.1-1.2,0.3-1.8c0.2-0.5,0.5-1,0.8-1.4s0.8-0.7,1.3-0.9s1.1-0.3,1.8-0.3c0.5,0,1,0.1,1.4,0.2
		s0.8,0.3,1.2,0.6c0.4,0.3,0.6,0.6,0.9,1c0.2,0.4,0.4,0.8,0.4,1.4h-2.3V6.2z"/>
	<path class="st0" d="M68.1,7.5c0-0.7,0.1-1.3,0.3-1.8c0.2-0.5,0.5-1,0.9-1.4c0.4-0.4,0.8-0.7,1.3-0.9s1.1-0.3,1.7-0.3
		c0.6,0,1.2,0.1,1.8,0.3s1,0.5,1.3,0.9c0.4,0.4,0.7,0.8,0.9,1.4c0.2,0.6,0.3,1.1,0.3,1.8s-0.1,1.2-0.3,1.8c-0.2,0.6-0.5,1-0.9,1.4
		c-0.4,0.4-0.8,0.7-1.3,0.9s-1.1,0.3-1.8,0.3c-0.6,0-1.2-0.1-1.7-0.3s-1-0.5-1.3-0.9c-0.4-0.4-0.7-0.8-0.9-1.4
		C68.2,8.7,68.1,8.1,68.1,7.5z M70.4,7.5c0,0.3,0,0.6,0.1,1c0.1,0.3,0.2,0.6,0.3,0.8c0.2,0.2,0.4,0.4,0.6,0.6c0.3,0.1,0.6,0.2,1,0.2
		s0.7-0.1,1-0.2c0.3-0.1,0.5-0.3,0.6-0.6c0.1-0.3,0.2-0.6,0.2-0.9c0.1-0.3,0.1-0.6,0.1-1c0-0.3,0-0.7-0.1-1S74,5.8,73.9,5.6
		c-0.1-0.2-0.4-0.4-0.6-0.6c-0.3-0.2-0.6-0.2-1-0.2c-0.4,0-0.7,0.1-1,0.2c-0.3,0.1-0.5,0.4-0.6,0.6c-0.2,0.2-0.3,0.5-0.3,0.8
		S70.4,7.1,70.4,7.5z"/>
	<path class="st1" d="M83.9,8.9c0.1,0.4,0.3,0.7,0.5,1s0.5,0.6,0.8,0.8s0.7,0.3,1.2,0.3c0.7,0,1.3-0.2,1.7-0.6s0.7-0.9,0.9-1.5h1
		c-0.2,0.9-0.6,1.6-1.2,2.2c-0.6,0.5-1.4,0.8-2.4,0.8c-0.6,0-1.2-0.1-1.7-0.3s-0.9-0.5-1.2-0.9S83,9.8,82.8,9.3
		c-0.1-0.5-0.2-1.1-0.2-1.7c0-0.5,0.1-1.1,0.2-1.6s0.4-1,0.7-1.4s0.7-0.7,1.2-1c0.5-0.2,1-0.4,1.7-0.4s1.2,0.1,1.7,0.4
		s0.8,0.6,1.1,1C89.6,5,89.8,5.5,89.9,6c0.1,0.6,0.2,1.1,0.2,1.7h-6.3C83.8,8.1,83.8,8.5,83.9,8.9z M88.9,5.8
		c-0.1-0.3-0.3-0.7-0.5-0.9c-0.2-0.3-0.5-0.5-0.8-0.7C87.2,4.1,86.9,4,86.5,4c-0.4,0-0.8,0.1-1.1,0.2c-0.3,0.2-0.6,0.4-0.8,0.7
		c-0.2,0.3-0.4,0.6-0.5,0.9c-0.1,0.4-0.2,0.7-0.3,1.1h5.3C89.1,6.5,89,6.2,88.9,5.8z"/>
	<path class="st1" d="M96.5,5c-0.1-0.2-0.3-0.4-0.5-0.6c-0.2-0.1-0.4-0.3-0.7-0.3C95.1,4,94.8,4,94.5,4c-0.2,0-0.4,0-0.7,0.1
		s-0.4,0.1-0.6,0.2c-0.2,0.1-0.3,0.3-0.5,0.4c-0.1,0.2-0.2,0.4-0.2,0.7c0,0.2,0.1,0.4,0.2,0.6s0.3,0.3,0.4,0.4s0.4,0.2,0.6,0.3
		s0.4,0.1,0.6,0.2l1.3,0.3c0.3,0,0.6,0.1,0.8,0.2c0.3,0.1,0.5,0.3,0.7,0.4s0.4,0.4,0.5,0.7s0.2,0.6,0.2,0.9c0,0.4-0.1,0.8-0.3,1.1
		c-0.2,0.3-0.5,0.6-0.8,0.8s-0.7,0.3-1.1,0.4c-0.4,0.1-0.8,0.1-1.2,0.1c-1,0-1.7-0.2-2.3-0.7c-0.6-0.5-0.9-1.2-1-2.2h1
		c0,0.7,0.3,1.2,0.7,1.5c0.4,0.3,1,0.5,1.7,0.5c0.2,0,0.5,0,0.8-0.1s0.5-0.1,0.7-0.3c0.2-0.1,0.4-0.3,0.5-0.5s0.2-0.4,0.2-0.7
		c0-0.2,0-0.4-0.2-0.6s-0.2-0.3-0.4-0.4c-0.2-0.1-0.4-0.2-0.6-0.3c0.1,0-0.1,0-0.4-0.1l-1.3-0.3c-0.3-0.1-0.6-0.2-0.9-0.3
		c-0.3-0.1-0.5-0.2-0.7-0.4s-0.4-0.4-0.5-0.6s-0.2-0.5-0.2-0.9s0.1-0.8,0.3-1.1C92,4,92.2,3.8,92.5,3.6s0.6-0.3,1-0.4
		c0.4-0.1,0.7-0.1,1.1-0.1s0.8,0.1,1.2,0.2c0.4,0.1,0.7,0.3,0.9,0.5C97,4,97.2,4.3,97.4,4.6c0.2,0.3,0.2,0.7,0.3,1.2h-1
		C96.6,5.5,96.6,5.2,96.5,5z"/>
	<path class="st1" d="M110.1,11.6v-1.5l0,0c-0.3,0.5-0.6,1-1.2,1.3c-0.5,0.3-1.1,0.4-1.7,0.4c-0.5,0-1-0.1-1.3-0.2
		c-0.4-0.1-0.7-0.3-0.9-0.6s-0.4-0.6-0.5-1s-0.2-0.8-0.2-1.3V3.4h1v5.3c0,0.7,0.2,1.3,0.5,1.7s0.9,0.6,1.7,0.6
		c0.4,0,0.8-0.1,1.1-0.3c0.3-0.2,0.6-0.4,0.8-0.7c0.2-0.3,0.3-0.7,0.4-1.1c0.1-0.4,0.1-0.8,0.1-1.2V3.4h1v8.2H110.1z"/>
	<path class="st1" d="M114.2,3.4v1.4l0,0c0.2-0.5,0.5-0.9,1-1.2s1-0.5,1.6-0.5s1,0.1,1.4,0.2c0.4,0.1,0.7,0.4,0.9,0.6s0.4,0.6,0.5,1
		s0.1,0.8,0.1,1.3v5.3h-1v-5c0-0.3,0-0.7-0.1-1s-0.2-0.6-0.3-0.8c-0.2-0.2-0.4-0.4-0.6-0.5C117.5,4,117.2,4,116.8,4
		s-0.8,0.1-1.1,0.2s-0.5,0.3-0.8,0.6c-0.2,0.2-0.4,0.5-0.5,0.9c-0.1,0.3-0.2,0.7-0.2,1.1v4.8h-1V3.4H114.2z"/>
	<path class="st0" d="M129.6,3.4h1.6v1.5h-1.6V9c0,0.4,0.1,0.6,0.2,0.8c0.1,0.2,0.4,0.2,0.8,0.2c0.3,0,0.5,0,0.7-0.1v1.8
		c-0.2,0-0.4,0.1-0.6,0.1s-0.5,0-0.7,0c-0.3,0-0.7,0-1-0.1c-0.3,0-0.6-0.1-0.8-0.3c-0.2-0.1-0.4-0.3-0.6-0.6s-0.2-0.6-0.2-1V4.9H126
		V3.4h1.4V0.9h2.3v2.5H129.6z"/>
	<path class="st0" d="M132.6,3.4h2.1v1.5l0,0c0.1-0.3,0.2-0.5,0.4-0.7c0.2-0.2,0.4-0.4,0.6-0.6s0.5-0.3,0.8-0.4
		c0.3-0.1,0.5-0.1,0.8-0.1c0.2,0,0.3,0,0.5,0.1v2.1c-0.1,0-0.2,0-0.4-0.1c-0.1,0-0.3,0-0.4,0c-0.4,0-0.8,0.1-1,0.2
		c-0.3,0.1-0.5,0.3-0.7,0.6c-0.2,0.2-0.3,0.5-0.4,0.8c-0.1,0.3-0.1,0.7-0.1,1v3.7h-2.3V3.4H132.6z"/>
	<path class="st0" d="M139,5.9c0-0.5,0.2-1,0.4-1.3c0.2-0.3,0.5-0.6,0.9-0.8s0.8-0.4,1.2-0.5s0.9-0.1,1.4-0.1c0.4,0,0.8,0,1.3,0.1
		c0.4,0.1,0.8,0.2,1.2,0.3c0.3,0.2,0.6,0.4,0.9,0.7c0.2,0.3,0.3,0.7,0.3,1.2v4.3c0,0.4,0,0.7,0.1,1.1c0,0.3,0.1,0.6,0.2,0.8h-2.3
		c0-0.1-0.1-0.3-0.1-0.4c0-0.1,0-0.3-0.1-0.4c-0.4,0.4-0.8,0.6-1.3,0.8s-1,0.2-1.5,0.2c-0.4,0-0.8,0-1.1-0.2
		c-0.3-0.1-0.6-0.3-0.9-0.5s-0.5-0.5-0.6-0.8c-0.1-0.3-0.2-0.7-0.2-1.1c0-0.5,0.1-0.8,0.2-1.1c0.2-0.3,0.4-0.5,0.6-0.7
		c0.3-0.2,0.6-0.3,0.9-0.4c0.3-0.1,0.7-0.2,1-0.2c0.3-0.1,0.7-0.1,1-0.1c0.3,0,0.6-0.1,0.8-0.1c0.2,0,0.4-0.2,0.6-0.3
		c0.1-0.1,0.2-0.3,0.2-0.5s0-0.4-0.1-0.6c-0.1-0.1-0.2-0.3-0.3-0.3c-0.1-0.1-0.3-0.1-0.5-0.2c-0.2,0-0.4,0-0.6,0
		c-0.4,0-0.8,0.1-1,0.3c-0.3,0.2-0.4,0.5-0.5,1H139V5.9z M144.2,7.5c-0.1,0.1-0.2,0.2-0.4,0.2c-0.2,0-0.3,0.1-0.5,0.1
		c-0.2,0-0.3,0.1-0.5,0.1c-0.2,0-0.4,0-0.5,0.1c-0.2,0-0.3,0.1-0.5,0.1c-0.2,0.1-0.3,0.1-0.4,0.2c-0.1,0.1-0.2,0.2-0.3,0.3
		C141,8.7,141,8.9,141,9.1s0,0.4,0.1,0.5s0.2,0.2,0.3,0.3s0.3,0.1,0.4,0.2c0.2,0,0.3,0,0.5,0c0.4,0,0.8-0.1,1-0.2
		c0.2-0.1,0.4-0.3,0.5-0.5c0.1-0.2,0.2-0.4,0.2-0.6c0-0.2,0-0.4,0-0.5V7.5H144.2z"/>
	<path class="st0" d="M151.4,3.4h1.6v1.5h-1.6V9c0,0.4,0.1,0.6,0.2,0.8s0.4,0.2,0.8,0.2c0.3,0,0.5,0,0.7-0.1v1.8
		c-0.2,0-0.4,0.1-0.6,0.1c-0.2,0-0.5,0-0.7,0c-0.3,0-0.7,0-1-0.1c-0.3,0-0.6-0.1-0.8-0.3c-0.2-0.1-0.4-0.3-0.6-0.6s-0.2-0.6-0.2-1
		V4.9h-1.4V3.4h1.4V0.9h2.3L151.4,3.4L151.4,3.4z"/>
	<path class="st0" d="M154.3,5.9c0-0.5,0.2-1,0.4-1.3c0.2-0.3,0.5-0.6,0.9-0.8s0.8-0.4,1.2-0.5s0.9-0.1,1.4-0.1c0.4,0,0.8,0,1.3,0.1
		c0.4,0.1,0.8,0.2,1.2,0.3c0.3,0.2,0.6,0.4,0.9,0.7c0.2,0.3,0.3,0.7,0.3,1.2v4.3c0,0.4,0,0.7,0.1,1.1c0,0.3,0.1,0.6,0.2,0.8h-2.3
		c0-0.1-0.1-0.3-0.1-0.4c0-0.1,0-0.3-0.1-0.4c-0.4,0.4-0.8,0.6-1.3,0.8s-1,0.2-1.5,0.2c-0.4,0-0.8,0-1.1-0.2
		c-0.3-0.1-0.6-0.3-0.9-0.5c-0.3-0.2-0.5-0.5-0.6-0.8s-0.2-0.7-0.2-1.1c0-0.5,0.1-0.8,0.2-1.1c0.2-0.3,0.4-0.5,0.6-0.7
		c0.3-0.2,0.6-0.3,0.9-0.4c0.3-0.1,0.7-0.2,1-0.2c0.3-0.1,0.7-0.1,1-0.1s0.6-0.1,0.8-0.1s0.4-0.2,0.6-0.3c0.1-0.1,0.2-0.3,0.2-0.5
		s0-0.4-0.1-0.6C159.2,5.2,159.1,5,159,5c-0.1-0.1-0.3-0.1-0.5-0.2c-0.2,0-0.4,0-0.6,0c-0.4,0-0.8,0.1-1,0.3c-0.3,0.2-0.4,0.5-0.5,1
		h-2.1V5.9z M159.5,7.5c-0.1,0.1-0.2,0.2-0.4,0.2s-0.3,0.1-0.5,0.1s-0.3,0.1-0.5,0.1s-0.4,0-0.5,0.1c-0.2,0-0.3,0.1-0.5,0.1
		c-0.2,0.1-0.3,0.1-0.4,0.2c-0.1,0.1-0.2,0.2-0.3,0.3s-0.1,0.3-0.1,0.5s0,0.4,0.1,0.5s0.2,0.2,0.3,0.3s0.3,0.1,0.4,0.2
		c0.2,0,0.3,0,0.5,0c0.4,0,0.8-0.1,1-0.2c0.2-0.1,0.4-0.3,0.5-0.5s0.2-0.4,0.2-0.6c0-0.2,0-0.4,0-0.5V7.5H159.5z"/>
	<path class="st0" d="M163.9,3.4h2.1v1.1l0,0c0.3-0.4,0.7-0.8,1.1-1c0.4-0.2,0.9-0.3,1.4-0.3s1,0.1,1.4,0.3s0.8,0.6,1,1.1
		c0.2-0.4,0.6-0.7,1-1s0.9-0.4,1.5-0.4c0.4,0,0.8,0.1,1.2,0.2s0.7,0.3,1,0.5s0.5,0.5,0.6,0.9s0.2,0.8,0.2,1.4v5.5h-2.2V6.9
		c0-0.3,0-0.5,0-0.8s-0.1-0.5-0.2-0.6c-0.1-0.2-0.2-0.3-0.4-0.4s-0.4-0.2-0.8-0.2S172.2,5,172,5.1s-0.3,0.3-0.5,0.5
		c-0.1,0.2-0.2,0.4-0.2,0.7c0,0.2-0.1,0.5-0.1,0.8v4.6h-2.3V7c0-0.2,0-0.5,0-0.7s-0.1-0.5-0.1-0.7c-0.1-0.2-0.2-0.4-0.4-0.5
		s-0.5-0.2-0.8-0.2c-0.1,0-0.3,0-0.4,0.1c-0.2,0-0.3,0.1-0.5,0.3c-0.2,0.1-0.3,0.3-0.4,0.6c-0.1,0.2-0.2,0.6-0.2,1v4.8h-2.3
		L163.9,3.4L163.9,3.4z"/>
	<path class="st0" d="M180.8,2.1h-2.3V0.2h2.3V2.1z M178.6,3.4h2.3v8.2h-2.3V3.4z"/>
	<path class="st0" d="M184.8,8c0,0.7,0.2,1.2,0.6,1.6c0.3,0.3,0.8,0.5,1.5,0.5c0.5,0,0.8-0.1,1.2-0.3c0.3-0.2,0.5-0.5,0.6-0.7h2
		c-0.3,1-0.8,1.7-1.5,2.1c-0.7,0.4-1.4,0.6-2.4,0.6c-0.6,0-1.2-0.1-1.7-0.3s-1-0.5-1.3-0.9s-0.6-0.8-0.8-1.4
		c-0.2-0.5-0.3-1.1-0.3-1.7s0.1-1.2,0.3-1.7s0.5-1,0.9-1.4s0.8-0.7,1.3-0.9s1.1-0.3,1.7-0.3c0.7,0,1.3,0.1,1.8,0.4s0.9,0.6,1.3,1.1
		c0.3,0.5,0.6,1,0.7,1.6c0.1,0.6,0.2,1.2,0.2,1.8h-6.1V8z M188.5,6.6c-0.1-0.6-0.3-1-0.6-1.3s-0.7-0.4-1.2-0.4
		c-0.4,0-0.7,0.1-0.9,0.2s-0.4,0.3-0.6,0.5S185,6,184.9,6.2s-0.1,0.4-0.1,0.5L188.5,6.6L188.5,6.6z"/>
	<path class="st0" d="M192.4,3.4h2.1v1.1l0,0c0.3-0.5,0.7-0.8,1.1-1c0.5-0.2,0.9-0.3,1.4-0.3c0.6,0,1.1,0.1,1.5,0.2
		c0.4,0.2,0.7,0.4,0.9,0.7c0.2,0.3,0.4,0.6,0.5,1.1c0.1,0.4,0.1,0.9,0.1,1.4v5h-2.3V6.9c0-0.7-0.1-1.2-0.3-1.5
		c-0.2-0.3-0.6-0.5-1.1-0.5c-0.6,0-1.1,0.2-1.3,0.5c-0.3,0.4-0.4,1-0.4,1.8v4.3h-2.3V3.4H192.4z"/>
	<path class="st0" d="M204.9,3.4h1.6v1.5h-1.6V9c0,0.4,0.1,0.6,0.2,0.8s0.4,0.2,0.8,0.2c0.3,0,0.5,0,0.7-0.1v1.8
		c-0.2,0-0.4,0.1-0.6,0.1c-0.2,0-0.5,0-0.7,0c-0.3,0-0.7,0-1-0.1c-0.3,0-0.6-0.1-0.8-0.3c-0.2-0.1-0.4-0.3-0.6-0.6s-0.2-0.6-0.2-1
		V4.9h-1.4V3.4h1.4V0.9h2.3L204.9,3.4L204.9,3.4z"/>
	<path class="st0" d="M207.7,7.5c0-0.7,0.1-1.3,0.3-1.8s0.5-1,0.9-1.4s0.8-0.7,1.3-0.9s1.1-0.3,1.7-0.3c0.6,0,1.2,0.1,1.8,0.3
		s1,0.5,1.3,0.9c0.4,0.4,0.7,0.8,0.9,1.4s0.3,1.1,0.3,1.8s-0.1,1.2-0.3,1.8s-0.5,1-0.9,1.4s-0.8,0.7-1.3,0.9s-1.1,0.3-1.8,0.3
		c-0.6,0-1.2-0.1-1.7-0.3s-1-0.5-1.3-0.9c-0.4-0.4-0.7-0.8-0.9-1.4C207.8,8.7,207.7,8.1,207.7,7.5z M210,7.5c0,0.3,0,0.6,0.1,1
		c0.1,0.3,0.2,0.6,0.3,0.8c0.2,0.2,0.4,0.4,0.6,0.6c0.3,0.1,0.6,0.2,1,0.2s0.7-0.1,1-0.2c0.3-0.1,0.5-0.3,0.6-0.6
		c0.2-0.2,0.3-0.5,0.3-0.8c0.1-0.3,0.1-0.6,0.1-1c0-0.3,0-0.7-0.1-1s-0.2-0.6-0.3-0.8s-0.4-0.4-0.6-0.6c-0.3-0.2-0.6-0.2-1-0.2
		s-0.7,0.1-1,0.2s-0.5,0.4-0.6,0.6c-0.2,0.2-0.3,0.5-0.3,0.8S210,7.1,210,7.5z"/>
	<path class="st0" d="M223.2,4.9h-1.3V3.4h1.3V2.7c0-0.4,0.1-0.7,0.2-1s0.3-0.6,0.5-0.8s0.5-0.4,0.9-0.5c0.3-0.1,0.7-0.2,1.2-0.2
		c0.2,0,0.4,0,0.6,0c0.2,0,0.4,0,0.6,0V2c-0.3,0-0.5,0-0.8,0s-0.5,0.1-0.7,0.2c-0.1,0.1-0.2,0.4-0.2,0.7v0.5h1.6v1.5h-1.6v6.7h-2.3
		V4.9z"/>
	<path class="st0" d="M228.2,5.9c0-0.5,0.2-1,0.4-1.3c0.2-0.3,0.5-0.6,0.9-0.8s0.8-0.4,1.2-0.5s0.9-0.1,1.4-0.1c0.4,0,0.8,0,1.3,0.1
		c0.4,0.1,0.8,0.2,1.2,0.3c0.3,0.2,0.6,0.4,0.9,0.7c0.2,0.3,0.3,0.7,0.3,1.2v4.3c0,0.4,0,0.7,0.1,1.1c0,0.3,0.1,0.6,0.2,0.8h-2.3
		c0-0.1-0.1-0.3-0.1-0.4c0-0.1,0-0.3-0.1-0.4c-0.4,0.4-0.8,0.6-1.3,0.8s-1,0.2-1.5,0.2c-0.4,0-0.8,0-1.1-0.2
		c-0.3-0.1-0.6-0.3-0.9-0.5c-0.3-0.2-0.5-0.5-0.6-0.8S228,9.7,228,9.3c0-0.5,0.1-0.8,0.2-1.1c0.2-0.3,0.4-0.5,0.6-0.7
		c0.3-0.2,0.6-0.3,0.9-0.4c0.3-0.1,0.7-0.2,1-0.2c0.3-0.1,0.7-0.1,1-0.1s0.6-0.1,0.8-0.1s0.4-0.2,0.6-0.3c0.1-0.1,0.2-0.3,0.2-0.5
		s0-0.4-0.1-0.6C233.1,5.2,233,5,232.9,5c-0.1-0.1-0.3-0.1-0.5-0.2c-0.2,0-0.4,0-0.6,0c-0.4,0-0.8,0.1-1,0.3c-0.3,0.2-0.4,0.5-0.5,1
		h-2.1V5.9z M233.4,7.5c-0.1,0.1-0.2,0.2-0.4,0.2s-0.3,0.1-0.5,0.1s-0.3,0.1-0.5,0.1s-0.4,0-0.5,0.1c-0.2,0-0.3,0.1-0.5,0.1
		c-0.2,0.1-0.3,0.1-0.4,0.2c-0.1,0.1-0.2,0.2-0.3,0.3c-0.1,0.3-0.1,0.4-0.1,0.6s0,0.4,0.1,0.5s0.2,0.2,0.3,0.3s0.3,0.1,0.4,0.2
		c0.2,0,0.3,0,0.5,0c0.4,0,0.8-0.1,1-0.2c0.2-0.1,0.4-0.3,0.5-0.5s0.2-0.4,0.2-0.6c0-0.2,0-0.4,0-0.5V7.5H233.4z"/>
	<path class="st0" d="M237.7,3.4h2.1v1.5l0,0c0.1-0.3,0.2-0.5,0.4-0.7s0.4-0.4,0.6-0.6s0.5-0.3,0.8-0.4c0.3-0.1,0.5-0.1,0.8-0.1
		c0.2,0,0.3,0,0.5,0.1v2.1c-0.1,0-0.2,0-0.4-0.1c-0.1,0-0.3,0-0.4,0c-0.4,0-0.8,0.1-1,0.2c-0.3,0.1-0.5,0.3-0.7,0.6
		c-0.2,0.2-0.3,0.5-0.4,0.8c-0.1,0.3-0.1,0.7-0.1,1v3.7h-2.3L237.7,3.4L237.7,3.4z"/>
	<path class="st0" d="M244.3,3.4h2.1v1.1l0,0c0.3-0.4,0.7-0.8,1.1-1c0.4-0.2,0.9-0.3,1.4-0.3s1,0.1,1.4,0.3s0.8,0.6,1,1.1
		c0.2-0.4,0.6-0.7,1-1s0.9-0.4,1.5-0.4c0.4,0,0.8,0.1,1.2,0.2s0.7,0.3,1,0.5c0.3,0.2,0.5,0.5,0.6,0.9s0.2,0.8,0.2,1.4v5.5h-2.3V6.9
		c0-0.3,0-0.5,0-0.8s-0.1-0.5-0.2-0.6c-0.1-0.2-0.2-0.3-0.4-0.4s-0.4-0.2-0.8-0.2s-0.6,0.1-0.8,0.2s-0.3,0.3-0.5,0.5
		c-0.1,0.2-0.2,0.4-0.2,0.7c0,0.2-0.1,0.5-0.1,0.8v4.6h-2.3V7c0-0.2,0-0.5,0-0.7s-0.1-0.5-0.1-0.7c-0.1-0.2-0.2-0.4-0.4-0.5
		s-0.5-0.2-0.8-0.2c-0.1,0-0.3,0-0.4,0.1c-0.2,0-0.3,0.1-0.5,0.3c-0.2,0.1-0.3,0.3-0.4,0.6c-0.1,0.2-0.2,0.6-0.2,1v4.8h-2.3V3.4
		H244.3z"/>
	<path class="st0" d="M258.8,5.9c0-0.5,0.2-1,0.4-1.3c0.2-0.3,0.5-0.6,0.9-0.8c0.4-0.2,0.8-0.4,1.2-0.5s0.9-0.1,1.4-0.1
		c0.4,0,0.8,0,1.3,0.1c0.4,0.1,0.8,0.2,1.2,0.3c0.3,0.2,0.6,0.4,0.9,0.7c0.2,0.3,0.3,0.7,0.3,1.2v4.3c0,0.4,0,0.7,0.1,1.1
		c0,0.3,0.1,0.6,0.2,0.8h-2.3c0-0.1-0.1-0.3-0.1-0.4c0-0.1,0-0.3-0.1-0.4c-0.4,0.4-0.8,0.6-1.3,0.8s-1,0.2-1.5,0.2
		c-0.4,0-0.8,0-1.1-0.2c-0.3-0.1-0.6-0.3-0.9-0.5c-0.3-0.2-0.5-0.5-0.6-0.8s-0.2-0.7-0.2-1.1c0-0.5,0.1-0.8,0.2-1.1
		c0.2-0.3,0.4-0.5,0.6-0.7c0.3-0.2,0.6-0.3,0.9-0.4s0.7-0.2,1-0.2c0.3-0.1,0.7-0.1,1-0.1s0.6-0.1,0.8-0.1c0.2,0,0.4-0.2,0.6-0.3
		c0.1-0.1,0.2-0.3,0.2-0.5s0-0.4-0.1-0.6c-0.1-0.1-0.2-0.3-0.3-0.3c-0.1-0.1-0.3-0.1-0.5-0.2c-0.2,0-0.4,0-0.6,0
		c-0.4,0-0.8,0.1-1,0.3c-0.3,0.2-0.4,0.5-0.5,1h-2.1V5.9z M264,7.5c-0.1,0.1-0.2,0.2-0.4,0.2s-0.3,0.1-0.5,0.1s-0.3,0.1-0.5,0.1
		s-0.4,0-0.5,0.1c-0.2,0-0.3,0.1-0.5,0.1c-0.2,0.1-0.3,0.1-0.4,0.2c-0.1,0.1-0.2,0.2-0.3,0.3c-0.1,0.1-0.1,0.3-0.1,0.5
		s0,0.4,0.1,0.5c0.1,0.1,0.2,0.2,0.3,0.3s0.3,0.1,0.4,0.2c0.2,0,0.3,0,0.5,0c0.4,0,0.8-0.1,1-0.2c0.2-0.1,0.4-0.3,0.5-0.5
		s0.2-0.4,0.2-0.6c0-0.2,0-0.4,0-0.5V7.5H264z"/>
	<path class="st0" d="M273.9,6.2c-0.1-0.9-0.7-1.4-1.7-1.4c-0.4,0-0.7,0.1-0.9,0.2c-0.2,0.2-0.4,0.4-0.6,0.6
		c-0.2,0.3-0.3,0.5-0.3,0.9c-0.1,0.3-0.1,0.6-0.1,0.9s0,0.6,0.1,0.9c0.1,0.3,0.2,0.6,0.3,0.8c0.1,0.2,0.3,0.5,0.6,0.6
		c0.3,0.1,0.5,0.2,0.9,0.2c0.5,0,0.9-0.2,1.2-0.5s0.5-0.7,0.6-1.2h2.2c-0.1,1.1-0.6,1.9-1.3,2.5s-1.6,0.9-2.7,0.9
		c-0.6,0-1.2-0.1-1.7-0.3s-0.9-0.5-1.3-0.9s-0.6-0.8-0.8-1.3c-0.2-0.5-0.3-1.1-0.3-1.7s0.1-1.2,0.3-1.8c0.2-0.5,0.5-1,0.8-1.4
		s0.8-0.7,1.3-0.9s1.1-0.3,1.8-0.3c0.5,0,1,0.1,1.4,0.2s0.8,0.3,1.2,0.6c0.4,0.3,0.6,0.6,0.9,1c0.2,0.4,0.4,0.8,0.4,1.4
		C276.2,6.2,273.9,6.2,273.9,6.2z"/>
	<path class="st0" d="M277.5,7.5c0-0.7,0.1-1.3,0.3-1.8c0.2-0.5,0.5-1,0.9-1.4c0.4-0.4,0.8-0.7,1.3-0.9s1.1-0.3,1.7-0.3
		c0.6,0,1.2,0.1,1.8,0.3s1,0.5,1.3,0.9c0.4,0.4,0.7,0.8,0.9,1.4c0.2,0.6,0.3,1.1,0.3,1.8s-0.1,1.2-0.3,1.8c-0.2,0.6-0.5,1-0.9,1.4
		c-0.4,0.4-0.8,0.7-1.3,0.9s-1.1,0.3-1.8,0.3c-0.6,0-1.2-0.1-1.7-0.3s-1-0.5-1.3-0.9c-0.4-0.4-0.7-0.8-0.9-1.4
		C277.6,8.7,277.5,8.1,277.5,7.5z M279.7,7.5c0,0.3,0,0.6,0.1,1c0.1,0.3,0.2,0.6,0.3,0.8c0.2,0.2,0.4,0.4,0.6,0.6
		c0.3,0.1,0.6,0.2,1,0.2c0.4,0,0.7-0.1,1-0.2c0.3-0.1,0.5-0.3,0.6-0.6c0.2-0.2,0.3-0.5,0.3-0.8c0.1-0.3,0.1-0.6,0.1-1
		c0-0.3,0-0.7-0.1-1c-0.1-0.3-0.2-0.6-0.3-0.8s-0.4-0.4-0.6-0.6c-0.3-0.2-0.6-0.2-1-0.2c-0.4,0-0.7,0.1-1,0.2s-0.5,0.4-0.6,0.6
		c-0.2,0.2-0.3,0.5-0.3,0.8S279.7,7.1,279.7,7.5z"/>
	<path class="st0" d="M287.8,0.2h2.3v11.3h-2.3V0.2z"/>
	<path class="st0" d="M291.9,7.5c0-0.7,0.1-1.3,0.3-1.8c0.2-0.5,0.5-1,0.9-1.4c0.4-0.4,0.8-0.7,1.3-0.9s1.1-0.3,1.7-0.3
		c0.6,0,1.2,0.1,1.8,0.3s1,0.5,1.3,0.9c0.4,0.4,0.7,0.8,0.9,1.4c0.2,0.6,0.3,1.1,0.3,1.8s-0.1,1.2-0.3,1.8c-0.2,0.6-0.5,1-0.9,1.4
		c-0.4,0.4-0.8,0.7-1.3,0.9s-1.1,0.3-1.8,0.3c-0.6,0-1.2-0.1-1.7-0.3s-1-0.5-1.3-0.9c-0.4-0.4-0.7-0.8-0.9-1.4
		C292,8.7,291.9,8.1,291.9,7.5z M294.2,7.5c0,0.3,0,0.6,0.1,1c0.1,0.3,0.2,0.6,0.3,0.8c0.2,0.2,0.4,0.4,0.6,0.6
		c0.3,0.1,0.6,0.2,1,0.2c0.4,0,0.7-0.1,1-0.2c0.3-0.1,0.5-0.3,0.6-0.6c0.2-0.2,0.3-0.5,0.3-0.8c0.1-0.3,0.1-0.6,0.1-1
		c0-0.3,0-0.7-0.1-1c-0.1-0.3-0.2-0.6-0.3-0.8s-0.4-0.4-0.6-0.6c-0.3-0.2-0.6-0.2-1-0.2c-0.4,0-0.7,0.1-1,0.2s-0.5,0.4-0.6,0.6
		c-0.2,0.2-0.3,0.5-0.3,0.8S294.2,7.1,294.2,7.5z M296.5,2.3h-1.6l1.5-2.3h2.5L296.5,2.3z"/>
	<path class="st0" d="M310,11c0,0.2,0,0.5-0.1,0.7c0,0.3-0.1,0.5-0.2,0.8c-0.1,0.3-0.3,0.5-0.4,0.8c-0.2,0.2-0.4,0.5-0.8,0.7
		c-0.3,0.2-0.7,0.4-1.2,0.5s-1,0.2-1.6,0.2c-0.4,0-0.8,0-1.2-0.2c-0.4-0.1-0.8-0.3-1.1-0.5c-0.3-0.2-0.6-0.5-0.9-0.8
		s-0.3-0.7-0.3-1.2h2.2c0.1,0.4,0.3,0.7,0.6,0.9c0.3,0.2,0.7,0.2,1.1,0.2c0.6,0,1.1-0.2,1.4-0.6c0.3-0.4,0.4-0.9,0.4-1.5V9.9l0,0
		c-0.2,0.4-0.6,0.8-1,1c-0.5,0.2-0.9,0.3-1.4,0.3c-0.6,0-1.1-0.1-1.6-0.3c-0.4-0.2-0.8-0.5-1.1-0.9s-0.5-0.8-0.6-1.3
		c-0.1-0.5-0.2-1-0.2-1.6c0-0.5,0.1-1,0.2-1.5c0.2-0.5,0.4-0.9,0.7-1.3c0.3-0.4,0.7-0.7,1.1-0.9c0.4-0.2,0.9-0.3,1.5-0.3
		c0.5,0,1,0.1,1.4,0.3c0.4,0.2,0.7,0.5,1,1l0,0v-1h2.1L310,11L310,11z M306,9.6c0.3,0,0.6-0.1,0.8-0.2c0.2-0.1,0.4-0.3,0.6-0.5
		s0.3-0.5,0.4-0.7c0.1-0.2,0.1-0.6,0.1-0.8c0-0.3,0-0.6-0.1-1c-0.1-0.4-0.2-0.6-0.3-0.8c-0.1-0.2-0.3-0.4-0.6-0.6
		c-0.2-0.1-0.6-0.2-0.9-0.2s-0.6,0.1-0.8,0.2s-0.4,0.3-0.6,0.5s-0.3,0.5-0.3,0.7c-0.1,0.4-0.1,0.7-0.1,1c0,0.3,0,0.6,0.1,0.9
		c0.1,0.3,0.2,0.6,0.3,0.8s0.3,0.4,0.6,0.6C305.3,9.6,305.6,9.6,306,9.6z"/>
	<path class="st0" d="M314.5,2.1h-2.3V0.2h2.3V2.1z M312.2,3.4h2.3v8.2h-2.3V3.4z"/>
	<path class="st0" d="M322.2,6.2c-0.1-0.9-0.7-1.4-1.7-1.4c-0.4,0-0.7,0.1-0.9,0.2c-0.2,0.2-0.4,0.4-0.6,0.6
		c-0.2,0.3-0.3,0.5-0.3,0.9c-0.1,0.3-0.1,0.6-0.1,0.9s0,0.6,0.1,0.9c0.1,0.3,0.2,0.6,0.3,0.8c0.1,0.2,0.3,0.5,0.6,0.6
		c0.3,0.1,0.5,0.2,0.9,0.2c0.5,0,0.9-0.2,1.2-0.5s0.5-0.7,0.6-1.2h2.2c-0.1,1.1-0.6,1.9-1.3,2.5c-0.7,0.6-1.6,0.9-2.7,0.9
		c-0.6,0-1.2-0.1-1.7-0.3s-0.9-0.5-1.3-0.9c-0.4-0.4-0.6-0.8-0.8-1.3c-0.2-0.5-0.3-1.1-0.3-1.7s0.1-1.2,0.3-1.8
		c0.2-0.5,0.5-1,0.8-1.4s0.8-0.7,1.3-0.9s1.1-0.3,1.8-0.3c0.5,0,1,0.1,1.4,0.2c0.4,0.1,0.8,0.3,1.2,0.6s0.6,0.6,0.9,1
		c0.2,0.4,0.4,0.8,0.4,1.4C324.5,6.2,322.2,6.2,322.2,6.2z"/>
	<path class="st0" d="M325.7,7.5c0-0.7,0.1-1.3,0.3-1.8c0.2-0.5,0.5-1,0.9-1.4c0.4-0.4,0.8-0.7,1.3-0.9s1.1-0.3,1.7-0.3
		c0.6,0,1.2,0.1,1.8,0.3s1,0.5,1.3,0.9c0.4,0.4,0.7,0.8,0.9,1.4c0.2,0.6,0.3,1.1,0.3,1.8s-0.1,1.2-0.3,1.8c-0.2,0.6-0.5,1-0.9,1.4
		c-0.4,0.4-0.8,0.7-1.3,0.9s-1.1,0.3-1.8,0.3c-0.6,0-1.2-0.1-1.7-0.3s-1-0.5-1.3-0.9c-0.4-0.4-0.7-0.8-0.9-1.4
		C325.9,8.7,325.7,8.1,325.7,7.5z M328,7.5c0,0.3,0,0.6,0.1,1c0.1,0.3,0.2,0.6,0.3,0.8c0.2,0.2,0.4,0.4,0.6,0.6
		c0.3,0.1,0.6,0.2,1,0.2c0.4,0,0.7-0.1,1-0.2c0.3-0.1,0.5-0.3,0.6-0.6c0.2-0.2,0.3-0.5,0.3-0.8c0.1-0.3,0.1-0.6,0.1-1
		c0-0.3,0-0.7-0.1-1c-0.1-0.3-0.2-0.6-0.3-0.8s-0.4-0.4-0.6-0.6c-0.3-0.2-0.6-0.2-1-0.2c-0.4,0-0.7,0.1-1,0.2s-0.5,0.4-0.6,0.6
		c-0.2,0.2-0.3,0.5-0.3,0.8S328,7.1,328,7.5z"/>
</g>
<g>
	<path class="st0" d="M2.3,21.3H0v-1.9h2.3V21.3z M0,22.6h2.3v8.2H0V22.6z"/>
	<path class="st0" d="M4.3,22.6h2.1v1.1l0,0c0.3-0.5,0.7-0.8,1.1-1c0.5-0.2,0.9-0.3,1.4-0.3c0.6,0,1.1,0.1,1.5,0.2
		c0.4,0.2,0.7,0.4,0.9,0.7c0.2,0.3,0.4,0.6,0.5,1.1c0.1,0.4,0.1,0.9,0.1,1.4v5H9.6v-4.7c0-0.7-0.1-1.2-0.3-1.5
		c-0.2-0.3-0.6-0.5-1.1-0.5c-0.6,0-1.1,0.2-1.3,0.5c-0.3,0.4-0.4,1-0.4,1.8v4.3H4.2L4.3,22.6L4.3,22.6z"/>
	<path class="st0" d="M14.1,22.6h2.1v1.1l0,0c0.3-0.5,0.7-0.8,1.1-1c0.5-0.2,0.9-0.3,1.4-0.3c0.6,0,1.1,0.1,1.5,0.2
		c0.4,0.2,0.7,0.4,0.9,0.7c0.2,0.3,0.4,0.6,0.5,1.1c0.1,0.4,0.1,0.9,0.1,1.4v5h-2.3v-4.7c0-0.7-0.1-1.2-0.3-1.5
		c-0.2-0.3-0.6-0.5-1.1-0.5c-0.6,0-1.1,0.2-1.3,0.5c-0.3,0.4-0.4,1-0.4,1.8v4.3H14L14.1,22.6L14.1,22.6z"/>
	<path class="st0" d="M23.5,26.7c0-0.7,0.1-1.3,0.3-1.8c0.2-0.5,0.5-1,0.9-1.4s0.8-0.7,1.3-0.9c0.5-0.2,1.1-0.3,1.7-0.3
		s1.2,0.1,1.8,0.3c0.6,0.2,1,0.5,1.3,0.9c0.4,0.4,0.7,0.8,0.9,1.4c0.2,0.6,0.3,1.1,0.3,1.8s-0.1,1.2-0.3,1.8s-0.5,1-0.9,1.4
		s-0.8,0.7-1.3,0.9c-0.5,0.2-1.1,0.3-1.8,0.3c-0.6,0-1.2-0.1-1.7-0.3c-0.5-0.2-1-0.5-1.3-0.9c-0.4-0.4-0.7-0.8-0.9-1.4
		S23.5,27.3,23.5,26.7z M25.8,26.7c0,0.3,0,0.6,0.1,1c0.1,0.3,0.2,0.6,0.3,0.8c0.2,0.2,0.4,0.4,0.6,0.6c0.3,0.1,0.6,0.2,1,0.2
		s0.7-0.1,1-0.2s0.5-0.3,0.6-0.6c0.2-0.2,0.3-0.5,0.3-0.8c0.1-0.3,0.1-0.6,0.1-1c0-0.3,0-0.7-0.1-1c-0.1-0.3-0.2-0.6-0.3-0.8
		c-0.1-0.2-0.4-0.4-0.6-0.6c-0.3-0.2-0.6-0.2-1-0.2s-0.7,0.1-1,0.2c-0.3,0.1-0.5,0.4-0.6,0.6c-0.2,0.2-0.3,0.5-0.3,0.8
		C25.9,26,25.8,26.3,25.8,26.7z"/>
	<path class="st0" d="M38.3,30.8h-2.5L33,22.6h2.4l1.7,5.6l0,0l1.7-5.6H41L38.3,30.8z"/>
	<path class="st0" d="M42.3,25.1c0-0.5,0.2-1,0.4-1.3c0.2-0.3,0.5-0.6,0.9-0.8c0.4-0.2,0.8-0.4,1.2-0.5c0.4-0.1,0.9-0.1,1.4-0.1
		c0.4,0,0.8,0,1.3,0.1c0.4,0.1,0.8,0.2,1.2,0.3c0.3,0.2,0.6,0.4,0.9,0.7c0.2,0.3,0.3,0.7,0.3,1.2V29c0,0.4,0,0.7,0.1,1.1
		c0,0.3,0.1,0.6,0.2,0.8h-2.3c0-0.1-0.1-0.3-0.1-0.4c0-0.1,0-0.3-0.1-0.4c-0.4,0.4-0.8,0.6-1.3,0.8c-0.5,0.2-1,0.2-1.5,0.2
		c-0.4,0-0.8,0-1.1-0.2c-0.3-0.1-0.6-0.3-0.9-0.5c-0.3-0.2-0.5-0.5-0.6-0.8c-0.1-0.3-0.2-0.7-0.2-1.1c0-0.5,0.1-0.8,0.2-1.1
		c0.2-0.3,0.4-0.5,0.6-0.7c0.3-0.2,0.6-0.3,0.9-0.4s0.7-0.2,1-0.2c0.3-0.1,0.7-0.1,1-0.1s0.6-0.1,0.8-0.1s0.4-0.2,0.6-0.3
		c0.1-0.1,0.2-0.3,0.2-0.5c0-0.2,0-0.4-0.1-0.6c-0.1-0.1-0.2-0.3-0.3-0.3c-0.1-0.1-0.3-0.1-0.5-0.2c-0.2,0-0.4,0-0.6,0
		c-0.4,0-0.8,0.1-1,0.3c-0.3,0.2-0.4,0.5-0.5,1h-2.1V25.1z M47.5,26.7c-0.1,0.1-0.2,0.2-0.4,0.2S46.8,27,46.6,27s-0.3,0.1-0.5,0.1
		s-0.4,0-0.5,0.1c-0.2,0-0.3,0.1-0.5,0.1c-0.2,0.1-0.3,0.1-0.4,0.2s-0.2,0.2-0.3,0.3c-0.1,0.1-0.1,0.3-0.1,0.5c0,0.2,0,0.4,0.1,0.5
		s0.2,0.2,0.3,0.3s0.3,0.1,0.4,0.2c0.2,0,0.3,0,0.5,0c0.4,0,0.8-0.1,1-0.2c0.2-0.1,0.4-0.3,0.5-0.5c0.1-0.2,0.2-0.4,0.2-0.6
		s0-0.4,0-0.5v-0.8H47.5z"/>
	<path class="st0" d="M57.6,29.7L57.6,29.7c-0.3,0.4-0.6,0.8-1.1,1c-0.4,0.2-0.9,0.3-1.4,0.3c-0.6,0-1.2-0.1-1.6-0.4s-0.8-0.6-1.1-1
		c-0.3-0.4-0.5-0.9-0.7-1.4s-0.3-1-0.3-1.6c0-0.5,0.1-1.1,0.2-1.6s0.4-1,0.7-1.4c0.3-0.4,0.7-0.7,1.1-0.9c0.5-0.2,1-0.4,1.6-0.4
		c0.5,0,0.9,0.1,1.4,0.3c0.4,0.2,0.8,0.5,1,0.9l0,0v-4.1h2.3v11.3h-2.1V29.7z M57.6,26.6c0-0.3,0-0.6-0.1-1s-0.2-0.6-0.3-0.8
		c-0.2-0.2-0.4-0.4-0.6-0.6C56.4,24.1,56,24,55.7,24c-0.4,0-0.7,0.1-0.9,0.2c-0.3,0.1-0.5,0.3-0.6,0.6c-0.2,0.2-0.3,0.5-0.3,0.8
		c-0.1,0.3-0.1,0.6-0.1,1c0,0.3,0,0.6,0.1,1c0.1,0.3,0.2,0.6,0.4,0.8c0.2,0.2,0.4,0.4,0.6,0.6s0.5,0.2,0.9,0.2s0.7-0.1,0.9-0.2
		c0.2-0.1,0.4-0.3,0.6-0.6c0.1-0.2,0.3-0.5,0.3-0.8S57.6,27,57.6,26.6z"/>
	<path class="st0" d="M61.5,26.7c0-0.7,0.1-1.3,0.3-1.8c0.2-0.5,0.5-1,0.9-1.4s0.8-0.7,1.3-0.9c0.5-0.2,1.1-0.3,1.7-0.3
		s1.2,0.1,1.8,0.3c0.6,0.2,1,0.5,1.3,0.9c0.4,0.4,0.7,0.8,0.9,1.4c0.2,0.6,0.3,1.1,0.3,1.8s-0.1,1.2-0.3,1.8s-0.5,1-0.9,1.4
		s-0.8,0.7-1.3,0.9c-0.5,0.2-1.1,0.3-1.8,0.3c-0.6,0-1.2-0.1-1.7-0.3c-0.5-0.2-1-0.5-1.3-0.9c-0.4-0.4-0.7-0.8-0.9-1.4
		S61.5,27.3,61.5,26.7z M63.8,26.7c0,0.3,0,0.6,0.1,1c0.1,0.3,0.2,0.6,0.3,0.8c0.2,0.2,0.4,0.4,0.6,0.6c0.3,0.1,0.6,0.2,1,0.2
		s0.7-0.1,1-0.2s0.5-0.3,0.6-0.6c0.2-0.2,0.3-0.5,0.3-0.8c0.1-0.3,0.1-0.6,0.1-1c0-0.3,0-0.7-0.1-1c-0.1-0.3-0.2-0.6-0.3-0.8
		c-0.1-0.2-0.4-0.4-0.6-0.6c-0.3-0.2-0.6-0.2-1-0.2s-0.7,0.1-1,0.2c-0.3,0.1-0.5,0.4-0.6,0.6c-0.2,0.2-0.3,0.5-0.3,0.8
		C63.9,26,63.8,26.3,63.8,26.7z"/>
	<path class="st0" d="M71.8,22.6h2.1v1.5l0,0c0.1-0.3,0.2-0.5,0.4-0.7c0.2-0.2,0.4-0.4,0.6-0.6c0.2-0.2,0.5-0.3,0.8-0.4
		c0.3-0.1,0.5-0.1,0.8-0.1c0.2,0,0.3,0,0.5,0.1v2.1c-0.1,0-0.2,0-0.4-0.1c-0.1,0-0.3,0-0.4,0c-0.4,0-0.8,0.1-1,0.2
		c-0.3,0.1-0.5,0.3-0.7,0.6c-0.2,0.2-0.3,0.5-0.4,0.8C74,26.3,74,26.7,74,27v3.7h-2.3v-8.1H71.8z"/>
	<path class="st1" d="M89.4,30.8v-1.6l0,0c-0.1,0.3-0.3,0.5-0.5,0.7c-0.2,0.2-0.4,0.4-0.7,0.6c-0.3,0.2-0.5,0.3-0.8,0.4
		C87.1,31,86.8,31,86.5,31c-0.6,0-1.2-0.1-1.6-0.3c-0.5-0.2-0.8-0.5-1.1-0.9s-0.5-0.9-0.7-1.4c-0.1-0.5-0.2-1.1-0.2-1.7
		c0-0.6,0.1-1.1,0.2-1.7c0.1-0.5,0.4-1,0.7-1.4c0.3-0.4,0.7-0.7,1.1-0.9c0.4-0.2,1-0.3,1.6-0.3c0.3,0,0.6,0,0.9,0.1
		c0.3,0.1,0.6,0.2,0.8,0.3s0.5,0.3,0.7,0.6c0.2,0.2,0.3,0.5,0.5,0.8l0,0v-4.8h1v11.3h-1V30.8z M83.9,27.9c0.1,0.4,0.3,0.8,0.5,1.1
		c0.2,0.3,0.5,0.6,0.8,0.8c0.3,0.2,0.7,0.3,1.2,0.3s1-0.1,1.3-0.3c0.4-0.2,0.7-0.5,0.9-0.8c0.2-0.3,0.4-0.7,0.5-1.1
		c0.1-0.4,0.2-0.8,0.2-1.3s0-0.8-0.2-1.3s-0.3-0.8-0.5-1.1c-0.2-0.3-0.5-0.6-0.9-0.8c-0.3-0.1-0.7-0.2-1.3-0.2
		c-0.5,0-0.9,0.1-1.2,0.3c-0.3,0.2-0.6,0.5-0.8,0.8c-0.2,0.3-0.4,0.7-0.5,1.1c-0.1,0.4-0.2,0.8-0.2,1.3S83.8,27.5,83.9,27.9z"/>
	<path class="st1" d="M93.3,28.1c0.1,0.4,0.3,0.7,0.5,1c0.2,0.3,0.5,0.6,0.8,0.8c0.3,0.2,0.7,0.3,1.2,0.3c0.7,0,1.3-0.2,1.7-0.6
		c0.4-0.4,0.7-0.9,0.9-1.5h1c-0.2,0.9-0.6,1.6-1.2,2.2c-0.6,0.5-1.4,0.8-2.4,0.8c-0.6,0-1.2-0.1-1.7-0.3c-0.5-0.2-0.9-0.5-1.2-0.9
		s-0.5-0.9-0.7-1.4C92.1,28,92,27.4,92,26.8c0-0.5,0.1-1.1,0.2-1.6s0.4-1,0.7-1.4s0.7-0.7,1.2-1c0.5-0.2,1-0.4,1.7-0.4
		s1.2,0.1,1.7,0.4c0.5,0.3,0.8,0.6,1.1,1c0.3,0.4,0.5,0.9,0.6,1.5s0.2,1.1,0.2,1.7h-6.3C93.1,27.3,93.2,27.7,93.3,28.1z M98.2,25
		c-0.1-0.3-0.3-0.7-0.5-0.9c-0.2-0.3-0.5-0.5-0.8-0.7c-0.3-0.2-0.7-0.2-1.1-0.2s-0.8,0.1-1.1,0.2c-0.3,0.2-0.6,0.4-0.8,0.7
		c-0.2,0.3-0.4,0.6-0.5,0.9c-0.1,0.4-0.2,0.7-0.3,1.1h5.3C98.4,25.7,98.3,25.4,98.2,25z"/>
	<path class="st1" d="M106.7,22.6v1.6l0,0c0.2-0.6,0.6-1,1.1-1.3c0.5-0.3,1.1-0.5,1.8-0.5c0.6,0,1.2,0.1,1.6,0.3
		c0.4,0.2,0.8,0.5,1.1,0.9s0.5,0.9,0.7,1.4c0.1,0.5,0.2,1.1,0.2,1.7s-0.1,1.1-0.2,1.7c-0.1,0.5-0.4,1-0.7,1.4s-0.7,0.7-1.1,0.9
		c-0.5,0.2-1,0.3-1.6,0.3c-0.3,0-0.6,0-0.9-0.1s-0.6-0.2-0.8-0.3c-0.3-0.1-0.5-0.3-0.7-0.6c-0.2-0.2-0.3-0.5-0.5-0.8l0,0v4.6h-1
		V22.6H106.7z M112.2,25.4c-0.1-0.4-0.3-0.8-0.5-1.1c-0.2-0.3-0.5-0.6-0.8-0.8c-0.3-0.2-0.7-0.3-1.2-0.3s-1,0.1-1.4,0.3
		c-0.4,0.2-0.7,0.4-0.9,0.8c-0.2,0.3-0.4,0.7-0.5,1.1c-0.1,0.4-0.1,0.9-0.1,1.3s0,0.8,0.2,1.3c0.1,0.4,0.3,0.8,0.5,1.1
		c0.2,0.3,0.5,0.6,0.9,0.8c0.4,0.2,0.8,0.3,1.3,0.3s0.9-0.1,1.2-0.3c0.3-0.2,0.6-0.5,0.8-0.8c0.2-0.3,0.4-0.7,0.5-1.1
		c0.1-0.4,0.2-0.8,0.2-1.3S112.3,25.8,112.2,25.4z"/>
	<path class="st1" d="M116.1,22.6v1.9l0,0c0.3-0.7,0.6-1.2,1.2-1.5c0.5-0.4,1.2-0.5,1.9-0.5v1c-0.5,0-0.9,0-1.2,0.2
		c-0.3,0.2-0.7,0.3-1,0.6c-0.3,0.3-0.5,0.6-0.6,0.9c-0.1,0.4-0.2,0.8-0.2,1.2v4.4h-1v-8.2H116.1z"/>
	<path class="st1" d="M121.5,19.4V21h-1v-1.6H121.5z M121.5,22.6v8.2h-1v-8.2H121.5z"/>
	<path class="st1" d="M124.7,22.6V24l0,0c0.3-0.5,0.6-0.9,1-1.2c0.4-0.3,1-0.4,1.6-0.4c0.5,0,1,0.1,1.5,0.4c0.4,0.3,0.7,0.7,0.9,1.2
		c0.2-0.5,0.6-0.9,1.1-1.2c0.5-0.3,1-0.4,1.5-0.4c1.8,0,2.7,1,2.7,2.9v5.6h-1v-5.6c0-0.7-0.1-1.2-0.4-1.5c-0.2-0.4-0.7-0.6-1.4-0.6
		c-0.4,0-0.8,0.1-1.1,0.2c-0.3,0.1-0.5,0.4-0.7,0.7s-0.3,0.6-0.4,0.9c-0.1,0.4-0.1,0.7-0.1,1.1v4.6h-1v-5.5c0-0.3,0-0.5-0.1-0.8
		c-0.1-0.2-0.2-0.5-0.3-0.7c-0.1-0.2-0.3-0.3-0.5-0.4c-0.2-0.1-0.5-0.1-0.8-0.1c-0.4,0-0.8,0.1-1.1,0.2c-0.3,0.2-0.6,0.4-0.8,0.6
		c-0.2,0.3-0.3,0.6-0.4,1s-0.1,0.8-0.1,1.2v4.6h-1v-8.2H124.7z"/>
	<path class="st1" d="M138.1,28.1c0.1,0.4,0.3,0.7,0.5,1c0.2,0.3,0.5,0.6,0.8,0.8c0.3,0.2,0.7,0.3,1.2,0.3c0.7,0,1.3-0.2,1.7-0.6
		c0.4-0.4,0.7-0.9,0.9-1.5h1c-0.2,0.9-0.6,1.6-1.2,2.2c-0.6,0.5-1.4,0.8-2.4,0.8c-0.6,0-1.2-0.1-1.7-0.3c-0.5-0.2-0.9-0.5-1.2-0.9
		s-0.5-0.9-0.7-1.4c-0.1-0.5-0.2-1.1-0.2-1.7c0-0.5,0.1-1.1,0.2-1.6s0.4-1,0.7-1.4s0.7-0.7,1.2-1c0.5-0.2,1-0.4,1.7-0.4
		s1.2,0.1,1.7,0.4c0.5,0.3,0.8,0.6,1.1,1c0.3,0.4,0.5,0.9,0.6,1.5s0.2,1.1,0.2,1.7h-6.3C137.9,27.3,138,27.7,138.1,28.1z M143,25
		c-0.1-0.3-0.3-0.7-0.5-0.9c-0.2-0.3-0.5-0.5-0.8-0.7c-0.3-0.1-0.7-0.2-1.1-0.2s-0.8,0.1-1.1,0.2c-0.3,0.2-0.6,0.4-0.8,0.7
		c-0.2,0.3-0.4,0.6-0.5,0.9c-0.1,0.4-0.2,0.7-0.3,1.1h5.3C143.2,25.7,143.1,25.4,143,25z"/>
	<path class="st1" d="M146.8,22.6v1.9l0,0c0.3-0.7,0.6-1.2,1.2-1.5c0.5-0.4,1.2-0.5,1.9-0.5v1c-0.5,0-0.9,0-1.2,0.2
		c-0.3,0.2-0.7,0.3-1,0.6c-0.3,0.3-0.5,0.6-0.6,0.9c-0.1,0.4-0.2,0.8-0.2,1.2v4.4h-1v-8.2H146.8z"/>
	<path class="st1" d="M151.4,23.8c0.2-0.3,0.4-0.6,0.7-0.9c0.3-0.2,0.6-0.4,1-0.5c0.4-0.1,0.8-0.2,1.3-0.2c0.4,0,0.7,0,1.1,0.1
		c0.4,0.1,0.7,0.2,1,0.4c0.3,0.2,0.5,0.5,0.7,0.8s0.3,0.8,0.3,1.3v4.3c0,0.4,0.2,0.6,0.6,0.6c0.1,0,0.2,0,0.3-0.1v0.8
		c-0.1,0-0.2,0-0.3,0s-0.2,0-0.3,0c-0.3,0-0.5,0-0.6-0.1c-0.2-0.1-0.3-0.2-0.4-0.3s-0.1-0.3-0.2-0.5c0-0.2,0-0.4,0-0.6l0,0
		c-0.2,0.3-0.4,0.5-0.5,0.7c-0.1,0.2-0.4,0.4-0.6,0.5s-0.5,0.2-0.8,0.3s-0.6,0.1-1,0.1s-0.7,0-1.1-0.1s-0.6-0.2-0.9-0.4
		c-0.2-0.2-0.4-0.4-0.6-0.7c-0.1-0.3-0.2-0.7-0.2-1.1c0-0.6,0.1-1,0.4-1.3c0.3-0.3,0.6-0.6,1-0.7c0.4-0.2,0.9-0.3,1.4-0.4
		s1.1-0.1,1.6-0.2c0.2,0,0.4,0,0.6-0.1c0.2,0,0.3-0.1,0.4-0.2c0.1-0.1,0.2-0.2,0.2-0.3c0.1-0.1,0.1-0.3,0.1-0.5
		c0-0.3-0.1-0.6-0.2-0.8c-0.1-0.2-0.3-0.4-0.5-0.5c-0.2-0.1-0.4-0.2-0.7-0.3s-0.6,0.3-0.9,0.3c-0.6,0-1.2,0.2-1.6,0.5
		c-0.4,0.3-0.6,0.8-0.6,1.5h-1C151.1,24.6,151.2,24.2,151.4,23.8z M156.4,26.3c-0.1,0.1-0.2,0.2-0.4,0.3s-0.3,0.1-0.5,0.1
		c-0.4,0.1-0.9,0.1-1.3,0.2c-0.5,0.1-0.9,0.1-1.2,0.3s-0.7,0.3-0.9,0.5c-0.2,0.2-0.4,0.5-0.4,0.9c0,0.3,0,0.5,0.2,0.7
		c0.1,0.2,0.2,0.4,0.4,0.5s0.4,0.3,0.6,0.3c0.2,0.1,0.4,0.1,0.7,0.1c0.4,0,0.7-0.1,1.1-0.2c0.4-0.1,0.7-0.3,0.9-0.5
		c0.3-0.2,0.5-0.5,0.6-0.8c0.1-0.3,0.2-0.7,0.2-1.1L156.4,26.3L156.4,26.3z"/>
	<path class="st1" d="M165.5,19.4v11.3h-1V19.4H165.5z"/>
	<path class="st1" d="M167.3,21.4l1.7-2.2h1.2l-2.1,2.2H167.3z M167.7,22.6h1v8.2h-1V22.6z"/>
	<path class="st1" d="M171.9,22.6V24l0,0c0.2-0.5,0.5-0.9,1-1.2c0.5-0.3,1-0.5,1.6-0.5s1,0.1,1.4,0.2s0.7,0.4,0.9,0.6
		c0.2,0.2,0.4,0.6,0.5,1s0.1,0.8,0.1,1.3v5.3h-1v-5c0-0.3,0-0.7-0.1-1c-0.1-0.3-0.2-0.6-0.3-0.8c-0.2-0.2-0.4-0.4-0.6-0.5
		c-0.3-0.1-0.6-0.2-1-0.2s-0.8,0.1-1.1,0.2c-0.3,0.1-0.6,0.3-0.8,0.6c-0.2,0.2-0.4,0.5-0.5,0.9c-0.1,0.3-0.2,0.7-0.2,1.1v4.8h-1
		v-8.2H171.9z"/>
	<path class="st1" d="M180.5,28.1c0.1,0.4,0.3,0.7,0.5,1c0.2,0.3,0.5,0.6,0.8,0.8c0.3,0.2,0.7,0.3,1.2,0.3c0.7,0,1.3-0.2,1.7-0.6
		c0.4-0.4,0.7-0.9,0.9-1.5h1c-0.2,0.9-0.6,1.6-1.2,2.2c-0.6,0.5-1.4,0.8-2.4,0.8c-0.6,0-1.2-0.1-1.7-0.3c-0.5-0.2-0.9-0.5-1.2-0.9
		s-0.5-0.9-0.7-1.4c0-0.7,0-1.2,0-1.8c0-0.5,0.1-1.1,0.2-1.6s0.4-1,0.7-1.4s0.7-0.7,1.2-1c0.5-0.2,1-0.4,1.7-0.4s1.2,0.1,1.7,0.4
		c0.5,0.3,0.8,0.6,1.1,1c0.3,0.4,0.5,0.9,0.6,1.5s0.2,1.1,0.2,1.7h-6.4C180.4,27.3,180.4,27.7,180.5,28.1z M185.5,25
		c-0.1-0.3-0.3-0.7-0.5-0.9c-0.2-0.3-0.5-0.5-0.8-0.7c-0.3-0.2-0.7-0.2-1.1-0.2s-0.8,0.1-1.1,0.2c-0.3,0.2-0.6,0.4-0.8,0.7
		c-0.2,0.3-0.4,0.6-0.5,0.9c-0.1,0.4-0.2,0.7-0.3,1.1h5.3C185.7,25.7,185.6,25.4,185.5,25z"/>
	<path class="st1" d="M188.5,23.8c0.2-0.3,0.4-0.6,0.7-0.9c0.3-0.2,0.6-0.4,1-0.5c0.4-0.1,0.8-0.2,1.3-0.2c0.4,0,0.7,0,1.1,0.1
		c0.4,0.1,0.7,0.2,1,0.4c0.3,0.2,0.5,0.5,0.7,0.8s0.3,0.8,0.3,1.3v4.3c0,0.4,0.2,0.6,0.6,0.6c0.1,0,0.2,0,0.3-0.1v0.8
		c-0.1,0-0.2,0-0.3,0s-0.2,0-0.3,0c-0.3,0-0.5,0-0.6-0.1c-0.2-0.1-0.3-0.2-0.4-0.3s-0.1-0.3-0.2-0.5c0-0.2,0-0.4,0-0.6l0,0
		c-0.2,0.3-0.4,0.5-0.5,0.7c-0.1,0.2-0.4,0.4-0.6,0.5s-0.5,0.2-0.8,0.3s-0.6,0.1-1,0.1s-0.7,0-1.1-0.1s-0.6-0.2-0.9-0.4
		c-0.2-0.2-0.4-0.4-0.6-0.7c-0.1-0.3-0.2-0.7-0.2-1.1c0-0.6,0.1-1,0.4-1.3c0.3-0.3,0.6-0.6,1-0.7c0.4-0.2,0.9-0.3,1.4-0.4
		s1.1-0.1,1.6-0.2c0.2,0,0.4,0,0.6-0.1c0.2,0,0.3-0.1,0.4-0.2c0.1-0.1,0.2-0.2,0.2-0.3c0.1-0.1,0.1-0.3,0.1-0.5
		c0-0.3-0.1-0.6-0.2-0.8c-0.1-0.2-0.3-0.4-0.5-0.5c-0.2-0.1-0.4-0.2-0.7-0.3s-0.6,0.3-0.9,0.3c-0.6,0-1.2,0.2-1.6,0.5
		c-0.4,0.3-0.6,0.8-0.6,1.5h-1C188.3,24.6,188.4,24.2,188.5,23.8z M193.5,26.3c-0.1,0.1-0.2,0.2-0.4,0.3s-0.3,0.1-0.5,0.1
		c-0.4,0.1-0.9,0.1-1.3,0.2c-0.5,0.1-0.9,0.1-1.2,0.3s-0.7,0.3-0.9,0.5c-0.2,0.2-0.4,0.5-0.4,0.9c0,0.3,0,0.5,0.2,0.7
		c0.1,0.2,0.2,0.4,0.4,0.5s0.4,0.3,0.6,0.3c0.2,0.1,0.4,0.1,0.7,0.1c0.4,0,0.7-0.1,1.1-0.2c0.4-0.1,0.7-0.3,0.9-0.5
		c0.3-0.2,0.5-0.5,0.6-0.8c0.1-0.3,0.2-0.7,0.2-1.1V26.3L193.5,26.3z"/>
	<path class="st1" d="M202.5,22.6v1.6l0,0c0.2-0.6,0.6-1,1.1-1.3c0.5-0.3,1.1-0.5,1.8-0.5c0.6,0,1.2,0.1,1.6,0.3
		c0.4,0.2,0.8,0.5,1.1,0.9s0.5,0.9,0.7,1.4c0.1,0.5,0.2,1.1,0.2,1.7s-0.1,1.1-0.2,1.7c-0.1,0.5-0.4,1-0.7,1.4s-0.7,0.7-1.1,0.9
		c-0.5,0.2-1,0.3-1.6,0.3c-0.3,0-0.6,0-0.9-0.1c-0.3-0.1-0.6-0.2-0.8-0.3c-0.3-0.1-0.5-0.3-0.7-0.6c-0.2-0.2-0.3-0.5-0.5-0.8l0,0
		v4.6h-1V22.6H202.5z M208,25.4c-0.1-0.4-0.3-0.8-0.5-1.1c-0.2-0.3-0.5-0.6-0.8-0.8c-0.3-0.2-0.7-0.3-1.2-0.3s-1,0.1-1.4,0.3
		c-0.4,0.2-0.7,0.4-0.9,0.8c-0.2,0.3-0.4,0.7-0.5,1.1c-0.1,0.4-0.1,0.9-0.1,1.3s0,0.8,0.2,1.3c0.1,0.4,0.3,0.8,0.5,1.1
		c0.2,0.3,0.5,0.6,0.9,0.8c0.4,0.2,0.8,0.3,1.3,0.3s0.9-0.1,1.2-0.3c0.3-0.2,0.6-0.5,0.8-0.8c0.2-0.3,0.4-0.7,0.5-1.1
		c0.1-0.4,0.2-0.8,0.2-1.3S208.1,25.8,208,25.4z"/>
	<path class="st1" d="M211.2,23.8c0.2-0.3,0.4-0.6,0.7-0.9c0.3-0.2,0.6-0.4,1-0.5c0.4-0.1,0.8-0.2,1.3-0.2c0.4,0,0.7,0,1.1,0.1
		c0.4,0.1,0.7,0.2,1,0.4c0.3,0.2,0.5,0.5,0.7,0.8s0.3,0.8,0.3,1.3v4.3c0,0.4,0.2,0.6,0.6,0.6c0.1,0,0.2,0,0.3-0.1v0.8
		c-0.1,0-0.2,0-0.3,0s-0.2,0-0.3,0c-0.3,0-0.5,0-0.6-0.1c-0.2-0.1-0.3-0.2-0.4-0.3s-0.1-0.3-0.2-0.5c0-0.2,0-0.4,0-0.6l0,0
		c-0.2,0.3-0.4,0.5-0.5,0.7c-0.1,0.2-0.4,0.4-0.6,0.5s-0.5,0.2-0.8,0.3s-0.6,0.1-1,0.1s-0.7,0-1.1-0.1s-0.6-0.2-0.9-0.4
		c-0.2-0.2-0.4-0.4-0.6-0.7c-0.1-0.3-0.2-0.7-0.2-1.1c0-0.6,0.1-1,0.4-1.3c0.3-0.3,0.6-0.6,1-0.7c0.3,0.2,0.8,0,1.3,0
		c0.5-0.1,1.1-0.1,1.6-0.2c0.2,0,0.4,0,0.6-0.1c0.2,0,0.3-0.1,0.4-0.2c0.1-0.1,0.2-0.2,0.2-0.3c0.1-0.1,0.1-0.3,0.1-0.5
		c0-0.3-0.1-0.6-0.2-0.8c-0.1-0.2-0.3-0.4-0.5-0.5s-0.4-0.2-0.7-0.3s-0.5-0.1-0.8-0.1c-0.6,0-1.2,0.2-1.6,0.5
		c-0.4,0.3-0.6,0.8-0.6,1.5h-1C211,24.6,211.1,24.2,211.2,23.8z M216.2,26.3c-0.1,0.1-0.2,0.2-0.4,0.3s-0.3,0.1-0.5,0.1
		c-0.4,0.1-0.9,0.1-1.3,0.2c-0.5,0.1-0.9,0.1-1.2,0.3s-0.7,0.3-0.9,0.5c-0.2,0.2-0.4,0.5-0.4,0.9c0,0.3,0,0.5,0.2,0.7
		c0.1,0.2,0.2,0.4,0.4,0.5s0.4,0.3,0.6,0.3c0.2,0.1,0.4,0.1,0.7,0.1c0.4,0,0.7-0.1,1.1-0.2c0.4-0.1,0.7-0.3,0.9-0.5
		c0.3-0.2,0.5-0.5,0.6-0.8c0.1-0.3,0.2-0.7,0.2-1.1L216.2,26.3L216.2,26.3z"/>
	<path class="st1" d="M220.5,22.6v1.9l0,0c0.3-0.7,0.6-1.2,1.2-1.5c0.5-0.4,1.2-0.5,1.9-0.5v1c-0.5,0-0.9,0-1.2,0.2
		c-0.3,0.2-0.7,0.3-1,0.6c-0.3,0.3-0.5,0.6-0.6,0.9c-0.1,0.4-0.2,0.8-0.2,1.2v4.4h-1v-8.2H220.5z"/>
	<path class="st1" d="M225.1,23.8c0.2-0.3,0.4-0.6,0.7-0.9c0.3-0.2,0.6-0.4,1-0.5c0.4-0.1,0.8-0.2,1.3-0.2c0.4,0,0.7,0,1.1,0.1
		c0.4,0.1,0.7,0.2,1,0.4c0.3,0.2,0.5,0.5,0.7,0.8s0.3,0.8,0.3,1.3v4.3c0,0.4,0.2,0.6,0.6,0.6c0.1,0,0.2,0,0.3-0.1v0.8
		c-0.1,0-0.2,0-0.3,0s-0.2,0-0.3,0c-0.3,0-0.5,0-0.6-0.1c-0.2-0.1-0.3-0.2-0.4-0.3s-0.1-0.3-0.2-0.5c0-0.2,0-0.4,0-0.6l0,0
		c-0.2,0.3-0.4,0.5-0.5,0.7c-0.1,0.2-0.4,0.4-0.6,0.5s-0.5,0.2-0.8,0.3s-0.6,0.1-1,0.1s-0.7,0-1.1-0.1s-0.6-0.2-0.9-0.4
		c-0.2-0.2-0.4-0.4-0.6-0.7c-0.1-0.3-0.2-0.7-0.2-1.1c0-0.6,0.1-1,0.4-1.3c0.3-0.3,0.6-0.6,1-0.7c0.4-0.2,0.9-0.3,1.4-0.4
		s1.1-0.1,1.6-0.2c0.2,0,0.4,0,0.6-0.1c0.2,0,0.3-0.1,0.4-0.2c0.1-0.1,0.2-0.2,0.2-0.3c0.1-0.1,0.1-0.3,0.1-0.5
		c0-0.3-0.1-0.6-0.2-0.8c-0.1-0.2-0.3-0.4-0.5-0.5c-0.2-0.1-0.4-0.2-0.7-0.3s-0.6,0.3-0.9,0.3c-0.6,0-1.2,0.2-1.6,0.5
		c-0.4,0.3-0.6,0.8-0.6,1.5h-1C224.8,24.6,224.9,24.2,225.1,23.8z M230.1,26.3c-0.1,0.1-0.2,0.2-0.4,0.3s-0.3,0.1-0.5,0.1
		c-0.4,0.1-0.9,0.1-1.3,0.2c-0.5,0.1-0.9,0.1-1.2,0.3s-0.7,0.3-0.9,0.5c-0.2,0.2-0.4,0.5-0.4,0.9c0,0.3,0,0.5,0.2,0.7
		c0.1,0.2,0.2,0.4,0.4,0.5s0.4,0.3,0.6,0.3c0.2,0.1,0.4,0.1,0.7,0.1c0.4,0,0.7-0.1,1.1-0.2c0.4-0.1,0.7-0.3,0.9-0.5
		c0.3-0.2,0.5-0.5,0.6-0.8c0.1-0.3,0.2-0.7,0.2-1.1L230.1,26.3L230.1,26.3z"/>
	<path class="st1" d="M238.9,28.1c0.1,0.4,0.3,0.7,0.5,1c0.2,0.3,0.5,0.6,0.8,0.8c0.3,0.2,0.7,0.3,1.2,0.3c0.7,0,1.3-0.2,1.7-0.6
		c0.4-0.4,0.7-0.9,0.9-1.5h1c-0.2,0.9-0.6,1.6-1.2,2.2c-0.6,0.5-1.4,0.8-2.4,0.8c-0.6,0-1.2-0.1-1.7-0.3c-0.5-0.2-0.9-0.5-1.2-0.9
		s-0.5-0.9-0.7-1.4c-0.1-0.5-0.2-1.1-0.2-1.7c0-0.5,0.1-1.1,0.2-1.6c0.1-0.5,0.4-1,0.7-1.4s0.7-0.7,1.2-1c0.5-0.2,1-0.4,1.7-0.4
		s1.2,0.1,1.7,0.4c0.5,0.3,0.8,0.6,1.1,1s0.5,0.9,0.6,1.5s0.2,1.1,0.2,1.7h-6.3C238.8,27.3,238.8,27.7,238.9,28.1z M243.9,25
		c-0.1-0.3-0.3-0.7-0.5-0.9c-0.2-0.3-0.5-0.5-0.8-0.7c-0.4-0.1-0.7-0.2-1.2-0.2c-0.4,0-0.8,0.1-1.1,0.2c-0.3,0.2-0.6,0.4-0.8,0.7
		s-0.4,0.6-0.5,0.9c-0.1,0.4-0.2,0.7-0.3,1.1h5.3C244,25.7,244,25.4,243.9,25z"/>
	<path class="st1" d="M247.7,19.4v11.3h-1V19.4H247.7z"/>
	<path class="st1" d="M255.6,22.6V24l0,0c0.3-0.5,0.6-0.9,1-1.2c0.4-0.3,1-0.4,1.6-0.4c0.5,0,1,0.1,1.5,0.4c0.4,0.3,0.7,0.7,0.9,1.2
		c0.2-0.5,0.6-0.9,1.1-1.2c0.5-0.3,1-0.4,1.5-0.4c1.8,0,2.7,1,2.7,2.9v5.6h-1v-5.6c0-0.7-0.1-1.2-0.4-1.5c-0.3-0.4-0.8-0.5-1.5-0.5
		c-0.4,0-0.8,0.1-1.1,0.2s-0.5,0.4-0.7,0.7c-0.2,0.3-0.3,0.6-0.4,0.9c-0.1,0.4-0.1,0.7-0.1,1.1v4.6h-1v-5.6c0-0.3,0-0.5-0.1-0.8
		c-0.1-0.2-0.2-0.5-0.3-0.7c-0.1-0.2-0.3-0.3-0.5-0.4c-0.1-0.1-0.3-0.1-0.7-0.1c-0.4,0-0.8,0.1-1.1,0.2c-0.3,0.2-0.6,0.4-0.8,0.6
		c-0.2,0.3-0.3,0.6-0.4,1c-0.1,0.4-0.1,0.8-0.1,1.2v4.6h-1v-8.2H255.6z"/>
	<path class="st1" d="M268.4,23.8c0.2-0.3,0.4-0.6,0.7-0.9c0.3-0.2,0.6-0.4,1-0.5c0.4-0.1,0.8-0.2,1.3-0.2c0.4,0,0.7,0,1.1,0.1
		c0.4,0.1,0.7,0.2,1,0.4c0.3,0.2,0.5,0.5,0.7,0.8s0.3,0.8,0.3,1.3v4.3c0,0.4,0.2,0.6,0.6,0.6c0.1,0,0.2,0,0.3-0.1v0.8
		c-0.1,0-0.2,0-0.3,0s-0.2,0-0.3,0c-0.3,0-0.5,0-0.6-0.1c-0.2-0.1-0.3-0.2-0.4-0.3s-0.1-0.3-0.2-0.5c0-0.2,0-0.4,0-0.6l0,0
		c-0.2,0.3-0.4,0.5-0.5,0.7c-0.1,0.2-0.4,0.4-0.6,0.5s-0.5,0.2-0.8,0.3s-0.6,0.1-1,0.1s-0.7,0-1.1-0.1s-0.6-0.2-0.9-0.4
		c-0.2-0.2-0.4-0.4-0.6-0.7c-0.1-0.3-0.2-0.7-0.2-1.1c0-0.6,0.1-1,0.4-1.3c0.3-0.3,0.6-0.6,1-0.7c0.4-0.2,0.9-0.3,1.4-0.4
		s1.1-0.1,1.6-0.2c0.2,0,0.4,0,0.6-0.1c0.2,0,0.3-0.1,0.4-0.2c0.1-0.1,0.2-0.2,0.2-0.3c0.1-0.1,0.1-0.3,0.1-0.5
		c0-0.3-0.1-0.6-0.2-0.8c-0.1-0.2-0.3-0.4-0.5-0.5c-0.2-0.1-0.4-0.2-0.7-0.3s-0.6,0.3-0.9,0.3c-0.6,0-1.2,0.2-1.6,0.5
		c-0.4,0.3-0.6,0.8-0.6,1.5h-1C268.2,24.6,268.3,24.2,268.4,23.8z M273.4,26.3c-0.1,0.1-0.2,0.2-0.4,0.3s-0.3,0.1-0.5,0.1
		c-0.4,0.1-0.9,0.1-1.3,0.2c-0.5,0.1-0.9,0.1-1.2,0.3s-0.7,0.3-0.9,0.5c-0.2,0.2-0.4,0.5-0.4,0.9c0,0.3,0,0.5,0.2,0.7
		c0.1,0.2,0.2,0.4,0.4,0.5s0.4,0.3,0.6,0.3c0.2,0.1,0.4,0.1,0.7,0.1c0.4,0,0.7-0.1,1.1-0.2c0.4-0.1,0.7-0.3,0.9-0.5
		c0.3-0.2,0.5-0.5,0.6-0.8c0.1-0.3,0.2-0.7,0.2-1.1L273.4,26.3L273.4,26.3z"/>
	<path class="st1" d="M277.8,22.6V24l0,0c0.2-0.5,0.5-0.9,1-1.2c0.5-0.3,1-0.5,1.6-0.5s1,0.1,1.4,0.2s0.7,0.4,0.9,0.6
		c0.2,0.2,0.4,0.6,0.5,1s0.1,0.8,0.1,1.3v5.3h-1v-5c0-0.3,0-0.7-0.1-1c-0.1-0.3-0.2-0.6-0.3-0.8c-0.2-0.2-0.4-0.4-0.6-0.5
		c-0.3-0.1-0.6-0.2-1-0.2s-0.8,0.1-1.1,0.2c-0.3,0.1-0.6,0.3-0.8,0.6c-0.2,0.2-0.4,0.5-0.5,0.9c-0.1,0.3-0.2,0.7-0.2,1.1v4.8h-1
		v-8.2H277.8z"/>
	<path class="st1" d="M286.3,28.1c0.1,0.4,0.3,0.7,0.5,1c0.2,0.3,0.5,0.6,0.8,0.8c0.3,0.2,0.7,0.3,1.2,0.3c0.7,0,1.3-0.2,1.7-0.6
		c0.4-0.4,0.7-0.9,0.9-1.5h1c-0.2,0.9-0.6,1.6-1.2,2.2c-0.6,0.5-1.4,0.8-2.4,0.8c-0.6,0-1.2-0.1-1.7-0.3c-0.5-0.2-0.9-0.5-1.2-0.9
		s-0.5-0.9-0.7-1.4c-0.1-0.5-0.2-1.1-0.2-1.7c0-0.5,0.1-1.1,0.2-1.6c0.1-0.5,0.4-1,0.7-1.4s0.7-0.7,1.2-1c0.5-0.2,1-0.4,1.7-0.4
		s1.2,0.1,1.7,0.4c0.5,0.3,0.8,0.6,1.1,1s0.5,0.9,0.6,1.5s0.2,1.1,0.2,1.7h-6.3C286.2,27.3,286.2,27.7,286.3,28.1z M291.3,25
		c-0.1-0.3-0.3-0.7-0.5-0.9c-0.2-0.3-0.5-0.5-0.8-0.7c-0.3-0.2-0.7-0.2-1.1-0.2c-0.4,0-0.8,0.1-1.1,0.2c-0.3,0.2-0.6,0.4-0.8,0.7
		c-0.2,0.3-0.4,0.6-0.5,0.9c-0.1,0.4-0.2,0.7-0.3,1.1h5.3C291.5,25.7,291.4,25.4,291.3,25z"/>
	<path class="st1" d="M295.2,22.6v8.9c0,0.3,0,0.6-0.1,0.9c0,0.3-0.1,0.5-0.3,0.7c-0.1,0.2-0.3,0.4-0.5,0.5
		c-0.2,0.1-0.5,0.2-0.9,0.2c-0.1,0-0.2,0-0.3,0s-0.2,0-0.3,0V33c0.1,0,0.2,0,0.3,0s0.2,0,0.3,0c0.4,0,0.6-0.1,0.7-0.3
		c0.1-0.2,0.2-0.5,0.2-0.8v-9.3H295.2z M295.2,19.4V21h-1v-1.6H295.2z"/>
	<path class="st1" d="M302.5,22.7c0.5,0.2,0.9,0.5,1.2,0.9s0.6,0.8,0.7,1.4c0.2,0.5,0.3,1.1,0.3,1.7s-0.1,1.1-0.3,1.7
		c-0.2,0.5-0.4,1-0.7,1.4s-0.7,0.7-1.2,0.9c-0.5,0.2-1,0.3-1.7,0.3s-1.2-0.1-1.7-0.3c-0.5-0.2-0.9-0.5-1.2-0.9s-0.6-0.8-0.7-1.4
		c-0.1-0.6-0.3-1.1-0.3-1.7c0-0.6,0.1-1.1,0.3-1.7c0.2-0.6,0.4-1,0.7-1.4s0.7-0.7,1.2-0.9c0.5-0.2,1-0.3,1.7-0.3
		S302,22.5,302.5,22.7z M299.6,23.5c-0.4,0.2-0.7,0.5-0.9,0.8c-0.2,0.3-0.4,0.7-0.5,1.1c-0.1,0.4-0.2,0.8-0.2,1.3s0.1,0.9,0.2,1.3
		c0.1,0.4,0.3,0.8,0.5,1.1c0.2,0.3,0.5,0.6,0.9,0.8c0.4,0.2,0.8,0.3,1.3,0.3s0.9-0.1,1.3-0.3c0.4-0.2,0.7-0.5,0.9-0.8
		c0.2-0.3,0.4-0.7,0.5-1.1c0.1-0.4,0.2-0.8,0.2-1.3s-0.1-0.9-0.2-1.3c-0.1-0.4-0.3-0.8-0.5-1.1c-0.2-0.3-0.5-0.6-0.9-0.8
		c-0.4-0.2-0.8-0.3-1.3-0.3S300,23.3,299.6,23.5z"/>
	<path class="st1" d="M317.5,30.8v-1.6l0,0c-0.1,0.3-0.3,0.5-0.5,0.7c-0.2,0.2-0.4,0.4-0.7,0.6s-0.5,0.3-0.8,0.4
		c-0.3,0.1-0.6,0.1-0.9,0.1c-0.6,0-1.2-0.1-1.6-0.3c-0.5-0.2-0.8-0.5-1.1-0.9s-0.5-0.9-0.7-1.4c-0.1-0.5-0.2-1.1-0.2-1.7
		c0-0.6,0.1-1.1,0.2-1.7c0.1-0.5,0.4-1,0.7-1.4c0.3-0.4,0.7-0.7,1.1-0.9c0.4-0.2,1-0.3,1.6-0.3c0.3,0,0.6,0,0.9,0.1
		c0.3,0.1,0.6,0.2,0.8,0.3s0.5,0.3,0.7,0.6c0.2,0.2,0.3,0.5,0.5,0.8l0,0v-4.8h1v11.3h-1V30.8z M312.1,27.9c0.1,0.4,0.3,0.8,0.5,1.1
		c0.2,0.3,0.5,0.6,0.8,0.8c0.3,0.2,0.7,0.3,1.2,0.3s1-0.1,1.3-0.3c0.4-0.2,0.7-0.5,0.9-0.8c0.2-0.3,0.4-0.7,0.5-1.1
		c0.1-0.4,0.2-0.8,0.2-1.3s0-0.8-0.2-1.3s-0.3-0.8-0.5-1.1c-0.2-0.3-0.5-0.6-0.9-0.8s-0.8-0.3-1.3-0.3s-0.9,0.1-1.2,0.3
		s-0.6,0.5-0.8,0.8c-0.2,0.3-0.4,0.7-0.5,1.1c-0.1,0.4-0.2,0.8-0.2,1.3S312,27.5,312.1,27.9z"/>
	<path class="st1" d="M321.4,28.1c0.1,0.4,0.3,0.7,0.5,1c0.2,0.3,0.5,0.6,0.8,0.8c0.3,0.2,0.7,0.3,1.2,0.3c0.7,0,1.3-0.2,1.7-0.6
		c0.4-0.4,0.7-0.9,0.9-1.5h1c-0.2,0.9-0.6,1.6-1.2,2.2c-0.6,0.5-1.4,0.8-2.4,0.8c-0.6,0-1.2-0.1-1.7-0.3c-0.5-0.2-0.9-0.5-1.2-0.9
		s-0.5-0.9-0.7-1.4c-0.1-0.5-0.2-1.1-0.2-1.7c0-0.5,0.1-1.1,0.2-1.6c0.1-0.5,0.4-1,0.7-1.4s0.7-0.7,1.2-1c0.5-0.2,1-0.4,1.7-0.4
		s1.2,0.1,1.7,0.4c0.5,0.3,0.8,0.6,1.1,1s0.5,0.9,0.6,1.5s0.2,1.1,0.2,1.7h-6.3C321.3,27.3,321.3,27.7,321.4,28.1z M326.4,25
		c-0.1-0.3-0.3-0.7-0.5-0.9c-0.2-0.3-0.5-0.5-0.8-0.7c-0.4-0.1-0.7-0.2-1.1-0.2s-0.8,0.1-1.1,0.2c-0.3,0.2-0.6,0.4-0.8,0.7
		s-0.4,0.6-0.5,0.9c-0.1,0.4-0.2,0.7-0.3,1.1h5.3C326.6,25.7,326.5,25.4,326.4,25z"/>
	<path class="st1" d="M335,19.4v11.3h-1V19.4H335z"/>
	<path class="st1" d="M342.3,22.7c0.5,0.2,0.9,0.5,1.2,0.9s0.6,0.8,0.7,1.4c0.2,0.5,0.3,1.1,0.3,1.7s-0.1,1.1-0.3,1.7
		c-0.2,0.5-0.4,1-0.7,1.4s-0.7,0.7-1.2,0.9c-0.5,0.2-1,0.3-1.7,0.3s-1.2-0.1-1.7-0.3c-0.5-0.2-0.9-0.5-1.2-0.9s-0.6-0.8-0.7-1.4
		c-0.1-0.6-0.3-1.1-0.3-1.7c0-0.6,0.1-1.1,0.3-1.7c0.2-0.6,0.4-1,0.7-1.4s0.7-0.7,1.2-0.9c0.5-0.2,1-0.3,1.7-0.3
		S341.8,22.5,342.3,22.7z M339.4,23.5c-0.4,0.2-0.7,0.5-0.9,0.8c-0.2,0.3-0.4,0.7-0.5,1.1c-0.1,0.4-0.2,0.8-0.2,1.3s0.1,0.9,0.2,1.3
		c0.1,0.4,0.3,0.8,0.5,1.1c0.2,0.3,0.5,0.6,0.9,0.8c0.4,0.2,0.8,0.3,1.3,0.3s0.9-0.1,1.3-0.3c0.4-0.2,0.7-0.5,0.9-0.8
		c0.2-0.3,0.4-0.7,0.5-1.1c0.1-0.4,0.2-0.8,0.2-1.3s-0.1-0.9-0.2-1.3c-0.1-0.4-0.3-0.8-0.5-1.1c-0.2-0.3-0.5-0.6-0.9-0.8
		c-0.4-0.2-0.8-0.3-1.3-0.3S339.8,23.3,339.4,23.5z"/>
	<path class="st1" d="M351.1,24.2c-0.1-0.2-0.3-0.4-0.5-0.6c-0.2-0.1-0.4-0.3-0.7-0.3c-0.2-0.1-0.5-0.1-0.8-0.1
		c-0.2,0-0.4,0-0.7,0.1c-0.3,0.1-0.4,0.1-0.6,0.2c-0.2,0.1-0.3,0.3-0.5,0.4c-0.1,0.2-0.2,0.4-0.2,0.7c0,0.2,0.1,0.4,0.2,0.6
		c0.1,0.2,0.3,0.3,0.4,0.4s0.4,0.2,0.6,0.3s0.4,0.1,0.6,0.2l1.3,0.3c0.3,0,0.6,0.1,0.8,0.2c0.3,0.1,0.5,0.3,0.7,0.4s0.4,0.4,0.5,0.7
		c0.1,0.3,0.2,0.6,0.2,0.9c0,0.4-0.1,0.8-0.3,1.1c-0.2,0.3-0.5,0.6-0.8,0.8c-0.3,0.2-0.7,0.3-1.1,0.4c-0.4,0.1-0.8,0.1-1.2,0.1
		c-1,0-1.7-0.2-2.3-0.7s-0.9-1.2-1-2.2h1c0,0.7,0.3,1.2,0.7,1.5c0.4,0.3,1,0.5,1.7,0.5c0.2,0,0.5,0,0.8-0.1s0.5-0.1,0.7-0.3
		c0.2-0.1,0.4-0.3,0.5-0.5c0.1-0.2,0.2-0.4,0.2-0.7c0-0.2,0-0.4-0.2-0.6s-0.2-0.3-0.4-0.4s-0.4-0.2-0.6-0.3
		c-0.2-0.1-0.4-0.1-0.7-0.2l-1.3-0.3c-0.3-0.1-0.6-0.2-0.9-0.3c-0.3-0.1-0.5-0.2-0.7-0.4s-0.4-0.4-0.5-0.6c-0.1-0.2-0.2-0.5-0.2-0.9
		s0.1-0.8,0.3-1.1c0.2-0.3,0.4-0.5,0.7-0.7c0.3-0.2,0.6-0.3,1-0.4c0.4-0.1,0.7-0.1,1.1-0.1c0.4,0,0.8,0.1,1.2,0.2s0.7,0.3,0.9,0.5
		c0.3,0.2,0.5,0.5,0.6,0.8c0.2,0.3,0.2,0.7,0.3,1.2h-1C351.2,24.7,351.2,24.4,351.1,24.2z"/>
</g>
<g>
	<path class="st0" d="M7.8,47.1c0,0.2,0,0.5,0.2,0.6c0.2,0.1,0.2,0.3,0.4,0.4c0.2,0.1,0.3,0.2,0.5,0.2c0.2,0.1,0.4,0.1,0.6,0.1
		s0.3,0,0.5-0.1c0.2,0,0.3-0.1,0.5-0.2c0.2-0.1,0.3-0.2,0.4-0.3c0.1-0.1,0.1-0.3,0.1-0.5s-0.1-0.3-0.2-0.4c-0.1-0.1-0.3-0.2-0.5-0.3
		s-0.5-0.2-0.8-0.3s-0.7,0-1.1-0.1c-0.3-0.1-0.6-0.2-1-0.3c-0.3-0.1-0.6-0.2-0.8-0.4c-0.2-0.2-0.4-0.4-0.6-0.6
		c-0.1-0.2-0.2-0.6-0.2-0.9c0-0.5,0.1-0.9,0.3-1.3c0.2-0.4,0.5-0.6,0.8-0.8c0.3-0.2,0.7-0.3,1.1-0.4c0.4-0.1,0.9-0.1,1.3-0.1
		s0.9,0,1.3,0.1c0.4,0.1,0.8,0.2,1.1,0.4s0.6,0.5,0.8,0.8s0.3,0.8,0.4,1.3h-2c0-0.4-0.2-0.7-0.5-0.9c-0.3-0.2-0.6-0.2-1-0.2
		c-0.1,0-0.3,0-0.4,0c-0.1,0-0.3,0-0.4,0.1c-0.1,0.1-0.2,0.1-0.3,0.2c-0.1,0.1-0.1,0.2-0.1,0.4c0,0.2,0.1,0.4,0.2,0.5
		c0.1,0.1,0.3,0.2,0.6,0.3c0.2,0.1,0.5,0.2,0.8,0.2s0.6,0.1,0.9,0.2c0.3,0.1,0.6,0.2,1,0.3c0.3,0.1,0.6,0.2,0.8,0.4s0.4,0.4,0.6,0.7
		c0.1,0.3,0.2,0.6,0.2,1c0,0.5-0.1,1-0.3,1.4c-0.2,0.4-0.5,0.7-0.8,0.9S11.5,49.9,11,50c-0.4,0.1-0.9,0.1-1.4,0.1s-0.9,0-1.4-0.1
		c-0.5-0.1-0.9-0.3-1.2-0.5S6.4,49,6.1,48.6c-0.3-0.4-0.4-0.8-0.4-1.4h2.1V47.1z"/>
	<path class="st0" d="M16.4,40.6h-1.6l1.5-2.3h2.5L16.4,40.6z M14.9,41.6h2.3v8.2h-2.3V41.6z"/>
	<path class="st0" d="M19.3,41.6h2.1v1.1l0,0c0.3-0.5,0.7-0.8,1.1-1c0.5-0.2,0.9-0.3,1.4-0.3c0.6,0,1.1,0.1,1.5,0.2
		c0.4,0.1,0.7,0.4,0.9,0.7s0.4,0.6,0.5,1.1c0.1,0.4,0.1,0.9,0.1,1.4v5h-2.3v-4.6c0-0.7-0.1-1.2-0.3-1.5c-0.2-0.3-0.6-0.5-1.1-0.5
		c-0.6,0-1.1,0.2-1.3,0.5c-0.3,0.4-0.4,1-0.4,1.8v4.3h-2.3L19.3,41.6L19.3,41.6z"/>
	<path class="st0" d="M31.9,41.6h1.6v1.5h-1.6v4.1c0,0.4,0.1,0.6,0.2,0.8c0.1,0.2,0.4,0.2,0.8,0.2c0.3,0,0.5,0,0.7-0.1v1.8
		c-0.2,0-0.4,0.1-0.6,0.1s-0.5,0-0.7,0c-0.3,0-0.7,0-1-0.1c-0.3,0-0.6-0.1-0.8-0.3c-0.2-0.2-0.4-0.3-0.6-0.6c-0.1-0.3-0.2-0.6-0.2-1
		v-4.8h-1.4v-1.5h1.4v-2.5H32L31.9,41.6L31.9,41.6z"/>
	<path class="st0" d="M34.6,45.7c0-0.7,0.1-1.3,0.3-1.8s0.5-1,0.9-1.4c0.4-0.4,0.8-0.7,1.3-0.9s1.1-0.3,1.7-0.3s1.2,0.1,1.8,0.3
		c0.6,0.2,1,0.5,1.3,0.9c0.4,0.4,0.7,0.8,0.9,1.4c0.2,0.6,0.3,1.1,0.3,1.8c0,0.7-0.1,1.2-0.3,1.8s-0.5,1-0.9,1.4
		c-0.4,0.4-0.8,0.7-1.3,0.9c-0.5,0.2-1.1,0.3-1.8,0.3s-1.2-0.1-1.7-0.3s-1-0.5-1.3-0.9c-0.4-0.4-0.7-0.8-0.9-1.4
		C34.7,47,34.6,46.4,34.6,45.7z M36.9,45.7c0,0.3,0,0.6,0.1,1c0.1,0.3,0.2,0.6,0.3,0.8c0.2,0.2,0.4,0.4,0.6,0.6
		c0.3,0.1,0.6,0.2,1,0.2s0.7-0.1,1-0.2c0.3-0.1,0.5-0.3,0.6-0.6c0.2-0.2,0.3-0.5,0.3-0.8c0.1-0.3,0.1-0.6,0.1-1c0-0.3,0-0.7-0.1-1
		s-0.2-0.6-0.3-0.8c-0.2-0.2-0.4-0.4-0.6-0.6s-0.6-0.2-1-0.2s-0.7,0.1-1,0.2c-0.3,0.1-0.5,0.4-0.6,0.6S37,44.4,37,44.7
		C36.9,45.1,36.9,45.4,36.9,45.7z"/>
	<path class="st0" d="M45,41.6h2.1v1.1l0,0c0.3-0.4,0.7-0.8,1.1-1c0.4-0.2,0.9-0.3,1.4-0.3s1,0.1,1.4,0.3c0.4,0.2,0.8,0.6,1,1.1
		c0.2-0.4,0.6-0.7,1-1s0.9-0.4,1.5-0.4c0.4,0,0.8,0.1,1.2,0.2c0.4,0.1,0.7,0.3,1,0.5s0.5,0.5,0.6,0.9c0.1,0.4,0.2,0.8,0.2,1.4v5.5
		h-2.3v-4.6c0-0.3,0-0.5,0-0.8S55.1,44,55,43.9c-0.1-0.2-0.2-0.3-0.4-0.4c-0.2-0.1-0.4-0.2-0.8-0.2s-0.6,0.1-0.8,0.2
		c-0.2,0.1-0.3,0.3-0.5,0.5c0,0,0,0.2-0.1,0.5c0,0.2-0.1,0.5-0.1,0.8v4.6H50v-4.7c0-0.2,0-0.5,0-0.7s-0.1-0.5-0.1-0.7
		c-0.1-0.2-0.2-0.4-0.4-0.5c-0.2-0.1-0.5-0.2-0.8-0.2c-0.1,0-0.3,0-0.4,0.1c-0.2,0-0.3,0.1-0.5,0.3c-0.2,0.1-0.3,0.3-0.4,0.6
		c-0.1,0.2-0.2,0.6-0.2,1v4.8h-2.3L45,41.6L45,41.6z"/>
	<path class="st0" d="M59.5,44.1c0-0.5,0.2-1,0.4-1.3s0.5-0.6,0.9-0.8c0.4-0.2,0.8-0.4,1.2-0.5c0.4-0.1,0.9-0.1,1.4-0.1
		c0.4,0,0.8,0,1.3,0.1c0.4,0.1,0.8,0.2,1.2,0.3c0.3,0.2,0.6,0.4,0.9,0.7c0.2,0.3,0.3,0.7,0.3,1.2V48c0,0.4,0,0.7,0.1,1.1
		c0,0.3,0.1,0.6,0.2,0.8h-2.3c0-0.1-0.1-0.3-0.1-0.4c0-0.1,0-0.3-0.1-0.4c-0.4,0.4-0.8,0.6-1.3,0.8s-1,0.2-1.5,0.2
		c-0.4,0-0.8,0-1.1-0.2c-0.3-0.1-0.6-0.3-0.9-0.5c-0.3-0.2-0.5-0.5-0.6-0.8s-0.2-0.7-0.2-1.1c0-0.5,0.1-0.8,0.2-1.1
		c0.2-0.3,0.4-0.5,0.6-0.7c0.3-0.2,0.6-0.3,0.9-0.4c0.3-0.1,0.7-0.2,1-0.2c0.3-0.1,0.7-0.1,1-0.1s0.6-0.1,0.8-0.1s0.4-0.2,0.6-0.3
		c0.1-0.1,0.2-0.3,0.2-0.5s0-0.4-0.1-0.6c-0.1-0.1-0.2-0.3-0.3-0.3c-0.1-0.1-0.3-0.1-0.5-0.2c-0.2,0-0.4,0-0.6,0
		c-0.4,0-0.8,0.1-1,0.3c-0.3,0.2-0.4,0.5-0.5,1h-2.1V44.1z M64.7,45.8c-0.1,0.1-0.2,0.2-0.4,0.2c-0.2,0-0.3,0.1-0.5,0.1
		s-0.3,0.1-0.5,0.1s-0.4,0-0.5,0.1c-0.2,0-0.3,0.1-0.5,0.1c-0.2,0.1-0.3,0.1-0.4,0.2c-0.1,0.1-0.2,0.2-0.3,0.3
		c-0.1,0.2-0.1,0.4-0.1,0.6c0,0.2,0,0.4,0.1,0.5c0.1,0.1,0.2,0.2,0.3,0.3s0.3,0.1,0.4,0.2c0.2,0,0.3,0,0.5,0c0.4,0,0.8-0.1,1-0.2
		c0.2-0.1,0.4-0.3,0.5-0.5s0.2-0.4,0.2-0.6s0-0.4,0-0.5v-0.9H64.7z"/>
	<path class="st0" d="M70.8,47.1c0,0.2,0.1,0.5,0.2,0.6c0.1,0.2,0.2,0.3,0.4,0.4c0.2,0.1,0.3,0.2,0.5,0.2c0.2,0.1,0.4,0.1,0.6,0.1
		s0.3,0,0.5-0.1c0.2,0,0.3-0.1,0.5-0.2c0.1-0.1,0.3-0.2,0.4-0.3c0.1-0.1,0.1-0.3,0.1-0.5s-0.1-0.3-0.2-0.4c-0.1-0.1-0.3-0.2-0.5-0.3
		s-0.5-0.2-0.8-0.3s-0.7-0.2-1.1-0.2c-0.3-0.1-0.6-0.2-1-0.3c-0.3-0.1-0.6-0.2-0.8-0.4c-0.2-0.2-0.4-0.4-0.6-0.6
		c-0.1-0.2-0.2-0.6-0.2-0.9c0-0.5,0.1-0.9,0.3-1.3c0.2-0.3,0.5-0.6,0.8-0.8c0.3-0.2,0.7-0.3,1.1-0.4c0.4-0.1,0.9-0.1,1.3-0.1
		s0.9,0,1.3,0.1c0.4,0.1,0.8,0.2,1.1,0.4c0.3,0.2,0.6,0.5,0.8,0.8s0.3,0.8,0.4,1.3h-2.1c0-0.4-0.2-0.7-0.5-0.9
		c-0.3-0.2-0.6-0.2-1-0.2c-0.1,0-0.3,0-0.4,0s-0.3,0-0.4,0.1c-0.1,0.1-0.2,0.1-0.3,0.2c-0.1,0.1-0.1,0.2-0.1,0.4
		c0,0.2,0.1,0.4,0.2,0.5c0.1,0.1,0.3,0.2,0.6,0.3c0.2,0.1,0.5,0.2,0.8,0.2c0.3,0.1,0.6,0.1,0.9,0.2c0.3,0.1,0.6,0.2,1,0.3
		c0.3,0.1,0.6,0.2,0.8,0.4c0.2,0.2,0.4,0.4,0.6,0.7c0.1,0.3,0.2,0.6,0.2,1c0,0.5-0.1,1-0.3,1.4c-0.2,0.4-0.5,0.7-0.8,0.9
		s-0.7,0.4-1.2,0.5C73.5,50,73,50,72.5,50s-0.9,0-1.4-0.1c-0.5-0.1-0.9-0.3-1.2-0.5c-0.4-0.2-0.6-0.5-0.9-0.9
		c-0.2-0.4-0.4-0.8-0.4-1.4C68.6,47.1,70.8,47.1,70.8,47.1z"/>
	<path class="st0" d="M83.1,43.1h-1.3v-1.5h1.3V41c0-0.4,0.1-0.7,0.2-1s0.3-0.6,0.5-0.8s0.5-0.4,0.9-0.5c0.3-0.1,0.7-0.2,1.2-0.2
		c0.2,0,0.4,0,0.6,0s0.4,0,0.6,0v1.7c-0.3,0-0.5,0-0.8,0s-0.5,0.1-0.7,0.2c-0.1,0.1-0.2,0.4-0.2,0.7v0.5H87v1.5h-1.6v6.7h-2.3
		C83.1,49.8,83.1,43.1,83.1,43.1z"/>
	<path class="st0" d="M89.7,40.6h-1.6l1.5-2.3h2.5L89.7,40.6z M88.2,41.6h2.3v8.2h-2.3V41.6z"/>
	<path class="st0" d="M94.3,47.1c0,0.2,0.1,0.5,0.2,0.6c0.1,0.2,0.2,0.3,0.4,0.4c0.2,0.1,0.3,0.2,0.5,0.2c0.2,0.1,0.4,0.1,0.6,0.1
		s0.3,0,0.5-0.1c0.2,0,0.3-0.1,0.5-0.2c0.1-0.1,0.3-0.2,0.4-0.3c0.1-0.1,0.1-0.3,0.1-0.5s-0.1-0.3-0.2-0.4c-0.1-0.1-0.3-0.2-0.5-0.3
		s-0.5-0.2-0.8-0.3s-0.7-0.2-1.1-0.2c-0.3-0.1-0.6-0.2-1-0.3c-0.3-0.1-0.6-0.2-0.8-0.4c-0.2-0.2-0.4-0.4-0.6-0.6
		c-0.1-0.2-0.2-0.6-0.2-0.9c0-0.5,0.1-0.9,0.3-1.3c0.2-0.3,0.5-0.6,0.8-0.8c0.3-0.2,0.7-0.3,1.1-0.4c0.4-0.1,0.9-0.1,1.3-0.1
		s0.9,0,1.3,0.1c0.4,0.1,0.8,0.2,1.1,0.4c0.3,0.2,0.6,0.5,0.8,0.8s0.3,0.8,0.4,1.3h-2.1c0-0.4-0.2-0.7-0.5-0.9
		c-0.3-0.2-0.6-0.2-1-0.2c-0.1,0-0.3,0-0.4,0s-0.3,0-0.4,0.1c-0.1,0.1-0.2,0.1-0.3,0.2c-0.1,0.1-0.1,0.2-0.1,0.4
		c0,0.2,0.1,0.4,0.2,0.5c0.1,0.1,0.3,0.2,0.6,0.3c0.2,0.1,0.5,0.2,0.8,0.2c0.3,0.1,0.6,0.1,0.9,0.2c0.3,0.1,0.6,0.2,1,0.3
		c0.3,0.1,0.6,0.2,0.8,0.4c0.2,0.2,0.4,0.4,0.6,0.7c0.1,0.3,0.2,0.6,0.2,1c0,0.5-0.1,1-0.3,1.4c-0.2,0.4-0.5,0.7-0.8,0.9
		s-0.7,0.4-1.2,0.5C97,50,96.5,50,96,50s-0.9,0-1.4-0.1c-0.5-0.1-0.9-0.3-1.2-0.5c-0.4-0.2-0.6-0.5-0.9-0.9
		c-0.2-0.4-0.4-0.8-0.4-1.4C92.1,47.1,94.3,47.1,94.3,47.1z"/>
	<path class="st0" d="M103.7,40.3h-2.2v-1.9h2.3v1.9H103.7z M101.5,41.6h2.3v8.2h-2.3V41.6z"/>
	<path class="st0" d="M111.4,44.5c-0.1-0.9-0.7-1.4-1.7-1.4c-0.4,0-0.7,0.1-0.9,0.2c-0.2,0.2-0.4,0.4-0.6,0.6
		c-0.2,0.3-0.3,0.5-0.3,0.9c-0.1,0.3-0.1,0.6-0.1,0.9s0,0.6,0.1,0.9s0.2,0.6,0.3,0.8c0.1,0.2,0.3,0.5,0.6,0.6
		c0.3,0.1,0.5,0.2,0.9,0.2c0.5,0,0.9-0.2,1.2-0.5c0.3-0.3,0.5-0.7,0.6-1.2h2.2c-0.1,1.1-0.6,1.9-1.3,2.5c-0.7,0.6-1.6,0.9-2.7,0.9
		c-0.6,0-1.2-0.1-1.7-0.3c-0.5-0.2-0.9-0.5-1.3-0.9c-0.4-0.4-0.6-0.8-0.8-1.3c-0.2-0.5-0.3-1.1-0.3-1.7c0-0.6,0.1-1.2,0.3-1.8
		c0.2-0.5,0.5-1,0.8-1.4c0.3-0.4,0.8-0.7,1.3-0.9s1.1-0.3,1.8-0.3c0.5,0,1,0.1,1.4,0.2c0.4,0.1,0.8,0.3,1.2,0.6
		c0.4,0.3,0.6,0.6,0.9,1c0.2,0.4,0.4,0.8,0.4,1.4C113.7,44.5,111.4,44.5,111.4,44.5z"/>
	<path class="st0" d="M115,45.7c0-0.7,0.1-1.3,0.3-1.8c0.2-0.5,0.5-1,0.9-1.4c0.4-0.4,0.8-0.7,1.3-0.9s1.1-0.3,1.7-0.3
		s1.2,0.1,1.8,0.3c0.6,0.2,1,0.5,1.3,0.9c0.4,0.4,0.7,0.8,0.9,1.4c0.2,0.6,0.3,1.1,0.3,1.8c0,0.7-0.1,1.2-0.3,1.8s-0.5,1-0.9,1.4
		c-0.4,0.4-0.8,0.7-1.3,0.9c-0.5,0.2-1.1,0.3-1.8,0.3c-0.6,0-1.2-0.1-1.7-0.3s-1-0.5-1.3-0.9c-0.4-0.4-0.7-0.8-0.9-1.4
		C115.1,47,115,46.4,115,45.7z M117.2,45.7c0,0.3,0,0.6,0.1,1c0.1,0.3,0.2,0.6,0.3,0.8c0.2,0.2,0.4,0.4,0.6,0.6
		c0.3,0.1,0.6,0.2,1,0.2s0.7-0.1,1-0.2c0.3-0.1,0.5-0.3,0.6-0.6c0.2-0.2,0.3-0.5,0.3-0.8c0.1-0.3,0.1-0.6,0.1-1c0-0.3,0-0.7-0.1-1
		s-0.2-0.6-0.3-0.8c-0.1-0.2-0.4-0.4-0.6-0.6c-0.3-0.2-0.6-0.2-1-0.2s-0.7,0.1-1,0.2c-0.3,0.1-0.5,0.4-0.6,0.6
		c-0.2,0.2-0.3,0.5-0.3,0.8S117.2,45.4,117.2,45.7z"/>
	<path class="st0" d="M127,47.1c0,0.2,0.1,0.5,0.2,0.6c0.1,0.2,0.2,0.3,0.4,0.4c0.2,0.1,0.3,0.2,0.5,0.2c0.2,0.1,0.4,0.1,0.6,0.1
		s0.3,0,0.5-0.1c0.2,0,0.3-0.1,0.5-0.2c0.1-0.1,0.3-0.2,0.4-0.3c0.1-0.1,0.1-0.3,0.1-0.5s-0.1-0.3-0.2-0.4c-0.1-0.1-0.3-0.2-0.5-0.3
		s-0.5-0.2-0.8-0.3s-0.7-0.2-1.1-0.2c-0.3-0.1-0.6-0.2-1-0.3c-0.3-0.1-0.6-0.2-0.8-0.4c-0.2-0.2-0.4-0.4-0.6-0.6
		c-0.1-0.2-0.2-0.6-0.2-0.9c0-0.5,0.1-0.9,0.3-1.3c0.2-0.3,0.5-0.6,0.8-0.8c0.3-0.2,0.7-0.3,1.1-0.4c0.4-0.1,0.9-0.1,1.3-0.1
		c0.4,0,0.9,0,1.3,0.1c0.4,0.1,0.8,0.2,1.1,0.4s0.6,0.5,0.8,0.8s0.3,0.8,0.4,1.3H130c0-0.4-0.2-0.7-0.5-0.9c-0.3-0.2-0.6-0.2-1-0.2
		c-0.1,0-0.3,0-0.4,0c-0.1,0-0.3,0-0.4,0.1c-0.1,0.1-0.2,0.1-0.3,0.2c-0.1,0.1-0.1,0.2-0.1,0.4c0,0.2,0.1,0.4,0.2,0.5
		c0.1,0.1,0.3,0.2,0.6,0.3c0.2,0.1,0.5,0.2,0.8,0.2c0.3,0.1,0.6,0.1,0.9,0.2c0.3,0.1,0.6,0.2,1,0.3c0.3,0.1,0.6,0.2,0.8,0.4
		s0.4,0.4,0.6,0.7c0.1,0.3,0.2,0.6,0.2,1c0,0.5-0.1,1-0.3,1.4c-0.2,0.4-0.5,0.7-0.8,0.9s-0.7,0.4-1.2,0.5c-0.4,0.1-0.9,0.1-1.4,0.1
		s-0.9,0-1.4-0.1c-0.5-0.1-0.9-0.3-1.2-0.5c-0.4-0.2-0.6-0.5-0.9-0.9c-0.2-0.4-0.4-0.8-0.4-1.4C124.8,47.1,127,47.1,127,47.1z"/>
	<path class="st0" d="M142.9,50.8c-0.2,0.7-0.6,1.1-1,1.4s-1,0.4-1.8,0.4c-0.2,0-0.5,0-0.7,0s-0.5,0-0.7-0.1v-1.9
		c0.2,0,0.4,0,0.6,0.1c0.2,0,0.4,0,0.7,0c0.2,0,0.4-0.1,0.5-0.2c0.1-0.1,0.2-0.2,0.3-0.4c0.1-0.2,0.1-0.3,0.1-0.5s0-0.3-0.1-0.5
		l-2.9-7.7h2.4l1.9,5.6l0,0l1.8-5.6h2.3L142.9,50.8z"/>
	<path class="st0" d="M152.7,41.6h2.1v1l0,0c0.3-0.4,0.6-0.8,1-1s0.9-0.3,1.4-0.3c0.6,0,1.2,0.1,1.7,0.4s0.9,0.6,1.2,1
		c0.3,0.4,0.5,0.9,0.7,1.4s0.2,1.1,0.2,1.7c0,0.5-0.1,1.1-0.2,1.6c-0.1,0.5-0.4,1-0.7,1.3c-0.3,0.4-0.7,0.7-1.1,0.9
		c-0.5,0.2-1,0.4-1.6,0.4c-0.5,0-1-0.1-1.4-0.3s-0.8-0.5-1.1-0.9l0,0v3.9h-2.3V41.6H152.7z M156.9,48.3c0.4,0,0.7-0.1,0.9-0.2
		c0.2-0.1,0.4-0.3,0.6-0.6c0.2-0.2,0.3-0.5,0.3-0.8s0.1-0.6,0.1-1c0-0.3,0-0.7-0.1-1s-0.2-0.6-0.3-0.8c-0.2-0.2-0.4-0.4-0.6-0.6
		c-0.2-0.2-0.6-0.2-0.9-0.2c-0.4,0-0.7,0.1-0.9,0.2c-0.2,0.2-0.4,0.4-0.6,0.6s-0.3,0.5-0.3,0.8c-0.1,0.3-0.1,0.6-0.1,1
		c0,0.3,0,0.7,0.1,1s0.2,0.6,0.3,0.8c0.2,0.2,0.4,0.4,0.6,0.6C156.2,48.2,156.5,48.3,156.9,48.3z"/>
	<path class="st0" d="M164.8,47.1c0,0.2,0.1,0.5,0.2,0.6c0.1,0.2,0.2,0.3,0.4,0.4c0.2,0.1,0.3,0.2,0.5,0.2c0.2,0.1,0.4,0.1,0.6,0.1
		c0.2,0,0.3,0,0.5-0.1c0.2,0,0.3-0.1,0.5-0.2c0.1-0.1,0.3-0.2,0.4-0.3c0.1-0.1,0.1-0.3,0.1-0.5s-0.1-0.3-0.2-0.4
		c-0.1-0.1-0.3-0.2-0.5-0.3s-0.5-0.2-0.8-0.3s-0.7-0.2-1.1-0.2c-0.3-0.1-0.6-0.2-1-0.3c-0.3-0.1-0.6-0.2-0.8-0.4
		c-0.2-0.2-0.4-0.4-0.6-0.6c-0.1-0.2-0.2-0.6-0.2-0.9c0-0.5,0.1-0.9,0.3-1.3c0.2-0.3,0.5-0.6,0.8-0.8c0.3-0.2,0.7-0.3,1.1-0.4
		c0.4-0.1,0.9-0.1,1.3-0.1s0.9,0,1.3,0.1c0.4,0.1,0.8,0.2,1.1,0.4s0.6,0.5,0.8,0.8s0.3,0.8,0.4,1.3h-2.1c0-0.4-0.2-0.7-0.5-0.9
		c-0.3-0.2-0.6-0.2-1-0.2c-0.1,0-0.3,0-0.4,0c-0.1,0-0.3,0-0.4,0.1c-0.1,0.1-0.2,0.1-0.3,0.2c-0.1,0.1-0.1,0.2-0.1,0.4
		c0,0.2,0.1,0.4,0.2,0.5c0.1,0.1,0.3,0.2,0.6,0.3c0.2,0.1,0.5,0.2,0.8,0.2c0.3,0.1,0.6,0.1,0.9,0.2c0.3,0.1,0.6,0.2,1,0.3
		c0.3,0.1,0.6,0.2,0.8,0.4s0.4,0.4,0.6,0.7c0.1,0.3,0.2,0.6,0.2,1c0,0.5-0.1,1-0.3,1.4c-0.2,0.4-0.5,0.7-0.8,0.9s-0.7,0.4-1.2,0.5
		c-0.4,0.1-0.9,0.1-1.4,0.1s-0.9,0-1.4-0.1c-0.5-0.1-0.9-0.3-1.2-0.5c-0.4-0.2-0.6-0.5-0.9-0.9c-0.2-0.4-0.4-0.8-0.4-1.4
		C162.6,47.1,164.8,47.1,164.8,47.1z"/>
	<path class="st0" d="M173.8,40.6h-1.6l1.5-2.3h2.5L173.8,40.6z M172.3,41.6h2.3v8.2h-2.3V41.6z"/>
	<path class="st0" d="M184.9,52.7h-2.3v-3.9l0,0c-0.3,0.4-0.6,0.8-1.1,1s-1,0.3-1.5,0.3c-0.4,0-0.8-0.1-1.2-0.2
		c-0.4-0.1-0.8-0.4-1.1-0.7s-0.6-0.8-0.8-1.3s-0.3-1.2-0.3-2c0-0.6,0.1-1.1,0.2-1.6s0.4-1,0.7-1.4c0.3-0.4,0.7-0.7,1.2-1
		s1-0.4,1.6-0.4c0.5,0,1,0.1,1.4,0.3c0.4,0.2,0.8,0.5,1.1,1l0,0v-1h2.1L184.9,52.7L184.9,52.7z M178.8,45.7c0,0.3,0,0.6,0.1,1
		c0.1,0.3,0.2,0.6,0.3,0.8c0.2,0.2,0.4,0.4,0.6,0.6c0.2,0.1,0.6,0.2,0.9,0.2c0.4,0,0.7-0.1,0.9-0.2c0.3-0.1,0.5-0.3,0.6-0.6
		c0.2-0.2,0.3-0.5,0.3-0.8c0.1-0.3,0.1-0.6,0.1-1c0-0.3,0-0.6-0.1-1c-0.1-0.3-0.2-0.6-0.3-0.9s-0.3-0.5-0.6-0.6
		c-0.2-0.2-0.5-0.2-0.9-0.2s-0.7,0.1-0.9,0.2c-0.3,0.1-0.5,0.3-0.6,0.6c-0.2,0.2-0.3,0.5-0.3,0.8C178.9,45.1,178.8,45.4,178.8,45.7z
		"/>
	<path class="st0" d="M194.9,49.8h-2.1v-1.1l0,0c-0.3,0.5-0.7,0.8-1.1,1c-0.5,0.2-0.9,0.3-1.4,0.3c-0.6,0-1.1-0.1-1.5-0.2
		c-0.4-0.2-0.7-0.4-0.9-0.7c-0.2-0.3-0.4-0.6-0.5-1.1c-0.1-0.4-0.1-0.9-0.1-1.4v-5h2.3v4.6c0,0.7,0.1,1.2,0.3,1.5s0.6,0.5,1.1,0.5
		c0.6,0,1.1-0.2,1.3-0.5c0.3-0.4,0.4-1,0.4-1.8v-4.3h2.3v8.2H194.9z"/>
	<path class="st0" d="M199.6,40.3h-2.3v-1.9h2.3V40.3z M197.4,41.6h2.3v8.2h-2.3V41.6z"/>
	<path class="st0" d="M207.6,44.5c-0.1-0.9-0.7-1.4-1.7-1.4c-0.4,0-0.7,0.1-0.9,0.2c-0.2,0.2-0.4,0.4-0.6,0.6
		c-0.2,0.3-0.3,0.5-0.3,0.9c-0.1,0.3-0.1,0.6-0.1,0.9s0,0.6,0.1,0.9s0.2,0.6,0.3,0.8s0.3,0.5,0.6,0.6c0.3,0.1,0.5,0.2,0.9,0.2
		c0.5,0,0.9-0.2,1.2-0.5s0.5-0.7,0.6-1.2h2.2c-0.1,1.1-0.6,1.9-1.3,2.5c-0.7,0.6-1.6,0.9-2.7,0.9c-0.6,0-1.2-0.1-1.7-0.3
		c-0.5-0.2-0.9-0.5-1.3-0.9c-0.4-0.4-0.6-0.8-0.8-1.3s-0.3-1.1-0.3-1.7c0-0.6,0.1-1.2,0.3-1.8c0.2-0.5,0.5-1,0.8-1.4
		c0.3-0.4,0.8-0.7,1.3-0.9s1.1-0.3,1.8-0.3c0.5,0,1,0.1,1.4,0.2c0.4,0.1,0.8,0.3,1.2,0.6c0.4,0.3,0.6,0.6,0.9,1
		c0.2,0.4,0.4,0.8,0.4,1.4C209.9,44.5,207.6,44.5,207.6,44.5z"/>
	<path class="st0" d="M211.5,45.7c0-0.7,0.1-1.3,0.3-1.8s0.5-1,0.9-1.4c0.4-0.4,0.8-0.7,1.3-0.9s1.1-0.3,1.7-0.3
		c0.6,0,1.2,0.1,1.8,0.3c0.6,0.2,1,0.5,1.3,0.9c0.4,0.4,0.7,0.8,0.9,1.4c0.2,0.6,0.3,1.1,0.3,1.8c0,0.7-0.1,1.2-0.3,1.8
		s-0.5,1-0.9,1.4c-0.4,0.4-0.8,0.7-1.3,0.9c-0.5,0.2-1.1,0.3-1.8,0.3c-0.6,0-1.2-0.1-1.7-0.3s-1-0.5-1.3-0.9
		c-0.4-0.4-0.7-0.8-0.9-1.4C211.6,47,211.5,46.4,211.5,45.7z M213.8,45.7c0,0.3,0,0.6,0.1,1c0.1,0.3,0.2,0.6,0.3,0.8
		c0.2,0.2,0.4,0.4,0.6,0.6c0.3,0.1,0.6,0.2,1,0.2s0.7-0.1,1-0.2c0.3-0.1,0.5-0.3,0.6-0.6c0.2-0.2,0.3-0.5,0.3-0.8
		c0.1-0.3,0.1-0.6,0.1-1c0-0.3,0-0.7-0.1-1s-0.2-0.6-0.3-0.8c-0.1-0.2-0.4-0.4-0.6-0.6c-0.3-0.2-0.6-0.2-1-0.2s-0.7,0.1-1,0.2
		c-0.3,0.1-0.5,0.4-0.6,0.6c-0.2,0.2-0.3,0.5-0.3,0.8S213.8,45.4,213.8,45.7z"/>
	<path class="st0" d="M223.8,47.1c0,0.2,0.1,0.5,0.2,0.6c0.1,0.2,0.2,0.3,0.4,0.4c0.2,0.1,0.3,0.2,0.5,0.2c0.2,0.1,0.4,0.1,0.6,0.1
		c0.2,0,0.3,0,0.5-0.1c0.2,0,0.3-0.1,0.5-0.2c0.1-0.1,0.3-0.2,0.4-0.3c0.1-0.1,0.1-0.3,0.1-0.5s-0.1-0.3-0.2-0.4
		c-0.1-0.1-0.3-0.2-0.5-0.3s-0.5-0.2-0.8-0.3s-0.7-0.2-1.1-0.2c-0.3-0.1-0.6-0.2-1-0.3c-0.3-0.1-0.6-0.2-0.8-0.4
		c-0.2-0.2-0.4-0.4-0.6-0.6c-0.1-0.2-0.2-0.6-0.2-0.9c0-0.5,0.1-0.9,0.3-1.3c0.2-0.3,0.5-0.6,0.8-0.8c0.3-0.2,0.7-0.3,1.1-0.4
		c0.4-0.1,0.9-0.1,1.3-0.1s0.9,0,1.3,0.1c0.4,0.1,0.8,0.2,1.1,0.4s0.6,0.5,0.8,0.8s0.3,0.8,0.4,1.3h-2.1c0-0.4-0.2-0.7-0.5-0.9
		c-0.3-0.2-0.6-0.2-1-0.2c-0.1,0-0.3,0-0.4,0c-0.1,0-0.3,0-0.4,0.1c-0.1,0.1-0.2,0.1-0.3,0.2c-0.1,0.1-0.1,0.2-0.1,0.4
		c0,0.2,0.1,0.4,0.2,0.5c0.1,0.1,0.3,0.2,0.6,0.3c0.2,0.1,0.5,0.2,0.8,0.2c0.3,0.1,0.6,0.1,0.9,0.2c0.3,0.1,0.6,0.2,1,0.3
		c0.3,0.1,0.6,0.2,0.8,0.4s0.4,0.4,0.6,0.7c0.1,0.3,0.2,0.6,0.2,1c0,0.5-0.1,1-0.3,1.4c-0.2,0.4-0.5,0.7-0.8,0.9s-0.7,0.4-1.2,0.5
		c-0.4,0.1-0.9,0.1-1.4,0.1s-0.9,0-1.4-0.1c-0.5-0.1-0.9-0.3-1.2-0.5c-0.4-0.2-0.6-0.5-0.9-0.9c-0.2-0.4-0.4-0.8-0.4-1.4
		C221.6,47.1,223.8,47.1,223.8,47.1z"/>
	<path class="st0" d="M242.1,48.7L242.1,48.7c-0.3,0.4-0.6,0.8-1.1,1c-0.4,0.2-0.9,0.3-1.4,0.3c-0.6,0-1.2-0.1-1.6-0.4
		s-0.8-0.6-1.1-1c-0.3-0.4-0.5-0.9-0.7-1.4s-0.2-1.1-0.2-1.6s0.1-1.1,0.2-1.6s0.4-1,0.7-1.4c0.3-0.4,0.7-0.7,1.1-0.9
		c0.5-0.2,1-0.4,1.6-0.4c0.5,0,0.9,0.1,1.4,0.3c0.4,0.2,0.8,0.5,1,0.9l0,0v-4.1h2.3v11.3h-2.1L242.1,48.7L242.1,48.7z M242.1,45.7
		c0-0.3,0-0.6-0.1-1c-0.1-0.4-0.2-0.6-0.3-0.8c-0.2-0.2-0.4-0.4-0.6-0.6c-0.2-0.1-0.6-0.2-0.9-0.2c-0.4,0-0.7,0.1-0.9,0.2
		c-0.3,0.1-0.5,0.3-0.6,0.6c-0.2,0.2-0.3,0.5-0.3,0.8c-0.1,0.3-0.1,0.6-0.1,1c0,0.3,0,0.6,0.1,1c0.1,0.3,0.2,0.6,0.4,0.8
		c0.2,0.2,0.4,0.4,0.6,0.6c0.2,0.2,0.5,0.2,0.9,0.2s0.7-0.1,0.9-0.2c0.2-0.1,0.4-0.3,0.6-0.6c0.1-0.2,0.3-0.5,0.3-0.8
		C242.1,46.3,242.1,46,242.1,45.7z"/>
	<path class="st0" d="M248.5,46.2c0,0.7,0.2,1.2,0.6,1.6c0.3,0.3,0.8,0.5,1.5,0.5c0.5,0,0.8-0.1,1.2-0.3c0.3-0.2,0.5-0.5,0.6-0.7h2
		c-0.3,1-0.8,1.7-1.5,2.1c-0.7,0.4-1.4,0.6-2.4,0.6c-0.6,0-1.2-0.1-1.7-0.3c-0.5-0.2-1-0.5-1.3-0.9c-0.3-0.4-0.6-0.8-0.8-1.4
		c-0.2-0.5-0.3-1.1-0.3-1.7c0-0.6,0.1-1.2,0.3-1.7s0.5-1,0.9-1.4c0.4-0.4,0.8-0.7,1.3-0.9c0.5-0.2,1.1-0.3,1.7-0.3
		c0.7,0,1.3,0.1,1.8,0.4s0.9,0.6,1.3,1.1c0.3,0.5,0.6,1,0.7,1.6c0.1,0.6,0.2,1.2,0.2,1.8h-6.1V46.2z M252.1,44.8
		c-0.1-0.6-0.3-1-0.6-1.3s-0.7-0.4-1.2-0.4c-0.4,0-0.7,0.1-0.9,0.2c-0.2,0.1-0.4,0.3-0.6,0.5s-0.2,0.4-0.3,0.6s-0.1,0.4-0.1,0.5h3.7
		V44.8z"/>
	<path class="st0" d="M256.4,38.5h2.3v11.3h-2.3L256.4,38.5L256.4,38.5z"/>
	<path class="st0" d="M268,46.2c0,0.7,0.2,1.2,0.6,1.6c0.3,0.3,0.8,0.5,1.5,0.5c0.5,0,0.8-0.1,1.2-0.3c0.3-0.2,0.5-0.5,0.6-0.7h2
		c-0.3,1-0.8,1.7-1.5,2.1c-0.7,0.4-1.4,0.6-2.4,0.6c-0.6,0-1.2-0.1-1.7-0.3c-0.5-0.2-1-0.5-1.3-0.9c-0.3-0.4-0.6-0.8-0.8-1.4
		c-0.2-0.5-0.3-1.1-0.3-1.7c0-0.6,0.1-1.2,0.3-1.7c0.2-0.5,0.5-1,0.9-1.4c0.4-0.4,0.8-0.7,1.3-0.9c0.5-0.2,1.1-0.3,1.7-0.3
		c0.7,0,1.3,0.1,1.8,0.4s0.9,0.6,1.3,1.1c0.3,0.5,0.6,1,0.7,1.6c0.1,0.6,0.2,1.2,0.2,1.8H268V46.2z M271.6,44.8
		c-0.1-0.6-0.3-1-0.6-1.3s-0.7-0.4-1.2-0.4c-0.4,0-0.7,0.1-0.9,0.2c-0.2,0.1-0.4,0.3-0.6,0.5s-0.2,0.4-0.3,0.6
		c-0.1,0.2-0.1,0.4-0.1,0.5h3.7V44.8z"/>
	<path class="st0" d="M277.6,47.1c0,0.2,0.1,0.5,0.2,0.6c0.1,0.2,0.2,0.3,0.4,0.4c0.2,0.1,0.3,0.2,0.5,0.2c0.2,0.1,0.4,0.1,0.6,0.1
		s0.3,0,0.5-0.1c0.2,0,0.3-0.1,0.5-0.2c0.1-0.1,0.3-0.2,0.4-0.3c0.1-0.1,0.1-0.3,0.1-0.5s-0.1-0.3-0.2-0.4c-0.1-0.1-0.3-0.2-0.5-0.3
		s-0.5-0.2-0.8-0.3s-0.7-0.2-1.1-0.2c-0.3-0.1-0.6-0.2-1-0.3c-0.3-0.1-0.6-0.2-0.8-0.4c-0.2-0.2-0.4-0.4-0.6-0.6
		c-0.1-0.2-0.2-0.6-0.2-0.9c0-0.5,0.1-0.9,0.3-1.3c0.2-0.3,0.5-0.6,0.8-0.8c0.3-0.2,0.7-0.3,1.1-0.4c0.4-0.1,0.9-0.1,1.3-0.1
		s0.9,0,1.3,0.1c0.4,0.1,0.8,0.2,1.1,0.4c0.3,0.2,0.6,0.5,0.8,0.8s0.3,0.8,0.4,1.3h-2.1c0-0.4-0.2-0.7-0.5-0.9
		c-0.3-0.2-0.6-0.2-1-0.2c-0.1,0-0.3,0-0.4,0s-0.3,0-0.4,0.1c-0.1,0.1-0.2,0.1-0.3,0.2c-0.1,0.1-0.1,0.2-0.1,0.4
		c0,0.2,0.1,0.4,0.2,0.5c0.1,0.1,0.3,0.2,0.6,0.3c0.2,0.1,0.5,0.2,0.8,0.2c0.3,0.1,0.6,0.1,0.9,0.2c0.3,0.1,0.6,0.2,1,0.3
		c0.3,0.1,0.6,0.2,0.8,0.4c0.2,0.2,0.4,0.4,0.6,0.7c0.1,0.3,0.2,0.6,0.2,1c0,0.5-0.1,1-0.3,1.4c-0.2,0.4-0.5,0.7-0.8,0.9
		s-0.7,0.4-1.2,0.5c-0.4,0.1-0.9,0.1-1.4,0.1s-0.9,0-1.4-0.1c-0.5-0.1-0.9-0.3-1.2-0.5c-0.4-0.2-0.6-0.5-0.9-0.9
		c-0.2-0.4-0.4-0.8-0.4-1.4C275.4,47.1,277.6,47.1,277.6,47.1z"/>
	<path class="st0" d="M287.8,41.6h1.6v1.5h-1.6v4.1c0,0.4,0.1,0.6,0.2,0.8c0.1,0.2,0.4,0.2,0.8,0.2c0.3,0,0.5,0,0.7-0.1v1.8
		c-0.2,0-0.4,0.1-0.6,0.1s-0.5,0-0.7,0c-0.3,0-0.7,0-1-0.1c-0.3,0-0.6-0.1-0.8-0.3c-0.2-0.1-0.4-0.3-0.6-0.6c-0.2-0.3-0.2-0.6-0.2-1
		v-4.8h-1.4v-1.5h1.4v-2.5h2.3L287.8,41.6L287.8,41.6z"/>
	<path class="st0" d="M291.2,41.6h2.1v1.5l0,0c0.1-0.3,0.2-0.5,0.4-0.7s0.4-0.4,0.6-0.6s0.5-0.3,0.8-0.4c0.3-0.1,0.5-0.1,0.8-0.1
		c0.2,0,0.3,0,0.5,0.1v2.1c-0.1,0-0.2,0-0.4-0.1c-0.1,0-0.3,0-0.4,0c-0.4,0-0.8,0.1-1,0.2c-0.3,0.1-0.5,0.3-0.7,0.6
		c-0.2,0.2-0.3,0.5-0.4,0.8s-0.1,0.7-0.1,1v3.7h-2.3v-8.1H291.2z"/>
	<path class="st0" d="M299.9,46.2c0,0.7,0.2,1.2,0.6,1.6c0.3,0.3,0.8,0.5,1.5,0.5c0.5,0,0.8-0.1,1.2-0.3c0.3-0.2,0.5-0.5,0.6-0.7h2
		c-0.3,1-0.8,1.7-1.5,2.1c-0.7,0.4-1.4,0.6-2.4,0.6c-0.6,0-1.2-0.1-1.7-0.3c-0.5-0.2-1-0.5-1.3-0.9c-0.3-0.4-0.6-0.8-0.8-1.4
		c-0.2-0.5-0.3-1.1-0.3-1.7c0-0.6,0.1-1.2,0.3-1.7c0.2-0.5,0.5-1,0.9-1.4c0.4-0.4,0.8-0.7,1.3-0.9c0.5-0.2,1.1-0.3,1.7-0.3
		c0.7,0,1.3,0.1,1.8,0.4s0.9,0.6,1.3,1.1c0.3,0.5,0.6,1,0.7,1.6c0.1,0.6,0.2,1.2,0.2,1.8h-6.1V46.2z M303.5,44.8
		c-0.1-0.6-0.3-1-0.6-1.3s-0.7-0.4-1.2-0.4c-0.4,0-0.7,0.1-0.9,0.2c-0.2,0.1-0.4,0.3-0.6,0.5s-0.2,0.4-0.3,0.6
		c-0.1,0.2-0.1,0.4-0.1,0.5h3.7V44.8z M302.1,40.6h-1.6l1.5-2.3h2.5L302.1,40.6z"/>
	<path class="st0" d="M309.5,47.1c0,0.2,0.1,0.5,0.2,0.6c0.1,0.2,0.2,0.3,0.4,0.4c0.2,0.1,0.3,0.2,0.5,0.2c0.2,0.1,0.4,0.1,0.6,0.1
		s0.3,0,0.5-0.1c0.2,0,0.3-0.1,0.5-0.2c0.1-0.1,0.3-0.2,0.4-0.3c0.1-0.1,0.1-0.3,0.1-0.5s-0.1-0.3-0.2-0.4c-0.1-0.1-0.3-0.2-0.5-0.3
		s-0.5-0.2-0.8-0.3s-0.7-0.2-1.1-0.2c-0.3-0.1-0.6-0.2-1-0.3c-0.3-0.1-0.6-0.2-0.8-0.4c-0.2-0.2-0.4-0.4-0.6-0.6
		c-0.1-0.2-0.2-0.6-0.2-0.9c0-0.5,0.1-0.9,0.3-1.3c0.2-0.3,0.5-0.6,0.8-0.8c0.3-0.2,0.7-0.3,1.1-0.4c0.4-0.1,0.9-0.1,1.3-0.1
		s0.9,0,1.3,0.1c0.4,0.1,0.8,0.2,1.1,0.4c0.3,0.2,0.6,0.5,0.8,0.8s0.3,0.8,0.4,1.3h-2.1c0-0.4-0.2-0.7-0.5-0.9
		c-0.3-0.2-0.6-0.2-1-0.2c-0.1,0-0.3,0-0.4,0s-0.3,0-0.4,0.1c-0.1,0.1-0.2,0.1-0.3,0.2c-0.1,0.1-0.1,0.2-0.1,0.4
		c0,0.2,0.1,0.4,0.2,0.5c0.1,0.1,0.3,0.2,0.6,0.3c0.2,0.1,0.5,0.2,0.8,0.2c0.3,0.1,0.6,0.1,0.9,0.2c0.3,0.1,0.6,0.2,1,0.3
		c0.3,0.1,0.6,0.2,0.8,0.4c0.2,0.2,0.4,0.4,0.6,0.7c0.1,0.3,0.2,0.6,0.2,1c0,0.5-0.1,1-0.3,1.4c-0.2,0.4-0.5,0.7-0.8,0.9
		s-0.7,0.4-1.2,0.5c-0.4,0.1-0.9,0.1-1.4,0.1s-0.9,0-1.4-0.1c-0.5-0.1-0.9-0.3-1.2-0.5c-0.4-0.2-0.6-0.5-0.9-0.9
		c-0.2-0.4-0.4-0.8-0.4-1.4C307.3,47.1,309.5,47.1,309.5,47.1z"/>
	<path class="st1" d="M318.9,49.8c0,0.2,0,0.5-0.1,0.7s-0.1,0.4-0.3,0.6s-0.3,0.4-0.4,0.5c-0.2,0.1-0.4,0.3-0.6,0.3v-0.7
		c0.1,0,0.2-0.1,0.3-0.2c0.1-0.1,0.2-0.2,0.2-0.4c0-0.2,0.1-0.3,0.1-0.4c0-0.1,0-0.3,0-0.4h-0.7v-1.7h1.3v1.7H318.9z"/>
	<path class="st1" d="M327.3,42.9c0.2-0.3,0.4-0.6,0.7-0.9c0.3-0.2,0.6-0.4,1-0.5c0.4-0.1,0.8-0.2,1.3-0.2c0.4,0,0.7,0,1.1,0.1
		c0.4,0.1,0.7,0.2,1,0.4s0.5,0.5,0.7,0.8s0.3,0.8,0.3,1.3v4.3c0,0.4,0.2,0.6,0.6,0.6c0.1,0,0.2,0,0.3-0.1v0.8c-0.1,0-0.2,0-0.3,0
		s-0.2,0-0.3,0c-0.3,0-0.5,0-0.6-0.1c-0.2-0.1-0.3-0.2-0.4-0.3s-0.1-0.3-0.2-0.5c0-0.2,0-0.4,0-0.6l0,0c-0.2,0.3-0.4,0.5-0.5,0.7
		s-0.4,0.4-0.6,0.5c-0.2,0.1-0.5,0.2-0.8,0.3c-0.3,0.1-0.6,0.1-1,0.1s-0.7,0-1.1-0.1c-0.4-0.1-0.6-0.2-0.9-0.4
		c-0.2-0.2-0.4-0.4-0.6-0.7c-0.1-0.3-0.2-0.7-0.2-1.1c0-0.6,0.1-1,0.4-1.3s0.6-0.6,1-0.7c0.4-0.2,0.9-0.3,1.4-0.4
		c0.5-0.1,1.1-0.1,1.6-0.2c0.2,0,0.4,0,0.6-0.1c0.2,0,0.3-0.1,0.4-0.2c0.1-0.1,0.2-0.2,0.2-0.3c0.1-0.1,0.1-0.3,0.1-0.5
		c0-0.3-0.1-0.6-0.2-0.8s-0.3-0.4-0.5-0.5c-0.2-0.1-0.4-0.2-0.7-0.3s-0.6,0.2-0.9,0.2c-0.6,0-1.2,0.2-1.6,0.5s-0.6,0.8-0.6,1.5h-1
		C327,43.6,327.1,43.2,327.3,42.9z M332.3,45.3c-0.1,0.1-0.2,0.2-0.4,0.3s-0.3,0.1-0.5,0.1c-0.4,0.1-0.9,0.1-1.3,0.2
		c-0.5,0.1-0.9,0.1-1.2,0.3c-0.3,0.2-0.7,0.3-0.9,0.5c-0.2,0.2-0.4,0.5-0.4,0.9c0,0.3,0,0.5,0.2,0.7c0.1,0.2,0.2,0.4,0.4,0.5
		c0.2,0.1,0.4,0.3,0.6,0.3c0.2,0.1,0.4,0.1,0.7,0.1c0.4,0,0.7-0.1,1.1-0.2c0.4-0.1,0.7-0.3,0.9-0.5c0.3-0.2,0.5-0.5,0.6-0.8
		s0.2-0.7,0.2-1.1L332.3,45.3L332.3,45.3z"/>
	<path class="st1" d="M340.7,43.2c-0.1-0.2-0.3-0.4-0.5-0.6c-0.2-0.1-0.4-0.3-0.7-0.3c-0.3-0.1-0.5-0.1-0.8-0.1
		c-0.2,0-0.4,0-0.7,0.1c-0.3,0.1-0.4,0.1-0.6,0.2c-0.2,0.1-0.3,0.3-0.5,0.4c-0.1,0.2-0.2,0.4-0.2,0.7c0,0.2,0.1,0.4,0.2,0.6
		s0.3,0.3,0.4,0.4c0.1,0.1,0.4,0.2,0.6,0.3s0.4,0.1,0.6,0.2l1.3,0.3c0.3,0,0.6,0.1,0.8,0.2c0.3,0.1,0.5,0.3,0.7,0.4
		c0.2,0.1,0.4,0.4,0.5,0.7c0.1,0.3,0.2,0.6,0.2,0.9c0,0.4-0.1,0.8-0.3,1.1c-0.2,0.3-0.5,0.6-0.8,0.8s-0.7,0.3-1.1,0.4
		c-0.4,0.1-0.8,0.1-1.2,0.1c-1,0-1.7-0.2-2.3-0.7c-0.6-0.5-0.9-1.2-1-2.2h1c0,0.7,0.3,1.2,0.7,1.5c0.4,0.3,1,0.5,1.7,0.5
		c0.2,0,0.5,0,0.8-0.1c0.3-0.1,0.5-0.1,0.7-0.3c0.2-0.1,0.4-0.3,0.5-0.5s0.2-0.4,0.2-0.7c0-0.2,0-0.4-0.2-0.6s-0.2-0.3-0.4-0.4
		c-0.2-0.1-0.4-0.2-0.6-0.3s-0.4-0.1-0.7-0.2l-1.3-0.3c-0.3-0.1-0.6-0.2-0.9-0.3s-0.5-0.2-0.7-0.4c-0.2-0.2-0.4-0.4-0.5-0.6
		s-0.2-0.5-0.2-0.9c0-0.4,0.1-0.8,0.3-1.1c0.2-0.3,0.4-0.5,0.7-0.7s0.6-0.3,1-0.4c0.4-0.1,0.7-0.1,1.1-0.1s0.8,0.1,1.2,0.2
		c0.4,0.1,0.7,0.3,0.9,0.5c0.3,0.2,0.5,0.5,0.6,0.8c0.2,0.3,0.2,0.7,0.3,1.2h-1C340.8,43.7,340.8,43.4,340.7,43.2z"/>
	<path class="st1" d="M343.8,40.5l1.7-2.2h1.2l-2.1,2.2H343.8z M344.2,41.6h1v8.2h-1V41.6z"/>
</g>
<g>
	<path class="st1" d="M21.2,61.9c-0.4-0.3-0.9-0.5-1.6-0.5c-0.5,0-0.9,0.1-1.3,0.3c-0.4,0.2-0.7,0.5-0.9,0.8
		c-0.2,0.3-0.4,0.7-0.5,1.1c-0.1,0.4-0.2,0.8-0.2,1.3s0.1,0.9,0.2,1.3c0.1,0.4,0.3,0.8,0.5,1.1c0.2,0.3,0.5,0.6,0.9,0.8
		c0.4,0.2,0.8,0.3,1.3,0.3c0.3,0,0.6-0.1,0.9-0.2s0.5-0.3,0.7-0.5c0.2-0.2,0.4-0.5,0.5-0.7c0.1-0.3,0.2-0.6,0.3-0.9h1
		c-0.1,1-0.5,1.8-1.1,2.3c-0.6,0.6-1.4,0.8-2.3,0.8c-0.6,0-1.2-0.1-1.7-0.3c-0.5-0.2-0.9-0.5-1.2-0.9c-0.3-0.4-0.6-0.8-0.7-1.4
		s-0.3-1.1-0.3-1.7c0-0.6,0.1-1.1,0.3-1.7c0.2-0.6,0.4-1,0.7-1.4c0.3-0.4,0.7-0.7,1.2-0.9c0.5-0.2,1-0.3,1.7-0.3
		c0.9,0,1.6,0.2,2.2,0.7s1,1.2,1.1,2.1h-1C22,62.8,21.7,62.3,21.2,61.9z"/>
	<path class="st1" d="M30.2,60.9c0.5,0.2,0.9,0.5,1.2,0.9c0.3,0.4,0.6,0.8,0.7,1.4c0.2,0.5,0.3,1.1,0.3,1.7s-0.1,1.1-0.3,1.7
		c-0.2,0.5-0.4,1-0.7,1.4c-0.3,0.4-0.7,0.7-1.2,0.9c-0.5,0.2-1,0.3-1.7,0.3s-1.2-0.1-1.7-0.3s-0.9-0.5-1.2-0.9
		c-0.3-0.4-0.6-0.8-0.7-1.4c-0.1-0.6-0.3-1.1-0.3-1.7s0.1-1.1,0.3-1.7c0.2-0.6,0.4-1,0.7-1.4c0.3-0.4,0.7-0.7,1.2-0.9s1-0.3,1.7-0.3
		S29.8,60.7,30.2,60.9z M27.4,61.7c-0.4,0.2-0.7,0.5-0.9,0.8c-0.2,0.3-0.4,0.7-0.5,1.1c-0.1,0.4-0.2,0.8-0.2,1.3s0.1,0.9,0.2,1.3
		c0.1,0.4,0.3,0.8,0.5,1.1c0.2,0.3,0.5,0.6,0.9,0.8c0.4,0.2,0.8,0.3,1.3,0.3s0.9-0.1,1.3-0.3s0.7-0.5,0.9-0.8
		c0.2-0.3,0.4-0.7,0.5-1.1c0.1-0.4,0.2-0.8,0.2-1.3s-0.1-0.9-0.2-1.3c-0.1-0.4-0.3-0.8-0.5-1.1c-0.2-0.3-0.5-0.6-0.9-0.8
		s-0.8-0.3-1.3-0.3S27.8,61.5,27.4,61.7z"/>
	<path class="st1" d="M35.6,60.8v1.4l0,0c0.3-0.5,0.6-0.9,1-1.2c0.4-0.3,1-0.4,1.6-0.4c0.5,0,1,0.1,1.5,0.4c0.4,0.3,0.7,0.7,0.9,1.2
		c0.2-0.5,0.6-0.9,1.1-1.2c0.5-0.3,1-0.4,1.5-0.4c1.8,0,2.7,1,2.7,2.9v5.6h-1v-5.5c0-0.7-0.1-1.2-0.4-1.5c-0.3-0.4-0.8-0.5-1.5-0.5
		c-0.4,0-0.8,0.1-1.1,0.2c-0.3,0.1-0.5,0.4-0.7,0.7c-0.2,0.3-0.3,0.6-0.4,0.9c-0.1,0.4-0.1,0.7-0.1,1.1v4.6h-1v-5.7
		c0-0.3,0-0.5-0.1-0.8c-0.1-0.2-0.2-0.5-0.3-0.7c-0.1-0.2-0.3-0.3-0.5-0.4c-0.2-0.1-0.5-0.2-0.8-0.2c-0.4,0-0.8,0.1-1.1,0.2
		c-0.3,0.2-0.6,0.4-0.8,0.6c-0.2,0.3-0.3,0.6-0.4,1c-0.1,0.4-0.1,0.8-0.1,1.2v4.6h-1v-8.2L35.6,60.8L35.6,60.8z"/>
	<path class="st1" d="M53.6,60.9c0.5,0.2,0.9,0.5,1.2,0.9c0.3,0.4,0.6,0.8,0.7,1.4c0.2,0.5,0.3,1.1,0.3,1.7s-0.1,1.1-0.3,1.7
		c-0.2,0.5-0.4,1-0.7,1.4c-0.3,0.4-0.7,0.7-1.2,0.9c-0.5,0.2-1,0.3-1.7,0.3s-1.2-0.1-1.7-0.3s-0.9-0.5-1.2-0.9
		c-0.3-0.4-0.6-0.8-0.7-1.4c-0.1-0.6-0.3-1.1-0.3-1.7s0.1-1.1,0.3-1.7c0.2-0.6,0.4-1,0.7-1.4c0.3-0.4,0.7-0.7,1.2-0.9s1-0.3,1.7-0.3
		S53.1,60.7,53.6,60.9z M50.7,61.7c-0.4,0.2-0.7,0.5-0.9,0.8c-0.2,0.3-0.4,0.7-0.5,1.1c-0.1,0.4-0.2,0.8-0.2,1.3s0.1,0.9,0.2,1.3
		c0.1,0.4,0.3,0.8,0.5,1.1c0.2,0.3,0.5,0.6,0.9,0.8c0.4,0.2,0.8,0.3,1.3,0.3s0.9-0.1,1.3-0.3s0.7-0.5,0.9-0.8
		c0.2-0.3,0.4-0.7,0.5-1.1c0.1-0.4,0.2-0.8,0.2-1.3s-0.1-0.9-0.2-1.3c-0.1-0.4-0.3-0.8-0.5-1.1c-0.2-0.3-0.5-0.6-0.9-0.8
		s-0.8-0.3-1.3-0.3S51.1,61.5,50.7,61.7z"/>
	<path class="st1" d="M63.9,60.8v1.6l0,0c0.2-0.6,0.6-1,1.1-1.3s1.1-0.5,1.8-0.5c0.6,0,1.2,0.1,1.6,0.3c0.4,0.2,0.8,0.5,1.1,0.9
		c0.3,0.4,0.5,0.9,0.7,1.4c0.1,0.5,0.2,1.1,0.2,1.7s-0.1,1.1-0.2,1.7c-0.1,0.5-0.4,1-0.7,1.4c-0.3,0.4-0.7,0.7-1.1,0.9
		c-0.5,0.2-1,0.3-1.6,0.3c-0.3,0-0.6,0-0.9-0.1c-0.3-0.1-0.6-0.2-0.8-0.3c-0.3-0.1-0.5-0.3-0.7-0.6c-0.2-0.2-0.3-0.5-0.5-0.8l0,0V72
		h-1V60.8H63.9z M69.4,63.6c-0.1-0.4-0.3-0.8-0.5-1.1c-0.2-0.3-0.5-0.6-0.8-0.8c-0.3-0.2-0.7-0.3-1.2-0.3s-1,0.1-1.4,0.3
		s-0.7,0.4-0.9,0.8c-0.2,0.3-0.4,0.7-0.5,1.1C64,64,64,64.5,64,64.9s0,0.8,0.2,1.3c0.1,0.4,0.3,0.8,0.5,1.1c0.2,0.3,0.5,0.6,0.9,0.8
		c0.4,0.2,0.8,0.3,1.3,0.3s0.9-0.1,1.2-0.3c0.3-0.2,0.6-0.5,0.8-0.8c0.2-0.3,0.4-0.7,0.5-1.1c0.1-0.4,0.2-0.8,0.2-1.3
		S69.5,64.1,69.4,63.6z"/>
	<path class="st1" d="M72.9,62.1c0.2-0.3,0.4-0.6,0.7-0.9c0.3-0.2,0.6-0.4,1-0.5c0.4-0.1,0.8-0.2,1.3-0.2c0.4,0,0.7,0,1.1,0.1
		c0.4,0.1,0.7,0.2,1,0.4s0.5,0.5,0.7,0.8s0.3,0.8,0.3,1.3v4.3c0,0.4,0.2,0.6,0.6,0.6c0.1,0,0.2,0,0.3-0.1v0.8c-0.1,0-0.2,0-0.3,0
		s-0.2,0-0.3,0c-0.3,0-0.5,0-0.6-0.1c-0.2-0.1-0.3-0.2-0.4-0.3s-0.1-0.3-0.2-0.5c0-0.2,0-0.4,0-0.6l0,0c-0.2,0.3-0.4,0.5-0.5,0.7
		c-0.1,0.2-0.4,0.4-0.6,0.5s-0.5,0.2-0.8,0.3s-0.6,0.1-1,0.1s-0.7,0-1.1-0.1c-0.4-0.1-0.6-0.2-0.9-0.4c-0.2-0.2-0.4-0.4-0.6-0.7
		c-0.1-0.3-0.2-0.7-0.2-1.1c0-0.6,0.1-1,0.4-1.3c0.3-0.3,0.6-0.6,1-0.7c0.4-0.2,0.9-0.3,1.4-0.4c0.5-0.1,1.1-0.1,1.6-0.2
		c0.2,0,0.4,0,0.6-0.1c0.2,0,0.3-0.1,0.4-0.2c0.1-0.1,0.2-0.2,0.2-0.3c0.1-0.1,0.1-0.3,0.1-0.5c0-0.3-0.1-0.6-0.2-0.8
		s-0.3-0.4-0.5-0.5c-0.2-0.1-0.4-0.2-0.7-0.3s-0.5-0.1-0.8-0.1c-0.6,0-1.2,0.2-1.6,0.5s-0.6,0.8-0.6,1.5h-1
		C72.7,62.8,72.8,62.4,72.9,62.1z M77.9,64.5c-0.1,0.1-0.2,0.2-0.4,0.3s-0.3,0.1-0.5,0.1c-0.4,0.1-0.9,0.1-1.3,0.2
		c-0.5,0.1-0.9,0.1-1.2,0.3s-0.7,0.3-0.9,0.5c-0.2,0.2-0.4,0.5-0.4,0.9c0,0.3,0,0.5,0.2,0.7c0.1,0.2,0.2,0.4,0.4,0.5
		c0.2,0.1,0.4,0.3,0.6,0.3c0.2,0.1,0.4,0.1,0.7,0.1c0.4,0,0.7-0.1,1.1-0.2c0.4-0.1,0.7-0.3,0.9-0.5c0.3-0.2,0.5-0.5,0.6-0.8
		c0.1-0.3,0.2-0.7,0.2-1.1L77.9,64.5L77.9,64.5z"/>
	<path class="st1" d="M82.5,60.8v1.9l0,0c0.3-0.7,0.6-1.2,1.2-1.5c0.5-0.4,1.2-0.5,1.9-0.5v1c-0.5,0-0.9,0-1.2,0.2s-0.7,0.3-1,0.6
		c-0.3,0.3-0.5,0.6-0.6,0.9c-0.1,0.4-0.2,0.8-0.2,1.2V69h-1v-8.2C81.5,60.8,82.5,60.8,82.5,60.8z"/>
	<path class="st1" d="M87.4,62.1c0.2-0.3,0.4-0.6,0.7-0.9c0.3-0.2,0.6-0.4,1-0.5c0.4-0.1,0.8-0.2,1.3-0.2c0.4,0,0.7,0,1.1,0.1
		c0.4,0.1,0.7,0.2,1,0.4s0.5,0.5,0.7,0.8s0.3,0.8,0.3,1.3v4.3c0,0.4,0.2,0.6,0.6,0.6c0.1,0,0.2,0,0.3-0.1v0.8c-0.1,0-0.2,0-0.3,0
		s-0.2,0-0.3,0c-0.3,0-0.5,0-0.6-0.1c-0.2-0.1-0.3-0.2-0.4-0.3s-0.1-0.3-0.2-0.5c0-0.2,0-0.4,0-0.6l0,0c-0.2,0.3-0.4,0.5-0.5,0.7
		c-0.1,0.2-0.4,0.4-0.6,0.5s-0.5,0.2-0.8,0.3s-0.6,0.1-1,0.1s-0.7,0-1.1-0.1c-0.4-0.1-0.6-0.2-0.9-0.4c-0.2-0.2-0.4-0.4-0.6-0.7
		c-0.1-0.3-0.2-0.7-0.2-1.1c0-0.6,0.1-1,0.4-1.3c0.3-0.3,0.6-0.6,1-0.7c0.4-0.2,0.9-0.3,1.4-0.4c0.5-0.1,1.1-0.1,1.6-0.2
		c0.2,0,0.4,0,0.6-0.1c0.2,0,0.3-0.1,0.4-0.2c0.1-0.1,0.2-0.2,0.2-0.3c0.1-0.1,0.1-0.3,0.1-0.5c0-0.3-0.1-0.6-0.2-0.8
		s-0.3-0.4-0.5-0.5c-0.2-0.1-0.4-0.2-0.7-0.3s-0.5-0.1-0.8-0.1c-0.6,0-1.2,0.2-1.6,0.5s-0.6,0.8-0.6,1.5h-1
		C87.2,62.8,87.2,62.4,87.4,62.1z M92.4,64.5c-0.1,0.1-0.2,0.2-0.4,0.3s-0.3,0.1-0.5,0.1c-0.4,0.1-0.9,0.1-1.3,0.2
		c-0.5,0.1-0.9,0.1-1.2,0.3s-0.7,0.3-0.9,0.5c-0.2,0.2-0.4,0.5-0.4,0.9c0,0.3,0,0.5,0.2,0.7c0.1,0.2,0.2,0.4,0.4,0.5
		c0.2,0.1,0.4,0.3,0.6,0.3c0.2,0.1,0.4,0.1,0.7,0.1c0.4,0,0.7-0.1,1.1-0.2c0.4-0.1,0.7-0.3,0.9-0.5c0.3-0.2,0.5-0.5,0.6-0.8
		c0.1-0.3,0.2-0.7,0.2-1.1L92.4,64.5L92.4,64.5z"/>
	<path class="st1" d="M102.1,57.7V69h-1V57.7H102.1z"/>
	<path class="st1" d="M104.9,62.1c0.2-0.3,0.4-0.6,0.7-0.9c0.3-0.2,0.6-0.4,1-0.5c0.4-0.1,0.8-0.2,1.3-0.2c0.4,0,0.7,0,1.1,0.1
		c0.4,0.1,0.7,0.2,1,0.4s0.5,0.5,0.7,0.8s0.3,0.8,0.3,1.3v4.3c0,0.4,0.2,0.6,0.6,0.6c0.1,0,0.2,0,0.3-0.1v0.8c-0.1,0-0.2,0-0.3,0
		s-0.2,0-0.3,0c-0.3,0-0.5,0-0.6-0.1c-0.2-0.1-0.3-0.2-0.4-0.3s-0.1-0.3-0.2-0.5c0-0.2,0-0.4,0-0.6l0,0c-0.2,0.3-0.4,0.5-0.5,0.7
		c-0.1,0.2-0.4,0.4-0.6,0.5s-0.5,0.2-0.8,0.3s-0.6,0.1-1,0.1s-0.7,0-1.1-0.1c-0.4-0.1-0.6-0.2-0.9-0.4c-0.2-0.2-0.4-0.4-0.6-0.7
		c-0.1-0.3-0.2-0.7-0.2-1.1c0-0.6,0.1-1,0.4-1.3c0.3-0.3,0.6-0.6,1-0.7c0.4-0.2,0.9-0.3,1.4-0.4c0.5-0.1,1.1-0.1,1.6-0.2
		c0.2,0,0.4,0,0.6-0.1c0.2,0,0.3-0.1,0.4-0.2c0.1-0.1,0.2-0.2,0.2-0.3c0.1-0.1,0.1-0.3,0.1-0.5c0-0.3-0.1-0.6-0.2-0.8
		s-0.3-0.4-0.5-0.5c-0.2-0.1-0.4-0.2-0.7-0.3s-0.5-0.1-0.8-0.1c-0.6,0-1.2,0.2-1.6,0.5s-0.6,0.8-0.6,1.5h-1
		C104.6,62.8,104.7,62.4,104.9,62.1z M109.9,64.5c-0.1,0.1-0.2,0.2-0.4,0.3s-0.3,0.1-0.5,0.1c-0.4,0.1-0.9,0.1-1.3,0.2
		c-0.5,0.1-0.9,0.1-1.2,0.3s-0.7,0.3-0.9,0.5c-0.2,0.2-0.4,0.5-0.4,0.9c0,0.3,0,0.5,0.2,0.7c0.1,0.2,0.2,0.4,0.4,0.5
		c0.2,0.1,0.4,0.3,0.6,0.3c0.2,0.1,0.4,0.1,0.7,0.1c0.4,0,0.7-0.1,1.1-0.2c0.4-0.1,0.7-0.3,0.9-0.5c0.3-0.2,0.5-0.5,0.6-0.8
		c0.1-0.3,0.2-0.7,0.2-1.1L109.9,64.5L109.9,64.5z"/>
	<path class="st1" d="M119.2,66.3c0.1,0.4,0.3,0.7,0.5,1c0.2,0.3,0.5,0.6,0.8,0.8c0.3,0.2,0.7,0.3,1.2,0.3c0.7,0,1.3-0.2,1.7-0.6
		c0.4-0.4,0.7-0.9,0.9-1.5h1c-0.2,0.9-0.6,1.6-1.2,2.2c-0.6,0.5-1.4,0.8-2.4,0.8c-0.6,0-1.2-0.1-1.7-0.3s-0.9-0.5-1.2-0.9
		c-0.3-0.4-0.5-0.9-0.7-1.4c-0.1-0.5-0.2-1.1-0.2-1.7c0-0.5,0.1-1.1,0.2-1.6s0.4-1,0.7-1.4c0.3-0.4,0.7-0.7,1.2-1
		c0.5-0.2,1-0.4,1.7-0.4s1.2,0.1,1.7,0.4s0.8,0.6,1.1,1c0.3,0.4,0.5,0.9,0.6,1.5s0.2,1.1,0.2,1.7h-6.3
		C119.2,65.5,119.2,65.9,119.2,66.3z M124.2,63.2c-0.1-0.3-0.3-0.7-0.5-0.9c-0.2-0.3-0.5-0.5-0.8-0.7s-0.7-0.2-1.1-0.2
		s-0.8,0.1-1.1,0.2c-0.3,0.2-0.6,0.4-0.8,0.7c-0.2,0.3-0.4,0.6-0.5,0.9c-0.1,0.4-0.2,0.7-0.3,1.1h5.3
		C124.5,64,124.4,63.6,124.2,63.2z"/>
	<path class="st1" d="M130.7,60.8v0.8H129v5.5c0,0.3,0,0.6,0.1,0.8s0.3,0.3,0.7,0.3c0.3,0,0.6,0,0.9,0V69c-0.1,0-0.3,0-0.4,0
		s-0.3,0-0.4,0c-0.7,0-1.1-0.1-1.4-0.4c-0.3-0.3-0.4-0.7-0.4-1.4v-5.6h-1.4v-0.8h1.4v-2.4h1v2.5L130.7,60.8L130.7,60.8z"/>
	<path class="st1" d="M133,62.1c0.2-0.3,0.4-0.6,0.7-0.9c0.3-0.2,0.6-0.4,1-0.5c0.4-0.1,0.8-0.2,1.3-0.2c0.4,0,0.7,0,1.1,0.1
		c0.4,0.1,0.7,0.2,1,0.4s0.5,0.5,0.7,0.8s0.3,0.8,0.3,1.3v4.3c0,0.4,0.2,0.6,0.6,0.6c0.1,0,0.2,0,0.3-0.1v0.8c-0.1,0-0.2,0-0.3,0
		s-0.2,0-0.3,0c-0.3,0-0.5,0-0.6-0.1c-0.2-0.1-0.3-0.2-0.4-0.3s-0.1-0.3-0.2-0.5c0-0.2,0-0.4,0-0.6l0,0c-0.2,0.3-0.4,0.5-0.5,0.7
		c-0.1,0.2-0.4,0.4-0.6,0.5s-0.5,0.2-0.8,0.3s-0.6,0.1-1,0.1s-0.7,0-1.1-0.1c-0.4-0.1-0.6-0.2-0.9-0.4c-0.2-0.2-0.4-0.4-0.6-0.7
		c-0.1-0.3-0.2-0.7-0.2-1.1c0-0.6,0.1-1,0.4-1.3c0.3-0.3,0.6-0.6,1-0.7c0.4-0.2,0.9-0.3,1.4-0.4c0.5-0.1,1.1-0.1,1.6-0.2
		c0.2,0,0.4,0,0.6-0.1c0.2,0,0.3-0.1,0.4-0.2c0.1-0.1,0.2-0.2,0.2-0.3c0.1-0.1,0.1-0.3,0.1-0.5c0-0.3-0.1-0.6-0.2-0.8
		s-0.3-0.4-0.5-0.5c-0.2-0.1-0.4-0.2-0.7-0.3s-0.5-0.1-0.8-0.1c-0.6,0-1.2,0.2-1.6,0.5s-0.6,0.8-0.6,1.5h-1
		C132.7,62.8,132.8,62.4,133,62.1z M138,64.5c-0.1,0.1-0.2,0.2-0.4,0.3s-0.3,0.1-0.5,0.1c-0.4,0.1-0.9,0.1-1.3,0.2
		c-0.5,0.1-0.9,0.1-1.2,0.3s-0.7,0.3-0.9,0.5c-0.2,0.2-0.4,0.5-0.4,0.9c0,0.3,0,0.5,0.2,0.7c0.1,0.2,0.2,0.4,0.4,0.5
		c0.2,0.1,0.4,0.3,0.6,0.3c0.2,0.1,0.4,0.1,0.7,0.1c0.4,0,0.7-0.1,1.1-0.2c0.4-0.1,0.7-0.3,0.9-0.5c0.3-0.2,0.5-0.5,0.6-0.8
		c0.1-0.3,0.2-0.7,0.2-1.1L138,64.5L138,64.5z"/>
	<path class="st1" d="M142.6,60.8v1.6l0,0c0.2-0.6,0.6-1,1.1-1.3s1.1-0.5,1.8-0.5c0.6,0,1.2,0.1,1.6,0.3c0.4,0.2,0.8,0.5,1.1,0.9
		c0.3,0.4,0.5,0.9,0.7,1.4c0.1,0.5,0.2,1.1,0.2,1.7s-0.1,1.1-0.2,1.7c-0.1,0.5-0.4,1-0.7,1.4c-0.3,0.4-0.7,0.7-1.1,0.9
		c-0.5,0.2-1,0.3-1.6,0.3c-0.3,0-0.6,0-0.9-0.1c-0.3-0.1-0.6-0.2-0.8-0.3c-0.3-0.1-0.5-0.3-0.7-0.6c-0.2-0.2-0.3-0.5-0.5-0.8l0,0V72
		h-1V60.8H142.6z M148.1,63.6c-0.1-0.4-0.3-0.8-0.5-1.1c-0.2-0.3-0.5-0.6-0.8-0.8c-0.3-0.2-0.7-0.3-1.2-0.3s-1,0.1-1.4,0.3
		s-0.7,0.4-0.9,0.8c-0.2,0.3-0.4,0.7-0.5,1.1c-0.1,0.4-0.1,0.9-0.1,1.3s0,0.8,0.2,1.3c0.1,0.4,0.3,0.8,0.5,1.1
		c0.2,0.3,0.5,0.6,0.9,0.8c0.4,0.2,0.8,0.3,1.3,0.3s0.9-0.1,1.2-0.3c0.3-0.2,0.6-0.5,0.8-0.8c0.2-0.3,0.4-0.7,0.5-1.1
		c0.1-0.4,0.2-0.8,0.2-1.3S148.2,64.1,148.1,63.6z"/>
	<path class="st1" d="M151.6,62.1c0.2-0.3,0.4-0.6,0.7-0.9c0.3-0.2,0.6-0.4,1-0.5c0.4-0.1,0.8-0.2,1.3-0.2c0.4,0,0.7,0,1.1,0.1
		c0.4,0.1,0.7,0.2,1,0.4s0.5,0.5,0.7,0.8s0.3,0.8,0.3,1.3v4.3c0,0.4,0.2,0.6,0.6,0.6c0.1,0,0.2,0,0.3-0.1v0.8c-0.1,0-0.2,0-0.3,0
		s-0.2,0-0.3,0c-0.3,0-0.5,0-0.6-0.1c-0.2-0.1-0.3-0.2-0.4-0.3s-0.1-0.3-0.2-0.5c0-0.2,0-0.4,0-0.6l0,0c-0.2,0.3-0.4,0.5-0.5,0.7
		c-0.1,0.2-0.4,0.4-0.6,0.5s-0.5,0.2-0.8,0.3s-0.6,0.1-1,0.1s-0.7,0-1.1-0.1c-0.4-0.1-0.6-0.2-0.9-0.4c-0.2-0.2-0.4-0.4-0.6-0.7
		c-0.1-0.3-0.2-0.7-0.2-1.1c0-0.6,0.1-1,0.4-1.3c0.3-0.3,0.6-0.6,1-0.7c0.4-0.2,0.9-0.3,1.4-0.4c0.5-0.1,1.1-0.1,1.6-0.2
		c0.2,0,0.4,0,0.6-0.1c0.2,0,0.3-0.1,0.4-0.2c0.1-0.1,0.2-0.2,0.2-0.3c0.1-0.1,0.1-0.3,0.1-0.5c0-0.3-0.1-0.6-0.2-0.8
		s-0.3-0.4-0.5-0.5c-0.2-0.1-0.4-0.2-0.7-0.3s-0.5-0.1-0.8-0.1c-0.6,0-1.2,0.2-1.6,0.5s-0.6,0.8-0.6,1.5h-1
		C151.2,62.8,151.4,62.4,151.6,62.1z M156.6,64.5c-0.1,0.1-0.2,0.2-0.4,0.3s-0.3,0.1-0.5,0.1c-0.4,0.1-0.9,0.1-1.3,0.2
		c-0.5,0.1-0.9,0.1-1.2,0.3s-0.7,0.3-0.9,0.5c-0.2,0.2-0.4,0.5-0.4,0.9c0,0.3,0,0.5,0.2,0.7c0.1,0.2,0.2,0.4,0.4,0.5
		c0.2,0.1,0.4,0.3,0.6,0.3c0.2,0.1,0.4,0.1,0.7,0.1c0.4,0,0.7-0.1,1.1-0.2c0.4-0.1,0.7-0.3,0.9-0.5c0.3-0.2,0.5-0.5,0.6-0.8
		c0.1-0.3,0.2-0.7,0.2-1.1L156.6,64.5L156.6,64.5z"/>
	<path class="st1" d="M166.2,60.8v1.6l0,0c0.2-0.6,0.6-1,1.1-1.3s1.1-0.5,1.8-0.5c0.6,0,1.2,0.1,1.6,0.3c0.4,0.2,0.8,0.5,1.1,0.9
		c0.3,0.4,0.5,0.9,0.7,1.4c0.1,0.5,0.2,1.1,0.2,1.7s-0.1,1.1-0.2,1.7c-0.1,0.5-0.4,1-0.7,1.4c-0.3,0.4-0.7,0.7-1.1,0.9
		c-0.5,0.2-1,0.3-1.6,0.3c-0.3,0-0.6,0-0.9-0.1c-0.3-0.1-0.6-0.2-0.8-0.3c-0.3-0.1-0.5-0.3-0.7-0.6c-0.2-0.2-0.3-0.5-0.5-0.8l0,0V72
		h-1V60.8H166.2z M171.7,63.6c-0.1-0.4-0.3-0.8-0.5-1.1c-0.2-0.3-0.5-0.6-0.8-0.8c-0.3-0.2-0.7-0.3-1.2-0.3s-1,0.1-1.4,0.3
		s-0.7,0.4-0.9,0.8c-0.2,0.3-0.4,0.7-0.5,1.1c-0.1,0.4-0.1,0.9-0.1,1.3s0,0.8,0.2,1.3c0.1,0.4,0.3,0.8,0.5,1.1
		c0.2,0.3,0.5,0.6,0.9,0.8c0.4,0.2,0.8,0.3,1.3,0.3s0.9-0.1,1.2-0.3c0.3-0.2,0.6-0.5,0.8-0.8c0.2-0.3,0.4-0.7,0.5-1.1
		c0.1-0.4,0.2-0.8,0.2-1.3S171.8,64.1,171.7,63.6z"/>
	<path class="st1" d="M176,60.8v1.9l0,0c0.3-0.7,0.6-1.2,1.2-1.5c0.5-0.4,1.2-0.5,1.9-0.5v1c-0.5,0-0.9,0-1.2,0.2s-0.7,0.3-1,0.6
		c-0.3,0.3-0.5,0.6-0.6,0.9c-0.1,0.4-0.2,0.8-0.2,1.2V69h-1v-8.2C175.1,60.8,176,60.8,176,60.8z"/>
	<path class="st1" d="M181.4,66.3c0.1,0.4,0.3,0.7,0.5,1c0.2,0.3,0.5,0.6,0.8,0.8c0.3,0.2,0.7,0.3,1.2,0.3c0.7,0,1.3-0.2,1.7-0.6
		c0.4-0.4,0.7-0.9,0.9-1.5h1c-0.2,0.9-0.6,1.6-1.2,2.2c-0.6,0.5-1.4,0.8-2.4,0.8c-0.6,0-1.2-0.1-1.7-0.3s-0.9-0.5-1.2-0.9
		c-0.3-0.4-0.5-0.9-0.7-1.4c-0.1-0.5-0.2-1.1-0.2-1.7c0-0.5,0.1-1.1,0.2-1.6c0.1-0.5,0.4-1,0.7-1.4c0.3-0.4,0.7-0.7,1.2-1
		c0.5-0.2,1-0.4,1.7-0.4s1.2,0.1,1.7,0.4s0.8,0.6,1.1,1c0.3,0.4,0.5,0.9,0.6,1.5s0.2,1.1,0.2,1.7h-6.3
		C181.2,65.5,181.2,65.9,181.4,66.3z M186.4,63.2c-0.1-0.3-0.3-0.7-0.5-0.9c-0.2-0.3-0.5-0.5-0.8-0.7s-0.7-0.2-1.1-0.2
		c-0.4,0-0.8,0.1-1.1,0.2c-0.3,0.2-0.6,0.4-0.8,0.7c-0.2,0.3-0.4,0.6-0.5,0.9c-0.1,0.4-0.2,0.7-0.3,1.1h5.3
		C186.5,64,186.5,63.6,186.4,63.2z"/>
	<path class="st1" d="M189.7,60.8l2.6,7.2l0,0l2.5-7.2h1l-3.1,8.2h-1.1l-3.2-8.2C188.4,60.8,189.7,60.8,189.7,60.8z"/>
	<path class="st1" d="M198.5,57.7v1.6h-1v-1.6H198.5z M198.5,60.8V69h-1v-8.2C197.5,60.8,198.5,60.8,198.5,60.8z"/>
	<path class="st1" d="M201.2,62.1c0.2-0.3,0.4-0.6,0.7-0.9c0.3-0.2,0.6-0.4,1-0.5c0.4-0.1,0.8-0.2,1.3-0.2c0.4,0,0.7,0,1.1,0.1
		c0.4,0.1,0.7,0.2,1,0.4s0.5,0.5,0.7,0.8s0.3,0.8,0.3,1.3v4.3c0,0.4,0.2,0.6,0.6,0.6c0.1,0,0.2,0,0.3-0.1v0.8c-0.1,0-0.2,0-0.3,0
		s-0.2,0-0.3,0c-0.3,0-0.5,0-0.6-0.1c-0.2-0.1-0.3-0.2-0.4-0.3s-0.1-0.3-0.2-0.5c0-0.2,0-0.4,0-0.6l0,0c-0.2,0.3-0.4,0.5-0.5,0.7
		c-0.1,0.2-0.4,0.4-0.6,0.5s-0.5,0.2-0.8,0.3s-0.6,0.1-1,0.1s-0.7,0-1.1-0.1c-0.4-0.1-0.6-0.2-0.9-0.4c-0.2-0.2-0.4-0.4-0.6-0.7
		c-0.1-0.3-0.2-0.7-0.2-1.1c0-0.6,0.1-1,0.4-1.3c0.3-0.3,0.6-0.6,1-0.7c0.4-0.2,0.9-0.3,1.4-0.4c0.5-0.1,1.1-0.1,1.6-0.2
		c0.2,0,0.4,0,0.6-0.1c0.2,0,0.3-0.1,0.4-0.2c0.1-0.1,0.2-0.2,0.2-0.3c0.1-0.1,0.1-0.3,0.1-0.5c0-0.3-0.1-0.6-0.2-0.8
		c-0.1-0.2-0.3-0.4-0.5-0.5c-0.2-0.1-0.4-0.2-0.7-0.3s-0.5-0.1-0.8-0.1c-0.6,0-1.2,0.2-1.6,0.5c-0.4,0.3-0.6,0.8-0.6,1.5h-1
		C201,62.8,201,62.4,201.2,62.1z M206.2,64.5c-0.1,0.1-0.2,0.2-0.4,0.3s-0.3,0.1-0.5,0.1c-0.4,0.1-0.9,0.1-1.3,0.2
		c-0.5,0.1-0.9,0.1-1.2,0.3s-0.7,0.3-0.9,0.5c-0.2,0.2-0.4,0.5-0.4,0.9c0,0.3,0,0.5,0.2,0.7c0.1,0.2,0.2,0.4,0.4,0.5
		c0.2,0.1,0.4,0.3,0.6,0.3c0.2,0.1,0.4,0.1,0.7,0.1c0.4,0,0.7-0.1,1.1-0.2c0.4-0.1,0.7-0.3,0.9-0.5c0.3-0.2,0.5-0.5,0.6-0.8
		c0.1-0.3,0.2-0.7,0.2-1.1L206.2,64.5L206.2,64.5z"/>
	<path class="st1" d="M221.2,69v-1.6l0,0c-0.1,0.3-0.3,0.5-0.5,0.7c-0.2,0.2-0.4,0.4-0.7,0.6c-0.3,0.2-0.5,0.3-0.8,0.4
		c-0.3,0.1-0.6,0.1-0.9,0.1c-0.6,0-1.2-0.1-1.6-0.3c-0.5-0.2-0.8-0.5-1.1-0.9c-0.3-0.4-0.5-0.9-0.7-1.4c-0.1-0.5-0.2-1.1-0.2-1.7
		c0-0.6,0.1-1.1,0.2-1.7c0.1-0.5,0.4-1,0.7-1.4c0.3-0.4,0.7-0.7,1.1-0.9c0.4-0.2,1-0.3,1.6-0.3c0.3,0,0.6,0,0.9,0.1
		c0.3,0.1,0.6,0.2,0.8,0.3s0.5,0.3,0.7,0.6c0.2,0.2,0.3,0.5,0.5,0.8l0,0v-4.7h1V69C222.2,69,221.2,69,221.2,69z M215.8,66.2
		c0.1,0.4,0.3,0.8,0.5,1.1c0.2,0.3,0.5,0.6,0.8,0.8c0.3,0.2,0.7,0.3,1.2,0.3s1-0.1,1.3-0.3c0.4-0.2,0.7-0.5,0.9-0.8
		c0.2-0.3,0.4-0.7,0.5-1.1c0.1-0.4,0.2-0.8,0.2-1.3s0-0.8-0.2-1.3c-0.2-0.5-0.3-0.8-0.5-1.1s-0.5-0.6-0.9-0.8
		c-0.4-0.2-0.8-0.3-1.3-0.3s-0.9,0.1-1.2,0.3s-0.6,0.5-0.8,0.8s-0.4,0.7-0.5,1.1c-0.1,0.4-0.2,0.8-0.2,1.3S215.7,65.7,215.8,66.2z"
		/>
	<path class="st1" d="M226.4,66.3c0.1,0.4,0.3,0.7,0.5,1c0.2,0.3,0.5,0.6,0.8,0.8c0.3,0.2,0.7,0.3,1.2,0.3c0.7,0,1.3-0.2,1.7-0.6
		c0.4-0.4,0.7-0.9,0.9-1.5h1c-0.2,0.9-0.6,1.6-1.2,2.2c-0.6,0.5-1.4,0.8-2.4,0.8c-0.6,0-1.2-0.1-1.7-0.3s-0.9-0.5-1.2-0.9
		c-0.3-0.4-0.5-0.9-0.7-1.4c-0.1-0.5-0.2-1.1-0.2-1.7c0-0.5,0.1-1.1,0.2-1.6c0.1-0.5,0.4-1,0.7-1.4c0.3-0.4,0.7-0.7,1.2-1
		c0.5-0.2,1-0.4,1.7-0.4s1.2,0.1,1.7,0.4s0.8,0.6,1.1,1c0.3,0.4,0.5,0.9,0.6,1.5s0.2,1.1,0.2,1.7h-6.3
		C226.2,65.5,226.2,65.9,226.4,66.3z M231.4,63.2c-0.1-0.3-0.3-0.7-0.5-0.9c-0.2-0.3-0.5-0.5-0.8-0.7s-0.7-0.2-1.1-0.2
		c-0.4,0-0.8,0.1-1.1,0.2c-0.3,0.2-0.6,0.4-0.8,0.7c-0.2,0.3-0.4,0.6-0.5,0.9c-0.1,0.4-0.2,0.7-0.3,1.1h5.3
		C231.5,64,231.5,63.6,231.4,63.2z"/>
	<path class="st1" d="M236.5,57.7V69h-1V57.7H236.5z"/>
	<path class="st0" d="M247.2,57.7h2.3l-0.8,4l0,0c0.7-0.8,1.3-1.1,2.4-1.1c2.1,0,2.9,1.6,2.9,3.5c0,2.5-1.5,5.2-4.2,5.2
		c-1.1,0-2.2-0.4-2.6-1.5l0,0l-0.3,1.3h-2.1L247.2,57.7z M247.8,65.8c0,1,0.6,1.7,1.6,1.7c1.7,0,2.4-2,2.4-3.4c0-1-0.4-1.8-1.6-1.8
		C248.5,62.3,247.8,64.3,247.8,65.8z"/>
	<path class="st0" d="M263.9,69h-2.2l0.3-1.1l0,0c-0.7,0.9-1.7,1.4-2.9,1.4c-1.6,0-2.4-0.8-2.4-2.2c0-0.3,0.2-1.1,0.2-1.4l1-4.8h2.3
		l-1,4.8c-0.1,0.2-0.1,0.8-0.1,1c0,0.5,0.6,0.8,1.1,0.8c1.4,0,2.1-1.1,2.3-2.3l0.9-4.4h2.3L263.9,69z"/>
	<path class="st0" d="M269,60.8h2.1l-0.3,1.5l0,0c0.5-1.1,1.6-1.7,2.8-1.7c0.2,0,0.5,0,0.7,0l-0.5,2.2c-0.3-0.1-0.6-0.1-1-0.1
		c-1.7,0-2.3,1.3-2.6,2.7l-0.8,3.6h-2.3L269,60.8z"/>
	<path class="st0" d="M276.9,60.8h2.2l-0.3,1.1l0,0c0.7-0.9,1.7-1.4,2.9-1.4c1.6,0,2.4,0.8,2.4,2.2c0,0.3-0.2,1.1-0.2,1.4l-1,4.8
		h-2.3l1-4.8c0.1-0.2,0.1-0.8,0.1-1c0-0.5-0.6-0.8-1.1-0.8c-1.4,0-2.1,1.1-2.3,2.3l-0.9,4.4h-2.3L276.9,60.8z"/>
	<path class="st0" d="M291.5,60.6c2.3,0,3.8,1.1,3.8,3.5c0,2.9-1.8,5.2-4.8,5.2c-2.3,0-3.8-1.2-3.8-3.5
		C286.8,62.9,288.5,60.6,291.5,60.6z M290.7,67.5c1.7,0,2.4-2.1,2.4-3.4c0-1.1-0.5-1.8-1.6-1.8c-1.6,0-2.4,2-2.4,3.4
		C289,66.6,289.5,67.5,290.7,67.5z"/>
	<path class="st0" d="M305.2,69H303l0.3-1.1l0,0c-0.7,0.9-1.7,1.4-2.9,1.4c-1.6,0-2.4-0.8-2.4-2.2c0-0.3,0.2-1.1,0.2-1.4l1-4.8h2.3
		l-1,4.8c-0.1,0.2-0.1,0.8-0.1,1c0,0.5,0.6,0.8,1.1,0.8c1.4,0,2.1-1.1,2.3-2.3l0.9-4.4h2.3L305.2,69z"/>
	<path class="st0" d="M313.2,60.8h1.6l-0.3,1.5H313l-0.8,4.1c0,0.2-0.1,0.3-0.1,0.4c0,0.6,0.4,0.6,0.8,0.6c0.3,0,0.5,0,0.8,0
		l-0.4,1.7c-0.5,0-0.9,0.1-1.4,0.1c-1,0-2.2-0.3-2.1-1.7c0-0.2,0-0.5,0.1-0.8l0.9-4.4h-1.5l0.3-1.5h1.4l0.5-2.5h2.3L313.2,60.8z"/>
	<path class="st1" d="M317.9,67.3h1.3V69h-1.3V67.3z"/>
	<path class="st1" d="M327,57.3v0.5c-0.2,0.2-0.4,0.5-0.7,0.8c-0.3,0.4-0.6,0.8-0.8,1.3c-0.3,0.5-0.5,1-0.7,1.7
		c-0.2,0.6-0.3,1.3-0.4,2.1h-0.6c0-0.5,0.1-1.1,0.2-1.6c0.1-0.5,0.3-1,0.5-1.4c0.2-0.5,0.5-0.9,0.8-1.4s0.7-1,1.2-1.5h-3.6v-0.5H327
		z"/>
	<path class="st1" d="M330,63.7c0,0.1,0,0.3-0.1,0.4c0,0.1-0.1,0.3-0.2,0.4c-0.1,0.1-0.2,0.2-0.3,0.3s-0.2,0.1-0.4,0.2v-0.4
		c0.1,0,0.1-0.1,0.2-0.1c0.1-0.1,0.1-0.1,0.1-0.2c0-0.1,0.1-0.2,0.1-0.3s0-0.2,0-0.2H329v-1h0.8v0.9H330z"/>
	<path class="st1" d="M336.2,59.7c-0.2,0.2-0.4,0.4-0.8,0.5l0,0c0.4,0.1,0.8,0.3,1,0.6c0.2,0.3,0.3,0.7,0.3,1.1
		c0,0.3-0.1,0.6-0.2,0.9s-0.3,0.4-0.5,0.6s-0.4,0.3-0.7,0.4c-0.3,0.1-0.6,0.1-0.9,0.1c-0.3,0-0.6,0-0.9-0.1
		c-0.3-0.1-0.5-0.2-0.7-0.4s-0.4-0.4-0.5-0.6s-0.2-0.5-0.2-0.9c0-0.4,0.1-0.8,0.4-1.1c0.2-0.3,0.5-0.5,1-0.6l0,0
		c-0.3-0.1-0.6-0.3-0.8-0.5s-0.3-0.5-0.3-0.9c0-0.3,0.1-0.5,0.2-0.7c0.1-0.2,0.3-0.4,0.4-0.5c0.2-0.1,0.4-0.2,0.6-0.3
		c0.2-0.1,0.5-0.1,0.7-0.1s0.5,0,0.7,0.1c0.2,0.1,0.4,0.2,0.6,0.3c0.2,0.1,0.3,0.3,0.5,0.5s0.2,0.4,0.2,0.7
		C336.5,59.2,336.4,59.5,336.2,59.7z M335,63.3c0.2-0.1,0.4-0.1,0.5-0.3c0.1-0.1,0.3-0.3,0.4-0.5c0.1-0.2,0.1-0.4,0.1-0.6
		s0-0.4-0.1-0.6s-0.2-0.3-0.4-0.4c-0.2-0.1-0.3-0.2-0.5-0.3s-0.4-0.1-0.6-0.1c-0.2,0-0.4,0-0.6,0.1c-0.2,0.1-0.4,0.1-0.5,0.3
		c-0.1,0.1-0.3,0.3-0.4,0.4c-0.1,0.2-0.1,0.4-0.1,0.6s0,0.5,0.1,0.6c0.1,0.2,0.2,0.3,0.4,0.5c0.1,0.1,0.3,0.2,0.5,0.3
		s0.4,0.1,0.6,0.1C334.7,63.4,334.9,63.3,335,63.3z M335,59.9c0.2,0,0.3-0.1,0.4-0.2c0.1-0.1,0.2-0.2,0.3-0.4
		c0.1-0.2,0.1-0.3,0.1-0.5s0-0.3-0.1-0.5c-0.1-0.1-0.2-0.3-0.3-0.4c-0.1-0.1-0.3-0.2-0.4-0.2c-0.2,0-0.3-0.1-0.5-0.1s-0.4,0-0.5,0.1
		c-0.2,0-0.3,0.1-0.4,0.2c-0.1,0.1-0.2,0.2-0.3,0.4c-0.1,0.1-0.1,0.3-0.1,0.5s0,0.4,0.1,0.6s0.2,0.3,0.3,0.4
		c0.1,0.1,0.3,0.2,0.4,0.2c0.2,0,0.3,0.1,0.5,0.1C334.7,60,334.9,60,335,59.9z"/>
</g>
</svg>
