<!-- Generator: Adobe Illustrator 20.1.0, SVG Export Plug-In  -->
<svg version="1.1"
	 xmlns="http://www.w3.org/2000/svg" xmlns:xlink="http://www.w3.org/1999/xlink" xmlns:a="http://ns.adobe.com/AdobeSVGViewerExtensions/3.0/"
	 x="0px" y="0px" width="186.3px" height="29.4px" viewBox="0 0 186.3 29.4"
	 style="overflow:scroll;enable-background:new 0 0 186.3 29.4;" xml:space="preserve">
<style type="text/css">
	.st0{opacity:0.8;fill:#333333;}
</style>
<defs>
</defs>
<g>
	<path class="st0" d="M2.3,0.2h7.4v1.8H4.5v2.1h4.8v1.7H4.5v2.4h5.3v1.8H2.3V0.2z"/>
	<path class="st0" d="M11.1,3h1.9v1h0c0.2-0.4,0.6-0.7,1-0.9s0.8-0.3,1.2-0.3c0.5,0,1,0.1,1.3,0.2s0.6,0.3,0.8,0.6
		c0.2,0.3,0.3,0.6,0.4,0.9c0.1,0.4,0.1,0.8,0.1,1.2v4.4h-2v-4c0-0.6-0.1-1-0.3-1.3s-0.5-0.4-1-0.4c-0.5,0-0.9,0.2-1.2,0.5
		C13.2,5.1,13,5.6,13,6.4v3.7h-2V3z"/>
	<path class="st0" d="M20.9,7c0,0.6,0.2,1.1,0.5,1.4c0.3,0.3,0.7,0.4,1.3,0.4c0.4,0,0.7-0.1,1-0.3c0.3-0.2,0.5-0.4,0.5-0.6h1.7
		c-0.3,0.8-0.7,1.5-1.3,1.8s-1.3,0.6-2.1,0.6c-0.6,0-1.1-0.1-1.5-0.3c-0.5-0.2-0.8-0.4-1.1-0.8c-0.3-0.3-0.6-0.7-0.7-1.2
		s-0.3-1-0.3-1.5c0-0.5,0.1-1,0.3-1.5c0.2-0.5,0.4-0.9,0.7-1.2c0.3-0.3,0.7-0.6,1.2-0.8c0.4-0.2,0.9-0.3,1.5-0.3
		c0.6,0,1.1,0.1,1.6,0.4c0.5,0.2,0.8,0.5,1.1,0.9c0.3,0.4,0.5,0.8,0.6,1.4C26,5.9,26.1,6.5,26,7H20.9z M24.1,5.8
		c-0.1-0.5-0.3-0.9-0.5-1.1c-0.2-0.3-0.6-0.4-1.1-0.4c-0.3,0-0.6,0.1-0.8,0.2c-0.2,0.1-0.4,0.2-0.5,0.4C21.1,5,21,5.1,21,5.3
		c0,0.2-0.1,0.3-0.1,0.5H24.1z"/>
	<path class="st0" d="M27.2,3h1.9v1.3h0c0.1-0.2,0.2-0.4,0.4-0.6c0.2-0.2,0.3-0.4,0.5-0.5c0.2-0.1,0.4-0.2,0.7-0.3
		c0.2-0.1,0.5-0.1,0.7-0.1c0.1,0,0.3,0,0.4,0.1v1.8c-0.1,0-0.2,0-0.3,0s-0.3,0-0.4,0c-0.4,0-0.7,0.1-0.9,0.2
		c-0.2,0.1-0.4,0.3-0.6,0.5c-0.2,0.2-0.3,0.5-0.3,0.7c-0.1,0.3-0.1,0.6-0.1,0.9v3.2h-2V3z"/>
	<path class="st0" d="M39.4,9.6c0,0.2,0,0.4,0,0.6s-0.1,0.5-0.2,0.7c-0.1,0.2-0.2,0.5-0.4,0.7c-0.2,0.2-0.4,0.4-0.7,0.6
		c-0.3,0.2-0.6,0.3-1,0.4c-0.4,0.1-0.9,0.2-1.4,0.2c-0.3,0-0.7,0-1.1-0.1c-0.4-0.1-0.7-0.2-1-0.4c-0.3-0.2-0.5-0.4-0.7-0.7
		s-0.3-0.6-0.3-1h1.9c0.1,0.4,0.3,0.6,0.5,0.8c0.3,0.1,0.6,0.2,0.9,0.2c0.5,0,0.9-0.2,1.2-0.5c0.3-0.3,0.4-0.8,0.4-1.3V8.8h0
		c-0.2,0.4-0.5,0.7-0.9,0.8s-0.8,0.3-1.2,0.3c-0.5,0-1-0.1-1.4-0.3c-0.4-0.2-0.7-0.4-1-0.8c-0.2-0.3-0.4-0.7-0.5-1.1
		c-0.1-0.4-0.2-0.9-0.2-1.4c0-0.5,0.1-0.9,0.2-1.3c0.1-0.4,0.3-0.8,0.6-1.1c0.3-0.3,0.6-0.6,1-0.8c0.4-0.2,0.8-0.3,1.3-0.3
		c0.5,0,0.9,0.1,1.2,0.3s0.7,0.5,0.9,0.9h0V3h1.9V9.6z M35.9,8.4c0.3,0,0.5-0.1,0.7-0.2S37,8,37.2,7.8c0.1-0.2,0.2-0.4,0.3-0.6
		c0.1-0.2,0.1-0.5,0.1-0.7c0-0.3,0-0.6-0.1-0.8c-0.1-0.3-0.1-0.5-0.3-0.7s-0.3-0.4-0.5-0.5c-0.2-0.1-0.5-0.2-0.8-0.2
		c-0.3,0-0.5,0.1-0.7,0.2c-0.2,0.1-0.4,0.3-0.5,0.4c-0.1,0.2-0.2,0.4-0.3,0.6c-0.1,0.2-0.1,0.5-0.1,0.8c0,0.3,0,0.5,0.1,0.8
		c0,0.3,0.1,0.5,0.3,0.7c0.1,0.2,0.3,0.4,0.5,0.5C35.4,8.4,35.6,8.4,35.9,8.4z"/>
	<path class="st0" d="M42.4,2.1H41l1.3-2h2.2L42.4,2.1z M41.1,3h2v7.1h-2V3z"/>
	<path class="st0" d="M44.5,5.2c0-0.5,0.1-0.8,0.3-1.1c0.2-0.3,0.5-0.5,0.8-0.7c0.3-0.2,0.7-0.3,1.1-0.4c0.4-0.1,0.8-0.1,1.2-0.1
		c0.4,0,0.7,0,1.1,0.1s0.7,0.1,1,0.3s0.6,0.4,0.7,0.6C50.9,4,51,4.4,51,4.8v3.7c0,0.3,0,0.6,0.1,0.9c0,0.3,0.1,0.5,0.2,0.7h-2
		c0-0.1-0.1-0.2-0.1-0.3c0-0.1,0-0.2,0-0.4c-0.3,0.3-0.7,0.5-1.1,0.7s-0.9,0.2-1.3,0.2c-0.3,0-0.7,0-1-0.1c-0.3-0.1-0.6-0.2-0.8-0.4
		c-0.2-0.2-0.4-0.4-0.5-0.7c-0.1-0.3-0.2-0.6-0.2-1c0-0.4,0.1-0.7,0.2-1c0.1-0.3,0.3-0.5,0.6-0.6c0.2-0.2,0.5-0.3,0.8-0.4
		C46.1,6.1,46.4,6,46.7,6c0.3,0,0.6-0.1,0.9-0.1c0.3,0,0.5-0.1,0.7-0.1c0.2-0.1,0.4-0.1,0.5-0.2C49,5.4,49,5.2,49,5
		c0-0.2,0-0.4-0.1-0.5s-0.2-0.2-0.3-0.3s-0.2-0.1-0.4-0.1c-0.2,0-0.3,0-0.5,0c-0.4,0-0.7,0.1-0.9,0.2c-0.2,0.2-0.4,0.4-0.4,0.8H44.5
		z M49,6.6c-0.1,0.1-0.2,0.1-0.3,0.2c-0.1,0-0.3,0.1-0.4,0.1c-0.1,0-0.3,0.1-0.5,0.1S47.6,7,47.4,7c-0.2,0-0.3,0.1-0.4,0.1
		c-0.1,0-0.3,0.1-0.4,0.2c-0.1,0.1-0.2,0.2-0.3,0.3c-0.1,0.1-0.1,0.3-0.1,0.4c0,0.2,0,0.3,0.1,0.4s0.2,0.2,0.3,0.3s0.2,0.1,0.4,0.1
		c0.1,0,0.3,0,0.5,0c0.4,0,0.7-0.1,0.9-0.2s0.4-0.3,0.5-0.5C48.9,8.1,49,8,49,7.8c0-0.2,0-0.3,0-0.4V6.6z"/>
	<path class="st0" d="M59.8,0c-0.5,1-0.9,2-1.1,3.1s-0.4,2.1-0.4,3.2c0,1.1,0.1,2.2,0.4,3.2c0.2,1.1,0.6,2.1,1.1,3.1h-1.6
		c-0.6-0.9-1-2-1.3-3s-0.5-2.1-0.5-3.2c0-0.5,0-1.1,0.1-1.6c0.1-0.6,0.2-1.1,0.3-1.7c0.2-0.6,0.3-1.1,0.6-1.6c0.2-0.5,0.5-1,0.8-1.5
		H59.8z"/>
	<path class="st0" d="M60.5,3h1.9v0.9h0c0.2-0.4,0.5-0.7,0.9-0.8c0.4-0.2,0.8-0.3,1.2-0.3c0.6,0,1,0.1,1.5,0.3s0.7,0.5,1,0.8
		c0.3,0.4,0.5,0.8,0.6,1.2c0.1,0.5,0.2,1,0.2,1.5c0,0.5-0.1,0.9-0.2,1.4s-0.3,0.8-0.6,1.2s-0.6,0.6-1,0.8c-0.4,0.2-0.9,0.3-1.4,0.3
		c-0.4,0-0.8-0.1-1.2-0.3c-0.4-0.2-0.7-0.5-0.9-0.8h0v3.4h-2V3z M64.1,8.8c0.3,0,0.6-0.1,0.8-0.2c0.2-0.1,0.4-0.3,0.5-0.5
		c0.1-0.2,0.2-0.4,0.3-0.7c0.1-0.3,0.1-0.6,0.1-0.8c0-0.3,0-0.6-0.1-0.8c-0.1-0.3-0.2-0.5-0.3-0.7c-0.1-0.2-0.3-0.4-0.5-0.5
		c-0.2-0.1-0.5-0.2-0.8-0.2c-0.3,0-0.6,0.1-0.8,0.2S62.8,4.7,62.7,5c-0.1,0.2-0.2,0.5-0.3,0.7c-0.1,0.3-0.1,0.6-0.1,0.9
		c0,0.3,0,0.6,0.1,0.8c0.1,0.3,0.2,0.5,0.3,0.7c0.1,0.2,0.3,0.4,0.5,0.5C63.5,8.8,63.7,8.8,64.1,8.8z"/>
	<path class="st0" d="M68.8,5.2c0-0.5,0.1-0.8,0.3-1.1c0.2-0.3,0.5-0.5,0.8-0.7C70.2,3.1,70.6,3,71,2.9c0.4-0.1,0.8-0.1,1.2-0.1
		c0.4,0,0.7,0,1.1,0.1s0.7,0.1,1,0.3s0.6,0.4,0.7,0.6c0.2,0.3,0.3,0.6,0.3,1v3.7c0,0.3,0,0.6,0.1,0.9c0,0.3,0.1,0.5,0.2,0.7h-2
		c0-0.1-0.1-0.2-0.1-0.3c0-0.1,0-0.2,0-0.4c-0.3,0.3-0.7,0.5-1.1,0.7s-0.9,0.2-1.3,0.2c-0.3,0-0.7,0-1-0.1c-0.3-0.1-0.6-0.2-0.8-0.4
		c-0.2-0.2-0.4-0.4-0.5-0.7c-0.1-0.3-0.2-0.6-0.2-1c0-0.4,0.1-0.7,0.2-1c0.1-0.3,0.3-0.5,0.6-0.6c0.2-0.2,0.5-0.3,0.8-0.4
		C70.4,6.1,70.7,6,71,6c0.3,0,0.6-0.1,0.9-0.1c0.3,0,0.5-0.1,0.7-0.1c0.2-0.1,0.4-0.1,0.5-0.2c0.1-0.1,0.2-0.3,0.2-0.5
		c0-0.2,0-0.4-0.1-0.5S73.1,4.3,73,4.2s-0.2-0.1-0.4-0.1c-0.2,0-0.3,0-0.5,0c-0.4,0-0.7,0.1-0.9,0.2c-0.2,0.2-0.4,0.4-0.4,0.8H68.8z
		 M73.3,6.6c-0.1,0.1-0.2,0.1-0.3,0.2c-0.1,0-0.3,0.1-0.4,0.1c-0.1,0-0.3,0.1-0.5,0.1S71.9,7,71.7,7c-0.2,0-0.3,0.1-0.4,0.1
		c-0.1,0-0.3,0.1-0.4,0.2c-0.1,0.1-0.2,0.2-0.3,0.3c-0.1,0.1-0.1,0.3-0.1,0.4c0,0.2,0,0.3,0.1,0.4s0.2,0.2,0.3,0.3s0.2,0.1,0.4,0.1
		c0.1,0,0.3,0,0.5,0c0.4,0,0.7-0.1,0.9-0.2s0.4-0.3,0.5-0.5c0.1-0.2,0.2-0.4,0.2-0.5c0-0.2,0-0.3,0-0.4V6.6z"/>
	<path class="st0" d="M76.8,3h1.9v1.3h0c0.1-0.2,0.2-0.4,0.4-0.6c0.2-0.2,0.3-0.4,0.5-0.5c0.2-0.1,0.4-0.2,0.7-0.3
		c0.2-0.1,0.5-0.1,0.7-0.1c0.1,0,0.3,0,0.4,0.1v1.8c-0.1,0-0.2,0-0.3,0s-0.3,0-0.4,0c-0.4,0-0.7,0.1-0.9,0.2
		c-0.2,0.1-0.4,0.3-0.6,0.5c-0.2,0.2-0.3,0.5-0.3,0.7c-0.1,0.3-0.1,0.6-0.1,0.9v3.2h-2V3z"/>
	<path class="st0" d="M82.1,5.2c0-0.5,0.1-0.8,0.3-1.1c0.2-0.3,0.5-0.5,0.8-0.7c0.3-0.2,0.7-0.3,1.1-0.4c0.4-0.1,0.8-0.1,1.2-0.1
		c0.4,0,0.7,0,1.1,0.1s0.7,0.1,1,0.3s0.6,0.4,0.7,0.6c0.2,0.3,0.3,0.6,0.3,1v3.7c0,0.3,0,0.6,0.1,0.9c0,0.3,0.1,0.5,0.2,0.7h-2
		c0-0.1-0.1-0.2-0.1-0.3c0-0.1,0-0.2,0-0.4c-0.3,0.3-0.7,0.5-1.1,0.7s-0.9,0.2-1.3,0.2c-0.3,0-0.7,0-1-0.1c-0.3-0.1-0.6-0.2-0.8-0.4
		c-0.2-0.2-0.4-0.4-0.5-0.7c-0.1-0.3-0.2-0.6-0.2-1c0-0.4,0.1-0.7,0.2-1c0.1-0.3,0.3-0.5,0.6-0.6c0.2-0.2,0.5-0.3,0.8-0.4
		C83.7,6.1,84,6,84.3,6c0.3,0,0.6-0.1,0.9-0.1c0.3,0,0.5-0.1,0.7-0.1c0.2-0.1,0.4-0.1,0.5-0.2c0.1-0.1,0.2-0.3,0.2-0.5
		c0-0.2,0-0.4-0.1-0.5s-0.2-0.2-0.3-0.3S86,4.1,85.9,4.1c-0.2,0-0.3,0-0.5,0c-0.4,0-0.7,0.1-0.9,0.2c-0.2,0.2-0.4,0.4-0.4,0.8H82.1z
		 M86.6,6.6c-0.1,0.1-0.2,0.1-0.3,0.2c-0.1,0-0.3,0.1-0.4,0.1c-0.1,0-0.3,0.1-0.5,0.1S85.2,7,85,7c-0.2,0-0.3,0.1-0.4,0.1
		c-0.1,0-0.3,0.1-0.4,0.2C84.1,7.4,84,7.5,84,7.6c-0.1,0.1-0.1,0.3-0.1,0.4c0,0.2,0,0.3,0.1,0.4s0.2,0.2,0.3,0.3s0.2,0.1,0.4,0.1
		c0.1,0,0.3,0,0.5,0c0.4,0,0.7-0.1,0.9-0.2s0.4-0.3,0.5-0.5c0.1-0.2,0.2-0.4,0.2-0.5c0-0.2,0-0.3,0-0.4V6.6z"/>
	<path class="st0" d="M95.5,7.8c0,0.2,0,0.4,0.1,0.5c0.1,0.2,0.2,0.3,0.3,0.4c0.1,0.1,0.3,0.2,0.5,0.2S96.8,9,97,9
		c0.1,0,0.3,0,0.4,0c0.2,0,0.3-0.1,0.4-0.2c0.1-0.1,0.2-0.2,0.3-0.3s0.1-0.3,0.1-0.4c0-0.1-0.1-0.3-0.2-0.4
		c-0.1-0.1-0.2-0.2-0.4-0.3S97.3,7.2,97,7.2C96.7,7.1,96.4,7,96.1,7c-0.3-0.1-0.6-0.1-0.8-0.2c-0.3-0.1-0.5-0.2-0.7-0.3
		S94.1,6.1,94,5.9c-0.1-0.2-0.2-0.5-0.2-0.8c0-0.5,0.1-0.8,0.3-1.1c0.2-0.3,0.4-0.5,0.7-0.7c0.3-0.2,0.6-0.3,1-0.4
		c0.4-0.1,0.7-0.1,1.1-0.1s0.8,0,1.1,0.1c0.4,0.1,0.7,0.2,1,0.4c0.3,0.2,0.5,0.4,0.7,0.7C99.9,4.2,100,4.6,100,5h-1.9
		c0-0.4-0.2-0.6-0.4-0.8s-0.6-0.2-0.9-0.2c-0.1,0-0.2,0-0.4,0s-0.2,0-0.4,0.1c-0.1,0-0.2,0.1-0.3,0.2c-0.1,0.1-0.1,0.2-0.1,0.4
		c0,0.2,0.1,0.3,0.2,0.4s0.3,0.2,0.5,0.3c0.2,0.1,0.4,0.1,0.7,0.2c0.3,0.1,0.5,0.1,0.8,0.2c0.3,0.1,0.6,0.1,0.8,0.2
		c0.3,0.1,0.5,0.2,0.7,0.4S99.9,6.7,100,7c0.1,0.2,0.2,0.5,0.2,0.8c0,0.5-0.1,0.9-0.3,1.2c-0.2,0.3-0.4,0.6-0.7,0.8
		c-0.3,0.2-0.7,0.3-1,0.4s-0.8,0.1-1.2,0.1c-0.4,0-0.8,0-1.2-0.1c-0.4-0.1-0.7-0.2-1.1-0.4S94.1,9.3,93.9,9s-0.3-0.7-0.3-1.2H95.5z"
		/>
	<path class="st0" d="M101.2,6.5c0-0.6,0.1-1.1,0.3-1.6c0.2-0.5,0.4-0.9,0.7-1.2c0.3-0.3,0.7-0.6,1.2-0.8s1-0.3,1.5-0.3
		c0.6,0,1.1,0.1,1.5,0.3s0.8,0.4,1.2,0.8c0.3,0.3,0.6,0.7,0.7,1.2c0.2,0.5,0.3,1,0.3,1.6c0,0.6-0.1,1.1-0.3,1.5
		c-0.2,0.5-0.4,0.9-0.7,1.2c-0.3,0.3-0.7,0.6-1.2,0.8s-1,0.3-1.5,0.3c-0.6,0-1.1-0.1-1.5-0.3s-0.8-0.4-1.2-0.8
		c-0.3-0.3-0.6-0.7-0.7-1.2C101.3,7.6,101.2,7.1,101.2,6.5z M103.1,6.5c0,0.3,0,0.6,0.1,0.8c0.1,0.3,0.1,0.5,0.3,0.7
		c0.1,0.2,0.3,0.4,0.5,0.5c0.2,0.1,0.5,0.2,0.8,0.2c0.3,0,0.6-0.1,0.8-0.2c0.2-0.1,0.4-0.3,0.5-0.5c0.1-0.2,0.2-0.5,0.3-0.7
		c0.1-0.3,0.1-0.6,0.1-0.8c0-0.3,0-0.6-0.1-0.8c-0.1-0.3-0.1-0.5-0.3-0.7s-0.3-0.4-0.5-0.5c-0.2-0.1-0.5-0.2-0.8-0.2
		c-0.3,0-0.6,0.1-0.8,0.2c-0.2,0.1-0.4,0.3-0.5,0.5c-0.1,0.2-0.2,0.5-0.3,0.7C103.2,6,103.1,6.3,103.1,6.5z"/>
	<path class="st0" d="M109.8,0.2h2v3.6h0c0.2-0.4,0.6-0.6,1-0.8c0.4-0.2,0.8-0.3,1.3-0.3c0.4,0,0.7,0.1,1.1,0.2
		c0.4,0.1,0.7,0.4,0.9,0.7c0.3,0.3,0.5,0.7,0.7,1.2s0.3,1,0.3,1.7c0,0.7-0.1,1.2-0.3,1.7s-0.4,0.9-0.7,1.2c-0.3,0.3-0.6,0.5-0.9,0.7
		c-0.3,0.1-0.7,0.2-1.1,0.2c-0.5,0-1-0.1-1.4-0.3c-0.4-0.2-0.7-0.5-0.9-0.8h0v0.9h-1.9V0.2z M115.1,6.5c0-0.3,0-0.6-0.1-0.9
		c-0.1-0.3-0.2-0.5-0.3-0.7c-0.1-0.2-0.3-0.4-0.5-0.5c-0.2-0.1-0.5-0.2-0.7-0.2c-0.3,0-0.5,0.1-0.8,0.2c-0.2,0.1-0.4,0.3-0.5,0.5
		c-0.1,0.2-0.2,0.5-0.3,0.7c-0.1,0.3-0.1,0.6-0.1,0.9c0,0.3,0,0.6,0.1,0.9c0.1,0.3,0.2,0.5,0.3,0.7c0.1,0.2,0.3,0.4,0.5,0.5
		c0.2,0.1,0.5,0.2,0.8,0.2c0.3,0,0.5-0.1,0.7-0.2c0.2-0.1,0.4-0.3,0.5-0.5c0.1-0.2,0.2-0.5,0.3-0.7C115,7.1,115.1,6.8,115.1,6.5z"/>
	<path class="st0" d="M118.3,3h1.9v1.3h0c0.1-0.2,0.2-0.4,0.4-0.6c0.2-0.2,0.3-0.4,0.5-0.5c0.2-0.1,0.4-0.2,0.7-0.3
		c0.2-0.1,0.5-0.1,0.7-0.1c0.1,0,0.3,0,0.4,0.1v1.8c-0.1,0-0.2,0-0.3,0s-0.3,0-0.4,0c-0.4,0-0.7,0.1-0.9,0.2
		c-0.2,0.1-0.4,0.3-0.6,0.5c-0.2,0.2-0.3,0.5-0.3,0.7c-0.1,0.3-0.1,0.6-0.1,0.9v3.2h-2V3z"/>
	<path class="st0" d="M125.3,7c0,0.6,0.2,1.1,0.5,1.4c0.3,0.3,0.7,0.4,1.3,0.4c0.4,0,0.7-0.1,1-0.3c0.3-0.2,0.5-0.4,0.5-0.6h1.7
		c-0.3,0.8-0.7,1.5-1.3,1.8s-1.3,0.6-2.1,0.6c-0.6,0-1.1-0.1-1.5-0.3c-0.5-0.2-0.8-0.4-1.1-0.8c-0.3-0.3-0.6-0.7-0.7-1.2
		s-0.3-1-0.3-1.5c0-0.5,0.1-1,0.3-1.5c0.2-0.5,0.4-0.9,0.7-1.2c0.3-0.3,0.7-0.6,1.2-0.8c0.4-0.2,0.9-0.3,1.5-0.3
		c0.6,0,1.1,0.1,1.6,0.4c0.5,0.2,0.8,0.5,1.1,0.9c0.3,0.4,0.5,0.8,0.6,1.4c0.1,0.5,0.2,1,0.1,1.6H125.3z M128.5,5.8
		c-0.1-0.5-0.3-0.9-0.5-1.1c-0.2-0.3-0.6-0.4-1.1-0.4c-0.3,0-0.6,0.1-0.8,0.2c-0.2,0.1-0.4,0.2-0.5,0.4c-0.1,0.2-0.2,0.3-0.3,0.5
		c0,0.2-0.1,0.3-0.1,0.5H128.5z"/>
	<path class="st0" d="M131.6,3h1.9v0.9h0c0.2-0.4,0.5-0.7,0.9-0.8c0.4-0.2,0.8-0.3,1.2-0.3c0.6,0,1,0.1,1.5,0.3s0.7,0.5,1,0.8
		c0.3,0.4,0.5,0.8,0.6,1.2c0.1,0.5,0.2,1,0.2,1.5c0,0.5-0.1,0.9-0.2,1.4s-0.3,0.8-0.6,1.2s-0.6,0.6-1,0.8c-0.4,0.2-0.9,0.3-1.4,0.3
		c-0.4,0-0.8-0.1-1.2-0.3c-0.4-0.2-0.7-0.5-0.9-0.8h0v3.4h-2V3z M135.2,8.8c0.3,0,0.6-0.1,0.8-0.2c0.2-0.1,0.4-0.3,0.5-0.5
		c0.1-0.2,0.2-0.4,0.3-0.7c0.1-0.3,0.1-0.6,0.1-0.8c0-0.3,0-0.6-0.1-0.8c-0.1-0.3-0.2-0.5-0.3-0.7c-0.1-0.2-0.3-0.4-0.5-0.5
		c-0.2-0.1-0.5-0.2-0.8-0.2c-0.3,0-0.6,0.1-0.8,0.2S134,4.7,133.8,5c-0.1,0.2-0.2,0.5-0.3,0.7c-0.1,0.3-0.1,0.6-0.1,0.9
		c0,0.3,0,0.6,0.1,0.8c0.1,0.3,0.2,0.5,0.3,0.7c0.1,0.2,0.3,0.4,0.5,0.5C134.6,8.8,134.9,8.8,135.2,8.8z"/>
	<path class="st0" d="M139.8,6.5c0-0.6,0.1-1.1,0.3-1.6c0.2-0.5,0.4-0.9,0.7-1.2c0.3-0.3,0.7-0.6,1.2-0.8s1-0.3,1.5-0.3
		c0.6,0,1.1,0.1,1.5,0.3s0.8,0.4,1.2,0.8c0.3,0.3,0.6,0.7,0.7,1.2c0.2,0.5,0.3,1,0.3,1.6c0,0.6-0.1,1.1-0.3,1.5
		c-0.2,0.5-0.4,0.9-0.7,1.2c-0.3,0.3-0.7,0.6-1.2,0.8s-1,0.3-1.5,0.3c-0.6,0-1.1-0.1-1.5-0.3s-0.8-0.4-1.2-0.8
		c-0.3-0.3-0.6-0.7-0.7-1.2C139.9,7.6,139.8,7.1,139.8,6.5z M141.8,6.5c0,0.3,0,0.6,0.1,0.8c0.1,0.3,0.1,0.5,0.3,0.7
		c0.1,0.2,0.3,0.4,0.5,0.5c0.2,0.1,0.5,0.2,0.8,0.2c0.3,0,0.6-0.1,0.8-0.2c0.2-0.1,0.4-0.3,0.5-0.5c0.1-0.2,0.2-0.5,0.3-0.7
		c0.1-0.3,0.1-0.6,0.1-0.8c0-0.3,0-0.6-0.1-0.8c-0.1-0.3-0.1-0.5-0.3-0.7s-0.3-0.4-0.5-0.5c-0.2-0.1-0.5-0.2-0.8-0.2
		c-0.3,0-0.6,0.1-0.8,0.2c-0.2,0.1-0.4,0.3-0.5,0.5c-0.1,0.2-0.2,0.5-0.3,0.7C141.8,6,141.8,6.3,141.8,6.5z"/>
	<path class="st0" d="M148.5,3h1.9v1h0c0.2-0.4,0.6-0.7,1-0.9s0.8-0.3,1.2-0.3c0.5,0,1,0.1,1.3,0.2s0.6,0.3,0.8,0.6
		c0.2,0.3,0.3,0.6,0.4,0.9c0.1,0.4,0.1,0.8,0.1,1.2v4.4h-2v-4c0-0.6-0.1-1-0.3-1.3s-0.5-0.4-1-0.4c-0.5,0-0.9,0.2-1.2,0.5
		c-0.2,0.3-0.4,0.8-0.4,1.6v3.7h-2V3z"/>
	<path class="st0" d="M158.3,7c0,0.6,0.2,1.1,0.5,1.4c0.3,0.3,0.7,0.4,1.3,0.4c0.4,0,0.7-0.1,1-0.3c0.3-0.2,0.5-0.4,0.5-0.6h1.7
		c-0.3,0.8-0.7,1.5-1.3,1.8s-1.3,0.6-2.1,0.6c-0.6,0-1.1-0.1-1.5-0.3c-0.5-0.2-0.8-0.4-1.1-0.8c-0.3-0.3-0.6-0.7-0.7-1.2
		s-0.3-1-0.3-1.5c0-0.5,0.1-1,0.3-1.5c0.2-0.5,0.4-0.9,0.7-1.2c0.3-0.3,0.7-0.6,1.2-0.8c0.4-0.2,0.9-0.3,1.5-0.3
		c0.6,0,1.1,0.1,1.6,0.4c0.5,0.2,0.8,0.5,1.1,0.9c0.3,0.4,0.5,0.8,0.6,1.4c0.1,0.5,0.2,1,0.1,1.6H158.3z M161.5,5.8
		c-0.1-0.5-0.3-0.9-0.5-1.1c-0.2-0.3-0.6-0.4-1.1-0.4c-0.3,0-0.6,0.1-0.8,0.2c-0.2,0.1-0.4,0.2-0.5,0.4c-0.1,0.2-0.2,0.3-0.3,0.5
		c0,0.2-0.1,0.3-0.1,0.5H161.5z"/>
	<path class="st0" d="M164.6,3h1.9v1.3h0c0.1-0.2,0.2-0.4,0.4-0.6c0.2-0.2,0.3-0.4,0.5-0.5c0.2-0.1,0.4-0.2,0.7-0.3
		c0.2-0.1,0.5-0.1,0.7-0.1c0.1,0,0.3,0,0.4,0.1v1.8c-0.1,0-0.2,0-0.3,0s-0.3,0-0.4,0c-0.4,0-0.7,0.1-0.9,0.2
		c-0.2,0.1-0.4,0.3-0.6,0.5c-0.2,0.2-0.3,0.5-0.3,0.7c-0.1,0.3-0.1,0.6-0.1,0.9v3.2h-2V3z"/>
	<path class="st0" d="M171.5,7.8c0,0.2,0,0.4,0.1,0.5c0.1,0.2,0.2,0.3,0.3,0.4c0.1,0.1,0.3,0.2,0.5,0.2S172.8,9,173,9
		c0.1,0,0.3,0,0.4,0c0.2,0,0.3-0.1,0.4-0.2c0.1-0.1,0.2-0.2,0.3-0.3s0.1-0.3,0.1-0.4c0-0.1-0.1-0.3-0.2-0.4
		c-0.1-0.1-0.2-0.2-0.4-0.3s-0.4-0.2-0.7-0.2c-0.3-0.1-0.6-0.1-0.9-0.2c-0.3-0.1-0.6-0.1-0.8-0.2c-0.3-0.1-0.5-0.2-0.7-0.3
		s-0.4-0.3-0.5-0.5c-0.1-0.2-0.2-0.5-0.2-0.8c0-0.5,0.1-0.8,0.3-1.1c0.2-0.3,0.4-0.5,0.7-0.7c0.3-0.2,0.6-0.3,1-0.4
		c0.4-0.1,0.7-0.1,1.1-0.1s0.8,0,1.1,0.1c0.4,0.1,0.7,0.2,1,0.4c0.3,0.2,0.5,0.4,0.7,0.7c0.2,0.3,0.3,0.7,0.3,1.1h-1.9
		c0-0.4-0.2-0.6-0.4-0.8s-0.6-0.2-0.9-0.2c-0.1,0-0.2,0-0.4,0s-0.2,0-0.4,0.1c-0.1,0-0.2,0.1-0.3,0.2c-0.1,0.1-0.1,0.2-0.1,0.4
		c0,0.2,0.1,0.3,0.2,0.4s0.3,0.2,0.5,0.3c0.2,0.1,0.4,0.1,0.7,0.2c0.3,0.1,0.5,0.1,0.8,0.2c0.3,0.1,0.6,0.1,0.8,0.2
		c0.3,0.1,0.5,0.2,0.7,0.4s0.4,0.3,0.5,0.6c0.1,0.2,0.2,0.5,0.2,0.8c0,0.5-0.1,0.9-0.3,1.2c-0.2,0.3-0.4,0.6-0.7,0.8
		c-0.3,0.2-0.7,0.3-1,0.4s-0.8,0.1-1.2,0.1c-0.4,0-0.8,0-1.2-0.1c-0.4-0.1-0.7-0.2-1.1-0.4s-0.6-0.5-0.8-0.8s-0.3-0.7-0.3-1.2H171.5
		z"/>
	<path class="st0" d="M179,7c0,0.6,0.2,1.1,0.5,1.4c0.3,0.3,0.7,0.4,1.3,0.4c0.4,0,0.7-0.1,1-0.3c0.3-0.2,0.5-0.4,0.5-0.6h1.7
		c-0.3,0.8-0.7,1.5-1.3,1.8s-1.3,0.6-2.1,0.6c-0.6,0-1.1-0.1-1.5-0.3c-0.5-0.2-0.8-0.4-1.1-0.8c-0.3-0.3-0.6-0.7-0.7-1.2
		s-0.3-1-0.3-1.5c0-0.5,0.1-1,0.3-1.5c0.2-0.5,0.4-0.9,0.7-1.2c0.3-0.3,0.7-0.6,1.2-0.8c0.4-0.2,0.9-0.3,1.5-0.3
		c0.6,0,1.1,0.1,1.6,0.4c0.5,0.2,0.8,0.5,1.1,0.9c0.3,0.4,0.5,0.8,0.6,1.4c0.1,0.5,0.2,1,0.1,1.6H179z M182.2,5.8
		c-0.1-0.5-0.3-0.9-0.5-1.1c-0.2-0.3-0.6-0.4-1.1-0.4c-0.3,0-0.6,0.1-0.8,0.2c-0.2,0.1-0.4,0.2-0.5,0.4c-0.1,0.2-0.2,0.3-0.3,0.5
		c0,0.2-0.1,0.3-0.1,0.5H182.2z"/>
	<path class="st0" d="M5.4,25.8L5.4,25.8c-0.3,0.4-0.6,0.7-0.9,0.8s-0.8,0.3-1.3,0.3c-0.5,0-1-0.1-1.4-0.3s-0.7-0.5-1-0.9
		c-0.3-0.4-0.5-0.8-0.6-1.2C0.1,24,0,23.5,0,23c0-0.5,0.1-0.9,0.2-1.4c0.1-0.4,0.3-0.8,0.6-1.2c0.3-0.3,0.6-0.6,1-0.8
		c0.4-0.2,0.9-0.3,1.4-0.3c0.4,0,0.8,0.1,1.2,0.3c0.4,0.2,0.7,0.4,0.9,0.8h0v-3.6h2v9.9H5.4V25.8z M5.4,23.1c0-0.3,0-0.6-0.1-0.8
		S5.1,21.7,5,21.5c-0.1-0.2-0.3-0.4-0.5-0.5S4,20.8,3.7,20.8c-0.3,0-0.6,0.1-0.8,0.2c-0.2,0.1-0.4,0.3-0.5,0.5S2.1,22,2.1,22.3
		C2,22.5,2,22.8,2,23.1c0,0.3,0,0.6,0.1,0.8s0.2,0.5,0.3,0.7c0.1,0.2,0.3,0.4,0.5,0.5s0.5,0.2,0.8,0.2c0.3,0,0.6-0.1,0.8-0.2
		c0.2-0.1,0.4-0.3,0.5-0.5c0.1-0.2,0.2-0.5,0.3-0.7S5.4,23.4,5.4,23.1z"/>
	<path class="st0" d="M10.4,23.6c0,0.6,0.2,1.1,0.5,1.4c0.3,0.3,0.7,0.4,1.3,0.4c0.4,0,0.7-0.1,1-0.3c0.3-0.2,0.5-0.4,0.5-0.6h1.7
		c-0.3,0.8-0.7,1.5-1.3,1.8s-1.3,0.6-2.1,0.6c-0.6,0-1.1-0.1-1.5-0.3c-0.5-0.2-0.8-0.4-1.1-0.8c-0.3-0.3-0.6-0.7-0.7-1.2
		s-0.3-1-0.3-1.5c0-0.5,0.1-1,0.3-1.5c0.2-0.5,0.4-0.9,0.7-1.2c0.3-0.3,0.7-0.6,1.2-0.8c0.4-0.2,0.9-0.3,1.5-0.3
		c0.6,0,1.1,0.1,1.6,0.4c0.5,0.2,0.8,0.5,1.1,0.9c0.3,0.4,0.5,0.8,0.6,1.4c0.1,0.5,0.2,1,0.1,1.6H10.4z M13.6,22.3
		c-0.1-0.5-0.3-0.9-0.5-1.1c-0.2-0.3-0.6-0.4-1.1-0.4c-0.3,0-0.6,0.1-0.8,0.2c-0.2,0.1-0.4,0.2-0.5,0.4c-0.1,0.2-0.2,0.3-0.3,0.5
		c0,0.2-0.1,0.3-0.1,0.5H13.6z"/>
	<path class="st0" d="M16.7,16.8h2v9.9h-2V16.8z"/>
	<path class="st0" d="M24,21.7c0-0.5,0.1-0.8,0.3-1.1c0.2-0.3,0.5-0.5,0.8-0.7c0.3-0.2,0.7-0.3,1.1-0.4c0.4-0.1,0.8-0.1,1.2-0.1
		c0.4,0,0.7,0,1.1,0.1s0.7,0.1,1,0.3s0.6,0.4,0.7,0.6c0.2,0.3,0.3,0.6,0.3,1v3.7c0,0.3,0,0.6,0.1,0.9c0,0.3,0.1,0.5,0.2,0.7h-2
		c0-0.1-0.1-0.2-0.1-0.3c0-0.1,0-0.2,0-0.4c-0.3,0.3-0.7,0.5-1.1,0.7s-0.9,0.2-1.3,0.2c-0.3,0-0.7,0-1-0.1c-0.3-0.1-0.6-0.2-0.8-0.4
		c-0.2-0.2-0.4-0.4-0.5-0.7c-0.1-0.3-0.2-0.6-0.2-1c0-0.4,0.1-0.7,0.2-1c0.1-0.3,0.3-0.5,0.6-0.6c0.2-0.2,0.5-0.3,0.8-0.4
		c0.3-0.1,0.6-0.1,0.9-0.2c0.3,0,0.6-0.1,0.9-0.1c0.3,0,0.5-0.1,0.7-0.1c0.2-0.1,0.4-0.1,0.5-0.2c0.1-0.1,0.2-0.3,0.2-0.5
		c0-0.2,0-0.4-0.1-0.5s-0.2-0.2-0.3-0.3s-0.2-0.1-0.4-0.1c-0.2,0-0.3,0-0.5,0c-0.4,0-0.7,0.1-0.9,0.2c-0.2,0.2-0.4,0.4-0.4,0.8H24z
		 M28.5,23.2c-0.1,0.1-0.2,0.1-0.3,0.2c-0.1,0-0.3,0.1-0.4,0.1c-0.1,0-0.3,0.1-0.5,0.1s-0.3,0-0.5,0.1c-0.2,0-0.3,0.1-0.4,0.1
		c-0.1,0-0.3,0.1-0.4,0.2c-0.1,0.1-0.2,0.2-0.3,0.3c-0.1,0.1-0.1,0.3-0.1,0.4c0,0.2,0,0.3,0.1,0.4s0.2,0.2,0.3,0.3s0.2,0.1,0.4,0.1
		c0.1,0,0.3,0,0.5,0c0.4,0,0.7-0.1,0.9-0.2s0.4-0.3,0.5-0.5c0.1-0.2,0.2-0.4,0.2-0.5c0-0.2,0-0.3,0-0.4V23.2z"/>
	<path class="st0" d="M38.9,26.2c0,0.2,0,0.4,0,0.6s-0.1,0.5-0.2,0.7c-0.1,0.2-0.2,0.5-0.4,0.7c-0.2,0.2-0.4,0.4-0.7,0.6
		c-0.3,0.2-0.6,0.3-1,0.4c-0.4,0.1-0.9,0.2-1.4,0.2c-0.3,0-0.7,0-1.1-0.1c-0.4-0.1-0.7-0.2-1-0.4c-0.3-0.2-0.5-0.4-0.7-0.7
		s-0.3-0.6-0.3-1H34c0.1,0.4,0.3,0.6,0.5,0.8c0.3,0.1,0.6,0.2,0.9,0.2c0.5,0,0.9-0.2,1.2-0.5c0.3-0.3,0.4-0.8,0.4-1.3v-0.9h0
		c-0.2,0.4-0.5,0.7-0.9,0.8s-0.8,0.3-1.2,0.3c-0.5,0-1-0.1-1.4-0.3c-0.4-0.2-0.7-0.4-1-0.8c-0.2-0.3-0.4-0.7-0.5-1.1
		c-0.1-0.4-0.2-0.9-0.2-1.4c0-0.5,0.1-0.9,0.2-1.3c0.1-0.4,0.3-0.8,0.6-1.1c0.3-0.3,0.6-0.6,1-0.8c0.4-0.2,0.8-0.3,1.3-0.3
		c0.5,0,0.9,0.1,1.2,0.3s0.7,0.5,0.9,0.9h0v-1h1.9V26.2z M35.3,25c0.3,0,0.5-0.1,0.7-0.2s0.4-0.3,0.5-0.4c0.1-0.2,0.2-0.4,0.3-0.6
		C37,23.5,37,23.3,37,23c0-0.3,0-0.6-0.1-0.8c-0.1-0.3-0.1-0.5-0.3-0.7s-0.3-0.4-0.5-0.5c-0.2-0.1-0.5-0.2-0.8-0.2
		c-0.3,0-0.5,0.1-0.7,0.2c-0.2,0.1-0.4,0.3-0.5,0.4c-0.1,0.2-0.2,0.4-0.3,0.6c-0.1,0.2-0.1,0.5-0.1,0.8c0,0.3,0,0.5,0.1,0.8
		c0,0.3,0.1,0.5,0.3,0.7c0.1,0.2,0.3,0.4,0.5,0.5C34.8,24.9,35,25,35.3,25z"/>
	<path class="st0" d="M40.2,23.1c0-0.6,0.1-1.1,0.3-1.6c0.2-0.5,0.4-0.9,0.7-1.2c0.3-0.3,0.7-0.6,1.2-0.8s1-0.3,1.5-0.3
		c0.6,0,1.1,0.1,1.5,0.3s0.8,0.4,1.2,0.8c0.3,0.3,0.6,0.7,0.7,1.2c0.2,0.5,0.3,1,0.3,1.6c0,0.6-0.1,1.1-0.3,1.5
		c-0.2,0.5-0.4,0.9-0.7,1.2c-0.3,0.3-0.7,0.6-1.2,0.8s-1,0.3-1.5,0.3c-0.6,0-1.1-0.1-1.5-0.3s-0.8-0.4-1.2-0.8
		c-0.3-0.3-0.6-0.7-0.7-1.2C40.3,24.2,40.2,23.7,40.2,23.1z M42.2,23.1c0,0.3,0,0.6,0.1,0.8c0.1,0.3,0.1,0.5,0.3,0.7
		c0.1,0.2,0.3,0.4,0.5,0.5c0.2,0.1,0.5,0.2,0.8,0.2c0.3,0,0.6-0.1,0.8-0.2c0.2-0.1,0.4-0.3,0.5-0.5c0.1-0.2,0.2-0.5,0.3-0.7
		c0.1-0.3,0.1-0.6,0.1-0.8c0-0.3,0-0.6-0.1-0.8c-0.1-0.3-0.1-0.5-0.3-0.7S45,21.2,44.8,21c-0.2-0.1-0.5-0.2-0.8-0.2
		c-0.3,0-0.6,0.1-0.8,0.2c-0.2,0.1-0.4,0.3-0.5,0.5c-0.1,0.2-0.2,0.5-0.3,0.7C42.2,22.5,42.2,22.8,42.2,23.1z"/>
	<path class="st0" d="M51.4,19.5h1.4v1.3h-1.4v3.5c0,0.3,0.1,0.6,0.2,0.7c0.1,0.1,0.3,0.2,0.7,0.2c0.2,0,0.4,0,0.6-0.1v1.5
		c-0.2,0-0.3,0-0.6,0.1c-0.2,0-0.4,0-0.6,0c-0.3,0-0.6,0-0.9-0.1c-0.3,0-0.5-0.1-0.7-0.2c-0.2-0.1-0.4-0.3-0.5-0.5
		c-0.1-0.2-0.2-0.5-0.2-0.9v-4.2h-1.2v-1.3h1.2v-2.1h2V19.5z"/>
	<path class="st0" d="M53.7,21.7c0-0.5,0.1-0.8,0.3-1.1c0.2-0.3,0.5-0.5,0.8-0.7c0.3-0.2,0.7-0.3,1.1-0.4c0.4-0.1,0.8-0.1,1.2-0.1
		c0.4,0,0.7,0,1.1,0.1s0.7,0.1,1,0.3s0.6,0.4,0.7,0.6c0.2,0.3,0.3,0.6,0.3,1v3.7c0,0.3,0,0.6,0.1,0.9c0,0.3,0.1,0.5,0.2,0.7h-2
		c0-0.1-0.1-0.2-0.1-0.3c0-0.1,0-0.2,0-0.4c-0.3,0.3-0.7,0.5-1.1,0.7s-0.9,0.2-1.3,0.2c-0.3,0-0.7,0-1-0.1c-0.3-0.1-0.6-0.2-0.8-0.4
		c-0.2-0.2-0.4-0.4-0.5-0.7c-0.1-0.3-0.2-0.6-0.2-1c0-0.4,0.1-0.7,0.2-1c0.1-0.3,0.3-0.5,0.6-0.6c0.2-0.2,0.5-0.3,0.8-0.4
		c0.3-0.1,0.6-0.1,0.9-0.2c0.3,0,0.6-0.1,0.9-0.1c0.3,0,0.5-0.1,0.7-0.1c0.2-0.1,0.4-0.1,0.5-0.2c0.1-0.1,0.2-0.3,0.2-0.5
		c0-0.2,0-0.4-0.1-0.5s-0.2-0.2-0.3-0.3s-0.2-0.1-0.4-0.1c-0.2,0-0.3,0-0.5,0c-0.4,0-0.7,0.1-0.9,0.2c-0.2,0.2-0.4,0.4-0.4,0.8H53.7
		z M58.2,23.2c-0.1,0.1-0.2,0.1-0.3,0.2c-0.1,0-0.3,0.1-0.4,0.1c-0.1,0-0.3,0.1-0.5,0.1s-0.3,0-0.5,0.1c-0.2,0-0.3,0.1-0.4,0.1
		c-0.1,0-0.3,0.1-0.4,0.2c-0.1,0.1-0.2,0.2-0.3,0.3c-0.1,0.1-0.1,0.3-0.1,0.4c0,0.2,0,0.3,0.1,0.4s0.2,0.2,0.3,0.3s0.2,0.1,0.4,0.1
		c0.1,0,0.3,0,0.5,0c0.4,0,0.7-0.1,0.9-0.2s0.4-0.3,0.5-0.5c0.1-0.2,0.2-0.4,0.2-0.5c0-0.2,0-0.3,0-0.4V23.2z"/>
	<path class="st0" d="M61.7,19.5h1.9v1h0c0.3-0.4,0.6-0.7,0.9-0.9c0.4-0.2,0.8-0.3,1.3-0.3c0.5,0,0.9,0.1,1.2,0.3s0.7,0.5,0.8,0.9
		c0.2-0.3,0.5-0.6,0.9-0.8c0.4-0.2,0.8-0.4,1.3-0.4c0.4,0,0.7,0,1.1,0.1c0.3,0.1,0.6,0.2,0.8,0.4c0.2,0.2,0.4,0.5,0.5,0.8
		s0.2,0.7,0.2,1.2v4.8h-2v-4c0-0.2,0-0.5,0-0.7s-0.1-0.4-0.2-0.6c-0.1-0.2-0.2-0.3-0.4-0.4s-0.4-0.1-0.7-0.1s-0.5,0.1-0.7,0.2
		c-0.2,0.1-0.3,0.2-0.4,0.4c-0.1,0.2-0.2,0.4-0.2,0.6s0,0.4,0,0.7v4h-2v-4c0-0.2,0-0.4,0-0.6c0-0.2,0-0.4-0.1-0.6
		c-0.1-0.2-0.2-0.3-0.3-0.4c-0.2-0.1-0.4-0.2-0.7-0.2c-0.1,0-0.2,0-0.4,0.1c-0.1,0-0.3,0.1-0.4,0.2c-0.1,0.1-0.3,0.3-0.4,0.5
		c-0.1,0.2-0.2,0.5-0.2,0.8v4.1h-2V19.5z"/>
	<path class="st0" d="M76.2,18.4h-2v-1.6h2V18.4z M74.3,19.5h2v7.1h-2V19.5z"/>
	<path class="st0" d="M79.4,23.6c0,0.6,0.2,1.1,0.5,1.4c0.3,0.3,0.7,0.4,1.3,0.4c0.4,0,0.7-0.1,1-0.3c0.3-0.2,0.5-0.4,0.5-0.6h1.7
		c-0.3,0.8-0.7,1.5-1.3,1.8s-1.3,0.6-2.1,0.6c-0.6,0-1.1-0.1-1.5-0.3c-0.5-0.2-0.8-0.4-1.1-0.8c-0.3-0.3-0.6-0.7-0.7-1.2
		s-0.3-1-0.3-1.5c0-0.5,0.1-1,0.3-1.5c0.2-0.5,0.4-0.9,0.7-1.2c0.3-0.3,0.7-0.6,1.2-0.8c0.4-0.2,0.9-0.3,1.5-0.3
		c0.6,0,1.1,0.1,1.6,0.4c0.5,0.2,0.8,0.5,1.1,0.9c0.3,0.4,0.5,0.8,0.6,1.4c0.1,0.5,0.2,1,0.1,1.6H79.4z M82.6,22.3
		c-0.1-0.5-0.3-0.9-0.5-1.1c-0.2-0.3-0.6-0.4-1.1-0.4c-0.3,0-0.6,0.1-0.8,0.2c-0.2,0.1-0.4,0.2-0.5,0.4c-0.1,0.2-0.2,0.3-0.3,0.5
		c0,0.2-0.1,0.3-0.1,0.5H82.6z"/>
	<path class="st0" d="M85.7,19.5h1.9v1h0c0.2-0.4,0.6-0.7,1-0.9s0.8-0.3,1.2-0.3c0.5,0,1,0.1,1.3,0.2s0.6,0.3,0.8,0.6
		c0.2,0.3,0.3,0.6,0.4,0.9c0.1,0.4,0.1,0.8,0.1,1.2v4.4h-2v-4c0-0.6-0.1-1-0.3-1.3s-0.5-0.4-1-0.4c-0.5,0-0.9,0.2-1.2,0.5
		c-0.2,0.3-0.4,0.8-0.4,1.6v3.7h-2V19.5z"/>
	<path class="st0" d="M96.4,19.5h1.4v1.3h-1.4v3.5c0,0.3,0.1,0.6,0.2,0.7c0.1,0.1,0.3,0.2,0.7,0.2c0.2,0,0.4,0,0.6-0.1v1.5
		c-0.2,0-0.3,0-0.6,0.1c-0.2,0-0.4,0-0.6,0c-0.3,0-0.6,0-0.9-0.1c-0.3,0-0.5-0.1-0.7-0.2c-0.2-0.1-0.4-0.3-0.5-0.5
		c-0.1-0.2-0.2-0.5-0.2-0.9v-4.2h-1.2v-1.3h1.2v-2.1h2V19.5z"/>
	<path class="st0" d="M98.5,23.1c0-0.6,0.1-1.1,0.3-1.6c0.2-0.5,0.4-0.9,0.7-1.2c0.3-0.3,0.7-0.6,1.2-0.8s1-0.3,1.5-0.3
		c0.6,0,1.1,0.1,1.5,0.3s0.8,0.4,1.2,0.8c0.3,0.3,0.6,0.7,0.7,1.2c0.2,0.5,0.3,1,0.3,1.6c0,0.6-0.1,1.1-0.3,1.5
		c-0.2,0.5-0.4,0.9-0.7,1.2c-0.3,0.3-0.7,0.6-1.2,0.8s-1,0.3-1.5,0.3c-0.6,0-1.1-0.1-1.5-0.3s-0.8-0.4-1.2-0.8
		c-0.3-0.3-0.6-0.7-0.7-1.2C98.6,24.2,98.5,23.7,98.5,23.1z M100.5,23.1c0,0.3,0,0.6,0.1,0.8c0.1,0.3,0.1,0.5,0.3,0.7
		c0.1,0.2,0.3,0.4,0.5,0.5c0.2,0.1,0.5,0.2,0.8,0.2c0.3,0,0.6-0.1,0.8-0.2c0.2-0.1,0.4-0.3,0.5-0.5c0.1-0.2,0.2-0.5,0.3-0.7
		c0.1-0.3,0.1-0.6,0.1-0.8c0-0.3,0-0.6-0.1-0.8c-0.1-0.3-0.1-0.5-0.3-0.7s-0.3-0.4-0.5-0.5c-0.2-0.1-0.5-0.2-0.8-0.2
		c-0.3,0-0.6,0.1-0.8,0.2c-0.2,0.1-0.4,0.3-0.5,0.5c-0.1,0.2-0.2,0.5-0.3,0.7C100.5,22.5,100.5,22.8,100.5,23.1z"/>
	<path class="st0" d="M114.6,27.6c-0.2,0.6-0.5,1-0.9,1.2c-0.4,0.3-0.9,0.4-1.6,0.4c-0.2,0-0.4,0-0.6,0s-0.4,0-0.6,0v-1.6
		c0.2,0,0.4,0,0.6,0.1c0.2,0,0.4,0,0.6,0c0.2,0,0.3-0.1,0.4-0.2s0.2-0.2,0.3-0.3c0.1-0.1,0.1-0.3,0.1-0.4c0-0.2,0-0.3-0.1-0.4
		l-2.5-6.7h2.1l1.6,4.9h0l1.6-4.9h2L114.6,27.6z"/>
	<path class="st0" d="M122.1,16.8h2v9.9h-2V16.8z"/>
	<path class="st0" d="M125.5,21.7c0-0.5,0.1-0.8,0.3-1.1c0.2-0.3,0.5-0.5,0.8-0.7c0.3-0.2,0.7-0.3,1.1-0.4c0.4-0.1,0.8-0.1,1.2-0.1
		c0.4,0,0.7,0,1.1,0.1s0.7,0.1,1,0.3s0.6,0.4,0.7,0.6c0.2,0.3,0.3,0.6,0.3,1v3.7c0,0.3,0,0.6,0.1,0.9c0,0.3,0.1,0.5,0.2,0.7h-2
		c0-0.1-0.1-0.2-0.1-0.3c0-0.1,0-0.2,0-0.4c-0.3,0.3-0.7,0.5-1.1,0.7s-0.9,0.2-1.3,0.2c-0.3,0-0.7,0-1-0.1c-0.3-0.1-0.6-0.2-0.8-0.4
		c-0.2-0.2-0.4-0.4-0.5-0.7c-0.1-0.3-0.2-0.6-0.2-1c0-0.4,0.1-0.7,0.2-1c0.1-0.3,0.3-0.5,0.6-0.6c0.2-0.2,0.5-0.3,0.8-0.4
		c0.3-0.1,0.6-0.1,0.9-0.2c0.3,0,0.6-0.1,0.9-0.1c0.3,0,0.5-0.1,0.7-0.1c0.2-0.1,0.4-0.1,0.5-0.2c0.1-0.1,0.2-0.3,0.2-0.5
		c0-0.2,0-0.4-0.1-0.5s-0.2-0.2-0.3-0.3s-0.2-0.1-0.4-0.1c-0.2,0-0.3,0-0.5,0c-0.4,0-0.7,0.1-0.9,0.2c-0.2,0.2-0.4,0.4-0.4,0.8
		H125.5z M130.1,23.2c-0.1,0.1-0.2,0.1-0.3,0.2c-0.1,0-0.3,0.1-0.4,0.1c-0.1,0-0.3,0.1-0.5,0.1s-0.3,0-0.5,0.1
		c-0.2,0-0.3,0.1-0.4,0.1c-0.1,0-0.3,0.1-0.4,0.2c-0.1,0.1-0.2,0.2-0.3,0.3c-0.1,0.1-0.1,0.3-0.1,0.4c0,0.2,0,0.3,0.1,0.4
		s0.2,0.2,0.3,0.3s0.2,0.1,0.4,0.1c0.1,0,0.3,0,0.5,0c0.4,0,0.7-0.1,0.9-0.2s0.4-0.3,0.5-0.5c0.1-0.2,0.2-0.4,0.2-0.5
		c0-0.2,0-0.3,0-0.4V23.2z"/>
	<path class="st0" d="M137.8,20.9h-1.2v-1.3h1.2V19c0-0.3,0-0.6,0.1-0.9c0.1-0.3,0.2-0.5,0.4-0.7s0.5-0.3,0.7-0.4
		c0.3-0.1,0.6-0.2,1-0.2c0.2,0,0.4,0,0.5,0s0.3,0,0.5,0v1.5c-0.2,0-0.5,0-0.7,0c-0.3,0-0.5,0.1-0.6,0.2s-0.2,0.3-0.2,0.6v0.4h1.4
		v1.3h-1.4v5.8h-2V20.9z"/>
	<path class="st0" d="M141.9,21.7c0-0.5,0.1-0.8,0.3-1.1c0.2-0.3,0.5-0.5,0.8-0.7c0.3-0.2,0.7-0.3,1.1-0.4c0.4-0.1,0.8-0.1,1.2-0.1
		c0.4,0,0.7,0,1.1,0.1s0.7,0.1,1,0.3s0.6,0.4,0.7,0.6c0.2,0.3,0.3,0.6,0.3,1v3.7c0,0.3,0,0.6,0.1,0.9c0,0.3,0.1,0.5,0.2,0.7h-2
		c0-0.1-0.1-0.2-0.1-0.3c0-0.1,0-0.2,0-0.4c-0.3,0.3-0.7,0.5-1.1,0.7s-0.9,0.2-1.3,0.2c-0.3,0-0.7,0-1-0.1c-0.3-0.1-0.6-0.2-0.8-0.4
		c-0.2-0.2-0.4-0.4-0.5-0.7c-0.1-0.3-0.2-0.6-0.2-1c0-0.4,0.1-0.7,0.2-1c0.1-0.3,0.3-0.5,0.6-0.6c0.2-0.2,0.5-0.3,0.8-0.4
		c0.3-0.1,0.6-0.1,0.9-0.2c0.3,0,0.6-0.1,0.9-0.1c0.3,0,0.5-0.1,0.7-0.1c0.2-0.1,0.4-0.1,0.5-0.2c0.1-0.1,0.2-0.3,0.2-0.5
		c0-0.2,0-0.4-0.1-0.5s-0.2-0.2-0.3-0.3s-0.2-0.1-0.4-0.1c-0.2,0-0.3,0-0.5,0c-0.4,0-0.7,0.1-0.9,0.2c-0.2,0.2-0.4,0.4-0.4,0.8
		H141.9z M146.4,23.2c-0.1,0.1-0.2,0.1-0.3,0.2c-0.1,0-0.3,0.1-0.4,0.1c-0.1,0-0.3,0.1-0.5,0.1s-0.3,0-0.5,0.1
		c-0.2,0-0.3,0.1-0.4,0.1c-0.1,0-0.3,0.1-0.4,0.2c-0.1,0.1-0.2,0.2-0.3,0.3c-0.1,0.1-0.1,0.3-0.1,0.4c0,0.2,0,0.3,0.1,0.4
		s0.2,0.2,0.3,0.3s0.2,0.1,0.4,0.1c0.1,0,0.3,0,0.5,0c0.4,0,0.7-0.1,0.9-0.2s0.4-0.3,0.5-0.5c0.1-0.2,0.2-0.4,0.2-0.5
		c0-0.2,0-0.3,0-0.4V23.2z"/>
	<path class="st0" d="M152.4,19.5h1.4v1.3h-1.4v3.5c0,0.3,0.1,0.6,0.2,0.7c0.1,0.1,0.3,0.2,0.7,0.2c0.2,0,0.4,0,0.6-0.1v1.5
		c-0.2,0-0.3,0-0.6,0.1c-0.2,0-0.4,0-0.6,0c-0.3,0-0.6,0-0.9-0.1c-0.3,0-0.5-0.1-0.7-0.2c-0.2-0.1-0.4-0.3-0.5-0.5
		c-0.1-0.2-0.2-0.5-0.2-0.9v-4.2h-1.2v-1.3h1.2v-2.1h2V19.5z"/>
	<path class="st0" d="M156.8,18.4h-2v-1.6h2V18.4z M154.8,19.5h2v7.1h-2V19.5z"/>
	<path class="st0" d="M165.2,26.2c0,0.2,0,0.4,0,0.6s-0.1,0.5-0.2,0.7c-0.1,0.2-0.2,0.5-0.4,0.7c-0.2,0.2-0.4,0.4-0.7,0.6
		c-0.3,0.2-0.6,0.3-1,0.4c-0.4,0.1-0.9,0.2-1.4,0.2c-0.3,0-0.7,0-1.1-0.1c-0.4-0.1-0.7-0.2-1-0.4c-0.3-0.2-0.5-0.4-0.7-0.7
		s-0.3-0.6-0.3-1h1.9c0.1,0.4,0.3,0.6,0.5,0.8c0.3,0.1,0.6,0.2,0.9,0.2c0.5,0,0.9-0.2,1.2-0.5c0.3-0.3,0.4-0.8,0.4-1.3v-0.9h0
		c-0.2,0.4-0.5,0.7-0.9,0.8s-0.8,0.3-1.2,0.3c-0.5,0-1-0.1-1.4-0.3c-0.4-0.2-0.7-0.4-1-0.8c-0.2-0.3-0.4-0.7-0.5-1.1
		c-0.1-0.4-0.2-0.9-0.2-1.4c0-0.5,0.1-0.9,0.2-1.3c0.1-0.4,0.3-0.8,0.6-1.1c0.3-0.3,0.6-0.6,1-0.8c0.4-0.2,0.8-0.3,1.3-0.3
		c0.5,0,0.9,0.1,1.2,0.3s0.7,0.5,0.9,0.9h0v-1h1.9V26.2z M161.7,25c0.3,0,0.5-0.1,0.7-0.2s0.4-0.3,0.5-0.4c0.1-0.2,0.2-0.4,0.3-0.6
		c0.1-0.2,0.1-0.5,0.1-0.7c0-0.3,0-0.6-0.1-0.8c-0.1-0.3-0.1-0.5-0.3-0.7s-0.3-0.4-0.5-0.5c-0.2-0.1-0.5-0.2-0.8-0.2
		c-0.3,0-0.5,0.1-0.7,0.2c-0.2,0.1-0.4,0.3-0.5,0.4c-0.1,0.2-0.2,0.4-0.3,0.6c-0.1,0.2-0.1,0.5-0.1,0.8c0,0.3,0,0.5,0.1,0.8
		c0,0.3,0.1,0.5,0.3,0.7c0.1,0.2,0.3,0.4,0.5,0.5C161.1,24.9,161.4,25,161.7,25z"/>
	<path class="st0" d="M166.7,21.7c0-0.5,0.1-0.8,0.3-1.1c0.2-0.3,0.5-0.5,0.8-0.7c0.3-0.2,0.7-0.3,1.1-0.4c0.4-0.1,0.8-0.1,1.2-0.1
		c0.4,0,0.7,0,1.1,0.1s0.7,0.1,1,0.3s0.6,0.4,0.7,0.6c0.2,0.3,0.3,0.6,0.3,1v3.7c0,0.3,0,0.6,0.1,0.9c0,0.3,0.1,0.5,0.2,0.7h-2
		c0-0.1-0.1-0.2-0.1-0.3c0-0.1,0-0.2,0-0.4c-0.3,0.3-0.7,0.5-1.1,0.7s-0.9,0.2-1.3,0.2c-0.3,0-0.7,0-1-0.1c-0.3-0.1-0.6-0.2-0.8-0.4
		c-0.2-0.2-0.4-0.4-0.5-0.7c-0.1-0.3-0.2-0.6-0.2-1c0-0.4,0.1-0.7,0.2-1c0.1-0.3,0.3-0.5,0.6-0.6c0.2-0.2,0.5-0.3,0.8-0.4
		c0.3-0.1,0.6-0.1,0.9-0.2c0.3,0,0.6-0.1,0.9-0.1c0.3,0,0.5-0.1,0.7-0.1c0.2-0.1,0.4-0.1,0.5-0.2c0.1-0.1,0.2-0.3,0.2-0.5
		c0-0.2,0-0.4-0.1-0.5s-0.2-0.2-0.3-0.3s-0.2-0.1-0.4-0.1c-0.2,0-0.3,0-0.5,0c-0.4,0-0.7,0.1-0.9,0.2c-0.2,0.2-0.4,0.4-0.4,0.8
		H166.7z M171.2,23.2c-0.1,0.1-0.2,0.1-0.3,0.2c-0.1,0-0.3,0.1-0.4,0.1c-0.1,0-0.3,0.1-0.5,0.1s-0.3,0-0.5,0.1
		c-0.2,0-0.3,0.1-0.4,0.1c-0.1,0-0.3,0.1-0.4,0.2c-0.1,0.1-0.2,0.2-0.3,0.3c-0.1,0.1-0.1,0.3-0.1,0.4c0,0.2,0,0.3,0.1,0.4
		s0.2,0.2,0.3,0.3s0.2,0.1,0.4,0.1c0.1,0,0.3,0,0.5,0c0.4,0,0.7-0.1,0.9-0.2s0.4-0.3,0.5-0.5c0.1-0.2,0.2-0.4,0.2-0.5
		c0-0.2,0-0.3,0-0.4V23.2z"/>
	<path class="st0" d="M173.9,29.2c0.5-1,0.9-2,1.1-3s0.4-2.1,0.4-3.2c0-1.1-0.1-2.2-0.4-3.3c-0.2-1.1-0.6-2.1-1.1-3.1h1.6
		c0.6,0.9,1,2,1.3,3c0.3,1.1,0.5,2.1,0.5,3.2c0,0.5,0,1.1-0.1,1.6s-0.2,1.1-0.3,1.7c-0.2,0.6-0.3,1.1-0.6,1.6
		c-0.2,0.5-0.5,1-0.8,1.4H173.9z"/>
	<path class="st0" d="M178.9,24.6h2.2v2.1h-2.2V24.6z"/>
	<path class="st0" d="M182.3,17.9c0-0.3,0.1-0.5,0.2-0.7c0.1-0.2,0.3-0.4,0.4-0.5c0.2-0.1,0.4-0.2,0.6-0.3s0.5-0.1,0.7-0.1
		c0.3,0,0.6,0.1,0.9,0.2c0.2,0.1,0.4,0.2,0.6,0.4c0.1,0.2,0.3,0.3,0.3,0.5c0.1,0.2,0.1,0.3,0.1,0.5c0,0.3-0.1,0.5-0.2,0.7
		c-0.1,0.2-0.3,0.4-0.6,0.5v0c0.3,0.1,0.6,0.2,0.8,0.5s0.3,0.5,0.3,0.9c0,0.3-0.1,0.6-0.2,0.8c-0.1,0.2-0.3,0.4-0.5,0.6
		c-0.2,0.1-0.4,0.3-0.7,0.3c-0.3,0.1-0.5,0.1-0.8,0.1c-0.3,0-0.5,0-0.8-0.1c-0.3-0.1-0.5-0.2-0.7-0.3c-0.2-0.1-0.4-0.3-0.5-0.5
		c-0.1-0.2-0.2-0.5-0.2-0.8c0-0.4,0.1-0.7,0.3-0.9c0.2-0.2,0.4-0.4,0.8-0.5v0c-0.3-0.1-0.5-0.2-0.6-0.4
		C182.3,18.4,182.3,18.1,182.3,17.9z M183.2,20.4c0,0.1,0,0.3,0.1,0.4c0.1,0.1,0.1,0.2,0.2,0.3s0.2,0.1,0.3,0.2
		c0.1,0,0.3,0.1,0.4,0.1c0.1,0,0.3,0,0.4-0.1s0.2-0.1,0.3-0.2s0.2-0.2,0.2-0.3c0-0.1,0.1-0.2,0.1-0.4c0-0.1,0-0.3-0.1-0.4
		s-0.1-0.2-0.2-0.3c-0.1-0.1-0.2-0.1-0.3-0.2s-0.2-0.1-0.4-0.1c-0.3,0-0.5,0.1-0.7,0.2C183.3,19.9,183.2,20.1,183.2,20.4z M183.3,18
		c0,0.1,0,0.2,0.1,0.3c0,0.1,0.1,0.2,0.2,0.2c0.1,0.1,0.2,0.1,0.3,0.1c0.1,0,0.2,0,0.3,0c0.2,0,0.4-0.1,0.6-0.2s0.2-0.3,0.2-0.6
		c0-0.1,0-0.2,0-0.2c0-0.1-0.1-0.2-0.1-0.3c-0.1-0.1-0.1-0.1-0.3-0.2c-0.1-0.1-0.3-0.1-0.4-0.1c-0.2,0-0.4,0.1-0.6,0.2
		C183.4,17.5,183.3,17.7,183.3,18z"/>
</g>
</svg>
