<!-- Generator: Adobe Illustrator 20.1.0, SVG Export Plug-In  -->
<svg version="1.1"
	 xmlns="http://www.w3.org/2000/svg" xmlns:xlink="http://www.w3.org/1999/xlink" xmlns:a="http://ns.adobe.com/AdobeSVGViewerExtensions/3.0/"
	 x="0px" y="0px" width="153.4px" height="34px" viewBox="0 0 153.4 34"
	 style="overflow:scroll;enable-background:new 0 0 153.4 34;" xml:space="preserve">
<style type="text/css">
	.st0{opacity:0.9;}
	.st1{opacity:0.9;fill:#F18A21;}
</style>
<defs>
</defs>
<g class="st0">
	<g>
		<path class="st1" d="M4.8,0.1h2.3v4h4.2v-4h2.3v10.4h-2.3V6.1H7.1v4.5H4.8V0.1z"/>
		<path class="st1" d="M15.2,6.8c0-0.6,0.1-1.2,0.3-1.6c0.2-0.5,0.4-0.9,0.8-1.3c0.3-0.3,0.8-0.6,1.2-0.8c0.5-0.2,1-0.3,1.6-0.3
			s1.1,0.1,1.6,0.3c0.5,0.2,0.9,0.5,1.2,0.8c0.3,0.3,0.6,0.8,0.8,1.3c0.2,0.5,0.3,1,0.3,1.6S22.9,8,22.7,8.4
			c-0.2,0.5-0.4,0.9-0.8,1.3c-0.3,0.3-0.8,0.6-1.2,0.8c-0.5,0.2-1,0.3-1.6,0.3s-1.1-0.1-1.6-0.3c-0.5-0.2-0.9-0.5-1.2-0.8
			c-0.3-0.3-0.6-0.8-0.8-1.3C15.3,8,15.2,7.4,15.2,6.8z M17.3,6.8c0,0.3,0,0.6,0.1,0.9c0.1,0.3,0.2,0.5,0.3,0.8
			C17.8,8.7,18,8.9,18.2,9c0.2,0.1,0.5,0.2,0.9,0.2c0.4,0,0.6-0.1,0.9-0.2c0.2-0.1,0.4-0.3,0.6-0.5c0.1-0.2,0.2-0.5,0.3-0.8
			c0.1-0.3,0.1-0.6,0.1-0.9c0-0.3,0-0.6-0.1-0.9s-0.2-0.6-0.3-0.8S20.2,4.7,20,4.6c-0.2-0.1-0.5-0.2-0.9-0.2c-0.4,0-0.6,0.1-0.9,0.2
			c-0.2,0.1-0.4,0.3-0.6,0.5c-0.1,0.2-0.2,0.5-0.3,0.8C17.3,6.2,17.3,6.5,17.3,6.8z"/>
		<path class="st1" d="M24.4,3h2v1.4h0c0.1-0.2,0.2-0.5,0.4-0.7c0.2-0.2,0.4-0.4,0.6-0.5S27.8,3,28,2.9s0.5-0.1,0.8-0.1
			c0.2,0,0.3,0,0.5,0.1v1.9c-0.1,0-0.2,0-0.4-0.1s-0.3,0-0.4,0c-0.4,0-0.7,0.1-1,0.2S27,5.2,26.9,5.5c-0.2,0.2-0.3,0.5-0.3,0.8
			s-0.1,0.6-0.1,0.9v3.4h-2.1V3z"/>
		<path class="st1" d="M30.1,3h2v1h0c0.3-0.4,0.6-0.7,1-0.9c0.4-0.2,0.8-0.3,1.3-0.3c0.5,0,0.9,0.1,1.3,0.3c0.4,0.2,0.7,0.5,0.9,1
			c0.2-0.3,0.5-0.6,0.9-0.9c0.4-0.3,0.8-0.4,1.4-0.4c0.4,0,0.8,0,1.1,0.1c0.3,0.1,0.6,0.3,0.9,0.5c0.2,0.2,0.4,0.5,0.6,0.8
			c0.1,0.3,0.2,0.8,0.2,1.3v5.1h-2.1V6.3c0-0.3,0-0.5,0-0.7c0-0.2-0.1-0.4-0.2-0.6S39.2,4.7,39,4.6s-0.4-0.1-0.7-0.1
			c-0.3,0-0.5,0.1-0.7,0.2s-0.3,0.3-0.4,0.4C37.1,5.2,37,5.4,37,5.7c0,0.2-0.1,0.5-0.1,0.7v4.2h-2.1V6.3c0-0.2,0-0.4,0-0.7
			c0-0.2-0.1-0.4-0.1-0.6s-0.2-0.3-0.4-0.4s-0.4-0.2-0.8-0.2c-0.1,0-0.2,0-0.4,0.1s-0.3,0.1-0.5,0.2s-0.3,0.3-0.4,0.5
			c-0.1,0.2-0.2,0.5-0.2,0.9v4.4h-2.1V3z"/>
		<path class="st1" d="M43.1,6.8c0-0.6,0.1-1.2,0.3-1.6c0.2-0.5,0.4-0.9,0.8-1.3c0.3-0.3,0.8-0.6,1.2-0.8c0.5-0.2,1-0.3,1.6-0.3
			s1.1,0.1,1.6,0.3c0.5,0.2,0.9,0.5,1.2,0.8c0.3,0.3,0.6,0.8,0.8,1.3c0.2,0.5,0.3,1,0.3,1.6S50.8,8,50.6,8.4
			c-0.2,0.5-0.4,0.9-0.8,1.3c-0.3,0.3-0.8,0.6-1.2,0.8c-0.5,0.2-1,0.3-1.6,0.3s-1.1-0.1-1.6-0.3c-0.5-0.2-0.9-0.5-1.2-0.8
			c-0.3-0.3-0.6-0.8-0.8-1.3C43.2,8,43.1,7.4,43.1,6.8z M45.2,6.8c0,0.3,0,0.6,0.1,0.9c0.1,0.3,0.2,0.5,0.3,0.8
			c0.1,0.2,0.3,0.4,0.6,0.5c0.2,0.1,0.5,0.2,0.9,0.2c0.4,0,0.6-0.1,0.9-0.2c0.2-0.1,0.4-0.3,0.6-0.5c0.1-0.2,0.2-0.5,0.3-0.8
			c0.1-0.3,0.1-0.6,0.1-0.9c0-0.3,0-0.6-0.1-0.9s-0.2-0.6-0.3-0.8s-0.3-0.4-0.6-0.5c-0.2-0.1-0.5-0.2-0.9-0.2
			c-0.4,0-0.6,0.1-0.9,0.2c-0.2,0.1-0.4,0.3-0.6,0.5c-0.1,0.2-0.2,0.5-0.3,0.8C45.2,6.2,45.2,6.5,45.2,6.8z"/>
		<path class="st1" d="M52.2,3h2v1.1h0c0.3-0.4,0.6-0.7,1-1c0.4-0.2,0.8-0.3,1.3-0.3c0.6,0,1,0.1,1.4,0.2c0.4,0.2,0.6,0.4,0.8,0.6
			c0.2,0.3,0.3,0.6,0.4,1c0.1,0.4,0.1,0.8,0.1,1.3v4.7h-2.1V6.3c0-0.6-0.1-1.1-0.3-1.4c-0.2-0.3-0.5-0.5-1-0.5c-0.6,0-1,0.2-1.2,0.5
			c-0.3,0.3-0.4,0.9-0.4,1.7v4h-2.1V3z"/>
		<path class="st1" d="M60.8,5.3c0-0.5,0.2-0.9,0.4-1.2c0.2-0.3,0.5-0.6,0.8-0.8c0.3-0.2,0.7-0.3,1.1-0.4c0.4-0.1,0.8-0.1,1.3-0.1
			c0.4,0,0.8,0,1.2,0.1c0.4,0.1,0.7,0.2,1.1,0.3c0.3,0.2,0.6,0.4,0.8,0.7c0.2,0.3,0.3,0.6,0.3,1.1v3.9c0,0.3,0,0.7,0.1,1
			s0.1,0.5,0.2,0.7h-2.1c0-0.1-0.1-0.2-0.1-0.4s0-0.2-0.1-0.4c-0.3,0.3-0.7,0.6-1.2,0.7c-0.4,0.1-0.9,0.2-1.4,0.2
			c-0.4,0-0.7,0-1-0.1c-0.3-0.1-0.6-0.2-0.8-0.4c-0.2-0.2-0.4-0.4-0.5-0.7c-0.1-0.3-0.2-0.6-0.2-1c0-0.4,0.1-0.8,0.2-1.1
			C61,7.2,61.2,7,61.4,6.8c0.2-0.2,0.5-0.3,0.8-0.4c0.3-0.1,0.6-0.1,0.9-0.2c0.3,0,0.6-0.1,0.9-0.1S64.7,6,64.9,6
			c0.2-0.1,0.4-0.1,0.5-0.3s0.2-0.3,0.2-0.5c0-0.2,0-0.4-0.1-0.5s-0.2-0.2-0.3-0.3S65,4.3,64.8,4.2c-0.2,0-0.3,0-0.5,0
			c-0.4,0-0.7,0.1-1,0.3c-0.2,0.2-0.4,0.5-0.4,0.9H60.8z M65.6,6.9C65.5,7,65.4,7,65.3,7.1S65,7.1,64.9,7.2c-0.2,0-0.3,0.1-0.5,0.1
			s-0.3,0-0.5,0.1c-0.2,0-0.3,0.1-0.5,0.1s-0.3,0.1-0.4,0.2S62.8,7.8,62.8,8c-0.1,0.1-0.1,0.3-0.1,0.5c0,0.2,0,0.4,0.1,0.5
			c0.1,0.1,0.2,0.2,0.3,0.3s0.3,0.1,0.4,0.2c0.2,0,0.3,0,0.5,0c0.4,0,0.7-0.1,1-0.2s0.4-0.3,0.5-0.5s0.2-0.4,0.2-0.6
			c0-0.2,0-0.4,0-0.5V6.9z"/>
		<path class="st1" d="M70.9,8.1c0,0.2,0,0.4,0.1,0.6s0.2,0.3,0.4,0.4c0.1,0.1,0.3,0.2,0.5,0.2s0.4,0.1,0.6,0.1c0.1,0,0.3,0,0.5-0.1
			s0.3-0.1,0.4-0.2s0.2-0.2,0.3-0.3c0.1-0.1,0.1-0.3,0.1-0.5c0-0.2-0.1-0.3-0.2-0.4s-0.3-0.2-0.5-0.3c-0.2-0.1-0.4-0.2-0.7-0.2
			c-0.3-0.1-0.6-0.1-1-0.2c-0.3-0.1-0.6-0.1-0.9-0.2c-0.3-0.1-0.5-0.2-0.8-0.4c-0.2-0.2-0.4-0.3-0.5-0.6c-0.1-0.2-0.2-0.5-0.2-0.8
			c0-0.5,0.1-0.9,0.3-1.2c0.2-0.3,0.4-0.6,0.8-0.7c0.3-0.2,0.7-0.3,1.1-0.4c0.4-0.1,0.8-0.1,1.2-0.1c0.4,0,0.8,0,1.2,0.1
			s0.7,0.2,1,0.4c0.3,0.2,0.6,0.4,0.8,0.7c0.2,0.3,0.3,0.7,0.4,1.2h-2c0-0.4-0.2-0.7-0.5-0.8c-0.3-0.1-0.6-0.2-1-0.2
			c-0.1,0-0.2,0-0.4,0c-0.1,0-0.3,0-0.4,0.1c-0.1,0-0.2,0.1-0.3,0.2s-0.1,0.2-0.1,0.4c0,0.2,0.1,0.3,0.2,0.5
			c0.1,0.1,0.3,0.2,0.5,0.3s0.5,0.1,0.8,0.2C73,5.9,73.3,6,73.6,6c0.3,0.1,0.6,0.2,0.9,0.2c0.3,0.1,0.5,0.2,0.8,0.4
			c0.2,0.2,0.4,0.4,0.5,0.6S76,7.8,76,8.1c0,0.5-0.1,0.9-0.3,1.3c-0.2,0.3-0.5,0.6-0.8,0.8c-0.3,0.2-0.7,0.4-1.1,0.4
			c-0.4,0.1-0.8,0.1-1.3,0.1c-0.4,0-0.9,0-1.3-0.1c-0.4-0.1-0.8-0.2-1.1-0.4c-0.3-0.2-0.6-0.5-0.8-0.8C69.1,9,69,8.6,69,8.1H70.9z"
			/>
		<path class="st1" d="M86.6,9.6L86.6,9.6c-0.3,0.4-0.6,0.7-1,0.9c-0.4,0.2-0.8,0.3-1.3,0.3c-0.6,0-1.1-0.1-1.5-0.3
			c-0.4-0.2-0.8-0.5-1.1-0.9c-0.3-0.4-0.5-0.8-0.6-1.3c-0.1-0.5-0.2-1-0.2-1.5c0-0.5,0.1-1,0.2-1.5c0.1-0.5,0.4-0.9,0.6-1.3
			c0.3-0.4,0.6-0.7,1-0.9c0.4-0.2,0.9-0.3,1.5-0.3c0.4,0,0.9,0.1,1.3,0.3c0.4,0.2,0.7,0.5,1,0.8h0V0.1h2.1v10.4h-2V9.6z M86.6,6.8
			c0-0.3,0-0.6-0.1-0.9s-0.2-0.5-0.3-0.8c-0.1-0.2-0.3-0.4-0.6-0.5c-0.2-0.1-0.5-0.2-0.8-0.2c-0.3,0-0.6,0.1-0.9,0.2
			c-0.2,0.1-0.4,0.3-0.6,0.5c-0.1,0.2-0.2,0.5-0.3,0.8C83,6.2,83,6.5,83,6.8c0,0.3,0,0.6,0.1,0.9c0.1,0.3,0.2,0.6,0.3,0.8
			C83.6,8.7,83.8,8.9,84,9c0.2,0.1,0.5,0.2,0.8,0.2c0.3,0,0.6-0.1,0.9-0.2c0.2-0.1,0.4-0.3,0.5-0.5c0.1-0.2,0.2-0.5,0.3-0.8
			C86.6,7.4,86.6,7.1,86.6,6.8z"/>
		<path class="st1" d="M91.9,7.3c0,0.7,0.2,1.1,0.5,1.5c0.3,0.3,0.8,0.5,1.3,0.5c0.4,0,0.8-0.1,1.1-0.3s0.5-0.4,0.6-0.7h1.8
			c-0.3,0.9-0.7,1.5-1.3,1.9c-0.6,0.4-1.3,0.6-2.2,0.6c-0.6,0-1.1-0.1-1.6-0.3c-0.5-0.2-0.9-0.5-1.2-0.8c-0.3-0.4-0.6-0.8-0.8-1.3
			c-0.2-0.5-0.3-1-0.3-1.6c0-0.6,0.1-1.1,0.3-1.6c0.2-0.5,0.4-0.9,0.8-1.3s0.7-0.6,1.2-0.8c0.5-0.2,1-0.3,1.6-0.3
			c0.6,0,1.2,0.1,1.7,0.4c0.5,0.2,0.9,0.6,1.2,1c0.3,0.4,0.5,0.9,0.7,1.4c0.1,0.5,0.2,1.1,0.1,1.7H91.9z M95.3,6
			c-0.1-0.5-0.3-0.9-0.5-1.2c-0.2-0.3-0.6-0.4-1.1-0.4c-0.3,0-0.6,0.1-0.8,0.2S92.4,4.8,92.3,5S92,5.3,92,5.5
			c-0.1,0.2-0.1,0.4-0.1,0.5H95.3z"/>
		<path class="st1" d="M98.6,0.1h2.1v10.4h-2.1V0.1z"/>
		<path class="st1" d="M108.1,7.3c0,0.7,0.2,1.1,0.5,1.5c0.3,0.3,0.8,0.5,1.3,0.5c0.4,0,0.8-0.1,1.1-0.3s0.5-0.4,0.6-0.7h1.8
			c-0.3,0.9-0.7,1.5-1.3,1.9c-0.6,0.4-1.3,0.6-2.2,0.6c-0.6,0-1.1-0.1-1.6-0.3c-0.5-0.2-0.9-0.5-1.2-0.8c-0.3-0.4-0.6-0.8-0.8-1.3
			c-0.2-0.5-0.3-1-0.3-1.6c0-0.6,0.1-1.1,0.3-1.6c0.2-0.5,0.4-0.9,0.8-1.3s0.7-0.6,1.2-0.8c0.5-0.2,1-0.3,1.6-0.3
			c0.6,0,1.2,0.1,1.7,0.4c0.5,0.2,0.9,0.6,1.2,1c0.3,0.4,0.5,0.9,0.7,1.4c0.1,0.5,0.2,1.1,0.1,1.7H108.1z M111.5,6
			c-0.1-0.5-0.3-0.9-0.5-1.2c-0.2-0.3-0.6-0.4-1.1-0.4c-0.3,0-0.6,0.1-0.8,0.2s-0.4,0.3-0.5,0.4s-0.2,0.3-0.3,0.5
			c-0.1,0.2-0.1,0.4-0.1,0.5H111.5z"/>
		<path class="st1" d="M116.4,8.1c0,0.2,0,0.4,0.1,0.6s0.2,0.3,0.4,0.4c0.1,0.1,0.3,0.2,0.5,0.2s0.4,0.1,0.6,0.1
			c0.1,0,0.3,0,0.5-0.1s0.3-0.1,0.4-0.2s0.2-0.2,0.3-0.3c0.1-0.1,0.1-0.3,0.1-0.5c0-0.2-0.1-0.3-0.2-0.4s-0.3-0.2-0.5-0.3
			c-0.2-0.1-0.4-0.2-0.7-0.2c-0.3-0.1-0.6-0.1-1-0.2c-0.3-0.1-0.6-0.1-0.9-0.2c-0.3-0.1-0.5-0.2-0.8-0.4c-0.2-0.2-0.4-0.3-0.5-0.6
			c-0.1-0.2-0.2-0.5-0.2-0.8c0-0.5,0.1-0.9,0.3-1.2c0.2-0.3,0.4-0.6,0.8-0.7c0.3-0.2,0.7-0.3,1.1-0.4c0.4-0.1,0.8-0.1,1.2-0.1
			c0.4,0,0.8,0,1.2,0.1s0.7,0.2,1,0.4c0.3,0.2,0.6,0.4,0.8,0.7c0.2,0.3,0.3,0.7,0.4,1.2h-2c0-0.4-0.2-0.7-0.5-0.8
			c-0.3-0.1-0.6-0.2-1-0.2c-0.1,0-0.2,0-0.4,0c-0.1,0-0.3,0-0.4,0.1c-0.1,0-0.2,0.1-0.3,0.2s-0.1,0.2-0.1,0.4c0,0.2,0.1,0.3,0.2,0.5
			c0.1,0.1,0.3,0.2,0.5,0.3s0.5,0.1,0.8,0.2c0.3,0.1,0.6,0.1,0.9,0.2c0.3,0.1,0.6,0.2,0.9,0.2c0.3,0.1,0.5,0.2,0.8,0.4
			c0.2,0.2,0.4,0.4,0.5,0.6s0.2,0.5,0.2,0.9c0,0.5-0.1,0.9-0.3,1.3c-0.2,0.3-0.5,0.6-0.8,0.8c-0.3,0.2-0.7,0.4-1.1,0.4
			c-0.4,0.1-0.8,0.1-1.3,0.1c-0.4,0-0.9,0-1.3-0.1c-0.4-0.1-0.8-0.2-1.1-0.4c-0.3-0.2-0.6-0.5-0.8-0.8c-0.2-0.3-0.3-0.8-0.3-1.3
			H116.4z"/>
		<path class="st1" d="M125.3,3h1.5v1.4h-1.5v3.7c0,0.4,0.1,0.6,0.2,0.7c0.1,0.1,0.4,0.2,0.7,0.2c0.2,0,0.4,0,0.6-0.1v1.6
			c-0.2,0-0.4,0-0.6,0.1c-0.2,0-0.4,0-0.6,0c-0.3,0-0.6,0-0.9-0.1c-0.3,0-0.5-0.1-0.8-0.3s-0.4-0.3-0.5-0.5s-0.2-0.5-0.2-0.9V4.4
			H122V3h1.3V0.7h2.1V3z"/>
		<path class="st1" d="M127.8,3h2v1.4h0c0.1-0.2,0.2-0.5,0.4-0.7c0.2-0.2,0.4-0.4,0.6-0.5s0.4-0.3,0.7-0.3s0.5-0.1,0.8-0.1
			c0.2,0,0.3,0,0.5,0.1v1.9c-0.1,0-0.2,0-0.4-0.1s-0.3,0-0.4,0c-0.4,0-0.7,0.1-1,0.2s-0.5,0.3-0.6,0.5c-0.2,0.2-0.3,0.5-0.3,0.8
			s-0.1,0.6-0.1,0.9v3.4h-2.1V3z"/>
		<path class="st1" d="M135.2,7.3c0,0.7,0.2,1.1,0.5,1.5c0.3,0.3,0.8,0.5,1.3,0.5c0.4,0,0.8-0.1,1.1-0.3s0.5-0.4,0.6-0.7h1.8
			c-0.3,0.9-0.7,1.5-1.3,1.9c-0.6,0.4-1.3,0.6-2.2,0.6c-0.6,0-1.1-0.1-1.6-0.3c-0.5-0.2-0.9-0.5-1.2-0.8c-0.3-0.4-0.6-0.8-0.8-1.3
			c-0.2-0.5-0.3-1-0.3-1.6c0-0.6,0.1-1.1,0.3-1.6c0.2-0.5,0.4-0.9,0.8-1.3s0.7-0.6,1.2-0.8c0.5-0.2,1-0.3,1.6-0.3
			c0.6,0,1.2,0.1,1.7,0.4c0.5,0.2,0.9,0.6,1.2,1c0.3,0.4,0.5,0.9,0.7,1.4c0.1,0.5,0.2,1.1,0.1,1.7H135.2z M138.6,6
			c-0.1-0.5-0.3-0.9-0.5-1.2c-0.2-0.3-0.6-0.4-1.1-0.4c-0.3,0-0.6,0.1-0.8,0.2s-0.4,0.3-0.5,0.4s-0.2,0.3-0.3,0.5
			c-0.1,0.2-0.1,0.4-0.1,0.5H138.6z M137.3,2.1h-1.4l1.4-2.1h2.3L137.3,2.1z"/>
		<path class="st1" d="M143.5,8.1c0,0.2,0,0.4,0.1,0.6s0.2,0.3,0.4,0.4c0.1,0.1,0.3,0.2,0.5,0.2s0.4,0.1,0.6,0.1
			c0.1,0,0.3,0,0.5-0.1s0.3-0.1,0.4-0.2s0.2-0.2,0.3-0.3c0.1-0.1,0.1-0.3,0.1-0.5c0-0.2-0.1-0.3-0.2-0.4s-0.3-0.2-0.5-0.3
			c-0.2-0.1-0.4-0.2-0.7-0.2c-0.3-0.1-0.6-0.1-1-0.2c-0.3-0.1-0.6-0.1-0.9-0.2c-0.3-0.1-0.5-0.2-0.8-0.4c-0.2-0.2-0.4-0.3-0.5-0.6
			c-0.1-0.2-0.2-0.5-0.2-0.8c0-0.5,0.1-0.9,0.3-1.2c0.2-0.3,0.4-0.6,0.8-0.7c0.3-0.2,0.7-0.3,1.1-0.4c0.4-0.1,0.8-0.1,1.2-0.1
			c0.4,0,0.8,0,1.2,0.1s0.7,0.2,1,0.4c0.3,0.2,0.6,0.4,0.8,0.7c0.2,0.3,0.3,0.7,0.4,1.2h-2c0-0.4-0.2-0.7-0.5-0.8
			c-0.3-0.1-0.6-0.2-1-0.2c-0.1,0-0.2,0-0.4,0c-0.1,0-0.3,0-0.4,0.1c-0.1,0-0.2,0.1-0.3,0.2s-0.1,0.2-0.1,0.4c0,0.2,0.1,0.3,0.2,0.5
			c0.1,0.1,0.3,0.2,0.5,0.3s0.5,0.1,0.8,0.2c0.3,0.1,0.6,0.1,0.9,0.2c0.3,0.1,0.6,0.2,0.9,0.2c0.3,0.1,0.5,0.2,0.8,0.4
			c0.2,0.2,0.4,0.4,0.5,0.6s0.2,0.5,0.2,0.9c0,0.5-0.1,0.9-0.3,1.3c-0.2,0.3-0.5,0.6-0.8,0.8c-0.3,0.2-0.7,0.4-1.1,0.4
			c-0.4,0.1-0.8,0.1-1.3,0.1c-0.4,0-0.9,0-1.3-0.1c-0.4-0.1-0.8-0.2-1.1-0.4c-0.3-0.2-0.6-0.5-0.8-0.8c-0.2-0.3-0.3-0.8-0.3-1.3
			H143.5z"/>
		<path class="st1" d="M3.7,20.7c-0.5,1-0.9,2.1-1.2,3.2c-0.3,1.1-0.4,2.3-0.4,3.4c0,1.2,0.1,2.3,0.4,3.4C2.7,31.9,3.1,33,3.7,34
			H1.9c-0.6-1-1.1-2.1-1.4-3.2C0.2,29.8,0,28.6,0,27.5c0-0.5,0-1.1,0.1-1.7c0.1-0.6,0.2-1.2,0.4-1.8c0.2-0.6,0.4-1.2,0.6-1.7
			c0.2-0.6,0.5-1.1,0.8-1.5H3.7z"/>
		<path class="st1" d="M4.3,26.1c0-0.5,0.2-0.9,0.4-1.2c0.2-0.3,0.5-0.6,0.8-0.8c0.3-0.2,0.7-0.3,1.1-0.4c0.4-0.1,0.8-0.1,1.3-0.1
			c0.4,0,0.8,0,1.2,0.1c0.4,0.1,0.7,0.2,1.1,0.3c0.3,0.2,0.6,0.4,0.8,0.7c0.2,0.3,0.3,0.6,0.3,1.1v3.9c0,0.3,0,0.7,0.1,1
			s0.1,0.5,0.2,0.7H9.3c0-0.1-0.1-0.2-0.1-0.4s0-0.2-0.1-0.4C8.8,31,8.4,31.2,8,31.4c-0.4,0.1-0.9,0.2-1.4,0.2c-0.4,0-0.7,0-1-0.1
			C5.3,31.4,5,31.2,4.8,31c-0.2-0.2-0.4-0.4-0.5-0.7C4.1,30,4,29.7,4,29.3c0-0.4,0.1-0.8,0.2-1.1c0.1-0.3,0.3-0.5,0.6-0.7
			c0.2-0.2,0.5-0.3,0.8-0.4C6,27.1,6.3,27.1,6.6,27c0.3,0,0.6-0.1,0.9-0.1s0.6-0.1,0.8-0.1c0.2-0.1,0.4-0.1,0.5-0.3s0.2-0.3,0.2-0.5
			c0-0.2,0-0.4-0.1-0.5s-0.2-0.2-0.3-0.3S8.4,25.1,8.2,25c-0.2,0-0.3,0-0.5,0c-0.4,0-0.7,0.1-1,0.3c-0.2,0.2-0.4,0.5-0.4,0.9H4.3z
			 M9.1,27.7c-0.1,0.1-0.2,0.1-0.3,0.2S8.5,27.9,8.3,28C8.2,28,8,28,7.8,28s-0.3,0-0.5,0.1c-0.2,0-0.3,0.1-0.5,0.1s-0.3,0.1-0.4,0.2
			s-0.2,0.2-0.3,0.3c-0.1,0.1-0.1,0.3-0.1,0.5c0,0.2,0,0.4,0.1,0.5c0.1,0.1,0.2,0.2,0.3,0.3s0.3,0.1,0.4,0.2c0.2,0,0.3,0,0.5,0
			c0.4,0,0.7-0.1,1-0.2s0.4-0.3,0.5-0.5S9,29.1,9,28.9c0-0.2,0-0.4,0-0.5V27.7z"/>
		<path class="st1" d="M18.2,30.4L18.2,30.4c-0.3,0.4-0.6,0.7-1,0.9c-0.4,0.2-0.8,0.3-1.3,0.3c-0.6,0-1.1-0.1-1.5-0.3
			c-0.4-0.2-0.8-0.5-1.1-0.9c-0.3-0.4-0.5-0.8-0.6-1.3c-0.1-0.5-0.2-1-0.2-1.5c0-0.5,0.1-1,0.2-1.5c0.1-0.5,0.4-0.9,0.6-1.3
			c0.3-0.4,0.6-0.7,1-0.9c0.4-0.2,0.9-0.3,1.5-0.3c0.4,0,0.9,0.1,1.3,0.3c0.4,0.2,0.7,0.5,1,0.8h0v-3.8h2.1v10.4h-2V30.4z
			 M18.1,27.6c0-0.3,0-0.6-0.1-0.9s-0.2-0.5-0.3-0.8c-0.1-0.2-0.3-0.4-0.6-0.5c-0.2-0.1-0.5-0.2-0.8-0.2c-0.3,0-0.6,0.1-0.9,0.2
			c-0.2,0.1-0.4,0.3-0.6,0.5c-0.1,0.2-0.2,0.5-0.3,0.8c-0.1,0.3-0.1,0.6-0.1,0.9c0,0.3,0,0.6,0.1,0.9c0.1,0.3,0.2,0.6,0.3,0.8
			c0.2,0.2,0.3,0.4,0.6,0.6C15.7,30,16,30,16.3,30c0.3,0,0.6-0.1,0.9-0.2c0.2-0.1,0.4-0.3,0.5-0.5c0.1-0.2,0.2-0.5,0.3-0.8
			C18.1,28.2,18.1,27.9,18.1,27.6z"/>
		<path class="st1" d="M21.7,23.8h2v1.4h0c0.1-0.2,0.2-0.5,0.4-0.7c0.2-0.2,0.4-0.4,0.6-0.5s0.4-0.3,0.7-0.3s0.5-0.1,0.8-0.1
			c0.2,0,0.3,0,0.5,0.1v1.9c-0.1,0-0.2,0-0.4-0.1s-0.3,0-0.4,0c-0.4,0-0.7,0.1-1,0.2s-0.5,0.3-0.6,0.5c-0.2,0.2-0.3,0.5-0.3,0.8
			s-0.1,0.6-0.1,0.9v3.4h-2.1V23.8z"/>
		<path class="st1" d="M29.1,28.1c0,0.7,0.2,1.1,0.5,1.5c0.3,0.3,0.8,0.5,1.3,0.5c0.4,0,0.8-0.1,1.1-0.3s0.5-0.4,0.6-0.7h1.8
			c-0.3,0.9-0.7,1.5-1.3,1.9c-0.6,0.4-1.3,0.6-2.2,0.6c-0.6,0-1.1-0.1-1.6-0.3c-0.5-0.2-0.9-0.5-1.2-0.8c-0.3-0.4-0.6-0.8-0.8-1.3
			c-0.2-0.5-0.3-1-0.3-1.6c0-0.6,0.1-1.1,0.3-1.6c0.2-0.5,0.4-0.9,0.8-1.3s0.7-0.6,1.2-0.8c0.5-0.2,1-0.3,1.6-0.3
			c0.6,0,1.2,0.1,1.7,0.4c0.5,0.2,0.9,0.6,1.2,1c0.3,0.4,0.5,0.9,0.7,1.4c0.1,0.5,0.2,1.1,0.1,1.7H29.1z M32.5,26.8
			c-0.1-0.5-0.3-0.9-0.5-1.2c-0.2-0.3-0.6-0.4-1.1-0.4c-0.3,0-0.6,0.1-0.8,0.2s-0.4,0.3-0.5,0.4s-0.2,0.3-0.3,0.5
			c-0.1,0.2-0.1,0.4-0.1,0.5H32.5z"/>
		<path class="st1" d="M35.8,23.8h2v1.1h0c0.3-0.4,0.6-0.7,1-1c0.4-0.2,0.8-0.3,1.3-0.3c0.6,0,1,0.1,1.4,0.2
			c0.4,0.2,0.6,0.4,0.8,0.6c0.2,0.3,0.3,0.6,0.4,1c0.1,0.4,0.1,0.8,0.1,1.3v4.7h-2.1v-4.3c0-0.6-0.1-1.1-0.3-1.4
			c-0.2-0.3-0.5-0.5-1-0.5c-0.6,0-1,0.2-1.2,0.5c-0.3,0.3-0.4,0.9-0.4,1.7v4h-2.1V23.8z"/>
		<path class="st1" d="M44.4,26.1c0-0.5,0.2-0.9,0.4-1.2c0.2-0.3,0.5-0.6,0.8-0.8c0.3-0.2,0.7-0.3,1.1-0.4c0.4-0.1,0.8-0.1,1.3-0.1
			c0.4,0,0.8,0,1.2,0.1c0.4,0.1,0.7,0.2,1.1,0.3c0.3,0.2,0.6,0.4,0.8,0.7c0.2,0.3,0.3,0.6,0.3,1.1v3.9c0,0.3,0,0.7,0.1,1
			s0.1,0.5,0.2,0.7h-2.1c0-0.1-0.1-0.2-0.1-0.4s0-0.2-0.1-0.4c-0.3,0.3-0.7,0.6-1.2,0.7c-0.4,0.1-0.9,0.2-1.4,0.2
			c-0.4,0-0.7,0-1-0.1c-0.3-0.1-0.6-0.2-0.8-0.4c-0.2-0.2-0.4-0.4-0.5-0.7c-0.1-0.3-0.2-0.6-0.2-1c0-0.4,0.1-0.8,0.2-1.1
			c0.1-0.3,0.3-0.5,0.6-0.7c0.2-0.2,0.5-0.3,0.8-0.4c0.3-0.1,0.6-0.1,0.9-0.2c0.3,0,0.6-0.1,0.9-0.1s0.6-0.1,0.8-0.1
			c0.2-0.1,0.4-0.1,0.5-0.3s0.2-0.3,0.2-0.5c0-0.2,0-0.4-0.1-0.5s-0.2-0.2-0.3-0.3s-0.3-0.1-0.4-0.1c-0.2,0-0.3,0-0.5,0
			c-0.4,0-0.7,0.1-1,0.3c-0.2,0.2-0.4,0.5-0.4,0.9H44.4z M49.2,27.7c-0.1,0.1-0.2,0.1-0.3,0.2s-0.3,0.1-0.4,0.1
			c-0.2,0-0.3,0.1-0.5,0.1s-0.3,0-0.5,0.1c-0.2,0-0.3,0.1-0.5,0.1s-0.3,0.1-0.4,0.2s-0.2,0.2-0.3,0.3c-0.1,0.1-0.1,0.3-0.1,0.5
			c0,0.2,0,0.4,0.1,0.5c0.1,0.1,0.2,0.2,0.3,0.3s0.3,0.1,0.4,0.2c0.2,0,0.3,0,0.5,0c0.4,0,0.7-0.1,1-0.2s0.4-0.3,0.5-0.5
			s0.2-0.4,0.2-0.6c0-0.2,0-0.4,0-0.5V27.7z"/>
		<path class="st1" d="M52.9,20.9H55v10.4h-2.1V20.9z"/>
		<path class="st1" d="M58.8,22.7h-2.1v-1.7h2.1V22.7z M56.7,23.8h2.1v7.6h-2.1V23.8z"/>
		<path class="st1" d="M60.4,23.8h2v1.1h0c0.3-0.4,0.6-0.7,1-1c0.4-0.2,0.8-0.3,1.3-0.3c0.6,0,1,0.1,1.4,0.2
			c0.4,0.2,0.6,0.4,0.8,0.6c0.2,0.3,0.3,0.6,0.4,1c0.1,0.4,0.1,0.8,0.1,1.3v4.7h-2.1v-4.3c0-0.6-0.1-1.1-0.3-1.4
			c-0.2-0.3-0.5-0.5-1-0.5c-0.6,0-1,0.2-1.2,0.5c-0.3,0.3-0.4,0.9-0.4,1.7v4h-2.1V23.8z"/>
		<path class="st1" d="M69,26.1c0-0.5,0.2-0.9,0.4-1.2c0.2-0.3,0.5-0.6,0.8-0.8c0.3-0.2,0.7-0.3,1.1-0.4c0.4-0.1,0.8-0.1,1.3-0.1
			c0.4,0,0.8,0,1.2,0.1c0.4,0.1,0.7,0.2,1.1,0.3c0.3,0.2,0.6,0.4,0.8,0.7c0.2,0.3,0.3,0.6,0.3,1.1v3.9c0,0.3,0,0.7,0.1,1
			s0.1,0.5,0.2,0.7H74c0-0.1-0.1-0.2-0.1-0.4s0-0.2-0.1-0.4c-0.3,0.3-0.7,0.6-1.2,0.7c-0.4,0.1-0.9,0.2-1.4,0.2c-0.4,0-0.7,0-1-0.1
			c-0.3-0.1-0.6-0.2-0.8-0.4c-0.2-0.2-0.4-0.4-0.5-0.7c-0.1-0.3-0.2-0.6-0.2-1c0-0.4,0.1-0.8,0.2-1.1c0.1-0.3,0.3-0.5,0.6-0.7
			c0.2-0.2,0.5-0.3,0.8-0.4c0.3-0.1,0.6-0.1,0.9-0.2c0.3,0,0.6-0.1,0.9-0.1s0.6-0.1,0.8-0.1c0.2-0.1,0.4-0.1,0.5-0.3
			s0.2-0.3,0.2-0.5c0-0.2,0-0.4-0.1-0.5s-0.2-0.2-0.3-0.3S73.1,25.1,73,25c-0.2,0-0.3,0-0.5,0c-0.4,0-0.7,0.1-1,0.3
			c-0.2,0.2-0.4,0.5-0.4,0.9H69z M73.8,27.7c-0.1,0.1-0.2,0.1-0.3,0.2S73.2,27.9,73,28c-0.2,0-0.3,0.1-0.5,0.1s-0.3,0-0.5,0.1
			c-0.2,0-0.3,0.1-0.5,0.1s-0.3,0.1-0.4,0.2s-0.2,0.2-0.3,0.3c-0.1,0.1-0.1,0.3-0.1,0.5c0,0.2,0,0.4,0.1,0.5
			c0.1,0.1,0.2,0.2,0.3,0.3s0.3,0.1,0.4,0.2c0.2,0,0.3,0,0.5,0c0.4,0,0.7-0.1,1-0.2s0.4-0.3,0.5-0.5s0.2-0.4,0.2-0.6
			c0-0.2,0-0.4,0-0.5V27.7z"/>
		<path class="st1" d="M77.6,29.1h2.3v2.3c0,0.3-0.1,0.6-0.2,0.9c-0.1,0.3-0.3,0.5-0.5,0.7c-0.2,0.2-0.4,0.4-0.7,0.5
			c-0.3,0.1-0.6,0.2-0.9,0.3v-1.1c0.2,0,0.3-0.1,0.4-0.2s0.2-0.2,0.3-0.3s0.2-0.3,0.2-0.4c0-0.2,0.1-0.3,0.1-0.5h-1.1V29.1z"/>
		<path class="st1" d="M90.8,26.5c-0.1-0.9-0.6-1.3-1.5-1.3c-0.3,0-0.6,0.1-0.8,0.2c-0.2,0.2-0.4,0.3-0.5,0.6
			c-0.1,0.2-0.2,0.5-0.3,0.8c-0.1,0.3-0.1,0.6-0.1,0.8c0,0.3,0,0.6,0.1,0.8c0.1,0.3,0.2,0.5,0.3,0.8c0.1,0.2,0.3,0.4,0.5,0.6
			c0.2,0.1,0.5,0.2,0.8,0.2c0.5,0,0.9-0.1,1.1-0.4c0.3-0.3,0.4-0.7,0.5-1.1h2c-0.1,1-0.5,1.8-1.2,2.3c-0.6,0.5-1.5,0.8-2.5,0.8
			c-0.6,0-1.1-0.1-1.6-0.3c-0.5-0.2-0.9-0.5-1.2-0.8c-0.3-0.3-0.6-0.8-0.8-1.2c-0.2-0.5-0.3-1-0.3-1.6c0-0.6,0.1-1.1,0.3-1.6
			c0.2-0.5,0.4-0.9,0.8-1.3c0.3-0.4,0.7-0.7,1.2-0.9c0.5-0.2,1-0.3,1.6-0.3c0.4,0,0.9,0.1,1.3,0.2c0.4,0.1,0.8,0.3,1.1,0.5
			c0.3,0.2,0.6,0.5,0.8,0.9c0.2,0.4,0.3,0.8,0.4,1.3H90.8z"/>
		<path class="st1" d="M93.8,27.6c0-0.6,0.1-1.2,0.3-1.6c0.2-0.5,0.4-0.9,0.8-1.3c0.3-0.3,0.8-0.6,1.2-0.8c0.5-0.2,1-0.3,1.6-0.3
			s1.1,0.1,1.6,0.3c0.5,0.2,0.9,0.5,1.2,0.8c0.3,0.3,0.6,0.8,0.8,1.3c0.2,0.5,0.3,1,0.3,1.6s-0.1,1.2-0.3,1.6
			c-0.2,0.5-0.4,0.9-0.8,1.3c-0.3,0.3-0.8,0.6-1.2,0.8c-0.5,0.2-1,0.3-1.6,0.3s-1.1-0.1-1.6-0.3c-0.5-0.2-0.9-0.5-1.2-0.8
			c-0.3-0.3-0.6-0.8-0.8-1.3C93.9,28.8,93.8,28.2,93.8,27.6z M95.9,27.6c0,0.3,0,0.6,0.1,0.9c0.1,0.3,0.2,0.5,0.3,0.8
			c0.1,0.2,0.3,0.4,0.6,0.5C97,30,97.3,30,97.7,30c0.4,0,0.6-0.1,0.9-0.2c0.2-0.1,0.4-0.3,0.6-0.5c0.1-0.2,0.2-0.5,0.3-0.8
			c0.1-0.3,0.1-0.6,0.1-0.9c0-0.3,0-0.6-0.1-0.9s-0.2-0.6-0.3-0.8s-0.3-0.4-0.6-0.5c-0.2-0.1-0.5-0.2-0.9-0.2
			c-0.4,0-0.6,0.1-0.9,0.2c-0.2,0.1-0.4,0.3-0.6,0.5c-0.1,0.2-0.2,0.5-0.3,0.8C95.9,27,95.9,27.3,95.9,27.6z"/>
		<path class="st1" d="M103,23.8h2v1.4h0c0.1-0.2,0.2-0.5,0.4-0.7c0.2-0.2,0.4-0.4,0.6-0.5s0.4-0.3,0.7-0.3s0.5-0.1,0.8-0.1
			c0.2,0,0.3,0,0.5,0.1v1.9c-0.1,0-0.2,0-0.4-0.1s-0.3,0-0.4,0c-0.4,0-0.7,0.1-1,0.2s-0.5,0.3-0.6,0.5c-0.2,0.2-0.3,0.5-0.3,0.8
			S105,27.6,105,28v3.4H103V23.8z"/>
		<path class="st1" d="M111.3,23.8h1.5v1.4h-1.5V29c0,0.4,0.1,0.6,0.2,0.7c0.1,0.1,0.4,0.2,0.7,0.2c0.2,0,0.4,0,0.6-0.1v1.6
			c-0.2,0-0.4,0-0.6,0.1c-0.2,0-0.4,0-0.6,0c-0.3,0-0.6,0-0.9-0.1c-0.3,0-0.5-0.1-0.8-0.3s-0.4-0.3-0.5-0.5s-0.2-0.5-0.2-0.9v-4.5
			h-1.3v-1.4h1.3v-2.3h2.1V23.8z"/>
		<path class="st1" d="M115.9,22.7h-2.1v-1.7h2.1V22.7z M113.9,23.8h2.1v7.6h-2.1V23.8z"/>
		<path class="st1" d="M119.2,28.9c0,0.2,0,0.4,0.1,0.6s0.2,0.3,0.4,0.4c0.1,0.1,0.3,0.2,0.5,0.2s0.4,0.1,0.6,0.1
			c0.1,0,0.3,0,0.5-0.1s0.3-0.1,0.4-0.2s0.2-0.2,0.3-0.3c0.1-0.1,0.1-0.3,0.1-0.5c0-0.2-0.1-0.3-0.2-0.4s-0.3-0.2-0.5-0.3
			c-0.2-0.1-0.4-0.2-0.7-0.2c-0.3-0.1-0.6-0.1-1-0.2c-0.3-0.1-0.6-0.1-0.9-0.2c-0.3-0.1-0.5-0.2-0.8-0.4c-0.2-0.2-0.4-0.3-0.5-0.6
			c-0.1-0.2-0.2-0.5-0.2-0.8c0-0.5,0.1-0.9,0.3-1.2c0.2-0.3,0.4-0.6,0.8-0.7c0.3-0.2,0.7-0.3,1.1-0.4c0.4-0.1,0.8-0.1,1.2-0.1
			c0.4,0,0.8,0,1.2,0.1s0.7,0.2,1,0.4c0.3,0.2,0.6,0.4,0.8,0.7c0.2,0.3,0.3,0.7,0.4,1.2h-2c0-0.4-0.2-0.7-0.5-0.8
			c-0.3-0.1-0.6-0.2-1-0.2c-0.1,0-0.2,0-0.4,0c-0.1,0-0.3,0-0.4,0.1c-0.1,0-0.2,0.1-0.3,0.2s-0.1,0.2-0.1,0.4c0,0.2,0.1,0.3,0.2,0.5
			c0.1,0.1,0.3,0.2,0.5,0.3s0.5,0.1,0.8,0.2c0.3,0.1,0.6,0.1,0.9,0.2c0.3,0.1,0.6,0.2,0.9,0.2c0.3,0.1,0.5,0.2,0.8,0.4
			c0.2,0.2,0.4,0.4,0.5,0.6s0.2,0.5,0.2,0.9c0,0.5-0.1,0.9-0.3,1.3c-0.2,0.3-0.5,0.6-0.8,0.8c-0.3,0.2-0.7,0.4-1.1,0.4
			c-0.4,0.1-0.8,0.1-1.3,0.1c-0.4,0-0.9,0-1.3-0.1c-0.4-0.1-0.8-0.2-1.1-0.4c-0.3-0.2-0.6-0.5-0.8-0.8c-0.2-0.3-0.3-0.8-0.3-1.3
			H119.2z"/>
		<path class="st1" d="M125.2,27.6c0-0.6,0.1-1.2,0.3-1.6c0.2-0.5,0.4-0.9,0.8-1.3c0.3-0.3,0.8-0.6,1.2-0.8c0.5-0.2,1-0.3,1.6-0.3
			s1.1,0.1,1.6,0.3c0.5,0.2,0.9,0.5,1.2,0.8c0.3,0.3,0.6,0.8,0.8,1.3c0.2,0.5,0.3,1,0.3,1.6s-0.1,1.2-0.3,1.6
			c-0.2,0.5-0.4,0.9-0.8,1.3c-0.3,0.3-0.8,0.6-1.2,0.8c-0.5,0.2-1,0.3-1.6,0.3s-1.1-0.1-1.6-0.3c-0.5-0.2-0.9-0.5-1.2-0.8
			c-0.3-0.3-0.6-0.8-0.8-1.3C125.3,28.8,125.2,28.2,125.2,27.6z M127.3,27.6c0,0.3,0,0.6,0.1,0.9c0.1,0.3,0.2,0.5,0.3,0.8
			c0.1,0.2,0.3,0.4,0.6,0.5c0.2,0.1,0.5,0.2,0.9,0.2c0.4,0,0.6-0.1,0.9-0.2c0.2-0.1,0.4-0.3,0.6-0.5c0.1-0.2,0.2-0.5,0.3-0.8
			c0.1-0.3,0.1-0.6,0.1-0.9c0-0.3,0-0.6-0.1-0.9s-0.2-0.6-0.3-0.8s-0.3-0.4-0.6-0.5c-0.2-0.1-0.5-0.2-0.9-0.2
			c-0.4,0-0.6,0.1-0.9,0.2c-0.2,0.1-0.4,0.3-0.6,0.5c-0.1,0.2-0.2,0.5-0.3,0.8C127.3,27,127.3,27.3,127.3,27.6z"/>
		<path class="st1" d="M134.4,20.9h2.1v10.4h-2.1V20.9z"/>
		<path class="st1" d="M137.2,34c0.5-1,0.9-2.1,1.2-3.2c0.3-1.1,0.4-2.2,0.4-3.4c0-1.2-0.1-2.3-0.4-3.4c-0.3-1.1-0.7-2.2-1.2-3.3
			h1.7c0.6,1,1.1,2.1,1.4,3.2c0.3,1.1,0.5,2.3,0.5,3.4c0,0.5,0,1.1-0.1,1.7c-0.1,0.6-0.2,1.2-0.4,1.8c-0.2,0.6-0.4,1.2-0.6,1.7
			c-0.2,0.6-0.5,1.1-0.8,1.5H137.2z"/>
		<path class="st1" d="M142,22.1c0-0.3,0.1-0.5,0.2-0.7s0.3-0.4,0.5-0.5s0.4-0.2,0.6-0.3c0.2-0.1,0.5-0.1,0.7-0.1
			c0.4,0,0.7,0.1,0.9,0.2c0.3,0.1,0.5,0.3,0.6,0.4s0.3,0.3,0.3,0.5s0.1,0.4,0.1,0.5c0,0.3-0.1,0.6-0.2,0.8c-0.1,0.2-0.4,0.4-0.6,0.5
			v0c0.4,0.1,0.6,0.2,0.8,0.5s0.3,0.6,0.3,1c0,0.3-0.1,0.6-0.2,0.8c-0.1,0.2-0.3,0.4-0.5,0.6c-0.2,0.2-0.4,0.3-0.7,0.3
			c-0.3,0.1-0.5,0.1-0.8,0.1c-0.3,0-0.6,0-0.8-0.1c-0.3-0.1-0.5-0.2-0.7-0.3c-0.2-0.2-0.4-0.3-0.5-0.6c-0.1-0.2-0.2-0.5-0.2-0.8
			c0-0.4,0.1-0.7,0.3-1s0.5-0.4,0.8-0.5v0c-0.3-0.1-0.5-0.2-0.7-0.5C142.1,22.6,142,22.3,142,22.1z M143,24.7c0,0.2,0,0.3,0.1,0.4
			s0.1,0.2,0.2,0.3s0.2,0.2,0.3,0.2c0.1,0,0.3,0.1,0.4,0.1c0.1,0,0.3,0,0.4-0.1c0.1,0,0.2-0.1,0.3-0.2s0.2-0.2,0.2-0.3
			s0.1-0.3,0.1-0.4c0-0.1,0-0.3-0.1-0.4c-0.1-0.1-0.1-0.2-0.2-0.3c-0.1-0.1-0.2-0.2-0.3-0.2c-0.1,0-0.3-0.1-0.4-0.1
			c-0.3,0-0.5,0.1-0.8,0.2S143,24.4,143,24.7z M143.1,22.2c0,0.1,0,0.2,0.1,0.3c0,0.1,0.1,0.2,0.2,0.2c0.1,0.1,0.2,0.1,0.3,0.1
			c0.1,0,0.2,0.1,0.3,0.1c0.3,0,0.5-0.1,0.6-0.2c0.2-0.1,0.3-0.3,0.3-0.6c0-0.1,0-0.2,0-0.3s-0.1-0.2-0.1-0.3
			c-0.1-0.1-0.2-0.2-0.3-0.2s-0.3-0.1-0.5-0.1c-0.2,0-0.5,0.1-0.6,0.2C143.2,21.7,143.1,21.9,143.1,22.2z"/>
		<path class="st1" d="M146.9,25.2h1.3v1.3c0,0.2,0,0.4-0.1,0.5s-0.2,0.3-0.3,0.4c-0.1,0.1-0.3,0.2-0.4,0.3
			c-0.2,0.1-0.3,0.1-0.5,0.2v-0.6c0.1,0,0.2,0,0.2-0.1c0.1,0,0.1-0.1,0.2-0.2c0.1-0.1,0.1-0.2,0.1-0.2s0-0.2,0-0.3h-0.6V25.2z"/>
		<path class="st1" d="M150.2,25c0,0.2,0.1,0.4,0.3,0.5c0.1,0.1,0.3,0.2,0.5,0.2c0.2,0,0.4-0.1,0.5-0.2c0.1-0.1,0.3-0.3,0.3-0.5
			c0.1-0.2,0.1-0.4,0.2-0.6c0-0.2,0.1-0.4,0.1-0.6l0,0c-0.2,0.2-0.4,0.4-0.6,0.5s-0.5,0.2-0.8,0.2c-0.3,0-0.5-0.1-0.8-0.2
			c-0.2-0.1-0.5-0.3-0.6-0.4c-0.2-0.2-0.3-0.4-0.3-0.6c-0.1-0.2-0.1-0.5-0.1-0.7c0-0.3,0-0.6,0.1-0.9s0.2-0.5,0.4-0.7
			c0.2-0.2,0.4-0.4,0.7-0.5c0.3-0.1,0.5-0.2,0.9-0.2c0.4,0,0.8,0.1,1.1,0.3c0.3,0.2,0.5,0.4,0.7,0.7c0.2,0.3,0.3,0.6,0.4,1
			c0.1,0.4,0.1,0.7,0.1,1.1c0,0.4,0,0.7-0.1,1.1c-0.1,0.4-0.2,0.7-0.4,1c-0.2,0.3-0.4,0.5-0.7,0.7s-0.7,0.3-1.1,0.3
			c-0.5,0-1-0.1-1.3-0.4c-0.4-0.3-0.6-0.7-0.6-1.2H150.2z M151.1,23.6c0.2,0,0.3,0,0.4-0.1c0.1-0.1,0.2-0.1,0.3-0.2
			c0.1-0.1,0.1-0.2,0.2-0.4c0-0.1,0.1-0.3,0.1-0.4c0-0.1,0-0.3-0.1-0.4c0-0.1-0.1-0.3-0.2-0.4c-0.1-0.1-0.2-0.2-0.3-0.3
			c-0.1-0.1-0.3-0.1-0.4-0.1c-0.1,0-0.3,0-0.4,0.1c-0.1,0.1-0.2,0.1-0.3,0.2c-0.1,0.1-0.1,0.2-0.2,0.3c0,0.1-0.1,0.3-0.1,0.4
			c0,0.1,0,0.3,0.1,0.4c0,0.1,0.1,0.3,0.2,0.4c0.1,0.1,0.2,0.2,0.3,0.3C150.8,23.6,150.9,23.6,151.1,23.6z"/>
	</g>
</g>
</svg>
