<!-- Generator: Adobe Illustrator 20.1.0, SVG Export Plug-In  -->
<svg version="1.1"
	 xmlns="http://www.w3.org/2000/svg" xmlns:xlink="http://www.w3.org/1999/xlink" xmlns:a="http://ns.adobe.com/AdobeSVGViewerExtensions/3.0/"
	 x="0px" y="0px" width="675.1px" height="33.6px" viewBox="0 0 675.1 33.6"
	 style="overflow:scroll;enable-background:new 0 0 675.1 33.6;" xml:space="preserve">
<style type="text/css">
	.st0{opacity:0.9;fill:#FFFFFF;}
	.st1{opacity:0.8;fill:#FFFFFF;}
</style>
<defs>
</defs>
<g>
	<g>
		<path class="st0" d="M6.5,11.6H3.7L0,0.2h2.6l2.5,8h0l2.6-8h2.6L6.5,11.6z"/>
		<path class="st0" d="M13.6,2.1h-2.3V0.2h2.3V2.1z M11.4,3.4h2.3v8.2h-2.3V3.4z"/>
		<path class="st0" d="M18.6,3.4h1.6v1.5h-1.6v4.1c0,0.4,0.1,0.6,0.2,0.8s0.4,0.2,0.8,0.2c0.3,0,0.5,0,0.7-0.1v1.8
			c-0.2,0-0.4,0.1-0.6,0.1s-0.5,0-0.7,0c-0.3,0-0.7,0-1-0.1c-0.3,0-0.6-0.1-0.8-0.3c-0.2-0.1-0.4-0.3-0.6-0.6s-0.2-0.6-0.2-1V4.9
			h-1.4V3.4h1.4V0.9h2.3V3.4z"/>
		<path class="st0" d="M21.5,5.9c0-0.5,0.2-1,0.4-1.3s0.5-0.6,0.9-0.8c0.4-0.2,0.8-0.4,1.2-0.5c0.4-0.1,0.9-0.1,1.4-0.1
			c0.4,0,0.8,0,1.3,0.1c0.4,0.1,0.8,0.2,1.2,0.3c0.3,0.2,0.6,0.4,0.9,0.7C28.8,4.6,29,5,29,5.5v4.3c0,0.4,0,0.7,0.1,1.1
			c0,0.3,0.1,0.6,0.2,0.8H27c0-0.1-0.1-0.3-0.1-0.4c0-0.1,0-0.3-0.1-0.4c-0.4,0.4-0.8,0.6-1.3,0.8s-1,0.2-1.5,0.2
			c-0.4,0-0.8,0-1.1-0.2c-0.3-0.1-0.6-0.3-0.9-0.5c-0.3-0.2-0.5-0.5-0.6-0.8s-0.2-0.7-0.2-1.1c0-0.5,0.1-0.8,0.2-1.1
			c0.2-0.3,0.4-0.5,0.6-0.7S22.7,7.1,23,7s0.7-0.2,1-0.2c0.3-0.1,0.7-0.1,1-0.1c0.3,0,0.6-0.1,0.8-0.1c0.2-0.1,0.4-0.2,0.6-0.3
			c0.1-0.1,0.2-0.3,0.2-0.5c0-0.2,0-0.4-0.1-0.6s-0.2-0.3-0.3-0.3S26,4.7,25.8,4.7s-0.4,0-0.6,0c-0.4,0-0.8,0.1-1,0.3
			c-0.3,0.2-0.4,0.5-0.5,1H21.5z M26.7,7.5c-0.1,0.1-0.2,0.2-0.4,0.2s-0.3,0.1-0.5,0.1c-0.2,0-0.3,0.1-0.5,0.1C25.2,8,25,8,24.8,8
			c-0.2,0-0.3,0.1-0.5,0.1c-0.2,0.1-0.3,0.1-0.4,0.2c-0.1,0.1-0.2,0.2-0.3,0.3c-0.1,0.1-0.1,0.3-0.1,0.5c0,0.2,0,0.4,0.1,0.5
			c0.1,0.1,0.2,0.2,0.3,0.3s0.3,0.1,0.4,0.2c0.2,0,0.3,0,0.5,0c0.4,0,0.8-0.1,1-0.2c0.2-0.1,0.4-0.3,0.5-0.5s0.2-0.4,0.2-0.6
			c0-0.2,0-0.4,0-0.5V7.5z"/>
		<path class="st0" d="M31,3.4h2.1v1.1h0c0.3-0.5,0.7-0.8,1.1-1c0.5-0.2,0.9-0.3,1.4-0.3c0.6,0,1.1,0.1,1.5,0.2
			c0.4,0.2,0.7,0.4,0.9,0.7c0.2,0.3,0.4,0.6,0.5,1.1c0.1,0.4,0.1,0.9,0.1,1.4v5h-2.3V6.9c0-0.7-0.1-1.2-0.3-1.5S35.5,4.9,35,4.9
			c-0.6,0-1.1,0.2-1.3,0.5c-0.3,0.4-0.4,1-0.4,1.8v4.3H31V3.4z"/>
		<path class="st0" d="M46.3,6.2c-0.1-0.9-0.7-1.4-1.7-1.4c-0.4,0-0.7,0.1-0.9,0.2c-0.2,0.2-0.4,0.4-0.6,0.6C43,6,42.9,6.3,42.8,6.6
			c-0.1,0.3-0.1,0.6-0.1,0.9c0,0.3,0,0.6,0.1,0.9S43,9,43.1,9.2c0.1,0.2,0.3,0.5,0.6,0.6s0.5,0.2,0.9,0.2c0.5,0,0.9-0.2,1.2-0.5
			c0.3-0.3,0.5-0.7,0.6-1.2h2.2c-0.1,1.1-0.6,1.9-1.3,2.5c-0.7,0.6-1.6,0.9-2.7,0.9c-0.6,0-1.2-0.1-1.7-0.3S42,11,41.6,10.6
			c-0.4-0.4-0.6-0.8-0.8-1.3c-0.2-0.5-0.3-1.1-0.3-1.7c0-0.6,0.1-1.2,0.3-1.8c0.2-0.5,0.5-1,0.8-1.4s0.8-0.7,1.3-0.9
			c0.5-0.2,1.1-0.3,1.8-0.3c0.5,0,1,0.1,1.4,0.2s0.8,0.3,1.2,0.6s0.6,0.6,0.9,1c0.2,0.4,0.4,0.8,0.4,1.4H46.3z"/>
		<path class="st0" d="M49.9,7.5c0-0.7,0.1-1.3,0.3-1.8c0.2-0.5,0.5-1,0.9-1.4c0.4-0.4,0.8-0.7,1.3-0.9c0.5-0.2,1.1-0.3,1.7-0.3
			c0.6,0,1.2,0.1,1.8,0.3s1,0.5,1.3,0.9c0.4,0.4,0.7,0.8,0.9,1.4s0.3,1.1,0.3,1.8s-0.1,1.2-0.3,1.8s-0.5,1-0.9,1.4
			c-0.4,0.4-0.8,0.7-1.3,0.9s-1.1,0.3-1.8,0.3c-0.6,0-1.2-0.1-1.7-0.3c-0.5-0.2-1-0.5-1.3-0.9c-0.4-0.4-0.7-0.8-0.9-1.4
			C50,8.7,49.9,8.1,49.9,7.5z M52.2,7.5c0,0.3,0,0.6,0.1,1c0.1,0.3,0.2,0.6,0.3,0.8c0.2,0.2,0.4,0.4,0.6,0.6c0.3,0.1,0.6,0.2,1,0.2
			c0.4,0,0.7-0.1,1-0.2c0.3-0.1,0.5-0.3,0.6-0.6C55.9,9,56,8.7,56,8.4c0.1-0.3,0.1-0.6,0.1-1c0-0.3,0-0.7-0.1-1s-0.2-0.6-0.3-0.8
			s-0.4-0.4-0.6-0.6c-0.3-0.2-0.6-0.2-1-0.2c-0.4,0-0.7,0.1-1,0.2s-0.5,0.4-0.6,0.6c-0.2,0.2-0.3,0.5-0.3,0.8S52.2,7.1,52.2,7.5z"/>
		<path class="st1" d="M65.7,8.9c0.1,0.4,0.3,0.7,0.5,1s0.5,0.6,0.8,0.8c0.3,0.2,0.7,0.3,1.2,0.3c0.7,0,1.3-0.2,1.7-0.6
			s0.7-0.9,0.9-1.5h1c-0.2,0.9-0.6,1.6-1.2,2.2c-0.6,0.5-1.4,0.8-2.4,0.8c-0.6,0-1.2-0.1-1.7-0.3c-0.5-0.2-0.9-0.5-1.2-0.9
			s-0.5-0.9-0.7-1.4c-0.1-0.5-0.2-1.1-0.2-1.7c0-0.5,0.1-1.1,0.2-1.6c0.1-0.5,0.4-1,0.7-1.4s0.7-0.7,1.2-1c0.5-0.2,1-0.4,1.7-0.4
			c0.7,0,1.2,0.1,1.7,0.4c0.5,0.3,0.8,0.6,1.1,1C71.4,5,71.6,5.5,71.7,6c0.1,0.6,0.2,1.1,0.2,1.7h-6.3C65.6,8.1,65.6,8.5,65.7,8.9z
			 M70.7,5.8c-0.1-0.3-0.3-0.7-0.5-0.9c-0.2-0.3-0.5-0.5-0.8-0.7C69,4.1,68.7,4,68.3,4c-0.4,0-0.8,0.1-1.1,0.2
			c-0.3,0.2-0.6,0.4-0.8,0.7c-0.2,0.3-0.4,0.6-0.5,0.9c-0.1,0.4-0.2,0.7-0.3,1.1h5.3C70.9,6.5,70.8,6.2,70.7,5.8z"/>
		<path class="st1" d="M78.3,5c-0.1-0.2-0.3-0.4-0.5-0.6c-0.2-0.1-0.4-0.3-0.7-0.3C76.9,4,76.6,4,76.3,4c-0.2,0-0.4,0-0.7,0.1
			S75.2,4.2,75,4.3c-0.2,0.1-0.3,0.3-0.5,0.4c-0.1,0.2-0.2,0.4-0.2,0.7c0,0.2,0.1,0.4,0.2,0.6c0.1,0.2,0.3,0.3,0.4,0.4
			s0.4,0.2,0.6,0.3s0.4,0.1,0.6,0.2l1.3,0.3c0.3,0,0.6,0.1,0.8,0.2c0.3,0.1,0.5,0.3,0.7,0.4s0.4,0.4,0.5,0.7
			c0.1,0.3,0.2,0.6,0.2,0.9c0,0.4-0.1,0.8-0.3,1.1c-0.2,0.3-0.5,0.6-0.8,0.8c-0.3,0.2-0.7,0.3-1.1,0.4c-0.4,0.1-0.8,0.1-1.2,0.1
			c-1,0-1.7-0.2-2.3-0.7c-0.6-0.5-0.9-1.2-1-2.2h1c0,0.7,0.3,1.2,0.7,1.5c0.4,0.3,1,0.5,1.7,0.5c0.2,0,0.5,0,0.8-0.1
			c0.3-0.1,0.5-0.1,0.7-0.3c0.2-0.1,0.4-0.3,0.5-0.5c0.1-0.2,0.2-0.4,0.2-0.7c0-0.2,0-0.4-0.2-0.6s-0.2-0.3-0.4-0.4
			c-0.2-0.1-0.4-0.2-0.6-0.3C77.4,8,77.2,8,76.9,7.9l-1.3-0.3c-0.3-0.1-0.6-0.2-0.9-0.3c-0.3-0.1-0.5-0.2-0.7-0.4s-0.4-0.4-0.5-0.6
			c-0.1-0.2-0.2-0.5-0.2-0.9c0-0.4,0.1-0.8,0.3-1.1c0.2-0.3,0.4-0.5,0.7-0.7s0.6-0.3,1-0.4c0.4-0.1,0.7-0.1,1.1-0.1
			c0.4,0,0.8,0.1,1.2,0.2c0.4,0.1,0.7,0.3,0.9,0.5C78.8,4,79,4.3,79.2,4.6c0.2,0.3,0.2,0.7,0.3,1.2h-1C78.4,5.5,78.4,5.2,78.3,5z"/>
		<path class="st1" d="M91.9,11.6v-1.5h0c-0.3,0.5-0.6,1-1.2,1.3c-0.5,0.3-1.1,0.4-1.7,0.4c-0.5,0-1-0.1-1.3-0.2
			c-0.4-0.1-0.7-0.3-0.9-0.6s-0.4-0.6-0.5-1c-0.1-0.4-0.2-0.8-0.2-1.3V3.4h1v5.3c0,0.7,0.2,1.3,0.5,1.7s0.9,0.6,1.7,0.6
			c0.4,0,0.8-0.1,1.1-0.3c0.3-0.2,0.6-0.4,0.8-0.7c0.2-0.3,0.3-0.7,0.4-1.1c0.1-0.4,0.1-0.8,0.1-1.2V3.4h1v8.2H91.9z"/>
		<path class="st1" d="M96,3.4v1.4h0c0.2-0.5,0.5-0.9,1-1.2c0.5-0.3,1-0.5,1.6-0.5c0.6,0,1,0.1,1.4,0.2c0.4,0.1,0.7,0.4,0.9,0.6
			s0.4,0.6,0.5,1c0.1,0.4,0.1,0.8,0.1,1.3v5.3h-1V6.5c0-0.3,0-0.7-0.1-1c-0.1-0.3-0.2-0.6-0.3-0.8c-0.2-0.2-0.4-0.4-0.6-0.5
			C99.3,4,99,4,98.6,4c-0.4,0-0.8,0.1-1.1,0.2S97,4.5,96.7,4.8c-0.2,0.2-0.4,0.5-0.5,0.9C96.1,6,96,6.4,96,6.8v4.8h-1V3.4H96z"/>
		<path class="st0" d="M111.4,3.4h1.6v1.5h-1.6v4.1c0,0.4,0.1,0.6,0.2,0.8s0.4,0.2,0.8,0.2c0.3,0,0.5,0,0.7-0.1v1.8
			c-0.2,0-0.4,0.1-0.6,0.1c-0.2,0-0.5,0-0.7,0c-0.3,0-0.7,0-1-0.1c-0.3,0-0.6-0.1-0.8-0.3c-0.2-0.1-0.4-0.3-0.6-0.6s-0.2-0.6-0.2-1
			V4.9h-1.4V3.4h1.4V0.9h2.3V3.4z"/>
		<path class="st0" d="M114.4,3.4h2.1v1.5h0c0.1-0.3,0.2-0.5,0.4-0.7s0.4-0.4,0.6-0.6s0.5-0.3,0.8-0.4c0.3-0.1,0.5-0.1,0.8-0.1
			c0.2,0,0.3,0,0.5,0.1v2.1c-0.1,0-0.2,0-0.4-0.1c-0.1,0-0.3,0-0.4,0c-0.4,0-0.8,0.1-1,0.2c-0.3,0.1-0.5,0.3-0.7,0.6
			c-0.2,0.2-0.3,0.5-0.4,0.8c-0.1,0.3-0.1,0.7-0.1,1v3.7h-2.3V3.4z"/>
		<path class="st0" d="M120.8,5.9c0-0.5,0.2-1,0.4-1.3c0.2-0.3,0.5-0.6,0.9-0.8c0.4-0.2,0.8-0.4,1.2-0.5c0.4-0.1,0.9-0.1,1.4-0.1
			c0.4,0,0.8,0,1.3,0.1c0.4,0.1,0.8,0.2,1.2,0.3c0.3,0.2,0.6,0.4,0.9,0.7c0.2,0.3,0.3,0.7,0.3,1.2v4.3c0,0.4,0,0.7,0.1,1.1
			c0,0.3,0.1,0.6,0.2,0.8h-2.3c0-0.1-0.1-0.3-0.1-0.4c0-0.1,0-0.3-0.1-0.4c-0.4,0.4-0.8,0.6-1.3,0.8c-0.5,0.2-1,0.2-1.5,0.2
			c-0.4,0-0.8,0-1.1-0.2c-0.3-0.1-0.6-0.3-0.9-0.5c-0.3-0.2-0.5-0.5-0.6-0.8s-0.2-0.7-0.2-1.1c0-0.5,0.1-0.8,0.2-1.1
			c0.2-0.3,0.4-0.5,0.6-0.7c0.3-0.2,0.6-0.3,0.9-0.4c0.3-0.1,0.7-0.2,1-0.2c0.3-0.1,0.7-0.1,1-0.1c0.3,0,0.6-0.1,0.8-0.1
			s0.4-0.2,0.6-0.3c0.1-0.1,0.2-0.3,0.2-0.5c0-0.2,0-0.4-0.1-0.6c-0.1-0.1-0.2-0.3-0.3-0.3c-0.1-0.1-0.3-0.1-0.5-0.2
			c-0.2,0-0.4,0-0.6,0c-0.4,0-0.8,0.1-1,0.3c-0.3,0.2-0.4,0.5-0.5,1H120.8z M126,7.5c-0.1,0.1-0.2,0.2-0.4,0.2s-0.3,0.1-0.5,0.1
			c-0.2,0-0.3,0.1-0.5,0.1c-0.2,0-0.4,0-0.5,0.1c-0.2,0-0.3,0.1-0.5,0.1c-0.2,0.1-0.3,0.1-0.4,0.2c-0.1,0.1-0.2,0.2-0.3,0.3
			c-0.1,0.1-0.1,0.3-0.1,0.5c0,0.2,0,0.4,0.1,0.5c0.1,0.1,0.2,0.2,0.3,0.3s0.3,0.1,0.4,0.2c0.2,0,0.3,0,0.5,0c0.4,0,0.8-0.1,1-0.2
			c0.2-0.1,0.4-0.3,0.5-0.5c0.1-0.2,0.2-0.4,0.2-0.6c0-0.2,0-0.4,0-0.5V7.5z"/>
		<path class="st0" d="M133.2,3.4h1.6v1.5h-1.6v4.1c0,0.4,0.1,0.6,0.2,0.8s0.4,0.2,0.8,0.2c0.3,0,0.5,0,0.7-0.1v1.8
			c-0.2,0-0.4,0.1-0.6,0.1c-0.2,0-0.5,0-0.7,0c-0.3,0-0.7,0-1-0.1c-0.3,0-0.6-0.1-0.8-0.3c-0.2-0.1-0.4-0.3-0.6-0.6s-0.2-0.6-0.2-1
			V4.9h-1.4V3.4h1.4V0.9h2.3V3.4z"/>
		<path class="st0" d="M136.1,5.9c0-0.5,0.2-1,0.4-1.3c0.2-0.3,0.5-0.6,0.9-0.8c0.4-0.2,0.8-0.4,1.2-0.5c0.4-0.1,0.9-0.1,1.4-0.1
			c0.4,0,0.8,0,1.3,0.1c0.4,0.1,0.8,0.2,1.2,0.3c0.3,0.2,0.6,0.4,0.9,0.7c0.2,0.3,0.3,0.7,0.3,1.2v4.3c0,0.4,0,0.7,0.1,1.1
			c0,0.3,0.1,0.6,0.2,0.8h-2.3c0-0.1-0.1-0.3-0.1-0.4c0-0.1,0-0.3-0.1-0.4c-0.4,0.4-0.8,0.6-1.3,0.8c-0.5,0.2-1,0.2-1.5,0.2
			c-0.4,0-0.8,0-1.1-0.2c-0.3-0.1-0.6-0.3-0.9-0.5c-0.3-0.2-0.5-0.5-0.6-0.8s-0.2-0.7-0.2-1.1c0-0.5,0.1-0.8,0.2-1.1
			c0.2-0.3,0.4-0.5,0.6-0.7c0.3-0.2,0.6-0.3,0.9-0.4c0.3-0.1,0.7-0.2,1-0.2c0.3-0.1,0.7-0.1,1-0.1c0.3,0,0.6-0.1,0.8-0.1
			s0.4-0.2,0.6-0.3c0.1-0.1,0.2-0.3,0.2-0.5c0-0.2,0-0.4-0.1-0.6c-0.1-0.1-0.2-0.3-0.3-0.3c-0.1-0.1-0.3-0.1-0.5-0.2
			c-0.2,0-0.4,0-0.6,0c-0.4,0-0.8,0.1-1,0.3c-0.3,0.2-0.4,0.5-0.5,1H136.1z M141.3,7.5c-0.1,0.1-0.2,0.2-0.4,0.2s-0.3,0.1-0.5,0.1
			c-0.2,0-0.3,0.1-0.5,0.1c-0.2,0-0.4,0-0.5,0.1c-0.2,0-0.3,0.1-0.5,0.1c-0.2,0.1-0.3,0.1-0.4,0.2c-0.1,0.1-0.2,0.2-0.3,0.3
			c-0.1,0.1-0.1,0.3-0.1,0.5c0,0.2,0,0.4,0.1,0.5c0.1,0.1,0.2,0.2,0.3,0.3s0.3,0.1,0.4,0.2c0.2,0,0.3,0,0.5,0c0.4,0,0.8-0.1,1-0.2
			c0.2-0.1,0.4-0.3,0.5-0.5c0.1-0.2,0.2-0.4,0.2-0.6c0-0.2,0-0.4,0-0.5V7.5z"/>
		<path class="st0" d="M145.7,3.4h2.1v1.1h0c0.3-0.4,0.7-0.8,1.1-1c0.4-0.2,0.9-0.3,1.4-0.3c0.5,0,1,0.1,1.4,0.3
			c0.4,0.2,0.8,0.6,1,1.1c0.2-0.4,0.6-0.7,1-1c0.4-0.3,0.9-0.4,1.5-0.4c0.4,0,0.8,0.1,1.2,0.2s0.7,0.3,1,0.5
			c0.3,0.2,0.5,0.5,0.6,0.9c0.1,0.4,0.2,0.8,0.2,1.4v5.5H156V6.9c0-0.3,0-0.5,0-0.8s-0.1-0.5-0.2-0.6c-0.1-0.2-0.2-0.3-0.4-0.4
			c-0.2-0.1-0.4-0.2-0.8-0.2S154,5,153.8,5.1c-0.2,0.1-0.3,0.3-0.5,0.5c-0.1,0.2-0.2,0.4-0.2,0.7c0,0.2-0.1,0.5-0.1,0.8v4.6h-2.3V7
			c0-0.2,0-0.5,0-0.7c0-0.2-0.1-0.5-0.1-0.7c-0.1-0.2-0.2-0.4-0.4-0.5c-0.2-0.1-0.5-0.2-0.8-0.2c-0.1,0-0.3,0-0.4,0.1
			c-0.2,0-0.3,0.1-0.5,0.3c-0.2,0.1-0.3,0.3-0.4,0.6c-0.1,0.2-0.2,0.6-0.2,1v4.8h-2.3V3.4z"/>
		<path class="st0" d="M162.6,2.1h-2.3V0.2h2.3V2.1z M160.4,3.4h2.3v8.2h-2.3V3.4z"/>
		<path class="st0" d="M166.6,8c0,0.7,0.2,1.2,0.6,1.6c0.3,0.3,0.8,0.5,1.5,0.5c0.5,0,0.8-0.1,1.2-0.3c0.3-0.2,0.5-0.5,0.6-0.7h2
			c-0.3,1-0.8,1.7-1.5,2.1c-0.7,0.4-1.4,0.6-2.4,0.6c-0.6,0-1.2-0.1-1.7-0.3c-0.5-0.2-1-0.5-1.3-0.9s-0.6-0.8-0.8-1.4
			c-0.2-0.5-0.3-1.1-0.3-1.7c0-0.6,0.1-1.2,0.3-1.7c0.2-0.5,0.5-1,0.9-1.4c0.4-0.4,0.8-0.7,1.3-0.9c0.5-0.2,1.1-0.3,1.7-0.3
			c0.7,0,1.3,0.1,1.8,0.4c0.5,0.3,0.9,0.6,1.3,1.1c0.3,0.5,0.6,1,0.7,1.6c0.1,0.6,0.2,1.2,0.2,1.8H166.6z M170.3,6.6
			c-0.1-0.6-0.3-1-0.6-1.3s-0.7-0.4-1.2-0.4c-0.4,0-0.7,0.1-0.9,0.2c-0.2,0.1-0.4,0.3-0.6,0.5s-0.2,0.4-0.3,0.6
			c-0.1,0.2-0.1,0.4-0.1,0.5H170.3z"/>
		<path class="st0" d="M174.2,3.4h2.1v1.1h0c0.3-0.5,0.7-0.8,1.1-1c0.5-0.2,0.9-0.3,1.4-0.3c0.6,0,1.1,0.1,1.5,0.2
			c0.4,0.2,0.7,0.4,0.9,0.7c0.2,0.3,0.4,0.6,0.5,1.1c0.1,0.4,0.1,0.9,0.1,1.4v5h-2.3V6.9c0-0.7-0.1-1.2-0.3-1.5
			c-0.2-0.3-0.6-0.5-1.1-0.5c-0.6,0-1.1,0.2-1.3,0.5c-0.3,0.4-0.4,1-0.4,1.8v4.3h-2.3V3.4z"/>
		<path class="st0" d="M186.7,3.4h1.6v1.5h-1.6v4.1c0,0.4,0.1,0.6,0.2,0.8s0.4,0.2,0.8,0.2c0.3,0,0.5,0,0.7-0.1v1.8
			c-0.2,0-0.4,0.1-0.6,0.1c-0.2,0-0.5,0-0.7,0c-0.3,0-0.7,0-1-0.1c-0.3,0-0.6-0.1-0.8-0.3c-0.2-0.1-0.4-0.3-0.6-0.6s-0.2-0.6-0.2-1
			V4.9h-1.4V3.4h1.4V0.9h2.3V3.4z"/>
		<path class="st0" d="M189.5,7.5c0-0.7,0.1-1.3,0.3-1.8c0.2-0.5,0.5-1,0.9-1.4c0.4-0.4,0.8-0.7,1.3-0.9c0.5-0.2,1.1-0.3,1.7-0.3
			c0.6,0,1.2,0.1,1.8,0.3s1,0.5,1.3,0.9c0.4,0.4,0.7,0.8,0.9,1.4s0.3,1.1,0.3,1.8s-0.1,1.2-0.3,1.8s-0.5,1-0.9,1.4
			c-0.4,0.4-0.8,0.7-1.3,0.9s-1.1,0.3-1.8,0.3c-0.6,0-1.2-0.1-1.7-0.3c-0.5-0.2-1-0.5-1.3-0.9c-0.4-0.4-0.7-0.8-0.9-1.4
			C189.6,8.7,189.5,8.1,189.5,7.5z M191.8,7.5c0,0.3,0,0.6,0.1,1c0.1,0.3,0.2,0.6,0.3,0.8c0.2,0.2,0.4,0.4,0.6,0.6
			c0.3,0.1,0.6,0.2,1,0.2c0.4,0,0.7-0.1,1-0.2c0.3-0.1,0.5-0.3,0.6-0.6c0.2-0.2,0.3-0.5,0.3-0.8c0.1-0.3,0.1-0.6,0.1-1
			c0-0.3,0-0.7-0.1-1s-0.2-0.6-0.3-0.8s-0.4-0.4-0.6-0.6c-0.3-0.2-0.6-0.2-1-0.2c-0.4,0-0.7,0.1-1,0.2s-0.5,0.4-0.6,0.6
			c-0.2,0.2-0.3,0.5-0.3,0.8S191.8,7.1,191.8,7.5z"/>
		<path class="st0" d="M205,4.9h-1.3V3.4h1.3V2.7c0-0.4,0.1-0.7,0.2-1s0.3-0.6,0.5-0.8c0.2-0.2,0.5-0.4,0.9-0.5
			c0.3-0.1,0.7-0.2,1.2-0.2c0.2,0,0.4,0,0.6,0c0.2,0,0.4,0,0.6,0V2c-0.3,0-0.5,0-0.8,0c-0.3,0-0.5,0.1-0.7,0.2
			c-0.1,0.1-0.2,0.4-0.2,0.7v0.5h1.6v1.5h-1.6v6.7H205V4.9z"/>
		<path class="st0" d="M210,5.9c0-0.5,0.2-1,0.4-1.3c0.2-0.3,0.5-0.6,0.9-0.8c0.4-0.2,0.8-0.4,1.2-0.5c0.4-0.1,0.9-0.1,1.4-0.1
			c0.4,0,0.8,0,1.3,0.1c0.4,0.1,0.8,0.2,1.2,0.3c0.3,0.2,0.6,0.4,0.9,0.7c0.2,0.3,0.3,0.7,0.3,1.2v4.3c0,0.4,0,0.7,0.1,1.1
			c0,0.3,0.1,0.6,0.2,0.8h-2.3c0-0.1-0.1-0.3-0.1-0.4c0-0.1,0-0.3-0.1-0.4c-0.4,0.4-0.8,0.6-1.3,0.8c-0.5,0.2-1,0.2-1.5,0.2
			c-0.4,0-0.8,0-1.1-0.2c-0.3-0.1-0.6-0.3-0.9-0.5c-0.3-0.2-0.5-0.5-0.6-0.8s-0.2-0.7-0.2-1.1c0-0.5,0.1-0.8,0.2-1.1
			c0.2-0.3,0.4-0.5,0.6-0.7c0.3-0.2,0.6-0.3,0.9-0.4c0.3-0.1,0.7-0.2,1-0.2c0.3-0.1,0.7-0.1,1-0.1c0.3,0,0.6-0.1,0.8-0.1
			s0.4-0.2,0.6-0.3c0.1-0.1,0.2-0.3,0.2-0.5c0-0.2,0-0.4-0.1-0.6c-0.1-0.1-0.2-0.3-0.3-0.3c-0.1-0.1-0.3-0.1-0.5-0.2
			c-0.2,0-0.4,0-0.6,0c-0.4,0-0.8,0.1-1,0.3c-0.3,0.2-0.4,0.5-0.5,1H210z M215.2,7.5c-0.1,0.1-0.2,0.2-0.4,0.2s-0.3,0.1-0.5,0.1
			c-0.2,0-0.3,0.1-0.5,0.1c-0.2,0-0.4,0-0.5,0.1c-0.2,0-0.3,0.1-0.5,0.1c-0.2,0.1-0.3,0.1-0.4,0.2c-0.1,0.1-0.2,0.2-0.3,0.3
			C212,8.9,212,9,212,9.2c0,0.2,0,0.4,0.1,0.5c0.1,0.1,0.2,0.2,0.3,0.3s0.3,0.1,0.4,0.2c0.2,0,0.3,0,0.5,0c0.4,0,0.8-0.1,1-0.2
			c0.2-0.1,0.4-0.3,0.5-0.5c0.1-0.2,0.2-0.4,0.2-0.6c0-0.2,0-0.4,0-0.5V7.5z"/>
		<path class="st0" d="M219.5,3.4h2.1v1.5h0c0.1-0.3,0.2-0.5,0.4-0.7s0.4-0.4,0.6-0.6s0.5-0.3,0.8-0.4c0.3-0.1,0.5-0.1,0.8-0.1
			c0.2,0,0.3,0,0.5,0.1v2.1c-0.1,0-0.2,0-0.4-0.1c-0.1,0-0.3,0-0.4,0c-0.4,0-0.8,0.1-1,0.2c-0.3,0.1-0.5,0.3-0.7,0.6
			c-0.2,0.2-0.3,0.5-0.4,0.8c-0.1,0.3-0.1,0.7-0.1,1v3.7h-2.3V3.4z"/>
		<path class="st0" d="M226.1,3.4h2.1v1.1h0c0.3-0.4,0.7-0.8,1.1-1c0.4-0.2,0.9-0.3,1.4-0.3c0.5,0,1,0.1,1.4,0.3
			c0.4,0.2,0.8,0.6,1,1.1c0.2-0.4,0.6-0.7,1-1c0.4-0.3,0.9-0.4,1.5-0.4c0.4,0,0.8,0.1,1.2,0.2s0.7,0.3,1,0.5
			c0.3,0.2,0.5,0.5,0.6,0.9c0.1,0.4,0.2,0.8,0.2,1.4v5.5h-2.3V6.9c0-0.3,0-0.5,0-0.8s-0.1-0.5-0.2-0.6c-0.1-0.2-0.2-0.3-0.4-0.4
			c-0.2-0.1-0.4-0.2-0.8-0.2s-0.6,0.1-0.8,0.2c-0.2,0.1-0.3,0.3-0.5,0.5c-0.1,0.2-0.2,0.4-0.2,0.7c0,0.2-0.1,0.5-0.1,0.8v4.6h-2.3V7
			c0-0.2,0-0.5,0-0.7c0-0.2-0.1-0.5-0.1-0.7c-0.1-0.2-0.2-0.4-0.4-0.5c-0.2-0.1-0.5-0.2-0.8-0.2c-0.1,0-0.3,0-0.4,0.1
			c-0.2,0-0.3,0.1-0.5,0.3c-0.2,0.1-0.3,0.3-0.4,0.6c-0.1,0.2-0.2,0.6-0.2,1v4.8h-2.3V3.4z"/>
		<path class="st0" d="M240.6,5.9c0-0.5,0.2-1,0.4-1.3c0.2-0.3,0.5-0.6,0.9-0.8c0.4-0.2,0.8-0.4,1.2-0.5c0.4-0.1,0.9-0.1,1.4-0.1
			c0.4,0,0.8,0,1.3,0.1c0.4,0.1,0.8,0.2,1.2,0.3c0.3,0.2,0.6,0.4,0.9,0.7c0.2,0.3,0.3,0.7,0.3,1.2v4.3c0,0.4,0,0.7,0.1,1.1
			c0,0.3,0.1,0.6,0.2,0.8h-2.3c0-0.1-0.1-0.3-0.1-0.4c0-0.1,0-0.3-0.1-0.4c-0.4,0.4-0.8,0.6-1.3,0.8c-0.5,0.2-1,0.2-1.5,0.2
			c-0.4,0-0.8,0-1.1-0.2c-0.3-0.1-0.6-0.3-0.9-0.5c-0.3-0.2-0.5-0.5-0.6-0.8s-0.2-0.7-0.2-1.1c0-0.5,0.1-0.8,0.2-1.1
			c0.2-0.3,0.4-0.5,0.6-0.7c0.3-0.2,0.6-0.3,0.9-0.4c0.3-0.1,0.7-0.2,1-0.2c0.3-0.1,0.7-0.1,1-0.1c0.3,0,0.6-0.1,0.8-0.1
			s0.4-0.2,0.6-0.3c0.1-0.1,0.2-0.3,0.2-0.5c0-0.2,0-0.4-0.1-0.6c-0.1-0.1-0.2-0.3-0.3-0.3c-0.1-0.1-0.3-0.1-0.5-0.2
			c-0.2,0-0.4,0-0.6,0c-0.4,0-0.8,0.1-1,0.3c-0.3,0.2-0.4,0.5-0.5,1H240.6z M245.8,7.5c-0.1,0.1-0.2,0.2-0.4,0.2s-0.3,0.1-0.5,0.1
			c-0.2,0-0.3,0.1-0.5,0.1c-0.2,0-0.4,0-0.5,0.1c-0.2,0-0.3,0.1-0.5,0.1c-0.2,0.1-0.3,0.1-0.4,0.2c-0.1,0.1-0.2,0.2-0.3,0.3
			c-0.1,0.1-0.1,0.3-0.1,0.5c0,0.2,0,0.4,0.1,0.5c0.1,0.1,0.2,0.2,0.3,0.3s0.3,0.1,0.4,0.2c0.2,0,0.3,0,0.5,0c0.4,0,0.8-0.1,1-0.2
			c0.2-0.1,0.4-0.3,0.5-0.5c0.1-0.2,0.2-0.4,0.2-0.6c0-0.2,0-0.4,0-0.5V7.5z"/>
		<path class="st0" d="M255.7,6.2c-0.1-0.9-0.7-1.4-1.7-1.4c-0.4,0-0.7,0.1-0.9,0.2c-0.2,0.2-0.4,0.4-0.6,0.6
			c-0.2,0.3-0.3,0.5-0.3,0.9c-0.1,0.3-0.1,0.6-0.1,0.9c0,0.3,0,0.6,0.1,0.9s0.2,0.6,0.3,0.8c0.1,0.2,0.3,0.5,0.6,0.6
			s0.5,0.2,0.9,0.2c0.5,0,0.9-0.2,1.2-0.5c0.3-0.3,0.5-0.7,0.6-1.2h2.2c-0.1,1.1-0.6,1.9-1.3,2.5c-0.7,0.6-1.6,0.9-2.7,0.9
			c-0.6,0-1.2-0.1-1.7-0.3s-0.9-0.5-1.3-0.9c-0.4-0.4-0.6-0.8-0.8-1.3c-0.2-0.5-0.3-1.1-0.3-1.7c0-0.6,0.1-1.2,0.3-1.8
			c0.2-0.5,0.5-1,0.8-1.4s0.8-0.7,1.3-0.9c0.5-0.2,1.1-0.3,1.8-0.3c0.5,0,1,0.1,1.4,0.2s0.8,0.3,1.2,0.6s0.6,0.6,0.9,1
			c0.2,0.4,0.4,0.8,0.4,1.4H255.7z"/>
		<path class="st0" d="M259.3,7.5c0-0.7,0.1-1.3,0.3-1.8c0.2-0.5,0.5-1,0.9-1.4c0.4-0.4,0.8-0.7,1.3-0.9c0.5-0.2,1.1-0.3,1.7-0.3
			c0.6,0,1.2,0.1,1.8,0.3s1,0.5,1.3,0.9c0.4,0.4,0.7,0.8,0.9,1.4s0.3,1.1,0.3,1.8s-0.1,1.2-0.3,1.8s-0.5,1-0.9,1.4
			c-0.4,0.4-0.8,0.7-1.3,0.9s-1.1,0.3-1.8,0.3c-0.6,0-1.2-0.1-1.7-0.3c-0.5-0.2-1-0.5-1.3-0.9c-0.4-0.4-0.7-0.8-0.9-1.4
			C259.4,8.7,259.3,8.1,259.3,7.5z M261.5,7.5c0,0.3,0,0.6,0.1,1c0.1,0.3,0.2,0.6,0.3,0.8c0.2,0.2,0.4,0.4,0.6,0.6
			c0.3,0.1,0.6,0.2,1,0.2c0.4,0,0.7-0.1,1-0.2c0.3-0.1,0.5-0.3,0.6-0.6c0.2-0.2,0.3-0.5,0.3-0.8c0.1-0.3,0.1-0.6,0.1-1
			c0-0.3,0-0.7-0.1-1s-0.2-0.6-0.3-0.8s-0.4-0.4-0.6-0.6c-0.3-0.2-0.6-0.2-1-0.2c-0.4,0-0.7,0.1-1,0.2s-0.5,0.4-0.6,0.6
			c-0.2,0.2-0.3,0.5-0.3,0.8S261.5,7.1,261.5,7.5z"/>
		<path class="st0" d="M269.6,0.2h2.3v11.3h-2.3V0.2z"/>
		<path class="st0" d="M273.7,7.5c0-0.7,0.1-1.3,0.3-1.8c0.2-0.5,0.5-1,0.9-1.4c0.4-0.4,0.8-0.7,1.3-0.9c0.5-0.2,1.1-0.3,1.7-0.3
			c0.6,0,1.2,0.1,1.8,0.3s1,0.5,1.3,0.9c0.4,0.4,0.7,0.8,0.9,1.4s0.3,1.1,0.3,1.8s-0.1,1.2-0.3,1.8s-0.5,1-0.9,1.4
			c-0.4,0.4-0.8,0.7-1.3,0.9s-1.1,0.3-1.8,0.3c-0.6,0-1.2-0.1-1.7-0.3c-0.5-0.2-1-0.5-1.3-0.9c-0.4-0.4-0.7-0.8-0.9-1.4
			C273.8,8.7,273.7,8.1,273.7,7.5z M276,7.5c0,0.3,0,0.6,0.1,1c0.1,0.3,0.2,0.6,0.3,0.8c0.2,0.2,0.4,0.4,0.6,0.6
			c0.3,0.1,0.6,0.2,1,0.2c0.4,0,0.7-0.1,1-0.2c0.3-0.1,0.5-0.3,0.6-0.6c0.2-0.2,0.3-0.5,0.3-0.8c0.1-0.3,0.1-0.6,0.1-1
			c0-0.3,0-0.7-0.1-1s-0.2-0.6-0.3-0.8s-0.4-0.4-0.6-0.6c-0.3-0.2-0.6-0.2-1-0.2c-0.4,0-0.7,0.1-1,0.2s-0.5,0.4-0.6,0.6
			c-0.2,0.2-0.3,0.5-0.3,0.8S276,7.1,276,7.5z M278.3,2.3h-1.6l1.5-2.3h2.5L278.3,2.3z"/>
		<path class="st0" d="M291.8,11c0,0.2,0,0.5-0.1,0.7c0,0.3-0.1,0.5-0.2,0.8c-0.1,0.3-0.3,0.5-0.4,0.8c-0.2,0.2-0.4,0.5-0.8,0.7
			c-0.3,0.2-0.7,0.4-1.2,0.5c-0.5,0.1-1,0.2-1.6,0.2c-0.4,0-0.8,0-1.2-0.2c-0.4-0.1-0.8-0.3-1.1-0.5c-0.3-0.2-0.6-0.5-0.9-0.8
			S284,12.5,284,12h2.2c0.1,0.4,0.3,0.7,0.6,0.9c0.3,0.2,0.7,0.2,1.1,0.2c0.6,0,1.1-0.2,1.4-0.6c0.3-0.4,0.4-0.9,0.4-1.5v-1.1h0
			c-0.2,0.4-0.6,0.8-1,1c-0.5,0.2-0.9,0.3-1.4,0.3c-0.6,0-1.1-0.1-1.6-0.3c-0.4-0.2-0.8-0.5-1.1-0.9c-0.3-0.4-0.5-0.8-0.6-1.3
			s-0.2-1-0.2-1.6c0-0.5,0.1-1,0.2-1.5c0.2-0.5,0.4-0.9,0.7-1.3s0.7-0.7,1.1-0.9c0.4-0.2,0.9-0.3,1.5-0.3c0.5,0,1,0.1,1.4,0.3
			s0.7,0.5,1,1h0V3.4h2.1V11z M287.8,9.6c0.3,0,0.6-0.1,0.8-0.2c0.2-0.1,0.4-0.3,0.6-0.5c0.2-0.2,0.3-0.5,0.4-0.7s0.1-0.6,0.1-0.8
			c0-0.3,0-0.6-0.1-1s-0.2-0.6-0.3-0.8c-0.1-0.2-0.3-0.4-0.6-0.6c-0.2-0.1-0.6-0.2-0.9-0.2c-0.3,0-0.6,0.1-0.8,0.2
			c-0.2,0.1-0.4,0.3-0.6,0.5s-0.3,0.5-0.3,0.7C286,6.6,286,6.9,286,7.2c0,0.3,0,0.6,0.1,0.9c0.1,0.3,0.2,0.6,0.3,0.8
			s0.3,0.4,0.6,0.6C287.1,9.6,287.4,9.6,287.8,9.6z"/>
		<path class="st0" d="M296.3,2.1H294V0.2h2.3V2.1z M294,3.4h2.3v8.2H294V3.4z"/>
		<path class="st0" d="M304,6.2c-0.1-0.9-0.7-1.4-1.7-1.4c-0.4,0-0.7,0.1-0.9,0.2c-0.2,0.2-0.4,0.4-0.6,0.6
			c-0.2,0.3-0.3,0.5-0.3,0.9c-0.1,0.3-0.1,0.6-0.1,0.9c0,0.3,0,0.6,0.1,0.9s0.2,0.6,0.3,0.8c0.1,0.2,0.3,0.5,0.6,0.6
			s0.5,0.2,0.9,0.2c0.5,0,0.9-0.2,1.2-0.5c0.3-0.3,0.5-0.7,0.6-1.2h2.2c-0.1,1.1-0.6,1.9-1.3,2.5c-0.7,0.6-1.6,0.9-2.7,0.9
			c-0.6,0-1.2-0.1-1.7-0.3s-0.9-0.5-1.3-0.9c-0.4-0.4-0.6-0.8-0.8-1.3c-0.2-0.5-0.3-1.1-0.3-1.7c0-0.6,0.1-1.2,0.3-1.8
			c0.2-0.5,0.5-1,0.8-1.4s0.8-0.7,1.3-0.9c0.5-0.2,1.1-0.3,1.8-0.3c0.5,0,1,0.1,1.4,0.2s0.8,0.3,1.2,0.6s0.6,0.6,0.9,1
			c0.2,0.4,0.4,0.8,0.4,1.4H304z"/>
		<path class="st0" d="M307.5,7.5c0-0.7,0.1-1.3,0.3-1.8c0.2-0.5,0.5-1,0.9-1.4c0.4-0.4,0.8-0.7,1.3-0.9c0.5-0.2,1.1-0.3,1.7-0.3
			c0.6,0,1.2,0.1,1.8,0.3s1,0.5,1.3,0.9c0.4,0.4,0.7,0.8,0.9,1.4s0.3,1.1,0.3,1.8s-0.1,1.2-0.3,1.8s-0.5,1-0.9,1.4
			c-0.4,0.4-0.8,0.7-1.3,0.9s-1.1,0.3-1.8,0.3c-0.6,0-1.2-0.1-1.7-0.3c-0.5-0.2-1-0.5-1.3-0.9c-0.4-0.4-0.7-0.8-0.9-1.4
			C307.7,8.7,307.5,8.1,307.5,7.5z M309.8,7.5c0,0.3,0,0.6,0.1,1c0.1,0.3,0.2,0.6,0.3,0.8c0.2,0.2,0.4,0.4,0.6,0.6
			c0.3,0.1,0.6,0.2,1,0.2c0.4,0,0.7-0.1,1-0.2c0.3-0.1,0.5-0.3,0.6-0.6c0.2-0.2,0.3-0.5,0.3-0.8c0.1-0.3,0.1-0.6,0.1-1
			c0-0.3,0-0.7-0.1-1s-0.2-0.6-0.3-0.8s-0.4-0.4-0.6-0.6c-0.3-0.2-0.6-0.2-1-0.2c-0.4,0-0.7,0.1-1,0.2s-0.5,0.4-0.6,0.6
			c-0.2,0.2-0.3,0.5-0.3,0.8S309.8,7.1,309.8,7.5z"/>
		<path class="st0" d="M324.9,2.1h-2.3V0.2h2.3V2.1z M322.6,3.4h2.3v8.2h-2.3V3.4z"/>
		<path class="st0" d="M326.9,3.4h2.1v1.1h0c0.3-0.5,0.7-0.8,1.1-1c0.5-0.2,0.9-0.3,1.4-0.3c0.6,0,1.1,0.1,1.5,0.2
			c0.4,0.2,0.7,0.4,0.9,0.7c0.2,0.3,0.4,0.6,0.5,1.1c0.1,0.4,0.1,0.9,0.1,1.4v5h-2.3V6.9c0-0.7-0.1-1.2-0.3-1.5
			c-0.2-0.3-0.6-0.5-1.1-0.5c-0.6,0-1.1,0.2-1.3,0.5c-0.3,0.4-0.4,1-0.4,1.8v4.3h-2.3V3.4z"/>
		<path class="st0" d="M336.7,3.4h2.1v1.1h0c0.3-0.5,0.7-0.8,1.1-1c0.5-0.2,0.9-0.3,1.4-0.3c0.6,0,1.1,0.1,1.5,0.2
			c0.4,0.2,0.7,0.4,0.9,0.7c0.2,0.3,0.4,0.6,0.5,1.1c0.1,0.4,0.1,0.9,0.1,1.4v5h-2.3V6.9c0-0.7-0.1-1.2-0.3-1.5
			c-0.2-0.3-0.6-0.5-1.1-0.5c-0.6,0-1.1,0.2-1.3,0.5c-0.3,0.4-0.4,1-0.4,1.8v4.3h-2.3V3.4z"/>
		<path class="st0" d="M346.1,7.5c0-0.7,0.1-1.3,0.3-1.8c0.2-0.5,0.5-1,0.9-1.4c0.4-0.4,0.8-0.7,1.3-0.9c0.5-0.2,1.1-0.3,1.7-0.3
			c0.6,0,1.2,0.1,1.8,0.3s1,0.5,1.3,0.9c0.4,0.4,0.7,0.8,0.9,1.4s0.3,1.1,0.3,1.8s-0.1,1.2-0.3,1.8s-0.5,1-0.9,1.4
			c-0.4,0.4-0.8,0.7-1.3,0.9s-1.1,0.3-1.8,0.3c-0.6,0-1.2-0.1-1.7-0.3c-0.5-0.2-1-0.5-1.3-0.9c-0.4-0.4-0.7-0.8-0.9-1.4
			C346.2,8.7,346.1,8.1,346.1,7.5z M348.4,7.5c0,0.3,0,0.6,0.1,1c0.1,0.3,0.2,0.6,0.3,0.8c0.2,0.2,0.4,0.4,0.6,0.6
			c0.3,0.1,0.6,0.2,1,0.2c0.4,0,0.7-0.1,1-0.2c0.3-0.1,0.5-0.3,0.6-0.6c0.2-0.2,0.3-0.5,0.3-0.8c0.1-0.3,0.1-0.6,0.1-1
			c0-0.3,0-0.7-0.1-1s-0.2-0.6-0.3-0.8s-0.4-0.4-0.6-0.6c-0.3-0.2-0.6-0.2-1-0.2c-0.4,0-0.7,0.1-1,0.2s-0.5,0.4-0.6,0.6
			c-0.2,0.2-0.3,0.5-0.3,0.8S348.4,7.1,348.4,7.5z"/>
		<path class="st0" d="M360.9,11.6h-2.5l-2.8-8.2h2.4l1.7,5.6h0l1.7-5.6h2.2L360.9,11.6z"/>
		<path class="st0" d="M364.9,5.9c0-0.5,0.2-1,0.4-1.3c0.2-0.3,0.5-0.6,0.9-0.8c0.4-0.2,0.8-0.4,1.2-0.5c0.4-0.1,0.9-0.1,1.4-0.1
			c0.4,0,0.8,0,1.3,0.1c0.4,0.1,0.8,0.2,1.2,0.3c0.3,0.2,0.6,0.4,0.9,0.7c0.2,0.3,0.3,0.7,0.3,1.2v4.3c0,0.4,0,0.7,0.1,1.1
			c0,0.3,0.1,0.6,0.2,0.8h-2.3c0-0.1-0.1-0.3-0.1-0.4c0-0.1,0-0.3-0.1-0.4c-0.4,0.4-0.8,0.6-1.3,0.8c-0.5,0.2-1,0.2-1.5,0.2
			c-0.4,0-0.8,0-1.1-0.2c-0.3-0.1-0.6-0.3-0.9-0.5c-0.3-0.2-0.5-0.5-0.6-0.8s-0.2-0.7-0.2-1.1c0-0.5,0.1-0.8,0.2-1.1
			c0.2-0.3,0.4-0.5,0.6-0.7c0.3-0.2,0.6-0.3,0.9-0.4c0.3-0.1,0.7-0.2,1-0.2c0.3-0.1,0.7-0.1,1-0.1c0.3,0,0.6-0.1,0.8-0.1
			s0.4-0.2,0.6-0.3c0.1-0.1,0.2-0.3,0.2-0.5c0-0.2,0-0.4-0.1-0.6c-0.1-0.1-0.2-0.3-0.3-0.3c-0.1-0.1-0.3-0.1-0.5-0.2
			c-0.2,0-0.4,0-0.6,0c-0.4,0-0.8,0.1-1,0.3c-0.3,0.2-0.4,0.5-0.5,1H364.9z M370.1,7.5c-0.1,0.1-0.2,0.2-0.4,0.2s-0.3,0.1-0.5,0.1
			c-0.2,0-0.3,0.1-0.5,0.1c-0.2,0-0.4,0-0.5,0.1c-0.2,0-0.3,0.1-0.5,0.1c-0.2,0.1-0.3,0.1-0.4,0.2c-0.1,0.1-0.2,0.2-0.3,0.3
			c-0.1,0.1-0.1,0.3-0.1,0.5c0,0.2,0,0.4,0.1,0.5c0.1,0.1,0.2,0.2,0.3,0.3s0.3,0.1,0.4,0.2c0.2,0,0.3,0,0.5,0c0.4,0,0.8-0.1,1-0.2
			c0.2-0.1,0.4-0.3,0.5-0.5c0.1-0.2,0.2-0.4,0.2-0.6c0-0.2,0-0.4,0-0.5V7.5z"/>
		<path class="st0" d="M380.2,10.5L380.2,10.5c-0.3,0.4-0.6,0.8-1.1,1c-0.4,0.2-0.9,0.3-1.4,0.3c-0.6,0-1.2-0.1-1.6-0.4
			s-0.8-0.6-1.1-1c-0.3-0.4-0.5-0.9-0.7-1.4S374,8,374,7.4c0-0.5,0.1-1.1,0.2-1.6s0.4-1,0.7-1.4c0.3-0.4,0.7-0.7,1.1-0.9
			c0.5-0.2,1-0.4,1.6-0.4c0.5,0,0.9,0.1,1.4,0.3c0.4,0.2,0.8,0.5,1,0.9h0V0.2h2.3v11.3h-2.1V10.5z M380.2,7.4c0-0.3,0-0.6-0.1-1
			s-0.2-0.6-0.3-0.8c-0.2-0.2-0.4-0.4-0.6-0.6c-0.2-0.1-0.6-0.2-0.9-0.2c-0.4,0-0.7,0.1-0.9,0.2c-0.3,0.1-0.5,0.3-0.6,0.6
			c-0.2,0.2-0.3,0.5-0.3,0.8c-0.1,0.3-0.1,0.6-0.1,1c0,0.3,0,0.6,0.1,1c0.1,0.3,0.2,0.6,0.4,0.8c0.2,0.2,0.4,0.4,0.6,0.6
			c0.2,0.2,0.5,0.2,0.9,0.2c0.4,0,0.7-0.1,0.9-0.2c0.2-0.1,0.4-0.3,0.6-0.6c0.1-0.2,0.3-0.5,0.3-0.8C380.2,8.1,380.2,7.8,380.2,7.4z
			"/>
		<path class="st0" d="M384.1,7.5c0-0.7,0.1-1.3,0.3-1.8c0.2-0.5,0.5-1,0.9-1.4c0.4-0.4,0.8-0.7,1.3-0.9c0.5-0.2,1.1-0.3,1.7-0.3
			c0.6,0,1.2,0.1,1.8,0.3s1,0.5,1.3,0.9c0.4,0.4,0.7,0.8,0.9,1.4s0.3,1.1,0.3,1.8s-0.1,1.2-0.3,1.8s-0.5,1-0.9,1.4
			c-0.4,0.4-0.8,0.7-1.3,0.9s-1.1,0.3-1.8,0.3c-0.6,0-1.2-0.1-1.7-0.3c-0.5-0.2-1-0.5-1.3-0.9c-0.4-0.4-0.7-0.8-0.9-1.4
			C384.2,8.7,384.1,8.1,384.1,7.5z M386.4,7.5c0,0.3,0,0.6,0.1,1c0.1,0.3,0.2,0.6,0.3,0.8c0.2,0.2,0.4,0.4,0.6,0.6
			c0.3,0.1,0.6,0.2,1,0.2c0.4,0,0.7-0.1,1-0.2c0.3-0.1,0.5-0.3,0.6-0.6c0.2-0.2,0.3-0.5,0.3-0.8c0.1-0.3,0.1-0.6,0.1-1
			c0-0.3,0-0.7-0.1-1s-0.2-0.6-0.3-0.8s-0.4-0.4-0.6-0.6c-0.3-0.2-0.6-0.2-1-0.2c-0.4,0-0.7,0.1-1,0.2s-0.5,0.4-0.6,0.6
			c-0.2,0.2-0.3,0.5-0.3,0.8S386.4,7.1,386.4,7.5z"/>
		<path class="st0" d="M394.4,3.4h2.1v1.5h0c0.1-0.3,0.2-0.5,0.4-0.7s0.4-0.4,0.6-0.6s0.5-0.3,0.8-0.4c0.3-0.1,0.5-0.1,0.8-0.1
			c0.2,0,0.3,0,0.5,0.1v2.1c-0.1,0-0.2,0-0.4-0.1c-0.1,0-0.3,0-0.4,0c-0.4,0-0.8,0.1-1,0.2c-0.3,0.1-0.5,0.3-0.7,0.6
			c-0.2,0.2-0.3,0.5-0.4,0.8c-0.1,0.3-0.1,0.7-0.1,1v3.7h-2.3V3.4z"/>
		<path class="st1" d="M412,11.6V10h0c-0.1,0.3-0.3,0.5-0.5,0.7c-0.2,0.2-0.4,0.4-0.7,0.6c-0.3,0.2-0.5,0.3-0.8,0.4
			c-0.3,0.1-0.6,0.1-0.9,0.1c-0.6,0-1.2-0.1-1.6-0.3c-0.5-0.2-0.8-0.5-1.1-0.9s-0.5-0.9-0.7-1.4c-0.1-0.5-0.2-1.1-0.2-1.7
			c0-0.6,0.1-1.1,0.2-1.7c0.1-0.5,0.4-1,0.7-1.4s0.7-0.7,1.1-0.9s1-0.3,1.6-0.3c0.3,0,0.6,0,0.9,0.1c0.3,0.1,0.6,0.2,0.8,0.3
			s0.5,0.3,0.7,0.6c0.2,0.2,0.3,0.5,0.5,0.8h0V0.2h1v11.3H412z M406.5,8.7c0.1,0.4,0.3,0.8,0.5,1.1c0.2,0.3,0.5,0.6,0.8,0.8
			c0.3,0.2,0.7,0.3,1.2,0.3c0.5,0,1-0.1,1.3-0.3c0.4-0.2,0.7-0.5,0.9-0.8c0.2-0.3,0.4-0.7,0.5-1.1c0.1-0.4,0.2-0.8,0.2-1.3
			s0-0.8-0.2-1.3s-0.3-0.8-0.5-1.1c-0.2-0.3-0.5-0.6-0.9-0.8C410,4.1,409.6,4,409,4c-0.5,0-0.9,0.1-1.2,0.3
			c-0.3,0.2-0.6,0.5-0.8,0.8s-0.4,0.7-0.5,1.1c-0.1,0.4-0.2,0.8-0.2,1.3S406.4,8.3,406.5,8.7z"/>
		<path class="st1" d="M415.9,8.9c0.1,0.4,0.3,0.7,0.5,1s0.5,0.6,0.8,0.8c0.3,0.2,0.7,0.3,1.2,0.3c0.7,0,1.3-0.2,1.7-0.6
			s0.7-0.9,0.9-1.5h1c-0.2,0.9-0.6,1.6-1.2,2.2c-0.6,0.5-1.4,0.8-2.4,0.8c-0.6,0-1.2-0.1-1.7-0.3c-0.5-0.2-0.9-0.5-1.2-0.9
			s-0.5-0.9-0.7-1.4c-0.1-0.5-0.2-1.1-0.2-1.7c0-0.5,0.1-1.1,0.2-1.6c0.1-0.5,0.4-1,0.7-1.4s0.7-0.7,1.2-1c0.5-0.2,1-0.4,1.7-0.4
			c0.7,0,1.2,0.1,1.7,0.4c0.5,0.3,0.8,0.6,1.1,1c0.3,0.4,0.5,0.9,0.6,1.5c0.1,0.6,0.2,1.1,0.2,1.7h-6.3
			C415.7,8.1,415.8,8.5,415.9,8.9z M420.8,5.8c-0.1-0.3-0.3-0.7-0.5-0.9c-0.2-0.3-0.5-0.5-0.8-0.7c-0.3-0.2-0.7-0.2-1.1-0.2
			c-0.4,0-0.8,0.1-1.1,0.2c-0.3,0.2-0.6,0.4-0.8,0.7c-0.2,0.3-0.4,0.6-0.5,0.9c-0.1,0.4-0.2,0.7-0.3,1.1h5.3
			C421,6.5,420.9,6.2,420.8,5.8z"/>
		<path class="st1" d="M429.3,3.4v1.6h0c0.2-0.6,0.6-1,1.1-1.3c0.5-0.3,1.1-0.5,1.8-0.5c0.6,0,1.2,0.1,1.6,0.3s0.8,0.5,1.1,0.9
			s0.5,0.9,0.7,1.4c0.1,0.5,0.2,1.1,0.2,1.7c0,0.6-0.1,1.1-0.2,1.7c-0.1,0.5-0.4,1-0.7,1.4s-0.7,0.7-1.1,0.9c-0.5,0.2-1,0.3-1.6,0.3
			c-0.3,0-0.6,0-0.9-0.1c-0.3-0.1-0.6-0.2-0.8-0.3c-0.3-0.1-0.5-0.3-0.7-0.6c-0.2-0.2-0.3-0.5-0.5-0.8h0v4.6h-1V3.4H429.3z
			 M434.8,6.2c-0.1-0.4-0.3-0.8-0.5-1.1s-0.5-0.6-0.8-0.8c-0.3-0.2-0.7-0.3-1.2-0.3c-0.5,0-1,0.1-1.4,0.3c-0.4,0.2-0.7,0.4-0.9,0.8
			c-0.2,0.3-0.4,0.7-0.5,1.1c-0.1,0.4-0.1,0.9-0.1,1.3c0,0.4,0,0.8,0.2,1.3c0.1,0.4,0.3,0.8,0.5,1.1c0.2,0.3,0.5,0.6,0.9,0.8
			c0.4,0.2,0.8,0.3,1.3,0.3c0.5,0,0.9-0.1,1.2-0.3c0.3-0.2,0.6-0.5,0.8-0.8c0.2-0.3,0.4-0.7,0.5-1.1c0.1-0.4,0.2-0.8,0.2-1.3
			S434.9,6.6,434.8,6.2z"/>
		<path class="st1" d="M438.7,3.4v1.9h0c0.3-0.7,0.6-1.2,1.2-1.5c0.5-0.4,1.2-0.5,1.9-0.5v1c-0.5,0-0.9,0-1.2,0.2s-0.7,0.3-1,0.6
			c-0.3,0.3-0.5,0.6-0.6,0.9c-0.1,0.4-0.2,0.8-0.2,1.2v4.4h-1V3.4H438.7z"/>
		<path class="st1" d="M444.1,0.2v1.6h-1V0.2H444.1z M444.1,3.4v8.2h-1V3.4H444.1z"/>
		<path class="st1" d="M447.3,3.4v1.4h0c0.3-0.5,0.6-0.9,1-1.2c0.4-0.3,1-0.4,1.6-0.4c0.5,0,1,0.1,1.5,0.4c0.4,0.3,0.7,0.7,0.9,1.2
			c0.2-0.5,0.6-0.9,1.1-1.2c0.5-0.3,1-0.4,1.5-0.4c1.8,0,2.7,1,2.7,2.9v5.6h-1V6.1c0-0.7-0.1-1.2-0.4-1.5C456,4.2,455.5,4,454.8,4
			c-0.4,0-0.8,0.1-1.1,0.2s-0.5,0.4-0.7,0.7c-0.2,0.3-0.3,0.6-0.4,0.9c-0.1,0.4-0.1,0.7-0.1,1.1v4.6h-1V6c0-0.3,0-0.5-0.1-0.8
			c-0.1-0.2-0.2-0.5-0.3-0.7c-0.1-0.2-0.3-0.3-0.5-0.4C450.4,4,450.1,4,449.8,4c-0.4,0-0.8,0.1-1.1,0.2c-0.3,0.2-0.6,0.4-0.8,0.6
			c-0.2,0.3-0.3,0.6-0.4,1c-0.1,0.4-0.1,0.8-0.1,1.2v4.6h-1V3.4H447.3z"/>
		<path class="st1" d="M460.7,8.9c0.1,0.4,0.3,0.7,0.5,1s0.5,0.6,0.8,0.8c0.3,0.2,0.7,0.3,1.2,0.3c0.7,0,1.3-0.2,1.7-0.6
			s0.7-0.9,0.9-1.5h1c-0.2,0.9-0.6,1.6-1.2,2.2c-0.6,0.5-1.4,0.8-2.4,0.8c-0.6,0-1.2-0.1-1.7-0.3c-0.5-0.2-0.9-0.5-1.2-0.9
			s-0.5-0.9-0.7-1.4c-0.1-0.5-0.2-1.1-0.2-1.7c0-0.5,0.1-1.1,0.2-1.6c0.1-0.5,0.4-1,0.7-1.4s0.7-0.7,1.2-1c0.5-0.2,1-0.4,1.7-0.4
			c0.7,0,1.2,0.1,1.7,0.4c0.5,0.3,0.8,0.6,1.1,1c0.3,0.4,0.5,0.9,0.6,1.5c0.1,0.6,0.2,1.1,0.2,1.7h-6.3
			C460.5,8.1,460.6,8.5,460.7,8.9z M465.6,5.8c-0.1-0.3-0.3-0.7-0.5-0.9c-0.2-0.3-0.5-0.5-0.8-0.7C464,4.1,463.6,4,463.2,4
			c-0.4,0-0.8,0.1-1.1,0.2c-0.3,0.2-0.6,0.4-0.8,0.7c-0.2,0.3-0.4,0.6-0.5,0.9c-0.1,0.4-0.2,0.7-0.3,1.1h5.3
			C465.8,6.5,465.7,6.2,465.6,5.8z"/>
		<path class="st1" d="M469.4,3.4v1.9h0c0.3-0.7,0.6-1.2,1.2-1.5c0.5-0.4,1.2-0.5,1.9-0.5v1c-0.5,0-0.9,0-1.2,0.2s-0.7,0.3-1,0.6
			c-0.3,0.3-0.5,0.6-0.6,0.9c-0.1,0.4-0.2,0.8-0.2,1.2v4.4h-1V3.4H469.4z"/>
		<path class="st1" d="M474,4.6c0.2-0.3,0.4-0.6,0.7-0.9c0.3-0.2,0.6-0.4,1-0.5c0.4-0.1,0.8-0.2,1.3-0.2c0.4,0,0.7,0,1.1,0.1
			c0.4,0.1,0.7,0.2,1,0.4c0.3,0.2,0.5,0.5,0.7,0.8s0.3,0.8,0.3,1.3v4.3c0,0.4,0.2,0.6,0.6,0.6c0.1,0,0.2,0,0.3-0.1v0.8
			c-0.1,0-0.2,0-0.3,0s-0.2,0-0.3,0c-0.3,0-0.5,0-0.6-0.1c-0.2-0.1-0.3-0.2-0.4-0.3s-0.1-0.3-0.2-0.5c0-0.2,0-0.4,0-0.6h0
			c-0.2,0.3-0.4,0.5-0.5,0.7s-0.4,0.4-0.6,0.5s-0.5,0.2-0.8,0.3c-0.3,0.1-0.6,0.1-1,0.1c-0.4,0-0.7,0-1.1-0.1s-0.6-0.2-0.9-0.4
			c-0.2-0.2-0.4-0.4-0.6-0.7c-0.1-0.3-0.2-0.7-0.2-1.1c0-0.6,0.1-1,0.4-1.3c0.3-0.3,0.6-0.6,1-0.7c0.4-0.2,0.9-0.3,1.4-0.4
			c0.5-0.1,1.1-0.1,1.6-0.2c0.2,0,0.4,0,0.6-0.1c0.2,0,0.3-0.1,0.4-0.2c0.1-0.1,0.2-0.2,0.2-0.3c0.1-0.1,0.1-0.3,0.1-0.5
			c0-0.3-0.1-0.6-0.2-0.8c-0.1-0.2-0.3-0.4-0.5-0.5s-0.4-0.2-0.7-0.3S477.2,4,476.9,4c-0.6,0-1.2,0.2-1.6,0.5
			c-0.4,0.3-0.6,0.8-0.6,1.5h-1C473.7,5.4,473.8,5,474,4.6z M479,7.1c-0.1,0.1-0.2,0.2-0.4,0.3s-0.3,0.1-0.5,0.1
			c-0.4,0.1-0.9,0.1-1.3,0.2c-0.5,0.1-0.9,0.1-1.2,0.3s-0.7,0.3-0.9,0.5c-0.2,0.2-0.4,0.5-0.4,0.9c0,0.3,0,0.5,0.2,0.7
			c0.1,0.2,0.2,0.4,0.4,0.5s0.4,0.3,0.6,0.3c0.2,0.1,0.4,0.1,0.7,0.1c0.4,0,0.7-0.1,1.1-0.2s0.7-0.3,0.9-0.5
			c0.3-0.2,0.5-0.5,0.6-0.8s0.2-0.7,0.2-1.1L479,7.1L479,7.1z"/>
		<path class="st1" d="M488.1,0.2v11.3h-1V0.2H488.1z"/>
		<path class="st1" d="M489.9,2.2l1.7-2.2h1.2l-2.1,2.2H489.9z M490.3,3.4h1v8.2h-1V3.4z"/>
		<path class="st1" d="M494.5,3.4v1.4h0c0.2-0.5,0.5-0.9,1-1.2c0.5-0.3,1-0.5,1.6-0.5c0.6,0,1,0.1,1.4,0.2c0.4,0.1,0.7,0.4,0.9,0.6
			s0.4,0.6,0.5,1c0.1,0.4,0.1,0.8,0.1,1.3v5.3h-1V6.5c0-0.3,0-0.7-0.1-1c-0.1-0.3-0.2-0.6-0.3-0.8c-0.2-0.2-0.4-0.4-0.6-0.5
			c-0.3-0.1-0.6-0.2-1-0.2c-0.4,0-0.8,0.1-1.1,0.2s-0.6,0.3-0.8,0.6c-0.2,0.2-0.4,0.5-0.5,0.9c-0.1,0.3-0.2,0.7-0.2,1.1v4.8h-1V3.4
			H494.5z"/>
		<path class="st1" d="M503.1,8.9c0.1,0.4,0.3,0.7,0.5,1s0.5,0.6,0.8,0.8c0.3,0.2,0.7,0.3,1.2,0.3c0.7,0,1.3-0.2,1.7-0.6
			s0.7-0.9,0.9-1.5h1c-0.2,0.9-0.6,1.6-1.2,2.2c-0.6,0.5-1.4,0.8-2.4,0.8c-0.6,0-1.2-0.1-1.7-0.3c-0.5-0.2-0.9-0.5-1.2-0.9
			s-0.5-0.9-0.7-1.4C502,8.6,502,8.1,502,7.5c0-0.5,0.1-1.1,0.2-1.6c0.1-0.5,0.4-1,0.7-1.4s0.7-0.7,1.2-1c0.5-0.2,1-0.4,1.7-0.4
			c0.7,0,1.2,0.1,1.7,0.4c0.5,0.3,0.8,0.6,1.1,1c0.3,0.4,0.5,0.9,0.6,1.5c0.1,0.6,0.2,1.1,0.2,1.7H503C503,8.1,503,8.5,503.1,8.9z
			 M508.1,5.8c-0.1-0.3-0.3-0.7-0.5-0.9c-0.2-0.3-0.5-0.5-0.8-0.7c-0.3-0.2-0.7-0.2-1.1-0.2c-0.4,0-0.8,0.1-1.1,0.2
			c-0.3,0.2-0.6,0.4-0.8,0.7c-0.2,0.3-0.4,0.6-0.5,0.9c-0.1,0.4-0.2,0.7-0.3,1.1h5.3C508.3,6.5,508.2,6.2,508.1,5.8z"/>
		<path class="st1" d="M511.1,4.6c0.2-0.3,0.4-0.6,0.7-0.9c0.3-0.2,0.6-0.4,1-0.5c0.4-0.1,0.8-0.2,1.3-0.2c0.4,0,0.7,0,1.1,0.1
			c0.4,0.1,0.7,0.2,1,0.4c0.3,0.2,0.5,0.5,0.7,0.8s0.3,0.8,0.3,1.3v4.3c0,0.4,0.2,0.6,0.6,0.6c0.1,0,0.2,0,0.3-0.1v0.8
			c-0.1,0-0.2,0-0.3,0s-0.2,0-0.3,0c-0.3,0-0.5,0-0.6-0.1c-0.2-0.1-0.3-0.2-0.4-0.3s-0.1-0.3-0.2-0.5c0-0.2,0-0.4,0-0.6h0
			c-0.2,0.3-0.4,0.5-0.5,0.7s-0.4,0.4-0.6,0.5s-0.5,0.2-0.8,0.3c-0.3,0.1-0.6,0.1-1,0.1c-0.4,0-0.7,0-1.1-0.1s-0.6-0.2-0.9-0.4
			c-0.2-0.2-0.4-0.4-0.6-0.7c-0.1-0.3-0.2-0.7-0.2-1.1c0-0.6,0.1-1,0.4-1.3c0.3-0.3,0.6-0.6,1-0.7c0.4-0.2,0.9-0.3,1.4-0.4
			c0.5-0.1,1.1-0.1,1.6-0.2c0.2,0,0.4,0,0.6-0.1c0.2,0,0.3-0.1,0.4-0.2c0.1-0.1,0.2-0.2,0.2-0.3c0.1-0.1,0.1-0.3,0.1-0.5
			c0-0.3-0.1-0.6-0.2-0.8c-0.1-0.2-0.3-0.4-0.5-0.5s-0.4-0.2-0.7-0.3S514.3,4,514,4c-0.6,0-1.2,0.2-1.6,0.5
			c-0.4,0.3-0.6,0.8-0.6,1.5h-1C510.9,5.4,511,5,511.1,4.6z M516.1,7.1c-0.1,0.1-0.2,0.2-0.4,0.3s-0.3,0.1-0.5,0.1
			c-0.4,0.1-0.9,0.1-1.3,0.2c-0.5,0.1-0.9,0.1-1.2,0.3s-0.7,0.3-0.9,0.5c-0.2,0.2-0.4,0.5-0.4,0.9c0,0.3,0,0.5,0.2,0.7
			c0.1,0.2,0.2,0.4,0.4,0.5s0.4,0.3,0.6,0.3c0.2,0.1,0.4,0.1,0.7,0.1c0.4,0,0.7-0.1,1.1-0.2s0.7-0.3,0.9-0.5
			c0.3-0.2,0.5-0.5,0.6-0.8s0.2-0.7,0.2-1.1L516.1,7.1L516.1,7.1z"/>
		<path class="st1" d="M525.1,3.4v1.6h0c0.2-0.6,0.6-1,1.1-1.3c0.5-0.3,1.1-0.5,1.8-0.5c0.6,0,1.2,0.1,1.6,0.3s0.8,0.5,1.1,0.9
			s0.5,0.9,0.7,1.4c0.1,0.5,0.2,1.1,0.2,1.7c0,0.6-0.1,1.1-0.2,1.7c-0.1,0.5-0.4,1-0.7,1.4s-0.7,0.7-1.1,0.9c-0.5,0.2-1,0.3-1.6,0.3
			c-0.3,0-0.6,0-0.9-0.1c-0.3-0.1-0.6-0.2-0.8-0.3c-0.3-0.1-0.5-0.3-0.7-0.6c-0.2-0.2-0.3-0.5-0.5-0.8h0v4.6h-1V3.4H525.1z
			 M530.6,6.2c-0.1-0.4-0.3-0.8-0.5-1.1s-0.5-0.6-0.8-0.8C529,4.1,528.6,4,528.1,4c-0.5,0-1,0.1-1.4,0.3c-0.4,0.2-0.7,0.4-0.9,0.8
			c-0.2,0.3-0.4,0.7-0.5,1.1c-0.1,0.4-0.1,0.9-0.1,1.3c0,0.4,0,0.8,0.2,1.3c0.1,0.4,0.3,0.8,0.5,1.1c0.2,0.3,0.5,0.6,0.9,0.8
			c0.4,0.2,0.8,0.3,1.3,0.3c0.5,0,0.9-0.1,1.2-0.3c0.3-0.2,0.6-0.5,0.8-0.8c0.2-0.3,0.4-0.7,0.5-1.1c0.1-0.4,0.2-0.8,0.2-1.3
			S530.7,6.6,530.6,6.2z"/>
		<path class="st1" d="M533.8,4.6c0.2-0.3,0.4-0.6,0.7-0.9c0.3-0.2,0.6-0.4,1-0.5c0.4-0.1,0.8-0.2,1.3-0.2c0.4,0,0.7,0,1.1,0.1
			c0.4,0.1,0.7,0.2,1,0.4c0.3,0.2,0.5,0.5,0.7,0.8s0.3,0.8,0.3,1.3v4.3c0,0.4,0.2,0.6,0.6,0.6c0.1,0,0.2,0,0.3-0.1v0.8
			c-0.1,0-0.2,0-0.3,0s-0.2,0-0.3,0c-0.3,0-0.5,0-0.6-0.1c-0.2-0.1-0.3-0.2-0.4-0.3s-0.1-0.3-0.2-0.5c0-0.2,0-0.4,0-0.6h0
			c-0.2,0.3-0.4,0.5-0.5,0.7s-0.4,0.4-0.6,0.5s-0.5,0.2-0.8,0.3c-0.3,0.1-0.6,0.1-1,0.1c-0.4,0-0.7,0-1.1-0.1s-0.6-0.2-0.9-0.4
			c-0.2-0.2-0.4-0.4-0.6-0.7c-0.1-0.3-0.2-0.7-0.2-1.1c0-0.6,0.1-1,0.4-1.3c0.3-0.3,0.6-0.6,1-0.7C535,7.2,535.5,7,536,7
			c0.5-0.1,1.1-0.1,1.6-0.2c0.2,0,0.4,0,0.6-0.1c0.2,0,0.3-0.1,0.4-0.2c0.1-0.1,0.2-0.2,0.2-0.3c0.1-0.1,0.1-0.3,0.1-0.5
			c0-0.3-0.1-0.6-0.2-0.8c-0.1-0.2-0.3-0.4-0.5-0.5s-0.4-0.2-0.7-0.3S537,4,536.7,4c-0.6,0-1.2,0.2-1.6,0.5
			c-0.4,0.3-0.6,0.8-0.6,1.5h-1C533.6,5.4,533.7,5,533.8,4.6z M538.8,7.1c-0.1,0.1-0.2,0.2-0.4,0.3s-0.3,0.1-0.5,0.1
			c-0.4,0.1-0.9,0.1-1.3,0.2c-0.5,0.1-0.9,0.1-1.2,0.3s-0.7,0.3-0.9,0.5c-0.2,0.2-0.4,0.5-0.4,0.9c0,0.3,0,0.5,0.2,0.7
			c0.1,0.2,0.2,0.4,0.4,0.5s0.4,0.3,0.6,0.3c0.2,0.1,0.4,0.1,0.7,0.1c0.4,0,0.7-0.1,1.1-0.2s0.7-0.3,0.9-0.5
			c0.3-0.2,0.5-0.5,0.6-0.8s0.2-0.7,0.2-1.1L538.8,7.1L538.8,7.1z"/>
		<path class="st1" d="M543.1,3.4v1.9h0c0.3-0.7,0.6-1.2,1.2-1.5c0.5-0.4,1.2-0.5,1.9-0.5v1c-0.5,0-0.9,0-1.2,0.2s-0.7,0.3-1,0.6
			c-0.3,0.3-0.5,0.6-0.6,0.9c-0.1,0.4-0.2,0.8-0.2,1.2v4.4h-1V3.4H543.1z"/>
		<path class="st1" d="M547.7,4.6c0.2-0.3,0.4-0.6,0.7-0.9c0.3-0.2,0.6-0.4,1-0.5c0.4-0.1,0.8-0.2,1.3-0.2c0.4,0,0.7,0,1.1,0.1
			c0.4,0.1,0.7,0.2,1,0.4c0.3,0.2,0.5,0.5,0.7,0.8s0.3,0.8,0.3,1.3v4.3c0,0.4,0.2,0.6,0.6,0.6c0.1,0,0.2,0,0.3-0.1v0.8
			c-0.1,0-0.2,0-0.3,0s-0.2,0-0.3,0c-0.3,0-0.5,0-0.6-0.1c-0.2-0.1-0.3-0.2-0.4-0.3s-0.1-0.3-0.2-0.5c0-0.2,0-0.4,0-0.6h0
			c-0.2,0.3-0.4,0.5-0.5,0.7s-0.4,0.4-0.6,0.5s-0.5,0.2-0.8,0.3c-0.3,0.1-0.6,0.1-1,0.1c-0.4,0-0.7,0-1.1-0.1s-0.6-0.2-0.9-0.4
			c-0.2-0.2-0.4-0.4-0.6-0.7c-0.1-0.3-0.2-0.7-0.2-1.1c0-0.6,0.1-1,0.4-1.3c0.3-0.3,0.6-0.6,1-0.7c0.4-0.2,0.9-0.3,1.4-0.4
			c0.5-0.1,1.1-0.1,1.6-0.2c0.2,0,0.4,0,0.6-0.1c0.2,0,0.3-0.1,0.4-0.2c0.1-0.1,0.2-0.2,0.2-0.3c0.1-0.1,0.1-0.3,0.1-0.5
			c0-0.3-0.1-0.6-0.2-0.8c-0.1-0.2-0.3-0.4-0.5-0.5s-0.4-0.2-0.7-0.3S550.9,4,550.6,4c-0.6,0-1.2,0.2-1.6,0.5
			c-0.4,0.3-0.6,0.8-0.6,1.5h-1C547.4,5.4,547.5,5,547.7,4.6z M552.7,7.1c-0.1,0.1-0.2,0.2-0.4,0.3s-0.3,0.1-0.5,0.1
			c-0.4,0.1-0.9,0.1-1.3,0.2c-0.5,0.1-0.9,0.1-1.2,0.3s-0.7,0.3-0.9,0.5c-0.2,0.2-0.4,0.5-0.4,0.9c0,0.3,0,0.5,0.2,0.7
			c0.1,0.2,0.2,0.4,0.4,0.5s0.4,0.3,0.6,0.3c0.2,0.1,0.4,0.1,0.7,0.1c0.4,0,0.7-0.1,1.1-0.2s0.7-0.3,0.9-0.5
			c0.3-0.2,0.5-0.5,0.6-0.8s0.2-0.7,0.2-1.1L552.7,7.1L552.7,7.1z"/>
		<path class="st1" d="M561.5,8.9c0.1,0.4,0.3,0.7,0.5,1s0.5,0.6,0.8,0.8c0.3,0.2,0.7,0.3,1.2,0.3c0.7,0,1.3-0.2,1.7-0.6
			s0.7-0.9,0.9-1.5h1c-0.2,0.9-0.6,1.6-1.2,2.2c-0.6,0.5-1.4,0.8-2.4,0.8c-0.6,0-1.2-0.1-1.7-0.3c-0.5-0.2-0.9-0.5-1.2-0.9
			s-0.5-0.9-0.7-1.4c-0.1-0.5-0.2-1.1-0.2-1.7c0-0.5,0.1-1.1,0.2-1.6c0.1-0.5,0.4-1,0.7-1.4s0.7-0.7,1.2-1c0.5-0.2,1-0.4,1.7-0.4
			c0.7,0,1.2,0.1,1.7,0.4c0.5,0.3,0.8,0.6,1.1,1c0.3,0.4,0.5,0.9,0.6,1.5c0.1,0.6,0.2,1.1,0.2,1.7h-6.3
			C561.4,8.1,561.4,8.5,561.5,8.9z M566.5,5.8c-0.1-0.3-0.3-0.7-0.5-0.9c-0.2-0.3-0.5-0.5-0.8-0.7C564.8,4.1,564.5,4,564,4
			c-0.4,0-0.8,0.1-1.1,0.2c-0.3,0.2-0.6,0.4-0.8,0.7c-0.2,0.3-0.4,0.6-0.5,0.9c-0.1,0.4-0.2,0.7-0.3,1.1h5.3
			C566.6,6.5,566.6,6.2,566.5,5.8z"/>
		<path class="st1" d="M570.3,0.2v11.3h-1V0.2H570.3z"/>
		<path class="st1" d="M578.2,3.4v1.4h0c0.3-0.5,0.6-0.9,1-1.2c0.4-0.3,1-0.4,1.6-0.4c0.5,0,1,0.1,1.5,0.4c0.4,0.3,0.7,0.7,0.9,1.2
			c0.2-0.5,0.6-0.9,1.1-1.2c0.5-0.3,1-0.4,1.5-0.4c1.8,0,2.7,1,2.7,2.9v5.6h-1V6.1c0-0.7-0.1-1.2-0.4-1.5c-0.3-0.4-0.8-0.5-1.5-0.5
			c-0.4,0-0.8,0.1-1.1,0.2s-0.5,0.4-0.7,0.7c-0.2,0.3-0.3,0.6-0.4,0.9c-0.1,0.4-0.1,0.7-0.1,1.1v4.6h-1V6c0-0.3,0-0.5-0.1-0.8
			c-0.1-0.2-0.2-0.5-0.3-0.7c-0.1-0.2-0.3-0.3-0.5-0.4C581.3,4,581.1,4,580.7,4c-0.4,0-0.8,0.1-1.1,0.2c-0.3,0.2-0.6,0.4-0.8,0.6
			c-0.2,0.3-0.3,0.6-0.4,1c-0.1,0.4-0.1,0.8-0.1,1.2v4.6h-1V3.4H578.2z"/>
		<path class="st1" d="M591,4.6c0.2-0.3,0.4-0.6,0.7-0.9c0.3-0.2,0.6-0.4,1-0.5c0.4-0.1,0.8-0.2,1.3-0.2c0.4,0,0.7,0,1.1,0.1
			c0.4,0.1,0.7,0.2,1,0.4c0.3,0.2,0.5,0.5,0.7,0.8s0.3,0.8,0.3,1.3v4.3c0,0.4,0.2,0.6,0.6,0.6c0.1,0,0.2,0,0.3-0.1v0.8
			c-0.1,0-0.2,0-0.3,0s-0.2,0-0.3,0c-0.3,0-0.5,0-0.6-0.1c-0.2-0.1-0.3-0.2-0.4-0.3s-0.1-0.3-0.2-0.5c0-0.2,0-0.4,0-0.6h0
			c-0.2,0.3-0.4,0.5-0.5,0.7s-0.4,0.4-0.6,0.5s-0.5,0.2-0.8,0.3c-0.3,0.1-0.6,0.1-1,0.1c-0.4,0-0.7,0-1.1-0.1s-0.6-0.2-0.9-0.4
			c-0.2-0.2-0.4-0.4-0.6-0.7c-0.1-0.3-0.2-0.7-0.2-1.1c0-0.6,0.1-1,0.4-1.3c0.3-0.3,0.6-0.6,1-0.7c0.4-0.2,0.9-0.3,1.4-0.4
			c0.5-0.1,1.1-0.1,1.6-0.2c0.2,0,0.4,0,0.6-0.1c0.2,0,0.3-0.1,0.4-0.2c0.1-0.1,0.2-0.2,0.2-0.3c0.1-0.1,0.1-0.3,0.1-0.5
			c0-0.3-0.1-0.6-0.2-0.8c-0.1-0.2-0.3-0.4-0.5-0.5s-0.4-0.2-0.7-0.3S594.2,4,593.9,4c-0.6,0-1.2,0.2-1.6,0.5
			c-0.4,0.3-0.6,0.8-0.6,1.5h-1C590.8,5.4,590.9,5,591,4.6z M596,7.1c-0.1,0.1-0.2,0.2-0.4,0.3s-0.3,0.1-0.5,0.1
			c-0.4,0.1-0.9,0.1-1.3,0.2c-0.5,0.1-0.9,0.1-1.2,0.3s-0.7,0.3-0.9,0.5c-0.2,0.2-0.4,0.5-0.4,0.9c0,0.3,0,0.5,0.2,0.7
			c0.1,0.2,0.2,0.4,0.4,0.5s0.4,0.3,0.6,0.3c0.2,0.1,0.4,0.1,0.7,0.1c0.4,0,0.7-0.1,1.1-0.2s0.7-0.3,0.9-0.5
			c0.3-0.2,0.5-0.5,0.6-0.8s0.2-0.7,0.2-1.1L596,7.1L596,7.1z"/>
		<path class="st1" d="M600.4,3.4v1.4h0c0.2-0.5,0.5-0.9,1-1.2c0.5-0.3,1-0.5,1.6-0.5c0.6,0,1,0.1,1.4,0.2c0.4,0.1,0.7,0.4,0.9,0.6
			s0.4,0.6,0.5,1c0.1,0.4,0.1,0.8,0.1,1.3v5.3h-1V6.5c0-0.3,0-0.7-0.1-1c-0.1-0.3-0.2-0.6-0.3-0.8c-0.2-0.2-0.4-0.4-0.6-0.5
			c-0.3-0.1-0.6-0.2-1-0.2c-0.4,0-0.8,0.1-1.1,0.2s-0.6,0.3-0.8,0.6c-0.2,0.2-0.4,0.5-0.5,0.9c-0.1,0.3-0.2,0.7-0.2,1.1v4.8h-1V3.4
			H600.4z"/>
		<path class="st1" d="M608.9,8.9c0.1,0.4,0.3,0.7,0.5,1s0.5,0.6,0.8,0.8c0.3,0.2,0.7,0.3,1.2,0.3c0.7,0,1.3-0.2,1.7-0.6
			s0.7-0.9,0.9-1.5h1c-0.2,0.9-0.6,1.6-1.2,2.2c-0.6,0.5-1.4,0.8-2.4,0.8c-0.6,0-1.2-0.1-1.7-0.3c-0.5-0.2-0.9-0.5-1.2-0.9
			s-0.5-0.9-0.7-1.4c-0.1-0.5-0.2-1.1-0.2-1.7c0-0.5,0.1-1.1,0.2-1.6c0.1-0.5,0.4-1,0.7-1.4s0.7-0.7,1.2-1c0.5-0.2,1-0.4,1.7-0.4
			c0.7,0,1.2,0.1,1.7,0.4c0.5,0.3,0.8,0.6,1.1,1c0.3,0.4,0.5,0.9,0.6,1.5c0.1,0.6,0.2,1.1,0.2,1.7h-6.3
			C608.8,8.1,608.8,8.5,608.9,8.9z M613.9,5.8c-0.1-0.3-0.3-0.7-0.5-0.9c-0.2-0.3-0.5-0.5-0.8-0.7c-0.3-0.2-0.7-0.2-1.1-0.2
			c-0.4,0-0.8,0.1-1.1,0.2c-0.3,0.2-0.6,0.4-0.8,0.7c-0.2,0.3-0.4,0.6-0.5,0.9c-0.1,0.4-0.2,0.7-0.3,1.1h5.3
			C614.1,6.5,614,6.2,613.9,5.8z"/>
		<path class="st1" d="M617.8,3.4v8.9c0,0.3,0,0.6-0.1,0.9c0,0.3-0.1,0.5-0.3,0.7c-0.1,0.2-0.3,0.4-0.5,0.5
			c-0.2,0.1-0.5,0.2-0.9,0.2c-0.1,0-0.2,0-0.3,0c-0.1,0-0.2,0-0.3,0v-0.8c0.1,0,0.2,0,0.3,0c0.1,0,0.2,0,0.3,0
			c0.4,0,0.6-0.1,0.7-0.3c0.1-0.2,0.2-0.5,0.2-0.8V3.4H617.8z M617.8,0.2v1.6h-1V0.2H617.8z"/>
		<path class="st1" d="M625.1,3.5c0.5,0.2,0.9,0.5,1.2,0.9c0.3,0.4,0.6,0.8,0.7,1.4c0.2,0.5,0.3,1.1,0.3,1.7s-0.1,1.1-0.3,1.7
			c-0.2,0.5-0.4,1-0.7,1.4c-0.3,0.4-0.7,0.7-1.2,0.9c-0.5,0.2-1,0.3-1.7,0.3s-1.2-0.1-1.7-0.3c-0.5-0.2-0.9-0.5-1.2-0.9
			c-0.3-0.4-0.6-0.8-0.7-1.4s-0.3-1.1-0.3-1.7s0.1-1.1,0.3-1.7s0.4-1,0.7-1.4c0.3-0.4,0.7-0.7,1.2-0.9c0.5-0.2,1-0.3,1.7-0.3
			S624.6,3.3,625.1,3.5z M622.2,4.3c-0.4,0.2-0.7,0.5-0.9,0.8c-0.2,0.3-0.4,0.7-0.5,1.1c-0.1,0.4-0.2,0.8-0.2,1.3s0.1,0.9,0.2,1.3
			c0.1,0.4,0.3,0.8,0.5,1.1c0.2,0.3,0.5,0.6,0.9,0.8c0.4,0.2,0.8,0.3,1.3,0.3s0.9-0.1,1.3-0.3c0.4-0.2,0.7-0.5,0.9-0.8
			c0.2-0.3,0.4-0.7,0.5-1.1c0.1-0.4,0.2-0.8,0.2-1.3s-0.1-0.9-0.2-1.3c-0.1-0.4-0.3-0.8-0.5-1.1c-0.2-0.3-0.5-0.6-0.9-0.8
			c-0.4-0.2-0.8-0.3-1.3-0.3S622.6,4.1,622.2,4.3z"/>
		<path class="st1" d="M640.1,11.6V10h0c-0.1,0.3-0.3,0.5-0.5,0.7c-0.2,0.2-0.4,0.4-0.7,0.6c-0.3,0.2-0.5,0.3-0.8,0.4
			c-0.3,0.1-0.6,0.1-0.9,0.1c-0.6,0-1.2-0.1-1.6-0.3c-0.5-0.2-0.8-0.5-1.1-0.9s-0.5-0.9-0.7-1.4c-0.1-0.5-0.2-1.1-0.2-1.7
			c0-0.6,0.1-1.1,0.2-1.7c0.1-0.5,0.4-1,0.7-1.4s0.7-0.7,1.1-0.9s1-0.3,1.6-0.3c0.3,0,0.6,0,0.9,0.1c0.3,0.1,0.6,0.2,0.8,0.3
			s0.5,0.3,0.7,0.6c0.2,0.2,0.3,0.5,0.5,0.8h0V0.2h1v11.3H640.1z M634.7,8.7c0.1,0.4,0.3,0.8,0.5,1.1c0.2,0.3,0.5,0.6,0.8,0.8
			c0.3,0.2,0.7,0.3,1.2,0.3c0.5,0,1-0.1,1.3-0.3c0.4-0.2,0.7-0.5,0.9-0.8c0.2-0.3,0.4-0.7,0.5-1.1c0.1-0.4,0.2-0.8,0.2-1.3
			s0-0.8-0.2-1.3s-0.3-0.8-0.5-1.1c-0.2-0.3-0.5-0.6-0.9-0.8c-0.4-0.2-0.8-0.3-1.3-0.3c-0.5,0-0.9,0.1-1.2,0.3
			c-0.3,0.2-0.6,0.5-0.8,0.8s-0.4,0.7-0.5,1.1c-0.1,0.4-0.2,0.8-0.2,1.3S634.6,8.3,634.7,8.7z"/>
		<path class="st1" d="M644,8.9c0.1,0.4,0.3,0.7,0.5,1s0.5,0.6,0.8,0.8c0.3,0.2,0.7,0.3,1.2,0.3c0.7,0,1.3-0.2,1.7-0.6
			s0.7-0.9,0.9-1.5h1c-0.2,0.9-0.6,1.6-1.2,2.2c-0.6,0.5-1.4,0.8-2.4,0.8c-0.6,0-1.2-0.1-1.7-0.3c-0.5-0.2-0.9-0.5-1.2-0.9
			s-0.5-0.9-0.7-1.4c-0.1-0.5-0.2-1.1-0.2-1.7c0-0.5,0.1-1.1,0.2-1.6c0.1-0.5,0.4-1,0.7-1.4s0.7-0.7,1.2-1c0.5-0.2,1-0.4,1.7-0.4
			c0.7,0,1.2,0.1,1.7,0.4c0.5,0.3,0.8,0.6,1.1,1c0.3,0.4,0.5,0.9,0.6,1.5c0.1,0.6,0.2,1.1,0.2,1.7h-6.3C643.9,8.1,643.9,8.5,644,8.9
			z M649,5.8c-0.1-0.3-0.3-0.7-0.5-0.9c-0.2-0.3-0.5-0.5-0.8-0.7C647.3,4.1,647,4,646.6,4c-0.4,0-0.8,0.1-1.1,0.2
			c-0.3,0.2-0.6,0.4-0.8,0.7c-0.2,0.3-0.4,0.6-0.5,0.9c-0.1,0.4-0.2,0.7-0.3,1.1h5.3C649.2,6.5,649.1,6.2,649,5.8z"/>
		<path class="st1" d="M657.6,0.2v11.3h-1V0.2H657.6z"/>
		<path class="st1" d="M664.9,3.5c0.5,0.2,0.9,0.5,1.2,0.9c0.3,0.4,0.6,0.8,0.7,1.4c0.2,0.5,0.3,1.1,0.3,1.7s-0.1,1.1-0.3,1.7
			c-0.2,0.5-0.4,1-0.7,1.4c-0.3,0.4-0.7,0.7-1.2,0.9c-0.5,0.2-1,0.3-1.7,0.3s-1.2-0.1-1.7-0.3c-0.5-0.2-0.9-0.5-1.2-0.9
			c-0.3-0.4-0.6-0.8-0.7-1.4s-0.3-1.1-0.3-1.7s0.1-1.1,0.3-1.7s0.4-1,0.7-1.4c0.3-0.4,0.7-0.7,1.2-0.9c0.5-0.2,1-0.3,1.7-0.3
			S664.4,3.3,664.9,3.5z M662,4.3c-0.4,0.2-0.7,0.5-0.9,0.8c-0.2,0.3-0.4,0.7-0.5,1.1c-0.1,0.4-0.2,0.8-0.2,1.3s0.1,0.9,0.2,1.3
			c0.1,0.4,0.3,0.8,0.5,1.1c0.2,0.3,0.5,0.6,0.9,0.8c0.4,0.2,0.8,0.3,1.3,0.3s0.9-0.1,1.3-0.3c0.4-0.2,0.7-0.5,0.9-0.8
			c0.2-0.3,0.4-0.7,0.5-1.1c0.1-0.4,0.2-0.8,0.2-1.3s-0.1-0.9-0.2-1.3c-0.1-0.4-0.3-0.8-0.5-1.1c-0.2-0.3-0.5-0.6-0.9-0.8
			c-0.4-0.2-0.8-0.3-1.3-0.3S662.4,4.1,662,4.3z"/>
		<path class="st1" d="M673.7,5c-0.1-0.2-0.3-0.4-0.5-0.6c-0.2-0.1-0.4-0.3-0.7-0.3C672.3,4,672,4,671.7,4c-0.2,0-0.4,0-0.7,0.1
			s-0.4,0.1-0.6,0.2c-0.2,0.1-0.3,0.3-0.5,0.4c-0.1,0.2-0.2,0.4-0.2,0.7c0,0.2,0.1,0.4,0.2,0.6c0.1,0.2,0.3,0.3,0.4,0.4
			s0.4,0.2,0.6,0.3s0.4,0.1,0.6,0.2l1.3,0.3c0.3,0,0.6,0.1,0.8,0.2c0.3,0.1,0.5,0.3,0.7,0.4s0.4,0.4,0.5,0.7
			c0.1,0.3,0.2,0.6,0.2,0.9c0,0.4-0.1,0.8-0.3,1.1c-0.2,0.3-0.5,0.6-0.8,0.8c-0.3,0.2-0.7,0.3-1.1,0.4c-0.4,0.1-0.8,0.1-1.2,0.1
			c-1,0-1.7-0.2-2.3-0.7c-0.6-0.5-0.9-1.2-1-2.2h1c0,0.7,0.3,1.2,0.7,1.5c0.4,0.3,1,0.5,1.7,0.5c0.2,0,0.5,0,0.8-0.1
			c0.3-0.1,0.5-0.1,0.7-0.3c0.2-0.1,0.4-0.3,0.5-0.5c0.1-0.2,0.2-0.4,0.2-0.7c0-0.2,0-0.4-0.2-0.6s-0.2-0.3-0.4-0.4
			c-0.2-0.1-0.4-0.2-0.6-0.3c-0.2-0.1-0.4-0.1-0.7-0.2l-1.3-0.3c-0.3-0.1-0.6-0.2-0.9-0.3c-0.3-0.1-0.5-0.2-0.7-0.4
			s-0.4-0.4-0.5-0.6c-0.1-0.2-0.2-0.5-0.2-0.9c0-0.4,0.1-0.8,0.3-1.1c0.2-0.3,0.4-0.5,0.7-0.7s0.6-0.3,1-0.4
			c0.4-0.1,0.7-0.1,1.1-0.1c0.4,0,0.8,0.1,1.2,0.2c0.4,0.1,0.7,0.3,0.9,0.5c0.3,0.2,0.5,0.5,0.6,0.8c0.2,0.3,0.2,0.7,0.3,1.2h-1
			C673.8,5.5,673.8,5.2,673.7,5z"/>
		<path class="st0" d="M6.3,27.9c0,0.2,0,0.5,0.2,0.6s0.2,0.3,0.4,0.4c0.2,0.1,0.3,0.2,0.5,0.2c0.2,0.1,0.4,0.1,0.6,0.1
			c0.2,0,0.3,0,0.5-0.1c0.2,0,0.3-0.1,0.5-0.2s0.3-0.2,0.4-0.3c0.1-0.1,0.1-0.3,0.1-0.5c0-0.2-0.1-0.3-0.2-0.4
			c-0.1-0.1-0.3-0.2-0.5-0.3c-0.2-0.1-0.5-0.2-0.8-0.3S7.3,27.1,6.9,27c-0.3-0.1-0.6-0.2-1-0.3c-0.3-0.1-0.6-0.2-0.8-0.4
			c-0.2-0.2-0.4-0.4-0.6-0.6c-0.1-0.2-0.2-0.6-0.2-0.9c0-0.5,0.1-0.9,0.3-1.3s0.5-0.6,0.8-0.8c0.3-0.2,0.7-0.3,1.1-0.4
			s0.9-0.1,1.3-0.1s0.9,0,1.3,0.1c0.4,0.1,0.8,0.2,1.1,0.4c0.3,0.2,0.6,0.5,0.8,0.8s0.3,0.8,0.4,1.3H9.4c0-0.4-0.2-0.7-0.5-0.9
			s-0.6-0.2-1-0.2c-0.1,0-0.3,0-0.4,0c-0.1,0-0.3,0-0.4,0.1c-0.1,0.1-0.2,0.1-0.3,0.2s-0.1,0.2-0.1,0.4c0,0.2,0.1,0.4,0.2,0.5
			c0.1,0.1,0.3,0.2,0.6,0.3c0.2,0.1,0.5,0.2,0.8,0.2s0.6,0.1,0.9,0.2c0.3,0.1,0.6,0.2,1,0.3c0.3,0.1,0.6,0.2,0.8,0.4
			c0.2,0.2,0.4,0.4,0.6,0.7c0.1,0.3,0.2,0.6,0.2,1c0,0.5-0.1,1-0.3,1.4c-0.2,0.4-0.5,0.7-0.8,0.9c-0.3,0.2-0.7,0.4-1.2,0.5
			c-0.4,0.1-0.9,0.1-1.4,0.1c-0.5,0-0.9,0-1.4-0.1c-0.5-0.1-0.9-0.3-1.2-0.5s-0.6-0.5-0.9-0.9s-0.4-0.8-0.4-1.4H6.3z"/>
		<path class="st0" d="M14.9,21.4h-1.6l1.5-2.3h2.5L14.9,21.4z M13.4,22.4h2.3v8.2h-2.3V22.4z"/>
		<path class="st0" d="M17.8,22.4h2.1v1.1h0c0.3-0.5,0.7-0.8,1.1-1c0.5-0.2,0.9-0.3,1.4-0.3c0.6,0,1.1,0.1,1.5,0.2s0.7,0.4,0.9,0.7
			c0.2,0.3,0.4,0.6,0.5,1.1c0.1,0.4,0.1,0.9,0.1,1.4v5h-2.3V26c0-0.7-0.1-1.2-0.3-1.5s-0.6-0.5-1.1-0.5c-0.6,0-1.1,0.2-1.3,0.5
			c-0.3,0.4-0.4,1-0.4,1.8v4.3h-2.3V22.4z"/>
		<path class="st0" d="M30.4,22.4H32v1.5h-1.6V28c0,0.4,0.1,0.6,0.2,0.8s0.4,0.2,0.8,0.2c0.3,0,0.5,0,0.7-0.1v1.8
			c-0.2,0-0.4,0.1-0.6,0.1s-0.5,0-0.7,0c-0.3,0-0.7,0-1-0.1c-0.3,0-0.6-0.1-0.8-0.3s-0.4-0.3-0.6-0.6c-0.1-0.3-0.2-0.6-0.2-1v-4.8
			h-1.4v-1.5h1.4v-2.5h2.3V22.4z"/>
		<path class="st0" d="M33.1,26.5c0-0.7,0.1-1.3,0.3-1.8c0.2-0.5,0.5-1,0.9-1.4c0.4-0.4,0.8-0.7,1.3-0.9c0.5-0.2,1.1-0.3,1.7-0.3
			s1.2,0.1,1.8,0.3s1,0.5,1.3,0.9c0.4,0.4,0.7,0.8,0.9,1.4s0.3,1.1,0.3,1.8s-0.1,1.2-0.3,1.8s-0.5,1-0.9,1.4
			c-0.4,0.4-0.8,0.7-1.3,0.9s-1.1,0.3-1.8,0.3s-1.2-0.1-1.7-0.3c-0.5-0.2-1-0.5-1.3-0.9c-0.4-0.4-0.7-0.8-0.9-1.4
			C33.2,27.8,33.1,27.2,33.1,26.5z M35.4,26.5c0,0.3,0,0.6,0.1,1c0.1,0.3,0.2,0.6,0.3,0.8c0.2,0.2,0.4,0.4,0.6,0.6
			c0.3,0.1,0.6,0.2,1,0.2s0.7-0.1,1-0.2c0.3-0.1,0.5-0.3,0.6-0.6c0.2-0.2,0.3-0.5,0.3-0.8c0.1-0.3,0.1-0.6,0.1-1c0-0.3,0-0.7-0.1-1
			c-0.1-0.3-0.2-0.6-0.3-0.8c-0.2-0.2-0.4-0.4-0.6-0.6s-0.6-0.2-1-0.2s-0.7,0.1-1,0.2s-0.5,0.4-0.6,0.6s-0.3,0.5-0.3,0.8
			C35.4,25.9,35.4,26.2,35.4,26.5z"/>
		<path class="st0" d="M43.5,22.4h2.1v1.1h0c0.3-0.4,0.7-0.8,1.1-1c0.4-0.2,0.9-0.3,1.4-0.3c0.5,0,1,0.1,1.4,0.3
			c0.4,0.2,0.8,0.6,1,1.1c0.2-0.4,0.6-0.7,1-1c0.4-0.3,0.9-0.4,1.5-0.4c0.4,0,0.8,0.1,1.2,0.2s0.7,0.3,1,0.5
			c0.3,0.2,0.5,0.5,0.6,0.9c0.1,0.4,0.2,0.8,0.2,1.4v5.5h-2.3v-4.6c0-0.3,0-0.5,0-0.8s-0.1-0.5-0.2-0.6c-0.1-0.2-0.2-0.3-0.4-0.4
			c-0.2-0.1-0.4-0.2-0.8-0.2s-0.6,0.1-0.8,0.2c-0.2,0.1-0.3,0.3-0.5,0.5C51,24.8,51,25,50.9,25.3c0,0.2-0.1,0.5-0.1,0.8v4.6h-2.3V26
			c0-0.2,0-0.5,0-0.7c0-0.2-0.1-0.5-0.1-0.7c-0.1-0.2-0.2-0.4-0.4-0.5c-0.2-0.1-0.5-0.2-0.8-0.2c-0.1,0-0.3,0-0.4,0.1
			c-0.2,0-0.3,0.1-0.5,0.3c-0.2,0.1-0.3,0.3-0.4,0.6c-0.1,0.2-0.2,0.6-0.2,1v4.8h-2.3V22.4z"/>
		<path class="st0" d="M58,24.9c0-0.5,0.2-1,0.4-1.3c0.2-0.3,0.5-0.6,0.9-0.8c0.4-0.2,0.8-0.4,1.2-0.5c0.4-0.1,0.9-0.1,1.4-0.1
			c0.4,0,0.8,0,1.3,0.1c0.4,0.1,0.8,0.2,1.2,0.3c0.3,0.2,0.6,0.4,0.9,0.7c0.2,0.3,0.3,0.7,0.3,1.2v4.3c0,0.4,0,0.7,0.1,1.1
			c0,0.3,0.1,0.6,0.2,0.8h-2.3c0-0.1-0.1-0.3-0.1-0.4c0-0.1,0-0.3-0.1-0.4c-0.4,0.4-0.8,0.6-1.3,0.8c-0.5,0.2-1,0.2-1.5,0.2
			c-0.4,0-0.8,0-1.1-0.2c-0.3-0.1-0.6-0.3-0.9-0.5c-0.3-0.2-0.5-0.5-0.6-0.8s-0.2-0.7-0.2-1.1c0-0.5,0.1-0.8,0.2-1.1
			c0.2-0.3,0.4-0.5,0.6-0.7c0.3-0.2,0.6-0.3,0.9-0.4c0.3-0.1,0.7-0.2,1-0.2c0.3-0.1,0.7-0.1,1-0.1c0.3,0,0.6-0.1,0.8-0.1
			s0.4-0.2,0.6-0.3c0.1-0.1,0.2-0.3,0.2-0.5c0-0.2,0-0.4-0.1-0.6c-0.1-0.1-0.2-0.3-0.3-0.3c-0.1-0.1-0.3-0.1-0.5-0.2
			c-0.2,0-0.4,0-0.6,0c-0.4,0-0.8,0.1-1,0.3c-0.3,0.2-0.4,0.5-0.5,1H58z M63.2,26.6c-0.1,0.1-0.2,0.2-0.4,0.2s-0.3,0.1-0.5,0.1
			c-0.2,0-0.3,0.1-0.5,0.1c-0.2,0-0.4,0-0.5,0.1c-0.2,0-0.3,0.1-0.5,0.1c-0.2,0.1-0.3,0.1-0.4,0.2c-0.1,0.1-0.2,0.2-0.3,0.3
			C60,27.9,60,28.1,60,28.3c0,0.2,0,0.4,0.1,0.5c0.1,0.1,0.2,0.2,0.3,0.3s0.3,0.1,0.4,0.2c0.2,0,0.3,0,0.5,0c0.4,0,0.8-0.1,1-0.2
			c0.2-0.1,0.4-0.3,0.5-0.5c0.1-0.2,0.2-0.4,0.2-0.6c0-0.2,0-0.4,0-0.5V26.6z"/>
		<path class="st0" d="M69.3,27.9c0,0.2,0.1,0.5,0.2,0.6c0.1,0.2,0.2,0.3,0.4,0.4c0.2,0.1,0.3,0.2,0.5,0.2c0.2,0.1,0.4,0.1,0.6,0.1
			c0.2,0,0.3,0,0.5-0.1c0.2,0,0.3-0.1,0.5-0.2c0.1-0.1,0.3-0.2,0.4-0.3c0.1-0.1,0.1-0.3,0.1-0.5c0-0.2-0.1-0.3-0.2-0.4
			c-0.1-0.1-0.3-0.2-0.5-0.3c-0.2-0.1-0.5-0.2-0.8-0.3c-0.3-0.1-0.7-0.2-1.1-0.2c-0.3-0.1-0.6-0.2-1-0.3c-0.3-0.1-0.6-0.2-0.8-0.4
			c-0.2-0.2-0.4-0.4-0.6-0.6c-0.1-0.2-0.2-0.6-0.2-0.9c0-0.5,0.1-0.9,0.3-1.3c0.2-0.3,0.5-0.6,0.8-0.8c0.3-0.2,0.7-0.3,1.1-0.4
			s0.9-0.1,1.3-0.1s0.9,0,1.3,0.1c0.4,0.1,0.8,0.2,1.1,0.4c0.3,0.2,0.6,0.5,0.8,0.8s0.3,0.8,0.4,1.3h-2.1c0-0.4-0.2-0.7-0.5-0.9
			s-0.6-0.2-1-0.2c-0.1,0-0.3,0-0.4,0c-0.1,0-0.3,0-0.4,0.1c-0.1,0.1-0.2,0.1-0.3,0.2c-0.1,0.1-0.1,0.2-0.1,0.4
			c0,0.2,0.1,0.4,0.2,0.5c0.1,0.1,0.3,0.2,0.6,0.3c0.2,0.1,0.5,0.2,0.8,0.2c0.3,0.1,0.6,0.1,0.9,0.2c0.3,0.1,0.6,0.2,1,0.3
			c0.3,0.1,0.6,0.2,0.8,0.4c0.2,0.2,0.4,0.4,0.6,0.7c0.1,0.3,0.2,0.6,0.2,1c0,0.5-0.1,1-0.3,1.4c-0.2,0.4-0.5,0.7-0.8,0.9
			c-0.3,0.2-0.7,0.4-1.2,0.5c-0.4,0.1-0.9,0.1-1.4,0.1c-0.5,0-0.9,0-1.4-0.1c-0.5-0.1-0.9-0.3-1.2-0.5c-0.4-0.2-0.6-0.5-0.9-0.9
			c-0.2-0.4-0.4-0.8-0.4-1.4H69.3z"/>
		<path class="st0" d="M81.6,23.9h-1.3v-1.5h1.3v-0.6c0-0.4,0.1-0.7,0.2-1s0.3-0.6,0.5-0.8c0.2-0.2,0.5-0.4,0.9-0.5
			c0.3-0.1,0.7-0.2,1.2-0.2c0.2,0,0.4,0,0.6,0c0.2,0,0.4,0,0.6,0V21c-0.3,0-0.5,0-0.8,0c-0.3,0-0.5,0.1-0.7,0.2
			c-0.1,0.1-0.2,0.4-0.2,0.7v0.5h1.6v1.5h-1.6v6.7h-2.3V23.9z"/>
		<path class="st0" d="M88.2,21.4h-1.6l1.5-2.3h2.5L88.2,21.4z M86.7,22.4H89v8.2h-2.3V22.4z"/>
		<path class="st0" d="M92.8,27.9c0,0.2,0.1,0.5,0.2,0.6c0.1,0.2,0.2,0.3,0.4,0.4c0.2,0.1,0.3,0.2,0.5,0.2c0.2,0.1,0.4,0.1,0.6,0.1
			c0.2,0,0.3,0,0.5-0.1c0.2,0,0.3-0.1,0.5-0.2c0.1-0.1,0.3-0.2,0.4-0.3c0.1-0.1,0.1-0.3,0.1-0.5c0-0.2-0.1-0.3-0.2-0.4
			c-0.1-0.1-0.3-0.2-0.5-0.3c-0.2-0.1-0.5-0.2-0.8-0.3c-0.3-0.1-0.7-0.2-1.1-0.2c-0.3-0.1-0.6-0.2-1-0.3c-0.3-0.1-0.6-0.2-0.8-0.4
			c-0.2-0.2-0.4-0.4-0.6-0.6c-0.1-0.2-0.2-0.6-0.2-0.9c0-0.5,0.1-0.9,0.3-1.3c0.2-0.3,0.5-0.6,0.8-0.8c0.3-0.2,0.7-0.3,1.1-0.4
			s0.9-0.1,1.3-0.1s0.9,0,1.3,0.1c0.4,0.1,0.8,0.2,1.1,0.4c0.3,0.2,0.6,0.5,0.8,0.8s0.3,0.8,0.4,1.3h-2.1c0-0.4-0.2-0.7-0.5-0.9
			s-0.6-0.2-1-0.2c-0.1,0-0.3,0-0.4,0c-0.1,0-0.3,0-0.4,0.1c-0.1,0.1-0.2,0.1-0.3,0.2c-0.1,0.1-0.1,0.2-0.1,0.4
			c0,0.2,0.1,0.4,0.2,0.5c0.1,0.1,0.3,0.2,0.6,0.3c0.2,0.1,0.5,0.2,0.8,0.2c0.3,0.1,0.6,0.1,0.9,0.2c0.3,0.1,0.6,0.2,1,0.3
			c0.3,0.1,0.6,0.2,0.8,0.4c0.2,0.2,0.4,0.4,0.6,0.7c0.1,0.3,0.2,0.6,0.2,1c0,0.5-0.1,1-0.3,1.4c-0.2,0.4-0.5,0.7-0.8,0.9
			c-0.3,0.2-0.7,0.4-1.2,0.5c-0.4,0.1-0.9,0.1-1.4,0.1c-0.5,0-0.9,0-1.4-0.1c-0.5-0.1-0.9-0.3-1.2-0.5c-0.4-0.2-0.6-0.5-0.9-0.9
			c-0.2-0.4-0.4-0.8-0.4-1.4H92.8z"/>
		<path class="st0" d="M102.2,21.1H100v-1.9h2.3V21.1z M100,22.4h2.3v8.2H100V22.4z"/>
		<path class="st0" d="M109.9,25.3c-0.1-0.9-0.7-1.4-1.7-1.4c-0.4,0-0.7,0.1-0.9,0.2c-0.2,0.2-0.4,0.4-0.6,0.6
			c-0.2,0.3-0.3,0.5-0.3,0.9c-0.1,0.3-0.1,0.6-0.1,0.9c0,0.3,0,0.6,0.1,0.9s0.2,0.6,0.3,0.8c0.1,0.2,0.3,0.5,0.6,0.6
			s0.5,0.2,0.9,0.2c0.5,0,0.9-0.2,1.2-0.5c0.3-0.3,0.5-0.7,0.6-1.2h2.2c-0.1,1.1-0.6,1.9-1.3,2.5c-0.7,0.6-1.6,0.9-2.7,0.9
			c-0.6,0-1.2-0.1-1.7-0.3s-0.9-0.5-1.3-0.9c-0.4-0.4-0.6-0.8-0.8-1.3c-0.2-0.5-0.3-1.1-0.3-1.7c0-0.6,0.1-1.2,0.3-1.8
			c0.2-0.5,0.5-1,0.8-1.4s0.8-0.7,1.3-0.9c0.5-0.2,1.1-0.3,1.8-0.3c0.5,0,1,0.1,1.4,0.2s0.8,0.3,1.2,0.6s0.6,0.6,0.9,1
			c0.2,0.4,0.4,0.8,0.4,1.4H109.9z"/>
		<path class="st0" d="M113.5,26.5c0-0.7,0.1-1.3,0.3-1.8c0.2-0.5,0.5-1,0.9-1.4c0.4-0.4,0.8-0.7,1.3-0.9c0.5-0.2,1.1-0.3,1.7-0.3
			c0.6,0,1.2,0.1,1.8,0.3s1,0.5,1.3,0.9c0.4,0.4,0.7,0.8,0.9,1.4s0.3,1.1,0.3,1.8s-0.1,1.2-0.3,1.8s-0.5,1-0.9,1.4
			c-0.4,0.4-0.8,0.7-1.3,0.9s-1.1,0.3-1.8,0.3c-0.6,0-1.2-0.1-1.7-0.3c-0.5-0.2-1-0.5-1.3-0.9c-0.4-0.4-0.7-0.8-0.9-1.4
			C113.6,27.8,113.5,27.2,113.5,26.5z M115.7,26.5c0,0.3,0,0.6,0.1,1c0.1,0.3,0.2,0.6,0.3,0.8c0.2,0.2,0.4,0.4,0.6,0.6
			c0.3,0.1,0.6,0.2,1,0.2c0.4,0,0.7-0.1,1-0.2c0.3-0.1,0.5-0.3,0.6-0.6c0.2-0.2,0.3-0.5,0.3-0.8c0.1-0.3,0.1-0.6,0.1-1
			c0-0.3,0-0.7-0.1-1s-0.2-0.6-0.3-0.8s-0.4-0.4-0.6-0.6c-0.3-0.2-0.6-0.2-1-0.2c-0.4,0-0.7,0.1-1,0.2s-0.5,0.4-0.6,0.6
			c-0.2,0.2-0.3,0.5-0.3,0.8S115.7,26.2,115.7,26.5z"/>
		<path class="st0" d="M125.5,27.9c0,0.2,0.1,0.5,0.2,0.6c0.1,0.2,0.2,0.3,0.4,0.4c0.2,0.1,0.3,0.2,0.5,0.2c0.2,0.1,0.4,0.1,0.6,0.1
			c0.2,0,0.3,0,0.5-0.1c0.2,0,0.3-0.1,0.5-0.2c0.1-0.1,0.3-0.2,0.4-0.3c0.1-0.1,0.1-0.3,0.1-0.5c0-0.2-0.1-0.3-0.2-0.4
			c-0.1-0.1-0.3-0.2-0.5-0.3c-0.2-0.1-0.5-0.2-0.8-0.3c-0.3-0.1-0.7-0.2-1.1-0.2c-0.3-0.1-0.6-0.2-1-0.3c-0.3-0.1-0.6-0.2-0.8-0.4
			c-0.2-0.2-0.4-0.4-0.6-0.6c-0.1-0.2-0.2-0.6-0.2-0.9c0-0.5,0.1-0.9,0.3-1.3c0.2-0.3,0.5-0.6,0.8-0.8c0.3-0.2,0.7-0.3,1.1-0.4
			s0.9-0.1,1.3-0.1s0.9,0,1.3,0.1c0.4,0.1,0.8,0.2,1.1,0.4c0.3,0.2,0.6,0.5,0.8,0.8s0.3,0.8,0.4,1.3h-2.1c0-0.4-0.2-0.7-0.5-0.9
			s-0.6-0.2-1-0.2c-0.1,0-0.3,0-0.4,0c-0.1,0-0.3,0-0.4,0.1c-0.1,0.1-0.2,0.1-0.3,0.2c-0.1,0.1-0.1,0.2-0.1,0.4
			c0,0.2,0.1,0.4,0.2,0.5c0.1,0.1,0.3,0.2,0.6,0.3c0.2,0.1,0.5,0.2,0.8,0.2c0.3,0.1,0.6,0.1,0.9,0.2c0.3,0.1,0.6,0.2,1,0.3
			c0.3,0.1,0.6,0.2,0.8,0.4c0.2,0.2,0.4,0.4,0.6,0.7c0.1,0.3,0.2,0.6,0.2,1c0,0.5-0.1,1-0.3,1.4c-0.2,0.4-0.5,0.7-0.8,0.9
			c-0.3,0.2-0.7,0.4-1.2,0.5c-0.4,0.1-0.9,0.1-1.4,0.1c-0.5,0-0.9,0-1.4-0.1c-0.5-0.1-0.9-0.3-1.2-0.5c-0.4-0.2-0.6-0.5-0.9-0.9
			c-0.2-0.4-0.4-0.8-0.4-1.4H125.5z"/>
		<path class="st0" d="M141.4,31.6c-0.2,0.7-0.6,1.1-1,1.4s-1,0.4-1.8,0.4c-0.2,0-0.5,0-0.7,0c-0.2,0-0.5,0-0.7-0.1v-1.9
			c0.2,0,0.4,0,0.6,0.1c0.2,0,0.4,0,0.7,0c0.2,0,0.4-0.1,0.5-0.2c0.1-0.1,0.2-0.2,0.3-0.4s0.1-0.3,0.1-0.5c0-0.2,0-0.3-0.1-0.5
			l-2.9-7.7h2.4l1.9,5.6h0l1.8-5.6h2.3L141.4,31.6z"/>
		<path class="st0" d="M151.2,22.4h2.1v1h0c0.3-0.4,0.6-0.8,1-1s0.9-0.3,1.4-0.3c0.6,0,1.2,0.1,1.7,0.4s0.9,0.6,1.2,1
			c0.3,0.4,0.5,0.9,0.7,1.4s0.2,1.1,0.2,1.7c0,0.5-0.1,1.1-0.2,1.6c-0.1,0.5-0.4,1-0.7,1.3c-0.3,0.4-0.7,0.7-1.1,0.9
			c-0.5,0.2-1,0.4-1.6,0.4c-0.5,0-1-0.1-1.4-0.3c-0.4-0.2-0.8-0.5-1.1-0.9h0v3.9h-2.3V22.4z M155.4,29.1c0.4,0,0.7-0.1,0.9-0.2
			c0.2-0.1,0.4-0.3,0.6-0.6c0.2-0.2,0.3-0.5,0.3-0.8s0.1-0.6,0.1-1c0-0.3,0-0.7-0.1-1c-0.1-0.3-0.2-0.6-0.3-0.8
			c-0.2-0.2-0.4-0.4-0.6-0.6c-0.2-0.2-0.6-0.2-0.9-0.2c-0.4,0-0.7,0.1-0.9,0.2c-0.2,0.2-0.4,0.4-0.6,0.6s-0.3,0.5-0.3,0.8
			c-0.1,0.3-0.1,0.6-0.1,1c0,0.3,0,0.7,0.1,1c0.1,0.3,0.2,0.6,0.3,0.8c0.2,0.2,0.4,0.4,0.6,0.6C154.7,29,155,29.1,155.4,29.1z"/>
		<path class="st0" d="M163.3,27.9c0,0.2,0.1,0.5,0.2,0.6c0.1,0.2,0.2,0.3,0.4,0.4c0.2,0.1,0.3,0.2,0.5,0.2c0.2,0.1,0.4,0.1,0.6,0.1
			c0.2,0,0.3,0,0.5-0.1c0.2,0,0.3-0.1,0.5-0.2c0.1-0.1,0.3-0.2,0.4-0.3c0.1-0.1,0.1-0.3,0.1-0.5c0-0.2-0.1-0.3-0.2-0.4
			c-0.1-0.1-0.3-0.2-0.5-0.3c-0.2-0.1-0.5-0.2-0.8-0.3c-0.3-0.1-0.7-0.2-1.1-0.2c-0.3-0.1-0.6-0.2-1-0.3c-0.3-0.1-0.6-0.2-0.8-0.4
			c-0.2-0.2-0.4-0.4-0.6-0.6c-0.1-0.2-0.2-0.6-0.2-0.9c0-0.5,0.1-0.9,0.3-1.3c0.2-0.3,0.5-0.6,0.8-0.8c0.3-0.2,0.7-0.3,1.1-0.4
			s0.9-0.1,1.3-0.1s0.9,0,1.3,0.1c0.4,0.1,0.8,0.2,1.1,0.4c0.3,0.2,0.6,0.5,0.8,0.8s0.3,0.8,0.4,1.3h-2.1c0-0.4-0.2-0.7-0.5-0.9
			s-0.6-0.2-1-0.2c-0.1,0-0.3,0-0.4,0c-0.1,0-0.3,0-0.4,0.1c-0.1,0.1-0.2,0.1-0.3,0.2c-0.1,0.1-0.1,0.2-0.1,0.4
			c0,0.2,0.1,0.4,0.2,0.5c0.1,0.1,0.3,0.2,0.6,0.3c0.2,0.1,0.5,0.2,0.8,0.2c0.3,0.1,0.6,0.1,0.9,0.2c0.3,0.1,0.6,0.2,1,0.3
			c0.3,0.1,0.6,0.2,0.8,0.4c0.2,0.2,0.4,0.4,0.6,0.7c0.1,0.3,0.2,0.6,0.2,1c0,0.5-0.1,1-0.3,1.4c-0.2,0.4-0.5,0.7-0.8,0.9
			c-0.3,0.2-0.7,0.4-1.2,0.5c-0.4,0.1-0.9,0.1-1.4,0.1c-0.5,0-0.9,0-1.4-0.1c-0.5-0.1-0.9-0.3-1.2-0.5c-0.4-0.2-0.6-0.5-0.9-0.9
			c-0.2-0.4-0.4-0.8-0.4-1.4H163.3z"/>
		<path class="st0" d="M172.3,21.4h-1.6l1.5-2.3h2.5L172.3,21.4z M170.8,22.4h2.3v8.2h-2.3V22.4z"/>
		<path class="st0" d="M183.4,33.5h-2.3v-3.9h0c-0.3,0.4-0.6,0.8-1.1,1c-0.5,0.2-1,0.3-1.5,0.3c-0.4,0-0.8-0.1-1.2-0.2
			c-0.4-0.1-0.8-0.4-1.1-0.7c-0.3-0.3-0.6-0.8-0.8-1.3c-0.2-0.5-0.3-1.2-0.3-2c0-0.6,0.1-1.1,0.2-1.6s0.4-1,0.7-1.4s0.7-0.7,1.2-1
			s1-0.4,1.6-0.4c0.5,0,1,0.1,1.4,0.3s0.8,0.5,1.1,1h0v-1h2.1V33.5z M177.3,26.5c0,0.3,0,0.6,0.1,1c0.1,0.3,0.2,0.6,0.3,0.8
			c0.2,0.2,0.4,0.4,0.6,0.6c0.2,0.1,0.6,0.2,0.9,0.2c0.4,0,0.7-0.1,0.9-0.2c0.3-0.1,0.5-0.3,0.6-0.6c0.2-0.2,0.3-0.5,0.3-0.8
			c0.1-0.3,0.1-0.6,0.1-1c0-0.3,0-0.6-0.1-1c-0.1-0.3-0.2-0.6-0.3-0.9c-0.1-0.3-0.3-0.5-0.6-0.6c-0.2-0.2-0.5-0.2-0.9-0.2
			c-0.4,0-0.7,0.1-0.9,0.2c-0.3,0.1-0.5,0.3-0.6,0.6c-0.2,0.2-0.3,0.5-0.3,0.8C177.4,25.9,177.3,26.2,177.3,26.5z"/>
		<path class="st0" d="M193.4,30.6h-2.1v-1.1h0c-0.3,0.5-0.7,0.8-1.1,1c-0.5,0.2-0.9,0.3-1.4,0.3c-0.6,0-1.1-0.1-1.5-0.2
			c-0.4-0.2-0.7-0.4-0.9-0.7c-0.2-0.3-0.4-0.6-0.5-1.1c-0.1-0.4-0.1-0.9-0.1-1.4v-5h2.3V27c0,0.7,0.1,1.2,0.3,1.5s0.6,0.5,1.1,0.5
			c0.6,0,1.1-0.2,1.3-0.5c0.3-0.4,0.4-1,0.4-1.8v-4.3h2.3V30.6z"/>
		<path class="st0" d="M198.1,21.1h-2.3v-1.9h2.3V21.1z M195.9,22.4h2.3v8.2h-2.3V22.4z"/>
		<path class="st0" d="M206.1,25.3c-0.1-0.9-0.7-1.4-1.7-1.4c-0.4,0-0.7,0.1-0.9,0.2c-0.2,0.2-0.4,0.4-0.6,0.6
			c-0.2,0.3-0.3,0.5-0.3,0.9c-0.1,0.3-0.1,0.6-0.1,0.9c0,0.3,0,0.6,0.1,0.9s0.2,0.6,0.3,0.8c0.1,0.2,0.3,0.5,0.6,0.6
			s0.5,0.2,0.9,0.2c0.5,0,0.9-0.2,1.2-0.5c0.3-0.3,0.5-0.7,0.6-1.2h2.2c-0.1,1.1-0.6,1.9-1.3,2.5c-0.7,0.6-1.6,0.9-2.7,0.9
			c-0.6,0-1.2-0.1-1.7-0.3s-0.9-0.5-1.3-0.9c-0.4-0.4-0.6-0.8-0.8-1.3c-0.2-0.5-0.3-1.1-0.3-1.7c0-0.6,0.1-1.2,0.3-1.8
			c0.2-0.5,0.5-1,0.8-1.4s0.8-0.7,1.3-0.9c0.5-0.2,1.1-0.3,1.8-0.3c0.5,0,1,0.1,1.4,0.2s0.8,0.3,1.2,0.6s0.6,0.6,0.9,1
			c0.2,0.4,0.4,0.8,0.4,1.4H206.1z"/>
		<path class="st0" d="M210,26.5c0-0.7,0.1-1.3,0.3-1.8c0.2-0.5,0.5-1,0.9-1.4c0.4-0.4,0.8-0.7,1.3-0.9c0.5-0.2,1.1-0.3,1.7-0.3
			c0.6,0,1.2,0.1,1.8,0.3s1,0.5,1.3,0.9c0.4,0.4,0.7,0.8,0.9,1.4s0.3,1.1,0.3,1.8s-0.1,1.2-0.3,1.8s-0.5,1-0.9,1.4
			c-0.4,0.4-0.8,0.7-1.3,0.9s-1.1,0.3-1.8,0.3c-0.6,0-1.2-0.1-1.7-0.3c-0.5-0.2-1-0.5-1.3-0.9c-0.4-0.4-0.7-0.8-0.9-1.4
			C210.1,27.8,210,27.2,210,26.5z M212.3,26.5c0,0.3,0,0.6,0.1,1c0.1,0.3,0.2,0.6,0.3,0.8c0.2,0.2,0.4,0.4,0.6,0.6
			c0.3,0.1,0.6,0.2,1,0.2c0.4,0,0.7-0.1,1-0.2c0.3-0.1,0.5-0.3,0.6-0.6c0.2-0.2,0.3-0.5,0.3-0.8c0.1-0.3,0.1-0.6,0.1-1
			c0-0.3,0-0.7-0.1-1s-0.2-0.6-0.3-0.8s-0.4-0.4-0.6-0.6c-0.3-0.2-0.6-0.2-1-0.2c-0.4,0-0.7,0.1-1,0.2s-0.5,0.4-0.6,0.6
			c-0.2,0.2-0.3,0.5-0.3,0.8S212.3,26.2,212.3,26.5z"/>
		<path class="st0" d="M222.3,27.9c0,0.2,0.1,0.5,0.2,0.6c0.1,0.2,0.2,0.3,0.4,0.4c0.2,0.1,0.3,0.2,0.5,0.2c0.2,0.1,0.4,0.1,0.6,0.1
			c0.2,0,0.3,0,0.5-0.1c0.2,0,0.3-0.1,0.5-0.2c0.1-0.1,0.3-0.2,0.4-0.3c0.1-0.1,0.1-0.3,0.1-0.5c0-0.2-0.1-0.3-0.2-0.4
			c-0.1-0.1-0.3-0.2-0.5-0.3c-0.2-0.1-0.5-0.2-0.8-0.3c-0.3-0.1-0.7-0.2-1.1-0.2c-0.3-0.1-0.6-0.2-1-0.3c-0.3-0.1-0.6-0.2-0.8-0.4
			c-0.2-0.2-0.4-0.4-0.6-0.6c-0.1-0.2-0.2-0.6-0.2-0.9c0-0.5,0.1-0.9,0.3-1.3c0.2-0.3,0.5-0.6,0.8-0.8c0.3-0.2,0.7-0.3,1.1-0.4
			s0.9-0.1,1.3-0.1s0.9,0,1.3,0.1c0.4,0.1,0.8,0.2,1.1,0.4c0.3,0.2,0.6,0.5,0.8,0.8s0.3,0.8,0.4,1.3h-2.1c0-0.4-0.2-0.7-0.5-0.9
			s-0.6-0.2-1-0.2c-0.1,0-0.3,0-0.4,0c-0.1,0-0.3,0-0.4,0.1c-0.1,0.1-0.2,0.1-0.3,0.2c-0.1,0.1-0.1,0.2-0.1,0.4
			c0,0.2,0.1,0.4,0.2,0.5c0.1,0.1,0.3,0.2,0.6,0.3c0.2,0.1,0.5,0.2,0.8,0.2c0.3,0.1,0.6,0.1,0.9,0.2c0.3,0.1,0.6,0.2,1,0.3
			c0.3,0.1,0.6,0.2,0.8,0.4c0.2,0.2,0.4,0.4,0.6,0.7c0.1,0.3,0.2,0.6,0.2,1c0,0.5-0.1,1-0.3,1.4c-0.2,0.4-0.5,0.7-0.8,0.9
			c-0.3,0.2-0.7,0.4-1.2,0.5c-0.4,0.1-0.9,0.1-1.4,0.1c-0.5,0-0.9,0-1.4-0.1c-0.5-0.1-0.9-0.3-1.2-0.5c-0.4-0.2-0.6-0.5-0.9-0.9
			c-0.2-0.4-0.4-0.8-0.4-1.4H222.3z"/>
		<path class="st0" d="M240.6,29.5L240.6,29.5c-0.3,0.4-0.6,0.8-1.1,1c-0.4,0.2-0.9,0.3-1.4,0.3c-0.6,0-1.2-0.1-1.6-0.4
			s-0.8-0.6-1.1-1c-0.3-0.4-0.5-0.9-0.7-1.4s-0.2-1.1-0.2-1.6c0-0.5,0.1-1.1,0.2-1.6s0.4-1,0.7-1.4c0.3-0.4,0.7-0.7,1.1-0.9
			c0.5-0.2,1-0.4,1.6-0.4c0.5,0,0.9,0.1,1.4,0.3c0.4,0.2,0.8,0.5,1,0.9h0v-4.1h2.3v11.3h-2.1V29.5z M240.6,26.5c0-0.3,0-0.6-0.1-1
			s-0.2-0.6-0.3-0.8c-0.2-0.2-0.4-0.4-0.6-0.6c-0.2-0.1-0.6-0.2-0.9-0.2c-0.4,0-0.7,0.1-0.9,0.2c-0.3,0.1-0.5,0.3-0.6,0.6
			c-0.2,0.2-0.3,0.5-0.3,0.8c-0.1,0.3-0.1,0.6-0.1,1c0,0.3,0,0.6,0.1,1c0.1,0.3,0.2,0.6,0.4,0.8c0.2,0.2,0.4,0.4,0.6,0.6
			c0.2,0.2,0.5,0.2,0.9,0.2c0.4,0,0.7-0.1,0.9-0.2c0.2-0.1,0.4-0.3,0.6-0.6c0.1-0.2,0.3-0.5,0.3-0.8
			C240.6,27.1,240.6,26.8,240.6,26.5z"/>
		<path class="st0" d="M247,27c0,0.7,0.2,1.2,0.6,1.6c0.3,0.3,0.8,0.5,1.5,0.5c0.5,0,0.8-0.1,1.2-0.3c0.3-0.2,0.5-0.5,0.6-0.7h2
			c-0.3,1-0.8,1.7-1.5,2.1c-0.7,0.4-1.4,0.6-2.4,0.6c-0.6,0-1.2-0.1-1.7-0.3c-0.5-0.2-1-0.5-1.3-0.9s-0.6-0.8-0.8-1.4
			c-0.2-0.5-0.3-1.1-0.3-1.7c0-0.6,0.1-1.2,0.3-1.7c0.2-0.5,0.5-1,0.9-1.4c0.4-0.4,0.8-0.7,1.3-0.9c0.5-0.2,1.1-0.3,1.7-0.3
			c0.7,0,1.3,0.1,1.8,0.4c0.5,0.3,0.9,0.6,1.3,1.1c0.3,0.5,0.6,1,0.7,1.6c0.1,0.6,0.2,1.2,0.2,1.8H247z M250.6,25.6
			c-0.1-0.6-0.3-1-0.6-1.3s-0.7-0.4-1.2-0.4c-0.4,0-0.7,0.1-0.9,0.2c-0.2,0.1-0.4,0.3-0.6,0.5s-0.2,0.4-0.3,0.6
			c-0.1,0.2-0.1,0.4-0.1,0.5H250.6z"/>
		<path class="st0" d="M254.9,19.3h2.3v11.3h-2.3V19.3z"/>
		<path class="st0" d="M266.5,27c0,0.7,0.2,1.2,0.6,1.6c0.3,0.3,0.8,0.5,1.5,0.5c0.5,0,0.8-0.1,1.2-0.3c0.3-0.2,0.5-0.5,0.6-0.7h2
			c-0.3,1-0.8,1.7-1.5,2.1c-0.7,0.4-1.4,0.6-2.4,0.6c-0.6,0-1.2-0.1-1.7-0.3c-0.5-0.2-1-0.5-1.3-0.9s-0.6-0.8-0.8-1.4
			c-0.2-0.5-0.3-1.1-0.3-1.7c0-0.6,0.1-1.2,0.3-1.7c0.2-0.5,0.5-1,0.9-1.4c0.4-0.4,0.8-0.7,1.3-0.9c0.5-0.2,1.1-0.3,1.7-0.3
			c0.7,0,1.3,0.1,1.8,0.4c0.5,0.3,0.9,0.6,1.3,1.1c0.3,0.5,0.6,1,0.7,1.6c0.1,0.6,0.2,1.2,0.2,1.8H266.5z M270.1,25.6
			c-0.1-0.6-0.3-1-0.6-1.3s-0.7-0.4-1.2-0.4c-0.4,0-0.7,0.1-0.9,0.2c-0.2,0.1-0.4,0.3-0.6,0.5s-0.2,0.4-0.3,0.6
			c-0.1,0.2-0.1,0.4-0.1,0.5H270.1z"/>
		<path class="st0" d="M276.1,27.9c0,0.2,0.1,0.5,0.2,0.6c0.1,0.2,0.2,0.3,0.4,0.4c0.2,0.1,0.3,0.2,0.5,0.2c0.2,0.1,0.4,0.1,0.6,0.1
			c0.2,0,0.3,0,0.5-0.1c0.2,0,0.3-0.1,0.5-0.2c0.1-0.1,0.3-0.2,0.4-0.3c0.1-0.1,0.1-0.3,0.1-0.5c0-0.2-0.1-0.3-0.2-0.4
			c-0.1-0.1-0.3-0.2-0.5-0.3c-0.2-0.1-0.5-0.2-0.8-0.3c-0.3-0.1-0.7-0.2-1.1-0.2c-0.3-0.1-0.6-0.2-1-0.3c-0.3-0.1-0.6-0.2-0.8-0.4
			c-0.2-0.2-0.4-0.4-0.6-0.6c-0.1-0.2-0.2-0.6-0.2-0.9c0-0.5,0.1-0.9,0.3-1.3c0.2-0.3,0.5-0.6,0.8-0.8c0.3-0.2,0.7-0.3,1.1-0.4
			s0.9-0.1,1.3-0.1s0.9,0,1.3,0.1c0.4,0.1,0.8,0.2,1.1,0.4c0.3,0.2,0.6,0.5,0.8,0.8s0.3,0.8,0.4,1.3h-2.1c0-0.4-0.2-0.7-0.5-0.9
			s-0.6-0.2-1-0.2c-0.1,0-0.3,0-0.4,0c-0.1,0-0.3,0-0.4,0.1c-0.1,0.1-0.2,0.1-0.3,0.2c-0.1,0.1-0.1,0.2-0.1,0.4
			c0,0.2,0.1,0.4,0.2,0.5c0.1,0.1,0.3,0.2,0.6,0.3c0.2,0.1,0.5,0.2,0.8,0.2c0.3,0.1,0.6,0.1,0.9,0.2c0.3,0.1,0.6,0.2,1,0.3
			c0.3,0.1,0.6,0.2,0.8,0.4c0.2,0.2,0.4,0.4,0.6,0.7c0.1,0.3,0.2,0.6,0.2,1c0,0.5-0.1,1-0.3,1.4c-0.2,0.4-0.5,0.7-0.8,0.9
			c-0.3,0.2-0.7,0.4-1.2,0.5c-0.4,0.1-0.9,0.1-1.4,0.1c-0.5,0-0.9,0-1.4-0.1c-0.5-0.1-0.9-0.3-1.2-0.5c-0.4-0.2-0.6-0.5-0.9-0.9
			c-0.2-0.4-0.4-0.8-0.4-1.4H276.1z"/>
		<path class="st0" d="M286.3,22.4h1.6v1.5h-1.6V28c0,0.4,0.1,0.6,0.2,0.8s0.4,0.2,0.8,0.2c0.3,0,0.5,0,0.7-0.1v1.8
			c-0.2,0-0.4,0.1-0.6,0.1c-0.2,0-0.5,0-0.7,0c-0.3,0-0.7,0-1-0.1c-0.3,0-0.6-0.1-0.8-0.3c-0.2-0.1-0.4-0.3-0.6-0.6s-0.2-0.6-0.2-1
			v-4.8h-1.4v-1.5h1.4v-2.5h2.3V22.4z"/>
		<path class="st0" d="M289.7,22.4h2.1v1.5h0c0.1-0.3,0.2-0.5,0.4-0.7s0.4-0.4,0.6-0.6s0.5-0.3,0.8-0.4c0.3-0.1,0.5-0.1,0.8-0.1
			c0.2,0,0.3,0,0.5,0.1v2.1c-0.1,0-0.2,0-0.4-0.1c-0.1,0-0.3,0-0.4,0c-0.4,0-0.8,0.1-1,0.2c-0.3,0.1-0.5,0.3-0.7,0.6
			c-0.2,0.2-0.3,0.5-0.4,0.8c-0.1,0.3-0.1,0.7-0.1,1v3.7h-2.3V22.4z"/>
		<path class="st0" d="M298.4,27c0,0.7,0.2,1.2,0.6,1.6c0.3,0.3,0.8,0.5,1.5,0.5c0.5,0,0.8-0.1,1.2-0.3c0.3-0.2,0.5-0.5,0.6-0.7h2
			c-0.3,1-0.8,1.7-1.5,2.1c-0.7,0.4-1.4,0.6-2.4,0.6c-0.6,0-1.2-0.1-1.7-0.3c-0.5-0.2-1-0.5-1.3-0.9s-0.6-0.8-0.8-1.4
			c-0.2-0.5-0.3-1.1-0.3-1.7c0-0.6,0.1-1.2,0.3-1.7c0.2-0.5,0.5-1,0.9-1.4c0.4-0.4,0.8-0.7,1.3-0.9c0.5-0.2,1.1-0.3,1.7-0.3
			c0.7,0,1.3,0.1,1.8,0.4c0.5,0.3,0.9,0.6,1.3,1.1c0.3,0.5,0.6,1,0.7,1.6c0.1,0.6,0.2,1.2,0.2,1.8H298.4z M302,25.6
			c-0.1-0.6-0.3-1-0.6-1.3s-0.7-0.4-1.2-0.4c-0.4,0-0.7,0.1-0.9,0.2c-0.2,0.1-0.4,0.3-0.6,0.5s-0.2,0.4-0.3,0.6
			c-0.1,0.2-0.1,0.4-0.1,0.5H302z M300.6,21.4H299l1.5-2.3h2.5L300.6,21.4z"/>
		<path class="st0" d="M308,27.9c0,0.2,0.1,0.5,0.2,0.6c0.1,0.2,0.2,0.3,0.4,0.4c0.2,0.1,0.3,0.2,0.5,0.2c0.2,0.1,0.4,0.1,0.6,0.1
			c0.2,0,0.3,0,0.5-0.1c0.2,0,0.3-0.1,0.5-0.2c0.1-0.1,0.3-0.2,0.4-0.3c0.1-0.1,0.1-0.3,0.1-0.5c0-0.2-0.1-0.3-0.2-0.4
			c-0.1-0.1-0.3-0.2-0.5-0.3c-0.2-0.1-0.5-0.2-0.8-0.3c-0.3-0.1-0.7-0.2-1.1-0.2c-0.3-0.1-0.6-0.2-1-0.3c-0.3-0.1-0.6-0.2-0.8-0.4
			c-0.2-0.2-0.4-0.4-0.6-0.6c-0.1-0.2-0.2-0.6-0.2-0.9c0-0.5,0.1-0.9,0.3-1.3c0.2-0.3,0.5-0.6,0.8-0.8c0.3-0.2,0.7-0.3,1.1-0.4
			s0.9-0.1,1.3-0.1s0.9,0,1.3,0.1c0.4,0.1,0.8,0.2,1.1,0.4c0.3,0.2,0.6,0.5,0.8,0.8s0.3,0.8,0.4,1.3h-2.1c0-0.4-0.2-0.7-0.5-0.9
			s-0.6-0.2-1-0.2c-0.1,0-0.3,0-0.4,0c-0.1,0-0.3,0-0.4,0.1c-0.1,0.1-0.2,0.1-0.3,0.2c-0.1,0.1-0.1,0.2-0.1,0.4
			c0,0.2,0.1,0.4,0.2,0.5c0.1,0.1,0.3,0.2,0.6,0.3c0.2,0.1,0.5,0.2,0.8,0.2c0.3,0.1,0.6,0.1,0.9,0.2c0.3,0.1,0.6,0.2,1,0.3
			c0.3,0.1,0.6,0.2,0.8,0.4c0.2,0.2,0.4,0.4,0.6,0.7c0.1,0.3,0.2,0.6,0.2,1c0,0.5-0.1,1-0.3,1.4c-0.2,0.4-0.5,0.7-0.8,0.9
			c-0.3,0.2-0.7,0.4-1.2,0.5c-0.4,0.1-0.9,0.1-1.4,0.1c-0.5,0-0.9,0-1.4-0.1c-0.5-0.1-0.9-0.3-1.2-0.5c-0.4-0.2-0.6-0.5-0.9-0.9
			c-0.2-0.4-0.4-0.8-0.4-1.4H308z"/>
		<path class="st1" d="M317.4,30.6c0,0.2,0,0.5-0.1,0.7c-0.1,0.2-0.1,0.4-0.3,0.6s-0.3,0.4-0.4,0.5c-0.2,0.1-0.4,0.3-0.6,0.3v-0.7
			c0.1,0,0.2-0.1,0.3-0.2c0.1-0.1,0.2-0.2,0.2-0.4s0.1-0.3,0.1-0.4s0-0.3,0-0.4h-0.7v-1.7h1.3V30.6z"/>
		<path class="st1" d="M325.8,23.7c0.2-0.3,0.4-0.6,0.7-0.9c0.3-0.2,0.6-0.4,1-0.5c0.4-0.1,0.8-0.2,1.3-0.2c0.4,0,0.7,0,1.1,0.1
			c0.4,0.1,0.7,0.2,1,0.4c0.3,0.2,0.5,0.5,0.7,0.8s0.3,0.8,0.3,1.3v4.3c0,0.4,0.2,0.6,0.6,0.6c0.1,0,0.2,0,0.3-0.1v0.8
			c-0.1,0-0.2,0-0.3,0s-0.2,0-0.3,0c-0.3,0-0.5,0-0.6-0.1c-0.2-0.1-0.3-0.2-0.4-0.3s-0.1-0.3-0.2-0.5c0-0.2,0-0.4,0-0.6h0
			c-0.2,0.3-0.4,0.5-0.5,0.7s-0.4,0.4-0.6,0.5s-0.5,0.2-0.8,0.3c-0.3,0.1-0.6,0.1-1,0.1c-0.4,0-0.7,0-1.1-0.1s-0.6-0.2-0.9-0.4
			c-0.2-0.2-0.4-0.4-0.6-0.7c-0.1-0.3-0.2-0.7-0.2-1.1c0-0.6,0.1-1,0.4-1.3c0.3-0.3,0.6-0.6,1-0.7c0.4-0.2,0.9-0.3,1.4-0.4
			c0.5-0.1,1.1-0.1,1.6-0.2c0.2,0,0.4,0,0.6-0.1c0.2,0,0.3-0.1,0.4-0.2c0.1-0.1,0.2-0.2,0.2-0.3c0.1-0.1,0.1-0.3,0.1-0.5
			c0-0.3-0.1-0.6-0.2-0.8c-0.1-0.2-0.3-0.4-0.5-0.5s-0.4-0.2-0.7-0.3S329,23,328.7,23c-0.6,0-1.2,0.2-1.6,0.5
			c-0.4,0.3-0.6,0.8-0.6,1.5h-1C325.5,24.4,325.6,24,325.8,23.7z M330.8,26.1c-0.1,0.1-0.2,0.2-0.4,0.3s-0.3,0.1-0.5,0.1
			c-0.4,0.1-0.9,0.1-1.3,0.2c-0.5,0.1-0.9,0.1-1.2,0.3s-0.7,0.3-0.9,0.5c-0.2,0.2-0.4,0.5-0.4,0.9c0,0.3,0,0.5,0.2,0.7
			c0.1,0.2,0.2,0.4,0.4,0.5s0.4,0.3,0.6,0.3c0.2,0.1,0.4,0.1,0.7,0.1c0.4,0,0.7-0.1,1.1-0.2s0.7-0.3,0.9-0.5
			c0.3-0.2,0.5-0.5,0.6-0.8s0.2-0.7,0.2-1.1L330.8,26.1L330.8,26.1z"/>
		<path class="st1" d="M339.2,24c-0.1-0.2-0.3-0.4-0.5-0.6c-0.2-0.1-0.4-0.3-0.7-0.3c-0.3-0.1-0.5-0.1-0.8-0.1c-0.2,0-0.4,0-0.7,0.1
			s-0.4,0.1-0.6,0.2c-0.2,0.1-0.3,0.3-0.5,0.4c-0.1,0.2-0.2,0.4-0.2,0.7c0,0.2,0.1,0.4,0.2,0.6c0.1,0.2,0.3,0.3,0.4,0.4
			s0.4,0.2,0.6,0.3s0.4,0.1,0.6,0.2l1.3,0.3c0.3,0,0.6,0.1,0.8,0.2c0.3,0.1,0.5,0.3,0.7,0.4s0.4,0.4,0.5,0.7
			c0.1,0.3,0.2,0.6,0.2,0.9c0,0.4-0.1,0.8-0.3,1.1c-0.2,0.3-0.5,0.6-0.8,0.8c-0.3,0.2-0.7,0.3-1.1,0.4c-0.4,0.1-0.8,0.1-1.2,0.1
			c-1,0-1.7-0.2-2.3-0.7c-0.6-0.5-0.9-1.2-1-2.2h1c0,0.7,0.3,1.2,0.7,1.5c0.4,0.3,1,0.5,1.7,0.5c0.2,0,0.5,0,0.8-0.1
			c0.3-0.1,0.5-0.1,0.7-0.3c0.2-0.1,0.4-0.3,0.5-0.5c0.1-0.2,0.2-0.4,0.2-0.7c0-0.2,0-0.4-0.2-0.6s-0.2-0.3-0.4-0.4
			c-0.2-0.1-0.4-0.2-0.6-0.3c-0.2-0.1-0.4-0.1-0.7-0.2l-1.3-0.3c-0.3-0.1-0.6-0.2-0.9-0.3c-0.3-0.1-0.5-0.2-0.7-0.4
			s-0.4-0.4-0.5-0.6c-0.1-0.2-0.2-0.5-0.2-0.9c0-0.4,0.1-0.8,0.3-1.1c0.2-0.3,0.4-0.5,0.7-0.7s0.6-0.3,1-0.4
			c0.4-0.1,0.7-0.1,1.1-0.1c0.4,0,0.8,0.1,1.2,0.2c0.4,0.1,0.7,0.3,0.9,0.5c0.3,0.2,0.5,0.5,0.6,0.8c0.2,0.3,0.2,0.7,0.3,1.2h-1
			C339.3,24.5,339.3,24.2,339.2,24z"/>
		<path class="st1" d="M342.3,21.3l1.7-2.2h1.2l-2.1,2.2H342.3z M342.7,22.4h1v8.2h-1V22.4z"/>
		<path class="st1" d="M356.3,23.5c-0.4-0.3-0.9-0.5-1.6-0.5c-0.5,0-0.9,0.1-1.3,0.3c-0.4,0.2-0.7,0.5-0.9,0.8
			c-0.2,0.3-0.4,0.7-0.5,1.1c-0.1,0.4-0.2,0.8-0.2,1.3s0.1,0.9,0.2,1.3c0.1,0.4,0.3,0.8,0.5,1.1c0.2,0.3,0.5,0.6,0.9,0.8
			c0.4,0.2,0.8,0.3,1.3,0.3c0.3,0,0.6-0.1,0.9-0.2c0.3-0.1,0.5-0.3,0.7-0.5s0.4-0.5,0.5-0.7c0.1-0.3,0.2-0.6,0.3-0.9h1
			c-0.1,1-0.5,1.8-1.1,2.3c-0.6,0.6-1.4,0.8-2.3,0.8c-0.6,0-1.2-0.1-1.7-0.3c-0.5-0.2-0.9-0.5-1.2-0.9c-0.3-0.4-0.6-0.8-0.7-1.4
			s-0.3-1.1-0.3-1.7s0.1-1.1,0.3-1.7s0.4-1,0.7-1.4c0.3-0.4,0.7-0.7,1.2-0.9c0.5-0.2,1-0.3,1.7-0.3c0.9,0,1.6,0.2,2.2,0.7
			c0.6,0.5,1,1.2,1.1,2.1h-1C357,24.4,356.7,23.9,356.3,23.5z"/>
		<path class="st1" d="M365.3,22.5c0.5,0.2,0.9,0.5,1.2,0.9c0.3,0.4,0.6,0.8,0.7,1.4c0.2,0.5,0.3,1.1,0.3,1.7s-0.1,1.1-0.3,1.7
			c-0.2,0.5-0.4,1-0.7,1.4c-0.3,0.4-0.7,0.7-1.2,0.9c-0.5,0.2-1,0.3-1.7,0.3s-1.2-0.1-1.7-0.3c-0.5-0.2-0.9-0.5-1.2-0.9
			c-0.3-0.4-0.6-0.8-0.7-1.4s-0.3-1.1-0.3-1.7s0.1-1.1,0.3-1.7s0.4-1,0.7-1.4c0.3-0.4,0.7-0.7,1.2-0.9c0.5-0.2,1-0.3,1.7-0.3
			S364.8,22.3,365.3,22.5z M362.4,23.3c-0.4,0.2-0.7,0.5-0.9,0.8c-0.2,0.3-0.4,0.7-0.5,1.1c-0.1,0.4-0.2,0.8-0.2,1.3
			s0.1,0.9,0.2,1.3c0.1,0.4,0.3,0.8,0.5,1.1c0.2,0.3,0.5,0.6,0.9,0.8c0.4,0.2,0.8,0.3,1.3,0.3s0.9-0.1,1.3-0.3
			c0.4-0.2,0.7-0.5,0.9-0.8c0.2-0.3,0.4-0.7,0.5-1.1c0.1-0.4,0.2-0.8,0.2-1.3s-0.1-0.9-0.2-1.3c-0.1-0.4-0.3-0.8-0.5-1.1
			c-0.2-0.3-0.5-0.6-0.9-0.8c-0.4-0.2-0.8-0.3-1.3-0.3S362.8,23.1,362.4,23.3z"/>
		<path class="st1" d="M370.6,22.4v1.4h0c0.3-0.5,0.6-0.9,1-1.2c0.4-0.3,1-0.4,1.6-0.4c0.5,0,1,0.1,1.5,0.4c0.4,0.3,0.7,0.7,0.9,1.2
			c0.2-0.5,0.6-0.9,1.1-1.2c0.5-0.3,1-0.4,1.5-0.4c1.8,0,2.7,1,2.7,2.9v5.6h-1v-5.5c0-0.7-0.1-1.2-0.4-1.5c-0.3-0.4-0.8-0.5-1.5-0.5
			c-0.4,0-0.8,0.1-1.1,0.2s-0.5,0.4-0.7,0.7c-0.2,0.3-0.3,0.6-0.4,0.9c-0.1,0.4-0.1,0.7-0.1,1.1v4.6h-1V25c0-0.3,0-0.5-0.1-0.8
			c-0.1-0.2-0.2-0.5-0.3-0.7c-0.1-0.2-0.3-0.3-0.5-0.4c-0.2-0.1-0.5-0.2-0.8-0.2c-0.4,0-0.8,0.1-1.1,0.2c-0.3,0.2-0.6,0.4-0.8,0.6
			c-0.2,0.3-0.3,0.6-0.4,1c-0.1,0.4-0.1,0.8-0.1,1.2v4.6h-1v-8.2H370.6z"/>
		<path class="st1" d="M388.6,22.5c0.5,0.2,0.9,0.5,1.2,0.9c0.3,0.4,0.6,0.8,0.7,1.4c0.2,0.5,0.3,1.1,0.3,1.7s-0.1,1.1-0.3,1.7
			c-0.2,0.5-0.4,1-0.7,1.4c-0.3,0.4-0.7,0.7-1.2,0.9c-0.5,0.2-1,0.3-1.7,0.3s-1.2-0.1-1.7-0.3c-0.5-0.2-0.9-0.5-1.2-0.9
			c-0.3-0.4-0.6-0.8-0.7-1.4s-0.3-1.1-0.3-1.7s0.1-1.1,0.3-1.7s0.4-1,0.7-1.4c0.3-0.4,0.7-0.7,1.2-0.9c0.5-0.2,1-0.3,1.7-0.3
			S388.1,22.3,388.6,22.5z M385.7,23.3c-0.4,0.2-0.7,0.5-0.9,0.8c-0.2,0.3-0.4,0.7-0.5,1.1c-0.1,0.4-0.2,0.8-0.2,1.3
			s0.1,0.9,0.2,1.3c0.1,0.4,0.3,0.8,0.5,1.1c0.2,0.3,0.5,0.6,0.9,0.8c0.4,0.2,0.8,0.3,1.3,0.3s0.9-0.1,1.3-0.3
			c0.4-0.2,0.7-0.5,0.9-0.8c0.2-0.3,0.4-0.7,0.5-1.1c0.1-0.4,0.2-0.8,0.2-1.3s-0.1-0.9-0.2-1.3c-0.1-0.4-0.3-0.8-0.5-1.1
			c-0.2-0.3-0.5-0.6-0.9-0.8c-0.4-0.2-0.8-0.3-1.3-0.3S386.1,23.1,385.7,23.3z"/>
		<path class="st1" d="M398.9,22.4V24h0c0.2-0.6,0.6-1,1.1-1.3c0.5-0.3,1.1-0.5,1.8-0.5c0.6,0,1.2,0.1,1.6,0.3s0.8,0.5,1.1,0.9
			s0.5,0.9,0.7,1.4c0.1,0.5,0.2,1.1,0.2,1.7c0,0.6-0.1,1.1-0.2,1.7c-0.1,0.5-0.4,1-0.7,1.4s-0.7,0.7-1.1,0.9c-0.5,0.2-1,0.3-1.6,0.3
			c-0.3,0-0.6,0-0.9-0.1c-0.3-0.1-0.6-0.2-0.8-0.3c-0.3-0.1-0.5-0.3-0.7-0.6c-0.2-0.2-0.3-0.5-0.5-0.8h0v4.6h-1V22.4H398.9z
			 M404.4,25.2c-0.1-0.4-0.3-0.8-0.5-1.1s-0.5-0.6-0.8-0.8c-0.3-0.2-0.7-0.3-1.2-0.3c-0.5,0-1,0.1-1.4,0.3c-0.4,0.2-0.7,0.4-0.9,0.8
			c-0.2,0.3-0.4,0.7-0.5,1.1c-0.1,0.4-0.1,0.9-0.1,1.3c0,0.4,0,0.8,0.2,1.3c0.1,0.4,0.3,0.8,0.5,1.1c0.2,0.3,0.5,0.6,0.9,0.8
			c0.4,0.2,0.8,0.3,1.3,0.3c0.5,0,0.9-0.1,1.2-0.3c0.3-0.2,0.6-0.5,0.8-0.8c0.2-0.3,0.4-0.7,0.5-1.1c0.1-0.4,0.2-0.8,0.2-1.3
			S404.5,25.7,404.4,25.2z"/>
		<path class="st1" d="M407.9,23.7c0.2-0.3,0.4-0.6,0.7-0.9c0.3-0.2,0.6-0.4,1-0.5c0.4-0.1,0.8-0.2,1.3-0.2c0.4,0,0.7,0,1.1,0.1
			c0.4,0.1,0.7,0.2,1,0.4c0.3,0.2,0.5,0.5,0.7,0.8s0.3,0.8,0.3,1.3v4.3c0,0.4,0.2,0.6,0.6,0.6c0.1,0,0.2,0,0.3-0.1v0.8
			c-0.1,0-0.2,0-0.3,0s-0.2,0-0.3,0c-0.3,0-0.5,0-0.6-0.1c-0.2-0.1-0.3-0.2-0.4-0.3s-0.1-0.3-0.2-0.5c0-0.2,0-0.4,0-0.6h0
			c-0.2,0.3-0.4,0.5-0.5,0.7s-0.4,0.4-0.6,0.5s-0.5,0.2-0.8,0.3c-0.3,0.1-0.6,0.1-1,0.1c-0.4,0-0.7,0-1.1-0.1s-0.6-0.2-0.9-0.4
			c-0.2-0.2-0.4-0.4-0.6-0.7c-0.1-0.3-0.2-0.7-0.2-1.1c0-0.6,0.1-1,0.4-1.3c0.3-0.3,0.6-0.6,1-0.7c0.4-0.2,0.9-0.3,1.4-0.4
			c0.5-0.1,1.1-0.1,1.6-0.2c0.2,0,0.4,0,0.6-0.1c0.2,0,0.3-0.1,0.4-0.2c0.1-0.1,0.2-0.2,0.2-0.3c0.1-0.1,0.1-0.3,0.1-0.5
			c0-0.3-0.1-0.6-0.2-0.8c-0.1-0.2-0.3-0.4-0.5-0.5s-0.4-0.2-0.7-0.3s-0.5-0.1-0.8-0.1c-0.6,0-1.2,0.2-1.6,0.5
			c-0.4,0.3-0.6,0.8-0.6,1.5h-1C407.7,24.4,407.8,24,407.9,23.7z M412.9,26.1c-0.1,0.1-0.2,0.2-0.4,0.3s-0.3,0.1-0.5,0.1
			c-0.4,0.1-0.9,0.1-1.3,0.2c-0.5,0.1-0.9,0.1-1.2,0.3s-0.7,0.3-0.9,0.5c-0.2,0.2-0.4,0.5-0.4,0.9c0,0.3,0,0.5,0.2,0.7
			c0.1,0.2,0.2,0.4,0.4,0.5s0.4,0.3,0.6,0.3c0.2,0.1,0.4,0.1,0.7,0.1c0.4,0,0.7-0.1,1.1-0.2s0.7-0.3,0.9-0.5
			c0.3-0.2,0.5-0.5,0.6-0.8s0.2-0.7,0.2-1.1L412.9,26.1L412.9,26.1z"/>
		<path class="st1" d="M417.5,22.4v1.9h0c0.3-0.7,0.6-1.2,1.2-1.5c0.5-0.4,1.2-0.5,1.9-0.5v1c-0.5,0-0.9,0-1.2,0.2s-0.7,0.3-1,0.6
			c-0.3,0.3-0.5,0.6-0.6,0.9c-0.1,0.4-0.2,0.8-0.2,1.2v4.4h-1v-8.2H417.5z"/>
		<path class="st1" d="M422.4,23.7c0.2-0.3,0.4-0.6,0.7-0.9c0.3-0.2,0.6-0.4,1-0.5c0.4-0.1,0.8-0.2,1.3-0.2c0.4,0,0.7,0,1.1,0.1
			c0.4,0.1,0.7,0.2,1,0.4c0.3,0.2,0.5,0.5,0.7,0.8s0.3,0.8,0.3,1.3v4.3c0,0.4,0.2,0.6,0.6,0.6c0.1,0,0.2,0,0.3-0.1v0.8
			c-0.1,0-0.2,0-0.3,0s-0.2,0-0.3,0c-0.3,0-0.5,0-0.6-0.1c-0.2-0.1-0.3-0.2-0.4-0.3s-0.1-0.3-0.2-0.5c0-0.2,0-0.4,0-0.6h0
			c-0.2,0.3-0.4,0.5-0.5,0.7s-0.4,0.4-0.6,0.5s-0.5,0.2-0.8,0.3c-0.3,0.1-0.6,0.1-1,0.1c-0.4,0-0.7,0-1.1-0.1s-0.6-0.2-0.9-0.4
			c-0.2-0.2-0.4-0.4-0.6-0.7c-0.1-0.3-0.2-0.7-0.2-1.1c0-0.6,0.1-1,0.4-1.3c0.3-0.3,0.6-0.6,1-0.7c0.4-0.2,0.9-0.3,1.4-0.4
			c0.5-0.1,1.1-0.1,1.6-0.2c0.2,0,0.4,0,0.6-0.1c0.2,0,0.3-0.1,0.4-0.2c0.1-0.1,0.2-0.2,0.2-0.3c0.1-0.1,0.1-0.3,0.1-0.5
			c0-0.3-0.1-0.6-0.2-0.8c-0.1-0.2-0.3-0.4-0.5-0.5s-0.4-0.2-0.7-0.3s-0.5-0.1-0.8-0.1c-0.6,0-1.2,0.2-1.6,0.5
			c-0.4,0.3-0.6,0.8-0.6,1.5h-1C422.2,24.4,422.3,24,422.4,23.7z M427.4,26.1c-0.1,0.1-0.2,0.2-0.4,0.3s-0.3,0.1-0.5,0.1
			c-0.4,0.1-0.9,0.1-1.3,0.2c-0.5,0.1-0.9,0.1-1.2,0.3s-0.7,0.3-0.9,0.5c-0.2,0.2-0.4,0.5-0.4,0.9c0,0.3,0,0.5,0.2,0.7
			c0.1,0.2,0.2,0.4,0.4,0.5s0.4,0.3,0.6,0.3c0.2,0.1,0.4,0.1,0.7,0.1c0.4,0,0.7-0.1,1.1-0.2s0.7-0.3,0.9-0.5
			c0.3-0.2,0.5-0.5,0.6-0.8s0.2-0.7,0.2-1.1L427.4,26.1L427.4,26.1z"/>
		<path class="st1" d="M437.1,19.3v11.3h-1V19.3H437.1z"/>
		<path class="st1" d="M439.9,23.7c0.2-0.3,0.4-0.6,0.7-0.9c0.3-0.2,0.6-0.4,1-0.5c0.4-0.1,0.8-0.2,1.3-0.2c0.4,0,0.7,0,1.1,0.1
			c0.4,0.1,0.7,0.2,1,0.4c0.3,0.2,0.5,0.5,0.7,0.8s0.3,0.8,0.3,1.3v4.3c0,0.4,0.2,0.6,0.6,0.6c0.1,0,0.2,0,0.3-0.1v0.8
			c-0.1,0-0.2,0-0.3,0s-0.2,0-0.3,0c-0.3,0-0.5,0-0.6-0.1c-0.2-0.1-0.3-0.2-0.4-0.3s-0.1-0.3-0.2-0.5c0-0.2,0-0.4,0-0.6h0
			c-0.2,0.3-0.4,0.5-0.5,0.7s-0.4,0.4-0.6,0.5s-0.5,0.2-0.8,0.3c-0.3,0.1-0.6,0.1-1,0.1c-0.4,0-0.7,0-1.1-0.1s-0.6-0.2-0.9-0.4
			c-0.2-0.2-0.4-0.4-0.6-0.7c-0.1-0.3-0.2-0.7-0.2-1.1c0-0.6,0.1-1,0.4-1.3c0.3-0.3,0.6-0.6,1-0.7c0.4-0.2,0.9-0.3,1.4-0.4
			c0.5-0.1,1.1-0.1,1.6-0.2c0.2,0,0.4,0,0.6-0.1c0.2,0,0.3-0.1,0.4-0.2c0.1-0.1,0.2-0.2,0.2-0.3c0.1-0.1,0.1-0.3,0.1-0.5
			c0-0.3-0.1-0.6-0.2-0.8c-0.1-0.2-0.3-0.4-0.5-0.5s-0.4-0.2-0.7-0.3s-0.5-0.1-0.8-0.1c-0.6,0-1.2,0.2-1.6,0.5
			c-0.4,0.3-0.6,0.8-0.6,1.5h-1C439.6,24.4,439.7,24,439.9,23.7z M444.9,26.1c-0.1,0.1-0.2,0.2-0.4,0.3s-0.3,0.1-0.5,0.1
			c-0.4,0.1-0.9,0.1-1.3,0.2c-0.5,0.1-0.9,0.1-1.2,0.3s-0.7,0.3-0.9,0.5c-0.2,0.2-0.4,0.5-0.4,0.9c0,0.3,0,0.5,0.2,0.7
			c0.1,0.2,0.2,0.4,0.4,0.5s0.4,0.3,0.6,0.3c0.2,0.1,0.4,0.1,0.7,0.1c0.4,0,0.7-0.1,1.1-0.2s0.7-0.3,0.9-0.5
			c0.3-0.2,0.5-0.5,0.6-0.8s0.2-0.7,0.2-1.1L444.9,26.1L444.9,26.1z"/>
		<path class="st1" d="M454.3,27.9c0.1,0.4,0.3,0.7,0.5,1s0.5,0.6,0.8,0.8c0.3,0.2,0.7,0.3,1.2,0.3c0.7,0,1.3-0.2,1.7-0.6
			s0.7-0.9,0.9-1.5h1c-0.2,0.9-0.6,1.6-1.2,2.2c-0.6,0.5-1.4,0.8-2.4,0.8c-0.6,0-1.2-0.1-1.7-0.3c-0.5-0.2-0.9-0.5-1.2-0.9
			s-0.5-0.9-0.7-1.4c-0.1-0.5-0.2-1.1-0.2-1.7c0-0.5,0.1-1.1,0.2-1.6c0.1-0.5,0.4-1,0.7-1.4s0.7-0.7,1.2-1c0.5-0.2,1-0.4,1.7-0.4
			c0.7,0,1.2,0.1,1.7,0.4c0.5,0.3,0.8,0.6,1.1,1c0.3,0.4,0.5,0.9,0.6,1.5c0.1,0.6,0.2,1.1,0.2,1.7h-6.3
			C454.2,27.1,454.2,27.5,454.3,27.9z M459.3,24.8c-0.1-0.3-0.3-0.7-0.5-0.9c-0.2-0.3-0.5-0.5-0.8-0.7c-0.3-0.2-0.7-0.2-1.1-0.2
			c-0.4,0-0.8,0.1-1.1,0.2c-0.3,0.2-0.6,0.4-0.8,0.7c-0.2,0.3-0.4,0.6-0.5,0.9c-0.1,0.4-0.2,0.7-0.3,1.1h5.3
			C459.5,25.6,459.4,25.2,459.3,24.8z"/>
		<path class="st1" d="M465.7,22.4v0.8h-1.7v5.5c0,0.3,0,0.6,0.1,0.8c0.1,0.2,0.3,0.3,0.7,0.3c0.3,0,0.6,0,0.9,0v0.8
			c-0.1,0-0.3,0-0.4,0c-0.1,0-0.3,0-0.4,0c-0.7,0-1.1-0.1-1.4-0.4c-0.3-0.3-0.4-0.7-0.4-1.4v-5.6h-1.4v-0.8h1.4V20h1v2.5H465.7z"/>
		<path class="st1" d="M468,23.7c0.2-0.3,0.4-0.6,0.7-0.9c0.3-0.2,0.6-0.4,1-0.5c0.4-0.1,0.8-0.2,1.3-0.2c0.4,0,0.7,0,1.1,0.1
			c0.4,0.1,0.7,0.2,1,0.4c0.3,0.2,0.5,0.5,0.7,0.8s0.3,0.8,0.3,1.3v4.3c0,0.4,0.2,0.6,0.6,0.6c0.1,0,0.2,0,0.3-0.1v0.8
			c-0.1,0-0.2,0-0.3,0s-0.2,0-0.3,0c-0.3,0-0.5,0-0.6-0.1c-0.2-0.1-0.3-0.2-0.4-0.3s-0.1-0.3-0.2-0.5c0-0.2,0-0.4,0-0.6h0
			c-0.2,0.3-0.4,0.5-0.5,0.7s-0.4,0.4-0.6,0.5s-0.5,0.2-0.8,0.3c-0.3,0.1-0.6,0.1-1,0.1c-0.4,0-0.7,0-1.1-0.1s-0.6-0.2-0.9-0.4
			c-0.2-0.2-0.4-0.4-0.6-0.7c-0.1-0.3-0.2-0.7-0.2-1.1c0-0.6,0.1-1,0.4-1.3c0.3-0.3,0.6-0.6,1-0.7c0.4-0.2,0.9-0.3,1.4-0.4
			c0.5-0.1,1.1-0.1,1.6-0.2c0.2,0,0.4,0,0.6-0.1c0.2,0,0.3-0.1,0.4-0.2c0.1-0.1,0.2-0.2,0.2-0.3c0.1-0.1,0.1-0.3,0.1-0.5
			c0-0.3-0.1-0.6-0.2-0.8c-0.1-0.2-0.3-0.4-0.5-0.5s-0.4-0.2-0.7-0.3s-0.5-0.1-0.8-0.1c-0.6,0-1.2,0.2-1.6,0.5
			c-0.4,0.3-0.6,0.8-0.6,1.5h-1C467.7,24.4,467.8,24,468,23.7z M473,26.1c-0.1,0.1-0.2,0.2-0.4,0.3s-0.3,0.1-0.5,0.1
			c-0.4,0.1-0.9,0.1-1.3,0.2c-0.5,0.1-0.9,0.1-1.2,0.3s-0.7,0.3-0.9,0.5c-0.2,0.2-0.4,0.5-0.4,0.9c0,0.3,0,0.5,0.2,0.7
			c0.1,0.2,0.2,0.4,0.4,0.5s0.4,0.3,0.6,0.3c0.2,0.1,0.4,0.1,0.7,0.1c0.4,0,0.7-0.1,1.1-0.2s0.7-0.3,0.9-0.5
			c0.3-0.2,0.5-0.5,0.6-0.8s0.2-0.7,0.2-1.1L473,26.1L473,26.1z"/>
		<path class="st1" d="M477.6,22.4V24h0c0.2-0.6,0.6-1,1.1-1.3c0.5-0.3,1.1-0.5,1.8-0.5c0.6,0,1.2,0.1,1.6,0.3s0.8,0.5,1.1,0.9
			s0.5,0.9,0.7,1.4c0.1,0.5,0.2,1.1,0.2,1.7c0,0.6-0.1,1.1-0.2,1.7c-0.1,0.5-0.4,1-0.7,1.4s-0.7,0.7-1.1,0.9c-0.5,0.2-1,0.3-1.6,0.3
			c-0.3,0-0.6,0-0.9-0.1c-0.3-0.1-0.6-0.2-0.8-0.3c-0.3-0.1-0.5-0.3-0.7-0.6c-0.2-0.2-0.3-0.5-0.5-0.8h0v4.6h-1V22.4H477.6z
			 M483.1,25.2c-0.1-0.4-0.3-0.8-0.5-1.1s-0.5-0.6-0.8-0.8c-0.3-0.2-0.7-0.3-1.2-0.3c-0.5,0-1,0.1-1.4,0.3c-0.4,0.2-0.7,0.4-0.9,0.8
			c-0.2,0.3-0.4,0.7-0.5,1.1c-0.1,0.4-0.1,0.9-0.1,1.3c0,0.4,0,0.8,0.2,1.3c0.1,0.4,0.3,0.8,0.5,1.1c0.2,0.3,0.5,0.6,0.9,0.8
			c0.4,0.2,0.8,0.3,1.3,0.3c0.5,0,0.9-0.1,1.2-0.3c0.3-0.2,0.6-0.5,0.8-0.8c0.2-0.3,0.4-0.7,0.5-1.1c0.1-0.4,0.2-0.8,0.2-1.3
			S483.2,25.7,483.1,25.2z"/>
		<path class="st1" d="M486.6,23.7c0.2-0.3,0.4-0.6,0.7-0.9c0.3-0.2,0.6-0.4,1-0.5c0.4-0.1,0.8-0.2,1.3-0.2c0.4,0,0.7,0,1.1,0.1
			c0.4,0.1,0.7,0.2,1,0.4c0.3,0.2,0.5,0.5,0.7,0.8s0.3,0.8,0.3,1.3v4.3c0,0.4,0.2,0.6,0.6,0.6c0.1,0,0.2,0,0.3-0.1v0.8
			c-0.1,0-0.2,0-0.3,0s-0.2,0-0.3,0c-0.3,0-0.5,0-0.6-0.1c-0.2-0.1-0.3-0.2-0.4-0.3s-0.1-0.3-0.2-0.5c0-0.2,0-0.4,0-0.6h0
			c-0.2,0.3-0.4,0.5-0.5,0.7s-0.4,0.4-0.6,0.5s-0.5,0.2-0.8,0.3c-0.3,0.1-0.6,0.1-1,0.1c-0.4,0-0.7,0-1.1-0.1s-0.6-0.2-0.9-0.4
			c-0.2-0.2-0.4-0.4-0.6-0.7c-0.1-0.3-0.2-0.7-0.2-1.1c0-0.6,0.1-1,0.4-1.3c0.3-0.3,0.6-0.6,1-0.7c0.4-0.2,0.9-0.3,1.4-0.4
			c0.5-0.1,1.1-0.1,1.6-0.2c0.2,0,0.4,0,0.6-0.1c0.2,0,0.3-0.1,0.4-0.2c0.1-0.1,0.2-0.2,0.2-0.3c0.1-0.1,0.1-0.3,0.1-0.5
			c0-0.3-0.1-0.6-0.2-0.8c-0.1-0.2-0.3-0.4-0.5-0.5s-0.4-0.2-0.7-0.3s-0.5-0.1-0.8-0.1c-0.6,0-1.2,0.2-1.6,0.5
			c-0.4,0.3-0.6,0.8-0.6,1.5h-1C486.3,24.4,486.4,24,486.6,23.7z M491.6,26.1c-0.1,0.1-0.2,0.2-0.4,0.3s-0.3,0.1-0.5,0.1
			c-0.4,0.1-0.9,0.1-1.3,0.2c-0.5,0.1-0.9,0.1-1.2,0.3s-0.7,0.3-0.9,0.5c-0.2,0.2-0.4,0.5-0.4,0.9c0,0.3,0,0.5,0.2,0.7
			c0.1,0.2,0.2,0.4,0.4,0.5s0.4,0.3,0.6,0.3c0.2,0.1,0.4,0.1,0.7,0.1c0.4,0,0.7-0.1,1.1-0.2s0.7-0.3,0.9-0.5
			c0.3-0.2,0.5-0.5,0.6-0.8s0.2-0.7,0.2-1.1L491.6,26.1L491.6,26.1z"/>
		<path class="st1" d="M501.2,22.4V24h0c0.2-0.6,0.6-1,1.1-1.3c0.5-0.3,1.1-0.5,1.8-0.5c0.6,0,1.2,0.1,1.6,0.3s0.8,0.5,1.1,0.9
			s0.5,0.9,0.7,1.4c0.1,0.5,0.2,1.1,0.2,1.7c0,0.6-0.1,1.1-0.2,1.7c-0.1,0.5-0.4,1-0.7,1.4s-0.7,0.7-1.1,0.9c-0.5,0.2-1,0.3-1.6,0.3
			c-0.3,0-0.6,0-0.9-0.1c-0.3-0.1-0.6-0.2-0.8-0.3c-0.3-0.1-0.5-0.3-0.7-0.6c-0.2-0.2-0.3-0.5-0.5-0.8h0v4.6h-1V22.4H501.2z
			 M506.7,25.2c-0.1-0.4-0.3-0.8-0.5-1.1s-0.5-0.6-0.8-0.8c-0.3-0.2-0.7-0.3-1.2-0.3c-0.5,0-1,0.1-1.4,0.3c-0.4,0.2-0.7,0.4-0.9,0.8
			c-0.2,0.3-0.4,0.7-0.5,1.1c-0.1,0.4-0.1,0.9-0.1,1.3c0,0.4,0,0.8,0.2,1.3c0.1,0.4,0.3,0.8,0.5,1.1c0.2,0.3,0.5,0.6,0.9,0.8
			c0.4,0.2,0.8,0.3,1.3,0.3c0.5,0,0.9-0.1,1.2-0.3c0.3-0.2,0.6-0.5,0.8-0.8c0.2-0.3,0.4-0.7,0.5-1.1c0.1-0.4,0.2-0.8,0.2-1.3
			S506.8,25.7,506.7,25.2z"/>
		<path class="st1" d="M511,22.4v1.9h0c0.3-0.7,0.6-1.2,1.2-1.5c0.5-0.4,1.2-0.5,1.9-0.5v1c-0.5,0-0.9,0-1.2,0.2s-0.7,0.3-1,0.6
			c-0.3,0.3-0.5,0.6-0.6,0.9c-0.1,0.4-0.2,0.8-0.2,1.2v4.4h-1v-8.2H511z"/>
		<path class="st1" d="M516.4,27.9c0.1,0.4,0.3,0.7,0.5,1s0.5,0.6,0.8,0.8c0.3,0.2,0.7,0.3,1.2,0.3c0.7,0,1.3-0.2,1.7-0.6
			s0.7-0.9,0.9-1.5h1c-0.2,0.9-0.6,1.6-1.2,2.2c-0.6,0.5-1.4,0.8-2.4,0.8c-0.6,0-1.2-0.1-1.7-0.3c-0.5-0.2-0.9-0.5-1.2-0.9
			s-0.5-0.9-0.7-1.4c-0.1-0.5-0.2-1.1-0.2-1.7c0-0.5,0.1-1.1,0.2-1.6c0.1-0.5,0.4-1,0.7-1.4s0.7-0.7,1.2-1c0.5-0.2,1-0.4,1.7-0.4
			c0.7,0,1.2,0.1,1.7,0.4c0.5,0.3,0.8,0.6,1.1,1c0.3,0.4,0.5,0.9,0.6,1.5c0.1,0.6,0.2,1.1,0.2,1.7h-6.3
			C516.3,27.1,516.3,27.5,516.4,27.9z M521.4,24.8c-0.1-0.3-0.3-0.7-0.5-0.9c-0.2-0.3-0.5-0.5-0.8-0.7c-0.3-0.2-0.7-0.2-1.1-0.2
			c-0.4,0-0.8,0.1-1.1,0.2c-0.3,0.2-0.6,0.4-0.8,0.7c-0.2,0.3-0.4,0.6-0.5,0.9c-0.1,0.4-0.2,0.7-0.3,1.1h5.3
			C521.6,25.6,521.5,25.2,521.4,24.8z"/>
		<path class="st1" d="M524.7,22.4l2.6,7.2h0l2.5-7.2h1l-3.1,8.2h-1.1l-3.2-8.2H524.7z"/>
		<path class="st1" d="M533.5,19.3v1.6h-1v-1.6H533.5z M533.5,22.4v8.2h-1v-8.2H533.5z"/>
		<path class="st1" d="M536.3,23.7c0.2-0.3,0.4-0.6,0.7-0.9c0.3-0.2,0.6-0.4,1-0.5c0.4-0.1,0.8-0.2,1.3-0.2c0.4,0,0.7,0,1.1,0.1
			c0.4,0.1,0.7,0.2,1,0.4c0.3,0.2,0.5,0.5,0.7,0.8s0.3,0.8,0.3,1.3v4.3c0,0.4,0.2,0.6,0.6,0.6c0.1,0,0.2,0,0.3-0.1v0.8
			c-0.1,0-0.2,0-0.3,0s-0.2,0-0.3,0c-0.3,0-0.5,0-0.6-0.1c-0.2-0.1-0.3-0.2-0.4-0.3s-0.1-0.3-0.2-0.5c0-0.2,0-0.4,0-0.6h0
			c-0.2,0.3-0.4,0.5-0.5,0.7s-0.4,0.4-0.6,0.5s-0.5,0.2-0.8,0.3c-0.3,0.1-0.6,0.1-1,0.1c-0.4,0-0.7,0-1.1-0.1s-0.6-0.2-0.9-0.4
			c-0.2-0.2-0.4-0.4-0.6-0.7c-0.1-0.3-0.2-0.7-0.2-1.1c0-0.6,0.1-1,0.4-1.3c0.3-0.3,0.6-0.6,1-0.7c0.4-0.2,0.9-0.3,1.4-0.4
			c0.5-0.1,1.1-0.1,1.6-0.2c0.2,0,0.4,0,0.6-0.1c0.2,0,0.3-0.1,0.4-0.2c0.1-0.1,0.2-0.2,0.2-0.3c0.1-0.1,0.1-0.3,0.1-0.5
			c0-0.3-0.1-0.6-0.2-0.8c-0.1-0.2-0.3-0.4-0.5-0.5s-0.4-0.2-0.7-0.3s-0.5-0.1-0.8-0.1c-0.6,0-1.2,0.2-1.6,0.5
			c-0.4,0.3-0.6,0.8-0.6,1.5h-1C536,24.4,536.1,24,536.3,23.7z M541.3,26.1c-0.1,0.1-0.2,0.2-0.4,0.3s-0.3,0.1-0.5,0.1
			c-0.4,0.1-0.9,0.1-1.3,0.2c-0.5,0.1-0.9,0.1-1.2,0.3s-0.7,0.3-0.9,0.5c-0.2,0.2-0.4,0.5-0.4,0.9c0,0.3,0,0.5,0.2,0.7
			c0.1,0.2,0.2,0.4,0.4,0.5s0.4,0.3,0.6,0.3c0.2,0.1,0.4,0.1,0.7,0.1c0.4,0,0.7-0.1,1.1-0.2s0.7-0.3,0.9-0.5
			c0.3-0.2,0.5-0.5,0.6-0.8s0.2-0.7,0.2-1.1L541.3,26.1L541.3,26.1z"/>
		<path class="st1" d="M556.3,30.6V29h0c-0.1,0.3-0.3,0.5-0.5,0.7c-0.2,0.2-0.4,0.4-0.7,0.6c-0.3,0.2-0.5,0.3-0.8,0.4
			c-0.3,0.1-0.6,0.1-0.9,0.1c-0.6,0-1.2-0.1-1.6-0.3c-0.5-0.2-0.8-0.5-1.1-0.9s-0.5-0.9-0.7-1.4c-0.1-0.5-0.2-1.1-0.2-1.7
			c0-0.6,0.1-1.1,0.2-1.7c0.1-0.5,0.4-1,0.7-1.4s0.7-0.7,1.1-0.9s1-0.3,1.6-0.3c0.3,0,0.6,0,0.9,0.1c0.3,0.1,0.6,0.2,0.8,0.3
			s0.5,0.3,0.7,0.6c0.2,0.2,0.3,0.5,0.5,0.8h0v-4.7h1v11.3H556.3z M550.8,27.8c0.1,0.4,0.3,0.8,0.5,1.1c0.2,0.3,0.5,0.6,0.8,0.8
			c0.3,0.2,0.7,0.3,1.2,0.3c0.5,0,1-0.1,1.3-0.3c0.4-0.2,0.7-0.5,0.9-0.8c0.2-0.3,0.4-0.7,0.5-1.1c0.1-0.4,0.2-0.8,0.2-1.3
			s0-0.8-0.2-1.3s-0.3-0.8-0.5-1.1c-0.2-0.3-0.5-0.6-0.9-0.8c-0.4-0.2-0.8-0.3-1.3-0.3c-0.5,0-0.9,0.1-1.2,0.3
			c-0.3,0.2-0.6,0.5-0.8,0.8s-0.4,0.7-0.5,1.1c-0.1,0.4-0.2,0.8-0.2,1.3S550.7,27.3,550.8,27.8z"/>
		<path class="st1" d="M561.4,27.9c0.1,0.4,0.3,0.7,0.5,1s0.5,0.6,0.8,0.8c0.3,0.2,0.7,0.3,1.2,0.3c0.7,0,1.3-0.2,1.7-0.6
			s0.7-0.9,0.9-1.5h1c-0.2,0.9-0.6,1.6-1.2,2.2c-0.6,0.5-1.4,0.8-2.4,0.8c-0.6,0-1.2-0.1-1.7-0.3c-0.5-0.2-0.9-0.5-1.2-0.9
			s-0.5-0.9-0.7-1.4c-0.1-0.5-0.2-1.1-0.2-1.7c0-0.5,0.1-1.1,0.2-1.6c0.1-0.5,0.4-1,0.7-1.4s0.7-0.7,1.2-1c0.5-0.2,1-0.4,1.7-0.4
			c0.7,0,1.2,0.1,1.7,0.4c0.5,0.3,0.8,0.6,1.1,1c0.3,0.4,0.5,0.9,0.6,1.5c0.1,0.6,0.2,1.1,0.2,1.7h-6.3
			C561.3,27.1,561.3,27.5,561.4,27.9z M566.4,24.8c-0.1-0.3-0.3-0.7-0.5-0.9c-0.2-0.3-0.5-0.5-0.8-0.7c-0.3-0.2-0.7-0.2-1.1-0.2
			c-0.4,0-0.8,0.1-1.1,0.2c-0.3,0.2-0.6,0.4-0.8,0.7c-0.2,0.3-0.4,0.6-0.5,0.9c-0.1,0.4-0.2,0.7-0.3,1.1h5.3
			C566.6,25.6,566.5,25.2,566.4,24.8z"/>
		<path class="st1" d="M571.5,19.3v11.3h-1V19.3H571.5z"/>
		<path class="st0" d="M582.3,19.3h2.3l-0.8,4h0c0.7-0.8,1.3-1.1,2.4-1.1c2.1,0,2.9,1.6,2.9,3.5c0,2.5-1.5,5.2-4.2,5.2
			c-1.1,0-2.2-0.4-2.6-1.5h0l-0.3,1.3h-2.1L582.3,19.3z M582.8,27.4c0,1,0.6,1.7,1.6,1.7c1.7,0,2.4-2,2.4-3.4c0-1-0.4-1.8-1.6-1.8
			C583.5,23.9,582.8,25.9,582.8,27.4z"/>
		<path class="st0" d="M598.9,30.6h-2.2l0.3-1.1h0c-0.7,0.9-1.7,1.4-2.9,1.4c-1.6,0-2.4-0.8-2.4-2.2c0-0.3,0.2-1.1,0.2-1.4l1-4.8
			h2.3l-1,4.8c-0.1,0.2-0.1,0.8-0.1,1c0,0.5,0.6,0.8,1.1,0.8c1.4,0,2.1-1.1,2.3-2.3l0.9-4.4h2.3L598.9,30.6z"/>
		<path class="st0" d="M604.1,22.4h2.1l-0.3,1.5l0,0c0.5-1.1,1.6-1.7,2.8-1.7c0.2,0,0.5,0,0.7,0l-0.5,2.2c-0.3-0.1-0.6-0.1-1-0.1
			c-1.7,0-2.3,1.3-2.6,2.7l-0.8,3.6h-2.3L604.1,22.4z"/>
		<path class="st0" d="M611.9,22.4h2.2l-0.3,1.1h0c0.7-0.9,1.7-1.4,2.9-1.4c1.6,0,2.4,0.8,2.4,2.2c0,0.3-0.2,1.1-0.2,1.4l-1,4.8
			h-2.3l1-4.8c0.1-0.2,0.1-0.8,0.1-1c0-0.5-0.6-0.8-1.1-0.8c-1.4,0-2.1,1.1-2.3,2.3l-0.9,4.4h-2.3L611.9,22.4z"/>
		<path class="st0" d="M626.5,22.2c2.3,0,3.8,1.1,3.8,3.5c0,2.9-1.8,5.2-4.8,5.2c-2.3,0-3.8-1.2-3.8-3.5
			C621.8,24.5,623.6,22.2,626.5,22.2z M625.7,29.1c1.7,0,2.4-2.1,2.4-3.4c0-1.1-0.5-1.8-1.6-1.8c-1.6,0-2.4,2-2.4,3.4
			C624.1,28.2,624.6,29.1,625.7,29.1z"/>
		<path class="st0" d="M640.2,30.6h-2.2l0.3-1.1h0c-0.7,0.9-1.7,1.4-2.9,1.4c-1.6,0-2.4-0.8-2.4-2.2c0-0.3,0.2-1.1,0.2-1.4l1-4.8
			h2.3l-1,4.8c-0.1,0.2-0.1,0.8-0.1,1c0,0.5,0.6,0.8,1.1,0.8c1.4,0,2.1-1.1,2.3-2.3l0.9-4.4h2.3L640.2,30.6z"/>
		<path class="st0" d="M648.3,22.4h1.6l-0.3,1.5H648l-0.8,4.1c0,0.2-0.1,0.3-0.1,0.4c0,0.6,0.4,0.6,0.8,0.6c0.3,0,0.5,0,0.8,0
			l-0.4,1.7c-0.5,0-0.9,0.1-1.4,0.1c-1,0-2.2-0.3-2.1-1.7c0-0.2,0-0.5,0.1-0.8l0.9-4.4h-1.5l0.3-1.5h1.4l0.5-2.5h2.3L648.3,22.4z"/>
		<path class="st1" d="M652.9,28.9h1.3v1.7h-1.3V28.9z"/>
		<path class="st1" d="M662,18.9v0.5c-0.2,0.2-0.4,0.5-0.7,0.8c-0.3,0.4-0.6,0.8-0.8,1.3c-0.3,0.5-0.5,1-0.7,1.7
			c-0.2,0.6-0.3,1.3-0.4,2.1h-0.6c0-0.5,0.1-1.1,0.2-1.6c0.1-0.5,0.3-1,0.5-1.4c0.2-0.5,0.5-0.9,0.8-1.4s0.7-1,1.2-1.5h-3.6v-0.5
			H662z"/>
		<path class="st1" d="M665.1,25.3c0,0.1,0,0.3-0.1,0.4c0,0.1-0.1,0.3-0.2,0.4c-0.1,0.1-0.2,0.2-0.3,0.3c-0.1,0.1-0.2,0.1-0.4,0.2
			v-0.4c0.1,0,0.1-0.1,0.2-0.1c0.1-0.1,0.1-0.1,0.1-0.2c0-0.1,0.1-0.2,0.1-0.3c0-0.1,0-0.2,0-0.2h-0.4v-1h0.8V25.3z"/>
		<path class="st1" d="M671.2,21.3c-0.2,0.2-0.4,0.4-0.8,0.5v0c0.4,0.1,0.8,0.3,1,0.6c0.2,0.3,0.3,0.7,0.3,1.1
			c0,0.3-0.1,0.6-0.2,0.9s-0.3,0.4-0.5,0.6c-0.2,0.2-0.4,0.3-0.7,0.4c-0.3,0.1-0.6,0.1-0.9,0.1c-0.3,0-0.6,0-0.9-0.1
			c-0.3-0.1-0.5-0.2-0.7-0.4c-0.2-0.2-0.4-0.4-0.5-0.6s-0.2-0.5-0.2-0.9c0-0.4,0.1-0.8,0.4-1.1c0.2-0.3,0.5-0.5,1-0.6v0
			c-0.3-0.1-0.6-0.3-0.8-0.5c-0.2-0.2-0.3-0.5-0.3-0.9c0-0.3,0.1-0.5,0.2-0.7c0.1-0.2,0.3-0.4,0.4-0.5c0.2-0.1,0.4-0.2,0.6-0.3
			c0.2-0.1,0.5-0.1,0.7-0.1s0.5,0,0.7,0.1s0.4,0.2,0.6,0.3c0.2,0.1,0.3,0.3,0.5,0.5s0.2,0.4,0.2,0.7
			C671.5,20.8,671.4,21.1,671.2,21.3z M670.1,24.9c0.2-0.1,0.4-0.1,0.5-0.3c0.1-0.1,0.3-0.3,0.4-0.5c0.1-0.2,0.1-0.4,0.1-0.6
			c0-0.2,0-0.4-0.1-0.6c-0.1-0.2-0.2-0.3-0.4-0.4s-0.3-0.2-0.5-0.3s-0.4-0.1-0.6-0.1c-0.2,0-0.4,0-0.6,0.1c-0.2,0.1-0.4,0.1-0.5,0.3
			c-0.1,0.1-0.3,0.3-0.4,0.4c-0.1,0.2-0.1,0.4-0.1,0.6c0,0.2,0,0.5,0.1,0.6c0.1,0.2,0.2,0.3,0.4,0.5c0.1,0.1,0.3,0.2,0.5,0.3
			s0.4,0.1,0.6,0.1C669.7,25,669.9,24.9,670.1,24.9z M670,21.5c0.2,0,0.3-0.1,0.4-0.2s0.2-0.2,0.3-0.4c0.1-0.2,0.1-0.3,0.1-0.5
			c0-0.2,0-0.3-0.1-0.5c-0.1-0.1-0.2-0.3-0.3-0.4c-0.1-0.1-0.3-0.2-0.4-0.2c-0.2,0-0.3-0.1-0.5-0.1c-0.2,0-0.4,0-0.5,0.1
			c-0.2,0-0.3,0.1-0.4,0.2c-0.1,0.1-0.2,0.2-0.3,0.4c-0.1,0.1-0.1,0.3-0.1,0.5c0,0.2,0,0.4,0.1,0.6c0.1,0.2,0.2,0.3,0.3,0.4
			c0.1,0.1,0.3,0.2,0.4,0.2c0.2,0,0.3,0.1,0.5,0.1C669.7,21.6,669.9,21.6,670,21.5z"/>
	</g>
</g>
</svg>
