<!-- Generator: Adobe Illustrator 20.1.0, SVG Export Plug-In  -->
<svg version="1.1"
	 xmlns="http://www.w3.org/2000/svg" xmlns:xlink="http://www.w3.org/1999/xlink" xmlns:a="http://ns.adobe.com/AdobeSVGViewerExtensions/3.0/"
	 x="0px" y="0px" width="162.5px" height="45.8px" viewBox="0 0 162.5 45.8"
	 style="overflow:scroll;enable-background:new 0 0 162.5 45.8;" xml:space="preserve">
<style type="text/css">
	.st0{opacity:0.8;fill:#333333;}
</style>
<defs>
</defs>
<g>
	<path class="st0" d="M3,2.1H0V0.2h8.1v1.8h-3v8H3V2.1z"/>
	<path class="st0" d="M9,3h1.9v1.3h0c0.1-0.2,0.2-0.4,0.4-0.6c0.2-0.2,0.3-0.4,0.5-0.5c0.2-0.1,0.4-0.2,0.7-0.3
		c0.2-0.1,0.5-0.1,0.7-0.1c0.1,0,0.3,0,0.4,0.1v1.8c-0.1,0-0.2,0-0.3,0s-0.3,0-0.4,0c-0.4,0-0.7,0.1-0.9,0.2
		c-0.2,0.1-0.4,0.3-0.6,0.5c-0.2,0.2-0.3,0.5-0.3,0.7C11,6.3,11,6.6,11,6.9v3.2H9V3z"/>
	<path class="st0" d="M14.3,5.2c0-0.5,0.1-0.8,0.3-1.1c0.2-0.3,0.5-0.5,0.8-0.7c0.3-0.2,0.7-0.3,1.1-0.4c0.4-0.1,0.8-0.1,1.2-0.1
		c0.4,0,0.7,0,1.1,0.1s0.7,0.1,1,0.3s0.6,0.4,0.7,0.6c0.2,0.3,0.3,0.6,0.3,1v3.7c0,0.3,0,0.6,0.1,0.9c0,0.3,0.1,0.5,0.2,0.7h-2
		C19,10,19,9.9,19,9.8c0-0.1,0-0.2,0-0.4c-0.3,0.3-0.7,0.5-1.1,0.7s-0.9,0.2-1.3,0.2c-0.3,0-0.7,0-1-0.1c-0.3-0.1-0.6-0.2-0.8-0.4
		c-0.2-0.2-0.4-0.4-0.5-0.7c-0.1-0.3-0.2-0.6-0.2-1c0-0.4,0.1-0.7,0.2-1c0.1-0.3,0.3-0.5,0.6-0.6c0.2-0.2,0.5-0.3,0.8-0.4
		C15.9,6.1,16.2,6,16.5,6c0.3,0,0.6-0.1,0.9-0.1c0.3,0,0.5-0.1,0.7-0.1c0.2-0.1,0.4-0.1,0.5-0.2c0.1-0.1,0.2-0.3,0.2-0.5
		c0-0.2,0-0.4-0.1-0.5s-0.2-0.2-0.3-0.3s-0.2-0.1-0.4-0.1c-0.2,0-0.3,0-0.5,0c-0.4,0-0.7,0.1-0.9,0.2c-0.2,0.2-0.4,0.4-0.4,0.8H14.3
		z M18.8,6.6c-0.1,0.1-0.2,0.1-0.3,0.2c-0.1,0-0.3,0.1-0.4,0.1c-0.1,0-0.3,0.1-0.5,0.1S17.3,7,17.2,7c-0.2,0-0.3,0.1-0.4,0.1
		c-0.1,0-0.3,0.1-0.4,0.2c-0.1,0.1-0.2,0.2-0.3,0.3C16.1,7.7,16,7.9,16,8.1c0,0.2,0,0.3,0.1,0.4s0.2,0.2,0.3,0.3s0.2,0.1,0.4,0.1
		c0.1,0,0.3,0,0.5,0c0.4,0,0.7-0.1,0.9-0.2s0.4-0.3,0.5-0.5c0.1-0.2,0.2-0.4,0.2-0.5c0-0.2,0-0.3,0-0.4V6.6z"/>
	<path class="st0" d="M22.3,3h1.9v1h0c0.2-0.4,0.6-0.7,1-0.9s0.8-0.3,1.2-0.3c0.5,0,1,0.1,1.3,0.2s0.6,0.3,0.8,0.6
		c0.2,0.3,0.3,0.6,0.4,0.9C29,4.9,29,5.3,29,5.7v4.4h-2v-4c0-0.6-0.1-1-0.3-1.3s-0.5-0.4-1-0.4c-0.5,0-0.9,0.2-1.2,0.5
		c-0.2,0.3-0.4,0.8-0.4,1.6v3.7h-2V3z"/>
	<path class="st0" d="M37.5,12.6h-2V9.2h0c-0.2,0.4-0.6,0.7-1,0.8c-0.4,0.2-0.8,0.3-1.3,0.3c-0.3,0-0.7-0.1-1-0.2s-0.7-0.3-1-0.6
		s-0.5-0.7-0.7-1.1s-0.3-1.1-0.3-1.7c0-0.5,0.1-1,0.2-1.4c0.1-0.5,0.3-0.9,0.6-1.2c0.3-0.4,0.6-0.6,1-0.8s0.9-0.3,1.4-0.3
		c0.4,0,0.9,0.1,1.3,0.3c0.4,0.2,0.7,0.5,0.9,0.8h0V3h1.9V12.6z M32.2,6.5c0,0.3,0,0.6,0.1,0.8c0.1,0.3,0.1,0.5,0.3,0.7
		c0.1,0.2,0.3,0.4,0.5,0.5c0.2,0.1,0.5,0.2,0.8,0.2c0.3,0,0.6-0.1,0.8-0.2s0.4-0.3,0.5-0.5c0.1-0.2,0.2-0.4,0.3-0.7
		c0.1-0.3,0.1-0.6,0.1-0.8c0-0.3,0-0.6-0.1-0.8c-0.1-0.3-0.2-0.5-0.3-0.7c-0.1-0.2-0.3-0.4-0.5-0.5c-0.2-0.1-0.5-0.2-0.8-0.2
		c-0.3,0-0.6,0.1-0.8,0.2S32.7,4.7,32.6,5c-0.1,0.2-0.2,0.5-0.3,0.7C32.2,6,32.2,6.3,32.2,6.5z"/>
	<path class="st0" d="M45.7,10.1h-1.9v-1h0c-0.2,0.4-0.6,0.7-1,0.9c-0.4,0.2-0.8,0.3-1.2,0.3c-0.5,0-1-0.1-1.3-0.2
		c-0.3-0.1-0.6-0.3-0.8-0.6c-0.2-0.3-0.3-0.6-0.4-0.9C39,8.2,39,7.8,39,7.4V3h2v4c0,0.6,0.1,1,0.3,1.3c0.2,0.3,0.5,0.4,1,0.4
		c0.5,0,0.9-0.2,1.2-0.5c0.2-0.3,0.4-0.8,0.4-1.6V3h2V10.1z"/>
	<path class="st0" d="M49.2,1.9h-2V0.2h2V1.9z M47.2,3h2v7.1h-2V3z"/>
	<path class="st0" d="M50.8,0.2h2v9.9h-2V0.2z"/>
	<path class="st0" d="M56.3,1.9h-2V0.2h2V1.9z M54.3,3h2v7.1h-2V3z"/>
	<path class="st0" d="M62.9,9.2L62.9,9.2C62.7,9.6,62.4,9.9,62,10s-0.8,0.3-1.3,0.3c-0.5,0-1-0.1-1.4-0.3s-0.7-0.5-1-0.9
		c-0.3-0.4-0.5-0.8-0.6-1.2c-0.1-0.5-0.2-0.9-0.2-1.4c0-0.5,0.1-0.9,0.2-1.4c0.1-0.4,0.3-0.8,0.6-1.2c0.3-0.3,0.6-0.6,1-0.8
		c0.4-0.2,0.9-0.3,1.4-0.3c0.4,0,0.8,0.1,1.2,0.3c0.4,0.2,0.7,0.4,0.9,0.8h0V0.2h2v9.9h-1.9V9.2z M62.9,6.5c0-0.3,0-0.6-0.1-0.8
		s-0.2-0.5-0.3-0.7c-0.1-0.2-0.3-0.4-0.5-0.5s-0.5-0.2-0.8-0.2c-0.3,0-0.6,0.1-0.8,0.2c-0.2,0.1-0.4,0.3-0.5,0.5s-0.2,0.5-0.3,0.7
		c-0.1,0.3-0.1,0.6-0.1,0.8c0,0.3,0,0.6,0.1,0.8s0.2,0.5,0.3,0.7c0.1,0.2,0.3,0.4,0.5,0.5s0.5,0.2,0.8,0.2c0.3,0,0.6-0.1,0.8-0.2
		c0.2-0.1,0.4-0.3,0.5-0.5c0.1-0.2,0.2-0.5,0.3-0.7S62.9,6.8,62.9,6.5z"/>
	<path class="st0" d="M66.2,5.2c0-0.5,0.1-0.8,0.3-1.1c0.2-0.3,0.5-0.5,0.8-0.7C67.6,3.1,68,3,68.4,2.9c0.4-0.1,0.8-0.1,1.2-0.1
		c0.4,0,0.7,0,1.1,0.1s0.7,0.1,1,0.3s0.6,0.4,0.7,0.6c0.2,0.3,0.3,0.6,0.3,1v3.7c0,0.3,0,0.6,0.1,0.9c0,0.3,0.1,0.5,0.2,0.7h-2
		c0-0.1-0.1-0.2-0.1-0.3c0-0.1,0-0.2,0-0.4c-0.3,0.3-0.7,0.5-1.1,0.7s-0.9,0.2-1.3,0.2c-0.3,0-0.7,0-1-0.1c-0.3-0.1-0.6-0.2-0.8-0.4
		c-0.2-0.2-0.4-0.4-0.5-0.7C66,8.8,66,8.5,66,8.2c0-0.4,0.1-0.7,0.2-1c0.1-0.3,0.3-0.5,0.6-0.6c0.2-0.2,0.5-0.3,0.8-0.4
		C67.8,6.1,68.1,6,68.4,6c0.3,0,0.6-0.1,0.9-0.1c0.3,0,0.5-0.1,0.7-0.1c0.2-0.1,0.4-0.1,0.5-0.2c0.1-0.1,0.2-0.3,0.2-0.5
		c0-0.2,0-0.4-0.1-0.5s-0.2-0.2-0.3-0.3s-0.2-0.1-0.4-0.1c-0.2,0-0.3,0-0.5,0c-0.4,0-0.7,0.1-0.9,0.2c-0.2,0.2-0.4,0.4-0.4,0.8H66.2
		z M70.7,6.6c-0.1,0.1-0.2,0.1-0.3,0.2c-0.1,0-0.3,0.1-0.4,0.1c-0.1,0-0.3,0.1-0.5,0.1S69.2,7,69.1,7c-0.2,0-0.3,0.1-0.4,0.1
		c-0.1,0-0.3,0.1-0.4,0.2c-0.1,0.1-0.2,0.2-0.3,0.3c-0.1,0.1-0.1,0.3-0.1,0.4c0,0.2,0,0.3,0.1,0.4s0.2,0.2,0.3,0.3s0.2,0.1,0.4,0.1
		c0.1,0,0.3,0,0.5,0c0.4,0,0.7-0.1,0.9-0.2s0.4-0.3,0.5-0.5c0.1-0.2,0.2-0.4,0.2-0.5c0-0.2,0-0.3,0-0.4V6.6z"/>
	<path class="st0" d="M79.3,9.2L79.3,9.2c-0.3,0.4-0.6,0.7-0.9,0.8s-0.8,0.3-1.3,0.3c-0.5,0-1-0.1-1.4-0.3s-0.7-0.5-1-0.9
		c-0.3-0.4-0.5-0.8-0.6-1.2C74,7.4,73.9,7,73.9,6.5c0-0.5,0.1-0.9,0.2-1.4c0.1-0.4,0.3-0.8,0.6-1.2c0.3-0.3,0.6-0.6,1-0.8
		c0.4-0.2,0.9-0.3,1.4-0.3c0.4,0,0.8,0.1,1.2,0.3c0.4,0.2,0.7,0.4,0.9,0.8h0V0.2h2v9.9h-1.9V9.2z M79.3,6.5c0-0.3,0-0.6-0.1-0.8
		S79,5.1,78.9,4.9c-0.1-0.2-0.3-0.4-0.5-0.5s-0.5-0.2-0.8-0.2c-0.3,0-0.6,0.1-0.8,0.2c-0.2,0.1-0.4,0.3-0.5,0.5S76,5.4,76,5.7
		c-0.1,0.3-0.1,0.6-0.1,0.8c0,0.3,0,0.6,0.1,0.8s0.2,0.5,0.3,0.7c0.1,0.2,0.3,0.4,0.5,0.5s0.5,0.2,0.8,0.2c0.3,0,0.6-0.1,0.8-0.2
		c0.2-0.1,0.4-0.3,0.5-0.5c0.1-0.2,0.2-0.5,0.3-0.7S79.3,6.8,79.3,6.5z"/>
	<path class="st0" d="M85.6,0h1.6l-3.9,10.3h-1.6L85.6,0z"/>
	<path class="st0" d="M87.7,5.2c0-0.5,0.1-0.8,0.3-1.1c0.2-0.3,0.5-0.5,0.8-0.7c0.3-0.2,0.7-0.3,1.1-0.4c0.4-0.1,0.8-0.1,1.2-0.1
		c0.4,0,0.7,0,1.1,0.1s0.7,0.1,1,0.3s0.6,0.4,0.7,0.6c0.2,0.3,0.3,0.6,0.3,1v3.7c0,0.3,0,0.6,0.1,0.9c0,0.3,0.1,0.5,0.2,0.7h-2
		c0-0.1-0.1-0.2-0.1-0.3c0-0.1,0-0.2,0-0.4c-0.3,0.3-0.7,0.5-1.1,0.7s-0.9,0.2-1.3,0.2c-0.3,0-0.7,0-1-0.1c-0.3-0.1-0.6-0.2-0.8-0.4
		c-0.2-0.2-0.4-0.4-0.5-0.7c-0.1-0.3-0.2-0.6-0.2-1c0-0.4,0.1-0.7,0.2-1c0.1-0.3,0.3-0.5,0.6-0.6c0.2-0.2,0.5-0.3,0.8-0.4
		C89.3,6.1,89.6,6,89.9,6c0.3,0,0.6-0.1,0.9-0.1c0.3,0,0.5-0.1,0.7-0.1c0.2-0.1,0.4-0.1,0.5-0.2c0.1-0.1,0.2-0.3,0.2-0.5
		c0-0.2,0-0.4-0.1-0.5S92,4.3,91.8,4.2s-0.2-0.1-0.4-0.1c-0.2,0-0.3,0-0.5,0c-0.4,0-0.7,0.1-0.9,0.2c-0.2,0.2-0.4,0.4-0.4,0.8H87.7z
		 M92.2,6.6c-0.1,0.1-0.2,0.1-0.3,0.2c-0.1,0-0.3,0.1-0.4,0.1c-0.1,0-0.3,0.1-0.5,0.1S90.7,7,90.6,7c-0.2,0-0.3,0.1-0.4,0.1
		c-0.1,0-0.3,0.1-0.4,0.2c-0.1,0.1-0.2,0.2-0.3,0.3c-0.1,0.1-0.1,0.3-0.1,0.4c0,0.2,0,0.3,0.1,0.4s0.2,0.2,0.3,0.3s0.2,0.1,0.4,0.1
		c0.1,0,0.3,0,0.5,0c0.4,0,0.7-0.1,0.9-0.2s0.4-0.3,0.5-0.5c0.1-0.2,0.2-0.4,0.2-0.5c0-0.2,0-0.3,0-0.4V6.6z"/>
	<path class="st0" d="M102.4,10.1h-1.9v-1h0c-0.2,0.4-0.6,0.7-1,0.9c-0.4,0.2-0.8,0.3-1.2,0.3c-0.5,0-1-0.1-1.3-0.2
		c-0.3-0.1-0.6-0.3-0.8-0.6c-0.2-0.3-0.3-0.6-0.4-0.9c-0.1-0.4-0.1-0.8-0.1-1.2V3h2v4c0,0.6,0.1,1,0.3,1.3c0.2,0.3,0.5,0.4,1,0.4
		c0.5,0,0.9-0.2,1.2-0.5c0.2-0.3,0.4-0.8,0.4-1.6V3h2V10.1z"/>
	<path class="st0" d="M106.4,3h1.4v1.3h-1.4v3.5c0,0.3,0.1,0.6,0.2,0.7c0.1,0.1,0.3,0.2,0.7,0.2c0.2,0,0.4,0,0.6-0.1v1.5
		c-0.2,0-0.3,0-0.6,0.1c-0.2,0-0.4,0-0.6,0c-0.3,0-0.6,0-0.9-0.1c-0.3,0-0.5-0.1-0.7-0.2c-0.2-0.1-0.4-0.3-0.5-0.5
		c-0.1-0.2-0.2-0.5-0.2-0.9V4.3h-1.2V3h1.2V0.8h2V3z"/>
	<path class="st0" d="M108.5,6.5c0-0.6,0.1-1.1,0.3-1.6c0.2-0.5,0.4-0.9,0.7-1.2c0.3-0.3,0.7-0.6,1.2-0.8s1-0.3,1.5-0.3
		c0.6,0,1.1,0.1,1.5,0.3s0.8,0.4,1.2,0.8c0.3,0.3,0.6,0.7,0.7,1.2c0.2,0.5,0.3,1,0.3,1.6c0,0.6-0.1,1.1-0.3,1.5
		c-0.2,0.5-0.4,0.9-0.7,1.2c-0.3,0.3-0.7,0.6-1.2,0.8s-1,0.3-1.5,0.3c-0.6,0-1.1-0.1-1.5-0.3s-0.8-0.4-1.2-0.8
		c-0.3-0.3-0.6-0.7-0.7-1.2C108.6,7.6,108.5,7.1,108.5,6.5z M110.5,6.5c0,0.3,0,0.6,0.1,0.8c0.1,0.3,0.1,0.5,0.3,0.7
		c0.1,0.2,0.3,0.4,0.5,0.5c0.2,0.1,0.5,0.2,0.8,0.2c0.3,0,0.6-0.1,0.8-0.2c0.2-0.1,0.4-0.3,0.5-0.5c0.1-0.2,0.2-0.5,0.3-0.7
		c0.1-0.3,0.1-0.6,0.1-0.8c0-0.3,0-0.6-0.1-0.8c-0.1-0.3-0.1-0.5-0.3-0.7s-0.3-0.4-0.5-0.5c-0.2-0.1-0.5-0.2-0.8-0.2
		c-0.3,0-0.6,0.1-0.8,0.2c-0.2,0.1-0.4,0.3-0.5,0.5c-0.1,0.2-0.2,0.5-0.3,0.7C110.5,6,110.5,6.3,110.5,6.5z"/>
	<path class="st0" d="M122.1,5.5c-0.1-0.8-0.6-1.2-1.5-1.2c-0.3,0-0.6,0.1-0.8,0.2s-0.4,0.3-0.5,0.6c-0.1,0.2-0.2,0.5-0.3,0.8
		c-0.1,0.3-0.1,0.5-0.1,0.8s0,0.5,0.1,0.8c0.1,0.3,0.1,0.5,0.3,0.7c0.1,0.2,0.3,0.4,0.5,0.5c0.2,0.1,0.5,0.2,0.8,0.2
		c0.5,0,0.8-0.1,1.1-0.4s0.4-0.6,0.5-1.1h1.9c-0.1,0.9-0.5,1.7-1.1,2.2c-0.6,0.5-1.4,0.8-2.3,0.8c-0.5,0-1-0.1-1.5-0.3
		c-0.4-0.2-0.8-0.4-1.1-0.8c-0.3-0.3-0.6-0.7-0.7-1.2c-0.2-0.4-0.3-0.9-0.3-1.5c0-0.6,0.1-1.1,0.2-1.5s0.4-0.9,0.7-1.2
		c0.3-0.3,0.7-0.6,1.1-0.8s1-0.3,1.5-0.3c0.4,0,0.8,0.1,1.2,0.2c0.4,0.1,0.7,0.3,1,0.5c0.3,0.2,0.6,0.5,0.8,0.8
		c0.2,0.3,0.3,0.7,0.3,1.2H122.1z"/>
	<path class="st0" d="M124.9,6.5c0-0.6,0.1-1.1,0.3-1.6c0.2-0.5,0.4-0.9,0.7-1.2c0.3-0.3,0.7-0.6,1.2-0.8s1-0.3,1.5-0.3
		c0.6,0,1.1,0.1,1.5,0.3s0.8,0.4,1.2,0.8c0.3,0.3,0.6,0.7,0.7,1.2c0.2,0.5,0.3,1,0.3,1.6c0,0.6-0.1,1.1-0.3,1.5
		c-0.2,0.5-0.4,0.9-0.7,1.2c-0.3,0.3-0.7,0.6-1.2,0.8s-1,0.3-1.5,0.3c-0.6,0-1.1-0.1-1.5-0.3s-0.8-0.4-1.2-0.8
		c-0.3-0.3-0.6-0.7-0.7-1.2C125,7.6,124.9,7.1,124.9,6.5z M126.9,6.5c0,0.3,0,0.6,0.1,0.8c0.1,0.3,0.1,0.5,0.3,0.7
		c0.1,0.2,0.3,0.4,0.5,0.5c0.2,0.1,0.5,0.2,0.8,0.2c0.3,0,0.6-0.1,0.8-0.2c0.2-0.1,0.4-0.3,0.5-0.5c0.1-0.2,0.2-0.5,0.3-0.7
		c0.1-0.3,0.1-0.6,0.1-0.8c0-0.3,0-0.6-0.1-0.8c-0.1-0.3-0.1-0.5-0.3-0.7s-0.3-0.4-0.5-0.5c-0.2-0.1-0.5-0.2-0.8-0.2
		c-0.3,0-0.6,0.1-0.8,0.2c-0.2,0.1-0.4,0.3-0.5,0.5c-0.1,0.2-0.2,0.5-0.3,0.7C126.9,6,126.9,6.3,126.9,6.5z"/>
	<path class="st0" d="M133.6,3h1.9v1h0c0.2-0.4,0.6-0.7,1-0.9s0.8-0.3,1.2-0.3c0.5,0,1,0.1,1.3,0.2s0.6,0.3,0.8,0.6
		c0.2,0.3,0.3,0.6,0.4,0.9c0.1,0.4,0.1,0.8,0.1,1.2v4.4h-2v-4c0-0.6-0.1-1-0.3-1.3s-0.5-0.4-1-0.4c-0.5,0-0.9,0.2-1.2,0.5
		c-0.2,0.3-0.4,0.8-0.4,1.6v3.7h-2V3z"/>
	<path class="st0" d="M144.3,3h1.4v1.3h-1.4v3.5c0,0.3,0.1,0.6,0.2,0.7c0.1,0.1,0.3,0.2,0.7,0.2c0.2,0,0.4,0,0.6-0.1v1.5
		c-0.2,0-0.3,0-0.6,0.1c-0.2,0-0.4,0-0.6,0c-0.3,0-0.6,0-0.9-0.1c-0.3,0-0.5-0.1-0.7-0.2c-0.2-0.1-0.4-0.3-0.5-0.5
		c-0.1-0.2-0.2-0.5-0.2-0.9V4.3h-1.2V3h1.2V0.8h2V3z"/>
	<path class="st0" d="M146.6,3h1.9v1.3h0c0.1-0.2,0.2-0.4,0.4-0.6c0.2-0.2,0.3-0.4,0.5-0.5c0.2-0.1,0.4-0.2,0.7-0.3
		c0.2-0.1,0.5-0.1,0.7-0.1c0.1,0,0.3,0,0.4,0.1v1.8c-0.1,0-0.2,0-0.3,0s-0.3,0-0.4,0c-0.4,0-0.7,0.1-0.9,0.2
		c-0.2,0.1-0.4,0.3-0.6,0.5c-0.2,0.2-0.3,0.5-0.3,0.7c-0.1,0.3-0.1,0.6-0.1,0.9v3.2h-2V3z"/>
	<path class="st0" d="M151.8,6.5c0-0.6,0.1-1.1,0.3-1.6c0.2-0.5,0.4-0.9,0.7-1.2c0.3-0.3,0.7-0.6,1.2-0.8s1-0.3,1.5-0.3
		c0.6,0,1.1,0.1,1.5,0.3s0.8,0.4,1.2,0.8c0.3,0.3,0.6,0.7,0.7,1.2c0.2,0.5,0.3,1,0.3,1.6c0,0.6-0.1,1.1-0.3,1.5
		c-0.2,0.5-0.4,0.9-0.7,1.2c-0.3,0.3-0.7,0.6-1.2,0.8s-1,0.3-1.5,0.3c-0.6,0-1.1-0.1-1.5-0.3s-0.8-0.4-1.2-0.8
		c-0.3-0.3-0.6-0.7-0.7-1.2C151.9,7.6,151.8,7.1,151.8,6.5z M153.8,6.5c0,0.3,0,0.6,0.1,0.8c0.1,0.3,0.1,0.5,0.3,0.7
		c0.1,0.2,0.3,0.4,0.5,0.5c0.2,0.1,0.5,0.2,0.8,0.2c0.3,0,0.6-0.1,0.8-0.2c0.2-0.1,0.4-0.3,0.5-0.5c0.1-0.2,0.2-0.5,0.3-0.7
		c0.1-0.3,0.1-0.6,0.1-0.8c0-0.3,0-0.6-0.1-0.8c-0.1-0.3-0.1-0.5-0.3-0.7s-0.3-0.4-0.5-0.5c-0.2-0.1-0.5-0.2-0.8-0.2
		c-0.3,0-0.6,0.1-0.8,0.2c-0.2,0.1-0.4,0.3-0.5,0.5c-0.1,0.2-0.2,0.5-0.3,0.7C153.8,6,153.8,6.3,153.8,6.5z"/>
	<path class="st0" d="M160.5,0.2h2v9.9h-2V0.2z"/>
	<path class="st0" d="M18.2,16.6c-0.5,1-0.9,2-1.1,3.1s-0.4,2.1-0.4,3.2c0,1.1,0.1,2.2,0.4,3.2c0.2,1.1,0.6,2.1,1.1,3.1h-1.6
		c-0.6-0.9-1-2-1.3-3s-0.5-2.1-0.5-3.2c0-0.5,0-1.1,0.1-1.6c0.1-0.6,0.2-1.1,0.3-1.7c0.2-0.6,0.3-1.1,0.6-1.6c0.2-0.5,0.5-1,0.8-1.5
		H18.2z"/>
	<path class="st0" d="M21.4,19.5h1.4v1.3h-1.4v3.5c0,0.3,0.1,0.6,0.2,0.7c0.1,0.1,0.3,0.2,0.7,0.2c0.2,0,0.4,0,0.6-0.1v1.5
		c-0.2,0-0.3,0-0.6,0.1c-0.2,0-0.4,0-0.6,0c-0.3,0-0.6,0-0.9-0.1c-0.3,0-0.5-0.1-0.7-0.2c-0.2-0.1-0.4-0.3-0.5-0.5
		c-0.1-0.2-0.2-0.5-0.2-0.9v-4.2h-1.2v-1.3h1.2v-2.1h2V19.5z"/>
	<path class="st0" d="M25.4,23.6c0,0.6,0.2,1.1,0.5,1.4c0.3,0.3,0.7,0.4,1.3,0.4c0.4,0,0.7-0.1,1-0.3c0.3-0.2,0.5-0.4,0.5-0.6h1.7
		c-0.3,0.8-0.7,1.5-1.3,1.8s-1.3,0.6-2.1,0.6c-0.6,0-1.1-0.1-1.5-0.3c-0.5-0.2-0.8-0.4-1.1-0.8c-0.3-0.3-0.6-0.7-0.7-1.2
		s-0.3-1-0.3-1.5c0-0.5,0.1-1,0.3-1.5c0.2-0.5,0.4-0.9,0.7-1.2c0.3-0.3,0.7-0.6,1.2-0.8c0.4-0.2,0.9-0.3,1.5-0.3
		c0.6,0,1.1,0.1,1.6,0.4c0.5,0.2,0.8,0.5,1.1,0.9c0.3,0.4,0.5,0.8,0.6,1.4c0.1,0.5,0.2,1,0.1,1.6H25.4z M28.6,22.3
		c-0.1-0.5-0.3-0.9-0.5-1.1c-0.2-0.3-0.6-0.4-1.1-0.4c-0.3,0-0.6,0.1-0.8,0.2c-0.2,0.1-0.4,0.2-0.5,0.4c-0.1,0.2-0.2,0.3-0.3,0.5
		c0,0.2-0.1,0.3-0.1,0.5H28.6z"/>
	<path class="st0" d="M31.7,19.5h1.9v1h0c0.2-0.4,0.6-0.7,1-0.9s0.8-0.3,1.2-0.3c0.5,0,1,0.1,1.3,0.2s0.6,0.3,0.8,0.6
		c0.2,0.3,0.3,0.6,0.4,0.9c0.1,0.4,0.1,0.8,0.1,1.2v4.4h-2v-4c0-0.6-0.1-1-0.3-1.3s-0.5-0.4-1-0.4c-0.5,0-0.9,0.2-1.2,0.5
		c-0.2,0.3-0.4,0.8-0.4,1.6v3.7h-2V19.5z"/>
	<path class="st0" d="M41.4,24.4c0,0.2,0,0.4,0.1,0.5c0.1,0.2,0.2,0.3,0.3,0.4c0.1,0.1,0.3,0.2,0.5,0.2s0.4,0.1,0.6,0.1
		c0.1,0,0.3,0,0.4,0c0.2,0,0.3-0.1,0.4-0.2c0.1-0.1,0.2-0.2,0.3-0.3s0.1-0.3,0.1-0.4c0-0.1-0.1-0.3-0.2-0.4
		c-0.1-0.1-0.2-0.2-0.4-0.3s-0.4-0.2-0.7-0.2c-0.3-0.1-0.6-0.1-0.9-0.2c-0.3-0.1-0.6-0.1-0.8-0.2c-0.3-0.1-0.5-0.2-0.7-0.3
		s-0.4-0.3-0.5-0.5c-0.1-0.2-0.2-0.5-0.2-0.8c0-0.5,0.1-0.8,0.3-1.1c0.2-0.3,0.4-0.5,0.7-0.7c0.3-0.2,0.6-0.3,1-0.4
		c0.4-0.1,0.7-0.1,1.1-0.1s0.8,0,1.1,0.1c0.4,0.1,0.7,0.2,1,0.4c0.3,0.2,0.5,0.4,0.7,0.7c0.2,0.3,0.3,0.7,0.3,1.1h-1.9
		c0-0.4-0.2-0.6-0.4-0.8s-0.6-0.2-0.9-0.2c-0.1,0-0.2,0-0.4,0s-0.2,0-0.4,0.1c-0.1,0-0.2,0.1-0.3,0.2c-0.1,0.1-0.1,0.2-0.1,0.4
		c0,0.2,0.1,0.3,0.2,0.4s0.3,0.2,0.5,0.3c0.2,0.1,0.4,0.1,0.7,0.2c0.3,0.1,0.5,0.1,0.8,0.2c0.3,0.1,0.6,0.1,0.8,0.2
		c0.3,0.1,0.5,0.2,0.7,0.4s0.4,0.3,0.5,0.6c0.1,0.2,0.2,0.5,0.2,0.8c0,0.5-0.1,0.9-0.3,1.2c-0.2,0.3-0.4,0.6-0.7,0.8
		c-0.3,0.2-0.7,0.3-1,0.4s-0.8,0.1-1.2,0.1c-0.4,0-0.8,0-1.2-0.1c-0.4-0.1-0.7-0.2-1.1-0.4s-0.6-0.5-0.8-0.8s-0.3-0.7-0.3-1.2H41.4z
		"/>
	<path class="st0" d="M49.3,18.4h-2v-1.6h2V18.4z M47.3,19.5h2v7.1h-2V19.5z"/>
	<path class="st0" d="M50.6,23.1c0-0.6,0.1-1.1,0.3-1.6c0.2-0.5,0.4-0.9,0.7-1.2c0.3-0.3,0.7-0.6,1.2-0.8s1-0.3,1.5-0.3
		c0.6,0,1.1,0.1,1.5,0.3s0.8,0.4,1.2,0.8c0.3,0.3,0.6,0.7,0.7,1.2c0.2,0.5,0.3,1,0.3,1.6c0,0.6-0.1,1.1-0.3,1.5
		c-0.2,0.5-0.4,0.9-0.7,1.2c-0.3,0.3-0.7,0.6-1.2,0.8s-1,0.3-1.5,0.3c-0.6,0-1.1-0.1-1.5-0.3s-0.8-0.4-1.2-0.8
		c-0.3-0.3-0.6-0.7-0.7-1.2C50.7,24.2,50.6,23.7,50.6,23.1z M52.6,23.1c0,0.3,0,0.6,0.1,0.8c0.1,0.3,0.1,0.5,0.3,0.7
		c0.1,0.2,0.3,0.4,0.5,0.5c0.2,0.1,0.5,0.2,0.8,0.2c0.3,0,0.6-0.1,0.8-0.2c0.2-0.1,0.4-0.3,0.5-0.5c0.1-0.2,0.2-0.5,0.3-0.7
		c0.1-0.3,0.1-0.6,0.1-0.8c0-0.3,0-0.6-0.1-0.8c-0.1-0.3-0.1-0.5-0.3-0.7s-0.3-0.4-0.5-0.5c-0.2-0.1-0.5-0.2-0.8-0.2
		c-0.3,0-0.6,0.1-0.8,0.2c-0.2,0.1-0.4,0.3-0.5,0.5c-0.1,0.2-0.2,0.5-0.3,0.7C52.6,22.5,52.6,22.8,52.6,23.1z M54.7,18.7h-1.4l1.3-2
		h2.2L54.7,18.7z"/>
	<path class="st0" d="M59.3,19.5h1.9v1h0c0.2-0.4,0.6-0.7,1-0.9s0.8-0.3,1.2-0.3c0.5,0,1,0.1,1.3,0.2s0.6,0.3,0.8,0.6
		c0.2,0.3,0.3,0.6,0.4,0.9c0.1,0.4,0.1,0.8,0.1,1.2v4.4h-2v-4c0-0.6-0.1-1-0.3-1.3s-0.5-0.4-1-0.4c-0.5,0-0.9,0.2-1.2,0.5
		c-0.2,0.3-0.4,0.8-0.4,1.6v3.7h-2V19.5z"/>
	<path class="st0" d="M67.6,24.6h2.2v2.1c0,0.3-0.1,0.6-0.2,0.9c-0.1,0.3-0.3,0.5-0.5,0.7s-0.4,0.4-0.7,0.5s-0.5,0.2-0.8,0.3v-1
		c0.1,0,0.3-0.1,0.4-0.2c0.1-0.1,0.2-0.2,0.3-0.3s0.2-0.3,0.2-0.4c0-0.1,0.1-0.3,0.1-0.4h-1V24.6z"/>
	<path class="st0" d="M77.2,18.4h-2v-1.6h2V18.4z M75.2,19.5h2v7.1h-2V19.5z"/>
	<path class="st0" d="M78.7,19.5h1.9v1.3h0c0.1-0.2,0.2-0.4,0.4-0.6c0.2-0.2,0.3-0.4,0.5-0.5c0.2-0.1,0.4-0.2,0.7-0.3
		c0.2-0.1,0.5-0.1,0.7-0.1c0.1,0,0.3,0,0.4,0.1v1.8c-0.1,0-0.2,0-0.3,0s-0.3,0-0.4,0c-0.4,0-0.7,0.1-0.9,0.2
		c-0.2,0.1-0.4,0.3-0.6,0.5c-0.2,0.2-0.3,0.5-0.3,0.7c-0.1,0.3-0.1,0.6-0.1,0.9v3.2h-2V19.5z"/>
	<path class="st0" d="M84.1,19.5H86v1.3h0c0.1-0.2,0.2-0.4,0.4-0.6c0.2-0.2,0.3-0.4,0.5-0.5c0.2-0.1,0.4-0.2,0.7-0.3
		c0.2-0.1,0.5-0.1,0.7-0.1c0.1,0,0.3,0,0.4,0.1v1.8c-0.1,0-0.2,0-0.3,0s-0.3,0-0.4,0c-0.4,0-0.7,0.1-0.9,0.2
		c-0.2,0.1-0.4,0.3-0.6,0.5c-0.2,0.2-0.3,0.5-0.3,0.7c-0.1,0.3-0.1,0.6-0.1,0.9v3.2h-2V19.5z"/>
	<path class="st0" d="M91.5,18.4h-2v-1.6h2V18.4z M89.5,19.5h2v7.1h-2V19.5z"/>
	<path class="st0" d="M95.5,19.5H97v1.3h-1.4v3.5c0,0.3,0.1,0.6,0.2,0.7c0.1,0.1,0.3,0.2,0.7,0.2c0.2,0,0.4,0,0.6-0.1v1.5
		c-0.2,0-0.3,0-0.6,0.1c-0.2,0-0.4,0-0.6,0c-0.3,0-0.6,0-0.9-0.1c-0.3,0-0.5-0.1-0.7-0.2c-0.2-0.1-0.4-0.3-0.5-0.5
		c-0.1-0.2-0.2-0.5-0.2-0.9v-4.2h-1.2v-1.3h1.2v-2.1h2V19.5z"/>
	<path class="st0" d="M97.8,21.7c0-0.5,0.1-0.8,0.3-1.1c0.2-0.3,0.5-0.5,0.8-0.7c0.3-0.2,0.7-0.3,1.1-0.4c0.4-0.1,0.8-0.1,1.2-0.1
		c0.4,0,0.7,0,1.1,0.1s0.7,0.1,1,0.3s0.6,0.4,0.7,0.6c0.2,0.3,0.3,0.6,0.3,1v3.7c0,0.3,0,0.6,0.1,0.9c0,0.3,0.1,0.5,0.2,0.7h-2
		c0-0.1-0.1-0.2-0.1-0.3c0-0.1,0-0.2,0-0.4c-0.3,0.3-0.7,0.5-1.1,0.7s-0.9,0.2-1.3,0.2c-0.3,0-0.7,0-1-0.1c-0.3-0.1-0.6-0.2-0.8-0.4
		c-0.2-0.2-0.4-0.4-0.5-0.7c-0.1-0.3-0.2-0.6-0.2-1c0-0.4,0.1-0.7,0.2-1c0.1-0.3,0.3-0.5,0.6-0.6c0.2-0.2,0.5-0.3,0.8-0.4
		c0.3-0.1,0.6-0.1,0.9-0.2c0.3,0,0.6-0.1,0.9-0.1c0.3,0,0.5-0.1,0.7-0.1c0.2-0.1,0.4-0.1,0.5-0.2c0.1-0.1,0.2-0.3,0.2-0.5
		c0-0.2,0-0.4-0.1-0.5s-0.2-0.2-0.3-0.3s-0.2-0.1-0.4-0.1c-0.2,0-0.3,0-0.5,0c-0.4,0-0.7,0.1-0.9,0.2c-0.2,0.2-0.4,0.4-0.4,0.8H97.8
		z M102.4,23.2c-0.1,0.1-0.2,0.1-0.3,0.2c-0.1,0-0.3,0.1-0.4,0.1c-0.1,0-0.3,0.1-0.5,0.1s-0.3,0-0.5,0.1c-0.2,0-0.3,0.1-0.4,0.1
		c-0.1,0-0.3,0.1-0.4,0.2c-0.1,0.1-0.2,0.2-0.3,0.3c-0.1,0.1-0.1,0.3-0.1,0.4c0,0.2,0,0.3,0.1,0.4s0.2,0.2,0.3,0.3s0.2,0.1,0.4,0.1
		c0.1,0,0.3,0,0.5,0c0.4,0,0.7-0.1,0.9-0.2s0.4-0.3,0.5-0.5c0.1-0.2,0.2-0.4,0.2-0.5c0-0.2,0-0.3,0-0.4V23.2z"/>
	<path class="st0" d="M105.8,16.8h2v3.6h0c0.2-0.4,0.6-0.6,1-0.8c0.4-0.2,0.8-0.3,1.3-0.3c0.4,0,0.7,0.1,1.1,0.2
		c0.4,0.1,0.7,0.4,0.9,0.7c0.3,0.3,0.5,0.7,0.7,1.2s0.3,1,0.3,1.7c0,0.7-0.1,1.2-0.3,1.7s-0.4,0.9-0.7,1.2c-0.3,0.3-0.6,0.5-0.9,0.7
		c-0.3,0.1-0.7,0.2-1.1,0.2c-0.5,0-1-0.1-1.4-0.3c-0.4-0.2-0.7-0.5-0.9-0.8h0v0.9h-1.9V16.8z M111.1,23.1c0-0.3,0-0.6-0.1-0.9
		c-0.1-0.3-0.2-0.5-0.3-0.7c-0.1-0.2-0.3-0.4-0.5-0.5c-0.2-0.1-0.5-0.2-0.7-0.2c-0.3,0-0.5,0.1-0.8,0.2c-0.2,0.1-0.4,0.3-0.5,0.5
		c-0.1,0.2-0.2,0.5-0.3,0.7c-0.1,0.3-0.1,0.6-0.1,0.9c0,0.3,0,0.6,0.1,0.9c0.1,0.3,0.2,0.5,0.3,0.7c0.1,0.2,0.3,0.4,0.5,0.5
		c0.2,0.1,0.5,0.2,0.8,0.2c0.3,0,0.5-0.1,0.7-0.2c0.2-0.1,0.4-0.3,0.5-0.5c0.1-0.2,0.2-0.5,0.3-0.7C111,23.7,111.1,23.4,111.1,23.1z
		"/>
	<path class="st0" d="M116.3,18.4h-2v-1.6h2V18.4z M114.3,19.5h2v7.1h-2V19.5z"/>
	<path class="st0" d="M117.9,16.8h2v9.9h-2V16.8z"/>
	<path class="st0" d="M123.4,18.4h-2v-1.6h2V18.4z M121.5,19.5h2v7.1h-2V19.5z"/>
	<path class="st0" d="M130.1,25.8L130.1,25.8c-0.3,0.4-0.6,0.7-0.9,0.8s-0.8,0.3-1.3,0.3c-0.5,0-1-0.1-1.4-0.3s-0.7-0.5-1-0.9
		c-0.3-0.4-0.5-0.8-0.6-1.2c-0.1-0.5-0.2-0.9-0.2-1.4c0-0.5,0.1-0.9,0.2-1.4c0.1-0.4,0.3-0.8,0.6-1.2c0.3-0.3,0.6-0.6,1-0.8
		c0.4-0.2,0.9-0.3,1.4-0.3c0.4,0,0.8,0.1,1.2,0.3c0.4,0.2,0.7,0.4,0.9,0.8h0v-3.6h2v9.9h-1.9V25.8z M130.1,23.1c0-0.3,0-0.6-0.1-0.8
		s-0.2-0.5-0.3-0.7c-0.1-0.2-0.3-0.4-0.5-0.5s-0.5-0.2-0.8-0.2c-0.3,0-0.6,0.1-0.8,0.2c-0.2,0.1-0.4,0.3-0.5,0.5s-0.2,0.5-0.3,0.7
		c-0.1,0.3-0.1,0.6-0.1,0.8c0,0.3,0,0.6,0.1,0.8s0.2,0.5,0.3,0.7c0.1,0.2,0.3,0.4,0.5,0.5s0.5,0.2,0.8,0.2c0.3,0,0.6-0.1,0.8-0.2
		c0.2-0.1,0.4-0.3,0.5-0.5c0.1-0.2,0.2-0.5,0.3-0.7S130.1,23.4,130.1,23.1z"/>
	<path class="st0" d="M133.3,21.7c0-0.5,0.1-0.8,0.3-1.1c0.2-0.3,0.5-0.5,0.8-0.7c0.3-0.2,0.7-0.3,1.1-0.4c0.4-0.1,0.8-0.1,1.2-0.1
		c0.4,0,0.7,0,1.1,0.1s0.7,0.1,1,0.3s0.6,0.4,0.7,0.6c0.2,0.3,0.3,0.6,0.3,1v3.7c0,0.3,0,0.6,0.1,0.9c0,0.3,0.1,0.5,0.2,0.7h-2
		c0-0.1-0.1-0.2-0.1-0.3c0-0.1,0-0.2,0-0.4c-0.3,0.3-0.7,0.5-1.1,0.7s-0.9,0.2-1.3,0.2c-0.3,0-0.7,0-1-0.1c-0.3-0.1-0.6-0.2-0.8-0.4
		c-0.2-0.2-0.4-0.4-0.5-0.7c-0.1-0.3-0.2-0.6-0.2-1c0-0.4,0.1-0.7,0.2-1c0.1-0.3,0.3-0.5,0.6-0.6c0.2-0.2,0.5-0.3,0.8-0.4
		c0.3-0.1,0.6-0.1,0.9-0.2c0.3,0,0.6-0.1,0.9-0.1c0.3,0,0.5-0.1,0.7-0.1c0.2-0.1,0.4-0.1,0.5-0.2c0.1-0.1,0.2-0.3,0.2-0.5
		c0-0.2,0-0.4-0.1-0.5s-0.2-0.2-0.3-0.3s-0.2-0.1-0.4-0.1c-0.2,0-0.3,0-0.5,0c-0.4,0-0.7,0.1-0.9,0.2c-0.2,0.2-0.4,0.4-0.4,0.8
		H133.3z M137.9,23.2c-0.1,0.1-0.2,0.1-0.3,0.2c-0.1,0-0.3,0.1-0.4,0.1c-0.1,0-0.3,0.1-0.5,0.1s-0.3,0-0.5,0.1
		c-0.2,0-0.3,0.1-0.4,0.1c-0.1,0-0.3,0.1-0.4,0.2c-0.1,0.1-0.2,0.2-0.3,0.3c-0.1,0.1-0.1,0.3-0.1,0.4c0,0.2,0,0.3,0.1,0.4
		s0.2,0.2,0.3,0.3s0.2,0.1,0.4,0.1c0.1,0,0.3,0,0.5,0c0.4,0,0.7-0.1,0.9-0.2s0.4-0.3,0.5-0.5c0.1-0.2,0.2-0.4,0.2-0.5
		c0-0.2,0-0.3,0-0.4V23.2z"/>
	<path class="st0" d="M146.5,25.8L146.5,25.8c-0.3,0.4-0.6,0.7-0.9,0.8s-0.8,0.3-1.3,0.3c-0.5,0-1-0.1-1.4-0.3s-0.7-0.5-1-0.9
		c-0.3-0.4-0.5-0.8-0.6-1.2c-0.1-0.5-0.2-0.9-0.2-1.4c0-0.5,0.1-0.9,0.2-1.4c0.1-0.4,0.3-0.8,0.6-1.2c0.3-0.3,0.6-0.6,1-0.8
		c0.4-0.2,0.9-0.3,1.4-0.3c0.4,0,0.8,0.1,1.2,0.3c0.4,0.2,0.7,0.4,0.9,0.8h0v-3.6h2v9.9h-1.9V25.8z M146.4,23.1c0-0.3,0-0.6-0.1-0.8
		s-0.2-0.5-0.3-0.7c-0.1-0.2-0.3-0.4-0.5-0.5s-0.5-0.2-0.8-0.2c-0.3,0-0.6,0.1-0.8,0.2c-0.2,0.1-0.4,0.3-0.5,0.5s-0.2,0.5-0.3,0.7
		c-0.1,0.3-0.1,0.6-0.1,0.8c0,0.3,0,0.6,0.1,0.8s0.2,0.5,0.3,0.7c0.1,0.2,0.3,0.4,0.5,0.5s0.5,0.2,0.8,0.2c0.3,0,0.6-0.1,0.8-0.2
		c0.2-0.1,0.4-0.3,0.5-0.5c0.1-0.2,0.2-0.5,0.3-0.7S146.4,23.4,146.4,23.1z"/>
	<path class="st0" d="M149.9,24.6h2.2v2.1c0,0.3-0.1,0.6-0.2,0.9c-0.1,0.3-0.3,0.5-0.5,0.7s-0.4,0.4-0.7,0.5s-0.5,0.2-0.8,0.3v-1
		c0.1,0,0.3-0.1,0.4-0.2c0.1-0.1,0.2-0.2,0.3-0.3s0.2-0.3,0.2-0.4c0-0.1,0.1-0.3,0.1-0.4h-1V24.6z"/>
	<path class="st0" d="M20,38.3c0-0.5,0.1-0.8,0.3-1.1c0.2-0.3,0.5-0.5,0.8-0.7c0.3-0.2,0.7-0.3,1.1-0.4c0.4-0.1,0.8-0.1,1.2-0.1
		c0.4,0,0.7,0,1.1,0.1s0.7,0.1,1,0.3s0.6,0.4,0.7,0.6c0.2,0.3,0.3,0.6,0.3,1v3.7c0,0.3,0,0.6,0.1,0.9c0,0.3,0.1,0.5,0.2,0.7h-2
		c0-0.1-0.1-0.2-0.1-0.3c0-0.1,0-0.2,0-0.4c-0.3,0.3-0.7,0.5-1.1,0.7s-0.9,0.2-1.3,0.2c-0.3,0-0.7,0-1-0.1c-0.3-0.1-0.6-0.2-0.8-0.4
		c-0.2-0.2-0.4-0.4-0.5-0.7c-0.1-0.3-0.2-0.6-0.2-1c0-0.4,0.1-0.7,0.2-1c0.1-0.3,0.3-0.5,0.6-0.6c0.2-0.2,0.5-0.3,0.8-0.4
		c0.3-0.1,0.6-0.1,0.9-0.2c0.3,0,0.6-0.1,0.9-0.1c0.3,0,0.5-0.1,0.7-0.1c0.2-0.1,0.4-0.1,0.5-0.2c0.1-0.1,0.2-0.3,0.2-0.5
		c0-0.2,0-0.4-0.1-0.5s-0.2-0.2-0.3-0.3s-0.2-0.1-0.4-0.1c-0.2,0-0.3,0-0.5,0c-0.4,0-0.7,0.1-0.9,0.2c-0.2,0.2-0.4,0.4-0.4,0.8H20z
		 M24.5,39.8c-0.1,0.1-0.2,0.1-0.3,0.2C24.1,40,24,40,23.8,40c-0.1,0-0.3,0.1-0.5,0.1s-0.3,0-0.5,0.1c-0.2,0-0.3,0.1-0.4,0.1
		c-0.1,0-0.3,0.1-0.4,0.2c-0.1,0.1-0.2,0.2-0.3,0.3c-0.1,0.1-0.1,0.3-0.1,0.4c0,0.2,0,0.3,0.1,0.4s0.2,0.2,0.3,0.3s0.2,0.1,0.4,0.1
		c0.1,0,0.3,0,0.5,0c0.4,0,0.7-0.1,0.9-0.2s0.4-0.3,0.5-0.5c0.1-0.2,0.2-0.4,0.2-0.5c0-0.2,0-0.3,0-0.4V39.8z"/>
	<path class="st0" d="M28.1,33.4h2v9.9h-2V33.4z"/>
	<path class="st0" d="M33.6,35h-2v-1.6h2V35z M31.6,36.1h2v7.1h-2V36.1z"/>
	<path class="st0" d="M39.1,43.3h-2.2l-2.4-7.1h2.1L38,41h0l1.5-4.9h1.9L39.1,43.3z"/>
	<path class="st0" d="M44.4,35h-2v-1.6h2V35z M42.4,36.1h2v7.1h-2V36.1z"/>
	<path class="st0" d="M45.7,39.7c0-0.6,0.1-1.1,0.3-1.6c0.2-0.5,0.4-0.9,0.7-1.2c0.3-0.3,0.7-0.6,1.2-0.8s1-0.3,1.5-0.3
		c0.6,0,1.1,0.1,1.5,0.3s0.8,0.4,1.2,0.8c0.3,0.3,0.6,0.7,0.7,1.2c0.2,0.5,0.3,1,0.3,1.6c0,0.6-0.1,1.1-0.3,1.5
		c-0.2,0.5-0.4,0.9-0.7,1.2c-0.3,0.3-0.7,0.6-1.2,0.8s-1,0.3-1.5,0.3c-0.6,0-1.1-0.1-1.5-0.3s-0.8-0.4-1.2-0.8
		c-0.3-0.3-0.6-0.7-0.7-1.2C45.8,40.8,45.7,40.3,45.7,39.7z M47.6,39.7c0,0.3,0,0.6,0.1,0.8c0.1,0.3,0.1,0.5,0.3,0.7
		c0.1,0.2,0.3,0.4,0.5,0.5c0.2,0.1,0.5,0.2,0.8,0.2c0.3,0,0.6-0.1,0.8-0.2c0.2-0.1,0.4-0.3,0.5-0.5c0.1-0.2,0.2-0.5,0.3-0.7
		c0.1-0.3,0.1-0.6,0.1-0.8c0-0.3,0-0.6-0.1-0.8c-0.1-0.3-0.1-0.5-0.3-0.7s-0.3-0.4-0.5-0.5c-0.2-0.1-0.5-0.2-0.8-0.2
		c-0.3,0-0.6,0.1-0.8,0.2c-0.2,0.1-0.4,0.3-0.5,0.5c-0.1,0.2-0.2,0.5-0.3,0.7C47.7,39.1,47.6,39.4,47.6,39.7z"/>
	<path class="st0" d="M63.3,42.4L63.3,42.4c-0.3,0.4-0.6,0.7-0.9,0.8s-0.8,0.3-1.3,0.3c-0.5,0-1-0.1-1.4-0.3s-0.7-0.5-1-0.9
		c-0.3-0.4-0.5-0.8-0.6-1.2c-0.1-0.5-0.2-0.9-0.2-1.4c0-0.5,0.1-0.9,0.2-1.4c0.1-0.4,0.3-0.8,0.6-1.2c0.3-0.3,0.6-0.6,1-0.8
		c0.4-0.2,0.9-0.3,1.4-0.3c0.4,0,0.8,0.1,1.2,0.3c0.4,0.2,0.7,0.4,0.9,0.8h0v-3.6h2v9.9h-1.9V42.4z M63.3,39.7c0-0.3,0-0.6-0.1-0.8
		s-0.2-0.5-0.3-0.7c-0.1-0.2-0.3-0.4-0.5-0.5s-0.5-0.2-0.8-0.2c-0.3,0-0.6,0.1-0.8,0.2c-0.2,0.1-0.4,0.3-0.5,0.5s-0.2,0.5-0.3,0.7
		c-0.1,0.3-0.1,0.6-0.1,0.8c0,0.3,0,0.6,0.1,0.8s0.2,0.5,0.3,0.7c0.1,0.2,0.3,0.4,0.5,0.5s0.5,0.2,0.8,0.2c0.3,0,0.6-0.1,0.8-0.2
		c0.2-0.1,0.4-0.3,0.5-0.5c0.1-0.2,0.2-0.5,0.3-0.7S63.3,40,63.3,39.7z"/>
	<path class="st0" d="M68.2,40.2c0,0.6,0.2,1.1,0.5,1.4C69,41.8,69.4,42,70,42c0.4,0,0.7-0.1,1-0.3c0.3-0.2,0.5-0.4,0.5-0.6h1.7
		c-0.3,0.8-0.7,1.5-1.3,1.8s-1.3,0.6-2.1,0.6c-0.6,0-1.1-0.1-1.5-0.3c-0.5-0.2-0.8-0.4-1.1-0.8c-0.3-0.3-0.6-0.7-0.7-1.2
		s-0.3-1-0.3-1.5c0-0.5,0.1-1,0.3-1.5c0.2-0.5,0.4-0.9,0.7-1.2c0.3-0.3,0.7-0.6,1.2-0.8c0.4-0.2,0.9-0.3,1.5-0.3
		c0.6,0,1.1,0.1,1.6,0.4c0.5,0.2,0.8,0.5,1.1,0.9c0.3,0.4,0.5,0.8,0.6,1.4c0.1,0.5,0.2,1,0.1,1.6H68.2z M71.4,38.9
		c-0.1-0.5-0.3-0.9-0.5-1.1c-0.2-0.3-0.6-0.4-1.1-0.4c-0.3,0-0.6,0.1-0.8,0.2c-0.2,0.1-0.4,0.2-0.5,0.4c-0.1,0.2-0.2,0.3-0.3,0.5
		c0,0.2-0.1,0.3-0.1,0.5H71.4z"/>
	<path class="st0" d="M78.5,36.1h1.9v1h0c0.3-0.4,0.6-0.7,0.9-0.9c0.4-0.2,0.8-0.3,1.3-0.3c0.5,0,0.9,0.1,1.2,0.3s0.7,0.5,0.8,0.9
		c0.2-0.3,0.5-0.6,0.9-0.8c0.4-0.2,0.8-0.4,1.3-0.4c0.4,0,0.7,0,1.1,0.1c0.3,0.1,0.6,0.2,0.8,0.4c0.2,0.2,0.4,0.5,0.5,0.8
		s0.2,0.7,0.2,1.2v4.8h-2v-4c0-0.2,0-0.5,0-0.7s-0.1-0.4-0.2-0.6c-0.1-0.2-0.2-0.3-0.4-0.4s-0.4-0.1-0.7-0.1s-0.5,0.1-0.7,0.2
		c-0.2,0.1-0.3,0.2-0.4,0.4c-0.1,0.2-0.2,0.4-0.2,0.6s0,0.4,0,0.7v4h-2v-4c0-0.2,0-0.4,0-0.6c0-0.2,0-0.4-0.1-0.6
		c-0.1-0.2-0.2-0.3-0.3-0.4c-0.2-0.1-0.4-0.2-0.7-0.2c-0.1,0-0.2,0-0.4,0.1c-0.1,0-0.3,0.1-0.4,0.2c-0.1,0.1-0.3,0.3-0.4,0.5
		c-0.1,0.2-0.2,0.5-0.2,0.8v4.1h-2V36.1z"/>
	<path class="st0" d="M90.8,38.3c0-0.5,0.1-0.8,0.3-1.1c0.2-0.3,0.5-0.5,0.8-0.7c0.3-0.2,0.7-0.3,1.1-0.4c0.4-0.1,0.8-0.1,1.2-0.1
		c0.4,0,0.7,0,1.1,0.1s0.7,0.1,1,0.3s0.6,0.4,0.7,0.6c0.2,0.3,0.3,0.6,0.3,1v3.7c0,0.3,0,0.6,0.1,0.9c0,0.3,0.1,0.5,0.2,0.7h-2
		c0-0.1-0.1-0.2-0.1-0.3c0-0.1,0-0.2,0-0.4c-0.3,0.3-0.7,0.5-1.1,0.7s-0.9,0.2-1.3,0.2c-0.3,0-0.7,0-1-0.1c-0.3-0.1-0.6-0.2-0.8-0.4
		c-0.2-0.2-0.4-0.4-0.5-0.7c-0.1-0.3-0.2-0.6-0.2-1c0-0.4,0.1-0.7,0.2-1c0.1-0.3,0.3-0.5,0.6-0.6c0.2-0.2,0.5-0.3,0.8-0.4
		c0.3-0.1,0.6-0.1,0.9-0.2c0.3,0,0.6-0.1,0.9-0.1c0.3,0,0.5-0.1,0.7-0.1c0.2-0.1,0.4-0.1,0.5-0.2c0.1-0.1,0.2-0.3,0.2-0.5
		c0-0.2,0-0.4-0.1-0.5s-0.2-0.2-0.3-0.3s-0.2-0.1-0.4-0.1c-0.2,0-0.3,0-0.5,0c-0.4,0-0.7,0.1-0.9,0.2c-0.2,0.2-0.4,0.4-0.4,0.8H90.8
		z M95.4,39.8c-0.1,0.1-0.2,0.1-0.3,0.2c-0.1,0-0.3,0.1-0.4,0.1c-0.1,0-0.3,0.1-0.5,0.1s-0.3,0-0.5,0.1c-0.2,0-0.3,0.1-0.4,0.1
		c-0.1,0-0.3,0.1-0.4,0.2c-0.1,0.1-0.2,0.2-0.3,0.3c-0.1,0.1-0.1,0.3-0.1,0.4c0,0.2,0,0.3,0.1,0.4s0.2,0.2,0.3,0.3s0.2,0.1,0.4,0.1
		c0.1,0,0.3,0,0.5,0c0.4,0,0.7-0.1,0.9-0.2s0.4-0.3,0.5-0.5c0.1-0.2,0.2-0.4,0.2-0.5c0-0.2,0-0.3,0-0.4V39.8z"/>
	<path class="st0" d="M98.9,33.4h2v9.9h-2V33.4z"/>
	<path class="st0" d="M104,40.2c0,0.6,0.2,1.1,0.5,1.4c0.3,0.3,0.7,0.4,1.3,0.4c0.4,0,0.7-0.1,1-0.3c0.3-0.2,0.5-0.4,0.5-0.6h1.7
		c-0.3,0.8-0.7,1.5-1.3,1.8s-1.3,0.6-2.1,0.6c-0.6,0-1.1-0.1-1.5-0.3c-0.5-0.2-0.8-0.4-1.1-0.8c-0.3-0.3-0.6-0.7-0.7-1.2
		s-0.3-1-0.3-1.5c0-0.5,0.1-1,0.3-1.5c0.2-0.5,0.4-0.9,0.7-1.2c0.3-0.3,0.7-0.6,1.2-0.8c0.4-0.2,0.9-0.3,1.5-0.3
		c0.6,0,1.1,0.1,1.6,0.4c0.5,0.2,0.8,0.5,1.1,0.9c0.3,0.4,0.5,0.8,0.6,1.4c0.1,0.5,0.2,1,0.1,1.6H104z M107.2,38.9
		c-0.1-0.5-0.3-0.9-0.5-1.1c-0.2-0.3-0.6-0.4-1.1-0.4c-0.3,0-0.6,0.1-0.8,0.2c-0.2,0.1-0.4,0.2-0.5,0.4c-0.1,0.2-0.2,0.3-0.3,0.5
		c0,0.2-0.1,0.3-0.1,0.5H107.2z"/>
	<path class="st0" d="M111.9,40.9c0,0.2,0,0.4,0.1,0.5c0.1,0.2,0.2,0.3,0.3,0.4c0.1,0.1,0.3,0.2,0.5,0.2s0.4,0.1,0.6,0.1
		c0.1,0,0.3,0,0.4,0c0.2,0,0.3-0.1,0.4-0.2c0.1-0.1,0.2-0.2,0.3-0.3s0.1-0.3,0.1-0.4c0-0.1-0.1-0.3-0.2-0.4
		c-0.1-0.1-0.2-0.2-0.4-0.3s-0.4-0.2-0.7-0.2c-0.3-0.1-0.6-0.1-0.9-0.2c-0.3-0.1-0.6-0.1-0.8-0.2c-0.3-0.1-0.5-0.2-0.7-0.3
		s-0.4-0.3-0.5-0.5c-0.1-0.2-0.2-0.5-0.2-0.8c0-0.5,0.1-0.8,0.3-1.1c0.2-0.3,0.4-0.5,0.7-0.7c0.3-0.2,0.6-0.3,1-0.4
		c0.4-0.1,0.7-0.1,1.1-0.1s0.8,0,1.1,0.1c0.4,0.1,0.7,0.2,1,0.4c0.3,0.2,0.5,0.4,0.7,0.7c0.2,0.3,0.3,0.7,0.3,1.1h-1.9
		c0-0.4-0.2-0.6-0.4-0.8s-0.6-0.2-0.9-0.2c-0.1,0-0.2,0-0.4,0s-0.2,0-0.4,0.1c-0.1,0-0.2,0.1-0.3,0.2c-0.1,0.1-0.1,0.2-0.1,0.4
		c0,0.2,0.1,0.3,0.2,0.4s0.3,0.2,0.5,0.3c0.2,0.1,0.4,0.1,0.7,0.2c0.3,0.1,0.5,0.1,0.8,0.2c0.3,0.1,0.6,0.1,0.8,0.2
		c0.3,0.1,0.5,0.2,0.7,0.4s0.4,0.3,0.5,0.6c0.1,0.2,0.2,0.5,0.2,0.8c0,0.5-0.1,0.9-0.3,1.2c-0.2,0.3-0.4,0.6-0.7,0.8
		c-0.3,0.2-0.7,0.3-1,0.4s-0.8,0.1-1.2,0.1c-0.4,0-0.8,0-1.2-0.1c-0.4-0.1-0.7-0.2-1.1-0.4s-0.6-0.5-0.8-0.8s-0.3-0.7-0.3-1.2H111.9
		z"/>
	<path class="st0" d="M120.2,36.1h1.4v1.3h-1.4V41c0,0.3,0.1,0.6,0.2,0.7c0.1,0.1,0.3,0.2,0.7,0.2c0.2,0,0.4,0,0.6-0.1v1.5
		c-0.2,0-0.3,0-0.6,0.1c-0.2,0-0.4,0-0.6,0c-0.3,0-0.6,0-0.9-0.1c-0.3,0-0.5-0.1-0.7-0.2c-0.2-0.1-0.4-0.3-0.5-0.5
		c-0.1-0.2-0.2-0.5-0.2-0.9v-4.2h-1.2v-1.3h1.2V34h2V36.1z"/>
	<path class="st0" d="M122.5,38.3c0-0.5,0.1-0.8,0.3-1.1c0.2-0.3,0.5-0.5,0.8-0.7c0.3-0.2,0.7-0.3,1.1-0.4c0.4-0.1,0.8-0.1,1.2-0.1
		c0.4,0,0.7,0,1.1,0.1s0.7,0.1,1,0.3s0.6,0.4,0.7,0.6c0.2,0.3,0.3,0.6,0.3,1v3.7c0,0.3,0,0.6,0.1,0.9c0,0.3,0.1,0.5,0.2,0.7h-2
		c0-0.1-0.1-0.2-0.1-0.3c0-0.1,0-0.2,0-0.4c-0.3,0.3-0.7,0.5-1.1,0.7s-0.9,0.2-1.3,0.2c-0.3,0-0.7,0-1-0.1c-0.3-0.1-0.6-0.2-0.8-0.4
		c-0.2-0.2-0.4-0.4-0.5-0.7c-0.1-0.3-0.2-0.6-0.2-1c0-0.4,0.1-0.7,0.2-1c0.1-0.3,0.3-0.5,0.6-0.6c0.2-0.2,0.5-0.3,0.8-0.4
		c0.3-0.1,0.6-0.1,0.9-0.2c0.3,0,0.6-0.1,0.9-0.1c0.3,0,0.5-0.1,0.7-0.1c0.2-0.1,0.4-0.1,0.5-0.2c0.1-0.1,0.2-0.3,0.2-0.5
		c0-0.2,0-0.4-0.1-0.5s-0.2-0.2-0.3-0.3s-0.2-0.1-0.4-0.1c-0.2,0-0.3,0-0.5,0c-0.4,0-0.7,0.1-0.9,0.2c-0.2,0.2-0.4,0.4-0.4,0.8
		H122.5z M127.1,39.8c-0.1,0.1-0.2,0.1-0.3,0.2c-0.1,0-0.3,0.1-0.4,0.1c-0.1,0-0.3,0.1-0.5,0.1s-0.3,0-0.5,0.1
		c-0.2,0-0.3,0.1-0.4,0.1c-0.1,0-0.3,0.1-0.4,0.2c-0.1,0.1-0.2,0.2-0.3,0.3c-0.1,0.1-0.1,0.3-0.1,0.4c0,0.2,0,0.3,0.1,0.4
		s0.2,0.2,0.3,0.3s0.2,0.1,0.4,0.1c0.1,0,0.3,0,0.5,0c0.4,0,0.7-0.1,0.9-0.2s0.4-0.3,0.5-0.5c0.1-0.2,0.2-0.4,0.2-0.5
		c0-0.2,0-0.3,0-0.4V39.8z"/>
	<path class="st0" d="M130.6,36.1h1.9v1.3h0c0.1-0.2,0.2-0.4,0.4-0.6c0.2-0.2,0.3-0.4,0.5-0.5c0.2-0.1,0.4-0.2,0.7-0.3
		c0.2-0.1,0.5-0.1,0.7-0.1c0.1,0,0.3,0,0.4,0.1v1.8c-0.1,0-0.2,0-0.3,0s-0.3,0-0.4,0c-0.4,0-0.7,0.1-0.9,0.2
		c-0.2,0.1-0.4,0.3-0.6,0.5c-0.2,0.2-0.3,0.5-0.3,0.7c-0.1,0.3-0.1,0.6-0.1,0.9v3.2h-2V36.1z"/>
	<path class="st0" d="M135.1,45.8c0.5-1,0.9-2,1.1-3s0.4-2.1,0.4-3.2c0-1.1-0.1-2.2-0.4-3.3c-0.2-1.1-0.6-2.1-1.1-3.1h1.6
		c0.6,0.9,1,2,1.3,3c0.3,1.1,0.5,2.1,0.5,3.2c0,0.5,0,1.1-0.1,1.6s-0.2,1.1-0.3,1.7c-0.2,0.6-0.3,1.1-0.6,1.6
		c-0.2,0.5-0.5,1-0.8,1.4H135.1z"/>
	<path class="st0" d="M140.1,41.1h2.2v2.1h-2.2V41.1z"/>
	<path class="st0" d="M143.5,34.4c0-0.3,0.1-0.5,0.2-0.7c0.1-0.2,0.3-0.4,0.4-0.5c0.2-0.1,0.4-0.2,0.6-0.3s0.5-0.1,0.7-0.1
		c0.3,0,0.6,0.1,0.9,0.2c0.2,0.1,0.4,0.2,0.6,0.4c0.1,0.2,0.3,0.3,0.3,0.5c0.1,0.2,0.1,0.3,0.1,0.5c0,0.3-0.1,0.5-0.2,0.7
		c-0.1,0.2-0.3,0.4-0.6,0.5v0c0.3,0.1,0.6,0.2,0.8,0.5s0.3,0.5,0.3,0.9c0,0.3-0.1,0.6-0.2,0.8c-0.1,0.2-0.3,0.4-0.5,0.6
		c-0.2,0.1-0.4,0.3-0.7,0.3c-0.3,0.1-0.5,0.1-0.8,0.1c-0.3,0-0.5,0-0.8-0.1c-0.3-0.1-0.5-0.2-0.7-0.3c-0.2-0.1-0.4-0.3-0.5-0.5
		c-0.1-0.2-0.2-0.5-0.2-0.8c0-0.4,0.1-0.7,0.3-0.9c0.2-0.2,0.4-0.4,0.8-0.5v0c-0.3-0.1-0.5-0.2-0.6-0.4
		C143.5,35,143.5,34.7,143.5,34.4z M144.4,37c0,0.1,0,0.3,0.1,0.4c0.1,0.1,0.1,0.2,0.2,0.3s0.2,0.1,0.3,0.2c0.1,0,0.3,0.1,0.4,0.1
		c0.1,0,0.3,0,0.4-0.1s0.2-0.1,0.3-0.2s0.2-0.2,0.2-0.3c0-0.1,0.1-0.2,0.1-0.4c0-0.1,0-0.3-0.1-0.4s-0.1-0.2-0.2-0.3
		c-0.1-0.1-0.2-0.1-0.3-0.2s-0.2-0.1-0.4-0.1c-0.3,0-0.5,0.1-0.7,0.2C144.5,36.4,144.4,36.7,144.4,37z M144.5,34.6
		c0,0.1,0,0.2,0.1,0.3c0,0.1,0.1,0.2,0.2,0.2c0.1,0.1,0.2,0.1,0.3,0.1c0.1,0,0.2,0,0.3,0c0.2,0,0.4-0.1,0.6-0.2s0.2-0.3,0.2-0.6
		c0-0.1,0-0.2,0-0.2c0-0.1-0.1-0.2-0.1-0.3c-0.1-0.1-0.1-0.1-0.3-0.2c-0.1-0.1-0.3-0.1-0.4-0.1c-0.2,0-0.4,0.1-0.6,0.2
		C144.6,34.1,144.5,34.3,144.5,34.6z"/>
</g>
</svg>
