<!-- Generator: Adobe Illustrator 20.1.0, SVG Export Plug-In  -->
<svg version="1.1"
	 xmlns="http://www.w3.org/2000/svg" xmlns:xlink="http://www.w3.org/1999/xlink" xmlns:a="http://ns.adobe.com/AdobeSVGViewerExtensions/3.0/"
	 x="0px" y="0px" width="903.5px" height="220.4px" viewBox="0 0 903.5 220.4"
	 style="overflow:scroll;enable-background:new 0 0 903.5 220.4;" xml:space="preserve">
<style type="text/css">
	.st0{clip-path:url(#SVGID_2_);}
	.st1{fill:#E8E8E8;}
	.st2{fill:#E5E5E5;}
	.st3{fill:#E1E1E1;}
	.st4{fill:#DEDEDE;}
	.st5{fill:#DBDBDB;}
	.st6{fill:#D8D8D8;}
	.st7{fill:#D4D4D4;}
	.st8{fill:#D1D1D1;}
	.st9{fill:#CECECE;}
	.st10{fill:#CACACA;}
	.st11{fill:#C7C7C7;}
	.st12{fill:#C4C4C4;}
	.st13{fill:#C0C0C0;}
	.st14{fill:#BDBDBD;}
	.st15{fill:#BABABA;}
	.st16{fill:#B7B7B7;}
	.st17{fill:#B3B3B3;}
	.st18{fill:#B0B0B0;}
	.st19{fill:#ADADAD;}
	.st20{fill:#A9A9A9;}
	.st21{fill:#A6A6A6;}
	.st22{fill:#A3A3A3;}
	.st23{fill:#9F9F9F;}
	.st24{fill:#9C9C9C;}
	.st25{fill:#999999;}
	.st26{fill:#969696;}
	.st27{fill:#929292;}
	.st28{fill:#8F8F8F;}
	.st29{fill:#8C8C8C;}
	.st30{fill:#888888;}
	.st31{fill:#858585;}
	.st32{fill:#828282;}
	.st33{fill:#7E7E7E;}
	.st34{fill:#7B7B7B;}
	.st35{fill:#787878;}
	.st36{fill:#757575;}
	.st37{fill:#717171;}
	.st38{fill:#6E6E6E;}
	.st39{fill:#6B6B6B;}
	.st40{fill:#676767;}
	.st41{fill:#646464;}
	.st42{fill:#616161;}
	.st43{fill:#5D5D5D;}
	.st44{fill:#5A5A5A;}
	.st45{fill:#575757;}
	.st46{fill:#545454;}
	.st47{fill:#505050;}
	.st48{fill:#4D4D4D;}
	.st49{fill:#4A4A4A;}
	.st50{fill:#464646;}
	.st51{fill:#434343;}
	.st52{fill:#404040;}
	.st53{fill:#0082CB;}
	.st54{fill:#FFA400;}
	.st55{fill:#E73F35;}
	.st56{fill:#B34FC5;}
	.st57{fill:none;stroke:#FFFFFF;stroke-width:2;stroke-linecap:round;stroke-linejoin:round;stroke-miterlimit:10;}
	.st58{fill:#FFFFFF;}
	.st59{clip-path:url(#SVGID_4_);}
</style>
<defs>
</defs>
<g>
	<defs>
		<rect id="SVGID_1_" x="4.4" y="13.2" width="687.1" height="26.3"/>
	</defs>
	<clipPath id="SVGID_2_">
		<use xlink:href="#SVGID_1_"  style="overflow:visible;"/>
	</clipPath>
	<g class="st0">
		<path class="st1" d="M0,41.7l903.5-12.9L13.3,0L0,41.7z M900,28.8L3.5,41.4L14.4,0.2L887,28.5L900,28.8z"/>
		<path class="st2" d="M3.5,41.4L900,28.8l-13-0.3L14.4,0.2L3.5,41.4z M896.5,28.8L7,41.2l8.4-40.7l855.2,27.7L896.5,28.8z"/>
		<path class="st3" d="M7,41.2l889.5-12.4l-26-0.7L15.4,0.4L7,41.2z M893.1,28.8L10.5,40.9l5.9-40.2l837.8,27.1L893.1,28.8z"/>
		<path class="st4" d="M10.5,40.9l882.6-12.1l-38.9-1L16.4,0.7L10.5,40.9z M889.6,28.8L14,40.6l3.4-39.7l820.3,26.5L889.6,28.8z"/>
		<path class="st5" d="M14,40.6l875.7-11.8l-51.9-1.3L17.4,0.9L14,40.6z M17.4,40.3l1-39.2l802.8,26l64.9,1.7L17.4,40.3z"/>
		<path class="st6" d="M18.4,1.1l-1,39.2l868.7-11.6l-64.9-1.7L18.4,1.1z M19.4,1.3l785.4,25.4l77.9,2L20.9,40.1L19.4,1.3z"/>
		<path class="st7" d="M804.8,26.7L19.4,1.3l1.5,38.7l861.8-11.3L804.8,26.7z M788.4,26.4l90.9,2.3L24.4,39.8l-4-38.2L788.4,26.4z"
			/>
		<path class="st8" d="M879.2,28.7l-90.9-2.3L20.4,1.5l4,38.2L879.2,28.7z M875.8,28.7L27.9,39.5L21.5,1.8L771.9,26L875.8,28.7z"/>
		<path class="st9" d="M875.8,28.7L771.9,26L21.5,1.8l6.4,37.8L875.8,28.7z M872.3,28.7L31.4,39.2L22.4,2l733,23.7L872.3,28.7z"/>
		<path class="st10" d="M872.3,28.7l-116.8-3L22.4,2l9,37.3L872.3,28.7z M868.9,28.7L34.9,39L23.5,2.2L739,25.4L868.9,28.7z"/>
		<path class="st11" d="M868.9,28.7L739,25.4L23.5,2.2L34.9,39L868.9,28.7z M865.4,28.7l-827,10L24.5,2.4L722.6,25L865.4,28.7z"/>
		<path class="st12" d="M865.4,28.7L722.6,25L24.5,2.4l13.9,36.3L865.4,28.7z M861.9,28.7L41.9,38.4L25.5,2.6l680.7,22L861.9,28.7z"
			/>
		<path class="st13" d="M861.9,28.7l-155.8-4L25.5,2.6l16.4,35.8L861.9,28.7z M858.5,28.7L45.4,38.1L26.5,2.9l663.2,21.5L858.5,28.7
			z"/>
		<path class="st14" d="M858.5,28.7l-168.8-4.3L26.5,2.9l18.8,35.3L858.5,28.7z M855,28.6L48.9,37.9L27.5,3.1L673.3,24L855,28.6z"/>
		<path class="st15" d="M855,28.6L673.3,24L27.5,3.1l21.3,34.8L855,28.6z M851.6,28.6L52.3,37.6L28.5,3.3l628.3,20.3L851.6,28.6z"/>
		<path class="st16" d="M851.6,28.6l-194.7-5L28.5,3.3l23.8,34.3L851.6,28.6z M848.1,28.6L55.8,37.3L29.5,3.5l610.9,19.8L848.1,28.6
			z"/>
		<path class="st17" d="M848.1,28.6l-207.7-5.3L29.5,3.5l26.3,33.8L848.1,28.6z M844.7,28.6L59.3,37L30.5,3.7L624,22.9L844.7,28.6z"
			/>
		<path class="st18" d="M844.7,28.6L624,22.9L30.5,3.7L59.3,37L844.7,28.6z M841.2,28.6L62.8,36.8L31.6,4l575.9,18.6L841.2,28.6z"/>
		<path class="st19" d="M841.2,28.6l-233.7-6L31.6,4l31.2,32.8L841.2,28.6z M837.7,28.6L66.3,36.5L32.6,4.2l558.5,18.1L837.7,28.6z"
			/>
		<path class="st20" d="M837.7,28.6l-246.6-6.3L32.6,4.2l33.7,32.3L837.7,28.6z M834.3,28.6L69.8,36.2L33.6,4.4l541,17.5L834.3,28.6
			z"/>
		<path class="st21" d="M834.3,28.6l-259.6-6.7L33.6,4.4l36.2,31.8L834.3,28.6z M830.8,28.6L73.3,35.9L34.6,4.6l523.6,16.9
			L830.8,28.6z"/>
		<path class="st22" d="M830.8,28.6l-272.6-7L34.6,4.6l38.7,31.3L830.8,28.6z M827.4,28.6L76.8,35.7L35.6,4.8l506.1,16.4L827.4,28.6
			z"/>
		<path class="st23" d="M827.4,28.6l-285.6-7.3L35.6,4.8l41.1,30.8L827.4,28.6z M823.9,28.5L80.2,35.4L36.6,5.1l488.7,15.8
			L823.9,28.5z"/>
		<path class="st24" d="M823.9,28.5l-298.6-7.7L36.6,5.1l43.6,30.3L823.9,28.5z M820.4,28.5L83.7,35.1L37.6,5.3l471.2,15.3
			L820.4,28.5z"/>
		<path class="st25" d="M820.4,28.5l-311.6-8L37.6,5.3l46.1,29.8L820.4,28.5z M817,28.5L87.2,34.8L38.6,5.5l453.8,14.7L817,28.5z"/>
		<path class="st26" d="M817,28.5l-324.5-8.3L38.6,5.5l48.6,29.3L817,28.5z M813.5,28.5l-722.8,6L39.7,5.7L476,19.8L813.5,28.5z"/>
		<path class="st27" d="M813.5,28.5L476,19.8L39.7,5.7l51.1,28.8L813.5,28.5z M810.1,28.5L94.2,34.3L40.7,5.9l418.9,13.6L810.1,28.5
			z"/>
		<path class="st28" d="M810.1,28.5l-350.5-9L40.7,5.9l53.5,28.3L810.1,28.5z M806.6,28.5L97.7,34l-56-27.9l401.4,13L806.6,28.5z"/>
		<path class="st29" d="M806.6,28.5l-363.5-9.3L41.7,6.2l56,27.9L806.6,28.5z M803.1,28.5l-702,5.3L42.7,6.4l384,12.4L803.1,28.5z"
			/>
		<path class="st30" d="M803.1,28.5l-376.5-9.7L42.7,6.4l58.5,27.4L803.1,28.5z M799.7,28.5l-695,5L43.7,6.6l366.5,11.9L799.7,28.5z
			"/>
		<path class="st31" d="M799.7,28.5l-389.4-10L43.7,6.6l60.9,26.9L799.7,28.5z M796.2,28.5l-688,4.7L44.7,6.8l349.1,11.3L796.2,28.5
			z"/>
		<path class="st32" d="M796.2,28.5L393.8,18.1L44.7,6.8l63.5,26.4L796.2,28.5z M792.8,28.4l-681.1,4.5L45.7,7l331.6,10.7
			L792.8,28.4z"/>
		<path class="st33" d="M792.8,28.4L377.4,17.8L45.7,7l65.9,25.9L792.8,28.4z M789.3,28.4l-674.2,4.2L46.7,7.3l314.2,10.2
			L789.3,28.4z"/>
		<path class="st34" d="M789.3,28.4l-428.4-11L46.7,7.3l68.4,25.4L789.3,28.4z M785.8,28.4l-667.2,3.9L47.7,7.5l296.7,9.6
			L785.8,28.4z"/>
		<path class="st35" d="M785.8,28.4L344.5,17.1L47.7,7.5l70.9,24.9L785.8,28.4z M782.4,28.4l-660.2,3.7L48.8,7.7l279.2,9L782.4,28.4
			z"/>
		<path class="st36" d="M782.4,28.4L328,16.7l-279.2-9l73.3,24.4L782.4,28.4z M778.9,28.4l-653.3,3.4L49.8,7.9l261.8,8.5L778.9,28.4
			z"/>
		<path class="st37" d="M778.9,28.4l-467.3-12L49.8,7.9l75.8,23.9L778.9,28.4z M775.5,28.4l-646.4,3.1L50.8,8.1l244.3,7.9
			L775.5,28.4z"/>
		<path class="st38" d="M775.5,28.4L295.1,16.1L50.8,8.1l78.3,23.4L775.5,28.4z M772,28.4l-639.4,2.9L51.8,8.4l226.9,7.3L772,28.4z"
			/>
		<path class="st39" d="M772,28.4L278.7,15.7L51.8,8.4l80.8,22.9L772,28.4z M768.5,28.4L136.1,31L52.8,8.6l209.4,6.8L768.5,28.4z"/>
		<path class="st40" d="M768.5,28.4l-506.3-13L52.8,8.6L136.1,31L768.5,28.4z M765.1,28.4l-625.5,2.4L53.8,8.8l192,6.2L765.1,28.4z"
			/>
		<path class="st41" d="M765.1,28.4L245.8,15l-192-6.2l85.7,21.9L765.1,28.4z M761.6,28.3L143,30.4L54.8,9l174.5,5.6L761.6,28.3z"/>
		<path class="st42" d="M761.6,28.3L229.4,14.7L54.8,9L143,30.4L761.6,28.3z M758.2,28.3l-611.6,1.8L55.9,9.2l157.1,5.1L758.2,28.3z
			"/>
		<path class="st43" d="M758.2,28.3l-545.2-14L55.9,9.2l90.7,20.9L758.2,28.3z M754.7,28.3L150,29.9L56.9,9.5L196.5,14L754.7,28.3z"
			/>
		<path class="st44" d="M754.7,28.3L196.5,14L56.9,9.5L150,29.9L754.7,28.3z M751.2,28.3l-597.7,1.3L66,11.4L65,11.2l0.4,0L65,11.2
			l-1-0.2l0.3,0l-0.3-0.1l-1-0.2l0.3,0l-0.3-0.1l-1-0.2l0.2,0l-0.3-0.1l-0.9-0.2l0.2,0l-0.2,0l-0.9-0.2H60l-0.3-0.1l-0.8-0.2l0,0
			l-1.1-0.2l122.2,4L751.2,28.3z"/>
		<polygon class="st45" points="65.3,11.2 65,11.2 65.4,11.2 		"/>
		<polygon class="st45" points="63.2,10.8 62.9,10.7 63.3,10.8 		"/>
		<polygon class="st45" points="153.5,29.6 66,11.4 67.2,11.6 157,29.3 747.8,28.3 163.6,13.3 58.9,9.9 57.9,9.7 180,13.6 
			751.2,28.3 		"/>
		<polygon class="st45" points="60,10.1 59.7,10.1 60,10.1 		"/>
		<polygon class="st45" points="62.2,10.6 61.9,10.5 62.2,10.6 		"/>
		<polygon class="st45" points="64.3,11 63.9,10.9 64.4,11 		"/>
		<polygon class="st45" points="61.1,10.4 60.8,10.3 61.1,10.4 		"/>
		<polygon class="st46" points="747.8,28.3 157,29.3 67.2,11.6 68.4,11.7 160.5,29.1 744.3,28.3 147.2,13 60,10.1 59.7,10.1 
			58.9,9.9 58.9,9.9 163.6,13.3 		"/>
		<polygon class="st47" points="147.2,13 744.3,28.3 160.5,29.1 68.4,11.7 69.7,11.9 164,28.8 740.9,28.3 130.7,12.6 61.1,10.4 
			60.8,10.3 59.9,10.1 60,10.1 60,10.1 		"/>
		<polygon class="st48" points="130.7,12.6 740.9,28.3 164,28.8 69.7,11.9 70.9,12.1 167.5,28.5 737.4,28.3 114.3,12.3 62.2,10.6 
			61.9,10.5 60.9,10.3 61.1,10.4 61.1,10.4 		"/>
		<polygon class="st49" points="114.3,12.3 737.4,28.3 167.5,28.5 70.9,12.1 72.1,12.3 171,28.2 733.9,28.3 97.8,11.9 63.3,10.8 
			62.9,10.7 61.9,10.6 62.2,10.6 62.2,10.6 		"/>
		<polygon class="st50" points="97.8,11.9 733.9,28.3 171,28.2 72.1,12.3 73.3,12.4 174.5,28 730.5,28.2 81.4,11.6 64.4,11 
			63.9,10.9 62.9,10.8 63.2,10.8 63.3,10.8 		"/>
		<polygon class="st51" points="81.4,11.6 730.5,28.2 174.5,28 73.3,12.4 178,27.7 727,28.2 65.4,11.2 65,11.2 63.9,11 64.3,11 
			64.4,11 		"/>
		<polygon class="st52" points="727,28.2 178,27.7 73.3,12.4 72.1,12.3 70.9,12.1 69.7,11.9 68.4,11.7 67.2,11.6 66,11.4 65,11.2 
			65.3,11.2 65.4,11.2 		"/>
	</g>
</g>
<rect x="234.7" y="6.3" class="st53" width="228.5" height="24.2"/>
<rect x="463.2" y="6.3" class="st53" width="228.5" height="24.2"/>
<rect x="462" y="33.7" class="st54" width="228.5" height="118.6"/>
<rect x="234.7" y="33.7" class="st55" width="226.3" height="118.6"/>
<rect x="4.7" y="33.7" class="st56" width="228.4" height="118.6"/>
<rect x="4.7" y="6.3" class="st53" width="228.5" height="24.2"/>
<line class="st57" x1="233.2" y1="6.3" x2="233.2" y2="219.4"/>
<line class="st57" x1="461.3" y1="6.3" x2="461.3" y2="219.4"/>
<g>
	<g>
		<path class="st58" d="M101,15.2h3v8.9h3.7v2.3H101V15.2z"/>
		<path class="st58" d="M109,15.2h6.9v2.2H112v2.1h3.7v2.2H112v2.4h4.1v2.2H109V15.2z"/>
		<path class="st58" d="M116.7,15.2h3.2l1.8,8h0l1.8-8h3.1l-3.3,11.2H120L116.7,15.2z"/>
		<path class="st58" d="M127.7,15.2h6.9v2.2h-3.9v2.1h3.7v2.2h-3.7v2.4h4.1v2.2h-7.1V15.2z"/>
		<path class="st58" d="M303.2,17.8L303.2,17.8l0,8.5h-2.6V15.2h4.4l1.5,7h0l1.6-7h4.3v11.2h-2.7v-8.5h0l-2.4,8.5h-1.9L303.2,17.8z"
			/>
		<path class="st58" d="M319,15c2.4,0,5,1.6,5,5.8s-2.5,5.8-5,5.8c-2.4,0-5-1.6-5-5.8S316.6,15,319,15z M319,24.4L319,24.4
			c1.3,0,1.9-1.4,1.9-3.6c0-2.2-0.6-3.6-1.9-3.6c-1.3,0-1.9,1.5-1.9,3.6C317.1,22.9,317.7,24.4,319,24.4z"/>
		<path class="st58" d="M325.7,15.2h4.3c3.3,0,5.1,2.2,5.1,5.5c0,3.9-2,5.7-5.6,5.7h-3.8V15.2z M328.7,24.2h0.7
			c1.7,0,2.6-1.2,2.6-3.4c0-2.9-1.4-3.4-3-3.4h-0.2V24.2z"/>
		<path class="st58" d="M336.6,15.2h6.9v2.2h-3.9v2.1h3.7v2.2h-3.7v2.4h4.1v2.2h-7.1V15.2z"/>
		<path class="st58" d="M349.7,23.2c-0.3-1.1-0.8-1.2-1.3-1.2h-0.2v4.4h-3V15.2h4.5c2.3,0,3.5,0.9,3.5,3c0,1.6-1.2,2.3-2.1,2.6v0
			c0.6,0.2,1.1,0.5,1.5,2.1l1,3.5h-3.1L349.7,23.2z M349,19.8c0.6,0,1.2-0.5,1.2-1.2c0-0.8-0.4-1.3-1.3-1.3h-0.8v2.5H349z"/>
		<path class="st58" d="M360.9,24h-3.3l-0.7,2.4H354l3.7-11.2h3.3l3.6,11.2h-3.1L360.9,24z M359.4,17.4L359.4,17.4l-1.2,4.4h2.2
			L359.4,17.4z"/>
		<path class="st58" d="M365.7,15.2h4.3c3.3,0,5.1,2.2,5.1,5.5c0,3.9-2,5.7-5.6,5.7h-3.8V15.2z M368.7,24.2h0.7
			c1.7,0,2.6-1.2,2.6-3.4c0-2.9-1.4-3.4-3-3.4h-0.2V24.2z"/>
		<path class="st58" d="M381.3,15c2.4,0,5,1.6,5,5.8s-2.5,5.8-5,5.8c-2.4,0-5-1.6-5-5.8S378.8,15,381.3,15z M381.2,24.4L381.2,24.4
			c1.3,0,1.9-1.4,1.9-3.6c0-2.2-0.6-3.6-1.9-3.6c-1.3,0-1.9,1.5-1.9,3.6C379.4,22.9,380,24.4,381.2,24.4z"/>
		<path class="st58" d="M556.1,19.9h4.3v6c-0.6,0.3-2,0.6-3.4,0.6c-3.4,0-6-2-6-5.7c0-3.4,2-5.8,6.2-5.8c1.5,0,2.4,0.3,2.9,0.4
			l-0.2,2.4c-0.6-0.4-1.4-0.6-2.4-0.6c-2.3,0-3.4,1.5-3.4,3.6s1.1,3.4,2.5,3.4c0.4,0,0.7,0,1-0.2v-2.1h-1.5V19.9z"/>
		<path class="st58" d="M566.8,23.2c-0.3-1.1-0.8-1.2-1.3-1.2h-0.2v4.4h-3V15.2h4.5c2.3,0,3.5,0.9,3.5,3c0,1.6-1.2,2.3-2.1,2.6v0
			c0.6,0.2,1.1,0.5,1.5,2.1l1,3.5h-3.1L566.8,23.2z M566.1,19.8c0.6,0,1.2-0.5,1.2-1.2c0-0.8-0.4-1.3-1.3-1.3h-0.8v2.5H566.1z"/>
		<path class="st58" d="M578.1,24h-3.3l-0.7,2.4h-2.9l3.7-11.2h3.3l3.6,11.2h-3.1L578.1,24z M576.5,17.4L576.5,17.4l-1.2,4.4h2.2
			L576.5,17.4z"/>
		<path class="st58" d="M581,15.2h3.2l1.8,8h0l1.8-8h3.1l-3.3,11.2h-3.3L581,15.2z"/>
		<path class="st58" d="M592,15.2h6.9v2.2H595v2.1h3.7v2.2H595v2.4h4.1v2.2H592V15.2z"/>
	</g>
</g>
<g>
	<path class="st58" d="M20.2,47.4h3.2c2.3,0,3.5,1.3,3.5,3.4s-1.2,3.4-3.5,3.4h-1.2v4.4h-2V47.4z M23.1,52.6c1.3,0,1.8-0.6,1.8-1.8
		c0-1.2-0.6-1.8-1.8-1.8h-0.8v3.7H23.1z"/>
	<path class="st58" d="M33.8,58.2c-0.4,0.2-1.3,0.5-2.5,0.5c-2.7,0-3.8-1.9-3.8-4.1c0-2.5,1.3-4.4,3.4-4.4c1.8,0,3.3,1,3.3,4.4V55
		h-4.8c0,1.4,0.6,2.3,2.1,2.3c1.2,0,1.8-0.4,2.2-0.6L33.8,58.2z M32.3,53.7c0-1.5-0.5-2.2-1.4-2.2c-1,0-1.5,1.1-1.5,2.2H32.3z"/>
	<path class="st58" d="M40.5,57.4L40.5,57.4c-0.3,0.6-1,1.3-2.2,1.3c-1.8,0-2.8-1.6-2.8-4.3c0-2.3,0.8-4.2,2.9-4.2
		c1.3,0,1.9,0.7,2.2,1.4h0c0-0.6,0-1,0.1-1.3h1.9c0,0.3-0.1,0.8-0.1,1.4V62h-2V57.4z M39,57.2c1.1,0,1.5-1.2,1.5-2.8
		c0-1.6-0.4-2.8-1.6-2.8c-1.2,0-1.5,1-1.5,2.9C37.5,56.2,37.9,57.2,39,57.2z"/>
	<path class="st58" d="M50.9,57.2c0,0.5,0,1,0.1,1.4h-1.9c0-0.4-0.1-0.8-0.1-1.3l0,0l0,0c-0.4,0.6-0.9,1.4-2.2,1.4
		c-1.9,0-2.4-1.4-2.4-3.1v-5.3h2v4.9c0,1.3,0.4,1.8,1.2,1.8c1.1,0,1.4-1,1.4-2v-4.7h2V57.2z"/>
	<path class="st58" d="M58.7,58.2c-0.4,0.2-1.3,0.5-2.5,0.5c-2.7,0-3.8-1.9-3.8-4.1c0-2.5,1.3-4.4,3.4-4.4c1.8,0,3.3,1,3.3,4.4V55
		h-4.8c0,1.4,0.6,2.3,2.1,2.3c1.2,0,1.8-0.4,2.2-0.6L58.7,58.2z M57.2,53.7c0-1.5-0.5-2.2-1.4-2.2c-1,0-1.5,1.1-1.5,2.2H57.2z"/>
	<path class="st58" d="M60.6,51.7c0-0.5,0-1-0.1-1.4h1.9c0,0.4,0.1,0.8,0.1,1.3h0c0.3-0.5,0.8-1.4,2.2-1.4c1.9,0,2.4,1.4,2.4,3.1
		v5.3h-2v-4.9c0-1.3-0.3-1.8-1.1-1.8c-1,0-1.4,0.9-1.4,1.9v4.8h-2V51.7z M61.5,49.2c0-0.6,0.3-1.8,1.5-1.9c0.7,0,1.4,0.5,1.8,0.5
		c0.3,0,0.5-0.3,0.5-0.6h1c0,0.5-0.3,1.9-1.5,1.9c-0.6,0-1.2-0.5-1.8-0.5c-0.4,0-0.6,0.3-0.6,0.6H61.5z"/>
	<path class="st58" d="M69.4,50.8c0.6-0.3,1.3-0.6,2.6-0.6c2.6,0,3.2,1.2,3.2,3.3v3.6c0,0.6,0.1,1.1,0.1,1.5h-1.8
		c-0.1-0.3-0.1-0.7-0.1-1.1h0c-0.5,0.7-1.1,1.2-2.3,1.2c-1.3,0-2.5-0.9-2.5-2.4c0-2.2,1.8-2.8,4.3-2.8h0.4v-0.3
		c0-0.8-0.4-1.6-1.5-1.6c-1,0-1.9,0.5-2.3,0.8L69.4,50.8z M73.3,54.5h-0.2c-1.7,0-2.7,0.4-2.7,1.6c0,0.8,0.5,1.3,1.3,1.3
		c1.2,0,1.6-0.9,1.6-2.4V54.5z"/>
	<path class="st58" d="M81.5,50.8c0.6-0.3,1.3-0.6,2.6-0.6c2.6,0,3.2,1.2,3.2,3.3v3.6c0,0.6,0.1,1.1,0.1,1.5h-1.8
		c-0.1-0.3-0.1-0.7-0.1-1.1h0c-0.5,0.7-1.1,1.2-2.3,1.2c-1.3,0-2.5-0.9-2.5-2.4c0-2.2,1.8-2.8,4.3-2.8h0.4v-0.3
		c0-0.8-0.4-1.6-1.5-1.6c-1,0-1.9,0.5-2.3,0.8L81.5,50.8z M85.4,54.5h-0.2c-1.7,0-2.7,0.4-2.7,1.6c0,0.8,0.5,1.3,1.3,1.3
		c1.2,0,1.6-0.9,1.6-2.4V54.5z"/>
	<path class="st58" d="M89.3,46.6h2v12h-2V46.6z"/>
	<path class="st58" d="M94,48.6l2-0.6v2.3h1.6v1.5H96v4.3c0,0.9,0.3,1.1,0.9,1.1c0.4,0,0.6-0.1,0.8-0.2v1.4
		c-0.3,0.1-0.7,0.3-1.3,0.3c-1.5,0-2.3-0.7-2.3-2.4v-4.5h-1.3v-1.5H94V48.6z"/>
	<path class="st58" d="M105,58.2c-0.4,0.2-1.3,0.5-2.5,0.5c-2.7,0-3.8-1.9-3.8-4.1c0-2.5,1.3-4.4,3.4-4.4c1.8,0,3.3,1,3.3,4.4V55
		h-4.8c0,1.4,0.6,2.3,2.1,2.3c1.2,0,1.8-0.4,2.2-0.6L105,58.2z M103.5,53.7c0-1.5-0.5-2.2-1.4-2.2c-1,0-1.5,1.1-1.5,2.2H103.5z"/>
	<path class="st58" d="M107,51.7c0-0.5,0-1-0.1-1.4h1.8c0,0.5,0.1,1,0.1,1.5h0c0.2-0.6,0.9-1.6,2.1-1.6c0.1,0,0.2,0,0.3,0v1.9
		c-0.2,0-0.4-0.1-0.6-0.1c-0.8,0-1.7,0.5-1.7,2v4.5h-2V51.7z"/>
	<path class="st58" d="M112.8,50.8c0.6-0.3,1.3-0.6,2.6-0.6c2.6,0,3.2,1.2,3.2,3.3v3.6c0,0.6,0.1,1.1,0.1,1.5h-1.8
		c-0.1-0.3-0.1-0.7-0.1-1.1h0c-0.5,0.7-1.1,1.2-2.3,1.2c-1.3,0-2.5-0.9-2.5-2.4c0-2.2,1.8-2.8,4.3-2.8h0.4v-0.3
		c0-0.8-0.4-1.6-1.5-1.6c-1,0-1.9,0.5-2.3,0.8L112.8,50.8z M116.7,54.5h-0.2c-1.7,0-2.7,0.4-2.7,1.6c0,0.8,0.5,1.3,1.3,1.3
		c1.2,0,1.6-0.9,1.6-2.4V54.5z"/>
	<path class="st58" d="M126,58.4c-0.5,0.2-1.2,0.3-2,0.3c-2.7,0-3.9-1.9-3.9-4.2c0-2.4,1.2-4.3,4-4.3c0.6,0,1.4,0.2,1.7,0.3
		l-0.1,1.6c-0.4-0.2-0.8-0.4-1.4-0.4c-1.5,0-2.2,1-2.2,2.8c0,1.5,0.7,2.7,2.3,2.7c0.5,0,1.1-0.2,1.4-0.4L126,58.4z"/>
	<path class="st58" d="M127.4,46.8h2v2h-2V46.8z M127.4,50.3h2v8.2h-2V50.3z"/>
	<path class="st58" d="M134.8,50.2c1.7,0,3.6,0.9,3.6,4.2c0,3.5-1.9,4.3-3.6,4.3s-3.6-0.8-3.6-4.3C131.1,51.1,133.1,50.2,134.8,50.2
		z M134.8,57.3c1.3,0,1.6-1.5,1.6-2.8s-0.3-2.8-1.6-2.8s-1.6,1.5-1.6,2.8S133.5,57.3,134.8,57.3z M134.8,47.1h1.9l-1.6,2.3h-1.2
		L134.8,47.1z"/>
	<path class="st58" d="M139.9,51.7c0-0.5,0-1-0.1-1.4h1.9c0,0.4,0.1,0.8,0.1,1.3h0c0.3-0.5,0.8-1.4,2.2-1.4c1.9,0,2.4,1.4,2.4,3.1
		v5.3h-2v-4.9c0-1.3-0.3-1.8-1.1-1.8c-1,0-1.4,0.9-1.4,1.9v4.8h-2V51.7z"/>
	<path class="st58" d="M158.5,58.2c-0.4,0.2-1.3,0.5-2.5,0.5c-2.7,0-3.8-1.9-3.8-4.1c0-2.5,1.3-4.4,3.4-4.4c1.8,0,3.3,1,3.3,4.4V55
		h-4.8c0,1.4,0.6,2.3,2.1,2.3c1.2,0,1.8-0.4,2.2-0.6L158.5,58.2z M157,53.7c0-1.5-0.5-2.2-1.4-2.2c-1,0-1.5,1.1-1.5,2.2H157z"/>
	<path class="st58" d="M160.4,51.7c0-0.5,0-1-0.1-1.4h1.9c0,0.4,0.1,0.8,0.1,1.3h0c0.3-0.5,0.8-1.4,2.2-1.4c1.9,0,2.4,1.4,2.4,3.1
		v5.3h-2v-4.9c0-1.3-0.3-1.8-1.1-1.8c-1,0-1.4,0.9-1.4,1.9v4.8h-2V51.7z"/>
	<path class="st58" d="M173.1,46.6h2v12h-2V46.6z"/>
	<path class="st58" d="M177.4,50.8c0.6-0.3,1.3-0.6,2.6-0.6c2.6,0,3.2,1.2,3.2,3.3v3.6c0,0.6,0.1,1.1,0.1,1.5h-1.8
		c-0.1-0.3-0.1-0.7-0.1-1.1h0c-0.5,0.7-1.1,1.2-2.3,1.2c-1.3,0-2.5-0.9-2.5-2.4c0-2.2,1.8-2.8,4.3-2.8h0.4v-0.3
		c0-0.8-0.4-1.6-1.5-1.6c-1,0-1.9,0.5-2.3,0.8L177.4,50.8z M181.3,54.5h-0.2c-1.7,0-2.7,0.4-2.7,1.6c0,0.8,0.5,1.3,1.3,1.3
		c1.2,0,1.6-0.9,1.6-2.4V54.5z"/>
	<path class="st58" d="M20.7,71h-1.4v-1.5h1.4v-1.7c0-1.2,0.6-2.3,2.4-2.3c0.5,0,1,0.1,1.4,0.2l-0.1,1.4c-0.2-0.1-0.5-0.1-0.8-0.1
		c-0.6,0-0.9,0.4-0.9,1v1.4h1.5V71h-1.5v6.8h-2V71z"/>
	<path class="st58" d="M31.9,76.4c0,0.5,0,1,0.1,1.4h-1.9c0-0.4-0.1-0.8-0.1-1.3l0,0l0,0c-0.4,0.6-0.9,1.4-2.2,1.4
		c-1.9,0-2.4-1.4-2.4-3.1v-5.3h2v4.9c0,1.3,0.4,1.8,1.2,1.8c1.1,0,1.4-1,1.4-2v-4.7h2V76.4z"/>
	<path class="st58" d="M33.7,70.9c0-0.5,0-1-0.1-1.4h1.9c0,0.4,0.1,0.8,0.1,1.3h0c0.3-0.5,0.8-1.4,2.2-1.4c1.9,0,2.4,1.4,2.4,3.1
		v5.3h-2v-4.9c0-1.3-0.3-1.8-1.1-1.8c-1,0-1.4,0.9-1.4,1.9v4.8h-2V70.9z"/>
	<path class="st58" d="M47.6,77.6c-0.5,0.2-1.2,0.3-2,0.3c-2.7,0-3.9-1.9-3.9-4.2c0-2.4,1.2-4.3,4-4.3c0.6,0,1.4,0.2,1.7,0.3
		l-0.1,1.6c-0.4-0.2-0.8-0.4-1.4-0.4c-1.5,0-2.2,1-2.2,2.8c0,1.5,0.7,2.7,2.3,2.7c0.5,0,1.1-0.2,1.4-0.4L47.6,77.6z"/>
	<path class="st58" d="M49,66h2v2h-2V66z M49,69.5h2v8.2h-2V69.5z"/>
	<path class="st58" d="M56.4,69.4c1.7,0,3.6,0.9,3.6,4.2c0,3.5-1.9,4.3-3.6,4.3s-3.6-0.8-3.6-4.3C52.7,70.3,54.7,69.4,56.4,69.4z
		 M56.4,76.5c1.3,0,1.6-1.5,1.6-2.8c0-1.4-0.3-2.8-1.6-2.8s-1.6,1.5-1.6,2.8C54.8,75,55.1,76.5,56.4,76.5z"/>
	<path class="st58" d="M61.5,70.9c0-0.5,0-1-0.1-1.4h1.9c0,0.4,0.1,0.8,0.1,1.3h0c0.3-0.5,0.8-1.4,2.2-1.4c1.9,0,2.4,1.4,2.4,3.1
		v5.3h-2v-4.9c0-1.3-0.3-1.8-1.1-1.8c-1,0-1.4,0.9-1.4,1.9v4.8h-2V70.9z"/>
	<path class="st58" d="M70.3,70c0.6-0.3,1.3-0.6,2.6-0.6c2.6,0,3.2,1.2,3.2,3.3v3.6c0,0.6,0.1,1.1,0.1,1.5h-1.8
		c-0.1-0.3-0.1-0.7-0.1-1.1h0c-0.5,0.7-1.1,1.2-2.3,1.2c-1.3,0-2.5-0.9-2.5-2.4c0-2.2,1.8-2.8,4.3-2.8h0.4v-0.3
		c0-0.8-0.4-1.6-1.5-1.6c-1,0-1.9,0.5-2.3,0.8L70.3,70z M74.2,73.7H74c-1.7,0-2.7,0.4-2.7,1.6c0,0.8,0.5,1.3,1.3,1.3
		c1.2,0,1.6-0.9,1.6-2.4V73.7z"/>
	<path class="st58" d="M78,65.8h2v12h-2V65.8z"/>
	<path class="st58" d="M82.2,66h2v2h-2V66z M82.2,69.5h2v8.2h-2V69.5z"/>
	<path class="st58" d="M92.9,65.8v10.6c0,0.6,0,1.1,0.1,1.4h-1.9c0-0.2-0.1-0.7-0.1-1.3h0c-0.3,0.7-0.9,1.4-2.2,1.4
		c-2,0-2.9-2-2.9-4.2c0-2.7,1.1-4.3,2.8-4.3c1.2,0,1.8,0.7,2.1,1.3h0v-4.9H92.9z M89.4,76.4c1.2,0,1.6-1.3,1.6-2.8
		c0-1.6-0.4-2.8-1.5-2.8c-1.1,0-1.5,1.1-1.5,2.7C87.9,75.5,88.2,76.4,89.4,76.4z"/>
	<path class="st58" d="M95.2,70c0.6-0.3,1.3-0.6,2.6-0.6c2.6,0,3.2,1.2,3.2,3.3v3.6c0,0.6,0.1,1.1,0.1,1.5h-1.8
		c-0.1-0.3-0.1-0.7-0.1-1.1h0c-0.5,0.7-1.1,1.2-2.3,1.2c-1.3,0-2.5-0.9-2.5-2.4c0-2.2,1.8-2.8,4.3-2.8h0.4v-0.3
		c0-0.8-0.4-1.6-1.5-1.6c-1,0-1.9,0.5-2.3,0.8L95.2,70z M99.1,73.7h-0.2c-1.7,0-2.7,0.4-2.7,1.6c0,0.8,0.5,1.3,1.3,1.3
		c1.2,0,1.6-0.9,1.6-2.4V73.7z"/>
	<path class="st58" d="M109.5,65.8v10.6c0,0.6,0,1.1,0.1,1.4h-1.9c0-0.2-0.1-0.7-0.1-1.3h0c-0.3,0.7-0.9,1.4-2.2,1.4
		c-2,0-2.9-2-2.9-4.2c0-2.7,1.1-4.3,2.8-4.3c1.2,0,1.8,0.7,2.1,1.3h0v-4.9H109.5z M106,76.4c1.2,0,1.6-1.3,1.6-2.8
		c0-1.6-0.4-2.8-1.5-2.8c-1.1,0-1.5,1.1-1.5,2.7C104.5,75.5,104.8,76.4,106,76.4z"/>
	<path class="st58" d="M113.5,75.7l-1.2,4h-1.5l0.8-4H113.5z"/>
	<path class="st58" d="M119.5,70c0.6-0.3,1.3-0.6,2.6-0.6c2.6,0,3.2,1.2,3.2,3.3v3.6c0,0.6,0.1,1.1,0.1,1.5h-1.8
		c-0.1-0.3-0.1-0.7-0.1-1.1h0c-0.5,0.7-1.1,1.2-2.3,1.2c-1.3,0-2.5-0.9-2.5-2.4c0-2.2,1.8-2.8,4.3-2.8h0.4v-0.3
		c0-0.8-0.4-1.6-1.5-1.6c-1,0-1.9,0.5-2.3,0.8L119.5,70z M123.4,73.7h-0.2c-1.7,0-2.7,0.4-2.7,1.6c0,0.8,0.5,1.3,1.3,1.3
		c1.2,0,1.6-0.9,1.6-2.4V73.7z"/>
	<path class="st58" d="M132.7,77.6c-0.5,0.2-1.2,0.3-2,0.3c-2.7,0-3.9-1.9-3.9-4.2c0-2.4,1.2-4.3,4-4.3c0.6,0,1.4,0.2,1.7,0.3
		l-0.1,1.6c-0.4-0.2-0.8-0.4-1.4-0.4c-1.5,0-2.2,1-2.2,2.8c0,1.5,0.7,2.7,2.3,2.7c0.5,0,1.1-0.2,1.4-0.4L132.7,77.6z"/>
	<path class="st58" d="M134.6,67.8l2-0.6v2.3h1.6V71h-1.6v4.3c0,0.9,0.3,1.1,0.9,1.1c0.4,0,0.6-0.1,0.8-0.2v1.4
		c-0.3,0.1-0.7,0.3-1.3,0.3c-1.5,0-2.3-0.7-2.3-2.4V71h-1.3v-1.5h1.3V67.8z"/>
	<path class="st58" d="M139.7,66h2v2h-2V66z M139.7,69.5h2v8.2h-2V69.5z"/>
	<path class="st58" d="M143,69.5h2l1.7,6.4h0l1.7-6.4h1.9l-2.5,8.2h-2.3L143,69.5z"/>
	<path class="st58" d="M151.5,66h2v2h-2V66z M151.6,69.5h2v8.2h-2V69.5z"/>
	<path class="st58" d="M162.3,65.8v10.6c0,0.6,0,1.1,0.1,1.4h-1.9c0-0.2-0.1-0.7-0.1-1.3h0c-0.3,0.7-0.9,1.4-2.2,1.4
		c-2,0-2.9-2-2.9-4.2c0-2.7,1.1-4.3,2.8-4.3c1.2,0,1.8,0.7,2.1,1.3h0v-4.9H162.3z M158.8,76.4c1.2,0,1.6-1.3,1.6-2.8
		c0-1.6-0.4-2.8-1.5-2.8c-1.1,0-1.5,1.1-1.5,2.7C157.3,75.5,157.6,76.4,158.8,76.4z"/>
	<path class="st58" d="M164.5,70c0.6-0.3,1.3-0.6,2.6-0.6c2.6,0,3.2,1.2,3.2,3.3v3.6c0,0.6,0.1,1.1,0.1,1.5h-1.8
		c-0.1-0.3-0.1-0.7-0.1-1.1h0c-0.5,0.7-1.1,1.2-2.3,1.2c-1.3,0-2.5-0.9-2.5-2.4c0-2.2,1.8-2.8,4.3-2.8h0.4v-0.3
		c0-0.8-0.4-1.6-1.5-1.6c-1,0-1.9,0.5-2.3,0.8L164.5,70z M168.4,73.7h-0.2c-1.7,0-2.7,0.4-2.7,1.6c0,0.8,0.5,1.3,1.3,1.3
		c1.2,0,1.6-0.9,1.6-2.4V73.7z"/>
	<path class="st58" d="M178.9,65.8v10.6c0,0.6,0,1.1,0.1,1.4h-1.9c0-0.2-0.1-0.7-0.1-1.3h0c-0.3,0.7-0.9,1.4-2.2,1.4
		c-2,0-2.9-2-2.9-4.2c0-2.7,1.1-4.3,2.8-4.3c1.2,0,1.8,0.7,2.1,1.3h0v-4.9H178.9z M175.4,76.4c1.2,0,1.6-1.3,1.6-2.8
		c0-1.6-0.4-2.8-1.5-2.8c-1.1,0-1.5,1.1-1.5,2.7C173.9,75.5,174.2,76.4,175.4,76.4z"/>
	<path class="st58" d="M186.8,77.4c-0.4,0.2-1.3,0.5-2.5,0.5c-2.7,0-3.8-1.9-3.8-4.1c0-2.5,1.3-4.4,3.4-4.4c1.8,0,3.3,1,3.3,4.4v0.4
		h-4.8c0,1.4,0.6,2.3,2.1,2.3c1.2,0,1.8-0.4,2.2-0.6L186.8,77.4z M185.3,72.9c0-1.5-0.5-2.2-1.4-2.2c-1,0-1.5,1.1-1.5,2.2H185.3z"/>
	<path class="st58" d="M188.5,75.8c0.3,0.1,1.1,0.5,2.1,0.5c0.7,0,1.3-0.2,1.3-0.8c0-0.3-0.2-0.6-0.9-1l-0.8-0.5
		c-0.8-0.5-1.7-1-1.7-2.3c0-1.1,1.1-2.3,2.8-2.3c1.1,0,1.9,0.3,2.1,0.3l-0.1,1.5c-0.5-0.2-1-0.4-1.7-0.4c-0.8,0-1.1,0.3-1.1,0.8
		c0,0.4,0.4,0.7,0.9,1.1l1,0.6c1,0.7,1.5,1.1,1.5,2.1c0,1.5-1.3,2.4-3.1,2.4c-1,0-1.9-0.2-2.3-0.4L188.5,75.8z"/>
	<path class="st58" d="M19.8,95c0.3,0.1,1.1,0.5,2.1,0.5c0.7,0,1.3-0.2,1.3-0.8c0-0.3-0.2-0.6-0.9-1l-0.8-0.5
		c-0.8-0.5-1.7-1-1.7-2.3c0-1.1,1.1-2.3,2.8-2.3c1.1,0,1.9,0.3,2.1,0.3l-0.1,1.5c-0.5-0.2-1-0.4-1.7-0.4c-0.8,0-1.1,0.3-1.1,0.8
		c0,0.4,0.4,0.7,0.9,1.1l1,0.6c1,0.7,1.5,1.1,1.5,2.1c0,1.5-1.3,2.4-3.1,2.4c-1,0-1.9-0.2-2.3-0.4L19.8,95z"/>
	<path class="st58" d="M30,88.6c1.7,0,3.6,0.9,3.6,4.2c0,3.5-1.9,4.3-3.6,4.3s-3.6-0.8-3.6-4.3C26.3,89.5,28.3,88.6,30,88.6z
		 M30,95.7c1.3,0,1.6-1.5,1.6-2.8S31.2,90,30,90s-1.6,1.5-1.6,2.8S28.7,95.7,30,95.7z"/>
	<path class="st58" d="M40.7,96.8c-0.5,0.2-1.2,0.3-2,0.3c-2.7,0-3.9-1.9-3.9-4.2c0-2.4,1.2-4.3,4-4.3c0.6,0,1.4,0.2,1.7,0.3
		l-0.1,1.6c-0.4-0.2-0.8-0.4-1.4-0.4c-1.5,0-2.2,1-2.2,2.8c0,1.5,0.7,2.7,2.3,2.7c0.5,0,1.1-0.2,1.4-0.4L40.7,96.8z"/>
	<path class="st58" d="M42.1,85.2h2v2h-2V85.2z M42.2,88.7h2V97h-2V88.7z"/>
	<path class="st58" d="M46.5,89.2c0.6-0.3,1.3-0.6,2.6-0.6c2.6,0,3.2,1.2,3.2,3.3v3.6c0,0.6,0.1,1.1,0.1,1.5h-1.8
		c-0.1-0.3-0.1-0.7-0.1-1.1h0c-0.5,0.7-1.1,1.2-2.3,1.2c-1.3,0-2.5-0.9-2.5-2.4c0-2.2,1.8-2.8,4.3-2.8h0.4v-0.3
		c0-0.8-0.4-1.6-1.5-1.6c-1,0-1.9,0.5-2.3,0.8L46.5,89.2z M50.4,92.9h-0.2c-1.7,0-2.7,0.4-2.7,1.6c0,0.8,0.5,1.3,1.3,1.3
		c1.2,0,1.6-0.9,1.6-2.4V92.9z"/>
	<path class="st58" d="M54.3,85h2v12h-2V85z"/>
	<path class="st58" d="M64.3,96.6c-0.4,0.2-1.3,0.5-2.5,0.5c-2.7,0-3.8-1.9-3.8-4.1c0-2.5,1.3-4.4,3.4-4.4c1.8,0,3.3,1,3.3,4.4v0.4
		H60c0,1.4,0.6,2.3,2.1,2.3c1.2,0,1.8-0.4,2.2-0.6L64.3,96.6z M62.8,92.1c0-1.5-0.5-2.2-1.4-2.2c-1,0-1.5,1.1-1.5,2.2H62.8z"/>
	<path class="st58" d="M66.1,95c0.3,0.1,1.1,0.5,2.1,0.5c0.7,0,1.3-0.2,1.3-0.8c0-0.3-0.2-0.6-0.9-1l-0.8-0.5
		c-0.8-0.5-1.7-1-1.7-2.3c0-1.1,1.1-2.3,2.8-2.3c1.1,0,1.9,0.3,2.1,0.3l-0.1,1.5c-0.5-0.2-1-0.4-1.7-0.4c-0.8,0-1.1,0.3-1.1,0.8
		c0,0.4,0.4,0.7,0.9,1.1l1,0.6c1,0.7,1.5,1.1,1.5,2.1c0,1.5-1.3,2.4-3.1,2.4c-1,0-1.9-0.2-2.3-0.4L66.1,95z"/>
	<path class="st58" d="M80.4,88.6c1.7,0,3.6,0.9,3.6,4.2c0,3.5-1.9,4.3-3.6,4.3s-3.6-0.8-3.6-4.3C76.7,89.5,78.7,88.6,80.4,88.6z
		 M80.4,95.7c1.3,0,1.6-1.5,1.6-2.8S81.6,90,80.4,90s-1.6,1.5-1.6,2.8S79.1,95.7,80.4,95.7z"/>
	<path class="st58" d="M89.8,90.1c0-0.5,0-1-0.1-1.4h1.8c0,0.5,0.1,1,0.1,1.5h0c0.2-0.6,0.9-1.6,2.1-1.6c0.1,0,0.2,0,0.3,0v1.9
		c-0.2,0-0.4-0.1-0.6-0.1c-0.8,0-1.7,0.5-1.7,2V97h-2V90.1z"/>
	<path class="st58" d="M101.2,96.6c-0.4,0.2-1.3,0.5-2.5,0.5c-2.7,0-3.8-1.9-3.8-4.1c0-2.5,1.3-4.4,3.4-4.4c1.8,0,3.3,1,3.3,4.4v0.4
		h-4.8c0,1.4,0.6,2.3,2.1,2.3c1.2,0,1.8-0.4,2.2-0.6L101.2,96.6z M99.7,92.1c0-1.5-0.5-2.2-1.4-2.2c-1,0-1.5,1.1-1.5,2.2H99.7z"/>
	<path class="st58" d="M103.4,85h2v12h-2V85z"/>
	<path class="st58" d="M107.7,89.2c0.6-0.3,1.3-0.6,2.6-0.6c2.6,0,3.2,1.2,3.2,3.3v3.6c0,0.6,0.1,1.1,0.1,1.5h-1.8
		c-0.1-0.3-0.1-0.7-0.1-1.1h0c-0.5,0.7-1.1,1.2-2.3,1.2c-1.3,0-2.5-0.9-2.5-2.4c0-2.2,1.8-2.8,4.3-2.8h0.4v-0.3
		c0-0.8-0.4-1.6-1.5-1.6c-1,0-1.9,0.5-2.3,0.8L107.7,89.2z M111.6,92.9h-0.2c-1.7,0-2.7,0.4-2.7,1.6c0,0.8,0.5,1.3,1.3,1.3
		c1.2,0,1.6-0.9,1.6-2.4V92.9z"/>
	<path class="st58" d="M120.9,96.8c-0.5,0.2-1.2,0.3-2,0.3c-2.7,0-3.9-1.9-3.9-4.2c0-2.4,1.2-4.3,4-4.3c0.6,0,1.4,0.2,1.7,0.3
		l-0.1,1.6c-0.4-0.2-0.8-0.4-1.4-0.4c-1.5,0-2.2,1-2.2,2.8c0,1.5,0.7,2.7,2.3,2.7c0.5,0,1.1-0.2,1.4-0.4L120.9,96.8z"/>
	<path class="st58" d="M122.3,85.2h2v2h-2V85.2z M122.3,88.7h2V97h-2V88.7z"/>
	<path class="st58" d="M129.7,88.6c1.7,0,3.6,0.9,3.6,4.2c0,3.5-1.9,4.3-3.6,4.3s-3.6-0.8-3.6-4.3C126.1,89.5,128,88.6,129.7,88.6z
		 M129.7,95.7c1.3,0,1.6-1.5,1.6-2.8S131,90,129.7,90s-1.6,1.5-1.6,2.8S128.4,95.7,129.7,95.7z"/>
	<path class="st58" d="M134.9,90.1c0-0.5,0-1-0.1-1.4h1.9c0,0.4,0.1,0.8,0.1,1.3h0c0.3-0.5,0.8-1.4,2.2-1.4c1.9,0,2.4,1.4,2.4,3.1
		V97h-2V92c0-1.3-0.3-1.8-1.1-1.8c-1,0-1.4,0.9-1.4,1.9V97h-2V90.1z"/>
	<path class="st58" d="M149.3,96.6c-0.4,0.2-1.3,0.5-2.5,0.5c-2.7,0-3.8-1.9-3.8-4.1c0-2.5,1.3-4.4,3.4-4.4c1.8,0,3.3,1,3.3,4.4v0.4
		h-4.8c0,1.4,0.6,2.3,2.1,2.3c1.2,0,1.8-0.4,2.2-0.6L149.3,96.6z M147.8,92.1c0-1.5-0.5-2.2-1.4-2.2c-1,0-1.5,1.1-1.5,2.2H147.8z"/>
	<path class="st58" d="M151,95c0.3,0.1,1.1,0.5,2.1,0.5c0.7,0,1.3-0.2,1.3-0.8c0-0.3-0.2-0.6-0.9-1l-0.8-0.5c-0.8-0.5-1.7-1-1.7-2.3
		c0-1.1,1.1-2.3,2.8-2.3c1.1,0,1.9,0.3,2.1,0.3l-0.1,1.5c-0.5-0.2-1-0.4-1.7-0.4c-0.8,0-1.1,0.3-1.1,0.8c0,0.4,0.4,0.7,0.9,1.1
		l1,0.6c1,0.7,1.5,1.1,1.5,2.1c0,1.5-1.3,2.4-3.1,2.4c-1,0-1.9-0.2-2.3-0.4L151,95z"/>
	<path class="st58" d="M20.2,104.4h2v2h-2V104.4z M20.2,107.9h2v8.2h-2V107.9z"/>
	<path class="st58" d="M24.2,109.3c0-0.5,0-1-0.1-1.4H26c0,0.4,0.1,0.8,0.1,1.3h0c0.3-0.5,0.8-1.4,2.2-1.4c1.9,0,2.4,1.4,2.4,3.1
		v5.3h-2v-4.9c0-1.3-0.3-1.8-1.1-1.8c-1,0-1.4,0.9-1.4,1.9v4.8h-2V109.3z"/>
	<path class="st58" d="M33.2,106.2l2-0.6v2.3h1.6v1.5h-1.6v4.3c0,0.9,0.3,1.1,0.9,1.1c0.4,0,0.6-0.1,0.8-0.2v1.4
		c-0.3,0.1-0.7,0.3-1.3,0.3c-1.5,0-2.3-0.7-2.3-2.4v-4.5h-1.3v-1.5h1.3V106.2z"/>
	<path class="st58" d="M44.2,115.8c-0.4,0.2-1.3,0.5-2.5,0.5c-2.7,0-3.8-1.9-3.8-4.1c0-2.5,1.3-4.4,3.4-4.4c1.8,0,3.3,1,3.3,4.4v0.4
		h-4.8c0,1.4,0.6,2.3,2.1,2.3c1.2,0,1.8-0.4,2.2-0.6L44.2,115.8z M42.7,111.3c0-1.5-0.5-2.2-1.4-2.2c-1,0-1.5,1.1-1.5,2.2H42.7z"/>
	<path class="st58" d="M46.2,109.3c0-0.5,0-1-0.1-1.4h1.8c0,0.5,0.1,1,0.1,1.5h0c0.2-0.6,0.9-1.6,2.1-1.6c0.1,0,0.2,0,0.3,0v1.9
		c-0.2,0-0.4-0.1-0.6-0.1c-0.8,0-1.7,0.5-1.7,2v4.5h-2V109.3z"/>
	<path class="st58" d="M51.8,109.3c0-0.6,0-1.1-0.1-1.4h1.9c0,0.2,0.1,0.7,0.1,1.3h0c0.3-0.7,0.9-1.4,2.2-1.4c2,0,2.9,2,2.9,4.2
		c0,2.7-1.1,4.3-2.8,4.3c-1.2,0-1.8-0.7-2.1-1.3h0v4.6h-2V109.3z M55.3,114.8c1.1,0,1.5-1.1,1.5-2.7c0-1.9-0.3-2.9-1.5-2.9
		c-1.2,0-1.6,1.3-1.6,2.8C53.8,113.7,54.2,114.8,55.3,114.8z"/>
	<path class="st58" d="M66.4,115.8c-0.4,0.2-1.3,0.5-2.5,0.5c-2.7,0-3.8-1.9-3.8-4.1c0-2.5,1.3-4.4,3.4-4.4c1.8,0,3.3,1,3.3,4.4v0.4
		h-4.8c0,1.4,0.6,2.3,2.1,2.3c1.2,0,1.8-0.4,2.2-0.6L66.4,115.8z M64.9,111.3c0-1.5-0.5-2.2-1.4-2.2c-1,0-1.5,1.1-1.5,2.2H64.9z"/>
	<path class="st58" d="M68.4,109.3c0-0.5,0-1-0.1-1.4h1.8c0,0.5,0.1,1,0.1,1.5h0c0.2-0.6,0.9-1.6,2.1-1.6c0.1,0,0.2,0,0.3,0v1.9
		c-0.2,0-0.4-0.1-0.6-0.1c-0.8,0-1.7,0.5-1.7,2v4.5h-2V109.3z"/>
	<path class="st58" d="M73.6,114.2c0.3,0.1,1.1,0.5,2.1,0.5c0.7,0,1.3-0.2,1.3-0.8c0-0.3-0.2-0.6-0.9-1l-0.8-0.5
		c-0.8-0.5-1.7-1-1.7-2.3c0-1.1,1.1-2.3,2.8-2.3c1.1,0,1.9,0.3,2.1,0.3l-0.1,1.5c-0.5-0.2-1-0.4-1.7-0.4c-0.8,0-1.1,0.3-1.1,0.8
		c0,0.4,0.4,0.7,0.9,1.1l1,0.6c1,0.7,1.5,1.1,1.5,2.1c0,1.5-1.3,2.4-3.1,2.4c-1,0-1.9-0.2-2.3-0.4L73.6,114.2z"/>
	<path class="st58" d="M83.8,107.8c1.7,0,3.6,0.9,3.6,4.2c0,3.5-1.9,4.3-3.6,4.3s-3.6-0.8-3.6-4.3C80.1,108.7,82.1,107.8,83.8,107.8
		z M83.8,114.9c1.3,0,1.6-1.5,1.6-2.8c0-1.4-0.3-2.8-1.6-2.8s-1.6,1.5-1.6,2.8C82.2,113.4,82.5,114.9,83.8,114.9z"/>
	<path class="st58" d="M88.9,109.3c0-0.5,0-1-0.1-1.4h1.9c0,0.4,0.1,0.8,0.1,1.3h0c0.3-0.5,0.8-1.4,2.2-1.4c1.9,0,2.4,1.4,2.4,3.1
		v5.3h-2v-4.9c0-1.3-0.3-1.8-1.1-1.8c-1,0-1.4,0.9-1.4,1.9v4.8h-2V109.3z"/>
	<path class="st58" d="M97.6,108.4c0.6-0.3,1.3-0.6,2.6-0.6c2.6,0,3.2,1.2,3.2,3.3v3.6c0,0.6,0.1,1.1,0.1,1.5h-1.8
		c-0.1-0.3-0.1-0.7-0.1-1.1h0c-0.5,0.7-1.1,1.2-2.3,1.2c-1.3,0-2.5-0.9-2.5-2.4c0-2.2,1.8-2.8,4.3-2.8h0.4v-0.3
		c0-0.8-0.4-1.6-1.5-1.6c-1,0-1.9,0.5-2.3,0.8L97.6,108.4z M101.5,112.1h-0.2c-1.7,0-2.7,0.4-2.7,1.6c0,0.8,0.5,1.3,1.3,1.3
		c1.2,0,1.6-0.9,1.6-2.4V112.1z"/>
	<path class="st58" d="M105.4,104.2h2v12h-2V104.2z"/>
	<path class="st58" d="M115.5,115.8c-0.4,0.2-1.3,0.5-2.5,0.5c-2.7,0-3.8-1.9-3.8-4.1c0-2.5,1.3-4.4,3.4-4.4c1.8,0,3.3,1,3.3,4.4
		v0.4h-4.8c0,1.4,0.6,2.3,2.1,2.3c1.2,0,1.8-0.4,2.2-0.6L115.5,115.8z M113.9,111.3c0-1.5-0.5-2.2-1.4-2.2c-1,0-1.5,1.1-1.5,2.2
		H113.9z"/>
	<path class="st58" d="M117.2,114.2c0.3,0.1,1.1,0.5,2.1,0.5c0.7,0,1.3-0.2,1.3-0.8c0-0.3-0.2-0.6-0.9-1l-0.8-0.5
		c-0.8-0.5-1.7-1-1.7-2.3c0-1.1,1.1-2.3,2.8-2.3c1.1,0,1.9,0.3,2.1,0.3l-0.1,1.5c-0.5-0.2-1-0.4-1.7-0.4c-0.8,0-1.1,0.3-1.1,0.8
		c0,0.4,0.4,0.7,0.9,1.1l1,0.6c1,0.7,1.5,1.1,1.5,2.1c0,1.5-1.3,2.4-3.1,2.4c-1,0-1.9-0.2-2.3-0.4L117.2,114.2z"/>
	<path class="st58" d="M123.5,114.1h1.9v2.1h-1.9V114.1z"/>
</g>
<g>
	<path class="st58" d="M255.4,55.9h-3.8l-0.8,2.7h-2l3.7-11.2h2.2l3.6,11.2h-2.1L255.4,55.9z M255,54.3l-1.4-5.2h0l-1.5,5.2H255z"/>
	<path class="st58" d="M259.5,46.6h2v12h-2V46.6z"/>
	<path class="st58" d="M264.2,48.6l2-0.6v2.3h1.6v1.5h-1.6v4.3c0,0.9,0.3,1.1,0.9,1.1c0.4,0,0.6-0.1,0.8-0.2v1.4
		c-0.3,0.1-0.7,0.3-1.3,0.3c-1.5,0-2.3-0.7-2.3-2.4v-4.5h-1.3v-1.5h1.3V48.6z"/>
	<path class="st58" d="M275.1,58.2c-0.4,0.2-1.3,0.5-2.5,0.5c-2.7,0-3.8-1.9-3.8-4.1c0-2.5,1.3-4.4,3.4-4.4c1.8,0,3.3,1,3.3,4.4V55
		h-4.8c0,1.4,0.6,2.3,2.1,2.3c1.2,0,1.8-0.4,2.2-0.6L275.1,58.2z M273.6,53.7c0-1.5-0.5-2.2-1.4-2.2c-1,0-1.5,1.1-1.5,2.2H273.6z"/>
	<path class="st58" d="M277.1,51.7c0-0.5,0-1-0.1-1.4h1.8c0,0.5,0.1,1,0.1,1.5h0c0.2-0.6,0.9-1.6,2.1-1.6c0.1,0,0.2,0,0.3,0v1.9
		c-0.2,0-0.4-0.1-0.6-0.1c-0.8,0-1.7,0.5-1.7,2v4.5h-2V51.7z"/>
	<path class="st58" d="M283,50.8c0.6-0.3,1.3-0.6,2.6-0.6c2.6,0,3.2,1.2,3.2,3.3v3.6c0,0.6,0.1,1.1,0.1,1.5H287
		c-0.1-0.3-0.1-0.7-0.1-1.1h0c-0.5,0.7-1.1,1.2-2.3,1.2c-1.3,0-2.5-0.9-2.5-2.4c0-2.2,1.8-2.8,4.3-2.8h0.4v-0.3
		c0-0.8-0.4-1.6-1.5-1.6c-1,0-1.9,0.5-2.3,0.8L283,50.8z M286.9,54.5h-0.2c-1.7,0-2.7,0.4-2.7,1.6c0,0.8,0.5,1.3,1.3,1.3
		c1.2,0,1.6-0.9,1.6-2.4V54.5z"/>
	<path class="st58" d="M296.2,58.4c-0.5,0.2-1.2,0.3-2,0.3c-2.7,0-3.9-1.9-3.9-4.2c0-2.4,1.2-4.3,4-4.3c0.6,0,1.4,0.2,1.7,0.3
		l-0.1,1.6c-0.4-0.2-0.8-0.4-1.4-0.4c-1.5,0-2.2,1-2.2,2.8c0,1.5,0.7,2.7,2.3,2.7c0.5,0,1.1-0.2,1.4-0.4L296.2,58.4z"/>
	<path class="st58" d="M297.5,46.8h2v2h-2V46.8z M297.6,50.3h2v8.2h-2V50.3z"/>
	<path class="st58" d="M304.9,50.2c1.7,0,3.6,0.9,3.6,4.2c0,3.5-1.9,4.3-3.6,4.3s-3.6-0.8-3.6-4.3C301.3,51.1,303.3,50.2,304.9,50.2
		z M304.9,57.3c1.3,0,1.6-1.5,1.6-2.8s-0.3-2.8-1.6-2.8s-1.6,1.5-1.6,2.8S303.7,57.3,304.9,57.3z M305,47.1h1.9l-1.6,2.3H304
		L305,47.1z"/>
	<path class="st58" d="M310.1,51.7c0-0.5,0-1-0.1-1.4h1.9c0,0.4,0.1,0.8,0.1,1.3h0c0.3-0.5,0.8-1.4,2.2-1.4c1.9,0,2.4,1.4,2.4,3.1
		v5.3h-2v-4.9c0-1.3-0.3-1.8-1.1-1.8c-1,0-1.4,0.9-1.4,1.9v4.8h-2V51.7z"/>
	<path class="st58" d="M328.6,58.2c-0.4,0.2-1.3,0.5-2.5,0.5c-2.7,0-3.8-1.9-3.8-4.1c0-2.5,1.3-4.4,3.4-4.4c1.8,0,3.3,1,3.3,4.4V55
		h-4.8c0,1.4,0.6,2.3,2.1,2.3c1.2,0,1.8-0.4,2.2-0.6L328.6,58.2z M327.1,53.7c0-1.5-0.5-2.2-1.4-2.2c-1,0-1.5,1.1-1.5,2.2H327.1z"/>
	<path class="st58" d="M330.6,51.7c0-0.5,0-1-0.1-1.4h1.9c0,0.4,0.1,0.8,0.1,1.3h0c0.3-0.5,0.8-1.4,2.2-1.4c1.9,0,2.4,1.4,2.4,3.1
		v5.3h-2v-4.9c0-1.3-0.3-1.8-1.1-1.8c-1,0-1.4,0.9-1.4,1.9v4.8h-2V51.7z"/>
	<path class="st58" d="M343.2,46.6h2v12h-2V46.6z"/>
	<path class="st58" d="M347.6,50.8c0.6-0.3,1.3-0.6,2.6-0.6c2.6,0,3.2,1.2,3.2,3.3v3.6c0,0.6,0.1,1.1,0.1,1.5h-1.8
		c-0.1-0.3-0.1-0.7-0.1-1.1h0c-0.5,0.7-1.1,1.2-2.3,1.2c-1.3,0-2.5-0.9-2.5-2.4c0-2.2,1.8-2.8,4.3-2.8h0.4v-0.3
		c0-0.8-0.4-1.6-1.5-1.6c-1,0-1.9,0.5-2.3,0.8L347.6,50.8z M351.5,54.5h-0.2c-1.7,0-2.7,0.4-2.7,1.6c0,0.8,0.5,1.3,1.3,1.3
		c1.2,0,1.6-0.9,1.6-2.4V54.5z"/>
	<path class="st58" d="M250.2,71h-1.4v-1.5h1.4v-1.7c0-1.2,0.6-2.3,2.4-2.3c0.5,0,1,0.1,1.4,0.2l-0.1,1.4c-0.2-0.1-0.5-0.1-0.8-0.1
		c-0.6,0-0.9,0.4-0.9,1v1.4h1.5V71h-1.5v6.8h-2V71z"/>
	<path class="st58" d="M261.4,76.4c0,0.5,0,1,0.1,1.4h-1.9c0-0.4-0.1-0.8-0.1-1.3l0,0l0,0c-0.4,0.6-0.9,1.4-2.2,1.4
		c-1.9,0-2.4-1.4-2.4-3.1v-5.3h2v4.9c0,1.3,0.4,1.8,1.2,1.8c1.1,0,1.4-1,1.4-2v-4.7h2V76.4z"/>
	<path class="st58" d="M263.1,70.9c0-0.5,0-1-0.1-1.4h1.9c0,0.4,0.1,0.8,0.1,1.3h0c0.3-0.5,0.8-1.4,2.2-1.4c1.9,0,2.4,1.4,2.4,3.1
		v5.3h-2v-4.9c0-1.3-0.3-1.8-1.1-1.8c-1,0-1.4,0.9-1.4,1.9v4.8h-2V70.9z"/>
	<path class="st58" d="M277.1,77.6c-0.5,0.2-1.2,0.3-2,0.3c-2.7,0-3.9-1.9-3.9-4.2c0-2.4,1.2-4.3,4-4.3c0.6,0,1.4,0.2,1.7,0.3
		l-0.1,1.6c-0.4-0.2-0.8-0.4-1.4-0.4c-1.5,0-2.2,1-2.2,2.8c0,1.5,0.7,2.7,2.3,2.7c0.5,0,1.1-0.2,1.4-0.4L277.1,77.6z"/>
	<path class="st58" d="M278.4,66h2v2h-2V66z M278.5,69.5h2v8.2h-2V69.5z"/>
	<path class="st58" d="M285.8,69.4c1.7,0,3.6,0.9,3.6,4.2c0,3.5-1.9,4.3-3.6,4.3s-3.6-0.8-3.6-4.3C282.2,70.3,284.2,69.4,285.8,69.4
		z M285.8,76.5c1.3,0,1.6-1.5,1.6-2.8c0-1.4-0.3-2.8-1.6-2.8s-1.6,1.5-1.6,2.8C284.2,75,284.6,76.5,285.8,76.5z"/>
	<path class="st58" d="M291,70.9c0-0.5,0-1-0.1-1.4h1.9c0,0.4,0.1,0.8,0.1,1.3h0c0.3-0.5,0.8-1.4,2.2-1.4c1.9,0,2.4,1.4,2.4,3.1v5.3
		h-2v-4.9c0-1.3-0.3-1.8-1.1-1.8c-1,0-1.4,0.9-1.4,1.9v4.8h-2V70.9z"/>
	<path class="st58" d="M299.7,70c0.6-0.3,1.3-0.6,2.6-0.6c2.6,0,3.2,1.2,3.2,3.3v3.6c0,0.6,0.1,1.1,0.1,1.5h-1.8
		c-0.1-0.3-0.1-0.7-0.1-1.1h0c-0.5,0.7-1.1,1.2-2.3,1.2c-1.3,0-2.5-0.9-2.5-2.4c0-2.2,1.8-2.8,4.3-2.8h0.4v-0.3
		c0-0.8-0.4-1.6-1.5-1.6c-1,0-1.9,0.5-2.3,0.8L299.7,70z M303.6,73.7h-0.2c-1.7,0-2.7,0.4-2.7,1.6c0,0.8,0.5,1.3,1.3,1.3
		c1.2,0,1.6-0.9,1.6-2.4V73.7z"/>
	<path class="st58" d="M307.5,65.8h2v12h-2V65.8z"/>
	<path class="st58" d="M311.6,66h2v2h-2V66z M311.7,69.5h2v8.2h-2V69.5z"/>
	<path class="st58" d="M322.4,65.8v10.6c0,0.6,0,1.1,0.1,1.4h-1.9c0-0.2-0.1-0.7-0.1-1.3h0c-0.3,0.7-0.9,1.4-2.2,1.4
		c-2,0-2.9-2-2.9-4.2c0-2.7,1.1-4.3,2.8-4.3c1.2,0,1.8,0.7,2.1,1.3h0v-4.9H322.4z M318.9,76.4c1.2,0,1.6-1.3,1.6-2.8
		c0-1.6-0.4-2.8-1.5-2.8c-1.1,0-1.5,1.1-1.5,2.7C317.4,75.5,317.7,76.4,318.9,76.4z"/>
	<path class="st58" d="M324.6,70c0.6-0.3,1.3-0.6,2.6-0.6c2.6,0,3.2,1.2,3.2,3.3v3.6c0,0.6,0.1,1.1,0.1,1.5h-1.8
		c-0.1-0.3-0.1-0.7-0.1-1.1h0c-0.5,0.7-1.1,1.2-2.3,1.2c-1.3,0-2.5-0.9-2.5-2.4c0-2.2,1.8-2.8,4.3-2.8h0.4v-0.3
		c0-0.8-0.4-1.6-1.5-1.6c-1,0-1.9,0.5-2.3,0.8L324.6,70z M328.5,73.7h-0.2c-1.7,0-2.7,0.4-2.7,1.6c0,0.8,0.5,1.3,1.3,1.3
		c1.2,0,1.6-0.9,1.6-2.4V73.7z"/>
	<path class="st58" d="M339,65.8v10.6c0,0.6,0,1.1,0.1,1.4h-1.9c0-0.2-0.1-0.7-0.1-1.3h0c-0.3,0.7-0.9,1.4-2.2,1.4
		c-2,0-2.9-2-2.9-4.2c0-2.7,1.1-4.3,2.8-4.3c1.2,0,1.8,0.7,2.1,1.3h0v-4.9H339z M335.4,76.4c1.2,0,1.6-1.3,1.6-2.8
		c0-1.6-0.4-2.8-1.5-2.8c-1.1,0-1.5,1.1-1.5,2.7C334,75.5,334.3,76.4,335.4,76.4z"/>
	<path class="st58" d="M343,75.7l-1.2,4h-1.5l0.8-4H343z"/>
	<path class="st58" d="M349,70c0.6-0.3,1.3-0.6,2.6-0.6c2.6,0,3.2,1.2,3.2,3.3v3.6c0,0.6,0.1,1.1,0.1,1.5H353
		c-0.1-0.3-0.1-0.7-0.1-1.1h0c-0.5,0.7-1.1,1.2-2.3,1.2c-1.3,0-2.5-0.9-2.5-2.4c0-2.2,1.8-2.8,4.3-2.8h0.4v-0.3
		c0-0.8-0.4-1.6-1.5-1.6c-1,0-1.9,0.5-2.3,0.8L349,70z M352.9,73.7h-0.2c-1.7,0-2.7,0.4-2.7,1.6c0,0.8,0.5,1.3,1.3,1.3
		c1.2,0,1.6-0.9,1.6-2.4V73.7z"/>
	<path class="st58" d="M362.2,77.6c-0.5,0.2-1.2,0.3-2,0.3c-2.7,0-3.9-1.9-3.9-4.2c0-2.4,1.2-4.3,4-4.3c0.6,0,1.4,0.2,1.7,0.3
		l-0.1,1.6c-0.4-0.2-0.8-0.4-1.4-0.4c-1.5,0-2.2,1-2.2,2.8c0,1.5,0.7,2.7,2.3,2.7c0.5,0,1.1-0.2,1.4-0.4L362.2,77.6z"/>
	<path class="st58" d="M364.1,67.8l2-0.6v2.3h1.6V71h-1.6v4.3c0,0.9,0.3,1.1,0.9,1.1c0.4,0,0.6-0.1,0.8-0.2v1.4
		c-0.3,0.1-0.7,0.3-1.3,0.3c-1.5,0-2.3-0.7-2.3-2.4V71h-1.3v-1.5h1.3V67.8z"/>
	<path class="st58" d="M369.2,66h2v2h-2V66z M369.2,69.5h2v8.2h-2V69.5z"/>
	<path class="st58" d="M372.4,69.5h2l1.7,6.4h0l1.7-6.4h1.9l-2.5,8.2h-2.3L372.4,69.5z"/>
	<path class="st58" d="M381,66h2v2h-2V66z M381,69.5h2v8.2h-2V69.5z"/>
	<path class="st58" d="M391.8,65.8v10.6c0,0.6,0,1.1,0.1,1.4H390c0-0.2-0.1-0.7-0.1-1.3h0c-0.3,0.7-0.9,1.4-2.2,1.4
		c-2,0-2.9-2-2.9-4.2c0-2.7,1.1-4.3,2.8-4.3c1.2,0,1.8,0.7,2.1,1.3h0v-4.9H391.8z M388.2,76.4c1.2,0,1.6-1.3,1.6-2.8
		c0-1.6-0.4-2.8-1.5-2.8c-1.1,0-1.5,1.1-1.5,2.7C386.8,75.5,387.1,76.4,388.2,76.4z"/>
	<path class="st58" d="M394,70c0.6-0.3,1.3-0.6,2.6-0.6c2.6,0,3.2,1.2,3.2,3.3v3.6c0,0.6,0.1,1.1,0.1,1.5h-1.8
		c-0.1-0.3-0.1-0.7-0.1-1.1h0c-0.5,0.7-1.1,1.2-2.3,1.2c-1.3,0-2.5-0.9-2.5-2.4c0-2.2,1.8-2.8,4.3-2.8h0.4v-0.3
		c0-0.8-0.4-1.6-1.5-1.6c-1,0-1.9,0.5-2.3,0.8L394,70z M397.9,73.7h-0.2c-1.7,0-2.7,0.4-2.7,1.6c0,0.8,0.5,1.3,1.3,1.3
		c1.2,0,1.6-0.9,1.6-2.4V73.7z"/>
	<path class="st58" d="M408.4,65.8v10.6c0,0.6,0,1.1,0.1,1.4h-1.9c0-0.2-0.1-0.7-0.1-1.3h0c-0.3,0.7-0.9,1.4-2.2,1.4
		c-2,0-2.9-2-2.9-4.2c0-2.7,1.1-4.3,2.8-4.3c1.2,0,1.8,0.7,2.1,1.3h0v-4.9H408.4z M404.8,76.4c1.2,0,1.6-1.3,1.6-2.8
		c0-1.6-0.4-2.8-1.5-2.8c-1.1,0-1.5,1.1-1.5,2.7C403.4,75.5,403.7,76.4,404.8,76.4z"/>
	<path class="st58" d="M416.3,77.4c-0.4,0.2-1.3,0.5-2.5,0.5c-2.7,0-3.8-1.9-3.8-4.1c0-2.5,1.3-4.4,3.4-4.4c1.8,0,3.3,1,3.3,4.4v0.4
		h-4.8c0,1.4,0.6,2.3,2.1,2.3c1.2,0,1.8-0.4,2.2-0.6L416.3,77.4z M414.7,72.9c0-1.5-0.5-2.2-1.4-2.2c-1,0-1.5,1.1-1.5,2.2H414.7z"/>
	<path class="st58" d="M418,75.8c0.3,0.1,1.1,0.5,2.1,0.5c0.7,0,1.3-0.2,1.3-0.8c0-0.3-0.2-0.6-0.9-1l-0.8-0.5
		c-0.8-0.5-1.7-1-1.7-2.3c0-1.1,1.1-2.3,2.8-2.3c1.1,0,1.9,0.3,2.1,0.3l-0.1,1.5c-0.5-0.2-1-0.4-1.7-0.4c-0.8,0-1.1,0.3-1.1,0.8
		c0,0.4,0.4,0.7,0.9,1.1l1,0.6c1,0.7,1.5,1.1,1.5,2.1c0,1.5-1.3,2.4-3.1,2.4c-1,0-1.9-0.2-2.3-0.4L418,75.8z"/>
	<path class="st58" d="M249.3,95c0.3,0.1,1.1,0.5,2.1,0.5c0.7,0,1.3-0.2,1.3-0.8c0-0.3-0.2-0.6-0.9-1l-0.8-0.5
		c-0.8-0.5-1.7-1-1.7-2.3c0-1.1,1.1-2.3,2.8-2.3c1.1,0,1.9,0.3,2.1,0.3l-0.1,1.5c-0.5-0.2-1-0.4-1.7-0.4c-0.8,0-1.1,0.3-1.1,0.8
		c0,0.4,0.4,0.7,0.9,1.1l1,0.6c1,0.7,1.5,1.1,1.5,2.1c0,1.5-1.3,2.4-3.1,2.4c-1,0-1.9-0.2-2.3-0.4L249.3,95z"/>
	<path class="st58" d="M259.4,88.6c1.7,0,3.6,0.9,3.6,4.2c0,3.5-1.9,4.3-3.6,4.3s-3.6-0.8-3.6-4.3C255.8,89.5,257.8,88.6,259.4,88.6
		z M259.4,95.7c1.3,0,1.6-1.5,1.6-2.8s-0.3-2.8-1.6-2.8s-1.6,1.5-1.6,2.8S258.2,95.7,259.4,95.7z"/>
	<path class="st58" d="M270.2,96.8c-0.5,0.2-1.2,0.3-2,0.3c-2.7,0-3.9-1.9-3.9-4.2c0-2.4,1.2-4.3,4-4.3c0.6,0,1.4,0.2,1.7,0.3
		l-0.1,1.6c-0.4-0.2-0.8-0.4-1.4-0.4c-1.5,0-2.2,1-2.2,2.8c0,1.5,0.7,2.7,2.3,2.7c0.5,0,1.1-0.2,1.4-0.4L270.2,96.8z"/>
	<path class="st58" d="M271.6,85.2h2v2h-2V85.2z M271.6,88.7h2V97h-2V88.7z"/>
	<path class="st58" d="M276,89.2c0.6-0.3,1.3-0.6,2.6-0.6c2.6,0,3.2,1.2,3.2,3.3v3.6c0,0.6,0.1,1.1,0.1,1.5h-1.8
		c-0.1-0.3-0.1-0.7-0.1-1.1h0c-0.5,0.7-1.1,1.2-2.3,1.2c-1.3,0-2.5-0.9-2.5-2.4c0-2.2,1.8-2.8,4.3-2.8h0.4v-0.3
		c0-0.8-0.4-1.6-1.5-1.6c-1,0-1.9,0.5-2.3,0.8L276,89.2z M279.9,92.9h-0.2c-1.7,0-2.7,0.4-2.7,1.6c0,0.8,0.5,1.3,1.3,1.3
		c1.2,0,1.6-0.9,1.6-2.4V92.9z"/>
	<path class="st58" d="M283.8,85h2v12h-2V85z"/>
	<path class="st58" d="M293.8,96.6c-0.4,0.2-1.3,0.5-2.5,0.5c-2.7,0-3.8-1.9-3.8-4.1c0-2.5,1.3-4.4,3.4-4.4c1.8,0,3.3,1,3.3,4.4v0.4
		h-4.8c0,1.4,0.6,2.3,2.1,2.3c1.2,0,1.8-0.4,2.2-0.6L293.8,96.6z M292.3,92.1c0-1.5-0.5-2.2-1.4-2.2c-1,0-1.5,1.1-1.5,2.2H292.3z"/>
	<path class="st58" d="M295.5,95c0.3,0.1,1.1,0.5,2.1,0.5c0.7,0,1.3-0.2,1.3-0.8c0-0.3-0.2-0.6-0.9-1l-0.8-0.5
		c-0.8-0.5-1.7-1-1.7-2.3c0-1.1,1.1-2.3,2.8-2.3c1.1,0,1.9,0.3,2.1,0.3l-0.1,1.5c-0.5-0.2-1-0.4-1.7-0.4c-0.8,0-1.1,0.3-1.1,0.8
		c0,0.4,0.4,0.7,0.9,1.1l1,0.6c1,0.7,1.5,1.1,1.5,2.1c0,1.5-1.3,2.4-3.1,2.4c-1,0-1.9-0.2-2.3-0.4L295.5,95z"/>
	<path class="st58" d="M309.8,88.6c1.7,0,3.6,0.9,3.6,4.2c0,3.5-1.9,4.3-3.6,4.3s-3.6-0.8-3.6-4.3C306.2,89.5,308.2,88.6,309.8,88.6
		z M309.8,95.7c1.3,0,1.6-1.5,1.6-2.8s-0.3-2.8-1.6-2.8s-1.6,1.5-1.6,2.8S308.6,95.7,309.8,95.7z"/>
	<path class="st58" d="M319.2,90.1c0-0.5,0-1-0.1-1.4h1.8c0,0.5,0.1,1,0.1,1.5h0c0.2-0.6,0.9-1.6,2.1-1.6c0.1,0,0.2,0,0.3,0v1.9
		c-0.2,0-0.4-0.1-0.6-0.1c-0.8,0-1.7,0.5-1.7,2V97h-2V90.1z"/>
	<path class="st58" d="M330.7,96.6c-0.4,0.2-1.3,0.5-2.5,0.5c-2.7,0-3.8-1.9-3.8-4.1c0-2.5,1.3-4.4,3.4-4.4c1.8,0,3.3,1,3.3,4.4v0.4
		h-4.8c0,1.4,0.6,2.3,2.1,2.3c1.2,0,1.8-0.4,2.2-0.6L330.7,96.6z M329.2,92.1c0-1.5-0.5-2.2-1.4-2.2c-1,0-1.5,1.1-1.5,2.2H329.2z"/>
	<path class="st58" d="M332.8,85h2v12h-2V85z"/>
	<path class="st58" d="M337.2,89.2c0.6-0.3,1.3-0.6,2.6-0.6c2.6,0,3.2,1.2,3.2,3.3v3.6c0,0.6,0.1,1.1,0.1,1.5h-1.8
		c-0.1-0.3-0.1-0.7-0.1-1.1h0c-0.5,0.7-1.1,1.2-2.3,1.2c-1.3,0-2.5-0.9-2.5-2.4c0-2.2,1.8-2.8,4.3-2.8h0.4v-0.3
		c0-0.8-0.4-1.6-1.5-1.6c-1,0-1.9,0.5-2.3,0.8L337.2,89.2z M341.1,92.9h-0.2c-1.7,0-2.7,0.4-2.7,1.6c0,0.8,0.5,1.3,1.3,1.3
		c1.2,0,1.6-0.9,1.6-2.4V92.9z"/>
	<path class="st58" d="M350.4,96.8c-0.5,0.2-1.2,0.3-2,0.3c-2.7,0-3.9-1.9-3.9-4.2c0-2.4,1.2-4.3,4-4.3c0.6,0,1.4,0.2,1.7,0.3
		l-0.1,1.6c-0.4-0.2-0.8-0.4-1.4-0.4c-1.5,0-2.2,1-2.2,2.8c0,1.5,0.7,2.7,2.3,2.7c0.5,0,1.1-0.2,1.4-0.4L350.4,96.8z"/>
	<path class="st58" d="M351.8,85.2h2v2h-2V85.2z M351.8,88.7h2V97h-2V88.7z"/>
	<path class="st58" d="M359.2,88.6c1.7,0,3.6,0.9,3.6,4.2c0,3.5-1.9,4.3-3.6,4.3s-3.6-0.8-3.6-4.3C355.6,89.5,357.5,88.6,359.2,88.6
		z M359.2,95.7c1.3,0,1.6-1.5,1.6-2.8s-0.3-2.8-1.6-2.8s-1.6,1.5-1.6,2.8S357.9,95.7,359.2,95.7z"/>
	<path class="st58" d="M364.4,90.1c0-0.5,0-1-0.1-1.4h1.9c0,0.4,0.1,0.8,0.1,1.3h0c0.3-0.5,0.8-1.4,2.2-1.4c1.9,0,2.4,1.4,2.4,3.1
		V97h-2V92c0-1.3-0.3-1.8-1.1-1.8c-1,0-1.4,0.9-1.4,1.9V97h-2V90.1z"/>
	<path class="st58" d="M378.7,96.6c-0.4,0.2-1.3,0.5-2.5,0.5c-2.7,0-3.8-1.9-3.8-4.1c0-2.5,1.3-4.4,3.4-4.4c1.8,0,3.3,1,3.3,4.4v0.4
		h-4.8c0,1.4,0.6,2.3,2.1,2.3c1.2,0,1.8-0.4,2.2-0.6L378.7,96.6z M377.2,92.1c0-1.5-0.5-2.2-1.4-2.2c-1,0-1.5,1.1-1.5,2.2H377.2z"/>
	<path class="st58" d="M380.5,95c0.3,0.1,1.1,0.5,2.1,0.5c0.7,0,1.3-0.2,1.3-0.8c0-0.3-0.2-0.6-0.9-1l-0.8-0.5
		c-0.8-0.5-1.7-1-1.7-2.3c0-1.1,1.1-2.3,2.8-2.3c1.1,0,1.9,0.3,2.1,0.3l-0.1,1.5c-0.5-0.2-1-0.4-1.7-0.4c-0.8,0-1.1,0.3-1.1,0.8
		c0,0.4,0.4,0.7,0.9,1.1l1,0.6c1,0.7,1.5,1.1,1.5,2.1c0,1.5-1.3,2.4-3.1,2.4c-1,0-1.9-0.2-2.3-0.4L380.5,95z"/>
	<path class="st58" d="M249.7,104.4h2v2h-2V104.4z M249.7,107.9h2v8.2h-2V107.9z"/>
	<path class="st58" d="M253.7,109.3c0-0.5,0-1-0.1-1.4h1.9c0,0.4,0.1,0.8,0.1,1.3h0c0.3-0.5,0.8-1.4,2.2-1.4c1.9,0,2.4,1.4,2.4,3.1
		v5.3h-2v-4.9c0-1.3-0.3-1.8-1.1-1.8c-1,0-1.4,0.9-1.4,1.9v4.8h-2V109.3z"/>
	<path class="st58" d="M262.7,106.2l2-0.6v2.3h1.6v1.5h-1.6v4.3c0,0.9,0.3,1.1,0.9,1.1c0.4,0,0.6-0.1,0.8-0.2v1.4
		c-0.3,0.1-0.7,0.3-1.3,0.3c-1.5,0-2.3-0.7-2.3-2.4v-4.5h-1.3v-1.5h1.3V106.2z"/>
	<path class="st58" d="M273.7,115.8c-0.4,0.2-1.3,0.5-2.5,0.5c-2.7,0-3.8-1.9-3.8-4.1c0-2.5,1.3-4.4,3.4-4.4c1.8,0,3.3,1,3.3,4.4
		v0.4h-4.8c0,1.4,0.6,2.3,2.1,2.3c1.2,0,1.8-0.4,2.2-0.6L273.7,115.8z M272.2,111.3c0-1.5-0.5-2.2-1.4-2.2c-1,0-1.5,1.1-1.5,2.2
		H272.2z"/>
	<path class="st58" d="M275.7,109.3c0-0.5,0-1-0.1-1.4h1.8c0,0.5,0.1,1,0.1,1.5h0c0.2-0.6,0.9-1.6,2.1-1.6c0.1,0,0.2,0,0.3,0v1.9
		c-0.2,0-0.4-0.1-0.6-0.1c-0.8,0-1.7,0.5-1.7,2v4.5h-2V109.3z"/>
	<path class="st58" d="M281.3,109.3c0-0.6,0-1.1-0.1-1.4h1.9c0,0.2,0.1,0.7,0.1,1.3h0c0.3-0.7,0.9-1.4,2.2-1.4c2,0,2.9,2,2.9,4.2
		c0,2.7-1.1,4.3-2.8,4.3c-1.2,0-1.8-0.7-2.1-1.3h0v4.6h-2V109.3z M284.8,114.8c1.1,0,1.5-1.1,1.5-2.7c0-1.9-0.3-2.9-1.5-2.9
		c-1.2,0-1.6,1.3-1.6,2.8C283.3,113.7,283.7,114.8,284.8,114.8z"/>
	<path class="st58" d="M295.9,115.8c-0.4,0.2-1.3,0.5-2.5,0.5c-2.7,0-3.8-1.9-3.8-4.1c0-2.5,1.3-4.4,3.4-4.4c1.8,0,3.3,1,3.3,4.4
		v0.4h-4.8c0,1.4,0.6,2.3,2.1,2.3c1.2,0,1.8-0.4,2.2-0.6L295.9,115.8z M294.4,111.3c0-1.5-0.5-2.2-1.4-2.2c-1,0-1.5,1.1-1.5,2.2
		H294.4z"/>
	<path class="st58" d="M297.9,109.3c0-0.5,0-1-0.1-1.4h1.8c0,0.5,0.1,1,0.1,1.5h0c0.2-0.6,0.9-1.6,2.1-1.6c0.1,0,0.2,0,0.3,0v1.9
		c-0.2,0-0.4-0.1-0.6-0.1c-0.8,0-1.7,0.5-1.7,2v4.5h-2V109.3z"/>
	<path class="st58" d="M303.1,114.2c0.3,0.1,1.1,0.5,2.1,0.5c0.7,0,1.3-0.2,1.3-0.8c0-0.3-0.2-0.6-0.9-1l-0.8-0.5
		c-0.8-0.5-1.7-1-1.7-2.3c0-1.1,1.1-2.3,2.8-2.3c1.1,0,1.9,0.3,2.1,0.3l-0.1,1.5c-0.5-0.2-1-0.4-1.7-0.4c-0.8,0-1.1,0.3-1.1,0.8
		c0,0.4,0.4,0.7,0.9,1.1l1,0.6c1,0.7,1.5,1.1,1.5,2.1c0,1.5-1.3,2.4-3.1,2.4c-1,0-1.9-0.2-2.3-0.4L303.1,114.2z"/>
	<path class="st58" d="M313.2,107.8c1.7,0,3.6,0.9,3.6,4.2c0,3.5-1.9,4.3-3.6,4.3s-3.6-0.8-3.6-4.3
		C309.6,108.7,311.5,107.8,313.2,107.8z M313.2,114.9c1.3,0,1.6-1.5,1.6-2.8c0-1.4-0.3-2.8-1.6-2.8s-1.6,1.5-1.6,2.8
		C311.6,113.4,311.9,114.9,313.2,114.9z"/>
	<path class="st58" d="M318.4,109.3c0-0.5,0-1-0.1-1.4h1.9c0,0.4,0.1,0.8,0.1,1.3h0c0.3-0.5,0.8-1.4,2.2-1.4c1.9,0,2.4,1.4,2.4,3.1
		v5.3h-2v-4.9c0-1.3-0.3-1.8-1.1-1.8c-1,0-1.4,0.9-1.4,1.9v4.8h-2V109.3z"/>
	<path class="st58" d="M327.1,108.4c0.6-0.3,1.3-0.6,2.6-0.6c2.6,0,3.2,1.2,3.2,3.3v3.6c0,0.6,0.1,1.1,0.1,1.5h-1.8
		c-0.1-0.3-0.1-0.7-0.1-1.1h0c-0.5,0.7-1.1,1.2-2.3,1.2c-1.3,0-2.5-0.9-2.5-2.4c0-2.2,1.8-2.8,4.3-2.8h0.4v-0.3
		c0-0.8-0.4-1.6-1.5-1.6c-1,0-1.9,0.5-2.3,0.8L327.1,108.4z M331,112.1h-0.2c-1.7,0-2.7,0.4-2.7,1.6c0,0.8,0.5,1.3,1.3,1.3
		c1.2,0,1.6-0.9,1.6-2.4V112.1z"/>
	<path class="st58" d="M334.9,104.2h2v12h-2V104.2z"/>
	<path class="st58" d="M344.9,115.8c-0.4,0.2-1.3,0.5-2.5,0.5c-2.7,0-3.8-1.9-3.8-4.1c0-2.5,1.3-4.4,3.4-4.4c1.8,0,3.3,1,3.3,4.4
		v0.4h-4.8c0,1.4,0.6,2.3,2.1,2.3c1.2,0,1.8-0.4,2.2-0.6L344.9,115.8z M343.4,111.3c0-1.5-0.5-2.2-1.4-2.2c-1,0-1.5,1.1-1.5,2.2
		H343.4z"/>
	<path class="st58" d="M346.6,114.2c0.3,0.1,1.1,0.5,2.1,0.5c0.7,0,1.3-0.2,1.3-0.8c0-0.3-0.2-0.6-0.9-1l-0.8-0.5
		c-0.8-0.5-1.7-1-1.7-2.3c0-1.1,1.1-2.3,2.8-2.3c1.1,0,1.9,0.3,2.1,0.3l-0.1,1.5c-0.5-0.2-1-0.4-1.7-0.4c-0.8,0-1.1,0.3-1.1,0.8
		c0,0.4,0.4,0.7,0.9,1.1l1,0.6c1,0.7,1.5,1.1,1.5,2.1c0,1.5-1.3,2.4-3.1,2.4c-1,0-1.9-0.2-2.3-0.4L346.6,114.2z"/>
	<path class="st58" d="M353.6,114.1h1.9l-1.2,4h-1.5L353.6,114.1z M353.6,107.9h1.9v2.1h-1.9V107.9z"/>
	<path class="st58" d="M360.9,114.2c0.3,0.1,1.1,0.5,2.1,0.5c0.7,0,1.3-0.2,1.3-0.8c0-0.3-0.2-0.6-0.9-1l-0.8-0.5
		c-0.8-0.5-1.7-1-1.7-2.3c0-1.1,1.1-2.3,2.8-2.3c1.1,0,1.9,0.3,2.1,0.3l-0.1,1.5c-0.5-0.2-1-0.4-1.7-0.4c-0.8,0-1.1,0.3-1.1,0.8
		c0,0.4,0.4,0.7,0.9,1.1l1,0.6c1,0.7,1.5,1.1,1.5,2.1c0,1.5-1.3,2.4-3.1,2.4c-1,0-1.9-0.2-2.3-0.4L360.9,114.2z"/>
	<path class="st58" d="M367.8,104.4h2v2h-2V104.4z M367.8,107.9h2v8.2h-2V107.9z"/>
	<path class="st58" d="M371.8,109.3c0-0.5,0-1-0.1-1.4h1.9c0,0.4,0.1,0.8,0.1,1.3h0c0.3-0.5,0.8-1.4,2.2-1.4c1.9,0,2.4,1.4,2.4,3.1
		v5.3h-2v-4.9c0-1.3-0.3-1.8-1.1-1.8c-1,0-1.4,0.9-1.4,1.9v4.8h-2V109.3z"/>
	<path class="st58" d="M389,115L389,115c-0.3,0.6-1,1.3-2.2,1.3c-1.8,0-2.8-1.6-2.8-4.3c0-2.3,0.8-4.2,2.9-4.2
		c1.3,0,1.9,0.7,2.2,1.4h0c0-0.6,0-1,0.1-1.3h1.9c0,0.3-0.1,0.8-0.1,1.4v10.3h-2V115z M387.5,114.8c1.1,0,1.5-1.2,1.5-2.8
		c0-1.6-0.4-2.8-1.6-2.8c-1.2,0-1.5,1-1.5,2.9C386,113.8,386.4,114.8,387.5,114.8z"/>
	<path class="st58" d="M399.4,114.8c0,0.5,0,1,0.1,1.4h-1.9c0-0.4-0.1-0.8-0.1-1.3l0,0l0,0c-0.4,0.6-0.9,1.4-2.2,1.4
		c-1.9,0-2.4-1.4-2.4-3.1v-5.3h2v4.9c0,1.3,0.4,1.8,1.2,1.8c1.1,0,1.4-1,1.4-2v-4.7h2V114.8z"/>
	<path class="st58" d="M407.2,115.8c-0.4,0.2-1.3,0.5-2.5,0.5c-2.7,0-3.8-1.9-3.8-4.1c0-2.5,1.3-4.4,3.4-4.4c1.8,0,3.3,1,3.3,4.4
		v0.4h-4.8c0,1.4,0.6,2.3,2.1,2.3c1.2,0,1.8-0.4,2.2-0.6L407.2,115.8z M405.7,111.3c0-1.5-0.5-2.2-1.4-2.2c-1,0-1.5,1.1-1.5,2.2
		H405.7z"/>
	<path class="st58" d="M249.7,123.4h2v12h-2V123.4z"/>
	<path class="st58" d="M253.9,123.4h2v12h-2V123.4z"/>
	<path class="st58" d="M263.9,135c-0.4,0.2-1.3,0.5-2.5,0.5c-2.7,0-3.8-1.9-3.8-4.1c0-2.5,1.3-4.4,3.4-4.4c1.8,0,3.3,1,3.3,4.4v0.4
		h-4.8c0,1.4,0.6,2.3,2.1,2.3c1.2,0,1.8-0.4,2.2-0.6L263.9,135z M262.4,130.5c0-1.5-0.5-2.2-1.4-2.2c-1,0-1.5,1.1-1.5,2.2H262.4z"/>
	<path class="st58" d="M266.1,136.6c0.5,0.3,1.4,0.7,2.4,0.7c1.9,0,2.2-1.3,2.2-2.6V134h0c-0.3,0.6-0.9,1.4-2.2,1.4
		c-1.2,0-2.9-0.8-2.9-4.1c0-2.3,0.8-4.3,3-4.3c1.2,0,1.8,0.7,2.2,1.4h0.1c0-0.4,0-0.8,0.1-1.3h1.8c0,0.4-0.1,0.9-0.1,1.3v6.1
		c0,2.6-0.8,4.4-3.8,4.4c-1.3,0-2.4-0.3-2.8-0.5L266.1,136.6z M269,133.9c1.2,0,1.7-0.9,1.7-2.8c0-1.7-0.7-2.7-1.6-2.6
		c-1,0-1.4,1-1.4,2.7C267.7,133.1,268.3,133.9,269,133.9z"/>
	<path class="st58" d="M280.9,134c0,0.5,0,1,0.1,1.4h-1.9c0-0.4-0.1-0.8-0.1-1.3l0,0l0,0c-0.4,0.6-0.9,1.4-2.2,1.4
		c-1.9,0-2.4-1.4-2.4-3.1v-5.3h2v4.9c0,1.3,0.4,1.8,1.2,1.8c1.1,0,1.4-1,1.4-2v-4.7h2V134z"/>
	<path class="st58" d="M288.8,135c-0.4,0.2-1.3,0.5-2.5,0.5c-2.7,0-3.8-1.9-3.8-4.1c0-2.5,1.3-4.4,3.4-4.4c1.8,0,3.3,1,3.3,4.4v0.4
		h-4.8c0,1.4,0.6,2.3,2.1,2.3c1.2,0,1.8-0.4,2.2-0.6L288.8,135z M287.3,130.5c0-1.5-0.5-2.2-1.4-2.2c-1,0-1.5,1.1-1.5,2.2H287.3z"/>
	<path class="st58" d="M295.3,127.6c0.6-0.3,1.3-0.6,2.6-0.6c2.6,0,3.2,1.2,3.2,3.3v3.6c0,0.6,0.1,1.1,0.1,1.5h-1.8
		c-0.1-0.3-0.1-0.7-0.1-1.1h0c-0.5,0.7-1.1,1.2-2.3,1.2c-1.3,0-2.5-0.9-2.5-2.4c0-2.2,1.8-2.8,4.3-2.8h0.4V130
		c0-0.8-0.4-1.6-1.5-1.6c-1,0-1.9,0.5-2.3,0.8L295.3,127.6z M299.2,131.3H299c-1.7,0-2.7,0.4-2.7,1.6c0,0.8,0.5,1.3,1.3,1.3
		c1.2,0,1.6-0.9,1.6-2.4V131.3z"/>
	<path class="st58" d="M306.8,133.4c0.3,0.1,1.1,0.5,2.1,0.5c0.7,0,1.3-0.2,1.3-0.8c0-0.3-0.2-0.6-0.9-1l-0.8-0.5
		c-0.8-0.5-1.7-1-1.7-2.3c0-1.1,1.1-2.3,2.8-2.3c1.1,0,1.9,0.3,2.1,0.3l-0.1,1.5c-0.5-0.2-1-0.4-1.7-0.4c-0.8,0-1.1,0.3-1.1,0.8
		c0,0.4,0.4,0.7,0.9,1.1l1,0.6c1,0.7,1.5,1.1,1.5,2.1c0,1.5-1.3,2.4-3.1,2.4c-1,0-1.9-0.2-2.3-0.4L306.8,133.4z"/>
	<path class="st58" d="M319.6,135c-0.4,0.2-1.3,0.5-2.5,0.5c-2.7,0-3.8-1.9-3.8-4.1c0-2.5,1.3-4.4,3.4-4.4c1.8,0,3.3,1,3.3,4.4v0.4
		h-4.8c0,1.4,0.6,2.3,2.1,2.3c1.2,0,1.8-0.4,2.2-0.6L319.6,135z M318.1,130.5c0-1.5-0.5-2.2-1.4-2.2c-1,0-1.5,1.1-1.5,2.2H318.1z"/>
	<path class="st58" d="M321.6,128.5c0-0.5,0-1-0.1-1.4h1.8c0,0.5,0.1,1,0.1,1.5h0c0.2-0.6,0.9-1.6,2.1-1.6c0.1,0,0.2,0,0.3,0v1.9
		c-0.2,0-0.4-0.1-0.6-0.1c-0.8,0-1.7,0.5-1.7,2v4.5h-2V128.5z"/>
	<path class="st58" d="M331.1,133.4c0.3,0.1,1.1,0.5,2.1,0.5c0.7,0,1.3-0.2,1.3-0.8c0-0.3-0.2-0.6-0.9-1l-0.8-0.5
		c-0.8-0.5-1.7-1-1.7-2.3c0-1.1,1.1-2.3,2.8-2.3c1.1,0,1.9,0.3,2.1,0.3l-0.1,1.5c-0.5-0.2-1-0.4-1.7-0.4c-0.8,0-1.1,0.3-1.1,0.8
		c0,0.4,0.4,0.7,0.9,1.1l1,0.6c1,0.7,1.5,1.1,1.5,2.1c0,1.5-1.3,2.4-3.1,2.4c-1,0-1.9-0.2-2.3-0.4L331.1,133.4z"/>
	<path class="st58" d="M343.9,135c-0.4,0.2-1.3,0.5-2.5,0.5c-2.7,0-3.8-1.9-3.8-4.1c0-2.5,1.3-4.4,3.4-4.4c1.8,0,3.3,1,3.3,4.4v0.4
		h-4.8c0,1.4,0.6,2.3,2.1,2.3c1.2,0,1.8-0.4,2.2-0.6L343.9,135z M342.4,130.5c0-1.5-0.5-2.2-1.4-2.2c-1,0-1.5,1.1-1.5,2.2H342.4z"/>
	<path class="st58" d="M345.1,127.1h2l1.7,6.4h0l1.7-6.4h1.9l-2.5,8.2h-2.3L345.1,127.1z"/>
	<path class="st58" d="M359.6,135c-0.4,0.2-1.3,0.5-2.5,0.5c-2.7,0-3.8-1.9-3.8-4.1c0-2.5,1.3-4.4,3.4-4.4c1.8,0,3.3,1,3.3,4.4v0.4
		h-4.8c0,1.4,0.6,2.3,2.1,2.3c1.2,0,1.8-0.4,2.2-0.6L359.6,135z M358.1,130.5c0-1.5-0.5-2.2-1.4-2.2c-1,0-1.5,1.1-1.5,2.2H358.1z"/>
	<path class="st58" d="M361.6,128.5c0-0.5,0-1-0.1-1.4h1.8c0,0.5,0.1,1,0.1,1.5h0c0.2-0.6,0.9-1.6,2.1-1.6c0.1,0,0.2,0,0.3,0v1.9
		c-0.2,0-0.4-0.1-0.6-0.1c-0.8,0-1.7,0.5-1.7,2v4.5h-2V128.5z"/>
	<path class="st58" d="M370.4,127c1.7,0,3.6,0.9,3.6,4.2c0,3.5-1.9,4.3-3.6,4.3s-3.6-0.8-3.6-4.3C366.8,127.9,368.8,127,370.4,127z
		 M370.4,134.1c1.3,0,1.6-1.5,1.6-2.8c0-1.4-0.3-2.8-1.6-2.8s-1.6,1.5-1.6,2.8C368.9,132.6,369.2,134.1,370.4,134.1z"/>
	<path class="st58" d="M375.3,133.3h1.9v2.1h-1.9V133.3z"/>
</g>
<g>
	<path class="st58" d="M482.4,52.3h3.6v5.8c-0.6,0.3-1.6,0.6-3,0.6c-3.6,0-5.5-2.4-5.5-5.7c0-3.3,1.9-5.7,5.5-5.7
		c1.3,0,2.3,0.3,2.7,0.5l-0.1,1.8c-0.7-0.4-1.6-0.7-2.6-0.7c-2.2,0-3.3,1.8-3.3,4.1c0,2.5,1.1,4.1,3.2,4.1c0.5,0,0.9-0.1,1.2-0.2v-3
		h-1.7V52.3z"/>
	<path class="st58" d="M488.1,51.7c0-0.5,0-1-0.1-1.4h1.8c0,0.5,0.1,1,0.1,1.5h0c0.2-0.6,0.9-1.6,2.1-1.6c0.1,0,0.2,0,0.3,0v1.9
		c-0.2,0-0.4-0.1-0.6-0.1c-0.8,0-1.7,0.5-1.7,2v4.5h-2V51.7z"/>
	<path class="st58" d="M493.9,50.8c0.6-0.3,1.3-0.6,2.6-0.6c2.6,0,3.2,1.2,3.2,3.3v3.6c0,0.6,0.1,1.1,0.1,1.5H498
		c-0.1-0.3-0.1-0.7-0.1-1.1h0c-0.5,0.7-1.1,1.2-2.3,1.2c-1.3,0-2.5-0.9-2.5-2.4c0-2.2,1.8-2.8,4.3-2.8h0.4v-0.3
		c0-0.8-0.4-1.6-1.5-1.6c-1,0-1.9,0.5-2.3,0.8L493.9,50.8z M497.8,54.5h-0.2c-1.7,0-2.7,0.4-2.7,1.6c0,0.8,0.5,1.3,1.3,1.3
		c1.2,0,1.6-0.9,1.6-2.4V54.5z"/>
	<path class="st58" d="M501.5,51.7c0-0.5,0-1-0.1-1.4h1.9c0,0.4,0.1,0.8,0.1,1.3h0c0.3-0.5,0.8-1.4,2.2-1.4c1.9,0,2.4,1.4,2.4,3.1
		v5.3h-2v-4.9c0-1.3-0.3-1.8-1.1-1.8c-1,0-1.4,0.9-1.4,1.9v4.8h-2V51.7z"/>
	<path class="st58" d="M514.4,50.8c0.6-0.3,1.3-0.6,2.6-0.6c2.6,0,3.2,1.2,3.2,3.3v3.6c0,0.6,0.1,1.1,0.1,1.5h-1.8
		c-0.1-0.3-0.1-0.7-0.1-1.1h0c-0.5,0.7-1.1,1.2-2.3,1.2c-1.3,0-2.5-0.9-2.5-2.4c0-2.2,1.8-2.8,4.3-2.8h0.4v-0.3
		c0-0.8-0.4-1.6-1.5-1.6c-1,0-1.9,0.5-2.3,0.8L514.4,50.8z M518.3,54.5h-0.2c-1.7,0-2.7,0.4-2.7,1.6c0,0.8,0.5,1.3,1.3,1.3
		c1.2,0,1.6-0.9,1.6-2.4V54.5z"/>
	<path class="st58" d="M522.1,46.6h2v12h-2V46.6z"/>
	<path class="st58" d="M526.8,48.6l2-0.6v2.3h1.6v1.5h-1.6v4.3c0,0.9,0.3,1.1,0.9,1.1c0.4,0,0.6-0.1,0.8-0.2v1.4
		c-0.3,0.1-0.7,0.3-1.3,0.3c-1.5,0-2.3-0.7-2.3-2.4v-4.5h-1.3v-1.5h1.3V48.6z"/>
	<path class="st58" d="M537.8,58.2c-0.4,0.2-1.3,0.5-2.5,0.5c-2.7,0-3.8-1.9-3.8-4.1c0-2.5,1.3-4.4,3.4-4.4c1.8,0,3.3,1,3.3,4.4V55
		h-4.8c0,1.4,0.6,2.3,2.1,2.3c1.2,0,1.8-0.4,2.2-0.6L537.8,58.2z M536.3,53.7c0-1.5-0.5-2.2-1.4-2.2c-1,0-1.5,1.1-1.5,2.2H536.3z"/>
	<path class="st58" d="M539.8,51.7c0-0.5,0-1-0.1-1.4h1.8c0,0.5,0.1,1,0.1,1.5h0c0.2-0.6,0.9-1.6,2.1-1.6c0.1,0,0.2,0,0.3,0v1.9
		c-0.2,0-0.4-0.1-0.6-0.1c-0.8,0-1.7,0.5-1.7,2v4.5h-2V51.7z"/>
	<path class="st58" d="M545.6,50.8c0.6-0.3,1.3-0.6,2.6-0.6c2.6,0,3.2,1.2,3.2,3.3v3.6c0,0.6,0.1,1.1,0.1,1.5h-1.8
		c-0.1-0.3-0.1-0.7-0.1-1.1h0c-0.5,0.7-1.1,1.2-2.3,1.2c-1.3,0-2.5-0.9-2.5-2.4c0-2.2,1.8-2.8,4.3-2.8h0.4v-0.3
		c0-0.8-0.4-1.6-1.5-1.6c-1,0-1.9,0.5-2.3,0.8L545.6,50.8z M549.5,54.5h-0.2c-1.7,0-2.7,0.4-2.7,1.6c0,0.8,0.5,1.3,1.3,1.3
		c1.2,0,1.6-0.9,1.6-2.4V54.5z"/>
	<path class="st58" d="M558.8,58.4c-0.5,0.2-1.2,0.3-2,0.3c-2.7,0-3.9-1.9-3.9-4.2c0-2.4,1.2-4.3,4-4.3c0.6,0,1.4,0.2,1.7,0.3
		l-0.1,1.6c-0.4-0.2-0.8-0.4-1.4-0.4c-1.5,0-2.2,1-2.2,2.8c0,1.5,0.7,2.7,2.3,2.7c0.5,0,1.1-0.2,1.4-0.4L558.8,58.4z"/>
	<path class="st58" d="M560.2,46.8h2v2h-2V46.8z M560.2,50.3h2v8.2h-2V50.3z"/>
	<path class="st58" d="M567.6,50.2c1.7,0,3.6,0.9,3.6,4.2c0,3.5-1.9,4.3-3.6,4.3s-3.6-0.8-3.6-4.3C564,51.1,565.9,50.2,567.6,50.2z
		 M567.6,57.3c1.3,0,1.6-1.5,1.6-2.8s-0.3-2.8-1.6-2.8s-1.6,1.5-1.6,2.8S566.3,57.3,567.6,57.3z M567.7,47.1h1.9l-1.6,2.3h-1.2
		L567.7,47.1z"/>
	<path class="st58" d="M572.8,51.7c0-0.5,0-1-0.1-1.4h1.9c0,0.4,0.1,0.8,0.1,1.3h0c0.3-0.5,0.8-1.4,2.2-1.4c1.9,0,2.4,1.4,2.4,3.1
		v5.3h-2v-4.9c0-1.3-0.3-1.8-1.1-1.8c-1,0-1.4,0.9-1.4,1.9v4.8h-2V51.7z"/>
	<path class="st58" d="M591.3,58.2c-0.4,0.2-1.3,0.5-2.5,0.5c-2.7,0-3.8-1.9-3.8-4.1c0-2.5,1.3-4.4,3.4-4.4c1.8,0,3.3,1,3.3,4.4V55
		h-4.8c0,1.4,0.6,2.3,2.1,2.3c1.2,0,1.8-0.4,2.2-0.6L591.3,58.2z M589.8,53.7c0-1.5-0.5-2.2-1.4-2.2c-1,0-1.5,1.1-1.5,2.2H589.8z"/>
	<path class="st58" d="M593.3,51.7c0-0.5,0-1-0.1-1.4h1.9c0,0.4,0.1,0.8,0.1,1.3h0c0.3-0.5,0.8-1.4,2.2-1.4c1.9,0,2.4,1.4,2.4,3.1
		v5.3h-2v-4.9c0-1.3-0.3-1.8-1.1-1.8c-1,0-1.4,0.9-1.4,1.9v4.8h-2V51.7z"/>
	<path class="st58" d="M605.9,46.6h2v12h-2V46.6z"/>
	<path class="st58" d="M610.3,50.8c0.6-0.3,1.3-0.6,2.6-0.6c2.6,0,3.2,1.2,3.2,3.3v3.6c0,0.6,0.1,1.1,0.1,1.5h-1.8
		c-0.1-0.3-0.1-0.7-0.1-1.1h0c-0.5,0.7-1.1,1.2-2.3,1.2c-1.3,0-2.5-0.9-2.5-2.4c0-2.2,1.8-2.8,4.3-2.8h0.4v-0.3
		c0-0.8-0.4-1.6-1.5-1.6c-1,0-1.9,0.5-2.3,0.8L610.3,50.8z M614.2,54.5H614c-1.7,0-2.7,0.4-2.7,1.6c0,0.8,0.5,1.3,1.3,1.3
		c1.2,0,1.6-0.9,1.6-2.4V54.5z"/>
	<path class="st58" d="M478.3,71h-1.4v-1.5h1.4v-1.7c0-1.2,0.6-2.3,2.4-2.3c0.5,0,1,0.1,1.4,0.2l-0.1,1.4c-0.2-0.1-0.5-0.1-0.8-0.1
		c-0.6,0-0.9,0.4-0.9,1v1.4h1.5V71h-1.5v6.8h-2V71z"/>
	<path class="st58" d="M489.5,76.4c0,0.5,0,1,0.1,1.4h-1.9c0-0.4-0.1-0.8-0.1-1.3l0,0l0,0c-0.4,0.6-0.9,1.4-2.2,1.4
		c-1.9,0-2.4-1.4-2.4-3.1v-5.3h2v4.9c0,1.3,0.4,1.8,1.2,1.8c1.1,0,1.4-1,1.4-2v-4.7h2V76.4z"/>
	<path class="st58" d="M491.3,70.9c0-0.5,0-1-0.1-1.4h1.9c0,0.4,0.1,0.8,0.1,1.3h0c0.3-0.5,0.8-1.4,2.2-1.4c1.9,0,2.4,1.4,2.4,3.1
		v5.3h-2v-4.9c0-1.3-0.3-1.8-1.1-1.8c-1,0-1.4,0.9-1.4,1.9v4.8h-2V70.9z"/>
	<path class="st58" d="M505.2,77.6c-0.5,0.2-1.2,0.3-2,0.3c-2.7,0-3.9-1.9-3.9-4.2c0-2.4,1.2-4.3,4-4.3c0.6,0,1.4,0.2,1.7,0.3
		l-0.1,1.6c-0.4-0.2-0.8-0.4-1.4-0.4c-1.5,0-2.2,1-2.2,2.8c0,1.5,0.7,2.7,2.3,2.7c0.5,0,1.1-0.2,1.4-0.4L505.2,77.6z"/>
	<path class="st58" d="M506.6,66h2v2h-2V66z M506.6,69.5h2v8.2h-2V69.5z"/>
	<path class="st58" d="M514,69.4c1.7,0,3.6,0.9,3.6,4.2c0,3.5-1.9,4.3-3.6,4.3s-3.6-0.8-3.6-4.3C510.3,70.3,512.3,69.4,514,69.4z
		 M514,76.5c1.3,0,1.6-1.5,1.6-2.8s-0.3-2.8-1.6-2.8s-1.6,1.5-1.6,2.8S512.7,76.5,514,76.5z"/>
	<path class="st58" d="M519.2,70.9c0-0.5,0-1-0.1-1.4h1.9c0,0.4,0.1,0.8,0.1,1.3h0c0.3-0.5,0.8-1.4,2.2-1.4c1.9,0,2.4,1.4,2.4,3.1
		v5.3h-2v-4.9c0-1.3-0.3-1.8-1.1-1.8c-1,0-1.4,0.9-1.4,1.9v4.8h-2V70.9z"/>
	<path class="st58" d="M527.9,70c0.6-0.3,1.3-0.6,2.6-0.6c2.6,0,3.2,1.2,3.2,3.3v3.6c0,0.6,0.1,1.1,0.1,1.5h-1.8
		c-0.1-0.3-0.1-0.7-0.1-1.1h0c-0.5,0.7-1.1,1.2-2.3,1.2c-1.3,0-2.5-0.9-2.5-2.4c0-2.2,1.8-2.8,4.3-2.8h0.4v-0.3
		c0-0.8-0.4-1.6-1.5-1.6c-1,0-1.9,0.5-2.3,0.8L527.9,70z M531.8,73.7h-0.2c-1.7,0-2.7,0.4-2.7,1.6c0,0.8,0.5,1.3,1.3,1.3
		c1.2,0,1.6-0.9,1.6-2.4V73.7z"/>
	<path class="st58" d="M535.6,65.8h2v12h-2V65.8z"/>
	<path class="st58" d="M539.8,66h2v2h-2V66z M539.8,69.5h2v8.2h-2V69.5z"/>
	<path class="st58" d="M550.5,65.8v10.6c0,0.6,0,1.1,0.1,1.4h-1.9c0-0.2-0.1-0.7-0.1-1.3h0c-0.3,0.7-0.9,1.4-2.2,1.4
		c-2,0-2.9-2-2.9-4.2c0-2.7,1.1-4.3,2.8-4.3c1.2,0,1.8,0.7,2.1,1.3h0v-4.9H550.5z M547,76.4c1.2,0,1.6-1.3,1.6-2.8
		c0-1.6-0.4-2.8-1.5-2.8c-1.1,0-1.5,1.1-1.5,2.7C545.5,75.5,545.8,76.4,547,76.4z"/>
	<path class="st58" d="M552.8,70c0.6-0.3,1.3-0.6,2.6-0.6c2.6,0,3.2,1.2,3.2,3.3v3.6c0,0.6,0.1,1.1,0.1,1.5h-1.8
		c-0.1-0.3-0.1-0.7-0.1-1.1h0c-0.5,0.7-1.1,1.2-2.3,1.2c-1.3,0-2.5-0.9-2.5-2.4c0-2.2,1.8-2.8,4.3-2.8h0.4v-0.3
		c0-0.8-0.4-1.6-1.5-1.6c-1,0-1.9,0.5-2.3,0.8L552.8,70z M556.7,73.7h-0.2c-1.7,0-2.7,0.4-2.7,1.6c0,0.8,0.5,1.3,1.3,1.3
		c1.2,0,1.6-0.9,1.6-2.4V73.7z"/>
	<path class="st58" d="M567.1,65.8v10.6c0,0.6,0,1.1,0.1,1.4h-1.9c0-0.2-0.1-0.7-0.1-1.3h0c-0.3,0.7-0.9,1.4-2.2,1.4
		c-2,0-2.9-2-2.9-4.2c0-2.7,1.1-4.3,2.8-4.3c1.2,0,1.8,0.7,2.1,1.3h0v-4.9H567.1z M563.6,76.4c1.2,0,1.6-1.3,1.6-2.8
		c0-1.6-0.4-2.8-1.5-2.8c-1.1,0-1.5,1.1-1.5,2.7C562.1,75.5,562.4,76.4,563.6,76.4z"/>
	<path class="st58" d="M571.1,75.7l-1.2,4h-1.5l0.8-4H571.1z"/>
	<path class="st58" d="M576.6,70.9c0-0.6,0-1-0.1-1.3h2c0,0.4,0.1,0.9,0.1,1.3h0c0.3-0.6,0.9-1.4,2.1-1.4c1.4,0,1.8,0.9,2.1,1.3
		c0.4-0.6,1-1.3,2.2-1.3c1.8,0,2.4,1.3,2.4,3.3v5.1h-2v-5.2c0-1-0.3-1.5-1.1-1.5c-0.9,0-1.3,0.8-1.3,1.7v5h-2v-5.2
		c0-1-0.3-1.5-1.1-1.5c-0.9,0-1.3,0.8-1.3,1.7v5h-2V70.9z"/>
	<path class="st58" d="M589.5,70c0.6-0.3,1.3-0.6,2.6-0.6c2.6,0,3.2,1.2,3.2,3.3v3.6c0,0.6,0.1,1.1,0.1,1.5h-1.8
		c-0.1-0.3-0.1-0.7-0.1-1.1h0c-0.5,0.7-1.1,1.2-2.3,1.2c-1.3,0-2.5-0.9-2.5-2.4c0-2.2,1.8-2.8,4.3-2.8h0.4v-0.3
		c0-0.8-0.4-1.6-1.5-1.6c-1,0-1.9,0.5-2.3,0.8L589.5,70z M593.4,73.7h-0.2c-1.7,0-2.7,0.4-2.7,1.6c0,0.8,0.5,1.3,1.3,1.3
		c1.2,0,1.6-0.9,1.6-2.4V73.7z"/>
	<path class="st58" d="M597.1,70.9c0-0.5,0-1-0.1-1.4h1.9c0,0.4,0.1,0.8,0.1,1.3h0c0.3-0.5,0.8-1.4,2.2-1.4c1.9,0,2.4,1.4,2.4,3.1
		v5.3h-2v-4.9c0-1.3-0.3-1.8-1.1-1.8c-1,0-1.4,0.9-1.4,1.9v4.8h-2V70.9z"/>
	<path class="st58" d="M605.6,66h2v2h-2V66z M605.6,69.5h2v8.2h-2V69.5z"/>
	<path class="st58" d="M610.2,71h-1.4v-1.5h1.4v-1.7c0-1.2,0.6-2.3,2.4-2.3c0.5,0,1,0.1,1.4,0.2l-0.1,1.4c-0.2-0.1-0.5-0.1-0.8-0.1
		c-0.6,0-0.9,0.4-0.9,1v1.4h1.5V71h-1.5v6.8h-2V71z M614.8,66h2v2h-2V66z M614.8,69.5h2v8.2h-2V69.5z"/>
	<path class="st58" d="M624.8,77.4c-0.4,0.2-1.3,0.5-2.5,0.5c-2.7,0-3.8-1.9-3.8-4.1c0-2.5,1.3-4.4,3.4-4.4c1.8,0,3.3,1,3.3,4.4v0.4
		h-4.8c0,1.4,0.6,2.3,2.1,2.3c1.2,0,1.8-0.4,2.2-0.6L624.8,77.4z M623.3,72.9c0-1.5-0.5-2.2-1.4-2.2c-1,0-1.5,1.1-1.5,2.2H623.3z"/>
	<path class="st58" d="M626.6,75.8c0.3,0.1,1.1,0.5,2.1,0.5c0.7,0,1.3-0.2,1.3-0.8c0-0.3-0.2-0.6-0.9-1l-0.8-0.5
		c-0.8-0.5-1.7-1-1.7-2.3c0-1.1,1.1-2.3,2.8-2.3c1.1,0,1.9,0.3,2.1,0.3l-0.1,1.5c-0.5-0.2-1-0.4-1.7-0.4c-0.8,0-1.1,0.3-1.1,0.8
		c0,0.4,0.4,0.7,0.9,1.1l1,0.6c1,0.7,1.5,1.1,1.5,2.1c0,1.5-1.3,2.4-3.1,2.4c-1,0-1.9-0.2-2.3-0.4L626.6,75.8z"/>
	<path class="st58" d="M634,67.8l2-0.6v2.3h1.6V71H636v4.3c0,0.9,0.3,1.1,0.9,1.1c0.4,0,0.6-0.1,0.8-0.2v1.4
		c-0.3,0.1-0.7,0.3-1.3,0.3c-1.5,0-2.3-0.7-2.3-2.4V71h-1.3v-1.5h1.3V67.8z"/>
	<path class="st58" d="M639.3,70c0.6-0.3,1.3-0.6,2.6-0.6c2.6,0,3.2,1.2,3.2,3.3v3.6c0,0.6,0.1,1.1,0.1,1.5h-1.8
		c-0.1-0.3-0.1-0.7-0.1-1.1h0c-0.5,0.7-1.1,1.2-2.3,1.2c-1.3,0-2.5-0.9-2.5-2.4c0-2.2,1.8-2.8,4.3-2.8h0.4v-0.3
		c0-0.8-0.4-1.6-1.5-1.6c-1,0-1.9,0.5-2.3,0.8L639.3,70z M643.2,73.7h-0.2c-1.7,0-2.7,0.4-2.7,1.6c0,0.8,0.5,1.3,1.3,1.3
		c1.2,0,1.6-0.9,1.6-2.4V73.7z"/>
	<path class="st58" d="M477.8,85.2h2v2h-2V85.2z M477.8,88.7h2V97h-2V88.7z"/>
	<path class="st58" d="M488.6,85v10.6c0,0.6,0,1.1,0.1,1.4h-1.9c0-0.2-0.1-0.7-0.1-1.3h0c-0.3,0.7-0.9,1.4-2.2,1.4
		c-2,0-2.9-2-2.9-4.2c0-2.7,1.1-4.3,2.8-4.3c1.2,0,1.8,0.7,2.1,1.3h0V85H488.6z M485,95.6c1.2,0,1.6-1.3,1.6-2.8
		c0-1.6-0.4-2.8-1.5-2.8c-1.1,0-1.5,1.1-1.5,2.7C483.6,94.7,483.9,95.6,485,95.6z"/>
	<path class="st58" d="M496.5,96.6c-0.4,0.2-1.3,0.5-2.5,0.5c-2.7,0-3.8-1.9-3.8-4.1c0-2.5,1.3-4.4,3.4-4.4c1.8,0,3.3,1,3.3,4.4v0.4
		h-4.8c0,1.4,0.6,2.3,2.1,2.3c1.2,0,1.8-0.4,2.2-0.6L496.5,96.6z M494.9,92.1c0-1.5-0.5-2.2-1.4-2.2c-1,0-1.5,1.1-1.5,2.2H494.9z"/>
	<path class="st58" d="M498.8,89.2c0.6-0.3,1.3-0.6,2.6-0.6c2.6,0,3.2,1.2,3.2,3.3v3.6c0,0.6,0.1,1.1,0.1,1.5h-1.8
		c-0.1-0.3-0.1-0.7-0.1-1.1h0c-0.5,0.7-1.1,1.2-2.3,1.2c-1.3,0-2.5-0.9-2.5-2.4c0-2.2,1.8-2.8,4.3-2.8h0.4v-0.3
		c0-0.8-0.4-1.6-1.5-1.6c-1,0-1.9,0.5-2.3,0.8L498.8,89.2z M502.7,92.9h-0.2c-1.7,0-2.7,0.4-2.7,1.6c0,0.8,0.5,1.3,1.3,1.3
		c1.2,0,1.6-0.9,1.6-2.4V92.9z"/>
	<path class="st58" d="M512,96.8c-0.5,0.2-1.2,0.3-2,0.3c-2.7,0-3.9-1.9-3.9-4.2c0-2.4,1.2-4.3,4-4.3c0.6,0,1.4,0.2,1.7,0.3
		l-0.1,1.6c-0.4-0.2-0.8-0.4-1.4-0.4c-1.5,0-2.2,1-2.2,2.8c0,1.5,0.7,2.7,2.3,2.7c0.5,0,1.1-0.2,1.4-0.4L512,96.8z"/>
	<path class="st58" d="M513.4,85.2h2v2h-2V85.2z M513.4,88.7h2V97h-2V88.7z"/>
	<path class="st58" d="M520.8,88.6c1.7,0,3.6,0.9,3.6,4.2c0,3.5-1.9,4.3-3.6,4.3s-3.6-0.8-3.6-4.3C517.2,89.5,519.1,88.6,520.8,88.6
		z M520.8,95.7c1.3,0,1.6-1.5,1.6-2.8c0-1.4-0.3-2.8-1.6-2.8s-1.6,1.5-1.6,2.8C519.2,94.2,519.5,95.7,520.8,95.7z M520.9,85.5h1.9
		l-1.6,2.3h-1.2L520.9,85.5z"/>
	<path class="st58" d="M526,90.1c0-0.5,0-1-0.1-1.4h1.9c0,0.4,0.1,0.8,0.1,1.3h0c0.3-0.5,0.8-1.4,2.2-1.4c1.9,0,2.4,1.4,2.4,3.1V97
		h-2V92c0-1.3-0.3-1.8-1.1-1.8c-1,0-1.4,0.9-1.4,1.9V97h-2V90.1z"/>
	<path class="st58" d="M538.2,95c0.3,0.1,1.1,0.5,2.1,0.5c0.7,0,1.3-0.2,1.3-0.8c0-0.3-0.2-0.6-0.9-1l-0.8-0.5
		c-0.8-0.5-1.7-1-1.7-2.3c0-1.1,1.1-2.3,2.8-2.3c1.1,0,1.9,0.3,2.1,0.3l-0.1,1.5c-0.5-0.2-1-0.4-1.7-0.4c-0.8,0-1.1,0.3-1.1,0.8
		c0,0.4,0.4,0.7,0.9,1.1l1,0.6c1,0.7,1.5,1.1,1.5,2.1c0,1.5-1.3,2.4-3.1,2.4c-1,0-1.9-0.2-2.3-0.4L538.2,95z"/>
	<path class="st58" d="M551.5,95.6c0,0.5,0,1,0.1,1.4h-1.9c0-0.4-0.1-0.8-0.1-1.3l0,0l0,0c-0.4,0.6-0.9,1.4-2.2,1.4
		c-1.9,0-2.4-1.4-2.4-3.1v-5.3h2v4.9c0,1.3,0.4,1.8,1.2,1.8c1.1,0,1.4-1,1.4-2v-4.7h2V95.6z"/>
	<path class="st58" d="M553.4,85.2h2v2h-2V85.2z M553.4,88.7h2V97h-2V88.7z"/>
	<path class="st58" d="M563,96.8c-0.5,0.2-1.2,0.3-2,0.3c-2.7,0-3.9-1.9-3.9-4.2c0-2.4,1.2-4.3,4-4.3c0.6,0,1.4,0.2,1.7,0.3
		l-0.1,1.6c-0.4-0.2-0.8-0.4-1.4-0.4c-1.5,0-2.2,1-2.2,2.8c0,1.5,0.7,2.7,2.3,2.7c0.5,0,1.1-0.2,1.4-0.4L563,96.8z"/>
	<path class="st58" d="M564.4,85.2h2v2h-2V85.2z M564.4,88.7h2V97h-2V88.7z"/>
	<path class="st58" d="M575.2,85v10.6c0,0.6,0,1.1,0.1,1.4h-1.9c0-0.2-0.1-0.7-0.1-1.3h0c-0.3,0.7-0.9,1.4-2.2,1.4
		c-2,0-2.9-2-2.9-4.2c0-2.7,1.1-4.3,2.8-4.3c1.2,0,1.8,0.7,2.1,1.3h0V85H575.2z M571.6,95.6c1.2,0,1.6-1.3,1.6-2.8
		c0-1.6-0.4-2.8-1.5-2.8c-1.1,0-1.5,1.1-1.5,2.7C570.1,94.7,570.4,95.6,571.6,95.6z"/>
	<path class="st58" d="M577.4,89.2c0.6-0.3,1.3-0.6,2.6-0.6c2.6,0,3.2,1.2,3.2,3.3v3.6c0,0.6,0.1,1.1,0.1,1.5h-1.8
		c-0.1-0.3-0.1-0.7-0.1-1.1h0c-0.5,0.7-1.1,1.2-2.3,1.2c-1.3,0-2.5-0.9-2.5-2.4c0-2.2,1.8-2.8,4.3-2.8h0.4v-0.3
		c0-0.8-0.4-1.6-1.5-1.6c-1,0-1.9,0.5-2.3,0.8L577.4,89.2z M581.3,92.9h-0.2c-1.7,0-2.7,0.4-2.7,1.6c0,0.8,0.5,1.3,1.3,1.3
		c1.2,0,1.6-0.9,1.6-2.4V92.9z"/>
	<path class="st58" d="M595.7,95.6c0,0.5,0,1,0.1,1.4h-1.9c0-0.4-0.1-0.8-0.1-1.3l0,0l0,0c-0.4,0.6-0.9,1.4-2.2,1.4
		c-1.9,0-2.4-1.4-2.4-3.1v-5.3h2v4.9c0,1.3,0.4,1.8,1.2,1.8c1.1,0,1.4-1,1.4-2v-4.7h2V95.6z"/>
	<path class="st58" d="M601.6,85h2v4.8h0c0.4-0.5,0.8-1.2,2-1.2c1.9,0,2.4,1.4,2.4,3.1V97h-2V92c0-1.3-0.3-1.8-1.1-1.8
		c-1,0-1.4,0.9-1.4,1.9V97h-2V85z"/>
	<path class="st58" d="M613.3,88.6c1.7,0,3.6,0.9,3.6,4.2c0,3.5-1.9,4.3-3.6,4.3s-3.6-0.8-3.6-4.3C609.7,89.5,611.6,88.6,613.3,88.6
		z M613.3,95.7c1.3,0,1.6-1.5,1.6-2.8c0-1.4-0.3-2.8-1.6-2.8s-1.6,1.5-1.6,2.8C611.7,94.2,612,95.7,613.3,95.7z"/>
	<path class="st58" d="M618.4,90.1c0-0.6,0-1-0.1-1.3h2c0,0.4,0.1,0.9,0.1,1.3h0c0.3-0.6,0.9-1.4,2.1-1.4c1.4,0,1.8,0.9,2.1,1.3
		c0.4-0.6,1-1.3,2.2-1.3c1.8,0,2.4,1.3,2.4,3.3V97h-2v-5.2c0-1-0.3-1.5-1.1-1.5c-0.9,0-1.3,0.8-1.3,1.7v5h-2v-5.2
		c0-1-0.3-1.5-1.1-1.5c-0.9,0-1.3,0.8-1.3,1.7v5h-2V90.1z"/>
	<path class="st58" d="M631.1,85.2h2v2h-2V85.2z M631.1,88.7h2V97h-2V88.7z"/>
	<path class="st58" d="M640.7,96.8c-0.5,0.2-1.2,0.3-2,0.3c-2.7,0-3.9-1.9-3.9-4.2c0-2.4,1.2-4.3,4-4.3c0.6,0,1.4,0.2,1.7,0.3
		l-0.1,1.6c-0.4-0.2-0.8-0.4-1.4-0.4c-1.5,0-2.2,1-2.2,2.8c0,1.5,0.7,2.7,2.3,2.7c0.5,0,1.1-0.2,1.4-0.4L640.7,96.8z"/>
	<path class="st58" d="M642.1,85.2h2v2h-2V85.2z M642.1,88.7h2V97h-2V88.7z"/>
	<path class="st58" d="M652.9,85v10.6c0,0.6,0,1.1,0.1,1.4h-1.9c0-0.2-0.1-0.7-0.1-1.3h0c-0.3,0.7-0.9,1.4-2.2,1.4
		c-2,0-2.9-2-2.9-4.2c0-2.7,1.1-4.3,2.8-4.3c1.2,0,1.8,0.7,2.1,1.3h0V85H652.9z M649.3,95.6c1.2,0,1.6-1.3,1.6-2.8
		c0-1.6-0.4-2.8-1.5-2.8c-1.1,0-1.5,1.1-1.5,2.7C647.8,94.7,648.1,95.6,649.3,95.6z"/>
	<path class="st58" d="M655.1,89.2c0.6-0.3,1.3-0.6,2.6-0.6c2.6,0,3.2,1.2,3.2,3.3v3.6c0,0.6,0.1,1.1,0.1,1.5h-1.8
		c-0.1-0.3-0.1-0.7-0.1-1.1h0c-0.5,0.7-1.1,1.2-2.3,1.2c-1.3,0-2.5-0.9-2.5-2.4c0-2.2,1.8-2.8,4.3-2.8h0.4v-0.3
		c0-0.8-0.4-1.6-1.5-1.6c-1,0-1.9,0.5-2.3,0.8L655.1,89.2z M659,92.9h-0.2c-1.7,0-2.7,0.4-2.7,1.6c0,0.8,0.5,1.3,1.3,1.3
		c1.2,0,1.6-0.9,1.6-2.4V92.9z"/>
	<path class="st58" d="M480.5,114.2L480.5,114.2l1.6-6.2h1.9l-3,9.8c-0.4,1.1-1,2-2.4,2c-0.5,0-1-0.1-1.3-0.2l0.1-1.5
		c0.2,0.1,0.4,0.2,0.8,0.2c0.6,0,0.8-0.4,1.1-1.2l0.1-0.7l-2.7-8.3h2L480.5,114.2z"/>
	<path class="st58" d="M487.1,104.8h1.4l-2.8,11.5h-1.3L487.1,104.8z"/>
	<path class="st58" d="M492.9,107.8c1.7,0,3.6,0.9,3.6,4.2c0,3.5-1.9,4.3-3.6,4.3s-3.6-0.8-3.6-4.3
		C489.3,108.7,491.2,107.8,492.9,107.8z M492.9,114.9c1.3,0,1.6-1.5,1.6-2.8c0-1.4-0.3-2.8-1.6-2.8s-1.6,1.5-1.6,2.8
		C491.3,113.4,491.6,114.9,492.9,114.9z"/>
	<path class="st58" d="M502,114.2c0.3,0.1,1.1,0.5,2.1,0.5c0.7,0,1.3-0.2,1.3-0.8c0-0.3-0.2-0.6-0.9-1l-0.8-0.5
		c-0.8-0.5-1.7-1-1.7-2.3c0-1.1,1.1-2.3,2.8-2.3c1.1,0,1.9,0.3,2.1,0.3l-0.1,1.5c-0.5-0.2-1-0.4-1.7-0.4c-0.8,0-1.1,0.3-1.1,0.8
		c0,0.4,0.4,0.7,0.9,1.1l1,0.6c1,0.7,1.5,1.1,1.5,2.1c0,1.5-1.3,2.4-3.1,2.4c-1,0-1.9-0.2-2.3-0.4L502,114.2z"/>
	<path class="st58" d="M509,107.9h2v8.2h-2V107.9z M510,104.7h1.9l-1.6,2.3H509L510,104.7z"/>
	<path class="st58" d="M512.9,109.3c0-0.5,0-1-0.1-1.4h1.9c0,0.4,0.1,0.8,0.1,1.3h0c0.3-0.5,0.8-1.4,2.2-1.4c1.9,0,2.4,1.4,2.4,3.1
		v5.3h-2v-4.9c0-1.3-0.3-1.8-1.1-1.8c-1,0-1.4,0.9-1.4,1.9v4.8h-2V109.3z"/>
	<path class="st58" d="M522,106.2l2-0.6v2.3h1.6v1.5H524v4.3c0,0.9,0.3,1.1,0.9,1.1c0.4,0,0.6-0.1,0.8-0.2v1.4
		c-0.3,0.1-0.7,0.3-1.3,0.3c-1.5,0-2.3-0.7-2.3-2.4v-4.5h-1.3v-1.5h1.3V106.2z"/>
	<path class="st58" d="M530.3,107.8c1.7,0,3.6,0.9,3.6,4.2c0,3.5-1.9,4.3-3.6,4.3s-3.6-0.8-3.6-4.3
		C526.6,108.7,528.6,107.8,530.3,107.8z M530.3,114.9c1.3,0,1.6-1.5,1.6-2.8c0-1.4-0.3-2.8-1.6-2.8s-1.6,1.5-1.6,2.8
		C528.7,113.4,529,114.9,530.3,114.9z"/>
	<path class="st58" d="M535.4,109.3c0-0.6,0-1-0.1-1.3h2c0,0.4,0.1,0.9,0.1,1.3h0c0.3-0.6,0.9-1.4,2.1-1.4c1.4,0,1.8,0.9,2.1,1.3
		c0.4-0.6,1-1.3,2.2-1.3c1.8,0,2.4,1.3,2.4,3.3v5.1h-2V111c0-1-0.3-1.5-1.1-1.5c-0.9,0-1.3,0.8-1.3,1.7v5h-2V111
		c0-1-0.3-1.5-1.1-1.5c-0.9,0-1.3,0.8-1.3,1.7v5h-2V109.3z"/>
	<path class="st58" d="M548.3,108.4c0.6-0.3,1.3-0.6,2.6-0.6c2.6,0,3.2,1.2,3.2,3.3v3.6c0,0.6,0.1,1.1,0.1,1.5h-1.8
		c-0.1-0.3-0.1-0.7-0.1-1.1h0c-0.5,0.7-1.1,1.2-2.3,1.2c-1.3,0-2.5-0.9-2.5-2.4c0-2.2,1.8-2.8,4.3-2.8h0.4v-0.3
		c0-0.8-0.4-1.6-1.5-1.6c-1,0-1.9,0.5-2.3,0.8L548.3,108.4z M552.2,112.1H552c-1.7,0-2.7,0.4-2.7,1.6c0,0.8,0.5,1.3,1.3,1.3
		c1.2,0,1.6-0.9,1.6-2.4V112.1z"/>
	<path class="st58" d="M555.7,114.2c0.3,0.1,1.1,0.5,2.1,0.5c0.7,0,1.3-0.2,1.3-0.8c0-0.3-0.2-0.6-0.9-1l-0.8-0.5
		c-0.8-0.5-1.7-1-1.7-2.3c0-1.1,1.1-2.3,2.8-2.3c1.1,0,1.9,0.3,2.1,0.3l-0.1,1.5c-0.5-0.2-1-0.4-1.7-0.4c-0.8,0-1.1,0.3-1.1,0.8
		c0,0.4,0.4,0.7,0.9,1.1l1,0.6c1,0.7,1.5,1.1,1.5,2.1c0,1.5-1.3,2.4-3.1,2.4c-1,0-1.9-0.2-2.3-0.4L555.7,114.2z"/>
	<path class="st58" d="M566.6,109.3c0-0.6,0-1.1-0.1-1.4h1.9c0,0.2,0.1,0.7,0.1,1.3h0c0.3-0.7,0.9-1.4,2.2-1.4c2,0,2.9,2,2.9,4.2
		c0,2.7-1.1,4.3-2.8,4.3c-1.2,0-1.8-0.7-2.1-1.3h0v4.6h-2V109.3z M570.1,114.8c1.1,0,1.5-1.1,1.5-2.7c0-1.9-0.3-2.9-1.5-2.9
		c-1.2,0-1.6,1.3-1.6,2.8C568.6,113.7,569,114.8,570.1,114.8z"/>
	<path class="st58" d="M574.9,114.2c0.3,0.1,1.1,0.5,2.1,0.5c0.7,0,1.3-0.2,1.3-0.8c0-0.3-0.2-0.6-0.9-1l-0.8-0.5
		c-0.8-0.5-1.7-1-1.7-2.3c0-1.1,1.1-2.3,2.8-2.3c1.1,0,1.9,0.3,2.1,0.3l-0.1,1.5c-0.5-0.2-1-0.4-1.7-0.4c-0.8,0-1.1,0.3-1.1,0.8
		c0,0.4,0.4,0.7,0.9,1.1l1,0.6c1,0.7,1.5,1.1,1.5,2.1c0,1.5-1.3,2.4-3.1,2.4c-1,0-1.9-0.2-2.3-0.4L574.9,114.2z"/>
	<path class="st58" d="M581.8,104.4h2v2h-2V104.4z M581.9,107.9h2v8.2h-2V107.9z"/>
	<path class="st58" d="M591.4,116c-0.5,0.2-1.2,0.3-2,0.3c-2.7,0-3.9-1.9-3.9-4.2c0-2.4,1.2-4.3,4-4.3c0.6,0,1.4,0.2,1.7,0.3
		l-0.1,1.6c-0.4-0.2-0.8-0.4-1.4-0.4c-1.5,0-2.2,1-2.2,2.8c0,1.5,0.7,2.7,2.3,2.7c0.5,0,1.1-0.2,1.4-0.4L591.4,116z"/>
	<path class="st58" d="M596.1,107.8c1.7,0,3.6,0.9,3.6,4.2c0,3.5-1.9,4.3-3.6,4.3s-3.6-0.8-3.6-4.3
		C592.4,108.7,594.4,107.8,596.1,107.8z M596.1,114.9c1.3,0,1.6-1.5,1.6-2.8c0-1.4-0.3-2.8-1.6-2.8s-1.6,1.5-1.6,2.8
		C594.5,113.4,594.8,114.9,596.1,114.9z M596.1,104.7h1.9l-1.6,2.3h-1.2L596.1,104.7z"/>
	<path class="st58" d="M602,106.2l2-0.6v2.3h1.6v1.5H604v4.3c0,0.9,0.3,1.1,0.9,1.1c0.4,0,0.6-0.1,0.8-0.2v1.4
		c-0.3,0.1-0.7,0.3-1.3,0.3c-1.5,0-2.3-0.7-2.3-2.4v-4.5h-1.3v-1.5h1.3V106.2z"/>
	<path class="st58" d="M607,104.4h2v2h-2V104.4z M607.1,107.9h2v8.2h-2V107.9z"/>
	<path class="st58" d="M616.6,116c-0.5,0.2-1.2,0.3-2,0.3c-2.7,0-3.9-1.9-3.9-4.2c0-2.4,1.2-4.3,4-4.3c0.6,0,1.4,0.2,1.7,0.3
		l-0.1,1.6c-0.4-0.2-0.8-0.4-1.4-0.4c-1.5,0-2.2,1-2.2,2.8c0,1.5,0.7,2.7,2.3,2.7c0.5,0,1.1-0.2,1.4-0.4L616.6,116z"/>
	<path class="st58" d="M621.3,107.8c1.7,0,3.6,0.9,3.6,4.2c0,3.5-1.9,4.3-3.6,4.3s-3.6-0.8-3.6-4.3
		C617.6,108.7,619.6,107.8,621.3,107.8z M621.3,114.9c1.3,0,1.6-1.5,1.6-2.8c0-1.4-0.3-2.8-1.6-2.8s-1.6,1.5-1.6,2.8
		C619.7,113.4,620,114.9,621.3,114.9z"/>
	<path class="st58" d="M626.2,114.2c0.3,0.1,1.1,0.5,2.1,0.5c0.7,0,1.3-0.2,1.3-0.8c0-0.3-0.2-0.6-0.9-1l-0.8-0.5
		c-0.8-0.5-1.7-1-1.7-2.3c0-1.1,1.1-2.3,2.8-2.3c1.1,0,1.9,0.3,2.1,0.3l-0.1,1.5c-0.5-0.2-1-0.4-1.7-0.4c-0.8,0-1.1,0.3-1.1,0.8
		c0,0.4,0.4,0.7,0.9,1.1l1,0.6c1,0.7,1.5,1.1,1.5,2.1c0,1.5-1.3,2.4-3.1,2.4c-1,0-1.9-0.2-2.3-0.4L626.2,114.2z"/>
	<path class="st58" d="M632.6,114.1h1.9v2.1h-1.9V114.1z"/>
</g>
</svg>
