<!-- Generator: Adobe Illustrator 20.1.0, SVG Export Plug-In  -->
<svg version="1.1"
	 xmlns="http://www.w3.org/2000/svg" xmlns:xlink="http://www.w3.org/1999/xlink" xmlns:a="http://ns.adobe.com/AdobeSVGViewerExtensions/3.0/"
	 x="0px" y="0px" width="440px" height="53.7px" viewBox="0 0 440 53.7"
	 style="overflow:scroll;enable-background:new 0 0 440 53.7;" xml:space="preserve">
<style type="text/css">
	.st0{fill:#E8E8E8;}
	.st1{fill:#E5E5E5;}
	.st2{fill:#E1E1E1;}
	.st3{fill:#DEDEDE;}
	.st4{fill:#DBDBDB;}
	.st5{fill:#D8D8D8;}
	.st6{fill:#D4D4D4;}
	.st7{fill:#D1D1D1;}
	.st8{fill:#CECECE;}
	.st9{fill:#CACACA;}
	.st10{fill:#C7C7C7;}
	.st11{fill:#C4C4C4;}
	.st12{fill:#C0C0C0;}
	.st13{fill:#BDBDBD;}
	.st14{fill:#BABABA;}
	.st15{fill:#B7B7B7;}
	.st16{fill:#B3B3B3;}
	.st17{fill:#B0B0B0;}
	.st18{fill:#ADADAD;}
	.st19{fill:#A9A9A9;}
	.st20{fill:#A6A6A6;}
	.st21{fill:#A3A3A3;}
	.st22{fill:#9F9F9F;}
	.st23{fill:#9C9C9C;}
	.st24{fill:#999999;}
	.st25{fill:#969696;}
	.st26{fill:#929292;}
	.st27{fill:#8F8F8F;}
	.st28{fill:#8C8C8C;}
	.st29{fill:#888888;}
	.st30{fill:#858585;}
	.st31{fill:#828282;}
	.st32{fill:#7E7E7E;}
	.st33{fill:#7B7B7B;}
	.st34{fill:#787878;}
	.st35{fill:#757575;}
	.st36{fill:#717171;}
	.st37{fill:#6E6E6E;}
	.st38{fill:#6B6B6B;}
	.st39{fill:#676767;}
	.st40{fill:#646464;}
	.st41{fill:#616161;}
	.st42{fill:#5D5D5D;}
	.st43{fill:#5A5A5A;}
	.st44{fill:#575757;}
	.st45{fill:#545454;}
	.st46{fill:#505050;}
	.st47{fill:#4D4D4D;}
	.st48{fill:#4A4A4A;}
	.st49{fill:#464646;}
	.st50{fill:#434343;}
	.st51{fill:#404040;}
	.st52{fill:#0082CB;}
	.st53{fill:#FFFFFF;}
</style>
<defs>
</defs>
<g>
	<g>
		<path class="st0" d="M435.8,20.1L157.5,43.3L440,53.7L435.8,20.1z M162.7,43l272.9-22.7l3.4,33.1L158.6,43.3L162.7,43z"/>
		<path class="st1" d="M435.5,20.3L162.7,43l-4.1,0.3l280.3,10.2L435.5,20.3z M167.8,42.7l267.4-22.2l2.6,32.7l-278.2-10L167.8,42.7
			z"/>
		<path class="st2" d="M435.2,20.5L167.8,42.7l-8.1,0.5l278.2,10L435.2,20.5z M172.9,42.5l262-21.8l1.9,32.3l-276-9.7L172.9,42.5z"
			/>
		<path class="st3" d="M434.9,20.7l-262,21.8l-12.2,0.8l276,9.7L434.9,20.7z M178.1,42.2l256.5-21.3l1.1,31.9l-273.8-9.5L178.1,42.2
			z"/>
		<path class="st4" d="M434.6,20.9L178.1,42.2l-16.2,1.1l273.8,9.5L434.6,20.9z M162.9,43.3l20.3-1.3l251-20.9l0.3,31.5L162.9,43.3z
			"/>
		<path class="st5" d="M183.2,41.9l-20.3,1.3l271.6,9.3L434.3,21L183.2,41.9z M433.5,52.4L164,43.2l24.4-1.6l245.6-20.4L433.5,52.4z
			"/>
		<path class="st6" d="M164,43.2l269.5,9.1l0.5-31.1L188.4,41.6L164,43.2z M433.6,21.4l-1.2,30.7l-267.3-8.9l28.4-1.9L433.6,21.4z"
			/>
		<path class="st7" d="M432.4,52.1l1.2-30.7l-240.1,20l-28.4,1.9L432.4,52.1z M198.7,41.1l234.7-19.5l-2,30.3l-265.1-8.7L198.7,41.1
			z"/>
		<path class="st8" d="M431.3,51.9l2-30.3L198.7,41.1l-32.5,2.1L431.3,51.9z M203.8,40.8L433,21.7l-2.8,29.9l-263-8.5L203.8,40.8z"
			/>
		<path class="st9" d="M430.2,51.7l2.8-29.9L203.8,40.8l-36.5,2.4L430.2,51.7z M208.9,40.5l223.8-18.6l-3.6,29.6l-260.8-8.3
			L208.9,40.5z"/>
		<path class="st10" d="M429.1,51.5l3.6-29.6L208.9,40.5l-40.6,2.7L429.1,51.5z M214.1,40.3l218.3-18.2L428,51.2l-258.6-8
			L214.1,40.3z"/>
		<path class="st11" d="M428,51.2l4.3-29.2L214.1,40.3l-44.7,3L428,51.2z M219.2,40l212.8-17.7L426.9,51l-256.4-7.8L219.2,40z"/>
		<path class="st12" d="M426.9,51l5.1-28.8L219.2,40l-48.7,3.2L426.9,51z M224.4,39.7l207.4-17.3l-5.9,28.4l-254.3-7.6L224.4,39.7z"
			/>
		<path class="st13" d="M425.8,50.8l5.9-28.4L224.4,39.7l-52.8,3.5L425.8,50.8z M229.5,39.4l201.9-16.8l-6.7,28l-252.1-7.4
			L229.5,39.4z"/>
		<path class="st14" d="M424.7,50.6l6.7-28L229.5,39.4l-56.8,3.8L424.7,50.6z M234.6,39.1l196.5-16.3l-7.4,27.6l-249.9-7.2
			L234.6,39.1z"/>
		<path class="st15" d="M423.7,50.4l7.4-27.6L234.6,39.1l-60.9,4L423.7,50.4z M239.8,38.9l191-15.9l-8.2,27.2l-247.7-7L239.8,38.9z"
			/>
		<path class="st16" d="M422.6,50.1l8.2-27.2l-191,15.9l-64.9,4.3L422.6,50.1z M244.9,38.6l185.6-15.4l-9,26.8l-245.6-6.8
			L244.9,38.6z"/>
		<path class="st17" d="M421.5,49.9l9-26.8L244.9,38.6l-69,4.6L421.5,49.9z M250.1,38.3l180.1-15l-9.8,26.4L177,43.1L250.1,38.3z"/>
		<path class="st18" d="M420.4,49.7l9.8-26.4l-180.1,15L177,43.1L420.4,49.7z M255.2,38l174.6-14.5l-10.5,26l-241.2-6.3L255.2,38z"
			/>
		<path class="st19" d="M419.3,49.5l10.5-26L255.2,38l-77.1,5.1L419.3,49.5z M260.3,37.8l169.2-14.1l-11.3,25.6l-239.1-6.1
			L260.3,37.8z"/>
		<path class="st20" d="M418.2,49.3l11.3-25.6L260.3,37.8l-81.2,5.4L418.2,49.3z M265.5,37.5l163.7-13.6L417.1,49l-236.9-5.9
			L265.5,37.5z"/>
		<path class="st21" d="M417.1,49l12.1-25.2L265.5,37.5l-85.2,5.6L417.1,49z M270.6,37.2L428.9,24L416,48.8l-234.7-5.7L270.6,37.2z"
			/>
		<path class="st22" d="M416,48.8L428.9,24L270.6,37.2l-89.3,5.9L416,48.8z M275.8,36.9l152.8-12.7l-13.6,24.4l-232.5-5.5
			L275.8,36.9z"/>
		<path class="st23" d="M414.9,48.6l13.6-24.4L275.8,36.9l-93.4,6.2L414.9,48.6z M280.9,36.7l147.3-12.3l-14.4,24l-230.4-5.3
			L280.9,36.7z"/>
		<path class="st24" d="M413.8,48.4l14.4-24L280.9,36.7l-97.4,6.4L413.8,48.4z M286,36.4l141.9-11.8l-15.2,23.6l-228.2-5.1L286,36.4
			z"/>
		<path class="st25" d="M412.7,48.2l15.2-23.6L286,36.4l-101.5,6.7L412.7,48.2z M291.2,36.1l136.4-11.4l-16,23.2l-226-4.9
			L291.2,36.1z"/>
		<path class="st26" d="M411.7,47.9l16-23.2L291.2,36.1l-105.5,7L411.7,47.9z M296.3,35.8l131-10.9l-16.7,22.8l-223.8-4.6
			L296.3,35.8z"/>
		<path class="st27" d="M410.6,47.7l16.7-22.8l-131,10.9l-109.6,7.2L410.6,47.7z M301.5,35.5L427,25.1l-17.5,22.4l-221.7-4.4
			L301.5,35.5z"/>
		<path class="st28" d="M409.5,47.5L427,25.1L301.5,35.5l-113.7,7.5L409.5,47.5z M306.6,35.3l120.1-10l-18.3,22L188.9,43L306.6,35.3
			z"/>
		<path class="st29" d="M408.4,47.3l18.3-22l-120.1,10L188.9,43L408.4,47.3z M311.7,35l114.6-9.5L407.3,47L190,43L311.7,35z"/>
		<path class="st30" d="M407.3,47l19.1-21.6L311.7,35L190,43L407.3,47z M316.9,34.7L426,25.6l-19.8,21.2L191.1,43L316.9,34.7z"/>
		<path class="st31" d="M406.2,46.8L426,25.6l-109.1,9.1L191.1,43L406.2,46.8z M322,34.4l103.7-8.6l-20.6,20.8l-213-3.6L322,34.4z"
			/>
		<path class="st32" d="M405.1,46.6l20.6-20.8L322,34.4L192.1,43L405.1,46.6z M327.2,34.2l98.2-8.2L404,46.4L193.2,43L327.2,34.2z"
			/>
		<path class="st33" d="M404,46.4L425.4,26l-98.2,8.2l-134,8.8L404,46.4z M332.3,33.9l92.8-7.7l-22.2,20L194.3,43L332.3,33.9z"/>
		<path class="st34" d="M402.9,46.2l22.2-20l-92.8,7.7l-138,9.1L402.9,46.2z M337.5,33.6l87.3-7.3l-22.9,19.6l-206.5-3L337.5,33.6z"
			/>
		<path class="st35" d="M401.8,45.9l22.9-19.6l-87.3,7.3L195.4,43L401.8,45.9z M342.6,33.3l81.9-6.8l-23.7,19.2L196.5,43L342.6,33.3
			z"/>
		<path class="st36" d="M400.7,45.7l23.7-19.2l-81.9,6.8L196.5,43L400.7,45.7z M347.7,33.1l76.4-6.4l-24.5,18.8L197.5,43L347.7,33.1
			z"/>
		<path class="st37" d="M399.7,45.5l24.5-18.8l-76.4,6.4L197.5,43L399.7,45.5z M352.9,32.8l70.9-5.9l-25.3,18.4L198.6,43L352.9,32.8
			z"/>
		<path class="st38" d="M398.6,45.3l25.3-18.4l-70.9,5.9L198.6,43L398.6,45.3z M358,32.5l65.5-5.4l-26,18L199.7,43L358,32.5z"/>
		<path class="st39" d="M397.5,45.1l26-18L358,32.5L199.7,43L397.5,45.1z M363.2,32.2l60-5l-26.8,17.6l-195.6-1.9L363.2,32.2z"/>
		<path class="st40" d="M396.4,44.8l26.8-17.6l-60,5L200.8,42.9L396.4,44.8z M368.3,31.9l54.6-4.5l-27.6,17.2l-193.4-1.7L368.3,31.9
			z"/>
		<path class="st41" d="M395.3,44.6l27.6-17.2l-54.6,4.5l-166.4,11L395.3,44.6z M373.4,31.7l49.1-4.1l-28.4,16.8L203,42.9
			L373.4,31.7z"/>
		<path class="st42" d="M394.2,44.4l28.4-16.8l-49.1,4.1L203,42.9L394.2,44.4z M378.6,31.4l43.7-3.6l-29.1,16.4L204,42.9L378.6,31.4
			z"/>
		<path class="st43" d="M393.1,44.2l29.1-16.4l-43.7,3.6L204,42.9L393.1,44.2z M383.7,31.1l38.2-3.2l-0.3,0.2l0,0l-0.3,0.1l-0.1,0
			l0,0l-0.3,0.1l-0.1,0l0.1,0l-0.3,0.1l-0.1,0l0.1,0l-0.3,0.1l-0.1,0l0.1,0l-0.3,0.1l-0.1,0.1l0.1,0l-0.3,0.1l-0.1,0.1l0.1,0
			l-0.3,0.1L392,44l-186.9-1L383.7,31.1z"/>
		<polygon class="st44" points="419.6,29.2 419.7,29.1 419.6,29.2 		"/>
		<polygon class="st44" points="420.3,28.8 420.4,28.8 420.2,28.8 		"/>
		<polygon class="st44" points="392,44 419.4,29.3 419,29.4 390.9,43.7 206.2,42.9 388.9,30.8 421.6,28.1 421.9,27.9 383.7,31.1 
			205.1,42.9 		"/>
		<polygon class="st44" points="421.3,28.3 421.3,28.2 421.3,28.3 		"/>
		<polygon class="st44" points="420.6,28.7 420.7,28.6 420.6,28.7 		"/>
		<polygon class="st44" points="419.9,29 420,28.9 419.9,29 		"/>
		<polygon class="st44" points="420.9,28.5 421,28.4 420.9,28.5 		"/>
		<polygon class="st45" points="206.2,42.9 390.9,43.7 419,29.4 418.6,29.6 389.8,43.5 207.3,42.9 394,30.6 421.3,28.3 421.3,28.2 
			421.6,28.1 421.6,28.1 388.9,30.8 		"/>
		<polygon class="st46" points="394,30.6 207.3,42.9 389.8,43.5 418.6,29.6 418.2,29.7 388.7,43.3 208.4,42.9 399.1,30.3 
			420.9,28.5 421,28.4 421.3,28.3 421.3,28.3 421.3,28.3 		"/>
		<polygon class="st47" points="399.1,30.3 208.4,42.9 388.7,43.3 418.2,29.7 417.9,29.9 387.7,43.1 209.4,42.9 404.3,30 
			420.6,28.7 420.7,28.6 421,28.5 420.9,28.5 420.9,28.5 		"/>
		<polygon class="st48" points="404.3,30 209.4,42.9 387.7,43.1 417.9,29.9 417.5,30 386.6,42.9 210.5,42.9 409.4,29.7 420.2,28.8 
			420.4,28.8 420.7,28.6 420.6,28.7 420.6,28.7 		"/>
		<polygon class="st49" points="409.4,29.7 210.5,42.9 386.6,42.9 417.5,30 417.1,30.1 385.5,42.6 211.6,42.9 414.6,29.4 419.9,29 
			420,28.9 420.3,28.8 420.3,28.8 420.2,28.8 		"/>
		<polygon class="st50" points="414.6,29.4 211.6,42.9 385.5,42.6 417.1,30.1 384.4,42.4 212.7,42.8 419.6,29.2 419.7,29.1 420,29 
			419.9,29 419.9,29 		"/>
		<polygon class="st51" points="212.7,42.8 384.4,42.4 417.1,30.1 417.5,30 417.9,29.9 418.2,29.7 418.6,29.6 419,29.4 419.4,29.3 
			419.7,29.2 419.6,29.2 419.6,29.2 		"/>
	</g>
	<rect class="st52" width="439.3" height="45.4"/>
</g>
<g>
	<g>
		<path class="st53" d="M31.2,15.7h4.5v13.3h5.5v3.4h-10V15.7z"/>
		<path class="st53" d="M48.8,19.7c4.6,0,6.2,3.1,6.2,6.6s-1.7,6.5-6.2,6.5s-6.2-3.1-6.2-6.5S44.3,19.7,48.8,19.7z M48.8,29.8
			c1.5,0,1.7-1.8,1.7-3.6s-0.2-3.6-1.7-3.6s-1.7,1.8-1.7,3.6S47.4,29.8,48.8,29.8z"/>
		<path class="st53" d="M56.8,28.8c0.7,0.3,1.8,0.9,3.3,0.9c1.2,0,1.8-0.3,1.8-0.9c0-0.4-0.3-0.7-1.4-1.1l-1.3-0.5
			c-2-0.7-2.6-1.9-2.6-3.5c0-2.2,1.4-4.1,5.2-4.1c1.3,0,2.6,0.3,3.5,0.6l-0.1,3.1c-0.8-0.4-2-0.8-3.1-0.8c-0.8,0-1.5,0.2-1.5,0.9
			c0,0.4,0.4,0.7,1.4,1.1l1.4,0.5c1.6,0.6,2.5,1.3,2.5,3.5c0,2.6-1.7,4.1-5.4,4.1c-1.4,0-3.1-0.3-3.8-0.6L56.8,28.8z"/>
		<path class="st53" d="M73.7,28.8c0.7,0.3,1.8,0.9,3.3,0.9c1.2,0,1.8-0.3,1.8-0.9c0-0.4-0.3-0.7-1.4-1.1L76,27.3
			c-2-0.7-2.6-1.9-2.6-3.5c0-2.2,1.4-4.1,5.2-4.1c1.3,0,2.6,0.3,3.5,0.6L82,23.4c-0.8-0.4-2-0.8-3.1-0.8c-0.8,0-1.5,0.2-1.5,0.9
			c0,0.4,0.4,0.7,1.4,1.1l1.4,0.5c1.6,0.6,2.5,1.3,2.5,3.5c0,2.6-1.7,4.1-5.4,4.1c-1.4,0-3.1-0.3-3.8-0.6L73.7,28.8z"/>
		<path class="st53" d="M84.8,20h4.3v12.5h-4.3V20z M90.1,14.7l-2.4,3.5h-2.4l1.2-3.5H90.1z"/>
		<path class="st53" d="M91.8,22.5c0-0.9-0.1-2-0.1-2.5h4.1c0.1,0.5,0.1,1.4,0.1,2.1h0c0.2-0.7,1.1-2.4,3.5-2.4c2.1,0,3.8,1.3,3.8,4
			v8.8h-4.3v-7.5c0-1.2-0.4-1.8-1.2-1.8c-1.1,0-1.6,1.1-1.6,2.4v6.9h-4.3V22.5z"/>
		<path class="st53" d="M104.6,20h2.1v-2.6l4.3-1.3v4h2.4v2.9h-2.4v5.3c0,1.1,0.6,1.5,1.4,1.5c0.4,0,0.8-0.1,1-0.2l0.1,2.9
			c-0.6,0.1-1.6,0.3-2.9,0.3c-2.4,0-4-1.3-4-3.7v-6.2h-2.1V20z"/>
		<path class="st53" d="M121.2,19.7c4.6,0,6.2,3.1,6.2,6.6s-1.7,6.5-6.2,6.5s-6.2-3.1-6.2-6.5S116.6,19.7,121.2,19.7z M121.2,29.8
			c1.5,0,1.7-1.8,1.7-3.6s-0.2-3.6-1.7-3.6s-1.7,1.8-1.7,3.6S119.7,29.8,121.2,29.8z"/>
		<path class="st53" d="M129.5,22.6c0-1.2-0.1-2.3-0.1-2.7h4.1c0.1,0.5,0.1,1.4,0.1,2.1h0c0.2-0.7,1.1-2.4,3.5-2.4
			c1.3,0,2.7,0.4,3.4,2.1c0.8-1.3,2-2.1,3.7-2.1c2,0,3.7,1.1,3.7,3.8v9h-4.3v-7.5c0-1.2-0.4-1.8-1.2-1.8c-1.2,0-1.5,1.1-1.5,2.1v7.2
			h-4.3v-7.5c0-1.2-0.4-1.8-1.2-1.8c-1.1,0-1.6,1.1-1.6,2.4v6.9h-4.3V22.6z"/>
		<path class="st53" d="M161.3,29.7c0,1,0.1,2,0.1,2.8h-3.8c0-0.6-0.1-1.2-0.1-1.7c-1.2,1.4-2.2,2-3.7,2c-2.2,0-3.8-1.6-3.8-4
			c0-2.8,2.1-4.3,6.4-4.3h1.1v-0.4c0-0.8-0.6-1.7-2.4-1.7c-1.3,0-2.7,0.6-3.6,1.2l-0.1-3.1c1-0.4,2.6-0.8,4.7-0.8
			c4.4,0,5.3,2.1,5.3,4.6V29.7z M157.4,26.4h-0.5c-1.9,0-3.2,0.6-3.2,2.1c0,1.1,0.6,1.5,1.5,1.5c2,0,2.2-2,2.2-3.2V26.4z"/>
		<path class="st53" d="M163.4,28.8c0.7,0.3,1.8,0.9,3.3,0.9c1.2,0,1.8-0.3,1.8-0.9c0-0.4-0.3-0.7-1.4-1.1l-1.3-0.5
			c-2-0.7-2.6-1.9-2.6-3.5c0-2.2,1.4-4.1,5.2-4.1c1.3,0,2.6,0.3,3.5,0.6l-0.1,3.1c-0.8-0.4-2-0.8-3.1-0.8c-0.8,0-1.5,0.2-1.5,0.9
			c0,0.4,0.4,0.7,1.4,1.1l1.4,0.5c1.6,0.6,2.5,1.3,2.5,3.5c0,2.6-1.7,4.1-5.4,4.1c-1.4,0-3.1-0.3-3.8-0.6L163.4,28.8z"/>
		<path class="st53" d="M180.3,28.8c0.7,0.3,1.8,0.9,3.3,0.9c1.2,0,1.8-0.3,1.8-0.9c0-0.4-0.3-0.7-1.4-1.1l-1.3-0.5
			c-2-0.7-2.6-1.9-2.6-3.5c0-2.2,1.4-4.1,5.2-4.1c1.3,0,2.6,0.3,3.5,0.6l-0.1,3.1c-0.8-0.4-2-0.8-3.1-0.8c-0.8,0-1.5,0.2-1.5,0.9
			c0,0.4,0.4,0.7,1.4,1.1l1.4,0.5c1.6,0.6,2.5,1.3,2.5,3.5c0,2.6-1.7,4.1-5.4,4.1c-1.4,0-3.1-0.3-3.8-0.6L180.3,28.8z"/>
		<path class="st53" d="M197.1,19.7c4.6,0,6.2,3.1,6.2,6.6s-1.7,6.5-6.2,6.5s-6.2-3.1-6.2-6.5S192.6,19.7,197.1,19.7z M197.1,29.8
			c1.5,0,1.7-1.8,1.7-3.6s-0.2-3.6-1.7-3.6s-1.7,1.8-1.7,3.6S195.6,29.8,197.1,29.8z"/>
		<path class="st53" d="M205.4,22.5c0-0.9-0.1-2-0.1-2.5h4.1c0.1,0.5,0.1,1.4,0.1,2.1h0c0.2-0.7,1.1-2.4,3.5-2.4
			c2.1,0,3.8,1.3,3.8,4v8.8h-4.3v-7.5c0-1.2-0.4-1.8-1.2-1.8c-1.1,0-1.6,1.1-1.6,2.4v6.9h-4.3V22.5z"/>
		<path class="st53" d="M219.2,20h3.8v3.8h-3.8V20z M219.2,28.6h3.8v3.8h-3.8V28.6z"/>
		<path class="st53" d="M227.1,16.1l-1.2,1.4l-0.6-0.9l2-1.9h1.1v9.8h-1.2V16.1z"/>
	</g>
</g>
</svg>
