<!-- Generator: Adobe Illustrator 20.1.0, SVG Export Plug-In  -->
<svg version="1.1"
	 xmlns="http://www.w3.org/2000/svg" xmlns:xlink="http://www.w3.org/1999/xlink" xmlns:a="http://ns.adobe.com/AdobeSVGViewerExtensions/3.0/"
	 x="0px" y="0px" width="618.7px" height="260.4px" viewBox="0 0 618.7 260.4"
	 style="overflow:scroll;enable-background:new 0 0 618.7 260.4;" xml:space="preserve">
<style type="text/css">
	.st0{fill:none;stroke:#0082CB;stroke-width:1.0634;stroke-miterlimit:10;}
	.st1{fill:#0082CB;}
	.st2{fill:#652D90;}
	.st3{fill:none;stroke:#0082CB;stroke-width:1.053;stroke-miterlimit:10;}
	.st4{fill:#EC1C24;}
	.st5{fill:#F6921E;}
	.st6{fill:#D1DD26;}
</style>
<defs>
</defs>
<rect x="0.5" y="0.5" class="st0" width="617.6" height="259.3"/>
<g>
	<g>
		<path class="st1" d="M14,39.4h2.3v12.3H14V39.4z"/>
		<path class="st1" d="M18.6,44.2c0-0.6,0-1.1-0.1-1.5h2c0,0.5,0.1,0.9,0.1,1.4h0c0.3-0.5,0.9-1.5,2.4-1.5c2.1,0,2.7,1.5,2.7,3.4
			v5.9h-2.2v-5.5c0-1.4-0.4-2-1.3-2c-1.1,0-1.6,1-1.6,2.1v5.3h-2.2V44.2z"/>
		<path class="st1" d="M27.8,38.5H30v5.3H30c0.4-0.6,0.9-1.3,2.3-1.3c2.1,0,2.7,1.5,2.7,3.4v5.9h-2.2v-5.5c0-1.4-0.4-2-1.3-2
			c-1.1,0-1.6,1-1.6,2.1v5.3h-2.2V38.5z"/>
		<path class="st1" d="M37.1,38.8h2.3V41h-2.3V38.8z M37.1,42.7h2.2v9.1h-2.2V42.7z"/>
		<path class="st1" d="M43.7,38.5V44h0c0.3-0.7,1-1.4,2.3-1.4c2,0,3.1,1.7,3.1,4.7c0,2.5-0.9,4.7-3.2,4.7c-1.4,0-2.1-0.8-2.4-1.6
			h-0.1c0,0.6,0,1.1-0.1,1.4h-2c0.1-0.3,0.1-0.9,0.1-1.6V38.5H43.7z M45.5,50.3c1.3,0,1.6-1.1,1.6-3.2c0-1.8-0.4-3-1.6-3
			c-1.2,0-1.7,1.3-1.7,3.1C43.7,48.9,44.2,50.3,45.5,50.3z"/>
		<path class="st1" d="M57.7,51.3c-0.5,0.2-1.4,0.6-2.7,0.6c-2.9,0-4.2-2.1-4.2-4.6c0-2.7,1.4-4.8,3.7-4.8c2,0,3.6,1.1,3.6,4.9v0.4
			h-5.3c0,1.6,0.6,2.5,2.3,2.5c1.3,0,2-0.4,2.4-0.7L57.7,51.3z M56,46.4c0-1.6-0.5-2.4-1.5-2.4c-1.1,0-1.6,1.2-1.6,2.4H56z"/>
		<path class="st1" d="M64.6,38.5h2.2v13.2h-2.2V38.5z"/>
		<path class="st1" d="M69.4,43.2c0.6-0.3,1.5-0.7,2.9-0.7c2.8,0,3.5,1.4,3.5,3.7v4c0,0.7,0.1,1.3,0.1,1.6h-2
			c-0.1-0.4-0.1-0.8-0.1-1.2h0c-0.5,0.7-1.2,1.4-2.5,1.4c-1.4,0-2.7-1-2.7-2.7c0-2.5,2-3.1,4.8-3.1h0.4v-0.3c0-0.9-0.4-1.7-1.7-1.7
			c-1.1,0-2.1,0.5-2.5,0.9L69.4,43.2z M73.8,47.3h-0.2c-1.9,0-3,0.4-3,1.7c0,0.8,0.5,1.4,1.4,1.4c1.3,0,1.8-1,1.8-2.6V47.3z"/>
		<path class="st1" d="M89.9,38.5v11.7c0,0.7,0,1.2,0.1,1.6h-2c0-0.3-0.1-0.8-0.1-1.4h-0.1c-0.4,0.8-1,1.6-2.4,1.6
			c-2.3,0-3.2-2.2-3.2-4.7c0-3,1.2-4.7,3.1-4.7c1.3,0,2,0.7,2.3,1.4h0v-5.5H89.9z M86,50.3c1.3,0,1.7-1.4,1.7-3.1
			c0-1.8-0.5-3.1-1.7-3.1c-1.2,0-1.6,1.2-1.6,3C84.4,49.2,84.7,50.3,86,50.3z"/>
		<path class="st1" d="M98.6,51.3c-0.5,0.2-1.4,0.6-2.7,0.6c-2.9,0-4.2-2.1-4.2-4.6c0-2.7,1.4-4.8,3.7-4.8c2,0,3.6,1.1,3.6,4.9v0.4
			h-5.3c0,1.6,0.6,2.5,2.3,2.5c1.3,0,2-0.4,2.4-0.7L98.6,51.3z M96.9,46.4c0-1.6-0.5-2.4-1.5-2.4c-1.1,0-1.6,1.2-1.6,2.4H96.9z"/>
		<path class="st1" d="M101,53.2c0.5,0.3,1.5,0.8,2.7,0.8c2.1,0,2.4-1.4,2.4-2.9v-0.9h0c-0.4,0.7-1,1.5-2.4,1.5
			c-1.3,0-3.2-0.8-3.2-4.5c0-2.5,0.9-4.7,3.3-4.7c1.3,0,1.9,0.8,2.4,1.6h0.1c0-0.5,0.1-0.9,0.1-1.4h2c0,0.5-0.1,1-0.1,1.4v6.7
			c0,2.8-0.9,4.9-4.2,4.9c-1.4,0-2.6-0.4-3.1-0.6L101,53.2z M104.2,50.2c1.4,0,1.9-1,1.9-3.1c0-1.9-0.7-2.9-1.8-2.9
			c-1.1,0-1.6,1.1-1.6,2.9C102.7,49.3,103.4,50.2,104.2,50.2z"/>
		<path class="st1" d="M110.3,44.2c0-0.6,0-1.1-0.1-1.5h2c0,0.5,0.1,1.1,0.1,1.7h0c0.3-0.7,1-1.8,2.3-1.8c0.1,0,0.2,0,0.4,0.1v2
			c-0.2-0.1-0.4-0.1-0.6-0.1c-0.9,0-1.9,0.5-1.9,2.2v5h-2.2V44.2z"/>
		<path class="st1" d="M116.7,43.2c0.6-0.3,1.5-0.7,2.9-0.7c2.8,0,3.5,1.4,3.5,3.7v4c0,0.7,0.1,1.3,0.1,1.6h-2
			c-0.1-0.4-0.1-0.8-0.1-1.2h0c-0.5,0.7-1.2,1.4-2.5,1.4c-1.4,0-2.7-1-2.7-2.7c0-2.5,2-3.1,4.8-3.1h0.4v-0.3c0-0.9-0.4-1.7-1.7-1.7
			c-1.1,0-2.1,0.5-2.5,0.9L116.7,43.2z M121,47.3h-0.2c-1.9,0-3,0.4-3,1.7c0,0.8,0.5,1.4,1.4,1.4c1.3,0,1.8-1,1.8-2.6V47.3z"/>
		<path class="st1" d="M132.5,38.5v11.7c0,0.7,0,1.2,0.1,1.6h-2c0-0.3-0.1-0.8-0.1-1.4h-0.1c-0.4,0.8-1,1.6-2.4,1.6
			c-2.3,0-3.2-2.2-3.2-4.7c0-3,1.2-4.7,3.1-4.7c1.3,0,2,0.7,2.3,1.4h0v-5.5H132.5z M128.6,50.3c1.3,0,1.7-1.4,1.7-3.1
			c0-1.8-0.5-3.1-1.7-3.1c-1.2,0-1.6,1.2-1.6,3C127,49.2,127.4,50.3,128.6,50.3z"/>
		<path class="st1" d="M135,43.2c0.6-0.3,1.5-0.7,2.9-0.7c2.8,0,3.5,1.4,3.5,3.7v4c0,0.7,0.1,1.3,0.1,1.6h-2
			c-0.1-0.4-0.1-0.8-0.1-1.2h0c-0.5,0.7-1.2,1.4-2.5,1.4c-1.4,0-2.7-1-2.7-2.7c0-2.5,2-3.1,4.8-3.1h0.4v-0.3c0-0.9-0.4-1.7-1.7-1.7
			c-1.1,0-2.1,0.5-2.5,0.9L135,43.2z M139.3,47.3h-0.2c-1.9,0-3,0.4-3,1.7c0,0.8,0.5,1.4,1.4,1.4c1.3,0,1.8-1,1.8-2.6V47.3z"/>
		<path class="st1" d="M149.6,51.5c-0.5,0.2-1.3,0.4-2.2,0.4c-3,0-4.3-2.1-4.3-4.7c0-2.6,1.3-4.7,4.4-4.7c0.7,0,1.5,0.2,1.9,0.4
			l-0.1,1.7c-0.4-0.2-0.9-0.4-1.5-0.4c-1.7,0-2.4,1.1-2.4,3.1c0,1.7,0.8,3,2.5,3c0.5,0,1.3-0.2,1.6-0.4L149.6,51.5z"/>
		<path class="st1" d="M151.1,38.8h2.3V41h-2.3V38.8z M151.1,42.7h2.2v9.1h-2.2V42.7z"/>
		<path class="st1" d="M159.3,42.5c1.9,0,4,1,4,4.7c0,3.8-2.1,4.7-4,4.7s-4-0.9-4-4.7C155.2,43.5,157.4,42.5,159.3,42.5z
			 M159.3,50.4c1.4,0,1.7-1.6,1.7-3.1c0-1.5-0.3-3.1-1.7-3.1s-1.7,1.6-1.7,3.1C157.5,48.7,157.8,50.4,159.3,50.4z M159.3,39.1h2
			l-1.8,2.5h-1.4L159.3,39.1z"/>
		<path class="st1" d="M165,44.2c0-0.6,0-1.1-0.1-1.5h2c0,0.5,0.1,0.9,0.1,1.4h0c0.3-0.5,0.9-1.5,2.4-1.5c2.1,0,2.7,1.5,2.7,3.4v5.9
			H170v-5.5c0-1.4-0.4-2-1.3-2c-1.1,0-1.6,1-1.6,2.1v5.3H165V44.2z"/>
		<path class="st1" d="M186.2,38.5v11.7c0,0.7,0,1.2,0.1,1.6h-2c0-0.3-0.1-0.8-0.1-1.4h-0.1c-0.4,0.8-1,1.6-2.4,1.6
			c-2.3,0-3.2-2.2-3.2-4.7c0-3,1.2-4.7,3.1-4.7c1.3,0,2,0.7,2.3,1.4h0v-5.5H186.2z M182.3,50.3c1.3,0,1.7-1.4,1.7-3.1
			c0-1.8-0.5-3.1-1.7-3.1c-1.2,0-1.6,1.2-1.6,3C180.7,49.2,181,50.3,182.3,50.3z"/>
		<path class="st1" d="M194.9,51.3c-0.5,0.2-1.4,0.6-2.7,0.6c-2.9,0-4.2-2.1-4.2-4.6c0-2.7,1.4-4.8,3.7-4.8c2,0,3.6,1.1,3.6,4.9v0.4
			h-5.3c0,1.6,0.6,2.5,2.3,2.5c1.3,0,2-0.4,2.4-0.7L194.9,51.3z M193.2,46.4c0-1.6-0.5-2.4-1.5-2.4c-1.1,0-1.6,1.2-1.6,2.4H193.2z"
			/>
		<path class="st1" d="M197.2,38.5h2.2v13.2h-2.2V38.5z"/>
		<path class="st1" d="M211.4,44.9h4v6.4c-0.6,0.3-1.7,0.6-3.3,0.6c-4,0-6.1-2.7-6.1-6.3s2.1-6.3,6.1-6.3c1.4,0,2.5,0.3,3,0.5
			l-0.1,2c-0.7-0.4-1.7-0.8-2.8-0.8c-2.4,0-3.7,2-3.7,4.5c0,2.8,1.3,4.5,3.6,4.5c0.5,0,1-0.1,1.3-0.2v-3.3h-1.9V44.9z"/>
		<path class="st1" d="M224.2,48.8h-4.2l-0.9,3h-2.3l4.1-12.3h2.5l4,12.3H225L224.2,48.8z M223.7,47.1l-1.6-5.8h0l-1.7,5.8H223.7z"
			/>
		<path class="st1" d="M228.8,39.4h3.6c2.5,0,3.7,1,3.7,3c0,2-1.2,2.5-2,2.8v0c1,0.2,2.3,0.9,2.3,2.9c0,2.2-1.6,3.5-3.8,3.5h-3.8
			V39.4z M230.9,44.6h1.2c1.1,0,1.8-0.8,1.8-1.8c0-1-0.7-1.7-1.8-1.7h-1.1V44.6z M230.9,50h1.3c1.2,0,1.9-0.7,1.9-1.9
			c0-1.1-0.6-1.9-2-1.9h-1.2V50z"/>
		<path class="st1" d="M244.3,48.8h-4.2l-0.9,3h-2.3l4.1-12.3h2.5l4,12.3h-2.3L244.3,48.8z M243.8,47.1l-1.6-5.8h0l-1.7,5.8H243.8z"
			/>
		<path class="st1" d="M248.1,44.8c0.5,0.3,1,0.4,1.4,0.4c0.8,0,1.5-0.6,1.5-1.4c0-0.7-0.5-1.2-1.4-1.2h-0.7v-0.7h0.4
			c1.1,0,1.7-0.5,1.7-1.3c0-0.7-0.5-1.2-1.3-1.2c-0.4,0-0.9,0.2-1.3,0.4l-0.1-0.8c0.5-0.2,1-0.3,1.6-0.3c1.1,0,2,0.6,2,1.8
			c0,1-0.6,1.5-1.3,1.7v0c0.9,0.1,1.4,0.9,1.4,1.8c0,1.1-0.8,2.1-2.3,2.1c-0.5,0-1.1-0.1-1.5-0.3L248.1,44.8z"/>
	</g>
</g>
<g>
	<g>
		<path class="st1" d="M324,15.3h3c1.2,0,2,0.3,2.7,1c0.6,0.6,1,1.5,1,2.5c0,2.4-1.4,3.7-4,3.7h-1v5.2H324V15.3z M325.6,21.2h0.8
			c1.9,0,2.6-0.9,2.6-2.3c0-1.7-1-2.4-2.5-2.4h-0.9V21.2z"/>
		<path class="st1" d="M332.2,20.6c0-0.7-0.1-1.3-0.1-1.9h1.4l0.1,1.4h0c0.5-1.1,1.2-1.5,2.6-1.5V20c-0.2,0-0.4-0.1-0.6-0.1
			c-1.1,0-2,1-2,2.9v4.8h-1.5V20.6z"/>
		<path class="st1" d="M340.6,18.5c2.4,0,3.6,1.8,3.6,4.6s-1.2,4.6-3.6,4.6c-2.4,0-3.6-1.8-3.6-4.6S338.2,18.5,340.6,18.5z
			 M340.6,26.6c1.4,0,2.1-1.2,2.1-3.4s-0.7-3.4-2.1-3.4s-2.1,1.2-2.1,3.4S339.2,26.6,340.6,26.6z"/>
		<path class="st1" d="M352.4,26c0,0.5,0.1,1.1,0.1,1.7h-1.4l-0.1-1.3h0c-0.4,0.7-1.1,1.4-2.4,1.4c-1.9,0-3.1-1.5-3.1-4.6
			s1.3-4.6,3.1-4.6c1,0,1.7,0.4,2.3,1.4h0v-5.5h1.5V26z M349,19.7c-1.4,0-2,1.2-2,3.4s0.6,3.4,2,3.4s2-1.2,2-3.4
			S350.3,19.7,349,19.7z"/>
		<path class="st1" d="M360.8,25.7c0,0.7,0.1,1.3,0.1,1.9h-1.4l-0.1-1.3h0c-0.5,1-1.2,1.5-2.3,1.5c-1.6,0-2.6-0.9-2.6-2.9v-6.3h1.5
			v5.8c0,1.4,0.5,2,1.5,2c1.2,0,1.9-0.8,1.9-2.4v-5.4h1.5V25.7z"/>
		<path class="st1" d="M368.3,20.2c-0.5-0.3-1-0.4-1.7-0.4c-1.4,0-2.5,1-2.5,3.4c0,2.1,1,3.3,2.4,3.3c0.7,0,1.3-0.2,1.8-0.5l0.1,1.4
			c-0.4,0.2-1.2,0.4-1.9,0.4c-2.7,0-4-2-4-4.5c0-2.9,1.5-4.7,4-4.7c0.6,0,1.3,0.1,1.8,0.4L368.3,20.2z"/>
		<path class="st1" d="M370.9,23.6c0,2.1,0.8,3.1,2.5,3.1c0.7,0,1.6-0.4,2.1-0.7l0.1,1.3c-0.7,0.3-1.6,0.5-2.5,0.5
			c-2.4,0-3.6-1.8-3.6-4.6s1.2-4.6,3.5-4.6c2,0,3.2,1.6,3.2,4.3v0.8H370.9z M374.5,22.5c0-1.9-0.6-2.8-1.8-2.8c-1,0-1.8,0.7-1.8,2.8
			H374.5z"/>
		<path class="st1" d="M388.3,25.7c0,0.7,0.1,1.3,0.1,1.9h-1.4l-0.1-1.3h0c-0.5,1-1.2,1.5-2.3,1.5c-1.6,0-2.6-0.9-2.6-2.9v-6.3h1.5
			v5.8c0,1.4,0.5,2,1.5,2c1.2,0,1.9-0.8,1.9-2.4v-5.4h1.5V25.7z"/>
		<path class="st1" d="M390.4,20.6c0-0.7-0.1-1.3-0.1-1.9h1.4l0.1,1.3h0c0.5-1,1.2-1.5,2.3-1.5c1.6,0,2.6,0.9,2.6,2.9v6.3h-1.5v-5.8
			c0-1.4-0.5-2-1.5-2c-1.2,0-1.9,0.8-1.9,2.4v5.4h-1.5V20.6z"/>
		<path class="st1" d="M399.3,19.3c0.7-0.5,1.7-0.7,2.5-0.7c1.3,0,2.1,0.6,2.4,0.8c0.4,0.4,0.8,0.9,0.8,2.2v4.7c0,0.5,0,1.1,0.1,1.4
			h-1.3l-0.1-1.2h0c-0.4,0.7-1.1,1.3-2.5,1.3c-1.5,0-2.6-0.9-2.6-2.6c0-1.7,1.1-3,4.2-3h0.9v-0.4c0-0.7-0.1-1.1-0.3-1.4
			c-0.3-0.4-0.9-0.6-1.5-0.6c-0.9,0-1.8,0.4-2.3,0.9L399.3,19.3z M403.6,23.2c-0.3,0-0.6,0-1,0c-1.7,0-2.6,0.8-2.6,1.9
			c0,1,0.5,1.6,1.5,1.6c1.3,0,2.1-1,2.1-2.3V23.2z"/>
		<path class="st1" d="M411.3,20.6c0-0.7-0.1-1.3-0.1-1.9h1.4l0.1,1.4h0c0.5-1.1,1.2-1.5,2.6-1.5V20c-0.2,0-0.4-0.1-0.6-0.1
			c-1.1,0-2,1-2,2.9v4.8h-1.5V20.6z"/>
		<path class="st1" d="M417.7,23.6c0,2.1,0.8,3.1,2.5,3.1c0.7,0,1.6-0.4,2.1-0.7l0.1,1.3c-0.7,0.3-1.6,0.5-2.5,0.5
			c-2.4,0-3.6-1.8-3.6-4.6s1.2-4.6,3.5-4.6c2,0,3.2,1.6,3.2,4.3v0.8H417.7z M421.3,22.5c0-1.9-0.6-2.8-1.8-2.8c-1,0-1.8,0.7-1.8,2.8
			H421.3z"/>
		<path class="st1" d="M430.9,26c0,0.5,0.1,1.1,0.1,1.7h-1.4l-0.1-1.3h0c-0.4,0.7-1.1,1.4-2.4,1.4c-1.9,0-3.1-1.5-3.1-4.6
			s1.3-4.6,3.1-4.6c1,0,1.7,0.4,2.3,1.4h0v-5.5h1.5V26z M427.4,19.7c-1.4,0-2,1.2-2,3.4s0.6,3.4,2,3.4s2-1.2,2-3.4
			S428.8,19.7,427.4,19.7z"/>
		<path class="st1" d="M439.2,25.7c0,0.7,0.1,1.3,0.1,1.9h-1.4l-0.1-1.3h0c-0.5,1-1.2,1.5-2.3,1.5c-1.6,0-2.6-0.9-2.6-2.9v-6.3h1.5
			v5.8c0,1.4,0.5,2,1.5,2c1.2,0,1.9-0.8,1.9-2.4v-5.4h1.5V25.7z"/>
		<path class="st1" d="M446.7,20.2c-0.5-0.3-1-0.4-1.7-0.4c-1.4,0-2.5,1-2.5,3.4c0,2.1,1,3.3,2.4,3.3c0.7,0,1.3-0.2,1.8-0.5l0.1,1.4
			c-0.4,0.2-1.2,0.4-1.9,0.4c-2.7,0-4-2-4-4.5c0-2.9,1.5-4.7,4-4.7c0.6,0,1.3,0.1,1.8,0.4L446.7,20.2z"/>
		<path class="st1" d="M453.6,20.2c-0.5-0.3-1-0.4-1.7-0.4c-1.4,0-2.5,1-2.5,3.4c0,2.1,1,3.3,2.4,3.3c0.7,0,1.3-0.2,1.8-0.5l0.1,1.4
			c-0.4,0.2-1.2,0.4-1.9,0.4c-2.7,0-4-2-4-4.5c0-2.9,1.5-4.7,4-4.7c0.6,0,1.3,0.1,1.8,0.4L453.6,20.2z"/>
		<path class="st1" d="M456.8,14.9v1.8h-1.6v-1.8H456.8z M455.3,18.6h1.5v9h-1.5V18.6z"/>
		<path class="st1" d="M462.2,18.5c2.4,0,3.6,1.8,3.6,4.6s-1.2,4.6-3.6,4.6c-2.4,0-3.6-1.8-3.6-4.6S459.8,18.5,462.2,18.5z
			 M462.2,26.6c1.4,0,2.1-1.2,2.1-3.4s-0.7-3.4-2.1-3.4s-2.1,1.2-2.1,3.4S460.8,26.6,462.2,26.6z M462.5,14.8h1.7l-1.8,2.6h-1.1
			L462.5,14.8z"/>
		<path class="st1" d="M467.6,20.6c0-0.7-0.1-1.3-0.1-1.9h1.4L469,20h0c0.5-1,1.2-1.5,2.3-1.5c1.6,0,2.6,0.9,2.6,2.9v6.3h-1.5v-5.8
			c0-1.4-0.5-2-1.5-2c-1.2,0-1.9,0.8-1.9,2.4v5.4h-1.5V20.6z"/>
		<path class="st1" d="M479.9,25.9c0.7,0.4,1.4,0.7,2.1,0.7c1.1,0,1.7-0.6,1.7-1.3c0-0.6-0.3-1-1.1-1.4l-1-0.4
			c-1.3-0.6-1.8-1.2-1.8-2.3c0-1.5,1.1-2.6,2.9-2.6c0.7,0,1.4,0.1,1.9,0.3l-0.1,1.3c-0.5-0.2-1.1-0.4-1.8-0.4c-1,0-1.5,0.5-1.5,1.2
			c0,0.7,0.5,1.1,1.5,1.5l0.5,0.2c1.1,0.4,1.8,1.2,1.8,2.3c0,1.6-0.8,2.8-2.9,2.8c-0.9,0-1.8-0.2-2.4-0.5L479.9,25.9z"/>
		<path class="st1" d="M488.5,14.9v1.8h-1.6v-1.8H488.5z M487,18.6h1.5v9H487V18.6z"/>
		<path class="st1" d="M497.2,28c0,2.5-1.9,3.5-3.8,3.5c-0.8,0-2-0.3-2.6-0.5l0.1-1.5c0.6,0.4,1.7,0.8,2.5,0.8
			c1.8,0,2.5-1.1,2.5-2.6v-1.4h0c-0.6,1-1.4,1.5-2.4,1.5c-1.9,0-3.1-1.5-3.1-4.6s1.3-4.6,3.3-4.6c0.9,0,1.7,0.6,2.2,1.4h0l0.1-1.3
			h1.4c0,0.5-0.1,1.1-0.1,1.6V28z M493.8,26.6c1.4,0,2-1.2,2-3.4s-0.6-3.4-2-3.4s-2,1.2-2,3.4S492.4,26.6,493.8,26.6z"/>
		<path class="st1" d="M499.2,20.6c0-0.7-0.1-1.3-0.1-1.9h1.4l0.1,1.3h0c0.5-1,1.2-1.5,2.3-1.5c1.6,0,2.6,0.9,2.6,2.9v6.3h-1.5v-5.8
			c0-1.4-0.5-2-1.5-2c-1.2,0-1.9,0.8-1.9,2.4v5.4h-1.5V20.6z"/>
		<path class="st1" d="M509.5,14.9v1.8h-1.6v-1.8H509.5z M507.9,18.6h1.5v9h-1.5V18.6z"/>
		<path class="st1" d="M512.3,19.8h-1.4v-1.2h1.4v-2c0-1.5,0.7-2.4,2.2-2.4c0.4,0,0.8,0.1,1.2,0.1v1.3c-0.2-0.1-0.5-0.2-0.8-0.2
			c-0.8,0-1.1,0.5-1.1,1.4v1.9h1.6v1.2h-1.6v7.8h-1.5V19.8z M518.3,14.9v1.8h-1.6v-1.8H518.3z M516.7,18.6h1.5v9h-1.5V18.6z"/>
		<path class="st1" d="M525.8,20.2c-0.5-0.3-1-0.4-1.7-0.4c-1.4,0-2.5,1-2.5,3.4c0,2.1,1,3.3,2.4,3.3c0.7,0,1.3-0.2,1.8-0.5l0.1,1.4
			c-0.4,0.2-1.2,0.4-1.9,0.4c-2.7,0-4-2-4-4.5c0-2.9,1.5-4.7,4-4.7c0.6,0,1.3,0.1,1.8,0.4L525.8,20.2z"/>
		<path class="st1" d="M527.7,19.3c0.7-0.5,1.7-0.7,2.5-0.7c1.3,0,2.1,0.6,2.4,0.8c0.4,0.4,0.8,0.9,0.8,2.2v4.7c0,0.5,0,1.1,0.1,1.4
			h-1.3l-0.1-1.2h0c-0.4,0.7-1.1,1.3-2.5,1.3c-1.5,0-2.6-0.9-2.6-2.6c0-1.7,1.1-3,4.2-3h0.9v-0.4c0-0.7-0.1-1.1-0.3-1.4
			c-0.3-0.4-0.9-0.6-1.5-0.6c-0.9,0-1.8,0.4-2.3,0.9L527.7,19.3z M532,23.2c-0.3,0-0.6,0-1,0c-1.7,0-2.6,0.8-2.6,1.9
			c0,1,0.5,1.6,1.5,1.6c1.3,0,2.1-1,2.1-2.3V23.2z"/>
		<path class="st1" d="M539.5,27.5c-0.4,0.1-0.8,0.2-1.3,0.2c-1.4,0-2.1-0.5-2.1-2.1v-5.8h-1.4v-1.2h1.4v-1.8l1.5-0.4v2.3h1.9v1.2
			h-1.9v5.3c0,1,0.3,1.4,0.9,1.4c0.4,0,0.6-0.1,0.9-0.2V27.5z"/>
		<path class="st1" d="M542.5,14.9v1.8h-1.6v-1.8H542.5z M540.9,18.6h1.5v9h-1.5V18.6z"/>
		<path class="st1" d="M543.8,18.6h1.6l2,7.5h0l2-7.5h1.6l-2.7,9h-1.8L543.8,18.6z"/>
		<path class="st1" d="M552.2,19.3c0.7-0.5,1.7-0.7,2.5-0.7c1.3,0,2.1,0.6,2.4,0.8c0.4,0.4,0.8,0.9,0.8,2.2v4.7c0,0.5,0,1.1,0.1,1.4
			h-1.3l-0.1-1.2h0c-0.4,0.7-1.1,1.3-2.5,1.3c-1.5,0-2.6-0.9-2.6-2.6c0-1.7,1.1-3,4.2-3h0.9v-0.4c0-0.7-0.1-1.1-0.3-1.4
			c-0.3-0.4-0.9-0.6-1.5-0.6c-0.9,0-1.8,0.4-2.3,0.9L552.2,19.3z M556.6,23.2c-0.3,0-0.6,0-1,0c-1.7,0-2.6,0.8-2.6,1.9
			c0,1,0.5,1.6,1.5,1.6c1.3,0,2.1-1,2.1-2.3V23.2z"/>
		<path class="st1" d="M324.8,44.8c0,2.1,0.8,3.1,2.5,3.1c0.7,0,1.6-0.4,2.1-0.7l0.1,1.3c-0.7,0.3-1.6,0.5-2.5,0.5
			c-2.4,0-3.6-1.8-3.6-4.6c0-2.8,1.2-4.6,3.5-4.6c2,0,3.2,1.6,3.2,4.3v0.8H324.8z M328.5,43.6c0-1.9-0.6-2.8-1.8-2.8
			c-1,0-1.8,0.7-1.8,2.8H328.5z"/>
		<path class="st1" d="M331.6,41.8c0-0.7-0.1-1.3-0.1-1.9h1.4l0.1,1.3h0c0.5-1,1.2-1.5,2.3-1.5c1.6,0,2.6,0.9,2.6,2.9v6.3h-1.5V43
			c0-1.4-0.5-2-1.5-2c-1.2,0-1.9,0.8-1.9,2.4v5.4h-1.5V41.8z"/>
		<path class="st1" d="M344.5,35.6h1.5v13.2h-1.5V35.6z"/>
		<path class="st1" d="M348.6,40.4c0.7-0.5,1.7-0.7,2.5-0.7c1.3,0,2.1,0.6,2.4,0.8c0.4,0.4,0.8,0.9,0.8,2.2v4.7c0,0.5,0,1.1,0.1,1.4
			H353l-0.1-1.2h0c-0.4,0.7-1.1,1.3-2.5,1.3c-1.5,0-2.6-0.9-2.6-2.6c0-1.7,1.1-3,4.2-3h0.9v-0.4c0-0.7-0.1-1.1-0.3-1.4
			c-0.3-0.4-0.9-0.6-1.5-0.6c-0.9,0-1.8,0.4-2.3,0.9L348.6,40.4z M352.9,44.4c-0.3,0-0.6,0-1,0c-1.7,0-2.6,0.8-2.6,1.9
			c0,1,0.5,1.6,1.5,1.6c1.3,0,2.1-1,2.1-2.3V44.4z"/>
		<path class="st1" d="M361.8,44.8c0,2.1,0.8,3.1,2.5,3.1c0.7,0,1.6-0.4,2.1-0.7l0.1,1.3c-0.7,0.3-1.6,0.5-2.5,0.5
			c-2.4,0-3.6-1.8-3.6-4.6c0-2.8,1.2-4.6,3.5-4.6c2,0,3.2,1.6,3.2,4.3v0.8H361.8z M365.4,43.6c0-1.9-0.6-2.8-1.8-2.8
			c-1,0-1.8,0.7-1.8,2.8H365.4z"/>
		<path class="st1" d="M368.1,47.1c0.7,0.4,1.4,0.7,2.1,0.7c1.1,0,1.7-0.6,1.7-1.3c0-0.6-0.3-1-1.1-1.4l-1-0.4
			c-1.3-0.6-1.8-1.2-1.8-2.3c0-1.5,1.1-2.6,2.9-2.6c0.7,0,1.4,0.1,1.9,0.3l-0.1,1.3c-0.5-0.2-1.1-0.4-1.8-0.4c-1,0-1.5,0.5-1.5,1.2
			c0,0.7,0.5,1.1,1.5,1.5l0.5,0.2c1.1,0.4,1.8,1.2,1.8,2.3c0,1.6-0.8,2.8-2.9,2.8c-0.9,0-1.8-0.2-2.4-0.5L368.1,47.1z"/>
		<path class="st1" d="M380.3,41.4c-0.5-0.3-1-0.4-1.7-0.4c-1.4,0-2.5,1-2.5,3.4c0,2.1,1,3.3,2.4,3.3c0.7,0,1.3-0.2,1.8-0.5l0.1,1.4
			c-0.4,0.2-1.2,0.4-1.9,0.4c-2.7,0-4-2-4-4.5c0-2.9,1.5-4.7,4-4.7c0.6,0,1.3,0.1,1.8,0.4L380.3,41.4z"/>
		<path class="st1" d="M382.2,40.4c0.7-0.5,1.7-0.7,2.5-0.7c1.3,0,2.1,0.6,2.4,0.8c0.4,0.4,0.8,0.9,0.8,2.2v4.7c0,0.5,0,1.1,0.1,1.4
			h-1.3l-0.1-1.2h0c-0.4,0.7-1.1,1.3-2.5,1.3c-1.5,0-2.6-0.9-2.6-2.6c0-1.7,1.1-3,4.2-3h0.9v-0.4c0-0.7-0.1-1.1-0.3-1.4
			c-0.3-0.4-0.9-0.6-1.5-0.6c-0.9,0-1.8,0.4-2.3,0.9L382.2,40.4z M386.5,44.4c-0.3,0-0.6,0-1,0c-1.7,0-2.6,0.8-2.6,1.9
			c0,1,0.5,1.6,1.5,1.6c1.3,0,2.1-1,2.1-2.3V44.4z"/>
		<path class="st1" d="M390.2,35.6h1.5v13.2h-1.5V35.6z"/>
		<path class="st1" d="M394.3,40.4c0.7-0.5,1.7-0.7,2.5-0.7c1.3,0,2.1,0.6,2.4,0.8c0.4,0.4,0.8,0.9,0.8,2.2v4.7c0,0.5,0,1.1,0.1,1.4
			h-1.3l-0.1-1.2h0c-0.4,0.7-1.1,1.3-2.5,1.3c-1.5,0-2.6-0.9-2.6-2.6c0-1.7,1.1-3,4.2-3h0.9v-0.4c0-0.7-0.1-1.1-0.3-1.4
			c-0.3-0.4-0.9-0.6-1.5-0.6c-0.9,0-1.8,0.4-2.3,0.9L394.3,40.4z M398.6,44.4c-0.3,0-0.6,0-1,0c-1.7,0-2.6,0.8-2.6,1.9
			c0,1,0.5,1.6,1.5,1.6c1.3,0,2.1-1,2.1-2.3V44.4z"/>
		<path class="st1" d="M412.9,47.2c0,0.5,0.1,1.1,0.1,1.7h-1.4l-0.1-1.3h0c-0.4,0.7-1.1,1.4-2.4,1.4c-1.9,0-3.1-1.5-3.1-4.6
			s1.3-4.6,3.1-4.6c1,0,1.7,0.4,2.3,1.4h0v-5.5h1.5V47.2z M409.4,40.9c-1.4,0-2,1.2-2,3.4s0.6,3.4,2,3.4s2-1.2,2-3.4
			S410.8,40.9,409.4,40.9z"/>
		<path class="st1" d="M416,44.8c0,2.1,0.8,3.1,2.5,3.1c0.7,0,1.6-0.4,2.1-0.7l0.1,1.3c-0.7,0.3-1.6,0.5-2.5,0.5
			c-2.4,0-3.6-1.8-3.6-4.6c0-2.8,1.2-4.6,3.5-4.6c2,0,3.2,1.6,3.2,4.3v0.8H416z M419.6,43.6c0-1.9-0.6-2.8-1.8-2.8
			c-1,0-1.8,0.7-1.8,2.8H419.6z"/>
		<path class="st1" d="M427.3,40.4c0.7-0.5,1.7-0.7,2.5-0.7c1.3,0,2.1,0.6,2.4,0.8c0.4,0.4,0.8,0.9,0.8,2.2v4.7c0,0.5,0,1.1,0.1,1.4
			h-1.3l-0.1-1.2h0c-0.4,0.7-1.1,1.3-2.5,1.3c-1.5,0-2.6-0.9-2.6-2.6c0-1.7,1.1-3,4.2-3h0.9v-0.4c0-0.7-0.1-1.1-0.3-1.4
			c-0.3-0.4-0.9-0.6-1.5-0.6c-0.9,0-1.8,0.4-2.3,0.9L427.3,40.4z M431.6,44.4c-0.3,0-0.6,0-1,0c-1.7,0-2.6,0.8-2.6,1.9
			c0,1,0.5,1.6,1.5,1.6c1.3,0,2.1-1,2.1-2.3V44.4z"/>
		<path class="st1" d="M435.1,41.8c0-0.7-0.1-1.3-0.1-1.9h1.4l0.1,1.3h0c0.5-1,1.2-1.5,2.3-1.5c1.6,0,2.6,0.9,2.6,2.9v6.3H440V43
			c0-1.4-0.5-2-1.5-2c-1.2,0-1.9,0.8-1.9,2.4v5.4h-1.5V41.8z"/>
		<path class="st1" d="M443.3,47.1c0.7,0.4,1.4,0.7,2.1,0.7c1.1,0,1.7-0.6,1.7-1.3c0-0.6-0.3-1-1.1-1.4l-1-0.4
			c-1.3-0.6-1.8-1.2-1.8-2.3c0-1.5,1.1-2.6,2.9-2.6c0.7,0,1.4,0.1,1.9,0.3l-0.1,1.3c-0.5-0.2-1.1-0.4-1.8-0.4c-1,0-1.5,0.5-1.5,1.2
			c0,0.7,0.5,1.1,1.5,1.5l0.5,0.2c1.1,0.4,1.8,1.2,1.8,2.3c0,1.6-0.8,2.8-2.9,2.8c-0.9,0-1.8-0.2-2.4-0.5L443.3,47.1z"/>
		<path class="st1" d="M451.9,36.1v1.8h-1.6v-1.8H451.9z M450.3,39.8h1.5v9h-1.5V39.8z"/>
		<path class="st1" d="M455.2,44.8c0,2.1,0.8,3.1,2.5,3.1c0.7,0,1.6-0.4,2.1-0.7l0.1,1.3c-0.7,0.3-1.6,0.5-2.5,0.5
			c-2.4,0-3.6-1.8-3.6-4.6c0-2.8,1.2-4.6,3.5-4.6c2,0,3.2,1.6,3.2,4.3v0.8H455.2z M458.8,43.6c0-1.9-0.6-2.8-1.8-2.8
			c-1,0-1.8,0.7-1.8,2.8H458.8z"/>
		<path class="st1" d="M468.4,47.2c0,0.5,0.1,1.1,0.1,1.7h-1.4l-0.1-1.3h0c-0.4,0.7-1.1,1.4-2.4,1.4c-1.9,0-3.1-1.5-3.1-4.6
			s1.3-4.6,3.1-4.6c1,0,1.7,0.4,2.3,1.4h0v-5.5h1.5V47.2z M464.9,40.9c-1.4,0-2,1.2-2,3.4s0.6,3.4,2,3.4s2-1.2,2-3.4
			S466.3,40.9,464.9,40.9z"/>
		<path class="st1" d="M470.8,40.4c0.7-0.5,1.7-0.7,2.5-0.7c1.3,0,2.1,0.6,2.4,0.8c0.4,0.4,0.8,0.9,0.8,2.2v4.7c0,0.5,0,1.1,0.1,1.4
			h-1.3l-0.1-1.2h0c-0.4,0.7-1.1,1.3-2.5,1.3c-1.5,0-2.6-0.9-2.6-2.6c0-1.7,1.1-3,4.2-3h0.9v-0.4c0-0.7-0.1-1.1-0.3-1.4
			c-0.3-0.4-0.9-0.6-1.5-0.6c-0.9,0-1.8,0.4-2.3,0.9L470.8,40.4z M475.1,44.4c-0.3,0-0.6,0-1,0c-1.7,0-2.6,0.8-2.6,1.9
			c0,1,0.5,1.6,1.5,1.6c1.3,0,2.1-1,2.1-2.3V44.4z"/>
		<path class="st1" d="M485.1,47.2c0,0.5,0.1,1.1,0.1,1.7h-1.4l-0.1-1.3h0c-0.4,0.7-1.1,1.4-2.4,1.4c-1.9,0-3.1-1.5-3.1-4.6
			s1.3-4.6,3.1-4.6c1,0,1.7,0.4,2.3,1.4h0v-5.5h1.5V47.2z M481.6,40.9c-1.4,0-2,1.2-2,3.4s0.6,3.4,2,3.4s2-1.2,2-3.4
			S483,40.9,481.6,40.9z"/>
		<path class="st1" d="M497.8,47.2c0,0.5,0.1,1.1,0.1,1.7h-1.4l-0.1-1.3h0c-0.4,0.7-1.1,1.4-2.4,1.4c-1.9,0-3.1-1.5-3.1-4.6
			s1.3-4.6,3.1-4.6c1,0,1.7,0.4,2.3,1.4h0v-5.5h1.5V47.2z M494.3,40.9c-1.4,0-2,1.2-2,3.4s0.6,3.4,2,3.4s2-1.2,2-3.4
			S495.7,40.9,494.3,40.9z"/>
		<path class="st1" d="M500.9,44.8c0,2.1,0.8,3.1,2.5,3.1c0.7,0,1.6-0.4,2.1-0.7l0.1,1.3c-0.7,0.3-1.6,0.5-2.5,0.5
			c-2.4,0-3.6-1.8-3.6-4.6c0-2.8,1.2-4.6,3.5-4.6c2,0,3.2,1.6,3.2,4.3v0.8H500.9z M504.5,43.6c0-1.9-0.6-2.8-1.8-2.8
			c-1,0-1.8,0.7-1.8,2.8H504.5z"/>
		<path class="st1" d="M512.2,36.5h1.6v5.3h4.3v-5.3h1.6v12.3H518v-5.7h-4.3v5.7h-1.6V36.5z"/>
		<path class="st1" d="M522.4,40.4c0.7-0.5,1.7-0.7,2.5-0.7c1.3,0,2.1,0.6,2.4,0.8c0.4,0.4,0.8,0.9,0.8,2.2v4.7c0,0.5,0,1.1,0.1,1.4
			h-1.3l-0.1-1.2h0c-0.4,0.7-1.1,1.3-2.5,1.3c-1.5,0-2.6-0.9-2.6-2.6c0-1.7,1.1-3,4.2-3h0.9v-0.4c0-0.7-0.1-1.1-0.3-1.4
			c-0.3-0.4-0.9-0.6-1.5-0.6c-0.9,0-1.8,0.4-2.3,0.9L522.4,40.4z M526.7,44.4c-0.3,0-0.6,0-1,0c-1.7,0-2.6,0.8-2.6,1.9
			c0,1,0.5,1.6,1.5,1.6c1.3,0,2.1-1,2.1-2.3V44.4z"/>
		<path class="st1" d="M530.2,41.8c0-0.7-0.1-1.3-0.1-1.9h1.4l0.1,1.3h0c0.5-1,1.2-1.5,2.2-1.5c1,0,1.7,0.5,2.1,1.4
			c0.5-0.9,1.2-1.4,2.2-1.4c1.6,0,2.6,0.9,2.6,2.9v6.3h-1.5v-6.2c0-1.1-0.5-1.7-1.4-1.7c-1.1,0-1.7,0.7-1.7,2.3v5.6h-1.5v-6.2
			c0-1.1-0.5-1.7-1.4-1.7c-1.1,0-1.7,0.7-1.7,2.3v5.6h-1.5V41.8z"/>
		<path class="st1" d="M544.6,36.1v1.8H543v-1.8H544.6z M543.1,39.8h1.5v9h-1.5V39.8z"/>
		<path class="st1" d="M547,35.6h1.5v13.2H547V35.6z"/>
		<path class="st1" d="M554.8,48.7c-0.4,0.1-0.8,0.2-1.3,0.2c-1.4,0-2.1-0.5-2.1-2.1V41H550v-1.2h1.4V38l1.5-0.4v2.3h1.9V41h-1.9
			v5.3c0,1,0.3,1.4,0.9,1.4c0.4,0,0.6-0.1,0.9-0.2V48.7z"/>
		<path class="st1" d="M559.2,39.7c2.4,0,3.6,1.8,3.6,4.6c0,2.8-1.2,4.6-3.6,4.6c-2.4,0-3.6-1.8-3.6-4.6
			C555.6,41.5,556.8,39.7,559.2,39.7z M559.2,47.8c1.4,0,2.1-1.2,2.1-3.4s-0.7-3.4-2.1-3.4s-2.1,1.2-2.1,3.4S557.8,47.8,559.2,47.8z
			"/>
		<path class="st1" d="M564.5,41.8c0-0.7-0.1-1.3-0.1-1.9h1.4l0.1,1.3h0c0.5-1,1.2-1.5,2.3-1.5c1.6,0,2.6,0.9,2.6,2.9v6.3h-1.5V43
			c0-1.4-0.5-2-1.5-2c-1.2,0-1.9,0.8-1.9,2.4v5.4h-1.5V41.8z"/>
		<path class="st1" d="M330.2,68.4c0,0.5,0.1,1.1,0.1,1.7h-1.4l-0.1-1.3h0c-0.4,0.7-1.1,1.4-2.4,1.4c-1.9,0-3.1-1.5-3.1-4.6
			c0-3.1,1.3-4.6,3.1-4.6c1,0,1.7,0.4,2.3,1.4h0v-5.5h1.5V68.4z M326.8,62.1c-1.4,0-2,1.2-2,3.4c0,2.3,0.6,3.4,2,3.4s2-1.2,2-3.4
			C328.7,63.3,328.1,62.1,326.8,62.1z"/>
		<path class="st1" d="M333.3,66c0,2.1,0.8,3.1,2.5,3.1c0.7,0,1.6-0.4,2.1-0.7l0.1,1.3c-0.7,0.3-1.6,0.5-2.5,0.5
			c-2.4,0-3.6-1.8-3.6-4.6c0-2.8,1.2-4.6,3.5-4.6c2,0,3.2,1.6,3.2,4.3V66H333.3z M336.9,64.8c0-1.9-0.6-2.8-1.8-2.8
			c-1,0-1.8,0.7-1.8,2.8H336.9z"/>
		<path class="st1" d="M339.7,68.3c0.7,0.4,1.4,0.7,2.1,0.7c1.1,0,1.7-0.6,1.7-1.3c0-0.6-0.3-1-1.1-1.4l-1-0.4
			c-1.3-0.6-1.8-1.2-1.8-2.3c0-1.5,1.1-2.6,2.9-2.6c0.7,0,1.4,0.1,1.9,0.3l-0.1,1.3c-0.5-0.2-1.1-0.4-1.8-0.4c-1,0-1.5,0.5-1.5,1.2
			c0,0.7,0.5,1.1,1.5,1.5l0.5,0.2c1.1,0.4,1.8,1.2,1.8,2.3c0,1.6-0.8,2.8-2.9,2.8c-0.9,0-1.8-0.2-2.4-0.5L339.7,68.3z"/>
		<path class="st1" d="M346.5,62.7c0-0.5-0.1-1.1-0.1-1.7h1.4l0.1,1.3h0c0.4-0.7,1.1-1.4,2.4-1.4c1.9,0,3.1,1.5,3.1,4.6
			c0,3.1-1.3,4.6-3.1,4.6c-1,0-1.7-0.4-2.3-1.4h0v5h-1.5V62.7z M349.9,68.9c1.4,0,2-1.2,2-3.4c0-2.3-0.6-3.4-2-3.4s-2,1.2-2,3.4
			C347.9,67.8,348.6,68.9,349.9,68.9z"/>
		<path class="st1" d="M361.4,68.1c0,0.7,0.1,1.3,0.1,1.9h-1.4l-0.1-1.3h0c-0.5,1-1.2,1.5-2.3,1.5c-1.6,0-2.6-0.9-2.6-2.9V61h1.5
			v5.8c0,1.4,0.5,2,1.5,2c1.2,0,1.9-0.8,1.9-2.4V61h1.5V68.1z"/>
		<path class="st1" d="M364.7,66c0,2.1,0.8,3.1,2.5,3.1c0.7,0,1.6-0.4,2.1-0.7l0.1,1.3c-0.7,0.3-1.6,0.5-2.5,0.5
			c-2.4,0-3.6-1.8-3.6-4.6c0-2.8,1.2-4.6,3.5-4.6c2,0,3.2,1.6,3.2,4.3V66H364.7z M368.3,64.8c0-1.9-0.6-2.8-1.8-2.8
			c-1,0-1.8,0.7-1.8,2.8H368.3z M366.7,57.2h1.7l-1.8,2.6h-1.1L366.7,57.2z"/>
		<path class="st1" d="M371,68.3c0.7,0.4,1.4,0.7,2.1,0.7c1.1,0,1.7-0.6,1.7-1.3c0-0.6-0.3-1-1.1-1.4l-1-0.4
			c-1.3-0.6-1.8-1.2-1.8-2.3c0-1.5,1.1-2.6,2.9-2.6c0.7,0,1.4,0.1,1.9,0.3l-0.1,1.3c-0.5-0.2-1.1-0.4-1.8-0.4c-1,0-1.5,0.5-1.5,1.2
			c0,0.7,0.5,1.1,1.5,1.5l0.5,0.2c1.1,0.4,1.8,1.2,1.8,2.3c0,1.6-0.8,2.8-2.9,2.8c-0.9,0-1.8-0.2-2.4-0.5L371,68.3z"/>
		<path class="st1" d="M388.7,68.4c0,0.5,0.1,1.1,0.1,1.7h-1.4l-0.1-1.3h0c-0.4,0.7-1.1,1.4-2.4,1.4c-1.9,0-3.1-1.5-3.1-4.6
			c0-3.1,1.3-4.6,3.1-4.6c1,0,1.7,0.4,2.3,1.4h0v-5.5h1.5V68.4z M385.2,62.1c-1.4,0-2,1.2-2,3.4c0,2.3,0.6,3.4,2,3.4s2-1.2,2-3.4
			C387.2,63.3,386.6,62.1,385.2,62.1z"/>
		<path class="st1" d="M391.8,66c0,2.1,0.8,3.1,2.5,3.1c0.7,0,1.6-0.4,2.1-0.7l0.1,1.3c-0.7,0.3-1.6,0.5-2.5,0.5
			c-2.4,0-3.6-1.8-3.6-4.6c0-2.8,1.2-4.6,3.5-4.6c2,0,3.2,1.6,3.2,4.3V66H391.8z M395.4,64.8c0-1.9-0.6-2.8-1.8-2.8
			c-1,0-1.8,0.7-1.8,2.8H395.4z"/>
		<path class="st1" d="M406.9,67.2h-4.8v-1.5l4.4-8.1h1.9V66h1.3v1.3h-1.3V70h-1.5V67.2z M406.9,59.2L406.9,59.2l-3.5,6.7h3.5V59.2z
			"/>
		<path class="st1" d="M415.1,68.3c0.7,0.4,1.4,0.7,2.1,0.7c1.1,0,1.7-0.6,1.7-1.3c0-0.6-0.3-1-1.1-1.4l-1-0.4
			c-1.3-0.6-1.8-1.2-1.8-2.3c0-1.5,1.1-2.6,2.9-2.6c0.7,0,1.4,0.1,1.9,0.3l-0.1,1.3c-0.5-0.2-1.1-0.4-1.8-0.4c-1,0-1.5,0.5-1.5,1.2
			c0,0.7,0.5,1.1,1.5,1.5l0.5,0.2c1.1,0.4,1.8,1.2,1.8,2.3c0,1.6-0.8,2.8-2.9,2.8c-0.9,0-1.8-0.2-2.4-0.5L415.1,68.3z"/>
		<path class="st1" d="M423.1,66c0,2.1,0.8,3.1,2.5,3.1c0.7,0,1.6-0.4,2.1-0.7l0.1,1.3c-0.7,0.3-1.6,0.5-2.5,0.5
			c-2.4,0-3.6-1.8-3.6-4.6c0-2.8,1.2-4.6,3.5-4.6c2,0,3.2,1.6,3.2,4.3V66H423.1z M426.7,64.8c0-1.9-0.6-2.8-1.8-2.8
			c-1,0-1.8,0.7-1.8,2.8H426.7z"/>
		<path class="st1" d="M429.9,63c0-0.7-0.1-1.3-0.1-1.9h1.4l0.1,1.3h0c0.5-1,1.2-1.5,2.2-1.5c1,0,1.7,0.5,2.1,1.4
			c0.5-0.9,1.2-1.4,2.2-1.4c1.6,0,2.6,0.9,2.6,2.9V70H439v-6.2c0-1.1-0.5-1.7-1.4-1.7c-1.1,0-1.7,0.7-1.7,2.3V70h-1.5v-6.2
			c0-1.1-0.5-1.7-1.4-1.7c-1.1,0-1.7,0.7-1.7,2.3V70h-1.5V63z"/>
		<path class="st1" d="M443,61.6c0.7-0.5,1.7-0.7,2.5-0.7c1.3,0,2.1,0.6,2.4,0.8c0.4,0.4,0.8,0.9,0.8,2.2v4.7c0,0.5,0,1.1,0.1,1.4
			h-1.3l-0.1-1.2h0c-0.4,0.7-1.1,1.3-2.5,1.3c-1.5,0-2.6-0.9-2.6-2.6c0-1.7,1.1-3,4.2-3h0.9v-0.4c0-0.7-0.1-1.1-0.3-1.4
			c-0.3-0.4-0.9-0.6-1.5-0.6c-0.9,0-1.8,0.4-2.3,0.9L443,61.6z M447.3,65.6c-0.3,0-0.6,0-1,0c-1.7,0-2.6,0.8-2.6,1.9
			c0,1,0.5,1.6,1.5,1.6c1.3,0,2.1-1,2.1-2.3V65.6z"/>
		<path class="st1" d="M450.8,63c0-0.7-0.1-1.3-0.1-1.9h1.4l0.1,1.3h0c0.5-1,1.2-1.5,2.3-1.5c1.6,0,2.6,0.9,2.6,2.9V70h-1.5v-5.8
			c0-1.4-0.5-2-1.5-2c-1.2,0-1.9,0.8-1.9,2.4V70h-1.5V63z"/>
		<path class="st1" d="M459.6,61.6c0.7-0.5,1.7-0.7,2.5-0.7c1.3,0,2.1,0.6,2.4,0.8c0.4,0.4,0.8,0.9,0.8,2.2v4.7c0,0.5,0,1.1,0.1,1.4
			h-1.3l-0.1-1.2h0c-0.4,0.7-1.1,1.3-2.5,1.3c-1.5,0-2.6-0.9-2.6-2.6c0-1.7,1.1-3,4.2-3h0.9v-0.4c0-0.7-0.1-1.1-0.3-1.4
			c-0.3-0.4-0.9-0.6-1.5-0.6c-0.9,0-1.8,0.4-2.3,0.9L459.6,61.6z M463.9,65.6c-0.3,0-0.6,0-1,0c-1.7,0-2.6,0.8-2.6,1.9
			c0,1,0.5,1.6,1.5,1.6c1.3,0,2.1-1,2.1-2.3V65.6z"/>
		<path class="st1" d="M467.1,68.3c0.7,0.4,1.4,0.7,2.1,0.7c1.1,0,1.7-0.6,1.7-1.3c0-0.6-0.3-1-1.1-1.4l-1-0.4
			c-1.3-0.6-1.8-1.2-1.8-2.3c0-1.5,1.1-2.6,2.9-2.6c0.7,0,1.4,0.1,1.9,0.3l-0.1,1.3c-0.5-0.2-1.1-0.4-1.8-0.4c-1,0-1.5,0.5-1.5,1.2
			c0,0.7,0.5,1.1,1.5,1.5l0.5,0.2c1.1,0.4,1.8,1.2,1.8,2.3c0,1.6-0.8,2.8-2.9,2.8c-0.9,0-1.8-0.2-2.4-0.5L467.1,68.3z"/>
		<path class="st1" d="M484.7,68.4c0,0.5,0.1,1.1,0.1,1.7h-1.4l-0.1-1.3h0c-0.4,0.7-1.1,1.4-2.4,1.4c-1.9,0-3.1-1.5-3.1-4.6
			c0-3.1,1.3-4.6,3.1-4.6c1,0,1.7,0.4,2.3,1.4h0v-5.5h1.5V68.4z M481.2,62.1c-1.4,0-2,1.2-2,3.4c0,2.3,0.6,3.4,2,3.4s2-1.2,2-3.4
			C483.2,63.3,482.6,62.1,481.2,62.1z"/>
		<path class="st1" d="M487.8,66c0,2.1,0.8,3.1,2.5,3.1c0.7,0,1.6-0.4,2.1-0.7l0.1,1.3c-0.7,0.3-1.6,0.5-2.5,0.5
			c-2.4,0-3.6-1.8-3.6-4.6c0-2.8,1.2-4.6,3.5-4.6c2,0,3.2,1.6,3.2,4.3V66H487.8z M491.4,64.8c0-1.9-0.6-2.8-1.8-2.8
			c-1,0-1.8,0.7-1.8,2.8H491.4z"/>
		<path class="st1" d="M502.8,69.9c-0.4,0.1-0.8,0.2-1.3,0.2c-1.4,0-2.1-0.5-2.1-2.1v-5.8H498V61h1.4v-1.8l1.5-0.4V61h1.9v1.2h-1.9
			v5.3c0,1,0.3,1.4,0.9,1.4c0.4,0,0.6-0.1,0.9-0.2V69.9z"/>
		<path class="st1" d="M504,63c0-0.7-0.1-1.3-0.1-1.9h1.4l0.1,1.4h0c0.5-1.1,1.2-1.5,2.6-1.5v1.5c-0.2,0-0.4-0.1-0.6-0.1
			c-1.1,0-2,1-2,2.9V70H504V63z"/>
		<path class="st1" d="M509.6,61.6c0.7-0.5,1.7-0.7,2.5-0.7c1.3,0,2.1,0.6,2.4,0.8c0.4,0.4,0.8,0.9,0.8,2.2v4.7c0,0.5,0,1.1,0.1,1.4
			H514l-0.1-1.2h0c-0.4,0.7-1.1,1.3-2.5,1.3c-1.5,0-2.6-0.9-2.6-2.6c0-1.7,1.1-3,4.2-3h0.9v-0.4c0-0.7-0.1-1.1-0.3-1.4
			c-0.3-0.4-0.9-0.6-1.5-0.6c-0.9,0-1.8,0.4-2.3,0.9L509.6,61.6z M513.9,65.6c-0.3,0-0.6,0-1,0c-1.7,0-2.6,0.8-2.6,1.9
			c0,1,0.5,1.6,1.5,1.6c1.3,0,2.1-1,2.1-2.3V65.6z"/>
		<path class="st1" d="M521.4,69.9c-0.4,0.1-0.8,0.2-1.3,0.2c-1.4,0-2.1-0.5-2.1-2.1v-5.8h-1.4V61h1.4v-1.8l1.5-0.4V61h1.9v1.2h-1.9
			v5.3c0,1,0.3,1.4,0.9,1.4c0.4,0,0.6-0.1,0.9-0.2V69.9z"/>
		<path class="st1" d="M523,61.6c0.7-0.5,1.7-0.7,2.5-0.7c1.3,0,2.1,0.6,2.4,0.8c0.4,0.4,0.8,0.9,0.8,2.2v4.7c0,0.5,0,1.1,0.1,1.4
			h-1.3l-0.1-1.2h0c-0.4,0.7-1.1,1.3-2.5,1.3c-1.5,0-2.6-0.9-2.6-2.6c0-1.7,1.1-3,4.2-3h0.9v-0.4c0-0.7-0.1-1.1-0.3-1.4
			c-0.3-0.4-0.9-0.6-1.5-0.6c-0.9,0-1.8,0.4-2.3,0.9L523,61.6z M527.3,65.6c-0.3,0-0.6,0-1,0c-1.7,0-2.6,0.8-2.6,1.9
			c0,1,0.5,1.6,1.5,1.6c1.3,0,2.1-1,2.1-2.3V65.6z"/>
		<path class="st1" d="M530.8,63c0-0.7-0.1-1.3-0.1-1.9h1.4l0.1,1.3h0c0.5-1,1.2-1.5,2.2-1.5c1,0,1.7,0.5,2.1,1.4
			c0.5-0.9,1.2-1.4,2.2-1.4c1.6,0,2.6,0.9,2.6,2.9V70h-1.5v-6.2c0-1.1-0.5-1.7-1.4-1.7c-1.1,0-1.7,0.7-1.7,2.3V70h-1.5v-6.2
			c0-1.1-0.5-1.7-1.4-1.7c-1.1,0-1.7,0.7-1.7,2.3V70h-1.5V63z"/>
		<path class="st1" d="M545.3,57.3v1.8h-1.6v-1.8H545.3z M543.7,61h1.5v9h-1.5V61z"/>
		<path class="st1" d="M548.6,66c0,2.1,0.8,3.1,2.5,3.1c0.7,0,1.6-0.4,2.1-0.7l0.1,1.3c-0.7,0.3-1.6,0.5-2.5,0.5
			c-2.4,0-3.6-1.8-3.6-4.6c0-2.8,1.2-4.6,3.5-4.6c2,0,3.2,1.6,3.2,4.3V66H548.6z M552.2,64.8c0-1.9-0.6-2.8-1.8-2.8
			c-1,0-1.8,0.7-1.8,2.8H552.2z"/>
		<path class="st1" d="M555.3,63c0-0.7-0.1-1.3-0.1-1.9h1.4l0.1,1.3h0c0.5-1,1.2-1.5,2.3-1.5c1.6,0,2.6,0.9,2.6,2.9V70h-1.5v-5.8
			c0-1.4-0.5-2-1.5-2c-1.2,0-1.9,0.8-1.9,2.4V70h-1.5V63z"/>
		<path class="st1" d="M567.8,69.9c-0.4,0.1-0.8,0.2-1.3,0.2c-1.4,0-2.1-0.5-2.1-2.1v-5.8H563V61h1.4v-1.8l1.5-0.4V61h1.9v1.2h-1.9
			v5.3c0,1,0.3,1.4,0.9,1.4c0.4,0,0.6-0.1,0.9-0.2V69.9z"/>
		<path class="st1" d="M572.2,60.9c2.4,0,3.6,1.8,3.6,4.6c0,2.8-1.2,4.6-3.6,4.6c-2.4,0-3.6-1.8-3.6-4.6
			C568.6,62.7,569.8,60.9,572.2,60.9z M572.2,68.9c1.4,0,2.1-1.2,2.1-3.4c0-2.3-0.7-3.4-2.1-3.4s-2.1,1.2-2.1,3.4
			C570.2,67.8,570.8,68.9,572.2,68.9z"/>
		<path class="st1" d="M579.5,62.5h-2.8v-0.9l2.6-4.7h1.1v4.8h0.8v0.7h-0.8v1.6h-0.9V62.5z M579.5,57.9L579.5,57.9l-2.1,3.9h2.1
			V57.9z"/>
	</g>
</g>
<g>
	<g>
		<path class="st1" d="M20.2,123H16l-0.9,3h-2.3l4.1-12.3h2.5l4,12.3h-2.3L20.2,123z M19.7,121.3l-1.6-5.8h0l-1.7,5.8H19.7z"/>
		<path class="st1" d="M31.7,124.5c0,0.6,0,1.1,0.1,1.5h-2c0-0.5-0.1-0.9-0.1-1.4l-0.1,0l0,0c-0.4,0.7-1,1.5-2.4,1.5
			c-2.1,0-2.7-1.5-2.7-3.4v-5.9h2.2v5.5c0,1.4,0.4,2,1.3,2c1.2,0,1.5-1.1,1.5-2.2v-5.2h2.2V124.5z"/>
		<path class="st1" d="M33.6,118.4c0-0.7,0-1.1-0.1-1.5h2.2c0,0.5,0.1,1,0.1,1.4h0c0.3-0.7,1-1.6,2.3-1.6c1.5,0,2,1,2.3,1.4
			c0.4-0.6,1.1-1.4,2.4-1.4c2,0,2.6,1.4,2.6,3.6v5.6h-2.2v-5.7c0-1.1-0.4-1.7-1.2-1.7c-1,0-1.5,0.9-1.5,1.9v5.5h-2.2v-5.7
			c0-1.1-0.4-1.7-1.2-1.7c-1,0-1.5,0.9-1.5,1.9v5.5h-2.2V118.4z"/>
		<path class="st1" d="M54.1,125.6c-0.5,0.2-1.4,0.6-2.7,0.6c-2.9,0-4.2-2.1-4.2-4.6c0-2.7,1.4-4.8,3.7-4.8c2,0,3.6,1.1,3.6,4.9v0.4
			h-5.3c0,1.6,0.6,2.5,2.3,2.5c1.3,0,2-0.4,2.4-0.7L54.1,125.6z M52.4,120.7c0-1.6-0.5-2.4-1.5-2.4c-1.1,0-1.6,1.2-1.6,2.4H52.4z"/>
		<path class="st1" d="M56.2,118.4c0-0.6,0-1.1-0.1-1.5h2c0,0.5,0.1,0.9,0.1,1.4h0c0.3-0.5,0.9-1.5,2.4-1.5c2.1,0,2.7,1.5,2.7,3.4
			v5.9h-2.2v-5.5c0-1.4-0.4-2-1.3-2c-1.1,0-1.6,1-1.6,2.1v5.3h-2.2V118.4z"/>
		<path class="st1" d="M66.2,115l2.2-0.7v2.5h1.8v1.6h-1.8v4.7c0,1,0.4,1.3,1,1.3c0.4,0,0.7-0.1,0.8-0.2v1.6
			c-0.3,0.2-0.8,0.3-1.5,0.3c-1.6,0-2.5-0.7-2.5-2.6v-5h-1.4v-1.6h1.4V115z"/>
		<path class="st1" d="M72,117.4c0.6-0.3,1.5-0.7,2.9-0.7c2.8,0,3.5,1.4,3.5,3.7v4c0,0.7,0.1,1.3,0.1,1.6h-2
			c-0.1-0.4-0.1-0.8-0.1-1.2h0c-0.5,0.7-1.2,1.4-2.5,1.4c-1.4,0-2.7-1-2.7-2.7c0-2.5,2-3.1,4.8-3.1h0.4V120c0-0.9-0.4-1.7-1.7-1.7
			c-1.1,0-2.1,0.5-2.5,0.9L72,117.4z M76.3,121.5h-0.2c-1.9,0-3,0.4-3,1.7c0,0.8,0.5,1.4,1.4,1.4c1.3,0,1.8-1,1.8-2.6V121.5z"/>
		<path class="st1" d="M85.2,112.8h2.2V126h-2.2V112.8z"/>
		<path class="st1" d="M90,117.4c0.6-0.3,1.5-0.7,2.9-0.7c2.8,0,3.5,1.4,3.5,3.7v4c0,0.7,0.1,1.3,0.1,1.6h-2
			c-0.1-0.4-0.1-0.8-0.1-1.2h0c-0.5,0.7-1.2,1.4-2.5,1.4c-1.4,0-2.7-1-2.7-2.7c0-2.5,2-3.1,4.8-3.1h0.4V120c0-0.9-0.4-1.7-1.7-1.7
			c-1.1,0-2.1,0.5-2.5,0.9L90,117.4z M94.3,121.5h-0.2c-1.9,0-3,0.4-3,1.7c0,0.8,0.5,1.4,1.4,1.4c1.3,0,1.8-1,1.8-2.6V121.5z"/>
		<path class="st1" d="M98.2,123.9c0.4,0.1,1.3,0.6,2.3,0.6c0.8,0,1.4-0.2,1.4-0.9c0-0.4-0.2-0.7-1-1.1l-0.9-0.5
			c-0.9-0.5-1.9-1.1-1.9-2.6c0-1.3,1.2-2.6,3.1-2.6c1.2,0,2.1,0.3,2.3,0.4l-0.1,1.7c-0.5-0.2-1.1-0.4-1.9-0.4
			c-0.9,0-1.3,0.3-1.3,0.9c0,0.5,0.4,0.8,1,1.2l1.1,0.7c1.1,0.7,1.7,1.2,1.7,2.3c0,1.7-1.4,2.7-3.4,2.7c-1.1,0-2.1-0.3-2.5-0.4
			L98.2,123.9z"/>
		<path class="st1" d="M116.4,125.8c-0.5,0.2-1.3,0.4-2.2,0.4c-3,0-4.3-2.1-4.3-4.7c0-2.6,1.3-4.7,4.4-4.7c0.7,0,1.5,0.2,1.9,0.4
			l-0.1,1.7c-0.4-0.2-0.9-0.4-1.5-0.4c-1.7,0-2.4,1.1-2.4,3.1c0,1.7,0.8,3,2.5,3c0.5,0,1.3-0.2,1.6-0.4L116.4,125.8z"/>
		<path class="st1" d="M121.5,116.8c1.9,0,4,1,4,4.7c0,3.8-2.1,4.7-4,4.7s-4-0.9-4-4.7C117.5,117.7,119.6,116.8,121.5,116.8z
			 M121.5,124.6c1.4,0,1.7-1.6,1.7-3.1c0-1.5-0.3-3.1-1.7-3.1s-1.7,1.6-1.7,3.1C119.7,123,120.1,124.6,121.5,124.6z"/>
		<path class="st1" d="M127.2,118.4c0-0.6,0-1.1-0.1-1.5h2c0,0.5,0.1,0.9,0.1,1.4h0c0.3-0.5,0.9-1.5,2.4-1.5c2.1,0,2.7,1.5,2.7,3.4
			v5.9h-2.2v-5.5c0-1.4-0.4-2-1.3-2c-1.1,0-1.6,1-1.6,2.1v5.3h-2.2V118.4z"/>
		<path class="st1" d="M142.5,125.8c-0.5,0.2-1.3,0.4-2.2,0.4c-3,0-4.3-2.1-4.3-4.7c0-2.6,1.3-4.7,4.4-4.7c0.7,0,1.5,0.2,1.9,0.4
			l-0.1,1.7c-0.4-0.2-0.9-0.4-1.5-0.4c-1.7,0-2.4,1.1-2.4,3.1c0,1.7,0.8,3,2.5,3c0.5,0,1.3-0.2,1.6-0.4L142.5,125.8z"/>
		<path class="st1" d="M150.6,125.6c-0.5,0.2-1.4,0.6-2.7,0.6c-2.9,0-4.2-2.1-4.2-4.6c0-2.7,1.4-4.8,3.7-4.8c2,0,3.6,1.1,3.6,4.9
			v0.4h-5.3c0,1.6,0.6,2.5,2.3,2.5c1.3,0,2-0.4,2.4-0.7L150.6,125.6z M148.9,120.7c0-1.6-0.5-2.4-1.5-2.4c-1.1,0-1.6,1.2-1.6,2.4
			H148.9z"/>
		<path class="st1" d="M152.7,118.4c0-0.6,0-1.1-0.1-1.5h2c0,0.5,0.1,0.9,0.1,1.4h0c0.3-0.5,0.9-1.5,2.4-1.5c2.1,0,2.7,1.5,2.7,3.4
			v5.9h-2.2v-5.5c0-1.4-0.4-2-1.3-2c-1.1,0-1.6,1-1.6,2.1v5.3h-2.2V118.4z"/>
		<path class="st1" d="M162.7,115l2.2-0.7v2.5h1.8v1.6h-1.8v4.7c0,1,0.4,1.3,1,1.3c0.4,0,0.7-0.1,0.8-0.2v1.6
			c-0.3,0.2-0.8,0.3-1.5,0.3c-1.6,0-2.5-0.7-2.5-2.6v-5h-1.4v-1.6h1.4V115z"/>
		<path class="st1" d="M168.2,118.4c0-0.6,0-1.1-0.1-1.5h2c0,0.5,0.1,1.1,0.1,1.7h0c0.3-0.7,1-1.8,2.3-1.8c0.1,0,0.2,0,0.4,0.1v2
			c-0.2-0.1-0.4-0.1-0.6-0.1c-0.9,0-1.9,0.5-1.9,2.2v5h-2.2V118.4z"/>
		<path class="st1" d="M174.6,117.4c0.6-0.3,1.5-0.7,2.9-0.7c2.8,0,3.5,1.4,3.5,3.7v4c0,0.7,0.1,1.3,0.1,1.6h-2
			c-0.1-0.4-0.1-0.8-0.1-1.2h0c-0.5,0.7-1.2,1.4-2.5,1.4c-1.4,0-2.7-1-2.7-2.7c0-2.5,2-3.1,4.8-3.1h0.4V120c0-0.9-0.4-1.7-1.7-1.7
			c-1.1,0-2.1,0.5-2.5,0.9L174.6,117.4z M178.9,121.5h-0.2c-1.9,0-3,0.4-3,1.7c0,0.8,0.5,1.4,1.4,1.4c1.3,0,1.8-1,1.8-2.6V121.5z"/>
		<path class="st1" d="M189.1,125.8c-0.5,0.2-1.3,0.4-2.2,0.4c-3,0-4.3-2.1-4.3-4.7c0-2.6,1.3-4.7,4.4-4.7c0.7,0,1.5,0.2,1.9,0.4
			l-0.1,1.7c-0.4-0.2-0.9-0.4-1.5-0.4c-1.7,0-2.4,1.1-2.4,3.1c0,1.7,0.8,3,2.5,3c0.5,0,1.3-0.2,1.6-0.4L189.1,125.8z"/>
		<path class="st1" d="M190.6,113h2.3v2.2h-2.3V113z M190.7,116.9h2.2v9.1h-2.2V116.9z"/>
		<path class="st1" d="M198.8,116.8c1.9,0,4,1,4,4.7c0,3.8-2.1,4.7-4,4.7s-4-0.9-4-4.7C194.8,117.7,197,116.8,198.8,116.8z
			 M198.8,124.6c1.4,0,1.7-1.6,1.7-3.1c0-1.5-0.3-3.1-1.7-3.1s-1.7,1.6-1.7,3.1C197.1,123,197.4,124.6,198.8,124.6z"/>
		<path class="st1" d="M204.5,118.4c0-0.6,0-1.1-0.1-1.5h2c0,0.5,0.1,0.9,0.1,1.4h0c0.3-0.5,0.9-1.5,2.4-1.5c2.1,0,2.7,1.5,2.7,3.4
			v5.9h-2.2v-5.5c0-1.4-0.4-2-1.3-2c-1.1,0-1.6,1-1.6,2.1v5.3h-2.2V118.4z"/>
		<path class="st1" d="M220.4,125.6c-0.5,0.2-1.4,0.6-2.7,0.6c-2.9,0-4.2-2.1-4.2-4.6c0-2.7,1.4-4.8,3.7-4.8c2,0,3.6,1.1,3.6,4.9
			v0.4h-5.3c0,1.6,0.6,2.5,2.3,2.5c1.3,0,2-0.4,2.4-0.7L220.4,125.6z M218.7,120.7c0-1.6-0.5-2.4-1.5-2.4c-1.1,0-1.6,1.2-1.6,2.4
			H218.7z"/>
		<path class="st1" d="M222.3,123.9c0.4,0.1,1.3,0.6,2.3,0.6c0.8,0,1.4-0.2,1.4-0.9c0-0.4-0.2-0.7-1-1.1l-0.9-0.5
			c-0.9-0.5-1.9-1.1-1.9-2.6c0-1.3,1.2-2.6,3.1-2.6c1.2,0,2.1,0.3,2.3,0.4l-0.1,1.7c-0.5-0.2-1.1-0.4-1.9-0.4
			c-0.9,0-1.3,0.3-1.3,0.9c0,0.5,0.4,0.8,1,1.2l1.1,0.7c1.1,0.7,1.7,1.2,1.7,2.3c0,1.7-1.4,2.7-3.4,2.7c-1.1,0-2.1-0.3-2.5-0.4
			L222.3,123.9z"/>
		<path class="st1" d="M241.8,112.8v11.7c0,0.7,0,1.2,0.1,1.6h-2c0-0.3-0.1-0.8-0.1-1.4h-0.1c-0.4,0.8-1,1.6-2.4,1.6
			c-2.3,0-3.2-2.2-3.2-4.7c0-3,1.2-4.7,3.1-4.7c1.3,0,2,0.7,2.3,1.4h0v-5.5H241.8z M237.9,124.5c1.3,0,1.7-1.4,1.7-3.1
			c0-1.8-0.5-3.1-1.7-3.1c-1.2,0-1.6,1.2-1.6,3C236.2,123.5,236.6,124.5,237.9,124.5z"/>
		<path class="st1" d="M250.5,125.6c-0.5,0.2-1.4,0.6-2.7,0.6c-2.9,0-4.2-2.1-4.2-4.6c0-2.7,1.4-4.8,3.7-4.8c2,0,3.6,1.1,3.6,4.9
			v0.4h-5.3c0,1.6,0.6,2.5,2.3,2.5c1.3,0,2-0.4,2.4-0.7L250.5,125.6z M248.8,120.7c0-1.6-0.5-2.4-1.5-2.4c-1.1,0-1.6,1.2-1.6,2.4
			H248.8z"/>
		<path class="st1" d="M21.2,133.9v11.7c0,0.7,0,1.2,0.1,1.6h-2c0-0.3-0.1-0.8-0.1-1.4h-0.1c-0.4,0.8-1,1.6-2.4,1.6
			c-2.3,0-3.2-2.2-3.2-4.7c0-3,1.2-4.7,3.1-4.7c1.3,0,2,0.7,2.3,1.4h0v-5.5H21.2z M17.2,145.7c1.3,0,1.7-1.4,1.7-3.1
			c0-1.8-0.5-3.1-1.7-3.1c-1.2,0-1.6,1.2-1.6,3C15.6,144.7,16,145.7,17.2,145.7z"/>
		<path class="st1" d="M26.9,137.9c1.9,0,4,1,4,4.7c0,3.8-2.1,4.7-4,4.7s-4-0.9-4-4.7C22.9,138.9,25.1,137.9,26.9,137.9z
			 M26.9,145.8c1.4,0,1.7-1.6,1.7-3.1c0-1.5-0.3-3.1-1.7-3.1s-1.7,1.6-1.7,3.1C25.2,144.1,25.5,145.8,26.9,145.8z"/>
		<path class="st1" d="M32.7,139.6c0-0.7,0-1.2-0.1-1.6h2c0,0.3,0.1,0.8,0.1,1.4h0.1c0.4-0.8,1-1.6,2.4-1.6c2.3,0,3.2,2.2,3.2,4.7
			c0,3-1.2,4.7-3.1,4.7c-1.3,0-2-0.7-2.3-1.4h0v5.1h-2.2V139.6z M36.6,145.7c1.2,0,1.6-1.2,1.6-3c0-2.1-0.3-3.2-1.6-3.2
			c-1.3,0-1.7,1.4-1.7,3.1C34.9,144.4,35.4,145.7,36.6,145.7z"/>
		<path class="st1" d="M42.6,138.6c0.6-0.3,1.5-0.7,2.9-0.7c2.8,0,3.5,1.4,3.5,3.7v4c0,0.7,0.1,1.3,0.1,1.6h-2
			c-0.1-0.4-0.1-0.8-0.1-1.2h0c-0.5,0.7-1.2,1.4-2.5,1.4c-1.4,0-2.7-1-2.7-2.7c0-2.5,2-3.1,4.8-3.1h0.4v-0.3c0-0.9-0.4-1.7-1.7-1.7
			c-1.1,0-2.1,0.5-2.5,0.9L42.6,138.6z M46.9,142.7h-0.2c-1.9,0-3,0.4-3,1.7c0,0.8,0.5,1.4,1.4,1.4c1.3,0,1.8-1,1.8-2.6V142.7z"/>
		<path class="st1" d="M50.9,139.6c0-0.7,0-1.1-0.1-1.5H53c0,0.5,0.1,1,0.1,1.4h0c0.3-0.7,1-1.6,2.3-1.6c1.5,0,2,1,2.3,1.4
			c0.4-0.6,1.1-1.4,2.4-1.4c2,0,2.6,1.4,2.6,3.6v5.6h-2.2v-5.7c0-1.1-0.4-1.7-1.2-1.7c-1,0-1.5,0.9-1.5,1.9v5.5h-2.2v-5.7
			c0-1.1-0.4-1.7-1.2-1.7c-1,0-1.5,0.9-1.5,1.9v5.5h-2.2V139.6z"/>
		<path class="st1" d="M64.9,134.2h2.3v2.2h-2.3V134.2z M64.9,138.1h2.2v9.1h-2.2V138.1z"/>
		<path class="st1" d="M69.3,139.6c0-0.6,0-1.1-0.1-1.5h2c0,0.5,0.1,0.9,0.1,1.4h0c0.3-0.5,0.9-1.5,2.4-1.5c2.1,0,2.7,1.5,2.7,3.4
			v5.9h-2.2v-5.5c0-1.4-0.4-2-1.3-2c-1.1,0-1.6,1-1.6,2.1v5.3h-2.2V139.6z"/>
		<path class="st1" d="M78.9,138.6c0.6-0.3,1.5-0.7,2.9-0.7c2.8,0,3.5,1.4,3.5,3.7v4c0,0.7,0.1,1.3,0.1,1.6h-2
			c-0.1-0.4-0.1-0.8-0.1-1.2h0c-0.5,0.7-1.2,1.4-2.5,1.4c-1.4,0-2.7-1-2.7-2.7c0-2.5,2-3.1,4.8-3.1h0.4v-0.3c0-0.9-0.4-1.7-1.7-1.7
			c-1.1,0-2.1,0.5-2.5,0.9L78.9,138.6z M83.2,142.7H83c-1.9,0-3,0.4-3,1.7c0,0.8,0.5,1.4,1.4,1.4c1.3,0,1.8-1,1.8-2.6V142.7z"/>
		<path class="st1" d="M86.8,140.2c0.5,0.3,1,0.4,1.4,0.4c0.8,0,1.5-0.6,1.5-1.4c0-0.7-0.5-1.2-1.4-1.2h-0.7v-0.7h0.4
			c1.1,0,1.7-0.5,1.7-1.3c0-0.7-0.5-1.2-1.3-1.2c-0.4,0-0.9,0.2-1.3,0.4l-0.1-0.8c0.5-0.2,1-0.3,1.6-0.3c1.1,0,2,0.6,2,1.8
			c0,1-0.6,1.5-1.3,1.7v0c0.9,0.1,1.4,0.9,1.4,1.8c0,1.1-0.8,2.1-2.3,2.1c-0.5,0-1.1-0.1-1.5-0.3L86.8,140.2z"/>
	</g>
</g>
<g>
	<g>
		<path class="st1" d="M324,113.7h3.2c1.3,0,2,0.3,2.6,0.8c0.6,0.6,0.9,1.4,0.9,2.3c0,1.3-0.6,2.6-2.4,2.9v0
			c0.7,0.1,1.1,0.5,1.3,1.2l1.7,4.9h-1.7l-1.4-4.2c-0.4-1-0.8-1.4-2-1.4h-0.7v5.6H324V113.7z M325.6,119.1h1.2
			c1.7,0,2.3-1.1,2.3-2.2c0-1.4-0.9-2-2.3-2h-1.2V119.1z"/>
		<path class="st1" d="M334,121.9c0,2.1,0.8,3.1,2.5,3.1c0.7,0,1.6-0.4,2.1-0.7l0.1,1.3c-0.7,0.3-1.6,0.5-2.5,0.5
			c-2.4,0-3.6-1.8-3.6-4.6c0-2.8,1.2-4.6,3.5-4.6c2,0,3.2,1.6,3.2,4.3v0.8H334z M337.6,120.8c0-1.9-0.6-2.8-1.8-2.8
			c-1,0-1.8,0.7-1.8,2.8H337.6z"/>
		<path class="st1" d="M347.2,124.3c0,0.5,0.1,1.1,0.1,1.7h-1.4l-0.1-1.3h0c-0.4,0.7-1.1,1.4-2.4,1.4c-1.9,0-3.1-1.5-3.1-4.6
			s1.3-4.6,3.1-4.6c1,0,1.7,0.4,2.3,1.4h0v-5.5h1.5V124.3z M343.8,118.1c-1.4,0-2,1.2-2,3.4s0.6,3.4,2,3.4s2-1.2,2-3.4
			S345.1,118.1,343.8,118.1z"/>
		<path class="st1" d="M355.6,124.1c0,0.7,0.1,1.3,0.1,1.9h-1.4l-0.1-1.3h0c-0.5,1-1.2,1.5-2.3,1.5c-1.6,0-2.6-0.9-2.6-2.9V117h1.5
			v5.8c0,1.4,0.5,2,1.5,2c1.2,0,1.9-0.8,1.9-2.4V117h1.5V124.1z"/>
		<path class="st1" d="M363,118.6c-0.5-0.3-1-0.4-1.7-0.4c-1.4,0-2.5,1-2.5,3.4c0,2.1,1,3.3,2.4,3.3c0.7,0,1.3-0.2,1.8-0.5l0.1,1.4
			c-0.4,0.2-1.2,0.4-1.9,0.4c-2.7,0-4-2-4-4.5c0-2.9,1.5-4.7,4-4.7c0.6,0,1.3,0.1,1.8,0.4L363,118.6z"/>
		<path class="st1" d="M365.7,121.9c0,2.1,0.8,3.1,2.5,3.1c0.7,0,1.6-0.4,2.1-0.7l0.1,1.3c-0.7,0.3-1.6,0.5-2.5,0.5
			c-2.4,0-3.6-1.8-3.6-4.6c0-2.8,1.2-4.6,3.5-4.6c2,0,3.2,1.6,3.2,4.3v0.8H365.7z M369.3,120.8c0-1.9-0.6-2.8-1.8-2.8
			c-1,0-1.8,0.7-1.8,2.8H369.3z"/>
		<path class="st1" d="M376.8,112.8h1.5V126h-1.5V112.8z"/>
		<path class="st1" d="M381,117.6c0.7-0.5,1.7-0.7,2.5-0.7c1.3,0,2.1,0.6,2.4,0.8c0.4,0.4,0.8,0.9,0.8,2.2v4.7c0,0.5,0,1.1,0.1,1.4
			h-1.3l-0.1-1.2h0c-0.4,0.7-1.1,1.3-2.5,1.3c-1.5,0-2.6-0.9-2.6-2.6c0-1.7,1.1-3,4.2-3h0.9v-0.4c0-0.7-0.1-1.1-0.3-1.4
			c-0.3-0.4-0.9-0.6-1.5-0.6c-0.9,0-1.8,0.4-2.3,0.9L381,117.6z M385.3,121.6c-0.3,0-0.6,0-1,0c-1.7,0-2.6,0.8-2.6,1.9
			c0,1,0.5,1.6,1.5,1.6c1.3,0,2.1-1,2.1-2.3V121.6z"/>
		<path class="st1" d="M388.4,124.2c0.7,0.4,1.4,0.7,2.1,0.7c1.1,0,1.7-0.6,1.7-1.3c0-0.6-0.3-1-1.1-1.4l-1-0.4
			c-1.3-0.6-1.8-1.2-1.8-2.3c0-1.5,1.1-2.6,2.9-2.6c0.7,0,1.4,0.1,1.9,0.3l-0.1,1.3c-0.5-0.2-1.1-0.4-1.8-0.4c-1,0-1.5,0.5-1.5,1.2
			c0,0.7,0.5,1.1,1.5,1.5l0.5,0.2c1.1,0.4,1.8,1.2,1.8,2.3c0,1.6-0.8,2.8-2.9,2.8c-0.9,0-1.8-0.2-2.4-0.5L388.4,124.2z"/>
		<path class="st1" d="M399.2,124.2c0.7,0.4,1.4,0.7,2.1,0.7c1.1,0,1.7-0.6,1.7-1.3c0-0.6-0.3-1-1.1-1.4l-1-0.4
			c-1.3-0.6-1.8-1.2-1.8-2.3c0-1.5,1.1-2.6,2.9-2.6c0.7,0,1.4,0.1,1.9,0.3l-0.1,1.3c-0.5-0.2-1.1-0.4-1.8-0.4c-1,0-1.5,0.5-1.5,1.2
			c0,0.7,0.5,1.1,1.5,1.5l0.5,0.2c1.1,0.4,1.8,1.2,1.8,2.3c0,1.6-0.8,2.8-2.9,2.8c-0.9,0-1.8-0.2-2.4-0.5L399.2,124.2z"/>
		<path class="st1" d="M407.2,121.9c0,2.1,0.8,3.1,2.5,3.1c0.7,0,1.6-0.4,2.1-0.7l0.1,1.3c-0.7,0.3-1.6,0.5-2.5,0.5
			c-2.4,0-3.6-1.8-3.6-4.6c0-2.8,1.2-4.6,3.5-4.6c2,0,3.2,1.6,3.2,4.3v0.8H407.2z M410.8,120.8c0-1.9-0.6-2.8-1.8-2.8
			c-1,0-1.8,0.7-1.8,2.8H410.8z"/>
		<path class="st1" d="M413.9,118.9c0-0.7-0.1-1.3-0.1-1.9h1.4l0.1,1.3h0c0.5-1,1.2-1.5,2.3-1.5c1.6,0,2.6,0.9,2.6,2.9v6.3h-1.5
			v-5.8c0-1.4-0.5-2-1.5-2c-1.2,0-1.9,0.8-1.9,2.4v5.4h-1.5V118.9z"/>
		<path class="st1" d="M422,124.2c0.7,0.4,1.4,0.7,2.1,0.7c1.1,0,1.7-0.6,1.7-1.3c0-0.6-0.3-1-1.1-1.4l-1-0.4
			c-1.3-0.6-1.8-1.2-1.8-2.3c0-1.5,1.1-2.6,2.9-2.6c0.7,0,1.4,0.1,1.9,0.3l-0.1,1.3c-0.5-0.2-1.1-0.4-1.8-0.4c-1,0-1.5,0.5-1.5,1.2
			c0,0.7,0.5,1.1,1.5,1.5l0.5,0.2c1.1,0.4,1.8,1.2,1.8,2.3c0,1.6-0.8,2.8-2.9,2.8c-0.9,0-1.8-0.2-2.4-0.5L422,124.2z"/>
		<path class="st1" d="M429.3,117.6c0.7-0.5,1.7-0.7,2.5-0.7c1.3,0,2.1,0.6,2.4,0.8c0.4,0.4,0.8,0.9,0.8,2.2v4.7
			c0,0.5,0,1.1,0.1,1.4h-1.3l-0.1-1.2h0c-0.4,0.7-1.1,1.3-2.5,1.3c-1.5,0-2.6-0.9-2.6-2.6c0-1.7,1.1-3,4.2-3h0.9v-0.4
			c0-0.7-0.1-1.1-0.3-1.4c-0.3-0.4-0.9-0.6-1.5-0.6c-0.9,0-1.8,0.4-2.3,0.9L429.3,117.6z M433.6,121.6c-0.3,0-0.6,0-1,0
			c-1.7,0-2.6,0.8-2.6,1.9c0,1,0.5,1.6,1.5,1.6c1.3,0,2.1-1,2.1-2.3V121.6z"/>
		<path class="st1" d="M442.4,118.6c-0.5-0.3-1-0.4-1.7-0.4c-1.4,0-2.5,1-2.5,3.4c0,2.1,1,3.3,2.4,3.3c0.7,0,1.3-0.2,1.8-0.5
			l0.1,1.4c-0.4,0.2-1.2,0.4-1.9,0.4c-2.7,0-4-2-4-4.5c0-2.9,1.5-4.7,4-4.7c0.6,0,1.3,0.1,1.8,0.4L442.4,118.6z"/>
		<path class="st1" d="M445.7,113.3v1.8h-1.6v-1.8H445.7z M444.1,117h1.5v9h-1.5V117z"/>
		<path class="st1" d="M451.1,116.9c2.4,0,3.6,1.8,3.6,4.6c0,2.8-1.2,4.6-3.6,4.6c-2.4,0-3.6-1.8-3.6-4.6
			C447.5,118.7,448.7,116.9,451.1,116.9z M451.1,124.9c1.4,0,2.1-1.2,2.1-3.4s-0.7-3.4-2.1-3.4s-2.1,1.2-2.1,3.4
			S449.7,124.9,451.1,124.9z"/>
		<path class="st1" d="M456.4,118.9c0-0.7-0.1-1.3-0.1-1.9h1.4l0.1,1.3h0c0.5-1,1.2-1.5,2.3-1.5c1.6,0,2.6,0.9,2.6,2.9v6.3h-1.5
			v-5.8c0-1.4-0.5-2-1.5-2c-1.2,0-1.9,0.8-1.9,2.4v5.4h-1.5V118.9z"/>
		<path class="st1" d="M466,121.9c0,2.1,0.8,3.1,2.5,3.1c0.7,0,1.6-0.4,2.1-0.7l0.1,1.3c-0.7,0.3-1.6,0.5-2.5,0.5
			c-2.4,0-3.6-1.8-3.6-4.6c0-2.8,1.2-4.6,3.5-4.6c2,0,3.2,1.6,3.2,4.3v0.8H466z M469.6,120.8c0-1.9-0.6-2.8-1.8-2.8
			c-1,0-1.8,0.7-1.8,2.8H469.6z"/>
		<path class="st1" d="M472.4,124.2c0.7,0.4,1.4,0.7,2.1,0.7c1.1,0,1.7-0.6,1.7-1.3c0-0.6-0.3-1-1.1-1.4l-1-0.4
			c-1.3-0.6-1.8-1.2-1.8-2.3c0-1.5,1.1-2.6,2.9-2.6c0.7,0,1.4,0.1,1.9,0.3l-0.1,1.3c-0.5-0.2-1.1-0.4-1.8-0.4c-1,0-1.5,0.5-1.5,1.2
			c0,0.7,0.5,1.1,1.5,1.5l0.5,0.2c1.1,0.4,1.8,1.2,1.8,2.3c0,1.6-0.8,2.8-2.9,2.8c-0.9,0-1.8-0.2-2.4-0.5L472.4,124.2z"/>
		<path class="st1" d="M483.2,124.2c0.7,0.4,1.4,0.7,2.1,0.7c1.1,0,1.7-0.6,1.7-1.3c0-0.6-0.3-1-1.1-1.4l-1-0.4
			c-1.3-0.6-1.8-1.2-1.8-2.3c0-1.5,1.1-2.6,2.9-2.6c0.7,0,1.4,0.1,1.9,0.3l-0.1,1.3c-0.5-0.2-1.1-0.4-1.8-0.4c-1,0-1.5,0.5-1.5,1.2
			c0,0.7,0.5,1.1,1.5,1.5l0.5,0.2c1.1,0.4,1.8,1.2,1.8,2.3c0,1.6-0.8,2.8-2.9,2.8c-0.9,0-1.8-0.2-2.4-0.5L483.2,124.2z"/>
		<path class="st1" d="M496.4,124.1c0,0.7,0.1,1.3,0.1,1.9h-1.4l-0.1-1.3h0c-0.5,1-1.2,1.5-2.3,1.5c-1.6,0-2.6-0.9-2.6-2.9V117h1.5
			v5.8c0,1.4,0.5,2,1.5,2c1.2,0,1.9-0.8,1.9-2.4V117h1.5V124.1z"/>
		<path class="st1" d="M498.4,112.8h1.5v5.5h0c0.6-1,1.3-1.4,2.3-1.4c1.9,0,3.1,1.5,3.1,4.6s-1.3,4.6-3.1,4.6c-1.3,0-2-0.7-2.4-1.4
			h0l-0.1,1.3h-1.4c0-0.5,0.1-1.1,0.1-1.7V112.8z M501.9,124.9c1.4,0,2-1.2,2-3.4s-0.6-3.4-2-3.4s-2,1.2-2,3.4
			S500.5,124.9,501.9,124.9z"/>
		<path class="st1" d="M505.8,128.6c0.2,0,0.4,0.1,0.7,0.1c0.6,0,0.8-0.3,0.8-1.2V117h1.5v10.7c0,1.5-0.4,2.3-2.1,2.3
			c-0.3,0-0.6-0.1-0.8-0.2V128.6z M508.8,113.3v1.8h-1.6v-1.8H508.8z"/>
		<path class="st1" d="M512.1,121.9c0,2.1,0.8,3.1,2.5,3.1c0.7,0,1.6-0.4,2.1-0.7l0.1,1.3c-0.7,0.3-1.6,0.5-2.5,0.5
			c-2.4,0-3.6-1.8-3.6-4.6c0-2.8,1.2-4.6,3.5-4.6c2,0,3.2,1.6,3.2,4.3v0.8H512.1z M515.7,120.8c0-1.9-0.6-2.8-1.8-2.8
			c-1,0-1.8,0.7-1.8,2.8H515.7z"/>
		<path class="st1" d="M522.8,125.9c-0.4,0.1-0.8,0.2-1.3,0.2c-1.4,0-2.1-0.5-2.1-2.1v-5.8H518V117h1.4v-1.8l1.5-0.4v2.3h1.9v1.2
			h-1.9v5.3c0,1,0.3,1.4,0.9,1.4c0.4,0,0.6-0.1,0.9-0.2V125.9z"/>
		<path class="st1" d="M525.7,113.3v1.8h-1.6v-1.8H525.7z M524.2,117h1.5v9h-1.5V117z"/>
		<path class="st1" d="M527.1,117h1.6l2,7.5h0l2-7.5h1.6l-2.7,9h-1.8L527.1,117z"/>
		<path class="st1" d="M535.5,117.6c0.7-0.5,1.7-0.7,2.5-0.7c1.3,0,2.1,0.6,2.4,0.8c0.4,0.4,0.8,0.9,0.8,2.2v4.7
			c0,0.5,0,1.1,0.1,1.4H540l-0.1-1.2h0c-0.4,0.7-1.1,1.3-2.5,1.3c-1.5,0-2.6-0.9-2.6-2.6c0-1.7,1.1-3,4.2-3h0.9v-0.4
			c0-0.7-0.1-1.1-0.3-1.4c-0.3-0.4-0.9-0.6-1.5-0.6c-0.9,0-1.8,0.4-2.3,0.9L535.5,117.6z M539.8,121.6c-0.3,0-0.6,0-1,0
			c-1.7,0-2.6,0.8-2.6,1.9c0,1,0.5,1.6,1.5,1.6c1.3,0,2.1-1,2.1-2.3V121.6z"/>
		<path class="st1" d="M543,124.2c0.7,0.4,1.4,0.7,2.1,0.7c1.1,0,1.7-0.6,1.7-1.3c0-0.6-0.3-1-1.1-1.4l-1-0.4
			c-1.3-0.6-1.8-1.2-1.8-2.3c0-1.5,1.1-2.6,2.9-2.6c0.7,0,1.4,0.1,1.9,0.3l-0.1,1.3c-0.5-0.2-1.1-0.4-1.8-0.4c-1,0-1.5,0.5-1.5,1.2
			c0,0.7,0.5,1.1,1.5,1.5l0.5,0.2c1.1,0.4,1.8,1.2,1.8,2.3c0,1.6-0.8,2.8-2.9,2.8c-0.9,0-1.8-0.2-2.4-0.5L543,124.2z"/>
		<path class="st1" d="M560.6,124.3c0,0.5,0.1,1.1,0.1,1.7h-1.4l-0.1-1.3h0c-0.4,0.7-1.1,1.4-2.4,1.4c-1.9,0-3.1-1.5-3.1-4.6
			s1.3-4.6,3.1-4.6c1,0,1.7,0.4,2.3,1.4h0v-5.5h1.5V124.3z M557.1,118.1c-1.4,0-2,1.2-2,3.4s0.6,3.4,2,3.4s2-1.2,2-3.4
			S558.5,118.1,557.1,118.1z"/>
		<path class="st1" d="M563.7,121.9c0,2.1,0.8,3.1,2.5,3.1c0.7,0,1.6-0.4,2.1-0.7l0.1,1.3c-0.7,0.3-1.6,0.5-2.5,0.5
			c-2.4,0-3.6-1.8-3.6-4.6c0-2.8,1.2-4.6,3.5-4.6c2,0,3.2,1.6,3.2,4.3v0.8H563.7z M567.3,120.8c0-1.9-0.6-2.8-1.8-2.8
			c-1,0-1.8,0.7-1.8,2.8H567.3z"/>
		<path class="st1" d="M324.1,138.8c0.7-0.5,1.7-0.7,2.5-0.7c1.3,0,2.1,0.6,2.4,0.8c0.4,0.4,0.8,0.9,0.8,2.2v4.7
			c0,0.5,0,1.1,0.1,1.4h-1.3l-0.1-1.2h0c-0.4,0.7-1.1,1.3-2.5,1.3c-1.5,0-2.6-0.9-2.6-2.6c0-1.7,1.1-3,4.2-3h0.9v-0.4
			c0-0.7-0.1-1.1-0.3-1.4c-0.3-0.4-0.9-0.6-1.5-0.6c-0.9,0-1.8,0.4-2.3,0.9L324.1,138.8z M328.4,142.8c-0.3,0-0.6,0-1,0
			c-1.7,0-2.6,0.8-2.6,1.9c0,1,0.5,1.6,1.5,1.6c1.3,0,2.1-1,2.1-2.3V142.8z"/>
		<path class="st1" d="M331.9,140.1c0-0.7-0.1-1.3-0.1-1.9h1.4l0.1,1.3h0c0.5-1,1.2-1.5,2.3-1.5c1.6,0,2.6,0.9,2.6,2.9v6.2h-1.5
			v-5.8c0-1.4-0.5-2-1.5-2c-1.2,0-1.9,0.8-1.9,2.4v5.4h-1.5V140.1z"/>
		<path class="st1" d="M340,145.4c0.7,0.4,1.4,0.7,2.1,0.7c1.1,0,1.7-0.6,1.7-1.3c0-0.6-0.3-1-1.1-1.4l-1-0.4
			c-1.3-0.6-1.8-1.2-1.8-2.3c0-1.5,1.1-2.6,2.9-2.6c0.7,0,1.4,0.1,1.9,0.3l-0.1,1.3c-0.5-0.2-1.1-0.4-1.8-0.4c-1,0-1.5,0.5-1.5,1.2
			c0,0.7,0.5,1.1,1.5,1.5l0.5,0.2c1.1,0.4,1.8,1.2,1.8,2.3c0,1.6-0.8,2.8-2.9,2.8c-0.9,0-1.8-0.2-2.4-0.5L340,145.4z"/>
		<path class="st1" d="M348.6,134.5v1.8H347v-1.8H348.6z M347.1,138.2h1.5v9h-1.5V138.2z"/>
		<path class="st1" d="M352,143.1c0,2.1,0.8,3.1,2.5,3.1c0.7,0,1.6-0.4,2.1-0.7l0.1,1.3c-0.7,0.3-1.6,0.5-2.5,0.5
			c-2.4,0-3.6-1.8-3.6-4.6s1.2-4.6,3.5-4.6c2,0,3.2,1.6,3.2,4.3v0.8H352z M355.6,142c0-1.9-0.6-2.8-1.8-2.8c-1,0-1.8,0.7-1.8,2.8
			H355.6z"/>
		<path class="st1" d="M365.2,145.5c0,0.5,0.1,1.1,0.1,1.7h-1.4l-0.1-1.3h0c-0.4,0.7-1.1,1.4-2.4,1.4c-1.9,0-3.1-1.5-3.1-4.6
			c0-3.1,1.3-4.6,3.1-4.6c1,0,1.7,0.4,2.3,1.4h0v-5.5h1.5V145.5z M361.7,139.3c-1.4,0-2,1.2-2,3.4s0.6,3.4,2,3.4s2-1.2,2-3.4
			S363.1,139.3,361.7,139.3z"/>
		<path class="st1" d="M367.6,138.8c0.7-0.5,1.7-0.7,2.5-0.7c1.3,0,2.1,0.6,2.4,0.8c0.4,0.4,0.8,0.9,0.8,2.2v4.7
			c0,0.5,0,1.1,0.1,1.4H372l-0.1-1.2h0c-0.4,0.7-1.1,1.3-2.5,1.3c-1.5,0-2.6-0.9-2.6-2.6c0-1.7,1.1-3,4.2-3h0.9v-0.4
			c0-0.7-0.1-1.1-0.3-1.4c-0.3-0.4-0.9-0.6-1.5-0.6c-0.9,0-1.8,0.4-2.3,0.9L367.6,138.8z M371.9,142.8c-0.3,0-0.6,0-1,0
			c-1.7,0-2.6,0.8-2.6,1.9c0,1,0.5,1.6,1.5,1.6c1.3,0,2.1-1,2.1-2.3V142.8z"/>
		<path class="st1" d="M381.9,145.5c0,0.5,0.1,1.1,0.1,1.7h-1.4l-0.1-1.3h0c-0.4,0.7-1.1,1.4-2.4,1.4c-1.9,0-3.1-1.5-3.1-4.6
			c0-3.1,1.3-4.6,3.1-4.6c1,0,1.7,0.4,2.3,1.4h0v-5.5h1.5V145.5z M378.4,139.3c-1.4,0-2,1.2-2,3.4s0.6,3.4,2,3.4s2-1.2,2-3.4
			S379.8,139.3,378.4,139.3z"/>
		<path class="st1" d="M387.7,145.4c0.7,0.4,1.4,0.7,2.1,0.7c1.1,0,1.7-0.6,1.7-1.3c0-0.6-0.3-1-1.1-1.4l-1-0.4
			c-1.3-0.6-1.8-1.2-1.8-2.3c0-1.5,1.1-2.6,2.9-2.6c0.7,0,1.4,0.1,1.9,0.3l-0.1,1.3c-0.5-0.2-1.1-0.4-1.8-0.4c-1,0-1.5,0.5-1.5,1.2
			c0,0.7,0.5,1.1,1.5,1.5l0.5,0.2c1.1,0.4,1.8,1.2,1.8,2.3c0,1.6-0.8,2.8-2.9,2.8c-0.9,0-1.8-0.2-2.4-0.5L387.7,145.4z"/>
		<path class="st1" d="M396.3,134.5v1.8h-1.6v-1.8H396.3z M394.8,138.2h1.5v9h-1.5V138.2z"/>
		<path class="st1" d="M398.6,140.1c0-0.7-0.1-1.3-0.1-1.9h1.4l0.1,1.3h0c0.5-1,1.2-1.5,2.3-1.5c1.6,0,2.6,0.9,2.6,2.9v6.2h-1.5
			v-5.8c0-1.4-0.5-2-1.5-2c-1.2,0-1.9,0.8-1.9,2.4v5.4h-1.5V140.1z"/>
		<path class="st1" d="M416.6,139.7c-0.5-0.3-1-0.4-1.7-0.4c-1.4,0-2.5,1-2.5,3.4c0,2.1,1,3.3,2.4,3.3c0.7,0,1.3-0.2,1.8-0.5
			l0.1,1.4c-0.4,0.2-1.2,0.4-1.9,0.4c-2.7,0-4-2-4-4.5c0-2.9,1.5-4.7,4-4.7c0.6,0,1.3,0.1,1.8,0.4L416.6,139.7z"/>
		<path class="st1" d="M418.5,138.8c0.7-0.5,1.7-0.7,2.5-0.7c1.3,0,2.1,0.6,2.4,0.8c0.4,0.4,0.8,0.9,0.8,2.2v4.7
			c0,0.5,0,1.1,0.1,1.4H423l-0.1-1.2h0c-0.4,0.7-1.1,1.3-2.5,1.3c-1.5,0-2.6-0.9-2.6-2.6c0-1.7,1.1-3,4.2-3h0.9v-0.4
			c0-0.7-0.1-1.1-0.3-1.4c-0.3-0.4-0.9-0.6-1.5-0.6c-0.9,0-1.8,0.4-2.3,0.9L418.5,138.8z M422.8,142.8c-0.3,0-0.6,0-1,0
			c-1.7,0-2.6,0.8-2.6,1.9c0,1,0.5,1.6,1.5,1.6c1.3,0,2.1-1,2.1-2.3V142.8z"/>
		<path class="st1" d="M432.7,145.2c0,0.7,0.1,1.3,0.1,1.9h-1.4l-0.1-1.3h0c-0.5,1-1.2,1.5-2.3,1.5c-1.6,0-2.6-0.9-2.6-2.9v-6.3h1.5
			v5.8c0,1.4,0.5,2,1.5,2c1.2,0,1.9-0.8,1.9-2.4v-5.4h1.5V145.2z"/>
		<path class="st1" d="M434.5,145.4c0.7,0.4,1.4,0.7,2.1,0.7c1.1,0,1.7-0.6,1.7-1.3c0-0.6-0.3-1-1.1-1.4l-1-0.4
			c-1.3-0.6-1.8-1.2-1.8-2.3c0-1.5,1.1-2.6,2.9-2.6c0.7,0,1.4,0.1,1.9,0.3l-0.1,1.3c-0.5-0.2-1.1-0.4-1.8-0.4c-1,0-1.5,0.5-1.5,1.2
			c0,0.7,0.5,1.1,1.5,1.5l0.5,0.2c1.1,0.4,1.8,1.2,1.8,2.3c0,1.6-0.8,2.8-2.9,2.8c-0.9,0-1.8-0.2-2.4-0.5L434.5,145.4z"/>
		<path class="st1" d="M441.7,138.8c0.7-0.5,1.7-0.7,2.5-0.7c1.3,0,2.1,0.6,2.4,0.8c0.4,0.4,0.8,0.9,0.8,2.2v4.7
			c0,0.5,0,1.1,0.1,1.4h-1.3l-0.1-1.2h0c-0.4,0.7-1.1,1.3-2.5,1.3c-1.5,0-2.6-0.9-2.6-2.6c0-1.7,1.1-3,4.2-3h0.9v-0.4
			c0-0.7-0.1-1.1-0.3-1.4c-0.3-0.4-0.9-0.6-1.5-0.6c-0.9,0-1.8,0.4-2.3,0.9L441.7,138.8z M446,142.8c-0.3,0-0.6,0-1,0
			c-1.7,0-2.6,0.8-2.6,1.9c0,1,0.5,1.6,1.5,1.6c1.3,0,2.1-1,2.1-2.3V142.8z"/>
		<path class="st1" d="M449.6,140.1c0-0.7-0.1-1.3-0.1-1.9h1.4l0.1,1.4h0c0.5-1.1,1.2-1.5,2.6-1.5v1.5c-0.2,0-0.4-0.1-0.6-0.1
			c-1.1,0-2,1-2,2.9v4.8h-1.5V140.1z"/>
		<path class="st1" d="M458.6,145.4c0.7,0.4,1.4,0.7,2.1,0.7c1.1,0,1.7-0.6,1.7-1.3c0-0.6-0.3-1-1.1-1.4l-1-0.4
			c-1.3-0.6-1.8-1.2-1.8-2.3c0-1.5,1.1-2.6,2.9-2.6c0.7,0,1.4,0.1,1.9,0.3l-0.1,1.3c-0.5-0.2-1.1-0.4-1.8-0.4c-1,0-1.5,0.5-1.5,1.2
			c0,0.7,0.5,1.1,1.5,1.5l0.5,0.2c1.1,0.4,1.8,1.2,1.8,2.3c0,1.6-0.8,2.8-2.9,2.8c-0.9,0-1.8-0.2-2.4-0.5L458.6,145.4z"/>
		<path class="st1" d="M466.7,143.1c0,2.1,0.8,3.1,2.5,3.1c0.7,0,1.6-0.4,2.1-0.7l0.1,1.3c-0.7,0.3-1.6,0.5-2.5,0.5
			c-2.4,0-3.6-1.8-3.6-4.6s1.2-4.6,3.5-4.6c2,0,3.2,1.6,3.2,4.3v0.8H466.7z M470.3,142c0-1.9-0.6-2.8-1.8-2.8c-1,0-1.8,0.7-1.8,2.8
			H470.3z"/>
		<path class="st1" d="M479.9,145.5c0,0.5,0.1,1.1,0.1,1.7h-1.4l-0.1-1.3h0c-0.4,0.7-1.1,1.4-2.4,1.4c-1.9,0-3.1-1.5-3.1-4.6
			c0-3.1,1.3-4.6,3.1-4.6c1,0,1.7,0.4,2.3,1.4h0v-5.5h1.5V145.5z M476.4,139.3c-1.4,0-2,1.2-2,3.4s0.6,3.4,2,3.4s2-1.2,2-3.4
			S477.8,139.3,476.4,139.3z"/>
		<path class="st1" d="M482.2,138.8c0.7-0.5,1.7-0.7,2.5-0.7c1.3,0,2.1,0.6,2.4,0.8c0.4,0.4,0.8,0.9,0.8,2.2v4.7
			c0,0.5,0,1.1,0.1,1.4h-1.3l-0.1-1.2h0c-0.4,0.7-1.1,1.3-2.5,1.3c-1.5,0-2.6-0.9-2.6-2.6c0-1.7,1.1-3,4.2-3h0.9v-0.4
			c0-0.7-0.1-1.1-0.3-1.4c-0.3-0.4-0.9-0.6-1.5-0.6c-0.9,0-1.8,0.4-2.3,0.9L482.2,138.8z M486.5,142.8c-0.3,0-0.6,0-1,0
			c-1.7,0-2.6,0.8-2.6,1.9c0,1,0.5,1.6,1.5,1.6c1.3,0,2.1-1,2.1-2.3V142.8z"/>
		<path class="st1" d="M495.3,139.7c-0.5-0.3-1-0.4-1.7-0.4c-1.4,0-2.5,1-2.5,3.4c0,2.1,1,3.3,2.4,3.3c0.7,0,1.3-0.2,1.8-0.5
			l0.1,1.4c-0.4,0.2-1.2,0.4-1.9,0.4c-2.7,0-4-2-4-4.5c0-2.9,1.5-4.7,4-4.7c0.6,0,1.3,0.1,1.8,0.4L495.3,139.7z"/>
		<path class="st1" d="M498.6,134.5v1.8H497v-1.8H498.6z M497.1,138.2h1.5v9h-1.5V138.2z"/>
		<path class="st1" d="M504,138.1c2.4,0,3.6,1.8,3.6,4.6s-1.2,4.6-3.6,4.6c-2.4,0-3.6-1.8-3.6-4.6S501.6,138.1,504,138.1z
			 M504,146.1c1.4,0,2.1-1.2,2.1-3.4s-0.7-3.4-2.1-3.4s-2.1,1.2-2.1,3.4S502.6,146.1,504,146.1z M504.3,134.4h1.7l-1.8,2.6h-1.1
			L504.3,134.4z"/>
		<path class="st1" d="M509.3,140.1c0-0.7-0.1-1.3-0.1-1.9h1.4l0.1,1.3h0c0.5-1,1.2-1.5,2.3-1.5c1.6,0,2.6,0.9,2.6,2.9v6.2h-1.5
			v-5.8c0-1.4-0.5-2-1.5-2c-1.2,0-1.9,0.8-1.9,2.4v5.4h-1.5V140.1z"/>
		<path class="st1" d="M519.8,139.7H517v-0.9l2.6-4.7h1.1v4.8h0.8v0.7h-0.8v1.6h-0.9V139.7z M519.8,135L519.8,135l-2.1,3.9h2.1V135z
			"/>
	</g>
</g>
<g>
	<g>
		<path class="st1" d="M20.2,221.1H16l-0.9,3h-2.3l4.1-12.3h2.5l4,12.3h-2.3L20.2,221.1z M19.7,219.4l-1.6-5.8h0l-1.7,5.8H19.7z"/>
		<path class="st1" d="M24.5,216.5c0-0.6,0-1.1-0.1-1.5h2c0,0.5,0.1,0.9,0.1,1.4h0c0.3-0.5,0.9-1.5,2.4-1.5c2.1,0,2.7,1.5,2.7,3.4
			v5.9h-2.2v-5.5c0-1.4-0.4-2-1.3-2c-1.1,0-1.6,1-1.6,2.1v5.3h-2.2V216.5z"/>
		<path class="st1" d="M33.4,221.9c0.4,0.1,1.3,0.6,2.3,0.6c0.8,0,1.4-0.2,1.4-0.9c0-0.4-0.2-0.7-1-1.1l-0.9-0.5
			c-0.9-0.5-1.9-1.1-1.9-2.6c0-1.3,1.2-2.6,3.1-2.6c1.2,0,2.1,0.3,2.3,0.4l-0.1,1.7c-0.5-0.2-1.1-0.4-1.9-0.4
			c-0.9,0-1.3,0.3-1.3,0.9c0,0.5,0.4,0.8,1,1.2l1.1,0.7c1.1,0.7,1.7,1.2,1.7,2.3c0,1.7-1.4,2.7-3.4,2.7c-1.1,0-2.1-0.3-2.5-0.4
			L33.4,221.9z"/>
		<path class="st1" d="M41,211.1h2.3v2.2H41V211.1z M41,215h2.2v9.1H41V215z"/>
		<path class="st1" d="M49.2,214.8c1.9,0,4,1,4,4.7c0,3.8-2.1,4.7-4,4.7s-4-0.9-4-4.7C45.2,215.8,47.3,214.8,49.2,214.8z
			 M49.2,222.6c1.4,0,1.7-1.6,1.7-3.1s-0.3-3.1-1.7-3.1s-1.7,1.6-1.7,3.1S47.8,222.6,49.2,222.6z"/>
		<path class="st1" d="M55.1,210.8h2.2v13.2h-2.2V210.8z"/>
		<path class="st1" d="M59.7,215h2.2v9.1h-2.2V215z M60.9,211.4h2l-1.8,2.5h-1.4L60.9,211.4z"/>
		<path class="st1" d="M64.9,213.1l2.2-0.7v2.5h1.8v1.6h-1.8v4.7c0,1,0.4,1.3,1,1.3c0.4,0,0.7-0.1,0.8-0.2v1.6
			c-0.3,0.2-0.8,0.3-1.5,0.3c-1.6,0-2.5-0.7-2.5-2.6v-5h-1.4V215h1.4V213.1z"/>
		<path class="st1" d="M70.5,211.1h2.3v2.2h-2.3V211.1z M70.5,215h2.2v9.1h-2.2V215z"/>
		<path class="st1" d="M81.1,223.8c-0.5,0.2-1.3,0.4-2.2,0.4c-3,0-4.3-2.1-4.3-4.7c0-2.6,1.3-4.7,4.4-4.7c0.7,0,1.5,0.2,1.9,0.4
			l-0.1,1.7c-0.4-0.2-0.9-0.4-1.5-0.4c-1.7,0-2.4,1.1-2.4,3.1c0,1.7,0.8,3,2.5,3c0.5,0,1.3-0.2,1.6-0.4L81.1,223.8z"/>
		<path class="st1" d="M86.2,214.8c1.9,0,4,1,4,4.7c0,3.8-2.1,4.7-4,4.7s-4-0.9-4-4.7C82.2,215.8,84.3,214.8,86.2,214.8z
			 M86.2,222.6c1.4,0,1.7-1.6,1.7-3.1s-0.3-3.1-1.7-3.1s-1.7,1.6-1.7,3.1S84.8,222.6,86.2,222.6z"/>
		<path class="st1" d="M96.5,216.5c0-0.6,0-1.1-0.1-1.5h2c0,0.5,0.1,0.9,0.1,1.4h0c0.3-0.5,0.9-1.5,2.4-1.5c2.1,0,2.7,1.5,2.7,3.4
			v5.9h-2.2v-5.5c0-1.4-0.4-2-1.3-2c-1.1,0-1.6,1-1.6,2.1v5.3h-2.2V216.5z"/>
		<path class="st1" d="M109.4,214.8c1.9,0,4,1,4,4.7c0,3.8-2.1,4.7-4,4.7s-4-0.9-4-4.7C105.4,215.8,107.5,214.8,109.4,214.8z
			 M109.4,222.6c1.4,0,1.7-1.6,1.7-3.1s-0.3-3.1-1.7-3.1s-1.7,1.6-1.7,3.1S108,222.6,109.4,222.6z"/>
		<path class="st1" d="M121.9,210.8v5.5h0c0.3-0.7,1-1.4,2.3-1.4c2,0,3.1,1.7,3.1,4.7c0,2.5-0.9,4.7-3.2,4.7c-1.4,0-2.1-0.8-2.4-1.6
			h-0.1c0,0.6,0,1.1-0.1,1.4h-2c0.1-0.3,0.1-0.9,0.1-1.6v-11.7H121.9z M123.7,222.6c1.3,0,1.6-1.1,1.6-3.2c0-1.8-0.4-3-1.6-3
			c-1.2,0-1.7,1.3-1.7,3.1C121.9,221.2,122.4,222.6,123.7,222.6z"/>
		<path class="st1" d="M135.9,223.6c-0.5,0.2-1.4,0.6-2.7,0.6c-2.9,0-4.2-2.1-4.2-4.6c0-2.7,1.4-4.8,3.7-4.8c2,0,3.6,1.1,3.6,4.9
			v0.4h-5.3c0,1.6,0.6,2.5,2.3,2.5c1.3,0,2-0.4,2.4-0.7L135.9,223.6z M134.2,218.7c0-1.6-0.5-2.4-1.5-2.4c-1.1,0-1.6,1.2-1.6,2.4
			H134.2z"/>
		<path class="st1" d="M138,216.5c0-0.6,0-1.1-0.1-1.5h2c0,0.5,0.1,0.9,0.1,1.4h0c0.3-0.5,0.9-1.5,2.4-1.5c2.1,0,2.7,1.5,2.7,3.4
			v5.9H143v-5.5c0-1.4-0.4-2-1.3-2c-1.1,0-1.6,1-1.6,2.1v5.3H138V216.5z"/>
		<path class="st1" d="M146.7,222.2l3.9-5.5h-3.8V215h5.9v1.9l-3.8,5.6h3.9v1.7h-6.2V222.2z"/>
		<path class="st1" d="M158.1,214.8c1.9,0,4,1,4,4.7c0,3.8-2.1,4.7-4,4.7s-4-0.9-4-4.7C154.1,215.8,156.3,214.8,158.1,214.8z
			 M158.1,222.6c1.4,0,1.7-1.6,1.7-3.1s-0.3-3.1-1.7-3.1s-1.7,1.6-1.7,3.1S156.7,222.6,158.1,222.6z"/>
		<path class="st1" d="M171.3,210.8v11.7c0,0.7,0,1.2,0.1,1.6h-2c0-0.3-0.1-0.8-0.1-1.4h-0.1c-0.4,0.8-1,1.6-2.4,1.6
			c-2.3,0-3.2-2.2-3.2-4.7c0-3,1.2-4.7,3.1-4.7c1.3,0,2,0.7,2.3,1.4h0v-5.5H171.3z M167.4,222.6c1.3,0,1.7-1.4,1.7-3.1
			c0-1.8-0.5-3.1-1.7-3.1c-1.2,0-1.6,1.2-1.6,3C165.8,221.5,166.1,222.6,167.4,222.6z"/>
		<path class="st1" d="M173.5,211.1h2.3v2.2h-2.3V211.1z M173.5,215h2.2v9.1h-2.2V215z"/>
		<path class="st1" d="M178.4,215.5c0.6-0.3,1.5-0.7,2.9-0.7c2.8,0,3.5,1.4,3.5,3.7v4c0,0.7,0.1,1.3,0.1,1.6h-2
			c-0.1-0.4-0.1-0.8-0.1-1.2h0c-0.5,0.7-1.2,1.4-2.5,1.4c-1.4,0-2.7-1-2.7-2.7c0-2.5,2-3.1,4.8-3.1h0.4v-0.3c0-0.9-0.4-1.7-1.7-1.7
			c-1.1,0-2.1,0.5-2.5,0.9L178.4,215.5z M182.7,219.6h-0.2c-1.9,0-3,0.4-3,1.7c0,0.8,0.5,1.4,1.4,1.4c1.3,0,1.8-1,1.8-2.6V219.6z"/>
		<path class="st1" d="M192.9,223.8c-0.5,0.2-1.3,0.4-2.2,0.4c-3,0-4.3-2.1-4.3-4.7c0-2.6,1.3-4.7,4.4-4.7c0.7,0,1.5,0.2,1.9,0.4
			l-0.1,1.7c-0.4-0.2-0.9-0.4-1.5-0.4c-1.7,0-2.4,1.1-2.4,3.1c0,1.7,0.8,3,2.5,3c0.5,0,1.3-0.2,1.6-0.4L192.9,223.8z"/>
		<path class="st1" d="M200.9,223.6c-0.5,0.2-1.4,0.6-2.7,0.6c-2.9,0-4.2-2.1-4.2-4.6c0-2.7,1.4-4.8,3.7-4.8c2,0,3.6,1.1,3.6,4.9
			v0.4h-5.3c0,1.6,0.6,2.5,2.3,2.5c1.3,0,2-0.4,2.4-0.7L200.9,223.6z M199.3,218.7c0-1.6-0.5-2.4-1.5-2.4c-1.1,0-1.6,1.2-1.6,2.4
			H199.3z"/>
		<path class="st1" d="M203.1,216.5c0-0.7,0-1.2-0.1-1.6h2c0,0.3,0.1,0.8,0.1,1.4h0.1c0.4-0.8,1-1.6,2.4-1.6c2.3,0,3.2,2.2,3.2,4.7
			c0,3-1.2,4.7-3.1,4.7c-1.3,0-2-0.7-2.3-1.4h0v5.1h-2.2V216.5z M207,222.6c1.2,0,1.6-1.2,1.6-3c0-2.1-0.3-3.2-1.6-3.2
			c-1.3,0-1.7,1.4-1.7,3.1C205.3,221.3,205.8,222.6,207,222.6z"/>
		<path class="st1" d="M212.8,215h2.2v9.1h-2.2V215z M214,211.4h2l-1.8,2.5h-1.4L214,211.4z"/>
		<path class="st1" d="M217.2,216.5c0-0.6,0-1.1-0.1-1.5h2c0,0.5,0.1,0.9,0.1,1.4h0c0.3-0.5,0.9-1.5,2.4-1.5c2.1,0,2.7,1.5,2.7,3.4
			v5.9h-2.2v-5.5c0-1.4-0.4-2-1.3-2c-1.1,0-1.6,1-1.6,2.1v5.3h-2.2V216.5z"/>
		<path class="st1" d="M226.5,211.1h2.3v2.2h-2.3V211.1z M226.5,215h2.2v9.1h-2.2V215z"/>
		<path class="st1" d="M237.1,223.8c-0.5,0.2-1.3,0.4-2.2,0.4c-3,0-4.3-2.1-4.3-4.7c0-2.6,1.3-4.7,4.4-4.7c0.7,0,1.5,0.2,1.9,0.4
			l-0.1,1.7c-0.4-0.2-0.9-0.4-1.5-0.4c-1.7,0-2.4,1.1-2.4,3.1c0,1.7,0.8,3,2.5,3c0.5,0,1.3-0.2,1.6-0.4L237.1,223.8z"/>
		<path class="st1" d="M242.2,214.8c1.9,0,4,1,4,4.7c0,3.8-2.1,4.7-4,4.7s-4-0.9-4-4.7C238.2,215.8,240.3,214.8,242.2,214.8z
			 M242.2,222.6c1.4,0,1.7-1.6,1.7-3.1s-0.3-3.1-1.7-3.1s-1.7,1.6-1.7,3.1S240.8,222.6,242.2,222.6z"/>
		<path class="st1" d="M247.4,217.1c0.5,0.3,1,0.4,1.4,0.4c0.8,0,1.5-0.6,1.5-1.4c0-0.7-0.5-1.2-1.4-1.2h-0.7v-0.7h0.4
			c1.1,0,1.7-0.5,1.7-1.3c0-0.7-0.5-1.2-1.3-1.2c-0.4,0-0.9,0.2-1.3,0.4l-0.1-0.8c0.5-0.2,1-0.3,1.6-0.3c1.1,0,2,0.6,2,1.8
			c0,1-0.6,1.5-1.3,1.7v0c0.9,0.1,1.4,0.9,1.4,1.8c0,1.1-0.8,2.1-2.3,2.1c-0.5,0-1.1-0.1-1.5-0.3L247.4,217.1z"/>
	</g>
</g>
<g>
	<g>
		<path class="st1" d="M331.3,199.7c-0.7,0.2-1.5,0.4-2.2,0.4c-3.9,0-5.5-3-5.5-6.3c0-3.8,2.2-6.3,5.5-6.3c0.9,0,1.8,0.2,2.3,0.4
			v1.5c-0.7-0.4-1.4-0.6-2.3-0.6c-2,0-3.8,1.6-3.8,4.6c0,3.2,1.3,5.3,4,5.3c0.8,0,1.6-0.2,2.2-0.6V199.7z"/>
		<path class="st1" d="M336.4,190.8c2.4,0,3.6,1.8,3.6,4.6c0,2.8-1.2,4.6-3.6,4.6c-2.4,0-3.6-1.8-3.6-4.6
			C332.8,192.6,334,190.8,336.4,190.8z M336.4,198.9c1.4,0,2.1-1.2,2.1-3.4s-0.7-3.4-2.1-3.4s-2.1,1.2-2.1,3.4
			S335,198.9,336.4,198.9z"/>
		<path class="st1" d="M341.7,192.9c0-0.7-0.1-1.3-0.1-1.9h1.4l0.1,1.3h0c0.5-1,1.2-1.5,2.3-1.5c1.6,0,2.6,0.9,2.6,2.9v6.3h-1.5
			v-5.8c0-1.4-0.5-2-1.5-2c-1.2,0-1.9,0.8-1.9,2.4v5.4h-1.5V192.9z"/>
		<path class="st1" d="M354.8,191.5c0.7-0.5,1.7-0.7,2.5-0.7c1.3,0,2.1,0.6,2.4,0.8c0.4,0.4,0.8,0.9,0.8,2.2v4.7
			c0,0.5,0,1.1,0.1,1.4h-1.3l-0.1-1.2h0c-0.4,0.7-1.1,1.3-2.5,1.3c-1.5,0-2.6-0.9-2.6-2.6c0-1.7,1.1-3,4.2-3h0.9V194
			c0-0.7-0.1-1.1-0.3-1.4c-0.3-0.4-0.9-0.6-1.5-0.6c-0.9,0-1.8,0.4-2.3,0.9L354.8,191.5z M359.1,195.5c-0.3,0-0.6,0-1,0
			c-1.7,0-2.6,0.8-2.6,1.9c0,1,0.5,1.6,1.5,1.6c1.3,0,2.1-1,2.1-2.3V195.5z"/>
		<path class="st1" d="M362.8,186.7h1.5v13.2h-1.5V186.7z"/>
		<path class="st1" d="M370.5,199.8c-0.4,0.1-0.8,0.2-1.3,0.2c-1.4,0-2.1-0.5-2.1-2.1v-5.8h-1.4v-1.2h1.4v-1.8l1.5-0.4v2.3h1.9v1.2
			h-1.9v5.3c0,1,0.3,1.4,0.9,1.4c0.4,0,0.6-0.1,0.9-0.2V199.8z"/>
		<path class="st1" d="M375,190.8c2.4,0,3.6,1.8,3.6,4.6c0,2.8-1.2,4.6-3.6,4.6c-2.4,0-3.6-1.8-3.6-4.6
			C371.4,192.6,372.6,190.8,375,190.8z M375,198.9c1.4,0,2.1-1.2,2.1-3.4s-0.7-3.4-2.1-3.4s-2.1,1.2-2.1,3.4S373.6,198.9,375,198.9z
			"/>
		<path class="st1" d="M384.4,192.6c0-0.5-0.1-1.1-0.1-1.7h1.4l0.1,1.3h0c0.4-0.7,1.1-1.4,2.4-1.4c1.9,0,3.1,1.5,3.1,4.6
			s-1.3,4.6-3.1,4.6c-1,0-1.7-0.4-2.3-1.4h0v5h-1.5V192.6z M387.9,198.9c1.4,0,2-1.2,2-3.4s-0.6-3.4-2-3.4s-2,1.2-2,3.4
			S386.5,198.9,387.9,198.9z"/>
		<path class="st1" d="M394.1,195.9c0,2.1,0.8,3.1,2.5,3.1c0.7,0,1.6-0.4,2.1-0.7l0.1,1.3c-0.7,0.3-1.6,0.5-2.5,0.5
			c-2.4,0-3.6-1.8-3.6-4.6c0-2.8,1.2-4.6,3.5-4.6c2,0,3.2,1.6,3.2,4.3v0.8H394.1z M397.7,194.7c0-1.9-0.6-2.8-1.8-2.8
			c-1,0-1.8,0.7-1.8,2.8H397.7z"/>
		<path class="st1" d="M400.9,192.9c0-0.7-0.1-1.3-0.1-1.9h1.4l0.1,1.4h0c0.5-1.1,1.2-1.5,2.6-1.5v1.5c-0.2,0-0.4-0.1-0.6-0.1
			c-1.1,0-2,1-2,2.9v4.8h-1.5V192.9z"/>
		<path class="st1" d="M406.7,192.1h-1.4v-1.2h1.4v-2c0-1.5,0.7-2.4,2.2-2.4c0.4,0,0.8,0.1,1.2,0.1v1.3c-0.2-0.1-0.5-0.2-0.8-0.2
			c-0.8,0-1.1,0.5-1.1,1.4v1.9h1.6v1.2h-1.6v7.8h-1.5V192.1z M412.7,187.2v1.8h-1.6v-1.8H412.7z M411.1,190.9h1.5v9h-1.5V190.9z"/>
		<path class="st1" d="M415.1,186.7h1.5v13.2h-1.5V186.7z"/>
		<path class="st1" d="M429.6,198.3c0,0.5,0.1,1.1,0.1,1.7h-1.4l-0.1-1.3h0c-0.4,0.7-1.1,1.4-2.4,1.4c-1.9,0-3.1-1.5-3.1-4.6
			s1.3-4.6,3.1-4.6c1,0,1.7,0.4,2.3,1.4h0v-5.5h1.5V198.3z M426.1,192c-1.4,0-2,1.2-2,3.4s0.6,3.4,2,3.4s2-1.2,2-3.4
			S427.5,192,426.1,192z"/>
		<path class="st1" d="M432.7,195.9c0,2.1,0.8,3.1,2.5,3.1c0.7,0,1.6-0.4,2.1-0.7l0.1,1.3c-0.7,0.3-1.6,0.5-2.5,0.5
			c-2.4,0-3.6-1.8-3.6-4.6c0-2.8,1.2-4.6,3.5-4.6c2,0,3.2,1.6,3.2,4.3v0.8H432.7z M436.3,194.7c0-1.9-0.6-2.8-1.8-2.8
			c-1,0-1.8,0.7-1.8,2.8H436.3z"/>
		<path class="st1" d="M443.3,198.2c0.7,0.4,1.4,0.7,2.1,0.7c1.1,0,1.7-0.6,1.7-1.3c0-0.6-0.3-1-1.1-1.4l-1-0.4
			c-1.3-0.6-1.8-1.2-1.8-2.3c0-1.5,1.1-2.6,2.9-2.6c0.7,0,1.4,0.1,1.9,0.3l-0.1,1.3c-0.5-0.2-1.1-0.4-1.8-0.4c-1,0-1.5,0.5-1.5,1.2
			c0,0.7,0.5,1.1,1.5,1.5l0.5,0.2c1.1,0.4,1.8,1.2,1.8,2.3c0,1.6-0.8,2.8-2.9,2.8c-0.9,0-1.8-0.2-2.4-0.5L443.3,198.2z"/>
		<path class="st1" d="M451.3,195.9c0,2.1,0.8,3.1,2.5,3.1c0.7,0,1.6-0.4,2.1-0.7l0.1,1.3c-0.7,0.3-1.6,0.5-2.5,0.5
			c-2.4,0-3.6-1.8-3.6-4.6c0-2.8,1.2-4.6,3.5-4.6c2,0,3.2,1.6,3.2,4.3v0.8H451.3z M454.9,194.7c0-1.9-0.6-2.8-1.8-2.8
			c-1,0-1.8,0.7-1.8,2.8H454.9z"/>
		<path class="st1" d="M464.5,200.3c0,2.5-1.9,3.5-3.8,3.5c-0.8,0-2-0.3-2.6-0.5l0.1-1.5c0.6,0.4,1.7,0.8,2.5,0.8
			c1.8,0,2.5-1.1,2.5-2.6v-1.4h0c-0.6,1-1.4,1.5-2.4,1.5c-1.9,0-3.1-1.5-3.1-4.6s1.3-4.6,3.3-4.6c0.9,0,1.7,0.6,2.2,1.4h0l0.1-1.3
			h1.4c0,0.5-0.1,1.1-0.1,1.6V200.3z M461,198.9c1.4,0,2-1.2,2-3.4s-0.6-3.4-2-3.4s-2,1.2-2,3.4S459.7,198.9,461,198.9z"/>
		<path class="st1" d="M472.9,198c0,0.7,0.1,1.3,0.1,1.9h-1.4l-0.1-1.3h0c-0.5,1-1.2,1.5-2.3,1.5c-1.6,0-2.6-0.9-2.6-2.9v-6.3h1.5
			v5.8c0,1.4,0.5,2,1.5,2c1.2,0,1.9-0.8,1.9-2.4v-5.4h1.5V198z"/>
		<path class="st1" d="M475,192.9c0-0.7-0.1-1.3-0.1-1.9h1.4l0.1,1.4h0c0.5-1.1,1.2-1.5,2.6-1.5v1.5c-0.2,0-0.4-0.1-0.6-0.1
			c-1.1,0-2,1-2,2.9v4.8H475V192.9z"/>
		<path class="st1" d="M481.9,187.2v1.8h-1.6v-1.8H481.9z M480.4,190.9h1.5v9h-1.5V190.9z"/>
		<path class="st1" d="M490.6,198.3c0,0.5,0.1,1.1,0.1,1.7h-1.4l-0.1-1.3h0c-0.4,0.7-1.1,1.4-2.4,1.4c-1.9,0-3.1-1.5-3.1-4.6
			s1.3-4.6,3.1-4.6c1,0,1.7,0.4,2.3,1.4h0v-5.5h1.5V198.3z M487.2,192c-1.4,0-2,1.2-2,3.4s0.6,3.4,2,3.4s2-1.2,2-3.4
			S488.5,192,487.2,192z"/>
		<path class="st1" d="M493,191.5c0.7-0.5,1.7-0.7,2.5-0.7c1.3,0,2.1,0.6,2.4,0.8c0.4,0.4,0.8,0.9,0.8,2.2v4.7c0,0.5,0,1.1,0.1,1.4
			h-1.3l-0.1-1.2h0c-0.4,0.7-1.1,1.3-2.5,1.3c-1.5,0-2.6-0.9-2.6-2.6c0-1.7,1.1-3,4.2-3h0.9V194c0-0.7-0.1-1.1-0.3-1.4
			c-0.3-0.4-0.9-0.6-1.5-0.6c-0.9,0-1.8,0.4-2.3,0.9L493,191.5z M497.3,195.5c-0.3,0-0.6,0-1,0c-1.7,0-2.6,0.8-2.6,1.9
			c0,1,0.5,1.6,1.5,1.6c1.3,0,2.1-1,2.1-2.3V195.5z"/>
		<path class="st1" d="M507.3,198.3c0,0.5,0.1,1.1,0.1,1.7h-1.4l-0.1-1.3h0c-0.4,0.7-1.1,1.4-2.4,1.4c-1.9,0-3.1-1.5-3.1-4.6
			s1.3-4.6,3.1-4.6c1,0,1.7,0.4,2.3,1.4h0v-5.5h1.5V198.3z M503.8,192c-1.4,0-2,1.2-2,3.4s0.6,3.4,2,3.4s2-1.2,2-3.4
			S505.2,192,503.8,192z"/>
		<path class="st1" d="M509.6,198h1.6l-1.2,4.1h-1.3L509.6,198z"/>
		<path class="st1" d="M517.3,186.7h1.5v13.2h-1.5V186.7z"/>
		<path class="st1" d="M524.2,190.8c2.4,0,3.6,1.8,3.6,4.6c0,2.8-1.2,4.6-3.6,4.6c-2.4,0-3.6-1.8-3.6-4.6
			C520.6,192.6,521.8,190.8,524.2,190.8z M524.2,198.9c1.4,0,2.1-1.2,2.1-3.4s-0.7-3.4-2.1-3.4s-2.1,1.2-2.1,3.4
			S522.8,198.9,524.2,198.9z"/>
		<path class="st1" d="M538.8,198.7L538.8,198.7c-0.6,1-1.3,1.4-2.3,1.4c-1.9,0-3.1-1.5-3.1-4.6s1.3-4.6,3.1-4.6
			c1.3,0,2,0.7,2.4,1.4h0l0.1-1.3h1.4c0,0.5-0.1,1.1-0.1,1.7v11.2h-1.5V198.7z M536.8,192c-1.4,0-2,1.2-2,3.4s0.6,3.4,2,3.4
			s2-1.2,2-3.4S538.2,192,536.8,192z"/>
		<path class="st1" d="M548.6,198c0,0.7,0.1,1.3,0.1,1.9h-1.4l-0.1-1.3h0c-0.5,1-1.2,1.5-2.3,1.5c-1.6,0-2.6-0.9-2.6-2.9v-6.3h1.5
			v5.8c0,1.4,0.5,2,1.5,2c1.2,0,1.9-0.8,1.9-2.4v-5.4h1.5V198z"/>
		<path class="st1" d="M551.9,195.9c0,2.1,0.8,3.1,2.5,3.1c0.7,0,1.6-0.4,2.1-0.7l0.1,1.3c-0.7,0.3-1.6,0.5-2.5,0.5
			c-2.4,0-3.6-1.8-3.6-4.6c0-2.8,1.2-4.6,3.5-4.6c2,0,3.2,1.6,3.2,4.3v0.8H551.9z M555.5,194.7c0-1.9-0.6-2.8-1.8-2.8
			c-1,0-1.8,0.7-1.8,2.8H555.5z"/>
		<path class="st1" d="M323.6,213.8c0-0.5-0.1-1.1-0.1-1.7h1.4l0.1,1.3h0c0.4-0.7,1.1-1.4,2.4-1.4c1.9,0,3.1,1.5,3.1,4.6
			c0,3.1-1.3,4.6-3.1,4.6c-1,0-1.7-0.4-2.3-1.4h0v5h-1.5V213.8z M327.1,220c1.4,0,2-1.2,2-3.4s-0.6-3.4-2-3.4s-2,1.2-2,3.4
			S325.7,220,327.1,220z"/>
		<path class="st1" d="M333.3,217.1c0,2.1,0.8,3.1,2.5,3.1c0.7,0,1.6-0.4,2.1-0.7l0.1,1.3c-0.7,0.3-1.6,0.5-2.5,0.5
			c-2.4,0-3.6-1.8-3.6-4.6s1.2-4.6,3.5-4.6c2,0,3.2,1.6,3.2,4.3v0.8H333.3z M336.9,215.9c0-1.9-0.6-2.8-1.8-2.8
			c-1,0-1.8,0.7-1.8,2.8H336.9z"/>
		<path class="st1" d="M340.1,214.1c0-0.7-0.1-1.3-0.1-1.9h1.4l0.1,1.4h0c0.5-1.1,1.2-1.5,2.6-1.5v1.5c-0.2,0-0.4-0.1-0.6-0.1
			c-1.1,0-2,1-2,2.9v4.8h-1.5V214.1z"/>
		<path class="st1" d="M345.3,214.1c0-0.7-0.1-1.3-0.1-1.9h1.4l0.1,1.3h0c0.5-1,1.2-1.5,2.2-1.5c1,0,1.7,0.5,2.1,1.4
			c0.5-0.9,1.2-1.4,2.2-1.4c1.6,0,2.6,0.9,2.6,2.9v6.2h-1.5v-6.2c0-1.1-0.5-1.7-1.4-1.7c-1.1,0-1.7,0.7-1.7,2.3v5.6h-1.5v-6.2
			c0-1.1-0.5-1.7-1.4-1.7c-1.1,0-1.7,0.7-1.7,2.3v5.6h-1.5V214.1z"/>
		<path class="st1" d="M359.7,208.4v1.8h-1.6v-1.8H359.7z M358.2,212.1h1.5v9h-1.5V212.1z"/>
		<path class="st1" d="M365.9,221c-0.4,0.1-0.8,0.2-1.3,0.2c-1.4,0-2.1-0.5-2.1-2.1v-5.8h-1.4v-1.2h1.4v-1.8l1.5-0.4v2.3h1.9v1.2
			h-1.9v5.3c0,1,0.3,1.4,0.9,1.4c0.4,0,0.6-0.1,0.9-0.2V221z"/>
		<path class="st1" d="M368.3,217.1c0,2.1,0.8,3.1,2.5,3.1c0.7,0,1.6-0.4,2.1-0.7l0.1,1.3c-0.7,0.3-1.6,0.5-2.5,0.5
			c-2.4,0-3.6-1.8-3.6-4.6s1.2-4.6,3.5-4.6c2,0,3.2,1.6,3.2,4.3v0.8H368.3z M371.9,215.9c0-1.9-0.6-2.8-1.8-2.8
			c-1,0-1.8,0.7-1.8,2.8H371.9z"/>
		<path class="st1" d="M379.4,207.9h1.5v13.2h-1.5V207.9z"/>
		<path class="st1" d="M383.5,212.7c0.7-0.5,1.7-0.7,2.5-0.7c1.3,0,2.1,0.6,2.4,0.8c0.4,0.4,0.8,0.9,0.8,2.2v4.7
			c0,0.5,0,1.1,0.1,1.4H388l-0.1-1.2h0c-0.4,0.7-1.1,1.3-2.5,1.3c-1.5,0-2.6-0.9-2.6-2.6c0-1.7,1.1-3,4.2-3h0.9v-0.4
			c0-0.7-0.1-1.1-0.3-1.4c-0.3-0.4-0.9-0.6-1.5-0.6c-0.9,0-1.8,0.4-2.3,0.9L383.5,212.7z M387.8,216.7c-0.3,0-0.6,0-1,0
			c-1.7,0-2.6,0.8-2.6,1.9c0,1,0.5,1.6,1.5,1.6c1.3,0,2.1-1,2.1-2.3V216.7z"/>
		<path class="st1" d="M395.9,212.7c0.7-0.5,1.7-0.7,2.5-0.7c1.3,0,2.1,0.6,2.4,0.8c0.4,0.4,0.8,0.9,0.8,2.2v4.7
			c0,0.5,0,1.1,0.1,1.4h-1.3l-0.1-1.2h0c-0.4,0.7-1.1,1.3-2.5,1.3c-1.5,0-2.6-0.9-2.6-2.6c0-1.7,1.1-3,4.2-3h0.9v-0.4
			c0-0.7-0.1-1.1-0.3-1.4c-0.3-0.4-0.9-0.6-1.5-0.6c-0.9,0-1.8,0.4-2.3,0.9L395.9,212.7z M400.2,216.7c-0.3,0-0.6,0-1,0
			c-1.7,0-2.6,0.8-2.6,1.9c0,1,0.5,1.6,1.5,1.6c1.3,0,2.1-1,2.1-2.3V216.7z"/>
		<path class="st1" d="M410.2,219.5c0,0.5,0.1,1.1,0.1,1.7h-1.4l-0.1-1.3h0c-0.4,0.7-1.1,1.4-2.4,1.4c-1.9,0-3.1-1.5-3.1-4.6
			c0-3.1,1.3-4.6,3.1-4.6c1,0,1.7,0.4,2.3,1.4h0v-5.5h1.5V219.5z M406.8,213.2c-1.4,0-2,1.2-2,3.4s0.6,3.4,2,3.4s2-1.2,2-3.4
			S408.1,213.2,406.8,213.2z"/>
		<path class="st1" d="M412.3,214.1c0-0.7-0.1-1.3-0.1-1.9h1.4l0.1,1.3h0c0.5-1,1.2-1.5,2.2-1.5c1,0,1.7,0.5,2.1,1.4
			c0.5-0.9,1.2-1.4,2.2-1.4c1.6,0,2.6,0.9,2.6,2.9v6.2h-1.5v-6.2c0-1.1-0.5-1.7-1.4-1.7c-1.1,0-1.7,0.7-1.7,2.3v5.6h-1.5v-6.2
			c0-1.1-0.5-1.7-1.4-1.7c-1.1,0-1.7,0.7-1.7,2.3v5.6h-1.5V214.1z"/>
		<path class="st1" d="M426.7,208.4v1.8h-1.6v-1.8H426.7z M425.1,212.1h1.5v9h-1.5V212.1z"/>
		<path class="st1" d="M428.9,214.1c0-0.7-0.1-1.3-0.1-1.9h1.4l0.1,1.3h0c0.5-1,1.2-1.5,2.3-1.5c1.6,0,2.6,0.9,2.6,2.9v6.2h-1.5
			v-5.8c0-1.4-0.5-2-1.5-2c-1.2,0-1.9,0.8-1.9,2.4v5.4h-1.5V214.1z"/>
		<path class="st1" d="M439.1,208.4v1.8h-1.6v-1.8H439.1z M437.6,212.1h1.5v9h-1.5V212.1z"/>
		<path class="st1" d="M441,219.4c0.7,0.4,1.4,0.7,2.1,0.7c1.1,0,1.7-0.6,1.7-1.3c0-0.6-0.3-1-1.1-1.4l-1-0.4
			c-1.3-0.6-1.8-1.2-1.8-2.3c0-1.5,1.1-2.6,2.9-2.6c0.7,0,1.4,0.1,1.9,0.3l-0.1,1.3c-0.5-0.2-1.1-0.4-1.8-0.4c-1,0-1.5,0.5-1.5,1.2
			c0,0.7,0.5,1.1,1.5,1.5l0.5,0.2c1.1,0.4,1.8,1.2,1.8,2.3c0,1.6-0.8,2.8-2.9,2.8c-0.9,0-1.8-0.2-2.4-0.5L441,219.4z"/>
		<path class="st1" d="M451.9,221c-0.4,0.1-0.8,0.2-1.3,0.2c-1.4,0-2.1-0.5-2.1-2.1v-5.8h-1.4v-1.2h1.4v-1.8l1.5-0.4v2.3h1.9v1.2
			H450v5.3c0,1,0.3,1.4,0.9,1.4c0.4,0,0.6-0.1,0.9-0.2V221z"/>
		<path class="st1" d="M453.1,214.1c0-0.7-0.1-1.3-0.1-1.9h1.4l0.1,1.4h0c0.5-1.1,1.2-1.5,2.6-1.5v1.5c-0.2,0-0.4-0.1-0.6-0.1
			c-1.1,0-2,1-2,2.9v4.8h-1.5V214.1z"/>
		<path class="st1" d="M458.7,212.7c0.7-0.5,1.7-0.7,2.5-0.7c1.3,0,2.1,0.6,2.4,0.8c0.4,0.4,0.8,0.9,0.8,2.2v4.7
			c0,0.5,0,1.1,0.1,1.4h-1.3l-0.1-1.2h0c-0.4,0.7-1.1,1.3-2.5,1.3c-1.5,0-2.6-0.9-2.6-2.6c0-1.7,1.1-3,4.2-3h0.9v-0.4
			c0-0.7-0.1-1.1-0.3-1.4c-0.3-0.4-0.9-0.6-1.5-0.6c-0.9,0-1.8,0.4-2.3,0.9L458.7,212.7z M463,216.7c-0.3,0-0.6,0-1,0
			c-1.7,0-2.6,0.8-2.6,1.9c0,1,0.5,1.6,1.5,1.6c1.3,0,2.1-1,2.1-2.3V216.7z"/>
		<path class="st1" d="M471.8,213.7c-0.5-0.3-1-0.4-1.7-0.4c-1.4,0-2.5,1-2.5,3.4c0,2.1,1,3.3,2.4,3.3c0.7,0,1.3-0.2,1.8-0.5
			l0.1,1.4c-0.4,0.2-1.2,0.4-1.9,0.4c-2.7,0-4-2-4-4.5c0-2.9,1.5-4.7,4-4.7c0.6,0,1.3,0.1,1.8,0.4L471.8,213.7z"/>
		<path class="st1" d="M475.1,208.4v1.8h-1.6v-1.8H475.1z M473.5,212.1h1.5v9h-1.5V212.1z"/>
		<path class="st1" d="M480.5,212c2.4,0,3.6,1.8,3.6,4.6s-1.2,4.6-3.6,4.6c-2.4,0-3.6-1.8-3.6-4.6S478.1,212,480.5,212z M480.5,220
			c1.4,0,2.1-1.2,2.1-3.4s-0.7-3.4-2.1-3.4s-2.1,1.2-2.1,3.4S479.1,220,480.5,220z M480.8,208.3h1.7l-1.8,2.6h-1.1L480.8,208.3z"/>
		<path class="st1" d="M485.8,214.1c0-0.7-0.1-1.3-0.1-1.9h1.4l0.1,1.3h0c0.5-1,1.2-1.5,2.3-1.5c1.6,0,2.6,0.9,2.6,2.9v6.2h-1.5
			v-5.8c0-1.4-0.5-2-1.5-2c-1.2,0-1.9,0.8-1.9,2.4v5.4h-1.5V214.1z"/>
		<path class="st2" d="M506.8,219.1c0,0.7,0.1,1.5,0.1,2H504c0-0.4-0.1-0.8-0.1-1.3c-0.9,1-1.6,1.5-2.8,1.5c-1.6,0-2.8-1.2-2.8-2.9
			c0-2,1.5-3.1,4.7-3.1h0.8V215c0-0.6-0.5-1.3-1.7-1.3c-1,0-2,0.4-2.6,0.9l-0.1-2.3c0.8-0.3,1.9-0.6,3.4-0.6c3.2,0,3.9,1.5,3.9,3.4
			V219.1z M503.9,216.7h-0.4c-1.4,0-2.3,0.4-2.3,1.5c0,0.8,0.4,1.1,1.1,1.1c1.5,0,1.6-1.5,1.6-2.3V216.7z"/>
		<path class="st2" d="M513.1,213.4c0-0.7-0.1-1.3-0.1-1.5h3.1c0,0.4,0.1,0.9,0.1,1.4h0c0.7-1.2,1.5-1.6,2.4-1.6
			c2.4,0,3.4,2.2,3.4,5c0,2.2-1,4.6-3.3,4.6c-1.2,0-1.9-0.5-2.5-1.6h0c0,0.4,0.1,1,0.1,1.6v3.6h-3.2V213.4z M517.5,219.1
			c0.9,0,1.2-1,1.2-2.6c0-1.5-0.3-2.6-1.1-2.6c-0.8,0-1.3,1.1-1.3,2.6C516.3,218.1,516.7,219.1,517.5,219.1z"/>
		<path class="st2" d="M531.6,219.1c0,0.7,0.1,1.5,0.1,2h-2.8c0-0.4-0.1-0.8-0.1-1.3c-0.9,1-1.6,1.5-2.8,1.5c-1.6,0-2.8-1.2-2.8-2.9
			c0-2,1.5-3.1,4.7-3.1h0.8V215c0-0.6-0.5-1.3-1.7-1.3c-1,0-2,0.4-2.6,0.9l-0.1-2.3c0.8-0.3,1.9-0.6,3.4-0.6c3.2,0,3.9,1.5,3.9,3.4
			V219.1z M528.8,216.7h-0.4c-1.4,0-2.3,0.4-2.3,1.5c0,0.8,0.4,1.1,1.1,1.1c1.5,0,1.6-1.5,1.6-2.3V216.7z"/>
		<path class="st2" d="M533.4,214.6c0-1.3-0.1-2.2-0.1-2.7h3c0.1,0.4,0.1,1,0.1,1.5h0c0.3-0.7,0.8-1.7,2.3-1.7c0.2,0,0.3,0,0.5,0.1
			v2.8c-0.1-0.1-0.6-0.1-1-0.1c-1,0-1.7,0.9-1.7,2.1v4.6h-3.2V214.6z"/>
		<path class="st2" d="M539.9,211.9h1.6V210l3.2-1v2.9h1.8v2.2h-1.8v3.9c0,0.8,0.5,1.1,1,1.1c0.3,0,0.6-0.1,0.7-0.1l0.1,2.2
			c-0.4,0.1-1.2,0.2-2.1,0.2c-1.7,0-2.9-1-2.9-2.7v-4.6h-1.6V211.9z"/>
		<path class="st2" d="M547.9,207.9h3.2v2.6h-3.2V207.9z M547.9,211.9h3.2v9.2h-3.2V211.9z"/>
		<path class="st2" d="M553,214.6c0-1.3-0.1-2.2-0.1-2.7h3c0.1,0.4,0.1,1,0.1,1.5h0c0.3-0.7,0.8-1.7,2.3-1.7c0.2,0,0.3,0,0.5,0.1
			v2.8c-0.1-0.1-0.6-0.1-1-0.1c-1,0-1.7,0.9-1.7,2.1v4.6H553V214.6z"/>
		<path class="st2" d="M573.4,219.5c0,0.5,0,1.1,0.1,1.6h-3c0-0.5-0.1-1-0.1-1.5h0c-0.7,1.2-1.5,1.6-2.4,1.6c-2.4,0-3.4-2.2-3.4-5
			c0-2.2,1-4.6,3.3-4.6c1.2,0,1.9,0.5,2.5,1.6h0c0-0.4-0.1-1-0.1-1.6v-3.7h3.2V219.5z M569,219c0.8,0,1.2-1.1,1.2-2.6
			c0-1.5-0.4-2.6-1.2-2.6c-0.9,0-1.2,1-1.2,2.6C567.7,218,568,219,569,219z"/>
		<path class="st2" d="M577.9,217.4c0.1,1.5,1.1,1.9,2.3,1.9c0.9,0,1.9-0.4,2.7-0.7l0.1,2.2c-0.8,0.2-1.9,0.5-3.2,0.5
			c-3.7,0-4.8-2.5-4.8-4.9c0-2.5,1.5-4.8,4.3-4.8c2.9,0,4.2,2.3,4.2,4.8v0.9H577.9z M580.5,215.7v-0.3c0-1.2-0.3-1.8-1.3-1.8
			c-0.9,0-1.4,0.8-1.4,2.1H580.5z"/>
		<path class="st2" d="M323.7,229.1h3.2v13.2h-3.2V229.1z"/>
		<path class="st2" d="M333.1,232.9c3.4,0,4.6,2.3,4.6,4.8c0,2.5-1.2,4.8-4.6,4.8s-4.6-2.3-4.6-4.8
			C328.5,235.2,329.8,232.9,333.1,232.9z M333.1,240.4c1.1,0,1.3-1.3,1.3-2.6s-0.2-2.7-1.3-2.7s-1.3,1.3-1.3,2.7
			S332,240.4,333.1,240.4z"/>
		<path class="st2" d="M339,239.6c0.5,0.2,1.3,0.7,2.4,0.7c0.9,0,1.3-0.2,1.3-0.7c0-0.3-0.2-0.5-1-0.8l-1-0.4
			c-1.5-0.5-1.9-1.4-1.9-2.6c0-1.6,1-3,3.8-3c1,0,1.9,0.2,2.6,0.4l-0.1,2.3c-0.6-0.3-1.4-0.6-2.3-0.6c-0.6,0-1.1,0.2-1.1,0.7
			c0,0.3,0.3,0.5,1.1,0.8l1.1,0.4c1.1,0.4,1.8,1,1.8,2.6c0,1.9-1.2,3-3.9,3c-1,0-2.3-0.2-2.8-0.4L339,239.6z"/>
		<path class="st2" d="M354.4,233.6l-1.6,1.6l-1.4-2.2l3.7-2.9h2.5v12.3h-3.2V233.6z"/>
		<path class="st2" d="M360.6,239.9l0.6-0.5c1.3-1.2,3.9-3.9,3.9-5.5c0-1.1-0.6-1.5-1.6-1.5c-1.1,0-1.9,0.5-2.5,1l-0.2-2.7
			c0.9-0.4,2-0.7,3.7-0.7c2.2,0,3.8,1.1,3.8,3.5c0,2.5-3.1,5.6-3.9,6.4l-0.3,0.3v0h4.3v2.4h-7.8V239.9z"/>
		<path class="st2" d="M382.6,240.3c0,0.7,0.1,1.5,0.1,2h-2.8c0-0.4-0.1-0.8-0.1-1.3c-0.9,1-1.6,1.5-2.8,1.5c-1.6,0-2.8-1.2-2.8-2.9
			c0-2,1.5-3.1,4.7-3.1h0.8v-0.3c0-0.6-0.5-1.3-1.7-1.3c-1,0-2,0.4-2.6,0.9l-0.1-2.3c0.8-0.3,1.9-0.6,3.4-0.6c3.2,0,3.9,1.5,3.9,3.4
			V240.3z M379.8,237.9h-0.4c-1.4,0-2.3,0.4-2.3,1.5c0,0.8,0.4,1.1,1.1,1.1c1.5,0,1.6-1.5,1.6-2.3V237.9z"/>
		<path class="st2" d="M384.4,235c0-0.7-0.1-1.4-0.1-1.9h3c0.1,0.4,0.1,1,0.1,1.5h0c0.2-0.5,0.8-1.7,2.6-1.7c1.6,0,2.8,0.9,2.8,3
			v6.4h-3.2v-5.5c0-0.9-0.3-1.3-0.9-1.3c-0.8,0-1.1,0.8-1.1,1.8v5h-3.2V235z M391.4,229.4c0,1.1-0.6,2.3-1.7,2.3
			c-0.3,0-0.7-0.1-1.1-0.2c-0.4-0.2-0.7-0.3-1-0.3c-0.3,0-0.5,0.2-0.5,0.6h-1.4c0-1.1,0.6-2.3,1.7-2.3c0.3,0,0.7,0.1,1.1,0.2
			c0.4,0.2,0.7,0.3,1,0.3c0.3,0,0.5-0.2,0.5-0.6H391.4z"/>
		<path class="st2" d="M398.9,232.9c3.4,0,4.6,2.3,4.6,4.8c0,2.5-1.2,4.8-4.6,4.8s-4.6-2.3-4.6-4.8
			C394.3,235.2,395.5,232.9,398.9,232.9z M398.9,240.4c1.1,0,1.3-1.3,1.3-2.6s-0.2-2.7-1.3-2.7s-1.3,1.3-1.3,2.7
			S397.8,240.4,398.9,240.4z"/>
		<path class="st2" d="M404.7,239.6c0.5,0.2,1.3,0.7,2.4,0.7c0.9,0,1.3-0.2,1.3-0.7c0-0.3-0.2-0.5-1-0.8l-1-0.4
			c-1.5-0.5-1.9-1.4-1.9-2.6c0-1.6,1-3,3.8-3c1,0,1.9,0.2,2.6,0.4l-0.1,2.3c-0.6-0.3-1.4-0.6-2.3-0.6c-0.6,0-1.1,0.2-1.1,0.7
			c0,0.3,0.3,0.5,1.1,0.8l1.1,0.4c1.1,0.4,1.8,1,1.8,2.6c0,1.9-1.2,3-3.9,3c-1,0-2.3-0.2-2.8-0.4L404.7,239.6z"/>
		<path class="st1" d="M412.4,235.3c0.5,0.3,1,0.4,1.4,0.4c0.8,0,1.5-0.6,1.5-1.4c0-0.7-0.5-1.2-1.4-1.2h-0.7v-0.7h0.4
			c1.1,0,1.7-0.5,1.7-1.3c0-0.7-0.5-1.2-1.3-1.2c-0.4,0-0.9,0.2-1.3,0.4l-0.1-0.8c0.5-0.2,1-0.3,1.6-0.3c1.1,0,2,0.6,2,1.8
			c0,1-0.6,1.5-1.3,1.7v0c0.9,0.1,1.4,0.9,1.4,1.8c0,1.1-0.8,2.1-2.3,2.1c-0.5,0-1.1-0.1-1.5-0.3L412.4,235.3z"/>
		<path class="st1" d="M417.6,235.3h0.9l-0.7,2.4h-0.8L417.6,235.3z"/>
		<path class="st1" d="M420,235.4c0.3,0.2,0.8,0.4,1.2,0.4c0.9,0,1.5-0.7,1.5-1.6c0-1-0.6-1.5-1.5-1.5c-0.4,0-0.7,0.1-1.2,0.2v-3.6
			h3.3v0.7h-2.4v2c0.2-0.1,0.5-0.1,0.8-0.1c1.1,0,2,0.7,2,2.1c0,1.5-0.8,2.5-2.3,2.5c-0.5,0-1-0.1-1.4-0.3L420,235.4z"/>
	</g>
</g>
<line class="st3" x1="0.5" y1="88.8" x2="618.2" y2="88.8"/>
<line class="st3" x1="0.5" y1="174.5" x2="618.2" y2="174.5"/>
<path class="st4" d="M284.6,63.2c-0.4,0-0.8,0-1.3,0c-0.1,0-0.1-0.1-0.2-0.1c-1.5-0.3-2.8-1.1-3.5-2.4c-0.4-0.6-0.5-1.3-0.8-2
	c0-0.4,0-0.9,0-1.3c0,0,0.1-0.1,0.1-0.1c0.2-1.2,0.7-2.1,1.6-2.9c3.5-3.5,7-7,10.5-10.5c0.1-0.1,0.2-0.2,0.3-0.3
	c-0.1-0.1-0.2-0.2-0.3-0.3c-3.5-3.5-7-7-10.5-10.6c-0.3-0.3-0.6-0.7-0.8-1.1c-0.3-0.6-0.5-1.3-0.7-1.9c0-0.4,0-0.9,0-1.3
	c0-0.1,0.1-0.1,0.1-0.2c0.3-1.5,1-2.7,2.3-3.5c0.6-0.4,1.4-0.5,2.1-0.8c0.4,0,0.8,0,1.3,0c0.1,0,0.1,0.1,0.2,0.1
	c1.1,0.2,2,0.6,2.8,1.4c5.9,5.9,11.8,11.8,17.6,17.6c0.2,0.2,0.4,0.3,0.5,0.5c0,0.1,0,0.1,0,0.2c-0.1,0.1-0.2,0.2-0.4,0.3
	c-5.9,5.9-11.8,11.8-17.7,17.7c-0.7,0.7-1.4,1.1-2.3,1.4C285.2,63.1,284.9,63.2,284.6,63.2z"/>
<path class="st5" d="M284.6,151c-0.4,0-0.8,0-1.3,0c-0.1,0-0.1-0.1-0.2-0.1c-1.5-0.3-2.8-1.1-3.5-2.4c-0.4-0.6-0.5-1.3-0.8-2
	c0-0.4,0-0.9,0-1.3c0,0,0.1-0.1,0.1-0.1c0.2-1.2,0.7-2.1,1.6-2.9c3.5-3.5,7-7,10.5-10.5c0.1-0.1,0.2-0.2,0.3-0.3
	c-0.1-0.1-0.2-0.2-0.3-0.3c-3.5-3.5-7-7-10.5-10.6c-0.3-0.3-0.6-0.7-0.8-1.1c-0.3-0.6-0.5-1.3-0.7-1.9c0-0.4,0-0.9,0-1.3
	c0-0.1,0.1-0.1,0.1-0.2c0.3-1.5,1-2.7,2.3-3.5c0.6-0.4,1.4-0.5,2.1-0.8c0.4,0,0.8,0,1.3,0c0.1,0,0.1,0.1,0.2,0.1
	c1.1,0.2,2,0.6,2.8,1.4c5.9,5.9,11.8,11.8,17.6,17.6c0.2,0.2,0.4,0.3,0.5,0.5c0,0.1,0,0.1,0,0.2c-0.1,0.1-0.2,0.2-0.4,0.3
	c-5.9,5.9-11.8,11.8-17.7,17.7c-0.7,0.7-1.4,1.1-2.3,1.4C285.2,150.9,284.9,150.9,284.6,151z"/>
<path class="st6" d="M284.6,235.5c-0.4,0-0.8,0-1.3,0c-0.1,0-0.1-0.1-0.2-0.1c-1.5-0.3-2.8-1.1-3.5-2.4c-0.4-0.6-0.5-1.3-0.8-2
	c0-0.4,0-0.9,0-1.3c0,0,0.1-0.1,0.1-0.1c0.2-1.2,0.7-2.1,1.6-2.9c3.5-3.5,7-7,10.5-10.5c0.1-0.1,0.2-0.2,0.3-0.3
	c-0.1-0.1-0.2-0.2-0.3-0.3c-3.5-3.5-7-7-10.5-10.6c-0.3-0.3-0.6-0.7-0.8-1.1c-0.3-0.6-0.5-1.3-0.7-1.9c0-0.4,0-0.9,0-1.3
	c0-0.1,0.1-0.1,0.1-0.2c0.3-1.5,1-2.7,2.3-3.5c0.6-0.4,1.4-0.5,2.1-0.8c0.4,0,0.8,0,1.3,0c0.1,0,0.1,0.1,0.2,0.1
	c1.1,0.2,2,0.6,2.8,1.4c5.9,5.9,11.8,11.8,17.6,17.6c0.2,0.2,0.4,0.3,0.5,0.5c0,0.1,0,0.1,0,0.2c-0.1,0.1-0.2,0.2-0.4,0.3
	c-5.9,5.9-11.8,11.8-17.7,17.7c-0.7,0.7-1.4,1.1-2.3,1.4C285.2,235.4,284.9,235.4,284.6,235.5z"/>
</svg>
