<!-- Generator: Adobe Illustrator 20.1.0, SVG Export Plug-In  -->
<svg version="1.1"
	 xmlns="http://www.w3.org/2000/svg" xmlns:xlink="http://www.w3.org/1999/xlink" xmlns:a="http://ns.adobe.com/AdobeSVGViewerExtensions/3.0/"
	 x="0px" y="0px" width="193.4px" height="72.9px" viewBox="0 0 193.4 72.9"
	 style="overflow:scroll;enable-background:new 0 0 193.4 72.9;" xml:space="preserve">
<style type="text/css">
	.st0{fill:#E6E7E8;}
	.st1{fill:#333333;}
</style>
<defs>
</defs>
<rect id="XMLID_1_" class="st0" width="193.4" height="72.9"/>
<g>
	<path class="st1" d="M17.5,20.1h4.8c0.7,0,1.2,0.1,1.7,0.3c0.5,0.2,0.8,0.4,1.1,0.8c0.3,0.3,0.5,0.7,0.6,1.1
		c0.1,0.4,0.2,0.8,0.2,1.3c0,0.4-0.1,0.9-0.2,1.3c-0.1,0.4-0.3,0.8-0.6,1.1c-0.3,0.3-0.7,0.6-1.1,0.8c-0.5,0.2-1,0.3-1.7,0.3h-2.4
		v3.8h-2.3V20.1z M19.8,25.1h1.8c0.3,0,0.5,0,0.8-0.1c0.2,0,0.5-0.1,0.7-0.2c0.2-0.1,0.3-0.3,0.5-0.5c0.1-0.2,0.2-0.5,0.2-0.8
		s-0.1-0.6-0.2-0.8c-0.1-0.2-0.3-0.4-0.5-0.5c-0.2-0.1-0.4-0.2-0.7-0.2c-0.2,0-0.5-0.1-0.8-0.1h-1.8V25.1z"/>
	<path class="st1" d="M27.1,25.4c0-0.5,0.2-0.9,0.4-1.2c0.2-0.3,0.5-0.6,0.8-0.8c0.3-0.2,0.7-0.3,1.1-0.4c0.4-0.1,0.8-0.1,1.3-0.1
		c0.4,0,0.8,0,1.2,0.1c0.4,0.1,0.8,0.2,1.1,0.3c0.3,0.2,0.6,0.4,0.8,0.7c0.2,0.3,0.3,0.7,0.3,1.1v4c0,0.3,0,0.7,0.1,1
		c0,0.3,0.1,0.6,0.2,0.7h-2.1c0-0.1-0.1-0.2-0.1-0.4c0-0.1,0-0.3-0.1-0.4c-0.3,0.3-0.7,0.6-1.2,0.7c-0.5,0.1-0.9,0.2-1.4,0.2
		c-0.4,0-0.7,0-1-0.1c-0.3-0.1-0.6-0.2-0.8-0.4c-0.2-0.2-0.4-0.4-0.6-0.7c-0.1-0.3-0.2-0.6-0.2-1c0-0.4,0.1-0.8,0.2-1.1
		s0.3-0.5,0.6-0.7s0.5-0.3,0.8-0.4s0.6-0.2,1-0.2c0.3,0,0.6-0.1,0.9-0.1c0.3,0,0.6-0.1,0.8-0.1c0.2-0.1,0.4-0.1,0.6-0.3
		c0.1-0.1,0.2-0.3,0.2-0.5c0-0.2,0-0.4-0.1-0.5s-0.2-0.2-0.3-0.3c-0.1-0.1-0.3-0.1-0.4-0.1c-0.2,0-0.3,0-0.5,0c-0.4,0-0.7,0.1-1,0.3
		c-0.2,0.2-0.4,0.5-0.4,0.9H27.1z M31.9,27c-0.1,0.1-0.2,0.1-0.3,0.2c-0.1,0-0.3,0.1-0.4,0.1c-0.2,0-0.3,0.1-0.5,0.1s-0.3,0-0.5,0.1
		c-0.2,0-0.3,0.1-0.5,0.1c-0.1,0-0.3,0.1-0.4,0.2c-0.1,0.1-0.2,0.2-0.3,0.3s-0.1,0.3-0.1,0.5c0,0.2,0,0.4,0.1,0.5s0.2,0.2,0.3,0.3
		c0.1,0.1,0.3,0.1,0.4,0.2c0.2,0,0.3,0,0.5,0c0.4,0,0.7-0.1,1-0.2c0.2-0.1,0.4-0.3,0.5-0.5c0.1-0.2,0.2-0.4,0.2-0.6
		c0-0.2,0-0.4,0-0.5V27z"/>
	<path class="st1" d="M40.9,25.7c-0.1-0.9-0.7-1.3-1.6-1.3c-0.3,0-0.6,0.1-0.8,0.2s-0.4,0.4-0.6,0.6c-0.1,0.2-0.2,0.5-0.3,0.8
		s-0.1,0.6-0.1,0.9c0,0.3,0,0.6,0.1,0.8s0.2,0.5,0.3,0.8c0.1,0.2,0.3,0.4,0.5,0.6s0.5,0.2,0.8,0.2c0.5,0,0.9-0.1,1.2-0.4
		c0.3-0.3,0.4-0.7,0.5-1.1h2c-0.1,1-0.5,1.8-1.2,2.3c-0.7,0.5-1.5,0.8-2.5,0.8c-0.6,0-1.1-0.1-1.6-0.3c-0.5-0.2-0.9-0.5-1.2-0.8
		c-0.3-0.4-0.6-0.8-0.8-1.2c-0.2-0.5-0.3-1-0.3-1.6c0-0.6,0.1-1.1,0.3-1.7c0.2-0.5,0.4-1,0.8-1.3c0.3-0.4,0.7-0.7,1.2-0.9
		c0.5-0.2,1-0.3,1.7-0.3c0.5,0,0.9,0.1,1.3,0.2c0.4,0.1,0.8,0.3,1.1,0.5c0.3,0.2,0.6,0.5,0.8,0.9c0.2,0.4,0.3,0.8,0.4,1.3H40.9z"/>
	<path class="st1" d="M46.4,21.8h-2.1v-1.7h2.1V21.8z M44.3,23h2.1v7.7h-2.1V23z"/>
	<path class="st1" d="M49.8,27.4c0,0.7,0.2,1.2,0.5,1.5c0.3,0.3,0.8,0.5,1.4,0.5c0.4,0,0.8-0.1,1.1-0.3s0.5-0.4,0.6-0.7h1.9
		c-0.3,0.9-0.8,1.6-1.4,2c-0.6,0.4-1.4,0.6-2.2,0.6c-0.6,0-1.1-0.1-1.6-0.3c-0.5-0.2-0.9-0.5-1.2-0.8c-0.3-0.4-0.6-0.8-0.8-1.3
		c-0.2-0.5-0.3-1-0.3-1.6c0-0.6,0.1-1.1,0.3-1.6c0.2-0.5,0.5-0.9,0.8-1.3s0.8-0.6,1.2-0.9c0.5-0.2,1-0.3,1.6-0.3
		c0.7,0,1.2,0.1,1.7,0.4c0.5,0.3,0.9,0.6,1.2,1c0.3,0.4,0.5,0.9,0.7,1.5s0.2,1.1,0.1,1.7H49.8z M53.2,26c-0.1-0.5-0.3-0.9-0.5-1.2
		c-0.3-0.3-0.6-0.4-1.2-0.4c-0.3,0-0.6,0.1-0.8,0.2c-0.2,0.1-0.4,0.3-0.5,0.4c-0.1,0.2-0.2,0.3-0.3,0.5c-0.1,0.2-0.1,0.4-0.1,0.5
		H53.2z"/>
	<path class="st1" d="M56.6,23h2v1.1h0c0.3-0.4,0.6-0.8,1-1c0.4-0.2,0.9-0.3,1.3-0.3c0.6,0,1,0.1,1.4,0.2c0.4,0.2,0.6,0.4,0.9,0.6
		c0.2,0.3,0.4,0.6,0.4,1c0.1,0.4,0.1,0.8,0.1,1.3v4.7h-2.1v-4.3c0-0.6-0.1-1.1-0.3-1.4s-0.6-0.5-1-0.5c-0.6,0-1,0.2-1.2,0.5
		c-0.3,0.3-0.4,0.9-0.4,1.7v4h-2.1V23z"/>
	<path class="st1" d="M68,23h1.5v1.4H68v3.8c0,0.4,0.1,0.6,0.2,0.7c0.1,0.1,0.4,0.2,0.7,0.2c0.2,0,0.5,0,0.7-0.1v1.6
		c-0.2,0-0.4,0-0.6,0.1s-0.4,0-0.6,0c-0.3,0-0.6,0-0.9-0.1c-0.3,0-0.5-0.1-0.8-0.3s-0.4-0.3-0.5-0.6c-0.1-0.2-0.2-0.5-0.2-0.9v-4.5
		h-1.3V23h1.3v-2.3H68V23z"/>
	<path class="st1" d="M72.3,27.4c0,0.7,0.2,1.2,0.5,1.5c0.3,0.3,0.8,0.5,1.4,0.5c0.4,0,0.8-0.1,1.1-0.3s0.5-0.4,0.6-0.7h1.9
		c-0.3,0.9-0.8,1.6-1.4,2c-0.6,0.4-1.4,0.6-2.2,0.6c-0.6,0-1.1-0.1-1.6-0.3c-0.5-0.2-0.9-0.5-1.2-0.8c-0.3-0.4-0.6-0.8-0.8-1.3
		c-0.2-0.5-0.3-1-0.3-1.6c0-0.6,0.1-1.1,0.3-1.6c0.2-0.5,0.5-0.9,0.8-1.3s0.8-0.6,1.2-0.9c0.5-0.2,1-0.3,1.6-0.3
		c0.7,0,1.2,0.1,1.7,0.4c0.5,0.3,0.9,0.6,1.2,1c0.3,0.4,0.5,0.9,0.7,1.5s0.2,1.1,0.1,1.7H72.3z M75.7,26c-0.1-0.5-0.3-0.9-0.5-1.2
		c-0.3-0.3-0.6-0.4-1.2-0.4c-0.3,0-0.6,0.1-0.8,0.2c-0.2,0.1-0.4,0.3-0.5,0.4c-0.1,0.2-0.2,0.3-0.3,0.5c-0.1,0.2-0.1,0.4-0.1,0.5
		H75.7z"/>
	<path class="st1" d="M80.7,28.2c0,0.2,0,0.4,0.1,0.6c0.1,0.2,0.2,0.3,0.4,0.4c0.1,0.1,0.3,0.2,0.5,0.2c0.2,0,0.4,0.1,0.6,0.1
		c0.1,0,0.3,0,0.5-0.1c0.2,0,0.3-0.1,0.4-0.2s0.2-0.2,0.3-0.3c0.1-0.1,0.1-0.3,0.1-0.5c0-0.2-0.1-0.3-0.2-0.4
		c-0.1-0.1-0.3-0.2-0.5-0.3c-0.2-0.1-0.5-0.2-0.8-0.2s-0.6-0.2-1-0.2c-0.3-0.1-0.6-0.2-0.9-0.2c-0.3-0.1-0.6-0.2-0.8-0.4
		s-0.4-0.3-0.5-0.6s-0.2-0.5-0.2-0.9c0-0.5,0.1-0.9,0.3-1.2c0.2-0.3,0.4-0.6,0.8-0.8c0.3-0.2,0.7-0.3,1.1-0.4
		c0.4-0.1,0.8-0.1,1.2-0.1c0.4,0,0.8,0,1.2,0.1c0.4,0.1,0.7,0.2,1,0.4c0.3,0.2,0.6,0.4,0.8,0.7c0.2,0.3,0.3,0.7,0.4,1.2h-2
		c0-0.4-0.2-0.7-0.5-0.8s-0.6-0.2-1-0.2c-0.1,0-0.2,0-0.4,0c-0.1,0-0.3,0-0.4,0.1c-0.1,0-0.2,0.1-0.3,0.2C81,24.7,81,24.8,81,24.9
		c0,0.2,0.1,0.3,0.2,0.5c0.1,0.1,0.3,0.2,0.5,0.3s0.5,0.1,0.8,0.2s0.6,0.1,0.9,0.2c0.3,0.1,0.6,0.2,0.9,0.3c0.3,0.1,0.6,0.2,0.8,0.4
		c0.2,0.2,0.4,0.4,0.5,0.6c0.1,0.2,0.2,0.5,0.2,0.9c0,0.5-0.1,0.9-0.3,1.3c-0.2,0.3-0.5,0.6-0.8,0.8s-0.7,0.4-1.1,0.4
		c-0.4,0.1-0.8,0.1-1.3,0.1c-0.4,0-0.9,0-1.3-0.1c-0.4-0.1-0.8-0.2-1.1-0.5c-0.3-0.2-0.6-0.5-0.8-0.8s-0.3-0.8-0.3-1.3H80.7z"/>
	<path class="st1" d="M92.9,27.4c0,0.7,0.2,1.2,0.5,1.5c0.3,0.3,0.8,0.5,1.4,0.5c0.4,0,0.8-0.1,1.1-0.3s0.5-0.4,0.6-0.7h1.9
		c-0.3,0.9-0.8,1.6-1.4,2c-0.6,0.4-1.4,0.6-2.2,0.6c-0.6,0-1.1-0.1-1.6-0.3c-0.5-0.2-0.9-0.5-1.2-0.8c-0.3-0.4-0.6-0.8-0.8-1.3
		c-0.2-0.5-0.3-1-0.3-1.6c0-0.6,0.1-1.1,0.3-1.6c0.2-0.5,0.5-0.9,0.8-1.3s0.8-0.6,1.2-0.9c0.5-0.2,1-0.3,1.6-0.3
		c0.7,0,1.2,0.1,1.7,0.4c0.5,0.3,0.9,0.6,1.2,1c0.3,0.4,0.5,0.9,0.7,1.5s0.2,1.1,0.1,1.7H92.9z M96.4,26c-0.1-0.5-0.3-0.9-0.5-1.2
		c-0.3-0.3-0.6-0.4-1.2-0.4c-0.3,0-0.6,0.1-0.8,0.2c-0.2,0.1-0.4,0.3-0.5,0.4c-0.1,0.2-0.2,0.3-0.3,0.5c-0.1,0.2-0.1,0.4-0.1,0.5
		H96.4z"/>
	<path class="st1" d="M101.3,28.2c0,0.2,0,0.4,0.1,0.6c0.1,0.2,0.2,0.3,0.4,0.4c0.1,0.1,0.3,0.2,0.5,0.2c0.2,0,0.4,0.1,0.6,0.1
		c0.1,0,0.3,0,0.5-0.1c0.2,0,0.3-0.1,0.4-0.2s0.2-0.2,0.3-0.3c0.1-0.1,0.1-0.3,0.1-0.5c0-0.2-0.1-0.3-0.2-0.4
		c-0.1-0.1-0.3-0.2-0.5-0.3c-0.2-0.1-0.5-0.2-0.8-0.2s-0.6-0.2-1-0.2c-0.3-0.1-0.6-0.2-0.9-0.2c-0.3-0.1-0.6-0.2-0.8-0.4
		s-0.4-0.3-0.5-0.6s-0.2-0.5-0.2-0.9c0-0.5,0.1-0.9,0.3-1.2c0.2-0.3,0.4-0.6,0.8-0.8c0.3-0.2,0.7-0.3,1.1-0.4
		c0.4-0.1,0.8-0.1,1.2-0.1c0.4,0,0.8,0,1.2,0.1c0.4,0.1,0.7,0.2,1,0.4c0.3,0.2,0.6,0.4,0.8,0.7c0.2,0.3,0.3,0.7,0.4,1.2h-2
		c0-0.4-0.2-0.7-0.5-0.8s-0.6-0.2-1-0.2c-0.1,0-0.2,0-0.4,0c-0.1,0-0.3,0-0.4,0.1c-0.1,0-0.2,0.1-0.3,0.2c-0.1,0.1-0.1,0.2-0.1,0.4
		c0,0.2,0.1,0.3,0.2,0.5c0.1,0.1,0.3,0.2,0.5,0.3s0.5,0.1,0.8,0.2s0.6,0.1,0.9,0.2c0.3,0.1,0.6,0.2,0.9,0.3c0.3,0.1,0.6,0.2,0.8,0.4
		c0.2,0.2,0.4,0.4,0.5,0.6c0.1,0.2,0.2,0.5,0.2,0.9c0,0.5-0.1,0.9-0.3,1.3c-0.2,0.3-0.5,0.6-0.8,0.8s-0.7,0.4-1.1,0.4
		c-0.4,0.1-0.8,0.1-1.3,0.1c-0.4,0-0.9,0-1.3-0.1c-0.4-0.1-0.8-0.2-1.1-0.5c-0.3-0.2-0.6-0.5-0.8-0.8s-0.3-0.8-0.3-1.3H101.3z"/>
	<path class="st1" d="M110.4,23h1.5v1.4h-1.5v3.8c0,0.4,0.1,0.6,0.2,0.7c0.1,0.1,0.4,0.2,0.7,0.2c0.2,0,0.5,0,0.7-0.1v1.6
		c-0.2,0-0.4,0-0.6,0.1s-0.4,0-0.6,0c-0.3,0-0.6,0-0.9-0.1c-0.3,0-0.5-0.1-0.8-0.3s-0.4-0.3-0.5-0.6c-0.1-0.2-0.2-0.5-0.2-0.9v-4.5
		H107V23h1.3v-2.3h2.1V23z"/>
	<path class="st1" d="M112.9,23h2v1.4h0c0.1-0.2,0.2-0.5,0.4-0.7c0.2-0.2,0.4-0.4,0.6-0.5c0.2-0.1,0.5-0.3,0.7-0.3
		c0.3-0.1,0.5-0.1,0.8-0.1c0.2,0,0.3,0,0.5,0.1v2c-0.1,0-0.2,0-0.4-0.1s-0.3,0-0.4,0c-0.4,0-0.7,0.1-1,0.2c-0.3,0.1-0.5,0.3-0.6,0.5
		c-0.2,0.2-0.3,0.5-0.3,0.8s-0.1,0.6-0.1,1v3.5h-2.1V23z"/>
	<path class="st1" d="M120.1,27.4c0,0.7,0.2,1.2,0.5,1.5c0.3,0.3,0.8,0.5,1.4,0.5c0.4,0,0.8-0.1,1.1-0.3s0.5-0.4,0.6-0.7h1.9
		c-0.3,0.9-0.8,1.6-1.4,2c-0.6,0.4-1.4,0.6-2.2,0.6c-0.6,0-1.1-0.1-1.6-0.3c-0.5-0.2-0.9-0.5-1.2-0.8c-0.3-0.4-0.6-0.8-0.8-1.3
		c-0.2-0.5-0.3-1-0.3-1.6c0-0.6,0.1-1.1,0.3-1.6c0.2-0.5,0.5-0.9,0.8-1.3s0.8-0.6,1.2-0.9c0.5-0.2,1-0.3,1.6-0.3
		c0.7,0,1.2,0.1,1.7,0.4c0.5,0.3,0.9,0.6,1.2,1c0.3,0.4,0.5,0.9,0.7,1.5s0.2,1.1,0.1,1.7H120.1z M123.6,26c-0.1-0.5-0.3-0.9-0.5-1.2
		c-0.3-0.3-0.6-0.4-1.2-0.4c-0.3,0-0.6,0.1-0.8,0.2c-0.2,0.1-0.4,0.3-0.5,0.4c-0.1,0.2-0.2,0.3-0.3,0.5c-0.1,0.2-0.1,0.4-0.1,0.5
		H123.6z"/>
	<path class="st1" d="M128.6,28.2c0,0.2,0,0.4,0.1,0.6c0.1,0.2,0.2,0.3,0.4,0.4c0.1,0.1,0.3,0.2,0.5,0.2c0.2,0,0.4,0.1,0.6,0.1
		c0.1,0,0.3,0,0.5-0.1c0.2,0,0.3-0.1,0.4-0.2s0.2-0.2,0.3-0.3c0.1-0.1,0.1-0.3,0.1-0.5c0-0.2-0.1-0.3-0.2-0.4
		c-0.1-0.1-0.3-0.2-0.5-0.3c-0.2-0.1-0.5-0.2-0.8-0.2s-0.6-0.2-1-0.2c-0.3-0.1-0.6-0.2-0.9-0.2c-0.3-0.1-0.6-0.2-0.8-0.4
		s-0.4-0.3-0.5-0.6s-0.2-0.5-0.2-0.9c0-0.5,0.1-0.9,0.3-1.2c0.2-0.3,0.4-0.6,0.8-0.8c0.3-0.2,0.7-0.3,1.1-0.4
		c0.4-0.1,0.8-0.1,1.2-0.1c0.4,0,0.8,0,1.2,0.1c0.4,0.1,0.7,0.2,1,0.4c0.3,0.2,0.6,0.4,0.8,0.7c0.2,0.3,0.3,0.7,0.4,1.2h-2
		c0-0.4-0.2-0.7-0.5-0.8s-0.6-0.2-1-0.2c-0.1,0-0.2,0-0.4,0c-0.1,0-0.3,0-0.4,0.1c-0.1,0-0.2,0.1-0.3,0.2c-0.1,0.1-0.1,0.2-0.1,0.4
		c0,0.2,0.1,0.3,0.2,0.5c0.1,0.1,0.3,0.2,0.5,0.3s0.5,0.1,0.8,0.2s0.6,0.1,0.9,0.2c0.3,0.1,0.6,0.2,0.9,0.3c0.3,0.1,0.6,0.2,0.8,0.4
		c0.2,0.2,0.4,0.4,0.5,0.6c0.1,0.2,0.2,0.5,0.2,0.9c0,0.5-0.1,0.9-0.3,1.3c-0.2,0.3-0.5,0.6-0.8,0.8s-0.7,0.4-1.1,0.4
		c-0.4,0.1-0.8,0.1-1.3,0.1c-0.4,0-0.9,0-1.3-0.1c-0.4-0.1-0.8-0.2-1.1-0.5c-0.3-0.2-0.6-0.5-0.8-0.8s-0.3-0.8-0.3-1.3H128.6z"/>
	<path class="st1" d="M134.8,25.4c0-0.5,0.2-0.9,0.4-1.2c0.2-0.3,0.5-0.6,0.8-0.8c0.3-0.2,0.7-0.3,1.1-0.4c0.4-0.1,0.8-0.1,1.3-0.1
		c0.4,0,0.8,0,1.2,0.1c0.4,0.1,0.8,0.2,1.1,0.3c0.3,0.2,0.6,0.4,0.8,0.7c0.2,0.3,0.3,0.7,0.3,1.1v4c0,0.3,0,0.7,0.1,1
		c0,0.3,0.1,0.6,0.2,0.7h-2.1c0-0.1-0.1-0.2-0.1-0.4c0-0.1,0-0.3-0.1-0.4c-0.3,0.3-0.7,0.6-1.2,0.7c-0.5,0.1-0.9,0.2-1.4,0.2
		c-0.4,0-0.7,0-1-0.1c-0.3-0.1-0.6-0.2-0.8-0.4c-0.2-0.2-0.4-0.4-0.6-0.7c-0.1-0.3-0.2-0.6-0.2-1c0-0.4,0.1-0.8,0.2-1.1
		s0.3-0.5,0.6-0.7s0.5-0.3,0.8-0.4s0.6-0.2,1-0.2c0.3,0,0.6-0.1,0.9-0.1c0.3,0,0.6-0.1,0.8-0.1c0.2-0.1,0.4-0.1,0.6-0.3
		c0.1-0.1,0.2-0.3,0.2-0.5c0-0.2,0-0.4-0.1-0.5s-0.2-0.2-0.3-0.3c-0.1-0.1-0.3-0.1-0.4-0.1c-0.2,0-0.3,0-0.5,0c-0.4,0-0.7,0.1-1,0.3
		c-0.2,0.2-0.4,0.5-0.4,0.9H134.8z M139.7,27c-0.1,0.1-0.2,0.1-0.3,0.2c-0.1,0-0.3,0.1-0.4,0.1c-0.2,0-0.3,0.1-0.5,0.1
		s-0.3,0-0.5,0.1c-0.2,0-0.3,0.1-0.5,0.1c-0.1,0-0.3,0.1-0.4,0.2c-0.1,0.1-0.2,0.2-0.3,0.3s-0.1,0.3-0.1,0.5c0,0.2,0,0.4,0.1,0.5
		s0.2,0.2,0.3,0.3c0.1,0.1,0.3,0.1,0.4,0.2c0.2,0,0.3,0,0.5,0c0.4,0,0.7-0.1,1-0.2c0.2-0.1,0.4-0.3,0.5-0.5c0.1-0.2,0.2-0.4,0.2-0.6
		c0-0.2,0-0.4,0-0.5V27z"/>
	<path class="st1" d="M148.9,29.7L148.9,29.7c-0.3,0.4-0.6,0.7-1,0.9c-0.4,0.2-0.9,0.3-1.4,0.3c-0.6,0-1.1-0.1-1.5-0.3
		c-0.4-0.2-0.8-0.5-1.1-0.9s-0.5-0.8-0.6-1.3c-0.1-0.5-0.2-1-0.2-1.5c0-0.5,0.1-1,0.2-1.5c0.1-0.5,0.4-0.9,0.6-1.3s0.6-0.7,1.1-0.9
		c0.4-0.2,0.9-0.3,1.5-0.3c0.5,0,0.9,0.1,1.3,0.3c0.4,0.2,0.7,0.5,1,0.9h0v-3.9h2.1v10.6h-2V29.7z M148.9,26.8c0-0.3,0-0.6-0.1-0.9
		s-0.2-0.6-0.3-0.8c-0.1-0.2-0.3-0.4-0.6-0.5s-0.5-0.2-0.9-0.2c-0.3,0-0.6,0.1-0.9,0.2c-0.2,0.1-0.4,0.3-0.6,0.5s-0.2,0.5-0.3,0.8
		s-0.1,0.6-0.1,0.9c0,0.3,0,0.6,0.1,0.9s0.2,0.6,0.3,0.8s0.3,0.4,0.6,0.6c0.2,0.1,0.5,0.2,0.8,0.2c0.3,0,0.6-0.1,0.9-0.2
		s0.4-0.3,0.6-0.6s0.2-0.5,0.3-0.8S148.9,27.2,148.9,26.8z"/>
	<path class="st1" d="M152.3,26.9c0-0.6,0.1-1.2,0.3-1.7c0.2-0.5,0.5-0.9,0.8-1.3s0.8-0.6,1.2-0.8c0.5-0.2,1-0.3,1.6-0.3
		s1.2,0.1,1.6,0.3c0.5,0.2,0.9,0.5,1.3,0.8s0.6,0.8,0.8,1.3c0.2,0.5,0.3,1.1,0.3,1.7s-0.1,1.2-0.3,1.7c-0.2,0.5-0.5,0.9-0.8,1.3
		c-0.3,0.4-0.8,0.6-1.3,0.8c-0.5,0.2-1,0.3-1.6,0.3s-1.1-0.1-1.6-0.3c-0.5-0.2-0.9-0.5-1.2-0.8c-0.3-0.4-0.6-0.8-0.8-1.3
		C152.3,28,152.3,27.5,152.3,26.9z M154.4,26.9c0,0.3,0,0.6,0.1,0.9c0.1,0.3,0.2,0.6,0.3,0.8s0.3,0.4,0.6,0.6
		c0.2,0.1,0.5,0.2,0.9,0.2c0.4,0,0.7-0.1,0.9-0.2s0.4-0.3,0.6-0.6c0.1-0.2,0.2-0.5,0.3-0.8c0.1-0.3,0.1-0.6,0.1-0.9s0-0.6-0.1-0.9
		s-0.2-0.6-0.3-0.8c-0.1-0.2-0.3-0.4-0.6-0.6c-0.2-0.1-0.5-0.2-0.9-0.2c-0.4,0-0.7,0.1-0.9,0.2c-0.2,0.1-0.4,0.3-0.6,0.6
		s-0.2,0.5-0.3,0.8S154.4,26.6,154.4,26.9z"/>
	<path class="st1" d="M163.2,28.2c0,0.2,0,0.4,0.1,0.6c0.1,0.2,0.2,0.3,0.4,0.4c0.1,0.1,0.3,0.2,0.5,0.2c0.2,0,0.4,0.1,0.6,0.1
		c0.1,0,0.3,0,0.5-0.1c0.2,0,0.3-0.1,0.4-0.2s0.2-0.2,0.3-0.3c0.1-0.1,0.1-0.3,0.1-0.5c0-0.2-0.1-0.3-0.2-0.4
		c-0.1-0.1-0.3-0.2-0.5-0.3c-0.2-0.1-0.5-0.2-0.8-0.2s-0.6-0.2-1-0.2c-0.3-0.1-0.6-0.2-0.9-0.2c-0.3-0.1-0.6-0.2-0.8-0.4
		s-0.4-0.3-0.5-0.6s-0.2-0.5-0.2-0.9c0-0.5,0.1-0.9,0.3-1.2c0.2-0.3,0.4-0.6,0.8-0.8c0.3-0.2,0.7-0.3,1.1-0.4
		c0.4-0.1,0.8-0.1,1.2-0.1c0.4,0,0.8,0,1.2,0.1c0.4,0.1,0.7,0.2,1,0.4c0.3,0.2,0.6,0.4,0.8,0.7c0.2,0.3,0.3,0.7,0.4,1.2h-2
		c0-0.4-0.2-0.7-0.5-0.8s-0.6-0.2-1-0.2c-0.1,0-0.2,0-0.4,0c-0.1,0-0.3,0-0.4,0.1c-0.1,0-0.2,0.1-0.3,0.2c-0.1,0.1-0.1,0.2-0.1,0.4
		c0,0.2,0.1,0.3,0.2,0.5c0.1,0.1,0.3,0.2,0.5,0.3s0.5,0.1,0.8,0.2s0.6,0.1,0.9,0.2c0.3,0.1,0.6,0.2,0.9,0.3c0.3,0.1,0.6,0.2,0.8,0.4
		c0.2,0.2,0.4,0.4,0.5,0.6c0.1,0.2,0.2,0.5,0.2,0.9c0,0.5-0.1,0.9-0.3,1.3c-0.2,0.3-0.5,0.6-0.8,0.8s-0.7,0.4-1.1,0.4
		c-0.4,0.1-0.8,0.1-1.3,0.1c-0.4,0-0.9,0-1.3-0.1c-0.4-0.1-0.8-0.2-1.1-0.5c-0.3-0.2-0.6-0.5-0.8-0.8s-0.3-0.8-0.3-1.3H163.2z"/>
	<path class="st1" d="M169.6,28.4h2.3v2.3c0,0.3-0.1,0.7-0.2,0.9c-0.1,0.3-0.3,0.5-0.5,0.7s-0.5,0.4-0.7,0.5s-0.6,0.2-0.9,0.3v-1.1
		c0.2,0,0.3-0.1,0.4-0.2c0.1-0.1,0.2-0.2,0.3-0.3c0.1-0.1,0.2-0.3,0.2-0.4c0-0.2,0.1-0.3,0.1-0.5h-1.1V28.4z"/>
	<path class="st1" d="M31.8,40.8h2v1h0c0.3-0.4,0.6-0.7,1-0.9c0.4-0.2,0.8-0.3,1.3-0.3c0.6,0,1.1,0.1,1.6,0.3
		c0.4,0.2,0.8,0.5,1.1,0.9c0.3,0.4,0.5,0.8,0.6,1.3c0.1,0.5,0.2,1,0.2,1.6c0,0.5-0.1,1-0.2,1.5c-0.1,0.5-0.3,0.9-0.6,1.3
		c-0.3,0.4-0.6,0.7-1.1,0.9s-0.9,0.3-1.5,0.3c-0.5,0-0.9-0.1-1.3-0.3c-0.4-0.2-0.7-0.5-1-0.9h0v3.7h-2.1V40.8z M35.7,47.1
		c0.3,0,0.6-0.1,0.9-0.2c0.2-0.1,0.4-0.3,0.6-0.5s0.2-0.5,0.3-0.8c0.1-0.3,0.1-0.6,0.1-0.9c0-0.3,0-0.6-0.1-0.9s-0.2-0.6-0.3-0.8
		s-0.3-0.4-0.6-0.6c-0.2-0.1-0.5-0.2-0.9-0.2c-0.3,0-0.6,0.1-0.9,0.2c-0.2,0.1-0.4,0.3-0.6,0.6c-0.1,0.2-0.2,0.5-0.3,0.8
		c-0.1,0.3-0.1,0.6-0.1,0.9c0,0.3,0,0.6,0.1,0.9c0.1,0.3,0.2,0.5,0.3,0.8s0.3,0.4,0.6,0.5S35.4,47.1,35.7,47.1z"/>
	<path class="st1" d="M42.6,45.2c0,0.7,0.2,1.2,0.5,1.5c0.3,0.3,0.8,0.5,1.4,0.5c0.4,0,0.8-0.1,1.1-0.3s0.5-0.4,0.6-0.7H48
		c-0.3,0.9-0.8,1.6-1.4,2c-0.6,0.4-1.4,0.6-2.2,0.6c-0.6,0-1.1-0.1-1.6-0.3c-0.5-0.2-0.9-0.5-1.2-0.8c-0.3-0.4-0.6-0.8-0.8-1.3
		c-0.2-0.5-0.3-1-0.3-1.6c0-0.6,0.1-1.1,0.3-1.6c0.2-0.5,0.5-0.9,0.8-1.3s0.8-0.6,1.2-0.9c0.5-0.2,1-0.3,1.6-0.3
		c0.7,0,1.2,0.1,1.7,0.4c0.5,0.3,0.9,0.6,1.2,1c0.3,0.4,0.5,0.9,0.7,1.5s0.2,1.1,0.1,1.7H42.6z M46.1,43.9c-0.1-0.5-0.3-0.9-0.5-1.2
		c-0.3-0.3-0.6-0.4-1.2-0.4c-0.3,0-0.6,0.1-0.8,0.2c-0.2,0.1-0.4,0.3-0.5,0.4c-0.1,0.2-0.2,0.3-0.3,0.5c-0.1,0.2-0.1,0.4-0.1,0.5
		H46.1z"/>
	<path class="st1" d="M49.4,40.8h2v1.4h0c0.1-0.2,0.2-0.5,0.4-0.7c0.2-0.2,0.4-0.4,0.6-0.5c0.2-0.1,0.5-0.3,0.7-0.3
		c0.3-0.1,0.5-0.1,0.8-0.1c0.2,0,0.3,0,0.5,0.1v2c-0.1,0-0.2,0-0.4-0.1s-0.3,0-0.4,0c-0.4,0-0.7,0.1-1,0.2c-0.3,0.1-0.5,0.3-0.6,0.5
		c-0.2,0.2-0.3,0.5-0.3,0.8s-0.1,0.6-0.1,1v3.5h-2.1V40.8z"/>
	<path class="st1" d="M54.7,44.7c0-0.6,0.1-1.2,0.3-1.7c0.2-0.5,0.5-0.9,0.8-1.3s0.8-0.6,1.2-0.8c0.5-0.2,1-0.3,1.6-0.3
		s1.2,0.1,1.6,0.3c0.5,0.2,0.9,0.5,1.3,0.8s0.6,0.8,0.8,1.3c0.2,0.5,0.3,1.1,0.3,1.7s-0.1,1.2-0.3,1.7c-0.2,0.5-0.5,0.9-0.8,1.3
		c-0.3,0.4-0.8,0.6-1.3,0.8c-0.5,0.2-1,0.3-1.6,0.3s-1.1-0.1-1.6-0.3c-0.5-0.2-0.9-0.5-1.2-0.8c-0.3-0.4-0.6-0.8-0.8-1.3
		C54.8,45.9,54.7,45.3,54.7,44.7z M56.8,44.7c0,0.3,0,0.6,0.1,0.9c0.1,0.3,0.2,0.6,0.3,0.8s0.3,0.4,0.6,0.6c0.2,0.1,0.5,0.2,0.9,0.2
		c0.4,0,0.7-0.1,0.9-0.2s0.4-0.3,0.6-0.6c0.1-0.2,0.2-0.5,0.3-0.8c0.1-0.3,0.1-0.6,0.1-0.9s0-0.6-0.1-0.9s-0.2-0.6-0.3-0.8
		c-0.1-0.2-0.3-0.4-0.6-0.6c-0.2-0.1-0.5-0.2-0.9-0.2c-0.4,0-0.7,0.1-0.9,0.2c-0.2,0.1-0.4,0.3-0.6,0.6s-0.2,0.5-0.3,0.8
		S56.8,44.4,56.8,44.7z"/>
	<path class="st1" d="M68.1,37.9h2.1v3.9h0c0.3-0.4,0.6-0.7,1-0.9c0.4-0.2,0.9-0.3,1.4-0.3c0.4,0,0.8,0.1,1.1,0.2s0.7,0.4,1,0.7
		c0.3,0.3,0.5,0.7,0.7,1.3c0.2,0.5,0.3,1.1,0.3,1.8c0,0.7-0.1,1.3-0.3,1.8c-0.2,0.5-0.4,0.9-0.7,1.3c-0.3,0.3-0.6,0.6-1,0.7
		s-0.8,0.2-1.1,0.2c-0.6,0-1.1-0.1-1.5-0.3c-0.4-0.2-0.8-0.5-1-0.9h0v1h-2V37.9z M73.7,44.7c0-0.3,0-0.6-0.1-0.9s-0.2-0.6-0.3-0.8
		s-0.3-0.4-0.6-0.5c-0.2-0.1-0.5-0.2-0.8-0.2c-0.3,0-0.6,0.1-0.8,0.2s-0.4,0.3-0.6,0.5s-0.3,0.5-0.3,0.8s-0.1,0.6-0.1,0.9
		c0,0.3,0,0.6,0.1,0.9s0.2,0.6,0.3,0.8s0.3,0.4,0.6,0.5c0.2,0.1,0.5,0.2,0.8,0.2c0.3,0,0.6-0.1,0.8-0.2c0.2-0.1,0.4-0.3,0.6-0.5
		s0.3-0.5,0.3-0.8S73.7,45,73.7,44.7z"/>
	<path class="st1" d="M77.1,43.2c0-0.5,0.2-0.9,0.4-1.2c0.2-0.3,0.5-0.6,0.8-0.8c0.3-0.2,0.7-0.3,1.1-0.4c0.4-0.1,0.8-0.1,1.3-0.1
		c0.4,0,0.8,0,1.2,0.1c0.4,0.1,0.8,0.2,1.1,0.3c0.3,0.2,0.6,0.4,0.8,0.7c0.2,0.3,0.3,0.7,0.3,1.1v4c0,0.3,0,0.7,0.1,1
		c0,0.3,0.1,0.6,0.2,0.7h-2.1c0-0.1-0.1-0.2-0.1-0.4c0-0.1,0-0.3-0.1-0.4c-0.3,0.3-0.7,0.6-1.2,0.7c-0.5,0.1-0.9,0.2-1.4,0.2
		c-0.4,0-0.7,0-1-0.1c-0.3-0.1-0.6-0.2-0.8-0.4c-0.2-0.2-0.4-0.4-0.6-0.7c-0.1-0.3-0.2-0.6-0.2-1c0-0.4,0.1-0.8,0.2-1.1
		s0.3-0.5,0.6-0.7s0.5-0.3,0.8-0.4s0.6-0.2,1-0.2c0.3,0,0.6-0.1,0.9-0.1c0.3,0,0.6-0.1,0.8-0.1c0.2-0.1,0.4-0.1,0.6-0.3
		c0.1-0.1,0.2-0.3,0.2-0.5c0-0.2,0-0.4-0.1-0.5s-0.2-0.2-0.3-0.3c-0.1-0.1-0.3-0.1-0.4-0.1c-0.2,0-0.3,0-0.5,0c-0.4,0-0.7,0.1-1,0.3
		c-0.2,0.2-0.4,0.5-0.4,0.9H77.1z M82,44.8c-0.1,0.1-0.2,0.1-0.3,0.2c-0.1,0-0.3,0.1-0.4,0.1c-0.2,0-0.3,0.1-0.5,0.1s-0.3,0-0.5,0.1
		c-0.2,0-0.3,0.1-0.5,0.1c-0.1,0-0.3,0.1-0.4,0.2c-0.1,0.1-0.2,0.2-0.3,0.3S79,46.1,79,46.3c0,0.2,0,0.4,0.1,0.5s0.2,0.2,0.3,0.3
		c0.1,0.1,0.3,0.1,0.4,0.2c0.2,0,0.3,0,0.5,0c0.4,0,0.7-0.1,1-0.2c0.2-0.1,0.4-0.3,0.5-0.5c0.1-0.2,0.2-0.4,0.2-0.6
		c0-0.2,0-0.4,0-0.5V44.8z"/>
	<path class="st1" d="M84.6,49.4c0.1,0,0.3,0.1,0.5,0.1c0.2,0,0.4,0,0.6-0.1c0.2-0.1,0.2-0.3,0.2-0.6v-8H88v8.1c0,0.4,0,0.7-0.1,1
		s-0.2,0.5-0.4,0.7c-0.2,0.2-0.5,0.3-0.8,0.4c-0.3,0.1-0.8,0.1-1.3,0.1c-0.1,0-0.2,0-0.3,0c-0.1,0-0.2,0-0.3,0V49.4z M88,39.7h-2.1
		v-1.7H88V39.7z"/>
	<path class="st1" d="M89.6,44.7c0-0.6,0.1-1.2,0.3-1.7c0.2-0.5,0.5-0.9,0.8-1.3s0.8-0.6,1.2-0.8c0.5-0.2,1-0.3,1.6-0.3
		s1.2,0.1,1.6,0.3c0.5,0.2,0.9,0.5,1.3,0.8s0.6,0.8,0.8,1.3c0.2,0.5,0.3,1.1,0.3,1.7s-0.1,1.2-0.3,1.7c-0.2,0.5-0.5,0.9-0.8,1.3
		c-0.3,0.4-0.8,0.6-1.3,0.8c-0.5,0.2-1,0.3-1.6,0.3s-1.1-0.1-1.6-0.3c-0.5-0.2-0.9-0.5-1.2-0.8c-0.3-0.4-0.6-0.8-0.8-1.3
		C89.7,45.9,89.6,45.3,89.6,44.7z M91.7,44.7c0,0.3,0,0.6,0.1,0.9c0.1,0.3,0.2,0.6,0.3,0.8s0.3,0.4,0.6,0.6c0.2,0.1,0.5,0.2,0.9,0.2
		c0.4,0,0.7-0.1,0.9-0.2s0.4-0.3,0.6-0.6c0.1-0.2,0.2-0.5,0.3-0.8c0.1-0.3,0.1-0.6,0.1-0.9s0-0.6-0.1-0.9S95.2,43.2,95,43
		c-0.1-0.2-0.3-0.4-0.6-0.6c-0.2-0.1-0.5-0.2-0.9-0.2c-0.4,0-0.7,0.1-0.9,0.2c-0.2,0.1-0.4,0.3-0.6,0.6s-0.2,0.5-0.3,0.8
		S91.7,44.4,91.7,44.7z"/>
	<path class="st1" d="M108.3,43.5c-0.1-0.9-0.7-1.3-1.6-1.3c-0.3,0-0.6,0.1-0.8,0.2s-0.4,0.4-0.6,0.6c-0.1,0.2-0.2,0.5-0.3,0.8
		s-0.1,0.6-0.1,0.9c0,0.3,0,0.6,0.1,0.8s0.2,0.5,0.3,0.8c0.1,0.2,0.3,0.4,0.5,0.6s0.5,0.2,0.8,0.2c0.5,0,0.9-0.1,1.2-0.4
		c0.3-0.3,0.4-0.7,0.5-1.1h2c-0.1,1-0.5,1.8-1.2,2.3c-0.7,0.5-1.5,0.8-2.5,0.8c-0.6,0-1.1-0.1-1.6-0.3c-0.5-0.2-0.9-0.5-1.2-0.8
		c-0.3-0.4-0.6-0.8-0.8-1.2c-0.2-0.5-0.3-1-0.3-1.6c0-0.6,0.1-1.1,0.3-1.7c0.2-0.5,0.4-1,0.8-1.3c0.3-0.4,0.7-0.7,1.2-0.9
		c0.5-0.2,1-0.3,1.7-0.3c0.5,0,0.9,0.1,1.3,0.2c0.4,0.1,0.8,0.3,1.1,0.5c0.3,0.2,0.6,0.5,0.8,0.9c0.2,0.4,0.3,0.8,0.4,1.3H108.3z"/>
	<path class="st1" d="M111.3,44.7c0-0.6,0.1-1.2,0.3-1.7c0.2-0.5,0.5-0.9,0.8-1.3s0.8-0.6,1.2-0.8c0.5-0.2,1-0.3,1.6-0.3
		s1.2,0.1,1.6,0.3c0.5,0.2,0.9,0.5,1.3,0.8s0.6,0.8,0.8,1.3c0.2,0.5,0.3,1.1,0.3,1.7s-0.1,1.2-0.3,1.7c-0.2,0.5-0.5,0.9-0.8,1.3
		c-0.3,0.4-0.8,0.6-1.3,0.8c-0.5,0.2-1,0.3-1.6,0.3s-1.1-0.1-1.6-0.3c-0.5-0.2-0.9-0.5-1.2-0.8c-0.3-0.4-0.6-0.8-0.8-1.3
		C111.4,45.9,111.3,45.3,111.3,44.7z M113.4,44.7c0,0.3,0,0.6,0.1,0.9c0.1,0.3,0.2,0.6,0.3,0.8s0.3,0.4,0.6,0.6
		c0.2,0.1,0.5,0.2,0.9,0.2c0.4,0,0.7-0.1,0.9-0.2s0.4-0.3,0.6-0.6c0.1-0.2,0.2-0.5,0.3-0.8c0.1-0.3,0.1-0.6,0.1-0.9s0-0.6-0.1-0.9
		s-0.2-0.6-0.3-0.8c-0.1-0.2-0.3-0.4-0.6-0.6c-0.2-0.1-0.5-0.2-0.9-0.2c-0.4,0-0.7,0.1-0.9,0.2c-0.2,0.1-0.4,0.3-0.6,0.6
		s-0.2,0.5-0.3,0.8S113.4,44.4,113.4,44.7z"/>
	<path class="st1" d="M120.6,40.8h2v1.1h0c0.3-0.4,0.6-0.8,1-1c0.4-0.2,0.9-0.3,1.3-0.3c0.6,0,1,0.1,1.4,0.2
		c0.4,0.2,0.6,0.4,0.9,0.6c0.2,0.3,0.4,0.6,0.4,1c0.1,0.4,0.1,0.8,0.1,1.3v4.7h-2.1v-4.3c0-0.6-0.1-1.1-0.3-1.4s-0.6-0.5-1-0.5
		c-0.6,0-1,0.2-1.2,0.5c-0.3,0.3-0.4,0.9-0.4,1.7v4h-2.1V40.8z"/>
	<path class="st1" d="M132.1,40.8h1.5v1.4h-1.5v3.8c0,0.4,0.1,0.6,0.2,0.7c0.1,0.1,0.4,0.2,0.7,0.2c0.2,0,0.5,0,0.7-0.1v1.6
		c-0.2,0-0.4,0-0.6,0.1s-0.4,0-0.6,0c-0.3,0-0.6,0-0.9-0.1c-0.3,0-0.5-0.1-0.8-0.3s-0.4-0.3-0.5-0.6c-0.1-0.2-0.2-0.5-0.2-0.9v-4.5
		h-1.3v-1.4h1.3v-2.3h2.1V40.8z"/>
	<path class="st1" d="M134.6,40.8h2v1.4h0c0.1-0.2,0.2-0.5,0.4-0.7c0.2-0.2,0.4-0.4,0.6-0.5c0.2-0.1,0.5-0.3,0.7-0.3
		c0.3-0.1,0.5-0.1,0.8-0.1c0.2,0,0.3,0,0.5,0.1v2c-0.1,0-0.2,0-0.4-0.1s-0.3,0-0.4,0c-0.4,0-0.7,0.1-1,0.2c-0.3,0.1-0.5,0.3-0.6,0.5
		c-0.2,0.2-0.3,0.5-0.3,0.8s-0.1,0.6-0.1,1v3.5h-2.1V40.8z"/>
	<path class="st1" d="M139.9,44.7c0-0.6,0.1-1.2,0.3-1.7c0.2-0.5,0.5-0.9,0.8-1.3s0.8-0.6,1.2-0.8c0.5-0.2,1-0.3,1.6-0.3
		s1.2,0.1,1.6,0.3c0.5,0.2,0.9,0.5,1.3,0.8s0.6,0.8,0.8,1.3c0.2,0.5,0.3,1.1,0.3,1.7s-0.1,1.2-0.3,1.7c-0.2,0.5-0.5,0.9-0.8,1.3
		c-0.3,0.4-0.8,0.6-1.3,0.8c-0.5,0.2-1,0.3-1.6,0.3s-1.1-0.1-1.6-0.3c-0.5-0.2-0.9-0.5-1.2-0.8c-0.3-0.4-0.6-0.8-0.8-1.3
		C140,45.9,139.9,45.3,139.9,44.7z M142,44.7c0,0.3,0,0.6,0.1,0.9c0.1,0.3,0.2,0.6,0.3,0.8s0.3,0.4,0.6,0.6c0.2,0.1,0.5,0.2,0.9,0.2
		c0.4,0,0.7-0.1,0.9-0.2s0.4-0.3,0.6-0.6c0.1-0.2,0.2-0.5,0.3-0.8c0.1-0.3,0.1-0.6,0.1-0.9s0-0.6-0.1-0.9s-0.2-0.6-0.3-0.8
		c-0.1-0.2-0.3-0.4-0.6-0.6c-0.2-0.1-0.5-0.2-0.9-0.2c-0.4,0-0.7,0.1-0.9,0.2c-0.2,0.1-0.4,0.3-0.6,0.6s-0.2,0.5-0.3,0.8
		S142,44.4,142,44.7z"/>
	<path class="st1" d="M149.3,37.9h2.1v10.6h-2.1V37.9z"/>
	<path class="st1" d="M153.1,46.2h2.3v2.3h-2.3V46.2z"/>
	<path class="st1" d="M160,39.8l1.7-0.7l0.4,1.1l-1.8,0.6l1.1,1.5l-1,0.7l-1.1-1.5l-1,1.5l-1-0.7l1.1-1.5l-1.7-0.6l0.4-1.1l1.7,0.7
		v-1.9h1.2V39.8z"/>
</g>
</svg>
