<!-- Generator: Adobe Illustrator 20.1.0, SVG Export Plug-In  -->
<svg version="1.1"
	 xmlns="http://www.w3.org/2000/svg" xmlns:xlink="http://www.w3.org/1999/xlink" xmlns:a="http://ns.adobe.com/AdobeSVGViewerExtensions/3.0/"
	 x="0px" y="0px" width="396.5px" height="52.5px" viewBox="0 0 396.5 52.5"
	 style="overflow:scroll;enable-background:new 0 0 396.5 52.5;" xml:space="preserve">
<style type="text/css">
	.st0{fill:#008345;}
	.st1{fill:#FFFFFF;}
</style>
<defs>
</defs>
<polygon id="XMLID_1_" class="st0" points="0,0 240.3,0 396.5,52.5 0,52.5 "/>
<g>
	<path class="st1" d="M41.4,10.4H45l2.7,7.9h0l2.5-7.9h3.6v11.5h-2.4v-8.1h0l-2.8,8.1h-1.9l-2.8-8.1h0v8.1h-2.4V10.4z"/>
	<path class="st1" d="M56.6,16.1c0-0.5,0.2-1,0.4-1.3c0.2-0.4,0.5-0.6,0.9-0.9c0.4-0.2,0.8-0.4,1.2-0.5s0.9-0.1,1.4-0.1
		c0.4,0,0.8,0,1.3,0.1c0.4,0.1,0.8,0.2,1.2,0.3c0.4,0.2,0.6,0.4,0.9,0.7c0.2,0.3,0.3,0.7,0.3,1.2V20c0,0.4,0,0.7,0.1,1.1
		c0,0.3,0.1,0.6,0.2,0.8h-2.3c0-0.1-0.1-0.3-0.1-0.4c0-0.1,0-0.3-0.1-0.4c-0.4,0.4-0.8,0.6-1.3,0.8s-1,0.2-1.5,0.2
		c-0.4,0-0.8-0.1-1.1-0.2c-0.3-0.1-0.6-0.3-0.9-0.5c-0.3-0.2-0.5-0.5-0.6-0.8c-0.1-0.3-0.2-0.7-0.2-1.1c0-0.5,0.1-0.9,0.2-1.2
		s0.4-0.5,0.6-0.7c0.3-0.2,0.6-0.3,0.9-0.4c0.3-0.1,0.7-0.2,1-0.2s0.7-0.1,1-0.1c0.3,0,0.6-0.1,0.9-0.1c0.3-0.1,0.5-0.2,0.6-0.3
		s0.2-0.3,0.2-0.5c0-0.2,0-0.4-0.1-0.6s-0.2-0.3-0.3-0.3c-0.1-0.1-0.3-0.1-0.5-0.2c-0.2,0-0.4,0-0.6,0c-0.4,0-0.8,0.1-1.1,0.3
		c-0.3,0.2-0.4,0.5-0.5,1H56.6z M61.9,17.8c-0.1,0.1-0.2,0.2-0.4,0.2c-0.1,0-0.3,0.1-0.5,0.1c-0.2,0-0.3,0.1-0.5,0.1s-0.4,0-0.5,0.1
		c-0.2,0-0.4,0.1-0.5,0.1c-0.2,0.1-0.3,0.1-0.4,0.2s-0.2,0.2-0.3,0.4c-0.1,0.1-0.1,0.3-0.1,0.5c0,0.2,0,0.4,0.1,0.5
		c0.1,0.1,0.2,0.2,0.3,0.3c0.1,0.1,0.3,0.1,0.5,0.2c0.2,0,0.3,0,0.5,0c0.5,0,0.8-0.1,1-0.2c0.2-0.2,0.4-0.3,0.5-0.5s0.2-0.4,0.2-0.6
		c0-0.2,0-0.4,0-0.5V17.8z"/>
	<path class="st1" d="M66.9,13.6h2.2v1.2h0c0.3-0.5,0.7-0.8,1.1-1c0.5-0.2,0.9-0.3,1.4-0.3c0.6,0,1.1,0.1,1.5,0.2
		c0.4,0.2,0.7,0.4,0.9,0.7s0.4,0.7,0.5,1.1c0.1,0.4,0.1,0.9,0.1,1.4v5.1h-2.3v-4.7c0-0.7-0.1-1.2-0.3-1.5s-0.6-0.5-1.1-0.5
		c-0.6,0-1.1,0.2-1.4,0.6c-0.3,0.4-0.4,1-0.4,1.8v4.4h-2.3V13.6z"/>
	<path class="st1" d="M79.3,18.3c0,0.7,0.2,1.3,0.6,1.6s0.8,0.5,1.5,0.5c0.5,0,0.9-0.1,1.2-0.3c0.3-0.2,0.5-0.5,0.6-0.7h2
		c-0.3,1-0.8,1.7-1.5,2.1c-0.7,0.4-1.5,0.7-2.4,0.7c-0.7,0-1.2-0.1-1.8-0.3c-0.5-0.2-1-0.5-1.3-0.9c-0.4-0.4-0.6-0.8-0.8-1.4
		S77,18.4,77,17.7c0-0.6,0.1-1.2,0.3-1.7c0.2-0.5,0.5-1,0.9-1.4c0.4-0.4,0.8-0.7,1.3-0.9c0.5-0.2,1.1-0.3,1.7-0.3
		c0.7,0,1.3,0.1,1.8,0.4c0.5,0.3,1,0.6,1.3,1.1s0.6,1,0.7,1.6c0.2,0.6,0.2,1.2,0.2,1.8H79.3z M83,16.8c-0.1-0.6-0.3-1-0.6-1.3
		c-0.3-0.3-0.7-0.5-1.2-0.5c-0.4,0-0.7,0.1-0.9,0.2c-0.2,0.1-0.4,0.3-0.6,0.5c-0.1,0.2-0.2,0.4-0.3,0.6c-0.1,0.2-0.1,0.4-0.1,0.5H83
		z"/>
	<path class="st1" d="M86.5,22.8c0.1,0,0.3,0.1,0.5,0.1c0.2,0,0.4,0,0.6-0.1c0.2-0.1,0.3-0.3,0.3-0.6v-8.6h2.3v8.7
		c0,0.4,0,0.8-0.1,1.1c-0.1,0.3-0.2,0.6-0.5,0.8s-0.5,0.4-0.9,0.5c-0.4,0.1-0.9,0.2-1.4,0.2c-0.1,0-0.2,0-0.4,0c-0.1,0-0.3,0-0.4,0
		V22.8z M90.1,12.3h-2.3v-1.9h2.3V12.3z"/>
	<path class="st1" d="M92.8,17.7c0-0.7,0.1-1.3,0.3-1.8c0.2-0.5,0.5-1,0.9-1.4c0.4-0.4,0.8-0.7,1.4-0.9s1.1-0.3,1.8-0.3
		c0.7,0,1.2,0.1,1.8,0.3s1,0.5,1.4,0.9c0.4,0.4,0.7,0.8,0.9,1.4c0.2,0.5,0.3,1.1,0.3,1.8c0,0.7-0.1,1.3-0.3,1.8
		c-0.2,0.5-0.5,1-0.9,1.4c-0.4,0.4-0.8,0.7-1.4,0.9c-0.5,0.2-1.1,0.3-1.8,0.3c-0.7,0-1.2-0.1-1.8-0.3c-0.5-0.2-1-0.5-1.4-0.9
		c-0.4-0.4-0.7-0.8-0.9-1.4C92.9,19,92.8,18.4,92.8,17.7z M95.1,17.7c0,0.3,0,0.7,0.1,1s0.2,0.6,0.3,0.9s0.4,0.5,0.6,0.6
		c0.3,0.2,0.6,0.2,1,0.2c0.4,0,0.7-0.1,1-0.2s0.5-0.4,0.6-0.6S99,19,99,18.7c0.1-0.3,0.1-0.6,0.1-1c0-0.3,0-0.7-0.1-1
		c-0.1-0.3-0.2-0.6-0.3-0.9c-0.2-0.2-0.4-0.4-0.6-0.6s-0.6-0.2-1-0.2c-0.4,0-0.7,0.1-1,0.2c-0.3,0.2-0.5,0.4-0.6,0.6
		c-0.2,0.2-0.3,0.5-0.3,0.9S95.1,17.4,95.1,17.7z"/>
	<path class="st1" d="M111.2,18.3c0,0.7,0.2,1.3,0.6,1.6s0.8,0.5,1.5,0.5c0.5,0,0.9-0.1,1.2-0.3c0.3-0.2,0.5-0.5,0.6-0.7h2
		c-0.3,1-0.8,1.7-1.5,2.1c-0.7,0.4-1.5,0.7-2.4,0.7c-0.7,0-1.2-0.1-1.8-0.3c-0.5-0.2-1-0.5-1.3-0.9c-0.4-0.4-0.6-0.8-0.8-1.4
		s-0.3-1.1-0.3-1.8c0-0.6,0.1-1.2,0.3-1.7c0.2-0.5,0.5-1,0.9-1.4c0.4-0.4,0.8-0.7,1.3-0.9c0.5-0.2,1.1-0.3,1.7-0.3
		c0.7,0,1.3,0.1,1.8,0.4c0.5,0.3,1,0.6,1.3,1.1s0.6,1,0.7,1.6c0.2,0.6,0.2,1.2,0.2,1.8H111.2z M114.9,16.8c-0.1-0.6-0.3-1-0.6-1.3
		c-0.3-0.3-0.7-0.5-1.2-0.5c-0.4,0-0.7,0.1-0.9,0.2c-0.2,0.1-0.4,0.3-0.6,0.5c-0.1,0.2-0.2,0.4-0.3,0.6c-0.1,0.2-0.1,0.4-0.1,0.5
		H114.9z"/>
	<path class="st1" d="M120,15.1h-1.4v-1.5h1.4v-0.6c0-0.4,0.1-0.7,0.2-1c0.1-0.3,0.3-0.6,0.5-0.8c0.2-0.2,0.5-0.4,0.9-0.5
		s0.8-0.2,1.2-0.2c0.2,0,0.4,0,0.6,0c0.2,0,0.4,0,0.6,0v1.7c-0.3,0-0.6,0-0.8,0c-0.3,0-0.5,0.1-0.7,0.2c-0.1,0.1-0.2,0.4-0.2,0.7
		v0.5h1.6v1.5h-1.6v6.8H120V15.1z"/>
	<path class="st1" d="M127.7,18.3c0,0.7,0.2,1.3,0.6,1.6s0.8,0.5,1.5,0.5c0.5,0,0.9-0.1,1.2-0.3c0.3-0.2,0.5-0.5,0.6-0.7h2
		c-0.3,1-0.8,1.7-1.5,2.1c-0.7,0.4-1.5,0.7-2.4,0.7c-0.7,0-1.2-0.1-1.8-0.3c-0.5-0.2-1-0.5-1.3-0.9c-0.4-0.4-0.6-0.8-0.8-1.4
		s-0.3-1.1-0.3-1.8c0-0.6,0.1-1.2,0.3-1.7c0.2-0.5,0.5-1,0.9-1.4c0.4-0.4,0.8-0.7,1.3-0.9c0.5-0.2,1.1-0.3,1.7-0.3
		c0.7,0,1.3,0.1,1.8,0.4c0.5,0.3,1,0.6,1.3,1.1s0.6,1,0.7,1.6c0.2,0.6,0.2,1.2,0.2,1.8H127.7z M131.4,16.8c-0.1-0.6-0.3-1-0.6-1.3
		c-0.3-0.3-0.7-0.5-1.2-0.5c-0.4,0-0.7,0.1-0.9,0.2c-0.2,0.1-0.4,0.3-0.6,0.5c-0.1,0.2-0.2,0.4-0.3,0.6c-0.1,0.2-0.1,0.4-0.1,0.5
		H131.4z"/>
	<path class="st1" d="M141.7,16.5c-0.2-1-0.7-1.4-1.7-1.4c-0.4,0-0.7,0.1-0.9,0.2c-0.2,0.2-0.4,0.4-0.6,0.6
		c-0.2,0.3-0.3,0.6-0.3,0.9c-0.1,0.3-0.1,0.6-0.1,0.9c0,0.3,0,0.6,0.1,0.9c0.1,0.3,0.2,0.6,0.3,0.8s0.3,0.5,0.6,0.6
		c0.2,0.2,0.5,0.2,0.9,0.2c0.5,0,1-0.2,1.3-0.5c0.3-0.3,0.5-0.7,0.6-1.2h2.2c-0.2,1.1-0.6,1.9-1.3,2.5c-0.7,0.6-1.6,0.9-2.7,0.9
		c-0.6,0-1.2-0.1-1.7-0.3c-0.5-0.2-1-0.5-1.3-0.9s-0.6-0.8-0.9-1.4c-0.2-0.5-0.3-1.1-0.3-1.7c0-0.6,0.1-1.2,0.3-1.8
		c0.2-0.6,0.5-1,0.8-1.4s0.8-0.7,1.3-0.9c0.5-0.2,1.1-0.3,1.8-0.3c0.5,0,1,0.1,1.4,0.2c0.5,0.1,0.9,0.3,1.2,0.6
		c0.4,0.3,0.6,0.6,0.9,1c0.2,0.4,0.4,0.9,0.4,1.4H141.7z"/>
	<path class="st1" d="M149.1,13.6h1.7v1.5h-1.7v4.1c0,0.4,0.1,0.6,0.2,0.8s0.4,0.2,0.8,0.2c0.3,0,0.5,0,0.7-0.1v1.8
		c-0.2,0-0.4,0.1-0.6,0.1c-0.2,0-0.5,0-0.7,0c-0.4,0-0.7,0-1-0.1c-0.3,0-0.6-0.1-0.8-0.3s-0.4-0.3-0.6-0.6c-0.1-0.3-0.2-0.6-0.2-1
		v-4.9h-1.4v-1.5h1.4v-2.5h2.3V13.6z"/>
	<path class="st1" d="M155.2,12.3h-2.3v-1.9h2.3V12.3z M152.9,13.6h2.3v8.3h-2.3V13.6z"/>
	<path class="st1" d="M162.5,21.9H160l-2.8-8.3h2.4l1.8,5.7h0l1.8-5.7h2.3L162.5,21.9z"/>
	<path class="st1" d="M167,17.7c0-0.7,0.1-1.3,0.3-1.8c0.2-0.5,0.5-1,0.9-1.4c0.4-0.4,0.8-0.7,1.4-0.9s1.1-0.3,1.8-0.3
		c0.7,0,1.2,0.1,1.8,0.3s1,0.5,1.4,0.9c0.4,0.4,0.7,0.8,0.9,1.4c0.2,0.5,0.3,1.1,0.3,1.8c0,0.7-0.1,1.3-0.3,1.8
		c-0.2,0.5-0.5,1-0.9,1.4c-0.4,0.4-0.8,0.7-1.4,0.9c-0.5,0.2-1.1,0.3-1.8,0.3c-0.7,0-1.2-0.1-1.8-0.3c-0.5-0.2-1-0.5-1.4-0.9
		c-0.4-0.4-0.7-0.8-0.9-1.4C167.1,19,167,18.4,167,17.7z M169.3,17.7c0,0.3,0,0.7,0.1,1s0.2,0.6,0.3,0.9s0.4,0.5,0.6,0.6
		c0.3,0.2,0.6,0.2,1,0.2c0.4,0,0.7-0.1,1-0.2s0.5-0.4,0.6-0.6s0.3-0.5,0.3-0.9c0.1-0.3,0.1-0.6,0.1-1c0-0.3,0-0.7-0.1-1
		c-0.1-0.3-0.2-0.6-0.3-0.9c-0.2-0.2-0.4-0.4-0.6-0.6s-0.6-0.2-1-0.2c-0.4,0-0.7,0.1-1,0.2c-0.3,0.2-0.5,0.4-0.6,0.6
		c-0.2,0.2-0.3,0.5-0.3,0.9S169.3,17.4,169.3,17.7z"/>
	<path class="st1" d="M47.1,40.1L47.1,40.1c-0.3,0.5-0.7,0.8-1.1,1c-0.4,0.2-0.9,0.3-1.5,0.3c-0.6,0-1.2-0.1-1.6-0.4
		c-0.5-0.2-0.9-0.6-1.2-1c-0.3-0.4-0.5-0.9-0.7-1.4c-0.2-0.5-0.2-1.1-0.2-1.7c0-0.6,0.1-1.1,0.2-1.6c0.2-0.5,0.4-1,0.7-1.4
		c0.3-0.4,0.7-0.7,1.1-1s1-0.4,1.6-0.4c0.5,0,1,0.1,1.4,0.3c0.4,0.2,0.8,0.5,1.1,0.9h0v-4.2h2.3v11.5h-2.2V40.1z M47.1,37
		c0-0.3,0-0.7-0.1-1s-0.2-0.6-0.3-0.8s-0.4-0.4-0.6-0.6c-0.3-0.1-0.6-0.2-0.9-0.2c-0.4,0-0.7,0.1-0.9,0.2c-0.3,0.2-0.5,0.3-0.6,0.6
		c-0.2,0.2-0.3,0.5-0.3,0.8c-0.1,0.3-0.1,0.6-0.1,1c0,0.3,0,0.6,0.1,1c0.1,0.3,0.2,0.6,0.4,0.9s0.4,0.5,0.6,0.6s0.6,0.2,0.9,0.2
		c0.4,0,0.7-0.1,0.9-0.2s0.5-0.4,0.6-0.6c0.2-0.3,0.3-0.5,0.3-0.9C47.1,37.7,47.1,37.3,47.1,37z"/>
	<path class="st1" d="M53.9,37.6c0,0.7,0.2,1.3,0.6,1.6s0.8,0.5,1.5,0.5c0.5,0,0.9-0.1,1.2-0.3c0.3-0.2,0.5-0.5,0.6-0.7h2
		c-0.3,1-0.8,1.7-1.5,2.1c-0.7,0.4-1.5,0.7-2.4,0.7c-0.7,0-1.2-0.1-1.8-0.3c-0.5-0.2-1-0.5-1.3-0.9c-0.4-0.4-0.6-0.8-0.8-1.4
		s-0.3-1.1-0.3-1.8c0-0.6,0.1-1.2,0.3-1.7c0.2-0.5,0.5-1,0.9-1.4c0.4-0.4,0.8-0.7,1.3-0.9c0.5-0.2,1.1-0.3,1.7-0.3
		c0.7,0,1.3,0.1,1.8,0.4c0.5,0.3,1,0.6,1.3,1.1s0.6,1,0.7,1.6c0.2,0.6,0.2,1.2,0.2,1.8H53.9z M57.6,36.1c-0.1-0.6-0.3-1-0.6-1.3
		c-0.3-0.3-0.7-0.5-1.2-0.5c-0.4,0-0.7,0.1-0.9,0.2c-0.2,0.1-0.4,0.3-0.6,0.5c-0.1,0.2-0.2,0.4-0.3,0.6c-0.1,0.2-0.1,0.4-0.1,0.5
		H57.6z"/>
	<path class="st1" d="M62.2,29.7h2.3v11.5h-2.3V29.7z"/>
	<path class="st1" d="M74.6,37.6c0,0.7,0.2,1.3,0.6,1.6s0.8,0.5,1.5,0.5c0.5,0,0.9-0.1,1.2-0.3c0.3-0.2,0.5-0.5,0.6-0.7h2
		c-0.3,1-0.8,1.7-1.5,2.1c-0.7,0.4-1.5,0.7-2.4,0.7c-0.7,0-1.2-0.1-1.8-0.3c-0.5-0.2-1-0.5-1.3-0.9c-0.4-0.4-0.6-0.8-0.8-1.4
		s-0.3-1.1-0.3-1.8c0-0.6,0.1-1.2,0.3-1.7c0.2-0.5,0.5-1,0.9-1.4c0.4-0.4,0.8-0.7,1.3-0.9c0.5-0.2,1.1-0.3,1.7-0.3
		c0.7,0,1.3,0.1,1.8,0.4c0.5,0.3,1,0.6,1.3,1.1s0.6,1,0.7,1.6c0.2,0.6,0.2,1.2,0.2,1.8H74.6z M78.3,36.1c-0.1-0.6-0.3-1-0.6-1.3
		c-0.3-0.3-0.7-0.5-1.2-0.5c-0.4,0-0.7,0.1-0.9,0.2c-0.2,0.1-0.4,0.3-0.6,0.5c-0.1,0.2-0.2,0.4-0.3,0.6c-0.1,0.2-0.1,0.4-0.1,0.5
		H78.3z"/>
	<path class="st1" d="M84.7,38.5c0,0.2,0.1,0.5,0.2,0.6s0.2,0.3,0.4,0.4c0.2,0.1,0.3,0.2,0.6,0.2s0.4,0.1,0.7,0.1
		c0.2,0,0.3,0,0.5-0.1c0.2,0,0.3-0.1,0.5-0.2c0.1-0.1,0.3-0.2,0.4-0.3s0.1-0.3,0.1-0.5c0-0.2-0.1-0.3-0.2-0.4
		c-0.1-0.1-0.3-0.2-0.5-0.3s-0.5-0.2-0.8-0.3c-0.3-0.1-0.7-0.2-1.1-0.2c-0.3-0.1-0.7-0.2-1-0.3c-0.3-0.1-0.6-0.2-0.8-0.4
		c-0.2-0.2-0.4-0.4-0.6-0.6c-0.2-0.3-0.2-0.6-0.2-0.9c0-0.5,0.1-1,0.3-1.3c0.2-0.3,0.5-0.6,0.8-0.8c0.3-0.2,0.7-0.3,1.2-0.4
		c0.4-0.1,0.9-0.1,1.3-0.1s0.9,0,1.3,0.1c0.4,0.1,0.8,0.2,1.1,0.4c0.3,0.2,0.6,0.5,0.8,0.8s0.4,0.8,0.4,1.3h-2.2
		c0-0.4-0.2-0.7-0.5-0.9s-0.7-0.2-1.1-0.2c-0.1,0-0.3,0-0.4,0c-0.2,0-0.3,0.1-0.4,0.1s-0.2,0.1-0.3,0.2S85,34.8,85,34.9
		c0,0.2,0.1,0.4,0.2,0.5c0.2,0.1,0.3,0.2,0.6,0.3c0.2,0.1,0.5,0.2,0.8,0.2s0.6,0.1,0.9,0.2c0.3,0.1,0.7,0.2,1,0.3s0.6,0.2,0.8,0.4
		c0.2,0.2,0.4,0.4,0.6,0.7c0.1,0.3,0.2,0.6,0.2,1c0,0.5-0.1,1-0.3,1.4c-0.2,0.4-0.5,0.7-0.9,0.9c-0.4,0.2-0.8,0.4-1.2,0.5
		c-0.5,0.1-0.9,0.1-1.4,0.1c-0.5,0-1,0-1.4-0.1c-0.5-0.1-0.9-0.3-1.2-0.5s-0.7-0.5-0.9-0.9c-0.2-0.4-0.4-0.8-0.4-1.4H84.7z"/>
	<path class="st1" d="M95.4,32.9h1.7v1.5h-1.7v4.1c0,0.4,0.1,0.6,0.2,0.8s0.4,0.2,0.8,0.2c0.3,0,0.5,0,0.7-0.1v1.8
		c-0.2,0-0.4,0.1-0.6,0.1c-0.2,0-0.5,0-0.7,0c-0.4,0-0.7,0-1-0.1c-0.3,0-0.6-0.1-0.8-0.3s-0.4-0.3-0.6-0.6c-0.1-0.3-0.2-0.6-0.2-1
		v-4.9h-1.4v-1.5h1.4v-2.5h2.3V32.9z"/>
	<path class="st1" d="M99.1,32.9h2.2v1.5h0c0.1-0.3,0.3-0.5,0.4-0.7c0.2-0.2,0.4-0.4,0.6-0.6c0.2-0.2,0.5-0.3,0.8-0.4
		s0.5-0.1,0.8-0.1c0.2,0,0.3,0,0.5,0.1v2.1c-0.1,0-0.2,0-0.4-0.1c-0.2,0-0.3,0-0.4,0c-0.4,0-0.8,0.1-1.1,0.2
		c-0.3,0.1-0.5,0.3-0.7,0.6s-0.3,0.5-0.4,0.9c-0.1,0.3-0.1,0.7-0.1,1v3.7h-2.3V32.9z"/>
	<path class="st1" d="M108.2,37.6c0,0.7,0.2,1.3,0.6,1.6s0.8,0.5,1.5,0.5c0.5,0,0.9-0.1,1.2-0.3c0.3-0.2,0.5-0.5,0.6-0.7h2
		c-0.3,1-0.8,1.7-1.5,2.1c-0.7,0.4-1.5,0.7-2.4,0.7c-0.7,0-1.2-0.1-1.8-0.3c-0.5-0.2-1-0.5-1.3-0.9c-0.4-0.4-0.6-0.8-0.8-1.4
		S106,37.7,106,37c0-0.6,0.1-1.2,0.3-1.7c0.2-0.5,0.5-1,0.9-1.4c0.4-0.4,0.8-0.7,1.3-0.9c0.5-0.2,1.1-0.3,1.7-0.3
		c0.7,0,1.3,0.1,1.8,0.4c0.5,0.3,1,0.6,1.3,1.1s0.6,1,0.7,1.6c0.2,0.6,0.2,1.2,0.2,1.8H108.2z M112,36.1c-0.1-0.6-0.3-1-0.6-1.3
		c-0.3-0.3-0.7-0.5-1.2-0.5c-0.4,0-0.7,0.1-0.9,0.2c-0.2,0.1-0.4,0.3-0.6,0.5c-0.1,0.2-0.2,0.4-0.3,0.6c-0.1,0.2-0.1,0.4-0.1,0.5
		H112z M110.5,31.8h-1.6l1.5-2.3h2.5L110.5,31.8z"/>
	<path class="st1" d="M118.3,38.5c0,0.2,0.1,0.5,0.2,0.6s0.2,0.3,0.4,0.4c0.2,0.1,0.3,0.2,0.6,0.2s0.4,0.1,0.7,0.1
		c0.2,0,0.3,0,0.5-0.1c0.2,0,0.3-0.1,0.5-0.2c0.1-0.1,0.3-0.2,0.4-0.3s0.1-0.3,0.1-0.5c0-0.2-0.1-0.3-0.2-0.4
		c-0.1-0.1-0.3-0.2-0.5-0.3s-0.5-0.2-0.8-0.3c-0.3-0.1-0.7-0.2-1.1-0.2c-0.3-0.1-0.7-0.2-1-0.3c-0.3-0.1-0.6-0.2-0.8-0.4
		c-0.2-0.2-0.4-0.4-0.6-0.6c-0.2-0.3-0.2-0.6-0.2-0.9c0-0.5,0.1-1,0.3-1.3c0.2-0.3,0.5-0.6,0.8-0.8c0.3-0.2,0.7-0.3,1.2-0.4
		c0.4-0.1,0.9-0.1,1.3-0.1s0.9,0,1.3,0.1c0.4,0.1,0.8,0.2,1.1,0.4c0.3,0.2,0.6,0.5,0.8,0.8s0.4,0.8,0.4,1.3h-2.2
		c0-0.4-0.2-0.7-0.5-0.9s-0.7-0.2-1.1-0.2c-0.1,0-0.3,0-0.4,0c-0.2,0-0.3,0.1-0.4,0.1s-0.2,0.1-0.3,0.2s-0.1,0.2-0.1,0.4
		c0,0.2,0.1,0.4,0.2,0.5c0.2,0.1,0.3,0.2,0.6,0.3c0.2,0.1,0.5,0.2,0.8,0.2s0.6,0.1,0.9,0.2c0.3,0.1,0.7,0.2,1,0.3s0.6,0.2,0.8,0.4
		c0.2,0.2,0.4,0.4,0.6,0.7c0.1,0.3,0.2,0.6,0.2,1c0,0.5-0.1,1-0.3,1.4c-0.2,0.4-0.5,0.7-0.9,0.9c-0.4,0.2-0.8,0.4-1.2,0.5
		c-0.5,0.1-0.9,0.1-1.4,0.1c-0.5,0-1,0-1.4-0.1c-0.5-0.1-0.9-0.3-1.2-0.5s-0.7-0.5-0.9-0.9c-0.2-0.4-0.4-0.8-0.4-1.4H118.3z"/>
</g>
</svg>
