<!-- Generator: Adobe Illustrator 20.1.0, SVG Export Plug-In  -->
<svg version="1.1"
	 xmlns="http://www.w3.org/2000/svg" xmlns:xlink="http://www.w3.org/1999/xlink" xmlns:a="http://ns.adobe.com/AdobeSVGViewerExtensions/3.0/"
	 x="0px" y="0px" width="215.2px" height="128.6px" viewBox="0 0 215.2 128.6"
	 style="overflow:scroll;enable-background:new 0 0 215.2 128.6;" xml:space="preserve">
<style type="text/css">
	.st0{fill:#008345;}
	.st1{fill:#FFFFFF;}
	.st2{fill:none;stroke:#FFFFFF;stroke-width:1.4079;stroke-miterlimit:10;}
</style>
<defs>
</defs>
<rect id="XMLID_22_" class="st0" width="215.2" height="128.6"/>
<g>
	<path class="st1" d="M7.9,56.4h4.8c0.7,0,1.2,0.1,1.7,0.3c0.5,0.2,0.8,0.4,1.1,0.8c0.3,0.3,0.5,0.7,0.6,1.1
		c0.1,0.4,0.2,0.8,0.2,1.3c0,0.4-0.1,0.9-0.2,1.3c-0.1,0.4-0.3,0.8-0.6,1.1c-0.3,0.3-0.7,0.6-1.1,0.8c-0.5,0.2-1,0.3-1.7,0.3h-2.4
		V67H7.9V56.4z M10.3,61.4h1.8c0.3,0,0.5,0,0.8-0.1c0.2,0,0.5-0.1,0.7-0.2c0.2-0.1,0.3-0.3,0.5-0.5c0.1-0.2,0.2-0.5,0.2-0.8
		S14.1,59.2,14,59c-0.1-0.2-0.3-0.4-0.5-0.5c-0.2-0.1-0.4-0.2-0.7-0.2c-0.2,0-0.5-0.1-0.8-0.1h-1.8V61.4z"/>
	<path class="st1" d="M17.6,59.4h2v1.4h0c0.1-0.2,0.2-0.5,0.4-0.7c0.2-0.2,0.4-0.4,0.6-0.5c0.2-0.1,0.5-0.3,0.7-0.3
		c0.3-0.1,0.5-0.1,0.8-0.1c0.2,0,0.3,0,0.5,0.1v2c-0.1,0-0.2,0-0.4-0.1s-0.3,0-0.4,0c-0.4,0-0.7,0.1-1,0.2c-0.3,0.1-0.5,0.3-0.6,0.5
		c-0.2,0.2-0.3,0.5-0.3,0.8s-0.1,0.6-0.1,1V67h-2.1V59.4z"/>
	<path class="st1" d="M25.6,58.2h-2.1v-1.7h2.1V58.2z M23.4,59.4h2.1V67h-2.1V59.4z"/>
	<path class="st1" d="M27.3,59.4h2v1h0c0.3-0.4,0.6-0.7,1-0.9s0.8-0.3,1.3-0.3c0.5,0,0.9,0.1,1.3,0.3c0.4,0.2,0.7,0.5,0.9,1
		c0.2-0.3,0.5-0.6,0.9-0.9c0.4-0.3,0.9-0.4,1.4-0.4c0.4,0,0.8,0,1.1,0.1c0.3,0.1,0.6,0.3,0.9,0.5c0.2,0.2,0.4,0.5,0.6,0.9
		s0.2,0.8,0.2,1.3V67h-2.1v-4.3c0-0.3,0-0.5,0-0.7c0-0.2-0.1-0.4-0.2-0.6c-0.1-0.2-0.2-0.3-0.4-0.4c-0.2-0.1-0.4-0.1-0.7-0.1
		s-0.5,0.1-0.7,0.2c-0.2,0.1-0.3,0.3-0.4,0.4c-0.1,0.2-0.2,0.4-0.2,0.6c0,0.2-0.1,0.5-0.1,0.7V67h-2.1v-4.3c0-0.2,0-0.4,0-0.7
		c0-0.2-0.1-0.4-0.1-0.6c-0.1-0.2-0.2-0.3-0.4-0.5c-0.2-0.1-0.4-0.2-0.8-0.2c-0.1,0-0.2,0-0.4,0.1c-0.2,0-0.3,0.1-0.5,0.3
		c-0.2,0.1-0.3,0.3-0.4,0.5c-0.1,0.2-0.2,0.5-0.2,0.9V67h-2.1V59.4z"/>
	<path class="st1" d="M42.4,63.7c0,0.7,0.2,1.2,0.5,1.5c0.3,0.3,0.8,0.5,1.4,0.5c0.4,0,0.8-0.1,1.1-0.3s0.5-0.4,0.6-0.7h1.9
		c-0.3,0.9-0.8,1.6-1.4,2c-0.6,0.4-1.4,0.6-2.2,0.6c-0.6,0-1.1-0.1-1.6-0.3c-0.5-0.2-0.9-0.5-1.2-0.8c-0.3-0.4-0.6-0.8-0.8-1.3
		c-0.2-0.5-0.3-1-0.3-1.6c0-0.6,0.1-1.1,0.3-1.6c0.2-0.5,0.5-0.9,0.8-1.3s0.8-0.6,1.2-0.9c0.5-0.2,1-0.3,1.6-0.3
		c0.7,0,1.2,0.1,1.7,0.4c0.5,0.3,0.9,0.6,1.2,1c0.3,0.4,0.5,0.9,0.7,1.5s0.2,1.1,0.1,1.7H42.4z M45.8,62.4c-0.1-0.5-0.3-0.9-0.5-1.2
		c-0.3-0.3-0.6-0.4-1.2-0.4c-0.3,0-0.6,0.1-0.8,0.2c-0.2,0.1-0.4,0.3-0.5,0.4c-0.1,0.2-0.2,0.3-0.3,0.5c-0.1,0.2-0.1,0.4-0.1,0.5
		H45.8z"/>
	<path class="st1" d="M49.2,59.4h2v1.4h0c0.1-0.2,0.2-0.5,0.4-0.7c0.2-0.2,0.4-0.4,0.6-0.5c0.2-0.1,0.5-0.3,0.7-0.3
		c0.3-0.1,0.5-0.1,0.8-0.1c0.2,0,0.3,0,0.5,0.1v2c-0.1,0-0.2,0-0.4-0.1s-0.3,0-0.4,0c-0.4,0-0.7,0.1-1,0.2c-0.3,0.1-0.5,0.3-0.6,0.5
		c-0.2,0.2-0.3,0.5-0.3,0.8s-0.1,0.6-0.1,1V67h-2.1V59.4z"/>
	<path class="st1" d="M54.9,61.7c0-0.5,0.2-0.9,0.4-1.2c0.2-0.3,0.5-0.6,0.8-0.8c0.3-0.2,0.7-0.3,1.1-0.4c0.4-0.1,0.8-0.1,1.3-0.1
		c0.4,0,0.8,0,1.2,0.1c0.4,0.1,0.8,0.2,1.1,0.3c0.3,0.2,0.6,0.4,0.8,0.7c0.2,0.3,0.3,0.7,0.3,1.1v4c0,0.3,0,0.7,0.1,1
		c0,0.3,0.1,0.6,0.2,0.7H60c0-0.1-0.1-0.2-0.1-0.4c0-0.1,0-0.3-0.1-0.4c-0.3,0.3-0.7,0.6-1.2,0.7c-0.5,0.1-0.9,0.2-1.4,0.2
		c-0.4,0-0.7,0-1-0.1c-0.3-0.1-0.6-0.2-0.8-0.4c-0.2-0.2-0.4-0.4-0.6-0.7c-0.1-0.3-0.2-0.6-0.2-1c0-0.4,0.1-0.8,0.2-1.1
		c0.1-0.3,0.3-0.5,0.6-0.7s0.5-0.3,0.8-0.4s0.6-0.2,1-0.2c0.3,0,0.6-0.1,0.9-0.1c0.3,0,0.6-0.1,0.8-0.1c0.2-0.1,0.4-0.1,0.6-0.3
		c0.1-0.1,0.2-0.3,0.2-0.5c0-0.2,0-0.4-0.1-0.5s-0.2-0.2-0.3-0.3c-0.1-0.1-0.3-0.1-0.4-0.1c-0.2,0-0.3,0-0.5,0c-0.4,0-0.7,0.1-1,0.3
		C57.2,61,57,61.3,57,61.7H54.9z M59.7,63.3c-0.1,0.1-0.2,0.1-0.3,0.2c-0.1,0-0.3,0.1-0.4,0.1c-0.2,0-0.3,0.1-0.5,0.1
		s-0.3,0-0.5,0.1c-0.2,0-0.3,0.1-0.5,0.1c-0.1,0-0.3,0.1-0.4,0.2c-0.1,0.1-0.2,0.2-0.3,0.3s-0.1,0.3-0.1,0.5c0,0.2,0,0.4,0.1,0.5
		s0.2,0.2,0.3,0.3c0.1,0.1,0.3,0.1,0.4,0.2c0.2,0,0.3,0,0.5,0c0.4,0,0.7-0.1,1-0.2c0.2-0.1,0.4-0.3,0.5-0.5c0.1-0.2,0.2-0.4,0.2-0.6
		c0-0.2,0-0.4,0-0.5V63.3z"/>
	<path class="st1" d="M67.7,56.4h2.1V67h-2.1V56.4z"/>
	<path class="st1" d="M72.9,58.4h-1.5l1.4-2.1h2.3L72.9,58.4z M71.5,59.4h2.1V67h-2.1V59.4z"/>
	<path class="st1" d="M75.3,59.4h2v1.1h0c0.3-0.4,0.6-0.8,1-1c0.4-0.2,0.9-0.3,1.3-0.3c0.6,0,1,0.1,1.4,0.2c0.4,0.2,0.6,0.4,0.9,0.6
		c0.2,0.3,0.4,0.6,0.4,1c0.1,0.4,0.1,0.8,0.1,1.3V67h-2.1v-4.3c0-0.6-0.1-1.1-0.3-1.4s-0.6-0.5-1-0.5c-0.6,0-1,0.2-1.2,0.5
		c-0.3,0.3-0.4,0.9-0.4,1.7v4h-2.1V59.4z"/>
	<path class="st1" d="M85.8,63.7c0,0.7,0.2,1.2,0.5,1.5c0.3,0.3,0.8,0.5,1.4,0.5c0.4,0,0.8-0.1,1.1-0.3s0.5-0.4,0.6-0.7h1.9
		c-0.3,0.9-0.8,1.6-1.4,2c-0.6,0.4-1.4,0.6-2.2,0.6c-0.6,0-1.1-0.1-1.6-0.3c-0.5-0.2-0.9-0.5-1.2-0.8c-0.3-0.4-0.6-0.8-0.8-1.3
		c-0.2-0.5-0.3-1-0.3-1.6c0-0.6,0.1-1.1,0.3-1.6c0.2-0.5,0.5-0.9,0.8-1.3s0.8-0.6,1.2-0.9c0.5-0.2,1-0.3,1.6-0.3
		c0.7,0,1.2,0.1,1.7,0.4c0.5,0.3,0.9,0.6,1.2,1c0.3,0.4,0.5,0.9,0.7,1.5s0.2,1.1,0.1,1.7H85.8z M89.2,62.4c-0.1-0.5-0.3-0.9-0.5-1.2
		c-0.3-0.3-0.6-0.4-1.2-0.4c-0.3,0-0.6,0.1-0.8,0.2c-0.2,0.1-0.4,0.3-0.5,0.4c-0.1,0.2-0.2,0.3-0.3,0.5c-0.1,0.2-0.1,0.4-0.1,0.5
		H89.2z"/>
	<path class="st1" d="M92.5,61.7c0-0.5,0.2-0.9,0.4-1.2c0.2-0.3,0.5-0.6,0.8-0.8c0.3-0.2,0.7-0.3,1.1-0.4c0.4-0.1,0.8-0.1,1.3-0.1
		c0.4,0,0.8,0,1.2,0.1c0.4,0.1,0.8,0.2,1.1,0.3c0.3,0.2,0.6,0.4,0.8,0.7c0.2,0.3,0.3,0.7,0.3,1.1v4c0,0.3,0,0.7,0.1,1
		c0,0.3,0.1,0.6,0.2,0.7h-2.1c0-0.1-0.1-0.2-0.1-0.4c0-0.1,0-0.3-0.1-0.4c-0.3,0.3-0.7,0.6-1.2,0.7c-0.5,0.1-0.9,0.2-1.4,0.2
		c-0.4,0-0.7,0-1-0.1c-0.3-0.1-0.6-0.2-0.8-0.4c-0.2-0.2-0.4-0.4-0.6-0.7c-0.1-0.3-0.2-0.6-0.2-1c0-0.4,0.1-0.8,0.2-1.1
		c0.1-0.3,0.3-0.5,0.6-0.7s0.5-0.3,0.8-0.4s0.6-0.2,1-0.2c0.3,0,0.6-0.1,0.9-0.1c0.3,0,0.6-0.1,0.8-0.1c0.2-0.1,0.4-0.1,0.6-0.3
		c0.1-0.1,0.2-0.3,0.2-0.5c0-0.2,0-0.4-0.1-0.5s-0.2-0.2-0.3-0.3c-0.1-0.1-0.3-0.1-0.4-0.1c-0.2,0-0.3,0-0.5,0c-0.4,0-0.7,0.1-1,0.3
		c-0.2,0.2-0.4,0.5-0.4,0.9H92.5z M97.4,63.3c-0.1,0.1-0.2,0.1-0.3,0.2c-0.1,0-0.3,0.1-0.4,0.1c-0.2,0-0.3,0.1-0.5,0.1
		s-0.3,0-0.5,0.1c-0.2,0-0.3,0.1-0.5,0.1c-0.1,0-0.3,0.1-0.4,0.2c-0.1,0.1-0.2,0.2-0.3,0.3s-0.1,0.3-0.1,0.5c0,0.2,0,0.4,0.1,0.5
		s0.2,0.2,0.3,0.3c0.1,0.1,0.3,0.1,0.4,0.2c0.2,0,0.3,0,0.5,0c0.4,0,0.7-0.1,1-0.2c0.2-0.1,0.4-0.3,0.5-0.5c0.1-0.2,0.2-0.4,0.2-0.6
		c0-0.2,0-0.4,0-0.5V63.3z"/>
	<path class="st1" d="M110.7,66L110.7,66c-0.3,0.4-0.6,0.7-1,0.9c-0.4,0.2-0.9,0.3-1.4,0.3c-0.6,0-1.1-0.1-1.5-0.3
		c-0.4-0.2-0.8-0.5-1.1-0.9s-0.5-0.8-0.6-1.3c-0.1-0.5-0.2-1-0.2-1.5c0-0.5,0.1-1,0.2-1.5c0.1-0.5,0.4-0.9,0.6-1.3s0.6-0.7,1.1-0.9
		c0.4-0.2,0.9-0.3,1.5-0.3c0.5,0,0.9,0.1,1.3,0.3c0.4,0.2,0.7,0.5,1,0.9h0v-3.9h2.1V67h-2V66z M110.7,63.2c0-0.3,0-0.6-0.1-0.9
		s-0.2-0.6-0.3-0.8c-0.1-0.2-0.3-0.4-0.6-0.5s-0.5-0.2-0.9-0.2c-0.3,0-0.6,0.1-0.9,0.2c-0.2,0.1-0.4,0.3-0.6,0.5s-0.2,0.5-0.3,0.8
		s-0.1,0.6-0.1,0.9c0,0.3,0,0.6,0.1,0.9c0.1,0.3,0.2,0.6,0.3,0.8s0.3,0.4,0.6,0.6c0.2,0.1,0.5,0.2,0.8,0.2c0.3,0,0.6-0.1,0.9-0.2
		s0.4-0.3,0.6-0.6s0.2-0.5,0.3-0.8C110.6,63.8,110.7,63.5,110.7,63.2z"/>
	<path class="st1" d="M116,63.7c0,0.7,0.2,1.2,0.5,1.5c0.3,0.3,0.8,0.5,1.4,0.5c0.4,0,0.8-0.1,1.1-0.3s0.5-0.4,0.6-0.7h1.9
		c-0.3,0.9-0.8,1.6-1.4,2c-0.6,0.4-1.4,0.6-2.2,0.6c-0.6,0-1.1-0.1-1.6-0.3c-0.5-0.2-0.9-0.5-1.2-0.8c-0.3-0.4-0.6-0.8-0.8-1.3
		c-0.2-0.5-0.3-1-0.3-1.6c0-0.6,0.1-1.1,0.3-1.6c0.2-0.5,0.5-0.9,0.8-1.3s0.8-0.6,1.2-0.9c0.5-0.2,1-0.3,1.6-0.3
		c0.7,0,1.2,0.1,1.7,0.4c0.5,0.3,0.9,0.6,1.2,1c0.3,0.4,0.5,0.9,0.7,1.5s0.2,1.1,0.1,1.7H116z M119.5,62.4c-0.1-0.5-0.3-0.9-0.5-1.2
		c-0.3-0.3-0.6-0.4-1.2-0.4c-0.3,0-0.6,0.1-0.8,0.2c-0.2,0.1-0.4,0.3-0.5,0.4c-0.1,0.2-0.2,0.3-0.3,0.5c-0.1,0.2-0.1,0.4-0.1,0.5
		H119.5z"/>
	<path class="st1" d="M129.6,59.4h1.5v1.4h-1.5v3.8c0,0.4,0.1,0.6,0.2,0.7c0.1,0.1,0.4,0.2,0.7,0.2c0.2,0,0.5,0,0.7-0.1V67
		c-0.2,0-0.4,0-0.6,0.1s-0.4,0-0.6,0c-0.3,0-0.6,0-0.9-0.1c-0.3,0-0.5-0.1-0.8-0.3s-0.4-0.3-0.5-0.6c-0.1-0.2-0.2-0.5-0.2-0.9v-4.5
		h-1.3v-1.4h1.3v-2.3h2.1V59.4z"/>
	<path class="st1" d="M132.2,59.4h2v1.4h0c0.1-0.2,0.2-0.5,0.4-0.7c0.2-0.2,0.4-0.4,0.6-0.5c0.2-0.1,0.5-0.3,0.7-0.3
		c0.3-0.1,0.5-0.1,0.8-0.1c0.2,0,0.3,0,0.5,0.1v2c-0.1,0-0.2,0-0.4-0.1s-0.3,0-0.4,0c-0.4,0-0.7,0.1-1,0.2c-0.3,0.1-0.5,0.3-0.6,0.5
		c-0.2,0.2-0.3,0.5-0.3,0.8s-0.1,0.6-0.1,1V67h-2.1V59.4z"/>
	<path class="st1" d="M137.8,61.7c0-0.5,0.2-0.9,0.4-1.2c0.2-0.3,0.5-0.6,0.8-0.8c0.3-0.2,0.7-0.3,1.1-0.4c0.4-0.1,0.8-0.1,1.3-0.1
		c0.4,0,0.8,0,1.2,0.1c0.4,0.1,0.8,0.2,1.1,0.3c0.3,0.2,0.6,0.4,0.8,0.7c0.2,0.3,0.3,0.7,0.3,1.1v4c0,0.3,0,0.7,0.1,1
		c0,0.3,0.1,0.6,0.2,0.7H143c0-0.1-0.1-0.2-0.1-0.4c0-0.1,0-0.3-0.1-0.4c-0.3,0.3-0.7,0.6-1.2,0.7c-0.5,0.1-0.9,0.2-1.4,0.2
		c-0.4,0-0.7,0-1-0.1c-0.3-0.1-0.6-0.2-0.8-0.4c-0.2-0.2-0.4-0.4-0.6-0.7c-0.1-0.3-0.2-0.6-0.2-1c0-0.4,0.1-0.8,0.2-1.1
		c0.1-0.3,0.3-0.5,0.6-0.7s0.5-0.3,0.8-0.4s0.6-0.2,1-0.2c0.3,0,0.6-0.1,0.9-0.1c0.3,0,0.6-0.1,0.8-0.1c0.2-0.1,0.4-0.1,0.6-0.3
		c0.1-0.1,0.2-0.3,0.2-0.5c0-0.2,0-0.4-0.1-0.5s-0.2-0.2-0.3-0.3c-0.1-0.1-0.3-0.1-0.4-0.1c-0.2,0-0.3,0-0.5,0c-0.4,0-0.7,0.1-1,0.3
		c-0.2,0.2-0.4,0.5-0.4,0.9H137.8z M142.7,63.3c-0.1,0.1-0.2,0.1-0.3,0.2c-0.1,0-0.3,0.1-0.4,0.1c-0.2,0-0.3,0.1-0.5,0.1
		s-0.3,0-0.5,0.1c-0.2,0-0.3,0.1-0.5,0.1c-0.1,0-0.3,0.1-0.4,0.2c-0.1,0.1-0.2,0.2-0.3,0.3s-0.1,0.3-0.1,0.5c0,0.2,0,0.4,0.1,0.5
		s0.2,0.2,0.3,0.3c0.1,0.1,0.3,0.1,0.4,0.2c0.2,0,0.3,0,0.5,0c0.4,0,0.7-0.1,1-0.2c0.2-0.1,0.4-0.3,0.5-0.5c0.1-0.2,0.2-0.4,0.2-0.6
		c0-0.2,0-0.4,0-0.5V63.3z"/>
	<path class="st1" d="M149.1,59.4h1.5v1.4h-1.5v3.8c0,0.4,0.1,0.6,0.2,0.7c0.1,0.1,0.4,0.2,0.7,0.2c0.2,0,0.5,0,0.7-0.1V67
		c-0.2,0-0.4,0-0.6,0.1s-0.4,0-0.6,0c-0.3,0-0.6,0-0.9-0.1c-0.3,0-0.5-0.1-0.8-0.3s-0.4-0.3-0.5-0.6c-0.1-0.2-0.2-0.5-0.2-0.9v-4.5
		h-1.3v-1.4h1.3v-2.3h2.1V59.4z"/>
	<path class="st1" d="M151.6,61.7c0-0.5,0.2-0.9,0.4-1.2c0.2-0.3,0.5-0.6,0.8-0.8c0.3-0.2,0.7-0.3,1.1-0.4c0.4-0.1,0.8-0.1,1.3-0.1
		c0.4,0,0.8,0,1.2,0.1c0.4,0.1,0.8,0.2,1.1,0.3c0.3,0.2,0.6,0.4,0.8,0.7c0.2,0.3,0.3,0.7,0.3,1.1v4c0,0.3,0,0.7,0.1,1
		c0,0.3,0.1,0.6,0.2,0.7h-2.1c0-0.1-0.1-0.2-0.1-0.4c0-0.1,0-0.3-0.1-0.4c-0.3,0.3-0.7,0.6-1.2,0.7c-0.5,0.1-0.9,0.2-1.4,0.2
		c-0.4,0-0.7,0-1-0.1c-0.3-0.1-0.6-0.2-0.8-0.4c-0.2-0.2-0.4-0.4-0.6-0.7c-0.1-0.3-0.2-0.6-0.2-1c0-0.4,0.1-0.8,0.2-1.1
		c0.1-0.3,0.3-0.5,0.6-0.7s0.5-0.3,0.8-0.4s0.6-0.2,1-0.2c0.3,0,0.6-0.1,0.9-0.1c0.3,0,0.6-0.1,0.8-0.1c0.2-0.1,0.4-0.1,0.6-0.3
		c0.1-0.1,0.2-0.3,0.2-0.5c0-0.2,0-0.4-0.1-0.5s-0.2-0.2-0.3-0.3c-0.1-0.1-0.3-0.1-0.4-0.1c-0.2,0-0.3,0-0.5,0c-0.4,0-0.7,0.1-1,0.3
		c-0.2,0.2-0.4,0.5-0.4,0.9H151.6z M156.5,63.3c-0.1,0.1-0.2,0.1-0.3,0.2c-0.1,0-0.3,0.1-0.4,0.1c-0.2,0-0.3,0.1-0.5,0.1
		s-0.3,0-0.5,0.1c-0.2,0-0.3,0.1-0.5,0.1c-0.1,0-0.3,0.1-0.4,0.2c-0.1,0.1-0.2,0.2-0.3,0.3s-0.1,0.3-0.1,0.5c0,0.2,0,0.4,0.1,0.5
		s0.2,0.2,0.3,0.3c0.1,0.1,0.3,0.1,0.4,0.2c0.2,0,0.3,0,0.5,0c0.4,0,0.7-0.1,1-0.2c0.2-0.1,0.4-0.3,0.5-0.5c0.1-0.2,0.2-0.4,0.2-0.6
		c0-0.2,0-0.4,0-0.5V63.3z"/>
	<path class="st1" d="M160.3,59.4h2v1h0c0.3-0.4,0.6-0.7,1-0.9s0.8-0.3,1.3-0.3c0.5,0,0.9,0.1,1.3,0.3c0.4,0.2,0.7,0.5,0.9,1
		c0.2-0.3,0.5-0.6,0.9-0.9c0.4-0.3,0.9-0.4,1.4-0.4c0.4,0,0.8,0,1.1,0.1c0.3,0.1,0.6,0.3,0.9,0.5c0.2,0.2,0.4,0.5,0.6,0.9
		s0.2,0.8,0.2,1.3V67h-2.1v-4.3c0-0.3,0-0.5,0-0.7c0-0.2-0.1-0.4-0.2-0.6c-0.1-0.2-0.2-0.3-0.4-0.4c-0.2-0.1-0.4-0.1-0.7-0.1
		s-0.5,0.1-0.7,0.2c-0.2,0.1-0.3,0.3-0.4,0.4c-0.1,0.2-0.2,0.4-0.2,0.6c0,0.2-0.1,0.5-0.1,0.7V67h-2.1v-4.3c0-0.2,0-0.4,0-0.7
		c0-0.2-0.1-0.4-0.1-0.6c-0.1-0.2-0.2-0.3-0.4-0.5c-0.2-0.1-0.4-0.2-0.8-0.2c-0.1,0-0.2,0-0.4,0.1c-0.2,0-0.3,0.1-0.5,0.3
		c-0.2,0.1-0.3,0.3-0.4,0.5c-0.1,0.2-0.2,0.5-0.2,0.9V67h-2.1V59.4z"/>
	<path class="st1" d="M175.8,58.2h-2.1v-1.7h2.1V58.2z M173.7,59.4h2.1V67h-2.1V59.4z"/>
	<path class="st1" d="M179.2,63.7c0,0.7,0.2,1.2,0.5,1.5c0.3,0.3,0.8,0.5,1.4,0.5c0.4,0,0.8-0.1,1.1-0.3s0.5-0.4,0.6-0.7h1.9
		c-0.3,0.9-0.8,1.6-1.4,2c-0.6,0.4-1.4,0.6-2.2,0.6c-0.6,0-1.1-0.1-1.6-0.3c-0.5-0.2-0.9-0.5-1.2-0.8c-0.3-0.4-0.6-0.8-0.8-1.3
		c-0.2-0.5-0.3-1-0.3-1.6c0-0.6,0.1-1.1,0.3-1.6c0.2-0.5,0.5-0.9,0.8-1.3s0.8-0.6,1.2-0.9c0.5-0.2,1-0.3,1.6-0.3
		c0.7,0,1.2,0.1,1.7,0.4c0.5,0.3,0.9,0.6,1.2,1c0.3,0.4,0.5,0.9,0.7,1.5s0.2,1.1,0.1,1.7H179.2z M182.6,62.4
		c-0.1-0.5-0.3-0.9-0.5-1.2c-0.3-0.3-0.6-0.4-1.2-0.4c-0.3,0-0.6,0.1-0.8,0.2c-0.2,0.1-0.4,0.3-0.5,0.4c-0.1,0.2-0.2,0.3-0.3,0.5
		c-0.1,0.2-0.1,0.4-0.1,0.5H182.6z"/>
	<path class="st1" d="M186,59.4h2v1.1h0c0.3-0.4,0.6-0.8,1-1c0.4-0.2,0.9-0.3,1.3-0.3c0.6,0,1,0.1,1.4,0.2c0.4,0.2,0.6,0.4,0.9,0.6
		c0.2,0.3,0.4,0.6,0.4,1c0.1,0.4,0.1,0.8,0.1,1.3V67h-2.1v-4.3c0-0.6-0.1-1.1-0.3-1.4s-0.6-0.5-1-0.5c-0.6,0-1,0.2-1.2,0.5
		c-0.3,0.3-0.4,0.9-0.4,1.7v4H186V59.4z"/>
	<path class="st1" d="M197.5,59.4h1.5v1.4h-1.5v3.8c0,0.4,0.1,0.6,0.2,0.7c0.1,0.1,0.4,0.2,0.7,0.2c0.2,0,0.5,0,0.7-0.1V67
		c-0.2,0-0.4,0-0.6,0.1s-0.4,0-0.6,0c-0.3,0-0.6,0-0.9-0.1c-0.3,0-0.5-0.1-0.8-0.3s-0.4-0.3-0.5-0.6c-0.1-0.2-0.2-0.5-0.2-0.9v-4.5
		h-1.3v-1.4h1.3v-2.3h2.1V59.4z"/>
	<path class="st1" d="M199.8,63.2c0-0.6,0.1-1.2,0.3-1.7c0.2-0.5,0.5-0.9,0.8-1.3s0.8-0.6,1.2-0.8c0.5-0.2,1-0.3,1.6-0.3
		s1.2,0.1,1.6,0.3c0.5,0.2,0.9,0.5,1.3,0.8s0.6,0.8,0.8,1.3c0.2,0.5,0.3,1.1,0.3,1.7s-0.1,1.2-0.3,1.7c-0.2,0.5-0.5,0.9-0.8,1.3
		c-0.3,0.4-0.8,0.6-1.3,0.8c-0.5,0.2-1,0.3-1.6,0.3s-1.1-0.1-1.6-0.3c-0.5-0.2-0.9-0.5-1.2-0.8c-0.3-0.4-0.6-0.8-0.8-1.3
		C199.9,64.4,199.8,63.8,199.8,63.2z M201.9,63.2c0,0.3,0,0.6,0.1,0.9c0.1,0.3,0.2,0.6,0.3,0.8s0.3,0.4,0.6,0.6
		c0.2,0.1,0.5,0.2,0.9,0.2c0.4,0,0.7-0.1,0.9-0.2s0.4-0.3,0.6-0.6c0.1-0.2,0.2-0.5,0.3-0.8c0.1-0.3,0.1-0.6,0.1-0.9s0-0.6-0.1-0.9
		s-0.2-0.6-0.3-0.8c-0.1-0.2-0.3-0.4-0.6-0.6c-0.2-0.1-0.5-0.2-0.9-0.2c-0.4,0-0.7,0.1-0.9,0.2c-0.2,0.1-0.4,0.3-0.6,0.6
		S202,62,202,62.3S201.9,62.9,201.9,63.2z"/>
</g>
<g>
	<path class="st1" d="M15.4,89.8h4.3c0.6,0,1.1,0.1,1.5,0.3c0.4,0.2,0.8,0.4,1,0.7c0.3,0.3,0.5,0.6,0.6,1c0.1,0.4,0.2,0.8,0.2,1.1
		c0,0.4-0.1,0.8-0.2,1.1c-0.1,0.4-0.3,0.7-0.6,1c-0.3,0.3-0.6,0.5-1,0.7c-0.4,0.2-0.9,0.3-1.5,0.3h-2.2v3.5h-2.1V89.8z M17.5,94.3
		h1.6c0.2,0,0.5,0,0.7-0.1c0.2,0,0.4-0.1,0.6-0.2c0.2-0.1,0.3-0.3,0.4-0.4c0.1-0.2,0.2-0.4,0.2-0.7s-0.1-0.6-0.2-0.7
		c-0.1-0.2-0.2-0.3-0.4-0.4c-0.2-0.1-0.4-0.2-0.6-0.2c-0.2,0-0.5-0.1-0.7-0.1h-1.6V94.3z"/>
	<path class="st1" d="M24.1,94.6c0-0.5,0.1-0.8,0.3-1.1c0.2-0.3,0.4-0.5,0.8-0.7c0.3-0.2,0.6-0.3,1-0.4c0.4-0.1,0.8-0.1,1.2-0.1
		c0.4,0,0.7,0,1.1,0.1c0.4,0,0.7,0.1,1,0.3c0.3,0.1,0.5,0.3,0.7,0.6c0.2,0.3,0.3,0.6,0.3,1v3.6c0,0.3,0,0.6,0.1,0.9s0.1,0.5,0.2,0.6
		h-1.9c0-0.1-0.1-0.2-0.1-0.3c0-0.1,0-0.2,0-0.3c-0.3,0.3-0.7,0.5-1.1,0.7c-0.4,0.1-0.8,0.2-1.3,0.2c-0.3,0-0.6,0-0.9-0.1
		c-0.3-0.1-0.5-0.2-0.8-0.4c-0.2-0.2-0.4-0.4-0.5-0.6c-0.1-0.3-0.2-0.6-0.2-0.9c0-0.4,0.1-0.7,0.2-1c0.1-0.3,0.3-0.5,0.5-0.6
		c0.2-0.2,0.5-0.3,0.8-0.3c0.3-0.1,0.6-0.1,0.9-0.2s0.6-0.1,0.8-0.1c0.3,0,0.5-0.1,0.7-0.1c0.2-0.1,0.4-0.1,0.5-0.2
		c0.1-0.1,0.2-0.3,0.2-0.5c0-0.2,0-0.4-0.1-0.5c-0.1-0.1-0.2-0.2-0.3-0.3s-0.2-0.1-0.4-0.1s-0.3,0-0.5,0c-0.4,0-0.7,0.1-0.9,0.2
		c-0.2,0.2-0.3,0.4-0.4,0.8H24.1z M28.5,96c-0.1,0.1-0.2,0.1-0.3,0.2c-0.1,0-0.3,0.1-0.4,0.1c-0.1,0-0.3,0-0.4,0.1
		c-0.2,0-0.3,0-0.5,0.1c-0.2,0-0.3,0.1-0.4,0.1c-0.1,0-0.3,0.1-0.4,0.2S26,96.9,25.9,97c-0.1,0.1-0.1,0.3-0.1,0.4
		c0,0.2,0,0.3,0.1,0.4c0.1,0.1,0.1,0.2,0.3,0.3c0.1,0.1,0.2,0.1,0.4,0.1c0.1,0,0.3,0,0.4,0c0.4,0,0.7-0.1,0.9-0.2
		c0.2-0.1,0.4-0.3,0.5-0.5c0.1-0.2,0.2-0.4,0.2-0.5s0-0.3,0-0.4V96z"/>
	<path class="st1" d="M31.9,92.4h1.8v1.3h0c0.1-0.2,0.2-0.4,0.4-0.6c0.2-0.2,0.3-0.3,0.5-0.5c0.2-0.1,0.4-0.2,0.6-0.3
		s0.5-0.1,0.7-0.1c0.1,0,0.3,0,0.4,0.1v1.8c-0.1,0-0.2,0-0.3,0s-0.2,0-0.4,0c-0.4,0-0.6,0.1-0.9,0.2c-0.2,0.1-0.4,0.3-0.6,0.5
		c-0.1,0.2-0.3,0.4-0.3,0.7c-0.1,0.3-0.1,0.6-0.1,0.9v3.1h-1.9V92.4z"/>
	<path class="st1" d="M37.1,94.6c0-0.5,0.1-0.8,0.3-1.1c0.2-0.3,0.4-0.5,0.8-0.7c0.3-0.2,0.6-0.3,1-0.4c0.4-0.1,0.8-0.1,1.2-0.1
		c0.4,0,0.7,0,1.1,0.1c0.4,0,0.7,0.1,1,0.3c0.3,0.1,0.5,0.3,0.7,0.6c0.2,0.3,0.3,0.6,0.3,1v3.6c0,0.3,0,0.6,0.1,0.9s0.1,0.5,0.2,0.6
		h-1.9c0-0.1-0.1-0.2-0.1-0.3c0-0.1,0-0.2,0-0.3c-0.3,0.3-0.7,0.5-1.1,0.7c-0.4,0.1-0.8,0.2-1.3,0.2c-0.3,0-0.6,0-0.9-0.1
		c-0.3-0.1-0.5-0.2-0.8-0.4c-0.2-0.2-0.4-0.4-0.5-0.6c-0.1-0.3-0.2-0.6-0.2-0.9c0-0.4,0.1-0.7,0.2-1c0.1-0.3,0.3-0.5,0.5-0.6
		c0.2-0.2,0.5-0.3,0.8-0.3c0.3-0.1,0.6-0.1,0.9-0.2s0.6-0.1,0.8-0.1c0.3,0,0.5-0.1,0.7-0.1c0.2-0.1,0.4-0.1,0.5-0.2
		c0.1-0.1,0.2-0.3,0.2-0.5c0-0.2,0-0.4-0.1-0.5c-0.1-0.1-0.2-0.2-0.3-0.3s-0.2-0.1-0.4-0.1s-0.3,0-0.5,0c-0.4,0-0.7,0.1-0.9,0.2
		c-0.2,0.2-0.3,0.4-0.4,0.8H37.1z M41.5,96c-0.1,0.1-0.2,0.1-0.3,0.2c-0.1,0-0.3,0.1-0.4,0.1c-0.1,0-0.3,0-0.4,0.1
		c-0.2,0-0.3,0-0.5,0.1c-0.2,0-0.3,0.1-0.4,0.1c-0.1,0-0.3,0.1-0.4,0.2S39,96.9,38.9,97c-0.1,0.1-0.1,0.3-0.1,0.4
		c0,0.2,0,0.3,0.1,0.4c0.1,0.1,0.1,0.2,0.3,0.3c0.1,0.1,0.2,0.1,0.4,0.1c0.1,0,0.3,0,0.4,0c0.4,0,0.7-0.1,0.9-0.2
		c0.2-0.1,0.4-0.3,0.5-0.5c0.1-0.2,0.2-0.4,0.2-0.5s0-0.3,0-0.4V96z"/>
	<path class="st1" d="M48.7,92.4h1.8v0.9h0c0.2-0.4,0.5-0.7,0.9-0.8c0.4-0.2,0.8-0.3,1.2-0.3c0.5,0,1,0.1,1.4,0.3
		c0.4,0.2,0.7,0.5,1,0.8s0.5,0.7,0.6,1.2s0.2,0.9,0.2,1.4c0,0.5-0.1,0.9-0.2,1.3s-0.3,0.8-0.6,1.1c-0.3,0.3-0.6,0.6-1,0.8
		c-0.4,0.2-0.8,0.3-1.3,0.3c-0.4,0-0.8-0.1-1.2-0.3c-0.4-0.2-0.7-0.4-0.9-0.8h0v3.3h-1.9V92.4z M52.2,98.1c0.3,0,0.6-0.1,0.8-0.2
		c0.2-0.1,0.4-0.3,0.5-0.5c0.1-0.2,0.2-0.4,0.3-0.7c0.1-0.3,0.1-0.5,0.1-0.8c0-0.3,0-0.6-0.1-0.8c-0.1-0.3-0.2-0.5-0.3-0.7
		c-0.1-0.2-0.3-0.4-0.5-0.5c-0.2-0.1-0.5-0.2-0.8-0.2c-0.3,0-0.6,0.1-0.8,0.2c-0.2,0.1-0.4,0.3-0.5,0.5s-0.2,0.4-0.3,0.7
		c-0.1,0.3-0.1,0.6-0.1,0.8c0,0.3,0,0.6,0.1,0.8s0.2,0.5,0.3,0.7c0.1,0.2,0.3,0.4,0.5,0.5C51.6,98.1,51.9,98.1,52.2,98.1z"/>
	<path class="st1" d="M56.9,92.4h1.8v1.3h0c0.1-0.2,0.2-0.4,0.4-0.6c0.2-0.2,0.3-0.3,0.5-0.5c0.2-0.1,0.4-0.2,0.6-0.3
		s0.5-0.1,0.7-0.1c0.1,0,0.3,0,0.4,0.1v1.8c-0.1,0-0.2,0-0.3,0s-0.2,0-0.4,0c-0.4,0-0.6,0.1-0.9,0.2c-0.2,0.1-0.4,0.3-0.6,0.5
		c-0.1,0.2-0.3,0.4-0.3,0.7c-0.1,0.3-0.1,0.6-0.1,0.9v3.1h-1.9V92.4z"/>
	<path class="st1" d="M63.5,96.4c0,0.6,0.2,1.1,0.5,1.3c0.3,0.3,0.7,0.4,1.2,0.4c0.4,0,0.7-0.1,1-0.3c0.3-0.2,0.4-0.4,0.5-0.6h1.7
		c-0.3,0.8-0.7,1.4-1.2,1.8c-0.6,0.4-1.2,0.6-2,0.6c-0.5,0-1-0.1-1.5-0.3c-0.4-0.2-0.8-0.4-1.1-0.8c-0.3-0.3-0.5-0.7-0.7-1.2
		c-0.2-0.4-0.2-0.9-0.2-1.5c0-0.5,0.1-1,0.3-1.5c0.2-0.4,0.4-0.8,0.7-1.2c0.3-0.3,0.7-0.6,1.1-0.8c0.4-0.2,0.9-0.3,1.5-0.3
		c0.6,0,1.1,0.1,1.6,0.3s0.8,0.5,1.1,0.9c0.3,0.4,0.5,0.8,0.6,1.3c0.1,0.5,0.2,1,0.1,1.6H63.5z M66.6,95.2c-0.1-0.5-0.2-0.9-0.5-1.1
		s-0.6-0.4-1-0.4c-0.3,0-0.6,0.1-0.8,0.2c-0.2,0.1-0.4,0.2-0.5,0.4c-0.1,0.2-0.2,0.3-0.3,0.5c0,0.2-0.1,0.3-0.1,0.5H66.6z"/>
	<path class="st1" d="M73.5,99.4h-2.1l-2.4-7h2l1.5,4.8h0l1.5-4.8h1.9L73.5,99.4z"/>
	<path class="st1" d="M78.3,96.4c0,0.6,0.2,1.1,0.5,1.3s0.7,0.4,1.2,0.4c0.4,0,0.7-0.1,1-0.3c0.3-0.2,0.4-0.4,0.5-0.6h1.7
		c-0.3,0.8-0.7,1.4-1.2,1.8c-0.6,0.4-1.2,0.6-2,0.6c-0.5,0-1-0.1-1.5-0.3c-0.4-0.2-0.8-0.4-1.1-0.8c-0.3-0.3-0.5-0.7-0.7-1.2
		c-0.2-0.4-0.2-0.9-0.2-1.5c0-0.5,0.1-1,0.3-1.5c0.2-0.4,0.4-0.8,0.7-1.2c0.3-0.3,0.7-0.6,1.1-0.8c0.4-0.2,0.9-0.3,1.5-0.3
		c0.6,0,1.1,0.1,1.6,0.3s0.8,0.5,1.1,0.9c0.3,0.4,0.5,0.8,0.6,1.3c0.1,0.5,0.2,1,0.1,1.6H78.3z M81.4,95.2c-0.1-0.5-0.2-0.9-0.5-1.1
		s-0.6-0.4-1-0.4c-0.3,0-0.6,0.1-0.8,0.2c-0.2,0.1-0.4,0.2-0.5,0.4c-0.1,0.2-0.2,0.3-0.3,0.5c0,0.2-0.1,0.3-0.1,0.5H81.4z"/>
	<path class="st1" d="M84.4,92.4h1.8v1h0c0.2-0.4,0.6-0.7,0.9-0.9c0.4-0.2,0.8-0.3,1.2-0.3c0.5,0,0.9,0.1,1.3,0.2
		c0.3,0.1,0.6,0.3,0.8,0.6c0.2,0.2,0.3,0.5,0.4,0.9c0.1,0.4,0.1,0.7,0.1,1.2v4.3h-1.9v-3.9c0-0.6-0.1-1-0.3-1.3s-0.5-0.4-1-0.4
		c-0.5,0-0.9,0.2-1.1,0.5c-0.2,0.3-0.4,0.8-0.4,1.5v3.7h-1.9V92.4z"/>
	<path class="st1" d="M94.4,91.3h-1.9v-1.6h1.9V91.3z M92.5,92.4h1.9v7h-1.9V92.4z"/>
	<path class="st1" d="M95.9,92.4h1.8v1.3h0c0.1-0.2,0.2-0.4,0.4-0.6c0.2-0.2,0.3-0.3,0.5-0.5c0.2-0.1,0.4-0.2,0.6-0.3
		s0.5-0.1,0.7-0.1c0.1,0,0.3,0,0.4,0.1v1.8c-0.1,0-0.2,0-0.3,0s-0.2,0-0.4,0c-0.4,0-0.6,0.1-0.9,0.2c-0.2,0.1-0.4,0.3-0.6,0.5
		c-0.1,0.2-0.3,0.4-0.3,0.7c-0.1,0.3-0.1,0.6-0.1,0.9v3.1h-1.9V92.4z"/>
	<path class="st1" d="M106.5,96.4c0,0.6,0.2,1.1,0.5,1.3s0.7,0.4,1.2,0.4c0.4,0,0.7-0.1,1-0.3c0.3-0.2,0.4-0.4,0.5-0.6h1.7
		c-0.3,0.8-0.7,1.4-1.2,1.8c-0.6,0.4-1.2,0.6-2,0.6c-0.5,0-1-0.1-1.5-0.3c-0.4-0.2-0.8-0.4-1.1-0.8c-0.3-0.3-0.5-0.7-0.7-1.2
		c-0.2-0.4-0.2-0.9-0.2-1.5c0-0.5,0.1-1,0.3-1.5c0.2-0.4,0.4-0.8,0.7-1.2c0.3-0.3,0.7-0.6,1.1-0.8c0.4-0.2,0.9-0.3,1.5-0.3
		c0.6,0,1.1,0.1,1.6,0.3s0.8,0.5,1.1,0.9c0.3,0.4,0.5,0.8,0.6,1.3c0.1,0.5,0.2,1,0.1,1.6H106.5z M109.6,95.2
		c-0.1-0.5-0.2-0.9-0.5-1.1s-0.6-0.4-1-0.4c-0.3,0-0.6,0.1-0.8,0.2c-0.2,0.1-0.4,0.2-0.5,0.4c-0.1,0.2-0.2,0.3-0.3,0.5
		c0,0.2-0.1,0.3-0.1,0.5H109.6z"/>
	<path class="st1" d="M112.7,92.4h1.8v1h0c0.2-0.4,0.6-0.7,0.9-0.9c0.4-0.2,0.8-0.3,1.2-0.3c0.5,0,0.9,0.1,1.3,0.2
		c0.3,0.1,0.6,0.3,0.8,0.6c0.2,0.2,0.3,0.5,0.4,0.9c0.1,0.4,0.1,0.7,0.1,1.2v4.3h-1.9v-3.9c0-0.6-0.1-1-0.3-1.3s-0.5-0.4-1-0.4
		c-0.5,0-0.9,0.2-1.1,0.5c-0.2,0.3-0.4,0.8-0.4,1.5v3.7h-1.9V92.4z"/>
	<path class="st1" d="M121.1,93.7h-1.1v-1.3h1.1v-0.5c0-0.3,0-0.6,0.1-0.8c0.1-0.3,0.2-0.5,0.4-0.7c0.2-0.2,0.4-0.3,0.7-0.4
		c0.3-0.1,0.6-0.2,1-0.2c0.2,0,0.3,0,0.5,0s0.3,0,0.5,0v1.4c-0.2,0-0.5,0-0.7,0c-0.3,0-0.4,0.1-0.6,0.2S123,91.7,123,92v0.4h1.3v1.3
		H123v5.7h-1.9V93.7z"/>
	<path class="st1" d="M126.7,96.4c0,0.6,0.2,1.1,0.5,1.3s0.7,0.4,1.2,0.4c0.4,0,0.7-0.1,1-0.3c0.3-0.2,0.4-0.4,0.5-0.6h1.7
		c-0.3,0.8-0.7,1.4-1.2,1.8c-0.6,0.4-1.2,0.6-2,0.6c-0.5,0-1-0.1-1.5-0.3c-0.4-0.2-0.8-0.4-1.1-0.8c-0.3-0.3-0.5-0.7-0.7-1.2
		c-0.2-0.4-0.2-0.9-0.2-1.5c0-0.5,0.1-1,0.3-1.5c0.2-0.4,0.4-0.8,0.7-1.2c0.3-0.3,0.7-0.6,1.1-0.8c0.4-0.2,0.9-0.3,1.5-0.3
		c0.6,0,1.1,0.1,1.6,0.3s0.8,0.5,1.1,0.9c0.3,0.4,0.5,0.8,0.6,1.3c0.1,0.5,0.2,1,0.1,1.6H126.7z M129.9,95.2
		c-0.1-0.5-0.2-0.9-0.5-1.1s-0.6-0.4-1-0.4c-0.3,0-0.6,0.1-0.8,0.2c-0.2,0.1-0.4,0.2-0.5,0.4c-0.1,0.2-0.2,0.3-0.3,0.5
		c0,0.2-0.1,0.3-0.1,0.5H129.9z"/>
	<path class="st1" d="M132.9,92.4h1.8v1.3h0c0.1-0.2,0.2-0.4,0.4-0.6c0.2-0.2,0.3-0.3,0.5-0.5c0.2-0.1,0.4-0.2,0.6-0.3
		s0.5-0.1,0.7-0.1c0.1,0,0.3,0,0.4,0.1v1.8c-0.1,0-0.2,0-0.3,0s-0.2,0-0.4,0c-0.4,0-0.6,0.1-0.9,0.2c-0.2,0.1-0.4,0.3-0.6,0.5
		c-0.1,0.2-0.3,0.4-0.3,0.7c-0.1,0.3-0.1,0.6-0.1,0.9v3.1h-1.9V92.4z"/>
	<path class="st1" d="M138.2,92.4h1.8v0.9h0c0.3-0.4,0.6-0.6,0.9-0.8c0.4-0.2,0.8-0.3,1.2-0.3c0.4,0,0.8,0.1,1.2,0.3
		c0.4,0.2,0.6,0.5,0.8,0.9c0.2-0.3,0.5-0.6,0.8-0.8c0.4-0.2,0.8-0.4,1.3-0.4c0.4,0,0.7,0,1,0.1s0.6,0.2,0.8,0.4
		c0.2,0.2,0.4,0.5,0.5,0.8s0.2,0.7,0.2,1.2v4.7h-1.9v-4c0-0.2,0-0.5,0-0.7c0-0.2-0.1-0.4-0.1-0.5c-0.1-0.2-0.2-0.3-0.4-0.4
		c-0.2-0.1-0.4-0.1-0.6-0.1c-0.3,0-0.5,0.1-0.7,0.2c-0.2,0.1-0.3,0.2-0.4,0.4c-0.1,0.2-0.2,0.4-0.2,0.6c0,0.2,0,0.4,0,0.6v3.9h-1.9
		v-3.9c0-0.2,0-0.4,0-0.6c0-0.2,0-0.4-0.1-0.6s-0.2-0.3-0.3-0.4s-0.4-0.2-0.7-0.2c-0.1,0-0.2,0-0.4,0.1c-0.1,0-0.3,0.1-0.4,0.2
		c-0.1,0.1-0.3,0.3-0.4,0.5c-0.1,0.2-0.1,0.5-0.1,0.8v4h-1.9V92.4z"/>
	<path class="st1" d="M152,96.4c0,0.6,0.2,1.1,0.5,1.3s0.7,0.4,1.2,0.4c0.4,0,0.7-0.1,1-0.3c0.3-0.2,0.4-0.4,0.5-0.6h1.7
		c-0.3,0.8-0.7,1.4-1.2,1.8c-0.6,0.4-1.2,0.6-2,0.6c-0.5,0-1-0.1-1.5-0.3c-0.4-0.2-0.8-0.4-1.1-0.8c-0.3-0.3-0.5-0.7-0.7-1.2
		c-0.2-0.4-0.2-0.9-0.2-1.5c0-0.5,0.1-1,0.3-1.5c0.2-0.4,0.4-0.8,0.7-1.2c0.3-0.3,0.7-0.6,1.1-0.8c0.4-0.2,0.9-0.3,1.5-0.3
		c0.6,0,1.1,0.1,1.6,0.3s0.8,0.5,1.1,0.9c0.3,0.4,0.5,0.8,0.6,1.3c0.1,0.5,0.2,1,0.1,1.6H152z M155.1,95.2c-0.1-0.5-0.2-0.9-0.5-1.1
		s-0.6-0.4-1-0.4c-0.3,0-0.6,0.1-0.8,0.2c-0.2,0.1-0.4,0.2-0.5,0.4c-0.1,0.2-0.2,0.3-0.3,0.5c0,0.2-0.1,0.3-0.1,0.5H155.1z"/>
	<path class="st1" d="M163.1,98.5L163.1,98.5c-0.3,0.4-0.5,0.7-0.9,0.8c-0.4,0.2-0.8,0.3-1.2,0.3c-0.5,0-1-0.1-1.4-0.3
		c-0.4-0.2-0.7-0.5-1-0.8c-0.3-0.3-0.5-0.7-0.6-1.2c-0.1-0.4-0.2-0.9-0.2-1.4c0-0.5,0.1-0.9,0.2-1.4c0.1-0.4,0.3-0.8,0.6-1.2
		c0.3-0.3,0.6-0.6,1-0.8c0.4-0.2,0.8-0.3,1.3-0.3c0.4,0,0.8,0.1,1.2,0.3c0.4,0.2,0.7,0.4,0.9,0.8h0v-3.5h1.9v9.6h-1.8V98.5z
		 M163.1,95.9c0-0.3,0-0.6-0.1-0.8s-0.1-0.5-0.3-0.7c-0.1-0.2-0.3-0.4-0.5-0.5c-0.2-0.1-0.5-0.2-0.8-0.2c-0.3,0-0.6,0.1-0.8,0.2
		s-0.4,0.3-0.5,0.5c-0.1,0.2-0.2,0.4-0.3,0.7s-0.1,0.5-0.1,0.8c0,0.3,0,0.5,0.1,0.8c0.1,0.3,0.2,0.5,0.3,0.7
		c0.1,0.2,0.3,0.4,0.5,0.5c0.2,0.1,0.5,0.2,0.8,0.2c0.3,0,0.6-0.1,0.8-0.2c0.2-0.1,0.4-0.3,0.5-0.5c0.1-0.2,0.2-0.5,0.3-0.7
		C163,96.5,163.1,96.2,163.1,95.9z"/>
	<path class="st1" d="M166.3,94.6c0-0.5,0.1-0.8,0.3-1.1c0.2-0.3,0.4-0.5,0.8-0.7c0.3-0.2,0.6-0.3,1-0.4c0.4-0.1,0.8-0.1,1.2-0.1
		c0.4,0,0.7,0,1.1,0.1c0.4,0,0.7,0.1,1,0.3c0.3,0.1,0.5,0.3,0.7,0.6c0.2,0.3,0.3,0.6,0.3,1v3.6c0,0.3,0,0.6,0.1,0.9s0.1,0.5,0.2,0.6
		h-1.9c0-0.1-0.1-0.2-0.1-0.3c0-0.1,0-0.2,0-0.3c-0.3,0.3-0.7,0.5-1.1,0.7c-0.4,0.1-0.8,0.2-1.3,0.2c-0.3,0-0.6,0-0.9-0.1
		c-0.3-0.1-0.5-0.2-0.8-0.4c-0.2-0.2-0.4-0.4-0.5-0.6c-0.1-0.3-0.2-0.6-0.2-0.9c0-0.4,0.1-0.7,0.2-1c0.1-0.3,0.3-0.5,0.5-0.6
		c0.2-0.2,0.5-0.3,0.8-0.3c0.3-0.1,0.6-0.1,0.9-0.2s0.6-0.1,0.8-0.1c0.3,0,0.5-0.1,0.7-0.1c0.2-0.1,0.4-0.1,0.5-0.2
		c0.1-0.1,0.2-0.3,0.2-0.5c0-0.2,0-0.4-0.1-0.5c-0.1-0.1-0.2-0.2-0.3-0.3s-0.2-0.1-0.4-0.1s-0.3,0-0.5,0c-0.4,0-0.7,0.1-0.9,0.2
		c-0.2,0.2-0.3,0.4-0.4,0.8H166.3z M170.7,96c-0.1,0.1-0.2,0.1-0.3,0.2c-0.1,0-0.3,0.1-0.4,0.1c-0.1,0-0.3,0-0.4,0.1
		c-0.2,0-0.3,0-0.5,0.1c-0.2,0-0.3,0.1-0.4,0.1c-0.1,0-0.3,0.1-0.4,0.2s-0.2,0.2-0.2,0.3c-0.1,0.1-0.1,0.3-0.1,0.4
		c0,0.2,0,0.3,0.1,0.4c0.1,0.1,0.1,0.2,0.3,0.3c0.1,0.1,0.2,0.1,0.4,0.1c0.1,0,0.3,0,0.4,0c0.4,0,0.7-0.1,0.9-0.2
		c0.2-0.1,0.4-0.3,0.5-0.5c0.1-0.2,0.2-0.4,0.2-0.5s0-0.3,0-0.4V96z"/>
	<path class="st1" d="M179.1,98.5L179.1,98.5c-0.3,0.4-0.5,0.7-0.9,0.8c-0.4,0.2-0.8,0.3-1.2,0.3c-0.5,0-1-0.1-1.4-0.3
		c-0.4-0.2-0.7-0.5-1-0.8c-0.3-0.3-0.5-0.7-0.6-1.2c-0.1-0.4-0.2-0.9-0.2-1.4c0-0.5,0.1-0.9,0.2-1.4c0.1-0.4,0.3-0.8,0.6-1.2
		c0.3-0.3,0.6-0.6,1-0.8c0.4-0.2,0.8-0.3,1.3-0.3c0.4,0,0.8,0.1,1.2,0.3c0.4,0.2,0.7,0.4,0.9,0.8h0v-3.5h1.9v9.6h-1.8V98.5z
		 M179.1,95.9c0-0.3,0-0.6-0.1-0.8s-0.1-0.5-0.3-0.7c-0.1-0.2-0.3-0.4-0.5-0.5c-0.2-0.1-0.5-0.2-0.8-0.2c-0.3,0-0.6,0.1-0.8,0.2
		s-0.4,0.3-0.5,0.5c-0.1,0.2-0.2,0.4-0.3,0.7s-0.1,0.5-0.1,0.8c0,0.3,0,0.5,0.1,0.8c0.1,0.3,0.2,0.5,0.3,0.7
		c0.1,0.2,0.3,0.4,0.5,0.5c0.2,0.1,0.5,0.2,0.8,0.2c0.3,0,0.6-0.1,0.8-0.2c0.2-0.1,0.4-0.3,0.5-0.5c0.1-0.2,0.2-0.5,0.3-0.7
		C179,96.5,179.1,96.2,179.1,95.9z"/>
	<path class="st1" d="M183.9,96.4c0,0.6,0.2,1.1,0.5,1.3s0.7,0.4,1.2,0.4c0.4,0,0.7-0.1,1-0.3c0.3-0.2,0.4-0.4,0.5-0.6h1.7
		c-0.3,0.8-0.7,1.4-1.2,1.8c-0.6,0.4-1.2,0.6-2,0.6c-0.5,0-1-0.1-1.5-0.3c-0.4-0.2-0.8-0.4-1.1-0.8c-0.3-0.3-0.5-0.7-0.7-1.2
		c-0.2-0.4-0.2-0.9-0.2-1.5c0-0.5,0.1-1,0.3-1.5c0.2-0.4,0.4-0.8,0.7-1.2c0.3-0.3,0.7-0.6,1.1-0.8c0.4-0.2,0.9-0.3,1.5-0.3
		c0.6,0,1.1,0.1,1.6,0.3s0.8,0.5,1.1,0.9c0.3,0.4,0.5,0.8,0.6,1.3c0.1,0.5,0.2,1,0.1,1.6H183.9z M187.1,95.2
		c-0.1-0.5-0.2-0.9-0.5-1.1s-0.6-0.4-1-0.4c-0.3,0-0.6,0.1-0.8,0.2c-0.2,0.1-0.4,0.2-0.5,0.4c-0.1,0.2-0.2,0.3-0.3,0.5
		c0,0.2-0.1,0.3-0.1,0.5H187.1z"/>
	<path class="st1" d="M191.6,97.1c0,0.2,0,0.4,0.1,0.5c0.1,0.1,0.2,0.3,0.3,0.4c0.1,0.1,0.3,0.2,0.5,0.2c0.2,0,0.4,0.1,0.5,0.1
		c0.1,0,0.3,0,0.4,0c0.1,0,0.3-0.1,0.4-0.1c0.1-0.1,0.2-0.2,0.3-0.3c0.1-0.1,0.1-0.3,0.1-0.4c0-0.1,0-0.3-0.1-0.4
		c-0.1-0.1-0.2-0.2-0.4-0.3c-0.2-0.1-0.4-0.2-0.7-0.2s-0.6-0.1-0.9-0.2c-0.3-0.1-0.6-0.1-0.8-0.2c-0.3-0.1-0.5-0.2-0.7-0.3
		c-0.2-0.1-0.4-0.3-0.5-0.5c-0.1-0.2-0.2-0.5-0.2-0.8c0-0.4,0.1-0.8,0.3-1.1s0.4-0.5,0.7-0.7c0.3-0.2,0.6-0.3,1-0.4
		c0.4-0.1,0.7-0.1,1.1-0.1s0.7,0,1.1,0.1s0.7,0.2,1,0.4c0.3,0.2,0.5,0.4,0.7,0.7s0.3,0.6,0.3,1.1h-1.8c0-0.4-0.2-0.6-0.4-0.7
		c-0.3-0.1-0.5-0.2-0.9-0.2c-0.1,0-0.2,0-0.4,0s-0.2,0-0.3,0.1s-0.2,0.1-0.3,0.2s-0.1,0.2-0.1,0.3c0,0.2,0.1,0.3,0.2,0.4
		c0.1,0.1,0.3,0.2,0.5,0.3s0.4,0.1,0.7,0.2c0.3,0.1,0.5,0.1,0.8,0.2c0.3,0.1,0.6,0.1,0.8,0.2c0.3,0.1,0.5,0.2,0.7,0.4
		s0.4,0.3,0.5,0.6c0.1,0.2,0.2,0.5,0.2,0.8c0,0.5-0.1,0.8-0.3,1.2c-0.2,0.3-0.4,0.6-0.7,0.7c-0.3,0.2-0.6,0.3-1,0.4
		c-0.4,0.1-0.8,0.1-1.2,0.1c-0.4,0-0.8,0-1.2-0.1s-0.7-0.2-1-0.4c-0.3-0.2-0.5-0.4-0.7-0.8c-0.2-0.3-0.3-0.7-0.3-1.2H191.6z"/>
	<path class="st1" d="M30.8,108.9c-0.1-0.2-0.2-0.3-0.4-0.4c-0.1-0.1-0.3-0.2-0.5-0.2s-0.4-0.1-0.6-0.1c-0.2,0-0.3,0-0.5,0.1
		s-0.3,0.1-0.5,0.2s-0.3,0.2-0.4,0.3c-0.1,0.1-0.1,0.3-0.1,0.5c0,0.2,0,0.3,0.1,0.4c0.1,0.1,0.2,0.2,0.3,0.3
		c0.1,0.1,0.3,0.1,0.4,0.2c0.2,0.1,0.3,0.1,0.4,0.1l1,0.2c0.2,0,0.4,0.1,0.6,0.2s0.4,0.2,0.6,0.3s0.3,0.3,0.4,0.5
		c0.1,0.2,0.2,0.4,0.2,0.7c0,0.3-0.1,0.6-0.2,0.9c-0.2,0.2-0.3,0.4-0.6,0.6c-0.2,0.2-0.5,0.3-0.8,0.3c-0.3,0.1-0.6,0.1-0.9,0.1
		c-0.7,0-1.3-0.2-1.8-0.5c-0.5-0.3-0.7-0.9-0.8-1.7h0.8c0,0.5,0.2,0.9,0.6,1.2c0.3,0.3,0.8,0.4,1.3,0.4c0.2,0,0.4,0,0.6-0.1
		c0.2,0,0.4-0.1,0.6-0.2c0.2-0.1,0.3-0.2,0.4-0.4c0.1-0.2,0.2-0.3,0.2-0.6c0-0.2,0-0.3-0.1-0.5c-0.1-0.1-0.2-0.2-0.3-0.3
		s-0.3-0.2-0.4-0.2s-0.3-0.1-0.5-0.1l-1-0.2c-0.3-0.1-0.5-0.1-0.7-0.2s-0.4-0.2-0.6-0.3c-0.2-0.1-0.3-0.3-0.4-0.5
		c-0.1-0.2-0.1-0.4-0.1-0.7c0-0.3,0.1-0.6,0.2-0.8s0.3-0.4,0.6-0.5c0.2-0.1,0.5-0.2,0.8-0.3c0.3-0.1,0.6-0.1,0.8-0.1
		c0.3,0,0.6,0,0.9,0.1c0.3,0.1,0.5,0.2,0.7,0.4c0.2,0.2,0.4,0.4,0.5,0.6c0.1,0.3,0.2,0.5,0.2,0.9H31C31,109.3,30.9,109.1,30.8,108.9
		z"/>
	<path class="st1" d="M33.9,111.9c0.1,0.3,0.2,0.6,0.4,0.8c0.2,0.2,0.4,0.4,0.6,0.6c0.3,0.2,0.6,0.2,0.9,0.2c0.6,0,1-0.1,1.3-0.4
		c0.3-0.3,0.5-0.7,0.7-1.2h0.8c-0.2,0.7-0.5,1.3-0.9,1.7c-0.4,0.4-1,0.6-1.8,0.6c-0.5,0-0.9-0.1-1.3-0.3s-0.7-0.4-0.9-0.7
		s-0.4-0.7-0.5-1.1c-0.1-0.4-0.2-0.8-0.2-1.3c0-0.4,0.1-0.8,0.2-1.2c0.1-0.4,0.3-0.8,0.5-1.1s0.5-0.6,0.9-0.8
		c0.4-0.2,0.8-0.3,1.3-0.3c0.5,0,0.9,0.1,1.3,0.3s0.6,0.5,0.9,0.8c0.2,0.3,0.4,0.7,0.5,1.1c0.1,0.4,0.1,0.9,0.1,1.3h-4.8
		C33.8,111.3,33.8,111.6,33.9,111.9z M37.7,109.6c-0.1-0.3-0.2-0.5-0.4-0.7c-0.2-0.2-0.4-0.4-0.6-0.5c-0.2-0.1-0.5-0.2-0.8-0.2
		c-0.3,0-0.6,0.1-0.8,0.2c-0.2,0.1-0.4,0.3-0.6,0.5c-0.2,0.2-0.3,0.4-0.4,0.7c-0.1,0.3-0.2,0.5-0.2,0.8h4.1
		C37.8,110.1,37.8,109.8,37.7,109.6z"/>
	<path class="st1" d="M43.7,108.6c-0.3-0.3-0.7-0.4-1.2-0.4c-0.4,0-0.7,0.1-1,0.2c-0.3,0.2-0.5,0.4-0.7,0.6
		c-0.2,0.3-0.3,0.5-0.4,0.9c-0.1,0.3-0.1,0.6-0.1,1s0,0.7,0.1,1c0.1,0.3,0.2,0.6,0.4,0.9c0.2,0.3,0.4,0.5,0.7,0.6
		c0.3,0.2,0.6,0.2,1,0.2c0.2,0,0.5,0,0.7-0.1c0.2-0.1,0.4-0.2,0.6-0.4c0.2-0.2,0.3-0.3,0.4-0.6s0.2-0.5,0.2-0.7h0.8
		c-0.1,0.8-0.4,1.4-0.8,1.8c-0.5,0.4-1,0.6-1.7,0.6c-0.5,0-0.9-0.1-1.3-0.3c-0.4-0.2-0.7-0.4-0.9-0.7c-0.3-0.3-0.4-0.6-0.6-1
		c-0.1-0.4-0.2-0.8-0.2-1.3s0.1-0.9,0.2-1.3c0.1-0.4,0.3-0.8,0.6-1.1c0.3-0.3,0.6-0.5,0.9-0.7c0.4-0.2,0.8-0.3,1.3-0.3
		c0.7,0,1.2,0.2,1.7,0.5c0.5,0.4,0.7,0.9,0.8,1.6h-0.8C44.2,109.2,44,108.8,43.7,108.6z"/>
	<path class="st1" d="M50.8,114v-1.1h0c-0.2,0.4-0.5,0.7-0.9,1s-0.8,0.3-1.3,0.3c-0.4,0-0.7-0.1-1-0.2s-0.5-0.3-0.7-0.5
		c-0.2-0.2-0.3-0.4-0.4-0.7s-0.1-0.6-0.1-1v-4.1h0.8v4.1c0,0.6,0.1,1,0.4,1.3c0.2,0.3,0.7,0.4,1.3,0.4c0.3,0,0.6-0.1,0.9-0.2
		c0.2-0.1,0.4-0.3,0.6-0.6c0.2-0.2,0.3-0.5,0.3-0.8c0.1-0.3,0.1-0.6,0.1-0.9v-3.3h0.8v6.3H50.8z"/>
	<path class="st1" d="M53.9,107.7v1.1h0c0.1-0.4,0.4-0.7,0.8-0.9c0.4-0.2,0.8-0.3,1.2-0.3c0.4,0,0.8,0.1,1.1,0.2s0.5,0.3,0.7,0.5
		c0.2,0.2,0.3,0.5,0.4,0.8c0.1,0.3,0.1,0.6,0.1,1v4h-0.8v-3.9c0-0.3,0-0.5-0.1-0.7s-0.1-0.4-0.3-0.6c-0.1-0.2-0.3-0.3-0.5-0.4
		c-0.2-0.1-0.5-0.1-0.8-0.1c-0.3,0-0.6,0.1-0.8,0.2c-0.2,0.1-0.4,0.3-0.6,0.4s-0.3,0.4-0.4,0.7c-0.1,0.3-0.1,0.5-0.2,0.9v3.7h-0.8
		v-6.3H53.9z"/>
	<path class="st1" d="M64.7,114v-1.2h0c-0.1,0.2-0.2,0.4-0.4,0.6c-0.2,0.2-0.3,0.3-0.5,0.4c-0.2,0.1-0.4,0.2-0.6,0.3
		c-0.2,0.1-0.5,0.1-0.7,0.1c-0.5,0-0.9-0.1-1.2-0.3c-0.4-0.2-0.6-0.4-0.9-0.7c-0.2-0.3-0.4-0.7-0.5-1.1c-0.1-0.4-0.2-0.8-0.2-1.3
		s0.1-0.9,0.2-1.3c0.1-0.4,0.3-0.8,0.5-1.1c0.2-0.3,0.5-0.5,0.9-0.7c0.4-0.2,0.8-0.3,1.2-0.3c0.2,0,0.5,0,0.7,0.1s0.4,0.1,0.6,0.3
		c0.2,0.1,0.4,0.3,0.5,0.4c0.1,0.2,0.3,0.4,0.3,0.6h0v-3.6h0.8v8.7H64.7z M60.5,111.8c0.1,0.3,0.2,0.6,0.4,0.9s0.4,0.5,0.6,0.6
		s0.6,0.2,0.9,0.2c0.4,0,0.7-0.1,1-0.2s0.5-0.4,0.7-0.6c0.2-0.3,0.3-0.5,0.4-0.9c0.1-0.3,0.1-0.6,0.1-1c0-0.3,0-0.6-0.1-1
		c-0.1-0.3-0.2-0.6-0.4-0.9c-0.2-0.3-0.4-0.5-0.7-0.6c-0.3-0.2-0.6-0.2-1-0.2c-0.4,0-0.7,0.1-0.9,0.2c-0.3,0.2-0.5,0.4-0.6,0.6
		s-0.3,0.5-0.4,0.9c-0.1,0.3-0.1,0.6-0.1,1C60.4,111.2,60.5,111.5,60.5,111.8z"/>
	<path class="st1" d="M67.3,108.7c0.1-0.3,0.3-0.5,0.5-0.7s0.5-0.3,0.8-0.4c0.3-0.1,0.6-0.1,1-0.1c0.3,0,0.6,0,0.8,0.1
		s0.5,0.2,0.7,0.3c0.2,0.1,0.4,0.3,0.5,0.6c0.1,0.3,0.2,0.6,0.2,1v3.3c0,0.3,0.1,0.5,0.4,0.5c0.1,0,0.2,0,0.2,0v0.6
		c-0.1,0-0.2,0-0.2,0c-0.1,0-0.2,0-0.3,0c-0.2,0-0.4,0-0.5-0.1s-0.2-0.1-0.3-0.2c-0.1-0.1-0.1-0.2-0.1-0.3c0-0.1,0-0.3,0-0.4h0
		c-0.1,0.2-0.3,0.4-0.4,0.5c-0.1,0.2-0.3,0.3-0.5,0.4c-0.2,0.1-0.4,0.2-0.6,0.2s-0.5,0.1-0.8,0.1c-0.3,0-0.6,0-0.8-0.1
		c-0.3-0.1-0.5-0.2-0.7-0.3c-0.2-0.2-0.3-0.3-0.4-0.6s-0.2-0.5-0.2-0.8c0-0.4,0.1-0.8,0.3-1s0.5-0.4,0.8-0.6
		c0.3-0.1,0.7-0.2,1.1-0.3c0.4-0.1,0.8-0.1,1.2-0.2c0.2,0,0.3,0,0.4-0.1c0.1,0,0.2-0.1,0.3-0.1c0.1-0.1,0.1-0.1,0.2-0.2
		c0-0.1,0.1-0.2,0.1-0.4c0-0.3,0-0.5-0.1-0.6c-0.1-0.2-0.2-0.3-0.4-0.4c-0.1-0.1-0.3-0.2-0.5-0.2c-0.2,0-0.4-0.1-0.6-0.1
		c-0.5,0-0.9,0.1-1.2,0.3c-0.3,0.2-0.5,0.6-0.5,1.1h-0.8C67.1,109.3,67.2,108.9,67.3,108.7z M71.1,110.5c0,0.1-0.1,0.2-0.3,0.2
		c-0.1,0-0.3,0.1-0.4,0.1c-0.3,0.1-0.7,0.1-1,0.2c-0.3,0-0.7,0.1-0.9,0.2s-0.5,0.2-0.7,0.4c-0.2,0.2-0.3,0.4-0.3,0.7
		c0,0.2,0,0.4,0.1,0.5c0.1,0.1,0.2,0.3,0.3,0.4c0.1,0.1,0.3,0.2,0.4,0.2c0.2,0.1,0.3,0.1,0.5,0.1c0.3,0,0.6,0,0.8-0.1
		c0.3-0.1,0.5-0.2,0.7-0.4s0.4-0.4,0.5-0.6c0.1-0.2,0.2-0.5,0.2-0.8L71.1,110.5L71.1,110.5z"/>
	<path class="st1" d="M74.4,107.7v1.5h0c0.2-0.5,0.5-0.9,0.9-1.2c0.4-0.3,0.9-0.4,1.5-0.4v0.8c-0.3,0-0.7,0-0.9,0.1
		s-0.5,0.3-0.7,0.5c-0.2,0.2-0.4,0.4-0.5,0.7c-0.1,0.3-0.2,0.6-0.2,0.9v3.3h-0.8v-6.3H74.4z"/>
	<path class="st1" d="M78.5,105.3v1.2h-0.8v-1.2H78.5z M78.5,107.7v6.3h-0.8v-6.3H78.5z"/>
	<path class="st1" d="M80.4,108.7c0.1-0.3,0.3-0.5,0.5-0.7s0.5-0.3,0.8-0.4c0.3-0.1,0.6-0.1,1-0.1c0.3,0,0.6,0,0.8,0.1
		s0.5,0.2,0.7,0.3c0.2,0.1,0.4,0.3,0.5,0.6c0.1,0.3,0.2,0.6,0.2,1v3.3c0,0.3,0.1,0.5,0.4,0.5c0.1,0,0.2,0,0.2,0v0.6
		c-0.1,0-0.2,0-0.2,0c-0.1,0-0.2,0-0.3,0c-0.2,0-0.4,0-0.5-0.1s-0.2-0.1-0.3-0.2c-0.1-0.1-0.1-0.2-0.1-0.3c0-0.1,0-0.3,0-0.4h0
		c-0.1,0.2-0.3,0.4-0.4,0.5c-0.1,0.2-0.3,0.3-0.5,0.4c-0.2,0.1-0.4,0.2-0.6,0.2s-0.5,0.1-0.8,0.1c-0.3,0-0.6,0-0.8-0.1
		c-0.3-0.1-0.5-0.2-0.7-0.3c-0.2-0.2-0.3-0.3-0.4-0.6s-0.2-0.5-0.2-0.8c0-0.4,0.1-0.8,0.3-1s0.5-0.4,0.8-0.6
		c0.3-0.1,0.7-0.2,1.1-0.3c0.4-0.1,0.8-0.1,1.2-0.2c0.2,0,0.3,0,0.4-0.1c0.1,0,0.2-0.1,0.3-0.1c0.1-0.1,0.1-0.1,0.2-0.2
		c0-0.1,0.1-0.2,0.1-0.4c0-0.3,0-0.5-0.1-0.6c-0.1-0.2-0.2-0.3-0.4-0.4c-0.1-0.1-0.3-0.2-0.5-0.2c-0.2,0-0.4-0.1-0.6-0.1
		c-0.5,0-0.9,0.1-1.2,0.3c-0.3,0.2-0.5,0.6-0.5,1.1h-0.8C80.2,109.3,80.3,108.9,80.4,108.7z M84.2,110.5c0,0.1-0.1,0.2-0.3,0.2
		c-0.1,0-0.3,0.1-0.4,0.1c-0.3,0.1-0.7,0.1-1,0.2c-0.3,0-0.7,0.1-0.9,0.2s-0.5,0.2-0.7,0.4c-0.2,0.2-0.3,0.4-0.3,0.7
		c0,0.2,0,0.4,0.1,0.5c0.1,0.1,0.2,0.3,0.3,0.4c0.1,0.1,0.3,0.2,0.4,0.2c0.2,0.1,0.3,0.1,0.5,0.1c0.3,0,0.6,0,0.8-0.1
		c0.3-0.1,0.5-0.2,0.7-0.4s0.4-0.4,0.5-0.6c0.1-0.2,0.2-0.5,0.2-0.8L84.2,110.5L84.2,110.5z"/>
	<path class="st1" d="M90.4,108.9c-0.1-0.2-0.2-0.3-0.4-0.4c-0.1-0.1-0.3-0.2-0.5-0.2s-0.4-0.1-0.6-0.1c-0.2,0-0.3,0-0.5,0.1
		s-0.3,0.1-0.5,0.2s-0.3,0.2-0.4,0.3c-0.1,0.1-0.1,0.3-0.1,0.5c0,0.2,0,0.3,0.1,0.4c0.1,0.1,0.2,0.2,0.3,0.3
		c0.1,0.1,0.3,0.1,0.4,0.2c0.2,0.1,0.3,0.1,0.4,0.1l1,0.2c0.2,0,0.4,0.1,0.6,0.2s0.4,0.2,0.6,0.3s0.3,0.3,0.4,0.5
		c0.1,0.2,0.2,0.4,0.2,0.7c0,0.3-0.1,0.6-0.2,0.9c-0.2,0.2-0.3,0.4-0.6,0.6c-0.2,0.2-0.5,0.3-0.8,0.3c-0.3,0.1-0.6,0.1-0.9,0.1
		c-0.7,0-1.3-0.2-1.8-0.5c-0.5-0.3-0.7-0.9-0.8-1.7h0.8c0,0.5,0.2,0.9,0.6,1.2c0.3,0.3,0.8,0.4,1.3,0.4c0.2,0,0.4,0,0.6-0.1
		c0.2,0,0.4-0.1,0.6-0.2c0.2-0.1,0.3-0.2,0.4-0.4c0.1-0.2,0.2-0.3,0.2-0.6c0-0.2,0-0.3-0.1-0.5c-0.1-0.1-0.2-0.2-0.3-0.3
		s-0.3-0.2-0.4-0.2s-0.3-0.1-0.5-0.1l-1-0.2c-0.3-0.1-0.5-0.1-0.7-0.2s-0.4-0.2-0.6-0.3c-0.2-0.1-0.3-0.3-0.4-0.5
		c-0.1-0.2-0.1-0.4-0.1-0.7c0-0.3,0.1-0.6,0.2-0.8s0.3-0.4,0.6-0.5c0.2-0.1,0.5-0.2,0.8-0.3c0.3-0.1,0.6-0.1,0.8-0.1
		c0.3,0,0.6,0,0.9,0.1c0.3,0.1,0.5,0.2,0.7,0.4c0.2,0.2,0.4,0.4,0.5,0.6c0.1,0.3,0.2,0.5,0.2,0.9h-0.8
		C90.5,109.3,90.5,109.1,90.4,108.9z"/>
	<path class="st1" d="M100.3,108.6c-0.3-0.3-0.7-0.4-1.2-0.4c-0.4,0-0.7,0.1-1,0.2c-0.3,0.2-0.5,0.4-0.7,0.6
		c-0.2,0.3-0.3,0.5-0.4,0.9c-0.1,0.3-0.1,0.6-0.1,1s0,0.7,0.1,1c0.1,0.3,0.2,0.6,0.4,0.9c0.2,0.3,0.4,0.5,0.7,0.6
		c0.3,0.2,0.6,0.2,1,0.2c0.2,0,0.5,0,0.7-0.1c0.2-0.1,0.4-0.2,0.6-0.4c0.2-0.2,0.3-0.3,0.4-0.6s0.2-0.5,0.2-0.7h0.8
		c-0.1,0.8-0.4,1.4-0.8,1.8c-0.5,0.4-1,0.6-1.7,0.6c-0.5,0-0.9-0.1-1.3-0.3c-0.4-0.2-0.7-0.4-0.9-0.7c-0.3-0.3-0.4-0.6-0.6-1
		c-0.1-0.4-0.2-0.8-0.2-1.3s0.1-0.9,0.2-1.3c0.1-0.4,0.3-0.8,0.6-1.1c0.3-0.3,0.6-0.5,0.9-0.7c0.4-0.2,0.8-0.3,1.3-0.3
		c0.7,0,1.2,0.2,1.7,0.5c0.5,0.4,0.7,0.9,0.8,1.6h-0.8C100.8,109.2,100.6,108.8,100.3,108.6z"/>
	<path class="st1" d="M107,107.8c0.4,0.2,0.7,0.4,0.9,0.7c0.3,0.3,0.4,0.7,0.6,1.1s0.2,0.8,0.2,1.3s-0.1,0.9-0.2,1.3
		c-0.1,0.4-0.3,0.8-0.6,1c-0.3,0.3-0.6,0.5-0.9,0.7s-0.8,0.3-1.3,0.3s-0.9-0.1-1.3-0.3c-0.4-0.2-0.7-0.4-0.9-0.7
		c-0.3-0.3-0.4-0.6-0.6-1c-0.1-0.4-0.2-0.8-0.2-1.3s0.1-0.9,0.2-1.3c0.1-0.4,0.3-0.8,0.6-1.1c0.3-0.3,0.6-0.5,0.9-0.7
		c0.4-0.2,0.8-0.3,1.3-0.3S106.6,107.6,107,107.8z M104.7,108.4c-0.3,0.2-0.5,0.4-0.7,0.6c-0.2,0.3-0.3,0.5-0.4,0.9
		c-0.1,0.3-0.1,0.6-0.1,1s0,0.7,0.1,1c0.1,0.3,0.2,0.6,0.4,0.9c0.2,0.3,0.4,0.5,0.7,0.6c0.3,0.2,0.6,0.2,1,0.2s0.7-0.1,1-0.2
		c0.3-0.2,0.5-0.4,0.7-0.6c0.2-0.3,0.3-0.5,0.4-0.9c0.1-0.3,0.1-0.6,0.1-1s0-0.7-0.1-1c-0.1-0.3-0.2-0.6-0.4-0.9
		c-0.2-0.3-0.4-0.5-0.7-0.6c-0.3-0.2-0.6-0.2-1-0.2S105,108.2,104.7,108.4z"/>
	<path class="st1" d="M110.7,107.7v1.1h0c0.2-0.4,0.5-0.7,0.8-0.9s0.7-0.3,1.3-0.3c0.4,0,0.8,0.1,1.1,0.3s0.6,0.5,0.7,0.9
		c0.2-0.4,0.5-0.7,0.8-0.9s0.8-0.3,1.2-0.3c1.4,0,2.1,0.7,2.1,2.2v4.3h-0.8v-4.2c0-0.5-0.1-0.9-0.3-1.2s-0.6-0.4-1.2-0.4
		c-0.3,0-0.6,0.1-0.8,0.2c-0.2,0.1-0.4,0.3-0.5,0.5c-0.1,0.2-0.2,0.5-0.3,0.7c-0.1,0.3-0.1,0.6-0.1,0.8v3.5H114v-4.3
		c0-0.2,0-0.4-0.1-0.6c0-0.2-0.1-0.4-0.2-0.5c-0.1-0.1-0.2-0.3-0.4-0.3c-0.2-0.1-0.4-0.1-0.6-0.1c-0.3,0-0.6,0.1-0.8,0.2
		c-0.2,0.1-0.4,0.3-0.6,0.5c-0.1,0.2-0.3,0.4-0.3,0.7c-0.1,0.3-0.1,0.6-0.1,0.9v3.5H110v-6.3H110.7z"/>
	<path class="st1" d="M124.3,107.8c0.4,0.2,0.7,0.4,0.9,0.7c0.3,0.3,0.4,0.7,0.6,1.1s0.2,0.8,0.2,1.3s-0.1,0.9-0.2,1.3
		c-0.1,0.4-0.3,0.8-0.6,1c-0.3,0.3-0.6,0.5-0.9,0.7s-0.8,0.3-1.3,0.3s-0.9-0.1-1.3-0.3c-0.4-0.2-0.7-0.4-0.9-0.7
		c-0.3-0.3-0.4-0.6-0.6-1c-0.1-0.4-0.2-0.8-0.2-1.3s0.1-0.9,0.2-1.3c0.1-0.4,0.3-0.8,0.6-1.1c0.3-0.3,0.6-0.5,0.9-0.7
		c0.4-0.2,0.8-0.3,1.3-0.3S123.9,107.6,124.3,107.8z M122.1,108.4c-0.3,0.2-0.5,0.4-0.7,0.6c-0.2,0.3-0.3,0.5-0.4,0.9
		c-0.1,0.3-0.1,0.6-0.1,1s0,0.7,0.1,1c0.1,0.3,0.2,0.6,0.4,0.9c0.2,0.3,0.4,0.5,0.7,0.6c0.3,0.2,0.6,0.2,1,0.2s0.7-0.1,1-0.2
		c0.3-0.2,0.5-0.4,0.7-0.6c0.2-0.3,0.3-0.5,0.4-0.9c0.1-0.3,0.1-0.6,0.1-1s0-0.7-0.1-1c-0.1-0.3-0.2-0.6-0.4-0.9
		c-0.2-0.3-0.4-0.5-0.7-0.6c-0.3-0.2-0.6-0.2-1-0.2S122.4,108.2,122.1,108.4z"/>
	<path class="st1" d="M131.6,111.9c0.1,0.3,0.2,0.6,0.4,0.8c0.2,0.2,0.4,0.4,0.6,0.6c0.3,0.2,0.6,0.2,0.9,0.2c0.6,0,1-0.1,1.3-0.4
		c0.3-0.3,0.5-0.7,0.7-1.2h0.8c-0.2,0.7-0.5,1.3-0.9,1.7c-0.4,0.4-1,0.6-1.8,0.6c-0.5,0-0.9-0.1-1.3-0.3s-0.7-0.4-0.9-0.7
		s-0.4-0.7-0.5-1.1c-0.1-0.4-0.2-0.8-0.2-1.3c0-0.4,0.1-0.8,0.2-1.2c0.1-0.4,0.3-0.8,0.5-1.1s0.5-0.6,0.9-0.8
		c0.4-0.2,0.8-0.3,1.3-0.3c0.5,0,0.9,0.1,1.3,0.3s0.6,0.5,0.9,0.8c0.2,0.3,0.4,0.7,0.5,1.1c0.1,0.4,0.1,0.9,0.1,1.3h-4.8
		C131.5,111.3,131.5,111.6,131.6,111.9z M135.4,109.6c-0.1-0.3-0.2-0.5-0.4-0.7c-0.2-0.2-0.4-0.4-0.6-0.5c-0.2-0.1-0.5-0.2-0.8-0.2
		c-0.3,0-0.6,0.1-0.8,0.2c-0.2,0.1-0.4,0.3-0.6,0.5c-0.2,0.2-0.3,0.4-0.4,0.7c-0.1,0.3-0.2,0.5-0.2,0.8h4.1
		C135.5,110.1,135.4,109.8,135.4,109.6z"/>
	<path class="st1" d="M138.3,105.3v8.7h-0.8v-8.7H138.3z"/>
	<path class="st1" d="M145.4,105.3l-0.7,3.5h0c0.2-0.4,0.5-0.7,0.9-0.9c0.4-0.2,0.8-0.4,1.3-0.4c0.4,0,0.8,0.1,1.1,0.2
		s0.5,0.3,0.7,0.5c0.2,0.2,0.3,0.5,0.4,0.8c0.1,0.3,0.1,0.7,0.1,1c0,0.5-0.1,1-0.2,1.4s-0.4,0.9-0.6,1.3s-0.6,0.7-1,0.9
		c-0.4,0.2-0.9,0.4-1.4,0.4s-1-0.1-1.4-0.4c-0.4-0.3-0.6-0.7-0.7-1.2h0l-0.3,1.4h-0.7l1.8-8.7H145.4z M147,113.2
		c0.3-0.2,0.6-0.5,0.8-0.8c0.2-0.3,0.4-0.7,0.5-1.1s0.2-0.8,0.2-1.2c0-0.6-0.1-1.1-0.4-1.4c-0.3-0.4-0.7-0.5-1.4-0.5
		c-0.4,0-0.8,0.1-1.1,0.3c-0.3,0.2-0.6,0.5-0.8,0.9c-0.2,0.3-0.4,0.7-0.5,1.1c-0.1,0.4-0.2,0.8-0.2,1.1c0,0.3,0,0.5,0.1,0.7
		c0.1,0.2,0.2,0.4,0.3,0.6c0.1,0.2,0.3,0.3,0.5,0.4c0.2,0.1,0.5,0.2,0.8,0.2C146.3,113.5,146.6,113.4,147,113.2z"/>
	<path class="st1" d="M154.3,114l0.2-1.1h0c-0.2,0.4-0.5,0.7-0.9,0.9c-0.4,0.3-0.8,0.4-1.3,0.4c-0.3,0-0.5,0-0.8-0.1
		c-0.2-0.1-0.4-0.2-0.6-0.3c-0.2-0.1-0.3-0.3-0.4-0.5c-0.1-0.2-0.1-0.5-0.1-0.8c0-0.2,0-0.4,0.1-0.7l0.9-4h0.8l-0.9,4
		c0,0.1,0,0.2-0.1,0.3c0,0.1,0,0.2,0,0.3c0,0.2,0,0.4,0.1,0.5s0.2,0.3,0.3,0.4c0.1,0.1,0.3,0.2,0.4,0.2c0.2,0,0.3,0.1,0.5,0.1
		c0.3,0,0.6-0.1,0.8-0.2s0.5-0.3,0.7-0.5c0.2-0.2,0.4-0.5,0.6-0.8c0.2-0.3,0.3-0.7,0.4-1.1l0.7-3.2h0.8L155,114H154.3z"/>
	<path class="st1" d="M158.8,107.7l-0.3,1.4h0c0.2-0.5,0.5-0.8,0.9-1.1s0.8-0.4,1.4-0.4h0.2c0,0,0.1,0,0.1,0s0.1,0,0.1,0l-0.2,0.8
		c-0.1,0-0.1,0-0.2,0s-0.1,0-0.2,0c-0.3,0-0.6,0.1-0.9,0.2c-0.3,0.1-0.5,0.3-0.7,0.5s-0.4,0.5-0.5,0.7c-0.1,0.3-0.2,0.6-0.3,0.9
		l-0.7,3.3h-0.8l1.3-6.3H158.8z"/>
	<path class="st1" d="M162.9,107.7l-0.2,1.1h0c0.2-0.4,0.5-0.7,0.9-0.9s0.8-0.4,1.3-0.4c0.3,0,0.5,0,0.8,0.1
		c0.2,0.1,0.4,0.2,0.6,0.3c0.2,0.1,0.3,0.3,0.4,0.5c0.1,0.2,0.1,0.5,0.1,0.8c0,0.2,0,0.4-0.1,0.7l-0.9,4h-0.8l0.9-4
		c0-0.1,0-0.2,0.1-0.3c0-0.1,0-0.2,0-0.3c0-0.2,0-0.4-0.1-0.5c-0.1-0.1-0.2-0.3-0.3-0.3c-0.1-0.1-0.3-0.2-0.4-0.2
		c-0.2,0-0.3-0.1-0.5-0.1c-0.3,0-0.5,0.1-0.8,0.2c-0.3,0.1-0.5,0.3-0.7,0.5s-0.4,0.5-0.6,0.8c-0.2,0.3-0.3,0.7-0.4,1.1l-0.7,3.2
		h-0.8l1.3-6.3H162.9z"/>
	<path class="st1" d="M172.4,107.7c0.3,0.1,0.6,0.3,0.8,0.5c0.2,0.2,0.4,0.5,0.5,0.8c0.1,0.3,0.2,0.6,0.2,1c0,0.5-0.1,1-0.2,1.5
		s-0.4,0.9-0.6,1.3s-0.6,0.7-1.1,0.9c-0.4,0.2-0.9,0.4-1.5,0.4c-0.8,0-1.4-0.2-1.9-0.7s-0.6-1.1-0.6-1.9c0-0.5,0.1-1,0.2-1.5
		c0.2-0.5,0.4-0.9,0.7-1.3c0.3-0.4,0.7-0.7,1.1-0.9c0.4-0.2,0.9-0.3,1.5-0.3C171.8,107.5,172.1,107.6,172.4,107.7z M171.7,113.2
		c0.3-0.2,0.6-0.5,0.8-0.8c0.2-0.3,0.4-0.7,0.5-1.1c0.1-0.4,0.2-0.8,0.2-1.1c0-0.6-0.2-1.1-0.5-1.4s-0.8-0.5-1.4-0.5
		c-0.4,0-0.8,0.1-1.1,0.3c-0.3,0.2-0.6,0.5-0.8,0.8c-0.2,0.3-0.4,0.7-0.5,1.1c-0.1,0.4-0.2,0.8-0.2,1.1c0,0.6,0.2,1.1,0.5,1.5
		c0.3,0.4,0.8,0.6,1.4,0.6C171,113.5,171.3,113.4,171.7,113.2z"/>
	<path class="st1" d="M178.9,114l0.2-1.1h0c-0.2,0.4-0.5,0.7-0.9,0.9c-0.4,0.3-0.8,0.4-1.3,0.4c-0.3,0-0.5,0-0.8-0.1
		c-0.2-0.1-0.4-0.2-0.6-0.3c-0.2-0.1-0.3-0.3-0.4-0.5c-0.1-0.2-0.1-0.5-0.1-0.8c0-0.2,0-0.4,0.1-0.7l0.9-4h0.8l-0.9,4
		c0,0.1,0,0.2-0.1,0.3c0,0.1,0,0.2,0,0.3c0,0.2,0,0.4,0.1,0.5s0.2,0.3,0.3,0.4c0.1,0.1,0.3,0.2,0.4,0.2c0.2,0,0.3,0.1,0.5,0.1
		c0.3,0,0.6-0.1,0.8-0.2s0.5-0.3,0.7-0.5c0.2-0.2,0.4-0.5,0.6-0.8c0.2-0.3,0.3-0.7,0.4-1.1l0.7-3.2h0.8l-1.3,6.3H178.9z"/>
	<path class="st1" d="M183.1,107.7l0.4-1.9h0.8l-0.4,1.9h1.3l-0.1,0.6h-1.3l-0.9,4c0,0.1-0.1,0.3-0.1,0.3c0,0.1,0,0.2,0,0.3
		c0,0.1,0,0.2,0.1,0.3c0.1,0.1,0.2,0.1,0.3,0.1c0.3,0,0.6,0,0.9-0.1L184,114c-0.1,0-0.3,0-0.4,0c-0.1,0-0.3,0-0.4,0
		c-0.1,0-0.3,0-0.4,0s-0.3-0.1-0.4-0.1c-0.1-0.1-0.2-0.2-0.3-0.3c-0.1-0.1-0.1-0.3-0.1-0.5c0-0.1,0-0.2,0-0.3c0-0.1,0-0.2,0.1-0.4
		l0.9-4.2h-1.1l0.1-0.6H183.1z"/>
	<path class="st1" d="M186.5,112.7h1v1.3h-1V112.7z"/>
</g>
<line id="XMLID_21_" class="st2" x1="11.1" y1="79.2" x2="204.1" y2="79.2"/>
<g id="XMLID_1_">
	<g id="XMLID_2_">
		<g id="XMLID_3_">
			<path id="XMLID_19_" class="st1" d="M49.4,16.9h4.5l2.3,19.8h0.1l10.4-19.8h4.7l-13.7,25h-5L49.4,16.9z"/>
			<path id="XMLID_16_" class="st1" d="M70.5,23.8h4l-3.8,18.1h-4L70.5,23.8z M71.9,16.9h4l-0.8,3.8h-4L71.9,16.9z"/>
			<path id="XMLID_14_" class="st1" d="M81.2,18.3h3.9l-1.1,5.4h3.6l-0.6,3h-3.6l-1.9,8.9c-0.1,0.4-0.2,0.8-0.2,1.1
				c-0.1,0.4-0.1,0.6-0.1,0.8c0,0.4,0.1,0.7,0.3,1c0.2,0.2,0.6,0.4,1.2,0.4c0.3,0,0.6,0,1,0c0.4,0,0.7-0.1,1.1-0.2L84,41.7
				c-0.5,0.1-1.1,0.2-1.6,0.3c-0.6,0.1-1.1,0.1-1.6,0.1c-0.7,0-1.3-0.1-1.8-0.3c-0.5-0.2-0.8-0.4-1.1-0.8c-0.3-0.3-0.5-0.7-0.6-1.1
				c-0.1-0.4-0.2-0.8-0.2-1.2c0-0.4,0-0.7,0.1-1.2c0.1-0.4,0.1-0.7,0.2-0.9l2.1-9.9h-3.2l0.6-3H80L81.2,18.3z"/>
			<path id="XMLID_11_" class="st1" d="M103.7,36.6c-0.1,0.3-0.1,0.6-0.2,0.9c-0.1,0.3-0.1,0.6-0.1,0.8c0,0.3,0.1,0.5,0.2,0.6
				c0.1,0.1,0.3,0.2,0.7,0.2c0.2,0,0.5,0,0.7-0.1c0.2-0.1,0.5-0.1,0.7-0.1l-0.6,2.9c-0.5,0.1-1,0.2-1.5,0.3c-0.5,0.1-1,0.2-1.6,0.2
				c-0.7,0-1.2-0.2-1.7-0.6c-0.4-0.4-0.7-1-0.7-1.7c-0.8,0.8-1.7,1.4-2.8,1.8c-1.1,0.4-2.2,0.6-3.3,0.6c-0.7,0-1.5-0.1-2.1-0.3
				c-0.7-0.2-1.3-0.5-1.8-0.9c-0.5-0.4-0.9-0.9-1.2-1.5c-0.3-0.6-0.5-1.3-0.5-2.1c0-1.1,0.2-2.1,0.6-2.8c0.4-0.8,1-1.4,1.7-1.9
				c0.7-0.5,1.5-0.9,2.4-1.1c0.9-0.2,1.9-0.4,2.9-0.5c1.4-0.1,2.7-0.2,4-0.3c0.7,0,1.3-0.3,1.6-0.7c0.3-0.4,0.5-1,0.5-1.7
				c0-0.9-0.3-1.4-0.9-1.7c-0.6-0.3-1.3-0.4-2.1-0.4c-1.1,0-2.1,0.2-2.9,0.6c-0.8,0.4-1.3,1.1-1.6,2.3H90c0.2-1.1,0.6-2.1,1.1-2.8
				c0.5-0.8,1.1-1.4,1.9-1.9c0.7-0.5,1.6-0.8,2.5-1c0.9-0.2,2-0.3,3-0.3c1.6,0,2.9,0.2,3.8,0.5c0.9,0.3,1.6,0.7,2,1.1
				c0.4,0.4,0.7,0.9,0.8,1.4c0.1,0.5,0.1,0.9,0.1,1.2c0,0.8-0.1,1.7-0.4,2.7L103.7,36.6z M91.6,36.9c0,0.4,0.1,0.8,0.3,1.1
				c0.2,0.3,0.4,0.5,0.8,0.7c0.3,0.2,0.6,0.3,1,0.4c0.4,0.1,0.7,0.1,1.1,0.1c1,0,1.8-0.2,2.5-0.5c0.7-0.3,1.2-0.8,1.6-1.3
				c0.4-0.6,0.8-1.2,1-2c0.2-0.8,0.4-1.6,0.6-2.4l-0.1-0.1c-0.3,0.3-0.7,0.5-1.1,0.6c-0.5,0.1-0.9,0.2-1.4,0.2
				c-0.6,0-1.2,0.1-1.9,0.1c-0.7,0-1.4,0.2-2.1,0.4c-0.6,0.2-1.2,0.5-1.6,0.9C91.9,35.6,91.6,36.2,91.6,36.9z"/>
			<path id="XMLID_9_" class="st1" d="M111.5,23.8h3.8l-0.6,2.6l0.1,0.1c0.7-1,1.6-1.8,2.7-2.3c1.1-0.6,2.3-0.8,3.5-0.8
				c1.8,0,3.2,0.4,4,1.3c0.9,0.9,1.3,2,1.3,3.5c0,0.3,0,0.7,0,1.1c0,0.4-0.1,0.8-0.1,1.1l-2.4,11.6h-4l2.3-11.2
				c0.1-0.3,0.1-0.6,0.2-0.9c0.1-0.3,0.1-0.5,0.1-0.8c0-0.1,0-0.4,0-0.6c0-0.3-0.1-0.6-0.3-0.9c-0.2-0.3-0.4-0.5-0.8-0.8
				c-0.4-0.2-0.9-0.3-1.7-0.3c-0.8,0-1.5,0.2-2.1,0.5c-0.6,0.3-1.2,0.8-1.7,1.2c-0.5,0.5-0.9,1-1.2,1.7c-0.3,0.7-0.6,1.4-0.8,2.2
				l-2,9.8h-4L111.5,23.8z"/>
			<path id="XMLID_7_" class="st1" d="M141.5,29.8c0-1.1-0.3-2-0.9-2.5c-0.7-0.5-1.5-0.8-2.7-0.8c-1,0-1.9,0.3-2.6,0.8
				c-0.7,0.5-1.4,1.2-1.9,2c-0.5,0.8-0.9,1.7-1.1,2.6c-0.2,0.9-0.4,1.9-0.4,2.7c0,0.7,0.1,1.3,0.2,1.9c0.1,0.6,0.4,1.1,0.7,1.5
				c0.3,0.4,0.7,0.8,1.2,1c0.5,0.2,1.1,0.4,1.9,0.4c1.2,0,2.2-0.3,2.9-0.9c0.8-0.6,1.3-1.5,1.6-2.6h4c-0.7,2.3-1.8,4-3.3,5.1
				c-1.5,1.1-3.5,1.6-5.9,1.6c-1.2,0-2.2-0.2-3.2-0.6c-0.9-0.4-1.7-0.9-2.3-1.6c-0.6-0.7-1.1-1.5-1.4-2.5c-0.3-0.9-0.5-2-0.5-3.1
				c0-1.5,0.2-3,0.7-4.3c0.5-1.4,1.1-2.6,2-3.6c0.9-1,2-1.9,3.2-2.5c1.3-0.6,2.7-0.9,4.3-0.9c1,0,2,0.1,2.8,0.4
				c0.9,0.3,1.7,0.7,2.3,1.2c0.7,0.5,1.2,1.2,1.5,2c0.4,0.8,0.5,1.8,0.5,2.8H141.5z"/>
			<path id="XMLID_4_" class="st1" d="M155.4,42.4c-2.5,0-4.5-0.7-5.9-2.1c-1.4-1.4-2.1-3.3-2.1-5.9c0-1.5,0.2-2.9,0.7-4.3
				c0.5-1.3,1.2-2.5,2.1-3.6c0.9-1,2-1.8,3.3-2.5c1.3-0.6,2.7-0.9,4.3-0.9c2.5,0,4.5,0.7,5.9,2c1.4,1.3,2.1,3.3,2.1,5.8
				c0,1.6-0.2,3.1-0.7,4.5c-0.5,1.4-1.2,2.6-2.1,3.6c-0.9,1-2,1.8-3.3,2.4C158.5,42.1,157,42.4,155.4,42.4z M157.6,26.4
				c-1,0-1.9,0.3-2.7,0.8c-0.8,0.5-1.4,1.2-1.9,1.9c-0.5,0.8-0.9,1.7-1.1,2.6c-0.2,1-0.4,1.9-0.4,2.8c0,1.3,0.3,2.4,1,3.3
				c0.7,0.9,1.7,1.3,3.2,1.3c1,0,1.9-0.3,2.7-0.8c0.8-0.5,1.4-1.1,1.9-1.9c0.5-0.8,0.9-1.7,1.1-2.6c0.2-1,0.4-1.9,0.4-2.8
				c0-1.3-0.3-2.4-1-3.3C160.1,26.9,159,26.4,157.6,26.4z"/>
		</g>
	</g>
</g>
</svg>
