<!-- Generator: Adobe Illustrator 20.1.0, SVG Export Plug-In  -->
<svg version="1.1"
	 xmlns="http://www.w3.org/2000/svg" xmlns:xlink="http://www.w3.org/1999/xlink" xmlns:a="http://ns.adobe.com/AdobeSVGViewerExtensions/3.0/"
	 x="0px" y="0px" width="318.2px" height="18.3px" viewBox="0 0 318.2 18.3"
	 style="overflow:scroll;enable-background:new 0 0 318.2 18.3;" xml:space="preserve">
<style type="text/css">
	.st0{fill:#FFFFFF;}
</style>
<defs>
</defs>
<g>
	<path class="st0" d="M3,9.9c0,0.5,0.1,0.9,0.3,1.2c0.2,0.3,0.4,0.6,0.7,0.8c0.3,0.2,0.6,0.4,1,0.5s0.8,0.2,1.2,0.2
		c0.3,0,0.6,0,0.9-0.1s0.6-0.1,0.9-0.3c0.3-0.1,0.5-0.3,0.7-0.5C8.9,11.4,9,11.1,9,10.7c0-0.4-0.1-0.7-0.4-0.9
		C8.4,9.6,8,9.4,7.6,9.2C7.2,9,6.8,8.9,6.3,8.8s-1-0.2-1.5-0.4C4.2,8.2,3.7,8.1,3.2,7.9c-0.5-0.2-1-0.4-1.4-0.8
		C1.4,6.8,1.1,6.5,0.9,6C0.6,5.5,0.5,5,0.5,4.3C0.5,3.6,0.6,3,1,2.4s0.7-1,1.2-1.3c0.5-0.4,1.1-0.6,1.7-0.8C4.5,0.1,5.2,0,5.8,0
		C6.6,0,7.3,0.1,8,0.3c0.7,0.2,1.3,0.4,1.8,0.8c0.5,0.4,1,0.8,1.3,1.4s0.5,1.3,0.5,2.1h-3c0-0.4-0.1-0.8-0.3-1.1S7.9,3,7.6,2.9
		C7.4,2.7,7.1,2.6,6.7,2.5C6.4,2.5,6.1,2.4,5.7,2.4c-0.3,0-0.5,0-0.8,0.1C4.7,2.6,4.4,2.7,4.2,2.8C4,2.9,3.9,3.1,3.7,3.3
		C3.6,3.5,3.5,3.8,3.5,4.1c0,0.3,0.1,0.5,0.2,0.7C3.8,4.9,4,5.1,4.3,5.2c0.3,0.1,0.7,0.3,1.3,0.4S6.9,6,7.8,6.2
		c0.2,0,0.4,0.1,0.7,0.2C8.7,6.5,9,6.6,9.4,6.7S10,7,10.3,7.2c0.3,0.2,0.6,0.4,0.9,0.7c0.3,0.3,0.5,0.6,0.6,1
		c0.2,0.4,0.2,0.9,0.2,1.4c0,0.7-0.1,1.3-0.4,1.8c-0.3,0.6-0.6,1-1.1,1.5c-0.5,0.4-1.1,0.7-1.9,1C7.9,14.8,7.1,15,6.1,15
		c-0.8,0-1.5-0.1-2.3-0.3c-0.7-0.2-1.4-0.5-1.9-0.9c-0.6-0.4-1-0.9-1.4-1.6S0,10.8,0,9.9H3z"/>
	<path class="st0" d="M15.7,3h-2l1.9-2.8h3.1L15.7,3z M13.8,4.3h2.8v10.3h-2.8V4.3z"/>
	<path class="st0" d="M19.1,4.3h2.7v1.4h0.1c0.4-0.6,0.8-1,1.4-1.3S24.4,4,25,4c0.8,0,1.4,0.1,1.9,0.3c0.5,0.2,0.9,0.5,1.1,0.9
		c0.3,0.4,0.5,0.8,0.6,1.3c0.1,0.5,0.2,1.1,0.2,1.8v6.4h-2.8V8.8c0-0.9-0.1-1.5-0.4-1.9c-0.3-0.4-0.7-0.6-1.4-0.6
		c-0.8,0-1.3,0.2-1.7,0.7c-0.3,0.5-0.5,1.2-0.5,2.3v5.4h-2.8V4.3z"/>
	<path class="st0" d="M38.5,13.3L38.5,13.3c-0.4,0.6-0.8,1-1.4,1.2c-0.5,0.3-1.2,0.4-1.8,0.4c-0.8,0-1.5-0.2-2-0.5
		c-0.6-0.3-1.1-0.7-1.4-1.2c-0.4-0.5-0.7-1.1-0.9-1.8s-0.3-1.4-0.3-2.1c0-0.7,0.1-1.4,0.3-2c0.2-0.6,0.5-1.2,0.9-1.7
		c0.4-0.5,0.9-0.9,1.4-1.2s1.2-0.5,2-0.5c0.6,0,1.2,0.1,1.8,0.4c0.6,0.3,1,0.6,1.3,1.2h0V0.3h2.8v14.3h-2.7V13.3z M38.4,9.4
		c0-0.4,0-0.8-0.1-1.2s-0.2-0.8-0.4-1s-0.4-0.5-0.8-0.7c-0.3-0.2-0.7-0.3-1.1-0.3c-0.5,0-0.9,0.1-1.2,0.3c-0.3,0.2-0.6,0.4-0.8,0.7
		c-0.2,0.3-0.3,0.7-0.4,1c-0.1,0.4-0.1,0.8-0.1,1.2c0,0.4,0,0.8,0.1,1.2c0.1,0.4,0.2,0.8,0.5,1.1c0.2,0.3,0.5,0.6,0.8,0.8
		c0.3,0.2,0.7,0.3,1.1,0.3c0.5,0,0.9-0.1,1.2-0.3c0.3-0.2,0.6-0.4,0.8-0.8c0.2-0.3,0.3-0.7,0.4-1.1S38.4,9.8,38.4,9.4z"/>
	<path class="st0" d="M43.5,4.3h2.7v1.9h0c0.1-0.3,0.3-0.6,0.5-0.9C47,5,47.2,4.8,47.5,4.6c0.3-0.2,0.6-0.3,1-0.5s0.7-0.2,1-0.2
		c0.2,0,0.4,0,0.6,0.1v2.6c-0.1,0-0.3,0-0.5-0.1c-0.2,0-0.4,0-0.5,0c-0.5,0-1,0.1-1.3,0.3c-0.4,0.2-0.7,0.4-0.9,0.7
		c-0.2,0.3-0.4,0.7-0.5,1.1c-0.1,0.4-0.1,0.8-0.1,1.3v4.7h-2.8V4.3z"/>
	<path class="st0" d="M50.7,9.5c0-0.8,0.1-1.6,0.4-2.3c0.3-0.7,0.6-1.2,1.1-1.7s1-0.8,1.7-1.1C54.5,4.1,55.2,4,56.1,4
		s1.6,0.1,2.2,0.4C58.9,4.7,59.5,5,60,5.5s0.8,1,1.1,1.7c0.3,0.7,0.4,1.4,0.4,2.3c0,0.8-0.1,1.6-0.4,2.2c-0.3,0.7-0.6,1.2-1.1,1.7
		s-1,0.8-1.7,1.1c-0.7,0.3-1.4,0.4-2.2,0.4s-1.5-0.1-2.2-0.4c-0.7-0.3-1.2-0.6-1.7-1.1s-0.8-1-1.1-1.7C50.8,11,50.7,10.3,50.7,9.5z
		 M53.6,9.5c0,0.4,0,0.8,0.1,1.2c0.1,0.4,0.2,0.7,0.4,1.1s0.5,0.6,0.8,0.8c0.3,0.2,0.7,0.3,1.2,0.3c0.5,0,0.9-0.1,1.2-0.3
		c0.3-0.2,0.6-0.4,0.8-0.8s0.3-0.7,0.4-1.1c0.1-0.4,0.1-0.8,0.1-1.2c0-0.4,0-0.8-0.1-1.2c-0.1-0.4-0.2-0.8-0.4-1.1
		c-0.2-0.3-0.5-0.6-0.8-0.8c-0.3-0.2-0.7-0.3-1.2-0.3c-0.5,0-0.9,0.1-1.2,0.3c-0.3,0.2-0.6,0.4-0.8,0.8c-0.2,0.3-0.3,0.7-0.4,1.1
		C53.6,8.6,53.6,9,53.6,9.5z"/>
	<path class="st0" d="M63.5,4.3h2.7v1.4h0c0.4-0.5,0.8-0.9,1.4-1.2C68.1,4.1,68.7,4,69.4,4c0.7,0,1.3,0.1,1.8,0.4
		c0.5,0.3,1,0.7,1.2,1.3c0.3-0.5,0.7-0.9,1.3-1.2C74.2,4.2,74.8,4,75.5,4c0.5,0,1.1,0.1,1.5,0.2c0.5,0.1,0.9,0.3,1.2,0.6
		C78.6,5.1,78.8,5.5,79,6s0.3,1,0.3,1.7v6.9h-2.8V8.8c0-0.3,0-0.7,0-1c0-0.3-0.1-0.6-0.2-0.8s-0.3-0.4-0.5-0.5
		c-0.2-0.1-0.5-0.2-1-0.2c-0.4,0-0.7,0.1-1,0.2c-0.2,0.2-0.4,0.4-0.6,0.6s-0.2,0.5-0.3,0.8s-0.1,0.6-0.1,1v5.8H70V8.8
		c0-0.3,0-0.6,0-0.9c0-0.3-0.1-0.6-0.2-0.8c-0.1-0.3-0.3-0.5-0.5-0.6c-0.2-0.2-0.6-0.2-1-0.2c-0.1,0-0.3,0-0.5,0.1s-0.4,0.2-0.6,0.3
		c-0.2,0.2-0.4,0.4-0.5,0.7c-0.1,0.3-0.2,0.7-0.2,1.2v6h-2.8V4.3z"/>
	<path class="st0" d="M84,10.1c0,0.9,0.3,1.6,0.7,2s1,0.6,1.8,0.6c0.6,0,1.1-0.1,1.5-0.4c0.4-0.3,0.7-0.6,0.8-0.9h2.5
		c-0.4,1.2-1,2.1-1.8,2.7c-0.8,0.5-1.8,0.8-3,0.8c-0.8,0-1.5-0.1-2.2-0.4s-1.2-0.6-1.7-1.1c-0.5-0.5-0.8-1.1-1-1.7
		c-0.2-0.7-0.4-1.4-0.4-2.2c0-0.8,0.1-1.5,0.4-2.2c0.3-0.7,0.6-1.2,1.1-1.7s1-0.9,1.7-1.2S85.7,4,86.5,4c0.9,0,1.6,0.2,2.3,0.5
		c0.7,0.3,1.2,0.8,1.6,1.4c0.4,0.6,0.7,1.2,0.9,2c0.2,0.7,0.3,1.5,0.2,2.3H84z M88.7,8.3c-0.1-0.7-0.4-1.3-0.7-1.6s-0.9-0.6-1.5-0.6
		c-0.5,0-0.8,0.1-1.1,0.2c-0.3,0.2-0.5,0.3-0.7,0.6c-0.2,0.2-0.3,0.5-0.4,0.7S84.1,8.1,84,8.3H88.7z"/>
	<path class="st0" d="M109.7,13c-0.6,0.7-1.2,1.2-1.9,1.5c-0.7,0.3-1.4,0.4-2.1,0.4c-1.1,0-2.1-0.2-3-0.6c-0.9-0.4-1.6-0.9-2.2-1.6
		c-0.6-0.7-1.1-1.5-1.4-2.4c-0.3-0.9-0.5-1.9-0.5-2.9c0-1.1,0.2-2,0.5-3c0.3-0.9,0.8-1.7,1.4-2.4c0.6-0.7,1.3-1.2,2.2-1.6
		c0.9-0.4,1.9-0.6,3-0.6c0.7,0,1.4,0.1,2.1,0.3c0.7,0.2,1.3,0.5,1.8,1c0.5,0.4,1,1,1.4,1.6c0.4,0.6,0.6,1.3,0.7,2.2h-3
		c-0.2-0.8-0.5-1.4-1.1-1.8c-0.5-0.4-1.2-0.6-1.9-0.6c-0.7,0-1.3,0.1-1.8,0.4c-0.5,0.3-0.9,0.6-1.2,1.1c-0.3,0.5-0.5,1-0.7,1.6
		c-0.1,0.6-0.2,1.2-0.2,1.8c0,0.6,0.1,1.2,0.2,1.8c0.1,0.6,0.4,1.1,0.7,1.5c0.3,0.5,0.7,0.8,1.2,1.1c0.5,0.3,1.1,0.4,1.8,0.4
		c1,0,1.8-0.3,2.4-0.8s0.9-1.3,1-2.3H106V6.9h6v7.7h-2L109.7,13z"/>
	<path class="st0" d="M116.7,10.1c0,0.9,0.3,1.6,0.7,2s1,0.6,1.8,0.6c0.6,0,1.1-0.1,1.5-0.4c0.4-0.3,0.7-0.6,0.8-0.9h2.5
		c-0.4,1.2-1,2.1-1.8,2.7c-0.8,0.5-1.8,0.8-3,0.8c-0.8,0-1.5-0.1-2.2-0.4s-1.2-0.6-1.7-1.1c-0.5-0.5-0.8-1.1-1-1.7
		c-0.2-0.7-0.4-1.4-0.4-2.2c0-0.8,0.1-1.5,0.4-2.2c0.3-0.7,0.6-1.2,1.1-1.7s1-0.9,1.7-1.2s1.4-0.4,2.2-0.4c0.9,0,1.6,0.2,2.3,0.5
		c0.7,0.3,1.2,0.8,1.6,1.4c0.4,0.6,0.7,1.2,0.9,2c0.2,0.7,0.3,1.5,0.2,2.3H116.7z M121.4,8.3c-0.1-0.7-0.4-1.3-0.7-1.6
		s-0.9-0.6-1.5-0.6c-0.5,0-0.8,0.1-1.1,0.2c-0.3,0.2-0.5,0.3-0.7,0.6c-0.2,0.2-0.3,0.5-0.4,0.7s-0.1,0.5-0.1,0.7H121.4z"/>
	<path class="st0" d="M126,4.3h2.7v1.4h0.1c0.4-0.6,0.8-1,1.4-1.3S131.4,4,132,4c0.8,0,1.4,0.1,1.9,0.3c0.5,0.2,0.9,0.5,1.1,0.9
		c0.3,0.4,0.5,0.8,0.6,1.3c0.1,0.5,0.2,1.1,0.2,1.8v6.4h-2.8V8.8c0-0.9-0.1-1.5-0.4-1.9c-0.3-0.4-0.7-0.6-1.4-0.6
		c-0.8,0-1.3,0.2-1.7,0.7c-0.3,0.5-0.5,1.2-0.5,2.3v5.4H126V4.3z"/>
	<path class="st0" d="M140.4,10.1c0,0.9,0.3,1.6,0.7,2s1,0.6,1.8,0.6c0.6,0,1.1-0.1,1.5-0.4c0.4-0.3,0.7-0.6,0.8-0.9h2.5
		c-0.4,1.2-1,2.1-1.8,2.7c-0.8,0.5-1.8,0.8-3,0.8c-0.8,0-1.5-0.1-2.2-0.4s-1.2-0.6-1.7-1.1c-0.5-0.5-0.8-1.1-1-1.7
		c-0.2-0.7-0.4-1.4-0.4-2.2c0-0.8,0.1-1.5,0.4-2.2c0.3-0.7,0.6-1.2,1.1-1.7s1-0.9,1.7-1.2s1.4-0.4,2.2-0.4c0.9,0,1.6,0.2,2.3,0.5
		c0.7,0.3,1.2,0.8,1.6,1.4c0.4,0.6,0.7,1.2,0.9,2c0.2,0.7,0.3,1.5,0.2,2.3H140.4z M145,8.3c-0.1-0.7-0.4-1.3-0.7-1.6
		s-0.9-0.6-1.5-0.6c-0.5,0-0.8,0.1-1.1,0.2c-0.3,0.2-0.5,0.3-0.7,0.6c-0.2,0.2-0.3,0.5-0.4,0.7s-0.1,0.5-0.1,0.7H145z"/>
	<path class="st0" d="M149.7,4.3h2.7v1.9h0c0.1-0.3,0.3-0.6,0.5-0.9c0.2-0.3,0.5-0.5,0.8-0.7c0.3-0.2,0.6-0.3,1-0.5s0.7-0.2,1-0.2
		c0.2,0,0.4,0,0.6,0.1v2.6c-0.1,0-0.3,0-0.5-0.1c-0.2,0-0.4,0-0.5,0c-0.5,0-1,0.1-1.3,0.3c-0.4,0.2-0.7,0.4-0.9,0.7
		c-0.2,0.3-0.4,0.7-0.5,1.1c-0.1,0.4-0.1,0.8-0.1,1.3v4.7h-2.8V4.3z"/>
	<path class="st0" d="M157.5,7.5c0-0.7,0.2-1.2,0.5-1.7c0.3-0.4,0.7-0.8,1.1-1.1s1-0.5,1.5-0.6c0.6-0.1,1.1-0.2,1.7-0.2
		c0.5,0,1,0,1.6,0.1c0.5,0.1,1,0.2,1.5,0.4c0.4,0.2,0.8,0.5,1.1,0.9c0.3,0.4,0.4,0.9,0.4,1.5v5.4c0,0.5,0,0.9,0.1,1.3
		c0.1,0.4,0.1,0.7,0.3,1h-2.9c-0.1-0.2-0.1-0.3-0.1-0.5c0-0.2-0.1-0.3-0.1-0.5c-0.5,0.5-1,0.8-1.6,1s-1.2,0.3-1.9,0.3
		c-0.5,0-1-0.1-1.4-0.2c-0.4-0.1-0.8-0.3-1.1-0.6c-0.3-0.3-0.6-0.6-0.8-1c-0.2-0.4-0.3-0.8-0.3-1.4c0-0.6,0.1-1.1,0.3-1.4
		c0.2-0.4,0.5-0.7,0.8-0.9c0.3-0.2,0.7-0.4,1.1-0.5c0.4-0.1,0.8-0.2,1.3-0.3c0.4-0.1,0.9-0.1,1.3-0.2s0.8-0.1,1.1-0.2
		c0.3-0.1,0.6-0.2,0.8-0.4c0.2-0.2,0.3-0.4,0.3-0.7c0-0.3,0-0.5-0.1-0.7c-0.1-0.2-0.2-0.3-0.4-0.4C163.4,6,163.2,6,162.9,6
		c-0.2,0-0.5,0-0.7,0c-0.5,0-1,0.1-1.3,0.4c-0.3,0.2-0.5,0.6-0.6,1.2H157.5z M164.1,9.6c-0.1,0.1-0.3,0.2-0.4,0.3
		c-0.2,0.1-0.4,0.1-0.6,0.1c-0.2,0-0.4,0.1-0.7,0.1c-0.2,0-0.5,0.1-0.7,0.1c-0.2,0-0.4,0.1-0.6,0.2c-0.2,0.1-0.4,0.2-0.5,0.3
		s-0.3,0.3-0.4,0.4c-0.1,0.2-0.1,0.4-0.1,0.6c0,0.3,0,0.5,0.1,0.7c0.1,0.2,0.2,0.3,0.4,0.4c0.2,0.1,0.3,0.2,0.6,0.2
		c0.2,0,0.4,0.1,0.7,0.1c0.6,0,1-0.1,1.3-0.3c0.3-0.2,0.5-0.4,0.7-0.7c0.1-0.3,0.2-0.5,0.3-0.8c0-0.3,0-0.5,0-0.6V9.6z"/>
	<path class="st0" d="M169.4,0.3h2.8v14.3h-2.8V0.3z"/>
	<path class="st0" d="M187.7,13.3L187.7,13.3c-0.4,0.6-0.8,1-1.4,1.2c-0.5,0.3-1.2,0.4-1.8,0.4c-0.8,0-1.5-0.2-2-0.5
		c-0.6-0.3-1.1-0.7-1.4-1.2c-0.4-0.5-0.7-1.1-0.9-1.8s-0.3-1.4-0.3-2.1c0-0.7,0.1-1.4,0.3-2c0.2-0.6,0.5-1.2,0.9-1.7
		c0.4-0.5,0.9-0.9,1.4-1.2s1.2-0.5,2-0.5c0.6,0,1.2,0.1,1.8,0.4c0.6,0.3,1,0.6,1.3,1.2h0V0.3h2.8v14.3h-2.7V13.3z M187.7,9.4
		c0-0.4,0-0.8-0.1-1.2s-0.2-0.8-0.4-1s-0.4-0.5-0.8-0.7c-0.3-0.2-0.7-0.3-1.1-0.3c-0.5,0-0.9,0.1-1.2,0.3c-0.3,0.2-0.6,0.4-0.8,0.7
		c-0.2,0.3-0.3,0.7-0.4,1c-0.1,0.4-0.1,0.8-0.1,1.2c0,0.4,0,0.8,0.1,1.2c0.1,0.4,0.2,0.8,0.5,1.1c0.2,0.3,0.5,0.6,0.8,0.8
		c0.3,0.2,0.7,0.3,1.1,0.3c0.5,0,0.9-0.1,1.2-0.3c0.3-0.2,0.6-0.4,0.8-0.8c0.2-0.3,0.3-0.7,0.4-1.1S187.7,9.8,187.7,9.4z"/>
	<path class="st0" d="M195,10.1c0,0.9,0.3,1.6,0.7,2s1,0.6,1.8,0.6c0.6,0,1.1-0.1,1.5-0.4c0.4-0.3,0.7-0.6,0.8-0.9h2.5
		c-0.4,1.2-1,2.1-1.8,2.7c-0.8,0.5-1.8,0.8-3,0.8c-0.8,0-1.5-0.1-2.2-0.4s-1.2-0.6-1.7-1.1c-0.5-0.5-0.8-1.1-1-1.7
		c-0.2-0.7-0.4-1.4-0.4-2.2c0-0.8,0.1-1.5,0.4-2.2c0.3-0.7,0.6-1.2,1.1-1.7s1-0.9,1.7-1.2s1.4-0.4,2.2-0.4c0.9,0,1.6,0.2,2.3,0.5
		c0.7,0.3,1.2,0.8,1.6,1.4c0.4,0.6,0.7,1.2,0.9,2c0.2,0.7,0.3,1.5,0.2,2.3H195z M199.7,8.3c-0.1-0.7-0.4-1.3-0.7-1.6
		s-0.9-0.6-1.5-0.6c-0.5,0-0.8,0.1-1.1,0.2c-0.3,0.2-0.5,0.3-0.7,0.6c-0.2,0.2-0.3,0.5-0.4,0.7s-0.1,0.5-0.1,0.7H199.7z"/>
	<path class="st0" d="M214.3,0.3h3.2l5.3,14.3h-3.3l-1.1-3.2h-5.3l-1.1,3.2h-3.2L214.3,0.3z M214,9.1h3.7l-1.8-5.2h0L214,9.1z"/>
	<path class="st0" d="M231.3,13.3L231.3,13.3c-0.4,0.6-0.8,1-1.4,1.2c-0.5,0.3-1.2,0.4-1.8,0.4c-0.8,0-1.5-0.2-2-0.5
		c-0.6-0.3-1.1-0.7-1.4-1.2c-0.4-0.5-0.7-1.1-0.9-1.8s-0.3-1.4-0.3-2.1c0-0.7,0.1-1.4,0.3-2c0.2-0.6,0.5-1.2,0.9-1.7
		c0.4-0.5,0.9-0.9,1.4-1.2s1.2-0.5,2-0.5c0.6,0,1.2,0.1,1.8,0.4c0.6,0.3,1,0.6,1.3,1.2h0V0.3h2.8v14.3h-2.7V13.3z M231.3,9.4
		c0-0.4,0-0.8-0.1-1.2s-0.2-0.8-0.4-1s-0.4-0.5-0.8-0.7c-0.3-0.2-0.7-0.3-1.1-0.3c-0.5,0-0.9,0.1-1.2,0.3c-0.3,0.2-0.6,0.4-0.8,0.7
		c-0.2,0.3-0.3,0.7-0.4,1c-0.1,0.4-0.1,0.8-0.1,1.2c0,0.4,0,0.8,0.1,1.2c0.1,0.4,0.2,0.8,0.5,1.1c0.2,0.3,0.5,0.6,0.8,0.8
		c0.3,0.2,0.7,0.3,1.1,0.3c0.5,0,0.9-0.1,1.2-0.3c0.3-0.2,0.6-0.4,0.8-0.8c0.2-0.3,0.3-0.7,0.4-1.1S231.3,9.8,231.3,9.4z"/>
	<path class="st0" d="M236.2,7.5c0-0.7,0.2-1.2,0.5-1.7c0.3-0.4,0.7-0.8,1.1-1.1s1-0.5,1.5-0.6c0.6-0.1,1.1-0.2,1.7-0.2
		c0.5,0,1,0,1.6,0.1c0.5,0.1,1,0.2,1.5,0.4c0.4,0.2,0.8,0.5,1.1,0.9c0.3,0.4,0.4,0.9,0.4,1.5v5.4c0,0.5,0,0.9,0.1,1.3
		c0.1,0.4,0.1,0.7,0.3,1h-2.9c-0.1-0.2-0.1-0.3-0.1-0.5c0-0.2-0.1-0.3-0.1-0.5c-0.5,0.5-1,0.8-1.6,1s-1.2,0.3-1.9,0.3
		c-0.5,0-1-0.1-1.4-0.2c-0.4-0.1-0.8-0.3-1.1-0.6c-0.3-0.3-0.6-0.6-0.8-1c-0.2-0.4-0.3-0.8-0.3-1.4c0-0.6,0.1-1.1,0.3-1.4
		c0.2-0.4,0.5-0.7,0.8-0.9c0.3-0.2,0.7-0.4,1.1-0.5c0.4-0.1,0.8-0.2,1.3-0.3c0.4-0.1,0.9-0.1,1.3-0.2s0.8-0.1,1.1-0.2
		c0.3-0.1,0.6-0.2,0.8-0.4c0.2-0.2,0.3-0.4,0.3-0.7c0-0.3,0-0.5-0.1-0.7c-0.1-0.2-0.2-0.3-0.4-0.4C242,6,241.8,6,241.6,6
		c-0.2,0-0.5,0-0.7,0c-0.5,0-1,0.1-1.3,0.4c-0.3,0.2-0.5,0.6-0.6,1.2H236.2z M242.7,9.6c-0.1,0.1-0.3,0.2-0.4,0.3
		c-0.2,0.1-0.4,0.1-0.6,0.1c-0.2,0-0.4,0.1-0.7,0.1c-0.2,0-0.5,0.1-0.7,0.1c-0.2,0-0.4,0.1-0.6,0.2c-0.2,0.1-0.4,0.2-0.5,0.3
		s-0.3,0.3-0.4,0.4c-0.1,0.2-0.1,0.4-0.1,0.6c0,0.3,0,0.5,0.1,0.7c0.1,0.2,0.2,0.3,0.4,0.4c0.2,0.1,0.3,0.2,0.6,0.2
		c0.2,0,0.4,0.1,0.7,0.1c0.6,0,1-0.1,1.3-0.3c0.3-0.2,0.5-0.4,0.7-0.7c0.1-0.3,0.2-0.5,0.3-0.8c0-0.3,0-0.5,0-0.6V9.6z"/>
	<path class="st0" d="M247.9,4.3h2.7v1.3h0c0.3-0.6,0.8-1,1.3-1.2c0.5-0.3,1.1-0.4,1.8-0.4c0.8,0,1.5,0.2,2.1,0.5s1.1,0.7,1.5,1.2
		c0.4,0.5,0.7,1.1,0.9,1.8c0.2,0.7,0.3,1.4,0.3,2.1c0,0.7-0.1,1.4-0.3,2c-0.2,0.6-0.5,1.2-0.9,1.7c-0.4,0.5-0.9,0.9-1.4,1.2
		s-1.2,0.5-2,0.5c-0.6,0-1.2-0.1-1.8-0.4s-1-0.7-1.3-1.2h0v4.9h-2.8V4.3z M253.2,12.8c0.5,0,0.9-0.1,1.2-0.3s0.6-0.4,0.8-0.7
		c0.2-0.3,0.3-0.6,0.4-1c0.1-0.4,0.1-0.8,0.1-1.2c0-0.4,0-0.8-0.1-1.2c-0.1-0.4-0.2-0.8-0.4-1.1s-0.5-0.6-0.8-0.8
		c-0.3-0.2-0.7-0.3-1.1-0.3c-0.5,0-0.9,0.1-1.2,0.3c-0.3,0.2-0.6,0.4-0.8,0.8c-0.2,0.3-0.3,0.7-0.4,1.1c-0.1,0.4-0.1,0.8-0.1,1.2
		c0,0.4,0,0.8,0.1,1.2c0.1,0.4,0.2,0.7,0.4,1s0.4,0.5,0.8,0.7S252.7,12.8,253.2,12.8z"/>
	<path class="st0" d="M263.9,4.3h2.1v1.9h-2.1v5.1c0,0.5,0.1,0.8,0.2,1c0.2,0.2,0.5,0.2,1,0.2c0.3,0,0.6,0,0.9-0.1v2.2
		c-0.2,0-0.5,0.1-0.8,0.1c-0.3,0-0.6,0-0.9,0c-0.4,0-0.9,0-1.3-0.1c-0.4-0.1-0.7-0.2-1-0.4c-0.3-0.2-0.5-0.4-0.7-0.8
		c-0.2-0.3-0.3-0.7-0.3-1.3V6.2h-1.7V4.3h1.7V1.2h2.8V4.3z"/>
	<path class="st0" d="M267.4,7.5c0-0.7,0.2-1.2,0.5-1.7c0.3-0.4,0.7-0.8,1.1-1.1s1-0.5,1.5-0.6c0.6-0.1,1.1-0.2,1.7-0.2
		c0.5,0,1,0,1.6,0.1c0.5,0.1,1,0.2,1.5,0.4c0.4,0.2,0.8,0.5,1.1,0.9c0.3,0.4,0.4,0.9,0.4,1.5v5.4c0,0.5,0,0.9,0.1,1.3
		c0.1,0.4,0.1,0.7,0.3,1h-2.9c-0.1-0.2-0.1-0.3-0.1-0.5c0-0.2-0.1-0.3-0.1-0.5c-0.5,0.5-1,0.8-1.6,1s-1.2,0.3-1.9,0.3
		c-0.5,0-1-0.1-1.4-0.2c-0.4-0.1-0.8-0.3-1.1-0.6c-0.3-0.3-0.6-0.6-0.8-1c-0.2-0.4-0.3-0.8-0.3-1.4c0-0.6,0.1-1.1,0.3-1.4
		c0.2-0.4,0.5-0.7,0.8-0.9c0.3-0.2,0.7-0.4,1.1-0.5c0.4-0.1,0.8-0.2,1.3-0.3c0.4-0.1,0.9-0.1,1.3-0.2s0.8-0.1,1.1-0.2
		c0.3-0.1,0.6-0.2,0.8-0.4c0.2-0.2,0.3-0.4,0.3-0.7c0-0.3,0-0.5-0.1-0.7c-0.1-0.2-0.2-0.3-0.4-0.4C273.2,6,273,6,272.8,6
		c-0.2,0-0.5,0-0.7,0c-0.5,0-1,0.1-1.3,0.4c-0.3,0.2-0.5,0.6-0.6,1.2H267.4z M274,9.6c-0.1,0.1-0.3,0.2-0.4,0.3
		c-0.2,0.1-0.4,0.1-0.6,0.1c-0.2,0-0.4,0.1-0.7,0.1c-0.2,0-0.5,0.1-0.7,0.1c-0.2,0-0.4,0.1-0.6,0.2c-0.2,0.1-0.4,0.2-0.5,0.3
		s-0.3,0.3-0.4,0.4c-0.1,0.2-0.1,0.4-0.1,0.6c0,0.3,0,0.5,0.1,0.7c0.1,0.2,0.2,0.3,0.4,0.4c0.2,0.1,0.3,0.2,0.6,0.2
		c0.2,0,0.4,0.1,0.7,0.1c0.6,0,1-0.1,1.3-0.3c0.3-0.2,0.5-0.4,0.7-0.7c0.1-0.3,0.2-0.5,0.3-0.8c0-0.3,0-0.5,0-0.6V9.6z"/>
	<path class="st0" d="M286.2,7.9c-0.2-1.2-0.9-1.8-2.1-1.8c-0.5,0-0.8,0.1-1.1,0.3s-0.6,0.5-0.8,0.8c-0.2,0.3-0.3,0.7-0.4,1.1
		c-0.1,0.4-0.1,0.8-0.1,1.2c0,0.4,0,0.8,0.1,1.1c0.1,0.4,0.2,0.7,0.4,1.1c0.2,0.3,0.4,0.6,0.7,0.8s0.7,0.3,1.1,0.3
		c0.7,0,1.2-0.2,1.6-0.6c0.4-0.4,0.6-0.9,0.7-1.5h2.7c-0.2,1.4-0.7,2.4-1.6,3.2s-2,1.1-3.4,1.1c-0.8,0-1.5-0.1-2.1-0.4
		c-0.6-0.3-1.2-0.6-1.6-1.1c-0.5-0.5-0.8-1-1.1-1.7c-0.3-0.6-0.4-1.4-0.4-2.1c0-0.8,0.1-1.5,0.4-2.2c0.2-0.7,0.6-1.3,1-1.8
		s1-0.9,1.7-1.2s1.4-0.4,2.2-0.4c0.6,0,1.2,0.1,1.8,0.2c0.6,0.2,1.1,0.4,1.5,0.7c0.4,0.3,0.8,0.7,1.1,1.2c0.3,0.5,0.5,1.1,0.5,1.7
		H286.2z"/>
	<path class="st0" d="M293.7,2.7h-2.8V0.3h2.8V2.7z M290.9,4.3h2.8v10.3h-2.8V4.3z"/>
	<path class="st0" d="M295.8,9.5c0-0.8,0.1-1.6,0.4-2.3c0.3-0.7,0.6-1.2,1.1-1.7s1-0.8,1.7-1.1c0.7-0.3,1.4-0.4,2.2-0.4
		s1.6,0.1,2.2,0.4c0.7,0.3,1.2,0.6,1.7,1.1s0.8,1,1.1,1.7c0.3,0.7,0.4,1.4,0.4,2.3c0,0.8-0.1,1.6-0.4,2.2c-0.3,0.7-0.6,1.2-1.1,1.7
		s-1,0.8-1.7,1.1c-0.7,0.3-1.4,0.4-2.2,0.4s-1.5-0.1-2.2-0.4c-0.7-0.3-1.2-0.6-1.7-1.1s-0.8-1-1.1-1.7
		C295.9,11,295.8,10.3,295.8,9.5z M298.6,9.5c0,0.4,0,0.8,0.1,1.2c0.1,0.4,0.2,0.7,0.4,1.1s0.5,0.6,0.8,0.8c0.3,0.2,0.7,0.3,1.2,0.3
		c0.5,0,0.9-0.1,1.2-0.3c0.3-0.2,0.6-0.4,0.8-0.8s0.3-0.7,0.4-1.1c0.1-0.4,0.1-0.8,0.1-1.2c0-0.4,0-0.8-0.1-1.2
		c-0.1-0.4-0.2-0.8-0.4-1.1c-0.2-0.3-0.5-0.6-0.8-0.8c-0.3-0.2-0.7-0.3-1.2-0.3c-0.5,0-0.9,0.1-1.2,0.3c-0.3,0.2-0.6,0.4-0.8,0.8
		c-0.2,0.3-0.3,0.7-0.4,1.1C298.7,8.6,298.6,9,298.6,9.5z M301.6,3h-2l1.9-2.8h3.1L301.6,3z"/>
	<path class="st0" d="M308.5,4.3h2.7v1.4h0.1c0.4-0.6,0.8-1,1.4-1.3s1.2-0.4,1.8-0.4c0.8,0,1.4,0.1,1.9,0.3c0.5,0.2,0.9,0.5,1.1,0.9
		c0.3,0.4,0.5,0.8,0.6,1.3c0.1,0.5,0.2,1.1,0.2,1.8v6.4h-2.8V8.8c0-0.9-0.1-1.5-0.4-1.9c-0.3-0.4-0.7-0.6-1.4-0.6
		c-0.8,0-1.3,0.2-1.7,0.7c-0.3,0.5-0.5,1.2-0.5,2.3v5.4h-2.8V4.3z"/>
</g>
</svg>
