<!-- Generator: Adobe Illustrator 20.1.0, SVG Export Plug-In  -->
<svg version="1.1"
	 xmlns="http://www.w3.org/2000/svg" xmlns:xlink="http://www.w3.org/1999/xlink" xmlns:a="http://ns.adobe.com/AdobeSVGViewerExtensions/3.0/"
	 x="0px" y="0px" width="17.7px" height="137.2px" viewBox="0 0 17.7 137.2"
	 style="overflow:scroll;enable-background:new 0 0 17.7 137.2;" xml:space="preserve">
<style type="text/css">
	.st0{fill:#333333;}
</style>
<defs>
</defs>
<g>
	<path class="st0" d="M3.2,132v5.2H0V123h3.2v5.2h14.1v3.8H3.2z"/>
	<path class="st0" d="M4.8,123.6v-3.3h2.3v0c-0.4-0.2-0.7-0.4-1.1-0.7c-0.3-0.3-0.6-0.6-0.8-0.9c-0.2-0.4-0.4-0.7-0.5-1.2
		c-0.1-0.4-0.2-0.8-0.2-1.3c0-0.3,0-0.5,0.1-0.8h3.2c0,0.2-0.1,0.4-0.1,0.6c0,0.2,0,0.4,0,0.7c0,0.6,0.1,1.2,0.3,1.6
		c0.2,0.4,0.5,0.8,0.9,1.1s0.8,0.5,1.3,0.6c0.5,0.1,1,0.2,1.6,0.2h5.7v3.4H4.8z"/>
	<path class="st0" d="M8.6,114.3c-0.8,0-1.5-0.3-2-0.6c-0.5-0.4-1-0.8-1.3-1.4c-0.3-0.6-0.6-1.2-0.7-1.8c-0.1-0.7-0.2-1.4-0.2-2.1
		c0-0.6,0-1.3,0.1-1.9c0.1-0.6,0.3-1.2,0.5-1.8s0.6-1,1.1-1.3s1.1-0.5,1.8-0.5h6.5c0.6,0,1.1,0,1.6-0.1c0.5-0.1,0.9-0.2,1.2-0.3v3.5
		c-0.2,0.1-0.4,0.1-0.6,0.2s-0.4,0.1-0.6,0.1c0.6,0.6,1,1.2,1.2,1.9c0.2,0.7,0.4,1.5,0.4,2.3c0,0.6-0.1,1.2-0.2,1.7
		c-0.2,0.5-0.4,1-0.7,1.4s-0.7,0.7-1.2,0.9c-0.5,0.2-1,0.3-1.7,0.3c-0.7,0-1.3-0.1-1.8-0.4c-0.5-0.2-0.8-0.6-1.1-1
		c-0.3-0.4-0.5-0.9-0.6-1.4s-0.2-1-0.3-1.6s-0.1-1-0.2-1.5c0-0.5-0.1-0.9-0.2-1.3c-0.1-0.4-0.2-0.7-0.4-0.9
		c-0.2-0.2-0.5-0.3-0.8-0.3c-0.4,0-0.7,0.1-0.9,0.2c-0.2,0.1-0.4,0.3-0.5,0.5c-0.1,0.2-0.2,0.4-0.2,0.7c0,0.3-0.1,0.6-0.1,0.9
		c0,0.7,0.1,1.2,0.4,1.6c0.3,0.4,0.8,0.6,1.5,0.7V114.3z M11.2,106.4c0.1,0.1,0.2,0.3,0.3,0.5c0.1,0.2,0.1,0.5,0.2,0.7
		c0,0.3,0.1,0.5,0.1,0.8c0,0.3,0.1,0.6,0.1,0.8c0,0.3,0.1,0.5,0.2,0.8c0.1,0.2,0.2,0.5,0.3,0.6c0.1,0.2,0.3,0.3,0.5,0.5
		s0.5,0.2,0.8,0.2c0.3,0,0.6-0.1,0.8-0.2c0.2-0.1,0.4-0.3,0.5-0.5c0.1-0.2,0.2-0.4,0.3-0.7s0.1-0.5,0.1-0.8c0-0.7-0.1-1.2-0.3-1.6
		c-0.2-0.4-0.5-0.6-0.8-0.8c-0.3-0.2-0.6-0.3-1-0.3c-0.3,0-0.6-0.1-0.8-0.1H11.2z"/>
	<path class="st0" d="M4.8,95.9v-2.5h2.3v2.5h6.2c0.6,0,1-0.1,1.2-0.3s0.3-0.6,0.3-1.2c0-0.4,0-0.7-0.1-1.1h2.7c0,0.3,0.1,0.6,0.1,1
		c0,0.4,0,0.7,0,1c0,0.5,0,1-0.1,1.5c-0.1,0.5-0.2,0.9-0.4,1.3c-0.2,0.4-0.5,0.7-0.9,0.9c-0.4,0.2-0.9,0.3-1.5,0.3H7.1v2.1H4.8v-2.1
		H1v-3.4H4.8z"/>
	<path class="st0" d="M8.6,91.9c-0.8,0-1.5-0.3-2-0.6c-0.5-0.4-1-0.8-1.3-1.4C5,89.3,4.8,88.7,4.7,88c-0.1-0.7-0.2-1.4-0.2-2.1
		c0-0.6,0-1.3,0.1-1.9c0.1-0.6,0.3-1.2,0.5-1.8s0.6-1,1.1-1.3s1.1-0.5,1.8-0.5h6.5c0.6,0,1.1,0,1.6-0.1c0.5-0.1,0.9-0.2,1.2-0.3v3.5
		c-0.2,0.1-0.4,0.1-0.6,0.2s-0.4,0.1-0.6,0.1c0.6,0.6,1,1.2,1.2,1.9c0.2,0.7,0.4,1.5,0.4,2.3c0,0.6-0.1,1.2-0.2,1.7
		c-0.2,0.5-0.4,1-0.7,1.4s-0.7,0.7-1.2,0.9c-0.5,0.2-1,0.3-1.7,0.3c-0.7,0-1.3-0.1-1.8-0.4c-0.5-0.2-0.8-0.6-1.1-1
		c-0.3-0.4-0.5-0.9-0.6-1.4s-0.2-1-0.3-1.6s-0.1-1-0.2-1.5c0-0.5-0.1-0.9-0.2-1.3c-0.1-0.4-0.2-0.7-0.4-0.9
		c-0.2-0.2-0.5-0.3-0.8-0.3c-0.4,0-0.7,0.1-0.9,0.2c-0.2,0.1-0.4,0.3-0.5,0.5c-0.1,0.2-0.2,0.4-0.2,0.7c0,0.3-0.1,0.6-0.1,0.9
		c0,0.7,0.1,1.2,0.4,1.6c0.3,0.4,0.8,0.6,1.5,0.7V91.9z M11.2,83.9c0.1,0.1,0.2,0.3,0.3,0.5c0.1,0.2,0.1,0.5,0.2,0.7
		c0,0.3,0.1,0.5,0.1,0.8c0,0.3,0.1,0.6,0.1,0.8c0,0.3,0.1,0.5,0.2,0.8c0.1,0.2,0.2,0.5,0.3,0.6c0.1,0.2,0.3,0.3,0.5,0.5
		s0.5,0.2,0.8,0.2c0.3,0,0.6-0.1,0.8-0.2c0.2-0.1,0.4-0.3,0.5-0.5c0.1-0.2,0.2-0.4,0.3-0.7s0.1-0.5,0.1-0.8c0-0.7-0.1-1.2-0.3-1.6
		c-0.2-0.4-0.5-0.6-0.8-0.8c-0.3-0.2-0.6-0.3-1-0.3c-0.3,0-0.6-0.1-0.8-0.1H11.2z"/>
	<path class="st0" d="M4.8,77.7v-3.3h1.7v0c-0.6-0.5-1.1-1-1.5-1.6c-0.4-0.6-0.5-1.4-0.5-2.2c0-0.8,0.2-1.5,0.5-2.2s0.9-1.2,1.6-1.5
		c-0.6-0.4-1-0.9-1.5-1.5s-0.6-1.4-0.6-2.3c0-0.7,0.1-1.3,0.2-1.8s0.4-1.1,0.8-1.5c0.4-0.4,0.8-0.7,1.4-0.9c0.6-0.2,1.3-0.3,2.1-0.3
		h8.4v3.4h-7.1c-0.4,0-0.8,0-1.2,0c-0.4,0-0.7,0.1-1,0.3s-0.5,0.4-0.7,0.6c-0.2,0.3-0.2,0.7-0.2,1.2c0,0.5,0.1,0.9,0.3,1.2
		c0.2,0.3,0.4,0.5,0.7,0.7s0.6,0.3,1,0.3c0.4,0.1,0.8,0.1,1.2,0.1h7v3.4h-7c-0.4,0-0.7,0-1.1,0c-0.4,0-0.7,0.1-1,0.2
		s-0.6,0.3-0.7,0.6c-0.2,0.3-0.3,0.7-0.3,1.3c0,0.2,0,0.4,0.1,0.7c0.1,0.3,0.2,0.5,0.4,0.8c0.2,0.3,0.5,0.5,0.9,0.6
		c0.4,0.2,0.9,0.3,1.5,0.3h7.3v3.4H4.8z"/>
	<path class="st0" d="M2.8,52.2v3.4H0v-3.4H2.8z M4.8,55.7v-3.4h12.6v3.4H4.8z"/>
	<path class="st0" d="M11.9,46.7c1.1,0,1.9-0.3,2.4-0.8c0.5-0.5,0.8-1.3,0.8-2.2c0-0.7-0.2-1.3-0.5-1.8c-0.3-0.5-0.7-0.8-1.1-0.9v-3
		c1.5,0.5,2.6,1.2,3.2,2.2c0.7,1,1,2.2,1,3.6c0,1-0.2,1.9-0.5,2.7c-0.3,0.8-0.8,1.5-1.4,2c-0.6,0.6-1.3,1-2.1,1.3
		c-0.8,0.3-1.7,0.4-2.7,0.4c-0.9,0-1.8-0.2-2.6-0.5s-1.5-0.7-2.1-1.3c-0.6-0.6-1.1-1.2-1.4-2c-0.3-0.8-0.5-1.7-0.5-2.6
		c0-1.1,0.2-2,0.6-2.8c0.4-0.8,1-1.4,1.7-2s1.5-0.9,2.4-1.1c0.9-0.2,1.8-0.3,2.8-0.2V46.7z M9.7,41c-0.9,0.2-1.5,0.4-2,0.9
		S7,42.9,7,43.8c0,0.5,0.1,1,0.3,1.4C7.5,45.5,7.7,45.8,8,46s0.6,0.4,0.9,0.5c0.3,0.1,0.6,0.1,0.8,0.2V41z"/>
	<path class="st0" d="M4.8,35.6v-3.3h1.7v-0.1c-0.7-0.4-1.2-1-1.6-1.7c-0.3-0.7-0.5-1.4-0.5-2.1c0-0.9,0.1-1.7,0.4-2.3
		c0.3-0.6,0.6-1.1,1-1.4s1-0.6,1.6-0.7c0.6-0.1,1.3-0.2,2.1-0.2h7.7v3.4h-7.1c-1,0-1.8,0.2-2.3,0.5s-0.8,0.9-0.8,1.7
		c0,0.9,0.3,1.6,0.8,2s1.5,0.6,2.8,0.6h6.6v3.4H4.8z"/>
	<path class="st0" d="M4.8,16.8v-2.5h2.3v2.5h6.2c0.6,0,1-0.1,1.2-0.3s0.3-0.6,0.3-1.2c0-0.4,0-0.7-0.1-1.1h2.7c0,0.3,0.1,0.6,0.1,1
		c0,0.4,0,0.7,0,1c0,0.5,0,1-0.1,1.5c-0.1,0.5-0.2,0.9-0.4,1.3c-0.2,0.4-0.5,0.7-0.9,0.9c-0.4,0.2-0.9,0.3-1.5,0.3H7.1v2.1H4.8v-2.1
		H1v-3.4H4.8z"/>
	<path class="st0" d="M11.1,13c-1,0-1.9-0.2-2.7-0.5c-0.8-0.3-1.5-0.7-2.1-1.3c-0.6-0.6-1-1.2-1.3-2C4.6,8.4,4.4,7.5,4.4,6.5
		s0.2-1.9,0.5-2.7C5.2,3,5.7,2.3,6.3,1.8c0.6-0.6,1.3-1,2.1-1.3S10.1,0,11.1,0s1.9,0.2,2.7,0.5s1.5,0.7,2.1,1.3
		c0.6,0.6,1,1.3,1.3,2.1c0.3,0.8,0.5,1.7,0.5,2.7s-0.2,1.9-0.5,2.7c-0.3,0.8-0.8,1.5-1.3,2c-0.6,0.6-1.3,1-2.1,1.3
		C13,12.8,12.1,13,11.1,13z M11.1,9.5c0.5,0,1,0,1.5-0.1c0.5-0.1,0.9-0.3,1.3-0.5c0.4-0.2,0.7-0.5,0.9-0.9s0.3-0.9,0.3-1.5
		S15,5.4,14.7,5c-0.2-0.4-0.5-0.7-0.9-0.9c-0.4-0.2-0.8-0.4-1.3-0.5c-0.5-0.1-1-0.1-1.5-0.1s-1,0-1.5,0.1C9.1,3.7,8.7,3.9,8.3,4.1
		C7.9,4.3,7.6,4.6,7.4,5C7.2,5.4,7,5.9,7,6.5S7.2,7.6,7.4,8s0.5,0.7,0.9,0.9c0.4,0.2,0.8,0.4,1.3,0.5C10.1,9.5,10.6,9.5,11.1,9.5z"
		/>
</g>
</svg>
