<!-- Generator: Adobe Illustrator 20.1.0, SVG Export Plug-In  -->
<svg version="1.1"
	 xmlns="http://www.w3.org/2000/svg" xmlns:xlink="http://www.w3.org/1999/xlink" xmlns:a="http://ns.adobe.com/AdobeSVGViewerExtensions/3.0/"
	 x="0px" y="0px" width="441.7px" height="14.2px" viewBox="0 0 441.7 14.2"
	 style="overflow:scroll;enable-background:new 0 0 441.7 14.2;" xml:space="preserve">
<style type="text/css">
	.st0{fill:#038342;}
	.st1{fill:url(#XMLID_6_);}
	.st2{fill:url(#XMLID_7_);}
	.st3{fill:url(#XMLID_8_);}
	.st4{fill:url(#XMLID_9_);}
</style>
<defs>
</defs>
<g>
	<g>
		<path class="st0" d="M23,0.7h2.4l4,10.7H27l-0.8-2.4h-4l-0.8,2.4h-2.4L23,0.7z M22.8,7.3h2.8l-1.4-3.9h0L22.8,7.3z"/>
		<path class="st0" d="M36.8,6.4c-0.1-0.9-0.7-1.3-1.6-1.3c-0.3,0-0.6,0.1-0.9,0.2s-0.4,0.4-0.6,0.6c-0.1,0.2-0.2,0.5-0.3,0.8
			s-0.1,0.6-0.1,0.9c0,0.3,0,0.6,0.1,0.9s0.2,0.6,0.3,0.8c0.1,0.2,0.3,0.4,0.5,0.6s0.5,0.2,0.8,0.2c0.5,0,0.9-0.1,1.2-0.4
			c0.3-0.3,0.5-0.7,0.5-1.2h2.1c-0.1,1-0.5,1.8-1.2,2.4c-0.7,0.5-1.5,0.8-2.5,0.8c-0.6,0-1.1-0.1-1.6-0.3c-0.5-0.2-0.9-0.5-1.2-0.8
			c-0.3-0.4-0.6-0.8-0.8-1.3s-0.3-1-0.3-1.6c0-0.6,0.1-1.2,0.3-1.7c0.2-0.5,0.4-1,0.8-1.3C32.6,4.3,33,4,33.5,3.8
			c0.5-0.2,1.1-0.3,1.7-0.3c0.5,0,0.9,0.1,1.3,0.2c0.4,0.1,0.8,0.3,1.1,0.5c0.3,0.2,0.6,0.6,0.8,0.9c0.2,0.4,0.3,0.8,0.4,1.3H36.8z"
			/>
		<path class="st0" d="M46.7,6.4c-0.1-0.9-0.7-1.3-1.6-1.3c-0.3,0-0.6,0.1-0.9,0.2s-0.4,0.4-0.6,0.6c-0.1,0.2-0.2,0.5-0.3,0.8
			s-0.1,0.6-0.1,0.9c0,0.3,0,0.6,0.1,0.9s0.2,0.6,0.3,0.8c0.1,0.2,0.3,0.4,0.5,0.6s0.5,0.2,0.8,0.2c0.5,0,0.9-0.1,1.2-0.4
			c0.3-0.3,0.5-0.7,0.5-1.2h2.1c-0.1,1-0.5,1.8-1.2,2.4c-0.7,0.5-1.5,0.8-2.5,0.8c-0.6,0-1.1-0.1-1.6-0.3c-0.5-0.2-0.9-0.5-1.2-0.8
			s-0.6-0.8-0.8-1.3s-0.3-1-0.3-1.6c0-0.6,0.1-1.2,0.3-1.7c0.2-0.5,0.4-1,0.8-1.3C42.6,4.3,43,4,43.5,3.8c0.5-0.2,1.1-0.3,1.7-0.3
			c0.5,0,0.9,0.1,1.3,0.2c0.4,0.1,0.8,0.3,1.1,0.5c0.3,0.2,0.6,0.6,0.8,0.9c0.2,0.4,0.3,0.8,0.4,1.3H46.7z"/>
		<path class="st0" d="M53.6,2.5h-2.1V0.7h2.1V2.5z M51.5,3.7h2.1v7.8h-2.1V3.7z"/>
		<path class="st0" d="M56.4,7.6c0-0.6,0.1-1.2,0.3-1.7s0.5-0.9,0.8-1.3c0.4-0.4,0.8-0.6,1.3-0.8c0.5-0.2,1-0.3,1.7-0.3
			c0.6,0,1.2,0.1,1.7,0.3C62.5,4,63,4.2,63.3,4.6c0.4,0.4,0.6,0.8,0.8,1.3c0.2,0.5,0.3,1.1,0.3,1.7s-0.1,1.2-0.3,1.7
			c-0.2,0.5-0.5,0.9-0.8,1.3s-0.8,0.6-1.3,0.8c-0.5,0.2-1,0.3-1.7,0.3c-0.6,0-1.2-0.1-1.7-0.3c-0.5-0.2-0.9-0.5-1.3-0.8
			c-0.4-0.4-0.6-0.8-0.8-1.3S56.4,8.2,56.4,7.6z M58.5,7.6c0,0.3,0,0.6,0.1,0.9s0.2,0.6,0.3,0.8c0.1,0.2,0.3,0.4,0.6,0.6
			s0.5,0.2,0.9,0.2c0.4,0,0.7-0.1,0.9-0.2c0.2-0.1,0.4-0.3,0.6-0.6s0.2-0.5,0.3-0.8c0.1-0.3,0.1-0.6,0.1-0.9s0-0.6-0.1-0.9
			c-0.1-0.3-0.2-0.6-0.3-0.8s-0.3-0.4-0.6-0.6c-0.2-0.1-0.5-0.2-0.9-0.2c-0.4,0-0.7,0.1-0.9,0.2S59,5.6,58.9,5.9
			c-0.1,0.2-0.2,0.5-0.3,0.8S58.5,7.3,58.5,7.6z M60.7,2.7h-1.5l1.4-2.1h2.4L60.7,2.7z"/>
		<path class="st0" d="M67.1,3.7h2v1.1h0c0.3-0.4,0.6-0.8,1.1-1c0.4-0.2,0.9-0.3,1.3-0.3c0.6,0,1,0.1,1.4,0.2
			c0.4,0.2,0.7,0.4,0.9,0.6c0.2,0.3,0.4,0.6,0.4,1c0.1,0.4,0.1,0.8,0.1,1.3v4.8h-2.1V7.1c0-0.6-0.1-1.1-0.3-1.4
			c-0.2-0.3-0.6-0.5-1.1-0.5c-0.6,0-1,0.2-1.3,0.5s-0.4,0.9-0.4,1.7v4.1h-2.1V3.7z"/>
		<path class="st0" d="M88.4,10.5L88.4,10.5c-0.3,0.4-0.6,0.7-1,0.9s-0.9,0.3-1.4,0.3c-0.6,0-1.1-0.1-1.5-0.3
			c-0.4-0.2-0.8-0.5-1.1-0.9c-0.3-0.4-0.5-0.8-0.6-1.3c-0.1-0.5-0.2-1-0.2-1.6c0-0.5,0.1-1,0.2-1.5c0.1-0.5,0.4-0.9,0.6-1.3
			c0.3-0.4,0.6-0.7,1.1-0.9c0.4-0.2,0.9-0.3,1.5-0.3c0.5,0,0.9,0.1,1.3,0.3s0.7,0.5,1,0.9h0V0.7h2.1v10.7h-2V10.5z M88.4,7.6
			c0-0.3,0-0.6-0.1-0.9c-0.1-0.3-0.2-0.6-0.3-0.8s-0.3-0.4-0.6-0.5c-0.2-0.1-0.5-0.2-0.9-0.2c-0.4,0-0.6,0.1-0.9,0.2
			c-0.2,0.1-0.4,0.3-0.6,0.6c-0.1,0.2-0.3,0.5-0.3,0.8s-0.1,0.6-0.1,0.9c0,0.3,0,0.6,0.1,0.9S85,9,85.1,9.3c0.2,0.2,0.4,0.4,0.6,0.6
			c0.2,0.1,0.5,0.2,0.8,0.2c0.4,0,0.6-0.1,0.9-0.2s0.4-0.3,0.6-0.6s0.2-0.5,0.3-0.8C88.4,8.2,88.4,7.9,88.4,7.6z"/>
		<path class="st0" d="M100.7,11.5h-2v-1.1h0c-0.3,0.4-0.6,0.8-1.1,1c-0.4,0.2-0.9,0.3-1.3,0.3c-0.6,0-1-0.1-1.4-0.2
			s-0.7-0.4-0.9-0.6c-0.2-0.3-0.4-0.6-0.4-1s-0.1-0.8-0.1-1.3V3.7h2.1v4.4c0,0.6,0.1,1.1,0.3,1.4c0.2,0.3,0.6,0.5,1.1,0.5
			c0.6,0,1-0.2,1.3-0.5c0.3-0.3,0.4-0.9,0.4-1.7V3.7h2.1V11.5z"/>
		<path class="st0" d="M103.6,6.1c0-0.5,0.2-0.9,0.4-1.2c0.2-0.3,0.5-0.6,0.8-0.8c0.3-0.2,0.7-0.3,1.1-0.4c0.4-0.1,0.9-0.1,1.3-0.1
			c0.4,0,0.8,0,1.2,0.1c0.4,0.1,0.8,0.2,1.1,0.3c0.3,0.2,0.6,0.4,0.8,0.7c0.2,0.3,0.3,0.7,0.3,1.1v4c0,0.4,0,0.7,0.1,1
			c0,0.3,0.1,0.6,0.2,0.7h-2.2c0-0.1-0.1-0.2-0.1-0.4c0-0.1,0-0.3-0.1-0.4c-0.3,0.4-0.7,0.6-1.2,0.7c-0.5,0.1-0.9,0.2-1.4,0.2
			c-0.4,0-0.7,0-1-0.1c-0.3-0.1-0.6-0.2-0.8-0.4c-0.2-0.2-0.4-0.4-0.6-0.7c-0.1-0.3-0.2-0.6-0.2-1c0-0.4,0.1-0.8,0.2-1.1
			c0.2-0.3,0.4-0.5,0.6-0.7c0.3-0.2,0.5-0.3,0.8-0.4s0.6-0.2,1-0.2c0.3,0,0.6-0.1,0.9-0.1s0.6-0.1,0.8-0.1c0.2-0.1,0.4-0.1,0.6-0.3
			s0.2-0.3,0.2-0.5c0-0.2,0-0.4-0.1-0.5c-0.1-0.1-0.2-0.2-0.3-0.3s-0.3-0.1-0.4-0.2c-0.2,0-0.3,0-0.5,0c-0.4,0-0.7,0.1-1,0.3
			c-0.2,0.2-0.4,0.5-0.4,0.9H103.6z M108.5,7.7c-0.1,0.1-0.2,0.1-0.3,0.2c-0.1,0-0.3,0.1-0.4,0.1c-0.2,0-0.3,0.1-0.5,0.1
			c-0.2,0-0.3,0-0.5,0.1c-0.2,0-0.3,0.1-0.5,0.1c-0.2,0-0.3,0.1-0.4,0.2c-0.1,0.1-0.2,0.2-0.3,0.3c-0.1,0.1-0.1,0.3-0.1,0.5
			c0,0.2,0,0.4,0.1,0.5c0.1,0.1,0.2,0.2,0.3,0.3c0.1,0.1,0.3,0.1,0.4,0.2s0.3,0,0.5,0c0.4,0,0.7-0.1,1-0.2s0.4-0.3,0.5-0.5
			s0.2-0.4,0.2-0.6s0-0.4,0-0.5V7.7z"/>
		<path class="st0" d="M113.7,0.7h2.1v10.7h-2.1V0.7z"/>
		<path class="st0" d="M124.4,3.7h2v1h0c0.3-0.4,0.6-0.7,1-0.9c0.4-0.2,0.8-0.3,1.3-0.3c0.6,0,1.1,0.1,1.6,0.3
			c0.4,0.2,0.8,0.5,1.1,0.9s0.5,0.8,0.6,1.3s0.2,1,0.2,1.6c0,0.5-0.1,1-0.2,1.5s-0.4,0.9-0.6,1.3c-0.3,0.4-0.6,0.7-1.1,0.9
			s-0.9,0.3-1.5,0.3c-0.5,0-0.9-0.1-1.3-0.3c-0.4-0.2-0.7-0.5-1-0.9h0v3.7h-2.1V3.7z M128.3,10.1c0.4,0,0.6-0.1,0.9-0.2
			s0.4-0.3,0.6-0.5s0.2-0.5,0.3-0.8c0.1-0.3,0.1-0.6,0.1-0.9c0-0.3,0-0.6-0.1-0.9c-0.1-0.3-0.2-0.6-0.3-0.8s-0.3-0.4-0.6-0.6
			s-0.5-0.2-0.9-0.2c-0.4,0-0.6,0.1-0.9,0.2s-0.4,0.3-0.6,0.6c-0.1,0.2-0.2,0.5-0.3,0.8c-0.1,0.3-0.1,0.6-0.1,0.9
			c0,0.3,0,0.6,0.1,0.9s0.2,0.6,0.3,0.8s0.3,0.4,0.6,0.5S127.9,10.1,128.3,10.1z"/>
		<path class="st0" d="M134.8,6.1c0-0.5,0.2-0.9,0.4-1.2c0.2-0.3,0.5-0.6,0.8-0.8c0.3-0.2,0.7-0.3,1.1-0.4c0.4-0.1,0.9-0.1,1.3-0.1
			c0.4,0,0.8,0,1.2,0.1c0.4,0.1,0.8,0.2,1.1,0.3c0.3,0.2,0.6,0.4,0.8,0.7c0.2,0.3,0.3,0.7,0.3,1.1v4c0,0.4,0,0.7,0.1,1
			c0,0.3,0.1,0.6,0.2,0.7H140c0-0.1-0.1-0.2-0.1-0.4c0-0.1,0-0.3-0.1-0.4c-0.3,0.4-0.7,0.6-1.2,0.7c-0.5,0.1-0.9,0.2-1.4,0.2
			c-0.4,0-0.7,0-1-0.1c-0.3-0.1-0.6-0.2-0.8-0.4c-0.2-0.2-0.4-0.4-0.6-0.7c-0.1-0.3-0.2-0.6-0.2-1c0-0.4,0.1-0.8,0.2-1.1
			c0.2-0.3,0.4-0.5,0.6-0.7c0.3-0.2,0.5-0.3,0.8-0.4s0.6-0.2,1-0.2c0.3,0,0.6-0.1,0.9-0.1s0.6-0.1,0.8-0.1c0.2-0.1,0.4-0.1,0.6-0.3
			s0.2-0.3,0.2-0.5c0-0.2,0-0.4-0.1-0.5c-0.1-0.1-0.2-0.2-0.3-0.3S139,5,138.9,4.9c-0.2,0-0.3,0-0.5,0c-0.4,0-0.7,0.1-1,0.3
			c-0.2,0.2-0.4,0.5-0.4,0.9H134.8z M139.7,7.7c-0.1,0.1-0.2,0.1-0.3,0.2c-0.1,0-0.3,0.1-0.4,0.1c-0.2,0-0.3,0.1-0.5,0.1
			c-0.2,0-0.3,0-0.5,0.1c-0.2,0-0.3,0.1-0.5,0.1c-0.2,0-0.3,0.1-0.4,0.2c-0.1,0.1-0.2,0.2-0.3,0.3c-0.1,0.1-0.1,0.3-0.1,0.5
			c0,0.2,0,0.4,0.1,0.5c0.1,0.1,0.2,0.2,0.3,0.3c0.1,0.1,0.3,0.1,0.4,0.2s0.3,0,0.5,0c0.4,0,0.7-0.1,1-0.2s0.4-0.3,0.5-0.5
			s0.2-0.4,0.2-0.6s0-0.4,0-0.5V7.7z"/>
		<path class="st0" d="M144.9,3.7h2v1.4h0c0.1-0.2,0.2-0.5,0.4-0.7c0.2-0.2,0.4-0.4,0.6-0.5c0.2-0.1,0.5-0.3,0.7-0.3
			s0.5-0.1,0.8-0.1c0.2,0,0.3,0,0.5,0.1v2c-0.1,0-0.2,0-0.4-0.1c-0.1,0-0.3,0-0.4,0c-0.4,0-0.7,0.1-1,0.2c-0.3,0.1-0.5,0.3-0.7,0.5
			c-0.2,0.2-0.3,0.5-0.4,0.8C147,7.3,147,7.6,147,8v3.5h-2.1V3.7z"/>
		<path class="st0" d="M152,6.1c0-0.5,0.2-0.9,0.4-1.2c0.2-0.3,0.5-0.6,0.8-0.8c0.3-0.2,0.7-0.3,1.1-0.4c0.4-0.1,0.9-0.1,1.3-0.1
			c0.4,0,0.8,0,1.2,0.1c0.4,0.1,0.8,0.2,1.1,0.3c0.3,0.2,0.6,0.4,0.8,0.7c0.2,0.3,0.3,0.7,0.3,1.1v4c0,0.4,0,0.7,0.1,1
			c0,0.3,0.1,0.6,0.2,0.7h-2.2c0-0.1-0.1-0.2-0.1-0.4c0-0.1,0-0.3-0.1-0.4c-0.3,0.4-0.7,0.6-1.2,0.7c-0.5,0.1-0.9,0.2-1.4,0.2
			c-0.4,0-0.7,0-1-0.1c-0.3-0.1-0.6-0.2-0.8-0.4c-0.2-0.2-0.4-0.4-0.6-0.7c-0.1-0.3-0.2-0.6-0.2-1c0-0.4,0.1-0.8,0.2-1.1
			c0.2-0.3,0.4-0.5,0.6-0.7c0.3-0.2,0.5-0.3,0.8-0.4s0.6-0.2,1-0.2c0.3,0,0.6-0.1,0.9-0.1s0.6-0.1,0.8-0.1c0.2-0.1,0.4-0.1,0.6-0.3
			s0.2-0.3,0.2-0.5c0-0.2,0-0.4-0.1-0.5c-0.1-0.1-0.2-0.2-0.3-0.3S156.2,5,156,4.9c-0.2,0-0.3,0-0.5,0c-0.4,0-0.7,0.1-1,0.3
			c-0.2,0.2-0.4,0.5-0.4,0.9H152z M156.9,7.7c-0.1,0.1-0.2,0.1-0.3,0.2c-0.1,0-0.3,0.1-0.4,0.1C156,8,155.8,8,155.6,8
			c-0.2,0-0.3,0-0.5,0.1c-0.2,0-0.3,0.1-0.5,0.1c-0.2,0-0.3,0.1-0.4,0.2c-0.1,0.1-0.2,0.2-0.3,0.3c-0.1,0.1-0.1,0.3-0.1,0.5
			c0,0.2,0,0.4,0.1,0.5c0.1,0.1,0.2,0.2,0.3,0.3c0.1,0.1,0.3,0.1,0.4,0.2s0.3,0,0.5,0c0.4,0,0.7-0.1,1-0.2s0.4-0.3,0.5-0.5
			s0.2-0.4,0.2-0.6s0-0.4,0-0.5V7.7z"/>
		<path class="st0" d="M172.8,6.4c-0.1-0.9-0.7-1.3-1.6-1.3c-0.3,0-0.6,0.1-0.9,0.2s-0.4,0.4-0.6,0.6c-0.1,0.2-0.2,0.5-0.3,0.8
			s-0.1,0.6-0.1,0.9c0,0.3,0,0.6,0.1,0.9s0.2,0.6,0.3,0.8c0.1,0.2,0.3,0.4,0.5,0.6s0.5,0.2,0.8,0.2c0.5,0,0.9-0.1,1.2-0.4
			c0.3-0.3,0.5-0.7,0.5-1.2h2.1c-0.1,1-0.5,1.8-1.2,2.4c-0.7,0.5-1.5,0.8-2.5,0.8c-0.6,0-1.1-0.1-1.6-0.3c-0.5-0.2-0.9-0.5-1.2-0.8
			s-0.6-0.8-0.8-1.3s-0.3-1-0.3-1.6c0-0.6,0.1-1.2,0.3-1.7c0.2-0.5,0.4-1,0.8-1.3c0.3-0.4,0.8-0.7,1.2-0.9c0.5-0.2,1.1-0.3,1.7-0.3
			c0.5,0,0.9,0.1,1.3,0.2c0.4,0.1,0.8,0.3,1.1,0.5c0.3,0.2,0.6,0.6,0.8,0.9c0.2,0.4,0.3,0.8,0.4,1.3H172.8z"/>
		<path class="st0" d="M177.3,7.6c0-0.6,0.1-1.2,0.3-1.7s0.5-0.9,0.8-1.3c0.4-0.4,0.8-0.6,1.3-0.8c0.5-0.2,1-0.3,1.7-0.3
			c0.6,0,1.2,0.1,1.7,0.3c0.5,0.2,0.9,0.5,1.3,0.8c0.4,0.4,0.6,0.8,0.8,1.3s0.3,1.1,0.3,1.7s-0.1,1.2-0.3,1.7s-0.5,0.9-0.8,1.3
			s-0.8,0.6-1.3,0.8c-0.5,0.2-1,0.3-1.7,0.3c-0.6,0-1.2-0.1-1.7-0.3c-0.5-0.2-0.9-0.5-1.3-0.8c-0.4-0.4-0.6-0.8-0.8-1.3
			S177.3,8.2,177.3,7.6z M179.4,7.6c0,0.3,0,0.6,0.1,0.9s0.2,0.6,0.3,0.8c0.1,0.2,0.3,0.4,0.6,0.6s0.5,0.2,0.9,0.2
			c0.4,0,0.7-0.1,0.9-0.2c0.2-0.1,0.4-0.3,0.6-0.6s0.2-0.5,0.3-0.8c0.1-0.3,0.1-0.6,0.1-0.9s0-0.6-0.1-0.9c-0.1-0.3-0.2-0.6-0.3-0.8
			s-0.3-0.4-0.6-0.6c-0.2-0.1-0.5-0.2-0.9-0.2c-0.4,0-0.7,0.1-0.9,0.2s-0.4,0.3-0.6,0.6c-0.1,0.2-0.2,0.5-0.3,0.8
			S179.4,7.3,179.4,7.6z"/>
		<path class="st0" d="M188.1,3.7h2v1.1h0c0.3-0.4,0.6-0.7,1-0.9c0.4-0.2,0.8-0.3,1.4-0.3c0.5,0,0.9,0.1,1.3,0.3
			c0.4,0.2,0.7,0.5,0.9,1c0.2-0.3,0.5-0.6,0.9-0.9c0.4-0.3,0.9-0.4,1.4-0.4c0.4,0,0.8,0,1.1,0.2c0.4,0.1,0.7,0.3,0.9,0.5
			c0.3,0.2,0.4,0.5,0.6,0.9c0.1,0.4,0.2,0.8,0.2,1.3v5.2h-2.1V7.1c0-0.3,0-0.5,0-0.7s-0.1-0.4-0.2-0.6c-0.1-0.2-0.2-0.3-0.4-0.4
			c-0.2-0.1-0.4-0.2-0.7-0.2s-0.5,0.1-0.7,0.2s-0.3,0.3-0.4,0.5c-0.1,0.2-0.2,0.4-0.2,0.6s-0.1,0.5-0.1,0.7v4.3h-2.1V7.1
			c0-0.2,0-0.4,0-0.7c0-0.2-0.1-0.4-0.1-0.6s-0.2-0.3-0.4-0.5c-0.2-0.1-0.4-0.2-0.8-0.2c-0.1,0-0.2,0-0.4,0.1
			c-0.2,0-0.3,0.1-0.5,0.3c-0.2,0.1-0.3,0.3-0.4,0.5s-0.2,0.5-0.2,0.9v4.5h-2.1V3.7z"/>
		<path class="st0" d="M203,0.7h2.1v3.9h0c0.3-0.4,0.6-0.7,1.1-0.9c0.4-0.2,0.9-0.3,1.4-0.3c0.4,0,0.8,0.1,1.2,0.2s0.7,0.4,1,0.7
			c0.3,0.3,0.6,0.8,0.7,1.3c0.2,0.5,0.3,1.1,0.3,1.8c0,0.7-0.1,1.3-0.3,1.8c-0.2,0.5-0.4,0.9-0.7,1.3c-0.3,0.3-0.6,0.6-1,0.7
			s-0.8,0.2-1.2,0.2c-0.6,0-1.1-0.1-1.5-0.3c-0.5-0.2-0.8-0.5-1-0.9h0v1h-2V0.7z M208.7,7.6c0-0.3,0-0.6-0.1-0.9s-0.2-0.6-0.3-0.8
			c-0.1-0.2-0.3-0.4-0.6-0.5c-0.2-0.1-0.5-0.2-0.8-0.2c-0.3,0-0.6,0.1-0.8,0.2c-0.2,0.1-0.4,0.3-0.6,0.5s-0.3,0.5-0.3,0.8
			c-0.1,0.3-0.1,0.6-0.1,0.9c0,0.3,0,0.6,0.1,0.9c0.1,0.3,0.2,0.6,0.3,0.8s0.3,0.4,0.6,0.5c0.2,0.1,0.5,0.2,0.8,0.2
			c0.3,0,0.6-0.1,0.8-0.2c0.2-0.1,0.4-0.3,0.6-0.5c0.2-0.2,0.3-0.5,0.3-0.8S208.7,7.9,208.7,7.6z"/>
		<path class="st0" d="M213.4,6.1c0-0.5,0.2-0.9,0.4-1.2c0.2-0.3,0.5-0.6,0.8-0.8c0.3-0.2,0.7-0.3,1.1-0.4c0.4-0.1,0.9-0.1,1.3-0.1
			c0.4,0,0.8,0,1.2,0.1c0.4,0.1,0.8,0.2,1.1,0.3c0.3,0.2,0.6,0.4,0.8,0.7c0.2,0.3,0.3,0.7,0.3,1.1v4c0,0.4,0,0.7,0.1,1
			c0,0.3,0.1,0.6,0.2,0.7h-2.2c0-0.1-0.1-0.2-0.1-0.4c0-0.1,0-0.3-0.1-0.4c-0.3,0.4-0.7,0.6-1.2,0.7c-0.5,0.1-0.9,0.2-1.4,0.2
			c-0.4,0-0.7,0-1-0.1c-0.3-0.1-0.6-0.2-0.8-0.4c-0.2-0.2-0.4-0.4-0.6-0.7c-0.1-0.3-0.2-0.6-0.2-1c0-0.4,0.1-0.8,0.2-1.1
			c0.2-0.3,0.4-0.5,0.6-0.7c0.3-0.2,0.5-0.3,0.8-0.4s0.6-0.2,1-0.2c0.3,0,0.6-0.1,0.9-0.1s0.6-0.1,0.8-0.1c0.2-0.1,0.4-0.1,0.6-0.3
			s0.2-0.3,0.2-0.5c0-0.2,0-0.4-0.1-0.5c-0.1-0.1-0.2-0.2-0.3-0.3s-0.3-0.1-0.4-0.2c-0.2,0-0.3,0-0.5,0c-0.4,0-0.7,0.1-1,0.3
			c-0.2,0.2-0.4,0.5-0.4,0.9H213.4z M218.3,7.7c-0.1,0.1-0.2,0.1-0.3,0.2c-0.1,0-0.3,0.1-0.4,0.1c-0.2,0-0.3,0.1-0.5,0.1
			c-0.2,0-0.3,0-0.5,0.1c-0.2,0-0.3,0.1-0.5,0.1c-0.2,0-0.3,0.1-0.4,0.2c-0.1,0.1-0.2,0.2-0.3,0.3c-0.1,0.1-0.1,0.3-0.1,0.5
			c0,0.2,0,0.4,0.1,0.5c0.1,0.1,0.2,0.2,0.3,0.3c0.1,0.1,0.3,0.1,0.4,0.2s0.3,0,0.5,0c0.4,0,0.7-0.1,1-0.2s0.4-0.3,0.5-0.5
			s0.2-0.4,0.2-0.6s0-0.4,0-0.5V7.7z"/>
		<path class="st0" d="M226.2,3.7h1.6v1.4h-1.6V9c0,0.4,0.1,0.6,0.2,0.7c0.1,0.1,0.4,0.2,0.7,0.2c0.2,0,0.5,0,0.7-0.1v1.7
			c-0.2,0-0.4,0.1-0.6,0.1c-0.2,0-0.4,0-0.6,0c-0.3,0-0.6,0-0.9-0.1s-0.6-0.1-0.8-0.3s-0.4-0.3-0.5-0.6s-0.2-0.6-0.2-0.9V5.1h-1.3
			V3.7h1.3V1.4h2.1V3.7z"/>
		<path class="st0" d="M232.3,2.5h-2.1V0.7h2.1V2.5z M230.1,3.7h2.1v7.8h-2.1V3.7z"/>
		<path class="st0" d="M235.3,3.7h2v1.4h0c0.1-0.2,0.2-0.5,0.4-0.7c0.2-0.2,0.4-0.4,0.6-0.5c0.2-0.1,0.5-0.3,0.7-0.3
			s0.5-0.1,0.8-0.1c0.2,0,0.3,0,0.5,0.1v2c-0.1,0-0.2,0-0.4-0.1c-0.1,0-0.3,0-0.4,0c-0.4,0-0.7,0.1-1,0.2c-0.3,0.1-0.5,0.3-0.7,0.5
			c-0.2,0.2-0.3,0.5-0.4,0.8c-0.1,0.3-0.1,0.6-0.1,1v3.5h-2.1V3.7z"/>
		<path class="st0" d="M248.1,0.7h2.1v10.7h-2.1V0.7z"/>
		<path class="st0" d="M253,7.6c0-0.6,0.1-1.2,0.3-1.7s0.5-0.9,0.8-1.3c0.4-0.4,0.8-0.6,1.3-0.8c0.5-0.2,1-0.3,1.7-0.3
			c0.6,0,1.2,0.1,1.7,0.3c0.5,0.2,0.9,0.5,1.3,0.8c0.4,0.4,0.6,0.8,0.8,1.3S261,7,261,7.6s-0.1,1.2-0.3,1.7s-0.5,0.9-0.8,1.3
			s-0.8,0.6-1.3,0.8c-0.5,0.2-1,0.3-1.7,0.3c-0.6,0-1.2-0.1-1.7-0.3c-0.5-0.2-0.9-0.5-1.3-0.8c-0.4-0.4-0.6-0.8-0.8-1.3
			S253,8.2,253,7.6z M255.1,7.6c0,0.3,0,0.6,0.1,0.9s0.2,0.6,0.3,0.8c0.1,0.2,0.3,0.4,0.6,0.6c0.2,0.1,0.5,0.2,0.9,0.2
			c0.4,0,0.7-0.1,0.9-0.2c0.2-0.1,0.4-0.3,0.6-0.6s0.2-0.5,0.3-0.8c0.1-0.3,0.1-0.6,0.1-0.9s0-0.6-0.1-0.9c-0.1-0.3-0.2-0.6-0.3-0.8
			s-0.3-0.4-0.6-0.6c-0.2-0.1-0.5-0.2-0.9-0.2c-0.4,0-0.7,0.1-0.9,0.2c-0.2,0.1-0.4,0.3-0.6,0.6c-0.1,0.2-0.2,0.5-0.3,0.8
			S255.1,7.3,255.1,7.6z"/>
		<path class="st0" d="M265.4,8.9c0,0.2,0,0.4,0.1,0.6c0.1,0.2,0.2,0.3,0.4,0.4c0.2,0.1,0.3,0.2,0.5,0.2c0.2,0.1,0.4,0.1,0.6,0.1
			c0.2,0,0.3,0,0.5-0.1c0.2,0,0.3-0.1,0.5-0.2c0.1-0.1,0.2-0.2,0.3-0.3c0.1-0.1,0.1-0.3,0.1-0.5c0-0.2-0.1-0.3-0.2-0.4
			s-0.3-0.2-0.5-0.3c-0.2-0.1-0.5-0.2-0.8-0.2c-0.3-0.1-0.6-0.2-1-0.2c-0.3-0.1-0.6-0.2-0.9-0.2c-0.3-0.1-0.6-0.2-0.8-0.4
			s-0.4-0.4-0.6-0.6c-0.1-0.2-0.2-0.5-0.2-0.9c0-0.5,0.1-0.9,0.3-1.2c0.2-0.3,0.5-0.6,0.8-0.8c0.3-0.2,0.7-0.3,1.1-0.4
			s0.8-0.1,1.2-0.1s0.8,0,1.2,0.1c0.4,0.1,0.7,0.2,1.1,0.4c0.3,0.2,0.6,0.4,0.8,0.8c0.2,0.3,0.3,0.7,0.4,1.2h-2
			c0-0.4-0.2-0.7-0.5-0.8c-0.3-0.1-0.6-0.2-1-0.2c-0.1,0-0.3,0-0.4,0c-0.1,0-0.3,0-0.4,0.1c-0.1,0.1-0.2,0.1-0.3,0.2
			c-0.1,0.1-0.1,0.2-0.1,0.4c0,0.2,0.1,0.3,0.2,0.5s0.3,0.2,0.5,0.3s0.5,0.1,0.8,0.2c0.3,0.1,0.6,0.1,0.9,0.2
			c0.3,0.1,0.6,0.2,0.9,0.3c0.3,0.1,0.6,0.2,0.8,0.4c0.2,0.2,0.4,0.4,0.6,0.6c0.1,0.2,0.2,0.5,0.2,0.9c0,0.5-0.1,0.9-0.3,1.3
			c-0.2,0.3-0.5,0.6-0.8,0.8c-0.3,0.2-0.7,0.4-1.1,0.5s-0.9,0.1-1.3,0.1c-0.5,0-0.9,0-1.3-0.1s-0.8-0.2-1.1-0.5
			c-0.3-0.2-0.6-0.5-0.8-0.8s-0.3-0.8-0.4-1.3H265.4z"/>
		<path class="st0" d="M280.3,8.9c0,0.2,0,0.4,0.1,0.6c0.1,0.2,0.2,0.3,0.4,0.4c0.2,0.1,0.3,0.2,0.5,0.2c0.2,0.1,0.4,0.1,0.6,0.1
			c0.2,0,0.3,0,0.5-0.1c0.2,0,0.3-0.1,0.5-0.2c0.1-0.1,0.2-0.2,0.3-0.3c0.1-0.1,0.1-0.3,0.1-0.5c0-0.2-0.1-0.3-0.2-0.4
			s-0.3-0.2-0.5-0.3c-0.2-0.1-0.5-0.2-0.8-0.2c-0.3-0.1-0.6-0.2-1-0.2c-0.3-0.1-0.6-0.2-0.9-0.2c-0.3-0.1-0.6-0.2-0.8-0.4
			s-0.4-0.4-0.6-0.6c-0.1-0.2-0.2-0.5-0.2-0.9c0-0.5,0.1-0.9,0.3-1.2c0.2-0.3,0.5-0.6,0.8-0.8c0.3-0.2,0.7-0.3,1.1-0.4
			s0.8-0.1,1.2-0.1s0.8,0,1.2,0.1c0.4,0.1,0.7,0.2,1.1,0.4c0.3,0.2,0.6,0.4,0.8,0.8c0.2,0.3,0.3,0.7,0.4,1.2h-2
			c0-0.4-0.2-0.7-0.5-0.8c-0.3-0.1-0.6-0.2-1-0.2c-0.1,0-0.3,0-0.4,0c-0.1,0-0.3,0-0.4,0.1c-0.1,0.1-0.2,0.1-0.3,0.2
			c-0.1,0.1-0.1,0.2-0.1,0.4c0,0.2,0.1,0.3,0.2,0.5s0.3,0.2,0.5,0.3s0.5,0.1,0.8,0.2c0.3,0.1,0.6,0.1,0.9,0.2
			c0.3,0.1,0.6,0.2,0.9,0.3c0.3,0.1,0.6,0.2,0.8,0.4c0.2,0.2,0.4,0.4,0.6,0.6c0.1,0.2,0.2,0.5,0.2,0.9c0,0.5-0.1,0.9-0.3,1.3
			c-0.2,0.3-0.5,0.6-0.8,0.8c-0.3,0.2-0.7,0.4-1.1,0.5s-0.9,0.1-1.3,0.1c-0.5,0-0.9,0-1.3-0.1s-0.8-0.2-1.1-0.5
			c-0.3-0.2-0.6-0.5-0.8-0.8s-0.3-0.8-0.4-1.3H280.3z"/>
		<path class="st0" d="M289.6,2.7h-1.5l1.4-2.1h2.4L289.6,2.7z M288.1,3.7h2.1v7.8h-2.1V3.7z"/>
		<path class="st0" d="M293.3,3.7h2v1.1h0c0.3-0.4,0.6-0.8,1.1-1c0.4-0.2,0.9-0.3,1.3-0.3c0.6,0,1,0.1,1.4,0.2
			c0.4,0.2,0.7,0.4,0.9,0.6c0.2,0.3,0.4,0.6,0.4,1c0.1,0.4,0.1,0.8,0.1,1.3v4.8h-2.1V7.1c0-0.6-0.1-1.1-0.3-1.4
			c-0.2-0.3-0.6-0.5-1.1-0.5c-0.6,0-1,0.2-1.3,0.5s-0.4,0.9-0.4,1.7v4.1h-2.1V3.7z"/>
		<path class="st0" d="M306.2,3.7h1.6v1.4h-1.6V9c0,0.4,0.1,0.6,0.2,0.7c0.1,0.1,0.4,0.2,0.7,0.2c0.2,0,0.5,0,0.7-0.1v1.7
			c-0.2,0-0.4,0.1-0.6,0.1c-0.2,0-0.4,0-0.6,0c-0.3,0-0.6,0-0.9-0.1s-0.6-0.1-0.8-0.3s-0.4-0.3-0.5-0.6s-0.2-0.6-0.2-0.9V5.1h-1.3
			V3.7h1.3V1.4h2.1V3.7z"/>
		<path class="st0" d="M309.9,7.6c0-0.6,0.1-1.2,0.3-1.7s0.5-0.9,0.8-1.3c0.4-0.4,0.8-0.6,1.3-0.8c0.5-0.2,1-0.3,1.7-0.3
			c0.6,0,1.2,0.1,1.7,0.3c0.5,0.2,0.9,0.5,1.3,0.8c0.4,0.4,0.6,0.8,0.8,1.3S318,7,318,7.6s-0.1,1.2-0.3,1.7s-0.5,0.9-0.8,1.3
			s-0.8,0.6-1.3,0.8c-0.5,0.2-1,0.3-1.7,0.3c-0.6,0-1.2-0.1-1.7-0.3c-0.5-0.2-0.9-0.5-1.3-0.8c-0.4-0.4-0.6-0.8-0.8-1.3
			S309.9,8.2,309.9,7.6z M312.1,7.6c0,0.3,0,0.6,0.1,0.9s0.2,0.6,0.3,0.8c0.1,0.2,0.3,0.4,0.6,0.6s0.5,0.2,0.9,0.2
			c0.4,0,0.7-0.1,0.9-0.2c0.2-0.1,0.4-0.3,0.6-0.6s0.2-0.5,0.3-0.8c0.1-0.3,0.1-0.6,0.1-0.9s0-0.6-0.1-0.9c-0.1-0.3-0.2-0.6-0.3-0.8
			s-0.3-0.4-0.6-0.6c-0.2-0.1-0.5-0.2-0.9-0.2c-0.4,0-0.7,0.1-0.9,0.2s-0.4,0.3-0.6,0.6c-0.1,0.2-0.2,0.5-0.3,0.8
			S312.1,7.3,312.1,7.6z"/>
		<path class="st0" d="M320.8,3.7h2v1.1h0c0.3-0.4,0.6-0.7,1-0.9c0.4-0.2,0.8-0.3,1.4-0.3c0.5,0,0.9,0.1,1.3,0.3
			c0.4,0.2,0.7,0.5,0.9,1c0.2-0.3,0.5-0.6,0.9-0.9c0.4-0.3,0.9-0.4,1.4-0.4c0.4,0,0.8,0,1.1,0.2c0.4,0.1,0.7,0.3,0.9,0.5
			c0.3,0.2,0.4,0.5,0.6,0.9c0.1,0.4,0.2,0.8,0.2,1.3v5.2h-2.1V7.1c0-0.3,0-0.5,0-0.7s-0.1-0.4-0.2-0.6c-0.1-0.2-0.2-0.3-0.4-0.4
			c-0.2-0.1-0.4-0.2-0.7-0.2s-0.5,0.1-0.7,0.2s-0.3,0.3-0.4,0.5c-0.1,0.2-0.2,0.4-0.2,0.6s-0.1,0.5-0.1,0.7v4.3h-2.1V7.1
			c0-0.2,0-0.4,0-0.7c0-0.2-0.1-0.4-0.1-0.6s-0.2-0.3-0.4-0.5c-0.2-0.1-0.4-0.2-0.8-0.2c-0.1,0-0.2,0-0.4,0.1
			c-0.2,0-0.3,0.1-0.5,0.3c-0.2,0.1-0.3,0.3-0.4,0.5s-0.2,0.5-0.2,0.9v4.5h-2.1V3.7z"/>
		<path class="st0" d="M335.6,6.1c0-0.5,0.2-0.9,0.4-1.2c0.2-0.3,0.5-0.6,0.8-0.8c0.3-0.2,0.7-0.3,1.1-0.4c0.4-0.1,0.9-0.1,1.3-0.1
			c0.4,0,0.8,0,1.2,0.1c0.4,0.1,0.8,0.2,1.1,0.3c0.3,0.2,0.6,0.4,0.8,0.7c0.2,0.3,0.3,0.7,0.3,1.1v4c0,0.4,0,0.7,0.1,1
			c0,0.3,0.1,0.6,0.2,0.7h-2.2c0-0.1-0.1-0.2-0.1-0.4c0-0.1,0-0.3-0.1-0.4c-0.3,0.4-0.7,0.6-1.2,0.7c-0.5,0.1-0.9,0.2-1.4,0.2
			c-0.4,0-0.7,0-1-0.1c-0.3-0.1-0.6-0.2-0.8-0.4c-0.2-0.2-0.4-0.4-0.6-0.7c-0.1-0.3-0.2-0.6-0.2-1c0-0.4,0.1-0.8,0.2-1.1
			c0.2-0.3,0.4-0.5,0.6-0.7c0.3-0.2,0.5-0.3,0.8-0.4s0.6-0.2,1-0.2c0.3,0,0.6-0.1,0.9-0.1s0.6-0.1,0.8-0.1c0.2-0.1,0.4-0.1,0.6-0.3
			s0.2-0.3,0.2-0.5c0-0.2,0-0.4-0.1-0.5c-0.1-0.1-0.2-0.2-0.3-0.3s-0.3-0.1-0.4-0.2c-0.2,0-0.3,0-0.5,0c-0.4,0-0.7,0.1-1,0.3
			c-0.2,0.2-0.4,0.5-0.4,0.9H335.6z M340.5,7.7c-0.1,0.1-0.2,0.1-0.3,0.2c-0.1,0-0.3,0.1-0.4,0.1c-0.2,0-0.3,0.1-0.5,0.1
			c-0.2,0-0.3,0-0.5,0.1c-0.2,0-0.3,0.1-0.5,0.1c-0.2,0-0.3,0.1-0.4,0.2c-0.1,0.1-0.2,0.2-0.3,0.3c-0.1,0.1-0.1,0.3-0.1,0.5
			c0,0.2,0,0.4,0.1,0.5c0.1,0.1,0.2,0.2,0.3,0.3c0.1,0.1,0.3,0.1,0.4,0.2s0.3,0,0.5,0c0.4,0,0.7-0.1,1-0.2s0.4-0.3,0.5-0.5
			s0.2-0.4,0.2-0.6s0-0.4,0-0.5V7.7z"/>
		<path class="st0" d="M347.3,8.9c0,0.2,0,0.4,0.1,0.6c0.1,0.2,0.2,0.3,0.4,0.4c0.2,0.1,0.3,0.2,0.5,0.2c0.2,0.1,0.4,0.1,0.6,0.1
			c0.2,0,0.3,0,0.5-0.1c0.2,0,0.3-0.1,0.5-0.2c0.1-0.1,0.2-0.2,0.3-0.3c0.1-0.1,0.1-0.3,0.1-0.5c0-0.2-0.1-0.3-0.2-0.4
			s-0.3-0.2-0.5-0.3c-0.2-0.1-0.5-0.2-0.8-0.2c-0.3-0.1-0.6-0.2-1-0.2c-0.3-0.1-0.6-0.2-0.9-0.2c-0.3-0.1-0.6-0.2-0.8-0.4
			s-0.4-0.4-0.6-0.6c-0.1-0.2-0.2-0.5-0.2-0.9c0-0.5,0.1-0.9,0.3-1.2c0.2-0.3,0.5-0.6,0.8-0.8c0.3-0.2,0.7-0.3,1.1-0.4
			s0.8-0.1,1.2-0.1s0.8,0,1.2,0.1c0.4,0.1,0.7,0.2,1.1,0.4c0.3,0.2,0.6,0.4,0.8,0.8c0.2,0.3,0.3,0.7,0.4,1.2h-2
			c0-0.4-0.2-0.7-0.5-0.8c-0.3-0.1-0.6-0.2-1-0.2c-0.1,0-0.3,0-0.4,0c-0.1,0-0.3,0-0.4,0.1c-0.1,0.1-0.2,0.1-0.3,0.2
			c-0.1,0.1-0.1,0.2-0.1,0.4c0,0.2,0.1,0.3,0.2,0.5s0.3,0.2,0.5,0.3s0.5,0.1,0.8,0.2c0.3,0.1,0.6,0.1,0.9,0.2
			c0.3,0.1,0.6,0.2,0.9,0.3c0.3,0.1,0.6,0.2,0.8,0.4c0.2,0.2,0.4,0.4,0.6,0.6c0.1,0.2,0.2,0.5,0.2,0.9c0,0.5-0.1,0.9-0.3,1.3
			c-0.2,0.3-0.5,0.6-0.8,0.8c-0.3,0.2-0.7,0.4-1.1,0.5s-0.9,0.1-1.3,0.1c-0.5,0-0.9,0-1.3-0.1s-0.8-0.2-1.1-0.5
			c-0.3-0.2-0.6-0.5-0.8-0.8s-0.3-0.8-0.4-1.3H347.3z"/>
		<path class="st0" d="M366.1,10.5L366.1,10.5c-0.3,0.4-0.6,0.7-1,0.9s-0.9,0.3-1.4,0.3c-0.6,0-1.1-0.1-1.5-0.3
			c-0.4-0.2-0.8-0.5-1.1-0.9c-0.3-0.4-0.5-0.8-0.6-1.3c-0.1-0.5-0.2-1-0.2-1.6c0-0.5,0.1-1,0.2-1.5c0.1-0.5,0.4-0.9,0.6-1.3
			c0.3-0.4,0.6-0.7,1.1-0.9c0.4-0.2,0.9-0.3,1.5-0.3c0.5,0,0.9,0.1,1.3,0.3s0.7,0.5,1,0.9h0V0.7h2.1v10.7h-2V10.5z M366.1,7.6
			c0-0.3,0-0.6-0.1-0.9c-0.1-0.3-0.2-0.6-0.3-0.8s-0.3-0.4-0.6-0.5c-0.2-0.1-0.5-0.2-0.9-0.2c-0.4,0-0.6,0.1-0.9,0.2
			c-0.2,0.1-0.4,0.3-0.6,0.6c-0.1,0.2-0.3,0.5-0.3,0.8s-0.1,0.6-0.1,0.9c0,0.3,0,0.6,0.1,0.9s0.2,0.6,0.3,0.8
			c0.2,0.2,0.4,0.4,0.6,0.6c0.2,0.1,0.5,0.2,0.8,0.2c0.4,0,0.6-0.1,0.9-0.2s0.4-0.3,0.6-0.6s0.2-0.5,0.3-0.8
			C366,8.2,366.1,7.9,366.1,7.6z"/>
		<path class="st0" d="M372.8,8.1c0,0.7,0.2,1.2,0.5,1.5c0.3,0.3,0.8,0.5,1.4,0.5c0.4,0,0.8-0.1,1.1-0.3c0.3-0.2,0.5-0.4,0.6-0.7
			h1.9c-0.3,0.9-0.8,1.6-1.4,2c-0.6,0.4-1.4,0.6-2.3,0.6c-0.6,0-1.2-0.1-1.7-0.3c-0.5-0.2-0.9-0.5-1.2-0.8c-0.3-0.4-0.6-0.8-0.8-1.3
			s-0.3-1.1-0.3-1.7c0-0.6,0.1-1.1,0.3-1.6c0.2-0.5,0.5-0.9,0.8-1.3c0.4-0.4,0.8-0.7,1.3-0.9c0.5-0.2,1-0.3,1.6-0.3
			c0.7,0,1.2,0.1,1.7,0.4c0.5,0.3,0.9,0.6,1.2,1c0.3,0.4,0.5,0.9,0.7,1.5c0.1,0.6,0.2,1.1,0.2,1.7H372.8z M376.3,6.7
			c-0.1-0.5-0.3-1-0.5-1.2c-0.3-0.3-0.6-0.4-1.2-0.4c-0.3,0-0.6,0.1-0.8,0.2s-0.4,0.3-0.5,0.4c-0.1,0.2-0.2,0.4-0.3,0.5
			c-0.1,0.2-0.1,0.4-0.1,0.5H376.3z"/>
		<path class="st0" d="M381.1,0.7h2.1v10.7h-2.1V0.7z"/>
		<path class="st0" d="M393.5,8.1c0,0.7,0.2,1.2,0.5,1.5c0.3,0.3,0.8,0.5,1.4,0.5c0.4,0,0.8-0.1,1.1-0.3c0.3-0.2,0.5-0.4,0.6-0.7
			h1.9c-0.3,0.9-0.8,1.6-1.4,2c-0.6,0.4-1.4,0.6-2.3,0.6c-0.6,0-1.2-0.1-1.7-0.3c-0.5-0.2-0.9-0.5-1.2-0.8c-0.3-0.4-0.6-0.8-0.8-1.3
			s-0.3-1.1-0.3-1.7c0-0.6,0.1-1.1,0.3-1.6c0.2-0.5,0.5-0.9,0.8-1.3c0.4-0.4,0.8-0.7,1.3-0.9c0.5-0.2,1-0.3,1.6-0.3
			c0.7,0,1.2,0.1,1.7,0.4c0.5,0.3,0.9,0.6,1.2,1c0.3,0.4,0.5,0.9,0.7,1.5c0.1,0.6,0.2,1.1,0.2,1.7H393.5z M397,6.7
			c-0.1-0.5-0.3-1-0.5-1.2c-0.3-0.3-0.6-0.4-1.2-0.4c-0.3,0-0.6,0.1-0.8,0.2s-0.4,0.3-0.5,0.4c-0.1,0.2-0.2,0.4-0.3,0.5
			c-0.1,0.2-0.1,0.4-0.1,0.5H397z"/>
		<path class="st0" d="M403.4,8.9c0,0.2,0,0.4,0.1,0.6c0.1,0.2,0.2,0.3,0.4,0.4c0.2,0.1,0.3,0.2,0.5,0.2c0.2,0.1,0.4,0.1,0.6,0.1
			c0.2,0,0.3,0,0.5-0.1c0.2,0,0.3-0.1,0.5-0.2c0.1-0.1,0.2-0.2,0.3-0.3c0.1-0.1,0.1-0.3,0.1-0.5c0-0.2-0.1-0.3-0.2-0.4
			s-0.3-0.2-0.5-0.3c-0.2-0.1-0.5-0.2-0.8-0.2c-0.3-0.1-0.6-0.2-1-0.2c-0.3-0.1-0.6-0.2-0.9-0.2c-0.3-0.1-0.6-0.2-0.8-0.4
			s-0.4-0.4-0.6-0.6c-0.1-0.2-0.2-0.5-0.2-0.9c0-0.5,0.1-0.9,0.3-1.2c0.2-0.3,0.5-0.6,0.8-0.8c0.3-0.2,0.7-0.3,1.1-0.4
			s0.8-0.1,1.2-0.1s0.8,0,1.2,0.1c0.4,0.1,0.7,0.2,1.1,0.4c0.3,0.2,0.6,0.4,0.8,0.8c0.2,0.3,0.3,0.7,0.4,1.2h-2
			c0-0.4-0.2-0.7-0.5-0.8c-0.3-0.1-0.6-0.2-1-0.2c-0.1,0-0.3,0-0.4,0c-0.1,0-0.3,0-0.4,0.1c-0.1,0.1-0.2,0.1-0.3,0.2
			c-0.1,0.1-0.1,0.2-0.1,0.4c0,0.2,0.1,0.3,0.2,0.5s0.3,0.2,0.5,0.3s0.5,0.1,0.8,0.2c0.3,0.1,0.6,0.1,0.9,0.2
			c0.3,0.1,0.6,0.2,0.9,0.3c0.3,0.1,0.6,0.2,0.8,0.4c0.2,0.2,0.4,0.4,0.6,0.6c0.1,0.2,0.2,0.5,0.2,0.9c0,0.5-0.1,0.9-0.3,1.3
			c-0.2,0.3-0.5,0.6-0.8,0.8c-0.3,0.2-0.7,0.4-1.1,0.5s-0.9,0.1-1.3,0.1c-0.5,0-0.9,0-1.3-0.1s-0.8-0.2-1.1-0.5
			c-0.3-0.2-0.6-0.5-0.8-0.8s-0.3-0.8-0.4-1.3H403.4z"/>
		<path class="st0" d="M413.8,3.7h1.6v1.4h-1.6V9c0,0.4,0.1,0.6,0.2,0.7c0.1,0.1,0.4,0.2,0.7,0.2c0.2,0,0.5,0,0.7-0.1v1.7
			c-0.2,0-0.4,0.1-0.6,0.1c-0.2,0-0.4,0-0.6,0c-0.3,0-0.6,0-0.9-0.1s-0.6-0.1-0.8-0.3s-0.4-0.3-0.5-0.6s-0.2-0.6-0.2-0.9V5.1h-1.3
			V3.7h1.3V1.4h2.1V3.7z"/>
		<path class="st0" d="M417.8,3.7h2v1.4h0c0.1-0.2,0.2-0.5,0.4-0.7c0.2-0.2,0.4-0.4,0.6-0.5c0.2-0.1,0.5-0.3,0.7-0.3
			s0.5-0.1,0.8-0.1c0.2,0,0.3,0,0.5,0.1v2c-0.1,0-0.2,0-0.4-0.1c-0.1,0-0.3,0-0.4,0c-0.4,0-0.7,0.1-1,0.2c-0.3,0.1-0.5,0.3-0.7,0.5
			c-0.2,0.2-0.3,0.5-0.4,0.8c-0.1,0.3-0.1,0.6-0.1,1v3.5h-2.1V3.7z"/>
		<path class="st0" d="M426.7,8.1c0,0.7,0.2,1.2,0.5,1.5c0.3,0.3,0.8,0.5,1.4,0.5c0.4,0,0.8-0.1,1.1-0.3c0.3-0.2,0.5-0.4,0.6-0.7
			h1.9c-0.3,0.9-0.8,1.6-1.4,2c-0.6,0.4-1.4,0.6-2.3,0.6c-0.6,0-1.2-0.1-1.7-0.3c-0.5-0.2-0.9-0.5-1.2-0.8c-0.3-0.4-0.6-0.8-0.8-1.3
			s-0.3-1.1-0.3-1.7c0-0.6,0.1-1.1,0.3-1.6c0.2-0.5,0.5-0.9,0.8-1.3c0.4-0.4,0.8-0.7,1.3-0.9c0.5-0.2,1-0.3,1.6-0.3
			c0.7,0,1.2,0.1,1.7,0.4c0.5,0.3,0.9,0.6,1.2,1c0.3,0.4,0.5,0.9,0.7,1.5c0.1,0.6,0.2,1.1,0.2,1.7H426.7z M430.2,6.7
			c-0.1-0.5-0.3-1-0.5-1.2c-0.3-0.3-0.6-0.4-1.2-0.4c-0.3,0-0.6,0.1-0.8,0.2s-0.4,0.3-0.5,0.4c-0.1,0.2-0.2,0.4-0.3,0.5
			c-0.1,0.2-0.1,0.4-0.1,0.5H430.2z M428.8,2.7h-1.5l1.4-2.1h2.4L428.8,2.7z"/>
		<path class="st0" d="M436.6,8.9c0,0.2,0,0.4,0.1,0.6c0.1,0.2,0.2,0.3,0.4,0.4c0.2,0.1,0.3,0.2,0.5,0.2c0.2,0.1,0.4,0.1,0.6,0.1
			c0.2,0,0.3,0,0.5-0.1c0.2,0,0.3-0.1,0.5-0.2c0.1-0.1,0.2-0.2,0.3-0.3c0.1-0.1,0.1-0.3,0.1-0.5c0-0.2-0.1-0.3-0.2-0.4
			s-0.3-0.2-0.5-0.3c-0.2-0.1-0.5-0.2-0.8-0.2c-0.3-0.1-0.6-0.2-1-0.2c-0.3-0.1-0.6-0.2-0.9-0.2c-0.3-0.1-0.6-0.2-0.8-0.4
			s-0.4-0.4-0.6-0.6c-0.1-0.2-0.2-0.5-0.2-0.9c0-0.5,0.1-0.9,0.3-1.2c0.2-0.3,0.5-0.6,0.8-0.8c0.3-0.2,0.7-0.3,1.1-0.4
			s0.8-0.1,1.2-0.1s0.8,0,1.2,0.1c0.4,0.1,0.7,0.2,1.1,0.4c0.3,0.2,0.6,0.4,0.8,0.8c0.2,0.3,0.3,0.7,0.4,1.2h-2
			c0-0.4-0.2-0.7-0.5-0.8c-0.3-0.1-0.6-0.2-1-0.2c-0.1,0-0.3,0-0.4,0c-0.1,0-0.3,0-0.4,0.1c-0.1,0.1-0.2,0.1-0.3,0.2
			c-0.1,0.1-0.1,0.2-0.1,0.4c0,0.2,0.1,0.3,0.2,0.5s0.3,0.2,0.5,0.3s0.5,0.1,0.8,0.2c0.3,0.1,0.6,0.1,0.9,0.2
			c0.3,0.1,0.6,0.2,0.9,0.3c0.3,0.1,0.6,0.2,0.8,0.4c0.2,0.2,0.4,0.4,0.6,0.6c0.1,0.2,0.2,0.5,0.2,0.9c0,0.5-0.1,0.9-0.3,1.3
			c-0.2,0.3-0.5,0.6-0.8,0.8c-0.3,0.2-0.7,0.4-1.1,0.5s-0.9,0.1-1.3,0.1c-0.5,0-0.9,0-1.3-0.1s-0.8-0.2-1.1-0.5
			c-0.3-0.2-0.6-0.5-0.8-0.8s-0.3-0.8-0.4-1.3H436.6z"/>
	</g>
</g>
<g id="XMLID_1_">
	<g id="XMLID_4_">
		
			<linearGradient id="XMLID_6_" gradientUnits="userSpaceOnUse" x1="-1159.0813" y1="-215.2381" x2="-1148.7126" y2="-215.2381" gradientTransform="matrix(0.9942 -0.1078 0.1078 0.9942 1176.0326 98.7746)">
			<stop  offset="0" style="stop-color:#F18A21"/>
			<stop  offset="0.3915" style="stop-color:#F7A418"/>
			<stop  offset="0.781" style="stop-color:#FFC10E"/>
			<stop  offset="1" style="stop-color:#FFF100"/>
		</linearGradient>
		<path id="XMLID_5_" class="st1" d="M5.9,11.8c1.8-0.2,3.3-1.3,4-2.8l0.9,0.1l-1.2-3L7.1,8.6l1.1,0.1C7.5,9.8,6.4,10.6,5,10.7
			C2.7,11,0.7,9.4,0.2,7.2l0,0C0.5,10,3.1,12.1,5.9,11.8z"/>
	</g>
	<g id="XMLID_2_">
		<linearGradient id="XMLID_7_" gradientUnits="userSpaceOnUse" x1="0" y1="2.8901" x2="10.6434" y2="2.8901">
			<stop  offset="0" style="stop-color:#BBBDBF"/>
			<stop  offset="1.021545e-02" style="stop-color:#B8BABC"/>
			<stop  offset="0.1799" style="stop-color:#8F9092"/>
			<stop  offset="0.3334" style="stop-color:#717274"/>
			<stop  offset="0.4643" style="stop-color:#5F6062"/>
			<stop  offset="0.5568" style="stop-color:#58595B"/>
			<stop  offset="0.9314" style="stop-color:#E6E7E8"/>
		</linearGradient>
		<path id="XMLID_3_" class="st2" d="M4.9,0c-1.8,0.2-3.3,1.3-4,2.8L0,2.7l1.2,3.1l2.5-2.6L2.6,3.1c0.7-1.1,1.8-1.8,3.2-2
			c2.3-0.2,4.3,1.3,4.8,3.6l0,0C10.3,1.8,7.8-0.3,4.9,0z"/>
	</g>
</g>
</svg>
