<!-- Generator: Adobe Illustrator 20.1.0, SVG Export Plug-In  -->
<svg version="1.1"
	 xmlns="http://www.w3.org/2000/svg" xmlns:xlink="http://www.w3.org/1999/xlink" xmlns:a="http://ns.adobe.com/AdobeSVGViewerExtensions/3.0/"
	 x="0px" y="0px" width="27.5px" height="22.4px" viewBox="0 0 27.5 22.4"
	 style="overflow:scroll;enable-background:new 0 0 27.5 22.4;" xml:space="preserve">
<style type="text/css">
	.st0{fill:#8E9FAA;}
</style>
<defs>
</defs>
<g id="XMLID_1_">
	<path id="XMLID_3_" class="st0" d="M0.2,0.8C-0.2,0,0.1-0.3,0.8,0.3l11.5,9.5c0.7,0.6,1.9,0.6,2.7,0l11.8-9.5
		c0.7-0.6,1-0.4,0.6,0.5l-12.9,21c-0.4,0.9-1,0.9-1.4,0L0.2,0.8z"/>
	<path id="XMLID_2_" class="st0" d="M2.9,4.5C2.6,3.8,2.8,3.7,3.4,4.1l9.2,7.6c0.6,0.5,1.5,0.5,2.1,0l9.4-7.6
		c0.6-0.5,0.8-0.3,0.5,0.4L14.3,21.3c-0.3,0.7-0.8,0.7-1.1,0L2.9,4.5z"/>
</g>
</svg>
