<!-- Generator: Adobe Illustrator 20.1.0, SVG Export Plug-In  -->
<svg version="1.1"
	 xmlns="http://www.w3.org/2000/svg" xmlns:xlink="http://www.w3.org/1999/xlink" xmlns:a="http://ns.adobe.com/AdobeSVGViewerExtensions/3.0/"
	 x="0px" y="0px" width="158.2px" height="31.4px" viewBox="0 0 158.2 31.4"
	 style="overflow:scroll;enable-background:new 0 0 158.2 31.4;" xml:space="preserve">
<style type="text/css">
	.st0{opacity:0.9;}
	.st1{opacity:0.9;fill:#F18A21;}
</style>
<defs>
</defs>
<g class="st0">
	<g>
		<path class="st1" d="M0,0.1h7.8v1.9H2.3v2.2h5.1v1.8H2.3v2.6h5.6v1.9H0V0.1z"/>
		<path class="st1" d="M9.3,3h2v1.1h0c0.3-0.4,0.6-0.7,1-1c0.4-0.2,0.8-0.3,1.3-0.3c0.6,0,1,0.1,1.4,0.2c0.4,0.2,0.6,0.4,0.8,0.6
			c0.2,0.3,0.3,0.6,0.4,1c0.1,0.4,0.1,0.8,0.1,1.3v4.7h-2.1V6.3c0-0.6-0.1-1.1-0.3-1.4c-0.2-0.3-0.5-0.5-1-0.5c-0.6,0-1,0.2-1.2,0.5
			c-0.3,0.3-0.4,0.9-0.4,1.7v4H9.3V3z"/>
		<path class="st1" d="M19.6,7.3c0,0.7,0.2,1.1,0.5,1.5c0.3,0.3,0.8,0.5,1.3,0.5c0.4,0,0.8-0.1,1.1-0.3s0.5-0.4,0.6-0.7H25
			c-0.3,0.9-0.7,1.5-1.3,1.9c-0.6,0.4-1.3,0.6-2.2,0.6c-0.6,0-1.1-0.1-1.6-0.3c-0.5-0.2-0.9-0.5-1.2-0.8c-0.3-0.4-0.6-0.8-0.8-1.3
			c-0.2-0.5-0.3-1-0.3-1.6c0-0.6,0.1-1.1,0.3-1.6C18,4.7,18.3,4.3,18.6,4s0.7-0.6,1.2-0.8c0.5-0.2,1-0.3,1.6-0.3
			c0.6,0,1.2,0.1,1.7,0.4c0.5,0.2,0.9,0.6,1.2,1c0.3,0.4,0.5,0.9,0.7,1.4c0.1,0.5,0.2,1.1,0.1,1.7H19.6z M23,6
			c-0.1-0.5-0.3-0.9-0.5-1.2c-0.2-0.3-0.6-0.4-1.1-0.4c-0.3,0-0.6,0.1-0.8,0.2S20.2,4.8,20,5s-0.2,0.3-0.3,0.5
			c-0.1,0.2-0.1,0.4-0.1,0.5H23z"/>
		<path class="st1" d="M26.3,3h2v1.4h0c0.1-0.2,0.2-0.5,0.4-0.7c0.2-0.2,0.4-0.4,0.6-0.5S29.8,3,30,2.9s0.5-0.1,0.8-0.1
			c0.2,0,0.3,0,0.5,0.1v1.9c-0.1,0-0.2,0-0.4-0.1s-0.3,0-0.4,0c-0.4,0-0.7,0.1-1,0.2S29,5.2,28.9,5.5c-0.2,0.2-0.3,0.5-0.3,0.8
			s-0.1,0.6-0.1,0.9v3.4h-2.1V3z"/>
		<path class="st1" d="M39.3,10.1c0,0.2,0,0.4-0.1,0.7c0,0.2-0.1,0.5-0.2,0.7c-0.1,0.2-0.2,0.5-0.4,0.7c-0.2,0.2-0.4,0.4-0.7,0.6
			c-0.3,0.2-0.6,0.3-1.1,0.4c-0.4,0.1-0.9,0.2-1.5,0.2c-0.4,0-0.7,0-1.1-0.1c-0.4-0.1-0.7-0.2-1.1-0.4c-0.3-0.2-0.6-0.4-0.8-0.8
			c-0.2-0.3-0.3-0.7-0.4-1.1h2.1c0.1,0.4,0.3,0.7,0.6,0.8c0.3,0.2,0.6,0.2,1,0.2c0.6,0,1-0.2,1.3-0.5c0.3-0.4,0.4-0.8,0.4-1.3v-1h0
			c-0.2,0.4-0.5,0.7-1,0.9c-0.4,0.2-0.9,0.3-1.3,0.3c-0.6,0-1.1-0.1-1.5-0.3c-0.4-0.2-0.7-0.5-1-0.8C32.3,8.9,32.1,8.5,32,8
			c-0.1-0.5-0.2-1-0.2-1.5c0-0.5,0.1-1,0.2-1.4c0.1-0.5,0.3-0.9,0.6-1.2c0.3-0.3,0.6-0.6,1-0.8C34,2.9,34.5,2.8,35,2.8
			c0.5,0,0.9,0.1,1.3,0.3C36.7,3.3,37,3.6,37.3,4h0V3h2V10.1z M35.6,8.8c0.3,0,0.6-0.1,0.8-0.2c0.2-0.1,0.4-0.3,0.6-0.5
			s0.3-0.4,0.3-0.7c0.1-0.2,0.1-0.5,0.1-0.8c0-0.3,0-0.6-0.1-0.9s-0.2-0.5-0.3-0.7s-0.3-0.4-0.5-0.5s-0.5-0.2-0.8-0.2
			c-0.3,0-0.5,0.1-0.8,0.2c-0.2,0.1-0.4,0.3-0.5,0.5C34.1,5.2,34,5.5,34,5.7c-0.1,0.3-0.1,0.5-0.1,0.8c0,0.3,0,0.5,0.1,0.8
			c0.1,0.3,0.1,0.5,0.3,0.7c0.1,0.2,0.3,0.4,0.5,0.5C35,8.7,35.2,8.8,35.6,8.8z"/>
		<path class="st1" d="M42.4,2.1H41L42.4,0h2.3L42.4,2.1z M41,3h2.1v7.6H41V3z"/>
		<path class="st1" d="M44.7,5.3c0-0.5,0.2-0.9,0.4-1.2c0.2-0.3,0.5-0.6,0.8-0.8c0.3-0.2,0.7-0.3,1.1-0.4c0.4-0.1,0.8-0.1,1.3-0.1
			c0.4,0,0.8,0,1.2,0.1c0.4,0.1,0.7,0.2,1.1,0.3c0.3,0.2,0.6,0.4,0.8,0.7c0.2,0.3,0.3,0.6,0.3,1.1v3.9c0,0.3,0,0.7,0.1,1
			s0.1,0.5,0.2,0.7h-2.1c0-0.1-0.1-0.2-0.1-0.4s0-0.2-0.1-0.4c-0.3,0.3-0.7,0.6-1.2,0.7c-0.4,0.1-0.9,0.2-1.4,0.2
			c-0.4,0-0.7,0-1-0.1c-0.3-0.1-0.6-0.2-0.8-0.4c-0.2-0.2-0.4-0.4-0.5-0.7c-0.1-0.3-0.2-0.6-0.2-1c0-0.4,0.1-0.8,0.2-1.1
			C44.8,7.2,45,7,45.2,6.8c0.2-0.2,0.5-0.3,0.8-0.4c0.3-0.1,0.6-0.1,0.9-0.2c0.3,0,0.6-0.1,0.9-0.1S48.5,6,48.7,6
			c0.2-0.1,0.4-0.1,0.5-0.3s0.2-0.3,0.2-0.5c0-0.2,0-0.4-0.1-0.5S49.2,4.5,49,4.4s-0.3-0.1-0.4-0.1c-0.2,0-0.3,0-0.5,0
			c-0.4,0-0.7,0.1-1,0.3c-0.2,0.2-0.4,0.5-0.4,0.9H44.7z M49.5,6.9C49.4,7,49.3,7,49.1,7.1s-0.3,0.1-0.4,0.1c-0.2,0-0.3,0.1-0.5,0.1
			s-0.3,0-0.5,0.1c-0.2,0-0.3,0.1-0.5,0.1S47,7.5,46.9,7.6S46.7,7.8,46.6,8c-0.1,0.1-0.1,0.3-0.1,0.5c0,0.2,0,0.4,0.1,0.5
			c0.1,0.1,0.2,0.2,0.3,0.3s0.3,0.1,0.4,0.2c0.2,0,0.3,0,0.5,0c0.4,0,0.7-0.1,1-0.2s0.4-0.3,0.5-0.5s0.2-0.4,0.2-0.6
			c0-0.2,0-0.4,0-0.5V6.9z"/>
		<path class="st1" d="M60.9,11.5c-0.2,0.6-0.5,1-0.9,1.3c-0.4,0.3-1,0.4-1.7,0.4c-0.2,0-0.4,0-0.6,0s-0.4,0-0.6-0.1v-1.7
			c0.2,0,0.4,0,0.6,0.1c0.2,0,0.4,0,0.6,0c0.2,0,0.3-0.1,0.4-0.2c0.1-0.1,0.2-0.2,0.3-0.3s0.1-0.3,0.1-0.4c0-0.2,0-0.3-0.1-0.5
			L56.3,3h2.2l1.7,5.2h0L61.9,3h2.2L60.9,11.5z"/>
		<path class="st1" d="M68.9,3h2v1h0c0.3-0.4,0.6-0.7,1-0.9c0.4-0.2,0.8-0.3,1.3-0.3c0.5,0,0.9,0.1,1.3,0.3c0.4,0.2,0.7,0.5,0.9,1
			c0.2-0.3,0.5-0.6,0.9-0.9c0.4-0.3,0.8-0.4,1.4-0.4c0.4,0,0.8,0,1.1,0.1c0.3,0.1,0.6,0.3,0.9,0.5c0.2,0.2,0.4,0.5,0.6,0.8
			c0.1,0.3,0.2,0.8,0.2,1.3v5.1h-2.1V6.3c0-0.3,0-0.5,0-0.7c0-0.2-0.1-0.4-0.2-0.6S78,4.7,77.8,4.6s-0.4-0.1-0.7-0.1
			c-0.3,0-0.5,0.1-0.7,0.2S76.1,4.9,76,5.1c-0.1,0.2-0.2,0.4-0.2,0.6c0,0.2-0.1,0.5-0.1,0.7v4.2h-2.1V6.3c0-0.2,0-0.4,0-0.7
			c0-0.2-0.1-0.4-0.1-0.6s-0.2-0.3-0.4-0.4s-0.4-0.2-0.8-0.2c-0.1,0-0.2,0-0.4,0.1s-0.3,0.1-0.5,0.2s-0.3,0.3-0.4,0.5
			C71.1,5.5,71,5.8,71,6.2v4.4h-2.1V3z"/>
		<path class="st1" d="M83.8,7.3c0,0.7,0.2,1.1,0.5,1.5c0.3,0.3,0.8,0.5,1.3,0.5c0.4,0,0.8-0.1,1.1-0.3s0.5-0.4,0.6-0.7h1.8
			c-0.3,0.9-0.7,1.5-1.3,1.9c-0.6,0.4-1.3,0.6-2.2,0.6c-0.6,0-1.1-0.1-1.6-0.3c-0.5-0.2-0.9-0.5-1.2-0.8c-0.3-0.4-0.6-0.8-0.8-1.3
			c-0.2-0.5-0.3-1-0.3-1.6c0-0.6,0.1-1.1,0.3-1.6c0.2-0.5,0.4-0.9,0.8-1.3s0.7-0.6,1.2-0.8c0.5-0.2,1-0.3,1.6-0.3
			c0.6,0,1.2,0.1,1.7,0.4c0.5,0.2,0.9,0.6,1.2,1c0.3,0.4,0.5,0.9,0.7,1.4c0.1,0.5,0.2,1.1,0.1,1.7H83.8z M87.2,6
			c-0.1-0.5-0.3-0.9-0.5-1.2c-0.2-0.3-0.6-0.4-1.1-0.4c-0.3,0-0.6,0.1-0.8,0.2S84.3,4.8,84.2,5S84,5.3,83.9,5.5
			c-0.1,0.2-0.1,0.4-0.1,0.5H87.2z"/>
		<path class="st1" d="M93.2,3h1.5v1.4h-1.5v3.7c0,0.4,0.1,0.6,0.2,0.7C93.4,9,93.7,9,94,9c0.2,0,0.4,0,0.6-0.1v1.6
			c-0.2,0-0.4,0-0.6,0.1c-0.2,0-0.4,0-0.6,0c-0.3,0-0.6,0-0.9-0.1c-0.3,0-0.5-0.1-0.8-0.3s-0.4-0.3-0.5-0.5s-0.2-0.5-0.2-0.9V4.4
			h-1.3V3h1.3V0.7h2.1V3z"/>
		<path class="st1" d="M95.6,5.3c0-0.5,0.2-0.9,0.4-1.2c0.2-0.3,0.5-0.6,0.8-0.8c0.3-0.2,0.7-0.3,1.1-0.4c0.4-0.1,0.8-0.1,1.3-0.1
			c0.4,0,0.8,0,1.2,0.1c0.4,0.1,0.7,0.2,1.1,0.3c0.3,0.2,0.6,0.4,0.8,0.7c0.2,0.3,0.3,0.6,0.3,1.1v3.9c0,0.3,0,0.7,0.1,1
			s0.1,0.5,0.2,0.7h-2.1c0-0.1-0.1-0.2-0.1-0.4s0-0.2-0.1-0.4c-0.3,0.3-0.7,0.6-1.2,0.7c-0.4,0.1-0.9,0.2-1.4,0.2
			c-0.4,0-0.7,0-1-0.1c-0.3-0.1-0.6-0.2-0.8-0.4c-0.2-0.2-0.4-0.4-0.5-0.7c-0.1-0.3-0.2-0.6-0.2-1c0-0.4,0.1-0.8,0.2-1.1
			c0.1-0.3,0.3-0.5,0.6-0.7c0.2-0.2,0.5-0.3,0.8-0.4c0.3-0.1,0.6-0.1,0.9-0.2c0.3,0,0.6-0.1,0.9-0.1S99.4,6,99.6,6
			c0.2-0.1,0.4-0.1,0.5-0.3s0.2-0.3,0.2-0.5c0-0.2,0-0.4-0.1-0.5s-0.2-0.2-0.3-0.3s-0.3-0.1-0.4-0.1c-0.2,0-0.3,0-0.5,0
			c-0.4,0-0.7,0.1-1,0.3c-0.2,0.2-0.4,0.5-0.4,0.9H95.6z M100.4,6.9C100.3,7,100.2,7,100,7.1s-0.3,0.1-0.4,0.1
			c-0.2,0-0.3,0.1-0.5,0.1s-0.3,0-0.5,0.1c-0.2,0-0.3,0.1-0.5,0.1s-0.3,0.1-0.4,0.2S97.6,7.8,97.5,8c-0.1,0.1-0.1,0.3-0.1,0.5
			c0,0.2,0,0.4,0.1,0.5c0.1,0.1,0.2,0.2,0.3,0.3s0.3,0.1,0.4,0.2c0.2,0,0.3,0,0.5,0c0.4,0,0.7-0.1,1-0.2s0.4-0.3,0.5-0.5
			s0.2-0.4,0.2-0.6c0-0.2,0-0.4,0-0.5V6.9z"/>
		<path class="st1" d="M104.1,0.1h2.1v3.8h0c0.3-0.4,0.6-0.7,1-0.9c0.4-0.2,0.9-0.3,1.4-0.3c0.4,0,0.8,0.1,1.1,0.2
			c0.4,0.2,0.7,0.4,1,0.7c0.3,0.3,0.5,0.7,0.7,1.2c0.2,0.5,0.3,1.1,0.3,1.8s-0.1,1.3-0.3,1.8c-0.2,0.5-0.4,0.9-0.7,1.2
			c-0.3,0.3-0.6,0.6-1,0.7c-0.4,0.2-0.7,0.2-1.1,0.2c-0.6,0-1.1-0.1-1.5-0.3c-0.4-0.2-0.8-0.5-1-0.9h0v1h-2V0.1z M109.6,6.8
			c0-0.3,0-0.6-0.1-0.9s-0.2-0.6-0.3-0.8c-0.1-0.2-0.3-0.4-0.6-0.5s-0.5-0.2-0.8-0.2c-0.3,0-0.6,0.1-0.8,0.2
			c-0.2,0.1-0.4,0.3-0.5,0.5s-0.3,0.5-0.3,0.8s-0.1,0.6-0.1,0.9c0,0.3,0,0.6,0.1,0.9c0.1,0.3,0.2,0.6,0.3,0.8s0.3,0.4,0.5,0.5
			c0.2,0.1,0.5,0.2,0.8,0.2c0.3,0,0.6-0.1,0.8-0.2c0.2-0.1,0.4-0.3,0.6-0.5c0.1-0.2,0.3-0.5,0.3-0.8C109.6,7.4,109.6,7.1,109.6,6.8z
			"/>
		<path class="st1" d="M112.8,6.8c0-0.6,0.1-1.2,0.3-1.6c0.2-0.5,0.4-0.9,0.8-1.3c0.3-0.3,0.8-0.6,1.2-0.8c0.5-0.2,1-0.3,1.6-0.3
			s1.1,0.1,1.6,0.3c0.5,0.2,0.9,0.5,1.2,0.8c0.3,0.3,0.6,0.8,0.8,1.3c0.2,0.5,0.3,1,0.3,1.6s-0.1,1.2-0.3,1.6
			c-0.2,0.5-0.4,0.9-0.8,1.3c-0.3,0.3-0.8,0.6-1.2,0.8c-0.5,0.2-1,0.3-1.6,0.3s-1.1-0.1-1.6-0.3c-0.5-0.2-0.9-0.5-1.2-0.8
			c-0.3-0.3-0.6-0.8-0.8-1.3C112.9,8,112.8,7.4,112.8,6.8z M114.8,6.8c0,0.3,0,0.6,0.1,0.9c0.1,0.3,0.2,0.5,0.3,0.8
			c0.1,0.2,0.3,0.4,0.6,0.5c0.2,0.1,0.5,0.2,0.9,0.2c0.4,0,0.6-0.1,0.9-0.2c0.2-0.1,0.4-0.3,0.6-0.5c0.1-0.2,0.2-0.5,0.3-0.8
			c0.1-0.3,0.1-0.6,0.1-0.9c0-0.3,0-0.6-0.1-0.9s-0.2-0.6-0.3-0.8s-0.3-0.4-0.6-0.5c-0.2-0.1-0.5-0.2-0.9-0.2
			c-0.4,0-0.6,0.1-0.9,0.2c-0.2,0.1-0.4,0.3-0.6,0.5c-0.1,0.2-0.2,0.5-0.3,0.8C114.9,6.2,114.8,6.5,114.8,6.8z"/>
		<path class="st1" d="M122,0.1h2.1v10.4H122V0.1z"/>
		<path class="st1" d="M127.9,1.8h-2.1V0.1h2.1V1.8z M125.8,3h2.1v7.6h-2.1V3z"/>
		<path class="st1" d="M131.1,8.1c0,0.2,0,0.4,0.1,0.6s0.2,0.3,0.4,0.4c0.1,0.1,0.3,0.2,0.5,0.2s0.4,0.1,0.6,0.1
			c0.1,0,0.3,0,0.5-0.1s0.3-0.1,0.4-0.2s0.2-0.2,0.3-0.3c0.1-0.1,0.1-0.3,0.1-0.5c0-0.2-0.1-0.3-0.2-0.4s-0.3-0.2-0.5-0.3
			c-0.2-0.1-0.4-0.2-0.7-0.2c-0.3-0.1-0.6-0.1-1-0.2c-0.3-0.1-0.6-0.1-0.9-0.2c-0.3-0.1-0.5-0.2-0.8-0.4c-0.2-0.2-0.4-0.3-0.5-0.6
			c-0.1-0.2-0.2-0.5-0.2-0.8c0-0.5,0.1-0.9,0.3-1.2c0.2-0.3,0.4-0.6,0.8-0.7c0.3-0.2,0.7-0.3,1.1-0.4c0.4-0.1,0.8-0.1,1.2-0.1
			c0.4,0,0.8,0,1.2,0.1s0.7,0.2,1,0.4c0.3,0.2,0.6,0.4,0.8,0.7c0.2,0.3,0.3,0.7,0.4,1.2h-2c0-0.4-0.2-0.7-0.5-0.8
			c-0.3-0.1-0.6-0.2-1-0.2c-0.1,0-0.2,0-0.4,0c-0.1,0-0.3,0-0.4,0.1c-0.1,0-0.2,0.1-0.3,0.2s-0.1,0.2-0.1,0.4c0,0.2,0.1,0.3,0.2,0.5
			c0.1,0.1,0.3,0.2,0.5,0.3s0.5,0.1,0.8,0.2c0.3,0.1,0.6,0.1,0.9,0.2c0.3,0.1,0.6,0.2,0.9,0.2c0.3,0.1,0.5,0.2,0.8,0.4
			c0.2,0.2,0.4,0.4,0.5,0.6s0.2,0.5,0.2,0.9c0,0.5-0.1,0.9-0.3,1.3c-0.2,0.3-0.5,0.6-0.8,0.8c-0.3,0.2-0.7,0.4-1.1,0.4
			c-0.4,0.1-0.8,0.1-1.3,0.1c-0.4,0-0.9,0-1.3-0.1c-0.4-0.1-0.8-0.2-1.1-0.4c-0.3-0.2-0.6-0.5-0.8-0.8c-0.2-0.3-0.3-0.8-0.3-1.3
			H131.1z"/>
		<path class="st1" d="M137.4,3h2v1h0c0.3-0.4,0.6-0.7,1-0.9c0.4-0.2,0.8-0.3,1.3-0.3c0.5,0,0.9,0.1,1.3,0.3c0.4,0.2,0.7,0.5,0.9,1
			c0.2-0.3,0.5-0.6,0.9-0.9c0.4-0.3,0.8-0.4,1.4-0.4c0.4,0,0.8,0,1.1,0.1c0.3,0.1,0.6,0.3,0.9,0.5c0.2,0.2,0.4,0.5,0.6,0.8
			c0.1,0.3,0.2,0.8,0.2,1.3v5.1h-2.1V6.3c0-0.3,0-0.5,0-0.7c0-0.2-0.1-0.4-0.2-0.6s-0.2-0.3-0.4-0.4s-0.4-0.1-0.7-0.1
			c-0.3,0-0.5,0.1-0.7,0.2s-0.3,0.3-0.4,0.4c-0.1,0.2-0.2,0.4-0.2,0.6c0,0.2-0.1,0.5-0.1,0.7v4.2h-2.1V6.3c0-0.2,0-0.4,0-0.7
			c0-0.2-0.1-0.4-0.1-0.6s-0.2-0.3-0.4-0.4s-0.4-0.2-0.8-0.2c-0.1,0-0.2,0-0.4,0.1s-0.3,0.1-0.5,0.2s-0.3,0.3-0.4,0.5
			c-0.1,0.2-0.2,0.5-0.2,0.9v4.4h-2.1V3z"/>
		<path class="st1" d="M150.4,6.8c0-0.6,0.1-1.2,0.3-1.6c0.2-0.5,0.4-0.9,0.8-1.3c0.3-0.3,0.8-0.6,1.2-0.8c0.5-0.2,1-0.3,1.6-0.3
			s1.1,0.1,1.6,0.3c0.5,0.2,0.9,0.5,1.2,0.8c0.3,0.3,0.6,0.8,0.8,1.3c0.2,0.5,0.3,1,0.3,1.6s-0.1,1.2-0.3,1.6
			c-0.2,0.5-0.4,0.9-0.8,1.3c-0.3,0.3-0.8,0.6-1.2,0.8c-0.5,0.2-1,0.3-1.6,0.3s-1.1-0.1-1.6-0.3c-0.5-0.2-0.9-0.5-1.2-0.8
			c-0.3-0.3-0.6-0.8-0.8-1.3C150.5,8,150.4,7.4,150.4,6.8z M152.4,6.8c0,0.3,0,0.6,0.1,0.9c0.1,0.3,0.2,0.5,0.3,0.8
			c0.1,0.2,0.3,0.4,0.6,0.5c0.2,0.1,0.5,0.2,0.9,0.2c0.4,0,0.6-0.1,0.9-0.2c0.2-0.1,0.4-0.3,0.6-0.5c0.1-0.2,0.2-0.5,0.3-0.8
			c0.1-0.3,0.1-0.6,0.1-0.9c0-0.3,0-0.6-0.1-0.9s-0.2-0.6-0.3-0.8s-0.3-0.4-0.6-0.5c-0.2-0.1-0.5-0.2-0.9-0.2
			c-0.4,0-0.6,0.1-0.9,0.2c-0.2,0.1-0.4,0.3-0.6,0.5c-0.1,0.2-0.2,0.5-0.3,0.8C152.5,6.2,152.4,6.5,152.4,6.8z"/>
		<path class="st1" d="M62,20.9h2.4l3.9,10.4h-2.4l-0.8-2.3h-3.9l-0.8,2.3H58L62,20.9z M61.8,27.3h2.7l-1.3-3.8h0L61.8,27.3z"/>
		<path class="st1" d="M71.5,22.9h-3.1v-1.9h8.6v1.9h-3.1v8.5h-2.3V22.9z"/>
		<path class="st1" d="M78.1,20.9h4.7c0.7,0,1.2,0.1,1.7,0.3c0.5,0.2,0.8,0.4,1.1,0.8c0.3,0.3,0.5,0.7,0.6,1.1
			c0.1,0.4,0.2,0.8,0.2,1.2c0,0.4-0.1,0.8-0.2,1.2c-0.1,0.4-0.3,0.8-0.6,1.1c-0.3,0.3-0.7,0.6-1.1,0.8c-0.5,0.2-1,0.3-1.7,0.3h-2.4
			v3.7h-2.3V20.9z M80.4,25.9h1.8c0.3,0,0.5,0,0.8-0.1c0.2,0,0.5-0.1,0.6-0.2c0.2-0.1,0.3-0.3,0.4-0.5c0.1-0.2,0.2-0.5,0.2-0.8
			c0-0.3-0.1-0.6-0.2-0.8c-0.1-0.2-0.3-0.4-0.4-0.5c-0.2-0.1-0.4-0.2-0.6-0.2c-0.2,0-0.5-0.1-0.8-0.1h-1.8V25.9z"/>
		<path class="st1" d="M88.1,22.1c0-0.3,0.1-0.5,0.2-0.7s0.3-0.4,0.5-0.5s0.4-0.2,0.6-0.3c0.2-0.1,0.5-0.1,0.7-0.1
			c0.4,0,0.7,0.1,0.9,0.2c0.3,0.1,0.5,0.3,0.6,0.4s0.3,0.3,0.3,0.5s0.1,0.4,0.1,0.5c0,0.3-0.1,0.6-0.2,0.8c-0.1,0.2-0.4,0.4-0.6,0.5
			v0c0.4,0.1,0.6,0.2,0.8,0.5s0.3,0.6,0.3,1c0,0.3-0.1,0.6-0.2,0.8c-0.1,0.2-0.3,0.4-0.5,0.6c-0.2,0.2-0.4,0.3-0.7,0.3
			c-0.3,0.1-0.5,0.1-0.8,0.1c-0.3,0-0.6,0-0.8-0.1c-0.3-0.1-0.5-0.2-0.7-0.3c-0.2-0.2-0.4-0.3-0.5-0.6c-0.1-0.2-0.2-0.5-0.2-0.8
			c0-0.4,0.1-0.7,0.3-1s0.5-0.4,0.8-0.5v0c-0.3-0.1-0.5-0.2-0.7-0.5C88.2,22.6,88.1,22.3,88.1,22.1z M89.1,24.7c0,0.2,0,0.3,0.1,0.4
			s0.1,0.2,0.2,0.3s0.2,0.2,0.3,0.2c0.1,0,0.3,0.1,0.4,0.1c0.1,0,0.3,0,0.4-0.1c0.1,0,0.2-0.1,0.3-0.2s0.2-0.2,0.2-0.3
			s0.1-0.3,0.1-0.4c0-0.1,0-0.3-0.1-0.4c-0.1-0.1-0.1-0.2-0.2-0.3c-0.1-0.1-0.2-0.2-0.3-0.2c-0.1,0-0.3-0.1-0.4-0.1
			c-0.3,0-0.5,0.1-0.8,0.2S89.1,24.4,89.1,24.7z M89.2,22.2c0,0.1,0,0.2,0.1,0.3c0,0.1,0.1,0.2,0.2,0.2c0.1,0.1,0.2,0.1,0.3,0.1
			c0.1,0,0.2,0.1,0.3,0.1c0.3,0,0.5-0.1,0.6-0.2c0.2-0.1,0.3-0.3,0.3-0.6c0-0.1,0-0.2,0-0.3s-0.1-0.2-0.1-0.3
			c-0.1-0.1-0.2-0.2-0.3-0.2s-0.3-0.1-0.5-0.1c-0.2,0-0.5,0.1-0.6,0.2C89.3,21.7,89.2,21.9,89.2,22.2z"/>
		<path class="st1" d="M93,25.2h1.3v1.3c0,0.2,0,0.4-0.1,0.5s-0.2,0.3-0.3,0.4c-0.1,0.1-0.3,0.2-0.4,0.3c-0.2,0.1-0.3,0.1-0.5,0.2
			v-0.6c0.1,0,0.2,0,0.2-0.1c0.1,0,0.1-0.1,0.2-0.2c0.1-0.1,0.1-0.2,0.1-0.2s0-0.2,0-0.3H93V25.2z"/>
		<path class="st1" d="M96.3,25c0,0.2,0.1,0.4,0.3,0.5c0.1,0.1,0.3,0.2,0.5,0.2c0.2,0,0.4-0.1,0.5-0.2c0.1-0.1,0.3-0.3,0.3-0.5
			c0.1-0.2,0.1-0.4,0.2-0.6c0-0.2,0.1-0.4,0.1-0.6l0,0c-0.2,0.2-0.4,0.4-0.6,0.5s-0.5,0.2-0.8,0.2c-0.3,0-0.5-0.1-0.8-0.2
			c-0.2-0.1-0.5-0.3-0.6-0.4c-0.2-0.2-0.3-0.4-0.3-0.6c-0.1-0.2-0.1-0.5-0.1-0.7c0-0.3,0-0.6,0.1-0.9s0.2-0.5,0.4-0.7
			c0.2-0.2,0.4-0.4,0.7-0.5c0.3-0.1,0.5-0.2,0.9-0.2c0.4,0,0.8,0.1,1.1,0.3c0.3,0.2,0.5,0.4,0.7,0.7c0.2,0.3,0.3,0.6,0.4,1
			c0.1,0.4,0.1,0.7,0.1,1.1c0,0.4,0,0.7-0.1,1.1c-0.1,0.4-0.2,0.7-0.4,1c-0.2,0.3-0.4,0.5-0.7,0.7s-0.7,0.3-1.1,0.3
			c-0.5,0-1-0.1-1.3-0.4c-0.4-0.3-0.6-0.7-0.6-1.2H96.3z M97.2,23.6c0.2,0,0.3,0,0.4-0.1c0.1-0.1,0.2-0.1,0.3-0.2
			c0.1-0.1,0.1-0.2,0.2-0.4c0-0.1,0.1-0.3,0.1-0.4c0-0.1,0-0.3-0.1-0.4c0-0.1-0.1-0.3-0.2-0.4c-0.1-0.1-0.2-0.2-0.3-0.3
			c-0.1-0.1-0.3-0.1-0.4-0.1c-0.1,0-0.3,0-0.4,0.1c-0.1,0.1-0.2,0.1-0.3,0.2c-0.1,0.1-0.1,0.2-0.2,0.3c0,0.1-0.1,0.3-0.1,0.4
			c0,0.1,0,0.3,0.1,0.4c0,0.1,0.1,0.3,0.2,0.4c0.1,0.1,0.2,0.2,0.3,0.3C96.9,23.6,97,23.6,97.2,23.6z"/>
	</g>
</g>
</svg>
