<?xml version="1.0" encoding="utf-8"?>
<!-- Generator: Adobe Illustrator 20.1.0, SVG Export Plug-In . SVG Version: 6.00 Build 0)  -->
<svg version="1.1" id="Layer_1" xmlns="http://www.w3.org/2000/svg" xmlns:xlink="http://www.w3.org/1999/xlink" x="0px" y="0px"
	 viewBox="0 0 242 79" style="enable-background:new 0 0 242 79;" xml:space="preserve">
<style type="text/css">
	.st0{fill:#005BA4;}
	.st1{fill:#FFFFFF;}
	.st2{fill:#6D6E71;}
</style>
<path class="st0" d="M68.7,21.1H13.5c-4.8,0-8.7-3.9-8.7-8.7v-0.8C4.8,6.9,8.7,3,13.5,3h55.2c4.8,0,8.7,3.9,8.7,8.7v0.8
	C77.4,17.2,73.5,21.1,68.7,21.1z"/>
<g>
	<path class="st1" d="M20.3,11.6c0.5,0.5,0.8,1.1,0.8,1.8c0,0.6-0.2,1.1-0.5,1.6c-0.3,0.5-0.8,0.8-1.3,1.1c-0.6,0.3-1.3,0.4-2,0.4
		c-0.7,0-1.3-0.1-1.9-0.3c-0.6-0.2-1.2-0.5-1.6-0.8l0.7-1.4c0.4,0.3,0.8,0.6,1.3,0.7c0.5,0.2,0.9,0.3,1.4,0.3c0.7,0,1.2-0.1,1.6-0.4
		c0.4-0.3,0.6-0.6,0.6-1.1c0-0.5-0.2-0.8-0.6-1.1c-0.4-0.3-0.9-0.4-1.6-0.4h-1.5v-1.1l2.6-2.5h-4.1l0-1.6h6.4v1.1l-2.9,2.8l0.5,0.1
		C19,10.9,19.8,11.1,20.3,11.6z"/>
	<path class="st1" d="M24.9,11.8v-0.5c-0.1,0.2-0.3,0.3-0.6,0.4c-0.2,0.1-0.5,0.1-0.8,0.1c-0.3,0-0.6-0.1-0.8-0.2
		c-0.2-0.1-0.4-0.3-0.5-0.5C22,11,22,10.8,22,10.5c0-0.4,0.1-0.7,0.4-0.9c0.3-0.2,0.7-0.3,1.2-0.3h1.2V9.1c0-0.3-0.1-0.4-0.2-0.6
		c-0.2-0.1-0.4-0.2-0.7-0.2c-0.4,0-0.8,0.1-1.3,0.4L22.2,8c0.3-0.2,0.6-0.3,0.9-0.4c0.3-0.1,0.6-0.1,1-0.1c0.6,0,1,0.1,1.3,0.4
		c0.3,0.3,0.5,0.6,0.5,1.1l0,2.8H24.9z M24.5,10.9c0.2-0.1,0.3-0.3,0.4-0.5V9.9h-1.1c-0.3,0-0.5,0-0.6,0.1C23,10.2,23,10.3,23,10.5
		c0,0.2,0.1,0.3,0.2,0.4c0.1,0.1,0.3,0.2,0.6,0.2C24,11.1,24.3,11,24.5,10.9z"/>
	<path class="st1" d="M36.7,8.6c-0.5-0.2-0.9-0.3-1.4-0.3c-0.6,0-1.1,0.1-1.6,0.4c-0.5,0.3-0.9,0.7-1.2,1.2c-0.3,0.5-0.4,1-0.4,1.6
		c0,0.6,0.1,1.1,0.4,1.6c0.3,0.5,0.7,0.9,1.2,1.2c0.5,0.3,1,0.4,1.6,0.4c0.5,0,0.9-0.1,1.4-0.3c0.5-0.2,0.9-0.5,1.2-0.8l1.1,1.2
		c-0.5,0.5-1.1,0.9-1.8,1.2c-0.7,0.3-1.3,0.4-2,0.4c-0.9,0-1.8-0.2-2.5-0.7c-0.8-0.4-1.4-1-1.8-1.8c-0.4-0.8-0.7-1.6-0.7-2.5
		c0-0.9,0.2-1.8,0.7-2.5c0.4-0.8,1.1-1.3,1.8-1.8c0.8-0.4,1.6-0.6,2.6-0.6c0.7,0,1.4,0.1,2,0.4C38,7.3,38.5,7.7,39,8.2l-1.1,1.3
		C37.6,9.2,37.2,8.9,36.7,8.6z"/>
	<path class="st1" d="M44.8,16.4v-0.9c-0.3,0.3-0.6,0.6-1,0.7c-0.4,0.2-0.9,0.2-1.4,0.2c-0.5,0-1-0.1-1.4-0.3
		c-0.4-0.2-0.7-0.5-0.9-0.8c-0.2-0.3-0.3-0.7-0.3-1.2c0-0.7,0.2-1.2,0.7-1.6c0.5-0.4,1.2-0.6,2.1-0.6h2.1v-0.2c0-0.4-0.1-0.8-0.4-1
		c-0.3-0.2-0.7-0.4-1.2-0.4c-0.7,0-1.4,0.2-2.2,0.7l-0.6-1.2c0.6-0.3,1.1-0.6,1.6-0.7C42.3,9,42.9,9,43.5,9c1,0,1.7,0.2,2.2,0.7
		c0.5,0.5,0.8,1.1,0.8,1.9l0,4.8H44.8z M44.2,14.7c0.4-0.2,0.6-0.5,0.6-0.9v-0.7h-1.9c-0.5,0-0.8,0.1-1.1,0.2
		c-0.2,0.1-0.3,0.4-0.3,0.7c0,0.3,0.1,0.6,0.4,0.7c0.2,0.2,0.6,0.3,1,0.3C43.4,15.1,43.8,15,44.2,14.7z"/>
	<path class="st1" d="M54.7,9.5c0.5,0.3,0.9,0.8,1.2,1.3c0.3,0.6,0.4,1.2,0.4,2c0,0.7-0.1,1.4-0.4,1.9c-0.3,0.6-0.7,1-1.2,1.3
		c-0.5,0.3-1.1,0.5-1.8,0.5c-0.5,0-1-0.1-1.5-0.3c-0.4-0.2-0.8-0.5-1-0.9v3.9h-1.8V9h1.8v1.2c0.3-0.4,0.6-0.7,1-0.9
		C51.9,9.1,52.3,9,52.9,9C53.6,9,54.2,9.1,54.7,9.5z M54,14.3c0.4-0.4,0.6-1,0.6-1.6c0-0.7-0.2-1.2-0.6-1.6s-0.9-0.6-1.5-0.6
		c-0.6,0-1.1,0.2-1.5,0.6c-0.4,0.4-0.6,0.9-0.6,1.6c0,0.7,0.2,1.2,0.6,1.6c0.4,0.4,0.9,0.6,1.5,0.6C53.1,14.9,53.6,14.7,54,14.3z"/>
	<path class="st1" d="M62.3,16.4v-0.9c-0.3,0.3-0.6,0.6-1,0.7c-0.4,0.2-0.9,0.2-1.4,0.2c-0.5,0-1-0.1-1.4-0.3
		c-0.4-0.2-0.7-0.5-0.9-0.8c-0.2-0.3-0.3-0.7-0.3-1.2c0-0.7,0.2-1.2,0.7-1.6c0.5-0.4,1.2-0.6,2.1-0.6h2.1v-0.2c0-0.4-0.1-0.8-0.4-1
		c-0.3-0.2-0.7-0.4-1.2-0.4c-0.7,0-1.4,0.2-2.2,0.7l-0.6-1.2c0.6-0.3,1.1-0.6,1.6-0.7C59.8,9,60.4,9,61,9c1,0,1.7,0.2,2.2,0.7
		c0.5,0.5,0.8,1.1,0.8,1.9l0,4.8H62.3z M61.6,14.7c0.4-0.2,0.6-0.5,0.6-0.9v-0.7h-1.9c-0.5,0-0.8,0.1-1.1,0.2
		c-0.2,0.1-0.3,0.4-0.3,0.7c0,0.3,0.1,0.6,0.4,0.7c0.2,0.2,0.6,0.3,1,0.3C60.8,15.1,61.3,15,61.6,14.7z"/>
	<path class="st1" d="M67.1,10.7c0.2,0.2,0.3,0.4,0.3,0.7c0,0.3-0.1,0.5-0.3,0.7s-0.4,0.3-0.7,0.3c-0.3,0-0.5-0.1-0.7-0.3
		c-0.2-0.2-0.3-0.4-0.3-0.7c0-0.3,0.1-0.5,0.3-0.7c0.2-0.2,0.4-0.3,0.7-0.3C66.7,10.5,67,10.6,67.1,10.7z M67.1,14.8
		c0.2,0.2,0.3,0.4,0.3,0.7c0,0.3-0.1,0.5-0.3,0.7s-0.4,0.3-0.7,0.3c-0.3,0-0.5-0.1-0.7-0.3c-0.2-0.2-0.3-0.4-0.3-0.7
		c0-0.3,0.1-0.5,0.3-0.7c0.2-0.2,0.4-0.3,0.7-0.3C66.7,14.5,67,14.6,67.1,14.8z"/>
</g>
<g>
	<path class="st2" d="M13,30.1h1.3v9.6H13l-5.5-7.5v7.5H6.2v-9.6h1.3l5.5,7.5V30.1z"/>
	<path class="st2" d="M23.4,32.4v7.3h-1.3v-1.5c-0.5,1-1.4,1.6-2.7,1.6c-0.8,0-1.5-0.2-2-0.7c-0.5-0.5-0.7-1.2-0.7-2.1v-4.5H18v4.2
		c0,0.6,0.2,1.1,0.5,1.4c0.3,0.3,0.8,0.5,1.4,0.5c0.7,0,1.2-0.2,1.6-0.7c0.4-0.5,0.6-1.1,0.6-1.8v-3.6H23.4z M21,29.4l1.3,0.6
		l-1.7,1.3l-1.1-0.1L21,29.4z"/>
	<path class="st2" d="M28.9,33.5c-0.5,0-0.9,0.1-1.3,0.3c-0.4,0.2-0.7,0.5-0.9,0.9c-0.2,0.4-0.3,0.8-0.3,1.3c0,0.5,0.1,0.9,0.3,1.3
		c0.2,0.4,0.5,0.7,0.9,0.9c0.4,0.2,0.8,0.3,1.2,0.3s0.9-0.1,1.3-0.2c0.4-0.2,0.7-0.4,0.9-0.7l0.7,0.7c-0.3,0.4-0.7,0.7-1.3,0.9
		c-0.5,0.2-1.1,0.3-1.7,0.3c-0.7,0-1.3-0.2-1.9-0.5s-1-0.7-1.3-1.3c-0.3-0.6-0.5-1.2-0.5-1.9c0-0.7,0.2-1.4,0.5-1.9
		c0.3-0.6,0.7-1,1.3-1.3c0.5-0.3,1.2-0.5,1.9-0.5c0.6,0,1.2,0.1,1.7,0.3c0.5,0.2,0.9,0.5,1.2,0.8L31,34.4
		C30.4,33.8,29.7,33.5,28.9,33.5z"/>
	<path class="st2" d="M33.7,29.5H35v10.2h-1.3V29.5z"/>
	<path class="st2" d="M43,33.4c0.6,0.7,0.9,1.6,0.9,2.8c0,0.2,0,0.3,0,0.4h-5.7c0.1,0.7,0.4,1.2,0.8,1.6c0.4,0.4,1,0.6,1.6,0.6
		c0.4,0,0.8-0.1,1.2-0.2c0.4-0.2,0.7-0.4,1-0.7l0.7,0.7c-0.4,0.4-0.8,0.7-1.3,0.9c-0.5,0.2-1.1,0.3-1.7,0.3c-0.7,0-1.4-0.2-1.9-0.5
		c-0.6-0.3-1-0.7-1.3-1.3c-0.3-0.6-0.5-1.2-0.5-1.9c0-0.7,0.2-1.3,0.5-1.9c0.3-0.6,0.7-1,1.3-1.3c0.5-0.3,1.2-0.5,1.9-0.5
		C41.6,32.4,42.5,32.7,43,33.4z M42.7,35.6c0-0.7-0.3-1.2-0.7-1.6c-0.4-0.4-0.9-0.6-1.6-0.6c-0.6,0-1.2,0.2-1.6,0.6
		c-0.4,0.4-0.7,0.9-0.8,1.6H42.7z"/>
	<path class="st2" d="M50.6,32.9c0.6,0.3,1,0.7,1.3,1.3c0.3,0.6,0.5,1.2,0.5,1.9c0,0.7-0.2,1.4-0.5,1.9c-0.3,0.6-0.8,1-1.3,1.3
		c-0.6,0.3-1.2,0.5-1.9,0.5c-0.7,0-1.4-0.2-1.9-0.5c-0.6-0.3-1-0.7-1.3-1.3c-0.3-0.6-0.5-1.2-0.5-1.9c0-0.7,0.2-1.3,0.5-1.9
		c0.3-0.6,0.8-1,1.3-1.3c0.6-0.3,1.2-0.5,1.9-0.5C49.4,32.4,50,32.6,50.6,32.9z M47.4,33.8c-0.4,0.2-0.7,0.5-0.9,0.9
		c-0.2,0.4-0.3,0.8-0.3,1.3c0,0.5,0.1,1,0.3,1.3c0.2,0.4,0.5,0.7,0.9,0.9c0.4,0.2,0.8,0.3,1.3,0.3c0.5,0,0.9-0.1,1.3-0.3
		c0.4-0.2,0.7-0.5,0.9-0.9c0.2-0.4,0.3-0.8,0.3-1.3c0-0.5-0.1-0.9-0.3-1.3c-0.2-0.4-0.5-0.7-0.9-0.9c-0.4-0.2-0.8-0.3-1.3-0.3
		C48.2,33.5,47.8,33.6,47.4,33.8z"/>
	<path class="st2" d="M62.7,32.9c0.6,0.3,1,0.7,1.3,1.3c0.3,0.6,0.5,1.2,0.5,1.9c0,0.7-0.2,1.4-0.5,1.9c-0.3,0.6-0.8,1-1.3,1.3
		c-0.6,0.3-1.2,0.5-1.9,0.5c-0.7,0-1.4-0.2-1.9-0.5c-0.6-0.3-1-0.7-1.3-1.3c-0.3-0.6-0.5-1.2-0.5-1.9c0-0.7,0.2-1.3,0.5-1.9
		c0.3-0.6,0.8-1,1.3-1.3c0.6-0.3,1.2-0.5,1.9-0.5C61.5,32.4,62.2,32.6,62.7,32.9z M59.5,33.8c-0.4,0.2-0.7,0.5-0.9,0.9
		c-0.2,0.4-0.3,0.8-0.3,1.3c0,0.5,0.1,1,0.3,1.3c0.2,0.4,0.5,0.7,0.9,0.9c0.4,0.2,0.8,0.3,1.3,0.3c0.5,0,0.9-0.1,1.3-0.3
		c0.4-0.2,0.7-0.5,0.9-0.9c0.2-0.4,0.3-0.8,0.3-1.3c0-0.5-0.1-0.9-0.3-1.3c-0.2-0.4-0.5-0.7-0.9-0.9c-0.4-0.2-0.8-0.3-1.3-0.3
		C60.3,33.5,59.9,33.6,59.5,33.8z"/>
	<path class="st2" d="M66.4,29.5h1.3v10.2h-1.3V29.5z"/>
	<path class="st2" d="M75.7,33.4c0.6,0.7,0.9,1.6,0.9,2.8c0,0.2,0,0.3,0,0.4h-5.7c0.1,0.7,0.4,1.2,0.8,1.6c0.4,0.4,1,0.6,1.6,0.6
		c0.4,0,0.8-0.1,1.2-0.2c0.4-0.2,0.7-0.4,1-0.7l0.7,0.7c-0.4,0.4-0.8,0.7-1.3,0.9c-0.5,0.2-1.1,0.3-1.7,0.3c-0.7,0-1.4-0.2-1.9-0.5
		c-0.6-0.3-1-0.7-1.3-1.3c-0.3-0.6-0.5-1.2-0.5-1.9c0-0.7,0.2-1.3,0.5-1.9c0.3-0.6,0.7-1,1.3-1.3c0.5-0.3,1.2-0.5,1.9-0.5
		C74.3,32.4,75.1,32.7,75.7,33.4z M75.4,35.6c0-0.7-0.3-1.2-0.7-1.6c-0.4-0.4-0.9-0.6-1.6-0.6c-0.6,0-1.2,0.2-1.6,0.6
		c-0.4,0.4-0.7,0.9-0.8,1.6H75.4z"/>
	<path class="st2" d="M83.3,32.9c0.6,0.3,1,0.7,1.3,1.3c0.3,0.6,0.5,1.2,0.5,1.9c0,0.7-0.2,1.4-0.5,1.9c-0.3,0.6-0.8,1-1.3,1.3
		c-0.6,0.3-1.2,0.5-1.9,0.5c-0.7,0-1.4-0.2-1.9-0.5c-0.6-0.3-1-0.7-1.3-1.3c-0.3-0.6-0.5-1.2-0.5-1.9c0-0.7,0.2-1.3,0.5-1.9
		c0.3-0.6,0.8-1,1.3-1.3c0.6-0.3,1.2-0.5,1.9-0.5C82.1,32.4,82.7,32.6,83.3,32.9z M80.1,33.8c-0.4,0.2-0.7,0.5-0.9,0.9
		c-0.2,0.4-0.3,0.8-0.3,1.3c0,0.5,0.1,1,0.3,1.3c0.2,0.4,0.5,0.7,0.9,0.9c0.4,0.2,0.8,0.3,1.3,0.3c0.5,0,0.9-0.1,1.3-0.3
		c0.4-0.2,0.7-0.5,0.9-0.9c0.2-0.4,0.3-0.8,0.3-1.3c0-0.5-0.1-0.9-0.3-1.3c-0.2-0.4-0.5-0.7-0.9-0.9c-0.4-0.2-0.8-0.3-1.3-0.3
		C80.9,33.5,80.4,33.6,80.1,33.8z"/>
	<path class="st2" d="M89.8,33.6c-0.4-0.1-0.7-0.2-1-0.2c-0.4,0-0.7,0.1-0.9,0.2c-0.2,0.1-0.4,0.4-0.4,0.7c0,0.3,0.1,0.5,0.4,0.7
		c0.3,0.2,0.7,0.3,1.2,0.5c0.5,0.1,0.9,0.3,1.2,0.4c0.3,0.1,0.6,0.4,0.8,0.6c0.2,0.3,0.3,0.7,0.3,1.1c0,0.7-0.3,1.2-0.8,1.6
		c-0.5,0.4-1.2,0.5-1.9,0.5c-0.5,0-1.1-0.1-1.6-0.3c-0.5-0.2-0.9-0.4-1.3-0.7l0.5-0.9c0.3,0.3,0.7,0.5,1.1,0.7
		c0.4,0.2,0.9,0.2,1.3,0.2c0.4,0,0.8-0.1,1-0.2c0.3-0.2,0.4-0.4,0.4-0.7c0-0.3-0.1-0.6-0.4-0.7c-0.3-0.2-0.7-0.3-1.2-0.5
		c-0.5-0.1-0.9-0.3-1.2-0.4c-0.3-0.1-0.6-0.4-0.8-0.6c-0.2-0.3-0.3-0.6-0.3-1.1c0-0.7,0.2-1.2,0.7-1.5c0.5-0.3,1.1-0.5,1.9-0.5
		c0.4,0,0.9,0.1,1.3,0.2c0.4,0.1,0.8,0.3,1.1,0.5l-0.5,1C90.5,33.9,90.2,33.7,89.8,33.6z"/>
	<path class="st2" d="M98.1,32.9c0.6,0.3,1,0.7,1.3,1.3c0.3,0.6,0.5,1.2,0.5,1.9c0,0.7-0.2,1.4-0.5,1.9c-0.3,0.6-0.8,1-1.3,1.3
		c-0.6,0.3-1.2,0.5-1.9,0.5c-0.7,0-1.4-0.2-1.9-0.5c-0.6-0.3-1-0.7-1.3-1.3c-0.3-0.6-0.5-1.2-0.5-1.9c0-0.7,0.2-1.3,0.5-1.9
		c0.3-0.6,0.8-1,1.3-1.3c0.6-0.3,1.2-0.5,1.9-0.5C96.9,32.4,97.6,32.6,98.1,32.9z M94.9,33.8c-0.4,0.2-0.7,0.5-0.9,0.9
		c-0.2,0.4-0.3,0.8-0.3,1.3c0,0.5,0.1,1,0.3,1.3c0.2,0.4,0.5,0.7,0.9,0.9c0.4,0.2,0.8,0.3,1.3,0.3c0.5,0,0.9-0.1,1.3-0.3
		c0.4-0.2,0.7-0.5,0.9-0.9c0.2-0.4,0.3-0.8,0.3-1.3c0-0.5-0.1-0.9-0.3-1.3c-0.2-0.4-0.5-0.7-0.9-0.9c-0.4-0.2-0.8-0.3-1.3-0.3
		C95.7,33.5,95.3,33.6,94.9,33.8z"/>
	<path class="st2" d="M112.1,32.4v9.9h-1.3v-4.1c-0.3,0.5-0.6,0.9-1.1,1.1c-0.5,0.3-1,0.4-1.6,0.4c-0.7,0-1.3-0.2-1.8-0.5
		c-0.5-0.3-0.9-0.8-1.2-1.3c-0.3-0.6-0.4-1.2-0.4-1.9c0-0.7,0.1-1.3,0.4-1.9c0.3-0.6,0.7-1,1.2-1.3c0.5-0.3,1.1-0.5,1.8-0.5
		c0.6,0,1.2,0.1,1.6,0.4c0.5,0.3,0.8,0.6,1.1,1.1v-1.4H112.1z M109.6,38.4c0.4-0.2,0.7-0.5,0.9-0.9c0.2-0.4,0.3-0.8,0.3-1.3
		c0-0.5-0.1-1-0.3-1.3c-0.2-0.4-0.5-0.7-0.9-0.9c-0.4-0.2-0.8-0.3-1.3-0.3c-0.5,0-0.9,0.1-1.3,0.3c-0.4,0.2-0.7,0.5-0.9,0.9
		c-0.2,0.4-0.3,0.8-0.3,1.3c0,0.5,0.1,0.9,0.3,1.3c0.2,0.4,0.5,0.7,0.9,0.9c0.4,0.2,0.8,0.3,1.3,0.3
		C108.8,38.7,109.3,38.6,109.6,38.4z"/>
	<path class="st2" d="M121.1,32.4v7.3h-1.3v-1.5c-0.5,1-1.4,1.6-2.7,1.6c-0.8,0-1.5-0.2-2-0.7c-0.5-0.5-0.7-1.2-0.7-2.1v-4.5h1.3
		v4.2c0,0.6,0.2,1.1,0.5,1.4c0.3,0.3,0.8,0.5,1.4,0.5c0.7,0,1.2-0.2,1.6-0.7c0.4-0.5,0.6-1.1,0.6-1.8v-3.6H121.1z"/>
	<path class="st2" d="M129.1,33.4c0.6,0.7,0.9,1.6,0.9,2.8c0,0.2,0,0.3,0,0.4h-5.7c0.1,0.7,0.4,1.2,0.8,1.6c0.4,0.4,1,0.6,1.6,0.6
		c0.4,0,0.8-0.1,1.2-0.2c0.4-0.2,0.7-0.4,1-0.7l0.7,0.7c-0.4,0.4-0.8,0.7-1.3,0.9c-0.5,0.2-1.1,0.3-1.7,0.3c-0.7,0-1.4-0.2-1.9-0.5
		c-0.6-0.3-1-0.7-1.3-1.3c-0.3-0.6-0.5-1.2-0.5-1.9c0-0.7,0.2-1.3,0.5-1.9c0.3-0.6,0.7-1,1.3-1.3c0.5-0.3,1.2-0.5,1.9-0.5
		C127.6,32.4,128.5,32.7,129.1,33.4z M128.8,35.6c0-0.7-0.3-1.2-0.7-1.6c-0.4-0.4-0.9-0.6-1.6-0.6c-0.6,0-1.2,0.2-1.6,0.6
		c-0.4,0.4-0.7,0.9-0.8,1.6H128.8z"/>
	<path class="st2" d="M138.3,33.5c-0.5,0-0.9,0.1-1.3,0.3c-0.4,0.2-0.7,0.5-0.9,0.9c-0.2,0.4-0.3,0.8-0.3,1.3c0,0.5,0.1,0.9,0.3,1.3
		c0.2,0.4,0.5,0.7,0.9,0.9c0.4,0.2,0.8,0.3,1.2,0.3s0.9-0.1,1.3-0.2c0.4-0.2,0.7-0.4,0.9-0.7l0.7,0.7c-0.3,0.4-0.7,0.7-1.3,0.9
		c-0.5,0.2-1.1,0.3-1.7,0.3c-0.7,0-1.3-0.2-1.9-0.5c-0.5-0.3-1-0.7-1.3-1.3c-0.3-0.6-0.5-1.2-0.5-1.9c0-0.7,0.2-1.4,0.5-1.9
		c0.3-0.6,0.7-1,1.3-1.3c0.5-0.3,1.2-0.5,1.9-0.5c0.6,0,1.2,0.1,1.7,0.3c0.5,0.2,0.9,0.5,1.2,0.8l-0.7,0.9
		C139.8,33.8,139.1,33.5,138.3,33.5z"/>
	<path class="st2" d="M147.6,32.9c0.6,0.3,1,0.7,1.3,1.3c0.3,0.6,0.5,1.2,0.5,1.9c0,0.7-0.2,1.4-0.5,1.9c-0.3,0.6-0.8,1-1.3,1.3
		c-0.6,0.3-1.2,0.5-1.9,0.5c-0.7,0-1.4-0.2-1.9-0.5c-0.6-0.3-1-0.7-1.3-1.3c-0.3-0.6-0.5-1.2-0.5-1.9c0-0.7,0.2-1.3,0.5-1.9
		c0.3-0.6,0.8-1,1.3-1.3c0.6-0.3,1.2-0.5,1.9-0.5C146.4,32.4,147.1,32.6,147.6,32.9z M144.4,33.8c-0.4,0.2-0.7,0.5-0.9,0.9
		c-0.2,0.4-0.3,0.8-0.3,1.3c0,0.5,0.1,1,0.3,1.3c0.2,0.4,0.5,0.7,0.9,0.9c0.4,0.2,0.8,0.3,1.3,0.3c0.5,0,0.9-0.1,1.3-0.3
		c0.4-0.2,0.7-0.5,0.9-0.9c0.2-0.4,0.3-0.8,0.3-1.3c0-0.5-0.1-0.9-0.3-1.3c-0.2-0.4-0.5-0.7-0.9-0.9c-0.4-0.2-0.8-0.3-1.3-0.3
		C145.2,33.5,144.8,33.6,144.4,33.8z"/>
	<path class="st2" d="M157.3,33.2c0.5,0.5,0.7,1.2,0.7,2.1v4.5h-1.3v-4.2c0-0.6-0.2-1.1-0.5-1.4c-0.3-0.3-0.8-0.5-1.4-0.5
		c-0.7,0-1.2,0.2-1.6,0.6c-0.4,0.4-0.6,0.9-0.7,1.6v3.9h-1.3v-7.3h1.3V34c0.5-1,1.4-1.6,2.8-1.6C156.1,32.4,156.8,32.7,157.3,33.2z"
		/>
	<path class="st2" d="M164.2,39.2c-0.6,0.4-1.1,0.5-1.7,0.5c-0.6,0-1-0.2-1.4-0.5c-0.4-0.3-0.5-0.9-0.5-1.6v-4h-1v-1h1v-2h1.3v2h2.2
		v1h-2.2v3.8c0,0.4,0.1,0.7,0.2,0.9c0.1,0.2,0.4,0.3,0.7,0.3c0.3,0,0.7-0.1,1.1-0.3L164.2,39.2z"/>
	<path class="st2" d="M166.9,29.8c0.2,0.2,0.2,0.4,0.2,0.6c0,0.2-0.1,0.4-0.2,0.6c-0.2,0.2-0.3,0.2-0.6,0.2s-0.4-0.1-0.6-0.2
		c-0.2-0.2-0.2-0.4-0.2-0.6c0-0.2,0.1-0.4,0.2-0.6c0.2-0.2,0.3-0.2,0.6-0.2S166.8,29.6,166.9,29.8z M165.7,32.4h1.3v7.3h-1.3V32.4z"
		/>
	<path class="st2" d="M175,33.4c0.6,0.7,0.9,1.6,0.9,2.8c0,0.2,0,0.3,0,0.4h-5.7c0.1,0.7,0.4,1.2,0.8,1.6c0.4,0.4,1,0.6,1.6,0.6
		c0.4,0,0.8-0.1,1.2-0.2c0.4-0.2,0.7-0.4,1-0.7l0.7,0.7c-0.4,0.4-0.8,0.7-1.3,0.9c-0.5,0.2-1.1,0.3-1.7,0.3c-0.7,0-1.4-0.2-1.9-0.5
		c-0.6-0.3-1-0.7-1.3-1.3c-0.3-0.6-0.5-1.2-0.5-1.9c0-0.7,0.2-1.3,0.5-1.9c0.3-0.6,0.7-1,1.3-1.3s1.2-0.5,1.9-0.5
		C173.5,32.4,174.4,32.7,175,33.4z M174.7,35.6c0-0.7-0.3-1.2-0.7-1.6c-0.4-0.4-0.9-0.6-1.6-0.6c-0.6,0-1.2,0.2-1.6,0.6
		c-0.4,0.4-0.7,0.9-0.8,1.6H174.7z"/>
	<path class="st2" d="M183.6,33.2c0.5,0.5,0.7,1.2,0.7,2.1v4.5h-1.3v-4.2c0-0.6-0.2-1.1-0.5-1.4c-0.3-0.3-0.8-0.5-1.4-0.5
		c-0.7,0-1.2,0.2-1.6,0.6c-0.4,0.4-0.6,0.9-0.7,1.6v3.9h-1.3v-7.3h1.3V34c0.5-1,1.4-1.6,2.8-1.6C182.5,32.4,183.2,32.7,183.6,33.2z"
		/>
	<path class="st2" d="M192.1,33.4c0.6,0.7,0.9,1.6,0.9,2.8c0,0.2,0,0.3,0,0.4h-5.7c0.1,0.7,0.4,1.2,0.8,1.6c0.4,0.4,1,0.6,1.6,0.6
		c0.4,0,0.8-0.1,1.2-0.2c0.4-0.2,0.7-0.4,1-0.7l0.7,0.7c-0.4,0.4-0.8,0.7-1.3,0.9c-0.5,0.2-1.1,0.3-1.7,0.3c-0.7,0-1.4-0.2-1.9-0.5
		c-0.6-0.3-1-0.7-1.3-1.3c-0.3-0.6-0.5-1.2-0.5-1.9c0-0.7,0.2-1.3,0.5-1.9c0.3-0.6,0.7-1,1.3-1.3s1.2-0.5,1.9-0.5
		C190.7,32.4,191.5,32.7,192.1,33.4z M191.8,35.6c0-0.7-0.3-1.2-0.7-1.6c-0.4-0.4-0.9-0.6-1.6-0.6c-0.6,0-1.2,0.2-1.6,0.6
		c-0.4,0.4-0.7,0.9-0.8,1.6H191.8z"/>
	<path class="st2" d="M198.4,29.5h1.3v10.2h-1.3V29.5z"/>
	<path class="st2" d="M207.2,32.9c0.6,0.3,1,0.7,1.3,1.3c0.3,0.6,0.5,1.2,0.5,1.9c0,0.7-0.2,1.4-0.5,1.9c-0.3,0.6-0.8,1-1.3,1.3
		c-0.6,0.3-1.2,0.5-1.9,0.5c-0.7,0-1.4-0.2-1.9-0.5c-0.6-0.3-1-0.7-1.3-1.3c-0.3-0.6-0.5-1.2-0.5-1.9c0-0.7,0.2-1.3,0.5-1.9
		c0.3-0.6,0.8-1,1.3-1.3c0.6-0.3,1.2-0.5,1.9-0.5C206,32.4,206.6,32.6,207.2,32.9z M204,33.8c-0.4,0.2-0.7,0.5-0.9,0.9
		c-0.2,0.4-0.3,0.8-0.3,1.3c0,0.5,0.1,1,0.3,1.3c0.2,0.4,0.5,0.7,0.9,0.9c0.4,0.2,0.8,0.3,1.3,0.3c0.5,0,0.9-0.1,1.3-0.3
		c0.4-0.2,0.7-0.5,0.9-0.9c0.2-0.4,0.3-0.8,0.3-1.3c0-0.5-0.1-0.9-0.3-1.3c-0.2-0.4-0.5-0.7-0.9-0.9c-0.4-0.2-0.8-0.3-1.3-0.3
		C204.8,33.5,204.4,33.6,204,33.8z"/>
	<path class="st2" d="M213.8,33.6c-0.4-0.1-0.7-0.2-1-0.2c-0.4,0-0.7,0.1-0.9,0.2c-0.2,0.1-0.4,0.4-0.4,0.7c0,0.3,0.1,0.5,0.4,0.7
		c0.3,0.2,0.7,0.3,1.2,0.5c0.5,0.1,0.9,0.3,1.2,0.4c0.3,0.1,0.6,0.4,0.8,0.6c0.2,0.3,0.3,0.7,0.3,1.1c0,0.7-0.3,1.2-0.8,1.6
		c-0.5,0.4-1.2,0.5-1.9,0.5c-0.5,0-1.1-0.1-1.6-0.3c-0.5-0.2-0.9-0.4-1.3-0.7l0.5-0.9c0.3,0.3,0.7,0.5,1.1,0.7
		c0.4,0.2,0.9,0.2,1.3,0.2c0.4,0,0.8-0.1,1-0.2c0.3-0.2,0.4-0.4,0.4-0.7c0-0.3-0.1-0.6-0.4-0.7c-0.3-0.2-0.7-0.3-1.2-0.5
		c-0.5-0.1-0.9-0.3-1.2-0.4c-0.3-0.1-0.6-0.4-0.8-0.6c-0.2-0.3-0.3-0.6-0.3-1.1c0-0.7,0.2-1.2,0.7-1.5c0.5-0.3,1.1-0.5,1.9-0.5
		c0.4,0,0.9,0.1,1.3,0.2c0.4,0.1,0.8,0.3,1.1,0.5l-0.5,1C214.5,33.9,214.1,33.7,213.8,33.6z"/>
	<path class="st2" d="M11.9,49.8c0.5,0.3,0.9,0.7,1.2,1.3c0.3,0.6,0.4,1.2,0.4,1.9c0,0.7-0.1,1.3-0.4,1.9c-0.3,0.6-0.7,1-1.2,1.3
		c-0.5,0.3-1.1,0.5-1.8,0.5c-0.6,0-1.2-0.1-1.6-0.4c-0.5-0.3-0.8-0.6-1.1-1.1v4.1H6.1v-9.9h1.3v1.4c0.3-0.5,0.6-0.8,1.1-1.1
		c0.5-0.3,1-0.4,1.6-0.4C10.8,49.3,11.4,49.5,11.9,49.8z M11.1,55.2c0.4-0.2,0.7-0.5,0.9-0.9c0.2-0.4,0.3-0.8,0.3-1.3
		c0-0.5-0.1-0.9-0.3-1.3c-0.2-0.4-0.5-0.7-0.9-0.9c-0.4-0.2-0.8-0.3-1.3-0.3c-0.5,0-0.9,0.1-1.3,0.3c-0.4,0.2-0.7,0.5-0.9,0.9
		C7.5,52,7.4,52.5,7.4,53c0,0.5,0.1,1,0.3,1.3c0.2,0.4,0.5,0.7,0.9,0.9c0.4,0.2,0.8,0.3,1.3,0.3C10.3,55.5,10.8,55.4,11.1,55.2z"/>
	<path class="st2" d="M17.7,49.7c0.4-0.3,1-0.4,1.6-0.4v1.2c-0.7,0-1.3,0.2-1.8,0.6c-0.5,0.4-0.7,1-0.8,1.7v3.8h-1.3v-7.3h1.3v1.6
		C16.9,50.4,17.3,50,17.7,49.7z"/>
	<path class="st2" d="M25.6,49.8c0.6,0.3,1,0.7,1.3,1.3c0.3,0.6,0.5,1.2,0.5,1.9c0,0.7-0.2,1.4-0.5,1.9c-0.3,0.6-0.8,1-1.3,1.3
		c-0.6,0.3-1.2,0.5-1.9,0.5c-0.7,0-1.4-0.2-1.9-0.5c-0.6-0.3-1-0.7-1.3-1.3c-0.3-0.6-0.5-1.2-0.5-1.9c0-0.7,0.2-1.3,0.5-1.9
		c0.3-0.6,0.8-1,1.3-1.3c0.6-0.3,1.2-0.5,1.9-0.5C24.4,49.3,25,49.5,25.6,49.8z M22.4,50.7c-0.4,0.2-0.7,0.5-0.9,0.9
		c-0.2,0.4-0.3,0.8-0.3,1.3c0,0.5,0.1,1,0.3,1.3c0.2,0.4,0.5,0.7,0.9,0.9c0.4,0.2,0.8,0.3,1.3,0.3c0.5,0,0.9-0.1,1.3-0.3
		c0.4-0.2,0.7-0.5,0.9-0.9c0.2-0.4,0.3-0.8,0.3-1.3c0-0.5-0.1-0.9-0.3-1.3c-0.2-0.4-0.5-0.7-0.9-0.9c-0.4-0.2-0.8-0.3-1.3-0.3
		C23.2,50.4,22.8,50.5,22.4,50.7z"/>
	<path class="st2" d="M35,49.8c0.5,0.3,0.9,0.7,1.2,1.3c0.3,0.6,0.4,1.2,0.4,1.9c0,0.7-0.1,1.3-0.4,1.9c-0.3,0.6-0.7,1-1.2,1.3
		c-0.5,0.3-1.1,0.5-1.8,0.5c-0.6,0-1.2-0.1-1.6-0.4c-0.5-0.3-0.8-0.6-1.1-1.1v1.4h-1.3V46.4h1.3v4.4c0.3-0.5,0.6-0.8,1.1-1.1
		c0.5-0.3,1-0.4,1.6-0.4C33.9,49.3,34.5,49.5,35,49.8z M34.2,55.2c0.4-0.2,0.7-0.5,0.9-0.9c0.2-0.4,0.3-0.8,0.3-1.3
		c0-0.5-0.1-0.9-0.3-1.3c-0.2-0.4-0.5-0.7-0.9-0.9c-0.4-0.2-0.8-0.3-1.3-0.3c-0.5,0-0.9,0.1-1.3,0.3c-0.4,0.2-0.7,0.5-0.9,0.9
		c-0.2,0.4-0.3,0.8-0.3,1.3c0,0.5,0.1,1,0.3,1.3c0.2,0.4,0.5,0.7,0.9,0.9c0.4,0.2,0.8,0.3,1.3,0.3C33.4,55.5,33.9,55.4,34.2,55.2z"
		/>
	<path class="st2" d="M39.7,46.7c0.2,0.2,0.2,0.4,0.2,0.6c0,0.2-0.1,0.4-0.2,0.6c-0.2,0.2-0.3,0.2-0.6,0.2s-0.4-0.1-0.6-0.2
		c-0.2-0.2-0.2-0.4-0.2-0.6c0-0.2,0.1-0.4,0.2-0.6c0.2-0.2,0.3-0.2,0.6-0.2S39.6,46.5,39.7,46.7z M38.5,49.3h1.3v7.3h-1.3V49.3z"/>
	<path class="st2" d="M47.2,49.8c0.6,0.3,1,0.7,1.3,1.3c0.3,0.6,0.5,1.2,0.5,1.9c0,0.7-0.2,1.4-0.5,1.9c-0.3,0.6-0.8,1-1.3,1.3
		c-0.6,0.3-1.2,0.5-1.9,0.5c-0.7,0-1.4-0.2-1.9-0.5c-0.6-0.3-1-0.7-1.3-1.3c-0.3-0.6-0.5-1.2-0.5-1.9c0-0.7,0.2-1.3,0.5-1.9
		c0.3-0.6,0.8-1,1.3-1.3c0.6-0.3,1.2-0.5,1.9-0.5C46,49.3,46.7,49.5,47.2,49.8z M44,50.7c-0.4,0.2-0.7,0.5-0.9,0.9
		C43,52,42.8,52.5,42.8,53c0,0.5,0.1,1,0.3,1.3c0.2,0.4,0.5,0.7,0.9,0.9c0.4,0.2,0.8,0.3,1.3,0.3c0.5,0,0.9-0.1,1.3-0.3
		c0.4-0.2,0.7-0.5,0.9-0.9c0.2-0.4,0.3-0.8,0.3-1.3c0-0.5-0.1-0.9-0.3-1.3c-0.2-0.4-0.5-0.7-0.9-0.9c-0.4-0.2-0.8-0.3-1.3-0.3
		C44.8,50.4,44.4,50.5,44,50.7z M46.1,46.3l1.3,0.6l-1.7,1.3l-1.1-0.1L46.1,46.3z"/>
	<path class="st2" d="M54.7,56.1c-0.6,0.4-1.1,0.5-1.7,0.5c-0.6,0-1-0.2-1.4-0.5c-0.4-0.3-0.5-0.9-0.5-1.6v-4h-1v-1h1v-2h1.3v2h2.2
		v1h-2.2v3.8c0,0.4,0.1,0.7,0.2,0.9c0.1,0.2,0.4,0.3,0.7,0.3c0.3,0,0.7-0.1,1.1-0.3L54.7,56.1z"/>
	<path class="st2" d="M57.5,46.7c0.2,0.2,0.2,0.4,0.2,0.6c0,0.2-0.1,0.4-0.2,0.6c-0.2,0.2-0.3,0.2-0.6,0.2s-0.4-0.1-0.6-0.2
		c-0.2-0.2-0.2-0.4-0.2-0.6c0-0.2,0.1-0.4,0.2-0.6c0.2-0.2,0.3-0.2,0.6-0.2S57.3,46.5,57.5,46.7z M56.3,49.3h1.3v7.3h-1.3V49.3z"/>
	<path class="st2" d="M63.1,50.4c-0.5,0-0.9,0.1-1.3,0.3c-0.4,0.2-0.7,0.5-0.9,0.9c-0.2,0.4-0.3,0.8-0.3,1.3c0,0.5,0.1,0.9,0.3,1.3
		c0.2,0.4,0.5,0.7,0.9,0.9c0.4,0.2,0.8,0.3,1.2,0.3s0.9-0.1,1.3-0.2c0.4-0.2,0.7-0.4,0.9-0.7l0.7,0.7c-0.3,0.4-0.7,0.7-1.3,0.9
		c-0.5,0.2-1.1,0.3-1.7,0.3c-0.7,0-1.3-0.2-1.9-0.5s-1-0.7-1.3-1.3c-0.3-0.6-0.5-1.2-0.5-1.9c0-0.7,0.2-1.4,0.5-1.9
		c0.3-0.6,0.7-1,1.3-1.3c0.5-0.3,1.2-0.5,1.9-0.5c0.6,0,1.2,0.1,1.7,0.3c0.5,0.2,0.9,0.5,1.2,0.8l-0.7,0.9
		C64.6,50.7,63.9,50.4,63.1,50.4z"/>
	<path class="st2" d="M72.4,49.8c0.6,0.3,1,0.7,1.3,1.3c0.3,0.6,0.5,1.2,0.5,1.9c0,0.7-0.2,1.4-0.5,1.9c-0.3,0.6-0.8,1-1.3,1.3
		c-0.6,0.3-1.2,0.5-1.9,0.5c-0.7,0-1.4-0.2-1.9-0.5c-0.6-0.3-1-0.7-1.3-1.3c-0.3-0.6-0.5-1.2-0.5-1.9c0-0.7,0.2-1.3,0.5-1.9
		c0.3-0.6,0.8-1,1.3-1.3c0.6-0.3,1.2-0.5,1.9-0.5C71.2,49.3,71.8,49.5,72.4,49.8z M69.2,50.7c-0.4,0.2-0.7,0.5-0.9,0.9
		C68.1,52,68,52.5,68,53c0,0.5,0.1,1,0.3,1.3c0.2,0.4,0.5,0.7,0.9,0.9c0.4,0.2,0.8,0.3,1.3,0.3c0.5,0,0.9-0.1,1.3-0.3
		c0.4-0.2,0.7-0.5,0.9-0.9c0.2-0.4,0.3-0.8,0.3-1.3c0-0.5-0.1-0.9-0.3-1.3c-0.2-0.4-0.5-0.7-0.9-0.9c-0.4-0.2-0.8-0.3-1.3-0.3
		C70,50.4,69.6,50.5,69.2,50.7z"/>
	<path class="st2" d="M79,50.5c-0.4-0.1-0.7-0.2-1-0.2c-0.4,0-0.7,0.1-0.9,0.2c-0.2,0.1-0.4,0.4-0.4,0.7c0,0.3,0.1,0.5,0.4,0.7
		c0.3,0.2,0.7,0.3,1.2,0.5c0.5,0.1,0.9,0.3,1.2,0.4c0.3,0.1,0.6,0.4,0.8,0.6c0.2,0.3,0.3,0.7,0.3,1.1c0,0.7-0.3,1.2-0.8,1.6
		c-0.5,0.4-1.2,0.5-1.9,0.5c-0.5,0-1.1-0.1-1.6-0.3c-0.5-0.2-0.9-0.4-1.3-0.7l0.5-0.9c0.3,0.3,0.7,0.5,1.1,0.7
		c0.4,0.2,0.9,0.2,1.3,0.2c0.4,0,0.8-0.1,1-0.2c0.3-0.2,0.4-0.4,0.4-0.7c0-0.3-0.1-0.6-0.4-0.7c-0.3-0.2-0.7-0.3-1.2-0.5
		c-0.5-0.1-0.9-0.3-1.2-0.4c-0.3-0.1-0.6-0.4-0.8-0.6c-0.2-0.3-0.3-0.6-0.3-1.1c0-0.7,0.2-1.2,0.7-1.5c0.5-0.3,1.1-0.5,1.9-0.5
		c0.4,0,0.9,0.1,1.3,0.2c0.4,0.1,0.8,0.3,1.1,0.5L80,51C79.7,50.8,79.3,50.6,79,50.5z"/>
	<path class="st2" d="M84.7,49.3h1.4l2.2,6l2.2-6h1.3l-2.8,7.3h-1.3L84.7,49.3z"/>
	<path class="st2" d="M94.1,46.7c0.2,0.2,0.2,0.4,0.2,0.6c0,0.2-0.1,0.4-0.2,0.6c-0.2,0.2-0.3,0.2-0.6,0.2c-0.2,0-0.4-0.1-0.6-0.2
		c-0.2-0.2-0.2-0.4-0.2-0.6c0-0.2,0.1-0.4,0.2-0.6c0.2-0.2,0.3-0.2,0.6-0.2C93.8,46.4,94,46.5,94.1,46.7z M92.9,49.3h1.3v7.3h-1.3
		V49.3z"/>
	<path class="st2" d="M101.1,56.6v-1c-0.5,0.7-1.4,1.1-2.5,1.1c-0.5,0-0.9-0.1-1.3-0.3c-0.4-0.2-0.7-0.5-0.9-0.8
		c-0.2-0.3-0.3-0.7-0.3-1.1c0-0.7,0.2-1.2,0.7-1.5c0.5-0.4,1.2-0.6,2-0.6h2.3V52c0-0.5-0.2-0.9-0.5-1.2s-0.8-0.4-1.4-0.4
		c-0.7,0-1.5,0.3-2.2,0.8l-0.5-0.9c0.5-0.3,1-0.6,1.5-0.7c0.4-0.2,1-0.2,1.6-0.2c0.9,0,1.6,0.2,2.1,0.7c0.5,0.4,0.7,1.1,0.8,1.9
		l0,4.8H101.1z M100.4,55.2c0.4-0.3,0.7-0.7,0.7-1.1v-0.7H99c-0.6,0-1,0.1-1.3,0.3c-0.3,0.2-0.4,0.4-0.4,0.8c0,0.4,0.1,0.7,0.4,0.9
		c0.3,0.2,0.7,0.3,1.1,0.3C99.4,55.6,99.9,55.5,100.4,55.2z"/>
	<path class="st2" d="M110.5,49.8c0.5,0.3,0.9,0.7,1.2,1.3c0.3,0.6,0.4,1.2,0.4,1.9c0,0.7-0.1,1.3-0.4,1.9c-0.3,0.6-0.7,1-1.2,1.3
		c-0.5,0.3-1.1,0.5-1.8,0.5c-0.6,0-1.2-0.1-1.6-0.4c-0.5-0.3-0.8-0.6-1.1-1.1v1.4h-1.3V46.4h1.3v4.4c0.3-0.5,0.6-0.8,1.1-1.1
		c0.5-0.3,1-0.4,1.6-0.4C109.4,49.3,110,49.5,110.5,49.8z M109.7,55.2c0.4-0.2,0.7-0.5,0.9-0.9c0.2-0.4,0.3-0.8,0.3-1.3
		c0-0.5-0.1-0.9-0.3-1.3c-0.2-0.4-0.5-0.7-0.9-0.9c-0.4-0.2-0.8-0.3-1.3-0.3c-0.5,0-0.9,0.1-1.3,0.3c-0.4,0.2-0.7,0.5-0.9,0.9
		c-0.2,0.4-0.3,0.8-0.3,1.3c0,0.5,0.1,1,0.3,1.3c0.2,0.4,0.5,0.7,0.9,0.9c0.4,0.2,0.8,0.3,1.3,0.3C108.9,55.5,109.4,55.4,109.7,55.2
		z"/>
	<path class="st2" d="M114.1,46.4h1.3v10.2h-1.3V46.4z"/>
	<path class="st2" d="M123.4,50.3c0.6,0.7,0.9,1.6,0.9,2.8c0,0.2,0,0.3,0,0.4h-5.7c0.1,0.7,0.4,1.2,0.8,1.6c0.4,0.4,1,0.6,1.6,0.6
		c0.4,0,0.8-0.1,1.2-0.2c0.4-0.2,0.7-0.4,1-0.7l0.7,0.7c-0.4,0.4-0.8,0.7-1.3,0.9c-0.5,0.2-1.1,0.3-1.7,0.3c-0.7,0-1.4-0.2-1.9-0.5
		c-0.6-0.3-1-0.7-1.3-1.3c-0.3-0.6-0.5-1.2-0.5-1.9c0-0.7,0.2-1.3,0.5-1.9c0.3-0.6,0.7-1,1.3-1.3c0.5-0.3,1.2-0.5,1.9-0.5
		C122,49.3,122.8,49.6,123.4,50.3z M123.1,52.5c0-0.7-0.3-1.2-0.7-1.6c-0.4-0.4-0.9-0.6-1.6-0.6c-0.6,0-1.2,0.2-1.6,0.6
		c-0.4,0.4-0.7,0.9-0.8,1.6H123.1z"/>
	<path class="st2" d="M129,50.5c-0.4-0.1-0.7-0.2-1-0.2c-0.4,0-0.7,0.1-0.9,0.2c-0.2,0.1-0.4,0.4-0.4,0.7c0,0.3,0.1,0.5,0.4,0.7
		c0.3,0.2,0.7,0.3,1.2,0.5c0.5,0.1,0.9,0.3,1.2,0.4c0.3,0.1,0.6,0.4,0.8,0.6c0.2,0.3,0.3,0.7,0.3,1.1c0,0.7-0.3,1.2-0.8,1.6
		c-0.5,0.4-1.2,0.5-1.9,0.5c-0.5,0-1.1-0.1-1.6-0.3c-0.5-0.2-0.9-0.4-1.3-0.7l0.5-0.9c0.3,0.3,0.7,0.5,1.1,0.7
		c0.4,0.2,0.9,0.2,1.3,0.2c0.4,0,0.8-0.1,1-0.2c0.3-0.2,0.4-0.4,0.4-0.7c0-0.3-0.1-0.6-0.4-0.7c-0.3-0.2-0.7-0.3-1.2-0.5
		c-0.5-0.1-0.9-0.3-1.2-0.4c-0.3-0.1-0.6-0.4-0.8-0.6c-0.2-0.3-0.3-0.6-0.3-1.1c0-0.7,0.2-1.2,0.7-1.5c0.5-0.3,1.1-0.5,1.9-0.5
		c0.4,0,0.9,0.1,1.3,0.2c0.4,0.1,0.8,0.3,1.1,0.5l-0.5,1C129.7,50.8,129.3,50.6,129,50.5z"/>
	<path class="st2" d="M141.4,50.3c0.6,0.7,0.9,1.6,0.9,2.8c0,0.2,0,0.3,0,0.4h-5.7c0.1,0.7,0.4,1.2,0.8,1.6c0.4,0.4,1,0.6,1.6,0.6
		c0.4,0,0.8-0.1,1.2-0.2c0.4-0.2,0.7-0.4,1-0.7l0.7,0.7c-0.4,0.4-0.8,0.7-1.3,0.9c-0.5,0.2-1.1,0.3-1.7,0.3c-0.7,0-1.4-0.2-1.9-0.5
		c-0.6-0.3-1-0.7-1.3-1.3c-0.3-0.6-0.5-1.2-0.5-1.9c0-0.7,0.2-1.3,0.5-1.9c0.3-0.6,0.7-1,1.3-1.3c0.5-0.3,1.2-0.5,1.9-0.5
		C140,49.3,140.8,49.6,141.4,50.3z M141.1,52.5c0-0.7-0.3-1.2-0.7-1.6c-0.4-0.4-0.9-0.6-1.6-0.6c-0.6,0-1.2,0.2-1.6,0.6
		c-0.4,0.4-0.7,0.9-0.8,1.6H141.1z"/>
	<path class="st2" d="M148.8,46.7c0.2,0.2,0.2,0.4,0.2,0.6c0,0.2-0.1,0.4-0.2,0.6c-0.2,0.2-0.3,0.2-0.6,0.2c-0.2,0-0.4-0.1-0.6-0.2
		c-0.2-0.2-0.2-0.4-0.2-0.6c0-0.2,0.1-0.4,0.2-0.6c0.2-0.2,0.3-0.2,0.6-0.2C148.5,46.4,148.7,46.5,148.8,46.7z M147.6,49.3h1.3v7.3
		h-1.3V49.3z"/>
	<path class="st2" d="M157.4,50.1c0.5,0.5,0.7,1.2,0.7,2.1v4.5h-1.3v-4.2c0-0.6-0.2-1.1-0.5-1.4c-0.3-0.3-0.8-0.5-1.4-0.5
		c-0.7,0-1.2,0.2-1.6,0.6c-0.4,0.4-0.6,0.9-0.7,1.6v3.9h-1.3v-7.3h1.3v1.5c0.5-1,1.4-1.6,2.8-1.6C156.3,49.3,156.9,49.6,157.4,50.1z
		"/>
	<path class="st2" d="M164.3,56.1c-0.6,0.4-1.1,0.5-1.7,0.5c-0.6,0-1-0.2-1.4-0.5c-0.4-0.3-0.5-0.9-0.5-1.6v-4h-1v-1h1v-2h1.3v2h2.2
		v1H162v3.8c0,0.4,0.1,0.7,0.2,0.9c0.1,0.2,0.4,0.3,0.7,0.3c0.3,0,0.7-0.1,1.1-0.3L164.3,56.1z"/>
	<path class="st2" d="M170.3,56.6v-1c-0.5,0.7-1.4,1.1-2.5,1.1c-0.5,0-0.9-0.1-1.3-0.3c-0.4-0.2-0.7-0.5-0.9-0.8
		c-0.2-0.3-0.3-0.7-0.3-1.1c0-0.7,0.2-1.2,0.7-1.5c0.5-0.4,1.2-0.6,2-0.6h2.3V52c0-0.5-0.2-0.9-0.5-1.2s-0.8-0.4-1.4-0.4
		c-0.7,0-1.5,0.3-2.2,0.8l-0.5-0.9c0.5-0.3,1-0.6,1.5-0.7c0.4-0.2,1-0.2,1.6-0.2c0.9,0,1.6,0.2,2.1,0.7c0.5,0.4,0.7,1.1,0.8,1.9
		l0,4.8H170.3z M169.6,55.2c0.4-0.3,0.7-0.7,0.7-1.1v-0.7h-2.1c-0.6,0-1,0.1-1.3,0.3c-0.3,0.2-0.4,0.4-0.4,0.8
		c0,0.4,0.1,0.7,0.4,0.9c0.3,0.2,0.7,0.3,1.1,0.3C168.6,55.6,169.2,55.5,169.6,55.2z"/>
	<path class="st2" d="M176.9,50.4c-0.5,0-0.9,0.1-1.3,0.3c-0.4,0.2-0.7,0.5-0.9,0.9c-0.2,0.4-0.3,0.8-0.3,1.3c0,0.5,0.1,0.9,0.3,1.3
		c0.2,0.4,0.5,0.7,0.9,0.9c0.4,0.2,0.8,0.3,1.2,0.3c0.5,0,0.9-0.1,1.3-0.2c0.4-0.2,0.7-0.4,0.9-0.7l0.7,0.7
		c-0.3,0.4-0.7,0.7-1.3,0.9c-0.5,0.2-1.1,0.3-1.7,0.3c-0.7,0-1.3-0.2-1.9-0.5c-0.5-0.3-1-0.7-1.3-1.3s-0.5-1.2-0.5-1.9
		c0-0.7,0.2-1.4,0.5-1.9c0.3-0.6,0.7-1,1.3-1.3c0.5-0.3,1.2-0.5,1.9-0.5c0.6,0,1.2,0.1,1.7,0.3c0.5,0.2,0.9,0.5,1.2,0.8l-0.7,0.9
		C178.4,50.7,177.7,50.4,176.9,50.4z"/>
	<path class="st2" d="M185.5,56.1c-0.6,0.4-1.1,0.5-1.7,0.5c-0.6,0-1-0.2-1.4-0.5c-0.4-0.3-0.5-0.9-0.5-1.6v-4h-1v-1h1v-2h1.3v2h2.2
		v1h-2.2v3.8c0,0.4,0.1,0.7,0.2,0.9c0.1,0.2,0.4,0.3,0.7,0.3c0.3,0,0.7-0.1,1.1-0.3L185.5,56.1z"/>
	<path class="st2" d="M191.9,49.8c0.6,0.3,1,0.7,1.3,1.3c0.3,0.6,0.5,1.2,0.5,1.9c0,0.7-0.2,1.4-0.5,1.9c-0.3,0.6-0.8,1-1.3,1.3
		c-0.6,0.3-1.2,0.5-1.9,0.5c-0.7,0-1.4-0.2-1.9-0.5c-0.6-0.3-1-0.7-1.3-1.3c-0.3-0.6-0.5-1.2-0.5-1.9c0-0.7,0.2-1.3,0.5-1.9
		c0.3-0.6,0.8-1,1.3-1.3c0.6-0.3,1.2-0.5,1.9-0.5C190.7,49.3,191.4,49.5,191.9,49.8z M188.7,50.7c-0.4,0.2-0.7,0.5-0.9,0.9
		c-0.2,0.4-0.3,0.8-0.3,1.3c0,0.5,0.1,1,0.3,1.3c0.2,0.4,0.5,0.7,0.9,0.9c0.4,0.2,0.8,0.3,1.3,0.3c0.5,0,0.9-0.1,1.3-0.3
		c0.4-0.2,0.7-0.5,0.9-0.9c0.2-0.4,0.3-0.8,0.3-1.3c0-0.5-0.1-0.9-0.3-1.3c-0.2-0.4-0.5-0.7-0.9-0.9c-0.4-0.2-0.8-0.3-1.3-0.3
		C189.5,50.4,189.1,50.5,188.7,50.7z"/>
	<path class="st2" d="M198.5,50.5c-0.4-0.1-0.7-0.2-1-0.2c-0.4,0-0.7,0.1-0.9,0.2c-0.2,0.1-0.4,0.4-0.4,0.7c0,0.3,0.1,0.5,0.4,0.7
		c0.3,0.2,0.7,0.3,1.2,0.5c0.5,0.1,0.9,0.3,1.2,0.4c0.3,0.1,0.6,0.4,0.8,0.6c0.2,0.3,0.3,0.7,0.3,1.1c0,0.7-0.3,1.2-0.8,1.6
		c-0.5,0.4-1.2,0.5-1.9,0.5c-0.5,0-1.1-0.1-1.6-0.3c-0.5-0.2-0.9-0.4-1.3-0.7l0.5-0.9c0.3,0.3,0.7,0.5,1.1,0.7
		c0.4,0.2,0.9,0.2,1.3,0.2c0.4,0,0.8-0.1,1-0.2c0.3-0.2,0.4-0.4,0.4-0.7c0-0.3-0.1-0.6-0.4-0.7c-0.3-0.2-0.7-0.3-1.2-0.5
		c-0.5-0.1-0.9-0.3-1.2-0.4c-0.3-0.1-0.6-0.4-0.8-0.6c-0.2-0.3-0.3-0.6-0.3-1.1c0-0.7,0.2-1.2,0.7-1.5c0.5-0.3,1.1-0.5,1.9-0.5
		c0.4,0,0.9,0.1,1.3,0.2c0.4,0.1,0.8,0.3,1.1,0.5l-0.5,1C199.2,50.8,198.8,50.6,198.5,50.5z"/>
	<path class="st2" d="M211.3,49.8c0.5,0.3,0.9,0.7,1.2,1.3c0.3,0.6,0.4,1.2,0.4,1.9c0,0.7-0.1,1.3-0.4,1.9c-0.3,0.6-0.7,1-1.2,1.3
		c-0.5,0.3-1.1,0.5-1.8,0.5c-0.6,0-1.2-0.1-1.6-0.4c-0.5-0.3-0.8-0.6-1.1-1.1v4.1h-1.3v-9.9h1.3v1.4c0.3-0.5,0.6-0.8,1.1-1.1
		c0.5-0.3,1-0.4,1.6-0.4C210.1,49.3,210.8,49.5,211.3,49.8z M210.5,55.2c0.4-0.2,0.7-0.5,0.9-0.9c0.2-0.4,0.3-0.8,0.3-1.3
		c0-0.5-0.1-0.9-0.3-1.3c-0.2-0.4-0.5-0.7-0.9-0.9c-0.4-0.2-0.8-0.3-1.3-0.3c-0.5,0-0.9,0.1-1.3,0.3c-0.4,0.2-0.7,0.5-0.9,0.9
		c-0.2,0.4-0.3,0.8-0.3,1.3c0,0.5,0.1,1,0.3,1.3c0.2,0.4,0.5,0.7,0.9,0.9c0.4,0.2,0.8,0.3,1.3,0.3C209.7,55.5,210.1,55.4,210.5,55.2
		z"/>
	<path class="st2" d="M219.2,56.6v-1c-0.5,0.7-1.4,1.1-2.5,1.1c-0.5,0-0.9-0.1-1.3-0.3c-0.4-0.2-0.7-0.5-0.9-0.8
		c-0.2-0.3-0.3-0.7-0.3-1.1c0-0.7,0.2-1.2,0.7-1.5c0.5-0.4,1.2-0.6,2-0.6h2.3V52c0-0.5-0.2-0.9-0.5-1.2c-0.3-0.3-0.8-0.4-1.4-0.4
		c-0.7,0-1.5,0.3-2.2,0.8l-0.5-0.9c0.5-0.3,1-0.6,1.5-0.7c0.4-0.2,1-0.2,1.6-0.2c0.9,0,1.6,0.2,2.1,0.7c0.5,0.4,0.7,1.1,0.8,1.9
		l0,4.8H219.2z M218.4,55.2c0.4-0.3,0.7-0.7,0.7-1.1v-0.7H217c-0.6,0-1,0.1-1.3,0.3c-0.3,0.2-0.4,0.4-0.4,0.8c0,0.4,0.1,0.7,0.4,0.9
		c0.3,0.2,0.7,0.3,1.1,0.3C217.5,55.6,218,55.5,218.4,55.2z"/>
	<path class="st2" d="M225,49.7c0.4-0.3,1-0.4,1.6-0.4v1.2c-0.7,0-1.3,0.2-1.8,0.6c-0.5,0.4-0.7,1-0.8,1.7v3.8h-1.3v-7.3h1.3v1.6
		C224.3,50.4,224.6,50,225,49.7z"/>
	<path class="st2" d="M232.1,56.6v-1c-0.5,0.7-1.4,1.1-2.5,1.1c-0.5,0-0.9-0.1-1.3-0.3c-0.4-0.2-0.7-0.5-0.9-0.8
		c-0.2-0.3-0.3-0.7-0.3-1.1c0-0.7,0.2-1.2,0.7-1.5c0.5-0.4,1.2-0.6,2-0.6h2.3V52c0-0.5-0.2-0.9-0.5-1.2c-0.3-0.3-0.8-0.4-1.4-0.4
		c-0.7,0-1.5,0.3-2.2,0.8l-0.5-0.9c0.5-0.3,1-0.6,1.5-0.7c0.4-0.2,1-0.2,1.6-0.2c0.9,0,1.6,0.2,2.1,0.7c0.5,0.4,0.7,1.1,0.8,1.9
		l0,4.8H232.1z M231.4,55.2c0.4-0.3,0.7-0.7,0.7-1.1v-0.7H230c-0.6,0-1,0.1-1.3,0.3c-0.3,0.2-0.4,0.4-0.4,0.8c0,0.4,0.1,0.7,0.4,0.9
		c0.3,0.2,0.7,0.3,1.1,0.3C230.4,55.6,230.9,55.5,231.4,55.2z"/>
	<path class="st2" d="M11.5,67.2c0.6,0.7,0.9,1.6,0.9,2.8c0,0.2,0,0.3,0,0.4H6.7C6.8,71,7,71.5,7.5,71.9c0.4,0.4,1,0.6,1.6,0.6
		c0.4,0,0.8-0.1,1.2-0.2c0.4-0.2,0.7-0.4,1-0.7l0.7,0.7c-0.4,0.4-0.8,0.7-1.3,0.9c-0.5,0.2-1.1,0.3-1.7,0.3c-0.7,0-1.4-0.2-1.9-0.5
		c-0.6-0.3-1-0.7-1.3-1.3c-0.3-0.6-0.5-1.2-0.5-1.9c0-0.7,0.2-1.3,0.5-1.9c0.3-0.6,0.7-1,1.3-1.3c0.5-0.3,1.2-0.5,1.9-0.5
		C10.1,66.2,11,66.5,11.5,67.2z M11.3,69.4c0-0.7-0.3-1.2-0.7-1.6c-0.4-0.4-0.9-0.6-1.6-0.6c-0.6,0-1.2,0.2-1.6,0.6
		c-0.4,0.4-0.7,0.9-0.8,1.6H11.3z"/>
	<path class="st2" d="M13.1,75.1c0.3,0,0.6-0.1,0.8-0.4c0.2-0.2,0.3-0.6,0.3-1.1v-7.5h1.3v7.6c0,0.8-0.2,1.3-0.5,1.7
		c-0.4,0.4-0.9,0.6-1.5,0.6c-0.4,0-0.8-0.1-1.3-0.2l0.3-1C12.6,75.1,12.8,75.1,13.1,75.1z M15.3,63.6c0.2,0.2,0.2,0.4,0.2,0.6
		c0,0.2-0.1,0.4-0.2,0.6C15.2,64.9,15,65,14.8,65s-0.4-0.1-0.6-0.2C14,64.6,14,64.4,14,64.2c0-0.2,0.1-0.4,0.2-0.6
		c0.2-0.2,0.3-0.2,0.6-0.2S15.2,63.4,15.3,63.6z"/>
	<path class="st2" d="M23.2,67.2c0.6,0.7,0.9,1.6,0.9,2.8c0,0.2,0,0.3,0,0.4h-5.7c0.1,0.7,0.4,1.2,0.8,1.6c0.4,0.4,1,0.6,1.6,0.6
		c0.4,0,0.8-0.1,1.2-0.2c0.4-0.2,0.7-0.4,1-0.7l0.7,0.7c-0.4,0.4-0.8,0.7-1.3,0.9c-0.5,0.2-1.1,0.3-1.7,0.3c-0.7,0-1.4-0.2-1.9-0.5
		c-0.6-0.3-1-0.7-1.3-1.3c-0.3-0.6-0.5-1.2-0.5-1.9c0-0.7,0.2-1.3,0.5-1.9c0.3-0.6,0.7-1,1.3-1.3c0.5-0.3,1.2-0.5,1.9-0.5
		C21.8,66.2,22.7,66.5,23.2,67.2z M23,69.4c0-0.7-0.3-1.2-0.7-1.6c-0.4-0.4-0.9-0.6-1.6-0.6c-0.6,0-1.2,0.2-1.6,0.6
		c-0.4,0.4-0.7,0.9-0.8,1.6H23z"/>
	<path class="st2" d="M28.2,66.6c0.4-0.3,1-0.4,1.6-0.4v1.2c-0.7,0-1.3,0.2-1.8,0.6c-0.5,0.4-0.7,1-0.8,1.7v3.8h-1.3v-7.3h1.3v1.6
		C27.4,67.3,27.7,66.9,28.2,66.6z"/>
	<path class="st2" d="M34.1,67.3c-0.5,0-0.9,0.1-1.3,0.3c-0.4,0.2-0.7,0.5-0.9,0.9c-0.2,0.4-0.3,0.8-0.3,1.3c0,0.5,0.1,0.9,0.3,1.3
		c0.2,0.4,0.5,0.7,0.9,0.9c0.4,0.2,0.8,0.3,1.2,0.3c0.5,0,0.9-0.1,1.3-0.2c0.4-0.2,0.7-0.4,0.9-0.7l0.7,0.7
		c-0.3,0.4-0.7,0.7-1.3,0.9c-0.5,0.2-1.1,0.3-1.7,0.3c-0.7,0-1.3-0.2-1.9-0.5c-0.5-0.3-1-0.7-1.3-1.3c-0.3-0.6-0.5-1.2-0.5-1.9
		c0-0.7,0.2-1.4,0.5-1.9c0.3-0.6,0.7-1,1.3-1.3c0.5-0.3,1.2-0.5,1.9-0.5c0.6,0,1.2,0.1,1.7,0.3c0.5,0.2,0.9,0.5,1.2,0.8l-0.7,0.9
		C35.6,67.6,34.9,67.3,34.1,67.3z"/>
	<path class="st2" d="M44,67.2c0.6,0.7,0.9,1.6,0.9,2.8c0,0.2,0,0.3,0,0.4h-5.7c0.1,0.7,0.4,1.2,0.8,1.6c0.4,0.4,1,0.6,1.6,0.6
		c0.4,0,0.8-0.1,1.2-0.2c0.4-0.2,0.7-0.4,1-0.7l0.7,0.7c-0.4,0.4-0.8,0.7-1.3,0.9c-0.5,0.2-1.1,0.3-1.7,0.3c-0.7,0-1.4-0.2-1.9-0.5
		c-0.6-0.3-1-0.7-1.3-1.3c-0.3-0.6-0.5-1.2-0.5-1.9c0-0.7,0.2-1.3,0.5-1.9c0.3-0.6,0.7-1,1.3-1.3s1.2-0.5,1.9-0.5
		C42.6,66.2,43.4,66.5,44,67.2z M43.7,69.4c0-0.7-0.3-1.2-0.7-1.6c-0.4-0.4-0.9-0.6-1.6-0.6c-0.6,0-1.2,0.2-1.6,0.6
		c-0.4,0.4-0.7,0.9-0.8,1.6H43.7z"/>
	<path class="st2" d="M48.9,66.6c0.4-0.3,1-0.4,1.6-0.4v1.2c-0.7,0-1.3,0.2-1.8,0.6c-0.5,0.4-0.7,1-0.8,1.7v3.8h-1.3v-7.3h1.3v1.6
		C48.1,67.3,48.5,66.9,48.9,66.6z"/>
	<path class="st2" d="M58.4,67.4c-0.4-0.1-0.7-0.2-1-0.2c-0.4,0-0.7,0.1-0.9,0.2c-0.2,0.1-0.4,0.4-0.4,0.7c0,0.3,0.1,0.5,0.4,0.7
		c0.3,0.2,0.7,0.3,1.2,0.5c0.5,0.1,0.9,0.3,1.2,0.4c0.3,0.1,0.6,0.4,0.8,0.6c0.2,0.3,0.3,0.7,0.3,1.1c0,0.7-0.3,1.2-0.8,1.6
		c-0.5,0.4-1.2,0.5-1.9,0.5c-0.5,0-1.1-0.1-1.6-0.3c-0.5-0.2-0.9-0.4-1.3-0.7l0.5-0.9c0.3,0.3,0.7,0.5,1.1,0.7
		c0.4,0.2,0.9,0.2,1.3,0.2c0.4,0,0.8-0.1,1-0.2c0.3-0.2,0.4-0.4,0.4-0.7c0-0.3-0.1-0.6-0.4-0.7c-0.3-0.2-0.7-0.3-1.2-0.5
		c-0.5-0.1-0.9-0.3-1.2-0.4c-0.3-0.1-0.6-0.4-0.8-0.6c-0.2-0.3-0.3-0.6-0.3-1.1c0-0.7,0.2-1.2,0.7-1.5c0.5-0.3,1.1-0.5,1.9-0.5
		c0.4,0,0.9,0.1,1.3,0.2c0.4,0.1,0.8,0.3,1.1,0.5l-0.5,1C59.1,67.7,58.8,67.5,58.4,67.4z"/>
	<path class="st2" d="M68.2,66.2v7.3h-1.3V72c-0.5,1-1.4,1.6-2.7,1.6c-0.8,0-1.5-0.2-2-0.7c-0.5-0.5-0.7-1.2-0.7-2.1v-4.5h1.3v4.2
		c0,0.6,0.2,1.1,0.5,1.4c0.3,0.3,0.8,0.5,1.4,0.5c0.7,0,1.2-0.2,1.6-0.7c0.4-0.5,0.6-1.1,0.6-1.8v-3.6H68.2z"/>
	<path class="st2" d="M78.7,73.5v-1c-0.5,0.7-1.4,1.1-2.5,1.1c-0.5,0-0.9-0.1-1.3-0.3c-0.4-0.2-0.7-0.5-0.9-0.8
		c-0.2-0.3-0.3-0.7-0.3-1.1c0-0.7,0.2-1.2,0.7-1.5c0.5-0.4,1.2-0.6,2-0.6h2.3v-0.3c0-0.5-0.2-0.9-0.5-1.2s-0.8-0.4-1.4-0.4
		c-0.7,0-1.5,0.3-2.2,0.8l-0.5-0.9c0.5-0.3,1-0.6,1.5-0.7c0.4-0.2,1-0.2,1.6-0.2c0.9,0,1.6,0.2,2.1,0.7c0.5,0.4,0.7,1.1,0.8,1.9
		l0,4.8H78.7z M78,72.1c0.4-0.3,0.7-0.7,0.7-1.1v-0.7h-2.1c-0.6,0-1,0.1-1.3,0.3c-0.3,0.2-0.4,0.4-0.4,0.8c0,0.4,0.1,0.7,0.4,0.9
		c0.3,0.2,0.7,0.3,1.1,0.3C77.1,72.5,77.6,72.4,78,72.1z"/>
	<path class="st2" d="M85.3,67.3c-0.5,0-0.9,0.1-1.3,0.3s-0.7,0.5-0.9,0.9c-0.2,0.4-0.3,0.8-0.3,1.3c0,0.5,0.1,0.9,0.3,1.3
		c0.2,0.4,0.5,0.7,0.9,0.9c0.4,0.2,0.8,0.3,1.2,0.3c0.5,0,0.9-0.1,1.3-0.2c0.4-0.2,0.7-0.4,0.9-0.7l0.7,0.7
		c-0.3,0.4-0.7,0.7-1.3,0.9c-0.5,0.2-1.1,0.3-1.7,0.3c-0.7,0-1.3-0.2-1.9-0.5c-0.5-0.3-1-0.7-1.3-1.3c-0.3-0.6-0.5-1.2-0.5-1.9
		c0-0.7,0.2-1.4,0.5-1.9c0.3-0.6,0.7-1,1.3-1.3c0.5-0.3,1.2-0.5,1.9-0.5c0.6,0,1.2,0.1,1.7,0.3c0.5,0.2,0.9,0.5,1.2,0.8l-0.7,0.9
		C86.8,67.6,86.1,67.3,85.3,67.3z"/>
	<path class="st2" d="M92.7,67.3c-0.5,0-0.9,0.1-1.3,0.3s-0.7,0.5-0.9,0.9c-0.2,0.4-0.3,0.8-0.3,1.3c0,0.5,0.1,0.9,0.3,1.3
		c0.2,0.4,0.5,0.7,0.9,0.9c0.4,0.2,0.8,0.3,1.2,0.3s0.9-0.1,1.3-0.2c0.4-0.2,0.7-0.4,0.9-0.7l0.7,0.7c-0.3,0.4-0.7,0.7-1.3,0.9
		c-0.5,0.2-1.1,0.3-1.7,0.3c-0.7,0-1.3-0.2-1.9-0.5c-0.5-0.3-1-0.7-1.3-1.3c-0.3-0.6-0.5-1.2-0.5-1.9c0-0.7,0.2-1.4,0.5-1.9
		c0.3-0.6,0.7-1,1.3-1.3c0.5-0.3,1.2-0.5,1.9-0.5c0.6,0,1.2,0.1,1.7,0.3c0.5,0.2,0.9,0.5,1.2,0.8l-0.7,0.9
		C94.2,67.6,93.5,67.3,92.7,67.3z"/>
	<path class="st2" d="M98.6,63.6c0.2,0.2,0.2,0.4,0.2,0.6c0,0.2-0.1,0.4-0.2,0.6c-0.2,0.2-0.3,0.2-0.6,0.2c-0.2,0-0.4-0.1-0.6-0.2
		c-0.2-0.2-0.2-0.4-0.2-0.6c0-0.2,0.1-0.4,0.2-0.6c0.2-0.2,0.3-0.2,0.6-0.2C98.3,63.3,98.5,63.4,98.6,63.6z M97.4,66.2h1.3v7.3h-1.3
		V66.2z"/>
	<path class="st2" d="M106.2,66.7c0.6,0.3,1,0.7,1.3,1.3c0.3,0.6,0.5,1.2,0.5,1.9c0,0.7-0.2,1.4-0.5,1.9c-0.3,0.6-0.8,1-1.3,1.3
		c-0.6,0.3-1.2,0.5-1.9,0.5c-0.7,0-1.4-0.2-1.9-0.5c-0.6-0.3-1-0.7-1.3-1.3c-0.3-0.6-0.5-1.2-0.5-1.9c0-0.7,0.2-1.3,0.5-1.9
		c0.3-0.6,0.8-1,1.3-1.3c0.6-0.3,1.2-0.5,1.9-0.5C104.9,66.2,105.6,66.4,106.2,66.7z M102.9,67.6c-0.4,0.2-0.7,0.5-0.9,0.9
		c-0.2,0.4-0.3,0.8-0.3,1.3c0,0.5,0.1,1,0.3,1.3c0.2,0.4,0.5,0.7,0.9,0.9c0.4,0.2,0.8,0.3,1.3,0.3c0.5,0,0.9-0.1,1.3-0.3
		c0.4-0.2,0.7-0.5,0.9-0.9c0.2-0.4,0.3-0.8,0.3-1.3c0-0.5-0.1-0.9-0.3-1.3c-0.2-0.4-0.5-0.7-0.9-0.9c-0.4-0.2-0.8-0.3-1.3-0.3
		C103.7,67.3,103.3,67.4,102.9,67.6z M105,63.2l1.3,0.6l-1.7,1.3l-1.1-0.1L105,63.2z"/>
	<path class="st2" d="M115.8,67c0.5,0.5,0.7,1.2,0.7,2.1v4.5h-1.3v-4.2c0-0.6-0.2-1.1-0.5-1.4c-0.3-0.3-0.8-0.5-1.4-0.5
		c-0.7,0-1.2,0.2-1.6,0.6c-0.4,0.4-0.6,0.9-0.7,1.6v3.9h-1.3v-7.3h1.3v1.5c0.5-1,1.4-1.6,2.8-1.6C114.6,66.2,115.3,66.5,115.8,67z"
		/>
	<path class="st2" d="M127.9,67.2c0.6,0.7,0.9,1.6,0.9,2.8c0,0.2,0,0.3,0,0.4H123c0.1,0.7,0.4,1.2,0.8,1.6c0.4,0.4,1,0.6,1.6,0.6
		c0.4,0,0.8-0.1,1.2-0.2c0.4-0.2,0.7-0.4,1-0.7l0.7,0.7c-0.4,0.4-0.8,0.7-1.3,0.9c-0.5,0.2-1.1,0.3-1.7,0.3c-0.7,0-1.4-0.2-1.9-0.5
		c-0.6-0.3-1-0.7-1.3-1.3c-0.3-0.6-0.5-1.2-0.5-1.9c0-0.7,0.2-1.3,0.5-1.9c0.3-0.6,0.7-1,1.3-1.3c0.5-0.3,1.2-0.5,1.9-0.5
		C126.4,66.2,127.3,66.5,127.9,67.2z M127.6,69.4c0-0.7-0.3-1.2-0.7-1.6c-0.4-0.4-0.9-0.6-1.6-0.6c-0.6,0-1.2,0.2-1.6,0.6
		c-0.4,0.4-0.7,0.9-0.8,1.6H127.6z"/>
	<path class="st2" d="M136.5,67c0.5,0.5,0.7,1.2,0.7,2.1v4.5H136v-4.2c0-0.6-0.2-1.1-0.5-1.4c-0.3-0.3-0.8-0.5-1.4-0.5
		c-0.7,0-1.2,0.2-1.6,0.6c-0.4,0.4-0.6,0.9-0.7,1.6v3.9h-1.3v-7.3h1.3v1.5c0.5-1,1.4-1.6,2.8-1.6C135.4,66.2,136,66.5,136.5,67z"/>
	<path class="st2" d="M143.2,63.3h1.3v10.2h-1.3V63.3z"/>
	<path class="st2" d="M152,66.7c0.6,0.3,1,0.7,1.3,1.3c0.3,0.6,0.5,1.2,0.5,1.9c0,0.7-0.2,1.4-0.5,1.9c-0.3,0.6-0.8,1-1.3,1.3
		c-0.6,0.3-1.2,0.5-1.9,0.5c-0.7,0-1.4-0.2-1.9-0.5c-0.6-0.3-1-0.7-1.3-1.3c-0.3-0.6-0.5-1.2-0.5-1.9c0-0.7,0.2-1.3,0.5-1.9
		c0.3-0.6,0.8-1,1.3-1.3c0.6-0.3,1.2-0.5,1.9-0.5C150.8,66.2,151.5,66.4,152,66.7z M148.8,67.6c-0.4,0.2-0.7,0.5-0.9,0.9
		c-0.2,0.4-0.3,0.8-0.3,1.3c0,0.5,0.1,1,0.3,1.3c0.2,0.4,0.5,0.7,0.9,0.9c0.4,0.2,0.8,0.3,1.3,0.3c0.5,0,0.9-0.1,1.3-0.3
		c0.4-0.2,0.7-0.5,0.9-0.9c0.2-0.4,0.3-0.8,0.3-1.3c0-0.5-0.1-0.9-0.3-1.3c-0.2-0.4-0.5-0.7-0.9-0.9c-0.4-0.2-0.8-0.3-1.3-0.3
		C149.6,67.3,149.2,67.4,148.8,67.6z"/>
	<path class="st2" d="M158.6,67.4c-0.4-0.1-0.7-0.2-1-0.2c-0.4,0-0.7,0.1-0.9,0.2c-0.2,0.1-0.4,0.4-0.4,0.7c0,0.3,0.1,0.5,0.4,0.7
		c0.3,0.2,0.7,0.3,1.2,0.5c0.5,0.1,0.9,0.3,1.2,0.4c0.3,0.1,0.6,0.4,0.8,0.6c0.2,0.3,0.3,0.7,0.3,1.1c0,0.7-0.3,1.2-0.8,1.6
		c-0.5,0.4-1.2,0.5-1.9,0.5c-0.5,0-1.1-0.1-1.6-0.3c-0.5-0.2-0.9-0.4-1.3-0.7l0.5-0.9c0.3,0.3,0.7,0.5,1.1,0.7
		c0.4,0.2,0.9,0.2,1.3,0.2c0.4,0,0.8-0.1,1-0.2c0.3-0.2,0.4-0.4,0.4-0.7c0-0.3-0.1-0.6-0.4-0.7c-0.3-0.2-0.7-0.3-1.2-0.5
		c-0.5-0.1-0.9-0.3-1.2-0.4c-0.3-0.1-0.6-0.4-0.8-0.6c-0.2-0.3-0.3-0.6-0.3-1.1c0-0.7,0.2-1.2,0.7-1.5c0.5-0.3,1.1-0.5,1.9-0.5
		c0.4,0,0.9,0.1,1.3,0.2c0.4,0.1,0.8,0.3,1.1,0.5l-0.5,1C159.3,67.7,158.9,67.5,158.6,67.4z"/>
	<path class="st2" d="M166.7,63.6c0.2,0.2,0.2,0.4,0.2,0.6c0,0.2-0.1,0.4-0.2,0.6c-0.2,0.2-0.3,0.2-0.6,0.2c-0.2,0-0.4-0.1-0.6-0.2
		c-0.2-0.2-0.2-0.4-0.2-0.6c0-0.2,0.1-0.4,0.2-0.6c0.2-0.2,0.3-0.2,0.6-0.2C166.4,63.3,166.6,63.4,166.7,63.6z M165.5,66.2h1.3v7.3
		h-1.3V66.2z"/>
	<path class="st2" d="M175.3,67c0.5,0.5,0.7,1.2,0.7,2.1v4.5h-1.3v-4.2c0-0.6-0.2-1.1-0.5-1.4c-0.3-0.3-0.8-0.5-1.4-0.5
		c-0.7,0-1.2,0.2-1.6,0.6c-0.4,0.4-0.6,0.9-0.7,1.6v3.9h-1.3v-7.3h1.3v1.5c0.5-1,1.4-1.6,2.8-1.6C174.2,66.2,174.9,66.5,175.3,67z"
		/>
	<path class="st2" d="M182.3,73c-0.6,0.4-1.1,0.5-1.7,0.5c-0.6,0-1-0.2-1.4-0.5c-0.4-0.3-0.5-0.9-0.5-1.6v-4h-1v-1h1v-2h1.3v2h2.2v1
		h-2.2v3.8c0,0.4,0.1,0.7,0.2,0.9c0.1,0.2,0.4,0.3,0.7,0.3c0.3,0,0.7-0.1,1.1-0.3L182.3,73z"/>
	<path class="st2" d="M189.2,67.2c0.6,0.7,0.9,1.6,0.9,2.8c0,0.2,0,0.3,0,0.4h-5.7c0.1,0.7,0.4,1.2,0.8,1.6c0.4,0.4,1,0.6,1.6,0.6
		c0.4,0,0.8-0.1,1.2-0.2c0.4-0.2,0.7-0.4,1-0.7l0.7,0.7c-0.4,0.4-0.8,0.7-1.3,0.9c-0.5,0.2-1.1,0.3-1.7,0.3c-0.7,0-1.4-0.2-1.9-0.5
		c-0.6-0.3-1-0.7-1.3-1.3c-0.3-0.6-0.5-1.2-0.5-1.9c0-0.7,0.2-1.3,0.5-1.9c0.3-0.6,0.7-1,1.3-1.3c0.5-0.3,1.2-0.5,1.9-0.5
		C187.8,66.2,188.6,66.5,189.2,67.2z M188.9,69.4c0-0.7-0.3-1.2-0.7-1.6c-0.4-0.4-0.9-0.6-1.6-0.6c-0.6,0-1.2,0.2-1.6,0.6
		c-0.4,0.4-0.7,0.9-0.8,1.6H188.9z"/>
	<path class="st2" d="M194.8,67.4c-0.4-0.1-0.7-0.2-1-0.2c-0.4,0-0.7,0.1-0.9,0.2c-0.2,0.1-0.4,0.4-0.4,0.7c0,0.3,0.1,0.5,0.4,0.7
		c0.3,0.2,0.7,0.3,1.2,0.5c0.5,0.1,0.9,0.3,1.2,0.4c0.3,0.1,0.6,0.4,0.8,0.6c0.2,0.3,0.3,0.7,0.3,1.1c0,0.7-0.3,1.2-0.8,1.6
		c-0.5,0.4-1.2,0.5-1.9,0.5c-0.5,0-1.1-0.1-1.6-0.3c-0.5-0.2-0.9-0.4-1.3-0.7l0.5-0.9c0.3,0.3,0.7,0.5,1.1,0.7
		c0.4,0.2,0.9,0.2,1.3,0.2c0.4,0,0.8-0.1,1-0.2c0.3-0.2,0.4-0.4,0.4-0.7c0-0.3-0.1-0.6-0.4-0.7c-0.3-0.2-0.7-0.3-1.2-0.5
		c-0.5-0.1-0.9-0.3-1.2-0.4c-0.3-0.1-0.6-0.4-0.8-0.6c-0.2-0.3-0.3-0.6-0.3-1.1c0-0.7,0.2-1.2,0.7-1.5c0.5-0.3,1.1-0.5,1.9-0.5
		c0.4,0,0.9,0.1,1.3,0.2c0.4,0.1,0.8,0.3,1.1,0.5l-0.5,1C195.5,67.7,195.1,67.5,194.8,67.4z"/>
	<path class="st2" d="M202,73c-0.6,0.4-1.1,0.5-1.7,0.5c-0.6,0-1-0.2-1.4-0.5c-0.4-0.3-0.5-0.9-0.5-1.6v-4h-1v-1h1v-2h1.3v2h2.2v1
		h-2.2v3.8c0,0.4,0.1,0.7,0.2,0.9c0.1,0.2,0.4,0.3,0.7,0.3c0.3,0,0.7-0.1,1.1-0.3L202,73z"/>
	<path class="st2" d="M204.8,63.6c0.2,0.2,0.2,0.4,0.2,0.6c0,0.2-0.1,0.4-0.2,0.6c-0.2,0.2-0.3,0.2-0.6,0.2c-0.2,0-0.4-0.1-0.6-0.2
		c-0.2-0.2-0.2-0.4-0.2-0.6c0-0.2,0.1-0.4,0.2-0.6c0.2-0.2,0.3-0.2,0.6-0.2C204.4,63.3,204.6,63.4,204.8,63.6z M203.6,66.2h1.3v7.3
		h-1.3V66.2z"/>
	<path class="st2" d="M213.4,67c0.5,0.5,0.7,1.2,0.7,2.1v4.5h-1.3v-4.2c0-0.6-0.2-1.1-0.5-1.4c-0.3-0.3-0.8-0.5-1.4-0.5
		c-0.7,0-1.2,0.2-1.6,0.6c-0.4,0.4-0.6,0.9-0.7,1.6v3.9h-1.3v-7.3h1.3v1.5c0.5-1,1.4-1.6,2.8-1.6C212.2,66.2,212.9,66.5,213.4,67z"
		/>
	<path class="st2" d="M221.4,66.7c0.6,0.3,1,0.7,1.3,1.3c0.3,0.6,0.5,1.2,0.5,1.9c0,0.7-0.2,1.4-0.5,1.9c-0.3,0.6-0.8,1-1.3,1.3
		c-0.6,0.3-1.2,0.5-1.9,0.5c-0.7,0-1.4-0.2-1.9-0.5c-0.6-0.3-1-0.7-1.3-1.3c-0.3-0.6-0.5-1.2-0.5-1.9c0-0.7,0.2-1.3,0.5-1.9
		c0.3-0.6,0.8-1,1.3-1.3c0.6-0.3,1.2-0.5,1.9-0.5C220.2,66.2,220.8,66.4,221.4,66.7z M218.2,67.6c-0.4,0.2-0.7,0.5-0.9,0.9
		c-0.2,0.4-0.3,0.8-0.3,1.3c0,0.5,0.1,1,0.3,1.3c0.2,0.4,0.5,0.7,0.9,0.9c0.4,0.2,0.8,0.3,1.3,0.3c0.5,0,0.9-0.1,1.3-0.3
		c0.4-0.2,0.7-0.5,0.9-0.9c0.2-0.4,0.3-0.8,0.3-1.3c0-0.5-0.1-0.9-0.3-1.3c-0.2-0.4-0.5-0.7-0.9-0.9c-0.4-0.2-0.8-0.3-1.3-0.3
		C219,67.3,218.5,67.4,218.2,67.6z"/>
	<path class="st2" d="M227.9,67.4c-0.4-0.1-0.7-0.2-1-0.2c-0.4,0-0.7,0.1-0.9,0.2c-0.2,0.1-0.4,0.4-0.4,0.7c0,0.3,0.1,0.5,0.4,0.7
		c0.3,0.2,0.7,0.3,1.2,0.5c0.5,0.1,0.9,0.3,1.2,0.4c0.3,0.1,0.6,0.4,0.8,0.6c0.2,0.3,0.3,0.7,0.3,1.1c0,0.7-0.3,1.2-0.8,1.6
		c-0.5,0.4-1.2,0.5-1.9,0.5c-0.5,0-1.1-0.1-1.6-0.3c-0.5-0.2-0.9-0.4-1.3-0.7l0.5-0.9c0.3,0.3,0.7,0.5,1.1,0.7
		c0.4,0.2,0.9,0.2,1.3,0.2c0.4,0,0.8-0.1,1-0.2c0.3-0.2,0.4-0.4,0.4-0.7c0-0.3-0.1-0.6-0.4-0.7c-0.3-0.2-0.7-0.3-1.2-0.5
		c-0.5-0.1-0.9-0.3-1.2-0.4c-0.3-0.1-0.6-0.4-0.8-0.6c-0.2-0.3-0.3-0.6-0.3-1.1c0-0.7,0.2-1.2,0.7-1.5c0.5-0.3,1.1-0.5,1.9-0.5
		c0.4,0,0.9,0.1,1.3,0.2c0.4,0.1,0.8,0.3,1.1,0.5l-0.5,1C228.6,67.7,228.3,67.5,227.9,67.4z"/>
	<path class="st2" d="M232,72.3c0.1,0.1,0.2,0.3,0.2,0.6c0,0.2-0.1,0.4-0.2,0.6c-0.1,0.2-0.3,0.2-0.5,0.2c-0.2,0-0.4-0.1-0.5-0.2
		c-0.1-0.2-0.2-0.3-0.2-0.6c0-0.2,0.1-0.4,0.2-0.6c0.1-0.1,0.3-0.2,0.5-0.2C231.7,72.1,231.8,72.1,232,72.3z"/>
	<path class="st2" d="M236.6,66.1c0.3,0.3,0.5,0.6,0.5,1.1c0,0.3-0.1,0.7-0.3,0.9c-0.2,0.3-0.4,0.5-0.8,0.6
		c-0.3,0.1-0.7,0.2-1.1,0.2c-0.4,0-0.7-0.1-1.1-0.2c-0.4-0.1-0.7-0.2-0.9-0.4l0.3-0.6c0.2,0.2,0.5,0.3,0.8,0.4
		c0.3,0.1,0.6,0.1,0.8,0.1c0.5,0,0.8-0.1,1.1-0.3c0.3-0.2,0.4-0.5,0.4-0.8c0-0.3-0.1-0.6-0.4-0.8c-0.3-0.2-0.6-0.3-1.1-0.3h-0.8
		v-0.5l1.7-1.7h-2.6l0-0.7h3.6v0.5l-1.9,1.9l0.3,0C235.9,65.7,236.3,65.9,236.6,66.1z"/>
</g>
</svg>
