<!-- Generator: Adobe Illustrator 20.1.0, SVG Export Plug-In  -->
<svg version="1.1"
	 xmlns="http://www.w3.org/2000/svg" xmlns:xlink="http://www.w3.org/1999/xlink" xmlns:a="http://ns.adobe.com/AdobeSVGViewerExtensions/3.0/"
	 x="0px" y="0px" width="75.4px" height="8.8px" viewBox="0 0 75.4 8.8"
	 style="overflow:scroll;enable-background:new 0 0 75.4 8.8;" xml:space="preserve">
<style type="text/css">
	.st0{fill:#58595B;}
</style>
<defs>
</defs>
<g>
	<g>
		<path class="st0" d="M3.3,0.1h1.9l3.2,8.6h-2L5.8,6.8H2.6L1.9,8.7H0L3.3,0.1z M3.1,5.4h2.2L4.2,2.2h0L3.1,5.4z"/>
		<path class="st0" d="M10.3,6.7c0,0.2,0,0.3,0.1,0.5s0.2,0.2,0.3,0.3c0.1,0.1,0.3,0.1,0.4,0.2c0.2,0,0.3,0.1,0.5,0.1
			c0.1,0,0.2,0,0.4,0c0.1,0,0.3-0.1,0.4-0.1c0.1-0.1,0.2-0.1,0.3-0.2c0.1-0.1,0.1-0.2,0.1-0.4c0-0.1,0-0.2-0.1-0.3
			c-0.1-0.1-0.2-0.2-0.4-0.2s-0.4-0.1-0.6-0.2C11.3,6.1,11.1,6,10.8,6c-0.2-0.1-0.5-0.1-0.7-0.2S9.6,5.6,9.4,5.5S9.1,5.2,9,5
			C8.9,4.8,8.8,4.6,8.8,4.3c0-0.4,0.1-0.7,0.2-1c0.2-0.3,0.4-0.5,0.6-0.6c0.3-0.1,0.5-0.3,0.9-0.3c0.3-0.1,0.6-0.1,1-0.1
			s0.7,0,1,0.1c0.3,0.1,0.6,0.2,0.8,0.3c0.2,0.2,0.5,0.4,0.6,0.6s0.3,0.6,0.3,1h-1.6c0-0.3-0.1-0.6-0.4-0.7
			c-0.2-0.1-0.5-0.2-0.8-0.2c-0.1,0-0.2,0-0.3,0c-0.1,0-0.2,0-0.3,0.1s-0.2,0.1-0.2,0.2c-0.1,0.1-0.1,0.2-0.1,0.3
			c0,0.2,0.1,0.3,0.2,0.4s0.3,0.2,0.4,0.2c0.2,0.1,0.4,0.1,0.6,0.2c0.2,0,0.5,0.1,0.7,0.2c0.2,0.1,0.5,0.1,0.7,0.2
			c0.2,0.1,0.4,0.2,0.6,0.3s0.3,0.3,0.4,0.5s0.2,0.4,0.2,0.7c0,0.4-0.1,0.8-0.2,1C14,8,13.8,8.2,13.5,8.4c-0.3,0.2-0.6,0.3-0.9,0.4
			c-0.3,0.1-0.7,0.1-1,0.1c-0.4,0-0.7,0-1.1-0.1c-0.3-0.1-0.7-0.2-0.9-0.4C9.3,8.2,9.1,8,8.9,7.7c-0.2-0.3-0.3-0.6-0.3-1H10.3z"/>
		<path class="st0" d="M17.1,1.5h-1.7V0.1h1.7V1.5z M15.4,2.5h1.7v6.2h-1.7V2.5z"/>
		<path class="st0" d="M18.5,2.5h1.6v0.9h0C20.4,3,20.6,2.7,21,2.6c0.3-0.2,0.7-0.3,1.1-0.3c0.5,0,0.8,0.1,1.1,0.2s0.5,0.3,0.7,0.5
			s0.3,0.5,0.4,0.8c0.1,0.3,0.1,0.7,0.1,1v3.8h-1.7V5.2c0-0.5-0.1-0.9-0.2-1.1s-0.4-0.4-0.8-0.4c-0.5,0-0.8,0.1-1,0.4
			c-0.2,0.3-0.3,0.7-0.3,1.4v3.3h-1.7V2.5z"/>
		<path class="st0" d="M27.8,2.5H29v1.1h-1.2v3.1c0,0.3,0,0.5,0.1,0.6c0.1,0.1,0.3,0.1,0.6,0.1c0.2,0,0.4,0,0.5,0v1.3
			c-0.1,0-0.3,0-0.5,0c-0.2,0-0.3,0-0.5,0c-0.3,0-0.5,0-0.8-0.1c-0.2,0-0.4-0.1-0.6-0.2c-0.2-0.1-0.3-0.3-0.4-0.5
			c-0.1-0.2-0.2-0.4-0.2-0.8V3.6h-1V2.5h1V0.6h1.7V2.5z"/>
		<path class="st0" d="M29.6,5.6c0-0.5,0.1-0.9,0.2-1.4c0.2-0.4,0.4-0.7,0.6-1c0.3-0.3,0.6-0.5,1-0.7c0.4-0.2,0.8-0.2,1.3-0.2
			c0.5,0,0.9,0.1,1.3,0.2c0.4,0.2,0.7,0.4,1,0.7c0.3,0.3,0.5,0.6,0.6,1c0.2,0.4,0.2,0.9,0.2,1.4S36,6.5,35.8,6.9s-0.4,0.7-0.6,1
			c-0.3,0.3-0.6,0.5-1,0.7c-0.4,0.2-0.8,0.2-1.3,0.2c-0.5,0-0.9-0.1-1.3-0.2c-0.4-0.2-0.7-0.4-1-0.7c-0.3-0.3-0.5-0.6-0.6-1
			S29.6,6.1,29.6,5.6z M31.3,5.6c0,0.2,0,0.5,0.1,0.7c0,0.2,0.1,0.4,0.2,0.6c0.1,0.2,0.3,0.3,0.5,0.5c0.2,0.1,0.4,0.2,0.7,0.2
			c0.3,0,0.5-0.1,0.7-0.2c0.2-0.1,0.4-0.3,0.5-0.5c0.1-0.2,0.2-0.4,0.2-0.6c0-0.2,0.1-0.5,0.1-0.7s0-0.5-0.1-0.7
			c0-0.2-0.1-0.5-0.2-0.6c-0.1-0.2-0.3-0.3-0.5-0.5s-0.4-0.2-0.7-0.2c-0.3,0-0.5,0.1-0.7,0.2S31.8,4,31.7,4.2s-0.2,0.4-0.2,0.6
			S31.3,5.3,31.3,5.6z"/>
		<path class="st0" d="M37.2,2.5h1.6v0.8h0c0.2-0.3,0.5-0.6,0.8-0.7c0.3-0.2,0.7-0.3,1.1-0.3c0.4,0,0.8,0.1,1.1,0.2
			c0.3,0.2,0.6,0.4,0.7,0.8c0.2-0.3,0.4-0.5,0.8-0.7s0.7-0.3,1.1-0.3c0.3,0,0.6,0,0.9,0.1s0.5,0.2,0.7,0.4c0.2,0.2,0.4,0.4,0.5,0.7
			c0.1,0.3,0.2,0.6,0.2,1v4.2H45V5.2c0-0.2,0-0.4,0-0.6c0-0.2-0.1-0.3-0.1-0.5c-0.1-0.1-0.2-0.2-0.3-0.3c-0.1-0.1-0.3-0.1-0.6-0.1
			s-0.4,0-0.6,0.1S43.1,4,43,4.1c-0.1,0.1-0.1,0.3-0.2,0.5c0,0.2,0,0.4,0,0.6v3.5h-1.7V5.2c0-0.2,0-0.4,0-0.5c0-0.2,0-0.4-0.1-0.5
			c-0.1-0.2-0.2-0.3-0.3-0.4c-0.1-0.1-0.3-0.1-0.6-0.1c-0.1,0-0.2,0-0.3,0.1c-0.1,0-0.3,0.1-0.4,0.2C39.2,4,39.1,4.2,39,4.3
			s-0.1,0.4-0.1,0.7v3.6h-1.7V2.5z"/>
		<path class="st0" d="M48,4.4c0-0.4,0.1-0.7,0.3-1c0.2-0.3,0.4-0.5,0.7-0.6c0.3-0.2,0.6-0.3,0.9-0.3c0.3-0.1,0.7-0.1,1-0.1
			c0.3,0,0.6,0,0.9,0.1s0.6,0.1,0.9,0.3s0.5,0.3,0.6,0.5s0.3,0.5,0.3,0.9v3.2c0,0.3,0,0.5,0,0.8s0.1,0.4,0.2,0.6h-1.7
			c0-0.1-0.1-0.2-0.1-0.3c0-0.1,0-0.2,0-0.3c-0.3,0.3-0.6,0.5-1,0.6c-0.4,0.1-0.7,0.2-1.1,0.2c-0.3,0-0.6,0-0.8-0.1
			c-0.3-0.1-0.5-0.2-0.7-0.3C48.2,8.2,48,8,47.9,7.8c-0.1-0.2-0.2-0.5-0.2-0.8c0-0.4,0.1-0.6,0.2-0.9c0.1-0.2,0.3-0.4,0.5-0.5
			c0.2-0.1,0.4-0.2,0.7-0.3c0.3-0.1,0.5-0.1,0.8-0.2S50.4,5,50.6,5c0.2,0,0.5-0.1,0.6-0.1s0.3-0.1,0.5-0.2c0.1-0.1,0.2-0.2,0.2-0.4
			c0-0.2,0-0.3-0.1-0.4c-0.1-0.1-0.1-0.2-0.2-0.3c-0.1-0.1-0.2-0.1-0.3-0.1c-0.1,0-0.3,0-0.4,0c-0.3,0-0.6,0.1-0.8,0.2
			c-0.2,0.1-0.3,0.4-0.3,0.7H48z M51.9,5.6c-0.1,0.1-0.2,0.1-0.3,0.2c-0.1,0-0.2,0.1-0.3,0.1c-0.1,0-0.3,0-0.4,0.1
			c-0.1,0-0.3,0-0.4,0.1c-0.1,0-0.3,0.1-0.4,0.1c-0.1,0-0.2,0.1-0.3,0.2s-0.2,0.2-0.2,0.3c-0.1,0.1-0.1,0.2-0.1,0.4
			c0,0.2,0,0.3,0.1,0.4c0.1,0.1,0.1,0.2,0.2,0.2c0.1,0.1,0.2,0.1,0.3,0.1c0.1,0,0.3,0,0.4,0c0.3,0,0.6-0.1,0.8-0.2
			c0.2-0.1,0.3-0.2,0.4-0.4s0.1-0.3,0.2-0.5s0-0.3,0-0.4V5.6z M51.1,1.7h-1.2L51.1,0H53L51.1,1.7z"/>
		<path class="st0" d="M57.1,2.5h1.2v1.1h-1.2v3.1c0,0.3,0,0.5,0.1,0.6s0.3,0.1,0.6,0.1c0.2,0,0.4,0,0.5,0v1.3c-0.1,0-0.3,0-0.5,0
			c-0.2,0-0.3,0-0.5,0c-0.3,0-0.5,0-0.8-0.1c-0.2,0-0.4-0.1-0.6-0.2c-0.2-0.1-0.3-0.3-0.4-0.5c-0.1-0.2-0.2-0.4-0.2-0.8V3.6h-1V2.5
			h1V0.6h1.7V2.5z"/>
		<path class="st0" d="M60.9,1.5h-1.7V0.1h1.7V1.5z M59.2,2.5h1.7v6.2h-1.7V2.5z"/>
		<path class="st0" d="M66.5,4.7c-0.1-0.7-0.5-1.1-1.3-1.1c-0.3,0-0.5,0.1-0.7,0.2c-0.2,0.1-0.3,0.3-0.5,0.5
			c-0.1,0.2-0.2,0.4-0.2,0.7c0,0.2-0.1,0.5-0.1,0.7c0,0.2,0,0.5,0.1,0.7c0,0.2,0.1,0.4,0.2,0.6c0.1,0.2,0.3,0.3,0.4,0.5
			s0.4,0.2,0.7,0.2c0.4,0,0.7-0.1,0.9-0.3s0.4-0.5,0.4-0.9h1.6c-0.1,0.8-0.4,1.5-1,1.9c-0.5,0.4-1.2,0.7-2,0.7
			c-0.5,0-0.9-0.1-1.3-0.2c-0.4-0.2-0.7-0.4-1-0.7c-0.3-0.3-0.5-0.6-0.6-1c-0.2-0.4-0.2-0.8-0.2-1.3c0-0.5,0.1-0.9,0.2-1.3
			c0.1-0.4,0.3-0.8,0.6-1.1c0.3-0.3,0.6-0.5,1-0.7s0.8-0.3,1.3-0.3c0.4,0,0.7,0,1.1,0.1c0.3,0.1,0.6,0.2,0.9,0.4
			c0.3,0.2,0.5,0.4,0.7,0.7s0.3,0.6,0.3,1H66.5z"/>
		<path class="st0" d="M68.9,5.6c0-0.5,0.1-0.9,0.2-1.4c0.2-0.4,0.4-0.7,0.6-1c0.3-0.3,0.6-0.5,1-0.7c0.4-0.2,0.8-0.2,1.3-0.2
			c0.5,0,0.9,0.1,1.3,0.2c0.4,0.2,0.7,0.4,1,0.7c0.3,0.3,0.5,0.6,0.6,1c0.2,0.4,0.2,0.9,0.2,1.4s-0.1,0.9-0.2,1.3s-0.4,0.7-0.6,1
			c-0.3,0.3-0.6,0.5-1,0.7c-0.4,0.2-0.8,0.2-1.3,0.2c-0.5,0-0.9-0.1-1.3-0.2c-0.4-0.2-0.7-0.4-1-0.7c-0.3-0.3-0.5-0.6-0.6-1
			S68.9,6.1,68.9,5.6z M70.6,5.6c0,0.2,0,0.5,0.1,0.7c0,0.2,0.1,0.4,0.2,0.6c0.1,0.2,0.3,0.3,0.5,0.5c0.2,0.1,0.4,0.2,0.7,0.2
			c0.3,0,0.5-0.1,0.7-0.2c0.2-0.1,0.4-0.3,0.5-0.5c0.1-0.2,0.2-0.4,0.2-0.6c0-0.2,0.1-0.5,0.1-0.7s0-0.5-0.1-0.7
			c0-0.2-0.1-0.5-0.2-0.6c-0.1-0.2-0.3-0.3-0.5-0.5s-0.4-0.2-0.7-0.2c-0.3,0-0.5,0.1-0.7,0.2S71.1,4,71,4.2s-0.2,0.4-0.2,0.6
			S70.6,5.3,70.6,5.6z"/>
	</g>
</g>
</svg>
