<!-- Generator: Adobe Illustrator 20.1.0, SVG Export Plug-In  -->
<svg version="1.1"
	 xmlns="http://www.w3.org/2000/svg" xmlns:xlink="http://www.w3.org/1999/xlink" xmlns:a="http://ns.adobe.com/AdobeSVGViewerExtensions/3.0/"
	 x="0px" y="0px" width="25.5px" height="8.1px" viewBox="0 0 25.5 8.1"
	 style="overflow:scroll;enable-background:new 0 0 25.5 8.1;" xml:space="preserve">
<style type="text/css">
	.st0{fill:#58595B;}
</style>
<defs>
</defs>
<g>
	<path class="st0" d="M0,0.1h3.4c0.5,0,1,0.1,1.4,0.2c0.4,0.2,0.8,0.4,1.1,0.7c0.3,0.3,0.6,0.7,0.7,1.2C6.9,2.8,7,3.3,7,4
		c0,0.6-0.1,1.1-0.2,1.6C6.6,6,6.4,6.5,6.1,6.8C5.8,7.2,5.4,7.4,5,7.7C4.5,7.9,4,8,3.4,8H0V0.1z M1.7,6.5h1.5c0.2,0,0.5,0,0.7-0.1
		C4.2,6.3,4.4,6.2,4.6,6c0.2-0.2,0.3-0.4,0.4-0.7s0.2-0.7,0.2-1.1c0-0.4,0-0.8-0.1-1.1C5,2.8,4.9,2.5,4.7,2.3C4.6,2,4.3,1.9,4,1.7
		C3.7,1.6,3.4,1.6,3,1.6H1.7V6.5z"/>
	<path class="st0" d="M9.1,1.6H8L9,0h1.7L9.1,1.6z M8,2.3h1.6V8H8V2.3z"/>
	<path class="st0" d="M10.8,4c0-0.4,0.1-0.7,0.3-0.9c0.2-0.2,0.4-0.4,0.6-0.6c0.3-0.1,0.5-0.3,0.8-0.3c0.3-0.1,0.6-0.1,0.9-0.1
		c0.3,0,0.6,0,0.9,0.1c0.3,0,0.6,0.1,0.8,0.2s0.4,0.3,0.6,0.5c0.2,0.2,0.2,0.5,0.2,0.8v3c0,0.3,0,0.5,0,0.7c0,0.2,0.1,0.4,0.2,0.5
		h-1.6c0-0.1-0.1-0.2-0.1-0.3c0-0.1,0-0.2,0-0.3c-0.3,0.3-0.5,0.4-0.9,0.5c-0.3,0.1-0.7,0.2-1,0.2c-0.3,0-0.5,0-0.8-0.1
		c-0.2-0.1-0.4-0.2-0.6-0.3c-0.2-0.1-0.3-0.3-0.4-0.5c-0.1-0.2-0.1-0.5-0.1-0.8c0-0.3,0.1-0.6,0.2-0.8c0.1-0.2,0.3-0.4,0.4-0.5
		c0.2-0.1,0.4-0.2,0.6-0.3c0.2-0.1,0.5-0.1,0.7-0.1c0.2,0,0.5-0.1,0.7-0.1c0.2,0,0.4-0.1,0.6-0.1s0.3-0.1,0.4-0.2
		c0.1-0.1,0.2-0.2,0.2-0.4c0-0.2,0-0.3-0.1-0.4c-0.1-0.1-0.1-0.2-0.2-0.2c-0.1-0.1-0.2-0.1-0.3-0.1s-0.3,0-0.4,0
		c-0.3,0-0.5,0.1-0.7,0.2c-0.2,0.1-0.3,0.4-0.3,0.7H10.8z M14.4,5.2c-0.1,0.1-0.1,0.1-0.2,0.1s-0.2,0.1-0.3,0.1
		c-0.1,0-0.2,0-0.4,0.1c-0.1,0-0.3,0-0.4,0.1c-0.1,0-0.2,0.1-0.4,0.1c-0.1,0-0.2,0.1-0.3,0.1c-0.1,0.1-0.2,0.1-0.2,0.2
		c-0.1,0.1-0.1,0.2-0.1,0.4c0,0.1,0,0.3,0.1,0.4c0.1,0.1,0.1,0.2,0.2,0.2C12.5,7,12.6,7,12.7,7c0.1,0,0.2,0,0.4,0
		c0.3,0,0.5-0.1,0.7-0.2s0.3-0.2,0.4-0.4c0.1-0.1,0.1-0.3,0.1-0.4c0-0.1,0-0.3,0-0.4V5.2z"/>
	<path class="st0" d="M22.1,3.4c0.2,0,0.3,0,0.5,0c0.2,0,0.4-0.1,0.5-0.1c0.2-0.1,0.3-0.2,0.4-0.3c0.1-0.1,0.2-0.3,0.2-0.5
		c0-0.3-0.1-0.6-0.3-0.8c-0.2-0.2-0.5-0.3-0.8-0.3c-0.4,0-0.7,0.1-0.9,0.4c-0.2,0.3-0.3,0.6-0.3,1H20c0-0.4,0.1-0.8,0.2-1.1
		c0.1-0.3,0.3-0.6,0.5-0.8c0.2-0.2,0.5-0.4,0.8-0.5c0.3-0.1,0.7-0.2,1.1-0.2c0.3,0,0.6,0,0.9,0.1c0.3,0.1,0.6,0.2,0.8,0.4
		c0.2,0.2,0.4,0.4,0.6,0.7c0.2,0.3,0.2,0.6,0.2,0.9c0,0.4-0.1,0.7-0.3,1s-0.4,0.5-0.8,0.6v0c0.4,0.1,0.8,0.3,1,0.6
		c0.2,0.3,0.4,0.7,0.4,1.1c0,0.4-0.1,0.8-0.2,1.1c-0.2,0.3-0.4,0.6-0.6,0.8s-0.6,0.4-0.9,0.5C23.4,8,23,8.1,22.7,8.1
		c-0.4,0-0.8-0.1-1.2-0.2c-0.4-0.1-0.7-0.3-0.9-0.5S20.1,6.8,20,6.5c-0.1-0.3-0.2-0.7-0.2-1.2h1.5c0,0.2,0,0.4,0.1,0.6
		c0.1,0.2,0.1,0.3,0.3,0.5c0.1,0.1,0.2,0.2,0.4,0.3c0.2,0.1,0.4,0.1,0.6,0.1c0.4,0,0.6-0.1,0.9-0.3c0.2-0.2,0.4-0.5,0.4-0.9
		c0-0.3-0.1-0.5-0.2-0.7c-0.1-0.2-0.3-0.3-0.4-0.3c-0.2-0.1-0.4-0.1-0.6-0.1s-0.4,0-0.6,0V3.4z"/>
</g>
</svg>
