<!-- Generator: Adobe Illustrator 20.1.0, SVG Export Plug-In  -->
<svg version="1.1"
	 xmlns="http://www.w3.org/2000/svg" xmlns:xlink="http://www.w3.org/1999/xlink" xmlns:a="http://ns.adobe.com/AdobeSVGViewerExtensions/3.0/"
	 x="0px" y="0px" width="90px" height="10.8px" viewBox="0 0 90 10.8" style="overflow:scroll;enable-background:new 0 0 90 10.8;"
	 xml:space="preserve">
<style type="text/css">
	.st0{fill:#58595B;}
</style>
<defs>
</defs>
<g>
	<g>
		<path class="st0" d="M0,0h6.4v1.6H1.9v1.8H6v1.5H1.9V7h4.6v1.6H0V0z"/>
		<path class="st0" d="M7.6,2.4h1.6v0.8h0c0.2-0.3,0.5-0.6,0.8-0.7c0.3-0.2,0.7-0.3,1.1-0.3c0.4,0,0.8,0.1,1.1,0.2
			c0.3,0.2,0.6,0.4,0.7,0.8c0.2-0.3,0.4-0.5,0.8-0.7s0.7-0.3,1.1-0.3c0.3,0,0.6,0,0.9,0.1c0.3,0.1,0.5,0.2,0.7,0.4
			c0.2,0.2,0.4,0.4,0.5,0.7s0.2,0.6,0.2,1v4.2h-1.7V5.1c0-0.2,0-0.4,0-0.6c0-0.2-0.1-0.3-0.1-0.5c-0.1-0.1-0.2-0.2-0.3-0.3
			s-0.3-0.1-0.6-0.1c-0.2,0-0.4,0-0.6,0.1c-0.1,0.1-0.3,0.2-0.3,0.4c-0.1,0.1-0.1,0.3-0.2,0.5c0,0.2,0,0.4,0,0.6v3.5h-1.7V5.1
			c0-0.2,0-0.4,0-0.5c0-0.2,0-0.4-0.1-0.5c-0.1-0.2-0.2-0.3-0.3-0.4s-0.3-0.1-0.6-0.1c-0.1,0-0.2,0-0.3,0.1c-0.1,0-0.3,0.1-0.4,0.2
			C9.7,3.9,9.6,4,9.5,4.2S9.3,4.7,9.3,5v3.6H7.6V2.4z"/>
		<path class="st0" d="M18.5,2.4h1.6v0.8h0c0.2-0.3,0.5-0.6,0.8-0.7c0.3-0.2,0.7-0.2,1.1-0.2c0.5,0,0.9,0.1,1.3,0.3
			c0.4,0.2,0.6,0.4,0.9,0.7c0.2,0.3,0.4,0.7,0.5,1.1s0.2,0.8,0.2,1.3c0,0.4-0.1,0.8-0.2,1.2s-0.3,0.7-0.5,1
			c-0.2,0.3-0.5,0.5-0.9,0.7c-0.3,0.2-0.7,0.3-1.2,0.3c-0.4,0-0.7-0.1-1.1-0.2s-0.6-0.4-0.8-0.7h0v3h-1.7V2.4z M21.6,7.5
			c0.3,0,0.5-0.1,0.7-0.2c0.2-0.1,0.3-0.3,0.5-0.4C22.9,6.7,23,6.5,23,6.2c0-0.2,0.1-0.5,0.1-0.7c0-0.2,0-0.5-0.1-0.7
			c-0.1-0.2-0.1-0.5-0.3-0.6c-0.1-0.2-0.3-0.3-0.5-0.5s-0.4-0.2-0.7-0.2c-0.3,0-0.5,0.1-0.7,0.2c-0.2,0.1-0.3,0.3-0.5,0.5
			c-0.1,0.2-0.2,0.4-0.2,0.6c0,0.2-0.1,0.5-0.1,0.7c0,0.3,0,0.5,0.1,0.7c0.1,0.2,0.1,0.4,0.3,0.6c0.1,0.2,0.3,0.3,0.5,0.4
			C21.1,7.4,21.3,7.5,21.6,7.5z"/>
		<path class="st0" d="M27.2,5.9c0,0.5,0.2,0.9,0.4,1.2c0.3,0.3,0.6,0.4,1.1,0.4c0.3,0,0.6-0.1,0.9-0.3s0.4-0.4,0.5-0.5h1.5
			c-0.2,0.7-0.6,1.3-1.1,1.6s-1.1,0.5-1.8,0.5c-0.5,0-0.9-0.1-1.3-0.2c-0.4-0.2-0.7-0.4-1-0.7c-0.3-0.3-0.5-0.6-0.6-1
			c-0.1-0.4-0.2-0.8-0.2-1.3c0-0.5,0.1-0.9,0.2-1.3c0.2-0.4,0.4-0.7,0.6-1c0.3-0.3,0.6-0.5,1-0.7c0.4-0.2,0.8-0.3,1.3-0.3
			c0.5,0,1,0.1,1.4,0.3c0.4,0.2,0.7,0.5,1,0.8s0.4,0.7,0.5,1.2c0.1,0.4,0.2,0.9,0.1,1.4H27.2z M30,4.8c-0.1-0.4-0.2-0.8-0.4-1
			c-0.2-0.2-0.5-0.3-0.9-0.3c-0.3,0-0.5,0-0.7,0.1S27.6,3.8,27.5,4c-0.1,0.1-0.2,0.3-0.2,0.4c0,0.2-0.1,0.3-0.1,0.4H30z"/>
		<path class="st0" d="M32.5,5.5c0-0.5,0.1-0.9,0.2-1.4c0.2-0.4,0.4-0.7,0.6-1c0.3-0.3,0.6-0.5,1-0.7c0.4-0.2,0.8-0.2,1.3-0.2
			c0.5,0,0.9,0.1,1.3,0.2c0.4,0.2,0.7,0.4,1,0.7c0.3,0.3,0.5,0.6,0.6,1c0.2,0.4,0.2,0.9,0.2,1.4s-0.1,0.9-0.2,1.3
			c-0.2,0.4-0.4,0.7-0.6,1c-0.3,0.3-0.6,0.5-1,0.7c-0.4,0.2-0.8,0.2-1.3,0.2c-0.5,0-0.9-0.1-1.3-0.2c-0.4-0.2-0.7-0.4-1-0.7
			c-0.3-0.3-0.5-0.6-0.6-1C32.6,6.4,32.5,6,32.5,5.5z M34.2,5.5c0,0.2,0,0.5,0.1,0.7c0,0.2,0.1,0.4,0.2,0.6C34.6,7,34.8,7.2,35,7.3
			c0.2,0.1,0.4,0.2,0.7,0.2s0.5-0.1,0.7-0.2c0.2-0.1,0.4-0.3,0.5-0.5c0.1-0.2,0.2-0.4,0.2-0.6c0-0.2,0.1-0.5,0.1-0.7s0-0.5-0.1-0.7
			c0-0.2-0.1-0.5-0.2-0.6c-0.1-0.2-0.3-0.3-0.5-0.5c-0.2-0.1-0.4-0.2-0.7-0.2S35.2,3.5,35,3.7c-0.2,0.1-0.3,0.3-0.5,0.5
			c-0.1,0.2-0.2,0.4-0.2,0.6C34.2,5,34.2,5.2,34.2,5.5z"/>
		<path class="st0" d="M40,2.4h1.6v1.2h0C41.7,3.3,41.9,3.1,42,3c0.1-0.2,0.3-0.3,0.5-0.4c0.2-0.1,0.4-0.2,0.6-0.3
			c0.2-0.1,0.4-0.1,0.6-0.1c0.1,0,0.3,0,0.4,0.1v1.6c-0.1,0-0.2,0-0.3,0c-0.1,0-0.2,0-0.3,0c-0.3,0-0.6,0.1-0.8,0.2
			c-0.2,0.1-0.4,0.2-0.5,0.4C42,4.5,41.9,4.8,41.8,5c-0.1,0.2-0.1,0.5-0.1,0.8v2.8H40V2.4z"/>
		<path class="st0" d="M44.6,4.3c0-0.4,0.1-0.7,0.3-1s0.4-0.5,0.7-0.6s0.6-0.3,0.9-0.3c0.3-0.1,0.7-0.1,1-0.1c0.3,0,0.6,0,0.9,0.1
			c0.3,0,0.6,0.1,0.9,0.3c0.3,0.1,0.5,0.3,0.6,0.5s0.3,0.5,0.3,0.9v3.2c0,0.3,0,0.5,0,0.8c0,0.3,0.1,0.4,0.2,0.6h-1.7
			c0-0.1-0.1-0.2-0.1-0.3s0-0.2,0-0.3c-0.3,0.3-0.6,0.5-1,0.6c-0.4,0.1-0.7,0.2-1.1,0.2c-0.3,0-0.6,0-0.8-0.1
			c-0.3-0.1-0.5-0.2-0.7-0.3c-0.2-0.2-0.3-0.3-0.5-0.6c-0.1-0.2-0.2-0.5-0.2-0.8c0-0.4,0.1-0.6,0.2-0.9c0.1-0.2,0.3-0.4,0.5-0.5
			c0.2-0.1,0.4-0.2,0.7-0.3C46,5.1,46.3,5,46.5,5c0.3,0,0.5-0.1,0.8-0.1c0.2,0,0.5-0.1,0.6-0.1c0.2,0,0.3-0.1,0.5-0.2
			c0.1-0.1,0.2-0.2,0.2-0.4c0-0.2,0-0.3-0.1-0.4s-0.1-0.2-0.2-0.3c-0.1-0.1-0.2-0.1-0.3-0.1c-0.1,0-0.3,0-0.4,0
			c-0.3,0-0.6,0.1-0.8,0.2c-0.2,0.1-0.3,0.4-0.3,0.7H44.6z M48.6,5.5c-0.1,0.1-0.2,0.1-0.3,0.2s-0.2,0.1-0.3,0.1
			c-0.1,0-0.3,0-0.4,0.1c-0.1,0-0.3,0-0.4,0.1c-0.1,0-0.3,0.1-0.4,0.1s-0.2,0.1-0.3,0.2s-0.2,0.2-0.2,0.3c-0.1,0.1-0.1,0.2-0.1,0.4
			c0,0.2,0,0.3,0.1,0.4c0.1,0.1,0.1,0.2,0.2,0.2c0.1,0.1,0.2,0.1,0.3,0.1c0.1,0,0.3,0,0.4,0c0.3,0,0.6-0.1,0.8-0.2
			c0.2-0.1,0.3-0.2,0.4-0.4s0.1-0.3,0.2-0.5c0-0.2,0-0.3,0-0.4V5.5z"/>
		<path class="st0" d="M51.6,2.4h1.6v0.8h0c0.2-0.3,0.5-0.6,0.8-0.7c0.3-0.2,0.7-0.3,1.1-0.3c0.4,0,0.8,0.1,1.1,0.2
			c0.3,0.2,0.6,0.4,0.7,0.8c0.2-0.3,0.4-0.5,0.8-0.7c0.3-0.2,0.7-0.3,1.1-0.3c0.3,0,0.6,0,0.9,0.1c0.3,0.1,0.5,0.2,0.7,0.4
			s0.4,0.4,0.5,0.7c0.1,0.3,0.2,0.6,0.2,1v4.2h-1.7V5.1c0-0.2,0-0.4,0-0.6c0-0.2-0.1-0.3-0.1-0.5s-0.2-0.2-0.3-0.3
			c-0.1-0.1-0.3-0.1-0.6-0.1s-0.4,0-0.6,0.1S57.5,3.9,57.4,4c-0.1,0.1-0.1,0.3-0.2,0.5c0,0.2,0,0.4,0,0.6v3.5h-1.7V5.1
			c0-0.2,0-0.4,0-0.5c0-0.2,0-0.4-0.1-0.5c-0.1-0.2-0.2-0.3-0.3-0.4s-0.3-0.1-0.6-0.1c-0.1,0-0.2,0-0.3,0.1c-0.1,0-0.3,0.1-0.4,0.2
			c-0.1,0.1-0.2,0.2-0.3,0.4c-0.1,0.2-0.1,0.4-0.1,0.7v3.6h-1.7V2.4z"/>
		<path class="st0" d="M64.2,1.4h-1.7V0h1.7V1.4z M62.5,2.4h1.7v6.2h-1.7V2.4z"/>
		<path class="st0" d="M66.9,5.9c0,0.5,0.2,0.9,0.4,1.2c0.3,0.3,0.6,0.4,1.1,0.4c0.3,0,0.6-0.1,0.9-0.3s0.4-0.4,0.5-0.5h1.5
			c-0.2,0.7-0.6,1.3-1.1,1.6s-1.1,0.5-1.8,0.5c-0.5,0-0.9-0.1-1.3-0.2s-0.7-0.4-1-0.7s-0.5-0.6-0.6-1c-0.1-0.4-0.2-0.8-0.2-1.3
			c0-0.5,0.1-0.9,0.2-1.3c0.2-0.4,0.4-0.7,0.6-1s0.6-0.5,1-0.7s0.8-0.3,1.3-0.3c0.5,0,1,0.1,1.4,0.3c0.4,0.2,0.7,0.5,1,0.8
			s0.4,0.7,0.5,1.2c0.1,0.4,0.2,0.9,0.1,1.4H66.9z M69.7,4.8c-0.1-0.4-0.2-0.8-0.4-1s-0.5-0.3-0.9-0.3c-0.3,0-0.5,0-0.7,0.1
			c-0.2,0.1-0.3,0.2-0.4,0.3c-0.1,0.1-0.2,0.3-0.2,0.4c0,0.2-0.1,0.3-0.1,0.4H69.7z"/>
		<path class="st0" d="M72.4,2.4h1.6v0.9h0c0.2-0.4,0.5-0.6,0.8-0.8s0.7-0.3,1.1-0.3c0.5,0,0.8,0.1,1.1,0.2s0.5,0.3,0.7,0.5
			s0.3,0.5,0.4,0.8c0.1,0.3,0.1,0.7,0.1,1v3.8h-1.7V5.1c0-0.5-0.1-0.9-0.2-1.1c-0.2-0.3-0.4-0.4-0.8-0.4c-0.5,0-0.8,0.1-1,0.4
			c-0.2,0.3-0.3,0.7-0.3,1.4v3.3h-1.7V2.4z"/>
		<path class="st0" d="M81.7,2.4H83v1.1h-1.2v3.1c0,0.3,0,0.5,0.1,0.6s0.3,0.1,0.6,0.1c0.2,0,0.4,0,0.5,0v1.3c-0.1,0-0.3,0-0.5,0
			c-0.2,0-0.3,0-0.5,0c-0.3,0-0.5,0-0.8-0.1c-0.2,0-0.4-0.1-0.6-0.2c-0.2-0.1-0.3-0.3-0.4-0.5C80.1,7.7,80,7.5,80,7.2V3.5h-1V2.4h1
			V0.5h1.7V2.4z"/>
		<path class="st0" d="M83.6,5.5c0-0.5,0.1-0.9,0.2-1.4c0.2-0.4,0.4-0.7,0.6-1c0.3-0.3,0.6-0.5,1-0.7c0.4-0.2,0.8-0.2,1.3-0.2
			s0.9,0.1,1.3,0.2c0.4,0.2,0.7,0.4,1,0.7c0.3,0.3,0.5,0.6,0.6,1C89.9,4.5,90,5,90,5.5s-0.1,0.9-0.2,1.3s-0.4,0.7-0.6,1
			c-0.3,0.3-0.6,0.5-1,0.7c-0.4,0.2-0.8,0.2-1.3,0.2s-0.9-0.1-1.3-0.2c-0.4-0.2-0.7-0.4-1-0.7c-0.3-0.3-0.5-0.6-0.6-1
			C83.7,6.4,83.6,6,83.6,5.5z M85.3,5.5c0,0.2,0,0.5,0.1,0.7c0,0.2,0.1,0.4,0.2,0.6c0.1,0.2,0.3,0.3,0.5,0.5
			c0.2,0.1,0.4,0.2,0.7,0.2c0.3,0,0.5-0.1,0.7-0.2C87.7,7.2,87.9,7,88,6.8c0.1-0.2,0.2-0.4,0.2-0.6c0-0.2,0.1-0.5,0.1-0.7
			s0-0.5-0.1-0.7S88.1,4.3,88,4.1s-0.3-0.3-0.5-0.5c-0.2-0.1-0.4-0.2-0.7-0.2c-0.3,0-0.5,0.1-0.7,0.2s-0.3,0.3-0.5,0.5
			c-0.1,0.2-0.2,0.4-0.2,0.6S85.3,5.2,85.3,5.5z"/>
	</g>
</g>
</svg>
