<!-- Generator: Adobe Illustrator 20.1.0, SVG Export Plug-In  -->
<svg version="1.1"
	 xmlns="http://www.w3.org/2000/svg" xmlns:xlink="http://www.w3.org/1999/xlink" xmlns:a="http://ns.adobe.com/AdobeSVGViewerExtensions/3.0/"
	 x="0px" y="0px" width="312.6px" height="214.5px" viewBox="0 0 312.6 214.5"
	 style="overflow:scroll;enable-background:new 0 0 312.6 214.5;" xml:space="preserve">
<style type="text/css">
	.st0{fill:none;stroke:#0072A3;stroke-width:1.432;stroke-linecap:round;}
	.st1{filter:url(#Adobe_OpacityMaskFilter);}
	.st2{clip-path:url(#XMLID_93_);fill:none;stroke:#FFFFFF;stroke-width:1.432;stroke-linecap:round;}
	.st3{mask:url(#XMLID_92_);}
	.st4{fill:none;stroke:#D31F33;stroke-width:1.432;stroke-linecap:round;}
	.st5{fill:none;stroke:#A3B57A;stroke-width:1.432;stroke-linecap:round;}
	.st6{fill:none;stroke:#67788C;stroke-width:1.432;stroke-linecap:round;}
	.st7{fill:none;stroke:#532971;stroke-width:1.432;stroke-linecap:round;}
	.st8{fill:none;stroke:#E9C51C;stroke-width:1.432;stroke-linecap:round;stroke-linejoin:round;stroke-miterlimit:10;}
	.st9{fill:none;stroke:#DD738A;stroke-width:1.432;stroke-linecap:round;}
	.st10{fill:none;stroke:#1A1A18;stroke-width:0.477;}
	.st11{fill:#67788C;}
	.st12{filter:url(#Adobe_OpacityMaskFilter_1_);}
	.st13{clip-path:url(#XMLID_95_);fill:none;stroke:#FFFFFF;stroke-width:1.432;stroke-linecap:round;}
	.st14{mask:url(#XMLID_94_);}
</style>
<defs>
</defs>
<line id="XMLID_91_" class="st0" x1="126.3" y1="148.1" x2="302.1" y2="178.2"/>
<g id="XMLID_83_">
	<defs>
		<filter id="Adobe_OpacityMaskFilter" filterUnits="userSpaceOnUse" x="1.2" y="13.1" width="292.6" height="147.3">
			<feColorMatrix  type="matrix" values="1 0 0 0 0  0 1 0 0 0  0 0 1 0 0  0 0 0 1 0"/>
		</filter>
	</defs>
	<mask maskUnits="userSpaceOnUse" x="1.2" y="13.1" width="292.6" height="147.3" id="XMLID_92_">
		<g id="XMLID_85_" class="st1">
			<g id="XMLID_86_">
				<defs>
					<rect id="XMLID_87_" x="-15.3" y="-1.1" width="324.4" height="163.1"/>
				</defs>
				<clipPath id="XMLID_93_">
					<use xlink:href="#XMLID_87_"  style="overflow:visible;"/>
				</clipPath>
				<polyline id="XMLID_88_" class="st2" points="1.9,13.8 54,93.6 116.7,139.8 293.1,159.7 				"/>
			</g>
		</g>
	</mask>
	<g id="XMLID_84_" class="st3">
		<g id="XMLID_89_">
			<polyline id="XMLID_90_" class="st4" points="1.9,13.8 54,93.6 116.7,139.8 293.1,159.7 			"/>
		</g>
	</g>
</g>
<polyline id="XMLID_82_" class="st5" points="8.6,26.2 60.7,112.1 123.4,143.4 299.1,178.2 "/>
<polyline id="XMLID_81_" class="st6" points="14.5,67.9 66.7,155.3 129.2,188.7 305.8,213.8 "/>
<polyline id="XMLID_80_" class="st7" points="18.2,72.7 70.5,134.1 132.3,170.4 308.8,199.1 "/>
<polyline id="XMLID_79_" class="st8" points="5.7,22.4 57.8,112.2 119.6,152.2 296.2,172 "/>
<polyline id="XMLID_78_" class="st9" points="21.3,77.5 73.4,141.5 135.9,166.6 311.9,194.2 "/>
<polyline id="XMLID_77_" class="st0" points="11.5,41.9 63.8,119.6 126.3,148.2 "/>
<line id="XMLID_76_" class="st10" x1="1.9" y1="0.2" x2="1.9" y2="28.4"/>
<line id="XMLID_75_" class="st10" x1="0" y1="0.2" x2="3.7" y2="0.2"/>
<line id="XMLID_74_" class="st10" x1="0" y1="28.4" x2="3.7" y2="28.4"/>
<line id="XMLID_73_" class="st10" x1="5.7" y1="8.6" x2="5.7" y2="36.8"/>
<line id="XMLID_72_" class="st10" x1="3.9" y1="8.6" x2="7.6" y2="8.6"/>
<line id="XMLID_71_" class="st10" x1="3.9" y1="36.8" x2="7.6" y2="36.8"/>
<line id="XMLID_70_" class="st10" x1="8.8" y1="12.3" x2="8.8" y2="40.5"/>
<line id="XMLID_69_" class="st10" x1="6.9" y1="12.3" x2="10.7" y2="12.3"/>
<line id="XMLID_68_" class="st10" x1="6.9" y1="40.5" x2="10.7" y2="40.5"/>
<line id="XMLID_67_" class="st10" x1="11.5" y1="25.6" x2="11.5" y2="57.9"/>
<line id="XMLID_66_" class="st10" x1="9.7" y1="25.6" x2="13.4" y2="25.6"/>
<line id="XMLID_65_" class="st10" x1="9.7" y1="57.9" x2="13.4" y2="57.9"/>
<line id="XMLID_64_" class="st10" x1="14.5" y1="50" x2="14.5" y2="86.1"/>
<line id="XMLID_63_" class="st10" x1="12.7" y1="50" x2="16.4" y2="50"/>
<line id="XMLID_62_" class="st10" x1="12.7" y1="86.1" x2="16.4" y2="86.1"/>
<line id="XMLID_61_" class="st10" x1="18.3" y1="56.8" x2="18.3" y2="89.2"/>
<line id="XMLID_60_" class="st10" x1="16.4" y1="56.8" x2="20.2" y2="56.8"/>
<line id="XMLID_59_" class="st10" x1="16.4" y1="89.2" x2="20.2" y2="89.2"/>
<line id="XMLID_58_" class="st10" x1="21.5" y1="53.4" x2="21.5" y2="102.7"/>
<line id="XMLID_57_" class="st10" x1="19.6" y1="53.4" x2="23.3" y2="53.4"/>
<line id="XMLID_56_" class="st10" x1="19.6" y1="102.7" x2="23.3" y2="102.7"/>
<line id="XMLID_55_" class="st10" x1="57.5" y1="90.5" x2="57.5" y2="132.4"/>
<line id="XMLID_54_" class="st10" x1="55.6" y1="90.5" x2="59.3" y2="90.5"/>
<line id="XMLID_53_" class="st10" x1="55.6" y1="132.4" x2="59.3" y2="132.4"/>
<line id="XMLID_52_" class="st10" x1="61.4" y1="90.5" x2="61.4" y2="132.4"/>
<line id="XMLID_51_" class="st10" x1="59.5" y1="90.5" x2="63.2" y2="90.5"/>
<line id="XMLID_50_" class="st10" x1="59.5" y1="132.4" x2="63.2" y2="132.4"/>
<line id="XMLID_49_" class="st10" x1="54.3" y1="73.6" x2="54.3" y2="113.6"/>
<line id="XMLID_48_" class="st10" x1="52.5" y1="73.6" x2="56.2" y2="73.6"/>
<line id="XMLID_47_" class="st10" x1="52.5" y1="113.6" x2="56.2" y2="113.6"/>
<line id="XMLID_46_" class="st10" x1="64.3" y1="99.6" x2="64.3" y2="140.5"/>
<line id="XMLID_45_" class="st10" x1="62.4" y1="99.6" x2="66.2" y2="99.6"/>
<line id="XMLID_44_" class="st10" x1="62.4" y1="140.5" x2="66.2" y2="140.5"/>
<line id="XMLID_43_" class="st10" x1="67.6" y1="133.3" x2="67.6" y2="177.9"/>
<line id="XMLID_42_" class="st10" x1="65.7" y1="133.3" x2="69.4" y2="133.3"/>
<line id="XMLID_41_" class="st10" x1="65.7" y1="177.9" x2="69.4" y2="177.9"/>
<line id="XMLID_40_" class="st10" x1="116.6" y1="120.4" x2="116.6" y2="159.6"/>
<line id="XMLID_39_" class="st10" x1="114.8" y1="120.4" x2="118.5" y2="120.4"/>
<line id="XMLID_38_" class="st10" x1="114.8" y1="159.6" x2="118.5" y2="159.6"/>
<line id="XMLID_37_" class="st10" x1="120" y1="131.8" x2="120" y2="172.5"/>
<line id="XMLID_36_" class="st10" x1="118.2" y1="131.8" x2="121.9" y2="131.8"/>
<line id="XMLID_35_" class="st10" x1="118.2" y1="172.5" x2="121.9" y2="172.5"/>
<line id="XMLID_34_" class="st10" x1="123.4" y1="125.4" x2="123.4" y2="161"/>
<line id="XMLID_33_" class="st10" x1="121.6" y1="125.4" x2="125.3" y2="125.4"/>
<line id="XMLID_32_" class="st10" x1="121.6" y1="161" x2="125.3" y2="161"/>
<line id="XMLID_31_" class="st10" x1="126.4" y1="127.2" x2="126.4" y2="169.4"/>
<line id="XMLID_30_" class="st10" x1="124.5" y1="127.2" x2="128.2" y2="127.2"/>
<line id="XMLID_29_" class="st10" x1="124.5" y1="169.4" x2="128.2" y2="169.4"/>
<line id="XMLID_28_" class="st10" x1="129.6" y1="168.3" x2="129.6" y2="208.8"/>
<line id="XMLID_27_" class="st10" x1="127.8" y1="168.3" x2="131.5" y2="168.3"/>
<line id="XMLID_26_" class="st10" x1="127.8" y1="208.8" x2="131.5" y2="208.8"/>
<line id="XMLID_25_" class="st10" x1="132.5" y1="151.9" x2="132.5" y2="188.7"/>
<line id="XMLID_24_" class="st10" x1="130.6" y1="151.9" x2="134.3" y2="151.9"/>
<line id="XMLID_23_" class="st10" x1="130.6" y1="188.7" x2="134.3" y2="188.7"/>
<line id="XMLID_22_" class="st10" x1="136.1" y1="144.2" x2="136.1" y2="188.6"/>
<line id="XMLID_21_" class="st10" x1="134.2" y1="144.2" x2="138" y2="144.2"/>
<line id="XMLID_20_" class="st10" x1="134.2" y1="188.6" x2="138" y2="188.6"/>
<line id="XMLID_19_" class="st10" x1="293.1" y1="153.2" x2="293.1" y2="191.9"/>
<line id="XMLID_18_" class="st10" x1="291.2" y1="153.2" x2="294.9" y2="153.2"/>
<line id="XMLID_17_" class="st10" x1="291.2" y1="191.9" x2="294.9" y2="191.9"/>
<line id="XMLID_16_" class="st10" x1="296.1" y1="164.5" x2="296.1" y2="205.4"/>
<line id="XMLID_15_" class="st10" x1="294.3" y1="164.5" x2="298" y2="164.5"/>
<line id="XMLID_14_" class="st10" x1="294.3" y1="205.4" x2="298" y2="205.4"/>
<line id="XMLID_13_" class="st10" x1="299" y1="170.4" x2="299" y2="211.6"/>
<line id="XMLID_12_" class="st10" x1="297.1" y1="170.4" x2="300.8" y2="170.4"/>
<line id="XMLID_11_" class="st10" x1="297.1" y1="211.6" x2="300.8" y2="211.6"/>
<line id="XMLID_10_" class="st10" x1="302.2" y1="170.6" x2="302.2" y2="211.8"/>
<line id="XMLID_9_" class="st10" x1="300.4" y1="170.6" x2="304.1" y2="170.6"/>
<line id="XMLID_8_" class="st10" x1="300.4" y1="211.8" x2="304.1" y2="211.8"/>
<line id="XMLID_7_" class="st10" x1="70.9" y1="114.7" x2="70.9" y2="153.2"/>
<line id="XMLID_6_" class="st10" x1="69" y1="114.7" x2="72.7" y2="114.7"/>
<line id="XMLID_5_" class="st10" x1="69" y1="153.2" x2="72.7" y2="153.2"/>
<line id="XMLID_4_" class="st10" x1="73.7" y1="119" x2="73.7" y2="164.4"/>
<line id="XMLID_3_" class="st10" x1="71.8" y1="119" x2="75.6" y2="119"/>
<line id="XMLID_2_" class="st10" x1="71.8" y1="164.4" x2="75.6" y2="164.4"/>
<path id="XMLID_1_" class="st0" d="M302.1,191.1"/>
<g>
	<path class="st11" d="M61.7,84.7l0.4-1.2c0.9,0.3,1.5,0.6,1.9,0.8c-0.1-1-0.2-1.7-0.2-2.1h1.2c0,0.6-0.1,1.3-0.2,2.1
		c0.6-0.3,1.2-0.6,2-0.8l0.4,1.2c-0.7,0.2-1.4,0.4-2.1,0.5c0.3,0.3,0.8,0.8,1.5,1.6l-1,0.7c-0.3-0.4-0.7-1-1.2-1.8
		c-0.4,0.8-0.8,1.4-1.1,1.8l-1-0.7c0.7-0.8,1.1-1.3,1.4-1.6C63.1,85,62.4,84.8,61.7,84.7z"/>
</g>
<g>
	<path class="st11" d="M123.8,112.3l0.4-1.2c0.9,0.3,1.5,0.6,1.9,0.8c-0.1-1-0.2-1.7-0.2-2.1h1.2c0,0.6-0.1,1.3-0.2,2.1
		c0.6-0.3,1.2-0.6,2-0.8l0.4,1.2c-0.7,0.2-1.4,0.4-2.1,0.5c0.3,0.3,0.8,0.8,1.5,1.6l-1,0.7c-0.3-0.4-0.7-1-1.2-1.8
		c-0.4,0.8-0.8,1.4-1.1,1.8l-1-0.7c0.7-0.8,1.1-1.3,1.4-1.6C125.2,112.7,124.5,112.5,123.8,112.3z"/>
</g>
<g>
	<path class="st11" d="M299.5,155.7l0.4-1.2c0.9,0.3,1.5,0.6,1.9,0.8c-0.1-1-0.2-1.7-0.2-2.1h1.2c0,0.6-0.1,1.3-0.2,2.1
		c0.6-0.3,1.2-0.6,2-0.8l0.4,1.2c-0.7,0.2-1.4,0.4-2.1,0.5c0.3,0.3,0.8,0.8,1.5,1.6l-1,0.7c-0.3-0.4-0.7-1-1.2-1.8
		c-0.4,0.8-0.8,1.4-1.1,1.8l-1-0.7c0.7-0.8,1.1-1.3,1.4-1.6C300.9,156,300.2,155.9,299.5,155.7z"/>
</g>
</svg>
