<!-- Generator: Adobe Illustrator 20.1.0, SVG Export Plug-In  -->
<svg version="1.1"
	 xmlns="http://www.w3.org/2000/svg" xmlns:xlink="http://www.w3.org/1999/xlink" xmlns:a="http://ns.adobe.com/AdobeSVGViewerExtensions/3.0/"
	 x="0px" y="0px" width="13.7px" height="301.7px" viewBox="0 0 13.7 301.7"
	 style="overflow:scroll;enable-background:new 0 0 13.7 301.7;" xml:space="preserve">
<style type="text/css">
	.st0{fill:#58595B;}
</style>
<defs>
</defs>
<g>
	<path class="st0" d="M2.6,9.8V2.8H0V1.8c0.3,0,0.7,0,1-0.1s0.6-0.1,0.9-0.3c0.3-0.1,0.5-0.3,0.6-0.6C2.6,0.7,2.8,0.4,2.8,0h0.9v9.8
		H2.6z"/>
	<path class="st0" d="M7.1,3.9c0-0.4,0.1-0.8,0.1-1.1S7.4,2,7.6,1.7c0.1-0.3,0.3-0.6,0.6-0.9c0.2-0.3,0.5-0.4,0.9-0.6
		C9.4,0.1,9.9,0,10.4,0c0.5,0,0.9,0.1,1.3,0.2c0.4,0.1,0.7,0.3,0.9,0.6c0.2,0.3,0.4,0.5,0.6,0.9c0.1,0.3,0.2,0.7,0.3,1.1
		c0.1,0.4,0.1,0.7,0.1,1.1s0,0.8,0,1.1c0,0.4,0,0.7,0,1.1s-0.1,0.8-0.1,1.1c-0.1,0.4-0.2,0.7-0.3,1s-0.3,0.6-0.6,0.9
		c-0.2,0.3-0.5,0.4-0.9,0.6c-0.4,0.1-0.8,0.2-1.3,0.2c-0.5,0-0.9-0.1-1.3-0.2S8.4,9.4,8.1,9.2C7.9,8.9,7.7,8.6,7.6,8.3
		C7.4,8,7.3,7.6,7.3,7.3S7.1,6.5,7.1,6.1c0-0.4,0-0.8,0-1.1C7.1,4.6,7.1,4.3,7.1,3.9z M8.4,6.2c0,0.5,0.1,0.9,0.2,1.3s0.3,0.7,0.6,1
		C9.5,8.8,9.9,9,10.4,9c0.5,0,0.9-0.1,1.2-0.4c0.3-0.3,0.5-0.6,0.6-1s0.2-0.8,0.2-1.3c0-0.5,0-0.9,0-1.2c0-0.2,0-0.5,0-0.8
		c0-0.3,0-0.6-0.1-0.9c0-0.3-0.1-0.6-0.2-0.9c-0.1-0.3-0.2-0.5-0.3-0.7s-0.3-0.4-0.6-0.5C11,1.1,10.7,1,10.4,1C10,1,9.8,1.1,9.5,1.2
		C9.3,1.4,9.1,1.5,8.9,1.7C8.8,1.9,8.7,2.2,8.6,2.5C8.5,2.7,8.5,3,8.4,3.3c0,0.3-0.1,0.6-0.1,0.9c0,0.3,0,0.6,0,0.8
		C8.3,5.4,8.4,5.8,8.4,6.2z"/>
</g>
<g>
	<path class="st0" d="M12.2,44.6c-0.4,0.7-0.8,1.4-1.2,2.2c-0.3,0.8-0.6,1.6-0.8,2.4s-0.3,1.6-0.4,2.4H8.5c0.1-0.8,0.2-1.6,0.4-2.4
		c0.2-0.8,0.5-1.5,0.8-2.3s0.7-1.4,1.2-2.1c0.4-0.6,0.9-1.2,1.4-1.8H7.2v-1.1h6.4v1C13.1,43.3,12.6,43.9,12.2,44.6z"/>
</g>
<g>
	<path class="st0" d="M11.7,84.8c-0.3-0.3-0.7-0.4-1.1-0.4c-0.5,0-0.9,0.1-1.2,0.4s-0.5,0.6-0.7,0.9c-0.2,0.4-0.3,0.8-0.4,1.2
		c-0.1,0.4-0.1,0.8-0.1,1.2l0,0c0.3-0.5,0.6-0.8,1-1s0.9-0.3,1.4-0.3c0.5,0,0.9,0.1,1.3,0.2c0.4,0.2,0.7,0.4,0.9,0.7
		c0.3,0.3,0.5,0.6,0.6,1s0.2,0.8,0.2,1.3c0,0.4-0.1,0.7-0.2,1.1c-0.1,0.4-0.3,0.7-0.5,1.1c-0.3,0.3-0.6,0.6-1,0.8
		c-0.4,0.2-0.9,0.3-1.6,0.3c-0.7,0-1.3-0.1-1.8-0.4c-0.4-0.3-0.8-0.7-1-1.1s-0.4-1-0.5-1.5C7.1,89.7,7,89.1,7,88.6
		c0-0.7,0.1-1.3,0.2-2C7.3,86,7.5,85.5,7.8,85c0.3-0.5,0.6-0.9,1.1-1.2c0.5-0.3,1-0.4,1.7-0.4c0.8,0,1.5,0.2,1.9,0.6
		c0.5,0.4,0.8,1.1,0.8,1.9h-1.2C12.2,85.4,12,85.1,11.7,84.8z M9.6,88.1c-0.3,0.1-0.5,0.3-0.6,0.5S8.7,89,8.6,89.3s-0.1,0.6-0.1,0.9
		s0,0.6,0.1,0.9c0.1,0.3,0.2,0.5,0.4,0.7c0.2,0.2,0.4,0.3,0.6,0.5c0.3,0.1,0.5,0.2,0.9,0.2c0.3,0,0.6-0.1,0.9-0.2
		c0.2-0.1,0.5-0.3,0.6-0.5c0.2-0.2,0.3-0.4,0.4-0.7s0.1-0.5,0.1-0.8c0-0.3,0-0.6-0.1-0.9c-0.1-0.3-0.2-0.5-0.4-0.7
		c-0.2-0.2-0.4-0.4-0.6-0.5s-0.5-0.2-0.9-0.2C10.1,87.9,9.9,88,9.6,88.1z"/>
</g>
<g>
	<path class="st0" d="M9.1,126.2l-0.5,2.8l0,0c0.2-0.2,0.5-0.4,0.8-0.5c0.3-0.1,0.7-0.2,1-0.2c0.4,0,0.8,0.1,1.2,0.2
		c0.4,0.1,0.7,0.3,1,0.6c0.3,0.3,0.5,0.6,0.7,1.1s0.3,0.9,0.3,1.5c0,0.4-0.1,0.8-0.2,1.2c-0.1,0.4-0.4,0.7-0.6,1s-0.6,0.5-1.1,0.7
		c-0.4,0.2-0.9,0.3-1.5,0.3c-0.4,0-0.8-0.1-1.2-0.2c-0.4-0.1-0.7-0.3-1-0.5c-0.3-0.2-0.5-0.5-0.7-0.9c-0.2-0.4-0.3-0.8-0.3-1.2h1.2
		c0,0.3,0.1,0.5,0.2,0.7c0.1,0.2,0.3,0.4,0.4,0.6s0.4,0.3,0.6,0.4c0.2,0.1,0.5,0.1,0.8,0.1c0.3,0,0.5,0,0.8-0.1
		c0.3-0.1,0.5-0.2,0.7-0.4c0.2-0.2,0.3-0.4,0.5-0.7c0.1-0.3,0.2-0.6,0.2-1c0-0.3-0.1-0.6-0.2-0.9c-0.1-0.3-0.3-0.5-0.5-0.7
		c-0.2-0.2-0.4-0.4-0.7-0.5c-0.3-0.1-0.6-0.2-0.9-0.2c-0.4,0-0.7,0.1-1,0.3s-0.6,0.4-0.8,0.7l-1-0.1l0.9-5.1H13v1H9.1z"/>
</g>
<g>
	<path class="st0" d="M13.7,173.2v1h-1.3v2.3h-1.1v-2.3H6.9v-1.1l4.5-6.4h0.9v6.5H13.7z M11.2,168.4L11.2,168.4l-3.3,4.8h3.3V168.4z
		"/>
</g>
<g>
	<path class="st0" d="M9.7,212.6c0,0,0.1,0,0.1,0h0.2c0.3,0,0.5,0,0.7-0.1c0.2-0.1,0.4-0.2,0.6-0.3c0.2-0.1,0.3-0.3,0.4-0.5
		c0.1-0.2,0.2-0.4,0.2-0.7c0-0.5-0.2-0.9-0.5-1.2s-0.8-0.4-1.2-0.4c-0.3,0-0.6,0.1-0.8,0.2c-0.2,0.1-0.4,0.3-0.6,0.5
		c-0.2,0.2-0.3,0.4-0.3,0.7s-0.1,0.5-0.1,0.8H7.1c0-0.5,0.1-0.9,0.2-1.3c0.1-0.4,0.3-0.7,0.6-1c0.2-0.3,0.6-0.5,0.9-0.7
		s0.8-0.2,1.3-0.2c0.4,0,0.8,0.1,1.2,0.2s0.7,0.3,1,0.5c0.3,0.2,0.5,0.5,0.6,0.8s0.2,0.7,0.2,1.2c0,0.4-0.1,0.8-0.4,1.2
		c-0.3,0.3-0.6,0.6-1,0.8v0c0.6,0.1,1,0.4,1.3,0.8c0.3,0.4,0.4,0.9,0.4,1.5c0,0.5-0.1,0.9-0.3,1.3c-0.2,0.4-0.4,0.7-0.7,0.9
		c-0.3,0.3-0.7,0.4-1.1,0.6c-0.4,0.1-0.8,0.2-1.3,0.2c-0.5,0-1-0.1-1.4-0.2c-0.4-0.1-0.8-0.3-1-0.6c-0.3-0.3-0.5-0.6-0.7-1
		c-0.2-0.4-0.2-0.9-0.2-1.4h1.2c0,0.6,0.2,1.2,0.6,1.6c0.4,0.4,0.9,0.6,1.5,0.6c0.3,0,0.6,0,0.8-0.1c0.3-0.1,0.5-0.2,0.7-0.4
		c0.2-0.2,0.3-0.4,0.5-0.6c0.1-0.2,0.2-0.5,0.2-0.8c0-0.3-0.1-0.6-0.2-0.8c-0.1-0.2-0.3-0.4-0.4-0.6c-0.2-0.2-0.4-0.3-0.7-0.4
		c-0.3-0.1-0.5-0.1-0.8-0.1c-0.3,0-0.5,0-0.7,0v-1C9.6,212.6,9.6,212.6,9.7,212.6z"/>
</g>
<g>
	<path class="st0" d="M7.3,252.2c0.1-0.4,0.3-0.8,0.6-1.1c0.3-0.3,0.6-0.6,1-0.7c0.4-0.2,0.9-0.3,1.4-0.3c0.4,0,0.8,0.1,1.2,0.2
		c0.4,0.1,0.7,0.3,1,0.5c0.3,0.2,0.5,0.5,0.7,0.9c0.2,0.4,0.2,0.8,0.2,1.2c0,0.4-0.1,0.8-0.2,1.2c-0.1,0.3-0.3,0.6-0.5,0.9
		c-0.2,0.3-0.5,0.5-0.8,0.7c-0.3,0.2-0.6,0.4-0.9,0.6c-0.3,0.2-0.6,0.4-0.9,0.5c-0.3,0.2-0.6,0.4-0.8,0.6c-0.3,0.2-0.5,0.4-0.7,0.7
		c-0.2,0.2-0.3,0.5-0.4,0.8h5.1v1H6.8c0-0.6,0.2-1.1,0.3-1.5c0.2-0.4,0.4-0.8,0.6-1.1c0.3-0.3,0.5-0.6,0.8-0.8
		c0.3-0.2,0.6-0.4,1-0.7c0.4-0.3,0.8-0.5,1.1-0.7c0.3-0.2,0.6-0.4,0.8-0.7c0.2-0.2,0.4-0.5,0.5-0.7c0.1-0.3,0.2-0.6,0.2-0.9
		c0-0.3-0.1-0.5-0.2-0.7c-0.1-0.2-0.2-0.4-0.4-0.6s-0.4-0.3-0.6-0.4c-0.2-0.1-0.5-0.1-0.7-0.1c-0.3,0-0.6,0.1-0.9,0.2
		s-0.4,0.3-0.6,0.6c-0.2,0.2-0.3,0.5-0.3,0.8c-0.1,0.3-0.1,0.6-0.1,0.9H7.1C7.1,253.1,7.1,252.6,7.3,252.2z"/>
</g>
<g>
	<path class="st0" d="M7.1,295.6c0-0.4,0.1-0.8,0.1-1.1s0.2-0.7,0.3-1.1c0.1-0.3,0.3-0.6,0.6-0.9c0.2-0.3,0.5-0.4,0.9-0.6
		c0.4-0.1,0.8-0.2,1.3-0.2c0.5,0,0.9,0.1,1.3,0.2c0.4,0.1,0.7,0.3,0.9,0.6c0.2,0.3,0.4,0.5,0.6,0.9c0.1,0.3,0.2,0.7,0.3,1.1
		c0.1,0.4,0.1,0.7,0.1,1.1s0,0.8,0,1.1c0,0.4,0,0.7,0,1.1s-0.1,0.8-0.1,1.1c-0.1,0.4-0.2,0.7-0.3,1s-0.3,0.6-0.6,0.9
		c-0.2,0.3-0.5,0.4-0.9,0.6c-0.4,0.1-0.8,0.2-1.3,0.2c-0.5,0-0.9-0.1-1.3-0.2s-0.7-0.3-0.9-0.6c-0.2-0.3-0.4-0.5-0.6-0.9
		c-0.1-0.3-0.2-0.7-0.3-1s-0.1-0.8-0.1-1.1c0-0.4,0-0.8,0-1.1C7.1,296.4,7.1,296,7.1,295.6z M8.4,298c0,0.5,0.1,0.9,0.2,1.3
		s0.3,0.7,0.6,1c0.3,0.3,0.7,0.4,1.2,0.4c0.5,0,0.9-0.1,1.2-0.4c0.3-0.3,0.5-0.6,0.6-1s0.2-0.8,0.2-1.3c0-0.5,0-0.9,0-1.2
		c0-0.2,0-0.5,0-0.8c0-0.3,0-0.6-0.1-0.9c0-0.3-0.1-0.6-0.2-0.9c-0.1-0.3-0.2-0.5-0.3-0.7s-0.3-0.4-0.6-0.5
		c-0.2-0.1-0.5-0.2-0.8-0.2c-0.3,0-0.6,0.1-0.8,0.2c-0.2,0.1-0.4,0.3-0.6,0.5c-0.2,0.2-0.3,0.5-0.3,0.7c-0.1,0.3-0.1,0.6-0.2,0.9
		c0,0.3-0.1,0.6-0.1,0.9c0,0.3,0,0.6,0,0.8C8.3,297.1,8.4,297.5,8.4,298z"/>
</g>
</svg>
