<!-- Generator: Adobe Illustrator 20.1.0, SVG Export Plug-In  -->
<svg version="1.1"
	 xmlns="http://www.w3.org/2000/svg" xmlns:xlink="http://www.w3.org/1999/xlink" xmlns:a="http://ns.adobe.com/AdobeSVGViewerExtensions/3.0/"
	 x="0px" y="0px" width="245.3px" height="6.2px" viewBox="0 0 245.3 6.2"
	 style="overflow:scroll;enable-background:new 0 0 245.3 6.2;" xml:space="preserve">
<style type="text/css">
	.st0{opacity:0.8;fill:#58595B;}
</style>
<defs>
</defs>
<g>
	<path class="st0" d="M4,4.9L4,4.1h0C3.9,4.2,3.8,4.4,3.7,4.5S3.4,4.7,3.3,4.8S3,5,2.8,5C2.6,5,2.5,5,2.3,5C1.9,5,1.6,5,1.3,4.8
		C1,4.7,0.8,4.5,0.6,4.3S0.2,3.8,0.1,3.5C0,3.2,0,2.9,0,2.5c0-0.3,0-0.7,0.1-1C0.2,1.3,0.4,1,0.6,0.8C0.8,0.5,1,0.3,1.3,0.2
		C1.6,0.1,1.9,0,2.3,0C2.5,0,2.8,0,3,0.1c0.2,0.1,0.4,0.2,0.6,0.3c0.2,0.1,0.3,0.3,0.4,0.5s0.2,0.4,0.3,0.7H3.8
		c0-0.1-0.1-0.3-0.1-0.4C3.6,1,3.5,0.9,3.4,0.8C3.3,0.7,3.1,0.6,2.9,0.5C2.7,0.4,2.5,0.4,2.3,0.4C2,0.4,1.7,0.5,1.5,0.6
		C1.2,0.7,1,0.9,0.9,1.1C0.7,1.3,0.6,1.5,0.6,1.7C0.5,2,0.5,2.3,0.5,2.5c0,0.3,0,0.5,0.1,0.8C0.6,3.6,0.7,3.8,0.9,4s0.3,0.4,0.6,0.5
		C1.7,4.6,2,4.7,2.3,4.7c0.3,0,0.5,0,0.7-0.1s0.4-0.2,0.5-0.4s0.3-0.3,0.3-0.6S4,3.1,4,2.9H2.3V2.5h2.1v2.5H4z"/>
	<path class="st0" d="M6.4,1.4v0.8h0C6.5,2,6.7,1.8,6.9,1.6c0.2-0.2,0.5-0.2,0.8-0.2v0.4c-0.2,0-0.4,0-0.5,0.1C7,2,6.9,2.1,6.8,2.2
		S6.6,2.4,6.5,2.6C6.4,2.7,6.4,2.9,6.4,3.1v1.9H6V1.4H6.4z"/>
	<path class="st0" d="M9,2c0.1-0.1,0.2-0.3,0.3-0.4c0.1-0.1,0.3-0.2,0.4-0.2c0.2,0,0.4-0.1,0.6-0.1c0.2,0,0.3,0,0.5,0
		c0.2,0,0.3,0.1,0.4,0.2c0.1,0.1,0.2,0.2,0.3,0.3c0.1,0.1,0.1,0.3,0.1,0.6v1.9c0,0.2,0.1,0.3,0.3,0.3c0,0,0.1,0,0.1,0v0.4
		c0,0-0.1,0-0.1,0c0,0-0.1,0-0.1,0c-0.1,0-0.2,0-0.3,0c-0.1,0-0.1-0.1-0.2-0.1c0-0.1-0.1-0.1-0.1-0.2c0-0.1,0-0.2,0-0.2h0
		C11.1,4.4,11,4.5,11,4.6c-0.1,0.1-0.2,0.2-0.3,0.2C10.6,4.9,10.5,5,10.4,5c-0.1,0-0.3,0-0.4,0C9.8,5,9.6,5,9.5,5S9.2,4.9,9.1,4.8
		C9,4.7,8.9,4.6,8.8,4.5C8.8,4.4,8.8,4.2,8.8,4c0-0.2,0.1-0.4,0.2-0.6C9,3.3,9.2,3.2,9.3,3.1C9.5,3.1,9.7,3,9.9,3
		c0.2,0,0.5-0.1,0.7-0.1c0.1,0,0.2,0,0.2,0c0.1,0,0.1,0,0.2-0.1c0,0,0.1-0.1,0.1-0.1s0-0.1,0-0.2c0-0.1,0-0.3-0.1-0.4
		c0-0.1-0.1-0.2-0.2-0.2c-0.1-0.1-0.2-0.1-0.3-0.1c-0.1,0-0.2,0-0.4,0c-0.3,0-0.5,0.1-0.7,0.2S9.3,2.2,9.3,2.5H8.9
		C8.9,2.3,9,2.1,9,2z M11.2,3c0,0-0.1,0.1-0.2,0.1c-0.1,0-0.1,0-0.2,0c-0.2,0-0.4,0.1-0.6,0.1c-0.2,0-0.4,0.1-0.5,0.1
		c-0.2,0-0.3,0.1-0.4,0.2S9.2,3.8,9.2,4c0,0.1,0,0.2,0.1,0.3s0.1,0.2,0.2,0.2c0.1,0.1,0.2,0.1,0.3,0.1c0.1,0,0.2,0,0.3,0
		c0.2,0,0.3,0,0.5-0.1c0.1,0,0.3-0.1,0.4-0.2C10.9,4.3,11,4.2,11.1,4c0.1-0.1,0.1-0.3,0.1-0.5L11.2,3L11.2,3z M9.9,1l0.7-1h0.5
		l-0.9,1H9.9z"/>
	<path class="st0" d="M13.9,1.8v3.1h-0.4V1.8h-0.6V1.4h0.6V1.1c0-0.1,0-0.3,0-0.4c0-0.1,0.1-0.2,0.1-0.3c0.1-0.1,0.2-0.2,0.3-0.2
		s0.3-0.1,0.4-0.1c0.1,0,0.1,0,0.2,0c0.1,0,0.1,0,0.2,0v0.4c-0.1,0-0.1,0-0.2,0c0,0-0.1,0-0.1,0c-0.1,0-0.2,0-0.3,0.1
		c-0.1,0-0.1,0.1-0.1,0.1c0,0.1,0,0.1-0.1,0.2c0,0.1,0,0.2,0,0.3v0.3h0.7v0.4H13.9z"/>
	<path class="st0" d="M16.3,0.1v0.7h-0.4V0.1H16.3z M16.3,1.4v3.5h-0.4V1.4H16.3z"/>
	<path class="st0" d="M20.1,1.9c-0.2-0.1-0.4-0.2-0.7-0.2c-0.2,0-0.4,0-0.5,0.1c-0.2,0.1-0.3,0.2-0.4,0.3c-0.1,0.1-0.2,0.3-0.2,0.5
		c-0.1,0.2-0.1,0.4-0.1,0.5s0,0.4,0.1,0.5c0.1,0.2,0.1,0.3,0.2,0.5c0.1,0.1,0.2,0.3,0.4,0.3c0.2,0.1,0.3,0.1,0.5,0.1
		c0.1,0,0.3,0,0.4-0.1s0.2-0.1,0.3-0.2c0.1-0.1,0.2-0.2,0.2-0.3c0.1-0.1,0.1-0.3,0.1-0.4h0.4c-0.1,0.4-0.2,0.8-0.5,1
		c-0.3,0.2-0.6,0.4-1,0.4c-0.3,0-0.5,0-0.7-0.1c-0.2-0.1-0.4-0.2-0.5-0.4c-0.1-0.2-0.2-0.4-0.3-0.6s-0.1-0.5-0.1-0.7s0-0.5,0.1-0.7
		s0.2-0.4,0.3-0.6c0.1-0.2,0.3-0.3,0.5-0.4c0.2-0.1,0.4-0.1,0.7-0.1c0.4,0,0.7,0.1,1,0.3c0.3,0.2,0.4,0.5,0.5,0.9h-0.4
		C20.3,2.3,20.2,2.1,20.1,1.9z"/>
	<path class="st0" d="M22.3,2c0.1-0.1,0.2-0.3,0.3-0.4c0.1-0.1,0.3-0.2,0.4-0.2c0.2,0,0.4-0.1,0.6-0.1c0.2,0,0.3,0,0.5,0
		c0.2,0,0.3,0.1,0.4,0.2c0.1,0.1,0.2,0.2,0.3,0.3c0.1,0.1,0.1,0.3,0.1,0.6v1.9c0,0.2,0.1,0.3,0.3,0.3c0,0,0.1,0,0.1,0v0.4
		c0,0-0.1,0-0.1,0c0,0-0.1,0-0.1,0c-0.1,0-0.2,0-0.3,0c-0.1,0-0.1-0.1-0.2-0.1c0-0.1-0.1-0.1-0.1-0.2c0-0.1,0-0.2,0-0.2h0
		c-0.1,0.1-0.2,0.2-0.2,0.3c-0.1,0.1-0.2,0.2-0.3,0.2C23.9,4.9,23.8,5,23.7,5c-0.1,0-0.3,0-0.4,0c-0.2,0-0.3,0-0.5-0.1
		s-0.3-0.1-0.4-0.2c-0.1-0.1-0.2-0.2-0.3-0.3c-0.1-0.1-0.1-0.3-0.1-0.5c0-0.2,0.1-0.4,0.2-0.6c0.1-0.1,0.3-0.2,0.4-0.3
		C22.8,3.1,23,3,23.3,3c0.2,0,0.5-0.1,0.7-0.1c0.1,0,0.2,0,0.2,0c0.1,0,0.1,0,0.2-0.1c0,0,0.1-0.1,0.1-0.1s0-0.1,0-0.2
		c0-0.1,0-0.3-0.1-0.4c0-0.1-0.1-0.2-0.2-0.2c-0.1-0.1-0.2-0.1-0.3-0.1c-0.1,0-0.2,0-0.4,0c-0.3,0-0.5,0.1-0.7,0.2s-0.3,0.3-0.3,0.6
		h-0.4C22.2,2.3,22.3,2.1,22.3,2z M24.5,3c0,0-0.1,0.1-0.2,0.1c-0.1,0-0.1,0-0.2,0c-0.2,0-0.4,0.1-0.6,0.1c-0.2,0-0.4,0.1-0.5,0.1
		c-0.2,0-0.3,0.1-0.4,0.2S22.5,3.8,22.5,4c0,0.1,0,0.2,0.1,0.3s0.1,0.2,0.2,0.2c0.1,0.1,0.2,0.1,0.3,0.1c0.1,0,0.2,0,0.3,0
		c0.2,0,0.3,0,0.5-0.1c0.1,0,0.3-0.1,0.4-0.2c0.1-0.1,0.2-0.2,0.3-0.3c0.1-0.1,0.1-0.3,0.1-0.5L24.5,3L24.5,3z"/>
	<path class="st0" d="M30.7,1.4v0.4H30v2.4c0,0.1,0,0.3,0.1,0.3s0.1,0.1,0.3,0.1c0.1,0,0.2,0,0.4,0V5c-0.1,0-0.1,0-0.2,0
		c-0.1,0-0.1,0-0.2,0c-0.3,0-0.5-0.1-0.6-0.2c-0.1-0.1-0.2-0.3-0.2-0.6V1.8h-0.6V1.4h0.6V0.4H30v1.1H30.7z"/>
	<path class="st0" d="M34.3,1.5c0.2,0.1,0.4,0.2,0.5,0.4c0.1,0.2,0.2,0.4,0.3,0.6s0.1,0.5,0.1,0.7s0,0.5-0.1,0.7S35,4.3,34.8,4.5
		c-0.1,0.2-0.3,0.3-0.5,0.4C34.1,5,33.8,5,33.6,5s-0.5,0-0.7-0.1c-0.2-0.1-0.4-0.2-0.5-0.4c-0.1-0.2-0.2-0.4-0.3-0.6
		c-0.1-0.2-0.1-0.5-0.1-0.7s0-0.5,0.1-0.7c0.1-0.2,0.2-0.4,0.3-0.6c0.1-0.2,0.3-0.3,0.5-0.4c0.2-0.1,0.4-0.1,0.7-0.1
		S34.1,1.4,34.3,1.5z M33,1.8c-0.2,0.1-0.3,0.2-0.4,0.3c-0.1,0.1-0.2,0.3-0.2,0.5c-0.1,0.2-0.1,0.4-0.1,0.5s0,0.4,0.1,0.5
		c0.1,0.2,0.1,0.3,0.2,0.5c0.1,0.1,0.2,0.3,0.4,0.3c0.2,0.1,0.3,0.1,0.5,0.1s0.4,0,0.5-0.1c0.2-0.1,0.3-0.2,0.4-0.3
		c0.1-0.1,0.2-0.3,0.2-0.5c0.1-0.2,0.1-0.4,0.1-0.5s0-0.4-0.1-0.5c-0.1-0.2-0.1-0.3-0.2-0.5c-0.1-0.1-0.2-0.3-0.4-0.3
		c-0.2-0.1-0.3-0.1-0.5-0.1S33.2,1.7,33,1.8z"/>
	<path class="st0" d="M37.1,1.4V2h0c0.1-0.2,0.3-0.4,0.4-0.5s0.4-0.2,0.7-0.2c0.2,0,0.4,0.1,0.6,0.2c0.2,0.1,0.3,0.3,0.4,0.5
		c0.1-0.2,0.3-0.4,0.5-0.5c0.2-0.1,0.4-0.2,0.7-0.2c0.8,0,1.2,0.4,1.2,1.2v2.4h-0.4V2.6c0-0.3-0.1-0.5-0.2-0.7
		c-0.1-0.2-0.3-0.2-0.6-0.2c-0.2,0-0.3,0-0.5,0.1c-0.1,0.1-0.2,0.2-0.3,0.3c-0.1,0.1-0.1,0.3-0.2,0.4s0,0.3,0,0.5v2h-0.4V2.6
		c0-0.1,0-0.2,0-0.3c0-0.1-0.1-0.2-0.1-0.3s-0.1-0.1-0.2-0.2c-0.1,0-0.2-0.1-0.3-0.1c-0.2,0-0.3,0-0.5,0.1c-0.1,0.1-0.2,0.2-0.3,0.3
		c-0.1,0.1-0.1,0.3-0.2,0.4S37.1,2.8,37.1,3v2h-0.4V1.4H37.1z"/>
	<path class="st0" d="M43.2,2c0.1-0.1,0.2-0.3,0.3-0.4c0.1-0.1,0.3-0.2,0.4-0.2c0.2,0,0.4-0.1,0.6-0.1c0.2,0,0.3,0,0.5,0
		s0.3,0.1,0.4,0.2s0.2,0.2,0.3,0.3c0.1,0.1,0.1,0.3,0.1,0.6v1.9c0,0.2,0.1,0.3,0.3,0.3c0.1,0,0.1,0,0.1,0v0.4c-0.1,0-0.1,0-0.1,0
		s-0.1,0-0.1,0c-0.1,0-0.2,0-0.3,0s-0.1-0.1-0.2-0.1c0-0.1-0.1-0.1-0.1-0.2c0-0.1,0-0.2,0-0.2h0c-0.1,0.1-0.2,0.2-0.2,0.3
		S45,4.8,44.9,4.9S44.7,5,44.6,5c-0.1,0-0.3,0-0.4,0C44,5,43.8,5,43.7,5s-0.3-0.1-0.4-0.2c-0.1-0.1-0.2-0.2-0.3-0.3S43,4.2,43,4
		c0-0.2,0.1-0.4,0.2-0.6c0.1-0.1,0.3-0.2,0.4-0.3C43.7,3.1,43.9,3,44.2,3s0.5-0.1,0.7-0.1c0.1,0,0.2,0,0.2,0c0.1,0,0.1,0,0.2-0.1
		c0,0,0.1-0.1,0.1-0.1c0-0.1,0-0.1,0-0.2c0-0.1,0-0.3-0.1-0.4c0-0.1-0.1-0.2-0.2-0.2c-0.1-0.1-0.2-0.1-0.3-0.1s-0.2,0-0.4,0
		c-0.3,0-0.5,0.1-0.7,0.2s-0.3,0.3-0.3,0.6h-0.4C43.1,2.3,43.2,2.1,43.2,2z M45.4,3c0,0-0.1,0.1-0.2,0.1c-0.1,0-0.1,0-0.2,0
		c-0.2,0-0.4,0.1-0.6,0.1c-0.2,0-0.4,0.1-0.5,0.1c-0.2,0-0.3,0.1-0.4,0.2c-0.1,0.1-0.2,0.2-0.2,0.4c0,0.1,0,0.2,0.1,0.3
		s0.1,0.2,0.2,0.2c0.1,0.1,0.2,0.1,0.3,0.1c0.1,0,0.2,0,0.3,0c0.2,0,0.3,0,0.5-0.1s0.3-0.1,0.4-0.2c0.1-0.1,0.2-0.2,0.3-0.3
		s0.1-0.3,0.1-0.5L45.4,3L45.4,3z"/>
	<path class="st0" d="M50.2,4.9V4.3h0c0,0.1-0.1,0.2-0.2,0.3s-0.2,0.2-0.3,0.2C49.5,4.9,49.4,5,49.3,5S49,5,48.9,5
		c-0.3,0-0.5,0-0.7-0.1c-0.2-0.1-0.4-0.2-0.5-0.4c-0.1-0.2-0.2-0.4-0.3-0.6c-0.1-0.2-0.1-0.5-0.1-0.7s0-0.5,0.1-0.7
		c0.1-0.2,0.2-0.4,0.3-0.6c0.1-0.2,0.3-0.3,0.5-0.4c0.2-0.1,0.4-0.1,0.7-0.1c0.1,0,0.3,0,0.4,0c0.1,0,0.2,0.1,0.3,0.1
		s0.2,0.1,0.3,0.2s0.1,0.2,0.2,0.3h0v-2h0.4v4.8H50.2z M47.8,3.7c0,0.2,0.1,0.3,0.2,0.5c0.1,0.1,0.2,0.3,0.4,0.3
		c0.1,0.1,0.3,0.1,0.5,0.1c0.2,0,0.4,0,0.6-0.1c0.2-0.1,0.3-0.2,0.4-0.3C50,4.1,50,3.9,50.1,3.7s0.1-0.4,0.1-0.5s0-0.4-0.1-0.5
		S50,2.3,49.9,2.2c-0.1-0.1-0.2-0.3-0.4-0.3c-0.2-0.1-0.3-0.1-0.6-0.1c-0.2,0-0.4,0-0.5,0.1C48.2,1.9,48.1,2,48,2.2
		c-0.1,0.1-0.2,0.3-0.2,0.5S47.8,3,47.8,3.2S47.8,3.6,47.8,3.7z"/>
	<path class="st0" d="M52.3,2c0.1-0.1,0.2-0.3,0.3-0.4c0.1-0.1,0.3-0.2,0.4-0.2s0.4-0.1,0.6-0.1c0.2,0,0.3,0,0.5,0s0.3,0.1,0.4,0.2
		s0.2,0.2,0.3,0.3c0.1,0.1,0.1,0.3,0.1,0.6v1.9c0,0.2,0.1,0.3,0.3,0.3c0,0,0.1,0,0.1,0v0.4c0,0-0.1,0-0.1,0s-0.1,0-0.1,0
		c-0.1,0-0.2,0-0.3,0c-0.1,0-0.1-0.1-0.2-0.1c0-0.1-0.1-0.1-0.1-0.2c0-0.1,0-0.2,0-0.2h0c-0.1,0.1-0.2,0.2-0.2,0.3S54.1,4.8,54,4.9
		C53.9,4.9,53.7,5,53.6,5c-0.1,0-0.3,0-0.4,0C53,5,52.9,5,52.7,5s-0.3-0.1-0.4-0.2c-0.1-0.1-0.2-0.2-0.3-0.3S52,4.2,52,4
		c0-0.2,0.1-0.4,0.2-0.6c0.1-0.1,0.3-0.2,0.4-0.3C52.8,3.1,53,3,53.2,3c0.2,0,0.5-0.1,0.7-0.1c0.1,0,0.2,0,0.2,0
		c0.1,0,0.1,0,0.2-0.1c0,0,0.1-0.1,0.1-0.1c0-0.1,0-0.1,0-0.2c0-0.1,0-0.3-0.1-0.4c0-0.1-0.1-0.2-0.2-0.2c-0.1-0.1-0.2-0.1-0.3-0.1
		s-0.2,0-0.4,0c-0.3,0-0.5,0.1-0.7,0.2s-0.3,0.3-0.3,0.6h-0.4C52.2,2.3,52.2,2.1,52.3,2z M54.4,3c0,0-0.1,0.1-0.2,0.1
		c-0.1,0-0.1,0-0.2,0c-0.2,0-0.4,0.1-0.6,0.1c-0.2,0-0.4,0.1-0.5,0.1c-0.2,0-0.3,0.1-0.4,0.2S52.4,3.8,52.4,4c0,0.1,0,0.2,0.1,0.3
		s0.1,0.2,0.2,0.2c0.1,0.1,0.2,0.1,0.3,0.1c0.1,0,0.2,0,0.3,0c0.2,0,0.3,0,0.5-0.1c0.1,0,0.3-0.1,0.4-0.2c0.1-0.1,0.2-0.2,0.3-0.3
		c0.1-0.1,0.1-0.3,0.1-0.5L54.4,3L54.4,3z"/>
	<path class="st0" d="M61.9,4.9V4.3h0c0,0.1-0.1,0.2-0.2,0.3s-0.2,0.2-0.3,0.2C61.3,4.9,61.2,5,61,5S60.8,5,60.7,5
		c-0.3,0-0.5,0-0.7-0.1c-0.2-0.1-0.4-0.2-0.5-0.4c-0.1-0.2-0.2-0.4-0.3-0.6c-0.1-0.2-0.1-0.5-0.1-0.7s0-0.5,0.1-0.7
		c0.1-0.2,0.2-0.4,0.3-0.6c0.1-0.2,0.3-0.3,0.5-0.4c0.2-0.1,0.4-0.1,0.7-0.1c0.1,0,0.3,0,0.4,0c0.1,0,0.2,0.1,0.3,0.1
		c0.1,0.1,0.2,0.1,0.3,0.2s0.1,0.2,0.2,0.3h0v-2h0.4v4.8H61.9z M59.6,3.7c0,0.2,0.1,0.3,0.2,0.5c0.1,0.1,0.2,0.3,0.4,0.3
		c0.1,0.1,0.3,0.1,0.5,0.1c0.2,0,0.4,0,0.6-0.1c0.2-0.1,0.3-0.2,0.4-0.3c0.1-0.1,0.2-0.3,0.2-0.5s0.1-0.4,0.1-0.5s0-0.4-0.1-0.5
		s-0.1-0.3-0.2-0.5c-0.1-0.1-0.2-0.3-0.4-0.3c-0.2-0.1-0.3-0.1-0.6-0.1c-0.2,0-0.4,0-0.5,0.1C60,1.9,59.9,2,59.8,2.2
		c-0.1,0.1-0.2,0.3-0.2,0.5S59.5,3,59.5,3.2S59.5,3.6,59.6,3.7z"/>
	<path class="st0" d="M64.3,3.8c0,0.2,0.1,0.3,0.2,0.4c0.1,0.1,0.2,0.2,0.4,0.3s0.3,0.1,0.5,0.1c0.3,0,0.6-0.1,0.7-0.2
		c0.2-0.2,0.3-0.4,0.4-0.7h0.4c-0.1,0.4-0.3,0.7-0.5,0.9c-0.2,0.2-0.6,0.3-1,0.3c-0.3,0-0.5,0-0.7-0.1c-0.2-0.1-0.4-0.2-0.5-0.4
		s-0.2-0.4-0.3-0.6s-0.1-0.5-0.1-0.7c0-0.2,0-0.5,0.1-0.7c0.1-0.2,0.2-0.4,0.3-0.6c0.1-0.2,0.3-0.3,0.5-0.4s0.4-0.2,0.7-0.2
		c0.3,0,0.5,0.1,0.7,0.2c0.2,0.1,0.4,0.3,0.5,0.4c0.1,0.2,0.2,0.4,0.3,0.6s0.1,0.5,0.1,0.7h-2.7C64.2,3.5,64.2,3.6,64.3,3.8z
		 M66.4,2.5c-0.1-0.1-0.1-0.3-0.2-0.4s-0.2-0.2-0.3-0.3c-0.1-0.1-0.3-0.1-0.5-0.1c-0.2,0-0.3,0-0.5,0.1c-0.1,0.1-0.3,0.2-0.3,0.3
		s-0.2,0.2-0.2,0.4S64.2,2.8,64.2,3h2.3C66.5,2.8,66.4,2.6,66.4,2.5z"/>
	<path class="st0" d="M68.5,1.6h0.6v0.7h-0.6V1.6z M68.5,4.2h0.6v0.7h-0.6V4.2z"/>
	<path class="st0" d="M77.1,0.1v0.4h-2.9v1.8h2.7v0.4h-2.7v1.9h2.9v0.4h-3.4V0.1H77.1z"/>
	<path class="st0" d="M81.2,4.9V4.3h0c0,0.1-0.1,0.2-0.2,0.3c-0.1,0.1-0.2,0.2-0.3,0.2C80.6,4.9,80.4,5,80.3,5S80.1,5,79.9,5
		c-0.3,0-0.5,0-0.7-0.1c-0.2-0.1-0.4-0.2-0.5-0.4s-0.2-0.4-0.3-0.6s-0.1-0.5-0.1-0.7s0-0.5,0.1-0.7s0.2-0.4,0.3-0.6
		c0.1-0.2,0.3-0.3,0.5-0.4c0.2-0.1,0.4-0.1,0.7-0.1c0.1,0,0.3,0,0.4,0c0.1,0,0.2,0.1,0.3,0.1c0.1,0.1,0.2,0.1,0.3,0.2
		C81,1.9,81.1,2,81.1,2.1h0v-2h0.4v4.8H81.2z M78.9,3.7c0,0.2,0.1,0.3,0.2,0.5c0.1,0.1,0.2,0.3,0.4,0.3c0.1,0.1,0.3,0.1,0.5,0.1
		c0.2,0,0.4,0,0.6-0.1c0.2-0.1,0.3-0.2,0.4-0.3c0.1-0.1,0.2-0.3,0.2-0.5s0.1-0.4,0.1-0.5s0-0.4-0.1-0.5S81,2.3,80.9,2.2
		c-0.1-0.1-0.2-0.3-0.4-0.3c-0.2-0.1-0.3-0.1-0.6-0.1c-0.2,0-0.4,0-0.5,0.1c-0.1,0.1-0.3,0.2-0.4,0.3c-0.1,0.1-0.2,0.3-0.2,0.5
		S78.8,3,78.8,3.2S78.8,3.6,78.9,3.7z"/>
	<path class="st0" d="M83.3,1.4l0.9,3h0l0.9-3h0.5l0.9,3h0l0.9-3h0.5l-1.1,3.5h-0.5L85.3,2h0l-0.9,2.9H84l-1.1-3.5H83.3z"/>
	<path class="st0" d="M89.1,2c0.1-0.1,0.2-0.3,0.3-0.4c0.1-0.1,0.3-0.2,0.4-0.2c0.2,0,0.4-0.1,0.6-0.1c0.2,0,0.3,0,0.5,0
		s0.3,0.1,0.4,0.2s0.2,0.2,0.3,0.3c0.1,0.1,0.1,0.3,0.1,0.6v1.9c0,0.2,0.1,0.3,0.3,0.3c0.1,0,0.1,0,0.1,0v0.4c-0.1,0-0.1,0-0.1,0
		s-0.1,0-0.1,0c-0.1,0-0.2,0-0.3,0s-0.1-0.1-0.2-0.1c0-0.1-0.1-0.1-0.1-0.2c0-0.1,0-0.2,0-0.2h0c-0.1,0.1-0.2,0.2-0.2,0.3
		s-0.2,0.2-0.3,0.2S90.6,5,90.5,5c-0.1,0-0.3,0-0.4,0c-0.2,0-0.3,0-0.5-0.1s-0.3-0.1-0.4-0.2C89.1,4.7,89,4.6,89,4.5
		S88.9,4.2,88.9,4c0-0.2,0.1-0.4,0.2-0.6c0.1-0.1,0.3-0.2,0.4-0.3C89.6,3.1,89.8,3,90.1,3s0.5-0.1,0.7-0.1c0.1,0,0.2,0,0.2,0
		c0.1,0,0.1,0,0.2-0.1c0,0,0.1-0.1,0.1-0.1c0-0.1,0-0.1,0-0.2c0-0.1,0-0.3-0.1-0.4c0-0.1-0.1-0.2-0.2-0.2c-0.1-0.1-0.2-0.1-0.3-0.1
		s-0.2,0-0.4,0c-0.3,0-0.5,0.1-0.7,0.2s-0.3,0.3-0.3,0.6H89C89,2.3,89.1,2.1,89.1,2z M91.3,3c0,0-0.1,0.1-0.2,0.1
		c-0.1,0-0.1,0-0.2,0c-0.2,0-0.4,0.1-0.6,0.1c-0.2,0-0.4,0.1-0.5,0.1c-0.2,0-0.3,0.1-0.4,0.2c-0.1,0.1-0.2,0.2-0.2,0.4
		c0,0.1,0,0.2,0.1,0.3s0.1,0.2,0.2,0.2c0.1,0.1,0.2,0.1,0.3,0.1c0.1,0,0.2,0,0.3,0c0.2,0,0.3,0,0.5-0.1s0.3-0.1,0.4-0.2
		C91,4.3,91.1,4.2,91.2,4s0.1-0.3,0.1-0.5L91.3,3L91.3,3z"/>
	<path class="st0" d="M93.8,1.4v0.8h0c0.1-0.3,0.3-0.5,0.5-0.7c0.2-0.2,0.5-0.2,0.8-0.2v0.4c-0.2,0-0.4,0-0.5,0.1
		c-0.2,0.1-0.3,0.1-0.4,0.3S94,2.4,93.9,2.6c-0.1,0.2-0.1,0.3-0.1,0.5v1.9h-0.4V1.4H93.8z"/>
	<path class="st0" d="M99,4.9V4.3h0c0,0.1-0.1,0.2-0.2,0.3s-0.2,0.2-0.3,0.2C98.4,4.9,98.3,5,98.1,5S97.9,5,97.8,5
		c-0.3,0-0.5,0-0.7-0.1c-0.2-0.1-0.4-0.2-0.5-0.4c-0.1-0.2-0.2-0.4-0.3-0.6c-0.1-0.2-0.1-0.5-0.1-0.7s0-0.5,0.1-0.7
		c0.1-0.2,0.2-0.4,0.3-0.6c0.1-0.2,0.3-0.3,0.5-0.4c0.2-0.1,0.4-0.1,0.7-0.1c0.1,0,0.3,0,0.4,0c0.1,0,0.2,0.1,0.3,0.1
		c0.1,0.1,0.2,0.1,0.3,0.2S98.9,2,99,2.1h0v-2h0.4v4.8H99z M96.7,3.7c0,0.2,0.1,0.3,0.2,0.5c0.1,0.1,0.2,0.3,0.4,0.3
		c0.1,0.1,0.3,0.1,0.5,0.1c0.2,0,0.4,0,0.6-0.1c0.2-0.1,0.3-0.2,0.4-0.3c0.1-0.1,0.2-0.3,0.2-0.5S99,3.4,99,3.2s0-0.4-0.1-0.5
		s-0.1-0.3-0.2-0.5c-0.1-0.1-0.2-0.3-0.4-0.3c-0.2-0.1-0.3-0.1-0.6-0.1c-0.2,0-0.4,0-0.5,0.1C97.1,1.9,97,2,96.9,2.2
		c-0.1,0.1-0.2,0.3-0.2,0.5S96.6,3,96.6,3.2S96.6,3.6,96.7,3.7z"/>
	<path class="st0" d="M103.1,2.1c0-0.1-0.1-0.2-0.2-0.2c-0.1-0.1-0.2-0.1-0.3-0.1s-0.2,0-0.3,0c-0.1,0-0.2,0-0.3,0
		c-0.1,0-0.2,0.1-0.3,0.1c-0.1,0-0.1,0.1-0.2,0.2c0,0.1-0.1,0.2-0.1,0.3c0,0.1,0,0.2,0.1,0.2c0,0.1,0.1,0.1,0.2,0.2s0.2,0.1,0.2,0.1
		c0.1,0,0.2,0.1,0.2,0.1l0.6,0.1c0.1,0,0.2,0.1,0.4,0.1c0.1,0,0.2,0.1,0.3,0.2s0.2,0.2,0.2,0.3c0.1,0.1,0.1,0.2,0.1,0.4
		c0,0.2,0,0.4-0.1,0.5c-0.1,0.1-0.2,0.2-0.3,0.3C103.1,4.9,103,5,102.8,5c-0.2,0-0.3,0.1-0.5,0.1c-0.4,0-0.7-0.1-1-0.3
		c-0.3-0.2-0.4-0.5-0.4-0.9h0.4c0,0.3,0.1,0.5,0.3,0.7c0.2,0.1,0.4,0.2,0.7,0.2c0.1,0,0.2,0,0.3,0c0.1,0,0.2-0.1,0.3-0.1
		c0.1-0.1,0.2-0.1,0.2-0.2c0.1-0.1,0.1-0.2,0.1-0.3c0-0.1,0-0.2-0.1-0.3s-0.1-0.1-0.2-0.2c-0.1,0-0.2-0.1-0.2-0.1
		c-0.1,0-0.2-0.1-0.3-0.1L102,3.3c-0.1,0-0.3-0.1-0.4-0.1S101.3,3,101.3,3c-0.1-0.1-0.2-0.2-0.2-0.3c0-0.1-0.1-0.2-0.1-0.4
		c0-0.2,0-0.3,0.1-0.5c0.1-0.1,0.2-0.2,0.3-0.3c0.1-0.1,0.3-0.1,0.4-0.2s0.3-0.1,0.5-0.1c0.2,0,0.3,0,0.5,0.1s0.3,0.1,0.4,0.2
		c0.1,0.1,0.2,0.2,0.3,0.4c0.1,0.1,0.1,0.3,0.1,0.5h-0.4C103.1,2.3,103.1,2.2,103.1,2.1z"/>
	<path class="st0" d="M109.6,0.1c0.7,0,1.3,0.2,1.7,0.6s0.6,1,0.6,1.8c0,0.8-0.2,1.4-0.6,1.8c-0.4,0.4-0.9,0.6-1.7,0.6h-1.7V0.1
		H109.6z M109.4,4.6c0.3,0,0.6,0,0.9-0.1c0.3-0.1,0.5-0.2,0.6-0.4s0.3-0.4,0.4-0.6c0.1-0.3,0.1-0.6,0.1-0.9c0-0.4,0-0.7-0.1-0.9
		c-0.1-0.3-0.2-0.5-0.4-0.6c-0.2-0.2-0.4-0.3-0.6-0.4c-0.3-0.1-0.6-0.1-0.9-0.1h-1v4.1H109.4z"/>
	<path class="st0" d="M113.5,4.2h0.6v0.7h-0.6V4.2z"/>
	<path class="st0" d="M121.3,0.1c0.2,0,0.4,0,0.5,0.1c0.2,0.1,0.3,0.1,0.4,0.2c0.1,0.1,0.2,0.2,0.3,0.4s0.1,0.3,0.1,0.5
		c0,0.2,0,0.5-0.1,0.7c-0.1,0.2-0.2,0.4-0.3,0.5c-0.1,0.1-0.3,0.2-0.5,0.3c-0.2,0.1-0.4,0.1-0.7,0.1h-1.7l-0.4,2.1h-0.5l1-4.8H121.3
		z M120.9,2.5c0.2,0,0.3,0,0.5-0.1s0.3-0.1,0.4-0.2S122,2,122,1.8c0.1-0.1,0.1-0.3,0.1-0.5c0-0.2,0-0.3-0.1-0.4
		c0-0.1-0.1-0.2-0.2-0.3c-0.1-0.1-0.2-0.1-0.3-0.1c-0.1,0-0.3,0-0.4,0h-1.4l-0.4,2H120.9z"/>
	<path class="st0" d="M124.8,0.1l-0.4,2h0c0.1-0.2,0.3-0.4,0.5-0.5c0.2-0.1,0.5-0.2,0.7-0.2c0.2,0,0.3,0,0.4,0.1s0.2,0.1,0.3,0.2
		c0.1,0.1,0.2,0.2,0.2,0.3c0.1,0.1,0.1,0.3,0.1,0.4c0,0.1,0,0.2-0.1,0.4l-0.5,2.2h-0.4l0.5-2.3c0-0.1,0-0.1,0-0.2c0-0.1,0-0.1,0-0.2
		c0-0.1,0-0.2-0.1-0.3s-0.1-0.1-0.2-0.2c-0.1,0-0.1-0.1-0.2-0.1c-0.1,0-0.2,0-0.3,0c-0.2,0-0.3,0-0.4,0.1s-0.3,0.2-0.4,0.3
		c-0.1,0.1-0.2,0.3-0.3,0.5s-0.2,0.4-0.2,0.6l-0.4,1.8h-0.4l1-4.8H124.8z"/>
	<path class="st0" d="M127.9,5.9c0.1,0,0.2,0,0.3-0.1c0.1-0.1,0.2-0.2,0.2-0.3l0.3-0.5l-0.6-3.5h0.4l0.5,3h0l1.6-3h0.5l-2.5,4.3
		c-0.2,0.3-0.5,0.5-0.8,0.5c-0.1,0-0.1,0-0.2,0s-0.1,0-0.2,0l0.1-0.3C127.7,5.9,127.8,5.9,127.9,5.9z"/>
	<path class="st0" d="M132.7,1.4l0.2-1.1h0.4l-0.2,1.1h0.7l-0.1,0.4H133L132.6,4c0,0.1,0,0.1,0,0.2s0,0.1,0,0.1c0,0.1,0,0.1,0.1,0.2
		c0,0,0.1,0.1,0.2,0.1c0.2,0,0.3,0,0.5,0L133.2,5c-0.1,0-0.1,0-0.2,0c-0.1,0-0.1,0-0.2,0c-0.1,0-0.2,0-0.2,0c-0.1,0-0.1,0-0.2-0.1
		c-0.1,0-0.1-0.1-0.1-0.2c0-0.1-0.1-0.2-0.1-0.3c0,0,0-0.1,0-0.1c0-0.1,0-0.1,0-0.2l0.5-2.3H132l0.1-0.4H132.7z"/>
	<path class="st0" d="M137.2,1.4c0.2,0.1,0.3,0.2,0.4,0.3c0.1,0.1,0.2,0.3,0.3,0.4c0.1,0.2,0.1,0.4,0.1,0.6c0,0.3,0,0.6-0.1,0.9
		c-0.1,0.3-0.2,0.5-0.4,0.7s-0.4,0.4-0.6,0.5C136.7,5,136.4,5,136.1,5c-0.5,0-0.8-0.1-1-0.4c-0.2-0.3-0.4-0.6-0.4-1.1
		c0-0.3,0-0.6,0.1-0.8c0.1-0.3,0.2-0.5,0.4-0.7s0.4-0.4,0.6-0.5c0.2-0.1,0.5-0.2,0.8-0.2C136.9,1.3,137,1.4,137.2,1.4z M136.8,4.5
		c0.2-0.1,0.3-0.3,0.4-0.5c0.1-0.2,0.2-0.4,0.3-0.6c0.1-0.2,0.1-0.4,0.1-0.6c0-0.3-0.1-0.6-0.3-0.8c-0.2-0.2-0.4-0.3-0.8-0.3
		c-0.2,0-0.4,0.1-0.6,0.2c-0.2,0.1-0.3,0.3-0.5,0.4c-0.1,0.2-0.2,0.4-0.3,0.6c-0.1,0.2-0.1,0.4-0.1,0.6c0,0.3,0.1,0.6,0.3,0.8
		s0.4,0.3,0.8,0.3C136.4,4.7,136.6,4.6,136.8,4.5z"/>
	<path class="st0" d="M140.1,1.4l0.2-1.1h0.4l-0.2,1.1h0.7l-0.1,0.4h-0.7L140,4c0,0.1,0,0.1,0,0.2s0,0.1,0,0.1c0,0.1,0,0.1,0.1,0.2
		c0,0,0.1,0.1,0.2,0.1c0.2,0,0.3,0,0.5,0L140.6,5c-0.1,0-0.1,0-0.2,0c-0.1,0-0.1,0-0.2,0c-0.1,0-0.2,0-0.2,0c-0.1,0-0.1,0-0.2-0.1
		c-0.1,0-0.1-0.1-0.1-0.2c0-0.1-0.1-0.2-0.1-0.3c0,0,0-0.1,0-0.1c0-0.1,0-0.1,0-0.2l0.5-2.3h-0.6l0.1-0.4H140.1z"/>
	<path class="st0" d="M143.4,0.1l-0.4,2h0c0.1-0.2,0.3-0.4,0.5-0.5c0.2-0.1,0.5-0.2,0.7-0.2c0.2,0,0.3,0,0.4,0.1s0.2,0.1,0.3,0.2
		c0.1,0.1,0.2,0.2,0.2,0.3c0.1,0.1,0.1,0.3,0.1,0.4c0,0.1,0,0.2-0.1,0.4l-0.5,2.2h-0.4l0.5-2.3c0-0.1,0-0.1,0-0.2c0-0.1,0-0.1,0-0.2
		c0-0.1,0-0.2-0.1-0.3s-0.1-0.1-0.2-0.2s-0.1-0.1-0.2-0.1c-0.1,0-0.2,0-0.3,0c-0.2,0-0.3,0-0.4,0.1s-0.3,0.2-0.4,0.3
		c-0.1,0.1-0.2,0.3-0.3,0.5c-0.1,0.2-0.2,0.4-0.2,0.6l-0.4,1.8h-0.4l1-4.8H143.4z"/>
	<path class="st0" d="M147,3.6c0,0.2,0,0.3,0.1,0.4c0,0.1,0.1,0.3,0.2,0.3c0.1,0.1,0.2,0.2,0.3,0.2s0.3,0.1,0.5,0.1
		c0.3,0,0.5-0.1,0.7-0.2c0.2-0.2,0.3-0.4,0.4-0.6h0.4c-0.1,0.4-0.3,0.7-0.6,0.9c-0.3,0.2-0.6,0.3-1,0.3c-0.5,0-0.8-0.1-1.1-0.4
		c-0.2-0.3-0.4-0.6-0.4-1.1c0-0.3,0-0.6,0.1-0.8c0.1-0.3,0.2-0.5,0.4-0.7c0.2-0.2,0.4-0.4,0.6-0.5c0.2-0.1,0.5-0.2,0.8-0.2
		c0.2,0,0.4,0,0.6,0.1c0.2,0.1,0.3,0.2,0.4,0.3c0.1,0.1,0.2,0.3,0.3,0.4c0.1,0.2,0.1,0.4,0.1,0.6c0,0.1,0,0.2,0,0.3
		c0,0.1,0,0.2,0,0.3H147C147,3.4,147,3.5,147,3.6z M149.3,2.8c0,0,0-0.1,0-0.1c0-0.3-0.1-0.5-0.3-0.7c-0.2-0.2-0.4-0.3-0.7-0.3
		c-0.2,0-0.3,0-0.5,0.1c-0.1,0.1-0.3,0.2-0.4,0.3s-0.2,0.2-0.3,0.4c-0.1,0.1-0.1,0.3-0.2,0.5h2.3C149.3,2.9,149.3,2.9,149.3,2.8z"/>
	<path class="st0" d="M151.9,1.4l-0.2,0.8h0c0.1-0.3,0.3-0.5,0.5-0.6c0.2-0.2,0.5-0.2,0.8-0.2h0.1c0,0,0,0,0.1,0c0,0,0,0,0.1,0
		l-0.1,0.4c0,0-0.1,0-0.1,0c0,0-0.1,0-0.1,0c-0.2,0-0.4,0-0.5,0.1s-0.3,0.2-0.4,0.3c-0.1,0.1-0.2,0.3-0.3,0.4
		c-0.1,0.2-0.1,0.3-0.2,0.5l-0.4,1.8h-0.4l0.7-3.5H151.9z"/>
	<path class="st0" d="M159.6,0.1c0.4,0,0.7,0.1,0.9,0.3c0.2,0.2,0.3,0.5,0.3,0.9c0,0.2,0,0.3-0.1,0.5c-0.1,0.2-0.1,0.3-0.3,0.4
		c-0.1,0.1-0.2,0.2-0.4,0.3c-0.2,0.1-0.3,0.1-0.5,0.1v0c0.2,0,0.4,0.2,0.5,0.3s0.1,0.3,0.1,0.6c0,0.2,0,0.3,0,0.5c0,0.2,0,0.3,0,0.5
		c0,0.1,0,0.1,0,0.2c0,0.1,0,0.2,0.1,0.2h-0.5c0,0,0,0,0-0.1c0,0,0-0.1,0-0.2c0-0.1,0-0.1,0-0.2c0,0,0-0.1,0-0.1c0-0.1,0-0.3,0-0.4
		c0-0.1,0-0.3,0-0.4c0-0.2,0-0.4-0.1-0.6c-0.1-0.1-0.3-0.2-0.5-0.2h-1.7l-0.5,2.2h-0.5l1-4.8H159.6z M159.1,2.4c0.2,0,0.3,0,0.5-0.1
		s0.3-0.1,0.4-0.2s0.2-0.2,0.3-0.3s0.1-0.3,0.1-0.5c0-0.3-0.1-0.5-0.2-0.6c-0.1-0.1-0.3-0.2-0.6-0.2h-1.7l-0.4,1.9H159.1z"/>
	<path class="st0" d="M162.2,3.6c0,0.2,0,0.3,0.1,0.4s0.1,0.3,0.2,0.3c0.1,0.1,0.2,0.2,0.3,0.2s0.3,0.1,0.5,0.1
		c0.3,0,0.5-0.1,0.7-0.2c0.2-0.2,0.3-0.4,0.4-0.6h0.4c-0.1,0.4-0.3,0.7-0.6,0.9s-0.6,0.3-1,0.3c-0.5,0-0.8-0.1-1.1-0.4
		c-0.2-0.3-0.4-0.6-0.4-1.1c0-0.3,0-0.6,0.1-0.8s0.2-0.5,0.4-0.7s0.4-0.4,0.6-0.5c0.2-0.1,0.5-0.2,0.8-0.2c0.2,0,0.4,0,0.6,0.1
		c0.2,0.1,0.3,0.2,0.4,0.3c0.1,0.1,0.2,0.3,0.3,0.4c0.1,0.2,0.1,0.4,0.1,0.6c0,0.1,0,0.2,0,0.3c0,0.1,0,0.2,0,0.3h-2.7
		C162.2,3.4,162.2,3.5,162.2,3.6z M164.5,2.8c0,0,0-0.1,0-0.1c0-0.3-0.1-0.5-0.3-0.7c-0.2-0.2-0.4-0.3-0.7-0.3c-0.2,0-0.3,0-0.5,0.1
		c-0.1,0.1-0.3,0.2-0.4,0.3s-0.2,0.2-0.3,0.4c-0.1,0.1-0.1,0.3-0.2,0.5h2.3C164.5,2.9,164.5,2.9,164.5,2.8z"/>
	<path class="st0" d="M166.5,4.2c0.1,0.1,0.1,0.2,0.2,0.3c0.1,0.1,0.2,0.1,0.3,0.1c0.1,0,0.2,0,0.4,0c0.1,0,0.2,0,0.3,0
		c0.1,0,0.2-0.1,0.3-0.1s0.2-0.1,0.2-0.2s0.1-0.2,0.1-0.3c0-0.1,0-0.2-0.1-0.3c-0.1-0.1-0.1-0.1-0.2-0.2s-0.2-0.1-0.3-0.1
		s-0.2-0.1-0.3-0.1c-0.1,0-0.2-0.1-0.3-0.1s-0.2-0.1-0.3-0.2c-0.1-0.1-0.2-0.2-0.2-0.3c-0.1-0.1-0.1-0.2-0.1-0.4
		c0-0.2,0-0.3,0.1-0.4c0.1-0.1,0.2-0.2,0.3-0.3c0.1-0.1,0.3-0.1,0.4-0.2s0.3-0.1,0.4-0.1c0.2,0,0.4,0,0.5,0.1c0.2,0,0.3,0.1,0.4,0.2
		c0.1,0.1,0.2,0.2,0.3,0.3c0.1,0.1,0.1,0.3,0.1,0.5h-0.4c0-0.1,0-0.3,0-0.3c0-0.1-0.1-0.2-0.2-0.2c-0.1-0.1-0.2-0.1-0.3-0.1
		c-0.1,0-0.2,0-0.3,0c-0.1,0-0.2,0-0.3,0c-0.1,0-0.2,0-0.3,0.1S167,1.9,166.9,2c-0.1,0.1-0.1,0.2-0.1,0.3c0,0.1,0,0.2,0.1,0.2
		c0,0.1,0.1,0.1,0.2,0.2c0.1,0,0.1,0.1,0.2,0.1c0.1,0,0.2,0.1,0.3,0.1c0.1,0,0.2,0.1,0.4,0.2c0.1,0.1,0.3,0.1,0.4,0.2
		s0.2,0.2,0.3,0.3s0.1,0.2,0.1,0.4c0,0.2,0,0.4-0.1,0.5s-0.2,0.2-0.3,0.3C168.1,4.9,168,5,167.8,5c-0.2,0-0.3,0.1-0.5,0.1
		c-0.2,0-0.3,0-0.5-0.1s-0.3-0.1-0.4-0.2c-0.1-0.1-0.2-0.2-0.3-0.4S166,4,166,3.8h0.4C166.4,4,166.4,4.1,166.5,4.2z"/>
	<path class="st0" d="M170.7,4.2h0.6v0.7h-0.6V4.2z"/>
	<path class="st0" d="M175.7,4.9c0-0.2,0-0.4,0.1-0.6c0.1-0.2,0.2-0.3,0.3-0.5s0.3-0.3,0.4-0.4c0.2-0.1,0.3-0.2,0.5-0.3
		c0.2-0.1,0.3-0.2,0.5-0.3c0.2-0.1,0.3-0.2,0.4-0.4c0.1-0.1,0.2-0.3,0.3-0.4c0.1-0.1,0.1-0.3,0.1-0.5c0-0.2,0-0.3-0.1-0.4
		c-0.1-0.1-0.1-0.2-0.2-0.3c-0.1-0.1-0.2-0.1-0.3-0.2s-0.3-0.1-0.4-0.1c-0.2,0-0.4,0-0.5,0.1c-0.1,0.1-0.2,0.2-0.3,0.3
		s-0.1,0.3-0.2,0.4c0,0.2-0.1,0.3-0.1,0.5h-0.4c0-0.2,0-0.5,0.1-0.7c0.1-0.2,0.2-0.4,0.3-0.5c0.1-0.1,0.3-0.3,0.5-0.3
		c0.2-0.1,0.4-0.1,0.7-0.1c0.2,0,0.4,0,0.6,0.1c0.2,0.1,0.3,0.1,0.5,0.3c0.1,0.1,0.2,0.3,0.3,0.4c0.1,0.2,0.1,0.4,0.1,0.6
		c0,0.2,0,0.4-0.1,0.5s-0.2,0.3-0.3,0.4s-0.2,0.3-0.4,0.4c-0.1,0.1-0.3,0.2-0.5,0.3c-0.1,0.1-0.2,0.2-0.4,0.3
		c-0.2,0.1-0.3,0.2-0.4,0.3c-0.1,0.1-0.3,0.2-0.4,0.4c-0.1,0.1-0.2,0.3-0.2,0.4h2.6v0.4H175.7z"/>
	<path class="st0" d="M182.8,0.4c0.2,0.2,0.4,0.3,0.5,0.6c0.1,0.2,0.2,0.5,0.2,0.8c0,0.3,0.1,0.6,0.1,0.8c0,0.3,0,0.6-0.1,0.9
		s-0.1,0.6-0.2,0.8c-0.1,0.2-0.3,0.4-0.5,0.6S182.3,5,181.9,5c-0.3,0-0.6-0.1-0.8-0.2s-0.4-0.3-0.5-0.6c-0.1-0.2-0.2-0.5-0.2-0.8
		s-0.1-0.6-0.1-0.8c0-0.3,0-0.6,0.1-0.9c0-0.3,0.1-0.6,0.2-0.8c0.1-0.2,0.3-0.4,0.5-0.6s0.5-0.2,0.8-0.2
		C182.3,0.2,182.6,0.2,182.8,0.4z M181.3,0.7c-0.2,0.1-0.3,0.3-0.4,0.5c-0.1,0.2-0.1,0.4-0.2,0.7c0,0.2,0,0.5,0,0.7
		c0,0.2,0,0.4,0,0.7c0,0.2,0.1,0.5,0.2,0.7c0.1,0.2,0.2,0.4,0.4,0.5c0.2,0.1,0.4,0.2,0.7,0.2s0.5-0.1,0.7-0.2
		c0.2-0.1,0.3-0.3,0.4-0.5c0.1-0.2,0.1-0.4,0.2-0.7s0-0.5,0-0.7c0-0.2,0-0.4,0-0.7S183,1.5,183,1.2s-0.2-0.4-0.4-0.5
		c-0.2-0.1-0.4-0.2-0.7-0.2S181.5,0.6,181.3,0.7z"/>
	<path class="st0" d="M185.8,1.1c0.2,0,0.3-0.1,0.4-0.1c0.1-0.1,0.2-0.1,0.3-0.3c0.1-0.1,0.1-0.3,0.2-0.5h0.3v4.7h-0.4V1.4h-1.3V1.1
		C185.5,1.1,185.7,1.1,185.8,1.1z"/>
	<path class="st0" d="M189.5,4.9c0-0.2,0-0.4,0.1-0.6c0.1-0.2,0.2-0.3,0.3-0.5c0.1-0.1,0.3-0.3,0.4-0.4c0.2-0.1,0.3-0.2,0.5-0.3
		c0.2-0.1,0.3-0.2,0.5-0.3s0.3-0.2,0.4-0.4c0.1-0.1,0.2-0.3,0.3-0.4s0.1-0.3,0.1-0.5c0-0.2,0-0.3-0.1-0.4c-0.1-0.1-0.1-0.2-0.2-0.3
		c-0.1-0.1-0.2-0.1-0.3-0.2s-0.3-0.1-0.4-0.1c-0.2,0-0.4,0-0.5,0.1c-0.1,0.1-0.3,0.2-0.3,0.3s-0.1,0.3-0.2,0.4S190,1.7,190,1.8h-0.4
		c0-0.2,0-0.5,0.1-0.7c0.1-0.2,0.2-0.4,0.3-0.5c0.1-0.1,0.3-0.3,0.5-0.3c0.2-0.1,0.4-0.1,0.7-0.1c0.2,0,0.4,0,0.6,0.1
		s0.3,0.1,0.5,0.3s0.2,0.3,0.3,0.4c0.1,0.2,0.1,0.4,0.1,0.6c0,0.2,0,0.4-0.1,0.5c-0.1,0.2-0.2,0.3-0.3,0.4c-0.1,0.1-0.2,0.3-0.4,0.4
		s-0.3,0.2-0.5,0.3c-0.1,0.1-0.2,0.2-0.4,0.3c-0.2,0.1-0.3,0.2-0.4,0.3c-0.1,0.1-0.3,0.2-0.4,0.4c-0.1,0.1-0.2,0.3-0.2,0.4h2.6v0.4
		H189.5z"/>
	<path class="st0" d="M195,4.9c0,0.1,0,0.2,0,0.3c0,0.1-0.1,0.2-0.1,0.3s-0.1,0.2-0.2,0.2s-0.2,0.1-0.3,0.1V5.6
		c0.1,0,0.1-0.1,0.1-0.1s0.1-0.1,0.1-0.2c0-0.1,0-0.1,0.1-0.2c0-0.1,0-0.1,0-0.2h-0.3V4.2h0.6V4.9z M194.5,1.6h0.6v0.7h-0.6V1.6z"/>
	<path class="st0" d="M196.8,4.9c0-0.2,0-0.4,0.1-0.6c0.1-0.2,0.2-0.3,0.3-0.5c0.1-0.1,0.3-0.3,0.4-0.4c0.2-0.1,0.3-0.2,0.5-0.3
		c0.2-0.1,0.3-0.2,0.5-0.3s0.3-0.2,0.4-0.4c0.1-0.1,0.2-0.3,0.3-0.4s0.1-0.3,0.1-0.5c0-0.2,0-0.3-0.1-0.4c-0.1-0.1-0.1-0.2-0.2-0.3
		c-0.1-0.1-0.2-0.1-0.3-0.2s-0.3-0.1-0.4-0.1c-0.2,0-0.4,0-0.5,0.1c-0.1,0.1-0.3,0.2-0.3,0.3s-0.1,0.3-0.2,0.4s-0.1,0.3-0.1,0.5
		h-0.4c0-0.2,0-0.5,0.1-0.7c0.1-0.2,0.2-0.4,0.3-0.5c0.1-0.1,0.3-0.3,0.5-0.3c0.2-0.1,0.4-0.1,0.7-0.1c0.2,0,0.4,0,0.6,0.1
		s0.3,0.1,0.5,0.3s0.2,0.3,0.3,0.4c0.1,0.2,0.1,0.4,0.1,0.6c0,0.2,0,0.4-0.1,0.5c-0.1,0.2-0.2,0.3-0.3,0.4c-0.1,0.1-0.2,0.3-0.4,0.4
		s-0.3,0.2-0.5,0.3c-0.1,0.1-0.2,0.2-0.4,0.3c-0.2,0.1-0.3,0.2-0.4,0.3c-0.1,0.1-0.3,0.2-0.4,0.4c-0.1,0.1-0.2,0.3-0.2,0.4h2.6v0.4
		H196.8z"/>
	<path class="st0" d="M203.8,0.8c-0.2-0.2-0.4-0.2-0.7-0.2c-0.3,0-0.5,0.1-0.7,0.2c-0.2,0.1-0.3,0.3-0.4,0.5
		c-0.1,0.2-0.2,0.4-0.2,0.7c0,0.2,0,0.5,0,0.7h0c0.1-0.2,0.3-0.4,0.5-0.6s0.5-0.2,0.8-0.2c0.2,0,0.5,0,0.6,0.1s0.4,0.2,0.5,0.3
		c0.1,0.1,0.2,0.3,0.3,0.5s0.1,0.4,0.1,0.6s0,0.4-0.1,0.6c-0.1,0.2-0.2,0.4-0.3,0.5s-0.3,0.3-0.5,0.3C203.5,5,203.3,5,203,5
		c-0.3,0-0.5,0-0.7-0.1c-0.2-0.1-0.4-0.2-0.5-0.4s-0.2-0.5-0.3-0.8c-0.1-0.3-0.1-0.7-0.1-1.2c0-0.1,0-0.2,0-0.4c0-0.2,0-0.3,0.1-0.5
		c0-0.2,0.1-0.4,0.2-0.5c0.1-0.2,0.2-0.3,0.3-0.5c0.1-0.1,0.3-0.3,0.5-0.4s0.4-0.1,0.7-0.1c0.4,0,0.8,0.1,1,0.3
		c0.2,0.2,0.4,0.5,0.4,0.9h-0.4C204.1,1.1,204,0.9,203.8,0.8z M202.6,2.3c-0.1,0.1-0.3,0.2-0.4,0.3S202,2.8,202,3
		c-0.1,0.2-0.1,0.3-0.1,0.5c0,0.2,0,0.3,0.1,0.5s0.1,0.3,0.2,0.4c0.1,0.1,0.2,0.2,0.4,0.3s0.3,0.1,0.5,0.1c0.2,0,0.3,0,0.5-0.1
		c0.1-0.1,0.3-0.2,0.4-0.3c0.1-0.1,0.2-0.2,0.2-0.4c0.1-0.1,0.1-0.3,0.1-0.5c0-0.2,0-0.3-0.1-0.5c-0.1-0.2-0.1-0.3-0.2-0.4
		c-0.1-0.1-0.2-0.2-0.4-0.3c-0.1-0.1-0.3-0.1-0.5-0.1C202.9,2.2,202.7,2.2,202.6,2.3z"/>
	<path class="st0" d="M206.6,5.5c-0.1-0.2-0.2-0.5-0.3-0.7c-0.1-0.2-0.1-0.5-0.2-0.8S206,3.4,206,3.1c0-0.6,0.1-1.1,0.3-1.7
		c0.2-0.5,0.4-1,0.7-1.5h0.3c-0.3,0.5-0.5,1-0.7,1.6c-0.1,0.6-0.2,1.1-0.2,1.7c0,0.2,0,0.5,0.1,0.8s0.1,0.5,0.2,0.8
		c0.1,0.3,0.2,0.5,0.3,0.7c0.1,0.2,0.2,0.5,0.4,0.7H207C206.8,6,206.7,5.7,206.6,5.5z"/>
	<path class="st0" d="M211.2,2c-0.1,0.2-0.3,0.3-0.6,0.4v0c0.3,0.1,0.6,0.2,0.7,0.4c0.2,0.2,0.3,0.5,0.3,0.8c0,0.2,0,0.4-0.1,0.6
		s-0.2,0.3-0.4,0.4c-0.2,0.1-0.3,0.2-0.5,0.3S210.2,5,210,5c-0.2,0-0.4,0-0.6-0.1s-0.4-0.1-0.5-0.3c-0.1-0.1-0.3-0.3-0.4-0.4
		s-0.1-0.4-0.1-0.6c0-0.3,0.1-0.6,0.3-0.8c0.2-0.2,0.4-0.4,0.7-0.4v0c-0.2-0.1-0.4-0.2-0.6-0.4s-0.2-0.4-0.2-0.7
		c0-0.2,0-0.4,0.1-0.5c0.1-0.1,0.2-0.3,0.3-0.4c0.1-0.1,0.3-0.2,0.5-0.2s0.3-0.1,0.5-0.1c0.2,0,0.3,0,0.5,0.1s0.3,0.1,0.5,0.2
		c0.1,0.1,0.2,0.2,0.3,0.4c0.1,0.1,0.1,0.3,0.1,0.5C211.5,1.6,211.4,1.8,211.2,2z M210.5,4.6c0.1,0,0.3-0.1,0.4-0.2
		c0.1-0.1,0.2-0.2,0.3-0.3c0.1-0.1,0.1-0.3,0.1-0.5c0-0.2,0-0.3-0.1-0.5s-0.2-0.2-0.3-0.3c-0.1-0.1-0.2-0.2-0.4-0.2
		c-0.1,0-0.3-0.1-0.5-0.1c-0.2,0-0.3,0-0.5,0.1c-0.1,0-0.3,0.1-0.4,0.2c-0.1,0.1-0.2,0.2-0.3,0.3c-0.1,0.1-0.1,0.3-0.1,0.5
		c0,0.2,0,0.3,0.1,0.5c0.1,0.1,0.1,0.2,0.3,0.3c0.1,0.1,0.2,0.2,0.4,0.2c0.1,0,0.3,0.1,0.5,0.1C210.2,4.7,210.3,4.7,210.5,4.6z
		 M210.4,2.2c0.1,0,0.2-0.1,0.3-0.2c0.1-0.1,0.2-0.2,0.2-0.3c0.1-0.1,0.1-0.2,0.1-0.4c0-0.1,0-0.3-0.1-0.4c-0.1-0.1-0.1-0.2-0.2-0.3
		c-0.1-0.1-0.2-0.1-0.3-0.2c-0.1,0-0.3-0.1-0.4-0.1c-0.1,0-0.3,0-0.4,0.1c-0.1,0-0.2,0.1-0.3,0.2c-0.1,0.1-0.2,0.2-0.2,0.3
		C209,1.1,209,1.2,209,1.3c0,0.2,0,0.3,0.1,0.4c0.1,0.1,0.1,0.2,0.2,0.3s0.2,0.1,0.3,0.2c0.1,0,0.2,0,0.4,0
		C210.1,2.2,210.3,2.2,210.4,2.2z"/>
	<path class="st0" d="M213.4,0.7c0.1,0.2,0.2,0.5,0.3,0.7c0.1,0.3,0.1,0.5,0.2,0.8c0,0.3,0.1,0.5,0.1,0.8c0,0.6-0.1,1.1-0.3,1.7
		c-0.2,0.5-0.4,1-0.7,1.5h-0.3c0.3-0.5,0.5-1,0.7-1.6c0.1-0.5,0.2-1.1,0.2-1.7c0-0.2,0-0.5-0.1-0.8s-0.1-0.5-0.2-0.8
		s-0.2-0.5-0.3-0.7c-0.1-0.2-0.2-0.5-0.3-0.7h0.3C213.2,0.2,213.3,0.5,213.4,0.7z"/>
	<path class="st0" d="M215.8,1.6h0.6v0.7h-0.6V1.6z M215.8,4.2h0.6v0.7h-0.6V4.2z"/>
	<path class="st0" d="M219,1.1c0.2,0,0.3-0.1,0.4-0.1s0.2-0.1,0.3-0.3c0.1-0.1,0.1-0.3,0.2-0.5h0.3v4.7h-0.4V1.4h-1.3V1.1
		C218.7,1.1,218.9,1.1,219,1.1z"/>
	<path class="st0" d="M222.7,4.9c0-0.2,0-0.4,0.1-0.6c0.1-0.2,0.2-0.3,0.3-0.5s0.3-0.3,0.4-0.4c0.2-0.1,0.3-0.2,0.5-0.3
		c0.2-0.1,0.3-0.2,0.5-0.3c0.2-0.1,0.3-0.2,0.4-0.4c0.1-0.1,0.2-0.3,0.3-0.4c0.1-0.1,0.1-0.3,0.1-0.5c0-0.2,0-0.3-0.1-0.4
		c-0.1-0.1-0.1-0.2-0.2-0.3c-0.1-0.1-0.2-0.1-0.3-0.2s-0.3-0.1-0.4-0.1c-0.2,0-0.4,0-0.5,0.1c-0.1,0.1-0.2,0.2-0.3,0.3
		s-0.1,0.3-0.2,0.4c0,0.2-0.1,0.3-0.1,0.5h-0.4c0-0.2,0-0.5,0.1-0.7c0.1-0.2,0.2-0.4,0.3-0.5c0.1-0.1,0.3-0.3,0.5-0.3
		c0.2-0.1,0.4-0.1,0.7-0.1c0.2,0,0.4,0,0.6,0.1c0.2,0.1,0.3,0.1,0.5,0.3c0.1,0.1,0.2,0.3,0.3,0.4c0.1,0.2,0.1,0.4,0.1,0.6
		c0,0.2,0,0.4-0.1,0.5s-0.2,0.3-0.3,0.4s-0.2,0.3-0.4,0.4c-0.1,0.1-0.3,0.2-0.5,0.3c-0.1,0.1-0.2,0.2-0.4,0.3
		c-0.2,0.1-0.3,0.2-0.4,0.3c-0.1,0.1-0.3,0.2-0.4,0.4c-0.1,0.1-0.2,0.3-0.2,0.4h2.6v0.4H222.7z"/>
	<path class="st0" d="M227.3,4.9c0-0.2,0-0.4,0.1-0.6s0.2-0.3,0.3-0.5c0.1-0.1,0.3-0.3,0.4-0.4c0.2-0.1,0.3-0.2,0.5-0.3
		c0.2-0.1,0.3-0.2,0.5-0.3s0.3-0.2,0.4-0.4c0.1-0.1,0.2-0.3,0.3-0.4s0.1-0.3,0.1-0.5c0-0.2,0-0.3-0.1-0.4c-0.1-0.1-0.1-0.2-0.2-0.3
		c-0.1-0.1-0.2-0.1-0.3-0.2s-0.3-0.1-0.4-0.1c-0.2,0-0.4,0-0.5,0.1c-0.1,0.1-0.2,0.2-0.3,0.3s-0.1,0.3-0.2,0.4
		c0,0.2-0.1,0.3-0.1,0.5h-0.4c0-0.2,0-0.5,0.1-0.7c0.1-0.2,0.2-0.4,0.3-0.5c0.1-0.1,0.3-0.3,0.5-0.3c0.2-0.1,0.4-0.1,0.7-0.1
		c0.2,0,0.4,0,0.6,0.1s0.3,0.1,0.5,0.3s0.2,0.3,0.3,0.4c0.1,0.2,0.1,0.4,0.1,0.6c0,0.2,0,0.4-0.1,0.5c-0.1,0.2-0.2,0.3-0.3,0.4
		c-0.1,0.1-0.2,0.3-0.4,0.4c-0.1,0.1-0.3,0.2-0.5,0.3c-0.1,0.1-0.2,0.2-0.4,0.3c-0.2,0.1-0.3,0.2-0.4,0.3c-0.1,0.1-0.3,0.2-0.4,0.4
		c-0.1,0.1-0.2,0.3-0.2,0.4h2.6v0.4H227.3z"/>
	<path class="st0" d="M234.3,0.4c0.2,0.2,0.4,0.3,0.5,0.6c0.1,0.2,0.2,0.5,0.2,0.8c0,0.3,0.1,0.6,0.1,0.8c0,0.3,0,0.6-0.1,0.9
		S235,4,234.9,4.2c-0.1,0.2-0.3,0.4-0.5,0.6S233.9,5,233.5,5c-0.3,0-0.6-0.1-0.8-0.2s-0.4-0.3-0.5-0.6C232,4,232,3.7,231.9,3.5
		s-0.1-0.6-0.1-0.8c0-0.3,0-0.6,0.1-0.9c0-0.3,0.1-0.6,0.2-0.8c0.1-0.2,0.3-0.4,0.5-0.6s0.5-0.2,0.8-0.2
		C233.9,0.2,234.1,0.2,234.3,0.4z M232.9,0.7c-0.2,0.1-0.3,0.3-0.4,0.5c-0.1,0.2-0.1,0.4-0.2,0.7c0,0.2,0,0.5,0,0.7
		c0,0.2,0,0.4,0,0.7c0,0.2,0.1,0.5,0.2,0.7c0.1,0.2,0.2,0.4,0.4,0.5c0.2,0.1,0.4,0.2,0.7,0.2s0.5-0.1,0.7-0.2
		c0.2-0.1,0.3-0.3,0.4-0.5c0.1-0.2,0.1-0.4,0.2-0.7s0-0.5,0-0.7c0-0.2,0-0.4,0-0.7s-0.1-0.5-0.2-0.7s-0.2-0.4-0.4-0.5
		c-0.2-0.1-0.4-0.2-0.7-0.2S233,0.6,232.9,0.7z"/>
	<path class="st0" d="M236.6,2.9h1.7v0.4h-1.7V2.9z"/>
	<path class="st0" d="M240.3,4c0.1,0.1,0.1,0.3,0.2,0.3s0.2,0.2,0.4,0.2s0.3,0.1,0.5,0.1c0.2,0,0.3,0,0.5-0.1
		c0.1-0.1,0.3-0.2,0.4-0.3c0.1-0.1,0.2-0.3,0.2-0.4c0.1-0.2,0.1-0.3,0.1-0.5c0-0.2,0-0.3-0.1-0.5s-0.1-0.3-0.3-0.4
		c-0.1-0.1-0.2-0.2-0.4-0.3c-0.1-0.1-0.3-0.1-0.5-0.1c-0.2,0-0.4,0-0.6,0.1c-0.2,0.1-0.3,0.2-0.5,0.4h-0.4l0.5-2.5h2.4v0.4h-2.1
		l-0.3,1.6l0,0c0.1-0.1,0.3-0.2,0.4-0.3c0.2-0.1,0.4-0.1,0.6-0.1c0.2,0,0.5,0,0.7,0.1c0.2,0.1,0.4,0.2,0.5,0.3
		c0.1,0.1,0.2,0.3,0.3,0.5s0.1,0.4,0.1,0.7c0,0.2,0,0.4-0.1,0.6c-0.1,0.2-0.2,0.4-0.4,0.5c-0.2,0.1-0.3,0.3-0.5,0.3S241.6,5,241.3,5
		c-0.2,0-0.4,0-0.6-0.1c-0.2-0.1-0.4-0.2-0.5-0.3c-0.1-0.1-0.2-0.3-0.3-0.5s-0.1-0.4-0.1-0.6h0.4C240.2,3.8,240.2,3.9,240.3,4z"/>
	<path class="st0" d="M244.8,4.2h0.6v0.7h-0.6V4.2z"/>
</g>
</svg>
