<!-- Generator: Adobe Illustrator 20.1.0, SVG Export Plug-In  -->
<svg version="1.1"
	 xmlns="http://www.w3.org/2000/svg" xmlns:xlink="http://www.w3.org/1999/xlink" xmlns:a="http://ns.adobe.com/AdobeSVGViewerExtensions/3.0/"
	 x="0px" y="0px" width="49.7px" height="8.2px" viewBox="0 0 49.7 8.2"
	 style="overflow:scroll;enable-background:new 0 0 49.7 8.2;" xml:space="preserve">
<style type="text/css">
	.st0{fill:#58595B;}
</style>
<defs>
</defs>
<g>
	<path class="st0" d="M1.7,5.4c0,0.3,0,0.5,0.1,0.7C1.9,6.3,2,6.4,2.2,6.6c0.2,0.1,0.3,0.2,0.5,0.3C3,6.9,3.2,6.9,3.4,6.9
		c0.2,0,0.3,0,0.5,0c0.2,0,0.3-0.1,0.5-0.1c0.2-0.1,0.3-0.2,0.4-0.3c0.1-0.1,0.2-0.3,0.2-0.5c0-0.2-0.1-0.4-0.2-0.5
		C4.6,5.3,4.4,5.1,4.2,5.1C4,5,3.7,4.9,3.5,4.8C3.2,4.8,2.9,4.7,2.6,4.6C2.3,4.5,2,4.4,1.7,4.3S1.2,4.1,1,3.9
		C0.8,3.8,0.6,3.5,0.5,3.3C0.3,3.1,0.3,2.7,0.3,2.4c0-0.4,0.1-0.8,0.3-1.1C0.7,1,0.9,0.8,1.2,0.6c0.3-0.2,0.6-0.3,0.9-0.4
		C2.5,0,2.8,0,3.2,0C3.6,0,4,0,4.4,0.1c0.4,0.1,0.7,0.2,1,0.4c0.3,0.2,0.5,0.5,0.7,0.8c0.2,0.3,0.3,0.7,0.3,1.2H4.7
		c0-0.2-0.1-0.4-0.1-0.6C4.4,1.8,4.3,1.7,4.2,1.6C4.1,1.5,3.9,1.4,3.7,1.4c-0.2,0-0.4-0.1-0.6-0.1c-0.1,0-0.3,0-0.4,0
		S2.4,1.5,2.3,1.5S2.1,1.7,2,1.8C2,1.9,1.9,2.1,1.9,2.2c0,0.2,0,0.3,0.1,0.4c0.1,0.1,0.2,0.2,0.3,0.3S2.8,3,3.1,3.1
		c0.3,0.1,0.7,0.2,1.2,0.3c0.1,0,0.2,0.1,0.4,0.1c0.2,0,0.3,0.1,0.5,0.2c0.2,0.1,0.3,0.2,0.5,0.3C5.8,4.1,6,4.2,6.1,4.4
		c0.1,0.2,0.3,0.4,0.3,0.6s0.1,0.5,0.1,0.8c0,0.4-0.1,0.7-0.2,1C6.3,7,6.1,7.3,5.8,7.5S5.2,7.9,4.8,8C4.4,8.2,3.9,8.2,3.3,8.2
		c-0.4,0-0.9-0.1-1.3-0.2C1.7,8,1.3,7.8,1,7.6C0.7,7.3,0.5,7,0.3,6.7C0.1,6.3,0,5.9,0,5.4H1.7z"/>
	<path class="st0" d="M8.8,5.6c0,0.5,0.2,0.9,0.4,1.1C9.4,6.9,9.7,7,10.2,7c0.3,0,0.6-0.1,0.8-0.2c0.2-0.2,0.4-0.3,0.4-0.5h1.4
		c-0.2,0.7-0.6,1.2-1,1.5c-0.5,0.3-1,0.5-1.7,0.5C9.7,8.2,9.2,8.1,8.9,8C8.5,7.8,8.2,7.6,8,7.4C7.7,7.1,7.5,6.8,7.4,6.4
		C7.3,6,7.2,5.6,7.2,5.2c0-0.4,0.1-0.8,0.2-1.2c0.1-0.4,0.3-0.7,0.6-1c0.3-0.3,0.6-0.5,0.9-0.6c0.4-0.2,0.7-0.2,1.2-0.2
		c0.5,0,0.9,0.1,1.3,0.3c0.4,0.2,0.7,0.4,0.9,0.8s0.4,0.7,0.5,1.1c0.1,0.4,0.1,0.8,0.1,1.3H8.8z M11.3,4.6c-0.1-0.4-0.2-0.7-0.4-0.9
		c-0.2-0.2-0.5-0.3-0.9-0.3c-0.2,0-0.5,0-0.6,0.1C9.3,3.6,9.1,3.7,9,3.8C8.9,3.9,8.9,4.1,8.8,4.2c0,0.1-0.1,0.3-0.1,0.4H11.3z"/>
	<path class="st0" d="M13.8,2.4h1.5v0.8h0c0.2-0.3,0.5-0.5,0.7-0.7c0.3-0.2,0.6-0.2,1-0.2c0.4,0,0.7,0.1,1,0.2
		c0.3,0.1,0.5,0.4,0.7,0.7c0.2-0.3,0.4-0.5,0.7-0.7c0.3-0.2,0.6-0.3,1-0.3c0.3,0,0.6,0,0.8,0.1c0.3,0.1,0.5,0.2,0.7,0.4
		s0.3,0.4,0.4,0.6c0.1,0.3,0.2,0.6,0.2,0.9V8H21V4.8c0-0.2,0-0.4,0-0.5S20.9,4,20.8,3.8c-0.1-0.1-0.2-0.2-0.3-0.3
		c-0.1-0.1-0.3-0.1-0.5-0.1c-0.2,0-0.4,0-0.5,0.1s-0.2,0.2-0.3,0.3C19.1,4,19,4.2,19,4.4c0,0.2,0,0.3,0,0.5V8h-1.6V4.9
		c0-0.2,0-0.3,0-0.5c0-0.2,0-0.3-0.1-0.5c-0.1-0.1-0.1-0.3-0.3-0.3s-0.3-0.1-0.6-0.1c-0.1,0-0.2,0-0.3,0s-0.2,0.1-0.3,0.2
		s-0.2,0.2-0.3,0.4c-0.1,0.2-0.1,0.4-0.1,0.7V8h-1.6V2.4z"/>
	<path class="st0" d="M23.7,4.1c0-0.4,0.1-0.7,0.3-0.9c0.2-0.2,0.4-0.4,0.6-0.6c0.2-0.1,0.5-0.3,0.8-0.3c0.3-0.1,0.6-0.1,0.9-0.1
		c0.3,0,0.6,0,0.9,0.1c0.3,0,0.6,0.1,0.8,0.2s0.4,0.3,0.6,0.5s0.2,0.5,0.2,0.8v3c0,0.3,0,0.5,0,0.7c0,0.2,0.1,0.4,0.2,0.5h-1.6
		c0-0.1-0.1-0.2-0.1-0.3c0-0.1,0-0.2,0-0.3c-0.2,0.3-0.5,0.4-0.9,0.5c-0.3,0.1-0.7,0.2-1,0.2c-0.3,0-0.5,0-0.8-0.1
		c-0.2-0.1-0.4-0.2-0.6-0.3c-0.2-0.1-0.3-0.3-0.4-0.5c-0.1-0.2-0.1-0.5-0.1-0.8c0-0.3,0.1-0.6,0.2-0.8c0.1-0.2,0.3-0.4,0.4-0.5
		c0.2-0.1,0.4-0.2,0.6-0.3c0.2-0.1,0.5-0.1,0.7-0.1c0.2,0,0.5-0.1,0.7-0.1c0.2,0,0.4-0.1,0.6-0.1s0.3-0.1,0.4-0.2
		c0.1-0.1,0.2-0.2,0.2-0.4c0-0.2,0-0.3-0.1-0.4c-0.1-0.1-0.1-0.2-0.2-0.2c-0.1-0.1-0.2-0.1-0.3-0.1s-0.3,0-0.4,0
		c-0.3,0-0.5,0.1-0.7,0.2c-0.2,0.1-0.3,0.4-0.3,0.7H23.7z M27.3,5.3c-0.1,0.1-0.1,0.1-0.2,0.1c-0.1,0-0.2,0.1-0.3,0.1
		c-0.1,0-0.2,0-0.4,0.1c-0.1,0-0.3,0-0.4,0.1c-0.1,0-0.2,0.1-0.4,0.1c-0.1,0-0.2,0.1-0.3,0.1c-0.1,0.1-0.2,0.1-0.2,0.2
		c-0.1,0.1-0.1,0.2-0.1,0.4c0,0.1,0,0.3,0.1,0.4c0.1,0.1,0.1,0.2,0.2,0.2c0.1,0.1,0.2,0.1,0.3,0.1c0.1,0,0.2,0,0.4,0
		c0.3,0,0.5-0.1,0.7-0.2c0.2-0.1,0.3-0.2,0.4-0.4c0.1-0.1,0.1-0.3,0.1-0.4s0-0.3,0-0.4V5.3z"/>
	<path class="st0" d="M30.1,2.4h1.5v0.8h0c0.2-0.3,0.5-0.6,0.8-0.7c0.3-0.2,0.6-0.2,1-0.2c0.4,0,0.8,0.1,1,0.2
		c0.3,0.1,0.5,0.3,0.6,0.5c0.2,0.2,0.3,0.4,0.3,0.7c0.1,0.3,0.1,0.6,0.1,1V8h-1.6V4.8c0-0.5-0.1-0.8-0.2-1.1
		c-0.2-0.2-0.4-0.3-0.8-0.3c-0.4,0-0.7,0.1-0.9,0.4s-0.3,0.7-0.3,1.2v3h-1.6V2.4z"/>
	<path class="st0" d="M36.5,4.1c0-0.4,0.1-0.7,0.3-0.9c0.2-0.2,0.4-0.4,0.6-0.6c0.3-0.1,0.5-0.3,0.8-0.3c0.3-0.1,0.6-0.1,0.9-0.1
		c0.3,0,0.6,0,0.9,0.1c0.3,0,0.6,0.1,0.8,0.2s0.4,0.3,0.6,0.5c0.2,0.2,0.2,0.5,0.2,0.8v3c0,0.3,0,0.5,0,0.7c0,0.2,0.1,0.4,0.2,0.5
		h-1.6c0-0.1-0.1-0.2-0.1-0.3c0-0.1,0-0.2,0-0.3c-0.3,0.3-0.5,0.4-0.9,0.5c-0.3,0.1-0.7,0.2-1,0.2c-0.3,0-0.5,0-0.8-0.1
		c-0.2-0.1-0.4-0.2-0.6-0.3c-0.2-0.1-0.3-0.3-0.4-0.5c-0.1-0.2-0.1-0.5-0.1-0.8c0-0.3,0.1-0.6,0.2-0.8c0.1-0.2,0.3-0.4,0.4-0.5
		c0.2-0.1,0.4-0.2,0.6-0.3c0.2-0.1,0.5-0.1,0.7-0.1c0.2,0,0.5-0.1,0.7-0.1c0.2,0,0.4-0.1,0.6-0.1s0.3-0.1,0.4-0.2
		c0.1-0.1,0.2-0.2,0.2-0.4c0-0.2,0-0.3-0.1-0.4c-0.1-0.1-0.1-0.2-0.2-0.2c-0.1-0.1-0.2-0.1-0.3-0.1s-0.3,0-0.4,0
		c-0.3,0-0.5,0.1-0.7,0.2c-0.2,0.1-0.3,0.4-0.3,0.7H36.5z M40.1,5.3c-0.1,0.1-0.1,0.1-0.2,0.1s-0.2,0.1-0.3,0.1
		c-0.1,0-0.2,0-0.4,0.1c-0.1,0-0.3,0-0.4,0.1c-0.1,0-0.2,0.1-0.4,0.1c-0.1,0-0.2,0.1-0.3,0.1C38.1,5.9,38,6,38,6.1
		c-0.1,0.1-0.1,0.2-0.1,0.4c0,0.1,0,0.3,0.1,0.4C38,6.9,38.1,6.9,38.2,7c0.1,0.1,0.2,0.1,0.3,0.1c0.1,0,0.2,0,0.4,0
		c0.3,0,0.5-0.1,0.7-0.2s0.3-0.2,0.4-0.4c0.1-0.1,0.1-0.3,0.1-0.4c0-0.1,0-0.3,0-0.4V5.3z"/>
	<path class="st0" d="M49.7,8h-1.6V3h-1.9V1.9c0.3,0,0.5,0,0.8-0.1s0.5-0.1,0.7-0.3c0.2-0.1,0.4-0.3,0.5-0.5
		c0.1-0.2,0.2-0.4,0.3-0.7h1.2V8z"/>
</g>
</svg>
