<!-- Generator: Adobe Illustrator 20.1.0, SVG Export Plug-In  -->
<svg version="1.1"
	 xmlns="http://www.w3.org/2000/svg" xmlns:xlink="http://www.w3.org/1999/xlink" xmlns:a="http://ns.adobe.com/AdobeSVGViewerExtensions/3.0/"
	 x="0px" y="0px" width="243.9px" height="11.6px" viewBox="0 0 243.9 11.6"
	 style="overflow:scroll;enable-background:new 0 0 243.9 11.6;" xml:space="preserve">
<style type="text/css">
	.st0{fill:#F18A21;}
</style>
<defs>
</defs>
<g>
	<g>
		<path class="st0" d="M2.4,7.7c0,0.4,0.1,0.7,0.2,0.9c0.1,0.3,0.3,0.5,0.5,0.6c0.2,0.2,0.5,0.3,0.8,0.4c0.3,0.1,0.6,0.1,0.9,0.1
			c0.2,0,0.4,0,0.7-0.1c0.2,0,0.5-0.1,0.7-0.2S6.6,9.2,6.7,9C6.9,8.8,7,8.6,7,8.3C7,8,6.9,7.8,6.7,7.6C6.5,7.4,6.2,7.3,5.9,7.1
			C5.6,7,5.3,6.9,4.9,6.8C4.5,6.7,4.1,6.6,3.7,6.5C3.3,6.4,2.9,6.3,2.5,6.1C2.1,6,1.7,5.8,1.4,5.5C1.1,5.3,0.9,5,0.7,4.7
			C0.5,4.3,0.4,3.9,0.4,3.3c0-0.6,0.1-1.1,0.4-1.5c0.2-0.4,0.6-0.8,1-1C2.1,0.5,2.5,0.3,3,0.2C3.5,0.1,4,0,4.5,0
			c0.6,0,1.1,0.1,1.7,0.2c0.5,0.1,1,0.3,1.4,0.6c0.4,0.3,0.7,0.7,1,1.1c0.2,0.4,0.4,1,0.4,1.6H6.6c0-0.3-0.1-0.6-0.2-0.8
			C6.3,2.5,6.1,2.4,5.9,2.2C5.7,2.1,5.5,2,5.2,2C5,1.9,4.7,1.9,4.4,1.9C4.2,1.9,4,1.9,3.8,2C3.6,2,3.4,2.1,3.3,2.2
			C3.1,2.3,3,2.4,2.9,2.6S2.7,2.9,2.7,3.1c0,0.2,0,0.4,0.1,0.5C2.9,3.8,3.1,3.9,3.3,4s0.6,0.2,1,0.3c0.4,0.1,1,0.3,1.7,0.4
			c0.1,0,0.3,0.1,0.5,0.1C6.8,5,7,5.1,7.2,5.2C7.5,5.3,7.7,5.4,8,5.6c0.2,0.2,0.5,0.3,0.7,0.6C8.8,6.4,9,6.6,9.1,7S9.3,7.6,9.3,8
			c0,0.5-0.1,1-0.3,1.4c-0.2,0.4-0.5,0.8-0.9,1.1c-0.4,0.3-0.9,0.6-1.4,0.7s-1.2,0.3-2,0.3c-0.6,0-1.2-0.1-1.8-0.2S1.9,11,1.4,10.7
			c-0.4-0.3-0.8-0.7-1-1.2S0,8.3,0,7.7H2.4z"/>
		<path class="st0" d="M14.5,7.9c0,0.7,0.2,1.2,0.5,1.5c0.3,0.3,0.8,0.5,1.4,0.5c0.4,0,0.8-0.1,1.1-0.3c0.3-0.2,0.5-0.5,0.6-0.7h1.9
			c-0.3,1-0.8,1.6-1.4,2.1s-1.4,0.6-2.3,0.6c-0.6,0-1.2-0.1-1.7-0.3c-0.5-0.2-0.9-0.5-1.3-0.9S12.8,9.6,12.6,9
			c-0.2-0.5-0.3-1.1-0.3-1.7c0-0.6,0.1-1.2,0.3-1.7c0.2-0.5,0.5-1,0.8-1.3s0.8-0.7,1.3-0.9c0.5-0.2,1.1-0.3,1.7-0.3
			c0.7,0,1.3,0.1,1.8,0.4c0.5,0.3,0.9,0.6,1.2,1.1c0.3,0.4,0.6,1,0.7,1.5s0.2,1.2,0.2,1.8H14.5z M18.1,6.5c-0.1-0.6-0.3-1-0.5-1.3
			c-0.3-0.3-0.7-0.4-1.2-0.4c-0.4,0-0.6,0.1-0.9,0.2S15,5.2,14.9,5.4c-0.1,0.2-0.2,0.4-0.3,0.6s-0.1,0.4-0.1,0.5H18.1z"/>
		<path class="st0" d="M23.8,3.3h2.1v1.1h0c0.3-0.5,0.6-0.8,1.1-1s0.9-0.3,1.4-0.3c0.6,0,1.1,0.1,1.4,0.2c0.4,0.2,0.7,0.4,0.9,0.7
			c0.2,0.3,0.4,0.6,0.5,1s0.1,0.9,0.1,1.4v4.9h-2.2V6.8c0-0.7-0.1-1.2-0.3-1.5c-0.2-0.3-0.6-0.5-1.1-0.5c-0.6,0-1,0.2-1.3,0.5
			C26.1,5.7,26,6.3,26,7.1v4.2h-2.2V3.3z"/>
		<path class="st0" d="M37.9,3.3h1.6v1.5h-1.6v4c0,0.4,0.1,0.6,0.2,0.7s0.4,0.2,0.7,0.2c0.2,0,0.5,0,0.7-0.1v1.7
			c-0.2,0-0.4,0.1-0.6,0.1c-0.2,0-0.4,0-0.7,0c-0.3,0-0.7,0-1-0.1c-0.3,0-0.6-0.1-0.8-0.3s-0.4-0.3-0.6-0.6c-0.1-0.2-0.2-0.6-0.2-1
			V4.8h-1.3V3.3h1.3V0.9h2.2V3.3z"/>
		<path class="st0" d="M45,2.1h-2.2V0.3H45V2.1z M42.8,3.3H45v8h-2.2V3.3z"/>
		<path class="st0" d="M49,3.3h2.1v1.1h0c0.3-0.4,0.6-0.7,1-1s0.9-0.3,1.4-0.3c0.5,0,1,0.1,1.4,0.3c0.4,0.2,0.7,0.5,1,1
			c0.2-0.4,0.6-0.7,1-0.9c0.4-0.3,0.9-0.4,1.4-0.4c0.4,0,0.8,0.1,1.2,0.2c0.4,0.1,0.7,0.3,0.9,0.5C60.7,4,60.9,4.3,61,4.6
			C61.2,5,61.2,5.5,61.2,6v5.4H59V6.8c0-0.3,0-0.5,0-0.8c0-0.2-0.1-0.4-0.2-0.6c-0.1-0.2-0.2-0.3-0.4-0.4c-0.2-0.1-0.4-0.2-0.7-0.2
			S57.1,4.9,56.9,5c-0.2,0.1-0.3,0.3-0.5,0.5c-0.1,0.2-0.2,0.4-0.2,0.7c0,0.2-0.1,0.5-0.1,0.7v4.5H54V6.8c0-0.2,0-0.5,0-0.7
			c0-0.2-0.1-0.5-0.1-0.7c-0.1-0.2-0.2-0.4-0.4-0.5c-0.2-0.1-0.4-0.2-0.8-0.2c-0.1,0-0.3,0-0.4,0.1c-0.2,0-0.3,0.1-0.5,0.3
			c-0.2,0.1-0.3,0.3-0.4,0.6c-0.1,0.2-0.2,0.6-0.2,1v4.7H49V3.3z"/>
		<path class="st0" d="M67.4,2.1h-2.2V0.3h2.2V2.1z M65.2,3.3h2.2v8h-2.2V3.3z"/>
		<path class="st0" d="M73.1,7.9c0,0.7,0.2,1.2,0.5,1.5c0.3,0.3,0.8,0.5,1.4,0.5c0.4,0,0.8-0.1,1.1-0.3c0.3-0.2,0.5-0.5,0.6-0.7h1.9
			c-0.3,1-0.8,1.6-1.4,2.1s-1.4,0.6-2.3,0.6c-0.6,0-1.2-0.1-1.7-0.3c-0.5-0.2-0.9-0.5-1.3-0.9S71.4,9.6,71.2,9
			C71,8.5,70.9,8,70.9,7.3c0-0.6,0.1-1.2,0.3-1.7c0.2-0.5,0.5-1,0.8-1.3c0.4-0.4,0.8-0.7,1.3-0.9s1.1-0.3,1.7-0.3
			c0.7,0,1.3,0.1,1.8,0.4c0.5,0.3,0.9,0.6,1.2,1.1c0.3,0.4,0.6,1,0.7,1.5c0.1,0.6,0.2,1.2,0.2,1.8H73.1z M76.7,6.5
			c-0.1-0.6-0.3-1-0.6-1.3S75.5,4.8,75,4.8c-0.4,0-0.6,0.1-0.9,0.2s-0.4,0.3-0.6,0.4c-0.1,0.2-0.2,0.4-0.3,0.6s-0.1,0.4-0.1,0.5
			H76.7z"/>
		<path class="st0" d="M82.4,3.3h2.1v1.1h0c0.3-0.5,0.6-0.8,1.1-1s0.9-0.3,1.4-0.3c0.6,0,1.1,0.1,1.4,0.2c0.4,0.2,0.7,0.4,0.9,0.7
			c0.2,0.3,0.4,0.6,0.5,1s0.1,0.9,0.1,1.4v4.9h-2.2V6.8c0-0.7-0.1-1.2-0.3-1.5c-0.2-0.3-0.6-0.5-1.1-0.5c-0.6,0-1,0.2-1.3,0.5
			c-0.3,0.4-0.4,0.9-0.4,1.8v4.2h-2.2V3.3z"/>
		<path class="st0" d="M96.5,3.3h1.6v1.5h-1.6v4c0,0.4,0.1,0.6,0.2,0.7c0.1,0.1,0.4,0.2,0.7,0.2c0.2,0,0.5,0,0.7-0.1v1.7
			c-0.2,0-0.4,0.1-0.6,0.1c-0.2,0-0.4,0-0.7,0c-0.3,0-0.7,0-1-0.1c-0.3,0-0.6-0.1-0.8-0.3c-0.2-0.1-0.4-0.3-0.5-0.6s-0.2-0.6-0.2-1
			V4.8H93V3.3h1.3V0.9h2.2V3.3z"/>
		<path class="st0" d="M101.1,7.3c0-0.6,0.1-1.2,0.3-1.7c0.2-0.5,0.5-1,0.8-1.3c0.4-0.4,0.8-0.7,1.3-0.9c0.5-0.2,1.1-0.3,1.7-0.3
			c0.6,0,1.2,0.1,1.7,0.3c0.5,0.2,0.9,0.5,1.3,0.9c0.4,0.4,0.6,0.8,0.8,1.3c0.2,0.5,0.3,1.1,0.3,1.7s-0.1,1.2-0.3,1.7
			c-0.2,0.5-0.5,1-0.8,1.3c-0.4,0.4-0.8,0.7-1.3,0.9c-0.5,0.2-1.1,0.3-1.7,0.3c-0.6,0-1.2-0.1-1.7-0.3c-0.5-0.2-0.9-0.5-1.3-0.9
			c-0.4-0.4-0.6-0.8-0.8-1.3S101.1,8,101.1,7.3z M103.3,7.3c0,0.3,0,0.6,0.1,0.9c0.1,0.3,0.2,0.6,0.3,0.8c0.1,0.2,0.3,0.4,0.6,0.6
			c0.2,0.1,0.6,0.2,0.9,0.2c0.4,0,0.7-0.1,0.9-0.2c0.3-0.1,0.5-0.3,0.6-0.6s0.3-0.5,0.3-0.8c0.1-0.3,0.1-0.6,0.1-0.9s0-0.6-0.1-0.9
			c-0.1-0.3-0.2-0.6-0.3-0.8c-0.1-0.2-0.4-0.4-0.6-0.6c-0.3-0.2-0.6-0.2-0.9-0.2c-0.4,0-0.7,0.1-0.9,0.2c-0.2,0.1-0.4,0.3-0.6,0.6
			c-0.2,0.2-0.3,0.5-0.3,0.8C103.4,6.7,103.3,7,103.3,7.3z"/>
		<path class="st0" d="M125.2,10.3L125.2,10.3c-0.3,0.4-0.6,0.8-1.1,0.9s-0.9,0.3-1.4,0.3c-0.6,0-1.1-0.1-1.6-0.4
			c-0.4-0.2-0.8-0.6-1.1-1c-0.3-0.4-0.5-0.9-0.7-1.4c-0.2-0.5-0.2-1.1-0.2-1.6c0-0.5,0.1-1.1,0.2-1.6c0.1-0.5,0.4-0.9,0.7-1.3
			c0.3-0.4,0.7-0.7,1.1-0.9c0.4-0.2,1-0.3,1.6-0.3c0.5,0,0.9,0.1,1.4,0.3c0.4,0.2,0.8,0.5,1,0.9h0v-4h2.2v11.1h-2.1V10.3z
			 M125.2,7.3c0-0.3,0-0.6-0.1-0.9c-0.1-0.3-0.2-0.6-0.3-0.8c-0.2-0.2-0.3-0.4-0.6-0.6c-0.2-0.1-0.5-0.2-0.9-0.2
			c-0.4,0-0.7,0.1-0.9,0.2s-0.4,0.3-0.6,0.6c-0.2,0.2-0.3,0.5-0.3,0.8c-0.1,0.3-0.1,0.6-0.1,1c0,0.3,0,0.6,0.1,0.9
			c0.1,0.3,0.2,0.6,0.3,0.8c0.2,0.2,0.4,0.4,0.6,0.6c0.2,0.2,0.5,0.2,0.9,0.2c0.4,0,0.7-0.1,0.9-0.2c0.2-0.1,0.4-0.3,0.6-0.6
			s0.2-0.5,0.3-0.8C125.2,8,125.2,7.6,125.2,7.3z"/>
		<path class="st0" d="M133,7.9c0,0.7,0.2,1.2,0.5,1.5c0.3,0.3,0.8,0.5,1.4,0.5c0.4,0,0.8-0.1,1.1-0.3c0.3-0.2,0.5-0.5,0.6-0.7h1.9
			c-0.3,1-0.8,1.6-1.4,2.1c-0.6,0.4-1.4,0.6-2.3,0.6c-0.6,0-1.2-0.1-1.7-0.3c-0.5-0.2-0.9-0.5-1.3-0.9S131.2,9.6,131,9
			c-0.2-0.5-0.3-1.1-0.3-1.7c0-0.6,0.1-1.2,0.3-1.7c0.2-0.5,0.5-1,0.8-1.3c0.4-0.4,0.8-0.7,1.3-0.9s1.1-0.3,1.7-0.3
			c0.7,0,1.3,0.1,1.8,0.4c0.5,0.3,0.9,0.6,1.2,1.1c0.3,0.4,0.6,1,0.7,1.5s0.2,1.2,0.2,1.8H133z M136.5,6.5c-0.1-0.6-0.3-1-0.5-1.3
			c-0.3-0.3-0.7-0.4-1.2-0.4c-0.4,0-0.6,0.1-0.9,0.2c-0.2,0.1-0.4,0.3-0.6,0.4c-0.1,0.2-0.2,0.4-0.3,0.6S133,6.3,133,6.5H136.5z"/>
		<path class="st0" d="M148.8,3.3h2.1v1.1h0c0.3-0.4,0.6-0.7,1-1s0.9-0.3,1.4-0.3c0.5,0,1,0.1,1.4,0.3c0.4,0.2,0.7,0.5,1,1
			c0.2-0.4,0.6-0.7,1-0.9c0.4-0.3,0.9-0.4,1.4-0.4c0.4,0,0.8,0.1,1.2,0.2c0.4,0.1,0.7,0.3,0.9,0.5c0.3,0.2,0.5,0.5,0.6,0.9
			C160.9,5,161,5.5,161,6v5.4h-2.2V6.8c0-0.3,0-0.5,0-0.8c0-0.2-0.1-0.4-0.2-0.6c-0.1-0.2-0.2-0.3-0.4-0.4c-0.2-0.1-0.4-0.2-0.7-0.2
			s-0.6,0.1-0.8,0.2c-0.2,0.1-0.3,0.3-0.5,0.5c-0.1,0.2-0.2,0.4-0.2,0.7c0,0.2-0.1,0.5-0.1,0.7v4.5h-2.2V6.8c0-0.2,0-0.5,0-0.7
			c0-0.2-0.1-0.5-0.1-0.7c-0.1-0.2-0.2-0.4-0.4-0.5c-0.2-0.1-0.4-0.2-0.8-0.2c-0.1,0-0.3,0-0.4,0.1c-0.2,0-0.3,0.1-0.5,0.3
			c-0.2,0.1-0.3,0.3-0.4,0.6C151,6,151,6.3,151,6.7v4.7h-2.2V3.3z"/>
		<path class="st0" d="M164.7,7.3c0-0.6,0.1-1.2,0.3-1.7c0.2-0.5,0.5-1,0.8-1.3c0.4-0.4,0.8-0.7,1.3-0.9c0.5-0.2,1.1-0.3,1.7-0.3
			c0.6,0,1.2,0.1,1.7,0.3c0.5,0.2,0.9,0.5,1.3,0.9c0.4,0.4,0.6,0.8,0.8,1.3c0.2,0.5,0.3,1.1,0.3,1.7s-0.1,1.2-0.3,1.7
			s-0.5,1-0.8,1.3c-0.4,0.4-0.8,0.7-1.3,0.9c-0.5,0.2-1.1,0.3-1.7,0.3c-0.6,0-1.2-0.1-1.7-0.3c-0.5-0.2-0.9-0.5-1.3-0.9
			c-0.4-0.4-0.6-0.8-0.8-1.3C164.8,8.6,164.7,8,164.7,7.3z M166.9,7.3c0,0.3,0,0.6,0.1,0.9c0.1,0.3,0.2,0.6,0.3,0.8s0.3,0.4,0.6,0.6
			c0.2,0.1,0.6,0.2,0.9,0.2s0.7-0.1,0.9-0.2c0.3-0.1,0.5-0.3,0.6-0.6c0.2-0.2,0.3-0.5,0.3-0.8c0.1-0.3,0.1-0.6,0.1-0.9
			s0-0.6-0.1-0.9c-0.1-0.3-0.2-0.6-0.3-0.8c-0.1-0.2-0.4-0.4-0.6-0.6c-0.3-0.2-0.6-0.2-0.9-0.2s-0.7,0.1-0.9,0.2
			c-0.2,0.1-0.4,0.3-0.6,0.6c-0.1,0.2-0.3,0.5-0.3,0.8C166.9,6.7,166.9,7,166.9,7.3z"/>
		<path class="st0" d="M176.6,3.3h2.1v1.1h0c0.3-0.5,0.6-0.8,1.1-1s0.9-0.3,1.4-0.3c0.6,0,1.1,0.1,1.4,0.2c0.4,0.2,0.7,0.4,0.9,0.7
			c0.2,0.3,0.4,0.6,0.5,1s0.1,0.9,0.1,1.4v4.9h-2.2V6.8c0-0.7-0.1-1.2-0.3-1.5c-0.2-0.3-0.6-0.5-1.1-0.5c-0.6,0-1,0.2-1.3,0.5
			c-0.3,0.4-0.4,0.9-0.4,1.8v4.2h-2.2V3.3z"/>
		<path class="st0" d="M187.7,7.3c0-0.6,0.1-1.2,0.3-1.7c0.2-0.5,0.5-1,0.8-1.3c0.4-0.4,0.8-0.7,1.3-0.9c0.5-0.2,1.1-0.3,1.7-0.3
			c0.6,0,1.2,0.1,1.7,0.3c0.5,0.2,0.9,0.5,1.3,0.9c0.4,0.4,0.6,0.8,0.8,1.3c0.2,0.5,0.3,1.1,0.3,1.7s-0.1,1.2-0.3,1.7
			c-0.2,0.5-0.5,1-0.8,1.3c-0.4,0.4-0.8,0.7-1.3,0.9c-0.5,0.2-1.1,0.3-1.7,0.3c-0.6,0-1.2-0.1-1.7-0.3c-0.5-0.2-0.9-0.5-1.3-0.9
			c-0.4-0.4-0.6-0.8-0.8-1.3S187.7,8,187.7,7.3z M189.9,7.3c0,0.3,0,0.6,0.1,0.9c0.1,0.3,0.2,0.6,0.3,0.8c0.1,0.2,0.3,0.4,0.6,0.6
			c0.2,0.1,0.6,0.2,0.9,0.2c0.4,0,0.7-0.1,0.9-0.2c0.3-0.1,0.5-0.3,0.6-0.6s0.3-0.5,0.3-0.8c0.1-0.3,0.1-0.6,0.1-0.9s0-0.6-0.1-0.9
			c-0.1-0.3-0.2-0.6-0.3-0.8c-0.1-0.2-0.4-0.4-0.6-0.6c-0.3-0.2-0.6-0.2-0.9-0.2c-0.4,0-0.7,0.1-0.9,0.2c-0.2,0.1-0.4,0.3-0.6,0.6
			c-0.2,0.2-0.3,0.5-0.3,0.8C189.9,6.7,189.9,7,189.9,7.3z"/>
		<path class="st0" d="M202.4,3.3h1.6v1.5h-1.6v4c0,0.4,0.1,0.6,0.2,0.7c0.1,0.1,0.4,0.2,0.7,0.2c0.2,0,0.5,0,0.7-0.1v1.7
			c-0.2,0-0.4,0.1-0.6,0.1c-0.2,0-0.4,0-0.7,0c-0.3,0-0.7,0-1-0.1c-0.3,0-0.6-0.1-0.8-0.3c-0.2-0.1-0.4-0.3-0.5-0.6s-0.2-0.6-0.2-1
			V4.8h-1.3V3.3h1.3V0.9h2.2V3.3z"/>
		<path class="st0" d="M207,7.3c0-0.6,0.1-1.2,0.3-1.7c0.2-0.5,0.5-1,0.8-1.3c0.4-0.4,0.8-0.7,1.3-0.9c0.5-0.2,1.1-0.3,1.7-0.3
			s1.2,0.1,1.7,0.3c0.5,0.2,0.9,0.5,1.3,0.9c0.4,0.4,0.6,0.8,0.8,1.3c0.2,0.5,0.3,1.1,0.3,1.7s-0.1,1.2-0.3,1.7s-0.5,1-0.8,1.3
			c-0.4,0.4-0.8,0.7-1.3,0.9c-0.5,0.2-1.1,0.3-1.7,0.3s-1.2-0.1-1.7-0.3c-0.5-0.2-0.9-0.5-1.3-0.9c-0.4-0.4-0.6-0.8-0.8-1.3
			C207,8.6,207,8,207,7.3z M209.2,7.3c0,0.3,0,0.6,0.1,0.9c0.1,0.3,0.2,0.6,0.3,0.8s0.3,0.4,0.6,0.6c0.2,0.1,0.6,0.2,0.9,0.2
			s0.7-0.1,0.9-0.2c0.3-0.1,0.5-0.3,0.6-0.6c0.1-0.2,0.3-0.5,0.3-0.8C213,8,213,7.7,213,7.3s0-0.6-0.1-0.9c-0.1-0.3-0.2-0.6-0.3-0.8
			c-0.2-0.2-0.4-0.4-0.6-0.6c-0.3-0.2-0.6-0.2-0.9-0.2s-0.7,0.1-0.9,0.2c-0.2,0.1-0.4,0.3-0.6,0.6c-0.2,0.2-0.3,0.5-0.3,0.8
			C209.2,6.7,209.2,7,209.2,7.3z"/>
		<path class="st0" d="M218.8,3.3h2.1v1.1h0c0.3-0.5,0.6-0.8,1.1-1s0.9-0.3,1.4-0.3c0.6,0,1.1,0.1,1.4,0.2c0.4,0.2,0.7,0.4,0.9,0.7
			c0.2,0.3,0.4,0.6,0.5,1s0.1,0.9,0.1,1.4v4.9h-2.2V6.8c0-0.7-0.1-1.2-0.3-1.5c-0.2-0.3-0.6-0.5-1.1-0.5c-0.6,0-1,0.2-1.3,0.5
			c-0.3,0.4-0.4,0.9-0.4,1.8v4.2h-2.2V3.3z"/>
		<path class="st0" d="M231.7,2.3h-1.5l1.5-2.2h2.4L231.7,2.3z M230.3,3.3h2.2v8h-2.2V3.3z"/>
		<path class="st0" d="M236.3,5.8c0-0.5,0.2-0.9,0.4-1.3c0.2-0.3,0.5-0.6,0.9-0.8s0.7-0.4,1.2-0.4s0.9-0.1,1.3-0.1
			c0.4,0,0.8,0,1.2,0.1s0.8,0.2,1.1,0.3c0.3,0.2,0.6,0.4,0.8,0.7c0.2,0.3,0.3,0.7,0.3,1.2v4.2c0,0.4,0,0.7,0.1,1s0.1,0.6,0.2,0.7
			h-2.2c0-0.1-0.1-0.3-0.1-0.4c0-0.1,0-0.3-0.1-0.4c-0.4,0.4-0.8,0.6-1.2,0.8s-1,0.2-1.5,0.2c-0.4,0-0.7,0-1.1-0.1
			c-0.3-0.1-0.6-0.2-0.9-0.4s-0.4-0.4-0.6-0.7S236,9.6,236,9.1c0-0.5,0.1-0.8,0.2-1.1c0.2-0.3,0.4-0.5,0.6-0.7
			c0.3-0.2,0.6-0.3,0.9-0.4s0.7-0.2,1-0.2s0.7-0.1,1-0.1s0.6-0.1,0.8-0.1c0.2-0.1,0.4-0.2,0.6-0.3s0.2-0.3,0.2-0.5
			c0-0.2,0-0.4-0.1-0.6s-0.2-0.2-0.3-0.3c-0.1-0.1-0.3-0.1-0.5-0.2c-0.2,0-0.4,0-0.5,0c-0.4,0-0.8,0.1-1,0.3
			c-0.3,0.2-0.4,0.5-0.4,0.9H236.3z M241.4,7.4c-0.1,0.1-0.2,0.1-0.3,0.2c-0.1,0-0.3,0.1-0.5,0.1s-0.3,0.1-0.5,0.1
			c-0.2,0-0.4,0-0.5,0.1c-0.2,0-0.3,0.1-0.5,0.1c-0.2,0.1-0.3,0.1-0.4,0.2s-0.2,0.2-0.3,0.3s-0.1,0.3-0.1,0.5c0,0.2,0,0.4,0.1,0.5
			c0.1,0.1,0.2,0.2,0.3,0.3c0.1,0.1,0.3,0.1,0.4,0.2c0.2,0,0.3,0,0.5,0c0.4,0,0.8-0.1,1-0.2s0.4-0.3,0.5-0.5
			c0.1-0.2,0.2-0.4,0.2-0.6s0-0.4,0-0.5V7.4z"/>
	</g>
</g>
</svg>
