<!-- Generator: Adobe Illustrator 20.1.0, SVG Export Plug-In  -->
<svg version="1.1"
	 xmlns="http://www.w3.org/2000/svg" xmlns:xlink="http://www.w3.org/1999/xlink" xmlns:a="http://ns.adobe.com/AdobeSVGViewerExtensions/3.0/"
	 x="0px" y="0px" width="160.6px" height="11.4px" viewBox="0 0 160.6 11.4"
	 style="overflow:scroll;enable-background:new 0 0 160.6 11.4;" xml:space="preserve">
<style type="text/css">
	.st0{fill:#F18A21;}
</style>
<defs>
</defs>
<g>
	<g>
		<path class="st0" d="M0,0.1h5c0.7,0,1.3,0.1,1.8,0.3c0.5,0.2,0.9,0.5,1.2,0.8C8.3,1.6,8.5,2,8.6,2.4c0.1,0.4,0.2,0.9,0.2,1.3
			c0,0.5-0.1,0.9-0.2,1.3C8.5,5.4,8.3,5.8,7.9,6.1C7.6,6.5,7.2,6.7,6.8,6.9S5.7,7.2,5,7.2H2.4v4H0V0.1z M2.4,5.3h1.9
			c0.3,0,0.5,0,0.8-0.1c0.3,0,0.5-0.1,0.7-0.2C6,4.9,6.2,4.8,6.3,4.5C6.4,4.3,6.5,4,6.5,3.7S6.4,3.1,6.3,2.8C6.2,2.6,6,2.5,5.8,2.3
			C5.6,2.2,5.4,2.1,5.1,2.1C4.9,2.1,4.6,2,4.3,2H2.4V5.3z"/>
		<path class="st0" d="M14.1,7.7c0,0.7,0.2,1.2,0.5,1.5c0.3,0.3,0.8,0.5,1.4,0.5c0.4,0,0.8-0.1,1.1-0.3c0.3-0.2,0.5-0.5,0.6-0.7h1.9
			c-0.3,1-0.8,1.6-1.4,2.1c-0.6,0.4-1.4,0.6-2.3,0.6c-0.6,0-1.2-0.1-1.7-0.3c-0.5-0.2-0.9-0.5-1.3-0.9s-0.6-0.8-0.8-1.3
			c-0.2-0.5-0.3-1.1-0.3-1.7c0-0.6,0.1-1.2,0.3-1.7c0.2-0.5,0.5-1,0.8-1.3s0.8-0.7,1.3-0.9C14.8,3.1,15.4,3,16,3
			c0.7,0,1.3,0.1,1.8,0.4C18.3,3.6,18.7,4,19,4.4s0.6,1,0.7,1.5c0.1,0.6,0.2,1.2,0.2,1.8H14.1z M17.7,6.3c-0.1-0.6-0.3-1-0.6-1.3
			s-0.7-0.4-1.2-0.4c-0.4,0-0.6,0.1-0.9,0.2c-0.2,0.1-0.4,0.3-0.6,0.4c-0.1,0.2-0.2,0.4-0.3,0.6s-0.1,0.4-0.1,0.5H17.7z M16.3,2.2
			h-1.5L16.2,0h2.4L16.3,2.2z"/>
		<path class="st0" d="M23.3,3.2h2.1v1.5h0c0.1-0.2,0.2-0.5,0.4-0.7c0.2-0.2,0.4-0.4,0.6-0.5c0.2-0.2,0.5-0.3,0.7-0.3
			C27.5,3,27.8,3,28,3c0.2,0,0.3,0,0.5,0.1v2c-0.1,0-0.2,0-0.4-0.1c-0.1,0-0.3,0-0.4,0c-0.4,0-0.7,0.1-1,0.2
			c-0.3,0.1-0.5,0.3-0.7,0.5c-0.2,0.2-0.3,0.5-0.4,0.8s-0.1,0.6-0.1,1v3.6h-2.2V3.2z"/>
		<path class="st0" d="M37.3,10.2L37.3,10.2c-0.3,0.4-0.6,0.8-1.1,0.9s-0.9,0.3-1.4,0.3c-0.6,0-1.1-0.1-1.6-0.4s-0.8-0.6-1.1-1
			c-0.3-0.4-0.5-0.9-0.7-1.4c-0.2-0.5-0.2-1.1-0.2-1.6c0-0.5,0.1-1.1,0.2-1.6s0.4-0.9,0.7-1.3c0.3-0.4,0.7-0.7,1.1-0.9
			s1-0.3,1.6-0.3c0.5,0,0.9,0.1,1.4,0.3c0.4,0.2,0.8,0.5,1,0.9h0v-4h2.2v11.1h-2.1V10.2z M37.2,7.2c0-0.3,0-0.6-0.1-0.9
			c-0.1-0.3-0.2-0.6-0.3-0.8c-0.2-0.2-0.3-0.4-0.6-0.6c-0.2-0.1-0.5-0.2-0.9-0.2c-0.4,0-0.7,0.1-0.9,0.2S34,5.2,33.8,5.4
			c-0.1,0.2-0.3,0.5-0.3,0.8c-0.1,0.3-0.1,0.6-0.1,1c0,0.3,0,0.6,0.1,0.9c0.1,0.3,0.2,0.6,0.3,0.8c0.2,0.2,0.4,0.4,0.6,0.6
			c0.2,0.2,0.5,0.2,0.9,0.2c0.4,0,0.7-0.1,0.9-0.2c0.2-0.1,0.4-0.3,0.6-0.6c0.1-0.2,0.2-0.5,0.3-0.8C37.2,7.8,37.2,7.5,37.2,7.2z"/>
		<path class="st0" d="M45.5,2h-2.2V0.1h2.2V2z M43.3,3.2h2.2v8h-2.2V3.2z"/>
		<path class="st0" d="M55.1,10.2L55.1,10.2c-0.3,0.4-0.6,0.8-1.1,0.9s-0.9,0.3-1.4,0.3c-0.6,0-1.1-0.1-1.6-0.4s-0.8-0.6-1.1-1
			c-0.3-0.4-0.5-0.9-0.7-1.4C49.1,8.2,49,7.7,49,7.1c0-0.5,0.1-1.1,0.2-1.6s0.4-0.9,0.7-1.3c0.3-0.4,0.7-0.7,1.1-0.9S52,3,52.6,3
			c0.5,0,0.9,0.1,1.4,0.3c0.4,0.2,0.8,0.5,1,0.9h0v-4h2.2v11.1h-2.1V10.2z M55.1,7.2c0-0.3,0-0.6-0.1-0.9c-0.1-0.3-0.2-0.6-0.3-0.8
			c-0.2-0.2-0.3-0.4-0.6-0.6c-0.2-0.1-0.5-0.2-0.9-0.2c-0.4,0-0.7,0.1-0.9,0.2s-0.4,0.3-0.6,0.6c-0.1,0.2-0.3,0.5-0.3,0.8
			c-0.1,0.3-0.1,0.6-0.1,1c0,0.3,0,0.6,0.1,0.9c0.1,0.3,0.2,0.6,0.3,0.8c0.2,0.2,0.4,0.4,0.6,0.6c0.2,0.2,0.5,0.2,0.9,0.2
			c0.4,0,0.7-0.1,0.9-0.2c0.2-0.1,0.4-0.3,0.6-0.6c0.1-0.2,0.2-0.5,0.3-0.8C55,7.8,55.1,7.5,55.1,7.2z"/>
		<path class="st0" d="M60.9,5.7c0-0.5,0.2-0.9,0.4-1.3c0.2-0.3,0.5-0.6,0.9-0.8s0.7-0.4,1.2-0.4S64.2,3,64.7,3c0.4,0,0.8,0,1.2,0.1
			c0.4,0.1,0.8,0.2,1.1,0.3c0.3,0.2,0.6,0.4,0.8,0.7s0.3,0.7,0.3,1.2v4.2c0,0.4,0,0.7,0.1,1c0,0.3,0.1,0.6,0.2,0.7h-2.2
			c0-0.1-0.1-0.3-0.1-0.4s0-0.3-0.1-0.4c-0.4,0.4-0.8,0.6-1.2,0.8c-0.5,0.1-1,0.2-1.5,0.2c-0.4,0-0.7,0-1.1-0.1
			c-0.3-0.1-0.6-0.2-0.9-0.4c-0.2-0.2-0.4-0.4-0.6-0.7S60.7,9.4,60.7,9c0-0.5,0.1-0.8,0.2-1.1c0.2-0.3,0.4-0.5,0.6-0.7
			c0.3-0.2,0.5-0.3,0.9-0.4c0.3-0.1,0.7-0.2,1-0.2c0.3-0.1,0.7-0.1,1-0.1s0.6-0.1,0.8-0.1c0.2-0.1,0.4-0.2,0.6-0.3
			C65.9,5.9,66,5.8,66,5.5c0-0.2,0-0.4-0.1-0.6s-0.2-0.2-0.3-0.3c-0.1-0.1-0.3-0.1-0.4-0.2c-0.2,0-0.4,0-0.6,0c-0.4,0-0.8,0.1-1,0.3
			c-0.3,0.2-0.4,0.5-0.4,0.9H60.9z M66,7.3c-0.1,0.1-0.2,0.1-0.3,0.2c-0.1,0-0.3,0.1-0.4,0.1c-0.2,0-0.3,0.1-0.5,0.1
			c-0.2,0-0.4,0-0.5,0.1c-0.2,0-0.3,0.1-0.5,0.1c-0.2,0.1-0.3,0.1-0.4,0.2c-0.1,0.1-0.2,0.2-0.3,0.3s-0.1,0.3-0.1,0.5
			c0,0.2,0,0.4,0.1,0.5c0.1,0.1,0.2,0.2,0.3,0.3c0.1,0.1,0.3,0.1,0.4,0.2c0.2,0,0.3,0,0.5,0c0.4,0,0.8-0.1,1-0.2
			c0.2-0.1,0.4-0.3,0.5-0.5C65.9,9,65.9,8.8,66,8.6c0-0.2,0-0.4,0-0.5V7.3z"/>
		<path class="st0" d="M84.3,10.2L84.3,10.2c-0.3,0.4-0.6,0.8-1.1,0.9s-0.9,0.3-1.4,0.3c-0.6,0-1.1-0.1-1.6-0.4s-0.8-0.6-1.1-1
			c-0.3-0.4-0.5-0.9-0.7-1.4c-0.2-0.5-0.2-1.1-0.2-1.6c0-0.5,0.1-1.1,0.2-1.6c0.1-0.5,0.4-0.9,0.7-1.3c0.3-0.4,0.7-0.7,1.1-0.9
			s1-0.3,1.6-0.3c0.5,0,0.9,0.1,1.4,0.3c0.4,0.2,0.8,0.5,1,0.9h0v-4h2.2v11.1h-2.1V10.2z M84.3,7.2c0-0.3,0-0.6-0.1-0.9
			c-0.1-0.3-0.2-0.6-0.3-0.8S83.5,5,83.3,4.9s-0.5-0.2-0.9-0.2c-0.4,0-0.7,0.1-0.9,0.2S81,5.2,80.8,5.4c-0.2,0.2-0.3,0.5-0.3,0.8
			c-0.1,0.3-0.1,0.6-0.1,1c0,0.3,0,0.6,0.1,0.9c0.1,0.3,0.2,0.6,0.3,0.8s0.4,0.4,0.6,0.6c0.2,0.2,0.5,0.2,0.9,0.2
			c0.4,0,0.7-0.1,0.9-0.2c0.2-0.1,0.4-0.3,0.6-0.6s0.2-0.5,0.3-0.8C84.2,7.8,84.3,7.5,84.3,7.2z"/>
		<path class="st0" d="M92,7.7c0,0.7,0.2,1.2,0.5,1.5c0.3,0.3,0.8,0.5,1.4,0.5c0.4,0,0.8-0.1,1.1-0.3c0.3-0.2,0.5-0.5,0.6-0.7h1.9
			c-0.3,1-0.8,1.6-1.4,2.1s-1.4,0.6-2.3,0.6c-0.6,0-1.2-0.1-1.7-0.3c-0.5-0.2-0.9-0.5-1.3-0.9s-0.6-0.8-0.8-1.3
			c-0.2-0.5-0.3-1.1-0.3-1.7c0-0.6,0.1-1.2,0.3-1.7c0.2-0.5,0.5-1,0.8-1.3s0.8-0.7,1.3-0.9C92.7,3.1,93.3,3,93.9,3
			c0.7,0,1.3,0.1,1.8,0.4c0.5,0.3,0.9,0.6,1.2,1.1c0.3,0.4,0.6,1,0.7,1.5s0.2,1.2,0.2,1.8H92z M95.6,6.3c-0.1-0.6-0.3-1-0.5-1.3
			c-0.3-0.3-0.7-0.4-1.2-0.4c-0.4,0-0.6,0.1-0.9,0.2s-0.4,0.3-0.6,0.4c-0.1,0.2-0.2,0.4-0.3,0.6S92,6.2,92,6.3H95.6z"/>
		<path class="st0" d="M107.7,5.7c0-0.5,0.2-0.9,0.4-1.3c0.2-0.3,0.5-0.6,0.9-0.8s0.7-0.4,1.2-0.4S111,3,111.4,3
			c0.4,0,0.8,0,1.2,0.1s0.8,0.2,1.1,0.3c0.3,0.2,0.6,0.4,0.8,0.7c0.2,0.3,0.3,0.7,0.3,1.2v4.2c0,0.4,0,0.7,0.1,1s0.1,0.6,0.2,0.7
			H113c0-0.1-0.1-0.3-0.1-0.4c0-0.1,0-0.3-0.1-0.4c-0.4,0.4-0.8,0.6-1.2,0.8s-1,0.2-1.5,0.2c-0.4,0-0.7,0-1.1-0.1
			c-0.3-0.1-0.6-0.2-0.9-0.4s-0.4-0.4-0.6-0.7s-0.2-0.7-0.2-1.1c0-0.5,0.1-0.8,0.2-1.1c0.2-0.3,0.4-0.5,0.6-0.7
			c0.3-0.2,0.6-0.3,0.9-0.4s0.7-0.2,1-0.2s0.7-0.1,1-0.1s0.6-0.1,0.8-0.1c0.2-0.1,0.4-0.2,0.6-0.3s0.2-0.3,0.2-0.5
			c0-0.2,0-0.4-0.1-0.6s-0.2-0.2-0.3-0.3c-0.1-0.1-0.3-0.1-0.5-0.2c-0.2,0-0.4,0-0.5,0c-0.4,0-0.8,0.1-1,0.3
			c-0.3,0.2-0.4,0.5-0.4,0.9H107.7z M112.7,7.3c-0.1,0.1-0.2,0.1-0.3,0.2c-0.1,0-0.3,0.1-0.5,0.1s-0.3,0.1-0.5,0.1
			c-0.2,0-0.4,0-0.5,0.1c-0.2,0-0.3,0.1-0.5,0.1c-0.2,0.1-0.3,0.1-0.4,0.2s-0.2,0.2-0.3,0.3s-0.1,0.3-0.1,0.5c0,0.2,0,0.4,0.1,0.5
			c0.1,0.1,0.2,0.2,0.3,0.3c0.1,0.1,0.3,0.1,0.4,0.2c0.2,0,0.3,0,0.5,0c0.4,0,0.8-0.1,1-0.2s0.4-0.3,0.5-0.5
			c0.1-0.2,0.2-0.4,0.2-0.6s0-0.4,0-0.5V7.3z M111.7,2.2h-1.5l1.5-2.2h2.4L111.7,2.2z"/>
		<path class="st0" d="M118.8,3.2h2.1v1.1h0c0.3-0.5,0.6-0.8,1.1-1c0.4-0.2,0.9-0.3,1.4-0.3c0.6,0,1.1,0.1,1.4,0.2s0.7,0.4,0.9,0.7
			c0.2,0.3,0.4,0.6,0.5,1s0.1,0.9,0.1,1.4v4.9h-2.2V6.7c0-0.7-0.1-1.2-0.3-1.5c-0.2-0.3-0.6-0.5-1.1-0.5c-0.6,0-1,0.2-1.3,0.5
			C121.2,5.6,121,6.2,121,7v4.2h-2.2V3.2z"/>
		<path class="st0" d="M132.5,2h-2.2V0.1h2.2V2z M130.3,3.2h2.2v8h-2.2V3.2z"/>
		<path class="st0" d="M136.4,3.2h2.1v1.1h0c0.3-0.4,0.6-0.7,1-1S140.5,3,141,3c0.5,0,1,0.1,1.4,0.3c0.4,0.2,0.7,0.5,1,1
			c0.2-0.4,0.6-0.7,1-0.9c0.4-0.3,0.9-0.4,1.4-0.4c0.4,0,0.8,0.1,1.2,0.2c0.4,0.1,0.7,0.3,0.9,0.5c0.3,0.2,0.5,0.5,0.6,0.9
			c0.1,0.4,0.2,0.8,0.2,1.3v5.4h-2.2V6.7c0-0.3,0-0.5,0-0.8c0-0.2-0.1-0.4-0.2-0.6c-0.1-0.2-0.2-0.3-0.4-0.4
			c-0.2-0.1-0.4-0.2-0.7-0.2c-0.3,0-0.6,0.1-0.8,0.2c-0.2,0.1-0.3,0.3-0.5,0.5s-0.2,0.4-0.2,0.7c0,0.2-0.1,0.5-0.1,0.7v4.5h-2.2V6.7
			c0-0.2,0-0.5,0-0.7c0-0.2-0.1-0.5-0.1-0.7s-0.2-0.4-0.4-0.5c-0.2-0.1-0.4-0.2-0.8-0.2c-0.1,0-0.3,0-0.4,0.1
			c-0.2,0-0.3,0.1-0.5,0.3c-0.2,0.1-0.3,0.3-0.4,0.6c-0.1,0.2-0.2,0.6-0.2,1v4.7h-2.2V3.2z"/>
		<path class="st0" d="M152.3,7.2c0-0.6,0.1-1.2,0.3-1.7c0.2-0.5,0.5-1,0.8-1.3c0.4-0.4,0.8-0.7,1.3-0.9c0.5-0.2,1.1-0.3,1.7-0.3
			c0.6,0,1.2,0.1,1.7,0.3c0.5,0.2,0.9,0.5,1.3,0.9c0.4,0.4,0.6,0.8,0.8,1.3c0.2,0.5,0.3,1.1,0.3,1.7s-0.1,1.2-0.3,1.7
			s-0.5,1-0.8,1.3c-0.4,0.4-0.8,0.7-1.3,0.9c-0.5,0.2-1.1,0.3-1.7,0.3c-0.6,0-1.2-0.1-1.7-0.3c-0.5-0.2-0.9-0.5-1.3-0.9
			c-0.4-0.4-0.6-0.8-0.8-1.3C152.4,8.4,152.3,7.9,152.3,7.2z M154.5,7.2c0,0.3,0,0.6,0.1,0.9c0.1,0.3,0.2,0.6,0.3,0.8
			s0.3,0.4,0.6,0.6c0.2,0.1,0.6,0.2,0.9,0.2s0.7-0.1,0.9-0.2c0.3-0.1,0.5-0.3,0.6-0.6c0.2-0.2,0.3-0.5,0.3-0.8
			c0.1-0.3,0.1-0.6,0.1-0.9s0-0.6-0.1-0.9c-0.1-0.3-0.2-0.6-0.3-0.8c-0.1-0.2-0.4-0.4-0.6-0.6c-0.3-0.2-0.6-0.2-0.9-0.2
			s-0.7,0.1-0.9,0.2c-0.2,0.1-0.4,0.3-0.6,0.6c-0.1,0.2-0.3,0.5-0.3,0.8C154.6,6.6,154.5,6.9,154.5,7.2z"/>
	</g>
</g>
</svg>
