<!-- Generator: Adobe Illustrator 20.1.0, SVG Export Plug-In  -->
<svg version="1.1"
	 xmlns="http://www.w3.org/2000/svg" xmlns:xlink="http://www.w3.org/1999/xlink" xmlns:a="http://ns.adobe.com/AdobeSVGViewerExtensions/3.0/"
	 x="0px" y="0px" width="44.4px" height="37.8px" viewBox="0 0 44.4 37.8"
	 style="overflow:scroll;enable-background:new 0 0 44.4 37.8;" xml:space="preserve">
<style type="text/css">
	.st0{fill:#FFFFFF;}
</style>
<defs>
</defs>
<g id="XMLID_1_">
	<path id="XMLID_2_" class="st0" d="M2.4,37.4c-0.1,0-0.1-0.1-0.2-0.2C2.1,37.2,2.1,37.1,2,37c-0.1-0.1-0.2-0.2-0.2-0.2
		c-0.1-0.2-0.2-0.4-0.3-0.6c-0.7-1.6-1.4-3.3-1.4-5.2c0-0.3,0-0.6,0-0.9C0,29.5,0,29,0,28.5c0.4-3.1,2.2-5.4,5.2-7.1
		c0.8-0.4,1.9-1,3.1-1.3c1.4-0.3,2.7-0.4,3.9-0.2c0.4,0.1,0.7,0.1,1.1,0.3c0.5,0.1,0.9,0.3,1.3,0.5c0.2,0.1,0.4,0.2,0.7,0.3
		c0.1,0,0.1,0.1,0.2,0.1c0.2,0.1,0.4,0.2,0.7,0.2c0,0,0.1,0,0.1,0c0,0,0.1,0,0.1,0l0.4,0.1c0,0,0,0,0.1,0l0.3,0.1c0,0,0.1,0,0.2,0.1
		c0,0,0.1,0,0.1,0c0.1,0,0.1,0,0.2,0.1c0,0,0.1,0,0.1,0c0.1,0,0.2,0.1,0.2,0.1l0.1,0c0.2,0.1,0.4,0.2,0.7,0.4
		c0.2,0.2,0.5,0.4,0.7,0.6c0.1,0.1,0.2,0.1,0.2,0.2c0,0,0.1,0.1,0.1,0.1c0,0,0.1,0.1,0.1,0.1c0.1,0.1,0.2,0.2,0.2,0.3
		c0.2,0.2,0.4,0.5,0.6,0.8c0.2,0.3,0.4,0.7,0.5,0.9c0.1,0.3,0.3,0.6,0.4,0.9c0.1,0.4,0.2,0.6,0.3,0.9c0,0.1,0.1,0.2,0.1,0.3
		c0,0,0,0.1,0,0.1c0,0,0,0.1,0,0.1c0,0.1,0,0.2,0.1,0.3c0.1,0.3,0.1,0.5,0.1,0.7c0,0.1,0,0.2,0,0.3l0,0c0,0.1,0,0.2,0,0.2
		c0,0.2,0,0.3,0,0.4l0,0.1c0,0.1,0.1,0.1,0.1,0.1c0,0,0,0,0,0c0,0,0.1,0,0.1,0c0,0,0-0.1,0-0.1l0-0.1c0-0.1,0-0.2,0-0.4
		c0-0.1,0-0.2,0-0.2l0,0c0-0.1,0-0.2,0-0.3c0-0.2,0-0.5-0.1-0.7c0-0.1,0-0.2,0-0.3c0-0.1,0-0.1,0-0.2c0-0.1,0-0.1,0-0.2
		c0-0.1,0-0.2-0.1-0.3c-0.1-0.3-0.1-0.6-0.3-1c-0.1-0.4-0.2-0.7-0.4-1c-0.1-0.3-0.3-0.6-0.5-1c-0.2-0.4-0.4-0.7-0.6-1
		c-0.1-0.1-0.2-0.2-0.2-0.3c0,0-0.1-0.1-0.1-0.1c0,0-0.1-0.1-0.1-0.1c-0.1-0.1-0.2-0.2-0.2-0.3c-0.2-0.3-0.5-0.5-0.7-0.7
		c-0.3-0.2-0.5-0.4-0.8-0.6l-0.1,0c-0.1,0-0.2-0.1-0.2-0.1c0.1-0.1,0.1-0.1,0.1-0.2c0.8-1,1.6-2.2,2.5-3.4c1.2-1.7,2-3.2,2.5-4.8
		c0,0,0,0,0,0l0.1-0.2c0,0,0-0.1,0.1-0.1l0.2-0.3l0.1-0.2c0,0,0,0,0.1-0.1c0,0,0.1-0.1,0.1-0.1l0.2-0.2c0-0.1,0.1-0.1,0.1-0.2l0,0
		c0,0,0-0.1,0.1-0.1c0,0,0.1-0.1,0.1-0.1l0.2-0.2c0,0,0.1-0.1,0.2-0.1c0,0,0.1,0,0.1-0.1l0,0c0,0,0.1,0,0.1-0.1l0.1-0.1
		c0,0,0.1,0,0.1-0.1c0.1,0,0.1-0.1,0.2-0.1l0.3-0.2c0.1,0,0.1-0.1,0.2-0.1c0,0,0.1,0,0.1-0.1c0.1,0,0.2-0.1,0.3-0.1l0,0
		c0,0,0.1,0,0.1,0c0.1,0,0.1-0.1,0.2-0.1l0.3-0.1c0.1,0,0.1,0,0.2-0.1c0,0,0.1,0,0.1,0c0,0,0.1,0,0.1,0c0.1,0,0.1,0,0.2,0l0.3,0
		c0.1,0,0.2,0,0.3,0c0,0,0.1,0,0.1,0c0,0,0,0,0.1,0c0,0,0.1,0,0.1,0l0.5,0C28.9,9.1,29,9.1,29,9c0-0.1,0-0.1-0.1-0.1c0,0,0,0,0,0
		l-0.5,0c0,0-0.1,0-0.1,0l-0.1,0c0,0-0.1,0-0.1,0c-0.1,0-0.2,0-0.4,0l-0.3,0c-0.1,0-0.1,0-0.2,0c0,0-0.1,0-0.1,0c0,0-0.1,0-0.1,0
		c-0.1,0-0.1,0-0.2,0l-0.3,0.1c-0.1,0-0.1,0-0.2,0.1c0,0-0.1,0-0.1,0l0,0c-0.1,0-0.2,0.1-0.3,0.1c0,0-0.1,0-0.1,0
		c-0.1,0-0.1,0.1-0.2,0.1l-0.3,0.2c-0.1,0-0.1,0.1-0.2,0.1c0,0-0.1,0-0.1,0.1l-0.2,0.1c0,0-0.1,0-0.1,0.1l0,0c0,0-0.1,0-0.1,0.1
		c-0.1,0-0.1,0.1-0.2,0.1l-0.3,0.2c-0.1,0-0.1,0.1-0.2,0.1c0,0-0.1,0.1-0.1,0.1l0,0c-0.1,0.1-0.1,0.1-0.2,0.2L23.4,11
		c0,0-0.1,0.1-0.1,0.1c0,0,0,0-0.1,0.1l0,0.1c-0.3-0.7-0.6-1.3-0.9-2C22.2,9.1,22.1,9,22,8.8c-1.2-2.7-1.8-5-1.8-7.3
		c0-0.3,0-0.7,0-1c0-0.1,0-0.3,0-0.4l3-0.1c0.1,0.3,0.2,0.7,0.4,1c0.3,0.9,0.7,1.9,1.1,2.8c0.1,0.2,0.2,0.4,0.3,0.6
		c0.1,0.1,0.2,0.3,0.3,0.5c0.2,0.6,0.6,0.9,1.1,1c0.3,0,0.6,0,0.9-0.1c1.2-0.3,2.4-0.6,3.5-1c0.9-0.3,1.9-0.3,3.1-0.2
		c0.4,0,1.1,0.1,2.4,0.4c0.4,0.1,1.1,0.4,1.4,0.6C38.6,6,39.2,6.3,40,6.8c0.5,0.3,1.1,0.8,1.5,1.2c0.2,0.2,0.5,0.5,0.7,0.7
		c1.3,1.3,1.7,2.7,2,4.4c0.3,1.8,0.1,3.6-0.6,5.9c-0.3,0.9-0.7,1.8-1.1,2.6c-0.3,0.6-0.6,1.3-0.9,2c-0.8,2-2,3.9-3.8,6
		c-1,1.1-2.2,2.2-3.5,3.2c-1.3,1-2.9,2-4.9,3.2c-1.3,0.8-2.9,1.3-5,1.6c-1.6,0.3-3.4,0.2-5.3-0.1c-0.4-0.1-0.9-0.2-1.4-0.3
		c-2.3-0.5-4.1-1.4-5.6-2.7c-1-0.9-1.8-2-2.4-3.4c-0.6-1.3-1.1-2.7-1.6-4.3c-0.1-0.3-0.3-0.5-0.5-0.5c-0.1,0-0.2,0-0.4,0
		c-0.8,0.1-1.3,0.7-1.8,1.2c-0.1,0.1-0.2,0.2-0.3,0.3c-0.8,0.8-1.3,1.8-1.5,2.9c-0.2,1.1,0.1,2.2,0.8,3.3l0,0c0.3,0.5,0.5,0.8,0.5,1
		c0,0.2-0.3,0.4-0.7,0.7l0,0c-0.4,0.4-0.9,0.7-1.3,1.1c-0.1,0.1-0.3,0.2-0.4,0.3C2.6,37.4,2.5,37.4,2.4,37.4z"/>
</g>
</svg>
