<!-- Generator: Adobe Illustrator 20.1.0, SVG Export Plug-In  -->
<svg version="1.1"
	 xmlns="http://www.w3.org/2000/svg" xmlns:xlink="http://www.w3.org/1999/xlink" xmlns:a="http://ns.adobe.com/AdobeSVGViewerExtensions/3.0/"
	 x="0px" y="0px" width="113.4px" height="16.4px" viewBox="0 0 113.4 16.4"
	 style="overflow:scroll;enable-background:new 0 0 113.4 16.4;" xml:space="preserve">
<style type="text/css">
	.st0{fill:#F18A21;}
</style>
<defs>
</defs>
<g>
	<path class="st0" d="M0,0.8h4.7l3.6,10.5h0l3.4-10.5h4.7v15.3h-3.2V5.2h0L9.6,16.1H7L3.2,5.3h0v10.8H0V0.8z"/>
	<path class="st0" d="M22.1,11.3c0,1,0.3,1.7,0.8,2.1s1.1,0.7,2,0.7c0.6,0,1.1-0.2,1.6-0.5c0.4-0.3,0.7-0.6,0.8-1h2.7
		c-0.4,1.3-1.1,2.3-2,2.9s-2,0.9-3.2,0.9c-0.9,0-1.7-0.1-2.4-0.4c-0.7-0.3-1.3-0.7-1.8-1.2c-0.5-0.5-0.9-1.1-1.1-1.8
		c-0.3-0.7-0.4-1.5-0.4-2.4c0-0.8,0.1-1.6,0.4-2.3c0.3-0.7,0.7-1.3,1.2-1.9c0.5-0.5,1.1-0.9,1.8-1.2s1.5-0.5,2.3-0.5
		c0.9,0,1.8,0.2,2.5,0.5c0.7,0.4,1.3,0.9,1.7,1.5c0.5,0.6,0.8,1.3,1,2.1c0.2,0.8,0.3,1.6,0.2,2.5H22.1z M27.1,9.3
		c-0.1-0.8-0.4-1.4-0.8-1.8C25.9,7.2,25.4,7,24.6,7c-0.5,0-0.9,0.1-1.2,0.2c-0.3,0.2-0.6,0.4-0.8,0.6s-0.3,0.5-0.4,0.8
		c-0.1,0.3-0.1,0.5-0.1,0.7H27.1z"/>
	<path class="st0" d="M32.3,5h2.9v1.5h0.1c0.4-0.6,0.9-1.1,1.5-1.4c0.6-0.3,1.2-0.5,1.9-0.5c0.8,0,1.5,0.1,2,0.3s0.9,0.5,1.2,0.9
		s0.5,0.9,0.6,1.4c0.1,0.6,0.2,1.2,0.2,1.9v6.8h-3V9.8c0-0.9-0.1-1.6-0.4-2.1c-0.3-0.5-0.8-0.7-1.5-0.7c-0.8,0-1.4,0.2-1.8,0.7
		s-0.6,1.3-0.6,2.4v5.8h-3V5z"/>
	<path class="st0" d="M49.4,5h2.2v2h-2.2v5.5c0,0.5,0.1,0.9,0.3,1s0.5,0.3,1,0.3c0.3,0,0.7,0,0.9-0.1v2.4c-0.3,0-0.5,0.1-0.9,0.1
		c-0.3,0-0.6,0-0.9,0c-0.5,0-0.9,0-1.3-0.1c-0.4-0.1-0.8-0.2-1.1-0.4s-0.6-0.5-0.8-0.8c-0.2-0.3-0.3-0.8-0.3-1.4V7h-1.8V5h1.8V1.7h3
		V5z"/>
	<path class="st0" d="M53.4,8.4c0-0.7,0.2-1.3,0.5-1.8c0.3-0.5,0.7-0.9,1.2-1.1c0.5-0.3,1-0.5,1.6-0.6c0.6-0.1,1.2-0.2,1.8-0.2
		c0.6,0,1.1,0,1.7,0.1c0.6,0.1,1.1,0.2,1.6,0.5c0.5,0.2,0.9,0.6,1.2,1c0.3,0.4,0.5,1,0.5,1.6v5.8c0,0.5,0,1,0.1,1.4
		c0.1,0.5,0.2,0.8,0.3,1h-3.1c-0.1-0.2-0.1-0.3-0.1-0.5c0-0.2-0.1-0.4-0.1-0.5c-0.5,0.5-1.1,0.9-1.7,1.1c-0.7,0.2-1.3,0.3-2,0.3
		c-0.5,0-1-0.1-1.5-0.2c-0.5-0.1-0.9-0.3-1.2-0.6c-0.3-0.3-0.6-0.6-0.8-1c-0.2-0.4-0.3-0.9-0.3-1.5c0-0.6,0.1-1.1,0.3-1.6
		c0.2-0.4,0.5-0.7,0.9-1c0.4-0.2,0.8-0.4,1.2-0.5c0.5-0.1,0.9-0.2,1.4-0.3c0.5-0.1,0.9-0.1,1.4-0.2s0.8-0.1,1.1-0.2
		c0.3-0.1,0.6-0.2,0.8-0.4c0.2-0.2,0.3-0.4,0.3-0.7c0-0.3-0.1-0.6-0.2-0.8S60,7.1,59.8,7s-0.4-0.2-0.6-0.2c-0.2,0-0.5-0.1-0.8-0.1
		c-0.6,0-1.1,0.1-1.4,0.4s-0.6,0.7-0.6,1.3H53.4z M60.4,10.7c-0.1,0.1-0.3,0.2-0.5,0.3s-0.4,0.1-0.6,0.2s-0.5,0.1-0.7,0.1
		c-0.3,0-0.5,0.1-0.7,0.1c-0.2,0-0.5,0.1-0.7,0.2c-0.2,0.1-0.4,0.2-0.6,0.3c-0.2,0.1-0.3,0.3-0.4,0.5c-0.1,0.2-0.2,0.4-0.2,0.7
		c0,0.3,0.1,0.5,0.2,0.7c0.1,0.2,0.2,0.3,0.4,0.4s0.4,0.2,0.6,0.2c0.2,0,0.5,0.1,0.7,0.1c0.6,0,1.1-0.1,1.4-0.3s0.6-0.4,0.7-0.7
		c0.2-0.3,0.3-0.6,0.3-0.8c0-0.3,0.1-0.5,0.1-0.7V10.7z"/>
	<path class="st0" d="M66.3,0.8h3v15.3h-3V0.8z"/>
	<path class="st0" d="M74.7,11.3c0,1,0.3,1.7,0.8,2.1s1.1,0.7,2,0.7c0.6,0,1.1-0.2,1.6-0.5c0.4-0.3,0.7-0.6,0.8-1h2.7
		c-0.4,1.3-1.1,2.3-2,2.9s-2,0.9-3.2,0.9c-0.9,0-1.7-0.1-2.4-0.4c-0.7-0.3-1.3-0.7-1.8-1.2c-0.5-0.5-0.9-1.1-1.1-1.8
		c-0.3-0.7-0.4-1.5-0.4-2.4c0-0.8,0.1-1.6,0.4-2.3c0.3-0.7,0.7-1.3,1.2-1.9c0.5-0.5,1.1-0.9,1.8-1.2s1.5-0.5,2.3-0.5
		c0.9,0,1.8,0.2,2.5,0.5c0.7,0.4,1.3,0.9,1.7,1.5c0.5,0.6,0.8,1.3,1,2.1c0.2,0.8,0.3,1.6,0.2,2.5H74.7z M79.7,9.3
		c-0.1-0.8-0.4-1.4-0.8-1.8C78.6,7.2,78,7,77.3,7c-0.5,0-0.9,0.1-1.2,0.2c-0.3,0.2-0.6,0.4-0.8,0.6S75,8.3,74.9,8.6
		c-0.1,0.3-0.1,0.5-0.1,0.7H79.7z"/>
	<path class="st0" d="M87.3,12.5c0,0.3,0.1,0.6,0.2,0.8c0.1,0.2,0.3,0.4,0.5,0.6s0.5,0.3,0.7,0.3c0.3,0.1,0.6,0.1,0.9,0.1
		c0.2,0,0.4,0,0.7-0.1c0.2-0.1,0.5-0.1,0.6-0.2s0.4-0.3,0.5-0.4c0.1-0.2,0.2-0.4,0.2-0.7c0-0.2-0.1-0.4-0.2-0.6
		c-0.2-0.2-0.4-0.3-0.7-0.4c-0.3-0.1-0.7-0.2-1.1-0.4s-0.9-0.2-1.5-0.3c-0.4-0.1-0.9-0.2-1.3-0.4s-0.8-0.3-1.1-0.5
		c-0.3-0.2-0.6-0.5-0.8-0.8c-0.2-0.3-0.3-0.7-0.3-1.2c0-0.7,0.1-1.3,0.4-1.8c0.3-0.5,0.6-0.8,1.1-1.1s1-0.5,1.5-0.6
		c0.6-0.1,1.2-0.2,1.8-0.2s1.2,0.1,1.8,0.2c0.6,0.1,1.1,0.3,1.5,0.6c0.4,0.3,0.8,0.6,1.1,1.1c0.3,0.5,0.5,1,0.5,1.7h-2.9
		c0-0.6-0.3-1-0.7-1.2c-0.4-0.2-0.9-0.3-1.4-0.3c-0.2,0-0.4,0-0.6,0c-0.2,0-0.4,0.1-0.5,0.1C88.2,7,88,7.1,87.9,7.2
		c-0.1,0.1-0.2,0.3-0.2,0.5c0,0.3,0.1,0.5,0.3,0.7c0.2,0.2,0.5,0.3,0.8,0.4C89.2,9,89.5,9,89.9,9.1c0.4,0.1,0.8,0.2,1.3,0.3
		c0.4,0.1,0.9,0.2,1.3,0.4c0.4,0.1,0.8,0.3,1.1,0.6c0.3,0.2,0.6,0.5,0.8,0.9c0.2,0.4,0.3,0.8,0.3,1.3c0,0.7-0.1,1.3-0.4,1.8
		c-0.3,0.5-0.7,0.9-1.1,1.2s-1,0.5-1.6,0.6c-0.6,0.1-1.2,0.2-1.9,0.2c-0.6,0-1.3-0.1-1.9-0.2c-0.6-0.1-1.2-0.3-1.6-0.7
		c-0.5-0.3-0.9-0.7-1.2-1.2c-0.3-0.5-0.5-1.1-0.5-1.8H87.3z"/>
	<path class="st0" d="M102,1.6h-3.6l-0.4,2l0,0c0.2-0.2,0.5-0.4,0.8-0.5S99.5,3,99.8,3c0.4,0,0.8,0.1,1.2,0.2
		c0.3,0.2,0.6,0.4,0.8,0.6c0.2,0.3,0.4,0.6,0.5,0.9c0.1,0.4,0.2,0.8,0.2,1.2c0,0.5-0.1,0.9-0.3,1.3c-0.2,0.4-0.4,0.7-0.7,1
		c-0.3,0.3-0.6,0.5-1,0.7c-0.4,0.2-0.8,0.2-1.3,0.2c-0.4,0-0.8-0.1-1.2-0.2c-0.4-0.1-0.7-0.3-1-0.5c-0.3-0.2-0.5-0.5-0.7-0.9
		C96.1,7.2,96,6.8,96,6.3h1.8c0,0.4,0.2,0.7,0.5,1s0.6,0.4,1,0.4c0.2,0,0.4,0,0.6-0.1c0.2-0.1,0.3-0.2,0.5-0.4
		c0.1-0.2,0.2-0.3,0.3-0.5c0.1-0.2,0.1-0.4,0.1-0.6c0-0.2,0-0.4-0.1-0.6c-0.1-0.2-0.2-0.4-0.3-0.5c-0.1-0.2-0.3-0.3-0.5-0.4
		c-0.2-0.1-0.4-0.1-0.6-0.1c-0.3,0-0.6,0.1-0.8,0.2S98.1,4.8,97.9,5h-1.6l0.9-4.8h4.9V1.6z"/>
	<path class="st0" d="M103.8,7h2v1.9c0,0.3-0.1,0.6-0.2,0.8c-0.1,0.2-0.2,0.4-0.4,0.6c-0.2,0.2-0.4,0.3-0.6,0.4
		c-0.2,0.1-0.5,0.2-0.8,0.2v-0.9c0.1,0,0.3-0.1,0.4-0.1c0.1-0.1,0.2-0.2,0.3-0.3c0.1-0.1,0.1-0.2,0.2-0.4c0-0.1,0.1-0.3,0-0.4h-0.9
		V7z"/>
	<path class="st0" d="M111.6,2.4c-0.1-0.3-0.2-0.5-0.4-0.8s-0.5-0.3-0.8-0.3c-0.3,0-0.6,0.1-0.8,0.3c-0.2,0.2-0.4,0.4-0.5,0.7
		s-0.2,0.6-0.3,0.9c-0.1,0.3-0.1,0.6-0.1,0.8l0,0c0.2-0.4,0.5-0.6,0.9-0.8c0.3-0.2,0.7-0.2,1.1-0.2c0.4,0,0.7,0.1,1.1,0.2
		c0.4,0.2,0.7,0.4,0.9,0.7c0.2,0.3,0.4,0.6,0.5,0.9c0.1,0.3,0.2,0.7,0.2,1c0,0.5-0.1,0.9-0.2,1.3c-0.1,0.4-0.4,0.7-0.6,1
		c-0.3,0.3-0.6,0.5-1,0.7c-0.4,0.2-0.8,0.3-1.3,0.3c-0.7,0-1.2-0.1-1.6-0.4c-0.4-0.3-0.8-0.6-1-1c-0.3-0.4-0.4-0.9-0.5-1.5
		C107,5.7,107,5.1,107,4.6c0-0.5,0.1-1.1,0.2-1.6c0.1-0.5,0.3-1,0.6-1.5s0.6-0.8,1.1-1.1c0.4-0.3,1-0.4,1.6-0.4
		c0.8,0,1.4,0.2,1.9,0.6s0.8,1,0.9,1.8H111.6z M110.3,4.4c-0.2,0-0.5,0-0.6,0.1c-0.2,0.1-0.3,0.2-0.4,0.4C109.1,5,109,5.2,109,5.4
		c-0.1,0.2-0.1,0.4-0.1,0.6c0,0.2,0,0.4,0.1,0.6s0.2,0.4,0.3,0.5s0.3,0.3,0.4,0.4c0.2,0.1,0.4,0.1,0.6,0.1c0.2,0,0.4,0,0.6-0.1
		c0.2-0.1,0.3-0.2,0.4-0.4c0.1-0.2,0.2-0.3,0.3-0.5s0.1-0.4,0.1-0.6c0-0.2,0-0.4-0.1-0.6c-0.1-0.2-0.1-0.4-0.2-0.5s-0.2-0.3-0.4-0.4
		C110.7,4.4,110.5,4.4,110.3,4.4z"/>
</g>
</svg>
