<!-- Generator: Adobe Illustrator 20.1.0, SVG Export Plug-In  -->
<svg version="1.1"
	 xmlns="http://www.w3.org/2000/svg" xmlns:xlink="http://www.w3.org/1999/xlink" xmlns:a="http://ns.adobe.com/AdobeSVGViewerExtensions/3.0/"
	 x="0px" y="0px" width="195px" height="15px" viewBox="0 0 195 15" style="overflow:scroll;enable-background:new 0 0 195 15;"
	 xml:space="preserve">
<style type="text/css">
	.st0{fill:#FFFFFF;}
</style>
<defs>
</defs>
<g>
	<path class="st0" d="M3,9.9c0,0.5,0.1,0.9,0.3,1.2c0.2,0.3,0.4,0.6,0.7,0.8c0.3,0.2,0.6,0.4,1,0.5s0.8,0.2,1.2,0.2
		c0.3,0,0.6,0,0.9-0.1c0.3,0,0.6-0.1,0.9-0.3c0.3-0.1,0.5-0.3,0.7-0.5C8.9,11.4,9,11.1,9,10.7c0-0.4-0.1-0.7-0.4-0.9
		C8.4,9.6,8,9.4,7.6,9.2C7.2,9,6.8,8.9,6.3,8.8s-1-0.2-1.5-0.4C4.2,8.2,3.7,8.1,3.2,7.9c-0.5-0.2-1-0.4-1.4-0.8
		C1.4,6.8,1.1,6.5,0.9,6C0.6,5.5,0.5,5,0.5,4.3C0.5,3.6,0.6,3,1,2.4s0.7-1,1.2-1.3c0.5-0.4,1.1-0.6,1.7-0.8C4.5,0.1,5.2,0,5.8,0
		C6.6,0,7.3,0.1,8,0.3c0.7,0.2,1.3,0.4,1.8,0.8c0.5,0.4,1,0.8,1.3,1.4s0.5,1.3,0.5,2.1h-3c0-0.4-0.1-0.8-0.3-1.1S7.9,3,7.6,2.9
		S7.1,2.6,6.7,2.5C6.4,2.5,6.1,2.4,5.7,2.4c-0.3,0-0.5,0-0.8,0.1C4.7,2.6,4.4,2.7,4.2,2.8C4,2.9,3.9,3.1,3.7,3.3
		C3.6,3.5,3.5,3.8,3.5,4.1c0,0.3,0.1,0.5,0.2,0.7C3.8,4.9,4,5.1,4.3,5.2c0.3,0.1,0.7,0.3,1.3,0.4C6.2,5.8,6.9,6,7.8,6.2
		c0.2,0,0.4,0.1,0.7,0.2C8.7,6.5,9,6.6,9.4,6.7C9.7,6.8,10,7,10.3,7.2c0.3,0.2,0.6,0.4,0.9,0.7c0.3,0.3,0.5,0.6,0.6,1
		c0.2,0.4,0.2,0.9,0.2,1.4c0,0.7-0.1,1.3-0.4,1.8c-0.3,0.6-0.6,1-1.1,1.5c-0.5,0.4-1.1,0.7-1.9,1C7.9,14.8,7.1,15,6.1,15
		c-0.8,0-1.5-0.1-2.3-0.3s-1.4-0.5-2-0.9c-0.6-0.4-1-0.9-1.3-1.6S0,10.8,0,9.9H3z"/>
	<path class="st0" d="M16,3h-2l1.9-2.8H19L16,3z M14.1,4.3h2.8v10.3h-2.8V4.3z"/>
	<path class="st0" d="M19.5,4.3h2.7v1.4h0.1c0.4-0.6,0.8-1,1.4-1.3C24.3,4.1,24.9,4,25.5,4c0.8,0,1.4,0.1,1.9,0.3
		c0.5,0.2,0.9,0.5,1.1,0.9C28.8,5.5,29,6,29.1,6.5c0.1,0.5,0.2,1.1,0.2,1.8v6.4h-2.8V8.8c0-0.9-0.1-1.5-0.4-1.9s-0.7-0.6-1.4-0.6
		c-0.8,0-1.3,0.2-1.7,0.7s-0.5,1.2-0.5,2.3v5.4h-2.8V4.3z"/>
	<path class="st0" d="M35.4,4.3h2.1v1.9h-2.1v5.1c0,0.5,0.1,0.8,0.2,1c0.2,0.2,0.5,0.2,1,0.2c0.3,0,0.6,0,0.9-0.1v2.2
		c-0.2,0-0.5,0.1-0.8,0.1c-0.3,0-0.6,0-0.9,0c-0.4,0-0.9,0-1.3-0.1c-0.4-0.1-0.7-0.2-1-0.4s-0.5-0.4-0.7-0.8s-0.3-0.7-0.3-1.3V6.2
		h-1.7V4.3h1.7V1.2h2.8V4.3z"/>
	<path class="st0" d="M38.9,9.5c0-0.8,0.1-1.6,0.4-2.3c0.3-0.7,0.6-1.2,1.1-1.7c0.5-0.5,1-0.8,1.7-1.1C42.7,4.1,43.4,4,44.3,4
		c0.8,0,1.5,0.1,2.2,0.4c0.7,0.3,1.2,0.6,1.7,1.1s0.8,1,1.1,1.7c0.3,0.7,0.4,1.4,0.4,2.3c0,0.8-0.1,1.6-0.4,2.2s-0.6,1.2-1.1,1.7
		s-1,0.8-1.7,1.1c-0.7,0.3-1.4,0.4-2.2,0.4c-0.8,0-1.5-0.1-2.2-0.4c-0.7-0.3-1.2-0.6-1.7-1.1c-0.5-0.5-0.8-1-1.1-1.7
		C39,11,38.9,10.3,38.9,9.5z M41.8,9.5c0,0.4,0,0.8,0.1,1.2c0.1,0.4,0.2,0.7,0.4,1.1s0.5,0.6,0.8,0.8s0.7,0.3,1.2,0.3
		c0.5,0,0.9-0.1,1.2-0.3c0.3-0.2,0.6-0.4,0.8-0.8s0.3-0.7,0.4-1.1c0.1-0.4,0.1-0.8,0.1-1.2c0-0.4,0-0.8-0.1-1.2
		c-0.1-0.4-0.2-0.8-0.4-1.1c-0.2-0.3-0.5-0.6-0.8-0.8c-0.3-0.2-0.7-0.3-1.2-0.3c-0.5,0-0.9,0.1-1.2,0.3c-0.3,0.2-0.6,0.4-0.8,0.8
		c-0.2,0.3-0.3,0.7-0.4,1.1C41.8,8.6,41.8,9,41.8,9.5z"/>
	<path class="st0" d="M51.9,4.3h2.7v1.4h0C55,5.1,55.5,4.7,56,4.4S57.1,4,57.8,4c0.7,0,1.3,0.1,1.8,0.4c0.5,0.3,0.9,0.7,1.2,1.3
		c0.3-0.5,0.7-0.9,1.3-1.2S63.2,4,64,4c0.5,0,1.1,0.1,1.5,0.2c0.5,0.1,0.9,0.3,1.2,0.6C67,5.1,67.3,5.5,67.5,6s0.3,1,0.3,1.7v6.9
		h-2.8V8.8c0-0.3,0-0.7,0-1c0-0.3-0.1-0.6-0.2-0.8c-0.1-0.2-0.3-0.4-0.5-0.5c-0.2-0.1-0.6-0.2-1-0.2c-0.4,0-0.7,0.1-1,0.2
		c-0.2,0.2-0.4,0.4-0.6,0.6c-0.1,0.2-0.2,0.5-0.3,0.8s-0.1,0.6-0.1,1v5.8h-2.8V8.8c0-0.3,0-0.6,0-0.9c0-0.3-0.1-0.6-0.2-0.8
		c-0.1-0.3-0.3-0.5-0.5-0.6c-0.2-0.2-0.6-0.2-1-0.2c-0.1,0-0.3,0-0.5,0.1c-0.2,0.1-0.4,0.2-0.6,0.3c-0.2,0.2-0.4,0.4-0.5,0.7
		c-0.1,0.3-0.2,0.7-0.2,1.2v6h-2.8V4.3z"/>
	<path class="st0" d="M70.3,7.5c0-0.7,0.2-1.2,0.5-1.7c0.3-0.4,0.7-0.8,1.1-1.1s1-0.5,1.5-0.6C74,4.1,74.5,4,75.1,4
		c0.5,0,1,0,1.6,0.1s1,0.2,1.5,0.4c0.4,0.2,0.8,0.5,1.1,0.9s0.4,0.9,0.4,1.5v5.4c0,0.5,0,0.9,0.1,1.3c0.1,0.4,0.1,0.7,0.3,1h-2.9
		c-0.1-0.2-0.1-0.3-0.1-0.5c0-0.2-0.1-0.3-0.1-0.5c-0.5,0.5-1,0.8-1.6,1s-1.2,0.3-1.9,0.3c-0.5,0-1-0.1-1.4-0.2
		c-0.4-0.1-0.8-0.3-1.1-0.6c-0.3-0.3-0.6-0.6-0.8-1c-0.2-0.4-0.3-0.8-0.3-1.4c0-0.6,0.1-1.1,0.3-1.4c0.2-0.4,0.5-0.7,0.8-0.9
		s0.7-0.4,1.1-0.5c0.4-0.1,0.9-0.2,1.3-0.3c0.4-0.1,0.9-0.1,1.3-0.2c0.4,0,0.8-0.1,1.1-0.2s0.6-0.2,0.8-0.4c0.2-0.2,0.3-0.4,0.3-0.7
		c0-0.3,0-0.5-0.2-0.7c-0.1-0.2-0.2-0.3-0.4-0.4C76.1,6,75.9,6,75.7,6c-0.2,0-0.5,0-0.7,0c-0.5,0-1,0.1-1.3,0.4
		c-0.3,0.2-0.5,0.6-0.6,1.2H70.3z M76.8,9.6c-0.1,0.1-0.3,0.2-0.5,0.3C76.2,9.9,76,9.9,75.8,10s-0.4,0.1-0.7,0.1
		c-0.2,0-0.5,0.1-0.7,0.1c-0.2,0-0.4,0.1-0.6,0.2s-0.4,0.2-0.5,0.3S73,10.9,72.9,11c-0.1,0.2-0.1,0.4-0.1,0.6c0,0.3,0,0.5,0.1,0.7
		c0.1,0.2,0.2,0.3,0.4,0.4c0.2,0.1,0.3,0.2,0.6,0.2c0.2,0,0.4,0.1,0.7,0.1c0.6,0,1-0.1,1.3-0.3c0.3-0.2,0.5-0.4,0.7-0.7
		c0.1-0.3,0.2-0.5,0.3-0.8c0-0.3,0-0.5,0-0.6V9.6z"/>
	<path class="st0" d="M84.5,11.3c0,0.3,0.1,0.6,0.2,0.8c0.1,0.2,0.3,0.4,0.5,0.5c0.2,0.1,0.4,0.2,0.7,0.3s0.5,0.1,0.8,0.1
		c0.2,0,0.4,0,0.6-0.1c0.2,0,0.4-0.1,0.6-0.2c0.2-0.1,0.3-0.2,0.5-0.4c0.1-0.2,0.2-0.4,0.2-0.6c0-0.2-0.1-0.4-0.2-0.5
		c-0.1-0.2-0.4-0.3-0.6-0.4c-0.3-0.1-0.6-0.2-1-0.3c-0.4-0.1-0.9-0.2-1.4-0.3c-0.4-0.1-0.8-0.2-1.2-0.3c-0.4-0.1-0.7-0.3-1.1-0.5
		c-0.3-0.2-0.6-0.5-0.7-0.8C82.1,8.2,82,7.8,82,7.3c0-0.7,0.1-1.2,0.4-1.6c0.3-0.4,0.6-0.8,1-1c0.4-0.2,0.9-0.4,1.4-0.5
		C85.4,4,85.9,4,86.5,4c0.6,0,1.1,0.1,1.6,0.2s1,0.3,1.4,0.5s0.8,0.6,1,1c0.3,0.4,0.4,1,0.5,1.6h-2.7c0-0.5-0.2-0.9-0.6-1.1
		c-0.4-0.2-0.8-0.3-1.3-0.3c-0.2,0-0.3,0-0.5,0c-0.2,0-0.4,0.1-0.5,0.1c-0.2,0.1-0.3,0.2-0.4,0.3c-0.1,0.1-0.2,0.3-0.2,0.5
		c0,0.3,0.1,0.5,0.3,0.6c0.2,0.2,0.4,0.3,0.7,0.4c0.3,0.1,0.6,0.2,1,0.3c0.4,0.1,0.8,0.2,1.2,0.3c0.4,0.1,0.8,0.2,1.2,0.3
		C89.7,8.9,90,9,90.3,9.3c0.3,0.2,0.6,0.5,0.7,0.8c0.2,0.3,0.3,0.7,0.3,1.2c0,0.7-0.1,1.3-0.4,1.7s-0.6,0.8-1.1,1.1
		c-0.4,0.3-0.9,0.5-1.5,0.6c-0.6,0.1-1.1,0.2-1.7,0.2c-0.6,0-1.2-0.1-1.8-0.2c-0.6-0.1-1.1-0.3-1.5-0.6c-0.4-0.3-0.8-0.7-1.1-1.1
		c-0.3-0.5-0.4-1-0.5-1.7H84.5z"/>
	<path class="st0" d="M106.7,13.3L106.7,13.3c-0.4,0.6-0.8,1-1.4,1.2c-0.5,0.3-1.2,0.4-1.8,0.4c-0.8,0-1.5-0.2-2-0.5
		s-1.1-0.7-1.4-1.2c-0.4-0.5-0.7-1.1-0.9-1.8c-0.2-0.7-0.3-1.4-0.3-2.1c0-0.7,0.1-1.4,0.3-2c0.2-0.6,0.5-1.2,0.9-1.7
		c0.4-0.5,0.9-0.9,1.4-1.2c0.6-0.3,1.2-0.5,2-0.5c0.6,0,1.2,0.1,1.8,0.4c0.6,0.3,1,0.6,1.3,1.2h0V0.3h2.8v14.3h-2.7V13.3z
		 M106.7,9.4c0-0.4,0-0.8-0.1-1.2c-0.1-0.4-0.2-0.8-0.4-1c-0.2-0.3-0.4-0.5-0.8-0.7c-0.3-0.2-0.7-0.3-1.1-0.3
		c-0.5,0-0.9,0.1-1.2,0.3c-0.3,0.2-0.6,0.4-0.8,0.7s-0.3,0.7-0.4,1c-0.1,0.4-0.1,0.8-0.1,1.2c0,0.4,0,0.8,0.1,1.2
		c0.1,0.4,0.2,0.8,0.5,1.1c0.2,0.3,0.5,0.6,0.8,0.8c0.3,0.2,0.7,0.3,1.1,0.3c0.5,0,0.9-0.1,1.2-0.3c0.3-0.2,0.6-0.4,0.8-0.8
		c0.2-0.3,0.3-0.7,0.4-1.1C106.7,10.3,106.7,9.8,106.7,9.4z"/>
	<path class="st0" d="M114.3,10.1c0,0.9,0.3,1.6,0.7,2s1,0.6,1.8,0.6c0.6,0,1.1-0.1,1.5-0.4c0.4-0.3,0.7-0.6,0.8-0.9h2.5
		c-0.4,1.2-1,2.1-1.8,2.7c-0.8,0.5-1.8,0.8-3,0.8c-0.8,0-1.5-0.1-2.2-0.4s-1.2-0.6-1.7-1.1c-0.5-0.5-0.8-1.1-1-1.7s-0.4-1.4-0.4-2.2
		c0-0.8,0.1-1.5,0.4-2.2c0.3-0.7,0.6-1.2,1.1-1.7s1-0.9,1.7-1.2S116,4,116.8,4c0.9,0,1.6,0.2,2.3,0.5c0.7,0.3,1.2,0.8,1.6,1.4
		s0.7,1.2,0.9,2c0.2,0.7,0.3,1.5,0.2,2.3H114.3z M118.9,8.3c-0.1-0.7-0.4-1.3-0.7-1.6s-0.9-0.6-1.5-0.6c-0.5,0-0.8,0.1-1.1,0.2
		s-0.5,0.3-0.7,0.6c-0.2,0.2-0.3,0.5-0.4,0.7s-0.1,0.5-0.1,0.7H118.9z"/>
	<path class="st0" d="M123.9,0.3h2.8v14.3h-2.8V0.3z"/>
	<path class="st0" d="M137.7,10.1c0,0.9,0.3,1.6,0.7,2s1,0.6,1.8,0.6c0.6,0,1.1-0.1,1.5-0.4c0.4-0.3,0.7-0.6,0.8-0.9h2.5
		c-0.4,1.2-1,2.1-1.8,2.7c-0.8,0.5-1.8,0.8-3,0.8c-0.8,0-1.5-0.1-2.2-0.4s-1.2-0.6-1.7-1.1c-0.5-0.5-0.8-1.1-1-1.7s-0.4-1.4-0.4-2.2
		c0-0.8,0.1-1.5,0.4-2.2c0.3-0.7,0.6-1.2,1.1-1.7s1-0.9,1.7-1.2s1.4-0.4,2.2-0.4c0.9,0,1.6,0.2,2.3,0.5c0.7,0.3,1.2,0.8,1.6,1.4
		s0.7,1.2,0.9,2c0.2,0.7,0.3,1.5,0.2,2.3H137.7z M142.3,8.3c-0.1-0.7-0.4-1.3-0.7-1.6s-0.9-0.6-1.5-0.6c-0.5,0-0.8,0.1-1.1,0.2
		s-0.5,0.3-0.7,0.6c-0.2,0.2-0.3,0.5-0.4,0.7s-0.1,0.5-0.1,0.7H142.3z"/>
	<path class="st0" d="M149.5,11.3c0,0.3,0.1,0.6,0.2,0.8c0.1,0.2,0.3,0.4,0.5,0.5c0.2,0.1,0.4,0.2,0.7,0.3s0.5,0.1,0.8,0.1
		c0.2,0,0.4,0,0.6-0.1c0.2,0,0.4-0.1,0.6-0.2c0.2-0.1,0.3-0.2,0.5-0.4c0.1-0.2,0.2-0.4,0.2-0.6c0-0.2-0.1-0.4-0.2-0.5
		c-0.1-0.2-0.4-0.3-0.6-0.4c-0.3-0.1-0.6-0.2-1-0.3c-0.4-0.1-0.9-0.2-1.4-0.3c-0.4-0.1-0.8-0.2-1.2-0.3c-0.4-0.1-0.7-0.3-1.1-0.5
		c-0.3-0.2-0.6-0.5-0.7-0.8c-0.2-0.3-0.3-0.7-0.3-1.1c0-0.7,0.1-1.2,0.4-1.6c0.3-0.4,0.6-0.8,1-1c0.4-0.2,0.9-0.4,1.4-0.5
		c0.5-0.1,1.1-0.2,1.6-0.2c0.6,0,1.1,0.1,1.6,0.2s1,0.3,1.4,0.5s0.8,0.6,1,1c0.3,0.4,0.4,1,0.5,1.6h-2.7c0-0.5-0.2-0.9-0.6-1.1
		c-0.4-0.2-0.8-0.3-1.3-0.3c-0.2,0-0.3,0-0.5,0c-0.2,0-0.4,0.1-0.5,0.1c-0.2,0.1-0.3,0.2-0.4,0.3c-0.1,0.1-0.2,0.3-0.2,0.5
		c0,0.3,0.1,0.5,0.3,0.6c0.2,0.2,0.4,0.3,0.7,0.4c0.3,0.1,0.6,0.2,1,0.3c0.4,0.1,0.8,0.2,1.2,0.3c0.4,0.1,0.8,0.2,1.2,0.3
		c0.4,0.1,0.7,0.3,1.1,0.5c0.3,0.2,0.6,0.5,0.7,0.8c0.2,0.3,0.3,0.7,0.3,1.2c0,0.7-0.1,1.3-0.4,1.7s-0.6,0.8-1.1,1.1
		c-0.4,0.3-0.9,0.5-1.5,0.6c-0.6,0.1-1.1,0.2-1.7,0.2c-0.6,0-1.2-0.1-1.8-0.2c-0.6-0.1-1.1-0.3-1.5-0.6c-0.4-0.3-0.8-0.7-1.1-1.1
		c-0.3-0.5-0.4-1-0.5-1.7H149.5z"/>
	<path class="st0" d="M162,4.3h2.1v1.9H162v5.1c0,0.5,0.1,0.8,0.2,1c0.2,0.2,0.5,0.2,1,0.2c0.3,0,0.6,0,0.9-0.1v2.2
		c-0.2,0-0.5,0.1-0.8,0.1c-0.3,0-0.6,0-0.9,0c-0.4,0-0.9,0-1.3-0.1c-0.4-0.1-0.7-0.2-1-0.4c-0.3-0.2-0.5-0.4-0.7-0.8
		c-0.2-0.3-0.3-0.7-0.3-1.3V6.2h-1.7V4.3h1.7V1.2h2.8V4.3z"/>
	<path class="st0" d="M165.8,4.3h2.7v1.9h0c0.1-0.3,0.3-0.6,0.5-0.9s0.5-0.5,0.8-0.7s0.6-0.3,1-0.5s0.7-0.2,1-0.2
		c0.2,0,0.4,0,0.6,0.1v2.6c-0.1,0-0.3,0-0.5-0.1c-0.2,0-0.4,0-0.5,0c-0.5,0-1,0.1-1.3,0.3c-0.4,0.2-0.6,0.4-0.9,0.7
		c-0.2,0.3-0.4,0.7-0.5,1.1c-0.1,0.4-0.1,0.8-0.1,1.3v4.7h-2.8V4.3z"/>
	<path class="st0" d="M176.4,10.1c0,0.9,0.3,1.6,0.7,2c0.4,0.4,1,0.6,1.8,0.6c0.6,0,1.1-0.1,1.5-0.4c0.4-0.3,0.7-0.6,0.8-0.9h2.5
		c-0.4,1.2-1,2.1-1.8,2.7c-0.8,0.5-1.8,0.8-3,0.8c-0.8,0-1.5-0.1-2.2-0.4c-0.7-0.3-1.2-0.6-1.7-1.1c-0.5-0.5-0.8-1.1-1-1.7
		c-0.2-0.7-0.4-1.4-0.4-2.2c0-0.8,0.1-1.5,0.4-2.2c0.3-0.7,0.6-1.2,1.1-1.7c0.5-0.5,1-0.9,1.7-1.2c0.6-0.3,1.4-0.4,2.1-0.4
		c0.9,0,1.6,0.2,2.3,0.5c0.7,0.3,1.2,0.8,1.6,1.4s0.7,1.2,0.9,2c0.2,0.7,0.3,1.5,0.2,2.3H176.4z M181,8.3c-0.1-0.7-0.4-1.3-0.7-1.6
		s-0.9-0.6-1.6-0.6c-0.5,0-0.8,0.1-1.1,0.2c-0.3,0.2-0.5,0.3-0.7,0.6s-0.3,0.5-0.4,0.7s-0.1,0.5-0.1,0.7H181z M179.2,3h-2l1.9-2.8
		h3.1L179.2,3z"/>
	<path class="st0" d="M188.1,11.3c0,0.3,0.1,0.6,0.2,0.8c0.1,0.2,0.3,0.4,0.5,0.5c0.2,0.1,0.4,0.2,0.7,0.3c0.3,0.1,0.5,0.1,0.8,0.1
		c0.2,0,0.4,0,0.6-0.1c0.2,0,0.4-0.1,0.6-0.2c0.2-0.1,0.3-0.2,0.5-0.4c0.1-0.2,0.2-0.4,0.2-0.6c0-0.2-0.1-0.4-0.2-0.5
		s-0.4-0.3-0.6-0.4c-0.3-0.1-0.6-0.2-1-0.3c-0.4-0.1-0.9-0.2-1.4-0.3c-0.4-0.1-0.8-0.2-1.2-0.3c-0.4-0.1-0.7-0.3-1-0.5
		c-0.3-0.2-0.6-0.5-0.7-0.8c-0.2-0.3-0.3-0.7-0.3-1.1c0-0.7,0.1-1.2,0.4-1.6s0.6-0.8,1-1c0.4-0.2,0.9-0.4,1.4-0.5
		C189,4,189.6,4,190.1,4c0.6,0,1.1,0.1,1.6,0.2c0.5,0.1,1,0.3,1.4,0.5s0.8,0.6,1,1s0.4,1,0.5,1.6H192c0-0.5-0.2-0.9-0.6-1.1
		s-0.8-0.3-1.3-0.3c-0.2,0-0.3,0-0.5,0c-0.2,0-0.4,0.1-0.5,0.1c-0.2,0.1-0.3,0.2-0.4,0.3c-0.1,0.1-0.2,0.3-0.2,0.5
		c0,0.3,0.1,0.5,0.3,0.6c0.2,0.2,0.4,0.3,0.7,0.4s0.6,0.2,1,0.3c0.4,0.1,0.8,0.2,1.2,0.3c0.4,0.1,0.8,0.2,1.2,0.3
		c0.4,0.1,0.7,0.3,1,0.5c0.3,0.2,0.6,0.5,0.7,0.8c0.2,0.3,0.3,0.7,0.3,1.2c0,0.7-0.1,1.3-0.4,1.7c-0.3,0.5-0.6,0.8-1.1,1.1
		c-0.4,0.3-0.9,0.5-1.5,0.6c-0.6,0.1-1.1,0.2-1.7,0.2c-0.6,0-1.2-0.1-1.8-0.2c-0.6-0.1-1.1-0.3-1.5-0.6c-0.4-0.3-0.8-0.7-1.1-1.1
		c-0.3-0.5-0.4-1-0.5-1.7H188.1z"/>
</g>
</svg>
