<!-- Generator: Adobe Illustrator 20.1.0, SVG Export Plug-In  -->
<svg version="1.1"
	 xmlns="http://www.w3.org/2000/svg" xmlns:xlink="http://www.w3.org/1999/xlink" xmlns:a="http://ns.adobe.com/AdobeSVGViewerExtensions/3.0/"
	 x="0px" y="0px" width="210.1px" height="158.1px" viewBox="0 0 210.1 158.1"
	 style="overflow:scroll;enable-background:new 0 0 210.1 158.1;" xml:space="preserve">
<style type="text/css">
	.st0{fill:#58595B;}
</style>
<defs>
</defs>
<g>
	<g>
		<path class="st0" d="M146.7,4.5c0.1-0.3,0.3-0.6,0.6-0.8c0.2-0.2,0.5-0.4,0.8-0.6c0.3-0.1,0.7-0.2,1-0.2c0.4,0,0.7,0.1,1,0.2
			c0.3,0.1,0.6,0.3,0.9,0.6c0.2,0.2,0.4,0.5,0.6,0.8c0.1,0.3,0.2,0.7,0.2,1c0,0.4-0.1,0.7-0.2,1c-0.1,0.3-0.3,0.6-0.6,0.9
			c-0.2,0.2-0.5,0.4-0.9,0.6c-0.3,0.1-0.7,0.2-1,0.2c-0.4,0-0.7-0.1-1-0.2c-0.3-0.1-0.6-0.3-0.8-0.6c-0.2-0.2-0.4-0.5-0.6-0.9
			c-0.1-0.3-0.2-0.7-0.2-1C146.4,5.2,146.5,4.9,146.7,4.5z"/>
		<path class="st0" d="M166.1,0.2v0.9h-3.7V11h-1V1.1h-3.7V0.2H166.1z"/>
		<path class="st0" d="M167.9,8.4c0.1,0.4,0.2,0.7,0.5,1c0.2,0.3,0.5,0.5,0.8,0.7c0.3,0.2,0.7,0.3,1.2,0.3c0.7,0,1.2-0.2,1.6-0.5
			c0.4-0.4,0.7-0.8,0.8-1.4h0.9c-0.2,0.9-0.6,1.6-1.1,2c-0.5,0.5-1.3,0.7-2.3,0.7c-0.6,0-1.1-0.1-1.6-0.3c-0.4-0.2-0.8-0.5-1.1-0.9
			c-0.3-0.4-0.5-0.8-0.6-1.3c-0.1-0.5-0.2-1-0.2-1.6c0-0.5,0.1-1,0.2-1.5c0.1-0.5,0.3-0.9,0.6-1.3c0.3-0.4,0.6-0.7,1.1-0.9
			c0.4-0.2,1-0.4,1.6-0.4c0.6,0,1.2,0.1,1.6,0.4c0.4,0.3,0.8,0.6,1.1,1c0.3,0.4,0.5,0.9,0.6,1.4c0.1,0.5,0.2,1.1,0.2,1.6h-6
			C167.8,7.7,167.8,8,167.9,8.4z M172.6,5.5c-0.1-0.3-0.3-0.6-0.5-0.9c-0.2-0.3-0.5-0.5-0.8-0.6c-0.3-0.2-0.6-0.2-1-0.2
			c-0.4,0-0.7,0.1-1,0.2s-0.6,0.4-0.8,0.6c-0.2,0.3-0.4,0.6-0.5,0.9c-0.1,0.3-0.2,0.7-0.2,1h5C172.8,6.2,172.7,5.8,172.6,5.5z"/>
		<path class="st0" d="M176.3,3.2v1.3h0c0.2-0.5,0.5-0.8,1-1.1c0.5-0.3,1-0.4,1.5-0.4c0.5,0,1,0.1,1.4,0.2c0.4,0.1,0.7,0.3,0.9,0.6
			s0.4,0.6,0.5,0.9c0.1,0.4,0.1,0.8,0.1,1.2v5h-0.9V6.1c0-0.3,0-0.6-0.1-0.9c-0.1-0.3-0.2-0.5-0.3-0.7c-0.2-0.2-0.4-0.4-0.6-0.5
			s-0.6-0.2-1-0.2s-0.7,0.1-1,0.2c-0.3,0.1-0.5,0.3-0.8,0.6c-0.2,0.2-0.4,0.5-0.5,0.8s-0.2,0.7-0.2,1.1V11h-0.9V3.2H176.3z"/>
		<path class="st0" d="M188.2,4.7c-0.1-0.2-0.3-0.4-0.4-0.5c-0.2-0.1-0.4-0.2-0.6-0.3c-0.2-0.1-0.5-0.1-0.8-0.1
			c-0.2,0-0.4,0-0.6,0.1c-0.2,0-0.4,0.1-0.6,0.2c-0.2,0.1-0.3,0.2-0.4,0.4c-0.1,0.2-0.2,0.4-0.2,0.6c0,0.2,0.1,0.4,0.2,0.5
			c0.1,0.1,0.2,0.3,0.4,0.4c0.2,0.1,0.3,0.2,0.5,0.2c0.2,0.1,0.4,0.1,0.5,0.2l1.3,0.3c0.3,0,0.5,0.1,0.8,0.2
			c0.3,0.1,0.5,0.2,0.7,0.4c0.2,0.2,0.4,0.4,0.5,0.6c0.1,0.3,0.2,0.5,0.2,0.9c0,0.4-0.1,0.8-0.3,1.1c-0.2,0.3-0.4,0.5-0.7,0.7
			c-0.3,0.2-0.6,0.3-1,0.4c-0.4,0.1-0.7,0.1-1.1,0.1c-0.9,0-1.7-0.2-2.2-0.6c-0.6-0.4-0.9-1.1-1-2.1h0.9c0,0.6,0.3,1.1,0.7,1.5
			c0.4,0.3,1,0.5,1.6,0.5c0.2,0,0.5,0,0.7-0.1c0.2,0,0.5-0.1,0.7-0.3c0.2-0.1,0.4-0.3,0.5-0.5c0.1-0.2,0.2-0.4,0.2-0.7
			c0-0.2,0-0.4-0.1-0.6c-0.1-0.2-0.2-0.3-0.4-0.4c-0.2-0.1-0.3-0.2-0.5-0.3c-0.2-0.1-0.4-0.1-0.6-0.2l-1.2-0.3
			c-0.3-0.1-0.6-0.2-0.9-0.3c-0.3-0.1-0.5-0.2-0.7-0.4s-0.3-0.3-0.5-0.6s-0.2-0.5-0.2-0.8c0-0.4,0.1-0.7,0.3-1
			c0.2-0.3,0.4-0.5,0.7-0.7c0.3-0.2,0.6-0.3,0.9-0.4s0.7-0.1,1-0.1c0.4,0,0.8,0.1,1.1,0.2c0.3,0.1,0.6,0.3,0.9,0.5
			c0.3,0.2,0.5,0.5,0.6,0.8c0.1,0.3,0.2,0.7,0.3,1.1h-0.9C188.3,5.2,188.3,4.9,188.2,4.7z"/>
		<path class="st0" d="M192.2,0.2v1.5h-0.9V0.2H192.2z M192.2,3.2V11h-0.9V3.2H192.2z"/>
		<path class="st0" d="M199.2,3.3c0.5,0.2,0.8,0.5,1.1,0.9c0.3,0.4,0.5,0.8,0.7,1.3s0.2,1,0.2,1.6c0,0.6-0.1,1.1-0.2,1.6
			s-0.4,0.9-0.7,1.3s-0.7,0.7-1.1,0.9c-0.5,0.2-1,0.3-1.6,0.3c-0.6,0-1.1-0.1-1.6-0.3c-0.5-0.2-0.8-0.5-1.1-0.9
			c-0.3-0.4-0.5-0.8-0.7-1.3s-0.2-1-0.2-1.6c0-0.6,0.1-1.1,0.2-1.6s0.4-0.9,0.7-1.3c0.3-0.4,0.7-0.7,1.1-0.9s1-0.3,1.6-0.3
			C198.2,3,198.7,3.1,199.2,3.3z M196.4,4.1c-0.3,0.2-0.6,0.4-0.8,0.8s-0.4,0.7-0.5,1.1c-0.1,0.4-0.2,0.8-0.2,1.2s0.1,0.8,0.2,1.2
			c0.1,0.4,0.3,0.8,0.5,1.1s0.5,0.6,0.8,0.8s0.7,0.3,1.2,0.3s0.8-0.1,1.2-0.3s0.6-0.4,0.8-0.8s0.4-0.7,0.5-1.1
			c0.1-0.4,0.2-0.8,0.2-1.2s-0.1-0.8-0.2-1.2s-0.3-0.7-0.5-1.1s-0.5-0.6-0.8-0.8s-0.7-0.3-1.2-0.3S196.7,3.9,196.4,4.1z M196.7,2.1
			l1.6-2.1h1.2l-2,2.1H196.7z"/>
		<path class="st0" d="M203.9,3.2v1.3h0c0.2-0.5,0.5-0.8,1-1.1c0.5-0.3,1-0.4,1.5-0.4c0.5,0,1,0.1,1.4,0.2c0.4,0.1,0.7,0.3,0.9,0.6
			s0.4,0.6,0.5,0.9c0.1,0.4,0.1,0.8,0.1,1.2v5h-0.9V6.1c0-0.3,0-0.6-0.1-0.9c-0.1-0.3-0.2-0.5-0.3-0.7c-0.2-0.2-0.4-0.4-0.6-0.5
			s-0.6-0.2-1-0.2s-0.7,0.1-1,0.2c-0.3,0.1-0.5,0.3-0.8,0.6c-0.2,0.2-0.4,0.5-0.5,0.8s-0.2,0.7-0.2,1.1V11H203V3.2H203.9z"/>
		<path class="st0" d="M58.6,22.6c0.1-0.3,0.3-0.6,0.6-0.8c0.2-0.2,0.5-0.4,0.8-0.6c0.3-0.1,0.7-0.2,1-0.2c0.4,0,0.7,0.1,1,0.2
			c0.3,0.1,0.6,0.3,0.9,0.6c0.2,0.2,0.4,0.5,0.6,0.8c0.1,0.3,0.2,0.7,0.2,1c0,0.4-0.1,0.7-0.2,1c-0.1,0.3-0.3,0.6-0.6,0.9
			c-0.2,0.2-0.5,0.4-0.9,0.6c-0.3,0.1-0.7,0.2-1,0.2c-0.4,0-0.7-0.1-1-0.2c-0.3-0.1-0.6-0.3-0.8-0.6c-0.2-0.2-0.4-0.5-0.6-0.9
			c-0.1-0.3-0.2-0.7-0.2-1C58.4,23.3,58.4,22.9,58.6,22.6z"/>
		<path class="st0" d="M72.1,18.3l3.7,9.4l3.7-9.4h1.5V29h-1v-9.3h0L76.3,29h-1l-3.7-9.3h0V29h-1V18.3H72.1z"/>
		<path class="st0" d="M83.5,22.4c0.2-0.3,0.4-0.6,0.7-0.8c0.3-0.2,0.6-0.4,1-0.5c0.4-0.1,0.8-0.2,1.2-0.2c0.3,0,0.7,0,1,0.1
			c0.3,0.1,0.6,0.2,0.9,0.4c0.3,0.2,0.5,0.4,0.7,0.8c0.2,0.3,0.3,0.7,0.3,1.3v4.1c0,0.4,0.2,0.6,0.6,0.6c0.1,0,0.2,0,0.3-0.1v0.8
			c-0.1,0-0.2,0-0.3,0s-0.2,0-0.3,0c-0.2,0-0.4,0-0.6-0.1s-0.3-0.2-0.3-0.3s-0.1-0.3-0.2-0.4c0-0.2,0-0.3,0-0.5h0
			c-0.2,0.3-0.3,0.5-0.5,0.7c-0.2,0.2-0.4,0.4-0.6,0.5c-0.2,0.1-0.5,0.2-0.7,0.3c-0.3,0.1-0.6,0.1-1,0.1c-0.4,0-0.7,0-1-0.1
			c-0.3-0.1-0.6-0.2-0.8-0.4s-0.4-0.4-0.6-0.7c-0.1-0.3-0.2-0.6-0.2-1c0-0.5,0.1-1,0.4-1.3c0.2-0.3,0.6-0.5,1-0.7
			c0.4-0.2,0.8-0.3,1.3-0.3c0.5-0.1,1-0.1,1.5-0.2c0.2,0,0.4,0,0.5-0.1c0.1,0,0.3-0.1,0.4-0.2c0.1-0.1,0.2-0.2,0.2-0.3
			c0.1-0.1,0.1-0.3,0.1-0.5c0-0.3-0.1-0.6-0.2-0.8s-0.3-0.4-0.4-0.5c-0.2-0.1-0.4-0.2-0.6-0.2c-0.2,0-0.5-0.1-0.8-0.1
			c-0.6,0-1.1,0.1-1.5,0.4c-0.4,0.3-0.6,0.7-0.6,1.4h-0.9C83.3,23.2,83.4,22.8,83.5,22.4z M88.2,24.8c-0.1,0.1-0.2,0.2-0.3,0.2
			c-0.2,0-0.3,0.1-0.5,0.1c-0.4,0.1-0.8,0.1-1.2,0.2c-0.4,0.1-0.8,0.1-1.2,0.2c-0.4,0.1-0.6,0.3-0.9,0.5c-0.2,0.2-0.3,0.5-0.3,0.9
			c0,0.2,0,0.5,0.1,0.6c0.1,0.2,0.2,0.3,0.4,0.5c0.2,0.1,0.3,0.2,0.6,0.3c0.2,0.1,0.4,0.1,0.6,0.1c0.4,0,0.7-0.1,1-0.2
			s0.6-0.3,0.9-0.5c0.2-0.2,0.4-0.5,0.6-0.8c0.1-0.3,0.2-0.6,0.2-1L88.2,24.8L88.2,24.8z"/>
		<path class="st0" d="M92.4,18.3V29h-0.9V18.3H92.4z"/>
		<path class="st0" d="M99.9,18.3v4.3h0c0.2-0.5,0.5-0.8,1-1.1c0.5-0.3,1-0.4,1.5-0.4c0.5,0,1,0.1,1.4,0.2c0.4,0.1,0.7,0.3,0.9,0.6
			s0.4,0.6,0.5,0.9c0.1,0.4,0.1,0.8,0.1,1.2v5h-0.9v-4.8c0-0.3,0-0.6-0.1-0.9c-0.1-0.3-0.2-0.5-0.3-0.7c-0.2-0.2-0.4-0.4-0.6-0.5
			s-0.6-0.2-1-0.2s-0.7,0.1-1,0.2c-0.3,0.1-0.5,0.3-0.8,0.6c-0.2,0.2-0.4,0.5-0.5,0.8s-0.2,0.7-0.2,1.1V29H99V18.3H99.9z"/>
		<path class="st0" d="M112.8,29v-1.4h0c-0.3,0.5-0.6,0.9-1.1,1.2c-0.5,0.3-1,0.4-1.6,0.4c-0.5,0-0.9-0.1-1.3-0.2
			c-0.3-0.1-0.6-0.3-0.8-0.6c-0.2-0.3-0.4-0.6-0.5-0.9c-0.1-0.4-0.2-0.8-0.2-1.2v-5h0.9v5.1c0,0.7,0.2,1.2,0.5,1.6
			c0.3,0.4,0.8,0.5,1.6,0.5c0.4,0,0.8-0.1,1.1-0.3c0.3-0.2,0.5-0.4,0.7-0.7s0.3-0.6,0.4-1s0.1-0.8,0.1-1.2v-4.1h0.9V29H112.8z"/>
		<path class="st0" d="M116.6,21.2v1.3h0c0.3-0.5,0.6-0.9,1-1.1s0.9-0.4,1.6-0.4c0.5,0,1,0.1,1.4,0.4c0.4,0.3,0.7,0.6,0.8,1.1
			c0.2-0.5,0.6-0.9,1-1.1c0.5-0.3,0.9-0.4,1.4-0.4c1.7,0,2.6,0.9,2.6,2.7V29h-0.9v-5.2c0-0.6-0.1-1.1-0.4-1.5s-0.7-0.5-1.4-0.5
			c-0.4,0-0.8,0.1-1,0.2s-0.5,0.4-0.6,0.6s-0.3,0.6-0.3,0.9c-0.1,0.3-0.1,0.7-0.1,1V29h-0.9v-5.3c0-0.3,0-0.5-0.1-0.7
			c-0.1-0.2-0.1-0.4-0.3-0.6c-0.1-0.2-0.3-0.3-0.5-0.4c-0.2-0.1-0.5-0.2-0.8-0.2c-0.4,0-0.7,0.1-1,0.2c-0.3,0.1-0.5,0.3-0.7,0.6
			c-0.2,0.3-0.3,0.6-0.4,0.9c-0.1,0.3-0.1,0.7-0.1,1.1V29h-0.9v-7.8H116.6z"/>
		<path class="st0" d="M133.4,21.3c0.5,0.2,0.8,0.5,1.1,0.9c0.3,0.4,0.5,0.8,0.7,1.3s0.2,1,0.2,1.6c0,0.6-0.1,1.1-0.2,1.6
			s-0.4,0.9-0.7,1.3s-0.7,0.7-1.1,0.9c-0.5,0.2-1,0.3-1.6,0.3c-0.6,0-1.1-0.1-1.6-0.3c-0.5-0.2-0.8-0.5-1.1-0.9
			c-0.3-0.4-0.5-0.8-0.7-1.3s-0.2-1-0.2-1.6c0-0.6,0.1-1.1,0.2-1.6s0.4-0.9,0.7-1.3c0.3-0.4,0.7-0.7,1.1-0.9s1-0.3,1.6-0.3
			C132.4,21,132.9,21.1,133.4,21.3z M130.6,22.1c-0.3,0.2-0.6,0.4-0.8,0.8s-0.4,0.7-0.5,1.1c-0.1,0.4-0.2,0.8-0.2,1.2
			s0.1,0.8,0.2,1.2c0.1,0.4,0.3,0.8,0.5,1.1s0.5,0.6,0.8,0.8s0.7,0.3,1.2,0.3s0.8-0.1,1.2-0.3s0.6-0.4,0.8-0.8s0.4-0.7,0.5-1.1
			c0.1-0.4,0.2-0.8,0.2-1.2s-0.1-0.8-0.2-1.2s-0.3-0.7-0.5-1.1s-0.5-0.6-0.8-0.8s-0.7-0.3-1.2-0.3S131,21.9,130.6,22.1z"/>
		<path class="st0" d="M138.1,21.2v1.8h0c0.2-0.6,0.6-1.1,1.1-1.5s1.1-0.5,1.8-0.5v0.9c-0.4,0-0.8,0-1.2,0.2
			c-0.4,0.1-0.7,0.3-0.9,0.6c-0.3,0.3-0.5,0.5-0.6,0.9c-0.1,0.3-0.2,0.7-0.2,1.1V29h-0.9v-7.8H138.1z"/>
		<path class="st0" d="M145.8,18h0.8L142,29.2h-0.8L145.8,18z"/>
		<path class="st0" d="M148.5,18.3V29h-0.9V18.3H148.5z"/>
		<path class="st0" d="M150.8,22.4c0.2-0.3,0.4-0.6,0.7-0.8c0.3-0.2,0.6-0.4,1-0.5c0.4-0.1,0.8-0.2,1.2-0.2c0.3,0,0.7,0,1,0.1
			c0.3,0.1,0.6,0.2,0.9,0.4c0.3,0.2,0.5,0.4,0.7,0.8c0.2,0.3,0.3,0.7,0.3,1.3v4.1c0,0.4,0.2,0.6,0.6,0.6c0.1,0,0.2,0,0.3-0.1v0.8
			c-0.1,0-0.2,0-0.3,0s-0.2,0-0.3,0c-0.2,0-0.4,0-0.6-0.1s-0.3-0.2-0.3-0.3s-0.1-0.3-0.2-0.4c0-0.2,0-0.3,0-0.5h0
			c-0.2,0.3-0.3,0.5-0.5,0.7c-0.2,0.2-0.4,0.4-0.6,0.5c-0.2,0.1-0.5,0.2-0.7,0.3c-0.3,0.1-0.6,0.1-1,0.1c-0.4,0-0.7,0-1-0.1
			c-0.3-0.1-0.6-0.2-0.8-0.4s-0.4-0.4-0.6-0.7c-0.1-0.3-0.2-0.6-0.2-1c0-0.5,0.1-1,0.4-1.3c0.2-0.3,0.6-0.5,1-0.7
			c0.4-0.2,0.8-0.3,1.3-0.3c0.5-0.1,1-0.1,1.5-0.2c0.2,0,0.4,0,0.5-0.1c0.1,0,0.3-0.1,0.4-0.2c0.1-0.1,0.2-0.2,0.2-0.3
			c0.1-0.1,0.1-0.3,0.1-0.5c0-0.3-0.1-0.6-0.2-0.8s-0.3-0.4-0.4-0.5c-0.2-0.1-0.4-0.2-0.6-0.2c-0.2,0-0.5-0.1-0.8-0.1
			c-0.6,0-1.1,0.1-1.5,0.4c-0.4,0.3-0.6,0.7-0.6,1.4h-0.9C150.6,23.2,150.7,22.8,150.8,22.4z M155.6,24.8c-0.1,0.1-0.2,0.2-0.3,0.2
			c-0.2,0-0.3,0.1-0.5,0.1c-0.4,0.1-0.8,0.1-1.2,0.2c-0.4,0.1-0.8,0.1-1.2,0.2c-0.4,0.1-0.6,0.3-0.9,0.5c-0.2,0.2-0.3,0.5-0.3,0.9
			c0,0.2,0,0.5,0.1,0.6c0.1,0.2,0.2,0.3,0.4,0.5c0.2,0.1,0.3,0.2,0.6,0.3c0.2,0.1,0.4,0.1,0.6,0.1c0.4,0,0.7-0.1,1-0.2
			s0.6-0.3,0.9-0.5c0.2-0.2,0.4-0.5,0.6-0.8c0.1-0.3,0.2-0.6,0.2-1L155.6,24.8L155.6,24.8z"/>
		<path class="st0" d="M159.7,21.2v1.3h0c0.2-0.5,0.5-0.8,1-1.1c0.5-0.3,1-0.4,1.5-0.4c0.5,0,1,0.1,1.4,0.2s0.7,0.3,0.9,0.6
			c0.2,0.3,0.4,0.6,0.5,0.9c0.1,0.4,0.1,0.8,0.1,1.2v5h-0.9v-4.8c0-0.3,0-0.6-0.1-0.9c-0.1-0.3-0.2-0.5-0.3-0.7
			c-0.2-0.2-0.4-0.4-0.6-0.5c-0.3-0.1-0.6-0.2-1-0.2s-0.7,0.1-1,0.2c-0.3,0.1-0.5,0.3-0.8,0.6c-0.2,0.2-0.4,0.5-0.5,0.8
			s-0.2,0.7-0.2,1.1V29h-0.9v-7.8H159.7z"/>
		<path class="st0" d="M173.5,29.9c-0.1,0.5-0.3,0.9-0.6,1.2c-0.3,0.3-0.6,0.6-1.1,0.7c-0.4,0.2-1,0.3-1.6,0.3c-0.4,0-0.8,0-1.1-0.1
			c-0.4-0.1-0.7-0.2-1-0.4c-0.3-0.2-0.5-0.4-0.7-0.7c-0.2-0.3-0.3-0.6-0.3-1.1h0.9c0,0.3,0.1,0.5,0.3,0.7s0.3,0.4,0.5,0.5
			s0.4,0.2,0.7,0.3c0.3,0.1,0.5,0.1,0.8,0.1c0.9,0,1.5-0.3,1.9-0.8c0.4-0.5,0.6-1.2,0.6-2.2v-1.1h0c-0.2,0.5-0.5,0.9-1,1.2
			c-0.4,0.3-0.9,0.4-1.5,0.4c-0.6,0-1.2-0.1-1.6-0.3c-0.4-0.2-0.8-0.5-1.1-0.8c-0.3-0.4-0.5-0.8-0.6-1.3c-0.1-0.5-0.2-1-0.2-1.6
			c0-0.5,0.1-1,0.2-1.5s0.4-0.9,0.7-1.2c0.3-0.4,0.7-0.6,1.1-0.8c0.4-0.2,0.9-0.3,1.5-0.3c0.3,0,0.6,0,0.8,0.1
			c0.3,0.1,0.5,0.2,0.7,0.3c0.2,0.1,0.4,0.3,0.6,0.5c0.2,0.2,0.3,0.4,0.4,0.6h0v-1.3h0.9v7.1C173.7,28.9,173.6,29.5,173.5,29.9z
			 M171.3,27.9c0.3-0.2,0.6-0.4,0.8-0.7c0.2-0.3,0.4-0.6,0.5-1c0.1-0.4,0.2-0.8,0.2-1.1c0-0.4,0-0.8-0.1-1.1c-0.1-0.4-0.2-0.7-0.4-1
			s-0.5-0.6-0.8-0.8c-0.3-0.2-0.7-0.3-1.1-0.3c-0.5,0-0.8,0.1-1.2,0.3c-0.3,0.2-0.6,0.4-0.8,0.7c-0.2,0.3-0.4,0.6-0.5,1
			c-0.1,0.4-0.1,0.8-0.1,1.2c0,0.4,0,0.8,0.1,1.1c0.1,0.4,0.3,0.7,0.5,1c0.2,0.3,0.5,0.5,0.8,0.7c0.3,0.2,0.7,0.3,1.1,0.3
			C170.6,28.1,171,28,171.3,27.9z"/>
		<path class="st0" d="M181.2,29v-1.4h0c-0.3,0.5-0.6,0.9-1.1,1.2c-0.5,0.3-1,0.4-1.6,0.4c-0.5,0-0.9-0.1-1.3-0.2
			c-0.3-0.1-0.6-0.3-0.8-0.6c-0.2-0.3-0.4-0.6-0.5-0.9c-0.1-0.4-0.2-0.8-0.2-1.2v-5h0.9v5.1c0,0.7,0.2,1.2,0.5,1.6
			c0.3,0.4,0.8,0.5,1.6,0.5c0.4,0,0.8-0.1,1.1-0.3c0.3-0.2,0.5-0.4,0.7-0.7s0.3-0.6,0.4-1s0.1-0.8,0.1-1.2v-4.1h0.9V29H181.2z"/>
		<path class="st0" d="M185.1,18.3v1.5h-0.9v-1.5H185.1z M185.1,21.2V29h-0.9v-7.8H185.1z"/>
		<path class="st0" d="M193.2,29v-1.5h0c-0.1,0.3-0.2,0.5-0.4,0.7c-0.2,0.2-0.4,0.4-0.7,0.5c-0.3,0.1-0.5,0.3-0.8,0.3
			c-0.3,0.1-0.6,0.1-0.8,0.1c-0.6,0-1.1-0.1-1.5-0.3c-0.4-0.2-0.8-0.5-1.1-0.9s-0.5-0.8-0.6-1.3s-0.2-1-0.2-1.6
			c0-0.6,0.1-1.1,0.2-1.6s0.4-0.9,0.6-1.3s0.7-0.7,1.1-0.9c0.4-0.2,1-0.3,1.5-0.3c0.3,0,0.6,0,0.8,0.1c0.3,0.1,0.5,0.2,0.8,0.3
			c0.2,0.1,0.5,0.3,0.6,0.5c0.2,0.2,0.3,0.5,0.4,0.7h0v-4.5h0.9V29H193.2z M188,26.3c0.1,0.4,0.2,0.7,0.5,1.1
			c0.2,0.3,0.5,0.6,0.8,0.8c0.3,0.2,0.7,0.3,1.2,0.3c0.5,0,0.9-0.1,1.3-0.3s0.6-0.4,0.8-0.8c0.2-0.3,0.4-0.7,0.5-1.1
			c0.1-0.4,0.1-0.8,0.1-1.2c0-0.4,0-0.8-0.1-1.2c-0.1-0.4-0.3-0.7-0.5-1.1s-0.5-0.6-0.8-0.8c-0.3-0.2-0.8-0.3-1.3-0.3
			c-0.5,0-0.8,0.1-1.2,0.3c-0.3,0.2-0.6,0.4-0.8,0.8c-0.2,0.3-0.4,0.7-0.5,1.1c-0.1,0.4-0.1,0.8-0.1,1.2
			C187.8,25.5,187.9,25.9,188,26.3z"/>
		<path class="st0" d="M196.9,26.4c0.1,0.4,0.2,0.7,0.5,1c0.2,0.3,0.5,0.5,0.8,0.7c0.3,0.2,0.7,0.3,1.2,0.3c0.7,0,1.2-0.2,1.6-0.5
			c0.4-0.4,0.7-0.8,0.8-1.4h0.9c-0.2,0.9-0.6,1.6-1.1,2c-0.5,0.5-1.3,0.7-2.3,0.7c-0.6,0-1.1-0.1-1.6-0.3c-0.4-0.2-0.8-0.5-1.1-0.9
			c-0.3-0.4-0.5-0.8-0.6-1.3c-0.1-0.5-0.2-1-0.2-1.6c0-0.5,0.1-1,0.2-1.5c0.1-0.5,0.3-0.9,0.6-1.3c0.3-0.4,0.6-0.7,1.1-0.9
			c0.4-0.2,1-0.4,1.6-0.4c0.6,0,1.2,0.1,1.6,0.4c0.4,0.3,0.8,0.6,1.1,1c0.3,0.4,0.5,0.9,0.6,1.4c0.1,0.5,0.2,1.1,0.2,1.6h-6
			C196.7,25.7,196.8,26.1,196.9,26.4z M201.5,23.5c-0.1-0.3-0.3-0.6-0.5-0.9c-0.2-0.3-0.5-0.5-0.8-0.6c-0.3-0.2-0.6-0.2-1-0.2
			c-0.4,0-0.7,0.1-1,0.2s-0.6,0.4-0.8,0.6c-0.2,0.3-0.4,0.6-0.5,0.9c-0.1,0.3-0.2,0.7-0.2,1h5C201.7,24.2,201.7,23.9,201.5,23.5z"/>
		<path class="st0" d="M210.1,28.2V29h-6.5v-0.8l5.1-6.2h-4.7v-0.8h5.9v0.7l-5.1,6.3H210.1z"/>
		<path class="st0" d="M40.2,40.6c0.1-0.3,0.3-0.6,0.6-0.8c0.2-0.2,0.5-0.4,0.8-0.6c0.3-0.1,0.7-0.2,1-0.2c0.4,0,0.7,0.1,1,0.2
			c0.3,0.1,0.6,0.3,0.9,0.6c0.2,0.2,0.4,0.5,0.6,0.8c0.1,0.3,0.2,0.7,0.2,1c0,0.4-0.1,0.7-0.2,1c-0.1,0.3-0.3,0.6-0.6,0.9
			c-0.2,0.2-0.5,0.4-0.9,0.6c-0.3,0.1-0.7,0.2-1,0.2c-0.4,0-0.7-0.1-1-0.2c-0.3-0.1-0.6-0.3-0.8-0.6c-0.2-0.2-0.4-0.5-0.6-0.9
			c-0.1-0.3-0.2-0.7-0.2-1C40,41.3,40.1,41,40.2,40.6z"/>
		<path class="st0" d="M53.4,36.3V47h-1V36.3H53.4z"/>
		<path class="st0" d="M56.6,39.3v1.8h0c0.2-0.6,0.6-1.1,1.1-1.5s1.1-0.5,1.8-0.5v0.9c-0.4,0-0.8,0-1.2,0.2
			c-0.4,0.1-0.7,0.3-0.9,0.6c-0.3,0.3-0.5,0.5-0.6,0.9c-0.1,0.3-0.2,0.7-0.2,1.1V47h-0.9v-7.8H56.6z"/>
		<path class="st0" d="M61.7,39.3v1.8h0c0.2-0.6,0.6-1.1,1.1-1.5s1.1-0.5,1.8-0.5v0.9c-0.4,0-0.8,0-1.2,0.2
			c-0.4,0.1-0.7,0.3-0.9,0.6c-0.3,0.3-0.5,0.5-0.6,0.9c-0.1,0.3-0.2,0.7-0.2,1.1V47h-0.9v-7.8H61.7z"/>
		<path class="st0" d="M66.8,36.3v1.5h-0.9v-1.5H66.8z M66.8,39.3V47h-0.9v-7.8H66.8z"/>
		<path class="st0" d="M72,39.3v0.8h-1.6v5.2c0,0.3,0,0.6,0.1,0.7c0.1,0.2,0.3,0.3,0.6,0.3c0.3,0,0.5,0,0.8,0v0.8
			c-0.1,0-0.3,0-0.4,0c-0.1,0-0.3,0-0.4,0c-0.6,0-1.1-0.1-1.3-0.4c-0.3-0.2-0.4-0.7-0.4-1.4v-5.3h-1.4v-0.8h1.4V37h0.9v2.3H72z"/>
		<path class="st0" d="M73.8,40.5c0.2-0.3,0.4-0.6,0.7-0.8c0.3-0.2,0.6-0.4,1-0.5c0.4-0.1,0.8-0.2,1.2-0.2c0.3,0,0.7,0,1,0.1
			c0.3,0.1,0.6,0.2,0.9,0.4c0.3,0.2,0.5,0.4,0.7,0.8c0.2,0.3,0.3,0.7,0.3,1.3v4.1c0,0.4,0.2,0.6,0.6,0.6c0.1,0,0.2,0,0.3-0.1V47
			c-0.1,0-0.2,0-0.3,0s-0.2,0-0.3,0c-0.2,0-0.4,0-0.6-0.1c-0.1-0.1-0.3-0.2-0.3-0.3s-0.1-0.3-0.2-0.4c0-0.2,0-0.3,0-0.5h0
			c-0.2,0.3-0.3,0.5-0.5,0.7c-0.2,0.2-0.4,0.4-0.6,0.5c-0.2,0.1-0.5,0.2-0.7,0.3c-0.3,0.1-0.6,0.1-1,0.1c-0.4,0-0.7,0-1-0.1
			s-0.6-0.2-0.8-0.4s-0.4-0.4-0.6-0.7c-0.1-0.3-0.2-0.6-0.2-1c0-0.5,0.1-1,0.4-1.3c0.2-0.3,0.6-0.5,1-0.7c0.4-0.2,0.8-0.3,1.3-0.3
			c0.5-0.1,1-0.1,1.5-0.2c0.2,0,0.4,0,0.5-0.1s0.3-0.1,0.4-0.2c0.1-0.1,0.2-0.2,0.2-0.3c0.1-0.1,0.1-0.3,0.1-0.5
			c0-0.3-0.1-0.6-0.2-0.8c-0.1-0.2-0.3-0.4-0.4-0.5c-0.2-0.1-0.4-0.2-0.6-0.2c-0.2,0-0.5-0.1-0.8-0.1c-0.6,0-1.1,0.1-1.5,0.4
			c-0.4,0.3-0.6,0.7-0.6,1.4h-0.9C73.6,41.2,73.7,40.8,73.8,40.5z M78.6,42.8c-0.1,0.1-0.2,0.2-0.3,0.2c-0.2,0-0.3,0.1-0.5,0.1
			c-0.4,0.1-0.8,0.1-1.2,0.2c-0.4,0.1-0.8,0.1-1.2,0.2s-0.6,0.3-0.9,0.5c-0.2,0.2-0.3,0.5-0.3,0.9c0,0.2,0,0.5,0.1,0.6
			c0.1,0.2,0.2,0.3,0.4,0.5c0.2,0.1,0.3,0.2,0.6,0.3c0.2,0.1,0.4,0.1,0.6,0.1c0.4,0,0.7-0.1,1-0.2c0.3-0.1,0.6-0.3,0.9-0.5
			c0.2-0.2,0.4-0.5,0.6-0.8s0.2-0.6,0.2-1L78.6,42.8L78.6,42.8z"/>
		<path class="st0" d="M82.7,36.3v4.5h0c0.1-0.3,0.2-0.5,0.4-0.7c0.2-0.2,0.4-0.4,0.6-0.5c0.2-0.1,0.5-0.3,0.8-0.3
			c0.3-0.1,0.6-0.1,0.8-0.1c0.6,0,1.1,0.1,1.5,0.3c0.4,0.2,0.8,0.5,1.1,0.9c0.3,0.4,0.5,0.8,0.6,1.3c0.1,0.5,0.2,1,0.2,1.6
			c0,0.6-0.1,1.1-0.2,1.6c-0.1,0.5-0.4,0.9-0.6,1.3c-0.3,0.4-0.7,0.7-1.1,0.9c-0.4,0.2-1,0.3-1.5,0.3c-0.6,0-1.2-0.1-1.7-0.4
			c-0.5-0.3-0.9-0.7-1.1-1.2h0V47h-0.9V36.3H82.7z M87.8,42c-0.1-0.4-0.2-0.7-0.5-1.1c-0.2-0.3-0.5-0.6-0.8-0.8
			c-0.3-0.2-0.7-0.3-1.2-0.3c-0.5,0-0.9,0.1-1.3,0.3c-0.3,0.2-0.6,0.4-0.8,0.8c-0.2,0.3-0.4,0.7-0.5,1.1c-0.1,0.4-0.1,0.8-0.1,1.2
			c0,0.4,0,0.8,0.1,1.2c0.1,0.4,0.3,0.7,0.5,1.1c0.2,0.3,0.5,0.6,0.8,0.8s0.8,0.3,1.3,0.3c0.5,0,0.8-0.1,1.2-0.3s0.6-0.4,0.8-0.8
			c0.2-0.3,0.4-0.7,0.5-1.1c0.1-0.4,0.1-0.8,0.1-1.2C88,42.8,87.9,42.4,87.8,42z"/>
		<path class="st0" d="M91.6,36.3v1.5h-0.9v-1.5H91.6z M91.6,39.3V47h-0.9v-7.8H91.6z"/>
		<path class="st0" d="M94.7,36.3V47h-0.9V36.3H94.7z"/>
		<path class="st0" d="M97.8,36.3v1.5h-0.9v-1.5H97.8z M97.8,39.3V47h-0.9v-7.8H97.8z"/>
		<path class="st0" d="M105.9,47v-1.5h0c-0.1,0.3-0.2,0.5-0.4,0.7c-0.2,0.2-0.4,0.4-0.7,0.5c-0.3,0.1-0.5,0.3-0.8,0.3
			c-0.3,0.1-0.6,0.1-0.8,0.1c-0.6,0-1.1-0.1-1.5-0.3c-0.4-0.2-0.8-0.5-1.1-0.9c-0.3-0.4-0.5-0.8-0.6-1.3c-0.1-0.5-0.2-1-0.2-1.6
			c0-0.6,0.1-1.1,0.2-1.6c0.1-0.5,0.4-0.9,0.6-1.3c0.3-0.4,0.7-0.7,1.1-0.9c0.4-0.2,0.9-0.3,1.5-0.3c0.3,0,0.6,0,0.8,0.1
			c0.3,0.1,0.5,0.2,0.8,0.3c0.2,0.1,0.5,0.3,0.6,0.5c0.2,0.2,0.3,0.5,0.4,0.7h0v-4.5h0.9V47H105.9z M100.7,44.4
			c0.1,0.4,0.2,0.7,0.5,1.1c0.2,0.3,0.5,0.6,0.8,0.8c0.3,0.2,0.7,0.3,1.2,0.3c0.5,0,0.9-0.1,1.3-0.3s0.6-0.4,0.8-0.8
			c0.2-0.3,0.4-0.7,0.5-1.1c0.1-0.4,0.1-0.8,0.1-1.2c0-0.4,0-0.8-0.1-1.2c-0.1-0.4-0.3-0.7-0.5-1.1c-0.2-0.3-0.5-0.6-0.8-0.8
			c-0.3-0.2-0.8-0.3-1.3-0.3c-0.5,0-0.8,0.1-1.2,0.3c-0.3,0.2-0.6,0.4-0.8,0.8s-0.4,0.7-0.5,1.1c-0.1,0.4-0.1,0.8-0.1,1.2
			C100.5,43.6,100.6,44,100.7,44.4z"/>
		<path class="st0" d="M109.1,40.5c0.2-0.3,0.4-0.6,0.7-0.8c0.3-0.2,0.6-0.4,1-0.5c0.4-0.1,0.8-0.2,1.2-0.2c0.3,0,0.7,0,1,0.1
			c0.3,0.1,0.6,0.2,0.9,0.4c0.3,0.2,0.5,0.4,0.7,0.8c0.2,0.3,0.3,0.7,0.3,1.3v4.1c0,0.4,0.2,0.6,0.6,0.6c0.1,0,0.2,0,0.3-0.1V47
			c-0.1,0-0.2,0-0.3,0s-0.2,0-0.3,0c-0.2,0-0.4,0-0.6-0.1c-0.1-0.1-0.3-0.2-0.3-0.3s-0.1-0.3-0.2-0.4c0-0.2,0-0.3,0-0.5h0
			c-0.2,0.3-0.3,0.5-0.5,0.7c-0.2,0.2-0.4,0.4-0.6,0.5c-0.2,0.1-0.5,0.2-0.7,0.3c-0.3,0.1-0.6,0.1-1,0.1c-0.4,0-0.7,0-1-0.1
			s-0.6-0.2-0.8-0.4s-0.4-0.4-0.6-0.7c-0.1-0.3-0.2-0.6-0.2-1c0-0.5,0.1-1,0.4-1.3c0.2-0.3,0.6-0.5,1-0.7c0.4-0.2,0.8-0.3,1.3-0.3
			c0.5-0.1,1-0.1,1.5-0.2c0.2,0,0.4,0,0.5-0.1s0.3-0.1,0.4-0.2c0.1-0.1,0.2-0.2,0.2-0.3c0.1-0.1,0.1-0.3,0.1-0.5
			c0-0.3-0.1-0.6-0.2-0.8c-0.1-0.2-0.3-0.4-0.4-0.5c-0.2-0.1-0.4-0.2-0.6-0.2c-0.2,0-0.5-0.1-0.8-0.1c-0.6,0-1.1,0.1-1.5,0.4
			c-0.4,0.3-0.6,0.7-0.6,1.4h-0.9C108.8,41.2,108.9,40.8,109.1,40.5z M113.8,42.8c-0.1,0.1-0.2,0.2-0.3,0.2c-0.2,0-0.3,0.1-0.5,0.1
			c-0.4,0.1-0.8,0.1-1.2,0.2c-0.4,0.1-0.8,0.1-1.2,0.2s-0.6,0.3-0.9,0.5c-0.2,0.2-0.3,0.5-0.3,0.9c0,0.2,0,0.5,0.1,0.6
			c0.1,0.2,0.2,0.3,0.4,0.5c0.2,0.1,0.3,0.2,0.6,0.3c0.2,0.1,0.4,0.1,0.6,0.1c0.4,0,0.7-0.1,1-0.2c0.3-0.1,0.6-0.3,0.9-0.5
			c0.2-0.2,0.4-0.5,0.6-0.8s0.2-0.6,0.2-1L113.8,42.8L113.8,42.8z"/>
		<path class="st0" d="M122.9,47v-1.5h0c-0.1,0.3-0.2,0.5-0.4,0.7c-0.2,0.2-0.4,0.4-0.7,0.5c-0.3,0.1-0.5,0.3-0.8,0.3
			c-0.3,0.1-0.6,0.1-0.8,0.1c-0.6,0-1.1-0.1-1.5-0.3c-0.4-0.2-0.8-0.5-1.1-0.9c-0.3-0.4-0.5-0.8-0.6-1.3c-0.1-0.5-0.2-1-0.2-1.6
			c0-0.6,0.1-1.1,0.2-1.6c0.1-0.5,0.4-0.9,0.6-1.3c0.3-0.4,0.7-0.7,1.1-0.9c0.4-0.2,0.9-0.3,1.5-0.3c0.3,0,0.6,0,0.8,0.1
			c0.3,0.1,0.5,0.2,0.8,0.3c0.2,0.1,0.5,0.3,0.6,0.5c0.2,0.2,0.3,0.5,0.4,0.7h0v-4.5h0.9V47H122.9z M117.7,44.4
			c0.1,0.4,0.2,0.7,0.5,1.1c0.2,0.3,0.5,0.6,0.8,0.8c0.3,0.2,0.7,0.3,1.2,0.3c0.5,0,0.9-0.1,1.3-0.3s0.6-0.4,0.8-0.8
			c0.2-0.3,0.4-0.7,0.5-1.1c0.1-0.4,0.1-0.8,0.1-1.2c0-0.4,0-0.8-0.1-1.2c-0.1-0.4-0.3-0.7-0.5-1.1c-0.2-0.3-0.5-0.6-0.8-0.8
			c-0.3-0.2-0.8-0.3-1.3-0.3c-0.5,0-0.8,0.1-1.2,0.3c-0.3,0.2-0.6,0.4-0.8,0.8s-0.4,0.7-0.5,1.1c-0.1,0.4-0.1,0.8-0.1,1.2
			C117.6,43.6,117.6,44,117.7,44.4z"/>
		<path class="st0" d="M129.4,36.1h0.8l-4.6,11.2h-0.8L129.4,36.1z"/>
		<path class="st0" d="M132.1,39.3v1.3h0c0.2-0.5,0.5-0.8,1-1.1c0.5-0.3,1-0.4,1.5-0.4c0.5,0,1,0.1,1.4,0.2c0.4,0.1,0.7,0.3,0.9,0.6
			s0.4,0.6,0.5,0.9c0.1,0.4,0.1,0.8,0.1,1.2v5h-0.9v-4.8c0-0.3,0-0.6-0.1-0.9c-0.1-0.3-0.2-0.5-0.3-0.7c-0.2-0.2-0.4-0.4-0.6-0.5
			s-0.6-0.2-1-0.2s-0.7,0.1-1,0.2c-0.3,0.1-0.5,0.3-0.8,0.6c-0.2,0.2-0.4,0.5-0.5,0.8s-0.2,0.7-0.2,1.1V47h-0.9v-7.8H132.1z"/>
		<path class="st0" d="M140.3,44.5c0.1,0.4,0.2,0.7,0.5,1c0.2,0.3,0.5,0.5,0.8,0.7c0.3,0.2,0.7,0.3,1.2,0.3c0.7,0,1.2-0.2,1.6-0.5
			c0.4-0.4,0.7-0.8,0.8-1.4h0.9c-0.2,0.9-0.6,1.6-1.1,2c-0.5,0.5-1.3,0.7-2.3,0.7c-0.6,0-1.1-0.1-1.6-0.3c-0.4-0.2-0.8-0.5-1.1-0.9
			c-0.3-0.4-0.5-0.8-0.6-1.3c-0.1-0.5-0.2-1-0.2-1.6c0-0.5,0.1-1,0.2-1.5c0.1-0.5,0.3-0.9,0.6-1.3c0.3-0.4,0.6-0.7,1.1-0.9
			c0.4-0.2,1-0.4,1.6-0.4c0.6,0,1.2,0.1,1.6,0.4c0.4,0.3,0.8,0.6,1.1,1c0.3,0.4,0.5,0.9,0.6,1.4c0.1,0.5,0.2,1.1,0.2,1.6h-6
			C140.1,43.8,140.2,44.1,140.3,44.5z M145,41.6c-0.1-0.3-0.3-0.6-0.5-0.9c-0.2-0.3-0.5-0.5-0.8-0.6c-0.3-0.2-0.6-0.2-1-0.2
			c-0.4,0-0.7,0.1-1,0.2s-0.6,0.4-0.8,0.6c-0.2,0.3-0.4,0.6-0.5,0.9c-0.1,0.3-0.2,0.7-0.2,1h5C145.1,42.3,145.1,41.9,145,41.6z"/>
		<path class="st0" d="M148.5,39.3v1.8h0c0.2-0.6,0.6-1.1,1.1-1.5c0.5-0.3,1.1-0.5,1.8-0.5v0.9c-0.4,0-0.8,0-1.2,0.2
			c-0.4,0.1-0.7,0.3-0.9,0.6c-0.3,0.3-0.5,0.5-0.6,0.9s-0.2,0.7-0.2,1.1V47h-0.9v-7.8H148.5z"/>
		<path class="st0" d="M152.9,39.3l2.4,6.8h0l2.4-6.8h1l-2.9,7.8h-1l-3-7.8H152.9z"/>
		<path class="st0" d="M160.9,36.3v1.5H160v-1.5H160.9z M160.9,39.3V47H160v-7.8H160.9z"/>
		<path class="st0" d="M167.9,39.4c0.5,0.2,0.8,0.5,1.2,0.9c0.3,0.4,0.5,0.8,0.7,1.3s0.2,1,0.2,1.6c0,0.6-0.1,1.1-0.2,1.6
			s-0.4,0.9-0.7,1.3s-0.7,0.7-1.2,0.9c-0.5,0.2-1,0.3-1.6,0.3c-0.6,0-1.1-0.1-1.6-0.3c-0.5-0.2-0.8-0.5-1.2-0.9s-0.5-0.8-0.7-1.3
			c-0.2-0.5-0.2-1-0.2-1.6c0-0.6,0.1-1.1,0.2-1.6c0.2-0.5,0.4-0.9,0.7-1.3c0.3-0.4,0.7-0.7,1.2-0.9s1-0.3,1.6-0.3
			C166.9,39.1,167.4,39.2,167.9,39.4z M165.1,40.1c-0.3,0.2-0.6,0.4-0.8,0.8c-0.2,0.3-0.4,0.7-0.5,1.1s-0.2,0.8-0.2,1.2
			s0.1,0.8,0.2,1.2c0.1,0.4,0.3,0.8,0.5,1.1c0.2,0.3,0.5,0.6,0.8,0.8s0.7,0.3,1.2,0.3c0.5,0,0.8-0.1,1.2-0.3
			c0.3-0.2,0.6-0.4,0.8-0.8c0.2-0.3,0.4-0.7,0.5-1.1c0.1-0.4,0.2-0.8,0.2-1.2s-0.1-0.8-0.2-1.2s-0.3-0.7-0.5-1.1
			c-0.2-0.3-0.5-0.6-0.8-0.8c-0.3-0.2-0.7-0.3-1.2-0.3C165.9,39.9,165.5,40,165.1,40.1z"/>
		<path class="st0" d="M176.2,40.8c-0.1-0.2-0.3-0.4-0.4-0.5c-0.2-0.1-0.4-0.2-0.6-0.3c-0.2-0.1-0.5-0.1-0.8-0.1
			c-0.2,0-0.4,0-0.6,0.1c-0.2,0-0.4,0.1-0.6,0.2c-0.2,0.1-0.3,0.2-0.4,0.4c-0.1,0.2-0.2,0.4-0.2,0.6c0,0.2,0.1,0.4,0.2,0.5
			c0.1,0.1,0.2,0.3,0.4,0.4c0.2,0.1,0.3,0.2,0.5,0.2c0.2,0.1,0.4,0.1,0.5,0.2l1.3,0.3c0.3,0,0.5,0.1,0.8,0.2
			c0.3,0.1,0.5,0.2,0.7,0.4c0.2,0.2,0.4,0.4,0.5,0.6c0.1,0.3,0.2,0.5,0.2,0.9c0,0.4-0.1,0.8-0.3,1.1c-0.2,0.3-0.4,0.5-0.7,0.7
			c-0.3,0.2-0.6,0.3-1,0.4c-0.4,0.1-0.7,0.1-1.1,0.1c-0.9,0-1.7-0.2-2.2-0.6c-0.6-0.4-0.9-1.1-1-2.1h0.9c0,0.6,0.3,1.1,0.7,1.5
			c0.4,0.3,1,0.5,1.6,0.5c0.2,0,0.5,0,0.7-0.1c0.2,0,0.5-0.1,0.7-0.3c0.2-0.1,0.4-0.3,0.5-0.5c0.1-0.2,0.2-0.4,0.2-0.7
			c0-0.2,0-0.4-0.1-0.6c-0.1-0.2-0.2-0.3-0.4-0.4c-0.2-0.1-0.3-0.2-0.5-0.3c-0.2-0.1-0.4-0.1-0.6-0.2l-1.2-0.3
			c-0.3-0.1-0.6-0.2-0.9-0.3c-0.3-0.1-0.5-0.2-0.7-0.4s-0.3-0.3-0.5-0.6s-0.2-0.5-0.2-0.8c0-0.4,0.1-0.7,0.3-1
			c0.2-0.3,0.4-0.5,0.7-0.7c0.3-0.2,0.6-0.3,0.9-0.4s0.7-0.1,1-0.1c0.4,0,0.8,0.1,1.1,0.2c0.3,0.1,0.6,0.3,0.9,0.5
			c0.3,0.2,0.5,0.5,0.6,0.8c0.1,0.3,0.2,0.7,0.3,1.1h-0.9C176.4,41.3,176.3,41,176.2,40.8z"/>
		<path class="st0" d="M180.2,36.3v1.5h-0.9v-1.5H180.2z M180.2,39.3V47h-0.9v-7.8H180.2z"/>
		<path class="st0" d="M186.8,40.8c-0.1-0.2-0.3-0.4-0.4-0.5S186,40,185.7,40c-0.2-0.1-0.5-0.1-0.8-0.1c-0.2,0-0.4,0-0.6,0.1
			c-0.2,0-0.4,0.1-0.6,0.2c-0.2,0.1-0.3,0.2-0.4,0.4c-0.1,0.2-0.2,0.4-0.2,0.6c0,0.2,0.1,0.4,0.2,0.5s0.2,0.3,0.4,0.4
			c0.2,0.1,0.3,0.2,0.5,0.2c0.2,0.1,0.4,0.1,0.5,0.2l1.3,0.3c0.3,0,0.5,0.1,0.8,0.2c0.3,0.1,0.5,0.2,0.7,0.4s0.4,0.4,0.5,0.6
			c0.1,0.3,0.2,0.5,0.2,0.9c0,0.4-0.1,0.8-0.3,1.1c-0.2,0.3-0.4,0.5-0.7,0.7c-0.3,0.2-0.6,0.3-1,0.4s-0.7,0.1-1.1,0.1
			c-0.9,0-1.7-0.2-2.2-0.6c-0.6-0.4-0.9-1.1-1-2.1h0.9c0,0.6,0.3,1.1,0.7,1.5c0.4,0.3,1,0.5,1.6,0.5c0.2,0,0.5,0,0.7-0.1
			c0.2,0,0.5-0.1,0.7-0.3c0.2-0.1,0.4-0.3,0.5-0.5c0.1-0.2,0.2-0.4,0.2-0.7c0-0.2,0-0.4-0.1-0.6c-0.1-0.2-0.2-0.3-0.4-0.4
			c-0.2-0.1-0.3-0.2-0.5-0.3s-0.4-0.1-0.6-0.2l-1.2-0.3c-0.3-0.1-0.6-0.2-0.9-0.3c-0.3-0.1-0.5-0.2-0.7-0.4
			c-0.2-0.2-0.3-0.3-0.5-0.6s-0.2-0.5-0.2-0.8c0-0.4,0.1-0.7,0.3-1c0.2-0.3,0.4-0.5,0.7-0.7c0.3-0.2,0.6-0.3,0.9-0.4s0.7-0.1,1-0.1
			c0.4,0,0.8,0.1,1.1,0.2c0.3,0.1,0.6,0.3,0.9,0.5c0.3,0.2,0.5,0.5,0.6,0.8s0.2,0.7,0.3,1.1H187C187,41.3,186.9,41,186.8,40.8z"/>
		<path class="st0" d="M190.7,39.3v1.3h0c0.3-0.5,0.6-0.9,1-1.1s0.9-0.4,1.6-0.4c0.5,0,1,0.1,1.4,0.4c0.4,0.3,0.7,0.6,0.8,1.1
			c0.2-0.5,0.6-0.9,1-1.1c0.5-0.3,0.9-0.4,1.4-0.4c1.7,0,2.6,0.9,2.6,2.7V47h-0.9v-5.2c0-0.6-0.1-1.1-0.4-1.5s-0.7-0.5-1.4-0.5
			c-0.4,0-0.8,0.1-1,0.2s-0.5,0.4-0.6,0.6s-0.3,0.6-0.3,0.9c-0.1,0.3-0.1,0.7-0.1,1V47h-0.9v-5.3c0-0.3,0-0.5-0.1-0.7
			c-0.1-0.2-0.1-0.4-0.3-0.6c-0.1-0.2-0.3-0.3-0.5-0.4c-0.2-0.1-0.5-0.2-0.8-0.2c-0.4,0-0.7,0.1-1,0.2c-0.3,0.1-0.5,0.3-0.7,0.6
			c-0.2,0.3-0.3,0.6-0.4,0.9c-0.1,0.3-0.1,0.7-0.1,1.1V47h-0.9v-7.8H190.7z"/>
		<path class="st0" d="M207.5,39.4c0.5,0.2,0.8,0.5,1.1,0.9c0.3,0.4,0.5,0.8,0.7,1.3s0.2,1,0.2,1.6c0,0.6-0.1,1.1-0.2,1.6
			s-0.4,0.9-0.7,1.3s-0.7,0.7-1.1,0.9c-0.5,0.2-1,0.3-1.6,0.3c-0.6,0-1.1-0.1-1.6-0.3c-0.5-0.2-0.8-0.5-1.1-0.9
			c-0.3-0.4-0.5-0.8-0.7-1.3s-0.2-1-0.2-1.6c0-0.6,0.1-1.1,0.2-1.6s0.4-0.9,0.7-1.3c0.3-0.4,0.7-0.7,1.1-0.9s1-0.3,1.6-0.3
			C206.6,39.1,207.1,39.2,207.5,39.4z M204.8,40.1c-0.3,0.2-0.6,0.4-0.8,0.8s-0.4,0.7-0.5,1.1c-0.1,0.4-0.2,0.8-0.2,1.2
			s0.1,0.8,0.2,1.2c0.1,0.4,0.3,0.8,0.5,1.1s0.5,0.6,0.8,0.8s0.7,0.3,1.2,0.3s0.8-0.1,1.2-0.3s0.6-0.4,0.8-0.8s0.4-0.7,0.5-1.1
			c0.1-0.4,0.2-0.8,0.2-1.2s-0.1-0.8-0.2-1.2s-0.3-0.7-0.5-1.1s-0.5-0.6-0.8-0.8s-0.7-0.3-1.2-0.3S205.1,40,204.8,40.1z"/>
		<path class="st0" d="M0.2,58.7c0.1-0.3,0.3-0.6,0.6-0.8c0.2-0.2,0.5-0.4,0.8-0.6C2,57.1,2.3,57,2.7,57c0.4,0,0.7,0.1,1,0.2
			c0.3,0.1,0.6,0.3,0.9,0.6c0.2,0.2,0.4,0.5,0.6,0.8c0.1,0.3,0.2,0.7,0.2,1c0,0.4-0.1,0.7-0.2,1c-0.1,0.3-0.3,0.6-0.6,0.9
			c-0.2,0.2-0.5,0.4-0.9,0.6c-0.3,0.1-0.7,0.2-1,0.2c-0.4,0-0.7-0.1-1-0.2c-0.3-0.1-0.6-0.3-0.8-0.6c-0.2-0.2-0.4-0.5-0.6-0.9
			c-0.1-0.3-0.2-0.7-0.2-1C0,59.3,0.1,59,0.2,58.7z"/>
		<path class="st0" d="M16,54.3c1.6,0,2.9,0.5,3.7,1.4s1.2,2.2,1.2,4s-0.4,3.1-1.2,4c-0.8,0.9-2.1,1.3-3.7,1.4h-3.7V54.3H16z
			 M15.5,64.2c0.8,0,1.4-0.1,2-0.2s1-0.4,1.4-0.8c0.4-0.4,0.6-0.8,0.8-1.4c0.2-0.6,0.3-1.3,0.3-2.1s-0.1-1.5-0.3-2.1
			c-0.2-0.6-0.4-1-0.8-1.4c-0.4-0.4-0.8-0.6-1.4-0.8s-1.2-0.2-2-0.2h-2.2v9H15.5z"/>
		<path class="st0" d="M23.7,54.3v1.5h-0.9v-1.5H23.7z M23.7,57.3v7.8h-0.9v-7.8H23.7z"/>
		<path class="st0" d="M27.3,58.1v7h-0.9v-7H25v-0.8h1.3v-0.7c0-0.3,0-0.6,0.1-0.9c0-0.3,0.1-0.5,0.3-0.7s0.3-0.4,0.6-0.5
			c0.2-0.1,0.6-0.2,0.9-0.2c0.1,0,0.3,0,0.4,0c0.1,0,0.3,0,0.4,0v0.8c-0.1,0-0.3,0-0.4-0.1c-0.1,0-0.2,0-0.3,0c-0.3,0-0.5,0-0.6,0.1
			c-0.1,0.1-0.2,0.2-0.3,0.3c-0.1,0.1-0.1,0.3-0.1,0.5s0,0.4,0,0.6v0.7h1.5v0.8H27.3z"/>
		<path class="st0" d="M31,54.3v1.5H30v-1.5H31z M31,57.3v7.8H30v-7.8H31z"/>
		<path class="st0" d="M37.8,58.4c-0.4-0.3-0.8-0.5-1.5-0.5c-0.5,0-0.8,0.1-1.2,0.3s-0.6,0.4-0.8,0.8c-0.2,0.3-0.4,0.7-0.5,1.1
			s-0.2,0.8-0.2,1.2s0.1,0.8,0.2,1.2c0.1,0.4,0.3,0.8,0.5,1.1c0.2,0.3,0.5,0.6,0.8,0.8s0.7,0.3,1.2,0.3c0.3,0,0.6-0.1,0.8-0.2
			s0.5-0.3,0.7-0.5c0.2-0.2,0.4-0.4,0.5-0.7c0.1-0.3,0.2-0.6,0.2-0.9h0.9c-0.1,0.9-0.5,1.7-1,2.2s-1.3,0.8-2.2,0.8
			c-0.6,0-1.1-0.1-1.6-0.3c-0.5-0.2-0.8-0.5-1.2-0.9s-0.5-0.8-0.7-1.3c-0.2-0.5-0.2-1-0.2-1.6c0-0.6,0.1-1.1,0.2-1.6
			c0.2-0.5,0.4-0.9,0.7-1.3c0.3-0.4,0.7-0.7,1.2-0.9s1-0.3,1.6-0.3c0.8,0,1.5,0.2,2.1,0.7s0.9,1.1,1,2h-0.9
			C38.4,59.2,38.2,58.7,37.8,58.4z"/>
		<path class="st0" d="M46.6,65.1v-1.4h0c-0.3,0.5-0.6,0.9-1.1,1.2c-0.5,0.3-1,0.4-1.6,0.4c-0.5,0-0.9-0.1-1.3-0.2
			c-0.3-0.1-0.6-0.3-0.8-0.6c-0.2-0.3-0.4-0.6-0.5-0.9c-0.1-0.4-0.2-0.8-0.2-1.2v-5h0.9v5.1c0,0.7,0.2,1.2,0.5,1.6
			c0.3,0.4,0.8,0.5,1.6,0.5c0.4,0,0.8-0.1,1.1-0.3c0.3-0.2,0.5-0.4,0.7-0.7s0.3-0.6,0.4-1s0.1-0.8,0.1-1.2v-4.1h0.9v7.8H46.6z"/>
		<path class="st0" d="M50.5,54.3v10.7h-0.9V54.3H50.5z"/>
		<path class="st0" d="M55.7,57.3v0.8h-1.6v5.2c0,0.3,0,0.6,0.1,0.7c0.1,0.2,0.3,0.3,0.6,0.3c0.3,0,0.5,0,0.8,0v0.8
			c-0.1,0-0.3,0-0.4,0c-0.1,0-0.3,0-0.4,0c-0.6,0-1.1-0.1-1.3-0.4c-0.3-0.2-0.4-0.7-0.4-1.4v-5.3h-1.4v-0.8h1.4V55h0.9v2.3H55.7z"/>
		<path class="st0" d="M57.6,58.5c0.2-0.3,0.4-0.6,0.7-0.8c0.3-0.2,0.6-0.4,1-0.5c0.4-0.1,0.8-0.2,1.2-0.2c0.3,0,0.7,0,1,0.1
			c0.3,0.1,0.6,0.2,0.9,0.4c0.3,0.2,0.5,0.4,0.7,0.8c0.2,0.3,0.3,0.7,0.3,1.3v4.1c0,0.4,0.2,0.6,0.6,0.6c0.1,0,0.2,0,0.3-0.1V65
			c-0.1,0-0.2,0-0.3,0s-0.2,0-0.3,0c-0.2,0-0.4,0-0.6-0.1c-0.1-0.1-0.3-0.2-0.3-0.3s-0.1-0.3-0.2-0.4c0-0.2,0-0.3,0-0.5h0
			c-0.2,0.3-0.3,0.5-0.5,0.7c-0.2,0.2-0.4,0.4-0.6,0.5c-0.2,0.1-0.5,0.2-0.7,0.3c-0.3,0.1-0.6,0.1-1,0.1c-0.4,0-0.7,0-1-0.1
			s-0.6-0.2-0.8-0.4s-0.4-0.4-0.6-0.7C57,63.8,57,63.4,57,63c0-0.5,0.1-1,0.4-1.3c0.2-0.3,0.6-0.5,1-0.7c0.4-0.2,0.8-0.3,1.3-0.3
			c0.5-0.1,1-0.1,1.5-0.2c0.2,0,0.4,0,0.5-0.1s0.3-0.1,0.4-0.2c0.1-0.1,0.2-0.2,0.2-0.3c0.1-0.1,0.1-0.3,0.1-0.5
			c0-0.3-0.1-0.6-0.2-0.8c-0.1-0.2-0.3-0.4-0.4-0.5c-0.2-0.1-0.4-0.2-0.6-0.2c-0.2,0-0.5-0.1-0.8-0.1c-0.6,0-1.1,0.1-1.5,0.4
			c-0.4,0.3-0.6,0.7-0.6,1.4h-0.9C57.3,59.2,57.4,58.9,57.6,58.5z M62.3,60.8C62.3,61,62.1,61,62,61.1c-0.2,0-0.3,0.1-0.5,0.1
			c-0.4,0.1-0.8,0.1-1.2,0.2c-0.4,0.1-0.8,0.1-1.2,0.2s-0.6,0.3-0.9,0.5c-0.2,0.2-0.3,0.5-0.3,0.9c0,0.2,0,0.5,0.1,0.6
			c0.1,0.2,0.2,0.3,0.4,0.5c0.2,0.1,0.3,0.2,0.6,0.3c0.2,0.1,0.4,0.1,0.6,0.1c0.4,0,0.7-0.1,1-0.2c0.3-0.1,0.6-0.3,0.9-0.5
			c0.2-0.2,0.4-0.5,0.6-0.8s0.2-0.6,0.2-1L62.3,60.8L62.3,60.8z"/>
		<path class="st0" d="M71.4,65.1v-1.5h0c-0.1,0.3-0.2,0.5-0.4,0.7c-0.2,0.2-0.4,0.4-0.7,0.5c-0.3,0.1-0.5,0.3-0.8,0.3
			c-0.3,0.1-0.6,0.1-0.8,0.1c-0.6,0-1.1-0.1-1.5-0.3c-0.4-0.2-0.8-0.5-1.1-0.9c-0.3-0.4-0.5-0.8-0.6-1.3c-0.1-0.5-0.2-1-0.2-1.6
			c0-0.6,0.1-1.1,0.2-1.6c0.1-0.5,0.4-0.9,0.6-1.3c0.3-0.4,0.7-0.7,1.1-0.9c0.4-0.2,0.9-0.3,1.5-0.3c0.3,0,0.6,0,0.8,0.1
			c0.3,0.1,0.5,0.2,0.8,0.3c0.2,0.1,0.5,0.3,0.6,0.5c0.2,0.2,0.3,0.5,0.4,0.7h0v-4.5h0.9v10.7H71.4z M66.2,62.4
			c0.1,0.4,0.2,0.7,0.5,1.1c0.2,0.3,0.5,0.6,0.8,0.8c0.3,0.2,0.7,0.3,1.2,0.3c0.5,0,0.9-0.1,1.3-0.3s0.6-0.4,0.8-0.8
			c0.2-0.3,0.4-0.7,0.5-1.1c0.1-0.4,0.1-0.8,0.1-1.2c0-0.4,0-0.8-0.1-1.2c-0.1-0.4-0.3-0.7-0.5-1.1c-0.2-0.3-0.5-0.6-0.8-0.8
			c-0.3-0.2-0.8-0.3-1.3-0.3c-0.5,0-0.8,0.1-1.2,0.3c-0.3,0.2-0.6,0.4-0.8,0.8s-0.4,0.7-0.5,1.1c-0.1,0.4-0.1,0.8-0.1,1.2
			C66.1,61.6,66.2,62,66.2,62.4z"/>
		<path class="st0" d="M79.6,62.5c0.1,0.4,0.2,0.7,0.5,1c0.2,0.3,0.5,0.5,0.8,0.7c0.3,0.2,0.7,0.3,1.2,0.3c0.7,0,1.2-0.2,1.6-0.5
			c0.4-0.4,0.7-0.8,0.8-1.4h0.9c-0.2,0.9-0.6,1.6-1.1,2c-0.5,0.5-1.3,0.7-2.3,0.7c-0.6,0-1.1-0.1-1.6-0.3c-0.4-0.2-0.8-0.5-1.1-0.9
			c-0.3-0.4-0.5-0.8-0.6-1.3s-0.2-1-0.2-1.6c0-0.5,0.1-1,0.2-1.5s0.3-0.9,0.6-1.3c0.3-0.4,0.6-0.7,1.1-0.9s1-0.4,1.6-0.4
			c0.6,0,1.2,0.1,1.6,0.4c0.4,0.3,0.8,0.6,1.1,1c0.3,0.4,0.5,0.9,0.6,1.4c0.1,0.5,0.2,1.1,0.2,1.6h-6C79.5,61.8,79.5,62.2,79.6,62.5
			z M84.3,59.6c-0.1-0.3-0.3-0.6-0.5-0.9c-0.2-0.3-0.5-0.5-0.8-0.6s-0.6-0.2-1-0.2c-0.4,0-0.7,0.1-1,0.2s-0.6,0.4-0.8,0.6
			c-0.2,0.3-0.4,0.6-0.5,0.9c-0.1,0.3-0.2,0.7-0.2,1h5C84.5,60.3,84.4,60,84.3,59.6z"/>
		<path class="st0" d="M87.9,57.3v1.3h0c0.2-0.5,0.5-0.8,1-1.1c0.5-0.3,1-0.4,1.5-0.4c0.5,0,1,0.1,1.4,0.2s0.7,0.3,0.9,0.6
			c0.2,0.3,0.4,0.6,0.5,0.9c0.1,0.4,0.1,0.8,0.1,1.2v5h-0.9v-4.8c0-0.3,0-0.6-0.1-0.9c-0.1-0.3-0.2-0.5-0.3-0.7
			c-0.2-0.2-0.4-0.4-0.6-0.5c-0.3-0.1-0.6-0.2-1-0.2s-0.7,0.1-1,0.2c-0.3,0.1-0.5,0.3-0.8,0.6c-0.2,0.2-0.4,0.5-0.5,0.8
			s-0.2,0.7-0.2,1.1v4.5H87v-7.8H87.9z"/>
		<path class="st0" d="M100.8,54.3v10.7h-0.9V54.3H100.8z"/>
		<path class="st0" d="M103.1,58.5c0.2-0.3,0.4-0.6,0.7-0.8c0.3-0.2,0.6-0.4,1-0.5c0.4-0.1,0.8-0.2,1.2-0.2c0.3,0,0.7,0,1,0.1
			c0.3,0.1,0.6,0.2,0.9,0.4c0.3,0.2,0.5,0.4,0.7,0.8c0.2,0.3,0.3,0.7,0.3,1.3v4.1c0,0.4,0.2,0.6,0.6,0.6c0.1,0,0.2,0,0.3-0.1V65
			c-0.1,0-0.2,0-0.3,0s-0.2,0-0.3,0c-0.2,0-0.4,0-0.6-0.1c-0.1-0.1-0.3-0.2-0.3-0.3s-0.1-0.3-0.2-0.4c0-0.2,0-0.3,0-0.5h0
			c-0.2,0.3-0.3,0.5-0.5,0.7c-0.2,0.2-0.4,0.4-0.6,0.5c-0.2,0.1-0.5,0.2-0.7,0.3c-0.3,0.1-0.6,0.1-1,0.1c-0.4,0-0.7,0-1-0.1
			s-0.6-0.2-0.8-0.4s-0.4-0.4-0.6-0.7c-0.1-0.3-0.2-0.6-0.2-1c0-0.5,0.1-1,0.4-1.3c0.2-0.3,0.6-0.5,1-0.7c0.4-0.2,0.8-0.3,1.3-0.3
			c0.5-0.1,1-0.1,1.5-0.2c0.2,0,0.4,0,0.5-0.1s0.3-0.1,0.4-0.2c0.1-0.1,0.2-0.2,0.2-0.3c0.1-0.1,0.1-0.3,0.1-0.5
			c0-0.3-0.1-0.6-0.2-0.8c-0.1-0.2-0.3-0.4-0.4-0.5c-0.2-0.1-0.4-0.2-0.6-0.2c-0.2,0-0.5-0.1-0.8-0.1c-0.6,0-1.1,0.1-1.5,0.4
			c-0.4,0.3-0.6,0.7-0.6,1.4h-0.9C102.9,59.2,103,58.9,103.1,58.5z M107.9,60.8c-0.1,0.1-0.2,0.2-0.3,0.2c-0.2,0-0.3,0.1-0.5,0.1
			c-0.4,0.1-0.8,0.1-1.2,0.2c-0.4,0.1-0.8,0.1-1.2,0.2s-0.6,0.3-0.9,0.5c-0.2,0.2-0.3,0.5-0.3,0.9c0,0.2,0,0.5,0.1,0.6
			c0.1,0.2,0.2,0.3,0.4,0.5c0.2,0.1,0.3,0.2,0.6,0.3c0.2,0.1,0.4,0.1,0.6,0.1c0.4,0,0.7-0.1,1-0.2c0.3-0.1,0.6-0.3,0.9-0.5
			c0.2-0.2,0.4-0.5,0.6-0.8s0.2-0.6,0.2-1L107.9,60.8L107.9,60.8z"/>
		<path class="st0" d="M120.3,58.4c-0.4-0.3-0.8-0.5-1.5-0.5c-0.5,0-0.8,0.1-1.2,0.3s-0.6,0.4-0.8,0.8c-0.2,0.3-0.4,0.7-0.5,1.1
			s-0.2,0.8-0.2,1.2s0.1,0.8,0.2,1.2c0.1,0.4,0.3,0.8,0.5,1.1c0.2,0.3,0.5,0.6,0.8,0.8s0.7,0.3,1.2,0.3c0.3,0,0.6-0.1,0.8-0.2
			s0.5-0.3,0.7-0.5c0.2-0.2,0.4-0.4,0.5-0.7c0.1-0.3,0.2-0.6,0.2-0.9h0.9c-0.1,0.9-0.5,1.7-1,2.2s-1.3,0.8-2.2,0.8
			c-0.6,0-1.1-0.1-1.6-0.3c-0.5-0.2-0.8-0.5-1.2-0.9s-0.5-0.8-0.7-1.3c-0.2-0.5-0.2-1-0.2-1.6c0-0.6,0.1-1.1,0.2-1.6
			c0.2-0.5,0.4-0.9,0.7-1.3c0.3-0.4,0.7-0.7,1.2-0.9s1-0.3,1.6-0.3c0.8,0,1.5,0.2,2.1,0.7s0.9,1.1,1,2H121
			C120.9,59.2,120.6,58.7,120.3,58.4z"/>
		<path class="st0" d="M128.5,57.4c0.5,0.2,0.8,0.5,1.2,0.9c0.3,0.4,0.5,0.8,0.7,1.3s0.2,1,0.2,1.6c0,0.6-0.1,1.1-0.2,1.6
			s-0.4,0.9-0.7,1.3s-0.7,0.7-1.2,0.9c-0.5,0.2-1,0.3-1.6,0.3c-0.6,0-1.1-0.1-1.6-0.3c-0.5-0.2-0.8-0.5-1.2-0.9s-0.5-0.8-0.7-1.3
			c-0.2-0.5-0.2-1-0.2-1.6c0-0.6,0.1-1.1,0.2-1.6c0.2-0.5,0.4-0.9,0.7-1.3c0.3-0.4,0.7-0.7,1.2-0.9s1-0.3,1.6-0.3
			C127.5,57.1,128,57.2,128.5,57.4z M125.7,58.2c-0.3,0.2-0.6,0.4-0.8,0.8c-0.2,0.3-0.4,0.7-0.5,1.1s-0.2,0.8-0.2,1.2
			s0.1,0.8,0.2,1.2c0.1,0.4,0.3,0.8,0.5,1.1c0.2,0.3,0.5,0.6,0.8,0.8s0.7,0.3,1.2,0.3c0.5,0,0.8-0.1,1.2-0.3
			c0.3-0.2,0.6-0.4,0.8-0.8c0.2-0.3,0.4-0.7,0.5-1.1c0.1-0.4,0.2-0.8,0.2-1.2s-0.1-0.8-0.2-1.2s-0.3-0.7-0.5-1.1
			c-0.2-0.3-0.5-0.6-0.8-0.8c-0.3-0.2-0.7-0.3-1.2-0.3C126.4,57.9,126.1,58,125.7,58.2z"/>
		<path class="st0" d="M133.2,57.3v1.3h0c0.2-0.5,0.5-0.8,1-1.1c0.5-0.3,1-0.4,1.5-0.4c0.5,0,1,0.1,1.4,0.2c0.4,0.1,0.7,0.3,0.9,0.6
			s0.4,0.6,0.5,0.9c0.1,0.4,0.1,0.8,0.1,1.2v5h-0.9v-4.8c0-0.3,0-0.6-0.1-0.9c-0.1-0.3-0.2-0.5-0.3-0.7c-0.2-0.2-0.4-0.4-0.6-0.5
			s-0.6-0.2-1-0.2s-0.7,0.1-1,0.2c-0.3,0.1-0.5,0.3-0.8,0.6c-0.2,0.2-0.4,0.5-0.5,0.8s-0.2,0.7-0.2,1.1v4.5h-0.9v-7.8H133.2z"/>
		<path class="st0" d="M145.4,58.4c-0.4-0.3-0.8-0.5-1.5-0.5c-0.5,0-0.8,0.1-1.2,0.3s-0.6,0.4-0.8,0.8s-0.4,0.7-0.5,1.1
			c-0.1,0.4-0.2,0.8-0.2,1.2s0.1,0.8,0.2,1.2c0.1,0.4,0.3,0.8,0.5,1.1s0.5,0.6,0.8,0.8s0.7,0.3,1.2,0.3c0.3,0,0.6-0.1,0.8-0.2
			c0.3-0.1,0.5-0.3,0.7-0.5c0.2-0.2,0.4-0.4,0.5-0.7c0.1-0.3,0.2-0.6,0.2-0.9h0.9c-0.1,0.9-0.5,1.7-1,2.2c-0.6,0.5-1.3,0.8-2.2,0.8
			c-0.6,0-1.1-0.1-1.6-0.3c-0.5-0.2-0.8-0.5-1.1-0.9c-0.3-0.4-0.5-0.8-0.7-1.3s-0.2-1-0.2-1.6c0-0.6,0.1-1.1,0.2-1.6
			s0.4-0.9,0.7-1.3c0.3-0.4,0.7-0.7,1.1-0.9s1-0.3,1.6-0.3c0.8,0,1.5,0.2,2.1,0.7s0.9,1.1,1,2h-0.9C146,59.2,145.8,58.7,145.4,58.4z
			"/>
		<path class="st0" d="M149.5,62.5c0.1,0.4,0.2,0.7,0.5,1c0.2,0.3,0.5,0.5,0.8,0.7c0.3,0.2,0.7,0.3,1.2,0.3c0.7,0,1.2-0.2,1.6-0.5
			c0.4-0.4,0.7-0.8,0.8-1.4h0.9c-0.2,0.9-0.6,1.6-1.1,2c-0.5,0.5-1.3,0.7-2.3,0.7c-0.6,0-1.1-0.1-1.6-0.3c-0.4-0.2-0.8-0.5-1.1-0.9
			c-0.3-0.4-0.5-0.8-0.6-1.3c-0.1-0.5-0.2-1-0.2-1.6c0-0.5,0.1-1,0.2-1.5c0.1-0.5,0.3-0.9,0.6-1.3c0.3-0.4,0.6-0.7,1.1-0.9
			c0.4-0.2,1-0.4,1.6-0.4c0.6,0,1.2,0.1,1.6,0.4c0.4,0.3,0.8,0.6,1.1,1c0.3,0.4,0.5,0.9,0.6,1.4c0.1,0.5,0.2,1.1,0.2,1.6h-6
			C149.3,61.8,149.4,62.2,149.5,62.5z M154.1,59.6c-0.1-0.3-0.3-0.6-0.5-0.9c-0.2-0.3-0.5-0.5-0.8-0.6c-0.3-0.2-0.6-0.2-1-0.2
			c-0.4,0-0.7,0.1-1,0.2s-0.6,0.4-0.8,0.6c-0.2,0.3-0.4,0.6-0.5,0.9c-0.1,0.3-0.2,0.7-0.2,1h5C154.3,60.3,154.3,60,154.1,59.6z"/>
		<path class="st0" d="M157.8,57.3v1.3h0c0.2-0.5,0.5-0.8,1-1.1c0.5-0.3,1-0.4,1.5-0.4c0.5,0,1,0.1,1.4,0.2c0.4,0.1,0.7,0.3,0.9,0.6
			s0.4,0.6,0.5,0.9c0.1,0.4,0.1,0.8,0.1,1.2v5h-0.9v-4.8c0-0.3,0-0.6-0.1-0.9c-0.1-0.3-0.2-0.5-0.3-0.7c-0.2-0.2-0.4-0.4-0.6-0.5
			s-0.6-0.2-1-0.2s-0.7,0.1-1,0.2c-0.3,0.1-0.5,0.3-0.8,0.6c-0.2,0.2-0.4,0.5-0.5,0.8s-0.2,0.7-0.2,1.1v4.5h-0.9v-7.8H157.8z"/>
		<path class="st0" d="M168.3,57.3v0.8h-1.6v5.2c0,0.3,0,0.6,0.1,0.7c0.1,0.2,0.3,0.3,0.6,0.3c0.3,0,0.5,0,0.8,0v0.8
			c-0.1,0-0.3,0-0.4,0c-0.1,0-0.3,0-0.4,0c-0.6,0-1.1-0.1-1.3-0.4c-0.3-0.2-0.4-0.7-0.4-1.4v-5.3h-1.4v-0.8h1.4V55h0.9v2.3H168.3z"
			/>
		<path class="st0" d="M170.9,57.3v1.8h0c0.2-0.6,0.6-1.1,1.1-1.5c0.5-0.3,1.1-0.5,1.8-0.5v0.9c-0.4,0-0.8,0-1.2,0.2
			c-0.4,0.1-0.7,0.3-0.9,0.6c-0.3,0.3-0.5,0.5-0.6,0.9s-0.2,0.7-0.2,1.1v4.1H170v-7.8H170.9z"/>
		<path class="st0" d="M175.2,58.5c0.2-0.3,0.4-0.6,0.7-0.8c0.3-0.2,0.6-0.4,1-0.5c0.4-0.1,0.8-0.2,1.2-0.2c0.3,0,0.7,0,1,0.1
			c0.3,0.1,0.6,0.2,0.9,0.4c0.3,0.2,0.5,0.4,0.7,0.8c0.2,0.3,0.3,0.7,0.3,1.3v4.1c0,0.4,0.2,0.6,0.6,0.6c0.1,0,0.2,0,0.3-0.1V65
			c-0.1,0-0.2,0-0.3,0s-0.2,0-0.3,0c-0.2,0-0.4,0-0.6-0.1s-0.3-0.2-0.3-0.3s-0.1-0.3-0.2-0.4c0-0.2,0-0.3,0-0.5h0
			c-0.2,0.3-0.3,0.5-0.5,0.7c-0.2,0.2-0.4,0.4-0.6,0.5c-0.2,0.1-0.5,0.2-0.7,0.3c-0.3,0.1-0.6,0.1-1,0.1c-0.4,0-0.7,0-1-0.1
			c-0.3-0.1-0.6-0.2-0.8-0.4s-0.4-0.4-0.6-0.7c-0.1-0.3-0.2-0.6-0.2-1c0-0.5,0.1-1,0.4-1.3c0.2-0.3,0.6-0.5,1-0.7
			c0.4-0.2,0.8-0.3,1.3-0.3c0.5-0.1,1-0.1,1.5-0.2c0.2,0,0.4,0,0.5-0.1c0.1,0,0.3-0.1,0.4-0.2c0.1-0.1,0.2-0.2,0.2-0.3
			c0.1-0.1,0.1-0.3,0.1-0.5c0-0.3-0.1-0.6-0.2-0.8s-0.3-0.4-0.4-0.5c-0.2-0.1-0.4-0.2-0.6-0.2c-0.2,0-0.5-0.1-0.8-0.1
			c-0.6,0-1.1,0.1-1.5,0.4c-0.4,0.3-0.6,0.7-0.6,1.4h-0.9C175,59.2,175.1,58.9,175.2,58.5z M180,60.8c-0.1,0.1-0.2,0.2-0.3,0.2
			c-0.2,0-0.3,0.1-0.5,0.1c-0.4,0.1-0.8,0.1-1.2,0.2c-0.4,0.1-0.8,0.1-1.2,0.2c-0.4,0.1-0.6,0.3-0.9,0.5c-0.2,0.2-0.3,0.5-0.3,0.9
			c0,0.2,0,0.5,0.1,0.6c0.1,0.2,0.2,0.3,0.4,0.5c0.2,0.1,0.3,0.2,0.6,0.3c0.2,0.1,0.4,0.1,0.6,0.1c0.4,0,0.7-0.1,1-0.2
			s0.6-0.3,0.9-0.5c0.2-0.2,0.4-0.5,0.6-0.8c0.1-0.3,0.2-0.6,0.2-1L180,60.8L180,60.8z"/>
		<path class="st0" d="M187.9,58.4c-0.4-0.3-0.8-0.5-1.5-0.5c-0.5,0-0.8,0.1-1.2,0.3s-0.6,0.4-0.8,0.8c-0.2,0.3-0.4,0.7-0.5,1.1
			s-0.2,0.8-0.2,1.2s0.1,0.8,0.2,1.2c0.1,0.4,0.3,0.8,0.5,1.1c0.2,0.3,0.5,0.6,0.8,0.8s0.7,0.3,1.2,0.3c0.3,0,0.6-0.1,0.8-0.2
			s0.5-0.3,0.7-0.5c0.2-0.2,0.4-0.4,0.5-0.7c0.1-0.3,0.2-0.6,0.2-0.9h0.9c-0.1,0.9-0.5,1.7-1,2.2s-1.3,0.8-2.2,0.8
			c-0.6,0-1.1-0.1-1.6-0.3c-0.5-0.2-0.8-0.5-1.2-0.9s-0.5-0.8-0.7-1.3c-0.2-0.5-0.2-1-0.2-1.6c0-0.6,0.1-1.1,0.2-1.6
			c0.2-0.5,0.4-0.9,0.7-1.3c0.3-0.4,0.7-0.7,1.2-0.9s1-0.3,1.6-0.3c0.8,0,1.5,0.2,2.1,0.7s0.9,1.1,1,2h-0.9
			C188.5,59.2,188.2,58.7,187.9,58.4z"/>
		<path class="st0" d="M192.2,54.3v1.5h-0.9v-1.5H192.2z M192.2,57.3v7.8h-0.9v-7.8H192.2z"/>
		<path class="st0" d="M199.2,57.4c0.5,0.2,0.8,0.5,1.2,0.9c0.3,0.4,0.5,0.8,0.7,1.3s0.2,1,0.2,1.6c0,0.6-0.1,1.1-0.2,1.6
			s-0.4,0.9-0.7,1.3s-0.7,0.7-1.2,0.9c-0.5,0.2-1,0.3-1.6,0.3c-0.6,0-1.1-0.1-1.6-0.3c-0.5-0.2-0.8-0.5-1.2-0.9s-0.5-0.8-0.7-1.3
			c-0.2-0.5-0.2-1-0.2-1.6c0-0.6,0.1-1.1,0.2-1.6c0.2-0.5,0.4-0.9,0.7-1.3c0.3-0.4,0.7-0.7,1.2-0.9s1-0.3,1.6-0.3
			C198.2,57.1,198.7,57.2,199.2,57.4z M196.4,58.2c-0.3,0.2-0.6,0.4-0.8,0.8c-0.2,0.3-0.4,0.7-0.5,1.1s-0.2,0.8-0.2,1.2
			s0.1,0.8,0.2,1.2c0.1,0.4,0.3,0.8,0.5,1.1c0.2,0.3,0.5,0.6,0.8,0.8s0.7,0.3,1.2,0.3c0.5,0,0.8-0.1,1.2-0.3
			c0.3-0.2,0.6-0.4,0.8-0.8c0.2-0.3,0.4-0.7,0.5-1.1c0.1-0.4,0.2-0.8,0.2-1.2s-0.1-0.8-0.2-1.2s-0.3-0.7-0.5-1.1
			c-0.2-0.3-0.5-0.6-0.8-0.8c-0.3-0.2-0.7-0.3-1.2-0.3C197.1,57.9,196.7,58,196.4,58.2z M196.7,56.2l1.6-2.1h1.2l-2,2.1H196.7z"/>
		<path class="st0" d="M203.9,57.3v1.3h0c0.2-0.5,0.5-0.8,1-1.1c0.5-0.3,1-0.4,1.5-0.4c0.5,0,1,0.1,1.4,0.2c0.4,0.1,0.7,0.3,0.9,0.6
			s0.4,0.6,0.5,0.9c0.1,0.4,0.1,0.8,0.1,1.2v5h-0.9v-4.8c0-0.3,0-0.6-0.1-0.9c-0.1-0.3-0.2-0.5-0.3-0.7c-0.2-0.2-0.4-0.4-0.6-0.5
			s-0.6-0.2-1-0.2s-0.7,0.1-1,0.2c-0.3,0.1-0.5,0.3-0.8,0.6c-0.2,0.2-0.4,0.5-0.5,0.8s-0.2,0.7-0.2,1.1v4.5H203v-7.8H203.9z"/>
	</g>
</g>
<g>
	<g>
		<path class="st0" d="M52.2,79.4c0.1-0.3,0.3-0.6,0.6-0.8c0.2-0.2,0.5-0.4,0.8-0.6c0.3-0.1,0.7-0.2,1-0.2c0.4,0,0.7,0.1,1,0.2
			c0.3,0.1,0.6,0.3,0.9,0.6c0.2,0.2,0.4,0.5,0.6,0.8c0.1,0.3,0.2,0.7,0.2,1c0,0.4-0.1,0.7-0.2,1c-0.1,0.3-0.3,0.6-0.6,0.9
			c-0.2,0.2-0.5,0.4-0.9,0.6c-0.3,0.1-0.7,0.2-1,0.2c-0.4,0-0.7-0.1-1-0.2c-0.3-0.1-0.6-0.3-0.8-0.6c-0.2-0.2-0.4-0.5-0.6-0.9
			c-0.1-0.3-0.2-0.7-0.2-1C52,80,52.1,79.7,52.2,79.4z"/>
		<path class="st0" d="M65.1,83.6c0.2,0.4,0.4,0.7,0.7,0.9c0.3,0.2,0.7,0.4,1.1,0.5c0.4,0.1,0.9,0.1,1.4,0.1c0.3,0,0.6,0,0.9-0.1
			s0.6-0.2,0.9-0.4c0.3-0.2,0.5-0.4,0.7-0.7c0.2-0.3,0.3-0.6,0.3-1c0-0.3-0.1-0.6-0.2-0.8c-0.1-0.2-0.3-0.4-0.5-0.6
			c-0.2-0.2-0.5-0.3-0.7-0.4c-0.3-0.1-0.5-0.2-0.8-0.2l-2.4-0.6c-0.3-0.1-0.6-0.2-0.9-0.3c-0.3-0.1-0.6-0.3-0.8-0.5
			c-0.2-0.2-0.4-0.4-0.5-0.7c-0.1-0.3-0.2-0.6-0.2-1.1c0-0.3,0-0.6,0.2-0.9c0.1-0.4,0.3-0.7,0.6-1c0.3-0.3,0.7-0.6,1.1-0.8
			c0.5-0.2,1.1-0.3,1.8-0.3c0.5,0,1,0.1,1.5,0.2s0.9,0.4,1.3,0.6c0.4,0.3,0.6,0.6,0.9,1c0.2,0.4,0.3,0.9,0.3,1.5h-1
			c0-0.4-0.1-0.8-0.3-1.1c-0.2-0.3-0.4-0.6-0.6-0.8c-0.3-0.2-0.6-0.4-0.9-0.5s-0.7-0.2-1.1-0.2c-0.4,0-0.7,0-1,0.1
			c-0.3,0.1-0.6,0.2-0.9,0.4c-0.2,0.2-0.4,0.4-0.6,0.7s-0.2,0.6-0.2,1c0,0.3,0,0.5,0.1,0.7c0.1,0.2,0.2,0.3,0.4,0.5
			c0.1,0.1,0.3,0.2,0.5,0.3c0.2,0.1,0.4,0.1,0.6,0.2l2.6,0.6c0.4,0.1,0.7,0.2,1.1,0.4c0.3,0.1,0.6,0.3,0.9,0.5
			c0.3,0.2,0.5,0.5,0.6,0.8s0.2,0.7,0.2,1.1c0,0.1,0,0.3,0,0.5c0,0.2-0.1,0.4-0.2,0.6c-0.1,0.2-0.2,0.5-0.4,0.7
			c-0.2,0.2-0.4,0.4-0.7,0.6s-0.7,0.3-1.1,0.5c-0.5,0.1-1,0.2-1.6,0.2c-0.6,0-1.2-0.1-1.8-0.2c-0.5-0.1-1-0.4-1.4-0.7
			s-0.7-0.7-0.9-1.2c-0.2-0.5-0.3-1-0.3-1.7h1C64.8,82.8,64.9,83.2,65.1,83.6z"/>
		<path class="st0" d="M74.6,83.2c0.1,0.4,0.2,0.7,0.5,1c0.2,0.3,0.5,0.5,0.8,0.7c0.3,0.2,0.7,0.3,1.2,0.3c0.7,0,1.2-0.2,1.6-0.5
			c0.4-0.4,0.7-0.8,0.8-1.4h0.9c-0.2,0.9-0.6,1.6-1.1,2C78.8,85.7,78,86,77,86c-0.6,0-1.1-0.1-1.6-0.3c-0.4-0.2-0.8-0.5-1.1-0.9
			c-0.3-0.4-0.5-0.8-0.6-1.3s-0.2-1-0.2-1.6c0-0.5,0.1-1,0.2-1.5s0.3-0.9,0.6-1.3c0.3-0.4,0.6-0.7,1.1-0.9s1-0.4,1.6-0.4
			c0.6,0,1.2,0.1,1.6,0.4c0.4,0.3,0.8,0.6,1.1,1c0.3,0.4,0.5,0.9,0.6,1.4c0.1,0.5,0.2,1.1,0.2,1.6h-6C74.5,82.5,74.5,82.8,74.6,83.2
			z M79.3,80.3c-0.1-0.3-0.3-0.6-0.5-0.9c-0.2-0.3-0.5-0.5-0.8-0.6s-0.6-0.2-1-0.2c-0.4,0-0.7,0.1-1,0.2s-0.6,0.4-0.8,0.6
			c-0.2,0.3-0.4,0.6-0.5,0.9c-0.1,0.3-0.2,0.7-0.2,1h5C79.5,81,79.4,80.6,79.3,80.3z"/>
		<path class="st0" d="M82.9,78v1.3h0c0.2-0.5,0.5-0.8,1-1.1c0.5-0.3,1-0.4,1.5-0.4c0.5,0,1,0.1,1.4,0.2s0.7,0.3,0.9,0.6
			c0.2,0.3,0.4,0.6,0.5,0.9c0.1,0.4,0.1,0.8,0.1,1.2v5h-0.9v-4.8c0-0.3,0-0.6-0.1-0.9c-0.1-0.3-0.2-0.5-0.3-0.7
			c-0.2-0.2-0.4-0.4-0.6-0.5c-0.3-0.1-0.6-0.2-1-0.2s-0.7,0.1-1,0.2c-0.3,0.1-0.5,0.3-0.8,0.6c-0.2,0.2-0.4,0.5-0.5,0.8
			s-0.2,0.7-0.2,1.1v4.5H82V78H82.9z"/>
		<path class="st0" d="M94.8,79.5c-0.1-0.2-0.3-0.4-0.4-0.5s-0.4-0.2-0.6-0.3c-0.2-0.1-0.5-0.1-0.8-0.1c-0.2,0-0.4,0-0.6,0.1
			c-0.2,0-0.4,0.1-0.6,0.2c-0.2,0.1-0.3,0.2-0.4,0.4c-0.1,0.2-0.2,0.4-0.2,0.6c0,0.2,0.1,0.4,0.2,0.5s0.2,0.3,0.4,0.4
			c0.2,0.1,0.3,0.2,0.5,0.2c0.2,0.1,0.4,0.1,0.5,0.2l1.3,0.3c0.3,0,0.5,0.1,0.8,0.2c0.3,0.1,0.5,0.2,0.7,0.4s0.4,0.4,0.5,0.6
			c0.1,0.3,0.2,0.5,0.2,0.9c0,0.4-0.1,0.8-0.3,1.1c-0.2,0.3-0.4,0.5-0.7,0.7c-0.3,0.2-0.6,0.3-1,0.4S93.5,86,93.1,86
			c-0.9,0-1.7-0.2-2.2-0.6c-0.6-0.4-0.9-1.1-1-2.1h0.9c0,0.6,0.3,1.1,0.7,1.5c0.4,0.3,1,0.5,1.6,0.5c0.2,0,0.5,0,0.7-0.1
			c0.2,0,0.5-0.1,0.7-0.3c0.2-0.1,0.4-0.3,0.5-0.5c0.1-0.2,0.2-0.4,0.2-0.7c0-0.2,0-0.4-0.1-0.6c-0.1-0.2-0.2-0.3-0.4-0.4
			c-0.2-0.1-0.3-0.2-0.5-0.3s-0.4-0.1-0.6-0.2L92.4,82c-0.3-0.1-0.6-0.2-0.9-0.3c-0.3-0.1-0.5-0.2-0.7-0.4c-0.2-0.2-0.3-0.3-0.5-0.6
			s-0.2-0.5-0.2-0.8c0-0.4,0.1-0.7,0.3-1c0.2-0.3,0.4-0.5,0.7-0.7c0.3-0.2,0.6-0.3,0.9-0.4s0.7-0.1,1-0.1c0.4,0,0.8,0.1,1.1,0.2
			c0.3,0.1,0.6,0.3,0.9,0.5c0.3,0.2,0.5,0.5,0.6,0.8s0.2,0.7,0.3,1.1H95C95,80,95,79.7,94.8,79.5z"/>
		<path class="st0" d="M98.1,79.2c0.2-0.3,0.4-0.6,0.7-0.8c0.3-0.2,0.6-0.4,1-0.5c0.4-0.1,0.8-0.2,1.2-0.2c0.3,0,0.7,0,1,0.1
			c0.3,0.1,0.6,0.2,0.9,0.4c0.3,0.2,0.5,0.4,0.7,0.8c0.2,0.3,0.3,0.7,0.3,1.3v4.1c0,0.4,0.2,0.6,0.6,0.6c0.1,0,0.2,0,0.3-0.1v0.8
			c-0.1,0-0.2,0-0.3,0s-0.2,0-0.3,0c-0.2,0-0.4,0-0.6-0.1s-0.3-0.2-0.3-0.3S103,85.1,103,85c0-0.2,0-0.3,0-0.5h0
			c-0.2,0.3-0.3,0.5-0.5,0.7c-0.2,0.2-0.4,0.4-0.6,0.5c-0.2,0.1-0.5,0.2-0.7,0.3c-0.3,0.1-0.6,0.1-1,0.1c-0.4,0-0.7,0-1-0.1
			c-0.3-0.1-0.6-0.2-0.8-0.4s-0.4-0.4-0.6-0.7c-0.1-0.3-0.2-0.6-0.2-1c0-0.5,0.1-1,0.4-1.3c0.2-0.3,0.6-0.5,1-0.7
			c0.4-0.2,0.8-0.3,1.3-0.3c0.5-0.1,1-0.1,1.5-0.2c0.2,0,0.4,0,0.5-0.1c0.1,0,0.3-0.1,0.4-0.2c0.1-0.1,0.2-0.2,0.2-0.3
			c0.1-0.1,0.1-0.3,0.1-0.5c0-0.3-0.1-0.6-0.2-0.8s-0.3-0.4-0.4-0.5c-0.2-0.1-0.4-0.2-0.6-0.2c-0.2,0-0.5-0.1-0.8-0.1
			c-0.6,0-1.1,0.1-1.5,0.4c-0.4,0.3-0.6,0.7-0.6,1.4h-0.9C97.9,79.9,97.9,79.5,98.1,79.2z M102.8,81.5c-0.1,0.1-0.2,0.2-0.3,0.2
			c-0.2,0-0.3,0.1-0.5,0.1c-0.4,0.1-0.8,0.1-1.2,0.2c-0.4,0.1-0.8,0.1-1.2,0.2c-0.4,0.1-0.6,0.3-0.9,0.5c-0.2,0.2-0.3,0.5-0.3,0.9
			c0,0.2,0,0.5,0.1,0.6c0.1,0.2,0.2,0.3,0.4,0.5c0.2,0.1,0.3,0.2,0.6,0.3c0.2,0.1,0.4,0.1,0.6,0.1c0.4,0,0.7-0.1,1-0.2
			s0.6-0.3,0.9-0.5c0.2-0.2,0.4-0.5,0.6-0.8c0.1-0.3,0.2-0.6,0.2-1L102.8,81.5L102.8,81.5z"/>
		<path class="st0" d="M110.8,79.1c-0.4-0.3-0.8-0.5-1.5-0.5c-0.5,0-0.8,0.1-1.2,0.3s-0.6,0.4-0.8,0.8c-0.2,0.3-0.4,0.7-0.5,1.1
			s-0.2,0.8-0.2,1.2s0.1,0.8,0.2,1.2c0.1,0.4,0.3,0.8,0.5,1.1c0.2,0.3,0.5,0.6,0.8,0.8s0.7,0.3,1.2,0.3c0.3,0,0.6-0.1,0.8-0.2
			s0.5-0.3,0.7-0.5c0.2-0.2,0.4-0.4,0.5-0.7c0.1-0.3,0.2-0.6,0.2-0.9h0.9c-0.1,0.9-0.5,1.7-1,2.2s-1.3,0.8-2.2,0.8
			c-0.6,0-1.1-0.1-1.6-0.3c-0.5-0.2-0.8-0.5-1.2-0.9s-0.5-0.8-0.7-1.3c-0.2-0.5-0.2-1-0.2-1.6c0-0.6,0.1-1.1,0.2-1.6
			c0.2-0.5,0.4-0.9,0.7-1.3c0.3-0.4,0.7-0.7,1.2-0.9s1-0.3,1.6-0.3c0.8,0,1.5,0.2,2.1,0.7s0.9,1.1,1,2h-0.9
			C111.4,79.9,111.1,79.4,110.8,79.1z"/>
		<path class="st0" d="M115.1,75v1.5h-0.9V75H115.1z M115.1,78v7.8h-0.9V78H115.1z"/>
		<path class="st0" d="M122.1,78.1c0.5,0.2,0.8,0.5,1.1,0.9c0.3,0.4,0.5,0.8,0.7,1.3s0.2,1,0.2,1.6c0,0.6-0.1,1.1-0.2,1.6
			s-0.4,0.9-0.7,1.3s-0.7,0.7-1.1,0.9c-0.5,0.2-1,0.3-1.6,0.3c-0.6,0-1.1-0.1-1.6-0.3c-0.5-0.2-0.8-0.5-1.1-0.9
			c-0.3-0.4-0.5-0.8-0.7-1.3s-0.2-1-0.2-1.6c0-0.6,0.1-1.1,0.2-1.6s0.4-0.9,0.7-1.3c0.3-0.4,0.7-0.7,1.1-0.9s1-0.3,1.6-0.3
			C121.1,77.8,121.6,77.9,122.1,78.1z M119.3,78.9c-0.3,0.2-0.6,0.4-0.8,0.8s-0.4,0.7-0.5,1.1c-0.1,0.4-0.2,0.8-0.2,1.2
			s0.1,0.8,0.2,1.2c0.1,0.4,0.3,0.8,0.5,1.1s0.5,0.6,0.8,0.8s0.7,0.3,1.2,0.3s0.8-0.1,1.2-0.3s0.6-0.4,0.8-0.8s0.4-0.7,0.5-1.1
			c0.1-0.4,0.2-0.8,0.2-1.2s-0.1-0.8-0.2-1.2s-0.3-0.7-0.5-1.1s-0.5-0.6-0.8-0.8s-0.7-0.3-1.2-0.3S119.6,78.7,119.3,78.9z
			 M119.6,76.9l1.6-2.1h1.2l-2,2.1H119.6z"/>
		<path class="st0" d="M126.8,78v1.3h0c0.2-0.5,0.5-0.8,1-1.1c0.5-0.3,1-0.4,1.5-0.4c0.5,0,1,0.1,1.4,0.2s0.7,0.3,0.9,0.6
			c0.2,0.3,0.4,0.6,0.5,0.9c0.1,0.4,0.1,0.8,0.1,1.2v5h-0.9v-4.8c0-0.3,0-0.6-0.1-0.9c-0.1-0.3-0.2-0.5-0.3-0.7
			c-0.2-0.2-0.4-0.4-0.6-0.5c-0.3-0.1-0.6-0.2-1-0.2s-0.7,0.1-1,0.2c-0.3,0.1-0.5,0.3-0.8,0.6c-0.2,0.2-0.4,0.5-0.5,0.8
			s-0.2,0.7-0.2,1.1v4.5h-0.9V78H126.8z"/>
		<path class="st0" d="M144.7,85.8v-1.5h0c-0.1,0.3-0.2,0.5-0.4,0.7c-0.2,0.2-0.4,0.4-0.7,0.5c-0.3,0.1-0.5,0.3-0.8,0.3
			c-0.3,0.1-0.6,0.1-0.8,0.1c-0.6,0-1.1-0.1-1.5-0.3c-0.4-0.2-0.8-0.5-1.1-0.9s-0.5-0.8-0.6-1.3s-0.2-1-0.2-1.6
			c0-0.6,0.1-1.1,0.2-1.6s0.4-0.9,0.6-1.3s0.7-0.7,1.1-0.9c0.4-0.2,1-0.3,1.5-0.3c0.3,0,0.6,0,0.8,0.1c0.3,0.1,0.5,0.2,0.8,0.3
			c0.2,0.1,0.5,0.3,0.6,0.5c0.2,0.2,0.3,0.5,0.4,0.7h0V75h0.9v10.7H144.7z M139.5,83.1c0.1,0.4,0.2,0.7,0.5,1.1
			c0.2,0.3,0.5,0.6,0.8,0.8c0.3,0.2,0.7,0.3,1.2,0.3c0.5,0,0.9-0.1,1.3-0.3s0.6-0.4,0.8-0.8c0.2-0.3,0.4-0.7,0.5-1.1
			c0.1-0.4,0.1-0.8,0.1-1.2c0-0.4,0-0.8-0.1-1.2c-0.1-0.4-0.3-0.7-0.5-1.1s-0.5-0.6-0.8-0.8c-0.3-0.2-0.8-0.3-1.3-0.3
			c-0.5,0-0.8,0.1-1.2,0.3c-0.3,0.2-0.6,0.4-0.8,0.8c-0.2,0.3-0.4,0.7-0.5,1.1c-0.1,0.4-0.1,0.8-0.1,1.2
			C139.3,82.3,139.4,82.7,139.5,83.1z"/>
		<path class="st0" d="M148.3,83.2c0.1,0.4,0.2,0.7,0.5,1c0.2,0.3,0.5,0.5,0.8,0.7c0.3,0.2,0.7,0.3,1.2,0.3c0.7,0,1.2-0.2,1.6-0.5
			c0.4-0.4,0.7-0.8,0.8-1.4h0.9c-0.2,0.9-0.6,1.6-1.1,2c-0.5,0.5-1.3,0.7-2.3,0.7c-0.6,0-1.1-0.1-1.6-0.3c-0.4-0.2-0.8-0.5-1.1-0.9
			c-0.3-0.4-0.5-0.8-0.6-1.3s-0.2-1-0.2-1.6c0-0.5,0.1-1,0.2-1.5s0.3-0.9,0.6-1.3c0.3-0.4,0.6-0.7,1.1-0.9s1-0.4,1.6-0.4
			c0.6,0,1.2,0.1,1.6,0.4c0.4,0.3,0.8,0.6,1.1,1c0.3,0.4,0.5,0.9,0.6,1.4c0.1,0.5,0.2,1.1,0.2,1.6h-6
			C148.2,82.5,148.3,82.8,148.3,83.2z M153,80.3c-0.1-0.3-0.3-0.6-0.5-0.9c-0.2-0.3-0.5-0.5-0.8-0.6s-0.6-0.2-1-0.2
			c-0.4,0-0.7,0.1-1,0.2s-0.6,0.4-0.8,0.6c-0.2,0.3-0.4,0.6-0.5,0.9c-0.1,0.3-0.2,0.7-0.2,1h5C153.2,81,153.2,80.6,153,80.3z"/>
		<path class="st0" d="M161.1,78v1.5h0c0.2-0.5,0.6-1,1.1-1.3c0.5-0.3,1.1-0.4,1.7-0.4c0.6,0,1.1,0.1,1.5,0.3
			c0.4,0.2,0.8,0.5,1.1,0.9c0.3,0.4,0.5,0.8,0.6,1.3s0.2,1,0.2,1.6c0,0.6-0.1,1.1-0.2,1.6s-0.4,0.9-0.6,1.3
			c-0.3,0.4-0.7,0.7-1.1,0.9c-0.4,0.2-0.9,0.3-1.5,0.3c-0.3,0-0.6,0-0.8-0.1c-0.3-0.1-0.5-0.2-0.8-0.3c-0.2-0.1-0.5-0.3-0.6-0.5
			c-0.2-0.2-0.3-0.5-0.4-0.7h0v4.3h-0.9V78H161.1z M166.3,80.7c-0.1-0.4-0.2-0.7-0.5-1.1c-0.2-0.3-0.5-0.6-0.8-0.8
			c-0.3-0.2-0.7-0.3-1.2-0.3c-0.5,0-1,0.1-1.3,0.3c-0.4,0.2-0.6,0.4-0.8,0.7c-0.2,0.3-0.4,0.7-0.4,1.1c-0.1,0.4-0.1,0.8-0.1,1.3
			c0,0.4,0,0.8,0.1,1.2c0.1,0.4,0.3,0.7,0.5,1.1c0.2,0.3,0.5,0.6,0.8,0.8s0.8,0.3,1.3,0.3c0.5,0,0.8-0.1,1.2-0.3
			c0.3-0.2,0.6-0.4,0.8-0.8c0.2-0.3,0.4-0.7,0.5-1.1c0.1-0.4,0.1-0.8,0.1-1.2C166.4,81.5,166.4,81.1,166.3,80.7z"/>
		<path class="st0" d="M169.9,83.2c0.1,0.4,0.2,0.7,0.5,1c0.2,0.3,0.5,0.5,0.8,0.7c0.3,0.2,0.7,0.3,1.2,0.3c0.7,0,1.2-0.2,1.6-0.5
			c0.4-0.4,0.7-0.8,0.8-1.4h0.9c-0.2,0.9-0.6,1.6-1.1,2c-0.5,0.5-1.3,0.7-2.3,0.7c-0.6,0-1.1-0.1-1.6-0.3c-0.4-0.2-0.8-0.5-1.1-0.9
			c-0.3-0.4-0.5-0.8-0.6-1.3s-0.2-1-0.2-1.6c0-0.5,0.1-1,0.2-1.5s0.3-0.9,0.6-1.3c0.3-0.4,0.6-0.7,1.1-0.9s1-0.4,1.6-0.4
			c0.6,0,1.2,0.1,1.6,0.4c0.4,0.3,0.8,0.6,1.1,1c0.3,0.4,0.5,0.9,0.6,1.4c0.1,0.5,0.2,1.1,0.2,1.6h-6
			C169.7,82.5,169.8,82.8,169.9,83.2z M174.5,80.3c-0.1-0.3-0.3-0.6-0.5-0.9c-0.2-0.3-0.5-0.5-0.8-0.6s-0.6-0.2-1-0.2
			c-0.4,0-0.7,0.1-1,0.2s-0.6,0.4-0.8,0.6c-0.2,0.3-0.4,0.6-0.5,0.9c-0.1,0.3-0.2,0.7-0.2,1h5C174.7,81,174.7,80.6,174.5,80.3z
			 M171.3,76.9l1.6-2.1h1.2l-2,2.1H171.3z"/>
		<path class="st0" d="M178.1,78v1.8h0c0.2-0.6,0.6-1.1,1.1-1.5c0.5-0.3,1.1-0.5,1.8-0.5v0.9c-0.4,0-0.8,0-1.2,0.2
			c-0.4,0.1-0.7,0.3-0.9,0.6c-0.3,0.3-0.5,0.5-0.6,0.9s-0.2,0.7-0.2,1.1v4.1h-0.9V78H178.1z"/>
		<path class="st0" d="M188.3,85.8v-1.5h0c-0.1,0.3-0.2,0.5-0.4,0.7c-0.2,0.2-0.4,0.4-0.7,0.5c-0.3,0.1-0.5,0.3-0.8,0.3
			c-0.3,0.1-0.6,0.1-0.8,0.1c-0.6,0-1.1-0.1-1.5-0.3c-0.4-0.2-0.8-0.5-1.1-0.9c-0.3-0.4-0.5-0.8-0.6-1.3c-0.1-0.5-0.2-1-0.2-1.6
			c0-0.6,0.1-1.1,0.2-1.6c0.1-0.5,0.4-0.9,0.6-1.3c0.3-0.4,0.7-0.7,1.1-0.9c0.4-0.2,0.9-0.3,1.5-0.3c0.3,0,0.6,0,0.8,0.1
			c0.3,0.1,0.5,0.2,0.8,0.3c0.2,0.1,0.5,0.3,0.6,0.5c0.2,0.2,0.3,0.5,0.4,0.7h0V75h0.9v10.7H188.3z M183.1,83.1
			c0.1,0.4,0.2,0.7,0.5,1.1c0.2,0.3,0.5,0.6,0.8,0.8c0.3,0.2,0.7,0.3,1.2,0.3c0.5,0,0.9-0.1,1.3-0.3s0.6-0.4,0.8-0.8
			c0.2-0.3,0.4-0.7,0.5-1.1c0.1-0.4,0.1-0.8,0.1-1.2c0-0.4,0-0.8-0.1-1.2c-0.1-0.4-0.3-0.7-0.5-1.1c-0.2-0.3-0.5-0.6-0.8-0.8
			c-0.3-0.2-0.8-0.3-1.3-0.3c-0.5,0-0.8,0.1-1.2,0.3c-0.3,0.2-0.6,0.4-0.8,0.8s-0.4,0.7-0.5,1.1c-0.1,0.4-0.1,0.8-0.1,1.2
			C182.9,82.3,183,82.7,183.1,83.1z"/>
		<path class="st0" d="M192.2,75v1.5h-0.9V75H192.2z M192.2,78v7.8h-0.9V78H192.2z"/>
		<path class="st0" d="M200.3,85.8v-1.5h0c-0.1,0.3-0.2,0.5-0.4,0.7c-0.2,0.2-0.4,0.4-0.7,0.5c-0.3,0.1-0.5,0.3-0.8,0.3
			c-0.3,0.1-0.6,0.1-0.8,0.1c-0.6,0-1.1-0.1-1.5-0.3c-0.4-0.2-0.8-0.5-1.1-0.9s-0.5-0.8-0.6-1.3s-0.2-1-0.2-1.6
			c0-0.6,0.1-1.1,0.2-1.6s0.4-0.9,0.6-1.3s0.7-0.7,1.1-0.9c0.4-0.2,1-0.3,1.5-0.3c0.3,0,0.6,0,0.8,0.1c0.3,0.1,0.5,0.2,0.8,0.3
			c0.2,0.1,0.5,0.3,0.6,0.5c0.2,0.2,0.3,0.5,0.4,0.7h0V75h0.9v10.7H200.3z M195.1,83.1c0.1,0.4,0.2,0.7,0.5,1.1
			c0.2,0.3,0.5,0.6,0.8,0.8c0.3,0.2,0.7,0.3,1.2,0.3c0.5,0,0.9-0.1,1.3-0.3s0.6-0.4,0.8-0.8c0.2-0.3,0.4-0.7,0.5-1.1
			c0.1-0.4,0.1-0.8,0.1-1.2c0-0.4,0-0.8-0.1-1.2c-0.1-0.4-0.3-0.7-0.5-1.1s-0.5-0.6-0.8-0.8c-0.3-0.2-0.8-0.3-1.3-0.3
			c-0.5,0-0.8,0.1-1.2,0.3c-0.3,0.2-0.6,0.4-0.8,0.8c-0.2,0.3-0.4,0.7-0.5,1.1c-0.1,0.4-0.1,0.8-0.1,1.2
			C194.9,82.3,195,82.7,195.1,83.1z"/>
		<path class="st0" d="M203.4,79.2c0.2-0.3,0.4-0.6,0.7-0.8c0.3-0.2,0.6-0.4,1-0.5c0.4-0.1,0.8-0.2,1.2-0.2c0.3,0,0.7,0,1,0.1
			c0.3,0.1,0.6,0.2,0.9,0.4c0.3,0.2,0.5,0.4,0.7,0.8c0.2,0.3,0.3,0.7,0.3,1.3v4.1c0,0.4,0.2,0.6,0.6,0.6c0.1,0,0.2,0,0.3-0.1v0.8
			c-0.1,0-0.2,0-0.3,0s-0.2,0-0.3,0c-0.2,0-0.4,0-0.6-0.1c-0.1-0.1-0.3-0.2-0.3-0.3s-0.1-0.3-0.2-0.4c0-0.2,0-0.3,0-0.5h0
			c-0.2,0.3-0.3,0.5-0.5,0.7c-0.2,0.2-0.4,0.4-0.6,0.5c-0.2,0.1-0.5,0.2-0.7,0.3c-0.3,0.1-0.6,0.1-1,0.1c-0.4,0-0.7,0-1-0.1
			s-0.6-0.2-0.8-0.4s-0.4-0.4-0.6-0.7c-0.1-0.3-0.2-0.6-0.2-1c0-0.5,0.1-1,0.4-1.3c0.2-0.3,0.6-0.5,1-0.7c0.4-0.2,0.8-0.3,1.3-0.3
			c0.5-0.1,1-0.1,1.5-0.2c0.2,0,0.4,0,0.5-0.1s0.3-0.1,0.4-0.2c0.1-0.1,0.2-0.2,0.2-0.3c0.1-0.1,0.1-0.3,0.1-0.5
			c0-0.3-0.1-0.6-0.2-0.8c-0.1-0.2-0.3-0.4-0.4-0.5c-0.2-0.1-0.4-0.2-0.6-0.2c-0.2,0-0.5-0.1-0.8-0.1c-0.6,0-1.1,0.1-1.5,0.4
			c-0.4,0.3-0.6,0.7-0.6,1.4h-0.9C203.2,79.9,203.3,79.5,203.4,79.2z M208.2,81.5c-0.1,0.1-0.2,0.2-0.3,0.2c-0.2,0-0.3,0.1-0.5,0.1
			c-0.4,0.1-0.8,0.1-1.2,0.2c-0.4,0.1-0.8,0.1-1.2,0.2s-0.6,0.3-0.9,0.5c-0.2,0.2-0.3,0.5-0.3,0.9c0,0.2,0,0.5,0.1,0.6
			c0.1,0.2,0.2,0.3,0.4,0.5c0.2,0.1,0.3,0.2,0.6,0.3c0.2,0.1,0.4,0.1,0.6,0.1c0.4,0,0.7-0.1,1-0.2c0.3-0.1,0.6-0.3,0.9-0.5
			c0.2-0.2,0.4-0.5,0.6-0.8s0.2-0.6,0.2-1L208.2,81.5L208.2,81.5z"/>
		<path class="st0" d="M149.1,103.8v-1.5h0c-0.1,0.3-0.2,0.5-0.4,0.7c-0.2,0.2-0.4,0.4-0.7,0.5c-0.3,0.1-0.5,0.3-0.8,0.3
			c-0.3,0.1-0.6,0.1-0.8,0.1c-0.6,0-1.1-0.1-1.5-0.3c-0.4-0.2-0.8-0.5-1.1-0.9c-0.3-0.4-0.5-0.8-0.6-1.3c-0.1-0.5-0.2-1-0.2-1.6
			c0-0.6,0.1-1.1,0.2-1.6c0.1-0.5,0.4-0.9,0.6-1.3c0.3-0.4,0.7-0.7,1.1-0.9c0.4-0.2,0.9-0.3,1.5-0.3c0.3,0,0.6,0,0.8,0.1
			c0.3,0.1,0.5,0.2,0.8,0.3c0.2,0.1,0.5,0.3,0.6,0.5c0.2,0.2,0.3,0.5,0.4,0.7h0v-4.5h0.9v10.7H149.1z M143.9,101.1
			c0.1,0.4,0.2,0.7,0.5,1.1c0.2,0.3,0.5,0.6,0.8,0.8c0.3,0.2,0.7,0.3,1.2,0.3c0.5,0,0.9-0.1,1.3-0.3s0.6-0.4,0.8-0.8
			c0.2-0.3,0.4-0.7,0.5-1.1c0.1-0.4,0.1-0.8,0.1-1.2c0-0.4,0-0.8-0.1-1.2c-0.1-0.4-0.3-0.7-0.5-1.1c-0.2-0.3-0.5-0.6-0.8-0.8
			c-0.3-0.2-0.8-0.3-1.3-0.3c-0.5,0-0.8,0.1-1.2,0.3c-0.3,0.2-0.6,0.4-0.8,0.8s-0.4,0.7-0.5,1.1c-0.1,0.4-0.1,0.8-0.1,1.2
			C143.8,100.3,143.8,100.7,143.9,101.1z"/>
		<path class="st0" d="M152.8,101.2c0.1,0.4,0.2,0.7,0.5,1c0.2,0.3,0.5,0.5,0.8,0.7c0.3,0.2,0.7,0.3,1.2,0.3c0.7,0,1.2-0.2,1.6-0.5
			c0.4-0.4,0.7-0.8,0.8-1.4h0.9c-0.2,0.9-0.6,1.6-1.1,2c-0.5,0.5-1.3,0.7-2.3,0.7c-0.6,0-1.1-0.1-1.6-0.3c-0.4-0.2-0.8-0.5-1.1-0.9
			c-0.3-0.4-0.5-0.8-0.6-1.3s-0.2-1-0.2-1.6c0-0.5,0.1-1,0.2-1.5s0.3-0.9,0.6-1.3c0.3-0.4,0.6-0.7,1.1-0.9s1-0.4,1.6-0.4
			c0.6,0,1.2,0.1,1.6,0.4c0.4,0.3,0.8,0.6,1.1,1c0.3,0.4,0.5,0.9,0.6,1.4c0.1,0.5,0.2,1.1,0.2,1.6h-6
			C152.7,100.5,152.7,100.9,152.8,101.2z M157.5,98.4c-0.1-0.3-0.3-0.6-0.5-0.9c-0.2-0.3-0.5-0.5-0.8-0.6s-0.6-0.2-1-0.2
			c-0.4,0-0.7,0.1-1,0.2s-0.6,0.4-0.8,0.6c-0.2,0.3-0.4,0.6-0.5,0.9c-0.1,0.3-0.2,0.7-0.2,1h5C157.7,99,157.6,98.7,157.5,98.4z"/>
		<path class="st0" d="M169.4,97.1c-0.4-0.3-0.8-0.5-1.5-0.5c-0.5,0-0.8,0.1-1.2,0.3s-0.6,0.4-0.8,0.8c-0.2,0.3-0.4,0.7-0.5,1.1
			s-0.2,0.8-0.2,1.2s0.1,0.8,0.2,1.2c0.1,0.4,0.3,0.8,0.5,1.1c0.2,0.3,0.5,0.6,0.8,0.8s0.7,0.3,1.2,0.3c0.3,0,0.6-0.1,0.8-0.2
			s0.5-0.3,0.7-0.5c0.2-0.2,0.4-0.4,0.5-0.7c0.1-0.3,0.2-0.6,0.2-0.9h0.9c-0.1,0.9-0.5,1.7-1,2.2s-1.3,0.8-2.2,0.8
			c-0.6,0-1.1-0.1-1.6-0.3c-0.5-0.2-0.8-0.5-1.2-0.9s-0.5-0.8-0.7-1.3c-0.2-0.5-0.2-1-0.2-1.6c0-0.6,0.1-1.1,0.2-1.6
			c0.2-0.5,0.4-0.9,0.7-1.3c0.3-0.4,0.7-0.7,1.2-0.9s1-0.3,1.6-0.3c0.8,0,1.5,0.2,2.1,0.7s0.9,1.1,1,2h-0.9
			C170,97.9,169.8,97.4,169.4,97.1z"/>
		<path class="st0" d="M177.6,96.2c0.5,0.2,0.8,0.5,1.2,0.9c0.3,0.4,0.5,0.8,0.7,1.3s0.2,1,0.2,1.6c0,0.6-0.1,1.1-0.2,1.6
			s-0.4,0.9-0.7,1.3s-0.7,0.7-1.2,0.9c-0.5,0.2-1,0.3-1.6,0.3c-0.6,0-1.1-0.1-1.6-0.3c-0.5-0.2-0.8-0.5-1.2-0.9s-0.5-0.8-0.7-1.3
			c-0.2-0.5-0.2-1-0.2-1.6c0-0.6,0.1-1.1,0.2-1.6c0.2-0.5,0.4-0.9,0.7-1.3c0.3-0.4,0.7-0.7,1.2-0.9s1-0.3,1.6-0.3
			C176.7,95.8,177.2,95.9,177.6,96.2z M174.9,96.9c-0.3,0.2-0.6,0.4-0.8,0.8c-0.2,0.3-0.4,0.7-0.5,1.1s-0.2,0.8-0.2,1.2
			s0.1,0.8,0.2,1.2c0.1,0.4,0.3,0.8,0.5,1.1c0.2,0.3,0.5,0.6,0.8,0.8s0.7,0.3,1.2,0.3c0.5,0,0.8-0.1,1.2-0.3
			c0.3-0.2,0.6-0.4,0.8-0.8c0.2-0.3,0.4-0.7,0.5-1.1c0.1-0.4,0.2-0.8,0.2-1.2s-0.1-0.8-0.2-1.2s-0.3-0.7-0.5-1.1
			c-0.2-0.3-0.5-0.6-0.8-0.8c-0.3-0.2-0.7-0.3-1.2-0.3C175.6,96.6,175.2,96.7,174.9,96.9z"/>
		<path class="st0" d="M182.4,96.1v1.3h0c0.2-0.5,0.5-0.8,1-1.1c0.5-0.3,1-0.4,1.5-0.4c0.5,0,1,0.1,1.4,0.2c0.4,0.1,0.7,0.3,0.9,0.6
			s0.4,0.6,0.5,0.9c0.1,0.4,0.1,0.8,0.1,1.2v5h-0.9V99c0-0.3,0-0.6-0.1-0.9c-0.1-0.3-0.2-0.5-0.3-0.7c-0.2-0.2-0.4-0.4-0.6-0.5
			s-0.6-0.2-1-0.2s-0.7,0.1-1,0.2c-0.3,0.1-0.5,0.3-0.8,0.6c-0.2,0.2-0.4,0.5-0.5,0.8s-0.2,0.7-0.2,1.1v4.5h-0.9v-7.8H182.4z"/>
		<path class="st0" d="M192.9,96.1v0.8h-1.6v5.2c0,0.3,0,0.6,0.1,0.7c0.1,0.2,0.3,0.3,0.6,0.3c0.3,0,0.5,0,0.8,0v0.8
			c-0.1,0-0.3,0-0.4,0c-0.1,0-0.3,0-0.4,0c-0.6,0-1.1-0.1-1.3-0.4c-0.3-0.2-0.4-0.7-0.4-1.4v-5.3H189v-0.8h1.4v-2.3h0.9v2.3H192.9z"
			/>
		<path class="st0" d="M195.4,96.1v1.8h0c0.2-0.6,0.6-1.1,1.1-1.5c0.5-0.3,1.1-0.5,1.8-0.5v0.9c-0.4,0-0.8,0-1.2,0.2
			c-0.4,0.1-0.7,0.3-0.9,0.6c-0.3,0.3-0.5,0.5-0.6,0.9s-0.2,0.7-0.2,1.1v4.1h-0.9v-7.8H195.4z"/>
		<path class="st0" d="M204.5,96.2c0.5,0.2,0.8,0.5,1.2,0.9c0.3,0.4,0.5,0.8,0.7,1.3s0.2,1,0.2,1.6c0,0.6-0.1,1.1-0.2,1.6
			s-0.4,0.9-0.7,1.3s-0.7,0.7-1.2,0.9c-0.5,0.2-1,0.3-1.6,0.3c-0.6,0-1.1-0.1-1.6-0.3c-0.5-0.2-0.8-0.5-1.2-0.9s-0.5-0.8-0.7-1.3
			c-0.2-0.5-0.2-1-0.2-1.6c0-0.6,0.1-1.1,0.2-1.6c0.2-0.5,0.4-0.9,0.7-1.3c0.3-0.4,0.7-0.7,1.2-0.9s1-0.3,1.6-0.3
			C203.5,95.8,204,95.9,204.5,96.2z M201.7,96.9c-0.3,0.2-0.6,0.4-0.8,0.8c-0.2,0.3-0.4,0.7-0.5,1.1s-0.2,0.8-0.2,1.2
			s0.1,0.8,0.2,1.2c0.1,0.4,0.3,0.8,0.5,1.1c0.2,0.3,0.5,0.6,0.8,0.8s0.7,0.3,1.2,0.3c0.5,0,0.8-0.1,1.2-0.3
			c0.3-0.2,0.6-0.4,0.8-0.8c0.2-0.3,0.4-0.7,0.5-1.1c0.1-0.4,0.2-0.8,0.2-1.2s-0.1-0.8-0.2-1.2s-0.3-0.7-0.5-1.1
			c-0.2-0.3-0.5-0.6-0.8-0.8c-0.3-0.2-0.7-0.3-1.2-0.3C202.4,96.6,202,96.7,201.7,96.9z"/>
		<path class="st0" d="M209.2,93.1v10.7h-0.9V93.1H209.2z"/>
		<path class="st0" d="M67.1,115.4c0.1-0.3,0.3-0.6,0.6-0.8c0.2-0.2,0.5-0.4,0.8-0.6c0.3-0.1,0.7-0.2,1-0.2c0.4,0,0.7,0.1,1,0.2
			c0.3,0.1,0.6,0.3,0.9,0.6c0.2,0.2,0.4,0.5,0.6,0.8c0.1,0.3,0.2,0.7,0.2,1c0,0.4-0.1,0.7-0.2,1c-0.1,0.3-0.3,0.6-0.6,0.9
			c-0.2,0.2-0.5,0.4-0.9,0.6c-0.3,0.1-0.7,0.2-1,0.2c-0.4,0-0.7-0.1-1-0.2c-0.3-0.1-0.6-0.3-0.8-0.6c-0.2-0.2-0.4-0.5-0.6-0.9
			c-0.1-0.3-0.2-0.7-0.2-1C66.9,116.1,66.9,115.8,67.1,115.4z"/>
		<path class="st0" d="M86.6,111.1v0.9h-6.4v3.9h6v0.9h-6v4.2h6.5v0.9h-7.5v-10.7H86.6z"/>
		<path class="st0" d="M92.7,115.6c-0.1-0.2-0.3-0.4-0.4-0.5s-0.4-0.2-0.6-0.3c-0.2-0.1-0.5-0.1-0.8-0.1c-0.2,0-0.4,0-0.6,0.1
			c-0.2,0-0.4,0.1-0.6,0.2c-0.2,0.1-0.3,0.2-0.4,0.4c-0.1,0.2-0.2,0.4-0.2,0.6c0,0.2,0.1,0.4,0.2,0.5s0.2,0.3,0.4,0.4
			c0.2,0.1,0.3,0.2,0.5,0.2c0.2,0.1,0.4,0.1,0.5,0.2l1.3,0.3c0.3,0,0.5,0.1,0.8,0.2c0.3,0.1,0.5,0.2,0.7,0.4s0.4,0.4,0.5,0.6
			c0.1,0.3,0.2,0.5,0.2,0.9c0,0.4-0.1,0.8-0.3,1.1c-0.2,0.3-0.4,0.5-0.7,0.7c-0.3,0.2-0.6,0.3-1,0.4s-0.7,0.1-1.1,0.1
			c-0.9,0-1.7-0.2-2.2-0.6c-0.6-0.4-0.9-1.1-1-2.1h0.9c0,0.6,0.3,1.1,0.7,1.5c0.4,0.3,1,0.5,1.6,0.5c0.2,0,0.5,0,0.7-0.1
			c0.2,0,0.5-0.1,0.7-0.3c0.2-0.1,0.4-0.3,0.5-0.5c0.1-0.2,0.2-0.4,0.2-0.7c0-0.2,0-0.4-0.1-0.6c-0.1-0.2-0.2-0.3-0.4-0.4
			c-0.2-0.1-0.3-0.2-0.5-0.3s-0.4-0.1-0.6-0.2l-1.2-0.3c-0.3-0.1-0.6-0.2-0.9-0.3c-0.3-0.1-0.5-0.2-0.7-0.4
			c-0.2-0.2-0.3-0.3-0.5-0.6S88,116.4,88,116c0-0.4,0.1-0.7,0.3-1c0.2-0.3,0.4-0.5,0.7-0.7c0.3-0.2,0.6-0.3,0.9-0.4s0.7-0.1,1-0.1
			c0.4,0,0.8,0.1,1.1,0.2c0.3,0.1,0.6,0.3,0.9,0.5c0.3,0.2,0.5,0.5,0.6,0.8s0.2,0.7,0.3,1.1h-0.9C92.8,116.1,92.8,115.8,92.7,115.6z
			"/>
		<path class="st0" d="M98.8,114.1v0.8h-1.6v5.2c0,0.3,0,0.6,0.1,0.7c0.1,0.2,0.3,0.3,0.6,0.3c0.3,0,0.5,0,0.8,0v0.8
			c-0.1,0-0.3,0-0.4,0c-0.1,0-0.3,0-0.4,0c-0.6,0-1.1-0.1-1.3-0.4c-0.3-0.2-0.4-0.7-0.4-1.4v-5.3h-1.4v-0.8h1.4v-2.3h0.9v2.3H98.8z"
			/>
		<path class="st0" d="M100.7,115.3c0.2-0.3,0.4-0.6,0.7-0.8c0.3-0.2,0.6-0.4,1-0.5c0.4-0.1,0.8-0.2,1.2-0.2c0.3,0,0.7,0,1,0.1
			c0.3,0.1,0.6,0.2,0.9,0.4c0.3,0.2,0.5,0.4,0.7,0.8c0.2,0.3,0.3,0.7,0.3,1.3v4.1c0,0.4,0.2,0.6,0.6,0.6c0.1,0,0.2,0,0.3-0.1v0.8
			c-0.1,0-0.2,0-0.3,0s-0.2,0-0.3,0c-0.2,0-0.4,0-0.6-0.1c-0.1-0.1-0.3-0.2-0.3-0.3s-0.1-0.3-0.2-0.4c0-0.2,0-0.3,0-0.5h0
			c-0.2,0.3-0.3,0.5-0.5,0.7c-0.2,0.2-0.4,0.4-0.6,0.5c-0.2,0.1-0.5,0.2-0.7,0.3c-0.3,0.1-0.6,0.1-1,0.1c-0.4,0-0.7,0-1-0.1
			s-0.6-0.2-0.8-0.4s-0.4-0.4-0.6-0.7c-0.1-0.3-0.2-0.6-0.2-1c0-0.5,0.1-1,0.4-1.3c0.2-0.3,0.6-0.5,1-0.7c0.4-0.2,0.8-0.3,1.3-0.3
			c0.5-0.1,1-0.1,1.5-0.2c0.2,0,0.4,0,0.5-0.1s0.3-0.1,0.4-0.2c0.1-0.1,0.2-0.2,0.2-0.3c0.1-0.1,0.1-0.3,0.1-0.5
			c0-0.3-0.1-0.6-0.2-0.8c-0.1-0.2-0.3-0.4-0.4-0.5c-0.2-0.1-0.4-0.2-0.6-0.2c-0.2,0-0.5-0.1-0.8-0.1c-0.6,0-1.1,0.1-1.5,0.4
			c-0.4,0.3-0.6,0.7-0.6,1.4h-0.9C100.4,116,100.5,115.6,100.7,115.3z M105.4,117.6c-0.1,0.1-0.2,0.2-0.3,0.2
			c-0.2,0-0.3,0.1-0.5,0.1c-0.4,0.1-0.8,0.1-1.2,0.2c-0.4,0.1-0.8,0.1-1.2,0.2s-0.6,0.3-0.9,0.5c-0.2,0.2-0.3,0.5-0.3,0.9
			c0,0.2,0,0.5,0.1,0.6c0.1,0.2,0.2,0.3,0.4,0.5c0.2,0.1,0.3,0.2,0.6,0.3c0.2,0.1,0.4,0.1,0.6,0.1c0.4,0,0.7-0.1,1-0.2
			c0.3-0.1,0.6-0.3,0.9-0.5c0.2-0.2,0.4-0.5,0.6-0.8s0.2-0.6,0.2-1L105.4,117.6L105.4,117.6z"/>
		<path class="st0" d="M114.5,121.8v-1.5h0c-0.1,0.3-0.2,0.5-0.4,0.7c-0.2,0.2-0.4,0.4-0.7,0.5c-0.3,0.1-0.5,0.3-0.8,0.3
			c-0.3,0.1-0.6,0.1-0.8,0.1c-0.6,0-1.1-0.1-1.5-0.3c-0.4-0.2-0.8-0.5-1.1-0.9c-0.3-0.4-0.5-0.8-0.6-1.3c-0.1-0.5-0.2-1-0.2-1.6
			c0-0.6,0.1-1.1,0.2-1.6c0.1-0.5,0.4-0.9,0.6-1.3c0.3-0.4,0.7-0.7,1.1-0.9c0.4-0.2,0.9-0.3,1.5-0.3c0.3,0,0.6,0,0.8,0.1
			c0.3,0.1,0.5,0.2,0.8,0.3c0.2,0.1,0.5,0.3,0.6,0.5c0.2,0.2,0.3,0.5,0.4,0.7h0v-4.5h0.9v10.7H114.5z M109.3,119.2
			c0.1,0.4,0.2,0.7,0.5,1.1c0.2,0.3,0.5,0.6,0.8,0.8c0.3,0.2,0.7,0.3,1.2,0.3c0.5,0,0.9-0.1,1.3-0.3s0.6-0.4,0.8-0.8
			c0.2-0.3,0.4-0.7,0.5-1.1c0.1-0.4,0.1-0.8,0.1-1.2c0-0.4,0-0.8-0.1-1.2c-0.1-0.4-0.3-0.7-0.5-1.1c-0.2-0.3-0.5-0.6-0.8-0.8
			c-0.3-0.2-0.8-0.3-1.3-0.3c-0.5,0-0.8,0.1-1.2,0.3c-0.3,0.2-0.6,0.4-0.8,0.8s-0.4,0.7-0.5,1.1c-0.1,0.4-0.1,0.8-0.1,1.2
			C109.2,118.4,109.2,118.8,109.3,119.2z"/>
		<path class="st0" d="M122.4,114.2c0.5,0.2,0.8,0.5,1.2,0.9c0.3,0.4,0.5,0.8,0.7,1.3s0.2,1,0.2,1.6c0,0.6-0.1,1.1-0.2,1.6
			s-0.4,0.9-0.7,1.3s-0.7,0.7-1.2,0.9c-0.5,0.2-1,0.3-1.6,0.3c-0.6,0-1.1-0.1-1.6-0.3c-0.5-0.2-0.8-0.5-1.2-0.9s-0.5-0.8-0.7-1.3
			c-0.2-0.5-0.2-1-0.2-1.6c0-0.6,0.1-1.1,0.2-1.6c0.2-0.5,0.4-0.9,0.7-1.3c0.3-0.4,0.7-0.7,1.2-0.9s1-0.3,1.6-0.3
			C121.4,113.9,121.9,114,122.4,114.2z M119.6,114.9c-0.3,0.2-0.6,0.4-0.8,0.8c-0.2,0.3-0.4,0.7-0.5,1.1s-0.2,0.8-0.2,1.2
			s0.1,0.8,0.2,1.2c0.1,0.4,0.3,0.8,0.5,1.1c0.2,0.3,0.5,0.6,0.8,0.8s0.7,0.3,1.2,0.3c0.5,0,0.8-0.1,1.2-0.3
			c0.3-0.2,0.6-0.4,0.8-0.8c0.2-0.3,0.4-0.7,0.5-1.1c0.1-0.4,0.2-0.8,0.2-1.2s-0.1-0.8-0.2-1.2s-0.3-0.7-0.5-1.1
			c-0.2-0.3-0.5-0.6-0.8-0.8c-0.3-0.2-0.7-0.3-1.2-0.3C120.3,114.7,119.9,114.8,119.6,114.9z"/>
		<path class="st0" d="M130.6,115.6c-0.1-0.2-0.3-0.4-0.4-0.5c-0.2-0.1-0.4-0.2-0.6-0.3c-0.2-0.1-0.5-0.1-0.8-0.1
			c-0.2,0-0.4,0-0.6,0.1c-0.2,0-0.4,0.1-0.6,0.2c-0.2,0.1-0.3,0.2-0.4,0.4c-0.1,0.2-0.2,0.4-0.2,0.6c0,0.2,0.1,0.4,0.2,0.5
			c0.1,0.1,0.2,0.3,0.4,0.4c0.2,0.1,0.3,0.2,0.5,0.2c0.2,0.1,0.4,0.1,0.5,0.2l1.3,0.3c0.3,0,0.5,0.1,0.8,0.2
			c0.3,0.1,0.5,0.2,0.7,0.4c0.2,0.2,0.4,0.4,0.5,0.6c0.1,0.3,0.2,0.5,0.2,0.9c0,0.4-0.1,0.8-0.3,1.1c-0.2,0.3-0.4,0.5-0.7,0.7
			c-0.3,0.2-0.6,0.3-1,0.4c-0.4,0.1-0.7,0.1-1.1,0.1c-0.9,0-1.7-0.2-2.2-0.6c-0.6-0.4-0.9-1.1-1-2.1h0.9c0,0.6,0.3,1.1,0.7,1.5
			c0.4,0.3,1,0.5,1.6,0.5c0.2,0,0.5,0,0.7-0.1c0.2,0,0.5-0.1,0.7-0.3c0.2-0.1,0.4-0.3,0.5-0.5c0.1-0.2,0.2-0.4,0.2-0.7
			c0-0.2,0-0.4-0.1-0.6c-0.1-0.2-0.2-0.3-0.4-0.4c-0.2-0.1-0.3-0.2-0.5-0.3c-0.2-0.1-0.4-0.1-0.6-0.2l-1.2-0.3
			c-0.3-0.1-0.6-0.2-0.9-0.3c-0.3-0.1-0.5-0.2-0.7-0.4s-0.3-0.3-0.5-0.6s-0.2-0.5-0.2-0.8c0-0.4,0.1-0.7,0.3-1
			c0.2-0.3,0.4-0.5,0.7-0.7c0.3-0.2,0.6-0.3,0.9-0.4s0.7-0.1,1-0.1c0.4,0,0.8,0.1,1.1,0.2c0.3,0.1,0.6,0.3,0.9,0.5
			c0.3,0.2,0.5,0.5,0.6,0.8c0.1,0.3,0.2,0.7,0.3,1.1h-0.9C130.8,116.1,130.7,115.8,130.6,115.6z"/>
		<path class="st0" d="M144.1,121.8v-1.5h0c-0.1,0.3-0.2,0.5-0.4,0.7c-0.2,0.2-0.4,0.4-0.7,0.5c-0.3,0.1-0.5,0.3-0.8,0.3
			c-0.3,0.1-0.6,0.1-0.8,0.1c-0.6,0-1.1-0.1-1.5-0.3c-0.4-0.2-0.8-0.5-1.1-0.9s-0.5-0.8-0.6-1.3s-0.2-1-0.2-1.6
			c0-0.6,0.1-1.1,0.2-1.6s0.4-0.9,0.6-1.3s0.7-0.7,1.1-0.9c0.4-0.2,1-0.3,1.5-0.3c0.3,0,0.6,0,0.8,0.1c0.3,0.1,0.5,0.2,0.8,0.3
			c0.2,0.1,0.5,0.3,0.6,0.5c0.2,0.2,0.3,0.5,0.4,0.7h0v-4.5h0.9v10.7H144.1z M138.9,119.2c0.1,0.4,0.2,0.7,0.5,1.1
			c0.2,0.3,0.5,0.6,0.8,0.8c0.3,0.2,0.7,0.3,1.2,0.3c0.5,0,0.9-0.1,1.3-0.3s0.6-0.4,0.8-0.8c0.2-0.3,0.4-0.7,0.5-1.1
			c0.1-0.4,0.1-0.8,0.1-1.2c0-0.4,0-0.8-0.1-1.2c-0.1-0.4-0.3-0.7-0.5-1.1s-0.5-0.6-0.8-0.8c-0.3-0.2-0.8-0.3-1.3-0.3
			c-0.5,0-0.8,0.1-1.2,0.3c-0.3,0.2-0.6,0.4-0.8,0.8c-0.2,0.3-0.4,0.7-0.5,1.1c-0.1,0.4-0.1,0.8-0.1,1.2
			C138.8,118.4,138.8,118.8,138.9,119.2z"/>
		<path class="st0" d="M147.8,119.3c0.1,0.4,0.2,0.7,0.5,1c0.2,0.3,0.5,0.5,0.8,0.7c0.3,0.2,0.7,0.3,1.2,0.3c0.7,0,1.2-0.2,1.6-0.5
			c0.4-0.4,0.7-0.8,0.8-1.4h0.9c-0.2,0.9-0.6,1.6-1.1,2c-0.5,0.5-1.3,0.7-2.3,0.7c-0.6,0-1.1-0.1-1.6-0.3c-0.4-0.2-0.8-0.5-1.1-0.9
			c-0.3-0.4-0.5-0.8-0.6-1.3c-0.1-0.5-0.2-1-0.2-1.6c0-0.5,0.1-1,0.2-1.5c0.1-0.5,0.3-0.9,0.6-1.3c0.3-0.4,0.6-0.7,1.1-0.9
			c0.4-0.2,1-0.4,1.6-0.4c0.6,0,1.2,0.1,1.6,0.4c0.4,0.3,0.8,0.6,1.1,1c0.3,0.4,0.5,0.9,0.6,1.4c0.1,0.5,0.2,1.1,0.2,1.6h-6
			C147.7,118.6,147.7,118.9,147.8,119.3z M152.5,116.4c-0.1-0.3-0.3-0.6-0.5-0.9c-0.2-0.3-0.5-0.5-0.8-0.6c-0.3-0.2-0.6-0.2-1-0.2
			c-0.4,0-0.7,0.1-1,0.2s-0.6,0.4-0.8,0.6c-0.2,0.3-0.4,0.6-0.5,0.9c-0.1,0.3-0.2,0.7-0.2,1h5C152.7,117.1,152.6,116.7,152.5,116.4z
			"/>
		<path class="st0" d="M156.1,114.1v1.5h0c0.2-0.5,0.6-1,1.1-1.3c0.5-0.3,1.1-0.4,1.7-0.4c0.6,0,1.1,0.1,1.5,0.3
			c0.4,0.2,0.8,0.5,1.1,0.9c0.3,0.4,0.5,0.8,0.6,1.3s0.2,1,0.2,1.6c0,0.6-0.1,1.1-0.2,1.6s-0.4,0.9-0.6,1.3
			c-0.3,0.4-0.7,0.7-1.1,0.9c-0.4,0.2-0.9,0.3-1.5,0.3c-0.3,0-0.6,0-0.8-0.1c-0.3-0.1-0.5-0.2-0.8-0.3c-0.2-0.1-0.5-0.3-0.6-0.5
			c-0.2-0.2-0.3-0.5-0.4-0.7h0v4.3h-0.9v-10.6H156.1z M161.3,116.8c-0.1-0.4-0.2-0.7-0.5-1.1c-0.2-0.3-0.5-0.6-0.8-0.8
			c-0.3-0.2-0.7-0.3-1.2-0.3c-0.5,0-1,0.1-1.3,0.3c-0.4,0.2-0.6,0.4-0.8,0.7c-0.2,0.3-0.4,0.7-0.4,1.1c-0.1,0.4-0.1,0.8-0.1,1.3
			c0,0.4,0,0.8,0.1,1.2c0.1,0.4,0.3,0.7,0.5,1.1c0.2,0.3,0.5,0.6,0.8,0.8s0.8,0.3,1.3,0.3c0.5,0,0.8-0.1,1.2-0.3
			c0.3-0.2,0.6-0.4,0.8-0.8c0.2-0.3,0.4-0.7,0.5-1.1c0.1-0.4,0.1-0.8,0.1-1.2C161.4,117.6,161.4,117.2,161.3,116.8z"/>
		<path class="st0" d="M165,114.1v1.8h0c0.2-0.6,0.6-1.1,1.1-1.5c0.5-0.3,1.1-0.5,1.8-0.5v0.9c-0.4,0-0.8,0-1.2,0.2
			c-0.4,0.1-0.7,0.3-0.9,0.6c-0.3,0.3-0.5,0.5-0.6,0.9s-0.2,0.7-0.2,1.1v4.1h-0.9v-7.8H165z"/>
		<path class="st0" d="M169.9,119.3c0.1,0.4,0.2,0.7,0.5,1c0.2,0.3,0.5,0.5,0.8,0.7c0.3,0.2,0.7,0.3,1.2,0.3c0.7,0,1.2-0.2,1.6-0.5
			c0.4-0.4,0.7-0.8,0.8-1.4h0.9c-0.2,0.9-0.6,1.6-1.1,2c-0.5,0.5-1.3,0.7-2.3,0.7c-0.6,0-1.1-0.1-1.6-0.3c-0.4-0.2-0.8-0.5-1.1-0.9
			c-0.3-0.4-0.5-0.8-0.6-1.3c-0.1-0.5-0.2-1-0.2-1.6c0-0.5,0.1-1,0.2-1.5c0.1-0.5,0.3-0.9,0.6-1.3c0.3-0.4,0.6-0.7,1.1-0.9
			c0.4-0.2,1-0.4,1.6-0.4c0.6,0,1.2,0.1,1.6,0.4c0.4,0.3,0.8,0.6,1.1,1c0.3,0.4,0.5,0.9,0.6,1.4c0.1,0.5,0.2,1.1,0.2,1.6h-6
			C169.7,118.6,169.8,118.9,169.9,119.3z M174.6,116.4c-0.1-0.3-0.3-0.6-0.5-0.9c-0.2-0.3-0.5-0.5-0.8-0.6c-0.3-0.2-0.6-0.2-1-0.2
			c-0.4,0-0.7,0.1-1,0.2s-0.6,0.4-0.8,0.6c-0.2,0.3-0.4,0.6-0.5,0.9c-0.1,0.3-0.2,0.7-0.2,1h5C174.7,117.1,174.7,116.7,174.6,116.4z
			"/>
		<path class="st0" d="M181.7,115.6c-0.1-0.2-0.3-0.4-0.4-0.5s-0.4-0.2-0.6-0.3c-0.2-0.1-0.5-0.1-0.8-0.1c-0.2,0-0.4,0-0.6,0.1
			c-0.2,0-0.4,0.1-0.6,0.2c-0.2,0.1-0.3,0.2-0.4,0.4c-0.1,0.2-0.2,0.4-0.2,0.6c0,0.2,0.1,0.4,0.2,0.5s0.2,0.3,0.4,0.4
			c0.2,0.1,0.3,0.2,0.5,0.2c0.2,0.1,0.4,0.1,0.5,0.2l1.3,0.3c0.3,0,0.5,0.1,0.8,0.2c0.3,0.1,0.5,0.2,0.7,0.4s0.4,0.4,0.5,0.6
			c0.1,0.3,0.2,0.5,0.2,0.9c0,0.4-0.1,0.8-0.3,1.1c-0.2,0.3-0.4,0.5-0.7,0.7c-0.3,0.2-0.6,0.3-1,0.4s-0.7,0.1-1.1,0.1
			c-0.9,0-1.7-0.2-2.2-0.6c-0.6-0.4-0.9-1.1-1-2.1h0.9c0,0.6,0.3,1.1,0.7,1.5c0.4,0.3,1,0.5,1.6,0.5c0.2,0,0.5,0,0.7-0.1
			c0.2,0,0.5-0.1,0.7-0.3c0.2-0.1,0.4-0.3,0.5-0.5c0.1-0.2,0.2-0.4,0.2-0.7c0-0.2,0-0.4-0.1-0.6c-0.1-0.2-0.2-0.3-0.4-0.4
			c-0.2-0.1-0.3-0.2-0.5-0.3s-0.4-0.1-0.6-0.2l-1.2-0.3c-0.3-0.1-0.6-0.2-0.9-0.3c-0.3-0.1-0.5-0.2-0.7-0.4
			c-0.2-0.2-0.3-0.3-0.5-0.6s-0.2-0.5-0.2-0.8c0-0.4,0.1-0.7,0.3-1c0.2-0.3,0.4-0.5,0.7-0.7c0.3-0.2,0.6-0.3,0.9-0.4s0.7-0.1,1-0.1
			c0.4,0,0.8,0.1,1.1,0.2c0.3,0.1,0.6,0.3,0.9,0.5c0.3,0.2,0.5,0.5,0.6,0.8s0.2,0.7,0.3,1.1h-0.9
			C181.9,116.1,181.9,115.8,181.7,115.6z"/>
		<path class="st0" d="M185.8,111.1v1.5h-0.9v-1.5H185.8z M185.8,114.1v7.8h-0.9v-7.8H185.8z"/>
		<path class="st0" d="M188.1,114.1l2.4,6.8h0l2.4-6.8h1l-2.9,7.8h-1l-3-7.8H188.1z"/>
		<path class="st0" d="M200,114.2c0.5,0.2,0.8,0.5,1.2,0.9c0.3,0.4,0.5,0.8,0.7,1.3s0.2,1,0.2,1.6c0,0.6-0.1,1.1-0.2,1.6
			s-0.4,0.9-0.7,1.3s-0.7,0.7-1.2,0.9c-0.5,0.2-1,0.3-1.6,0.3c-0.6,0-1.1-0.1-1.6-0.3c-0.5-0.2-0.8-0.5-1.2-0.9s-0.5-0.8-0.7-1.3
			c-0.2-0.5-0.2-1-0.2-1.6c0-0.6,0.1-1.1,0.2-1.6c0.2-0.5,0.4-0.9,0.7-1.3c0.3-0.4,0.7-0.7,1.2-0.9s1-0.3,1.6-0.3
			C199,113.9,199.5,114,200,114.2z M197.2,114.9c-0.3,0.2-0.6,0.4-0.8,0.8c-0.2,0.3-0.4,0.7-0.5,1.1s-0.2,0.8-0.2,1.2
			s0.1,0.8,0.2,1.2c0.1,0.4,0.3,0.8,0.5,1.1c0.2,0.3,0.5,0.6,0.8,0.8s0.7,0.3,1.2,0.3c0.5,0,0.8-0.1,1.2-0.3
			c0.3-0.2,0.6-0.4,0.8-0.8c0.2-0.3,0.4-0.7,0.5-1.1c0.1-0.4,0.2-0.8,0.2-1.2s-0.1-0.8-0.2-1.2s-0.3-0.7-0.5-1.1
			c-0.2-0.3-0.5-0.6-0.8-0.8c-0.3-0.2-0.7-0.3-1.2-0.3C198,114.7,197.6,114.8,197.2,114.9z"/>
		<path class="st0" d="M208.3,115.6c-0.1-0.2-0.3-0.4-0.4-0.5s-0.4-0.2-0.6-0.3c-0.2-0.1-0.5-0.1-0.8-0.1c-0.2,0-0.4,0-0.6,0.1
			c-0.2,0-0.4,0.1-0.6,0.2c-0.2,0.1-0.3,0.2-0.4,0.4c-0.1,0.2-0.2,0.4-0.2,0.6c0,0.2,0.1,0.4,0.2,0.5s0.2,0.3,0.4,0.4
			c0.2,0.1,0.3,0.2,0.5,0.2c0.2,0.1,0.4,0.1,0.5,0.2l1.3,0.3c0.3,0,0.5,0.1,0.8,0.2c0.3,0.1,0.5,0.2,0.7,0.4s0.4,0.4,0.5,0.6
			c0.1,0.3,0.2,0.5,0.2,0.9c0,0.4-0.1,0.8-0.3,1.1c-0.2,0.3-0.4,0.5-0.7,0.7c-0.3,0.2-0.6,0.3-1,0.4s-0.7,0.1-1.1,0.1
			c-0.9,0-1.7-0.2-2.2-0.6c-0.6-0.4-0.9-1.1-1-2.1h0.9c0,0.6,0.3,1.1,0.7,1.5c0.4,0.3,1,0.5,1.6,0.5c0.2,0,0.5,0,0.7-0.1
			c0.2,0,0.5-0.1,0.7-0.3c0.2-0.1,0.4-0.3,0.5-0.5c0.1-0.2,0.2-0.4,0.2-0.7c0-0.2,0-0.4-0.1-0.6c-0.1-0.2-0.2-0.3-0.4-0.4
			c-0.2-0.1-0.3-0.2-0.5-0.3s-0.4-0.1-0.6-0.2l-1.2-0.3c-0.3-0.1-0.6-0.2-0.9-0.3c-0.3-0.1-0.5-0.2-0.7-0.4
			c-0.2-0.2-0.3-0.3-0.5-0.6s-0.2-0.5-0.2-0.8c0-0.4,0.1-0.7,0.3-1c0.2-0.3,0.4-0.5,0.7-0.7c0.3-0.2,0.6-0.3,0.9-0.4s0.7-0.1,1-0.1
			c0.4,0,0.8,0.1,1.1,0.2c0.3,0.1,0.6,0.3,0.9,0.5c0.3,0.2,0.5,0.5,0.6,0.8s0.2,0.7,0.3,1.1h-0.9
			C208.4,116.1,208.4,115.8,208.3,115.6z"/>
		<path class="st0" d="M120.4,132.2c0.5,0.2,0.8,0.5,1.1,0.9c0.3,0.4,0.5,0.8,0.7,1.3s0.2,1,0.2,1.6c0,0.6-0.1,1.1-0.2,1.6
			s-0.4,0.9-0.7,1.3s-0.7,0.7-1.1,0.9c-0.5,0.2-1,0.3-1.6,0.3c-0.6,0-1.1-0.1-1.6-0.3c-0.5-0.2-0.8-0.5-1.1-0.9
			c-0.3-0.4-0.5-0.8-0.7-1.3s-0.2-1-0.2-1.6c0-0.6,0.1-1.1,0.2-1.6s0.4-0.9,0.7-1.3c0.3-0.4,0.7-0.7,1.1-0.9s1-0.3,1.6-0.3
			C119.4,131.9,119.9,132,120.4,132.2z M117.6,133c-0.3,0.2-0.6,0.4-0.8,0.8s-0.4,0.7-0.5,1.1c-0.1,0.4-0.2,0.8-0.2,1.2
			s0.1,0.8,0.2,1.2c0.1,0.4,0.3,0.8,0.5,1.1s0.5,0.6,0.8,0.8s0.7,0.3,1.2,0.3s0.8-0.1,1.2-0.3s0.6-0.4,0.8-0.8s0.4-0.7,0.5-1.1
			c0.1-0.4,0.2-0.8,0.2-1.2s-0.1-0.8-0.2-1.2s-0.3-0.7-0.5-1.1s-0.5-0.6-0.8-0.8s-0.7-0.3-1.2-0.3S118,132.8,117.6,133z"/>
		<path class="st0" d="M134.6,139.9v-1.5h0c-0.1,0.3-0.2,0.5-0.4,0.7c-0.2,0.2-0.4,0.4-0.7,0.5c-0.3,0.1-0.5,0.3-0.8,0.3
			c-0.3,0.1-0.6,0.1-0.8,0.1c-0.6,0-1.1-0.1-1.5-0.3c-0.4-0.2-0.8-0.5-1.1-0.9c-0.3-0.4-0.5-0.8-0.6-1.3c-0.1-0.5-0.2-1-0.2-1.6
			c0-0.6,0.1-1.1,0.2-1.6c0.1-0.5,0.4-0.9,0.6-1.3c0.3-0.4,0.7-0.7,1.1-0.9c0.4-0.2,0.9-0.3,1.5-0.3c0.3,0,0.6,0,0.8,0.1
			c0.3,0.1,0.5,0.2,0.8,0.3c0.2,0.1,0.5,0.3,0.6,0.5c0.2,0.2,0.3,0.5,0.4,0.7h0v-4.5h0.9v10.7H134.6z M129.4,137.2
			c0.1,0.4,0.2,0.7,0.5,1.1c0.2,0.3,0.5,0.6,0.8,0.8c0.3,0.2,0.7,0.3,1.2,0.3c0.5,0,0.9-0.1,1.3-0.3s0.6-0.4,0.8-0.8
			c0.2-0.3,0.4-0.7,0.5-1.1c0.1-0.4,0.1-0.8,0.1-1.2c0-0.4,0-0.8-0.1-1.2c-0.1-0.4-0.3-0.7-0.5-1.1c-0.2-0.3-0.5-0.6-0.8-0.8
			c-0.3-0.2-0.8-0.3-1.3-0.3c-0.5,0-0.8,0.1-1.2,0.3c-0.3,0.2-0.6,0.4-0.8,0.8s-0.4,0.7-0.5,1.1c-0.1,0.4-0.1,0.8-0.1,1.2
			C129.3,136.4,129.3,136.8,129.4,137.2z"/>
		<path class="st0" d="M138.3,137.3c0.1,0.4,0.2,0.7,0.5,1c0.2,0.3,0.5,0.5,0.8,0.7c0.3,0.2,0.7,0.3,1.2,0.3c0.7,0,1.2-0.2,1.6-0.5
			c0.4-0.4,0.7-0.8,0.8-1.4h0.9c-0.2,0.9-0.6,1.6-1.1,2c-0.5,0.5-1.3,0.7-2.3,0.7c-0.6,0-1.1-0.1-1.6-0.3c-0.4-0.2-0.8-0.5-1.1-0.9
			c-0.3-0.4-0.5-0.8-0.6-1.3c-0.1-0.5-0.2-1-0.2-1.6c0-0.5,0.1-1,0.2-1.5c0.1-0.5,0.3-0.9,0.6-1.3c0.3-0.4,0.6-0.7,1.1-0.9
			c0.4-0.2,1-0.4,1.6-0.4c0.6,0,1.2,0.1,1.6,0.4c0.4,0.3,0.8,0.6,1.1,1c0.3,0.4,0.5,0.9,0.6,1.4c0.1,0.5,0.2,1.1,0.2,1.6h-6
			C138.2,136.6,138.2,137,138.3,137.3z M143,134.4c-0.1-0.3-0.3-0.6-0.5-0.9c-0.2-0.3-0.5-0.5-0.8-0.6c-0.3-0.2-0.6-0.2-1-0.2
			c-0.4,0-0.7,0.1-1,0.2s-0.6,0.4-0.8,0.6c-0.2,0.3-0.4,0.6-0.5,0.9c-0.1,0.3-0.2,0.7-0.2,1h5C143.2,135.1,143.1,134.8,143,134.4z"
			/>
		<path class="st0" d="M150.4,133.3c0.2-0.3,0.4-0.6,0.7-0.8c0.3-0.2,0.6-0.4,1-0.5c0.4-0.1,0.8-0.2,1.2-0.2c0.3,0,0.7,0,1,0.1
			c0.3,0.1,0.6,0.2,0.9,0.4c0.3,0.2,0.5,0.4,0.7,0.8c0.2,0.3,0.3,0.7,0.3,1.3v4.1c0,0.4,0.2,0.6,0.6,0.6c0.1,0,0.2,0,0.3-0.1v0.8
			c-0.1,0-0.2,0-0.3,0s-0.2,0-0.3,0c-0.2,0-0.4,0-0.6-0.1s-0.3-0.2-0.3-0.3s-0.1-0.3-0.2-0.4c0-0.2,0-0.3,0-0.5h0
			c-0.2,0.3-0.3,0.5-0.5,0.7c-0.2,0.2-0.4,0.4-0.6,0.5c-0.2,0.1-0.5,0.2-0.7,0.3c-0.3,0.1-0.6,0.1-1,0.1c-0.4,0-0.7,0-1-0.1
			c-0.3-0.1-0.6-0.2-0.8-0.4s-0.4-0.4-0.6-0.7c-0.1-0.3-0.2-0.6-0.2-1c0-0.5,0.1-1,0.4-1.3c0.2-0.3,0.6-0.5,1-0.7
			c0.4-0.2,0.8-0.3,1.3-0.3c0.5-0.1,1-0.1,1.5-0.2c0.2,0,0.4,0,0.5-0.1c0.1,0,0.3-0.1,0.4-0.2c0.1-0.1,0.2-0.2,0.2-0.3
			c0.1-0.1,0.1-0.3,0.1-0.5c0-0.3-0.1-0.6-0.2-0.8s-0.3-0.4-0.4-0.5c-0.2-0.1-0.4-0.2-0.6-0.2c-0.2,0-0.5-0.1-0.8-0.1
			c-0.6,0-1.1,0.1-1.5,0.4c-0.4,0.3-0.6,0.7-0.6,1.4h-0.9C150.1,134.1,150.2,133.7,150.4,133.3z M155.1,135.7
			c-0.1,0.1-0.2,0.2-0.3,0.2c-0.2,0-0.3,0.1-0.5,0.1c-0.4,0.1-0.8,0.1-1.2,0.2c-0.4,0.1-0.8,0.1-1.2,0.2c-0.4,0.1-0.6,0.3-0.9,0.5
			c-0.2,0.2-0.3,0.5-0.3,0.9c0,0.2,0,0.5,0.1,0.6c0.1,0.2,0.2,0.3,0.4,0.5c0.2,0.1,0.3,0.2,0.6,0.3c0.2,0.1,0.4,0.1,0.6,0.1
			c0.4,0,0.7-0.1,1-0.2s0.6-0.3,0.9-0.5c0.2-0.2,0.4-0.5,0.6-0.8c0.1-0.3,0.2-0.6,0.2-1L155.1,135.7L155.1,135.7z"/>
		<path class="st0" d="M159.2,132.1v1.3h0c0.2-0.5,0.5-0.8,1-1.1c0.5-0.3,1-0.4,1.5-0.4c0.5,0,1,0.1,1.4,0.2s0.7,0.3,0.9,0.6
			c0.2,0.3,0.4,0.6,0.5,0.9c0.1,0.4,0.1,0.8,0.1,1.2v5h-0.9V135c0-0.3,0-0.6-0.1-0.9c-0.1-0.3-0.2-0.5-0.3-0.7
			c-0.2-0.2-0.4-0.4-0.6-0.5c-0.3-0.1-0.6-0.2-1-0.2s-0.7,0.1-1,0.2c-0.3,0.1-0.5,0.3-0.8,0.6c-0.2,0.2-0.4,0.5-0.5,0.8
			s-0.2,0.7-0.2,1.1v4.5h-0.9v-7.8H159.2z"/>
		<path class="st0" d="M171.1,133.6c-0.1-0.2-0.3-0.4-0.4-0.5s-0.4-0.2-0.6-0.3c-0.2-0.1-0.5-0.1-0.8-0.1c-0.2,0-0.4,0-0.6,0.1
			c-0.2,0-0.4,0.1-0.6,0.2c-0.2,0.1-0.3,0.2-0.4,0.4c-0.1,0.2-0.2,0.4-0.2,0.6c0,0.2,0.1,0.4,0.2,0.5s0.2,0.3,0.4,0.4
			c0.2,0.1,0.3,0.2,0.5,0.2c0.2,0.1,0.4,0.1,0.5,0.2l1.3,0.3c0.3,0,0.5,0.1,0.8,0.2c0.3,0.1,0.5,0.2,0.7,0.4s0.4,0.4,0.5,0.6
			c0.1,0.3,0.2,0.5,0.2,0.9c0,0.4-0.1,0.8-0.3,1.1c-0.2,0.3-0.4,0.5-0.7,0.7c-0.3,0.2-0.6,0.3-1,0.4s-0.7,0.1-1.1,0.1
			c-0.9,0-1.7-0.2-2.2-0.6c-0.6-0.4-0.9-1.1-1-2.1h0.9c0,0.6,0.3,1.1,0.7,1.5c0.4,0.3,1,0.5,1.6,0.5c0.2,0,0.5,0,0.7-0.1
			c0.2,0,0.5-0.1,0.7-0.3c0.2-0.1,0.4-0.3,0.5-0.5c0.1-0.2,0.2-0.4,0.2-0.7c0-0.2,0-0.4-0.1-0.6c-0.1-0.2-0.2-0.3-0.4-0.4
			c-0.2-0.1-0.3-0.2-0.5-0.3s-0.4-0.1-0.6-0.2l-1.2-0.3c-0.3-0.1-0.6-0.2-0.9-0.3c-0.3-0.1-0.5-0.2-0.7-0.4
			c-0.2-0.2-0.3-0.3-0.5-0.6s-0.2-0.5-0.2-0.8c0-0.4,0.1-0.7,0.3-1c0.2-0.3,0.4-0.5,0.7-0.7c0.3-0.2,0.6-0.3,0.9-0.4s0.7-0.1,1-0.1
			c0.4,0,0.8,0.1,1.1,0.2c0.3,0.1,0.6,0.3,0.9,0.5c0.3,0.2,0.5,0.5,0.6,0.8s0.2,0.7,0.3,1.1h-0.9
			C171.3,134.1,171.2,133.9,171.1,133.6z"/>
		<path class="st0" d="M175.2,129.2v1.5h-0.9v-1.5H175.2z M175.2,132.1v7.8h-0.9v-7.8H175.2z"/>
		<path class="st0" d="M178,137.3c0.1,0.4,0.2,0.7,0.5,1c0.2,0.3,0.5,0.5,0.8,0.7c0.3,0.2,0.7,0.3,1.2,0.3c0.7,0,1.2-0.2,1.6-0.5
			c0.4-0.4,0.7-0.8,0.8-1.4h0.9c-0.2,0.9-0.6,1.6-1.1,2c-0.5,0.5-1.3,0.7-2.3,0.7c-0.6,0-1.1-0.1-1.6-0.3c-0.4-0.2-0.8-0.5-1.1-0.9
			c-0.3-0.4-0.5-0.8-0.6-1.3c-0.1-0.5-0.2-1-0.2-1.6c0-0.5,0.1-1,0.2-1.5c0.1-0.5,0.3-0.9,0.6-1.3c0.3-0.4,0.6-0.7,1.1-0.9
			c0.4-0.2,1-0.4,1.6-0.4c0.6,0,1.2,0.1,1.6,0.4c0.4,0.3,0.8,0.6,1.1,1c0.3,0.4,0.5,0.9,0.6,1.4c0.1,0.5,0.2,1.1,0.2,1.6h-6
			C177.8,136.6,177.9,137,178,137.3z M182.7,134.4c-0.1-0.3-0.3-0.6-0.5-0.9c-0.2-0.3-0.5-0.5-0.8-0.6c-0.3-0.2-0.6-0.2-1-0.2
			c-0.4,0-0.7,0.1-1,0.2s-0.6,0.4-0.8,0.6c-0.2,0.3-0.4,0.6-0.5,0.9c-0.1,0.3-0.2,0.7-0.2,1h5C182.8,135.1,182.8,134.8,182.7,134.4z
			"/>
		<path class="st0" d="M191.3,139.9v-1.5h0c-0.1,0.3-0.2,0.5-0.4,0.7c-0.2,0.2-0.4,0.4-0.7,0.5c-0.3,0.1-0.5,0.3-0.8,0.3
			c-0.3,0.1-0.6,0.1-0.8,0.1c-0.6,0-1.1-0.1-1.5-0.3c-0.4-0.2-0.8-0.5-1.1-0.9c-0.3-0.4-0.5-0.8-0.6-1.3c-0.1-0.5-0.2-1-0.2-1.6
			c0-0.6,0.1-1.1,0.2-1.6c0.1-0.5,0.4-0.9,0.6-1.3c0.3-0.4,0.7-0.7,1.1-0.9c0.4-0.2,0.9-0.3,1.5-0.3c0.3,0,0.6,0,0.8,0.1
			c0.3,0.1,0.5,0.2,0.8,0.3c0.2,0.1,0.5,0.3,0.6,0.5c0.2,0.2,0.3,0.5,0.4,0.7h0v-4.5h0.9v10.7H191.3z M186.1,137.2
			c0.1,0.4,0.2,0.7,0.5,1.1c0.2,0.3,0.5,0.6,0.8,0.8c0.3,0.2,0.7,0.3,1.2,0.3c0.5,0,0.9-0.1,1.3-0.3s0.6-0.4,0.8-0.8
			c0.2-0.3,0.4-0.7,0.5-1.1c0.1-0.4,0.1-0.8,0.1-1.2c0-0.4,0-0.8-0.1-1.2c-0.1-0.4-0.3-0.7-0.5-1.1c-0.2-0.3-0.5-0.6-0.8-0.8
			c-0.3-0.2-0.8-0.3-1.3-0.3c-0.5,0-0.8,0.1-1.2,0.3c-0.3,0.2-0.6,0.4-0.8,0.8s-0.4,0.7-0.5,1.1c-0.1,0.4-0.1,0.8-0.1,1.2
			C186,136.4,186,136.8,186.1,137.2z"/>
		<path class="st0" d="M194.5,133.3c0.2-0.3,0.4-0.6,0.7-0.8c0.3-0.2,0.6-0.4,1-0.5c0.4-0.1,0.8-0.2,1.2-0.2c0.3,0,0.7,0,1,0.1
			c0.3,0.1,0.6,0.2,0.9,0.4c0.3,0.2,0.5,0.4,0.7,0.8c0.2,0.3,0.3,0.7,0.3,1.3v4.1c0,0.4,0.2,0.6,0.6,0.6c0.1,0,0.2,0,0.3-0.1v0.8
			c-0.1,0-0.2,0-0.3,0s-0.2,0-0.3,0c-0.2,0-0.4,0-0.6-0.1s-0.3-0.2-0.3-0.3s-0.1-0.3-0.2-0.4c0-0.2,0-0.3,0-0.5h0
			c-0.2,0.3-0.3,0.5-0.5,0.7c-0.2,0.2-0.4,0.4-0.6,0.5c-0.2,0.1-0.5,0.2-0.7,0.3c-0.3,0.1-0.6,0.1-1,0.1c-0.4,0-0.7,0-1-0.1
			c-0.3-0.1-0.6-0.2-0.8-0.4s-0.4-0.4-0.6-0.7c-0.1-0.3-0.2-0.6-0.2-1c0-0.5,0.1-1,0.4-1.3c0.2-0.3,0.6-0.5,1-0.7
			c0.4-0.2,0.8-0.3,1.3-0.3c0.5-0.1,1-0.1,1.5-0.2c0.2,0,0.4,0,0.5-0.1c0.1,0,0.3-0.1,0.4-0.2c0.1-0.1,0.2-0.2,0.2-0.3
			c0.1-0.1,0.1-0.3,0.1-0.5c0-0.3-0.1-0.6-0.2-0.8s-0.3-0.4-0.4-0.5c-0.2-0.1-0.4-0.2-0.6-0.2c-0.2,0-0.5-0.1-0.8-0.1
			c-0.6,0-1.1,0.1-1.5,0.4c-0.4,0.3-0.6,0.7-0.6,1.4h-0.9C194.3,134.1,194.3,133.7,194.5,133.3z M199.2,135.7
			c-0.1,0.1-0.2,0.2-0.3,0.2c-0.2,0-0.3,0.1-0.5,0.1c-0.4,0.1-0.8,0.1-1.2,0.2c-0.4,0.1-0.8,0.1-1.2,0.2c-0.4,0.1-0.6,0.3-0.9,0.5
			c-0.2,0.2-0.3,0.5-0.3,0.9c0,0.2,0,0.5,0.1,0.6c0.1,0.2,0.2,0.3,0.4,0.5c0.2,0.1,0.3,0.2,0.6,0.3c0.2,0.1,0.4,0.1,0.6,0.1
			c0.4,0,0.7-0.1,1-0.2s0.6-0.3,0.9-0.5c0.2-0.2,0.4-0.5,0.6-0.8c0.1-0.3,0.2-0.6,0.2-1L199.2,135.7L199.2,135.7z"/>
		<path class="st0" d="M208.4,139.9v-1.5h0c-0.1,0.3-0.2,0.5-0.4,0.7c-0.2,0.2-0.4,0.4-0.7,0.5c-0.3,0.1-0.5,0.3-0.8,0.3
			c-0.3,0.1-0.6,0.1-0.8,0.1c-0.6,0-1.1-0.1-1.5-0.3c-0.4-0.2-0.8-0.5-1.1-0.9s-0.5-0.8-0.6-1.3s-0.2-1-0.2-1.6
			c0-0.6,0.1-1.1,0.2-1.6s0.4-0.9,0.6-1.3s0.7-0.7,1.1-0.9c0.4-0.2,1-0.3,1.5-0.3c0.3,0,0.6,0,0.8,0.1c0.3,0.1,0.5,0.2,0.8,0.3
			c0.2,0.1,0.5,0.3,0.6,0.5c0.2,0.2,0.3,0.5,0.4,0.7h0v-4.5h0.9v10.7H208.4z M203.2,137.2c0.1,0.4,0.2,0.7,0.5,1.1
			c0.2,0.3,0.5,0.6,0.8,0.8c0.3,0.2,0.7,0.3,1.2,0.3c0.5,0,0.9-0.1,1.3-0.3s0.6-0.4,0.8-0.8c0.2-0.3,0.4-0.7,0.5-1.1
			c0.1-0.4,0.1-0.8,0.1-1.2c0-0.4,0-0.8-0.1-1.2c-0.1-0.4-0.3-0.7-0.5-1.1s-0.5-0.6-0.8-0.8c-0.3-0.2-0.8-0.3-1.3-0.3
			c-0.5,0-0.8,0.1-1.2,0.3c-0.3,0.2-0.6,0.4-0.8,0.8c-0.2,0.3-0.4,0.7-0.5,1.1c-0.1,0.4-0.1,0.8-0.1,1.2
			C203,136.4,203.1,136.8,203.2,137.2z"/>
		<path class="st0" d="M138.3,151.5c0.1-0.3,0.3-0.6,0.6-0.8c0.2-0.2,0.5-0.4,0.8-0.6c0.3-0.1,0.7-0.2,1-0.2c0.4,0,0.7,0.1,1,0.2
			c0.3,0.1,0.6,0.3,0.9,0.6c0.2,0.2,0.4,0.5,0.6,0.8c0.1,0.3,0.2,0.7,0.2,1c0,0.4-0.1,0.7-0.2,1c-0.1,0.3-0.3,0.6-0.6,0.9
			c-0.2,0.2-0.5,0.4-0.9,0.6c-0.3,0.1-0.7,0.2-1,0.2c-0.4,0-0.7-0.1-1-0.2c-0.3-0.1-0.6-0.3-0.8-0.6c-0.2-0.2-0.4-0.5-0.6-0.9
			c-0.1-0.3-0.2-0.7-0.2-1C138.1,152.2,138.2,151.8,138.3,151.5z"/>
		<path class="st0" d="M151.5,147.2v10.7h-1v-10.7H151.5z"/>
		<path class="st0" d="M154.8,150.2v1.3h0c0.2-0.5,0.5-0.8,1-1.1c0.5-0.3,1-0.4,1.5-0.4c0.5,0,1,0.1,1.4,0.2
			c0.4,0.1,0.7,0.3,0.9,0.6s0.4,0.6,0.5,0.9c0.1,0.4,0.1,0.8,0.1,1.2v5h-0.9v-4.8c0-0.3,0-0.6-0.1-0.9c-0.1-0.3-0.2-0.5-0.3-0.7
			c-0.2-0.2-0.4-0.4-0.6-0.5s-0.6-0.2-1-0.2s-0.7,0.1-1,0.2c-0.3,0.1-0.5,0.3-0.8,0.6c-0.2,0.2-0.4,0.5-0.5,0.8s-0.2,0.7-0.2,1.1
			v4.5h-0.9v-7.8H154.8z"/>
		<path class="st0" d="M166.7,151.7c-0.1-0.2-0.3-0.4-0.4-0.5c-0.2-0.1-0.4-0.2-0.6-0.3c-0.2-0.1-0.5-0.1-0.8-0.1
			c-0.2,0-0.4,0-0.6,0.1c-0.2,0-0.4,0.1-0.6,0.2c-0.2,0.1-0.3,0.2-0.4,0.4c-0.1,0.2-0.2,0.4-0.2,0.6c0,0.2,0.1,0.4,0.2,0.5
			c0.1,0.1,0.2,0.3,0.4,0.4c0.2,0.1,0.3,0.2,0.5,0.2c0.2,0.1,0.4,0.1,0.5,0.2l1.3,0.3c0.3,0,0.5,0.1,0.8,0.2
			c0.3,0.1,0.5,0.2,0.7,0.4c0.2,0.2,0.4,0.4,0.5,0.6c0.1,0.3,0.2,0.5,0.2,0.9c0,0.4-0.1,0.8-0.3,1.1c-0.2,0.3-0.4,0.5-0.7,0.7
			c-0.3,0.2-0.6,0.3-1,0.4c-0.4,0.1-0.7,0.1-1.1,0.1c-0.9,0-1.7-0.2-2.2-0.6c-0.6-0.4-0.9-1.1-1-2.1h0.9c0,0.6,0.3,1.1,0.7,1.5
			c0.4,0.3,1,0.5,1.6,0.5c0.2,0,0.5,0,0.7-0.1c0.2,0,0.5-0.1,0.7-0.3c0.2-0.1,0.4-0.3,0.5-0.5c0.1-0.2,0.2-0.4,0.2-0.7
			c0-0.2,0-0.4-0.1-0.6c-0.1-0.2-0.2-0.3-0.4-0.4c-0.2-0.1-0.3-0.2-0.5-0.3c-0.2-0.1-0.4-0.1-0.6-0.2l-1.2-0.3
			c-0.3-0.1-0.6-0.2-0.9-0.3c-0.3-0.1-0.5-0.2-0.7-0.4s-0.3-0.3-0.5-0.6s-0.2-0.5-0.2-0.8c0-0.4,0.1-0.7,0.3-1
			c0.2-0.3,0.4-0.5,0.7-0.7c0.3-0.2,0.6-0.3,0.9-0.4s0.7-0.1,1-0.1c0.4,0,0.8,0.1,1.1,0.2c0.3,0.1,0.6,0.3,0.9,0.5
			c0.3,0.2,0.5,0.5,0.6,0.8c0.1,0.3,0.2,0.7,0.3,1.1h-0.9C166.8,152.2,166.8,151.9,166.7,151.7z"/>
		<path class="st0" d="M174.6,150.3c0.5,0.2,0.8,0.5,1.1,0.9c0.3,0.4,0.5,0.8,0.7,1.3s0.2,1,0.2,1.6c0,0.6-0.1,1.1-0.2,1.6
			s-0.4,0.9-0.7,1.3s-0.7,0.7-1.1,0.9c-0.5,0.2-1,0.3-1.6,0.3c-0.6,0-1.1-0.1-1.6-0.3c-0.5-0.2-0.8-0.5-1.1-0.9
			c-0.3-0.4-0.5-0.8-0.7-1.3s-0.2-1-0.2-1.6c0-0.6,0.1-1.1,0.2-1.6s0.4-0.9,0.7-1.3c0.3-0.4,0.7-0.7,1.1-0.9s1-0.3,1.6-0.3
			C173.6,149.9,174.1,150.1,174.6,150.3z M171.8,151c-0.3,0.2-0.6,0.4-0.8,0.8s-0.4,0.7-0.5,1.1c-0.1,0.4-0.2,0.8-0.2,1.2
			s0.1,0.8,0.2,1.2c0.1,0.4,0.3,0.8,0.5,1.1s0.5,0.6,0.8,0.8s0.7,0.3,1.2,0.3s0.8-0.1,1.2-0.3s0.6-0.4,0.8-0.8s0.4-0.7,0.5-1.1
			c0.1-0.4,0.2-0.8,0.2-1.2s-0.1-0.8-0.2-1.2s-0.3-0.7-0.5-1.1s-0.5-0.6-0.8-0.8s-0.7-0.3-1.2-0.3S172.2,150.8,171.8,151z"/>
		<path class="st0" d="M179.3,150.2v1.3h0c0.3-0.5,0.6-0.9,1-1.1s0.9-0.4,1.6-0.4c0.5,0,1,0.1,1.4,0.4c0.4,0.3,0.7,0.6,0.8,1.1
			c0.2-0.5,0.6-0.9,1-1.1c0.5-0.3,0.9-0.4,1.4-0.4c1.7,0,2.6,0.9,2.6,2.7v5.3h-0.9v-5.2c0-0.6-0.1-1.1-0.4-1.5s-0.7-0.5-1.4-0.5
			c-0.4,0-0.8,0.1-1,0.2s-0.5,0.4-0.6,0.6s-0.3,0.6-0.3,0.9c-0.1,0.3-0.1,0.7-0.1,1v4.4h-0.9v-5.3c0-0.3,0-0.5-0.1-0.7
			c-0.1-0.2-0.1-0.4-0.3-0.6c-0.1-0.2-0.3-0.3-0.5-0.4c-0.2-0.1-0.5-0.2-0.8-0.2c-0.4,0-0.7,0.1-1,0.2c-0.3,0.1-0.5,0.3-0.7,0.6
			c-0.2,0.3-0.3,0.6-0.4,0.9c-0.1,0.3-0.1,0.7-0.1,1.1v4.3h-0.9v-7.8H179.3z"/>
		<path class="st0" d="M192.2,150.2v1.3h0c0.2-0.5,0.5-0.8,1-1.1c0.5-0.3,1-0.4,1.5-0.4c0.5,0,1,0.1,1.4,0.2
			c0.4,0.1,0.7,0.3,0.9,0.6s0.4,0.6,0.5,0.9c0.1,0.4,0.1,0.8,0.1,1.2v5h-0.9v-4.8c0-0.3,0-0.6-0.1-0.9c-0.1-0.3-0.2-0.5-0.3-0.7
			c-0.2-0.2-0.4-0.4-0.6-0.5s-0.6-0.2-1-0.2s-0.7,0.1-1,0.2c-0.3,0.1-0.5,0.3-0.8,0.6c-0.2,0.2-0.4,0.5-0.5,0.8s-0.2,0.7-0.2,1.1
			v4.5h-0.9v-7.8H192.2z"/>
		<path class="st0" d="M200.6,147.2v1.5h-0.9v-1.5H200.6z M200.6,150.2v7.8h-0.9v-7.8H200.6z"/>
		<path class="st0" d="M207.5,150.3c0.5,0.2,0.8,0.5,1.1,0.9c0.3,0.4,0.5,0.8,0.7,1.3s0.2,1,0.2,1.6c0,0.6-0.1,1.1-0.2,1.6
			s-0.4,0.9-0.7,1.3s-0.7,0.7-1.1,0.9c-0.5,0.2-1,0.3-1.6,0.3c-0.6,0-1.1-0.1-1.6-0.3c-0.5-0.2-0.8-0.5-1.1-0.9
			c-0.3-0.4-0.5-0.8-0.7-1.3s-0.2-1-0.2-1.6c0-0.6,0.1-1.1,0.2-1.6s0.4-0.9,0.7-1.3c0.3-0.4,0.7-0.7,1.1-0.9s1-0.3,1.6-0.3
			C206.6,149.9,207.1,150.1,207.5,150.3z M204.8,151c-0.3,0.2-0.6,0.4-0.8,0.8s-0.4,0.7-0.5,1.1c-0.1,0.4-0.2,0.8-0.2,1.2
			s0.1,0.8,0.2,1.2c0.1,0.4,0.3,0.8,0.5,1.1s0.5,0.6,0.8,0.8s0.7,0.3,1.2,0.3s0.8-0.1,1.2-0.3s0.6-0.4,0.8-0.8s0.4-0.7,0.5-1.1
			c0.1-0.4,0.2-0.8,0.2-1.2s-0.1-0.8-0.2-1.2s-0.3-0.7-0.5-1.1s-0.5-0.6-0.8-0.8s-0.7-0.3-1.2-0.3S205.1,150.8,204.8,151z"/>
	</g>
</g>
</svg>
