<!-- Generator: Adobe Illustrator 20.1.0, SVG Export Plug-In  -->
<svg version="1.1"
	 xmlns="http://www.w3.org/2000/svg" xmlns:xlink="http://www.w3.org/1999/xlink" xmlns:a="http://ns.adobe.com/AdobeSVGViewerExtensions/3.0/"
	 x="0px" y="0px" width="130.4px" height="31.9px" viewBox="0 0 130.4 31.9"
	 style="overflow:scroll;enable-background:new 0 0 130.4 31.9;" xml:space="preserve">
<style type="text/css">
	.st0{fill:#58595B;}
</style>
<defs>
</defs>
<g>
	<g>
		<path class="st0" d="M0.2,4.5c0.1-0.3,0.3-0.6,0.6-0.8C1,3.5,1.3,3.3,1.6,3.1C2,3,2.3,2.9,2.7,2.9c0.4,0,0.7,0.1,1,0.2
			C4,3.3,4.3,3.5,4.6,3.7C4.8,3.9,5,4.2,5.2,4.5c0.1,0.3,0.2,0.7,0.2,1c0,0.4-0.1,0.7-0.2,1C5,7,4.8,7.2,4.6,7.5
			C4.3,7.7,4,7.9,3.7,8.1C3.4,8.2,3,8.3,2.7,8.3c-0.4,0-0.7-0.1-1-0.2C1.3,7.9,1,7.7,0.8,7.5C0.5,7.2,0.4,7,0.2,6.6
			C0.1,6.3,0,6,0,5.6C0,5.2,0.1,4.9,0.2,4.5z"/>
		<path class="st0" d="M19.6,0.2v0.9h-3.7V11h-1V1.1h-3.7V0.2H19.6z"/>
		<path class="st0" d="M21.5,8.4c0.1,0.4,0.2,0.7,0.5,1c0.2,0.3,0.5,0.5,0.8,0.7c0.3,0.2,0.7,0.3,1.2,0.3c0.7,0,1.2-0.2,1.6-0.5
			c0.4-0.4,0.7-0.8,0.8-1.4h0.9c-0.2,0.9-0.6,1.6-1.1,2c-0.5,0.5-1.3,0.7-2.3,0.7c-0.6,0-1.1-0.1-1.6-0.3c-0.4-0.2-0.8-0.5-1.1-0.9
			c-0.3-0.4-0.5-0.8-0.6-1.3s-0.2-1-0.2-1.6c0-0.5,0.1-1,0.2-1.5s0.3-0.9,0.6-1.3c0.3-0.4,0.6-0.7,1.1-0.9s1-0.4,1.6-0.4
			c0.6,0,1.2,0.1,1.6,0.4c0.4,0.3,0.8,0.6,1.1,1c0.3,0.4,0.5,0.9,0.6,1.4c0.1,0.5,0.2,1.1,0.2,1.6h-6C21.3,7.7,21.4,8,21.5,8.4z
			 M26.2,5.5c-0.1-0.3-0.3-0.6-0.5-0.9c-0.2-0.3-0.5-0.5-0.8-0.6s-0.6-0.2-1-0.2c-0.4,0-0.7,0.1-1,0.2s-0.6,0.4-0.8,0.6
			c-0.2,0.3-0.4,0.6-0.5,0.9c-0.1,0.3-0.2,0.7-0.2,1h5C26.3,6.2,26.3,5.8,26.2,5.5z"/>
		<path class="st0" d="M29.8,3.2v1.3h0c0.2-0.5,0.5-0.8,1-1.1c0.5-0.3,1-0.4,1.5-0.4c0.5,0,1,0.1,1.4,0.2s0.7,0.3,0.9,0.6
			C34.8,4,34.9,4.4,35,4.7c0.1,0.4,0.1,0.8,0.1,1.2v5h-0.9V6.1c0-0.3,0-0.6-0.1-0.9c-0.1-0.3-0.2-0.5-0.3-0.7
			c-0.2-0.2-0.4-0.4-0.6-0.5c-0.3-0.1-0.6-0.2-1-0.2s-0.7,0.1-1,0.2c-0.3,0.1-0.5,0.3-0.8,0.6C30.3,4.8,30.1,5,30,5.4
			s-0.2,0.7-0.2,1.1V11h-0.9V3.2H29.8z"/>
		<path class="st0" d="M41.7,4.7c-0.1-0.2-0.3-0.4-0.4-0.5s-0.4-0.2-0.6-0.3c-0.2-0.1-0.5-0.1-0.8-0.1c-0.2,0-0.4,0-0.6,0.1
			c-0.2,0-0.4,0.1-0.6,0.2c-0.2,0.1-0.3,0.2-0.4,0.4C38.1,4.7,38,4.9,38,5.1c0,0.2,0.1,0.4,0.2,0.5s0.2,0.3,0.4,0.4
			c0.2,0.1,0.3,0.2,0.5,0.2c0.2,0.1,0.4,0.1,0.5,0.2l1.3,0.3c0.3,0,0.5,0.1,0.8,0.2C42,7,42.2,7.2,42.4,7.3s0.4,0.4,0.5,0.6
			c0.1,0.3,0.2,0.5,0.2,0.9c0,0.4-0.1,0.8-0.3,1.1c-0.2,0.3-0.4,0.5-0.7,0.7c-0.3,0.2-0.6,0.3-1,0.4s-0.7,0.1-1.1,0.1
			c-0.9,0-1.7-0.2-2.2-0.6c-0.6-0.4-0.9-1.1-1-2.1h0.9c0,0.6,0.3,1.1,0.7,1.5c0.4,0.3,1,0.5,1.6,0.5c0.2,0,0.5,0,0.7-0.1
			c0.2,0,0.5-0.1,0.7-0.3c0.2-0.1,0.4-0.3,0.5-0.5c0.1-0.2,0.2-0.4,0.2-0.7c0-0.2,0-0.4-0.1-0.6c-0.1-0.2-0.2-0.3-0.4-0.4
			c-0.2-0.1-0.3-0.2-0.5-0.3s-0.4-0.1-0.6-0.2l-1.2-0.3c-0.3-0.1-0.6-0.2-0.9-0.3c-0.3-0.1-0.5-0.2-0.7-0.4
			c-0.2-0.2-0.3-0.3-0.5-0.6s-0.2-0.5-0.2-0.8c0-0.4,0.1-0.7,0.3-1c0.2-0.3,0.4-0.5,0.7-0.7c0.3-0.2,0.6-0.3,0.9-0.4S39.7,3,40,3
			c0.4,0,0.8,0.1,1.1,0.2c0.3,0.1,0.6,0.3,0.9,0.5c0.3,0.2,0.5,0.5,0.6,0.8s0.2,0.7,0.3,1.1h-0.9C41.9,5.2,41.8,4.9,41.7,4.7z"/>
		<path class="st0" d="M45.7,0.2v1.5h-0.9V0.2H45.7z M45.7,3.2V11h-0.9V3.2H45.7z"/>
		<path class="st0" d="M52.7,3.3c0.5,0.2,0.8,0.5,1.2,0.9c0.3,0.4,0.5,0.8,0.7,1.3s0.2,1,0.2,1.6c0,0.6-0.1,1.1-0.2,1.6
			s-0.4,0.9-0.7,1.3s-0.7,0.7-1.2,0.9c-0.5,0.2-1,0.3-1.6,0.3c-0.6,0-1.1-0.1-1.6-0.3c-0.5-0.2-0.8-0.5-1.2-0.9s-0.5-0.8-0.7-1.3
			c-0.2-0.5-0.2-1-0.2-1.6c0-0.6,0.1-1.1,0.2-1.6c0.2-0.5,0.4-0.9,0.7-1.3c0.3-0.4,0.7-0.7,1.2-0.9s1-0.3,1.6-0.3
			C51.7,3,52.3,3.1,52.7,3.3z M50,4.1c-0.3,0.2-0.6,0.4-0.8,0.8c-0.2,0.3-0.4,0.7-0.5,1.1s-0.2,0.8-0.2,1.2s0.1,0.8,0.2,1.2
			c0.1,0.4,0.3,0.8,0.5,1.1c0.2,0.3,0.5,0.6,0.8,0.8s0.7,0.3,1.2,0.3c0.5,0,0.8-0.1,1.2-0.3c0.3-0.2,0.6-0.4,0.8-0.8
			c0.2-0.3,0.4-0.7,0.5-1.1c0.1-0.4,0.2-0.8,0.2-1.2s-0.1-0.8-0.2-1.2s-0.3-0.7-0.5-1.1c-0.2-0.3-0.5-0.6-0.8-0.8
			c-0.3-0.2-0.7-0.3-1.2-0.3C50.7,3.8,50.3,3.9,50,4.1z M50.3,2.1L51.8,0H53l-2,2.1H50.3z"/>
		<path class="st0" d="M57.5,3.2v1.3h0c0.2-0.5,0.5-0.8,1-1.1C58.9,3.1,59.4,3,60,3c0.5,0,1,0.1,1.4,0.2s0.7,0.3,0.9,0.6
			c0.2,0.3,0.4,0.6,0.5,0.9c0.1,0.4,0.1,0.8,0.1,1.2v5h-0.9V6.1c0-0.3,0-0.6-0.1-0.9c-0.1-0.3-0.2-0.5-0.3-0.7
			c-0.2-0.2-0.4-0.4-0.6-0.5c-0.3-0.1-0.6-0.2-1-0.2s-0.7,0.1-1,0.2c-0.3,0.1-0.5,0.3-0.8,0.6c-0.2,0.2-0.4,0.5-0.5,0.8
			s-0.2,0.7-0.2,1.1V11h-0.9V3.2H57.5z"/>
		<path class="st0" d="M70.3,3.2v1.3h0c0.3-0.5,0.6-0.9,1-1.1S72.2,3,72.8,3c0.5,0,1,0.1,1.4,0.4c0.4,0.3,0.7,0.6,0.8,1.1
			c0.2-0.5,0.6-0.9,1-1.1C76.5,3.1,77,3,77.5,3c1.7,0,2.6,0.9,2.6,2.7V11h-0.9V5.7c0-0.6-0.1-1.1-0.4-1.5S78,3.8,77.3,3.8
			c-0.4,0-0.8,0.1-1,0.2s-0.5,0.4-0.6,0.6s-0.3,0.6-0.3,0.9c-0.1,0.3-0.1,0.7-0.1,1V11h-0.9V5.7c0-0.3,0-0.5-0.1-0.7
			c-0.1-0.2-0.1-0.4-0.3-0.6c-0.1-0.2-0.3-0.3-0.5-0.4c-0.2-0.1-0.5-0.2-0.8-0.2c-0.4,0-0.7,0.1-1,0.2c-0.3,0.1-0.5,0.3-0.7,0.6
			c-0.2,0.3-0.3,0.6-0.4,0.9c-0.1,0.3-0.1,0.7-0.1,1.1V11h-0.9V3.2H70.3z"/>
		<path class="st0" d="M87.6,11V9.6h0c-0.3,0.5-0.6,0.9-1.1,1.2s-1,0.4-1.6,0.4c-0.5,0-0.9-0.1-1.3-0.2c-0.3-0.1-0.6-0.3-0.8-0.6
			c-0.2-0.3-0.4-0.6-0.5-0.9c-0.1-0.4-0.1-0.8-0.1-1.2v-5h0.9v5.1c0,0.7,0.2,1.2,0.5,1.6c0.3,0.4,0.8,0.5,1.6,0.5
			c0.4,0,0.8-0.1,1.1-0.3c0.3-0.2,0.5-0.4,0.7-0.7s0.3-0.6,0.4-1c0.1-0.4,0.1-0.8,0.1-1.2V3.2h0.9V11H87.6z"/>
		<path class="st0" d="M95,4.7c-0.1-0.2-0.3-0.4-0.4-0.5C94.4,4,94.2,3.9,94,3.9c-0.2-0.1-0.5-0.1-0.8-0.1c-0.2,0-0.4,0-0.6,0.1
			c-0.2,0-0.4,0.1-0.6,0.2c-0.2,0.1-0.3,0.2-0.4,0.4c-0.1,0.2-0.2,0.4-0.2,0.6c0,0.2,0.1,0.4,0.2,0.5c0.1,0.1,0.2,0.3,0.4,0.4
			c0.2,0.1,0.3,0.2,0.5,0.2c0.2,0.1,0.4,0.1,0.5,0.2l1.3,0.3c0.3,0,0.5,0.1,0.8,0.2c0.3,0.1,0.5,0.2,0.7,0.4
			c0.2,0.2,0.4,0.4,0.5,0.6c0.1,0.3,0.2,0.5,0.2,0.9c0,0.4-0.1,0.8-0.3,1.1c-0.2,0.3-0.4,0.5-0.7,0.7c-0.3,0.2-0.6,0.3-1,0.4
			c-0.4,0.1-0.7,0.1-1.1,0.1c-0.9,0-1.7-0.2-2.2-0.6c-0.6-0.4-0.9-1.1-1-2.1h0.9c0,0.6,0.3,1.1,0.7,1.5c0.4,0.3,1,0.5,1.6,0.5
			c0.2,0,0.5,0,0.7-0.1c0.2,0,0.5-0.1,0.7-0.3c0.2-0.1,0.4-0.3,0.5-0.5c0.1-0.2,0.2-0.4,0.2-0.7c0-0.2,0-0.4-0.1-0.6
			c-0.1-0.2-0.2-0.3-0.4-0.4c-0.2-0.1-0.3-0.2-0.5-0.3c-0.2-0.1-0.4-0.1-0.6-0.2l-1.2-0.3C92.3,7.2,92,7.1,91.7,7
			c-0.3-0.1-0.5-0.2-0.7-0.4S90.7,6.2,90.6,6s-0.2-0.5-0.2-0.8c0-0.4,0.1-0.7,0.3-1c0.2-0.3,0.4-0.5,0.7-0.7
			c0.3-0.2,0.6-0.3,0.9-0.4S93,3,93.3,3c0.4,0,0.8,0.1,1.1,0.2c0.3,0.1,0.6,0.3,0.9,0.5c0.3,0.2,0.5,0.5,0.6,0.8
			c0.1,0.3,0.2,0.7,0.3,1.1h-0.9C95.2,5.2,95.2,4.9,95,4.7z"/>
		<path class="st0" d="M102.9,4.3c-0.4-0.3-0.8-0.5-1.5-0.5c-0.5,0-0.8,0.1-1.2,0.3s-0.6,0.4-0.8,0.8c-0.2,0.3-0.4,0.7-0.5,1.1
			s-0.2,0.8-0.2,1.2s0.1,0.8,0.2,1.2C99,8.7,99.1,9,99.3,9.4c0.2,0.3,0.5,0.6,0.8,0.8s0.7,0.3,1.2,0.3c0.3,0,0.6-0.1,0.8-0.2
			s0.5-0.3,0.7-0.5c0.2-0.2,0.4-0.4,0.5-0.7c0.1-0.3,0.2-0.6,0.2-0.9h0.9c-0.1,0.9-0.5,1.7-1,2.2s-1.3,0.8-2.2,0.8
			c-0.6,0-1.1-0.1-1.6-0.3c-0.5-0.2-0.8-0.5-1.2-0.9S98.1,9.2,98,8.7c-0.2-0.5-0.2-1-0.2-1.6c0-0.6,0.1-1.1,0.2-1.6
			c0.2-0.5,0.4-0.9,0.7-1.3c0.3-0.4,0.7-0.7,1.2-0.9s1-0.3,1.6-0.3c0.8,0,1.5,0.2,2.1,0.7s0.9,1.1,1,2h-0.9
			C103.5,5.1,103.2,4.6,102.9,4.3z"/>
		<path class="st0" d="M111.6,11V9.6h0c-0.3,0.5-0.6,0.9-1.1,1.2c-0.5,0.3-1,0.4-1.6,0.4c-0.5,0-0.9-0.1-1.3-0.2
			c-0.3-0.1-0.6-0.3-0.8-0.6c-0.2-0.3-0.4-0.6-0.5-0.9c-0.1-0.4-0.2-0.8-0.2-1.2v-5h0.9v5.1c0,0.7,0.2,1.2,0.5,1.6
			c0.3,0.4,0.8,0.5,1.6,0.5c0.4,0,0.8-0.1,1.1-0.3c0.3-0.2,0.5-0.4,0.7-0.7s0.3-0.6,0.4-1s0.1-0.8,0.1-1.2V3.2h0.9V11H111.6z"/>
		<path class="st0" d="M115.5,0.2V11h-0.9V0.2H115.5z"/>
		<path class="st0" d="M117.9,4.4c0.2-0.3,0.4-0.6,0.7-0.8c0.3-0.2,0.6-0.4,1-0.5c0.4-0.1,0.8-0.2,1.2-0.2c0.3,0,0.7,0,1,0.1
			c0.3,0.1,0.6,0.2,0.9,0.4c0.3,0.2,0.5,0.4,0.7,0.8c0.2,0.3,0.3,0.7,0.3,1.3v4.1c0,0.4,0.2,0.6,0.6,0.6c0.1,0,0.2,0,0.3-0.1v0.8
			c-0.1,0-0.2,0-0.3,0s-0.2,0-0.3,0c-0.2,0-0.4,0-0.6-0.1c-0.1-0.1-0.3-0.2-0.3-0.3s-0.1-0.3-0.2-0.4c0-0.2,0-0.3,0-0.5h0
			c-0.2,0.3-0.3,0.5-0.5,0.7c-0.2,0.2-0.4,0.4-0.6,0.5c-0.2,0.1-0.5,0.2-0.7,0.3c-0.3,0.1-0.6,0.1-1,0.1c-0.4,0-0.7,0-1-0.1
			s-0.6-0.2-0.8-0.4s-0.4-0.4-0.6-0.7c-0.1-0.3-0.2-0.6-0.2-1c0-0.5,0.1-1,0.4-1.3c0.2-0.3,0.6-0.5,1-0.7c0.4-0.2,0.8-0.3,1.3-0.3
			c0.5-0.1,1-0.1,1.5-0.2c0.2,0,0.4,0,0.5-0.1s0.3-0.1,0.4-0.2c0.1-0.1,0.2-0.2,0.2-0.3c0.1-0.1,0.1-0.3,0.1-0.5
			c0-0.3-0.1-0.6-0.2-0.8c-0.1-0.2-0.3-0.4-0.4-0.5c-0.2-0.1-0.4-0.2-0.6-0.2c-0.2,0-0.5-0.1-0.8-0.1c-0.6,0-1.1,0.1-1.5,0.4
			c-0.4,0.3-0.6,0.7-0.6,1.4h-0.9C117.6,5.1,117.7,4.7,117.9,4.4z M122.6,6.7c-0.1,0.1-0.2,0.2-0.3,0.2c-0.2,0-0.3,0.1-0.5,0.1
			c-0.4,0.1-0.8,0.1-1.2,0.2c-0.4,0.1-0.8,0.1-1.2,0.2s-0.6,0.3-0.9,0.5c-0.2,0.2-0.3,0.5-0.3,0.9c0,0.2,0,0.5,0.1,0.6
			c0.1,0.2,0.2,0.3,0.4,0.5c0.2,0.1,0.3,0.2,0.6,0.3c0.2,0.1,0.4,0.1,0.6,0.1c0.4,0,0.7-0.1,1-0.2c0.3-0.1,0.6-0.3,0.9-0.5
			c0.2-0.2,0.4-0.5,0.6-0.8s0.2-0.6,0.2-1L122.6,6.7L122.6,6.7z"/>
		<path class="st0" d="M126.6,3.2V5h0c0.2-0.6,0.6-1.1,1.1-1.5s1.1-0.5,1.8-0.5V4c-0.4,0-0.8,0-1.2,0.2c-0.4,0.1-0.7,0.3-0.9,0.6
			c-0.3,0.3-0.5,0.5-0.6,0.9c-0.1,0.3-0.2,0.7-0.2,1.1V11h-0.9V3.2H126.6z"/>
		<path class="st0" d="M0.2,22.6c0.1-0.3,0.3-0.6,0.6-0.8c0.2-0.2,0.5-0.4,0.8-0.6C2,21,2.3,21,2.7,21c0.4,0,0.7,0.1,1,0.2
			c0.3,0.1,0.6,0.3,0.9,0.6C4.8,22,5,22.3,5.2,22.6c0.1,0.3,0.2,0.7,0.2,1c0,0.4-0.1,0.7-0.2,1C5,25,4.8,25.3,4.6,25.5
			C4.3,25.8,4,26,3.7,26.1c-0.3,0.1-0.7,0.2-1,0.2c-0.4,0-0.7-0.1-1-0.2C1.3,26,1,25.8,0.8,25.5c-0.2-0.2-0.4-0.5-0.6-0.9
			C0.1,24.4,0,24,0,23.6C0,23.3,0.1,22.9,0.2,22.6z"/>
		<path class="st0" d="M16,18.3c1.6,0,2.9,0.5,3.7,1.4s1.2,2.2,1.2,4s-0.4,3.1-1.2,4C18.9,28.5,17.6,29,16,29h-3.7V18.3H16z
			 M15.5,28.1c0.8,0,1.4-0.1,2-0.2s1-0.4,1.4-0.8c0.4-0.4,0.6-0.8,0.8-1.4c0.2-0.6,0.3-1.3,0.3-2.1s-0.1-1.5-0.3-2.1
			c-0.2-0.6-0.4-1-0.8-1.4c-0.4-0.4-0.8-0.6-1.4-0.8s-1.2-0.2-2-0.2h-2.2v9H15.5z"/>
		<path class="st0" d="M27.6,21.3c0.5,0.2,0.8,0.5,1.2,0.9c0.3,0.4,0.5,0.8,0.7,1.3s0.2,1,0.2,1.6c0,0.6-0.1,1.1-0.2,1.6
			S29,27.6,28.7,28s-0.7,0.7-1.2,0.9c-0.5,0.2-1,0.3-1.6,0.3c-0.6,0-1.1-0.1-1.6-0.3c-0.5-0.2-0.8-0.5-1.2-0.9s-0.5-0.8-0.7-1.3
			c-0.2-0.5-0.2-1-0.2-1.6c0-0.6,0.1-1.1,0.2-1.6c0.2-0.5,0.4-0.9,0.7-1.3c0.3-0.4,0.7-0.7,1.2-0.9s1-0.3,1.6-0.3
			C26.6,21,27.1,21.1,27.6,21.3z M24.8,22.1c-0.3,0.2-0.6,0.4-0.8,0.8c-0.2,0.3-0.4,0.7-0.5,1.1s-0.2,0.8-0.2,1.2s0.1,0.8,0.2,1.2
			c0.1,0.4,0.3,0.8,0.5,1.1c0.2,0.3,0.5,0.6,0.8,0.8s0.7,0.3,1.2,0.3c0.5,0,0.8-0.1,1.2-0.3c0.3-0.2,0.6-0.4,0.8-0.8
			c0.2-0.3,0.4-0.7,0.5-1.1c0.1-0.4,0.2-0.8,0.2-1.2s-0.1-0.8-0.2-1.2s-0.3-0.7-0.5-1.1c-0.2-0.3-0.5-0.6-0.8-0.8
			c-0.3-0.2-0.7-0.3-1.2-0.3C25.5,21.8,25.1,21.9,24.8,22.1z"/>
		<path class="st0" d="M32.3,18.3V29h-0.9V18.3H32.3z"/>
		<path class="st0" d="M39.3,21.3c0.5,0.2,0.8,0.5,1.1,0.9c0.3,0.4,0.5,0.8,0.7,1.3s0.2,1,0.2,1.6c0,0.6-0.1,1.1-0.2,1.6
			s-0.4,0.9-0.7,1.3s-0.7,0.7-1.1,0.9c-0.5,0.2-1,0.3-1.6,0.3c-0.6,0-1.1-0.1-1.6-0.3c-0.5-0.2-0.8-0.5-1.1-0.9
			c-0.3-0.4-0.5-0.8-0.7-1.3s-0.2-1-0.2-1.6c0-0.6,0.1-1.1,0.2-1.6s0.4-0.9,0.7-1.3c0.3-0.4,0.7-0.7,1.1-0.9s1-0.3,1.6-0.3
			C38.3,21,38.9,21.1,39.3,21.3z M36.5,22.1c-0.3,0.2-0.6,0.4-0.8,0.8s-0.4,0.7-0.5,1.1c-0.1,0.4-0.2,0.8-0.2,1.2s0.1,0.8,0.2,1.2
			c0.1,0.4,0.3,0.8,0.5,1.1s0.5,0.6,0.8,0.8s0.7,0.3,1.2,0.3s0.8-0.1,1.2-0.3s0.6-0.4,0.8-0.8s0.4-0.7,0.5-1.1
			c0.1-0.4,0.2-0.8,0.2-1.2s-0.1-0.8-0.2-1.2s-0.3-0.7-0.5-1.1s-0.5-0.6-0.8-0.8s-0.7-0.3-1.2-0.3S36.9,21.9,36.5,22.1z"/>
		<path class="st0" d="M44,21.2v1.8h0c0.2-0.6,0.6-1.1,1.1-1.5s1.1-0.5,1.8-0.5v0.9c-0.4,0-0.8,0-1.2,0.2c-0.4,0.1-0.7,0.3-0.9,0.6
			c-0.3,0.3-0.5,0.5-0.6,0.9c-0.1,0.3-0.2,0.7-0.2,1.1V29h-0.9v-7.8H44z"/>
		<path class="st0" d="M58.6,29v-1.5h0c-0.1,0.3-0.2,0.5-0.4,0.7c-0.2,0.2-0.4,0.4-0.7,0.5c-0.3,0.1-0.5,0.3-0.8,0.3
			c-0.3,0.1-0.6,0.1-0.8,0.1c-0.6,0-1.1-0.1-1.5-0.3c-0.4-0.2-0.8-0.5-1.1-0.9s-0.5-0.8-0.6-1.3s-0.2-1-0.2-1.6
			c0-0.6,0.1-1.1,0.2-1.6s0.4-0.9,0.6-1.3s0.7-0.7,1.1-0.9c0.4-0.2,1-0.3,1.5-0.3c0.3,0,0.6,0,0.8,0.1c0.3,0.1,0.5,0.2,0.8,0.3
			c0.2,0.1,0.5,0.3,0.6,0.5c0.2,0.2,0.3,0.5,0.4,0.7h0v-4.5h0.9V29H58.6z M53.4,26.3c0.1,0.4,0.2,0.7,0.5,1.1
			c0.2,0.3,0.5,0.6,0.8,0.8c0.3,0.2,0.7,0.3,1.2,0.3c0.5,0,0.9-0.1,1.3-0.3s0.6-0.4,0.8-0.8c0.2-0.3,0.4-0.7,0.5-1.1
			c0.1-0.4,0.1-0.8,0.1-1.2c0-0.4,0-0.8-0.1-1.2c-0.1-0.4-0.3-0.7-0.5-1.1s-0.5-0.6-0.8-0.8c-0.3-0.2-0.8-0.3-1.3-0.3
			c-0.5,0-0.8,0.1-1.2,0.3c-0.3,0.2-0.6,0.4-0.8,0.8c-0.2,0.3-0.4,0.7-0.5,1.1c-0.1,0.4-0.1,0.8-0.1,1.2
			C53.3,25.5,53.3,25.9,53.4,26.3z"/>
		<path class="st0" d="M62.3,26.4c0.1,0.4,0.2,0.7,0.5,1c0.2,0.3,0.5,0.5,0.8,0.7c0.3,0.2,0.7,0.3,1.2,0.3c0.7,0,1.2-0.2,1.6-0.5
			c0.4-0.4,0.7-0.8,0.8-1.4h0.9c-0.2,0.9-0.6,1.6-1.1,2c-0.5,0.5-1.3,0.7-2.3,0.7c-0.6,0-1.1-0.1-1.6-0.3c-0.4-0.2-0.8-0.5-1.1-0.9
			c-0.3-0.4-0.5-0.8-0.6-1.3c-0.1-0.5-0.2-1-0.2-1.6c0-0.5,0.1-1,0.2-1.5c0.1-0.5,0.3-0.9,0.6-1.3c0.3-0.4,0.6-0.7,1.1-0.9
			c0.4-0.2,1-0.4,1.6-0.4c0.6,0,1.2,0.1,1.6,0.4c0.4,0.3,0.8,0.6,1.1,1c0.3,0.4,0.5,0.9,0.6,1.4c0.1,0.5,0.2,1.1,0.2,1.6h-6
			C62.1,25.7,62.2,26.1,62.3,26.4z M67,23.5c-0.1-0.3-0.3-0.6-0.5-0.9c-0.2-0.3-0.5-0.5-0.8-0.6c-0.3-0.2-0.6-0.2-1-0.2
			c-0.4,0-0.7,0.1-1,0.2s-0.6,0.4-0.8,0.6c-0.2,0.3-0.4,0.6-0.5,0.9c-0.1,0.3-0.2,0.7-0.2,1h5C67.1,24.2,67.1,23.9,67,23.5z"/>
		<path class="st0" d="M74.8,26.4c0.1,0.4,0.2,0.7,0.5,1c0.2,0.3,0.5,0.5,0.8,0.7c0.3,0.2,0.7,0.3,1.2,0.3c0.7,0,1.2-0.2,1.6-0.5
			c0.4-0.4,0.7-0.8,0.8-1.4h0.9c-0.2,0.9-0.6,1.6-1.1,2c-0.5,0.5-1.3,0.7-2.3,0.7c-0.6,0-1.1-0.1-1.6-0.3c-0.4-0.2-0.8-0.5-1.1-0.9
			c-0.3-0.4-0.5-0.8-0.6-1.3s-0.2-1-0.2-1.6c0-0.5,0.1-1,0.2-1.5s0.3-0.9,0.6-1.3c0.3-0.4,0.6-0.7,1.1-0.9s1-0.4,1.6-0.4
			c0.6,0,1.2,0.1,1.6,0.4c0.4,0.3,0.8,0.6,1.1,1c0.3,0.4,0.5,0.9,0.6,1.4c0.1,0.5,0.2,1.1,0.2,1.6h-6C74.7,25.7,74.8,26.1,74.8,26.4
			z M79.5,23.5c-0.1-0.3-0.3-0.6-0.5-0.9c-0.2-0.3-0.5-0.5-0.8-0.6s-0.6-0.2-1-0.2c-0.4,0-0.7,0.1-1,0.2s-0.6,0.4-0.8,0.6
			c-0.2,0.3-0.4,0.6-0.5,0.9c-0.1,0.3-0.2,0.7-0.2,1h5C79.7,24.2,79.7,23.9,79.5,23.5z"/>
		<path class="st0" d="M86.7,22.8c-0.1-0.2-0.3-0.4-0.4-0.5c-0.2-0.1-0.4-0.2-0.6-0.3c-0.2-0.1-0.5-0.1-0.8-0.1
			c-0.2,0-0.4,0-0.6,0.1c-0.2,0-0.4,0.1-0.6,0.2c-0.2,0.1-0.3,0.2-0.4,0.4c-0.1,0.2-0.2,0.4-0.2,0.6c0,0.2,0.1,0.4,0.2,0.5
			c0.1,0.1,0.2,0.3,0.4,0.4c0.2,0.1,0.3,0.2,0.5,0.2c0.2,0.1,0.4,0.1,0.5,0.2l1.3,0.3c0.3,0,0.5,0.1,0.8,0.2
			c0.3,0.1,0.5,0.2,0.7,0.4c0.2,0.2,0.4,0.4,0.5,0.6c0.1,0.3,0.2,0.5,0.2,0.9c0,0.4-0.1,0.8-0.3,1.1c-0.2,0.3-0.4,0.5-0.7,0.7
			c-0.3,0.2-0.6,0.3-1,0.4c-0.4,0.1-0.7,0.1-1.1,0.1c-0.9,0-1.7-0.2-2.2-0.6c-0.6-0.4-0.9-1.1-1-2.1h0.9c0,0.6,0.3,1.1,0.7,1.5
			c0.4,0.3,1,0.5,1.6,0.5c0.2,0,0.5,0,0.7-0.1c0.2,0,0.5-0.1,0.7-0.3c0.2-0.1,0.4-0.3,0.5-0.5c0.1-0.2,0.2-0.4,0.2-0.7
			c0-0.2,0-0.4-0.1-0.6c-0.1-0.2-0.2-0.3-0.4-0.4c-0.2-0.1-0.3-0.2-0.5-0.3c-0.2-0.1-0.4-0.1-0.6-0.2l-1.2-0.3
			c-0.3-0.1-0.6-0.2-0.9-0.3c-0.3-0.1-0.5-0.2-0.7-0.4s-0.3-0.3-0.5-0.6s-0.2-0.5-0.2-0.8c0-0.4,0.1-0.7,0.3-1
			c0.2-0.3,0.4-0.5,0.7-0.7c0.3-0.2,0.6-0.3,0.9-0.4s0.7-0.1,1-0.1c0.4,0,0.8,0.1,1.1,0.2c0.3,0.1,0.6,0.3,0.9,0.5
			c0.3,0.2,0.5,0.5,0.6,0.8c0.1,0.3,0.2,0.7,0.3,1.1h-0.9C86.9,23.2,86.8,23,86.7,22.8z"/>
		<path class="st0" d="M90.7,21.2v1.5h0c0.2-0.5,0.6-1,1.1-1.3c0.5-0.3,1.1-0.4,1.7-0.4c0.6,0,1.1,0.1,1.5,0.3
			c0.4,0.2,0.8,0.5,1.1,0.9c0.3,0.4,0.5,0.8,0.6,1.3c0.1,0.5,0.2,1,0.2,1.6c0,0.6-0.1,1.1-0.2,1.6c-0.1,0.5-0.4,0.9-0.6,1.3
			c-0.3,0.4-0.7,0.7-1.1,0.9c-0.4,0.2-1,0.3-1.5,0.3c-0.3,0-0.6,0-0.8-0.1c-0.3-0.1-0.5-0.2-0.8-0.3c-0.2-0.1-0.5-0.3-0.6-0.5
			c-0.2-0.2-0.3-0.5-0.4-0.7h0v4.3h-0.9V21.2H90.7z M95.8,23.9c-0.1-0.4-0.2-0.7-0.5-1.1c-0.2-0.3-0.5-0.6-0.8-0.8
			c-0.3-0.2-0.7-0.3-1.2-0.3c-0.5,0-1,0.1-1.3,0.3c-0.4,0.2-0.6,0.4-0.8,0.7c-0.2,0.3-0.4,0.7-0.4,1.1c-0.1,0.4-0.1,0.8-0.1,1.3
			c0,0.4,0,0.8,0.1,1.2c0.1,0.4,0.3,0.7,0.5,1.1c0.2,0.3,0.5,0.6,0.8,0.8s0.8,0.3,1.3,0.3c0.5,0,0.8-0.1,1.2-0.3s0.6-0.4,0.8-0.8
			c0.2-0.3,0.4-0.7,0.5-1.1c0.1-0.4,0.1-0.8,0.1-1.2C96,24.7,95.9,24.3,95.8,23.9z"/>
		<path class="st0" d="M98.9,22.4c0.2-0.3,0.4-0.6,0.7-0.8c0.3-0.2,0.6-0.4,1-0.5c0.4-0.1,0.8-0.2,1.2-0.2c0.3,0,0.7,0,1,0.1
			c0.3,0.1,0.6,0.2,0.9,0.4c0.3,0.2,0.5,0.4,0.7,0.8c0.2,0.3,0.3,0.7,0.3,1.3v4.1c0,0.4,0.2,0.6,0.6,0.6c0.1,0,0.2,0,0.3-0.1v0.8
			c-0.1,0-0.2,0-0.3,0s-0.2,0-0.3,0c-0.2,0-0.4,0-0.6-0.1c-0.1-0.1-0.3-0.2-0.3-0.3s-0.1-0.3-0.2-0.4c0-0.2,0-0.3,0-0.5h0
			c-0.2,0.3-0.3,0.5-0.5,0.7c-0.2,0.2-0.4,0.4-0.6,0.5c-0.2,0.1-0.5,0.2-0.7,0.3c-0.3,0.1-0.6,0.1-1,0.1c-0.4,0-0.7,0-1-0.1
			s-0.6-0.2-0.8-0.4s-0.4-0.4-0.6-0.7c-0.1-0.3-0.2-0.6-0.2-1c0-0.5,0.1-1,0.4-1.3c0.2-0.3,0.6-0.5,1-0.7c0.4-0.2,0.8-0.3,1.3-0.3
			c0.5-0.1,1-0.1,1.5-0.2c0.2,0,0.4,0,0.5-0.1s0.3-0.1,0.4-0.2c0.1-0.1,0.2-0.2,0.2-0.3c0.1-0.1,0.1-0.3,0.1-0.5
			c0-0.3-0.1-0.6-0.2-0.8c-0.1-0.2-0.3-0.4-0.4-0.5c-0.2-0.1-0.4-0.2-0.6-0.2c-0.2,0-0.5-0.1-0.8-0.1c-0.6,0-1.1,0.1-1.5,0.4
			c-0.4,0.3-0.6,0.7-0.6,1.4h-0.9C98.7,23.2,98.7,22.8,98.9,22.4z M103.6,24.8c-0.1,0.1-0.2,0.2-0.3,0.2c-0.2,0-0.3,0.1-0.5,0.1
			c-0.4,0.1-0.8,0.1-1.2,0.2c-0.4,0.1-0.8,0.1-1.2,0.2s-0.6,0.3-0.9,0.5c-0.2,0.2-0.3,0.5-0.3,0.9c0,0.2,0,0.5,0.1,0.6
			c0.1,0.2,0.2,0.3,0.4,0.5c0.2,0.1,0.3,0.2,0.6,0.3c0.2,0.1,0.4,0.1,0.6,0.1c0.4,0,0.7-0.1,1-0.2c0.3-0.1,0.6-0.3,0.9-0.5
			c0.2-0.2,0.4-0.5,0.6-0.8s0.2-0.6,0.2-1L103.6,24.8L103.6,24.8z"/>
		<path class="st0" d="M107.8,18.3V29h-0.9V18.3H107.8z"/>
		<path class="st0" d="M115.9,29v-1.5h0c-0.1,0.3-0.2,0.5-0.4,0.7c-0.2,0.2-0.4,0.4-0.7,0.5c-0.3,0.1-0.5,0.3-0.8,0.3
			c-0.3,0.1-0.6,0.1-0.8,0.1c-0.6,0-1.1-0.1-1.5-0.3c-0.4-0.2-0.8-0.5-1.1-0.9c-0.3-0.4-0.5-0.8-0.6-1.3c-0.1-0.5-0.2-1-0.2-1.6
			c0-0.6,0.1-1.1,0.2-1.6c0.1-0.5,0.4-0.9,0.6-1.3c0.3-0.4,0.7-0.7,1.1-0.9c0.4-0.2,0.9-0.3,1.5-0.3c0.3,0,0.6,0,0.8,0.1
			c0.3,0.1,0.5,0.2,0.8,0.3c0.2,0.1,0.5,0.3,0.6,0.5c0.2,0.2,0.3,0.5,0.4,0.7h0v-4.5h0.9V29H115.9z M110.7,26.3
			c0.1,0.4,0.2,0.7,0.5,1.1c0.2,0.3,0.5,0.6,0.8,0.8c0.3,0.2,0.7,0.3,1.2,0.3c0.5,0,0.9-0.1,1.3-0.3s0.6-0.4,0.8-0.8
			c0.2-0.3,0.4-0.7,0.5-1.1c0.1-0.4,0.1-0.8,0.1-1.2c0-0.4,0-0.8-0.1-1.2c-0.1-0.4-0.3-0.7-0.5-1.1c-0.2-0.3-0.5-0.6-0.8-0.8
			c-0.3-0.2-0.8-0.3-1.3-0.3c-0.5,0-0.8,0.1-1.2,0.3c-0.3,0.2-0.6,0.4-0.8,0.8s-0.4,0.7-0.5,1.1c-0.1,0.4-0.1,0.8-0.1,1.2
			C110.5,25.5,110.6,25.9,110.7,26.3z"/>
		<path class="st0" d="M119,22.4c0.2-0.3,0.4-0.6,0.7-0.8c0.3-0.2,0.6-0.4,1-0.5c0.4-0.1,0.8-0.2,1.2-0.2c0.3,0,0.7,0,1,0.1
			c0.3,0.1,0.6,0.2,0.9,0.4c0.3,0.2,0.5,0.4,0.7,0.8c0.2,0.3,0.3,0.7,0.3,1.3v4.1c0,0.4,0.2,0.6,0.6,0.6c0.1,0,0.2,0,0.3-0.1v0.8
			c-0.1,0-0.2,0-0.3,0s-0.2,0-0.3,0c-0.2,0-0.4,0-0.6-0.1c-0.1-0.1-0.3-0.2-0.3-0.3s-0.1-0.3-0.2-0.4c0-0.2,0-0.3,0-0.5h0
			c-0.2,0.3-0.3,0.5-0.5,0.7c-0.2,0.2-0.4,0.4-0.6,0.5c-0.2,0.1-0.5,0.2-0.7,0.3c-0.3,0.1-0.6,0.1-1,0.1c-0.4,0-0.7,0-1-0.1
			s-0.6-0.2-0.8-0.4s-0.4-0.4-0.6-0.7c-0.1-0.3-0.2-0.6-0.2-1c0-0.5,0.1-1,0.4-1.3c0.2-0.3,0.6-0.5,1-0.7c0.4-0.2,0.8-0.3,1.3-0.3
			c0.5-0.1,1-0.1,1.5-0.2c0.2,0,0.4,0,0.5-0.1s0.3-0.1,0.4-0.2c0.1-0.1,0.2-0.2,0.2-0.3c0.1-0.1,0.1-0.3,0.1-0.5
			c0-0.3-0.1-0.6-0.2-0.8c-0.1-0.2-0.3-0.4-0.4-0.5c-0.2-0.1-0.4-0.2-0.6-0.2c-0.2,0-0.5-0.1-0.8-0.1c-0.6,0-1.1,0.1-1.5,0.4
			c-0.4,0.3-0.6,0.7-0.6,1.4h-0.9C118.8,23.2,118.9,22.8,119,22.4z M123.8,24.8c-0.1,0.1-0.2,0.2-0.3,0.2c-0.2,0-0.3,0.1-0.5,0.1
			c-0.4,0.1-0.8,0.1-1.2,0.2c-0.4,0.1-0.8,0.1-1.2,0.2s-0.6,0.3-0.9,0.5c-0.2,0.2-0.3,0.5-0.3,0.9c0,0.2,0,0.5,0.1,0.6
			c0.1,0.2,0.2,0.3,0.4,0.5c0.2,0.1,0.3,0.2,0.6,0.3c0.2,0.1,0.4,0.1,0.6,0.1c0.4,0,0.7-0.1,1-0.2c0.3-0.1,0.6-0.3,0.9-0.5
			c0.2-0.2,0.4-0.5,0.6-0.8s0.2-0.6,0.2-1L123.8,24.8L123.8,24.8z"/>
		<path class="st0" d="M126.3,24c0-0.3,0.1-0.6,0.2-0.8c0.1-0.2,0.2-0.4,0.4-0.6c0.2-0.2,0.3-0.4,0.6-0.5c0.2-0.2,0.4-0.3,0.6-0.4
			c0.2-0.1,0.4-0.3,0.6-0.4c0.2-0.1,0.4-0.3,0.6-0.5c0.2-0.2,0.3-0.3,0.4-0.5c0.1-0.2,0.1-0.4,0.1-0.6c0-0.2,0-0.4-0.1-0.5
			c-0.1-0.2-0.2-0.3-0.3-0.4s-0.3-0.2-0.4-0.2c-0.2-0.1-0.3-0.1-0.5-0.1c-0.3,0-0.5,0-0.6,0.1c-0.2,0.1-0.3,0.2-0.4,0.4
			c-0.1,0.2-0.2,0.3-0.2,0.5c0,0.2-0.1,0.4-0.1,0.6h-0.6c0-0.3,0-0.6,0.1-0.9c0.1-0.3,0.2-0.5,0.4-0.7c0.2-0.2,0.4-0.3,0.6-0.5
			c0.2-0.1,0.5-0.2,0.9-0.2c0.3,0,0.5,0,0.8,0.1c0.2,0.1,0.4,0.2,0.6,0.3c0.2,0.1,0.3,0.3,0.4,0.5s0.1,0.5,0.1,0.8
			c0,0.3,0,0.5-0.1,0.7c-0.1,0.2-0.2,0.4-0.3,0.6c-0.1,0.2-0.3,0.3-0.5,0.5c-0.2,0.1-0.4,0.3-0.6,0.4c-0.1,0.1-0.3,0.2-0.5,0.3
			c-0.2,0.1-0.4,0.3-0.6,0.4c-0.2,0.1-0.3,0.3-0.5,0.5c-0.1,0.2-0.2,0.4-0.3,0.6h3.4V24H126.3z"/>
	</g>
</g>
</svg>
