<!-- Generator: Adobe Illustrator 20.1.0, SVG Export Plug-In  -->
<svg version="1.1"
	 xmlns="http://www.w3.org/2000/svg" xmlns:xlink="http://www.w3.org/1999/xlink" xmlns:a="http://ns.adobe.com/AdobeSVGViewerExtensions/3.0/"
	 x="0px" y="0px" width="87.7px" height="29.2px" viewBox="0 0 87.7 29.2"
	 style="overflow:scroll;enable-background:new 0 0 87.7 29.2;" xml:space="preserve">
<style type="text/css">
	.st0{fill:#58595B;}
</style>
<defs>
</defs>
<g>
	<g>
		<path class="st0" d="M0.2,4.5c0.1-0.3,0.3-0.6,0.6-0.8C1,3.5,1.3,3.3,1.6,3.1C2,3,2.3,2.9,2.7,2.9c0.4,0,0.7,0.1,1,0.2
			C4,3.3,4.3,3.5,4.6,3.7C4.8,3.9,5,4.2,5.2,4.5c0.1,0.3,0.2,0.7,0.2,1c0,0.4-0.1,0.7-0.2,1C5,7,4.8,7.2,4.6,7.5
			C4.3,7.7,4,7.9,3.7,8.1C3.4,8.2,3,8.3,2.7,8.3c-0.4,0-0.7-0.1-1-0.2C1.3,7.9,1,7.7,0.8,7.5C0.5,7.2,0.4,7,0.2,6.6
			C0.1,6.3,0,6,0,5.6C0,5.2,0.1,4.9,0.2,4.5z"/>
		<path class="st0" d="M17.1,0.2c0.5,0,0.9,0.1,1.3,0.2c0.4,0.1,0.7,0.3,1,0.6s0.5,0.6,0.6,1s0.2,0.8,0.2,1.3c0,0.5-0.1,0.9-0.2,1.3
			s-0.4,0.7-0.6,1s-0.6,0.5-1,0.6c-0.4,0.1-0.8,0.2-1.3,0.2h-3.7V11h-1V0.2H17.1z M16.8,5.5c0.7,0,1.3-0.2,1.7-0.5
			C19,4.6,19.2,4,19.2,3.3c0-0.7-0.2-1.3-0.7-1.7c-0.4-0.4-1-0.5-1.7-0.5h-3.5v4.4H16.8z"/>
		<path class="st0" d="M22.8,3.2V5h0c0.2-0.6,0.6-1.1,1.1-1.5s1.1-0.5,1.8-0.5V4c-0.4,0-0.8,0-1.2,0.2c-0.4,0.1-0.7,0.3-0.9,0.6
			C23.4,5,23.2,5.3,23,5.7c-0.1,0.3-0.2,0.7-0.2,1.1V11h-0.9V3.2H22.8z"/>
		<path class="st0" d="M27.6,8.4c0.1,0.4,0.2,0.7,0.5,1c0.2,0.3,0.5,0.5,0.8,0.7c0.3,0.2,0.7,0.3,1.2,0.3c0.7,0,1.2-0.2,1.6-0.5
			c0.4-0.4,0.7-0.8,0.8-1.4h0.9c-0.2,0.9-0.6,1.6-1.1,2c-0.5,0.5-1.3,0.7-2.3,0.7c-0.6,0-1.1-0.1-1.6-0.3c-0.4-0.2-0.8-0.5-1.1-0.9
			c-0.3-0.4-0.5-0.8-0.6-1.3s-0.2-1-0.2-1.6c0-0.5,0.1-1,0.2-1.5s0.3-0.9,0.6-1.3c0.3-0.4,0.6-0.7,1.1-0.9S29.4,3,30,3
			c0.6,0,1.2,0.1,1.6,0.4c0.4,0.3,0.8,0.6,1.1,1c0.3,0.4,0.5,0.9,0.6,1.4c0.1,0.5,0.2,1.1,0.2,1.6h-6C27.5,7.7,27.5,8,27.6,8.4z
			 M32.3,5.5c-0.1-0.3-0.3-0.6-0.5-0.9c-0.2-0.3-0.5-0.5-0.8-0.6s-0.6-0.2-1-0.2c-0.4,0-0.7,0.1-1,0.2s-0.6,0.4-0.8,0.6
			c-0.2,0.3-0.4,0.6-0.5,0.9c-0.1,0.3-0.2,0.7-0.2,1h5C32.5,6.2,32.4,5.8,32.3,5.5z"/>
		<path class="st0" d="M39.5,4.7c-0.1-0.2-0.3-0.4-0.4-0.5c-0.2-0.1-0.4-0.2-0.6-0.3c-0.2-0.1-0.5-0.1-0.8-0.1c-0.2,0-0.4,0-0.6,0.1
			c-0.2,0-0.4,0.1-0.6,0.2c-0.2,0.1-0.3,0.2-0.4,0.4c-0.1,0.2-0.2,0.4-0.2,0.6c0,0.2,0.1,0.4,0.2,0.5c0.1,0.1,0.2,0.3,0.4,0.4
			c0.2,0.1,0.3,0.2,0.5,0.2c0.2,0.1,0.4,0.1,0.5,0.2l1.3,0.3c0.3,0,0.5,0.1,0.8,0.2C39.8,7,40,7.2,40.2,7.3c0.2,0.2,0.4,0.4,0.5,0.6
			c0.1,0.3,0.2,0.5,0.2,0.9c0,0.4-0.1,0.8-0.3,1.1c-0.2,0.3-0.4,0.5-0.7,0.7c-0.3,0.2-0.6,0.3-1,0.4c-0.4,0.1-0.7,0.1-1.1,0.1
			c-0.9,0-1.7-0.2-2.2-0.6c-0.6-0.4-0.9-1.1-1-2.1h0.9c0,0.6,0.3,1.1,0.7,1.5c0.4,0.3,1,0.5,1.6,0.5c0.2,0,0.5,0,0.7-0.1
			c0.2,0,0.5-0.1,0.7-0.3c0.2-0.1,0.4-0.3,0.5-0.5c0.1-0.2,0.2-0.4,0.2-0.7c0-0.2,0-0.4-0.1-0.6c-0.1-0.2-0.2-0.3-0.4-0.4
			c-0.2-0.1-0.3-0.2-0.5-0.3c-0.2-0.1-0.4-0.1-0.6-0.2L37,7.2c-0.3-0.1-0.6-0.2-0.9-0.3c-0.3-0.1-0.5-0.2-0.7-0.4S35.1,6.2,35,6
			s-0.2-0.5-0.2-0.8c0-0.4,0.1-0.7,0.3-1c0.2-0.3,0.4-0.5,0.7-0.7c0.3-0.2,0.6-0.3,0.9-0.4s0.7-0.1,1-0.1c0.4,0,0.8,0.1,1.1,0.2
			c0.3,0.1,0.6,0.3,0.9,0.5c0.3,0.2,0.5,0.5,0.6,0.8c0.1,0.3,0.2,0.7,0.3,1.1h-0.9C39.7,5.2,39.6,4.9,39.5,4.7z"/>
		<path class="st0" d="M43.5,0.2v1.5h-0.9V0.2H43.5z M43.5,3.2V11h-0.9V3.2H43.5z"/>
		<path class="st0" d="M50.5,3.3c0.5,0.2,0.8,0.5,1.1,0.9C52,4.6,52.2,5,52.3,5.5s0.2,1,0.2,1.6c0,0.6-0.1,1.1-0.2,1.6
			S52,9.6,51.6,10s-0.7,0.7-1.1,0.9c-0.5,0.2-1,0.3-1.6,0.3c-0.6,0-1.1-0.1-1.6-0.3c-0.5-0.2-0.8-0.5-1.1-0.9
			c-0.3-0.4-0.5-0.8-0.7-1.3s-0.2-1-0.2-1.6c0-0.6,0.1-1.1,0.2-1.6s0.4-0.9,0.7-1.3c0.3-0.4,0.7-0.7,1.1-0.9s1-0.3,1.6-0.3
			C49.5,3,50,3.1,50.5,3.3z M47.7,4.1c-0.3,0.2-0.6,0.4-0.8,0.8s-0.4,0.7-0.5,1.1c-0.1,0.4-0.2,0.8-0.2,1.2s0.1,0.8,0.2,1.2
			c0.1,0.4,0.3,0.8,0.5,1.1s0.5,0.6,0.8,0.8s0.7,0.3,1.2,0.3s0.8-0.1,1.2-0.3s0.6-0.4,0.8-0.8s0.4-0.7,0.5-1.1
			c0.1-0.4,0.2-0.8,0.2-1.2s-0.1-0.8-0.2-1.2S51.2,5.1,51,4.8s-0.5-0.6-0.8-0.8s-0.7-0.3-1.2-0.3S48.1,3.9,47.7,4.1z M48,2.1L49.6,0
			h1.2l-2,2.1H48z"/>
		<path class="st0" d="M55.2,3.2v1.3h0c0.2-0.5,0.5-0.8,1-1.1c0.5-0.3,1-0.4,1.5-0.4c0.5,0,1,0.1,1.4,0.2c0.4,0.1,0.7,0.3,0.9,0.6
			s0.4,0.6,0.5,0.9c0.1,0.4,0.1,0.8,0.1,1.2v5h-0.9V6.1c0-0.3,0-0.6-0.1-0.9c-0.1-0.3-0.2-0.5-0.3-0.7c-0.2-0.2-0.4-0.4-0.6-0.5
			s-0.6-0.2-1-0.2S57,3.8,56.7,4c-0.3,0.1-0.5,0.3-0.8,0.6c-0.2,0.2-0.4,0.5-0.5,0.8s-0.2,0.7-0.2,1.1V11h-0.9V3.2H55.2z"/>
		<path class="st0" d="M12,22.4c0.2-0.3,0.4-0.6,0.7-0.8c0.3-0.2,0.6-0.4,1-0.5c0.4-0.1,0.8-0.2,1.2-0.2c0.3,0,0.7,0,1,0.1
			c0.3,0.1,0.6,0.2,0.9,0.4c0.3,0.2,0.5,0.4,0.7,0.8c0.2,0.3,0.3,0.7,0.3,1.3v4.1c0,0.4,0.2,0.6,0.6,0.6c0.1,0,0.2,0,0.3-0.1v0.8
			c-0.1,0-0.2,0-0.3,0s-0.2,0-0.3,0c-0.2,0-0.4,0-0.6-0.1c-0.1-0.1-0.3-0.2-0.3-0.3s-0.1-0.3-0.2-0.4c0-0.2,0-0.3,0-0.5h0
			c-0.2,0.3-0.3,0.5-0.5,0.7c-0.2,0.2-0.4,0.4-0.6,0.5c-0.2,0.1-0.5,0.2-0.7,0.3c-0.3,0.1-0.6,0.1-1,0.1c-0.4,0-0.7,0-1-0.1
			s-0.6-0.2-0.8-0.4s-0.4-0.4-0.6-0.7c-0.1-0.3-0.2-0.6-0.2-1c0-0.5,0.1-1,0.4-1.3c0.2-0.3,0.6-0.5,1-0.7c0.4-0.2,0.8-0.3,1.3-0.3
			c0.5-0.1,1-0.1,1.5-0.2c0.2,0,0.4,0,0.5-0.1s0.3-0.1,0.4-0.2c0.1-0.1,0.2-0.2,0.2-0.3c0.1-0.1,0.1-0.3,0.1-0.5
			c0-0.3-0.1-0.6-0.2-0.8c-0.1-0.2-0.3-0.4-0.4-0.5c-0.2-0.1-0.4-0.2-0.6-0.2c-0.2,0-0.5-0.1-0.8-0.1c-0.6,0-1.1,0.1-1.5,0.4
			c-0.4,0.3-0.6,0.7-0.6,1.4h-0.9C11.7,23.2,11.8,22.8,12,22.4z M16.7,24.8c-0.1,0.1-0.2,0.2-0.3,0.2c-0.2,0-0.3,0.1-0.5,0.1
			c-0.4,0.1-0.8,0.1-1.2,0.2c-0.4,0.1-0.8,0.1-1.2,0.2s-0.6,0.3-0.9,0.5c-0.2,0.2-0.3,0.5-0.3,0.9c0,0.2,0,0.5,0.1,0.6
			c0.1,0.2,0.2,0.3,0.4,0.5c0.2,0.1,0.3,0.2,0.6,0.3c0.2,0.1,0.4,0.1,0.6,0.1c0.4,0,0.7-0.1,1-0.2c0.3-0.1,0.6-0.3,0.9-0.5
			c0.2-0.2,0.4-0.5,0.6-0.8s0.2-0.6,0.2-1L16.7,24.8L16.7,24.8z"/>
		<path class="st0" d="M20.7,21.2v1.8h0c0.2-0.6,0.6-1.1,1.1-1.5c0.5-0.3,1.1-0.5,1.8-0.5v0.9c-0.4,0-0.8,0-1.2,0.2
			c-0.4,0.1-0.7,0.3-0.9,0.6c-0.3,0.3-0.5,0.5-0.6,0.9s-0.2,0.7-0.2,1.1V29h-0.9v-7.8H20.7z"/>
		<path class="st0" d="M28,21.2V22h-1.6v5.2c0,0.3,0,0.6,0.1,0.7c0.1,0.2,0.3,0.3,0.6,0.3c0.3,0,0.5,0,0.8,0V29c-0.1,0-0.3,0-0.4,0
			c-0.1,0-0.3,0-0.4,0c-0.6,0-1.1-0.1-1.3-0.4c-0.3-0.2-0.4-0.7-0.4-1.4V22h-1.4v-0.8h1.4v-2.3h0.9v2.3H28z"/>
		<path class="st0" d="M30.3,26.4c0.1,0.4,0.2,0.7,0.5,1c0.2,0.3,0.5,0.5,0.8,0.7c0.3,0.2,0.7,0.3,1.2,0.3c0.7,0,1.2-0.2,1.6-0.5
			c0.4-0.4,0.7-0.8,0.8-1.4h0.9c-0.2,0.9-0.6,1.6-1.1,2c-0.5,0.5-1.3,0.7-2.3,0.7c-0.6,0-1.1-0.1-1.6-0.3c-0.4-0.2-0.8-0.5-1.1-0.9
			c-0.3-0.4-0.5-0.8-0.6-1.3s-0.2-1-0.2-1.6c0-0.5,0.1-1,0.2-1.5s0.3-0.9,0.6-1.3c0.3-0.4,0.6-0.7,1.1-0.9s1-0.4,1.6-0.4
			c0.6,0,1.2,0.1,1.6,0.4c0.4,0.3,0.8,0.6,1.1,1c0.3,0.4,0.5,0.9,0.6,1.4c0.1,0.5,0.2,1.1,0.2,1.6h-6C30.2,25.7,30.3,26.1,30.3,26.4
			z M35,23.5c-0.1-0.3-0.3-0.6-0.5-0.9c-0.2-0.3-0.5-0.5-0.8-0.6s-0.6-0.2-1-0.2c-0.4,0-0.7,0.1-1,0.2s-0.6,0.4-0.8,0.6
			c-0.2,0.3-0.4,0.6-0.5,0.9c-0.1,0.3-0.2,0.7-0.2,1h5C35.2,24.2,35.2,23.9,35,23.5z"/>
		<path class="st0" d="M38.6,21.2v1.8h0c0.2-0.6,0.6-1.1,1.1-1.5s1.1-0.5,1.8-0.5v0.9c-0.4,0-0.8,0-1.2,0.2
			c-0.4,0.1-0.7,0.3-0.9,0.6c-0.3,0.3-0.5,0.5-0.6,0.9c-0.1,0.3-0.2,0.7-0.2,1.1V29h-0.9v-7.8H38.6z"/>
		<path class="st0" d="M43.7,18.3v1.5h-0.9v-1.5H43.7z M43.7,21.2V29h-0.9v-7.8H43.7z"/>
		<path class="st0" d="M46.1,22.4c0.2-0.3,0.4-0.6,0.7-0.8c0.3-0.2,0.6-0.4,1-0.5c0.4-0.1,0.8-0.2,1.2-0.2c0.3,0,0.7,0,1,0.1
			c0.3,0.1,0.6,0.2,0.9,0.4c0.3,0.2,0.5,0.4,0.7,0.8c0.2,0.3,0.3,0.7,0.3,1.3v4.1c0,0.4,0.2,0.6,0.6,0.6c0.1,0,0.2,0,0.3-0.1v0.8
			c-0.1,0-0.2,0-0.3,0s-0.2,0-0.3,0c-0.2,0-0.4,0-0.6-0.1c-0.1-0.1-0.3-0.2-0.3-0.3s-0.1-0.3-0.2-0.4c0-0.2,0-0.3,0-0.5h0
			c-0.2,0.3-0.3,0.5-0.5,0.7c-0.2,0.2-0.4,0.4-0.6,0.5c-0.2,0.1-0.5,0.2-0.7,0.3c-0.3,0.1-0.6,0.1-1,0.1c-0.4,0-0.7,0-1-0.1
			s-0.6-0.2-0.8-0.4s-0.4-0.4-0.6-0.7c-0.1-0.3-0.2-0.6-0.2-1c0-0.5,0.1-1,0.4-1.3c0.2-0.3,0.6-0.5,1-0.7c0.4-0.2,0.8-0.3,1.3-0.3
			c0.5-0.1,1-0.1,1.5-0.2c0.2,0,0.4,0,0.5-0.1s0.3-0.1,0.4-0.2c0.1-0.1,0.2-0.2,0.2-0.3c0.1-0.1,0.1-0.3,0.1-0.5
			c0-0.3-0.1-0.6-0.2-0.8c-0.1-0.2-0.3-0.4-0.4-0.5c-0.2-0.1-0.4-0.2-0.6-0.2c-0.2,0-0.5-0.1-0.8-0.1c-0.6,0-1.1,0.1-1.5,0.4
			c-0.4,0.3-0.6,0.7-0.6,1.4h-0.9C45.8,23.2,45.9,22.8,46.1,22.4z M50.8,24.8c-0.1,0.1-0.2,0.2-0.3,0.2c-0.2,0-0.3,0.1-0.5,0.1
			c-0.4,0.1-0.8,0.1-1.2,0.2c-0.4,0.1-0.8,0.1-1.2,0.2S47,25.8,46.7,26c-0.2,0.2-0.3,0.5-0.3,0.9c0,0.2,0,0.5,0.1,0.6
			c0.1,0.2,0.2,0.3,0.4,0.5c0.2,0.1,0.3,0.2,0.6,0.3c0.2,0.1,0.4,0.1,0.6,0.1c0.4,0,0.7-0.1,1-0.2c0.3-0.1,0.6-0.3,0.9-0.5
			c0.2-0.2,0.4-0.5,0.6-0.8s0.2-0.6,0.2-1L50.8,24.8L50.8,24.8z"/>
		<path class="st0" d="M54.9,18.3V29H54V18.3H54.9z"/>
		<path class="st0" d="M61.7,22.4c0.2-0.3,0.4-0.6,0.7-0.8c0.3-0.2,0.6-0.4,1-0.5c0.4-0.1,0.8-0.2,1.2-0.2c0.3,0,0.7,0,1,0.1
			c0.3,0.1,0.6,0.2,0.9,0.4c0.3,0.2,0.5,0.4,0.7,0.8c0.2,0.3,0.3,0.7,0.3,1.3v4.1c0,0.4,0.2,0.6,0.6,0.6c0.1,0,0.2,0,0.3-0.1v0.8
			c-0.1,0-0.2,0-0.3,0s-0.2,0-0.3,0c-0.2,0-0.4,0-0.6-0.1s-0.3-0.2-0.3-0.3s-0.1-0.3-0.2-0.4c0-0.2,0-0.3,0-0.5h0
			c-0.2,0.3-0.3,0.5-0.5,0.7c-0.2,0.2-0.4,0.4-0.6,0.5c-0.2,0.1-0.5,0.2-0.7,0.3c-0.3,0.1-0.6,0.1-1,0.1c-0.4,0-0.7,0-1-0.1
			c-0.3-0.1-0.6-0.2-0.8-0.4s-0.4-0.4-0.6-0.7c-0.1-0.3-0.2-0.6-0.2-1c0-0.5,0.1-1,0.4-1.3c0.2-0.3,0.6-0.5,1-0.7
			c0.4-0.2,0.8-0.3,1.3-0.3c0.5-0.1,1-0.1,1.5-0.2c0.2,0,0.4,0,0.5-0.1c0.1,0,0.3-0.1,0.4-0.2c0.1-0.1,0.2-0.2,0.2-0.3
			c0.1-0.1,0.1-0.3,0.1-0.5c0-0.3-0.1-0.6-0.2-0.8s-0.3-0.4-0.4-0.5c-0.2-0.1-0.4-0.2-0.6-0.2c-0.2,0-0.5-0.1-0.8-0.1
			c-0.6,0-1.1,0.1-1.5,0.4c-0.4,0.3-0.6,0.7-0.6,1.4h-0.9C61.5,23.2,61.6,22.8,61.7,22.4z M66.5,24.8c-0.1,0.1-0.2,0.2-0.3,0.2
			c-0.2,0-0.3,0.1-0.5,0.1c-0.4,0.1-0.8,0.1-1.2,0.2c-0.4,0.1-0.8,0.1-1.2,0.2c-0.4,0.1-0.6,0.3-0.9,0.5c-0.2,0.2-0.3,0.5-0.3,0.9
			c0,0.2,0,0.5,0.1,0.6c0.1,0.2,0.2,0.3,0.4,0.5c0.2,0.1,0.3,0.2,0.6,0.3c0.2,0.1,0.4,0.1,0.6,0.1c0.4,0,0.7-0.1,1-0.2
			s0.6-0.3,0.9-0.5c0.2-0.2,0.4-0.5,0.6-0.8c0.1-0.3,0.2-0.6,0.2-1L66.5,24.8L66.5,24.8z"/>
		<path class="st0" d="M70.6,18.3V29h-0.9V18.3H70.6z"/>
		<path class="st0" d="M75.8,21.2V22h-1.6v5.2c0,0.3,0,0.6,0.1,0.7c0.1,0.2,0.3,0.3,0.6,0.3c0.3,0,0.5,0,0.8,0V29
			c-0.1,0-0.3,0-0.4,0c-0.1,0-0.3,0-0.4,0c-0.6,0-1.1-0.1-1.3-0.4c-0.3-0.2-0.4-0.7-0.4-1.4V22h-1.4v-0.8h1.4v-2.3h0.9v2.3H75.8z"/>
		<path class="st0" d="M77.7,22.4c0.2-0.3,0.4-0.6,0.7-0.8c0.3-0.2,0.6-0.4,1-0.5c0.4-0.1,0.8-0.2,1.2-0.2c0.3,0,0.7,0,1,0.1
			c0.3,0.1,0.6,0.2,0.9,0.4c0.3,0.2,0.5,0.4,0.7,0.8c0.2,0.3,0.3,0.7,0.3,1.3v4.1c0,0.4,0.2,0.6,0.6,0.6c0.1,0,0.2,0,0.3-0.1v0.8
			c-0.1,0-0.2,0-0.3,0s-0.2,0-0.3,0c-0.2,0-0.4,0-0.6-0.1s-0.3-0.2-0.3-0.3s-0.1-0.3-0.2-0.4c0-0.2,0-0.3,0-0.5h0
			c-0.2,0.3-0.3,0.5-0.5,0.7c-0.2,0.2-0.4,0.4-0.6,0.5c-0.2,0.1-0.5,0.2-0.7,0.3c-0.3,0.1-0.6,0.1-1,0.1c-0.4,0-0.7,0-1-0.1
			c-0.3-0.1-0.6-0.2-0.8-0.4s-0.4-0.4-0.6-0.7c-0.1-0.3-0.2-0.6-0.2-1c0-0.5,0.1-1,0.4-1.3c0.2-0.3,0.6-0.5,1-0.7
			c0.4-0.2,0.8-0.3,1.3-0.3c0.5-0.1,1-0.1,1.5-0.2c0.2,0,0.4,0,0.5-0.1c0.1,0,0.3-0.1,0.4-0.2c0.1-0.1,0.2-0.2,0.2-0.3
			c0.1-0.1,0.1-0.3,0.1-0.5c0-0.3-0.1-0.6-0.2-0.8s-0.3-0.4-0.4-0.5c-0.2-0.1-0.4-0.2-0.6-0.2c-0.2,0-0.5-0.1-0.8-0.1
			c-0.6,0-1.1,0.1-1.5,0.4c-0.4,0.3-0.6,0.7-0.6,1.4h-0.9C77.4,23.2,77.5,22.8,77.7,22.4z M82.4,24.8c-0.1,0.1-0.2,0.2-0.3,0.2
			c-0.2,0-0.3,0.1-0.5,0.1c-0.4,0.1-0.8,0.1-1.2,0.2c-0.4,0.1-0.8,0.1-1.2,0.2c-0.4,0.1-0.6,0.3-0.9,0.5c-0.2,0.2-0.3,0.5-0.3,0.9
			c0,0.2,0,0.5,0.1,0.6c0.1,0.2,0.2,0.3,0.4,0.5c0.2,0.1,0.3,0.2,0.6,0.3c0.2,0.1,0.4,0.1,0.6,0.1c0.4,0,0.7-0.1,1-0.2
			s0.6-0.3,0.9-0.5c0.2-0.2,0.4-0.5,0.6-0.8c0.1-0.3,0.2-0.6,0.2-1L82.4,24.8L82.4,24.8z"/>
		<path class="st0" d="M86.2,19c0.2,0,0.4-0.1,0.5-0.1c0.1-0.1,0.3-0.2,0.4-0.3c0.1-0.2,0.2-0.4,0.2-0.7h0.4V24h-0.6v-4.6h-1.6V19
			C85.8,19,86,19,86.2,19z"/>
	</g>
</g>
</svg>
