<!-- Generator: Adobe Illustrator 20.1.0, SVG Export Plug-In  -->
<svg version="1.1"
	 xmlns="http://www.w3.org/2000/svg" xmlns:xlink="http://www.w3.org/1999/xlink" xmlns:a="http://ns.adobe.com/AdobeSVGViewerExtensions/3.0/"
	 x="0px" y="0px" width="99.2px" height="7.5px" viewBox="0 0 99.2 7.5"
	 style="overflow:scroll;enable-background:new 0 0 99.2 7.5;" xml:space="preserve">
<style type="text/css">
	.st0{opacity:0.9;}
	.st1{opacity:0.9;fill:#333333;}
</style>
<defs>
</defs>
<g class="st0">
	<g>
		<path class="st1" d="M2.7,0.1c0.5,0,1,0.1,1.3,0.4s0.5,0.6,0.5,1.1c0,0.3-0.1,0.6-0.2,0.9C4,2.8,3.8,3,3.4,3.1v0
			c0.2,0,0.3,0.1,0.4,0.2C3.9,3.3,4,3.4,4.1,3.5c0.1,0.1,0.1,0.2,0.1,0.3c0,0.1,0.1,0.3,0.1,0.4c0,0.1,0,0.3,0,0.4
			c0,0.1,0,0.3,0,0.4c0,0.1,0.1,0.3,0.1,0.4c0,0.1,0.1,0.2,0.2,0.3H3.8C3.7,5.8,3.7,5.7,3.7,5.6c0-0.1,0-0.2,0-0.3s0-0.3,0-0.4
			c0-0.1,0-0.3,0-0.4c0-0.1,0-0.3-0.1-0.4c0-0.1-0.1-0.2-0.2-0.3S3.2,3.5,3.1,3.5S2.8,3.4,2.6,3.4H0.8v2.4H0V0.1H2.7z M2.8,2.7
			c0.2,0,0.3-0.1,0.4-0.2c0.1-0.1,0.2-0.2,0.3-0.3C3.6,2.1,3.7,2,3.7,1.7c0-0.3-0.1-0.5-0.2-0.7C3.3,0.9,3,0.8,2.6,0.8H0.8v2h1.6
			C2.5,2.8,2.7,2.8,2.8,2.7z"/>
		<path class="st1" d="M8.4,5.6C8.1,5.8,7.7,5.9,7.3,5.9c-0.3,0-0.6-0.1-0.9-0.2S6,5.5,5.8,5.3S5.5,4.9,5.4,4.6
			C5.4,4.4,5.3,4.1,5.3,3.8c0-0.3,0-0.6,0.1-0.9c0.1-0.3,0.2-0.5,0.4-0.7C6,2,6.2,1.9,6.5,1.8C6.7,1.7,7,1.6,7.2,1.6
			c0.4,0,0.7,0.1,0.9,0.2C8.4,2,8.6,2.2,8.7,2.4S9,2.9,9,3.2C9.1,3.5,9.1,3.7,9.1,4H6c0,0.2,0,0.4,0.1,0.5c0,0.2,0.1,0.3,0.2,0.4
			s0.2,0.2,0.4,0.3c0.2,0.1,0.4,0.1,0.6,0.1c0.3,0,0.5-0.1,0.7-0.2s0.3-0.3,0.4-0.6H9C9,5,8.8,5.3,8.4,5.6z M8.3,2.9
			C8.2,2.8,8.1,2.7,8,2.6C7.9,2.4,7.8,2.4,7.7,2.3C7.5,2.2,7.4,2.2,7.2,2.2c-0.2,0-0.3,0-0.5,0.1C6.6,2.4,6.5,2.4,6.4,2.6
			S6.2,2.8,6.1,2.9C6.1,3.1,6,3.2,6,3.4h2.4C8.4,3.2,8.3,3.1,8.3,2.9z"/>
		<path class="st1" d="M13.1,7c-0.3,0.3-0.8,0.5-1.5,0.5c-0.2,0-0.4,0-0.6-0.1c-0.2,0-0.4-0.1-0.5-0.2c-0.2-0.1-0.3-0.2-0.4-0.4
			S9.9,6.5,9.9,6.3h0.7c0,0.1,0,0.2,0.1,0.3c0.1,0.1,0.2,0.2,0.3,0.2c0.1,0.1,0.2,0.1,0.3,0.1c0.1,0,0.2,0,0.4,0
			c0.2,0,0.4,0,0.6-0.1c0.2-0.1,0.3-0.2,0.4-0.3s0.2-0.3,0.2-0.5c0-0.2,0.1-0.4,0.1-0.6V5.1h0c-0.1,0.3-0.3,0.4-0.5,0.6
			c-0.2,0.1-0.5,0.2-0.8,0.2c-0.3,0-0.6-0.1-0.8-0.2c-0.2-0.1-0.4-0.3-0.6-0.5c-0.2-0.2-0.3-0.4-0.3-0.7C9.8,4.3,9.7,4.1,9.7,3.8
			c0-0.2,0-0.5,0.1-0.8s0.2-0.5,0.3-0.7c0.1-0.2,0.3-0.4,0.6-0.5c0.2-0.1,0.5-0.2,0.9-0.2c0.3,0,0.5,0.1,0.7,0.2
			c0.2,0.1,0.4,0.3,0.5,0.5h0V1.7h0.6v3.8C13.5,6.2,13.4,6.7,13.1,7z M12.2,5.1c0.2-0.1,0.3-0.2,0.4-0.4c0.1-0.2,0.2-0.3,0.2-0.5
			s0.1-0.4,0.1-0.6c0-0.2,0-0.4-0.1-0.5c0-0.2-0.1-0.3-0.2-0.5s-0.2-0.3-0.4-0.3s-0.3-0.1-0.5-0.1c-0.2,0-0.4,0-0.6,0.1
			c-0.2,0.1-0.3,0.2-0.4,0.3c-0.1,0.1-0.2,0.3-0.2,0.5c0,0.2-0.1,0.4-0.1,0.6c0,0.2,0,0.4,0.1,0.6c0,0.2,0.1,0.4,0.2,0.5
			c0.1,0.2,0.2,0.3,0.4,0.4s0.3,0.1,0.6,0.1S12,5.2,12.2,5.1z"/>
		<path class="st1" d="M15.8,5v0.9h-0.9V5H15.8z"/>
		<path class="st1" d="M20.4,0.1l3,4.6h0V0.1h0.7v5.7h-0.8l-3-4.6h0v4.6h-0.7V0.1H20.4z"/>
		<path class="st1" d="M25.3,2.9c0.1-0.3,0.2-0.5,0.4-0.7s0.4-0.3,0.6-0.5c0.3-0.1,0.5-0.2,0.9-0.2c0.3,0,0.6,0.1,0.9,0.2
			c0.2,0.1,0.5,0.3,0.6,0.5s0.3,0.4,0.4,0.7c0.1,0.3,0.1,0.5,0.1,0.9c0,0.3,0,0.6-0.1,0.8c-0.1,0.3-0.2,0.5-0.4,0.7
			c-0.2,0.2-0.4,0.3-0.6,0.5s-0.5,0.2-0.9,0.2c-0.3,0-0.6-0.1-0.9-0.2c-0.3-0.1-0.5-0.3-0.6-0.5c-0.2-0.2-0.3-0.4-0.4-0.7
			c-0.1-0.3-0.1-0.5-0.1-0.8C25.2,3.5,25.2,3.2,25.3,2.9z M26,4.4c0.1,0.2,0.2,0.4,0.3,0.5c0.1,0.1,0.3,0.2,0.4,0.3s0.3,0.1,0.5,0.1
			c0.2,0,0.3,0,0.5-0.1c0.2-0.1,0.3-0.2,0.4-0.3c0.1-0.1,0.2-0.3,0.3-0.5c0.1-0.2,0.1-0.4,0.1-0.7c0-0.3,0-0.5-0.1-0.7
			c-0.1-0.2-0.2-0.4-0.3-0.5c-0.1-0.1-0.3-0.2-0.4-0.3c-0.2-0.1-0.3-0.1-0.5-0.1c-0.2,0-0.3,0-0.5,0.1c-0.2,0.1-0.3,0.2-0.4,0.3
			c-0.1,0.1-0.2,0.3-0.3,0.5c-0.1,0.2-0.1,0.4-0.1,0.7C25.9,4,25.9,4.3,26,4.4z"/>
		<path class="st1" d="M31.2,5v0.9h-0.9V5H31.2z"/>
		<path class="st1" d="M34.7,2.4c0-0.2,0-0.4,0.1-0.7s0.1-0.4,0.2-0.6c0.1-0.2,0.2-0.4,0.3-0.5c0.1-0.1,0.3-0.3,0.5-0.3
			c0.2-0.1,0.5-0.1,0.8-0.1c0.3,0,0.5,0,0.8,0.1c0.2,0.1,0.4,0.2,0.5,0.3C38,0.8,38.1,1,38.2,1.1c0.1,0.2,0.1,0.4,0.2,0.6
			c0,0.2,0.1,0.4,0.1,0.7s0,0.4,0,0.6c0,0.2,0,0.4,0,0.6s0,0.4-0.1,0.7c0,0.2-0.1,0.4-0.2,0.6c-0.1,0.2-0.2,0.4-0.3,0.5
			c-0.1,0.1-0.3,0.3-0.5,0.3c-0.2,0.1-0.5,0.1-0.8,0.1c-0.3,0-0.5,0-0.8-0.1c-0.2-0.1-0.4-0.2-0.5-0.3S35.1,5.2,35,5
			c-0.1-0.2-0.1-0.4-0.2-0.6s-0.1-0.4-0.1-0.7c0-0.2,0-0.4,0-0.6C34.7,2.9,34.7,2.6,34.7,2.4z M35.5,3.8c0,0.3,0.1,0.5,0.1,0.7
			c0.1,0.2,0.2,0.4,0.3,0.6c0.2,0.2,0.4,0.2,0.7,0.2c0.3,0,0.5-0.1,0.7-0.2c0.2-0.2,0.3-0.4,0.3-0.6c0.1-0.2,0.1-0.5,0.1-0.7
			c0-0.3,0-0.5,0-0.7c0-0.1,0-0.3,0-0.5c0-0.2,0-0.3,0-0.5s-0.1-0.3-0.1-0.5c0-0.2-0.1-0.3-0.2-0.4S37.2,1,37.1,0.9
			c-0.1-0.1-0.3-0.1-0.5-0.1c-0.2,0-0.4,0-0.5,0.1C36,1,35.9,1.1,35.8,1.2s-0.2,0.3-0.2,0.4c0,0.2-0.1,0.3-0.1,0.5s0,0.3,0,0.5
			c0,0.2,0,0.3,0,0.5C35.4,3.3,35.5,3.5,35.5,3.8z"/>
		<path class="st1" d="M41.2,5.8V1.8h-1.5V1.2c0.2,0,0.4,0,0.6,0s0.3-0.1,0.5-0.2s0.3-0.2,0.4-0.3c0.1-0.1,0.2-0.3,0.2-0.5h0.5v5.7
			H41.2z"/>
		<path class="st1" d="M46.6,1c-0.2-0.2-0.4-0.2-0.7-0.2c-0.3,0-0.5,0.1-0.7,0.2s-0.3,0.3-0.4,0.5S44.7,2,44.6,2.2
			c0,0.3-0.1,0.5-0.1,0.7l0,0c0.2-0.3,0.4-0.4,0.6-0.6s0.5-0.2,0.8-0.2c0.3,0,0.5,0,0.7,0.1c0.2,0.1,0.4,0.2,0.5,0.4
			s0.3,0.4,0.3,0.6c0.1,0.2,0.1,0.5,0.1,0.7c0,0.2,0,0.4-0.1,0.6c-0.1,0.2-0.2,0.4-0.3,0.6c-0.1,0.2-0.3,0.3-0.6,0.5
			c-0.2,0.1-0.5,0.2-0.9,0.2c-0.4,0-0.8-0.1-1-0.3c-0.3-0.2-0.5-0.4-0.6-0.7C44.1,4.7,44,4.5,44,4.1c0-0.3-0.1-0.6-0.1-0.9
			c0-0.4,0-0.8,0.1-1.1c0.1-0.4,0.2-0.7,0.3-1c0.2-0.3,0.4-0.5,0.6-0.7c0.3-0.2,0.6-0.3,1-0.3c0.5,0,0.8,0.1,1.1,0.4
			s0.4,0.6,0.5,1.1h-0.7C46.9,1.4,46.8,1.2,46.6,1z M45.4,2.9C45.2,3,45.1,3.1,45,3.2c-0.1,0.1-0.2,0.3-0.2,0.4s-0.1,0.3-0.1,0.5
			s0,0.3,0.1,0.5C44.8,4.7,44.9,4.9,45,5c0.1,0.1,0.2,0.2,0.4,0.3s0.3,0.1,0.5,0.1s0.4,0,0.5-0.1s0.3-0.2,0.4-0.3s0.2-0.3,0.2-0.4
			C47,4.4,47,4.2,47,4.1c0-0.2,0-0.3-0.1-0.5c0-0.2-0.1-0.3-0.2-0.4c-0.1-0.1-0.2-0.2-0.4-0.3c-0.1-0.1-0.3-0.1-0.5-0.1
			C45.7,2.8,45.5,2.8,45.4,2.9z"/>
		<path class="st1" d="M51.3,0.1c0.6,0,1,0.1,1.3,0.4c0.3,0.3,0.4,0.7,0.4,1.2c0,0.5-0.1,0.9-0.4,1.2c-0.3,0.3-0.7,0.4-1.3,0.4h-1.7
			v2.3h-0.8V0.1H51.3z M51.1,2.9c0.4,0,0.7-0.1,0.9-0.3s0.3-0.4,0.3-0.8c0-0.3-0.1-0.6-0.3-0.8c-0.2-0.2-0.5-0.3-0.9-0.3h-1.5v2.1
			H51.1z"/>
		<path class="st1" d="M54,1.4c0.1-0.2,0.2-0.5,0.3-0.6c0.2-0.2,0.4-0.3,0.6-0.4s0.5-0.2,0.8-0.2c0.2,0,0.5,0,0.7,0.1
			c0.2,0.1,0.4,0.2,0.6,0.3c0.2,0.1,0.3,0.3,0.4,0.5c0.1,0.2,0.1,0.4,0.1,0.7c0,0.3,0,0.5-0.1,0.7S57.2,2.8,57.1,3
			c-0.1,0.2-0.3,0.3-0.4,0.4s-0.3,0.2-0.5,0.4c-0.2,0.1-0.4,0.2-0.5,0.3c-0.2,0.1-0.3,0.2-0.5,0.3c-0.1,0.1-0.3,0.2-0.4,0.4
			c-0.1,0.1-0.2,0.3-0.2,0.5h2.9v0.6h-3.7c0-0.3,0.1-0.6,0.2-0.9c0.1-0.2,0.2-0.4,0.4-0.6c0.1-0.2,0.3-0.3,0.5-0.5s0.4-0.3,0.6-0.4
			c0.2-0.1,0.4-0.3,0.6-0.4s0.3-0.3,0.5-0.4c0.1-0.1,0.2-0.3,0.3-0.4c0.1-0.1,0.1-0.3,0.1-0.5c0-0.2,0-0.3-0.1-0.4s-0.1-0.2-0.2-0.3
			c-0.1-0.1-0.2-0.2-0.3-0.2c-0.1,0-0.3-0.1-0.4-0.1c-0.2,0-0.4,0-0.5,0.1s-0.3,0.2-0.3,0.3s-0.2,0.3-0.2,0.5c0,0.2-0.1,0.3-0.1,0.5
			h-0.7C53.9,1.9,53.9,1.6,54,1.4z"/>
		<path class="st1" d="M58.5,2.4c0-0.2,0-0.4,0.1-0.7s0.1-0.4,0.2-0.6c0.1-0.2,0.2-0.4,0.3-0.5c0.1-0.1,0.3-0.3,0.5-0.3
			c0.2-0.1,0.5-0.1,0.8-0.1c0.3,0,0.5,0,0.8,0.1c0.2,0.1,0.4,0.2,0.5,0.3C61.8,0.8,61.9,1,62,1.1c0.1,0.2,0.1,0.4,0.2,0.6
			c0,0.2,0.1,0.4,0.1,0.7s0,0.4,0,0.6c0,0.2,0,0.4,0,0.6s0,0.4-0.1,0.7C62.1,4.6,62,4.8,62,5c-0.1,0.2-0.2,0.4-0.3,0.5
			c-0.1,0.1-0.3,0.3-0.5,0.3c-0.2,0.1-0.5,0.1-0.8,0.1c-0.3,0-0.5,0-0.8-0.1c-0.2-0.1-0.4-0.2-0.5-0.3S58.8,5.2,58.7,5
			c-0.1-0.2-0.1-0.4-0.2-0.6s-0.1-0.4-0.1-0.7c0-0.2,0-0.4,0-0.6C58.5,2.9,58.5,2.6,58.5,2.4z M59.2,3.8c0,0.3,0.1,0.5,0.1,0.7
			c0.1,0.2,0.2,0.4,0.3,0.6c0.2,0.2,0.4,0.2,0.7,0.2c0.3,0,0.5-0.1,0.7-0.2c0.2-0.2,0.3-0.4,0.3-0.6c0.1-0.2,0.1-0.5,0.1-0.7
			c0-0.3,0-0.5,0-0.7c0-0.1,0-0.3,0-0.5c0-0.2,0-0.3,0-0.5s-0.1-0.3-0.1-0.5c0-0.2-0.1-0.3-0.2-0.4S61,1,60.8,0.9
			c-0.1-0.1-0.3-0.1-0.5-0.1c-0.2,0-0.4,0-0.5,0.1c-0.1,0.1-0.2,0.2-0.3,0.3s-0.2,0.3-0.2,0.4c0,0.2-0.1,0.3-0.1,0.5s0,0.3,0,0.5
			c0,0.2,0,0.3,0,0.5C59.2,3.3,59.2,3.5,59.2,3.8z"/>
		<path class="st1" d="M64.9,5.8V1.8h-1.5V1.2c0.2,0,0.4,0,0.6,0s0.3-0.1,0.5-0.2s0.3-0.2,0.4-0.3c0.1-0.1,0.2-0.3,0.2-0.5h0.5v5.7
			H64.9z"/>
		<path class="st1" d="M68.8,0.9l-0.3,1.6l0,0c0.1-0.1,0.3-0.2,0.5-0.3s0.4-0.1,0.6-0.1c0.3,0,0.5,0,0.7,0.1
			c0.2,0.1,0.4,0.2,0.6,0.4C71,2.8,71.2,3,71.3,3.2c0.1,0.2,0.1,0.5,0.1,0.9c0,0.2,0,0.5-0.1,0.7c-0.1,0.2-0.2,0.4-0.4,0.6
			s-0.4,0.3-0.6,0.4s-0.5,0.2-0.9,0.2c-0.2,0-0.5,0-0.7-0.1c-0.2-0.1-0.4-0.2-0.6-0.3S67.9,5.2,67.8,5c-0.1-0.2-0.1-0.4-0.2-0.7h0.7
			c0,0.1,0,0.3,0.1,0.4C68.5,4.8,68.5,5,68.6,5c0.1,0.1,0.2,0.2,0.4,0.2c0.1,0.1,0.3,0.1,0.5,0.1c0.2,0,0.3,0,0.5-0.1
			c0.1-0.1,0.3-0.1,0.4-0.3c0.1-0.1,0.2-0.3,0.3-0.4c0.1-0.2,0.1-0.4,0.1-0.6c0-0.2,0-0.4-0.1-0.5c-0.1-0.2-0.1-0.3-0.3-0.4
			c-0.1-0.1-0.2-0.2-0.4-0.3c-0.2-0.1-0.3-0.1-0.5-0.1c-0.2,0-0.4,0-0.6,0.1c-0.2,0.1-0.3,0.2-0.5,0.4l-0.6,0l0.5-2.9h2.8v0.6H68.8z
			"/>
		<path class="st1" d="M77.8,0.9c-0.3-0.2-0.6-0.3-1-0.3c-0.2,0-0.3,0-0.5,0c-0.2,0-0.3,0.1-0.4,0.2c-0.1,0.1-0.2,0.2-0.3,0.3
			s-0.1,0.3-0.1,0.5c0,0.2,0.1,0.3,0.2,0.4c0.1,0.1,0.2,0.2,0.4,0.3c0.2,0.1,0.4,0.1,0.6,0.2s0.4,0.1,0.7,0.1
			c0.2,0.1,0.4,0.1,0.7,0.2c0.2,0.1,0.4,0.2,0.6,0.3c0.2,0.1,0.3,0.3,0.4,0.5c0.1,0.2,0.2,0.4,0.2,0.7c0,0.3-0.1,0.6-0.2,0.8
			c-0.1,0.2-0.3,0.4-0.5,0.5c-0.2,0.1-0.5,0.2-0.7,0.3C77.5,5.9,77.2,6,77,6c-0.3,0-0.6,0-0.9-0.1s-0.5-0.2-0.8-0.4
			c-0.2-0.2-0.4-0.4-0.5-0.6c-0.1-0.3-0.2-0.6-0.2-0.9h0.7c0,0.2,0,0.4,0.1,0.6c0.1,0.2,0.2,0.3,0.4,0.4s0.3,0.2,0.5,0.2
			c0.2,0.1,0.4,0.1,0.6,0.1c0.2,0,0.3,0,0.5,0c0.2,0,0.3-0.1,0.5-0.2c0.1-0.1,0.3-0.2,0.3-0.3c0.1-0.1,0.1-0.3,0.1-0.5
			c0-0.2-0.1-0.4-0.2-0.5c-0.1-0.1-0.2-0.2-0.4-0.3c-0.2-0.1-0.4-0.1-0.6-0.2c-0.2,0-0.4-0.1-0.7-0.1c-0.2-0.1-0.4-0.1-0.7-0.2
			s-0.4-0.2-0.6-0.3c-0.2-0.1-0.3-0.3-0.4-0.4s-0.2-0.4-0.2-0.7c0-0.3,0.1-0.5,0.2-0.7c0.1-0.2,0.3-0.4,0.5-0.5s0.4-0.2,0.7-0.3
			C76.3,0,76.6,0,76.9,0c0.3,0,0.6,0,0.8,0.1s0.5,0.2,0.7,0.3c0.2,0.1,0.3,0.3,0.4,0.6c0.1,0.2,0.2,0.5,0.2,0.8h-0.7
			C78.2,1.4,78,1.1,77.8,0.9z"/>
		<path class="st1" d="M83.1,0.9c-0.3-0.2-0.6-0.3-1-0.3c-0.2,0-0.3,0-0.5,0c-0.2,0-0.3,0.1-0.4,0.2C81.2,0.9,81.1,1,81,1.1
			s-0.1,0.3-0.1,0.5c0,0.2,0.1,0.3,0.2,0.4c0.1,0.1,0.2,0.2,0.4,0.3c0.2,0.1,0.4,0.1,0.6,0.2s0.4,0.1,0.7,0.1
			c0.2,0.1,0.4,0.1,0.7,0.2C83.6,2.9,83.8,3,84,3.1c0.2,0.1,0.3,0.3,0.4,0.5c0.1,0.2,0.2,0.4,0.2,0.7c0,0.3-0.1,0.6-0.2,0.8
			c-0.1,0.2-0.3,0.4-0.5,0.5c-0.2,0.1-0.5,0.2-0.7,0.3C82.8,5.9,82.6,6,82.3,6c-0.3,0-0.6,0-0.9-0.1s-0.5-0.2-0.8-0.4
			c-0.2-0.2-0.4-0.4-0.5-0.6C80,4.6,79.9,4.3,79.9,4h0.7c0,0.2,0,0.4,0.1,0.6C80.9,4.8,81,4.9,81.2,5s0.3,0.2,0.5,0.2
			c0.2,0.1,0.4,0.1,0.6,0.1c0.2,0,0.3,0,0.5,0c0.2,0,0.3-0.1,0.5-0.2c0.1-0.1,0.3-0.2,0.3-0.3c0.1-0.1,0.1-0.3,0.1-0.5
			c0-0.2-0.1-0.4-0.2-0.5c-0.1-0.1-0.2-0.2-0.4-0.3c-0.2-0.1-0.4-0.1-0.6-0.2c-0.2,0-0.4-0.1-0.7-0.1c-0.2-0.1-0.4-0.1-0.7-0.2
			s-0.4-0.2-0.6-0.3c-0.2-0.1-0.3-0.3-0.4-0.4s-0.2-0.4-0.2-0.7c0-0.3,0.1-0.5,0.2-0.7c0.1-0.2,0.3-0.4,0.5-0.5s0.4-0.2,0.7-0.3
			C81.7,0,81.9,0,82.2,0c0.3,0,0.6,0,0.8,0.1s0.5,0.2,0.7,0.3C83.8,0.6,84,0.8,84.1,1c0.1,0.2,0.2,0.5,0.2,0.8h-0.7
			C83.5,1.4,83.4,1.1,83.1,0.9z"/>
		<path class="st1" d="M88,0.1l2.2,5.7h-0.8l-0.6-1.7h-2.4l-0.6,1.7h-0.8l2.2-5.7H88z M88.5,3.5l-1-2.7h0l-1,2.7H88.5z"/>
		<path class="st1" d="M94.7,5.8l-2-5.7h0.8l1.6,4.9h0l1.6-4.9h0.8l-2,5.7H94.7z"/>
		<path class="st1" d="M99.2,0.1v5.7h-0.8V0.1H99.2z"/>
	</g>
</g>
</svg>
