<!-- Generator: Adobe Illustrator 20.1.0, SVG Export Plug-In  -->
<svg version="1.1"
	 xmlns="http://www.w3.org/2000/svg" xmlns:xlink="http://www.w3.org/1999/xlink" xmlns:a="http://ns.adobe.com/AdobeSVGViewerExtensions/3.0/"
	 x="0px" y="0px" width="712.7px" height="37.8px" viewBox="0 0 712.7 37.8"
	 style="overflow:scroll;enable-background:new 0 0 712.7 37.8;" xml:space="preserve">
<style type="text/css">
	.st0{opacity:0.9;fill:#F18A21;}
	.st1{opacity:0.8;fill:#333333;}
</style>
<defs>
</defs>
<g>
	<path class="st0" d="M4.1,2.5H0V0.2h11.2v2.4H7.1V13h-3V2.5z"/>
	<path class="st0" d="M14.1,3.7h2.6v1.7h0c0.1-0.3,0.3-0.6,0.5-0.8C17.5,4.4,17.7,4.2,18,4c0.3-0.2,0.6-0.3,0.9-0.4s0.7-0.1,1-0.1
		c0.2,0,0.4,0,0.6,0.1v2.4c-0.1,0-0.3,0-0.5-0.1c-0.2,0-0.4,0-0.5,0c-0.5,0-0.9,0.1-1.3,0.2s-0.6,0.4-0.8,0.6
		c-0.2,0.3-0.4,0.6-0.4,1s-0.1,0.8-0.1,1.2V13h-2.7V3.7z"/>
	<path class="st0" d="M23.1,6.6c0-0.6,0.2-1.1,0.5-1.5c0.3-0.4,0.6-0.7,1.1-1c0.4-0.2,0.9-0.4,1.5-0.5c0.5-0.1,1.1-0.2,1.6-0.2
		c0.5,0,1,0,1.5,0.1c0.5,0.1,1,0.2,1.4,0.4c0.4,0.2,0.8,0.5,1,0.8C31.9,5.1,32,5.5,32,6.1v4.8c0,0.4,0,0.8,0.1,1.2
		c0.1,0.4,0.1,0.7,0.3,0.9h-2.8c-0.1-0.1-0.1-0.3-0.1-0.4c0-0.1-0.1-0.3-0.1-0.5c-0.4,0.4-0.9,0.7-1.5,0.9s-1.2,0.3-1.8,0.3
		c-0.5,0-0.9-0.1-1.3-0.2c-0.4-0.1-0.8-0.3-1.1-0.5c-0.3-0.2-0.5-0.5-0.7-0.9c-0.2-0.3-0.3-0.8-0.3-1.2c0-0.5,0.1-1,0.3-1.3
		c0.2-0.3,0.4-0.6,0.8-0.8s0.7-0.4,1.1-0.5c0.4-0.1,0.8-0.2,1.2-0.2c0.4-0.1,0.8-0.1,1.2-0.1c0.4,0,0.7-0.1,1-0.2
		c0.3-0.1,0.5-0.2,0.7-0.3s0.3-0.3,0.3-0.6c0-0.3,0-0.5-0.1-0.7c-0.1-0.2-0.2-0.3-0.4-0.4s-0.3-0.1-0.6-0.2c-0.2,0-0.4,0-0.7,0
		c-0.5,0-0.9,0.1-1.3,0.3c-0.3,0.2-0.5,0.6-0.5,1.1H23.1z M29.3,8.4c-0.1,0.1-0.3,0.2-0.4,0.2s-0.4,0.1-0.6,0.1s-0.4,0.1-0.6,0.1
		c-0.2,0-0.4,0.1-0.6,0.1c-0.2,0-0.4,0.1-0.6,0.1S26.1,9.3,26,9.4c-0.1,0.1-0.3,0.2-0.4,0.4c-0.1,0.2-0.1,0.4-0.1,0.6
		c0,0.2,0,0.4,0.1,0.6c0.1,0.1,0.2,0.3,0.4,0.4c0.2,0.1,0.3,0.2,0.5,0.2c0.2,0,0.4,0.1,0.6,0.1c0.5,0,0.9-0.1,1.2-0.3
		c0.3-0.2,0.5-0.4,0.6-0.6c0.1-0.2,0.2-0.5,0.3-0.7c0-0.2,0-0.4,0-0.6V8.4z"/>
	<path class="st0" d="M39.2,3.7h2v1.7h-2V10c0,0.4,0.1,0.7,0.2,0.9c0.2,0.1,0.5,0.2,0.9,0.2c0.3,0,0.6,0,0.8-0.1v2
		c-0.2,0-0.5,0.1-0.8,0.1c-0.3,0-0.6,0-0.8,0c-0.4,0-0.8,0-1.2-0.1c-0.4-0.1-0.7-0.2-1-0.3c-0.3-0.2-0.5-0.4-0.7-0.7
		c-0.2-0.3-0.2-0.7-0.2-1.1V5.4h-1.6V3.7h1.6V0.9h2.7V3.7z"/>
	<path class="st0" d="M44,6.6c0-0.6,0.2-1.1,0.5-1.5c0.3-0.4,0.6-0.7,1.1-1C46,3.9,46.5,3.7,47,3.6c0.5-0.1,1.1-0.2,1.6-0.2
		c0.5,0,1,0,1.5,0.1c0.5,0.1,1,0.2,1.4,0.4c0.4,0.2,0.8,0.5,1,0.8C52.9,5.1,53,5.5,53,6.1v4.8c0,0.4,0,0.8,0.1,1.2
		c0.1,0.4,0.1,0.7,0.3,0.9h-2.8c-0.1-0.1-0.1-0.3-0.1-0.4c0-0.1-0.1-0.3-0.1-0.5c-0.4,0.4-0.9,0.7-1.5,0.9s-1.2,0.3-1.8,0.3
		c-0.5,0-0.9-0.1-1.3-0.2c-0.4-0.1-0.8-0.3-1.1-0.5c-0.3-0.2-0.5-0.5-0.7-0.9c-0.2-0.3-0.3-0.8-0.3-1.2c0-0.5,0.1-1,0.3-1.3
		c0.2-0.3,0.4-0.6,0.8-0.8s0.7-0.4,1.1-0.5c0.4-0.1,0.8-0.2,1.2-0.2c0.4-0.1,0.8-0.1,1.2-0.1c0.4,0,0.7-0.1,1-0.2
		C49.6,7.3,49.9,7.2,50,7s0.3-0.3,0.3-0.6c0-0.3,0-0.5-0.1-0.7c-0.1-0.2-0.2-0.3-0.4-0.4s-0.3-0.1-0.6-0.2c-0.2,0-0.4,0-0.7,0
		c-0.5,0-0.9,0.1-1.3,0.3c-0.3,0.2-0.5,0.6-0.5,1.1H44z M50.3,8.4c-0.1,0.1-0.3,0.2-0.4,0.2s-0.4,0.1-0.6,0.1s-0.4,0.1-0.6,0.1
		c-0.2,0-0.4,0.1-0.6,0.1c-0.2,0-0.4,0.1-0.6,0.1s-0.4,0.1-0.5,0.2c-0.1,0.1-0.3,0.2-0.4,0.4c-0.1,0.2-0.1,0.4-0.1,0.6
		c0,0.2,0,0.4,0.1,0.6c0.1,0.1,0.2,0.3,0.4,0.4c0.2,0.1,0.3,0.2,0.5,0.2c0.2,0,0.4,0.1,0.6,0.1c0.5,0,0.9-0.1,1.2-0.3
		c0.3-0.2,0.5-0.4,0.6-0.6c0.1-0.2,0.2-0.5,0.3-0.7c0-0.2,0-0.4,0-0.6V8.4z"/>
	<path class="st0" d="M56.8,3.7h2.6V5h0c0.4-0.5,0.8-0.8,1.3-1.1c0.5-0.3,1.1-0.4,1.7-0.4c0.6,0,1.2,0.1,1.7,0.4
		C64.7,4,65.1,4.4,65.3,5c0.3-0.4,0.7-0.8,1.2-1.1c0.5-0.3,1.1-0.5,1.8-0.5c0.5,0,1,0.1,1.5,0.2c0.4,0.1,0.8,0.3,1.1,0.6
		s0.6,0.6,0.7,1c0.2,0.4,0.3,0.9,0.3,1.5V13h-2.7V7.7c0-0.3,0-0.6,0-0.9c0-0.3-0.1-0.5-0.2-0.7c-0.1-0.2-0.3-0.4-0.5-0.5
		s-0.5-0.2-0.9-0.2c-0.4,0-0.7,0.1-0.9,0.2c-0.2,0.1-0.4,0.3-0.6,0.5C66,6.4,65.9,6.7,65.8,7c0,0.3-0.1,0.6-0.1,0.9V13H63V7.8
		c0-0.3,0-0.5,0-0.8S63,6.4,62.9,6.2c-0.1-0.2-0.3-0.4-0.5-0.5c-0.2-0.1-0.6-0.2-1-0.2c-0.1,0-0.3,0-0.5,0.1
		c-0.2,0.1-0.4,0.2-0.6,0.3c-0.2,0.2-0.4,0.4-0.5,0.6c-0.1,0.3-0.2,0.7-0.2,1.1V13h-2.7V3.7z"/>
	<path class="st0" d="M78.5,2.3h-2.7V0.2h2.7V2.3z M75.8,3.7h2.7V13h-2.7V3.7z"/>
	<path class="st0" d="M84.5,9c0,0.8,0.3,1.4,0.7,1.8c0.4,0.4,1,0.6,1.8,0.6c0.5,0,1-0.1,1.4-0.4c0.4-0.3,0.6-0.5,0.7-0.8h2.4
		c-0.4,1.1-1,1.9-1.8,2.4s-1.7,0.7-2.9,0.7c-0.8,0-1.5-0.1-2.1-0.4c-0.6-0.2-1.2-0.6-1.6-1c-0.4-0.4-0.8-0.9-1-1.5
		c-0.2-0.6-0.4-1.3-0.4-2c0-0.7,0.1-1.3,0.4-1.9c0.2-0.6,0.6-1.1,1-1.6c0.4-0.4,1-0.8,1.6-1c0.6-0.3,1.3-0.4,2.1-0.4
		c0.8,0,1.6,0.2,2.2,0.5c0.6,0.3,1.1,0.7,1.5,1.2s0.7,1.1,0.9,1.8c0.2,0.7,0.2,1.3,0.2,2.1H84.5z M88.9,7.3
		c-0.1-0.6-0.4-1.1-0.7-1.5c-0.3-0.3-0.8-0.5-1.5-0.5c-0.4,0-0.8,0.1-1.1,0.2c-0.3,0.1-0.5,0.3-0.7,0.5c-0.2,0.2-0.3,0.4-0.4,0.6
		s-0.1,0.4-0.1,0.6H88.9z"/>
	<path class="st0" d="M94.9,3.7h2.6V5h0.1c0.3-0.5,0.8-0.9,1.3-1.2s1.1-0.4,1.7-0.4c0.7,0,1.3,0.1,1.8,0.3c0.5,0.2,0.8,0.4,1.1,0.8
		s0.5,0.7,0.6,1.2c0.1,0.5,0.2,1,0.2,1.6V13h-2.7V7.7c0-0.8-0.1-1.3-0.4-1.7c-0.3-0.4-0.7-0.6-1.3-0.6c-0.7,0-1.3,0.2-1.6,0.6
		c-0.3,0.4-0.5,1.1-0.5,2V13h-2.7V3.7z"/>
	<path class="st0" d="M111.3,3.7h2v1.7h-2V10c0,0.4,0.1,0.7,0.2,0.9c0.2,0.1,0.5,0.2,0.9,0.2c0.3,0,0.6,0,0.8-0.1v2
		c-0.2,0-0.5,0.1-0.8,0.1c-0.3,0-0.6,0-0.8,0c-0.4,0-0.8,0-1.2-0.1c-0.4-0.1-0.7-0.2-1-0.3c-0.3-0.2-0.5-0.4-0.7-0.7
		c-0.2-0.3-0.2-0.7-0.2-1.1V5.4H107V3.7h1.6V0.9h2.7V3.7z"/>
	<path class="st0" d="M115.9,8.4c0-0.7,0.1-1.4,0.4-2s0.6-1.1,1-1.5c0.4-0.4,1-0.8,1.6-1c0.6-0.2,1.3-0.4,2.1-0.4
		c0.8,0,1.5,0.1,2.1,0.4c0.6,0.2,1.2,0.6,1.6,1s0.8,0.9,1,1.5c0.2,0.6,0.4,1.3,0.4,2s-0.1,1.4-0.4,2c-0.2,0.6-0.6,1.1-1,1.5
		c-0.4,0.4-1,0.8-1.6,1c-0.6,0.2-1.3,0.4-2.1,0.4c-0.8,0-1.5-0.1-2.1-0.4c-0.6-0.2-1.2-0.6-1.6-1c-0.4-0.4-0.8-0.9-1-1.5
		C116.1,9.8,115.9,9.1,115.9,8.4z M118.7,8.4c0,0.4,0,0.7,0.1,1.1c0.1,0.4,0.2,0.7,0.4,1s0.4,0.5,0.7,0.7s0.7,0.3,1.1,0.3
		c0.5,0,0.8-0.1,1.2-0.3c0.3-0.2,0.6-0.4,0.7-0.7c0.2-0.3,0.3-0.6,0.4-1c0.1-0.4,0.1-0.7,0.1-1.1s0-0.7-0.1-1.1
		c-0.1-0.4-0.2-0.7-0.4-1c-0.2-0.3-0.4-0.5-0.7-0.7c-0.3-0.2-0.7-0.3-1.2-0.3c-0.5,0-0.8,0.1-1.1,0.3s-0.6,0.4-0.7,0.7
		s-0.3,0.6-0.4,1C118.7,7.6,118.7,8,118.7,8.4z"/>
	<path class="st0" d="M143.3,7c-0.2-1.1-0.8-1.6-2-1.6c-0.4,0-0.8,0.1-1.1,0.3s-0.5,0.4-0.7,0.7s-0.3,0.6-0.4,1
		c-0.1,0.4-0.1,0.7-0.1,1s0,0.7,0.1,1c0.1,0.3,0.2,0.7,0.4,0.9s0.4,0.5,0.7,0.7s0.6,0.3,1.1,0.3c0.6,0,1.1-0.2,1.5-0.5
		s0.6-0.8,0.7-1.4h2.6c-0.2,1.2-0.7,2.2-1.5,2.8c-0.8,0.7-1.9,1-3.2,1c-0.8,0-1.4-0.1-2-0.4c-0.6-0.2-1.1-0.6-1.6-1
		c-0.4-0.4-0.8-0.9-1-1.5c-0.2-0.6-0.4-1.2-0.4-1.9c0-0.7,0.1-1.4,0.3-2s0.6-1.1,1-1.6c0.4-0.4,1-0.8,1.6-1.1
		c0.6-0.3,1.3-0.4,2.1-0.4c0.6,0,1.1,0.1,1.7,0.2c0.5,0.1,1,0.4,1.4,0.7s0.8,0.7,1,1.1c0.3,0.4,0.4,1,0.5,1.5H143.3z"/>
	<path class="st0" d="M148.8,8.4c0-0.7,0.1-1.4,0.4-2s0.6-1.1,1-1.5c0.4-0.4,1-0.8,1.6-1c0.6-0.2,1.3-0.4,2.1-0.4
		c0.8,0,1.5,0.1,2.1,0.4c0.6,0.2,1.2,0.6,1.6,1s0.8,0.9,1,1.5c0.2,0.6,0.4,1.3,0.4,2s-0.1,1.4-0.4,2c-0.2,0.6-0.6,1.1-1,1.5
		c-0.4,0.4-1,0.8-1.6,1c-0.6,0.2-1.3,0.4-2.1,0.4c-0.8,0-1.5-0.1-2.1-0.4c-0.6-0.2-1.2-0.6-1.6-1c-0.4-0.4-0.8-0.9-1-1.5
		C148.9,9.8,148.8,9.1,148.8,8.4z M151.5,8.4c0,0.4,0,0.7,0.1,1.1c0.1,0.4,0.2,0.7,0.4,1s0.4,0.5,0.7,0.7s0.7,0.3,1.1,0.3
		c0.5,0,0.8-0.1,1.2-0.3c0.3-0.2,0.6-0.4,0.7-0.7c0.2-0.3,0.3-0.6,0.4-1c0.1-0.4,0.1-0.7,0.1-1.1s0-0.7-0.1-1.1
		c-0.1-0.4-0.2-0.7-0.4-1c-0.2-0.3-0.4-0.5-0.7-0.7c-0.3-0.2-0.7-0.3-1.2-0.3c-0.5,0-0.8,0.1-1.1,0.3S152.2,6,152,6.3
		s-0.3,0.6-0.4,1C151.6,7.6,151.5,8,151.5,8.4z"/>
	<path class="st0" d="M162.5,3.7h2.6V5h0.1c0.3-0.5,0.8-0.9,1.3-1.2s1.1-0.4,1.7-0.4c0.7,0,1.3,0.1,1.8,0.3c0.5,0.2,0.8,0.4,1.1,0.8
		s0.5,0.7,0.6,1.2c0.1,0.5,0.2,1,0.2,1.6V13H169V7.7c0-0.8-0.1-1.3-0.4-1.7c-0.3-0.4-0.7-0.6-1.3-0.6c-0.7,0-1.3,0.2-1.6,0.6
		c-0.3,0.4-0.5,1.1-0.5,2V13h-2.7V3.7z"/>
	<path class="st0" d="M189.4,11.8L189.4,11.8c-0.4,0.5-0.8,0.9-1.3,1.1c-0.5,0.2-1.1,0.3-1.7,0.3c-0.8,0-1.4-0.1-2-0.4
		s-1-0.6-1.4-1.1s-0.6-1-0.8-1.6S182,8.9,182,8.3c0-0.6,0.1-1.2,0.3-1.8c0.2-0.6,0.5-1.1,0.8-1.5c0.4-0.4,0.8-0.8,1.4-1.1
		c0.5-0.3,1.2-0.4,1.9-0.4c0.6,0,1.1,0.1,1.7,0.4c0.5,0.2,0.9,0.6,1.3,1h0V0.2h2.7V13h-2.6V11.8z M189.4,8.3c0-0.4,0-0.7-0.1-1.1
		s-0.2-0.7-0.4-0.9s-0.4-0.5-0.7-0.7c-0.3-0.2-0.7-0.3-1.1-0.3c-0.4,0-0.8,0.1-1.1,0.3c-0.3,0.2-0.6,0.4-0.7,0.7
		c-0.2,0.3-0.3,0.6-0.4,0.9c-0.1,0.4-0.1,0.7-0.1,1.1c0,0.4,0,0.7,0.1,1.1c0.1,0.4,0.2,0.7,0.4,1c0.2,0.3,0.4,0.5,0.7,0.7
		c0.3,0.2,0.7,0.3,1.1,0.3c0.4,0,0.8-0.1,1.1-0.3c0.3-0.2,0.5-0.4,0.7-0.7c0.2-0.3,0.3-0.6,0.4-1S189.4,8.7,189.4,8.3z"/>
	<path class="st0" d="M195.4,8.4c0-0.7,0.1-1.4,0.4-2s0.6-1.1,1-1.5c0.4-0.4,1-0.8,1.6-1c0.6-0.2,1.3-0.4,2.1-0.4
		c0.8,0,1.5,0.1,2.1,0.4c0.6,0.2,1.2,0.6,1.6,1s0.8,0.9,1,1.5c0.2,0.6,0.4,1.3,0.4,2s-0.1,1.4-0.4,2c-0.2,0.6-0.6,1.1-1,1.5
		c-0.4,0.4-1,0.8-1.6,1c-0.6,0.2-1.3,0.4-2.1,0.4c-0.8,0-1.5-0.1-2.1-0.4c-0.6-0.2-1.2-0.6-1.6-1c-0.4-0.4-0.8-0.9-1-1.5
		C195.5,9.8,195.4,9.1,195.4,8.4z M198.1,8.4c0,0.4,0,0.7,0.1,1.1c0.1,0.4,0.2,0.7,0.4,1s0.4,0.5,0.7,0.7s0.7,0.3,1.1,0.3
		c0.5,0,0.8-0.1,1.2-0.3c0.3-0.2,0.6-0.4,0.7-0.7c0.2-0.3,0.3-0.6,0.4-1c0.1-0.4,0.1-0.7,0.1-1.1s0-0.7-0.1-1.1
		c-0.1-0.4-0.2-0.7-0.4-1c-0.2-0.3-0.4-0.5-0.7-0.7c-0.3-0.2-0.7-0.3-1.2-0.3c-0.5,0-0.8,0.1-1.1,0.3s-0.6,0.4-0.7,0.7
		s-0.3,0.6-0.4,1C198.1,7.6,198.1,8,198.1,8.4z"/>
	<path class="st0" d="M209,0.2h2.7v4.7h0c0.3-0.5,0.8-0.8,1.3-1.1c0.6-0.2,1.2-0.3,1.8-0.3c0.5,0,1,0.1,1.5,0.3
		c0.5,0.2,0.9,0.5,1.3,0.9c0.4,0.4,0.7,0.9,0.9,1.5c0.2,0.6,0.4,1.4,0.4,2.2s-0.1,1.6-0.4,2.2s-0.6,1.1-0.9,1.5
		c-0.4,0.4-0.8,0.7-1.3,0.9s-1,0.3-1.5,0.3c-0.7,0-1.4-0.1-1.9-0.3c-0.6-0.2-1-0.6-1.3-1.1h0V13H209V0.2z M216.3,8.4
		c0-0.4,0-0.8-0.1-1.1s-0.2-0.7-0.4-1c-0.2-0.3-0.4-0.5-0.7-0.7c-0.3-0.2-0.6-0.2-1-0.2c-0.4,0-0.8,0.1-1,0.2
		c-0.3,0.2-0.5,0.4-0.7,0.7c-0.2,0.3-0.3,0.6-0.4,1s-0.1,0.7-0.1,1.1c0,0.4,0,0.8,0.1,1.1s0.2,0.7,0.4,1c0.2,0.3,0.4,0.5,0.7,0.7
		c0.3,0.2,0.6,0.2,1,0.2c0.4,0,0.7-0.1,1-0.2c0.3-0.2,0.5-0.4,0.7-0.7s0.3-0.6,0.4-1S216.3,8.7,216.3,8.4z"/>
	<path class="st0" d="M222.4,0.2h2.7V13h-2.7V0.2z"/>
	<path class="st0" d="M231.1,9c0,0.8,0.3,1.4,0.7,1.8c0.4,0.4,1,0.6,1.8,0.6c0.5,0,1-0.1,1.4-0.4c0.4-0.3,0.6-0.5,0.7-0.8h2.4
		c-0.4,1.1-1,1.9-1.8,2.4s-1.7,0.7-2.9,0.7c-0.8,0-1.5-0.1-2.1-0.4c-0.6-0.2-1.2-0.6-1.6-1c-0.4-0.4-0.8-0.9-1-1.5
		c-0.2-0.6-0.4-1.3-0.4-2c0-0.7,0.1-1.3,0.4-1.9c0.2-0.6,0.6-1.1,1-1.6c0.4-0.4,1-0.8,1.6-1c0.6-0.3,1.3-0.4,2.1-0.4
		c0.8,0,1.6,0.2,2.2,0.5c0.6,0.3,1.1,0.7,1.5,1.2s0.7,1.1,0.9,1.8c0.2,0.7,0.2,1.3,0.2,2.1H231.1z M235.6,7.3
		c-0.1-0.6-0.4-1.1-0.7-1.5c-0.3-0.3-0.8-0.5-1.5-0.5c-0.4,0-0.8,0.1-1.1,0.2c-0.3,0.1-0.5,0.3-0.7,0.5c-0.2,0.2-0.3,0.4-0.4,0.6
		s-0.1,0.4-0.1,0.6H235.6z"/>
	<path class="st0" d="M248.6,3.7h2.6V5h0c0.4-0.5,0.8-0.8,1.3-1.1c0.5-0.3,1.1-0.4,1.7-0.4c0.6,0,1.2,0.1,1.7,0.4
		c0.5,0.2,0.9,0.6,1.2,1.2c0.3-0.4,0.7-0.8,1.2-1.1c0.5-0.3,1.1-0.5,1.8-0.5c0.5,0,1,0.1,1.5,0.2c0.4,0.1,0.8,0.3,1.1,0.6
		s0.6,0.6,0.7,1c0.2,0.4,0.3,0.9,0.3,1.5V13h-2.7V7.7c0-0.3,0-0.6,0-0.9c0-0.3-0.1-0.5-0.2-0.7c-0.1-0.2-0.3-0.4-0.5-0.5
		s-0.5-0.2-0.9-0.2c-0.4,0-0.7,0.1-0.9,0.2c-0.2,0.1-0.4,0.3-0.6,0.5c-0.1,0.2-0.2,0.5-0.3,0.8c0,0.3-0.1,0.6-0.1,0.9V13h-2.7V7.8
		c0-0.3,0-0.5,0-0.8s-0.1-0.5-0.2-0.8c-0.1-0.2-0.3-0.4-0.5-0.5c-0.2-0.1-0.6-0.2-1-0.2c-0.1,0-0.3,0-0.5,0.1
		c-0.2,0.1-0.4,0.2-0.6,0.3c-0.2,0.2-0.4,0.4-0.5,0.6c-0.1,0.3-0.2,0.7-0.2,1.1V13h-2.7V3.7z"/>
	<path class="st0" d="M269.7,9c0,0.8,0.3,1.4,0.7,1.8c0.4,0.4,1,0.6,1.8,0.6c0.5,0,1-0.1,1.4-0.4c0.4-0.3,0.6-0.5,0.7-0.8h2.4
		c-0.4,1.1-1,1.9-1.8,2.4s-1.7,0.7-2.9,0.7c-0.8,0-1.5-0.1-2.1-0.4c-0.6-0.2-1.2-0.6-1.6-1c-0.4-0.4-0.8-0.9-1-1.5
		c-0.2-0.6-0.4-1.3-0.4-2c0-0.7,0.1-1.3,0.4-1.9c0.2-0.6,0.6-1.1,1-1.6c0.4-0.4,1-0.8,1.6-1c0.6-0.3,1.3-0.4,2.1-0.4
		c0.8,0,1.6,0.2,2.2,0.5c0.6,0.3,1.1,0.7,1.5,1.2s0.7,1.1,0.9,1.8c0.2,0.7,0.2,1.3,0.2,2.1H269.7z M274.1,7.3
		c-0.1-0.6-0.4-1.1-0.7-1.5c-0.3-0.3-0.8-0.5-1.5-0.5c-0.4,0-0.8,0.1-1.1,0.2c-0.3,0.1-0.5,0.3-0.7,0.5c-0.2,0.2-0.3,0.4-0.4,0.6
		s-0.1,0.4-0.1,0.6H274.1z"/>
	<path class="st0" d="M286.8,7c-0.2-1.1-0.8-1.6-2-1.6c-0.4,0-0.8,0.1-1.1,0.3s-0.5,0.4-0.7,0.7s-0.3,0.6-0.4,1
		c-0.1,0.4-0.1,0.7-0.1,1s0,0.7,0.1,1c0.1,0.3,0.2,0.7,0.4,0.9s0.4,0.5,0.7,0.7s0.6,0.3,1.1,0.3c0.6,0,1.1-0.2,1.5-0.5
		s0.6-0.8,0.7-1.4h2.6c-0.2,1.2-0.7,2.2-1.5,2.8c-0.8,0.7-1.9,1-3.2,1c-0.8,0-1.4-0.1-2-0.4c-0.6-0.2-1.1-0.6-1.6-1
		c-0.4-0.4-0.8-0.9-1-1.5c-0.2-0.6-0.4-1.2-0.4-1.9c0-0.7,0.1-1.4,0.3-2s0.6-1.1,1-1.6c0.4-0.4,1-0.8,1.6-1.1
		c0.6-0.3,1.3-0.4,2.1-0.4c0.6,0,1.1,0.1,1.7,0.2c0.5,0.1,1,0.4,1.4,0.7s0.8,0.7,1,1.1c0.3,0.4,0.4,1,0.5,1.5H286.8z"/>
	<path class="st0" d="M292.5,6.6c0-0.6,0.2-1.1,0.5-1.5c0.3-0.4,0.6-0.7,1.1-1c0.4-0.2,0.9-0.4,1.5-0.5c0.5-0.1,1.1-0.2,1.6-0.2
		c0.5,0,1,0,1.5,0.1c0.5,0.1,1,0.2,1.4,0.4c0.4,0.2,0.8,0.5,1,0.8c0.3,0.3,0.4,0.8,0.4,1.3v4.8c0,0.4,0,0.8,0.1,1.2
		c0.1,0.4,0.1,0.7,0.3,0.9h-2.8c-0.1-0.1-0.1-0.3-0.1-0.4c0-0.1-0.1-0.3-0.1-0.5c-0.4,0.4-0.9,0.7-1.5,0.9s-1.2,0.3-1.8,0.3
		c-0.5,0-0.9-0.1-1.3-0.2c-0.4-0.1-0.8-0.3-1.1-0.5c-0.3-0.2-0.5-0.5-0.7-0.9c-0.2-0.3-0.3-0.8-0.3-1.2c0-0.5,0.1-1,0.3-1.3
		c0.2-0.3,0.4-0.6,0.8-0.8s0.7-0.4,1.1-0.5c0.4-0.1,0.8-0.2,1.2-0.2c0.4-0.1,0.8-0.1,1.2-0.1c0.4,0,0.7-0.1,1-0.2
		c0.3-0.1,0.5-0.2,0.7-0.3s0.3-0.3,0.3-0.6c0-0.3,0-0.5-0.1-0.7c-0.1-0.2-0.2-0.3-0.4-0.4s-0.3-0.1-0.6-0.2c-0.2,0-0.4,0-0.7,0
		c-0.5,0-0.9,0.1-1.3,0.3c-0.3,0.2-0.5,0.6-0.5,1.1H292.5z M298.8,8.4c-0.1,0.1-0.3,0.2-0.4,0.2s-0.4,0.1-0.6,0.1s-0.4,0.1-0.6,0.1
		c-0.2,0-0.4,0.1-0.6,0.1c-0.2,0-0.4,0.1-0.6,0.1s-0.4,0.1-0.5,0.2c-0.1,0.1-0.3,0.2-0.4,0.4c-0.1,0.2-0.1,0.4-0.1,0.6
		c0,0.2,0,0.4,0.1,0.6c0.1,0.1,0.2,0.3,0.4,0.4c0.2,0.1,0.3,0.2,0.5,0.2c0.2,0,0.4,0.1,0.6,0.1c0.5,0,0.9-0.1,1.2-0.3
		c0.3-0.2,0.5-0.4,0.6-0.6c0.1-0.2,0.2-0.5,0.3-0.7c0-0.2,0-0.4,0-0.6V8.4z"/>
	<path class="st0" d="M305.3,3.7h2.6V5h0.1c0.3-0.5,0.8-0.9,1.3-1.2s1.1-0.4,1.7-0.4c0.7,0,1.3,0.1,1.8,0.3c0.5,0.2,0.8,0.4,1.1,0.8
		s0.5,0.7,0.6,1.2c0.1,0.5,0.2,1,0.2,1.6V13h-2.7V7.7c0-0.8-0.1-1.3-0.4-1.7c-0.3-0.4-0.7-0.6-1.3-0.6c-0.7,0-1.3,0.2-1.6,0.6
		c-0.3,0.4-0.5,1.1-0.5,2V13h-2.7V3.7z"/>
	<path class="st0" d="M321,2.3h-2.7V0.2h2.7V2.3z M318.3,3.7h2.7V13h-2.7V3.7z"/>
	<path class="st0" d="M326.9,10c0,0.3,0.1,0.5,0.2,0.7s0.3,0.4,0.5,0.5c0.2,0.1,0.4,0.2,0.7,0.3c0.2,0.1,0.5,0.1,0.8,0.1
		c0.2,0,0.4,0,0.6-0.1c0.2,0,0.4-0.1,0.6-0.2s0.3-0.2,0.4-0.4c0.1-0.1,0.2-0.3,0.2-0.6c0-0.2-0.1-0.4-0.2-0.5
		c-0.1-0.1-0.3-0.3-0.6-0.4c-0.3-0.1-0.6-0.2-1-0.3c-0.4-0.1-0.8-0.2-1.3-0.3c-0.4-0.1-0.8-0.2-1.2-0.3s-0.7-0.3-1-0.4
		c-0.3-0.2-0.5-0.4-0.7-0.7s-0.3-0.6-0.3-1c0-0.6,0.1-1.1,0.4-1.5c0.2-0.4,0.6-0.7,1-0.9c0.4-0.2,0.9-0.4,1.4-0.5s1-0.1,1.6-0.1
		s1.1,0,1.6,0.1c0.5,0.1,1,0.3,1.3,0.5c0.4,0.2,0.7,0.5,1,0.9c0.3,0.4,0.4,0.9,0.5,1.4h-2.6c0-0.5-0.2-0.8-0.6-1
		c-0.4-0.2-0.8-0.3-1.3-0.3c-0.2,0-0.3,0-0.5,0c-0.2,0-0.3,0.1-0.5,0.1c-0.1,0.1-0.3,0.1-0.4,0.3s-0.2,0.3-0.2,0.5
		c0,0.2,0.1,0.4,0.3,0.6c0.2,0.1,0.4,0.3,0.7,0.3c0.3,0.1,0.6,0.2,1,0.2c0.4,0.1,0.7,0.2,1.1,0.2c0.4,0.1,0.8,0.2,1.2,0.3
		c0.4,0.1,0.7,0.3,1,0.5c0.3,0.2,0.5,0.4,0.7,0.7c0.2,0.3,0.3,0.7,0.3,1.1c0,0.6-0.1,1.1-0.4,1.5c-0.3,0.4-0.6,0.7-1,1
		c-0.4,0.3-0.9,0.4-1.4,0.5c-0.5,0.1-1.1,0.2-1.7,0.2c-0.6,0-1.1-0.1-1.7-0.2c-0.5-0.1-1-0.3-1.5-0.5c-0.4-0.3-0.8-0.6-1.1-1
		c-0.3-0.4-0.4-0.9-0.4-1.5H326.9z"/>
	<path class="st0" d="M336.8,3.7h2.6V5h0c0.4-0.5,0.8-0.8,1.3-1.1c0.5-0.3,1.1-0.4,1.7-0.4c0.6,0,1.2,0.1,1.7,0.4
		c0.5,0.2,0.9,0.6,1.2,1.2c0.3-0.4,0.7-0.8,1.2-1.1c0.5-0.3,1.1-0.5,1.8-0.5c0.5,0,1,0.1,1.5,0.2c0.4,0.1,0.8,0.3,1.1,0.6
		s0.6,0.6,0.7,1c0.2,0.4,0.3,0.9,0.3,1.5V13h-2.7V7.7c0-0.3,0-0.6,0-0.9c0-0.3-0.1-0.5-0.2-0.7c-0.1-0.2-0.3-0.4-0.5-0.5
		s-0.5-0.2-0.9-0.2c-0.4,0-0.7,0.1-0.9,0.2c-0.2,0.1-0.4,0.3-0.6,0.5c-0.1,0.2-0.2,0.5-0.3,0.8c0,0.3-0.1,0.6-0.1,0.9V13H343V7.8
		c0-0.3,0-0.5,0-0.8s-0.1-0.5-0.2-0.8c-0.1-0.2-0.3-0.4-0.5-0.5c-0.2-0.1-0.6-0.2-1-0.2c-0.1,0-0.3,0-0.5,0.1
		c-0.2,0.1-0.4,0.2-0.6,0.3c-0.2,0.2-0.4,0.4-0.5,0.6c-0.1,0.3-0.2,0.7-0.2,1.1V13h-2.7V3.7z"/>
	<path class="st0" d="M355.4,8.4c0-0.7,0.1-1.4,0.4-2s0.6-1.1,1-1.5c0.4-0.4,1-0.8,1.6-1c0.6-0.2,1.3-0.4,2.1-0.4
		c0.8,0,1.5,0.1,2.1,0.4c0.6,0.2,1.2,0.6,1.6,1s0.8,0.9,1,1.5c0.2,0.6,0.4,1.3,0.4,2s-0.1,1.4-0.4,2c-0.2,0.6-0.6,1.1-1,1.5
		c-0.4,0.4-1,0.8-1.6,1c-0.6,0.2-1.3,0.4-2.1,0.4c-0.8,0-1.5-0.1-2.1-0.4c-0.6-0.2-1.2-0.6-1.6-1c-0.4-0.4-0.8-0.9-1-1.5
		C355.5,9.8,355.4,9.1,355.4,8.4z M358.1,8.4c0,0.4,0,0.7,0.1,1.1c0.1,0.4,0.2,0.7,0.4,1s0.4,0.5,0.7,0.7s0.7,0.3,1.1,0.3
		c0.5,0,0.8-0.1,1.2-0.3c0.3-0.2,0.6-0.4,0.7-0.7c0.2-0.3,0.3-0.6,0.4-1c0.1-0.4,0.1-0.7,0.1-1.1s0-0.7-0.1-1.1
		c-0.1-0.4-0.2-0.7-0.4-1c-0.2-0.3-0.4-0.5-0.7-0.7c-0.3-0.2-0.7-0.3-1.2-0.3c-0.5,0-0.8,0.1-1.1,0.3s-0.6,0.4-0.7,0.7
		s-0.3,0.6-0.4,1C358.1,7.6,358.1,8,358.1,8.4z"/>
	<path class="st0" d="M383,11.8L383,11.8c-0.4,0.5-0.8,0.9-1.3,1.1c-0.5,0.2-1.1,0.3-1.7,0.3c-0.8,0-1.4-0.1-2-0.4s-1-0.6-1.4-1.1
		s-0.6-1-0.8-1.6s-0.3-1.2-0.3-1.9c0-0.6,0.1-1.2,0.3-1.8c0.2-0.6,0.5-1.1,0.8-1.5c0.4-0.4,0.8-0.8,1.4-1.1c0.5-0.3,1.2-0.4,1.9-0.4
		c0.6,0,1.1,0.1,1.7,0.4c0.5,0.2,0.9,0.6,1.3,1h0V0.2h2.7V13H383V11.8z M383,8.3c0-0.4,0-0.7-0.1-1.1s-0.2-0.7-0.4-0.9
		s-0.4-0.5-0.7-0.7c-0.3-0.2-0.7-0.3-1.1-0.3c-0.4,0-0.8,0.1-1.1,0.3c-0.3,0.2-0.6,0.4-0.7,0.7c-0.2,0.3-0.3,0.6-0.4,0.9
		c-0.1,0.4-0.1,0.7-0.1,1.1c0,0.4,0,0.7,0.1,1.1c0.1,0.4,0.2,0.7,0.4,1c0.2,0.3,0.4,0.5,0.7,0.7c0.3,0.2,0.7,0.3,1.1,0.3
		c0.4,0,0.8-0.1,1.1-0.3c0.3-0.2,0.5-0.4,0.7-0.7c0.2-0.3,0.3-0.6,0.4-1S383,8.7,383,8.3z"/>
	<path class="st0" d="M391.5,9c0,0.8,0.3,1.4,0.7,1.8c0.4,0.4,1,0.6,1.8,0.6c0.5,0,1-0.1,1.4-0.4c0.4-0.3,0.6-0.5,0.7-0.8h2.4
		c-0.4,1.1-1,1.9-1.8,2.4s-1.7,0.7-2.9,0.7c-0.8,0-1.5-0.1-2.1-0.4c-0.6-0.2-1.2-0.6-1.6-1c-0.4-0.4-0.8-0.9-1-1.5
		c-0.2-0.6-0.4-1.3-0.4-2c0-0.7,0.1-1.3,0.4-1.9c0.2-0.6,0.6-1.1,1-1.6c0.4-0.4,1-0.8,1.6-1c0.6-0.3,1.3-0.4,2.1-0.4
		c0.8,0,1.6,0.2,2.2,0.5c0.6,0.3,1.1,0.7,1.5,1.2s0.7,1.1,0.9,1.8c0.2,0.7,0.2,1.3,0.2,2.1H391.5z M395.9,7.3
		c-0.1-0.6-0.4-1.1-0.7-1.5c-0.3-0.3-0.8-0.5-1.5-0.5c-0.4,0-0.8,0.1-1.1,0.2c-0.3,0.1-0.5,0.3-0.7,0.5c-0.2,0.2-0.3,0.4-0.4,0.6
		s-0.1,0.4-0.1,0.6H395.9z"/>
	<path class="st0" d="M408.7,6.6c0-0.6,0.2-1.1,0.5-1.5c0.3-0.4,0.6-0.7,1.1-1c0.4-0.2,0.9-0.4,1.5-0.5c0.5-0.1,1.1-0.2,1.6-0.2
		c0.5,0,1,0,1.5,0.1c0.5,0.1,1,0.2,1.4,0.4c0.4,0.2,0.8,0.5,1,0.8c0.3,0.3,0.4,0.8,0.4,1.3v4.8c0,0.4,0,0.8,0.1,1.2
		c0.1,0.4,0.1,0.7,0.3,0.9h-2.8c-0.1-0.1-0.1-0.3-0.1-0.4c0-0.1-0.1-0.3-0.1-0.5c-0.4,0.4-0.9,0.7-1.5,0.9s-1.2,0.3-1.8,0.3
		c-0.5,0-0.9-0.1-1.3-0.2c-0.4-0.1-0.8-0.3-1.1-0.5c-0.3-0.2-0.5-0.5-0.7-0.9c-0.2-0.3-0.3-0.8-0.3-1.2c0-0.5,0.1-1,0.3-1.3
		c0.2-0.3,0.4-0.6,0.8-0.8s0.7-0.4,1.1-0.5c0.4-0.1,0.8-0.2,1.2-0.2c0.4-0.1,0.8-0.1,1.2-0.1c0.4,0,0.7-0.1,1-0.2
		c0.3-0.1,0.5-0.2,0.7-0.3s0.3-0.3,0.3-0.6c0-0.3,0-0.5-0.1-0.7c-0.1-0.2-0.2-0.3-0.4-0.4s-0.3-0.1-0.6-0.2c-0.2,0-0.4,0-0.7,0
		c-0.5,0-0.9,0.1-1.3,0.3c-0.3,0.2-0.5,0.6-0.5,1.1H408.7z M415,8.4c-0.1,0.1-0.3,0.2-0.4,0.2s-0.4,0.1-0.6,0.1s-0.4,0.1-0.6,0.1
		c-0.2,0-0.4,0.1-0.6,0.1c-0.2,0-0.4,0.1-0.6,0.1s-0.4,0.1-0.5,0.2c-0.1,0.1-0.3,0.2-0.4,0.4c-0.1,0.2-0.1,0.4-0.1,0.6
		c0,0.2,0,0.4,0.1,0.6c0.1,0.1,0.2,0.3,0.4,0.4c0.2,0.1,0.3,0.2,0.5,0.2c0.2,0,0.4,0.1,0.6,0.1c0.5,0,0.9-0.1,1.2-0.3
		c0.3-0.2,0.5-0.4,0.6-0.6c0.1-0.2,0.2-0.5,0.3-0.7c0-0.2,0-0.4,0-0.6V8.4z"/>
	<path class="st0" d="M428.2,7c-0.2-1.1-0.8-1.6-2-1.6c-0.4,0-0.8,0.1-1.1,0.3s-0.5,0.4-0.7,0.7S424,7,424,7.3
		c-0.1,0.4-0.1,0.7-0.1,1s0,0.7,0.1,1c0.1,0.3,0.2,0.7,0.4,0.9s0.4,0.5,0.7,0.7s0.6,0.3,1.1,0.3c0.6,0,1.1-0.2,1.5-0.5
		s0.6-0.8,0.7-1.4h2.6c-0.2,1.2-0.7,2.2-1.5,2.8c-0.8,0.7-1.9,1-3.2,1c-0.8,0-1.4-0.1-2-0.4c-0.6-0.2-1.1-0.6-1.6-1
		c-0.4-0.4-0.8-0.9-1-1.5c-0.2-0.6-0.4-1.2-0.4-1.9c0-0.7,0.1-1.4,0.3-2s0.6-1.1,1-1.6c0.4-0.4,1-0.8,1.6-1.1
		c0.6-0.3,1.3-0.4,2.1-0.4c0.6,0,1.1,0.1,1.7,0.2c0.5,0.1,1,0.4,1.4,0.7s0.8,0.7,1,1.1c0.3,0.4,0.4,1,0.5,1.5H428.2z"/>
	<path class="st0" d="M440.8,7c-0.2-1.1-0.8-1.6-2-1.6c-0.4,0-0.8,0.1-1.1,0.3s-0.5,0.4-0.7,0.7s-0.3,0.6-0.4,1
		c-0.1,0.4-0.1,0.7-0.1,1s0,0.7,0.1,1c0.1,0.3,0.2,0.7,0.4,0.9s0.4,0.5,0.7,0.7s0.6,0.3,1.1,0.3c0.6,0,1.1-0.2,1.5-0.5
		s0.6-0.8,0.7-1.4h2.6c-0.2,1.2-0.7,2.2-1.5,2.8c-0.8,0.7-1.9,1-3.2,1c-0.8,0-1.4-0.1-2-0.4c-0.6-0.2-1.1-0.6-1.6-1
		c-0.4-0.4-0.8-0.9-1-1.5c-0.2-0.6-0.4-1.2-0.4-1.9c0-0.7,0.1-1.4,0.3-2s0.6-1.1,1-1.6c0.4-0.4,1-0.8,1.6-1.1
		c0.6-0.3,1.3-0.4,2.1-0.4c0.6,0,1.1,0.1,1.7,0.2c0.5,0.1,1,0.4,1.4,0.7s0.8,0.7,1,1.1c0.3,0.4,0.4,1,0.5,1.5H440.8z"/>
	<path class="st0" d="M449.4,2.3h-2.7V0.2h2.7V2.3z M446.7,3.7h2.7V13h-2.7V3.7z"/>
	<path class="st0" d="M452.9,8.4c0-0.7,0.1-1.4,0.4-2s0.6-1.1,1-1.5c0.4-0.4,1-0.8,1.6-1c0.6-0.2,1.3-0.4,2.1-0.4
		c0.8,0,1.5,0.1,2.1,0.4c0.6,0.2,1.2,0.6,1.6,1s0.8,0.9,1,1.5c0.2,0.6,0.4,1.3,0.4,2s-0.1,1.4-0.4,2c-0.2,0.6-0.6,1.1-1,1.5
		c-0.4,0.4-1,0.8-1.6,1c-0.6,0.2-1.3,0.4-2.1,0.4c-0.8,0-1.5-0.1-2.1-0.4c-0.6-0.2-1.2-0.6-1.6-1c-0.4-0.4-0.8-0.9-1-1.5
		C453,9.8,452.9,9.1,452.9,8.4z M455.6,8.4c0,0.4,0,0.7,0.1,1.1c0.1,0.4,0.2,0.7,0.4,1s0.4,0.5,0.7,0.7s0.7,0.3,1.1,0.3
		c0.5,0,0.8-0.1,1.2-0.3c0.3-0.2,0.6-0.4,0.7-0.7c0.2-0.3,0.3-0.6,0.4-1c0.1-0.4,0.1-0.7,0.1-1.1s0-0.7-0.1-1.1
		c-0.1-0.4-0.2-0.7-0.4-1c-0.2-0.3-0.4-0.5-0.7-0.7c-0.3-0.2-0.7-0.3-1.2-0.3c-0.5,0-0.8,0.1-1.1,0.3s-0.6,0.4-0.7,0.7
		s-0.3,0.6-0.4,1C455.7,7.6,455.6,8,455.6,8.4z M458.5,2.6h-1.9l1.8-2.6h3L458.5,2.6z"/>
	<path class="st0" d="M466.6,3.7h2.6V5h0.1c0.3-0.5,0.8-0.9,1.3-1.2s1.1-0.4,1.7-0.4c0.7,0,1.3,0.1,1.8,0.3c0.5,0.2,0.8,0.4,1.1,0.8
		s0.5,0.7,0.6,1.2c0.1,0.5,0.2,1,0.2,1.6V13h-2.7V7.7c0-0.8-0.1-1.3-0.4-1.7c-0.3-0.4-0.7-0.6-1.3-0.6c-0.7,0-1.3,0.2-1.6,0.6
		c-0.3,0.4-0.5,1.1-0.5,2V13h-2.7V3.7z"/>
	<path class="st1" d="M487.8,0.2V2h-1.2V0.2H487.8z M487.8,3.7V13h-1.2V3.7H487.8z"/>
	<path class="st1" d="M492.3,3.7v1.6h0c0.2-0.6,0.6-1,1.2-1.4c0.6-0.3,1.2-0.5,1.9-0.5c0.7,0,1.3,0.1,1.7,0.3
		c0.5,0.2,0.8,0.4,1.1,0.7s0.5,0.7,0.6,1.1c0.1,0.4,0.2,0.9,0.2,1.5v6h-1.2V7.2c0-0.4,0-0.8-0.1-1.1c-0.1-0.3-0.2-0.6-0.4-0.9
		c-0.2-0.3-0.4-0.4-0.8-0.6c-0.3-0.1-0.7-0.2-1.2-0.2c-0.5,0-0.9,0.1-1.3,0.2s-0.7,0.4-1,0.7c-0.3,0.3-0.5,0.6-0.6,1
		c-0.1,0.4-0.2,0.8-0.2,1.3V13h-1.2V3.7H492.3z"/>
	<path class="st1" d="M509.9,13v-1.8h0c-0.1,0.3-0.3,0.6-0.6,0.8s-0.5,0.5-0.9,0.6s-0.7,0.3-1,0.4c-0.4,0.1-0.7,0.1-1.1,0.1
		c-0.8,0-1.4-0.1-2-0.4c-0.6-0.3-1-0.6-1.4-1.1c-0.4-0.4-0.6-1-0.8-1.6c-0.2-0.6-0.3-1.2-0.3-1.9s0.1-1.3,0.3-1.9
		c0.2-0.6,0.5-1.1,0.8-1.6c0.4-0.4,0.8-0.8,1.4-1.1c0.6-0.3,1.2-0.4,2-0.4c0.4,0,0.7,0,1.1,0.1c0.4,0.1,0.7,0.2,1,0.4
		c0.3,0.2,0.6,0.4,0.8,0.6c0.2,0.3,0.4,0.5,0.5,0.9h0V0.2h1.2V13H509.9z M503.3,9.8c0.1,0.5,0.3,0.9,0.6,1.3c0.3,0.4,0.6,0.7,1,0.9
		c0.4,0.2,0.9,0.3,1.5,0.3c0.6,0,1.2-0.1,1.6-0.3s0.8-0.5,1.1-0.9c0.3-0.4,0.5-0.8,0.6-1.3c0.1-0.5,0.2-0.9,0.2-1.4s-0.1-1-0.2-1.4
		c-0.1-0.5-0.3-0.9-0.6-1.3c-0.3-0.4-0.6-0.7-1.1-0.9c-0.4-0.2-1-0.3-1.6-0.3c-0.6,0-1.1,0.1-1.5,0.3c-0.4,0.2-0.7,0.5-1,0.9
		c-0.3,0.4-0.5,0.8-0.6,1.3s-0.2,0.9-0.2,1.4S503.1,9.3,503.3,9.8z"/>
	<path class="st1" d="M515.4,0.2V2h-1.2V0.2H515.4z M515.4,3.7V13h-1.2V3.7H515.4z"/>
	<path class="st1" d="M524.8,5c-0.4-0.4-1.1-0.6-1.9-0.6c-0.6,0-1.1,0.1-1.5,0.3c-0.4,0.2-0.8,0.5-1.1,0.9c-0.3,0.4-0.5,0.8-0.6,1.3
		s-0.2,1-0.2,1.4c0,0.5,0.1,1,0.2,1.4s0.4,0.9,0.6,1.3c0.3,0.4,0.6,0.7,1.1,0.9c0.4,0.2,0.9,0.3,1.5,0.3c0.4,0,0.7-0.1,1.1-0.2
		c0.3-0.1,0.6-0.3,0.9-0.5c0.3-0.2,0.5-0.5,0.6-0.8c0.2-0.3,0.3-0.7,0.3-1.1h1.2c-0.2,1.1-0.6,2-1.3,2.6c-0.7,0.6-1.6,0.9-2.8,0.9
		c-0.8,0-1.4-0.1-2-0.4c-0.6-0.3-1.1-0.6-1.5-1.1c-0.4-0.4-0.7-1-0.9-1.6c-0.2-0.6-0.3-1.2-0.3-1.9c0-0.7,0.1-1.3,0.3-1.9
		c0.2-0.6,0.5-1.1,0.9-1.6c0.4-0.4,0.9-0.8,1.5-1.1c0.6-0.3,1.2-0.4,2-0.4c1.1,0,2,0.3,2.7,0.8c0.7,0.5,1.2,1.3,1.3,2.4h-1.2
		C525.5,5.9,525.2,5.4,524.8,5z"/>
	<path class="st1" d="M529.8,5.2c0.2-0.4,0.5-0.7,0.8-1c0.4-0.3,0.8-0.4,1.2-0.6c0.5-0.1,1-0.2,1.6-0.2c0.4,0,0.9,0,1.3,0.1
		c0.4,0.1,0.8,0.2,1.2,0.4s0.6,0.5,0.8,0.9s0.3,0.9,0.3,1.5v4.9c0,0.5,0.2,0.7,0.7,0.7c0.1,0,0.3,0,0.4-0.1v1c-0.1,0-0.3,0-0.4,0.1
		c-0.1,0-0.2,0-0.4,0c-0.3,0-0.6,0-0.7-0.1s-0.3-0.2-0.4-0.3c-0.1-0.1-0.2-0.3-0.2-0.5c0-0.2,0-0.4,0-0.7h0
		c-0.2,0.3-0.4,0.6-0.7,0.8c-0.2,0.2-0.5,0.4-0.7,0.6c-0.3,0.2-0.6,0.3-0.9,0.4c-0.4,0.1-0.8,0.1-1.3,0.1c-0.5,0-0.9-0.1-1.3-0.2
		s-0.8-0.3-1.1-0.5c-0.3-0.2-0.5-0.5-0.7-0.8c-0.2-0.3-0.3-0.7-0.3-1.2c0-0.6,0.2-1.2,0.5-1.5s0.7-0.6,1.2-0.8
		c0.5-0.2,1.1-0.3,1.7-0.4c0.6-0.1,1.3-0.2,1.9-0.2c0.3,0,0.5-0.1,0.7-0.1s0.3-0.1,0.5-0.2c0.1-0.1,0.2-0.2,0.3-0.4
		c0.1-0.2,0.1-0.4,0.1-0.6c0-0.4-0.1-0.7-0.2-0.9c-0.1-0.2-0.3-0.4-0.6-0.6s-0.5-0.2-0.8-0.3c-0.3-0.1-0.6-0.1-1-0.1
		c-0.8,0-1.4,0.2-1.9,0.5s-0.7,0.9-0.8,1.6h-1.2C529.5,6,529.6,5.5,529.8,5.2z M535.9,7.9c-0.1,0.1-0.2,0.2-0.4,0.3
		c-0.2,0.1-0.4,0.1-0.6,0.1c-0.5,0.1-1,0.2-1.6,0.2c-0.5,0.1-1,0.2-1.5,0.3s-0.8,0.3-1.1,0.6c-0.3,0.2-0.4,0.6-0.4,1.1
		c0,0.3,0.1,0.5,0.2,0.8c0.1,0.2,0.3,0.4,0.5,0.6c0.2,0.2,0.4,0.3,0.7,0.4s0.5,0.1,0.8,0.1c0.5,0,0.9-0.1,1.3-0.2
		c0.4-0.1,0.8-0.3,1.1-0.6c0.3-0.3,0.6-0.6,0.7-0.9s0.3-0.8,0.3-1.2L535.9,7.9L535.9,7.9z"/>
	<path class="st1" d="M548,13v-1.8h0c-0.1,0.3-0.3,0.6-0.6,0.8s-0.5,0.5-0.9,0.6s-0.7,0.3-1,0.4c-0.4,0.1-0.7,0.1-1.1,0.1
		c-0.8,0-1.4-0.1-2-0.4c-0.6-0.3-1-0.6-1.4-1.1c-0.4-0.4-0.6-1-0.8-1.6C540.1,9.6,540,9,540,8.4s0.1-1.3,0.3-1.9
		c0.2-0.6,0.5-1.1,0.8-1.6c0.4-0.4,0.8-0.8,1.4-1.1c0.6-0.3,1.2-0.4,2-0.4c0.4,0,0.7,0,1.1,0.1c0.4,0.1,0.7,0.2,1,0.4
		c0.3,0.2,0.6,0.4,0.8,0.6c0.2,0.3,0.4,0.5,0.5,0.9h0V0.2h1.2V13H548z M541.4,9.8c0.1,0.5,0.3,0.9,0.6,1.3c0.3,0.4,0.6,0.7,1,0.9
		c0.4,0.2,0.9,0.3,1.5,0.3c0.6,0,1.2-0.1,1.6-0.3s0.8-0.5,1.1-0.9c0.3-0.4,0.5-0.8,0.6-1.3c0.1-0.5,0.2-0.9,0.2-1.4s-0.1-1-0.2-1.4
		c-0.1-0.5-0.3-0.9-0.6-1.3c-0.3-0.4-0.6-0.7-1.1-0.9c-0.4-0.2-1-0.3-1.6-0.3c-0.6,0-1.1,0.1-1.5,0.3c-0.4,0.2-0.7,0.5-1,0.9
		c-0.3,0.4-0.5,0.8-0.6,1.3s-0.2,0.9-0.2,1.4S541.3,9.3,541.4,9.8z"/>
	<path class="st1" d="M558.5,3.8c0.6,0.3,1.1,0.6,1.5,1.1c0.4,0.4,0.7,1,0.9,1.6c0.2,0.6,0.3,1.2,0.3,1.9c0,0.7-0.1,1.3-0.3,1.9
		c-0.2,0.6-0.5,1.1-0.9,1.6s-0.9,0.8-1.5,1.1c-0.6,0.3-1.2,0.4-2,0.4c-0.8,0-1.4-0.1-2-0.4c-0.6-0.3-1.1-0.6-1.5-1.1
		c-0.4-0.4-0.7-1-0.9-1.6c-0.2-0.6-0.3-1.2-0.3-1.9c0-0.7,0.1-1.3,0.3-1.9c0.2-0.6,0.5-1.1,0.9-1.6c0.4-0.4,0.9-0.8,1.5-1.1
		c0.6-0.3,1.2-0.4,2-0.4C557.3,3.4,558,3.6,558.5,3.8z M555,4.7c-0.4,0.2-0.8,0.5-1.1,0.9c-0.3,0.4-0.5,0.8-0.6,1.3s-0.2,1-0.2,1.4
		c0,0.5,0.1,1,0.2,1.4s0.4,0.9,0.6,1.3c0.3,0.4,0.6,0.7,1.1,0.9c0.4,0.2,0.9,0.3,1.5,0.3s1.1-0.1,1.5-0.3c0.4-0.2,0.8-0.5,1.1-0.9
		c0.3-0.4,0.5-0.8,0.6-1.3s0.2-1,0.2-1.4c0-0.5-0.1-1-0.2-1.4s-0.4-0.9-0.6-1.3c-0.3-0.4-0.6-0.7-1.1-0.9c-0.4-0.2-0.9-0.3-1.5-0.3
		S555.5,4.5,555,4.7z"/>
	<path class="st1" d="M571.3,3.7v1.8h0c0.3-0.6,0.7-1.1,1.4-1.5s1.3-0.5,2.1-0.5c0.8,0,1.4,0.1,2,0.4c0.6,0.3,1,0.6,1.4,1.1
		c0.4,0.4,0.6,1,0.8,1.6c0.2,0.6,0.3,1.2,0.3,1.9s-0.1,1.3-0.3,1.9c-0.2,0.6-0.5,1.1-0.8,1.6c-0.4,0.4-0.8,0.8-1.4,1.1
		c-0.6,0.3-1.2,0.4-2,0.4c-0.4,0-0.7,0-1.1-0.1c-0.4-0.1-0.7-0.2-1-0.4s-0.6-0.4-0.8-0.6c-0.2-0.3-0.4-0.5-0.5-0.9h0v5.2h-1.2V3.7
		H571.3z M577.9,6.9c-0.1-0.5-0.3-0.9-0.6-1.3c-0.3-0.4-0.6-0.7-1-0.9c-0.4-0.2-0.9-0.3-1.5-0.3c-0.7,0-1.2,0.1-1.7,0.3
		c-0.4,0.2-0.8,0.5-1.1,0.9s-0.5,0.8-0.6,1.3c-0.1,0.5-0.2,1-0.2,1.5c0,0.5,0.1,1,0.2,1.4c0.1,0.5,0.3,0.9,0.6,1.3
		c0.3,0.4,0.6,0.7,1.1,0.9s1,0.3,1.6,0.3c0.6,0,1.1-0.1,1.5-0.3c0.4-0.2,0.7-0.5,1-0.9c0.3-0.4,0.5-0.8,0.6-1.3
		c0.1-0.5,0.2-0.9,0.2-1.4S578.1,7.4,577.9,6.9z"/>
	<path class="st1" d="M582.4,5.2c0.2-0.4,0.5-0.7,0.8-1c0.4-0.3,0.8-0.4,1.2-0.6c0.5-0.1,1-0.2,1.6-0.2c0.4,0,0.9,0,1.3,0.1
		c0.4,0.1,0.8,0.2,1.2,0.4s0.6,0.5,0.8,0.9s0.3,0.9,0.3,1.5v4.9c0,0.5,0.2,0.7,0.7,0.7c0.1,0,0.3,0,0.4-0.1v1c-0.1,0-0.3,0-0.4,0.1
		c-0.1,0-0.2,0-0.4,0c-0.3,0-0.6,0-0.7-0.1s-0.3-0.2-0.4-0.3c-0.1-0.1-0.2-0.3-0.2-0.5c0-0.2,0-0.4,0-0.7h0
		c-0.2,0.3-0.4,0.6-0.7,0.8c-0.2,0.2-0.5,0.4-0.7,0.6c-0.3,0.2-0.6,0.3-0.9,0.4c-0.4,0.1-0.8,0.1-1.3,0.1c-0.5,0-0.9-0.1-1.3-0.2
		s-0.8-0.3-1.1-0.5c-0.3-0.2-0.5-0.5-0.7-0.8c-0.2-0.3-0.3-0.7-0.3-1.2c0-0.6,0.2-1.2,0.5-1.5s0.7-0.6,1.2-0.8
		c0.5-0.2,1.1-0.3,1.7-0.4c0.6-0.1,1.3-0.2,1.9-0.2c0.3,0,0.5-0.1,0.7-0.1s0.3-0.1,0.5-0.2c0.1-0.1,0.2-0.2,0.3-0.4
		c0.1-0.2,0.1-0.4,0.1-0.6c0-0.4-0.1-0.7-0.2-0.9c-0.1-0.2-0.3-0.4-0.6-0.6s-0.5-0.2-0.8-0.3c-0.3-0.1-0.6-0.1-1-0.1
		c-0.8,0-1.4,0.2-1.9,0.5s-0.7,0.9-0.8,1.6H582C582.1,6,582.2,5.5,582.4,5.2z M588.4,7.9c-0.1,0.1-0.2,0.2-0.4,0.3
		c-0.2,0.1-0.4,0.1-0.6,0.1c-0.5,0.1-1,0.2-1.6,0.2c-0.5,0.1-1,0.2-1.5,0.3s-0.8,0.3-1.1,0.6c-0.3,0.2-0.4,0.6-0.4,1.1
		c0,0.3,0.1,0.5,0.2,0.8c0.1,0.2,0.3,0.4,0.5,0.6c0.2,0.2,0.4,0.3,0.7,0.4s0.5,0.1,0.8,0.1c0.5,0,0.9-0.1,1.3-0.2
		c0.4-0.1,0.8-0.3,1.1-0.6c0.3-0.3,0.6-0.6,0.7-0.9s0.3-0.8,0.3-1.2L588.4,7.9L588.4,7.9z"/>
	<path class="st1" d="M594.1,3.7v2.2h0c0.3-0.8,0.8-1.3,1.4-1.7c0.6-0.4,1.4-0.6,2.3-0.6v1.1c-0.5,0-1,0-1.5,0.2
		c-0.4,0.2-0.8,0.4-1.2,0.7c-0.3,0.3-0.6,0.7-0.8,1.1c-0.2,0.4-0.3,0.9-0.3,1.4V13H593V3.7H594.1z"/>
	<path class="st1" d="M600.2,5.2c0.2-0.4,0.5-0.7,0.8-1c0.4-0.3,0.8-0.4,1.2-0.6c0.5-0.1,1-0.2,1.6-0.2c0.4,0,0.9,0,1.3,0.1
		c0.4,0.1,0.8,0.2,1.2,0.4s0.6,0.5,0.8,0.9s0.3,0.9,0.3,1.5v4.9c0,0.5,0.2,0.7,0.7,0.7c0.1,0,0.3,0,0.4-0.1v1c-0.1,0-0.3,0-0.4,0.1
		c-0.1,0-0.2,0-0.4,0c-0.3,0-0.6,0-0.7-0.1s-0.3-0.2-0.4-0.3c-0.1-0.1-0.2-0.3-0.2-0.5c0-0.2,0-0.4,0-0.7h0
		c-0.2,0.3-0.4,0.6-0.7,0.8c-0.2,0.2-0.5,0.4-0.7,0.6c-0.3,0.2-0.6,0.3-0.9,0.4c-0.4,0.1-0.8,0.1-1.3,0.1c-0.5,0-0.9-0.1-1.3-0.2
		s-0.8-0.3-1.1-0.5c-0.3-0.2-0.5-0.5-0.7-0.8c-0.2-0.3-0.3-0.7-0.3-1.2c0-0.6,0.2-1.2,0.5-1.5s0.7-0.6,1.2-0.8
		c0.5-0.2,1.1-0.3,1.7-0.4c0.6-0.1,1.3-0.2,1.9-0.2c0.3,0,0.5-0.1,0.7-0.1s0.3-0.1,0.5-0.2c0.1-0.1,0.2-0.2,0.3-0.4
		c0.1-0.2,0.1-0.4,0.1-0.6c0-0.4-0.1-0.7-0.2-0.9c-0.1-0.2-0.3-0.4-0.6-0.6s-0.5-0.2-0.8-0.3c-0.3-0.1-0.6-0.1-1-0.1
		c-0.8,0-1.4,0.2-1.9,0.5s-0.7,0.9-0.8,1.6h-1.2C599.9,6,600,5.5,600.2,5.2z M606.3,7.9c-0.1,0.1-0.2,0.2-0.4,0.3
		c-0.2,0.1-0.4,0.1-0.6,0.1c-0.5,0.1-1,0.2-1.6,0.2c-0.5,0.1-1,0.2-1.5,0.3s-0.8,0.3-1.1,0.6c-0.3,0.2-0.4,0.6-0.4,1.1
		c0,0.3,0.1,0.5,0.2,0.8c0.1,0.2,0.3,0.4,0.5,0.6c0.2,0.2,0.4,0.3,0.7,0.4s0.5,0.1,0.8,0.1c0.5,0,0.9-0.1,1.3-0.2
		c0.4-0.1,0.8-0.3,1.1-0.6c0.3-0.3,0.6-0.6,0.7-0.9s0.3-0.8,0.3-1.2L606.3,7.9L606.3,7.9z"/>
	<path class="st1" d="M618,9.9c0.1,0.4,0.3,0.8,0.6,1.2c0.3,0.3,0.6,0.6,1,0.9c0.4,0.2,0.9,0.3,1.5,0.3c0.9,0,1.6-0.2,2.1-0.6
		c0.5-0.4,0.8-1,1-1.7h1.2c-0.3,1.1-0.7,1.9-1.4,2.4c-0.7,0.6-1.6,0.9-2.9,0.9c-0.8,0-1.4-0.1-2-0.4c-0.6-0.3-1-0.6-1.4-1.1
		s-0.6-1-0.8-1.6c-0.2-0.6-0.3-1.2-0.3-1.9c0-0.6,0.1-1.2,0.3-1.8c0.2-0.6,0.4-1.1,0.8-1.6s0.8-0.8,1.4-1.1c0.6-0.3,1.2-0.4,2-0.4
		c0.8,0,1.5,0.1,2,0.4c0.6,0.3,1,0.7,1.4,1.2c0.4,0.5,0.6,1,0.8,1.7c0.2,0.6,0.2,1.3,0.2,1.9h-7.6C617.8,9.1,617.9,9.5,618,9.9z
		 M624,6.5c-0.1-0.4-0.4-0.7-0.6-1.1s-0.6-0.6-1-0.7c-0.4-0.2-0.8-0.3-1.3-0.3c-0.5,0-0.9,0.1-1.3,0.3s-0.7,0.4-1,0.7
		s-0.5,0.7-0.6,1.1c-0.2,0.4-0.3,0.8-0.3,1.2h6.4C624.2,7.3,624.1,6.9,624,6.5z"/>
	<path class="st1" d="M629.2,0.2V13H628V0.2H629.2z"/>
	<path class="st0" d="M638.7,3.7h2.6V5h0c0.4-0.5,0.8-0.8,1.3-1.1c0.5-0.3,1.1-0.4,1.7-0.4c0.6,0,1.2,0.1,1.7,0.4
		c0.5,0.2,0.9,0.6,1.2,1.2c0.3-0.4,0.7-0.8,1.2-1.1c0.5-0.3,1.1-0.5,1.8-0.5c0.5,0,1,0.1,1.5,0.2c0.4,0.1,0.8,0.3,1.1,0.6
		s0.6,0.6,0.7,1c0.2,0.4,0.3,0.9,0.3,1.5V13h-2.7V7.7c0-0.3,0-0.6,0-0.9c0-0.3-0.1-0.5-0.2-0.7c-0.1-0.2-0.3-0.4-0.5-0.5
		s-0.5-0.2-0.9-0.2c-0.4,0-0.7,0.1-0.9,0.2c-0.2,0.1-0.4,0.3-0.6,0.5c-0.1,0.2-0.2,0.5-0.3,0.8c0,0.3-0.1,0.6-0.1,0.9V13h-2.7V7.8
		c0-0.3,0-0.5,0-0.8s-0.1-0.5-0.2-0.8c-0.1-0.2-0.3-0.4-0.5-0.5c-0.2-0.1-0.6-0.2-1-0.2c-0.1,0-0.3,0-0.5,0.1
		c-0.2,0.1-0.4,0.2-0.6,0.3c-0.2,0.2-0.4,0.4-0.5,0.6c-0.1,0.3-0.2,0.7-0.2,1.1V13h-2.7V3.7z"/>
	<path class="st0" d="M657.5,6.6c0-0.6,0.2-1.1,0.5-1.5c0.3-0.4,0.6-0.7,1.1-1c0.4-0.2,0.9-0.4,1.5-0.5c0.5-0.1,1.1-0.2,1.6-0.2
		c0.5,0,1,0,1.5,0.1c0.5,0.1,1,0.2,1.4,0.4c0.4,0.2,0.8,0.5,1,0.8c0.3,0.3,0.4,0.8,0.4,1.3v4.8c0,0.4,0,0.8,0.1,1.2
		c0.1,0.4,0.1,0.7,0.3,0.9h-2.8c-0.1-0.1-0.1-0.3-0.1-0.4c0-0.1-0.1-0.3-0.1-0.5c-0.4,0.4-0.9,0.7-1.5,0.9s-1.2,0.3-1.8,0.3
		c-0.5,0-0.9-0.1-1.3-0.2c-0.4-0.1-0.8-0.3-1.1-0.5c-0.3-0.2-0.5-0.5-0.7-0.9c-0.2-0.3-0.3-0.8-0.3-1.2c0-0.5,0.1-1,0.3-1.3
		c0.2-0.3,0.4-0.6,0.8-0.8s0.7-0.4,1.1-0.5c0.4-0.1,0.8-0.2,1.2-0.2c0.4-0.1,0.8-0.1,1.2-0.1c0.4,0,0.7-0.1,1-0.2
		c0.3-0.1,0.5-0.2,0.7-0.3s0.3-0.3,0.3-0.6c0-0.3,0-0.5-0.1-0.7c-0.1-0.2-0.2-0.3-0.4-0.4s-0.3-0.1-0.6-0.2c-0.2,0-0.4,0-0.7,0
		c-0.5,0-0.9,0.1-1.3,0.3c-0.3,0.2-0.5,0.6-0.5,1.1H657.5z M663.8,8.4c-0.1,0.1-0.3,0.2-0.4,0.2s-0.4,0.1-0.6,0.1s-0.4,0.1-0.6,0.1
		c-0.2,0-0.4,0.1-0.6,0.1c-0.2,0-0.4,0.1-0.6,0.1s-0.4,0.1-0.5,0.2c-0.1,0.1-0.3,0.2-0.4,0.4c-0.1,0.2-0.1,0.4-0.1,0.6
		c0,0.2,0,0.4,0.1,0.6c0.1,0.1,0.2,0.3,0.4,0.4c0.2,0.1,0.3,0.2,0.5,0.2c0.2,0,0.4,0.1,0.6,0.1c0.5,0,0.9-0.1,1.2-0.3
		c0.3-0.2,0.5-0.4,0.6-0.6c0.1-0.2,0.2-0.5,0.3-0.7c0-0.2,0-0.4,0-0.6V8.4z"/>
	<path class="st0" d="M670.2,3.7h2.6V5h0.1c0.3-0.5,0.8-0.9,1.3-1.2s1.1-0.4,1.7-0.4c0.7,0,1.3,0.1,1.8,0.3c0.5,0.2,0.8,0.4,1.1,0.8
		s0.5,0.7,0.6,1.2c0.1,0.5,0.2,1,0.2,1.6V13h-2.7V7.7c0-0.8-0.1-1.3-0.4-1.7c-0.3-0.4-0.7-0.6-1.3-0.6c-0.7,0-1.3,0.2-1.6,0.6
		c-0.3,0.4-0.5,1.1-0.5,2V13h-2.7V3.7z"/>
	<path class="st0" d="M685.4,9c0,0.8,0.3,1.4,0.7,1.8c0.4,0.4,1,0.6,1.8,0.6c0.5,0,1-0.1,1.4-0.4c0.4-0.3,0.6-0.5,0.7-0.8h2.4
		c-0.4,1.1-1,1.9-1.8,2.4s-1.7,0.7-2.9,0.7c-0.8,0-1.5-0.1-2.1-0.4c-0.6-0.2-1.2-0.6-1.6-1c-0.4-0.4-0.8-0.9-1-1.5
		c-0.2-0.6-0.4-1.3-0.4-2c0-0.7,0.1-1.3,0.4-1.9c0.2-0.6,0.6-1.1,1-1.6c0.4-0.4,1-0.8,1.6-1c0.6-0.3,1.3-0.4,2.1-0.4
		c0.8,0,1.6,0.2,2.2,0.5c0.6,0.3,1.1,0.7,1.5,1.2s0.7,1.1,0.9,1.8c0.2,0.7,0.2,1.3,0.2,2.1H685.4z M689.8,7.3
		c-0.1-0.6-0.4-1.1-0.7-1.5c-0.3-0.3-0.8-0.5-1.5-0.5c-0.4,0-0.8,0.1-1.1,0.2c-0.3,0.1-0.5,0.3-0.7,0.5c-0.2,0.2-0.3,0.4-0.4,0.6
		s-0.1,0.4-0.1,0.6H689.8z"/>
	<path class="st0" d="M694.4,14.1c0.2,0,0.4,0.1,0.6,0.1c0.3,0,0.5-0.1,0.7-0.2s0.3-0.3,0.3-0.7V3.7h2.7v9.8c0,0.5-0.1,0.9-0.2,1.2
		c-0.1,0.3-0.3,0.6-0.6,0.9c-0.3,0.2-0.6,0.4-1.1,0.5c-0.4,0.1-1,0.2-1.7,0.2c-0.1,0-0.3,0-0.4,0c-0.2,0-0.3,0-0.4-0.1V14.1z
		 M698.8,2.3h-2.7V0.2h2.7V2.3z"/>
	<path class="st0" d="M702.5,8.4c0-0.7,0.1-1.4,0.4-2s0.6-1.1,1-1.5c0.4-0.4,1-0.8,1.6-1c0.6-0.2,1.3-0.4,2.1-0.4
		c0.8,0,1.5,0.1,2.1,0.4c0.6,0.2,1.2,0.6,1.6,1s0.8,0.9,1,1.5c0.2,0.6,0.4,1.3,0.4,2s-0.1,1.4-0.4,2c-0.2,0.6-0.6,1.1-1,1.5
		c-0.4,0.4-1,0.8-1.6,1c-0.6,0.2-1.3,0.4-2.1,0.4c-0.8,0-1.5-0.1-2.1-0.4c-0.6-0.2-1.2-0.6-1.6-1c-0.4-0.4-0.8-0.9-1-1.5
		C702.6,9.8,702.5,9.1,702.5,8.4z M705.2,8.4c0,0.4,0,0.7,0.1,1.1c0.1,0.4,0.2,0.7,0.4,1s0.4,0.5,0.7,0.7s0.7,0.3,1.1,0.3
		c0.5,0,0.8-0.1,1.2-0.3c0.3-0.2,0.6-0.4,0.7-0.7c0.2-0.3,0.3-0.6,0.4-1c0.1-0.4,0.1-0.7,0.1-1.1s0-0.7-0.1-1.1
		c-0.1-0.4-0.2-0.7-0.4-1c-0.2-0.3-0.4-0.5-0.7-0.7c-0.3-0.2-0.7-0.3-1.2-0.3c-0.5,0-0.8,0.1-1.1,0.3s-0.6,0.4-0.7,0.7
		s-0.3,0.6-0.4,1C705.2,7.6,705.2,8,705.2,8.4z"/>
	<path class="st0" d="M7.8,33.4L7.8,33.4c-0.4,0.5-0.8,0.9-1.3,1.1s-1.1,0.3-1.7,0.3c-0.8,0-1.4-0.1-2-0.4s-1-0.6-1.4-1.1
		s-0.6-1-0.8-1.6c-0.2-0.6-0.3-1.2-0.3-1.9c0-0.6,0.1-1.2,0.3-1.8s0.5-1.1,0.8-1.5c0.4-0.4,0.8-0.8,1.4-1.1S4,25,4.7,25
		c0.6,0,1.1,0.1,1.7,0.4c0.5,0.2,0.9,0.6,1.3,1h0v-4.7h2.7v12.8H7.8V33.4z M7.8,29.9c0-0.4,0-0.7-0.1-1.1s-0.2-0.7-0.4-0.9
		c-0.2-0.3-0.4-0.5-0.7-0.7c-0.3-0.2-0.7-0.3-1.1-0.3c-0.4,0-0.8,0.1-1.1,0.3s-0.6,0.4-0.7,0.7c-0.2,0.3-0.3,0.6-0.4,0.9
		c-0.1,0.4-0.1,0.7-0.1,1.1c0,0.4,0,0.7,0.1,1.1c0.1,0.4,0.2,0.7,0.4,1c0.2,0.3,0.4,0.5,0.7,0.7c0.3,0.2,0.7,0.3,1.1,0.3
		c0.4,0,0.8-0.1,1.1-0.3c0.3-0.2,0.5-0.4,0.7-0.7c0.2-0.3,0.3-0.6,0.4-1C7.8,30.6,7.8,30.3,7.8,29.9z"/>
	<path class="st0" d="M16.3,30.5c0,0.8,0.3,1.4,0.7,1.8c0.4,0.4,1,0.6,1.8,0.6c0.5,0,1-0.1,1.4-0.4c0.4-0.3,0.6-0.5,0.7-0.8h2.4
		c-0.4,1.1-1,1.9-1.8,2.4c-0.8,0.5-1.7,0.7-2.9,0.7c-0.8,0-1.5-0.1-2.1-0.4c-0.6-0.2-1.2-0.6-1.6-1c-0.4-0.4-0.8-0.9-1-1.5
		c-0.2-0.6-0.4-1.3-0.4-2c0-0.7,0.1-1.3,0.4-1.9s0.6-1.1,1-1.6c0.4-0.4,1-0.8,1.6-1c0.6-0.3,1.3-0.4,2.1-0.4c0.8,0,1.6,0.2,2.2,0.5
		c0.6,0.3,1.1,0.7,1.5,1.2c0.4,0.5,0.7,1.1,0.9,1.8c0.2,0.7,0.2,1.3,0.2,2.1H16.3z M20.8,28.9c-0.1-0.6-0.4-1.1-0.7-1.5
		c-0.3-0.3-0.8-0.5-1.5-0.5c-0.4,0-0.8,0.1-1.1,0.2c-0.3,0.1-0.5,0.3-0.7,0.5c-0.2,0.2-0.3,0.4-0.4,0.6c-0.1,0.2-0.1,0.4-0.1,0.6
		H20.8z"/>
	<path class="st0" d="M33.7,21.7h2.7v12.8h-2.7V21.7z"/>
	<path class="st0" d="M39.9,29.9c0-0.7,0.1-1.4,0.4-2c0.2-0.6,0.6-1.1,1-1.5c0.4-0.4,1-0.8,1.6-1S44.3,25,45,25
		c0.8,0,1.5,0.1,2.1,0.4s1.2,0.6,1.6,1c0.4,0.4,0.8,0.9,1,1.5c0.2,0.6,0.4,1.3,0.4,2s-0.1,1.4-0.4,2c-0.2,0.6-0.6,1.1-1,1.5
		c-0.4,0.4-1,0.8-1.6,1c-0.6,0.2-1.3,0.3-2.1,0.3c-0.8,0-1.5-0.1-2.1-0.3c-0.6-0.2-1.2-0.6-1.6-1c-0.4-0.4-0.8-0.9-1-1.5
		C40.1,31.3,39.9,30.6,39.9,29.9z M42.6,29.9c0,0.4,0,0.7,0.1,1.1c0.1,0.4,0.2,0.7,0.4,1c0.2,0.3,0.4,0.5,0.7,0.7
		c0.3,0.2,0.7,0.3,1.1,0.3c0.5,0,0.8-0.1,1.2-0.3c0.3-0.2,0.6-0.4,0.7-0.7c0.2-0.3,0.3-0.6,0.4-1c0.1-0.4,0.1-0.7,0.1-1.1
		s0-0.7-0.1-1.1c-0.1-0.4-0.2-0.7-0.4-1c-0.2-0.3-0.4-0.5-0.7-0.7c-0.3-0.2-0.7-0.3-1.2-0.3c-0.5,0-0.8,0.1-1.1,0.3
		c-0.3,0.2-0.6,0.4-0.7,0.7s-0.3,0.6-0.4,1C42.7,29.2,42.6,29.5,42.6,29.9z"/>
	<path class="st0" d="M55.7,31.5c0,0.3,0.1,0.5,0.2,0.7c0.1,0.2,0.3,0.4,0.5,0.5c0.2,0.1,0.4,0.2,0.7,0.3c0.2,0.1,0.5,0.1,0.8,0.1
		c0.2,0,0.4,0,0.6-0.1s0.4-0.1,0.6-0.2s0.3-0.2,0.4-0.4c0.1-0.1,0.2-0.3,0.2-0.6c0-0.2-0.1-0.4-0.2-0.5c-0.1-0.1-0.3-0.3-0.6-0.4
		c-0.3-0.1-0.6-0.2-1-0.3c-0.4-0.1-0.8-0.2-1.3-0.3c-0.4-0.1-0.8-0.2-1.2-0.3c-0.4-0.1-0.7-0.3-1-0.4c-0.3-0.2-0.5-0.4-0.7-0.7
		c-0.2-0.3-0.3-0.6-0.3-1c0-0.6,0.1-1.1,0.4-1.5c0.2-0.4,0.6-0.7,1-0.9c0.4-0.2,0.9-0.4,1.4-0.5s1-0.1,1.6-0.1s1.1,0,1.6,0.1
		c0.5,0.1,1,0.3,1.3,0.5c0.4,0.2,0.7,0.5,1,0.9c0.3,0.4,0.4,0.9,0.5,1.4h-2.6c0-0.5-0.2-0.8-0.6-1c-0.4-0.2-0.8-0.3-1.3-0.3
		c-0.2,0-0.3,0-0.5,0c-0.2,0-0.3,0.1-0.5,0.1s-0.3,0.1-0.4,0.3c-0.1,0.1-0.2,0.3-0.2,0.5c0,0.2,0.1,0.4,0.3,0.6
		c0.2,0.1,0.4,0.3,0.7,0.4c0.3,0.1,0.6,0.2,1,0.2c0.4,0.1,0.7,0.1,1.1,0.2c0.4,0.1,0.8,0.2,1.2,0.3c0.4,0.1,0.7,0.3,1,0.5
		c0.3,0.2,0.5,0.4,0.7,0.7c0.2,0.3,0.3,0.7,0.3,1.1c0,0.6-0.1,1.1-0.4,1.5c-0.3,0.4-0.6,0.7-1,1c-0.4,0.3-0.9,0.4-1.4,0.5
		c-0.5,0.1-1.1,0.2-1.7,0.2c-0.6,0-1.1-0.1-1.7-0.2s-1-0.3-1.5-0.5s-0.8-0.6-1.1-1c-0.3-0.4-0.4-0.9-0.4-1.5H55.7z"/>
	<path class="st0" d="M74.5,31.5c0,0.3,0.1,0.5,0.2,0.7c0.1,0.2,0.3,0.4,0.5,0.5c0.2,0.1,0.4,0.2,0.7,0.3c0.2,0.1,0.5,0.1,0.8,0.1
		c0.2,0,0.4,0,0.6-0.1s0.4-0.1,0.6-0.2s0.3-0.2,0.4-0.4c0.1-0.1,0.2-0.3,0.2-0.6c0-0.2-0.1-0.4-0.2-0.5c-0.1-0.1-0.3-0.3-0.6-0.4
		c-0.3-0.1-0.6-0.2-1-0.3c-0.4-0.1-0.8-0.2-1.3-0.3c-0.4-0.1-0.8-0.2-1.2-0.3c-0.4-0.1-0.7-0.3-1-0.4c-0.3-0.2-0.5-0.4-0.7-0.7
		c-0.2-0.3-0.3-0.6-0.3-1c0-0.6,0.1-1.1,0.4-1.5c0.2-0.4,0.6-0.7,1-0.9c0.4-0.2,0.9-0.4,1.4-0.5s1-0.1,1.6-0.1s1.1,0,1.6,0.1
		c0.5,0.1,1,0.3,1.3,0.5c0.4,0.2,0.7,0.5,1,0.9c0.3,0.4,0.4,0.9,0.5,1.4h-2.6c0-0.5-0.2-0.8-0.6-1c-0.4-0.2-0.8-0.3-1.3-0.3
		c-0.2,0-0.3,0-0.5,0c-0.2,0-0.3,0.1-0.5,0.1S75.1,27,75,27.1c-0.1,0.1-0.2,0.3-0.2,0.5c0,0.2,0.1,0.4,0.3,0.6
		c0.2,0.1,0.4,0.3,0.7,0.4c0.3,0.1,0.6,0.2,1,0.2c0.4,0.1,0.7,0.1,1.1,0.2c0.4,0.1,0.8,0.2,1.2,0.3c0.4,0.1,0.7,0.3,1,0.5
		c0.3,0.2,0.5,0.4,0.7,0.7c0.2,0.3,0.3,0.7,0.3,1.1c0,0.6-0.1,1.1-0.4,1.5c-0.3,0.4-0.6,0.7-1,1c-0.4,0.3-0.9,0.4-1.4,0.5
		c-0.5,0.1-1.1,0.2-1.7,0.2c-0.6,0-1.1-0.1-1.7-0.2s-1-0.3-1.5-0.5s-0.8-0.6-1.1-1c-0.3-0.4-0.4-0.9-0.4-1.5H74.5z"/>
	<path class="st0" d="M86.2,24.1h-1.9l1.8-2.6h3L86.2,24.1z M84.4,25.3h2.7v9.3h-2.7V25.3z"/>
	<path class="st0" d="M90.9,25.3h2.6v1.3h0.1c0.3-0.5,0.8-0.9,1.3-1.2c0.5-0.3,1.1-0.4,1.7-0.4c0.7,0,1.3,0.1,1.8,0.3
		c0.5,0.2,0.8,0.4,1.1,0.8c0.3,0.3,0.5,0.7,0.6,1.2c0.1,0.5,0.2,1,0.2,1.6v5.7h-2.7v-5.2c0-0.8-0.1-1.3-0.4-1.7
		c-0.3-0.4-0.7-0.6-1.3-0.6c-0.7,0-1.3,0.2-1.6,0.6c-0.3,0.4-0.5,1.1-0.5,2v4.9h-2.7V25.3z"/>
	<path class="st0" d="M107.3,25.3h2V27h-2v4.6c0,0.4,0.1,0.7,0.2,0.9c0.2,0.1,0.5,0.2,0.9,0.2c0.3,0,0.6,0,0.8-0.1v2
		c-0.2,0-0.5,0.1-0.8,0.1c-0.3,0-0.6,0-0.8,0c-0.4,0-0.8,0-1.2-0.1c-0.4-0.1-0.7-0.2-1-0.3c-0.3-0.2-0.5-0.4-0.7-0.7
		c-0.2-0.3-0.2-0.7-0.2-1.1V27H103v-1.7h1.6v-2.8h2.7V25.3z"/>
	<path class="st0" d="M111.9,29.9c0-0.7,0.1-1.4,0.4-2c0.2-0.6,0.6-1.1,1-1.5c0.4-0.4,1-0.8,1.6-1s1.3-0.4,2.1-0.4
		c0.8,0,1.5,0.1,2.1,0.4s1.2,0.6,1.6,1c0.4,0.4,0.8,0.9,1,1.5c0.2,0.6,0.4,1.3,0.4,2s-0.1,1.4-0.4,2c-0.2,0.6-0.6,1.1-1,1.5
		c-0.4,0.4-1,0.8-1.6,1c-0.6,0.2-1.3,0.3-2.1,0.3c-0.8,0-1.5-0.1-2.1-0.3c-0.6-0.2-1.2-0.6-1.6-1c-0.4-0.4-0.8-0.9-1-1.5
		C112.1,31.3,111.9,30.6,111.9,29.9z M114.6,29.9c0,0.4,0,0.7,0.1,1.1c0.1,0.4,0.2,0.7,0.4,1c0.2,0.3,0.4,0.5,0.7,0.7
		c0.3,0.2,0.7,0.3,1.1,0.3c0.5,0,0.8-0.1,1.2-0.3c0.3-0.2,0.6-0.4,0.7-0.7c0.2-0.3,0.3-0.6,0.4-1c0.1-0.4,0.1-0.7,0.1-1.1
		s0-0.7-0.1-1.1c-0.1-0.4-0.2-0.7-0.4-1c-0.2-0.3-0.4-0.5-0.7-0.7c-0.3-0.2-0.7-0.3-1.2-0.3c-0.5,0-0.8,0.1-1.1,0.3
		c-0.3,0.2-0.6,0.4-0.7,0.7s-0.3,0.6-0.4,1C114.7,29.2,114.6,29.5,114.6,29.9z"/>
	<path class="st0" d="M125.6,25.3h2.6v1.3h0c0.4-0.5,0.8-0.9,1.3-1.1c0.5-0.3,1.1-0.4,1.7-0.4c0.6,0,1.2,0.1,1.7,0.4
		c0.5,0.2,0.9,0.6,1.2,1.2c0.3-0.4,0.7-0.8,1.2-1.1c0.5-0.3,1.1-0.5,1.8-0.5c0.5,0,1,0.1,1.5,0.2c0.4,0.1,0.8,0.3,1.1,0.6
		c0.3,0.3,0.6,0.6,0.7,1c0.2,0.4,0.3,0.9,0.3,1.5v6.2H138v-5.3c0-0.3,0-0.6,0-0.9c0-0.3-0.1-0.5-0.2-0.7c-0.1-0.2-0.3-0.4-0.5-0.5
		c-0.2-0.1-0.5-0.2-0.9-0.2c-0.4,0-0.7,0.1-0.9,0.2c-0.2,0.1-0.4,0.3-0.6,0.5c-0.1,0.2-0.2,0.5-0.3,0.8s-0.1,0.6-0.1,0.9v5.2h-2.7
		v-5.2c0-0.3,0-0.5,0-0.8s-0.1-0.5-0.2-0.8c-0.1-0.2-0.3-0.4-0.5-0.5s-0.6-0.2-1-0.2c-0.1,0-0.3,0-0.5,0.1c-0.2,0.1-0.4,0.2-0.6,0.3
		s-0.4,0.4-0.5,0.6c-0.1,0.3-0.2,0.7-0.2,1.1v5.4h-2.7V25.3z"/>
	<path class="st0" d="M144.4,28.1c0-0.6,0.2-1.1,0.5-1.5c0.3-0.4,0.6-0.7,1.1-1c0.4-0.2,0.9-0.4,1.5-0.5c0.5-0.1,1.1-0.2,1.6-0.2
		c0.5,0,1,0,1.5,0.1c0.5,0.1,1,0.2,1.4,0.4c0.4,0.2,0.8,0.5,1,0.8c0.3,0.3,0.4,0.8,0.4,1.3v4.8c0,0.4,0,0.8,0.1,1.2
		c0.1,0.4,0.1,0.7,0.3,0.9H151c-0.1-0.1-0.1-0.3-0.1-0.4c0-0.1-0.1-0.3-0.1-0.5c-0.4,0.4-0.9,0.7-1.5,0.9s-1.2,0.3-1.8,0.3
		c-0.5,0-0.9-0.1-1.3-0.2c-0.4-0.1-0.8-0.3-1.1-0.5c-0.3-0.2-0.5-0.5-0.7-0.9c-0.2-0.3-0.3-0.8-0.3-1.2c0-0.5,0.1-1,0.3-1.3
		c0.2-0.3,0.4-0.6,0.8-0.8c0.3-0.2,0.7-0.4,1.1-0.5s0.8-0.2,1.2-0.2c0.4-0.1,0.8-0.1,1.2-0.1c0.4,0,0.7-0.1,1-0.2
		c0.3-0.1,0.5-0.2,0.7-0.3c0.2-0.1,0.3-0.3,0.3-0.6c0-0.3,0-0.5-0.1-0.7s-0.2-0.3-0.4-0.4s-0.3-0.2-0.6-0.2c-0.2,0-0.4,0-0.7,0
		c-0.5,0-0.9,0.1-1.3,0.3s-0.5,0.6-0.5,1.1H144.4z M150.7,30c-0.1,0.1-0.3,0.2-0.4,0.2c-0.2,0.1-0.4,0.1-0.6,0.1
		c-0.2,0-0.4,0.1-0.6,0.1c-0.2,0-0.4,0.1-0.6,0.1c-0.2,0-0.4,0.1-0.6,0.1c-0.2,0.1-0.4,0.1-0.5,0.2c-0.1,0.1-0.3,0.2-0.4,0.4
		c-0.1,0.2-0.1,0.4-0.1,0.6c0,0.2,0,0.4,0.1,0.6c0.1,0.1,0.2,0.3,0.4,0.4c0.2,0.1,0.3,0.2,0.5,0.2s0.4,0.1,0.6,0.1
		c0.5,0,0.9-0.1,1.2-0.3c0.3-0.2,0.5-0.4,0.6-0.6c0.1-0.2,0.2-0.5,0.3-0.7c0-0.2,0-0.4,0-0.6V30z"/>
	<path class="st0" d="M159.2,31.5c0,0.3,0.1,0.5,0.2,0.7c0.1,0.2,0.3,0.4,0.5,0.5c0.2,0.1,0.4,0.2,0.7,0.3c0.2,0.1,0.5,0.1,0.8,0.1
		c0.2,0,0.4,0,0.6-0.1s0.4-0.1,0.6-0.2s0.3-0.2,0.4-0.4c0.1-0.1,0.2-0.3,0.2-0.6c0-0.2-0.1-0.4-0.2-0.5c-0.1-0.1-0.3-0.3-0.6-0.4
		c-0.3-0.1-0.6-0.2-1-0.3c-0.4-0.1-0.8-0.2-1.3-0.3c-0.4-0.1-0.8-0.2-1.2-0.3c-0.4-0.1-0.7-0.3-1-0.4c-0.3-0.2-0.5-0.4-0.7-0.7
		c-0.2-0.3-0.3-0.6-0.3-1c0-0.6,0.1-1.1,0.4-1.5c0.2-0.4,0.6-0.7,1-0.9c0.4-0.2,0.9-0.4,1.4-0.5s1-0.1,1.6-0.1s1.1,0,1.6,0.1
		c0.5,0.1,1,0.3,1.3,0.5c0.4,0.2,0.7,0.5,1,0.9c0.3,0.4,0.4,0.9,0.5,1.4h-2.6c0-0.5-0.2-0.8-0.6-1c-0.4-0.2-0.8-0.3-1.3-0.3
		c-0.2,0-0.3,0-0.5,0c-0.2,0-0.3,0.1-0.5,0.1s-0.3,0.1-0.4,0.3c-0.1,0.1-0.2,0.3-0.2,0.5c0,0.2,0.1,0.4,0.3,0.6
		c0.2,0.1,0.4,0.3,0.7,0.4c0.3,0.1,0.6,0.2,1,0.2c0.4,0.1,0.7,0.1,1.1,0.2c0.4,0.1,0.8,0.2,1.2,0.3c0.4,0.1,0.7,0.3,1,0.5
		c0.3,0.2,0.5,0.4,0.7,0.7c0.2,0.3,0.3,0.7,0.3,1.1c0,0.6-0.1,1.1-0.4,1.5c-0.3,0.4-0.6,0.7-1,1c-0.4,0.3-0.9,0.4-1.4,0.5
		c-0.5,0.1-1.1,0.2-1.7,0.2c-0.6,0-1.1-0.1-1.7-0.2s-1-0.3-1.5-0.5s-0.8-0.6-1.1-1c-0.3-0.4-0.4-0.9-0.4-1.5H159.2z"/>
	<path class="st0" d="M176.6,27h-1.6v-1.7h1.6v-0.7c0-0.4,0.1-0.8,0.2-1.1c0.1-0.3,0.3-0.6,0.6-0.9c0.3-0.3,0.6-0.4,1-0.6
		c0.4-0.1,0.9-0.2,1.5-0.2c0.2,0,0.5,0,0.7,0c0.2,0,0.5,0,0.7,0v1.9c-0.3,0-0.7-0.1-1-0.1c-0.4,0-0.6,0.1-0.8,0.2
		c-0.2,0.2-0.2,0.4-0.2,0.8v0.6h1.9V27h-1.9v7.6h-2.7V27z"/>
	<path class="st0" d="M185.9,24.1H184l1.8-2.6h3L185.9,24.1z M184.1,25.3h2.7v9.3h-2.7V25.3z"/>
	<path class="st0" d="M192.7,31.5c0,0.3,0.1,0.5,0.2,0.7c0.1,0.2,0.3,0.4,0.5,0.5c0.2,0.1,0.4,0.2,0.7,0.3c0.2,0.1,0.5,0.1,0.8,0.1
		c0.2,0,0.4,0,0.6-0.1s0.4-0.1,0.6-0.2s0.3-0.2,0.4-0.4c0.1-0.1,0.2-0.3,0.2-0.6c0-0.2-0.1-0.4-0.2-0.5c-0.1-0.1-0.3-0.3-0.6-0.4
		c-0.3-0.1-0.6-0.2-1-0.3c-0.4-0.1-0.8-0.2-1.3-0.3c-0.4-0.1-0.8-0.2-1.2-0.3c-0.4-0.1-0.7-0.3-1-0.4c-0.3-0.2-0.5-0.4-0.7-0.7
		c-0.2-0.3-0.3-0.6-0.3-1c0-0.6,0.1-1.1,0.4-1.5c0.2-0.4,0.6-0.7,1-0.9c0.4-0.2,0.9-0.4,1.4-0.5s1-0.1,1.6-0.1s1.1,0,1.6,0.1
		c0.5,0.1,1,0.3,1.3,0.5c0.4,0.2,0.7,0.5,1,0.9c0.3,0.4,0.4,0.9,0.5,1.4h-2.6c0-0.5-0.2-0.8-0.6-1c-0.4-0.2-0.8-0.3-1.3-0.3
		c-0.2,0-0.3,0-0.5,0c-0.2,0-0.3,0.1-0.5,0.1s-0.3,0.1-0.4,0.3c-0.1,0.1-0.2,0.3-0.2,0.5c0,0.2,0.1,0.4,0.3,0.6
		c0.2,0.1,0.4,0.3,0.7,0.4c0.3,0.1,0.6,0.2,1,0.2c0.4,0.1,0.7,0.1,1.1,0.2c0.4,0.1,0.8,0.2,1.2,0.3c0.4,0.1,0.7,0.3,1,0.5
		c0.3,0.2,0.5,0.4,0.7,0.7c0.2,0.3,0.3,0.7,0.3,1.1c0,0.6-0.1,1.1-0.4,1.5c-0.3,0.4-0.6,0.7-1,1c-0.4,0.3-0.9,0.4-1.4,0.5
		c-0.5,0.1-1.1,0.2-1.7,0.2c-0.6,0-1.1-0.1-1.7-0.2s-1-0.3-1.5-0.5s-0.8-0.6-1.1-1c-0.3-0.4-0.4-0.9-0.4-1.5H192.7z"/>
	<path class="st0" d="M205.3,23.8h-2.7v-2.1h2.7V23.8z M202.5,25.3h2.7v9.3h-2.7V25.3z"/>
	<path class="st0" d="M215.8,28.5c-0.2-1.1-0.8-1.6-2-1.6c-0.4,0-0.8,0.1-1.1,0.3s-0.5,0.4-0.7,0.7c-0.2,0.3-0.3,0.6-0.4,1
		c-0.1,0.4-0.1,0.7-0.1,1c0,0.3,0,0.7,0.1,1c0.1,0.3,0.2,0.7,0.4,0.9s0.4,0.5,0.7,0.7s0.6,0.3,1.1,0.3c0.6,0,1.1-0.2,1.5-0.5
		c0.4-0.3,0.6-0.8,0.7-1.4h2.6c-0.2,1.2-0.7,2.2-1.5,2.8s-1.9,1-3.2,1c-0.8,0-1.4-0.1-2-0.3c-0.6-0.2-1.1-0.6-1.6-1
		c-0.4-0.4-0.8-0.9-1-1.5s-0.4-1.2-0.4-1.9c0-0.7,0.1-1.4,0.3-2s0.6-1.2,1-1.6c0.4-0.4,1-0.8,1.6-1.1c0.6-0.3,1.3-0.4,2.1-0.4
		c0.6,0,1.1,0.1,1.7,0.2c0.5,0.1,1,0.4,1.4,0.7c0.4,0.3,0.8,0.7,1,1.1c0.3,0.4,0.4,1,0.5,1.5H215.8z"/>
	<path class="st0" d="M221.3,29.9c0-0.7,0.1-1.4,0.4-2c0.2-0.6,0.6-1.1,1-1.5c0.4-0.4,1-0.8,1.6-1s1.3-0.4,2.1-0.4
		c0.8,0,1.5,0.1,2.1,0.4s1.2,0.6,1.6,1c0.4,0.4,0.8,0.9,1,1.5c0.2,0.6,0.4,1.3,0.4,2s-0.1,1.4-0.4,2c-0.2,0.6-0.6,1.1-1,1.5
		c-0.4,0.4-1,0.8-1.6,1c-0.6,0.2-1.3,0.3-2.1,0.3c-0.8,0-1.5-0.1-2.1-0.3c-0.6-0.2-1.2-0.6-1.6-1c-0.4-0.4-0.8-0.9-1-1.5
		C221.5,31.3,221.3,30.6,221.3,29.9z M224.1,29.9c0,0.4,0,0.7,0.1,1.1c0.1,0.4,0.2,0.7,0.4,1c0.2,0.3,0.4,0.5,0.7,0.7
		c0.3,0.2,0.7,0.3,1.1,0.3c0.5,0,0.8-0.1,1.2-0.3c0.3-0.2,0.6-0.4,0.7-0.7c0.2-0.3,0.3-0.6,0.4-1c0.1-0.4,0.1-0.7,0.1-1.1
		s0-0.7-0.1-1.1c-0.1-0.4-0.2-0.7-0.4-1c-0.2-0.3-0.4-0.5-0.7-0.7c-0.3-0.2-0.7-0.3-1.2-0.3c-0.5,0-0.8,0.1-1.1,0.3
		c-0.3,0.2-0.6,0.4-0.7,0.7s-0.3,0.6-0.4,1C224.1,29.2,224.1,29.5,224.1,29.9z"/>
	<path class="st0" d="M237.1,31.5c0,0.3,0.1,0.5,0.2,0.7c0.1,0.2,0.3,0.4,0.5,0.5c0.2,0.1,0.4,0.2,0.7,0.3c0.2,0.1,0.5,0.1,0.8,0.1
		c0.2,0,0.4,0,0.6-0.1s0.4-0.1,0.6-0.2s0.3-0.2,0.4-0.4c0.1-0.1,0.2-0.3,0.2-0.6c0-0.2-0.1-0.4-0.2-0.5c-0.1-0.1-0.3-0.3-0.6-0.4
		c-0.3-0.1-0.6-0.2-1-0.3c-0.4-0.1-0.8-0.2-1.3-0.3c-0.4-0.1-0.8-0.2-1.2-0.3c-0.4-0.1-0.7-0.3-1-0.4c-0.3-0.2-0.5-0.4-0.7-0.7
		c-0.2-0.3-0.3-0.6-0.3-1c0-0.6,0.1-1.1,0.4-1.5c0.2-0.4,0.6-0.7,1-0.9c0.4-0.2,0.9-0.4,1.4-0.5s1-0.1,1.6-0.1s1.1,0,1.6,0.1
		c0.5,0.1,1,0.3,1.3,0.5c0.4,0.2,0.7,0.5,1,0.9c0.3,0.4,0.4,0.9,0.5,1.4h-2.6c0-0.5-0.2-0.8-0.6-1c-0.4-0.2-0.8-0.3-1.3-0.3
		c-0.2,0-0.3,0-0.5,0c-0.2,0-0.3,0.1-0.5,0.1s-0.3,0.1-0.4,0.3c-0.1,0.1-0.2,0.3-0.2,0.5c0,0.2,0.1,0.4,0.3,0.6
		c0.2,0.1,0.4,0.3,0.7,0.4c0.3,0.1,0.6,0.2,1,0.2c0.4,0.1,0.7,0.1,1.1,0.2c0.4,0.1,0.8,0.2,1.2,0.3c0.4,0.1,0.7,0.3,1,0.5
		c0.3,0.2,0.5,0.4,0.7,0.7c0.2,0.3,0.3,0.7,0.3,1.1c0,0.6-0.1,1.1-0.4,1.5c-0.3,0.4-0.6,0.7-1,1c-0.4,0.3-0.9,0.4-1.4,0.5
		c-0.5,0.1-1.1,0.2-1.7,0.2c-0.6,0-1.1-0.1-1.7-0.2s-1-0.3-1.5-0.5s-0.8-0.6-1.1-1c-0.3-0.4-0.4-0.9-0.4-1.5H237.1z"/>
	<path class="st0" d="M258.7,35.7c-0.3,0.7-0.7,1.3-1.2,1.6c-0.5,0.3-1.2,0.5-2.2,0.5c-0.3,0-0.6,0-0.8,0c-0.3,0-0.6,0-0.8-0.1v-2.1
		c0.3,0,0.5,0,0.8,0.1s0.5,0,0.8,0c0.2,0,0.4-0.1,0.6-0.2c0.2-0.1,0.3-0.3,0.4-0.4c0.1-0.2,0.1-0.3,0.1-0.5c0-0.2,0-0.4-0.1-0.6
		l-3.5-8.7h2.9l2.2,6.4h0l2.2-6.4h2.8L258.7,35.7z"/>
	<path class="st0" d="M272.4,25.3h2.6v1.3h0c0.4-0.5,0.8-0.9,1.3-1.1c0.5-0.3,1.1-0.4,1.7-0.4c0.6,0,1.2,0.1,1.7,0.4
		c0.5,0.2,0.9,0.6,1.2,1.2c0.3-0.4,0.7-0.8,1.2-1.1c0.5-0.3,1.1-0.5,1.8-0.5c0.5,0,1,0.1,1.5,0.2c0.4,0.1,0.8,0.3,1.1,0.6
		c0.3,0.3,0.6,0.6,0.7,1c0.2,0.4,0.3,0.9,0.3,1.5v6.2h-2.7v-5.3c0-0.3,0-0.6,0-0.9c0-0.3-0.1-0.5-0.2-0.7c-0.1-0.2-0.3-0.4-0.5-0.5
		c-0.2-0.1-0.5-0.2-0.9-0.2c-0.4,0-0.7,0.1-0.9,0.2c-0.2,0.1-0.4,0.3-0.6,0.5c-0.1,0.2-0.2,0.5-0.3,0.8s-0.1,0.6-0.1,0.9v5.2h-2.7
		v-5.2c0-0.3,0-0.5,0-0.8s-0.1-0.5-0.2-0.8c-0.1-0.2-0.3-0.4-0.5-0.5s-0.6-0.2-1-0.2c-0.1,0-0.3,0-0.5,0.1c-0.2,0.1-0.4,0.2-0.6,0.3
		s-0.4,0.4-0.5,0.6c-0.1,0.3-0.2,0.7-0.2,1.1v5.4h-2.7V25.3z"/>
	<path class="st0" d="M293.5,30.5c0,0.8,0.3,1.4,0.7,1.8c0.4,0.4,1,0.6,1.8,0.6c0.5,0,1-0.1,1.4-0.4c0.4-0.3,0.6-0.5,0.7-0.8h2.4
		c-0.4,1.1-1,1.9-1.8,2.4c-0.8,0.5-1.7,0.7-2.9,0.7c-0.8,0-1.5-0.1-2.1-0.4c-0.6-0.2-1.2-0.6-1.6-1c-0.4-0.4-0.8-0.9-1-1.5
		c-0.2-0.6-0.4-1.3-0.4-2c0-0.7,0.1-1.3,0.4-1.9s0.6-1.1,1-1.6c0.4-0.4,1-0.8,1.6-1c0.6-0.3,1.3-0.4,2.1-0.4c0.8,0,1.6,0.2,2.2,0.5
		c0.6,0.3,1.1,0.7,1.5,1.2c0.4,0.5,0.7,1.1,0.9,1.8c0.2,0.7,0.2,1.3,0.2,2.1H293.5z M297.9,28.9c-0.1-0.6-0.4-1.1-0.7-1.5
		c-0.3-0.3-0.8-0.5-1.5-0.5c-0.4,0-0.8,0.1-1.1,0.2c-0.3,0.1-0.5,0.3-0.7,0.5c-0.2,0.2-0.3,0.4-0.4,0.6c-0.1,0.2-0.1,0.4-0.1,0.6
		H297.9z"/>
	<path class="st0" d="M303.9,25.3h2.6v1.3h0.1c0.3-0.5,0.8-0.9,1.3-1.2c0.5-0.3,1.1-0.4,1.7-0.4c0.7,0,1.3,0.1,1.8,0.3
		c0.5,0.2,0.8,0.4,1.1,0.8c0.3,0.3,0.5,0.7,0.6,1.2c0.1,0.5,0.2,1,0.2,1.6v5.7h-2.7v-5.2c0-0.8-0.1-1.3-0.4-1.7
		c-0.3-0.4-0.7-0.6-1.3-0.6c-0.7,0-1.3,0.2-1.6,0.6c-0.3,0.4-0.5,1.1-0.5,2v4.9h-2.7V25.3z"/>
	<path class="st0" d="M320.3,25.3h2V27h-2v4.6c0,0.4,0.1,0.7,0.2,0.9c0.2,0.1,0.5,0.2,0.9,0.2c0.3,0,0.6,0,0.8-0.1v2
		c-0.2,0-0.5,0.1-0.8,0.1c-0.3,0-0.6,0-0.8,0c-0.4,0-0.8,0-1.2-0.1c-0.4-0.1-0.7-0.2-1-0.3c-0.3-0.2-0.5-0.4-0.7-0.7
		c-0.2-0.3-0.2-0.7-0.2-1.1V27H316v-1.7h1.6v-2.8h2.7V25.3z"/>
	<path class="st0" d="M325.1,28.1c0-0.6,0.2-1.1,0.5-1.5c0.3-0.4,0.6-0.7,1.1-1c0.4-0.2,0.9-0.4,1.5-0.5c0.5-0.1,1.1-0.2,1.6-0.2
		c0.5,0,1,0,1.5,0.1c0.5,0.1,1,0.2,1.4,0.4c0.4,0.2,0.8,0.5,1,0.8c0.3,0.3,0.4,0.8,0.4,1.3v4.8c0,0.4,0,0.8,0.1,1.2
		c0.1,0.4,0.1,0.7,0.3,0.9h-2.8c-0.1-0.1-0.1-0.3-0.1-0.4c0-0.1-0.1-0.3-0.1-0.5c-0.4,0.4-0.9,0.7-1.5,0.9s-1.2,0.3-1.8,0.3
		c-0.5,0-0.9-0.1-1.3-0.2c-0.4-0.1-0.8-0.3-1.1-0.5c-0.3-0.2-0.5-0.5-0.7-0.9c-0.2-0.3-0.3-0.8-0.3-1.2c0-0.5,0.1-1,0.3-1.3
		c0.2-0.3,0.4-0.6,0.8-0.8c0.3-0.2,0.7-0.4,1.1-0.5s0.8-0.2,1.2-0.2c0.4-0.1,0.8-0.1,1.2-0.1c0.4,0,0.7-0.1,1-0.2
		c0.3-0.1,0.5-0.2,0.7-0.3c0.2-0.1,0.3-0.3,0.3-0.6c0-0.3,0-0.5-0.1-0.7s-0.2-0.3-0.4-0.4s-0.3-0.2-0.6-0.2c-0.2,0-0.4,0-0.7,0
		c-0.5,0-0.9,0.1-1.3,0.3s-0.5,0.6-0.5,1.1H325.1z M331.4,30c-0.1,0.1-0.3,0.2-0.4,0.2c-0.2,0.1-0.4,0.1-0.6,0.1
		c-0.2,0-0.4,0.1-0.6,0.1c-0.2,0-0.4,0.1-0.6,0.1c-0.2,0-0.4,0.1-0.6,0.1c-0.2,0.1-0.4,0.1-0.5,0.2c-0.1,0.1-0.3,0.2-0.4,0.4
		c-0.1,0.2-0.1,0.4-0.1,0.6c0,0.2,0,0.4,0.1,0.6c0.1,0.1,0.2,0.3,0.4,0.4c0.2,0.1,0.3,0.2,0.5,0.2s0.4,0.1,0.6,0.1
		c0.5,0,0.9-0.1,1.2-0.3c0.3-0.2,0.5-0.4,0.6-0.6c0.1-0.2,0.2-0.5,0.3-0.7c0-0.2,0-0.4,0-0.6V30z"/>
	<path class="st0" d="M337.9,21.7h2.7v12.8h-2.7V21.7z"/>
	<path class="st0" d="M346.7,30.5c0,0.8,0.3,1.4,0.7,1.8c0.4,0.4,1,0.6,1.8,0.6c0.5,0,1-0.1,1.4-0.4c0.4-0.3,0.6-0.5,0.7-0.8h2.4
		c-0.4,1.1-1,1.9-1.8,2.4c-0.8,0.5-1.7,0.7-2.9,0.7c-0.8,0-1.5-0.1-2.1-0.4c-0.6-0.2-1.2-0.6-1.6-1c-0.4-0.4-0.8-0.9-1-1.5
		c-0.2-0.6-0.4-1.3-0.4-2c0-0.7,0.1-1.3,0.4-1.9s0.6-1.1,1-1.6c0.4-0.4,1-0.8,1.6-1c0.6-0.3,1.3-0.4,2.1-0.4c0.8,0,1.6,0.2,2.2,0.5
		c0.6,0.3,1.1,0.7,1.5,1.2c0.4,0.5,0.7,1.1,0.9,1.8c0.2,0.7,0.2,1.3,0.2,2.1H346.7z M351.1,28.9c-0.1-0.6-0.4-1.1-0.7-1.5
		c-0.3-0.3-0.8-0.5-1.5-0.5c-0.4,0-0.8,0.1-1.1,0.2c-0.3,0.1-0.5,0.3-0.7,0.5c-0.2,0.2-0.3,0.4-0.4,0.6c-0.1,0.2-0.1,0.4-0.1,0.6
		H351.1z"/>
	<path class="st0" d="M359.1,31.5c0,0.3,0.1,0.5,0.2,0.7c0.1,0.2,0.3,0.4,0.5,0.5c0.2,0.1,0.4,0.2,0.7,0.3c0.2,0.1,0.5,0.1,0.8,0.1
		c0.2,0,0.4,0,0.6-0.1s0.4-0.1,0.6-0.2s0.3-0.2,0.4-0.4c0.1-0.1,0.2-0.3,0.2-0.6c0-0.2-0.1-0.4-0.2-0.5c-0.1-0.1-0.3-0.3-0.6-0.4
		c-0.3-0.1-0.6-0.2-1-0.3c-0.4-0.1-0.8-0.2-1.3-0.3c-0.4-0.1-0.8-0.2-1.2-0.3c-0.4-0.1-0.7-0.3-1-0.4c-0.3-0.2-0.5-0.4-0.7-0.7
		c-0.2-0.3-0.3-0.6-0.3-1c0-0.6,0.1-1.1,0.4-1.5c0.2-0.4,0.6-0.7,1-0.9c0.4-0.2,0.9-0.4,1.4-0.5s1-0.1,1.6-0.1s1.1,0,1.6,0.1
		c0.5,0.1,1,0.3,1.3,0.5c0.4,0.2,0.7,0.5,1,0.9c0.3,0.4,0.4,0.9,0.5,1.4h-2.6c0-0.5-0.2-0.8-0.6-1c-0.4-0.2-0.8-0.3-1.3-0.3
		c-0.2,0-0.3,0-0.5,0c-0.2,0-0.3,0.1-0.5,0.1s-0.3,0.1-0.4,0.3c-0.1,0.1-0.2,0.3-0.2,0.5c0,0.2,0.1,0.4,0.3,0.6
		c0.2,0.1,0.4,0.3,0.7,0.4c0.3,0.1,0.6,0.2,1,0.2c0.4,0.1,0.7,0.1,1.1,0.2c0.4,0.1,0.8,0.2,1.2,0.3c0.4,0.1,0.7,0.3,1,0.5
		c0.3,0.2,0.5,0.4,0.7,0.7c0.2,0.3,0.3,0.7,0.3,1.1c0,0.6-0.1,1.1-0.4,1.5c-0.3,0.4-0.6,0.7-1,1c-0.4,0.3-0.9,0.4-1.4,0.5
		c-0.5,0.1-1.1,0.2-1.7,0.2c-0.6,0-1.1-0.1-1.7-0.2s-1-0.3-1.5-0.5s-0.8-0.6-1.1-1c-0.3-0.4-0.4-0.9-0.4-1.5H359.1z"/>
	<path class="st0" d="M375.8,28.1c0-0.6,0.2-1.1,0.5-1.5c0.3-0.4,0.6-0.7,1.1-1c0.4-0.2,0.9-0.4,1.5-0.5c0.5-0.1,1.1-0.2,1.6-0.2
		c0.5,0,1,0,1.5,0.1c0.5,0.1,1,0.2,1.4,0.4c0.4,0.2,0.8,0.5,1,0.8c0.3,0.3,0.4,0.8,0.4,1.3v4.8c0,0.4,0,0.8,0.1,1.2
		c0.1,0.4,0.1,0.7,0.3,0.9h-2.8c-0.1-0.1-0.1-0.3-0.1-0.4c0-0.1-0.1-0.3-0.1-0.5c-0.4,0.4-0.9,0.7-1.5,0.9s-1.2,0.3-1.8,0.3
		c-0.5,0-0.9-0.1-1.3-0.2c-0.4-0.1-0.8-0.3-1.1-0.5c-0.3-0.2-0.5-0.5-0.7-0.9c-0.2-0.3-0.3-0.8-0.3-1.2c0-0.5,0.1-1,0.3-1.3
		c0.2-0.3,0.4-0.6,0.8-0.8c0.3-0.2,0.7-0.4,1.1-0.5s0.8-0.2,1.2-0.2c0.4-0.1,0.8-0.1,1.2-0.1c0.4,0,0.7-0.1,1-0.2
		c0.3-0.1,0.5-0.2,0.7-0.3c0.2-0.1,0.3-0.3,0.3-0.6c0-0.3,0-0.5-0.1-0.7s-0.2-0.3-0.4-0.4s-0.3-0.2-0.6-0.2c-0.2,0-0.4,0-0.7,0
		c-0.5,0-0.9,0.1-1.3,0.3s-0.5,0.6-0.5,1.1H375.8z M382.1,30c-0.1,0.1-0.3,0.2-0.4,0.2c-0.2,0.1-0.4,0.1-0.6,0.1
		c-0.2,0-0.4,0.1-0.6,0.1c-0.2,0-0.4,0.1-0.6,0.1c-0.2,0-0.4,0.1-0.6,0.1c-0.2,0.1-0.4,0.1-0.5,0.2c-0.1,0.1-0.3,0.2-0.4,0.4
		c-0.1,0.2-0.1,0.4-0.1,0.6c0,0.2,0,0.4,0.1,0.6c0.1,0.1,0.2,0.3,0.4,0.4c0.2,0.1,0.3,0.2,0.5,0.2s0.4,0.1,0.6,0.1
		c0.5,0,0.9-0.1,1.2-0.3c0.3-0.2,0.5-0.4,0.6-0.6c0.1-0.2,0.2-0.5,0.3-0.7c0-0.2,0-0.4,0-0.6V30z"/>
	<path class="st0" d="M390.6,31.5c0,0.3,0.1,0.5,0.2,0.7c0.1,0.2,0.3,0.4,0.5,0.5c0.2,0.1,0.4,0.2,0.7,0.3c0.2,0.1,0.5,0.1,0.8,0.1
		c0.2,0,0.4,0,0.6-0.1s0.4-0.1,0.6-0.2s0.3-0.2,0.4-0.4c0.1-0.1,0.2-0.3,0.2-0.6c0-0.2-0.1-0.4-0.2-0.5c-0.1-0.1-0.3-0.3-0.6-0.4
		c-0.3-0.1-0.6-0.2-1-0.3c-0.4-0.1-0.8-0.2-1.3-0.3c-0.4-0.1-0.8-0.2-1.2-0.3c-0.4-0.1-0.7-0.3-1-0.4c-0.3-0.2-0.5-0.4-0.7-0.7
		c-0.2-0.3-0.3-0.6-0.3-1c0-0.6,0.1-1.1,0.4-1.5c0.2-0.4,0.6-0.7,1-0.9c0.4-0.2,0.9-0.4,1.4-0.5s1-0.1,1.6-0.1s1.1,0,1.6,0.1
		c0.5,0.1,1,0.3,1.3,0.5c0.4,0.2,0.7,0.5,1,0.9c0.3,0.4,0.4,0.9,0.5,1.4h-2.6c0-0.5-0.2-0.8-0.6-1c-0.4-0.2-0.8-0.3-1.3-0.3
		c-0.2,0-0.3,0-0.5,0c-0.2,0-0.3,0.1-0.5,0.1s-0.3,0.1-0.4,0.3c-0.1,0.1-0.2,0.3-0.2,0.5c0,0.2,0.1,0.4,0.3,0.6
		c0.2,0.1,0.4,0.3,0.7,0.4c0.3,0.1,0.6,0.2,1,0.2c0.4,0.1,0.7,0.1,1.1,0.2c0.4,0.1,0.8,0.2,1.2,0.3c0.4,0.1,0.7,0.3,1,0.5
		c0.3,0.2,0.5,0.4,0.7,0.7c0.2,0.3,0.3,0.7,0.3,1.1c0,0.6-0.1,1.1-0.4,1.5c-0.3,0.4-0.6,0.7-1,1c-0.4,0.3-0.9,0.4-1.4,0.5
		c-0.5,0.1-1.1,0.2-1.7,0.2c-0.6,0-1.1-0.1-1.7-0.2s-1-0.3-1.5-0.5s-0.8-0.6-1.1-1c-0.3-0.4-0.4-0.9-0.4-1.5H390.6z"/>
	<path class="st0" d="M400.1,29.9c0-0.7,0.1-1.4,0.4-2c0.2-0.6,0.6-1.1,1-1.5c0.4-0.4,1-0.8,1.6-1s1.3-0.4,2.1-0.4
		c0.8,0,1.5,0.1,2.1,0.4s1.2,0.6,1.6,1c0.4,0.4,0.8,0.9,1,1.5c0.2,0.6,0.4,1.3,0.4,2s-0.1,1.4-0.4,2c-0.2,0.6-0.6,1.1-1,1.5
		c-0.4,0.4-1,0.8-1.6,1c-0.6,0.2-1.3,0.3-2.1,0.3c-0.8,0-1.5-0.1-2.1-0.3c-0.6-0.2-1.2-0.6-1.6-1c-0.4-0.4-0.8-0.9-1-1.5
		C400.2,31.3,400.1,30.6,400.1,29.9z M402.8,29.9c0,0.4,0,0.7,0.1,1.1c0.1,0.4,0.2,0.7,0.4,1c0.2,0.3,0.4,0.5,0.7,0.7
		c0.3,0.2,0.7,0.3,1.1,0.3c0.5,0,0.8-0.1,1.2-0.3c0.3-0.2,0.6-0.4,0.7-0.7c0.2-0.3,0.3-0.6,0.4-1c0.1-0.4,0.1-0.7,0.1-1.1
		s0-0.7-0.1-1.1c-0.1-0.4-0.2-0.7-0.4-1c-0.2-0.3-0.4-0.5-0.7-0.7c-0.3-0.2-0.7-0.3-1.2-0.3c-0.5,0-0.8,0.1-1.1,0.3
		c-0.3,0.2-0.6,0.4-0.7,0.7s-0.3,0.6-0.4,1C402.9,29.2,402.8,29.5,402.8,29.9z"/>
	<path class="st0" d="M420.5,28.5c-0.2-1.1-0.8-1.6-2-1.6c-0.4,0-0.8,0.1-1.1,0.3s-0.5,0.4-0.7,0.7c-0.2,0.3-0.3,0.6-0.4,1
		c-0.1,0.4-0.1,0.7-0.1,1c0,0.3,0,0.7,0.1,1c0.1,0.3,0.2,0.7,0.4,0.9s0.4,0.5,0.7,0.7s0.6,0.3,1.1,0.3c0.6,0,1.1-0.2,1.5-0.5
		c0.4-0.3,0.6-0.8,0.7-1.4h2.6c-0.2,1.2-0.7,2.2-1.5,2.8s-1.9,1-3.2,1c-0.8,0-1.4-0.1-2-0.3c-0.6-0.2-1.1-0.6-1.6-1
		c-0.4-0.4-0.8-0.9-1-1.5s-0.4-1.2-0.4-1.9c0-0.7,0.1-1.4,0.3-2s0.6-1.2,1-1.6c0.4-0.4,1-0.8,1.6-1.1c0.6-0.3,1.3-0.4,2.1-0.4
		c0.6,0,1.1,0.1,1.7,0.2c0.5,0.1,1,0.4,1.4,0.7c0.4,0.3,0.8,0.7,1,1.1c0.3,0.4,0.4,1,0.5,1.5H420.5z"/>
	<path class="st0" d="M429.1,23.8h-2.7v-2.1h2.7V23.8z M426.4,25.3h2.7v9.3h-2.7V25.3z"/>
	<path class="st0" d="M432.8,28.1c0-0.6,0.2-1.1,0.5-1.5c0.3-0.4,0.6-0.7,1.1-1c0.4-0.2,0.9-0.4,1.5-0.5c0.5-0.1,1.1-0.2,1.6-0.2
		c0.5,0,1,0,1.5,0.1c0.5,0.1,1,0.2,1.4,0.4c0.4,0.2,0.8,0.5,1,0.8c0.3,0.3,0.4,0.8,0.4,1.3v4.8c0,0.4,0,0.8,0.1,1.2
		c0.1,0.4,0.1,0.7,0.3,0.9h-2.8c-0.1-0.1-0.1-0.3-0.1-0.4c0-0.1-0.1-0.3-0.1-0.5c-0.4,0.4-0.9,0.7-1.5,0.9s-1.2,0.3-1.8,0.3
		c-0.5,0-0.9-0.1-1.3-0.2c-0.4-0.1-0.8-0.3-1.1-0.5c-0.3-0.2-0.5-0.5-0.7-0.9c-0.2-0.3-0.3-0.8-0.3-1.2c0-0.5,0.1-1,0.3-1.3
		c0.2-0.3,0.4-0.6,0.8-0.8c0.3-0.2,0.7-0.4,1.1-0.5s0.8-0.2,1.2-0.2c0.4-0.1,0.8-0.1,1.2-0.1c0.4,0,0.7-0.1,1-0.2
		c0.3-0.1,0.5-0.2,0.7-0.3c0.2-0.1,0.3-0.3,0.3-0.6c0-0.3,0-0.5-0.1-0.7s-0.2-0.3-0.4-0.4s-0.3-0.2-0.6-0.2c-0.2,0-0.4,0-0.7,0
		c-0.5,0-0.9,0.1-1.3,0.3s-0.5,0.6-0.5,1.1H432.8z M439.1,30c-0.1,0.1-0.3,0.2-0.4,0.2c-0.2,0.1-0.4,0.1-0.6,0.1
		c-0.2,0-0.4,0.1-0.6,0.1c-0.2,0-0.4,0.1-0.6,0.1c-0.2,0-0.4,0.1-0.6,0.1c-0.2,0.1-0.4,0.1-0.5,0.2c-0.1,0.1-0.3,0.2-0.4,0.4
		c-0.1,0.2-0.1,0.4-0.1,0.6c0,0.2,0,0.4,0.1,0.6c0.1,0.1,0.2,0.3,0.4,0.4c0.2,0.1,0.3,0.2,0.5,0.2s0.4,0.1,0.6,0.1
		c0.5,0,0.9-0.1,1.2-0.3c0.3-0.2,0.5-0.4,0.6-0.6c0.1-0.2,0.2-0.5,0.3-0.7c0-0.2,0-0.4,0-0.6V30z"/>
	<path class="st0" d="M452.6,33.4L452.6,33.4c-0.4,0.5-0.8,0.9-1.3,1.1s-1.1,0.3-1.7,0.3c-0.8,0-1.4-0.1-2-0.4s-1-0.6-1.4-1.1
		s-0.6-1-0.8-1.6c-0.2-0.6-0.3-1.2-0.3-1.9c0-0.6,0.1-1.2,0.3-1.8s0.5-1.1,0.8-1.5c0.4-0.4,0.8-0.8,1.4-1.1s1.2-0.4,1.9-0.4
		c0.6,0,1.1,0.1,1.7,0.4c0.5,0.2,0.9,0.6,1.3,1h0v-4.7h2.7v12.8h-2.6V33.4z M452.5,29.9c0-0.4,0-0.7-0.1-1.1s-0.2-0.7-0.4-0.9
		c-0.2-0.3-0.4-0.5-0.7-0.7c-0.3-0.2-0.7-0.3-1.1-0.3c-0.4,0-0.8,0.1-1.1,0.3s-0.6,0.4-0.7,0.7c-0.2,0.3-0.3,0.6-0.4,0.9
		c-0.1,0.4-0.1,0.7-0.1,1.1c0,0.4,0,0.7,0.1,1.1c0.1,0.4,0.2,0.7,0.4,1c0.2,0.3,0.4,0.5,0.7,0.7c0.3,0.2,0.7,0.3,1.1,0.3
		c0.4,0,0.8-0.1,1.1-0.3c0.3-0.2,0.5-0.4,0.7-0.7c0.2-0.3,0.3-0.6,0.4-1C452.5,30.6,452.5,30.3,452.5,29.9z"/>
	<path class="st0" d="M458.5,29.9c0-0.7,0.1-1.4,0.4-2c0.2-0.6,0.6-1.1,1-1.5c0.4-0.4,1-0.8,1.6-1s1.3-0.4,2.1-0.4
		c0.8,0,1.5,0.1,2.1,0.4s1.2,0.6,1.6,1c0.4,0.4,0.8,0.9,1,1.5c0.2,0.6,0.4,1.3,0.4,2s-0.1,1.4-0.4,2c-0.2,0.6-0.6,1.1-1,1.5
		c-0.4,0.4-1,0.8-1.6,1c-0.6,0.2-1.3,0.3-2.1,0.3c-0.8,0-1.5-0.1-2.1-0.3c-0.6-0.2-1.2-0.6-1.6-1c-0.4-0.4-0.8-0.9-1-1.5
		C458.7,31.3,458.5,30.6,458.5,29.9z M461.3,29.9c0,0.4,0,0.7,0.1,1.1c0.1,0.4,0.2,0.7,0.4,1c0.2,0.3,0.4,0.5,0.7,0.7
		c0.3,0.2,0.7,0.3,1.1,0.3c0.5,0,0.8-0.1,1.2-0.3c0.3-0.2,0.6-0.4,0.7-0.7c0.2-0.3,0.3-0.6,0.4-1c0.1-0.4,0.1-0.7,0.1-1.1
		s0-0.7-0.1-1.1c-0.1-0.4-0.2-0.7-0.4-1c-0.2-0.3-0.4-0.5-0.7-0.7c-0.3-0.2-0.7-0.3-1.2-0.3c-0.5,0-0.8,0.1-1.1,0.3
		c-0.3,0.2-0.6,0.4-0.7,0.7s-0.3,0.6-0.4,1C461.3,29.2,461.3,29.5,461.3,29.9z"/>
	<path class="st0" d="M474.3,31.5c0,0.3,0.1,0.5,0.2,0.7c0.1,0.2,0.3,0.4,0.5,0.5c0.2,0.1,0.4,0.2,0.7,0.3c0.2,0.1,0.5,0.1,0.8,0.1
		c0.2,0,0.4,0,0.6-0.1s0.4-0.1,0.6-0.2s0.3-0.2,0.4-0.4c0.1-0.1,0.2-0.3,0.2-0.6c0-0.2-0.1-0.4-0.2-0.5c-0.1-0.1-0.3-0.3-0.6-0.4
		c-0.3-0.1-0.6-0.2-1-0.3c-0.4-0.1-0.8-0.2-1.3-0.3c-0.4-0.1-0.8-0.2-1.2-0.3c-0.4-0.1-0.7-0.3-1-0.4c-0.3-0.2-0.5-0.4-0.7-0.7
		c-0.2-0.3-0.3-0.6-0.3-1c0-0.6,0.1-1.1,0.4-1.5c0.2-0.4,0.6-0.7,1-0.9c0.4-0.2,0.9-0.4,1.4-0.5s1-0.1,1.6-0.1s1.1,0,1.6,0.1
		c0.5,0.1,1,0.3,1.3,0.5c0.4,0.2,0.7,0.5,1,0.9c0.3,0.4,0.4,0.9,0.5,1.4H478c0-0.5-0.2-0.8-0.6-1c-0.4-0.2-0.8-0.3-1.3-0.3
		c-0.2,0-0.3,0-0.5,0c-0.2,0-0.3,0.1-0.5,0.1s-0.3,0.1-0.4,0.3c-0.1,0.1-0.2,0.3-0.2,0.5c0,0.2,0.1,0.4,0.3,0.6
		c0.2,0.1,0.4,0.3,0.7,0.4c0.3,0.1,0.6,0.2,1,0.2c0.4,0.1,0.7,0.1,1.1,0.2c0.4,0.1,0.8,0.2,1.2,0.3c0.4,0.1,0.7,0.3,1,0.5
		c0.3,0.2,0.5,0.4,0.7,0.7c0.2,0.3,0.3,0.7,0.3,1.1c0,0.6-0.1,1.1-0.4,1.5c-0.3,0.4-0.6,0.7-1,1c-0.4,0.3-0.9,0.4-1.4,0.5
		c-0.5,0.1-1.1,0.2-1.7,0.2c-0.6,0-1.1-0.1-1.7-0.2s-1-0.3-1.5-0.5s-0.8-0.6-1.1-1c-0.3-0.4-0.4-0.9-0.4-1.5H474.3z"/>
	<path class="st0" d="M490.9,28.1c0-0.6,0.2-1.1,0.5-1.5c0.3-0.4,0.6-0.7,1.1-1c0.4-0.2,0.9-0.4,1.5-0.5c0.5-0.1,1.1-0.2,1.6-0.2
		c0.5,0,1,0,1.5,0.1c0.5,0.1,1,0.2,1.4,0.4c0.4,0.2,0.8,0.5,1,0.8c0.3,0.3,0.4,0.8,0.4,1.3v4.8c0,0.4,0,0.8,0.1,1.2
		c0.1,0.4,0.1,0.7,0.3,0.9h-2.8c-0.1-0.1-0.1-0.3-0.1-0.4c0-0.1-0.1-0.3-0.1-0.5c-0.4,0.4-0.9,0.7-1.5,0.9s-1.2,0.3-1.8,0.3
		c-0.5,0-0.9-0.1-1.3-0.2c-0.4-0.1-0.8-0.3-1.1-0.5c-0.3-0.2-0.5-0.5-0.7-0.9c-0.2-0.3-0.3-0.8-0.3-1.2c0-0.5,0.1-1,0.3-1.3
		c0.2-0.3,0.4-0.6,0.8-0.8c0.3-0.2,0.7-0.4,1.1-0.5s0.8-0.2,1.2-0.2c0.4-0.1,0.8-0.1,1.2-0.1c0.4,0,0.7-0.1,1-0.2
		c0.3-0.1,0.5-0.2,0.7-0.3c0.2-0.1,0.3-0.3,0.3-0.6c0-0.3,0-0.5-0.1-0.7s-0.2-0.3-0.4-0.4s-0.3-0.2-0.6-0.2c-0.2,0-0.4,0-0.7,0
		c-0.5,0-0.9,0.1-1.3,0.3s-0.5,0.6-0.5,1.1H490.9z M497.2,30c-0.1,0.1-0.3,0.2-0.4,0.2c-0.2,0.1-0.4,0.1-0.6,0.1
		c-0.2,0-0.4,0.1-0.6,0.1c-0.2,0-0.4,0.1-0.6,0.1c-0.2,0-0.4,0.1-0.6,0.1c-0.2,0.1-0.4,0.1-0.5,0.2c-0.1,0.1-0.3,0.2-0.4,0.4
		c-0.1,0.2-0.1,0.4-0.1,0.6c0,0.2,0,0.4,0.1,0.6c0.1,0.1,0.2,0.3,0.4,0.4c0.2,0.1,0.3,0.2,0.5,0.2s0.4,0.1,0.6,0.1
		c0.5,0,0.9-0.1,1.2-0.3c0.3-0.2,0.5-0.4,0.6-0.6c0.1-0.2,0.2-0.5,0.3-0.7c0-0.2,0-0.4,0-0.6V30z"/>
	<path class="st0" d="M503.7,21.7h2.7v12.8h-2.7V21.7z"/>
	<path class="st0" d="M519.4,30.5c0,0.8,0.3,1.4,0.7,1.8c0.4,0.4,1,0.6,1.8,0.6c0.5,0,1-0.1,1.4-0.4c0.4-0.3,0.6-0.5,0.7-0.8h2.4
		c-0.4,1.1-1,1.9-1.8,2.4c-0.8,0.5-1.7,0.7-2.9,0.7c-0.8,0-1.5-0.1-2.1-0.4c-0.6-0.2-1.2-0.6-1.6-1c-0.4-0.4-0.8-0.9-1-1.5
		c-0.2-0.6-0.4-1.3-0.4-2c0-0.7,0.1-1.3,0.4-1.9s0.6-1.1,1-1.6c0.4-0.4,1-0.8,1.6-1c0.6-0.3,1.3-0.4,2.1-0.4c0.8,0,1.6,0.2,2.2,0.5
		c0.6,0.3,1.1,0.7,1.5,1.2c0.4,0.5,0.7,1.1,0.9,1.8c0.2,0.7,0.2,1.3,0.2,2.1H519.4z M523.8,28.9c-0.1-0.6-0.4-1.1-0.7-1.5
		c-0.3-0.3-0.8-0.5-1.5-0.5c-0.4,0-0.8,0.1-1.1,0.2c-0.3,0.1-0.5,0.3-0.7,0.5c-0.2,0.2-0.3,0.4-0.4,0.6c-0.1,0.2-0.1,0.4-0.1,0.6
		H523.8z"/>
	<path class="st0" d="M531.9,31.5c0,0.3,0.1,0.5,0.2,0.7c0.1,0.2,0.3,0.4,0.5,0.5c0.2,0.1,0.4,0.2,0.7,0.3c0.2,0.1,0.5,0.1,0.8,0.1
		c0.2,0,0.4,0,0.6-0.1s0.4-0.1,0.6-0.2s0.3-0.2,0.4-0.4c0.1-0.1,0.2-0.3,0.2-0.6c0-0.2-0.1-0.4-0.2-0.5c-0.1-0.1-0.3-0.3-0.6-0.4
		c-0.3-0.1-0.6-0.2-1-0.3c-0.4-0.1-0.8-0.2-1.3-0.3c-0.4-0.1-0.8-0.2-1.2-0.3c-0.4-0.1-0.7-0.3-1-0.4c-0.3-0.2-0.5-0.4-0.7-0.7
		c-0.2-0.3-0.3-0.6-0.3-1c0-0.6,0.1-1.1,0.4-1.5c0.2-0.4,0.6-0.7,1-0.9c0.4-0.2,0.9-0.4,1.4-0.5s1-0.1,1.6-0.1s1.1,0,1.6,0.1
		c0.5,0.1,1,0.3,1.3,0.5c0.4,0.2,0.7,0.5,1,0.9c0.3,0.4,0.4,0.9,0.5,1.4h-2.6c0-0.5-0.2-0.8-0.6-1c-0.4-0.2-0.8-0.3-1.3-0.3
		c-0.2,0-0.3,0-0.5,0c-0.2,0-0.3,0.1-0.5,0.1s-0.3,0.1-0.4,0.3c-0.1,0.1-0.2,0.3-0.2,0.5c0,0.2,0.1,0.4,0.3,0.6
		c0.2,0.1,0.4,0.3,0.7,0.4c0.3,0.1,0.6,0.2,1,0.2c0.4,0.1,0.7,0.1,1.1,0.2c0.4,0.1,0.8,0.2,1.2,0.3c0.4,0.1,0.7,0.3,1,0.5
		c0.3,0.2,0.5,0.4,0.7,0.7c0.2,0.3,0.3,0.7,0.3,1.1c0,0.6-0.1,1.1-0.4,1.5c-0.3,0.4-0.6,0.7-1,1c-0.4,0.3-0.9,0.4-1.4,0.5
		c-0.5,0.1-1.1,0.2-1.7,0.2c-0.6,0-1.1-0.1-1.7-0.2s-1-0.3-1.5-0.5s-0.8-0.6-1.1-1c-0.3-0.4-0.4-0.9-0.4-1.5H531.9z"/>
	<path class="st0" d="M545.1,25.3h2V27h-2v4.6c0,0.4,0.1,0.7,0.2,0.9c0.2,0.1,0.5,0.2,0.9,0.2c0.3,0,0.6,0,0.8-0.1v2
		c-0.2,0-0.5,0.1-0.8,0.1c-0.3,0-0.6,0-0.8,0c-0.4,0-0.8,0-1.2-0.1c-0.4-0.1-0.7-0.2-1-0.3c-0.3-0.2-0.5-0.4-0.7-0.7
		c-0.2-0.3-0.2-0.7-0.2-1.1V27h-1.6v-1.7h1.6v-2.8h2.7V25.3z"/>
	<path class="st0" d="M550,25.3h2.6V27h0c0.1-0.3,0.3-0.6,0.5-0.8c0.2-0.2,0.5-0.5,0.7-0.6c0.3-0.2,0.6-0.3,0.9-0.4s0.7-0.1,1-0.1
		c0.2,0,0.4,0,0.6,0.1v2.4c-0.1,0-0.3,0-0.5-0.1c-0.2,0-0.4,0-0.5,0c-0.5,0-0.9,0.1-1.3,0.2c-0.3,0.2-0.6,0.4-0.8,0.6
		s-0.4,0.6-0.4,1c-0.1,0.4-0.1,0.8-0.1,1.2v4.2H550V25.3z"/>
	<path class="st0" d="M561.4,30.5c0,0.8,0.3,1.4,0.7,1.8c0.4,0.4,1,0.6,1.8,0.6c0.5,0,1-0.1,1.4-0.4c0.4-0.3,0.6-0.5,0.7-0.8h2.4
		c-0.4,1.1-1,1.9-1.8,2.4c-0.8,0.5-1.7,0.7-2.9,0.7c-0.8,0-1.5-0.1-2.1-0.4c-0.6-0.2-1.2-0.6-1.6-1c-0.4-0.4-0.8-0.9-1-1.5
		c-0.2-0.6-0.4-1.3-0.4-2c0-0.7,0.1-1.3,0.4-1.9s0.6-1.1,1-1.6c0.4-0.4,1-0.8,1.6-1c0.6-0.3,1.3-0.4,2.1-0.4c0.8,0,1.6,0.2,2.2,0.5
		c0.6,0.3,1.1,0.7,1.5,1.2c0.4,0.5,0.7,1.1,0.9,1.8c0.2,0.7,0.2,1.3,0.2,2.1H561.4z M565.8,28.9c-0.1-0.6-0.4-1.1-0.7-1.5
		c-0.3-0.3-0.8-0.5-1.5-0.5c-0.4,0-0.8,0.1-1.1,0.2c-0.3,0.1-0.5,0.3-0.7,0.5c-0.2,0.2-0.3,0.4-0.4,0.6c-0.1,0.2-0.1,0.4-0.1,0.6
		H565.8z M564,24.1h-1.9l1.8-2.6h3L564,24.1z"/>
	<path class="st0" d="M573.8,31.5c0,0.3,0.1,0.5,0.2,0.7c0.1,0.2,0.3,0.4,0.5,0.5c0.2,0.1,0.4,0.2,0.7,0.3c0.2,0.1,0.5,0.1,0.8,0.1
		c0.2,0,0.4,0,0.6-0.1s0.4-0.1,0.6-0.2s0.3-0.2,0.4-0.4c0.1-0.1,0.2-0.3,0.2-0.6c0-0.2-0.1-0.4-0.2-0.5c-0.1-0.1-0.3-0.3-0.6-0.4
		c-0.3-0.1-0.6-0.2-1-0.3c-0.4-0.1-0.8-0.2-1.3-0.3c-0.4-0.1-0.8-0.2-1.2-0.3c-0.4-0.1-0.7-0.3-1-0.4c-0.3-0.2-0.5-0.4-0.7-0.7
		c-0.2-0.3-0.3-0.6-0.3-1c0-0.6,0.1-1.1,0.4-1.5c0.2-0.4,0.6-0.7,1-0.9c0.4-0.2,0.9-0.4,1.4-0.5s1-0.1,1.6-0.1s1.1,0,1.6,0.1
		c0.5,0.1,1,0.3,1.3,0.5c0.4,0.2,0.7,0.5,1,0.9c0.3,0.4,0.4,0.9,0.5,1.4h-2.6c0-0.5-0.2-0.8-0.6-1c-0.4-0.2-0.8-0.3-1.3-0.3
		c-0.2,0-0.3,0-0.5,0c-0.2,0-0.3,0.1-0.5,0.1s-0.3,0.1-0.4,0.3c-0.1,0.1-0.2,0.3-0.2,0.5c0,0.2,0.1,0.4,0.3,0.6
		c0.2,0.1,0.4,0.3,0.7,0.4c0.3,0.1,0.6,0.2,1,0.2c0.4,0.1,0.7,0.1,1.1,0.2c0.4,0.1,0.8,0.2,1.2,0.3c0.4,0.1,0.7,0.3,1,0.5
		c0.3,0.2,0.5,0.4,0.7,0.7c0.2,0.3,0.3,0.7,0.3,1.1c0,0.6-0.1,1.1-0.4,1.5c-0.3,0.4-0.6,0.7-1,1c-0.4,0.3-0.9,0.4-1.4,0.5
		c-0.5,0.1-1.1,0.2-1.7,0.2c-0.6,0-1.1-0.1-1.7-0.2s-1-0.3-1.5-0.5s-0.8-0.6-1.1-1c-0.3-0.4-0.4-0.9-0.4-1.5H573.8z"/>
	<path class="st0" d="M583.8,31.8h3v2.8h-3V31.8z"/>
	<path class="st0" d="M595.3,22.5c-0.4,0.3-0.8,0.7-1.1,1.2c-0.3,0.5-0.6,1-0.8,1.6c-0.2,0.6-0.4,1.1-0.5,1.7s-0.2,1.1-0.2,1.6h-1.7
		c0.1-1.1,0.4-2.1,0.8-3.2s1.1-1.9,1.8-2.8H590v-1.4h5.3V22.5z"/>
	<path class="st0" d="M597.4,26.9h1.7v1.6c0,0.2,0,0.5-0.1,0.7s-0.2,0.4-0.4,0.5s-0.3,0.3-0.6,0.4c-0.2,0.1-0.4,0.2-0.7,0.2v-0.8
		c0.1,0,0.2-0.1,0.3-0.1c0.1-0.1,0.2-0.1,0.3-0.2s0.1-0.2,0.2-0.3c0-0.1,0.1-0.2,0-0.3h-0.8V26.9z"/>
	<path class="st0" d="M601.3,23.1c0-0.3,0.1-0.6,0.2-0.9c0.2-0.3,0.4-0.5,0.6-0.6c0.2-0.2,0.5-0.3,0.8-0.4s0.6-0.1,0.9-0.1
		c0.5,0,0.9,0.1,1.2,0.2c0.3,0.1,0.6,0.3,0.8,0.5c0.2,0.2,0.4,0.4,0.4,0.6s0.1,0.4,0.1,0.6c0,0.4-0.1,0.7-0.3,1
		c-0.2,0.3-0.5,0.5-0.8,0.6v0c0.5,0.1,0.8,0.3,1.1,0.6c0.3,0.3,0.4,0.7,0.4,1.2c0,0.4-0.1,0.7-0.3,1s-0.4,0.5-0.7,0.7
		c-0.3,0.2-0.6,0.3-0.9,0.4c-0.3,0.1-0.7,0.1-1.1,0.1c-0.4,0-0.7,0-1.1-0.1c-0.4-0.1-0.7-0.2-0.9-0.4s-0.5-0.4-0.7-0.7
		c-0.2-0.3-0.3-0.6-0.3-1c0-0.5,0.1-0.9,0.4-1.2c0.3-0.3,0.6-0.5,1.1-0.6v0c-0.4-0.1-0.7-0.3-0.9-0.6
		C601.3,23.8,601.3,23.4,601.3,23.1z M602.5,26.3c0,0.2,0,0.4,0.1,0.5c0.1,0.2,0.2,0.3,0.3,0.4c0.1,0.1,0.3,0.2,0.4,0.3
		c0.2,0.1,0.3,0.1,0.5,0.1c0.2,0,0.4,0,0.5-0.1c0.2-0.1,0.3-0.1,0.4-0.3c0.1-0.1,0.2-0.2,0.3-0.4c0.1-0.2,0.1-0.3,0.1-0.5
		c0-0.2,0-0.3-0.1-0.5c-0.1-0.1-0.2-0.3-0.3-0.4c-0.1-0.1-0.3-0.2-0.4-0.2c-0.2-0.1-0.3-0.1-0.5-0.1c-0.4,0-0.7,0.1-1,0.3
		S602.5,26,602.5,26.3z M602.7,23.2c0,0.2,0,0.3,0.1,0.4s0.2,0.2,0.3,0.3s0.2,0.1,0.4,0.2c0.1,0,0.3,0.1,0.5,0.1
		c0.3,0,0.6-0.1,0.8-0.2s0.3-0.4,0.3-0.7c0-0.1,0-0.2,0-0.3c0-0.1-0.1-0.2-0.2-0.3c-0.1-0.1-0.2-0.2-0.4-0.3
		c-0.2-0.1-0.4-0.1-0.6-0.1c-0.3,0-0.6,0.1-0.8,0.3S602.7,22.9,602.7,23.2z"/>
</g>
</svg>
