<?xml version="1.0" standalone="no"?>
<svg xmlns="http://www.w3.org/2000/svg" version="1.1" width="258" height="258">
	<!-- Created with https://api.qrserver.com (QR Code API, see goQR.me/api for information) -->
	<title>QR Code</title>
	<desc>http://www.schwabepharma.mx/mobile/app/phito/ipp/vitanco/verification/72c159093fe1acda12f117ff652f268bd252742e.php</desc>
	<rect style="fill:rgb(255, 255, 255);fill-opacity:1" x="0" y="0" width="258" height="258" />
	<g id="elements">
		<path style="fill:rgb(0, 0, 0)" d="M 6,6 l 6,0 0,6 -6,0 z M 12,6 l 6,0 0,6 -6,0 z M 18,6 l 6,0 0,6 -6,0 z M 24,6 l 6,0 0,6 -6,0 z M 30,6 l 6,0 0,6 -6,0 z M 36,6 l 6,0 0,6 -6,0 z M 42,6 l 6,0 0,6 -6,0 z M 60,6 l 6,0 0,6 -6,0 z M 72,6 l 6,0 0,6 -6,0 z M 78,6 l 6,0 0,6 -6,0 z M 102,6 l 6,0 0,6 -6,0 z M 114,6 l 6,0 0,6 -6,0 z M 120,6 l 6,0 0,6 -6,0 z M 132,6 l 6,0 0,6 -6,0 z M 144,6 l 6,0 0,6 -6,0 z M 150,6 l 6,0 0,6 -6,0 z M 174,6 l 6,0 0,6 -6,0 z M 192,6 l 6,0 0,6 -6,0 z M 198,6 l 6,0 0,6 -6,0 z M 210,6 l 6,0 0,6 -6,0 z M 216,6 l 6,0 0,6 -6,0 z M 222,6 l 6,0 0,6 -6,0 z M 228,6 l 6,0 0,6 -6,0 z M 234,6 l 6,0 0,6 -6,0 z M 240,6 l 6,0 0,6 -6,0 z M 246,6 l 6,0 0,6 -6,0 z M 6,12 l 6,0 0,6 -6,0 z M 42,12 l 6,0 0,6 -6,0 z M 54,12 l 6,0 0,6 -6,0 z M 60,12 l 6,0 0,6 -6,0 z M 66,12 l 6,0 0,6 -6,0 z M 96,12 l 6,0 0,6 -6,0 z M 114,12 l 6,0 0,6 -6,0 z M 150,12 l 6,0 0,6 -6,0 z M 162,12 l 6,0 0,6 -6,0 z M 168,12 l 6,0 0,6 -6,0 z M 174,12 l 6,0 0,6 -6,0 z M 198,12 l 6,0 0,6 -6,0 z M 210,12 l 6,0 0,6 -6,0 z M 246,12 l 6,0 0,6 -6,0 z M 6,18 l 6,0 0,6 -6,0 z M 18,18 l 6,0 0,6 -6,0 z M 24,18 l 6,0 0,6 -6,0 z M 30,18 l 6,0 0,6 -6,0 z M 42,18 l 6,0 0,6 -6,0 z M 60,18 l 6,0 0,6 -6,0 z M 66,18 l 6,0 0,6 -6,0 z M 90,18 l 6,0 0,6 -6,0 z M 102,18 l 6,0 0,6 -6,0 z M 150,18 l 6,0 0,6 -6,0 z M 156,18 l 6,0 0,6 -6,0 z M 174,18 l 6,0 0,6 -6,0 z M 180,18 l 6,0 0,6 -6,0 z M 186,18 l 6,0 0,6 -6,0 z M 198,18 l 6,0 0,6 -6,0 z M 210,18 l 6,0 0,6 -6,0 z M 222,18 l 6,0 0,6 -6,0 z M 228,18 l 6,0 0,6 -6,0 z M 234,18 l 6,0 0,6 -6,0 z M 246,18 l 6,0 0,6 -6,0 z M 6,24 l 6,0 0,6 -6,0 z M 18,24 l 6,0 0,6 -6,0 z M 24,24 l 6,0 0,6 -6,0 z M 30,24 l 6,0 0,6 -6,0 z M 42,24 l 6,0 0,6 -6,0 z M 54,24 l 6,0 0,6 -6,0 z M 60,24 l 6,0 0,6 -6,0 z M 66,24 l 6,0 0,6 -6,0 z M 72,24 l 6,0 0,6 -6,0 z M 78,24 l 6,0 0,6 -6,0 z M 96,24 l 6,0 0,6 -6,0 z M 114,24 l 6,0 0,6 -6,0 z M 138,24 l 6,0 0,6 -6,0 z M 162,24 l 6,0 0,6 -6,0 z M 174,24 l 6,0 0,6 -6,0 z M 210,24 l 6,0 0,6 -6,0 z M 222,24 l 6,0 0,6 -6,0 z M 228,24 l 6,0 0,6 -6,0 z M 234,24 l 6,0 0,6 -6,0 z M 246,24 l 6,0 0,6 -6,0 z M 6,30 l 6,0 0,6 -6,0 z M 18,30 l 6,0 0,6 -6,0 z M 24,30 l 6,0 0,6 -6,0 z M 30,30 l 6,0 0,6 -6,0 z M 42,30 l 6,0 0,6 -6,0 z M 66,30 l 6,0 0,6 -6,0 z M 90,30 l 6,0 0,6 -6,0 z M 96,30 l 6,0 0,6 -6,0 z M 102,30 l 6,0 0,6 -6,0 z M 108,30 l 6,0 0,6 -6,0 z M 126,30 l 6,0 0,6 -6,0 z M 144,30 l 6,0 0,6 -6,0 z M 156,30 l 6,0 0,6 -6,0 z M 168,30 l 6,0 0,6 -6,0 z M 174,30 l 6,0 0,6 -6,0 z M 186,30 l 6,0 0,6 -6,0 z M 210,30 l 6,0 0,6 -6,0 z M 222,30 l 6,0 0,6 -6,0 z M 228,30 l 6,0 0,6 -6,0 z M 234,30 l 6,0 0,6 -6,0 z M 246,30 l 6,0 0,6 -6,0 z M 6,36 l 6,0 0,6 -6,0 z M 42,36 l 6,0 0,6 -6,0 z M 54,36 l 6,0 0,6 -6,0 z M 72,36 l 6,0 0,6 -6,0 z M 90,36 l 6,0 0,6 -6,0 z M 108,36 l 6,0 0,6 -6,0 z M 120,36 l 6,0 0,6 -6,0 z M 138,36 l 6,0 0,6 -6,0 z M 144,36 l 6,0 0,6 -6,0 z M 162,36 l 6,0 0,6 -6,0 z M 186,36 l 6,0 0,6 -6,0 z M 192,36 l 6,0 0,6 -6,0 z M 198,36 l 6,0 0,6 -6,0 z M 210,36 l 6,0 0,6 -6,0 z M 246,36 l 6,0 0,6 -6,0 z M 6,42 l 6,0 0,6 -6,0 z M 12,42 l 6,0 0,6 -6,0 z M 18,42 l 6,0 0,6 -6,0 z M 24,42 l 6,0 0,6 -6,0 z M 30,42 l 6,0 0,6 -6,0 z M 36,42 l 6,0 0,6 -6,0 z M 42,42 l 6,0 0,6 -6,0 z M 54,42 l 6,0 0,6 -6,0 z M 66,42 l 6,0 0,6 -6,0 z M 78,42 l 6,0 0,6 -6,0 z M 90,42 l 6,0 0,6 -6,0 z M 102,42 l 6,0 0,6 -6,0 z M 114,42 l 6,0 0,6 -6,0 z M 126,42 l 6,0 0,6 -6,0 z M 138,42 l 6,0 0,6 -6,0 z M 150,42 l 6,0 0,6 -6,0 z M 162,42 l 6,0 0,6 -6,0 z M 174,42 l 6,0 0,6 -6,0 z M 186,42 l 6,0 0,6 -6,0 z M 198,42 l 6,0 0,6 -6,0 z M 210,42 l 6,0 0,6 -6,0 z M 216,42 l 6,0 0,6 -6,0 z M 222,42 l 6,0 0,6 -6,0 z M 228,42 l 6,0 0,6 -6,0 z M 234,42 l 6,0 0,6 -6,0 z M 240,42 l 6,0 0,6 -6,0 z M 246,42 l 6,0 0,6 -6,0 z M 60,48 l 6,0 0,6 -6,0 z M 72,48 l 6,0 0,6 -6,0 z M 78,48 l 6,0 0,6 -6,0 z M 90,48 l 6,0 0,6 -6,0 z M 102,48 l 6,0 0,6 -6,0 z M 120,48 l 6,0 0,6 -6,0 z M 126,48 l 6,0 0,6 -6,0 z M 132,48 l 6,0 0,6 -6,0 z M 138,48 l 6,0 0,6 -6,0 z M 144,48 l 6,0 0,6 -6,0 z M 150,48 l 6,0 0,6 -6,0 z M 162,48 l 6,0 0,6 -6,0 z M 168,48 l 6,0 0,6 -6,0 z M 186,48 l 6,0 0,6 -6,0 z M 6,54 l 6,0 0,6 -6,0 z M 12,54 l 6,0 0,6 -6,0 z M 18,54 l 6,0 0,6 -6,0 z M 24,54 l 6,0 0,6 -6,0 z M 30,54 l 6,0 0,6 -6,0 z M 42,54 l 6,0 0,6 -6,0 z M 48,54 l 6,0 0,6 -6,0 z M 54,54 l 6,0 0,6 -6,0 z M 60,54 l 6,0 0,6 -6,0 z M 72,54 l 6,0 0,6 -6,0 z M 78,54 l 6,0 0,6 -6,0 z M 84,54 l 6,0 0,6 -6,0 z M 90,54 l 6,0 0,6 -6,0 z M 102,54 l 6,0 0,6 -6,0 z M 108,54 l 6,0 0,6 -6,0 z M 120,54 l 6,0 0,6 -6,0 z M 126,54 l 6,0 0,6 -6,0 z M 138,54 l 6,0 0,6 -6,0 z M 156,54 l 6,0 0,6 -6,0 z M 162,54 l 6,0 0,6 -6,0 z M 180,54 l 6,0 0,6 -6,0 z M 204,54 l 6,0 0,6 -6,0 z M 216,54 l 6,0 0,6 -6,0 z M 228,54 l 6,0 0,6 -6,0 z M 240,54 l 6,0 0,6 -6,0 z M 12,60 l 6,0 0,6 -6,0 z M 18,60 l 6,0 0,6 -6,0 z M 30,60 l 6,0 0,6 -6,0 z M 36,60 l 6,0 0,6 -6,0 z M 54,60 l 6,0 0,6 -6,0 z M 66,60 l 6,0 0,6 -6,0 z M 72,60 l 6,0 0,6 -6,0 z M 84,60 l 6,0 0,6 -6,0 z M 90,60 l 6,0 0,6 -6,0 z M 102,60 l 6,0 0,6 -6,0 z M 108,60 l 6,0 0,6 -6,0 z M 120,60 l 6,0 0,6 -6,0 z M 126,60 l 6,0 0,6 -6,0 z M 132,60 l 6,0 0,6 -6,0 z M 138,60 l 6,0 0,6 -6,0 z M 144,60 l 6,0 0,6 -6,0 z M 156,60 l 6,0 0,6 -6,0 z M 186,60 l 6,0 0,6 -6,0 z M 192,60 l 6,0 0,6 -6,0 z M 198,60 l 6,0 0,6 -6,0 z M 204,60 l 6,0 0,6 -6,0 z M 210,60 l 6,0 0,6 -6,0 z M 222,60 l 6,0 0,6 -6,0 z M 228,60 l 6,0 0,6 -6,0 z M 246,60 l 6,0 0,6 -6,0 z M 12,66 l 6,0 0,6 -6,0 z M 18,66 l 6,0 0,6 -6,0 z M 42,66 l 6,0 0,6 -6,0 z M 60,66 l 6,0 0,6 -6,0 z M 66,66 l 6,0 0,6 -6,0 z M 78,66 l 6,0 0,6 -6,0 z M 84,66 l 6,0 0,6 -6,0 z M 90,66 l 6,0 0,6 -6,0 z M 96,66 l 6,0 0,6 -6,0 z M 102,66 l 6,0 0,6 -6,0 z M 108,66 l 6,0 0,6 -6,0 z M 138,66 l 6,0 0,6 -6,0 z M 150,66 l 6,0 0,6 -6,0 z M 168,66 l 6,0 0,6 -6,0 z M 204,66 l 6,0 0,6 -6,0 z M 216,66 l 6,0 0,6 -6,0 z M 240,66 l 6,0 0,6 -6,0 z M 18,72 l 6,0 0,6 -6,0 z M 24,72 l 6,0 0,6 -6,0 z M 30,72 l 6,0 0,6 -6,0 z M 66,72 l 6,0 0,6 -6,0 z M 72,72 l 6,0 0,6 -6,0 z M 78,72 l 6,0 0,6 -6,0 z M 84,72 l 6,0 0,6 -6,0 z M 102,72 l 6,0 0,6 -6,0 z M 108,72 l 6,0 0,6 -6,0 z M 114,72 l 6,0 0,6 -6,0 z M 132,72 l 6,0 0,6 -6,0 z M 150,72 l 6,0 0,6 -6,0 z M 156,72 l 6,0 0,6 -6,0 z M 162,72 l 6,0 0,6 -6,0 z M 168,72 l 6,0 0,6 -6,0 z M 180,72 l 6,0 0,6 -6,0 z M 186,72 l 6,0 0,6 -6,0 z M 192,72 l 6,0 0,6 -6,0 z M 204,72 l 6,0 0,6 -6,0 z M 216,72 l 6,0 0,6 -6,0 z M 222,72 l 6,0 0,6 -6,0 z M 228,72 l 6,0 0,6 -6,0 z M 246,72 l 6,0 0,6 -6,0 z M 18,78 l 6,0 0,6 -6,0 z M 36,78 l 6,0 0,6 -6,0 z M 42,78 l 6,0 0,6 -6,0 z M 48,78 l 6,0 0,6 -6,0 z M 54,78 l 6,0 0,6 -6,0 z M 90,78 l 6,0 0,6 -6,0 z M 102,78 l 6,0 0,6 -6,0 z M 132,78 l 6,0 0,6 -6,0 z M 138,78 l 6,0 0,6 -6,0 z M 150,78 l 6,0 0,6 -6,0 z M 174,78 l 6,0 0,6 -6,0 z M 198,78 l 6,0 0,6 -6,0 z M 216,78 l 6,0 0,6 -6,0 z M 222,78 l 6,0 0,6 -6,0 z M 228,78 l 6,0 0,6 -6,0 z M 234,78 l 6,0 0,6 -6,0 z M 246,78 l 6,0 0,6 -6,0 z M 6,84 l 6,0 0,6 -6,0 z M 12,84 l 6,0 0,6 -6,0 z M 24,84 l 6,0 0,6 -6,0 z M 30,84 l 6,0 0,6 -6,0 z M 36,84 l 6,0 0,6 -6,0 z M 48,84 l 6,0 0,6 -6,0 z M 60,84 l 6,0 0,6 -6,0 z M 66,84 l 6,0 0,6 -6,0 z M 78,84 l 6,0 0,6 -6,0 z M 96,84 l 6,0 0,6 -6,0 z M 114,84 l 6,0 0,6 -6,0 z M 132,84 l 6,0 0,6 -6,0 z M 144,84 l 6,0 0,6 -6,0 z M 156,84 l 6,0 0,6 -6,0 z M 162,84 l 6,0 0,6 -6,0 z M 168,84 l 6,0 0,6 -6,0 z M 174,84 l 6,0 0,6 -6,0 z M 180,84 l 6,0 0,6 -6,0 z M 186,84 l 6,0 0,6 -6,0 z M 204,84 l 6,0 0,6 -6,0 z M 210,84 l 6,0 0,6 -6,0 z M 216,84 l 6,0 0,6 -6,0 z M 222,84 l 6,0 0,6 -6,0 z M 228,84 l 6,0 0,6 -6,0 z M 246,84 l 6,0 0,6 -6,0 z M 18,90 l 6,0 0,6 -6,0 z M 24,90 l 6,0 0,6 -6,0 z M 30,90 l 6,0 0,6 -6,0 z M 42,90 l 6,0 0,6 -6,0 z M 54,90 l 6,0 0,6 -6,0 z M 66,90 l 6,0 0,6 -6,0 z M 84,90 l 6,0 0,6 -6,0 z M 96,90 l 6,0 0,6 -6,0 z M 102,90 l 6,0 0,6 -6,0 z M 108,90 l 6,0 0,6 -6,0 z M 132,90 l 6,0 0,6 -6,0 z M 150,90 l 6,0 0,6 -6,0 z M 156,90 l 6,0 0,6 -6,0 z M 162,90 l 6,0 0,6 -6,0 z M 186,90 l 6,0 0,6 -6,0 z M 192,90 l 6,0 0,6 -6,0 z M 198,90 l 6,0 0,6 -6,0 z M 210,90 l 6,0 0,6 -6,0 z M 216,90 l 6,0 0,6 -6,0 z M 228,90 l 6,0 0,6 -6,0 z M 234,90 l 6,0 0,6 -6,0 z M 12,96 l 6,0 0,6 -6,0 z M 24,96 l 6,0 0,6 -6,0 z M 30,96 l 6,0 0,6 -6,0 z M 36,96 l 6,0 0,6 -6,0 z M 78,96 l 6,0 0,6 -6,0 z M 96,96 l 6,0 0,6 -6,0 z M 114,96 l 6,0 0,6 -6,0 z M 132,96 l 6,0 0,6 -6,0 z M 150,96 l 6,0 0,6 -6,0 z M 162,96 l 6,0 0,6 -6,0 z M 168,96 l 6,0 0,6 -6,0 z M 186,96 l 6,0 0,6 -6,0 z M 198,96 l 6,0 0,6 -6,0 z M 204,96 l 6,0 0,6 -6,0 z M 210,96 l 6,0 0,6 -6,0 z M 216,96 l 6,0 0,6 -6,0 z M 222,96 l 6,0 0,6 -6,0 z M 240,96 l 6,0 0,6 -6,0 z M 6,102 l 6,0 0,6 -6,0 z M 12,102 l 6,0 0,6 -6,0 z M 18,102 l 6,0 0,6 -6,0 z M 24,102 l 6,0 0,6 -6,0 z M 30,102 l 6,0 0,6 -6,0 z M 36,102 l 6,0 0,6 -6,0 z M 42,102 l 6,0 0,6 -6,0 z M 78,102 l 6,0 0,6 -6,0 z M 84,102 l 6,0 0,6 -6,0 z M 90,102 l 6,0 0,6 -6,0 z M 96,102 l 6,0 0,6 -6,0 z M 108,102 l 6,0 0,6 -6,0 z M 126,102 l 6,0 0,6 -6,0 z M 138,102 l 6,0 0,6 -6,0 z M 156,102 l 6,0 0,6 -6,0 z M 162,102 l 6,0 0,6 -6,0 z M 174,102 l 6,0 0,6 -6,0 z M 180,102 l 6,0 0,6 -6,0 z M 192,102 l 6,0 0,6 -6,0 z M 216,102 l 6,0 0,6 -6,0 z M 228,102 l 6,0 0,6 -6,0 z M 234,102 l 6,0 0,6 -6,0 z M 18,108 l 6,0 0,6 -6,0 z M 30,108 l 6,0 0,6 -6,0 z M 60,108 l 6,0 0,6 -6,0 z M 66,108 l 6,0 0,6 -6,0 z M 72,108 l 6,0 0,6 -6,0 z M 114,108 l 6,0 0,6 -6,0 z M 120,108 l 6,0 0,6 -6,0 z M 126,108 l 6,0 0,6 -6,0 z M 132,108 l 6,0 0,6 -6,0 z M 144,108 l 6,0 0,6 -6,0 z M 156,108 l 6,0 0,6 -6,0 z M 174,108 l 6,0 0,6 -6,0 z M 180,108 l 6,0 0,6 -6,0 z M 186,108 l 6,0 0,6 -6,0 z M 192,108 l 6,0 0,6 -6,0 z M 198,108 l 6,0 0,6 -6,0 z M 210,108 l 6,0 0,6 -6,0 z M 216,108 l 6,0 0,6 -6,0 z M 222,108 l 6,0 0,6 -6,0 z M 240,108 l 6,0 0,6 -6,0 z M 246,108 l 6,0 0,6 -6,0 z M 6,114 l 6,0 0,6 -6,0 z M 18,114 l 6,0 0,6 -6,0 z M 24,114 l 6,0 0,6 -6,0 z M 30,114 l 6,0 0,6 -6,0 z M 36,114 l 6,0 0,6 -6,0 z M 42,114 l 6,0 0,6 -6,0 z M 48,114 l 6,0 0,6 -6,0 z M 78,114 l 6,0 0,6 -6,0 z M 96,114 l 6,0 0,6 -6,0 z M 102,114 l 6,0 0,6 -6,0 z M 114,114 l 6,0 0,6 -6,0 z M 126,114 l 6,0 0,6 -6,0 z M 132,114 l 6,0 0,6 -6,0 z M 168,114 l 6,0 0,6 -6,0 z M 174,114 l 6,0 0,6 -6,0 z M 186,114 l 6,0 0,6 -6,0 z M 198,114 l 6,0 0,6 -6,0 z M 204,114 l 6,0 0,6 -6,0 z M 216,114 l 6,0 0,6 -6,0 z M 240,114 l 6,0 0,6 -6,0 z M 18,120 l 6,0 0,6 -6,0 z M 48,120 l 6,0 0,6 -6,0 z M 66,120 l 6,0 0,6 -6,0 z M 90,120 l 6,0 0,6 -6,0 z M 102,120 l 6,0 0,6 -6,0 z M 132,120 l 6,0 0,6 -6,0 z M 150,120 l 6,0 0,6 -6,0 z M 156,120 l 6,0 0,6 -6,0 z M 168,120 l 6,0 0,6 -6,0 z M 174,120 l 6,0 0,6 -6,0 z M 180,120 l 6,0 0,6 -6,0 z M 216,120 l 6,0 0,6 -6,0 z M 222,120 l 6,0 0,6 -6,0 z M 240,120 l 6,0 0,6 -6,0 z M 246,120 l 6,0 0,6 -6,0 z M 6,126 l 6,0 0,6 -6,0 z M 18,126 l 6,0 0,6 -6,0 z M 24,126 l 6,0 0,6 -6,0 z M 30,126 l 6,0 0,6 -6,0 z M 36,126 l 6,0 0,6 -6,0 z M 42,126 l 6,0 0,6 -6,0 z M 48,126 l 6,0 0,6 -6,0 z M 66,126 l 6,0 0,6 -6,0 z M 78,126 l 6,0 0,6 -6,0 z M 114,126 l 6,0 0,6 -6,0 z M 120,126 l 6,0 0,6 -6,0 z M 132,126 l 6,0 0,6 -6,0 z M 138,126 l 6,0 0,6 -6,0 z M 150,126 l 6,0 0,6 -6,0 z M 162,126 l 6,0 0,6 -6,0 z M 174,126 l 6,0 0,6 -6,0 z M 186,126 l 6,0 0,6 -6,0 z M 204,126 l 6,0 0,6 -6,0 z M 210,126 l 6,0 0,6 -6,0 z M 216,126 l 6,0 0,6 -6,0 z M 222,126 l 6,0 0,6 -6,0 z M 228,126 l 6,0 0,6 -6,0 z M 234,126 l 6,0 0,6 -6,0 z M 246,126 l 6,0 0,6 -6,0 z M 12,132 l 6,0 0,6 -6,0 z M 24,132 l 6,0 0,6 -6,0 z M 36,132 l 6,0 0,6 -6,0 z M 54,132 l 6,0 0,6 -6,0 z M 84,132 l 6,0 0,6 -6,0 z M 90,132 l 6,0 0,6 -6,0 z M 96,132 l 6,0 0,6 -6,0 z M 102,132 l 6,0 0,6 -6,0 z M 108,132 l 6,0 0,6 -6,0 z M 138,132 l 6,0 0,6 -6,0 z M 168,132 l 6,0 0,6 -6,0 z M 222,132 l 6,0 0,6 -6,0 z M 246,132 l 6,0 0,6 -6,0 z M 12,138 l 6,0 0,6 -6,0 z M 18,138 l 6,0 0,6 -6,0 z M 24,138 l 6,0 0,6 -6,0 z M 36,138 l 6,0 0,6 -6,0 z M 42,138 l 6,0 0,6 -6,0 z M 54,138 l 6,0 0,6 -6,0 z M 66,138 l 6,0 0,6 -6,0 z M 72,138 l 6,0 0,6 -6,0 z M 78,138 l 6,0 0,6 -6,0 z M 114,138 l 6,0 0,6 -6,0 z M 126,138 l 6,0 0,6 -6,0 z M 132,138 l 6,0 0,6 -6,0 z M 150,138 l 6,0 0,6 -6,0 z M 156,138 l 6,0 0,6 -6,0 z M 174,138 l 6,0 0,6 -6,0 z M 186,138 l 6,0 0,6 -6,0 z M 192,138 l 6,0 0,6 -6,0 z M 198,138 l 6,0 0,6 -6,0 z M 204,138 l 6,0 0,6 -6,0 z M 216,138 l 6,0 0,6 -6,0 z M 234,138 l 6,0 0,6 -6,0 z M 12,144 l 6,0 0,6 -6,0 z M 18,144 l 6,0 0,6 -6,0 z M 24,144 l 6,0 0,6 -6,0 z M 36,144 l 6,0 0,6 -6,0 z M 48,144 l 6,0 0,6 -6,0 z M 72,144 l 6,0 0,6 -6,0 z M 90,144 l 6,0 0,6 -6,0 z M 102,144 l 6,0 0,6 -6,0 z M 120,144 l 6,0 0,6 -6,0 z M 126,144 l 6,0 0,6 -6,0 z M 132,144 l 6,0 0,6 -6,0 z M 150,144 l 6,0 0,6 -6,0 z M 168,144 l 6,0 0,6 -6,0 z M 198,144 l 6,0 0,6 -6,0 z M 210,144 l 6,0 0,6 -6,0 z M 216,144 l 6,0 0,6 -6,0 z M 228,144 l 6,0 0,6 -6,0 z M 240,144 l 6,0 0,6 -6,0 z M 18,150 l 6,0 0,6 -6,0 z M 24,150 l 6,0 0,6 -6,0 z M 30,150 l 6,0 0,6 -6,0 z M 36,150 l 6,0 0,6 -6,0 z M 42,150 l 6,0 0,6 -6,0 z M 48,150 l 6,0 0,6 -6,0 z M 54,150 l 6,0 0,6 -6,0 z M 66,150 l 6,0 0,6 -6,0 z M 72,150 l 6,0 0,6 -6,0 z M 84,150 l 6,0 0,6 -6,0 z M 90,150 l 6,0 0,6 -6,0 z M 108,150 l 6,0 0,6 -6,0 z M 138,150 l 6,0 0,6 -6,0 z M 150,150 l 6,0 0,6 -6,0 z M 156,150 l 6,0 0,6 -6,0 z M 162,150 l 6,0 0,6 -6,0 z M 180,150 l 6,0 0,6 -6,0 z M 216,150 l 6,0 0,6 -6,0 z M 234,150 l 6,0 0,6 -6,0 z M 240,150 l 6,0 0,6 -6,0 z M 246,150 l 6,0 0,6 -6,0 z M 18,156 l 6,0 0,6 -6,0 z M 30,156 l 6,0 0,6 -6,0 z M 54,156 l 6,0 0,6 -6,0 z M 66,156 l 6,0 0,6 -6,0 z M 72,156 l 6,0 0,6 -6,0 z M 84,156 l 6,0 0,6 -6,0 z M 102,156 l 6,0 0,6 -6,0 z M 108,156 l 6,0 0,6 -6,0 z M 120,156 l 6,0 0,6 -6,0 z M 126,156 l 6,0 0,6 -6,0 z M 132,156 l 6,0 0,6 -6,0 z M 144,156 l 6,0 0,6 -6,0 z M 156,156 l 6,0 0,6 -6,0 z M 174,156 l 6,0 0,6 -6,0 z M 180,156 l 6,0 0,6 -6,0 z M 192,156 l 6,0 0,6 -6,0 z M 198,156 l 6,0 0,6 -6,0 z M 204,156 l 6,0 0,6 -6,0 z M 210,156 l 6,0 0,6 -6,0 z M 216,156 l 6,0 0,6 -6,0 z M 222,156 l 6,0 0,6 -6,0 z M 234,156 l 6,0 0,6 -6,0 z M 240,156 l 6,0 0,6 -6,0 z M 246,156 l 6,0 0,6 -6,0 z M 6,162 l 6,0 0,6 -6,0 z M 12,162 l 6,0 0,6 -6,0 z M 42,162 l 6,0 0,6 -6,0 z M 48,162 l 6,0 0,6 -6,0 z M 66,162 l 6,0 0,6 -6,0 z M 84,162 l 6,0 0,6 -6,0 z M 90,162 l 6,0 0,6 -6,0 z M 96,162 l 6,0 0,6 -6,0 z M 102,162 l 6,0 0,6 -6,0 z M 108,162 l 6,0 0,6 -6,0 z M 126,162 l 6,0 0,6 -6,0 z M 138,162 l 6,0 0,6 -6,0 z M 168,162 l 6,0 0,6 -6,0 z M 186,162 l 6,0 0,6 -6,0 z M 198,162 l 6,0 0,6 -6,0 z M 204,162 l 6,0 0,6 -6,0 z M 210,162 l 6,0 0,6 -6,0 z M 216,162 l 6,0 0,6 -6,0 z M 234,162 l 6,0 0,6 -6,0 z M 6,168 l 6,0 0,6 -6,0 z M 12,168 l 6,0 0,6 -6,0 z M 24,168 l 6,0 0,6 -6,0 z M 36,168 l 6,0 0,6 -6,0 z M 78,168 l 6,0 0,6 -6,0 z M 84,168 l 6,0 0,6 -6,0 z M 108,168 l 6,0 0,6 -6,0 z M 114,168 l 6,0 0,6 -6,0 z M 120,168 l 6,0 0,6 -6,0 z M 126,168 l 6,0 0,6 -6,0 z M 132,168 l 6,0 0,6 -6,0 z M 144,168 l 6,0 0,6 -6,0 z M 156,168 l 6,0 0,6 -6,0 z M 174,168 l 6,0 0,6 -6,0 z M 180,168 l 6,0 0,6 -6,0 z M 186,168 l 6,0 0,6 -6,0 z M 192,168 l 6,0 0,6 -6,0 z M 198,168 l 6,0 0,6 -6,0 z M 216,168 l 6,0 0,6 -6,0 z M 222,168 l 6,0 0,6 -6,0 z M 246,168 l 6,0 0,6 -6,0 z M 12,174 l 6,0 0,6 -6,0 z M 18,174 l 6,0 0,6 -6,0 z M 24,174 l 6,0 0,6 -6,0 z M 36,174 l 6,0 0,6 -6,0 z M 42,174 l 6,0 0,6 -6,0 z M 48,174 l 6,0 0,6 -6,0 z M 54,174 l 6,0 0,6 -6,0 z M 66,174 l 6,0 0,6 -6,0 z M 90,174 l 6,0 0,6 -6,0 z M 96,174 l 6,0 0,6 -6,0 z M 102,174 l 6,0 0,6 -6,0 z M 120,174 l 6,0 0,6 -6,0 z M 132,174 l 6,0 0,6 -6,0 z M 138,174 l 6,0 0,6 -6,0 z M 144,174 l 6,0 0,6 -6,0 z M 162,174 l 6,0 0,6 -6,0 z M 174,174 l 6,0 0,6 -6,0 z M 204,174 l 6,0 0,6 -6,0 z M 210,174 l 6,0 0,6 -6,0 z M 216,174 l 6,0 0,6 -6,0 z M 222,174 l 6,0 0,6 -6,0 z M 234,174 l 6,0 0,6 -6,0 z M 246,174 l 6,0 0,6 -6,0 z M 6,180 l 6,0 0,6 -6,0 z M 12,180 l 6,0 0,6 -6,0 z M 18,180 l 6,0 0,6 -6,0 z M 30,180 l 6,0 0,6 -6,0 z M 36,180 l 6,0 0,6 -6,0 z M 48,180 l 6,0 0,6 -6,0 z M 60,180 l 6,0 0,6 -6,0 z M 66,180 l 6,0 0,6 -6,0 z M 78,180 l 6,0 0,6 -6,0 z M 96,180 l 6,0 0,6 -6,0 z M 114,180 l 6,0 0,6 -6,0 z M 138,180 l 6,0 0,6 -6,0 z M 150,180 l 6,0 0,6 -6,0 z M 156,180 l 6,0 0,6 -6,0 z M 162,180 l 6,0 0,6 -6,0 z M 168,180 l 6,0 0,6 -6,0 z M 186,180 l 6,0 0,6 -6,0 z M 240,180 l 6,0 0,6 -6,0 z M 246,180 l 6,0 0,6 -6,0 z M 6,186 l 6,0 0,6 -6,0 z M 42,186 l 6,0 0,6 -6,0 z M 48,186 l 6,0 0,6 -6,0 z M 60,186 l 6,0 0,6 -6,0 z M 66,186 l 6,0 0,6 -6,0 z M 84,186 l 6,0 0,6 -6,0 z M 90,186 l 6,0 0,6 -6,0 z M 96,186 l 6,0 0,6 -6,0 z M 102,186 l 6,0 0,6 -6,0 z M 120,186 l 6,0 0,6 -6,0 z M 132,186 l 6,0 0,6 -6,0 z M 144,186 l 6,0 0,6 -6,0 z M 174,186 l 6,0 0,6 -6,0 z M 180,186 l 6,0 0,6 -6,0 z M 186,186 l 6,0 0,6 -6,0 z M 192,186 l 6,0 0,6 -6,0 z M 198,186 l 6,0 0,6 -6,0 z M 204,186 l 6,0 0,6 -6,0 z M 222,186 l 6,0 0,6 -6,0 z M 228,186 l 6,0 0,6 -6,0 z M 234,186 l 6,0 0,6 -6,0 z M 6,192 l 6,0 0,6 -6,0 z M 24,192 l 6,0 0,6 -6,0 z M 30,192 l 6,0 0,6 -6,0 z M 48,192 l 6,0 0,6 -6,0 z M 66,192 l 6,0 0,6 -6,0 z M 78,192 l 6,0 0,6 -6,0 z M 96,192 l 6,0 0,6 -6,0 z M 114,192 l 6,0 0,6 -6,0 z M 120,192 l 6,0 0,6 -6,0 z M 126,192 l 6,0 0,6 -6,0 z M 132,192 l 6,0 0,6 -6,0 z M 138,192 l 6,0 0,6 -6,0 z M 150,192 l 6,0 0,6 -6,0 z M 162,192 l 6,0 0,6 -6,0 z M 168,192 l 6,0 0,6 -6,0 z M 174,192 l 6,0 0,6 -6,0 z M 186,192 l 6,0 0,6 -6,0 z M 198,192 l 6,0 0,6 -6,0 z M 210,192 l 6,0 0,6 -6,0 z M 6,198 l 6,0 0,6 -6,0 z M 18,198 l 6,0 0,6 -6,0 z M 36,198 l 6,0 0,6 -6,0 z M 42,198 l 6,0 0,6 -6,0 z M 66,198 l 6,0 0,6 -6,0 z M 78,198 l 6,0 0,6 -6,0 z M 84,198 l 6,0 0,6 -6,0 z M 90,198 l 6,0 0,6 -6,0 z M 96,198 l 6,0 0,6 -6,0 z M 108,198 l 6,0 0,6 -6,0 z M 138,198 l 6,0 0,6 -6,0 z M 144,198 l 6,0 0,6 -6,0 z M 150,198 l 6,0 0,6 -6,0 z M 156,198 l 6,0 0,6 -6,0 z M 162,198 l 6,0 0,6 -6,0 z M 180,198 l 6,0 0,6 -6,0 z M 198,198 l 6,0 0,6 -6,0 z M 204,198 l 6,0 0,6 -6,0 z M 210,198 l 6,0 0,6 -6,0 z M 216,198 l 6,0 0,6 -6,0 z M 222,198 l 6,0 0,6 -6,0 z M 228,198 l 6,0 0,6 -6,0 z M 240,198 l 6,0 0,6 -6,0 z M 246,198 l 6,0 0,6 -6,0 z M 54,204 l 6,0 0,6 -6,0 z M 60,204 l 6,0 0,6 -6,0 z M 72,204 l 6,0 0,6 -6,0 z M 102,204 l 6,0 0,6 -6,0 z M 114,204 l 6,0 0,6 -6,0 z M 120,204 l 6,0 0,6 -6,0 z M 132,204 l 6,0 0,6 -6,0 z M 138,204 l 6,0 0,6 -6,0 z M 144,204 l 6,0 0,6 -6,0 z M 150,204 l 6,0 0,6 -6,0 z M 156,204 l 6,0 0,6 -6,0 z M 186,204 l 6,0 0,6 -6,0 z M 192,204 l 6,0 0,6 -6,0 z M 198,204 l 6,0 0,6 -6,0 z M 222,204 l 6,0 0,6 -6,0 z M 228,204 l 6,0 0,6 -6,0 z M 234,204 l 6,0 0,6 -6,0 z M 240,204 l 6,0 0,6 -6,0 z M 246,204 l 6,0 0,6 -6,0 z M 6,210 l 6,0 0,6 -6,0 z M 12,210 l 6,0 0,6 -6,0 z M 18,210 l 6,0 0,6 -6,0 z M 24,210 l 6,0 0,6 -6,0 z M 30,210 l 6,0 0,6 -6,0 z M 36,210 l 6,0 0,6 -6,0 z M 42,210 l 6,0 0,6 -6,0 z M 54,210 l 6,0 0,6 -6,0 z M 60,210 l 6,0 0,6 -6,0 z M 66,210 l 6,0 0,6 -6,0 z M 96,210 l 6,0 0,6 -6,0 z M 114,210 l 6,0 0,6 -6,0 z M 126,210 l 6,0 0,6 -6,0 z M 168,210 l 6,0 0,6 -6,0 z M 174,210 l 6,0 0,6 -6,0 z M 192,210 l 6,0 0,6 -6,0 z M 198,210 l 6,0 0,6 -6,0 z M 210,210 l 6,0 0,6 -6,0 z M 222,210 l 6,0 0,6 -6,0 z M 228,210 l 6,0 0,6 -6,0 z M 234,210 l 6,0 0,6 -6,0 z M 6,216 l 6,0 0,6 -6,0 z M 42,216 l 6,0 0,6 -6,0 z M 66,216 l 6,0 0,6 -6,0 z M 72,216 l 6,0 0,6 -6,0 z M 78,216 l 6,0 0,6 -6,0 z M 90,216 l 6,0 0,6 -6,0 z M 102,216 l 6,0 0,6 -6,0 z M 120,216 l 6,0 0,6 -6,0 z M 126,216 l 6,0 0,6 -6,0 z M 156,216 l 6,0 0,6 -6,0 z M 168,216 l 6,0 0,6 -6,0 z M 180,216 l 6,0 0,6 -6,0 z M 186,216 l 6,0 0,6 -6,0 z M 192,216 l 6,0 0,6 -6,0 z M 198,216 l 6,0 0,6 -6,0 z M 222,216 l 6,0 0,6 -6,0 z M 6,222 l 6,0 0,6 -6,0 z M 18,222 l 6,0 0,6 -6,0 z M 24,222 l 6,0 0,6 -6,0 z M 30,222 l 6,0 0,6 -6,0 z M 42,222 l 6,0 0,6 -6,0 z M 54,222 l 6,0 0,6 -6,0 z M 66,222 l 6,0 0,6 -6,0 z M 78,222 l 6,0 0,6 -6,0 z M 114,222 l 6,0 0,6 -6,0 z M 120,222 l 6,0 0,6 -6,0 z M 138,222 l 6,0 0,6 -6,0 z M 150,222 l 6,0 0,6 -6,0 z M 156,222 l 6,0 0,6 -6,0 z M 162,222 l 6,0 0,6 -6,0 z M 168,222 l 6,0 0,6 -6,0 z M 174,222 l 6,0 0,6 -6,0 z M 198,222 l 6,0 0,6 -6,0 z M 204,222 l 6,0 0,6 -6,0 z M 210,222 l 6,0 0,6 -6,0 z M 216,222 l 6,0 0,6 -6,0 z M 222,222 l 6,0 0,6 -6,0 z M 234,222 l 6,0 0,6 -6,0 z M 240,222 l 6,0 0,6 -6,0 z M 246,222 l 6,0 0,6 -6,0 z M 6,228 l 6,0 0,6 -6,0 z M 18,228 l 6,0 0,6 -6,0 z M 24,228 l 6,0 0,6 -6,0 z M 30,228 l 6,0 0,6 -6,0 z M 42,228 l 6,0 0,6 -6,0 z M 54,228 l 6,0 0,6 -6,0 z M 84,228 l 6,0 0,6 -6,0 z M 90,228 l 6,0 0,6 -6,0 z M 96,228 l 6,0 0,6 -6,0 z M 102,228 l 6,0 0,6 -6,0 z M 132,228 l 6,0 0,6 -6,0 z M 150,228 l 6,0 0,6 -6,0 z M 156,228 l 6,0 0,6 -6,0 z M 168,228 l 6,0 0,6 -6,0 z M 174,228 l 6,0 0,6 -6,0 z M 180,228 l 6,0 0,6 -6,0 z M 186,228 l 6,0 0,6 -6,0 z M 216,228 l 6,0 0,6 -6,0 z M 240,228 l 6,0 0,6 -6,0 z M 6,234 l 6,0 0,6 -6,0 z M 18,234 l 6,0 0,6 -6,0 z M 24,234 l 6,0 0,6 -6,0 z M 30,234 l 6,0 0,6 -6,0 z M 42,234 l 6,0 0,6 -6,0 z M 54,234 l 6,0 0,6 -6,0 z M 60,234 l 6,0 0,6 -6,0 z M 66,234 l 6,0 0,6 -6,0 z M 72,234 l 6,0 0,6 -6,0 z M 78,234 l 6,0 0,6 -6,0 z M 114,234 l 6,0 0,6 -6,0 z M 126,234 l 6,0 0,6 -6,0 z M 132,234 l 6,0 0,6 -6,0 z M 138,234 l 6,0 0,6 -6,0 z M 144,234 l 6,0 0,6 -6,0 z M 162,234 l 6,0 0,6 -6,0 z M 198,234 l 6,0 0,6 -6,0 z M 204,234 l 6,0 0,6 -6,0 z M 210,234 l 6,0 0,6 -6,0 z M 216,234 l 6,0 0,6 -6,0 z M 222,234 l 6,0 0,6 -6,0 z M 6,240 l 6,0 0,6 -6,0 z M 42,240 l 6,0 0,6 -6,0 z M 54,240 l 6,0 0,6 -6,0 z M 72,240 l 6,0 0,6 -6,0 z M 90,240 l 6,0 0,6 -6,0 z M 102,240 l 6,0 0,6 -6,0 z M 120,240 l 6,0 0,6 -6,0 z M 126,240 l 6,0 0,6 -6,0 z M 132,240 l 6,0 0,6 -6,0 z M 150,240 l 6,0 0,6 -6,0 z M 168,240 l 6,0 0,6 -6,0 z M 174,240 l 6,0 0,6 -6,0 z M 216,240 l 6,0 0,6 -6,0 z M 240,240 l 6,0 0,6 -6,0 z M 6,246 l 6,0 0,6 -6,0 z M 12,246 l 6,0 0,6 -6,0 z M 18,246 l 6,0 0,6 -6,0 z M 24,246 l 6,0 0,6 -6,0 z M 30,246 l 6,0 0,6 -6,0 z M 36,246 l 6,0 0,6 -6,0 z M 42,246 l 6,0 0,6 -6,0 z M 54,246 l 6,0 0,6 -6,0 z M 60,246 l 6,0 0,6 -6,0 z M 66,246 l 6,0 0,6 -6,0 z M 72,246 l 6,0 0,6 -6,0 z M 78,246 l 6,0 0,6 -6,0 z M 84,246 l 6,0 0,6 -6,0 z M 90,246 l 6,0 0,6 -6,0 z M 108,246 l 6,0 0,6 -6,0 z M 138,246 l 6,0 0,6 -6,0 z M 150,246 l 6,0 0,6 -6,0 z M 156,246 l 6,0 0,6 -6,0 z M 162,246 l 6,0 0,6 -6,0 z M 168,246 l 6,0 0,6 -6,0 z M 180,246 l 6,0 0,6 -6,0 z M 192,246 l 6,0 0,6 -6,0 z M 198,246 l 6,0 0,6 -6,0 z M 204,246 l 6,0 0,6 -6,0 z M 216,246 l 6,0 0,6 -6,0 z M 228,246 l 6,0 0,6 -6,0 z " />
	</g>
</svg>
