<!-- Generator: Adobe Illustrator 20.1.0, SVG Export Plug-In  -->
<svg version="1.1"
	 xmlns="http://www.w3.org/2000/svg" xmlns:xlink="http://www.w3.org/1999/xlink" xmlns:a="http://ns.adobe.com/AdobeSVGViewerExtensions/3.0/"
	 x="0px" y="0px" width="606.8px" height="20px" viewBox="0 0 606.8 20"
	 style="overflow:scroll;enable-background:new 0 0 606.8 20;" xml:space="preserve">
<style type="text/css">
	.st0{fill:#FFFFFF;}
</style>
<defs>
</defs>
<g>
	<path class="st0" d="M0,0h11.7v2.9H3.4v3.4H11v2.7H3.4v3.8h8.4v2.9H0V0z"/>
	<path class="st0" d="M14.7,6.4h-1.9V4.3h1.9V3.4c0-0.5,0.1-1,0.2-1.4c0.2-0.4,0.4-0.8,0.7-1.1c0.3-0.3,0.7-0.5,1.2-0.7
		c0.5-0.2,1-0.3,1.7-0.3c0.3,0,0.6,0,0.8,0c0.3,0,0.5,0,0.8,0.1v2.3c-0.4,0-0.8-0.1-1.1-0.1c-0.4,0-0.7,0.1-0.9,0.3s-0.3,0.5-0.3,1
		v0.7H20v2.1h-2.2v9.3h-3.1V6.4z"/>
	<path class="st0" d="M24.7,2.6h-3.1V0h3.1V2.6z M21.6,4.3h3.1v11.3h-3.1V4.3z"/>
	<path class="st0" d="M35.1,8.3c-0.2-1.3-1-2-2.3-2c-0.5,0-0.9,0.1-1.3,0.3c-0.3,0.2-0.6,0.5-0.8,0.9c-0.2,0.4-0.4,0.8-0.5,1.2
		c-0.1,0.4-0.1,0.9-0.1,1.3s0,0.8,0.1,1.3c0.1,0.4,0.2,0.8,0.4,1.2s0.5,0.6,0.8,0.8c0.3,0.2,0.7,0.3,1.2,0.3c0.7,0,1.3-0.2,1.7-0.6
		c0.4-0.4,0.7-1,0.8-1.7h3c-0.2,1.5-0.8,2.7-1.8,3.5c-1,0.8-2.2,1.2-3.7,1.2c-0.9,0-1.6-0.1-2.3-0.4c-0.7-0.3-1.3-0.7-1.8-1.2
		c-0.5-0.5-0.9-1.1-1.2-1.8S27,11,27,10.2c0-0.9,0.1-1.7,0.4-2.4s0.6-1.4,1.1-2c0.5-0.5,1.1-1,1.8-1.3C31.1,4.2,31.9,4,32.8,4
		c0.7,0,1.3,0.1,1.9,0.3c0.6,0.2,1.2,0.4,1.7,0.8c0.5,0.4,0.9,0.8,1.2,1.3c0.3,0.5,0.5,1.2,0.5,1.9H35.1z"/>
	<path class="st0" d="M40,7.8c0-0.7,0.2-1.3,0.5-1.8c0.3-0.5,0.7-0.9,1.2-1.2c0.5-0.3,1.1-0.5,1.7-0.6C44.1,4.1,44.7,4,45.3,4
		c0.6,0,1.1,0,1.7,0.1c0.6,0.1,1.1,0.2,1.6,0.5c0.5,0.2,0.9,0.6,1.2,1c0.3,0.4,0.5,1,0.5,1.6v5.9c0,0.5,0,1,0.1,1.5
		c0.1,0.5,0.2,0.8,0.3,1.1h-3.2c-0.1-0.2-0.1-0.4-0.1-0.5c0-0.2-0.1-0.4-0.1-0.6c-0.5,0.5-1.1,0.9-1.8,1.1S44.2,16,43.5,16
		c-0.5,0-1-0.1-1.5-0.2c-0.5-0.1-0.9-0.3-1.2-0.6c-0.4-0.3-0.6-0.6-0.8-1.1s-0.3-0.9-0.3-1.5c0-0.6,0.1-1.2,0.3-1.6
		c0.2-0.4,0.5-0.7,0.9-1c0.4-0.2,0.8-0.4,1.2-0.6c0.5-0.1,0.9-0.2,1.4-0.3C44,9.1,44.5,9,44.9,8.9s0.8-0.1,1.2-0.2
		c0.3-0.1,0.6-0.2,0.8-0.4c0.2-0.2,0.3-0.4,0.3-0.7c0-0.3-0.1-0.6-0.2-0.8s-0.3-0.4-0.4-0.5c-0.2-0.1-0.4-0.2-0.6-0.2
		c-0.2,0-0.5-0.1-0.8-0.1c-0.6,0-1.1,0.1-1.4,0.4c-0.4,0.3-0.6,0.7-0.6,1.3H40z M47.2,10.1c-0.1,0.1-0.3,0.2-0.5,0.3
		c-0.2,0.1-0.4,0.1-0.6,0.2c-0.2,0-0.5,0.1-0.7,0.1s-0.5,0.1-0.7,0.1c-0.2,0-0.5,0.1-0.7,0.2c-0.2,0.1-0.4,0.2-0.6,0.3
		s-0.3,0.3-0.4,0.5s-0.2,0.4-0.2,0.7c0,0.3,0.1,0.5,0.2,0.7s0.2,0.3,0.4,0.4c0.2,0.1,0.4,0.2,0.6,0.2c0.2,0,0.5,0.1,0.7,0.1
		c0.6,0,1.1-0.1,1.4-0.3c0.3-0.2,0.6-0.5,0.7-0.7s0.3-0.6,0.3-0.9c0-0.3,0.1-0.5,0.1-0.7V10.1z"/>
	<path class="st0" d="M60.6,8.3c-0.2-1.3-1-2-2.3-2c-0.5,0-0.9,0.1-1.3,0.3s-0.6,0.5-0.8,0.9c-0.2,0.4-0.4,0.8-0.4,1.2
		s-0.1,0.9-0.1,1.3s0,0.8,0.1,1.3s0.2,0.8,0.4,1.2s0.5,0.6,0.8,0.8c0.3,0.2,0.7,0.3,1.2,0.3c0.7,0,1.3-0.2,1.7-0.6
		c0.4-0.4,0.7-1,0.8-1.7h3c-0.2,1.5-0.8,2.7-1.8,3.5c-1,0.8-2.2,1.2-3.7,1.2c-0.9,0-1.6-0.1-2.3-0.4c-0.7-0.3-1.3-0.7-1.8-1.2
		c-0.5-0.5-0.9-1.1-1.2-1.8c-0.3-0.7-0.4-1.5-0.4-2.3c0-0.9,0.1-1.7,0.4-2.4c0.3-0.8,0.6-1.4,1.1-2c0.5-0.5,1.1-1,1.8-1.3
		C56.6,4.2,57.4,4,58.3,4c0.7,0,1.3,0.1,1.9,0.3c0.6,0.2,1.2,0.4,1.7,0.8s0.9,0.8,1.2,1.3c0.3,0.5,0.5,1.2,0.5,1.9H60.6z"/>
	<path class="st0" d="M68.9,2.6h-3.1V0h3.1V2.6z M65.7,4.3h3.1v11.3h-3.1V4.3z"/>
	<path class="st0" d="M71.4,7.8c0-0.7,0.2-1.3,0.5-1.8c0.3-0.5,0.7-0.9,1.2-1.2c0.5-0.3,1.1-0.5,1.7-0.6C75.4,4.1,76,4,76.7,4
		c0.6,0,1.1,0,1.7,0.1C79,4.2,79.5,4.4,80,4.6c0.5,0.2,0.9,0.6,1.2,1c0.3,0.4,0.5,1,0.5,1.6v5.9c0,0.5,0,1,0.1,1.5
		c0.1,0.5,0.2,0.8,0.3,1.1h-3.2c-0.1-0.2-0.1-0.4-0.1-0.5c0-0.2-0.1-0.4-0.1-0.6c-0.5,0.5-1.1,0.9-1.8,1.1S75.6,16,74.9,16
		c-0.5,0-1-0.1-1.5-0.2c-0.5-0.1-0.9-0.3-1.2-0.6c-0.4-0.3-0.6-0.6-0.8-1.1S71,13.2,71,12.6c0-0.6,0.1-1.2,0.3-1.6
		c0.2-0.4,0.5-0.7,0.9-1c0.4-0.2,0.8-0.4,1.2-0.6c0.5-0.1,0.9-0.2,1.4-0.3c0.5-0.1,0.9-0.1,1.4-0.2s0.8-0.1,1.2-0.2
		c0.3-0.1,0.6-0.2,0.8-0.4c0.2-0.2,0.3-0.4,0.3-0.7c0-0.3-0.1-0.6-0.2-0.8S78.1,6.5,78,6.4c-0.2-0.1-0.4-0.2-0.6-0.2
		c-0.2,0-0.5-0.1-0.8-0.1c-0.6,0-1.1,0.1-1.4,0.4c-0.4,0.3-0.6,0.7-0.6,1.3H71.4z M78.6,10.1c-0.1,0.1-0.3,0.2-0.5,0.3
		c-0.2,0.1-0.4,0.1-0.6,0.2c-0.2,0-0.5,0.1-0.7,0.1s-0.5,0.1-0.7,0.1c-0.2,0-0.5,0.1-0.7,0.2c-0.2,0.1-0.4,0.2-0.6,0.3
		s-0.3,0.3-0.4,0.5s-0.2,0.4-0.2,0.7c0,0.3,0.1,0.5,0.2,0.7s0.2,0.3,0.4,0.4c0.2,0.1,0.4,0.2,0.6,0.2c0.2,0,0.5,0.1,0.7,0.1
		c0.6,0,1.1-0.1,1.4-0.3c0.3-0.2,0.6-0.5,0.7-0.7s0.3-0.6,0.3-0.9c0-0.3,0.1-0.5,0.1-0.7V10.1z"/>
	<path class="st0" d="M96.1,17.1c-0.3,0.9-0.8,1.6-1.4,2c-0.6,0.4-1.4,0.6-2.5,0.6c-0.3,0-0.6,0-1,0c-0.3,0-0.6,0-1-0.1V17
		c0.3,0,0.6,0.1,0.9,0.1s0.6,0,0.9,0c0.3,0,0.5-0.1,0.7-0.3c0.2-0.1,0.3-0.3,0.4-0.5c0.1-0.2,0.1-0.4,0.1-0.7c0-0.2,0-0.5-0.1-0.7
		l-4-10.6h3.3l2.6,7.8h0l2.5-7.8h3.2L96.1,17.1z"/>
	<path class="st0" d="M110.8,12c0,0.3,0.1,0.6,0.2,0.9c0.1,0.2,0.3,0.4,0.5,0.6c0.2,0.2,0.5,0.3,0.8,0.3s0.6,0.1,0.9,0.1
		c0.2,0,0.4,0,0.7-0.1c0.2-0.1,0.5-0.1,0.7-0.2c0.2-0.1,0.4-0.3,0.5-0.4c0.1-0.2,0.2-0.4,0.2-0.7c0-0.2-0.1-0.4-0.2-0.6
		c-0.2-0.2-0.4-0.3-0.7-0.4c-0.3-0.1-0.7-0.3-1.1-0.4s-0.9-0.2-1.5-0.3c-0.5-0.1-0.9-0.2-1.3-0.4c-0.4-0.1-0.8-0.3-1.2-0.5
		s-0.6-0.5-0.8-0.9c-0.2-0.3-0.3-0.8-0.3-1.3c0-0.7,0.1-1.3,0.4-1.8c0.3-0.5,0.7-0.8,1.1-1.1c0.5-0.3,1-0.5,1.6-0.6
		c0.6-0.1,1.2-0.2,1.8-0.2c0.6,0,1.2,0.1,1.8,0.2s1.1,0.3,1.5,0.6c0.5,0.3,0.8,0.6,1.1,1.1s0.5,1,0.5,1.7h-3c0-0.6-0.3-1-0.7-1.2
		s-0.9-0.3-1.4-0.3c-0.2,0-0.4,0-0.6,0c-0.2,0-0.4,0.1-0.6,0.1s-0.3,0.2-0.4,0.3s-0.2,0.3-0.2,0.6c0,0.3,0.1,0.5,0.3,0.7
		c0.2,0.2,0.5,0.3,0.8,0.4c0.3,0.1,0.7,0.2,1.1,0.3c0.4,0.1,0.9,0.2,1.3,0.3c0.5,0.1,0.9,0.2,1.3,0.4c0.4,0.1,0.8,0.3,1.2,0.6
		s0.6,0.5,0.8,0.9c0.2,0.4,0.3,0.8,0.3,1.3c0,0.7-0.2,1.4-0.5,1.9c-0.3,0.5-0.7,0.9-1.2,1.2c-0.5,0.3-1,0.5-1.7,0.7
		c-0.6,0.1-1.3,0.2-1.9,0.2c-0.7,0-1.3-0.1-1.9-0.2c-0.6-0.1-1.2-0.4-1.7-0.7c-0.5-0.3-0.9-0.7-1.2-1.2c-0.3-0.5-0.5-1.1-0.5-1.9
		H110.8z"/>
	<path class="st0" d="M122.9,10.7c0,1,0.3,1.7,0.8,2.2c0.5,0.5,1.1,0.7,2,0.7c0.6,0,1.2-0.2,1.6-0.5s0.7-0.6,0.8-1h2.7
		c-0.4,1.3-1.1,2.3-2,2.9c-0.9,0.6-2,0.9-3.3,0.9c-0.9,0-1.7-0.1-2.4-0.4c-0.7-0.3-1.3-0.7-1.8-1.2c-0.5-0.5-0.9-1.2-1.2-1.9
		c-0.3-0.7-0.4-1.5-0.4-2.4c0-0.8,0.1-1.6,0.4-2.4c0.3-0.7,0.7-1.4,1.2-1.9c0.5-0.5,1.1-1,1.8-1.3c0.7-0.3,1.5-0.5,2.4-0.5
		c1,0,1.8,0.2,2.5,0.6c0.7,0.4,1.3,0.9,1.8,1.5c0.5,0.6,0.8,1.3,1,2.1s0.3,1.6,0.2,2.5H122.9z M127.9,8.8c-0.1-0.8-0.4-1.4-0.8-1.8
		c-0.4-0.4-0.9-0.6-1.7-0.6c-0.5,0-0.9,0.1-1.2,0.3c-0.3,0.2-0.6,0.4-0.8,0.6c-0.2,0.2-0.3,0.5-0.4,0.8c-0.1,0.3-0.1,0.5-0.1,0.7
		H127.9z"/>
	<path class="st0" d="M144,14.9c0,0.3,0,0.6-0.1,1c-0.1,0.4-0.2,0.7-0.3,1.1c-0.1,0.4-0.4,0.7-0.6,1.1c-0.3,0.3-0.6,0.7-1.1,0.9
		c-0.4,0.3-1,0.5-1.6,0.6c-0.6,0.2-1.4,0.2-2.2,0.2c-0.6,0-1.1-0.1-1.7-0.2s-1.1-0.4-1.6-0.6c-0.5-0.3-0.9-0.7-1.2-1.1
		c-0.3-0.5-0.5-1-0.5-1.7h3.1c0.1,0.6,0.4,1,0.9,1.2c0.4,0.2,0.9,0.3,1.5,0.3c0.9,0,1.5-0.3,1.9-0.8c0.4-0.5,0.6-1.2,0.6-2v-1.5h0
		c-0.3,0.6-0.8,1-1.4,1.3s-1.3,0.4-2,0.4c-0.8,0-1.6-0.1-2.2-0.4s-1.1-0.7-1.5-1.2c-0.4-0.5-0.7-1.1-0.9-1.8
		c-0.2-0.7-0.3-1.4-0.3-2.2c0-0.7,0.1-1.4,0.3-2.1s0.5-1.3,0.9-1.8c0.4-0.5,0.9-0.9,1.5-1.2c0.6-0.3,1.3-0.5,2.1-0.5
		c0.7,0,1.4,0.1,2,0.4c0.6,0.3,1,0.7,1.4,1.4h0V4.3h3V14.9z M138.4,13c0.4,0,0.8-0.1,1.2-0.3c0.3-0.2,0.6-0.4,0.8-0.7
		c0.2-0.3,0.4-0.6,0.5-1s0.2-0.8,0.2-1.2c0-0.5,0-0.9-0.1-1.3c-0.1-0.4-0.2-0.8-0.4-1.1s-0.5-0.6-0.8-0.8s-0.8-0.3-1.3-0.3
		c-0.4,0-0.8,0.1-1.1,0.3c-0.3,0.2-0.6,0.4-0.8,0.7c-0.2,0.3-0.4,0.6-0.5,1c-0.1,0.4-0.1,0.8-0.1,1.2c0,0.4,0,0.8,0.1,1.2
		s0.2,0.8,0.4,1.1c0.2,0.3,0.5,0.6,0.8,0.8C137.5,12.9,137.9,13,138.4,13z"/>
	<path class="st0" d="M157.3,15.7h-3v-1.6h-0.1c-0.4,0.6-0.9,1.1-1.5,1.4c-0.6,0.3-1.3,0.5-1.9,0.5c-0.8,0-1.5-0.1-2-0.3
		s-1-0.5-1.3-0.9c-0.3-0.4-0.5-0.9-0.6-1.5c-0.1-0.6-0.2-1.2-0.2-1.9v-7h3.1v6.4c0,0.9,0.1,1.6,0.5,2.1c0.3,0.5,0.8,0.7,1.5,0.7
		c0.8,0,1.5-0.3,1.8-0.8c0.4-0.5,0.6-1.3,0.6-2.5V4.3h3.1V15.7z"/>
	<path class="st0" d="M159.8,4.3h3v2.1h0c0.1-0.4,0.3-0.7,0.6-1c0.2-0.3,0.5-0.6,0.9-0.8c0.3-0.2,0.7-0.4,1-0.5s0.8-0.2,1.1-0.2
		c0.2,0,0.5,0,0.7,0.1V7c-0.1,0-0.3-0.1-0.5-0.1c-0.2,0-0.4,0-0.6,0c-0.6,0-1.1,0.1-1.4,0.3c-0.4,0.2-0.7,0.5-1,0.8
		c-0.2,0.3-0.4,0.7-0.5,1.2s-0.2,0.9-0.2,1.4v5.1h-3.1V4.3z"/>
	<path class="st0" d="M171.7,2.6h-3.1V0h3.1V2.6z M168.6,4.3h3.1v11.3h-3.1V4.3z"/>
	<path class="st0" d="M182.5,14.2L182.5,14.2c-0.4,0.6-0.9,1.1-1.5,1.3c-0.6,0.3-1.3,0.4-2,0.4c-0.9,0-1.6-0.2-2.2-0.5
		c-0.6-0.3-1.2-0.8-1.6-1.3s-0.7-1.2-0.9-1.9c-0.2-0.7-0.3-1.5-0.3-2.3c0-0.8,0.1-1.5,0.3-2.2c0.2-0.7,0.5-1.3,0.9-1.9
		c0.4-0.5,0.9-1,1.6-1.3c0.6-0.3,1.4-0.5,2.2-0.5c0.7,0,1.3,0.1,1.9,0.4c0.6,0.3,1.1,0.7,1.4,1.3h0V0h3.1v15.7h-3V14.2z M182.4,10
		c0-0.5,0-0.9-0.1-1.3s-0.2-0.8-0.5-1.2c-0.2-0.3-0.5-0.6-0.8-0.8c-0.3-0.2-0.8-0.3-1.3-0.3c-0.5,0-0.9,0.1-1.3,0.3
		c-0.4,0.2-0.6,0.5-0.8,0.8c-0.2,0.3-0.4,0.7-0.5,1.2c-0.1,0.4-0.1,0.9-0.1,1.3c0,0.4,0.1,0.9,0.2,1.3c0.1,0.4,0.3,0.8,0.5,1.2
		c0.2,0.3,0.5,0.6,0.9,0.8c0.3,0.2,0.8,0.3,1.2,0.3c0.5,0,0.9-0.1,1.3-0.3c0.3-0.2,0.6-0.5,0.8-0.8s0.4-0.7,0.4-1.2
		C182.4,10.9,182.4,10.4,182.4,10z"/>
	<path class="st0" d="M187.8,7.8c0-0.7,0.2-1.3,0.5-1.8c0.3-0.5,0.7-0.9,1.2-1.2c0.5-0.3,1.1-0.5,1.7-0.6c0.6-0.1,1.2-0.2,1.9-0.2
		c0.6,0,1.1,0,1.7,0.1c0.6,0.1,1.1,0.2,1.6,0.5c0.5,0.2,0.9,0.6,1.2,1s0.5,1,0.5,1.6v5.9c0,0.5,0,1,0.1,1.5c0.1,0.5,0.2,0.8,0.3,1.1
		h-3.2c-0.1-0.2-0.1-0.4-0.1-0.5c0-0.2-0.1-0.4-0.1-0.6c-0.5,0.5-1.1,0.9-1.8,1.1c-0.7,0.2-1.4,0.3-2.1,0.3c-0.5,0-1-0.1-1.5-0.2
		s-0.9-0.3-1.2-0.6c-0.4-0.3-0.6-0.6-0.8-1.1s-0.3-0.9-0.3-1.5c0-0.6,0.1-1.2,0.3-1.6c0.2-0.4,0.5-0.7,0.9-1
		c0.4-0.2,0.8-0.4,1.2-0.6c0.5-0.1,0.9-0.2,1.4-0.3s0.9-0.1,1.4-0.2c0.4,0,0.8-0.1,1.2-0.2s0.6-0.2,0.8-0.4S195,8,195,7.6
		c0-0.3-0.1-0.6-0.2-0.8s-0.3-0.4-0.4-0.5s-0.4-0.2-0.6-0.2c-0.2,0-0.5-0.1-0.8-0.1c-0.6,0-1.1,0.1-1.4,0.4
		c-0.4,0.3-0.6,0.7-0.6,1.3H187.8z M195,10.1c-0.1,0.1-0.3,0.2-0.5,0.3c-0.2,0.1-0.4,0.1-0.6,0.2s-0.5,0.1-0.7,0.1
		c-0.3,0-0.5,0.1-0.7,0.1c-0.2,0-0.5,0.1-0.7,0.2s-0.4,0.2-0.6,0.3c-0.2,0.1-0.3,0.3-0.4,0.5c-0.1,0.2-0.2,0.4-0.2,0.7
		c0,0.3,0.1,0.5,0.2,0.7c0.1,0.2,0.2,0.3,0.4,0.4c0.2,0.1,0.4,0.2,0.6,0.2c0.2,0,0.5,0.1,0.7,0.1c0.6,0,1.1-0.1,1.4-0.3
		c0.3-0.2,0.6-0.5,0.7-0.7c0.2-0.3,0.3-0.6,0.3-0.9c0-0.3,0.1-0.5,0.1-0.7V10.1z"/>
	<path class="st0" d="M208.8,14.2L208.8,14.2c-0.4,0.6-0.9,1.1-1.5,1.3c-0.6,0.3-1.3,0.4-2,0.4c-0.9,0-1.6-0.2-2.2-0.5
		c-0.6-0.3-1.2-0.8-1.6-1.3c-0.4-0.6-0.7-1.2-0.9-1.9c-0.2-0.7-0.3-1.5-0.3-2.3c0-0.8,0.1-1.5,0.3-2.2s0.5-1.3,0.9-1.9
		c0.4-0.5,0.9-1,1.6-1.3s1.4-0.5,2.2-0.5c0.7,0,1.3,0.1,1.9,0.4s1.1,0.7,1.4,1.3h0V0h3.1v15.7h-3V14.2z M208.8,10
		c0-0.5,0-0.9-0.1-1.3s-0.2-0.8-0.4-1.2s-0.5-0.6-0.8-0.8c-0.3-0.2-0.8-0.3-1.3-0.3c-0.5,0-0.9,0.1-1.3,0.3
		c-0.4,0.2-0.6,0.5-0.8,0.8c-0.2,0.3-0.4,0.7-0.5,1.2c-0.1,0.4-0.1,0.9-0.1,1.3c0,0.4,0.1,0.9,0.2,1.3c0.1,0.4,0.3,0.8,0.5,1.2
		c0.2,0.3,0.5,0.6,0.9,0.8s0.8,0.3,1.2,0.3c0.5,0,0.9-0.1,1.3-0.3c0.3-0.2,0.6-0.5,0.8-0.8c0.2-0.3,0.3-0.7,0.4-1.2
		C208.7,10.9,208.8,10.4,208.8,10z"/>
	<path class="st0" d="M228.7,14.2L228.7,14.2c-0.4,0.6-0.9,1.1-1.5,1.3c-0.6,0.3-1.3,0.4-2,0.4c-0.9,0-1.6-0.2-2.2-0.5
		c-0.6-0.3-1.2-0.8-1.6-1.3c-0.4-0.6-0.7-1.2-0.9-1.9c-0.2-0.7-0.3-1.5-0.3-2.3c0-0.8,0.1-1.5,0.3-2.2s0.5-1.3,0.9-1.9
		c0.4-0.5,0.9-1,1.6-1.3s1.4-0.5,2.2-0.5c0.7,0,1.3,0.1,1.9,0.4s1.1,0.7,1.4,1.3h0V0h3.1v15.7h-3V14.2z M228.6,10
		c0-0.5,0-0.9-0.1-1.3s-0.2-0.8-0.4-1.2s-0.5-0.6-0.8-0.8c-0.3-0.2-0.8-0.3-1.3-0.3c-0.5,0-0.9,0.1-1.3,0.3
		c-0.4,0.2-0.6,0.5-0.8,0.8c-0.2,0.3-0.4,0.7-0.5,1.2c-0.1,0.4-0.1,0.9-0.1,1.3c0,0.4,0.1,0.9,0.2,1.3c0.1,0.4,0.3,0.8,0.5,1.2
		c0.2,0.3,0.5,0.6,0.9,0.8s0.8,0.3,1.2,0.3c0.5,0,0.9-0.1,1.3-0.3c0.3-0.2,0.6-0.5,0.8-0.8c0.2-0.3,0.3-0.7,0.4-1.2
		C228.6,10.9,228.6,10.4,228.6,10z"/>
	<path class="st0" d="M236.7,10.7c0,1,0.3,1.7,0.8,2.2c0.5,0.5,1.1,0.7,2,0.7c0.6,0,1.2-0.2,1.6-0.5s0.7-0.6,0.8-1h2.7
		c-0.4,1.3-1.1,2.3-2,2.9c-0.9,0.6-2,0.9-3.3,0.9c-0.9,0-1.7-0.1-2.4-0.4c-0.7-0.3-1.3-0.7-1.8-1.2c-0.5-0.5-0.9-1.2-1.2-1.9
		c-0.3-0.7-0.4-1.5-0.4-2.4c0-0.8,0.1-1.6,0.4-2.4c0.3-0.7,0.7-1.4,1.2-1.9c0.5-0.5,1.1-1,1.8-1.3c0.7-0.3,1.5-0.5,2.4-0.5
		c1,0,1.8,0.2,2.5,0.6c0.7,0.4,1.3,0.9,1.8,1.5s0.8,1.3,1,2.1s0.3,1.6,0.2,2.5H236.7z M241.8,8.8C241.6,8,241.4,7.4,241,7
		s-0.9-0.6-1.7-0.6c-0.5,0-0.9,0.1-1.2,0.3s-0.6,0.4-0.8,0.6c-0.2,0.2-0.3,0.5-0.4,0.8c-0.1,0.3-0.1,0.5-0.1,0.7H241.8z"/>
	<path class="st0" d="M255.2,0h7.5c2.8,0,4.7,1.1,4.7,4.1c0,2.1-1.5,3.9-3.6,4.2v0c1.3,0.4,1.6,1.5,1.6,2.8c0,0.7-0.1,1.8-0.1,2.7
		c0,0.7,0,1.4,0.2,1.8h-3.4c-0.1-0.4-0.2-0.7-0.2-1.1c0-1.1,0.2-2.1,0.2-3.2c0-1.5-0.9-1.9-2.3-1.9h-3.2l-1.3,6.1h-3.4L255.2,0z
		 M257.2,7.1h3.2c1.8,0,3.6-0.7,3.6-2.5c0-1.7-1.2-1.9-2.5-1.9h-3.3L257.2,7.1z"/>
	<path class="st0" d="M271,0h3.1L273,5.6h0c0.5-0.7,1.7-1.6,3.8-1.6c2.1,0,3.3,1.1,3.3,3c0,0.5-0.2,1.6-0.3,2l-1.4,6.6h-3.1l1.4-6.6
		c0.1-0.3,0.2-1.1,0.2-1.4c0-0.7-0.8-1.2-1.5-1.2c-1.9,0-2.9,1.6-3.2,3.2l-1.3,6h-3.1L271,0z"/>
	<path class="st0" d="M288.3,4c3.1,0,5.3,1.5,5.3,4.8c0,4-2.5,7.1-6.6,7.1c-3.2,0-5.2-1.6-5.2-4.9C281.8,7.2,284.3,4,288.3,4z
		 M287.1,13.6c2.3,0,3.3-2.9,3.3-4.8c0-1.5-0.7-2.5-2.3-2.5c-2.3,0-3.3,2.8-3.3,4.7C284.9,12.4,285.7,13.6,287.1,13.6z"/>
	<path class="st0" d="M302.7,14.3L302.7,14.3c-0.7,1.2-2.1,1.7-3.4,1.7c-2.7,0-4.3-1.8-4.3-4.5c0-3.7,2-7.5,6.2-7.5
		c1.3,0,2.7,0.6,3.2,1.8h0l1.3-5.8h3.1l-3.3,15.7h-3L302.7,14.3z M298.1,11.1c0,1.4,0.7,2.5,2.2,2.5c2.3,0,3.4-2.9,3.4-4.8
		c0-1.4-0.7-2.5-2.2-2.5C299.1,6.4,298.1,9.1,298.1,11.1z"/>
	<path class="st0" d="M310.5,4.3h3.1l-2.4,11.3h-3.1L310.5,4.3z M314,2.6h-3.1l0.6-2.6h3.1L314,2.6z"/>
	<path class="st0" d="M320.9,4c3.1,0,5.3,1.5,5.3,4.8c0,4-2.5,7.1-6.6,7.1c-3.2,0-5.2-1.6-5.2-4.9C314.4,7.2,316.9,4,320.9,4z
		 M319.8,13.6c2.3,0,3.3-2.9,3.3-4.8c0-1.5-0.7-2.5-2.3-2.5c-2.3,0-3.3,2.8-3.3,4.7C317.5,12.4,318.3,13.6,319.8,13.6z"/>
	<path class="st0" d="M330.4,0h3.1l-3.3,15.7h-3.1L330.4,0z"/>
	<path class="st0" d="M334.5,7.8c0.4-2.9,2.8-3.8,5.4-3.8c2,0,4.8,0.4,4.7,3c0,0.5-0.1,1.2-0.2,1.9l-1,4.6c-0.1,0.4-0.2,1.1-0.2,1.5
		c0,0.2,0,0.5,0.1,0.7h-3.1v-1.1c-0.9,1-2.2,1.4-3.5,1.4c-2.5,0-3.7-1.4-3.7-3c0-2.2,1.6-3.5,4.3-3.9c2.9-0.4,4.3-0.2,4.3-1.6
		c0-1.1-1.2-1.4-2-1.4c-1.1,0-2.1,0.5-2.3,1.7H334.5z M341.1,10.2c-0.8,0.5-1.7,0.5-2.6,0.5c-1.2,0.1-2.3,0.4-2.3,1.8
		c0,0.9,0.8,1.3,1.7,1.3c1.9,0,2.6-1.3,2.9-2.6L341.1,10.2z"/>
	<path class="st0" d="M354.4,4.3h3l-0.5,2l0,0c0.7-1.6,2.2-2.4,3.9-2.4c0.3,0,0.6,0,1,0.1l-0.6,3c-0.4-0.1-0.9-0.2-1.3-0.2
		c-2.4,0-3.2,1.8-3.7,3.7l-1.1,5H352L354.4,4.3z"/>
	<path class="st0" d="M367.7,4c3.1,0,5.3,1.5,5.3,4.8c0,4-2.5,7.1-6.6,7.1c-3.2,0-5.2-1.6-5.2-4.9C361.2,7.2,363.7,4,367.7,4z
		 M366.5,13.6c2.3,0,3.3-2.9,3.3-4.8c0-1.5-0.7-2.5-2.3-2.5c-2.3,0-3.3,2.8-3.3,4.7C364.3,12.4,365.1,13.6,366.5,13.6z"/>
	<path class="st0" d="M381.9,7.6c0-1-0.6-1.5-1.8-1.5c-1.1,0-1.9,0.3-1.9,1.1c0,0.5,0.4,0.8,1.4,1.1l1.6,0.5c1.7,0.5,3,1.3,3,3.2
		c0,2.8-2.8,3.9-5.4,3.9c-2.2,0-4.8-0.9-4.8-3.5V12h2.9v0.4c0,1,1.2,1.5,2.2,1.5c0.9,0,2-0.3,2-1.4c0-0.8-0.4-1-1.1-1.3l-2.4-0.8
		c-1.6-0.5-2.5-1.1-2.5-2.9c0-2.7,2.8-3.6,5-3.6c2.5,0,4.7,0.7,4.6,3.6H381.9z"/>
	<path class="st0" d="M388.9,10.7c0,0.3,0,0.5,0,0.7c0,1.3,0.8,2.2,2.5,2.2c1.2,0,1.9-0.8,2.3-1.6h3.1c-1,2.5-2.6,3.9-5.9,3.9
		c-3,0-5-1.7-5-5c0-3.6,2.4-7,6.2-7c3.2,0,5.3,1.7,5.3,5c0,0.6-0.1,1.2-0.2,1.8H388.9z M394.4,8.8c0-1.2-0.3-2.4-2.1-2.4
		c-1.8,0-2.6,1.1-3.1,2.4H394.4z"/>
	<path class="st0" d="M399.8,7.8c0.4-2.9,2.8-3.8,5.4-3.8c2,0,4.8,0.4,4.7,3c0,0.5-0.1,1.2-0.2,1.9l-1,4.6c-0.1,0.4-0.2,1.1-0.2,1.5
		c0,0.2,0,0.5,0.1,0.7h-3.1v-1.1c-0.9,1-2.2,1.4-3.5,1.4c-2.5,0-3.7-1.4-3.7-3c0-2.2,1.6-3.5,4.3-3.9c2.9-0.4,4.3-0.2,4.3-1.6
		c0-1.1-1.2-1.4-2-1.4c-1.1,0-2.1,0.5-2.3,1.7H399.8z M406.4,10.2c-0.8,0.5-1.7,0.5-2.6,0.5c-1.2,0.1-2.3,0.4-2.3,1.8
		c0,0.9,0.8,1.3,1.7,1.3c1.9,0,2.6-1.3,2.9-2.6L406.4,10.2z"/>
	<path class="st0" d="M412.6,12.3h3.4v3.4c0,0.5-0.1,1-0.3,1.4c-0.2,0.4-0.4,0.8-0.7,1.1s-0.7,0.6-1.1,0.8c-0.4,0.2-0.9,0.3-1.3,0.4
		v-1.6c0.2,0,0.4-0.1,0.6-0.3c0.2-0.1,0.4-0.3,0.5-0.5c0.1-0.2,0.3-0.4,0.3-0.6c0.1-0.2,0.1-0.5,0.1-0.7h-1.6V12.3z"/>
	<path class="st0" d="M427.2,11.2c0,0.9,0.3,1.6,0.7,2c0.4,0.4,1,0.6,1.8,0.6c0.6,0,1.1-0.1,1.5-0.4c0.4-0.3,0.7-0.6,0.8-0.9h2.5
		c-0.4,1.2-1,2.1-1.8,2.7s-1.8,0.8-3,0.8c-0.8,0-1.5-0.1-2.2-0.4c-0.7-0.3-1.2-0.6-1.7-1.1c-0.5-0.5-0.8-1.1-1.1-1.7
		c-0.2-0.7-0.4-1.4-0.4-2.2c0-0.8,0.1-1.5,0.4-2.2c0.3-0.7,0.6-1.2,1.1-1.7s1-0.9,1.7-1.2s1.4-0.4,2.2-0.4c0.9,0,1.6,0.2,2.3,0.5
		c0.7,0.3,1.2,0.8,1.6,1.4s0.7,1.2,0.9,2c0.2,0.7,0.3,1.5,0.2,2.3H427.2z M431.8,9.4c-0.1-0.7-0.4-1.3-0.7-1.6s-0.9-0.6-1.6-0.6
		c-0.5,0-0.8,0.1-1.1,0.2s-0.5,0.3-0.7,0.6s-0.3,0.5-0.4,0.7c-0.1,0.3-0.1,0.5-0.1,0.7H431.8z"/>
	<path class="st0" d="M439.1,10.2l-3.4-4.9h3.2l1.8,2.7l1.8-2.7h3.1l-3.4,4.8l3.8,5.5h-3.2l-2.2-3.3l-2.2,3.3h-3.2L439.1,10.2z"/>
	<path class="st0" d="M451,5.3h2.1v1.9H451v5.1c0,0.5,0.1,0.8,0.2,1c0.2,0.2,0.5,0.2,1,0.2c0.3,0,0.6,0,0.9-0.1v2.2
		c-0.2,0-0.5,0.1-0.8,0.1c-0.3,0-0.6,0-0.9,0c-0.4,0-0.9,0-1.3-0.1c-0.4-0.1-0.7-0.2-1-0.4c-0.3-0.2-0.5-0.4-0.7-0.8
		c-0.2-0.3-0.3-0.7-0.3-1.3V7.2h-1.7V5.3h1.7V2.2h2.8V5.3z"/>
	<path class="st0" d="M454.6,5.3h2.7v1.9h0c0.1-0.3,0.3-0.6,0.5-0.9s0.5-0.5,0.8-0.7s0.6-0.3,0.9-0.5c0.3-0.1,0.7-0.2,1-0.2
		c0.2,0,0.4,0,0.6,0.1v2.6c-0.1,0-0.3,0-0.5-0.1c-0.2,0-0.4,0-0.5,0c-0.5,0-1,0.1-1.3,0.3c-0.4,0.2-0.7,0.4-0.9,0.7
		s-0.4,0.7-0.5,1.1c-0.1,0.4-0.1,0.8-0.1,1.3v4.7h-2.8V5.3z"/>
	<path class="st0" d="M462.4,8.5c0-0.7,0.2-1.2,0.5-1.7c0.3-0.4,0.7-0.8,1.1-1.1c0.5-0.3,1-0.5,1.5-0.6c0.6-0.1,1.1-0.2,1.7-0.2
		c0.5,0,1,0,1.6,0.1s1,0.2,1.5,0.4c0.4,0.2,0.8,0.5,1.1,0.9c0.3,0.4,0.4,0.9,0.4,1.5v5.4c0,0.5,0,0.9,0.1,1.3c0.1,0.4,0.1,0.7,0.3,1
		h-2.9c-0.1-0.2-0.1-0.3-0.1-0.5c0-0.2-0.1-0.3-0.1-0.5c-0.5,0.5-1,0.8-1.6,1s-1.2,0.3-1.9,0.3c-0.5,0-1-0.1-1.4-0.2
		c-0.4-0.1-0.8-0.3-1.1-0.6c-0.3-0.3-0.6-0.6-0.8-1c-0.2-0.4-0.3-0.8-0.3-1.4c0-0.6,0.1-1.1,0.3-1.4c0.2-0.4,0.5-0.7,0.8-0.9
		s0.7-0.4,1.1-0.5c0.4-0.1,0.8-0.2,1.3-0.3s0.9-0.1,1.3-0.2s0.8-0.1,1.1-0.2s0.6-0.2,0.8-0.4c0.2-0.2,0.3-0.4,0.3-0.7
		c0-0.3-0.1-0.5-0.2-0.7c-0.1-0.2-0.2-0.3-0.4-0.4c-0.2-0.1-0.4-0.2-0.6-0.2c-0.2,0-0.5,0-0.7,0c-0.5,0-1,0.1-1.3,0.4
		c-0.3,0.2-0.5,0.6-0.6,1.2H462.4z M469,10.6c-0.1,0.1-0.3,0.2-0.5,0.3c-0.2,0.1-0.4,0.1-0.6,0.1c-0.2,0-0.4,0.1-0.7,0.1
		c-0.2,0-0.5,0.1-0.7,0.1c-0.2,0-0.4,0.1-0.6,0.2c-0.2,0.1-0.4,0.2-0.5,0.3s-0.3,0.3-0.4,0.4c-0.1,0.2-0.1,0.4-0.1,0.6
		c0,0.3,0,0.5,0.1,0.7c0.1,0.2,0.2,0.3,0.4,0.4c0.2,0.1,0.3,0.2,0.6,0.2s0.4,0.1,0.7,0.1c0.6,0,1-0.1,1.3-0.3
		c0.3-0.2,0.5-0.4,0.7-0.7c0.1-0.3,0.2-0.5,0.3-0.8c0-0.3,0.1-0.5,0.1-0.6V10.6z"/>
	<path class="st0" d="M481.2,9c-0.2-1.2-0.9-1.8-2.1-1.8c-0.5,0-0.8,0.1-1.1,0.3s-0.6,0.5-0.8,0.8c-0.2,0.3-0.3,0.7-0.4,1.1
		c-0.1,0.4-0.1,0.8-0.1,1.2c0,0.4,0,0.8,0.1,1.1c0.1,0.4,0.2,0.7,0.4,1.1c0.2,0.3,0.4,0.6,0.7,0.8s0.7,0.3,1.1,0.3
		c0.7,0,1.2-0.2,1.6-0.6s0.6-0.9,0.7-1.5h2.7c-0.2,1.4-0.7,2.4-1.6,3.2c-0.9,0.7-2,1.1-3.4,1.1c-0.8,0-1.5-0.1-2.1-0.4
		c-0.6-0.3-1.2-0.6-1.6-1.1c-0.5-0.5-0.8-1-1.1-1.7c-0.3-0.6-0.4-1.4-0.4-2.1c0-0.8,0.1-1.5,0.3-2.2c0.2-0.7,0.6-1.3,1-1.8
		c0.5-0.5,1-0.9,1.7-1.2s1.4-0.4,2.2-0.4c0.6,0,1.2,0.1,1.8,0.2c0.6,0.2,1.1,0.4,1.5,0.7c0.4,0.3,0.8,0.7,1.1,1.2S484,8.3,484,9
		H481.2z"/>
	<path class="st0" d="M489.4,5.3h2.1v1.9h-2.1v5.1c0,0.5,0.1,0.8,0.2,1c0.2,0.2,0.5,0.2,1,0.2c0.3,0,0.6,0,0.9-0.1v2.2
		c-0.2,0-0.5,0.1-0.8,0.1c-0.3,0-0.6,0-0.9,0c-0.4,0-0.9,0-1.3-0.1c-0.4-0.1-0.7-0.2-1-0.4s-0.5-0.4-0.7-0.8
		c-0.2-0.3-0.3-0.7-0.3-1.3V7.2h-1.7V5.3h1.7V2.2h2.8V5.3z"/>
	<path class="st0" d="M492.7,10.5c0-0.8,0.1-1.6,0.4-2.3c0.3-0.7,0.6-1.2,1.1-1.7c0.5-0.5,1-0.8,1.7-1.1c0.7-0.3,1.4-0.4,2.2-0.4
		c0.8,0,1.6,0.1,2.2,0.4c0.7,0.3,1.2,0.6,1.7,1.1s0.8,1,1.1,1.7c0.3,0.7,0.4,1.4,0.4,2.3c0,0.8-0.1,1.6-0.4,2.2
		c-0.3,0.7-0.6,1.2-1.1,1.7s-1,0.8-1.7,1.1c-0.7,0.3-1.4,0.4-2.2,0.4c-0.8,0-1.5-0.1-2.2-0.4c-0.7-0.3-1.2-0.6-1.7-1.1
		c-0.5-0.5-0.8-1-1.1-1.7C492.8,12.1,492.7,11.3,492.7,10.5z M495.5,10.5c0,0.4,0,0.8,0.1,1.2c0.1,0.4,0.2,0.7,0.4,1.1
		s0.5,0.6,0.8,0.8s0.7,0.3,1.2,0.3c0.5,0,0.9-0.1,1.2-0.3c0.3-0.2,0.6-0.4,0.8-0.8s0.3-0.7,0.4-1.1c0.1-0.4,0.1-0.8,0.1-1.2
		c0-0.4,0-0.8-0.1-1.2c-0.1-0.4-0.2-0.8-0.4-1.1c-0.2-0.3-0.5-0.6-0.8-0.8c-0.3-0.2-0.7-0.3-1.2-0.3c-0.5,0-0.9,0.1-1.2,0.3
		c-0.3,0.2-0.6,0.4-0.8,0.8c-0.2,0.3-0.3,0.7-0.4,1.1C495.6,9.7,495.5,10.1,495.5,10.5z"/>
	<path class="st0" d="M525,15.7h-3.1l-2.4-9.7h0l-2.4,9.7h-3.2l-3.8-14.3h3.1l2.3,9.7h0l2.5-9.7h2.9l2.4,9.8h0l2.3-9.8h3.1L525,15.7
		z"/>
	<path class="st0" d="M532.6,10.9c0,0.5,0.1,0.9,0.3,1.2c0.2,0.3,0.4,0.6,0.7,0.8s0.6,0.4,1,0.5c0.4,0.1,0.8,0.2,1.2,0.2
		c0.3,0,0.6,0,0.9-0.1c0.3,0,0.6-0.1,0.9-0.3c0.3-0.1,0.5-0.3,0.7-0.5c0.2-0.2,0.3-0.5,0.3-0.9c0-0.4-0.1-0.7-0.4-0.9
		c-0.2-0.2-0.6-0.4-1-0.6s-0.9-0.3-1.4-0.4s-1-0.2-1.5-0.4c-0.5-0.1-1.1-0.3-1.6-0.5c-0.5-0.2-1-0.4-1.4-0.8c-0.4-0.3-0.7-0.7-1-1.1
		S530,6,530,5.4c0-0.7,0.2-1.4,0.5-1.9c0.3-0.5,0.7-1,1.2-1.3c0.5-0.4,1.1-0.6,1.7-0.8c0.6-0.2,1.3-0.3,1.9-0.3
		c0.7,0,1.5,0.1,2.2,0.3c0.7,0.2,1.3,0.4,1.8,0.8c0.5,0.4,1,0.8,1.3,1.4s0.5,1.3,0.5,2.1h-3c0-0.4-0.1-0.8-0.3-1.1s-0.4-0.5-0.6-0.7
		c-0.3-0.2-0.5-0.3-0.9-0.3c-0.3-0.1-0.7-0.1-1.1-0.1c-0.3,0-0.5,0-0.8,0.1c-0.3,0.1-0.5,0.1-0.7,0.3c-0.2,0.1-0.4,0.3-0.5,0.5
		c-0.1,0.2-0.2,0.5-0.2,0.8c0,0.3,0.1,0.5,0.2,0.7s0.3,0.3,0.6,0.5c0.3,0.1,0.7,0.3,1.3,0.4s1.3,0.3,2.2,0.6c0.2,0,0.4,0.1,0.7,0.2
		c0.3,0.1,0.6,0.2,0.9,0.3s0.6,0.3,0.9,0.5c0.3,0.2,0.6,0.4,0.9,0.7c0.3,0.3,0.5,0.6,0.6,1c0.2,0.4,0.2,0.9,0.2,1.4
		c0,0.7-0.1,1.3-0.4,1.8c-0.3,0.6-0.6,1-1.1,1.5c-0.5,0.4-1.1,0.7-1.9,1c-0.7,0.2-1.6,0.3-2.6,0.3c-0.8,0-1.5-0.1-2.3-0.3
		c-0.7-0.2-1.4-0.5-2-0.9c-0.6-0.4-1-0.9-1.3-1.6s-0.5-1.4-0.5-2.3H532.6z"/>
	<path class="st0" d="M542.4,4.8c0-0.7,0.1-1.3,0.4-1.8s0.6-1,1-1.4s0.9-0.7,1.4-0.9c0.5-0.2,1.1-0.3,1.7-0.3s1.2,0.1,1.7,0.3
		c0.5,0.2,1,0.5,1.4,0.9s0.7,0.8,1,1.4c0.2,0.5,0.4,1.1,0.4,1.8c0,0.7-0.1,1.3-0.4,1.8c-0.2,0.5-0.6,1-1,1.4s-0.9,0.7-1.4,0.9
		c-0.5,0.2-1.1,0.3-1.7,0.3s-1.2-0.1-1.7-0.3c-0.5-0.2-1-0.5-1.4-0.9s-0.7-0.8-1-1.4S542.4,5.5,542.4,4.8z M543.6,4.8
		c0,0.5,0.1,1,0.3,1.4c0.2,0.4,0.4,0.8,0.7,1.1c0.3,0.3,0.6,0.5,1,0.7s0.8,0.3,1.3,0.3c0.5,0,0.9-0.1,1.3-0.3c0.4-0.2,0.7-0.4,1-0.7
		c0.3-0.3,0.5-0.7,0.7-1.1c0.2-0.4,0.3-0.9,0.3-1.4c0-0.5-0.1-1-0.3-1.4c-0.2-0.4-0.4-0.8-0.7-1.1c-0.3-0.3-0.6-0.5-1-0.7
		c-0.4-0.2-0.8-0.3-1.3-0.3c-0.5,0-0.9,0.1-1.3,0.3s-0.7,0.4-1,0.7c-0.3,0.3-0.5,0.7-0.7,1.1C543.7,3.9,543.6,4.3,543.6,4.8z
		 M545.1,2.4h1.8c0.6,0,1.1,0.1,1.4,0.3c0.3,0.2,0.5,0.6,0.5,1.1c0,0.2,0,0.4-0.1,0.6s-0.2,0.3-0.3,0.4c-0.1,0.1-0.3,0.2-0.4,0.2
		c-0.2,0.1-0.3,0.1-0.5,0.1l1.3,2.1h-1l-1.2-2.1h-0.6v2.1h-1V2.4z M546.1,4.4h0.9c0.1,0,0.3,0,0.4,0c0.1,0,0.2,0,0.3-0.1
		s0.2-0.1,0.2-0.2c0-0.1,0.1-0.2,0.1-0.4c0-0.1,0-0.2-0.1-0.3c-0.1-0.1-0.1-0.1-0.2-0.2s-0.2-0.1-0.3-0.1c-0.1,0-0.2,0-0.3,0h-0.8
		V4.4z"/>
	<path class="st0" d="M565.2,15.7h-2.8V6.6h-3.5V4.4c0.5,0,1,0,1.4-0.1c0.5-0.1,0.9-0.2,1.3-0.5s0.7-0.5,0.9-0.9
		c0.2-0.4,0.4-0.8,0.5-1.3h2.3V15.7z"/>
	<path class="st0" d="M573.2,7.3c0.3,0,0.6,0,1,0s0.7-0.1,1-0.2c0.3-0.1,0.5-0.3,0.7-0.5s0.3-0.6,0.3-1c0-0.6-0.2-1.1-0.6-1.4
		c-0.4-0.3-0.9-0.5-1.4-0.5c-0.7,0-1.3,0.2-1.6,0.7c-0.4,0.5-0.5,1.1-0.5,1.8h-2.7c0-0.7,0.2-1.4,0.4-2c0.2-0.6,0.6-1.1,1-1.5
		c0.4-0.4,0.9-0.8,1.5-1s1.2-0.4,2-0.4c0.6,0,1.1,0.1,1.7,0.3c0.6,0.2,1.1,0.4,1.5,0.8c0.4,0.3,0.8,0.7,1.1,1.2
		c0.3,0.5,0.4,1,0.4,1.7c0,0.7-0.2,1.3-0.5,1.8c-0.3,0.5-0.8,0.9-1.5,1.1v0c0.8,0.2,1.4,0.5,1.8,1.1c0.4,0.6,0.7,1.3,0.7,2
		c0,0.7-0.1,1.4-0.4,2c-0.3,0.6-0.7,1.1-1.1,1.4c-0.5,0.4-1,0.7-1.7,0.9c-0.6,0.2-1.3,0.3-2,0.3c-0.8,0-1.5-0.1-2.1-0.3
		c-0.6-0.2-1.2-0.6-1.7-1c-0.5-0.4-0.8-1-1-1.6c-0.2-0.6-0.4-1.3-0.3-2.2h2.7c0,0.4,0.1,0.7,0.2,1.1c0.1,0.3,0.3,0.6,0.5,0.9
		c0.2,0.2,0.4,0.4,0.8,0.6c0.3,0.1,0.7,0.2,1.1,0.2c0.6,0,1.2-0.2,1.6-0.6c0.4-0.4,0.7-0.9,0.7-1.6c0-0.5-0.1-0.9-0.3-1.2
		c-0.2-0.3-0.5-0.5-0.8-0.6s-0.7-0.2-1.1-0.2c-0.4,0-0.7,0-1.1,0V7.3z"/>
	<path class="st0" d="M590.3,4.1c-0.7,0.6-1.4,1.4-1.9,2.4c-0.6,0.9-1,1.9-1.4,3c-0.4,1.1-0.7,2.1-0.9,3.2c-0.2,1.1-0.3,2.1-0.3,3
		h-3c0.2-2.1,0.6-4.1,1.5-6c0.8-1.9,1.9-3.7,3.2-5.3h-6.6V1.7h9.6V4.1z"/>
	<path class="st0" d="M601.2,4h-5.8l-0.6,3.2l0,0c0.4-0.4,0.8-0.7,1.2-0.8c0.4-0.2,0.9-0.3,1.5-0.3c0.7,0,1.3,0.1,1.8,0.4
		c0.5,0.3,1,0.6,1.3,1s0.6,0.9,0.8,1.5s0.3,1.2,0.3,1.9c0,0.7-0.1,1.4-0.4,2s-0.7,1.2-1.1,1.6c-0.5,0.5-1,0.8-1.7,1.1
		s-1.3,0.4-2,0.4c-0.7,0-1.3-0.1-1.9-0.3c-0.6-0.2-1.2-0.5-1.7-0.8s-0.9-0.8-1.2-1.4c-0.3-0.6-0.4-1.2-0.4-1.9h2.8
		c0.1,0.6,0.3,1.1,0.7,1.5c0.4,0.4,0.9,0.6,1.6,0.6c0.4,0,0.7-0.1,1-0.2c0.3-0.1,0.5-0.3,0.8-0.6s0.4-0.5,0.5-0.9
		c0.1-0.3,0.2-0.7,0.2-1c0-0.4-0.1-0.7-0.2-1c-0.1-0.3-0.3-0.6-0.5-0.8c-0.2-0.2-0.5-0.4-0.8-0.6c-0.3-0.1-0.6-0.2-1-0.2
		c-0.5,0-0.9,0.1-1.2,0.3c-0.3,0.2-0.6,0.5-0.9,0.9H592l1.4-7.7h7.8V4z"/>
	<path class="st0" d="M603.7,12.6h3.1v3.1c0,0.5-0.1,0.9-0.3,1.3s-0.4,0.7-0.7,1c-0.3,0.3-0.6,0.5-1,0.7c-0.4,0.2-0.8,0.3-1.2,0.4
		v-1.4c0.2,0,0.4-0.1,0.6-0.2c0.2-0.1,0.3-0.3,0.5-0.4c0.1-0.2,0.2-0.4,0.3-0.6c0.1-0.2,0.1-0.4,0.1-0.7h-1.4V12.6z"/>
</g>
</svg>
