<!-- Generator: Adobe Illustrator 20.1.0, SVG Export Plug-In  -->
<svg version="1.1"
	 xmlns="http://www.w3.org/2000/svg" xmlns:xlink="http://www.w3.org/1999/xlink" xmlns:a="http://ns.adobe.com/AdobeSVGViewerExtensions/3.0/"
	 x="0px" y="0px" width="224.3px" height="11.3px" viewBox="0 0 224.3 11.3"
	 style="overflow:scroll;enable-background:new 0 0 224.3 11.3;" xml:space="preserve">
<style type="text/css">
	.st0{fill:#58595B;}
</style>
<defs>
</defs>
<g>
	<g>
		<path class="st0" d="M3.4,1.1l0.2,0.6L2.4,2.1l0.8,1.1L2.7,3.6L1.8,2.5L1,3.6L0.5,3.2l0.8-1.1L0,1.7l0.2-0.6l1.3,0.5V0.2h0.6v1.4
			L3.4,1.1z"/>
		<path class="st0" d="M6.2,2.6L6,3.5h0c0.3-0.4,0.6-0.7,1-0.8c0.3-0.1,0.7-0.2,1.1-0.2c0.4,0,0.8,0.1,1.1,0.2
			c0.3,0.1,0.6,0.3,0.8,0.5c0.2,0.2,0.4,0.5,0.5,0.8c0.1,0.3,0.2,0.7,0.2,1c0,0.5-0.1,1-0.2,1.4S9.9,7.4,9.6,7.7
			C9.3,8.1,9,8.4,8.5,8.7C8.1,8.9,7.6,9,7.1,9C6.9,9,6.7,9,6.5,9c-0.2,0-0.4-0.1-0.6-0.2C5.7,8.7,5.5,8.6,5.4,8.4
			C5.3,8.3,5.2,8.1,5.1,7.9h0l-0.7,3.4h-1l1.8-8.7H6.2z M9.1,3.8C8.9,3.5,8.5,3.4,7.9,3.4c-0.4,0-0.7,0.1-1,0.3S6.3,4.1,6.1,4.4
			c-0.2,0.3-0.4,0.6-0.5,1c-0.1,0.4-0.2,0.7-0.2,1c0,0.5,0.1,0.9,0.4,1.2C6.1,8,6.5,8.1,7,8.1c0.4,0,0.8-0.1,1.1-0.3
			c0.3-0.2,0.6-0.4,0.8-0.7c0.2-0.3,0.4-0.6,0.5-1S9.5,5.4,9.5,5C9.5,4.5,9.4,4.1,9.1,3.8z"/>
		<path class="st0" d="M12.7,5.8l5.2,2.3V9l-6.2-2.8V5.4l6.2-2.8v0.8L12.7,5.8z"/>
		<path class="st0" d="M19,3.7c0-0.3,0.1-0.7,0.1-1c0.1-0.3,0.2-0.6,0.3-0.9c0.1-0.3,0.3-0.5,0.5-0.8s0.5-0.4,0.8-0.5
			c0.3-0.1,0.7-0.2,1.1-0.2s0.8,0.1,1.1,0.2c0.3,0.1,0.6,0.3,0.8,0.5s0.4,0.5,0.5,0.8c0.1,0.3,0.2,0.6,0.3,0.9
			c0.1,0.3,0.1,0.7,0.1,1s0,0.7,0,1c0,0.3,0,0.6,0,1s-0.1,0.7-0.1,1c-0.1,0.3-0.2,0.6-0.3,0.9S24,8.1,23.8,8.3
			c-0.2,0.2-0.5,0.4-0.8,0.5S22.3,9,21.8,9c-0.4,0-0.8-0.1-1.1-0.2c-0.3-0.1-0.6-0.3-0.8-0.5c-0.2-0.2-0.4-0.5-0.5-0.8
			c-0.1-0.3-0.2-0.6-0.3-0.9C19.1,6.3,19,6,19,5.6s0-0.7,0-1C19,4.3,19,4,19,3.7z M20.1,5.7c0,0.4,0.1,0.8,0.2,1.1
			c0.1,0.4,0.3,0.6,0.5,0.9c0.2,0.2,0.6,0.4,1,0.4s0.8-0.1,1-0.4c0.2-0.2,0.4-0.5,0.5-0.9c0.1-0.4,0.2-0.7,0.2-1.1s0-0.8,0-1.1
			c0-0.2,0-0.4,0-0.7c0-0.3,0-0.5-0.1-0.8s-0.1-0.5-0.2-0.7c-0.1-0.2-0.2-0.5-0.3-0.6c-0.1-0.2-0.3-0.3-0.5-0.4
			c-0.2-0.1-0.4-0.2-0.7-0.2s-0.5,0.1-0.7,0.2c-0.2,0.1-0.4,0.3-0.5,0.4c-0.1,0.2-0.2,0.4-0.3,0.6c-0.1,0.2-0.1,0.5-0.2,0.7
			c0,0.3-0.1,0.5-0.1,0.8c0,0.3,0,0.5,0,0.7C20.1,5,20.1,5.3,20.1,5.7z"/>
		<path class="st0" d="M27.6,7.5v1.3h-1.3V7.5H27.6z"/>
		<path class="st0" d="M29.1,3.7c0-0.3,0.1-0.7,0.1-1c0.1-0.3,0.2-0.6,0.3-0.9C29.6,1.5,29.8,1.2,30,1s0.5-0.4,0.8-0.5
			c0.3-0.1,0.7-0.2,1.1-0.2s0.8,0.1,1.1,0.2c0.3,0.1,0.6,0.3,0.8,0.5s0.4,0.5,0.5,0.8c0.1,0.3,0.2,0.6,0.3,0.9
			c0.1,0.3,0.1,0.7,0.1,1s0,0.7,0,1c0,0.3,0,0.6,0,1s-0.1,0.7-0.1,1c-0.1,0.3-0.2,0.6-0.3,0.9s-0.3,0.5-0.5,0.8
			c-0.2,0.2-0.5,0.4-0.8,0.5S32.4,9,32,9c-0.4,0-0.8-0.1-1.1-0.2c-0.3-0.1-0.6-0.3-0.8-0.5c-0.2-0.2-0.4-0.5-0.5-0.8
			c-0.1-0.3-0.2-0.6-0.3-0.9c-0.1-0.3-0.1-0.7-0.1-1s0-0.7,0-1C29.1,4.3,29.1,4,29.1,3.7z M30.2,5.7c0,0.4,0.1,0.8,0.2,1.1
			c0.1,0.4,0.3,0.6,0.5,0.9c0.2,0.2,0.6,0.4,1,0.4s0.8-0.1,1-0.4c0.2-0.2,0.4-0.5,0.5-0.9c0.1-0.4,0.2-0.7,0.2-1.1s0-0.8,0-1.1
			c0-0.2,0-0.4,0-0.7c0-0.3,0-0.5-0.1-0.8s-0.1-0.5-0.2-0.7c-0.1-0.2-0.2-0.5-0.3-0.6c-0.1-0.2-0.3-0.3-0.5-0.4
			c-0.2-0.1-0.4-0.2-0.7-0.2s-0.5,0.1-0.7,0.2c-0.2,0.1-0.4,0.3-0.5,0.4c-0.1,0.2-0.2,0.4-0.3,0.6c-0.1,0.2-0.1,0.5-0.2,0.7
			c0,0.3-0.1,0.5-0.1,0.8c0,0.3,0,0.5,0,0.7C30.2,5,30.2,5.3,30.2,5.7z"/>
		<path class="st0" d="M35.9,3.7c0-0.3,0.1-0.7,0.1-1c0.1-0.3,0.2-0.6,0.3-0.9c0.1-0.3,0.3-0.5,0.5-0.8s0.5-0.4,0.8-0.5
			c0.3-0.1,0.7-0.2,1.1-0.2s0.8,0.1,1.1,0.2c0.3,0.1,0.6,0.3,0.8,0.5s0.4,0.5,0.5,0.8c0.1,0.3,0.2,0.6,0.3,0.9
			c0.1,0.3,0.1,0.7,0.1,1s0,0.7,0,1c0,0.3,0,0.6,0,1s-0.1,0.7-0.1,1c-0.1,0.3-0.2,0.6-0.3,0.9s-0.3,0.5-0.5,0.8
			c-0.2,0.2-0.5,0.4-0.8,0.5S39.2,9,38.7,9c-0.4,0-0.8-0.1-1.1-0.2c-0.3-0.1-0.6-0.3-0.8-0.5c-0.2-0.2-0.4-0.5-0.5-0.8
			C36.2,7.3,36.1,7,36,6.6c-0.1-0.3-0.1-0.7-0.1-1s0-0.7,0-1C35.8,4.3,35.9,4,35.9,3.7z M37,5.7c0,0.4,0.1,0.8,0.2,1.1
			c0.1,0.4,0.3,0.6,0.5,0.9c0.2,0.2,0.6,0.4,1,0.4s0.8-0.1,1-0.4c0.2-0.2,0.4-0.5,0.5-0.9c0.1-0.4,0.2-0.7,0.2-1.1s0-0.8,0-1.1
			c0-0.2,0-0.4,0-0.7c0-0.3,0-0.5-0.1-0.8s-0.1-0.5-0.2-0.7C40.2,2.2,40.1,2,40,1.8c-0.1-0.2-0.3-0.3-0.5-0.4
			c-0.2-0.1-0.4-0.2-0.7-0.2S38.2,1.2,38,1.3c-0.2,0.1-0.4,0.3-0.5,0.4c-0.1,0.2-0.2,0.4-0.3,0.6C37.1,2.7,37,2.9,37,3.2
			c0,0.3-0.1,0.5-0.1,0.8c0,0.3,0,0.5,0,0.7C36.9,5,37,5.3,37,5.7z"/>
		<path class="st0" d="M42.6,3.7c0-0.3,0.1-0.7,0.1-1C42.8,2.3,42.9,2,43,1.7c0.1-0.3,0.3-0.5,0.5-0.8s0.5-0.4,0.8-0.5
			c0.3-0.1,0.7-0.2,1.1-0.2s0.8,0.1,1.1,0.2c0.3,0.1,0.6,0.3,0.8,0.5s0.4,0.5,0.5,0.8C48,2,48.1,2.3,48.2,2.7c0.1,0.3,0.1,0.7,0.1,1
			s0,0.7,0,1c0,0.3,0,0.6,0,1s-0.1,0.7-0.1,1C48.1,7,48,7.3,47.9,7.5s-0.3,0.5-0.5,0.8c-0.2,0.2-0.5,0.4-0.8,0.5S45.9,9,45.5,9
			c-0.4,0-0.8-0.1-1.1-0.2c-0.3-0.1-0.6-0.3-0.8-0.5c-0.2-0.2-0.4-0.5-0.5-0.8c-0.1-0.3-0.2-0.6-0.3-0.9c-0.1-0.3-0.1-0.7-0.1-1
			s0-0.7,0-1C42.6,4.3,42.6,4,42.6,3.7z M43.7,5.7c0,0.4,0.1,0.8,0.2,1.1c0.1,0.4,0.3,0.6,0.5,0.9c0.2,0.2,0.6,0.4,1,0.4
			s0.8-0.1,1-0.4c0.2-0.2,0.4-0.5,0.5-0.9c0.1-0.4,0.2-0.7,0.2-1.1s0-0.8,0-1.1c0-0.2,0-0.4,0-0.7c0-0.3,0-0.5-0.1-0.8
			S47.1,2.7,47,2.4c-0.1-0.2-0.2-0.5-0.3-0.6c-0.1-0.2-0.3-0.3-0.5-0.4c-0.2-0.1-0.4-0.2-0.7-0.2s-0.5,0.1-0.7,0.2
			c-0.2,0.1-0.4,0.3-0.5,0.4C44.1,2,44,2.2,43.9,2.4c-0.1,0.2-0.1,0.5-0.2,0.7c0,0.3-0.1,0.5-0.1,0.8c0,0.3,0,0.5,0,0.7
			C43.7,5,43.7,5.3,43.7,5.7z"/>
		<path class="st0" d="M52.1,8.9V2.7h-2.2V1.9c0.3,0,0.6,0,0.8-0.1c0.3,0,0.5-0.1,0.7-0.2s0.4-0.3,0.6-0.5c0.2-0.2,0.3-0.5,0.3-0.8
			h0.8v8.6H52.1z"/>
		<path class="st0" d="M60.4,8.9l-0.9-6.3h1.1l0.5,5.2h0l2.7-5.2H65l-3.5,6.3H60.4z"/>
		<path class="st0" d="M68.8,3.6c-0.3-0.2-0.6-0.3-0.9-0.3c-0.2,0-0.3,0-0.5,0c-0.2,0-0.3,0.1-0.4,0.1c-0.1,0.1-0.2,0.1-0.3,0.2
			c-0.1,0.1-0.1,0.2-0.1,0.4c0,0.1,0,0.3,0.1,0.4s0.2,0.2,0.4,0.3c0.2,0.1,0.3,0.2,0.5,0.2c0.2,0.1,0.4,0.2,0.6,0.2
			c0.2,0.1,0.4,0.2,0.6,0.3c0.2,0.1,0.4,0.2,0.5,0.4c0.2,0.1,0.3,0.3,0.4,0.5c0.1,0.2,0.1,0.4,0.1,0.6c0,0.3-0.1,0.6-0.2,0.9
			c-0.2,0.2-0.4,0.4-0.6,0.6c-0.2,0.2-0.5,0.3-0.8,0.3C67.8,9,67.5,9,67.2,9c-0.4,0-0.7,0-1-0.1s-0.6-0.2-0.8-0.3S65,8.2,64.9,7.9
			c-0.1-0.3-0.2-0.6-0.2-1h1c0,0.2,0,0.4,0.1,0.6s0.2,0.3,0.4,0.4C66.3,7.9,66.5,8,66.7,8c0.2,0,0.4,0.1,0.6,0.1c0.2,0,0.3,0,0.5,0
			s0.3-0.1,0.5-0.2c0.1-0.1,0.2-0.2,0.3-0.3c0.1-0.1,0.1-0.3,0.1-0.4c0-0.2,0-0.3-0.1-0.4s-0.2-0.2-0.4-0.3
			c-0.2-0.1-0.3-0.2-0.5-0.2c-0.2-0.1-0.4-0.2-0.6-0.2c-0.2-0.1-0.4-0.2-0.6-0.3c-0.2-0.1-0.4-0.2-0.5-0.3c-0.2-0.1-0.3-0.3-0.4-0.5
			c-0.1-0.2-0.1-0.4-0.1-0.6c0-0.3,0.1-0.6,0.2-0.8c0.1-0.2,0.3-0.4,0.5-0.6c0.2-0.1,0.5-0.3,0.7-0.3s0.6-0.1,0.9-0.1s0.6,0,0.9,0.1
			c0.3,0.1,0.5,0.2,0.8,0.3c0.2,0.2,0.4,0.4,0.5,0.6s0.2,0.6,0.2,0.9h-1C69.1,4.1,69,3.8,68.8,3.6z"/>
		<path class="st0" d="M73,7.5v1.3h-1.3V7.5H73z"/>
		<path class="st0" d="M79.3,0.2v8.7h-1V0.2H79.3z"/>
		<path class="st0" d="M83.1,0l-1.6,1.7h-0.8l1-1.7H83.1z M80.9,2.6h1v6.3h-1V2.6z"/>
		<path class="st0" d="M84.5,2.6v1h0c0.4-0.8,1.1-1.1,2-1.1c0.4,0,0.8,0.1,1,0.2s0.5,0.3,0.7,0.5c0.2,0.2,0.3,0.4,0.4,0.7
			s0.1,0.6,0.1,0.9v4.1h-1V4.6c0-0.4-0.1-0.7-0.3-0.9s-0.5-0.3-0.9-0.3c-0.3,0-0.6,0-0.8,0.1c-0.2,0.1-0.4,0.2-0.6,0.4
			s-0.3,0.4-0.3,0.6c-0.1,0.2-0.1,0.5-0.1,0.8v3.5h-1V2.6H84.5z"/>
		<path class="st0" d="M94.8,8.5C94.3,8.8,93.7,9,93,9c-0.5,0-0.9-0.1-1.3-0.2c-0.4-0.2-0.7-0.4-0.9-0.7c-0.3-0.3-0.4-0.6-0.6-1
			C90.1,6.6,90,6.2,90,5.7c0-0.5,0.1-0.9,0.2-1.3s0.3-0.7,0.6-1c0.3-0.3,0.6-0.5,0.9-0.7c0.4-0.2,0.8-0.2,1.2-0.2
			c0.6,0,1,0.1,1.4,0.3C94.7,3,95,3.3,95.2,3.7s0.4,0.7,0.5,1.2c0.1,0.4,0.1,0.8,0.1,1.2h-4.7c0,0.3,0,0.5,0.1,0.8
			c0.1,0.2,0.2,0.5,0.4,0.7c0.2,0.2,0.4,0.3,0.6,0.5c0.3,0.1,0.5,0.2,0.9,0.2c0.4,0,0.8-0.1,1.1-0.3s0.5-0.5,0.6-0.9h1
			C95.5,7.6,95.2,8.1,94.8,8.5z M94.5,4.4c-0.1-0.2-0.2-0.4-0.4-0.6c-0.2-0.2-0.3-0.3-0.6-0.4s-0.5-0.1-0.7-0.1
			c-0.3,0-0.5,0-0.7,0.1s-0.4,0.2-0.6,0.4c-0.2,0.2-0.3,0.4-0.4,0.6c-0.1,0.2-0.1,0.4-0.2,0.7h3.6C94.7,4.9,94.6,4.7,94.5,4.4z"/>
		<path class="st0" d="M101.7,9c-0.3,0-0.5-0.1-0.6-0.2c-0.2-0.2-0.2-0.4-0.2-0.7c-0.3,0.3-0.6,0.6-1,0.7C99.4,8.9,99,9,98.6,9
			c-0.3,0-0.6,0-0.8-0.1c-0.3-0.1-0.5-0.2-0.7-0.3s-0.3-0.3-0.4-0.5s-0.2-0.5-0.2-0.8c0-0.4,0.1-0.6,0.2-0.9C96.8,6.2,97,6,97.2,5.8
			c0.2-0.1,0.4-0.2,0.7-0.3c0.3-0.1,0.5-0.1,0.8-0.2c0.3-0.1,0.6-0.1,0.8-0.1c0.3,0,0.5-0.1,0.7-0.1c0.2-0.1,0.3-0.1,0.5-0.2
			s0.2-0.2,0.2-0.4c0-0.2,0-0.4-0.1-0.5c-0.1-0.1-0.2-0.2-0.3-0.3c-0.1-0.1-0.3-0.1-0.4-0.1s-0.3,0-0.5,0c-0.4,0-0.8,0.1-1.1,0.2
			c-0.3,0.2-0.4,0.5-0.5,0.9h-1c0-0.4,0.1-0.7,0.2-1c0.1-0.3,0.3-0.5,0.6-0.6s0.5-0.3,0.8-0.4c0.3-0.1,0.6-0.1,1-0.1
			c0.3,0,0.6,0,0.8,0.1c0.3,0,0.5,0.1,0.8,0.2c0.2,0.1,0.4,0.3,0.5,0.5s0.2,0.5,0.2,0.9v3.2c0,0.2,0,0.4,0,0.5
			c0,0.1,0.1,0.2,0.3,0.2c0.1,0,0.2,0,0.3-0.1v0.8C102.2,9,102,9,101.7,9z M100.2,5.8c-0.2,0-0.4,0.1-0.7,0.1S99.1,6,98.8,6.1
			c-0.2,0-0.4,0.1-0.6,0.2c-0.2,0.1-0.3,0.2-0.5,0.3c-0.1,0.2-0.2,0.4-0.2,0.6c0,0.2,0,0.3,0.1,0.4c0.1,0.1,0.2,0.2,0.3,0.3
			C98.1,8,98.2,8,98.3,8.1s0.3,0,0.5,0c0.3,0,0.6,0,0.9-0.1c0.2-0.1,0.4-0.2,0.6-0.4c0.2-0.1,0.3-0.3,0.3-0.5
			c0.1-0.2,0.1-0.3,0.1-0.5V5.6C100.6,5.7,100.4,5.8,100.2,5.8z"/>
		<path class="st0" d="M107.8,0.2v3.2h0c0.2-0.3,0.4-0.6,0.8-0.8c0.4-0.2,0.8-0.2,1.2-0.2c0.5,0,0.9,0.1,1.3,0.3
			c0.4,0.2,0.7,0.4,0.9,0.7c0.2,0.3,0.4,0.7,0.5,1s0.2,0.8,0.2,1.3s-0.1,0.9-0.2,1.3s-0.3,0.7-0.5,1c-0.2,0.3-0.5,0.5-0.9,0.7
			S110.3,9,109.8,9c-0.2,0-0.3,0-0.5,0c-0.2,0-0.4-0.1-0.6-0.2c-0.2-0.1-0.4-0.2-0.5-0.3c-0.2-0.1-0.3-0.3-0.4-0.5h0v0.8h-1V0.2
			H107.8z M111.5,4.8c-0.1-0.3-0.2-0.5-0.4-0.7c-0.2-0.2-0.4-0.4-0.6-0.5c-0.2-0.1-0.5-0.2-0.9-0.2c-0.3,0-0.6,0.1-0.9,0.2
			c-0.2,0.1-0.4,0.3-0.6,0.5c-0.2,0.2-0.3,0.5-0.3,0.8c-0.1,0.3-0.1,0.6-0.1,0.9c0,0.3,0,0.6,0.1,0.9c0.1,0.3,0.2,0.5,0.3,0.8
			s0.4,0.4,0.6,0.5c0.3,0.1,0.6,0.2,0.9,0.2c0.4,0,0.7-0.1,0.9-0.2c0.2-0.1,0.4-0.3,0.6-0.5c0.1-0.2,0.3-0.5,0.3-0.8
			c0.1-0.3,0.1-0.6,0.1-0.9C111.6,5.4,111.6,5.1,111.5,4.8z"/>
		<path class="st0" d="M118.7,9c-0.3,0-0.5-0.1-0.6-0.2c-0.2-0.2-0.2-0.4-0.2-0.7c-0.3,0.3-0.6,0.6-1,0.7c-0.4,0.1-0.8,0.2-1.2,0.2
			c-0.3,0-0.6,0-0.8-0.1c-0.3-0.1-0.5-0.2-0.7-0.3s-0.3-0.3-0.4-0.5s-0.2-0.5-0.2-0.8c0-0.4,0.1-0.6,0.2-0.9
			c0.1-0.2,0.3-0.4,0.5-0.6c0.2-0.1,0.4-0.2,0.7-0.3c0.3-0.1,0.5-0.1,0.8-0.2c0.3-0.1,0.6-0.1,0.8-0.1c0.3,0,0.5-0.1,0.7-0.1
			c0.2-0.1,0.3-0.1,0.5-0.2s0.2-0.2,0.2-0.4c0-0.2,0-0.4-0.1-0.5c-0.1-0.1-0.2-0.2-0.3-0.3c-0.1-0.1-0.3-0.1-0.4-0.1s-0.3,0-0.5,0
			c-0.4,0-0.8,0.1-1.1,0.2c-0.3,0.2-0.4,0.5-0.5,0.9h-1c0-0.4,0.1-0.7,0.2-1c0.1-0.3,0.3-0.5,0.6-0.6s0.5-0.3,0.8-0.4
			c0.3-0.1,0.6-0.1,1-0.1c0.3,0,0.6,0,0.8,0.1c0.3,0,0.5,0.1,0.8,0.2c0.2,0.1,0.4,0.3,0.5,0.5s0.2,0.5,0.2,0.9v3.2
			c0,0.2,0,0.4,0,0.5c0,0.1,0.1,0.2,0.3,0.2c0.1,0,0.2,0,0.3-0.1v0.8C119.3,9,119.1,9,118.7,9z M117.3,5.8c-0.2,0-0.4,0.1-0.7,0.1
			s-0.5,0.1-0.7,0.1c-0.2,0-0.4,0.1-0.6,0.2c-0.2,0.1-0.3,0.2-0.5,0.3c-0.1,0.2-0.2,0.4-0.2,0.6c0,0.2,0,0.3,0.1,0.4
			c0.1,0.1,0.2,0.2,0.3,0.3c0.1,0.1,0.2,0.1,0.4,0.2s0.3,0,0.5,0c0.3,0,0.6,0,0.9-0.1c0.2-0.1,0.4-0.2,0.6-0.4
			c0.2-0.1,0.3-0.3,0.3-0.5c0.1-0.2,0.1-0.3,0.1-0.5V5.6C117.7,5.7,117.5,5.8,117.3,5.8z"/>
		<path class="st0" d="M121.2,7.5c0.1,0.2,0.2,0.3,0.4,0.4c0.2,0.1,0.3,0.2,0.5,0.2c0.2,0,0.4,0.1,0.6,0.1c0.2,0,0.3,0,0.5,0
			c0.2,0,0.3-0.1,0.5-0.1c0.1-0.1,0.3-0.2,0.4-0.3c0.1-0.1,0.1-0.3,0.1-0.5c0-0.3-0.1-0.5-0.3-0.6s-0.5-0.2-0.8-0.3
			c-0.3-0.1-0.6-0.2-1-0.2c-0.4-0.1-0.7-0.2-1-0.3c-0.3-0.1-0.6-0.3-0.8-0.5c-0.2-0.2-0.3-0.5-0.3-0.9c0-0.3,0.1-0.6,0.2-0.8
			s0.3-0.4,0.5-0.6s0.5-0.2,0.8-0.3c0.3-0.1,0.6-0.1,0.8-0.1c0.4,0,0.7,0,1,0.1s0.6,0.2,0.8,0.3s0.4,0.4,0.6,0.6
			c0.1,0.3,0.2,0.6,0.2,1h-1c0-0.2-0.1-0.4-0.2-0.5c-0.1-0.1-0.2-0.2-0.3-0.3s-0.3-0.1-0.5-0.2s-0.3-0.1-0.5-0.1c-0.2,0-0.3,0-0.5,0
			c-0.2,0-0.3,0.1-0.4,0.1s-0.2,0.1-0.3,0.2c-0.1,0.1-0.1,0.2-0.1,0.4c0,0.2,0.1,0.3,0.2,0.4s0.3,0.2,0.5,0.3
			c0.2,0.1,0.4,0.1,0.7,0.2c0.2,0.1,0.5,0.1,0.7,0.2c0.3,0.1,0.5,0.1,0.8,0.2c0.2,0.1,0.5,0.2,0.7,0.3c0.2,0.1,0.3,0.3,0.5,0.5
			s0.2,0.5,0.2,0.8c0,0.4-0.1,0.7-0.2,0.9c-0.2,0.3-0.4,0.5-0.6,0.6c-0.3,0.2-0.5,0.3-0.9,0.3C123.3,9,123,9,122.7,9
			c-0.3,0-0.7,0-1-0.1c-0.3-0.1-0.6-0.2-0.8-0.4c-0.2-0.2-0.4-0.4-0.6-0.7c-0.1-0.3-0.2-0.6-0.2-1h1C121.1,7.1,121.1,7.3,121.2,7.5z
			"/>
		<path class="st0" d="M131.3,9c-0.3,0-0.5-0.1-0.6-0.2c-0.2-0.2-0.2-0.4-0.2-0.7c-0.3,0.3-0.6,0.6-1,0.7c-0.4,0.1-0.8,0.2-1.2,0.2
			c-0.3,0-0.6,0-0.8-0.1c-0.3-0.1-0.5-0.2-0.7-0.3s-0.3-0.3-0.4-0.5s-0.2-0.5-0.2-0.8c0-0.4,0.1-0.6,0.2-0.9
			c0.1-0.2,0.3-0.4,0.5-0.6c0.2-0.1,0.4-0.2,0.7-0.3c0.3-0.1,0.5-0.1,0.8-0.2c0.3-0.1,0.6-0.1,0.8-0.1c0.3,0,0.5-0.1,0.7-0.1
			c0.2-0.1,0.3-0.1,0.5-0.2s0.2-0.2,0.2-0.4c0-0.2,0-0.4-0.1-0.5c-0.1-0.1-0.2-0.2-0.3-0.3c-0.1-0.1-0.3-0.1-0.4-0.1s-0.3,0-0.5,0
			c-0.4,0-0.8,0.1-1.1,0.2c-0.3,0.2-0.4,0.5-0.5,0.9h-1c0-0.4,0.1-0.7,0.2-1c0.1-0.3,0.3-0.5,0.6-0.6s0.5-0.3,0.8-0.4
			c0.3-0.1,0.6-0.1,1-0.1c0.3,0,0.6,0,0.8,0.1c0.3,0,0.5,0.1,0.8,0.2c0.2,0.1,0.4,0.3,0.5,0.5s0.2,0.5,0.2,0.9v3.2
			c0,0.2,0,0.4,0,0.5c0,0.1,0.1,0.2,0.3,0.2c0.1,0,0.2,0,0.3-0.1v0.8C131.9,9,131.7,9,131.3,9z M129.9,5.8c-0.2,0-0.4,0.1-0.7,0.1
			s-0.5,0.1-0.7,0.1c-0.2,0-0.4,0.1-0.6,0.2c-0.2,0.1-0.3,0.2-0.5,0.3c-0.1,0.2-0.2,0.4-0.2,0.6c0,0.2,0,0.3,0.1,0.4
			c0.1,0.1,0.2,0.2,0.3,0.3c0.1,0.1,0.2,0.1,0.4,0.2s0.3,0,0.5,0c0.3,0,0.6,0,0.9-0.1c0.2-0.1,0.4-0.2,0.6-0.4
			c0.2-0.1,0.3-0.3,0.3-0.5c0.1-0.2,0.1-0.3,0.1-0.5V5.6C130.3,5.7,130.1,5.8,129.9,5.8z"/>
		<path class="st0" d="M134.1,0.2v8.7h-1V0.2H134.1z"/>
		<path class="st0" d="M143.5,8.5c-0.5,0.4-1.1,0.5-1.8,0.5c-0.5,0-0.9-0.1-1.3-0.2s-0.7-0.4-0.9-0.7s-0.4-0.6-0.6-1
			c-0.1-0.4-0.2-0.8-0.2-1.3c0-0.5,0.1-0.9,0.2-1.3c0.1-0.4,0.3-0.7,0.6-1c0.3-0.3,0.6-0.5,0.9-0.7c0.4-0.2,0.8-0.2,1.2-0.2
			c0.6,0,1,0.1,1.4,0.3s0.7,0.5,0.9,0.9s0.4,0.7,0.5,1.2s0.1,0.8,0.1,1.2h-4.7c0,0.3,0,0.5,0.1,0.8s0.2,0.5,0.4,0.7
			c0.2,0.2,0.4,0.3,0.6,0.5c0.3,0.1,0.5,0.2,0.9,0.2c0.4,0,0.8-0.1,1.1-0.3c0.3-0.2,0.5-0.5,0.6-0.9h1C144.3,7.6,144,8.1,143.5,8.5z
			 M143.3,4.4c-0.1-0.2-0.2-0.4-0.4-0.6c-0.2-0.2-0.3-0.3-0.6-0.4c-0.2-0.1-0.5-0.1-0.7-0.1c-0.3,0-0.5,0-0.7,0.1
			c-0.2,0.1-0.4,0.2-0.6,0.4c-0.2,0.2-0.3,0.4-0.4,0.6c-0.1,0.2-0.1,0.4-0.2,0.7h3.6C143.4,4.9,143.4,4.7,143.3,4.4z"/>
		<path class="st0" d="M146.6,2.6v1h0c0.4-0.8,1.1-1.1,2-1.1c0.4,0,0.8,0.1,1,0.2c0.3,0.1,0.5,0.3,0.7,0.5c0.2,0.2,0.3,0.4,0.4,0.7
			s0.1,0.6,0.1,0.9v4.1h-1V4.6c0-0.4-0.1-0.7-0.3-0.9s-0.5-0.3-0.9-0.3c-0.3,0-0.6,0-0.8,0.1c-0.2,0.1-0.4,0.2-0.6,0.4
			c-0.2,0.2-0.3,0.4-0.3,0.6c-0.1,0.2-0.1,0.5-0.1,0.8v3.5h-1V2.6H146.6z"/>
		<path class="st0" d="M156.8,0.2v8.7h-1V0.2H156.8z"/>
		<path class="st0" d="M163.3,9c-0.3,0-0.5-0.1-0.6-0.2c-0.2-0.2-0.2-0.4-0.2-0.7c-0.3,0.3-0.6,0.6-1,0.7C161,8.9,160.6,9,160.2,9
			c-0.3,0-0.6,0-0.8-0.1c-0.3-0.1-0.5-0.2-0.7-0.3c-0.2-0.1-0.3-0.3-0.4-0.5s-0.2-0.5-0.2-0.8c0-0.4,0.1-0.6,0.2-0.9
			c0.1-0.2,0.3-0.4,0.5-0.6c0.2-0.1,0.4-0.2,0.7-0.3c0.3-0.1,0.5-0.1,0.8-0.2c0.3-0.1,0.6-0.1,0.8-0.1c0.3,0,0.5-0.1,0.7-0.1
			c0.2-0.1,0.3-0.1,0.5-0.2c0.1-0.1,0.2-0.2,0.2-0.4c0-0.2,0-0.4-0.1-0.5c-0.1-0.1-0.2-0.2-0.3-0.3c-0.1-0.1-0.3-0.1-0.4-0.1
			s-0.3,0-0.5,0c-0.4,0-0.8,0.1-1.1,0.2s-0.4,0.5-0.5,0.9h-1c0-0.4,0.1-0.7,0.2-1c0.1-0.3,0.3-0.5,0.6-0.6s0.5-0.3,0.8-0.4
			c0.3-0.1,0.6-0.1,1-0.1c0.3,0,0.6,0,0.8,0.1c0.3,0,0.5,0.1,0.8,0.2c0.2,0.1,0.4,0.3,0.5,0.5c0.1,0.2,0.2,0.5,0.2,0.9v3.2
			c0,0.2,0,0.4,0,0.5c0,0.1,0.1,0.2,0.3,0.2c0.1,0,0.2,0,0.3-0.1v0.8C163.8,9,163.6,9,163.3,9z M161.8,5.8c-0.2,0-0.4,0.1-0.7,0.1
			c-0.2,0-0.5,0.1-0.7,0.1c-0.2,0-0.4,0.1-0.6,0.2c-0.2,0.1-0.3,0.2-0.5,0.3c-0.1,0.2-0.2,0.4-0.2,0.6c0,0.2,0,0.3,0.1,0.4
			c0.1,0.1,0.2,0.2,0.3,0.3c0.1,0.1,0.2,0.1,0.4,0.2c0.1,0,0.3,0,0.5,0c0.3,0,0.6,0,0.9-0.1s0.4-0.2,0.6-0.4
			c0.2-0.1,0.3-0.3,0.3-0.5c0.1-0.2,0.1-0.3,0.1-0.5V5.6C162.2,5.7,162,5.8,161.8,5.8z"/>
		<path class="st0" d="M165.8,7.5c0.1,0.2,0.2,0.3,0.4,0.4c0.2,0.1,0.3,0.2,0.5,0.2c0.2,0,0.4,0.1,0.6,0.1c0.2,0,0.3,0,0.5,0
			c0.2,0,0.3-0.1,0.5-0.1c0.2-0.1,0.3-0.2,0.4-0.3c0.1-0.1,0.1-0.3,0.1-0.5c0-0.3-0.1-0.5-0.3-0.6c-0.2-0.1-0.5-0.2-0.8-0.3
			s-0.6-0.2-1-0.2c-0.4-0.1-0.7-0.2-1-0.3c-0.3-0.1-0.6-0.3-0.8-0.5c-0.2-0.2-0.3-0.5-0.3-0.9c0-0.3,0.1-0.6,0.2-0.8
			s0.3-0.4,0.5-0.6s0.5-0.2,0.8-0.3c0.3-0.1,0.6-0.1,0.8-0.1c0.4,0,0.7,0,1,0.1s0.6,0.2,0.8,0.3c0.2,0.1,0.4,0.4,0.6,0.6
			c0.1,0.3,0.2,0.6,0.2,1h-1c0-0.2-0.1-0.4-0.2-0.5c-0.1-0.1-0.2-0.2-0.3-0.3s-0.3-0.1-0.5-0.2c-0.2,0-0.3-0.1-0.5-0.1
			c-0.2,0-0.3,0-0.5,0c-0.2,0-0.3,0.1-0.4,0.1s-0.2,0.1-0.3,0.2c-0.1,0.1-0.1,0.2-0.1,0.4c0,0.2,0.1,0.3,0.2,0.4s0.3,0.2,0.5,0.3
			c0.2,0.1,0.4,0.1,0.7,0.2c0.2,0.1,0.5,0.1,0.7,0.2c0.3,0.1,0.5,0.1,0.8,0.2c0.2,0.1,0.5,0.2,0.7,0.3s0.3,0.3,0.5,0.5
			c0.1,0.2,0.2,0.5,0.2,0.8c0,0.4-0.1,0.7-0.2,0.9c-0.2,0.3-0.4,0.5-0.6,0.6c-0.3,0.2-0.5,0.3-0.9,0.3c-0.3,0.1-0.6,0.1-1,0.1
			c-0.3,0-0.7,0-1-0.1c-0.3-0.1-0.6-0.2-0.8-0.4c-0.2-0.2-0.4-0.4-0.6-0.7c-0.1-0.3-0.2-0.6-0.2-1h1C165.6,7.1,165.7,7.3,165.8,7.5z
			"/>
		<path class="st0" d="M178.6,2.8c-0.4,0.6-0.7,1.2-1,1.9c-0.3,0.7-0.5,1.4-0.7,2.1c-0.2,0.7-0.3,1.4-0.3,2.1h-1.2
			c0-0.7,0.2-1.4,0.4-2.1c0.2-0.7,0.4-1.4,0.7-2c0.3-0.6,0.6-1.2,1-1.8s0.8-1.1,1.3-1.6h-4.5v-1h5.6v0.9
			C179.4,1.7,179,2.2,178.6,2.8z"/>
		<path class="st0" d="M189,8.5c-0.5,0.4-1.1,0.5-1.8,0.5c-0.5,0-0.9-0.1-1.3-0.2c-0.4-0.2-0.7-0.4-0.9-0.7c-0.3-0.3-0.4-0.6-0.6-1
			c-0.1-0.4-0.2-0.8-0.2-1.3c0-0.5,0.1-0.9,0.2-1.3c0.1-0.4,0.3-0.7,0.6-1c0.3-0.3,0.6-0.5,0.9-0.7s0.8-0.2,1.2-0.2
			c0.6,0,1,0.1,1.4,0.3c0.4,0.2,0.7,0.5,0.9,0.9s0.4,0.7,0.5,1.2C190,5.3,190,5.7,190,6h-4.7c0,0.3,0,0.5,0.1,0.8
			c0.1,0.2,0.2,0.5,0.4,0.7c0.2,0.2,0.4,0.3,0.6,0.5s0.5,0.2,0.9,0.2c0.4,0,0.8-0.1,1.1-0.3c0.3-0.2,0.5-0.5,0.6-0.9h1
			C189.8,7.6,189.4,8.1,189,8.5z M188.7,4.4c-0.1-0.2-0.2-0.4-0.4-0.6c-0.2-0.2-0.3-0.3-0.6-0.4s-0.5-0.1-0.7-0.1
			c-0.3,0-0.5,0-0.7,0.1s-0.4,0.2-0.6,0.4c-0.2,0.2-0.3,0.4-0.4,0.6c-0.1,0.2-0.1,0.4-0.2,0.7h3.6C188.9,4.9,188.8,4.7,188.7,4.4z"
			/>
		<path class="st0" d="M191.8,7.5c0.1,0.2,0.2,0.3,0.4,0.4c0.2,0.1,0.3,0.2,0.5,0.2c0.2,0,0.4,0.1,0.6,0.1c0.2,0,0.3,0,0.5,0
			c0.2,0,0.3-0.1,0.5-0.1c0.2-0.1,0.3-0.2,0.4-0.3c0.1-0.1,0.1-0.3,0.1-0.5c0-0.3-0.1-0.5-0.3-0.6c-0.2-0.1-0.5-0.2-0.8-0.3
			s-0.6-0.2-1-0.2c-0.4-0.1-0.7-0.2-1-0.3c-0.3-0.1-0.6-0.3-0.8-0.5c-0.2-0.2-0.3-0.5-0.3-0.9c0-0.3,0.1-0.6,0.2-0.8
			s0.3-0.4,0.5-0.6s0.5-0.2,0.8-0.3c0.3-0.1,0.6-0.1,0.8-0.1c0.4,0,0.7,0,1,0.1s0.6,0.2,0.8,0.3c0.2,0.1,0.4,0.4,0.6,0.6
			c0.1,0.3,0.2,0.6,0.2,1h-1c0-0.2-0.1-0.4-0.2-0.5c-0.1-0.1-0.2-0.2-0.3-0.3s-0.3-0.1-0.5-0.2c-0.2,0-0.3-0.1-0.5-0.1
			c-0.2,0-0.3,0-0.5,0c-0.2,0-0.3,0.1-0.4,0.1s-0.2,0.1-0.3,0.2c-0.1,0.1-0.1,0.2-0.1,0.4c0,0.2,0.1,0.3,0.2,0.4s0.3,0.2,0.5,0.3
			c0.2,0.1,0.4,0.1,0.7,0.2c0.2,0.1,0.5,0.1,0.7,0.2c0.3,0.1,0.5,0.1,0.8,0.2c0.2,0.1,0.5,0.2,0.7,0.3s0.3,0.3,0.5,0.5
			c0.1,0.2,0.2,0.5,0.2,0.8c0,0.4-0.1,0.7-0.2,0.9c-0.2,0.3-0.4,0.5-0.6,0.6c-0.3,0.2-0.5,0.3-0.9,0.3c-0.3,0.1-0.6,0.1-1,0.1
			c-0.3,0-0.7,0-1-0.1c-0.3-0.1-0.6-0.2-0.8-0.4c-0.2-0.2-0.4-0.4-0.6-0.7c-0.1-0.3-0.2-0.6-0.2-1h1C191.7,7.1,191.7,7.3,191.8,7.5z
			"/>
		<path class="st0" d="M200.9,3.7c-0.3-0.2-0.6-0.3-1-0.3c-0.4,0-0.7,0.1-0.9,0.2s-0.5,0.3-0.6,0.5c-0.2,0.2-0.3,0.5-0.3,0.8
			c-0.1,0.3-0.1,0.6-0.1,0.9c0,0.3,0,0.6,0.1,0.8c0.1,0.3,0.2,0.5,0.3,0.7c0.1,0.2,0.3,0.4,0.6,0.5s0.5,0.2,0.8,0.2
			c0.5,0,0.9-0.1,1.2-0.4c0.3-0.3,0.5-0.6,0.5-1.1h1.1c-0.1,0.8-0.4,1.4-0.9,1.8S200.5,9,199.7,9c-0.5,0-0.9-0.1-1.3-0.2
			c-0.4-0.2-0.7-0.4-0.9-0.7c-0.2-0.3-0.4-0.6-0.6-1c-0.1-0.4-0.2-0.8-0.2-1.3c0-0.5,0.1-0.9,0.2-1.3c0.1-0.4,0.3-0.8,0.6-1.1
			c0.2-0.3,0.6-0.5,0.9-0.7s0.8-0.3,1.3-0.3c0.4,0,0.7,0,1,0.1s0.6,0.2,0.8,0.4c0.2,0.2,0.4,0.4,0.6,0.7c0.2,0.3,0.3,0.6,0.3,1h-1.1
			C201.3,4.2,201.1,3.9,200.9,3.7z"/>
		<path class="st0" d="M208.5,9c-0.3,0-0.5-0.1-0.6-0.2c-0.2-0.2-0.2-0.4-0.2-0.7c-0.3,0.3-0.6,0.6-1,0.7c-0.4,0.1-0.8,0.2-1.2,0.2
			c-0.3,0-0.6,0-0.8-0.1c-0.3-0.1-0.5-0.2-0.7-0.3c-0.2-0.1-0.3-0.3-0.4-0.5s-0.2-0.5-0.2-0.8c0-0.4,0.1-0.6,0.2-0.9
			c0.1-0.2,0.3-0.4,0.5-0.6c0.2-0.1,0.4-0.2,0.7-0.3c0.3-0.1,0.5-0.1,0.8-0.2c0.3-0.1,0.6-0.1,0.8-0.1c0.3,0,0.5-0.1,0.7-0.1
			c0.2-0.1,0.3-0.1,0.5-0.2c0.1-0.1,0.2-0.2,0.2-0.4c0-0.2,0-0.4-0.1-0.5c-0.1-0.1-0.2-0.2-0.3-0.3c-0.1-0.1-0.3-0.1-0.4-0.1
			s-0.3,0-0.5,0c-0.4,0-0.8,0.1-1.1,0.2s-0.4,0.5-0.5,0.9h-1c0-0.4,0.1-0.7,0.2-1c0.1-0.3,0.3-0.5,0.6-0.6s0.5-0.3,0.8-0.4
			c0.3-0.1,0.6-0.1,1-0.1c0.3,0,0.6,0,0.8,0.1c0.3,0,0.5,0.1,0.8,0.2c0.2,0.1,0.4,0.3,0.5,0.5c0.1,0.2,0.2,0.5,0.2,0.9v3.2
			c0,0.2,0,0.4,0,0.5c0,0.1,0.1,0.2,0.3,0.2c0.1,0,0.2,0,0.3-0.1v0.8C209,9,208.8,9,208.5,9z M207,5.8c-0.2,0-0.4,0.1-0.7,0.1
			c-0.2,0-0.5,0.1-0.7,0.1c-0.2,0-0.4,0.1-0.6,0.2c-0.2,0.1-0.3,0.2-0.5,0.3c-0.1,0.2-0.2,0.4-0.2,0.6c0,0.2,0,0.3,0.1,0.4
			c0.1,0.1,0.2,0.2,0.3,0.3c0.1,0.1,0.2,0.1,0.4,0.2c0.1,0,0.3,0,0.5,0c0.3,0,0.6,0,0.9-0.1s0.4-0.2,0.6-0.4
			c0.2-0.1,0.3-0.3,0.3-0.5c0.1-0.2,0.1-0.3,0.1-0.5V5.6C207.4,5.7,207.2,5.8,207,5.8z"/>
		<path class="st0" d="M211.3,0.2v8.7h-1V0.2H211.3z"/>
		<path class="st0" d="M217.7,9c-0.3,0-0.5-0.1-0.6-0.2c-0.2-0.2-0.2-0.4-0.2-0.7c-0.3,0.3-0.6,0.6-1,0.7C215.4,8.9,215,9,214.6,9
			c-0.3,0-0.6,0-0.8-0.1c-0.3-0.1-0.5-0.2-0.7-0.3c-0.2-0.1-0.3-0.3-0.4-0.5s-0.2-0.5-0.2-0.8c0-0.4,0.1-0.6,0.2-0.9
			c0.1-0.2,0.3-0.4,0.5-0.6s0.4-0.2,0.7-0.3c0.3-0.1,0.5-0.1,0.8-0.2c0.3-0.1,0.6-0.1,0.8-0.1s0.5-0.1,0.7-0.1s0.3-0.1,0.5-0.2
			s0.2-0.2,0.2-0.4c0-0.2,0-0.4-0.1-0.5s-0.2-0.2-0.3-0.3c-0.1-0.1-0.3-0.1-0.4-0.1s-0.3,0-0.5,0c-0.4,0-0.8,0.1-1.1,0.2
			s-0.4,0.5-0.5,0.9h-1c0-0.4,0.1-0.7,0.2-1c0.1-0.3,0.3-0.5,0.6-0.6c0.2-0.2,0.5-0.3,0.8-0.4c0.3-0.1,0.6-0.1,1-0.1
			c0.3,0,0.6,0,0.8,0.1c0.3,0,0.5,0.1,0.8,0.2c0.2,0.1,0.4,0.3,0.5,0.5c0.1,0.2,0.2,0.5,0.2,0.9v3.2c0,0.2,0,0.4,0,0.5
			s0.1,0.2,0.3,0.2c0.1,0,0.2,0,0.3-0.1v0.8C218.2,9,218,9,217.7,9z M216.2,5.8c-0.2,0-0.4,0.1-0.7,0.1s-0.5,0.1-0.7,0.1
			c-0.2,0-0.4,0.1-0.6,0.2s-0.3,0.2-0.5,0.3c-0.1,0.2-0.2,0.4-0.2,0.6c0,0.2,0,0.3,0.1,0.4c0.1,0.1,0.2,0.2,0.3,0.3
			c0.1,0.1,0.2,0.1,0.4,0.2c0.1,0,0.3,0,0.5,0c0.3,0,0.6,0,0.9-0.1c0.2-0.1,0.4-0.2,0.6-0.4c0.2-0.1,0.3-0.3,0.3-0.5
			s0.1-0.3,0.1-0.5V5.6C216.6,5.7,216.4,5.8,216.2,5.8z"/>
		<path class="st0" d="M220.2,7.5c0.1,0.2,0.2,0.3,0.4,0.4c0.2,0.1,0.3,0.2,0.5,0.2c0.2,0,0.4,0.1,0.6,0.1c0.2,0,0.3,0,0.5,0
			c0.2,0,0.3-0.1,0.5-0.1c0.1-0.1,0.3-0.2,0.4-0.3c0.1-0.1,0.1-0.3,0.1-0.5c0-0.3-0.1-0.5-0.3-0.6c-0.2-0.1-0.5-0.2-0.8-0.3
			c-0.3-0.1-0.6-0.2-1-0.2s-0.7-0.2-1-0.3c-0.3-0.1-0.6-0.3-0.8-0.5s-0.3-0.5-0.3-0.9c0-0.3,0.1-0.6,0.2-0.8
			c0.1-0.2,0.3-0.4,0.5-0.6s0.5-0.2,0.8-0.3c0.3-0.1,0.6-0.1,0.8-0.1c0.4,0,0.7,0,1,0.1c0.3,0.1,0.6,0.2,0.8,0.3
			c0.2,0.1,0.4,0.4,0.6,0.6c0.1,0.3,0.2,0.6,0.2,1h-1c0-0.2-0.1-0.4-0.2-0.5c-0.1-0.1-0.2-0.2-0.3-0.3c-0.1-0.1-0.3-0.1-0.5-0.2
			s-0.3-0.1-0.5-0.1c-0.2,0-0.3,0-0.5,0s-0.3,0.1-0.4,0.1c-0.1,0.1-0.2,0.1-0.3,0.2c-0.1,0.1-0.1,0.2-0.1,0.4c0,0.2,0.1,0.3,0.2,0.4
			c0.1,0.1,0.3,0.2,0.5,0.3c0.2,0.1,0.4,0.1,0.7,0.2c0.2,0.1,0.5,0.1,0.7,0.2c0.3,0.1,0.5,0.1,0.8,0.2s0.5,0.2,0.7,0.3
			c0.2,0.1,0.3,0.3,0.5,0.5c0.1,0.2,0.2,0.5,0.2,0.8c0,0.4-0.1,0.7-0.2,0.9c-0.2,0.3-0.4,0.5-0.6,0.6c-0.3,0.2-0.5,0.3-0.9,0.3
			C222.3,9,222,9,221.6,9c-0.3,0-0.7,0-1-0.1c-0.3-0.1-0.6-0.2-0.8-0.4s-0.4-0.4-0.6-0.7s-0.2-0.6-0.2-1h1
			C220,7.1,220.1,7.3,220.2,7.5z"/>
	</g>
</g>
</svg>
