<!-- Generator: Adobe Illustrator 20.1.0, SVG Export Plug-In  -->
<svg version="1.1"
	 xmlns="http://www.w3.org/2000/svg" xmlns:xlink="http://www.w3.org/1999/xlink" xmlns:a="http://ns.adobe.com/AdobeSVGViewerExtensions/3.0/"
	 x="0px" y="0px" width="240.3px" height="15.3px" viewBox="0 0 240.3 15.3"
	 style="overflow:scroll;enable-background:new 0 0 240.3 15.3;" xml:space="preserve">
<style type="text/css">
	.st0{fill:#FFFFFF;}
</style>
<defs>
</defs>
<g>
	<path class="st0" d="M2.8,10.5c0,0.9,0.3,1.6,0.7,2s1,0.6,1.8,0.6c0.6,0,1.1-0.1,1.5-0.4c0.4-0.3,0.7-0.6,0.8-0.9h2.5
		c-0.4,1.2-1,2.1-1.8,2.7c-0.8,0.5-1.8,0.8-3,0.8c-0.8,0-1.5-0.1-2.2-0.4s-1.2-0.6-1.7-1.1s-0.8-1.1-1-1.7C0.1,11.4,0,10.6,0,9.8
		c0-0.8,0.1-1.5,0.4-2.2C0.6,7,1,6.4,1.5,5.9c0.5-0.5,1-0.9,1.7-1.2s1.4-0.4,2.2-0.4c0.9,0,1.6,0.2,2.3,0.5s1.2,0.8,1.6,1.4
		c0.4,0.6,0.7,1.2,0.9,2s0.3,1.5,0.2,2.3H2.8z M7.5,8.7C7.3,8,7.1,7.4,6.8,7.1S5.9,6.5,5.2,6.5c-0.5,0-0.8,0.1-1.1,0.2
		C3.8,6.9,3.5,7.1,3.3,7.3C3.2,7.5,3,7.8,3,8S2.9,8.5,2.8,8.7H7.5z"/>
	<path class="st0" d="M12.5,4.6h2.7v1.4h0.1c0.4-0.6,0.8-1,1.4-1.3s1.2-0.4,1.8-0.4c0.8,0,1.4,0.1,1.9,0.3c0.5,0.2,0.9,0.5,1.1,0.9
		c0.3,0.4,0.5,0.8,0.6,1.3c0.1,0.5,0.2,1.1,0.2,1.8V15h-2.8V9.1c0-0.9-0.1-1.5-0.4-1.9c-0.3-0.4-0.7-0.6-1.4-0.6
		c-0.8,0-1.3,0.2-1.7,0.7c-0.3,0.5-0.5,1.2-0.5,2.3V15h-2.8V4.6z"/>
	<path class="st0" d="M33.3,11.6c0,0.3,0.1,0.6,0.2,0.8s0.3,0.4,0.5,0.5s0.4,0.2,0.7,0.3c0.3,0.1,0.5,0.1,0.8,0.1
		c0.2,0,0.4,0,0.6-0.1c0.2,0,0.4-0.1,0.6-0.2c0.2-0.1,0.3-0.2,0.4-0.4c0.1-0.2,0.2-0.4,0.2-0.6c0-0.2-0.1-0.4-0.2-0.5
		s-0.4-0.3-0.6-0.4s-0.6-0.2-1-0.3c-0.4-0.1-0.9-0.2-1.4-0.3c-0.4-0.1-0.8-0.2-1.2-0.3s-0.7-0.3-1-0.5s-0.6-0.5-0.7-0.8
		c-0.2-0.3-0.3-0.7-0.3-1.1c0-0.7,0.1-1.2,0.4-1.6c0.3-0.4,0.6-0.8,1-1s0.9-0.4,1.4-0.5c0.5-0.1,1.1-0.1,1.6-0.1
		c0.6,0,1.1,0.1,1.6,0.2c0.5,0.1,1,0.3,1.4,0.5c0.4,0.3,0.8,0.6,1,1s0.4,1,0.5,1.6h-2.7c0-0.5-0.2-0.9-0.6-1.1
		c-0.4-0.2-0.8-0.3-1.3-0.3c-0.2,0-0.3,0-0.5,0c-0.2,0-0.4,0.1-0.5,0.1c-0.2,0.1-0.3,0.2-0.4,0.3c-0.1,0.1-0.2,0.3-0.2,0.5
		c0,0.3,0.1,0.5,0.3,0.6c0.2,0.2,0.4,0.3,0.7,0.4c0.3,0.1,0.6,0.2,1,0.3s0.8,0.2,1.2,0.3c0.4,0.1,0.8,0.2,1.2,0.3
		c0.4,0.1,0.7,0.3,1,0.5c0.3,0.2,0.6,0.5,0.7,0.8c0.2,0.3,0.3,0.7,0.3,1.2c0,0.7-0.1,1.3-0.4,1.7s-0.6,0.8-1.1,1.1
		c-0.4,0.3-0.9,0.5-1.5,0.6s-1.1,0.2-1.7,0.2c-0.6,0-1.2-0.1-1.8-0.2s-1.1-0.3-1.5-0.6c-0.4-0.3-0.8-0.7-1.1-1.1
		c-0.3-0.5-0.4-1-0.5-1.7H33.3z"/>
	<path class="st0" d="M44.4,3.4h-2l1.9-2.8h3.1L44.4,3.4z M42.5,4.6h2.8V15h-2.8V4.6z"/>
	<path class="st0" d="M48.1,4.6h2.7v1.4h0.1c0.4-0.6,0.8-1,1.4-1.3s1.2-0.4,1.8-0.4c0.8,0,1.4,0.1,1.9,0.3c0.5,0.2,0.9,0.5,1.1,0.9
		c0.3,0.4,0.5,0.8,0.6,1.3c0.1,0.5,0.2,1.1,0.2,1.8V15H55V9.1c0-0.9-0.1-1.5-0.4-1.9c-0.3-0.4-0.7-0.6-1.4-0.6
		c-0.8,0-1.3,0.2-1.7,0.7c-0.3,0.5-0.5,1.2-0.5,2.3V15h-2.8V4.6z"/>
	<path class="st0" d="M64.1,4.6h2.1v1.9h-2.1v5.1c0,0.5,0.1,0.8,0.2,1s0.5,0.2,1,0.2c0.3,0,0.6,0,0.9-0.1V15c-0.2,0-0.5,0.1-0.8,0.1
		s-0.6,0-0.9,0c-0.4,0-0.9,0-1.3-0.1c-0.4-0.1-0.7-0.2-1-0.4c-0.3-0.2-0.5-0.4-0.7-0.8c-0.2-0.3-0.3-0.7-0.3-1.3V6.5h-1.7V4.6h1.7
		V1.5h2.8V4.6z"/>
	<path class="st0" d="M67.8,9.8c0-0.8,0.1-1.6,0.4-2.3c0.3-0.7,0.6-1.2,1.1-1.7c0.5-0.5,1-0.8,1.7-1.1c0.7-0.3,1.4-0.4,2.2-0.4
		s1.6,0.1,2.2,0.4C76,5,76.6,5.4,77,5.9c0.5,0.5,0.8,1,1.1,1.7c0.3,0.7,0.4,1.4,0.4,2.3c0,0.8-0.1,1.6-0.4,2.2
		c-0.3,0.7-0.6,1.2-1.1,1.7s-1,0.8-1.7,1.1c-0.7,0.3-1.4,0.4-2.2,0.4s-1.5-0.1-2.2-0.4c-0.7-0.3-1.2-0.6-1.7-1.1s-0.8-1-1.1-1.7
		C67.9,11.4,67.8,10.7,67.8,9.8z M70.6,9.8c0,0.4,0,0.8,0.1,1.2s0.2,0.7,0.4,1.1c0.2,0.3,0.5,0.6,0.8,0.8c0.3,0.2,0.7,0.3,1.2,0.3
		c0.5,0,0.9-0.1,1.2-0.3c0.3-0.2,0.6-0.4,0.8-0.8c0.2-0.3,0.3-0.7,0.4-1.1s0.1-0.8,0.1-1.2s0-0.8-0.1-1.2c-0.1-0.4-0.2-0.8-0.4-1.1
		S74.7,7,74.3,6.8c-0.3-0.2-0.7-0.3-1.2-0.3c-0.5,0-0.9,0.1-1.2,0.3c-0.3,0.2-0.6,0.4-0.8,0.8s-0.3,0.7-0.4,1.1
		C70.7,9,70.6,9.4,70.6,9.8z"/>
	<path class="st0" d="M81,4.6h2.7V6h0c0.4-0.5,0.8-0.9,1.4-1.2c0.5-0.3,1.1-0.4,1.8-0.4c0.7,0,1.3,0.1,1.8,0.4s1,0.7,1.2,1.3
		c0.3-0.5,0.7-0.9,1.3-1.2c0.5-0.3,1.2-0.5,1.9-0.5c0.5,0,1.1,0.1,1.5,0.2c0.5,0.1,0.9,0.3,1.2,0.6c0.3,0.3,0.6,0.7,0.8,1.2
		c0.2,0.5,0.3,1,0.3,1.7V15h-2.8V9.1c0-0.3,0-0.7,0-1c0-0.3-0.1-0.6-0.2-0.8c-0.1-0.2-0.3-0.4-0.5-0.5c-0.2-0.1-0.5-0.2-1-0.2
		c-0.4,0-0.7,0.1-1,0.2C91,7,90.8,7.2,90.6,7.4c-0.1,0.2-0.2,0.5-0.3,0.8s-0.1,0.6-0.1,1V15h-2.8V9.2c0-0.3,0-0.6,0-0.9
		c0-0.3-0.1-0.6-0.2-0.8C87.2,7.2,87,7,86.8,6.8s-0.6-0.2-1-0.2c-0.1,0-0.3,0-0.5,0.1C85,6.8,84.8,6.9,84.6,7S84.2,7.4,84,7.8
		c-0.1,0.3-0.2,0.7-0.2,1.2v6H81V4.6z"/>
	<path class="st0" d="M99.5,7.8c0-0.7,0.2-1.2,0.5-1.7c0.3-0.4,0.7-0.8,1.1-1.1s1-0.5,1.5-0.6c0.6-0.1,1.1-0.2,1.7-0.2
		c0.5,0,1,0,1.6,0.1c0.5,0.1,1,0.2,1.5,0.4c0.4,0.2,0.8,0.5,1.1,0.9c0.3,0.4,0.4,0.9,0.4,1.5v5.4c0,0.5,0,0.9,0.1,1.3
		c0.1,0.4,0.1,0.7,0.3,1h-2.9c-0.1-0.2-0.1-0.3-0.1-0.5s-0.1-0.3-0.1-0.5c-0.5,0.5-1,0.8-1.6,1c-0.6,0.2-1.2,0.3-1.9,0.3
		c-0.5,0-1-0.1-1.4-0.2s-0.8-0.3-1.1-0.6c-0.3-0.3-0.6-0.6-0.8-1s-0.3-0.8-0.3-1.4c0-0.6,0.1-1.1,0.3-1.5c0.2-0.4,0.5-0.7,0.8-0.9
		c0.3-0.2,0.7-0.4,1.1-0.5s0.8-0.2,1.3-0.3c0.4-0.1,0.9-0.1,1.3-0.2s0.8-0.1,1.1-0.2c0.3-0.1,0.6-0.2,0.8-0.4
		c0.2-0.2,0.3-0.4,0.3-0.7c0-0.3,0-0.5-0.1-0.7c-0.1-0.2-0.2-0.3-0.4-0.4c-0.2-0.1-0.4-0.2-0.6-0.2c-0.2,0-0.5-0.1-0.7-0.1
		c-0.5,0-1,0.1-1.3,0.4c-0.3,0.2-0.5,0.6-0.6,1.2H99.5z M106,9.9c-0.1,0.1-0.3,0.2-0.4,0.3c-0.2,0.1-0.4,0.1-0.6,0.2
		c-0.2,0-0.4,0.1-0.7,0.1c-0.2,0-0.5,0.1-0.7,0.1c-0.2,0-0.4,0.1-0.6,0.2c-0.2,0.1-0.4,0.2-0.5,0.3s-0.3,0.3-0.4,0.4
		c-0.1,0.2-0.1,0.4-0.1,0.6c0,0.3,0,0.5,0.1,0.7c0.1,0.2,0.2,0.3,0.4,0.4c0.2,0.1,0.3,0.2,0.6,0.2c0.2,0,0.4,0.1,0.7,0.1
		c0.6,0,1-0.1,1.3-0.3c0.3-0.2,0.5-0.4,0.7-0.7c0.1-0.3,0.2-0.5,0.3-0.8s0-0.5,0-0.6V9.9z"/>
	<path class="st0" d="M113.8,11.6c0,0.3,0.1,0.6,0.2,0.8s0.3,0.4,0.5,0.5s0.4,0.2,0.7,0.3c0.3,0.1,0.5,0.1,0.8,0.1
		c0.2,0,0.4,0,0.6-0.1c0.2,0,0.4-0.1,0.6-0.2c0.2-0.1,0.3-0.2,0.4-0.4c0.1-0.2,0.2-0.4,0.2-0.6c0-0.2-0.1-0.4-0.2-0.5
		s-0.4-0.3-0.6-0.4s-0.6-0.2-1-0.3c-0.4-0.1-0.9-0.2-1.4-0.3c-0.4-0.1-0.8-0.2-1.2-0.3s-0.7-0.3-1-0.5s-0.6-0.5-0.7-0.8
		c-0.2-0.3-0.3-0.7-0.3-1.1c0-0.7,0.1-1.2,0.4-1.6c0.3-0.4,0.6-0.8,1-1s0.9-0.4,1.4-0.5c0.5-0.1,1.1-0.1,1.6-0.1
		c0.6,0,1.1,0.1,1.6,0.2c0.5,0.1,1,0.3,1.4,0.5c0.4,0.3,0.8,0.6,1,1s0.4,1,0.5,1.6h-2.7c0-0.5-0.2-0.9-0.6-1.1
		c-0.4-0.2-0.8-0.3-1.3-0.3c-0.2,0-0.3,0-0.5,0c-0.2,0-0.4,0.1-0.5,0.1c-0.2,0.1-0.3,0.2-0.4,0.3c-0.1,0.1-0.2,0.3-0.2,0.5
		c0,0.3,0.1,0.5,0.3,0.6c0.2,0.2,0.4,0.3,0.7,0.4c0.3,0.1,0.6,0.2,1,0.3s0.8,0.2,1.2,0.3c0.4,0.1,0.8,0.2,1.2,0.3
		c0.4,0.1,0.7,0.3,1,0.5c0.3,0.2,0.6,0.5,0.7,0.8c0.2,0.3,0.3,0.7,0.3,1.2c0,0.7-0.1,1.3-0.4,1.7s-0.6,0.8-1.1,1.1
		c-0.4,0.3-0.9,0.5-1.5,0.6s-1.1,0.2-1.7,0.2c-0.6,0-1.2-0.1-1.8-0.2s-1.1-0.3-1.5-0.6c-0.4-0.3-0.8-0.7-1.1-1.1
		c-0.3-0.5-0.4-1-0.5-1.7H113.8z"/>
	<path class="st0" d="M136.4,13.7L136.4,13.7c-0.4,0.6-0.8,1-1.4,1.2c-0.5,0.3-1.2,0.4-1.8,0.4c-0.8,0-1.5-0.2-2-0.5
		c-0.6-0.3-1.1-0.7-1.4-1.2s-0.7-1.1-0.9-1.8c-0.2-0.7-0.3-1.4-0.3-2.1c0-0.7,0.1-1.4,0.3-2c0.2-0.6,0.5-1.2,0.9-1.7
		c0.4-0.5,0.9-0.9,1.4-1.2c0.6-0.3,1.2-0.5,2-0.5c0.6,0,1.2,0.1,1.8,0.4c0.6,0.3,1,0.6,1.3,1.2h0V0.7h2.8V15h-2.7V13.7z M136.4,9.8
		c0-0.4,0-0.8-0.1-1.2c-0.1-0.4-0.2-0.8-0.4-1.1c-0.2-0.3-0.4-0.5-0.8-0.7s-0.7-0.3-1.1-0.3c-0.5,0-0.9,0.1-1.2,0.3
		c-0.3,0.2-0.6,0.4-0.8,0.7c-0.2,0.3-0.3,0.7-0.4,1c-0.1,0.4-0.1,0.8-0.1,1.2c0,0.4,0,0.8,0.1,1.2c0.1,0.4,0.2,0.8,0.5,1.1
		c0.2,0.3,0.5,0.6,0.8,0.8s0.7,0.3,1.1,0.3c0.5,0,0.9-0.1,1.2-0.3c0.3-0.2,0.6-0.4,0.8-0.8c0.2-0.3,0.3-0.7,0.4-1.1
		C136.3,10.6,136.4,10.2,136.4,9.8z"/>
	<path class="st0" d="M144.2,10.5c0,0.9,0.3,1.6,0.7,2s1,0.6,1.8,0.6c0.6,0,1.1-0.1,1.5-0.4c0.4-0.3,0.7-0.6,0.8-0.9h2.5
		c-0.4,1.2-1,2.1-1.8,2.7c-0.8,0.5-1.8,0.8-3,0.8c-0.8,0-1.5-0.1-2.2-0.4s-1.2-0.6-1.7-1.1s-0.8-1.1-1-1.7c-0.2-0.7-0.4-1.4-0.4-2.2
		c0-0.8,0.1-1.5,0.4-2.2c0.3-0.7,0.6-1.2,1.1-1.7c0.5-0.5,1-0.9,1.7-1.2s1.4-0.4,2.2-0.4c0.9,0,1.6,0.2,2.3,0.5s1.2,0.8,1.6,1.4
		c0.4,0.6,0.7,1.2,0.9,2s0.3,1.5,0.2,2.3H144.2z M148.8,8.7c-0.1-0.7-0.4-1.3-0.7-1.6s-0.9-0.6-1.5-0.6c-0.5,0-0.8,0.1-1.1,0.2
		c-0.3,0.2-0.5,0.3-0.7,0.6c-0.2,0.2-0.3,0.5-0.4,0.7s-0.1,0.5-0.1,0.7H148.8z"/>
	<path class="st0" d="M153.9,0.7h2.8V15h-2.8V0.7z"/>
	<path class="st0" d="M168,10.5c0,0.9,0.3,1.6,0.7,2s1,0.6,1.8,0.6c0.6,0,1.1-0.1,1.5-0.4c0.4-0.3,0.7-0.6,0.8-0.9h2.5
		c-0.4,1.2-1,2.1-1.8,2.7c-0.8,0.5-1.8,0.8-3,0.8c-0.8,0-1.5-0.1-2.2-0.4s-1.2-0.6-1.7-1.1s-0.8-1.1-1-1.7c-0.2-0.7-0.4-1.4-0.4-2.2
		c0-0.8,0.1-1.5,0.4-2.2c0.3-0.7,0.6-1.2,1.1-1.7c0.5-0.5,1-0.9,1.7-1.2s1.4-0.4,2.2-0.4c0.9,0,1.6,0.2,2.3,0.5s1.2,0.8,1.6,1.4
		c0.4,0.6,0.7,1.2,0.9,2s0.3,1.5,0.2,2.3H168z M172.7,8.7c-0.1-0.7-0.4-1.3-0.7-1.6s-0.9-0.6-1.5-0.6c-0.5,0-0.8,0.1-1.1,0.2
		c-0.3,0.2-0.5,0.3-0.7,0.6c-0.2,0.2-0.3,0.5-0.4,0.7s-0.1,0.5-0.1,0.7H172.7z"/>
	<path class="st0" d="M179.9,11.6c0,0.3,0.1,0.6,0.2,0.8s0.3,0.4,0.5,0.5s0.4,0.2,0.7,0.3c0.3,0.1,0.5,0.1,0.8,0.1
		c0.2,0,0.4,0,0.6-0.1c0.2,0,0.4-0.1,0.6-0.2c0.2-0.1,0.3-0.2,0.4-0.4c0.1-0.2,0.2-0.4,0.2-0.6c0-0.2-0.1-0.4-0.2-0.5
		s-0.4-0.3-0.6-0.4s-0.6-0.2-1-0.3c-0.4-0.1-0.9-0.2-1.4-0.3c-0.4-0.1-0.8-0.2-1.2-0.3s-0.7-0.3-1-0.5s-0.6-0.5-0.7-0.8
		c-0.2-0.3-0.3-0.7-0.3-1.1c0-0.7,0.1-1.2,0.4-1.6c0.3-0.4,0.6-0.8,1-1s0.9-0.4,1.4-0.5c0.5-0.1,1.1-0.1,1.6-0.1
		c0.6,0,1.1,0.1,1.6,0.2c0.5,0.1,1,0.3,1.4,0.5c0.4,0.3,0.8,0.6,1,1s0.4,1,0.5,1.6h-2.7c0-0.5-0.2-0.9-0.6-1.1
		c-0.4-0.2-0.8-0.3-1.3-0.3c-0.2,0-0.3,0-0.5,0c-0.2,0-0.4,0.1-0.5,0.1c-0.2,0.1-0.3,0.2-0.4,0.3c-0.1,0.1-0.2,0.3-0.2,0.5
		c0,0.3,0.1,0.5,0.3,0.6c0.2,0.2,0.4,0.3,0.7,0.4c0.3,0.1,0.6,0.2,1,0.3s0.8,0.2,1.2,0.3c0.4,0.1,0.8,0.2,1.2,0.3
		c0.4,0.1,0.7,0.3,1,0.5c0.3,0.2,0.6,0.5,0.7,0.8c0.2,0.3,0.3,0.7,0.3,1.2c0,0.7-0.1,1.3-0.4,1.7s-0.6,0.8-1.1,1.1
		c-0.4,0.3-0.9,0.5-1.5,0.6s-1.1,0.2-1.7,0.2c-0.6,0-1.2-0.1-1.8-0.2s-1.1-0.3-1.5-0.6c-0.4-0.3-0.8-0.7-1.1-1.1
		c-0.3-0.5-0.4-1-0.5-1.7H179.9z"/>
	<path class="st0" d="M192.6,4.6h2.1v1.9h-2.1v5.1c0,0.5,0.1,0.8,0.2,1s0.5,0.2,1,0.2c0.3,0,0.6,0,0.9-0.1V15
		c-0.2,0-0.5,0.1-0.8,0.1s-0.6,0-0.9,0c-0.4,0-0.9,0-1.3-0.1c-0.4-0.1-0.7-0.2-1-0.4c-0.3-0.2-0.5-0.4-0.7-0.8
		c-0.2-0.3-0.3-0.7-0.3-1.3V6.5h-1.7V4.6h1.7V1.5h2.8V4.6z"/>
	<path class="st0" d="M196.6,4.6h2.7v1.9h0c0.1-0.3,0.3-0.6,0.5-0.9c0.2-0.3,0.5-0.5,0.8-0.7c0.3-0.2,0.6-0.3,1-0.5s0.7-0.2,1-0.2
		c0.2,0,0.4,0,0.6,0.1v2.6c-0.1,0-0.3-0.1-0.5-0.1c-0.2,0-0.4,0-0.5,0c-0.5,0-1,0.1-1.3,0.3c-0.4,0.2-0.7,0.4-0.9,0.7
		c-0.2,0.3-0.4,0.7-0.5,1.1c-0.1,0.4-0.1,0.8-0.1,1.3V15h-2.8V4.6z"/>
	<path class="st0" d="M207.3,10.5c0,0.9,0.3,1.6,0.7,2s1,0.6,1.8,0.6c0.6,0,1.1-0.1,1.5-0.4c0.4-0.3,0.7-0.6,0.8-0.9h2.5
		c-0.4,1.2-1,2.1-1.8,2.7c-0.8,0.5-1.8,0.8-3,0.8c-0.8,0-1.5-0.1-2.2-0.4s-1.2-0.6-1.7-1.1s-0.8-1.1-1-1.7c-0.2-0.7-0.4-1.4-0.4-2.2
		c0-0.8,0.1-1.5,0.4-2.2c0.3-0.7,0.6-1.2,1.1-1.7c0.5-0.5,1-0.9,1.7-1.2s1.4-0.4,2.2-0.4c0.9,0,1.6,0.2,2.3,0.5s1.2,0.8,1.6,1.4
		c0.4,0.6,0.7,1.2,0.9,2s0.3,1.5,0.2,2.3H207.3z M211.9,8.7c-0.1-0.7-0.4-1.3-0.7-1.6s-0.9-0.6-1.5-0.6c-0.5,0-0.8,0.1-1.1,0.2
		c-0.3,0.2-0.5,0.3-0.7,0.6c-0.2,0.2-0.3,0.5-0.4,0.7s-0.1,0.5-0.1,0.7H211.9z M210.1,3.4h-2l1.9-2.8h3.1L210.1,3.4z"/>
	<path class="st0" d="M219.2,11.6c0,0.3,0.1,0.6,0.2,0.8s0.3,0.4,0.5,0.5s0.4,0.2,0.7,0.3c0.3,0.1,0.5,0.1,0.8,0.1
		c0.2,0,0.4,0,0.6-0.1c0.2,0,0.4-0.1,0.6-0.2c0.2-0.1,0.3-0.2,0.4-0.4c0.1-0.2,0.2-0.4,0.2-0.6c0-0.2-0.1-0.4-0.2-0.5
		s-0.4-0.3-0.6-0.4s-0.6-0.2-1-0.3c-0.4-0.1-0.9-0.2-1.4-0.3c-0.4-0.1-0.8-0.2-1.2-0.3s-0.7-0.3-1-0.5s-0.6-0.5-0.7-0.8
		c-0.2-0.3-0.3-0.7-0.3-1.1c0-0.7,0.1-1.2,0.4-1.6c0.3-0.4,0.6-0.8,1-1s0.9-0.4,1.4-0.5c0.5-0.1,1.1-0.1,1.6-0.1
		c0.6,0,1.1,0.1,1.6,0.2c0.5,0.1,1,0.3,1.4,0.5c0.4,0.3,0.8,0.6,1,1s0.4,1,0.5,1.6h-2.7c0-0.5-0.2-0.9-0.6-1.1
		c-0.4-0.2-0.8-0.3-1.3-0.3c-0.2,0-0.3,0-0.5,0c-0.2,0-0.4,0.1-0.5,0.1c-0.2,0.1-0.3,0.2-0.4,0.3c-0.1,0.1-0.2,0.3-0.2,0.5
		c0,0.3,0.1,0.5,0.3,0.6c0.2,0.2,0.4,0.3,0.7,0.4c0.3,0.1,0.6,0.2,1,0.3s0.8,0.2,1.2,0.3c0.4,0.1,0.8,0.2,1.2,0.3
		c0.4,0.1,0.7,0.3,1,0.5c0.3,0.2,0.6,0.5,0.7,0.8c0.2,0.3,0.3,0.7,0.3,1.2c0,0.7-0.1,1.3-0.4,1.7s-0.6,0.8-1.1,1.1
		c-0.4,0.3-0.9,0.5-1.5,0.6s-1.1,0.2-1.7,0.2c-0.6,0-1.2-0.1-1.8-0.2s-1.1-0.3-1.5-0.6c-0.4-0.3-0.8-0.7-1.1-1.1
		c-0.3-0.5-0.4-1-0.5-1.7H219.2z"/>
	<path class="st0" d="M231.8,8.3h-1.7V3h-2.1V1.8c0.3,0,0.6,0,0.8-0.1c0.3-0.1,0.5-0.1,0.7-0.3c0.2-0.1,0.4-0.3,0.5-0.5
		c0.1-0.2,0.2-0.5,0.3-0.8h1.3V8.3z"/>
	<path class="st0" d="M234.3,4.2c0-0.8,0.1-1.5,0.2-2c0.2-0.5,0.4-1,0.6-1.3s0.6-0.6,1-0.7c0.4-0.1,0.7-0.2,1.1-0.2s0.8,0.1,1.2,0.2
		c0.4,0.1,0.7,0.4,1,0.7c0.3,0.3,0.5,0.8,0.7,1.3c0.2,0.5,0.2,1.2,0.2,2c0,0.8-0.1,1.5-0.2,2c-0.2,0.5-0.4,1-0.7,1.3
		c-0.3,0.3-0.6,0.6-1,0.7s-0.8,0.2-1.2,0.2s-0.8-0.1-1.1-0.2s-0.7-0.4-1-0.7s-0.5-0.8-0.6-1.3C234.4,5.7,234.3,5,234.3,4.2z
		 M235.9,4.2c0,0.2,0,0.5,0,0.8c0,0.3,0.1,0.6,0.1,1c0.1,0.3,0.2,0.6,0.4,0.8s0.4,0.3,0.8,0.3s0.6-0.1,0.8-0.3s0.3-0.5,0.4-0.8
		c0.1-0.3,0.1-0.6,0.1-1c0-0.3,0-0.6,0-0.8c0-0.1,0-0.3,0-0.5s0-0.4,0-0.6c0-0.2-0.1-0.4-0.1-0.6s-0.1-0.4-0.2-0.6
		c-0.1-0.2-0.2-0.3-0.4-0.4c-0.2-0.1-0.3-0.2-0.6-0.2c-0.2,0-0.4,0.1-0.6,0.2s-0.3,0.2-0.4,0.4c-0.1,0.2-0.2,0.3-0.2,0.6
		c-0.1,0.2-0.1,0.4-0.1,0.6s0,0.4,0,0.6S235.9,4.1,235.9,4.2z"/>
</g>
</svg>
