<!-- Generator: Adobe Illustrator 20.1.0, SVG Export Plug-In  -->
<svg version="1.1"
	 xmlns="http://www.w3.org/2000/svg" xmlns:xlink="http://www.w3.org/1999/xlink" xmlns:a="http://ns.adobe.com/AdobeSVGViewerExtensions/3.0/"
	 x="0px" y="0px" width="94.6px" height="11.6px" viewBox="0 0 94.6 11.6"
	 style="overflow:scroll;enable-background:new 0 0 94.6 11.6;" xml:space="preserve">
<style type="text/css">
	.st0{fill:#F18A21;}
</style>
<defs>
</defs>
<g>
	<g>
		<path class="st0" d="M7.9,4c0-0.3-0.1-0.5-0.3-0.8C7.4,3,7.3,2.8,7,2.6S6.6,2.3,6.3,2.2C6,2.1,5.7,2,5.4,2C4.9,2,4.4,2.2,4,2.4
			C3.7,2.6,3.4,2.9,3.1,3.2C2.9,3.6,2.7,4,2.6,4.4S2.4,5.4,2.4,5.8c0,0.5,0.1,0.9,0.2,1.4S2.9,8,3.1,8.4C3.4,8.7,3.7,9,4,9.2
			c0.4,0.2,0.8,0.3,1.4,0.3c0.7,0,1.3-0.2,1.7-0.7C7.6,8.4,7.9,7.8,8,7.1h2.4c-0.1,0.7-0.2,1.3-0.5,1.9c-0.3,0.6-0.6,1-1,1.4
			s-0.9,0.7-1.5,0.9c-0.6,0.2-1.2,0.3-1.9,0.3c-0.9,0-1.6-0.2-2.3-0.5c-0.7-0.3-1.2-0.7-1.7-1.2C1,9.4,0.6,8.8,0.4,8.1S0,6.6,0,5.8
			C0,5,0.1,4.3,0.4,3.6S1,2.2,1.4,1.7s1-0.9,1.7-1.2S4.6,0,5.4,0c0.6,0,1.2,0.1,1.7,0.3c0.5,0.2,1,0.4,1.5,0.8s0.8,0.8,1.1,1.2
			C10,2.8,10.1,3.3,10.2,4H7.9z"/>
		<path class="st0" d="M13.8,5.8c0-0.5,0.2-0.9,0.4-1.3c0.2-0.3,0.5-0.6,0.9-0.8s0.7-0.4,1.2-0.4s0.9-0.1,1.3-0.1
			c0.4,0,0.8,0,1.2,0.1c0.4,0.1,0.8,0.2,1.1,0.3c0.3,0.2,0.6,0.4,0.8,0.7s0.3,0.7,0.3,1.2v4.2c0,0.4,0,0.7,0.1,1
			c0,0.3,0.1,0.6,0.2,0.7h-2.2c0-0.1-0.1-0.3-0.1-0.4s0-0.3-0.1-0.4c-0.4,0.4-0.8,0.6-1.2,0.8c-0.5,0.1-1,0.2-1.5,0.2
			c-0.4,0-0.7,0-1.1-0.1c-0.3-0.1-0.6-0.2-0.9-0.4c-0.2-0.2-0.4-0.4-0.6-0.7s-0.2-0.7-0.2-1.1c0-0.5,0.1-0.8,0.2-1.1
			c0.2-0.3,0.4-0.5,0.6-0.7C14.7,7.1,15,7,15.3,6.9c0.3-0.1,0.7-0.2,1-0.2c0.3-0.1,0.7-0.1,1-0.1s0.6-0.1,0.8-0.1
			c0.2-0.1,0.4-0.2,0.6-0.3c0.1-0.1,0.2-0.3,0.2-0.5c0-0.2,0-0.4-0.1-0.6s-0.2-0.2-0.3-0.3c-0.1-0.1-0.3-0.1-0.4-0.2
			c-0.2,0-0.4,0-0.6,0c-0.4,0-0.8,0.1-1,0.3C16.2,5,16.1,5.3,16,5.8H13.8z M18.9,7.4c-0.1,0.1-0.2,0.1-0.3,0.2
			c-0.1,0-0.3,0.1-0.4,0.1c-0.2,0-0.3,0.1-0.5,0.1c-0.2,0-0.4,0-0.5,0.1c-0.2,0-0.3,0.1-0.5,0.1c-0.2,0.1-0.3,0.1-0.4,0.2
			c-0.1,0.1-0.2,0.2-0.3,0.3s-0.1,0.3-0.1,0.5c0,0.2,0,0.4,0.1,0.5c0.1,0.1,0.2,0.2,0.3,0.3c0.1,0.1,0.3,0.1,0.4,0.2
			c0.2,0,0.3,0,0.5,0c0.4,0,0.8-0.1,1-0.2c0.2-0.1,0.4-0.3,0.5-0.5c0.1-0.2,0.2-0.4,0.2-0.6c0-0.2,0-0.4,0-0.5V7.4z"/>
		<path class="st0" d="M25,3.3h2.1v1.1h0c0.3-0.5,0.6-0.8,1.1-1s0.9-0.3,1.4-0.3c0.6,0,1.1,0.1,1.4,0.2c0.4,0.2,0.7,0.4,0.9,0.7
			c0.2,0.3,0.4,0.6,0.5,1s0.1,0.9,0.1,1.4v4.9h-2.2V6.8c0-0.7-0.1-1.2-0.3-1.5c-0.2-0.3-0.6-0.5-1.1-0.5c-0.6,0-1,0.2-1.3,0.5
			c-0.3,0.4-0.4,0.9-0.4,1.8v4.2H25V3.3z"/>
		<path class="st0" d="M38,8.7c0,0.2,0,0.4,0.1,0.6s0.2,0.3,0.4,0.4c0.2,0.1,0.3,0.2,0.5,0.2s0.4,0.1,0.6,0.1c0.2,0,0.3,0,0.5-0.1
			c0.2,0,0.3-0.1,0.5-0.2c0.1-0.1,0.3-0.2,0.3-0.3c0.1-0.1,0.1-0.3,0.1-0.5c0-0.2-0.1-0.3-0.2-0.4c-0.1-0.1-0.3-0.2-0.5-0.3
			c-0.2-0.1-0.5-0.2-0.8-0.3s-0.7-0.2-1.1-0.2c-0.3-0.1-0.6-0.2-0.9-0.3c-0.3-0.1-0.6-0.2-0.8-0.4s-0.4-0.4-0.6-0.6S36.1,6,36.1,5.7
			c0-0.5,0.1-0.9,0.3-1.3s0.5-0.6,0.8-0.8c0.3-0.2,0.7-0.3,1.1-0.4c0.4-0.1,0.8-0.1,1.3-0.1c0.4,0,0.9,0,1.3,0.1
			c0.4,0.1,0.8,0.2,1.1,0.4c0.3,0.2,0.6,0.5,0.8,0.8c0.2,0.3,0.3,0.7,0.4,1.2h-2.1c0-0.4-0.2-0.7-0.5-0.9c-0.3-0.1-0.6-0.2-1-0.2
			c-0.1,0-0.3,0-0.4,0c-0.1,0-0.3,0-0.4,0.1s-0.2,0.1-0.3,0.2c-0.1,0.1-0.1,0.2-0.1,0.4c0,0.2,0.1,0.4,0.2,0.5s0.3,0.2,0.6,0.3
			c0.2,0.1,0.5,0.1,0.8,0.2c0.3,0.1,0.6,0.1,0.9,0.2c0.3,0.1,0.6,0.2,0.9,0.3c0.3,0.1,0.6,0.2,0.8,0.4s0.4,0.4,0.6,0.6
			c0.1,0.3,0.2,0.6,0.2,0.9c0,0.5-0.1,1-0.3,1.3s-0.5,0.6-0.8,0.9s-0.7,0.4-1.2,0.5c-0.4,0.1-0.9,0.1-1.3,0.1c-0.5,0-0.9,0-1.4-0.1
			c-0.4-0.1-0.8-0.3-1.2-0.5c-0.3-0.2-0.6-0.5-0.9-0.9C36.1,9.7,36,9.3,36,8.7H38z"/>
		<path class="st0" d="M46.7,5.8c0-0.5,0.2-0.9,0.4-1.3c0.2-0.3,0.5-0.6,0.9-0.8s0.7-0.4,1.2-0.4c0.4-0.1,0.9-0.1,1.3-0.1
			c0.4,0,0.8,0,1.2,0.1c0.4,0.1,0.8,0.2,1.1,0.3c0.3,0.2,0.6,0.4,0.8,0.7S54,4.9,54,5.4v4.2c0,0.4,0,0.7,0.1,1s0.1,0.6,0.2,0.7h-2.2
			c0-0.1-0.1-0.3-0.1-0.4c0-0.1,0-0.3-0.1-0.4c-0.4,0.4-0.8,0.6-1.2,0.8c-0.5,0.1-1,0.2-1.5,0.2c-0.4,0-0.7,0-1.1-0.1
			c-0.3-0.1-0.6-0.2-0.9-0.4c-0.2-0.2-0.4-0.4-0.6-0.7c-0.1-0.3-0.2-0.7-0.2-1.1c0-0.5,0.1-0.8,0.2-1.1c0.2-0.3,0.4-0.5,0.6-0.7
			s0.6-0.3,0.9-0.4c0.3-0.1,0.7-0.2,1-0.2c0.3-0.1,0.7-0.1,1-0.1c0.3,0,0.6-0.1,0.8-0.1c0.2-0.1,0.4-0.2,0.6-0.3s0.2-0.3,0.2-0.5
			c0-0.2,0-0.4-0.1-0.6c-0.1-0.1-0.2-0.2-0.3-0.3c-0.1-0.1-0.3-0.1-0.4-0.2c-0.2,0-0.4,0-0.6,0c-0.4,0-0.8,0.1-1,0.3
			C49.1,5,49,5.3,48.9,5.8H46.7z M51.8,7.4c-0.1,0.1-0.2,0.1-0.3,0.2c-0.1,0-0.3,0.1-0.5,0.1c-0.2,0-0.3,0.1-0.5,0.1s-0.4,0-0.5,0.1
			c-0.2,0-0.3,0.1-0.5,0.1s-0.3,0.1-0.4,0.2s-0.2,0.2-0.3,0.3s-0.1,0.3-0.1,0.5c0,0.2,0,0.4,0.1,0.5c0.1,0.1,0.2,0.2,0.3,0.3
			c0.1,0.1,0.3,0.1,0.4,0.2c0.2,0,0.3,0,0.5,0c0.4,0,0.8-0.1,1-0.2c0.2-0.1,0.4-0.3,0.5-0.5c0.1-0.2,0.2-0.4,0.2-0.6
			c0-0.2,0-0.4,0-0.5V7.4z"/>
		<path class="st0" d="M57.9,3.3H60v1.1h0c0.3-0.5,0.6-0.8,1.1-1s0.9-0.3,1.4-0.3c0.6,0,1.1,0.1,1.4,0.2c0.4,0.2,0.7,0.4,0.9,0.7
			c0.2,0.3,0.4,0.6,0.5,1s0.1,0.9,0.1,1.4v4.9h-2.2V6.8c0-0.7-0.1-1.2-0.3-1.5c-0.2-0.3-0.6-0.5-1.1-0.5c-0.6,0-1,0.2-1.3,0.5
			c-0.3,0.4-0.4,0.9-0.4,1.8v4.2h-2.2V3.3z"/>
		<path class="st0" d="M74.7,6.1c-0.1-0.9-0.7-1.4-1.6-1.4c-0.4,0-0.6,0.1-0.9,0.2c-0.2,0.2-0.4,0.4-0.6,0.6
			c-0.1,0.3-0.3,0.5-0.3,0.8c-0.1,0.3-0.1,0.6-0.1,0.9c0,0.3,0,0.6,0.1,0.9s0.2,0.6,0.3,0.8c0.1,0.2,0.3,0.4,0.6,0.6
			c0.2,0.2,0.5,0.2,0.9,0.2c0.5,0,0.9-0.1,1.2-0.4c0.3-0.3,0.5-0.7,0.5-1.2h2.1c-0.1,1.1-0.6,1.9-1.2,2.4c-0.7,0.6-1.6,0.8-2.6,0.8
			c-0.6,0-1.2-0.1-1.7-0.3c-0.5-0.2-0.9-0.5-1.3-0.9c-0.4-0.4-0.6-0.8-0.8-1.3S69,8,69,7.4c0-0.6,0.1-1.2,0.3-1.7s0.4-1,0.8-1.4
			c0.4-0.4,0.8-0.7,1.3-0.9c0.5-0.2,1.1-0.3,1.7-0.3c0.5,0,0.9,0.1,1.4,0.2s0.8,0.3,1.2,0.6c0.3,0.3,0.6,0.6,0.8,1
			c0.2,0.4,0.3,0.8,0.4,1.3H74.7z"/>
		<path class="st0" d="M82.6,2.1h-2.2V0.3h2.2V2.1z M80.4,3.3h2.2v8h-2.2V3.3z"/>
		<path class="st0" d="M86.3,7.3c0-0.6,0.1-1.2,0.3-1.7c0.2-0.5,0.5-1,0.8-1.3c0.4-0.4,0.8-0.7,1.3-0.9c0.5-0.2,1.1-0.3,1.7-0.3
			s1.2,0.1,1.7,0.3c0.5,0.2,0.9,0.5,1.3,0.9c0.4,0.4,0.6,0.8,0.8,1.3c0.2,0.5,0.3,1.1,0.3,1.7s-0.1,1.2-0.3,1.7
			c-0.2,0.5-0.5,1-0.8,1.3c-0.4,0.4-0.8,0.7-1.3,0.9c-0.5,0.2-1.1,0.3-1.7,0.3s-1.2-0.1-1.7-0.3c-0.5-0.2-0.9-0.5-1.3-0.9
			C87,10,86.8,9.6,86.6,9.1S86.3,8,86.3,7.3z M88.5,7.3c0,0.3,0,0.6,0.1,0.9c0.1,0.3,0.2,0.6,0.3,0.8c0.2,0.2,0.3,0.4,0.6,0.6
			c0.2,0.1,0.6,0.2,0.9,0.2c0.4,0,0.7-0.1,0.9-0.2c0.3-0.1,0.5-0.3,0.6-0.6s0.3-0.5,0.3-0.8c0.1-0.3,0.1-0.6,0.1-0.9s0-0.6-0.1-0.9
			c-0.1-0.3-0.2-0.6-0.3-0.8c-0.2-0.2-0.4-0.4-0.6-0.6c-0.3-0.2-0.6-0.2-0.9-0.2c-0.4,0-0.7,0.1-0.9,0.2c-0.2,0.1-0.4,0.3-0.6,0.6
			c-0.1,0.2-0.3,0.5-0.3,0.8C88.5,6.7,88.5,7,88.5,7.3z"/>
	</g>
</g>
</svg>
