<!-- Generator: Adobe Illustrator 20.1.0, SVG Export Plug-In  -->
<svg version="1.1"
	 xmlns="http://www.w3.org/2000/svg" xmlns:xlink="http://www.w3.org/1999/xlink" xmlns:a="http://ns.adobe.com/AdobeSVGViewerExtensions/3.0/"
	 x="0px" y="0px" width="83.4px" height="11.3px" viewBox="0 0 83.4 11.3"
	 style="overflow:scroll;enable-background:new 0 0 83.4 11.3;" xml:space="preserve">
<style type="text/css">
	.st0{fill:#F18A21;}
</style>
<defs>
</defs>
<g>
	<g>
		<path class="st0" d="M4.2,0h2.5l4.1,11.1H8.3L7.5,8.6H3.3l-0.9,2.5H0L4.2,0z M4,6.8h2.9L5.4,2.7h0L4,6.8z"/>
		<path class="st0" d="M13.7,3.1h2.1v1.1h0c0.3-0.5,0.6-0.8,1.1-1c0.4-0.2,0.9-0.3,1.4-0.3c0.6,0,1.1,0.1,1.4,0.2s0.7,0.4,0.9,0.7
			c0.2,0.3,0.4,0.6,0.5,1s0.1,0.9,0.1,1.4v4.9h-2.2V6.5c0-0.7-0.1-1.2-0.3-1.5c-0.2-0.3-0.6-0.5-1.1-0.5c-0.6,0-1,0.2-1.3,0.5
			c-0.3,0.4-0.4,0.9-0.4,1.8v4.2h-2.2V3.1z"/>
		<path class="st0" d="M26.8,8.5c0,0.2,0,0.4,0.1,0.6s0.2,0.3,0.4,0.4c0.2,0.1,0.3,0.2,0.5,0.2s0.4,0.1,0.6,0.1c0.2,0,0.3,0,0.5-0.1
			c0.2,0,0.3-0.1,0.5-0.2c0.1-0.1,0.3-0.2,0.3-0.3c0.1-0.1,0.1-0.3,0.1-0.5c0-0.2-0.1-0.3-0.2-0.4c-0.1-0.1-0.3-0.2-0.5-0.3
			c-0.2-0.1-0.5-0.2-0.8-0.3s-0.7-0.2-1.1-0.2c-0.3-0.1-0.6-0.2-0.9-0.3c-0.3-0.1-0.6-0.2-0.8-0.4s-0.4-0.4-0.6-0.6
			s-0.2-0.5-0.2-0.9c0-0.5,0.1-0.9,0.3-1.3s0.5-0.6,0.8-0.8C26.3,3.2,26.7,3,27.1,3c0.4-0.1,0.8-0.1,1.3-0.1c0.4,0,0.9,0,1.3,0.1
			c0.4,0.1,0.8,0.2,1.1,0.4c0.3,0.2,0.6,0.5,0.8,0.8c0.2,0.3,0.3,0.7,0.4,1.2h-2.1c0-0.4-0.2-0.7-0.5-0.9c-0.3-0.1-0.6-0.2-1-0.2
			c-0.1,0-0.3,0-0.4,0c-0.1,0-0.3,0-0.4,0.1s-0.2,0.1-0.3,0.2c-0.1,0.1-0.1,0.2-0.1,0.4c0,0.2,0.1,0.4,0.2,0.5s0.3,0.2,0.6,0.3
			C28.1,5.9,28.4,6,28.7,6c0.3,0.1,0.6,0.1,0.9,0.2c0.3,0.1,0.6,0.2,0.9,0.3c0.3,0.1,0.6,0.2,0.8,0.4s0.4,0.4,0.6,0.6
			c0.1,0.3,0.2,0.6,0.2,0.9c0,0.5-0.1,1-0.3,1.3s-0.5,0.6-0.8,0.9s-0.7,0.4-1.2,0.5c-0.4,0.1-0.9,0.1-1.3,0.1c-0.5,0-0.9,0-1.4-0.1
			c-0.4-0.1-0.8-0.3-1.2-0.5c-0.3-0.2-0.6-0.5-0.9-0.9c-0.2-0.4-0.3-0.8-0.4-1.3H26.8z"/>
		<path class="st0" d="M37.9,1.8h-2.2V0h2.2V1.8z M35.7,3.1h2.2v8h-2.2V3.1z"/>
		<path class="st0" d="M43.6,7.6c0,0.7,0.2,1.2,0.5,1.5c0.3,0.3,0.8,0.5,1.4,0.5c0.4,0,0.8-0.1,1.1-0.3c0.3-0.2,0.5-0.5,0.6-0.7h1.9
			c-0.3,1-0.8,1.6-1.4,2.1c-0.6,0.4-1.4,0.6-2.3,0.6c-0.6,0-1.2-0.1-1.7-0.3c-0.5-0.2-0.9-0.5-1.3-0.9s-0.6-0.8-0.8-1.3
			c-0.2-0.5-0.3-1.1-0.3-1.7c0-0.6,0.1-1.2,0.3-1.7c0.2-0.5,0.5-1,0.8-1.3s0.8-0.7,1.3-0.9c0.5-0.2,1.1-0.3,1.7-0.3
			c0.7,0,1.3,0.1,1.8,0.4c0.5,0.3,0.9,0.6,1.2,1.1s0.6,1,0.7,1.5c0.1,0.6,0.2,1.2,0.2,1.8H43.6z M47.2,6.2c-0.1-0.6-0.3-1-0.6-1.3
			s-0.7-0.4-1.2-0.4c-0.4,0-0.6,0.1-0.9,0.2c-0.2,0.1-0.4,0.3-0.6,0.4c-0.1,0.2-0.2,0.4-0.3,0.6S43.6,6,43.6,6.2H47.2z"/>
		<path class="st0" d="M58.6,10L58.6,10c-0.3,0.4-0.6,0.8-1.1,0.9s-0.9,0.3-1.4,0.3c-0.6,0-1.1-0.1-1.6-0.4s-0.8-0.6-1.1-1
			c-0.3-0.4-0.5-0.9-0.7-1.4c-0.2-0.5-0.2-1.1-0.2-1.6c0-0.5,0.1-1.1,0.2-1.6c0.1-0.5,0.4-0.9,0.7-1.3c0.3-0.4,0.7-0.7,1.1-0.9
			s1-0.3,1.6-0.3c0.5,0,0.9,0.1,1.4,0.3c0.4,0.2,0.8,0.5,1,0.9h0V0h2.2v11.1h-2.1V10z M58.5,7c0-0.3,0-0.6-0.1-0.9
			c-0.1-0.3-0.2-0.6-0.3-0.8s-0.3-0.4-0.6-0.6S57,4.5,56.6,4.5c-0.4,0-0.7,0.1-0.9,0.2S55.3,5,55.1,5.3c-0.2,0.2-0.3,0.5-0.3,0.8
			c-0.1,0.3-0.1,0.6-0.1,1c0,0.3,0,0.6,0.1,0.9c0.1,0.3,0.2,0.6,0.3,0.8s0.4,0.4,0.6,0.6c0.2,0.2,0.5,0.2,0.9,0.2
			c0.4,0,0.7-0.1,0.9-0.2c0.2-0.1,0.4-0.3,0.6-0.6s0.2-0.5,0.3-0.8C58.5,7.7,58.5,7.4,58.5,7z"/>
		<path class="st0" d="M64.4,5.5c0-0.5,0.2-0.9,0.4-1.3c0.2-0.3,0.5-0.6,0.9-0.8s0.7-0.4,1.2-0.4s0.9-0.1,1.3-0.1
			c0.4,0,0.8,0,1.2,0.1s0.8,0.2,1.1,0.3c0.3,0.2,0.6,0.4,0.8,0.7c0.2,0.3,0.3,0.7,0.3,1.2v4.2c0,0.4,0,0.7,0.1,1s0.1,0.6,0.2,0.7
			h-2.2c0-0.1-0.1-0.3-0.1-0.4c0-0.1,0-0.3-0.1-0.4c-0.4,0.4-0.8,0.6-1.2,0.8s-1,0.2-1.5,0.2c-0.4,0-0.7,0-1.1-0.1
			c-0.3-0.1-0.6-0.2-0.9-0.4s-0.4-0.4-0.6-0.7s-0.2-0.7-0.2-1.1c0-0.5,0.1-0.8,0.2-1.1c0.2-0.3,0.4-0.5,0.6-0.7
			c0.3-0.2,0.6-0.3,0.9-0.4s0.7-0.2,1-0.2s0.7-0.1,1-0.1s0.6-0.1,0.8-0.1c0.2-0.1,0.4-0.2,0.6-0.3s0.2-0.3,0.2-0.5
			c0-0.2,0-0.4-0.1-0.6S69.2,4.6,69,4.5c-0.1-0.1-0.3-0.1-0.5-0.2c-0.2,0-0.4,0-0.5,0c-0.4,0-0.8,0.1-1,0.3
			c-0.3,0.2-0.4,0.5-0.4,0.9H64.4z M69.5,7.1c-0.1,0.1-0.2,0.1-0.3,0.2c-0.1,0-0.3,0.1-0.5,0.1s-0.3,0.1-0.5,0.1
			c-0.2,0-0.4,0-0.5,0.1c-0.2,0-0.3,0.1-0.5,0.1c-0.2,0.1-0.3,0.1-0.4,0.2s-0.2,0.2-0.3,0.3s-0.1,0.3-0.1,0.5c0,0.2,0,0.4,0.1,0.5
			c0.1,0.1,0.2,0.2,0.3,0.3c0.1,0.1,0.3,0.1,0.4,0.2c0.2,0,0.3,0,0.5,0c0.4,0,0.8-0.1,1-0.2s0.4-0.3,0.5-0.5
			c0.1-0.2,0.2-0.4,0.2-0.6s0-0.4,0-0.5V7.1z"/>
		<path class="st0" d="M81.3,10L81.3,10c-0.3,0.4-0.6,0.8-1.1,0.9s-0.9,0.3-1.4,0.3c-0.6,0-1.1-0.1-1.6-0.4s-0.8-0.6-1.1-1
			c-0.3-0.4-0.5-0.9-0.7-1.4c-0.2-0.5-0.2-1.1-0.2-1.6c0-0.5,0.1-1.1,0.2-1.6s0.4-0.9,0.7-1.3c0.3-0.4,0.7-0.7,1.1-0.9
			s1-0.3,1.6-0.3c0.5,0,0.9,0.1,1.4,0.3c0.4,0.2,0.8,0.5,1,0.9h0V0h2.2v11.1h-2.1V10z M81.2,7c0-0.3,0-0.6-0.1-0.9
			c-0.1-0.3-0.2-0.6-0.3-0.8c-0.2-0.2-0.3-0.4-0.6-0.6c-0.2-0.1-0.5-0.2-0.9-0.2c-0.4,0-0.7,0.1-0.9,0.2S78,5,77.8,5.3
			c-0.1,0.2-0.3,0.5-0.3,0.8c-0.1,0.3-0.1,0.6-0.1,1c0,0.3,0,0.6,0.1,0.9c0.1,0.3,0.2,0.6,0.3,0.8c0.2,0.2,0.4,0.4,0.6,0.6
			c0.2,0.2,0.5,0.2,0.9,0.2c0.4,0,0.7-0.1,0.9-0.2c0.2-0.1,0.4-0.3,0.6-0.6C81,8.6,81.1,8.3,81.1,8C81.2,7.7,81.2,7.4,81.2,7z"/>
	</g>
</g>
</svg>
