<!-- Generator: Adobe Illustrator 20.1.0, SVG Export Plug-In  -->
<svg version="1.1"
	 xmlns="http://www.w3.org/2000/svg" xmlns:xlink="http://www.w3.org/1999/xlink" xmlns:a="http://ns.adobe.com/AdobeSVGViewerExtensions/3.0/"
	 x="0px" y="0px" width="279.1px" height="11.4px" viewBox="0 0 279.1 11.4"
	 style="overflow:scroll;enable-background:new 0 0 279.1 11.4;" xml:space="preserve">
<style type="text/css">
	.st0{fill:#F18A21;}
</style>
<defs>
</defs>
<g>
	<g>
		<path class="st0" d="M0,0.1h4.8c0.7,0,1.4,0.1,2,0.3c0.6,0.2,1.1,0.6,1.6,1c0.5,0.5,0.8,1,1.1,1.7c0.3,0.7,0.4,1.5,0.4,2.4
			c0,0.8-0.1,1.5-0.3,2.2C9.3,8.5,9,9.1,8.6,9.6S7.6,10.5,7,10.8c-0.6,0.3-1.4,0.4-2.2,0.4H0V0.1z M2.4,9.2h2.2c0.4,0,0.7-0.1,1-0.2
			C6,8.9,6.3,8.7,6.5,8.4s0.5-0.6,0.6-1C7.3,7,7.4,6.5,7.4,5.8c0-0.6-0.1-1.1-0.2-1.5C7.1,3.9,6.9,3.5,6.7,3.2s-0.6-0.6-1-0.7
			C5.3,2.3,4.8,2.2,4.2,2.2H2.4V9.2z"/>
		<path class="st0" d="M15.2,7.7c0,0.7,0.2,1.2,0.5,1.5c0.3,0.3,0.8,0.5,1.4,0.5c0.4,0,0.8-0.1,1.1-0.3c0.3-0.2,0.5-0.5,0.6-0.7h1.9
			c-0.3,1-0.8,1.6-1.4,2.1s-1.4,0.6-2.3,0.6c-0.6,0-1.2-0.1-1.7-0.3c-0.5-0.2-0.9-0.5-1.3-0.9s-0.6-0.8-0.8-1.3
			C13.1,8.4,13,7.8,13,7.2c0-0.6,0.1-1.2,0.3-1.7c0.2-0.5,0.5-1,0.8-1.3s0.8-0.7,1.3-0.9C16,3.1,16.5,3,17.1,3
			c0.7,0,1.3,0.1,1.8,0.4c0.5,0.3,0.9,0.6,1.2,1.1c0.3,0.4,0.6,1,0.7,1.5s0.2,1.2,0.2,1.8H15.2z M18.8,6.3c-0.1-0.6-0.3-1-0.5-1.3
			c-0.3-0.3-0.7-0.4-1.2-0.4c-0.4,0-0.6,0.1-0.9,0.2s-0.4,0.3-0.6,0.4c-0.1,0.2-0.2,0.4-0.3,0.6s-0.1,0.4-0.1,0.5H18.8z"/>
		<path class="st0" d="M27.3,3.2h1.6v1.5h-1.6v4c0,0.4,0.1,0.6,0.2,0.7s0.4,0.2,0.7,0.2c0.2,0,0.5,0,0.7-0.1v1.7
			c-0.2,0-0.4,0.1-0.6,0.1c-0.2,0-0.4,0-0.7,0c-0.3,0-0.7,0-1-0.1c-0.3,0-0.6-0.1-0.8-0.3c-0.2-0.1-0.4-0.3-0.5-0.6
			c-0.1-0.2-0.2-0.6-0.2-1V4.7h-1.3V3.2h1.3V0.8h2.2V3.2z"/>
		<path class="st0" d="M33.9,7.7c0,0.7,0.2,1.2,0.5,1.5c0.3,0.3,0.8,0.5,1.4,0.5c0.4,0,0.8-0.1,1.1-0.3c0.3-0.2,0.5-0.5,0.6-0.7h1.9
			c-0.3,1-0.8,1.6-1.4,2.1c-0.6,0.4-1.4,0.6-2.3,0.6c-0.6,0-1.2-0.1-1.7-0.3c-0.5-0.2-0.9-0.5-1.3-0.9S32.2,9.4,32,8.9
			c-0.2-0.5-0.3-1.1-0.3-1.7c0-0.6,0.1-1.2,0.3-1.7c0.2-0.5,0.5-1,0.8-1.3s0.8-0.7,1.3-0.9C34.7,3.1,35.2,3,35.8,3
			c0.7,0,1.3,0.1,1.8,0.4c0.5,0.3,0.9,0.6,1.2,1.1s0.6,1,0.7,1.5c0.1,0.6,0.2,1.2,0.2,1.8H33.9z M37.5,6.3c-0.1-0.6-0.3-1-0.6-1.3
			s-0.7-0.4-1.2-0.4c-0.4,0-0.6,0.1-0.9,0.2c-0.2,0.1-0.4,0.3-0.6,0.4c-0.1,0.2-0.2,0.4-0.3,0.6s-0.1,0.4-0.1,0.5H37.5z"/>
		<path class="st0" d="M43.2,3.2h2.1v1.5h0c0.1-0.2,0.2-0.5,0.4-0.7c0.2-0.2,0.4-0.4,0.6-0.5c0.2-0.2,0.5-0.3,0.7-0.3
			C47.3,3,47.6,3,47.9,3c0.2,0,0.3,0,0.5,0.1v2c-0.1,0-0.2,0-0.4-0.1c-0.1,0-0.3,0-0.4,0c-0.4,0-0.7,0.1-1,0.2
			c-0.3,0.1-0.5,0.3-0.7,0.5c-0.2,0.2-0.3,0.5-0.4,0.8s-0.1,0.6-0.1,1v3.6h-2.2V3.2z"/>
		<path class="st0" d="M53.7,2h-2.2V0.1h2.2V2z M51.5,3.2h2.2v8h-2.2V3.2z"/>
		<path class="st0" d="M57.3,7.2c0-0.6,0.1-1.2,0.3-1.7c0.2-0.5,0.5-1,0.8-1.3c0.4-0.4,0.8-0.7,1.3-0.9C60.3,3.1,60.8,3,61.5,3
			c0.6,0,1.2,0.1,1.7,0.3c0.5,0.2,0.9,0.5,1.3,0.9c0.4,0.4,0.6,0.8,0.8,1.3c0.2,0.5,0.3,1.1,0.3,1.7s-0.1,1.2-0.3,1.7
			c-0.2,0.5-0.5,1-0.8,1.3c-0.4,0.4-0.8,0.7-1.3,0.9c-0.5,0.2-1.1,0.3-1.7,0.3c-0.6,0-1.2-0.1-1.7-0.3c-0.5-0.2-0.9-0.5-1.3-0.9
			c-0.4-0.4-0.6-0.8-0.8-1.3S57.3,7.9,57.3,7.2z M59.5,7.2c0,0.3,0,0.6,0.1,0.9c0.1,0.3,0.2,0.6,0.3,0.8c0.1,0.2,0.3,0.4,0.6,0.6
			c0.2,0.1,0.6,0.2,0.9,0.2c0.4,0,0.7-0.1,0.9-0.2C62.7,9.4,62.9,9.2,63,9s0.3-0.5,0.3-0.8c0.1-0.3,0.1-0.6,0.1-0.9s0-0.6-0.1-0.9
			C63.3,6,63.2,5.7,63,5.4c-0.1-0.2-0.4-0.4-0.6-0.6c-0.3-0.2-0.6-0.2-0.9-0.2c-0.4,0-0.7,0.1-0.9,0.2c-0.2,0.1-0.4,0.3-0.6,0.6
			c-0.2,0.2-0.3,0.5-0.3,0.8C59.6,6.6,59.5,6.9,59.5,7.2z"/>
		<path class="st0" d="M69.2,3.2h2.1v1.5h0c0.1-0.2,0.2-0.5,0.4-0.7c0.2-0.2,0.4-0.4,0.6-0.5c0.2-0.2,0.5-0.3,0.7-0.3
			C73.4,3,73.6,3,73.9,3c0.2,0,0.3,0,0.5,0.1v2c-0.1,0-0.2,0-0.4-0.1c-0.1,0-0.3,0-0.4,0c-0.4,0-0.7,0.1-1,0.2
			c-0.3,0.1-0.5,0.3-0.7,0.5s-0.3,0.5-0.4,0.8s-0.1,0.6-0.1,1v3.6h-2.2V3.2z"/>
		<path class="st0" d="M77.2,7.2c0-0.6,0.1-1.2,0.3-1.7c0.2-0.5,0.5-1,0.8-1.3c0.4-0.4,0.8-0.7,1.3-0.9C80.1,3.1,80.7,3,81.3,3
			c0.6,0,1.2,0.1,1.7,0.3c0.5,0.2,0.9,0.5,1.3,0.9c0.4,0.4,0.6,0.8,0.8,1.3c0.2,0.5,0.3,1.1,0.3,1.7s-0.1,1.2-0.3,1.7
			s-0.5,1-0.8,1.3c-0.4,0.4-0.8,0.7-1.3,0.9c-0.5,0.2-1.1,0.3-1.7,0.3c-0.6,0-1.2-0.1-1.7-0.3c-0.5-0.2-0.9-0.5-1.3-0.9
			c-0.4-0.4-0.6-0.8-0.8-1.3C77.3,8.4,77.2,7.9,77.2,7.2z M79.4,7.2c0,0.3,0,0.6,0.1,0.9c0.1,0.3,0.2,0.6,0.3,0.8s0.3,0.4,0.6,0.6
			c0.2,0.1,0.6,0.2,0.9,0.2s0.7-0.1,0.9-0.2c0.3-0.1,0.5-0.3,0.6-0.6c0.2-0.2,0.3-0.5,0.3-0.8c0.1-0.3,0.1-0.6,0.1-0.9
			s0-0.6-0.1-0.9C83.1,6,83,5.7,82.8,5.4c-0.1-0.2-0.4-0.4-0.6-0.6c-0.3-0.2-0.6-0.2-0.9-0.2s-0.7,0.1-0.9,0.2
			c-0.2,0.1-0.4,0.3-0.6,0.6c-0.1,0.2-0.3,0.5-0.3,0.8C79.4,6.6,79.4,6.9,79.4,7.2z"/>
		<path class="st0" d="M97.4,7.7c0,0.7,0.2,1.2,0.5,1.5c0.3,0.3,0.8,0.5,1.4,0.5c0.4,0,0.8-0.1,1.1-0.3c0.3-0.2,0.5-0.5,0.6-0.7h1.9
			c-0.3,1-0.8,1.6-1.4,2.1c-0.6,0.4-1.4,0.6-2.3,0.6c-0.6,0-1.2-0.1-1.7-0.3c-0.5-0.2-0.9-0.5-1.3-0.9s-0.6-0.8-0.8-1.3
			c-0.2-0.5-0.3-1.1-0.3-1.7c0-0.6,0.1-1.2,0.3-1.7c0.2-0.5,0.5-1,0.8-1.3c0.4-0.4,0.8-0.7,1.3-0.9S98.6,3,99.2,3
			c0.7,0,1.3,0.1,1.8,0.4c0.5,0.3,0.9,0.6,1.2,1.1c0.3,0.4,0.6,1,0.7,1.5s0.2,1.2,0.2,1.8H97.4z M100.9,6.3c-0.1-0.6-0.3-1-0.5-1.3
			c-0.3-0.3-0.7-0.4-1.2-0.4c-0.4,0-0.6,0.1-0.9,0.2c-0.2,0.1-0.4,0.3-0.6,0.4c-0.1,0.2-0.2,0.4-0.3,0.6s-0.1,0.4-0.1,0.5H100.9z"/>
		<path class="st0" d="M106.6,3.2h2.1v1.1h0c0.3-0.5,0.6-0.8,1.1-1c0.4-0.2,0.9-0.3,1.4-0.3c0.6,0,1.1,0.1,1.4,0.2s0.7,0.4,0.9,0.7
			c0.2,0.3,0.4,0.6,0.5,1s0.1,0.9,0.1,1.4v4.9h-2.2V6.7c0-0.7-0.1-1.2-0.3-1.5c-0.2-0.3-0.6-0.5-1.1-0.5c-0.6,0-1,0.2-1.3,0.5
			c-0.3,0.4-0.4,0.9-0.4,1.8v4.2h-2.2V3.2z"/>
		<path class="st0" d="M124.5,0.1h2.2v11.1h-2.2V0.1z"/>
		<path class="st0" d="M130.5,5.7c0-0.5,0.2-0.9,0.4-1.3c0.2-0.3,0.5-0.6,0.9-0.8s0.7-0.4,1.2-0.4c0.4-0.1,0.9-0.1,1.3-0.1
			c0.4,0,0.8,0,1.2,0.1c0.4,0.1,0.8,0.2,1.1,0.3c0.3,0.2,0.6,0.4,0.8,0.7c0.2,0.3,0.3,0.7,0.3,1.2v4.2c0,0.4,0,0.7,0.1,1
			c0,0.3,0.1,0.6,0.2,0.7h-2.2c0-0.1-0.1-0.3-0.1-0.4s0-0.3-0.1-0.4c-0.4,0.4-0.8,0.6-1.2,0.8c-0.5,0.1-1,0.2-1.5,0.2
			c-0.4,0-0.7,0-1.1-0.1c-0.3-0.1-0.6-0.2-0.9-0.4s-0.4-0.4-0.6-0.7c-0.1-0.3-0.2-0.7-0.2-1.1c0-0.5,0.1-0.8,0.2-1.1
			c0.2-0.3,0.4-0.5,0.6-0.7c0.3-0.2,0.5-0.3,0.9-0.4c0.3-0.1,0.7-0.2,1-0.2c0.3-0.1,0.7-0.1,1-0.1c0.3,0,0.6-0.1,0.8-0.1
			c0.2-0.1,0.4-0.2,0.6-0.3c0.1-0.1,0.2-0.3,0.2-0.5c0-0.2,0-0.4-0.1-0.6c-0.1-0.1-0.2-0.2-0.3-0.3c-0.1-0.1-0.3-0.1-0.5-0.2
			c-0.2,0-0.4,0-0.5,0c-0.4,0-0.8,0.1-1,0.3c-0.3,0.2-0.4,0.5-0.4,0.9H130.5z M135.6,7.3c-0.1,0.1-0.2,0.1-0.3,0.2
			c-0.1,0-0.3,0.1-0.4,0.1s-0.3,0.1-0.5,0.1c-0.2,0-0.4,0-0.5,0.1c-0.2,0-0.3,0.1-0.5,0.1c-0.2,0.1-0.3,0.1-0.4,0.2
			c-0.1,0.1-0.2,0.2-0.3,0.3s-0.1,0.3-0.1,0.5c0,0.2,0,0.4,0.1,0.5c0.1,0.1,0.2,0.2,0.3,0.3c0.1,0.1,0.3,0.1,0.4,0.2
			c0.2,0,0.3,0,0.5,0c0.4,0,0.8-0.1,1-0.2c0.2-0.1,0.4-0.3,0.5-0.5c0.1-0.2,0.2-0.4,0.2-0.6s0-0.4,0-0.5V7.3z"/>
		<path class="st0" d="M153.6,6c-0.1-0.9-0.7-1.4-1.6-1.4c-0.4,0-0.6,0.1-0.9,0.2c-0.2,0.2-0.4,0.4-0.6,0.6
			c-0.1,0.3-0.3,0.5-0.3,0.8c-0.1,0.3-0.1,0.6-0.1,0.9c0,0.3,0,0.6,0.1,0.9s0.2,0.6,0.3,0.8c0.1,0.2,0.3,0.4,0.6,0.6
			c0.2,0.2,0.5,0.2,0.9,0.2c0.5,0,0.9-0.1,1.2-0.4c0.3-0.3,0.5-0.7,0.5-1.2h2.1c-0.1,1.1-0.6,1.9-1.2,2.4c-0.7,0.6-1.6,0.8-2.6,0.8
			c-0.6,0-1.2-0.1-1.7-0.3c-0.5-0.2-0.9-0.5-1.3-0.9c-0.4-0.4-0.6-0.8-0.8-1.3s-0.3-1.1-0.3-1.7c0-0.6,0.1-1.2,0.3-1.7
			s0.4-1,0.8-1.4c0.4-0.4,0.8-0.7,1.3-0.9c0.5-0.2,1.1-0.3,1.7-0.3c0.5,0,0.9,0.1,1.4,0.2s0.8,0.3,1.2,0.6c0.3,0.3,0.6,0.6,0.8,1
			c0.2,0.4,0.3,0.8,0.4,1.3H153.6z"/>
		<path class="st0" d="M159,7.2c0-0.6,0.1-1.2,0.3-1.7c0.2-0.5,0.5-1,0.8-1.3c0.4-0.4,0.8-0.7,1.3-0.9c0.5-0.2,1.1-0.3,1.7-0.3
			s1.2,0.1,1.7,0.3c0.5,0.2,0.9,0.5,1.3,0.9c0.4,0.4,0.6,0.8,0.8,1.3c0.2,0.5,0.3,1.1,0.3,1.7s-0.1,1.2-0.3,1.7s-0.5,1-0.8,1.3
			c-0.4,0.4-0.8,0.7-1.3,0.9c-0.5,0.2-1.1,0.3-1.7,0.3s-1.2-0.1-1.7-0.3c-0.5-0.2-0.9-0.5-1.3-0.9c-0.4-0.4-0.6-0.8-0.8-1.3
			C159.1,8.4,159,7.9,159,7.2z M161.2,7.2c0,0.3,0,0.6,0.1,0.9c0.1,0.3,0.2,0.6,0.3,0.8s0.3,0.4,0.6,0.6c0.2,0.1,0.6,0.2,0.9,0.2
			s0.7-0.1,0.9-0.2c0.3-0.1,0.5-0.3,0.6-0.6c0.1-0.2,0.3-0.5,0.3-0.8c0.1-0.3,0.1-0.6,0.1-0.9s0-0.6-0.1-0.9
			c-0.1-0.3-0.2-0.6-0.3-0.8c-0.2-0.2-0.4-0.4-0.6-0.6c-0.3-0.2-0.6-0.2-0.9-0.2s-0.7,0.1-0.9,0.2c-0.2,0.1-0.4,0.3-0.6,0.6
			c-0.2,0.2-0.3,0.5-0.3,0.8C161.2,6.6,161.2,6.9,161.2,7.2z"/>
		<path class="st0" d="M170.9,3.2h2.1v1.1h0c0.3-0.5,0.6-0.8,1.1-1c0.4-0.2,0.9-0.3,1.4-0.3c0.6,0,1.1,0.1,1.4,0.2s0.7,0.4,0.9,0.7
			c0.2,0.3,0.4,0.6,0.5,1s0.1,0.9,0.1,1.4v4.9h-2.2V6.7c0-0.7-0.1-1.2-0.3-1.5c-0.2-0.3-0.6-0.5-1.1-0.5c-0.6,0-1,0.2-1.3,0.5
			c-0.3,0.4-0.4,0.9-0.4,1.8v4.2h-2.2V3.2z"/>
		<path class="st0" d="M187.7,6c-0.1-0.9-0.7-1.4-1.6-1.4c-0.4,0-0.6,0.1-0.9,0.2c-0.2,0.2-0.4,0.4-0.6,0.6
			c-0.1,0.3-0.3,0.5-0.3,0.8c-0.1,0.3-0.1,0.6-0.1,0.9c0,0.3,0,0.6,0.1,0.9s0.2,0.6,0.3,0.8c0.1,0.2,0.3,0.4,0.6,0.6
			c0.2,0.2,0.5,0.2,0.9,0.2c0.5,0,0.9-0.1,1.2-0.4c0.3-0.3,0.5-0.7,0.5-1.2h2.1c-0.1,1.1-0.6,1.9-1.2,2.4c-0.7,0.6-1.6,0.8-2.6,0.8
			c-0.6,0-1.2-0.1-1.7-0.3c-0.5-0.2-0.9-0.5-1.3-0.9c-0.4-0.4-0.6-0.8-0.8-1.3S182,7.9,182,7.3c0-0.6,0.1-1.2,0.3-1.7s0.4-1,0.8-1.4
			c0.4-0.4,0.8-0.7,1.3-0.9c0.5-0.2,1.1-0.3,1.7-0.3c0.5,0,0.9,0.1,1.4,0.2s0.8,0.3,1.2,0.6c0.3,0.3,0.6,0.6,0.8,1
			c0.2,0.4,0.3,0.8,0.4,1.3H187.7z"/>
		<path class="st0" d="M195.1,7.7c0,0.7,0.2,1.2,0.5,1.5c0.3,0.3,0.8,0.5,1.4,0.5c0.4,0,0.8-0.1,1.1-0.3c0.3-0.2,0.5-0.5,0.6-0.7
			h1.9c-0.3,1-0.8,1.6-1.4,2.1c-0.6,0.4-1.4,0.6-2.3,0.6c-0.6,0-1.2-0.1-1.7-0.3c-0.5-0.2-0.9-0.5-1.3-0.9s-0.6-0.8-0.8-1.3
			c-0.2-0.5-0.3-1.1-0.3-1.7c0-0.6,0.1-1.2,0.3-1.7c0.2-0.5,0.5-1,0.8-1.3c0.4-0.4,0.8-0.7,1.3-0.9S196.4,3,197,3
			c0.7,0,1.3,0.1,1.8,0.4c0.5,0.3,0.9,0.6,1.2,1.1c0.3,0.4,0.6,1,0.7,1.5s0.2,1.2,0.2,1.8H195.1z M198.7,6.3c-0.1-0.6-0.3-1-0.5-1.3
			c-0.3-0.3-0.7-0.4-1.2-0.4c-0.4,0-0.6,0.1-0.9,0.2c-0.2,0.1-0.4,0.3-0.6,0.4c-0.1,0.2-0.2,0.4-0.3,0.6s-0.1,0.4-0.1,0.5H198.7z"/>
		<path class="st0" d="M204.4,3.2h2.1v1.1h0c0.3-0.5,0.6-0.8,1.1-1S208.5,3,209,3c0.6,0,1.1,0.1,1.4,0.2c0.4,0.2,0.7,0.4,0.9,0.7
			c0.2,0.3,0.4,0.6,0.5,1s0.1,0.9,0.1,1.4v4.9h-2.2V6.7c0-0.7-0.1-1.2-0.3-1.5c-0.2-0.3-0.6-0.5-1.1-0.5c-0.6,0-1,0.2-1.3,0.5
			c-0.3,0.4-0.4,0.9-0.4,1.8v4.2h-2.2V3.2z"/>
		<path class="st0" d="M218.5,3.2h1.6v1.5h-1.6v4c0,0.4,0.1,0.6,0.2,0.7s0.4,0.2,0.7,0.2c0.2,0,0.5,0,0.7-0.1v1.7
			c-0.2,0-0.4,0.1-0.6,0.1c-0.2,0-0.4,0-0.7,0c-0.3,0-0.7,0-1-0.1c-0.3,0-0.6-0.1-0.8-0.3c-0.2-0.1-0.4-0.3-0.5-0.6
			c-0.1-0.2-0.2-0.6-0.2-1V4.7H215V3.2h1.3V0.8h2.2V3.2z"/>
		<path class="st0" d="M223.4,3.2h2.1v1.5h0c0.1-0.2,0.2-0.5,0.4-0.7c0.2-0.2,0.4-0.4,0.6-0.5c0.2-0.2,0.5-0.3,0.7-0.3
			c0.3-0.1,0.5-0.1,0.8-0.1c0.2,0,0.3,0,0.5,0.1v2c-0.1,0-0.2,0-0.4-0.1c-0.1,0-0.3,0-0.4,0c-0.4,0-0.7,0.1-1,0.2
			c-0.3,0.1-0.5,0.3-0.7,0.5s-0.3,0.5-0.4,0.8s-0.1,0.6-0.1,1v3.6h-2.2V3.2z"/>
		<path class="st0" d="M231.5,5.7c0-0.5,0.2-0.9,0.4-1.3c0.2-0.3,0.5-0.6,0.9-0.8s0.7-0.4,1.2-0.4s0.9-0.1,1.3-0.1
			c0.4,0,0.8,0,1.2,0.1s0.8,0.2,1.1,0.3c0.3,0.2,0.6,0.4,0.8,0.7c0.2,0.3,0.3,0.7,0.3,1.2v4.2c0,0.4,0,0.7,0.1,1s0.1,0.6,0.2,0.7
			h-2.2c0-0.1-0.1-0.3-0.1-0.4c0-0.1,0-0.3-0.1-0.4c-0.4,0.4-0.8,0.6-1.2,0.8s-1,0.2-1.5,0.2c-0.4,0-0.7,0-1.1-0.1
			c-0.3-0.1-0.6-0.2-0.9-0.4s-0.4-0.4-0.6-0.7s-0.2-0.7-0.2-1.1c0-0.5,0.1-0.8,0.2-1.1c0.2-0.3,0.4-0.5,0.6-0.7
			c0.3-0.2,0.6-0.3,0.9-0.4s0.7-0.2,1-0.2s0.7-0.1,1-0.1s0.6-0.1,0.8-0.1c0.2-0.1,0.4-0.2,0.6-0.3s0.2-0.3,0.2-0.5
			c0-0.2,0-0.4-0.1-0.6s-0.2-0.2-0.3-0.3c-0.1-0.1-0.3-0.1-0.5-0.2c-0.2,0-0.4,0-0.5,0c-0.4,0-0.8,0.1-1,0.3
			c-0.3,0.2-0.4,0.5-0.4,0.9H231.5z M236.6,7.3c-0.1,0.1-0.2,0.1-0.3,0.2c-0.1,0-0.3,0.1-0.5,0.1s-0.3,0.1-0.5,0.1
			c-0.2,0-0.4,0-0.5,0.1c-0.2,0-0.3,0.1-0.5,0.1c-0.2,0.1-0.3,0.1-0.4,0.2s-0.2,0.2-0.3,0.3s-0.1,0.3-0.1,0.5c0,0.2,0,0.4,0.1,0.5
			c0.1,0.1,0.2,0.2,0.3,0.3c0.1,0.1,0.3,0.1,0.4,0.2c0.2,0,0.3,0,0.5,0c0.4,0,0.8-0.1,1-0.2s0.4-0.3,0.5-0.5
			c0.1-0.2,0.2-0.4,0.2-0.6s0-0.4,0-0.5V7.3z"/>
		<path class="st0" d="M248.1,6c-0.1-0.9-0.7-1.4-1.6-1.4c-0.4,0-0.6,0.1-0.9,0.2c-0.2,0.2-0.4,0.4-0.6,0.6
			c-0.1,0.3-0.3,0.5-0.3,0.8c-0.1,0.3-0.1,0.6-0.1,0.9c0,0.3,0,0.6,0.1,0.9c0.1,0.3,0.2,0.6,0.3,0.8c0.1,0.2,0.3,0.4,0.6,0.6
			c0.2,0.2,0.5,0.2,0.9,0.2c0.5,0,0.9-0.1,1.2-0.4s0.5-0.7,0.5-1.2h2.1c-0.1,1.1-0.6,1.9-1.2,2.4c-0.7,0.6-1.6,0.8-2.6,0.8
			c-0.6,0-1.2-0.1-1.7-0.3c-0.5-0.2-0.9-0.5-1.3-0.9c-0.4-0.4-0.6-0.8-0.8-1.3c-0.2-0.5-0.3-1.1-0.3-1.7c0-0.6,0.1-1.2,0.3-1.7
			c0.2-0.5,0.4-1,0.8-1.4c0.4-0.4,0.8-0.7,1.3-0.9s1.1-0.3,1.7-0.3c0.5,0,0.9,0.1,1.4,0.2s0.8,0.3,1.2,0.6c0.3,0.3,0.6,0.6,0.8,1
			c0.2,0.4,0.3,0.8,0.4,1.3H248.1z"/>
		<path class="st0" d="M256,2h-2.2V0.1h2.2V2z M253.8,3.2h2.2v8h-2.2V3.2z"/>
		<path class="st0" d="M259.6,7.2c0-0.6,0.1-1.2,0.3-1.7c0.2-0.5,0.5-1,0.8-1.3c0.4-0.4,0.8-0.7,1.3-0.9c0.5-0.2,1.1-0.3,1.7-0.3
			c0.6,0,1.2,0.1,1.7,0.3c0.5,0.2,0.9,0.5,1.3,0.9c0.4,0.4,0.6,0.8,0.8,1.3c0.2,0.5,0.3,1.1,0.3,1.7s-0.1,1.2-0.3,1.7
			c-0.2,0.5-0.5,1-0.8,1.3c-0.4,0.4-0.8,0.7-1.3,0.9c-0.5,0.2-1.1,0.3-1.7,0.3c-0.6,0-1.2-0.1-1.7-0.3c-0.5-0.2-0.9-0.5-1.3-0.9
			c-0.4-0.4-0.6-0.8-0.8-1.3S259.6,7.9,259.6,7.2z M261.9,7.2c0,0.3,0,0.6,0.1,0.9c0.1,0.3,0.2,0.6,0.3,0.8c0.1,0.2,0.3,0.4,0.6,0.6
			c0.2,0.1,0.6,0.2,0.9,0.2c0.4,0,0.7-0.1,0.9-0.2c0.3-0.1,0.5-0.3,0.6-0.6s0.3-0.5,0.3-0.8c0.1-0.3,0.1-0.6,0.1-0.9s0-0.6-0.1-0.9
			c-0.1-0.3-0.2-0.6-0.3-0.8c-0.1-0.2-0.4-0.4-0.6-0.6c-0.3-0.2-0.6-0.2-0.9-0.2c-0.4,0-0.7,0.1-0.9,0.2c-0.2,0.1-0.4,0.3-0.6,0.6
			c-0.2,0.2-0.3,0.5-0.3,0.8C261.9,6.6,261.9,6.9,261.9,7.2z M264.2,2.2h-1.5l1.5-2.2h2.4L264.2,2.2z"/>
		<path class="st0" d="M271.5,3.2h2.1v1.1h0c0.3-0.5,0.6-0.8,1.1-1c0.4-0.2,0.9-0.3,1.4-0.3c0.6,0,1.1,0.1,1.4,0.2s0.7,0.4,0.9,0.7
			c0.2,0.3,0.4,0.6,0.5,1s0.1,0.9,0.1,1.4v4.9h-2.2V6.7c0-0.7-0.1-1.2-0.3-1.5c-0.2-0.3-0.6-0.5-1.1-0.5c-0.6,0-1,0.2-1.3,0.5
			c-0.3,0.4-0.4,0.9-0.4,1.8v4.2h-2.2V3.2z"/>
	</g>
</g>
</svg>
