<?xml version="1.0" standalone="no"?>
<svg xmlns="http://www.w3.org/2000/svg" version="1.1" width="258" height="258">
	<!-- Created with https://api.qrserver.com (QR Code API, see goQR.me/api for information) -->
	<title>QR Code</title>
	<desc>http://www.schwabepharma.mx/mobile/app/gastro/ipp/salofalk/verification/1c125d5e273d31a76668b8643e171ed0760d1d16.php</desc>
	<rect style="fill:rgb(255, 255, 255);fill-opacity:1" x="0" y="0" width="258" height="258" />
	<g id="elements">
		<path style="fill:rgb(0, 0, 0)" d="M 6,6 l 6,0 0,6 -6,0 z M 12,6 l 6,0 0,6 -6,0 z M 18,6 l 6,0 0,6 -6,0 z M 24,6 l 6,0 0,6 -6,0 z M 30,6 l 6,0 0,6 -6,0 z M 36,6 l 6,0 0,6 -6,0 z M 42,6 l 6,0 0,6 -6,0 z M 60,6 l 6,0 0,6 -6,0 z M 66,6 l 6,0 0,6 -6,0 z M 72,6 l 6,0 0,6 -6,0 z M 78,6 l 6,0 0,6 -6,0 z M 84,6 l 6,0 0,6 -6,0 z M 108,6 l 6,0 0,6 -6,0 z M 120,6 l 6,0 0,6 -6,0 z M 126,6 l 6,0 0,6 -6,0 z M 132,6 l 6,0 0,6 -6,0 z M 144,6 l 6,0 0,6 -6,0 z M 150,6 l 6,0 0,6 -6,0 z M 156,6 l 6,0 0,6 -6,0 z M 174,6 l 6,0 0,6 -6,0 z M 192,6 l 6,0 0,6 -6,0 z M 198,6 l 6,0 0,6 -6,0 z M 210,6 l 6,0 0,6 -6,0 z M 216,6 l 6,0 0,6 -6,0 z M 222,6 l 6,0 0,6 -6,0 z M 228,6 l 6,0 0,6 -6,0 z M 234,6 l 6,0 0,6 -6,0 z M 240,6 l 6,0 0,6 -6,0 z M 246,6 l 6,0 0,6 -6,0 z M 6,12 l 6,0 0,6 -6,0 z M 42,12 l 6,0 0,6 -6,0 z M 54,12 l 6,0 0,6 -6,0 z M 60,12 l 6,0 0,6 -6,0 z M 72,12 l 6,0 0,6 -6,0 z M 84,12 l 6,0 0,6 -6,0 z M 90,12 l 6,0 0,6 -6,0 z M 96,12 l 6,0 0,6 -6,0 z M 102,12 l 6,0 0,6 -6,0 z M 108,12 l 6,0 0,6 -6,0 z M 150,12 l 6,0 0,6 -6,0 z M 162,12 l 6,0 0,6 -6,0 z M 168,12 l 6,0 0,6 -6,0 z M 174,12 l 6,0 0,6 -6,0 z M 186,12 l 6,0 0,6 -6,0 z M 198,12 l 6,0 0,6 -6,0 z M 210,12 l 6,0 0,6 -6,0 z M 246,12 l 6,0 0,6 -6,0 z M 6,18 l 6,0 0,6 -6,0 z M 18,18 l 6,0 0,6 -6,0 z M 24,18 l 6,0 0,6 -6,0 z M 30,18 l 6,0 0,6 -6,0 z M 42,18 l 6,0 0,6 -6,0 z M 60,18 l 6,0 0,6 -6,0 z M 78,18 l 6,0 0,6 -6,0 z M 84,18 l 6,0 0,6 -6,0 z M 114,18 l 6,0 0,6 -6,0 z M 132,18 l 6,0 0,6 -6,0 z M 150,18 l 6,0 0,6 -6,0 z M 174,18 l 6,0 0,6 -6,0 z M 198,18 l 6,0 0,6 -6,0 z M 210,18 l 6,0 0,6 -6,0 z M 222,18 l 6,0 0,6 -6,0 z M 228,18 l 6,0 0,6 -6,0 z M 234,18 l 6,0 0,6 -6,0 z M 246,18 l 6,0 0,6 -6,0 z M 6,24 l 6,0 0,6 -6,0 z M 18,24 l 6,0 0,6 -6,0 z M 24,24 l 6,0 0,6 -6,0 z M 30,24 l 6,0 0,6 -6,0 z M 42,24 l 6,0 0,6 -6,0 z M 54,24 l 6,0 0,6 -6,0 z M 90,24 l 6,0 0,6 -6,0 z M 102,24 l 6,0 0,6 -6,0 z M 114,24 l 6,0 0,6 -6,0 z M 132,24 l 6,0 0,6 -6,0 z M 150,24 l 6,0 0,6 -6,0 z M 180,24 l 6,0 0,6 -6,0 z M 198,24 l 6,0 0,6 -6,0 z M 210,24 l 6,0 0,6 -6,0 z M 222,24 l 6,0 0,6 -6,0 z M 228,24 l 6,0 0,6 -6,0 z M 234,24 l 6,0 0,6 -6,0 z M 246,24 l 6,0 0,6 -6,0 z M 6,30 l 6,0 0,6 -6,0 z M 18,30 l 6,0 0,6 -6,0 z M 24,30 l 6,0 0,6 -6,0 z M 30,30 l 6,0 0,6 -6,0 z M 42,30 l 6,0 0,6 -6,0 z M 60,30 l 6,0 0,6 -6,0 z M 66,30 l 6,0 0,6 -6,0 z M 72,30 l 6,0 0,6 -6,0 z M 78,30 l 6,0 0,6 -6,0 z M 84,30 l 6,0 0,6 -6,0 z M 96,30 l 6,0 0,6 -6,0 z M 114,30 l 6,0 0,6 -6,0 z M 126,30 l 6,0 0,6 -6,0 z M 150,30 l 6,0 0,6 -6,0 z M 156,30 l 6,0 0,6 -6,0 z M 174,30 l 6,0 0,6 -6,0 z M 186,30 l 6,0 0,6 -6,0 z M 192,30 l 6,0 0,6 -6,0 z M 210,30 l 6,0 0,6 -6,0 z M 222,30 l 6,0 0,6 -6,0 z M 228,30 l 6,0 0,6 -6,0 z M 234,30 l 6,0 0,6 -6,0 z M 246,30 l 6,0 0,6 -6,0 z M 6,36 l 6,0 0,6 -6,0 z M 42,36 l 6,0 0,6 -6,0 z M 54,36 l 6,0 0,6 -6,0 z M 60,36 l 6,0 0,6 -6,0 z M 66,36 l 6,0 0,6 -6,0 z M 78,36 l 6,0 0,6 -6,0 z M 84,36 l 6,0 0,6 -6,0 z M 90,36 l 6,0 0,6 -6,0 z M 96,36 l 6,0 0,6 -6,0 z M 102,36 l 6,0 0,6 -6,0 z M 114,36 l 6,0 0,6 -6,0 z M 120,36 l 6,0 0,6 -6,0 z M 126,36 l 6,0 0,6 -6,0 z M 138,36 l 6,0 0,6 -6,0 z M 150,36 l 6,0 0,6 -6,0 z M 162,36 l 6,0 0,6 -6,0 z M 168,36 l 6,0 0,6 -6,0 z M 186,36 l 6,0 0,6 -6,0 z M 198,36 l 6,0 0,6 -6,0 z M 210,36 l 6,0 0,6 -6,0 z M 246,36 l 6,0 0,6 -6,0 z M 6,42 l 6,0 0,6 -6,0 z M 12,42 l 6,0 0,6 -6,0 z M 18,42 l 6,0 0,6 -6,0 z M 24,42 l 6,0 0,6 -6,0 z M 30,42 l 6,0 0,6 -6,0 z M 36,42 l 6,0 0,6 -6,0 z M 42,42 l 6,0 0,6 -6,0 z M 54,42 l 6,0 0,6 -6,0 z M 66,42 l 6,0 0,6 -6,0 z M 78,42 l 6,0 0,6 -6,0 z M 90,42 l 6,0 0,6 -6,0 z M 102,42 l 6,0 0,6 -6,0 z M 114,42 l 6,0 0,6 -6,0 z M 126,42 l 6,0 0,6 -6,0 z M 138,42 l 6,0 0,6 -6,0 z M 150,42 l 6,0 0,6 -6,0 z M 162,42 l 6,0 0,6 -6,0 z M 174,42 l 6,0 0,6 -6,0 z M 186,42 l 6,0 0,6 -6,0 z M 198,42 l 6,0 0,6 -6,0 z M 210,42 l 6,0 0,6 -6,0 z M 216,42 l 6,0 0,6 -6,0 z M 222,42 l 6,0 0,6 -6,0 z M 228,42 l 6,0 0,6 -6,0 z M 234,42 l 6,0 0,6 -6,0 z M 240,42 l 6,0 0,6 -6,0 z M 246,42 l 6,0 0,6 -6,0 z M 90,48 l 6,0 0,6 -6,0 z M 96,48 l 6,0 0,6 -6,0 z M 114,48 l 6,0 0,6 -6,0 z M 126,48 l 6,0 0,6 -6,0 z M 132,48 l 6,0 0,6 -6,0 z M 138,48 l 6,0 0,6 -6,0 z M 144,48 l 6,0 0,6 -6,0 z M 150,48 l 6,0 0,6 -6,0 z M 162,48 l 6,0 0,6 -6,0 z M 186,48 l 6,0 0,6 -6,0 z M 192,48 l 6,0 0,6 -6,0 z M 6,54 l 6,0 0,6 -6,0 z M 12,54 l 6,0 0,6 -6,0 z M 18,54 l 6,0 0,6 -6,0 z M 24,54 l 6,0 0,6 -6,0 z M 30,54 l 6,0 0,6 -6,0 z M 42,54 l 6,0 0,6 -6,0 z M 48,54 l 6,0 0,6 -6,0 z M 54,54 l 6,0 0,6 -6,0 z M 60,54 l 6,0 0,6 -6,0 z M 84,54 l 6,0 0,6 -6,0 z M 90,54 l 6,0 0,6 -6,0 z M 96,54 l 6,0 0,6 -6,0 z M 108,54 l 6,0 0,6 -6,0 z M 114,54 l 6,0 0,6 -6,0 z M 126,54 l 6,0 0,6 -6,0 z M 138,54 l 6,0 0,6 -6,0 z M 156,54 l 6,0 0,6 -6,0 z M 162,54 l 6,0 0,6 -6,0 z M 168,54 l 6,0 0,6 -6,0 z M 180,54 l 6,0 0,6 -6,0 z M 204,54 l 6,0 0,6 -6,0 z M 216,54 l 6,0 0,6 -6,0 z M 228,54 l 6,0 0,6 -6,0 z M 240,54 l 6,0 0,6 -6,0 z M 6,60 l 6,0 0,6 -6,0 z M 24,60 l 6,0 0,6 -6,0 z M 30,60 l 6,0 0,6 -6,0 z M 36,60 l 6,0 0,6 -6,0 z M 54,60 l 6,0 0,6 -6,0 z M 60,60 l 6,0 0,6 -6,0 z M 66,60 l 6,0 0,6 -6,0 z M 72,60 l 6,0 0,6 -6,0 z M 90,60 l 6,0 0,6 -6,0 z M 102,60 l 6,0 0,6 -6,0 z M 108,60 l 6,0 0,6 -6,0 z M 114,60 l 6,0 0,6 -6,0 z M 120,60 l 6,0 0,6 -6,0 z M 126,60 l 6,0 0,6 -6,0 z M 144,60 l 6,0 0,6 -6,0 z M 186,60 l 6,0 0,6 -6,0 z M 192,60 l 6,0 0,6 -6,0 z M 198,60 l 6,0 0,6 -6,0 z M 204,60 l 6,0 0,6 -6,0 z M 210,60 l 6,0 0,6 -6,0 z M 222,60 l 6,0 0,6 -6,0 z M 228,60 l 6,0 0,6 -6,0 z M 240,60 l 6,0 0,6 -6,0 z M 246,60 l 6,0 0,6 -6,0 z M 6,66 l 6,0 0,6 -6,0 z M 12,66 l 6,0 0,6 -6,0 z M 24,66 l 6,0 0,6 -6,0 z M 30,66 l 6,0 0,6 -6,0 z M 36,66 l 6,0 0,6 -6,0 z M 42,66 l 6,0 0,6 -6,0 z M 48,66 l 6,0 0,6 -6,0 z M 72,66 l 6,0 0,6 -6,0 z M 78,66 l 6,0 0,6 -6,0 z M 96,66 l 6,0 0,6 -6,0 z M 126,66 l 6,0 0,6 -6,0 z M 132,66 l 6,0 0,6 -6,0 z M 150,66 l 6,0 0,6 -6,0 z M 156,66 l 6,0 0,6 -6,0 z M 162,66 l 6,0 0,6 -6,0 z M 168,66 l 6,0 0,6 -6,0 z M 186,66 l 6,0 0,6 -6,0 z M 216,66 l 6,0 0,6 -6,0 z M 18,72 l 6,0 0,6 -6,0 z M 24,72 l 6,0 0,6 -6,0 z M 36,72 l 6,0 0,6 -6,0 z M 48,72 l 6,0 0,6 -6,0 z M 54,72 l 6,0 0,6 -6,0 z M 66,72 l 6,0 0,6 -6,0 z M 90,72 l 6,0 0,6 -6,0 z M 96,72 l 6,0 0,6 -6,0 z M 102,72 l 6,0 0,6 -6,0 z M 138,72 l 6,0 0,6 -6,0 z M 150,72 l 6,0 0,6 -6,0 z M 156,72 l 6,0 0,6 -6,0 z M 168,72 l 6,0 0,6 -6,0 z M 192,72 l 6,0 0,6 -6,0 z M 204,72 l 6,0 0,6 -6,0 z M 216,72 l 6,0 0,6 -6,0 z M 222,72 l 6,0 0,6 -6,0 z M 228,72 l 6,0 0,6 -6,0 z M 246,72 l 6,0 0,6 -6,0 z M 12,78 l 6,0 0,6 -6,0 z M 18,78 l 6,0 0,6 -6,0 z M 42,78 l 6,0 0,6 -6,0 z M 48,78 l 6,0 0,6 -6,0 z M 60,78 l 6,0 0,6 -6,0 z M 66,78 l 6,0 0,6 -6,0 z M 72,78 l 6,0 0,6 -6,0 z M 78,78 l 6,0 0,6 -6,0 z M 114,78 l 6,0 0,6 -6,0 z M 120,78 l 6,0 0,6 -6,0 z M 132,78 l 6,0 0,6 -6,0 z M 150,78 l 6,0 0,6 -6,0 z M 186,78 l 6,0 0,6 -6,0 z M 198,78 l 6,0 0,6 -6,0 z M 204,78 l 6,0 0,6 -6,0 z M 228,78 l 6,0 0,6 -6,0 z M 234,78 l 6,0 0,6 -6,0 z M 246,78 l 6,0 0,6 -6,0 z M 12,84 l 6,0 0,6 -6,0 z M 30,84 l 6,0 0,6 -6,0 z M 54,84 l 6,0 0,6 -6,0 z M 60,84 l 6,0 0,6 -6,0 z M 90,84 l 6,0 0,6 -6,0 z M 96,84 l 6,0 0,6 -6,0 z M 102,84 l 6,0 0,6 -6,0 z M 108,84 l 6,0 0,6 -6,0 z M 114,84 l 6,0 0,6 -6,0 z M 126,84 l 6,0 0,6 -6,0 z M 132,84 l 6,0 0,6 -6,0 z M 150,84 l 6,0 0,6 -6,0 z M 156,84 l 6,0 0,6 -6,0 z M 168,84 l 6,0 0,6 -6,0 z M 180,84 l 6,0 0,6 -6,0 z M 192,84 l 6,0 0,6 -6,0 z M 210,84 l 6,0 0,6 -6,0 z M 216,84 l 6,0 0,6 -6,0 z M 222,84 l 6,0 0,6 -6,0 z M 228,84 l 6,0 0,6 -6,0 z M 234,84 l 6,0 0,6 -6,0 z M 246,84 l 6,0 0,6 -6,0 z M 6,90 l 6,0 0,6 -6,0 z M 12,90 l 6,0 0,6 -6,0 z M 18,90 l 6,0 0,6 -6,0 z M 24,90 l 6,0 0,6 -6,0 z M 42,90 l 6,0 0,6 -6,0 z M 54,90 l 6,0 0,6 -6,0 z M 60,90 l 6,0 0,6 -6,0 z M 66,90 l 6,0 0,6 -6,0 z M 72,90 l 6,0 0,6 -6,0 z M 78,90 l 6,0 0,6 -6,0 z M 84,90 l 6,0 0,6 -6,0 z M 90,90 l 6,0 0,6 -6,0 z M 108,90 l 6,0 0,6 -6,0 z M 120,90 l 6,0 0,6 -6,0 z M 138,90 l 6,0 0,6 -6,0 z M 144,90 l 6,0 0,6 -6,0 z M 150,90 l 6,0 0,6 -6,0 z M 156,90 l 6,0 0,6 -6,0 z M 162,90 l 6,0 0,6 -6,0 z M 168,90 l 6,0 0,6 -6,0 z M 186,90 l 6,0 0,6 -6,0 z M 210,90 l 6,0 0,6 -6,0 z M 216,90 l 6,0 0,6 -6,0 z M 222,90 l 6,0 0,6 -6,0 z M 234,90 l 6,0 0,6 -6,0 z M 12,96 l 6,0 0,6 -6,0 z M 24,96 l 6,0 0,6 -6,0 z M 48,96 l 6,0 0,6 -6,0 z M 54,96 l 6,0 0,6 -6,0 z M 72,96 l 6,0 0,6 -6,0 z M 102,96 l 6,0 0,6 -6,0 z M 120,96 l 6,0 0,6 -6,0 z M 126,96 l 6,0 0,6 -6,0 z M 132,96 l 6,0 0,6 -6,0 z M 138,96 l 6,0 0,6 -6,0 z M 162,96 l 6,0 0,6 -6,0 z M 186,96 l 6,0 0,6 -6,0 z M 198,96 l 6,0 0,6 -6,0 z M 204,96 l 6,0 0,6 -6,0 z M 210,96 l 6,0 0,6 -6,0 z M 216,96 l 6,0 0,6 -6,0 z M 222,96 l 6,0 0,6 -6,0 z M 240,96 l 6,0 0,6 -6,0 z M 18,102 l 6,0 0,6 -6,0 z M 24,102 l 6,0 0,6 -6,0 z M 36,102 l 6,0 0,6 -6,0 z M 42,102 l 6,0 0,6 -6,0 z M 48,102 l 6,0 0,6 -6,0 z M 60,102 l 6,0 0,6 -6,0 z M 66,102 l 6,0 0,6 -6,0 z M 72,102 l 6,0 0,6 -6,0 z M 78,102 l 6,0 0,6 -6,0 z M 84,102 l 6,0 0,6 -6,0 z M 90,102 l 6,0 0,6 -6,0 z M 108,102 l 6,0 0,6 -6,0 z M 138,102 l 6,0 0,6 -6,0 z M 144,102 l 6,0 0,6 -6,0 z M 156,102 l 6,0 0,6 -6,0 z M 162,102 l 6,0 0,6 -6,0 z M 168,102 l 6,0 0,6 -6,0 z M 174,102 l 6,0 0,6 -6,0 z M 180,102 l 6,0 0,6 -6,0 z M 216,102 l 6,0 0,6 -6,0 z M 234,102 l 6,0 0,6 -6,0 z M 6,108 l 6,0 0,6 -6,0 z M 12,108 l 6,0 0,6 -6,0 z M 18,108 l 6,0 0,6 -6,0 z M 24,108 l 6,0 0,6 -6,0 z M 30,108 l 6,0 0,6 -6,0 z M 36,108 l 6,0 0,6 -6,0 z M 60,108 l 6,0 0,6 -6,0 z M 66,108 l 6,0 0,6 -6,0 z M 72,108 l 6,0 0,6 -6,0 z M 84,108 l 6,0 0,6 -6,0 z M 102,108 l 6,0 0,6 -6,0 z M 108,108 l 6,0 0,6 -6,0 z M 120,108 l 6,0 0,6 -6,0 z M 126,108 l 6,0 0,6 -6,0 z M 132,108 l 6,0 0,6 -6,0 z M 144,108 l 6,0 0,6 -6,0 z M 174,108 l 6,0 0,6 -6,0 z M 186,108 l 6,0 0,6 -6,0 z M 192,108 l 6,0 0,6 -6,0 z M 198,108 l 6,0 0,6 -6,0 z M 210,108 l 6,0 0,6 -6,0 z M 216,108 l 6,0 0,6 -6,0 z M 222,108 l 6,0 0,6 -6,0 z M 240,108 l 6,0 0,6 -6,0 z M 246,108 l 6,0 0,6 -6,0 z M 12,114 l 6,0 0,6 -6,0 z M 36,114 l 6,0 0,6 -6,0 z M 42,114 l 6,0 0,6 -6,0 z M 48,114 l 6,0 0,6 -6,0 z M 66,114 l 6,0 0,6 -6,0 z M 84,114 l 6,0 0,6 -6,0 z M 90,114 l 6,0 0,6 -6,0 z M 96,114 l 6,0 0,6 -6,0 z M 102,114 l 6,0 0,6 -6,0 z M 108,114 l 6,0 0,6 -6,0 z M 126,114 l 6,0 0,6 -6,0 z M 132,114 l 6,0 0,6 -6,0 z M 168,114 l 6,0 0,6 -6,0 z M 174,114 l 6,0 0,6 -6,0 z M 186,114 l 6,0 0,6 -6,0 z M 198,114 l 6,0 0,6 -6,0 z M 216,114 l 6,0 0,6 -6,0 z M 6,120 l 6,0 0,6 -6,0 z M 12,120 l 6,0 0,6 -6,0 z M 18,120 l 6,0 0,6 -6,0 z M 30,120 l 6,0 0,6 -6,0 z M 36,120 l 6,0 0,6 -6,0 z M 48,120 l 6,0 0,6 -6,0 z M 54,120 l 6,0 0,6 -6,0 z M 60,120 l 6,0 0,6 -6,0 z M 66,120 l 6,0 0,6 -6,0 z M 72,120 l 6,0 0,6 -6,0 z M 78,120 l 6,0 0,6 -6,0 z M 84,120 l 6,0 0,6 -6,0 z M 96,120 l 6,0 0,6 -6,0 z M 114,120 l 6,0 0,6 -6,0 z M 120,120 l 6,0 0,6 -6,0 z M 126,120 l 6,0 0,6 -6,0 z M 150,120 l 6,0 0,6 -6,0 z M 156,120 l 6,0 0,6 -6,0 z M 168,120 l 6,0 0,6 -6,0 z M 174,120 l 6,0 0,6 -6,0 z M 186,120 l 6,0 0,6 -6,0 z M 216,120 l 6,0 0,6 -6,0 z M 222,120 l 6,0 0,6 -6,0 z M 6,126 l 6,0 0,6 -6,0 z M 18,126 l 6,0 0,6 -6,0 z M 42,126 l 6,0 0,6 -6,0 z M 66,126 l 6,0 0,6 -6,0 z M 90,126 l 6,0 0,6 -6,0 z M 96,126 l 6,0 0,6 -6,0 z M 102,126 l 6,0 0,6 -6,0 z M 114,126 l 6,0 0,6 -6,0 z M 120,126 l 6,0 0,6 -6,0 z M 132,126 l 6,0 0,6 -6,0 z M 150,126 l 6,0 0,6 -6,0 z M 162,126 l 6,0 0,6 -6,0 z M 186,126 l 6,0 0,6 -6,0 z M 216,126 l 6,0 0,6 -6,0 z M 228,126 l 6,0 0,6 -6,0 z M 234,126 l 6,0 0,6 -6,0 z M 240,126 l 6,0 0,6 -6,0 z M 246,126 l 6,0 0,6 -6,0 z M 12,132 l 6,0 0,6 -6,0 z M 24,132 l 6,0 0,6 -6,0 z M 48,132 l 6,0 0,6 -6,0 z M 54,132 l 6,0 0,6 -6,0 z M 60,132 l 6,0 0,6 -6,0 z M 66,132 l 6,0 0,6 -6,0 z M 78,132 l 6,0 0,6 -6,0 z M 96,132 l 6,0 0,6 -6,0 z M 114,132 l 6,0 0,6 -6,0 z M 120,132 l 6,0 0,6 -6,0 z M 132,132 l 6,0 0,6 -6,0 z M 144,132 l 6,0 0,6 -6,0 z M 150,132 l 6,0 0,6 -6,0 z M 168,132 l 6,0 0,6 -6,0 z M 174,132 l 6,0 0,6 -6,0 z M 192,132 l 6,0 0,6 -6,0 z M 198,132 l 6,0 0,6 -6,0 z M 204,132 l 6,0 0,6 -6,0 z M 210,132 l 6,0 0,6 -6,0 z M 222,132 l 6,0 0,6 -6,0 z M 228,132 l 6,0 0,6 -6,0 z M 234,132 l 6,0 0,6 -6,0 z M 246,132 l 6,0 0,6 -6,0 z M 36,138 l 6,0 0,6 -6,0 z M 42,138 l 6,0 0,6 -6,0 z M 48,138 l 6,0 0,6 -6,0 z M 54,138 l 6,0 0,6 -6,0 z M 60,138 l 6,0 0,6 -6,0 z M 90,138 l 6,0 0,6 -6,0 z M 96,138 l 6,0 0,6 -6,0 z M 102,138 l 6,0 0,6 -6,0 z M 108,138 l 6,0 0,6 -6,0 z M 114,138 l 6,0 0,6 -6,0 z M 132,138 l 6,0 0,6 -6,0 z M 144,138 l 6,0 0,6 -6,0 z M 150,138 l 6,0 0,6 -6,0 z M 156,138 l 6,0 0,6 -6,0 z M 168,138 l 6,0 0,6 -6,0 z M 186,138 l 6,0 0,6 -6,0 z M 198,138 l 6,0 0,6 -6,0 z M 204,138 l 6,0 0,6 -6,0 z M 228,138 l 6,0 0,6 -6,0 z M 234,138 l 6,0 0,6 -6,0 z M 12,144 l 6,0 0,6 -6,0 z M 54,144 l 6,0 0,6 -6,0 z M 66,144 l 6,0 0,6 -6,0 z M 78,144 l 6,0 0,6 -6,0 z M 90,144 l 6,0 0,6 -6,0 z M 96,144 l 6,0 0,6 -6,0 z M 120,144 l 6,0 0,6 -6,0 z M 126,144 l 6,0 0,6 -6,0 z M 132,144 l 6,0 0,6 -6,0 z M 138,144 l 6,0 0,6 -6,0 z M 168,144 l 6,0 0,6 -6,0 z M 174,144 l 6,0 0,6 -6,0 z M 192,144 l 6,0 0,6 -6,0 z M 210,144 l 6,0 0,6 -6,0 z M 222,144 l 6,0 0,6 -6,0 z M 240,144 l 6,0 0,6 -6,0 z M 12,150 l 6,0 0,6 -6,0 z M 18,150 l 6,0 0,6 -6,0 z M 24,150 l 6,0 0,6 -6,0 z M 36,150 l 6,0 0,6 -6,0 z M 42,150 l 6,0 0,6 -6,0 z M 60,150 l 6,0 0,6 -6,0 z M 66,150 l 6,0 0,6 -6,0 z M 78,150 l 6,0 0,6 -6,0 z M 84,150 l 6,0 0,6 -6,0 z M 90,150 l 6,0 0,6 -6,0 z M 96,150 l 6,0 0,6 -6,0 z M 108,150 l 6,0 0,6 -6,0 z M 138,150 l 6,0 0,6 -6,0 z M 144,150 l 6,0 0,6 -6,0 z M 150,150 l 6,0 0,6 -6,0 z M 156,150 l 6,0 0,6 -6,0 z M 162,150 l 6,0 0,6 -6,0 z M 180,150 l 6,0 0,6 -6,0 z M 216,150 l 6,0 0,6 -6,0 z M 228,150 l 6,0 0,6 -6,0 z M 234,150 l 6,0 0,6 -6,0 z M 240,150 l 6,0 0,6 -6,0 z M 246,150 l 6,0 0,6 -6,0 z M 6,156 l 6,0 0,6 -6,0 z M 12,156 l 6,0 0,6 -6,0 z M 24,156 l 6,0 0,6 -6,0 z M 48,156 l 6,0 0,6 -6,0 z M 60,156 l 6,0 0,6 -6,0 z M 72,156 l 6,0 0,6 -6,0 z M 90,156 l 6,0 0,6 -6,0 z M 102,156 l 6,0 0,6 -6,0 z M 114,156 l 6,0 0,6 -6,0 z M 120,156 l 6,0 0,6 -6,0 z M 132,156 l 6,0 0,6 -6,0 z M 138,156 l 6,0 0,6 -6,0 z M 144,156 l 6,0 0,6 -6,0 z M 156,156 l 6,0 0,6 -6,0 z M 174,156 l 6,0 0,6 -6,0 z M 192,156 l 6,0 0,6 -6,0 z M 198,156 l 6,0 0,6 -6,0 z M 204,156 l 6,0 0,6 -6,0 z M 210,156 l 6,0 0,6 -6,0 z M 216,156 l 6,0 0,6 -6,0 z M 222,156 l 6,0 0,6 -6,0 z M 234,156 l 6,0 0,6 -6,0 z M 240,156 l 6,0 0,6 -6,0 z M 246,156 l 6,0 0,6 -6,0 z M 12,162 l 6,0 0,6 -6,0 z M 18,162 l 6,0 0,6 -6,0 z M 30,162 l 6,0 0,6 -6,0 z M 36,162 l 6,0 0,6 -6,0 z M 42,162 l 6,0 0,6 -6,0 z M 48,162 l 6,0 0,6 -6,0 z M 60,162 l 6,0 0,6 -6,0 z M 66,162 l 6,0 0,6 -6,0 z M 96,162 l 6,0 0,6 -6,0 z M 114,162 l 6,0 0,6 -6,0 z M 126,162 l 6,0 0,6 -6,0 z M 132,162 l 6,0 0,6 -6,0 z M 162,162 l 6,0 0,6 -6,0 z M 168,162 l 6,0 0,6 -6,0 z M 180,162 l 6,0 0,6 -6,0 z M 198,162 l 6,0 0,6 -6,0 z M 216,162 l 6,0 0,6 -6,0 z M 234,162 l 6,0 0,6 -6,0 z M 6,168 l 6,0 0,6 -6,0 z M 12,168 l 6,0 0,6 -6,0 z M 18,168 l 6,0 0,6 -6,0 z M 24,168 l 6,0 0,6 -6,0 z M 30,168 l 6,0 0,6 -6,0 z M 36,168 l 6,0 0,6 -6,0 z M 60,168 l 6,0 0,6 -6,0 z M 66,168 l 6,0 0,6 -6,0 z M 78,168 l 6,0 0,6 -6,0 z M 90,168 l 6,0 0,6 -6,0 z M 102,168 l 6,0 0,6 -6,0 z M 114,168 l 6,0 0,6 -6,0 z M 120,168 l 6,0 0,6 -6,0 z M 126,168 l 6,0 0,6 -6,0 z M 132,168 l 6,0 0,6 -6,0 z M 138,168 l 6,0 0,6 -6,0 z M 144,168 l 6,0 0,6 -6,0 z M 156,168 l 6,0 0,6 -6,0 z M 174,168 l 6,0 0,6 -6,0 z M 180,168 l 6,0 0,6 -6,0 z M 186,168 l 6,0 0,6 -6,0 z M 192,168 l 6,0 0,6 -6,0 z M 198,168 l 6,0 0,6 -6,0 z M 216,168 l 6,0 0,6 -6,0 z M 222,168 l 6,0 0,6 -6,0 z M 240,168 l 6,0 0,6 -6,0 z M 24,174 l 6,0 0,6 -6,0 z M 30,174 l 6,0 0,6 -6,0 z M 42,174 l 6,0 0,6 -6,0 z M 48,174 l 6,0 0,6 -6,0 z M 54,174 l 6,0 0,6 -6,0 z M 66,174 l 6,0 0,6 -6,0 z M 72,174 l 6,0 0,6 -6,0 z M 78,174 l 6,0 0,6 -6,0 z M 96,174 l 6,0 0,6 -6,0 z M 114,174 l 6,0 0,6 -6,0 z M 120,174 l 6,0 0,6 -6,0 z M 144,174 l 6,0 0,6 -6,0 z M 150,174 l 6,0 0,6 -6,0 z M 156,174 l 6,0 0,6 -6,0 z M 180,174 l 6,0 0,6 -6,0 z M 198,174 l 6,0 0,6 -6,0 z M 204,174 l 6,0 0,6 -6,0 z M 216,174 l 6,0 0,6 -6,0 z M 234,174 l 6,0 0,6 -6,0 z M 6,180 l 6,0 0,6 -6,0 z M 12,180 l 6,0 0,6 -6,0 z M 18,180 l 6,0 0,6 -6,0 z M 30,180 l 6,0 0,6 -6,0 z M 36,180 l 6,0 0,6 -6,0 z M 60,180 l 6,0 0,6 -6,0 z M 90,180 l 6,0 0,6 -6,0 z M 96,180 l 6,0 0,6 -6,0 z M 102,180 l 6,0 0,6 -6,0 z M 114,180 l 6,0 0,6 -6,0 z M 132,180 l 6,0 0,6 -6,0 z M 144,180 l 6,0 0,6 -6,0 z M 150,180 l 6,0 0,6 -6,0 z M 156,180 l 6,0 0,6 -6,0 z M 192,180 l 6,0 0,6 -6,0 z M 210,180 l 6,0 0,6 -6,0 z M 222,180 l 6,0 0,6 -6,0 z M 240,180 l 6,0 0,6 -6,0 z M 246,180 l 6,0 0,6 -6,0 z M 6,186 l 6,0 0,6 -6,0 z M 24,186 l 6,0 0,6 -6,0 z M 30,186 l 6,0 0,6 -6,0 z M 42,186 l 6,0 0,6 -6,0 z M 48,186 l 6,0 0,6 -6,0 z M 66,186 l 6,0 0,6 -6,0 z M 72,186 l 6,0 0,6 -6,0 z M 78,186 l 6,0 0,6 -6,0 z M 84,186 l 6,0 0,6 -6,0 z M 114,186 l 6,0 0,6 -6,0 z M 120,186 l 6,0 0,6 -6,0 z M 150,186 l 6,0 0,6 -6,0 z M 168,186 l 6,0 0,6 -6,0 z M 180,186 l 6,0 0,6 -6,0 z M 186,186 l 6,0 0,6 -6,0 z M 198,186 l 6,0 0,6 -6,0 z M 204,186 l 6,0 0,6 -6,0 z M 216,186 l 6,0 0,6 -6,0 z M 222,186 l 6,0 0,6 -6,0 z M 228,186 l 6,0 0,6 -6,0 z M 6,192 l 6,0 0,6 -6,0 z M 18,192 l 6,0 0,6 -6,0 z M 30,192 l 6,0 0,6 -6,0 z M 36,192 l 6,0 0,6 -6,0 z M 66,192 l 6,0 0,6 -6,0 z M 72,192 l 6,0 0,6 -6,0 z M 102,192 l 6,0 0,6 -6,0 z M 126,192 l 6,0 0,6 -6,0 z M 132,192 l 6,0 0,6 -6,0 z M 138,192 l 6,0 0,6 -6,0 z M 144,192 l 6,0 0,6 -6,0 z M 162,192 l 6,0 0,6 -6,0 z M 168,192 l 6,0 0,6 -6,0 z M 186,192 l 6,0 0,6 -6,0 z M 192,192 l 6,0 0,6 -6,0 z M 198,192 l 6,0 0,6 -6,0 z M 210,192 l 6,0 0,6 -6,0 z M 222,192 l 6,0 0,6 -6,0 z M 228,192 l 6,0 0,6 -6,0 z M 246,192 l 6,0 0,6 -6,0 z M 6,198 l 6,0 0,6 -6,0 z M 36,198 l 6,0 0,6 -6,0 z M 42,198 l 6,0 0,6 -6,0 z M 48,198 l 6,0 0,6 -6,0 z M 54,198 l 6,0 0,6 -6,0 z M 60,198 l 6,0 0,6 -6,0 z M 66,198 l 6,0 0,6 -6,0 z M 72,198 l 6,0 0,6 -6,0 z M 78,198 l 6,0 0,6 -6,0 z M 84,198 l 6,0 0,6 -6,0 z M 90,198 l 6,0 0,6 -6,0 z M 108,198 l 6,0 0,6 -6,0 z M 120,198 l 6,0 0,6 -6,0 z M 138,198 l 6,0 0,6 -6,0 z M 150,198 l 6,0 0,6 -6,0 z M 156,198 l 6,0 0,6 -6,0 z M 162,198 l 6,0 0,6 -6,0 z M 168,198 l 6,0 0,6 -6,0 z M 180,198 l 6,0 0,6 -6,0 z M 198,198 l 6,0 0,6 -6,0 z M 204,198 l 6,0 0,6 -6,0 z M 210,198 l 6,0 0,6 -6,0 z M 216,198 l 6,0 0,6 -6,0 z M 222,198 l 6,0 0,6 -6,0 z M 234,198 l 6,0 0,6 -6,0 z M 54,204 l 6,0 0,6 -6,0 z M 66,204 l 6,0 0,6 -6,0 z M 72,204 l 6,0 0,6 -6,0 z M 84,204 l 6,0 0,6 -6,0 z M 102,204 l 6,0 0,6 -6,0 z M 108,204 l 6,0 0,6 -6,0 z M 114,204 l 6,0 0,6 -6,0 z M 120,204 l 6,0 0,6 -6,0 z M 126,204 l 6,0 0,6 -6,0 z M 138,204 l 6,0 0,6 -6,0 z M 144,204 l 6,0 0,6 -6,0 z M 150,204 l 6,0 0,6 -6,0 z M 180,204 l 6,0 0,6 -6,0 z M 186,204 l 6,0 0,6 -6,0 z M 192,204 l 6,0 0,6 -6,0 z M 198,204 l 6,0 0,6 -6,0 z M 222,204 l 6,0 0,6 -6,0 z M 228,204 l 6,0 0,6 -6,0 z M 234,204 l 6,0 0,6 -6,0 z M 246,204 l 6,0 0,6 -6,0 z M 6,210 l 6,0 0,6 -6,0 z M 12,210 l 6,0 0,6 -6,0 z M 18,210 l 6,0 0,6 -6,0 z M 24,210 l 6,0 0,6 -6,0 z M 30,210 l 6,0 0,6 -6,0 z M 36,210 l 6,0 0,6 -6,0 z M 42,210 l 6,0 0,6 -6,0 z M 54,210 l 6,0 0,6 -6,0 z M 60,210 l 6,0 0,6 -6,0 z M 66,210 l 6,0 0,6 -6,0 z M 78,210 l 6,0 0,6 -6,0 z M 84,210 l 6,0 0,6 -6,0 z M 90,210 l 6,0 0,6 -6,0 z M 96,210 l 6,0 0,6 -6,0 z M 102,210 l 6,0 0,6 -6,0 z M 108,210 l 6,0 0,6 -6,0 z M 132,210 l 6,0 0,6 -6,0 z M 138,210 l 6,0 0,6 -6,0 z M 156,210 l 6,0 0,6 -6,0 z M 162,210 l 6,0 0,6 -6,0 z M 168,210 l 6,0 0,6 -6,0 z M 174,210 l 6,0 0,6 -6,0 z M 180,210 l 6,0 0,6 -6,0 z M 192,210 l 6,0 0,6 -6,0 z M 198,210 l 6,0 0,6 -6,0 z M 210,210 l 6,0 0,6 -6,0 z M 222,210 l 6,0 0,6 -6,0 z M 228,210 l 6,0 0,6 -6,0 z M 234,210 l 6,0 0,6 -6,0 z M 6,216 l 6,0 0,6 -6,0 z M 42,216 l 6,0 0,6 -6,0 z M 60,216 l 6,0 0,6 -6,0 z M 66,216 l 6,0 0,6 -6,0 z M 72,216 l 6,0 0,6 -6,0 z M 84,216 l 6,0 0,6 -6,0 z M 102,216 l 6,0 0,6 -6,0 z M 108,216 l 6,0 0,6 -6,0 z M 114,216 l 6,0 0,6 -6,0 z M 120,216 l 6,0 0,6 -6,0 z M 168,216 l 6,0 0,6 -6,0 z M 180,216 l 6,0 0,6 -6,0 z M 186,216 l 6,0 0,6 -6,0 z M 192,216 l 6,0 0,6 -6,0 z M 198,216 l 6,0 0,6 -6,0 z M 222,216 l 6,0 0,6 -6,0 z M 6,222 l 6,0 0,6 -6,0 z M 18,222 l 6,0 0,6 -6,0 z M 24,222 l 6,0 0,6 -6,0 z M 30,222 l 6,0 0,6 -6,0 z M 42,222 l 6,0 0,6 -6,0 z M 54,222 l 6,0 0,6 -6,0 z M 60,222 l 6,0 0,6 -6,0 z M 90,222 l 6,0 0,6 -6,0 z M 102,222 l 6,0 0,6 -6,0 z M 132,222 l 6,0 0,6 -6,0 z M 150,222 l 6,0 0,6 -6,0 z M 156,222 l 6,0 0,6 -6,0 z M 168,222 l 6,0 0,6 -6,0 z M 186,222 l 6,0 0,6 -6,0 z M 198,222 l 6,0 0,6 -6,0 z M 204,222 l 6,0 0,6 -6,0 z M 210,222 l 6,0 0,6 -6,0 z M 216,222 l 6,0 0,6 -6,0 z M 222,222 l 6,0 0,6 -6,0 z M 234,222 l 6,0 0,6 -6,0 z M 240,222 l 6,0 0,6 -6,0 z M 6,228 l 6,0 0,6 -6,0 z M 18,228 l 6,0 0,6 -6,0 z M 24,228 l 6,0 0,6 -6,0 z M 30,228 l 6,0 0,6 -6,0 z M 42,228 l 6,0 0,6 -6,0 z M 54,228 l 6,0 0,6 -6,0 z M 60,228 l 6,0 0,6 -6,0 z M 66,228 l 6,0 0,6 -6,0 z M 78,228 l 6,0 0,6 -6,0 z M 84,228 l 6,0 0,6 -6,0 z M 96,228 l 6,0 0,6 -6,0 z M 108,228 l 6,0 0,6 -6,0 z M 114,228 l 6,0 0,6 -6,0 z M 120,228 l 6,0 0,6 -6,0 z M 132,228 l 6,0 0,6 -6,0 z M 144,228 l 6,0 0,6 -6,0 z M 156,228 l 6,0 0,6 -6,0 z M 168,228 l 6,0 0,6 -6,0 z M 180,228 l 6,0 0,6 -6,0 z M 186,228 l 6,0 0,6 -6,0 z M 216,228 l 6,0 0,6 -6,0 z M 6,234 l 6,0 0,6 -6,0 z M 18,234 l 6,0 0,6 -6,0 z M 24,234 l 6,0 0,6 -6,0 z M 30,234 l 6,0 0,6 -6,0 z M 42,234 l 6,0 0,6 -6,0 z M 54,234 l 6,0 0,6 -6,0 z M 60,234 l 6,0 0,6 -6,0 z M 96,234 l 6,0 0,6 -6,0 z M 102,234 l 6,0 0,6 -6,0 z M 132,234 l 6,0 0,6 -6,0 z M 138,234 l 6,0 0,6 -6,0 z M 144,234 l 6,0 0,6 -6,0 z M 150,234 l 6,0 0,6 -6,0 z M 162,234 l 6,0 0,6 -6,0 z M 198,234 l 6,0 0,6 -6,0 z M 204,234 l 6,0 0,6 -6,0 z M 210,234 l 6,0 0,6 -6,0 z M 216,234 l 6,0 0,6 -6,0 z M 222,234 l 6,0 0,6 -6,0 z M 228,234 l 6,0 0,6 -6,0 z M 234,234 l 6,0 0,6 -6,0 z M 6,240 l 6,0 0,6 -6,0 z M 42,240 l 6,0 0,6 -6,0 z M 54,240 l 6,0 0,6 -6,0 z M 78,240 l 6,0 0,6 -6,0 z M 90,240 l 6,0 0,6 -6,0 z M 96,240 l 6,0 0,6 -6,0 z M 114,240 l 6,0 0,6 -6,0 z M 120,240 l 6,0 0,6 -6,0 z M 126,240 l 6,0 0,6 -6,0 z M 132,240 l 6,0 0,6 -6,0 z M 144,240 l 6,0 0,6 -6,0 z M 168,240 l 6,0 0,6 -6,0 z M 192,240 l 6,0 0,6 -6,0 z M 198,240 l 6,0 0,6 -6,0 z M 204,240 l 6,0 0,6 -6,0 z M 216,240 l 6,0 0,6 -6,0 z M 240,240 l 6,0 0,6 -6,0 z M 6,246 l 6,0 0,6 -6,0 z M 12,246 l 6,0 0,6 -6,0 z M 18,246 l 6,0 0,6 -6,0 z M 24,246 l 6,0 0,6 -6,0 z M 30,246 l 6,0 0,6 -6,0 z M 36,246 l 6,0 0,6 -6,0 z M 42,246 l 6,0 0,6 -6,0 z M 54,246 l 6,0 0,6 -6,0 z M 78,246 l 6,0 0,6 -6,0 z M 84,246 l 6,0 0,6 -6,0 z M 90,246 l 6,0 0,6 -6,0 z M 96,246 l 6,0 0,6 -6,0 z M 108,246 l 6,0 0,6 -6,0 z M 126,246 l 6,0 0,6 -6,0 z M 138,246 l 6,0 0,6 -6,0 z M 150,246 l 6,0 0,6 -6,0 z M 156,246 l 6,0 0,6 -6,0 z M 162,246 l 6,0 0,6 -6,0 z M 180,246 l 6,0 0,6 -6,0 z M 204,246 l 6,0 0,6 -6,0 z M 210,246 l 6,0 0,6 -6,0 z M 216,246 l 6,0 0,6 -6,0 z M 228,246 l 6,0 0,6 -6,0 z M 234,246 l 6,0 0,6 -6,0 z " />
	</g>
</svg>
