<!-- Generator: Adobe Illustrator 20.1.0, SVG Export Plug-In  -->
<svg version="1.1"
	 xmlns="http://www.w3.org/2000/svg" xmlns:xlink="http://www.w3.org/1999/xlink" xmlns:a="http://ns.adobe.com/AdobeSVGViewerExtensions/3.0/"
	 x="0px" y="0px" width="31px" height="31.8px" viewBox="0 0 31 31.8" style="overflow:scroll;enable-background:new 0 0 31 31.8;"
	 xml:space="preserve">
<style type="text/css">
	.st0{fill:#FFFFFF;}
	.st1{fill:none;stroke:#898B8D;stroke-width:0.2269;stroke-miterlimit:10;}
	.st2{opacity:0.94;fill:none;stroke:#929497;stroke-width:0.2269;stroke-miterlimit:10;}
</style>
<defs>
</defs>
<path id="XMLID_60_" class="st0" d="M1.7,9.7c0,0-0.7-0.1-0.5-1c0.1-0.8,0.6-0.7,0.8-1s0.5-0.9,1.3-0.9c0,0-0.1-1,0.3-1.4
	s0.8-0.4,1-0.8C4.8,4.3,5,3.9,5.4,3.7s1,0.1,1,0.1S6.6,3.3,7,3c0.4-0.3,0.8,0.1,1.3-0.3c0.4-0.4,1.2-1.2,1.9-1.3
	c0.7-0.1,0.9,0.3,0.9,0.3s0.4-0.4,1.3-0.7c0.9-0.3,1.6-0.5,2-0.2c0,0,0.5-0.5,1-0.6c0.5-0.1,0.7,0.2,1.2,0.2c0.4-0.1,0.9-0.5,1.8,0
	c0,0,0.6-0.4,1.7-0.1c1.1,0.2,1,1,1,1s1.2-0.4,2.3,0.4c1.1,0.8,0.9,1.5,0.9,1.5s1.4,0,2.3,0.8c0.9,0.9,0.8,1.5,0.8,1.5
	s0.8-0.2,1.3,0.4c0.5,0.6,1.1,2.4,1.1,2.9c0,0,0.6-0.2,0.8,0.3c0.2,0.6,0.6,2.1,0.3,3c-0.2,0.9-0.4,0.8-0.4,0.8s0.3,1.2-0.3,1.8
	c-0.6,0.6-1.1,0.7-1.1,0.7s0.7,0.8,0.5,2.2s-1,1.8-1.9,2.3c-0.9,0.5-2.1,1.1-3.4,1.2c-1.3,0.1-4.1-0.9-4.1-0.9s1.2,2.7,1.4,3.3
	c0,0-0.8,0.9-1.6,0.7c-0.8-0.2-1.9-1.9-2.3-2.3c-0.3-0.3-0.6-0.5-0.8-0.9c-0.3-0.5-0.8-0.6-0.9-0.9c-0.1-0.3-0.1-0.4-0.3-0.5
	c-0.2,0-0.8-0.1-0.9-0.2c0,0-0.2,0.6-0.5,0.5c-0.3-0.1-0.6-0.5-1.1-0.3c-0.6,0.2-0.9,0.7-1.8,0.5c-0.9-0.2-2.7-1-2.8-3.1
	c0,0-0.8,0-1-0.2c-0.2-0.1-0.4-0.3-0.8-0.2c-0.4,0.1-1.7,0.9-2.7-0.2c0,0-0.5,0.6-1.1,0.4c-0.6-0.2-0.7-0.7-1.1-0.8
	c-0.4-0.1-2-1.4-1.3-2.9c0,0-0.4,0-0.3-1.1C0.3,10.9,0.7,10.4,1.7,9.7z"/>
<g id="XMLID_57_">
	<path id="XMLID_59_" class="st0" d="M21,30.2C21,30.2,21,30.2,21,30.2c1,0,2.1-1.3,2.4-1.9c0.5-1,0-2-0.6-2.4
		c-0.2-0.1-0.4-0.2-0.6-0.2c-0.4-0.1-0.7-0.2-1.2-0.6c0.2-0.4,0.5-0.7,1-0.7c1,0,1.7,0.9,1.9,1.8c0.3,1.2-0.1,2.3-0.6,2.8
		c0,0,0,0.1,0,0.2c0,0,0.1,0,0.1,0c0,0,0.1,0,0.1,0c0.7-0.8,0.9-1.9,0.6-3c-0.3-1-1-2-2.1-2c0,0-0.1,0-0.1,0c-0.6,0-1,0.4-1.2,0.9
		c0,0,0,0,0,0c-0.1,0.1-0.1,0.3-0.1,0.4c0,0.6,0.3,1,0.9,1.1c0.5,0.1,0.9,0.5,0.9,0.7c0,0.1,0.1,0.1,0.1,0.1c0.1,0,0.1-0.1,0.1-0.1
		c-0.1-0.3-0.6-0.8-1.1-0.9c-0.5-0.1-0.7-0.5-0.7-0.9c0-0.1,0-0.1,0-0.2c0.4,0.4,0.9,0.5,1.2,0.6c0.2,0.1,0.4,0.1,0.5,0.2
		c0.4,0.3,1,1.2,0.5,2.1c-0.1,0.3-0.5,0.8-0.9,1.2c-0.3,0.3-0.8,0.7-1.3,0.6c-0.3,0-0.6-0.2-0.8-0.6c0.2-0.1,0.5-0.4,0.3-0.7
		c-0.3-0.4-0.3-0.7,0.2-0.8c0,0,0.1,0,0.1,0c0,0,0,0,0,0.1c-0.1,0.5,0,1,0.4,1.1c0,0,0.1,0,0.1,0c0.2,0,0.3-0.1,0.4-0.2
		c0.2-0.3,0.3-0.9,0.1-1.3c0,0,0,0-0.1-0.1c-0.2-0.2-0.8,0.1-1.2-0.2c-0.4-0.3-1.4-2.4,0.5-3.4c1.9-1,3.9,1,3.7,3.4
		c-0.2,2.6-1.7,4.2-2.9,4.7c-1.3,0.5-2.3-0.9-1.9-2.3c0,0,0,0,0,0C20.3,29.9,20.6,30.1,21,30.2z"/>
	<path id="XMLID_58_" class="st0" d="M21,30.2C21,30.2,21,30.2,21,30.2c1,0,2.1-1.3,2.4-1.9c0.5-1,0-2-0.6-2.4
		c-0.2-0.1-0.4-0.2-0.6-0.2c-0.4-0.1-0.7-0.2-1.2-0.6c0.2-0.4,0.5-0.7,1-0.7c1,0,1.7,0.9,1.9,1.8c0.3,1.2-0.1,2.3-0.6,2.8
		c0,0,0,0.1,0,0.2c0,0,0.1,0,0.1,0c0,0,0.1,0,0.1,0c0.7-0.8,0.9-1.9,0.6-3c-0.3-1-1-2-2.1-2c0,0-0.1,0-0.1,0c-0.6,0-1,0.4-1.2,0.9
		c0,0,0,0,0,0c-0.1,0.1-0.1,0.3-0.1,0.4c0,0.6,0.3,1,0.9,1.1c0.5,0.1,0.9,0.5,0.9,0.7c0,0.1,0.1,0.1,0.1,0.1c0.1,0,0.1-0.1,0.1-0.1
		c-0.1-0.3-0.6-0.8-1.1-0.9c-0.5-0.1-0.7-0.5-0.7-0.9c0-0.1,0-0.1,0-0.2c0.4,0.4,0.9,0.5,1.2,0.6c0.2,0.1,0.4,0.1,0.5,0.2
		c0.4,0.3,1,1.2,0.5,2.1c-0.1,0.3-0.5,0.8-0.9,1.2c-0.3,0.3-0.8,0.7-1.3,0.6c-0.3,0-0.6-0.2-0.8-0.6c0.2-0.1,0.5-0.4,0.3-0.7
		c-0.3-0.4-0.3-0.7,0.2-0.8c0,0,0.1,0,0.1,0c0,0,0,0,0,0.1c-0.1,0.5,0,1,0.4,1.1c0,0,0.1,0,0.1,0c0.2,0,0.3-0.1,0.4-0.2
		c0.2-0.3,0.3-0.9,0.1-1.3c0,0,0,0-0.1-0.1c-0.2-0.2-0.8,0.1-1.2-0.2c-0.4-0.3-1.4-2.4,0.5-3.4c1.9-1,3.9,1,3.7,3.4
		c-0.2,2.6-1.7,4.2-2.9,4.7c-1.3,0.5-2.3-0.9-1.9-2.3c0,0,0,0,0,0C20.3,29.9,20.6,30.1,21,30.2z"/>
</g>
<path id="XMLID_56_" class="st1" d="M1.7,9.7c0,0,1.3-0.1,1.4-0.6"/>
<path id="XMLID_55_" class="st1" d="M9.1,8.8c0,0,0.3,0.2,0.7-0.2"/>
<path id="XMLID_53_" class="st2" d="M30.4,12.9c-0.1,0-0.9-0.4-1.3,0c-0.4,0.4,0.3,0.8,0.3,0.8"/>
<path id="XMLID_52_" class="st1" d="M18.3,0.3c0,0,0.4,1-0.1,2"/>
<path id="XMLID_51_" class="st1" d="M21,1.2c0,0,0.1,1.1-0.1,1.5"/>
<path id="XMLID_49_" class="st2" d="M20.1,20.2c0,0-0.4-0.2-1.3-0.5"/>
<path id="XMLID_47_" class="st2" d="M1.7,9.7c0,0-0.7-0.1-0.5-1c0.1-0.8,0.6-0.7,0.8-1s0.5-0.9,1.3-0.9c0,0-0.1-1,0.3-1.4
	s0.8-0.4,1-0.8C4.8,4.3,5,3.9,5.4,3.7s1,0.1,1,0.1S6.6,3.3,7,3c0.4-0.3,0.8,0.1,1.3-0.3c0.4-0.4,1.2-1.2,1.9-1.3
	c0.7-0.1,0.9,0.3,0.9,0.3s0.4-0.4,1.3-0.7c0.9-0.3,1.6-0.5,2-0.2c0,0,0.5-0.5,1-0.6c0.5-0.1,0.7,0.2,1.2,0.2c0.4-0.1,0.9-0.5,1.8,0
	c0,0,0.6-0.4,1.7-0.1c1.1,0.2,1,1,1,1s1.2-0.4,2.3,0.4c1.1,0.8,0.9,1.5,0.9,1.5s1.4,0,2.3,0.8c0.9,0.9,0.8,1.5,0.8,1.5
	s0.8-0.2,1.3,0.4c0.5,0.6,1.1,2.4,1.1,2.9c0,0,0.6-0.2,0.8,0.3c0.2,0.6,0.6,2.1,0.3,3c-0.2,0.9-0.4,0.8-0.4,0.8s0.3,1.2-0.3,1.8
	c-0.6,0.6-1.1,0.7-1.1,0.7s0.7,0.8,0.5,2.2s-1,1.8-1.9,2.3c-0.9,0.5-2.1,1.1-3.4,1.2c-1.3,0.1-4.1-0.9-4.1-0.9s1.2,2.7,1.4,3.3
	c0,0-0.8,0.9-1.6,0.7c-0.8-0.2-1.9-1.9-2.3-2.3c-0.3-0.3-0.6-0.5-0.8-0.9c-0.3-0.5-0.8-0.6-0.9-0.9c-0.1-0.3-0.1-0.4-0.3-0.5
	c-0.2,0-0.8-0.1-0.9-0.2c0,0-0.2,0.6-0.5,0.5c-0.3-0.1-0.6-0.5-1.1-0.3c-0.6,0.2-0.9,0.7-1.8,0.5c-0.9-0.2-2.7-1-2.8-3.1
	c0,0-0.8,0-1-0.2c-0.2-0.1-0.4-0.3-0.8-0.2c-0.4,0.1-1.7,0.9-2.7-0.2c0,0-0.5,0.6-1.1,0.4c-0.6-0.2-0.7-0.7-1.1-0.8
	c-0.4-0.1-2-1.4-1.3-2.9c0,0-0.4,0-0.3-1.1C0.3,10.9,0.7,10.4,1.7,9.7z"/>
<path id="XMLID_46_" class="st1" d="M2.5,10.7c2-0.3,2.3-1.9,2.2-2.6C4.6,7.2,3.2,6.8,3.2,6.8"/>
<path id="XMLID_45_" class="st1" d="M4.7,8.1c0,0,0.1-0.6,0.8-0.6"/>
<path id="XMLID_44_" class="st1" d="M0.4,13.1c0,0,0.7,0.1,1.2-0.2c0.4-0.3,1-0.6,1.4-0.1"/>
<path id="XMLID_43_" class="st1" d="M3.9,16.5L3.9,16.5c0.2-0.6-0.1-0.8-0.4-0.9c-0.3-0.2-0.8-0.3-0.8-0.7"/>
<path id="XMLID_41_" class="st2" d="M8.4,17c-0.1-0.6,0.3-1.4,1.5-2c1.2-0.6,3.2-0.6,3.9-0.8c0.7-0.3,1.4-0.6,2.2-0.8
	c0.8-0.2,1.5-0.1,2.5-0.5c1-0.4,1.9-1.2,2.1-1.6c0.2-0.4,0.4-0.7,1-0.6"/>
<path id="XMLID_39_" class="st2" d="M23.2,11.1c0,0,1,1,0.3,2c-0.7,1-1.9,1.8-4.1,2.2c-2.2,0.4-2.8,0.2-3.5,0.6
	c-0.6,0.3-1.5,0.6-2,0.6c-0.6,0.1-1.7,0.5-1.9,1.2c-0.1,0.7,0.7,0.6,0.8,0.2"/>
<path id="XMLID_37_" class="st2" d="M10.7,14.7c0,0,2.6-0.4,3-1.1c0.3-0.7,0.3-1.4,0.2-2.1c-0.1-0.7-0.6-1.2-0.4-2.2
	c0.2-1.1,1.1-1.1,1.3-1.5c0.2-0.5,0.1-1,0.9-1.5"/>
<path id="XMLID_35_" class="st2" d="M13.9,12.7c0,0-0.1,0.7,0.8,0.8c0.9,0.1,2.1-0.5,2.1-1.4c0-0.7-0.3-1.5-0.2-2
	c0.2-0.6,0.4-1.2,1-1.8s-0.4-1.7,1-2.4"/>
<path id="XMLID_34_" class="st1" d="M7.1,5.7c0.5-0.5-0.6-1.9-0.6-1.9s1.3,1.8,2.1,2.1c0.8,0.3,1.3,0,1.4-0.5
	C10,4.9,10,4.1,10.5,3.6C11,3.1,11,2.2,11,2.2"/>
<path id="XMLID_33_" class="st1" d="M14.5,0.8c0,0,0.6,1.3,0,2.1c-0.6,0.8-2.2,1.9-2.5,2.9c-0.3,1,0.6,2,0.6,2"/>
<path id="XMLID_32_" class="st1" d="M12,5.7c0,0,0,1.3-0.6,2.5c-0.4,0.9-0.6,1.7-0.1,2.5c0.4,0.8-0.2,2.2-1.5,1.7"/>
<path id="XMLID_31_" class="st1" d="M7.6,7.8c0,0,0.6,0.9,1.5,1c0,0-0.3,0.9,0.2,1.7c0,0-1.1,1-2,0.8c-0.8-0.2-1.3-0.9-1.3-0.9"/>
<path id="XMLID_30_" class="st1" d="M6.6,11c0,0-0.5,1.3,0.1,2c0.6,0.7,2,0.8,2,2"/>
<path id="XMLID_29_" class="st1" d="M4.6,13.6c0,0-0.2-0.4-1-0.7"/>
<path id="XMLID_28_" class="st1" d="M3.8,12.9c0,0-0.3-1.8,0.7-2.2"/>
<path id="XMLID_27_" class="st1" d="M4,11.1c0,0-0.1-0.3-0.4-0.4"/>
<path id="XMLID_25_" class="st2" d="M14.7,19.4c0-0.1-0.3-0.5-0.1-1.4"/>
<path id="XMLID_23_" class="st2" d="M16,20.1c0,0,0.6,0.6,1.6,0c1.1-0.6,0.5-0.9,0.8-1.3c0.3-0.4,1.9-0.7,2.2-1.3
	c0.3-0.6,0.2-1.3-0.1-1.7"/>
<path id="XMLID_21_" class="st2" d="M21,15.6c0,0-0.3,1.1,0.3,1.4c0.5,0.2,0.9,0,1.3-0.3c0.3-0.3,0.7-0.7,1.2-0.8
	c0.5-0.1,2.5-0.3,2.5-2.2"/>
<path id="XMLID_19_" class="st2" d="M26.7,13.8c0,0-0.8,1.2-0.2,1.6c0.6,0.4,1.6,0.4,2.5,0"/>
<path id="XMLID_17_" class="st2" d="M23.7,4.9c-0.1-0.7,0.4-1.7,0.4-1.7S23.5,4,23,4.1"/>
<path id="XMLID_15_" class="st2" d="M26.3,6.2c0.5,0,1-0.8,1-0.8S26.9,6.3,27,6.7"/>
<path id="XMLID_13_" class="st2" d="M29.6,8.7c-0.5,1.1-1.4,1.9-2.1,2c-0.7,0-1.2-0.5-1.2-1c0-0.3,0.3-1-0.2-1.4c-0.5-0.5-2,0-3-0.6
	c-1-0.7-0.9-2.2-0.9-2.2"/>
<path id="XMLID_11_" class="st2" d="M21.8,5.2c0,0-1.8,0.6-3.2,0c-1.4-0.7-1.4-1.2-1.5-1.7"/>
<path id="XMLID_9_" class="st2" d="M21.9,6.6c-1.1,0.1-1.5,1.5-1.5,1.5S21,6.5,19.6,6"/>
<path id="XMLID_7_" class="st2" d="M21.1,10.6c-0.6,0-0.8-1.2-0.8-1.2s0.1,2.1-0.4,2.5"/>
<path id="XMLID_5_" class="st2" d="M29,9.8c0,0-0.2,0.8,0,1.1c0,0-1.2,0.2-1.6,1.1"/>
<path id="XMLID_3_" class="st2" d="M26.5,10.2c0,0-0.6,0.4-0.6,1c0,0.9,0.5,0.9,0.5,1.8"/>
<path id="XMLID_1_" class="st2" d="M21,17.8c0,0,2.8,0,4.9,0.7"/>
</svg>
