<!-- Generator: Adobe Illustrator 20.1.0, SVG Export Plug-In  -->
<svg version="1.1"
	 xmlns="http://www.w3.org/2000/svg" xmlns:xlink="http://www.w3.org/1999/xlink" xmlns:a="http://ns.adobe.com/AdobeSVGViewerExtensions/3.0/"
	 x="0px" y="0px" width="118.7px" height="17.1px" viewBox="0 0 118.7 17.1"
	 style="overflow:scroll;enable-background:new 0 0 118.7 17.1;" xml:space="preserve">
<style type="text/css">
	.st0{opacity:0.77;fill:url(#XMLID_2_);}
	.st1{fill:#58595B;}
	.st2{opacity:0.77;fill:url(#XMLID_3_);}
</style>
<defs>
</defs>
<linearGradient id="XMLID_2_" gradientUnits="userSpaceOnUse" x1="0" y1="8.5545" x2="118.6599" y2="8.5545">
	<stop  offset="0" style="stop-color:#F9FAFB"/>
	<stop  offset="0.261" style="stop-color:#EEEFEF"/>
	<stop  offset="0.725" style="stop-color:#D1D1D1"/>
	<stop  offset="0.9982" style="stop-color:#BDBCBC"/>
</linearGradient>
<path id="XMLID_1_" class="st0" d="M113.6,17.1H5.1C2.3,17.1,0,14.8,0,12V5.1C0,2.3,2.3,0,5.1,0h108.5c2.8,0,5.1,2.3,5.1,5.1V12
	C118.7,14.8,116.4,17.1,113.6,17.1z"/>
<g>
	<path class="st1" d="M18.7,5c-0.2-0.3-0.4-0.5-0.7-0.7s-0.6-0.4-0.9-0.5c-0.3-0.1-0.7-0.2-1-0.2c-0.6,0-1.2,0.1-1.7,0.4
		c-0.5,0.2-0.8,0.6-1.1,1c-0.3,0.4-0.5,0.9-0.7,1.4s-0.2,1-0.2,1.6c0,0.5,0.1,1,0.2,1.6c0.1,0.5,0.4,1,0.7,1.4
		c0.3,0.4,0.7,0.7,1.1,1c0.5,0.2,1,0.4,1.7,0.4c0.5,0,0.9-0.1,1.2-0.2c0.4-0.2,0.7-0.4,0.9-0.7c0.3-0.3,0.5-0.6,0.6-1
		c0.2-0.4,0.3-0.8,0.3-1.2h0.9c-0.1,0.6-0.2,1.1-0.4,1.6s-0.5,0.9-0.8,1.2c-0.3,0.3-0.8,0.6-1.2,0.8c-0.5,0.2-1,0.3-1.6,0.3
		c-0.8,0-1.4-0.1-2-0.4c-0.6-0.3-1.1-0.6-1.4-1.1s-0.7-1-0.9-1.6c-0.2-0.6-0.3-1.2-0.3-1.9s0.1-1.3,0.3-1.9s0.5-1.1,0.9-1.6
		c0.4-0.5,0.9-0.8,1.4-1.1c0.6-0.3,1.2-0.4,2-0.4c0.5,0,0.9,0.1,1.4,0.2c0.4,0.1,0.8,0.3,1.2,0.6c0.4,0.3,0.7,0.6,0.9,1
		S20,5.5,20.1,6h-0.9C19.1,5.6,18.9,5.3,18.7,5z"/>
	<path class="st1" d="M26.1,5.9c0.4,0.2,0.8,0.5,1,0.8c0.3,0.3,0.5,0.7,0.6,1.2C27.9,8.3,28,8.8,28,9.3s-0.1,1-0.2,1.4
		c-0.1,0.4-0.4,0.8-0.6,1.2c-0.3,0.3-0.6,0.6-1,0.8c-0.4,0.2-0.9,0.3-1.4,0.3s-1-0.1-1.4-0.3c-0.4-0.2-0.8-0.5-1-0.8
		c-0.3-0.3-0.5-0.7-0.6-1.2c-0.1-0.4-0.2-0.9-0.2-1.4s0.1-1,0.2-1.4c0.1-0.4,0.4-0.8,0.6-1.2c0.3-0.3,0.6-0.6,1-0.8
		c0.4-0.2,0.9-0.3,1.4-0.3S25.7,5.7,26.1,5.9z M23.6,6.6c-0.3,0.2-0.6,0.4-0.8,0.7c-0.2,0.3-0.4,0.6-0.5,1c-0.1,0.4-0.2,0.7-0.2,1.1
		c0,0.4,0.1,0.7,0.2,1.1s0.3,0.7,0.5,1s0.5,0.5,0.8,0.7c0.3,0.2,0.7,0.3,1.1,0.3s0.8-0.1,1.1-0.3c0.3-0.2,0.6-0.4,0.8-0.7
		s0.4-0.6,0.5-1s0.2-0.7,0.2-1.1c0-0.4-0.1-0.7-0.2-1.1c-0.1-0.4-0.3-0.7-0.5-1c-0.2-0.3-0.5-0.5-0.8-0.7c-0.3-0.2-0.7-0.3-1.1-0.3
		S23.9,6.4,23.6,6.6z"/>
	<path class="st1" d="M30.3,5.8v1.6h0c0.2-0.6,0.6-1,1-1.3c0.5-0.3,1-0.4,1.6-0.4v0.9c-0.4,0-0.7,0-1.1,0.2
		c-0.3,0.1-0.6,0.3-0.8,0.5c-0.2,0.2-0.4,0.5-0.5,0.8s-0.2,0.7-0.2,1v3.7h-0.9v-7H30.3z"/>
	<path class="st1" d="M36.9,5.8v0.7h-1.4v4.7c0,0.3,0,0.5,0.1,0.7c0.1,0.2,0.3,0.2,0.6,0.3c0.2,0,0.5,0,0.7,0v0.7
		c-0.1,0-0.3,0-0.4,0c-0.1,0-0.3,0-0.4,0c-0.6,0-1-0.1-1.2-0.3c-0.2-0.2-0.3-0.6-0.3-1.2V6.5h-1.2V5.8h1.2V3.7h0.9v2.1H36.9z"/>
	<path class="st1" d="M39,10.5c0.1,0.3,0.2,0.6,0.4,0.9c0.2,0.3,0.4,0.5,0.7,0.7c0.3,0.2,0.6,0.3,1,0.3c0.6,0,1.1-0.2,1.5-0.5
		c0.4-0.3,0.6-0.8,0.7-1.3h0.9c-0.2,0.8-0.5,1.4-1,1.8c-0.5,0.4-1.2,0.7-2.1,0.7c-0.6,0-1-0.1-1.4-0.3c-0.4-0.2-0.7-0.5-1-0.8
		c-0.3-0.3-0.4-0.7-0.6-1.2c-0.1-0.4-0.2-0.9-0.2-1.4c0-0.5,0.1-0.9,0.2-1.4c0.1-0.4,0.3-0.8,0.6-1.2c0.3-0.3,0.6-0.6,1-0.8
		c0.4-0.2,0.9-0.3,1.4-0.3c0.6,0,1,0.1,1.4,0.3c0.4,0.2,0.7,0.5,1,0.9s0.4,0.8,0.5,1.3c0.1,0.5,0.2,1,0.1,1.4h-5.4
		C38.9,9.8,39,10.1,39,10.5z M43.3,7.9c-0.1-0.3-0.3-0.6-0.4-0.8s-0.4-0.4-0.7-0.6s-0.6-0.2-0.9-0.2c-0.4,0-0.7,0.1-0.9,0.2
		c-0.3,0.1-0.5,0.3-0.7,0.6s-0.3,0.5-0.5,0.8s-0.2,0.6-0.2,0.9h4.5C43.4,8.5,43.4,8.2,43.3,7.9z"/>
	<path class="st1" d="M51,12.1v0.7h-5.9v-0.7l4.6-5.6h-4.3V5.8h5.4v0.6l-4.6,5.7H51z"/>
	<path class="st1" d="M52.5,6.9c0.1-0.3,0.3-0.5,0.6-0.7c0.2-0.2,0.5-0.3,0.9-0.4c0.3-0.1,0.7-0.1,1.1-0.1c0.3,0,0.6,0,0.9,0.1
		c0.3,0.1,0.6,0.2,0.8,0.3s0.4,0.4,0.6,0.7c0.2,0.3,0.2,0.7,0.2,1.1v3.7c0,0.3,0.2,0.5,0.5,0.5c0.1,0,0.2,0,0.3-0.1v0.7
		c-0.1,0-0.2,0-0.3,0s-0.2,0-0.3,0c-0.2,0-0.4,0-0.5-0.1c-0.1-0.1-0.2-0.1-0.3-0.3c-0.1-0.1-0.1-0.2-0.1-0.4c0-0.1,0-0.3,0-0.5h0
		c-0.2,0.2-0.3,0.4-0.5,0.6c-0.2,0.2-0.3,0.3-0.5,0.4s-0.4,0.2-0.7,0.3C54.9,13,54.6,13,54.3,13c-0.3,0-0.6,0-0.9-0.1
		c-0.3-0.1-0.5-0.2-0.7-0.4c-0.2-0.2-0.4-0.4-0.5-0.6c-0.1-0.3-0.2-0.6-0.2-0.9c0-0.5,0.1-0.9,0.3-1.1s0.5-0.5,0.9-0.6
		c0.4-0.1,0.8-0.2,1.2-0.3c0.4-0.1,0.9-0.1,1.4-0.2c0.2,0,0.3,0,0.5-0.1c0.1,0,0.3-0.1,0.3-0.1c0.1-0.1,0.2-0.2,0.2-0.3
		c0-0.1,0.1-0.3,0.1-0.5c0-0.3,0-0.5-0.1-0.7c-0.1-0.2-0.2-0.3-0.4-0.4c-0.2-0.1-0.4-0.2-0.6-0.2c-0.2,0-0.5-0.1-0.7-0.1
		c-0.5,0-1,0.1-1.3,0.4c-0.3,0.3-0.5,0.7-0.5,1.2h-0.9C52.3,7.5,52.3,7.2,52.5,6.9z M56.8,9c-0.1,0.1-0.2,0.2-0.3,0.2
		c-0.2,0-0.3,0.1-0.4,0.1c-0.4,0.1-0.7,0.1-1.1,0.2c-0.4,0-0.7,0.1-1.1,0.2c-0.3,0.1-0.6,0.2-0.8,0.4c-0.2,0.2-0.3,0.5-0.3,0.8
		c0,0.2,0,0.4,0.1,0.6c0.1,0.2,0.2,0.3,0.3,0.4c0.1,0.1,0.3,0.2,0.5,0.3s0.4,0.1,0.6,0.1c0.3,0,0.6,0,0.9-0.1
		c0.3-0.1,0.6-0.2,0.8-0.4c0.2-0.2,0.4-0.4,0.5-0.7c0.1-0.3,0.2-0.6,0.2-0.9L56.8,9L56.8,9z"/>
	<path class="st1" d="M63.9,6.9c0.1-0.3,0.3-0.5,0.6-0.7c0.2-0.2,0.5-0.3,0.9-0.4c0.3-0.1,0.7-0.1,1.1-0.1c0.3,0,0.6,0,0.9,0.1
		C67.7,5.7,68,5.8,68.2,6s0.4,0.4,0.6,0.7C69,7,69,7.4,69,7.8v3.7c0,0.3,0.2,0.5,0.5,0.5c0.1,0,0.2,0,0.3-0.1v0.7
		c-0.1,0-0.2,0-0.3,0s-0.2,0-0.3,0c-0.2,0-0.4,0-0.5-0.1c-0.1-0.1-0.2-0.1-0.3-0.3c-0.1-0.1-0.1-0.2-0.1-0.4c0-0.1,0-0.3,0-0.5h0
		c-0.2,0.2-0.3,0.4-0.5,0.6c-0.2,0.2-0.3,0.3-0.5,0.4s-0.4,0.2-0.7,0.3C66.3,13,66,13,65.7,13c-0.3,0-0.6,0-0.9-0.1
		c-0.3-0.1-0.5-0.2-0.7-0.4c-0.2-0.2-0.4-0.4-0.5-0.6c-0.1-0.3-0.2-0.6-0.2-0.9c0-0.5,0.1-0.9,0.3-1.1s0.5-0.5,0.9-0.6
		c0.4-0.1,0.8-0.2,1.2-0.3c0.4-0.1,0.9-0.1,1.4-0.2c0.2,0,0.3,0,0.5-0.1c0.1,0,0.3-0.1,0.3-0.1c0.1-0.1,0.2-0.2,0.2-0.3
		c0-0.1,0.1-0.3,0.1-0.5c0-0.3,0-0.5-0.1-0.7c-0.1-0.2-0.2-0.3-0.4-0.4c-0.2-0.1-0.4-0.2-0.6-0.2c-0.2,0-0.5-0.1-0.7-0.1
		c-0.5,0-1,0.1-1.3,0.4c-0.3,0.3-0.5,0.7-0.5,1.2h-0.9C63.6,7.5,63.7,7.2,63.9,6.9z M68.2,9c-0.1,0.1-0.2,0.2-0.3,0.2
		c-0.2,0-0.3,0.1-0.4,0.1c-0.4,0.1-0.7,0.1-1.1,0.2c-0.4,0-0.7,0.1-1.1,0.2c-0.3,0.1-0.6,0.2-0.8,0.4c-0.2,0.2-0.3,0.5-0.3,0.8
		c0,0.2,0,0.4,0.1,0.6c0.1,0.2,0.2,0.3,0.3,0.4c0.1,0.1,0.3,0.2,0.5,0.3s0.4,0.1,0.6,0.1c0.3,0,0.6,0,0.9-0.1
		c0.3-0.1,0.6-0.2,0.8-0.4c0.2-0.2,0.4-0.4,0.5-0.7c0.1-0.3,0.2-0.6,0.2-0.9L68.2,9L68.2,9z"/>
	<path class="st1" d="M76.4,12.8v-1.3h0c-0.1,0.2-0.2,0.4-0.4,0.6c-0.2,0.2-0.4,0.4-0.6,0.5c-0.2,0.1-0.5,0.2-0.7,0.3
		c-0.3,0.1-0.5,0.1-0.8,0.1c-0.5,0-1-0.1-1.4-0.3c-0.4-0.2-0.7-0.5-1-0.8s-0.5-0.7-0.6-1.2s-0.2-0.9-0.2-1.4c0-0.5,0.1-1,0.2-1.4
		s0.3-0.8,0.6-1.2s0.6-0.6,1-0.8c0.4-0.2,0.9-0.3,1.4-0.3c0.3,0,0.5,0,0.8,0.1c0.2,0.1,0.5,0.2,0.7,0.3c0.2,0.1,0.4,0.3,0.6,0.5
		s0.3,0.4,0.4,0.7h0v-4h0.9v9.7H76.4z M71.7,10.4c0.1,0.4,0.2,0.7,0.4,1c0.2,0.3,0.4,0.5,0.7,0.7s0.6,0.3,1,0.3
		c0.5,0,0.8-0.1,1.1-0.3c0.3-0.2,0.6-0.4,0.8-0.7c0.2-0.3,0.3-0.6,0.4-1s0.1-0.7,0.1-1.1c0-0.4,0-0.7-0.1-1.1s-0.2-0.7-0.4-1
		C75.6,7,75.3,6.7,75,6.6c-0.3-0.2-0.7-0.3-1.1-0.3c-0.4,0-0.8,0.1-1,0.3S72.3,7,72.1,7.2c-0.2,0.3-0.3,0.6-0.4,1s-0.1,0.7-0.1,1.1
		C71.6,9.6,71.6,10,71.7,10.4z"/>
	<path class="st1" d="M79.9,5.8v1.6h0c0.2-0.6,0.6-1,1-1.3c0.5-0.3,1-0.4,1.6-0.4v0.9c-0.4,0-0.7,0-1.1,0.2
		c-0.3,0.1-0.6,0.3-0.8,0.5c-0.2,0.2-0.4,0.5-0.5,0.8S80,8.7,80,9.1v3.7h-0.9v-7H79.9z"/>
	<path class="st1" d="M84.3,10.5c0.1,0.3,0.2,0.6,0.4,0.9c0.2,0.3,0.4,0.5,0.7,0.7c0.3,0.2,0.6,0.3,1,0.3c0.6,0,1.1-0.2,1.5-0.5
		c0.4-0.3,0.6-0.8,0.7-1.3h0.9c-0.2,0.8-0.5,1.4-1,1.8c-0.5,0.4-1.2,0.7-2.1,0.7c-0.6,0-1-0.1-1.4-0.3c-0.4-0.2-0.7-0.5-1-0.8
		c-0.3-0.3-0.4-0.7-0.6-1.2c-0.1-0.4-0.2-0.9-0.2-1.4c0-0.5,0.1-0.9,0.2-1.4c0.1-0.4,0.3-0.8,0.6-1.2c0.3-0.3,0.6-0.6,1-0.8
		c0.4-0.2,0.9-0.3,1.4-0.3c0.6,0,1,0.1,1.4,0.3c0.4,0.2,0.7,0.5,1,0.9s0.4,0.8,0.5,1.3c0.1,0.5,0.2,1,0.1,1.4h-5.4
		C84.2,9.8,84.2,10.1,84.3,10.5z M88.5,7.9c-0.1-0.3-0.3-0.6-0.4-0.8s-0.4-0.4-0.7-0.6s-0.6-0.2-0.9-0.2c-0.4,0-0.7,0.1-0.9,0.2
		c-0.3,0.1-0.5,0.3-0.7,0.6s-0.3,0.5-0.5,0.8s-0.2,0.6-0.2,0.9h4.5C88.7,8.5,88.6,8.2,88.5,7.9z"/>
	<path class="st1" d="M91.8,5.8V7h0c0.2-0.4,0.5-0.8,0.9-1c0.4-0.3,0.9-0.4,1.4-0.4c0.5,0,0.9,0.1,1.2,0.2s0.6,0.3,0.8,0.5
		c0.2,0.2,0.3,0.5,0.4,0.9c0.1,0.3,0.1,0.7,0.1,1.1v4.5h-0.9V8.4c0-0.3,0-0.6-0.1-0.8c-0.1-0.3-0.2-0.5-0.3-0.7s-0.3-0.3-0.6-0.4
		c-0.2-0.1-0.5-0.2-0.9-0.2c-0.3,0-0.7,0.1-0.9,0.2c-0.3,0.1-0.5,0.3-0.7,0.5S92.1,7.4,92,7.7c-0.1,0.3-0.2,0.6-0.2,1v4.1H91v-7
		H91.8z"/>
	<path class="st1" d="M98.7,6.9c0.1-0.3,0.3-0.5,0.6-0.7c0.2-0.2,0.5-0.3,0.9-0.4c0.3-0.1,0.7-0.1,1.1-0.1c0.3,0,0.6,0,0.9,0.1
		c0.3,0.1,0.6,0.2,0.8,0.3s0.4,0.4,0.6,0.7c0.2,0.3,0.2,0.7,0.2,1.1v3.7c0,0.3,0.2,0.5,0.5,0.5c0.1,0,0.2,0,0.3-0.1v0.7
		c-0.1,0-0.2,0-0.3,0s-0.2,0-0.3,0c-0.2,0-0.4,0-0.5-0.1c-0.1-0.1-0.2-0.1-0.3-0.3c-0.1-0.1-0.1-0.2-0.1-0.4c0-0.1,0-0.3,0-0.5h0
		c-0.2,0.2-0.3,0.4-0.5,0.6c-0.2,0.2-0.3,0.3-0.5,0.4s-0.4,0.2-0.7,0.3c-0.3,0.1-0.5,0.1-0.9,0.1c-0.3,0-0.6,0-0.9-0.1
		c-0.3-0.1-0.5-0.2-0.7-0.4c-0.2-0.2-0.4-0.4-0.5-0.6c-0.1-0.3-0.2-0.6-0.2-0.9c0-0.5,0.1-0.9,0.3-1.1s0.5-0.5,0.9-0.6
		c0.4-0.1,0.8-0.2,1.2-0.3c0.4-0.1,0.9-0.1,1.4-0.2c0.2,0,0.3,0,0.5-0.1c0.1,0,0.3-0.1,0.3-0.1c0.1-0.1,0.2-0.2,0.2-0.3
		c0-0.1,0.1-0.3,0.1-0.5c0-0.3,0-0.5-0.1-0.7c-0.1-0.2-0.2-0.3-0.4-0.4c-0.2-0.1-0.4-0.2-0.6-0.2c-0.2,0-0.5-0.1-0.7-0.1
		c-0.5,0-1,0.1-1.3,0.4c-0.3,0.3-0.5,0.7-0.5,1.2h-0.9C98.5,7.5,98.6,7.2,98.7,6.9z M103,9c-0.1,0.1-0.2,0.2-0.3,0.2
		c-0.2,0-0.3,0.1-0.4,0.1c-0.4,0.1-0.7,0.1-1.1,0.2c-0.4,0-0.7,0.1-1.1,0.2c-0.3,0.1-0.6,0.2-0.8,0.4c-0.2,0.2-0.3,0.5-0.3,0.8
		c0,0.2,0,0.4,0.1,0.6c0.1,0.2,0.2,0.3,0.3,0.4c0.1,0.1,0.3,0.2,0.5,0.3s0.4,0.1,0.6,0.1c0.3,0,0.6,0,0.9-0.1
		c0.3-0.1,0.6-0.2,0.8-0.4c0.2-0.2,0.4-0.4,0.5-0.7c0.1-0.3,0.2-0.6,0.2-0.9L103,9L103,9z"/>
	<path class="st1" d="M106.8,3.1v9.7h-0.9V3.1H106.8z"/>
</g>
</svg>
