<!-- Generator: Adobe Illustrator 20.1.0, SVG Export Plug-In  -->
<svg version="1.1"
	 xmlns="http://www.w3.org/2000/svg" xmlns:xlink="http://www.w3.org/1999/xlink" xmlns:a="http://ns.adobe.com/AdobeSVGViewerExtensions/3.0/"
	 x="0px" y="0px" width="33.2px" height="11.6px" viewBox="0 0 33.2 11.6"
	 style="overflow:scroll;enable-background:new 0 0 33.2 11.6;" xml:space="preserve">
<style type="text/css">
	.st0{fill:#58595B;}
</style>
<defs>
</defs>
<g>
	<path class="st0" d="M7.9,4c0-0.3-0.1-0.5-0.3-0.8C7.5,3,7.3,2.8,7.1,2.6C6.8,2.4,6.6,2.3,6.3,2.2C6,2.1,5.8,2.1,5.5,2.1
		c-0.5,0-1,0.1-1.4,0.3C3.7,2.6,3.4,2.9,3.1,3.2S2.7,4,2.6,4.4C2.5,4.9,2.4,5.4,2.4,5.9c0,0.5,0.1,0.9,0.2,1.4
		c0.1,0.4,0.3,0.8,0.5,1.2C3.4,8.8,3.7,9,4.1,9.3c0.4,0.2,0.9,0.3,1.4,0.3c0.7,0,1.3-0.2,1.7-0.7C7.6,8.4,7.9,7.8,8,7.1h2.4
		C10.3,7.8,10.1,8.4,9.9,9s-0.6,1-1,1.4c-0.4,0.4-0.9,0.7-1.5,0.9c-0.6,0.2-1.2,0.3-1.9,0.3c-0.9,0-1.6-0.2-2.3-0.5
		s-1.2-0.7-1.7-1.2C1,9.4,0.6,8.8,0.4,8.1C0.1,7.4,0,6.7,0,5.9C0,5,0.1,4.3,0.4,3.6C0.6,2.8,1,2.2,1.4,1.7c0.5-0.5,1-0.9,1.7-1.2
		C3.8,0.2,4.6,0,5.5,0c0.6,0,1.2,0.1,1.7,0.3s1,0.4,1.5,0.8c0.4,0.3,0.8,0.8,1.1,1.3C10,2.8,10.2,3.4,10.2,4H7.9z"/>
	<path class="st0" d="M12.3,0.3h6c0.5,0,0.9,0.1,1.3,0.2c0.4,0.2,0.7,0.4,1,0.7c0.3,0.3,0.5,0.6,0.7,1s0.2,0.8,0.2,1.2
		c0,0.7-0.1,1.2-0.4,1.7s-0.7,0.8-1.3,1.1v0c0.3,0.1,0.5,0.2,0.7,0.4c0.2,0.2,0.4,0.4,0.5,0.6c0.1,0.2,0.2,0.5,0.3,0.8
		c0.1,0.3,0.1,0.6,0.1,0.8c0,0.2,0,0.4,0,0.6c0,0.2,0,0.5,0.1,0.7c0,0.2,0.1,0.5,0.1,0.7s0.1,0.4,0.3,0.6h-2.4
		c-0.1-0.2-0.1-0.4-0.2-0.6c0-0.2-0.1-0.4-0.1-0.7c0-0.2,0-0.5-0.1-0.7c0-0.2,0-0.5-0.1-0.7c-0.1-0.6-0.3-1-0.5-1.3
		C18.2,7.2,17.8,7,17.2,7h-2.4v4.3h-2.4V0.3z M14.8,5.3h2.7c0.5,0,1-0.1,1.3-0.4s0.4-0.7,0.4-1.2c0-0.5-0.1-0.9-0.4-1.2
		c-0.3-0.2-0.7-0.4-1.3-0.4h-2.7V5.3z"/>
	<path class="st0" d="M23.8,0.3h2.4v4.3h4.5V0.3h2.4v11.1h-2.4V6.6h-4.5v4.8h-2.4V0.3z"/>
</g>
</svg>
