<!-- Generator: Adobe Illustrator 20.1.0, SVG Export Plug-In  -->
<svg version="1.1"
	 xmlns="http://www.w3.org/2000/svg" xmlns:xlink="http://www.w3.org/1999/xlink" xmlns:a="http://ns.adobe.com/AdobeSVGViewerExtensions/3.0/"
	 x="0px" y="0px" width="32.9px" height="26.8px" viewBox="0 0 32.9 26.8"
	 style="overflow:scroll;enable-background:new 0 0 32.9 26.8;" xml:space="preserve">
<style type="text/css">
	.st0{opacity:0.8;fill:url(#XMLID_4_);}
	.st1{opacity:0.8;fill:url(#XMLID_5_);}
	.st2{opacity:0.8;fill:url(#XMLID_6_);}
	.st3{opacity:0.8;fill:url(#XMLID_7_);}
</style>
<defs>
</defs>
<g id="XMLID_1_">
	
		<linearGradient id="XMLID_4_" gradientUnits="userSpaceOnUse" x1="1328.4" y1="49.4054" x2="1361.2742" y2="49.4054" gradientTransform="matrix(-1 0 0 1 1361.2742 -36)">
		<stop  offset="0.1678" style="stop-color:#F18A21"/>
		<stop  offset="1" style="stop-color:#F05A28"/>
	</linearGradient>
	<path id="XMLID_3_" class="st0" d="M32.7,1c0.5-1,0.1-1.3-0.7-0.6L18.2,11.7c-0.9,0.7-2.3,0.7-3.2,0L1,0.4C0.1-0.3-0.3,0,0.2,1
		L15.6,26c0.5,1,1.2,1,1.7,0L32.7,1z"/>
	
		<linearGradient id="XMLID_5_" gradientUnits="userSpaceOnUse" x1="1331.6874" y1="51.3486" x2="1357.9868" y2="51.3486" gradientTransform="matrix(-1 0 0 1 1361.2742 -36)">
		<stop  offset="0.1678" style="stop-color:#F18A21"/>
		<stop  offset="1" style="stop-color:#F05A28"/>
	</linearGradient>
	<path id="XMLID_2_" class="st1" d="M29.4,5.4c0.4-0.8,0.1-1-0.6-0.4l-11,9c-0.7,0.6-1.8,0.6-2.5,0L4.1,4.9c-0.7-0.6-1-0.4-0.6,0.5
		l12.3,20.1c0.4,0.8,1,0.8,1.4,0L29.4,5.4z"/>
</g>
</svg>
