<!-- Generator: Adobe Illustrator 20.1.0, SVG Export Plug-In  -->
<svg version="1.1"
	 xmlns="http://www.w3.org/2000/svg" xmlns:xlink="http://www.w3.org/1999/xlink" xmlns:a="http://ns.adobe.com/AdobeSVGViewerExtensions/3.0/"
	 x="0px" y="0px" width="118.7px" height="17.1px" viewBox="0 0 118.7 17.1"
	 style="overflow:scroll;enable-background:new 0 0 118.7 17.1;" xml:space="preserve">
<style type="text/css">
	.st0{opacity:0.77;fill:url(#XMLID_2_);}
	.st1{fill:#58595B;}
	.st2{opacity:0.77;fill:url(#XMLID_3_);}
</style>
<defs>
</defs>
<linearGradient id="XMLID_2_" gradientUnits="userSpaceOnUse" x1="0" y1="8.5545" x2="118.6599" y2="8.5545">
	<stop  offset="0" style="stop-color:#F9FAFB"/>
	<stop  offset="0.261" style="stop-color:#EEEFEF"/>
	<stop  offset="0.725" style="stop-color:#D1D1D1"/>
	<stop  offset="0.9982" style="stop-color:#BDBCBC"/>
</linearGradient>
<path id="XMLID_1_" class="st0" d="M114.1,17.1H4.6c-2.5,0-4.6-2.1-4.6-4.6V4.6C0,2.1,2.1,0,4.6,0h109.5c2.5,0,4.6,2.1,4.6,4.6v7.9
	C118.7,15.1,116.6,17.1,114.1,17.1z"/>
<g>
	<path class="st1" d="M35.6,2.9v4.2h5.8V2.9h0.9v9.7h-0.9V7.9h-5.8v4.7h-0.9V2.9H35.6z"/>
	<path class="st1" d="M45.2,2.9v1.4h-0.9V2.9H45.2z M45.2,5.6v7h-0.9v-7H45.2z"/>
	<path class="st1" d="M47.9,5.6v1.3h0c0.2-0.5,0.5-0.9,1-1.1c0.4-0.3,1-0.4,1.5-0.4c0.5,0,1,0.1,1.4,0.3c0.4,0.2,0.7,0.5,1,0.8
		c0.3,0.3,0.5,0.7,0.6,1.2c0.1,0.4,0.2,0.9,0.2,1.4c0,0.5-0.1,1-0.2,1.4c-0.1,0.4-0.3,0.8-0.6,1.2c-0.3,0.3-0.6,0.6-1,0.8
		s-0.9,0.3-1.4,0.3c-0.3,0-0.5,0-0.8-0.1s-0.5-0.2-0.7-0.3s-0.4-0.3-0.6-0.5s-0.3-0.4-0.4-0.7h0v3.9h-0.9V5.6H47.9z M52.6,8
		c-0.1-0.4-0.2-0.7-0.4-1c-0.2-0.3-0.4-0.5-0.7-0.7c-0.3-0.2-0.6-0.3-1-0.3c-0.5,0-0.9,0.1-1.2,0.2S48.7,6.7,48.5,7s-0.3,0.6-0.4,1
		C48,8.3,48,8.7,48,9.1c0,0.4,0,0.7,0.1,1.1c0.1,0.4,0.2,0.7,0.4,1c0.2,0.3,0.4,0.5,0.8,0.7c0.3,0.2,0.7,0.3,1.1,0.3
		c0.4,0,0.8-0.1,1-0.3c0.3-0.2,0.5-0.4,0.7-0.7c0.2-0.3,0.3-0.6,0.4-1c0.1-0.4,0.1-0.7,0.1-1.1S52.7,8.4,52.6,8z"/>
	<path class="st1" d="M59.6,5.7c0.4,0.2,0.8,0.5,1,0.8s0.5,0.7,0.6,1.2c0.1,0.4,0.2,0.9,0.2,1.4s-0.1,1-0.2,1.4
		c-0.1,0.4-0.4,0.8-0.6,1.2c-0.3,0.3-0.6,0.6-1,0.8c-0.4,0.2-0.9,0.3-1.4,0.3s-1-0.1-1.4-0.3c-0.4-0.2-0.8-0.5-1-0.8
		c-0.3-0.3-0.5-0.7-0.6-1.2c-0.1-0.4-0.2-0.9-0.2-1.4s0.1-1,0.2-1.4c0.1-0.4,0.4-0.8,0.6-1.2s0.6-0.6,1-0.8c0.4-0.2,0.9-0.3,1.4-0.3
		S59.2,5.5,59.6,5.7z M57.1,6.4c-0.3,0.2-0.6,0.4-0.8,0.7S56,7.7,55.9,8c-0.1,0.4-0.2,0.7-0.2,1.1c0,0.4,0.1,0.7,0.2,1.1
		c0.1,0.4,0.3,0.7,0.5,1c0.2,0.3,0.5,0.5,0.8,0.7c0.3,0.2,0.7,0.3,1.1,0.3s0.8-0.1,1.1-0.3c0.3-0.2,0.6-0.4,0.8-0.7
		c0.2-0.3,0.4-0.6,0.5-1c0.1-0.4,0.2-0.7,0.2-1.1c0-0.4-0.1-0.7-0.2-1.1c-0.1-0.4-0.3-0.7-0.5-1s-0.5-0.5-0.8-0.7
		c-0.3-0.2-0.7-0.3-1.1-0.3S57.4,6.2,57.1,6.4z M57.4,4.6l1.4-1.9h1.1l-1.8,1.9H57.4z"/>
	<path class="st1" d="M64.4,6.3v6.3h-0.9V6.3h-1.2V5.6h1.2V5c0-0.3,0-0.6,0.1-0.8c0-0.3,0.1-0.5,0.3-0.7c0.1-0.2,0.3-0.3,0.5-0.4
		c0.2-0.1,0.5-0.1,0.8-0.1c0.1,0,0.2,0,0.4,0c0.1,0,0.2,0,0.4,0v0.7c-0.1,0-0.2,0-0.3,0c-0.1,0-0.2,0-0.3,0c-0.2,0-0.4,0-0.5,0.1
		S64.5,3.9,64.5,4c-0.1,0.1-0.1,0.3-0.1,0.4c0,0.2,0,0.3,0,0.5v0.6h1.4v0.7H64.4z"/>
	<path class="st1" d="M67.7,2.9v1.4h-0.9V2.9H67.7z M67.7,5.6v7h-0.9v-7H67.7z"/>
	<path class="st1" d="M73.7,7c-0.1-0.2-0.2-0.4-0.4-0.5c-0.2-0.1-0.4-0.2-0.6-0.3c-0.2-0.1-0.4-0.1-0.7-0.1c-0.2,0-0.4,0-0.6,0.1
		c-0.2,0-0.4,0.1-0.5,0.2s-0.3,0.2-0.4,0.4s-0.1,0.3-0.1,0.6c0,0.2,0,0.4,0.1,0.5c0.1,0.1,0.2,0.2,0.4,0.3c0.1,0.1,0.3,0.2,0.5,0.2
		c0.2,0.1,0.3,0.1,0.5,0.1l1.1,0.3c0.2,0,0.5,0.1,0.7,0.2s0.5,0.2,0.6,0.4s0.3,0.3,0.5,0.6c0.1,0.2,0.2,0.5,0.2,0.8
		c0,0.4-0.1,0.7-0.3,1s-0.4,0.5-0.7,0.7c-0.3,0.2-0.6,0.3-0.9,0.4c-0.3,0.1-0.7,0.1-1,0.1c-0.8,0-1.5-0.2-2-0.6
		c-0.5-0.4-0.8-1-0.9-1.9h0.9c0,0.6,0.2,1,0.6,1.3c0.4,0.3,0.9,0.4,1.4,0.4c0.2,0,0.4,0,0.6-0.1c0.2,0,0.4-0.1,0.6-0.2
		c0.2-0.1,0.3-0.2,0.5-0.4c0.1-0.2,0.2-0.4,0.2-0.6c0-0.2,0-0.4-0.1-0.5s-0.2-0.3-0.3-0.4c-0.1-0.1-0.3-0.2-0.5-0.2
		c-0.2-0.1-0.4-0.1-0.6-0.2l-1.1-0.2c-0.3-0.1-0.5-0.2-0.8-0.3c-0.2-0.1-0.4-0.2-0.6-0.4c-0.2-0.1-0.3-0.3-0.4-0.5
		c-0.1-0.2-0.2-0.5-0.2-0.8c0-0.4,0.1-0.7,0.2-0.9c0.2-0.3,0.4-0.5,0.6-0.6c0.3-0.2,0.5-0.3,0.8-0.3c0.3-0.1,0.6-0.1,0.9-0.1
		c0.4,0,0.7,0,1,0.1s0.6,0.2,0.8,0.4s0.4,0.4,0.6,0.7c0.1,0.3,0.2,0.6,0.2,1h-0.9C73.8,7.4,73.8,7.2,73.7,7z"/>
	<path class="st1" d="M77.3,2.9v1.4h-0.9V2.9H77.3z M77.3,5.6v7h-0.9v-7H77.3z"/>
	<path class="st1" d="M83.3,7c-0.1-0.2-0.2-0.4-0.4-0.5c-0.2-0.1-0.4-0.2-0.6-0.3c-0.2-0.1-0.4-0.1-0.7-0.1c-0.2,0-0.4,0-0.6,0.1
		c-0.2,0-0.4,0.1-0.5,0.2s-0.3,0.2-0.4,0.4S80,7.1,80,7.3c0,0.2,0,0.4,0.1,0.5c0.1,0.1,0.2,0.2,0.4,0.3c0.1,0.1,0.3,0.2,0.5,0.2
		c0.2,0.1,0.3,0.1,0.5,0.1l1.1,0.3c0.2,0,0.5,0.1,0.7,0.2s0.5,0.2,0.6,0.4s0.3,0.3,0.5,0.6c0.1,0.2,0.2,0.5,0.2,0.8
		c0,0.4-0.1,0.7-0.3,1s-0.4,0.5-0.7,0.7c-0.3,0.2-0.6,0.3-0.9,0.4c-0.3,0.1-0.7,0.1-1,0.1c-0.8,0-1.5-0.2-2-0.6
		c-0.5-0.4-0.8-1-0.9-1.9h0.9c0,0.6,0.2,1,0.6,1.3c0.4,0.3,0.9,0.4,1.4,0.4c0.2,0,0.4,0,0.6-0.1c0.2,0,0.4-0.1,0.6-0.2
		c0.2-0.1,0.3-0.2,0.5-0.4c0.1-0.2,0.2-0.4,0.2-0.6c0-0.2,0-0.4-0.1-0.5s-0.2-0.3-0.3-0.4c-0.1-0.1-0.3-0.2-0.5-0.2
		c-0.2-0.1-0.4-0.1-0.6-0.2l-1.1-0.2c-0.3-0.1-0.5-0.2-0.8-0.3c-0.2-0.1-0.4-0.2-0.6-0.4c-0.2-0.1-0.3-0.3-0.4-0.5
		c-0.1-0.2-0.2-0.5-0.2-0.8c0-0.4,0.1-0.7,0.2-0.9C79.5,6.2,79.7,6,80,5.8c0.3-0.2,0.5-0.3,0.8-0.3c0.3-0.1,0.6-0.1,0.9-0.1
		c0.4,0,0.7,0,1,0.1s0.6,0.2,0.8,0.4s0.4,0.4,0.6,0.7c0.1,0.3,0.2,0.6,0.2,1h-0.9C83.4,7.4,83.4,7.2,83.3,7z"/>
</g>
</svg>
