<!-- Generator: Adobe Illustrator 20.1.0, SVG Export Plug-In  -->
<svg version="1.1"
	 xmlns="http://www.w3.org/2000/svg" xmlns:xlink="http://www.w3.org/1999/xlink" xmlns:a="http://ns.adobe.com/AdobeSVGViewerExtensions/3.0/"
	 x="0px" y="0px" width="39.5px" height="39.8px" viewBox="0 0 39.5 39.8"
	 style="overflow:scroll;enable-background:new 0 0 39.5 39.8;" xml:space="preserve">
<style type="text/css">
	.st0{fill:#FFFFFF;}
</style>
<defs>
</defs>
<g id="XMLID_1_">
	<polygon id="XMLID_12_" class="st0" points="33.3,21.1 33.3,21.1 33.3,21.1 	"/>
	<polygon id="XMLID_11_" class="st0" points="33.6,13.1 33.6,13.1 33.6,13.1 	"/>
	<polygon id="XMLID_10_" class="st0" points="24.5,14.1 24.5,14.1 24.5,14.1 	"/>
	<path id="XMLID_9_" class="st0" d="M3,1.7C3.3,2,3.7,2.3,4,2.6c0.3,0.3,0.5,0.6,0.7,1c0,0,0,0,0,0c0,0,0-0.1,0.1-0.1
		c0,0,0-0.1,0.1-0.1C4.9,3.3,5,3.3,5,3.2c0.1,0,0.1-0.1,0.2-0.1C5.2,3,5.3,3,5.3,3c0.1,0,0.1-0.1,0.2-0.1c0.1,0,0.1,0,0.2-0.1
		c0.1,0,0.2-0.1,0.2-0.1c0.1,0,0.1,0,0.1,0c0,0,0.1,0,0.1,0c0,0,0,0,0,0l0,0c0,0,0,0-0.1,0.1c0,0-0.1,0.1-0.2,0.2
		C5.7,3.1,5.6,3.2,5.5,3.2c0,0-0.1,0.1-0.1,0.1c0,0-0.1,0.1-0.1,0.1c0,0-0.1,0.1-0.1,0.1c0,0-0.1,0.1-0.1,0.1c0,0,0,0,0,0.1
		c0,0,0,0,0,0.1C5,4,5,4,5,4c0,0,0,0,0,0c0.2,0.4,0.5,0.7,0.7,1.1c0.3,0.5,0.6,1,0.9,1.5c0,0,0,0,0,0c0-0.1,0.1-0.1,0.1-0.2
		c0,0,0.1-0.1,0.1-0.1c0,0,0.1-0.1,0.1-0.1c0,0,0.1-0.1,0.1-0.1c0,0,0.1-0.1,0.1-0.1c0,0,0.1,0,0.1-0.1c0,0,0.1,0,0.1,0
		c0.1,0,0.1,0,0.1,0c0,0,0.1,0,0.1,0c0,0,0,0,0,0l0,0c0,0,0,0-0.1,0.1c0,0-0.1,0.1-0.1,0.2C7.3,6.4,7.1,6.6,7,6.7C7,6.8,7,6.8,7,6.9
		c0,0,0,0.1-0.1,0.1c0,0,0,0,0,0.1c0,0,0,0,0,0.1c0,0,0,0,0,0c0.2,0.3,0.4,0.7,0.6,1c0.3,0.5,0.7,1,1.1,1.5c0.2,0.3,0.5,0.6,0.8,0.9
		c0,0,0,0,0,0c0-0.1,0-0.1,0-0.2c0-0.1,0-0.1,0.1-0.2c0-0.1,0.1-0.1,0.1-0.2c0-0.1,0.1-0.1,0.1-0.2c0,0,0-0.1,0.1-0.1
		c0,0,0,0,0.1-0.1c0,0,0.1-0.1,0.1-0.1c0,0,0.1-0.1,0.1-0.1c0,0,0.1-0.1,0.1-0.1c0,0,0.1,0,0.1,0c0,0,0,0,0,0l0,0c0,0,0,0,0,0.1
		c0,0,0,0.1,0,0.1c0,0,0,0.1,0,0.1c0,0,0,0.1-0.1,0.1c0,0.1,0,0.1,0,0.2c0,0.1,0,0.1,0,0.2c0,0.1,0,0.1,0,0.2c0,0.1,0,0.1,0,0.2
		c0,0.1,0,0.1,0,0.2c0,0.1,0,0.1,0,0.2c0,0,0,0,0,0c0,0,0.1,0.1,0.1,0.1c0.5,0.5,1,0.9,1.5,1.3c0.6,0.4,1.2,0.7,1.8,1
		c0.8,0.3,1.6,0.5,2.4,0.6c0-0.1,0-0.1-0.1-0.2c0-0.1,0-0.2-0.1-0.3c0-0.1,0-0.2,0-0.3c0-0.1,0-0.2,0-0.3c0,0,0-0.1,0-0.1l0,0l0,0
		c0,0,0,0,0-0.1c0-0.1,0-0.2,0-0.3c0-0.1,0-0.2,0.1-0.2c0-0.1,0.1-0.1,0.1-0.2c0,0,0-0.1,0.1-0.1c0-0.1,0.1-0.1,0.1-0.1
		c0,0,0,0,0.1,0c0,0,0,0,0,0.1c0,0,0,0,0,0.1c0,0,0,0.1,0,0.1c0,0.1,0,0.1,0,0.2c0,0.1,0,0.1,0,0.2c0,0.1,0,0.1,0,0.2l0,0.1v0v0
		c0,0,0,0,0,0l0,0l0,0l0,0l0,0c0,0,0,0.1,0,0.1c0,0.1,0,0.2,0,0.2c0,0.1,0,0.2,0.1,0.2c0,0.1,0,0.2,0.1,0.2c0,0.1,0,0.1,0.1,0.2
		c0,0,0,0.1,0.1,0.1c0.4,0,0.8,0.1,1.2,0.1l0.1,0l0.1,0l0.1,0l0.3,0l0.3,0l0.3,0c0.4,0,0.7,0,1.1-0.1c0.6,0,1.1-0.1,1.6-0.2
		c0,0,0,0,0,0c0,0,0-0.1-0.1-0.1c0-0.1-0.1-0.2-0.1-0.3c0,0,0-0.1,0-0.1c0,0,0-0.1,0-0.1c0-0.1,0-0.2,0-0.3c0-0.1,0-0.2,0-0.3
		c0-0.1,0-0.2,0-0.3c0-0.1,0-0.2,0-0.2c0,0,0,0,0,0c0,0,0,0,0-0.1c0,0,0-0.1,0-0.1c0-0.1,0-0.1,0-0.1c0-0.1,0-0.1,0-0.1
		c0,0,0,0,0.1,0c0,0,0,0,0,0c0,0,0,0,0,0.1c0,0,0,0.1,0,0.1c0,0,0,0.1,0,0.1c0,0,0,0,0,0c0,0,0,0,0,0c0,0,0,0.1,0,0.1
		c0,0,0,0.1,0,0.1c0,0.1,0,0.2,0,0.2c0,0.1,0,0.2,0.1,0.2c0,0.1,0,0.2,0.1,0.2c0,0.1,0.1,0.2,0.1,0.2c0,0.1,0.1,0.1,0.1,0.2
		c0,0,0,0.1,0.1,0.1c0,0,0,0.1,0.1,0.1c0,0,0,0,0,0.1c1.4-0.3,2.7-0.7,3.8-1.3c0.5-0.3,0.9-0.5,1.3-0.8c0,0-0.1,0-0.1-0.1
		c0,0-0.1-0.1-0.1-0.1c-0.1-0.1-0.2-0.1-0.3-0.2c-0.1-0.1-0.2-0.2-0.3-0.2c-0.1-0.1-0.2-0.2-0.2-0.3c-0.1-0.1-0.1-0.2-0.2-0.3
		c0-0.1-0.1-0.2-0.1-0.3c0,0,0-0.1-0.1-0.1c0,0,0-0.1,0-0.1c0,0,0-0.1,0-0.1c0,0,0-0.1,0-0.1c0-0.1,0-0.1,0-0.2c0-0.1,0-0.2,0-0.2
		c0,0,0,0,0-0.1c0,0,0,0,0,0c0,0,0,0.1,0.1,0.1c0,0,0,0.1,0.1,0.2c0,0.1,0.1,0.1,0.1,0.2c0,0,0,0.1,0.1,0.1c0,0,0,0.1,0.1,0.1
		c0,0.1,0.1,0.2,0.2,0.2c0.1,0.1,0.1,0.2,0.2,0.2c0.1,0.1,0.1,0.1,0.2,0.2c0.1,0.1,0.2,0.1,0.2,0.2c0.1,0.1,0.2,0.1,0.2,0.2
		c0,0,0.1,0,0.1,0.1c0,0,0.1,0,0.1,0.1c0,0,0.1,0,0.1,0.1c0,0,0.1,0,0.1,0c0.4-0.4,0.9-0.7,1.2-1.2c0.8-0.9,1.5-1.8,2.1-2.7
		c0.1-0.1,0.2-0.2,0.2-0.3c0,0,0,0-0.1,0c0,0,0,0-0.1-0.1c0,0,0,0-0.1-0.1c0,0-0.1,0-0.1-0.1c0,0-0.1,0-0.1-0.1
		c-0.1,0-0.1-0.1-0.2-0.1c-0.1,0-0.1-0.1-0.2-0.1c-0.1,0-0.1-0.1-0.2-0.1c-0.1,0-0.1,0-0.2-0.1c-0.1,0-0.2,0-0.2,0l0,0l0,0l0,0l0,0
		l0,0c0,0,0,0,0,0h0c0,0,0,0,0,0c0,0-0.1,0-0.1,0c-0.1,0-0.1,0-0.2,0c-0.1,0-0.1,0-0.1,0c-0.1,0-0.1,0-0.1,0c0,0,0,0,0-0.1
		c0,0,0,0,0,0c0,0,0,0,0.1,0c0,0,0.1,0,0.1-0.1c0,0,0.1,0,0.2,0c0,0,0.1,0,0.1,0c0,0,0,0,0.1,0l0,0l0,0h0l0,0l0,0l0,0l0,0
		c0.1,0,0.2,0,0.2,0c0.1,0,0.2,0,0.3,0c0.1,0,0.2,0,0.3,0.1c0.1,0,0.2,0.1,0.3,0.1c0.1,0,0.2,0.1,0.2,0.1c0.1,0,0.1,0.1,0.2,0.1
		c0.1,0,0.1,0.1,0.2,0.1c0.1-0.2,0.2-0.3,0.4-0.5c0.2-0.3,0.5-0.6,0.7-0.9c0,0,0-0.1,0-0.2C32,5,32,4.9,32,4.9
		c0-0.1-0.1-0.1-0.1-0.2c0,0,0-0.1-0.1-0.1l0,0l0,0c-0.1-0.1-0.1-0.1-0.2-0.2c0,0-0.1-0.1-0.1-0.1c0,0-0.1,0-0.1-0.1
		c0,0-0.1,0-0.1-0.1c0,0-0.1,0-0.1-0.1c0,0-0.1,0-0.1,0C31,4,31,4,31,4c-0.1,0-0.1,0-0.2-0.1c-0.1,0-0.1,0-0.1,0c0,0-0.1,0-0.1,0
		c0,0,0,0,0,0c0,0,0,0,0-0.1c0,0,0,0,0,0c0,0,0,0,0,0c0,0,0,0,0.1,0c0,0,0.1,0,0.2,0c0.1,0,0.1,0,0.2,0c0.1,0,0.2,0,0.2,0
		c0,0,0.1,0,0.1,0c0,0,0.1,0,0.1,0c0,0,0.1,0,0.1,0.1c0,0,0.1,0.1,0.1,0.1c0.1,0.1,0.2,0.1,0.2,0.2L32,4.2l0.1,0.1
		c0,0,0.1,0.1,0.1,0.1c0,0,0.1,0.1,0.1,0.1c0,0,0,0.1,0.1,0.1c0,0,0,0.1,0.1,0.1c0.6-0.6,1.1-1.1,1.7-1.4c0.2-0.1,0.4-0.2,0.5-0.3
		c-0.5-0.4-1.2-0.7-1.9-0.8c-1.1-0.2-1.9,0.3-2.8,0.8c-0.4,0.2-0.7,0.5-1,0.8C28.4,4.4,28,5,28,5.8c0,0.3-0.1,0.5-0.5,0.6
		c-1.3,0.4-2.1,1.1-2.6,2.4c0,0,0,0,0,0c-0.1,0.1-0.1,0.3-0.2,0.4c-0.1,0.1-0.3,0-0.4,0c-0.4,0.1-0.8,0.1-1.2,0.3
		c-0.6,0.2-1.2,0.5-1.7,1c-0.2,0.2-0.4,0.4-0.5,0.7c-0.1,0.1-0.1,0.2-0.3,0.1c-0.9-0.7-1.9-0.7-2.9-0.6c-0.4,0-0.8,0.3-1.2,0.4
		c-0.3,0.1-0.5,0.3-0.8,0.4c-1.4-1.6-3.1-2.6-5.4-2.4c0-0.1,0-0.3,0-0.4C10,7.4,9.4,6.3,8.3,5.8c-0.1,0-0.1-0.2-0.1-0.2
		C8.3,4.8,8.3,4,8,3.4C7.8,3,7.5,2.7,7.1,2.5C6.9,2.4,6.8,2.2,6.8,2.1C6.6,1.6,6.3,1.1,6,0.7C5.6,0.4,5.2,0.2,4.7,0.1
		C4-0.1,3.3,0,2.6,0.4C2.3,0.6,2,0.8,1.8,1.1c0.1,0,0.2,0,0.2,0.1C2.3,1.3,2.7,1.5,3,1.7z"/>
	<path id="XMLID_8_" class="st0" d="M35.1,19.6L35.1,19.6C35.1,19.6,35.1,19.6,35.1,19.6z"/>
	<path id="XMLID_7_" class="st0" d="M3.5,25.1L3.5,25.1L3.5,25.1z"/>
	<path id="XMLID_3_" class="st0" d="M39.5,22.8c0.2-0.9-0.1-1.8-1.2-2.3c0.2-0.7,0.2-1.4,0.2-2.1c0-0.8-0.3-1.5-0.9-2.1
		c-0.2-0.2-0.4-0.2-0.6-0.4c0.5-0.6,0.7-1.3,0.5-2c-0.1-0.7-0.3-1.4-1-2c0.1-0.1,0.1-0.2,0.2-0.2c0.3-0.4,0.5-0.8,0.5-1.4
		c0-0.5,0-1-0.3-1.5c0-0.1,0-0.2,0-0.2C37,8.3,37.2,8,37.4,7.7c0.5-1,0.6-2,0-3c-0.4-0.7-1.1-1.1-1.9-1.1c-0.1,0-0.1,0.1-0.2,0.1
		c-0.2,0.1-0.4,0.2-0.7,0.4c-0.1,0.1-0.2,0.2-0.4,0.3c0.1,0,0.1,0,0.2,0l0.1,0l0.1,0c0.1,0,0.1,0,0.2,0c0.1,0,0.2,0,0.4,0.1
		c0.1,0,0.1,0,0.2,0.1c0.1,0,0.1,0,0.2,0.1c0.1,0.1,0.2,0.1,0.3,0.2c0,0,0.1,0.1,0.1,0.1c0,0,0.1,0.1,0.1,0.1C36,5.1,36,5.2,36,5.2
		c0,0.1,0.1,0.1,0.1,0.2c0,0.1,0,0.2,0,0.2c0,0,0,0.1,0,0.1c0,0,0,0,0,0l0,0c0,0,0,0-0.1-0.1c0,0-0.1-0.1-0.1-0.1
		c0,0-0.1-0.1-0.1-0.2c0,0-0.1-0.1-0.1-0.1c0,0-0.1,0-0.1-0.1c-0.1,0-0.2-0.1-0.2-0.1c-0.1,0-0.2-0.1-0.3-0.1c-0.1,0-0.2,0-0.3,0
		c-0.1,0-0.1,0-0.2,0l-0.1,0l-0.1,0c-0.1,0-0.2,0-0.3,0c-0.1,0-0.2,0-0.3,0c-0.1,0-0.2,0-0.3,0.1c0,0,0,0-0.1,0
		c-0.2,0.2-0.4,0.4-0.5,0.6c-0.4,0.4-0.7,0.9-1.1,1.5c0.1,0,0.2,0.1,0.3,0.1c0.1,0,0.1,0.1,0.2,0.1c0.1,0,0.1,0.1,0.2,0.2
		c0.1,0.1,0.2,0.2,0.3,0.4c0,0.1,0.1,0.1,0.1,0.2c0,0,0,0.1,0.1,0.1c0,0,0,0.1,0,0.1c0,0.1,0.1,0.2,0.1,0.2c0,0.1,0,0.2,0.1,0.2
		c0,0.2,0.1,0.3,0.1,0.5c0,0.1,0,0.2,0,0.2c0,0.1,0,0.2,0,0.2c0,0.1,0,0.3-0.1,0.4c0,0.1-0.1,0.3-0.1,0.4c0,0.1,0,0.1-0.1,0.2
		c0,0.1,0,0.1-0.1,0.1c0,0.1-0.1,0.2-0.1,0.2c-0.1,0.1-0.1,0.2-0.1,0.2c0,0,0,0-0.1,0c0,0,0,0,0-0.1l0,0c0,0,0-0.1,0.1-0.2
		c0-0.1,0-0.1,0.1-0.2c0,0,0-0.1,0-0.1c0-0.1,0-0.1,0-0.2c0-0.1,0-0.2,0-0.4c0-0.1,0-0.3,0-0.4c0-0.1,0-0.1,0-0.2c0-0.1,0-0.1,0-0.2
		c0-0.1-0.1-0.3-0.1-0.4c0-0.1,0-0.1-0.1-0.2l0-0.1c0,0,0-0.1,0-0.1c0,0,0-0.1,0-0.1c0,0,0-0.1-0.1-0.1c0-0.1-0.1-0.1-0.1-0.2
		c-0.1-0.1-0.2-0.2-0.2-0.3c0,0-0.1-0.1-0.1-0.1c0,0-0.1-0.1-0.1-0.1c-0.1,0-0.2-0.1-0.2-0.1c0,0-0.1,0-0.1,0
		c-0.1,0.1-0.2,0.3-0.3,0.4c-0.6,0.9-1.3,1.9-2.2,2.9c-0.4,0.5-0.9,1-1.5,1.4c-0.3,0.2-0.5,0.4-0.8,0.6c-0.1,0.1-0.3,0.2-0.4,0.3
		c-0.2,0.1-0.3,0.2-0.5,0.3c-0.4,0.2-0.9,0.4-1.3,0.6c0,0,0,0,0,0v0l0,0l0,0c0,0,0,0,0,0.1c0,0,0,0.1,0,0.1c0,0,0,0,0,0.1
		c0,0,0,0,0,0.1c0,0.1,0,0.2,0,0.3c0,0.1,0,0.2,0,0.3c0,0.1,0,0.2,0.1,0.3c0,0.1,0.1,0.2,0.1,0.3c0,0.1,0.1,0.2,0.1,0.3
		c0,0.1,0.1,0.2,0.1,0.2c0,0.1,0.1,0.1,0.1,0.2c0,0.1,0.1,0.1,0.1,0.1c0,0.1,0.1,0.1,0.1,0.1l0,0c0,0,0,0.1,0,0.1c0,0,0,0-0.1,0
		c0,0,0,0-0.1-0.1c0,0-0.1-0.1-0.1-0.1c0,0-0.1-0.1-0.1-0.2c-0.1-0.1-0.1-0.1-0.2-0.2c0-0.1-0.1-0.2-0.2-0.3c0-0.1-0.1-0.2-0.1-0.3
		c0-0.1-0.1-0.2-0.1-0.3c0-0.1-0.1-0.2-0.1-0.3c0-0.1,0-0.2-0.1-0.3c0,0,0-0.1,0-0.1c0,0,0,0,0-0.1c0,0,0-0.1,0-0.1
		c-0.7,0.3-1.5,0.5-2.3,0.6C21.5,15,21.2,15,21,15c0,0.1,0,0.1,0,0.2c0,0.1,0,0.2,0,0.3c0,0.1,0,0.2,0,0.3c0,0,0,0.1,0,0.2
		c0,0.1,0,0.1,0,0.2c0,0.1,0,0.2,0.1,0.3c0,0.1,0,0.2,0.1,0.3c0.1,0.2,0.1,0.4,0.1,0.5c0,0.1,0,0.1,0.1,0.2c0,0.1,0,0.1,0,0.2
		c0,0.1,0,0.1,0,0.1v0c0,0,0,0.1,0,0.1c0,0,0,0,0,0c0,0,0,0-0.1-0.1c0,0-0.1-0.1-0.1-0.1c0-0.1-0.1-0.1-0.1-0.2
		c0-0.1-0.1-0.1-0.1-0.2c0-0.1-0.1-0.2-0.1-0.3c0-0.1-0.1-0.2-0.1-0.3c0-0.1-0.1-0.2-0.1-0.3c0-0.1,0-0.1,0-0.2c0-0.1,0-0.1,0-0.2
		c0-0.1-0.1-0.2-0.1-0.3c0-0.1,0-0.2,0-0.3c0,0,0-0.1,0-0.1c-0.3,0-0.6,0.1-0.9,0.1c-0.4,0-0.7,0.1-1.1,0.1l-0.3,0l-0.3,0l-0.3,0
		l-0.1,0l-0.1,0l-0.1,0c-0.2,0-0.4,0-0.5,0c0,0,0,0.1,0,0.1c0,0.1,0,0.2-0.1,0.3c0,0.1,0,0.2-0.1,0.3c0,0.1,0,0.2-0.1,0.3
		c0,0.1,0,0.2-0.1,0.3c0,0.1,0,0.2,0,0.3c0,0.1,0,0.1,0,0.2l0,0l0,0c0,0,0,0,0,0v0l0,0l0,0l0,0c0,0,0,0.1,0,0.1c0,0.1,0,0.1,0,0.2
		c0,0,0,0.1,0,0.1c0,0.1,0,0.2,0,0.3c0,0.1,0,0.2,0,0.2c0,0.1,0,0.1,0,0.2c0,0.1,0,0.2,0,0.2l0,0c0,0,0,0,0,0.1c0,0,0,0,0,0
		c0,0,0-0.1-0.1-0.1c0,0,0-0.1-0.1-0.2c0-0.1-0.1-0.1-0.1-0.2c0-0.1,0-0.2-0.1-0.3c0-0.1,0-0.1,0-0.2c0-0.1,0-0.1,0-0.2
		c0,0,0-0.1,0-0.1l0,0l0,0l0,0l0,0c0-0.1,0-0.1,0-0.2c0-0.1,0-0.2,0-0.4c0-0.1,0-0.2,0-0.3c0-0.1,0-0.2,0-0.3c0-0.2,0.1-0.4,0.1-0.6
		c0,0,0,0,0,0c-0.4,0-0.8-0.1-1.2-0.2c-0.5-0.1-1.1-0.2-1.6-0.4c0,0,0,0.1-0.1,0.1c0,0.1-0.1,0.1-0.1,0.2c0,0,0,0.1,0,0.1
		c0,0,0,0.1-0.1,0.1c0,0.1-0.1,0.2-0.1,0.3c0,0,0,0.1,0,0.1c0,0,0,0.1,0,0.1l0,0.1c0,0,0,0,0,0.1l0,0.1l0,0.1l0,0l0,0l0,0l0,0v0l0,0
		c0,0,0,0,0,0c0,0,0,0.1,0,0.1c0,0,0,0.1,0,0.1c0,0,0,0.1,0,0.1c0,0.1,0,0.2,0,0.3c0,0.1,0,0.2,0,0.2c0,0.1,0,0.1,0,0.2
		c0,0.1,0,0.2,0,0.2c0,0,0,0-0.1,0c0,0,0,0,0,0c0,0,0,0-0.1-0.1c0,0,0-0.1-0.1-0.2c0-0.1-0.1-0.1-0.1-0.2c0-0.1-0.1-0.2-0.1-0.3
		c0,0,0-0.1,0-0.1c0-0.1,0-0.1,0-0.2c0-0.1,0-0.1,0-0.2c0-0.1,0-0.1,0-0.2l0-0.1c0,0,0-0.1,0-0.1c0-0.1,0-0.1,0-0.2
		c0-0.1,0-0.2,0-0.4c0-0.1,0-0.2,0.1-0.3c0-0.1,0.1-0.2,0.1-0.3c0-0.1,0.1-0.2,0.1-0.3c-0.6-0.3-1.2-0.6-1.8-1
		c-0.1-0.1-0.2-0.1-0.3-0.2c0,0,0,0,0,0c0,0-0.1,0.1-0.2,0.2c-0.1,0.1-0.1,0.1-0.2,0.2c-0.1,0.1-0.1,0.1-0.2,0.2
		c-0.1,0.1-0.1,0.1-0.2,0.2c-0.1,0.1-0.1,0.2-0.2,0.2c-0.1,0.1-0.1,0.2-0.2,0.2c0,0.1-0.1,0.1-0.1,0.2c0,0.1-0.1,0.1-0.1,0.2
		c0,0.1-0.1,0.1-0.1,0.2c0,0.1,0,0.1-0.1,0.1c0,0.1-0.1,0.1-0.1,0.1l0,0c0,0,0,0-0.1,0c0,0,0,0,0,0c0,0,0-0.1,0-0.1c0,0,0-0.1,0-0.2
		c0-0.1,0-0.1,0-0.2c0-0.1,0-0.2,0-0.3c0-0.1,0-0.2,0.1-0.3c0-0.1,0.1-0.2,0.1-0.3c0-0.1,0.1-0.2,0.1-0.3c0.1-0.1,0.1-0.2,0.2-0.3
		c0.1-0.1,0.1-0.2,0.2-0.3c0.1-0.1,0.1-0.2,0.2-0.2c0.1-0.1,0.1-0.1,0.2-0.2c-0.3-0.3-0.6-0.5-0.9-0.8c-0.4-0.4-0.7-0.8-1.1-1.2
		c0,0-0.1,0.1-0.1,0.1c-0.1,0.1-0.1,0.1-0.2,0.2c-0.1,0.1-0.1,0.1-0.2,0.2c-0.1,0.1-0.1,0.2-0.2,0.2c-0.1,0.1-0.1,0.2-0.2,0.3
		C7.1,11.8,7,11.9,7,12c-0.1,0.1-0.1,0.2-0.2,0.2c-0.1,0.1-0.1,0.2-0.1,0.2c0,0,0,0.1-0.1,0.1c0,0,0,0.1-0.1,0.1
		c0,0.1-0.1,0.1-0.1,0.2C6.4,12.9,6.4,13,6.4,13l0,0c0,0,0,0-0.1,0c0,0,0,0,0,0c0,0,0-0.1,0-0.2c0-0.1,0-0.1,0-0.2c0,0,0-0.1,0-0.1
		c0,0,0-0.1,0-0.1c0-0.1,0.1-0.2,0.1-0.3c0-0.1,0.1-0.2,0.1-0.3c0-0.1,0.1-0.2,0.1-0.3c0.1-0.1,0.1-0.2,0.2-0.3
		C7,11.1,7.1,11,7.1,10.9c0.1-0.1,0.1-0.2,0.2-0.3c0.1-0.1,0.1-0.2,0.2-0.2c0.1-0.1,0.1-0.1,0.2-0.2c-0.4-0.5-0.7-1-1-1.5
		c-0.6-0.9-1-1.8-1.5-2.6c0,0,0,0,0,0c0,0-0.1,0-0.1,0c0,0-0.1,0-0.1,0c-0.1,0-0.1,0.1-0.2,0.1c0,0-0.1,0-0.1,0.1c0,0-0.1,0-0.1,0.1
		C4.4,6.5,4.3,6.6,4.2,6.6C4.1,6.7,4.1,6.7,4,6.8C3.9,6.9,3.8,6.9,3.7,7C3.6,7,3.5,7.1,3.4,7.2C3.4,7.2,3.3,7.3,3.2,7.4
		C3.1,7.4,3.1,7.5,3,7.6c0,0-0.1,0.1-0.1,0.1c0,0-0.1,0.1-0.1,0.1c-0.1,0-0.1,0.1-0.1,0.1C2.6,7.9,2.6,7.9,2.6,7.9l0,0
		c0,0-0.1,0-0.1,0c0,0,0,0,0,0c0,0,0-0.1,0.1-0.1c0,0,0-0.1,0.1-0.2c0,0,0-0.1,0.1-0.1c0,0,0-0.1,0.1-0.1c0-0.1,0.1-0.2,0.2-0.2
		C3,7,3,6.9,3.1,6.8c0.1-0.1,0.1-0.2,0.2-0.3c0.1-0.1,0.2-0.2,0.3-0.3c0.1-0.1,0.2-0.2,0.3-0.2C4,6,4.1,5.9,4.1,5.9
		c0,0,0.1-0.1,0.1-0.1c0,0,0,0,0.1,0c0,0,0,0,0.1,0c0.1-0.1,0.2-0.1,0.3-0.1c0,0,0.1,0,0.1-0.1c0,0,0,0,0,0c-0.5-0.9-1-1.7-1.5-2.4
		C3.1,2.8,2.8,2.5,2.6,2.3C2.3,2.1,2,1.9,1.7,1.8C1.6,1.7,1.5,1.7,1.4,1.7c0,0.1-0.1,0.2-0.1,0.3C1.2,2.1,0.9,2.3,0.7,2.5
		C0,3.1-0.1,3.9,0.1,4.7C0.1,5,0.2,5.3,0.3,5.5C0.4,5.8,0.6,6,0.8,6.2c0.1,0.1,0.1,0.2,0.1,0.4c-0.3,0.6-0.2,1.3-0.2,2
		c0,0.3,0.2,0.6,0.4,0.9c0.2,0.4,0.5,0.7,0.8,1.1c0,0.1,0,0.2,0,0.3c-0.2,0.6-0.4,1.3-0.3,1.9c0.1,0.8,0.2,1.5,0.5,2.2
		c0,0.1,0,0.2,0,0.3c-0.1,0.2-0.2,0.4-0.3,0.6c-0.4,1-0.3,2.1,0.1,3.1c0.1,0.2,0.1,0.3-0.1,0.4c-0.5,0.5-0.9,1.1-1.2,1.8
		c-0.5,1-0.5,2.1-0.1,3.2c0.1,0.4,0.2,0.8,0,1.3c-0.2,0.6-0.2,1.2,0,1.8c0.2,0.6,0.5,1.1,1,1.5c0.1,0.1,0.2,0.2,0.2,0.4
		c0,0.8,0.1,1.5,0.4,2.2c0.1,0.3,0.3,0.6,0.6,0.8c0.5,0.4,1,0.7,1.5,1.1c0.1,0,0.1,0.1,0.2,0.2c0.2,0.5,0.5,1,0.7,1.4
		c0.1,0.2,0.3,0.3,0.5,0.5c0.6,0.4,1.2,0.7,1.9,0.8c0.5,0.1,1,0.1,1.5-0.1c0.4-0.2,0.8-0.3,1.2-0.5c0.2-0.1,0.3-0.2,0.5-0.3
		c0.1-0.1,0.2-0.1,0.4-0.1c0.8,0.1,1.7,0.1,2.4-0.3c0.9-0.5,1.3-0.8,2-1.9c0.2,0.1,0.4,0.2,0.6,0.3c0.3,0.1,0.6,0.2,0.9,0.2
		c0.2,0,0.3,0.1,0.2,0.2c-0.1,0.6-0.2,1.2-0.3,1.8C17,36,17,36.6,17,37.1c0,0.5,0.1,0.9,0.4,1.3c0.3,0.6,0.8,1,1.4,1.3
		c0.1,0,0.1,0.1,0.2,0.1c0.5,0,1,0,1.6,0c1.4-0.4,2-1.5,2.3-2.8c0.2-0.6,0.2-1.3,0.2-1.9c0-0.6-0.2-1.2-0.5-1.7
		c-0.1-0.2-0.2-0.5-0.3-0.7c-0.3-1-0.6-1.9-0.9-2.9c-0.2-0.7-0.4-1.5-0.8-2.1c-0.3-0.5-0.8-0.9-1.3-1.2c-0.6-0.4-1.2-0.8-1.9-1
		c-0.7-0.3-1.4-0.4-2.1-0.3c-0.3,0-0.7,0.2-1,0.3c-0.3,0.1-0.7,0.3-1,0.5c-0.2,0.2-0.4,0.4-0.6,0.6c-0.1,0.1-0.2,0.2-0.3,0.2
		c-1.3,0-2.3,0.6-3,1.6c0,0-0.1,0.1-0.1,0.1c-0.2-0.2-0.3-0.4-0.4-0.6c-0.1-0.2-0.3-0.4-0.5-0.5c-0.2-0.1-0.2-0.3-0.1-0.4
		c0.6-1.1,0.4-2.2-0.2-3.2c-0.1-0.2-0.1-0.3,0-0.5c0.2-0.4,0.4-0.8,0.5-1.2c0.2-0.6,0.2-1.2-0.1-1.8c-0.2-0.3-0.2-0.5,0.1-0.8
		c0.4-0.4,0.6-1,0.6-1.6c0.2,0.1,0.3,0.2,0.4,0.3c0.8,0.6,1.6,0.7,2.6,0.4c0.4-0.1,0.6-0.1,0.9,0.2c0.4,0.4,0.8,0.8,1.4,0.9
		c0.7,0.1,1.4,0,2-0.1c0.1,0,0.3,0,0.4,0c1.3,0.5,2.6,0.6,3.8,0.1c0.3-0.1,0.6-0.4,0.9-0.7c0.2-0.1,0.3-0.2,0.5-0.2
		c1.2,0.1,2.2-0.3,3-1.2c0.1-0.1,0.2-0.2,0.4-0.2c0.3,0,0.6,0.1,0.9,0.1c1,0,1.9-0.3,2.7-0.8c0.1,0,0.1-0.1,0.2-0.1c0,0,0,0,0,0
		c0.1,0.2,0.3,0.5,0.4,0.7c0,0.1,0,0.2,0,0.2c-0.3,0.6-0.3,1.1-0.1,1.7c0,0.1,0,0.2,0,0.2c-0.6,0.5-0.9,1.1-1,1.8
		c-0.1,0.5-0.1,1,0.2,1.5c0.1,0.1,0,0.2-0.1,0.3c-0.3,0.2-0.6,0.4-0.8,0.6c-0.7,0.6-1.1,1.3-1.2,2.3c-0.1,0.9-0.1,1.7,0.1,2.5
		c0.2,0.5,0.4,1,0.7,1.5c0.2,0.3,0.2,0.7,0.2,1c0,0.1-0.1,0.2-0.1,0.3c-0.5,0.6-0.9,1.3-1.1,2.1c-0.2,0.8-0.6,1.4-1.1,2.1
		c-0.3,0.3-0.5,0.7-0.5,1.2c0,0.2,0.1,0.4,0.3,0.4c0.6,0.2,0.8,0.1,1-0.5c0.2-0.5,0.5-1.1,0.7-1.7c0.2-0.6,0.7-1,1.1-1.4
		c0.2-0.2,0.4-0.4,0.6-0.5c0.2,0,0.4,0.2,0.6,0.3c0.7,0.3,1.5,0.6,2.3,0.7c0.2,0,0.3,0,0.5,0c0.4,0,0.8,0,1.2,0
		c0.8-0.1,1.5-0.3,2.2-0.7c0.9-0.6,1.6-1.4,2.2-2.2c0.4-0.6,0.6-1.4,0.5-2.2c0-0.2,0-0.3,0.1-0.5c0.2-0.3,0.4-0.6,0.6-0.9
		c0.5-0.9,0.6-1.8,0.3-2.8c0-0.1,0-0.2,0-0.3C39.1,23.8,39.4,23.3,39.5,22.8z M9,16.9L9,16.9c-0.1,0-0.2,0-0.3,0c-0.1,0-0.2,0-0.3,0
		c-0.1,0-0.2,0-0.3-0.1l-0.1,0l-0.1,0l-0.1-0.1c0,0,0,0-0.1,0l-0.1,0l-0.1-0.1c0,0-0.1,0-0.1-0.1l-0.1-0.1c-0.1-0.1-0.2-0.1-0.2-0.2
		c-0.1-0.1-0.2-0.1-0.2-0.2c-0.1-0.1-0.1-0.2-0.2-0.2c-0.1-0.1-0.1-0.2-0.2-0.2c0-0.1-0.1-0.1-0.1-0.2c0,0.1,0,0.2,0,0.2
		c0,0.1,0,0.3,0,0.4c0,0.1,0,0.3-0.1,0.4c0,0.2-0.1,0.3-0.1,0.5c-0.1,0.3-0.2,0.7-0.3,1c-0.1,0.4-0.2,0.9-0.4,1.4c0,0,0,0,0,0
		c0,0,0.1,0,0.1,0c0,0,0,0,0,0c0,0,0,0,0.1,0c0,0,0.1,0,0.1,0c0,0,0.1,0,0.1,0c0,0,0.1,0,0.1,0c0.1,0,0.2,0,0.3,0.1
		c0.1,0,0.2,0.1,0.3,0.1c0,0,0.1,0,0.1,0c0,0,0.1,0,0.1,0c0,0,0.1,0,0.1,0c0,0,0.1,0,0.1,0c0,0,0,0,0.1,0l0,0l0,0c0,0,0,0,0,0v0h0
		l0,0l0,0c0,0,0.1,0,0.1,0c0.1,0,0.1,0,0.2,0c0.1,0,0.1,0,0.1,0c0.1,0,0.1,0,0.1,0l0,0c0,0,0,0,0.1,0c0,0,0,0,0,0c0,0,0,0-0.1,0.1
		c0,0-0.1,0-0.1,0.1c-0.1,0-0.1,0-0.2,0.1c0,0-0.1,0-0.1,0l0,0l0,0l0,0l0,0l0,0l0,0l0,0c0,0,0,0-0.1,0c0,0-0.1,0-0.1,0
		c0,0-0.1,0-0.1,0c-0.1,0-0.2,0-0.3,0c-0.1,0-0.2,0-0.3,0c-0.1,0-0.2,0-0.3,0c-0.1,0-0.2,0-0.2,0c0,0-0.1,0-0.1,0c0,0,0,0-0.1,0
		c0,0,0,0-0.1,0c-0.1,0-0.1,0-0.2,0c0,0.2-0.1,0.3-0.1,0.5c-0.2,0.9-0.4,1.9-0.4,2.9c0,0.1,0,0.1,0,0.2c0,0,0,0,0,0
		c0.1,0,0.2,0,0.2,0c0.1,0,0.2,0,0.3,0c0,0,0.1,0,0.1,0c0,0,0.1,0,0.1,0c0.1,0,0.2,0,0.3,0c0.1,0,0.2,0,0.3,0c0.1,0,0.2,0,0.3,0
		c0.1,0,0.2,0,0.3-0.1c0.1,0,0.2-0.1,0.2-0.1c0.1,0,0.1-0.1,0.2-0.1c0,0,0.1,0,0.1,0c0,0,0,0,0.1,0c0.1,0,0.1-0.1,0.1-0.1
		c0,0,0.1,0,0.1,0c0,0,0,0,0,0.1c0,0,0,0-0.1,0.1c0,0-0.1,0.1-0.1,0.1c-0.1,0-0.1,0.1-0.2,0.1c-0.1,0-0.1,0.1-0.2,0.1
		c0,0-0.1,0-0.1,0.1c0,0-0.1,0-0.1,0.1C6.3,24,6.2,24,6.1,24c-0.1,0-0.1,0-0.2,0l-0.2,0c-0.1,0-0.2,0-0.3,0c-0.1,0-0.2,0-0.3,0
		c-0.1,0-0.2,0-0.3,0c-0.1,0-0.2,0-0.2,0c0,0,0,0,0,0.1l0,0.1l0,0c0,0,0,0,0,0l0,0l0,0.1c0,0.1,0,0.1,0,0.2l0,0.1l0,0.1
		c0,0.1,0,0.1,0,0.2c0,0.5,0.1,1.1,0.2,1.6C5,27,5.1,27.3,5.2,27.7c0,0,0,0,0,0c0.1,0,0.1,0,0.2,0l0,0l0,0h0c0,0,0,0,0,0h0h0h0
		c0,0,0,0,0.1,0c0,0,0.1,0,0.1,0c0,0,0,0,0.1,0l0.1,0c0,0,0.1,0,0.1,0c0.1,0,0.2,0,0.3,0c0.1,0,0.2,0,0.3,0c0.1,0,0.2,0,0.3,0
		c0.1,0,0.2,0,0.2-0.1c0.1,0,0.2,0,0.2-0.1c0.1,0,0.1,0,0.2-0.1c0.1,0,0.1,0,0.1,0c0.1,0,0.1,0,0.1,0l0,0c0,0,0.1,0,0.1,0
		c0,0,0,0,0,0.1c0,0,0,0-0.1,0.1c0,0-0.1,0.1-0.1,0.1c0,0-0.1,0.1-0.2,0.1c-0.1,0-0.1,0.1-0.2,0.1c-0.1,0-0.2,0.1-0.2,0.1
		C6.8,28,6.7,28,6.6,28c-0.1,0-0.2,0.1-0.3,0.1c-0.1,0-0.2,0-0.3,0.1c0,0-0.1,0-0.1,0c0,0,0,0-0.1,0c0,0,0,0-0.1,0c0,0-0.1,0-0.1,0
		c0,0,0,0-0.1,0l0,0l0,0h0l0,0h0c0,0,0,0,0,0c0.1,0.3,0.2,0.5,0.4,0.8c0.1,0.1,0.2,0.2,0.2,0.4c0.1,0.1,0.2,0.2,0.3,0.3
		c0.1,0.1,0.2,0.2,0.3,0.3c0.1,0.1,0.2,0.2,0.3,0.3c0.2,0.2,0.4,0.4,0.7,0.5c0.3,0.2,0.6,0.3,1,0.4c0,0,0,0,0-0.1c0,0,0-0.1,0-0.1
		c0,0,0,0,0-0.1l0,0v0l0,0v0l0,0l0,0c0-0.1,0-0.2,0-0.3c0-0.1,0-0.2,0.1-0.3c0-0.1,0-0.2,0.1-0.3c0-0.1,0.1-0.2,0.1-0.3
		c0-0.1,0.1-0.2,0.1-0.2c0-0.1,0.1-0.1,0.1-0.2c0-0.1,0-0.1,0.1-0.2c0-0.1,0-0.1,0-0.1c0-0.1,0-0.1,0-0.1c0,0,0,0,0.1,0c0,0,0,0,0,0
		c0,0,0,0,0,0.1c0,0.1,0,0.2,0,0.4c0,0.1,0,0.2,0,0.2c0,0.1,0,0.2,0,0.3c0,0.2,0,0.4,0,0.5c0,0.1,0,0.2,0,0.3c0,0.1,0,0.2,0,0.3v0v0
		l0,0c0,0,0,0,0,0.1c0,0,0,0.1,0,0.1c0,0.1,0,0.1,0,0.2c0,0,0,0,0,0l0.1,0l0.1,0c0.1,0,0.1,0,0.2,0l0.1,0l0.1,0l0,0l0,0l0,0l0.2,0
		l0.1,0l0.1,0l0.2,0c0.1,0,0.1,0,0.2,0c0.1,0,0.1,0,0.2,0c0.5-0.1,1-0.4,1.5-0.7c0.4-0.3,0.8-0.8,1.2-1.2c0.4-0.5,0.7-1,1.2-1.4
		c0.2-0.2,0.4-0.3,0.6-0.4c0,0,0,0-0.1,0c-0.1,0-0.1-0.1-0.2-0.1c-0.1,0-0.2-0.1-0.2-0.1c-0.1,0-0.2,0-0.2-0.1c-0.1,0-0.2,0-0.3-0.1
		c-0.1,0-0.2,0-0.3,0c-0.1,0-0.2,0-0.2,0c0,0-0.1,0-0.1,0l0,0l0,0l0,0h0h0h0l0,0c0,0,0,0-0.1,0c-0.1,0-0.3,0-0.3,0
		c-0.1,0-0.1,0-0.1,0c0,0,0,0,0-0.1c0,0,0,0,0,0c0,0,0,0,0.1,0c0.1,0,0.2,0,0.3-0.1c0,0,0,0,0.1,0l0,0l0,0h0h0l0,0l0,0l0,0
		c0,0,0.1,0,0.1,0c0.1,0,0.2,0,0.3,0c0.1,0,0.2,0,0.3,0c0.1,0,0.2,0,0.3,0c0.1,0,0.2,0,0.3,0.1c0.1,0,0.2,0.1,0.3,0.1
		c0.1,0,0.2,0.1,0.3,0.1c0.1,0,0.2,0.1,0.2,0.1c0.1,0,0.1,0.1,0.2,0.1c0,0,0,0,0,0c0.2-0.1,0.4-0.1,0.7-0.1c0.1,0,0.2,0,0.2,0l0.1,0
		c0,0,0.1,0,0,0l0,0l0,0l0.1,0l0.1,0c0,0,0.1,0,0.1,0c0.1,0,0.2,0,0.3,0c0,0,0.1,0,0.1,0l0.1,0c0.1,0,0.2,0,0.2,0.1
		c0.1,0,0.1,0.1,0.2,0.1c0.1,0,0.1,0.1,0.2,0.1c0.5,0.3,1,0.7,1.3,1.2c0.3,0.5,0.5,1,0.6,1.4c0,0.1,0.1,0.2,0.1,0.4
		c0,0.1,0,0.1,0,0.2c0,0.1,0,0.1,0,0.2c0,0.1,0,0.2,0,0.3c0,0.1,0,0.2,0,0.3c0,0.2,0,0.4,0,0.6c0,0.1,0,0.1,0,0.2l0,0.1v0
		c0,0,0,0,0,0l0,0l0,0c0,0,0.1,0,0.1,0c0.1,0,0.1,0,0.2,0c0.1,0,0.1,0,0.2,0c0.1,0,0.1,0,0.2,0.1c0,0,0.1,0,0.1,0.1
		c0,0,0.1,0.1,0.1,0.1c0,0,0.1,0.1,0.1,0.1c0,0,0.1,0.1,0.1,0.1c0.1,0.1,0.1,0.1,0.1,0.1c0,0,0,0.1,0,0.1c0,0,0,0.1,0,0.1
		c0,0,0,0,0,0h0c0,0,0,0-0.1,0c0,0,0,0-0.1,0c0,0-0.1,0-0.1,0c0,0-0.1,0-0.1,0c0,0-0.1,0-0.1,0c-0.1,0-0.2,0-0.3,0c0,0-0.1,0-0.1,0
		c0,0-0.1,0-0.1,0c0,0-0.1,0-0.1,0c0,0-0.1,0-0.1,0c0,0.1,0,0.2,0,0.2c0,0.1,0,0.2,0,0.3c0,0.1,0,0.2,0,0.3c0,0.3-0.1,0.6-0.1,0.9
		c0,0.3-0.1,0.5-0.1,0.7c0,0.2-0.1,0.4-0.1,0.5c0,0.3-0.1,0.4-0.1,0.4v0c0,0,0,0-0.1,0c0,0,0,0,0,0c0,0,0-0.2,0-0.5
		c0-0.1,0-0.3,0-0.5c0-0.2,0-0.5,0-0.7c0-0.3,0-0.6,0-0.9c0-0.2,0-0.3,0-0.5c0-0.2,0-0.4,0-0.6c0,0,0-0.1,0-0.1
		c-0.1,0-0.1,0.1-0.2,0.1c-0.1,0-0.1,0.1-0.2,0.1c-0.1,0-0.2,0.1-0.2,0.1c-0.1,0-0.2,0-0.2,0.1c-0.1,0-0.2,0-0.2,0
		c-0.2,0-0.3,0-0.4,0c-0.1,0-0.1,0-0.2,0c0,0-0.1,0-0.1,0c-0.1,0-0.1,0-0.1,0c0,0,0,0,0-0.1c0,0,0,0,0,0c0,0,0,0,0.1,0
		c0.1,0,0.2,0,0.3-0.1c0.1,0,0.1,0,0.2-0.1c0.1,0,0.1,0,0.2-0.1c0.1,0,0.1,0,0.2-0.1c0.1,0,0.1-0.1,0.2-0.1c0.1,0,0.1-0.1,0.2-0.1
		c0.1,0,0.1-0.1,0.2-0.1c0.1,0,0.1-0.1,0.2-0.1c0,0,0,0,0.1-0.1c0,0,0,0,0.1-0.1c0,0,0.1,0,0.1-0.1c0-0.2,0-0.3,0-0.5
		c0-0.1,0-0.2,0-0.3c0-0.1,0-0.2-0.1-0.3c0-0.1,0-0.1,0-0.2c0-0.1,0-0.1,0-0.2c0-0.1-0.1-0.2-0.1-0.3c-0.1-0.4-0.3-0.8-0.6-1.2
		c-0.3-0.4-0.6-0.7-1-0.9c-0.2-0.1-0.4-0.2-0.6-0.2c-0.1,0-0.1,0-0.2,0c0,0-0.1,0-0.1,0L17,28L17,28l0,0h0l-0.1,0
		c-0.1,0-0.1,0-0.2,0c-0.5,0.1-0.9,0.3-1.3,0.6c-0.4,0.3-0.7,0.8-1.1,1.2c0,0,0,0.1,0,0.1c0,0,0,0.1,0,0.1c0,0,0,0.1,0,0.1
		c0,0.1,0,0.1,0,0.2c0,0.1,0,0.1,0,0.2c0,0.1,0,0.2,0.1,0.2c0,0,0,0.1,0,0.1c0,0,0,0.1,0,0.1c0,0.1,0,0.2,0.1,0.2
		c0,0.1,0.1,0.1,0.1,0.2c0,0.1,0.1,0.1,0.1,0.2c0,0.1,0.1,0.1,0.1,0.2c0,0,0.1,0.1,0.1,0.1C15,32,15,32,15,32l0,0c0,0,0,0.1,0,0.1
		c0,0,0,0,0,0c0,0,0,0-0.1-0.1c0,0-0.1,0-0.1-0.1c0,0-0.1-0.1-0.1-0.1c0,0-0.1-0.1-0.2-0.2c0-0.1-0.1-0.1-0.2-0.2
		c-0.1-0.1-0.1-0.1-0.1-0.2c0,0,0-0.1-0.1-0.1c0,0,0-0.1-0.1-0.1c0,0,0-0.1-0.1-0.1c0,0,0-0.1,0-0.1c0-0.1-0.1-0.2-0.1-0.3
		c0,0,0,0,0,0c-0.3,0.3-0.6,0.6-0.9,0.9c-0.5,0.4-1.2,0.7-1.8,0.9c0,0-0.1,0-0.1,0c0,0.1,0,0.1,0,0.2c0,0.1,0,0.2,0,0.2
		c0,0.1,0,0.2,0,0.3c0,0.2,0,0.3-0.1,0.5c0,0.1,0,0.2,0,0.2c0,0.1,0,0.1,0,0.2c0,0.1,0,0.2-0.1,0.3c0,0.1,0,0.1,0,0.1l0,0
		c0,0,0,0-0.1,0c0,0,0,0,0,0c0,0,0,0,0-0.1c0,0,0-0.1,0-0.1c0,0,0-0.1,0-0.2c0-0.1-0.1-0.3-0.1-0.4c0-0.1,0-0.2,0-0.2
		c0-0.1,0-0.2,0-0.2c0-0.1,0-0.2,0-0.2c0-0.1,0-0.1,0-0.2c0-0.1,0-0.1,0-0.2c0,0,0,0,0,0l-0.1,0l-0.1,0l-0.2,0l0,0l0,0h0l-0.1,0
		l-0.1,0c-0.1,0-0.2,0-0.3,0l-0.1,0l-0.1,0c-0.7-0.1-1.3-0.3-1.9-0.7c0,0-0.1,0.1-0.1,0.1c-0.1,0.1-0.1,0.1-0.2,0.2
		c-0.1,0.1-0.2,0.1-0.2,0.2c-0.1,0.1-0.2,0.1-0.3,0.2c-0.1,0.1-0.2,0.1-0.3,0.2c-0.1,0.1-0.2,0.1-0.3,0.1c-0.1,0-0.2,0.1-0.3,0.1
		c-0.1,0-0.2,0.1-0.2,0.1c0,0-0.1,0-0.1,0c0,0-0.1,0-0.1,0c-0.1,0-0.1,0-0.2,0c-0.1,0-0.1,0-0.1,0c0,0,0,0,0,0c0,0,0,0,0,0
		c0,0,0,0,0.1-0.1c0,0,0.1,0,0.1-0.1c0.1,0,0.1-0.1,0.2-0.1c0.1,0,0.1-0.1,0.2-0.1c0.1,0,0.1-0.1,0.2-0.2c0.1-0.1,0.1-0.1,0.2-0.2
		C5.8,32,5.9,32,6,31.9c0.1-0.1,0.1-0.1,0.2-0.2c0.1-0.1,0.1-0.1,0.2-0.2c0.1-0.1,0.1-0.1,0.2-0.2c0,0,0-0.1,0.1-0.1
		c-0.1-0.1-0.2-0.2-0.3-0.2c-0.1-0.1-0.2-0.2-0.4-0.3c-0.1-0.1-0.2-0.2-0.3-0.4c-0.1-0.1-0.2-0.3-0.3-0.4c-0.1-0.1-0.2-0.3-0.3-0.4
		c0-0.1-0.1-0.1-0.1-0.2c-0.1,0-0.1,0-0.2,0c-0.1,0-0.2,0-0.3,0c-0.1,0-0.2,0-0.3,0c-0.1,0-0.1,0-0.1,0l-0.1,0l-0.1,0
		c-0.2,0-0.4,0-0.6-0.1c-0.2,0-0.3-0.1-0.5-0.1c0,0-0.1,0-0.1,0c0,0,0,0,0,0l0,0c0,0,0,0,0,0c0,0,0,0-0.1,0C2.5,29,2.5,29,2.5,29
		c0,0,0-0.1-0.1-0.1c0,0,0,0,0,0c0,0,0-0.1,0-0.1c0,0,0,0,0,0c0,0,0,0,0,0c0,0,0.1,0,0.1,0c0,0,0.1,0,0.1,0c0,0,0,0,0,0l0,0l0,0
		c0,0,0,0,0,0c0,0,0.1,0,0.1,0c0.1,0,0.3,0,0.5-0.1c0.2,0,0.4,0,0.6,0l0.1,0l0.1,0c0,0,0.1,0,0.1,0c0.1,0,0.2,0,0.3,0
		c0.1,0,0.1,0,0.2,0c0,0,0,0,0-0.1C4.3,28,4.1,27.4,4,26.8c-0.1-0.4-0.1-0.8-0.2-1.1c0,0-0.1,0-0.1,0c0,0-0.1,0-0.1,0c0,0,0,0-0.1,0
		h0h0h0l0,0l0,0l0,0c0,0-0.1,0-0.2,0c-0.1,0-0.2,0-0.3,0c-0.1,0-0.2,0-0.3-0.1c-0.1,0-0.2-0.1-0.3-0.1c-0.1,0-0.2-0.1-0.3-0.1
		c-0.2-0.1-0.3-0.1-0.5-0.2c-0.1,0-0.1-0.1-0.2-0.1c-0.1,0-0.1,0-0.1-0.1C1.2,25,1.1,25,1.1,25c0,0,0,0,0-0.1c0,0,0,0,0,0
		c0,0,0.1,0,0.1,0c0.1,0,0.2,0,0.4,0C1.8,24.9,2,25,2.2,25c0.1,0,0.2,0,0.3,0c0.1,0,0.2,0,0.3,0c0.1,0,0.2,0,0.3,0
		c0.1,0,0.2,0,0.3,0c0,0,0.1,0,0.1,0l0,0l0,0h0h0c0,0,0,0,0.1,0c0,0,0.1,0,0.1,0c0,0,0.1,0,0.1,0c0,0,0-0.1,0-0.1c0-0.1,0-0.1,0-0.2
		l0-0.1l0-0.1c0-0.1,0-0.1,0-0.2l0-0.1l0,0l0,0l0-0.1c0-0.1,0-0.3,0-0.4c0-0.1,0-0.3,0-0.4c0.1-0.8,0.2-1.5,0.3-2.2
		C4,21.1,4,21.1,3.9,21c-0.1,0-0.2-0.1-0.3-0.1c-0.1,0-0.2-0.1-0.3-0.2c-0.1-0.1-0.2-0.1-0.3-0.2C3,20.5,3,20.4,2.9,20.3
		c-0.1-0.1-0.1-0.2-0.2-0.2c0,0-0.1-0.1-0.1-0.1c0,0-0.1-0.1-0.1-0.1c0,0,0-0.1-0.1-0.1c0,0,0-0.1,0-0.1c0,0,0-0.1,0-0.1
		c0,0,0-0.1,0-0.1c0,0,0-0.1,0-0.1c0,0,0-0.1,0-0.1c0-0.1,0-0.1,0-0.1c0,0,0,0,0-0.1c0,0,0,0,0,0c0,0,0,0,0.1,0.1c0,0,0,0,0,0.1
		c0,0,0,0,0,0.1c0,0,0.1,0.1,0.1,0.1c0,0,0,0.1,0.1,0.1c0,0,0.1,0.1,0.1,0.1c0,0,0.1,0.1,0.1,0.1c0,0,0.1,0.1,0.1,0.1
		c0.1,0.1,0.1,0.1,0.2,0.2c0.1,0.1,0.2,0.1,0.2,0.1c0.1,0,0.2,0.1,0.2,0.1c0.1,0,0.2,0.1,0.2,0.1c0.1,0,0.2,0.1,0.2,0.1
		c0,0,0.1,0,0.1,0c0-0.1,0-0.2,0.1-0.2c0.2-0.9,0.5-1.8,0.7-2.5c0-0.1,0.1-0.2,0.1-0.3c0,0,0,0,0,0c-0.4-0.1-0.8-0.3-1.2-0.6
		c-0.2-0.1-0.4-0.3-0.5-0.4c-0.1-0.1-0.2-0.1-0.2-0.2C3,16.2,3,16.1,2.9,16.1c-0.1-0.1-0.1-0.1-0.2-0.2c0,0,0-0.1-0.1-0.1
		c0,0,0,0,0-0.1c0,0,0,0,0,0c0-0.1,0-0.1,0-0.1c0,0,0,0,0,0c0,0,0,0,0.1,0c0,0,0,0,0,0c0,0,0,0,0,0c0,0,0,0,0,0c0,0,0,0,0,0l0,0l0,0
		l0,0c0,0,0,0,0,0v0l0,0l0,0c0,0,0,0,0,0c0,0,0,0,0,0c0,0,0,0,0.1,0.1c0,0,0.1,0.1,0.2,0.1c0.1,0.1,0.3,0.2,0.5,0.3
		c0.2,0.1,0.4,0.2,0.6,0.3c0.2,0.1,0.4,0.2,0.6,0.3c0.2,0.1,0.4,0.1,0.5,0.2c0,0,0,0,0,0c0.1-0.4,0.2-0.8,0.3-1.1
		c0-0.1,0.1-0.3,0.1-0.4c0-0.1,0-0.1,0-0.2c0-0.1,0-0.1,0-0.2c0.1-0.2,0.1-0.4,0.1-0.5c0,0,0,0,0,0c0-0.1,0-0.1-0.1-0.2
		c0-0.1,0-0.2-0.1-0.3c0,0,0,0,0,0l0,0l-0.1,0l-0.2,0c-0.1,0-0.1,0-0.2,0l-0.2,0l-0.1,0l-0.1,0c-0.1,0-0.2-0.1-0.3-0.1l-0.2-0.1
		c-0.1,0-0.1-0.1-0.2-0.1c-0.1,0-0.1-0.1-0.2-0.1L4,13.6c0,0-0.1-0.1-0.1-0.1c0,0-0.1-0.1-0.1-0.1c-0.1-0.1-0.2-0.2-0.2-0.2
		c-0.1-0.1-0.1-0.2-0.2-0.3c0,0-0.1-0.1-0.1-0.1l-0.1-0.1C3.1,12.5,3,12.4,3,12.3c0-0.1-0.1-0.2-0.1-0.3c0-0.1-0.1-0.2-0.1-0.3
		c0-0.1,0-0.2,0-0.3l0-0.2l0-0.1c0,0,0-0.1,0-0.1l0-0.2c0,0,0,0,0-0.1l0-0.1c0,0,0,0,0.1,0c0,0,0,0,0,0l0,0.1c0,0,0,0,0,0.1l0,0.2
		c0,0,0,0.1,0,0.1l0,0.1l0,0.1C3,11.4,3,11.5,3,11.6c0,0.1,0.1,0.2,0.1,0.3C3.2,12,3.3,12,3.3,12.1c0.1,0.1,0.1,0.2,0.2,0.2l0.1,0.1
		c0,0,0.1,0.1,0.1,0.1c0.1,0.1,0.1,0.1,0.2,0.2C4,12.8,4.1,12.9,4.1,13c0,0,0.1,0.1,0.1,0.1c0,0,0.1,0,0.1,0.1l0.1,0.1
		c0,0,0.1,0,0.1,0.1c0,0,0.1,0,0.1,0.1l0.1,0c0.1,0,0.2,0.1,0.3,0.1l0.1,0l0.1,0l0.1,0c0.1,0,0.2,0,0.3,0l0,0l0,0l0,0l0,0l0,0
		c0,0,0,0,0,0l0,0l0.1,0l0.2,0l0.3,0l0,0.3c0,0.1,0,0.2,0,0.3c0,0.1,0,0.2,0,0.3c0,0.1,0,0.2,0.1,0.3c0,0.1,0.1,0.2,0.1,0.3
		c0,0.1,0.1,0.2,0.1,0.3c0,0.1,0.1,0.2,0.1,0.2c0,0.1,0.1,0.2,0.1,0.2c0.1,0.1,0.1,0.2,0.2,0.2C7.1,15.9,7.2,16,7.2,16
		c0.1,0.1,0.1,0.1,0.2,0.2l0.1,0.1c0,0,0.1,0.1,0.1,0.1l0.1,0.1l0.1,0c0,0,0,0,0.1,0L8,16.6l0.1,0l0.1,0c0.1,0,0.2,0.1,0.3,0.1
		c0.1,0,0.2,0.1,0.3,0.1C8.8,16.8,8.9,16.8,9,16.9C9,16.8,9,16.9,9,16.9C9,16.9,9,16.9,9,16.9z M38,24.1C38,24.1,38,24.1,38,24.1
		c-0.1,0-0.1-0.1-0.2-0.2c0-0.1-0.1-0.1-0.1-0.2c-0.1-0.1-0.1-0.1-0.2-0.2c-0.1-0.1-0.2-0.1-0.3-0.2c-0.1-0.1-0.2-0.1-0.3-0.2
		c-0.1,0-0.1-0.1-0.2-0.1c-0.1,0-0.1-0.1-0.2-0.1c-0.1,0-0.1-0.1-0.2-0.1c-0.1,0-0.1-0.1-0.2-0.1c-0.1,0-0.1,0-0.2-0.1
		c-0.1,0-0.1,0-0.2-0.1c-0.1,0-0.1,0-0.2,0c-0.1,0-0.1,0-0.2,0c-0.1,0-0.2,0-0.4,0c-0.1,0-0.1,0-0.2,0c0,0-0.1,0-0.1,0l0,0l0,0h0
		l0,0c-0.1,0-0.2,0-0.3,0c0,0,0,0,0,0c0,0.2-0.1,0.5-0.1,0.7c0,0.2-0.1,0.3-0.1,0.5L34.1,24c0,0.1,0,0.2-0.1,0.2
		c-0.1,0.2-0.1,0.4-0.2,0.7l0,0c0,0,0,0,0.1,0l0.1,0l0.2,0c0.1,0,0.2,0.1,0.3,0.1c0.1,0,0.2,0.1,0.3,0.1c0.1,0.1,0.2,0.1,0.3,0.2
		l0.1,0.1l0.1,0l0.1,0.1c0.1,0.1,0.2,0.1,0.3,0.2c0.1,0.1,0.2,0.2,0.2,0.2l0.1,0.1l0.1,0.1c0,0,0.1,0.1,0.1,0.1l0.1,0.1
		c0.1,0.1,0.1,0.2,0.2,0.3c0.1,0.1,0.1,0.2,0.2,0.3c0.1,0.1,0.1,0.2,0.1,0.3c0,0.1,0.1,0.2,0.1,0.3c0,0.1,0.1,0.2,0.1,0.3
		c0,0,0,0.1,0,0.1c0,0,0,0-0.1,0l0,0c-0.1-0.1-0.1-0.2-0.2-0.3c-0.1-0.1-0.1-0.2-0.2-0.3c-0.1-0.1-0.1-0.2-0.2-0.2
		c-0.1-0.1-0.1-0.2-0.2-0.2c-0.1-0.1-0.1-0.2-0.2-0.2L36,26.6c0,0-0.1-0.1-0.1-0.1l-0.1-0.1l-0.1-0.1c-0.1-0.1-0.2-0.1-0.2-0.2
		c-0.1-0.1-0.2-0.1-0.2-0.2l-0.1,0l-0.1,0l-0.1-0.1c-0.1,0-0.2-0.1-0.3-0.1c-0.1,0-0.2-0.1-0.3-0.1c-0.1,0-0.2,0-0.3,0l-0.1,0
		l-0.1,0c0,0-0.1,0-0.1,0l-0.2,0l0,0l0,0l0,0h0c0,0,0,0,0,0h0l0,0l-0.1,0c0,0,0,0,0,0c-0.1,0.1-0.1,0.2-0.2,0.3
		c0,0.1-0.1,0.1-0.1,0.2c0,0.1-0.1,0.1-0.1,0.2c-0.1,0.1-0.1,0.3-0.2,0.4c-0.1,0.1-0.2,0.3-0.2,0.4c-0.1,0.1-0.2,0.3-0.2,0.4
		c-0.2,0.2-0.3,0.5-0.5,0.7c-0.2,0.2-0.3,0.4-0.5,0.6c-0.2,0.2-0.3,0.4-0.5,0.6c-0.2,0.2-0.3,0.3-0.5,0.5c-0.1,0.1-0.2,0.1-0.2,0.2
		c-0.1,0.1-0.2,0.1-0.2,0.2c-0.2,0.1-0.3,0.2-0.4,0.3c-0.1,0.1-0.3,0.2-0.4,0.3c-0.2,0.2-0.4,0.3-0.6,0.3c-0.1,0.1-0.2,0.1-0.2,0.1
		c0,0-0.1,0-0.1,0c0,0,0,0,0-0.1c0,0,0-0.1,0.1-0.2c0.1-0.1,0.2-0.3,0.4-0.5c0.1-0.1,0.2-0.2,0.3-0.4c0.1-0.1,0.2-0.3,0.3-0.4
		c0.1-0.1,0.2-0.3,0.4-0.5c0.1-0.2,0.3-0.3,0.4-0.5c0.1-0.1,0.1-0.2,0.2-0.3c0.1-0.1,0.2-0.2,0.2-0.3c0.1-0.2,0.3-0.4,0.5-0.6
		c0.1-0.2,0.3-0.4,0.4-0.7c0.1-0.1,0.1-0.2,0.2-0.4c0.1-0.1,0.1-0.2,0.2-0.4c0.1-0.1,0.1-0.3,0.2-0.4c0-0.1,0.1-0.1,0.1-0.2
		c0-0.1,0.1-0.1,0.1-0.2c0.1-0.1,0.1-0.3,0.2-0.4c0,0,0-0.1,0-0.1c0,0,0-0.1,0-0.1c0,0,0-0.1,0-0.1l0-0.1c0,0,0-0.1,0-0.1l0-0.1
		l0-0.1c0,0,0-0.1-0.1-0.1l-0.1-0.1c0-0.1-0.1-0.2-0.2-0.2c0,0-0.1-0.1-0.1-0.1c0,0-0.1-0.1-0.1-0.1L32,23.8c0,0-0.1-0.1-0.1-0.1
		c0,0-0.1,0-0.1-0.1c0,0-0.1,0-0.1-0.1c0,0-0.1,0-0.1-0.1l-0.1,0c0,0-0.1,0-0.1,0c0,0-0.1,0-0.1,0l-0.2,0l0,0l0,0c0,0,0,0,0,0h0h0
		l0,0l0,0l-0.1,0c-0.1,0-0.1,0-0.2,0c-0.1,0-0.1,0-0.2,0l-0.2,0c-0.1,0-0.1,0-0.2,0c-0.1,0-0.1,0-0.2,0c-0.1,0-0.1,0-0.2,0
		c-0.1,0-0.2,0.1-0.3,0.1c-0.1,0-0.2,0.1-0.3,0.1l0,0c0,0-0.1,0-0.1,0c0,0,0,0,0-0.1c0.1-0.1,0.2-0.1,0.3-0.2
		c0.1-0.1,0.2-0.1,0.3-0.2c0.1,0,0.1,0,0.2-0.1c0.1,0,0.1,0,0.2-0.1c0.1,0,0.1,0,0.2-0.1l0.2,0c0.1,0,0.1,0,0.2,0c0.1,0,0.1,0,0.2,0
		l0.1,0l0,0l0,0l0,0h0h0h0l0,0l0.2,0c0.1,0,0.1,0,0.2,0c0.1,0,0.1,0,0.2,0l0.2,0c0.1,0,0.1,0,0.2,0c0.1,0,0.1,0,0.2,0.1
		c0.1,0,0.1,0,0.2,0.1c0.1,0,0.1,0,0.2,0.1l0.2,0.1c0.1,0,0.1,0.1,0.2,0.1c0.1,0,0.1,0.1,0.1,0.1c0.1,0.1,0.2,0.2,0.3,0.3l0.1,0.1
		c0,0,0,0,0,0c0-0.1,0-0.1,0.1-0.2l0.1-0.2l0.1-0.2l0-0.1l0-0.1c0.1-0.3,0.1-0.6,0.2-0.9c0-0.2,0-0.3,0.1-0.5c0-0.2,0-0.3,0-0.5
		c0-0.1,0-0.1,0-0.2c-0.1,0-0.1,0-0.2,0h0l0,0h0c0,0-0.1,0-0.1,0c-0.1,0-0.1,0-0.2,0c-0.1,0-0.1,0-0.2,0c-0.1,0-0.1,0-0.2,0
		c-0.1,0-0.1,0-0.2,0c0,0-0.1,0-0.1,0l-0.1,0c-0.1,0-0.1,0-0.2,0c-0.1,0-0.1,0-0.2,0c-0.1,0-0.3,0.1-0.4,0.1c-0.1,0-0.3,0.1-0.4,0.1
		c-0.1,0-0.2,0.1-0.4,0.1c-0.1,0-0.2,0.1-0.3,0.1c-0.1,0-0.2,0.1-0.3,0.1c-0.1,0-0.1,0.1-0.2,0.1C29.9,22,29.9,22,29.9,22
		c0,0-0.1,0-0.1,0c0,0,0,0,0-0.1c0,0,0.1-0.1,0.1-0.1c0,0,0.1-0.1,0.2-0.1c0.1-0.1,0.2-0.1,0.2-0.2c0.1-0.1,0.2-0.1,0.3-0.2
		c0.1-0.1,0.2-0.1,0.3-0.2c0.1-0.1,0.3-0.1,0.4-0.2c0.1-0.1,0.3-0.1,0.4-0.1c0.1,0,0.3-0.1,0.4-0.1c0.1,0,0.3-0.1,0.4-0.1
		c0.1,0,0.1,0,0.2,0c0.1,0,0.1,0,0.2,0c0.1,0,0.1,0,0.2,0c0,0,0.1,0,0.1,0c0,0,0,0,0.1,0l0,0c0.1,0,0.1,0,0.2,0c0-0.1,0-0.1,0-0.2
		c0-0.2,0-0.3,0-0.5c0-0.2,0-0.3,0-0.4c0-0.3,0-0.6,0-0.9c0,0-0.1,0-0.1,0c-0.1,0-0.2,0-0.3,0l0,0l0,0l0,0h0l0,0c0,0-0.1,0-0.1,0
		c-0.1,0-0.1,0-0.2,0c-0.1,0-0.2,0-0.3,0c-0.1,0-0.2,0-0.4,0c-0.1,0-0.2,0-0.3,0.1c-0.1,0-0.2,0-0.3,0.1c-0.1,0-0.2,0.1-0.3,0.1
		c0,0-0.1,0-0.1,0c0,0-0.1,0-0.1,0c-0.1,0-0.2,0.1-0.2,0.1c-0.1,0-0.1,0.1-0.2,0.1c-0.1,0-0.2,0.1-0.2,0.1c0,0-0.1,0-0.1,0
		c0,0,0,0,0-0.1c0,0,0,0,0.1-0.1c0,0,0.1-0.1,0.2-0.1c0.1,0,0.1-0.1,0.2-0.1c0,0,0.1-0.1,0.1-0.1c0,0,0.1,0,0.1-0.1
		c0.1,0,0.2-0.1,0.3-0.1c0.1,0,0.2-0.1,0.3-0.1c0.1,0,0.2-0.1,0.4-0.1c0.1,0,0.3-0.1,0.4-0.1c0.1,0,0.2,0,0.4,0c0.1,0,0.1,0,0.2,0
		c0,0,0.1,0,0.1,0l0,0l0,0c0.1,0,0.2,0,0.3,0c0,0,0,0,0.1,0c0-0.1,0-0.1,0-0.2c-0.1-0.5-0.1-1-0.2-1.5c0,0,0,0,0,0c0,0-0.1,0-0.1,0
		c-0.4,0-0.7,0.1-1,0.2c-0.2,0-0.3,0.1-0.5,0.1c-0.1,0-0.1,0-0.2,0.1c-0.1,0-0.1,0-0.2,0.1c-0.1,0-0.2,0.1-0.3,0.1
		c-0.1,0-0.2,0.1-0.3,0.1c-0.1,0.1-0.2,0.1-0.2,0.1l0,0c0,0-0.1,0-0.1,0c0,0,0,0,0-0.1c0,0,0.1-0.1,0.2-0.1c0.1,0,0.1-0.1,0.2-0.2
		c0.1-0.1,0.2-0.1,0.3-0.2c0.1,0,0.1-0.1,0.2-0.1c0.1,0,0.1-0.1,0.2-0.1c0.1-0.1,0.3-0.1,0.5-0.2c0.3-0.1,0.7-0.2,1-0.3
		c0,0,0.1,0,0.1,0c0-0.3-0.1-0.5-0.1-0.8c0-0.2-0.1-0.4-0.1-0.5c0-0.1,0-0.1,0-0.2c0,0-0.1,0.1-0.1,0.1c0,0-0.1,0.1-0.1,0.1
		l-0.1,0.1c-0.1,0-0.1,0.1-0.2,0.1c-0.1,0-0.1,0.1-0.2,0.1c-0.1,0-0.1,0.1-0.2,0.1L32,15l-0.2,0.1c-0.1,0-0.1,0-0.2,0.1
		c-0.1,0-0.1,0-0.2,0.1c-0.1,0-0.2,0.1-0.4,0.1l-0.2,0l-0.2,0c-0.1,0-0.3,0-0.4-0.1c-0.1,0-0.2-0.1-0.4-0.1c-0.1,0-0.2-0.1-0.3-0.2
		c-0.1-0.1-0.2-0.1-0.3-0.2c-0.1-0.1-0.2-0.1-0.3-0.2c-0.1-0.1-0.2-0.2-0.3-0.3c0,0,0,0,0-0.1c0,0,0,0,0.1,0l0,0
		c0.1,0.1,0.2,0.2,0.3,0.2c0.1,0.1,0.2,0.1,0.3,0.2c0.2,0.1,0.4,0.2,0.7,0.3c0.1,0,0.2,0.1,0.3,0.1c0.1,0,0.2,0,0.3,0l0.2,0l0.2,0
		c0.1,0,0.2-0.1,0.3-0.1c0.1,0,0.1,0,0.2-0.1c0.1,0,0.1,0,0.2-0.1l0.2-0.1l0.1-0.1c0.1,0,0.1-0.1,0.1-0.1c0,0,0.1-0.1,0.1-0.1
		c0,0,0.1-0.1,0.1-0.1l0.1-0.1c0,0,0.1-0.1,0.1-0.1c0,0,0.1-0.1,0.1-0.1c0,0,0.1-0.1,0.1-0.1l0.1-0.1c0,0,0-0.1,0.1-0.1
		c0,0,0,0,0-0.1l0-0.1c0-0.1,0.1-0.2,0.1-0.3l0,0l0-0.2l0.2,0l0.3,0c0.1,0,0.2,0,0.3-0.1l0.2,0l0.1,0l0.1,0l0.2-0.1
		c0.1,0,0.1,0,0.2-0.1c0.1,0,0.2-0.1,0.3-0.2c0,0,0.1-0.1,0.1-0.1l0.1-0.1c0,0,0,0,0.1-0.1c0,0,0.1-0.1,0.1-0.1l0.1-0.1
		c0,0,0.1-0.1,0.1-0.1c0,0,0.1-0.1,0.1-0.1c0,0,0.1-0.1,0.1-0.1l0.1-0.2c0-0.1,0.1-0.2,0.1-0.3l0-0.1c0,0,0-0.1,0-0.1
		c0-0.1,0-0.1,0-0.2l0-0.2c0-0.1,0-0.1,0-0.2c0-0.2-0.1-0.5-0.1-0.7c0-0.1-0.1-0.2-0.1-0.3c0-0.1,0-0.1-0.1-0.2c0,0,0,0,0-0.1
		c0,0,0,0-0.1-0.1l0,0c0,0,0-0.1,0-0.1c0,0,0,0,0.1,0c0,0,0,0,0.1,0.1c0,0,0,0.1,0.1,0.1c0,0.1,0.1,0.1,0.1,0.2
		c0,0.1,0.1,0.2,0.1,0.3c0.1,0.2,0.1,0.5,0.2,0.7c0,0.1,0,0.1,0,0.2c0,0.1,0,0.1,0,0.2c0,0.1,0,0.1,0,0.2c0,0,0,0.1,0,0.1l0,0.1
		c0,0.1-0.1,0.2-0.1,0.4l-0.1,0.2c0,0.1-0.1,0.1-0.1,0.2c0,0.1-0.1,0.1-0.1,0.2c0,0.1-0.1,0.1-0.1,0.2l-0.1,0.1c0,0-0.1,0.1-0.1,0.1
		c0,0,0,0-0.1,0.1l-0.1,0.1c0,0-0.1,0.1-0.1,0.1c-0.1,0.1-0.2,0.1-0.3,0.2c-0.1,0-0.1,0.1-0.2,0.1L34.5,13l-0.1,0l-0.1,0l-0.2,0.1
		c-0.1,0-0.2,0.1-0.4,0.1c-0.1,0-0.1,0-0.2,0c0,0,0,0,0,0c0,0.1,0,0.1,0,0.1c0,0,0,0.1,0,0.1c0,0,0,0.1,0,0.1l0,0l0,0c0,0,0,0,0,0
		l0,0l0,0c0,0,0,0,0,0c0,0.1,0,0.1,0,0.2c0,0.1,0,0.3,0.1,0.4c0,0.2,0.1,0.3,0.1,0.5c0.1,0.2,0.1,0.5,0.2,0.8c0.1,0,0.2,0,0.3,0
		c0.3,0,0.7,0,0.9,0c0.1,0,0.3,0,0.4,0c0.1,0,0.2,0,0.3,0c0.1,0,0.2,0,0.2,0.1c0,0,0.1,0,0.1,0c0,0,0,0,0,0.1c0,0,0,0,0,0l0,0
		c0,0,0,0-0.1,0c0,0,0,0-0.1,0c0,0-0.1,0-0.1,0c-0.1,0-0.2,0-0.3,0c-0.1,0-0.2,0-0.4,0c-0.1,0-0.3,0-0.4,0.1c-0.2,0-0.3,0.1-0.5,0.1
		c-0.1,0-0.1,0-0.2,0c0.1,0.5,0.2,0.9,0.3,1.5c0.1,0.4,0.1,0.9,0.2,1.4c0,0,0,0,0,0c0,0,0.1,0,0.1,0c0,0,0.1,0,0.2,0
		c0.1,0,0.1,0,0.2,0c0,0,0.1,0,0.1,0l0,0l0,0l0,0c0,0,0.1,0,0.1,0c0.1,0,0.2,0,0.3,0c0.1,0,0.2,0,0.3,0.1c0.1,0,0.2,0.1,0.3,0.1
		c0.1,0,0.1,0,0.2,0.1c0.1,0,0.1,0.1,0.1,0.1c0.1,0,0.2,0.1,0.3,0.2c0.1,0.1,0.2,0.1,0.2,0.2c0.1,0.1,0.2,0.2,0.3,0.3
		c0.1,0.1,0.1,0.1,0.1,0.1c0,0,0,0,0,0.1c0,0,0,0,0,0c0,0-0.1,0-0.1,0c0,0-0.1,0-0.2-0.1C37,20,37,20,36.9,20
		c-0.1,0-0.2-0.1-0.2-0.1c-0.1,0-0.2-0.1-0.3-0.1c-0.1,0-0.2-0.1-0.3-0.1c-0.1,0-0.1,0-0.1,0l-0.2,0c-0.1,0-0.2,0-0.3,0
		c-0.1,0-0.2,0-0.3,0c0,0,0,0-0.1,0l0,0l0,0l0,0c0,0-0.1,0-0.1,0c-0.1,0-0.1,0-0.1,0c0,0-0.1,0-0.1,0c-0.1,0-0.1,0-0.2,0
		c0,0,0,0,0,0c0,0.1,0,0.1,0,0.2c0,0.2,0,0.3,0,0.5c0,0.2,0,0.3,0,0.5c0,0.2,0,0.3,0,0.5c0,0.2,0,0.3,0,0.5c0,0,0,0,0,0
		c0.1,0,0.1,0,0.2,0l0,0h0h0l0,0l0,0l0,0c0,0,0.1,0,0.1,0c0.1,0,0.1,0,0.2,0c0.1,0,0.3,0,0.4,0.1c0.1,0,0.1,0,0.2,0.1
		c0.1,0,0.1,0,0.2,0.1c0.1,0,0.1,0.1,0.2,0.1c0.1,0,0.1,0.1,0.2,0.1c0.1,0.1,0.3,0.1,0.4,0.2c0.1,0,0.1,0.1,0.2,0.1
		c0.1,0,0.1,0.1,0.2,0.1c0.1,0.1,0.2,0.2,0.3,0.3c0.1,0.1,0.2,0.2,0.2,0.3c0,0,0.1,0.1,0.1,0.1c0,0,0.1,0.1,0.1,0.1
		c0,0.1,0.1,0.2,0.1,0.2C38,23.9,38,24,38,24.1C38.1,24,38,24.1,38,24.1z"/>
	<path id="XMLID_2_" class="st0" d="M34.7,22.5L34.7,22.5C34.7,22.5,34.7,22.5,34.7,22.5z"/>
</g>
</svg>
