<!-- Generator: Adobe Illustrator 20.1.0, SVG Export Plug-In  -->
<svg version="1.1"
	 xmlns="http://www.w3.org/2000/svg" xmlns:xlink="http://www.w3.org/1999/xlink" xmlns:a="http://ns.adobe.com/AdobeSVGViewerExtensions/3.0/"
	 x="0px" y="0px" width="12.7px" height="12.4px" viewBox="0 0 12.7 12.4"
	 style="overflow:scroll;enable-background:new 0 0 12.7 12.4;" xml:space="preserve">
<style type="text/css">
	.st0{fill:#58595B;}
</style>
<defs>
</defs>
<g>
	<path class="st0" d="M3.4,0C2.9,1,2.5,2,2.3,3C2.1,4,1.9,5.1,1.9,6.2c0,1.1,0.1,2.1,0.4,3.2c0.2,1.1,0.6,2.1,1.1,3.1H1.8
		c-0.6-0.9-1-1.9-1.3-3S0,7.4,0,6.3c0-0.5,0-1,0.1-1.6C0.2,4.1,0.3,3.6,0.4,3S0.8,1.9,1,1.4c0.2-0.5,0.5-1,0.8-1.4H3.4z"/>
	<path class="st0" d="M4.3,5.4h4.1v1.7H4.3V5.4z"/>
	<path class="st0" d="M9.3,12.4c0.5-1,0.9-2,1.1-3c0.2-1,0.4-2.1,0.4-3.1c0-1.1-0.1-2.1-0.4-3.2C10.2,2,9.8,1,9.3,0h1.6
		c0.6,0.9,1,1.9,1.3,3c0.3,1,0.5,2.1,0.5,3.2c0,0.5,0,1-0.1,1.6s-0.2,1.1-0.3,1.7s-0.3,1.1-0.6,1.6c-0.2,0.5-0.5,1-0.8,1.4H9.3z"/>
</g>
</svg>
