<!-- Generator: Adobe Illustrator 20.1.0, SVG Export Plug-In  -->
<svg version="1.1"
	 xmlns="http://www.w3.org/2000/svg" xmlns:xlink="http://www.w3.org/1999/xlink" xmlns:a="http://ns.adobe.com/AdobeSVGViewerExtensions/3.0/"
	 x="0px" y="0px" width="17px" height="13.3px" viewBox="0 0 17 13.3" style="overflow:scroll;enable-background:new 0 0 17 13.3;"
	 xml:space="preserve">
<style type="text/css">
	.st0{fill:#FFFFFF;}
</style>
<defs>
</defs>
<g id="XMLID_1_">
	<g id="XMLID_8_">
		<path id="XMLID_9_" class="st0" d="M1.9,8.2C1.5,7.3,1.5,6,1.9,5c0.4-1,1.2-1.7,2.3-2l0,0.1C4.3,3.4,4.4,3.7,4.4,4
			c0.1,1.2-0.8,2.3-1.6,3.1C2.8,7.2,2.7,7.3,2.6,7.4C2.4,7.7,2.1,7.9,1.9,8.2z"/>
	</g>
	<g id="XMLID_4_">
		<path id="XMLID_5_" class="st0" d="M4.2,9.9c-0.8,0-1.6-0.5-2.1-1.3l0,0c0,0,0,0,0,0c0-0.2,0.2-0.4,0.4-0.6c0,0,0,0,0.1-0.1
			c0.2-0.2,0.4-0.4,0.6-0.6c0.5-0.4,1-0.8,1.6-1.1c0,0,0,0,0,0c0,0,0,0.1,0.1,0.1C4.8,6.5,4.9,6.6,5,6.7l0.1,0c0,0,0.1,0,0.1,0.1
			c0,0,0.1,0,0.1,0c0,0,0,0,0,0c0,0,0,0,0,0l0,0c0,0,0,0,0,0l0,0c0,0,0,0,0,0c0,0,0,0,0-0.1c0,0,0,0,0,0l-0.1,0c0,0-0.1-0.1-0.1-0.1
			l0,0l0,0C5,6.5,5,6.4,5,6.4l0,0c0,0,0-0.1,0-0.1c0.3-0.2,0.6-0.3,1-0.4c0,0,0,0,0,0.1c0,0,0,0,0,0c0,0,0,0.1,0.1,0.1
			c0.1,0.1,0.2,0.3,0.3,0.4c0,0,0.1,0.1,0.1,0.1c0,0,0,0,0,0c0,0,0,0,0,0c0,0,0.1,0,0.1-0.1c0,0,0,0,0,0c0-0.1-0.1-0.1-0.1-0.2
			c0,0,0-0.1-0.1-0.1c0,0,0-0.1,0-0.1c0,0,0-0.1,0-0.1l0,0c0,0,0,0,0-0.1c0.4-0.1,0.8-0.2,1.2-0.3c0,0,0,0.1,0,0.1l0,0l0,0.1
			c0,0.1,0.1,0.2,0.1,0.3l0,0c0,0,0,0.1,0.1,0.1c0,0,0,0,0.1,0.1c0,0,0.1,0.1,0.1,0.1l0,0c0,0,0,0,0,0c0,0,0,0,0,0c0,0,0,0,0,0
			c0,0,0,0,0,0c0,0,0,0,0,0c0,0,0-0.1-0.1-0.1c0,0,0,0,0-0.1l0,0c0-0.1-0.1-0.2-0.1-0.3l0-0.1l0-0.1l0,0c0,0,0,0,0-0.1
			C8,5.2,8.5,5.1,8.9,5.1c0,0.1,0,0.1,0,0.1c0,0,0,0.1,0,0.1c0,0,0,0.1,0,0.1c0,0.1,0.1,0.1,0.2,0.2c0,0,0.1,0.1,0.1,0.1
			c0.1,0,0.1,0.1,0.2,0.1l0,0c0.1,0,0.1,0,0.1,0c0,0,0,0,0,0l0,0h0c0,0,0,0,0,0c0,0,0,0,0-0.1c0,0,0,0,0,0c0,0,0,0-0.1-0.1
			c0,0-0.1-0.1-0.1-0.1c0,0-0.1-0.1-0.1-0.2l0,0c0,0,0,0,0-0.1l0,0c0,0,0,0,0-0.1l0,0l0,0c0,0,0-0.1,0-0.1c0.1,0,0.3,0,0.4,0
			c0.3,0,0.6-0.1,1-0.1c0.1,0.2,0.2,0.3,0.3,0.4c0,0,0.1,0,0.1,0c0,0,0,0,0,0c0.1,0,0.1,0,0.2,0l0,0c0,0,0,0,0,0c0,0,0,0,0,0
			c0,0,0,0,0-0.1c0,0,0,0,0,0c0,0,0,0-0.1,0c0,0,0,0,0,0c0,0,0,0,0,0l0,0c0,0,0,0,0,0c0,0,0,0-0.1-0.1c0,0,0-0.1-0.1-0.1
			c0,0,0,0,0,0c0,0,0,0,0,0l0,0c0,0,0,0,0,0c0.5-0.1,1.1-0.3,1.5-0.5c0,0,0,0,0,0.1c0,0,0.1,0.1,0.1,0.1c0,0,0,0,0,0
			c0.1,0.1,0.2,0.2,0.3,0.2c0,0,0,0,0,0h0c0,0,0,0,0,0c0,0,0,0,0-0.1c0,0,0,0,0,0c0,0,0,0,0,0c0,0,0,0-0.1-0.1c0,0,0,0,0,0
			c0,0-0.1-0.1-0.1-0.1c0,0,0,0,0,0c0,0,0-0.1-0.1-0.1c0,0,0,0,0,0c0.2-0.1,0.5-0.2,0.7-0.4c0.2-0.1,0.5-0.2,0.7-0.4c0,0,0,0,0,0.1
			c0,0,0,0.1,0.1,0.1l0,0l0,0c0,0,0,0.1,0.1,0.1c0,0,0,0,0.1,0.1l0,0c0.1,0.1,0.2,0.1,0.3,0.2c0,0,0.1,0,0.1,0c0,0,0,0,0,0
			c0,0,0,0,0,0c0,0,0,0,0.1,0c0,0,0,0,0-0.1c0,0,0,0,0,0l-0.1,0c-0.1,0-0.1-0.1-0.2-0.1l0,0c0,0,0,0,0,0l0,0l0,0c0,0,0,0-0.1-0.1
			c0,0,0,0-0.1-0.1l0,0c0,0,0,0,0,0c0,0,0,0,0-0.1c0,0,0,0,0,0c0.3-0.1,0.5-0.2,0.8-0.2c0.2,0,0.3-0.1,0.5-0.1
			c0.1,0.1,0.2,0.2,0.3,0.3c0,0,0,0,0,0c0,0,0,0,0,0c0,0,0,0,0,0c-0.1-0.1-0.2-0.2-0.3-0.3C15.6,3.1,15.9,3,16,2.7c0,0,0,0,0,0
			c0,0,0,0,0,0c0,0,0,0,0,0c0,0,0,0,0,0c0,0,0,0,0,0C15.8,2.9,15.5,3,15.3,3c-0.2,0-0.3,0.1-0.5,0.1c-0.3,0.1-0.6,0.1-0.8,0.2
			c0,0,0,0,0,0c0,0,0-0.1,0-0.1c0,0,0-0.1,0-0.1c0,0,0-0.1,0-0.1c0,0,0,0,0,0c0,0,0,0,0,0c0,0,0,0,0,0c0,0,0,0,0,0
			c0,0.1,0,0.1,0,0.2c0,0.1,0,0.1,0,0.2c-0.3,0.1-0.5,0.2-0.7,0.3c-0.2,0.1-0.5,0.2-0.7,0.4c0,0,0,0,0,0l0,0c0,0,0-0.1,0-0.1
			c0,0,0-0.1,0-0.1l0,0l0-0.1c0,0,0,0,0-0.1c0,0,0-0.1,0-0.1c0,0,0,0,0,0c0,0,0,0,0,0c0,0,0,0-0.1,0c0,0,0,0,0,0c0,0,0,0,0,0
			c0,0,0,0.1,0,0.1l0,0c0,0,0,0.1,0,0.1l0,0c0,0,0,0,0,0l0,0c0,0.1,0,0.1,0,0.2c0,0,0,0.1,0,0.1c0,0,0,0,0,0c-0.5,0.2-1,0.4-1.4,0.4
			c0-0.1,0-0.2,0-0.4l0-0.1c0-0.1,0-0.2,0-0.2c0,0,0,0,0,0c0,0,0,0-0.1,0c0,0,0,0,0,0c0,0,0,0,0,0c0,0.1-0.1,0.2-0.1,0.3
			c0,0,0,0,0,0c0,0,0,0.1,0,0.1c0,0.1,0,0.3,0,0.4c-0.3,0-0.6,0.1-0.9,0.1c-0.1,0-0.3,0-0.4,0l0,0l0,0l0,0c0-0.1,0-0.2,0-0.3
			c0,0,0,0,0-0.1c0,0,0,0,0-0.1c0,0,0-0.1,0-0.1c0,0,0-0.1,0-0.1c0,0,0,0,0,0c0,0,0,0,0,0c0,0,0,0,0,0c0,0,0,0,0,0c0,0,0,0,0,0
			c0,0,0,0-0.1,0.1c0,0-0.1,0.1-0.1,0.1C8.9,4.5,8.9,4.7,8.9,4.8c0,0,0,0,0,0l0,0l0,0c0,0,0,0,0,0C8.4,4.9,8,5,7.6,5.1
			c0,0,0-0.1,0-0.1l0,0c0,0,0,0,0-0.1l0,0l0-0.1c0,0,0,0,0,0l0,0c0,0,0,0,0,0c0,0,0,0,0,0c0,0,0,0,0,0c0,0,0,0,0-0.1c0,0,0,0,0,0
			c0,0,0,0,0,0c0,0,0.1-0.1,0.1-0.1c0,0,0,0,0,0c0,0,0,0,0-0.1c0,0,0,0-0.1,0c0,0,0,0,0,0c0,0,0,0-0.1,0c0,0-0.1,0-0.1,0.1
			c0,0-0.1,0.1-0.1,0.1l0,0c0,0,0,0,0,0.1c0,0,0,0,0,0c0,0,0,0,0,0.1c0,0,0,0,0,0c0,0,0,0,0,0.1l0,0c0,0,0,0,0,0.1
			c0,0.1,0,0.1,0,0.2l0,0C6.9,5.2,6.5,5.3,6.1,5.4l0,0l0,0c0,0,0,0,0,0c0,0,0-0.1,0-0.1c0-0.1,0.1-0.2,0.1-0.3c0,0,0,0,0,0
			c0,0,0,0,0,0c0,0,0,0,0,0c0,0,0,0,0,0c0,0,0,0,0,0c0,0-0.1,0.1-0.1,0.1C6,5,5.9,5.1,5.9,5.2l0,0.1c0,0,0,0,0,0.1l0,0
			c0,0,0,0,0,0.1l0,0c0,0,0,0,0,0l0,0.1c0,0,0,0,0,0c-0.3,0.1-0.6,0.3-1,0.4c0,0,0,0,0-0.1c0-0.1,0-0.2,0-0.2c0,0,0,0,0,0
			c0,0,0,0,0,0C5,5.5,5,5.4,5,5.4c0,0,0,0,0,0c0,0,0,0,0,0c0,0,0,0,0,0c0,0,0,0,0,0c0,0,0,0,0,0c0,0-0.1,0.1-0.1,0.1
			c0,0,0,0.1-0.1,0.1c0,0.1-0.1,0.2-0.1,0.3c0,0.1,0,0.1,0,0.2C4.3,6.2,4,6.4,3.6,6.6c0.6-0.8,1.1-1.7,1-2.6c0-0.3-0.1-0.6-0.2-0.9
			c0-0.1,0-0.1,0-0.2c0.2,0,0.4-0.1,0.6-0.1c0.1,0.3,0.4,0.4,0.8,0.4l0.1,0c0.2,0,0.6-0.2,0.7-0.5l0.1,0c0.4,0,0.9-0.1,1.3-0.1
			c0.2,0,0.3,0,0.5,0c0.3,0,0.5,0,0.9,0.1c0.1,0,0.1,0,0.2,0c0.3,0,0.6,0.1,0.9,0.1c0.1,0,0.2,0,0.3,0c0.1,0,0.2,0,0.4,0
			c0.3,0,0.5-0.1,0.8-0.1c0,0,0.1,0,0.1,0c0.1,0,0.2,0,0.3,0c0.2,0,0.3,0,0.5,0c0.2,0,0.4,0,0.5-0.1c0.4-0.1,0.7-0.3,1.1-0.4l0.1,0
			c0.1,0,0.2-0.1,0.3-0.1c0.3-0.2,0.7-0.4,1-0.5c0.1,0,0.2,0,0.3,0c0.2,0,0.6,0,0.7,0.4l0,0c0.3,0.8-0.3,1.5-0.8,1.9
			c-0.5,0.4-1.1,0.8-1.9,1.1C14.1,5,14,5,13.8,5.1c-0.2,0.1-0.5,0.2-0.7,0.3c-0.2,0.1-0.4,0.3-0.6,0.4c-0.1,0.1-0.2,0.2-0.4,0.3
			c-0.3,0.2-0.6,0.3-0.9,0.3c-0.1,0-0.1,0-0.2,0c-0.4,0.1-0.9,0.2-1.1,0.5c0,0,0,0-0.1,0c-0.1,0-0.2,0-0.3,0c0,0,0,0,0,0
			C9.4,6.9,9.3,6.9,9.1,7C8.9,7.1,8.7,7.2,8.5,7.3C8.2,7.6,7.9,7.9,7.6,8.2C7.5,8.3,7.4,8.4,7.3,8.6C6.5,9.3,5.6,9.8,4.6,9.9l-0.1,0
			l-0.1,0C4.2,9.9,4.2,9.9,4.2,9.9z M15.3,2.6C15.3,2.6,15.3,2.6,15.3,2.6c-0.1,0.1-0.1,0.1-0.1,0.2c0,0,0,0,0,0h0c0,0,0,0,0,0
			C15.3,2.8,15.3,2.7,15.3,2.6C15.3,2.6,15.3,2.6,15.3,2.6C15.3,2.6,15.3,2.6,15.3,2.6z"/>
	</g>
	<g id="XMLID_2_">
		<path id="XMLID_3_" class="st0" d="M9.7,13.3c-0.1,0-0.2-0.1-0.3-0.3c0,0,0,0,0-0.1c-0.3-0.5-0.5-1-0.6-1.4
			c-0.1-0.2-0.1-0.5-0.1-0.7c0-0.2-0.1-0.5-0.1-0.7c0,0,0-0.1,0-0.1l0,0c0-0.1,0-0.1-0.1-0.2c0,0,0,0,0,0c0,0,0-0.1,0-0.1l0-0.1
			c0-0.1,0-0.1,0-0.2c0,0,0,0,0,0c0,0,0,0,0-0.1l0-0.1c0,0,0-0.1,0-0.1l0,0l0-0.1c0,0,0,0,0,0c0,0,0,0,0-0.1l0.1-0.1
			C8.8,8.6,9.1,8.3,9.4,8c0,0,0,0,0,0c0,0,0,0,0-0.1c0,0,0,0,0,0c0,0,0,0,0,0c0,0,0,0,0,0C8.9,8.2,8.7,8.5,8.4,8.8L8.4,8.9
			c0,0,0,0.1,0,0.1c0,0,0,0,0,0l0,0.1C8.2,9.2,8.2,9.3,8.2,9.4c0,0.1,0,0.2-0.1,0.3l0,0.1c0,0.1,0,0.3,0.1,0.4l0,0c0,0,0,0,0,0
			c-0.1,0-0.1,0.1-0.2,0.1c-0.3,0.3-0.6,0.5-1,0.7c-0.4,0.2-0.9,0.3-1.4,0.4c-0.3,0.1-0.6,0.1-0.9,0.1c-0.7,0-1.5-0.2-2.3-0.5
			c-1.1-0.4-1.9-1.5-2.3-2.9C0.1,8,0.1,7.7,0,7.4c0-0.1,0-0.2,0-0.2c0-0.3,0-0.6,0-1c0.1-0.6,0.2-1.3,0.5-1.9C0.6,4.2,0.7,4,0.7,3.9
			C0.9,3.5,1.1,3,1.4,2.7c0.4-0.4,0.8-0.8,1.3-1c0.1,0,0.1-0.1,0.2-0.1C3.3,1.5,3.6,1.4,3.6,1c0-0.1-0.1-0.3-0.1-0.4l0,0
			c0,0,0,0,0-0.1c0-0.1-0.1-0.2,0-0.2c0-0.1,0.1-0.1,0.2-0.1c0,0,0,0,0.1,0c0.1,0,0.2-0.1,0.2-0.1c0,0,0.1,0,0.1,0c0,0,0,0.1,0,0.1
			C4,0.3,4.1,0.5,4.1,0.7c0,0,0,0.1,0,0.2c0,0.2,0,0.4,0.1,0.5c0.1,0,0.2,0.1,0.3,0.1c0.1,0,0.1,0,0.2,0c0.1,0,0.1,0,0.1,0
			c0,0,0,0,0,0c0.1,0,0.3,0,0.4,0c0.1,0,0.2,0,0.3,0c0.3,0,0.6,0,0.8,0.3c0.2,0.2,0.2,0.6,0.2,0.9c0,0.1,0,0.1,0,0.2c0,0,0,0,0,0
			C6.4,2.9,6.2,3.1,6,3.1c0,0,0,0,0,0l-0.1,0C5.6,3,5.4,2.9,5.2,2.7l0,0c0,0,0,0,0,0l0,0c-0.8,0-1.9,0.2-2.8,1
			C1.6,4.4,1.3,5.5,1.2,6.2C1.2,7,1.2,8.1,1.9,9.1c0.5,0.8,1.4,1.2,2.2,1.2c0.1,0,0.1,0,0.2,0l0.1,0l0.1,0c1.1-0.1,2.1-0.6,2.8-1.4
			c0.1-0.1,0.3-0.3,0.4-0.4C8.4,7.7,8.9,7,9.9,7c0,0,0,0,0,0c0.6,0.4,0.8,1.2,0.6,2.4c0,0,0,0.1,0,0.2c-0.1,0.2-0.1,0.4,0,0.6
			c0.1,0.2,0.2,0.4,0.2,0.6c0.1,0.5,0.2,0.9,0.4,1.4c0,0,0,0.1,0,0.1c0.1,0.1,0.1,0.3,0,0.4c-0.1,0.1-0.3,0.2-0.4,0.2
			c-0.1,0-0.2,0.1-0.2,0.1c-0.1,0-0.1,0.1-0.2,0.1C10.1,13.2,9.9,13.3,9.7,13.3C9.7,13.3,9.7,13.3,9.7,13.3z"/>
	</g>
</g>
</svg>
