<!-- Generator: Adobe Illustrator 21.1.0, SVG Export Plug-In  -->
<svg version="1.1"
	 xmlns="http://www.w3.org/2000/svg" xmlns:xlink="http://www.w3.org/1999/xlink" xmlns:a="http://ns.adobe.com/AdobeSVGViewerExtensions/3.0/"
	 x="0px" y="0px" width="240.1px" height="244.4px" viewBox="0 0 240.1 244.4" style="enable-background:new 0 0 240.1 244.4;"
	 xml:space="preserve">
<style type="text/css">
	.st0{fill:#C4C4C4;}
</style>
<defs>
</defs>
<g>
	<g>
		<path class="st0" d="M131.3,82.4H104V55.1c0-6-4.8-10.8-10.8-10.8c-6,0-10.8,4.8-10.8,10.8v27.3H55.1c-6,0-10.8,4.8-10.8,10.8
			c0,6,4.8,10.8,10.8,10.8h27.3v27.3c0,6,4.8,10.8,10.8,10.8c6,0,10.8-4.8,10.8-10.8V104h27.3c6,0,10.8-4.8,10.8-10.8
			C142.1,87.2,137.2,82.4,131.3,82.4z"/>
	</g>
	<g>
		<path class="st0" d="M190.1,167.4c-4.8-4.8-11.4-6.5-17.5-5.2l-8.9-8.3c14.1-16.3,22.6-37.6,22.6-60.8C186.3,41.8,144.5,0,93.2,0
			C41.8,0,0,41.8,0,93.2c0,51.4,41.8,93.2,93.2,93.2c20.4,0,39.2-6.6,54.6-17.7l10,9.3c-0.9,5.8,0.8,12,5.3,16.5l44.4,44.4
			c3.7,3.7,8.6,5.6,13.5,5.6c4.9,0,9.8-1.9,13.5-5.6c7.5-7.5,7.5-19.6,0-27.1L190.1,167.4z M93.2,164.7c-39.4,0-71.5-32.1-71.5-71.5
			s32.1-71.5,71.5-71.5c39.4,0,71.5,32.1,71.5,71.5S132.6,164.7,93.2,164.7z"/>
	</g>
</g>
</svg>
