<!-- Generator: Adobe Illustrator 21.1.0, SVG Export Plug-In  -->
<svg version="1.1"
	 xmlns="http://www.w3.org/2000/svg" xmlns:xlink="http://www.w3.org/1999/xlink" xmlns:a="http://ns.adobe.com/AdobeSVGViewerExtensions/3.0/"
	 x="0px" y="0px" width="355.2px" height="32.8px" viewBox="0 0 355.2 32.8" style="enable-background:new 0 0 355.2 32.8;"
	 xml:space="preserve">
<style type="text/css">
	.st0{fill:#58595B;}
</style>
<defs>
</defs>
<path class="st0" d="M8.1,0.2v1h-7v4.3h6.6v1H1.1v4.6h7.1v1H0V0.2H8.1z"/>
<path class="st0" d="M11.6,0.2V12h-1V0.2H11.6z"/>
<path class="st0" d="M20.9,9.2c0.1,0.4,0.3,0.8,0.5,1.1s0.5,0.6,0.9,0.8s0.8,0.3,1.3,0.3c0.8,0,1.4-0.2,1.8-0.6
	c0.4-0.4,0.7-0.9,0.9-1.6h1c-0.2,1-0.6,1.7-1.2,2.2s-1.4,0.8-2.5,0.8c-0.7,0-1.3-0.1-1.7-0.4s-0.9-0.6-1.2-1
	c-0.3-0.4-0.5-0.9-0.7-1.4c-0.1-0.5-0.2-1.1-0.2-1.7s0.1-1.1,0.2-1.6s0.4-1,0.7-1.4c0.3-0.4,0.7-0.8,1.2-1c0.5-0.3,1.1-0.4,1.7-0.4
	c0.7,0,1.3,0.1,1.7,0.4c0.5,0.3,0.9,0.6,1.2,1.1c0.3,0.4,0.5,1,0.7,1.5s0.2,1.2,0.2,1.8h-6.5C20.8,8.4,20.8,8.8,20.9,9.2z M26.1,6
	c-0.1-0.4-0.3-0.7-0.5-1c-0.3-0.2-0.6-0.4-0.9-0.6S24,4.1,23.6,4.1s-0.8,0.1-1.1,0.3c-0.3,0.2-0.6,0.4-0.8,0.7
	c-0.2,0.3-0.4,0.6-0.6,1c-0.1,0.4-0.2,0.7-0.3,1.1h5.5C26.3,6.8,26.2,6.4,26.1,6z"/>
<path class="st0" d="M34.6,5.2c-0.1-0.2-0.3-0.4-0.5-0.6s-0.4-0.3-0.7-0.3c-0.3-0.1-0.5-0.1-0.8-0.1c-0.2,0-0.5,0-0.7,0.1
	c-0.2,0-0.5,0.1-0.7,0.2C31,4.6,30.8,4.8,30.7,5s-0.2,0.4-0.2,0.7c0,0.2,0.1,0.4,0.2,0.6s0.3,0.3,0.4,0.4c0.2,0.1,0.4,0.2,0.6,0.3
	c0.2,0.1,0.4,0.1,0.6,0.2l1.4,0.3c0.3,0,0.6,0.1,0.9,0.2c0.3,0.1,0.5,0.3,0.8,0.5c0.2,0.2,0.4,0.4,0.6,0.7s0.2,0.6,0.2,1
	c0,0.5-0.1,0.9-0.3,1.2s-0.5,0.6-0.8,0.8s-0.7,0.3-1.1,0.4s-0.8,0.1-1.2,0.1c-1,0-1.8-0.2-2.4-0.7s-1-1.2-1.1-2.3h1
	c0,0.7,0.3,1.2,0.8,1.6s1,0.5,1.7,0.5c0.3,0,0.5,0,0.8-0.1s0.5-0.1,0.7-0.3s0.4-0.3,0.6-0.5s0.2-0.5,0.2-0.7c0-0.3-0.1-0.5-0.2-0.6
	c-0.1-0.2-0.2-0.3-0.4-0.4s-0.4-0.2-0.6-0.3c-0.2-0.1-0.5-0.1-0.7-0.2l-1.3-0.3c-0.4-0.3-0.7-0.4-0.9-0.5c-0.3-0.1-0.5-0.3-0.7-0.4
	C30,7,29.8,6.8,29.7,6.6S29.5,6,29.5,5.7c0-0.4,0.1-0.8,0.3-1.1C30,4.2,30.2,4,30.6,3.8c0.3-0.2,0.7-0.3,1-0.4s0.8-0.1,1.1-0.1
	c0.4,0,0.8,0.1,1.2,0.2c0.4,0.1,0.7,0.3,1,0.5c0.3,0.2,0.5,0.5,0.7,0.9c0.2,0.3,0.3,0.7,0.3,1.2h-1C34.8,5.7,34.7,5.4,34.6,5.2z"/>
<path class="st0" d="M42,3.5v0.9h-1.7v5.7c0,0.3,0,0.6,0.1,0.8s0.3,0.3,0.7,0.3c0.3,0,0.6,0,0.9,0v0.9c-0.2,0-0.3,0-0.5,0
	s-0.3,0-0.5,0c-0.7,0-1.2-0.1-1.4-0.4c-0.3-0.3-0.4-0.8-0.4-1.5V4.4h-1.5V3.5h1.5V1h1v2.6L42,3.5L42,3.5z"/>
<path class="st0" d="M45.4,3.5v2l0,0c0.3-0.7,0.7-1.2,1.2-1.6c0.6-0.4,1.2-0.5,2-0.5v1c-0.5,0-0.9,0-1.3,0.2c-0.4,0.1-0.7,0.4-1,0.6
	s-0.5,0.6-0.7,1S45.4,7,45.4,7.4v4.5h-1V3.5H45.4z"/>
<path class="st0" d="M51.4,9.2c0.1,0.4,0.3,0.8,0.5,1.1s0.5,0.6,0.9,0.8s0.8,0.3,1.3,0.3c0.8,0,1.4-0.2,1.8-0.6
	c0.4-0.4,0.7-0.9,0.9-1.6h1c-0.2,1-0.6,1.7-1.2,2.2c-0.6,0.5-1.4,0.8-2.5,0.8c-0.7,0-1.3-0.1-1.7-0.4s-0.9-0.6-1.2-1
	s-0.5-0.9-0.7-1.4c-0.1-0.5-0.2-1.1-0.2-1.7s0.1-1.1,0.2-1.6s0.4-1,0.7-1.4s0.7-0.8,1.2-1c0.5-0.3,1.1-0.4,1.7-0.4
	c0.7,0,1.3,0.1,1.7,0.4c0.5,0.2,0.9,0.6,1.2,1.1c0.3,0.4,0.5,1,0.7,1.5s0.2,1.2,0.2,1.8h-6.5C51.3,8.4,51.3,8.8,51.4,9.2z M56.6,6
	c-0.1-0.4-0.3-0.7-0.5-1s-0.5-0.5-0.8-0.7S54.6,4,54.2,4c-0.4,0-0.8,0.1-1.1,0.3c-0.3,0.2-0.6,0.4-0.8,0.7s-0.4,0.6-0.6,1
	c-0.1,0.4-0.2,0.7-0.3,1.1h5.5C56.8,6.8,56.7,6.4,56.6,6z M53,2.3L54.7,0H56l-2.2,2.3H53z"/>
<path class="st0" d="M65.1,5.2C65,5,64.8,4.8,64.6,4.6s-0.4-0.3-0.7-0.3c-0.3-0.1-0.5-0.1-0.8-0.1c-0.2,0-0.5,0-0.7,0.1
	c-0.2,0-0.5,0.1-0.7,0.2S61.3,4.8,61.2,5C61.1,5.1,61,5.3,61,5.6c0,0.2,0.1,0.4,0.2,0.6s0.3,0.3,0.4,0.4c0.2,0.1,0.4,0.2,0.6,0.3
	C62.4,7,62.6,7,62.8,7.1l1.4,0.3c0.3,0,0.6,0.1,0.9,0.2s0.5,0.3,0.8,0.5c0.2,0.2,0.4,0.4,0.6,0.7s0.2,0.6,0.2,1
	c0,0.5-0.1,0.9-0.3,1.2c-0.2,0.3-0.5,0.6-0.8,0.8s-0.7,0.3-1.1,0.4s-0.8,0.1-1.2,0.1c-1,0-1.8-0.2-2.4-0.7c-0.6-0.5-1-1.2-1.1-2.3h1
	c0,0.7,0.3,1.2,0.8,1.6s1,0.5,1.7,0.5c0.3,0,0.5,0,0.8-0.1c0.3-0.1,0.5-0.1,0.7-0.3s0.4-0.3,0.6-0.5s0.2-0.5,0.2-0.7
	c0-0.3-0.1-0.5-0.2-0.6C65.3,9,65.2,8.8,65,8.7s-0.4-0.2-0.6-0.3s-0.5-0.1-0.7-0.2l-1.3-0.3c-0.4-0.1-0.7-0.2-1-0.3
	c-0.3-0.1-0.5-0.3-0.7-0.4c-0.2-0.2-0.4-0.4-0.5-0.6S60,6,60,5.6s0.1-0.8,0.3-1.1S60.7,4,61,3.8s0.7-0.3,1-0.4s0.8-0.1,1.1-0.1
	c0.4,0,0.8,0.1,1.2,0.2c0.4,0.1,0.7,0.3,1,0.5c0.3,0.2,0.6,0.5,0.7,0.8c0.2,0.3,0.3,0.7,0.3,1.2h-1C65.3,5.7,65.2,5.4,65.1,5.2z"/>
<path class="st0" d="M75.6,3.5v1.6l0,0c0.2-0.6,0.6-1.1,1.2-1.4c0.5-0.3,1.2-0.5,1.9-0.5c0.6,0,1.2,0.1,1.7,0.4
	c0.5,0.2,0.9,0.6,1.2,1C81.9,5,82.2,5.5,82.3,6c0.2,0.5,0.2,1.1,0.2,1.7s-0.1,1.2-0.2,1.7c-0.2,0.5-0.4,1-0.7,1.4
	c-0.3,0.4-0.7,0.7-1.2,1c-0.5,0.2-1,0.4-1.7,0.4c-0.3,0-0.6,0-0.9-0.1s-0.6-0.2-0.9-0.3s-0.5-0.3-0.7-0.6s-0.4-0.5-0.5-0.8l0,0v4.7
	h-1V3.5H75.6z M81.3,6.4C81.2,6,81,5.6,80.8,5.2c-0.2-0.3-0.5-0.6-0.9-0.8s-0.8-0.3-1.3-0.3c-0.6,0-1,0.1-1.4,0.3
	c-0.4,0.2-0.7,0.5-0.9,0.8c-0.2,0.3-0.4,0.7-0.5,1.2c0,0.4-0.1,0.9-0.1,1.4c0,0.4,0.1,0.9,0.2,1.3s0.3,0.8,0.5,1.2s0.5,0.6,0.9,0.8
	s0.8,0.3,1.4,0.3c0.5,0,0.9-0.1,1.3-0.3s0.6-0.5,0.9-0.8c0.2-0.3,0.4-0.7,0.5-1.2c0.1-0.4,0.2-0.9,0.2-1.3
	C81.5,7.3,81.4,6.9,81.3,6.4z"/>
<path class="st0" d="M85.9,9.2c0.1,0.4,0.3,0.8,0.5,1.1s0.5,0.6,0.9,0.8s0.8,0.3,1.3,0.3c0.8,0,1.4-0.2,1.8-0.6
	c0.4-0.4,0.7-0.9,0.9-1.6h1c-0.2,1-0.6,1.7-1.2,2.2s-1.4,0.8-2.5,0.8c-0.7,0-1.3-0.1-1.7-0.4s-0.9-0.6-1.2-1
	c-0.3-0.4-0.5-0.9-0.7-1.4c-0.1-0.5-0.2-1.1-0.2-1.7s0.1-1.1,0.2-1.6s0.4-1,0.7-1.4c0.3-0.4,0.7-0.8,1.2-1c0.5-0.3,1.1-0.4,1.7-0.4
	c0.7,0,1.3,0.1,1.7,0.4c0.5,0.3,0.9,0.6,1.2,1.1c0.3,0.4,0.5,1,0.7,1.5s0.2,1.2,0.2,1.8h-6.5C85.7,8.4,85.8,8.8,85.9,9.2z M91,6
	c-0.1-0.4-0.3-0.7-0.5-1c-0.2-0.2-0.5-0.4-0.9-0.6c-0.3-0.2-0.7-0.3-1.1-0.3s-0.8,0.1-1.1,0.3c-0.3,0.2-0.6,0.4-0.8,0.7
	c-0.2,0.3-0.4,0.6-0.6,1c-0.1,0.4-0.2,0.7-0.3,1.1h5.5C91.2,6.8,91.1,6.4,91,6z"/>
<path class="st0" d="M95.6,3.5v2l0,0c0.3-0.7,0.7-1.2,1.2-1.6c0.6-0.4,1.2-0.5,2-0.5v1c-0.5,0-0.9,0-1.3,0.2c-0.4,0.1-0.7,0.4-1,0.6
	s-0.5,0.6-0.7,1S95.6,7,95.6,7.4v4.5h-1V3.5H95.6z"/>
<path class="st0" d="M105.7,5.2c-0.1-0.2-0.3-0.4-0.5-0.6s-0.4-0.3-0.7-0.3c-0.3-0.1-0.5-0.1-0.8-0.1c-0.2,0-0.5,0-0.7,0.1
	c-0.2,0-0.5,0.1-0.7,0.2s-0.4,0.3-0.5,0.5s-0.2,0.4-0.2,0.7c0,0.2,0.1,0.4,0.2,0.6s0.3,0.3,0.4,0.4c0.2,0.1,0.4,0.2,0.6,0.3
	c0.2,0.1,0.4,0.1,0.6,0.2l1.4,0.3c0.3,0,0.6,0.1,0.9,0.2s0.5,0.3,0.8,0.5c0.2,0.2,0.4,0.4,0.6,0.7s0.2,0.6,0.2,1
	c0,0.5-0.1,0.9-0.3,1.2c-0.2,0.3-0.5,0.6-0.8,0.8s-0.7,0.3-1.1,0.4s-0.8,0.1-1.2,0.1c-1,0-1.8-0.2-2.4-0.7s-1-1.2-1.1-2.3h1
	c0,0.7,0.3,1.2,0.8,1.6s1,0.5,1.7,0.5c0.3,0,0.5,0,0.8-0.1s0.5-0.1,0.7-0.3s0.4-0.3,0.6-0.5s0.2-0.5,0.2-0.7c0-0.3-0.1-0.5-0.2-0.6
	c-0.1-0.2-0.2-0.3-0.4-0.4s-0.4-0.2-0.6-0.3s-0.5-0.1-0.7-0.2L103,7.9c-0.3-0.1-0.7-0.2-0.9-0.3c-0.3-0.1-0.5-0.3-0.7-0.4
	c-0.2-0.2-0.4-0.4-0.5-0.6s-0.2-0.6-0.2-0.9c0-0.4,0.1-0.8,0.3-1.1c0.2-0.3,0.4-0.6,0.7-0.7c0.3-0.2,0.7-0.3,1-0.4s0.8-0.1,1.1-0.1
	c0.4,0,0.8,0.1,1.2,0.2c0.4,0.1,0.7,0.3,1,0.5c0.3,0.2,0.5,0.5,0.7,0.9c0.2,0.3,0.3,0.7,0.3,1.2h-1C105.9,5.7,105.8,5.4,105.7,5.2z"
	/>
<path class="st0" d="M110.8,0.2v1.7h-1V0.2H110.8z M110.8,3.5V12h-1V3.5H110.8z"/>
<path class="st0" d="M118.7,5.2c-0.1-0.2-0.3-0.4-0.5-0.6s-0.4-0.3-0.7-0.3c-0.3-0.1-0.5-0.1-0.8-0.1c-0.2,0-0.5,0-0.7,0.1
	c-0.2,0-0.5,0.1-0.7,0.2s-0.4,0.3-0.5,0.5s-0.2,0.4-0.2,0.7c0,0.2,0.1,0.4,0.2,0.6s0.3,0.3,0.4,0.4c0.2,0.1,0.4,0.2,0.6,0.3
	c0.2,0.1,0.4,0.1,0.6,0.2l1.4,0.3c0.3,0,0.6,0.1,0.9,0.2s0.5,0.3,0.8,0.5c0.2,0.2,0.4,0.4,0.6,0.7s0.2,0.6,0.2,1
	c0,0.5-0.1,0.9-0.3,1.2c-0.2,0.3-0.5,0.6-0.8,0.8s-0.7,0.3-1.1,0.4s-0.8,0.1-1.2,0.1c-1,0-1.8-0.2-2.4-0.7s-1-1.2-1.1-2.3h1
	c0,0.7,0.3,1.2,0.8,1.6s1,0.5,1.7,0.5c0.3,0,0.5,0,0.8-0.1s0.5-0.1,0.7-0.3s0.4-0.3,0.6-0.5s0.2-0.5,0.2-0.7c0-0.3-0.1-0.5-0.2-0.6
	c-0.1-0.2-0.2-0.3-0.4-0.4s-0.4-0.2-0.6-0.3s-0.5-0.1-0.7-0.2L116,7.9c-0.3-0.1-0.7-0.2-0.9-0.3c-0.3-0.1-0.5-0.3-0.7-0.4
	c-0.2-0.2-0.4-0.4-0.5-0.6s-0.2-0.6-0.2-0.9c0-0.4,0.1-0.8,0.3-1.1c0.2-0.3,0.4-0.6,0.7-0.7c0.3-0.2,0.7-0.3,1-0.4s0.8-0.1,1.1-0.1
	c0.4,0,0.8,0.1,1.2,0.2c0.4,0.1,0.7,0.3,1,0.5c0.3,0.2,0.5,0.5,0.7,0.9c0.2,0.3,0.3,0.7,0.3,1.2h-1C118.9,5.7,118.8,5.4,118.7,5.2z"
	/>
<path class="st0" d="M126.1,3.5v0.9h-1.7v5.7c0,0.3,0,0.6,0.1,0.8s0.3,0.3,0.7,0.3c0.3,0,0.6,0,0.9,0v0.9c-0.2,0-0.3,0-0.5,0
	s-0.3,0-0.5,0c-0.7,0-1.2-0.1-1.4-0.4c-0.3-0.3-0.4-0.8-0.4-1.5V4.4h-1.5V3.5h1.5V1h1v2.6L126.1,3.5L126.1,3.5z"/>
<path class="st0" d="M129.3,9.2c0.1,0.4,0.3,0.8,0.5,1.1s0.5,0.6,0.9,0.8s0.8,0.3,1.3,0.3c0.8,0,1.4-0.2,1.8-0.6
	c0.4-0.4,0.7-0.9,0.9-1.6h1c-0.2,1-0.6,1.7-1.2,2.2c-0.6,0.5-1.4,0.8-2.5,0.8c-0.7,0-1.3-0.1-1.7-0.4s-0.9-0.6-1.2-1
	s-0.5-0.9-0.7-1.4c-0.1-0.5-0.2-1.1-0.2-1.7s0.1-1.1,0.2-1.6s0.4-1,0.7-1.4s0.7-0.8,1.2-1c0.5-0.3,1.1-0.4,1.7-0.4
	c0.7,0,1.3,0.1,1.7,0.4c0.5,0.3,0.9,0.6,1.2,1.1c0.3,0.4,0.5,1,0.7,1.5s0.2,1.2,0.2,1.8h-6.5C129.2,8.4,129.2,8.8,129.3,9.2z
	 M134.5,6c-0.1-0.4-0.3-0.7-0.5-1s-0.5-0.5-0.8-0.7S132.5,4,132.1,4s-0.8,0.1-1.1,0.3c-0.3,0.2-0.6,0.4-0.8,0.7s-0.4,0.6-0.6,1
	c-0.1,0.4-0.2,0.7-0.3,1.1h5.5C134.6,6.8,134.6,6.4,134.5,6z"/>
<path class="st0" d="M139.1,3.5V5l0,0c0.2-0.5,0.5-0.9,1.1-1.2s1.1-0.5,1.7-0.5c0.6,0,1.1,0.1,1.5,0.2c0.4,0.2,0.7,0.4,1,0.7
	c0.2,0.3,0.4,0.6,0.5,1s0.1,0.9,0.1,1.4v5.5h-1V6.7c0-0.4,0-0.7-0.1-1s-0.2-0.6-0.3-0.8c-0.2-0.2-0.4-0.4-0.7-0.5s-0.6-0.2-1-0.2
	s-0.8,0.1-1.1,0.2S140.2,4.8,140,5c-0.2,0.3-0.4,0.6-0.5,0.9c-0.1,0.4-0.2,0.7-0.2,1.2v5h-1V3.5H139.1z"/>
<path class="st0" d="M151.3,3.5v0.9h-1.7v5.7c0,0.3,0,0.6,0.1,0.8s0.3,0.3,0.7,0.3c0.3,0,0.6,0,0.9,0v0.9c-0.2,0-0.3,0-0.5,0
	s-0.3,0-0.5,0c-0.7,0-1.2-0.1-1.4-0.4c-0.3-0.3-0.4-0.8-0.4-1.5V4.4H147V3.5h1.5V1h1v2.6L151.3,3.5L151.3,3.5z"/>
<path class="st0" d="M154.5,9.2c0.1,0.4,0.3,0.8,0.5,1.1s0.5,0.6,0.9,0.8s0.8,0.3,1.3,0.3c0.8,0,1.4-0.2,1.8-0.6
	c0.4-0.4,0.7-0.9,0.9-1.6h1c-0.2,1-0.6,1.7-1.2,2.2c-0.6,0.5-1.4,0.8-2.5,0.8c-0.7,0-1.3-0.1-1.7-0.4s-0.9-0.6-1.2-1
	s-0.5-0.9-0.7-1.4c-0.1-0.5-0.2-1.1-0.2-1.7s0.1-1.1,0.2-1.6s0.4-1,0.7-1.4s0.7-0.8,1.2-1c0.5-0.3,1.1-0.4,1.7-0.4
	c0.7,0,1.3,0.1,1.7,0.4c0.5,0.3,0.9,0.6,1.2,1.1c0.3,0.4,0.5,1,0.7,1.5s0.2,1.2,0.2,1.8h-6.5C154.4,8.4,154.4,8.8,154.5,9.2z
	 M159.7,6c-0.1-0.4-0.3-0.7-0.5-1s-0.5-0.5-0.8-0.7S157.7,4,157.3,4s-0.8,0.1-1.1,0.3c-0.3,0.2-0.6,0.4-0.8,0.7s-0.4,0.6-0.6,1
	c-0.1,0.4-0.2,0.7-0.3,1.1h5.5C159.9,6.8,159.8,6.4,159.7,6z"/>
<path class="st0" d="M169.9,0.2v1.7h-1V0.2H169.9z M169.9,3.5V12h-1V3.5H169.9z"/>
<path class="st0" d="M173.9,3.5V5l0,0c0.2-0.5,0.5-0.9,1.1-1.2s1.1-0.5,1.7-0.5c0.6,0,1.1,0.1,1.5,0.2c0.4,0.2,0.7,0.4,1,0.7
	c0.2,0.3,0.4,0.6,0.5,1s0.1,0.9,0.1,1.4v5.5h-1V6.7c0-0.4,0-0.7-0.1-1s-0.2-0.6-0.3-0.8c-0.2-0.2-0.4-0.4-0.7-0.5s-0.6-0.2-1-0.2
	s-0.8,0.1-1.1,0.2S175,4.8,174.8,5c-0.2,0.3-0.4,0.6-0.5,0.9c-0.1,0.4-0.2,0.7-0.2,1.2v5h-1V3.5H173.9z"/>
<path class="st0" d="M183.8,0.2v4.7l0,0c0.2-0.5,0.5-0.9,1.1-1.2s1.1-0.5,1.7-0.5c0.6,0,1.1,0.1,1.5,0.2c0.4,0.2,0.7,0.4,1,0.7
	c0.2,0.3,0.4,0.6,0.5,1s0.1,0.9,0.1,1.4V12h-1V6.7c0-0.4,0-0.7-0.1-1s-0.2-0.6-0.3-0.8c-0.2-0.2-0.4-0.4-0.7-0.5s-0.6-0.2-1-0.2
	s-0.8,0.1-1.1,0.2s-0.6,0.4-0.8,0.6c-0.2,0.3-0.4,0.6-0.5,0.9c-0.1,0.4-0.2,0.7-0.2,1.2v5h-1V0.2H183.8z"/>
<path class="st0" d="M193.6,0.2v1.7h-1V0.2H193.6z M193.6,3.5V12h-1V3.5H193.6z"/>
<path class="st0" d="M197.7,0.2v4.9l0,0c0.1-0.3,0.3-0.6,0.5-0.8c0.2-0.2,0.4-0.4,0.7-0.6c0.3-0.2,0.5-0.3,0.9-0.4
	c0.3-0.1,0.6-0.1,0.9-0.1c0.6,0,1.2,0.1,1.7,0.4c0.5,0.2,0.9,0.6,1.2,1s0.6,0.9,0.7,1.4c0.2,0.5,0.2,1.1,0.2,1.7s-0.1,1.2-0.2,1.7
	c-0.2,0.5-0.4,1-0.7,1.4s-0.7,0.7-1.2,1c-0.5,0.2-1,0.4-1.7,0.4s-1.3-0.2-1.9-0.5s-0.9-0.8-1.2-1.4l0,0v1.6h-1V0.2H197.7z
	 M203.3,6.4c-0.1-0.4-0.3-0.8-0.5-1.2c-0.2-0.3-0.5-0.6-0.9-0.8s-0.8-0.3-1.3-0.3s-1,0.1-1.4,0.3c-0.4,0.2-0.7,0.5-0.9,0.8
	s-0.4,0.7-0.5,1.2c-0.1,0.4-0.2,0.9-0.2,1.3c0,0.4,0.1,0.9,0.2,1.3c0.1,0.4,0.3,0.8,0.5,1.2s0.5,0.6,0.9,0.8s0.8,0.3,1.4,0.3
	c0.5,0,0.9-0.1,1.3-0.3c0.4-0.2,0.6-0.5,0.9-0.8c0.2-0.3,0.4-0.7,0.5-1.2c0.1-0.4,0.2-0.9,0.2-1.3C203.4,7.3,203.4,6.9,203.3,6.4z"
	/>
<path class="st0" d="M207.8,9.2c0.1,0.4,0.3,0.8,0.5,1.1s0.5,0.6,0.9,0.8s0.8,0.3,1.3,0.3c0.8,0,1.4-0.2,1.8-0.6
	c0.4-0.4,0.7-0.9,0.9-1.6h1c-0.2,1-0.6,1.7-1.2,2.2c-0.6,0.5-1.4,0.8-2.5,0.8c-0.7,0-1.3-0.1-1.7-0.4s-0.9-0.6-1.2-1
	s-0.5-0.9-0.7-1.4c-0.1-0.5-0.2-1.1-0.2-1.7s0.1-1.1,0.2-1.6s0.4-1,0.7-1.4s0.7-0.8,1.2-1c0.5-0.3,1.1-0.4,1.7-0.4
	c0.7,0,1.3,0.1,1.7,0.4c0.5,0.3,0.9,0.6,1.2,1.1c0.3,0.4,0.5,1,0.7,1.5s0.2,1.2,0.2,1.8h-6.5C207.7,8.4,207.7,8.8,207.8,9.2z M213,6
	c-0.1-0.4-0.3-0.7-0.5-1s-0.5-0.5-0.8-0.7S211,4,210.6,4s-0.8,0.1-1.1,0.3c-0.3,0.2-0.6,0.4-0.8,0.7s-0.4,0.6-0.6,1
	c-0.1,0.4-0.2,0.7-0.3,1.1h5.5C213.2,6.8,213.1,6.4,213,6z"/>
<path class="st0" d="M222.9,9.2c0.1,0.4,0.3,0.8,0.5,1.1s0.5,0.6,0.9,0.8s0.8,0.3,1.3,0.3c0.8,0,1.4-0.2,1.8-0.6
	c0.4-0.4,0.7-0.9,0.9-1.6h1c-0.2,1-0.6,1.7-1.2,2.2c-0.6,0.5-1.4,0.8-2.5,0.8c-0.7,0-1.3-0.1-1.7-0.4s-0.9-0.6-1.2-1
	s-0.5-0.9-0.7-1.4c-0.1-0.5-0.2-1.1-0.2-1.7s0.1-1.1,0.2-1.6s0.4-1,0.7-1.4s0.7-0.8,1.2-1c0.5-0.3,1.1-0.4,1.7-0.4
	c0.7,0,1.3,0.1,1.7,0.4c0.5,0.3,0.9,0.6,1.2,1.1c0.3,0.4,0.5,1,0.7,1.5s0.2,1.2,0.2,1.8h-6.5C222.8,8.4,222.8,8.8,222.9,9.2z
	 M228.1,6c-0.1-0.4-0.3-0.7-0.5-1s-0.5-0.5-0.8-0.7S226.1,4,225.7,4c-0.4,0-0.8,0.1-1.1,0.3c-0.3,0.2-0.6,0.4-0.8,0.7
	s-0.4,0.6-0.6,1c-0.1,0.4-0.2,0.7-0.3,1.1h5.5C228.3,6.8,228.2,6.4,228.1,6z"/>
<path class="st0" d="M232.8,0.2V12h-1V0.2H232.8z"/>
<path class="st0" d="M242.3,3.5v1.4l0,0c0.3-0.5,0.6-0.9,1.1-1.2c0.4-0.3,1-0.4,1.7-0.4c0.6,0,1.1,0.1,1.5,0.4
	c0.5,0.3,0.8,0.7,0.9,1.3c0.3-0.6,0.6-1,1.1-1.3s1-0.4,1.6-0.4c1.9,0,2.8,1,2.8,3v5.8h-1V6.3c0-0.7-0.1-1.2-0.4-1.6
	c-0.3-0.4-0.8-0.6-1.6-0.6c-0.5,0-0.8,0.1-1.1,0.3c-0.3,0.2-0.5,0.4-0.7,0.7s-0.3,0.6-0.4,1c-0.1,0.4-0.1,0.7-0.1,1.1V12h-1V6.2
	c0-0.3,0-0.6-0.1-0.8c-0.1-0.3-0.2-0.5-0.3-0.7s-0.3-0.3-0.6-0.5c-0.2-0.1-0.5-0.2-0.8-0.2c-0.4,0-0.8,0.1-1.1,0.2S243.2,4.8,243,5
	c-0.2,0.3-0.4,0.6-0.5,1s-0.1,0.8-0.1,1.2v4.7h-1V3.5H242.3z"/>
<path class="st0" d="M256.8,9.2c0.1,0.4,0.3,0.8,0.5,1.1s0.5,0.6,0.9,0.8s0.8,0.3,1.3,0.3c0.8,0,1.4-0.2,1.8-0.6
	c0.4-0.4,0.7-0.9,0.9-1.6h1c-0.2,1-0.6,1.7-1.2,2.2s-1.4,0.8-2.5,0.8c-0.7,0-1.3-0.1-1.7-0.4s-0.9-0.6-1.2-1
	c-0.3-0.4-0.5-0.9-0.7-1.4c-0.1-0.5-0.2-1.1-0.2-1.7s0.1-1.1,0.2-1.6s0.4-1,0.7-1.4s0.7-0.8,1.2-1c0.5-0.3,1.1-0.4,1.7-0.4
	c0.7,0,1.3,0.1,1.7,0.4c0.5,0.3,0.9,0.6,1.2,1.1c0.3,0.4,0.5,1,0.7,1.5s0.2,1.2,0.2,1.8h-6.5C256.6,8.4,256.7,8.8,256.8,9.2z
	 M261.9,6c-0.1-0.4-0.3-0.7-0.5-1s-0.5-0.5-0.8-0.7S259.9,4,259.5,4s-0.8,0.1-1.1,0.3c-0.3,0.2-0.6,0.4-0.8,0.7
	c-0.2,0.3-0.4,0.6-0.6,1c-0.1,0.4-0.2,0.7-0.3,1.1h5.5C262.1,6.8,262.1,6.4,261.9,6z"/>
<path class="st0" d="M270.8,4.7c-0.4-0.4-0.9-0.5-1.6-0.5c-0.5,0-0.9,0.1-1.3,0.3S267.2,5,267,5.3s-0.4,0.7-0.6,1.2
	s-0.2,0.9-0.2,1.3c0,0.5,0.1,0.9,0.2,1.3c0.1,0.4,0.3,0.8,0.6,1.2c0.2,0.3,0.6,0.6,0.9,0.8c0.4,0.2,0.8,0.3,1.3,0.3
	c0.3,0,0.6-0.1,0.9-0.2c0.3-0.1,0.5-0.3,0.8-0.5c0.2-0.2,0.4-0.5,0.5-0.8s0.2-0.6,0.3-1h1c-0.1,1-0.5,1.8-1.1,2.4s-1.4,0.9-2.4,0.9
	c-0.6,0-1.2-0.1-1.7-0.4c-0.5-0.2-0.9-0.6-1.3-1s-0.6-0.9-0.8-1.4c-0.2-0.5-0.3-1.1-0.3-1.7s0.1-1.2,0.3-1.7c0.2-0.5,0.4-1,0.8-1.4
	c0.3-0.4,0.8-0.7,1.3-1c0.5-0.2,1.1-0.4,1.7-0.4c0.9,0,1.7,0.2,2.3,0.7c0.6,0.5,1,1.2,1.1,2.2h-1C271.4,5.5,271.1,5,270.8,4.7z"/>
<path class="st0" d="M275.3,4.8c0.2-0.4,0.4-0.7,0.7-0.9c0.3-0.2,0.7-0.4,1.1-0.5s0.9-0.2,1.4-0.2c0.4,0,0.7,0,1.1,0.1
	s0.7,0.2,1,0.4s0.5,0.5,0.7,0.8c0.2,0.4,0.3,0.8,0.3,1.4v4.5c0,0.4,0.2,0.6,0.6,0.6c0.1,0,0.2,0,0.3-0.1v0.9c-0.1,0-0.2,0-0.3,0
	c-0.1,0-0.2,0-0.4,0c-0.3,0-0.5,0-0.6-0.1s-0.3-0.2-0.4-0.3s-0.1-0.3-0.2-0.5s0-0.4,0-0.6l0,0c-0.2,0.3-0.4,0.5-0.6,0.7
	s-0.4,0.4-0.6,0.5s-0.5,0.3-0.8,0.3c-0.3,0.1-0.7,0.1-1.1,0.1s-0.8,0-1.1-0.1c-0.3-0.1-0.6-0.2-0.9-0.4s-0.5-0.5-0.6-0.8
	s-0.2-0.7-0.2-1.1c0-0.6,0.1-1.1,0.4-1.4c0.3-0.3,0.6-0.6,1-0.8s0.9-0.3,1.5-0.4c0.5-0.1,1.1-0.1,1.7-0.2c0.2,0,0.4,0,0.6-0.1
	c0.2,0,0.3-0.1,0.4-0.2s0.2-0.2,0.3-0.3c0.1-0.1,0.1-0.3,0.1-0.6c0-0.4-0.1-0.6-0.2-0.9s-0.3-0.4-0.5-0.5s-0.4-0.2-0.7-0.3
	c-0.3,0-0.6-0.1-0.9-0.1c-0.7,0-1.2,0.2-1.6,0.5s-0.6,0.8-0.7,1.5h-1C275,5.6,275.1,5.2,275.3,4.8z M280.5,7.4
	c-0.1,0.1-0.2,0.2-0.4,0.3c-0.2,0.1-0.4,0.1-0.5,0.1c-0.4,0.1-0.9,0.1-1.4,0.2c-0.5,0.1-0.9,0.2-1.3,0.3s-0.7,0.3-0.9,0.5
	s-0.4,0.5-0.4,1c0,0.3,0.1,0.5,0.2,0.7s0.2,0.4,0.4,0.5c0.2,0.1,0.4,0.3,0.6,0.3c0.2,0.1,0.5,0.1,0.7,0.1c0.4,0,0.8-0.1,1.1-0.2
	c0.4-0.1,0.7-0.3,0.9-0.5c0.3-0.2,0.5-0.5,0.6-0.8s0.2-0.7,0.2-1.1L280.5,7.4L280.5,7.4z"/>
<path class="st0" d="M285.7,3.5V5l0,0c0.2-0.5,0.5-0.9,1.1-1.2s1.1-0.5,1.7-0.5s1.1,0.1,1.5,0.2c0.4,0.2,0.7,0.4,1,0.7
	c0.2,0.3,0.4,0.6,0.5,1s0.1,0.9,0.1,1.4v5.5h-1V6.7c0-0.4,0-0.7-0.1-1s-0.2-0.6-0.3-0.8c-0.2-0.2-0.4-0.4-0.7-0.5
	c-0.3-0.1-0.6-0.2-1-0.2s-0.8,0.1-1.1,0.2c-0.3,0.1-0.6,0.4-0.8,0.6c-0.2,0.3-0.4,0.6-0.5,0.9c-0.1,0.4-0.2,0.7-0.2,1.2v5h-1V3.5
	H285.7z"/>
<path class="st0" d="M295.5,0.2v1.7h-1V0.2H295.5z M295.5,3.5V12h-1V3.5H295.5z"/>
<path class="st0" d="M303.4,5.2c-0.1-0.2-0.3-0.4-0.5-0.6s-0.4-0.3-0.7-0.3c-0.3-0.1-0.5-0.1-0.8-0.1c-0.2,0-0.5,0-0.7,0.1
	c-0.2,0-0.5,0.1-0.7,0.2s-0.4,0.3-0.5,0.5s-0.2,0.4-0.2,0.7c0,0.2,0.1,0.4,0.2,0.6s0.3,0.3,0.4,0.4c0.2,0.1,0.4,0.2,0.6,0.3
	c0.2,0.1,0.4,0.1,0.6,0.2l1.4,0.3c0.3,0,0.6,0.1,0.9,0.2s0.5,0.3,0.8,0.5c0.2,0.2,0.4,0.4,0.6,0.7s0.2,0.6,0.2,1
	c0,0.5-0.1,0.9-0.3,1.2c-0.2,0.3-0.5,0.6-0.8,0.8s-0.7,0.3-1.1,0.4s-0.8,0.1-1.2,0.1c-1,0-1.8-0.2-2.4-0.7s-1-1.2-1.1-2.3h1
	c0,0.7,0.3,1.2,0.8,1.6s1,0.5,1.7,0.5c0.3,0,0.5,0,0.8-0.1s0.5-0.1,0.7-0.3s0.4-0.3,0.6-0.5s0.2-0.5,0.2-0.7c0-0.3-0.1-0.5-0.2-0.6
	c-0.1-0.2-0.2-0.3-0.4-0.4s-0.4-0.2-0.6-0.3s-0.5-0.1-0.7-0.2l-1.3-0.3c-0.3-0.1-0.7-0.2-0.9-0.3c-0.3-0.1-0.5-0.3-0.7-0.4
	c-0.2-0.2-0.4-0.4-0.5-0.6s-0.2-0.6-0.2-0.9c0-0.4,0.1-0.8,0.3-1.1c0.2-0.3,0.4-0.6,0.7-0.7c0.3-0.2,0.7-0.3,1-0.4s0.8-0.1,1.1-0.1
	c0.4,0,0.8,0.1,1.2,0.2c0.4,0.1,0.7,0.3,1,0.5s0.5,0.5,0.7,0.9c0.2,0.3,0.3,0.7,0.3,1.2h-1C303.6,5.7,303.5,5.4,303.4,5.2z"/>
<path class="st0" d="M308.4,3.5v1.4l0,0c0.3-0.5,0.6-0.9,1.1-1.2c0.4-0.3,1-0.4,1.7-0.4c0.6,0,1.1,0.1,1.5,0.4
	c0.5,0.3,0.8,0.7,0.9,1.3c0.3-0.6,0.6-1,1.1-1.3s1-0.4,1.6-0.4c1.9,0,2.8,1,2.8,3v5.8h-1V6.3c0-0.7-0.1-1.2-0.4-1.6
	s-0.8-0.6-1.6-0.6c-0.5,0-0.8,0.1-1.1,0.3c-0.3,0.2-0.5,0.4-0.7,0.7s-0.3,0.6-0.4,1s-0.1,0.7-0.1,1.1V12h-1V6.2c0-0.3,0-0.6-0.1-0.8
	c-0.1-0.3-0.2-0.5-0.3-0.7c-0.1-0.2-0.3-0.3-0.6-0.5C311.6,4.1,311.3,4,311,4c-0.4,0-0.8,0.1-1.1,0.2c-0.3,0.1-0.6,0.4-0.8,0.7
	c-0.2,0.3-0.4,0.6-0.5,1s-0.1,0.8-0.1,1.2v4.7h-1V3.5H308.4z"/>
<path class="st0" d="M327.4,3.6c0.5,0.2,0.9,0.6,1.3,1c0.3,0.4,0.6,0.9,0.8,1.4c0.2,0.5,0.3,1.1,0.3,1.7s-0.1,1.2-0.3,1.7
	c-0.2,0.5-0.4,1-0.8,1.4s-0.8,0.7-1.3,1c-0.5,0.2-1.1,0.4-1.7,0.4s-1.2-0.1-1.7-0.4c-0.5-0.2-0.9-0.6-1.3-1s-0.6-0.9-0.8-1.4
	c-0.2-0.5-0.3-1.1-0.3-1.7s0.1-1.2,0.3-1.7c0.2-0.5,0.4-1,0.8-1.4c0.3-0.4,0.8-0.7,1.3-1c0.5-0.2,1.1-0.4,1.7-0.4
	C326.4,3.3,326.9,3.4,327.4,3.6z M324.4,4.4c-0.4,0.2-0.7,0.5-0.9,0.8c-0.2,0.3-0.4,0.7-0.6,1.2s-0.2,0.9-0.2,1.3
	c0,0.5,0.1,0.9,0.2,1.3c0.1,0.4,0.3,0.8,0.6,1.2c0.2,0.3,0.6,0.6,0.9,0.8c0.4,0.2,0.8,0.3,1.3,0.3s0.9-0.1,1.3-0.3s0.7-0.5,0.9-0.8
	c0.2-0.3,0.4-0.7,0.6-1.2c0.1-0.4,0.2-0.9,0.2-1.3s-0.1-0.9-0.2-1.3s-0.3-0.8-0.6-1.2c-0.2-0.3-0.6-0.6-0.9-0.8
	c-0.4-0.2-0.8-0.3-1.3-0.3S324.8,4.2,324.4,4.4z"/>
<path class="st0" d="M344.4,12v-1.6l0,0c-0.1,0.3-0.3,0.5-0.5,0.8s-0.5,0.4-0.7,0.6c-0.3,0.2-0.6,0.3-0.9,0.4
	c-0.3,0.1-0.6,0.1-0.9,0.1c-0.6,0-1.2-0.1-1.7-0.4s-0.9-0.6-1.2-1c-0.3-0.4-0.6-0.9-0.7-1.4c-0.2-0.5-0.2-1.1-0.2-1.7
	s0.1-1.2,0.2-1.7s0.4-1,0.7-1.4c0.3-0.4,0.7-0.7,1.2-1c0.5-0.2,1-0.4,1.7-0.4c0.3,0,0.6,0,0.9,0.1s0.6,0.2,0.8,0.4
	c0.3,0.2,0.5,0.4,0.7,0.6s0.4,0.5,0.5,0.8l0,0v-5h1V12H344.4z M338.7,9.1c0.1,0.4,0.3,0.8,0.5,1.2c0.2,0.3,0.5,0.6,0.9,0.8
	s0.8,0.3,1.3,0.3s1-0.1,1.4-0.3s0.7-0.5,0.9-0.8s0.4-0.7,0.5-1.2c0.1-0.4,0.2-0.9,0.2-1.3s-0.1-0.9-0.2-1.3s-0.3-0.8-0.5-1.2
	c-0.2-0.3-0.5-0.6-0.9-0.8s-0.8-0.3-1.4-0.3c-0.5,0-0.9,0.1-1.3,0.3c-0.4,0.2-0.6,0.5-0.9,0.8c-0.2,0.3-0.4,0.7-0.5,1.2
	c-0.1,0.4-0.2,0.9-0.2,1.3C338.5,8.2,338.6,8.6,338.7,9.1z"/>
<path class="st0" d="M348.7,9.2c0.1,0.4,0.3,0.8,0.5,1.1s0.5,0.6,0.9,0.8s0.8,0.3,1.3,0.3c0.8,0,1.4-0.2,1.8-0.6
	c0.4-0.4,0.7-0.9,0.9-1.6h1c-0.2,1-0.6,1.7-1.2,2.2s-1.4,0.8-2.5,0.8c-0.7,0-1.3-0.1-1.7-0.4s-0.9-0.6-1.2-1
	c-0.3-0.4-0.5-0.9-0.7-1.4c-0.1-0.5-0.2-1.1-0.2-1.7s0.1-1.1,0.2-1.6s0.4-1,0.7-1.4c0.3-0.4,0.7-0.8,1.2-1c0.5-0.3,1.1-0.4,1.7-0.4
	c0.7,0,1.3,0.1,1.7,0.4c0.5,0.3,0.9,0.6,1.2,1.1c0.3,0.4,0.5,1,0.7,1.5s0.2,1.2,0.2,1.8h-6.5C348.6,8.4,348.6,8.8,348.7,9.2z
	 M353.9,6c-0.1-0.4-0.3-0.7-0.5-1s-0.5-0.5-0.8-0.7S351.9,4,351.5,4s-0.8,0.1-1.1,0.3c-0.3,0.2-0.6,0.4-0.8,0.7
	c-0.2,0.3-0.4,0.6-0.6,1c-0.1,0.4-0.2,0.7-0.3,1.1h5.5C354.1,6.8,354,6.4,353.9,6z"/>
<path class="st0" d="M0.7,21h2.2v1.6l0,0c0.1-0.3,0.3-0.5,0.4-0.7c0.2-0.2,0.4-0.4,0.6-0.6s0.5-0.3,0.8-0.4s0.6-0.1,0.8-0.1
	c0.2,0,0.3,0,0.5,0.1v2.2c-0.1,0-0.2,0-0.4-0.1c-0.2,0-0.3,0-0.4,0c-0.4,0-0.8,0.1-1.1,0.2s-0.5,0.3-0.7,0.6C3.2,24,3.1,24.3,3,24.7
	s-0.1,0.7-0.1,1.1v3.8H0.6L0.7,21L0.7,21z"/>
<path class="st0" d="M9.7,25.8c0,0.7,0.2,1.3,0.6,1.6c0.4,0.3,0.9,0.5,1.5,0.5c0.5,0,0.9-0.1,1.2-0.4c0.3-0.2,0.5-0.5,0.6-0.7h2.1
	c-0.3,1-0.8,1.7-1.5,2.2s-1.5,0.7-2.5,0.7c-0.7,0-1.3-0.1-1.8-0.3c-0.5-0.2-1-0.5-1.4-0.9s-0.7-0.9-0.9-1.4
	c-0.1-0.6-0.2-1.2-0.2-1.8s0.1-1.2,0.3-1.8c0.2-0.5,0.5-1,0.9-1.4s0.8-0.7,1.4-0.9c0.5-0.2,1.1-0.3,1.8-0.3s1.4,0.1,1.9,0.4
	s1,0.7,1.3,1.1s0.6,1,0.7,1.6c0.2,0.6,0.2,1.2,0.2,1.9L9.7,25.8L9.7,25.8z M13.5,24.3c-0.1-0.6-0.3-1-0.6-1.4
	c-0.3-0.3-0.7-0.5-1.3-0.5c-0.4,0-0.7,0.1-0.9,0.2s-0.4,0.3-0.6,0.5c-0.1,0.2-0.3,0.4-0.3,0.6c-0.1,0.2-0.1,0.4-0.1,0.6
	C9.7,24.3,13.5,24.3,13.5,24.3z"/>
<path class="st0" d="M20.8,21h1.7v1.6h-1.7v4.2c0,0.4,0.1,0.7,0.2,0.8s0.4,0.2,0.8,0.2c0.3,0,0.5,0,0.7-0.1v1.8
	c-0.2,0-0.4,0.1-0.7,0.1c-0.2,0-0.5,0-0.7,0c-0.4,0-0.7,0-1-0.1c-0.3,0-0.6-0.1-0.9-0.3c-0.2-0.1-0.4-0.4-0.6-0.6
	c-0.1-0.3-0.2-0.6-0.2-1v-5H17V21h1.4v-2.6h2.3V21H20.8z"/>
<path class="st0" d="M24.3,21h2.2v1.6l0,0c0.1-0.3,0.3-0.5,0.4-0.7c0.2-0.2,0.4-0.4,0.6-0.6s0.5-0.3,0.8-0.4s0.6-0.1,0.8-0.1
	c0.2,0,0.3,0,0.5,0.1v2.2c-0.1,0-0.2,0-0.4-0.1c-0.2,0-0.3,0-0.4,0c-0.4,0-0.8,0.1-1.1,0.2c-0.3,0.1-0.5,0.3-0.7,0.6
	c-0.2,0.2-0.3,0.5-0.4,0.9s-0.1,0.7-0.1,1.1v3.8h-2.3V21H24.3z"/>
<path class="st0" d="M31.1,25.3c0-0.7,0.1-1.3,0.3-1.9c0.2-0.6,0.5-1,0.9-1.4c0.4-0.4,0.8-0.7,1.4-0.9c0.5-0.2,1.1-0.3,1.8-0.3
	s1.3,0.1,1.8,0.3s1,0.5,1.4,0.9s0.7,0.9,0.9,1.4c0.2,0.6,0.3,1.2,0.3,1.9c0,0.7-0.1,1.3-0.3,1.8s-0.5,1-0.9,1.4s-0.8,0.7-1.4,0.9
	c-0.5,0.2-1.2,0.3-1.8,0.3c-0.7,0-1.3-0.1-1.8-0.3c-0.5-0.2-1-0.5-1.4-0.9s-0.7-0.9-0.9-1.4C31.2,26.6,31.1,25.9,31.1,25.3z
	 M33.5,25.3c0,0.3,0,0.7,0.1,1s0.2,0.6,0.3,0.9c0.2,0.3,0.4,0.5,0.6,0.6c0.3,0.2,0.6,0.2,1,0.2s0.7-0.1,1-0.2
	c0.3-0.2,0.5-0.4,0.6-0.6c0.2-0.3,0.3-0.5,0.3-0.9c0.1-0.3,0.1-0.7,0.1-1s0-0.7-0.1-1s-0.2-0.6-0.3-0.9s-0.4-0.5-0.6-0.6
	c-0.3-0.2-0.6-0.2-1-0.2s-0.7,0.1-1,0.2c-0.3,0.2-0.5,0.4-0.6,0.6s-0.3,0.5-0.3,0.9C33.5,24.6,33.5,24.9,33.5,25.3z"/>
<path class="st0" d="M42,23.6c0-0.5,0.2-1,0.4-1.4s0.5-0.7,0.9-0.9c0.4-0.2,0.8-0.4,1.3-0.5s0.9-0.1,1.4-0.1c0.4,0,0.9,0,1.3,0.1
	s0.8,0.2,1.2,0.4s0.7,0.4,0.9,0.7c0.2,0.3,0.3,0.7,0.3,1.2v4.4c0,0.4,0,0.8,0.1,1.1c0.1,0.3,0.1,0.6,0.2,0.8h-2.4
	c0-0.1-0.1-0.3-0.1-0.4s0-0.3-0.1-0.4c-0.4,0.4-0.8,0.7-1.3,0.8s-1,0.2-1.5,0.2c-0.4,0-0.8-0.1-1.1-0.2c-0.4-0.1-0.7-0.3-0.9-0.5
	c-0.3-0.2-0.5-0.5-0.6-0.8s-0.2-0.7-0.2-1.1c0-0.5,0.1-0.9,0.2-1.2c0.2-0.3,0.4-0.6,0.7-0.7s0.6-0.3,0.9-0.4s0.7-0.2,1.1-0.2
	c0.4-0.1,0.7-0.1,1-0.1s0.6-0.1,0.9-0.1c0.3-0.1,0.5-0.2,0.6-0.3c0.2-0.1,0.2-0.3,0.2-0.6c0-0.3,0-0.5-0.1-0.6s-0.2-0.3-0.3-0.3
	c-0.1-0.1-0.3-0.1-0.5-0.2c-0.2,0-0.4,0-0.6,0c-0.5,0-0.8,0.1-1.1,0.3c-0.3,0.2-0.4,0.5-0.5,1C44.3,23.6,42,23.6,42,23.6z
	 M47.4,25.3c-0.1,0.1-0.2,0.2-0.4,0.2c-0.1,0-0.3,0.1-0.5,0.1s-0.4,0.1-0.5,0.1c-0.2,0-0.4,0-0.6,0.1c-0.2,0-0.4,0.1-0.5,0.1
	c-0.2,0.1-0.3,0.1-0.4,0.2s-0.2,0.2-0.3,0.4c-0.1,0.1-0.1,0.3-0.1,0.5s0,0.4,0.1,0.5s0.2,0.2,0.3,0.3c0.1,0.1,0.3,0.1,0.5,0.2
	c0.2,0,0.4,0,0.5,0c0.5,0,0.8-0.1,1.1-0.2c0.3-0.2,0.4-0.3,0.6-0.6c0.1-0.2,0.2-0.4,0.2-0.7c0-0.3,0-0.4,0-0.5L47.4,25.3L47.4,25.3z
	"/>
<path class="st0" d="M52.3,17.7h2.3v11.8h-2.3V17.7z"/>
<path class="st0" d="M59.6,19.7h-2.3v-2h2.3V19.7z M57.2,21h2.3v8.5h-2.3V21z"/>
<path class="st0" d="M62.1,21h2.2v1.2l0,0c0.3-0.4,0.7-0.8,1.1-1s0.9-0.4,1.5-0.4c0.5,0,1,0.1,1.5,0.3c0.4,0.2,0.8,0.6,1,1.1
	c0.3-0.4,0.6-0.7,1-1s0.9-0.4,1.5-0.4c0.5,0,0.9,0.1,1.3,0.2s0.7,0.3,1,0.5s0.5,0.6,0.6,0.9c0.2,0.4,0.2,0.9,0.2,1.4v5.7h-2.3v-4.8
	c0-0.3,0-0.6,0-0.8c0-0.3-0.1-0.5-0.2-0.7s-0.2-0.3-0.4-0.4c-0.2-0.1-0.5-0.2-0.8-0.2s-0.6,0.1-0.8,0.2c-0.2,0.1-0.4,0.3-0.5,0.5
	s-0.2,0.4-0.2,0.7c0,0.3-0.1,0.5-0.1,0.8v4.7h-2.3v-4.8c0-0.2,0-0.5,0-0.7c0-0.3-0.1-0.5-0.1-0.7s-0.2-0.4-0.4-0.5
	c-0.2-0.1-0.5-0.2-0.8-0.2c-0.1,0-0.3,0-0.4,0.1s-0.3,0.1-0.5,0.3c-0.2,0.1-0.3,0.3-0.4,0.6c-0.1,0.3-0.2,0.6-0.2,1v4.9h-2.3V21
	H62.1z"/>
<path class="st0" d="M79.6,25.8c0,0.7,0.2,1.3,0.6,1.6c0.4,0.3,0.9,0.5,1.5,0.5c0.5,0,0.9-0.1,1.2-0.4c0.3-0.2,0.5-0.5,0.6-0.7h2.1
	c-0.3,1-0.8,1.7-1.5,2.2s-1.5,0.7-2.5,0.7c-0.7,0-1.3-0.1-1.8-0.3c-0.5-0.2-1-0.5-1.4-0.9s-0.7-0.9-0.9-1.4
	c-0.2-0.5-0.3-1.2-0.3-1.8s0.1-1.2,0.3-1.8c0.2-0.5,0.5-1,0.9-1.4s0.8-0.7,1.4-0.9c0.5-0.2,1.1-0.3,1.8-0.3c0.7,0,1.4,0.1,1.9,0.4
	s1,0.7,1.3,1.1s0.6,1,0.7,1.6c0.2,0.6,0.2,1.2,0.2,1.9h-6.1C79.6,25.9,79.6,25.8,79.6,25.8z M83.4,24.3c-0.1-0.6-0.3-1-0.6-1.4
	c-0.3-0.3-0.7-0.5-1.3-0.5c-0.4,0-0.7,0.1-0.9,0.2c-0.2,0.1-0.4,0.3-0.6,0.5c-0.1,0.2-0.3,0.4-0.3,0.6c-0.1,0.2-0.1,0.4-0.1,0.6
	C79.6,24.3,83.4,24.3,83.4,24.3z"/>
<path class="st0" d="M87.8,21H90v1.2l0,0c0.3-0.5,0.7-0.8,1.2-1.1c0.5-0.2,1-0.3,1.5-0.3c0.6,0,1.1,0.1,1.5,0.3
	c0.4,0.2,0.7,0.4,0.9,0.7c0.2,0.3,0.4,0.7,0.5,1.1s0.1,0.9,0.1,1.4v5.2h-2.3v-4.8c0-0.7-0.1-1.2-0.3-1.6c-0.2-0.3-0.6-0.5-1.2-0.5
	s-1.1,0.2-1.4,0.6s-0.4,1-0.4,1.9v4.5h-2.3L87.8,21L87.8,21z"/>
<path class="st0" d="M101.1,21h1.7v1.6h-1.7v4.2c0,0.4,0.1,0.7,0.2,0.8s0.4,0.2,0.8,0.2c0.3,0,0.5,0,0.7-0.1v1.8
	c-0.2,0-0.4,0.1-0.7,0.1c-0.2,0-0.5,0-0.7,0c-0.4,0-0.7,0-1-0.1c-0.3,0-0.6-0.1-0.9-0.3c-0.2-0.1-0.4-0.4-0.6-0.6
	c-0.1-0.3-0.2-0.6-0.2-1v-5h-1.3V21h1.4v-2.6h2.3L101.1,21L101.1,21z"/>
<path class="st0" d="M104.5,23.6c0-0.5,0.2-1,0.4-1.4c0.2-0.4,0.5-0.7,0.9-0.9c0.4-0.2,0.8-0.4,1.3-0.5s0.9-0.1,1.4-0.1
	c0.4,0,0.9,0,1.3,0.1s0.8,0.2,1.2,0.4s0.7,0.4,0.9,0.7c0.2,0.3,0.3,0.7,0.3,1.2v4.4c0,0.4,0,0.8,0.1,1.1c0.1,0.3,0.1,0.6,0.2,0.8
	h-2.4c0-0.1-0.1-0.3-0.1-0.4s0-0.3-0.1-0.4c-0.4,0.4-0.8,0.7-1.3,0.8s-1,0.2-1.5,0.2c-0.4,0-0.8-0.1-1.1-0.2
	c-0.4-0.1-0.7-0.3-0.9-0.5c-0.3-0.2-0.5-0.5-0.6-0.8s-0.2-0.7-0.2-1.1c0-0.5,0.1-0.9,0.2-1.2c0.2-0.3,0.4-0.6,0.7-0.7
	c0.3-0.1,0.6-0.3,0.9-0.4s0.7-0.2,1.1-0.2c0.4-0.1,0.7-0.1,1-0.1s0.6-0.1,0.9-0.1c0.3-0.1,0.5-0.2,0.6-0.3c0.2-0.1,0.2-0.3,0.2-0.6
	c0-0.3,0-0.5-0.1-0.6s-0.2-0.3-0.3-0.3c-0.1-0.1-0.3-0.1-0.5-0.2c-0.2,0-0.4,0-0.6,0c-0.5,0-0.8,0.1-1.1,0.3c-0.3,0.2-0.4,0.5-0.5,1
	C106.8,23.6,104.5,23.6,104.5,23.6z M109.9,25.3c-0.1,0.1-0.2,0.2-0.4,0.2c-0.1,0-0.3,0.1-0.5,0.1s-0.4,0.1-0.5,0.1
	c-0.2,0-0.4,0-0.6,0.1c-0.2,0-0.4,0.1-0.5,0.1c-0.2,0.1-0.3,0.1-0.4,0.2s-0.2,0.2-0.3,0.4c-0.1,0.1-0.1,0.3-0.1,0.5s0,0.4,0.1,0.5
	s0.2,0.2,0.3,0.3c0.1,0.1,0.3,0.1,0.5,0.2c0.2,0,0.4,0,0.5,0c0.5,0,0.8-0.1,1.1-0.2c0.3-0.2,0.4-0.3,0.6-0.6
	c0.1-0.2,0.2-0.4,0.2-0.7c0-0.3,0-0.4,0-0.5L109.9,25.3L109.9,25.3z"/>
<path class="st0" d="M120.5,24c-0.2-1-0.7-1.5-1.7-1.5c-0.4,0-0.7,0.1-0.9,0.3c-0.3,0.2-0.5,0.4-0.6,0.7s-0.3,0.6-0.3,0.9
	c-0.1,0.3-0.1,0.6-0.1,1c0,0.3,0,0.6,0.1,0.9s0.2,0.6,0.3,0.9c0.1,0.3,0.3,0.5,0.6,0.6c0.3,0.2,0.6,0.2,0.9,0.2c0.5,0,1-0.2,1.3-0.5
	s0.5-0.7,0.6-1.3h2.3c-0.2,1.1-0.6,2-1.3,2.6s-1.7,0.9-2.8,0.9c-0.6,0-1.2-0.1-1.8-0.3c-0.5-0.2-1-0.5-1.4-0.9s-0.7-0.9-0.9-1.4
	c-0.2-0.5-0.3-1.1-0.3-1.8c0-0.7,0.1-1.3,0.3-1.8c0.2-0.6,0.5-1.1,0.8-1.5c0.4-0.4,0.8-0.7,1.4-1c0.5-0.2,1.2-0.3,1.8-0.3
	c0.5,0,1,0.1,1.5,0.2s0.9,0.3,1.2,0.6c0.3,0.3,0.7,0.6,0.9,1c0.2,0.4,0.4,0.9,0.4,1.4L120.5,24L120.5,24z"/>
<path class="st0" d="M127.3,19.7H125v-2h2.3V19.7z M124.9,21h2.3v8.5h-2.3V21z"/>
<path class="st0" d="M129.5,25.3c0-0.7,0.1-1.3,0.3-1.9s0.5-1,0.9-1.4s0.8-0.7,1.4-0.9c0.5-0.2,1.1-0.3,1.8-0.3s1.3,0.1,1.8,0.3
	s1,0.5,1.4,0.9s0.7,0.9,0.9,1.4c0.2,0.6,0.3,1.2,0.3,1.9c0,0.7-0.1,1.3-0.3,1.8s-0.5,1-0.9,1.4s-0.8,0.7-1.4,0.9
	c-0.5,0.2-1.2,0.3-1.8,0.3c-0.7,0-1.3-0.1-1.8-0.3c-0.5-0.2-1-0.5-1.4-0.9s-0.7-0.9-0.9-1.4S129.5,25.9,129.5,25.3z M131.8,25.3
	c0,0.3,0,0.7,0.1,1s0.2,0.6,0.3,0.9c0.2,0.3,0.4,0.5,0.6,0.6c0.3,0.2,0.6,0.2,1,0.2s0.7-0.1,1-0.2c0.3-0.2,0.5-0.4,0.6-0.6
	c0.2-0.3,0.3-0.5,0.3-0.9c0.1-0.3,0.1-0.7,0.1-1s0-0.7-0.1-1s-0.2-0.6-0.3-0.9s-0.4-0.5-0.6-0.6c-0.3-0.2-0.6-0.2-1-0.2
	s-0.7,0.1-1,0.2c-0.3,0.2-0.5,0.4-0.6,0.6s-0.3,0.5-0.3,0.9C131.9,24.6,131.8,24.9,131.8,25.3z M134.3,19.9h-1.6l1.6-2.3h2.6
	L134.3,19.9z"/>
<path class="st0" d="M140.5,21h2.2v1.2l0,0c0.3-0.5,0.7-0.8,1.2-1.1c0.5-0.2,1-0.3,1.5-0.3c0.6,0,1.1,0.1,1.5,0.3
	c0.4,0.2,0.7,0.4,0.9,0.7c0.2,0.3,0.4,0.7,0.5,1.1s0.1,0.9,0.1,1.4v5.2h-2.3v-4.8c0-0.7-0.1-1.2-0.3-1.6c-0.2-0.3-0.6-0.5-1.2-0.5
	s-1.1,0.2-1.4,0.6s-0.4,1-0.4,1.9v4.5h-2.3V21L140.5,21z"/>
<path class="st0" d="M156.2,21h2.2v1.2l0,0c0.3-0.5,0.7-0.8,1.2-1.1c0.5-0.2,1-0.3,1.5-0.3c0.6,0,1.1,0.1,1.5,0.3
	c0.4,0.2,0.7,0.4,0.9,0.7c0.2,0.3,0.4,0.7,0.5,1.1s0.1,0.9,0.1,1.4v5.2h-2.3v-4.8c0-0.7-0.1-1.2-0.3-1.6c-0.2-0.3-0.6-0.5-1.2-0.5
	c-0.6,0-1.1,0.2-1.4,0.6c-0.3,0.4-0.4,1-0.4,1.9v4.5h-2.3V21z"/>
<path class="st0" d="M168.5,25.8c0,0.7,0.2,1.3,0.6,1.6c0.4,0.3,0.9,0.5,1.5,0.5c0.5,0,0.9-0.1,1.2-0.4c0.3-0.2,0.5-0.5,0.6-0.7h2.1
	c-0.3,1-0.8,1.7-1.5,2.2s-1.5,0.7-2.5,0.7c-0.7,0-1.3-0.1-1.8-0.3c-0.5-0.2-1-0.5-1.4-0.9s-0.7-0.9-0.9-1.4s-0.3-1.2-0.3-1.8
	s0.1-1.2,0.3-1.8c0.2-0.5,0.5-1,0.9-1.4s0.8-0.7,1.4-0.9c0.5-0.2,1.1-0.3,1.8-0.3s1.4,0.1,1.9,0.4s1,0.7,1.3,1.1s0.6,1,0.7,1.6
	c0.2,0.6,0.2,1.2,0.2,1.9h-6.1V25.8z M172.3,24.3c-0.1-0.6-0.3-1-0.6-1.4c-0.3-0.3-0.7-0.5-1.3-0.5c-0.4,0-0.7,0.1-0.9,0.2
	s-0.4,0.3-0.6,0.5c-0.1,0.2-0.3,0.4-0.3,0.6c-0.1,0.2-0.1,0.4-0.1,0.6C168.5,24.3,172.3,24.3,172.3,24.3z"/>
<path class="st0" d="M184.9,29c0,0.2,0,0.5-0.1,0.8c0,0.3-0.1,0.6-0.2,0.8c-0.1,0.3-0.3,0.5-0.5,0.8s-0.5,0.5-0.8,0.7
	s-0.7,0.4-1.2,0.5s-1,0.2-1.7,0.2c-0.4,0-0.8-0.1-1.3-0.2c-0.4-0.1-0.8-0.3-1.2-0.5s-0.7-0.5-0.9-0.8s-0.4-0.8-0.4-1.2h2.3
	c0.1,0.4,0.3,0.7,0.6,0.9c0.3,0.2,0.7,0.3,1.1,0.3c0.6,0,1.1-0.2,1.4-0.6c0.3-0.4,0.5-0.9,0.4-1.5v-1.1l0,0c-0.3,0.5-0.6,0.8-1.1,1
	s-1,0.3-1.5,0.3c-0.6,0-1.2-0.1-1.6-0.3c-0.5-0.2-0.8-0.5-1.1-0.9s-0.5-0.8-0.7-1.4c-0.1-0.5-0.2-1.1-0.2-1.7c0-0.5,0.1-1.1,0.2-1.6
	c0.2-0.5,0.4-1,0.7-1.4s0.7-0.7,1.1-0.9c0.5-0.2,1-0.3,1.6-0.3s1.1,0.1,1.5,0.3s0.8,0.6,1.1,1.1l0,0V21h2.2v8H184.9z M180.7,27.5
	c0.3,0,0.6-0.1,0.9-0.2c0.3-0.1,0.5-0.3,0.6-0.5c0.2-0.2,0.3-0.5,0.4-0.7c0.1-0.3,0.1-0.6,0.1-0.9s0-0.7-0.1-1s-0.2-0.6-0.3-0.8
	c-0.2-0.2-0.4-0.4-0.6-0.6c-0.3-0.1-0.6-0.2-0.9-0.2c-0.3,0-0.6,0.1-0.8,0.2s-0.6,0.2-0.8,0.5s-0.3,0.5-0.3,0.8
	c-0.1,0.3-0.1,0.6-0.1,0.9s0,0.6,0.1,0.9s0.2,0.6,0.3,0.8c0.1,0.2,0.3,0.4,0.6,0.6S180.3,27.5,180.7,27.5z"/>
<path class="st0" d="M187.3,23.6c0-0.5,0.2-1,0.4-1.4s0.5-0.7,0.9-0.9c0.4-0.2,0.8-0.4,1.3-0.5s0.9-0.1,1.4-0.1c0.4,0,0.9,0,1.3,0.1
	c0.4,0.1,0.8,0.2,1.2,0.4s0.7,0.4,0.9,0.7c0.2,0.3,0.3,0.7,0.3,1.2v4.4c0,0.4,0,0.8,0.1,1.1c0.1,0.3,0.1,0.6,0.2,0.8h-2.4
	c0-0.1-0.1-0.3-0.1-0.4s0-0.3-0.1-0.4c-0.4,0.4-0.8,0.7-1.3,0.8s-1,0.2-1.5,0.2c-0.4,0-0.8-0.1-1.1-0.2c-0.4-0.1-0.7-0.3-0.9-0.5
	c-0.3-0.2-0.5-0.5-0.6-0.8s-0.2-0.7-0.2-1.1c0-0.5,0.1-0.9,0.2-1.2c0.2-0.3,0.4-0.6,0.7-0.7s0.6-0.3,0.9-0.4
	c0.3-0.1,0.7-0.2,1.1-0.2c0.4-0.1,0.7-0.1,1-0.1s0.6-0.1,0.9-0.1c0.3-0.1,0.5-0.2,0.6-0.3c0.2-0.1,0.2-0.3,0.2-0.6
	c0-0.3,0-0.5-0.1-0.6s-0.2-0.3-0.3-0.3c-0.1-0.1-0.3-0.1-0.5-0.2c-0.2,0-0.4,0-0.6,0c-0.5,0-0.8,0.1-1.1,0.3c-0.3,0.2-0.4,0.5-0.5,1
	C189.6,23.6,187.3,23.6,187.3,23.6z M192.7,25.3c-0.1,0.1-0.2,0.2-0.4,0.2c-0.1,0-0.3,0.1-0.5,0.1s-0.4,0.1-0.5,0.1
	c-0.2,0-0.4,0-0.6,0.1c-0.2,0-0.4,0.1-0.5,0.1c-0.2,0.1-0.3,0.1-0.4,0.2c-0.1,0.1-0.2,0.2-0.3,0.4c-0.1,0.2-0.1,0.4-0.1,0.6
	s0,0.4,0.1,0.5s0.2,0.2,0.3,0.3s0.3,0.1,0.5,0.2c0.2,0,0.4,0,0.5,0c0.5,0,0.8-0.1,1.1-0.2c0.3-0.2,0.4-0.3,0.6-0.6
	c0.1-0.2,0.2-0.4,0.2-0.7c0-0.3,0-0.4,0-0.5L192.7,25.3L192.7,25.3z"/>
<path class="st0" d="M200.5,21h1.7v1.6h-1.7v4.2c0,0.4,0.1,0.7,0.2,0.8s0.4,0.2,0.8,0.2c0.3,0,0.5,0,0.7-0.1v1.8
	c-0.2,0-0.4,0.1-0.7,0.1c-0.2,0-0.5,0-0.7,0c-0.4,0-0.7,0-1-0.1c-0.3,0-0.6-0.1-0.9-0.3c-0.2-0.1-0.4-0.4-0.6-0.6
	c-0.1-0.3-0.2-0.6-0.2-1v-5h-1.4V21h1.4v-2.6h2.3L200.5,21L200.5,21z"/>
<path class="st0" d="M206.4,19.7h-2.3v-2h2.3V19.7z M204.1,21h2.3v8.5h-2.3V21z"/>
<path class="st0" d="M213.6,29.5H211l-2.9-8.5h2.5l1.8,5.8l0,0l1.8-5.8h2.3L213.6,29.5z"/>
<path class="st0" d="M218,23.6c0-0.5,0.2-1,0.4-1.4s0.5-0.7,0.9-0.9c0.4-0.2,0.8-0.4,1.3-0.5s0.9-0.1,1.4-0.1c0.4,0,0.9,0,1.3,0.1
	c0.4,0.1,0.8,0.2,1.2,0.4s0.7,0.4,0.9,0.7c0.2,0.3,0.3,0.7,0.3,1.2v4.4c0,0.4,0,0.8,0.1,1.1c0.1,0.3,0.1,0.6,0.2,0.8h-2.4
	c0-0.1-0.1-0.3-0.1-0.4s0-0.3-0.1-0.4c-0.4,0.4-0.8,0.7-1.3,0.8s-1,0.2-1.5,0.2c-0.4,0-0.8-0.1-1.1-0.2c-0.4-0.1-0.7-0.3-0.9-0.5
	c-0.3-0.2-0.5-0.5-0.6-0.8s-0.2-0.7-0.2-1.1c0-0.5,0.1-0.9,0.2-1.2c0.2-0.3,0.4-0.6,0.7-0.7s0.6-0.3,0.9-0.4
	c0.3-0.1,0.7-0.2,1.1-0.2c0.4-0.1,0.7-0.1,1-0.1s0.6-0.1,0.9-0.1c0.3-0.1,0.5-0.2,0.6-0.3c0.2-0.1,0.2-0.3,0.2-0.6
	c0-0.3,0-0.5-0.1-0.6s-0.2-0.3-0.3-0.3c-0.1-0.1-0.3-0.1-0.5-0.2c-0.2,0-0.4,0-0.6,0c-0.5,0-0.8,0.1-1.1,0.3c-0.3,0.2-0.4,0.5-0.5,1
	C220.3,23.6,218,23.6,218,23.6z M223.4,25.3c-0.1,0.1-0.2,0.2-0.4,0.2c-0.1,0-0.3,0.1-0.5,0.1s-0.4,0.1-0.5,0.1
	c-0.2,0-0.4,0-0.6,0.1c-0.2,0-0.4,0.1-0.5,0.1c-0.2,0.1-0.3,0.1-0.4,0.2c-0.1,0.1-0.2,0.2-0.3,0.4c-0.1,0.1-0.1,0.3-0.1,0.5
	s0,0.4,0.1,0.5s0.2,0.2,0.3,0.3s0.3,0.1,0.5,0.2c0.2,0,0.4,0,0.5,0c0.5,0,0.8-0.1,1.1-0.2c0.3-0.2,0.4-0.3,0.6-0.6
	c0.1-0.2,0.2-0.4,0.2-0.7c0-0.3,0-0.4,0-0.5L223.4,25.3L223.4,25.3z"/>
<path class="st0" d="M239.6,28.4L239.6,28.4c-0.3,0.5-0.7,0.8-1.1,1c-0.4,0.2-1,0.3-1.5,0.3c-0.6,0-1.2-0.1-1.7-0.4s-0.9-0.6-1.2-1
	s-0.5-0.9-0.7-1.5c-0.2-0.5-0.2-1.1-0.2-1.7s0.1-1.1,0.2-1.7c0.2-0.5,0.4-1,0.7-1.4s0.7-0.7,1.2-1c0.5-0.2,1-0.4,1.6-0.4
	c0.5,0,1,0.1,1.4,0.3c0.5,0.2,0.8,0.5,1.1,0.9l0,0v-4.1h2.3v11.8h-2.2L239.6,28.4C239.5,28.4,239.6,28.4,239.6,28.4z M239.5,25.2
	c0-0.3,0-0.7-0.1-1s-0.2-0.6-0.3-0.9s-0.4-0.4-0.6-0.6s-0.6-0.2-0.9-0.2c-0.4,0-0.7,0.1-1,0.2s-0.5,0.4-0.6,0.6
	c-0.2,0.3-0.3,0.5-0.3,0.9c-0.1,0.3-0.1,0.7-0.1,1s0,0.7,0.1,1s0.2,0.6,0.4,0.9s0.4,0.5,0.6,0.6s0.6,0.2,0.9,0.2
	c0.4,0,0.7-0.1,1-0.2c0.3-0.2,0.5-0.4,0.6-0.6c0.2-0.3,0.3-0.6,0.3-0.9C239.5,25.9,239.5,25.6,239.5,25.2z"/>
<path class="st0" d="M246.1,25.8c0,0.7,0.2,1.3,0.6,1.6c0.4,0.3,0.9,0.5,1.5,0.5c0.5,0,0.9-0.1,1.2-0.4c0.3-0.2,0.5-0.5,0.6-0.7h2.1
	c-0.3,1-0.8,1.7-1.5,2.2s-1.5,0.7-2.5,0.7c-0.7,0-1.3-0.1-1.8-0.3c-0.5-0.2-1-0.5-1.4-0.9s-0.7-0.9-0.9-1.4s-0.3-1.2-0.3-1.8
	s0.1-1.2,0.3-1.8c0.2-0.5,0.5-1,0.9-1.4s0.8-0.7,1.4-0.9c0.5-0.2,1.1-0.3,1.8-0.3s1.4,0.1,1.9,0.4s1,0.7,1.3,1.1s0.6,1,0.7,1.6
	c0.2,0.6,0.2,1.2,0.2,1.9h-6.1V25.8z M249.9,24.3c-0.1-0.6-0.3-1-0.6-1.4c-0.3-0.3-0.7-0.5-1.3-0.5c-0.4,0-0.7,0.1-0.9,0.2
	s-0.4,0.3-0.6,0.5c-0.1,0.2-0.3,0.4-0.3,0.6c-0.1,0.2-0.1,0.4-0.1,0.6C246.1,24.3,249.9,24.3,249.9,24.3z"/>
<path class="st0" d="M254.4,17.7h2.3v11.8h-2.3L254.4,17.7L254.4,17.7z"/>
<path class="st0" d="M270.3,24c-0.2-1-0.7-1.5-1.7-1.5c-0.4,0-0.7,0.1-0.9,0.3c-0.3,0.2-0.5,0.4-0.6,0.7s-0.3,0.6-0.3,0.9
	c-0.1,0.3-0.1,0.6-0.1,1c0,0.3,0,0.6,0.1,0.9s0.2,0.6,0.3,0.9s0.3,0.5,0.6,0.6c0.3,0.2,0.6,0.2,0.9,0.2c0.5,0,1-0.2,1.3-0.5
	s0.5-0.7,0.6-1.3h2.3c-0.2,1.1-0.6,2-1.3,2.6s-1.7,0.9-2.8,0.9c-0.6,0-1.2-0.1-1.8-0.3c-0.5-0.2-1-0.5-1.4-0.9s-0.7-0.9-0.9-1.4
	s-0.3-1.1-0.3-1.8c0-0.7,0.1-1.3,0.3-1.8c0.2-0.6,0.5-1.1,0.8-1.5c0.4-0.4,0.8-0.7,1.4-1c0.5-0.2,1.2-0.3,1.8-0.3
	c0.5,0,1,0.1,1.5,0.2s0.9,0.3,1.2,0.6c0.3,0.3,0.7,0.6,0.9,1c0.2,0.4,0.4,0.9,0.4,1.4L270.3,24L270.3,24z"/>
<path class="st0" d="M274.3,25.3c0-0.7,0.1-1.3,0.3-1.9c0.2-0.6,0.5-1,0.9-1.4s0.8-0.7,1.4-0.9c0.5-0.2,1.1-0.3,1.8-0.3
	s1.3,0.1,1.8,0.3s1,0.5,1.4,0.9s0.7,0.9,0.9,1.4c0.2,0.6,0.3,1.2,0.3,1.9c0,0.7-0.1,1.3-0.3,1.8s-0.5,1-0.9,1.4s-0.8,0.7-1.4,0.9
	c-0.5,0.2-1.2,0.3-1.8,0.3c-0.7,0-1.3-0.1-1.8-0.3c-0.5-0.2-1-0.5-1.4-0.9s-0.7-0.9-0.9-1.4S274.3,25.9,274.3,25.3z M276.7,25.3
	c0,0.3,0,0.7,0.1,1s0.2,0.6,0.3,0.9c0.2,0.3,0.4,0.5,0.6,0.6c0.3,0.2,0.6,0.2,1,0.2s0.7-0.1,1-0.2c0.3-0.2,0.5-0.4,0.6-0.6
	c0.2-0.3,0.3-0.5,0.3-0.9c0.1-0.3,0.1-0.7,0.1-1s0-0.7-0.1-1s-0.2-0.6-0.3-0.9c-0.1-0.3-0.4-0.5-0.6-0.6c-0.3-0.2-0.6-0.2-1-0.2
	s-0.7,0.1-1,0.2c-0.3,0.2-0.5,0.4-0.6,0.6s-0.3,0.5-0.3,0.9C276.7,24.6,276.7,24.9,276.7,25.3z"/>
<path class="st0" d="M285.3,21h2.2v1.6l0,0c0.1-0.3,0.3-0.5,0.4-0.7c0.2-0.2,0.4-0.4,0.6-0.6s0.5-0.3,0.8-0.4s0.6-0.1,0.8-0.1
	s0.3,0,0.5,0.1v2.2c-0.1,0-0.2,0-0.4-0.1c-0.2,0-0.3,0-0.4,0c-0.4,0-0.8,0.1-1.1,0.2s-0.5,0.3-0.7,0.6c-0.2,0.2-0.3,0.5-0.4,0.9
	s-0.1,0.7-0.1,1.1v3.8h-2.3V21H285.3z"/>
<path class="st0" d="M295.3,21h1.7v1.6h-1.7v4.2c0,0.4,0.1,0.7,0.2,0.8s0.4,0.2,0.8,0.2c0.3,0,0.5,0,0.7-0.1v1.8
	c-0.2,0-0.4,0.1-0.7,0.1c-0.2,0-0.5,0-0.7,0c-0.4,0-0.7,0-1-0.1c-0.3,0-0.6-0.1-0.9-0.3c-0.2-0.1-0.4-0.4-0.6-0.6
	c-0.1-0.3-0.2-0.6-0.2-1v-5h-1.4V21h1.4v-2.6h2.3V21H295.3z"/>
<path class="st0" d="M301.2,19.7h-2.3v-2h2.3V19.7z M298.9,21h2.3v8.5h-2.3V21z"/>
<path class="st0" d="M305.5,26.7c0,0.3,0.1,0.5,0.2,0.7s0.2,0.3,0.4,0.4c0.2,0.1,0.4,0.2,0.6,0.3c0.2,0.1,0.4,0.1,0.7,0.1
	c0.2,0,0.3,0,0.5-0.1c0.2,0,0.3-0.1,0.5-0.2c0.1-0.1,0.3-0.2,0.4-0.3c0.1-0.1,0.1-0.3,0.1-0.5s-0.1-0.3-0.2-0.5
	c-0.1-0.1-0.3-0.2-0.5-0.3s-0.5-0.2-0.8-0.3s-0.7-0.2-1.1-0.3c-0.3-0.1-0.7-0.2-1-0.3s-0.6-0.2-0.9-0.4c-0.3-0.2-0.5-0.4-0.6-0.6
	c-0.2-0.3-0.2-0.6-0.2-0.9c0-0.5,0.1-1,0.3-1.3c0.2-0.4,0.5-0.6,0.8-0.8c0.3-0.2,0.7-0.3,1.2-0.4c0.4-0.1,0.9-0.1,1.4-0.1
	s0.9,0,1.3,0.1s0.8,0.2,1.2,0.4c0.3,0.2,0.6,0.5,0.8,0.8c0.2,0.3,0.4,0.8,0.4,1.3h-2.2c0-0.5-0.2-0.8-0.5-0.9
	c-0.3-0.2-0.7-0.2-1.1-0.2c-0.1,0-0.3,0-0.4,0c-0.2,0-0.3,0.1-0.4,0.1c-0.1,0.1-0.2,0.1-0.3,0.2s-0.1,0.2-0.1,0.4
	c0,0.2,0.1,0.4,0.2,0.5c0.2,0.1,0.4,0.2,0.6,0.3c0.2,0.1,0.5,0.2,0.8,0.2s0.6,0.1,1,0.2c0.3,0.1,0.7,0.2,1,0.3
	c0.3,0.1,0.6,0.3,0.9,0.4c0.3,0.2,0.5,0.4,0.6,0.7c0.2,0.3,0.2,0.6,0.2,1c0,0.6-0.1,1-0.3,1.4s-0.5,0.7-0.9,0.9
	c-0.4,0.2-0.8,0.4-1.2,0.5c-0.5,0.1-0.9,0.1-1.4,0.1s-1,0-1.4-0.1c-0.5-0.1-0.9-0.3-1.3-0.5s-0.7-0.5-0.9-0.9s-0.4-0.9-0.4-1.4
	C303.5,26.7,305.5,26.7,305.5,26.7z"/>
<path class="st0" d="M313,25.3c0-0.7,0.1-1.3,0.3-1.9c0.2-0.6,0.5-1,0.9-1.4s0.8-0.7,1.4-0.9c0.5-0.2,1.1-0.3,1.8-0.3
	s1.3,0.1,1.8,0.3s1,0.5,1.4,0.9s0.7,0.9,0.9,1.4c0.2,0.6,0.3,1.2,0.3,1.9c0,0.7-0.1,1.3-0.3,1.8s-0.5,1-0.9,1.4s-0.8,0.7-1.4,0.9
	c-0.5,0.2-1.2,0.3-1.8,0.3c-0.7,0-1.3-0.1-1.8-0.3c-0.5-0.2-1-0.5-1.4-0.9s-0.7-0.9-0.9-1.4C313.1,26.6,313,25.9,313,25.3z
	 M315.3,25.3c0,0.3,0,0.7,0.1,1s0.2,0.6,0.3,0.9c0.2,0.3,0.4,0.5,0.6,0.6c0.3,0.2,0.6,0.2,1,0.2s0.7-0.1,1-0.2
	c0.3-0.2,0.5-0.4,0.6-0.6c0.2-0.3,0.3-0.5,0.3-0.9c0.1-0.3,0.1-0.7,0.1-1s0-0.7-0.1-1s-0.2-0.6-0.3-0.9c-0.1-0.3-0.4-0.5-0.6-0.6
	c-0.3-0.2-0.6-0.2-1-0.2s-0.7,0.1-1,0.2c-0.3,0.2-0.5,0.4-0.6,0.6s-0.2,0.5-0.3,0.9C315.3,24.6,315.3,24.9,315.3,25.3z"/>
<path class="st0" d="M324,17.7h2.3v11.8H324V17.7z"/>
<path class="st0" d="M329,27h2.6v2.5H329V27z"/>
<path class="st0" d="M337,24h-1.4v-4.3h-1.7v-1c0.2,0,0.5,0,0.7-0.1c0.2,0,0.4-0.1,0.6-0.2s0.3-0.2,0.4-0.4c0.1-0.2,0.2-0.4,0.2-0.6
	h1.1L337,24L337,24z"/>
</svg>
