<!-- Generator: Adobe Illustrator 20.1.0, SVG Export Plug-In  -->
<svg version="1.1"
	 xmlns="http://www.w3.org/2000/svg" xmlns:xlink="http://www.w3.org/1999/xlink" xmlns:a="http://ns.adobe.com/AdobeSVGViewerExtensions/3.0/"
	 x="0px" y="0px" width="50.4px" height="24.4px" viewBox="0 0 50.4 24.4"
	 style="overflow:scroll;enable-background:new 0 0 50.4 24.4;" xml:space="preserve">
<style type="text/css">
	.st0{fill:#58595B;}
</style>
<defs>
</defs>
<g>
	<g>
		<path class="st0" d="M0.2,3.3c0.1-0.3,0.3-0.5,0.4-0.7C0.8,2.5,1,2.4,1.3,2.2c0.3-0.1,0.5-0.2,0.8-0.2c0.3,0,0.6,0.1,0.8,0.2
			c0.3,0.1,0.5,0.3,0.7,0.4C3.7,2.9,3.9,3.1,4,3.3c0.1,0.3,0.2,0.5,0.2,0.8C4.1,4.4,4.1,4.7,4,5C3.9,5.2,3.7,5.4,3.5,5.6
			C3.3,5.8,3.1,6,2.9,6.1C2.6,6.2,2.4,6.2,2.1,6.2c-0.3,0-0.6-0.1-0.8-0.2C1,6,0.8,5.8,0.6,5.6C0.4,5.4,0.3,5.2,0.2,5
			C0.1,4.7,0,4.4,0,4.1C0,3.9,0.1,3.6,0.2,3.3z"/>
		<path class="st0" d="M8.9,0c1.3,0,2.2,0.4,2.9,1.1c0.6,0.7,1,1.7,1,3.1c0,1.4-0.3,2.4-1,3.1c-0.6,0.7-1.6,1-2.9,1.1H6V0H8.9z
			 M8.5,7.6c0.6,0,1.1-0.1,1.5-0.2c0.4-0.1,0.8-0.3,1.1-0.6c0.3-0.3,0.5-0.6,0.6-1.1c0.1-0.4,0.2-1,0.2-1.6c0-0.6-0.1-1.2-0.2-1.6
			s-0.3-0.8-0.6-1.1c-0.3-0.3-0.6-0.5-1.1-0.6C9.6,0.7,9.1,0.7,8.5,0.7H6.8v6.9H8.5z"/>
		<path class="st0" d="M14.8,0v1.2h-0.7V0H14.8z M14.8,2.3v6h-0.7v-6H14.8z"/>
		<path class="st0" d="M16.6,3.2c0.1-0.3,0.3-0.5,0.5-0.6c0.2-0.2,0.5-0.3,0.8-0.4c0.3-0.1,0.6-0.1,1-0.1c0.3,0,0.5,0,0.8,0.1
			c0.3,0.1,0.5,0.1,0.7,0.3s0.4,0.3,0.5,0.6C21,3.3,21,3.7,21,4.1v3.2c0,0.3,0.1,0.4,0.4,0.4c0.1,0,0.2,0,0.2,0v0.6
			c-0.1,0-0.2,0-0.2,0s-0.1,0-0.3,0c-0.2,0-0.3,0-0.4-0.1c-0.1-0.1-0.2-0.1-0.3-0.2c-0.1-0.1-0.1-0.2-0.1-0.3c0-0.1,0-0.3,0-0.4h0
			c-0.1,0.2-0.3,0.4-0.4,0.5c-0.1,0.2-0.3,0.3-0.5,0.4c-0.2,0.1-0.4,0.2-0.6,0.2c-0.2,0.1-0.5,0.1-0.8,0.1c-0.3,0-0.5,0-0.8-0.1
			c-0.2-0.1-0.5-0.2-0.6-0.3c-0.2-0.1-0.3-0.3-0.4-0.5S16.2,7,16.2,6.7c0-0.4,0.1-0.7,0.3-1c0.2-0.2,0.4-0.4,0.7-0.5
			c0.3-0.1,0.7-0.2,1-0.3c0.4,0,0.8-0.1,1.2-0.1c0.2,0,0.3,0,0.4-0.1s0.2-0.1,0.3-0.1c0.1-0.1,0.1-0.1,0.2-0.2
			c0-0.1,0.1-0.2,0.1-0.4c0-0.2,0-0.5-0.1-0.6C20.1,3.2,20,3.1,19.9,3c-0.1-0.1-0.3-0.2-0.5-0.2c-0.2,0-0.4-0.1-0.6-0.1
			c-0.5,0-0.8,0.1-1.1,0.3c-0.3,0.2-0.4,0.6-0.5,1.1h-0.7C16.4,3.8,16.5,3.5,16.6,3.2z M20.3,5c0,0.1-0.1,0.1-0.3,0.2
			s-0.2,0.1-0.3,0.1c-0.3,0.1-0.6,0.1-1,0.1c-0.3,0-0.6,0.1-0.9,0.2c-0.3,0.1-0.5,0.2-0.7,0.4c-0.2,0.2-0.3,0.4-0.3,0.7
			c0,0.2,0,0.4,0.1,0.5c0.1,0.1,0.2,0.3,0.3,0.4s0.3,0.2,0.4,0.2c0.2,0.1,0.3,0.1,0.5,0.1c0.3,0,0.5,0,0.8-0.1
			c0.3-0.1,0.5-0.2,0.7-0.4C19.9,7.2,20,7,20.1,6.8s0.2-0.5,0.2-0.8L20.3,5L20.3,5z"/>
		<path class="st0" d="M23.5,0v3.4h0c0.1-0.2,0.2-0.4,0.3-0.6c0.1-0.2,0.3-0.3,0.5-0.4s0.4-0.2,0.6-0.3c0.2-0.1,0.4-0.1,0.7-0.1
			c0.5,0,0.9,0.1,1.2,0.3c0.3,0.2,0.6,0.4,0.8,0.7c0.2,0.3,0.4,0.6,0.5,1s0.2,0.8,0.2,1.2c0,0.4-0.1,0.8-0.2,1.2
			c-0.1,0.4-0.3,0.7-0.5,1c-0.2,0.3-0.5,0.5-0.8,0.7c-0.3,0.2-0.7,0.3-1.2,0.3c-0.5,0-0.9-0.1-1.3-0.3c-0.4-0.2-0.7-0.5-0.8-1h0v1.1
			h-0.7V0H23.5z M27.4,4.4c-0.1-0.3-0.2-0.6-0.3-0.8c-0.2-0.2-0.4-0.4-0.6-0.6c-0.2-0.2-0.5-0.2-0.9-0.2c-0.4,0-0.7,0.1-1,0.2
			c-0.3,0.2-0.5,0.3-0.7,0.6c-0.2,0.2-0.3,0.5-0.4,0.8c-0.1,0.3-0.1,0.6-0.1,0.9c0,0.3,0,0.6,0.1,0.9c0.1,0.3,0.2,0.6,0.4,0.8
			c0.2,0.2,0.4,0.4,0.7,0.6c0.3,0.2,0.6,0.2,1,0.2c0.3,0,0.6-0.1,0.9-0.2s0.5-0.3,0.6-0.6c0.2-0.2,0.3-0.5,0.3-0.8
			c0.1-0.3,0.1-0.6,0.1-0.9C27.5,5,27.5,4.7,27.4,4.4z"/>
		<path class="st0" d="M30.2,6.3c0.1,0.3,0.2,0.5,0.4,0.8s0.4,0.4,0.6,0.6c0.2,0.1,0.5,0.2,0.9,0.2c0.5,0,1-0.1,1.3-0.4
			c0.3-0.3,0.5-0.7,0.6-1.1h0.7c-0.2,0.7-0.4,1.2-0.9,1.6c-0.4,0.4-1,0.6-1.8,0.6c-0.5,0-0.9-0.1-1.2-0.3C30.5,8,30.2,7.8,30,7.5
			c-0.2-0.3-0.4-0.6-0.5-1c-0.1-0.4-0.2-0.8-0.2-1.2c0-0.4,0.1-0.8,0.2-1.2c0.1-0.4,0.3-0.7,0.5-1c0.2-0.3,0.5-0.5,0.8-0.7
			c0.3-0.2,0.8-0.3,1.2-0.3c0.5,0,0.9,0.1,1.2,0.3c0.3,0.2,0.6,0.4,0.8,0.8s0.4,0.7,0.5,1.1c0.1,0.4,0.1,0.8,0.1,1.2h-4.6
			C30.1,5.8,30.1,6,30.2,6.3z M33.8,4.1c-0.1-0.3-0.2-0.5-0.4-0.7c-0.2-0.2-0.4-0.4-0.6-0.5S32.3,2.7,32,2.7c-0.3,0-0.6,0.1-0.8,0.2
			s-0.4,0.3-0.6,0.5s-0.3,0.4-0.4,0.7c-0.1,0.3-0.2,0.5-0.2,0.8H34C33.9,4.6,33.9,4.3,33.8,4.1z"/>
		<path class="st0" d="M38.3,2.3v0.6h-1.2v4c0,0.2,0,0.4,0.1,0.6c0.1,0.1,0.2,0.2,0.5,0.2c0.2,0,0.4,0,0.6,0v0.6c-0.1,0-0.2,0-0.3,0
			c-0.1,0-0.2,0-0.3,0c-0.5,0-0.8-0.1-1-0.3c-0.2-0.2-0.3-0.5-0.3-1.1V2.9h-1V2.3h1V0.5h0.7v1.8H38.3z"/>
		<path class="st0" d="M40.1,6.3c0.1,0.3,0.2,0.5,0.4,0.8s0.4,0.4,0.6,0.6c0.2,0.1,0.5,0.2,0.9,0.2c0.5,0,1-0.1,1.3-0.4
			c0.3-0.3,0.5-0.7,0.6-1.1h0.7c-0.2,0.7-0.4,1.2-0.9,1.6c-0.4,0.4-1,0.6-1.8,0.6c-0.5,0-0.9-0.1-1.2-0.3c-0.3-0.2-0.6-0.4-0.8-0.7
			c-0.2-0.3-0.4-0.6-0.5-1c-0.1-0.4-0.2-0.8-0.2-1.2c0-0.4,0.1-0.8,0.2-1.2c0.1-0.4,0.3-0.7,0.5-1c0.2-0.3,0.5-0.5,0.8-0.7
			c0.3-0.2,0.8-0.3,1.2-0.3c0.5,0,0.9,0.1,1.2,0.3c0.3,0.2,0.6,0.4,0.8,0.8s0.4,0.7,0.5,1.1c0.1,0.4,0.1,0.8,0.1,1.2H40
			C40,5.8,40,6,40.1,6.3z M43.7,4.1c-0.1-0.3-0.2-0.5-0.4-0.7C43.2,3.2,43,3,42.8,2.9S42.3,2.7,42,2.7c-0.3,0-0.6,0.1-0.8,0.2
			s-0.4,0.3-0.6,0.5s-0.3,0.4-0.4,0.7C40.1,4.3,40,4.6,40,4.9h3.9C43.9,4.6,43.8,4.3,43.7,4.1z"/>
		<path class="st0" d="M49.3,3.5c-0.1-0.2-0.2-0.3-0.3-0.4c-0.1-0.1-0.3-0.2-0.5-0.2s-0.4-0.1-0.6-0.1c-0.2,0-0.3,0-0.5,0.1
			c-0.2,0-0.3,0.1-0.5,0.2c-0.1,0.1-0.3,0.2-0.3,0.3c-0.1,0.1-0.1,0.3-0.1,0.5c0,0.2,0,0.3,0.1,0.4c0.1,0.1,0.2,0.2,0.3,0.3
			c0.1,0.1,0.3,0.1,0.4,0.2c0.1,0,0.3,0.1,0.4,0.1l1,0.2c0.2,0,0.4,0.1,0.6,0.2c0.2,0.1,0.4,0.2,0.5,0.3C50,5.6,50.1,5.8,50.2,6
			c0.1,0.2,0.2,0.4,0.2,0.7c0,0.3-0.1,0.6-0.2,0.8s-0.3,0.4-0.6,0.6s-0.5,0.2-0.8,0.3c-0.3,0.1-0.6,0.1-0.8,0.1
			c-0.7,0-1.3-0.2-1.7-0.5s-0.7-0.9-0.7-1.6h0.7c0,0.5,0.2,0.9,0.5,1.1c0.3,0.3,0.7,0.4,1.2,0.4c0.2,0,0.4,0,0.6-0.1
			c0.2,0,0.4-0.1,0.5-0.2c0.2-0.1,0.3-0.2,0.4-0.4c0.1-0.1,0.2-0.3,0.2-0.5c0-0.2,0-0.3-0.1-0.4C49.5,6.1,49.4,6,49.2,6
			c-0.1-0.1-0.3-0.1-0.4-0.2c-0.2-0.1-0.3-0.1-0.5-0.1l-0.9-0.2c-0.2-0.1-0.5-0.1-0.7-0.2S46.3,5,46.2,4.9c-0.2-0.1-0.3-0.3-0.4-0.4
			c-0.1-0.2-0.1-0.4-0.1-0.6c0-0.3,0.1-0.6,0.2-0.8s0.3-0.4,0.5-0.5c0.2-0.1,0.5-0.2,0.7-0.3c0.3-0.1,0.5-0.1,0.8-0.1
			c0.3,0,0.6,0,0.8,0.1s0.5,0.2,0.7,0.4C49.7,2.8,49.8,3,50,3.2s0.2,0.5,0.2,0.8h-0.7C49.4,3.8,49.4,3.6,49.3,3.5z"/>
		<path class="st0" d="M9.2,16.2v0.6H7.9v4c0,0.2,0,0.4,0.1,0.6c0.1,0.1,0.2,0.2,0.5,0.2c0.2,0,0.4,0,0.6,0v0.6c-0.1,0-0.2,0-0.3,0
			c-0.1,0-0.2,0-0.3,0c-0.5,0-0.8-0.1-1-0.3c-0.2-0.2-0.3-0.5-0.3-1.1v-4.1h-1v-0.6h1v-1.8h0.7v1.8H9.2z"/>
		<path class="st0" d="M11.2,13.9v1.2h-0.7v-1.2H11.2z M11.2,16.2v6h-0.7v-6H11.2z"/>
		<path class="st0" d="M13.5,16.2v1.1h0c0.2-0.4,0.4-0.7,0.8-1c0.4-0.2,0.8-0.3,1.3-0.3c0.5,0,0.9,0.1,1.2,0.3
			c0.3,0.2,0.6,0.4,0.8,0.7c0.2,0.3,0.4,0.6,0.5,1s0.2,0.8,0.2,1.2c0,0.4-0.1,0.8-0.2,1.2c-0.1,0.4-0.3,0.7-0.5,1
			c-0.2,0.3-0.5,0.5-0.8,0.7c-0.3,0.2-0.7,0.3-1.2,0.3c-0.2,0-0.4,0-0.7-0.1c-0.2-0.1-0.4-0.1-0.6-0.2c-0.2-0.1-0.4-0.2-0.5-0.4
			c-0.1-0.2-0.3-0.4-0.3-0.6h0v3.3h-0.7v-8.2H13.5z M17.5,18.3c-0.1-0.3-0.2-0.6-0.3-0.8c-0.2-0.2-0.4-0.4-0.6-0.6
			c-0.2-0.2-0.5-0.2-0.9-0.2c-0.4,0-0.7,0.1-1,0.2c-0.3,0.1-0.5,0.3-0.7,0.6c-0.2,0.2-0.3,0.5-0.3,0.8c-0.1,0.3-0.1,0.6-0.1,1
			c0,0.3,0,0.6,0.1,0.9c0.1,0.3,0.2,0.6,0.4,0.8c0.2,0.2,0.4,0.4,0.7,0.6c0.3,0.2,0.6,0.2,1,0.2c0.3,0,0.6-0.1,0.9-0.2
			s0.5-0.3,0.6-0.6c0.2-0.2,0.3-0.5,0.3-0.8c0.1-0.3,0.1-0.6,0.1-0.9C17.6,18.9,17.6,18.6,17.5,18.3z"/>
		<path class="st0" d="M23.5,16.3c0.4,0.2,0.6,0.4,0.9,0.7c0.2,0.3,0.4,0.6,0.5,1c0.1,0.4,0.2,0.8,0.2,1.2c0,0.4-0.1,0.8-0.2,1.2
			c-0.1,0.4-0.3,0.7-0.5,1c-0.2,0.3-0.5,0.5-0.9,0.7c-0.4,0.2-0.8,0.3-1.2,0.3s-0.9-0.1-1.2-0.3c-0.4-0.2-0.6-0.4-0.9-0.7
			c-0.2-0.3-0.4-0.6-0.5-1c-0.1-0.4-0.2-0.8-0.2-1.2c0-0.4,0.1-0.8,0.2-1.2s0.3-0.7,0.5-1c0.2-0.3,0.5-0.5,0.9-0.7
			c0.4-0.2,0.8-0.3,1.2-0.3S23.1,16.2,23.5,16.3z M21.4,16.9c-0.3,0.1-0.5,0.3-0.7,0.6c-0.2,0.2-0.3,0.5-0.4,0.8
			c-0.1,0.3-0.1,0.6-0.1,0.9c0,0.3,0,0.6,0.1,0.9c0.1,0.3,0.2,0.6,0.4,0.8c0.2,0.2,0.4,0.4,0.7,0.6c0.3,0.1,0.6,0.2,0.9,0.2
			s0.7-0.1,0.9-0.2c0.3-0.1,0.5-0.3,0.7-0.6c0.2-0.2,0.3-0.5,0.4-0.8c0.1-0.3,0.1-0.6,0.1-0.9c0-0.3,0-0.6-0.1-0.9
			c-0.1-0.3-0.2-0.6-0.4-0.8c-0.2-0.2-0.4-0.4-0.7-0.6c-0.3-0.1-0.6-0.2-0.9-0.2S21.6,16.8,21.4,16.9z"/>
		<path class="st0" d="M30.9,13.9v8.3h-0.8v-8.3H30.9z"/>
		<path class="st0" d="M33.7,13.9v8.3h-0.8v-8.3H33.7z"/>
		<path class="st0" d="M37.2,13.6h0.4v3.2h0.7v0.4h-0.7v1.2h-0.4v-1.2H35v-0.4L37.2,13.6z M37.2,14.3L37.2,14.3l-1.8,2.6h1.8V14.3z"
			/>
	</g>
</g>
</svg>
