<!-- Generator: Adobe Illustrator 20.1.0, SVG Export Plug-In  -->
<svg version="1.1"
	 xmlns="http://www.w3.org/2000/svg" xmlns:xlink="http://www.w3.org/1999/xlink" xmlns:a="http://ns.adobe.com/AdobeSVGViewerExtensions/3.0/"
	 x="0px" y="0px" width="204.1px" height="10.3px" viewBox="0 0 204.1 10.3"
	 style="overflow:scroll;enable-background:new 0 0 204.1 10.3;" xml:space="preserve">
<style type="text/css">
	.st0{fill:#58595B;}
</style>
<defs>
</defs>
<g>
	<path class="st0" d="M5.2,1.3C4.8,1,4.3,0.9,3.8,0.9C3.3,0.9,2.9,1,2.5,1.2C2.2,1.3,1.9,1.6,1.7,1.9c-0.2,0.3-0.4,0.6-0.5,1
		S1.1,3.7,1.1,4.1c0,0.5,0.1,0.9,0.2,1.3c0.1,0.4,0.3,0.8,0.5,1.1S2.2,7,2.5,7.2c0.3,0.2,0.8,0.3,1.2,0.3c0.3,0,0.7-0.1,0.9-0.2
		C5,7.1,5.2,7,5.4,6.8s0.4-0.4,0.5-0.7C6,5.8,6,5.5,6.1,5.1h1.1c-0.1,1-0.4,1.8-1,2.3C5.5,8,4.7,8.3,3.7,8.3C3.1,8.3,2.5,8.2,2.1,8
		C1.6,7.8,1.2,7.5,0.9,7.1S0.4,6.3,0.2,5.8C0.1,5.3,0,4.8,0,4.2c0-0.6,0.1-1.1,0.2-1.6C0.4,2,0.6,1.6,1,1.2c0.3-0.4,0.7-0.7,1.2-0.9
		S3.2,0,3.8,0c0.4,0,0.8,0.1,1.2,0.2s0.7,0.3,1,0.5c0.3,0.2,0.5,0.5,0.7,0.8C6.8,1.8,7,2.2,7,2.6H6C5.9,2,5.6,1.6,5.2,1.3z"/>
	<path class="st0" d="M12.4,0.2c0.8,0,1.3,0.2,1.8,0.6c0.4,0.4,0.6,0.9,0.6,1.5c0,0.5-0.1,0.9-0.3,1.3c-0.2,0.4-0.6,0.6-1.1,0.7v0
		c0.2,0,0.4,0.1,0.6,0.2c0.1,0.1,0.3,0.2,0.3,0.4s0.1,0.3,0.2,0.5c0,0.2,0.1,0.4,0.1,0.6c0,0.2,0,0.4,0,0.6c0,0.2,0,0.4,0.1,0.6
		c0,0.2,0.1,0.4,0.1,0.6C14.9,7.8,15,8,15.1,8.1h-1.2c-0.1-0.1-0.1-0.2-0.2-0.3c0-0.1,0-0.3-0.1-0.5c0-0.2,0-0.4,0-0.6
		c0-0.2,0-0.4-0.1-0.6c0-0.2-0.1-0.4-0.1-0.6c0-0.2-0.1-0.3-0.2-0.5c-0.1-0.1-0.2-0.2-0.4-0.3c-0.2-0.1-0.4-0.1-0.6-0.1H9.7v3.4H8.6
		V0.2H12.4z M12.6,3.8c0.2,0,0.4-0.1,0.6-0.2c0.2-0.1,0.3-0.3,0.4-0.4s0.2-0.4,0.2-0.7c0-0.4-0.1-0.7-0.3-1
		c-0.2-0.3-0.6-0.4-1.1-0.4H9.7v2.8h2.2C12.2,3.9,12.4,3.8,12.6,3.8z"/>
	<path class="st0" d="M17.6,0.2v3.4h4.2V0.2h1.1v7.9h-1.1V4.5h-4.2v3.6h-1.1V0.2H17.6z"/>
	<path class="st0" d="M24.8,3.6V2.4H26v1.2H24.8z M26,6.9v1.2h-1.2V6.9H26z"/>
	<path class="st0" d="M30.7,3.2V2.4h1V1.5c0-0.5,0.1-0.8,0.4-1.1s0.7-0.4,1.2-0.4c0.1,0,0.2,0,0.3,0c0.1,0,0.2,0,0.3,0.1V1
		c-0.1,0-0.2,0-0.3-0.1c-0.1,0-0.2,0-0.3,0c-0.2,0-0.4,0-0.5,0.1c-0.1,0.1-0.2,0.3-0.2,0.5v0.8h1.1v0.8h-1.1v4.9h-0.9V3.2H30.7z"/>
	<path class="st0" d="M39.2,8.3c-0.2,0-0.4-0.1-0.6-0.2c-0.1-0.1-0.2-0.4-0.2-0.7c-0.3,0.3-0.6,0.5-0.9,0.7
		c-0.3,0.1-0.7,0.2-1.1,0.2c-0.3,0-0.5,0-0.7-0.1C35.4,8.1,35.2,8,35,7.9c-0.2-0.1-0.3-0.3-0.4-0.5s-0.2-0.5-0.2-0.7
		c0-0.3,0.1-0.6,0.2-0.8c0.1-0.2,0.3-0.4,0.4-0.5c0.2-0.1,0.4-0.2,0.6-0.3c0.2-0.1,0.5-0.1,0.7-0.2c0.3-0.1,0.5-0.1,0.7-0.1
		c0.2,0,0.4-0.1,0.6-0.1c0.2,0,0.3-0.1,0.4-0.2s0.2-0.2,0.2-0.4c0-0.2,0-0.4-0.1-0.5c-0.1-0.1-0.2-0.2-0.3-0.3
		c-0.1-0.1-0.3-0.1-0.4-0.1c-0.2,0-0.3,0-0.5,0c-0.4,0-0.7,0.1-1,0.2c-0.3,0.2-0.4,0.4-0.4,0.9h-0.9c0-0.4,0.1-0.7,0.2-0.9
		C35,3,35.2,2.8,35.4,2.7c0.2-0.2,0.5-0.3,0.8-0.3c0.3-0.1,0.6-0.1,0.9-0.1c0.3,0,0.5,0,0.8,0.1c0.3,0,0.5,0.1,0.7,0.2
		c0.2,0.1,0.4,0.3,0.5,0.5c0.1,0.2,0.2,0.5,0.2,0.8v3c0,0.2,0,0.4,0,0.5c0,0.1,0.1,0.2,0.3,0.2c0.1,0,0.2,0,0.3-0.1v0.7
		C39.7,8.2,39.5,8.3,39.2,8.3z M37.8,5.4c-0.2,0-0.4,0.1-0.6,0.1c-0.2,0-0.4,0.1-0.6,0.1c-0.2,0-0.4,0.1-0.6,0.2
		c-0.2,0.1-0.3,0.2-0.4,0.3c-0.1,0.1-0.2,0.3-0.2,0.6c0,0.2,0,0.3,0.1,0.4c0.1,0.1,0.1,0.2,0.2,0.3c0.1,0.1,0.2,0.1,0.4,0.1
		c0.1,0,0.3,0,0.4,0c0.3,0,0.6,0,0.8-0.1s0.4-0.2,0.5-0.3s0.2-0.3,0.3-0.4c0.1-0.2,0.1-0.3,0.1-0.4v-1C38.2,5.3,38,5.3,37.8,5.4z"/>
	<path class="st0" d="M44.4,3.4c-0.2-0.2-0.6-0.3-1-0.3c-0.3,0-0.6,0.1-0.9,0.2S42.2,3.6,42,3.8s-0.2,0.4-0.3,0.7
		c-0.1,0.3-0.1,0.6-0.1,0.8c0,0.3,0,0.5,0.1,0.8c0.1,0.3,0.2,0.5,0.3,0.7c0.1,0.2,0.3,0.4,0.5,0.5c0.2,0.1,0.5,0.2,0.8,0.2
		c0.5,0,0.8-0.1,1.1-0.4s0.4-0.6,0.5-1h1c-0.1,0.7-0.4,1.3-0.8,1.6c-0.4,0.4-1,0.6-1.7,0.6c-0.4,0-0.8-0.1-1.2-0.2s-0.6-0.3-0.8-0.6
		s-0.4-0.6-0.5-0.9c-0.1-0.4-0.2-0.8-0.2-1.2c0-0.4,0.1-0.8,0.2-1.2s0.3-0.7,0.5-1s0.5-0.5,0.9-0.7c0.3-0.2,0.7-0.2,1.2-0.2
		c0.3,0,0.6,0,0.9,0.1s0.5,0.2,0.8,0.4c0.2,0.2,0.4,0.4,0.5,0.6c0.1,0.2,0.2,0.5,0.3,0.9h-1C44.8,3.9,44.6,3.6,44.4,3.4z"/>
	<path class="st0" d="M49.6,2.4v0.8h-1.1v3.6c0,0.1,0,0.2,0,0.3c0,0.1,0.1,0.1,0.1,0.2c0.1,0,0.1,0.1,0.2,0.1c0.1,0,0.2,0,0.4,0h0.4
		v0.8h-0.7c-0.2,0-0.5,0-0.6,0c-0.2,0-0.3-0.1-0.4-0.2c-0.1-0.1-0.2-0.2-0.2-0.4c-0.1-0.2-0.1-0.4-0.1-0.6V3.2h-1V2.4h1V0.7h0.9v1.7
		H49.6z"/>
	<path class="st0" d="M50.7,4.1c0.1-0.4,0.3-0.7,0.5-1c0.2-0.3,0.5-0.5,0.9-0.6c0.3-0.2,0.8-0.2,1.2-0.2c0.5,0,0.9,0.1,1.2,0.2
		c0.3,0.2,0.6,0.4,0.9,0.6c0.2,0.3,0.4,0.6,0.5,1c0.1,0.4,0.2,0.8,0.2,1.2S56.1,6.1,56,6.4c-0.1,0.4-0.3,0.7-0.5,1S54.9,7.9,54.6,8
		c-0.3,0.2-0.7,0.2-1.2,0.2c-0.5,0-0.9-0.1-1.2-0.2c-0.3-0.2-0.6-0.4-0.9-0.6c-0.2-0.3-0.4-0.6-0.5-1c-0.1-0.4-0.2-0.8-0.2-1.2
		S50.6,4.4,50.7,4.1z M51.7,6.2c0.1,0.3,0.2,0.5,0.4,0.7c0.2,0.2,0.4,0.3,0.6,0.4s0.5,0.1,0.7,0.1c0.2,0,0.5,0,0.7-0.1
		c0.2-0.1,0.4-0.2,0.6-0.4c0.2-0.2,0.3-0.4,0.4-0.7c0.1-0.3,0.1-0.6,0.1-0.9c0-0.3,0-0.7-0.1-0.9c-0.1-0.3-0.2-0.5-0.4-0.7
		s-0.4-0.3-0.6-0.4c-0.2-0.1-0.5-0.1-0.7-0.1c-0.2,0-0.5,0-0.7,0.1c-0.2,0.1-0.4,0.2-0.6,0.4c-0.2,0.2-0.3,0.4-0.4,0.7
		c-0.1,0.3-0.1,0.6-0.1,0.9C51.6,5.6,51.6,5.9,51.7,6.2z"/>
	<path class="st0" d="M58.3,2.4v1.2h0c0.2-0.5,0.5-0.8,0.8-1s0.8-0.3,1.3-0.3v1c-0.4,0-0.7,0.1-1,0.2c-0.3,0.1-0.5,0.3-0.6,0.5
		c-0.2,0.2-0.3,0.4-0.4,0.7c-0.1,0.3-0.1,0.6-0.1,1v2.6h-0.9V2.4H58.3z"/>
	<path class="st0" d="M65.7,0.2v7.9h-0.9V0.2H65.7z"/>
	<path class="st0" d="M67.5,1.3V0.2h0.9v1.2H67.5z M68.4,2.4v5.8h-0.9V2.4H68.4z"/>
	<path class="st0" d="M71.1,0.2v3h0c0.2-0.3,0.4-0.6,0.7-0.7s0.7-0.2,1.1-0.2c0.4,0,0.8,0.1,1.2,0.2s0.6,0.4,0.8,0.7
		c0.2,0.3,0.4,0.6,0.5,1c0.1,0.4,0.2,0.8,0.2,1.2s-0.1,0.8-0.2,1.2s-0.3,0.7-0.5,1c-0.2,0.3-0.5,0.5-0.8,0.6
		c-0.3,0.2-0.7,0.2-1.2,0.2c-0.1,0-0.3,0-0.5,0c-0.2,0-0.3-0.1-0.5-0.1c-0.2-0.1-0.3-0.2-0.5-0.3c-0.2-0.1-0.3-0.3-0.4-0.4h0v0.8
		h-0.9V0.2H71.1z M74.5,4.4c-0.1-0.3-0.2-0.5-0.3-0.7s-0.3-0.4-0.6-0.5c-0.2-0.1-0.5-0.2-0.8-0.2c-0.3,0-0.6,0.1-0.8,0.2
		s-0.4,0.3-0.5,0.5c-0.1,0.2-0.2,0.4-0.3,0.7S71.1,5,71.1,5.3c0,0.3,0,0.6,0.1,0.8c0.1,0.3,0.2,0.5,0.3,0.7s0.3,0.4,0.6,0.5
		c0.2,0.1,0.5,0.2,0.8,0.2s0.6-0.1,0.8-0.2s0.4-0.3,0.5-0.5c0.1-0.2,0.2-0.4,0.3-0.7c0.1-0.3,0.1-0.5,0.1-0.8
		C74.6,4.9,74.6,4.7,74.5,4.4z"/>
	<path class="st0" d="M81,7.8c-0.4,0.3-1,0.5-1.6,0.5c-0.5,0-0.9-0.1-1.2-0.2c-0.3-0.1-0.6-0.4-0.9-0.6c-0.2-0.3-0.4-0.6-0.5-1
		s-0.2-0.8-0.2-1.2c0-0.4,0.1-0.8,0.2-1.2c0.1-0.4,0.3-0.7,0.6-0.9c0.2-0.3,0.5-0.5,0.9-0.6s0.7-0.2,1.1-0.2c0.5,0,0.9,0.1,1.3,0.3
		C81,2.8,81.2,3,81.4,3.4c0.2,0.3,0.3,0.7,0.4,1.1s0.1,0.8,0.1,1.1h-4.3c0,0.3,0,0.5,0.1,0.7c0.1,0.2,0.2,0.4,0.3,0.6
		s0.3,0.3,0.6,0.4c0.2,0.1,0.5,0.2,0.8,0.2c0.4,0,0.7-0.1,1-0.3s0.4-0.5,0.5-0.8h0.9C81.7,7,81.5,7.4,81,7.8z M80.8,4.1
		c-0.1-0.2-0.2-0.4-0.3-0.5s-0.3-0.3-0.5-0.3c-0.2-0.1-0.4-0.1-0.7-0.1c-0.2,0-0.5,0-0.7,0.1c-0.2,0.1-0.4,0.2-0.5,0.4
		s-0.3,0.3-0.3,0.5c-0.1,0.2-0.1,0.4-0.1,0.6h3.3C80.9,4.5,80.9,4.3,80.8,4.1z"/>
	<path class="st0" d="M84,2.4v1.2h0c0.2-0.5,0.5-0.8,0.8-1s0.8-0.3,1.3-0.3v1c-0.4,0-0.7,0.1-1,0.2c-0.3,0.1-0.5,0.3-0.6,0.5
		c-0.2,0.2-0.3,0.4-0.4,0.7c-0.1,0.3-0.1,0.6-0.1,1v2.6h-0.9V2.4H84z"/>
	<path class="st0" d="M91.5,8.3c-0.2,0-0.4-0.1-0.6-0.2c-0.1-0.1-0.2-0.4-0.2-0.7c-0.3,0.3-0.6,0.5-0.9,0.7
		c-0.3,0.1-0.7,0.2-1.1,0.2c-0.3,0-0.5,0-0.7-0.1c-0.2-0.1-0.4-0.1-0.6-0.3c-0.2-0.1-0.3-0.3-0.4-0.5s-0.2-0.5-0.2-0.7
		c0-0.3,0.1-0.6,0.2-0.8c0.1-0.2,0.3-0.4,0.4-0.5c0.2-0.1,0.4-0.2,0.6-0.3c0.2-0.1,0.5-0.1,0.7-0.2c0.3-0.1,0.5-0.1,0.7-0.1
		c0.2,0,0.4-0.1,0.6-0.1c0.2,0,0.3-0.1,0.4-0.2s0.2-0.2,0.2-0.4c0-0.2,0-0.4-0.1-0.5c-0.1-0.1-0.2-0.2-0.3-0.3
		c-0.1-0.1-0.3-0.1-0.4-0.1c-0.2,0-0.3,0-0.5,0c-0.4,0-0.7,0.1-1,0.2c-0.3,0.2-0.4,0.4-0.4,0.9H87c0-0.4,0.1-0.7,0.2-0.9
		c0.1-0.2,0.3-0.4,0.5-0.6c0.2-0.2,0.5-0.3,0.8-0.3c0.3-0.1,0.6-0.1,0.9-0.1c0.3,0,0.5,0,0.8,0.1c0.3,0,0.5,0.1,0.7,0.2
		c0.2,0.1,0.4,0.3,0.5,0.5c0.1,0.2,0.2,0.5,0.2,0.8v3c0,0.2,0,0.4,0,0.5c0,0.1,0.1,0.2,0.3,0.2c0.1,0,0.2,0,0.3-0.1v0.7
		C92,8.2,91.8,8.3,91.5,8.3z M90.2,5.4c-0.2,0-0.4,0.1-0.6,0.1c-0.2,0-0.4,0.1-0.6,0.1c-0.2,0-0.4,0.1-0.6,0.2
		C88.2,5.8,88,5.9,87.9,6c-0.1,0.1-0.2,0.3-0.2,0.6c0,0.2,0,0.3,0.1,0.4c0.1,0.1,0.1,0.2,0.2,0.3c0.1,0.1,0.2,0.1,0.4,0.1
		c0.1,0,0.3,0,0.4,0c0.3,0,0.6,0,0.8-0.1s0.4-0.2,0.5-0.3s0.2-0.3,0.3-0.4c0.1-0.2,0.1-0.3,0.1-0.4v-1C90.5,5.3,90.4,5.3,90.2,5.4z"
		/>
	<path class="st0" d="M97.5,8.1V7.4h0C97.3,7.7,97,7.9,96.7,8S96,8.3,95.6,8.3c-0.4,0-0.8-0.1-1.2-0.2s-0.6-0.4-0.8-0.7
		c-0.2-0.3-0.4-0.6-0.5-1S93,5.7,93,5.2c0-0.4,0.1-0.8,0.2-1.2s0.3-0.7,0.5-1c0.2-0.3,0.5-0.5,0.8-0.6c0.3-0.2,0.7-0.2,1.2-0.2
		c0.1,0,0.3,0,0.5,0c0.2,0,0.3,0.1,0.5,0.2c0.2,0.1,0.3,0.2,0.5,0.3c0.2,0.1,0.3,0.3,0.4,0.4h0v-3h0.9v7.9H97.5z M94.1,6.1
		c0.1,0.3,0.2,0.5,0.3,0.7C94.5,7,94.7,7.1,95,7.3c0.2,0.1,0.5,0.2,0.8,0.2c0.3,0,0.6-0.1,0.8-0.2S97,7,97.1,6.8
		c0.1-0.2,0.2-0.4,0.3-0.7s0.1-0.5,0.1-0.8c0-0.3,0-0.6-0.1-0.8c-0.1-0.3-0.2-0.5-0.3-0.7s-0.3-0.4-0.6-0.5
		c-0.2-0.1-0.5-0.2-0.8-0.2c-0.3,0-0.6,0.1-0.8,0.2s-0.4,0.3-0.5,0.5s-0.2,0.4-0.3,0.7C94,4.8,94,5,94,5.3C94,5.6,94,5.8,94.1,6.1z"
		/>
	<path class="st0" d="M100,4.1c0.1-0.4,0.3-0.7,0.5-1c0.2-0.3,0.5-0.5,0.9-0.6c0.3-0.2,0.8-0.2,1.2-0.2c0.5,0,0.9,0.1,1.2,0.2
		c0.3,0.2,0.6,0.4,0.9,0.6c0.2,0.3,0.4,0.6,0.5,1c0.1,0.4,0.2,0.8,0.2,1.2s-0.1,0.8-0.2,1.2c-0.1,0.4-0.3,0.7-0.5,1
		s-0.5,0.5-0.9,0.6c-0.3,0.2-0.7,0.2-1.2,0.2c-0.5,0-0.9-0.1-1.2-0.2c-0.3-0.2-0.6-0.4-0.9-0.6c-0.2-0.3-0.4-0.6-0.5-1
		c-0.1-0.4-0.2-0.8-0.2-1.2S99.8,4.4,100,4.1z M100.9,6.2c0.1,0.3,0.2,0.5,0.4,0.7c0.2,0.2,0.4,0.3,0.6,0.4s0.5,0.1,0.7,0.1
		c0.2,0,0.5,0,0.7-0.1c0.2-0.1,0.4-0.2,0.6-0.4c0.2-0.2,0.3-0.4,0.4-0.7c0.1-0.3,0.1-0.6,0.1-0.9c0-0.3,0-0.7-0.1-0.9
		c-0.1-0.3-0.2-0.5-0.4-0.7s-0.4-0.3-0.6-0.4c-0.2-0.1-0.5-0.1-0.7-0.1c-0.2,0-0.5,0-0.7,0.1c-0.2,0.1-0.4,0.2-0.6,0.4
		c-0.2,0.2-0.3,0.4-0.4,0.7c-0.1,0.3-0.1,0.6-0.1,0.9C100.8,5.6,100.8,5.9,100.9,6.2z"/>
	<path class="st0" d="M107.6,2.4v1.2h0c0.2-0.5,0.5-0.8,0.8-1s0.8-0.3,1.3-0.3v1c-0.4,0-0.7,0.1-1,0.2c-0.3,0.1-0.5,0.3-0.6,0.5
		c-0.2,0.2-0.3,0.4-0.4,0.7c-0.1,0.3-0.1,0.6-0.1,1v2.6h-0.9V2.4H107.6z"/>
	<path class="st0" d="M118.2,8.1V7.4h0c-0.2,0.3-0.4,0.5-0.7,0.7c-0.3,0.1-0.7,0.2-1.1,0.2c-0.4,0-0.8-0.1-1.2-0.2s-0.6-0.4-0.8-0.7
		s-0.4-0.6-0.5-1s-0.2-0.8-0.2-1.2c0-0.4,0.1-0.8,0.2-1.2c0.1-0.4,0.3-0.7,0.5-1c0.2-0.3,0.5-0.5,0.8-0.6c0.3-0.2,0.7-0.2,1.2-0.2
		c0.1,0,0.3,0,0.5,0s0.3,0.1,0.5,0.2s0.3,0.2,0.5,0.3s0.3,0.3,0.4,0.4h0v-3h0.9v7.9H118.2z M114.8,6.1c0.1,0.3,0.2,0.5,0.3,0.7
		c0.1,0.2,0.3,0.4,0.6,0.5c0.2,0.1,0.5,0.2,0.8,0.2c0.3,0,0.6-0.1,0.8-0.2s0.4-0.3,0.5-0.5s0.2-0.4,0.3-0.7c0.1-0.3,0.1-0.5,0.1-0.8
		c0-0.3,0-0.6-0.1-0.8c-0.1-0.3-0.2-0.5-0.3-0.7s-0.3-0.4-0.6-0.5c-0.2-0.1-0.5-0.2-0.8-0.2c-0.3,0-0.6,0.1-0.8,0.2
		s-0.4,0.3-0.5,0.5c-0.1,0.2-0.2,0.4-0.3,0.7c-0.1,0.3-0.1,0.5-0.1,0.8C114.6,5.6,114.7,5.8,114.8,6.1z"/>
	<path class="st0" d="M124.9,7.8c-0.4,0.3-1,0.5-1.6,0.5c-0.5,0-0.9-0.1-1.2-0.2c-0.3-0.1-0.6-0.4-0.9-0.6c-0.2-0.3-0.4-0.6-0.5-1
		s-0.2-0.8-0.2-1.2c0-0.4,0.1-0.8,0.2-1.2c0.1-0.4,0.3-0.7,0.6-0.9c0.2-0.3,0.5-0.5,0.9-0.6s0.7-0.2,1.1-0.2c0.5,0,0.9,0.1,1.3,0.3
		c0.3,0.2,0.6,0.5,0.8,0.8c0.2,0.3,0.3,0.7,0.4,1.1c0.1,0.4,0.1,0.8,0.1,1.1h-4.3c0,0.3,0,0.5,0.1,0.7c0.1,0.2,0.2,0.4,0.3,0.6
		s0.3,0.3,0.6,0.4c0.2,0.1,0.5,0.2,0.8,0.2c0.4,0,0.7-0.1,1-0.3s0.4-0.5,0.5-0.8h0.9C125.6,7,125.3,7.4,124.9,7.8z M124.6,4.1
		c-0.1-0.2-0.2-0.4-0.3-0.5s-0.3-0.3-0.5-0.3c-0.2-0.1-0.4-0.1-0.7-0.1c-0.2,0-0.5,0-0.7,0.1c-0.2,0.1-0.4,0.2-0.5,0.4
		c-0.1,0.1-0.3,0.3-0.3,0.5c-0.1,0.2-0.1,0.4-0.1,0.6h3.3C124.8,4.5,124.7,4.3,124.6,4.1z"/>
	<path class="st0" d="M133.7,3.4c-0.2-0.2-0.6-0.3-1-0.3c-0.3,0-0.6,0.1-0.9,0.2s-0.4,0.3-0.6,0.5s-0.2,0.4-0.3,0.7
		C131,4.8,131,5,131,5.3c0,0.3,0,0.5,0.1,0.8c0.1,0.3,0.2,0.5,0.3,0.7c0.1,0.2,0.3,0.4,0.5,0.5c0.2,0.1,0.5,0.2,0.8,0.2
		c0.5,0,0.8-0.1,1.1-0.4s0.4-0.6,0.5-1h1c-0.1,0.7-0.4,1.3-0.8,1.6c-0.4,0.4-1,0.6-1.7,0.6c-0.4,0-0.8-0.1-1.2-0.2s-0.6-0.3-0.8-0.6
		s-0.4-0.6-0.5-0.9C130,6.2,130,5.8,130,5.3c0-0.4,0.1-0.8,0.2-1.2s0.3-0.7,0.5-1s0.5-0.5,0.9-0.7c0.3-0.2,0.7-0.2,1.2-0.2
		c0.3,0,0.6,0,0.9,0.1s0.5,0.2,0.8,0.4c0.2,0.2,0.4,0.4,0.5,0.6c0.1,0.2,0.2,0.5,0.3,0.9h-1C134.1,3.9,134,3.6,133.7,3.4z"/>
	<path class="st0" d="M136.4,4.1c0.1-0.4,0.3-0.7,0.5-1c0.2-0.3,0.5-0.5,0.9-0.6c0.3-0.2,0.8-0.2,1.2-0.2c0.5,0,0.9,0.1,1.2,0.2
		c0.3,0.2,0.6,0.4,0.9,0.6c0.2,0.3,0.4,0.6,0.5,1c0.1,0.4,0.2,0.8,0.2,1.2s-0.1,0.8-0.2,1.2c-0.1,0.4-0.3,0.7-0.5,1
		s-0.5,0.5-0.9,0.6c-0.3,0.2-0.7,0.2-1.2,0.2c-0.5,0-0.9-0.1-1.2-0.2c-0.3-0.2-0.6-0.4-0.9-0.6c-0.2-0.3-0.4-0.6-0.5-1
		c-0.1-0.4-0.2-0.8-0.2-1.2S136.2,4.4,136.4,4.1z M137.3,6.2c0.1,0.3,0.2,0.5,0.4,0.7c0.2,0.2,0.4,0.3,0.6,0.4s0.5,0.1,0.7,0.1
		c0.2,0,0.5,0,0.7-0.1c0.2-0.1,0.4-0.2,0.6-0.4c0.2-0.2,0.3-0.4,0.4-0.7c0.1-0.3,0.1-0.6,0.1-0.9c0-0.3,0-0.7-0.1-0.9
		c-0.1-0.3-0.2-0.5-0.4-0.7s-0.4-0.3-0.6-0.4c-0.2-0.1-0.5-0.1-0.7-0.1c-0.2,0-0.5,0-0.7,0.1c-0.2,0.1-0.4,0.2-0.6,0.4
		c-0.2,0.2-0.3,0.4-0.4,0.7c-0.1,0.3-0.1,0.6-0.1,0.9C137.2,5.6,137.2,5.9,137.3,6.2z"/>
	<path class="st0" d="M144,2.4v1.2h0c0.2-0.5,0.5-0.8,0.8-1s0.8-0.3,1.3-0.3v1c-0.4,0-0.7,0.1-1,0.2c-0.3,0.1-0.5,0.3-0.6,0.5
		c-0.2,0.2-0.3,0.4-0.4,0.7c-0.1,0.3-0.1,0.6-0.1,1v2.6h-0.9V2.4H144z"/>
	<path class="st0" d="M149.5,2.4v0.8h-1.1v3.6c0,0.1,0,0.2,0,0.3c0,0.1,0.1,0.1,0.1,0.2c0.1,0,0.1,0.1,0.2,0.1c0.1,0,0.2,0,0.4,0
		h0.4v0.8h-0.7c-0.2,0-0.5,0-0.6,0s-0.3-0.1-0.4-0.2c-0.1-0.1-0.2-0.2-0.2-0.4c-0.1-0.2-0.1-0.4-0.1-0.6V3.2h-1V2.4h1V0.7h0.9v1.7
		H149.5z"/>
	<path class="st0" d="M150.8,1.3V0.2h0.9v1.2H150.8z M151.8,2.4v5.8h-0.9V2.4H151.8z"/>
	<path class="st0" d="M156.9,3.4c-0.2-0.2-0.6-0.3-1-0.3c-0.3,0-0.6,0.1-0.9,0.2s-0.4,0.3-0.6,0.5s-0.2,0.4-0.3,0.7
		c-0.1,0.3-0.1,0.6-0.1,0.8c0,0.3,0,0.5,0.1,0.8c0.1,0.3,0.2,0.5,0.3,0.7c0.1,0.2,0.3,0.4,0.5,0.5c0.2,0.1,0.5,0.2,0.8,0.2
		c0.5,0,0.8-0.1,1.1-0.4s0.4-0.6,0.5-1h1c-0.1,0.7-0.4,1.3-0.8,1.6c-0.4,0.4-1,0.6-1.7,0.6c-0.4,0-0.8-0.1-1.2-0.2s-0.6-0.3-0.8-0.6
		s-0.4-0.6-0.5-0.9c-0.1-0.4-0.2-0.8-0.2-1.2c0-0.4,0.1-0.8,0.2-1.2s0.3-0.7,0.5-1s0.5-0.5,0.9-0.7c0.3-0.2,0.7-0.2,1.2-0.2
		c0.3,0,0.6,0,0.9,0.1s0.5,0.2,0.8,0.4c0.2,0.2,0.4,0.4,0.5,0.6c0.1,0.2,0.2,0.5,0.3,0.9h-1C157.3,3.9,157.1,3.6,156.9,3.4z"/>
	<path class="st0" d="M159.5,4.1c0.1-0.4,0.3-0.7,0.5-1c0.2-0.3,0.5-0.5,0.9-0.6c0.3-0.2,0.8-0.2,1.2-0.2c0.5,0,0.9,0.1,1.2,0.2
		c0.3,0.2,0.6,0.4,0.9,0.6c0.2,0.3,0.4,0.6,0.5,1c0.1,0.4,0.2,0.8,0.2,1.2s-0.1,0.8-0.2,1.2c-0.1,0.4-0.3,0.7-0.5,1
		s-0.5,0.5-0.9,0.6c-0.3,0.2-0.7,0.2-1.2,0.2c-0.5,0-0.9-0.1-1.2-0.2c-0.3-0.2-0.6-0.4-0.9-0.6c-0.2-0.3-0.4-0.6-0.5-1
		c-0.1-0.4-0.2-0.8-0.2-1.2S159.4,4.4,159.5,4.1z M160.5,6.2c0.1,0.3,0.2,0.5,0.4,0.7c0.2,0.2,0.4,0.3,0.6,0.4s0.5,0.1,0.7,0.1
		c0.2,0,0.5,0,0.7-0.1c0.2-0.1,0.4-0.2,0.6-0.4c0.2-0.2,0.3-0.4,0.4-0.7c0.1-0.3,0.1-0.6,0.1-0.9c0-0.3,0-0.7-0.1-0.9
		c-0.1-0.3-0.2-0.5-0.4-0.7s-0.4-0.3-0.6-0.4c-0.2-0.1-0.5-0.1-0.7-0.1c-0.2,0-0.5,0-0.7,0.1c-0.2,0.1-0.4,0.2-0.6,0.4
		c-0.2,0.2-0.3,0.4-0.4,0.7c-0.1,0.3-0.1,0.6-0.1,0.9C160.3,5.6,160.4,5.9,160.5,6.2z"/>
	<path class="st0" d="M168.7,2.4v0.8h-1.1v3.6c0,0.1,0,0.2,0,0.3c0,0.1,0.1,0.1,0.1,0.2c0.1,0,0.1,0.1,0.2,0.1c0.1,0,0.2,0,0.4,0
		h0.4v0.8H168c-0.2,0-0.5,0-0.6,0c-0.2,0-0.3-0.1-0.4-0.2c-0.1-0.1-0.2-0.2-0.2-0.4c-0.1-0.2-0.1-0.4-0.1-0.6V3.2h-1V2.4h1V0.7h0.9
		v1.7H168.7z"/>
	<path class="st0" d="M170.9,2.4v1.2h0c0.2-0.5,0.5-0.8,0.8-1s0.8-0.3,1.3-0.3v1c-0.4,0-0.7,0.1-1,0.2c-0.3,0.1-0.5,0.3-0.6,0.5
		c-0.2,0.2-0.3,0.4-0.4,0.7c-0.1,0.3-0.1,0.6-0.1,1v2.6H170V2.4H170.9z"/>
	<path class="st0" d="M173.8,4.1c0.1-0.4,0.3-0.7,0.5-1c0.2-0.3,0.5-0.5,0.9-0.6c0.3-0.2,0.8-0.2,1.2-0.2c0.5,0,0.9,0.1,1.2,0.2
		c0.3,0.2,0.6,0.4,0.9,0.6c0.2,0.3,0.4,0.6,0.5,1c0.1,0.4,0.2,0.8,0.2,1.2s-0.1,0.8-0.2,1.2c-0.1,0.4-0.3,0.7-0.5,1
		c-0.2,0.3-0.5,0.5-0.9,0.6c-0.3,0.2-0.7,0.2-1.2,0.2c-0.5,0-0.9-0.1-1.2-0.2c-0.3-0.2-0.6-0.4-0.9-0.6c-0.2-0.3-0.4-0.6-0.5-1
		c-0.1-0.4-0.2-0.8-0.2-1.2S173.7,4.4,173.8,4.1z M174.8,6.2c0.1,0.3,0.2,0.5,0.4,0.7c0.2,0.2,0.4,0.3,0.6,0.4s0.4,0.1,0.7,0.1
		c0.2,0,0.5,0,0.7-0.1s0.4-0.2,0.6-0.4c0.2-0.2,0.3-0.4,0.4-0.7c0.1-0.3,0.1-0.6,0.1-0.9c0-0.3,0-0.7-0.1-0.9
		c-0.1-0.3-0.2-0.5-0.4-0.7c-0.2-0.2-0.4-0.3-0.6-0.4c-0.2-0.1-0.5-0.1-0.7-0.1c-0.2,0-0.5,0-0.7,0.1c-0.2,0.1-0.4,0.2-0.6,0.4
		c-0.2,0.2-0.3,0.4-0.4,0.7c-0.1,0.3-0.1,0.6-0.1,0.9C174.6,5.6,174.7,5.9,174.8,6.2z"/>
	<path class="st0" d="M181.5,2.4v0.8h0c0.2-0.3,0.4-0.6,0.7-0.7s0.7-0.2,1.1-0.2c0.4,0,0.8,0.1,1.2,0.2s0.6,0.4,0.8,0.7
		c0.2,0.3,0.4,0.6,0.5,1c0.1,0.4,0.2,0.8,0.2,1.2s-0.1,0.8-0.2,1.2s-0.3,0.7-0.5,1c-0.2,0.3-0.5,0.5-0.8,0.6
		c-0.3,0.2-0.7,0.2-1.2,0.2c-0.1,0-0.3,0-0.5,0c-0.2,0-0.3-0.1-0.5-0.1c-0.2-0.1-0.3-0.2-0.5-0.3c-0.2-0.1-0.3-0.3-0.4-0.4h0v3h-0.9
		V2.4H181.5z M184.9,4.4c-0.1-0.3-0.2-0.5-0.3-0.7s-0.3-0.4-0.6-0.5c-0.2-0.1-0.5-0.2-0.8-0.2c-0.3,0-0.6,0.1-0.8,0.2
		s-0.4,0.3-0.5,0.5c-0.1,0.2-0.2,0.4-0.3,0.7s-0.1,0.5-0.1,0.8c0,0.3,0,0.6,0.1,0.8c0.1,0.3,0.2,0.5,0.3,0.7s0.3,0.4,0.6,0.5
		c0.2,0.1,0.5,0.2,0.8,0.2s0.6-0.1,0.8-0.2s0.4-0.3,0.5-0.5c0.1-0.2,0.2-0.4,0.3-0.7c0.1-0.3,0.1-0.5,0.1-0.8
		C185,4.9,185,4.7,184.9,4.4z"/>
	<path class="st0" d="M187.4,1.3V0.2h0.9v1.2H187.4z M188.4,2.4v5.8h-0.9V2.4H188.4z"/>
	<path class="st0" d="M190.9,2.4v0.9h0c0.4-0.7,1-1,1.9-1c0.4,0,0.7,0.1,0.9,0.2c0.3,0.1,0.5,0.2,0.6,0.4s0.3,0.4,0.3,0.7
		s0.1,0.5,0.1,0.9v3.8h-0.9V4.2c0-0.4-0.1-0.6-0.3-0.8c-0.2-0.2-0.5-0.3-0.9-0.3c-0.3,0-0.5,0-0.8,0.1s-0.4,0.2-0.5,0.4
		c-0.1,0.2-0.2,0.4-0.3,0.6S191,4.6,191,4.9v3.3h-0.9V2.4H190.9z"/>
	<path class="st0" d="M200.9,8.3c-0.2,0-0.4-0.1-0.6-0.2c-0.1-0.1-0.2-0.4-0.2-0.7c-0.3,0.3-0.6,0.5-0.9,0.7
		c-0.3,0.1-0.7,0.2-1.1,0.2c-0.3,0-0.5,0-0.7-0.1s-0.4-0.1-0.6-0.3s-0.3-0.3-0.4-0.5c-0.1-0.2-0.2-0.5-0.2-0.7
		c0-0.3,0.1-0.6,0.2-0.8c0.1-0.2,0.3-0.4,0.4-0.5s0.4-0.2,0.6-0.3c0.2-0.1,0.5-0.1,0.7-0.2c0.3-0.1,0.5-0.1,0.7-0.1
		c0.2,0,0.4-0.1,0.6-0.1c0.2,0,0.3-0.1,0.4-0.2C200,4.4,200,4.2,200,4c0-0.2,0-0.4-0.1-0.5c-0.1-0.1-0.2-0.2-0.3-0.3
		c-0.1-0.1-0.3-0.1-0.4-0.1c-0.2,0-0.3,0-0.5,0c-0.4,0-0.7,0.1-1,0.2s-0.4,0.4-0.4,0.9h-0.9c0-0.4,0.1-0.7,0.2-0.9
		c0.1-0.2,0.3-0.4,0.5-0.6c0.2-0.2,0.5-0.3,0.8-0.3s0.6-0.1,0.9-0.1c0.3,0,0.5,0,0.8,0.1c0.3,0,0.5,0.1,0.7,0.2
		c0.2,0.1,0.4,0.3,0.5,0.5c0.1,0.2,0.2,0.5,0.2,0.8v3c0,0.2,0,0.4,0,0.5c0,0.1,0.1,0.2,0.3,0.2c0.1,0,0.2,0,0.3-0.1v0.7
		C201.4,8.2,201.2,8.3,200.9,8.3z M199.6,5.4c-0.2,0-0.4,0.1-0.6,0.1c-0.2,0-0.4,0.1-0.6,0.1s-0.4,0.1-0.6,0.2
		c-0.2,0.1-0.3,0.2-0.4,0.3c-0.1,0.1-0.2,0.3-0.2,0.6c0,0.2,0,0.3,0.1,0.4c0.1,0.1,0.1,0.2,0.2,0.3c0.1,0.1,0.2,0.1,0.4,0.1
		c0.1,0,0.3,0,0.4,0c0.3,0,0.6,0,0.8-0.1s0.4-0.2,0.5-0.3s0.2-0.3,0.3-0.4c0.1-0.2,0.1-0.3,0.1-0.4v-1
		C199.9,5.3,199.8,5.3,199.6,5.4z"/>
	<path class="st0" d="M204.1,6.9v1.2h-1.2V6.9H204.1z"/>
</g>
</svg>
