<!-- Generator: Adobe Illustrator 20.1.0, SVG Export Plug-In  -->
<svg version="1.1"
	 xmlns="http://www.w3.org/2000/svg" xmlns:xlink="http://www.w3.org/1999/xlink" xmlns:a="http://ns.adobe.com/AdobeSVGViewerExtensions/3.0/"
	 x="0px" y="0px" width="118.6px" height="68.2px" viewBox="0 0 118.6 68.2"
	 style="overflow:scroll;enable-background:new 0 0 118.6 68.2;" xml:space="preserve">
<style type="text/css">
	.st0{fill:#58595B;}
</style>
<defs>
</defs>
<g>
	<g>
		<path class="st0" d="M0.2,4.5c0.1-0.3,0.3-0.6,0.6-0.8C1,3.5,1.3,3.3,1.6,3.1C2,3,2.3,2.9,2.7,2.9c0.4,0,0.7,0.1,1,0.2
			C4,3.3,4.3,3.5,4.6,3.7C4.8,3.9,5,4.2,5.2,4.5c0.1,0.3,0.2,0.7,0.2,1c0,0.4-0.1,0.7-0.2,1C5,7,4.8,7.2,4.6,7.5
			C4.3,7.7,4,7.9,3.7,8.1C3.4,8.2,3,8.3,2.7,8.3c-0.4,0-0.7-0.1-1-0.2C1.3,7.9,1,7.7,0.8,7.5C0.5,7.2,0.4,7,0.2,6.6
			C0.1,6.3,0,6,0,5.6C0,5.2,0.1,4.9,0.2,4.5z"/>
		<path class="st0" d="M19.7,2.4C19.5,2,19.2,1.8,19,1.5S18.3,1.2,18,1c-0.4-0.1-0.7-0.2-1.1-0.2c-0.7,0-1.3,0.1-1.8,0.4
			c-0.5,0.3-0.9,0.6-1.3,1.1c-0.3,0.4-0.6,0.9-0.7,1.5S12.8,5,12.8,5.6c0,0.6,0.1,1.2,0.2,1.7s0.4,1.1,0.7,1.5
			c0.3,0.4,0.7,0.8,1.3,1.1c0.5,0.3,1.1,0.4,1.8,0.4c0.5,0,1-0.1,1.4-0.3c0.4-0.2,0.7-0.4,1-0.7C19.5,9,19.8,8.6,20,8.2
			c0.2-0.4,0.3-0.9,0.3-1.3h1c-0.1,0.7-0.2,1.3-0.5,1.8c-0.2,0.5-0.6,1-0.9,1.4c-0.4,0.4-0.8,0.7-1.3,0.9c-0.5,0.2-1.1,0.3-1.7,0.3
			c-0.8,0-1.6-0.2-2.2-0.5S13.5,10,13,9.5c-0.4-0.5-0.7-1.1-0.9-1.8c-0.2-0.7-0.3-1.4-0.3-2.1c0-0.7,0.1-1.4,0.3-2.1
			c0.2-0.7,0.5-1.3,0.9-1.8c0.4-0.5,0.9-0.9,1.6-1.2S16,0,16.9,0c0.5,0,1,0.1,1.5,0.2c0.5,0.2,0.9,0.4,1.3,0.7
			c0.4,0.3,0.7,0.7,1,1.1c0.3,0.4,0.4,0.9,0.5,1.5h-1C20.1,3.1,19.9,2.7,19.7,2.4z"/>
		<path class="st0" d="M23.2,4.4c0.2-0.3,0.4-0.6,0.7-0.8c0.3-0.2,0.6-0.4,1-0.5C25.2,3,25.6,3,26.1,3c0.3,0,0.7,0,1,0.1
			c0.3,0.1,0.6,0.2,0.9,0.4c0.3,0.2,0.5,0.4,0.7,0.8c0.2,0.3,0.3,0.7,0.3,1.3v4.1c0,0.4,0.2,0.6,0.6,0.6c0.1,0,0.2,0,0.3-0.1v0.8
			c-0.1,0-0.2,0-0.3,0s-0.2,0-0.3,0c-0.2,0-0.4,0-0.6-0.1s-0.3-0.2-0.3-0.3s-0.1-0.3-0.2-0.4c0-0.2,0-0.3,0-0.5h0
			c-0.2,0.3-0.3,0.5-0.5,0.7c-0.2,0.2-0.4,0.4-0.6,0.5c-0.2,0.1-0.5,0.2-0.7,0.3c-0.3,0.1-0.6,0.1-1,0.1c-0.4,0-0.7,0-1-0.1
			c-0.3-0.1-0.6-0.2-0.8-0.4s-0.4-0.4-0.6-0.7c-0.1-0.3-0.2-0.6-0.2-1c0-0.5,0.1-1,0.4-1.3c0.2-0.3,0.6-0.5,1-0.7
			c0.4-0.2,0.8-0.3,1.3-0.3c0.5-0.1,1-0.1,1.5-0.2c0.2,0,0.4,0,0.5-0.1c0.1,0,0.3-0.1,0.4-0.2c0.1-0.1,0.2-0.2,0.2-0.3
			C27.9,5.7,28,5.6,28,5.4c0-0.3-0.1-0.6-0.2-0.8s-0.3-0.4-0.4-0.5C27.2,4,27,3.9,26.7,3.8c-0.2,0-0.5-0.1-0.8-0.1
			c-0.6,0-1.1,0.1-1.5,0.4c-0.4,0.3-0.6,0.7-0.6,1.4h-0.9C22.9,5.1,23,4.7,23.2,4.4z M27.9,6.7c-0.1,0.1-0.2,0.2-0.3,0.2
			c-0.2,0-0.3,0.1-0.5,0.1c-0.4,0.1-0.8,0.1-1.2,0.2c-0.4,0.1-0.8,0.1-1.2,0.2c-0.4,0.1-0.6,0.3-0.9,0.5c-0.2,0.2-0.3,0.5-0.3,0.9
			c0,0.2,0,0.5,0.1,0.6c0.1,0.2,0.2,0.3,0.4,0.5c0.2,0.1,0.3,0.2,0.6,0.3c0.2,0.1,0.4,0.1,0.6,0.1c0.4,0,0.7-0.1,1-0.2
			s0.6-0.3,0.9-0.5c0.2-0.2,0.4-0.5,0.6-0.8C27.9,8.7,28,8.3,28,8L27.9,6.7L27.9,6.7z"/>
		<path class="st0" d="M32,3.2v1.3h0c0.2-0.5,0.5-0.8,1-1.1C33.5,3.1,34,3,34.5,3c0.5,0,1,0.1,1.4,0.2s0.7,0.3,0.9,0.6
			C37,4,37.2,4.4,37.3,4.7c0.1,0.4,0.1,0.8,0.1,1.2v5h-0.9V6.1c0-0.3,0-0.6-0.1-0.9c-0.1-0.3-0.2-0.5-0.3-0.7
			c-0.2-0.2-0.4-0.4-0.6-0.5c-0.3-0.1-0.6-0.2-1-0.2s-0.7,0.1-1,0.2c-0.3,0.1-0.5,0.3-0.8,0.6c-0.2,0.2-0.4,0.5-0.5,0.8
			S32,6.1,32,6.4V11h-0.9V3.2H32z"/>
		<path class="st0" d="M43.9,4.7c-0.1-0.2-0.3-0.4-0.4-0.5s-0.4-0.2-0.6-0.3c-0.2-0.1-0.5-0.1-0.8-0.1c-0.2,0-0.4,0-0.6,0.1
			c-0.2,0-0.4,0.1-0.6,0.2c-0.2,0.1-0.3,0.2-0.4,0.4c-0.1,0.2-0.2,0.4-0.2,0.6c0,0.2,0.1,0.4,0.2,0.5s0.2,0.3,0.4,0.4
			c0.2,0.1,0.3,0.2,0.5,0.2c0.2,0.1,0.4,0.1,0.5,0.2l1.3,0.3c0.3,0,0.5,0.1,0.8,0.2c0.3,0.1,0.5,0.2,0.7,0.4S45,7.7,45.1,8
			c0.1,0.3,0.2,0.5,0.2,0.9c0,0.4-0.1,0.8-0.3,1.1c-0.2,0.3-0.4,0.5-0.7,0.7c-0.3,0.2-0.6,0.3-1,0.4s-0.7,0.1-1.1,0.1
			c-0.9,0-1.7-0.2-2.2-0.6c-0.6-0.4-0.9-1.1-1-2.1H40c0,0.6,0.3,1.1,0.7,1.5c0.4,0.3,1,0.5,1.6,0.5c0.2,0,0.5,0,0.7-0.1
			c0.2,0,0.5-0.1,0.7-0.3c0.2-0.1,0.4-0.3,0.5-0.5c0.1-0.2,0.2-0.4,0.2-0.7c0-0.2,0-0.4-0.1-0.6c-0.1-0.2-0.2-0.3-0.4-0.4
			c-0.2-0.1-0.3-0.2-0.5-0.3s-0.4-0.1-0.6-0.2l-1.2-0.3c-0.3-0.1-0.6-0.2-0.9-0.3c-0.3-0.1-0.5-0.2-0.7-0.4
			c-0.2-0.2-0.3-0.3-0.5-0.6s-0.2-0.5-0.2-0.8c0-0.4,0.1-0.7,0.3-1c0.2-0.3,0.4-0.5,0.7-0.7c0.3-0.2,0.6-0.3,0.9-0.4s0.7-0.1,1-0.1
			C42.6,3,43,3,43.3,3.1c0.3,0.1,0.6,0.3,0.9,0.5c0.3,0.2,0.5,0.5,0.6,0.8s0.2,0.7,0.3,1.1h-0.9C44.1,5.2,44.1,4.9,43.9,4.7z"/>
		<path class="st0" d="M47.2,4.4c0.2-0.3,0.4-0.6,0.7-0.8c0.3-0.2,0.6-0.4,1-0.5C49.2,3,49.6,3,50.1,3c0.3,0,0.7,0,1,0.1
			c0.3,0.1,0.6,0.2,0.9,0.4c0.3,0.2,0.5,0.4,0.7,0.8c0.2,0.3,0.3,0.7,0.3,1.3v4.1c0,0.4,0.2,0.6,0.6,0.6c0.1,0,0.2,0,0.3-0.1v0.8
			c-0.1,0-0.2,0-0.3,0s-0.2,0-0.3,0c-0.2,0-0.4,0-0.6-0.1s-0.3-0.2-0.3-0.3s-0.1-0.3-0.2-0.4c0-0.2,0-0.3,0-0.5h0
			c-0.2,0.3-0.3,0.5-0.5,0.7c-0.2,0.2-0.4,0.4-0.6,0.5c-0.2,0.1-0.5,0.2-0.7,0.3c-0.3,0.1-0.6,0.1-1,0.1c-0.4,0-0.7,0-1-0.1
			c-0.3-0.1-0.6-0.2-0.8-0.4s-0.4-0.4-0.6-0.7c-0.1-0.3-0.2-0.6-0.2-1c0-0.5,0.1-1,0.4-1.3c0.2-0.3,0.6-0.5,1-0.7
			c0.4-0.2,0.8-0.3,1.3-0.3c0.5-0.1,1-0.1,1.5-0.2c0.2,0,0.4,0,0.5-0.1c0.1,0,0.3-0.1,0.4-0.2c0.1-0.1,0.2-0.2,0.2-0.3
			C51.9,5.7,52,5.6,52,5.4c0-0.3-0.1-0.6-0.2-0.8s-0.3-0.4-0.4-0.5C51.2,4,51,3.9,50.7,3.8c-0.2,0-0.5-0.1-0.8-0.1
			c-0.6,0-1.1,0.1-1.5,0.4c-0.4,0.3-0.6,0.7-0.6,1.4h-0.9C47,5.1,47,4.7,47.2,4.4z M51.9,6.7c-0.1,0.1-0.2,0.2-0.3,0.2
			c-0.2,0-0.3,0.1-0.5,0.1c-0.4,0.1-0.8,0.1-1.2,0.2c-0.4,0.1-0.8,0.1-1.2,0.2c-0.4,0.1-0.6,0.3-0.9,0.5c-0.2,0.2-0.3,0.5-0.3,0.9
			c0,0.2,0,0.5,0.1,0.6c0.1,0.2,0.2,0.3,0.4,0.5c0.2,0.1,0.3,0.2,0.6,0.3c0.2,0.1,0.4,0.1,0.6,0.1c0.4,0,0.7-0.1,1-0.2
			s0.6-0.3,0.9-0.5c0.2-0.2,0.4-0.5,0.6-0.8C51.9,8.7,52,8.3,52,8L51.9,6.7L51.9,6.7z"/>
		<path class="st0" d="M56,3.2v1.3h0c0.2-0.5,0.5-0.8,1-1.1C57.5,3.1,58,3,58.6,3c0.5,0,1,0.1,1.4,0.2s0.7,0.3,0.9,0.6
			C61,4,61.2,4.4,61.3,4.7c0.1,0.4,0.1,0.8,0.1,1.2v5h-0.9V6.1c0-0.3,0-0.6-0.1-0.9c-0.1-0.3-0.2-0.5-0.3-0.7
			c-0.2-0.2-0.4-0.4-0.6-0.5c-0.3-0.1-0.6-0.2-1-0.2s-0.7,0.1-1,0.2c-0.3,0.1-0.5,0.3-0.8,0.6c-0.2,0.2-0.4,0.5-0.5,0.8
			S56.1,6.1,56,6.4V11h-0.9V3.2H56z"/>
		<path class="st0" d="M68.2,4.3c-0.4-0.3-0.8-0.5-1.5-0.5c-0.5,0-0.8,0.1-1.2,0.3S65,4.5,64.7,4.8c-0.2,0.3-0.4,0.7-0.5,1.1
			S64,6.7,64,7.1s0.1,0.8,0.2,1.2c0.1,0.4,0.3,0.8,0.5,1.1c0.2,0.3,0.5,0.6,0.8,0.8s0.7,0.3,1.2,0.3c0.3,0,0.6-0.1,0.8-0.2
			s0.5-0.3,0.7-0.5c0.2-0.2,0.4-0.4,0.5-0.7C68.9,8.8,69,8.5,69,8.2H70c-0.1,0.9-0.5,1.7-1,2.2s-1.3,0.8-2.2,0.8
			c-0.6,0-1.1-0.1-1.6-0.3c-0.5-0.2-0.8-0.5-1.2-0.9s-0.5-0.8-0.7-1.3c-0.2-0.5-0.2-1-0.2-1.6c0-0.6,0.1-1.1,0.2-1.6
			C63.5,5,63.7,4.6,64,4.2c0.3-0.4,0.7-0.7,1.2-0.9s1-0.3,1.6-0.3c0.8,0,1.5,0.2,2.1,0.7s0.9,1.1,1,2H69C68.8,5.1,68.6,4.6,68.2,4.3
			z"/>
		<path class="st0" d="M72.6,0.2v1.5h-0.9V0.2H72.6z M72.6,3.2V11h-0.9V3.2H72.6z"/>
		<path class="st0" d="M79.5,3.3c0.5,0.2,0.8,0.5,1.2,0.9C81,4.6,81.2,5,81.4,5.5s0.2,1,0.2,1.6c0,0.6-0.1,1.1-0.2,1.6
			S81,9.6,80.7,10s-0.7,0.7-1.2,0.9c-0.5,0.2-1,0.3-1.6,0.3c-0.6,0-1.1-0.1-1.6-0.3c-0.5-0.2-0.8-0.5-1.2-0.9s-0.5-0.8-0.7-1.3
			c-0.2-0.5-0.2-1-0.2-1.6c0-0.6,0.1-1.1,0.2-1.6c0.2-0.5,0.4-0.9,0.7-1.3c0.3-0.4,0.7-0.7,1.2-0.9s1-0.3,1.6-0.3
			C78.5,3,79.1,3.1,79.5,3.3z M76.8,4.1c-0.3,0.2-0.6,0.4-0.8,0.8c-0.2,0.3-0.4,0.7-0.5,1.1s-0.2,0.8-0.2,1.2s0.1,0.8,0.2,1.2
			c0.1,0.4,0.3,0.8,0.5,1.1c0.2,0.3,0.5,0.6,0.8,0.8s0.7,0.3,1.2,0.3c0.5,0,0.8-0.1,1.2-0.3c0.3-0.2,0.6-0.4,0.8-0.8
			c0.2-0.3,0.4-0.7,0.5-1.1c0.1-0.4,0.2-0.8,0.2-1.2s-0.1-0.8-0.2-1.2S80.2,5.1,80,4.8c-0.2-0.3-0.5-0.6-0.8-0.8
			c-0.3-0.2-0.7-0.3-1.2-0.3C77.5,3.8,77.1,3.9,76.8,4.1z"/>
		<path class="st0" d="M0.2,22.6c0.1-0.3,0.3-0.6,0.6-0.8c0.2-0.2,0.5-0.4,0.8-0.6C2,21,2.3,21,2.7,21c0.4,0,0.7,0.1,1,0.2
			c0.3,0.1,0.6,0.3,0.9,0.6C4.8,22,5,22.3,5.2,22.6c0.1,0.3,0.2,0.7,0.2,1c0,0.4-0.1,0.7-0.2,1C5,25,4.8,25.3,4.6,25.5
			C4.3,25.8,4,26,3.7,26.1c-0.3,0.1-0.7,0.2-1,0.2c-0.4,0-0.7-0.1-1-0.2C1.3,26,1,25.8,0.8,25.5c-0.2-0.2-0.4-0.5-0.6-0.9
			C0.1,24.4,0,24,0,23.6C0,23.3,0.1,22.9,0.2,22.6z"/>
		<path class="st0" d="M19.7,20.4c-0.2-0.3-0.5-0.6-0.8-0.8s-0.6-0.4-1-0.5c-0.4-0.1-0.7-0.2-1.1-0.2c-0.7,0-1.3,0.1-1.8,0.4
			c-0.5,0.3-0.9,0.6-1.3,1.1c-0.3,0.4-0.6,0.9-0.7,1.5s-0.2,1.1-0.2,1.7c0,0.6,0.1,1.2,0.2,1.7s0.4,1.1,0.7,1.5
			c0.3,0.4,0.7,0.8,1.3,1.1c0.5,0.3,1.1,0.4,1.8,0.4c0.5,0,1-0.1,1.4-0.3c0.4-0.2,0.7-0.4,1-0.7c0.3-0.3,0.5-0.7,0.7-1.1
			c0.2-0.4,0.3-0.9,0.3-1.3h1c-0.1,0.7-0.2,1.3-0.5,1.8c-0.2,0.5-0.6,1-0.9,1.4c-0.4,0.4-0.8,0.7-1.3,0.9c-0.5,0.2-1.1,0.3-1.7,0.3
			c-0.8,0-1.6-0.2-2.2-0.5S13.5,28,13,27.5c-0.4-0.5-0.7-1.1-0.9-1.8c-0.2-0.7-0.3-1.4-0.3-2.1c0-0.7,0.1-1.4,0.3-2.1
			c0.2-0.7,0.5-1.3,0.9-1.8c0.4-0.5,0.9-0.9,1.6-1.2S16,18,16.9,18c0.5,0,1,0.1,1.5,0.2c0.5,0.2,0.9,0.4,1.3,0.7
			c0.4,0.3,0.7,0.7,1,1.1c0.3,0.4,0.4,0.9,0.5,1.5h-1C20.1,21.1,19.9,20.7,19.7,20.4z"/>
		<path class="st0" d="M23.7,26.4c0.1,0.4,0.2,0.7,0.5,1c0.2,0.3,0.5,0.5,0.8,0.7c0.3,0.2,0.7,0.3,1.2,0.3c0.7,0,1.2-0.2,1.6-0.5
			c0.4-0.4,0.7-0.8,0.8-1.4h0.9c-0.2,0.9-0.6,1.6-1.1,2c-0.5,0.5-1.3,0.7-2.3,0.7c-0.6,0-1.1-0.1-1.6-0.3c-0.4-0.2-0.8-0.5-1.1-0.9
			c-0.3-0.4-0.5-0.8-0.6-1.3s-0.2-1-0.2-1.6c0-0.5,0.1-1,0.2-1.5s0.3-0.9,0.6-1.3c0.3-0.4,0.6-0.7,1.1-0.9s1-0.4,1.6-0.4
			c0.6,0,1.2,0.1,1.6,0.4c0.4,0.3,0.8,0.6,1.1,1c0.3,0.4,0.5,0.9,0.6,1.4c0.1,0.5,0.2,1.1,0.2,1.6h-6C23.6,25.7,23.6,26.1,23.7,26.4
			z M28.4,23.5c-0.1-0.3-0.3-0.6-0.5-0.9c-0.2-0.3-0.5-0.5-0.8-0.6s-0.6-0.2-1-0.2c-0.4,0-0.7,0.1-1,0.2s-0.6,0.4-0.8,0.6
			c-0.2,0.3-0.4,0.6-0.5,0.9c-0.1,0.3-0.2,0.7-0.2,1h5C28.6,24.2,28.5,23.9,28.4,23.5z"/>
		<path class="st0" d="M32.6,22v7h-0.9v-7h-1.3v-0.8h1.3v-0.7c0-0.3,0-0.6,0.1-0.9c0-0.3,0.1-0.5,0.3-0.7s0.3-0.4,0.6-0.5
			c0.2-0.1,0.6-0.2,0.9-0.2c0.1,0,0.3,0,0.4,0c0.1,0,0.3,0,0.4,0v0.8c-0.1,0-0.3,0-0.4-0.1c-0.1,0-0.2,0-0.3,0c-0.3,0-0.5,0-0.6,0.1
			c-0.1,0.1-0.2,0.2-0.3,0.3c-0.1,0.1-0.1,0.3-0.1,0.5s0,0.4,0,0.6v0.7h1.5V22H32.6z"/>
		<path class="st0" d="M35.5,22.4c0.2-0.3,0.4-0.6,0.7-0.8c0.3-0.2,0.6-0.4,1-0.5c0.4-0.1,0.8-0.2,1.2-0.2c0.3,0,0.7,0,1,0.1
			c0.3,0.1,0.6,0.2,0.9,0.4c0.3,0.2,0.5,0.4,0.7,0.8c0.2,0.3,0.3,0.7,0.3,1.3v4.1c0,0.4,0.2,0.6,0.6,0.6c0.1,0,0.2,0,0.3-0.1v0.8
			c-0.1,0-0.2,0-0.3,0s-0.2,0-0.3,0c-0.2,0-0.4,0-0.6-0.1s-0.3-0.2-0.3-0.3s-0.1-0.3-0.2-0.4c0-0.2,0-0.3,0-0.5h0
			c-0.2,0.3-0.3,0.5-0.5,0.7c-0.2,0.2-0.4,0.4-0.6,0.5c-0.2,0.1-0.5,0.2-0.7,0.3c-0.3,0.1-0.6,0.1-1,0.1c-0.4,0-0.7,0-1-0.1
			c-0.3-0.1-0.6-0.2-0.8-0.4s-0.4-0.4-0.6-0.7c-0.1-0.3-0.2-0.6-0.2-1c0-0.5,0.1-1,0.4-1.3c0.2-0.3,0.6-0.5,1-0.7
			c0.4-0.2,0.8-0.3,1.3-0.3c0.5-0.1,1-0.1,1.5-0.2c0.2,0,0.4,0,0.5-0.1c0.1,0,0.3-0.1,0.4-0.2c0.1-0.1,0.2-0.2,0.2-0.3
			c0.1-0.1,0.1-0.3,0.1-0.5c0-0.3-0.1-0.6-0.2-0.8s-0.3-0.4-0.4-0.5c-0.2-0.1-0.4-0.2-0.6-0.2c-0.2,0-0.5-0.1-0.8-0.1
			c-0.6,0-1.1,0.1-1.5,0.4c-0.4,0.3-0.6,0.7-0.6,1.4h-0.9C35.2,23.2,35.3,22.8,35.5,22.4z M40.2,24.8c-0.1,0.1-0.2,0.2-0.3,0.2
			c-0.2,0-0.3,0.1-0.5,0.1c-0.4,0.1-0.8,0.1-1.2,0.2c-0.4,0.1-0.8,0.1-1.2,0.2c-0.4,0.1-0.6,0.3-0.9,0.5c-0.2,0.2-0.3,0.5-0.3,0.9
			c0,0.2,0,0.5,0.1,0.6c0.1,0.2,0.2,0.3,0.4,0.5c0.2,0.1,0.3,0.2,0.6,0.3c0.2,0.1,0.4,0.1,0.6,0.1c0.4,0,0.7-0.1,1-0.2
			s0.6-0.3,0.9-0.5c0.2-0.2,0.4-0.5,0.6-0.8c0.1-0.3,0.2-0.6,0.2-1L40.2,24.8L40.2,24.8z"/>
		<path class="st0" d="M44.4,18.3V29h-0.9V18.3H44.4z"/>
		<path class="st0" d="M47.2,26.4c0.1,0.4,0.2,0.7,0.5,1c0.2,0.3,0.5,0.5,0.8,0.7c0.3,0.2,0.7,0.3,1.2,0.3c0.7,0,1.2-0.2,1.6-0.5
			c0.4-0.4,0.7-0.8,0.8-1.4H53c-0.2,0.9-0.6,1.6-1.1,2c-0.5,0.5-1.3,0.7-2.3,0.7c-0.6,0-1.1-0.1-1.6-0.3c-0.4-0.2-0.8-0.5-1.1-0.9
			c-0.3-0.4-0.5-0.8-0.6-1.3s-0.2-1-0.2-1.6c0-0.5,0.1-1,0.2-1.5s0.3-0.9,0.6-1.3c0.3-0.4,0.6-0.7,1.1-0.9s1-0.4,1.6-0.4
			c0.6,0,1.2,0.1,1.6,0.4c0.4,0.3,0.8,0.6,1.1,1c0.3,0.4,0.5,0.9,0.6,1.4c0.1,0.5,0.2,1.1,0.2,1.6h-6C47,25.7,47.1,26.1,47.2,26.4z
			 M51.9,23.5c-0.1-0.3-0.3-0.6-0.5-0.9c-0.2-0.3-0.5-0.5-0.8-0.6s-0.6-0.2-1-0.2c-0.4,0-0.7,0.1-1,0.2s-0.6,0.4-0.8,0.6
			c-0.2,0.3-0.4,0.6-0.5,0.9c-0.1,0.3-0.2,0.7-0.2,1h5C52.1,24.2,52,23.9,51.9,23.5z"/>
		<path class="st0" d="M54.8,22.4c0.2-0.3,0.4-0.6,0.7-0.8c0.3-0.2,0.6-0.4,1-0.5c0.4-0.1,0.8-0.2,1.2-0.2c0.3,0,0.7,0,1,0.1
			c0.3,0.1,0.6,0.2,0.9,0.4c0.3,0.2,0.5,0.4,0.7,0.8c0.2,0.3,0.3,0.7,0.3,1.3v4.1c0,0.4,0.2,0.6,0.6,0.6c0.1,0,0.2,0,0.3-0.1v0.8
			c-0.1,0-0.2,0-0.3,0s-0.2,0-0.3,0c-0.2,0-0.4,0-0.6-0.1c-0.1-0.1-0.3-0.2-0.3-0.3s-0.1-0.3-0.2-0.4c0-0.2,0-0.3,0-0.5h0
			c-0.2,0.3-0.3,0.5-0.5,0.7c-0.2,0.2-0.4,0.4-0.6,0.5c-0.2,0.1-0.5,0.2-0.7,0.3c-0.3,0.1-0.6,0.1-1,0.1c-0.4,0-0.7,0-1-0.1
			s-0.6-0.2-0.8-0.4s-0.4-0.4-0.6-0.7c-0.1-0.3-0.2-0.6-0.2-1c0-0.5,0.1-1,0.4-1.3c0.2-0.3,0.6-0.5,1-0.7c0.4-0.2,0.8-0.3,1.3-0.3
			c0.5-0.1,1-0.1,1.5-0.2c0.2,0,0.4,0,0.5-0.1s0.3-0.1,0.4-0.2c0.1-0.1,0.2-0.2,0.2-0.3c0.1-0.1,0.1-0.3,0.1-0.5
			c0-0.3-0.1-0.6-0.2-0.8c-0.1-0.2-0.3-0.4-0.4-0.5c-0.2-0.1-0.4-0.2-0.6-0.2c-0.2,0-0.5-0.1-0.8-0.1c-0.6,0-1.1,0.1-1.5,0.4
			c-0.4,0.3-0.6,0.7-0.6,1.4h-0.9C54.5,23.2,54.6,22.8,54.8,22.4z M59.5,24.8c-0.1,0.1-0.2,0.2-0.3,0.2c-0.2,0-0.3,0.1-0.5,0.1
			c-0.4,0.1-0.8,0.1-1.2,0.2c-0.4,0.1-0.8,0.1-1.2,0.2s-0.6,0.3-0.9,0.5c-0.2,0.2-0.3,0.5-0.3,0.9c0,0.2,0,0.5,0.1,0.6
			c0.1,0.2,0.2,0.3,0.4,0.5c0.2,0.1,0.3,0.2,0.6,0.3c0.2,0.1,0.4,0.1,0.6,0.1c0.4,0,0.7-0.1,1-0.2c0.3-0.1,0.6-0.3,0.9-0.5
			c0.2-0.2,0.4-0.5,0.6-0.8s0.2-0.6,0.2-1L59.5,24.8L59.5,24.8z"/>
		<path class="st0" d="M0.2,40.6c0.1-0.3,0.3-0.6,0.6-0.8c0.2-0.2,0.5-0.4,0.8-0.6C2,39.1,2.3,39,2.7,39c0.4,0,0.7,0.1,1,0.2
			c0.3,0.1,0.6,0.3,0.9,0.6C4.8,40,5,40.3,5.2,40.6c0.1,0.3,0.2,0.7,0.2,1c0,0.4-0.1,0.7-0.2,1C5,43,4.8,43.3,4.6,43.6
			C4.3,43.8,4,44,3.7,44.2c-0.3,0.1-0.7,0.2-1,0.2c-0.4,0-0.7-0.1-1-0.2C1.3,44,1,43.8,0.8,43.6c-0.2-0.2-0.4-0.5-0.6-0.9
			C0.1,42.4,0,42,0,41.7C0,41.3,0.1,41,0.2,40.6z"/>
		<path class="st0" d="M19.1,36.3v0.9h-5.8v3.9h5.1v0.9h-5.1V47h-1V36.3H19.1z"/>
		<path class="st0" d="M20.7,40.5c0.2-0.3,0.4-0.6,0.7-0.8c0.3-0.2,0.6-0.4,1-0.5c0.4-0.1,0.8-0.2,1.2-0.2c0.3,0,0.7,0,1,0.1
			c0.3,0.1,0.6,0.2,0.9,0.4c0.3,0.2,0.5,0.4,0.7,0.8c0.2,0.3,0.3,0.7,0.3,1.3v4.1c0,0.4,0.2,0.6,0.6,0.6c0.1,0,0.2,0,0.3-0.1V47
			c-0.1,0-0.2,0-0.3,0s-0.2,0-0.3,0c-0.2,0-0.4,0-0.6-0.1s-0.3-0.2-0.3-0.3s-0.1-0.3-0.2-0.4c0-0.2,0-0.3,0-0.5h0
			c-0.2,0.3-0.3,0.5-0.5,0.7c-0.2,0.2-0.4,0.4-0.6,0.5c-0.2,0.1-0.5,0.2-0.7,0.3c-0.3,0.1-0.6,0.1-1,0.1c-0.4,0-0.7,0-1-0.1
			c-0.3-0.1-0.6-0.2-0.8-0.4s-0.4-0.4-0.6-0.7c-0.1-0.3-0.2-0.6-0.2-1c0-0.5,0.1-1,0.4-1.3c0.2-0.3,0.6-0.5,1-0.7
			c0.4-0.2,0.8-0.3,1.3-0.3c0.5-0.1,1-0.1,1.5-0.2c0.2,0,0.4,0,0.5-0.1c0.1,0,0.3-0.1,0.4-0.2c0.1-0.1,0.2-0.2,0.2-0.3
			c0.1-0.1,0.1-0.3,0.1-0.5c0-0.3-0.1-0.6-0.2-0.8s-0.3-0.4-0.4-0.5c-0.2-0.1-0.4-0.2-0.6-0.2c-0.2,0-0.5-0.1-0.8-0.1
			c-0.6,0-1.1,0.1-1.5,0.4c-0.4,0.3-0.6,0.7-0.6,1.4h-0.9C20.4,41.2,20.5,40.8,20.7,40.5z M25.4,42.8c-0.1,0.1-0.2,0.2-0.3,0.2
			c-0.2,0-0.3,0.1-0.5,0.1c-0.4,0.1-0.8,0.1-1.2,0.2c-0.4,0.1-0.8,0.1-1.2,0.2c-0.4,0.1-0.6,0.3-0.9,0.5c-0.2,0.2-0.3,0.5-0.3,0.9
			c0,0.2,0,0.5,0.1,0.6c0.1,0.2,0.2,0.3,0.4,0.5c0.2,0.1,0.3,0.2,0.6,0.3c0.2,0.1,0.4,0.1,0.6,0.1c0.4,0,0.7-0.1,1-0.2
			s0.6-0.3,0.9-0.5c0.2-0.2,0.4-0.5,0.6-0.8c0.1-0.3,0.2-0.6,0.2-1L25.4,42.8L25.4,42.8z"/>
		<path class="st0" d="M31.7,39.3v0.8h-1.6v5.2c0,0.3,0,0.6,0.1,0.7c0.1,0.2,0.3,0.3,0.6,0.3c0.3,0,0.5,0,0.8,0v0.8
			c-0.1,0-0.3,0-0.4,0c-0.1,0-0.3,0-0.4,0c-0.6,0-1.1-0.1-1.3-0.4c-0.3-0.2-0.4-0.7-0.4-1.4v-5.3h-1.4v-0.8h1.4V37h0.9v2.3H31.7z"/>
		<path class="st0" d="M34.3,36.3v1.5h-0.9v-1.5H34.3z M34.3,39.3V47h-0.9v-7.8H34.3z"/>
		<path class="st0" d="M42.8,48c-0.1,0.5-0.3,0.9-0.6,1.2c-0.3,0.3-0.6,0.6-1.1,0.7c-0.4,0.2-1,0.3-1.6,0.3c-0.4,0-0.8,0-1.1-0.1
			c-0.4-0.1-0.7-0.2-1-0.4c-0.3-0.2-0.5-0.4-0.7-0.7c-0.2-0.3-0.3-0.6-0.3-1.1h0.9c0,0.3,0.1,0.5,0.3,0.7s0.3,0.4,0.5,0.5
			s0.4,0.2,0.7,0.3c0.3,0.1,0.5,0.1,0.8,0.1c0.9,0,1.5-0.3,1.9-0.8c0.4-0.5,0.6-1.2,0.6-2.2v-1.1h0c-0.2,0.5-0.5,0.9-1,1.2
			c-0.4,0.3-0.9,0.4-1.5,0.4c-0.6,0-1.2-0.1-1.6-0.3c-0.4-0.2-0.8-0.5-1.1-0.8c-0.3-0.4-0.5-0.8-0.6-1.3C36.1,44,36,43.5,36,43
			c0-0.5,0.1-1,0.2-1.5s0.4-0.9,0.7-1.2c0.3-0.4,0.7-0.6,1.1-0.8c0.4-0.2,0.9-0.3,1.5-0.3c0.3,0,0.6,0,0.8,0.1
			c0.3,0.1,0.5,0.2,0.7,0.3c0.2,0.1,0.4,0.3,0.6,0.5c0.2,0.2,0.3,0.4,0.4,0.6h0v-1.3H43v7.1C43,47,42.9,47.5,42.8,48z M40.6,45.9
			c0.3-0.2,0.6-0.4,0.8-0.7c0.2-0.3,0.4-0.6,0.5-1c0.1-0.4,0.2-0.8,0.2-1.1c0-0.4,0-0.8-0.1-1.1c-0.1-0.4-0.2-0.7-0.4-1
			s-0.5-0.6-0.8-0.8c-0.3-0.2-0.7-0.3-1.1-0.3c-0.5,0-0.8,0.1-1.2,0.3c-0.3,0.2-0.6,0.4-0.8,0.7c-0.2,0.3-0.4,0.6-0.5,1
			C37,42.3,37,42.7,37,43.1c0,0.4,0,0.8,0.1,1.1c0.1,0.4,0.3,0.7,0.5,1c0.2,0.3,0.5,0.5,0.8,0.7c0.3,0.2,0.7,0.3,1.1,0.3
			C39.9,46.2,40.3,46.1,40.6,45.9z"/>
		<path class="st0" d="M45.3,40.5c0.2-0.3,0.4-0.6,0.7-0.8c0.3-0.2,0.6-0.4,1-0.5c0.4-0.1,0.8-0.2,1.2-0.2c0.3,0,0.7,0,1,0.1
			c0.3,0.1,0.6,0.2,0.9,0.4c0.3,0.2,0.5,0.4,0.7,0.8c0.2,0.3,0.3,0.7,0.3,1.3v4.1c0,0.4,0.2,0.6,0.6,0.6c0.1,0,0.2,0,0.3-0.1V47
			c-0.1,0-0.2,0-0.3,0s-0.2,0-0.3,0c-0.2,0-0.4,0-0.6-0.1s-0.3-0.2-0.3-0.3s-0.1-0.3-0.2-0.4c0-0.2,0-0.3,0-0.5h0
			c-0.2,0.3-0.3,0.5-0.5,0.7c-0.2,0.2-0.4,0.4-0.6,0.5c-0.2,0.1-0.5,0.2-0.7,0.3c-0.3,0.1-0.6,0.1-1,0.1c-0.4,0-0.7,0-1-0.1
			c-0.3-0.1-0.6-0.2-0.8-0.4S45,46.3,44.9,46c-0.1-0.3-0.2-0.6-0.2-1c0-0.5,0.1-1,0.4-1.3c0.2-0.3,0.6-0.5,1-0.7
			c0.4-0.2,0.8-0.3,1.3-0.3c0.5-0.1,1-0.1,1.5-0.2c0.2,0,0.4,0,0.5-0.1c0.1,0,0.3-0.1,0.4-0.2c0.1-0.1,0.2-0.2,0.2-0.3
			c0.1-0.1,0.1-0.3,0.1-0.5c0-0.3-0.1-0.6-0.2-0.8s-0.3-0.4-0.4-0.5c-0.2-0.1-0.4-0.2-0.6-0.2c-0.2,0-0.5-0.1-0.8-0.1
			c-0.6,0-1.1,0.1-1.5,0.4c-0.4,0.3-0.6,0.7-0.6,1.4H45C45,41.2,45.1,40.8,45.3,40.5z M50,42.8C50,42.9,49.8,43,49.7,43
			c-0.2,0-0.3,0.1-0.5,0.1c-0.4,0.1-0.8,0.1-1.2,0.2c-0.4,0.1-0.8,0.1-1.2,0.2c-0.4,0.1-0.6,0.3-0.9,0.5c-0.2,0.2-0.3,0.5-0.3,0.9
			c0,0.2,0,0.5,0.1,0.6c0.1,0.2,0.2,0.3,0.4,0.5c0.2,0.1,0.3,0.2,0.6,0.3c0.2,0.1,0.4,0.1,0.6,0.1c0.4,0,0.7-0.1,1-0.2
			s0.6-0.3,0.9-0.5c0.2-0.2,0.4-0.5,0.6-0.8c0.1-0.3,0.2-0.6,0.2-1L50,42.8L50,42.8z"/>
		<path class="st0" d="M0.2,58.7c0.1-0.3,0.3-0.6,0.6-0.8c0.2-0.2,0.5-0.4,0.8-0.6C2,57.1,2.3,57,2.7,57c0.4,0,0.7,0.1,1,0.2
			c0.3,0.1,0.6,0.3,0.9,0.6c0.2,0.2,0.4,0.5,0.6,0.8c0.1,0.3,0.2,0.7,0.2,1c0,0.4-0.1,0.7-0.2,1c-0.1,0.3-0.3,0.6-0.6,0.9
			c-0.2,0.2-0.5,0.4-0.9,0.6c-0.3,0.1-0.7,0.2-1,0.2c-0.4,0-0.7-0.1-1-0.2c-0.3-0.1-0.6-0.3-0.8-0.6c-0.2-0.2-0.4-0.5-0.6-0.9
			c-0.1-0.3-0.2-0.7-0.2-1C0,59.3,0.1,59,0.2,58.7z"/>
		<path class="st0" d="M19.1,54.3v0.9h-5.8v3.9h5.1V60h-5.1v5.1h-1V54.3H19.1z"/>
		<path class="st0" d="M20.7,58.5c0.2-0.3,0.4-0.6,0.7-0.8c0.3-0.2,0.6-0.4,1-0.5c0.4-0.1,0.8-0.2,1.2-0.2c0.3,0,0.7,0,1,0.1
			c0.3,0.1,0.6,0.2,0.9,0.4c0.3,0.2,0.5,0.4,0.7,0.8c0.2,0.3,0.3,0.7,0.3,1.3v4.1c0,0.4,0.2,0.6,0.6,0.6c0.1,0,0.2,0,0.3-0.1V65
			c-0.1,0-0.2,0-0.3,0s-0.2,0-0.3,0c-0.2,0-0.4,0-0.6-0.1s-0.3-0.2-0.3-0.3s-0.1-0.3-0.2-0.4c0-0.2,0-0.3,0-0.5h0
			c-0.2,0.3-0.3,0.5-0.5,0.7c-0.2,0.2-0.4,0.4-0.6,0.5c-0.2,0.1-0.5,0.2-0.7,0.3c-0.3,0.1-0.6,0.1-1,0.1c-0.4,0-0.7,0-1-0.1
			c-0.3-0.1-0.6-0.2-0.8-0.4s-0.4-0.4-0.6-0.7c-0.1-0.3-0.2-0.6-0.2-1c0-0.5,0.1-1,0.4-1.3c0.2-0.3,0.6-0.5,1-0.7
			c0.4-0.2,0.8-0.3,1.3-0.3c0.5-0.1,1-0.1,1.5-0.2c0.2,0,0.4,0,0.5-0.1c0.1,0,0.3-0.1,0.4-0.2c0.1-0.1,0.2-0.2,0.2-0.3
			c0.1-0.1,0.1-0.3,0.1-0.5c0-0.3-0.1-0.6-0.2-0.8s-0.3-0.4-0.4-0.5c-0.2-0.1-0.4-0.2-0.6-0.2c-0.2,0-0.5-0.1-0.8-0.1
			c-0.6,0-1.1,0.1-1.5,0.4c-0.4,0.3-0.6,0.7-0.6,1.4h-0.9C20.4,59.2,20.5,58.9,20.7,58.5z M25.4,60.8c-0.1,0.1-0.2,0.2-0.3,0.2
			c-0.2,0-0.3,0.1-0.5,0.1c-0.4,0.1-0.8,0.1-1.2,0.2c-0.4,0.1-0.8,0.1-1.2,0.2c-0.4,0.1-0.6,0.3-0.9,0.5C21.1,62.3,21,62.6,21,63
			c0,0.2,0,0.5,0.1,0.6c0.1,0.2,0.2,0.3,0.4,0.5c0.2,0.1,0.3,0.2,0.6,0.3c0.2,0.1,0.4,0.1,0.6,0.1c0.4,0,0.7-0.1,1-0.2
			s0.6-0.3,0.9-0.5c0.2-0.2,0.4-0.5,0.6-0.8c0.1-0.3,0.2-0.6,0.2-1L25.4,60.8L25.4,60.8z"/>
		<path class="st0" d="M29.6,54.3v10.7h-0.9V54.3H29.6z"/>
		<path class="st0" d="M34.8,57.3v0.8h-1.6v5.2c0,0.3,0,0.6,0.1,0.7c0.1,0.2,0.3,0.3,0.6,0.3c0.3,0,0.5,0,0.8,0v0.8
			c-0.1,0-0.3,0-0.4,0c-0.1,0-0.3,0-0.4,0c-0.6,0-1.1-0.1-1.3-0.4c-0.3-0.2-0.4-0.7-0.4-1.4v-5.3h-1.4v-0.8h1.4V55h0.9v2.3H34.8z"/>
		<path class="st0" d="M36.6,58.5c0.2-0.3,0.4-0.6,0.7-0.8c0.3-0.2,0.6-0.4,1-0.5c0.4-0.1,0.8-0.2,1.2-0.2c0.3,0,0.7,0,1,0.1
			c0.3,0.1,0.6,0.2,0.9,0.4c0.3,0.2,0.5,0.4,0.7,0.8c0.2,0.3,0.3,0.7,0.3,1.3v4.1c0,0.4,0.2,0.6,0.6,0.6c0.1,0,0.2,0,0.3-0.1V65
			c-0.1,0-0.2,0-0.3,0s-0.2,0-0.3,0c-0.2,0-0.4,0-0.6-0.1c-0.1-0.1-0.3-0.2-0.3-0.3s-0.1-0.3-0.2-0.4c0-0.2,0-0.3,0-0.5h0
			c-0.2,0.3-0.3,0.5-0.5,0.7c-0.2,0.2-0.4,0.4-0.6,0.5c-0.2,0.1-0.5,0.2-0.7,0.3c-0.3,0.1-0.6,0.1-1,0.1c-0.4,0-0.7,0-1-0.1
			s-0.6-0.2-0.8-0.4s-0.4-0.4-0.6-0.7c-0.1-0.3-0.2-0.6-0.2-1c0-0.5,0.1-1,0.4-1.3c0.2-0.3,0.6-0.5,1-0.7c0.4-0.2,0.8-0.3,1.3-0.3
			c0.5-0.1,1-0.1,1.5-0.2c0.2,0,0.4,0,0.5-0.1s0.3-0.1,0.4-0.2c0.1-0.1,0.2-0.2,0.2-0.3c0.1-0.1,0.1-0.3,0.1-0.5
			c0-0.3-0.1-0.6-0.2-0.8c-0.1-0.2-0.3-0.4-0.4-0.5c-0.2-0.1-0.4-0.2-0.6-0.2c-0.2,0-0.5-0.1-0.8-0.1c-0.6,0-1.1,0.1-1.5,0.4
			c-0.4,0.3-0.6,0.7-0.6,1.4h-0.9C36.4,59.2,36.5,58.9,36.6,58.5z M41.4,60.8C41.3,61,41.2,61,41,61.1c-0.2,0-0.3,0.1-0.5,0.1
			c-0.4,0.1-0.8,0.1-1.2,0.2c-0.4,0.1-0.8,0.1-1.2,0.2s-0.6,0.3-0.9,0.5C37.1,62.3,37,62.6,37,63c0,0.2,0,0.5,0.1,0.6
			c0.1,0.2,0.2,0.3,0.4,0.5c0.2,0.1,0.3,0.2,0.6,0.3c0.2,0.1,0.4,0.1,0.6,0.1c0.4,0,0.7-0.1,1-0.2c0.3-0.1,0.6-0.3,0.9-0.5
			c0.2-0.2,0.4-0.5,0.6-0.8s0.2-0.6,0.2-1L41.4,60.8L41.4,60.8z"/>
		<path class="st0" d="M55,65.1v-1.5h0c-0.1,0.3-0.2,0.5-0.4,0.7c-0.2,0.2-0.4,0.4-0.7,0.5c-0.3,0.1-0.5,0.3-0.8,0.3
			c-0.3,0.1-0.6,0.1-0.8,0.1c-0.6,0-1.1-0.1-1.5-0.3c-0.4-0.2-0.8-0.5-1.1-0.9c-0.3-0.4-0.5-0.8-0.6-1.3c-0.1-0.5-0.2-1-0.2-1.6
			c0-0.6,0.1-1.1,0.2-1.6c0.1-0.5,0.4-0.9,0.6-1.3c0.3-0.4,0.7-0.7,1.1-0.9c0.4-0.2,0.9-0.3,1.5-0.3c0.3,0,0.6,0,0.8,0.1
			c0.3,0.1,0.5,0.2,0.8,0.3c0.2,0.1,0.5,0.3,0.6,0.5c0.2,0.2,0.3,0.5,0.4,0.7h0v-4.5h0.9v10.7H55z M49.8,62.4
			c0.1,0.4,0.2,0.7,0.5,1.1c0.2,0.3,0.5,0.6,0.8,0.8c0.3,0.2,0.7,0.3,1.2,0.3c0.5,0,0.9-0.1,1.3-0.3s0.6-0.4,0.8-0.8
			c0.2-0.3,0.4-0.7,0.5-1.1c0.1-0.4,0.1-0.8,0.1-1.2c0-0.4,0-0.8-0.1-1.2c-0.1-0.4-0.3-0.7-0.5-1.1c-0.2-0.3-0.5-0.6-0.8-0.8
			c-0.3-0.2-0.8-0.3-1.3-0.3c-0.5,0-0.8,0.1-1.2,0.3c-0.3,0.2-0.6,0.4-0.8,0.8s-0.4,0.7-0.5,1.1c-0.1,0.4-0.1,0.8-0.1,1.2
			C49.6,61.6,49.7,62,49.8,62.4z"/>
		<path class="st0" d="M58.6,62.5c0.1,0.4,0.2,0.7,0.5,1c0.2,0.3,0.5,0.5,0.8,0.7c0.3,0.2,0.7,0.3,1.2,0.3c0.7,0,1.2-0.2,1.6-0.5
			c0.4-0.4,0.7-0.8,0.8-1.4h0.9c-0.2,0.9-0.6,1.6-1.1,2c-0.5,0.5-1.3,0.7-2.3,0.7c-0.6,0-1.1-0.1-1.6-0.3c-0.4-0.2-0.8-0.5-1.1-0.9
			c-0.3-0.4-0.5-0.8-0.6-1.3s-0.2-1-0.2-1.6c0-0.5,0.1-1,0.2-1.5s0.3-0.9,0.6-1.3c0.3-0.4,0.6-0.7,1.1-0.9s1-0.4,1.6-0.4
			c0.6,0,1.2,0.1,1.6,0.4c0.4,0.3,0.8,0.6,1.1,1c0.3,0.4,0.5,0.9,0.6,1.4c0.1,0.5,0.2,1.1,0.2,1.6h-6C58.5,61.8,58.5,62.2,58.6,62.5
			z M63.3,59.6c-0.1-0.3-0.3-0.6-0.5-0.9c-0.2-0.3-0.5-0.5-0.8-0.6s-0.6-0.2-1-0.2c-0.4,0-0.7,0.1-1,0.2s-0.6,0.4-0.8,0.6
			c-0.2,0.3-0.4,0.6-0.5,0.9c-0.1,0.3-0.2,0.7-0.2,1h5C63.5,60.3,63.4,60,63.3,59.6z"/>
		<path class="st0" d="M71.2,62.5c0.1,0.4,0.2,0.7,0.5,1c0.2,0.3,0.5,0.5,0.8,0.7c0.3,0.2,0.7,0.3,1.2,0.3c0.7,0,1.2-0.2,1.6-0.5
			c0.4-0.4,0.7-0.8,0.8-1.4H77c-0.2,0.9-0.6,1.6-1.1,2c-0.5,0.5-1.3,0.7-2.3,0.7c-0.6,0-1.1-0.1-1.6-0.3c-0.4-0.2-0.8-0.5-1.1-0.9
			c-0.3-0.4-0.5-0.8-0.6-1.3c-0.1-0.5-0.2-1-0.2-1.6c0-0.5,0.1-1,0.2-1.5c0.1-0.5,0.3-0.9,0.6-1.3c0.3-0.4,0.6-0.7,1.1-0.9
			c0.4-0.2,1-0.4,1.6-0.4c0.6,0,1.2,0.1,1.6,0.4c0.4,0.3,0.8,0.6,1.1,1c0.3,0.4,0.5,0.9,0.6,1.4c0.1,0.5,0.2,1.1,0.2,1.6h-6
			C71.1,61.8,71.1,62.2,71.2,62.5z M75.9,59.6c-0.1-0.3-0.3-0.6-0.5-0.9c-0.2-0.3-0.5-0.5-0.8-0.6c-0.3-0.2-0.6-0.2-1-0.2
			c-0.4,0-0.7,0.1-1,0.2s-0.6,0.4-0.8,0.6c-0.2,0.3-0.4,0.6-0.5,0.9c-0.1,0.3-0.2,0.7-0.2,1h5C76.1,60.3,76,60,75.9,59.6z"/>
		<path class="st0" d="M79.6,57.3v1.3h0c0.2-0.5,0.5-0.8,1-1.1c0.5-0.3,1-0.4,1.5-0.4c0.5,0,1,0.1,1.4,0.2c0.4,0.1,0.7,0.3,0.9,0.6
			s0.4,0.6,0.5,0.9c0.1,0.4,0.1,0.8,0.1,1.2v5H84v-4.8c0-0.3,0-0.6-0.1-0.9c-0.1-0.3-0.2-0.5-0.3-0.7c-0.2-0.2-0.4-0.4-0.6-0.5
			s-0.6-0.2-1-0.2s-0.7,0.1-1,0.2c-0.3,0.1-0.5,0.3-0.8,0.6c-0.2,0.2-0.4,0.5-0.5,0.8s-0.2,0.7-0.2,1.1v4.5h-0.9v-7.8H79.6z"/>
		<path class="st0" d="M87.7,62.5c0.1,0.4,0.2,0.7,0.5,1c0.2,0.3,0.5,0.5,0.8,0.7c0.3,0.2,0.7,0.3,1.2,0.3c0.7,0,1.2-0.2,1.6-0.5
			c0.4-0.4,0.7-0.8,0.8-1.4h0.9c-0.2,0.9-0.6,1.6-1.1,2c-0.5,0.5-1.3,0.7-2.3,0.7c-0.6,0-1.1-0.1-1.6-0.3c-0.4-0.2-0.8-0.5-1.1-0.9
			c-0.3-0.4-0.5-0.8-0.6-1.3c-0.1-0.5-0.2-1-0.2-1.6c0-0.5,0.1-1,0.2-1.5c0.1-0.5,0.3-0.9,0.6-1.3c0.3-0.4,0.6-0.7,1.1-0.9
			c0.4-0.2,1-0.4,1.6-0.4c0.6,0,1.2,0.1,1.6,0.4c0.4,0.3,0.8,0.6,1.1,1c0.3,0.4,0.5,0.9,0.6,1.4c0.1,0.5,0.2,1.1,0.2,1.6h-6
			C87.6,61.8,87.6,62.2,87.7,62.5z M92.4,59.6c-0.1-0.3-0.3-0.6-0.5-0.9c-0.2-0.3-0.5-0.5-0.8-0.6c-0.3-0.2-0.6-0.2-1-0.2
			c-0.4,0-0.7,0.1-1,0.2s-0.6,0.4-0.8,0.6c-0.2,0.3-0.4,0.6-0.5,0.9c-0.1,0.3-0.2,0.7-0.2,1h5C92.6,60.3,92.5,60,92.4,59.6z"/>
		<path class="st0" d="M96,57.3v1.8h0c0.2-0.6,0.6-1.1,1.1-1.5c0.5-0.3,1.1-0.5,1.8-0.5v0.9c-0.4,0-0.8,0-1.2,0.2
			c-0.4,0.1-0.7,0.3-0.9,0.6c-0.3,0.3-0.5,0.5-0.6,0.9s-0.2,0.7-0.2,1.1v4.1h-0.9v-7.8H96z"/>
		<path class="st0" d="M106.5,66c-0.1,0.5-0.3,0.9-0.6,1.2c-0.3,0.3-0.6,0.6-1.1,0.7c-0.4,0.2-1,0.3-1.6,0.3c-0.4,0-0.8,0-1.1-0.1
			c-0.4-0.1-0.7-0.2-1-0.4c-0.3-0.2-0.5-0.4-0.7-0.7c-0.2-0.3-0.3-0.6-0.3-1.1h0.9c0,0.3,0.1,0.5,0.3,0.7s0.3,0.4,0.5,0.5
			s0.4,0.2,0.7,0.3c0.3,0.1,0.5,0.1,0.8,0.1c0.9,0,1.5-0.3,1.9-0.8c0.4-0.5,0.6-1.2,0.6-2.2v-1.1h0c-0.2,0.5-0.5,0.9-1,1.2
			c-0.4,0.3-0.9,0.4-1.5,0.4c-0.6,0-1.2-0.1-1.6-0.3c-0.4-0.2-0.8-0.5-1.1-0.8c-0.3-0.4-0.5-0.8-0.6-1.3c-0.1-0.5-0.2-1-0.2-1.6
			c0-0.5,0.1-1,0.2-1.5s0.4-0.9,0.7-1.2c0.3-0.4,0.7-0.6,1.1-0.8c0.4-0.2,0.9-0.3,1.5-0.3c0.3,0,0.6,0,0.8,0.1
			c0.3,0.1,0.5,0.2,0.7,0.3c0.2,0.1,0.4,0.3,0.6,0.5c0.2,0.2,0.3,0.4,0.4,0.6h0v-1.3h0.9v7.1C106.7,65,106.6,65.5,106.5,66z
			 M104.3,63.9c0.3-0.2,0.6-0.4,0.8-0.7c0.2-0.3,0.4-0.6,0.5-1c0.1-0.4,0.2-0.8,0.2-1.1c0-0.4,0-0.8-0.1-1.1c-0.1-0.4-0.2-0.7-0.4-1
			s-0.5-0.6-0.8-0.8c-0.3-0.2-0.7-0.3-1.1-0.3c-0.5,0-0.8,0.1-1.2,0.3c-0.3,0.2-0.6,0.4-0.8,0.7c-0.2,0.3-0.4,0.6-0.5,1
			c-0.1,0.4-0.1,0.8-0.1,1.2c0,0.4,0,0.8,0.1,1.1c0.1,0.4,0.3,0.7,0.5,1c0.2,0.3,0.5,0.5,0.8,0.7c0.3,0.2,0.7,0.3,1.1,0.3
			C103.7,64.2,104,64.1,104.3,63.9z"/>
		<path class="st0" d="M108.4,56.2l1.6-2.1h1.2l-2,2.1H108.4z M108.8,57.3h0.9v7.8h-0.9V57.3z"/>
		<path class="st0" d="M112.1,58.5c0.2-0.3,0.4-0.6,0.7-0.8c0.3-0.2,0.6-0.4,1-0.5c0.4-0.1,0.8-0.2,1.2-0.2c0.3,0,0.7,0,1,0.1
			c0.3,0.1,0.6,0.2,0.9,0.4c0.3,0.2,0.5,0.4,0.7,0.8c0.2,0.3,0.3,0.7,0.3,1.3v4.1c0,0.4,0.2,0.6,0.6,0.6c0.1,0,0.2,0,0.3-0.1V65
			c-0.1,0-0.2,0-0.3,0s-0.2,0-0.3,0c-0.2,0-0.4,0-0.6-0.1c-0.1-0.1-0.3-0.2-0.3-0.3s-0.1-0.3-0.2-0.4c0-0.2,0-0.3,0-0.5h0
			c-0.2,0.3-0.3,0.5-0.5,0.7c-0.2,0.2-0.4,0.4-0.6,0.5c-0.2,0.1-0.5,0.2-0.7,0.3c-0.3,0.1-0.6,0.1-1,0.1c-0.4,0-0.7,0-1-0.1
			s-0.6-0.2-0.8-0.4s-0.4-0.4-0.6-0.7c-0.1-0.3-0.2-0.6-0.2-1c0-0.5,0.1-1,0.4-1.3c0.2-0.3,0.6-0.5,1-0.7c0.4-0.2,0.8-0.3,1.3-0.3
			c0.5-0.1,1-0.1,1.5-0.2c0.2,0,0.4,0,0.5-0.1s0.3-0.1,0.4-0.2c0.1-0.1,0.2-0.2,0.2-0.3c0.1-0.1,0.1-0.3,0.1-0.5
			c0-0.3-0.1-0.6-0.2-0.8c-0.1-0.2-0.3-0.4-0.4-0.5c-0.2-0.1-0.4-0.2-0.6-0.2c-0.2,0-0.5-0.1-0.8-0.1c-0.6,0-1.1,0.1-1.5,0.4
			c-0.4,0.3-0.6,0.7-0.6,1.4h-0.9C111.8,59.2,111.9,58.9,112.1,58.5z M116.8,60.8c-0.1,0.1-0.2,0.2-0.3,0.2c-0.2,0-0.3,0.1-0.5,0.1
			c-0.4,0.1-0.8,0.1-1.2,0.2c-0.4,0.1-0.8,0.1-1.2,0.2s-0.6,0.3-0.9,0.5c-0.2,0.2-0.3,0.5-0.3,0.9c0,0.2,0,0.5,0.1,0.6
			c0.1,0.2,0.2,0.3,0.4,0.5c0.2,0.1,0.3,0.2,0.6,0.3c0.2,0.1,0.4,0.1,0.6,0.1c0.4,0,0.7-0.1,1-0.2c0.3-0.1,0.6-0.3,0.9-0.5
			c0.2-0.2,0.4-0.5,0.6-0.8s0.2-0.6,0.2-1L116.8,60.8L116.8,60.8z"/>
	</g>
</g>
</svg>
