<!-- Generator: Adobe Illustrator 20.1.0, SVG Export Plug-In  -->
<svg version="1.1"
	 xmlns="http://www.w3.org/2000/svg" xmlns:xlink="http://www.w3.org/1999/xlink" xmlns:a="http://ns.adobe.com/AdobeSVGViewerExtensions/3.0/"
	 x="0px" y="0px" width="76.8px" height="10.1px" viewBox="0 0 76.8 10.1"
	 style="overflow:scroll;enable-background:new 0 0 76.8 10.1;" xml:space="preserve">
<style type="text/css">
	.st0{fill:#D51067;}
	.st1{fill:#58595B;}
</style>
<defs>
</defs>
<g>
	<g>
		<path class="st0" d="M3,6.6c5.6,0,11.3,0,16.9,0c0.3,0-1.8-3.1-3-3.1c-5.6,0-11.3,0-16.9,0C-0.3,3.5,1.8,6.6,3,6.6L3,6.6z"/>
	</g>
</g>
<g>
	<g>
		<g>
			<path class="st1" d="M32,5.5h-3.7v3.4h4.1v1h-5.3V0.5h5.1v1h-3.9v3H32V5.5z"/>
			<path class="st1" d="M41.2,9.5c-0.5,0.2-1.6,0.5-2.9,0.5c-1.4,0-2.6-0.4-3.5-1.2c-0.8-0.8-1.3-2-1.3-3.5c0-2.8,1.9-4.9,5.1-4.9
				c1.1,0,1.9,0.2,2.4,0.4l-0.3,1c-0.5-0.2-1.1-0.4-2.1-0.4c-2.3,0-3.8,1.4-3.8,3.8c0,2.4,1.4,3.8,3.6,3.8c0.8,0,1.3-0.1,1.6-0.3V6
				H38V5h3.1V9.5z"/>
			<path class="st1" d="M42.9,9.9c0-0.5,0.1-1.1,0.1-1.8V0h1.2v4.3h0C44.7,3.5,45.4,3,46.5,3c1.7,0,2.9,1.4,2.9,3.5
				c0,2.4-1.5,3.6-3,3.6c-1,0-1.8-0.4-2.3-1.3h0L44,9.9H42.9z M44.2,7.2c0,0.2,0,0.3,0.1,0.4c0.2,0.9,1,1.4,1.8,1.4
				c1.3,0,2.1-1.1,2.1-2.6c0-1.4-0.7-2.5-2-2.5c-0.8,0-1.6,0.6-1.9,1.5c0,0.1-0.1,0.3-0.1,0.5V7.2z"/>
			<path class="st1" d="M56.5,0.8v0.8l-4,8.3h-1.3l4-8.1v0h-4.5v-1H56.5z"/>
			<path class="st1" d="M62.9,1.7c-0.3,0-0.6,0-0.9,0.1c-1.9,0.3-3,1.7-3.2,3.2h0C59.3,4.4,60.1,4,61.1,4c1.6,0,2.7,1.2,2.7,2.9
				c0,1.7-1.1,3.2-3,3.2c-1.9,0-3.2-1.5-3.2-3.9c0-1.8,0.6-3.2,1.5-4.1c0.8-0.7,1.8-1.2,2.9-1.3c0.4-0.1,0.7-0.1,0.9-0.1V1.7z
				 M62.6,7c0-1.3-0.7-2.1-1.9-2.1c-0.7,0-1.4,0.5-1.8,1.1c-0.1,0.1-0.1,0.3-0.1,0.5c0,1.5,0.7,2.6,2,2.6C61.9,9.1,62.6,8.3,62.6,7z
				"/>
			<path class="st1" d="M67.6,2L67.6,2L66,2.8l-0.2-0.9l2-1.1h1.1v9.1h-1.2V2z"/>
			<path class="st1" d="M76.8,2.6c0,1.3-1,2.3-2.4,2.3C73.1,5,72,4,72,2.6c0-1.3,1.1-2.3,2.4-2.3C75.7,0.4,76.8,1.4,76.8,2.6z
				 M72.6,2.6c0,1,0.8,1.8,1.8,1.8c1,0,1.8-0.8,1.8-1.8c0-1-0.7-1.8-1.8-1.8C73.4,0.8,72.6,1.6,72.6,2.6z M74,3.9h-0.5V1.6
				c0.2,0,0.5-0.1,0.9-0.1c0.4,0,0.6,0.1,0.8,0.2c0.1,0.1,0.2,0.3,0.2,0.5c0,0.3-0.2,0.4-0.5,0.5v0c0.2,0.1,0.4,0.3,0.4,0.6
				c0.1,0.4,0.1,0.5,0.2,0.6h-0.6c-0.1-0.1-0.1-0.3-0.2-0.6c0-0.3-0.2-0.4-0.5-0.4H74V3.9z M74,2.5h0.3c0.3,0,0.5-0.1,0.5-0.3
				c0-0.2-0.2-0.3-0.5-0.3c-0.1,0-0.2,0-0.3,0V2.5z"/>
		</g>
	</g>
</g>
</svg>
