<!-- Generator: Adobe Illustrator 20.1.0, SVG Export Plug-In  -->
<svg version="1.1"
	 xmlns="http://www.w3.org/2000/svg" xmlns:xlink="http://www.w3.org/1999/xlink" xmlns:a="http://ns.adobe.com/AdobeSVGViewerExtensions/3.0/"
	 x="0px" y="0px" width="7.6px" height="217.2px" viewBox="0 0 7.6 217.2"
	 style="overflow:scroll;enable-background:new 0 0 7.6 217.2;" xml:space="preserve">
<style type="text/css">
	.st0{fill:#DA0962;}
</style>
<defs>
</defs>
<g>
	<path class="st0" d="M0.2,4.5c0.2,0.1,0.7,0.3,1.2,0.3c0.9,0,1.2-0.6,1.2-1c0-0.7-0.7-1-1.3-1H0.8V2.2h0.4c0.5,0,1.2-0.3,1.2-0.9
		c0-0.4-0.3-0.8-0.9-0.8c-0.4,0-0.8,0.2-1,0.3L0.2,0.4C0.5,0.2,1,0,1.6,0C2.6,0,3,0.6,3,1.2c0,0.5-0.3,1-1,1.2v0
		c0.6,0.1,1.2,0.6,1.2,1.3c0,0.8-0.6,1.6-1.9,1.6C0.8,5.4,0.3,5.2,0,5L0.2,4.5z"/>
	<path class="st0" d="M7.6,2.6c0,1.8-0.7,2.7-1.8,2.7c-1,0-1.7-1-1.7-2.7C4.1,1,4.8,0,5.9,0C7,0,7.6,1,7.6,2.6z M4.8,2.7
		c0,1.4,0.4,2.1,1.1,2.1c0.7,0,1.1-0.8,1.1-2.2c0-1.3-0.3-2.1-1.1-2.1C5.2,0.5,4.8,1.3,4.8,2.7z"/>
	<path class="st0" d="M0,58.2v-0.4l0.6-0.5c1.3-1.3,1.9-1.9,1.9-2.7c0-0.5-0.3-1-1-1c-0.5,0-0.9,0.2-1.1,0.4l-0.2-0.5
		C0.5,53.2,1,53,1.6,53c1.1,0,1.6,0.8,1.6,1.5c0,1-0.7,1.7-1.8,2.8L1,57.6v0h2.3v0.6H0z"/>
	<path class="st0" d="M7.3,53.6h-2L5.1,55c0.1,0,0.2,0,0.4,0c0.4,0,0.8,0.1,1.1,0.3c0.4,0.2,0.7,0.7,0.7,1.3c0,1-0.8,1.8-1.9,1.8
		c-0.6,0-1-0.2-1.3-0.3l0.2-0.5c0.2,0.1,0.6,0.3,1.1,0.3c0.7,0,1.2-0.4,1.2-1.1c0-0.7-0.5-1.2-1.5-1.2c-0.3,0-0.5,0-0.7,0.1L4.8,53
		h2.5V53.6z"/>
	<path class="st0" d="M0,111.2v-0.4l0.6-0.5c1.3-1.3,1.9-1.9,1.9-2.7c0-0.5-0.3-1-1-1c-0.5,0-0.9,0.2-1.1,0.4l-0.2-0.5
		c0.4-0.3,0.9-0.5,1.5-0.5c1.1,0,1.6,0.8,1.6,1.5c0,1-0.7,1.7-1.8,2.8L1,110.6v0h2.3v0.6H0z"/>
	<path class="st0" d="M7.6,108.5c0,1.8-0.7,2.7-1.8,2.7c-1,0-1.7-1-1.7-2.7c0-1.7,0.8-2.7,1.8-2.7C7,105.9,7.6,106.9,7.6,108.5z
		 M4.8,108.6c0,1.4,0.4,2.1,1.1,2.1c0.7,0,1.1-0.8,1.1-2.2c0-1.3-0.3-2.1-1.1-2.1C5.2,106.5,4.8,107.2,4.8,108.6z"/>
	<path class="st0" d="M1.6,159.6L1.6,159.6l-0.9,0.5l-0.1-0.5l1.1-0.6h0.6v5.2H1.6V159.6z"/>
	<path class="st0" d="M7.3,159.5h-2l-0.2,1.3c0.1,0,0.2,0,0.4,0c0.4,0,0.8,0.1,1.1,0.3c0.4,0.2,0.7,0.7,0.7,1.3c0,1-0.8,1.8-1.9,1.8
		c-0.6,0-1-0.2-1.3-0.3l0.2-0.5c0.2,0.1,0.6,0.3,1.1,0.3c0.7,0,1.2-0.4,1.2-1.1c0-0.7-0.5-1.2-1.5-1.2c-0.3,0-0.5,0-0.7,0.1l0.3-2.5
		h2.5V159.5z"/>
	<path class="st0" d="M1.6,212.6L1.6,212.6l-0.9,0.5l-0.1-0.5l1.1-0.6h0.6v5.2H1.6V212.6z"/>
	<path class="st0" d="M7.6,214.5c0,1.8-0.7,2.7-1.8,2.7c-1,0-1.7-1-1.7-2.7c0-1.7,0.8-2.7,1.8-2.7C7,211.8,7.6,212.8,7.6,214.5z
		 M4.8,214.5c0,1.4,0.4,2.1,1.1,2.1c0.7,0,1.1-0.8,1.1-2.2c0-1.3-0.3-2.1-1.1-2.1C5.2,212.4,4.8,213.1,4.8,214.5z"/>
</g>
</svg>
