<!-- Generator: Adobe Illustrator 20.1.0, SVG Export Plug-In  -->
<svg version="1.1"
	 xmlns="http://www.w3.org/2000/svg" xmlns:xlink="http://www.w3.org/1999/xlink" xmlns:a="http://ns.adobe.com/AdobeSVGViewerExtensions/3.0/"
	 x="0px" y="0px" width="58.8px" height="322.7px" viewBox="0 0 58.8 322.7"
	 style="overflow:scroll;enable-background:new 0 0 58.8 322.7;" xml:space="preserve">
<style type="text/css">
	.st0{fill:#DA0962;}
	.st1{fill:#EB247E;}
	.st2{fill:#DB5A84;}
	.st3{fill:#E2829D;}
	.st4{fill:#FFFFFF;}
</style>
<defs>
</defs>
<rect class="st0" width="14.8" height="322.7"/>
<rect x="14.8" class="st1" width="14.8" height="322.7"/>
<rect x="29.3" class="st2" width="14.8" height="322.7"/>
<rect x="43.9" class="st3" width="14.8" height="322.7"/>
<g>
	<path class="st4" d="M52.1,305.1v2.9h2.2v-3.3h1.1v4.7h-7.5v-4.5h1.1v3.1H51v-2.9H52.1z"/>
	<path class="st4" d="M55.1,296c0.2,0.5,0.4,1.5,0.4,2.5c0,1.3-0.3,2.3-1,3c-0.6,0.7-1.6,1.1-2.8,1.1c-2.4,0-3.9-1.7-3.9-4.3
		c0-1,0.2-1.7,0.4-2.1l1.1,0.3c-0.2,0.4-0.3,0.9-0.3,1.8c0,1.7,0.9,2.8,2.7,2.8c1.7,0,2.7-1.1,2.7-2.7c0-0.5-0.1-0.9-0.2-1.1h-1.9
		v1.4h-1.1V296H55.1z"/>
	<path class="st4" d="M55.4,293.4c-0.4,0-1,0-1.5,0h-6.4V292h3.2v0c-0.5-0.3-0.9-1-0.9-1.8c0-1.4,1.1-2.3,2.7-2.3
		c1.9,0,2.9,1.3,2.9,2.5c0,0.7-0.3,1.4-0.9,1.8v0l0.8,0.1V293.4z M53.2,292c0.1,0,0.2,0,0.3,0c0.5-0.1,1-0.6,1-1.2
		c0-0.9-0.7-1.4-1.8-1.4c-1,0-1.7,0.5-1.7,1.4c0,0.6,0.4,1.1,1,1.2c0.1,0,0.2,0,0.4,0H53.2z"/>
	<path class="st4" d="M48.2,276.8h0.9l6.4,3.2v1.5l-6.1-3.1h0v3.5h-1.1V276.8z"/>
	<path class="st4" d="M49.2,270c0,0.2,0,0.4,0,0.7c0.2,1.6,1.1,2.3,2.1,2.5v0c-0.4-0.4-0.7-0.9-0.7-1.7c0-1.3,0.9-2.3,2.4-2.3
		c1.4,0,2.6,1,2.6,2.6c0,1.8-1.3,2.8-3.1,2.8c-1.4,0-2.5-0.5-3.2-1.3c-0.6-0.7-1-1.6-1.1-2.6c0-0.3,0-0.5,0-0.7L49.2,270z
		 M53.1,270.7c-0.8,0-1.4,0.5-1.4,1.3c0,0.5,0.3,1,0.7,1.2c0.1,0.1,0.2,0.1,0.4,0.1c1,0,1.7-0.5,1.7-1.4
		C54.5,271.1,53.9,270.7,53.1,270.7z"/>
	<path class="st4" d="M49.4,264.9L49.4,264.9l0.7,1.4l-1,0.2l-0.9-1.8v-1.2h7.2v1.4H49.4z"/>
	<path class="st4" d="M49.7,255.6c1.1,0,1.9,0.9,1.9,2c0,1.1-0.8,2-1.9,2c-1,0-1.9-0.9-1.9-2C47.8,256.5,48.7,255.6,49.7,255.6z
		 M49.7,259.1c0.8,0,1.4-0.6,1.4-1.4s-0.6-1.4-1.4-1.4c-0.8,0-1.4,0.6-1.4,1.4S48.9,259.1,49.7,259.1z M50.6,257.9v0.5h-1.8
		c0-0.1-0.1-0.4-0.1-0.8c0-0.4,0.1-0.6,0.1-0.7c0.1-0.1,0.2-0.2,0.4-0.2c0.2,0,0.3,0.2,0.4,0.4h0c0.1-0.2,0.2-0.3,0.5-0.4
		c0.3-0.1,0.4-0.1,0.4-0.1v0.6c-0.1,0.1-0.2,0.1-0.4,0.1c-0.2,0-0.3,0.1-0.3,0.3v0.2H50.6z M49.6,257.9v-0.2c0-0.2-0.1-0.4-0.2-0.4
		c-0.2,0-0.2,0.1-0.2,0.4c0,0.1,0,0.2,0,0.2H49.6z"/>
</g>
<g>
	<path class="st4" d="M41.3,306.6l-7.5,2.5v-1.5l3.4-1.1c0.9-0.3,1.8-0.5,2.7-0.8v0c-0.9-0.2-1.8-0.5-2.7-0.8l-3.4-1.1v-1.5l7.5,2.7
		V306.6z"/>
	<path class="st4" d="M32,295.8l1.3,1.4v1.1l-1.3-1V295.8z M37.9,295.6v2.9h2.2v-3.3h1.1v4.7h-7.5v-4.5h1.1v3.1h1.9v-2.9H37.9z"/>
	<path class="st4" d="M33.9,292.4c-0.1-0.5-0.2-1.3-0.2-2.1c0-1.1,0.2-1.9,0.6-2.4c0.3-0.4,0.9-0.7,1.5-0.7c1,0,1.6,0.7,1.9,1.4h0
		c0.2-0.6,0.7-0.9,1.4-1.1c0.9-0.2,1.8-0.4,2.1-0.6v1.5c-0.2,0.1-0.8,0.3-1.8,0.5c-1,0.2-1.3,0.6-1.3,1.4v0.7h3.1v1.4H33.9z
		 M37.2,291v-0.8c0-1-0.5-1.5-1.2-1.5c-0.8,0-1.2,0.6-1.2,1.5c0,0.4,0,0.7,0.1,0.9H37.2z"/>
	<path class="st4" d="M34.9,282.8v2.2h-1.1v-5.8h1.1v2.2h6.4v1.4H34.9z"/>
	<path class="st4" d="M33.8,275.2h7.5v1.4h-7.5V275.2z"/>
	<path class="st4" d="M40.9,265.8c0.2,0.5,0.4,1.5,0.4,2.5c0,1.3-0.3,2.3-1,3c-0.6,0.7-1.6,1.1-2.8,1.1c-2.4,0-3.9-1.7-3.9-4.3
		c0-1,0.2-1.7,0.4-2.1l1.1,0.3c-0.2,0.4-0.3,0.9-0.3,1.8c0,1.7,0.9,2.8,2.7,2.8c1.7,0,2.7-1.1,2.7-2.7c0-0.5-0.1-0.9-0.2-1.1h-1.9
		v1.4h-1.1v-2.7H40.9z"/>
	<path class="st4" d="M37.4,255.9c2.5,0,3.9,1.6,3.9,3.7c0,2.2-1.6,3.6-3.8,3.6c-2.3,0-3.9-1.5-3.9-3.7
		C33.6,257.3,35.3,255.9,37.4,255.9z M37.5,261.7c1.5,0,2.7-0.8,2.7-2.1c0-1.4-1.2-2.1-2.8-2.1c-1.4,0-2.7,0.7-2.7,2.1
		C34.7,260.9,36,261.7,37.5,261.7z"/>
	<path class="st4" d="M37.8,246.7h0.9v2.9h-0.9V246.7z"/>
	<path class="st4" d="M34.9,238.5v2.2h-1.1v-5.8h1.1v2.2h6.4v1.4H34.9z"/>
	<path class="st4" d="M33.8,230.9h7.5v1.4h-7.5V230.9z"/>
	<path class="st4" d="M41.3,227.7h-7.5v-1.6l3.2-2c0.8-0.5,1.7-1,2.5-1.3v0c-1,0.1-2,0.1-3.1,0.1h-2.6v-1.3h7.5v1.5l-3.3,2
		c-0.8,0.5-1.7,1-2.6,1.4l0,0c1-0.1,2-0.1,3.2-0.1h2.7V227.7z"/>
	<path class="st4" d="M41.3,218.4h-7.5v-1.6l3.2-2c0.8-0.5,1.7-1,2.5-1.3v0c-1,0.1-2,0.1-3.1,0.1h-2.6v-1.3h7.5v1.5l-3.3,2
		c-0.8,0.5-1.7,1-2.6,1.4l0,0c1-0.1,2-0.1,3.2-0.1h2.7V218.4z"/>
	<path class="st4" d="M33.8,207.6h7.5v1.4h-7.5V207.6z"/>
	<path class="st4" d="M34.9,202.9v2.2h-1.1v-5.8h1.1v2.2h6.4v1.4H34.9z"/>
	<path class="st4" d="M33.8,195.4h4.4c1.5,0,2.1-0.6,2.1-1.6c0-1-0.7-1.6-2.1-1.6h-4.4v-1.4H38c2.3,0,3.3,1.2,3.3,3.1
		c0,1.8-1,2.9-3.3,2.9h-4.3V195.4z"/>
	<path class="st4" d="M39.8,187.6c0.3-0.5,0.5-1.1,0.5-1.9c0-0.9-0.4-1.4-1-1.4c-0.6,0-0.9,0.4-1.2,1.4c-0.4,1.3-1.1,2.1-2.2,2.1
		c-1.2,0-2.2-1.1-2.2-2.7c0-0.8,0.2-1.5,0.4-1.9l1.1,0.3c-0.1,0.3-0.4,0.8-0.4,1.5c0,0.9,0.5,1.3,0.9,1.3c0.6,0,0.8-0.4,1.2-1.5
		c0.5-1.3,1.1-2,2.2-2c1.2,0,2.2,0.9,2.2,2.9c0,0.8-0.2,1.7-0.5,2.1L39.8,187.6z"/>
</g>
<g>
	<path class="st4" d="M3.8,308.6c-0.1-0.6-0.2-1.4-0.2-2.2c0-1.4,0.3-2.4,0.9-3.2c0.6-0.7,1.5-1.2,2.8-1.2c1.3,0,2.3,0.5,3,1.2
		c0.7,0.8,1,2,1,3.5c0,0.8,0,1.4-0.1,1.9H3.8z M10.1,307.2c0-0.2,0-0.5,0-0.8c0-1.8-1-2.9-2.9-2.9c-1.7,0-2.6,1-2.6,2.7
		c0,0.4,0,0.8,0.1,1H10.1z"/>
	<path class="st4" d="M7.8,294.9v2.9H10v-3.3h1.1v4.7H3.7v-4.5h1.1v3.1h1.9v-2.9H7.8z"/>
	<path class="st4" d="M4.8,290.2v2.2H3.7v-5.8h1.1v2.2h6.4v1.4H4.8z"/>
	<path class="st4" d="M7.8,279.8v2.9H10v-3.3h1.1v4.7H3.7v-4.5h1.1v3.1h1.9v-2.9H7.8z"/>
	<path class="st4" d="M3.8,276.6c-0.1-0.5-0.2-1.3-0.2-2.1c0-1.1,0.2-1.9,0.6-2.4c0.3-0.4,0.9-0.7,1.5-0.7c1,0,1.6,0.7,1.9,1.4h0
		c0.2-0.6,0.7-0.9,1.4-1.1c0.9-0.2,1.8-0.4,2.1-0.6v1.5c-0.2,0.1-0.8,0.3-1.8,0.5c-1,0.2-1.3,0.6-1.3,1.4v0.7h3.1v1.4H3.8z
		 M7.1,275.2v-0.8c0-1-0.5-1.5-1.2-1.5c-0.8,0-1.2,0.6-1.2,1.5c0,0.4,0,0.7,0.1,0.9H7.1z"/>
	<path class="st4" d="M3.7,267.1h7.5v1.4H3.7V267.1z"/>
	<path class="st4" d="M7.3,257c2.5,0,3.9,1.6,3.9,3.7c0,2.2-1.6,3.6-3.8,3.6c-2.3,0-3.9-1.5-3.9-3.7C3.5,258.3,5.2,257,7.3,257z
		 M7.4,262.8c1.5,0,2.7-0.8,2.7-2.1c0-1.4-1.2-2.1-2.8-2.1c-1.4,0-2.7,0.7-2.7,2.1C4.6,262,5.9,262.8,7.4,262.8z"/>
	<path class="st4" d="M3.8,254.2c-0.1-0.5-0.2-1.3-0.2-2.1c0-1.1,0.2-1.9,0.6-2.4c0.3-0.4,0.9-0.7,1.5-0.7c1,0,1.6,0.7,1.9,1.4h0
		c0.2-0.6,0.7-0.9,1.4-1.1c0.9-0.2,1.8-0.4,2.1-0.6v1.5c-0.2,0.1-0.8,0.3-1.8,0.5c-1,0.2-1.3,0.6-1.3,1.4v0.7h3.1v1.4H3.8z
		 M7.1,252.8v-0.8c0-1-0.5-1.5-1.2-1.5c-0.8,0-1.2,0.6-1.2,1.5c0,0.4,0,0.7,0.1,0.9H7.1z"/>
	<path class="st4" d="M7.3,239.2c2.5,0,3.9,1.6,3.9,3.7c0,2.2-1.6,3.6-3.8,3.6c-2.3,0-3.9-1.5-3.9-3.7
		C3.5,240.5,5.2,239.2,7.3,239.2z M7.4,245c1.5,0,2.7-0.8,2.7-2.1c0-1.4-1.2-2.1-2.8-2.1c-1.4,0-2.7,0.7-2.7,2.1
		C4.6,244.2,5.9,245,7.4,245z"/>
	<path class="st4" d="M10.9,226.9c0.2,0.3,0.3,1.1,0.3,2c0,2.5-1.5,3.9-3.8,3.9c-2.5,0-4-1.8-4-4.1c0-0.9,0.2-1.6,0.3-1.9l1.1,0.3
		c-0.2,0.4-0.3,0.9-0.3,1.5c0,1.6,1,2.7,2.8,2.7c1.6,0,2.7-1,2.7-2.7c0-0.6-0.1-1.2-0.3-1.5L10.9,226.9z"/>
	<path class="st4" d="M7.3,217.2c2.5,0,3.9,1.6,3.9,3.7c0,2.2-1.6,3.6-3.8,3.6c-2.3,0-3.9-1.5-3.9-3.7
		C3.5,218.6,5.2,217.2,7.3,217.2z M7.4,223c1.5,0,2.7-0.8,2.7-2.1c0-1.4-1.2-2.1-2.8-2.1c-1.4,0-2.7,0.7-2.7,2.1
		C4.6,222.2,5.9,223,7.4,223z"/>
	<path class="st4" d="M10.8,208.2c0.2,0.5,0.4,1.5,0.4,2.5c0,1.3-0.3,2.3-1,3c-0.6,0.7-1.6,1.1-2.8,1.1c-2.4,0-3.9-1.7-3.9-4.3
		c0-1,0.2-1.7,0.4-2.1l1.1,0.3c-0.2,0.4-0.3,0.9-0.3,1.8c0,1.7,0.9,2.8,2.7,2.8c1.7,0,2.7-1.1,2.7-2.7c0-0.5-0.1-0.9-0.2-1.1H8.1
		v1.4H7v-2.7H10.8z"/>
	<path class="st4" d="M11.2,205.2H3.7v-1.6l3.2-2c0.8-0.5,1.7-1,2.5-1.3v0c-1,0.1-2,0.1-3.1,0.1H3.7v-1.3h7.5v1.5l-3.3,2
		c-0.8,0.5-1.7,1-2.6,1.4l0,0c1-0.1,2-0.1,3.2-0.1h2.7V205.2z"/>
	<path class="st4" d="M3.7,194.4h7.5v1.4H3.7V194.4z"/>
	<path class="st4" d="M4.8,189.7v2.2H3.7v-5.8h1.1v2.2h6.4v1.4H4.8z"/>
	<path class="st4" d="M3.7,182.2h7.5v1.4H3.7V182.2z"/>
	<path class="st4" d="M11.2,177.2l-7.5,2.5v-1.5l3.4-1.1c0.9-0.3,1.8-0.5,2.7-0.8v0c-0.9-0.2-1.8-0.5-2.7-0.8l-3.4-1.1v-1.5l7.5,2.7
		V177.2z"/>
	<path class="st4" d="M7.3,163.6c2.5,0,3.9,1.6,3.9,3.7c0,2.2-1.6,3.6-3.8,3.6c-2.3,0-3.9-1.5-3.9-3.7
		C3.5,164.9,5.2,163.6,7.3,163.6z M7.4,169.4c1.5,0,2.7-0.8,2.7-2.1c0-1.4-1.2-2.1-2.8-2.1c-1.4,0-2.7,0.7-2.7,2.1
		C4.6,168.6,5.9,169.4,7.4,169.4z"/>
</g>
<g>
	<path class="st4" d="M22.5,302.9c-1,0-2.1,0.1-3.1,0.1v0c0.9,0.3,1.9,0.6,2.9,0.9l3.2,1.1v1.1l-3.2,1c-1,0.3-2,0.6-2.9,0.8v0
		c1,0,2.2,0.1,3.2,0.1l3,0.2v1.3l-7.5-0.5v-1.9l3-1c0.9-0.3,1.8-0.5,2.6-0.7v0c-0.8-0.2-1.7-0.5-2.6-0.8l-3-1.1v-1.8l7.5-0.4v1.4
		L22.5,302.9z"/>
	<path class="st4" d="M22.2,294.3v2.9h2.2V294h1.1v4.7h-7.5v-4.5h1.1v3.1h1.9v-2.9H22.2z"/>
	<path class="st4" d="M25.3,285.9c0.2,0.3,0.3,1.1,0.3,2c0,2.5-1.5,3.9-3.8,3.9c-2.5,0-4-1.8-4-4.1c0-0.9,0.2-1.6,0.3-1.9l1.1,0.3
		c-0.2,0.4-0.3,0.9-0.3,1.5c0,1.6,1,2.7,2.8,2.7c1.6,0,2.7-1,2.7-2.7c0-0.6-0.1-1.2-0.3-1.5L25.3,285.9z"/>
	<path class="st4" d="M23.4,281.9l2.1,0.7v1.5l-7.5-2.5v-1.8l7.5-2.5v1.5l-2.1,0.7V281.9z M22.4,279.7l-1.8,0.6
		c-0.5,0.1-1,0.3-1.4,0.4v0c0.4,0.1,1,0.2,1.4,0.4l1.8,0.6V279.7z"/>
	<path class="st4" d="M25.6,274.9h-7.5v-1.6l3.2-2c0.8-0.5,1.7-1,2.5-1.3v0c-1,0.1-2,0.1-3.1,0.1h-2.6v-1.3h7.5v1.5l-3.3,2
		c-0.8,0.5-1.7,1-2.6,1.4l0,0c1-0.1,2-0.1,3.2-0.1h2.7V274.9z"/>
	<path class="st4" d="M18.1,264.4h7.5v1.4h-7.5V264.4z"/>
	<path class="st4" d="M24.1,261.5c0.3-0.5,0.5-1.1,0.5-1.9c0-0.9-0.4-1.4-1-1.4c-0.6,0-0.9,0.4-1.2,1.4c-0.4,1.3-1.1,2.1-2.2,2.1
		c-1.2,0-2.2-1.1-2.2-2.7c0-0.8,0.2-1.5,0.4-1.9l1.1,0.3c-0.1,0.3-0.4,0.8-0.4,1.5c0,0.9,0.5,1.3,0.9,1.3c0.6,0,0.8-0.4,1.2-1.5
		c0.5-1.3,1.1-2,2.2-2c1.2,0,2.2,0.9,2.2,2.9c0,0.8-0.2,1.7-0.5,2.1L24.1,261.5z"/>
	<path class="st4" d="M22.5,247.7c-1,0-2.1,0.1-3.1,0.1v0c0.9,0.3,1.9,0.6,2.9,0.9l3.2,1.1v1.1l-3.2,1c-1,0.3-2,0.6-2.9,0.8v0
		c1,0,2.2,0.1,3.2,0.1l3,0.2v1.3l-7.5-0.5v-1.9l3-1c0.9-0.3,1.8-0.5,2.6-0.7v0c-0.8-0.2-1.7-0.5-2.6-0.8l-3-1.1v-1.8l7.5-0.4v1.4
		L22.5,247.7z"/>
	<path class="st4" d="M21.7,236.6c2.5,0,3.9,1.6,3.9,3.7c0,2.2-1.6,3.6-3.8,3.6c-2.3,0-3.9-1.5-3.9-3.7
		C17.9,238,19.6,236.6,21.7,236.6z M21.8,242.4c1.5,0,2.7-0.8,2.7-2.1c0-1.4-1.2-2.1-2.8-2.1c-1.4,0-2.7,0.7-2.7,2.1
		C19,241.7,20.3,242.4,21.8,242.4z"/>
	<path class="st4" d="M18.2,230.5c-0.1-0.6-0.2-1.4-0.2-2.2c0-1.4,0.3-2.4,0.9-3.2c0.6-0.7,1.5-1.2,2.8-1.2c1.3,0,2.3,0.5,3,1.2
		c0.7,0.8,1,2,1,3.5c0,0.8,0,1.4-0.1,1.9H18.2z M24.5,229.1c0-0.2,0-0.5,0-0.8c0-1.8-1-2.9-2.9-2.9c-1.7,0-2.6,1-2.6,2.7
		c0,0.4,0,0.8,0.1,1H24.5z"/>
	<path class="st4" d="M22.2,217v2.9h2.2v-3.3h1.1v4.7h-7.5v-4.5h1.1v3.1h1.9V217H22.2z"/>
	<path class="st4" d="M23.4,208.9l2.1,0.7v1.5l-7.5-2.5v-1.8l7.5-2.5v1.5l-2.1,0.7V208.9z M22.4,206.7l-1.8,0.6
		c-0.5,0.1-1,0.3-1.4,0.4v0c0.4,0.1,1,0.2,1.4,0.4l1.8,0.6V206.7z"/>
	<path class="st4" d="M25.3,196.4c0.2,0.3,0.3,1.1,0.3,2c0,2.5-1.5,3.9-3.8,3.9c-2.5,0-4-1.8-4-4.1c0-0.9,0.2-1.6,0.3-1.9l1.1,0.3
		c-0.2,0.4-0.3,0.9-0.3,1.5c0,1.6,1,2.7,2.8,2.7c1.6,0,2.7-1,2.7-2.7c0-0.6-0.1-1.2-0.3-1.5L25.3,196.4z"/>
	<path class="st4" d="M25.3,188.3c0.2,0.3,0.3,1.1,0.3,2c0,2.5-1.5,3.9-3.8,3.9c-2.5,0-4-1.8-4-4.1c0-0.9,0.2-1.6,0.3-1.9l1.1,0.3
		c-0.2,0.4-0.3,0.9-0.3,1.5c0,1.6,1,2.7,2.8,2.7c1.6,0,2.7-1,2.7-2.7c0-0.6-0.1-1.2-0.3-1.5L25.3,188.3z"/>
	<path class="st4" d="M18.1,184.4h7.5v1.4h-7.5V184.4z"/>
	<path class="st4" d="M16.3,176.5l1.3,1.4v1.1l-1.3-1V176.5z M21.7,174.7c2.5,0,3.9,1.6,3.9,3.7c0,2.2-1.6,3.6-3.8,3.6
		c-2.3,0-3.9-1.5-3.9-3.7C17.9,176,19.6,174.7,21.7,174.7z M21.8,180.4c1.5,0,2.7-0.8,2.7-2.1c0-1.4-1.2-2.1-2.8-2.1
		c-1.4,0-2.7,0.7-2.7,2.1C19,179.7,20.3,180.4,21.8,180.4z"/>
	<path class="st4" d="M25.6,172.2h-7.5v-1.6l3.2-2c0.8-0.5,1.7-1,2.5-1.3v0c-1,0.1-2,0.1-3.1,0.1h-2.6V166h7.5v1.5l-3.3,2
		c-0.8,0.5-1.7,1-2.6,1.4l0,0c1-0.1,2-0.1,3.2-0.1h2.7V172.2z"/>
	<path class="st4" d="M22.5,152.9c-1,0-2.1,0.1-3.1,0.1v0c0.9,0.3,1.9,0.6,2.9,0.9l3.2,1.1v1.1l-3.2,1c-1,0.3-2,0.6-2.9,0.8v0
		c1,0,2.2,0.1,3.2,0.1l3,0.2v1.3l-7.5-0.5v-1.9l3-1c0.9-0.3,1.8-0.5,2.6-0.7v0c-0.8-0.2-1.7-0.5-2.6-0.8l-3-1.1v-1.8l7.5-0.4v1.4
		L22.5,152.9z"/>
	<path class="st4" d="M18.1,147.3h4.4c1.5,0,2.1-0.6,2.1-1.6c0-1-0.7-1.6-2.1-1.6h-4.4v-1.4h4.3c2.3,0,3.3,1.2,3.3,3.1
		c0,1.8-1,2.9-3.3,2.9h-4.3V147.3z"/>
	<path class="st4" d="M18.1,139.8v-1.4h6.4v-3.2h1.1v4.6H18.1z"/>
	<path class="st4" d="M19.2,131.4v2.2h-1.1v-5.8h1.1v2.2h6.4v1.4H19.2z"/>
	<path class="st4" d="M18.1,124.1h7.5v1.4h-7.5V124.1z"/>
	<path class="st4" d="M18.1,121.2v-4.5h1.1v3h2.1V117h1.1v2.8h3.2v1.4H18.1z"/>
	<path class="st4" d="M23.4,112.5l2.1,0.7v1.5l-7.5-2.5v-1.8l7.5-2.5v1.5l-2.1,0.7V112.5z M22.4,110.3l-1.8,0.6
		c-0.5,0.1-1,0.3-1.4,0.4v0c0.4,0.1,1,0.2,1.4,0.4l1.8,0.6V110.3z"/>
	<path class="st4" d="M25.3,100c0.2,0.3,0.3,1.1,0.3,2c0,2.5-1.5,3.9-3.8,3.9c-2.5,0-4-1.8-4-4.1c0-0.9,0.2-1.6,0.3-1.9l1.1,0.3
		c-0.2,0.4-0.3,0.9-0.3,1.5c0,1.6,1,2.7,2.8,2.7c1.6,0,2.7-1,2.7-2.7c0-0.6-0.1-1.2-0.3-1.5L25.3,100z"/>
	<path class="st4" d="M19.2,96v2.2h-1.1v-5.8h1.1v2.2h6.4V96H19.2z"/>
	<path class="st4" d="M21.7,83.3c2.5,0,3.9,1.6,3.9,3.7c0,2.2-1.6,3.6-3.8,3.6c-2.3,0-3.9-1.5-3.9-3.7
		C17.9,84.6,19.6,83.3,21.7,83.3z M21.8,89.1c1.5,0,2.7-0.8,2.7-2.1c0-1.4-1.2-2.1-2.8-2.1c-1.4,0-2.7,0.7-2.7,2.1
		C19,88.3,20.3,89.1,21.8,89.1z"/>
	<path class="st4" d="M18.2,80.8c-0.1-0.5-0.2-1.3-0.2-2.1c0-1.1,0.2-1.9,0.6-2.4c0.3-0.4,0.9-0.7,1.5-0.7c1,0,1.6,0.7,1.9,1.4h0
		c0.2-0.6,0.7-0.9,1.4-1.1c0.9-0.2,1.8-0.4,2.1-0.6v1.5c-0.2,0.1-0.8,0.3-1.8,0.5c-1,0.2-1.3,0.6-1.3,1.4v0.7h3.1v1.4H18.2z
		 M21.5,79.4v-0.8c0-1-0.5-1.5-1.2-1.5c-0.8,0-1.2,0.6-1.2,1.5c0,0.4,0,0.7,0.1,0.9H21.5z"/>
	<path class="st4" d="M18.1,71.6h7.5V73h-7.5V71.6z"/>
	<path class="st4" d="M23.4,67.1l2.1,0.7v1.5l-7.5-2.5V65l7.5-2.5V64l-2.1,0.7V67.1z M22.4,64.9l-1.8,0.6c-0.5,0.1-1,0.3-1.4,0.4v0
		c0.4,0.1,1,0.2,1.4,0.4l1.8,0.6V64.9z"/>
	<path class="st4" d="M18.1,60.1v-1.4h6.4v-3.2h1.1v4.6H18.1z"/>
</g>
</svg>
