<!-- Generator: Adobe Illustrator 20.1.0, SVG Export Plug-In  -->
<svg version="1.1"
	 xmlns="http://www.w3.org/2000/svg" xmlns:xlink="http://www.w3.org/1999/xlink" xmlns:a="http://ns.adobe.com/AdobeSVGViewerExtensions/3.0/"
	 x="0px" y="0px" width="310.3px" height="88.7px" viewBox="0 0 310.3 88.7"
	 style="overflow:scroll;enable-background:new 0 0 310.3 88.7;" xml:space="preserve">
<style type="text/css">
	.st0{fill:#FFFFFF;}
</style>
<defs>
</defs>
<g>
	<g>
		<g>
			<g>
				<g>
					<g>
						<path class="st0" d="M39.2,9.3H24.1V0h41.3v9.3H50.3v41.1H39.2V9.3z"/>
					</g>
					<g>
						<path class="st0" d="M68.1,34.6c0.3,6.4,3.4,9.3,9,9.3c4,0,7.3-2.5,7.9-4.7h8.8C91,47.8,85,51.4,76.8,51.4
							c-11.5,0-18.7-7.9-18.7-19.2c0-11,7.6-19.3,18.7-19.3c12.4,0,18.4,10.5,17.7,21.7H68.1z M84.5,28.3c-0.9-5.1-3.1-7.8-8-7.8
							c-6.4,0-8.2,4.9-8.3,7.8H84.5z"/>
						<path class="st0" d="M98.2,0h10v18.4h0.1c2.5-3.7,7-5.4,11.5-5.4c7.3,0,15.1,5.9,15.1,19.2c0,13.4-7.8,19.3-15.1,19.3
							c-5.4,0-9.8-1.6-12-5.7h-0.1v4.7h-9.5V0z M116.4,20.5c-5.9,0-8.6,5.6-8.6,11.7c0,6.1,2.6,11.7,8.6,11.7
							c5.9,0,8.6-5.6,8.6-11.7C124.9,26.1,122.3,20.5,116.4,20.5z"/>
						<path class="st0" d="M156.8,12.9c11.5,0,18.9,7.6,18.9,19.3c0,11.6-7.4,19.2-18.9,19.2c-11.4,0-18.9-7.6-18.9-19.2
							C137.9,20.6,145.3,12.9,156.8,12.9z M156.8,43.9c6.9,0,8.9-5.9,8.9-11.7c0-5.9-2.1-11.7-8.9-11.7c-6.8,0-8.8,5.9-8.8,11.7
							C148,38,150,43.9,156.8,43.9z"/>
						<path class="st0" d="M180.5,13.9h9.5V19h0.2c2.5-4.1,6.9-6.1,11.2-6.1c10.7,0,13.4,6,13.4,15.1v22.5h-10V29.8c0-6-1.8-9-6.4-9
							c-5.4,0-7.8,3-7.8,10.5v19.2h-10V13.9z"/>
						<path class="st0" d="M230.2,8.3h-10V0h10V8.3z M220.1,13.9h10v36.5h-10V13.9z"/>
					</g>
					<g>
						<path class="st0" d="M234.9,13.9h9.5V19h0.2c2.5-4.1,6.9-6.1,11.2-6.1c10.7,0,13.4,6,13.4,15.1v22.5h-10V29.8c0-6-1.8-9-6.4-9
							c-5.4,0-7.8,3-7.8,10.5v19.2h-10V13.9z"/>
					</g>
					<g>
						<path class="st0" d="M283.4,4.7c5.6,0,10.6,4,10.6,10.3c0,6.3-5,10.4-10.6,10.4c-5.6,0-10.6-4.1-10.6-10.4
							C272.8,8.7,277.8,4.7,283.4,4.7z M283.4,23.1c4.3,0,7.8-3.4,7.8-8.1c0-4.7-3.5-8.1-7.8-8.1c-4.3,0-7.8,3.4-7.8,8.1
							C275.6,19.7,279.1,23.1,283.4,23.1z M279.3,9.2h4.4c2.9,0,4.5,0.9,4.5,3.4c0,2.1-1.3,3-3,3.1l3.1,5h-2.4l-2.8-4.9h-1.4v4.9
							h-2.3V9.2z M281.6,14h2c1.3,0,2.3-0.2,2.3-1.6c0-1.2-1.3-1.4-2.4-1.4h-1.9V14z"/>
					</g>
				</g>
			</g>
		</g>
	</g>
	<g>
		<path class="st0" d="M1.7,79.5c0,5.5,3,7.7,6.6,7.7c2.5,0,3.8-0.5,4.8-1l0.4,1.3c-0.7,0.4-2.4,1.1-5.5,1.1c-5,0-8.1-3.6-8.1-8.7
			c0-5.8,3.3-9.4,7.8-9.4c5.7,0,6.8,5.4,6.8,7.8c0,0.5,0,0.7-0.1,1H1.7z M12.8,78.1c0-2.4-1-6.1-5.2-6.1c-3.8,0-5.5,3.4-5.8,6.1
			H12.8z"/>
		<path class="st0" d="M19,62.6h1.7v25.7H19V62.6z"/>
		<path class="st0" d="M37,67.1V71h5v1.4h-5v11.3c0,2.2,0.7,3.6,2.5,3.6c0.9,0,1.6-0.1,2-0.3l0.2,1.3c-0.6,0.2-1.4,0.4-2.4,0.4
			c-1.3,0-2.3-0.4-3-1.2c-0.8-0.9-1.1-2.4-1.1-4.2v-11h-2.9V71h2.9v-3.2L37,67.1z"/>
		<path class="st0" d="M45.7,76.2c0-1.7,0-3.5-0.1-5.2h1.6l0.1,3.5h0.1c0.8-2.2,2.6-3.9,4.9-3.9c0.3,0,0.5,0,0.7,0.1v1.6
			c-0.3,0-0.5,0-0.8,0c-2.4,0-4.1,2.1-4.6,4.8c-0.1,0.5-0.1,1.1-0.1,1.7v9.6h-1.7V76.2z"/>
		<path class="st0" d="M67.2,84.2c0,1.4,0,2.8,0.3,4.1h-1.6l-0.3-2.5h-0.1c-0.9,1.3-2.8,2.9-5.6,2.9c-3.5,0-5.1-2.5-5.1-4.8
			c0-4,3.5-6.4,10.6-6.4v-0.5c0-1.7-0.3-5.1-4.4-5.1c-1.5,0-3.1,0.4-4.4,1.3l-0.5-1.3c1.6-1,3.5-1.5,5.1-1.5c5,0,6,3.8,6,6.8V84.2z
			 M65.5,79c-3.8-0.1-8.8,0.5-8.8,4.6c0,2.5,1.7,3.6,3.5,3.6c2.9,0,4.6-1.8,5.1-3.5c0.1-0.4,0.2-0.8,0.2-1V79z"/>
		<path class="st0" d="M75.2,67.1V71h5v1.4h-5v11.3c0,2.2,0.7,3.6,2.5,3.6c0.9,0,1.6-0.1,2-0.3l0.2,1.3c-0.6,0.2-1.4,0.4-2.4,0.4
			c-1.3,0-2.3-0.4-3-1.2c-0.8-0.9-1.1-2.4-1.1-4.2v-11h-2.9V71h2.9v-3.2L75.2,67.1z"/>
		<path class="st0" d="M94.8,84.2c0,1.4,0,2.8,0.3,4.1h-1.6l-0.3-2.5h-0.1c-0.9,1.3-2.8,2.9-5.6,2.9c-3.5,0-5.1-2.5-5.1-4.8
			c0-4,3.5-6.4,10.6-6.4v-0.5c0-1.7-0.3-5.1-4.4-5.1c-1.5,0-3.1,0.4-4.4,1.3l-0.5-1.3c1.6-1,3.5-1.5,5.1-1.5c5,0,6,3.8,6,6.8V84.2z
			 M93.1,79c-3.8-0.1-8.8,0.5-8.8,4.6c0,2.5,1.7,3.6,3.5,3.6c2.9,0,4.6-1.8,5.1-3.5c0.1-0.4,0.2-0.8,0.2-1V79z"/>
		<path class="st0" d="M100.4,75.1c0-1.6,0-2.8-0.1-4.2h1.6l0.1,3h0.1c1.1-2,2.8-3.4,5.6-3.4c2.4,0,4.2,1.6,5,3.8h0.1
			c0.5-1,1.1-1.8,1.8-2.4c1.1-0.9,2.3-1.4,4.1-1.4c1.7,0,5.7,0.9,5.7,7.5v10.2h-1.7V78.2c0-3.9-1.5-6.2-4.5-6.2
			c-2.2,0-3.9,1.6-4.6,3.4c-0.1,0.5-0.3,1.1-0.3,1.7v11.1h-1.7V77.5c0-3.1-1.5-5.4-4.3-5.4c-2.3,0-4.2,1.9-4.8,3.9
			c-0.1,0.5-0.3,1.1-0.3,1.7v10.7h-1.7V75.1z"/>
		<path class="st0" d="M130.8,67.5c-0.8,0-1.3-0.7-1.3-1.5c0-0.8,0.6-1.5,1.4-1.5c0.8,0,1.4,0.7,1.4,1.5
			C132.3,66.8,131.7,67.5,130.8,67.5L130.8,67.5z M130,88.3V71h1.7v17.4H130z"/>
		<path class="st0" d="M137.8,79.5c0,5.5,3,7.7,6.6,7.7c2.5,0,3.8-0.5,4.8-1l0.4,1.3c-0.7,0.4-2.4,1.1-5.5,1.1c-5,0-8.1-3.6-8.1-8.7
			c0-5.8,3.3-9.4,7.8-9.4c5.7,0,6.8,5.4,6.8,7.8c0,0.5,0,0.7-0.1,1H137.8z M148.9,78.1c0-2.4-1-6.1-5.2-6.1c-3.8,0-5.5,3.4-5.8,6.1
			H148.9z"/>
		<path class="st0" d="M155.1,75.1c0-1.6,0-2.8-0.1-4.2h1.6l0.1,3.1h0.1c0.9-2,3.1-3.5,6-3.5c1.7,0,6.1,0.8,6.1,7.3v10.4h-1.7V78.1
			c0-3.2-1.2-6-4.8-6c-2.4,0-4.5,1.7-5.2,4c-0.1,0.4-0.2,1-0.2,1.5v10.8h-1.7V75.1z"/>
		<path class="st0" d="M176.9,67.1V71h5v1.4h-5v11.3c0,2.2,0.7,3.6,2.5,3.6c0.9,0,1.6-0.1,2-0.3l0.2,1.3c-0.6,0.2-1.4,0.4-2.4,0.4
			c-1.3,0-2.3-0.4-3-1.2c-0.8-0.9-1.1-2.4-1.1-4.2v-11h-2.9V71h2.9v-3.2L176.9,67.1z"/>
		<path class="st0" d="M192.2,88.7c-4.5,0-8-3.5-8-8.9c0-5.9,3.9-9.2,8.2-9.2c4.8,0,8.1,3.6,8.1,8.9C200.5,86,196,88.7,192.2,88.7
			L192.2,88.7z M192.3,87.3c3.6,0,6.5-3.3,6.5-7.7c0-3.2-1.8-7.6-6.4-7.6c-4.4,0-6.4,3.9-6.4,7.7C186,84,188.7,87.3,192.3,87.3
			L192.3,87.3z"/>
	</g>
	<g>
		<g>
			<g>
				<path class="st0" d="M249.1,65.1c0,1.3-1,2.4-2.6,2.4c-1.5,0-2.5-1-2.5-2.4c0-1.4,1-2.4,2.5-2.4
					C248.1,62.7,249.1,63.7,249.1,65.1z M244.3,87.6V70h4.6v17.6H244.3z"/>
				<path class="st0" d="M267.7,87.1c-1,0.4-2.8,0.9-5.1,0.9c-5.6,0-9.3-3.5-9.3-9c0-5.3,3.7-9.4,10-9.4c1.7,0,3.4,0.4,4.4,0.8
					l-0.8,3.3c-0.7-0.3-1.8-0.7-3.4-0.7c-3.5,0-5.5,2.5-5.5,5.7c0,3.6,2.4,5.7,5.5,5.7c1.6,0,2.7-0.3,3.6-0.7L267.7,87.1z"/>
				<path class="st0" d="M281.9,87.6l-0.3-2h-0.1c-1.1,1.4-3,2.4-5.3,2.4c-3.6,0-5.6-2.6-5.6-5.2c0-4.4,4-6.7,10.7-6.7v-0.3
					c0-1.2-0.5-3.1-3.7-3.1c-1.8,0-3.6,0.5-4.8,1.3l-0.9-2.9c1.3-0.8,3.7-1.6,6.5-1.6c5.8,0,7.4,3.6,7.4,7.4v6.4
					c0,1.6,0.1,3.1,0.3,4.2H281.9z M281.3,79c-3.2-0.1-6.3,0.6-6.3,3.3c0,1.7,1.1,2.5,2.6,2.5c1.8,0,3.1-1.2,3.5-2.4
					c0.1-0.3,0.1-0.7,0.1-1V79z"/>
				<path class="st0" d="M289.6,85.1l6.8-8.5c0.9-1.1,1.7-2,2.7-3v-0.1h-8.7V70h14.3v2.7l-6.6,8.3c-0.9,1-1.7,2.1-2.7,3v0.1h9.5v3.5
					h-15.2V85.1z"/>
			</g>
			<g>
				<path class="st0" d="M214.2,80.1c0.1,3.2,2.7,4.6,5.5,4.6c2.1,0,3.6-0.3,5-0.8l0.7,3.1c-1.5,0.6-3.7,1.1-6.3,1.1
					c-5.8,0-9.3-3.5-9.3-8.9c0-4.9,3-9.5,8.8-9.5c5.8,0,7.8,4.7,7.8,8.6c0,0.8-0.1,1.5-0.1,1.9H214.2z M222.1,77
					c0-1.6-0.7-4.3-3.7-4.3c-2.8,0-4,2.5-4.2,4.3H222.1z"/>
				<path class="st0" d="M231.3,87.6V73.4h-2.4V70h2.4v-0.8c0-2.3,0.6-4.6,2.2-6c1.3-1.2,3.1-1.7,4.7-1.7c1.2,0,2.2,0.2,2.9,0.4
					l-0.3,3.4c-0.5-0.2-1.1-0.3-1.9-0.3c-2.3,0-3,1.8-3,4V70h3.9v3.3h-3.9v14.3H231.3z"/>
			</g>
		</g>
		<g>
			<path class="st0" d="M306.3,72.4c0.2,0.1,0.8,0.4,1.4,0.4c0.9,0,1.3-0.5,1.3-1c0-0.7-0.7-1.1-1.4-1.1h-0.6v-0.9h0.5
				c0.6,0,1.3-0.2,1.3-0.9c0-0.4-0.3-0.8-1-0.8c-0.5,0-1,0.2-1.3,0.4l-0.3-0.9c0.4-0.2,1.1-0.5,1.8-0.5c1.3,0,2,0.7,2,1.5
				c0,0.7-0.4,1.2-1.2,1.5v0c0.8,0.1,1.4,0.7,1.4,1.5c0,1.1-0.9,1.9-2.5,1.9c-0.8,0-1.4-0.2-1.8-0.4L306.3,72.4z"/>
		</g>
	</g>
</g>
</svg>
