<!-- Generator: Adobe Illustrator 20.1.0, SVG Export Plug-In  -->
<svg version="1.1"
	 xmlns="http://www.w3.org/2000/svg" xmlns:xlink="http://www.w3.org/1999/xlink" xmlns:a="http://ns.adobe.com/AdobeSVGViewerExtensions/3.0/"
	 x="0px" y="0px" width="218.7px" height="39.4px" viewBox="0 0 218.7 39.4"
	 style="overflow:scroll;enable-background:new 0 0 218.7 39.4;" xml:space="preserve">
<style type="text/css">
	.st0{fill:#D51D70;}
</style>
<defs>
</defs>
<g>
	<path class="st0" d="M0.2,0.9c0.9-0.2,2.1-0.3,3.9-0.3c1.8,0,3.1,0.3,3.9,1c0.8,0.6,1.4,1.7,1.4,3c0,1.3-0.4,2.3-1.2,3
		C7.2,8.5,5.7,9,4,9c-0.4,0-0.7,0-1-0.1v4.6H0.2V0.9z M3,6.7c0.2,0.1,0.6,0.1,1,0.1c1.5,0,2.5-0.8,2.5-2.1c0-1.2-0.8-1.9-2.3-1.9
		c-0.6,0-1,0.1-1.2,0.1V6.7z"/>
	<path class="st0" d="M11.1,7.3c0-1.4,0-2.3-0.1-3.1h2.5l0.1,1.7h0.1C14.2,4.6,15.3,4,16.2,4c0.3,0,0.4,0,0.6,0v2.7
		c-0.2,0-0.5-0.1-0.8-0.1c-1.1,0-1.8,0.6-2,1.5C14,8.3,14,8.5,14,8.8v4.7h-2.9V7.3z"/>
	<path class="st0" d="M27.5,8.7c0,3.4-2.4,5-4.9,5c-2.7,0-4.8-1.8-4.8-4.8c0-3,2-4.9,5-4.9C25.6,4,27.5,5.9,27.5,8.7z M20.8,8.8
		c0,1.6,0.7,2.8,1.9,2.8c1.1,0,1.8-1.1,1.8-2.8C24.5,7.4,24,6,22.7,6C21.3,6,20.8,7.5,20.8,8.8z"/>
	<path class="st0" d="M32.5,1.5v2.7h2.1v2.1h-2.1v3.4c0,1.1,0.3,1.6,1.1,1.6c0.4,0,0.6,0,0.9-0.1l0,2.2c-0.4,0.2-1.1,0.2-1.9,0.2
		c-0.9,0-1.7-0.3-2.2-0.8c-0.5-0.6-0.8-1.4-0.8-2.8V6.3h-1.2V4.2h1.2v-2L32.5,1.5z"/>
	<path class="st0" d="M38.5,9.8c0.1,1.2,1.3,1.8,2.6,1.8c1,0,1.8-0.1,2.6-0.4l0.4,2c-0.9,0.4-2.1,0.6-3.4,0.6c-3.2,0-5-1.8-5-4.7
		c0-2.4,1.5-5,4.7-5c3,0,4.1,2.3,4.1,4.6c0,0.5-0.1,0.9-0.1,1.1H38.5z M41.9,7.8c0-0.7-0.3-1.9-1.6-1.9c-1.2,0-1.7,1.1-1.8,1.9H41.9
		z"/>
	<path class="st0" d="M55.2,4.2c0,0.6-0.1,1.4-0.1,2.8v5.2c0,1.8-0.4,3.2-1.4,4.2c-1,0.9-2.4,1.1-3.8,1.1c-1.2,0-2.5-0.2-3.3-0.7
		l0.6-2.2c0.6,0.3,1.6,0.7,2.7,0.7c1.4,0,2.4-0.7,2.4-2.5v-0.6h0c-0.6,0.8-1.4,1.2-2.5,1.2c-2.3,0-3.9-1.9-3.9-4.5
		c0-3,1.9-4.9,4.2-4.9c1.3,0,2.1,0.6,2.5,1.3h0l0.1-1.1H55.2z M52.2,8c0-0.2,0-0.4-0.1-0.5c-0.2-0.8-0.8-1.3-1.6-1.3
		c-1,0-1.9,0.9-1.9,2.6c0,1.4,0.7,2.5,1.9,2.5c0.7,0,1.3-0.5,1.5-1.2c0.1-0.2,0.1-0.5,0.1-0.8V8z"/>
	<path class="st0" d="M59.6,9.8c0.1,1.2,1.3,1.8,2.6,1.8c1,0,1.8-0.1,2.6-0.4l0.4,2c-0.9,0.4-2.1,0.6-3.4,0.6c-3.2,0-5-1.8-5-4.7
		c0-2.4,1.5-5,4.7-5c3,0,4.1,2.3,4.1,4.6c0,0.5-0.1,0.9-0.1,1.1H59.6z M63,7.8c0-0.7-0.3-1.9-1.6-1.9c-1.2,0-1.7,1.1-1.8,1.9H63z"/>
	<path class="st0" d="M78.3,13.3c-0.5,0.2-1.5,0.4-2.6,0.4c-3,0-4.9-1.8-4.9-4.8c0-2.7,1.9-4.9,5.3-4.9c0.8,0,1.6,0.1,2.2,0.4
		l-0.5,2.1c-0.3-0.2-0.9-0.3-1.6-0.3c-1.5,0-2.5,1.1-2.5,2.6c0,1.7,1.1,2.6,2.5,2.6c0.7,0,1.2-0.1,1.7-0.3L78.3,13.3z"/>
	<path class="st0" d="M89,8.7c0,3.4-2.4,5-4.9,5c-2.7,0-4.8-1.8-4.8-4.8c0-3,2-4.9,5-4.9C87.1,4,89,5.9,89,8.7z M82.3,8.8
		c0,1.6,0.7,2.8,1.9,2.8c1.1,0,1.8-1.1,1.8-2.8C86,7.4,85.5,6,84.2,6C82.8,6,82.3,7.5,82.3,8.8z"/>
	<path class="st0" d="M90.8,7.2c0-1.2,0-2.1-0.1-3h2.5l0.1,1.3h0.1C93.8,4.9,94.8,4,96.3,4c1.9,0,3.3,1.3,3.3,4v5.5h-2.9V8.3
		c0-1.2-0.4-2-1.5-2c-0.8,0-1.3,0.6-1.5,1.1c-0.1,0.2-0.1,0.5-0.1,0.7v5.4h-2.9V7.2z"/>
	<path class="st0" d="M105.2,1.5v2.7h2.1v2.1h-2.1v3.4c0,1.1,0.3,1.6,1.1,1.6c0.4,0,0.6,0,0.9-0.1l0,2.2c-0.4,0.2-1.1,0.2-1.9,0.2
		c-0.9,0-1.7-0.3-2.2-0.8c-0.5-0.6-0.8-1.4-0.8-2.8V6.3h-1.2V4.2h1.2v-2L105.2,1.5z"/>
	<path class="st0" d="M108.9,7.3c0-1.4,0-2.3-0.1-3.1h2.5l0.1,1.7h0.1C112,4.6,113.1,4,114,4c0.3,0,0.4,0,0.6,0v2.7
		c-0.2,0-0.5-0.1-0.8-0.1c-1.1,0-1.8,0.6-2,1.5c0,0.2-0.1,0.4-0.1,0.6v4.7h-2.9V7.3z"/>
	<path class="st0" d="M121.4,13.5l-0.2-0.9h-0.1c-0.6,0.7-1.6,1.1-2.7,1.1c-1.9,0-3-1.4-3-2.8c0-2.4,2.2-3.6,5.5-3.6V7.2
		c0-0.5-0.3-1.2-1.7-1.2c-1,0-2,0.3-2.6,0.7l-0.5-1.9c0.6-0.4,1.9-0.8,3.6-0.8c3.1,0,4.1,1.8,4.1,4v3.2c0,0.9,0,1.7,0.1,2.3H121.4z
		 M121.1,9.1c-1.5,0-2.7,0.3-2.7,1.5c0,0.7,0.5,1.1,1.1,1.1c0.7,0,1.3-0.5,1.5-1.1c0-0.2,0.1-0.3,0.1-0.5V9.1z"/>
	<path class="st0" d="M132.2,9.8c0.1,1.2,1.3,1.8,2.6,1.8c1,0,1.8-0.1,2.6-0.4l0.4,2c-0.9,0.4-2.1,0.6-3.4,0.6c-3.2,0-5-1.8-5-4.7
		c0-2.4,1.5-5,4.7-5c3,0,4.1,2.3,4.1,4.6c0,0.5-0.1,0.9-0.1,1.1H132.2z M135.6,7.8c0-0.7-0.3-1.9-1.6-1.9c-1.2,0-1.7,1.1-1.8,1.9
		H135.6z"/>
	<path class="st0" d="M140,0h2.9v13.5H140V0z"/>
	<path class="st0" d="M158.1,0v10.7c0,1,0,2.1,0.1,2.8h-2.6l-0.1-1.4h0c-0.6,1-1.7,1.6-2.9,1.6c-2.2,0-4-1.9-4-4.8
		c0-3.1,1.9-4.9,4.2-4.9c1.1,0,2,0.4,2.5,1h0V0H158.1z M155.2,8.1c0-0.2,0-0.4,0-0.5c-0.2-0.8-0.8-1.4-1.7-1.4c-1.3,0-2,1.2-2,2.6
		c0,1.6,0.8,2.6,2,2.6c0.8,0,1.5-0.6,1.7-1.4c0.1-0.2,0.1-0.4,0.1-0.7V8.1z"/>
	<path class="st0" d="M165.7,13.5l-0.2-0.9h-0.1c-0.6,0.7-1.6,1.1-2.7,1.1c-1.9,0-3-1.4-3-2.8c0-2.4,2.2-3.6,5.5-3.6V7.2
		c0-0.5-0.3-1.2-1.7-1.2c-1,0-2,0.3-2.6,0.7l-0.5-1.9c0.6-0.4,1.9-0.8,3.6-0.8c3.1,0,4.1,1.8,4.1,4v3.2c0,0.9,0,1.7,0.1,2.3H165.7z
		 M165.4,9.1c-1.5,0-2.7,0.3-2.7,1.5c0,0.7,0.5,1.1,1.1,1.1c0.7,0,1.3-0.5,1.5-1.1c0-0.2,0.1-0.3,0.1-0.5V9.1z"/>
	<path class="st0" d="M170.5,7.2c0-1.2,0-2.1-0.1-3h2.5l0.1,1.3h0.1c0.4-0.6,1.3-1.5,2.9-1.5c1.9,0,3.3,1.3,3.3,4v5.5h-2.9V8.3
		c0-1.2-0.4-2-1.5-2c-0.8,0-1.3,0.6-1.5,1.1c-0.1,0.2-0.1,0.5-0.1,0.7v5.4h-2.9V7.2z M172.2,2.9c-0.1-1.6,0.6-2.5,1.6-2.5
		c0.5,0,0.9,0.2,1.2,0.4c0.3,0.2,0.6,0.4,0.8,0.4c0.3,0,0.4-0.2,0.5-0.9h1.3c0.1,1.7-0.6,2.5-1.6,2.5c-0.5,0-0.9-0.2-1.3-0.4
		C174.4,2.1,174.2,2,174,2c-0.3,0-0.4,0.3-0.5,0.9H172.2z"/>
	<path class="st0" d="M190.8,8.7c0,3.4-2.4,5-4.9,5c-2.7,0-4.8-1.8-4.8-4.8c0-3,2-4.9,5-4.9C188.9,4,190.8,5.9,190.8,8.7z
		 M184.1,8.8c0,1.6,0.7,2.8,1.9,2.8c1.1,0,1.8-1.1,1.8-2.8c0-1.4-0.5-2.8-1.8-2.8C184.6,6,184.1,7.5,184.1,8.8z"/>
	<path class="st0" d="M3.1,24.4c0,0.8-0.6,1.4-1.6,1.4c-0.9,0-1.5-0.6-1.5-1.4C0,23.6,0.6,23,1.5,23S3,23.6,3.1,24.4z M0.1,36.3V27
		H3v9.3H0.1z"/>
	<path class="st0" d="M5.3,30c0-1.2,0-2.1-0.1-3h2.5l0.1,1.3h0.1c0.4-0.6,1.3-1.5,2.9-1.5c1.9,0,3.3,1.3,3.3,4v5.5h-2.9v-5.1
		c0-1.2-0.4-2-1.5-2c-0.8,0-1.3,0.6-1.5,1.1c-0.1,0.2-0.1,0.5-0.1,0.7v5.4H5.3V30z"/>
	<path class="st0" d="M25.4,22.8v10.7c0,1,0,2.1,0.1,2.8h-2.6l-0.1-1.4h0c-0.6,1-1.7,1.6-2.9,1.6c-2.2,0-4-1.9-4-4.8
		c0-3.1,1.9-4.9,4.2-4.9c1.1,0,2,0.4,2.5,1h0v-5H25.4z M22.5,30.9c0-0.2,0-0.4,0-0.5c-0.2-0.8-0.8-1.4-1.7-1.4c-1.3,0-2,1.2-2,2.6
		c0,1.6,0.8,2.6,2,2.6c0.8,0,1.5-0.6,1.7-1.4c0.1-0.2,0.1-0.4,0.1-0.7V30.9z"/>
	<path class="st0" d="M36.5,33.3c0,1.2,0,2.2,0.1,3h-2.5L33.9,35h-0.1c-0.4,0.6-1.2,1.5-2.9,1.5c-1.9,0-3.3-1.2-3.3-4V27h2.9v5
		c0,1.3,0.4,2.2,1.4,2.2c0.8,0,1.3-0.6,1.4-1c0.1-0.2,0.1-0.4,0.1-0.6V27h2.9V33.3z"/>
	<path class="st0" d="M45.8,36.1c-0.5,0.2-1.5,0.4-2.6,0.4c-3,0-4.9-1.8-4.9-4.8c0-2.7,1.9-4.9,5.3-4.9c0.8,0,1.6,0.1,2.2,0.4
		l-0.5,2.1C45,29.1,44.5,29,43.7,29c-1.5,0-2.5,1.1-2.5,2.6c0,1.7,1.1,2.6,2.5,2.6c0.7,0,1.2-0.1,1.7-0.3L45.8,36.1z"/>
	<path class="st0" d="M50.4,24.4c0,0.8-0.6,1.4-1.6,1.4c-0.9,0-1.5-0.6-1.5-1.4c0-0.8,0.6-1.5,1.5-1.5S50.3,23.6,50.4,24.4z
		 M47.4,36.3V27h2.9v9.3H47.4z"/>
	<path class="st0" d="M61.6,22.8v10.7c0,1,0,2.1,0.1,2.8h-2.6L59,34.9h0c-0.6,1-1.7,1.6-2.9,1.6c-2.2,0-4-1.9-4-4.8
		c0-3.1,1.9-4.9,4.2-4.9c1.1,0,2,0.4,2.5,1h0v-5H61.6z M58.7,30.9c0-0.2,0-0.4,0-0.5C58.5,29.6,57.9,29,57,29c-1.3,0-2,1.2-2,2.6
		c0,1.6,0.8,2.6,2,2.6c0.8,0,1.5-0.6,1.7-1.4c0.1-0.2,0.1-0.4,0.1-0.7V30.9z"/>
	<path class="st0" d="M73.1,31.5c0,3.4-2.4,5-4.9,5c-2.7,0-4.8-1.8-4.8-4.8c0-3,2-4.9,5-4.9C71.2,26.8,73.1,28.7,73.1,31.5z
		 M66.4,31.6c0,1.6,0.7,2.8,1.9,2.8c1.1,0,1.8-1.1,1.8-2.8c0-1.4-0.5-2.8-1.8-2.8C66.9,28.8,66.4,30.3,66.4,31.6z"/>
</g>
<g>
	<path class="st0" d="M78.7,29.5c0-1.2,0-2.3-0.1-3.1h2.5l0.1,1.3h0c0.7-1,1.7-1.5,3.1-1.5c2,0,3.9,1.8,3.9,4.7c0,3.4-2.1,5-4.2,5
		c-1.1,0-2-0.5-2.4-1.1h0v4.6h-2.9V29.5z M81.6,31.7c0,0.2,0,0.4,0.1,0.6c0.2,0.8,0.9,1.4,1.7,1.4c1.3,0,2-1,2-2.6
		c0-1.5-0.7-2.6-2-2.6c-0.8,0-1.5,0.6-1.7,1.5c0,0.2-0.1,0.3-0.1,0.5V31.7z"/>
	<path class="st0" d="M99.2,30.9c0,3.4-2.4,5-4.9,5c-2.7,0-4.8-1.8-4.8-4.8c0-3,2-4.9,5-4.9C97.3,26.2,99.2,28.1,99.2,30.9z
		 M92.5,31c0,1.6,0.7,2.8,1.9,2.8c1.1,0,1.8-1.1,1.8-2.8c0-1.4-0.5-2.8-1.8-2.8C93,28.2,92.5,29.6,92.5,31z"/>
	<path class="st0" d="M101,29.4c0-1.4,0-2.3-0.1-3.1h2.5l0.1,1.7h0.1c0.5-1.3,1.6-1.9,2.5-1.9c0.3,0,0.4,0,0.6,0v2.7
		c-0.2,0-0.5-0.1-0.8-0.1c-1.1,0-1.8,0.6-2,1.5c0,0.2-0.1,0.4-0.1,0.6v4.7H101V29.4z"/>
	<path class="st0" d="M114.3,31.9c0.1,1.2,1.3,1.8,2.6,1.8c1,0,1.8-0.1,2.6-0.4l0.4,2c-0.9,0.4-2.1,0.6-3.4,0.6c-3.2,0-5-1.8-5-4.7
		c0-2.4,1.5-5,4.7-5c3,0,4.1,2.3,4.1,4.6c0,0.5-0.1,0.9-0.1,1.1H114.3z M117.7,30c0-0.7-0.3-1.9-1.6-1.9c-1.2,0-1.7,1.1-1.8,1.9
		H117.7z"/>
	<path class="st0" d="M122.1,22.2h2.9v13.5h-2.9V22.2z"/>
	<path class="st0" d="M133.9,35v1.1c0,1.1,0.1,2.5,0.2,3.3h-2.7c-0.2-0.6-0.3-2-0.3-3.2v-8.4c0-2.8,0.7-4,1.5-4.7
		c0.7-0.7,1.7-1.1,3.1-1.1c2.4,0,3.8,1.6,3.8,3.5c0,1.1-0.6,2.3-1.5,2.8v0.1c1.3,0.3,2.6,1.6,2.6,3.5c0,2.4-1.8,4-4,4
		C135.5,35.9,134.6,35.6,133.9,35L133.9,35z M133.9,32.8c0.4,0.6,1.1,0.9,1.8,0.9c1.3,0,1.9-0.9,1.9-1.9c0-1.3-0.9-2-2.1-2.1
		c-0.1,0-0.3,0-0.4,0v-1.8c0.1,0,0.2,0,0.3-0.1c0.9-0.2,1.5-1,1.5-1.9c0-1-0.5-1.7-1.4-1.7c-1,0-1.6,0.8-1.6,3.1V32.8z"/>
	<path class="st0" d="M151.4,35.7l-0.2-0.9h-0.1c-0.6,0.7-1.6,1.1-2.7,1.1c-1.9,0-3-1.4-3-2.8c0-2.4,2.2-3.6,5.5-3.6v-0.1
		c0-0.5-0.3-1.2-1.7-1.2c-1,0-2,0.3-2.6,0.7l-0.5-1.9c0.6-0.4,1.9-0.8,3.6-0.8c3.1,0,4.1,1.8,4.1,4v3.2c0,0.9,0,1.7,0.1,2.3H151.4z
		 M151.1,31.3c-1.5,0-2.7,0.3-2.7,1.5c0,0.7,0.5,1.1,1.1,1.1c0.7,0,1.3-0.5,1.5-1.1c0-0.2,0.1-0.3,0.1-0.5V31.3z"/>
	<path class="st0" d="M156.2,29.3c0-1.2,0-2.1-0.1-3h2.4l0.1,1.3h0.1c0.4-0.6,1.2-1.5,2.8-1.5c1.2,0,2.1,0.6,2.5,1.6h0
		c0.3-0.5,0.8-0.9,1.2-1.1c0.5-0.3,1.1-0.5,1.8-0.5c1.8,0,3.1,1.3,3.1,4v5.5h-2.8v-5.1c0-1.3-0.4-2.1-1.4-2.1c-0.7,0-1.1,0.5-1.3,1
		c-0.1,0.2-0.1,0.5-0.1,0.7v5.4h-2.8v-5.2c0-1.2-0.4-2-1.3-2c-0.7,0-1.2,0.6-1.3,1c-0.1,0.2-0.1,0.5-0.1,0.7v5.4h-2.8V29.3z"/>
	<path class="st0" d="M175.5,23.8c0,0.8-0.6,1.4-1.6,1.4c-0.9,0-1.5-0.6-1.5-1.4c0-0.8,0.6-1.5,1.5-1.5S175.5,23,175.5,23.8z
		 M172.5,35.7v-9.3h2.9v9.3H172.5z"/>
	<path class="st0" d="M177.7,22.2h2.9v13.5h-2.9V22.2z"/>
	<path class="st0" d="M192.1,30.9c0,3.4-2.4,5-4.9,5c-2.7,0-4.8-1.8-4.8-4.8c0-3,2-4.9,5-4.9C190.2,26.2,192.1,28.1,192.1,30.9z
		 M185.4,31c0,1.6,0.7,2.8,1.9,2.8c1.1,0,1.8-1.1,1.8-2.8c0-1.4-0.5-2.8-1.8-2.8C185.9,28.2,185.4,29.6,185.4,31z"/>
	<path class="st0" d="M196.9,23.8c0,0.8-0.6,1.4-1.6,1.4c-0.9,0-1.5-0.6-1.5-1.4c0-0.8,0.6-1.5,1.5-1.5S196.9,23,196.9,23.8z
		 M193.9,35.7v-9.3h2.9v9.3H193.9z"/>
	<path class="st0" d="M208.1,22.2v10.7c0,1,0,2.1,0.1,2.8h-2.6l-0.1-1.4h0c-0.6,1-1.7,1.6-2.9,1.6c-2.2,0-4-1.9-4-4.8
		c0-3.1,1.9-4.9,4.2-4.9c1.1,0,2,0.4,2.5,1h0v-5H208.1z M205.2,30.3c0-0.2,0-0.4,0-0.5c-0.2-0.8-0.8-1.4-1.7-1.4c-1.3,0-2,1.2-2,2.6
		c0,1.6,0.8,2.6,2,2.6c0.8,0,1.5-0.6,1.7-1.4c0.1-0.2,0.1-0.4,0.1-0.7V30.3z"/>
	<path class="st0" d="M212.7,31.9c0.1,1.2,1.3,1.8,2.6,1.8c1,0,1.8-0.1,2.6-0.4l0.4,2c-0.9,0.4-2.1,0.6-3.4,0.6c-3.2,0-5-1.8-5-4.7
		c0-2.4,1.5-5,4.7-5c3,0,4.1,2.3,4.1,4.6c0,0.5-0.1,0.9-0.1,1.1H212.7z M216.1,30c0-0.7-0.3-1.9-1.6-1.9c-1.2,0-1.7,1.1-1.8,1.9
		H216.1z"/>
</g>
</svg>
