<!-- Generator: Adobe Illustrator 20.1.0, SVG Export Plug-In  -->
<svg version="1.1"
	 xmlns="http://www.w3.org/2000/svg" xmlns:xlink="http://www.w3.org/1999/xlink" xmlns:a="http://ns.adobe.com/AdobeSVGViewerExtensions/3.0/"
	 x="0px" y="0px" width="411.6px" height="60.6px" viewBox="0 0 411.6 60.6"
	 style="overflow:scroll;enable-background:new 0 0 411.6 60.6;" xml:space="preserve">
<style type="text/css">
	.st0{fill:#DA0962;}
	.st1{fill:#5A2D81;}
</style>
<defs>
</defs>
<g>
	<g>
		<path class="st0" d="M0.3,7.2c0.5,0.3,1.2,0.5,1.9,0.5c1.1,0,1.7-0.6,1.7-1.4c0-0.8-0.4-1.2-1.5-1.6C1.1,4.3,0.3,3.6,0.3,2.5
			c0-1.3,1-2.2,2.6-2.2c0.8,0,1.4,0.2,1.8,0.4L4.4,1.5C4.1,1.4,3.6,1.2,2.8,1.2c-1.1,0-1.5,0.7-1.5,1.2c0,0.8,0.5,1.1,1.6,1.6
			C4.3,4.5,5,5.1,5,6.3c0,1.2-0.9,2.3-2.8,2.3c-0.8,0-1.6-0.2-2.1-0.5L0.3,7.2z"/>
		<path class="st0" d="M6.7,5.8c0,1.4,0.9,2,2,2c0.8,0,1.2-0.1,1.6-0.3l0.2,0.8c-0.4,0.2-1,0.4-1.9,0.4c-1.8,0-2.9-1.2-2.9-2.9
			s1-3.1,2.7-3.1c1.9,0,2.4,1.7,2.4,2.7c0,0.2,0,0.4,0,0.5H6.7z M9.8,5c0-0.7-0.3-1.7-1.5-1.7c-1.1,0-1.5,1-1.6,1.7H9.8z"/>
		<path class="st0" d="M17.9,8.3c-0.3,0.1-0.9,0.3-1.7,0.3c-1.8,0-2.9-1.2-2.9-3c0-1.8,1.2-3.1,3.1-3.1c0.6,0,1.2,0.2,1.5,0.3
			l-0.2,0.8c-0.3-0.1-0.6-0.3-1.2-0.3c-1.3,0-2.1,1-2.1,2.2c0,1.3,0.9,2.2,2,2.2c0.6,0,1-0.2,1.3-0.3L17.9,8.3z"/>
		<path class="st0" d="M24,5.6c0,2.1-1.5,3.1-2.9,3.1c-1.6,0-2.8-1.2-2.8-3c0-1.9,1.3-3.1,2.9-3.1C22.9,2.6,24,3.8,24,5.6z
			 M19.4,5.6c0,1.3,0.7,2.2,1.8,2.2c1,0,1.8-0.9,1.8-2.3c0-1-0.5-2.2-1.7-2.2C19.9,3.4,19.4,4.5,19.4,5.6z"/>
		<path class="st0" d="M25,4.3c0-0.6,0-1.1,0-1.6h0.9l0,0.9h0c0.3-0.6,0.9-1.1,1.8-1.1c0.8,0,1.4,0.5,1.6,1.2h0
			c0.2-0.3,0.4-0.6,0.6-0.8c0.3-0.3,0.7-0.4,1.3-0.4c0.8,0,1.9,0.5,1.9,2.5v3.4h-1V5.2c0-1.1-0.4-1.8-1.3-1.8c-0.6,0-1.1,0.4-1.2,1
			c0,0.1-0.1,0.3-0.1,0.5v3.6h-1V5c0-0.9-0.4-1.6-1.2-1.6c-0.7,0-1.1,0.5-1.3,1.1C26.1,4.7,26,4.8,26,5v3.5h-1V4.3z"/>
		<path class="st0" d="M34.7,4.6c0-0.7,0-1.3,0-1.9h0.9l0,1h0c0.4-0.7,1.1-1.1,2.1-1.1c1.4,0,2.5,1.2,2.5,3c0,2.1-1.3,3.1-2.6,3.1
			c-0.8,0-1.4-0.3-1.8-0.9h0v3.2h-1V4.6z M35.8,6.2c0,0.2,0,0.3,0,0.4c0.2,0.7,0.8,1.2,1.6,1.2c1.1,0,1.8-0.9,1.8-2.2
			c0-1.2-0.6-2.2-1.7-2.2c-0.7,0-1.4,0.5-1.6,1.3c0,0.1-0.1,0.3-0.1,0.4V6.2z"/>
		<path class="st0" d="M44.5,8.5l-0.1-0.7h0c-0.3,0.5-0.9,0.9-1.8,0.9c-1.2,0-1.8-0.8-1.8-1.7c0-1.4,1.2-2.2,3.5-2.2V4.7
			c0-0.5-0.1-1.3-1.3-1.3c-0.5,0-1.1,0.2-1.5,0.4l-0.2-0.7c0.5-0.3,1.2-0.5,1.9-0.5c1.8,0,2.2,1.2,2.2,2.4v2.2c0,0.5,0,1,0.1,1.4
			H44.5z M44.3,5.6c-1.2,0-2.5,0.2-2.5,1.3c0,0.7,0.5,1,1,1c0.8,0,1.2-0.5,1.4-1c0-0.1,0.1-0.2,0.1-0.3V5.6z"/>
		<path class="st0" d="M46.7,4.5c0-0.7,0-1.3,0-1.8h0.9l0,1.1h0c0.3-0.8,0.9-1.3,1.6-1.3c0.1,0,0.2,0,0.3,0v1c-0.1,0-0.2,0-0.4,0
			c-0.7,0-1.3,0.6-1.4,1.4c0,0.1,0,0.3,0,0.5v3.1h-1V4.5z"/>
		<path class="st0" d="M55.5,5.6c0,2.1-1.5,3.1-2.9,3.1c-1.6,0-2.8-1.2-2.8-3c0-1.9,1.3-3.1,2.9-3.1C54.4,2.6,55.5,3.8,55.5,5.6z
			 M50.9,5.6c0,1.3,0.7,2.2,1.8,2.2c1,0,1.8-0.9,1.8-2.3c0-1-0.5-2.2-1.7-2.2C51.4,3.4,50.9,4.5,50.9,5.6z M54.2,0.2l-1.5,1.7H52
			l1.1-1.7H54.2z"/>
		<path class="st0" d="M58.4,0h1.1v8.5h-1.1V0z"/>
		<path class="st0" d="M64.1,8.5l-0.1-0.7h0c-0.3,0.5-0.9,0.9-1.8,0.9c-1.2,0-1.8-0.8-1.8-1.7c0-1.4,1.2-2.2,3.5-2.2V4.7
			c0-0.5-0.1-1.3-1.3-1.3c-0.5,0-1.1,0.2-1.5,0.4l-0.2-0.7c0.5-0.3,1.2-0.5,1.9-0.5C64.6,2.6,65,3.8,65,5v2.2c0,0.5,0,1,0.1,1.4
			H64.1z M64,5.6c-1.2,0-2.5,0.2-2.5,1.3c0,0.7,0.5,1,1,1c0.8,0,1.2-0.5,1.4-1C64,6.8,64,6.7,64,6.6V5.6z"/>
		<path class="st0" d="M69.5,1v1.7h1.5v0.8h-1.5v3.1c0,0.7,0.2,1.1,0.8,1.1c0.3,0,0.5,0,0.6-0.1l0,0.8c-0.2,0.1-0.5,0.1-0.9,0.1
			c-0.5,0-0.9-0.2-1.1-0.4c-0.3-0.3-0.4-0.8-0.4-1.5V3.5h-0.9V2.7h0.9V1.3L69.5,1z"/>
		<path class="st0" d="M75.2,8.5l-0.1-0.7h0c-0.3,0.5-0.9,0.9-1.8,0.9c-1.2,0-1.8-0.8-1.8-1.7c0-1.4,1.2-2.2,3.5-2.2V4.7
			c0-0.5-0.1-1.3-1.3-1.3c-0.5,0-1.1,0.2-1.5,0.4l-0.2-0.7c0.5-0.3,1.2-0.5,1.9-0.5C75.6,2.6,76,3.8,76,5v2.2c0,0.5,0,1,0.1,1.4
			H75.2z M75,5.6c-1.2,0-2.5,0.2-2.5,1.3c0,0.7,0.5,1,1,1c0.8,0,1.2-0.5,1.4-1C75,6.8,75,6.7,75,6.6V5.6z"/>
		<path class="st0" d="M76.8,7.9l2.6-3.4c0.3-0.3,0.5-0.6,0.8-0.9v0H77V2.7h4.4l0,0.7l-2.6,3.4c-0.2,0.3-0.5,0.6-0.7,0.9v0h3.4v0.8
			h-4.7V7.9z"/>
		<path class="st0" d="M85.5,8.5l-0.1-0.7h0c-0.3,0.5-0.9,0.9-1.8,0.9c-1.2,0-1.8-0.8-1.8-1.7c0-1.4,1.2-2.2,3.5-2.2V4.7
			c0-0.5-0.1-1.3-1.3-1.3c-0.5,0-1.1,0.2-1.5,0.4l-0.2-0.7c0.5-0.3,1.2-0.5,1.9-0.5c1.8,0,2.2,1.2,2.2,2.4v2.2c0,0.5,0,1,0.1,1.4
			H85.5z M85.3,5.6c-1.2,0-2.5,0.2-2.5,1.3c0,0.7,0.5,1,1,1c0.8,0,1.2-0.5,1.4-1c0-0.1,0.1-0.2,0.1-0.3V5.6z"/>
		<path class="st0" d="M94.6,0v7c0,0.5,0,1.1,0,1.5h-0.9l0-1h0c-0.3,0.6-1,1.1-2,1.1c-1.4,0-2.5-1.2-2.5-3c0-1.9,1.2-3.1,2.6-3.1
			c0.9,0,1.5,0.4,1.8,0.9h0V0H94.6z M93.6,5.1c0-0.1,0-0.3,0-0.4C93.4,4,92.8,3.4,92,3.4c-1.1,0-1.7,1-1.7,2.2
			c0,1.2,0.6,2.1,1.7,2.1c0.7,0,1.4-0.5,1.5-1.3c0-0.1,0-0.3,0-0.5V5.1z"/>
		<path class="st0" d="M96.7,5.8c0,1.4,0.9,2,2,2c0.8,0,1.2-0.1,1.6-0.3l0.2,0.8c-0.4,0.2-1,0.4-1.9,0.4c-1.8,0-2.9-1.2-2.9-2.9
			s1-3.1,2.7-3.1c1.9,0,2.4,1.7,2.4,2.7c0,0.2,0,0.4,0,0.5H96.7z M99.8,5c0-0.7-0.3-1.7-1.5-1.7c-1.1,0-1.5,1-1.6,1.7H99.8z"/>
		<path class="st1" d="M109,0v6.9c0,0.6,0,1.2,0,1.6h-1.3l-0.1-0.9h0c-0.3,0.6-1.1,1.1-1.9,1.1c-1.4,0-2.5-1.2-2.5-3
			c0-2,1.2-3.1,2.6-3.1c0.8,0,1.4,0.3,1.6,0.8h0V0H109z M107.5,5.1c0-0.1,0-0.3,0-0.4c-0.1-0.6-0.6-1-1.3-1c-0.9,0-1.5,0.8-1.5,1.9
			c0,1.1,0.5,1.8,1.5,1.8c0.6,0,1.1-0.4,1.3-1c0-0.1,0-0.3,0-0.4V5.1z"/>
		<path class="st1" d="M111.3,6c0,1.1,0.9,1.5,1.8,1.5c0.7,0,1.2-0.1,1.6-0.3l0.2,1c-0.5,0.2-1.2,0.4-2,0.4c-1.9,0-3-1.2-3-3
			c0-1.6,1-3.1,2.9-3.1c1.9,0,2.5,1.6,2.5,2.8c0,0.3,0,0.5,0,0.6H111.3z M113.9,5c0-0.5-0.2-1.4-1.2-1.4c-0.9,0-1.3,0.8-1.4,1.4
			H113.9z"/>
		<path class="st1" d="M120.4,8.3c-0.3,0.1-0.9,0.3-1.7,0.3c-1.8,0-3-1.2-3-3c0-1.8,1.2-3.1,3.3-3.1c0.5,0,1.1,0.1,1.4,0.3l-0.3,1.1
			c-0.2-0.1-0.6-0.2-1.1-0.2c-1.1,0-1.8,0.8-1.8,1.9c0,1.2,0.8,1.9,1.8,1.9c0.5,0,0.9-0.1,1.2-0.2L120.4,8.3z"/>
		<path class="st1" d="M121.2,0h1.5v8.5h-1.5V0z"/>
		<path class="st1" d="M125.6,1c0,0.4-0.3,0.8-0.8,0.8c-0.5,0-0.8-0.3-0.8-0.8c0-0.5,0.3-0.8,0.8-0.8C125.3,0.2,125.6,0.6,125.6,1z
			 M124,8.5V2.7h1.5v5.8H124z"/>
		<path class="st1" d="M127.7,2.7l0.9,3c0.2,0.5,0.3,1,0.4,1.5h0c0.1-0.5,0.2-0.9,0.4-1.5l0.9-3h1.6l-2.2,5.8h-1.5l-2.2-5.8H127.7z"
			/>
		<path class="st1" d="M133.5,6c0,1.1,0.9,1.5,1.8,1.5c0.7,0,1.2-0.1,1.6-0.3l0.2,1c-0.5,0.2-1.2,0.4-2,0.4c-1.9,0-3-1.2-3-3
			c0-1.6,1-3.1,2.9-3.1c1.9,0,2.5,1.6,2.5,2.8c0,0.3,0,0.5,0,0.6H133.5z M136,5c0-0.5-0.2-1.4-1.2-1.4c-0.9,0-1.3,0.8-1.4,1.4H136z"
			/>
		<path class="st1" d="M144.4,8.3c-0.3,0.1-0.9,0.3-1.7,0.3c-1.8,0-3-1.2-3-3c0-1.8,1.2-3.1,3.3-3.1c0.5,0,1.1,0.1,1.4,0.3l-0.3,1.1
			c-0.2-0.1-0.6-0.2-1.1-0.2c-1.1,0-1.8,0.8-1.8,1.9c0,1.2,0.8,1.9,1.8,1.9c0.5,0,0.9-0.1,1.2-0.2L144.4,8.3z"/>
		<path class="st1" d="M150.7,5.5c0,2.1-1.5,3.1-3,3.1c-1.7,0-2.9-1.1-2.9-3c0-1.9,1.3-3.1,3-3.1C149.5,2.5,150.7,3.8,150.7,5.5z
			 M146.3,5.6c0,1.1,0.6,2,1.5,2c0.8,0,1.4-0.8,1.4-2c0-0.9-0.4-2-1.4-2C146.7,3.6,146.3,4.6,146.3,5.6z"/>
		<path class="st1" d="M156.9,2.7c0,0.4,0,0.9,0,1.7v3.3c0,1.2-0.3,2.1-0.9,2.7c-0.6,0.5-1.5,0.7-2.3,0.7c-0.7,0-1.5-0.2-2-0.5
			l0.3-1.1c0.4,0.2,1,0.4,1.7,0.4c1,0,1.7-0.5,1.7-1.8V7.6h0c-0.3,0.5-0.9,0.9-1.7,0.9c-1.5,0-2.5-1.2-2.5-2.9
			c0-1.9,1.2-3.1,2.7-3.1c0.9,0,1.4,0.4,1.7,0.9h0l0.1-0.8H156.9z M155.4,5c0-0.1,0-0.3,0-0.4c-0.2-0.5-0.6-0.9-1.2-0.9
			c-0.8,0-1.4,0.7-1.4,1.9c0,1,0.5,1.8,1.4,1.8c0.6,0,1-0.4,1.2-0.9c0-0.2,0.1-0.4,0.1-0.5V5z"/>
		<path class="st1" d="M158.1,4.4c0-0.7,0-1.2,0-1.7h1.3l0.1,0.9h0c0.3-0.5,0.9-1,1.9-1c1,0,2.1,0.7,2.1,2.5v3.5h-1.5V5.2
			c0-0.8-0.3-1.5-1.1-1.5c-0.6,0-1,0.4-1.2,0.9c0,0.1-0.1,0.3-0.1,0.5v3.4h-1.5V4.4z"/>
		<path class="st1" d="M166.2,1c0,0.4-0.3,0.8-0.8,0.8c-0.5,0-0.8-0.3-0.8-0.8c0-0.5,0.3-0.8,0.8-0.8C165.9,0.2,166.2,0.6,166.2,1z
			 M164.7,8.5V2.7h1.5v5.8H164.7z"/>
		<path class="st1" d="M169.1,1v1.7h1.4v1.1h-1.4v2.6c0,0.7,0.2,1.1,0.8,1.1c0.3,0,0.4,0,0.6-0.1l0,1.1c-0.2,0.1-0.6,0.1-1.1,0.1
			c-0.5,0-1-0.2-1.3-0.5c-0.3-0.3-0.5-0.9-0.5-1.6V3.8h-0.8V2.7h0.8V1.4L169.1,1z"/>
		<path class="st1" d="M172.9,1c0,0.4-0.3,0.8-0.8,0.8c-0.5,0-0.8-0.3-0.8-0.8c0-0.5,0.3-0.8,0.8-0.8C172.6,0.2,172.9,0.6,172.9,1z
			 M171.4,8.5V2.7h1.5v5.8H171.4z"/>
		<path class="st1" d="M175.1,2.7l0.9,3c0.2,0.5,0.3,1,0.4,1.5h0c0.1-0.5,0.2-0.9,0.4-1.5l0.9-3h1.6l-2.2,5.8h-1.5l-2.2-5.8H175.1z"
			/>
		<path class="st1" d="M185.3,5.5c0,2.1-1.5,3.1-3,3.1c-1.7,0-2.9-1.1-2.9-3c0-1.9,1.3-3.1,3-3.1C184.2,2.5,185.3,3.8,185.3,5.5z
			 M180.9,5.6c0,1.1,0.6,2,1.5,2c0.8,0,1.4-0.8,1.4-2c0-0.9-0.4-2-1.4-2C181.3,3.6,180.9,4.6,180.9,5.6z"/>
		<path class="st0" d="M193.2,0v7c0,0.5,0,1.1,0,1.5h-0.9l0-1h0c-0.3,0.6-1,1.1-2,1.1c-1.4,0-2.5-1.2-2.5-3c0-1.9,1.2-3.1,2.6-3.1
			c0.9,0,1.5,0.4,1.8,0.9h0V0H193.2z M192.1,5.1c0-0.1,0-0.3,0-0.4c-0.2-0.7-0.7-1.2-1.5-1.2c-1.1,0-1.7,1-1.7,2.2
			c0,1.2,0.6,2.1,1.7,2.1c0.7,0,1.4-0.5,1.5-1.3c0-0.1,0-0.3,0-0.5V5.1z"/>
		<path class="st0" d="M195.2,5.8c0,1.4,0.9,2,2,2c0.8,0,1.2-0.1,1.6-0.3l0.2,0.8c-0.4,0.2-1,0.4-1.9,0.4c-1.8,0-2.9-1.2-2.9-2.9
			s1-3.1,2.7-3.1c1.9,0,2.4,1.7,2.4,2.7c0,0.2,0,0.4,0,0.5H195.2z M198.3,5c0-0.7-0.3-1.7-1.5-1.7c-1.1,0-1.5,1-1.6,1.7H198.3z"/>
		<path class="st0" d="M202.2,0h1.1v8.5h-1.1V0z"/>
		<path class="st0" d="M210,5.6c0,2.1-1.5,3.1-2.9,3.1c-1.6,0-2.8-1.2-2.8-3c0-1.9,1.3-3.1,2.9-3.1C208.9,2.6,210,3.8,210,5.6z
			 M205.4,5.6c0,1.3,0.7,2.2,1.8,2.2c1,0,1.8-0.9,1.8-2.3c0-1-0.5-2.2-1.7-2.2C206,3.4,205.4,4.5,205.4,5.6z"/>
		<path class="st0" d="M210.9,7.4c0.3,0.2,0.9,0.4,1.4,0.4c0.8,0,1.1-0.4,1.1-0.9c0-0.5-0.3-0.8-1.1-1.1c-1-0.4-1.5-0.9-1.5-1.6
			c0-0.9,0.8-1.7,2-1.7c0.6,0,1.1,0.2,1.4,0.4L214,3.7c-0.2-0.1-0.6-0.3-1.2-0.3c-0.6,0-1,0.4-1,0.8c0,0.5,0.3,0.7,1.1,1
			c1,0.4,1.5,0.9,1.5,1.8c0,1-0.8,1.7-2.2,1.7c-0.6,0-1.2-0.2-1.6-0.4L210.9,7.4z"/>
		<path class="st0" d="M217.4,4.6c0-0.7,0-1.3,0-1.9h0.9l0,1h0c0.4-0.7,1.1-1.1,2.1-1.1c1.4,0,2.5,1.2,2.5,3c0,2.1-1.3,3.1-2.6,3.1
			c-0.8,0-1.4-0.3-1.8-0.9h0v3.2h-1V4.6z M218.4,6.2c0,0.2,0,0.3,0,0.4c0.2,0.7,0.8,1.2,1.6,1.2c1.1,0,1.8-0.9,1.8-2.2
			c0-1.2-0.6-2.2-1.7-2.2c-0.7,0-1.4,0.5-1.6,1.3c0,0.1-0.1,0.3-0.1,0.4V6.2z"/>
		<path class="st0" d="M227.1,8.5L227,7.8h0c-0.3,0.5-0.9,0.9-1.8,0.9c-1.2,0-1.8-0.8-1.8-1.7c0-1.4,1.2-2.2,3.5-2.2V4.7
			c0-0.5-0.1-1.3-1.3-1.3c-0.5,0-1.1,0.2-1.5,0.4l-0.2-0.7c0.5-0.3,1.2-0.5,1.9-0.5c1.8,0,2.2,1.2,2.2,2.4v2.2c0,0.5,0,1,0.1,1.4
			H227.1z M227,5.6c-1.2,0-2.5,0.2-2.5,1.3c0,0.7,0.5,1,1,1c0.8,0,1.2-0.5,1.4-1c0-0.1,0.1-0.2,0.1-0.3V5.6z"/>
		<path class="st0" d="M233.5,8.3c-0.3,0.1-0.9,0.3-1.7,0.3c-1.8,0-2.9-1.2-2.9-3c0-1.8,1.2-3.1,3.1-3.1c0.6,0,1.2,0.2,1.5,0.3
			l-0.2,0.8c-0.3-0.1-0.6-0.3-1.2-0.3c-1.3,0-2.1,1-2.1,2.2c0,1.3,0.9,2.2,2,2.2c0.6,0,1-0.2,1.3-0.3L233.5,8.3z"/>
		<path class="st0" d="M235.6,1.1c0,0.4-0.3,0.6-0.7,0.6c-0.4,0-0.6-0.3-0.6-0.6c0-0.4,0.3-0.7,0.7-0.7
			C235.4,0.4,235.6,0.7,235.6,1.1z M234.5,8.5V2.7h1.1v5.8H234.5z"/>
		<path class="st0" d="M237.6,5.8c0,1.4,0.9,2,2,2c0.8,0,1.2-0.1,1.6-0.3l0.2,0.8c-0.4,0.2-1,0.4-1.9,0.4c-1.8,0-2.9-1.2-2.9-2.9
			s1-3.1,2.7-3.1c1.9,0,2.4,1.7,2.4,2.7c0,0.2,0,0.4,0,0.5H237.6z M240.7,5c0-0.7-0.3-1.7-1.5-1.7c-1.1,0-1.5,1-1.6,1.7H240.7z"/>
		<path class="st0" d="M242.7,4.3c0-0.6,0-1.1,0-1.6h0.9l0.1,1h0c0.3-0.6,1-1.1,1.9-1.1c0.8,0,2.1,0.5,2.1,2.5v3.5h-1.1V5.2
			c0-0.9-0.3-1.7-1.3-1.7c-0.7,0-1.2,0.5-1.4,1.1c0,0.1-0.1,0.3-0.1,0.5v3.5h-1.1V4.3z"/>
		<path class="st0" d="M250.3,1v1.7h1.5v0.8h-1.5v3.1c0,0.7,0.2,1.1,0.8,1.1c0.3,0,0.5,0,0.6-0.1l0,0.8c-0.2,0.1-0.5,0.1-0.9,0.1
			c-0.5,0-0.9-0.2-1.1-0.4c-0.3-0.3-0.4-0.8-0.4-1.5V3.5h-0.9V2.7h0.9V1.3L250.3,1z"/>
		<path class="st0" d="M253.2,5.8c0,1.4,0.9,2,2,2c0.8,0,1.2-0.1,1.6-0.3l0.2,0.8c-0.4,0.2-1,0.4-1.9,0.4c-1.8,0-2.9-1.2-2.9-2.9
			s1-3.1,2.7-3.1c1.9,0,2.4,1.7,2.4,2.7c0,0.2,0,0.4,0,0.5H253.2z M256.3,5c0-0.7-0.3-1.7-1.5-1.7c-1.1,0-1.5,1-1.6,1.7H256.3z"/>
		<path class="st0" d="M258.2,7.4c0.3,0.2,0.9,0.4,1.4,0.4c0.8,0,1.1-0.4,1.1-0.9c0-0.5-0.3-0.8-1.1-1.1c-1-0.4-1.5-0.9-1.5-1.6
			c0-0.9,0.8-1.7,2-1.7c0.6,0,1.1,0.2,1.4,0.4l-0.3,0.8c-0.2-0.1-0.6-0.3-1.2-0.3c-0.6,0-1,0.4-1,0.8c0,0.5,0.3,0.7,1.1,1
			c1,0.4,1.5,0.9,1.5,1.8c0,1-0.8,1.7-2.2,1.7c-0.6,0-1.2-0.2-1.6-0.4L258.2,7.4z"/>
		<path class="st0" d="M268.6,7.6L268.6,7.6c-0.3,0.6-1,1-1.9,1c-1.4,0-2.5-1.2-2.5-2.9c0-2.2,1.4-3.1,2.6-3.1c0.9,0,1.5,0.4,1.8,1
			h0l0-0.9h1c0,0.5,0,1,0,1.6v6.6h-1.1V7.6z M268.6,5.1c0-0.1,0-0.3,0-0.4c-0.2-0.6-0.7-1.2-1.5-1.2c-1.1,0-1.8,0.9-1.8,2.2
			c0,1.2,0.6,2.2,1.7,2.2c0.7,0,1.3-0.4,1.5-1.2c0-0.1,0.1-0.3,0.1-0.5V5.1z"/>
		<path class="st0" d="M275.9,6.9c0,0.6,0,1.1,0,1.6H275L275,7.6h0c-0.3,0.5-0.9,1.1-1.9,1.1c-0.9,0-2-0.5-2-2.5V2.7h1.1v3.2
			c0,1.1,0.3,1.8,1.3,1.8c0.7,0,1.2-0.5,1.4-1c0.1-0.2,0.1-0.3,0.1-0.5V2.7h1.1V6.9z"/>
		<path class="st0" d="M278,5.8c0,1.4,0.9,2,2,2c0.8,0,1.2-0.1,1.6-0.3l0.2,0.8c-0.4,0.2-1,0.4-1.9,0.4c-1.8,0-2.9-1.2-2.9-2.9
			s1-3.1,2.7-3.1c1.9,0,2.4,1.7,2.4,2.7c0,0.2,0,0.4,0,0.5H278z M281.1,5c0-0.7-0.3-1.7-1.5-1.7c-1.1,0-1.5,1-1.6,1.7H281.1z"/>
		<path class="st0" d="M289.8,6.9c0,0.6,0,1.1,0,1.6h-0.9l-0.1-0.9h0c-0.3,0.5-0.9,1.1-1.9,1.1c-0.9,0-2-0.5-2-2.5V2.7h1.1v3.2
			c0,1.1,0.3,1.8,1.3,1.8c0.7,0,1.2-0.5,1.4-1c0.1-0.2,0.1-0.3,0.1-0.5V2.7h1.1V6.9z"/>
		<path class="st0" d="M291.1,7.4c0.3,0.2,0.9,0.4,1.4,0.4c0.8,0,1.1-0.4,1.1-0.9c0-0.5-0.3-0.8-1.1-1.1c-1-0.4-1.5-0.9-1.5-1.6
			c0-0.9,0.8-1.7,2-1.7c0.6,0,1.1,0.2,1.4,0.4l-0.3,0.8c-0.2-0.1-0.6-0.3-1.2-0.3c-0.6,0-1,0.4-1,0.8c0,0.5,0.3,0.7,1.1,1
			c1,0.4,1.5,0.9,1.5,1.8c0,1-0.8,1.7-2.2,1.7c-0.6,0-1.2-0.2-1.6-0.4L291.1,7.4z"/>
		<path class="st0" d="M298.9,8.5l-0.1-0.7h0c-0.3,0.5-0.9,0.9-1.8,0.9c-1.2,0-1.8-0.8-1.8-1.7c0-1.4,1.2-2.2,3.5-2.2V4.7
			c0-0.5-0.1-1.3-1.3-1.3c-0.5,0-1.1,0.2-1.5,0.4l-0.2-0.7c0.5-0.3,1.2-0.5,1.9-0.5c1.8,0,2.2,1.2,2.2,2.4v2.2c0,0.5,0,1,0.1,1.4
			H298.9z M298.8,5.6c-1.2,0-2.5,0.2-2.5,1.3c0,0.7,0.5,1,1,1c0.8,0,1.2-0.5,1.4-1c0-0.1,0.1-0.2,0.1-0.3V5.6z"/>
		<path class="st0" d="M301.2,4.5c0-0.7,0-1.3,0-1.8h0.9l0,1.1h0c0.3-0.8,0.9-1.3,1.6-1.3c0.1,0,0.2,0,0.3,0v1c-0.1,0-0.2,0-0.4,0
			c-0.7,0-1.3,0.6-1.4,1.4c0,0.1,0,0.3,0,0.5v3.1h-1V4.5z"/>
		<path class="st0" d="M310,5.6c0,2.1-1.5,3.1-2.9,3.1c-1.6,0-2.8-1.2-2.8-3c0-1.9,1.3-3.1,2.9-3.1C308.8,2.6,310,3.8,310,5.6z
			 M305.4,5.6c0,1.3,0.7,2.2,1.8,2.2c1,0,1.8-0.9,1.8-2.3c0-1-0.5-2.2-1.7-2.2C305.9,3.4,305.4,4.5,305.4,5.6z"/>
		<path class="st0" d="M311,4.3c0-0.6,0-1.1,0-1.6h0.9l0.1,1h0c0.3-0.6,1-1.1,1.9-1.1c0.8,0,2.1,0.5,2.1,2.5v3.5h-1.1V5.2
			c0-0.9-0.3-1.7-1.3-1.7c-0.7,0-1.2,0.5-1.4,1.1c0,0.1-0.1,0.3-0.1,0.5v3.5H311V4.3z"/>
		<path class="st0" d="M321.5,0.2c-0.9,1.2-1.5,2.7-1.5,4.9c0,2.1,0.7,3.7,1.5,4.9h-0.8c-0.8-1-1.6-2.5-1.6-4.9
			c0-2.4,0.8-3.9,1.6-4.9H321.5z"/>
		<path class="st0" d="M326.6,4.7h-3.1v2.9h3.5v0.9h-4.5V0.4h4.4v0.9h-3.3v2.6h3.1V4.7z"/>
		<path class="st0" d="M334.1,8.2c-0.5,0.2-1.4,0.4-2.5,0.4c-1.2,0-2.2-0.3-3-1.1c-0.7-0.7-1.1-1.8-1.1-3c0-2.4,1.7-4.2,4.4-4.2
			c0.9,0,1.7,0.2,2,0.4l-0.3,0.9c-0.4-0.2-1-0.3-1.8-0.3c-2,0-3.3,1.2-3.3,3.3c0,2.1,1.2,3.3,3.1,3.3c0.7,0,1.2-0.1,1.4-0.2V5.1
			h-1.6V4.3h2.7V8.2z"/>
		<path class="st0" d="M335.4,8.5c0-0.4,0-1,0-1.5V0h1v3.6h0c0.4-0.6,1-1.1,2-1.1c1.4,0,2.5,1.2,2.4,3c0,2.1-1.3,3.1-2.6,3.1
			c-0.8,0-1.5-0.3-1.9-1.1h0l0,1H335.4z M336.4,6.2c0,0.1,0,0.3,0,0.4c0.2,0.7,0.8,1.2,1.6,1.2c1.1,0,1.8-0.9,1.8-2.2
			c0-1.2-0.6-2.2-1.7-2.2c-0.7,0-1.4,0.5-1.6,1.3c0,0.1-0.1,0.3-0.1,0.4V6.2z"/>
		<path class="st0" d="M346.7,0.7v0.7l-3.4,7.1h-1.1l3.4-6.9v0h-3.8V0.7H346.7z"/>
		<path class="st0" d="M351.9,1.5c-0.2,0-0.5,0-0.8,0c-1.7,0.3-2.5,1.5-2.7,2.8h0c0.4-0.5,1-0.9,1.9-0.9c1.4,0,2.4,1,2.4,2.5
			c0,1.4-1,2.7-2.6,2.7c-1.7,0-2.8-1.3-2.8-3.3c0-1.5,0.6-2.7,1.3-3.5c0.6-0.6,1.5-1,2.5-1.2c0.3,0,0.6-0.1,0.8-0.1V1.5z M351.6,6
			c0-1.1-0.6-1.8-1.6-1.8c-0.6,0-1.2,0.4-1.5,1c-0.1,0.1-0.1,0.3-0.1,0.5c0,1.3,0.6,2.2,1.7,2.2C351,7.8,351.6,7.1,351.6,6z"/>
		<path class="st0" d="M355.6,1.7L355.6,1.7l-1.4,0.7L354,1.6l1.7-0.9h0.9v7.8h-1V1.7z"/>
		<path class="st0" d="M363.2,2.3c0,1.1-0.9,2-2,2c-1.1,0-2-0.9-2-2c0-1.1,0.9-2,2-2C362.3,0.3,363.2,1.2,363.2,2.3z M359.6,2.3
			c0,0.9,0.6,1.6,1.5,1.6c0.9,0,1.5-0.7,1.5-1.6c0-0.9-0.6-1.6-1.5-1.6S359.6,1.4,359.6,2.3z M360.8,3.3h-0.5v-2
			c0.2,0,0.4-0.1,0.8-0.1c0.4,0,0.5,0.1,0.7,0.1c0.1,0.1,0.2,0.2,0.2,0.4c0,0.2-0.2,0.4-0.4,0.5v0c0.2,0.1,0.3,0.2,0.4,0.5
			c0.1,0.3,0.1,0.4,0.1,0.5h-0.5c-0.1-0.1-0.1-0.3-0.2-0.5c0-0.2-0.2-0.3-0.4-0.3h-0.2V3.3z M360.8,2.2h0.2c0.3,0,0.5-0.1,0.5-0.3
			c0-0.2-0.1-0.3-0.4-0.3c-0.1,0-0.2,0-0.3,0V2.2z"/>
		<path class="st0" d="M363.6,10c0.9-1.2,1.5-2.7,1.5-4.9c0-2.1-0.6-3.7-1.5-4.9h0.8c0.8,1,1.6,2.5,1.6,4.9c0,2.4-0.8,3.9-1.6,4.9
			H363.6z"/>
		<path class="st0" d="M375.2,8.3c-0.3,0.1-0.9,0.3-1.7,0.3c-1.8,0-2.9-1.2-2.9-3c0-1.8,1.2-3.1,3.1-3.1c0.6,0,1.2,0.2,1.5,0.3
			L375,3.7c-0.3-0.1-0.6-0.3-1.2-0.3c-1.3,0-2.1,1-2.1,2.2c0,1.3,0.9,2.2,2,2.2c0.6,0,1-0.2,1.3-0.3L375.2,8.3z"/>
		<path class="st0" d="M381.3,5.6c0,2.1-1.5,3.1-2.9,3.1c-1.6,0-2.8-1.2-2.8-3c0-1.9,1.3-3.1,2.9-3.1C380.2,2.6,381.3,3.8,381.3,5.6
			z M376.7,5.6c0,1.3,0.7,2.2,1.8,2.2c1,0,1.8-0.9,1.8-2.3c0-1-0.5-2.2-1.7-2.2C377.3,3.4,376.7,4.5,376.7,5.6z"/>
		<path class="st0" d="M382.4,4.3c0-0.6,0-1.1,0-1.6h0.9l0.1,1h0c0.3-0.6,1-1.1,1.9-1.1c0.8,0,2.1,0.5,2.1,2.5v3.5h-1.1V5.2
			c0-0.9-0.3-1.7-1.3-1.7c-0.7,0-1.2,0.5-1.4,1.1c0,0.1-0.1,0.3-0.1,0.5v3.5h-1.1V4.3z"/>
		<path class="st0" d="M390.6,0h1.1v8.5h-1.1V0z"/>
		<path class="st0" d="M396.3,8.5l-0.1-0.7h0c-0.3,0.5-0.9,0.9-1.8,0.9c-1.2,0-1.8-0.8-1.8-1.7c0-1.4,1.2-2.2,3.5-2.2V4.7
			c0-0.5-0.1-1.3-1.3-1.3c-0.5,0-1.1,0.2-1.5,0.4l-0.2-0.7c0.5-0.3,1.2-0.5,1.9-0.5c1.8,0,2.2,1.2,2.2,2.4v2.2c0,0.5,0,1,0.1,1.4
			H396.3z M396.2,5.6c-1.2,0-2.5,0.2-2.5,1.3c0,0.7,0.5,1,1,1c0.8,0,1.2-0.5,1.4-1c0-0.1,0.1-0.2,0.1-0.3V5.6z"/>
		<path class="st0" d="M405.5,0v7c0,0.5,0,1.1,0,1.5h-0.9l0-1h0c-0.3,0.6-1,1.1-2,1.1c-1.4,0-2.5-1.2-2.5-3c0-1.9,1.2-3.1,2.6-3.1
			c0.9,0,1.5,0.4,1.8,0.9h0V0H405.5z M404.4,5.1c0-0.1,0-0.3,0-0.4c-0.2-0.7-0.7-1.2-1.5-1.2c-1.1,0-1.7,1-1.7,2.2
			c0,1.2,0.6,2.1,1.7,2.1c0.7,0,1.4-0.5,1.5-1.3c0-0.1,0-0.3,0-0.5V5.1z"/>
		<path class="st0" d="M407.5,5.8c0,1.4,0.9,2,2,2c0.8,0,1.2-0.1,1.6-0.3l0.2,0.8c-0.4,0.2-1,0.4-1.9,0.4c-1.8,0-2.9-1.2-2.9-2.9
			s1-3.1,2.7-3.1c1.9,0,2.4,1.7,2.4,2.7c0,0.2,0,0.4,0,0.5H407.5z M410.6,5c0-0.7-0.3-1.7-1.5-1.7c-1.1,0-1.5,1-1.6,1.7H410.6z"/>
		<path class="st0" d="M3.7,25.8l-0.1-0.7h0C3.2,25.6,2.6,26,1.8,26C0.6,26,0,25.1,0,24.3c0-1.4,1.2-2.2,3.5-2.2V22
			c0-0.5-0.1-1.3-1.3-1.3c-0.5,0-1.1,0.2-1.5,0.4l-0.2-0.7c0.5-0.3,1.2-0.5,1.9-0.5c1.8,0,2.2,1.2,2.2,2.4v2.2c0,0.5,0,1,0.1,1.4
			H3.7z M3.5,22.9c-1.2,0-2.5,0.2-2.5,1.3c0,0.7,0.5,1,1,1c0.8,0,1.2-0.5,1.4-1c0-0.1,0.1-0.2,0.1-0.3V22.9z"/>
		<path class="st0" d="M9.9,24.9L9.9,24.9c-0.3,0.6-1,1-1.9,1c-1.4,0-2.5-1.2-2.5-2.9c0-2.2,1.4-3.1,2.6-3.1c0.9,0,1.5,0.4,1.8,1h0
			l0-0.9h1c0,0.5,0,1,0,1.6v6.6H9.9V24.9z M9.9,22.4c0-0.1,0-0.3,0-0.4c-0.2-0.6-0.7-1.2-1.5-1.2c-1.1,0-1.8,0.9-1.8,2.2
			c0,1.2,0.6,2.2,1.7,2.2c0.7,0,1.3-0.4,1.5-1.2c0-0.1,0.1-0.3,0.1-0.5V22.4z"/>
		<path class="st0" d="M17.3,24.3c0,0.6,0,1.1,0,1.6h-0.9l-0.1-0.9h0C16,25.4,15.4,26,14.4,26c-0.9,0-2-0.5-2-2.5V20h1.1v3.2
			c0,1.1,0.3,1.8,1.3,1.8c0.7,0,1.2-0.5,1.4-1c0.1-0.2,0.1-0.3,0.1-0.5V20h1.1V24.3z"/>
		<path class="st0" d="M19.3,23.1c0,1.4,0.9,2,2,2c0.8,0,1.2-0.1,1.6-0.3l0.2,0.8c-0.4,0.2-1,0.4-1.9,0.4c-1.8,0-2.9-1.2-2.9-2.9
			s1-3.1,2.7-3.1c1.9,0,2.4,1.7,2.4,2.7c0,0.2,0,0.4,0,0.5H19.3z M22.4,22.4c0-0.7-0.3-1.7-1.5-1.7c-1.1,0-1.5,1-1.6,1.7H22.4z"/>
		<path class="st0" d="M24.4,17.3h1.1v8.5h-1.1V17.3z"/>
		<path class="st0" d="M27,17.3H28v8.5H27V17.3z"/>
		<path class="st0" d="M34.7,22.9c0,2.1-1.5,3.1-2.9,3.1c-1.6,0-2.8-1.2-2.8-3c0-1.9,1.3-3.1,2.9-3.1C33.6,19.9,34.7,21.1,34.7,22.9
			z M30.1,22.9c0,1.3,0.7,2.2,1.8,2.2c1,0,1.8-0.9,1.8-2.3c0-1-0.5-2.2-1.7-2.2C30.7,20.7,30.1,21.8,30.1,22.9z"/>
		<path class="st0" d="M35.6,24.8c0.3,0.2,0.9,0.4,1.4,0.4c0.8,0,1.1-0.4,1.1-0.9c0-0.5-0.3-0.8-1.1-1.1c-1-0.4-1.5-0.9-1.5-1.6
			c0-0.9,0.8-1.7,2-1.7c0.6,0,1.1,0.2,1.4,0.4L38.7,21c-0.2-0.1-0.6-0.3-1.2-0.3c-0.6,0-1,0.4-1,0.8c0,0.5,0.3,0.7,1.1,1
			c1,0.4,1.5,0.9,1.5,1.8c0,1-0.8,1.7-2.2,1.7c-0.6,0-1.2-0.2-1.6-0.4L35.6,24.8z"/>
		<path class="st0" d="M51.5,24.9L51.5,24.9c-0.3,0.6-1,1-1.9,1c-1.4,0-2.5-1.2-2.5-2.9c0-2.2,1.4-3.1,2.6-3.1c0.9,0,1.5,0.4,1.8,1
			h0l0-0.9h1c0,0.5,0,1,0,1.6v6.6h-1.1V24.9z M51.5,22.4c0-0.1,0-0.3,0-0.4c-0.2-0.6-0.7-1.2-1.5-1.2c-1.1,0-1.8,0.9-1.8,2.2
			c0,1.2,0.6,2.2,1.7,2.2c0.7,0,1.3-0.4,1.5-1.2c0-0.1,0.1-0.3,0.1-0.5V22.4z"/>
		<path class="st0" d="M59.2,24.3c0,0.6,0,1.1,0,1.6h-0.9l-0.1-0.9h0c-0.3,0.5-0.9,1.1-1.9,1.1c-0.9,0-2-0.5-2-2.5V20h1.1v3.2
			c0,1.1,0.3,1.8,1.3,1.8c0.7,0,1.2-0.5,1.4-1c0.1-0.2,0.1-0.3,0.1-0.5V20h1.1V24.3z"/>
		<path class="st0" d="M61.5,23.1c0,1.4,0.9,2,2,2c0.8,0,1.2-0.1,1.6-0.3l0.2,0.8c-0.4,0.2-1,0.4-1.9,0.4c-1.8,0-2.9-1.2-2.9-2.9
			s1-3.1,2.7-3.1c1.9,0,2.4,1.7,2.4,2.7c0,0.2,0,0.4,0,0.5H61.5z M64.6,22.4c0-0.7-0.3-1.7-1.5-1.7c-1.1,0-1.5,1-1.6,1.7H64.6z"/>
		<path class="st0" d="M79.2,24.3c0,0.6,0,1.1,0,1.6h-0.9l-0.1-0.9h0c-0.3,0.5-0.9,1.1-1.9,1.1c-0.9,0-2-0.5-2-2.5V20h1.1v3.2
			c0,1.1,0.3,1.8,1.3,1.8c0.7,0,1.2-0.5,1.4-1c0.1-0.2,0.1-0.3,0.1-0.5V20h1.1V24.3z"/>
		<path class="st0" d="M80.8,24.8c0.3,0.2,0.9,0.4,1.4,0.4c0.8,0,1.1-0.4,1.1-0.9c0-0.5-0.3-0.8-1.1-1.1c-1-0.4-1.5-0.9-1.5-1.6
			c0-0.9,0.8-1.7,2-1.7c0.6,0,1.1,0.2,1.4,0.4L83.8,21c-0.2-0.1-0.6-0.3-1.2-0.3c-0.6,0-1,0.4-1,0.8c0,0.5,0.3,0.7,1.1,1
			c1,0.4,1.5,0.9,1.5,1.8c0,1-0.8,1.7-2.2,1.7c-0.6,0-1.2-0.2-1.6-0.4L80.8,24.8z"/>
		<path class="st0" d="M88.9,25.8l-0.1-0.7h0C88.4,25.6,87.8,26,87,26c-1.2,0-1.8-0.8-1.8-1.7c0-1.4,1.2-2.2,3.5-2.2V22
			c0-0.5-0.1-1.3-1.3-1.3c-0.5,0-1.1,0.2-1.5,0.4l-0.2-0.7c0.5-0.3,1.2-0.5,1.9-0.5c1.8,0,2.2,1.2,2.2,2.4v2.2c0,0.5,0,1,0.1,1.4
			H88.9z M88.7,22.9c-1.2,0-2.5,0.2-2.5,1.3c0,0.7,0.5,1,1,1c0.8,0,1.2-0.5,1.4-1c0-0.1,0.1-0.2,0.1-0.3V22.9z"/>
		<path class="st0" d="M91.5,21.8c0-0.7,0-1.3,0-1.8h0.9l0,1.1h0c0.3-0.8,0.9-1.3,1.6-1.3c0.1,0,0.2,0,0.3,0v1c-0.1,0-0.2,0-0.4,0
			c-0.7,0-1.3,0.6-1.4,1.4c0,0.1,0,0.3,0,0.5v3.1h-1V21.8z"/>
		<path class="st0" d="M100.5,22.9c0,2.1-1.5,3.1-2.9,3.1c-1.6,0-2.8-1.2-2.8-3c0-1.9,1.3-3.1,2.9-3.1
			C99.4,19.9,100.5,21.1,100.5,22.9z M95.9,22.9c0,1.3,0.7,2.2,1.8,2.2c1,0,1.8-0.9,1.8-2.3c0-1-0.5-2.2-1.7-2.2
			C96.4,20.7,95.9,21.8,95.9,22.9z"/>
		<path class="st0" d="M101.8,21.6c0-0.6,0-1.1,0-1.6h0.9l0.1,1h0c0.3-0.6,1-1.1,1.9-1.1c0.8,0,2.1,0.5,2.1,2.5v3.5h-1.1v-3.3
			c0-0.9-0.3-1.7-1.3-1.7c-0.7,0-1.2,0.5-1.4,1.1c0,0.1-0.1,0.3-0.1,0.5v3.5h-1.1V21.6z"/>
		<path class="st1" d="M115.8,17.9c0.5-0.1,1.3-0.2,2.3-0.2c1.1,0,1.9,0.2,2.4,0.7c0.5,0.4,0.8,1,0.8,1.8c0,0.8-0.2,1.4-0.7,1.8
			c-0.6,0.6-1.5,0.9-2.6,0.9c-0.3,0-0.5,0-0.7,0v3h-1.5V17.9z M117.3,21.6c0.2,0,0.4,0.1,0.7,0.1c1.1,0,1.8-0.5,1.8-1.5
			c0-0.9-0.6-1.4-1.6-1.4c-0.4,0-0.7,0-0.9,0.1V21.6z"/>
		<path class="st1" d="M123.6,18.4c0,0.4-0.3,0.8-0.8,0.8c-0.5,0-0.8-0.3-0.8-0.8c0-0.5,0.3-0.8,0.8-0.8
			C123.3,17.6,123.6,17.9,123.6,18.4z M122,25.8V20h1.5v5.8H122z"/>
		<path class="st1" d="M124.8,21.9c0-0.8,0-1.4,0-1.9h1.3l0,1.1h0c0.3-0.8,1-1.2,1.6-1.2c0.1,0,0.2,0,0.3,0v1.4c-0.1,0-0.3,0-0.4,0
			c-0.7,0-1.2,0.5-1.3,1.1c0,0.1,0,0.3,0,0.5v3h-1.5V21.9z"/>
		<path class="st1" d="M132,25.8l-0.1-0.6h0c-0.4,0.5-1,0.8-1.7,0.8c-1.2,0-1.8-0.9-1.8-1.7c0-1.5,1.3-2.2,3.5-2.2v-0.1
			c0-0.4-0.2-1-1.2-1c-0.6,0-1.2,0.2-1.6,0.4l-0.3-1c0.4-0.3,1.2-0.5,2.1-0.5c1.9,0,2.4,1.2,2.4,2.5v2.1c0,0.5,0,1,0.1,1.4H132z
			 M131.8,23c-1,0-2,0.2-2,1.1c0,0.6,0.4,0.8,0.8,0.8c0.6,0,1-0.4,1.2-0.8c0-0.1,0-0.2,0-0.3V23z"/>
		<path class="st1" d="M138.8,25.7c-0.3,0.1-0.9,0.3-1.7,0.3c-1.8,0-3-1.2-3-3c0-1.8,1.2-3.1,3.3-3.1c0.5,0,1.1,0.1,1.4,0.3
			l-0.3,1.1c-0.2-0.1-0.6-0.2-1.1-0.2c-1.1,0-1.8,0.8-1.8,1.9c0,1.2,0.8,1.9,1.8,1.9c0.5,0,0.9-0.1,1.2-0.2L138.8,25.7z"/>
		<path class="st1" d="M140.5,23.3c0,1.1,0.9,1.5,1.8,1.5c0.7,0,1.2-0.1,1.6-0.3l0.2,1c-0.5,0.2-1.2,0.4-2,0.4c-1.9,0-3-1.2-3-3
			c0-1.6,1-3.1,2.9-3.1c1.9,0,2.5,1.6,2.5,2.8c0,0.3,0,0.5,0,0.6H140.5z M143.1,22.3c0-0.5-0.2-1.4-1.2-1.4c-0.9,0-1.3,0.8-1.4,1.4
			H143.1z"/>
		<path class="st1" d="M147,18.3V20h1.4v1.1H147v2.6c0,0.7,0.2,1.1,0.8,1.1c0.3,0,0.4,0,0.6-0.1l0,1.1c-0.2,0.1-0.6,0.1-1.1,0.1
			c-0.5,0-1-0.2-1.3-0.5c-0.3-0.3-0.5-0.9-0.5-1.6v-2.7h-0.8V20h0.8v-1.3L147,18.3z"/>
		<path class="st1" d="M152.5,25.8l-0.1-0.6h0c-0.4,0.5-1,0.8-1.7,0.8c-1.2,0-1.8-0.9-1.8-1.7c0-1.5,1.3-2.2,3.5-2.2v-0.1
			c0-0.4-0.2-1-1.2-1c-0.6,0-1.2,0.2-1.6,0.4l-0.3-1c0.4-0.3,1.2-0.5,2.1-0.5c1.9,0,2.4,1.2,2.4,2.5v2.1c0,0.5,0,1,0.1,1.4H152.5z
			 M152.3,23c-1,0-2,0.2-2,1.1c0,0.6,0.4,0.8,0.8,0.8c0.6,0,1-0.4,1.2-0.8c0-0.1,0-0.2,0-0.3V23z"/>
		<path class="st1" d="M155,21.7c0-0.7,0-1.2,0-1.7h1.3l0.1,0.9h0c0.3-0.5,0.8-1,1.8-1c0.8,0,1.4,0.4,1.6,1.1h0
			c0.2-0.3,0.4-0.6,0.7-0.7c0.3-0.2,0.7-0.3,1.2-0.3c1,0,2,0.7,2,2.5v3.4h-1.4v-3.2c0-1-0.3-1.5-1-1.5c-0.5,0-0.9,0.4-1,0.8
			c0,0.1-0.1,0.3-0.1,0.5v3.5h-1.4v-3.4c0-0.8-0.3-1.4-1-1.4c-0.6,0-0.9,0.4-1.1,0.8c-0.1,0.1-0.1,0.3-0.1,0.5v3.5H155V21.7z"/>
		<path class="st0" d="M172.7,20l1.3,3.4c0.1,0.4,0.3,0.8,0.4,1.2h0c0.1-0.3,0.2-0.8,0.4-1.2l1.2-3.4h1.1l-1.6,4.1
			c-0.8,2-1.3,3-2,3.6c-0.5,0.5-1,0.6-1.3,0.7l-0.3-0.9c0.3-0.1,0.6-0.3,0.9-0.5c0.3-0.2,0.6-0.6,0.9-1.2c0-0.1,0.1-0.2,0.1-0.3
			c0-0.1,0-0.1-0.1-0.3l-2.1-5.3H172.7z"/>
		<path class="st0" d="M185.4,17.3h1.1v8.5h-1.1V17.3z"/>
		<path class="st0" d="M191.4,25.8l-0.1-0.7h0c-0.3,0.5-0.9,0.9-1.8,0.9c-1.2,0-1.8-0.8-1.8-1.7c0-1.4,1.2-2.2,3.5-2.2V22
			c0-0.5-0.1-1.3-1.3-1.3c-0.5,0-1.1,0.2-1.5,0.4l-0.2-0.7c0.5-0.3,1.2-0.5,1.9-0.5c1.8,0,2.2,1.2,2.2,2.4v2.2c0,0.5,0,1,0.1,1.4
			H191.4z M191.2,22.9c-1.2,0-2.5,0.2-2.5,1.3c0,0.7,0.5,1,1,1c0.8,0,1.2-0.5,1.4-1c0-0.1,0.1-0.2,0.1-0.3V22.9z"/>
		<path class="st0" d="M206.3,17.3v7c0,0.5,0,1.1,0,1.5h-0.9l0-1h0c-0.3,0.6-1,1.1-2,1.1c-1.4,0-2.5-1.2-2.5-3
			c0-1.9,1.2-3.1,2.6-3.1c0.9,0,1.5,0.4,1.8,0.9h0v-3.5H206.3z M205.3,22.4c0-0.1,0-0.3,0-0.4c-0.2-0.7-0.7-1.2-1.5-1.2
			c-1.1,0-1.7,1-1.7,2.2c0,1.2,0.6,2.1,1.7,2.1c0.7,0,1.4-0.5,1.5-1.3c0-0.1,0-0.3,0-0.5V22.4z"/>
		<path class="st0" d="M209.3,18.4c0,0.4-0.3,0.6-0.7,0.6c-0.4,0-0.6-0.3-0.6-0.6c0-0.4,0.3-0.7,0.7-0.7
			C209,17.7,209.3,18,209.3,18.4z M208.1,25.8V20h1.1v5.8H208.1z"/>
		<path class="st0" d="M211,25.8v-5h-0.8V20h0.8v-0.3c0-0.8,0.2-1.6,0.7-2c0.4-0.4,0.9-0.5,1.4-0.5c0.4,0,0.7,0.1,0.9,0.2l-0.1,0.8
			c-0.2-0.1-0.4-0.1-0.7-0.1c-0.9,0-1.1,0.8-1.1,1.7V20h1.4v0.8h-1.4v5H211z"/>
		<path class="st0" d="M214.8,23.1c0,1.4,0.9,2,2,2c0.8,0,1.2-0.1,1.6-0.3l0.2,0.8c-0.4,0.2-1,0.4-1.9,0.4c-1.8,0-2.9-1.2-2.9-2.9
			s1-3.1,2.7-3.1c1.9,0,2.4,1.7,2.4,2.7c0,0.2,0,0.4,0,0.5H214.8z M217.9,22.4c0-0.7-0.3-1.7-1.5-1.7c-1.1,0-1.5,1-1.6,1.7H217.9z"
			/>
		<path class="st0" d="M220.3,21.8c0-0.7,0-1.3,0-1.8h0.9l0,1.1h0c0.3-0.8,0.9-1.3,1.6-1.3c0.1,0,0.2,0,0.3,0v1c-0.1,0-0.2,0-0.4,0
			c-0.7,0-1.3,0.6-1.4,1.4c0,0.1,0,0.3,0,0.5v3.1h-1V21.8z"/>
		<path class="st0" d="M224.7,23.1c0,1.4,0.9,2,2,2c0.8,0,1.2-0.1,1.6-0.3l0.2,0.8c-0.4,0.2-1,0.4-1.9,0.4c-1.8,0-2.9-1.2-2.9-2.9
			s1-3.1,2.7-3.1c1.9,0,2.4,1.7,2.4,2.7c0,0.2,0,0.4,0,0.5H224.7z M227.7,22.4c0-0.7-0.3-1.7-1.5-1.7c-1.1,0-1.5,1-1.6,1.7H227.7z"
			/>
		<path class="st0" d="M230.1,21.6c0-0.6,0-1.1,0-1.6h0.9l0.1,1h0c0.3-0.6,1-1.1,1.9-1.1c0.8,0,2.1,0.5,2.1,2.5v3.5H234v-3.3
			c0-0.9-0.3-1.7-1.3-1.7c-0.7,0-1.2,0.5-1.4,1.1c0,0.1-0.1,0.3-0.1,0.5v3.5h-1.1V21.6z"/>
		<path class="st0" d="M240.9,25.6c-0.3,0.1-0.9,0.3-1.7,0.3c-1.8,0-2.9-1.2-2.9-3c0-1.8,1.2-3.1,3.1-3.1c0.6,0,1.2,0.2,1.5,0.3
			l-0.2,0.8c-0.3-0.1-0.6-0.3-1.2-0.3c-1.3,0-2.1,1-2.1,2.2c0,1.3,0.9,2.2,2,2.2c0.6,0,1-0.2,1.3-0.3L240.9,25.6z"/>
		<path class="st0" d="M243.3,18.4c0,0.4-0.3,0.6-0.7,0.6c-0.4,0-0.6-0.3-0.6-0.6c0-0.4,0.3-0.7,0.7-0.7
			C243,17.7,243.3,18,243.3,18.4z M242.1,25.8V20h1.1v5.8H242.1z"/>
		<path class="st0" d="M248.1,25.8l-0.1-0.7h0c-0.3,0.5-0.9,0.9-1.8,0.9c-1.2,0-1.8-0.8-1.8-1.7c0-1.4,1.2-2.2,3.5-2.2V22
			c0-0.5-0.1-1.3-1.3-1.3c-0.5,0-1.1,0.2-1.5,0.4l-0.2-0.7c0.5-0.3,1.2-0.5,1.9-0.5c1.8,0,2.2,1.2,2.2,2.4v2.2c0,0.5,0,1,0.1,1.4
			H248.1z M248,22.9c-1.2,0-2.5,0.2-2.5,1.3c0,0.7,0.5,1,1,1c0.8,0,1.2-0.5,1.4-1c0-0.1,0.1-0.2,0.1-0.3V22.9z"/>
		<path class="st0" d="M258.2,25.8v-5h-0.8V20h0.8v-0.3c0-1.5,0.9-2.5,2.5-2.5c0.5,0,1.2,0.2,1.5,0.4l-0.3,0.8
			c-0.3-0.2-0.7-0.3-1.2-0.3c-1.1,0-1.4,0.8-1.4,1.7V20h3.4v5.8h-1v-5h-2.3v5H258.2z"/>
		<path class="st0" d="M264.3,21.6c0-0.6,0-1.1,0-1.6h0.9l0.1,1h0c0.3-0.6,1-1.1,1.9-1.1c0.8,0,2.1,0.5,2.1,2.5v3.5h-1.1v-3.3
			c0-0.9-0.3-1.7-1.3-1.7c-0.7,0-1.2,0.5-1.4,1.1c0,0.1-0.1,0.3-0.1,0.5v3.5h-1.1V21.6z"/>
		<path class="st0" d="M274.2,25.8l-0.1-0.7h0c-0.3,0.5-0.9,0.9-1.8,0.9c-1.2,0-1.8-0.8-1.8-1.7c0-1.4,1.2-2.2,3.5-2.2V22
			c0-0.5-0.1-1.3-1.3-1.3c-0.5,0-1.1,0.2-1.5,0.4l-0.2-0.7c0.5-0.3,1.2-0.5,1.9-0.5c1.8,0,2.2,1.2,2.2,2.4v2.2c0,0.5,0,1,0.1,1.4
			H274.2z M274,22.9c-1.2,0-2.5,0.2-2.5,1.3c0,0.7,0.5,1,1,1c0.8,0,1.2-0.5,1.4-1c0-0.1,0.1-0.2,0.1-0.3V22.9z"/>
		<path class="st0" d="M276.8,17.3h1.1v8.5h-1.1V17.3z"/>
		<path class="st0" d="M287.1,25.8v-5h-0.8V20h0.8v-0.3c0-0.8,0.2-1.6,0.7-2c0.4-0.4,0.9-0.5,1.4-0.5c0.4,0,0.7,0.1,0.9,0.2
			l-0.1,0.8c-0.2-0.1-0.4-0.1-0.7-0.1c-0.9,0-1.1,0.8-1.1,1.7V20h1.4v0.8h-1.4v5H287.1z"/>
		<path class="st0" d="M295.3,24.3c0,0.6,0,1.1,0,1.6h-0.9l-0.1-0.9h0c-0.3,0.5-0.9,1.1-1.9,1.1c-0.9,0-2-0.5-2-2.5V20h1.1v3.2
			c0,1.1,0.3,1.8,1.3,1.8c0.7,0,1.2-0.5,1.4-1c0.1-0.2,0.1-0.3,0.1-0.5V20h1.1V24.3z"/>
		<path class="st0" d="M297.7,23.1c0,1.4,0.9,2,2,2c0.8,0,1.2-0.1,1.6-0.3l0.2,0.8c-0.4,0.2-1,0.4-1.9,0.4c-1.8,0-2.9-1.2-2.9-2.9
			s1-3.1,2.7-3.1c1.9,0,2.4,1.7,2.4,2.7c0,0.2,0,0.4,0,0.5H297.7z M300.8,22.4c0-0.7-0.3-1.7-1.5-1.7c-1.1,0-1.5,1-1.6,1.7H300.8z"
			/>
		<path class="st0" d="M315.4,17.3v7c0,0.5,0,1.1,0,1.5h-0.9l0-1h0c-0.3,0.6-1,1.1-2,1.1c-1.4,0-2.5-1.2-2.5-3
			c0-1.9,1.2-3.1,2.6-3.1c0.9,0,1.5,0.4,1.8,0.9h0v-3.5H315.4z M314.4,22.4c0-0.1,0-0.3,0-0.4c-0.2-0.7-0.7-1.2-1.5-1.2
			c-1.1,0-1.7,1-1.7,2.2c0,1.2,0.6,2.1,1.7,2.1c0.7,0,1.4-0.5,1.5-1.3c0-0.1,0-0.3,0-0.5V22.4z"/>
		<path class="st0" d="M317.8,23.1c0,1.4,0.9,2,2,2c0.8,0,1.2-0.1,1.6-0.3l0.2,0.8c-0.4,0.2-1,0.4-1.9,0.4c-1.8,0-2.9-1.2-2.9-2.9
			s1-3.1,2.7-3.1c1.9,0,2.4,1.7,2.4,2.7c0,0.2,0,0.4,0,0.5H317.8z M320.9,22.4c0-0.7-0.3-1.7-1.5-1.7c-1.1,0-1.5,1-1.6,1.7H320.9z"
			/>
		<path class="st1" d="M335.2,19.3h-3l-0.2,1.6c0.2,0,0.3,0,0.6,0c0.7,0,1.4,0.2,1.9,0.5c0.6,0.4,1,1,1,2c0,1.5-1.2,2.7-3.2,2.7
			c-0.9,0-1.7-0.2-2.1-0.5l0.3-1.1c0.3,0.2,1,0.4,1.7,0.4c0.9,0,1.7-0.5,1.7-1.4c0-0.9-0.7-1.5-2.2-1.5c-0.4,0-0.8,0-1.1,0.1
			l0.5-3.9h4V19.3z"/>
		<path class="st1" d="M342.9,21.9c0-0.8,0-1.4,0-1.9h1.3l0.1,0.9h0c0.4-0.7,1.1-1,2-1c1.3,0,2.5,1.2,2.5,3c0,2.1-1.3,3.1-2.7,3.1
			c-0.7,0-1.3-0.3-1.6-0.8h0v3h-1.5V21.9z M344.4,23.4c0,0.1,0,0.3,0,0.4c0.1,0.6,0.7,1,1.3,1c0.9,0,1.5-0.8,1.5-1.9
			c0-1-0.5-1.9-1.5-1.9c-0.6,0-1.2,0.4-1.3,1.1c0,0.1-0.1,0.3-0.1,0.4V23.4z"/>
		<path class="st1" d="M354.9,24.1c0,0.7,0,1.3,0,1.8h-1.3l-0.1-0.9h0c-0.3,0.4-0.8,1-1.9,1c-1.1,0-2-0.6-2-2.5V20h1.5v3.2
			c0,1,0.3,1.6,1.1,1.6c0.6,0,1-0.4,1.1-0.8c0-0.1,0.1-0.3,0.1-0.5V20h1.5V24.1z"/>
		<path class="st1" d="M356.2,21.7c0-0.7,0-1.2,0-1.7h1.3l0.1,0.9h0c0.3-0.5,0.9-1,1.9-1c1,0,2.1,0.7,2.1,2.5v3.5H360v-3.3
			c0-0.8-0.3-1.5-1.1-1.5c-0.6,0-1,0.4-1.2,0.9c0,0.1-0.1,0.3-0.1,0.5v3.4h-1.5V21.7z"/>
		<path class="st1" d="M364.4,18.3V20h1.4v1.1h-1.4v2.6c0,0.7,0.2,1.1,0.8,1.1c0.3,0,0.4,0,0.6-0.1l0,1.1c-0.2,0.1-0.6,0.1-1.1,0.1
			c-0.5,0-1-0.2-1.3-0.5c-0.3-0.3-0.5-0.9-0.5-1.6v-2.7h-0.8V20h0.8v-1.3L364.4,18.3z"/>
		<path class="st1" d="M372.1,22.9c0,2.1-1.5,3.1-3,3.1c-1.7,0-2.9-1.1-2.9-3c0-1.9,1.3-3.1,3-3.1C370.9,19.9,372.1,21.1,372.1,22.9
			z M367.7,22.9c0,1.1,0.6,2,1.5,2c0.8,0,1.4-0.8,1.4-2c0-0.9-0.4-2-1.4-2C368.1,20.9,367.7,21.9,367.7,22.9z"/>
		<path class="st1" d="M372.9,24.5c0.3,0.2,1,0.4,1.5,0.4c0.6,0,0.9-0.3,0.9-0.6c0-0.4-0.2-0.6-1-0.9c-1.1-0.4-1.6-1-1.6-1.7
			c0-1,0.9-1.8,2.2-1.8c0.6,0,1.2,0.2,1.5,0.3l-0.3,1c-0.3-0.1-0.7-0.3-1.2-0.3c-0.5,0-0.8,0.3-0.8,0.6c0,0.4,0.3,0.6,1,0.8
			c1.1,0.4,1.5,0.9,1.6,1.8c0,1.1-0.8,1.8-2.4,1.8c-0.7,0-1.3-0.2-1.8-0.4L372.9,24.5z"/>
		<path class="st0" d="M384.7,23.1c0,1.4,0.9,2,2,2c0.8,0,1.2-0.1,1.6-0.3l0.2,0.8c-0.4,0.2-1,0.4-1.9,0.4c-1.8,0-2.9-1.2-2.9-2.9
			s1-3.1,2.7-3.1c1.9,0,2.4,1.7,2.4,2.7c0,0.2,0,0.4,0,0.5H384.7z M387.8,22.4c0-0.7-0.3-1.7-1.5-1.7c-1.1,0-1.5,1-1.6,1.7H387.8z"
			/>
		<path class="st0" d="M390.1,21.6c0-0.6,0-1.1,0-1.6h0.9l0.1,1h0c0.3-0.6,1-1.1,1.9-1.1c0.8,0,2.1,0.5,2.1,2.5v3.5H394v-3.3
			c0-0.9-0.3-1.7-1.3-1.7c-0.7,0-1.2,0.5-1.4,1.1c0,0.1-0.1,0.3-0.1,0.5v3.5h-1.1V21.6z"/>
		<path class="st0" d="M404.7,23.1c0,1.4,0.9,2,2,2c0.8,0,1.2-0.1,1.6-0.3l0.2,0.8c-0.4,0.2-1,0.4-1.9,0.4c-1.8,0-2.9-1.2-2.9-2.9
			s1-3.1,2.7-3.1c1.9,0,2.4,1.7,2.4,2.7c0,0.2,0,0.4,0,0.5H404.7z M407.8,22.4c0-0.7-0.3-1.7-1.5-1.7c-1.1,0-1.5,1-1.6,1.7H407.8z"
			/>
		<path class="st0" d="M410.1,17.3h1.1v8.5h-1.1V17.3z"/>
		<path class="st0" d="M7.3,39.6c-0.1-1.1-0.1-2.5-0.1-3.5h0c-0.3,0.9-0.6,2-1,3.1l-1.4,3.9H3.9l-1.3-3.8c-0.4-1.1-0.7-2.2-0.9-3.1
			h0c0,1-0.1,2.4-0.2,3.6l-0.2,3.5h-1l0.6-8.1h1.3L3.5,39c0.3,1,0.6,1.9,0.8,2.7h0C4.6,40.9,4.9,40,5.3,39l1.4-3.9H8l0.5,8.1h-1
			L7.3,39.6z"/>
		<path class="st0" d="M11.4,35.7c0,0.4-0.3,0.6-0.7,0.6c-0.4,0-0.6-0.3-0.6-0.6c0-0.4,0.3-0.7,0.7-0.7
			C11.2,35.1,11.4,35.3,11.4,35.7z M10.2,43.2v-5.8h1.1v5.8H10.2z"/>
		<path class="st0" d="M13.1,38.9c0-0.6,0-1.1,0-1.6h0.9l0.1,1h0c0.3-0.6,1-1.1,1.9-1.1c0.8,0,2.1,0.5,2.1,2.5v3.5h-1.1v-3.3
			c0-0.9-0.3-1.7-1.3-1.7c-0.7,0-1.2,0.5-1.4,1.1c0,0.1-0.1,0.3-0.1,0.5v3.5h-1.1V38.9z"/>
		<path class="st0" d="M20.9,35.7c0,0.4-0.3,0.6-0.7,0.6c-0.4,0-0.6-0.3-0.6-0.6c0-0.4,0.3-0.7,0.7-0.7
			C20.6,35.1,20.9,35.3,20.9,35.7z M19.7,43.2v-5.8h1.1v5.8H19.7z"/>
		<path class="st0" d="M25,39.5v0.8h-3v-0.8H25z"/>
		<path class="st0" d="M30.4,39.4h-3.1v2.9h3.5v0.9h-4.5v-8.1h4.4v0.9h-3.3v2.6h3.1V39.4z"/>
		<path class="st0" d="M32.6,37.3l0.8,1.2c0.2,0.3,0.4,0.6,0.6,0.9h0c0.2-0.3,0.4-0.6,0.6-1l0.8-1.2h1.1l-2,2.8l2,3h-1.2l-0.9-1.3
			c-0.2-0.3-0.4-0.7-0.6-1h0c-0.2,0.3-0.4,0.7-0.6,1l-0.8,1.3h-1.2l2.1-3l-2-2.8H32.6z"/>
		<path class="st0" d="M40.9,43.2l-0.1-0.7h0c-0.3,0.5-0.9,0.9-1.8,0.9c-1.2,0-1.8-0.8-1.8-1.7c0-1.4,1.2-2.2,3.5-2.2v-0.1
			c0-0.5-0.1-1.3-1.3-1.3c-0.5,0-1.1,0.2-1.5,0.4l-0.2-0.7c0.5-0.3,1.2-0.5,1.9-0.5c1.8,0,2.2,1.2,2.2,2.4v2.2c0,0.5,0,1,0.1,1.4
			H40.9z M40.7,40.2c-1.2,0-2.5,0.2-2.5,1.3c0,0.7,0.5,1,1,1c0.8,0,1.2-0.5,1.4-1c0-0.1,0.1-0.2,0.1-0.3V40.2z"/>
		<path class="st0" d="M43.5,38.9c0-0.6,0-1.1,0-1.6h0.9l0,0.9h0c0.3-0.6,0.9-1.1,1.8-1.1c0.8,0,1.4,0.5,1.6,1.2h0
			c0.2-0.3,0.4-0.6,0.6-0.8c0.3-0.3,0.7-0.4,1.3-0.4c0.8,0,1.9,0.5,1.9,2.5v3.4h-1v-3.3c0-1.1-0.4-1.8-1.3-1.8c-0.6,0-1.1,0.4-1.2,1
			c0,0.1-0.1,0.3-0.1,0.5v3.6h-1v-3.5c0-0.9-0.4-1.6-1.2-1.6c-0.7,0-1.1,0.5-1.3,1.1c-0.1,0.2-0.1,0.3-0.1,0.5v3.5h-1V38.9z"/>
		<path class="st0" d="M54,40.4c0,1.4,0.9,2,2,2c0.8,0,1.2-0.1,1.6-0.3l0.2,0.8c-0.4,0.2-1,0.4-1.9,0.4c-1.8,0-2.9-1.2-2.9-2.9
			s1-3.1,2.7-3.1c1.9,0,2.4,1.7,2.4,2.7c0,0.2,0,0.4,0,0.5H54z M57.1,39.7c0-0.7-0.3-1.7-1.5-1.7c-1.1,0-1.5,1-1.6,1.7H57.1z"/>
		<path class="st0" d="M59.5,38.9c0-0.6,0-1.1,0-1.6h0.9l0.1,1h0c0.3-0.6,1-1.1,1.9-1.1c0.8,0,2.1,0.5,2.1,2.5v3.5h-1.1v-3.3
			c0-0.9-0.3-1.7-1.3-1.7c-0.7,0-1.2,0.5-1.4,1.1c0,0.1-0.1,0.3-0.1,0.5v3.5h-1.1V38.9z"/>
		<path class="st0" d="M74.1,42.9c-0.4,0.2-1.2,0.4-2.1,0.4c-2.3,0-4-1.4-4-4.1c0-2.5,1.7-4.2,4.2-4.2c1,0,1.6,0.2,1.9,0.4l-0.3,0.9
			c-0.4-0.2-1-0.3-1.6-0.3c-1.9,0-3.2,1.2-3.2,3.3c0,2,1.1,3.3,3.1,3.3c0.6,0,1.3-0.1,1.7-0.3L74.1,42.9z"/>
		<path class="st0" d="M80.5,40.2c0,2.1-1.5,3.1-2.9,3.1c-1.6,0-2.8-1.2-2.8-3c0-1.9,1.3-3.1,2.9-3.1C79.3,37.2,80.5,38.4,80.5,40.2
			z M75.9,40.3c0,1.3,0.7,2.2,1.8,2.2c1,0,1.8-0.9,1.8-2.3c0-1-0.5-2.2-1.7-2.2C76.4,38,75.9,39.2,75.9,40.3z"/>
		<path class="st0" d="M86.8,37.3c0,0.4,0,0.9,0,1.6v3.4c0,1.3-0.3,2.1-0.8,2.7c-0.6,0.5-1.4,0.7-2.1,0.7c-0.7,0-1.5-0.2-1.9-0.5
			l0.3-0.8c0.4,0.2,1,0.5,1.7,0.5c1.1,0,1.9-0.6,1.9-2v-0.6h0c-0.3,0.5-0.9,1-1.8,1c-1.4,0-2.5-1.2-2.5-2.8c0-2,1.3-3.1,2.6-3.1
			c1,0,1.6,0.5,1.8,1h0l0-0.9H86.8z M85.7,39.6c0-0.2,0-0.3-0.1-0.5c-0.2-0.6-0.7-1.1-1.5-1.1c-1,0-1.7,0.9-1.7,2.2
			c0,1.1,0.6,2.1,1.7,2.1c0.6,0,1.2-0.4,1.5-1.1c0.1-0.2,0.1-0.4,0.1-0.6V39.6z"/>
		<path class="st0" d="M88.4,38.9c0-0.6,0-1.1,0-1.6h0.9l0.1,1h0c0.3-0.6,1-1.1,1.9-1.1c0.8,0,2.1,0.5,2.1,2.5v3.5h-1.1v-3.3
			c0-0.9-0.3-1.7-1.3-1.7c-0.7,0-1.2,0.5-1.4,1.1c0,0.1-0.1,0.3-0.1,0.5v3.5h-1.1V38.9z"/>
		<path class="st0" d="M100.4,40.2c0,2.1-1.5,3.1-2.9,3.1c-1.6,0-2.8-1.2-2.8-3c0-1.9,1.3-3.1,2.9-3.1
			C99.2,37.2,100.4,38.4,100.4,40.2z M95.7,40.3c0,1.3,0.7,2.2,1.8,2.2c1,0,1.8-0.9,1.8-2.3c0-1-0.5-2.2-1.7-2.2
			C96.3,38,95.7,39.2,95.7,40.3z"/>
		<path class="st0" d="M101.5,42.1c0.3,0.2,0.9,0.4,1.4,0.4c0.8,0,1.1-0.4,1.1-0.9c0-0.5-0.3-0.8-1.1-1.1c-1-0.4-1.5-0.9-1.5-1.6
			c0-0.9,0.8-1.7,2-1.7c0.6,0,1.1,0.2,1.4,0.4l-0.3,0.8c-0.2-0.1-0.6-0.3-1.2-0.3c-0.6,0-1,0.4-1,0.8c0,0.5,0.3,0.7,1.1,1
			c1,0.4,1.5,0.9,1.5,1.8c0,1-0.8,1.7-2.2,1.7c-0.6,0-1.2-0.2-1.6-0.4L101.5,42.1z"/>
		<path class="st0" d="M110.6,42.9c-0.3,0.1-0.9,0.3-1.7,0.3c-1.8,0-2.9-1.2-2.9-3c0-1.8,1.2-3.1,3.1-3.1c0.6,0,1.2,0.2,1.5,0.3
			l-0.2,0.8c-0.3-0.1-0.6-0.3-1.2-0.3c-1.3,0-2.1,1-2.1,2.2c0,1.3,0.9,2.2,2,2.2c0.6,0,1-0.2,1.3-0.3L110.6,42.9z"/>
		<path class="st0" d="M113,35.7c0,0.4-0.3,0.6-0.7,0.6c-0.4,0-0.6-0.3-0.6-0.6c0-0.4,0.3-0.7,0.7-0.7C112.7,35.1,113,35.3,113,35.7
			z M111.8,43.2v-5.8h1.1v5.8H111.8z"/>
		<path class="st0" d="M115.9,35.7v1.7h1.5v0.8h-1.5v3.1c0,0.7,0.2,1.1,0.8,1.1c0.3,0,0.5,0,0.6-0.1l0,0.8c-0.2,0.1-0.5,0.1-0.9,0.1
			c-0.5,0-0.9-0.2-1.1-0.4c-0.3-0.3-0.4-0.8-0.4-1.5v-3.2H114v-0.8h0.9V36L115.9,35.7z"/>
		<path class="st0" d="M119.8,35.7c0,0.4-0.3,0.6-0.7,0.6c-0.4,0-0.6-0.3-0.6-0.6c0-0.4,0.3-0.7,0.7-0.7
			C119.5,35.1,119.8,35.3,119.8,35.7z M118.6,43.2v-5.8h1.1v5.8H118.6z"/>
		<path class="st0" d="M121.8,37.3l1.1,3.3c0.2,0.5,0.3,1,0.5,1.5h0c0.1-0.5,0.3-1,0.5-1.5l1.1-3.3h1.1l-2.3,5.8h-1l-2.2-5.8H121.8z
			"/>
		<path class="st0" d="M132.3,40.2c0,2.1-1.5,3.1-2.9,3.1c-1.6,0-2.8-1.2-2.8-3c0-1.9,1.3-3.1,2.9-3.1
			C131.2,37.2,132.3,38.4,132.3,40.2z M127.7,40.3c0,1.3,0.7,2.2,1.8,2.2c1,0,1.8-0.9,1.8-2.3c0-1-0.5-2.2-1.7-2.2
			C128.2,38,127.7,39.2,127.7,40.3z"/>
		<path class="st0" d="M138.2,34.8c-0.9,1.2-1.5,2.7-1.5,4.9c0,2.1,0.7,3.7,1.5,4.9h-0.8c-0.8-1-1.6-2.5-1.6-4.9
			c0-2.4,0.8-3.9,1.6-4.9H138.2z"/>
		<path class="st0" d="M146.2,39.6c-0.1-1.1-0.1-2.5-0.1-3.5h0c-0.3,0.9-0.6,2-1,3.1l-1.4,3.9h-0.8l-1.3-3.8
			c-0.4-1.1-0.7-2.2-0.9-3.1h0c0,1-0.1,2.4-0.2,3.6l-0.2,3.5h-1l0.6-8.1h1.3l1.4,3.9c0.3,1,0.6,1.9,0.8,2.7h0
			c0.2-0.8,0.5-1.7,0.9-2.7l1.4-3.9h1.3l0.5,8.1h-1L146.2,39.6z"/>
		<path class="st0" d="M153.2,39.4H150v2.9h3.5v0.9H149v-8.1h4.4v0.9H150v2.6h3.1V39.4z"/>
		<path class="st0" d="M160.5,42.9c-0.4,0.2-1.2,0.4-2.1,0.4c-2.3,0-4-1.4-4-4.1c0-2.5,1.7-4.2,4.2-4.2c1,0,1.6,0.2,1.9,0.4
			l-0.3,0.9c-0.4-0.2-1-0.3-1.6-0.3c-1.9,0-3.2,1.2-3.2,3.3c0,2,1.1,3.3,3.1,3.3c0.6,0,1.3-0.1,1.7-0.3L160.5,42.9z"/>
		<path class="st0" d="M161.4,44.6c0.9-1.2,1.5-2.7,1.5-4.9c0-2.1-0.6-3.7-1.5-4.9h0.8c0.8,1,1.6,2.5,1.6,4.9c0,2.4-0.8,3.9-1.6,4.9
			H161.4z"/>
		<path class="st0" d="M172.7,34.6v7c0,0.5,0,1.1,0,1.5h-0.9l0-1h0c-0.3,0.6-1,1.1-2,1.1c-1.4,0-2.5-1.2-2.5-3
			c0-1.9,1.2-3.1,2.6-3.1c0.9,0,1.5,0.4,1.8,0.9h0v-3.5H172.7z M171.7,39.7c0-0.1,0-0.3,0-0.4c-0.2-0.7-0.7-1.2-1.5-1.2
			c-1.1,0-1.7,1-1.7,2.2c0,1.2,0.6,2.1,1.7,2.1c0.7,0,1.4-0.5,1.5-1.3c0-0.1,0-0.3,0-0.5V39.7z"/>
		<path class="st0" d="M175,40.4c0,1.4,0.9,2,2,2c0.8,0,1.2-0.1,1.6-0.3l0.2,0.8c-0.4,0.2-1,0.4-1.9,0.4c-1.8,0-2.9-1.2-2.9-2.9
			s1-3.1,2.7-3.1c1.9,0,2.4,1.7,2.4,2.7c0,0.2,0,0.4,0,0.5H175z M178.1,39.7c0-0.7-0.3-1.7-1.5-1.7c-1.1,0-1.5,1-1.6,1.7H178.1z"/>
		<path class="st0" d="M180.5,34.6h1.1v8.5h-1.1V34.6z"/>
		<path class="st0" d="M186.2,40.4c0,1.4,0.9,2,2,2c0.8,0,1.2-0.1,1.6-0.3l0.2,0.8c-0.4,0.2-1,0.4-1.9,0.4c-1.8,0-2.9-1.2-2.9-2.9
			s1-3.1,2.7-3.1c1.9,0,2.4,1.7,2.4,2.7c0,0.2,0,0.4,0,0.5H186.2z M189.2,39.7c0-0.7-0.3-1.7-1.5-1.7c-1.1,0-1.5,1-1.6,1.7H189.2z"
			/>
		<path class="st0" d="M191.4,42.1c0.3,0.2,0.9,0.4,1.4,0.4c0.8,0,1.1-0.4,1.1-0.9c0-0.5-0.3-0.8-1.1-1.1c-1-0.4-1.5-0.9-1.5-1.6
			c0-0.9,0.8-1.7,2-1.7c0.6,0,1.1,0.2,1.4,0.4l-0.3,0.8c-0.2-0.1-0.6-0.3-1.2-0.3c-0.6,0-1,0.4-1,0.8c0,0.5,0.3,0.7,1.1,1
			c1,0.4,1.5,0.9,1.5,1.8c0,1-0.8,1.7-2.2,1.7c-0.6,0-1.2-0.2-1.6-0.4L191.4,42.1z"/>
		<path class="st0" d="M197.6,35.7v1.7h1.5v0.8h-1.5v3.1c0,0.7,0.2,1.1,0.8,1.1c0.3,0,0.5,0,0.6-0.1l0,0.8c-0.2,0.1-0.5,0.1-0.9,0.1
			c-0.5,0-0.9-0.2-1.1-0.4c-0.3-0.3-0.4-0.8-0.4-1.5v-3.2h-0.9v-0.8h0.9V36L197.6,35.7z"/>
		<path class="st0" d="M205.2,41.6c0,0.6,0,1.1,0,1.6h-0.9l-0.1-0.9h0c-0.3,0.5-0.9,1.1-1.9,1.1c-0.9,0-2-0.5-2-2.5v-3.4h1.1v3.2
			c0,1.1,0.3,1.8,1.3,1.8c0.7,0,1.2-0.5,1.4-1c0.1-0.2,0.1-0.3,0.1-0.5v-3.6h1.1V41.6z"/>
		<path class="st0" d="M211.9,34.6v7c0,0.5,0,1.1,0,1.5H211l0-1h0c-0.3,0.6-1,1.1-2,1.1c-1.4,0-2.5-1.2-2.5-3c0-1.9,1.2-3.1,2.6-3.1
			c0.9,0,1.5,0.4,1.8,0.9h0v-3.5H211.9z M210.9,39.7c0-0.1,0-0.3,0-0.4c-0.2-0.7-0.7-1.2-1.5-1.2c-1.1,0-1.7,1-1.7,2.2
			c0,1.2,0.6,2.1,1.7,2.1c0.7,0,1.4-0.5,1.5-1.3c0-0.1,0-0.3,0-0.5V39.7z"/>
		<path class="st0" d="M214.9,35.7c0,0.4-0.3,0.6-0.7,0.6c-0.4,0-0.6-0.3-0.6-0.6c0-0.4,0.3-0.7,0.7-0.7
			C214.6,35.1,214.9,35.3,214.9,35.7z M213.7,43.2v-5.8h1.1v5.8H213.7z"/>
		<path class="st0" d="M221.7,40.2c0,2.1-1.5,3.1-2.9,3.1c-1.6,0-2.8-1.2-2.8-3c0-1.9,1.3-3.1,2.9-3.1
			C220.6,37.2,221.7,38.4,221.7,40.2z M217.1,40.3c0,1.3,0.7,2.2,1.8,2.2c1,0,1.8-0.9,1.8-2.3c0-1-0.5-2.2-1.7-2.2
			C217.7,38,217.1,39.2,217.1,40.3z"/>
		<path class="st0" d="M225.3,38.9c0-0.6,0-1.1,0-1.6h0.9l0,0.9h0c0.3-0.6,0.9-1.1,1.8-1.1c0.8,0,1.4,0.5,1.6,1.2h0
			c0.2-0.3,0.4-0.6,0.6-0.8c0.3-0.3,0.7-0.4,1.3-0.4c0.8,0,1.9,0.5,1.9,2.5v3.4h-1v-3.3c0-1.1-0.4-1.8-1.3-1.8c-0.6,0-1.1,0.4-1.2,1
			c0,0.1-0.1,0.3-0.1,0.5v3.6h-1v-3.5c0-0.9-0.4-1.6-1.2-1.6c-0.7,0-1.1,0.5-1.3,1.1c-0.1,0.2-0.1,0.3-0.1,0.5v3.5h-1V38.9z"/>
		<path class="st0" d="M235.9,40.4c0,1.4,0.9,2,2,2c0.8,0,1.2-0.1,1.6-0.3l0.2,0.8c-0.4,0.2-1,0.4-1.9,0.4c-1.8,0-2.9-1.2-2.9-2.9
			s1-3.1,2.7-3.1c1.9,0,2.4,1.7,2.4,2.7c0,0.2,0,0.4,0,0.5H235.9z M239,39.7c0-0.7-0.3-1.7-1.5-1.7c-1.1,0-1.5,1-1.6,1.7H239z"/>
		<path class="st0" d="M241.4,38.9c0-0.6,0-1.1,0-1.6h0.9l0.1,1h0c0.3-0.6,1-1.1,1.9-1.1c0.8,0,2.1,0.5,2.1,2.5v3.5h-1.1v-3.3
			c0-0.9-0.3-1.7-1.3-1.7c-0.7,0-1.2,0.5-1.4,1.1c0,0.1-0.1,0.3-0.1,0.5v3.5h-1.1V38.9z"/>
		<path class="st0" d="M249.2,35.7v1.7h1.5v0.8h-1.5v3.1c0,0.7,0.2,1.1,0.8,1.1c0.3,0,0.5,0,0.6-0.1l0,0.8c-0.2,0.1-0.5,0.1-0.9,0.1
			c-0.5,0-0.9-0.2-1.1-0.4c-0.3-0.3-0.4-0.8-0.4-1.5v-3.2h-0.9v-0.8h0.9V36L249.2,35.7z"/>
		<path class="st0" d="M255.2,43.2l-0.1-0.7h0c-0.3,0.5-0.9,0.9-1.8,0.9c-1.2,0-1.8-0.8-1.8-1.7c0-1.4,1.2-2.2,3.5-2.2v-0.1
			c0-0.5-0.1-1.3-1.3-1.3c-0.5,0-1.1,0.2-1.5,0.4l-0.2-0.7c0.5-0.3,1.2-0.5,1.9-0.5c1.8,0,2.2,1.2,2.2,2.4v2.2c0,0.5,0,1,0.1,1.4
			H255.2z M255,40.2c-1.2,0-2.5,0.2-2.5,1.3c0,0.7,0.5,1,1,1c0.8,0,1.2-0.5,1.4-1c0-0.1,0.1-0.2,0.1-0.3V40.2z"/>
		<path class="st0" d="M257.7,34.6h1.1v8.5h-1.1V34.6z"/>
		<path class="st0" d="M263.4,40.4c0,1.4,0.9,2,2,2c0.8,0,1.2-0.1,1.6-0.3l0.2,0.8c-0.4,0.2-1,0.4-1.9,0.4c-1.8,0-2.9-1.2-2.9-2.9
			s1-3.1,2.7-3.1c1.9,0,2.4,1.7,2.4,2.7c0,0.2,0,0.4,0,0.5H263.4z M266.5,39.7c0-0.7-0.3-1.7-1.5-1.7c-1.1,0-1.5,1-1.6,1.7H266.5z"
			/>
		<path class="st0" d="M268.8,38.9c0-0.6,0-1.1,0-1.6h0.9l0.1,1h0c0.3-0.6,1-1.1,1.9-1.1c0.8,0,2.1,0.5,2.1,2.5v3.5h-1.1v-3.3
			c0-0.9-0.3-1.7-1.3-1.7c-0.7,0-1.2,0.5-1.4,1.1c0,0.1-0.1,0.3-0.1,0.5v3.5h-1.1V38.9z"/>
		<path class="st0" d="M282.6,41.6c0,0.6,0,1.1,0,1.6h-0.9l-0.1-0.9h0c-0.3,0.5-0.9,1.1-1.9,1.1c-0.9,0-2-0.5-2-2.5v-3.4h1.1v3.2
			c0,1.1,0.3,1.8,1.3,1.8c0.7,0,1.2-0.5,1.4-1c0.1-0.2,0.1-0.3,0.1-0.5v-3.6h1.1V41.6z"/>
		<path class="st0" d="M284.4,38.9c0-0.6,0-1.1,0-1.6h0.9l0.1,1h0c0.3-0.6,1-1.1,1.9-1.1c0.8,0,2.1,0.5,2.1,2.5v3.5h-1.1v-3.3
			c0-0.9-0.3-1.7-1.3-1.7c-0.7,0-1.2,0.5-1.4,1.1c0,0.1-0.1,0.3-0.1,0.5v3.5h-1.1V38.9z"/>
		<path class="st0" d="M293.3,39.2c0-0.7,0-1.3,0-1.9h0.9l0,1h0c0.4-0.7,1.1-1.1,2.1-1.1c1.4,0,2.5,1.2,2.5,3c0,2.1-1.3,3.1-2.6,3.1
			c-0.8,0-1.4-0.3-1.8-0.9h0v3.2h-1V39.2z M294.3,40.8c0,0.2,0,0.3,0,0.4c0.2,0.7,0.8,1.2,1.6,1.2c1.1,0,1.8-0.9,1.8-2.2
			c0-1.2-0.6-2.2-1.7-2.2c-0.7,0-1.4,0.5-1.6,1.3c0,0.1-0.1,0.3-0.1,0.4V40.8z"/>
		<path class="st0" d="M300.7,40.4c0,1.4,0.9,2,2,2c0.8,0,1.2-0.1,1.6-0.3l0.2,0.8c-0.4,0.2-1,0.4-1.9,0.4c-1.8,0-2.9-1.2-2.9-2.9
			s1-3.1,2.7-3.1c1.9,0,2.4,1.7,2.4,2.7c0,0.2,0,0.4,0,0.5H300.7z M303.8,39.7c0-0.7-0.3-1.7-1.5-1.7c-1.1,0-1.5,1-1.6,1.7H303.8z"
			/>
		<path class="st0" d="M306.1,39.2c0-0.7,0-1.3,0-1.8h0.9l0,1.1h0c0.3-0.8,0.9-1.3,1.6-1.3c0.1,0,0.2,0,0.3,0v1c-0.1,0-0.2,0-0.4,0
			c-0.7,0-1.3,0.6-1.4,1.4c0,0.1,0,0.3,0,0.5v3.1h-1V39.2z"/>
		<path class="st0" d="M311.3,35.7c0,0.4-0.3,0.6-0.7,0.6c-0.4,0-0.6-0.3-0.6-0.6c0-0.4,0.3-0.7,0.7-0.7
			C311,35.1,311.3,35.3,311.3,35.7z M310.1,43.2v-5.8h1.1v5.8H310.1z"/>
		<path class="st0" d="M318.1,40.2c0,2.1-1.5,3.1-2.9,3.1c-1.6,0-2.8-1.2-2.8-3c0-1.9,1.3-3.1,2.9-3.1
			C317,37.2,318.1,38.4,318.1,40.2z M313.5,40.3c0,1.3,0.7,2.2,1.8,2.2c1,0,1.8-0.9,1.8-2.3c0-1-0.5-2.2-1.7-2.2
			C314.1,38,313.5,39.2,313.5,40.3z"/>
		<path class="st0" d="M324.5,34.6v7c0,0.5,0,1.1,0,1.5h-0.9l0-1h0c-0.3,0.6-1,1.1-2,1.1c-1.4,0-2.5-1.2-2.5-3
			c0-1.9,1.2-3.1,2.6-3.1c0.9,0,1.5,0.4,1.8,0.9h0v-3.5H324.5z M323.4,39.7c0-0.1,0-0.3,0-0.4c-0.2-0.7-0.7-1.2-1.5-1.2
			c-1.1,0-1.7,1-1.7,2.2c0,1.2,0.6,2.1,1.7,2.1c0.7,0,1.4-0.5,1.5-1.3c0-0.1,0-0.3,0-0.5V39.7z"/>
		<path class="st0" d="M331.5,40.2c0,2.1-1.5,3.1-2.9,3.1c-1.6,0-2.8-1.2-2.8-3c0-1.9,1.3-3.1,2.9-3.1
			C330.4,37.2,331.5,38.4,331.5,40.2z M326.9,40.3c0,1.3,0.7,2.2,1.8,2.2c1,0,1.8-0.9,1.8-2.3c0-1-0.5-2.2-1.7-2.2
			C327.4,38,326.9,39.2,326.9,40.3z"/>
		<path class="st0" d="M340.1,34.6v7c0,0.5,0,1.1,0,1.5h-0.9l0-1h0c-0.3,0.6-1,1.1-2,1.1c-1.4,0-2.5-1.2-2.5-3
			c0-1.9,1.2-3.1,2.6-3.1c0.9,0,1.5,0.4,1.8,0.9h0v-3.5H340.1z M339,39.7c0-0.1,0-0.3,0-0.4c-0.2-0.7-0.7-1.2-1.5-1.2
			c-1.1,0-1.7,1-1.7,2.2c0,1.2,0.6,2.1,1.7,2.1c0.7,0,1.4-0.5,1.5-1.3c0-0.1,0-0.3,0-0.5V39.7z"/>
		<path class="st0" d="M342.4,40.4c0,1.4,0.9,2,2,2c0.8,0,1.2-0.1,1.6-0.3l0.2,0.8c-0.4,0.2-1,0.4-1.9,0.4c-1.8,0-2.9-1.2-2.9-2.9
			s1-3.1,2.7-3.1c1.9,0,2.4,1.7,2.4,2.7c0,0.2,0,0.4,0,0.5H342.4z M345.5,39.7c0-0.7-0.3-1.7-1.5-1.7c-1.1,0-1.5,1-1.6,1.7H345.5z"
			/>
		<path class="st0" d="M350,42.1c0.3,0.2,0.9,0.4,1.4,0.4c0.8,0,1.1-0.4,1.1-0.9c0-0.5-0.3-0.8-1.1-1.1c-1-0.4-1.5-0.9-1.5-1.6
			c0-0.9,0.8-1.7,2-1.7c0.6,0,1.1,0.2,1.4,0.4l-0.3,0.8c-0.2-0.1-0.6-0.3-1.2-0.3c-0.6,0-1,0.4-1,0.8c0,0.5,0.3,0.7,1.1,1
			c1,0.4,1.5,0.9,1.5,1.8c0,1-0.8,1.7-2.2,1.7c-0.6,0-1.2-0.2-1.6-0.4L350,42.1z"/>
		<path class="st0" d="M355.5,40.4c0,1.4,0.9,2,2,2c0.8,0,1.2-0.1,1.6-0.3l0.2,0.8c-0.4,0.2-1,0.4-1.9,0.4c-1.8,0-2.9-1.2-2.9-2.9
			s1-3.1,2.7-3.1c1.9,0,2.4,1.7,2.4,2.7c0,0.2,0,0.4,0,0.5H355.5z M358.6,39.7c0-0.7-0.3-1.7-1.5-1.7c-1.1,0-1.5,1-1.6,1.7H358.6z"
			/>
		<path class="st0" d="M365.9,37.3c0,0.4,0,0.9,0,1.6v3.4c0,1.3-0.3,2.1-0.8,2.7c-0.6,0.5-1.4,0.7-2.1,0.7c-0.7,0-1.5-0.2-1.9-0.5
			l0.3-0.8c0.4,0.2,1,0.5,1.7,0.5c1.1,0,1.9-0.6,1.9-2v-0.6h0c-0.3,0.5-0.9,1-1.8,1c-1.4,0-2.5-1.2-2.5-2.8c0-2,1.3-3.1,2.6-3.1
			c1,0,1.6,0.5,1.8,1h0l0-0.9H365.9z M364.8,39.6c0-0.2,0-0.3-0.1-0.5c-0.2-0.6-0.7-1.1-1.5-1.1c-1,0-1.7,0.9-1.7,2.2
			c0,1.1,0.6,2.1,1.7,2.1c0.6,0,1.2-0.4,1.5-1.1c0.1-0.2,0.1-0.4,0.1-0.6V39.6z"/>
		<path class="st0" d="M372.5,41.6c0,0.6,0,1.1,0,1.6h-0.9l-0.1-0.9h0c-0.3,0.5-0.9,1.1-1.9,1.1c-0.9,0-2-0.5-2-2.5v-3.4h1.1v3.2
			c0,1.1,0.3,1.8,1.3,1.8c0.7,0,1.2-0.5,1.4-1c0.1-0.2,0.1-0.3,0.1-0.5v-3.6h1.1V41.6z"/>
		<path class="st0" d="M375.4,35.7c0,0.4-0.3,0.6-0.7,0.6c-0.4,0-0.6-0.3-0.6-0.6c0-0.4,0.3-0.7,0.7-0.7
			C375.1,35.1,375.4,35.3,375.4,35.7z M374.2,43.2v-5.8h1.1v5.8H374.2z"/>
		<path class="st0" d="M377,38.9c0-0.6,0-1.1,0-1.6h0.9l0,0.9h0c0.3-0.6,0.9-1.1,1.8-1.1c0.8,0,1.4,0.5,1.6,1.2h0
			c0.2-0.3,0.4-0.6,0.6-0.8c0.3-0.3,0.7-0.4,1.3-0.4c0.8,0,1.9,0.5,1.9,2.5v3.4h-1v-3.3c0-1.1-0.4-1.8-1.3-1.8c-0.6,0-1.1,0.4-1.2,1
			c0,0.1-0.1,0.3-0.1,0.5v3.6h-1v-3.5c0-0.9-0.4-1.6-1.2-1.6c-0.7,0-1.1,0.5-1.3,1.1c-0.1,0.2-0.1,0.3-0.1,0.5v3.5h-1V38.9z"/>
		<path class="st0" d="M388.2,35.7c0,0.4-0.3,0.6-0.7,0.6c-0.4,0-0.6-0.3-0.6-0.6c0-0.4,0.3-0.7,0.7-0.7
			C388,35.1,388.2,35.3,388.2,35.7z M387,43.2v-5.8h1.1v5.8H387z"/>
		<path class="st0" d="M390.4,40.4c0,1.4,0.9,2,2,2c0.8,0,1.2-0.1,1.6-0.3l0.2,0.8c-0.4,0.2-1,0.4-1.9,0.4c-1.8,0-2.9-1.2-2.9-2.9
			s1-3.1,2.7-3.1c1.9,0,2.4,1.7,2.4,2.7c0,0.2,0,0.4,0,0.5H390.4z M393.5,39.7c0-0.7-0.3-1.7-1.5-1.7c-1.1,0-1.5,1-1.6,1.7H393.5z"
			/>
		<path class="st0" d="M395.8,38.9c0-0.6,0-1.1,0-1.6h0.9l0.1,1h0c0.3-0.6,1-1.1,1.9-1.1c0.8,0,2.1,0.5,2.1,2.5v3.5h-1.1v-3.3
			c0-0.9-0.3-1.7-1.3-1.7c-0.7,0-1.2,0.5-1.4,1.1c0,0.1-0.1,0.3-0.1,0.5v3.5h-1.1V38.9z"/>
		<path class="st0" d="M403.7,35.7v1.7h1.5v0.8h-1.5v3.1c0,0.7,0.2,1.1,0.8,1.1c0.3,0,0.5,0,0.6-0.1l0,0.8c-0.2,0.1-0.5,0.1-0.9,0.1
			c-0.5,0-0.9-0.2-1.1-0.4c-0.3-0.3-0.4-0.8-0.4-1.5v-3.2h-0.9v-0.8h0.9V36L403.7,35.7z"/>
		<path class="st0" d="M411.6,40.2c0,2.1-1.5,3.1-2.9,3.1c-1.6,0-2.8-1.2-2.8-3c0-1.9,1.3-3.1,2.9-3.1
			C410.5,37.2,411.6,38.4,411.6,40.2z M407,40.3c0,1.3,0.7,2.2,1.8,2.2c1,0,1.8-0.9,1.8-2.3c0-1-0.5-2.2-1.7-2.2
			C407.5,38,407,39.2,407,40.3z"/>
		<path class="st0" d="M5.5,52v7c0,0.5,0,1.1,0,1.5H4.6l0-1h0c-0.3,0.6-1,1.1-2,1.1c-1.4,0-2.5-1.2-2.5-3c0-1.9,1.2-3.1,2.6-3.1
			c0.9,0,1.5,0.4,1.8,0.9h0V52H5.5z M4.4,57c0-0.1,0-0.3,0-0.4c-0.2-0.7-0.7-1.2-1.5-1.2c-1.1,0-1.7,1-1.7,2.2
			c0,1.2,0.6,2.1,1.7,2.1c0.7,0,1.4-0.5,1.5-1.3c0-0.1,0-0.3,0-0.5V57z"/>
		<path class="st0" d="M7.8,57.8c0,1.4,0.9,2,2,2c0.8,0,1.2-0.1,1.6-0.3l0.2,0.8c-0.4,0.2-1,0.4-1.9,0.4c-1.8,0-2.9-1.2-2.9-2.9
			s1-3.1,2.7-3.1c1.9,0,2.4,1.7,2.4,2.7c0,0.2,0,0.4,0,0.5H7.8z M10.9,57c0-0.7-0.3-1.7-1.5-1.7c-1.1,0-1.5,1-1.6,1.7H10.9z"/>
		<path class="st0" d="M16.2,54.7l1.1,3.3c0.2,0.5,0.3,1,0.5,1.5h0c0.1-0.5,0.3-1,0.5-1.5l1.1-3.3h1.1l-2.3,5.8h-1l-2.2-5.8H16.2z"
			/>
		<path class="st0" d="M22,57.8c0,1.4,0.9,2,2,2c0.8,0,1.2-0.1,1.6-0.3l0.2,0.8c-0.4,0.2-1,0.4-1.9,0.4c-1.8,0-2.9-1.2-2.9-2.9
			s1-3.1,2.7-3.1c1.9,0,2.4,1.7,2.4,2.7c0,0.2,0,0.4,0,0.5H22z M25.1,57c0-0.7-0.3-1.7-1.5-1.7c-1.1,0-1.5,1-1.6,1.7H25.1z"/>
		<path class="st0" d="M28.6,53c0,0.4-0.3,0.6-0.7,0.6c-0.4,0-0.6-0.3-0.6-0.6c0-0.4,0.3-0.7,0.7-0.7C28.4,52.4,28.6,52.7,28.6,53z
			 M27.4,60.5v-5.8h1.1v5.8H27.4z"/>
		<path class="st0" d="M30.3,56.2c0-0.6,0-1.1,0-1.6h0.9l0.1,1h0c0.3-0.6,1-1.1,1.9-1.1c0.8,0,2.1,0.5,2.1,2.5v3.5h-1.1v-3.3
			c0-0.9-0.3-1.7-1.3-1.7c-0.7,0-1.2,0.5-1.4,1.1c0,0.1-0.1,0.3-0.1,0.5v3.5h-1.1V56.2z"/>
		<path class="st0" d="M38.1,53v1.7h1.5v0.8h-1.5v3.1c0,0.7,0.2,1.1,0.8,1.1c0.3,0,0.5,0,0.6-0.1l0,0.8c-0.2,0.1-0.5,0.1-0.9,0.1
			c-0.5,0-0.9-0.2-1.1-0.4c-0.3-0.3-0.4-0.8-0.4-1.5v-3.2h-0.9v-0.8h0.9v-1.4L38.1,53z"/>
		<path class="st0" d="M41.4,57.8c0,1.4,0.9,2,2,2c0.8,0,1.2-0.1,1.6-0.3l0.2,0.8c-0.4,0.2-1,0.4-1.9,0.4c-1.8,0-2.9-1.2-2.9-2.9
			s1-3.1,2.7-3.1c1.9,0,2.4,1.7,2.4,2.7c0,0.2,0,0.4,0,0.5H41.4z M44.4,57c0-0.7-0.3-1.7-1.5-1.7c-1.1,0-1.5,1-1.6,1.7H44.4z"/>
		<path class="st0" d="M52.5,60.5l-0.1-0.7h0c-0.3,0.5-0.9,0.9-1.8,0.9c-1.2,0-1.8-0.8-1.8-1.7c0-1.4,1.2-2.2,3.5-2.2v-0.1
			c0-0.5-0.1-1.3-1.3-1.3c-0.5,0-1.1,0.2-1.5,0.4L49.3,55c0.5-0.3,1.2-0.5,1.9-0.5c1.8,0,2.2,1.2,2.2,2.4v2.2c0,0.5,0,1,0.1,1.4
			H52.5z M52.4,57.5c-1.2,0-2.5,0.2-2.5,1.3c0,0.7,0.5,1,1,1c0.8,0,1.2-0.5,1.4-1c0-0.1,0.1-0.2,0.1-0.3V57.5z"/>
		<path class="st0" d="M55.1,56.2c0-0.6,0-1.1,0-1.6H56l0.1,1h0c0.3-0.6,1-1.1,1.9-1.1c0.8,0,2.1,0.5,2.1,2.5v3.5H59v-3.3
			c0-0.9-0.3-1.7-1.3-1.7c-0.7,0-1.2,0.5-1.4,1.1c0,0.1-0.1,0.3-0.1,0.5v3.5h-1.1V56.2z M56.1,53.7c0-0.8,0.3-1.2,0.8-1.2
			c0.3,0,0.5,0.1,0.7,0.3c0.2,0.1,0.4,0.2,0.5,0.2c0.2,0,0.3-0.1,0.3-0.5H59c0,0.8-0.3,1.2-0.8,1.2c-0.3,0-0.5-0.1-0.7-0.2
			c-0.2-0.1-0.4-0.2-0.5-0.2c-0.2,0-0.3,0.2-0.3,0.5H56.1z"/>
		<path class="st0" d="M67,57.5c0,2.1-1.5,3.1-2.9,3.1c-1.6,0-2.8-1.2-2.8-3c0-1.9,1.3-3.1,2.9-3.1C65.9,54.5,67,55.7,67,57.5z
			 M62.4,57.6c0,1.3,0.7,2.2,1.8,2.2c1,0,1.8-0.9,1.8-2.3c0-1-0.5-2.2-1.7-2.2C63,55.3,62.4,56.5,62.4,57.6z"/>
		<path class="st0" d="M68.2,59.4c0.3,0.2,0.9,0.4,1.4,0.4c0.8,0,1.1-0.4,1.1-0.9c0-0.5-0.3-0.8-1.1-1.1c-1-0.4-1.5-0.9-1.5-1.6
			c0-0.9,0.8-1.7,2-1.7c0.6,0,1.1,0.2,1.4,0.4l-0.3,0.8c-0.2-0.1-0.6-0.3-1.2-0.3c-0.6,0-1,0.4-1,0.8c0,0.5,0.3,0.7,1.1,1
			c1,0.4,1.5,0.9,1.5,1.8c0,1-0.8,1.7-2.2,1.7c-0.6,0-1.2-0.2-1.6-0.4L68.2,59.4z"/>
		<path class="st0" d="M72.7,59.8c0-0.4,0.3-0.8,0.7-0.8s0.7,0.3,0.7,0.8c0,0.4-0.3,0.8-0.7,0.8C73,60.6,72.7,60.3,72.7,59.8z"/>
	</g>
</g>
</svg>
