<!-- Generator: Adobe Illustrator 20.1.0, SVG Export Plug-In  -->
<svg version="1.1"
	 xmlns="http://www.w3.org/2000/svg" xmlns:xlink="http://www.w3.org/1999/xlink" xmlns:a="http://ns.adobe.com/AdobeSVGViewerExtensions/3.0/"
	 x="0px" y="0px" width="299.9px" height="194.7px" viewBox="0 0 299.9 194.7"
	 style="overflow:scroll;enable-background:new 0 0 299.9 194.7;" xml:space="preserve">
<style type="text/css">
	.st0{fill:none;stroke:#ED7F22;stroke-width:1.7928;stroke-linecap:round;}
	.st1{fill:none;stroke:#058A44;stroke-width:1.7928;stroke-linecap:round;}
	.st2{fill:none;stroke:#67788C;stroke-width:1.7928;stroke-linecap:round;}
	.st3{fill:none;stroke:#1A1A18;stroke-width:0.494;}
	.st4{fill:#67788C;}
	.st5{font-family:'ArialMT';}
	.st6{font-size:16.2256px;}
</style>
<defs>
</defs>
<polyline id="XMLID_32_" class="st0" points="1.2,17.4 83.1,135.3 289.3,154.5 "/>
<polyline id="XMLID_31_" class="st1" points="5.2,37.9 87.2,143 293.4,162.3 "/>
<polyline id="XMLID_30_" class="st2" points="8.5,50.3 90.4,152.4 298.3,171.7 "/>
<line id="XMLID_29_" class="st3" x1="1.8" y1="0.2" x2="1.8" y2="36.7"/>
<line id="XMLID_28_" class="st3" x1="0" y1="0.2" x2="3.5" y2="0.2"/>
<line id="XMLID_27_" class="st3" x1="0" y1="36.7" x2="3.5" y2="36.7"/>
<line id="XMLID_26_" class="st3" x1="5.3" y1="16.8" x2="5.3" y2="60"/>
<line id="XMLID_25_" class="st3" x1="3.6" y1="16.8" x2="7.1" y2="16.8"/>
<line id="XMLID_24_" class="st3" x1="3.6" y1="60" x2="7.1" y2="60"/>
<line id="XMLID_23_" class="st3" x1="84.3" y1="113" x2="84.3" y2="157.1"/>
<line id="XMLID_22_" class="st3" x1="82.5" y1="113" x2="86" y2="113"/>
<line id="XMLID_21_" class="st3" x1="82.5" y1="157.1" x2="86" y2="157.1"/>
<line id="XMLID_20_" class="st3" x1="87.8" y1="121.8" x2="87.8" y2="164"/>
<line id="XMLID_19_" class="st3" x1="86" y1="121.8" x2="89.5" y2="121.8"/>
<line id="XMLID_18_" class="st3" x1="86" y1="164" x2="89.5" y2="164"/>
<line id="XMLID_17_" class="st3" x1="91.1" y1="132.9" x2="91.1" y2="172.3"/>
<line id="XMLID_16_" class="st3" x1="89.4" y1="132.9" x2="92.9" y2="132.9"/>
<line id="XMLID_15_" class="st3" x1="89.4" y1="172.3" x2="92.9" y2="172.3"/>
<line id="XMLID_14_" class="st3" x1="288.9" y1="131.3" x2="288.9" y2="177.4"/>
<line id="XMLID_13_" class="st3" x1="287.2" y1="131.3" x2="290.7" y2="131.3"/>
<line id="XMLID_12_" class="st3" x1="287.2" y1="177.4" x2="290.7" y2="177.4"/>
<line id="XMLID_11_" class="st3" x1="293.1" y1="139.9" x2="293.1" y2="184.2"/>
<line id="XMLID_10_" class="st3" x1="291.3" y1="139.9" x2="294.8" y2="139.9"/>
<line id="XMLID_9_" class="st3" x1="291.3" y1="184.2" x2="294.8" y2="184.2"/>
<line id="XMLID_8_" class="st3" x1="298.2" y1="149.3" x2="298.2" y2="194.5"/>
<line id="XMLID_7_" class="st3" x1="296.4" y1="149.3" x2="299.9" y2="149.3"/>
<line id="XMLID_6_" class="st3" x1="296.4" y1="194.5" x2="299.9" y2="194.5"/>
<line id="XMLID_5_" class="st3" x1="8.6" y1="30.2" x2="8.6" y2="71.1"/>
<line id="XMLID_4_" class="st3" x1="6.9" y1="30.2" x2="10.4" y2="30.2"/>
<line id="XMLID_3_" class="st3" x1="6.9" y1="71.1" x2="10.4" y2="71.1"/>
<text id="XMLID_2_" transform="matrix(1 0 0 1 84.6967 116.9329)" class="st4 st5 st6">*</text>
<text id="XMLID_1_" transform="matrix(1 0 0 1 289.7709 135.1868)" class="st4 st5 st6">*</text>
</svg>
