<!-- Generator: Adobe Illustrator 20.1.0, SVG Export Plug-In  -->
<svg version="1.1"
	 xmlns="http://www.w3.org/2000/svg" xmlns:xlink="http://www.w3.org/1999/xlink" xmlns:a="http://ns.adobe.com/AdobeSVGViewerExtensions/3.0/"
	 x="0px" y="0px" width="58px" height="9.3px" viewBox="0 0 58 9.3" style="overflow:scroll;enable-background:new 0 0 58 9.3;"
	 xml:space="preserve">
<style type="text/css">
	.st0{fill:#333333;}
</style>
<defs>
</defs>
<g>
	<path class="st0" d="M1.9,6.1c0,0.3,0.1,0.6,0.2,0.8c0.1,0.2,0.3,0.4,0.4,0.5c0.2,0.1,0.4,0.2,0.6,0.3c0.2,0.1,0.5,0.1,0.8,0.1
		c0.2,0,0.4,0,0.6,0c0.2,0,0.4-0.1,0.6-0.2c0.2-0.1,0.3-0.2,0.4-0.3c0.1-0.1,0.2-0.3,0.2-0.6c0-0.2-0.1-0.4-0.2-0.6
		C5.2,5.9,5,5.8,4.7,5.7S4.2,5.5,3.9,5.4c-0.3-0.1-0.6-0.2-1-0.2C2.6,5.1,2.3,5,2,4.9C1.7,4.8,1.4,4.6,1.1,4.4S0.7,4,0.5,3.7
		c-0.2-0.3-0.2-0.6-0.2-1c0-0.5,0.1-0.9,0.3-1.2C0.8,1.2,1,0.9,1.4,0.7S2,0.3,2.4,0.2C2.8,0.1,3.2,0,3.6,0C4.1,0,4.5,0.1,5,0.2
		s0.8,0.3,1.1,0.5c0.3,0.2,0.6,0.5,0.8,0.9s0.3,0.8,0.3,1.3H5.3c0-0.3-0.1-0.5-0.2-0.7C5,2,4.9,1.9,4.7,1.8C4.6,1.7,4.4,1.6,4.2,1.6
		C4,1.5,3.8,1.5,3.5,1.5c-0.2,0-0.3,0-0.5,0c-0.2,0-0.3,0.1-0.4,0.2C2.5,1.8,2.4,1.9,2.3,2.1C2.2,2.2,2.2,2.3,2.2,2.5
		c0,0.2,0,0.3,0.1,0.4s0.2,0.2,0.4,0.3s0.5,0.2,0.8,0.3c0.3,0.1,0.8,0.2,1.3,0.4c0.1,0,0.2,0.1,0.4,0.1c0.2,0,0.4,0.1,0.6,0.2
		s0.4,0.2,0.6,0.3c0.2,0.1,0.4,0.3,0.5,0.5c0.2,0.2,0.3,0.4,0.4,0.7s0.1,0.5,0.1,0.9c0,0.4-0.1,0.8-0.2,1.1C7.1,7.9,6.8,8.2,6.5,8.5
		C6.2,8.7,5.8,8.9,5.4,9.1c-0.5,0.1-1,0.2-1.6,0.2c-0.5,0-1-0.1-1.4-0.2C1.9,9,1.5,8.8,1.1,8.5C0.8,8.3,0.5,8,0.3,7.6
		C0.1,7.2,0,6.7,0,6.1H1.9z"/>
	<path class="st0" d="M9.9,6.3c0,0.6,0.2,1,0.4,1.2c0.3,0.3,0.6,0.4,1.1,0.4c0.4,0,0.7-0.1,0.9-0.3c0.3-0.2,0.4-0.4,0.5-0.6h1.6
		c-0.2,0.8-0.6,1.3-1.1,1.7c-0.5,0.3-1.1,0.5-1.9,0.5c-0.5,0-1-0.1-1.4-0.2C9.6,8.8,9.3,8.6,9,8.3S8.5,7.7,8.4,7.2
		C8.2,6.8,8.1,6.4,8.1,5.9c0-0.5,0.1-0.9,0.2-1.3C8.5,4.1,8.7,3.8,9,3.5c0.3-0.3,0.6-0.5,1-0.7c0.4-0.2,0.8-0.3,1.3-0.3
		c0.5,0,1,0.1,1.4,0.3c0.4,0.2,0.7,0.5,1,0.9c0.3,0.4,0.4,0.8,0.6,1.2c0.1,0.5,0.2,0.9,0.1,1.4H9.9z M12.8,5.2
		c-0.1-0.4-0.2-0.8-0.4-1c-0.2-0.2-0.5-0.3-1-0.3c-0.3,0-0.5,0-0.7,0.1c-0.2,0.1-0.3,0.2-0.4,0.4S10,4.6,10,4.8S9.9,5.1,9.9,5.2
		H12.8z"/>
	<path class="st0" d="M15.6,2.7h1.7v0.9h0c0.2-0.3,0.5-0.6,0.8-0.8c0.3-0.2,0.7-0.3,1.1-0.3c0.4,0,0.8,0.1,1.1,0.2
		c0.3,0.2,0.6,0.4,0.8,0.8c0.2-0.3,0.4-0.5,0.8-0.7c0.3-0.2,0.7-0.3,1.2-0.3c0.3,0,0.7,0,0.9,0.1c0.3,0.1,0.5,0.2,0.7,0.4
		c0.2,0.2,0.4,0.4,0.5,0.7c0.1,0.3,0.2,0.6,0.2,1.1v4.3h-1.8V5.4c0-0.2,0-0.4,0-0.6c0-0.2-0.1-0.4-0.1-0.5c-0.1-0.1-0.2-0.3-0.3-0.3
		c-0.1-0.1-0.3-0.1-0.6-0.1S22.1,3.9,22,4s-0.3,0.2-0.4,0.4s-0.1,0.3-0.2,0.5c0,0.2,0,0.4,0,0.6v3.6h-1.8V5.5c0-0.2,0-0.4,0-0.6
		c0-0.2,0-0.4-0.1-0.5c-0.1-0.2-0.2-0.3-0.3-0.4s-0.4-0.1-0.6-0.1c-0.1,0-0.2,0-0.3,0.1C18.1,4,18,4,17.9,4.1s-0.2,0.3-0.3,0.4
		c-0.1,0.2-0.1,0.5-0.1,0.8v3.7h-1.8V2.7z"/>
	<path class="st0" d="M26.8,4.6c0-0.4,0.1-0.8,0.3-1s0.4-0.5,0.7-0.7s0.6-0.3,0.9-0.4s0.7-0.1,1.1-0.1c0.3,0,0.7,0,1,0.1
		c0.3,0,0.6,0.1,0.9,0.3s0.5,0.3,0.7,0.6c0.2,0.2,0.3,0.6,0.3,0.9v3.3c0,0.3,0,0.6,0,0.8c0,0.3,0.1,0.5,0.2,0.6H31
		C31,9,31,8.9,31,8.8s0-0.2,0-0.3c-0.3,0.3-0.6,0.5-1,0.6c-0.4,0.1-0.8,0.2-1.2,0.2c-0.3,0-0.6,0-0.9-0.1c-0.3-0.1-0.5-0.2-0.7-0.4
		c-0.2-0.2-0.4-0.4-0.5-0.6s-0.2-0.5-0.2-0.9c0-0.4,0.1-0.7,0.2-0.9C26.9,6.2,27,6,27.2,5.9s0.4-0.2,0.7-0.3
		c0.3-0.1,0.5-0.1,0.8-0.2c0.3,0,0.5-0.1,0.8-0.1c0.2,0,0.5-0.1,0.7-0.1c0.2,0,0.3-0.1,0.5-0.2c0.1-0.1,0.2-0.2,0.2-0.4
		c0-0.2,0-0.3-0.1-0.5c-0.1-0.1-0.1-0.2-0.2-0.3c-0.1-0.1-0.2-0.1-0.4-0.1s-0.3,0-0.4,0c-0.3,0-0.6,0.1-0.8,0.2
		c-0.2,0.1-0.3,0.4-0.4,0.7H26.8z M30.8,5.9c-0.1,0.1-0.2,0.1-0.3,0.2s-0.2,0.1-0.4,0.1c-0.1,0-0.3,0-0.4,0.1c-0.1,0-0.3,0-0.4,0.1
		c-0.1,0-0.3,0.1-0.4,0.1c-0.1,0-0.2,0.1-0.3,0.2s-0.2,0.2-0.2,0.3c-0.1,0.1-0.1,0.2-0.1,0.4c0,0.2,0,0.3,0.1,0.4s0.1,0.2,0.2,0.2
		C28.7,8,28.9,8,29,8c0.1,0,0.3,0,0.4,0c0.3,0,0.6-0.1,0.8-0.2c0.2-0.1,0.3-0.3,0.4-0.4c0.1-0.2,0.1-0.3,0.2-0.5c0-0.2,0-0.3,0-0.4
		V5.9z"/>
	<path class="st0" d="M34,2.7h1.7v0.9h0c0.2-0.4,0.5-0.6,0.9-0.8c0.4-0.2,0.7-0.3,1.1-0.3c0.5,0,0.9,0.1,1.2,0.2
		c0.3,0.1,0.5,0.3,0.7,0.5c0.2,0.2,0.3,0.5,0.4,0.8C40,4.4,40,4.7,40,5.1v4h-1.8V5.5c0-0.5-0.1-0.9-0.3-1.2
		c-0.2-0.3-0.5-0.4-0.9-0.4c-0.5,0-0.8,0.1-1,0.4c-0.2,0.3-0.3,0.8-0.3,1.4v3.4H34V2.7z"/>
	<path class="st0" d="M41.3,4.6c0-0.4,0.1-0.8,0.3-1s0.4-0.5,0.7-0.7s0.6-0.3,0.9-0.4s0.7-0.1,1.1-0.1c0.3,0,0.7,0,1,0.1
		c0.3,0,0.6,0.1,0.9,0.3s0.5,0.3,0.7,0.6c0.2,0.2,0.3,0.6,0.3,0.9v3.3c0,0.3,0,0.6,0,0.8c0,0.3,0.1,0.5,0.2,0.6h-1.8
		c0-0.1-0.1-0.2-0.1-0.3s0-0.2,0-0.3c-0.3,0.3-0.6,0.5-1,0.6c-0.4,0.1-0.8,0.2-1.2,0.2c-0.3,0-0.6,0-0.9-0.1
		c-0.3-0.1-0.5-0.2-0.7-0.4c-0.2-0.2-0.4-0.4-0.5-0.6s-0.2-0.5-0.2-0.9c0-0.4,0.1-0.7,0.2-0.9c0.1-0.2,0.3-0.4,0.5-0.6
		s0.4-0.2,0.7-0.3c0.3-0.1,0.5-0.1,0.8-0.2c0.3,0,0.5-0.1,0.8-0.1c0.2,0,0.5-0.1,0.7-0.1C44.9,5.1,45,5,45.2,5
		c0.1-0.1,0.2-0.2,0.2-0.4c0-0.2,0-0.3-0.1-0.5C45.2,4,45.1,3.9,45,3.8c-0.1-0.1-0.2-0.1-0.4-0.1s-0.3,0-0.4,0
		c-0.3,0-0.6,0.1-0.8,0.2C43.2,4,43.1,4.3,43,4.6H41.3z M45.3,5.9c-0.1,0.1-0.2,0.1-0.3,0.2s-0.2,0.1-0.4,0.1c-0.1,0-0.3,0-0.4,0.1
		c-0.1,0-0.3,0-0.4,0.1c-0.1,0-0.3,0.1-0.4,0.1c-0.1,0-0.2,0.1-0.3,0.2S43,6.7,42.9,6.9c-0.1,0.1-0.1,0.2-0.1,0.4
		c0,0.2,0,0.3,0.1,0.4s0.1,0.2,0.2,0.2C43.3,8,43.4,8,43.5,8c0.1,0,0.3,0,0.4,0c0.3,0,0.6-0.1,0.8-0.2c0.2-0.1,0.3-0.3,0.4-0.4
		c0.1-0.2,0.1-0.3,0.2-0.5c0-0.2,0-0.3,0-0.4V5.9z"/>
	<path class="st0" d="M55.1,7.1h-3.7V5.5l3.8-5.1h1.6v5.2H58v1.5h-1.2v2h-1.7V7.1z M55.1,2.6L55.1,2.6l-2.3,3h2.3V2.6z"/>
</g>
</svg>
