<!-- Generator: Adobe Illustrator 20.1.0, SVG Export Plug-In  -->
<svg version="1.1"
	 xmlns="http://www.w3.org/2000/svg" xmlns:xlink="http://www.w3.org/1999/xlink" xmlns:a="http://ns.adobe.com/AdobeSVGViewerExtensions/3.0/"
	 x="0px" y="0px" width="249.1px" height="12.5px" viewBox="0 0 249.1 12.5"
	 style="overflow:scroll;enable-background:new 0 0 249.1 12.5;" xml:space="preserve">
<style type="text/css">
	.st0{fill:#333333;}
</style>
<defs>
</defs>
<g>
	<g>
		<path class="st0" d="M3.8,1.2l0.3,0.6L2.6,2.4l0.9,1.2L3,4L2,2.7L1.2,4L0.6,3.6l0.9-1.2L0,1.9l0.2-0.6l1.4,0.5V0.2h0.7v1.5
			L3.8,1.2z"/>
		<path class="st0" d="M6.9,2.9l-0.2,1h0C7,3.4,7.4,3.1,7.7,3C8.1,2.8,8.5,2.7,9,2.7c0.4,0,0.8,0.1,1.2,0.2c0.3,0.1,0.6,0.3,0.9,0.6
			c0.2,0.3,0.4,0.6,0.5,0.9c0.1,0.4,0.2,0.7,0.2,1.2c0,0.5-0.1,1.1-0.3,1.6c-0.2,0.5-0.4,1-0.8,1.4C10.4,9,10,9.4,9.5,9.6
			C9,9.9,8.4,10,7.8,10c-0.2,0-0.4,0-0.7-0.1c-0.2,0-0.4-0.1-0.6-0.2C6.3,9.7,6.1,9.5,6,9.4S5.7,9,5.7,8.8h0l-0.7,3.7H3.8l2-9.6H6.9
			z M10.1,4.2C9.8,3.9,9.4,3.7,8.8,3.7c-0.4,0-0.8,0.1-1.2,0.3C7.3,4.3,7,4.6,6.7,4.9C6.5,5.3,6.3,5.6,6.2,6C6.1,6.4,6,6.8,6,7.2
			c0,0.5,0.2,1,0.5,1.3C6.8,8.8,7.2,9,7.8,9C8.3,9,8.7,8.9,9,8.7c0.3-0.2,0.6-0.5,0.9-0.8c0.2-0.3,0.4-0.7,0.5-1.1
			c0.1-0.4,0.2-0.8,0.2-1.2C10.6,5,10.4,4.6,10.1,4.2z"/>
		<path class="st0" d="M14.2,6.4L19.9,9V10L13,6.9V6l6.8-3.1v0.9L14.2,6.4z"/>
		<path class="st0" d="M21.1,4.1c0-0.4,0.1-0.7,0.1-1.1s0.2-0.7,0.3-1c0.1-0.3,0.3-0.6,0.6-0.8c0.2-0.2,0.5-0.4,0.9-0.6
			c0.4-0.1,0.8-0.2,1.3-0.2s0.9,0.1,1.3,0.2c0.4,0.1,0.6,0.3,0.9,0.6c0.2,0.2,0.4,0.5,0.6,0.8c0.1,0.3,0.2,0.7,0.3,1
			c0.1,0.4,0.1,0.7,0.1,1.1c0,0.4,0,0.7,0,1.1s0,0.7,0,1.1c0,0.4-0.1,0.7-0.1,1.1c-0.1,0.4-0.2,0.7-0.3,1c-0.1,0.3-0.3,0.6-0.6,0.8
			c-0.2,0.2-0.5,0.4-0.9,0.6c-0.4,0.1-0.8,0.2-1.3,0.2c-0.5,0-0.9-0.1-1.3-0.2c-0.4-0.1-0.6-0.3-0.9-0.6c-0.2-0.2-0.4-0.5-0.6-0.8
			c-0.1-0.3-0.2-0.7-0.3-1s-0.1-0.7-0.1-1.1c0-0.4,0-0.7,0-1.1S21.1,4.4,21.1,4.1z M22.3,6.4c0,0.4,0.1,0.9,0.2,1.3
			c0.1,0.4,0.3,0.7,0.6,1S23.8,9,24.3,9s0.9-0.1,1.1-0.4c0.3-0.3,0.5-0.6,0.6-1c0.1-0.4,0.2-0.8,0.2-1.3c0-0.4,0-0.8,0-1.2
			c0-0.2,0-0.5,0-0.8c0-0.3,0-0.6-0.1-0.8S26,3,26,2.7c-0.1-0.3-0.2-0.5-0.3-0.7c-0.1-0.2-0.3-0.4-0.6-0.5c-0.2-0.1-0.5-0.2-0.8-0.2
			c-0.3,0-0.6,0.1-0.8,0.2S23,1.8,22.9,2s-0.3,0.4-0.3,0.7c-0.1,0.3-0.1,0.5-0.2,0.8s-0.1,0.6-0.1,0.8c0,0.3,0,0.5,0,0.8
			C22.3,5.5,22.3,5.9,22.3,6.4z"/>
		<path class="st0" d="M30.6,8.4v1.5h-1.5V8.4H30.6z"/>
		<path class="st0" d="M32.3,4.1c0-0.4,0.1-0.7,0.1-1.1s0.2-0.7,0.3-1c0.1-0.3,0.3-0.6,0.6-0.8c0.2-0.2,0.5-0.4,0.9-0.6
			c0.4-0.1,0.8-0.2,1.3-0.2s0.9,0.1,1.3,0.2c0.4,0.1,0.6,0.3,0.9,0.6c0.2,0.2,0.4,0.5,0.6,0.8c0.1,0.3,0.2,0.7,0.3,1
			c0.1,0.4,0.1,0.7,0.1,1.1c0,0.4,0,0.7,0,1.1s0,0.7,0,1.1c0,0.4-0.1,0.7-0.1,1.1c-0.1,0.4-0.2,0.7-0.3,1c-0.1,0.3-0.3,0.6-0.6,0.8
			c-0.2,0.2-0.5,0.4-0.9,0.6C36.4,9.9,36,10,35.5,10c-0.5,0-0.9-0.1-1.3-0.2c-0.4-0.1-0.6-0.3-0.9-0.6c-0.2-0.2-0.4-0.5-0.6-0.8
			c-0.1-0.3-0.2-0.7-0.3-1s-0.1-0.7-0.1-1.1c0-0.4,0-0.7,0-1.1S32.3,4.4,32.3,4.1z M33.6,6.4c0,0.4,0.1,0.9,0.2,1.3
			c0.1,0.4,0.3,0.7,0.6,1S35,9,35.5,9s0.9-0.1,1.1-0.4c0.3-0.3,0.5-0.6,0.6-1c0.1-0.4,0.2-0.8,0.2-1.3c0-0.4,0-0.8,0-1.2
			c0-0.2,0-0.5,0-0.8c0-0.3,0-0.6-0.1-0.8S37.3,3,37.2,2.7C37.1,2.4,37,2.2,36.9,2c-0.1-0.2-0.3-0.4-0.6-0.5
			c-0.2-0.1-0.5-0.2-0.8-0.2c-0.3,0-0.6,0.1-0.8,0.2S34.3,1.8,34.1,2s-0.3,0.4-0.3,0.7c-0.1,0.3-0.1,0.5-0.2,0.8s-0.1,0.6-0.1,0.8
			c0,0.3,0,0.5,0,0.8C33.5,5.5,33.5,5.9,33.6,6.4z"/>
		<path class="st0" d="M39.8,4.1c0-0.4,0.1-0.7,0.1-1.1s0.2-0.7,0.3-1c0.1-0.3,0.3-0.6,0.6-0.8c0.2-0.2,0.5-0.4,0.9-0.6
			c0.4-0.1,0.8-0.2,1.3-0.2s0.9,0.1,1.3,0.2c0.4,0.1,0.6,0.3,0.9,0.6c0.2,0.2,0.4,0.5,0.6,0.8c0.1,0.3,0.2,0.7,0.3,1
			c0.1,0.4,0.1,0.7,0.1,1.1c0,0.4,0,0.7,0,1.1s0,0.7,0,1.1c0,0.4-0.1,0.7-0.1,1.1c-0.1,0.4-0.2,0.7-0.3,1c-0.1,0.3-0.3,0.6-0.6,0.8
			c-0.2,0.2-0.5,0.4-0.9,0.6C43.9,9.9,43.5,10,43,10c-0.5,0-0.9-0.1-1.3-0.2c-0.4-0.1-0.6-0.3-0.9-0.6c-0.2-0.2-0.4-0.5-0.6-0.8
			c-0.1-0.3-0.2-0.7-0.3-1s-0.1-0.7-0.1-1.1c0-0.4,0-0.7,0-1.1S39.8,4.4,39.8,4.1z M41.1,6.4c0,0.4,0.1,0.9,0.2,1.3
			c0.1,0.4,0.3,0.7,0.6,1S42.5,9,43,9s0.9-0.1,1.1-0.4c0.3-0.3,0.5-0.6,0.6-1c0.1-0.4,0.2-0.8,0.2-1.3c0-0.4,0-0.8,0-1.2
			c0-0.2,0-0.5,0-0.8c0-0.3,0-0.6-0.1-0.8S44.8,3,44.7,2.7c-0.1-0.3-0.2-0.5-0.3-0.7c-0.1-0.2-0.3-0.4-0.6-0.5
			c-0.2-0.1-0.5-0.2-0.8-0.2c-0.3,0-0.6,0.1-0.8,0.2S41.8,1.8,41.6,2s-0.3,0.4-0.3,0.7c-0.1,0.3-0.1,0.5-0.2,0.8S41,4.1,41,4.4
			c0,0.3,0,0.5,0,0.8C41,5.5,41,5.9,41.1,6.4z"/>
		<path class="st0" d="M47.3,4.1c0-0.4,0.1-0.7,0.1-1.1s0.2-0.7,0.3-1c0.1-0.3,0.3-0.6,0.6-0.8c0.2-0.2,0.5-0.4,0.9-0.6
			c0.4-0.1,0.8-0.2,1.3-0.2s0.9,0.1,1.3,0.2c0.4,0.1,0.6,0.3,0.9,0.6c0.2,0.2,0.4,0.5,0.6,0.8c0.1,0.3,0.2,0.7,0.3,1
			c0.1,0.4,0.1,0.7,0.1,1.1c0,0.4,0,0.7,0,1.1s0,0.7,0,1.1c0,0.4-0.1,0.7-0.1,1.1c-0.1,0.4-0.2,0.7-0.3,1c-0.1,0.3-0.3,0.6-0.6,0.8
			c-0.2,0.2-0.5,0.4-0.9,0.6C51.4,9.9,51,10,50.5,10c-0.5,0-0.9-0.1-1.3-0.2c-0.4-0.1-0.6-0.3-0.9-0.6c-0.2-0.2-0.4-0.5-0.6-0.8
			c-0.1-0.3-0.2-0.7-0.3-1s-0.1-0.7-0.1-1.1c0-0.4,0-0.7,0-1.1S47.3,4.4,47.3,4.1z M48.6,6.4c0,0.4,0.1,0.9,0.2,1.3
			c0.1,0.4,0.3,0.7,0.6,1S50,9,50.5,9s0.9-0.1,1.1-0.4c0.3-0.3,0.5-0.6,0.6-1c0.1-0.4,0.2-0.8,0.2-1.3c0-0.4,0-0.8,0-1.2
			c0-0.2,0-0.5,0-0.8c0-0.3,0-0.6-0.1-0.8S52.3,3,52.2,2.7C52.1,2.4,52,2.2,51.9,2c-0.1-0.2-0.3-0.4-0.6-0.5
			c-0.2-0.1-0.5-0.2-0.8-0.2c-0.3,0-0.6,0.1-0.8,0.2S49.3,1.8,49.1,2s-0.3,0.4-0.3,0.7c-0.1,0.3-0.1,0.5-0.2,0.8s-0.1,0.6-0.1,0.8
			c0,0.3,0,0.5,0,0.8C48.5,5.5,48.5,5.9,48.6,6.4z"/>
		<path class="st0" d="M57.9,9.9V3h-2.5V2.1c0.3,0,0.6,0,0.9-0.1c0.3,0,0.6-0.1,0.8-0.3s0.5-0.3,0.6-0.6C58,1,58.1,0.7,58.2,0.3H59
			v9.6H57.9z"/>
		<path class="st0" d="M67,9.9l-1-7h1.2l0.6,5.8h0l3-5.8h1.2l-3.9,7H67z"/>
		<path class="st0" d="M76.4,4c-0.3-0.2-0.6-0.3-1-0.3c-0.2,0-0.3,0-0.5,0c-0.2,0-0.3,0.1-0.5,0.1C74.2,4,74.1,4.1,74,4.2
			c-0.1,0.1-0.1,0.3-0.1,0.4c0,0.2,0.1,0.3,0.2,0.4c0.1,0.1,0.2,0.2,0.4,0.3c0.2,0.1,0.4,0.2,0.6,0.3c0.2,0.1,0.4,0.2,0.7,0.3
			c0.2,0.1,0.5,0.2,0.7,0.3c0.2,0.1,0.4,0.3,0.6,0.4c0.2,0.1,0.3,0.3,0.4,0.5s0.2,0.4,0.2,0.7c0,0.4-0.1,0.7-0.3,1
			c-0.2,0.3-0.4,0.5-0.7,0.7S76,9.8,75.7,9.9C75.3,10,75,10,74.7,10c-0.4,0-0.8,0-1.1-0.1c-0.3-0.1-0.6-0.2-0.9-0.4
			s-0.4-0.4-0.6-0.7c-0.1-0.3-0.2-0.7-0.2-1.1H73c0,0.3,0,0.5,0.1,0.6c0.1,0.2,0.2,0.3,0.4,0.4c0.2,0.1,0.4,0.2,0.6,0.2
			S74.5,9,74.8,9C75,9,75.2,9,75.3,9c0.2,0,0.4-0.1,0.5-0.2c0.2-0.1,0.3-0.2,0.4-0.3c0.1-0.1,0.1-0.3,0.1-0.5c0-0.2-0.1-0.3-0.2-0.4
			S76,7.3,75.8,7.2c-0.2-0.1-0.4-0.2-0.6-0.3c-0.2-0.1-0.4-0.2-0.7-0.3c-0.2-0.1-0.5-0.2-0.7-0.3c-0.2-0.1-0.4-0.2-0.6-0.4
			s-0.3-0.3-0.4-0.5c-0.1-0.2-0.2-0.4-0.2-0.7c0-0.3,0.1-0.6,0.2-0.9s0.3-0.5,0.6-0.6s0.5-0.3,0.8-0.4s0.6-0.1,1-0.1s0.6,0,1,0.1
			c0.3,0.1,0.6,0.2,0.8,0.4c0.2,0.2,0.4,0.4,0.6,0.7c0.2,0.3,0.2,0.6,0.2,1h-1.1C76.8,4.5,76.6,4.2,76.4,4z"/>
		<path class="st0" d="M81.1,8.4v1.5h-1.5V8.4H81.1z"/>
		<path class="st0" d="M88,0.2v9.6h-1.1V0.2H88z"/>
		<path class="st0" d="M92.2,0l-1.8,1.9h-0.9L90.8,0H92.2z M89.9,2.9H91v7h-1.1V2.9z"/>
		<path class="st0" d="M93.9,2.9V4h0c0.5-0.8,1.2-1.3,2.3-1.3c0.5,0,0.8,0.1,1.1,0.2s0.6,0.3,0.7,0.5s0.3,0.5,0.4,0.8
			c0.1,0.3,0.1,0.7,0.1,1v4.6h-1.1V5.1c0-0.4-0.1-0.8-0.4-1c-0.3-0.3-0.6-0.4-1-0.4c-0.4,0-0.7,0.1-0.9,0.2
			c-0.3,0.1-0.5,0.3-0.6,0.5c-0.2,0.2-0.3,0.4-0.4,0.7c-0.1,0.3-0.1,0.6-0.1,0.9v3.9h-1.1v-7H93.9z"/>
		<path class="st0" d="M105.2,9.4c-0.5,0.4-1.2,0.6-2,0.6c-0.6,0-1-0.1-1.4-0.3c-0.4-0.2-0.8-0.4-1-0.8c-0.3-0.3-0.5-0.7-0.6-1.2
			c-0.1-0.4-0.2-0.9-0.2-1.5c0-0.5,0.1-1,0.2-1.5s0.4-0.8,0.7-1.1c0.3-0.3,0.6-0.6,1-0.8c0.4-0.2,0.8-0.3,1.3-0.3
			c0.6,0,1.1,0.1,1.5,0.4c0.4,0.3,0.7,0.6,1,1s0.4,0.8,0.5,1.3c0.1,0.5,0.1,0.9,0.1,1.3h-5.2c0,0.3,0,0.6,0.1,0.9s0.2,0.5,0.4,0.7
			c0.2,0.2,0.4,0.4,0.7,0.5c0.3,0.1,0.6,0.2,1,0.2c0.5,0,0.9-0.1,1.2-0.3c0.3-0.2,0.5-0.6,0.6-1h1.1C106.1,8.4,105.8,9,105.2,9.4z
			 M105,4.9c-0.1-0.2-0.2-0.5-0.4-0.6c-0.2-0.2-0.4-0.3-0.6-0.4s-0.5-0.2-0.8-0.2c-0.3,0-0.6,0.1-0.8,0.2c-0.2,0.1-0.4,0.2-0.6,0.4
			c-0.2,0.2-0.3,0.4-0.4,0.6c-0.1,0.2-0.2,0.5-0.2,0.8h4C105.1,5.4,105.1,5.2,105,4.9z"/>
		<path class="st0" d="M112.9,10c-0.3,0-0.5-0.1-0.7-0.3c-0.2-0.2-0.3-0.4-0.3-0.8c-0.3,0.4-0.7,0.6-1.1,0.8
			c-0.4,0.2-0.9,0.3-1.4,0.3c-0.3,0-0.6,0-0.9-0.1c-0.3-0.1-0.5-0.2-0.7-0.3c-0.2-0.2-0.4-0.4-0.5-0.6c-0.1-0.2-0.2-0.5-0.2-0.9
			c0-0.4,0.1-0.7,0.2-1s0.3-0.5,0.5-0.6s0.5-0.3,0.8-0.4s0.6-0.1,0.9-0.2c0.3-0.1,0.6-0.1,0.9-0.1c0.3,0,0.5-0.1,0.7-0.1
			s0.4-0.1,0.5-0.3s0.2-0.3,0.2-0.5c0-0.3,0-0.5-0.1-0.6c-0.1-0.2-0.2-0.3-0.4-0.4c-0.1-0.1-0.3-0.1-0.5-0.2c-0.2,0-0.4,0-0.5,0
			c-0.5,0-0.9,0.1-1.2,0.3c-0.3,0.2-0.5,0.5-0.5,1h-1.1c0-0.4,0.1-0.8,0.3-1.1c0.2-0.3,0.4-0.5,0.6-0.7c0.3-0.2,0.6-0.3,0.9-0.4
			s0.7-0.1,1.1-0.1c0.3,0,0.6,0,0.9,0.1c0.3,0,0.6,0.1,0.8,0.3c0.3,0.1,0.5,0.3,0.6,0.6c0.2,0.3,0.2,0.6,0.2,1v3.6
			c0,0.3,0,0.5,0,0.6c0,0.1,0.1,0.2,0.3,0.2c0.1,0,0.2,0,0.4-0.1v0.9C113.5,9.9,113.2,10,112.9,10z M111.3,6.5
			c-0.2,0-0.5,0.1-0.7,0.1c-0.3,0-0.5,0.1-0.8,0.1s-0.5,0.1-0.7,0.2c-0.2,0.1-0.4,0.2-0.5,0.4c-0.1,0.2-0.2,0.4-0.2,0.7
			c0,0.2,0,0.3,0.1,0.5c0.1,0.1,0.2,0.2,0.3,0.3c0.1,0.1,0.3,0.1,0.4,0.2c0.2,0,0.3,0.1,0.5,0.1c0.4,0,0.7-0.1,1-0.2
			c0.3-0.1,0.5-0.2,0.7-0.4c0.2-0.2,0.3-0.3,0.4-0.5c0.1-0.2,0.1-0.4,0.1-0.5V6.3C111.7,6.4,111.5,6.4,111.3,6.5z"/>
		<path class="st0" d="M119.7,0.2v3.6h0c0.2-0.4,0.5-0.7,0.9-0.8c0.4-0.2,0.8-0.3,1.3-0.3c0.5,0,1,0.1,1.4,0.3
			c0.4,0.2,0.7,0.5,1,0.8s0.5,0.7,0.6,1.2s0.2,0.9,0.2,1.4s-0.1,1-0.2,1.4c-0.1,0.4-0.3,0.8-0.6,1.2s-0.6,0.6-1,0.8S122.5,10,122,10
			c-0.2,0-0.4,0-0.6-0.1c-0.2,0-0.4-0.1-0.6-0.2c-0.2-0.1-0.4-0.2-0.6-0.3c-0.2-0.1-0.3-0.3-0.5-0.5h0v0.9h-1.1V0.2H119.7z
			 M123.8,5.4c-0.1-0.3-0.2-0.6-0.4-0.8c-0.2-0.2-0.4-0.4-0.7-0.6c-0.3-0.1-0.6-0.2-1-0.2c-0.4,0-0.7,0.1-1,0.2
			c-0.3,0.2-0.5,0.4-0.7,0.6s-0.3,0.5-0.4,0.8c-0.1,0.3-0.1,0.6-0.1,1c0,0.3,0,0.7,0.1,1c0.1,0.3,0.2,0.6,0.4,0.8
			c0.2,0.2,0.4,0.4,0.7,0.6c0.3,0.1,0.6,0.2,1,0.2s0.7-0.1,1-0.2c0.3-0.2,0.5-0.4,0.6-0.6c0.2-0.3,0.3-0.5,0.4-0.9
			c0.1-0.3,0.1-0.7,0.1-1C124,6,123.9,5.7,123.8,5.4z"/>
		<path class="st0" d="M131.9,10c-0.3,0-0.5-0.1-0.7-0.3c-0.2-0.2-0.3-0.4-0.3-0.8c-0.3,0.4-0.7,0.6-1.1,0.8
			c-0.4,0.2-0.9,0.3-1.4,0.3c-0.3,0-0.6,0-0.9-0.1c-0.3-0.1-0.5-0.2-0.7-0.3c-0.2-0.2-0.4-0.4-0.5-0.6c-0.1-0.2-0.2-0.5-0.2-0.9
			c0-0.4,0.1-0.7,0.2-1s0.3-0.5,0.5-0.6s0.5-0.3,0.8-0.4s0.6-0.1,0.9-0.2c0.3-0.1,0.6-0.1,0.9-0.1c0.3,0,0.5-0.1,0.7-0.1
			s0.4-0.1,0.5-0.3s0.2-0.3,0.2-0.5c0-0.3,0-0.5-0.1-0.6c-0.1-0.2-0.2-0.3-0.4-0.4c-0.1-0.1-0.3-0.1-0.5-0.2c-0.2,0-0.4,0-0.5,0
			c-0.5,0-0.9,0.1-1.2,0.3c-0.3,0.2-0.5,0.5-0.5,1h-1.1c0-0.4,0.1-0.8,0.3-1.1c0.2-0.3,0.4-0.5,0.6-0.7c0.3-0.2,0.6-0.3,0.9-0.4
			s0.7-0.1,1.1-0.1c0.3,0,0.6,0,0.9,0.1c0.3,0,0.6,0.1,0.8,0.3c0.3,0.1,0.5,0.3,0.6,0.6c0.2,0.3,0.2,0.6,0.2,1v3.6
			c0,0.3,0,0.5,0,0.6c0,0.1,0.1,0.2,0.3,0.2c0.1,0,0.2,0,0.4-0.1v0.9C132.5,9.9,132.2,10,131.9,10z M130.3,6.5
			c-0.2,0-0.5,0.1-0.7,0.1c-0.3,0-0.5,0.1-0.8,0.1s-0.5,0.1-0.7,0.2c-0.2,0.1-0.4,0.2-0.5,0.4c-0.1,0.2-0.2,0.4-0.2,0.7
			c0,0.2,0,0.3,0.1,0.5c0.1,0.1,0.2,0.2,0.3,0.3c0.1,0.1,0.3,0.1,0.4,0.2c0.2,0,0.3,0.1,0.5,0.1c0.4,0,0.7-0.1,1-0.2
			c0.3-0.1,0.5-0.2,0.7-0.4c0.2-0.2,0.3-0.3,0.4-0.5c0.1-0.2,0.1-0.4,0.1-0.5V6.3C130.7,6.4,130.5,6.4,130.3,6.5z"/>
		<path class="st0" d="M134.6,8.3c0.1,0.2,0.2,0.3,0.4,0.4c0.2,0.1,0.4,0.2,0.6,0.2c0.2,0,0.4,0.1,0.7,0.1c0.2,0,0.4,0,0.6,0
			c0.2,0,0.4-0.1,0.5-0.1s0.3-0.2,0.4-0.3C138,8.4,138,8.2,138,8c0-0.3-0.1-0.5-0.3-0.7c-0.2-0.2-0.5-0.3-0.8-0.4
			c-0.3-0.1-0.7-0.2-1.1-0.3s-0.8-0.2-1.1-0.3c-0.3-0.1-0.6-0.3-0.8-0.6s-0.3-0.6-0.3-1.1c0-0.4,0.1-0.7,0.2-0.9s0.4-0.5,0.6-0.6
			c0.2-0.2,0.5-0.3,0.8-0.4c0.3-0.1,0.6-0.1,0.9-0.1c0.4,0,0.8,0,1.1,0.1c0.3,0.1,0.6,0.2,0.9,0.4c0.3,0.2,0.5,0.4,0.6,0.7
			c0.2,0.3,0.2,0.6,0.3,1.1h-1.1c0-0.2-0.1-0.4-0.2-0.6c-0.1-0.1-0.2-0.3-0.4-0.4c-0.2-0.1-0.3-0.2-0.5-0.2c-0.2,0-0.4-0.1-0.6-0.1
			c-0.2,0-0.3,0-0.5,0c-0.2,0-0.3,0.1-0.5,0.1c-0.1,0.1-0.3,0.2-0.4,0.3c-0.1,0.1-0.1,0.3-0.1,0.4c0,0.2,0.1,0.4,0.2,0.5
			c0.1,0.1,0.3,0.2,0.5,0.3c0.2,0.1,0.5,0.2,0.7,0.2c0.3,0.1,0.5,0.1,0.8,0.2c0.3,0.1,0.6,0.1,0.8,0.2c0.3,0.1,0.5,0.2,0.7,0.4
			s0.4,0.3,0.5,0.6s0.2,0.5,0.2,0.8c0,0.4-0.1,0.8-0.3,1.1c-0.2,0.3-0.4,0.5-0.7,0.7c-0.3,0.2-0.6,0.3-1,0.4
			c-0.4,0.1-0.7,0.1-1.1,0.1c-0.4,0-0.8,0-1.1-0.1c-0.4-0.1-0.7-0.2-0.9-0.4c-0.3-0.2-0.5-0.4-0.6-0.7c-0.2-0.3-0.3-0.7-0.3-1.1h1.1
			C134.5,7.9,134.5,8.1,134.6,8.3z"/>
		<path class="st0" d="M145.9,10c-0.3,0-0.5-0.1-0.7-0.3c-0.2-0.2-0.3-0.4-0.3-0.8c-0.3,0.4-0.7,0.6-1.1,0.8
			c-0.4,0.2-0.9,0.3-1.4,0.3c-0.3,0-0.6,0-0.9-0.1c-0.3-0.1-0.5-0.2-0.7-0.3c-0.2-0.2-0.4-0.4-0.5-0.6c-0.1-0.2-0.2-0.5-0.2-0.9
			c0-0.4,0.1-0.7,0.2-1s0.3-0.5,0.5-0.6s0.5-0.3,0.8-0.4s0.6-0.1,0.9-0.2c0.3-0.1,0.6-0.1,0.9-0.1c0.3,0,0.5-0.1,0.7-0.1
			s0.4-0.1,0.5-0.3s0.2-0.3,0.2-0.5c0-0.3,0-0.5-0.1-0.6c-0.1-0.2-0.2-0.3-0.4-0.4c-0.1-0.1-0.3-0.1-0.5-0.2c-0.2,0-0.4,0-0.5,0
			c-0.5,0-0.9,0.1-1.2,0.3c-0.3,0.2-0.5,0.5-0.5,1h-1.1c0-0.4,0.1-0.8,0.3-1.1c0.2-0.3,0.4-0.5,0.6-0.7c0.3-0.2,0.6-0.3,0.9-0.4
			s0.7-0.1,1.1-0.1c0.3,0,0.6,0,0.9,0.1c0.3,0,0.6,0.1,0.8,0.3c0.3,0.1,0.5,0.3,0.6,0.6c0.2,0.3,0.2,0.6,0.2,1v3.6
			c0,0.3,0,0.5,0,0.6c0,0.1,0.1,0.2,0.3,0.2c0.1,0,0.2,0,0.4-0.1v0.9C146.5,9.9,146.2,10,145.9,10z M144.2,6.5
			c-0.2,0-0.5,0.1-0.7,0.1c-0.3,0-0.5,0.1-0.8,0.1s-0.5,0.1-0.7,0.2c-0.2,0.1-0.4,0.2-0.5,0.4c-0.1,0.2-0.2,0.4-0.2,0.7
			c0,0.2,0,0.3,0.1,0.5c0.1,0.1,0.2,0.2,0.3,0.3c0.1,0.1,0.3,0.1,0.4,0.2c0.2,0,0.3,0.1,0.5,0.1c0.4,0,0.7-0.1,1-0.2
			c0.3-0.1,0.5-0.2,0.7-0.4c0.2-0.2,0.3-0.3,0.4-0.5c0.1-0.2,0.1-0.4,0.1-0.5V6.3C144.7,6.4,144.5,6.4,144.2,6.5z"/>
		<path class="st0" d="M149,0.2v9.6h-1.1V0.2H149z"/>
		<path class="st0" d="M159.4,9.4c-0.5,0.4-1.2,0.6-2,0.6c-0.6,0-1-0.1-1.4-0.3c-0.4-0.2-0.8-0.4-1-0.8c-0.3-0.3-0.5-0.7-0.6-1.2
			c-0.1-0.4-0.2-0.9-0.2-1.5c0-0.5,0.1-1,0.2-1.5s0.4-0.8,0.7-1.1c0.3-0.3,0.6-0.6,1-0.8c0.4-0.2,0.8-0.3,1.3-0.3
			c0.6,0,1.1,0.1,1.5,0.4c0.4,0.3,0.7,0.6,1,1s0.4,0.8,0.5,1.3c0.1,0.5,0.1,0.9,0.1,1.3h-5.2c0,0.3,0,0.6,0.1,0.9s0.2,0.5,0.4,0.7
			c0.2,0.2,0.4,0.4,0.7,0.5c0.3,0.1,0.6,0.2,1,0.2c0.5,0,0.9-0.1,1.2-0.3c0.3-0.2,0.5-0.6,0.6-1h1.1C160.3,8.4,159.9,9,159.4,9.4z
			 M159.1,4.9c-0.1-0.2-0.2-0.5-0.4-0.6c-0.2-0.2-0.4-0.3-0.6-0.4s-0.5-0.2-0.8-0.2c-0.3,0-0.6,0.1-0.8,0.2
			c-0.2,0.1-0.4,0.2-0.6,0.4c-0.2,0.2-0.3,0.4-0.4,0.6c-0.1,0.2-0.2,0.5-0.2,0.8h4C159.3,5.4,159.2,5.2,159.1,4.9z"/>
		<path class="st0" d="M162.8,2.9V4h0c0.5-0.8,1.2-1.3,2.3-1.3c0.5,0,0.8,0.1,1.1,0.2s0.6,0.3,0.7,0.5s0.3,0.5,0.4,0.8
			c0.1,0.3,0.1,0.7,0.1,1v4.6h-1.1V5.1c0-0.4-0.1-0.8-0.4-1c-0.3-0.3-0.6-0.4-1-0.4c-0.4,0-0.7,0.1-0.9,0.2
			c-0.3,0.1-0.5,0.3-0.6,0.5c-0.2,0.2-0.3,0.4-0.4,0.7c-0.1,0.3-0.1,0.6-0.1,0.9v3.9h-1.1v-7H162.8z"/>
		<path class="st0" d="M174.2,0.2v9.6H173V0.2H174.2z"/>
		<path class="st0" d="M181.3,10c-0.3,0-0.5-0.1-0.7-0.3c-0.2-0.2-0.3-0.4-0.3-0.8c-0.3,0.4-0.7,0.6-1.1,0.8
			c-0.4,0.2-0.9,0.3-1.4,0.3c-0.3,0-0.6,0-0.9-0.1c-0.3-0.1-0.5-0.2-0.7-0.3c-0.2-0.2-0.4-0.4-0.5-0.6c-0.1-0.2-0.2-0.5-0.2-0.9
			c0-0.4,0.1-0.7,0.2-1s0.3-0.5,0.5-0.6s0.5-0.3,0.8-0.4s0.6-0.1,0.9-0.2c0.3-0.1,0.6-0.1,0.9-0.1c0.3,0,0.5-0.1,0.7-0.1
			s0.4-0.1,0.5-0.3s0.2-0.3,0.2-0.5c0-0.3,0-0.5-0.1-0.6c-0.1-0.2-0.2-0.3-0.4-0.4c-0.1-0.1-0.3-0.1-0.5-0.2c-0.2,0-0.4,0-0.5,0
			c-0.5,0-0.9,0.1-1.2,0.3c-0.3,0.2-0.5,0.5-0.5,1h-1.1c0-0.4,0.1-0.8,0.3-1.1c0.2-0.3,0.4-0.5,0.6-0.7c0.3-0.2,0.6-0.3,0.9-0.4
			s0.7-0.1,1.1-0.1c0.3,0,0.6,0,0.9,0.1c0.3,0,0.6,0.1,0.8,0.3c0.3,0.1,0.5,0.3,0.6,0.6c0.2,0.3,0.2,0.6,0.2,1v3.6
			c0,0.3,0,0.5,0,0.6c0,0.1,0.1,0.2,0.3,0.2c0.1,0,0.2,0,0.4-0.1v0.9C181.9,9.9,181.7,10,181.3,10z M179.7,6.5
			c-0.2,0-0.5,0.1-0.7,0.1c-0.3,0-0.5,0.1-0.8,0.1s-0.5,0.1-0.7,0.2c-0.2,0.1-0.4,0.2-0.5,0.4c-0.1,0.2-0.2,0.4-0.2,0.7
			c0,0.2,0,0.3,0.1,0.5c0.1,0.1,0.2,0.2,0.3,0.3c0.1,0.1,0.3,0.1,0.4,0.2c0.2,0,0.3,0.1,0.5,0.1c0.4,0,0.7-0.1,1-0.2
			c0.3-0.1,0.5-0.2,0.7-0.4c0.2-0.2,0.3-0.3,0.4-0.5c0.1-0.2,0.1-0.4,0.1-0.5V6.3C180.1,6.4,179.9,6.4,179.7,6.5z"/>
		<path class="st0" d="M184.1,8.3c0.1,0.2,0.2,0.3,0.4,0.4c0.2,0.1,0.4,0.2,0.6,0.2c0.2,0,0.4,0.1,0.7,0.1c0.2,0,0.4,0,0.6,0
			c0.2,0,0.4-0.1,0.5-0.1s0.3-0.2,0.4-0.3c0.1-0.1,0.2-0.3,0.2-0.5c0-0.3-0.1-0.5-0.3-0.7c-0.2-0.2-0.5-0.3-0.8-0.4
			c-0.3-0.1-0.7-0.2-1.1-0.3s-0.8-0.2-1.1-0.3c-0.3-0.1-0.6-0.3-0.8-0.6s-0.3-0.6-0.3-1.1c0-0.4,0.1-0.7,0.2-0.9s0.4-0.5,0.6-0.6
			c0.2-0.2,0.5-0.3,0.8-0.4c0.3-0.1,0.6-0.1,0.9-0.1c0.4,0,0.8,0,1.1,0.1c0.3,0.1,0.6,0.2,0.9,0.4c0.3,0.2,0.5,0.4,0.6,0.7
			c0.2,0.3,0.2,0.6,0.3,1.1h-1.1c0-0.2-0.1-0.4-0.2-0.6c-0.1-0.1-0.2-0.3-0.4-0.4c-0.2-0.1-0.3-0.2-0.5-0.2c-0.2,0-0.4-0.1-0.6-0.1
			c-0.2,0-0.3,0-0.5,0c-0.2,0-0.3,0.1-0.5,0.1c-0.1,0.1-0.3,0.2-0.4,0.3c-0.1,0.1-0.1,0.3-0.1,0.4c0,0.2,0.1,0.4,0.2,0.5
			c0.1,0.1,0.3,0.2,0.5,0.3c0.2,0.1,0.5,0.2,0.7,0.2c0.3,0.1,0.5,0.1,0.8,0.2c0.3,0.1,0.6,0.1,0.8,0.2c0.3,0.1,0.5,0.2,0.7,0.4
			s0.4,0.3,0.5,0.6s0.2,0.5,0.2,0.8c0,0.4-0.1,0.8-0.3,1.1c-0.2,0.3-0.4,0.5-0.7,0.7c-0.3,0.2-0.6,0.3-1,0.4
			c-0.4,0.1-0.7,0.1-1.1,0.1c-0.4,0-0.8,0-1.1-0.1c-0.4-0.1-0.7-0.2-0.9-0.4c-0.3-0.2-0.5-0.4-0.6-0.7c-0.2-0.3-0.3-0.7-0.3-1.1h1.1
			C183.9,7.9,184,8.1,184.1,8.3z"/>
		<path class="st0" d="M195.9,4.4c0,0,0.1,0,0.1,0h0.2c0.2,0,0.5,0,0.7-0.1s0.4-0.2,0.6-0.3c0.2-0.1,0.3-0.3,0.4-0.5
			c0.1-0.2,0.1-0.4,0.1-0.7c0-0.5-0.2-0.9-0.5-1.2c-0.3-0.3-0.7-0.4-1.2-0.4c-0.3,0-0.6,0.1-0.8,0.2c-0.2,0.1-0.4,0.3-0.6,0.5
			s-0.3,0.4-0.3,0.7c-0.1,0.3-0.1,0.5-0.1,0.8h-1.1c0-0.5,0.1-0.9,0.2-1.3s0.3-0.7,0.6-1s0.5-0.5,0.9-0.6c0.4-0.2,0.8-0.2,1.3-0.2
			c0.4,0,0.8,0.1,1.2,0.2c0.4,0.1,0.7,0.3,0.9,0.5c0.3,0.2,0.5,0.5,0.6,0.8c0.1,0.3,0.2,0.7,0.2,1.1c0,0.4-0.1,0.8-0.4,1.1
			c-0.3,0.3-0.6,0.6-0.9,0.8v0c0.6,0.1,1,0.4,1.3,0.8c0.3,0.4,0.4,0.9,0.4,1.5c0,0.5-0.1,0.9-0.3,1.3c-0.2,0.4-0.4,0.7-0.7,0.9
			c-0.3,0.2-0.6,0.4-1,0.5c-0.4,0.1-0.8,0.2-1.3,0.2c-0.5,0-0.9-0.1-1.3-0.2s-0.7-0.3-1-0.6c-0.3-0.3-0.5-0.6-0.6-1
			c-0.1-0.4-0.2-0.8-0.2-1.3h1.1c0,0.6,0.2,1.1,0.5,1.5c0.3,0.4,0.8,0.6,1.5,0.6c0.3,0,0.5,0,0.8-0.1c0.3-0.1,0.5-0.2,0.7-0.4
			s0.3-0.4,0.5-0.6c0.1-0.2,0.2-0.5,0.2-0.8c0-0.3-0.1-0.6-0.2-0.8s-0.3-0.4-0.4-0.6c-0.2-0.2-0.4-0.3-0.6-0.4
			c-0.2-0.1-0.5-0.1-0.8-0.1c-0.2,0-0.5,0-0.7,0v-1C195.8,4.4,195.9,4.4,195.9,4.4z"/>
		<path class="st0" d="M209.9,9.4c-0.5,0.4-1.2,0.6-2,0.6c-0.6,0-1-0.1-1.4-0.3c-0.4-0.2-0.8-0.4-1-0.8c-0.3-0.3-0.5-0.7-0.6-1.2
			c-0.1-0.4-0.2-0.9-0.2-1.5c0-0.5,0.1-1,0.2-1.5s0.4-0.8,0.7-1.1c0.3-0.3,0.6-0.6,1-0.8c0.4-0.2,0.8-0.3,1.3-0.3
			c0.6,0,1.1,0.1,1.5,0.4c0.4,0.3,0.7,0.6,1,1s0.4,0.8,0.5,1.3c0.1,0.5,0.1,0.9,0.1,1.3h-5.2c0,0.3,0,0.6,0.1,0.9s0.2,0.5,0.4,0.7
			c0.2,0.2,0.4,0.4,0.7,0.5c0.3,0.1,0.6,0.2,1,0.2c0.5,0,0.9-0.1,1.2-0.3c0.3-0.2,0.5-0.6,0.6-1h1.1C210.7,8.4,210.4,9,209.9,9.4z
			 M209.6,4.9c-0.1-0.2-0.2-0.5-0.4-0.6c-0.2-0.2-0.4-0.3-0.6-0.4s-0.5-0.2-0.8-0.2c-0.3,0-0.6,0.1-0.8,0.2
			c-0.2,0.1-0.4,0.2-0.6,0.4c-0.2,0.2-0.3,0.4-0.4,0.6c-0.1,0.2-0.2,0.5-0.2,0.8h4C209.8,5.4,209.7,5.2,209.6,4.9z"/>
		<path class="st0" d="M213.1,8.3c0.1,0.2,0.2,0.3,0.4,0.4c0.2,0.1,0.4,0.2,0.6,0.2c0.2,0,0.4,0.1,0.7,0.1c0.2,0,0.4,0,0.6,0
			c0.2,0,0.4-0.1,0.5-0.1s0.3-0.2,0.4-0.3c0.1-0.1,0.2-0.3,0.2-0.5c0-0.3-0.1-0.5-0.3-0.7c-0.2-0.2-0.5-0.3-0.8-0.4
			c-0.3-0.1-0.7-0.2-1.1-0.3s-0.8-0.2-1.1-0.3c-0.3-0.1-0.6-0.3-0.8-0.6s-0.3-0.6-0.3-1.1c0-0.4,0.1-0.7,0.2-0.9s0.4-0.5,0.6-0.6
			c0.2-0.2,0.5-0.3,0.8-0.4c0.3-0.1,0.6-0.1,0.9-0.1c0.4,0,0.8,0,1.1,0.1c0.3,0.1,0.6,0.2,0.9,0.4c0.3,0.2,0.5,0.4,0.6,0.7
			c0.2,0.3,0.2,0.6,0.3,1.1h-1.1c0-0.2-0.1-0.4-0.2-0.6c-0.1-0.1-0.2-0.3-0.4-0.4c-0.2-0.1-0.3-0.2-0.5-0.2c-0.2,0-0.4-0.1-0.6-0.1
			c-0.2,0-0.3,0-0.5,0c-0.2,0-0.3,0.1-0.5,0.1c-0.1,0.1-0.3,0.2-0.4,0.3c-0.1,0.1-0.1,0.3-0.1,0.4c0,0.2,0.1,0.4,0.2,0.5
			c0.1,0.1,0.3,0.2,0.5,0.3c0.2,0.1,0.5,0.2,0.7,0.2c0.3,0.1,0.5,0.1,0.8,0.2c0.3,0.1,0.6,0.1,0.8,0.2c0.3,0.1,0.5,0.2,0.7,0.4
			s0.4,0.3,0.5,0.6s0.2,0.5,0.2,0.8c0,0.4-0.1,0.8-0.3,1.1c-0.2,0.3-0.4,0.5-0.7,0.7c-0.3,0.2-0.6,0.3-1,0.4
			c-0.4,0.1-0.7,0.1-1.1,0.1c-0.4,0-0.8,0-1.1-0.1c-0.4-0.1-0.7-0.2-0.9-0.4c-0.3-0.2-0.5-0.4-0.6-0.7c-0.2-0.3-0.3-0.7-0.3-1.1h1.1
			C212.9,7.9,212.9,8.1,213.1,8.3z"/>
		<path class="st0" d="M223.1,4.1c-0.3-0.2-0.7-0.4-1.2-0.4c-0.4,0-0.8,0.1-1,0.2c-0.3,0.2-0.5,0.4-0.7,0.6
			c-0.2,0.3-0.3,0.5-0.4,0.9c-0.1,0.3-0.1,0.7-0.1,1c0,0.3,0,0.6,0.1,0.9c0.1,0.3,0.2,0.6,0.4,0.8c0.2,0.2,0.4,0.4,0.6,0.6
			c0.3,0.1,0.6,0.2,0.9,0.2c0.6,0,1-0.1,1.3-0.4c0.3-0.3,0.5-0.7,0.6-1.3h1.2c-0.1,0.9-0.4,1.5-1,2c-0.5,0.5-1.2,0.7-2.1,0.7
			c-0.5,0-1-0.1-1.4-0.3c-0.4-0.2-0.8-0.4-1-0.7s-0.5-0.7-0.6-1.1c-0.1-0.4-0.2-0.9-0.2-1.4s0.1-1,0.2-1.5s0.3-0.8,0.6-1.2
			c0.3-0.3,0.6-0.6,1-0.8c0.4-0.2,0.9-0.3,1.4-0.3c0.4,0,0.8,0,1.1,0.1c0.3,0.1,0.7,0.2,0.9,0.4c0.3,0.2,0.5,0.4,0.7,0.7
			c0.2,0.3,0.3,0.7,0.3,1.1h-1.2C223.6,4.7,223.4,4.3,223.1,4.1z"/>
		<path class="st0" d="M231.5,10c-0.3,0-0.5-0.1-0.7-0.3c-0.2-0.2-0.3-0.4-0.3-0.8c-0.3,0.4-0.7,0.6-1.1,0.8
			c-0.4,0.2-0.9,0.3-1.4,0.3c-0.3,0-0.6,0-0.9-0.1c-0.3-0.1-0.5-0.2-0.7-0.3c-0.2-0.2-0.4-0.4-0.5-0.6c-0.1-0.2-0.2-0.5-0.2-0.9
			c0-0.4,0.1-0.7,0.2-1s0.3-0.5,0.5-0.6s0.5-0.3,0.8-0.4s0.6-0.1,0.9-0.2c0.3-0.1,0.6-0.1,0.9-0.1c0.3,0,0.5-0.1,0.7-0.1
			s0.4-0.1,0.5-0.3s0.2-0.3,0.2-0.5c0-0.3,0-0.5-0.1-0.6c-0.1-0.2-0.2-0.3-0.4-0.4c-0.1-0.1-0.3-0.1-0.5-0.2c-0.2,0-0.4,0-0.5,0
			c-0.5,0-0.9,0.1-1.2,0.3c-0.3,0.2-0.5,0.5-0.5,1H226c0-0.4,0.1-0.8,0.3-1.1c0.2-0.3,0.4-0.5,0.6-0.7c0.3-0.2,0.6-0.3,0.9-0.4
			s0.7-0.1,1.1-0.1c0.3,0,0.6,0,0.9,0.1c0.3,0,0.6,0.1,0.8,0.3c0.3,0.1,0.5,0.3,0.6,0.6c0.2,0.3,0.2,0.6,0.2,1v3.6
			c0,0.3,0,0.5,0,0.6c0,0.1,0.1,0.2,0.3,0.2c0.1,0,0.2,0,0.4-0.1v0.9C232.1,9.9,231.9,10,231.5,10z M229.9,6.5
			c-0.2,0-0.5,0.1-0.7,0.1c-0.3,0-0.5,0.1-0.8,0.1s-0.5,0.1-0.7,0.2c-0.2,0.1-0.4,0.2-0.5,0.4C227.1,7.5,227,7.7,227,8
			c0,0.2,0,0.3,0.1,0.5c0.1,0.1,0.2,0.2,0.3,0.3c0.1,0.1,0.3,0.1,0.4,0.2c0.2,0,0.3,0.1,0.5,0.1c0.4,0,0.7-0.1,1-0.2
			c0.3-0.1,0.5-0.2,0.7-0.4c0.2-0.2,0.3-0.3,0.4-0.5c0.1-0.2,0.1-0.4,0.1-0.5V6.3C230.3,6.4,230.1,6.4,229.9,6.5z"/>
		<path class="st0" d="M234.6,0.2v9.6h-1.1V0.2H234.6z"/>
		<path class="st0" d="M241.7,10c-0.3,0-0.5-0.1-0.7-0.3c-0.2-0.2-0.3-0.4-0.3-0.8c-0.3,0.4-0.7,0.6-1.1,0.8
			c-0.4,0.2-0.9,0.3-1.4,0.3c-0.3,0-0.6,0-0.9-0.1c-0.3-0.1-0.5-0.2-0.7-0.3c-0.2-0.2-0.4-0.4-0.5-0.6c-0.1-0.2-0.2-0.5-0.2-0.9
			c0-0.4,0.1-0.7,0.2-1s0.3-0.5,0.5-0.6s0.5-0.3,0.8-0.4s0.6-0.1,0.9-0.2c0.3-0.1,0.6-0.1,0.9-0.1c0.3,0,0.5-0.1,0.7-0.1
			s0.4-0.1,0.5-0.3s0.2-0.3,0.2-0.5c0-0.3,0-0.5-0.1-0.6c-0.1-0.2-0.2-0.3-0.4-0.4c-0.1-0.1-0.3-0.1-0.5-0.2c-0.2,0-0.4,0-0.5,0
			c-0.5,0-0.9,0.1-1.2,0.3c-0.3,0.2-0.5,0.5-0.5,1h-1.1c0-0.4,0.1-0.8,0.3-1.1c0.2-0.3,0.4-0.5,0.6-0.7c0.3-0.2,0.6-0.3,0.9-0.4
			s0.7-0.1,1.1-0.1c0.3,0,0.6,0,0.9,0.1c0.3,0,0.6,0.1,0.8,0.3c0.3,0.1,0.5,0.3,0.6,0.6c0.2,0.3,0.2,0.6,0.2,1v3.6
			c0,0.3,0,0.5,0,0.6c0,0.1,0.1,0.2,0.3,0.2c0.1,0,0.2,0,0.4-0.1v0.9C242.4,9.9,242.1,10,241.7,10z M240.1,6.5
			c-0.2,0-0.5,0.1-0.7,0.1c-0.3,0-0.5,0.1-0.8,0.1s-0.5,0.1-0.7,0.2c-0.2,0.1-0.4,0.2-0.5,0.4c-0.1,0.2-0.2,0.4-0.2,0.7
			c0,0.2,0,0.3,0.1,0.5c0.1,0.1,0.2,0.2,0.3,0.3c0.1,0.1,0.3,0.1,0.4,0.2c0.2,0,0.3,0.1,0.5,0.1c0.4,0,0.7-0.1,1-0.2
			c0.3-0.1,0.5-0.2,0.7-0.4c0.2-0.2,0.3-0.3,0.4-0.5c0.1-0.2,0.1-0.4,0.1-0.5V6.3C240.6,6.4,240.4,6.4,240.1,6.5z"/>
		<path class="st0" d="M244.5,8.3c0.1,0.2,0.2,0.3,0.4,0.4c0.2,0.1,0.4,0.2,0.6,0.2c0.2,0,0.4,0.1,0.7,0.1c0.2,0,0.4,0,0.6,0
			c0.2,0,0.4-0.1,0.5-0.1s0.3-0.2,0.4-0.3c0.1-0.1,0.2-0.3,0.2-0.5c0-0.3-0.1-0.5-0.3-0.7c-0.2-0.2-0.5-0.3-0.8-0.4
			c-0.3-0.1-0.7-0.2-1.1-0.3s-0.8-0.2-1.1-0.3c-0.3-0.1-0.6-0.3-0.8-0.6s-0.3-0.6-0.3-1.1c0-0.4,0.1-0.7,0.2-0.9s0.4-0.5,0.6-0.6
			c0.2-0.2,0.5-0.3,0.8-0.4c0.3-0.1,0.6-0.1,0.9-0.1c0.4,0,0.8,0,1.1,0.1c0.3,0.1,0.6,0.2,0.9,0.4c0.3,0.2,0.5,0.4,0.6,0.7
			c0.2,0.3,0.2,0.6,0.3,1.1h-1.1c0-0.2-0.1-0.4-0.2-0.6c-0.1-0.1-0.2-0.3-0.4-0.4c-0.2-0.1-0.3-0.2-0.5-0.2c-0.2,0-0.4-0.1-0.6-0.1
			c-0.2,0-0.3,0-0.5,0c-0.2,0-0.3,0.1-0.5,0.1c-0.1,0.1-0.3,0.2-0.4,0.3c-0.1,0.1-0.1,0.3-0.1,0.4c0,0.2,0.1,0.4,0.2,0.5
			c0.1,0.1,0.3,0.2,0.5,0.3c0.2,0.1,0.5,0.2,0.7,0.2c0.3,0.1,0.5,0.1,0.8,0.2c0.3,0.1,0.6,0.1,0.8,0.2c0.3,0.1,0.5,0.2,0.7,0.4
			s0.4,0.3,0.5,0.6s0.2,0.5,0.2,0.8c0,0.4-0.1,0.8-0.3,1.1c-0.2,0.3-0.4,0.5-0.7,0.7c-0.3,0.2-0.6,0.3-1,0.4
			c-0.4,0.1-0.7,0.1-1.1,0.1c-0.4,0-0.8,0-1.1-0.1c-0.4-0.1-0.7-0.2-0.9-0.4c-0.3-0.2-0.5-0.4-0.6-0.7c-0.2-0.3-0.3-0.7-0.3-1.1h1.1
			C244.3,7.9,244.4,8.1,244.5,8.3z"/>
	</g>
</g>
</svg>
