<!-- Generator: Adobe Illustrator 20.1.0, SVG Export Plug-In  -->
<svg version="1.1"
	 xmlns="http://www.w3.org/2000/svg" xmlns:xlink="http://www.w3.org/1999/xlink" xmlns:a="http://ns.adobe.com/AdobeSVGViewerExtensions/3.0/"
	 x="0px" y="0px" width="145.2px" height="13.8px" viewBox="0 0 145.2 13.8"
	 style="overflow:scroll;enable-background:new 0 0 145.2 13.8;" xml:space="preserve">
<style type="text/css">
	.st0{fill:#F18A21;}
</style>
<defs>
</defs>
<g>
	<g>
		<path class="st0" d="M3.2,2.3H0v-2h8.8v2H5.6V11H3.2V2.3z"/>
		<path class="st0" d="M12,3.2h2v1.5h0c0.1-0.2,0.2-0.5,0.4-0.7c0.2-0.2,0.4-0.4,0.6-0.5c0.2-0.1,0.5-0.3,0.7-0.3
			C16,3.1,16.3,3,16.5,3c0.2,0,0.3,0,0.5,0.1v2c-0.1,0-0.2,0-0.4-0.1c-0.1,0-0.3,0-0.4,0c-0.4,0-0.7,0.1-1,0.2
			c-0.3,0.1-0.5,0.3-0.7,0.5s-0.3,0.5-0.4,0.8c-0.1,0.3-0.1,0.6-0.1,1V11H12V3.2z"/>
		<path class="st0" d="M19.9,5.6c0-0.5,0.2-0.9,0.4-1.3c0.2-0.3,0.5-0.6,0.8-0.8c0.3-0.2,0.7-0.3,1.1-0.4S23.1,3,23.5,3
			c0.4,0,0.8,0,1.2,0.1c0.4,0.1,0.8,0.2,1.1,0.3s0.6,0.4,0.8,0.7C26.9,4.4,27,4.8,27,5.2v4.1c0,0.4,0,0.7,0.1,1s0.1,0.6,0.2,0.7
			h-2.2c0-0.1-0.1-0.2-0.1-0.4c0-0.1,0-0.3-0.1-0.4c-0.3,0.4-0.7,0.6-1.2,0.7c-0.5,0.1-0.9,0.2-1.4,0.2c-0.4,0-0.7,0-1-0.1
			s-0.6-0.2-0.8-0.4c-0.2-0.2-0.4-0.4-0.6-0.7s-0.2-0.6-0.2-1c0-0.4,0.1-0.8,0.2-1.1s0.4-0.5,0.6-0.7C20.7,7,21,6.8,21.3,6.7
			c0.3-0.1,0.6-0.2,1-0.2c0.3-0.1,0.6-0.1,1-0.1c0.3,0,0.6-0.1,0.8-0.1s0.4-0.1,0.6-0.3c0.1-0.1,0.2-0.3,0.2-0.5
			c0-0.2,0-0.4-0.1-0.6c-0.1-0.1-0.2-0.2-0.3-0.3c-0.1-0.1-0.3-0.1-0.4-0.2c-0.2,0-0.3,0-0.5,0c-0.4,0-0.7,0.1-1,0.3
			c-0.2,0.2-0.4,0.5-0.4,0.9H19.9z M24.8,7.2c-0.1,0.1-0.2,0.1-0.3,0.2c-0.1,0-0.3,0.1-0.4,0.1s-0.3,0.1-0.5,0.1
			c-0.2,0-0.3,0-0.5,0.1c-0.2,0-0.3,0.1-0.5,0.1c-0.2,0-0.3,0.1-0.4,0.2c-0.1,0.1-0.2,0.2-0.3,0.3s-0.1,0.3-0.1,0.5
			c0,0.2,0,0.4,0.1,0.5c0.1,0.1,0.2,0.2,0.3,0.3s0.3,0.1,0.4,0.2s0.3,0,0.5,0c0.4,0,0.8-0.1,1-0.2c0.2-0.1,0.4-0.3,0.5-0.5
			s0.2-0.4,0.2-0.6s0-0.4,0-0.5V7.2z"/>
		<path class="st0" d="M30.7,0.3h2.1v3.9h0c0.3-0.4,0.6-0.7,1.1-0.9C34.4,3.1,34.9,3,35.4,3c0.4,0,0.8,0.1,1.2,0.2s0.7,0.4,1,0.7
			c0.3,0.3,0.6,0.8,0.7,1.3s0.3,1.1,0.3,1.9S38.5,8.5,38.3,9s-0.4,0.9-0.7,1.3c-0.3,0.3-0.7,0.6-1,0.7s-0.8,0.2-1.2,0.2
			c-0.6,0-1.1-0.1-1.5-0.3s-0.8-0.5-1-0.9h0v1h-2V0.3z M36.5,7.1c0-0.3,0-0.7-0.1-1S36.2,5.6,36,5.4c-0.2-0.2-0.3-0.4-0.6-0.6
			c-0.2-0.1-0.5-0.2-0.8-0.2c-0.3,0-0.6,0.1-0.8,0.2c-0.2,0.1-0.4,0.3-0.6,0.6c-0.2,0.2-0.3,0.5-0.3,0.8s-0.1,0.6-0.1,1
			c0,0.3,0,0.6,0.1,0.9c0.1,0.3,0.2,0.6,0.3,0.8c0.2,0.2,0.3,0.4,0.6,0.6c0.2,0.1,0.5,0.2,0.8,0.2c0.3,0,0.6-0.1,0.8-0.2
			s0.4-0.3,0.6-0.6c0.2-0.2,0.3-0.5,0.3-0.8C36.4,7.8,36.5,7.5,36.5,7.1z"/>
		<path class="st0" d="M42,5.6c0-0.5,0.2-0.9,0.4-1.3c0.2-0.3,0.5-0.6,0.8-0.8c0.3-0.2,0.7-0.3,1.1-0.4S45.2,3,45.7,3
			c0.4,0,0.8,0,1.2,0.1c0.4,0.1,0.8,0.2,1.1,0.3s0.6,0.4,0.8,0.7c0.2,0.3,0.3,0.7,0.3,1.1v4.1c0,0.4,0,0.7,0.1,1s0.1,0.6,0.2,0.7
			h-2.2c0-0.1-0.1-0.2-0.1-0.4c0-0.1,0-0.3-0.1-0.4c-0.3,0.4-0.7,0.6-1.2,0.7c-0.5,0.1-0.9,0.2-1.4,0.2c-0.4,0-0.7,0-1-0.1
			s-0.6-0.2-0.8-0.4c-0.2-0.2-0.4-0.4-0.6-0.7s-0.2-0.6-0.2-1c0-0.4,0.1-0.8,0.2-1.1s0.4-0.5,0.6-0.7c0.3-0.2,0.5-0.3,0.9-0.4
			c0.3-0.1,0.6-0.2,1-0.2c0.3-0.1,0.6-0.1,1-0.1c0.3,0,0.6-0.1,0.8-0.1s0.4-0.1,0.6-0.3C46.9,5.9,47,5.7,47,5.5c0-0.2,0-0.4-0.1-0.6
			c-0.1-0.1-0.2-0.2-0.3-0.3c-0.1-0.1-0.3-0.1-0.4-0.2c-0.2,0-0.3,0-0.5,0c-0.4,0-0.7,0.1-1,0.3c-0.2,0.2-0.4,0.5-0.4,0.9H42z
			 M47,7.2c-0.1,0.1-0.2,0.1-0.3,0.2c-0.1,0-0.3,0.1-0.4,0.1s-0.3,0.1-0.5,0.1c-0.2,0-0.3,0-0.5,0.1c-0.2,0-0.3,0.1-0.5,0.1
			c-0.2,0-0.3,0.1-0.4,0.2c-0.1,0.1-0.2,0.2-0.3,0.3s-0.1,0.3-0.1,0.5c0,0.2,0,0.4,0.1,0.5c0.1,0.1,0.2,0.2,0.3,0.3s0.3,0.1,0.4,0.2
			s0.3,0,0.5,0c0.4,0,0.8-0.1,1-0.2c0.2-0.1,0.4-0.3,0.5-0.5s0.2-0.4,0.2-0.6s0-0.4,0-0.5V7.2z"/>
		<path class="st0" d="M51.8,12c0.1,0,0.3,0.1,0.5,0.1c0.2,0,0.4,0,0.6-0.1c0.2-0.1,0.2-0.3,0.2-0.6V3.2h2.1v8.2c0,0.4,0,0.8-0.1,1
			c-0.1,0.3-0.2,0.5-0.4,0.7s-0.5,0.3-0.8,0.4s-0.8,0.1-1.3,0.1c-0.1,0-0.2,0-0.3,0c-0.1,0-0.2,0-0.3,0V12z M55.2,2h-2.1V0.3h2.1V2z
			"/>
		<path class="st0" d="M58.9,7.1c0-0.6,0.1-1.2,0.3-1.7c0.2-0.5,0.5-0.9,0.8-1.3s0.8-0.6,1.3-0.8C61.8,3.1,62.4,3,63,3
			s1.2,0.1,1.7,0.3c0.5,0.2,0.9,0.5,1.3,0.8s0.6,0.8,0.8,1.3C66.9,6,67,6.5,67,7.1c0,0.6-0.1,1.2-0.3,1.7c-0.2,0.5-0.5,0.9-0.8,1.3
			s-0.8,0.6-1.3,0.8c-0.5,0.2-1.1,0.3-1.7,0.3s-1.2-0.1-1.7-0.3c-0.5-0.2-0.9-0.5-1.3-0.8s-0.6-0.8-0.8-1.3
			C59,8.3,58.9,7.8,58.9,7.1z M61.1,7.1c0,0.3,0,0.6,0.1,0.9c0.1,0.3,0.2,0.6,0.3,0.8c0.1,0.2,0.3,0.4,0.6,0.6
			c0.2,0.1,0.5,0.2,0.9,0.2c0.4,0,0.7-0.1,0.9-0.2c0.2-0.1,0.4-0.3,0.6-0.6c0.1-0.2,0.2-0.5,0.3-0.8c0.1-0.3,0.1-0.6,0.1-0.9
			c0-0.3,0-0.6-0.1-0.9c-0.1-0.3-0.2-0.6-0.3-0.8c-0.1-0.2-0.3-0.4-0.6-0.6S63.3,4.6,63,4.6c-0.4,0-0.7,0.1-0.9,0.2
			c-0.2,0.1-0.4,0.3-0.6,0.6c-0.1,0.2-0.3,0.5-0.3,0.8C61.1,6.5,61.1,6.8,61.1,7.1z"/>
		<path class="st0" d="M73.8,0h1.7l-4.2,11.3h-1.7L73.8,0z"/>
		<path class="st0" d="M80,7.7c0,0.7,0.2,1.2,0.5,1.5s0.8,0.5,1.4,0.5c0.4,0,0.8-0.1,1.1-0.3c0.3-0.2,0.5-0.4,0.6-0.7h1.9
			c-0.3,0.9-0.8,1.6-1.4,2s-1.4,0.6-2.3,0.6c-0.6,0-1.2-0.1-1.7-0.3s-0.9-0.5-1.3-0.8c-0.3-0.4-0.6-0.8-0.8-1.3
			c-0.2-0.5-0.3-1.1-0.3-1.7c0-0.6,0.1-1.1,0.3-1.6C78.4,5,78.6,4.6,79,4.2c0.4-0.4,0.8-0.7,1.3-0.9c0.5-0.2,1-0.3,1.6-0.3
			c0.7,0,1.2,0.1,1.7,0.4c0.5,0.3,0.9,0.6,1.2,1c0.3,0.4,0.5,0.9,0.7,1.5c0.1,0.6,0.2,1.1,0.2,1.7H80z M83.5,6.3
			c-0.1-0.5-0.3-1-0.5-1.2s-0.6-0.4-1.2-0.4c-0.3,0-0.6,0.1-0.9,0.2c-0.2,0.1-0.4,0.3-0.5,0.4c-0.1,0.2-0.2,0.4-0.3,0.5
			C80.1,6,80,6.1,80,6.3H83.5z"/>
		<path class="st0" d="M90.7,8.5c0,0.2,0,0.4,0.1,0.6s0.2,0.3,0.4,0.4c0.2,0.1,0.3,0.2,0.5,0.2c0.2,0.1,0.4,0.1,0.6,0.1
			c0.2,0,0.3,0,0.5-0.1c0.2,0,0.3-0.1,0.5-0.2c0.1-0.1,0.2-0.2,0.3-0.3s0.1-0.3,0.1-0.5c0-0.2-0.1-0.3-0.2-0.4
			c-0.1-0.1-0.3-0.2-0.5-0.3c-0.2-0.1-0.5-0.2-0.8-0.2c-0.3-0.1-0.6-0.2-1-0.2c-0.3-0.1-0.6-0.2-0.9-0.2S89.8,7.1,89.6,7
			s-0.4-0.4-0.6-0.6c-0.1-0.2-0.2-0.5-0.2-0.9c0-0.5,0.1-0.9,0.3-1.2c0.2-0.3,0.5-0.6,0.8-0.8c0.3-0.2,0.7-0.3,1.1-0.4
			C91.4,3.1,91.8,3,92.2,3s0.8,0,1.2,0.1c0.4,0.1,0.8,0.2,1.1,0.4c0.3,0.2,0.6,0.4,0.8,0.8s0.3,0.7,0.4,1.2h-2
			c0-0.4-0.2-0.7-0.5-0.8c-0.3-0.1-0.6-0.2-1-0.2c-0.1,0-0.3,0-0.4,0c-0.1,0-0.3,0-0.4,0.1c-0.1,0-0.2,0.1-0.3,0.2
			C91,4.9,91,5,91,5.2c0,0.2,0.1,0.3,0.2,0.5c0.1,0.1,0.3,0.2,0.6,0.3C92,6,92.2,6.1,92.5,6.1c0.3,0.1,0.6,0.1,0.9,0.2
			c0.3,0.1,0.6,0.2,0.9,0.3c0.3,0.1,0.6,0.2,0.8,0.4c0.2,0.2,0.4,0.4,0.6,0.6s0.2,0.6,0.2,0.9c0,0.5-0.1,0.9-0.3,1.3
			c-0.2,0.3-0.5,0.6-0.8,0.8s-0.7,0.4-1.1,0.5c-0.4,0.1-0.9,0.1-1.3,0.1c-0.5,0-0.9,0-1.3-0.1c-0.4-0.1-0.8-0.2-1.2-0.5
			c-0.3-0.2-0.6-0.5-0.8-0.9S88.7,9,88.7,8.5H90.7z"/>
		<path class="st0" d="M104.6,6c-0.1-0.9-0.7-1.3-1.6-1.3c-0.3,0-0.6,0.1-0.9,0.2c-0.2,0.2-0.4,0.4-0.6,0.6
			c-0.1,0.2-0.3,0.5-0.3,0.8c-0.1,0.3-0.1,0.6-0.1,0.9c0,0.3,0,0.6,0.1,0.9c0.1,0.3,0.2,0.6,0.3,0.8c0.1,0.2,0.3,0.4,0.6,0.6
			c0.2,0.2,0.5,0.2,0.8,0.2c0.5,0,0.9-0.1,1.2-0.4c0.3-0.3,0.5-0.7,0.5-1.2h2.1c-0.1,1-0.5,1.8-1.2,2.4s-1.5,0.8-2.6,0.8
			c-0.6,0-1.1-0.1-1.6-0.3s-0.9-0.5-1.2-0.8c-0.3-0.4-0.6-0.8-0.8-1.3c-0.2-0.5-0.3-1-0.3-1.6c0-0.6,0.1-1.2,0.3-1.7
			c0.2-0.5,0.4-1,0.8-1.3c0.3-0.4,0.8-0.7,1.3-0.9c0.5-0.2,1.1-0.3,1.7-0.3c0.5,0,0.9,0.1,1.3,0.2c0.4,0.1,0.8,0.3,1.1,0.6
			c0.3,0.2,0.6,0.6,0.8,0.9c0.2,0.4,0.3,0.8,0.4,1.3H104.6z"/>
		<path class="st0" d="M117.4,11h-2V10h0c-0.3,0.4-0.6,0.8-1.1,1c-0.4,0.2-0.9,0.3-1.3,0.3c-0.6,0-1-0.1-1.4-0.2
			c-0.4-0.2-0.7-0.4-0.9-0.7c-0.2-0.3-0.4-0.6-0.4-1c-0.1-0.4-0.1-0.8-0.1-1.3V3.2h2.1v4.4c0,0.6,0.1,1.1,0.3,1.4
			c0.2,0.3,0.6,0.5,1.1,0.5c0.6,0,1-0.2,1.3-0.5s0.4-0.9,0.4-1.7V3.2h2.1V11z"/>
		<path class="st0" d="M122.9,7.7c0,0.7,0.2,1.2,0.5,1.5s0.8,0.5,1.4,0.5c0.4,0,0.8-0.1,1.1-0.3c0.3-0.2,0.5-0.4,0.6-0.7h1.9
			c-0.3,0.9-0.8,1.6-1.4,2s-1.4,0.6-2.3,0.6c-0.6,0-1.2-0.1-1.7-0.3s-0.9-0.5-1.3-0.8c-0.3-0.4-0.6-0.8-0.8-1.3
			c-0.2-0.5-0.3-1.1-0.3-1.7c0-0.6,0.1-1.1,0.3-1.6c0.2-0.5,0.5-0.9,0.8-1.3c0.4-0.4,0.8-0.7,1.3-0.9c0.5-0.2,1-0.3,1.6-0.3
			c0.7,0,1.2,0.1,1.7,0.4c0.5,0.3,0.9,0.6,1.2,1c0.3,0.4,0.5,0.9,0.7,1.5c0.1,0.6,0.2,1.1,0.2,1.7H122.9z M126.4,6.3
			c-0.1-0.5-0.3-1-0.5-1.2s-0.6-0.4-1.2-0.4c-0.3,0-0.6,0.1-0.9,0.2c-0.2,0.1-0.4,0.3-0.5,0.4c-0.1,0.2-0.2,0.4-0.3,0.5
			c-0.1,0.2-0.1,0.4-0.1,0.5H126.4z"/>
		<path class="st0" d="M132,0.3h2.1V11H132V0.3z"/>
		<path class="st0" d="M137.8,5.6c0-0.5,0.2-0.9,0.4-1.3c0.2-0.3,0.5-0.6,0.8-0.8c0.3-0.2,0.7-0.3,1.1-0.4s0.9-0.1,1.3-0.1
			c0.4,0,0.8,0,1.2,0.1c0.4,0.1,0.8,0.2,1.1,0.3s0.6,0.4,0.8,0.7c0.2,0.3,0.3,0.7,0.3,1.1v4.1c0,0.4,0,0.7,0.1,1s0.1,0.6,0.2,0.7
			H143c0-0.1-0.1-0.2-0.1-0.4c0-0.1,0-0.3-0.1-0.4c-0.3,0.4-0.7,0.6-1.2,0.7c-0.5,0.1-0.9,0.2-1.4,0.2c-0.4,0-0.7,0-1-0.1
			s-0.6-0.2-0.8-0.4c-0.2-0.2-0.4-0.4-0.6-0.7s-0.2-0.6-0.2-1c0-0.4,0.1-0.8,0.2-1.1s0.4-0.5,0.6-0.7c0.3-0.2,0.5-0.3,0.9-0.4
			c0.3-0.1,0.6-0.2,1-0.2c0.3-0.1,0.6-0.1,1-0.1c0.3,0,0.6-0.1,0.8-0.1s0.4-0.1,0.6-0.3c0.1-0.1,0.2-0.3,0.2-0.5
			c0-0.2,0-0.4-0.1-0.6c-0.1-0.1-0.2-0.2-0.3-0.3c-0.1-0.1-0.3-0.1-0.4-0.2c-0.2,0-0.3,0-0.5,0c-0.4,0-0.7,0.1-1,0.3
			c-0.2,0.2-0.4,0.5-0.4,0.9H137.8z M142.8,7.2c-0.1,0.1-0.2,0.1-0.3,0.2c-0.1,0-0.3,0.1-0.4,0.1s-0.3,0.1-0.5,0.1
			c-0.2,0-0.3,0-0.5,0.1c-0.2,0-0.3,0.1-0.5,0.1c-0.2,0-0.3,0.1-0.4,0.2c-0.1,0.1-0.2,0.2-0.3,0.3s-0.1,0.3-0.1,0.5
			c0,0.2,0,0.4,0.1,0.5c0.1,0.1,0.2,0.2,0.3,0.3s0.3,0.1,0.4,0.2s0.3,0,0.5,0c0.4,0,0.8-0.1,1-0.2c0.2-0.1,0.4-0.3,0.5-0.5
			s0.2-0.4,0.2-0.6s0-0.4,0-0.5V7.2z"/>
	</g>
</g>
</svg>
