<!-- Generator: Adobe Illustrator 20.1.0, SVG Export Plug-In  -->
<svg version="1.1"
	 xmlns="http://www.w3.org/2000/svg" xmlns:xlink="http://www.w3.org/1999/xlink" xmlns:a="http://ns.adobe.com/AdobeSVGViewerExtensions/3.0/"
	 x="0px" y="0px" width="159.5px" height="29.7px" viewBox="0 0 159.5 29.7"
	 style="overflow:scroll;enable-background:new 0 0 159.5 29.7;" xml:space="preserve">
<style type="text/css">
	.st0{fill:#333333;}
</style>
<defs>
</defs>
<g>
	<g>
		<path class="st0" d="M1.7,3v1.3h0c0.5-1,1.4-1.4,2.6-1.4c0.5,0,1,0.1,1.3,0.2c0.3,0.1,0.6,0.3,0.8,0.6c0.2,0.3,0.4,0.6,0.5,0.9
			S7,5.3,7,5.8V11H5.7V5.6c0-0.5-0.1-0.9-0.4-1.2C5,4.2,4.6,4,4.1,4c-0.4,0-0.7,0.1-1,0.2S2.5,4.5,2.3,4.7C2.1,4.9,2,5.2,1.9,5.5
			s-0.1,0.6-0.1,1V11H0.4V3H1.7z"/>
		<path class="st0" d="M8.8,6.1V5h7.8v1H8.8z M16.5,8.1v1H8.8v-1H16.5z"/>
		<path class="st0" d="M21.4,11V3.2h-2.8v-1c0.4,0,0.7,0,1.1-0.1C20,2,20.4,1.9,20.6,1.7s0.5-0.4,0.7-0.6s0.3-0.6,0.4-1h1V11H21.4z"
			/>
		<path class="st0" d="M26.5,4.4c0-0.4,0.1-0.9,0.2-1.3C26.8,2.7,26.9,2.3,27,2s0.4-0.7,0.6-1c0.3-0.3,0.6-0.5,1-0.7
			c0.4-0.2,0.9-0.2,1.5-0.2c0.6,0,1.1,0.1,1.5,0.2c0.4,0.2,0.7,0.4,1,0.7c0.3,0.3,0.5,0.6,0.6,1s0.3,0.8,0.4,1.2
			c0.1,0.4,0.1,0.8,0.2,1.3c0,0.4,0,0.8,0,1.2c0,0.4,0,0.8,0,1.2c0,0.4-0.1,0.9-0.2,1.3c-0.1,0.4-0.2,0.8-0.4,1.2
			c-0.2,0.4-0.4,0.7-0.6,1c-0.3,0.3-0.6,0.5-1,0.7s-0.9,0.2-1.5,0.2c-0.6,0-1.1-0.1-1.5-0.2c-0.4-0.2-0.7-0.4-1-0.7
			c-0.3-0.3-0.5-0.6-0.6-1c-0.2-0.4-0.3-0.8-0.4-1.2c-0.1-0.4-0.1-0.8-0.2-1.3s0-0.8,0-1.2C26.5,5.2,26.5,4.8,26.5,4.4z M27.9,7
			c0,0.5,0.1,1,0.2,1.4c0.1,0.4,0.4,0.8,0.7,1.1c0.3,0.3,0.7,0.5,1.3,0.5c0.6,0,1-0.2,1.3-0.5c0.3-0.3,0.5-0.7,0.7-1.1
			C32.2,8,32.3,7.5,32.3,7c0-0.5,0-1,0-1.4c0-0.3,0-0.6,0-0.9c0-0.3,0-0.6-0.1-1c0-0.3-0.1-0.6-0.2-0.9S31.9,2.2,31.7,2
			s-0.4-0.4-0.6-0.6c-0.3-0.1-0.6-0.2-0.9-0.2c-0.4,0-0.7,0.1-0.9,0.2c-0.3,0.1-0.5,0.3-0.6,0.6c-0.2,0.2-0.3,0.5-0.4,0.8
			C28.1,3.1,28,3.4,28,3.8c0,0.3-0.1,0.6-0.1,1c0,0.3,0,0.6,0,0.9C27.9,6,27.9,6.5,27.9,7z"/>
		<path class="st0" d="M38.6,11V3.2h-2.8v-1c0.4,0,0.7,0,1.1-0.1c0.3-0.1,0.7-0.2,0.9-0.3s0.5-0.4,0.7-0.6s0.3-0.6,0.4-1h1V11H38.6z
			"/>
		<path class="st0" d="M48.3,1.6V0h1.3v1.6H48.3z M49.6,3v8h-1.3V3H49.6z"/>
		<path class="st0" d="M52.9,3v1.3h0c0.5-1,1.4-1.4,2.6-1.4c0.5,0,1,0.1,1.3,0.2c0.3,0.1,0.6,0.3,0.8,0.6c0.2,0.3,0.4,0.6,0.5,0.9
			s0.1,0.7,0.1,1.2V11H57V5.6c0-0.5-0.1-0.9-0.4-1.2C56.2,4.2,55.8,4,55.3,4c-0.4,0-0.7,0.1-1,0.2s-0.5,0.3-0.7,0.5
			c-0.2,0.2-0.3,0.5-0.4,0.8S53,6.1,53,6.5V11h-1.3V3H52.9z"/>
		<path class="st0" d="M66.1,11V9.9h0c-0.2,0.4-0.6,0.8-1,1s-1,0.3-1.5,0.3c-0.6,0-1.2-0.1-1.6-0.3c-0.5-0.2-0.8-0.5-1.1-0.9
			S60.2,9.1,60,8.6c-0.2-0.5-0.2-1-0.2-1.6c0-0.6,0.1-1.1,0.2-1.6c0.1-0.5,0.4-0.9,0.7-1.3c0.3-0.4,0.7-0.7,1.1-0.9
			c0.5-0.2,1-0.3,1.6-0.3c0.2,0,0.4,0,0.7,0.1c0.2,0,0.5,0.1,0.7,0.2s0.5,0.2,0.7,0.4c0.2,0.2,0.4,0.4,0.5,0.6h0V0h1.3v11H66.1z
			 M61.4,8.2c0.1,0.4,0.2,0.7,0.4,0.9c0.2,0.3,0.5,0.5,0.8,0.7c0.3,0.2,0.7,0.2,1.1,0.2c0.4,0,0.8-0.1,1.1-0.3
			c0.3-0.2,0.6-0.4,0.8-0.7c0.2-0.3,0.3-0.6,0.4-1s0.1-0.7,0.1-1.1c0-0.4,0-0.8-0.1-1.1c-0.1-0.4-0.2-0.7-0.4-1
			c-0.2-0.3-0.5-0.5-0.8-0.7C64.4,4.1,64,4,63.6,4c-0.4,0-0.8,0.1-1.1,0.3c-0.3,0.2-0.6,0.4-0.7,0.7c-0.2,0.3-0.3,0.6-0.4,1
			c-0.1,0.4-0.1,0.8-0.1,1.1C61.2,7.5,61.3,7.8,61.4,8.2z"/>
		<path class="st0" d="M69.5,1.6V0h1.3v1.6H69.5z M70.8,3v8h-1.3V3H70.8z"/>
		<path class="st0" d="M75,11l-3-8h1.5l2.2,6.6h0L77.9,3h1.4l-2.9,8H75z"/>
		<path class="st0" d="M80.6,1.6V0h1.3v1.6H80.6z M81.9,3v8h-1.3V3H81.9z"/>
		<path class="st0" d="M89.8,11V9.9h0c-0.2,0.4-0.6,0.8-1,1s-1,0.3-1.5,0.3c-0.6,0-1.2-0.1-1.6-0.3c-0.5-0.2-0.8-0.5-1.1-0.9
			s-0.5-0.8-0.7-1.3c-0.2-0.5-0.2-1-0.2-1.6c0-0.6,0.1-1.1,0.2-1.6c0.1-0.5,0.4-0.9,0.7-1.3c0.3-0.4,0.7-0.7,1.1-0.9
			c0.5-0.2,1-0.3,1.6-0.3c0.2,0,0.4,0,0.7,0.1c0.2,0,0.5,0.1,0.7,0.2s0.5,0.2,0.7,0.4c0.2,0.2,0.4,0.4,0.5,0.6h0V0h1.3v11H89.8z
			 M85,8.2c0.1,0.4,0.2,0.7,0.4,0.9c0.2,0.3,0.5,0.5,0.8,0.7c0.3,0.2,0.7,0.2,1.1,0.2c0.4,0,0.8-0.1,1.1-0.3
			c0.3-0.2,0.6-0.4,0.8-0.7c0.2-0.3,0.3-0.6,0.4-1s0.1-0.7,0.1-1.1c0-0.4,0-0.8-0.1-1.1c-0.1-0.4-0.2-0.7-0.4-1
			c-0.2-0.3-0.5-0.5-0.8-0.7C88.1,4.1,87.7,4,87.3,4c-0.4,0-0.8,0.1-1.1,0.3c-0.3,0.2-0.6,0.4-0.7,0.7c-0.2,0.3-0.3,0.6-0.4,1
			c-0.1,0.4-0.1,0.8-0.1,1.1C84.9,7.5,84.9,7.8,85,8.2z"/>
		<path class="st0" d="M98.5,11V9.7h0c-0.3,0.5-0.6,0.9-1.1,1.1c-0.4,0.2-0.9,0.3-1.5,0.3c-0.5,0-1-0.1-1.3-0.2
			c-0.3-0.1-0.6-0.3-0.8-0.6s-0.4-0.6-0.5-0.9c-0.1-0.4-0.1-0.7-0.1-1.2V3h1.3v5.4c0,0.5,0.1,0.9,0.4,1.2C95.1,9.9,95.5,10,96,10
			c0.4,0,0.7-0.1,1-0.2s0.5-0.3,0.7-0.5c0.2-0.2,0.3-0.5,0.4-0.8c0.1-0.3,0.1-0.6,0.1-1V3h1.3v8H98.5z"/>
		<path class="st0" d="M101.5,5.4c0.2-0.5,0.4-1,0.7-1.3s0.7-0.7,1.2-0.9c0.5-0.2,1-0.3,1.7-0.3c0.6,0,1.2,0.1,1.7,0.3
			c0.5,0.2,0.9,0.5,1.2,0.9s0.6,0.8,0.7,1.3c0.2,0.5,0.2,1.1,0.2,1.6s-0.1,1.1-0.2,1.6c-0.2,0.5-0.4,0.9-0.7,1.3s-0.7,0.7-1.2,0.9
			c-0.5,0.2-1,0.3-1.7,0.3c-0.6,0-1.2-0.1-1.7-0.3c-0.5-0.2-0.9-0.5-1.2-0.9s-0.6-0.8-0.7-1.3c-0.2-0.5-0.2-1-0.2-1.6
			S101.3,5.9,101.5,5.4z M102.8,8.3c0.1,0.4,0.3,0.7,0.5,0.9s0.5,0.4,0.8,0.6c0.3,0.1,0.6,0.2,1,0.2c0.3,0,0.7-0.1,1-0.2
			c0.3-0.1,0.6-0.3,0.8-0.6s0.4-0.6,0.5-0.9s0.2-0.8,0.2-1.3s-0.1-0.9-0.2-1.3s-0.3-0.7-0.5-0.9s-0.5-0.5-0.8-0.6s-0.6-0.2-1-0.2
			c-0.3,0-0.7,0.1-1,0.2s-0.6,0.3-0.8,0.6s-0.4,0.6-0.5,0.9s-0.2,0.8-0.2,1.3S102.7,7.9,102.8,8.3z"/>
		<path class="st0" d="M111.5,9.2c0.1,0.2,0.3,0.4,0.5,0.5c0.2,0.1,0.4,0.2,0.7,0.3c0.3,0.1,0.5,0.1,0.8,0.1c0.2,0,0.4,0,0.6,0
			s0.4-0.1,0.6-0.2c0.2-0.1,0.3-0.2,0.5-0.4c0.1-0.2,0.2-0.4,0.2-0.6c0-0.3-0.1-0.6-0.4-0.8c-0.3-0.2-0.6-0.3-1-0.4
			c-0.4-0.1-0.8-0.2-1.3-0.3c-0.5-0.1-0.9-0.2-1.3-0.4c-0.4-0.2-0.7-0.4-1-0.7s-0.4-0.7-0.4-1.2c0-0.4,0.1-0.7,0.3-1
			c0.2-0.3,0.4-0.5,0.7-0.7c0.3-0.2,0.6-0.3,1-0.4s0.7-0.1,1.1-0.1c0.5,0,0.9,0,1.2,0.1s0.7,0.2,1,0.4c0.3,0.2,0.5,0.4,0.7,0.8
			c0.2,0.3,0.3,0.7,0.3,1.2h-1.3c0-0.3-0.1-0.5-0.2-0.6s-0.3-0.3-0.4-0.4s-0.4-0.2-0.6-0.2c-0.2,0-0.4-0.1-0.6-0.1
			c-0.2,0-0.4,0-0.6,0c-0.2,0-0.4,0.1-0.5,0.2s-0.3,0.2-0.4,0.3c-0.1,0.1-0.2,0.3-0.2,0.5c0,0.2,0.1,0.4,0.2,0.6s0.4,0.3,0.6,0.4
			c0.2,0.1,0.5,0.2,0.8,0.2c0.3,0.1,0.6,0.1,0.9,0.2c0.3,0.1,0.6,0.2,1,0.3s0.6,0.2,0.8,0.4c0.2,0.2,0.4,0.4,0.6,0.6
			c0.1,0.3,0.2,0.6,0.2,1c0,0.5-0.1,0.9-0.3,1.2c-0.2,0.3-0.5,0.6-0.8,0.8s-0.7,0.3-1.1,0.4c-0.4,0.1-0.8,0.1-1.2,0.1
			c-0.4,0-0.9,0-1.3-0.1c-0.4-0.1-0.8-0.2-1.1-0.5c-0.3-0.2-0.6-0.5-0.7-0.8C110.1,9.4,110,9,110,8.5h1.3
			C111.3,8.8,111.4,9,111.5,9.2z"/>
		<path class="st0" d="M5.2,22.9c-0.3-0.3-0.8-0.4-1.3-0.4c-0.5,0-0.9,0.1-1.2,0.3c-0.3,0.2-0.6,0.4-0.8,0.7c-0.2,0.3-0.3,0.6-0.4,1
			c-0.1,0.4-0.1,0.8-0.1,1.2c0,0.4,0,0.7,0.1,1.1c0.1,0.3,0.2,0.7,0.4,0.9c0.2,0.3,0.4,0.5,0.7,0.7c0.3,0.2,0.7,0.2,1.1,0.2
			c0.6,0,1.2-0.2,1.5-0.5c0.4-0.3,0.6-0.8,0.7-1.4h1.3c-0.1,1-0.5,1.7-1.1,2.3c-0.6,0.5-1.4,0.8-2.4,0.8c-0.6,0-1.1-0.1-1.6-0.3
			s-0.9-0.5-1.2-0.8c-0.3-0.4-0.5-0.8-0.7-1.3c-0.2-0.5-0.2-1-0.2-1.6C0,25,0.1,24.5,0.2,24c0.2-0.5,0.4-1,0.7-1.4
			c0.3-0.4,0.7-0.7,1.2-0.9c0.5-0.2,1-0.3,1.6-0.3c0.5,0,0.9,0.1,1.3,0.2c0.4,0.1,0.7,0.3,1,0.5c0.3,0.2,0.6,0.5,0.7,0.9
			c0.2,0.3,0.3,0.8,0.4,1.2H5.8C5.7,23.6,5.5,23.2,5.2,22.9z"/>
		<path class="st0" d="M8.5,23.9c0.2-0.5,0.4-1,0.7-1.3s0.7-0.7,1.2-0.9c0.5-0.2,1-0.3,1.7-0.3c0.6,0,1.2,0.1,1.7,0.3
			c0.5,0.2,0.9,0.5,1.2,0.9s0.6,0.8,0.7,1.3c0.2,0.5,0.2,1.1,0.2,1.6s-0.1,1.1-0.2,1.6c-0.2,0.5-0.4,0.9-0.7,1.3s-0.7,0.7-1.2,0.9
			c-0.5,0.2-1,0.3-1.7,0.3c-0.6,0-1.2-0.1-1.7-0.3c-0.5-0.2-0.9-0.5-1.2-0.9s-0.6-0.8-0.7-1.3c-0.2-0.5-0.2-1-0.2-1.6
			S8.4,24.4,8.5,23.9z M9.9,26.8c0.1,0.4,0.3,0.7,0.5,0.9s0.5,0.4,0.8,0.6c0.3,0.1,0.6,0.2,1,0.2c0.3,0,0.7-0.1,1-0.2
			c0.3-0.1,0.6-0.3,0.8-0.6s0.4-0.6,0.5-0.9s0.2-0.8,0.2-1.3s-0.1-0.9-0.2-1.3s-0.3-0.7-0.5-0.9s-0.5-0.5-0.8-0.6s-0.6-0.2-1-0.2
			c-0.3,0-0.7,0.1-1,0.2s-0.6,0.3-0.8,0.6s-0.4,0.6-0.5,0.9S9.7,25,9.7,25.5S9.7,26.4,9.9,26.8z"/>
		<path class="st0" d="M18.8,21.5v1.3h0c0.5-1,1.4-1.4,2.6-1.4c0.5,0,1,0.1,1.3,0.2c0.3,0.1,0.6,0.3,0.8,0.6
			c0.2,0.3,0.4,0.6,0.5,0.9s0.1,0.7,0.1,1.2v5.2h-1.3v-5.4c0-0.5-0.1-0.9-0.4-1.2c-0.3-0.3-0.7-0.4-1.2-0.4c-0.4,0-0.7,0.1-1,0.2
			s-0.5,0.3-0.7,0.5c-0.2,0.2-0.3,0.5-0.4,0.8s-0.1,0.6-0.1,1v4.5h-1.3v-8H18.8z"/>
		<path class="st0" d="M31.4,27.7c0.1,0.2,0.3,0.4,0.5,0.5c0.2,0.1,0.4,0.2,0.7,0.3c0.3,0.1,0.5,0.1,0.8,0.1c0.2,0,0.4,0,0.6,0
			s0.4-0.1,0.6-0.2c0.2-0.1,0.3-0.2,0.5-0.4c0.1-0.2,0.2-0.4,0.2-0.6c0-0.3-0.1-0.6-0.4-0.8c-0.3-0.2-0.6-0.3-1-0.4
			c-0.4-0.1-0.8-0.2-1.3-0.3c-0.5-0.1-0.9-0.2-1.3-0.4c-0.4-0.2-0.7-0.4-1-0.7s-0.4-0.7-0.4-1.2c0-0.4,0.1-0.7,0.3-1
			c0.2-0.3,0.4-0.5,0.7-0.7c0.3-0.2,0.6-0.3,1-0.4s0.7-0.1,1.1-0.1c0.5,0,0.9,0,1.2,0.1s0.7,0.2,1,0.4c0.3,0.2,0.5,0.4,0.7,0.8
			c0.2,0.3,0.3,0.7,0.3,1.2H35c0-0.3-0.1-0.5-0.2-0.6s-0.3-0.3-0.4-0.4s-0.4-0.2-0.6-0.2c-0.2,0-0.4-0.1-0.6-0.1c-0.2,0-0.4,0-0.6,0
			c-0.2,0-0.4,0.1-0.5,0.2s-0.3,0.2-0.4,0.3c-0.1,0.1-0.2,0.3-0.2,0.5c0,0.2,0.1,0.4,0.2,0.6s0.4,0.3,0.6,0.4
			c0.2,0.1,0.5,0.2,0.8,0.2c0.3,0.1,0.6,0.1,0.9,0.2c0.3,0.1,0.6,0.2,1,0.3s0.6,0.2,0.8,0.4c0.2,0.2,0.4,0.4,0.6,0.6
			c0.1,0.3,0.2,0.6,0.2,1c0,0.5-0.1,0.9-0.3,1.2c-0.2,0.3-0.5,0.6-0.8,0.8s-0.7,0.3-1.1,0.4c-0.4,0.1-0.8,0.1-1.2,0.1
			c-0.4,0-0.9,0-1.3-0.1c-0.4-0.1-0.8-0.2-1.1-0.5c-0.3-0.2-0.6-0.5-0.7-0.8c-0.2-0.3-0.3-0.8-0.3-1.3h1.3
			C31.2,27.3,31.3,27.5,31.4,27.7z"/>
		<path class="st0" d="M40.9,18.2l-2,2.2h-1l1.3-2.2H40.9z M38.2,21.5h1.3v8h-1.3V21.5z"/>
		<path class="st0" d="M42.8,21.5v1.3h0c0.5-1,1.4-1.4,2.6-1.4c0.5,0,1,0.1,1.3,0.2c0.3,0.1,0.6,0.3,0.8,0.6
			c0.2,0.3,0.4,0.6,0.5,0.9s0.1,0.7,0.1,1.2v5.2h-1.3v-5.4c0-0.5-0.1-0.9-0.4-1.2c-0.3-0.3-0.7-0.4-1.2-0.4c-0.4,0-0.7,0.1-1,0.2
			s-0.5,0.3-0.7,0.5c-0.2,0.2-0.3,0.5-0.4,0.8s-0.1,0.6-0.1,1v4.5h-1.3v-8H42.8z"/>
		<path class="st0" d="M53.5,21.5v1.2h-1.6v4.9c0,0.2,0,0.3,0,0.4c0,0.1,0.1,0.2,0.1,0.2c0.1,0.1,0.2,0.1,0.3,0.1c0.1,0,0.3,0,0.5,0
			h0.6v1.2h-1c-0.3,0-0.6,0-0.9-0.1c-0.2,0-0.4-0.1-0.6-0.3c-0.1-0.1-0.3-0.3-0.3-0.5c-0.1-0.2-0.1-0.5-0.1-0.9v-5.1h-1.4v-1.2h1.4
			v-2.4h1.3v2.4H53.5z"/>
		<path class="st0" d="M54.8,23.9c0.2-0.5,0.4-1,0.7-1.3s0.7-0.7,1.2-0.9c0.5-0.2,1-0.3,1.7-0.3c0.6,0,1.2,0.1,1.7,0.3
			c0.5,0.2,0.9,0.5,1.2,0.9s0.6,0.8,0.7,1.3c0.2,0.5,0.2,1.1,0.2,1.6s-0.1,1.1-0.2,1.6c-0.2,0.5-0.4,0.9-0.7,1.3s-0.7,0.7-1.2,0.9
			c-0.5,0.2-1,0.3-1.7,0.3c-0.6,0-1.2-0.1-1.7-0.3c-0.5-0.2-0.9-0.5-1.2-0.9s-0.6-0.8-0.7-1.3c-0.2-0.5-0.2-1-0.2-1.6
			S54.6,24.4,54.8,23.9z M56.1,26.8c0.1,0.4,0.3,0.7,0.5,0.9s0.5,0.4,0.8,0.6c0.3,0.1,0.6,0.2,1,0.2c0.3,0,0.7-0.1,1-0.2
			c0.3-0.1,0.6-0.3,0.8-0.6s0.4-0.6,0.5-0.9s0.2-0.8,0.2-1.3s-0.1-0.9-0.2-1.3s-0.3-0.7-0.5-0.9s-0.5-0.5-0.8-0.6s-0.6-0.2-1-0.2
			c-0.3,0-0.7,0.1-1,0.2s-0.6,0.3-0.8,0.6s-0.4,0.6-0.5,0.9s-0.2,0.8-0.2,1.3S56,26.4,56.1,26.8z"/>
		<path class="st0" d="M65.1,21.5v1.2h0c0.6-0.9,1.5-1.4,2.6-1.4c0.5,0,0.9,0.1,1.3,0.3c0.4,0.2,0.7,0.6,0.8,1
			c0.3-0.4,0.6-0.8,1.1-1c0.4-0.2,0.9-0.4,1.4-0.4c0.4,0,0.8,0,1.1,0.1s0.6,0.2,0.8,0.4c0.2,0.2,0.4,0.4,0.5,0.7s0.2,0.6,0.2,1.1
			v5.8h-1.3v-5.2c0-0.2,0-0.5-0.1-0.7c0-0.2-0.1-0.4-0.2-0.6s-0.3-0.3-0.5-0.4c-0.2-0.1-0.5-0.1-0.8-0.1c-0.6,0-1.2,0.2-1.5,0.6
			s-0.6,0.9-0.6,1.5v5h-1.3v-5.2c0-0.3,0-0.5-0.1-0.7c0-0.2-0.1-0.4-0.2-0.6c-0.1-0.2-0.3-0.3-0.5-0.4c-0.2-0.1-0.4-0.1-0.7-0.1
			c-0.4,0-0.7,0.1-1,0.2c-0.3,0.2-0.5,0.3-0.7,0.6s-0.3,0.4-0.4,0.7c-0.1,0.2-0.1,0.4-0.1,0.6v5h-1.3v-8H65.1z"/>
		<path class="st0" d="M83.1,29.7c-0.3,0-0.6-0.1-0.8-0.3c-0.2-0.2-0.3-0.5-0.3-0.9c-0.4,0.4-0.8,0.7-1.3,0.9
			c-0.5,0.2-1,0.3-1.5,0.3c-0.4,0-0.7,0-1-0.1c-0.3-0.1-0.6-0.2-0.8-0.4c-0.2-0.2-0.4-0.4-0.6-0.7c-0.1-0.3-0.2-0.6-0.2-1
			c0-0.5,0.1-0.8,0.2-1.1c0.2-0.3,0.4-0.5,0.6-0.7c0.3-0.2,0.5-0.3,0.9-0.4s0.7-0.2,1-0.2c0.4-0.1,0.7-0.1,1-0.2
			c0.3,0,0.6-0.1,0.9-0.2c0.2-0.1,0.4-0.2,0.6-0.3c0.1-0.1,0.2-0.3,0.2-0.6c0-0.3-0.1-0.5-0.2-0.7s-0.2-0.3-0.4-0.4
			c-0.2-0.1-0.4-0.2-0.6-0.2c-0.2,0-0.4,0-0.6,0c-0.6,0-1,0.1-1.4,0.3c-0.4,0.2-0.6,0.6-0.6,1.2h-1.3c0-0.5,0.1-0.9,0.3-1.2
			s0.4-0.6,0.7-0.8c0.3-0.2,0.7-0.4,1.1-0.5c0.4-0.1,0.8-0.1,1.3-0.1c0.4,0,0.7,0,1.1,0.1c0.4,0.1,0.7,0.2,1,0.3
			c0.3,0.2,0.5,0.4,0.7,0.7s0.3,0.7,0.3,1.1v4.1c0,0.3,0,0.5,0.1,0.7c0,0.1,0.2,0.2,0.4,0.2c0.1,0,0.2,0,0.4-0.1v1
			C83.8,29.6,83.5,29.7,83.1,29.7z M81.3,25.7c-0.3,0.1-0.5,0.1-0.8,0.1c-0.3,0-0.6,0.1-0.9,0.1c-0.3,0-0.6,0.1-0.8,0.2
			c-0.2,0.1-0.4,0.3-0.6,0.4c-0.1,0.2-0.2,0.5-0.2,0.8c0,0.2,0,0.4,0.1,0.5c0.1,0.1,0.2,0.3,0.3,0.4c0.1,0.1,0.3,0.2,0.5,0.2
			c0.2,0,0.4,0.1,0.6,0.1c0.4,0,0.8-0.1,1.1-0.2c0.3-0.1,0.6-0.3,0.8-0.4s0.3-0.4,0.4-0.6c0.1-0.2,0.1-0.4,0.1-0.6v-1.3
			C81.7,25.5,81.5,25.6,81.3,25.7z"/>
		<path class="st0" d="M86.3,27.7c0.1,0.2,0.3,0.4,0.5,0.5c0.2,0.1,0.4,0.2,0.7,0.3c0.3,0.1,0.5,0.1,0.8,0.1c0.2,0,0.4,0,0.6,0
			s0.4-0.1,0.6-0.2c0.2-0.1,0.3-0.2,0.5-0.4c0.1-0.2,0.2-0.4,0.2-0.6c0-0.3-0.1-0.6-0.4-0.8c-0.3-0.2-0.6-0.3-1-0.4
			c-0.4-0.1-0.8-0.2-1.3-0.3c-0.5-0.1-0.9-0.2-1.3-0.4c-0.4-0.2-0.7-0.4-1-0.7s-0.4-0.7-0.4-1.2c0-0.4,0.1-0.7,0.3-1
			c0.2-0.3,0.4-0.5,0.7-0.7c0.3-0.2,0.6-0.3,1-0.4s0.7-0.1,1.1-0.1c0.5,0,0.9,0,1.2,0.1s0.7,0.2,1,0.4c0.3,0.2,0.5,0.4,0.7,0.8
			c0.2,0.3,0.3,0.7,0.3,1.2h-1.3c0-0.3-0.1-0.5-0.2-0.6s-0.3-0.3-0.4-0.4s-0.4-0.2-0.6-0.2c-0.2,0-0.4-0.1-0.6-0.1
			c-0.2,0-0.4,0-0.6,0c-0.2,0-0.4,0.1-0.5,0.2s-0.3,0.2-0.4,0.3c-0.1,0.1-0.2,0.3-0.2,0.5c0,0.2,0.1,0.4,0.2,0.6s0.4,0.3,0.6,0.4
			c0.2,0.1,0.5,0.2,0.8,0.2c0.3,0.1,0.6,0.1,0.9,0.2c0.3,0.1,0.6,0.2,1,0.3s0.6,0.2,0.8,0.4c0.2,0.2,0.4,0.4,0.6,0.6
			c0.1,0.3,0.2,0.6,0.2,1c0,0.5-0.1,0.9-0.3,1.2c-0.2,0.3-0.5,0.6-0.8,0.8s-0.7,0.3-1.1,0.4c-0.4,0.1-0.8,0.1-1.2,0.1
			c-0.4,0-0.9,0-1.3-0.1c-0.4-0.1-0.8-0.2-1.1-0.5c-0.3-0.2-0.6-0.5-0.7-0.8c-0.2-0.3-0.3-0.8-0.3-1.3h1.3
			C86.1,27.3,86.1,27.5,86.3,27.7z"/>
		<path class="st0" d="M103.1,29.5v-1.1h0c-0.2,0.4-0.6,0.8-1,1s-1,0.3-1.5,0.3c-0.6,0-1.2-0.1-1.6-0.3c-0.5-0.2-0.8-0.5-1.1-0.9
			s-0.5-0.8-0.7-1.3c-0.2-0.5-0.2-1-0.2-1.6c0-0.6,0.1-1.1,0.2-1.6c0.1-0.5,0.4-0.9,0.7-1.3c0.3-0.4,0.7-0.7,1.1-0.9
			c0.5-0.2,1-0.3,1.6-0.3c0.2,0,0.4,0,0.7,0.1c0.2,0,0.5,0.1,0.7,0.2s0.5,0.2,0.7,0.4c0.2,0.2,0.4,0.4,0.5,0.6h0v-4.1h1.3v11H103.1z
			 M98.4,26.7c0.1,0.4,0.2,0.7,0.4,0.9c0.2,0.3,0.5,0.5,0.8,0.7c0.3,0.2,0.7,0.2,1.1,0.2c0.4,0,0.8-0.1,1.1-0.3
			c0.3-0.2,0.6-0.4,0.8-0.7c0.2-0.3,0.3-0.6,0.4-1s0.1-0.7,0.1-1.1c0-0.4,0-0.8-0.1-1.1c-0.1-0.4-0.2-0.7-0.4-1
			c-0.2-0.3-0.5-0.5-0.8-0.7c-0.3-0.2-0.7-0.3-1.2-0.3c-0.4,0-0.8,0.1-1.1,0.3c-0.3,0.2-0.6,0.4-0.7,0.7c-0.2,0.3-0.3,0.6-0.4,1
			c-0.1,0.4-0.1,0.8-0.1,1.1C98.2,26,98.3,26.3,98.4,26.7z"/>
		<path class="st0" d="M112,29c-0.6,0.5-1.3,0.7-2.3,0.7c-0.6,0-1.2-0.1-1.7-0.3c-0.5-0.2-0.9-0.5-1.2-0.9c-0.3-0.4-0.6-0.8-0.7-1.3
			c-0.2-0.5-0.2-1.1-0.3-1.7c0-0.6,0.1-1.2,0.3-1.7c0.2-0.5,0.4-0.9,0.8-1.3c0.3-0.4,0.7-0.7,1.2-0.9c0.5-0.2,1-0.3,1.5-0.3
			c0.7,0,1.3,0.1,1.8,0.4s0.8,0.7,1.1,1.1s0.5,0.9,0.6,1.5s0.2,1,0.1,1.5h-6c0,0.3,0,0.7,0.1,1c0.1,0.3,0.2,0.6,0.4,0.8
			c0.2,0.2,0.5,0.4,0.8,0.6c0.3,0.1,0.7,0.2,1.1,0.2c0.6,0,1-0.1,1.4-0.4s0.6-0.6,0.7-1.2h1.3C113,27.9,112.6,28.5,112,29z
			 M111.7,23.9c-0.1-0.3-0.3-0.5-0.5-0.7c-0.2-0.2-0.4-0.4-0.7-0.5s-0.6-0.2-0.9-0.2c-0.3,0-0.6,0.1-0.9,0.2
			c-0.3,0.1-0.5,0.3-0.7,0.5c-0.2,0.2-0.3,0.4-0.5,0.7c-0.1,0.3-0.2,0.6-0.2,0.9h4.6C111.9,24.5,111.8,24.2,111.7,23.9z"/>
		<path class="st0" d="M124.6,29c-0.6,0.5-1.3,0.7-2.3,0.7c-0.6,0-1.2-0.1-1.7-0.3c-0.5-0.2-0.9-0.5-1.2-0.9
			c-0.3-0.4-0.6-0.8-0.7-1.3c-0.2-0.5-0.2-1.1-0.3-1.7c0-0.6,0.1-1.2,0.3-1.7c0.2-0.5,0.4-0.9,0.8-1.3c0.3-0.4,0.7-0.7,1.2-0.9
			c0.5-0.2,1-0.3,1.5-0.3c0.7,0,1.3,0.1,1.8,0.4s0.8,0.7,1.1,1.1s0.5,0.9,0.6,1.5s0.2,1,0.1,1.5h-6c0,0.3,0,0.7,0.1,1
			c0.1,0.3,0.2,0.6,0.4,0.8c0.2,0.2,0.5,0.4,0.8,0.6c0.3,0.1,0.7,0.2,1.1,0.2c0.6,0,1-0.1,1.4-0.4s0.6-0.6,0.7-1.2h1.3
			C125.6,27.9,125.2,28.5,124.6,29z M124.3,23.9c-0.1-0.3-0.3-0.5-0.5-0.7c-0.2-0.2-0.4-0.4-0.7-0.5s-0.6-0.2-0.9-0.2
			c-0.3,0-0.6,0.1-0.9,0.2c-0.3,0.1-0.5,0.3-0.7,0.5c-0.2,0.2-0.3,0.4-0.5,0.7c-0.1,0.3-0.2,0.6-0.2,0.9h4.6
			C124.5,24.5,124.4,24.2,124.3,23.9z"/>
		<path class="st0" d="M128.2,27.7c0.1,0.2,0.3,0.4,0.5,0.5c0.2,0.1,0.4,0.2,0.7,0.3c0.3,0.1,0.5,0.1,0.8,0.1c0.2,0,0.4,0,0.6,0
			s0.4-0.1,0.6-0.2c0.2-0.1,0.3-0.2,0.5-0.4c0.1-0.2,0.2-0.4,0.2-0.6c0-0.3-0.1-0.6-0.4-0.8c-0.3-0.2-0.6-0.3-1-0.4
			c-0.4-0.1-0.8-0.2-1.3-0.3c-0.5-0.1-0.9-0.2-1.3-0.4c-0.4-0.2-0.7-0.4-1-0.7s-0.4-0.7-0.4-1.2c0-0.4,0.1-0.7,0.3-1
			c0.2-0.3,0.4-0.5,0.7-0.7c0.3-0.2,0.6-0.3,1-0.4s0.7-0.1,1.1-0.1c0.5,0,0.9,0,1.2,0.1s0.7,0.2,1,0.4c0.3,0.2,0.5,0.4,0.7,0.8
			c0.2,0.3,0.3,0.7,0.3,1.2h-1.3c0-0.3-0.1-0.5-0.2-0.6s-0.3-0.3-0.4-0.4s-0.4-0.2-0.6-0.2c-0.2,0-0.4-0.1-0.6-0.1
			c-0.2,0-0.4,0-0.6,0c-0.2,0-0.4,0.1-0.5,0.2s-0.3,0.2-0.4,0.3c-0.1,0.1-0.2,0.3-0.2,0.5c0,0.2,0.1,0.4,0.2,0.6s0.4,0.3,0.6,0.4
			c0.2,0.1,0.5,0.2,0.8,0.2c0.3,0.1,0.6,0.1,0.9,0.2c0.3,0.1,0.6,0.2,1,0.3s0.6,0.2,0.8,0.4c0.2,0.2,0.4,0.4,0.6,0.6
			c0.1,0.3,0.2,0.6,0.2,1c0,0.5-0.1,0.9-0.3,1.2c-0.2,0.3-0.5,0.6-0.8,0.8s-0.7,0.3-1.1,0.4c-0.4,0.1-0.8,0.1-1.2,0.1
			c-0.4,0-0.9,0-1.3-0.1c-0.4-0.1-0.8-0.2-1.1-0.5c-0.3-0.2-0.6-0.5-0.7-0.8c-0.2-0.3-0.3-0.8-0.3-1.3h1.3
			C128,27.3,128.1,27.5,128.2,27.7z"/>
		<path class="st0" d="M138.4,21.5v1.2h-1.6v4.9c0,0.2,0,0.3,0,0.4c0,0.1,0.1,0.2,0.1,0.2c0.1,0.1,0.2,0.1,0.3,0.1
			c0.1,0,0.3,0,0.5,0h0.6v1.2h-1c-0.3,0-0.6,0-0.9-0.1c-0.2,0-0.4-0.1-0.6-0.3c-0.1-0.1-0.3-0.3-0.3-0.5c-0.1-0.2-0.1-0.5-0.1-0.9
			v-5.1h-1.4v-1.2h1.4v-2.4h1.3v2.4H138.4z"/>
		<path class="st0" d="M141,21.5v1.7h0c0.3-0.6,0.7-1.1,1.2-1.4c0.5-0.3,1-0.5,1.8-0.4v1.4c-0.5,0-1,0.1-1.3,0.2
			c-0.4,0.1-0.7,0.4-0.9,0.6s-0.4,0.6-0.5,1c-0.1,0.4-0.2,0.9-0.2,1.4v3.5h-1.3v-8H141z"/>
		<path class="st0" d="M150.6,29c-0.6,0.5-1.3,0.7-2.3,0.7c-0.6,0-1.2-0.1-1.7-0.3c-0.5-0.2-0.9-0.5-1.2-0.9
			c-0.3-0.4-0.6-0.8-0.7-1.3c-0.2-0.5-0.2-1.1-0.3-1.7c0-0.6,0.1-1.2,0.3-1.7c0.2-0.5,0.4-0.9,0.8-1.3c0.3-0.4,0.7-0.7,1.2-0.9
			c0.5-0.2,1-0.3,1.5-0.3c0.7,0,1.3,0.1,1.8,0.4s0.8,0.7,1.1,1.1s0.5,0.9,0.6,1.5s0.2,1,0.1,1.5h-6c0,0.3,0,0.7,0.1,1
			c0.1,0.3,0.2,0.6,0.4,0.8c0.2,0.2,0.5,0.4,0.8,0.6c0.3,0.1,0.7,0.2,1.1,0.2c0.6,0,1-0.1,1.4-0.4s0.6-0.6,0.7-1.2h1.3
			C151.6,27.9,151.2,28.5,150.6,29z M150.3,23.9c-0.1-0.3-0.3-0.5-0.5-0.7c-0.2-0.2-0.4-0.4-0.7-0.5s-0.6-0.2-0.9-0.2
			c-0.3,0-0.6,0.1-0.9,0.2c-0.3,0.1-0.5,0.3-0.7,0.5c-0.2,0.2-0.3,0.4-0.5,0.7c-0.1,0.3-0.2,0.6-0.2,0.9h4.6
			C150.4,24.5,150.4,24.2,150.3,23.9z M150.2,18.2l-2,2.2h-1l1.3-2.2H150.2z"/>
		<path class="st0" d="M154.2,27.7c0.1,0.2,0.3,0.4,0.5,0.5c0.2,0.1,0.4,0.2,0.7,0.3c0.3,0.1,0.5,0.1,0.8,0.1c0.2,0,0.4,0,0.6,0
			s0.4-0.1,0.6-0.2c0.2-0.1,0.3-0.2,0.5-0.4c0.1-0.2,0.2-0.4,0.2-0.6c0-0.3-0.1-0.6-0.4-0.8c-0.3-0.2-0.6-0.3-1-0.4
			c-0.4-0.1-0.8-0.2-1.3-0.3c-0.5-0.1-0.9-0.2-1.3-0.4c-0.4-0.2-0.7-0.4-1-0.7s-0.4-0.7-0.4-1.2c0-0.4,0.1-0.7,0.3-1
			c0.2-0.3,0.4-0.5,0.7-0.7c0.3-0.2,0.6-0.3,1-0.4s0.7-0.1,1.1-0.1c0.5,0,0.9,0,1.2,0.1s0.7,0.2,1,0.4c0.3,0.2,0.5,0.4,0.7,0.8
			c0.2,0.3,0.3,0.7,0.3,1.2h-1.3c0-0.3-0.1-0.5-0.2-0.6s-0.3-0.3-0.4-0.4s-0.4-0.2-0.6-0.2c-0.2,0-0.4-0.1-0.6-0.1
			c-0.2,0-0.4,0-0.6,0c-0.2,0-0.4,0.1-0.5,0.2s-0.3,0.2-0.4,0.3c-0.1,0.1-0.2,0.3-0.2,0.5c0,0.2,0.1,0.4,0.2,0.6s0.4,0.3,0.6,0.4
			c0.2,0.1,0.5,0.2,0.8,0.2c0.3,0.1,0.6,0.1,0.9,0.2c0.3,0.1,0.6,0.2,1,0.3s0.6,0.2,0.8,0.4c0.2,0.2,0.4,0.4,0.6,0.6
			c0.1,0.3,0.2,0.6,0.2,1c0,0.5-0.1,0.9-0.3,1.2c-0.2,0.3-0.5,0.6-0.8,0.8s-0.7,0.3-1.1,0.4c-0.4,0.1-0.8,0.1-1.2,0.1
			c-0.4,0-0.9,0-1.3-0.1c-0.4-0.1-0.8-0.2-1.1-0.5c-0.3-0.2-0.6-0.5-0.7-0.8c-0.2-0.3-0.3-0.8-0.3-1.3h1.3
			C154,27.3,154.1,27.5,154.2,27.7z"/>
	</g>
</g>
</svg>
