<!-- Generator: Adobe Illustrator 21.1.0, SVG Export Plug-In  -->
<svg version="1.1"
	 xmlns="http://www.w3.org/2000/svg" xmlns:xlink="http://www.w3.org/1999/xlink" xmlns:a="http://ns.adobe.com/AdobeSVGViewerExtensions/3.0/"
	 x="0px" y="0px" width="146.6px" height="155px" viewBox="0 0 146.6 155" style="enable-background:new 0 0 146.6 155;"
	 xml:space="preserve">
<style type="text/css">
	.st0{clip-path:url(#SVGID_2_);}
	.st1{opacity:0.2;}
	.st2{fill:#222220;}
	.st3{fill:#FFFFFF;}
	.st4{clip-path:url(#SVGID_4_);}
</style>
<defs>
</defs>
<g>
	<g>
		<defs>
			<path id="SVGID_1_" d="M60,120L60,120C26.9,120,0,93.1,0,60v0C0,26.9,26.9,0,60,0h0c33.1,0,60,26.9,60,60v0
				C120,93.1,93.1,120,60,120z"/>
		</defs>
		<use xlink:href="#SVGID_1_"  style="overflow:visible;fill:#047AB7;"/>
		<clipPath id="SVGID_2_">
			<use xlink:href="#SVGID_1_"  style="overflow:visible;"/>
		</clipPath>
		<g class="st0">
			<g>
				<g class="st1">
					<g>
						<path class="st2" d="M145.7,122l-32.2,32.2c-0.5,0.5-1.2,0.8-2,0.8c-0.8,0-1.4-0.3-2-0.8l-7.2-7.2c-0.5-0.5-0.8-1.2-0.8-2
							c0-0.8,0.3-1.4,0.8-2l23-23l-23-23c-0.5-0.5-0.8-1.2-0.8-2c0-0.8,0.3-1.4,0.8-2l7.2-7.2c0.5-0.5,1.2-0.8,2-0.8
							c0.8,0,1.4,0.3,2,0.8l32.2,32.2c0.5,0.5,0.8,1.2,0.8,2S146.3,121.5,145.7,122z"/>
					</g>
					<g>
						<path class="st2" d="M145.5,121.8l-32.2,32.2c-0.5,0.5-1.2,0.8-2,0.8c-0.8,0-1.4-0.3-2-0.8l-7.2-7.2c-0.5-0.5-0.8-1.2-0.8-2
							c0-0.8,0.3-1.4,0.8-2l23-23l-23-23c-0.5-0.5-0.8-1.2-0.8-2c0-0.8,0.3-1.4,0.8-2l7.2-7.2c0.5-0.5,1.2-0.8,2-0.8
							c0.8,0,1.4,0.3,2,0.8l32.2,32.2c0.5,0.5,0.8,1.2,0.8,2S146,121.2,145.5,121.8z"/>
					</g>
					<g>
						<path class="st2" d="M145.2,121.5L113,153.6c-0.5,0.5-1.2,0.8-2,0.8s-1.4-0.3-2-0.8l-7.2-7.2c-0.5-0.5-0.8-1.2-0.8-2
							c0-0.8,0.3-1.4,0.8-2l23-23l-23-23c-0.5-0.5-0.8-1.2-0.8-2c0-0.8,0.3-1.4,0.8-2l7.2-7.2c0.5-0.5,1.2-0.8,2-0.8s1.4,0.3,2,0.8
							l32.2,32.2c0.5,0.5,0.8,1.2,0.8,2C146,120.3,145.7,120.9,145.2,121.5z"/>
					</g>
					<g>
						<path class="st2" d="M144.9,121.2l-32.2,32.2c-0.5,0.5-1.2,0.8-2,0.8s-1.4-0.3-2-0.8l-7.2-7.2c-0.5-0.5-0.8-1.2-0.8-2
							c0-0.8,0.3-1.4,0.8-2l23-23l-23-23c-0.5-0.5-0.8-1.2-0.8-2c0-0.8,0.3-1.4,0.8-2l7.2-7.2c0.5-0.5,1.2-0.8,2-0.8s1.4,0.3,2,0.8
							l32.2,32.2c0.5,0.5,0.8,1.2,0.8,2S145.4,120.7,144.9,121.2z"/>
					</g>
					<g>
						<path class="st2" d="M144.6,120.9l-32.2,32.2c-0.5,0.5-1.2,0.8-2,0.8c-0.8,0-1.4-0.3-2-0.8l-7.2-7.2c-0.5-0.5-0.8-1.2-0.8-2
							c0-0.8,0.3-1.4,0.8-2l23-23l-23-23c-0.5-0.5-0.8-1.2-0.8-2c0-0.8,0.3-1.4,0.8-2l7.2-7.2c0.5-0.5,1.2-0.8,2-0.8
							c0.8,0,1.4,0.3,2,0.8l32.2,32.2c0.5,0.5,0.8,1.2,0.8,2S145.2,120.4,144.6,120.9z"/>
					</g>
					<g>
						<path class="st2" d="M144.3,120.7l-32.2,32.2c-0.5,0.5-1.2,0.8-2,0.8s-1.4-0.3-2-0.8l-7.2-7.2c-0.5-0.5-0.8-1.2-0.8-2
							c0-0.8,0.3-1.4,0.8-2l23-23l-23-23c-0.5-0.5-0.8-1.2-0.8-2c0-0.8,0.3-1.4,0.8-2l7.2-7.2c0.5-0.5,1.2-0.8,2-0.8s1.4,0.3,2,0.8
							l32.2,32.2c0.5,0.5,0.8,1.2,0.8,2C145.2,119.5,144.9,120.1,144.3,120.7z"/>
					</g>
					<g>
						<path class="st2" d="M144.1,120.4l-32.2,32.2c-0.5,0.5-1.2,0.8-2,0.8s-1.4-0.3-2-0.8l-7.2-7.2c-0.5-0.5-0.8-1.2-0.8-2
							c0-0.8,0.3-1.4,0.8-2l23-23l-23-23c-0.5-0.5-0.8-1.2-0.8-2c0-0.8,0.3-1.4,0.8-2l7.2-7.2c0.5-0.5,1.2-0.8,2-0.8s1.4,0.3,2,0.8
							l32.2,32.2c0.5,0.5,0.8,1.2,0.8,2S144.6,119.8,144.1,120.4z"/>
					</g>
					<g>
						<path class="st2" d="M143.8,120.1l-32.2,32.2c-0.5,0.5-1.2,0.8-2,0.8c-0.8,0-1.4-0.3-2-0.8l-7.2-7.2c-0.5-0.5-0.8-1.2-0.8-2
							c0-0.8,0.3-1.4,0.8-2l23-23l-23-23c-0.5-0.5-0.8-1.2-0.8-2c0-0.8,0.3-1.4,0.8-2l7.2-7.2c0.5-0.5,1.2-0.8,2-0.8
							c0.8,0,1.4,0.3,2,0.8l32.2,32.2c0.5,0.5,0.8,1.2,0.8,2S144.3,119.6,143.8,120.1z"/>
					</g>
					<g>
						<path class="st2" d="M143.5,119.8L111.4,152c-0.5,0.5-1.2,0.8-2,0.8c-0.8,0-1.4-0.3-2-0.8l-7.2-7.2c-0.5-0.5-0.8-1.2-0.8-2
							c0-0.8,0.3-1.4,0.8-2l23-23l-23-23c-0.5-0.5-0.8-1.2-0.8-2c0-0.8,0.3-1.4,0.8-2l7.2-7.2c0.5-0.5,1.2-0.8,2-0.8
							c0.8,0,1.4,0.3,2,0.8l32.2,32.2c0.5,0.5,0.8,1.2,0.8,2C144.3,118.6,144.1,119.3,143.5,119.8z"/>
					</g>
					<g>
						<path class="st2" d="M143.2,119.6l-32.2,32.2c-0.5,0.5-1.2,0.8-2,0.8s-1.4-0.3-2-0.8l-7.2-7.2c-0.5-0.5-0.8-1.2-0.8-2
							c0-0.8,0.3-1.4,0.8-2l23-23l-23-23c-0.5-0.5-0.8-1.2-0.8-2c0-0.8,0.3-1.4,0.8-2l7.2-7.2c0.5-0.5,1.2-0.8,2-0.8s1.4,0.3,2,0.8
							l32.2,32.2c0.5,0.5,0.8,1.2,0.8,2C144.1,118.4,143.8,119,143.2,119.6z"/>
					</g>
					<g>
						<path class="st2" d="M143,119.3l-32.2,32.2c-0.5,0.5-1.2,0.8-2,0.8c-0.8,0-1.4-0.3-2-0.8l-7.2-7.2c-0.5-0.5-0.8-1.2-0.8-2
							c0-0.8,0.3-1.4,0.8-2l23-23l-23-23c-0.5-0.5-0.8-1.2-0.8-2c0-0.8,0.3-1.4,0.8-2l7.2-7.2c0.5-0.5,1.2-0.8,2-0.8
							c0.8,0,1.4,0.3,2,0.8l32.2,32.2c0.5,0.5,0.8,1.2,0.8,2C143.8,118.1,143.5,118.7,143,119.3z"/>
					</g>
					<g>
						<path class="st2" d="M142.7,119l-32.2,32.2c-0.5,0.5-1.2,0.8-2,0.8c-0.8,0-1.4-0.3-2-0.8l-7.2-7.2c-0.5-0.5-0.8-1.2-0.8-2
							c0-0.8,0.3-1.4,0.8-2l23-23l-23-23c-0.5-0.5-0.8-1.2-0.8-2c0-0.8,0.3-1.4,0.8-2l7.2-7.2c0.5-0.5,1.2-0.8,2-0.8
							c0.8,0,1.4,0.3,2,0.8l32.2,32.2c0.5,0.5,0.8,1.2,0.8,2C143.5,117.8,143.2,118.4,142.7,119z"/>
					</g>
					<g>
						<path class="st2" d="M142.4,118.7l-32.2,32.2c-0.5,0.5-1.2,0.8-2,0.8s-1.4-0.3-2-0.8l-7.2-7.2c-0.5-0.5-0.8-1.2-0.8-2
							c0-0.8,0.3-1.4,0.8-2l23-23l-23-23c-0.5-0.5-0.8-1.2-0.8-2c0-0.8,0.3-1.4,0.8-2l7.2-7.2c0.5-0.5,1.2-0.8,2-0.8s1.4,0.3,2,0.8
							l32.2,32.2c0.5,0.5,0.8,1.2,0.8,2C143.2,117.5,143,118.2,142.4,118.7z"/>
					</g>
					<g>
						<path class="st2" d="M142.1,118.4L110,150.6c-0.5,0.5-1.2,0.8-2,0.8c-0.8,0-1.4-0.3-2-0.8l-7.2-7.2c-0.5-0.5-0.8-1.2-0.8-2
							c0-0.8,0.3-1.4,0.8-2l23-23l-23-23c-0.5-0.5-0.8-1.2-0.8-2c0-0.8,0.3-1.4,0.8-2l7.2-7.2c0.5-0.5,1.2-0.8,2-0.8
							c0.8,0,1.4,0.3,2,0.8l32.2,32.2c0.5,0.5,0.8,1.2,0.8,2S142.7,117.9,142.1,118.4z"/>
					</g>
					<g>
						<path class="st2" d="M141.9,118.2l-32.2,32.2c-0.5,0.5-1.2,0.8-2,0.8c-0.8,0-1.4-0.3-2-0.8l-7.2-7.2c-0.5-0.5-0.8-1.2-0.8-2
							c0-0.8,0.3-1.4,0.8-2l23-23l-23-23c-0.5-0.5-0.8-1.2-0.8-2c0-0.8,0.3-1.4,0.8-2l7.2-7.2c0.5-0.5,1.2-0.8,2-0.8
							c0.8,0,1.4,0.3,2,0.8l32.2,32.2c0.5,0.5,0.8,1.2,0.8,2C142.7,117,142.4,117.6,141.9,118.2z"/>
					</g>
					<g>
						<path class="st2" d="M141.6,117.9l-32.2,32.2c-0.5,0.5-1.2,0.8-2,0.8s-1.4-0.3-2-0.8l-7.2-7.2c-0.5-0.5-0.8-1.2-0.8-2
							c0-0.8,0.3-1.4,0.8-2l23-23l-23-23c-0.5-0.5-0.8-1.2-0.8-2c0-0.8,0.3-1.4,0.8-2l7.2-7.2c0.5-0.5,1.2-0.8,2-0.8s1.4,0.3,2,0.8
							l32.2,32.2c0.5,0.5,0.8,1.2,0.8,2C142.4,116.7,142.1,117.3,141.6,117.9z"/>
					</g>
					<g>
						<path class="st2" d="M141.3,117.6l-32.2,32.2c-0.5,0.5-1.2,0.8-2,0.8c-0.8,0-1.4-0.3-2-0.8l-7.2-7.2c-0.5-0.5-0.8-1.2-0.8-2
							c0-0.8,0.3-1.4,0.8-2l23-23l-23-23c-0.5-0.5-0.8-1.2-0.8-2c0-0.8,0.3-1.4,0.8-2l7.2-7.2c0.5-0.5,1.2-0.8,2-0.8
							c0.8,0,1.4,0.3,2,0.8l32.2,32.2c0.5,0.5,0.8,1.2,0.8,2S141.9,117.1,141.3,117.6z"/>
					</g>
					<g>
						<path class="st2" d="M141,117.3l-32.2,32.2c-0.5,0.5-1.2,0.8-2,0.8c-0.8,0-1.4-0.3-2-0.8l-7.2-7.2c-0.5-0.5-0.8-1.2-0.8-2
							c0-0.8,0.3-1.4,0.8-2l23-23l-23-23c-0.5-0.5-0.8-1.2-0.8-2c0-0.8,0.3-1.4,0.8-2l7.2-7.2c0.5-0.5,1.2-0.8,2-0.8
							c0.8,0,1.4,0.3,2,0.8l32.2,32.2c0.5,0.5,0.8,1.2,0.8,2S141.6,116.8,141,117.3z"/>
					</g>
					<g>
						<path class="st2" d="M140.8,117.1l-32.2,32.2c-0.5,0.5-1.2,0.8-2,0.8s-1.4-0.3-2-0.8l-7.2-7.2c-0.5-0.5-0.8-1.2-0.8-2
							c0-0.8,0.3-1.4,0.8-2l23-23l-23-23c-0.5-0.5-0.8-1.2-0.8-2c0-0.8,0.3-1.4,0.8-2l7.2-7.2c0.5-0.5,1.2-0.8,2-0.8s1.4,0.3,2,0.8
							l32.2,32.2c0.5,0.5,0.8,1.2,0.8,2C141.6,115.9,141.3,116.5,140.8,117.1z"/>
					</g>
					<g>
						<path class="st2" d="M140.5,116.8l-32.2,32.2c-0.5,0.5-1.2,0.8-2,0.8s-1.4-0.3-2-0.8l-7.2-7.2c-0.5-0.5-0.8-1.2-0.8-2
							c0-0.8,0.3-1.4,0.8-2l23-23l-23-23c-0.5-0.5-0.8-1.2-0.8-2c0-0.8,0.3-1.4,0.8-2l7.2-7.2c0.5-0.5,1.2-0.8,2-0.8s1.4,0.3,2,0.8
							l32.2,32.2c0.5,0.5,0.8,1.2,0.8,2S141,116.2,140.5,116.8z"/>
					</g>
					<g>
						<path class="st2" d="M140.2,116.5L108,148.7c-0.5,0.5-1.2,0.8-2,0.8c-0.8,0-1.4-0.3-2-0.8l-7.2-7.2c-0.5-0.5-0.8-1.2-0.8-2
							c0-0.8,0.3-1.4,0.8-2l23-23l-23-23c-0.5-0.5-0.8-1.2-0.8-2c0-0.8,0.3-1.4,0.8-2l7.2-7.2c0.5-0.5,1.2-0.8,2-0.8
							c0.8,0,1.4,0.3,2,0.8l32.2,32.2c0.5,0.5,0.8,1.2,0.8,2S140.7,116,140.2,116.5z"/>
					</g>
					<g>
						<path class="st2" d="M139.9,116.2l-32.2,32.2c-0.5,0.5-1.2,0.8-2,0.8s-1.4-0.3-2-0.8l-7.2-7.2c-0.5-0.5-0.8-1.2-0.8-2
							c0-0.8,0.3-1.4,0.8-2l23-23l-23-23c-0.5-0.5-0.8-1.2-0.8-2c0-0.8,0.3-1.4,0.8-2l7.2-7.2c0.5-0.5,1.2-0.8,2-0.8s1.4,0.3,2,0.8
							l32.2,32.2c0.5,0.5,0.8,1.2,0.8,2C140.7,115,140.5,115.7,139.9,116.2z"/>
					</g>
					<g>
						<path class="st2" d="M139.6,116l-32.2,32.2c-0.5,0.5-1.2,0.8-2,0.8s-1.4-0.3-2-0.8l-7.2-7.2c-0.5-0.5-0.8-1.2-0.8-2
							c0-0.8,0.3-1.4,0.8-2l23-23l-23-23c-0.5-0.5-0.8-1.2-0.8-2c0-0.8,0.3-1.4,0.8-2l7.2-7.2c0.5-0.5,1.2-0.8,2-0.8s1.4,0.3,2,0.8
							l32.2,32.2c0.5,0.5,0.8,1.2,0.8,2C140.5,114.8,140.2,115.4,139.6,116z"/>
					</g>
					<g>
						<path class="st2" d="M139.4,115.7l-32.2,32.2c-0.5,0.5-1.2,0.8-2,0.8c-0.8,0-1.4-0.3-2-0.8l-7.2-7.2c-0.5-0.5-0.8-1.2-0.8-2
							c0-0.8,0.3-1.4,0.8-2l23-23l-23-23c-0.5-0.5-0.8-1.2-0.8-2c0-0.8,0.3-1.4,0.8-2l7.2-7.2c0.5-0.5,1.2-0.8,2-0.8
							c0.8,0,1.4,0.3,2,0.8l32.2,32.2c0.5,0.5,0.8,1.2,0.8,2S139.9,115.1,139.4,115.7z"/>
					</g>
					<g>
						<path class="st2" d="M139.1,115.4l-32.2,32.2c-0.5,0.5-1.2,0.8-2,0.8c-0.8,0-1.4-0.3-2-0.8l-7.2-7.2c-0.5-0.5-0.8-1.2-0.8-2
							c0-0.8,0.3-1.4,0.8-2l23-23l-23-23c-0.5-0.5-0.8-1.2-0.8-2c0-0.8,0.3-1.4,0.8-2l7.2-7.2c0.5-0.5,1.2-0.8,2-0.8
							c0.8,0,1.4,0.3,2,0.8l32.2,32.2c0.5,0.5,0.8,1.2,0.8,2C139.9,114.2,139.6,114.9,139.1,115.4z"/>
					</g>
					<g>
						<path class="st2" d="M138.8,115.1l-32.2,32.2c-0.5,0.5-1.2,0.8-2,0.8s-1.4-0.3-2-0.8l-7.2-7.2c-0.5-0.5-0.8-1.2-0.8-2
							c0-0.8,0.3-1.4,0.8-2l23-23l-23-23c-0.5-0.5-0.8-1.2-0.8-2c0-0.8,0.3-1.4,0.8-2l7.2-7.2c0.5-0.5,1.2-0.8,2-0.8s1.4,0.3,2,0.8
							l32.2,32.2c0.5,0.5,0.8,1.2,0.8,2C139.6,113.9,139.4,114.6,138.8,115.1z"/>
					</g>
					<g>
						<path class="st2" d="M138.5,114.9L106.4,147c-0.5,0.5-1.2,0.8-2,0.8c-0.8,0-1.4-0.3-2-0.8l-7.2-7.2c-0.5-0.5-0.8-1.2-0.8-2
							c0-0.8,0.3-1.4,0.8-2l23-23l-23-23c-0.5-0.5-0.8-1.2-0.8-2c0-0.8,0.3-1.4,0.8-2l7.2-7.2c0.5-0.5,1.2-0.8,2-0.8
							c0.8,0,1.4,0.3,2,0.8l32.2,32.2c0.5,0.5,0.8,1.2,0.8,2C139.4,113.7,139.1,114.3,138.5,114.9z"/>
					</g>
					<g>
						<path class="st2" d="M138.3,114.6l-32.2,32.2c-0.5,0.5-1.2,0.8-2,0.8c-0.8,0-1.4-0.3-2-0.8l-7.2-7.2c-0.5-0.5-0.8-1.2-0.8-2
							c0-0.8,0.3-1.4,0.8-2l23-23l-23-23c-0.5-0.5-0.8-1.2-0.8-2c0-0.8,0.3-1.4,0.8-2l7.2-7.2c0.5-0.5,1.2-0.8,2-0.8
							c0.8,0,1.4,0.3,2,0.8l32.2,32.2c0.5,0.5,0.8,1.2,0.8,2C139.1,113.4,138.8,114,138.3,114.6z"/>
					</g>
					<g>
						<path class="st2" d="M138,114.3l-32.2,32.2c-0.5,0.5-1.2,0.8-2,0.8s-1.4-0.3-2-0.8l-7.2-7.2c-0.5-0.5-0.8-1.2-0.8-2
							c0-0.8,0.3-1.4,0.8-2l23-23l-23-23c-0.5-0.5-0.8-1.2-0.8-2c0-0.8,0.3-1.4,0.8-2l7.2-7.2c0.5-0.5,1.2-0.8,2-0.8s1.4,0.3,2,0.8
							l32.2,32.2c0.5,0.5,0.8,1.2,0.8,2C138.8,113.1,138.5,113.7,138,114.3z"/>
					</g>
					<g>
						<path class="st2" d="M137.7,114l-32.2,32.2c-0.5,0.5-1.2,0.8-2,0.8c-0.8,0-1.4-0.3-2-0.8l-7.2-7.2c-0.5-0.5-0.8-1.2-0.8-2
							c0-0.8,0.3-1.4,0.8-2l23-23l-23-23c-0.5-0.5-0.8-1.2-0.8-2c0-0.8,0.3-1.4,0.8-2l7.2-7.2c0.5-0.5,1.2-0.8,2-0.8
							c0.8,0,1.4,0.3,2,0.8l32.2,32.2c0.5,0.5,0.8,1.2,0.8,2C138.5,112.8,138.3,113.5,137.7,114z"/>
					</g>
					<g>
						<path class="st2" d="M137.4,113.7l-32.2,32.2c-0.5,0.5-1.2,0.8-2,0.8c-0.8,0-1.4-0.3-2-0.8l-7.2-7.2c-0.5-0.5-0.8-1.2-0.8-2
							c0-0.8,0.3-1.4,0.8-2l23-23l-23-23c-0.5-0.5-0.8-1.2-0.8-2c0-0.8,0.3-1.4,0.8-2l7.2-7.2c0.5-0.5,1.2-0.8,2-0.8
							c0.8,0,1.4,0.3,2,0.8l32.2,32.2c0.5,0.5,0.8,1.2,0.8,2S138,113.2,137.4,113.7z"/>
					</g>
					<g>
						<path class="st2" d="M137.2,113.5L105,145.6c-0.5,0.5-1.2,0.8-2,0.8s-1.4-0.3-2-0.8l-7.2-7.2c-0.5-0.5-0.8-1.2-0.8-2
							c0-0.8,0.3-1.4,0.8-2l23-23l-23-23c-0.5-0.5-0.8-1.2-0.8-2c0-0.8,0.3-1.4,0.8-2l7.2-7.2c0.5-0.5,1.2-0.8,2-0.8s1.4,0.3,2,0.8
							l32.2,32.2c0.5,0.5,0.8,1.2,0.8,2C138,112.3,137.7,112.9,137.2,113.5z"/>
					</g>
					<g>
						<path class="st2" d="M136.9,113.2l-32.2,32.2c-0.5,0.5-1.2,0.8-2,0.8c-0.8,0-1.4-0.3-2-0.8l-7.2-7.2c-0.5-0.5-0.8-1.2-0.8-2
							c0-0.8,0.3-1.4,0.8-2l23-23l-23-23c-0.5-0.5-0.8-1.2-0.8-2c0-0.8,0.3-1.4,0.8-2l7.2-7.2c0.5-0.5,1.2-0.8,2-0.8
							c0.8,0,1.4,0.3,2,0.8l32.2,32.2c0.5,0.5,0.8,1.2,0.8,2S137.4,112.6,136.9,113.2z"/>
					</g>
					<g>
						<path class="st2" d="M136.6,112.9l-32.2,32.2c-0.5,0.5-1.2,0.8-2,0.8c-0.8,0-1.4-0.3-2-0.8l-7.2-7.2c-0.5-0.5-0.8-1.2-0.8-2
							c0-0.8,0.3-1.4,0.8-2l23-23l-23-23c-0.5-0.5-0.8-1.2-0.8-2c0-0.8,0.3-1.4,0.8-2l7.2-7.2c0.5-0.5,1.2-0.8,2-0.8
							c0.8,0,1.4,0.3,2,0.8l32.2,32.2c0.5,0.5,0.8,1.2,0.8,2S137.2,112.4,136.6,112.9z"/>
					</g>
					<g>
						<path class="st2" d="M136.3,112.6l-32.2,32.2c-0.5,0.5-1.2,0.8-2,0.8s-1.4-0.3-2-0.8l-7.2-7.2c-0.5-0.5-0.8-1.2-0.8-2
							c0-0.8,0.3-1.4,0.8-2l23-23l-23-23c-0.5-0.5-0.8-1.2-0.8-2c0-0.8,0.3-1.4,0.8-2l7.2-7.2c0.5-0.5,1.2-0.8,2-0.8s1.4,0.3,2,0.8
							l32.2,32.2c0.5,0.5,0.8,1.2,0.8,2C137.2,111.4,136.9,112.1,136.3,112.6z"/>
					</g>
					<g>
						<path class="st2" d="M136.1,112.4l-32.2,32.2c-0.5,0.5-1.2,0.8-2,0.8s-1.4-0.3-2-0.8l-7.2-7.2c-0.5-0.5-0.8-1.2-0.8-2
							c0-0.8,0.3-1.4,0.8-2l23-23l-23-23c-0.5-0.5-0.8-1.2-0.8-2c0-0.8,0.3-1.4,0.8-2l7.2-7.2c0.5-0.5,1.2-0.8,2-0.8s1.4,0.3,2,0.8
							l32.2,32.2c0.5,0.5,0.8,1.2,0.8,2S136.6,111.8,136.1,112.4z"/>
					</g>
					<g>
						<path class="st2" d="M135.8,112.1l-32.2,32.2c-0.5,0.5-1.2,0.8-2,0.8c-0.8,0-1.4-0.3-2-0.8l-7.2-7.2c-0.5-0.5-0.8-1.2-0.8-2
							c0-0.8,0.3-1.4,0.8-2l23-23l-23-23c-0.5-0.5-0.8-1.2-0.8-2c0-0.8,0.3-1.4,0.8-2l7.2-7.2c0.5-0.5,1.2-0.8,2-0.8
							c0.8,0,1.4,0.3,2,0.8l32.2,32.2c0.5,0.5,0.8,1.2,0.8,2S136.3,111.5,135.8,112.1z"/>
					</g>
					<g>
						<path class="st2" d="M135.5,111.8L103.3,144c-0.5,0.5-1.2,0.8-2,0.8c-0.8,0-1.4-0.3-2-0.8l-7.2-7.2c-0.5-0.5-0.8-1.2-0.8-2
							c0-0.8,0.3-1.4,0.8-2l23-23l-23-23c-0.5-0.5-0.8-1.2-0.8-2c0-0.8,0.3-1.4,0.8-2l7.2-7.2c0.5-0.5,1.2-0.8,2-0.8
							c0.8,0,1.4,0.3,2,0.8l32.2,32.2c0.5,0.5,0.8,1.2,0.8,2C136.3,110.6,136,111.3,135.5,111.8z"/>
					</g>
					<g>
						<path class="st2" d="M135.2,111.5l-32.2,32.2c-0.5,0.5-1.2,0.8-2,0.8s-1.4-0.3-2-0.8l-7.2-7.2c-0.5-0.5-0.8-1.2-0.8-2
							c0-0.8,0.3-1.4,0.8-2l23-23l-23-23c-0.5-0.5-0.8-1.2-0.8-2c0-0.8,0.3-1.4,0.8-2l7.2-7.2c0.5-0.5,1.2-0.8,2-0.8s1.4,0.3,2,0.8
							l32.2,32.2c0.5,0.5,0.8,1.2,0.8,2C136,110.3,135.8,111,135.2,111.5z"/>
					</g>
					<g>
						<path class="st2" d="M134.9,111.3l-32.2,32.2c-0.5,0.5-1.2,0.8-2,0.8c-0.8,0-1.4-0.3-2-0.8l-7.2-7.2c-0.5-0.5-0.8-1.2-0.8-2
							c0-0.8,0.3-1.4,0.8-2l23-23l-23-23c-0.5-0.5-0.8-1.2-0.8-2c0-0.8,0.3-1.4,0.8-2l7.2-7.2c0.5-0.5,1.2-0.8,2-0.8
							c0.8,0,1.4,0.3,2,0.8l32.2,32.2c0.5,0.5,0.8,1.2,0.8,2S135.5,110.7,134.9,111.3z"/>
					</g>
					<g>
						<path class="st2" d="M134.7,111l-32.2,32.2c-0.5,0.5-1.2,0.8-2,0.8c-0.8,0-1.4-0.3-2-0.8l-7.2-7.2c-0.5-0.5-0.8-1.2-0.8-2
							c0-0.8,0.3-1.4,0.8-2l23-23l-23-23c-0.5-0.5-0.8-1.2-0.8-2c0-0.8,0.3-1.4,0.8-2l7.2-7.2c0.5-0.5,1.2-0.8,2-0.8
							c0.8,0,1.4,0.3,2,0.8l32.2,32.2c0.5,0.5,0.8,1.2,0.8,2C135.5,109.8,135.2,110.4,134.7,111z"/>
					</g>
					<g>
						<path class="st2" d="M134.4,110.7l-32.2,32.2c-0.5,0.5-1.2,0.8-2,0.8s-1.4-0.3-2-0.8l-7.2-7.2c-0.5-0.5-0.8-1.2-0.8-2
							c0-0.8,0.3-1.4,0.8-2l23-23l-23-23c-0.5-0.5-0.8-1.2-0.8-2c0-0.8,0.3-1.4,0.8-2l7.2-7.2c0.5-0.5,1.2-0.8,2-0.8s1.4,0.3,2,0.8
							l32.2,32.2c0.5,0.5,0.8,1.2,0.8,2C135.2,109.5,134.9,110.2,134.4,110.7z"/>
					</g>
					<g>
						<path class="st2" d="M134.1,110.4L102,142.6c-0.5,0.5-1.2,0.8-2,0.8s-1.4-0.3-2-0.8l-7.2-7.2c-0.5-0.5-0.8-1.2-0.8-2
							c0-0.8,0.3-1.4,0.8-2l23-23l-23-23c-0.5-0.5-0.8-1.2-0.8-2c0-0.8,0.3-1.4,0.8-2l7.2-7.2c0.5-0.5,1.2-0.8,2-0.8s1.4,0.3,2,0.8
							l32.2,32.2c0.5,0.5,0.8,1.2,0.8,2C134.9,109.2,134.7,109.9,134.1,110.4z"/>
					</g>
					<g>
						<path class="st2" d="M133.8,110.2l-32.2,32.2c-0.5,0.5-1.2,0.8-2,0.8c-0.8,0-1.4-0.3-2-0.8l-7.2-7.2c-0.5-0.5-0.8-1.2-0.8-2
							c0-0.8,0.3-1.4,0.8-2l23-23l-23-23c-0.5-0.5-0.8-1.2-0.8-2c0-0.8,0.3-1.4,0.8-2l7.2-7.2c0.5-0.5,1.2-0.8,2-0.8
							c0.8,0,1.4,0.3,2,0.8l32.2,32.2c0.5,0.5,0.8,1.2,0.8,2S134.4,109.6,133.8,110.2z"/>
					</g>
					<g>
						<path class="st2" d="M133.6,109.9L101.4,142c-0.5,0.5-1.2,0.8-2,0.8s-1.4-0.3-2-0.8l-7.2-7.2c-0.5-0.5-0.8-1.2-0.8-2
							c0-0.8,0.3-1.4,0.8-2l23-23l-23-23c-0.5-0.5-0.8-1.2-0.8-2c0-0.8,0.3-1.4,0.8-2l7.2-7.2c0.5-0.5,1.2-0.8,2-0.8s1.4,0.3,2,0.8
							l32.2,32.2c0.5,0.5,0.8,1.2,0.8,2C134.4,108.7,134.1,109.3,133.6,109.9z"/>
					</g>
					<g>
						<path class="st2" d="M133.3,109.6l-32.2,32.2c-0.5,0.5-1.2,0.8-2,0.8c-0.8,0-1.4-0.3-2-0.8l-7.2-7.2c-0.5-0.5-0.8-1.2-0.8-2
							c0-0.8,0.3-1.4,0.8-2l23-23l-23-23c-0.5-0.5-0.8-1.2-0.8-2c0-0.8,0.3-1.4,0.8-2l7.2-7.2c0.5-0.5,1.2-0.8,2-0.8
							c0.8,0,1.4,0.3,2,0.8l32.2,32.2c0.5,0.5,0.8,1.2,0.8,2C134.1,108.4,133.8,109,133.3,109.6z"/>
					</g>
					<g>
						<path class="st2" d="M133,109.3l-32.2,32.2c-0.5,0.5-1.2,0.8-2,0.8c-0.8,0-1.4-0.3-2-0.8l-7.2-7.2c-0.5-0.5-0.8-1.2-0.8-2
							c0-0.8,0.3-1.4,0.8-2l23-23l-23-23c-0.5-0.5-0.8-1.2-0.8-2c0-0.8,0.3-1.4,0.8-2l7.2-7.2c0.5-0.5,1.2-0.8,2-0.8
							c0.8,0,1.4,0.3,2,0.8l32.2,32.2c0.5,0.5,0.8,1.2,0.8,2S133.6,108.8,133,109.3z"/>
					</g>
					<g>
						<path class="st2" d="M132.7,109l-32.2,32.2c-0.5,0.5-1.2,0.8-2,0.8s-1.4-0.3-2-0.8l-7.2-7.2c-0.5-0.5-0.8-1.2-0.8-2
							c0-0.8,0.3-1.4,0.8-2l23-23l-23-23c-0.5-0.5-0.8-1.2-0.8-2c0-0.8,0.3-1.4,0.8-2l7.2-7.2c0.5-0.5,1.2-0.8,2-0.8s1.4,0.3,2,0.8
							l32.2,32.2c0.5,0.5,0.8,1.2,0.8,2C133.6,107.8,133.3,108.5,132.7,109z"/>
					</g>
					<g>
						<path class="st2" d="M132.5,108.8l-32.2,32.2c-0.5,0.5-1.2,0.8-2,0.8c-0.8,0-1.4-0.3-2-0.8l-7.2-7.2c-0.5-0.5-0.8-1.2-0.8-2
							c0-0.8,0.3-1.4,0.8-2l23-23l-23-23c-0.5-0.5-0.8-1.2-0.8-2c0-0.8,0.3-1.4,0.8-2l7.2-7.2c0.5-0.5,1.2-0.8,2-0.8
							c0.8,0,1.4,0.3,2,0.8l32.2,32.2c0.5,0.5,0.8,1.2,0.8,2S133,108.2,132.5,108.8z"/>
					</g>
					<g>
						<path class="st2" d="M132.2,108.5L100,140.7c-0.5,0.5-1.2,0.8-2,0.8c-0.8,0-1.4-0.3-2-0.8l-7.2-7.2c-0.5-0.5-0.8-1.2-0.8-2
							c0-0.8,0.3-1.4,0.8-2l23-23l-23-23c-0.5-0.5-0.8-1.2-0.8-2c0-0.8,0.3-1.4,0.8-2l7.2-7.2c0.5-0.5,1.2-0.8,2-0.8
							c0.8,0,1.4,0.3,2,0.8l32.2,32.2c0.5,0.5,0.8,1.2,0.8,2S132.7,107.9,132.2,108.5z"/>
					</g>
					<g>
						<path class="st2" d="M131.9,108.2l-32.2,32.2c-0.5,0.5-1.2,0.8-2,0.8c-0.8,0-1.4-0.3-2-0.8l-7.2-7.2c-0.5-0.5-0.8-1.2-0.8-2
							c0-0.8,0.3-1.4,0.8-2l23-23l-23-23c-0.5-0.5-0.8-1.2-0.8-2c0-0.8,0.3-1.4,0.8-2l7.2-7.2c0.5-0.5,1.2-0.8,2-0.8
							c0.8,0,1.4,0.3,2,0.8l32.2,32.2c0.5,0.5,0.8,1.2,0.8,2C132.7,107,132.5,107.7,131.9,108.2z"/>
					</g>
					<g>
						<path class="st2" d="M131.6,107.9l-32.2,32.2c-0.5,0.5-1.2,0.8-2,0.8s-1.4-0.3-2-0.8l-7.2-7.2c-0.5-0.5-0.8-1.2-0.8-2
							c0-0.8,0.3-1.4,0.8-2l23-23l-23-23c-0.5-0.5-0.8-1.2-0.8-2c0-0.8,0.3-1.4,0.8-2l7.2-7.2c0.5-0.5,1.2-0.8,2-0.8s1.4,0.3,2,0.8
							l32.2,32.2c0.5,0.5,0.8,1.2,0.8,2C132.5,106.7,132.2,107.4,131.6,107.9z"/>
					</g>
					<g>
						<path class="st2" d="M131.4,107.7l-32.2,32.2c-0.5,0.5-1.2,0.8-2,0.8c-0.8,0-1.4-0.3-2-0.8l-7.2-7.2c-0.5-0.5-0.8-1.2-0.8-2
							c0-0.8,0.3-1.4,0.8-2l23-23l-23-23c-0.5-0.5-0.8-1.2-0.8-2c0-0.8,0.3-1.4,0.8-2l7.2-7.2c0.5-0.5,1.2-0.8,2-0.8
							c0.8,0,1.4,0.3,2,0.8l32.2,32.2c0.5,0.5,0.8,1.2,0.8,2S131.9,107.1,131.4,107.7z"/>
					</g>
					<g>
						<path class="st2" d="M131.1,107.4l-32.2,32.2c-0.5,0.5-1.2,0.8-2,0.8c-0.8,0-1.4-0.3-2-0.8l-7.2-7.2c-0.5-0.5-0.8-1.2-0.8-2
							c0-0.8,0.3-1.4,0.8-2l23-23l-23-23c-0.5-0.5-0.8-1.2-0.8-2c0-0.8,0.3-1.4,0.8-2l7.2-7.2c0.5-0.5,1.2-0.8,2-0.8
							c0.8,0,1.4,0.3,2,0.8l32.2,32.2c0.5,0.5,0.8,1.2,0.8,2C131.9,106.2,131.6,106.8,131.1,107.4z"/>
					</g>
					<g>
						<path class="st2" d="M130.8,107.1l-32.2,32.2c-0.5,0.5-1.2,0.8-2,0.8s-1.4-0.3-2-0.8l-7.2-7.2c-0.5-0.5-0.8-1.2-0.8-2
							c0-0.8,0.3-1.4,0.8-2l23-23l-23-23c-0.5-0.5-0.8-1.2-0.8-2c0-0.8,0.3-1.4,0.8-2l7.2-7.2c0.5-0.5,1.2-0.8,2-0.8s1.4,0.3,2,0.8
							l32.2,32.2c0.5,0.5,0.8,1.2,0.8,2C131.6,105.9,131.3,106.6,130.8,107.1z"/>
					</g>
					<g>
						<path class="st2" d="M130.5,106.8L98.4,139c-0.5,0.5-1.2,0.8-2,0.8s-1.4-0.3-2-0.8l-7.2-7.2c-0.5-0.5-0.8-1.2-0.8-2
							c0-0.8,0.3-1.4,0.8-2l23-23l-23-23c-0.5-0.5-0.8-1.2-0.8-2c0-0.8,0.3-1.4,0.8-2l7.2-7.2c0.5-0.5,1.2-0.8,2-0.8s1.4,0.3,2,0.8
							l32.2,32.2c0.5,0.5,0.8,1.2,0.8,2S131.1,106.3,130.5,106.8z"/>
					</g>
					<g>
						<path class="st2" d="M130.2,106.6l-32.2,32.2c-0.5,0.5-1.2,0.8-2,0.8c-0.8,0-1.4-0.3-2-0.8l-7.2-7.2c-0.5-0.5-0.8-1.2-0.8-2
							c0-0.8,0.3-1.4,0.8-2l23-23l-23-23c-0.5-0.5-0.8-1.2-0.8-2c0-0.8,0.3-1.4,0.8-2l7.2-7.2c0.5-0.5,1.2-0.8,2-0.8
							c0.8,0,1.4,0.3,2,0.8l32.2,32.2c0.5,0.5,0.8,1.2,0.8,2S130.8,106,130.2,106.6z"/>
					</g>
					<g>
						<path class="st2" d="M130,106.3l-32.2,32.2c-0.5,0.5-1.2,0.8-2,0.8s-1.4-0.3-2-0.8l-7.2-7.2c-0.5-0.5-0.8-1.2-0.8-2
							c0-0.8,0.3-1.4,0.8-2l23-23l-23-23c-0.5-0.5-0.8-1.2-0.8-2c0-0.8,0.3-1.4,0.8-2l7.2-7.2c0.5-0.5,1.2-0.8,2-0.8s1.4,0.3,2,0.8
							l32.2,32.2c0.5,0.5,0.8,1.2,0.8,2C130.8,105.1,130.5,105.7,130,106.3z"/>
					</g>
					<g>
						<path class="st2" d="M129.7,106l-32.2,32.2c-0.5,0.5-1.2,0.8-2,0.8s-1.4-0.3-2-0.8l-7.2-7.2c-0.5-0.5-0.8-1.2-0.8-2
							c0-0.8,0.3-1.4,0.8-2l23-23l-23-23c-0.5-0.5-0.8-1.2-0.8-2c0-0.8,0.3-1.4,0.8-2l7.2-7.2c0.5-0.5,1.2-0.8,2-0.8s1.4,0.3,2,0.8
							l32.2,32.2c0.5,0.5,0.8,1.2,0.8,2C130.5,104.8,130.2,105.5,129.7,106z"/>
					</g>
					<g>
						<path class="st2" d="M129.4,105.7l-32.2,32.2c-0.5,0.5-1.2,0.8-2,0.8c-0.8,0-1.4-0.3-2-0.8l-7.2-7.2c-0.5-0.5-0.8-1.2-0.8-2
							c0-0.8,0.3-1.4,0.8-2l23-23l-23-23c-0.5-0.5-0.8-1.2-0.8-2c0-0.8,0.3-1.4,0.8-2l7.2-7.2c0.5-0.5,1.2-0.8,2-0.8
							c0.8,0,1.4,0.3,2,0.8l32.2,32.2c0.5,0.5,0.8,1.2,0.8,2S130,105.2,129.4,105.7z"/>
					</g>
					<g>
						<path class="st2" d="M129.1,105.5L97,137.6c-0.5,0.5-1.2,0.8-2,0.8s-1.4-0.3-2-0.8l-7.2-7.2c-0.5-0.5-0.8-1.2-0.8-2
							c0-0.8,0.3-1.4,0.8-2l23-23l-23-23c-0.5-0.5-0.8-1.2-0.8-2c0-0.8,0.3-1.4,0.8-2l7.2-7.2c0.5-0.5,1.2-0.8,2-0.8s1.4,0.3,2,0.8
							l32.2,32.2c0.5,0.5,0.8,1.2,0.8,2C130,104.3,129.7,104.9,129.1,105.5z"/>
					</g>
					<g>
						<path class="st2" d="M128.9,105.2l-32.2,32.2c-0.5,0.5-1.2,0.8-2,0.8s-1.4-0.3-2-0.8l-7.2-7.2c-0.5-0.5-0.8-1.2-0.8-2
							c0-0.8,0.3-1.4,0.8-2l23-23l-23-23c-0.5-0.5-0.8-1.2-0.8-2c0-0.8,0.3-1.4,0.8-2l7.2-7.2c0.5-0.5,1.2-0.8,2-0.8s1.4,0.3,2,0.8
							l32.2,32.2c0.5,0.5,0.8,1.2,0.8,2C129.7,104,129.4,104.6,128.9,105.2z"/>
					</g>
					<g>
						<path class="st2" d="M128.6,104.9l-32.2,32.2c-0.5,0.5-1.2,0.8-2,0.8c-0.8,0-1.4-0.3-2-0.8l-7.2-7.2c-0.5-0.5-0.8-1.2-0.8-2
							c0-0.8,0.3-1.4,0.8-2l23-23l-23-23c-0.5-0.5-0.8-1.2-0.8-2c0-0.8,0.3-1.4,0.8-2l7.2-7.2c0.5-0.5,1.2-0.8,2-0.8
							c0.8,0,1.4,0.3,2,0.8l32.2,32.2c0.5,0.5,0.8,1.2,0.8,2S129.1,104.3,128.6,104.9z"/>
					</g>
					<g>
						<path class="st2" d="M128.3,104.6l-32.2,32.2c-0.5,0.5-1.2,0.8-2,0.8c-0.8,0-1.4-0.3-2-0.8l-7.2-7.2c-0.5-0.5-0.8-1.2-0.8-2
							c0-0.8,0.3-1.4,0.8-2l23-23l-23-23c-0.5-0.5-0.8-1.2-0.8-2c0-0.8,0.3-1.4,0.8-2l7.2-7.2c0.5-0.5,1.2-0.8,2-0.8
							c0.8,0,1.4,0.3,2,0.8l32.2,32.2c0.5,0.5,0.8,1.2,0.8,2C129.1,103.4,128.9,104.1,128.3,104.6z"/>
					</g>
					<g>
						<path class="st2" d="M128,104.3l-32.2,32.2c-0.5,0.5-1.2,0.8-2,0.8c-0.8,0-1.4-0.3-2-0.8l-7.2-7.2c-0.5-0.5-0.8-1.2-0.8-2
							c0-0.8,0.3-1.4,0.8-2l23-23l-23-23c-0.5-0.5-0.8-1.2-0.8-2c0-0.8,0.3-1.4,0.8-2l7.2-7.2c0.5-0.5,1.2-0.8,2-0.8
							c0.8,0,1.4,0.3,2,0.8l32.2,32.2c0.5,0.5,0.8,1.2,0.8,2C128.9,103.1,128.6,103.8,128,104.3z"/>
					</g>
					<g>
						<path class="st2" d="M127.8,104.1l-32.2,32.2c-0.5,0.5-1.2,0.8-2,0.8c-0.8,0-1.4-0.3-2-0.8l-7.2-7.2c-0.5-0.5-0.8-1.2-0.8-2
							c0-0.8,0.3-1.4,0.8-2l23-23l-23-23c-0.5-0.5-0.8-1.2-0.8-2c0-0.8,0.3-1.4,0.8-2l7.2-7.2c0.5-0.5,1.2-0.8,2-0.8
							c0.8,0,1.4,0.3,2,0.8l32.2,32.2c0.5,0.5,0.8,1.2,0.8,2S128.3,103.5,127.8,104.1z"/>
					</g>
					<g>
						<path class="st2" d="M127.5,103.8L95.3,136c-0.5,0.5-1.2,0.8-2,0.8c-0.8,0-1.4-0.3-2-0.8l-7.2-7.2c-0.5-0.5-0.8-1.2-0.8-2
							c0-0.8,0.3-1.4,0.8-2l23-23l-23-23c-0.5-0.5-0.8-1.2-0.8-2c0-0.8,0.3-1.4,0.8-2l7.2-7.2c0.5-0.5,1.2-0.8,2-0.8
							c0.8,0,1.4,0.3,2,0.8l32.2,32.2c0.5,0.5,0.8,1.2,0.8,2C128.3,102.6,128,103.2,127.5,103.8z"/>
					</g>
					<g>
						<path class="st2" d="M127.2,103.5L95,135.7c-0.5,0.5-1.2,0.8-2,0.8s-1.4-0.3-2-0.8l-7.2-7.2c-0.5-0.5-0.8-1.2-0.8-2
							c0-0.8,0.3-1.4,0.8-2l23-23l-23-23c-0.5-0.5-0.8-1.2-0.8-2c0-0.8,0.3-1.4,0.8-2l7.2-7.2c0.5-0.5,1.2-0.8,2-0.8s1.4,0.3,2,0.8
							l32.2,32.2c0.5,0.5,0.8,1.2,0.8,2C128,102.3,127.8,103,127.2,103.5z"/>
					</g>
					<g>
						<path class="st2" d="M126.9,103.2l-32.2,32.2c-0.5,0.5-1.2,0.8-2,0.8c-0.8,0-1.4-0.3-2-0.8l-7.2-7.2c-0.5-0.5-0.8-1.2-0.8-2
							c0-0.8,0.3-1.4,0.8-2l23-23l-23-23c-0.5-0.5-0.8-1.2-0.8-2c0-0.8,0.3-1.4,0.8-2l7.2-7.2c0.5-0.5,1.2-0.8,2-0.8
							c0.8,0,1.4,0.3,2,0.8l32.2,32.2c0.5,0.5,0.8,1.2,0.8,2S127.5,102.7,126.9,103.2z"/>
					</g>
					<g>
						<path class="st2" d="M126.7,103l-32.2,32.2c-0.5,0.5-1.2,0.8-2,0.8c-0.8,0-1.4-0.3-2-0.8l-7.2-7.2c-0.5-0.5-0.8-1.2-0.8-2
							c0-0.8,0.3-1.4,0.8-2l23-23l-23-23c-0.5-0.5-0.8-1.2-0.8-2c0-0.8,0.3-1.4,0.8-2l7.2-7.2c0.5-0.5,1.2-0.8,2-0.8
							c0.8,0,1.4,0.3,2,0.8l32.2,32.2c0.5,0.5,0.8,1.2,0.8,2S127.2,102.4,126.7,103z"/>
					</g>
					<g>
						<path class="st2" d="M126.4,102.7l-32.2,32.2c-0.5,0.5-1.2,0.8-2,0.8s-1.4-0.3-2-0.8l-7.2-7.2c-0.5-0.5-0.8-1.2-0.8-2
							c0-0.8,0.3-1.4,0.8-2l23-23l-23-23c-0.5-0.5-0.8-1.2-0.8-2c0-0.8,0.3-1.4,0.8-2l7.2-7.2c0.5-0.5,1.2-0.8,2-0.8s1.4,0.3,2,0.8
							l32.2,32.2c0.5,0.5,0.8,1.2,0.8,2C127.2,101.5,126.9,102.1,126.4,102.7z"/>
					</g>
					<g>
						<path class="st2" d="M126.1,102.4l-32.2,32.2c-0.5,0.5-1.2,0.8-2,0.8s-1.4-0.3-2-0.8l-7.2-7.2c-0.5-0.5-0.8-1.2-0.8-2
							c0-0.8,0.3-1.4,0.8-2l23-23l-23-23c-0.5-0.5-0.8-1.2-0.8-2c0-0.8,0.3-1.4,0.8-2l7.2-7.2c0.5-0.5,1.2-0.8,2-0.8s1.4,0.3,2,0.8
							l32.2,32.2c0.5,0.5,0.8,1.2,0.8,2S126.6,101.9,126.1,102.4z"/>
					</g>
					<g>
						<path class="st2" d="M125.8,102.1l-32.2,32.2c-0.5,0.5-1.2,0.8-2,0.8c-0.8,0-1.4-0.3-2-0.8l-7.2-7.2c-0.5-0.5-0.8-1.2-0.8-2
							c0-0.8,0.3-1.4,0.8-2l23-23l-23-23c-0.5-0.5-0.8-1.2-0.8-2c0-0.8,0.3-1.4,0.8-2l7.2-7.2c0.5-0.5,1.2-0.8,2-0.8
							c0.8,0,1.4,0.3,2,0.8l32.2,32.2c0.5,0.5,0.8,1.2,0.8,2S126.4,101.6,125.8,102.1z"/>
					</g>
					<g>
						<path class="st2" d="M125.5,101.9L93.4,134c-0.5,0.5-1.2,0.8-2,0.8s-1.4-0.3-2-0.8l-7.2-7.2c-0.5-0.5-0.8-1.2-0.8-2
							c0-0.8,0.3-1.4,0.8-2l23-23l-23-23c-0.5-0.5-0.8-1.2-0.8-2c0-0.8,0.3-1.4,0.8-2l7.2-7.2c0.5-0.5,1.2-0.8,2-0.8s1.4,0.3,2,0.8
							L125.5,98c0.5,0.5,0.8,1.2,0.8,2C126.4,100.7,126.1,101.3,125.5,101.9z"/>
					</g>
					<g>
						<path class="st2" d="M125.3,101.6l-32.2,32.2c-0.5,0.5-1.2,0.8-2,0.8s-1.4-0.3-2-0.8l-7.2-7.2c-0.5-0.5-0.8-1.2-0.8-2
							c0-0.8,0.3-1.4,0.8-2l23-23l-23-23c-0.5-0.5-0.8-1.2-0.8-2c0-0.8,0.3-1.4,0.8-2l7.2-7.2c0.5-0.5,1.2-0.8,2-0.8s1.4,0.3,2,0.8
							l32.2,32.2c0.5,0.5,0.8,1.2,0.8,2S125.8,101,125.3,101.6z"/>
					</g>
					<g>
						<path class="st2" d="M125,101.3l-32.2,32.2c-0.5,0.5-1.2,0.8-2,0.8c-0.8,0-1.4-0.3-2-0.8l-7.2-7.2c-0.5-0.5-0.8-1.2-0.8-2
							c0-0.8,0.3-1.4,0.8-2l23-23l-23-23c-0.5-0.5-0.8-1.2-0.8-2c0-0.8,0.3-1.4,0.8-2l7.2-7.2c0.5-0.5,1.2-0.8,2-0.8
							c0.8,0,1.4,0.3,2,0.8L125,97.4c0.5,0.5,0.8,1.2,0.8,2S125.5,100.8,125,101.3z"/>
					</g>
					<g>
						<path class="st2" d="M124.7,101l-32.2,32.2c-0.5,0.5-1.2,0.8-2,0.8s-1.4-0.3-2-0.8l-7.2-7.2c-0.5-0.5-0.8-1.2-0.8-2
							c0-0.8,0.3-1.4,0.8-2l23-23l-23-23c-0.5-0.5-0.8-1.2-0.8-2c0-0.8,0.3-1.4,0.8-2l7.2-7.2c0.5-0.5,1.2-0.8,2-0.8s1.4,0.3,2,0.8
							l32.2,32.2c0.5,0.5,0.8,1.2,0.8,2C125.5,99.8,125.3,100.5,124.7,101z"/>
					</g>
					<g>
						<path class="st2" d="M124.4,100.8l-32.2,32.2c-0.5,0.5-1.2,0.8-2,0.8s-1.4-0.3-2-0.8l-7.2-7.2c-0.5-0.5-0.8-1.2-0.8-2
							c0-0.8,0.3-1.4,0.8-2l23-23l-23-23c-0.5-0.5-0.8-1.2-0.8-2c0-0.8,0.3-1.4,0.8-2l7.2-7.2c0.5-0.5,1.2-0.8,2-0.8s1.4,0.3,2,0.8
							l32.2,32.2c0.5,0.5,0.8,1.2,0.8,2C125.3,99.6,125,100.2,124.4,100.8z"/>
					</g>
					<g>
						<path class="st2" d="M124.2,100.5L92,132.6c-0.5,0.5-1.2,0.8-2,0.8c-0.8,0-1.4-0.3-2-0.8l-7.2-7.2c-0.5-0.5-0.8-1.2-0.8-2
							c0-0.8,0.3-1.4,0.8-2l23-23l-23-23c-0.5-0.5-0.8-1.2-0.8-2c0-0.8,0.3-1.4,0.8-2l7.2-7.2c0.5-0.5,1.2-0.8,2-0.8
							c0.8,0,1.4,0.3,2,0.8l32.2,32.2c0.5,0.5,0.8,1.2,0.8,2S124.7,99.9,124.2,100.5z"/>
					</g>
					<g>
						<path class="st2" d="M123.9,100.2l-32.2,32.2c-0.5,0.5-1.2,0.8-2,0.8c-0.8,0-1.4-0.3-2-0.8l-7.2-7.2c-0.5-0.5-0.8-1.2-0.8-2
							c0-0.8,0.3-1.4,0.8-2l23-23l-23-23c-0.5-0.5-0.8-1.2-0.8-2c0-0.8,0.3-1.4,0.8-2l7.2-7.2c0.5-0.5,1.2-0.8,2-0.8
							c0.8,0,1.4,0.3,2,0.8l32.2,32.2c0.5,0.5,0.8,1.2,0.8,2C124.7,99,124.4,99.6,123.9,100.2z"/>
					</g>
					<g>
						<path class="st2" d="M123.6,99.9l-32.2,32.2c-0.5,0.5-1.2,0.8-2,0.8c-0.8,0-1.4-0.3-2-0.8l-7.2-7.2c-0.5-0.5-0.8-1.2-0.8-2
							c0-0.8,0.3-1.4,0.8-2l23-23l-23-23c-0.5-0.5-0.8-1.2-0.8-2c0-0.8,0.3-1.4,0.8-2l7.2-7.2c0.5-0.5,1.2-0.8,2-0.8
							c0.8,0,1.4,0.3,2,0.8L123.6,96c0.5,0.5,0.8,1.2,0.8,2C124.4,98.7,124.2,99.4,123.6,99.9z"/>
					</g>
					<g>
						<path class="st2" d="M123.3,99.6l-32.2,32.2c-0.5,0.5-1.2,0.8-2,0.8c-0.8,0-1.4-0.3-2-0.8l-7.2-7.2c-0.5-0.5-0.8-1.2-0.8-2
							c0-0.8,0.3-1.4,0.8-2l23-23l-23-23c-0.5-0.5-0.8-1.2-0.8-2c0-0.8,0.3-1.4,0.8-2l7.2-7.2c0.5-0.5,1.2-0.8,2-0.8
							c0.8,0,1.4,0.3,2,0.8l32.2,32.2c0.5,0.5,0.8,1.2,0.8,2S123.9,99.1,123.3,99.6z"/>
					</g>
					<g>
						<path class="st2" d="M123.1,99.4l-32.2,32.2c-0.5,0.5-1.2,0.8-2,0.8c-0.8,0-1.4-0.3-2-0.8l-7.2-7.2c-0.5-0.5-0.8-1.2-0.8-2
							c0-0.8,0.3-1.4,0.8-2l23-23l-23-23c-0.5-0.5-0.8-1.2-0.8-2c0-0.8,0.3-1.4,0.8-2l7.2-7.2c0.5-0.5,1.2-0.8,2-0.8
							c0.8,0,1.4,0.3,2,0.8l32.2,32.2c0.5,0.5,0.8,1.2,0.8,2C123.9,98.2,123.6,98.8,123.1,99.4z"/>
					</g>
					<g>
						<path class="st2" d="M122.8,99.1l-32.2,32.2c-0.5,0.5-1.2,0.8-2,0.8s-1.4-0.3-2-0.8l-7.2-7.2c-0.5-0.5-0.8-1.2-0.8-2
							c0-0.8,0.3-1.4,0.8-2l23-23l-23-23c-0.5-0.5-0.8-1.2-0.8-2c0-0.8,0.3-1.4,0.8-2l7.2-7.2c0.5-0.5,1.2-0.8,2-0.8s1.4,0.3,2,0.8
							l32.2,32.2c0.5,0.5,0.8,1.2,0.8,2C123.6,97.9,123.3,98.5,122.8,99.1z"/>
					</g>
					<g>
						<path class="st2" d="M122.5,98.8L90.3,131c-0.5,0.5-1.2,0.8-2,0.8s-1.4-0.3-2-0.8l-7.2-7.2c-0.5-0.5-0.8-1.2-0.8-2
							c0-0.8,0.3-1.4,0.8-2l23-23l-23-23c-0.5-0.5-0.8-1.2-0.8-2c0-0.8,0.3-1.4,0.8-2l7.2-7.2c0.5-0.5,1.2-0.8,2-0.8s1.4,0.3,2,0.8
							l32.2,32.2c0.5,0.5,0.8,1.2,0.8,2S123.1,98.3,122.5,98.8z"/>
					</g>
					<g>
						<path class="st2" d="M122.2,98.5l-32.2,32.2c-0.5,0.5-1.2,0.8-2,0.8c-0.8,0-1.4-0.3-2-0.8l-7.2-7.2c-0.5-0.5-0.8-1.2-0.8-2
							c0-0.8,0.3-1.4,0.8-2l23-23l-23-23c-0.5-0.5-0.8-1.2-0.8-2c0-0.8,0.3-1.4,0.8-2l7.2-7.2c0.5-0.5,1.2-0.8,2-0.8
							c0.8,0,1.4,0.3,2,0.8l32.2,32.2c0.5,0.5,0.8,1.2,0.8,2S122.8,98,122.2,98.5z"/>
					</g>
					<g>
						<path class="st2" d="M122,98.3l-32.2,32.2c-0.5,0.5-1.2,0.8-2,0.8s-1.4-0.3-2-0.8l-7.2-7.2c-0.5-0.5-0.8-1.2-0.8-2
							c0-0.8,0.3-1.4,0.8-2l23-23l-23-23c-0.5-0.5-0.8-1.2-0.8-2c0-0.8,0.3-1.4,0.8-2l7.2-7.2c0.5-0.5,1.2-0.8,2-0.8s1.4,0.3,2,0.8
							L122,94.4c0.5,0.5,0.8,1.2,0.8,2C122.8,97.1,122.5,97.7,122,98.3z"/>
					</g>
					<g>
						<path class="st2" d="M121.7,98l-32.2,32.2c-0.5,0.5-1.2,0.8-2,0.8s-1.4-0.3-2-0.8l-7.2-7.2c-0.5-0.5-0.8-1.2-0.8-2
							c0-0.8,0.3-1.4,0.8-2l23-23l-23-23c-0.5-0.5-0.8-1.2-0.8-2c0-0.8,0.3-1.4,0.8-2l7.2-7.2c0.5-0.5,1.2-0.8,2-0.8s1.4,0.3,2,0.8
							l32.2,32.2c0.5,0.5,0.8,1.2,0.8,2S122.2,97.4,121.7,98z"/>
					</g>
					<g>
						<path class="st2" d="M121.4,97.7l-32.2,32.2c-0.5,0.5-1.2,0.8-2,0.8c-0.8,0-1.4-0.3-2-0.8l-7.2-7.2c-0.5-0.5-0.8-1.2-0.8-2
							c0-0.8,0.3-1.4,0.8-2l23-23l-23-23c-0.5-0.5-0.8-1.2-0.8-2c0-0.8,0.3-1.4,0.8-2l7.2-7.2c0.5-0.5,1.2-0.8,2-0.8
							c0.8,0,1.4,0.3,2,0.8l32.2,32.2c0.5,0.5,0.8,1.2,0.8,2S121.9,97.2,121.4,97.7z"/>
					</g>
					<g>
						<path class="st2" d="M121.1,97.4L89,129.6c-0.5,0.5-1.2,0.8-2,0.8s-1.4-0.3-2-0.8l-7.2-7.2c-0.5-0.5-0.8-1.2-0.8-2
							c0-0.8,0.3-1.4,0.8-2l23-23l-23-23c-0.5-0.5-0.8-1.2-0.8-2c0-0.8,0.3-1.4,0.8-2l7.2-7.2c0.5-0.5,1.2-0.8,2-0.8s1.4,0.3,2,0.8
							l32.2,32.2c0.5,0.5,0.8,1.2,0.8,2C121.9,96.2,121.7,96.9,121.1,97.4z"/>
					</g>
					<g>
						<path class="st2" d="M120.8,97.2l-32.2,32.2c-0.5,0.5-1.2,0.8-2,0.8s-1.4-0.3-2-0.8l-7.2-7.2c-0.5-0.5-0.8-1.2-0.8-2
							c0-0.8,0.3-1.4,0.8-2l23-23l-23-23c-0.5-0.5-0.8-1.2-0.8-2c0-0.8,0.3-1.4,0.8-2l7.2-7.2c0.5-0.5,1.2-0.8,2-0.8s1.4,0.3,2,0.8
							l32.2,32.2c0.5,0.5,0.8,1.2,0.8,2C121.7,96,121.4,96.6,120.8,97.2z"/>
					</g>
					<g>
						<path class="st2" d="M120.6,96.9L88.4,129c-0.5,0.5-1.2,0.8-2,0.8c-0.8,0-1.4-0.3-2-0.8l-7.2-7.2c-0.5-0.5-0.8-1.2-0.8-2
							c0-0.8,0.3-1.4,0.8-2l23-23l-23-23c-0.5-0.5-0.8-1.2-0.8-2c0-0.8,0.3-1.4,0.8-2l7.2-7.2c0.5-0.5,1.2-0.8,2-0.8
							c0.8,0,1.4,0.3,2,0.8L120.6,93c0.5,0.5,0.8,1.2,0.8,2S121.1,96.3,120.6,96.9z"/>
					</g>
					<g>
						<path class="st2" d="M120.3,96.6l-32.2,32.2c-0.5,0.5-1.2,0.8-2,0.8c-0.8,0-1.4-0.3-2-0.8l-7.2-7.2c-0.5-0.5-0.8-1.2-0.8-2
							c0-0.8,0.3-1.4,0.8-2l23-23l-23-23c-0.5-0.5-0.8-1.2-0.8-2c0-0.8,0.3-1.4,0.8-2l7.2-7.2c0.5-0.5,1.2-0.8,2-0.8
							c0.8,0,1.4,0.3,2,0.8l32.2,32.2c0.5,0.5,0.8,1.2,0.8,2C121.1,95.4,120.8,96.1,120.3,96.6z"/>
					</g>
					<g>
						<path class="st2" d="M120,96.3l-32.2,32.2c-0.5,0.5-1.2,0.8-2,0.8s-1.4-0.3-2-0.8l-7.2-7.2c-0.5-0.5-0.8-1.2-0.8-2
							c0-0.8,0.3-1.4,0.8-2l23-23l-23-23c-0.5-0.5-0.8-1.2-0.8-2c0-0.8,0.3-1.4,0.8-2l7.2-7.2c0.5-0.5,1.2-0.8,2-0.8s1.4,0.3,2,0.8
							L120,92.4c0.5,0.5,0.8,1.2,0.8,2C120.8,95.1,120.6,95.8,120,96.3z"/>
					</g>
					<g>
						<path class="st2" d="M119.7,96.1l-32.2,32.2c-0.5,0.5-1.2,0.8-2,0.8c-0.8,0-1.4-0.3-2-0.8l-7.2-7.2c-0.5-0.5-0.8-1.2-0.8-2
							c0-0.8,0.3-1.4,0.8-2l23-23l-23-23c-0.5-0.5-0.8-1.2-0.8-2c0-0.8,0.3-1.4,0.8-2l7.2-7.2c0.5-0.5,1.2-0.8,2-0.8
							c0.8,0,1.4,0.3,2,0.8l32.2,32.2c0.5,0.5,0.8,1.2,0.8,2S120.3,95.5,119.7,96.1z"/>
					</g>
					<g>
						<path class="st2" d="M119.5,95.8l-32.2,32.2c-0.5,0.5-1.2,0.8-2,0.8c-0.8,0-1.4-0.3-2-0.8l-7.2-7.2c-0.5-0.5-0.8-1.2-0.8-2
							c0-0.8,0.3-1.4,0.8-2l23-23l-23-23c-0.5-0.5-0.8-1.2-0.8-2c0-0.8,0.3-1.4,0.8-2l7.2-7.2c0.5-0.5,1.2-0.8,2-0.8
							c0.8,0,1.4,0.3,2,0.8l32.2,32.2c0.5,0.5,0.8,1.2,0.8,2S120,95.2,119.5,95.8z"/>
					</g>
					<g>
						<path class="st2" d="M119.2,95.5L87,127.7c-0.5,0.5-1.2,0.8-2,0.8c-0.8,0-1.4-0.3-2-0.8l-7.2-7.2c-0.5-0.5-0.8-1.2-0.8-2
							c0-0.8,0.3-1.4,0.8-2l23-23l-23-23c-0.5-0.5-0.8-1.2-0.8-2c0-0.8,0.3-1.4,0.8-2l7.2-7.2c0.5-0.5,1.2-0.8,2-0.8
							c0.8,0,1.4,0.3,2,0.8l32.2,32.2c0.5,0.5,0.8,1.2,0.8,2C120,94.3,119.7,94.9,119.2,95.5z"/>
					</g>
					<g>
						<path class="st2" d="M118.9,95.2l-32.2,32.2c-0.5,0.5-1.2,0.8-2,0.8s-1.4-0.3-2-0.8l-7.2-7.2c-0.5-0.5-0.8-1.2-0.8-2
							c0-0.8,0.3-1.4,0.8-2l23-23l-23-23c-0.5-0.5-0.8-1.2-0.8-2c0-0.8,0.3-1.4,0.8-2l7.2-7.2c0.5-0.5,1.2-0.8,2-0.8s1.4,0.3,2,0.8
							l32.2,32.2c0.5,0.5,0.8,1.2,0.8,2S119.5,94.7,118.9,95.2z"/>
					</g>
					<g>
						<path class="st2" d="M118.6,94.9l-32.2,32.2c-0.5,0.5-1.2,0.8-2,0.8c-0.8,0-1.4-0.3-2-0.8l-7.2-7.2c-0.5-0.5-0.8-1.2-0.8-2
							c0-0.8,0.3-1.4,0.8-2l23-23l-23-23c-0.5-0.5-0.8-1.2-0.8-2c0-0.8,0.3-1.4,0.8-2l7.2-7.2c0.5-0.5,1.2-0.8,2-0.8
							c0.8,0,1.4,0.3,2,0.8L118.6,91c0.5,0.5,0.8,1.2,0.8,2C119.5,93.7,119.2,94.4,118.6,94.9z"/>
					</g>
					<g>
						<path class="st2" d="M118.4,94.7l-32.2,32.2c-0.5,0.5-1.2,0.8-2,0.8s-1.4-0.3-2-0.8l-7.2-7.2c-0.5-0.5-0.8-1.2-0.8-2
							c0-0.8,0.3-1.4,0.8-2l23-23l-23-23c-0.5-0.5-0.8-1.2-0.8-2c0-0.8,0.3-1.4,0.8-2l7.2-7.2c0.5-0.5,1.2-0.8,2-0.8s1.4,0.3,2,0.8
							l32.2,32.2c0.5,0.5,0.8,1.2,0.8,2C119.2,93.5,118.9,94.1,118.4,94.7z"/>
					</g>
					<g>
						<path class="st2" d="M118.1,94.4l-32.2,32.2c-0.5,0.5-1.2,0.8-2,0.8s-1.4-0.3-2-0.8l-7.2-7.2c-0.5-0.5-0.8-1.2-0.8-2
							c0-0.8,0.3-1.4,0.8-2l23-23l-23-23c-0.5-0.5-0.8-1.2-0.8-2c0-0.8,0.3-1.4,0.8-2l7.2-7.2c0.5-0.5,1.2-0.8,2-0.8s1.4,0.3,2,0.8
							l32.2,32.2c0.5,0.5,0.8,1.2,0.8,2S118.6,93.8,118.1,94.4z"/>
					</g>
					<g>
						<path class="st2" d="M117.8,94.1l-32.2,32.2c-0.5,0.5-1.2,0.8-2,0.8c-0.8,0-1.4-0.3-2-0.8l-7.2-7.2c-0.5-0.5-0.8-1.2-0.8-2
							c0-0.8,0.3-1.4,0.8-2l23-23l-23-23c-0.5-0.5-0.8-1.2-0.8-2c0-0.8,0.3-1.4,0.8-2l7.2-7.2c0.5-0.5,1.2-0.8,2-0.8
							c0.8,0,1.4,0.3,2,0.8l32.2,32.2c0.5,0.5,0.8,1.2,0.8,2S118.4,93.6,117.8,94.1z"/>
					</g>
					<g>
						<path class="st2" d="M117.5,93.8L85.4,126c-0.5,0.5-1.2,0.8-2,0.8s-1.4-0.3-2-0.8l-7.2-7.2c-0.5-0.5-0.8-1.2-0.8-2
							c0-0.8,0.3-1.4,0.8-2l23-23l-23-23c-0.5-0.5-0.8-1.2-0.8-2c0-0.8,0.3-1.4,0.8-2l7.2-7.2c0.5-0.5,1.2-0.8,2-0.8s1.4,0.3,2,0.8
							l32.2,32.2c0.5,0.5,0.8,1.2,0.8,2C118.4,92.6,118.1,93.3,117.5,93.8z"/>
					</g>
					<g>
						<path class="st2" d="M117.3,93.6l-32.2,32.2c-0.5,0.5-1.2,0.8-2,0.8s-1.4-0.3-2-0.8l-7.2-7.2c-0.5-0.5-0.8-1.2-0.8-2
							c0-0.8,0.3-1.4,0.8-2l23-23l-23-23c-0.5-0.5-0.8-1.2-0.8-2c0-0.8,0.3-1.4,0.8-2l7.2-7.2c0.5-0.5,1.2-0.8,2-0.8s1.4,0.3,2,0.8
							l32.2,32.2c0.5,0.5,0.8,1.2,0.8,2C118.1,92.4,117.8,93,117.3,93.6z"/>
					</g>
					<g>
						<path class="st2" d="M117,93.3l-32.2,32.2c-0.5,0.5-1.2,0.8-2,0.8c-0.8,0-1.4-0.3-2-0.8l-7.2-7.2c-0.5-0.5-0.8-1.2-0.8-2
							c0-0.8,0.3-1.4,0.8-2l23-23l-23-23c-0.5-0.5-0.8-1.2-0.8-2c0-0.8,0.3-1.4,0.8-2l7.2-7.2c0.5-0.5,1.2-0.8,2-0.8
							c0.8,0,1.4,0.3,2,0.8L117,89.4c0.5,0.5,0.8,1.2,0.8,2S117.5,92.7,117,93.3z"/>
					</g>
					<g>
						<path class="st2" d="M116.7,93l-32.2,32.2c-0.5,0.5-1.2,0.8-2,0.8c-0.8,0-1.4-0.3-2-0.8l-7.2-7.2c-0.5-0.5-0.8-1.2-0.8-2
							c0-0.8,0.3-1.4,0.8-2l23-23l-23-23c-0.5-0.5-0.8-1.2-0.8-2c0-0.8,0.3-1.4,0.8-2l7.2-7.2c0.5-0.5,1.2-0.8,2-0.8
							c0.8,0,1.4,0.3,2,0.8l32.2,32.2c0.5,0.5,0.8,1.2,0.8,2C117.5,91.8,117.2,92.5,116.7,93z"/>
					</g>
					<g>
						<path class="st2" d="M116.4,92.7l-32.2,32.2c-0.5,0.5-1.2,0.8-2,0.8s-1.4-0.3-2-0.8l-7.2-7.2c-0.5-0.5-0.8-1.2-0.8-2
							c0-0.8,0.3-1.4,0.8-2l23-23l-23-23c-0.5-0.5-0.8-1.2-0.8-2c0-0.8,0.3-1.4,0.8-2l7.2-7.2c0.5-0.5,1.2-0.8,2-0.8s1.4,0.3,2,0.8
							l32.2,32.2c0.5,0.5,0.8,1.2,0.8,2C117.2,91.5,117,92.2,116.4,92.7z"/>
					</g>
					<g>
						<path class="st2" d="M116.1,92.5L84,124.6c-0.5,0.5-1.2,0.8-2,0.8c-0.8,0-1.4-0.3-2-0.8l-7.2-7.2c-0.5-0.5-0.8-1.2-0.8-2
							c0-0.8,0.3-1.4,0.8-2l23-23l-23-23c-0.5-0.5-0.8-1.2-0.8-2c0-0.8,0.3-1.4,0.8-2l7.2-7.2c0.5-0.5,1.2-0.8,2-0.8
							c0.8,0,1.4,0.3,2,0.8l32.2,32.2c0.5,0.5,0.8,1.2,0.8,2S116.7,91.9,116.1,92.5z"/>
					</g>
					<g>
						<path class="st2" d="M115.9,92.2l-32.2,32.2c-0.5,0.5-1.2,0.8-2,0.8c-0.8,0-1.4-0.3-2-0.8l-7.2-7.2c-0.5-0.5-0.8-1.2-0.8-2
							c0-0.8,0.3-1.4,0.8-2l23-23l-23-23c-0.5-0.5-0.8-1.2-0.8-2c0-0.8,0.3-1.4,0.8-2l7.2-7.2c0.5-0.5,1.2-0.8,2-0.8
							c0.8,0,1.4,0.3,2,0.8l32.2,32.2c0.5,0.5,0.8,1.2,0.8,2S116.4,91.6,115.9,92.2z"/>
					</g>
					<g>
						<path class="st2" d="M115.6,91.9l-32.2,32.2c-0.5,0.5-1.2,0.8-2,0.8s-1.4-0.3-2-0.8l-7.2-7.2c-0.5-0.5-0.8-1.2-0.8-2
							c0-0.8,0.3-1.4,0.8-2l23-23l-23-23c-0.5-0.5-0.8-1.2-0.8-2c0-0.8,0.3-1.4,0.8-2l7.2-7.2c0.5-0.5,1.2-0.8,2-0.8s1.4,0.3,2,0.8
							L115.6,88c0.5,0.5,0.8,1.2,0.8,2C116.4,90.7,116.1,91.4,115.6,91.9z"/>
					</g>
					<g>
						<path class="st2" d="M115.3,91.6l-32.2,32.2c-0.5,0.5-1.2,0.8-2,0.8s-1.4-0.3-2-0.8l-7.2-7.2c-0.5-0.5-0.8-1.2-0.8-2
							c0-0.8,0.3-1.4,0.8-2l23-23l-23-23c-0.5-0.5-0.8-1.2-0.8-2c0-0.8,0.3-1.4,0.8-2l7.2-7.2c0.5-0.5,1.2-0.8,2-0.8s1.4,0.3,2,0.8
							l32.2,32.2c0.5,0.5,0.8,1.2,0.8,2S115.9,91.1,115.3,91.6z"/>
					</g>
					<g>
						<path class="st2" d="M115,91.4l-32.2,32.2c-0.5,0.5-1.2,0.8-2,0.8c-0.8,0-1.4-0.3-2-0.8l-7.2-7.2c-0.5-0.5-0.8-1.2-0.8-2
							c0-0.8,0.3-1.4,0.8-2l23-23l-23-23c-0.5-0.5-0.8-1.2-0.8-2c0-0.8,0.3-1.4,0.8-2l7.2-7.2c0.5-0.5,1.2-0.8,2-0.8
							c0.8,0,1.4,0.3,2,0.8L115,87.5c0.5,0.5,0.8,1.2,0.8,2S115.6,90.8,115,91.4z"/>
					</g>
					<g>
						<path class="st2" d="M114.8,91.1l-32.2,32.2c-0.5,0.5-1.2,0.8-2,0.8c-0.8,0-1.4-0.3-2-0.8l-7.2-7.2c-0.5-0.5-0.8-1.2-0.8-2
							c0-0.8,0.3-1.4,0.8-2l23-23l-23-23c-0.5-0.5-0.8-1.2-0.8-2c0-0.8,0.3-1.4,0.8-2l7.2-7.2c0.5-0.5,1.2-0.8,2-0.8
							c0.8,0,1.4,0.3,2,0.8l32.2,32.2c0.5,0.5,0.8,1.2,0.8,2C115.6,89.9,115.3,90.5,114.8,91.1z"/>
					</g>
					<g>
						<path class="st2" d="M114.5,90.8L82.3,123c-0.5,0.5-1.2,0.8-2,0.8s-1.4-0.3-2-0.8l-7.2-7.2c-0.5-0.5-0.8-1.2-0.8-2
							c0-0.8,0.3-1.4,0.8-2l23-23l-23-23c-0.5-0.5-0.8-1.2-0.8-2c0-0.8,0.3-1.4,0.8-2l7.2-7.2c0.5-0.5,1.2-0.8,2-0.8s1.4,0.3,2,0.8
							l32.2,32.2c0.5,0.5,0.8,1.2,0.8,2S115,90.2,114.5,90.8z"/>
					</g>
					<g>
						<path class="st2" d="M114.2,90.5l-32.2,32.2c-0.5,0.5-1.2,0.8-2,0.8c-0.8,0-1.4-0.3-2-0.8l-7.2-7.2c-0.5-0.5-0.8-1.2-0.8-2
							c0-0.8,0.3-1.4,0.8-2l23-23l-23-23c-0.5-0.5-0.8-1.2-0.8-2c0-0.8,0.3-1.4,0.8-2l7.2-7.2c0.5-0.5,1.2-0.8,2-0.8
							c0.8,0,1.4,0.3,2,0.8l32.2,32.2c0.5,0.5,0.8,1.2,0.8,2C115,89.3,114.8,90,114.2,90.5z"/>
					</g>
					<g>
						<path class="st2" d="M113.9,90.2l-32.2,32.2c-0.5,0.5-1.2,0.8-2,0.8s-1.4-0.3-2-0.8l-7.2-7.2c-0.5-0.5-0.8-1.2-0.8-2
							c0-0.8,0.3-1.4,0.8-2l23-23l-23-23c-0.5-0.5-0.8-1.2-0.8-2c0-0.8,0.3-1.4,0.8-2l7.2-7.2c0.5-0.5,1.2-0.8,2-0.8s1.4,0.3,2,0.8
							l32.2,32.2c0.5,0.5,0.8,1.2,0.8,2C114.8,89,114.5,89.7,113.9,90.2z"/>
					</g>
					<g>
						<path class="st2" d="M113.7,90l-32.2,32.2c-0.5,0.5-1.2,0.8-2,0.8s-1.4-0.3-2-0.8l-7.2-7.2c-0.5-0.5-0.8-1.2-0.8-2
							c0-0.8,0.3-1.4,0.8-2l23-23l-23-23c-0.5-0.5-0.8-1.2-0.8-2c0-0.8,0.3-1.4,0.8-2l7.2-7.2c0.5-0.5,1.2-0.8,2-0.8s1.4,0.3,2,0.8
							l32.2,32.2c0.5,0.5,0.8,1.2,0.8,2C114.5,88.8,114.2,89.4,113.7,90z"/>
					</g>
					<g>
						<path class="st2" d="M113.4,89.7l-32.2,32.2c-0.5,0.5-1.2,0.8-2,0.8c-0.8,0-1.4-0.3-2-0.8l-7.2-7.2c-0.5-0.5-0.8-1.2-0.8-2
							c0-0.8,0.3-1.4,0.8-2l23-23l-23-23c-0.5-0.5-0.8-1.2-0.8-2c0-0.8,0.3-1.4,0.8-2l7.2-7.2c0.5-0.5,1.2-0.8,2-0.8
							c0.8,0,1.4,0.3,2,0.8l32.2,32.2c0.5,0.5,0.8,1.2,0.8,2S113.9,89.1,113.4,89.7z"/>
					</g>
					<g>
						<path class="st2" d="M113.1,89.4l-32.2,32.2c-0.5,0.5-1.2,0.8-2,0.8c-0.8,0-1.4-0.3-2-0.8l-7.2-7.2c-0.5-0.5-0.8-1.2-0.8-2
							c0-0.8,0.3-1.4,0.8-2l23-23l-23-23c-0.5-0.5-0.8-1.2-0.8-2c0-0.8,0.3-1.4,0.8-2l7.2-7.2c0.5-0.5,1.2-0.8,2-0.8
							c0.8,0,1.4,0.3,2,0.8l32.2,32.2c0.5,0.5,0.8,1.2,0.8,2C113.9,88.2,113.7,88.9,113.1,89.4z"/>
					</g>
					<g>
						<path class="st2" d="M112.8,89.1l-32.2,32.2c-0.5,0.5-1.2,0.8-2,0.8s-1.4-0.3-2-0.8l-7.2-7.2c-0.5-0.5-0.8-1.2-0.8-2
							c0-0.8,0.3-1.4,0.8-2l23-23l-23-23c-0.5-0.5-0.8-1.2-0.8-2c0-0.8,0.3-1.4,0.8-2l7.2-7.2c0.5-0.5,1.2-0.8,2-0.8s1.4,0.3,2,0.8
							l32.2,32.2c0.5,0.5,0.8,1.2,0.8,2C113.7,87.9,113.4,88.6,112.8,89.1z"/>
					</g>
					<g>
						<path class="st2" d="M112.6,88.9L80.4,121c-0.5,0.5-1.2,0.8-2,0.8c-0.8,0-1.4-0.3-2-0.8l-7.2-7.2c-0.5-0.5-0.8-1.2-0.8-2
							c0-0.8,0.3-1.4,0.8-2l23-23l-23-23c-0.5-0.5-0.8-1.2-0.8-2c0-0.8,0.3-1.4,0.8-2l7.2-7.2c0.5-0.5,1.2-0.8,2-0.8
							c0.8,0,1.4,0.3,2,0.8L112.6,85c0.5,0.5,0.8,1.2,0.8,2S113.1,88.3,112.6,88.9z"/>
					</g>
					<g>
						<path class="st2" d="M112.3,88.6l-32.2,32.2c-0.5,0.5-1.2,0.8-2,0.8c-0.8,0-1.4-0.3-2-0.8l-7.2-7.2c-0.5-0.5-0.8-1.2-0.8-2
							c0-0.8,0.3-1.4,0.8-2l23-23l-23-23c-0.5-0.5-0.8-1.2-0.8-2c0-0.8,0.3-1.4,0.8-2l7.2-7.2c0.5-0.5,1.2-0.8,2-0.8
							c0.8,0,1.4,0.3,2,0.8l32.2,32.2c0.5,0.5,0.8,1.2,0.8,2C113.1,87.4,112.8,88,112.3,88.6z"/>
					</g>
					<g>
						<path class="st2" d="M112,88.3l-32.2,32.2c-0.5,0.5-1.2,0.8-2,0.8s-1.4-0.3-2-0.8l-7.2-7.2c-0.5-0.5-0.8-1.2-0.8-2
							c0-0.8,0.3-1.4,0.8-2l23-23l-23-23c-0.5-0.5-0.8-1.2-0.8-2c0-0.8,0.3-1.4,0.8-2l7.2-7.2c0.5-0.5,1.2-0.8,2-0.8s1.4,0.3,2,0.8
							L112,84.4c0.5,0.5,0.8,1.2,0.8,2C112.8,87.1,112.5,87.8,112,88.3z"/>
					</g>
					<g>
						<path class="st2" d="M111.7,88l-32.2,32.2c-0.5,0.5-1.2,0.8-2,0.8s-1.4-0.3-2-0.8l-7.2-7.2c-0.5-0.5-0.8-1.2-0.8-2
							c0-0.8,0.3-1.4,0.8-2l23-23l-23-23c-0.5-0.5-0.8-1.2-0.8-2c0-0.8,0.3-1.4,0.8-2l7.2-7.2c0.5-0.5,1.2-0.8,2-0.8s1.4,0.3,2,0.8
							l32.2,32.2c0.5,0.5,0.8,1.2,0.8,2S112.3,87.5,111.7,88z"/>
					</g>
					<g>
						<path class="st2" d="M111.4,87.8l-32.2,32.2c-0.5,0.5-1.2,0.8-2,0.8c-0.8,0-1.4-0.3-2-0.8l-7.2-7.2c-0.5-0.5-0.8-1.2-0.8-2
							c0-0.8,0.3-1.4,0.8-2l23-23l-23-23c-0.5-0.5-0.8-1.2-0.8-2c0-0.8,0.3-1.4,0.8-2l7.2-7.2c0.5-0.5,1.2-0.8,2-0.8
							c0.8,0,1.4,0.3,2,0.8l32.2,32.2c0.5,0.5,0.8,1.2,0.8,2S112,87.2,111.4,87.8z"/>
					</g>
					<g>
						<path class="st2" d="M111.2,87.5L79,119.6c-0.5,0.5-1.2,0.8-2,0.8s-1.4-0.3-2-0.8l-7.2-7.2c-0.5-0.5-0.8-1.2-0.8-2
							c0-0.8,0.3-1.4,0.8-2l23-23l-23-23c-0.5-0.5-0.8-1.2-0.8-2c0-0.8,0.3-1.4,0.8-2l7.2-7.2c0.5-0.5,1.2-0.8,2-0.8s1.4,0.3,2,0.8
							l32.2,32.2c0.5,0.5,0.8,1.2,0.8,2C112,86.3,111.7,86.9,111.2,87.5z"/>
					</g>
					<g>
						<path class="st2" d="M110.9,87.2l-32.2,32.2c-0.5,0.5-1.2,0.8-2,0.8s-1.4-0.3-2-0.8l-7.2-7.2c-0.5-0.5-0.8-1.2-0.8-2
							c0-0.8,0.3-1.4,0.8-2l23-23l-23-23c-0.5-0.5-0.8-1.2-0.8-2c0-0.8,0.3-1.4,0.8-2l7.2-7.2c0.5-0.5,1.2-0.8,2-0.8s1.4,0.3,2,0.8
							l32.2,32.2c0.5,0.5,0.8,1.2,0.8,2S111.4,86.7,110.9,87.2z"/>
					</g>
					<g>
						<path class="st2" d="M110.6,86.9l-32.2,32.2c-0.5,0.5-1.2,0.8-2,0.8c-0.8,0-1.4-0.3-2-0.8l-7.2-7.2c-0.5-0.5-0.8-1.2-0.8-2
							c0-0.8,0.3-1.4,0.8-2l23-23l-23-23c-0.5-0.5-0.8-1.2-0.8-2c0-0.8,0.3-1.4,0.8-2l7.2-7.2c0.5-0.5,1.2-0.8,2-0.8
							c0.8,0,1.4,0.3,2,0.8L110.6,83c0.5,0.5,0.8,1.2,0.8,2S111.2,86.4,110.6,86.9z"/>
					</g>
					<g>
						<path class="st2" d="M110.3,86.7l-32.2,32.2c-0.5,0.5-1.2,0.8-2,0.8c-0.8,0-1.4-0.3-2-0.8l-7.2-7.2c-0.5-0.5-0.8-1.2-0.8-2
							c0-0.8,0.3-1.4,0.8-2l23-23l-23-23c-0.5-0.5-0.8-1.2-0.8-2c0-0.8,0.3-1.4,0.8-2l7.2-7.2c0.5-0.5,1.2-0.8,2-0.8
							c0.8,0,1.4,0.3,2,0.8l32.2,32.2c0.5,0.5,0.8,1.2,0.8,2C111.2,85.5,110.9,86.1,110.3,86.7z"/>
					</g>
					<g>
						<path class="st2" d="M110.1,86.4l-32.2,32.2c-0.5,0.5-1.2,0.8-2,0.8s-1.4-0.3-2-0.8l-7.2-7.2c-0.5-0.5-0.8-1.2-0.8-2
							c0-0.8,0.3-1.4,0.8-2l23-23l-23-23c-0.5-0.5-0.8-1.2-0.8-2c0-0.8,0.3-1.4,0.8-2l7.2-7.2c0.5-0.5,1.2-0.8,2-0.8s1.4,0.3,2,0.8
							l32.2,32.2c0.5,0.5,0.8,1.2,0.8,2S110.6,85.8,110.1,86.4z"/>
					</g>
					<g>
						<path class="st2" d="M109.8,86.1l-32.2,32.2c-0.5,0.5-1.2,0.8-2,0.8c-0.8,0-1.4-0.3-2-0.8l-7.2-7.2c-0.5-0.5-0.8-1.2-0.8-2
							c0-0.8,0.3-1.4,0.8-2l23-23l-23-23c-0.5-0.5-0.8-1.2-0.8-2c0-0.8,0.3-1.4,0.8-2l7.2-7.2c0.5-0.5,1.2-0.8,2-0.8
							c0.8,0,1.4,0.3,2,0.8l32.2,32.2c0.5,0.5,0.8,1.2,0.8,2C110.6,84.9,110.3,85.5,109.8,86.1z"/>
					</g>
					<g>
						<path class="st2" d="M109.5,85.8L77.4,118c-0.5,0.5-1.2,0.8-2,0.8c-0.8,0-1.4-0.3-2-0.8l-7.2-7.2c-0.5-0.5-0.8-1.2-0.8-2
							c0-0.8,0.3-1.4,0.8-2l23-23l-23-23c-0.5-0.5-0.8-1.2-0.8-2c0-0.8,0.3-1.4,0.8-2l7.2-7.2c0.5-0.5,1.2-0.8,2-0.8
							c0.8,0,1.4,0.3,2,0.8l32.2,32.2c0.5,0.5,0.8,1.2,0.8,2C110.3,84.6,110.1,85.3,109.5,85.8z"/>
					</g>
					<g>
						<path class="st2" d="M109.2,85.5l-32.2,32.2c-0.5,0.5-1.2,0.8-2,0.8s-1.4-0.3-2-0.8l-7.2-7.2c-0.5-0.5-0.8-1.2-0.8-2
							c0-0.8,0.3-1.4,0.8-2l23-23l-23-23c-0.5-0.5-0.8-1.2-0.8-2c0-0.8,0.3-1.4,0.8-2l7.2-7.2c0.5-0.5,1.2-0.8,2-0.8s1.4,0.3,2,0.8
							l32.2,32.2c0.5,0.5,0.8,1.2,0.8,2C110.1,84.3,109.8,85,109.2,85.5z"/>
					</g>
					<g>
						<path class="st2" d="M109,85.3l-32.2,32.2c-0.5,0.5-1.2,0.8-2,0.8c-0.8,0-1.4-0.3-2-0.8l-7.2-7.2c-0.5-0.5-0.8-1.2-0.8-2
							c0-0.8,0.3-1.4,0.8-2l23-23l-23-23c-0.5-0.5-0.8-1.2-0.8-2c0-0.8,0.3-1.4,0.8-2l7.2-7.2c0.5-0.5,1.2-0.8,2-0.8
							c0.8,0,1.4,0.3,2,0.8L109,81.4c0.5,0.5,0.8,1.2,0.8,2C109.8,84.1,109.5,84.7,109,85.3z"/>
					</g>
					<g>
						<path class="st2" d="M108.7,85l-32.2,32.2c-0.5,0.5-1.2,0.8-2,0.8c-0.8,0-1.4-0.3-2-0.8l-7.2-7.2c-0.5-0.5-0.8-1.2-0.8-2
							c0-0.8,0.3-1.4,0.8-2l23-23l-23-23c-0.5-0.5-0.8-1.2-0.8-2c0-0.8,0.3-1.4,0.8-2l7.2-7.2c0.5-0.5,1.2-0.8,2-0.8
							c0.8,0,1.4,0.3,2,0.8l32.2,32.2c0.5,0.5,0.8,1.2,0.8,2C109.5,83.8,109.2,84.4,108.7,85z"/>
					</g>
					<g>
						<path class="st2" d="M108.4,84.7l-32.2,32.2c-0.5,0.5-1.2,0.8-2,0.8s-1.4-0.3-2-0.8l-7.2-7.2c-0.5-0.5-0.8-1.2-0.8-2
							c0-0.8,0.3-1.4,0.8-2l23-23l-23-23c-0.5-0.5-0.8-1.2-0.8-2c0-0.8,0.3-1.4,0.8-2l7.2-7.2c0.5-0.5,1.2-0.8,2-0.8s1.4,0.3,2,0.8
							l32.2,32.2c0.5,0.5,0.8,1.2,0.8,2C109.2,83.5,109,84.2,108.4,84.7z"/>
					</g>
					<g>
						<path class="st2" d="M108.1,84.4L76,116.6c-0.5,0.5-1.2,0.8-2,0.8c-0.8,0-1.4-0.3-2-0.8l-7.2-7.2c-0.5-0.5-0.8-1.2-0.8-2
							c0-0.8,0.3-1.4,0.8-2l23-23l-23-23c-0.5-0.5-0.8-1.2-0.8-2c0-0.8,0.3-1.4,0.8-2l7.2-7.2c0.5-0.5,1.2-0.8,2-0.8
							c0.8,0,1.4,0.3,2,0.8l32.2,32.2c0.5,0.5,0.8,1.2,0.8,2S108.7,83.9,108.1,84.4z"/>
					</g>
					<g>
						<path class="st2" d="M107.9,84.2l-32.2,32.2c-0.5,0.5-1.2,0.8-2,0.8c-0.8,0-1.4-0.3-2-0.8l-7.2-7.2c-0.5-0.5-0.8-1.2-0.8-2
							c0-0.8,0.3-1.4,0.8-2l23-23l-23-23c-0.5-0.5-0.8-1.2-0.8-2c0-0.8,0.3-1.4,0.8-2l7.2-7.2c0.5-0.5,1.2-0.8,2-0.8
							c0.8,0,1.4,0.3,2,0.8l32.2,32.2c0.5,0.5,0.8,1.2,0.8,2S108.4,83.6,107.9,84.2z"/>
					</g>
					<g>
						<path class="st2" d="M107.6,83.9L75.4,116c-0.5,0.5-1.2,0.8-2,0.8s-1.4-0.3-2-0.8l-7.2-7.2c-0.5-0.5-0.8-1.2-0.8-2
							c0-0.8,0.3-1.4,0.8-2l23-23l-23-23c-0.5-0.5-0.8-1.2-0.8-2c0-0.8,0.3-1.4,0.8-2l7.2-7.2c0.5-0.5,1.2-0.8,2-0.8s1.4,0.3,2,0.8
							L107.6,80c0.5,0.5,0.8,1.2,0.8,2C108.4,82.7,108.1,83.3,107.6,83.9z"/>
					</g>
					<g>
						<path class="st2" d="M107.3,83.6l-32.2,32.2c-0.5,0.5-1.2,0.8-2,0.8s-1.4-0.3-2-0.8l-7.2-7.2c-0.5-0.5-0.8-1.2-0.8-2
							c0-0.8,0.3-1.4,0.8-2l23-23l-23-23c-0.5-0.5-0.8-1.2-0.8-2c0-0.8,0.3-1.4,0.8-2l7.2-7.2c0.5-0.5,1.2-0.8,2-0.8s1.4,0.3,2,0.8
							l32.2,32.2c0.5,0.5,0.8,1.2,0.8,2S107.8,83.1,107.3,83.6z"/>
					</g>
					<g>
						<path class="st2" d="M107,83.3l-32.2,32.2c-0.5,0.5-1.2,0.8-2,0.8c-0.8,0-1.4-0.3-2-0.8l-7.2-7.2c-0.5-0.5-0.8-1.2-0.8-2
							c0-0.8,0.3-1.4,0.8-2l23-23l-23-23c-0.5-0.5-0.8-1.2-0.8-2c0-0.8,0.3-1.4,0.8-2l7.2-7.2c0.5-0.5,1.2-0.8,2-0.8
							c0.8,0,1.4,0.3,2,0.8L107,79.4c0.5,0.5,0.8,1.2,0.8,2S107.6,82.8,107,83.3z"/>
					</g>
					<g>
						<path class="st2" d="M106.7,83.1l-32.2,32.2c-0.5,0.5-1.2,0.8-2,0.8s-1.4-0.3-2-0.8l-7.2-7.2c-0.5-0.5-0.8-1.2-0.8-2
							c0-0.8,0.3-1.4,0.8-2l23-23l-23-23c-0.5-0.5-0.8-1.2-0.8-2c0-0.8,0.3-1.4,0.8-2l7.2-7.2c0.5-0.5,1.2-0.8,2-0.8s1.4,0.3,2,0.8
							l32.2,32.2c0.5,0.5,0.8,1.2,0.8,2C107.6,81.9,107.3,82.5,106.7,83.1z"/>
					</g>
					<g>
						<path class="st2" d="M106.5,82.8l-32.2,32.2c-0.5,0.5-1.2,0.8-2,0.8s-1.4-0.3-2-0.8l-7.2-7.2c-0.5-0.5-0.8-1.2-0.8-2
							c0-0.8,0.3-1.4,0.8-2l23-23l-23-23c-0.5-0.5-0.8-1.2-0.8-2c0-0.8,0.3-1.4,0.8-2l7.2-7.2c0.5-0.5,1.2-0.8,2-0.8s1.4,0.3,2,0.8
							l32.2,32.2c0.5,0.5,0.8,1.2,0.8,2S107,82.2,106.5,82.8z"/>
					</g>
					<g>
						<path class="st2" d="M106.2,82.5L74,114.7c-0.5,0.5-1.2,0.8-2,0.8c-0.8,0-1.4-0.3-2-0.8l-7.2-7.2c-0.5-0.5-0.8-1.2-0.8-2
							c0-0.8,0.3-1.4,0.8-2l23-23l-23-23c-0.5-0.5-0.8-1.2-0.8-2c0-0.8,0.3-1.4,0.8-2l7.2-7.2c0.5-0.5,1.2-0.8,2-0.8
							c0.8,0,1.4,0.3,2,0.8l32.2,32.2c0.5,0.5,0.8,1.2,0.8,2S106.7,82,106.2,82.5z"/>
					</g>
					<g>
						<path class="st2" d="M105.9,82.2l-32.2,32.2c-0.5,0.5-1.2,0.8-2,0.8c-0.8,0-1.4-0.3-2-0.8l-7.2-7.2c-0.5-0.5-0.8-1.2-0.8-2
							c0-0.8,0.3-1.4,0.8-2l23-23l-23-23c-0.5-0.5-0.8-1.2-0.8-2c0-0.8,0.3-1.4,0.8-2l7.2-7.2c0.5-0.5,1.2-0.8,2-0.8
							c0.8,0,1.4,0.3,2,0.8l32.2,32.2c0.5,0.5,0.8,1.2,0.8,2C106.7,81,106.5,81.7,105.9,82.2z"/>
					</g>
					<g>
						<path class="st2" d="M105.6,82l-32.2,32.2c-0.5,0.5-1.2,0.8-2,0.8s-1.4-0.3-2-0.8l-7.2-7.2c-0.5-0.5-0.8-1.2-0.8-2
							c0-0.8,0.3-1.4,0.8-2l23-23l-23-23c-0.5-0.5-0.8-1.2-0.8-2c0-0.8,0.3-1.4,0.8-2l7.2-7.2c0.5-0.5,1.2-0.8,2-0.8s1.4,0.3,2,0.8
							l32.2,32.2c0.5,0.5,0.8,1.2,0.8,2C106.5,80.8,106.2,81.4,105.6,82z"/>
					</g>
					<g>
						<path class="st2" d="M105.4,81.7l-32.2,32.2c-0.5,0.5-1.2,0.8-2,0.8c-0.8,0-1.4-0.3-2-0.8l-7.2-7.2c-0.5-0.5-0.8-1.2-0.8-2
							c0-0.8,0.3-1.4,0.8-2l23-23l-23-23c-0.5-0.5-0.8-1.2-0.8-2c0-0.8,0.3-1.4,0.8-2l7.2-7.2c0.5-0.5,1.2-0.8,2-0.8
							c0.8,0,1.4,0.3,2,0.8l32.2,32.2c0.5,0.5,0.8,1.2,0.8,2C106.2,80.5,105.9,81.1,105.4,81.7z"/>
					</g>
					<g>
						<path class="st2" d="M105.1,81.4l-32.2,32.2c-0.5,0.5-1.2,0.8-2,0.8c-0.8,0-1.4-0.3-2-0.8l-7.2-7.2c-0.5-0.5-0.8-1.2-0.8-2
							c0-0.8,0.3-1.4,0.8-2l23-23l-23-23c-0.5-0.5-0.8-1.2-0.8-2c0-0.8,0.3-1.4,0.8-2l7.2-7.2c0.5-0.5,1.2-0.8,2-0.8
							c0.8,0,1.4,0.3,2,0.8l32.2,32.2c0.5,0.5,0.8,1.2,0.8,2C105.9,80.2,105.6,80.8,105.1,81.4z"/>
					</g>
					<g>
						<path class="st2" d="M104.8,81.1l-32.2,32.2c-0.5,0.5-1.2,0.8-2,0.8s-1.4-0.3-2-0.8l-7.2-7.2c-0.5-0.5-0.8-1.2-0.8-2
							c0-0.8,0.3-1.4,0.8-2l23-23l-23-23c-0.5-0.5-0.8-1.2-0.8-2c0-0.8,0.3-1.4,0.8-2l7.2-7.2c0.5-0.5,1.2-0.8,2-0.8s1.4,0.3,2,0.8
							l32.2,32.2c0.5,0.5,0.8,1.2,0.8,2C105.6,79.9,105.4,80.6,104.8,81.1z"/>
					</g>
					<g>
						<path class="st2" d="M104.5,80.8L72.4,113c-0.5,0.5-1.2,0.8-2,0.8c-0.8,0-1.4-0.3-2-0.8l-7.2-7.2c-0.5-0.5-0.8-1.2-0.8-2
							c0-0.8,0.3-1.4,0.8-2l23-23l-23-23c-0.5-0.5-0.8-1.2-0.8-2c0-0.8,0.3-1.4,0.8-2l7.2-7.2c0.5-0.5,1.2-0.8,2-0.8
							c0.8,0,1.4,0.3,2,0.8l32.2,32.2c0.5,0.5,0.8,1.2,0.8,2C105.4,79.6,105.1,80.3,104.5,80.8z"/>
					</g>
					<g>
						<path class="st2" d="M104.3,80.6l-32.2,32.2c-0.5,0.5-1.2,0.8-2,0.8c-0.8,0-1.4-0.3-2-0.8l-7.2-7.2c-0.5-0.5-0.8-1.2-0.8-2
							c0-0.8,0.3-1.4,0.8-2l23-23l-23-23c-0.5-0.5-0.8-1.2-0.8-2c0-0.8,0.3-1.4,0.8-2l7.2-7.2c0.5-0.5,1.2-0.8,2-0.8
							c0.8,0,1.4,0.3,2,0.8l32.2,32.2c0.5,0.5,0.8,1.2,0.8,2S104.8,80,104.3,80.6z"/>
					</g>
					<g>
						<path class="st2" d="M104,80.3l-32.2,32.2c-0.5,0.5-1.2,0.8-2,0.8s-1.4-0.3-2-0.8l-7.2-7.2c-0.5-0.5-0.8-1.2-0.8-2
							c0-0.8,0.3-1.4,0.8-2l23-23l-23-23c-0.5-0.5-0.8-1.2-0.8-2c0-0.8,0.3-1.4,0.8-2l7.2-7.2c0.5-0.5,1.2-0.8,2-0.8s1.4,0.3,2,0.8
							L104,76.4c0.5,0.5,0.8,1.2,0.8,2C104.8,79.1,104.5,79.7,104,80.3z"/>
					</g>
					<g>
						<path class="st2" d="M103.7,80l-32.2,32.2c-0.5,0.5-1.2,0.8-2,0.8c-0.8,0-1.4-0.3-2-0.8l-7.2-7.2c-0.5-0.5-0.8-1.2-0.8-2
							c0-0.8,0.3-1.4,0.8-2l23-23l-23-23c-0.5-0.5-0.8-1.2-0.8-2c0-0.8,0.3-1.4,0.8-2l7.2-7.2c0.5-0.5,1.2-0.8,2-0.8
							c0.8,0,1.4,0.3,2,0.8l32.2,32.2c0.5,0.5,0.8,1.2,0.8,2S104.3,79.5,103.7,80z"/>
					</g>
					<g>
						<path class="st2" d="M103.4,79.7l-32.2,32.2c-0.5,0.5-1.2,0.8-2,0.8c-0.8,0-1.4-0.3-2-0.8l-7.2-7.2c-0.5-0.5-0.8-1.2-0.8-2
							c0-0.8,0.3-1.4,0.8-2l23-23l-23-23c-0.5-0.5-0.8-1.2-0.8-2c0-0.8,0.3-1.4,0.8-2l7.2-7.2c0.5-0.5,1.2-0.8,2-0.8
							c0.8,0,1.4,0.3,2,0.8l32.2,32.2c0.5,0.5,0.8,1.2,0.8,2S104,79.2,103.4,79.7z"/>
					</g>
					<g>
						<path class="st2" d="M103.2,79.5L71,111.6c-0.5,0.5-1.2,0.8-2,0.8s-1.4-0.3-2-0.8l-7.2-7.2c-0.5-0.5-0.8-1.2-0.8-2
							c0-0.8,0.3-1.4,0.8-2l23-23l-23-23c-0.5-0.5-0.8-1.2-0.8-2c0-0.8,0.3-1.4,0.8-2l7.2-7.2c0.5-0.5,1.2-0.8,2-0.8s1.4,0.3,2,0.8
							l32.2,32.2c0.5,0.5,0.8,1.2,0.8,2C104,78.3,103.7,78.9,103.2,79.5z"/>
					</g>
					<g>
						<path class="st2" d="M102.9,79.2l-32.2,32.2c-0.5,0.5-1.2,0.8-2,0.8s-1.4-0.3-2-0.8l-7.2-7.2c-0.5-0.5-0.8-1.2-0.8-2
							c0-0.8,0.3-1.4,0.8-2l23-23l-23-23c-0.5-0.5-0.8-1.2-0.8-2c0-0.8,0.3-1.4,0.8-2l7.2-7.2c0.5-0.5,1.2-0.8,2-0.8s1.4,0.3,2,0.8
							l32.2,32.2c0.5,0.5,0.8,1.2,0.8,2S103.4,78.6,102.9,79.2z"/>
					</g>
					<g>
						<path class="st2" d="M102.6,78.9l-32.2,32.2c-0.5,0.5-1.2,0.8-2,0.8c-0.8,0-1.4-0.3-2-0.8l-7.2-7.2c-0.5-0.5-0.8-1.2-0.8-2
							c0-0.8,0.3-1.4,0.8-2l23-23l-23-23c-0.5-0.5-0.8-1.2-0.8-2c0-0.8,0.3-1.4,0.8-2l7.2-7.2c0.5-0.5,1.2-0.8,2-0.8
							c0.8,0,1.4,0.3,2,0.8L102.6,75c0.5,0.5,0.8,1.2,0.8,2S103.1,78.4,102.6,78.9z"/>
					</g>
					<g>
						<path class="st2" d="M102.3,78.6l-32.2,32.2c-0.5,0.5-1.2,0.8-2,0.8c-0.8,0-1.4-0.3-2-0.8l-7.2-7.2c-0.5-0.5-0.8-1.2-0.8-2
							c0-0.8,0.3-1.4,0.8-2l23-23l-23-23c-0.5-0.5-0.8-1.2-0.8-2c0-0.8,0.3-1.4,0.8-2l7.2-7.2c0.5-0.5,1.2-0.8,2-0.8
							c0.8,0,1.4,0.3,2,0.8l32.2,32.2c0.5,0.5,0.8,1.2,0.8,2C103.1,77.4,102.9,78.1,102.3,78.6z"/>
					</g>
					<g>
						<path class="st2" d="M102,78.4l-32.2,32.2c-0.5,0.5-1.2,0.8-2,0.8s-1.4-0.3-2-0.8l-7.2-7.2c-0.5-0.5-0.8-1.2-0.8-2
							c0-0.8,0.3-1.4,0.8-2l23-23l-23-23c-0.5-0.5-0.8-1.2-0.8-2c0-0.8,0.3-1.4,0.8-2l7.2-7.2c0.5-0.5,1.2-0.8,2-0.8s1.4,0.3,2,0.8
							L102,74.5c0.5,0.5,0.8,1.2,0.8,2C102.9,77.2,102.6,77.8,102,78.4z"/>
					</g>
					<g>
						<path class="st2" d="M101.8,78.1l-32.2,32.2c-0.5,0.5-1.2,0.8-2,0.8c-0.8,0-1.4-0.3-2-0.8l-7.2-7.2c-0.5-0.5-0.8-1.2-0.8-2
							c0-0.8,0.3-1.4,0.8-2l23-23l-23-23c-0.5-0.5-0.8-1.2-0.8-2c0-0.8,0.3-1.4,0.8-2l7.2-7.2c0.5-0.5,1.2-0.8,2-0.8
							c0.8,0,1.4,0.3,2,0.8l32.2,32.2c0.5,0.5,0.8,1.2,0.8,2S102.3,77.5,101.8,78.1z"/>
					</g>
					<g>
						<path class="st2" d="M101.5,77.8L69.3,110c-0.5,0.5-1.2,0.8-2,0.8c-0.8,0-1.4-0.3-2-0.8l-7.2-7.2c-0.5-0.5-0.8-1.2-0.8-2
							c0-0.8,0.3-1.4,0.8-2l23-23l-23-23c-0.5-0.5-0.8-1.2-0.8-2c0-0.8,0.3-1.4,0.8-2l7.2-7.2c0.5-0.5,1.2-0.8,2-0.8
							c0.8,0,1.4,0.3,2,0.8l32.2,32.2c0.5,0.5,0.8,1.2,0.8,2C102.3,76.6,102,77.3,101.5,77.8z"/>
					</g>
					<g>
						<path class="st2" d="M101.2,77.5l-32.2,32.2c-0.5,0.5-1.2,0.8-2,0.8s-1.4-0.3-2-0.8l-7.2-7.2c-0.5-0.5-0.8-1.2-0.8-2
							c0-0.8,0.3-1.4,0.8-2l23-23l-23-23c-0.5-0.5-0.8-1.2-0.8-2c0-0.8,0.3-1.4,0.8-2l7.2-7.2c0.5-0.5,1.2-0.8,2-0.8s1.4,0.3,2,0.8
							l32.2,32.2c0.5,0.5,0.8,1.2,0.8,2C102,76.3,101.8,77,101.2,77.5z"/>
					</g>
					<g>
						<path class="st2" d="M100.9,77.3l-32.2,32.2c-0.5,0.5-1.2,0.8-2,0.8s-1.4-0.3-2-0.8l-7.2-7.2c-0.5-0.5-0.8-1.2-0.8-2
							c0-0.8,0.3-1.4,0.8-2l23-23l-23-23c-0.5-0.5-0.8-1.2-0.8-2c0-0.8,0.3-1.4,0.8-2l7.2-7.2c0.5-0.5,1.2-0.8,2-0.8s1.4,0.3,2,0.8
							l32.2,32.2c0.5,0.5,0.8,1.2,0.8,2C101.8,76.1,101.5,76.7,100.9,77.3z"/>
					</g>
					<g>
						<path class="st2" d="M100.7,77l-32.2,32.2c-0.5,0.5-1.2,0.8-2,0.8c-0.8,0-1.4-0.3-2-0.8l-7.2-7.2c-0.5-0.5-0.8-1.2-0.8-2
							c0-0.8,0.3-1.4,0.8-2l23-23l-23-23c-0.5-0.5-0.8-1.2-0.8-2c0-0.8,0.3-1.4,0.8-2l7.2-7.2c0.5-0.5,1.2-0.8,2-0.8
							c0.8,0,1.4,0.3,2,0.8l32.2,32.2c0.5,0.5,0.8,1.2,0.8,2S101.2,76.4,100.7,77z"/>
					</g>
					<g>
						<path class="st2" d="M100.4,76.7l-32.2,32.2c-0.5,0.5-1.2,0.8-2,0.8s-1.4-0.3-2-0.8l-7.2-7.2c-0.5-0.5-0.8-1.2-0.8-2
							c0-0.8,0.3-1.4,0.8-2l23-23l-23-23c-0.5-0.5-0.8-1.2-0.8-2c0-0.8,0.3-1.4,0.8-2l7.2-7.2c0.5-0.5,1.2-0.8,2-0.8s1.4,0.3,2,0.8
							l32.2,32.2c0.5,0.5,0.8,1.2,0.8,2C101.2,75.5,100.9,76.1,100.4,76.7z"/>
					</g>
					<g>
						<path class="st2" d="M100.1,76.4L68,108.6c-0.5,0.5-1.2,0.8-2,0.8s-1.4-0.3-2-0.8l-7.2-7.2c-0.5-0.5-0.8-1.2-0.8-2
							c0-0.8,0.3-1.4,0.8-2l23-23l-23-23c-0.5-0.5-0.8-1.2-0.8-2c0-0.8,0.3-1.4,0.8-2l7.2-7.2c0.5-0.5,1.2-0.8,2-0.8s1.4,0.3,2,0.8
							l32.2,32.2c0.5,0.5,0.8,1.2,0.8,2C100.9,75.2,100.7,75.9,100.1,76.4z"/>
					</g>
					<g>
						<path class="st2" d="M99.8,76.1l-32.2,32.2c-0.5,0.5-1.2,0.8-2,0.8c-0.8,0-1.4-0.3-2-0.8l-7.2-7.2c-0.5-0.5-0.8-1.2-0.8-2
							c0-0.8,0.3-1.4,0.8-2l23-23l-23-23c-0.5-0.5-0.8-1.2-0.8-2c0-0.8,0.3-1.4,0.8-2l7.2-7.2c0.5-0.5,1.2-0.8,2-0.8
							c0.8,0,1.4,0.3,2,0.8l32.2,32.2c0.5,0.5,0.8,1.2,0.8,2S100.4,75.6,99.8,76.1z"/>
					</g>
					<g>
						<path class="st2" d="M99.6,75.9L67.4,108c-0.5,0.5-1.2,0.8-2,0.8s-1.4-0.3-2-0.8l-7.2-7.2c-0.5-0.5-0.8-1.2-0.8-2
							c0-0.8,0.3-1.4,0.8-2l23-23l-23-23c-0.5-0.5-0.8-1.2-0.8-2c0-0.8,0.3-1.4,0.8-2l7.2-7.2c0.5-0.5,1.2-0.8,2-0.8s1.4,0.3,2,0.8
							L99.6,72c0.5,0.5,0.8,1.2,0.8,2C100.4,74.7,100.1,75.3,99.6,75.9z"/>
					</g>
					<g>
						<path class="st2" d="M99.3,75.6l-32.2,32.2c-0.5,0.5-1.2,0.8-2,0.8c-0.8,0-1.4-0.3-2-0.8l-7.2-7.2c-0.5-0.5-0.8-1.2-0.8-2
							c0-0.8,0.3-1.4,0.8-2l23-23l-23-23c-0.5-0.5-0.8-1.2-0.8-2c0-0.8,0.3-1.4,0.8-2l7.2-7.2c0.5-0.5,1.2-0.8,2-0.8
							c0.8,0,1.4,0.3,2,0.8l32.2,32.2c0.5,0.5,0.8,1.2,0.8,2S99.8,75,99.3,75.6z"/>
					</g>
					<g>
						<path class="st2" d="M99,75.3l-32.2,32.2c-0.5,0.5-1.2,0.8-2,0.8c-0.8,0-1.4-0.3-2-0.8l-7.2-7.2c-0.5-0.5-0.8-1.2-0.8-2
							c0-0.8,0.3-1.4,0.8-2l23-23l-23-23c-0.5-0.5-0.8-1.2-0.8-2c0-0.8,0.3-1.4,0.8-2l7.2-7.2c0.5-0.5,1.2-0.8,2-0.8
							c0.8,0,1.4,0.3,2,0.8L99,71.4c0.5,0.5,0.8,1.2,0.8,2S99.6,74.8,99,75.3z"/>
					</g>
					<g>
						<path class="st2" d="M98.7,75l-32.2,32.2c-0.5,0.5-1.2,0.8-2,0.8c-0.8,0-1.4-0.3-2-0.8l-7.2-7.2c-0.5-0.5-0.8-1.2-0.8-2
							c0-0.8,0.3-1.4,0.8-2l23-23l-23-23c-0.5-0.5-0.8-1.2-0.8-2c0-0.8,0.3-1.4,0.8-2l7.2-7.2c0.5-0.5,1.2-0.8,2-0.8
							c0.8,0,1.4,0.3,2,0.8l32.2,32.2c0.5,0.5,0.8,1.2,0.8,2C99.6,73.8,99.3,74.5,98.7,75z"/>
					</g>
					<g>
						<path class="st2" d="M98.5,74.8l-32.2,32.2c-0.5,0.5-1.2,0.8-2,0.8c-0.8,0-1.4-0.3-2-0.8l-7.2-7.2c-0.5-0.5-0.8-1.2-0.8-2
							c0-0.8,0.3-1.4,0.8-2l23-23l-23-23c-0.5-0.5-0.8-1.2-0.8-2c0-0.8,0.3-1.4,0.8-2l7.2-7.2c0.5-0.5,1.2-0.8,2-0.8
							c0.8,0,1.4,0.3,2,0.8l32.2,32.2c0.5,0.5,0.8,1.2,0.8,2C99.3,73.6,99,74.2,98.5,74.8z"/>
					</g>
					<g>
						<path class="st2" d="M98.2,74.5L66,106.6c-0.5,0.5-1.2,0.8-2,0.8c-0.8,0-1.4-0.3-2-0.8l-7.2-7.2c-0.5-0.5-0.8-1.2-0.8-2
							c0-0.8,0.3-1.4,0.8-2l23-23l-23-23c-0.5-0.5-0.8-1.2-0.8-2c0-0.8,0.3-1.4,0.8-2l7.2-7.2c0.5-0.5,1.2-0.8,2-0.8
							c0.8,0,1.4,0.3,2,0.8l32.2,32.2c0.5,0.5,0.8,1.2,0.8,2S98.7,73.9,98.2,74.5z"/>
					</g>
					<g>
						<path class="st2" d="M97.9,74.2l-32.2,32.2c-0.5,0.5-1.2,0.8-2,0.8c-0.8,0-1.4-0.3-2-0.8l-7.2-7.2c-0.5-0.5-0.8-1.2-0.8-2
							c0-0.8,0.3-1.4,0.8-2l23-23l-23-23c-0.5-0.5-0.8-1.2-0.8-2c0-0.8,0.3-1.4,0.8-2l7.2-7.2c0.5-0.5,1.2-0.8,2-0.8
							c0.8,0,1.4,0.3,2,0.8l32.2,32.2c0.5,0.5,0.8,1.2,0.8,2C98.7,73,98.4,73.7,97.9,74.2z"/>
					</g>
					<g>
						<path class="st2" d="M97.6,73.9l-32.2,32.2c-0.5,0.5-1.2,0.8-2,0.8s-1.4-0.3-2-0.8l-7.2-7.2c-0.5-0.5-0.8-1.2-0.8-2
							c0-0.8,0.3-1.4,0.8-2l23-23l-23-23c-0.5-0.5-0.8-1.2-0.8-2c0-0.8,0.3-1.4,0.8-2l7.2-7.2c0.5-0.5,1.2-0.8,2-0.8s1.4,0.3,2,0.8
							L97.6,70c0.5,0.5,0.8,1.2,0.8,2C98.4,72.7,98.2,73.4,97.6,73.9z"/>
					</g>
					<g>
						<path class="st2" d="M97.3,73.7l-32.2,32.2c-0.5,0.5-1.2,0.8-2,0.8c-0.8,0-1.4-0.3-2-0.8l-7.2-7.2c-0.5-0.5-0.8-1.2-0.8-2
							c0-0.8,0.3-1.4,0.8-2l23-23l-23-23c-0.5-0.5-0.8-1.2-0.8-2c0-0.8,0.3-1.4,0.8-2l7.2-7.2c0.5-0.5,1.2-0.8,2-0.8
							c0.8,0,1.4,0.3,2,0.8l32.2,32.2c0.5,0.5,0.8,1.2,0.8,2S97.9,73.1,97.3,73.7z"/>
					</g>
					<g>
						<path class="st2" d="M97.1,73.4l-32.2,32.2c-0.5,0.5-1.2,0.8-2,0.8c-0.8,0-1.4-0.3-2-0.8l-7.2-7.2c-0.5-0.5-0.8-1.2-0.8-2
							c0-0.8,0.3-1.4,0.8-2l23-23l-23-23c-0.5-0.5-0.8-1.2-0.8-2c0-0.8,0.3-1.4,0.8-2l7.2-7.2c0.5-0.5,1.2-0.8,2-0.8
							c0.8,0,1.4,0.3,2,0.8l32.2,32.2c0.5,0.5,0.8,1.2,0.8,2S97.6,72.8,97.1,73.4z"/>
					</g>
					<g>
						<path class="st2" d="M96.8,73.1l-32.2,32.2c-0.5,0.5-1.2,0.8-2,0.8s-1.4-0.3-2-0.8l-7.2-7.2c-0.5-0.5-0.8-1.2-0.8-2
							c0-0.8,0.3-1.4,0.8-2l23-23l-23-23c-0.5-0.5-0.8-1.2-0.8-2c0-0.8,0.3-1.4,0.8-2l7.2-7.2c0.5-0.5,1.2-0.8,2-0.8s1.4,0.3,2,0.8
							l32.2,32.2c0.5,0.5,0.8,1.2,0.8,2C97.6,71.9,97.3,72.6,96.8,73.1z"/>
					</g>
					<g>
						<path class="st2" d="M96.5,72.8L64.4,105c-0.5,0.5-1.2,0.8-2,0.8c-0.8,0-1.4-0.3-2-0.8l-7.2-7.2c-0.5-0.5-0.8-1.2-0.8-2
							c0-0.8,0.3-1.4,0.8-2l23-23l-23-23c-0.5-0.5-0.8-1.2-0.8-2c0-0.8,0.3-1.4,0.8-2l7.2-7.2c0.5-0.5,1.2-0.8,2-0.8
							c0.8,0,1.4,0.3,2,0.8l32.2,32.2c0.5,0.5,0.8,1.2,0.8,2S97.1,72.3,96.5,72.8z"/>
					</g>
					<g>
						<path class="st2" d="M96.2,72.6l-32.2,32.2c-0.5,0.5-1.2,0.8-2,0.8c-0.8,0-1.4-0.3-2-0.8L53,97.5c-0.5-0.5-0.8-1.2-0.8-2
							c0-0.8,0.3-1.4,0.8-2l23-23l-23-23c-0.5-0.5-0.8-1.2-0.8-2c0-0.8,0.3-1.4,0.8-2l7.2-7.2c0.5-0.5,1.2-0.8,2-0.8
							c0.8,0,1.4,0.3,2,0.8l32.2,32.2c0.5,0.5,0.8,1.2,0.8,2S96.8,72,96.2,72.6z"/>
					</g>
					<g>
						<path class="st2" d="M96,72.3l-32.2,32.2c-0.5,0.5-1.2,0.8-2,0.8s-1.4-0.3-2-0.8l-7.2-7.2c-0.5-0.5-0.8-1.2-0.8-2
							c0-0.8,0.3-1.4,0.8-2l23-23l-23-23c-0.5-0.5-0.8-1.2-0.8-2c0-0.8,0.3-1.4,0.8-2l7.2-7.2c0.5-0.5,1.2-0.8,2-0.8s1.4,0.3,2,0.8
							L96,68.4c0.5,0.5,0.8,1.2,0.8,2C96.8,71.1,96.5,71.7,96,72.3z"/>
					</g>
					<g>
						<path class="st2" d="M95.7,72l-32.2,32.2c-0.5,0.5-1.2,0.8-2,0.8s-1.4-0.3-2-0.8L52.4,97c-0.5-0.5-0.8-1.2-0.8-2
							c0-0.8,0.3-1.4,0.8-2l23-23l-23-23c-0.5-0.5-0.8-1.2-0.8-2c0-0.8,0.3-1.4,0.8-2l7.2-7.2c0.5-0.5,1.2-0.8,2-0.8s1.4,0.3,2,0.8
							l32.2,32.2c0.5,0.5,0.8,1.2,0.8,2C96.5,70.8,96.2,71.4,95.7,72z"/>
					</g>
					<g>
						<path class="st2" d="M95.4,71.7l-32.2,32.2c-0.5,0.5-1.2,0.8-2,0.8c-0.8,0-1.4-0.3-2-0.8l-7.2-7.2c-0.5-0.5-0.8-1.2-0.8-2
							c0-0.8,0.3-1.4,0.8-2l23-23l-23-23c-0.5-0.5-0.8-1.2-0.8-2c0-0.8,0.3-1.4,0.8-2l7.2-7.2c0.5-0.5,1.2-0.8,2-0.8
							c0.8,0,1.4,0.3,2,0.8l32.2,32.2c0.5,0.5,0.8,1.2,0.8,2S96,71.2,95.4,71.7z"/>
					</g>
					<g>
						<path class="st2" d="M95.1,71.4L63,103.6c-0.5,0.5-1.2,0.8-2,0.8s-1.4-0.3-2-0.8l-7.2-7.2c-0.5-0.5-0.8-1.2-0.8-2
							c0-0.8,0.3-1.4,0.8-2l23-23l-23-23c-0.5-0.5-0.8-1.2-0.8-2c0-0.8,0.3-1.4,0.8-2l7.2-7.2c0.5-0.5,1.2-0.8,2-0.8s1.4,0.3,2,0.8
							l32.2,32.2c0.5,0.5,0.8,1.2,0.8,2C96,70.2,95.7,70.9,95.1,71.4z"/>
					</g>
					<g>
						<path class="st2" d="M94.9,71.2l-32.2,32.2c-0.5,0.5-1.2,0.8-2,0.8s-1.4-0.3-2-0.8l-7.2-7.2c-0.5-0.5-0.8-1.2-0.8-2
							c0-0.8,0.3-1.4,0.8-2l23-23l-23-23c-0.5-0.5-0.8-1.2-0.8-2c0-0.8,0.3-1.4,0.8-2l7.2-7.2c0.5-0.5,1.2-0.8,2-0.8s1.4,0.3,2,0.8
							l32.2,32.2c0.5,0.5,0.8,1.2,0.8,2C95.7,70,95.4,70.6,94.9,71.2z"/>
					</g>
					<g>
						<path class="st2" d="M94.6,70.9l-32.2,32.2c-0.5,0.5-1.2,0.8-2,0.8c-0.8,0-1.4-0.3-2-0.8l-7.2-7.2c-0.5-0.5-0.8-1.2-0.8-2
							c0-0.8,0.3-1.4,0.8-2l23-23l-23-23c-0.5-0.5-0.8-1.2-0.8-2c0-0.8,0.3-1.4,0.8-2l7.2-7.2c0.5-0.5,1.2-0.8,2-0.8
							c0.8,0,1.4,0.3,2,0.8L94.6,67c0.5,0.5,0.8,1.2,0.8,2S95.1,70.3,94.6,70.9z"/>
					</g>
					<g>
						<path class="st2" d="M94.3,70.6l-32.2,32.2c-0.5,0.5-1.2,0.8-2,0.8c-0.8,0-1.4-0.3-2-0.8l-7.2-7.2c-0.5-0.5-0.8-1.2-0.8-2
							c0-0.8,0.3-1.4,0.8-2l23-23l-23-23c-0.5-0.5-0.8-1.2-0.8-2c0-0.8,0.3-1.4,0.8-2l7.2-7.2c0.5-0.5,1.2-0.8,2-0.8
							c0.8,0,1.4,0.3,2,0.8l32.2,32.2c0.5,0.5,0.8,1.2,0.8,2C95.1,69.4,94.9,70.1,94.3,70.6z"/>
					</g>
					<g>
						<path class="st2" d="M94,70.3l-32.2,32.2c-0.5,0.5-1.2,0.8-2,0.8s-1.4-0.3-2-0.8l-7.2-7.2c-0.5-0.5-0.8-1.2-0.8-2
							c0-0.8,0.3-1.4,0.8-2l23-23l-23-23c-0.5-0.5-0.8-1.2-0.8-2c0-0.8,0.3-1.4,0.8-2l7.2-7.2c0.5-0.5,1.2-0.8,2-0.8s1.4,0.3,2,0.8
							L94,66.4c0.5,0.5,0.8,1.2,0.8,2C94.9,69.1,94.6,69.8,94,70.3z"/>
					</g>
					<g>
						<path class="st2" d="M93.8,70.1l-32.2,32.2c-0.5,0.5-1.2,0.8-2,0.8c-0.8,0-1.4-0.3-2-0.8L50.5,95c-0.5-0.5-0.8-1.2-0.8-2
							c0-0.8,0.3-1.4,0.8-2l23-23l-23-23c-0.5-0.5-0.8-1.2-0.8-2c0-0.8,0.3-1.4,0.8-2l7.2-7.2c0.5-0.5,1.2-0.8,2-0.8
							c0.8,0,1.4,0.3,2,0.8l32.2,32.2c0.5,0.5,0.8,1.2,0.8,2S94.3,69.5,93.8,70.1z"/>
					</g>
					<g>
						<path class="st2" d="M93.5,69.8l-32.2,32.2c-0.5,0.5-1.2,0.8-2,0.8c-0.8,0-1.4-0.3-2-0.8l-7.2-7.2c-0.5-0.5-0.8-1.2-0.8-2
							c0-0.8,0.3-1.4,0.8-2l23-23l-23-23c-0.5-0.5-0.8-1.2-0.8-2c0-0.8,0.3-1.4,0.8-2l7.2-7.2c0.5-0.5,1.2-0.8,2-0.8
							c0.8,0,1.4,0.3,2,0.8l32.2,32.2c0.5,0.5,0.8,1.2,0.8,2S94,69.2,93.5,69.8z"/>
					</g>
					<g>
						<path class="st2" d="M93.2,69.5L61,101.7c-0.5,0.5-1.2,0.8-2,0.8c-0.8,0-1.4-0.3-2-0.8l-7.2-7.2c-0.5-0.5-0.8-1.2-0.8-2
							c0-0.8,0.3-1.4,0.8-2l23-23l-23-23c-0.5-0.5-0.8-1.2-0.8-2c0-0.8,0.3-1.4,0.8-2l7.2-7.2c0.5-0.5,1.2-0.8,2-0.8
							c0.8,0,1.4,0.3,2,0.8l32.2,32.2c0.5,0.5,0.8,1.2,0.8,2C94,68.3,93.7,69,93.2,69.5z"/>
					</g>
					<g>
						<path class="st2" d="M92.9,69.2l-32.2,32.2c-0.5,0.5-1.2,0.8-2,0.8s-1.4-0.3-2-0.8l-7.2-7.2c-0.5-0.5-0.8-1.2-0.8-2
							c0-0.8,0.3-1.4,0.8-2l23-23l-23-23c-0.5-0.5-0.8-1.2-0.8-2c0-0.8,0.3-1.4,0.8-2l7.2-7.2c0.5-0.5,1.2-0.8,2-0.8s1.4,0.3,2,0.8
							l32.2,32.2c0.5,0.5,0.8,1.2,0.8,2S93.5,68.7,92.9,69.2z"/>
					</g>
					<g>
						<path class="st2" d="M92.6,69l-32.2,32.2c-0.5,0.5-1.2,0.8-2,0.8c-0.8,0-1.4-0.3-2-0.8l-7.2-7.2c-0.5-0.5-0.8-1.2-0.8-2
							c0-0.8,0.3-1.4,0.8-2l23-23l-23-23c-0.5-0.5-0.8-1.2-0.8-2c0-0.8,0.3-1.4,0.8-2l7.2-7.2c0.5-0.5,1.2-0.8,2-0.8
							c0.8,0,1.4,0.3,2,0.8l32.2,32.2c0.5,0.5,0.8,1.2,0.8,2S93.2,68.4,92.6,69z"/>
					</g>
					<g>
						<path class="st2" d="M92.4,68.7l-32.2,32.2c-0.5,0.5-1.2,0.8-2,0.8s-1.4-0.3-2-0.8l-7.2-7.2c-0.5-0.5-0.8-1.2-0.8-2
							c0-0.8,0.3-1.4,0.8-2l23-23l-23-23c-0.5-0.5-0.8-1.2-0.8-2c0-0.8,0.3-1.4,0.8-2l7.2-7.2c0.5-0.5,1.2-0.8,2-0.8s1.4,0.3,2,0.8
							l32.2,32.2c0.5,0.5,0.8,1.2,0.8,2C93.2,67.5,92.9,68.1,92.4,68.7z"/>
					</g>
					<g>
						<path class="st2" d="M92.1,68.4l-32.2,32.2c-0.5,0.5-1.2,0.8-2,0.8c-0.8,0-1.4-0.3-2-0.8l-7.2-7.2c-0.5-0.5-0.8-1.2-0.8-2
							c0-0.8,0.3-1.4,0.8-2l23-23l-23-23c-0.5-0.5-0.8-1.2-0.8-2c0-0.8,0.3-1.4,0.8-2l7.2-7.2c0.5-0.5,1.2-0.8,2-0.8
							c0.8,0,1.4,0.3,2,0.8l32.2,32.2c0.5,0.5,0.8,1.2,0.8,2S92.6,67.9,92.1,68.4z"/>
					</g>
					<g>
						<path class="st2" d="M91.8,68.1l-32.2,32.2c-0.5,0.5-1.2,0.8-2,0.8c-0.8,0-1.4-0.3-2-0.8l-7.2-7.2c-0.5-0.5-0.8-1.2-0.8-2
							c0-0.8,0.3-1.4,0.8-2l23-23l-23-23c-0.5-0.5-0.8-1.2-0.8-2c0-0.8,0.3-1.4,0.8-2l7.2-7.2c0.5-0.5,1.2-0.8,2-0.8
							c0.8,0,1.4,0.3,2,0.8l32.2,32.2c0.5,0.5,0.8,1.2,0.8,2S92.4,67.6,91.8,68.1z"/>
					</g>
					<g>
						<path class="st2" d="M91.5,67.9L59.4,100c-0.5,0.5-1.2,0.8-2,0.8s-1.4-0.3-2-0.8l-7.2-7.2c-0.5-0.5-0.8-1.2-0.8-2
							c0-0.8,0.3-1.4,0.8-2l23-23l-23-23c-0.5-0.5-0.8-1.2-0.8-2c0-0.8,0.3-1.4,0.8-2l7.2-7.2c0.5-0.5,1.2-0.8,2-0.8s1.4,0.3,2,0.8
							L91.5,64c0.5,0.5,0.8,1.2,0.8,2C92.4,66.7,92.1,67.3,91.5,67.9z"/>
					</g>
					<g>
						<path class="st2" d="M91.3,67.6L59.1,99.7c-0.5,0.5-1.2,0.8-2,0.8s-1.4-0.3-2-0.8L48,92.5c-0.5-0.5-0.8-1.2-0.8-2
							c0-0.8,0.3-1.4,0.8-2l23-23l-23-23c-0.5-0.5-0.8-1.2-0.8-2c0-0.8,0.3-1.4,0.8-2l7.2-7.2c0.5-0.5,1.2-0.8,2-0.8s1.4,0.3,2,0.8
							l32.2,32.2c0.5,0.5,0.8,1.2,0.8,2C92.1,66.4,91.8,67,91.3,67.6z"/>
					</g>
					<g>
						<path class="st2" d="M91,67.3L58.8,99.5c-0.5,0.5-1.2,0.8-2,0.8c-0.8,0-1.4-0.3-2-0.8l-7.2-7.2c-0.5-0.5-0.8-1.2-0.8-2
							c0-0.8,0.3-1.4,0.8-2l23-23l-23-23c-0.5-0.5-0.8-1.2-0.8-2c0-0.8,0.3-1.4,0.8-2l7.2-7.2c0.5-0.5,1.2-0.8,2-0.8
							c0.8,0,1.4,0.3,2,0.8L91,63.4c0.5,0.5,0.8,1.2,0.8,2S91.5,66.7,91,67.3z"/>
					</g>
					<g>
						<path class="st2" d="M90.7,67L58.6,99.2c-0.5,0.5-1.2,0.8-2,0.8c-0.8,0-1.4-0.3-2-0.8L47.5,92c-0.5-0.5-0.8-1.2-0.8-2
							c0-0.8,0.3-1.4,0.8-2l23-23l-23-23c-0.5-0.5-0.8-1.2-0.8-2c0-0.8,0.3-1.4,0.8-2l7.2-7.2c0.5-0.5,1.2-0.8,2-0.8
							c0.8,0,1.4,0.3,2,0.8l32.2,32.2c0.5,0.5,0.8,1.2,0.8,2C91.5,65.8,91.3,66.5,90.7,67z"/>
					</g>
					<g>
						<path class="st2" d="M90.4,66.7L58.3,98.9c-0.5,0.5-1.2,0.8-2,0.8s-1.4-0.3-2-0.8l-7.2-7.2c-0.5-0.5-0.8-1.2-0.8-2
							c0-0.8,0.3-1.4,0.8-2l23-23l-23-23c-0.5-0.5-0.8-1.2-0.8-2c0-0.8,0.3-1.4,0.8-2l7.2-7.2c0.5-0.5,1.2-0.8,2-0.8s1.4,0.3,2,0.8
							l32.2,32.2c0.5,0.5,0.8,1.2,0.8,2C91.3,65.5,91,66.2,90.4,66.7z"/>
					</g>
					<g>
						<path class="st2" d="M90.2,66.5L58,98.6c-0.5,0.5-1.2,0.8-2,0.8c-0.8,0-1.4-0.3-2-0.8l-7.2-7.2c-0.5-0.5-0.8-1.2-0.8-2
							c0-0.8,0.3-1.4,0.8-2l23-23l-23-23c-0.5-0.5-0.8-1.2-0.8-2c0-0.8,0.3-1.4,0.8-2l7.2-7.2c0.5-0.5,1.2-0.8,2-0.8
							c0.8,0,1.4,0.3,2,0.8l32.2,32.2c0.5,0.5,0.8,1.2,0.8,2S90.7,65.9,90.2,66.5z"/>
					</g>
					<g>
						<path class="st2" d="M89.9,66.2L57.7,98.4c-0.5,0.5-1.2,0.8-2,0.8c-0.8,0-1.4-0.3-2-0.8l-7.2-7.2c-0.5-0.5-0.8-1.2-0.8-2
							c0-0.8,0.3-1.4,0.8-2l23-23l-23-23c-0.5-0.5-0.8-1.2-0.8-2c0-0.8,0.3-1.4,0.8-2l7.2-7.2c0.5-0.5,1.2-0.8,2-0.8
							c0.8,0,1.4,0.3,2,0.8l32.2,32.2c0.5,0.5,0.8,1.2,0.8,2C90.7,65,90.4,65.6,89.9,66.2z"/>
					</g>
					<g>
						<path class="st2" d="M89.6,65.9L57.4,98.1c-0.5,0.5-1.2,0.8-2,0.8s-1.4-0.3-2-0.8l-7.2-7.2c-0.5-0.5-0.8-1.2-0.8-2
							c0-0.8,0.3-1.4,0.8-2l23-23l-23-23c-0.5-0.5-0.8-1.2-0.8-2c0-0.8,0.3-1.4,0.8-2l7.2-7.2c0.5-0.5,1.2-0.8,2-0.8s1.4,0.3,2,0.8
							L89.6,62c0.5,0.5,0.8,1.2,0.8,2C90.4,64.7,90.2,65.4,89.6,65.9z"/>
					</g>
					<g>
						<path class="st2" d="M89.3,65.6L57.2,97.8c-0.5,0.5-1.2,0.8-2,0.8s-1.4-0.3-2-0.8l-7.2-7.2c-0.5-0.5-0.8-1.2-0.8-2
							c0-0.8,0.3-1.4,0.8-2l23-23l-23-23c-0.5-0.5-0.8-1.2-0.8-2c0-0.8,0.3-1.4,0.8-2l7.2-7.2c0.5-0.5,1.2-0.8,2-0.8s1.4,0.3,2,0.8
							l32.2,32.2c0.5,0.5,0.8,1.2,0.8,2S89.9,65.1,89.3,65.6z"/>
					</g>
					<g>
						<path class="st2" d="M89.1,65.4L56.9,97.5c-0.5,0.5-1.2,0.8-2,0.8c-0.8,0-1.4-0.3-2-0.8l-7.2-7.2c-0.5-0.5-0.8-1.2-0.8-2
							c0-0.8,0.3-1.4,0.8-2l23-23l-23-23c-0.5-0.5-0.8-1.2-0.8-2c0-0.8,0.3-1.4,0.8-2l7.2-7.2c0.5-0.5,1.2-0.8,2-0.8
							c0.8,0,1.4,0.3,2,0.8l32.2,32.2c0.5,0.5,0.8,1.2,0.8,2C89.9,64.2,89.6,64.8,89.1,65.4z"/>
					</g>
					<g>
						<path class="st2" d="M88.8,65.1L56.6,97.2c-0.5,0.5-1.2,0.8-2,0.8c-0.8,0-1.4-0.3-2-0.8l-7.2-7.2c-0.5-0.5-0.8-1.2-0.8-2
							c0-0.8,0.3-1.4,0.8-2l23-23l-23-23c-0.5-0.5-0.8-1.2-0.8-2c0-0.8,0.3-1.4,0.8-2l7.2-7.2c0.5-0.5,1.2-0.8,2-0.8
							c0.8,0,1.4,0.3,2,0.8l32.2,32.2c0.5,0.5,0.8,1.2,0.8,2C89.6,63.9,89.3,64.5,88.8,65.1z"/>
					</g>
					<g>
						<path class="st2" d="M88.5,64.8L56.3,97c-0.5,0.5-1.2,0.8-2,0.8s-1.4-0.3-2-0.8l-7.2-7.2c-0.5-0.5-0.8-1.2-0.8-2
							c0-0.8,0.3-1.4,0.8-2l23-23l-23-23c-0.5-0.5-0.8-1.2-0.8-2c0-0.8,0.3-1.4,0.8-2l7.2-7.2c0.5-0.5,1.2-0.8,2-0.8s1.4,0.3,2,0.8
							l32.2,32.2c0.5,0.5,0.8,1.2,0.8,2C89.3,63.6,89,64.3,88.5,64.8z"/>
					</g>
					<g>
						<path class="st2" d="M88.2,64.5L56.1,96.7c-0.5,0.5-1.2,0.8-2,0.8c-0.8,0-1.4-0.3-2-0.8L45,89.5c-0.5-0.5-0.8-1.2-0.8-2
							c0-0.8,0.3-1.4,0.8-2l23-23l-23-23c-0.5-0.5-0.8-1.2-0.8-2c0-0.8,0.3-1.4,0.8-2l7.2-7.2c0.5-0.5,1.2-0.8,2-0.8
							c0.8,0,1.4,0.3,2,0.8l32.2,32.2c0.5,0.5,0.8,1.2,0.8,2C89,63.3,88.8,64,88.2,64.5z"/>
					</g>
					<g>
						<path class="st2" d="M87.9,64.3L55.8,96.4c-0.5,0.5-1.2,0.8-2,0.8s-1.4-0.3-2-0.8l-7.2-7.2c-0.5-0.5-0.8-1.2-0.8-2
							c0-0.8,0.3-1.4,0.8-2l23-23l-23-23c-0.5-0.5-0.8-1.2-0.8-2c0-0.8,0.3-1.4,0.8-2l7.2-7.2c0.5-0.5,1.2-0.8,2-0.8s1.4,0.3,2,0.8
							l32.2,32.2c0.5,0.5,0.8,1.2,0.8,2C88.8,63.1,88.5,63.7,87.9,64.3z"/>
					</g>
					<g>
						<path class="st2" d="M87.7,64L55.5,96.1c-0.5,0.5-1.2,0.8-2,0.8c-0.8,0-1.4-0.3-2-0.8l-7.2-7.2c-0.5-0.5-0.8-1.2-0.8-2
							c0-0.8,0.3-1.4,0.8-2l23-23l-23-23c-0.5-0.5-0.8-1.2-0.8-2c0-0.8,0.3-1.4,0.8-2l7.2-7.2c0.5-0.5,1.2-0.8,2-0.8
							c0.8,0,1.4,0.3,2,0.8l32.2,32.2c0.5,0.5,0.8,1.2,0.8,2C88.5,62.8,88.2,63.4,87.7,64z"/>
					</g>
					<g>
						<path class="st2" d="M87.4,63.7L55.2,95.9c-0.5,0.5-1.2,0.8-2,0.8c-0.8,0-1.4-0.3-2-0.8l-7.2-7.2c-0.5-0.5-0.8-1.2-0.8-2
							c0-0.8,0.3-1.4,0.8-2l23-23l-23-23c-0.5-0.5-0.8-1.2-0.8-2c0-0.8,0.3-1.4,0.8-2l7.2-7.2c0.5-0.5,1.2-0.8,2-0.8
							c0.8,0,1.4,0.3,2,0.8l32.2,32.2c0.5,0.5,0.8,1.2,0.8,2C88.2,62.5,87.9,63.2,87.4,63.7z"/>
					</g>
					<g>
						<path class="st2" d="M87.1,63.4L55,95.6c-0.5,0.5-1.2,0.8-2,0.8c-0.8,0-1.4-0.3-2-0.8l-7.2-7.2c-0.5-0.5-0.8-1.2-0.8-2
							c0-0.8,0.3-1.4,0.8-2l23-23l-23-23c-0.5-0.5-0.8-1.2-0.8-2c0-0.8,0.3-1.4,0.8-2l7.2-7.2c0.5-0.5,1.2-0.8,2-0.8
							c0.8,0,1.4,0.3,2,0.8l32.2,32.2c0.5,0.5,0.8,1.2,0.8,2C87.9,62.2,87.7,62.9,87.1,63.4z"/>
					</g>
					<g>
						<path class="st2" d="M86.8,63.2L54.7,95.3c-0.5,0.5-1.2,0.8-2,0.8s-1.4-0.3-2-0.8l-7.2-7.2c-0.5-0.5-0.8-1.2-0.8-2
							c0-0.8,0.3-1.4,0.8-2l23-23l-23-23c-0.5-0.5-0.8-1.2-0.8-2c0-0.8,0.3-1.4,0.8-2l7.2-7.2c0.5-0.5,1.2-0.8,2-0.8s1.4,0.3,2,0.8
							l32.2,32.2c0.5,0.5,0.8,1.2,0.8,2C87.7,62,87.4,62.6,86.8,63.2z"/>
					</g>
					<g>
						<path class="st2" d="M86.6,62.9L54.4,95c-0.5,0.5-1.2,0.8-2,0.8c-0.8,0-1.4-0.3-2-0.8l-7.2-7.2c-0.5-0.5-0.8-1.2-0.8-2
							c0-0.8,0.3-1.4,0.8-2l23-23l-23-23c-0.5-0.5-0.8-1.2-0.8-2c0-0.8,0.3-1.4,0.8-2l7.2-7.2c0.5-0.5,1.2-0.8,2-0.8
							c0.8,0,1.4,0.3,2,0.8L86.6,59c0.5,0.5,0.8,1.2,0.8,2S87.1,62.3,86.6,62.9z"/>
					</g>
					<g>
						<path class="st2" d="M86.3,62.6L54.1,94.8c-0.5,0.5-1.2,0.8-2,0.8c-0.8,0-1.4-0.3-2-0.8L43,87.6c-0.5-0.5-0.8-1.2-0.8-2
							c0-0.8,0.3-1.4,0.8-2l23-23l-23-23c-0.5-0.5-0.8-1.2-0.8-2c0-0.8,0.3-1.4,0.8-2l7.2-7.2c0.5-0.5,1.2-0.8,2-0.8
							c0.8,0,1.4,0.3,2,0.8l32.2,32.2c0.5,0.5,0.8,1.2,0.8,2C87.1,61.4,86.8,62,86.3,62.6z"/>
					</g>
					<g>
						<path class="st2" d="M86,62.3L53.9,94.5c-0.5,0.5-1.2,0.8-2,0.8s-1.4-0.3-2-0.8l-7.2-7.2c-0.5-0.5-0.8-1.2-0.8-2
							c0-0.8,0.3-1.4,0.8-2l23-23l-23-23c-0.5-0.5-0.8-1.2-0.8-2c0-0.8,0.3-1.4,0.8-2l7.2-7.2c0.5-0.5,1.2-0.8,2-0.8s1.4,0.3,2,0.8
							L86,58.4c0.5,0.5,0.8,1.2,0.8,2C86.8,61.1,86.6,61.8,86,62.3z"/>
					</g>
					<g>
						<path class="st2" d="M85.7,62L53.6,94.2c-0.5,0.5-1.2,0.8-2,0.8s-1.4-0.3-2-0.8L42.5,87c-0.5-0.5-0.8-1.2-0.8-2
							c0-0.8,0.3-1.4,0.8-2l23-23l-23-23c-0.5-0.5-0.8-1.2-0.8-2c0-0.8,0.3-1.4,0.8-2l7.2-7.2c0.5-0.5,1.2-0.8,2-0.8s1.4,0.3,2,0.8
							l32.2,32.2c0.5,0.5,0.8,1.2,0.8,2S86.3,61.5,85.7,62z"/>
					</g>
					<g>
						<path class="st2" d="M85.5,61.8L53.3,93.9c-0.5,0.5-1.2,0.8-2,0.8c-0.8,0-1.4-0.3-2-0.8l-7.2-7.2c-0.5-0.5-0.8-1.2-0.8-2
							c0-0.8,0.3-1.4,0.8-2l23-23l-23-23c-0.5-0.5-0.8-1.2-0.8-2c0-0.8,0.3-1.4,0.8-2l7.2-7.2c0.5-0.5,1.2-0.8,2-0.8
							c0.8,0,1.4,0.3,2,0.8l32.2,32.2c0.5,0.5,0.8,1.2,0.8,2S86,61.2,85.5,61.8z"/>
					</g>
					<g>
						<path class="st2" d="M85.2,61.5L53,93.7c-0.5,0.5-1.2,0.8-2,0.8s-1.4-0.3-2-0.8l-7.2-7.2c-0.5-0.5-0.8-1.2-0.8-2
							c0-0.8,0.3-1.4,0.8-2l23-23l-23-23c-0.5-0.5-0.8-1.2-0.8-2c0-0.8,0.3-1.4,0.8-2l7.2-7.2c0.5-0.5,1.2-0.8,2-0.8s1.4,0.3,2,0.8
							l32.2,32.2c0.5,0.5,0.8,1.2,0.8,2C86,60.3,85.7,60.9,85.2,61.5z"/>
					</g>
					<g>
						<path class="st2" d="M84.9,61.2L52.7,93.4c-0.5,0.5-1.2,0.8-2,0.8s-1.4-0.3-2-0.8l-7.2-7.2c-0.5-0.5-0.8-1.2-0.8-2
							c0-0.8,0.3-1.4,0.8-2l23-23l-23-23c-0.5-0.5-0.8-1.2-0.8-2c0-0.8,0.3-1.4,0.8-2l7.2-7.2c0.5-0.5,1.2-0.8,2-0.8s1.4,0.3,2,0.8
							l32.2,32.2c0.5,0.5,0.8,1.2,0.8,2S85.5,60.7,84.9,61.2z"/>
					</g>
				</g>
				<g>
					<path class="st3" d="M84.9,61.2L52.7,93.4c-0.5,0.5-1.2,0.8-2,0.8s-1.4-0.3-2-0.8l-7.2-7.2c-0.5-0.5-0.8-1.2-0.8-2
						c0-0.8,0.3-1.4,0.8-2l23-23l-23-23c-0.5-0.5-0.8-1.2-0.8-2c0-0.8,0.3-1.4,0.8-2l7.2-7.2c0.5-0.5,1.2-0.8,2-0.8s1.4,0.3,2,0.8
						l32.2,32.2c0.5,0.5,0.8,1.2,0.8,2S85.5,60.7,84.9,61.2z"/>
				</g>
			</g>
		</g>
	</g>
</g>
</svg>
