<?xml version="1.0" encoding="utf-8"?>
<!-- Generator: Adobe Illustrator 20.1.0, SVG Export Plug-In . SVG Version: 6.00 Build 0)  -->
<svg version="1.1" id="Layer_1" xmlns="http://www.w3.org/2000/svg" xmlns:xlink="http://www.w3.org/1999/xlink" x="0px" y="0px"
	 viewBox="0 0 366.7 28.3" style="enable-background:new 0 0 366.7 28.3;" xml:space="preserve">
<style type="text/css">
	.st0{fill:#F47923;}
</style>
<g>
	<g>
		<path class="st0" d="M17.5,14.2c0.4,0.6,0.7,1.2,0.7,2.1c0,1-0.3,1.9-0.8,2.6c-0.5,0.7-1.3,1.3-2.3,1.7c-1,0.4-2.1,0.6-3.5,0.6
			H4.6L7.7,6h6.8c1.4,0,2.6,0.3,3.4,0.8C18.6,7.4,19,8.2,19,9.2c0,1-0.3,1.8-0.9,2.5c-0.6,0.7-1.5,1.2-2.5,1.5
			C16.4,13.3,17,13.7,17.5,14.2z M14.2,18.1c0.6-0.4,0.9-1,0.9-1.7c0-0.5-0.2-0.9-0.7-1.2c-0.5-0.3-1.1-0.4-1.9-0.4H8.9l-0.8,4h3.7
			C12.8,18.7,13.6,18.5,14.2,18.1z M15.1,11.6c0.5-0.4,0.8-0.9,0.8-1.6c0-0.5-0.2-0.8-0.5-1.1c-0.4-0.3-0.9-0.4-1.5-0.4h-3.7
			l-0.7,3.7h3.7C13.9,12.2,14.6,12,15.1,11.6z"/>
		<path class="st0" d="M25.1,9.6l-2.3,11.6H20l2.3-11.6H25.1z M25.6,5C25.9,5.2,26,5.6,26,6c0,0.6-0.2,1-0.6,1.4C25,7.8,24.5,8,24,8
			c-0.4,0-0.7-0.1-1-0.4c-0.2-0.3-0.4-0.6-0.4-1c0-0.6,0.2-1,0.6-1.4c0.4-0.4,0.8-0.6,1.4-0.6C25.1,4.6,25.4,4.7,25.6,5z"/>
		<path class="st0" d="M32.8,7.8c-0.4,0.3-0.6,0.7-0.7,1.2l-0.2,1.1h2.9l-0.4,2.1h-2.9l-1.8,9.1h-2.8l1.8-9.1h-1.5l0.4-2.1h1.5
			l0.2-1.2c0.3-1.3,0.8-2.2,1.7-2.9c0.9-0.7,1.9-1,3-1c0.8,0,1.5,0.2,2.2,0.5l-0.8,2.2c-0.2-0.1-0.4-0.2-0.7-0.2
			c-0.3-0.1-0.5-0.1-0.6-0.1C33.6,7.4,33.2,7.5,32.8,7.8z M39.1,9.6l-2.3,11.6H34l2.3-11.6H39.1z M39.6,5C39.9,5.2,40,5.6,40,6
			c0,0.6-0.2,1-0.6,1.4C39,7.8,38.6,8,38,8c-0.4,0-0.7-0.1-1-0.4c-0.2-0.3-0.4-0.6-0.4-1c0-0.6,0.2-1,0.6-1.4
			c0.4-0.4,0.8-0.6,1.4-0.6C39.1,4.6,39.4,4.7,39.6,5z"/>
		<path class="st0" d="M42.7,20.7c-0.7-0.4-1.3-1-1.7-1.8c-0.4-0.8-0.6-1.7-0.6-2.7c0-1.2,0.3-2.4,0.8-3.4c0.6-1,1.3-1.8,2.3-2.4
			c1-0.6,2-0.9,3.2-0.9c1,0,1.8,0.2,2.5,0.6c0.7,0.4,1.2,1,1.5,1.8L52,5.1h2.8l-3.2,16.2h-2.8l0.3-1.6c-0.5,0.6-1.1,1-1.8,1.3
			c-0.7,0.3-1.4,0.4-2.2,0.4C44.2,21.4,43.4,21.1,42.7,20.7z M48.1,18.5c0.6-0.4,1-0.9,1.4-1.5c0.3-0.6,0.5-1.3,0.5-2
			c0-0.9-0.3-1.7-0.8-2.2C48.7,12.2,48,12,47.1,12c-0.7,0-1.3,0.2-1.9,0.5c-0.6,0.4-1,0.9-1.4,1.5c-0.3,0.6-0.5,1.3-0.5,2
			c0,0.9,0.3,1.6,0.8,2.2c0.5,0.6,1.2,0.8,2.1,0.8C46.9,19,47.5,18.8,48.1,18.5z"/>
		<path class="st0" d="M65.1,10.2c0.8,0.4,1.5,1.1,2,1.9c0.5,0.8,0.7,1.7,0.7,2.8c0,1.3-0.3,2.4-0.9,3.4c-0.6,1-1.4,1.8-2.4,2.3
			c-1,0.6-2.2,0.8-3.5,0.8c-1.1,0-2.1-0.2-2.9-0.7c-0.8-0.4-1.5-1.1-2-1.9C55.6,18,55.4,17,55.4,16c0-1.3,0.3-2.4,0.9-3.4
			c0.6-1,1.4-1.7,2.4-2.3c1-0.6,2.2-0.8,3.5-0.8C63.3,9.5,64.2,9.7,65.1,10.2z M60,12.4c-0.6,0.3-1,0.8-1.3,1.4
			c-0.3,0.6-0.5,1.3-0.5,2c0,0.9,0.3,1.7,0.8,2.3c0.5,0.6,1.2,0.9,2.1,0.9c0.7,0,1.3-0.2,1.9-0.5c0.6-0.3,1-0.8,1.3-1.4
			c0.3-0.6,0.5-1.3,0.5-2c0-0.9-0.3-1.7-0.8-2.3c-0.5-0.6-1.2-0.9-2.1-0.9C61.2,11.9,60.6,12.1,60,12.4z"/>
		<path class="st0" d="M80.4,10.1c0.7,0.4,1.3,1,1.7,1.8c0.4,0.8,0.6,1.7,0.6,2.7c0,1.2-0.3,2.4-0.8,3.4c-0.6,1-1.3,1.8-2.3,2.4
			c-1,0.6-2,0.9-3.2,0.9c-1,0-1.8-0.2-2.5-0.6c-0.7-0.4-1.2-1-1.5-1.8L72,21.2h-2.8l3.2-16.2h2.8L74,11.2c0.5-0.6,1.1-1,1.8-1.3
			c0.7-0.3,1.4-0.4,2.2-0.4C78.9,9.5,79.7,9.7,80.4,10.1z M75,12.4c-0.6,0.4-1,0.9-1.4,1.5c-0.3,0.6-0.5,1.3-0.5,2
			c0,0.9,0.3,1.7,0.8,2.2c0.5,0.6,1.2,0.8,2.1,0.8c0.7,0,1.3-0.2,1.9-0.5c0.6-0.4,1.1-0.9,1.4-1.5c0.3-0.6,0.5-1.3,0.5-2
			c0-0.9-0.3-1.6-0.8-2.2c-0.5-0.6-1.2-0.8-2.1-0.8C76.2,11.8,75.6,12,75,12.4z"/>
		<path class="st0" d="M86.4,20.7c-0.7-0.4-1.3-1-1.7-1.8c-0.4-0.8-0.6-1.7-0.6-2.7c0-1.2,0.3-2.4,0.8-3.4c0.6-1,1.3-1.8,2.3-2.4
			c1-0.6,2-0.9,3.2-0.9c1,0,1.8,0.2,2.5,0.6c0.7,0.4,1.2,1,1.5,1.8l0.5-2.3h2.8l-2.3,11.6h-2.8l0.3-1.6c-0.5,0.6-1.1,1-1.8,1.3
			c-0.7,0.3-1.4,0.4-2.2,0.4C87.9,21.4,87.1,21.1,86.4,20.7z M91.8,18.5c0.6-0.4,1-0.9,1.4-1.5s0.5-1.3,0.5-2c0-0.9-0.3-1.7-0.8-2.2
			c-0.5-0.6-1.2-0.8-2.1-0.8c-0.7,0-1.3,0.2-1.9,0.5c-0.6,0.4-1,0.9-1.4,1.5c-0.3,0.6-0.5,1.3-0.5,2c0,0.9,0.3,1.6,0.8,2.2
			c0.5,0.6,1.2,0.8,2.1,0.8C90.6,19,91.2,18.8,91.8,18.5z"/>
		<path class="st0" d="M101.5,20.7c-0.8-0.4-1.4-1.1-1.9-1.9C99.2,18,99,17.1,99,16c0-1.3,0.3-2.4,0.8-3.4c0.6-1,1.3-1.8,2.3-2.3
			c1-0.6,2.1-0.8,3.3-0.8c1.1,0,2,0.2,2.8,0.6c0.8,0.4,1.4,0.9,1.9,1.6l-1.9,1.6c-0.7-0.9-1.7-1.3-2.9-1.3c-0.7,0-1.3,0.2-1.8,0.5
			c-0.5,0.3-1,0.8-1.3,1.4c-0.3,0.6-0.5,1.2-0.5,2c0,0.9,0.3,1.7,0.8,2.2c0.5,0.6,1.2,0.8,2.1,0.8c1.4,0,2.5-0.5,3.3-1.4l1.6,1.5
			c-0.6,0.8-1.3,1.3-2.2,1.7c-0.9,0.4-1.9,0.6-3,0.6C103.2,21.3,102.3,21.1,101.5,20.7z"/>
		<path class="st0" d="M115.5,17.5c0,0.2-0.1,0.4-0.1,0.6c0,0.3,0.1,0.5,0.2,0.6c0.1,0.1,0.4,0.2,0.6,0.2c0.4,0,1.1-0.2,1.8-0.5
			l0.4,2.2c-1,0.5-2,0.8-3,0.8c-0.9,0-1.6-0.2-2.1-0.7c-0.5-0.5-0.8-1.1-0.8-2c0-0.3,0-0.6,0.1-0.9l1.1-5.6h-1.6l0.4-2.1h1.6
			l0.6-3.2h2.8l-0.7,3.2h3.3l-0.4,2.1h-3.4L115.5,17.5z"/>
		<path class="st0" d="M131.1,10.9c0.9,0.9,1.4,2.1,1.4,3.7c0,0.6-0.1,1.2-0.2,1.9h-8.8c0.1,0.8,0.4,1.5,0.9,2
			c0.6,0.5,1.3,0.7,2.2,0.7c1.1,0,2.1-0.3,3-1l1.3,1.7c-1.2,1.1-2.7,1.6-4.5,1.6c-1.2,0-2.2-0.2-3.1-0.7c-0.9-0.4-1.6-1.1-2.1-1.9
			c-0.5-0.8-0.7-1.7-0.7-2.8c0-1.2,0.3-2.3,0.9-3.3c0.6-1,1.4-1.8,2.4-2.4c1-0.6,2.1-0.9,3.4-0.9C128.9,9.5,130.1,9.9,131.1,10.9z
			 M129.3,12.5c-0.5-0.5-1.1-0.7-2-0.7c-0.8,0-1.6,0.3-2.3,0.8c-0.7,0.5-1.1,1.2-1.4,2h6.2C129.9,13.6,129.7,13,129.3,12.5z"/>
		<path class="st0" d="M140.4,10.1c0.7-0.4,1.5-0.6,2.4-0.6l-0.3,2.7l-0.4,0c-1.1,0-2,0.3-2.8,0.9c-0.8,0.6-1.3,1.4-1.6,2.4
			l-1.2,5.7h-2.8L136,9.6h2.9l-0.4,2.1C139,11,139.6,10.4,140.4,10.1z"/>
		<path class="st0" d="M147.7,9.6l-2.3,11.6h-2.8l2.3-11.6H147.7z M148.2,5c0.2,0.3,0.4,0.6,0.4,1c0,0.6-0.2,1-0.6,1.4
			c-0.4,0.4-0.8,0.6-1.4,0.6c-0.4,0-0.7-0.1-1-0.4c-0.2-0.3-0.4-0.6-0.4-1c0-0.6,0.2-1,0.6-1.4c0.4-0.4,0.8-0.6,1.4-0.6
			C147.7,4.6,148,4.7,148.2,5z"/>
		<path class="st0" d="M150.5,20.4c-0.7-0.7-1.1-1.6-1.1-2.7c0-0.4,0-0.8,0.1-1.2l1.4-6.9h2.9l-1.3,6.4c0,0.2-0.1,0.5-0.1,0.7
			c0,0.7,0.2,1.2,0.6,1.5c0.4,0.4,1,0.6,1.7,0.6c0.8,0,1.6-0.3,2.2-0.8c0.6-0.6,1-1.3,1.2-2.2l1.3-6.2h2.8l-2.3,11.6h-2.9l0.3-1.7
			c-0.9,1.2-2.2,1.8-3.8,1.8C152.3,21.4,151.3,21,150.5,20.4z"/>
		<path class="st0" d="M183.7,10.4c0.8,0.7,1.1,1.6,1.1,2.8c0,0.4,0,0.8-0.1,1.2l-1.4,6.9h-2.9l1.3-6.4c0-0.2,0.1-0.5,0.1-0.7
			c0-0.7-0.2-1.2-0.6-1.5c-0.4-0.4-1-0.6-1.7-0.6c-0.8,0-1.6,0.3-2.2,0.8c-0.6,0.6-1,1.3-1.2,2.2l-1.2,6.2H172l1.3-6.4
			c0-0.2,0.1-0.5,0.1-0.7c0-0.7-0.2-1.2-0.6-1.5c-0.4-0.4-1-0.6-1.7-0.6c-0.8,0-1.6,0.3-2.2,0.8c-0.6,0.6-1,1.3-1.2,2.2l-1.3,6.2
			h-2.8l2.3-11.6h2.9l-0.3,1.7c0.9-1.2,2.2-1.8,3.8-1.8c1.1,0,1.9,0.2,2.6,0.7c0.7,0.5,1.2,1.1,1.4,1.9c1.1-1.7,2.6-2.6,4.4-2.6
			C181.9,9.4,182.9,9.8,183.7,10.4z"/>
		<path class="st0" d="M198,5.1l-3.2,16.2h-2.8l3.2-16.2H198z"/>
		<path class="st0" d="M208.2,10.2c0.8,0.4,1.5,1.1,2,1.9c0.5,0.8,0.7,1.7,0.7,2.8c0,1.3-0.3,2.4-0.9,3.4c-0.6,1-1.4,1.8-2.4,2.3
			c-1,0.6-2.2,0.8-3.5,0.8c-1.1,0-2.1-0.2-2.9-0.7c-0.8-0.4-1.5-1.1-2-1.9c-0.5-0.8-0.7-1.7-0.7-2.8c0-1.3,0.3-2.4,0.9-3.4
			c0.6-1,1.4-1.7,2.4-2.3c1-0.6,2.2-0.8,3.5-0.8C206.4,9.5,207.4,9.7,208.2,10.2z M203.2,12.4c-0.6,0.3-1,0.8-1.3,1.4
			c-0.3,0.6-0.5,1.3-0.5,2c0,0.9,0.3,1.7,0.8,2.3c0.5,0.6,1.2,0.9,2.1,0.9c0.7,0,1.3-0.2,1.9-0.5s1-0.8,1.3-1.4
			c0.3-0.6,0.5-1.3,0.5-2c0-0.9-0.3-1.7-0.8-2.3c-0.5-0.6-1.2-0.9-2.1-0.9C204.4,11.9,203.7,12.1,203.2,12.4z"/>
		<path class="st0" d="M223.9,10.4c0.7,0.7,1.1,1.6,1.1,2.7c0,0.4,0,0.8-0.1,1.2l-1.4,6.9h-2.9l1.3-6.4c0-0.2,0.1-0.5,0.1-0.7
			c0-0.7-0.2-1.2-0.6-1.5c-0.4-0.4-1-0.6-1.7-0.6c-0.8,0-1.6,0.3-2.2,0.8c-0.6,0.6-1,1.3-1.2,2.2l-1.3,6.2h-2.8l2.3-11.6h2.9
			l-0.3,1.7c0.9-1.2,2.2-1.8,3.8-1.8C222.2,9.4,223.2,9.8,223.9,10.4z"/>
		<path class="st0" d="M225.9,23.9l1.3-1.9c1,0.8,2.2,1.2,3.5,1.2c1.1,0,2-0.2,2.7-0.7c0.7-0.5,1.1-1.1,1.3-2l0.4-1.5
			c-0.5,0.5-1.1,0.9-1.7,1.2c-0.6,0.3-1.3,0.4-2,0.4c-0.9,0-1.6-0.2-2.3-0.6c-0.7-0.4-1.2-1-1.6-1.7c-0.4-0.7-0.6-1.6-0.6-2.5
			c0-1.2,0.3-2.2,0.8-3.2c0.5-1,1.2-1.7,2.1-2.3c0.9-0.6,1.9-0.8,3-0.8c0.9,0,1.7,0.2,2.3,0.6c0.6,0.4,1.1,0.9,1.4,1.6l0.5-2.1h2.8
			l-2.3,11.2c-0.3,1.5-1,2.7-2.2,3.5c-1.1,0.8-2.6,1.2-4.5,1.2C229.1,25.6,227.5,25,225.9,23.9z M234.1,17.8c0.5-0.3,1-0.8,1.3-1.3
			c0.3-0.6,0.5-1.2,0.5-1.8c0-0.8-0.2-1.5-0.7-2c-0.5-0.5-1.1-0.8-1.9-0.8c-0.6,0-1.2,0.2-1.7,0.5c-0.5,0.3-1,0.8-1.3,1.3
			c-0.3,0.6-0.5,1.2-0.5,1.8c0,0.8,0.2,1.5,0.7,1.9c0.5,0.5,1.1,0.7,1.9,0.7C233,18.3,233.6,18.1,234.1,17.8z"/>
		<path class="st0" d="M242.4,20.4c-0.7-0.7-1.1-1.6-1.1-2.7c0-0.4,0-0.8,0.1-1.2l1.4-6.9h2.9l-1.3,6.4c0,0.2-0.1,0.5-0.1,0.7
			c0,0.7,0.2,1.2,0.6,1.5c0.4,0.4,1,0.6,1.7,0.6c0.8,0,1.6-0.3,2.2-0.8c0.6-0.6,1-1.3,1.2-2.2l1.3-6.2h2.8l-2.3,11.6h-2.9l0.3-1.7
			c-0.9,1.2-2.2,1.8-3.8,1.8C244.2,21.4,243.1,21,242.4,20.4z"/>
		<path class="st0" d="M275.5,10.4c0.8,0.7,1.1,1.6,1.1,2.8c0,0.4,0,0.8-0.1,1.2l-1.4,6.9h-2.9l1.3-6.4c0-0.2,0.1-0.5,0.1-0.7
			c0-0.7-0.2-1.2-0.6-1.5c-0.4-0.4-1-0.6-1.7-0.6c-0.8,0-1.6,0.3-2.2,0.8c-0.6,0.6-1,1.3-1.2,2.2l-1.2,6.2h-2.9l1.3-6.4
			c0-0.2,0.1-0.5,0.1-0.7c0-0.7-0.2-1.2-0.6-1.5c-0.4-0.4-1-0.6-1.7-0.6c-0.8,0-1.6,0.3-2.2,0.8c-0.6,0.6-1,1.3-1.2,2.2l-1.3,6.2
			h-2.8l2.3-11.6h2.9l-0.3,1.7c0.9-1.2,2.2-1.8,3.8-1.8c1.1,0,1.9,0.2,2.6,0.7c0.7,0.5,1.2,1.1,1.4,1.9c1.1-1.7,2.6-2.6,4.4-2.6
			C273.7,9.4,274.8,9.8,275.5,10.4z"/>
		<path class="st0" d="M296.6,14.2c0.4,0.6,0.7,1.2,0.7,2.1c0,1-0.3,1.9-0.8,2.6c-0.5,0.7-1.3,1.3-2.3,1.7c-1,0.4-2.1,0.6-3.5,0.6
			h-6.9l3-15.2h6.8c1.4,0,2.6,0.3,3.4,0.8c0.8,0.6,1.2,1.3,1.2,2.4c0,1-0.3,1.8-0.9,2.5c-0.6,0.7-1.5,1.2-2.5,1.5
			C295.6,13.3,296.2,13.7,296.6,14.2z M293.4,18.1c0.6-0.4,0.9-1,0.9-1.7c0-0.5-0.2-0.9-0.7-1.2c-0.5-0.3-1.1-0.4-1.9-0.4H288
			l-0.8,4h3.7C292,18.7,292.8,18.5,293.4,18.1z M294.3,11.6c0.5-0.4,0.8-0.9,0.8-1.6c0-0.5-0.2-0.8-0.5-1.1
			c-0.4-0.3-0.9-0.4-1.5-0.4h-3.7l-0.7,3.7h3.7C293.1,12.2,293.8,12,294.3,11.6z"/>
		<path class="st0" d="M312.1,14.2c0.4,0.6,0.7,1.2,0.7,2.1c0,1-0.3,1.9-0.8,2.6c-0.5,0.7-1.3,1.3-2.3,1.7c-1,0.4-2.1,0.6-3.5,0.6
			h-6.9l3-15.2h6.8c1.4,0,2.6,0.3,3.4,0.8c0.8,0.6,1.2,1.3,1.2,2.4c0,1-0.3,1.8-0.9,2.5c-0.6,0.7-1.5,1.2-2.5,1.5
			C311,13.3,311.6,13.7,312.1,14.2z M308.9,18.1c0.6-0.4,0.9-1,0.9-1.7c0-0.5-0.2-0.9-0.7-1.2c-0.5-0.3-1.1-0.4-1.9-0.4h-3.7l-0.8,4
			h3.7C307.4,18.7,308.2,18.5,308.9,18.1z M309.7,11.6c0.5-0.4,0.8-0.9,0.8-1.6c0-0.5-0.2-0.8-0.5-1.1c-0.4-0.3-0.9-0.4-1.5-0.4
			h-3.7l-0.7,3.7h3.7C308.5,12.2,309.2,12,309.7,11.6z"/>
		<path class="st0" d="M320.5,8.5l-0.6,3h2c1.5,0,2.7,0.4,3.6,1.1c0.9,0.7,1.3,1.7,1.3,2.8c0,1.1-0.3,2.1-0.9,3
			c-0.6,0.9-1.4,1.6-2.5,2.1c-1.1,0.5-2.3,0.8-3.6,0.8c-1,0-1.9-0.2-2.9-0.5c-1-0.3-1.8-0.8-2.5-1.3l1.6-2.3
			c0.5,0.5,1.1,0.9,1.8,1.2c0.7,0.3,1.4,0.4,2.1,0.4c1.1,0,2-0.3,2.7-0.8c0.7-0.5,1-1.2,1-2.1c0-0.6-0.2-1.1-0.7-1.4
			c-0.5-0.3-1.2-0.5-2.2-0.5c-0.5,0-1.2,0-2.1,0.1c-0.9,0-1.5,0.1-2,0.1l1.6-8.2h9.8l-0.5,2.5H320.5z"/>
		<path class="st0" d="M341.5,7.8l-5.5,4.5l0.8,0.1c1.2,0.1,2.2,0.5,2.9,1.1c0.7,0.6,1,1.4,1,2.4c0,1-0.3,2-0.9,2.8
			c-0.6,0.8-1.4,1.5-2.5,2c-1.1,0.5-2.3,0.7-3.7,0.7c-1,0-2-0.2-3-0.5c-1-0.3-1.7-0.7-2.3-1.3l1.6-2.3c0.5,0.5,1.1,0.9,1.8,1.2
			c0.7,0.3,1.4,0.4,2.2,0.4c1.2,0,2.2-0.3,2.9-0.8c0.7-0.5,1.1-1.2,1.1-2c0-0.6-0.3-1.1-0.8-1.4c-0.5-0.3-1.3-0.5-2.2-0.5h-2.3
			l0.3-1.8l4.9-4h-6.4l0.4-2.5h10.2L341.5,7.8z"/>
		<path class="st0" d="M344.9,19.9c-0.9-1-1.3-2.4-1.3-4.2c0-1.9,0.4-3.5,1.1-5c0.7-1.5,1.7-2.7,3-3.5c1.3-0.9,2.7-1.3,4.3-1.3
			c0.8,0,1.6,0.1,2.4,0.3c0.8,0.2,1.5,0.5,2,0.9l-1.5,2.2c-0.4-0.3-0.9-0.5-1.4-0.7c-0.6-0.2-1.1-0.3-1.7-0.3
			c-1.4,0-2.5,0.5-3.4,1.4c-0.9,0.9-1.4,2.2-1.7,3.7c0.5-0.7,1.2-1.2,1.9-1.5c0.7-0.3,1.6-0.5,2.5-0.5c1.3,0,2.3,0.4,3,1.1
			c0.7,0.7,1.1,1.7,1.1,2.8c0,1.2-0.3,2.3-0.8,3.2c-0.6,0.9-1.3,1.7-2.3,2.2c-1,0.5-2.1,0.8-3.4,0.8
			C347.1,21.4,345.8,20.9,344.9,19.9z M351.5,18c0.7-0.6,1-1.4,1-2.4c0-0.7-0.2-1.2-0.6-1.5c-0.4-0.4-1-0.6-1.7-0.6
			c-0.7,0-1.3,0.2-1.9,0.5c-0.6,0.3-1,0.7-1.3,1.2c-0.3,0.5-0.5,1-0.5,1.6c0,0.6,0.2,1.1,0.6,1.5c0.4,0.4,1,0.6,1.8,0.6
			C350,18.9,350.8,18.6,351.5,18z"/>
		<path class="st0" d="M360.4,7.6h2.7v7.5h-1V8.6h-1.7V7.6z"/>
	</g>
</g>
</svg>
