<?xml version="1.0" encoding="utf-8"?>
<!-- Generator: Adobe Illustrator 20.1.0, SVG Export Plug-In . SVG Version: 6.00 Build 0)  -->
<svg version="1.1" id="Layer_1" xmlns="http://www.w3.org/2000/svg" xmlns:xlink="http://www.w3.org/1999/xlink" x="0px" y="0px"
	 viewBox="0 0 479.7 75.7" style="enable-background:new 0 0 479.7 75.7;" xml:space="preserve">
<style type="text/css">
	.st0{fill:#6D6E71;}
</style>
<g>
	<g>
		<path class="st0" d="M23.8,4.8h1.3v8.4h4.2v1.2h-5.5V4.8z"/>
		<path class="st0" d="M35.4,14.4v-1c-0.5,0.7-1.4,1.1-2.5,1.1c-0.5,0-0.9-0.1-1.3-0.3c-0.4-0.2-0.7-0.5-0.9-0.8
			c-0.2-0.3-0.3-0.7-0.3-1.1c0-0.7,0.2-1.2,0.7-1.5c0.5-0.4,1.2-0.6,2-0.6h2.3V9.8c0-0.5-0.2-0.9-0.5-1.2c-0.3-0.3-0.8-0.4-1.4-0.4
			c-0.7,0-1.5,0.3-2.2,0.8l-0.5-0.9c0.5-0.3,1-0.6,1.5-0.7c0.4-0.2,1-0.2,1.6-0.2c0.9,0,1.6,0.2,2.1,0.7c0.5,0.4,0.7,1.1,0.8,1.9
			l0,4.8H35.4z M34.6,13c0.4-0.3,0.7-0.7,0.7-1.1v-0.7h-2.1c-0.6,0-1,0.1-1.3,0.3c-0.3,0.2-0.4,0.4-0.4,0.8c0,0.4,0.1,0.7,0.4,0.9
			c0.3,0.2,0.7,0.3,1.1,0.3C33.7,13.4,34.2,13.3,34.6,13z"/>
		<path class="st0" d="M48,8.1c0.6,0.7,0.9,1.6,0.9,2.8c0,0.2,0,0.3,0,0.4h-5.7c0.1,0.7,0.4,1.2,0.8,1.6c0.4,0.4,1,0.6,1.6,0.6
			c0.4,0,0.8-0.1,1.2-0.2c0.4-0.2,0.7-0.4,1-0.7l0.7,0.7c-0.4,0.4-0.8,0.7-1.3,0.9c-0.5,0.2-1.1,0.3-1.7,0.3c-0.7,0-1.3-0.2-1.9-0.5
			c-0.6-0.3-1-0.7-1.3-1.3c-0.3-0.6-0.5-1.2-0.5-1.9c0-0.7,0.2-1.3,0.5-1.9c0.3-0.6,0.7-1,1.3-1.3c0.5-0.3,1.2-0.5,1.9-0.5
			C46.6,7.1,47.4,7.4,48,8.1z M47.7,10.3c0-0.7-0.3-1.2-0.7-1.6c-0.4-0.4-0.9-0.6-1.6-0.6c-0.6,0-1.2,0.2-1.6,0.6
			c-0.4,0.4-0.7,0.9-0.8,1.6H47.7z"/>
		<path class="st0" d="M56.6,7.8c0.5,0.5,0.7,1.2,0.7,2.1v4.5h-1.3v-4.2c0-0.6-0.2-1.1-0.5-1.4c-0.3-0.3-0.8-0.5-1.4-0.5
			c-0.7,0-1.2,0.2-1.6,0.6c-0.4,0.4-0.6,0.9-0.7,1.6v3.9h-1.3V7.1h1.3v1.5c0.5-1,1.4-1.6,2.8-1.6C55.5,7.1,56.2,7.3,56.6,7.8z"/>
		<path class="st0" d="M62.7,8.2c-0.5,0-0.9,0.1-1.3,0.3c-0.4,0.2-0.7,0.5-0.9,0.9c-0.2,0.4-0.3,0.8-0.3,1.3c0,0.5,0.1,0.9,0.3,1.3
			c0.2,0.4,0.5,0.7,0.9,0.9c0.4,0.2,0.8,0.3,1.2,0.3c0.5,0,0.9-0.1,1.3-0.2c0.4-0.2,0.7-0.4,0.9-0.7l0.7,0.7
			c-0.3,0.4-0.8,0.7-1.3,0.9c-0.5,0.2-1.1,0.3-1.7,0.3c-0.7,0-1.3-0.2-1.9-0.5c-0.5-0.3-1-0.7-1.3-1.3c-0.3-0.6-0.5-1.2-0.5-1.9
			c0-0.7,0.2-1.4,0.5-1.9c0.3-0.6,0.7-1,1.3-1.3c0.5-0.3,1.2-0.5,1.9-0.5c0.6,0,1.2,0.1,1.7,0.3c0.5,0.2,0.9,0.5,1.2,0.8l-0.7,0.9
			C64.2,8.5,63.5,8.2,62.7,8.2z"/>
		<path class="st0" d="M71.5,14.4v-1c-0.5,0.7-1.4,1.1-2.5,1.1c-0.5,0-0.9-0.1-1.3-0.3c-0.4-0.2-0.7-0.5-0.9-0.8
			c-0.2-0.3-0.3-0.7-0.3-1.1c0-0.7,0.2-1.2,0.7-1.5c0.5-0.4,1.2-0.6,2-0.6h2.3V9.8c0-0.5-0.2-0.9-0.5-1.2c-0.3-0.3-0.8-0.4-1.4-0.4
			c-0.7,0-1.5,0.3-2.2,0.8l-0.5-0.9c0.5-0.3,1-0.6,1.5-0.7c0.4-0.2,1-0.2,1.6-0.2c0.9,0,1.6,0.2,2.1,0.7c0.5,0.4,0.7,1.1,0.8,1.9
			l0,4.8H71.5z M70.7,13c0.4-0.3,0.7-0.7,0.7-1.1v-0.7h-2.1c-0.6,0-1,0.1-1.3,0.3c-0.3,0.2-0.4,0.4-0.4,0.8c0,0.4,0.1,0.7,0.4,0.9
			c0.3,0.2,0.7,0.3,1.1,0.3C69.8,13.4,70.3,13.3,70.7,13z"/>
		<path class="st0" d="M80.9,7.6c0.5,0.3,0.9,0.7,1.2,1.3c0.3,0.6,0.4,1.2,0.4,1.9c0,0.7-0.1,1.3-0.4,1.9c-0.3,0.6-0.7,1-1.2,1.3
			c-0.5,0.3-1.1,0.5-1.8,0.5c-0.6,0-1.2-0.1-1.6-0.4c-0.5-0.3-0.8-0.6-1.1-1.1v4.1h-1.3V7.1h1.3v1.4c0.3-0.5,0.6-0.8,1.1-1.1
			c0.5-0.3,1-0.4,1.6-0.4C79.7,7.1,80.3,7.2,80.9,7.6z M80.1,13c0.4-0.2,0.7-0.5,0.9-0.9c0.2-0.4,0.3-0.8,0.3-1.3
			c0-0.5-0.1-0.9-0.3-1.3c-0.2-0.4-0.5-0.7-0.9-0.9c-0.4-0.2-0.8-0.3-1.3-0.3c-0.5,0-0.9,0.1-1.3,0.3c-0.4,0.2-0.7,0.5-0.9,0.9
			c-0.2,0.4-0.3,0.8-0.3,1.3c0,0.5,0.1,1,0.3,1.3c0.2,0.4,0.5,0.7,0.9,0.9c0.4,0.2,0.8,0.3,1.3,0.3C79.3,13.3,79.7,13.2,80.1,13z"/>
		<path class="st0" d="M87.3,8.3c-0.4-0.1-0.7-0.2-1-0.2c-0.4,0-0.7,0.1-0.9,0.2C85.1,8.5,85,8.7,85,9c0,0.3,0.1,0.5,0.4,0.7
			c0.3,0.2,0.7,0.3,1.2,0.5c0.5,0.1,0.9,0.3,1.2,0.4c0.3,0.1,0.6,0.4,0.8,0.6c0.2,0.3,0.3,0.7,0.3,1.1c0,0.7-0.3,1.2-0.8,1.6
			c-0.5,0.4-1.2,0.5-1.9,0.5c-0.5,0-1.1-0.1-1.6-0.3c-0.5-0.2-0.9-0.4-1.3-0.7l0.5-0.9c0.3,0.3,0.7,0.5,1.1,0.7
			c0.4,0.2,0.9,0.2,1.3,0.2c0.4,0,0.8-0.1,1-0.2c0.3-0.2,0.4-0.4,0.4-0.7c0-0.3-0.1-0.6-0.4-0.7s-0.7-0.3-1.2-0.5
			c-0.5-0.1-0.9-0.3-1.2-0.4c-0.3-0.1-0.6-0.4-0.8-0.6c-0.2-0.3-0.3-0.6-0.3-1.1c0-0.7,0.2-1.2,0.7-1.5c0.5-0.3,1.1-0.5,1.9-0.5
			c0.4,0,0.9,0.1,1.3,0.2c0.4,0.1,0.8,0.3,1.1,0.5l-0.5,1C88,8.6,87.7,8.4,87.3,8.3z"/>
		<path class="st0" d="M97.1,7.1v7.3h-1.3v-1.5c-0.5,1-1.4,1.6-2.7,1.6c-0.8,0-1.5-0.2-2-0.7c-0.5-0.5-0.7-1.2-0.7-2.1V7.1h1.3v4.2
			c0,0.6,0.2,1.1,0.5,1.4c0.3,0.3,0.8,0.5,1.4,0.5c0.7,0,1.2-0.2,1.6-0.7c0.4-0.5,0.6-1.1,0.6-1.8V7.1H97.1z"/>
		<path class="st0" d="M99.6,4.2h1.3v10.2h-1.3V4.2z"/>
		<path class="st0" d="M107.9,14.4v-1c-0.5,0.7-1.4,1.1-2.5,1.1c-0.5,0-0.9-0.1-1.3-0.3c-0.4-0.2-0.7-0.5-0.9-0.8
			c-0.2-0.3-0.3-0.7-0.3-1.1c0-0.7,0.2-1.2,0.7-1.5c0.5-0.4,1.2-0.6,2-0.6h2.3V9.8c0-0.5-0.2-0.9-0.5-1.2c-0.3-0.3-0.8-0.4-1.4-0.4
			c-0.7,0-1.5,0.3-2.2,0.8l-0.5-0.9c0.5-0.3,1-0.6,1.5-0.7c0.4-0.2,1-0.2,1.6-0.2c0.9,0,1.6,0.2,2.1,0.7c0.5,0.4,0.7,1.1,0.8,1.9
			l0,4.8H107.9z M107.2,13c0.4-0.3,0.7-0.7,0.7-1.1v-0.7h-2.1c-0.6,0-1,0.1-1.3,0.3c-0.3,0.2-0.4,0.4-0.4,0.8c0,0.4,0.1,0.7,0.4,0.9
			c0.3,0.2,0.7,0.3,1.1,0.3C106.3,13.4,106.8,13.3,107.2,13z"/>
		<path class="st0" d="M114.5,8.2c-0.5,0-0.9,0.1-1.3,0.3c-0.4,0.2-0.7,0.5-0.9,0.9c-0.2,0.4-0.3,0.8-0.3,1.3c0,0.5,0.1,0.9,0.3,1.3
			c0.2,0.4,0.5,0.7,0.9,0.9c0.4,0.2,0.8,0.3,1.2,0.3c0.5,0,0.9-0.1,1.3-0.2c0.4-0.2,0.7-0.4,0.9-0.7l0.7,0.7
			c-0.3,0.4-0.8,0.7-1.3,0.9c-0.5,0.2-1.1,0.3-1.7,0.3c-0.7,0-1.3-0.2-1.9-0.5c-0.5-0.3-1-0.7-1.3-1.3c-0.3-0.6-0.5-1.2-0.5-1.9
			c0-0.7,0.2-1.4,0.5-1.9c0.3-0.6,0.7-1,1.3-1.3c0.5-0.3,1.2-0.5,1.9-0.5c0.6,0,1.2,0.1,1.7,0.3c0.5,0.2,0.9,0.5,1.2,0.8l-0.7,0.9
			C116,8.5,115.3,8.2,114.5,8.2z"/>
		<path class="st0" d="M120.4,4.5c0.2,0.2,0.2,0.4,0.2,0.6c0,0.2-0.1,0.4-0.2,0.6c-0.2,0.2-0.3,0.2-0.6,0.2c-0.2,0-0.4-0.1-0.6-0.2
			c-0.2-0.2-0.2-0.4-0.2-0.6c0-0.2,0.1-0.4,0.2-0.6c0.2-0.2,0.3-0.2,0.6-0.2C120.1,4.2,120.3,4.3,120.4,4.5z M119.2,7.1h1.3v7.3
			h-1.3V7.1z"/>
		<path class="st0" d="M127.9,7.6c0.6,0.3,1,0.7,1.3,1.3c0.3,0.6,0.5,1.2,0.5,1.9c0,0.7-0.2,1.4-0.5,1.9c-0.3,0.6-0.8,1-1.3,1.3
			s-1.2,0.5-1.9,0.5c-0.7,0-1.4-0.2-1.9-0.5c-0.6-0.3-1-0.7-1.3-1.3c-0.3-0.6-0.5-1.2-0.5-1.9c0-0.7,0.2-1.3,0.5-1.9
			c0.3-0.6,0.8-1,1.3-1.3c0.6-0.3,1.2-0.5,1.9-0.5C126.7,7.1,127.4,7.2,127.9,7.6z M124.7,8.5c-0.4,0.2-0.7,0.5-0.9,0.9
			c-0.2,0.4-0.3,0.8-0.3,1.3c0,0.5,0.1,1,0.3,1.3c0.2,0.4,0.5,0.7,0.9,0.9c0.4,0.2,0.8,0.3,1.3,0.3c0.5,0,0.9-0.1,1.3-0.3
			c0.4-0.2,0.7-0.5,0.9-0.9c0.2-0.4,0.3-0.8,0.3-1.3c0-0.5-0.1-0.9-0.3-1.3c-0.2-0.4-0.5-0.7-0.9-0.9c-0.4-0.2-0.8-0.3-1.3-0.3
			C125.5,8.2,125.1,8.3,124.7,8.5z M126.8,4.1l1.3,0.6L126.4,6l-1.1-0.1L126.8,4.1z"/>
		<path class="st0" d="M137.6,7.8c0.5,0.5,0.7,1.2,0.7,2.1v4.5H137v-4.2c0-0.6-0.2-1.1-0.5-1.4c-0.3-0.3-0.8-0.5-1.4-0.5
			c-0.7,0-1.2,0.2-1.6,0.6c-0.4,0.4-0.6,0.9-0.7,1.6v3.9h-1.3V7.1h1.3v1.5c0.5-1,1.4-1.6,2.8-1.6C136.4,7.1,137.1,7.3,137.6,7.8z"/>
		<path class="st0" d="M149.6,8.1c0.6,0.7,0.9,1.6,0.9,2.8c0,0.2,0,0.3,0,0.4h-5.7c0.1,0.7,0.4,1.2,0.8,1.6c0.4,0.4,1,0.6,1.6,0.6
			c0.4,0,0.8-0.1,1.2-0.2c0.4-0.2,0.7-0.4,1-0.7l0.7,0.7c-0.4,0.4-0.8,0.7-1.3,0.9c-0.5,0.2-1.1,0.3-1.7,0.3c-0.7,0-1.3-0.2-1.9-0.5
			c-0.6-0.3-1-0.7-1.3-1.3c-0.3-0.6-0.5-1.2-0.5-1.9c0-0.7,0.2-1.3,0.5-1.9c0.3-0.6,0.7-1,1.3-1.3c0.5-0.3,1.2-0.5,1.9-0.5
			C148.2,7.1,149.1,7.4,149.6,8.1z M149.4,10.3c0-0.7-0.3-1.2-0.7-1.6c-0.4-0.4-0.9-0.6-1.6-0.6c-0.6,0-1.2,0.2-1.6,0.6
			c-0.4,0.4-0.7,0.9-0.8,1.6H149.4z"/>
		<path class="st0" d="M158.3,7.8c0.5,0.5,0.7,1.2,0.7,2.1v4.5h-1.3v-4.2c0-0.6-0.2-1.1-0.5-1.4c-0.3-0.3-0.8-0.5-1.4-0.5
			c-0.7,0-1.2,0.2-1.6,0.6c-0.4,0.4-0.6,0.9-0.7,1.6v3.9h-1.3V7.1h1.3v1.5c0.5-1,1.4-1.6,2.8-1.6C157.2,7.1,157.8,7.3,158.3,7.8z"/>
		<path class="st0" d="M170.6,7.4c0.5,0.3,0.9,0.8,1.2,1.3c0.3,0.6,0.4,1.2,0.4,2c0,0.7-0.1,1.4-0.4,2c-0.3,0.6-0.7,1-1.2,1.3
			c-0.5,0.3-1.1,0.5-1.8,0.5c-0.5,0-1-0.1-1.4-0.3c-0.4-0.2-0.7-0.5-1-0.9v3.7h-2.1V7h2.1v1.1c0.3-0.4,0.6-0.7,1-0.9
			c0.4-0.2,0.8-0.3,1.3-0.3C169.5,6.9,170.1,7.1,170.6,7.4z M169.7,12.2c0.3-0.4,0.5-0.9,0.5-1.5c0-0.6-0.2-1.1-0.5-1.5
			c-0.3-0.4-0.8-0.6-1.3-0.6c-0.5,0-1,0.2-1.3,0.6c-0.3,0.4-0.5,0.9-0.5,1.5c0,0.6,0.2,1.1,0.5,1.5c0.3,0.4,0.8,0.6,1.3,0.6
			C168.9,12.7,169.3,12.5,169.7,12.2z"/>
		<path class="st0" d="M179.6,8c0.6,0.7,0.9,1.6,0.9,2.9c0,0.2,0,0.4,0,0.5h-5.3c0.1,0.5,0.3,0.8,0.7,1.1c0.3,0.3,0.7,0.4,1.2,0.4
			c0.3,0,0.7-0.1,1-0.2c0.3-0.1,0.6-0.3,0.9-0.6l1.1,1.1c-0.4,0.4-0.8,0.7-1.4,1c-0.5,0.2-1.1,0.3-1.8,0.3c-0.8,0-1.5-0.2-2-0.5
			c-0.6-0.3-1-0.8-1.3-1.3c-0.3-0.6-0.5-1.2-0.5-2c0-0.8,0.2-1.4,0.5-2c0.3-0.6,0.8-1,1.3-1.3c0.6-0.3,1.2-0.5,2-0.5
			C178.1,6.9,179,7.3,179.6,8z M178.5,10.1c0-0.5-0.2-0.9-0.5-1.2c-0.3-0.3-0.7-0.4-1.2-0.4c-0.5,0-0.8,0.1-1.1,0.4
			c-0.3,0.3-0.5,0.7-0.6,1.2H178.5z"/>
		<path class="st0" d="M185,7.3c0.4-0.2,0.9-0.4,1.4-0.4v2c-0.1,0-0.2,0-0.3,0c-0.7,0-1.2,0.2-1.5,0.5c-0.4,0.4-0.6,0.8-0.6,1.4v3.6
			h-2.1V7h2.1v1.3C184.3,7.9,184.6,7.5,185,7.3z"/>
		<path class="st0" d="M187.7,4.2h2.1v10.2h-2.1V4.2z"/>
		<path class="st0" d="M196.2,14.4v-0.9c-0.2,0.3-0.6,0.5-1,0.7c-0.4,0.2-0.8,0.2-1.4,0.2c-0.8,0-1.4-0.2-1.9-0.6
			c-0.5-0.4-0.7-1-0.7-1.7c0-0.7,0.2-1.2,0.7-1.6c0.5-0.4,1.2-0.6,2.1-0.6h2V9.8c0-0.4-0.1-0.7-0.4-0.9c-0.3-0.2-0.6-0.3-1.1-0.3
			c-0.7,0-1.4,0.2-2.2,0.6l-0.7-1.5c0.6-0.3,1.1-0.5,1.6-0.6c0.5-0.1,1.1-0.2,1.7-0.2c1,0,1.8,0.2,2.3,0.7c0.5,0.5,0.8,1.1,0.8,2
			l0,4.8H196.2z M195.6,12.7c0.3-0.2,0.5-0.5,0.6-0.8v-0.7h-1.7c-0.4,0-0.7,0.1-0.9,0.2c-0.2,0.1-0.3,0.3-0.3,0.6
			c0,0.3,0.1,0.5,0.3,0.7c0.2,0.2,0.5,0.3,0.8,0.3C194.9,13,195.3,12.9,195.6,12.7z"/>
		<path class="st0" d="M203.6,8.6c-0.4-0.1-0.7-0.2-1.1-0.2c-0.3,0-0.5,0-0.6,0.1c-0.2,0.1-0.2,0.2-0.2,0.4c0,0.2,0.1,0.4,0.3,0.5
			c0.2,0.1,0.6,0.2,1,0.4c0.5,0.2,1,0.3,1.3,0.5c0.3,0.2,0.6,0.4,0.9,0.7c0.2,0.3,0.4,0.7,0.4,1.2c0,0.7-0.3,1.3-0.8,1.7
			c-0.6,0.4-1.3,0.6-2.2,0.6c-0.6,0-1.2-0.1-1.7-0.3c-0.6-0.2-1-0.4-1.5-0.8L200,12c0.4,0.3,0.8,0.5,1.3,0.7
			c0.5,0.2,0.9,0.2,1.3,0.2c0.3,0,0.5,0,0.7-0.1c0.2-0.1,0.3-0.2,0.3-0.4c0-0.2-0.1-0.4-0.3-0.5c-0.2-0.1-0.6-0.2-1-0.4
			c-0.5-0.1-0.9-0.3-1.3-0.4c-0.3-0.1-0.6-0.4-0.9-0.7c-0.2-0.3-0.4-0.7-0.4-1.2c0-0.7,0.3-1.3,0.8-1.7c0.5-0.4,1.2-0.6,2.1-0.6
			c0.5,0,1,0.1,1.5,0.2c0.5,0.1,1,0.3,1.4,0.6l-0.7,1.4C204.4,8.9,204,8.8,203.6,8.6z"/>
		<path class="st0" d="M208.3,12.6c0.2,0.2,0.3,0.5,0.3,0.8c0,0.1,0,0.3-0.1,0.4c0,0.1-0.1,0.3-0.2,0.4l-1,1.7h-1l0.6-1.7
			c-0.3-0.2-0.5-0.5-0.5-0.9c0-0.3,0.1-0.6,0.3-0.8c0.2-0.2,0.5-0.3,0.8-0.3C207.9,12.4,208.1,12.5,208.3,12.6z"/>
		<path class="st0" d="M220.8,4.2v10.2h-1.3V13c-0.3,0.5-0.6,0.9-1.1,1.1c-0.5,0.3-1,0.4-1.6,0.4c-0.7,0-1.3-0.2-1.8-0.5
			c-0.5-0.3-0.9-0.8-1.2-1.3c-0.3-0.6-0.4-1.2-0.4-1.9c0-0.7,0.1-1.3,0.4-1.9c0.3-0.6,0.7-1,1.2-1.3c0.5-0.3,1.1-0.5,1.8-0.5
			c0.6,0,1.2,0.1,1.6,0.4c0.5,0.3,0.8,0.6,1.1,1.1V4.2H220.8z M218.3,13c0.4-0.2,0.7-0.5,0.9-0.9c0.2-0.4,0.3-0.8,0.3-1.3
			c0-0.5-0.1-1-0.3-1.3c-0.2-0.4-0.5-0.7-0.9-0.9c-0.4-0.2-0.8-0.3-1.3-0.3c-0.5,0-0.9,0.1-1.3,0.3c-0.4,0.2-0.7,0.5-0.9,0.9
			c-0.2,0.4-0.3,0.8-0.3,1.3c0,0.5,0.1,0.9,0.3,1.3c0.2,0.4,0.5,0.7,0.9,0.9c0.4,0.2,0.8,0.3,1.3,0.3C217.5,13.4,218,13.3,218.3,13z
			"/>
		<path class="st0" d="M227.8,14.4v-1c-0.5,0.7-1.4,1.1-2.5,1.1c-0.5,0-0.9-0.1-1.3-0.3c-0.4-0.2-0.7-0.5-0.9-0.8
			c-0.2-0.3-0.3-0.7-0.3-1.1c0-0.7,0.2-1.2,0.7-1.5c0.5-0.4,1.2-0.6,2-0.6h2.3V9.8c0-0.5-0.2-0.9-0.5-1.2c-0.3-0.3-0.8-0.4-1.4-0.4
			c-0.7,0-1.5,0.3-2.2,0.8l-0.5-0.9c0.5-0.3,1-0.6,1.5-0.7c0.4-0.2,1-0.2,1.6-0.2c0.9,0,1.6,0.2,2.1,0.7c0.5,0.4,0.7,1.1,0.8,1.9
			l0,4.8H227.8z M227,13c0.4-0.3,0.7-0.7,0.7-1.1v-0.7h-2.1c-0.6,0-1,0.1-1.3,0.3c-0.3,0.2-0.4,0.4-0.4,0.8c0,0.4,0.1,0.7,0.4,0.9
			c0.3,0.2,0.7,0.3,1.1,0.3C226.1,13.4,226.6,13.3,227,13z"/>
		<path class="st0" d="M246.3,7.8c0.5,0.5,0.7,1.2,0.7,2.1v4.5h-1.3v-4.2c0-0.6-0.2-1.1-0.5-1.4c-0.3-0.3-0.8-0.5-1.4-0.5
			c-0.7,0-1.2,0.3-1.6,0.7c-0.4,0.5-0.6,1.1-0.6,1.8v3.6h-1.3v-4.2c0-0.6-0.2-1.1-0.5-1.4c-0.3-0.3-0.8-0.5-1.4-0.5
			c-0.7,0-1.2,0.3-1.6,0.7c-0.4,0.5-0.6,1.1-0.6,1.8v3.6H235V7.1h1.3v1.5c0.5-1,1.4-1.5,2.7-1.6c0.7,0,1.2,0.2,1.7,0.5
			c0.4,0.3,0.7,0.8,0.9,1.3c0.4-1.2,1.4-1.8,2.8-1.8C245.2,7.1,245.8,7.3,246.3,7.8z"/>
		<path class="st0" d="M253.7,14.4v-1c-0.5,0.7-1.4,1.1-2.5,1.1c-0.5,0-0.9-0.1-1.3-0.3c-0.4-0.2-0.7-0.5-0.9-0.8
			c-0.2-0.3-0.3-0.7-0.3-1.1c0-0.7,0.2-1.2,0.7-1.5c0.5-0.4,1.2-0.6,2-0.6h2.3V9.8c0-0.5-0.2-0.9-0.5-1.2c-0.3-0.3-0.8-0.4-1.4-0.4
			c-0.7,0-1.5,0.3-2.2,0.8l-0.5-0.9c0.5-0.3,1-0.6,1.5-0.7c0.4-0.2,1-0.2,1.6-0.2c0.9,0,1.6,0.2,2.1,0.7c0.5,0.4,0.7,1.1,0.8,1.9
			l0,4.8H253.7z M253,13c0.4-0.3,0.7-0.7,0.7-1.1v-0.7h-2.1c-0.6,0-1,0.1-1.3,0.3c-0.3,0.2-0.4,0.4-0.4,0.8c0,0.4,0.1,0.7,0.4,0.9
			c0.3,0.2,0.7,0.3,1.1,0.3C252.1,13.4,252.6,13.3,253,13z"/>
		<path class="st0" d="M258.7,16.7c-0.4,0.3-0.8,0.4-1.3,0.4c-0.3,0-0.6,0-0.9-0.1c-0.3-0.1-0.5-0.2-0.7-0.4l0.5-1
			c0.3,0.2,0.6,0.3,1,0.3c0.5,0,1-0.3,1.2-0.9l0.3-0.6l-3-7.2h1.3l2.3,5.8l2.2-5.8h1.3l-3.3,8.3C259.3,16,259,16.4,258.7,16.7z"/>
		<path class="st0" d="M268.8,7.6c0.6,0.3,1,0.7,1.3,1.3c0.3,0.6,0.5,1.2,0.5,1.9c0,0.7-0.2,1.4-0.5,1.9c-0.3,0.6-0.8,1-1.3,1.3
			c-0.6,0.3-1.2,0.5-1.9,0.5c-0.7,0-1.4-0.2-1.9-0.5s-1-0.7-1.3-1.3c-0.3-0.6-0.5-1.2-0.5-1.9c0-0.7,0.2-1.3,0.5-1.9
			c0.3-0.6,0.8-1,1.3-1.3s1.2-0.5,1.9-0.5C267.6,7.1,268.2,7.2,268.8,7.6z M265.6,8.5c-0.4,0.2-0.7,0.5-0.9,0.9
			c-0.2,0.4-0.3,0.8-0.3,1.3c0,0.5,0.1,1,0.3,1.3c0.2,0.4,0.5,0.7,0.9,0.9c0.4,0.2,0.8,0.3,1.3,0.3c0.5,0,0.9-0.1,1.3-0.3
			c0.4-0.2,0.7-0.5,0.9-0.9c0.2-0.4,0.3-0.8,0.3-1.3c0-0.5-0.1-0.9-0.3-1.3c-0.2-0.4-0.5-0.7-0.9-0.9c-0.4-0.2-0.8-0.3-1.3-0.3
			C266.4,8.2,266,8.3,265.6,8.5z"/>
		<path class="st0" d="M274.7,7.5c0.4-0.3,1-0.4,1.6-0.4v1.2c-0.7,0-1.3,0.2-1.8,0.6c-0.5,0.4-0.7,1-0.8,1.7v3.8h-1.3V7.1h1.3v1.6
			C273.9,8.2,274.2,7.8,274.7,7.5z"/>
		<path class="st0" d="M283.1,8.1c0.6,0.7,0.9,1.6,0.9,2.8c0,0.2,0,0.3,0,0.4h-5.7c0.1,0.7,0.4,1.2,0.8,1.6c0.4,0.4,1,0.6,1.6,0.6
			c0.4,0,0.8-0.1,1.2-0.2c0.4-0.2,0.7-0.4,1-0.7l0.7,0.7c-0.4,0.4-0.8,0.7-1.3,0.9c-0.5,0.2-1.1,0.3-1.7,0.3c-0.7,0-1.3-0.2-1.9-0.5
			c-0.6-0.3-1-0.7-1.3-1.3c-0.3-0.6-0.5-1.2-0.5-1.9c0-0.7,0.2-1.3,0.5-1.9c0.3-0.6,0.7-1,1.3-1.3c0.5-0.3,1.2-0.5,1.9-0.5
			C281.7,7.1,282.5,7.4,283.1,8.1z M282.8,10.3c0-0.7-0.3-1.2-0.7-1.6c-0.4-0.4-0.9-0.6-1.6-0.6c-0.6,0-1.2,0.2-1.6,0.6
			c-0.4,0.4-0.7,0.9-0.8,1.6H282.8z"/>
		<path class="st0" d="M288.7,8.3c-0.4-0.1-0.7-0.2-1-0.2c-0.4,0-0.7,0.1-0.9,0.2c-0.2,0.1-0.4,0.4-0.4,0.7c0,0.3,0.1,0.5,0.4,0.7
			c0.3,0.2,0.7,0.3,1.2,0.5c0.5,0.1,0.9,0.3,1.2,0.4c0.3,0.1,0.6,0.4,0.8,0.6c0.2,0.3,0.3,0.7,0.3,1.1c0,0.7-0.3,1.2-0.8,1.6
			c-0.5,0.4-1.2,0.5-1.9,0.5c-0.5,0-1.1-0.1-1.6-0.3c-0.5-0.2-0.9-0.4-1.3-0.7l0.5-0.9c0.3,0.3,0.7,0.5,1.1,0.7
			c0.4,0.2,0.9,0.2,1.3,0.2c0.4,0,0.8-0.1,1-0.2c0.3-0.2,0.4-0.4,0.4-0.7c0-0.3-0.1-0.6-0.4-0.7s-0.7-0.3-1.2-0.5
			c-0.5-0.1-0.9-0.3-1.2-0.4c-0.3-0.1-0.6-0.4-0.8-0.6c-0.2-0.3-0.3-0.6-0.3-1.1c0-0.7,0.2-1.2,0.7-1.5c0.5-0.3,1.1-0.5,1.9-0.5
			c0.4,0,0.9,0.1,1.3,0.2c0.4,0.1,0.8,0.3,1.1,0.5l-0.5,1C289.4,8.6,289.1,8.4,288.7,8.3z"/>
		<path class="st0" d="M299.6,13.9c-0.6,0.4-1.1,0.5-1.7,0.5c-0.6,0-1-0.2-1.4-0.5c-0.4-0.3-0.5-0.9-0.5-1.6v-4h-1v-1h1v-2h1.3v2
			h2.2v1h-2.2v3.8c0,0.4,0.1,0.7,0.2,0.9c0.1,0.2,0.4,0.3,0.7,0.3c0.3,0,0.7-0.1,1.1-0.3L299.6,13.9z"/>
		<path class="st0" d="M305.5,14.4v-1c-0.5,0.7-1.4,1.1-2.5,1.1c-0.5,0-0.9-0.1-1.3-0.3c-0.4-0.2-0.7-0.5-0.9-0.8
			c-0.2-0.3-0.3-0.7-0.3-1.1c0-0.7,0.2-1.2,0.7-1.5c0.5-0.4,1.2-0.6,2-0.6h2.3V9.8c0-0.5-0.2-0.9-0.5-1.2c-0.3-0.3-0.8-0.4-1.4-0.4
			c-0.7,0-1.5,0.3-2.2,0.8l-0.5-0.9c0.5-0.3,1-0.6,1.5-0.7c0.4-0.2,1-0.2,1.6-0.2c0.9,0,1.6,0.2,2.1,0.7c0.5,0.4,0.7,1.1,0.8,1.9
			l0,4.8H305.5z M304.8,13c0.4-0.3,0.7-0.7,0.7-1.1v-0.7h-2.1c-0.6,0-1,0.1-1.3,0.3c-0.3,0.2-0.4,0.4-0.4,0.8c0,0.4,0.1,0.7,0.4,0.9
			c0.3,0.2,0.7,0.3,1.1,0.3C303.9,13.4,304.4,13.3,304.8,13z"/>
		<path class="st0" d="M312.1,8.3c-0.4-0.1-0.7-0.2-1-0.2c-0.4,0-0.7,0.1-0.9,0.2c-0.2,0.1-0.4,0.4-0.4,0.7c0,0.3,0.1,0.5,0.4,0.7
			c0.3,0.2,0.7,0.3,1.2,0.5c0.5,0.1,0.9,0.3,1.2,0.4c0.3,0.1,0.6,0.4,0.8,0.6c0.2,0.3,0.3,0.7,0.3,1.1c0,0.7-0.3,1.2-0.8,1.6
			c-0.5,0.4-1.2,0.5-1.9,0.5c-0.5,0-1.1-0.1-1.6-0.3c-0.5-0.2-0.9-0.4-1.3-0.7l0.5-0.9c0.3,0.3,0.7,0.5,1.1,0.7
			c0.4,0.2,0.9,0.2,1.3,0.2c0.4,0,0.8-0.1,1-0.2c0.3-0.2,0.4-0.4,0.4-0.7c0-0.3-0.1-0.6-0.4-0.7c-0.3-0.2-0.7-0.3-1.2-0.5
			c-0.5-0.1-0.9-0.3-1.2-0.4c-0.3-0.1-0.6-0.4-0.8-0.6c-0.2-0.3-0.3-0.6-0.3-1.1c0-0.7,0.2-1.2,0.7-1.5c0.5-0.3,1.1-0.5,1.9-0.5
			c0.4,0,0.9,0.1,1.3,0.2c0.4,0.1,0.8,0.3,1.1,0.5l-0.5,1C312.8,8.6,312.4,8.4,312.1,8.3z"/>
		<path class="st0" d="M319.9,14.4v-1c-0.5,0.7-1.4,1.1-2.5,1.1c-0.5,0-0.9-0.1-1.3-0.3c-0.4-0.2-0.7-0.5-0.9-0.8
			c-0.2-0.3-0.3-0.7-0.3-1.1c0-0.7,0.2-1.2,0.7-1.5c0.5-0.4,1.2-0.6,2-0.6h2.3V9.8c0-0.5-0.2-0.9-0.5-1.2c-0.3-0.3-0.8-0.4-1.4-0.4
			c-0.7,0-1.5,0.3-2.2,0.8l-0.5-0.9c0.5-0.3,1-0.6,1.5-0.7c0.4-0.2,1-0.2,1.6-0.2c0.9,0,1.6,0.2,2.1,0.7c0.5,0.4,0.7,1.1,0.8,1.9
			l0,4.8H319.9z M319.1,13c0.4-0.3,0.7-0.7,0.7-1.1v-0.7h-2.1c-0.6,0-1,0.1-1.3,0.3c-0.3,0.2-0.4,0.4-0.4,0.8c0,0.4,0.1,0.7,0.4,0.9
			c0.3,0.2,0.7,0.3,1.1,0.3C318.2,13.4,318.7,13.3,319.1,13z"/>
		<path class="st0" d="M326.4,8.3c-0.4-0.1-0.7-0.2-1-0.2c-0.4,0-0.7,0.1-0.9,0.2c-0.2,0.1-0.4,0.4-0.4,0.7c0,0.3,0.1,0.5,0.4,0.7
			c0.3,0.2,0.7,0.3,1.2,0.5c0.5,0.1,0.9,0.3,1.2,0.4c0.3,0.1,0.6,0.4,0.8,0.6c0.2,0.3,0.3,0.7,0.3,1.1c0,0.7-0.3,1.2-0.8,1.6
			c-0.5,0.4-1.2,0.5-1.9,0.5c-0.5,0-1.1-0.1-1.6-0.3c-0.5-0.2-0.9-0.4-1.3-0.7l0.5-0.9c0.3,0.3,0.7,0.5,1.1,0.7
			c0.4,0.2,0.9,0.2,1.3,0.2c0.4,0,0.8-0.1,1-0.2c0.3-0.2,0.4-0.4,0.4-0.7c0-0.3-0.1-0.6-0.4-0.7c-0.3-0.2-0.7-0.3-1.2-0.5
			c-0.5-0.1-0.9-0.3-1.2-0.4c-0.3-0.1-0.6-0.4-0.8-0.6c-0.2-0.3-0.3-0.6-0.3-1.1c0-0.7,0.2-1.2,0.7-1.5c0.5-0.3,1.1-0.5,1.9-0.5
			c0.4,0,0.9,0.1,1.3,0.2c0.4,0.1,0.8,0.3,1.1,0.5l-0.5,1C327.1,8.6,326.7,8.4,326.4,8.3z"/>
		<path class="st0" d="M340.1,4.2v10.2h-1.3V13c-0.3,0.5-0.6,0.9-1.1,1.1c-0.5,0.3-1,0.4-1.6,0.4c-0.7,0-1.3-0.2-1.8-0.5
			c-0.5-0.3-0.9-0.8-1.2-1.3c-0.3-0.6-0.4-1.2-0.4-1.9c0-0.7,0.1-1.3,0.4-1.9c0.3-0.6,0.7-1,1.2-1.3c0.5-0.3,1.1-0.5,1.8-0.5
			c0.6,0,1.2,0.1,1.6,0.4c0.5,0.3,0.8,0.6,1.1,1.1V4.2H340.1z M337.6,13c0.4-0.2,0.7-0.5,0.9-0.9c0.2-0.4,0.3-0.8,0.3-1.3
			c0-0.5-0.1-1-0.3-1.3c-0.2-0.4-0.5-0.7-0.9-0.9c-0.4-0.2-0.8-0.3-1.3-0.3c-0.5,0-0.9,0.1-1.3,0.3c-0.4,0.2-0.7,0.5-0.9,0.9
			c-0.2,0.4-0.3,0.8-0.3,1.3c0,0.5,0.1,0.9,0.3,1.3c0.2,0.4,0.5,0.7,0.9,0.9c0.4,0.2,0.8,0.3,1.3,0.3
			C336.8,13.4,337.3,13.3,337.6,13z"/>
		<path class="st0" d="M348.2,8.1c0.6,0.7,0.9,1.6,0.9,2.8c0,0.2,0,0.3,0,0.4h-5.7c0.1,0.7,0.4,1.2,0.8,1.6c0.4,0.4,1,0.6,1.6,0.6
			c0.4,0,0.8-0.1,1.2-0.2c0.4-0.2,0.7-0.4,1-0.7l0.7,0.7c-0.4,0.4-0.8,0.7-1.3,0.9c-0.5,0.2-1.1,0.3-1.7,0.3c-0.7,0-1.3-0.2-1.9-0.5
			c-0.6-0.3-1-0.7-1.3-1.3c-0.3-0.6-0.5-1.2-0.5-1.9c0-0.7,0.2-1.3,0.5-1.9c0.3-0.6,0.7-1,1.3-1.3c0.5-0.3,1.2-0.5,1.9-0.5
			C346.7,7.1,347.6,7.4,348.2,8.1z M347.9,10.3c0-0.7-0.3-1.2-0.7-1.6c-0.4-0.4-0.9-0.6-1.6-0.6c-0.6,0-1.2,0.2-1.6,0.6
			c-0.4,0.4-0.7,0.9-0.8,1.6H347.9z"/>
		<path class="st0" d="M355.3,13.2h4.2l-0.2,1.2h-5.5l1.9-9.6h1.3L355.3,13.2z"/>
		<path class="st0" d="M362.3,14.1c-0.5-0.3-0.8-0.7-1.1-1.1c-0.3-0.5-0.4-1.1-0.4-1.7c0-0.8,0.2-1.5,0.5-2.1
			c0.3-0.6,0.8-1.1,1.4-1.5c0.6-0.4,1.3-0.5,2-0.5c0.7,0,1.2,0.2,1.7,0.5s0.8,0.8,1,1.3l0.4-1.7h1.3l-1.4,7.3h-1.3l0.2-1.2
			c-0.3,0.4-0.7,0.7-1.2,0.9c-0.5,0.2-1,0.3-1.5,0.3C363.3,14.5,362.8,14.3,362.3,14.1z M365.7,13c0.4-0.3,0.8-0.6,1-1.1
			c0.2-0.4,0.4-0.9,0.4-1.5c0-0.7-0.2-1.2-0.6-1.6c-0.4-0.4-0.9-0.6-1.6-0.6c-0.5,0-1,0.1-1.4,0.4c-0.4,0.3-0.8,0.6-1,1.1
			c-0.3,0.4-0.4,0.9-0.4,1.5c0,0.7,0.2,1.2,0.6,1.6c0.4,0.4,0.9,0.6,1.6,0.6C364.8,13.4,365.3,13.3,365.7,13z"/>
		<path class="st0" d="M371.7,14c-0.5-0.3-0.9-0.7-1.1-1.2c-0.3-0.5-0.4-1.1-0.4-1.7c0-0.8,0.2-1.5,0.5-2.1c0.3-0.6,0.8-1.1,1.4-1.4
			c0.6-0.3,1.3-0.5,2.1-0.5c0.6,0,1.1,0.1,1.6,0.3c0.5,0.2,0.9,0.5,1.2,0.8l-0.8,0.9c-0.5-0.6-1.2-0.9-2-0.9c-0.5,0-1,0.1-1.4,0.4
			c-0.4,0.2-0.7,0.6-1,1c-0.2,0.4-0.4,0.9-0.4,1.5c0,0.7,0.2,1.2,0.6,1.6c0.4,0.4,0.9,0.6,1.6,0.6c0.5,0,0.9-0.1,1.3-0.2
			c0.4-0.2,0.7-0.4,1-0.7l0.6,0.8c-0.4,0.4-0.8,0.7-1.4,0.9c-0.5,0.2-1.1,0.3-1.8,0.3C372.8,14.4,372.2,14.3,371.7,14z"/>
		<path class="st0" d="M380.1,12.2c0,0.2-0.1,0.3-0.1,0.5c0,0.2,0.1,0.4,0.2,0.5c0.1,0.1,0.3,0.1,0.5,0.1c0.4,0,0.8-0.1,1.2-0.4
			l0.2,1c-0.6,0.3-1.2,0.5-1.8,0.5c-0.5,0-0.9-0.1-1.2-0.4c-0.3-0.3-0.4-0.6-0.4-1.1c0-0.2,0-0.4,0.1-0.6l0.8-4h-1l0.2-1h1l0.4-2
			h1.3l-0.4,2h2.2l-0.2,1h-2.3L380.1,12.2z"/>
		<path class="st0" d="M389.5,7.5c0.5,0.3,0.9,0.7,1.2,1.2c0.3,0.5,0.4,1.1,0.4,1.7c0,0.8-0.2,1.5-0.5,2.1c-0.4,0.6-0.9,1.1-1.5,1.4
			c-0.6,0.3-1.3,0.5-2.1,0.5c-0.7,0-1.3-0.1-1.8-0.4c-0.5-0.3-0.9-0.7-1.2-1.2c-0.3-0.5-0.4-1.1-0.4-1.7c0-0.8,0.2-1.5,0.5-2.1
			c0.4-0.6,0.9-1.1,1.5-1.4c0.6-0.3,1.3-0.5,2.1-0.5C388.4,7.1,389,7.2,389.5,7.5z M386.2,8.6c-0.4,0.2-0.7,0.6-1,1
			c-0.2,0.4-0.4,0.9-0.4,1.5c0,0.7,0.2,1.2,0.6,1.7c0.4,0.4,0.9,0.6,1.6,0.6c0.5,0,1-0.1,1.4-0.4c0.4-0.2,0.7-0.6,1-1
			c0.2-0.4,0.4-0.9,0.4-1.5c0-0.7-0.2-1.2-0.6-1.7c-0.4-0.4-0.9-0.6-1.6-0.6C387.1,8.2,386.6,8.3,386.2,8.6z"/>
		<path class="st0" d="M399,7.5c0.5,0.3,0.8,0.7,1.1,1.1c0.3,0.5,0.4,1.1,0.4,1.7c0,0.8-0.2,1.5-0.5,2.1c-0.3,0.6-0.8,1.1-1.4,1.5
			c-0.6,0.4-1.3,0.5-2,0.5c-0.7,0-1.2-0.2-1.7-0.5c-0.5-0.3-0.8-0.8-1-1.3l-0.4,1.7h-1.3l2-10.2h1.3l-0.8,4.1
			c0.3-0.4,0.7-0.7,1.2-0.9c0.5-0.2,1-0.3,1.5-0.3C398,7.1,398.6,7.2,399,7.5z M395.6,8.6c-0.4,0.3-0.8,0.6-1,1.1
			c-0.2,0.4-0.4,0.9-0.4,1.5c0,0.7,0.2,1.2,0.6,1.6c0.4,0.4,0.9,0.6,1.6,0.6c0.5,0,1-0.1,1.4-0.4c0.4-0.3,0.8-0.6,1-1.1
			c0.3-0.4,0.4-0.9,0.4-1.5c0-0.7-0.2-1.2-0.6-1.6c-0.4-0.4-0.9-0.6-1.6-0.6C396.5,8.2,396,8.3,395.6,8.6z"/>
		<path class="st0" d="M403.1,14.1c-0.5-0.3-0.8-0.7-1.1-1.1c-0.3-0.5-0.4-1.1-0.4-1.7c0-0.8,0.2-1.5,0.5-2.1
			c0.3-0.6,0.8-1.1,1.4-1.5c0.6-0.4,1.3-0.5,2-0.5c0.7,0,1.2,0.2,1.7,0.5c0.5,0.3,0.8,0.8,1,1.3l0.4-1.7h1.3l-1.4,7.3h-1.3l0.2-1.2
			c-0.3,0.4-0.7,0.7-1.2,0.9c-0.5,0.2-1,0.3-1.5,0.3C404,14.5,403.5,14.3,403.1,14.1z M406.5,13c0.4-0.3,0.8-0.6,1-1.1
			c0.2-0.4,0.4-0.9,0.4-1.5c0-0.7-0.2-1.2-0.6-1.6c-0.4-0.4-0.9-0.6-1.6-0.6c-0.5,0-1,0.1-1.4,0.4c-0.4,0.3-0.8,0.6-1,1.1
			c-0.3,0.4-0.4,0.9-0.4,1.5c0,0.7,0.2,1.2,0.6,1.6c0.4,0.4,0.9,0.6,1.6,0.6C405.6,13.4,406,13.3,406.5,13z"/>
		<path class="st0" d="M412.5,14c-0.5-0.3-0.9-0.7-1.1-1.2c-0.3-0.5-0.4-1.1-0.4-1.7c0-0.8,0.2-1.5,0.5-2.1c0.3-0.6,0.8-1.1,1.4-1.4
			c0.6-0.3,1.3-0.5,2.1-0.5c0.6,0,1.1,0.1,1.6,0.3c0.5,0.2,0.9,0.5,1.2,0.8l-0.8,0.9c-0.5-0.6-1.2-0.9-2-0.9c-0.5,0-1,0.1-1.4,0.4
			c-0.4,0.2-0.7,0.6-1,1c-0.2,0.4-0.4,0.9-0.4,1.5c0,0.7,0.2,1.2,0.6,1.6c0.4,0.4,0.9,0.6,1.6,0.6c0.5,0,0.9-0.1,1.3-0.2
			c0.4-0.2,0.7-0.4,1-0.7l0.6,0.8c-0.4,0.4-0.8,0.7-1.4,0.9c-0.5,0.2-1.1,0.3-1.8,0.3C413.5,14.4,413,14.3,412.5,14z"/>
		<path class="st0" d="M421.6,7.1l-1.4,7.3h-1.3l1.4-7.3H421.6z M422,4.4c0.1,0.1,0.2,0.3,0.2,0.5c0,0.3-0.1,0.5-0.3,0.7
			c-0.2,0.2-0.4,0.3-0.7,0.3c-0.2,0-0.3-0.1-0.5-0.2c-0.1-0.1-0.2-0.3-0.2-0.5c0-0.3,0.1-0.5,0.3-0.7c0.2-0.2,0.4-0.3,0.7-0.3
			C421.8,4.2,421.9,4.3,422,4.4z"/>
		<path class="st0" d="M426.1,4.2l-2,10.2h-1.3l2-10.2H426.1z"/>
		<path class="st0" d="M430,4.2l-2,10.2h-1.3l2-10.2H430z"/>
		<path class="st0" d="M431.5,13.9c-0.5-0.4-0.7-1-0.7-1.7c0-0.2,0-0.5,0.1-0.8l0.9-4.3h1.3l-0.8,4.1c0,0.2-0.1,0.3-0.1,0.5
			c0,0.5,0.1,0.9,0.4,1.1c0.3,0.3,0.7,0.4,1.3,0.4c0.6,0,1.2-0.2,1.7-0.6c0.5-0.4,0.8-1,0.9-1.7l0.8-3.9h1.3l-1.4,7.3h-1.3l0.2-1.2
			c-0.6,0.9-1.5,1.3-2.6,1.3C432.6,14.5,431.9,14.3,431.5,13.9z"/>
		<path class="st0" d="M440.3,14.1c-0.6-0.3-1-0.6-1.3-1l0.6-0.9c0.3,0.3,0.7,0.6,1.1,0.8c0.5,0.2,0.9,0.3,1.4,0.3
			c0.4,0,0.8-0.1,1-0.3c0.3-0.2,0.4-0.4,0.4-0.7c0-0.3-0.1-0.5-0.3-0.7c-0.2-0.2-0.6-0.3-1.1-0.5c-0.4-0.2-0.8-0.3-1-0.5
			c-0.3-0.1-0.5-0.3-0.7-0.6c-0.2-0.3-0.3-0.6-0.3-0.9c0-0.6,0.2-1.1,0.7-1.5c0.5-0.4,1.1-0.6,1.9-0.6c0.5,0,1,0.1,1.5,0.3
			c0.5,0.2,0.9,0.4,1.2,0.7l-0.6,0.9c-0.3-0.2-0.7-0.4-1.1-0.6c-0.4-0.2-0.8-0.2-1.1-0.2c-0.4,0-0.7,0.1-0.9,0.3
			c-0.2,0.2-0.4,0.4-0.4,0.7c0,0.3,0.1,0.5,0.3,0.6c0.2,0.2,0.6,0.3,1,0.5c0.4,0.2,0.8,0.3,1,0.5c0.3,0.2,0.5,0.4,0.7,0.6
			c0.2,0.3,0.3,0.6,0.3,1c0,0.4-0.1,0.8-0.3,1.1c-0.2,0.3-0.5,0.6-1,0.8c-0.4,0.2-0.9,0.3-1.4,0.3C441.5,14.5,440.8,14.4,440.3,14.1
			z"/>
		<path class="st0" d="M457,7.1l-5,8.4c-0.7,1.1-1.5,1.6-2.5,1.6c-0.3,0-0.6,0-0.8-0.1c-0.2-0.1-0.5-0.2-0.7-0.4l0.7-0.9
			c0.3,0.2,0.6,0.3,0.9,0.3c0.5,0,1-0.3,1.5-1l0.4-0.6l-1.6-7.2h1.3l1.1,5.9l3.4-5.9H457z"/>
		<path class="st0" d="M13,28.3c0.3,0.3,0.4,0.8,0.4,1.3c0,0.6-0.2,1.2-0.5,1.6c-0.3,0.5-0.8,0.8-1.4,1.1c-0.6,0.3-1.3,0.4-2.1,0.4
			H5.2l1.9-9.6h4.1c0.9,0,1.5,0.2,2,0.5c0.5,0.4,0.7,0.8,0.7,1.5c0,0.6-0.2,1.2-0.6,1.7c-0.4,0.5-0.9,0.8-1.6,0.9
			C12.2,27.8,12.7,28,13,28.3z M11.4,31c0.5-0.3,0.7-0.8,0.7-1.3c0-0.4-0.2-0.7-0.5-1c-0.3-0.2-0.8-0.3-1.5-0.3H7.3l-0.6,3.1h2.7
			C10.2,31.5,10.9,31.4,11.4,31z M12.1,24.6c-0.3-0.2-0.7-0.3-1.2-0.3H8.2l-0.6,2.9h2.7c0.7,0,1.2-0.2,1.6-0.5
			c0.4-0.3,0.6-0.7,0.6-1.3C12.5,25.1,12.4,24.8,12.1,24.6z"/>
		<path class="st0" d="M17.6,25.5l-1.4,7.3h-1.3l1.4-7.3H17.6z M18,22.7c0.1,0.1,0.2,0.3,0.2,0.5c0,0.3-0.1,0.5-0.3,0.7
			c-0.2,0.2-0.4,0.3-0.7,0.3c-0.2,0-0.3-0.1-0.5-0.2c-0.1-0.1-0.2-0.3-0.2-0.5c0-0.3,0.1-0.5,0.3-0.7s0.4-0.3,0.7-0.3
			C17.7,22.6,17.9,22.6,18,22.7z"/>
		<path class="st0" d="M22.3,23.9c-0.3,0.2-0.5,0.5-0.5,0.9l-0.2,0.9h2l-0.2,1h-2l-1.2,6h-1.3l1.2-6h-0.9l0.2-1h1l0.2-0.9
			c0.1-0.5,0.3-1,0.6-1.3c0.3-0.4,0.6-0.6,1-0.8c0.4-0.2,0.8-0.3,1.2-0.3c0.5,0,0.9,0.1,1.3,0.3l-0.4,1c-0.1-0.1-0.3-0.1-0.4-0.2
			c-0.2,0-0.3-0.1-0.5-0.1C22.9,23.6,22.6,23.7,22.3,23.9z M25.9,25.5l-1.4,7.3h-1.3l1.4-7.3H25.9z M26.3,22.7
			c0.1,0.1,0.2,0.3,0.2,0.5c0,0.3-0.1,0.5-0.3,0.7c-0.2,0.2-0.4,0.3-0.7,0.3c-0.2,0-0.3-0.1-0.5-0.2c-0.1-0.1-0.2-0.3-0.2-0.5
			c0-0.3,0.1-0.5,0.3-0.7c0.2-0.2,0.4-0.3,0.7-0.3C26,22.6,26.2,22.6,26.3,22.7z"/>
		<path class="st0" d="M28.4,32.4c-0.5-0.3-0.8-0.7-1.1-1.1c-0.3-0.5-0.4-1.1-0.4-1.7c0-0.8,0.2-1.5,0.5-2.1
			c0.3-0.6,0.8-1.1,1.4-1.5c0.6-0.4,1.3-0.5,2-0.5c0.7,0,1.2,0.2,1.7,0.5c0.5,0.3,0.8,0.8,1,1.3l0.9-4.7h1.3l-2,10.2h-1.3l0.2-1.2
			c-0.3,0.4-0.7,0.7-1.2,0.9c-0.5,0.2-1,0.3-1.5,0.3C29.4,32.8,28.9,32.7,28.4,32.4z M31.8,31.3c0.4-0.3,0.8-0.6,1-1.1
			c0.2-0.4,0.4-0.9,0.4-1.5c0-0.7-0.2-1.2-0.6-1.6c-0.4-0.4-0.9-0.6-1.6-0.6c-0.5,0-1,0.1-1.4,0.4c-0.4,0.3-0.8,0.6-1,1.1
			c-0.3,0.4-0.4,0.9-0.4,1.5c0,0.7,0.2,1.2,0.6,1.6c0.4,0.4,0.9,0.6,1.6,0.6C30.9,31.7,31.4,31.6,31.8,31.3z"/>
		<path class="st0" d="M42.2,25.8c0.5,0.3,0.9,0.7,1.2,1.2c0.3,0.5,0.4,1.1,0.4,1.7c0,0.8-0.2,1.5-0.5,2.1c-0.4,0.6-0.9,1.1-1.5,1.4
			c-0.6,0.3-1.3,0.5-2.1,0.5c-0.7,0-1.3-0.1-1.8-0.4c-0.5-0.3-0.9-0.7-1.2-1.2c-0.3-0.5-0.4-1.1-0.4-1.7c0-0.8,0.2-1.5,0.5-2.1
			c0.4-0.6,0.9-1.1,1.5-1.4c0.6-0.3,1.3-0.5,2.1-0.5C41.1,25.4,41.7,25.6,42.2,25.8z M39,26.9c-0.4,0.2-0.7,0.6-1,1
			c-0.2,0.4-0.4,0.9-0.4,1.5c0,0.7,0.2,1.2,0.6,1.7c0.4,0.4,0.9,0.6,1.6,0.6c0.5,0,1-0.1,1.4-0.4c0.4-0.2,0.7-0.6,1-1
			c0.2-0.4,0.4-0.9,0.4-1.5c0-0.7-0.2-1.2-0.6-1.7c-0.4-0.4-0.9-0.6-1.6-0.6C39.8,26.5,39.4,26.7,39,26.9z"/>
		<path class="st0" d="M51.8,25.8c0.5,0.3,0.8,0.7,1.1,1.1c0.3,0.5,0.4,1.1,0.4,1.7c0,0.8-0.2,1.5-0.5,2.1c-0.3,0.6-0.8,1.1-1.4,1.5
			c-0.6,0.4-1.3,0.5-2,0.5c-0.7,0-1.2-0.2-1.7-0.5c-0.5-0.3-0.8-0.8-1-1.3l-0.4,1.7H45l2-10.2h1.3l-0.8,4.1c0.3-0.4,0.7-0.7,1.2-0.9
			c0.5-0.2,1-0.3,1.5-0.3C50.8,25.4,51.3,25.6,51.8,25.8z M48.4,26.9c-0.4,0.3-0.8,0.6-1,1.1c-0.2,0.4-0.4,0.9-0.4,1.5
			c0,0.7,0.2,1.2,0.6,1.6c0.4,0.4,0.9,0.6,1.6,0.6c0.5,0,1-0.1,1.4-0.4c0.4-0.3,0.8-0.6,1-1.1c0.3-0.4,0.4-0.9,0.4-1.5
			c0-0.7-0.2-1.2-0.6-1.6c-0.4-0.4-0.9-0.6-1.6-0.6C49.3,26.5,48.8,26.6,48.4,26.9z"/>
		<path class="st0" d="M55.8,32.4c-0.5-0.3-0.8-0.7-1.1-1.1c-0.3-0.5-0.4-1.1-0.4-1.7c0-0.8,0.2-1.5,0.5-2.1
			c0.3-0.6,0.8-1.1,1.4-1.5c0.6-0.4,1.3-0.5,2-0.5c0.7,0,1.2,0.2,1.7,0.5c0.5,0.3,0.8,0.8,1,1.3l0.4-1.7h1.3l-1.4,7.3h-1.3l0.2-1.2
			c-0.3,0.4-0.7,0.7-1.2,0.9c-0.5,0.2-1,0.3-1.5,0.3C56.8,32.8,56.3,32.7,55.8,32.4z M59.2,31.3c0.4-0.3,0.8-0.6,1-1.1
			c0.2-0.4,0.4-0.9,0.4-1.5c0-0.7-0.2-1.2-0.6-1.6c-0.4-0.4-0.9-0.6-1.6-0.6c-0.5,0-1,0.1-1.4,0.4c-0.4,0.3-0.8,0.6-1,1.1
			c-0.3,0.4-0.4,0.9-0.4,1.5c0,0.7,0.2,1.2,0.6,1.6c0.4,0.4,0.9,0.6,1.6,0.6C58.4,31.7,58.8,31.6,59.2,31.3z"/>
		<path class="st0" d="M65.2,32.4c-0.5-0.3-0.9-0.7-1.1-1.2c-0.3-0.5-0.4-1.1-0.4-1.7c0-0.8,0.2-1.5,0.5-2.1
			c0.3-0.6,0.8-1.1,1.4-1.4c0.6-0.3,1.3-0.5,2.1-0.5c0.6,0,1.1,0.1,1.6,0.3c0.5,0.2,0.9,0.5,1.2,0.8l-0.8,0.9
			c-0.5-0.6-1.2-0.9-2-0.9c-0.5,0-1,0.1-1.4,0.4c-0.4,0.2-0.7,0.6-1,1c-0.2,0.4-0.4,0.9-0.4,1.5c0,0.7,0.2,1.2,0.6,1.6
			c0.4,0.4,0.9,0.6,1.6,0.6c0.5,0,0.9-0.1,1.3-0.2c0.4-0.2,0.7-0.4,1-0.7l0.6,0.8c-0.4,0.4-0.8,0.7-1.4,0.9
			c-0.5,0.2-1.1,0.3-1.8,0.3C66.3,32.8,65.7,32.6,65.2,32.4z"/>
		<path class="st0" d="M73.6,30.5c0,0.2-0.1,0.3-0.1,0.5c0,0.2,0.1,0.4,0.2,0.5c0.1,0.1,0.3,0.1,0.5,0.1c0.4,0,0.8-0.1,1.2-0.4
			l0.2,1c-0.6,0.3-1.2,0.5-1.8,0.5c-0.5,0-0.9-0.1-1.2-0.4c-0.3-0.3-0.4-0.6-0.4-1.1c0-0.2,0-0.4,0.1-0.6l0.8-4h-1l0.2-1h1l0.4-2H75
			l-0.4,2h2.2l-0.2,1h-2.3L73.6,30.5z"/>
		<path class="st0" d="M83.5,26.3c0.6,0.6,0.8,1.3,0.8,2.3c0,0.3,0,0.7-0.1,1h-5.9c0,0.7,0.2,1.2,0.7,1.6c0.4,0.4,1,0.6,1.6,0.6
			c0.4,0,0.8-0.1,1.2-0.2c0.4-0.1,0.7-0.3,1-0.5l0.6,0.8c-0.7,0.6-1.7,1-2.8,1c-0.7,0-1.3-0.1-1.9-0.4c-0.5-0.3-0.9-0.7-1.2-1.2
			c-0.3-0.5-0.4-1.1-0.4-1.7c0-0.8,0.2-1.5,0.5-2.1c0.4-0.6,0.8-1.1,1.5-1.5c0.6-0.4,1.3-0.5,2.1-0.5C82.1,25.4,82.9,25.7,83.5,26.3
			z M82.7,27c-0.3-0.4-0.8-0.6-1.5-0.6c-0.6,0-1.2,0.2-1.7,0.6c-0.5,0.4-0.8,0.9-1,1.5h4.7C83.2,27.9,83,27.4,82.7,27z"/>
		<path class="st0" d="M90.6,25.4l-0.2,1.2c-0.7,0-1.4,0.2-1.9,0.6c-0.6,0.4-0.9,1-1.1,1.7l-0.7,3.8h-1.3l1.4-7.3h1.3L87.8,27
			C88.4,26,89.4,25.4,90.6,25.4z"/>
		<path class="st0" d="M93.3,25.5l-1.4,7.3h-1.3l1.4-7.3H93.3z M93.7,22.7c0.1,0.1,0.2,0.3,0.2,0.5c0,0.3-0.1,0.5-0.3,0.7
			c-0.2,0.2-0.4,0.3-0.7,0.3c-0.2,0-0.3-0.1-0.5-0.2c-0.1-0.1-0.2-0.3-0.2-0.5c0-0.3,0.1-0.5,0.3-0.7c0.2-0.2,0.4-0.3,0.7-0.3
			C93.5,22.6,93.6,22.6,93.7,22.7z"/>
		<path class="st0" d="M95.4,32.2c-0.5-0.4-0.7-1-0.7-1.7c0-0.2,0-0.5,0.1-0.8l0.9-4.3h1.3l-0.8,4.1c0,0.2-0.1,0.3-0.1,0.5
			c0,0.5,0.1,0.9,0.4,1.1c0.3,0.3,0.7,0.4,1.3,0.4c0.6,0,1.2-0.2,1.7-0.6c0.5-0.4,0.8-1,0.9-1.7l0.8-3.9h1.3l-1.4,7.3h-1.3l0.2-1.2
			c-0.6,0.9-1.5,1.3-2.6,1.3C96.5,32.8,95.8,32.6,95.4,32.2z"/>
		<path class="st0" d="M116,26c0.5,0.4,0.7,1,0.7,1.7c0,0.2,0,0.5-0.1,0.8l-0.9,4.3h-1.3l0.8-4.1c0-0.2,0.1-0.3,0.1-0.5
			c0-0.5-0.1-0.9-0.4-1.1c-0.3-0.3-0.7-0.4-1.3-0.4c-0.6,0-1.2,0.2-1.6,0.6c-0.5,0.4-0.8,0.9-0.9,1.5l-0.8,4.1H109l0.8-4.1
			c0-0.2,0.1-0.3,0.1-0.5c0-0.5-0.1-0.9-0.4-1.1c-0.3-0.3-0.7-0.4-1.3-0.4c-0.6,0-1.2,0.2-1.7,0.6c-0.5,0.4-0.8,1-0.9,1.7l-0.8,3.9
			h-1.3l1.4-7.3h1.3l-0.2,1.2c0.6-0.9,1.5-1.3,2.6-1.3c0.7,0,1.3,0.2,1.7,0.5c0.4,0.3,0.7,0.7,0.8,1.3c0.7-1.2,1.7-1.7,2.9-1.8
			C114.9,25.4,115.6,25.6,116,26z"/>
		<path class="st0" d="M127.9,26.4c0.6,0.7,0.9,1.6,0.9,2.8c0,0.2,0,0.3,0,0.4H123c0.1,0.7,0.4,1.2,0.8,1.6c0.4,0.4,1,0.6,1.6,0.6
			c0.4,0,0.8-0.1,1.2-0.2c0.4-0.2,0.7-0.4,1-0.7l0.7,0.7c-0.4,0.4-0.8,0.7-1.3,0.9c-0.5,0.2-1.1,0.3-1.7,0.3c-0.7,0-1.3-0.2-1.9-0.5
			c-0.6-0.3-1-0.7-1.3-1.3c-0.3-0.6-0.5-1.2-0.5-1.9c0-0.7,0.2-1.3,0.5-1.9c0.3-0.6,0.7-1,1.3-1.3c0.5-0.3,1.2-0.5,1.9-0.5
			C126.4,25.4,127.3,25.8,127.9,26.4z M127.6,28.6c0-0.7-0.3-1.2-0.7-1.6c-0.4-0.4-0.9-0.6-1.6-0.6c-0.6,0-1.2,0.2-1.6,0.6
			c-0.4,0.4-0.7,0.9-0.8,1.6H127.6z"/>
		<path class="st0" d="M136.5,26.2c0.5,0.5,0.7,1.2,0.7,2.1v4.5H136v-4.2c0-0.6-0.2-1.1-0.5-1.4c-0.3-0.3-0.8-0.5-1.4-0.5
			c-0.7,0-1.2,0.2-1.6,0.6c-0.4,0.4-0.6,0.9-0.7,1.6v3.9h-1.3v-7.3h1.3V27c0.5-1,1.4-1.6,2.8-1.6C135.4,25.4,136,25.7,136.5,26.2z"
			/>
		<path class="st0" d="M154.5,26.2c0.5,0.5,0.7,1.2,0.7,2.1v4.5h-1.3v-4.2c0-0.6-0.2-1.1-0.5-1.4c-0.3-0.3-0.8-0.5-1.4-0.5
			c-0.7,0-1.2,0.3-1.6,0.7c-0.4,0.5-0.6,1.1-0.6,1.8v3.6h-1.3v-4.2c0-0.6-0.2-1.1-0.5-1.4c-0.3-0.3-0.8-0.5-1.4-0.5
			c-0.7,0-1.2,0.3-1.6,0.7c-0.4,0.5-0.6,1.1-0.6,1.8v3.6h-1.3v-7.3h1.3V27c0.5-1,1.4-1.5,2.7-1.6c0.7,0,1.2,0.2,1.7,0.5
			c0.4,0.3,0.7,0.8,0.9,1.3c0.4-1.2,1.4-1.8,2.8-1.8C153.3,25.4,154,25.7,154.5,26.2z"/>
		<path class="st0" d="M163.9,25.5v7.3h-1.3v-1.5c-0.5,1-1.4,1.6-2.7,1.6c-0.8,0-1.5-0.2-2-0.7c-0.5-0.5-0.7-1.2-0.7-2.1v-4.5h1.3
			v4.2c0,0.6,0.2,1.1,0.5,1.4c0.3,0.3,0.8,0.5,1.4,0.5c0.7,0,1.2-0.2,1.6-0.7c0.4-0.5,0.6-1.1,0.6-1.8v-3.6H163.9z"/>
		<path class="st0" d="M171.9,26.4c0.6,0.7,0.9,1.6,0.9,2.8c0,0.2,0,0.3,0,0.4H167c0.1,0.7,0.4,1.2,0.8,1.6c0.4,0.4,1,0.6,1.6,0.6
			c0.4,0,0.8-0.1,1.2-0.2c0.4-0.2,0.7-0.4,1-0.7l0.7,0.7c-0.4,0.4-0.8,0.7-1.3,0.9c-0.5,0.2-1.1,0.3-1.7,0.3c-0.7,0-1.3-0.2-1.9-0.5
			c-0.6-0.3-1-0.7-1.3-1.3c-0.3-0.6-0.5-1.2-0.5-1.9c0-0.7,0.2-1.3,0.5-1.9c0.3-0.6,0.7-1,1.3-1.3c0.5-0.3,1.2-0.5,1.9-0.5
			C170.4,25.4,171.3,25.8,171.9,26.4z M171.6,28.6c0-0.7-0.3-1.2-0.7-1.6c-0.4-0.4-0.9-0.6-1.6-0.6c-0.6,0-1.2,0.2-1.6,0.6
			c-0.4,0.4-0.7,0.9-0.8,1.6H171.6z"/>
		<path class="st0" d="M177.5,26.6c-0.4-0.1-0.7-0.2-1-0.2c-0.4,0-0.7,0.1-0.9,0.2c-0.2,0.1-0.4,0.4-0.4,0.7c0,0.3,0.1,0.5,0.4,0.7
			c0.3,0.2,0.7,0.3,1.2,0.5c0.5,0.1,0.9,0.3,1.2,0.4c0.3,0.1,0.6,0.4,0.8,0.6c0.2,0.3,0.3,0.7,0.3,1.1c0,0.7-0.3,1.2-0.8,1.6
			s-1.2,0.5-1.9,0.5c-0.5,0-1.1-0.1-1.6-0.3c-0.5-0.2-0.9-0.4-1.3-0.7l0.5-0.9c0.3,0.3,0.7,0.5,1.1,0.7c0.4,0.2,0.9,0.2,1.3,0.2
			c0.4,0,0.8-0.1,1-0.2c0.3-0.2,0.4-0.4,0.4-0.7c0-0.3-0.1-0.6-0.4-0.7c-0.3-0.2-0.7-0.3-1.2-0.5c-0.5-0.1-0.9-0.3-1.2-0.4
			c-0.3-0.1-0.6-0.4-0.8-0.6c-0.2-0.3-0.3-0.6-0.3-1.1c0-0.7,0.2-1.2,0.7-1.5c0.5-0.3,1.1-0.5,1.9-0.5c0.4,0,0.9,0.1,1.3,0.2
			c0.4,0.1,0.8,0.3,1.1,0.5l-0.5,1C178.2,26.9,177.8,26.7,177.5,26.6z"/>
		<path class="st0" d="M184.7,32.3c-0.6,0.4-1.1,0.5-1.7,0.5c-0.6,0-1-0.2-1.4-0.5c-0.4-0.3-0.5-0.9-0.5-1.6v-4h-1v-1h1v-2h1.3v2
			h2.2v1h-2.2v3.8c0,0.4,0.1,0.7,0.2,0.9c0.1,0.2,0.4,0.3,0.7,0.3c0.3,0,0.7-0.1,1.1-0.3L184.7,32.3z"/>
		<path class="st0" d="M188.6,25.8c0.4-0.3,1-0.4,1.6-0.4v1.2c-0.7,0-1.3,0.2-1.8,0.6c-0.5,0.4-0.7,1-0.8,1.7v3.8h-1.3v-7.3h1.3V27
			C187.8,26.5,188.1,26.1,188.6,25.8z"/>
		<path class="st0" d="M195.6,32.7v-1c-0.5,0.7-1.4,1.1-2.5,1.1c-0.5,0-0.9-0.1-1.3-0.3c-0.4-0.2-0.7-0.5-0.9-0.8
			c-0.2-0.3-0.3-0.7-0.3-1.1c0-0.7,0.2-1.2,0.7-1.5c0.5-0.4,1.2-0.6,2-0.6h2.3v-0.3c0-0.5-0.2-0.9-0.5-1.2c-0.3-0.3-0.8-0.4-1.4-0.4
			c-0.7,0-1.5,0.3-2.2,0.8l-0.5-0.9c0.5-0.3,1-0.6,1.5-0.7c0.4-0.2,1-0.2,1.6-0.2c0.9,0,1.6,0.2,2.1,0.7c0.5,0.4,0.7,1.1,0.8,1.9
			l0,4.8H195.6z M194.9,31.3c0.4-0.3,0.7-0.7,0.7-1.1v-0.7h-2.1c-0.6,0-1,0.1-1.3,0.3c-0.3,0.2-0.4,0.4-0.4,0.8
			c0,0.4,0.1,0.7,0.4,0.9c0.3,0.2,0.7,0.3,1.1,0.3C194,31.7,194.5,31.6,194.9,31.3z"/>
		<path class="st0" d="M202.2,26.6c-0.4-0.1-0.7-0.2-1-0.2c-0.4,0-0.7,0.1-0.9,0.2c-0.2,0.1-0.4,0.4-0.4,0.7c0,0.3,0.1,0.5,0.4,0.7
			c0.3,0.2,0.7,0.3,1.2,0.5c0.5,0.1,0.9,0.3,1.2,0.4c0.3,0.1,0.6,0.4,0.8,0.6c0.2,0.3,0.3,0.7,0.3,1.1c0,0.7-0.3,1.2-0.8,1.6
			c-0.5,0.4-1.2,0.5-1.9,0.5c-0.5,0-1.1-0.1-1.6-0.3c-0.5-0.2-0.9-0.4-1.3-0.7l0.5-0.9c0.3,0.3,0.7,0.5,1.1,0.7
			c0.4,0.2,0.9,0.2,1.3,0.2c0.4,0,0.8-0.1,1-0.2c0.3-0.2,0.4-0.4,0.4-0.7c0-0.3-0.1-0.6-0.4-0.7c-0.3-0.2-0.7-0.3-1.2-0.5
			c-0.5-0.1-0.9-0.3-1.2-0.4c-0.3-0.1-0.6-0.4-0.8-0.6c-0.2-0.3-0.3-0.6-0.3-1.1c0-0.7,0.2-1.2,0.7-1.5c0.5-0.3,1.1-0.5,1.9-0.5
			c0.4,0,0.9,0.1,1.3,0.2c0.4,0.1,0.8,0.3,1.1,0.5l-0.5,1C202.9,26.9,202.5,26.7,202.2,26.6z"/>
		<path class="st0" d="M211,23.9c-0.2,0.2-0.3,0.5-0.3,0.9v0.9h2v1h-2v6h-1.3v-6h-0.9v-1h0.9v-0.8c0-0.5,0.1-1,0.3-1.4
			c0.2-0.4,0.5-0.7,0.9-0.8c0.4-0.2,0.8-0.3,1.2-0.3c0.4,0,0.8,0.1,1.3,0.3l-0.3,1c-0.3-0.2-0.6-0.2-0.9-0.2
			C211.5,23.6,211.2,23.7,211,23.9z"/>
		<path class="st0" d="M219.2,26.4c0.6,0.7,0.9,1.6,0.9,2.8c0,0.2,0,0.3,0,0.4h-5.7c0.1,0.7,0.4,1.2,0.8,1.6c0.4,0.4,1,0.6,1.6,0.6
			c0.4,0,0.8-0.1,1.2-0.2c0.4-0.2,0.7-0.4,1-0.7l0.7,0.7c-0.4,0.4-0.8,0.7-1.3,0.9c-0.5,0.2-1.1,0.3-1.7,0.3c-0.7,0-1.3-0.2-1.9-0.5
			c-0.6-0.3-1-0.7-1.3-1.3c-0.3-0.6-0.5-1.2-0.5-1.9c0-0.7,0.2-1.3,0.5-1.9c0.3-0.6,0.7-1,1.3-1.3c0.5-0.3,1.2-0.5,1.9-0.5
			C217.7,25.4,218.6,25.8,219.2,26.4z M218.9,28.6c0-0.7-0.3-1.2-0.7-1.6c-0.4-0.4-0.9-0.6-1.6-0.6c-0.6,0-1.2,0.2-1.6,0.6
			c-0.4,0.4-0.7,0.9-0.8,1.6H218.9z"/>
		<path class="st0" d="M224.8,26.6c-0.5,0-0.9,0.1-1.3,0.3c-0.4,0.2-0.7,0.5-0.9,0.9c-0.2,0.4-0.3,0.8-0.3,1.3
			c0,0.5,0.1,0.9,0.3,1.3c0.2,0.4,0.5,0.7,0.9,0.9c0.4,0.2,0.8,0.3,1.2,0.3c0.5,0,0.9-0.1,1.3-0.2c0.4-0.2,0.7-0.4,0.9-0.7l0.7,0.7
			c-0.3,0.4-0.8,0.7-1.3,0.9c-0.5,0.2-1.1,0.3-1.7,0.3c-0.7,0-1.3-0.2-1.9-0.5c-0.5-0.3-1-0.7-1.3-1.3c-0.3-0.6-0.5-1.2-0.5-1.9
			c0-0.7,0.2-1.4,0.5-1.9c0.3-0.6,0.7-1,1.3-1.3c0.5-0.3,1.2-0.5,1.9-0.5c0.6,0,1.2,0.1,1.7,0.3c0.5,0.2,0.9,0.5,1.2,0.8l-0.7,0.9
			C226.3,26.8,225.6,26.6,224.8,26.6z"/>
		<path class="st0" d="M233.6,32.7v-1c-0.5,0.7-1.4,1.1-2.5,1.1c-0.5,0-0.9-0.1-1.3-0.3c-0.4-0.2-0.7-0.5-0.9-0.8
			c-0.2-0.3-0.3-0.7-0.3-1.1c0-0.7,0.2-1.2,0.7-1.5c0.5-0.4,1.2-0.6,2-0.6h2.3v-0.3c0-0.5-0.2-0.9-0.5-1.2c-0.3-0.3-0.8-0.4-1.4-0.4
			c-0.7,0-1.5,0.3-2.2,0.8l-0.5-0.9c0.5-0.3,1-0.6,1.5-0.7c0.4-0.2,1-0.2,1.6-0.2c0.9,0,1.6,0.2,2.1,0.7c0.5,0.4,0.7,1.1,0.8,1.9
			l0,4.8H233.6z M232.8,31.3c0.4-0.3,0.7-0.7,0.7-1.1v-0.7h-2.1c-0.6,0-1,0.1-1.3,0.3c-0.3,0.2-0.4,0.4-0.4,0.8
			c0,0.4,0.1,0.7,0.4,0.9c0.3,0.2,0.7,0.3,1.1,0.3C231.9,31.7,232.4,31.6,232.8,31.3z"/>
		<path class="st0" d="M237.2,22.5h1.3v10.2h-1.3V22.5z"/>
		<path class="st0" d="M246.5,26.4c0.6,0.7,0.9,1.6,0.9,2.8c0,0.2,0,0.3,0,0.4h-5.7c0.1,0.7,0.4,1.2,0.8,1.6c0.4,0.4,1,0.6,1.6,0.6
			c0.4,0,0.8-0.1,1.2-0.2c0.4-0.2,0.7-0.4,1-0.7l0.7,0.7c-0.4,0.4-0.8,0.7-1.3,0.9c-0.5,0.2-1.1,0.3-1.7,0.3c-0.7,0-1.3-0.2-1.9-0.5
			c-0.6-0.3-1-0.7-1.3-1.3c-0.3-0.6-0.5-1.2-0.5-1.9c0-0.7,0.2-1.3,0.5-1.9c0.3-0.6,0.7-1,1.3-1.3c0.5-0.3,1.2-0.5,1.9-0.5
			C245.1,25.4,245.9,25.8,246.5,26.4z M246.2,28.6c0-0.7-0.3-1.2-0.7-1.6c-0.4-0.4-0.9-0.6-1.6-0.6c-0.6,0-1.2,0.2-1.6,0.6
			c-0.4,0.4-0.7,0.9-0.8,1.6H246.2z"/>
		<path class="st0" d="M252.1,26.6c-0.4-0.1-0.7-0.2-1-0.2c-0.4,0-0.7,0.1-0.9,0.2c-0.2,0.1-0.4,0.4-0.4,0.7c0,0.3,0.1,0.5,0.4,0.7
			c0.3,0.2,0.7,0.3,1.2,0.5c0.5,0.1,0.9,0.3,1.2,0.4c0.3,0.1,0.6,0.4,0.8,0.6c0.2,0.3,0.3,0.7,0.3,1.1c0,0.7-0.3,1.2-0.8,1.6
			c-0.5,0.4-1.2,0.5-1.9,0.5c-0.5,0-1.1-0.1-1.6-0.3c-0.5-0.2-0.9-0.4-1.3-0.7l0.5-0.9c0.3,0.3,0.7,0.5,1.1,0.7
			c0.4,0.2,0.9,0.2,1.3,0.2c0.4,0,0.8-0.1,1-0.2c0.3-0.2,0.4-0.4,0.4-0.7c0-0.3-0.1-0.6-0.4-0.7c-0.3-0.2-0.7-0.3-1.2-0.5
			c-0.5-0.1-0.9-0.3-1.2-0.4c-0.3-0.1-0.6-0.4-0.8-0.6c-0.2-0.3-0.3-0.6-0.3-1.1c0-0.7,0.2-1.2,0.7-1.5c0.5-0.3,1.1-0.5,1.9-0.5
			c0.4,0,0.9,0.1,1.3,0.2c0.4,0.1,0.8,0.3,1.1,0.5l-0.5,1C252.8,26.9,252.5,26.7,252.1,26.6z"/>
		<path class="st0" d="M260.7,35c-0.4,0.3-0.8,0.4-1.3,0.4c-0.3,0-0.6,0-0.9-0.1c-0.3-0.1-0.5-0.2-0.7-0.4l0.5-1
			c0.3,0.2,0.6,0.3,1,0.3c0.5,0,1-0.3,1.2-0.9l0.3-0.6l-3-7.2h1.3l2.3,5.8l2.2-5.8h1.3l-3.3,8.3C261.4,34.3,261.1,34.7,260.7,35z"/>
		<path class="st0" d="M276.2,25.5v7.3h-1.3v-1.5c-0.5,1-1.4,1.6-2.7,1.6c-0.8,0-1.5-0.2-2-0.7c-0.5-0.5-0.7-1.2-0.7-2.1v-4.5h1.3
			v4.2c0,0.6,0.2,1.1,0.5,1.4c0.3,0.3,0.8,0.5,1.4,0.5c0.7,0,1.2-0.2,1.6-0.7c0.4-0.5,0.6-1.1,0.6-1.8v-3.6H276.2z"/>
		<path class="st0" d="M284.7,26.2c0.5,0.5,0.7,1.2,0.7,2.1v4.5h-1.3v-4.2c0-0.6-0.2-1.1-0.5-1.4c-0.3-0.3-0.8-0.5-1.4-0.5
			c-0.7,0-1.2,0.2-1.6,0.6c-0.4,0.4-0.6,0.9-0.7,1.6v3.9h-1.3v-7.3h1.3V27c0.5-1,1.4-1.6,2.8-1.6C283.5,25.4,284.2,25.7,284.7,26.2z
			"/>
		<path class="st0" d="M292.1,32.7v-1c-0.5,0.7-1.4,1.1-2.5,1.1c-0.5,0-0.9-0.1-1.3-0.3c-0.4-0.2-0.7-0.5-0.9-0.8
			c-0.2-0.3-0.3-0.7-0.3-1.1c0-0.7,0.2-1.2,0.7-1.5c0.5-0.4,1.2-0.6,2-0.6h2.3v-0.3c0-0.5-0.2-0.9-0.5-1.2c-0.3-0.3-0.8-0.4-1.4-0.4
			c-0.7,0-1.5,0.3-2.2,0.8l-0.5-0.9c0.5-0.3,1-0.6,1.5-0.7c0.4-0.2,1-0.2,1.6-0.2c0.9,0,1.6,0.2,2.1,0.7c0.5,0.4,0.7,1.1,0.8,1.9
			l0,4.8H292.1z M291.4,31.3c0.4-0.3,0.7-0.7,0.7-1.1v-0.7H290c-0.6,0-1,0.1-1.3,0.3c-0.3,0.2-0.4,0.4-0.4,0.8
			c0,0.4,0.1,0.7,0.4,0.9c0.3,0.2,0.7,0.3,1.1,0.3C290.5,31.7,291,31.6,291.4,31.3z"/>
		<path class="st0" d="M310.6,26.2c0.5,0.5,0.7,1.2,0.7,2.1v4.5h-1.3v-4.2c0-0.6-0.2-1.1-0.5-1.4c-0.3-0.3-0.8-0.5-1.4-0.5
			c-0.7,0-1.2,0.3-1.6,0.7c-0.4,0.5-0.6,1.1-0.6,1.8v3.6h-1.3v-4.2c0-0.6-0.2-1.1-0.5-1.4c-0.3-0.3-0.8-0.5-1.4-0.5
			c-0.7,0-1.2,0.3-1.6,0.7c-0.4,0.5-0.6,1.1-0.6,1.8v3.6h-1.3v-7.3h1.3V27c0.5-1,1.4-1.5,2.7-1.6c0.7,0,1.2,0.2,1.7,0.5
			c0.4,0.3,0.7,0.8,0.9,1.3c0.4-1.2,1.4-1.8,2.8-1.8C309.5,25.4,310.2,25.7,310.6,26.2z"/>
		<path class="st0" d="M318.1,32.7v-1c-0.5,0.7-1.4,1.1-2.5,1.1c-0.5,0-0.9-0.1-1.3-0.3c-0.4-0.2-0.7-0.5-0.9-0.8
			c-0.2-0.3-0.3-0.7-0.3-1.1c0-0.7,0.2-1.2,0.7-1.5c0.5-0.4,1.2-0.6,2-0.6h2.3v-0.3c0-0.5-0.2-0.9-0.5-1.2c-0.3-0.3-0.8-0.4-1.4-0.4
			c-0.7,0-1.5,0.3-2.2,0.8l-0.5-0.9c0.5-0.3,1-0.6,1.5-0.7c0.4-0.2,1-0.2,1.6-0.2c0.9,0,1.6,0.2,2.1,0.7c0.5,0.4,0.7,1.1,0.8,1.9
			l0,4.8H318.1z M317.3,31.3c0.4-0.3,0.7-0.7,0.7-1.1v-0.7h-2.1c-0.6,0-1,0.1-1.3,0.3c-0.3,0.2-0.4,0.4-0.4,0.8
			c0,0.4,0.1,0.7,0.4,0.9c0.3,0.2,0.7,0.3,1.1,0.3C316.4,31.7,316.9,31.6,317.3,31.3z"/>
		<path class="st0" d="M323,35c-0.4,0.3-0.8,0.4-1.3,0.4c-0.3,0-0.6,0-0.9-0.1c-0.3-0.1-0.5-0.2-0.7-0.4l0.5-1
			c0.3,0.2,0.6,0.3,1,0.3c0.5,0,1-0.3,1.2-0.9l0.3-0.6l-3-7.2h1.3l2.3,5.8l2.2-5.8h1.3l-3.3,8.3C323.7,34.3,323.4,34.7,323,35z"/>
		<path class="st0" d="M333.1,25.9c0.6,0.3,1,0.7,1.3,1.3c0.3,0.6,0.5,1.2,0.5,1.9c0,0.7-0.2,1.4-0.5,1.9c-0.3,0.6-0.8,1-1.3,1.3
			c-0.6,0.3-1.2,0.5-1.9,0.5c-0.7,0-1.4-0.2-1.9-0.5c-0.6-0.3-1-0.7-1.3-1.3c-0.3-0.6-0.5-1.2-0.5-1.9c0-0.7,0.2-1.3,0.5-1.9
			c0.3-0.6,0.8-1,1.3-1.3c0.6-0.3,1.2-0.5,1.9-0.5C331.9,25.4,332.6,25.6,333.1,25.9z M329.9,26.9c-0.4,0.2-0.7,0.5-0.9,0.9
			c-0.2,0.4-0.3,0.8-0.3,1.3c0,0.5,0.1,1,0.3,1.3c0.2,0.4,0.5,0.7,0.9,0.9c0.4,0.2,0.8,0.3,1.3,0.3c0.5,0,0.9-0.1,1.3-0.3
			c0.4-0.2,0.7-0.5,0.9-0.9c0.2-0.4,0.3-0.8,0.3-1.3c0-0.5-0.1-0.9-0.3-1.3c-0.2-0.4-0.5-0.7-0.9-0.9c-0.4-0.2-0.8-0.3-1.3-0.3
			C330.7,26.5,330.3,26.6,329.9,26.9z"/>
		<path class="st0" d="M339,25.8c0.4-0.3,1-0.4,1.6-0.4v1.2c-0.7,0-1.3,0.2-1.8,0.6c-0.5,0.4-0.7,1-0.8,1.7v3.8h-1.3v-7.3h1.3V27
			C338.2,26.5,338.6,26.1,339,25.8z"/>
		<path class="st0" d="M351.4,25.9c0.5,0.3,0.9,0.7,1.2,1.3c0.3,0.6,0.4,1.2,0.4,1.9c0,0.7-0.1,1.3-0.4,1.9c-0.3,0.6-0.7,1-1.2,1.3
			c-0.5,0.3-1.1,0.5-1.8,0.5c-0.6,0-1.2-0.1-1.6-0.4c-0.5-0.3-0.8-0.6-1.1-1.1v4.1h-1.3v-9.9h1.3v1.4c0.3-0.5,0.6-0.8,1.1-1.1
			c0.5-0.3,1-0.4,1.6-0.4C350.3,25.4,350.9,25.6,351.4,25.9z M350.6,31.3c0.4-0.2,0.7-0.5,0.9-0.9c0.2-0.4,0.3-0.8,0.3-1.3
			c0-0.5-0.1-0.9-0.3-1.3c-0.2-0.4-0.5-0.7-0.9-0.9c-0.4-0.2-0.8-0.3-1.3-0.3c-0.5,0-0.9,0.1-1.3,0.3c-0.4,0.2-0.7,0.5-0.9,0.9
			c-0.2,0.4-0.3,0.8-0.3,1.3c0,0.5,0.1,1,0.3,1.3c0.2,0.4,0.5,0.7,0.9,0.9c0.4,0.2,0.8,0.3,1.3,0.3
			C349.8,31.7,350.3,31.5,350.6,31.3z"/>
		<path class="st0" d="M360.4,26.4c0.6,0.7,0.9,1.6,0.9,2.8c0,0.2,0,0.3,0,0.4h-5.7c0.1,0.7,0.4,1.2,0.8,1.6c0.4,0.4,1,0.6,1.6,0.6
			c0.4,0,0.8-0.1,1.2-0.2c0.4-0.2,0.7-0.4,1-0.7l0.7,0.7c-0.4,0.4-0.8,0.7-1.3,0.9c-0.5,0.2-1.1,0.3-1.7,0.3c-0.7,0-1.3-0.2-1.9-0.5
			c-0.6-0.3-1-0.7-1.3-1.3c-0.3-0.6-0.5-1.2-0.5-1.9c0-0.7,0.2-1.3,0.5-1.9c0.3-0.6,0.7-1,1.3-1.3c0.5-0.3,1.2-0.5,1.9-0.5
			C358.9,25.4,359.8,25.8,360.4,26.4z M360.1,28.6c0-0.7-0.3-1.2-0.7-1.6c-0.4-0.4-0.9-0.6-1.6-0.6c-0.6,0-1.2,0.2-1.6,0.6
			c-0.4,0.4-0.7,0.9-0.8,1.6H360.1z"/>
		<path class="st0" d="M365.3,25.8c0.4-0.3,1-0.4,1.6-0.4v1.2c-0.7,0-1.3,0.2-1.8,0.6c-0.5,0.4-0.7,1-0.8,1.7v3.8H363v-7.3h1.3V27
			C364.5,26.5,364.8,26.1,365.3,25.8z"/>
		<path class="st0" d="M371.2,26.6c-0.4-0.1-0.7-0.2-1-0.2c-0.4,0-0.7,0.1-0.9,0.2c-0.2,0.1-0.4,0.4-0.4,0.7c0,0.3,0.1,0.5,0.4,0.7
			c0.3,0.2,0.7,0.3,1.2,0.5c0.5,0.1,0.9,0.3,1.2,0.4c0.3,0.1,0.6,0.4,0.8,0.6c0.2,0.3,0.3,0.7,0.3,1.1c0,0.7-0.3,1.2-0.8,1.6
			c-0.5,0.4-1.2,0.5-1.9,0.5c-0.5,0-1.1-0.1-1.6-0.3c-0.5-0.2-0.9-0.4-1.3-0.7l0.5-0.9c0.3,0.3,0.7,0.5,1.1,0.7
			c0.4,0.2,0.9,0.2,1.3,0.2c0.4,0,0.8-0.1,1-0.2c0.3-0.2,0.4-0.4,0.4-0.7c0-0.3-0.1-0.6-0.4-0.7c-0.3-0.2-0.7-0.3-1.2-0.5
			c-0.5-0.1-0.9-0.3-1.2-0.4c-0.3-0.1-0.6-0.4-0.8-0.6c-0.2-0.3-0.3-0.6-0.3-1.1c0-0.7,0.2-1.2,0.7-1.5c0.5-0.3,1.1-0.5,1.9-0.5
			c0.4,0,0.9,0.1,1.3,0.2c0.4,0.1,0.8,0.3,1.1,0.5l-0.5,1C371.9,26.9,371.6,26.7,371.2,26.6z"/>
		<path class="st0" d="M375.8,22.8c0.2,0.2,0.2,0.4,0.2,0.6c0,0.2-0.1,0.4-0.2,0.6c-0.2,0.2-0.3,0.2-0.6,0.2c-0.2,0-0.4-0.1-0.6-0.2
			c-0.2-0.2-0.2-0.4-0.2-0.6c0-0.2,0.1-0.4,0.2-0.6c0.2-0.2,0.3-0.2,0.6-0.2C375.4,22.6,375.6,22.6,375.8,22.8z M374.6,25.5h1.3v7.3
			h-1.3V25.5z"/>
		<path class="st0" d="M381.3,26.6c-0.4-0.1-0.7-0.2-1-0.2c-0.4,0-0.7,0.1-0.9,0.2c-0.2,0.1-0.4,0.4-0.4,0.7c0,0.3,0.1,0.5,0.4,0.7
			c0.3,0.2,0.7,0.3,1.2,0.5c0.5,0.1,0.9,0.3,1.2,0.4c0.3,0.1,0.6,0.4,0.8,0.6c0.2,0.3,0.3,0.7,0.3,1.1c0,0.7-0.3,1.2-0.8,1.6
			c-0.5,0.4-1.2,0.5-1.9,0.5c-0.5,0-1.1-0.1-1.6-0.3c-0.5-0.2-0.9-0.4-1.3-0.7l0.5-0.9c0.3,0.3,0.7,0.5,1.1,0.7
			c0.4,0.2,0.9,0.2,1.3,0.2c0.4,0,0.8-0.1,1-0.2c0.3-0.2,0.4-0.4,0.4-0.7c0-0.3-0.1-0.6-0.4-0.7c-0.3-0.2-0.7-0.3-1.2-0.5
			c-0.5-0.1-0.9-0.3-1.2-0.4c-0.3-0.1-0.6-0.4-0.8-0.6c-0.2-0.3-0.3-0.6-0.3-1.1c0-0.7,0.2-1.2,0.7-1.5c0.5-0.3,1.1-0.5,1.9-0.5
			c0.4,0,0.9,0.1,1.3,0.2c0.4,0.1,0.8,0.3,1.1,0.5l-0.5,1C382,26.9,381.7,26.7,381.3,26.6z"/>
		<path class="st0" d="M388.6,32.3c-0.6,0.4-1.1,0.5-1.7,0.5c-0.6,0-1-0.2-1.4-0.5c-0.4-0.3-0.5-0.9-0.5-1.6v-4h-1v-1h1v-2h1.3v2
			h2.2v1h-2.2v3.8c0,0.4,0.1,0.7,0.2,0.9c0.1,0.2,0.4,0.3,0.7,0.3c0.3,0,0.7-0.1,1.1-0.3L388.6,32.3z"/>
		<path class="st0" d="M395.5,26.4c0.6,0.7,0.9,1.6,0.9,2.8c0,0.2,0,0.3,0,0.4h-5.7c0.1,0.7,0.4,1.2,0.8,1.6c0.4,0.4,1,0.6,1.6,0.6
			c0.4,0,0.8-0.1,1.2-0.2c0.4-0.2,0.7-0.4,1-0.7l0.7,0.7c-0.4,0.4-0.8,0.7-1.3,0.9c-0.5,0.2-1.1,0.3-1.7,0.3c-0.7,0-1.3-0.2-1.9-0.5
			c-0.6-0.3-1-0.7-1.3-1.3c-0.3-0.6-0.5-1.2-0.5-1.9c0-0.7,0.2-1.3,0.5-1.9c0.3-0.6,0.7-1,1.3-1.3c0.5-0.3,1.2-0.5,1.9-0.5
			C394.1,25.4,394.9,25.8,395.5,26.4z M395.2,28.6c0-0.7-0.3-1.2-0.7-1.6c-0.4-0.4-0.9-0.6-1.6-0.6c-0.6,0-1.2,0.2-1.6,0.6
			c-0.4,0.4-0.7,0.9-0.8,1.6H395.2z"/>
		<path class="st0" d="M404.1,26.2c0.5,0.5,0.7,1.2,0.7,2.1v4.5h-1.3v-4.2c0-0.6-0.2-1.1-0.5-1.4c-0.3-0.3-0.8-0.5-1.4-0.5
			c-0.7,0-1.2,0.2-1.6,0.6c-0.4,0.4-0.6,0.9-0.7,1.6v3.9h-1.3v-7.3h1.3V27c0.5-1,1.4-1.6,2.8-1.6C403,25.4,403.7,25.7,404.1,26.2z"
			/>
		<path class="st0" d="M410.2,26.6c-0.5,0-0.9,0.1-1.3,0.3s-0.7,0.5-0.9,0.9c-0.2,0.4-0.3,0.8-0.3,1.3c0,0.5,0.1,0.9,0.3,1.3
			c0.2,0.4,0.5,0.7,0.9,0.9c0.4,0.2,0.8,0.3,1.2,0.3s0.9-0.1,1.3-0.2c0.4-0.2,0.7-0.4,0.9-0.7l0.7,0.7c-0.3,0.4-0.8,0.7-1.3,0.9
			c-0.5,0.2-1.1,0.3-1.7,0.3c-0.7,0-1.3-0.2-1.9-0.5c-0.5-0.3-1-0.7-1.3-1.3c-0.3-0.6-0.5-1.2-0.5-1.9c0-0.7,0.2-1.4,0.5-1.9
			c0.3-0.6,0.7-1,1.3-1.3c0.5-0.3,1.2-0.5,1.9-0.5c0.6,0,1.2,0.1,1.7,0.3c0.5,0.2,0.9,0.5,1.2,0.8l-0.7,0.9
			C411.7,26.8,411,26.6,410.2,26.6z"/>
		<path class="st0" d="M416.1,22.8c0.2,0.2,0.2,0.4,0.2,0.6c0,0.2-0.1,0.4-0.2,0.6c-0.2,0.2-0.3,0.2-0.6,0.2c-0.2,0-0.4-0.1-0.6-0.2
			c-0.2-0.2-0.2-0.4-0.2-0.6c0-0.2,0.1-0.4,0.2-0.6c0.2-0.2,0.3-0.2,0.6-0.2C415.7,22.6,415.9,22.6,416.1,22.8z M414.9,25.5h1.3v7.3
			h-1.3V25.5z"/>
		<path class="st0" d="M423.1,32.7v-1c-0.5,0.7-1.4,1.1-2.5,1.1c-0.5,0-0.9-0.1-1.3-0.3c-0.4-0.2-0.7-0.5-0.9-0.8
			c-0.2-0.3-0.3-0.7-0.3-1.1c0-0.7,0.2-1.2,0.7-1.5c0.5-0.4,1.2-0.6,2-0.6h2.3v-0.3c0-0.5-0.2-0.9-0.5-1.2c-0.3-0.3-0.8-0.4-1.4-0.4
			c-0.7,0-1.5,0.3-2.2,0.8l-0.5-0.9c0.5-0.3,1-0.6,1.5-0.7c0.4-0.2,1-0.2,1.6-0.2c0.9,0,1.6,0.2,2.1,0.7c0.5,0.4,0.7,1.1,0.8,1.9
			l0,4.8H423.1z M422.3,31.3c0.4-0.3,0.7-0.7,0.7-1.1v-0.7h-2.1c-0.6,0-1,0.1-1.3,0.3c-0.3,0.2-0.4,0.4-0.4,0.8
			c0,0.4,0.1,0.7,0.4,0.9c0.3,0.2,0.7,0.3,1.1,0.3C421.4,31.7,421.9,31.6,422.3,31.3z"/>
		<path class="st0" d="M427.3,31.5c0.1,0.1,0.2,0.3,0.2,0.5c0,0.1,0,0.2-0.1,0.3c0,0.1-0.1,0.2-0.1,0.3l-0.7,1.6h-0.7l0.5-1.6
			c-0.1-0.1-0.2-0.2-0.3-0.3c-0.1-0.1-0.1-0.2-0.1-0.4c0-0.2,0.1-0.4,0.2-0.5c0.1-0.1,0.3-0.2,0.5-0.2
			C427,31.3,427.2,31.4,427.3,31.5z"/>
		<path class="st0" d="M433.1,22.5h1.3v10.2h-1.3V22.5z"/>
		<path class="st0" d="M441.9,25.9c0.6,0.3,1,0.7,1.3,1.3c0.3,0.6,0.5,1.2,0.5,1.9c0,0.7-0.2,1.4-0.5,1.9c-0.3,0.6-0.8,1-1.3,1.3
			c-0.6,0.3-1.2,0.5-1.9,0.5c-0.7,0-1.4-0.2-1.9-0.5c-0.6-0.3-1-0.7-1.3-1.3c-0.3-0.6-0.5-1.2-0.5-1.9c0-0.7,0.2-1.3,0.5-1.9
			c0.3-0.6,0.8-1,1.3-1.3c0.6-0.3,1.2-0.5,1.9-0.5C440.7,25.4,441.3,25.6,441.9,25.9z M438.7,26.9c-0.4,0.2-0.7,0.5-0.9,0.9
			c-0.2,0.4-0.3,0.8-0.3,1.3c0,0.5,0.1,1,0.3,1.3c0.2,0.4,0.5,0.7,0.9,0.9c0.4,0.2,0.8,0.3,1.3,0.3c0.5,0,0.9-0.1,1.3-0.3
			c0.4-0.2,0.7-0.5,0.9-0.9c0.2-0.4,0.3-0.8,0.3-1.3c0-0.5-0.1-0.9-0.3-1.3c-0.2-0.4-0.5-0.7-0.9-0.9c-0.4-0.2-0.8-0.3-1.3-0.3
			C439.5,26.5,439.1,26.6,438.7,26.9z"/>
		<path class="st0" d="M455.9,25.5v9.9h-1.3v-4.1c-0.3,0.5-0.6,0.9-1.1,1.1c-0.5,0.3-1,0.4-1.6,0.4c-0.7,0-1.3-0.2-1.8-0.5
			c-0.5-0.3-0.9-0.8-1.2-1.3c-0.3-0.6-0.4-1.2-0.4-1.9c0-0.7,0.1-1.3,0.4-1.9c0.3-0.6,0.7-1,1.2-1.3c0.5-0.3,1.1-0.5,1.8-0.5
			c0.6,0,1.2,0.1,1.6,0.4c0.5,0.3,0.8,0.6,1.1,1.1v-1.4H455.9z M453.4,31.4c0.4-0.2,0.7-0.5,0.9-0.9c0.2-0.4,0.3-0.8,0.3-1.3
			c0-0.5-0.1-1-0.3-1.3c-0.2-0.4-0.5-0.7-0.9-0.9c-0.4-0.2-0.8-0.3-1.3-0.3c-0.5,0-0.9,0.1-1.3,0.3s-0.7,0.5-0.9,0.9
			c-0.2,0.4-0.3,0.8-0.3,1.3c0,0.5,0.1,0.9,0.3,1.3c0.2,0.4,0.5,0.7,0.9,0.9c0.4,0.2,0.8,0.3,1.3,0.3
			C452.6,31.7,453,31.6,453.4,31.4z"/>
		<path class="st0" d="M464.9,25.5v7.3h-1.3v-1.5c-0.5,1-1.4,1.6-2.7,1.6c-0.8,0-1.5-0.2-2-0.7c-0.5-0.5-0.7-1.2-0.7-2.1v-4.5h1.3
			v4.2c0,0.6,0.2,1.1,0.5,1.4c0.3,0.3,0.8,0.5,1.4,0.5c0.7,0,1.2-0.2,1.6-0.7c0.4-0.5,0.6-1.1,0.6-1.8v-3.6H464.9z"/>
		<path class="st0" d="M472.8,26.4c0.6,0.7,0.9,1.6,0.9,2.8c0,0.2,0,0.3,0,0.4h-5.7c0.1,0.7,0.4,1.2,0.8,1.6c0.4,0.4,1,0.6,1.6,0.6
			c0.4,0,0.8-0.1,1.2-0.2c0.4-0.2,0.7-0.4,1-0.7l0.7,0.7c-0.4,0.4-0.8,0.7-1.3,0.9c-0.5,0.2-1.1,0.3-1.7,0.3c-0.7,0-1.3-0.2-1.9-0.5
			c-0.6-0.3-1-0.7-1.3-1.3c-0.3-0.6-0.5-1.2-0.5-1.9c0-0.7,0.2-1.3,0.5-1.9c0.3-0.6,0.7-1,1.3-1.3c0.5-0.3,1.2-0.5,1.9-0.5
			C471.4,25.4,472.3,25.8,472.8,26.4z M472.5,28.6c0-0.7-0.3-1.2-0.7-1.6c-0.4-0.4-0.9-0.6-1.6-0.6c-0.6,0-1.2,0.2-1.6,0.6
			c-0.4,0.4-0.7,0.9-0.8,1.6H472.5z"/>
		<path class="st0" d="M7.7,45c-0.4-0.1-0.7-0.2-1-0.2c-0.4,0-0.7,0.1-0.9,0.2c-0.2,0.1-0.4,0.4-0.4,0.7c0,0.3,0.1,0.5,0.4,0.7
			c0.3,0.2,0.7,0.3,1.2,0.5c0.5,0.1,0.9,0.3,1.2,0.4c0.3,0.1,0.6,0.4,0.8,0.6c0.2,0.3,0.3,0.7,0.3,1.1c0,0.7-0.3,1.2-0.8,1.6
			c-0.5,0.4-1.2,0.5-1.9,0.5c-0.5,0-1.1-0.1-1.6-0.3c-0.5-0.2-0.9-0.4-1.3-0.7l0.5-0.9c0.3,0.3,0.7,0.5,1.1,0.7
			c0.4,0.2,0.9,0.2,1.3,0.2c0.4,0,0.8-0.1,1-0.2c0.3-0.2,0.4-0.4,0.4-0.7c0-0.3-0.1-0.6-0.4-0.7c-0.3-0.2-0.7-0.3-1.2-0.5
			c-0.5-0.1-0.9-0.3-1.2-0.4c-0.3-0.1-0.6-0.4-0.8-0.6c-0.2-0.3-0.3-0.6-0.3-1.1c0-0.7,0.2-1.2,0.7-1.5c0.5-0.3,1.1-0.5,1.9-0.5
			c0.4,0,0.9,0.1,1.3,0.2c0.4,0.1,0.8,0.3,1.1,0.5l-0.5,1C8.4,45.2,8,45.1,7.7,45z"/>
		<path class="st0" d="M17.5,43.8v7.3h-1.3v-1.5c-0.5,1-1.4,1.6-2.7,1.6c-0.8,0-1.5-0.2-2-0.7c-0.5-0.5-0.7-1.2-0.7-2.1v-4.5h1.3
			v4.2c0,0.6,0.2,1.1,0.5,1.4c0.3,0.3,0.8,0.5,1.4,0.5c0.7,0,1.2-0.2,1.6-0.7c0.4-0.5,0.6-1.1,0.6-1.8v-3.6H17.5z"/>
		<path class="st0" d="M26.4,43.8v6.5c0,0.7-0.2,1.3-0.5,1.8c-0.3,0.5-0.7,0.9-1.3,1.2c-0.6,0.3-1.2,0.4-2,0.4c-1.1,0-2.1-0.3-3-1
			l0.6-0.9c0.4,0.3,0.7,0.5,1.1,0.7c0.4,0.1,0.8,0.2,1.3,0.2c0.8,0,1.4-0.2,1.8-0.6c0.4-0.4,0.7-1,0.7-1.7v-1c-0.3,0.4-0.6,0.8-1,1
			c-0.4,0.2-0.9,0.4-1.5,0.4c-0.7,0-1.2-0.1-1.7-0.4c-0.5-0.3-0.9-0.7-1.2-1.2c-0.3-0.5-0.4-1.1-0.4-1.8c0-0.7,0.1-1.3,0.4-1.8
			c0.3-0.5,0.7-0.9,1.2-1.2c0.5-0.3,1.1-0.4,1.7-0.4c0.6,0,1.1,0.1,1.5,0.4c0.4,0.2,0.8,0.6,1,1v-1.3H26.4z M24,49.4
			c0.3-0.2,0.6-0.5,0.8-0.9c0.2-0.4,0.3-0.8,0.3-1.3c0-0.5-0.1-0.9-0.3-1.3c-0.2-0.4-0.5-0.7-0.8-0.9c-0.3-0.2-0.7-0.3-1.2-0.3
			c-0.4,0-0.8,0.1-1.2,0.3c-0.4,0.2-0.6,0.5-0.8,0.9c-0.2,0.4-0.3,0.8-0.3,1.3c0,0.7,0.2,1.3,0.7,1.8c0.4,0.5,1,0.7,1.7,0.7
			C23.2,49.7,23.6,49.6,24,49.4z"/>
		<path class="st0" d="M29.9,41.1c0.2,0.2,0.2,0.4,0.2,0.6c0,0.2-0.1,0.4-0.2,0.6c-0.2,0.2-0.3,0.2-0.6,0.2c-0.2,0-0.4-0.1-0.6-0.2
			c-0.2-0.2-0.2-0.4-0.2-0.6c0-0.2,0.1-0.4,0.2-0.6c0.2-0.2,0.3-0.2,0.6-0.2C29.6,40.9,29.8,41,29.9,41.1z M28.7,43.8H30v7.3h-1.3
			V43.8z"/>
		<path class="st0" d="M38,44.7c0.6,0.7,0.9,1.6,0.9,2.8c0,0.2,0,0.3,0,0.4h-5.7c0.1,0.7,0.4,1.2,0.8,1.6c0.4,0.4,1,0.6,1.6,0.6
			c0.4,0,0.8-0.1,1.2-0.2c0.4-0.2,0.7-0.4,1-0.7l0.7,0.7c-0.4,0.4-0.8,0.7-1.3,0.9c-0.5,0.2-1.1,0.3-1.7,0.3c-0.7,0-1.3-0.2-1.9-0.5
			c-0.6-0.3-1-0.7-1.3-1.3c-0.3-0.6-0.5-1.2-0.5-1.9c0-0.7,0.2-1.3,0.5-1.9c0.3-0.6,0.7-1,1.3-1.3c0.5-0.3,1.2-0.5,1.9-0.5
			C36.5,43.8,37.4,44.1,38,44.7z M37.7,46.9c0-0.7-0.3-1.2-0.7-1.6c-0.4-0.4-0.9-0.6-1.6-0.6c-0.6,0-1.2,0.2-1.6,0.6
			c-0.4,0.4-0.7,0.9-0.8,1.6H37.7z"/>
		<path class="st0" d="M42.9,44.2c0.4-0.3,1-0.4,1.6-0.4V45c-0.7,0-1.3,0.2-1.8,0.6c-0.5,0.4-0.7,1-0.8,1.7v3.8h-1.3v-7.3h1.3v1.6
			C42.1,44.8,42.4,44.4,42.9,44.2z"/>
		<path class="st0" d="M51.3,44.7c0.6,0.7,0.9,1.6,0.9,2.8c0,0.2,0,0.3,0,0.4h-5.7c0.1,0.7,0.4,1.2,0.8,1.6c0.4,0.4,1,0.6,1.6,0.6
			c0.4,0,0.8-0.1,1.2-0.2c0.4-0.2,0.7-0.4,1-0.7l0.7,0.7c-0.4,0.4-0.8,0.7-1.3,0.9c-0.5,0.2-1.1,0.3-1.7,0.3c-0.7,0-1.3-0.2-1.9-0.5
			c-0.6-0.3-1-0.7-1.3-1.3c-0.3-0.6-0.5-1.2-0.5-1.9c0-0.7,0.2-1.3,0.5-1.9c0.3-0.6,0.7-1,1.3-1.3c0.5-0.3,1.2-0.5,1.9-0.5
			C49.9,43.8,50.7,44.1,51.3,44.7z M51,46.9c0-0.7-0.3-1.2-0.7-1.6c-0.4-0.4-0.9-0.6-1.6-0.6c-0.6,0-1.2,0.2-1.6,0.6
			c-0.4,0.4-0.7,0.9-0.8,1.6H51z"/>
		<path class="st0" d="M63.9,43.8v7.3h-1.3v-1.5c-0.5,1-1.4,1.6-2.7,1.6c-0.8,0-1.5-0.2-2-0.7c-0.5-0.5-0.7-1.2-0.7-2.1v-4.5h1.3
			v4.2c0,0.6,0.2,1.1,0.5,1.4c0.3,0.3,0.8,0.5,1.4,0.5c0.7,0,1.2-0.2,1.6-0.7c0.4-0.5,0.6-1.1,0.6-1.8v-3.6H63.9z"/>
		<path class="st0" d="M72.5,44.5c0.5,0.5,0.7,1.2,0.7,2.1v4.5h-1.3v-4.2c0-0.6-0.2-1.1-0.5-1.4C71.1,45.1,70.6,45,70,45
			c-0.7,0-1.2,0.2-1.6,0.6c-0.4,0.4-0.6,0.9-0.7,1.6v3.9h-1.3v-7.3h1.3v1.5c0.5-1,1.4-1.6,2.8-1.6C71.3,43.8,72,44,72.5,44.5z"/>
		<path class="st0" d="M79.9,51.1v-1c-0.5,0.7-1.4,1.1-2.5,1.1c-0.5,0-0.9-0.1-1.3-0.3c-0.4-0.2-0.7-0.5-0.9-0.8
			c-0.2-0.3-0.3-0.7-0.3-1.1c0-0.7,0.2-1.2,0.7-1.5c0.5-0.4,1.2-0.6,2-0.6h2.3v-0.3c0-0.5-0.2-0.9-0.5-1.2c-0.3-0.3-0.8-0.4-1.4-0.4
			c-0.7,0-1.5,0.3-2.2,0.8l-0.5-0.9c0.5-0.3,1-0.6,1.5-0.7c0.4-0.2,1-0.2,1.6-0.2c0.9,0,1.6,0.2,2.1,0.7c0.5,0.4,0.7,1.1,0.8,1.9
			l0,4.8H79.9z M79.2,49.6c0.4-0.3,0.7-0.7,0.7-1.1v-0.7h-2.1c-0.6,0-1,0.1-1.3,0.3c-0.3,0.2-0.4,0.4-0.4,0.8c0,0.4,0.1,0.7,0.4,0.9
			c0.3,0.2,0.7,0.3,1.1,0.3C78.2,50.1,78.8,49.9,79.2,49.6z"/>
		<path class="st0" d="M98.4,44.5c0.5,0.5,0.7,1.2,0.7,2.1v4.5h-1.3v-4.2c0-0.6-0.2-1.1-0.5-1.4c-0.3-0.3-0.8-0.5-1.4-0.5
			c-0.7,0-1.2,0.3-1.6,0.7c-0.4,0.5-0.6,1.1-0.6,1.8v3.6h-1.3v-4.2c0-0.6-0.2-1.1-0.5-1.4c-0.3-0.3-0.8-0.5-1.4-0.5
			c-0.7,0-1.2,0.3-1.6,0.7c-0.4,0.5-0.6,1.1-0.6,1.8v3.6h-1.3v-7.3h1.3v1.5c0.5-1,1.4-1.5,2.7-1.6c0.7,0,1.2,0.2,1.7,0.5
			c0.4,0.3,0.7,0.8,0.9,1.3c0.4-1.2,1.4-1.8,2.8-1.8C97.3,43.8,98,44,98.4,44.5z"/>
		<path class="st0" d="M106.9,44.7c0.6,0.7,0.9,1.6,0.9,2.8c0,0.2,0,0.3,0,0.4H102c0.1,0.7,0.4,1.2,0.8,1.6c0.4,0.4,1,0.6,1.6,0.6
			c0.4,0,0.8-0.1,1.2-0.2c0.4-0.2,0.7-0.4,1-0.7l0.7,0.7c-0.4,0.4-0.8,0.7-1.3,0.9c-0.5,0.2-1.1,0.3-1.7,0.3c-0.7,0-1.3-0.2-1.9-0.5
			c-0.6-0.3-1-0.7-1.3-1.3c-0.3-0.6-0.5-1.2-0.5-1.9c0-0.7,0.2-1.3,0.5-1.9c0.3-0.6,0.7-1,1.3-1.3c0.5-0.3,1.2-0.5,1.9-0.5
			C105.5,43.8,106.3,44.1,106.9,44.7z M106.6,46.9c0-0.7-0.3-1.2-0.7-1.6c-0.4-0.4-0.9-0.6-1.6-0.6c-0.6,0-1.2,0.2-1.6,0.6
			c-0.4,0.4-0.7,0.9-0.8,1.6H106.6z"/>
		<path class="st0" d="M108.4,52.7c0.3,0,0.6-0.1,0.8-0.4c0.2-0.2,0.3-0.6,0.3-1.1v-7.5h1.3v7.6c0,0.8-0.2,1.3-0.5,1.7
			c-0.4,0.4-0.9,0.6-1.5,0.6c-0.4,0-0.8-0.1-1.3-0.2l0.3-1C108,52.6,108.2,52.7,108.4,52.7z M110.7,41.1c0.2,0.2,0.2,0.4,0.2,0.6
			c0,0.2-0.1,0.4-0.2,0.6c-0.2,0.2-0.3,0.2-0.6,0.2c-0.2,0-0.4-0.1-0.6-0.2c-0.2-0.2-0.2-0.4-0.2-0.6c0-0.2,0.1-0.4,0.2-0.6
			c0.2-0.2,0.3-0.2,0.6-0.2C110.4,40.9,110.5,41,110.7,41.1z"/>
		<path class="st0" d="M118.1,44.2c0.6,0.3,1,0.7,1.3,1.3c0.3,0.6,0.5,1.2,0.5,1.9c0,0.7-0.2,1.4-0.5,1.9c-0.3,0.6-0.8,1-1.3,1.3
			c-0.6,0.3-1.2,0.5-1.9,0.5c-0.7,0-1.4-0.2-1.9-0.5s-1-0.7-1.3-1.3c-0.3-0.6-0.5-1.2-0.5-1.9c0-0.7,0.2-1.3,0.5-1.9
			c0.3-0.6,0.8-1,1.3-1.3s1.2-0.5,1.9-0.5C116.9,43.8,117.5,43.9,118.1,44.2z M114.9,45.2c-0.4,0.2-0.7,0.5-0.9,0.9
			c-0.2,0.4-0.3,0.8-0.3,1.3c0,0.5,0.1,1,0.3,1.3c0.2,0.4,0.5,0.7,0.9,0.9c0.4,0.2,0.8,0.3,1.3,0.3c0.5,0,0.9-0.1,1.3-0.3
			c0.4-0.2,0.7-0.5,0.9-0.9c0.2-0.4,0.3-0.8,0.3-1.3c0-0.5-0.1-0.9-0.3-1.3c-0.2-0.4-0.5-0.7-0.9-0.9c-0.4-0.2-0.8-0.3-1.3-0.3
			C115.7,44.9,115.3,45,114.9,45.2z"/>
		<path class="st0" d="M124,44.2c0.4-0.3,1-0.4,1.6-0.4V45c-0.7,0-1.3,0.2-1.8,0.6c-0.5,0.4-0.7,1-0.8,1.7v3.8h-1.3v-7.3h1.3v1.6
			C123.2,44.8,123.5,44.4,124,44.2z"/>
		<path class="st0" d="M133.5,45c-0.4-0.1-0.7-0.2-1-0.2c-0.4,0-0.7,0.1-0.9,0.2c-0.2,0.1-0.4,0.4-0.4,0.7c0,0.3,0.1,0.5,0.4,0.7
			c0.3,0.2,0.7,0.3,1.2,0.5c0.5,0.1,0.9,0.3,1.2,0.4c0.3,0.1,0.6,0.4,0.8,0.6c0.2,0.3,0.3,0.7,0.3,1.1c0,0.7-0.3,1.2-0.8,1.6
			c-0.5,0.4-1.2,0.5-1.9,0.5c-0.5,0-1.1-0.1-1.6-0.3c-0.5-0.2-0.9-0.4-1.3-0.7l0.5-0.9c0.3,0.3,0.7,0.5,1.1,0.7
			c0.4,0.2,0.9,0.2,1.3,0.2c0.4,0,0.8-0.1,1-0.2c0.3-0.2,0.4-0.4,0.4-0.7c0-0.3-0.1-0.6-0.4-0.7c-0.3-0.2-0.7-0.3-1.2-0.5
			c-0.5-0.1-0.9-0.3-1.2-0.4c-0.3-0.1-0.6-0.4-0.8-0.6c-0.2-0.3-0.3-0.6-0.3-1.1c0-0.7,0.2-1.2,0.7-1.5c0.5-0.3,1.1-0.5,1.9-0.5
			c0.4,0,0.9,0.1,1.3,0.2c0.4,0.1,0.8,0.3,1.1,0.5l-0.5,1C134.2,45.2,133.9,45.1,133.5,45z"/>
		<path class="st0" d="M143.3,43.8v7.3H142v-1.5c-0.5,1-1.4,1.6-2.7,1.6c-0.8,0-1.5-0.2-2-0.7c-0.5-0.5-0.7-1.2-0.7-2.1v-4.5h1.3
			v4.2c0,0.6,0.2,1.1,0.5,1.4c0.3,0.3,0.8,0.5,1.4,0.5c0.7,0,1.2-0.2,1.6-0.7c0.4-0.5,0.6-1.1,0.6-1.8v-3.6H143.3z"/>
		<path class="st0" d="M151.6,44.2c0.5,0.3,0.9,0.7,1.2,1.3c0.3,0.6,0.4,1.2,0.4,1.9c0,0.7-0.1,1.3-0.4,1.9c-0.3,0.6-0.7,1-1.2,1.3
			c-0.5,0.3-1.1,0.5-1.8,0.5c-0.6,0-1.2-0.1-1.6-0.4c-0.5-0.3-0.8-0.6-1.1-1.1v4.1h-1.3v-9.9h1.3v1.4c0.3-0.5,0.6-0.8,1.1-1.1
			c0.5-0.3,1-0.4,1.6-0.4C150.5,43.8,151.1,43.9,151.6,44.2z M150.8,49.7c0.4-0.2,0.7-0.5,0.9-0.9c0.2-0.4,0.3-0.8,0.3-1.3
			c0-0.5-0.1-0.9-0.3-1.3c-0.2-0.4-0.5-0.7-0.9-0.9c-0.4-0.2-0.8-0.3-1.3-0.3c-0.5,0-0.9,0.1-1.3,0.3c-0.4,0.2-0.7,0.5-0.9,0.9
			c-0.2,0.4-0.3,0.8-0.3,1.3c0,0.5,0.1,1,0.3,1.3c0.2,0.4,0.5,0.7,0.9,0.9c0.4,0.2,0.8,0.3,1.3,0.3C150,50,150.5,49.9,150.8,49.7z"
			/>
		<path class="st0" d="M160.6,44.7c0.6,0.7,0.9,1.6,0.9,2.8c0,0.2,0,0.3,0,0.4h-5.7c0.1,0.7,0.4,1.2,0.8,1.6c0.4,0.4,1,0.6,1.6,0.6
			c0.4,0,0.8-0.1,1.2-0.2c0.4-0.2,0.7-0.4,1-0.7l0.7,0.7c-0.4,0.4-0.8,0.7-1.3,0.9c-0.5,0.2-1.1,0.3-1.7,0.3c-0.7,0-1.3-0.2-1.9-0.5
			c-0.6-0.3-1-0.7-1.3-1.3c-0.3-0.6-0.5-1.2-0.5-1.9c0-0.7,0.2-1.3,0.5-1.9c0.3-0.6,0.7-1,1.3-1.3c0.5-0.3,1.2-0.5,1.9-0.5
			C159.1,43.8,160,44.1,160.6,44.7z M160.3,46.9c0-0.7-0.3-1.2-0.7-1.6c-0.4-0.4-0.9-0.6-1.6-0.6c-0.6,0-1.2,0.2-1.6,0.6
			c-0.4,0.4-0.7,0.9-0.8,1.6H160.3z"/>
		<path class="st0" d="M165.5,44.2c0.4-0.3,1-0.4,1.6-0.4V45c-0.7,0-1.3,0.2-1.8,0.6c-0.5,0.4-0.7,1-0.8,1.7v3.8h-1.3v-7.3h1.3v1.6
			C164.7,44.8,165,44.4,165.5,44.2z"/>
		<path class="st0" d="M167.6,43.8h1.4l2.2,6l2.2-6h1.3l-2.8,7.3h-1.3L167.6,43.8z"/>
		<path class="st0" d="M177,41.1c0.2,0.2,0.2,0.4,0.2,0.6c0,0.2-0.1,0.4-0.2,0.6c-0.2,0.2-0.3,0.2-0.6,0.2c-0.2,0-0.4-0.1-0.6-0.2
			c-0.2-0.2-0.2-0.4-0.2-0.6c0-0.2,0.1-0.4,0.2-0.6c0.2-0.2,0.3-0.2,0.6-0.2C176.7,40.9,176.9,41,177,41.1z M175.8,43.8h1.3v7.3
			h-1.3V43.8z"/>
		<path class="st0" d="M178.4,43.8h1.4l2.2,6l2.2-6h1.3l-2.8,7.3h-1.3L178.4,43.8z"/>
		<path class="st0" d="M191.8,44.7c0.6,0.7,0.9,1.6,0.9,2.8c0,0.2,0,0.3,0,0.4h-5.7c0.1,0.7,0.4,1.2,0.8,1.6c0.4,0.4,1,0.6,1.6,0.6
			c0.4,0,0.8-0.1,1.2-0.2c0.4-0.2,0.7-0.4,1-0.7l0.7,0.7c-0.4,0.4-0.8,0.7-1.3,0.9c-0.5,0.2-1.1,0.3-1.7,0.3c-0.7,0-1.3-0.2-1.9-0.5
			c-0.6-0.3-1-0.7-1.3-1.3c-0.3-0.6-0.5-1.2-0.5-1.9c0-0.7,0.2-1.3,0.5-1.9c0.3-0.6,0.7-1,1.3-1.3c0.5-0.3,1.2-0.5,1.9-0.5
			C190.4,43.8,191.2,44.1,191.8,44.7z M191.5,46.9c0-0.7-0.3-1.2-0.7-1.6c-0.4-0.4-0.9-0.6-1.6-0.6c-0.6,0-1.2,0.2-1.6,0.6
			c-0.4,0.4-0.7,0.9-0.8,1.6H191.5z"/>
		<path class="st0" d="M200.5,44.5c0.5,0.5,0.7,1.2,0.7,2.1v4.5h-1.3v-4.2c0-0.6-0.2-1.1-0.5-1.4c-0.3-0.3-0.8-0.5-1.4-0.5
			c-0.7,0-1.2,0.2-1.6,0.6c-0.4,0.4-0.6,0.9-0.7,1.6v3.9h-1.3v-7.3h1.3v1.5c0.5-1,1.4-1.6,2.8-1.6C199.3,43.8,200,44,200.5,44.5z"/>
		<path class="st0" d="M206.5,44.9c-0.5,0-0.9,0.1-1.3,0.3c-0.4,0.2-0.7,0.5-0.9,0.9c-0.2,0.4-0.3,0.8-0.3,1.3
			c0,0.5,0.1,0.9,0.3,1.3c0.2,0.4,0.5,0.7,0.9,0.9c0.4,0.2,0.8,0.3,1.2,0.3c0.5,0,0.9-0.1,1.3-0.2c0.4-0.2,0.7-0.4,0.9-0.7l0.7,0.7
			c-0.3,0.4-0.8,0.7-1.3,0.9c-0.5,0.2-1.1,0.3-1.7,0.3c-0.7,0-1.3-0.2-1.9-0.5c-0.5-0.3-1-0.7-1.3-1.3c-0.3-0.6-0.5-1.2-0.5-1.9
			c0-0.7,0.2-1.4,0.5-1.9c0.3-0.6,0.7-1,1.3-1.3c0.5-0.3,1.2-0.5,1.9-0.5c0.6,0,1.2,0.1,1.7,0.3c0.5,0.2,0.9,0.5,1.2,0.8l-0.7,0.9
			C208,45.2,207.3,44.9,206.5,44.9z"/>
		<path class="st0" d="M212.4,41.1c0.2,0.2,0.2,0.4,0.2,0.6c0,0.2-0.1,0.4-0.2,0.6c-0.2,0.2-0.3,0.2-0.6,0.2c-0.2,0-0.4-0.1-0.6-0.2
			c-0.2-0.2-0.2-0.4-0.2-0.6c0-0.2,0.1-0.4,0.2-0.6c0.2-0.2,0.3-0.2,0.6-0.2C212.1,40.9,212.3,41,212.4,41.1z M211.2,43.8h1.3v7.3
			h-1.3V43.8z"/>
		<path class="st0" d="M219.4,51.1v-1c-0.5,0.7-1.4,1.1-2.5,1.1c-0.5,0-0.9-0.1-1.3-0.3c-0.4-0.2-0.7-0.5-0.9-0.8
			c-0.2-0.3-0.3-0.7-0.3-1.1c0-0.7,0.2-1.2,0.7-1.5c0.5-0.4,1.2-0.6,2-0.6h2.3v-0.3c0-0.5-0.2-0.9-0.5-1.2c-0.3-0.3-0.8-0.4-1.4-0.4
			c-0.7,0-1.5,0.3-2.2,0.8l-0.5-0.9c0.5-0.3,1-0.6,1.5-0.7c0.4-0.2,1-0.2,1.6-0.2c0.9,0,1.6,0.2,2.1,0.7c0.5,0.4,0.7,1.1,0.8,1.9
			l0,4.8H219.4z M218.7,49.6c0.4-0.3,0.7-0.7,0.7-1.1v-0.7h-2.1c-0.6,0-1,0.1-1.3,0.3c-0.3,0.2-0.4,0.4-0.4,0.8
			c0,0.4,0.1,0.7,0.4,0.9c0.3,0.2,0.7,0.3,1.1,0.3C217.7,50.1,218.2,49.9,218.7,49.6z"/>
		<path class="st0" d="M228.2,53.4c-0.4,0.3-0.8,0.4-1.3,0.4c-0.3,0-0.6,0-0.9-0.1c-0.3-0.1-0.5-0.2-0.7-0.4l0.5-1
			c0.3,0.2,0.6,0.3,1,0.3c0.5,0,1-0.3,1.2-0.9l0.3-0.6l-3-7.2h1.3l2.3,5.8l2.2-5.8h1.3l-3.3,8.3C228.9,52.7,228.6,53.1,228.2,53.4z"
			/>
		<path class="st0" d="M236,43.8h1.4l2.2,6l2.2-6h1.3l-2.8,7.3h-1.3L236,43.8z"/>
		<path class="st0" d="M245.5,41.1c0.2,0.2,0.2,0.4,0.2,0.6c0,0.2-0.1,0.4-0.2,0.6c-0.2,0.2-0.3,0.2-0.6,0.2c-0.2,0-0.4-0.1-0.6-0.2
			c-0.2-0.2-0.2-0.4-0.2-0.6c0-0.2,0.1-0.4,0.2-0.6c0.2-0.2,0.3-0.2,0.6-0.2C245.1,40.9,245.3,41,245.5,41.1z M244.2,43.8h1.3v7.3
			h-1.3V43.8z"/>
		<path class="st0" d="M252.5,51.1v-1c-0.5,0.7-1.4,1.1-2.5,1.1c-0.5,0-0.9-0.1-1.3-0.3c-0.4-0.2-0.7-0.5-0.9-0.8
			c-0.2-0.3-0.3-0.7-0.3-1.1c0-0.7,0.2-1.2,0.7-1.5c0.5-0.4,1.2-0.6,2-0.6h2.3v-0.3c0-0.5-0.2-0.9-0.5-1.2c-0.3-0.3-0.8-0.4-1.4-0.4
			c-0.7,0-1.5,0.3-2.2,0.8l-0.5-0.9c0.5-0.3,1-0.6,1.5-0.7c0.4-0.2,1-0.2,1.6-0.2c0.9,0,1.6,0.2,2.1,0.7c0.5,0.4,0.7,1.1,0.8,1.9
			l0,4.8H252.5z M251.7,49.6c0.4-0.3,0.7-0.7,0.7-1.1v-0.7h-2.1c-0.6,0-1,0.1-1.3,0.3c-0.3,0.2-0.4,0.4-0.4,0.8
			c0,0.4,0.1,0.7,0.4,0.9c0.3,0.2,0.7,0.3,1.1,0.3C250.8,50.1,251.3,49.9,251.7,49.6z"/>
		<path class="st0" d="M261.9,44.2c0.5,0.3,0.9,0.7,1.2,1.3c0.3,0.6,0.4,1.2,0.4,1.9c0,0.7-0.1,1.3-0.4,1.9c-0.3,0.6-0.7,1-1.2,1.3
			c-0.5,0.3-1.1,0.5-1.8,0.5c-0.6,0-1.2-0.1-1.6-0.4c-0.5-0.3-0.8-0.6-1.1-1.1v1.4h-1.3V40.9h1.3v4.4c0.3-0.5,0.6-0.8,1.1-1.1
			c0.5-0.3,1-0.4,1.6-0.4C260.7,43.8,261.3,43.9,261.9,44.2z M261.1,49.7c0.4-0.2,0.7-0.5,0.9-0.9c0.2-0.4,0.3-0.8,0.3-1.3
			c0-0.5-0.1-0.9-0.3-1.3c-0.2-0.4-0.5-0.7-0.9-0.9c-0.4-0.2-0.8-0.3-1.3-0.3c-0.5,0-0.9,0.1-1.3,0.3c-0.4,0.2-0.7,0.5-0.9,0.9
			c-0.2,0.4-0.3,0.8-0.3,1.3c0,0.5,0.1,1,0.3,1.3c0.2,0.4,0.5,0.7,0.9,0.9c0.4,0.2,0.8,0.3,1.3,0.3C260.3,50,260.7,49.9,261.1,49.7z
			"/>
		<path class="st0" d="M266.5,41.1c0.2,0.2,0.2,0.4,0.2,0.6c0,0.2-0.1,0.4-0.2,0.6c-0.2,0.2-0.3,0.2-0.6,0.2c-0.2,0-0.4-0.1-0.6-0.2
			c-0.2-0.2-0.2-0.4-0.2-0.6c0-0.2,0.1-0.4,0.2-0.6c0.2-0.2,0.3-0.2,0.6-0.2C266.2,40.9,266.4,41,266.5,41.1z M265.3,43.8h1.3v7.3
			h-1.3V43.8z"/>
		<path class="st0" d="M269.2,40.9h1.3v10.2h-1.3V40.9z"/>
		<path class="st0" d="M274.2,41.1c0.2,0.2,0.2,0.4,0.2,0.6c0,0.2-0.1,0.4-0.2,0.6c-0.2,0.2-0.3,0.2-0.6,0.2c-0.2,0-0.4-0.1-0.6-0.2
			c-0.2-0.2-0.2-0.4-0.2-0.6c0-0.2,0.1-0.4,0.2-0.6c0.2-0.2,0.3-0.2,0.6-0.2C273.9,40.9,274.1,41,274.2,41.1z M273,43.8h1.3v7.3H273
			V43.8z"/>
		<path class="st0" d="M283.6,40.9v10.2h-1.3v-1.4c-0.3,0.5-0.6,0.9-1.1,1.1c-0.5,0.3-1,0.4-1.6,0.4c-0.7,0-1.3-0.2-1.8-0.5
			c-0.5-0.3-0.9-0.8-1.2-1.3c-0.3-0.6-0.4-1.2-0.4-1.9c0-0.7,0.1-1.3,0.4-1.9c0.3-0.6,0.7-1,1.2-1.3c0.5-0.3,1.1-0.5,1.8-0.5
			c0.6,0,1.2,0.1,1.6,0.4c0.5,0.3,0.8,0.6,1.1,1.1v-4.4H283.6z M281.1,49.7c0.4-0.2,0.7-0.5,0.9-0.9c0.2-0.4,0.3-0.8,0.3-1.3
			c0-0.5-0.1-1-0.3-1.3c-0.2-0.4-0.5-0.7-0.9-0.9c-0.4-0.2-0.8-0.3-1.3-0.3c-0.5,0-0.9,0.1-1.3,0.3c-0.4,0.2-0.7,0.5-0.9,0.9
			c-0.2,0.4-0.3,0.8-0.3,1.3c0,0.5,0.1,0.9,0.3,1.3c0.2,0.4,0.5,0.7,0.9,0.9c0.4,0.2,0.8,0.3,1.3,0.3
			C280.3,50,280.7,49.9,281.1,49.7z"/>
		<path class="st0" d="M290.6,51.1v-1c-0.5,0.7-1.4,1.1-2.5,1.1c-0.5,0-0.9-0.1-1.3-0.3c-0.4-0.2-0.7-0.5-0.9-0.8
			c-0.2-0.3-0.3-0.7-0.3-1.1c0-0.7,0.2-1.2,0.7-1.5c0.5-0.4,1.2-0.6,2-0.6h2.3v-0.3c0-0.5-0.2-0.9-0.5-1.2c-0.3-0.3-0.8-0.4-1.4-0.4
			c-0.7,0-1.5,0.3-2.2,0.8l-0.5-0.9c0.5-0.3,1-0.6,1.5-0.7c0.4-0.2,1-0.2,1.6-0.2c0.9,0,1.6,0.2,2.1,0.7c0.5,0.4,0.7,1.1,0.8,1.9
			l0,4.8H290.6z M289.8,49.6c0.4-0.3,0.7-0.7,0.7-1.1v-0.7h-2.1c-0.6,0-1,0.1-1.3,0.3c-0.3,0.2-0.4,0.4-0.4,0.8
			c0,0.4,0.1,0.7,0.4,0.9c0.3,0.2,0.7,0.3,1.1,0.3C288.9,50.1,289.4,49.9,289.8,49.6z"/>
		<path class="st0" d="M300.9,40.9v10.2h-1.3v-1.4c-0.3,0.5-0.6,0.9-1.1,1.1c-0.5,0.3-1,0.4-1.6,0.4c-0.7,0-1.3-0.2-1.8-0.5
			c-0.5-0.3-0.9-0.8-1.2-1.3c-0.3-0.6-0.4-1.2-0.4-1.9c0-0.7,0.1-1.3,0.4-1.9c0.3-0.6,0.7-1,1.2-1.3c0.5-0.3,1.1-0.5,1.8-0.5
			c0.6,0,1.2,0.1,1.6,0.4s0.8,0.6,1.1,1.1v-4.4H300.9z M298.4,49.7c0.4-0.2,0.7-0.5,0.9-0.9c0.2-0.4,0.3-0.8,0.3-1.3
			c0-0.5-0.1-1-0.3-1.3c-0.2-0.4-0.5-0.7-0.9-0.9c-0.4-0.2-0.8-0.3-1.3-0.3s-0.9,0.1-1.3,0.3c-0.4,0.2-0.7,0.5-0.9,0.9
			c-0.2,0.4-0.3,0.8-0.3,1.3c0,0.5,0.1,0.9,0.3,1.3c0.2,0.4,0.5,0.7,0.9,0.9c0.4,0.2,0.8,0.3,1.3,0.3S298,49.9,298.4,49.7z"/>
		<path class="st0" d="M313.8,43.8v9.9h-1.3v-4.1c-0.3,0.5-0.6,0.9-1.1,1.1c-0.5,0.3-1,0.4-1.6,0.4c-0.7,0-1.3-0.2-1.8-0.5
			c-0.5-0.3-0.9-0.8-1.2-1.3c-0.3-0.6-0.4-1.2-0.4-1.9c0-0.7,0.1-1.3,0.4-1.9c0.3-0.6,0.7-1,1.2-1.3c0.5-0.3,1.1-0.5,1.8-0.5
			c0.6,0,1.2,0.1,1.6,0.4c0.5,0.3,0.8,0.6,1.1,1.1v-1.4H313.8z M311.4,49.7c0.4-0.2,0.7-0.5,0.9-0.9c0.2-0.4,0.3-0.8,0.3-1.3
			c0-0.5-0.1-1-0.3-1.3c-0.2-0.4-0.5-0.7-0.9-0.9c-0.4-0.2-0.8-0.3-1.3-0.3c-0.5,0-0.9,0.1-1.3,0.3c-0.4,0.2-0.7,0.5-0.9,0.9
			c-0.2,0.4-0.3,0.8-0.3,1.3c0,0.5,0.1,0.9,0.3,1.3c0.2,0.4,0.5,0.7,0.9,0.9c0.4,0.2,0.8,0.3,1.3,0.3C310.6,50,311,49.9,311.4,49.7z
			"/>
		<path class="st0" d="M322.8,43.8v7.3h-1.3v-1.5c-0.5,1-1.4,1.6-2.7,1.6c-0.8,0-1.5-0.2-2-0.7c-0.5-0.5-0.7-1.2-0.7-2.1v-4.5h1.3
			v4.2c0,0.6,0.2,1.1,0.5,1.4c0.3,0.3,0.8,0.5,1.4,0.5c0.7,0,1.2-0.2,1.6-0.7c0.4-0.5,0.6-1.1,0.6-1.8v-3.6H322.8z"/>
		<path class="st0" d="M330.8,44.7c0.6,0.7,0.9,1.6,0.9,2.8c0,0.2,0,0.3,0,0.4h-5.7c0.1,0.7,0.4,1.2,0.8,1.6c0.4,0.4,1,0.6,1.6,0.6
			c0.4,0,0.8-0.1,1.2-0.2c0.4-0.2,0.7-0.4,1-0.7l0.7,0.7c-0.4,0.4-0.8,0.7-1.3,0.9c-0.5,0.2-1.1,0.3-1.7,0.3c-0.7,0-1.3-0.2-1.9-0.5
			c-0.6-0.3-1-0.7-1.3-1.3c-0.3-0.6-0.5-1.2-0.5-1.9c0-0.7,0.2-1.3,0.5-1.9c0.3-0.6,0.7-1,1.3-1.3c0.5-0.3,1.2-0.5,1.9-0.5
			C329.4,43.8,330.2,44.1,330.8,44.7z M330.5,46.9c0-0.7-0.3-1.2-0.7-1.6c-0.4-0.4-0.9-0.6-1.6-0.6c-0.6,0-1.2,0.2-1.6,0.6
			c-0.4,0.4-0.7,0.9-0.8,1.6H330.5z"/>
		<path class="st0" d="M342.9,44.2c0.5,0.3,0.9,0.7,1.2,1.3c0.3,0.6,0.4,1.2,0.4,1.9c0,0.7-0.1,1.3-0.4,1.9c-0.3,0.6-0.7,1-1.2,1.3
			c-0.5,0.3-1.1,0.5-1.8,0.5c-0.6,0-1.2-0.1-1.6-0.4c-0.5-0.3-0.8-0.6-1.1-1.1v4.1h-1.3v-9.9h1.3v1.4c0.3-0.5,0.6-0.8,1.1-1.1
			c0.5-0.3,1-0.4,1.6-0.4C341.7,43.8,342.3,43.9,342.9,44.2z M342.1,49.7c0.4-0.2,0.7-0.5,0.9-0.9c0.2-0.4,0.3-0.8,0.3-1.3
			c0-0.5-0.1-0.9-0.3-1.3c-0.2-0.4-0.5-0.7-0.9-0.9c-0.4-0.2-0.8-0.3-1.3-0.3c-0.5,0-0.9,0.1-1.3,0.3c-0.4,0.2-0.7,0.5-0.9,0.9
			c-0.2,0.4-0.3,0.8-0.3,1.3c0,0.5,0.1,1,0.3,1.3c0.2,0.4,0.5,0.7,0.9,0.9c0.4,0.2,0.8,0.3,1.3,0.3C341.3,50,341.7,49.9,342.1,49.7z
			"/>
		<path class="st0" d="M351.3,44.2c0.6,0.3,1,0.7,1.3,1.3c0.3,0.6,0.5,1.2,0.5,1.9c0,0.7-0.2,1.4-0.5,1.9c-0.3,0.6-0.8,1-1.3,1.3
			s-1.2,0.5-1.9,0.5c-0.7,0-1.4-0.2-1.9-0.5c-0.6-0.3-1-0.7-1.3-1.3c-0.3-0.6-0.5-1.2-0.5-1.9c0-0.7,0.2-1.3,0.5-1.9
			c0.3-0.6,0.8-1,1.3-1.3c0.6-0.3,1.2-0.5,1.9-0.5C350.1,43.8,350.7,43.9,351.3,44.2z M348.1,45.2c-0.4,0.2-0.7,0.5-0.9,0.9
			c-0.2,0.4-0.3,0.8-0.3,1.3c0,0.5,0.1,1,0.3,1.3c0.2,0.4,0.5,0.7,0.9,0.9c0.4,0.2,0.8,0.3,1.3,0.3c0.5,0,0.9-0.1,1.3-0.3
			c0.4-0.2,0.7-0.5,0.9-0.9c0.2-0.4,0.3-0.8,0.3-1.3c0-0.5-0.1-0.9-0.3-1.3c-0.2-0.4-0.5-0.7-0.9-0.9c-0.4-0.2-0.8-0.3-1.3-0.3
			C348.9,44.9,348.5,45,348.1,45.2z"/>
		<path class="st0" d="M361.7,40.9v10.2h-1.3v-1.4c-0.3,0.5-0.6,0.9-1.1,1.1c-0.5,0.3-1,0.4-1.6,0.4c-0.7,0-1.3-0.2-1.8-0.5
			c-0.5-0.3-0.9-0.8-1.2-1.3c-0.3-0.6-0.4-1.2-0.4-1.9c0-0.7,0.1-1.3,0.4-1.9c0.3-0.6,0.7-1,1.2-1.3c0.5-0.3,1.1-0.5,1.8-0.5
			c0.6,0,1.2,0.1,1.6,0.4c0.5,0.3,0.8,0.6,1.1,1.1v-4.4H361.7z M359.2,49.7c0.4-0.2,0.7-0.5,0.9-0.9c0.2-0.4,0.3-0.8,0.3-1.3
			c0-0.5-0.1-1-0.3-1.3c-0.2-0.4-0.5-0.7-0.9-0.9c-0.4-0.2-0.8-0.3-1.3-0.3c-0.5,0-0.9,0.1-1.3,0.3c-0.4,0.2-0.7,0.5-0.9,0.9
			c-0.2,0.4-0.3,0.8-0.3,1.3c0,0.5,0.1,0.9,0.3,1.3c0.2,0.4,0.5,0.7,0.9,0.9c0.4,0.2,0.8,0.3,1.3,0.3
			C358.4,50,358.8,49.9,359.2,49.7z"/>
		<path class="st0" d="M366.5,44.2c0.4-0.3,1-0.4,1.6-0.4V45c-0.7,0-1.3,0.2-1.8,0.6c-0.5,0.4-0.7,1-0.8,1.7v3.8h-1.3v-7.3h1.3v1.6
			C365.7,44.8,366.1,44.4,366.5,44.2z"/>
		<path class="st0" d="M370.9,40.7l1.3,0.6l-1.7,1.3l-1.1-0.1L370.9,40.7z M369.5,43.8h1.3v7.3h-1.3V43.8z"/>
		<path class="st0" d="M377.7,51.1v-1c-0.5,0.7-1.4,1.1-2.5,1.1c-0.5,0-0.9-0.1-1.3-0.3c-0.4-0.2-0.7-0.5-0.9-0.8
			c-0.2-0.3-0.3-0.7-0.3-1.1c0-0.7,0.2-1.2,0.7-1.5c0.5-0.4,1.2-0.6,2-0.6h2.3v-0.3c0-0.5-0.2-0.9-0.5-1.2c-0.3-0.3-0.8-0.4-1.4-0.4
			c-0.7,0-1.5,0.3-2.2,0.8l-0.5-0.9c0.5-0.3,1-0.6,1.5-0.7c0.4-0.2,1-0.2,1.6-0.2c0.9,0,1.6,0.2,2.1,0.7c0.5,0.4,0.7,1.1,0.8,1.9
			l0,4.8H377.7z M376.9,49.6c0.4-0.3,0.7-0.7,0.7-1.1v-0.7h-2.1c-0.6,0-1,0.1-1.3,0.3c-0.3,0.2-0.4,0.4-0.4,0.8
			c0,0.4,0.1,0.7,0.4,0.9c0.3,0.2,0.7,0.3,1.1,0.3C376,50.1,376.5,49.9,376.9,49.6z"/>
		<path class="st0" d="M387.3,44.5c0.5,0.5,0.7,1.2,0.7,2.1v4.5h-1.3v-4.2c0-0.6-0.2-1.1-0.5-1.4c-0.3-0.3-0.8-0.5-1.4-0.5
			c-0.7,0-1.2,0.2-1.6,0.6c-0.4,0.4-0.6,0.9-0.7,1.6v3.9h-1.3v-7.3h1.3v1.5c0.5-1,1.4-1.6,2.8-1.6C386.1,43.8,386.8,44,387.3,44.5z"
			/>
		<path class="st0" d="M398.3,51.1v-1c-0.5,0.7-1.4,1.1-2.5,1.1c-0.5,0-0.9-0.1-1.3-0.3c-0.4-0.2-0.7-0.5-0.9-0.8
			c-0.2-0.3-0.3-0.7-0.3-1.1c0-0.7,0.2-1.2,0.7-1.5c0.5-0.4,1.2-0.6,2-0.6h2.3v-0.3c0-0.5-0.2-0.9-0.5-1.2c-0.3-0.3-0.8-0.4-1.4-0.4
			c-0.7,0-1.5,0.3-2.2,0.8l-0.5-0.9c0.5-0.3,1-0.6,1.5-0.7c0.4-0.2,1-0.2,1.6-0.2c0.9,0,1.6,0.2,2.1,0.7c0.5,0.4,0.7,1.1,0.8,1.9
			l0,4.8H398.3z M397.6,49.6c0.4-0.3,0.7-0.7,0.7-1.1v-0.7h-2.1c-0.6,0-1,0.1-1.3,0.3c-0.3,0.2-0.4,0.4-0.4,0.8
			c0,0.4,0.1,0.7,0.4,0.9c0.3,0.2,0.7,0.3,1.1,0.3C396.6,50.1,397.2,49.9,397.6,49.6z"/>
		<path class="st0" d="M408.3,43.8v7.3H407v-1.5c-0.5,1-1.4,1.6-2.7,1.6c-0.8,0-1.5-0.2-2-0.7c-0.5-0.5-0.7-1.2-0.7-2.1v-4.5h1.3
			v4.2c0,0.6,0.2,1.1,0.5,1.4c0.3,0.3,0.8,0.5,1.4,0.5c0.7,0,1.2-0.2,1.6-0.7c0.4-0.5,0.6-1.1,0.6-1.8v-3.6H408.3z"/>
		<path class="st0" d="M422.2,44.5c0.5,0.5,0.7,1.2,0.7,2.1v4.5h-1.3v-4.2c0-0.6-0.2-1.1-0.5-1.4c-0.3-0.3-0.8-0.5-1.4-0.5
			c-0.7,0-1.2,0.3-1.6,0.7c-0.4,0.5-0.6,1.1-0.6,1.8v3.6h-1.3v-4.2c0-0.6-0.2-1.1-0.5-1.4c-0.3-0.3-0.8-0.5-1.4-0.5
			c-0.7,0-1.2,0.3-1.6,0.7c-0.4,0.5-0.6,1.1-0.6,1.8v3.6h-1.3v-7.3h1.3v1.5c0.5-1,1.4-1.5,2.7-1.6c0.7,0,1.2,0.2,1.7,0.5
			c0.4,0.3,0.7,0.8,0.9,1.3c0.4-1.2,1.4-1.8,2.8-1.8C421,43.8,421.7,44,422.2,44.5z"/>
		<path class="st0" d="M430.6,44.7c0.6,0.7,0.9,1.6,0.9,2.8c0,0.2,0,0.3,0,0.4h-5.7c0.1,0.7,0.4,1.2,0.8,1.6c0.4,0.4,1,0.6,1.6,0.6
			c0.4,0,0.8-0.1,1.2-0.2c0.4-0.2,0.7-0.4,1-0.7l0.7,0.7c-0.4,0.4-0.8,0.7-1.3,0.9c-0.5,0.2-1.1,0.3-1.7,0.3c-0.7,0-1.3-0.2-1.9-0.5
			c-0.6-0.3-1-0.7-1.3-1.3c-0.3-0.6-0.5-1.2-0.5-1.9c0-0.7,0.2-1.3,0.5-1.9c0.3-0.6,0.7-1,1.3-1.3c0.5-0.3,1.2-0.5,1.9-0.5
			C429.2,43.8,430,44.1,430.6,44.7z M430.3,46.9c0-0.7-0.3-1.2-0.7-1.6c-0.4-0.4-0.9-0.6-1.6-0.6c-0.6,0-1.2,0.2-1.6,0.6
			c-0.4,0.4-0.7,0.9-0.8,1.6H430.3z"/>
		<path class="st0" d="M439.3,44.5c0.5,0.5,0.7,1.2,0.7,2.1v4.5h-1.3v-4.2c0-0.6-0.2-1.1-0.5-1.4c-0.3-0.3-0.8-0.5-1.4-0.5
			c-0.7,0-1.2,0.2-1.6,0.6c-0.4,0.4-0.6,0.9-0.7,1.6v3.9h-1.3v-7.3h1.3v1.5c0.5-1,1.4-1.6,2.8-1.6C438.1,43.8,438.8,44,439.3,44.5z"
			/>
		<path class="st0" d="M446.2,50.6c-0.6,0.4-1.1,0.5-1.7,0.5c-0.6,0-1-0.2-1.4-0.5c-0.4-0.3-0.5-0.9-0.5-1.6v-4h-1v-1h1v-2h1.3v2
			h2.2v1h-2.2v3.8c0,0.4,0.1,0.7,0.2,0.9c0.1,0.2,0.4,0.3,0.7,0.3c0.3,0,0.7-0.1,1.1-0.3L446.2,50.6z"/>
		<path class="st0" d="M452.2,51.1v-1c-0.5,0.7-1.4,1.1-2.5,1.1c-0.5,0-0.9-0.1-1.3-0.3c-0.4-0.2-0.7-0.5-0.9-0.8
			c-0.2-0.3-0.3-0.7-0.3-1.1c0-0.7,0.2-1.2,0.7-1.5c0.5-0.4,1.2-0.6,2-0.6h2.3v-0.3c0-0.5-0.2-0.9-0.5-1.2c-0.3-0.3-0.8-0.4-1.4-0.4
			c-0.7,0-1.5,0.3-2.2,0.8l-0.5-0.9c0.5-0.3,1-0.6,1.5-0.7c0.4-0.2,1-0.2,1.6-0.2c0.9,0,1.6,0.2,2.1,0.7c0.5,0.4,0.7,1.1,0.8,1.9
			l0,4.8H452.2z M451.4,49.6c0.4-0.3,0.7-0.7,0.7-1.1v-0.7H450c-0.6,0-1,0.1-1.3,0.3c-0.3,0.2-0.4,0.4-0.4,0.8
			c0,0.4,0.1,0.7,0.4,0.9c0.3,0.2,0.7,0.3,1.1,0.3C450.5,50.1,451,49.9,451.4,49.6z"/>
		<path class="st0" d="M458,44.2c0.4-0.3,1-0.4,1.6-0.4V45c-0.7,0-1.3,0.2-1.8,0.6c-0.5,0.4-0.7,1-0.8,1.7v3.8h-1.3v-7.3h1.3v1.6
			C457.3,44.8,457.6,44.4,458,44.2z"/>
		<path class="st0" d="M464.7,40.9h1.3v10.2h-1.3V40.9z"/>
		<path class="st0" d="M473,51.1v-1c-0.5,0.7-1.4,1.1-2.5,1.1c-0.5,0-0.9-0.1-1.3-0.3c-0.4-0.2-0.7-0.5-0.9-0.8
			c-0.2-0.3-0.3-0.7-0.3-1.1c0-0.7,0.2-1.2,0.7-1.5c0.5-0.4,1.2-0.6,2-0.6h2.3v-0.3c0-0.5-0.2-0.9-0.5-1.2c-0.3-0.3-0.8-0.4-1.4-0.4
			c-0.7,0-1.5,0.3-2.2,0.8l-0.5-0.9c0.5-0.3,1-0.6,1.5-0.7c0.4-0.2,1-0.2,1.6-0.2c0.9,0,1.6,0.2,2.1,0.7c0.5,0.4,0.7,1.1,0.8,1.9
			l0,4.8H473z M472.2,49.6c0.4-0.3,0.7-0.7,0.7-1.1v-0.7h-2.1c-0.6,0-1,0.1-1.3,0.3c-0.3,0.2-0.4,0.4-0.4,0.8c0,0.4,0.1,0.7,0.4,0.9
			c0.3,0.2,0.7,0.3,1.1,0.3C471.3,50.1,471.8,49.9,472.2,49.6z"/>
		<path class="st0" d="M77.4,63.1c0.6,0.7,0.9,1.6,0.9,2.8c0,0.2,0,0.3,0,0.4h-5.7c0.1,0.7,0.4,1.2,0.8,1.6c0.4,0.4,1,0.6,1.6,0.6
			c0.4,0,0.8-0.1,1.2-0.2c0.4-0.2,0.7-0.4,1-0.7l0.7,0.7c-0.4,0.4-0.8,0.7-1.3,0.9c-0.5,0.2-1.1,0.3-1.7,0.3c-0.7,0-1.3-0.2-1.9-0.5
			c-0.6-0.3-1-0.7-1.3-1.3c-0.3-0.6-0.5-1.2-0.5-1.9c0-0.7,0.2-1.3,0.5-1.9c0.3-0.6,0.7-1,1.3-1.3c0.5-0.3,1.2-0.5,1.9-0.5
			C75.9,62.1,76.8,62.4,77.4,63.1z M77.1,65.3c0-0.7-0.3-1.2-0.7-1.6c-0.4-0.4-0.9-0.6-1.6-0.6c-0.6,0-1.2,0.2-1.6,0.6
			c-0.4,0.4-0.7,0.9-0.8,1.6H77.1z"/>
		<path class="st0" d="M81.8,60.6c-0.2,0.2-0.3,0.5-0.3,0.9v0.9h2v1h-2v6h-1.3v-6h-0.9v-1h0.9v-0.8c0-0.5,0.1-1,0.3-1.4
			c0.2-0.4,0.5-0.7,0.9-0.8c0.4-0.2,0.8-0.3,1.2-0.3c0.4,0,0.8,0.1,1.3,0.3l-0.3,1c-0.3-0.2-0.6-0.2-0.9-0.2
			C82.3,60.3,82,60.4,81.8,60.6z M85.8,59.5c0.2,0.2,0.2,0.4,0.2,0.6c0,0.2-0.1,0.4-0.2,0.6c-0.2,0.2-0.3,0.2-0.6,0.2
			c-0.2,0-0.4-0.1-0.6-0.2c-0.2-0.2-0.2-0.4-0.2-0.6c0-0.2,0.1-0.4,0.2-0.6c0.2-0.2,0.3-0.2,0.6-0.2C85.5,59.2,85.7,59.3,85.8,59.5z
			 M84.6,62.1h1.3v7.3h-1.3V62.1z"/>
		<path class="st0" d="M91.4,63.2c-0.5,0-0.9,0.1-1.3,0.3c-0.4,0.2-0.7,0.5-0.9,0.9c-0.2,0.4-0.3,0.8-0.3,1.3c0,0.5,0.1,0.9,0.3,1.3
			c0.2,0.4,0.5,0.7,0.9,0.9c0.4,0.2,0.8,0.3,1.2,0.3c0.5,0,0.9-0.1,1.3-0.2c0.4-0.2,0.7-0.4,0.9-0.7l0.7,0.7
			c-0.3,0.4-0.8,0.7-1.3,0.9c-0.5,0.2-1.1,0.3-1.7,0.3c-0.7,0-1.3-0.2-1.9-0.5s-1-0.7-1.3-1.3c-0.3-0.6-0.5-1.2-0.5-1.9
			c0-0.7,0.2-1.4,0.5-1.9c0.3-0.6,0.7-1,1.3-1.3s1.2-0.5,1.9-0.5c0.6,0,1.2,0.1,1.7,0.3c0.5,0.2,0.9,0.5,1.2,0.8l-0.7,0.9
			C92.9,63.5,92.2,63.2,91.4,63.2z"/>
		<path class="st0" d="M100.2,69.4v-1c-0.5,0.7-1.4,1.1-2.5,1.1c-0.5,0-0.9-0.1-1.3-0.3c-0.4-0.2-0.7-0.5-0.9-0.8
			c-0.2-0.3-0.3-0.7-0.3-1.1c0-0.7,0.2-1.2,0.7-1.5c0.5-0.4,1.2-0.6,2-0.6h2.3v-0.3c0-0.5-0.2-0.9-0.5-1.2c-0.3-0.3-0.8-0.4-1.4-0.4
			c-0.7,0-1.5,0.3-2.2,0.8L95.6,63c0.5-0.3,1-0.6,1.5-0.7c0.4-0.2,1-0.2,1.6-0.2c0.9,0,1.6,0.2,2.1,0.7c0.5,0.4,0.7,1.1,0.8,1.9
			l0,4.8H100.2z M99.5,68c0.4-0.3,0.7-0.7,0.7-1.1v-0.7h-2.1c-0.6,0-1,0.1-1.3,0.3c-0.3,0.2-0.4,0.4-0.4,0.8c0,0.4,0.1,0.7,0.4,0.9
			c0.3,0.2,0.7,0.3,1.1,0.3C98.5,68.4,99,68.2,99.5,68z"/>
		<path class="st0" d="M106.8,63.2c-0.5,0-0.9,0.1-1.3,0.3c-0.4,0.2-0.7,0.5-0.9,0.9c-0.2,0.4-0.3,0.8-0.3,1.3
			c0,0.5,0.1,0.9,0.3,1.3c0.2,0.4,0.5,0.7,0.9,0.9c0.4,0.2,0.8,0.3,1.2,0.3c0.5,0,0.9-0.1,1.3-0.2c0.4-0.2,0.7-0.4,0.9-0.7l0.7,0.7
			c-0.3,0.4-0.8,0.7-1.3,0.9c-0.5,0.2-1.1,0.3-1.7,0.3c-0.7,0-1.3-0.2-1.9-0.5s-1-0.7-1.3-1.3c-0.3-0.6-0.5-1.2-0.5-1.9
			c0-0.7,0.2-1.4,0.5-1.9c0.3-0.6,0.7-1,1.3-1.3s1.2-0.5,1.9-0.5c0.6,0,1.2,0.1,1.7,0.3c0.5,0.2,0.9,0.5,1.2,0.8l-0.7,0.9
			C108.3,63.5,107.6,63.2,106.8,63.2z"/>
		<path class="st0" d="M112.7,59.5c0.2,0.2,0.2,0.4,0.2,0.6c0,0.2-0.1,0.4-0.2,0.6c-0.2,0.2-0.3,0.2-0.6,0.2c-0.2,0-0.4-0.1-0.6-0.2
			c-0.2-0.2-0.2-0.4-0.2-0.6c0-0.2,0.1-0.4,0.2-0.6c0.2-0.2,0.3-0.2,0.6-0.2C112.3,59.2,112.5,59.3,112.7,59.5z M111.5,62.1h1.3v7.3
			h-1.3V62.1z"/>
		<path class="st0" d="M119.7,69.4v-1c-0.5,0.7-1.4,1.1-2.5,1.1c-0.5,0-0.9-0.1-1.3-0.3c-0.4-0.2-0.7-0.5-0.9-0.8
			c-0.2-0.3-0.3-0.7-0.3-1.1c0-0.7,0.2-1.2,0.7-1.5c0.5-0.4,1.2-0.6,2-0.6h2.3v-0.3c0-0.5-0.2-0.9-0.5-1.2c-0.3-0.3-0.8-0.4-1.4-0.4
			c-0.7,0-1.5,0.3-2.2,0.8L115,63c0.5-0.3,1-0.6,1.5-0.7c0.4-0.2,1-0.2,1.6-0.2c0.9,0,1.6,0.2,2.1,0.7c0.5,0.4,0.7,1.1,0.8,1.9
			l0,4.8H119.7z M118.9,68c0.4-0.3,0.7-0.7,0.7-1.1v-0.7h-2.1c-0.6,0-1,0.1-1.3,0.3c-0.3,0.2-0.4,0.4-0.4,0.8c0,0.4,0.1,0.7,0.4,0.9
			c0.3,0.2,0.7,0.3,1.1,0.3C118,68.4,118.5,68.2,118.9,68z"/>
		<path class="st0" d="M132.7,62.5c0.5,0.3,0.9,0.7,1.2,1.3c0.3,0.6,0.4,1.2,0.4,1.9c0,0.7-0.1,1.3-0.4,1.9c-0.3,0.6-0.7,1-1.2,1.3
			c-0.5,0.3-1.1,0.5-1.8,0.5c-0.6,0-1.2-0.1-1.6-0.4c-0.5-0.3-0.8-0.6-1.1-1.1v4.1h-1.3v-9.9h1.3v1.4c0.3-0.5,0.6-0.8,1.1-1.1
			c0.5-0.3,1-0.4,1.6-0.4C131.6,62.1,132.2,62.2,132.7,62.5z M131.9,68c0.4-0.2,0.7-0.5,0.9-0.9c0.2-0.4,0.3-0.8,0.3-1.3
			c0-0.5-0.1-0.9-0.3-1.3c-0.2-0.4-0.5-0.7-0.9-0.9c-0.4-0.2-0.8-0.3-1.3-0.3c-0.5,0-0.9,0.1-1.3,0.3c-0.4,0.2-0.7,0.5-0.9,0.9
			c-0.2,0.4-0.3,0.8-0.3,1.3c0,0.5,0.1,1,0.3,1.3c0.2,0.4,0.5,0.7,0.9,0.9c0.4,0.2,0.8,0.3,1.3,0.3C131.1,68.3,131.5,68.2,131.9,68z
			"/>
		<path class="st0" d="M140.6,69.4v-1c-0.5,0.7-1.4,1.1-2.5,1.1c-0.5,0-0.9-0.1-1.3-0.3c-0.4-0.2-0.7-0.5-0.9-0.8
			c-0.2-0.3-0.3-0.7-0.3-1.1c0-0.7,0.2-1.2,0.7-1.5c0.5-0.4,1.2-0.6,2-0.6h2.3v-0.3c0-0.5-0.2-0.9-0.5-1.2c-0.3-0.3-0.8-0.4-1.4-0.4
			c-0.7,0-1.5,0.3-2.2,0.8L136,63c0.5-0.3,1-0.6,1.5-0.7c0.4-0.2,1-0.2,1.6-0.2c0.9,0,1.6,0.2,2.1,0.7c0.5,0.4,0.7,1.1,0.8,1.9
			l0,4.8H140.6z M139.8,68c0.4-0.3,0.7-0.7,0.7-1.1v-0.7h-2.1c-0.6,0-1,0.1-1.3,0.3c-0.3,0.2-0.4,0.4-0.4,0.8c0,0.4,0.1,0.7,0.4,0.9
			c0.3,0.2,0.7,0.3,1.1,0.3C138.9,68.4,139.4,68.2,139.8,68z"/>
		<path class="st0" d="M146.4,62.5c0.4-0.3,1-0.4,1.6-0.4v1.2c-0.7,0-1.3,0.2-1.8,0.6c-0.5,0.4-0.7,1-0.8,1.7v3.8h-1.3v-7.3h1.3v1.6
			C145.7,63.2,146,62.8,146.4,62.5z"/>
		<path class="st0" d="M153.5,69.4v-1c-0.5,0.7-1.4,1.1-2.5,1.1c-0.5,0-0.9-0.1-1.3-0.3c-0.4-0.2-0.7-0.5-0.9-0.8
			c-0.2-0.3-0.3-0.7-0.3-1.1c0-0.7,0.2-1.2,0.7-1.5c0.5-0.4,1.2-0.6,2-0.6h2.3v-0.3c0-0.5-0.2-0.9-0.5-1.2c-0.3-0.3-0.8-0.4-1.4-0.4
			c-0.7,0-1.5,0.3-2.2,0.8l-0.5-0.9c0.5-0.3,1-0.6,1.5-0.7c0.4-0.2,1-0.2,1.6-0.2c0.9,0,1.6,0.2,2.1,0.7c0.5,0.4,0.7,1.1,0.8,1.9
			l0,4.8H153.5z M152.8,68c0.4-0.3,0.7-0.7,0.7-1.1v-0.7h-2.1c-0.6,0-1,0.1-1.3,0.3c-0.3,0.2-0.4,0.4-0.4,0.8c0,0.4,0.1,0.7,0.4,0.9
			c0.3,0.2,0.7,0.3,1.1,0.3C151.8,68.4,152.3,68.2,152.8,68z"/>
		<path class="st0" d="M160.7,59.2h1.3v10.2h-1.3V59.2z"/>
		<path class="st0" d="M169.5,62.5c0.6,0.3,1,0.7,1.3,1.3c0.3,0.6,0.5,1.2,0.5,1.9c0,0.7-0.2,1.4-0.5,1.9c-0.3,0.6-0.8,1-1.3,1.3
			c-0.6,0.3-1.2,0.5-1.9,0.5c-0.7,0-1.4-0.2-1.9-0.5c-0.6-0.3-1-0.7-1.3-1.3c-0.3-0.6-0.5-1.2-0.5-1.9c0-0.7,0.2-1.3,0.5-1.9
			c0.3-0.6,0.8-1,1.3-1.3c0.6-0.3,1.2-0.5,1.9-0.5C168.3,62.1,169,62.2,169.5,62.5z M166.3,63.5c-0.4,0.2-0.7,0.5-0.9,0.9
			c-0.2,0.4-0.3,0.8-0.3,1.3c0,0.5,0.1,1,0.3,1.3c0.2,0.4,0.5,0.7,0.9,0.9c0.4,0.2,0.8,0.3,1.3,0.3c0.5,0,0.9-0.1,1.3-0.3
			c0.4-0.2,0.7-0.5,0.9-0.9c0.2-0.4,0.3-0.8,0.3-1.3c0-0.5-0.1-0.9-0.3-1.3c-0.2-0.4-0.5-0.7-0.9-0.9c-0.4-0.2-0.8-0.3-1.3-0.3
			C167.1,63.2,166.7,63.3,166.3,63.5z"/>
		<path class="st0" d="M179.6,62.1v6.5c0,0.7-0.2,1.3-0.5,1.8c-0.3,0.5-0.7,0.9-1.3,1.2c-0.6,0.3-1.2,0.4-2,0.4c-1.1,0-2.1-0.3-3-1
			l0.6-0.9c0.4,0.3,0.7,0.5,1.1,0.7c0.4,0.1,0.8,0.2,1.3,0.2c0.8,0,1.4-0.2,1.8-0.6c0.4-0.4,0.7-1,0.7-1.7v-1c-0.3,0.4-0.6,0.8-1,1
			c-0.4,0.2-0.9,0.4-1.5,0.4c-0.7,0-1.2-0.1-1.7-0.4c-0.5-0.3-0.9-0.7-1.2-1.2c-0.3-0.5-0.4-1.1-0.4-1.8c0-0.7,0.1-1.3,0.4-1.8
			c0.3-0.5,0.7-0.9,1.2-1.2c0.5-0.3,1.1-0.4,1.7-0.4c0.6,0,1.1,0.1,1.5,0.4c0.4,0.2,0.8,0.6,1,1v-1.3H179.6z M177.2,67.7
			c0.3-0.2,0.6-0.5,0.8-0.9c0.2-0.4,0.3-0.8,0.3-1.3c0-0.5-0.1-0.9-0.3-1.3c-0.2-0.4-0.5-0.7-0.8-0.9c-0.3-0.2-0.7-0.3-1.2-0.3
			c-0.4,0-0.8,0.1-1.2,0.3c-0.4,0.2-0.6,0.5-0.8,0.9c-0.2,0.4-0.3,0.8-0.3,1.3c0,0.7,0.2,1.3,0.7,1.8c0.4,0.5,1,0.7,1.7,0.7
			C176.4,68,176.8,67.9,177.2,67.7z"/>
		<path class="st0" d="M184.2,62.5c0.4-0.3,1-0.4,1.6-0.4v1.2c-0.7,0-1.3,0.2-1.8,0.6c-0.5,0.4-0.7,1-0.8,1.7v3.8h-1.3v-7.3h1.3v1.6
			C183.4,63.2,183.8,62.8,184.2,62.5z"/>
		<path class="st0" d="M191.3,69.4v-1c-0.5,0.7-1.4,1.1-2.5,1.1c-0.5,0-0.9-0.1-1.3-0.3c-0.4-0.2-0.7-0.5-0.9-0.8
			c-0.2-0.3-0.3-0.7-0.3-1.1c0-0.7,0.2-1.2,0.7-1.5c0.5-0.4,1.2-0.6,2-0.6h2.3v-0.3c0-0.5-0.2-0.9-0.5-1.2c-0.3-0.3-0.8-0.4-1.4-0.4
			c-0.7,0-1.5,0.3-2.2,0.8l-0.5-0.9c0.5-0.3,1-0.6,1.5-0.7c0.4-0.2,1-0.2,1.6-0.2c0.9,0,1.6,0.2,2.1,0.7c0.5,0.4,0.7,1.1,0.8,1.9
			l0,4.8H191.3z M190.5,68c0.4-0.3,0.7-0.7,0.7-1.1v-0.7h-2.1c-0.6,0-1,0.1-1.3,0.3c-0.3,0.2-0.4,0.4-0.4,0.8c0,0.4,0.1,0.7,0.4,0.9
			c0.3,0.2,0.7,0.3,1.1,0.3C189.6,68.4,190.1,68.2,190.5,68z"/>
		<path class="st0" d="M197.1,62.5c0.4-0.3,1-0.4,1.6-0.4v1.2c-0.7,0-1.3,0.2-1.8,0.6c-0.5,0.4-0.7,1-0.8,1.7v3.8h-1.3v-7.3h1.3v1.6
			C196.3,63.2,196.7,62.8,197.1,62.5z"/>
		<path class="st0" d="M209.5,62.5c0.5,0.3,0.9,0.7,1.2,1.3c0.3,0.6,0.4,1.2,0.4,1.9c0,0.7-0.1,1.3-0.4,1.9c-0.3,0.6-0.7,1-1.2,1.3
			c-0.5,0.3-1.1,0.5-1.8,0.5c-0.6,0-1.2-0.1-1.6-0.4c-0.5-0.3-0.8-0.6-1.1-1.1v1.4h-1.3V59.2h1.3v4.4c0.3-0.5,0.6-0.8,1.1-1.1
			c0.5-0.3,1-0.4,1.6-0.4C208.4,62.1,209,62.2,209.5,62.5z M208.7,68c0.4-0.2,0.7-0.5,0.9-0.9c0.2-0.4,0.3-0.8,0.3-1.3
			c0-0.5-0.1-0.9-0.3-1.3c-0.2-0.4-0.5-0.7-0.9-0.9c-0.4-0.2-0.8-0.3-1.3-0.3c-0.5,0-0.9,0.1-1.3,0.3c-0.4,0.2-0.7,0.5-0.9,0.9
			c-0.2,0.4-0.3,0.8-0.3,1.3c0,0.5,0.1,1,0.3,1.3c0.2,0.4,0.5,0.7,0.9,0.9c0.4,0.2,0.8,0.3,1.3,0.3C207.9,68.3,208.4,68.2,208.7,68z
			"/>
		<path class="st0" d="M218.5,63.1c0.6,0.7,0.9,1.6,0.9,2.8c0,0.2,0,0.3,0,0.4h-5.7c0.1,0.7,0.4,1.2,0.8,1.6c0.4,0.4,1,0.6,1.6,0.6
			c0.4,0,0.8-0.1,1.2-0.2c0.4-0.2,0.7-0.4,1-0.7l0.7,0.7c-0.4,0.4-0.8,0.7-1.3,0.9c-0.5,0.2-1.1,0.3-1.7,0.3c-0.7,0-1.3-0.2-1.9-0.5
			c-0.6-0.3-1-0.7-1.3-1.3c-0.3-0.6-0.5-1.2-0.5-1.9c0-0.7,0.2-1.3,0.5-1.9c0.3-0.6,0.7-1,1.3-1.3c0.5-0.3,1.2-0.5,1.9-0.5
			C217,62.1,217.9,62.4,218.5,63.1z M218.2,65.3c0-0.7-0.3-1.2-0.7-1.6c-0.4-0.4-0.9-0.6-1.6-0.6c-0.6,0-1.2,0.2-1.6,0.6
			c-0.4,0.4-0.7,0.9-0.8,1.6H218.2z"/>
		<path class="st0" d="M227.1,62.8c0.5,0.5,0.7,1.2,0.7,2.1v4.5h-1.3v-4.2c0-0.6-0.2-1.1-0.5-1.4c-0.3-0.3-0.8-0.5-1.4-0.5
			c-0.7,0-1.2,0.2-1.6,0.6c-0.4,0.4-0.6,0.9-0.7,1.6v3.9h-1.3v-7.3h1.3v1.5c0.5-1,1.4-1.6,2.8-1.6C226,62.1,226.6,62.3,227.1,62.8z"
			/>
		<path class="st0" d="M235.6,63.1c0.6,0.7,0.9,1.6,0.9,2.8c0,0.2,0,0.3,0,0.4h-5.7c0.1,0.7,0.4,1.2,0.8,1.6c0.4,0.4,1,0.6,1.6,0.6
			c0.4,0,0.8-0.1,1.2-0.2c0.4-0.2,0.7-0.4,1-0.7l0.7,0.7c-0.4,0.4-0.8,0.7-1.3,0.9c-0.5,0.2-1.1,0.3-1.7,0.3c-0.7,0-1.3-0.2-1.9-0.5
			c-0.6-0.3-1-0.7-1.3-1.3c-0.3-0.6-0.5-1.2-0.5-1.9c0-0.7,0.2-1.3,0.5-1.9c0.3-0.6,0.7-1,1.3-1.3c0.5-0.3,1.2-0.5,1.9-0.5
			C234.2,62.1,235,62.4,235.6,63.1z M235.3,65.3c0-0.7-0.3-1.2-0.7-1.6c-0.4-0.4-0.9-0.6-1.6-0.6c-0.6,0-1.2,0.2-1.6,0.6
			c-0.4,0.4-0.7,0.9-0.8,1.6H235.3z"/>
		<path class="st0" d="M240,60.6c-0.2,0.2-0.3,0.5-0.3,0.9v0.9h2v1h-2v6h-1.3v-6h-0.9v-1h0.9v-0.8c0-0.5,0.1-1,0.3-1.4
			c0.2-0.4,0.5-0.7,0.9-0.8c0.4-0.2,0.8-0.3,1.2-0.3c0.4,0,0.8,0.1,1.3,0.3l-0.3,1c-0.3-0.2-0.6-0.2-0.9-0.2
			C240.5,60.3,240.2,60.4,240,60.6z M244.1,59.5c0.2,0.2,0.2,0.4,0.2,0.6c0,0.2-0.1,0.4-0.2,0.6c-0.2,0.2-0.3,0.2-0.6,0.2
			c-0.2,0-0.4-0.1-0.6-0.2c-0.2-0.2-0.2-0.4-0.2-0.6c0-0.2,0.1-0.4,0.2-0.6c0.2-0.2,0.3-0.2,0.6-0.2
			C243.7,59.2,243.9,59.3,244.1,59.5z M242.9,62.1h1.3v7.3h-1.3V62.1z"/>
		<path class="st0" d="M249.7,63.2c-0.5,0-0.9,0.1-1.3,0.3c-0.4,0.2-0.7,0.5-0.9,0.9c-0.2,0.4-0.3,0.8-0.3,1.3
			c0,0.5,0.1,0.9,0.3,1.3c0.2,0.4,0.5,0.7,0.9,0.9c0.4,0.2,0.8,0.3,1.2,0.3c0.5,0,0.9-0.1,1.3-0.2c0.4-0.2,0.7-0.4,0.9-0.7l0.7,0.7
			c-0.3,0.4-0.8,0.7-1.3,0.9c-0.5,0.2-1.1,0.3-1.7,0.3c-0.7,0-1.3-0.2-1.9-0.5s-1-0.7-1.3-1.3c-0.3-0.6-0.5-1.2-0.5-1.9
			c0-0.7,0.2-1.4,0.5-1.9c0.3-0.6,0.7-1,1.3-1.3s1.2-0.5,1.9-0.5c0.6,0,1.2,0.1,1.7,0.3c0.5,0.2,0.9,0.5,1.2,0.8l-0.7,0.9
			C251.2,63.5,250.5,63.2,249.7,63.2z"/>
		<path class="st0" d="M255.6,59.5c0.2,0.2,0.2,0.4,0.2,0.6c0,0.2-0.1,0.4-0.2,0.6c-0.2,0.2-0.3,0.2-0.6,0.2c-0.2,0-0.4-0.1-0.6-0.2
			c-0.2-0.2-0.2-0.4-0.2-0.6c0-0.2,0.1-0.4,0.2-0.6c0.2-0.2,0.3-0.2,0.6-0.2C255.2,59.2,255.4,59.3,255.6,59.5z M254.4,62.1h1.3v7.3
			h-1.3V62.1z"/>
		<path class="st0" d="M263.1,62.5c0.6,0.3,1,0.7,1.3,1.3c0.3,0.6,0.5,1.2,0.5,1.9c0,0.7-0.2,1.4-0.5,1.9c-0.3,0.6-0.8,1-1.3,1.3
			s-1.2,0.5-1.9,0.5c-0.7,0-1.4-0.2-1.9-0.5c-0.6-0.3-1-0.7-1.3-1.3c-0.3-0.6-0.5-1.2-0.5-1.9c0-0.7,0.2-1.3,0.5-1.9s0.8-1,1.3-1.3
			c0.6-0.3,1.2-0.5,1.9-0.5C261.9,62.1,262.5,62.2,263.1,62.5z M259.9,63.5c-0.4,0.2-0.7,0.5-0.9,0.9c-0.2,0.4-0.3,0.8-0.3,1.3
			c0,0.5,0.1,1,0.3,1.3c0.2,0.4,0.5,0.7,0.9,0.9c0.4,0.2,0.8,0.3,1.3,0.3c0.5,0,0.9-0.1,1.3-0.3c0.4-0.2,0.7-0.5,0.9-0.9
			c0.2-0.4,0.3-0.8,0.3-1.3c0-0.5-0.1-0.9-0.3-1.3c-0.2-0.4-0.5-0.7-0.9-0.9c-0.4-0.2-0.8-0.3-1.3-0.3
			C260.7,63.2,260.3,63.3,259.9,63.5z"/>
		<path class="st0" d="M269.6,63.3c-0.4-0.1-0.7-0.2-1-0.2c-0.4,0-0.7,0.1-0.9,0.2c-0.2,0.1-0.4,0.4-0.4,0.7c0,0.3,0.1,0.5,0.4,0.7
			c0.3,0.2,0.7,0.3,1.2,0.5c0.5,0.1,0.9,0.3,1.2,0.4c0.3,0.1,0.6,0.4,0.8,0.6c0.2,0.3,0.3,0.7,0.3,1.1c0,0.7-0.3,1.2-0.8,1.6
			c-0.5,0.4-1.2,0.5-1.9,0.5c-0.5,0-1.1-0.1-1.6-0.3c-0.5-0.2-0.9-0.4-1.3-0.7l0.5-0.9c0.3,0.3,0.7,0.5,1.1,0.7
			c0.4,0.2,0.9,0.2,1.3,0.2c0.4,0,0.8-0.1,1-0.2c0.3-0.2,0.4-0.4,0.4-0.7c0-0.3-0.1-0.6-0.4-0.7c-0.3-0.2-0.7-0.3-1.2-0.5
			c-0.5-0.1-0.9-0.3-1.2-0.4c-0.3-0.1-0.6-0.4-0.8-0.6c-0.2-0.3-0.3-0.6-0.3-1.1c0-0.7,0.2-1.2,0.7-1.5c0.5-0.3,1.1-0.5,1.9-0.5
			c0.4,0,0.9,0.1,1.3,0.2c0.4,0.1,0.8,0.3,1.1,0.5l-0.5,1C270.3,63.5,270,63.4,269.6,63.3z"/>
		<path class="st0" d="M283.4,59.2v10.2h-1.3V68c-0.3,0.5-0.6,0.9-1.1,1.1c-0.5,0.3-1,0.4-1.6,0.4c-0.7,0-1.3-0.2-1.8-0.5
			c-0.5-0.3-0.9-0.8-1.2-1.3c-0.3-0.6-0.4-1.2-0.4-1.9c0-0.7,0.1-1.3,0.4-1.9c0.3-0.6,0.7-1,1.2-1.3c0.5-0.3,1.1-0.5,1.8-0.5
			c0.6,0,1.2,0.1,1.6,0.4c0.5,0.3,0.8,0.6,1.1,1.1v-4.4H283.4z M280.9,68c0.4-0.2,0.7-0.5,0.9-0.9c0.2-0.4,0.3-0.8,0.3-1.3
			c0-0.5-0.1-1-0.3-1.3c-0.2-0.4-0.5-0.7-0.9-0.9c-0.4-0.2-0.8-0.3-1.3-0.3c-0.5,0-0.9,0.1-1.3,0.3s-0.7,0.5-0.9,0.9
			c-0.2,0.4-0.3,0.8-0.3,1.3c0,0.5,0.1,0.9,0.3,1.3c0.2,0.4,0.5,0.7,0.9,0.9c0.4,0.2,0.8,0.3,1.3,0.3
			C280.1,68.4,280.5,68.3,280.9,68z"/>
		<path class="st0" d="M291.4,63.1c0.6,0.7,0.9,1.6,0.9,2.8c0,0.2,0,0.3,0,0.4h-5.7c0.1,0.7,0.4,1.2,0.8,1.6c0.4,0.4,1,0.6,1.6,0.6
			c0.4,0,0.8-0.1,1.2-0.2c0.4-0.2,0.7-0.4,1-0.7l0.7,0.7c-0.4,0.4-0.8,0.7-1.3,0.9c-0.5,0.2-1.1,0.3-1.7,0.3c-0.7,0-1.3-0.2-1.9-0.5
			c-0.6-0.3-1-0.7-1.3-1.3c-0.3-0.6-0.5-1.2-0.5-1.9c0-0.7,0.2-1.3,0.5-1.9c0.3-0.6,0.7-1,1.3-1.3c0.5-0.3,1.2-0.5,1.9-0.5
			C290,62.1,290.8,62.4,291.4,63.1z M291.1,65.3c0-0.7-0.3-1.2-0.7-1.6c-0.4-0.4-0.9-0.6-1.6-0.6c-0.6,0-1.2,0.2-1.6,0.6
			c-0.4,0.4-0.7,0.9-0.8,1.6H291.1z"/>
		<path class="st0" d="M300.6,63.3c-0.4-0.1-0.7-0.2-1-0.2c-0.4,0-0.7,0.1-0.9,0.2c-0.2,0.1-0.4,0.4-0.4,0.7c0,0.3,0.1,0.5,0.4,0.7
			c0.3,0.2,0.7,0.3,1.2,0.5c0.5,0.1,0.9,0.3,1.2,0.4c0.3,0.1,0.6,0.4,0.8,0.6c0.2,0.3,0.3,0.7,0.3,1.1c0,0.7-0.3,1.2-0.8,1.6
			c-0.5,0.4-1.2,0.5-1.9,0.5c-0.5,0-1.1-0.1-1.6-0.3c-0.5-0.2-0.9-0.4-1.3-0.7l0.5-0.9c0.3,0.3,0.7,0.5,1.1,0.7
			c0.4,0.2,0.9,0.2,1.3,0.2c0.4,0,0.8-0.1,1-0.2c0.3-0.2,0.4-0.4,0.4-0.7c0-0.3-0.1-0.6-0.4-0.7c-0.3-0.2-0.7-0.3-1.2-0.5
			c-0.5-0.1-0.9-0.3-1.2-0.4c-0.3-0.1-0.6-0.4-0.8-0.6c-0.2-0.3-0.3-0.6-0.3-1.1c0-0.7,0.2-1.2,0.7-1.5c0.5-0.3,1.1-0.5,1.9-0.5
			c0.4,0,0.9,0.1,1.3,0.2c0.4,0.1,0.8,0.3,1.1,0.5l-0.5,1C301.3,63.5,301,63.4,300.6,63.3z"/>
		<path class="st0" d="M308.4,69.4v-1c-0.5,0.7-1.4,1.1-2.5,1.1c-0.5,0-0.9-0.1-1.3-0.3c-0.4-0.2-0.7-0.5-0.9-0.8
			c-0.2-0.3-0.3-0.7-0.3-1.1c0-0.7,0.2-1.2,0.7-1.5c0.5-0.4,1.2-0.6,2-0.6h2.3v-0.3c0-0.5-0.2-0.9-0.5-1.2c-0.3-0.3-0.8-0.4-1.4-0.4
			c-0.7,0-1.5,0.3-2.2,0.8l-0.5-0.9c0.5-0.3,1-0.6,1.5-0.7c0.4-0.2,1-0.2,1.6-0.2c0.9,0,1.6,0.2,2.1,0.7c0.5,0.4,0.7,1.1,0.8,1.9
			l0,4.8H308.4z M307.6,68c0.4-0.3,0.7-0.7,0.7-1.1v-0.7h-2.1c-0.6,0-1,0.1-1.3,0.3c-0.3,0.2-0.4,0.4-0.4,0.8c0,0.4,0.1,0.7,0.4,0.9
			c0.3,0.2,0.7,0.3,1.1,0.3C306.7,68.4,307.2,68.2,307.6,68z"/>
		<path class="st0" d="M312,59.2h1.3v10.2H312V59.2z"/>
		<path class="st0" d="M322.3,62.1v7.3H321v-1.5c-0.5,1-1.4,1.6-2.7,1.6c-0.8,0-1.5-0.2-2-0.7c-0.5-0.5-0.7-1.2-0.7-2.1v-4.5h1.3
			v4.2c0,0.6,0.2,1.1,0.5,1.4c0.3,0.3,0.8,0.5,1.4,0.5c0.7,0,1.2-0.2,1.6-0.7c0.4-0.5,0.6-1.1,0.6-1.8v-3.6H322.3z"/>
		<path class="st0" d="M331.6,59.2v10.2h-1.3V68c-0.3,0.5-0.6,0.9-1.1,1.1c-0.5,0.3-1,0.4-1.6,0.4c-0.7,0-1.3-0.2-1.8-0.5
			c-0.5-0.3-0.9-0.8-1.2-1.3c-0.3-0.6-0.4-1.2-0.4-1.9c0-0.7,0.1-1.3,0.4-1.9c0.3-0.6,0.7-1,1.2-1.3c0.5-0.3,1.1-0.5,1.8-0.5
			c0.6,0,1.2,0.1,1.6,0.4c0.5,0.3,0.8,0.6,1.1,1.1v-4.4H331.6z M329.1,68c0.4-0.2,0.7-0.5,0.9-0.9c0.2-0.4,0.3-0.8,0.3-1.3
			c0-0.5-0.1-1-0.3-1.3s-0.5-0.7-0.9-0.9c-0.4-0.2-0.8-0.3-1.3-0.3c-0.5,0-0.9,0.1-1.3,0.3c-0.4,0.2-0.7,0.5-0.9,0.9
			c-0.2,0.4-0.3,0.8-0.3,1.3c0,0.5,0.1,0.9,0.3,1.3c0.2,0.4,0.5,0.7,0.9,0.9c0.4,0.2,0.8,0.3,1.3,0.3
			C328.3,68.4,328.7,68.3,329.1,68z"/>
		<path class="st0" d="M344.5,59.2v10.2h-1.3V68c-0.3,0.5-0.6,0.9-1.1,1.1c-0.5,0.3-1,0.4-1.6,0.4c-0.7,0-1.3-0.2-1.8-0.5
			c-0.5-0.3-0.9-0.8-1.2-1.3c-0.3-0.6-0.4-1.2-0.4-1.9c0-0.7,0.1-1.3,0.4-1.9c0.3-0.6,0.7-1,1.2-1.3c0.5-0.3,1.1-0.5,1.8-0.5
			c0.6,0,1.2,0.1,1.6,0.4c0.5,0.3,0.8,0.6,1.1,1.1v-4.4H344.5z M342,68c0.4-0.2,0.7-0.5,0.9-0.9c0.2-0.4,0.3-0.8,0.3-1.3
			c0-0.5-0.1-1-0.3-1.3c-0.2-0.4-0.5-0.7-0.9-0.9c-0.4-0.2-0.8-0.3-1.3-0.3c-0.5,0-0.9,0.1-1.3,0.3s-0.7,0.5-0.9,0.9
			c-0.2,0.4-0.3,0.8-0.3,1.3c0,0.5,0.1,0.9,0.3,1.3c0.2,0.4,0.5,0.7,0.9,0.9c0.4,0.2,0.8,0.3,1.3,0.3C341.2,68.4,341.7,68.3,342,68z
			"/>
		<path class="st0" d="M352.6,63.1c0.6,0.7,0.9,1.6,0.9,2.8c0,0.2,0,0.3,0,0.4h-5.7c0.1,0.7,0.4,1.2,0.8,1.6c0.4,0.4,1,0.6,1.6,0.6
			c0.4,0,0.8-0.1,1.2-0.2c0.4-0.2,0.7-0.4,1-0.7l0.7,0.7c-0.4,0.4-0.8,0.7-1.3,0.9c-0.5,0.2-1.1,0.3-1.7,0.3c-0.7,0-1.3-0.2-1.9-0.5
			c-0.6-0.3-1-0.7-1.3-1.3c-0.3-0.6-0.5-1.2-0.5-1.9c0-0.7,0.2-1.3,0.5-1.9c0.3-0.6,0.7-1,1.3-1.3c0.5-0.3,1.2-0.5,1.9-0.5
			C351.1,62.1,352,62.4,352.6,63.1z M352.3,65.3c0-0.7-0.3-1.2-0.7-1.6c-0.4-0.4-0.9-0.6-1.6-0.6c-0.6,0-1.2,0.2-1.6,0.6
			c-0.4,0.4-0.7,0.9-0.8,1.6H352.3z"/>
		<path class="st0" d="M358.1,63.3c-0.4-0.1-0.7-0.2-1-0.2c-0.4,0-0.7,0.1-0.9,0.2c-0.2,0.1-0.4,0.4-0.4,0.7c0,0.3,0.1,0.5,0.4,0.7
			c0.3,0.2,0.7,0.3,1.2,0.5c0.5,0.1,0.9,0.3,1.2,0.4c0.3,0.1,0.6,0.4,0.8,0.6s0.3,0.7,0.3,1.1c0,0.7-0.3,1.2-0.8,1.6
			c-0.5,0.4-1.2,0.5-1.9,0.5c-0.5,0-1.1-0.1-1.6-0.3c-0.5-0.2-0.9-0.4-1.3-0.7l0.5-0.9c0.3,0.3,0.7,0.5,1.1,0.7
			c0.4,0.2,0.9,0.2,1.3,0.2c0.4,0,0.8-0.1,1-0.2c0.3-0.2,0.4-0.4,0.4-0.7c0-0.3-0.1-0.6-0.4-0.7c-0.3-0.2-0.7-0.3-1.2-0.5
			c-0.5-0.1-0.9-0.3-1.2-0.4c-0.3-0.1-0.6-0.4-0.8-0.6c-0.2-0.3-0.3-0.6-0.3-1.1c0-0.7,0.2-1.2,0.7-1.5c0.5-0.3,1.1-0.5,1.9-0.5
			c0.4,0,0.9,0.1,1.3,0.2c0.4,0.1,0.8,0.3,1.1,0.5l-0.5,1C358.8,63.5,358.5,63.4,358.1,63.3z"/>
		<path class="st0" d="M367,63.1c0.6,0.7,0.9,1.6,0.9,2.8c0,0.2,0,0.3,0,0.4h-5.7c0.1,0.7,0.4,1.2,0.8,1.6c0.4,0.4,1,0.6,1.6,0.6
			c0.4,0,0.8-0.1,1.2-0.2c0.4-0.2,0.7-0.4,1-0.7l0.7,0.7c-0.4,0.4-0.8,0.7-1.3,0.9c-0.5,0.2-1.1,0.3-1.7,0.3c-0.7,0-1.3-0.2-1.9-0.5
			c-0.6-0.3-1-0.7-1.3-1.3c-0.3-0.6-0.5-1.2-0.5-1.9c0-0.7,0.2-1.3,0.5-1.9c0.3-0.6,0.7-1,1.3-1.3c0.5-0.3,1.2-0.5,1.9-0.5
			C365.5,62.1,366.4,62.4,367,63.1z M366.7,65.3c0-0.7-0.3-1.2-0.7-1.6c-0.4-0.4-0.9-0.6-1.6-0.6c-0.6,0-1.2,0.2-1.6,0.6
			c-0.4,0.4-0.7,0.9-0.8,1.6H366.7z"/>
		<path class="st0" d="M374,69.4v-1c-0.5,0.7-1.4,1.1-2.5,1.1c-0.5,0-0.9-0.1-1.3-0.3c-0.4-0.2-0.7-0.5-0.9-0.8
			c-0.2-0.3-0.3-0.7-0.3-1.1c0-0.7,0.2-1.2,0.7-1.5c0.5-0.4,1.2-0.6,2-0.6h2.3v-0.3c0-0.5-0.2-0.9-0.5-1.2c-0.3-0.3-0.8-0.4-1.4-0.4
			c-0.7,0-1.5,0.3-2.2,0.8l-0.5-0.9c0.5-0.3,1-0.6,1.5-0.7c0.4-0.2,1-0.2,1.6-0.2c0.9,0,1.6,0.2,2.1,0.7c0.5,0.4,0.7,1.1,0.8,1.9
			l0,4.8H374z M373.3,68c0.4-0.3,0.7-0.7,0.7-1.1v-0.7h-2.1c-0.6,0-1,0.1-1.3,0.3c-0.3,0.2-0.4,0.4-0.4,0.8c0,0.4,0.1,0.7,0.4,0.9
			c0.3,0.2,0.7,0.3,1.1,0.3C372.3,68.4,372.8,68.2,373.3,68z"/>
		<path class="st0" d="M384.3,59.2v10.2h-1.3V68c-0.3,0.5-0.6,0.9-1.1,1.1c-0.5,0.3-1,0.4-1.6,0.4c-0.7,0-1.3-0.2-1.8-0.5
			c-0.5-0.3-0.9-0.8-1.2-1.3c-0.3-0.6-0.4-1.2-0.4-1.9c0-0.7,0.1-1.3,0.4-1.9c0.3-0.6,0.7-1,1.2-1.3c0.5-0.3,1.1-0.5,1.8-0.5
			c0.6,0,1.2,0.1,1.6,0.4c0.5,0.3,0.8,0.6,1.1,1.1v-4.4H384.3z M381.9,68c0.4-0.2,0.7-0.5,0.9-0.9c0.2-0.4,0.3-0.8,0.3-1.3
			c0-0.5-0.1-1-0.3-1.3c-0.2-0.4-0.5-0.7-0.9-0.9c-0.4-0.2-0.8-0.3-1.3-0.3c-0.5,0-0.9,0.1-1.3,0.3c-0.4,0.2-0.7,0.5-0.9,0.9
			c-0.2,0.4-0.3,0.8-0.3,1.3c0,0.5,0.1,0.9,0.3,1.3c0.2,0.4,0.5,0.7,0.9,0.9c0.4,0.2,0.8,0.3,1.3,0.3
			C381.1,68.4,381.5,68.3,381.9,68z"/>
		<path class="st0" d="M391.9,62.5c0.6,0.3,1,0.7,1.3,1.3c0.3,0.6,0.5,1.2,0.5,1.9c0,0.7-0.2,1.4-0.5,1.9c-0.3,0.6-0.8,1-1.3,1.3
			s-1.2,0.5-1.9,0.5c-0.7,0-1.4-0.2-1.9-0.5c-0.6-0.3-1-0.7-1.3-1.3c-0.3-0.6-0.5-1.2-0.5-1.9c0-0.7,0.2-1.3,0.5-1.9s0.8-1,1.3-1.3
			c0.6-0.3,1.2-0.5,1.9-0.5C390.7,62.1,391.3,62.2,391.9,62.5z M388.7,63.5c-0.4,0.2-0.7,0.5-0.9,0.9c-0.2,0.4-0.3,0.8-0.3,1.3
			c0,0.5,0.1,1,0.3,1.3c0.2,0.4,0.5,0.7,0.9,0.9c0.4,0.2,0.8,0.3,1.3,0.3c0.5,0,0.9-0.1,1.3-0.3c0.4-0.2,0.7-0.5,0.9-0.9
			c0.2-0.4,0.3-0.8,0.3-1.3c0-0.5-0.1-0.9-0.3-1.3c-0.2-0.4-0.5-0.7-0.9-0.9c-0.4-0.2-0.8-0.3-1.3-0.3
			C389.5,63.2,389,63.3,388.7,63.5z"/>
		<path class="st0" d="M398.4,63.3c-0.4-0.1-0.7-0.2-1-0.2c-0.4,0-0.7,0.1-0.9,0.2c-0.2,0.1-0.4,0.4-0.4,0.7c0,0.3,0.1,0.5,0.4,0.7
			c0.3,0.2,0.7,0.3,1.2,0.5c0.5,0.1,0.9,0.3,1.2,0.4c0.3,0.1,0.6,0.4,0.8,0.6c0.2,0.3,0.3,0.7,0.3,1.1c0,0.7-0.3,1.2-0.8,1.6
			c-0.5,0.4-1.2,0.5-1.9,0.5c-0.5,0-1.1-0.1-1.6-0.3c-0.5-0.2-0.9-0.4-1.3-0.7l0.5-0.9c0.3,0.3,0.7,0.5,1.1,0.7
			c0.4,0.2,0.9,0.2,1.3,0.2c0.4,0,0.8-0.1,1-0.2c0.3-0.2,0.4-0.4,0.4-0.7c0-0.3-0.1-0.6-0.4-0.7c-0.3-0.2-0.7-0.3-1.2-0.5
			c-0.5-0.1-0.9-0.3-1.2-0.4c-0.3-0.1-0.6-0.4-0.8-0.6c-0.2-0.3-0.3-0.6-0.3-1.1c0-0.7,0.2-1.2,0.7-1.5c0.5-0.3,1.1-0.5,1.9-0.5
			c0.4,0,0.9,0.1,1.3,0.2c0.4,0.1,0.8,0.3,1.1,0.5l-0.5,1C399.1,63.5,398.8,63.4,398.4,63.3z"/>
		<path class="st0" d="M402.5,68.2c0.1,0.1,0.2,0.3,0.2,0.6c0,0.2-0.1,0.4-0.2,0.6c-0.1,0.2-0.3,0.2-0.5,0.2c-0.2,0-0.4-0.1-0.5-0.2
			c-0.1-0.2-0.2-0.3-0.2-0.6c0-0.2,0.1-0.4,0.2-0.6c0.1-0.1,0.3-0.2,0.5-0.2C402.2,67.9,402.3,68,402.5,68.2z"/>
		<path class="st0" d="M407.1,62c0.3,0.3,0.5,0.6,0.5,1.1c0,0.3-0.1,0.7-0.3,0.9c-0.2,0.3-0.4,0.5-0.8,0.6c-0.3,0.1-0.7,0.2-1.2,0.2
			c-0.4,0-0.7-0.1-1.1-0.2c-0.4-0.1-0.7-0.2-0.9-0.4l0.3-0.6c0.2,0.2,0.5,0.3,0.8,0.4c0.3,0.1,0.6,0.1,0.8,0.1
			c0.5,0,0.8-0.1,1.1-0.3c0.3-0.2,0.4-0.5,0.4-0.8c0-0.3-0.1-0.6-0.4-0.8c-0.3-0.2-0.6-0.3-1.1-0.3h-0.8v-0.5l1.7-1.7h-2.6l0-0.7
			h3.6v0.5l-1.9,1.9l0.3,0C406.4,61.6,406.8,61.8,407.1,62z"/>
	</g>
</g>
</svg>
