<!-- Generator: Adobe Illustrator 20.1.0, SVG Export Plug-In  -->
<svg version="1.1"
	 xmlns="http://www.w3.org/2000/svg" xmlns:xlink="http://www.w3.org/1999/xlink" xmlns:a="http://ns.adobe.com/AdobeSVGViewerExtensions/3.0/"
	 x="0px" y="0px" width="808.4px" height="17px" viewBox="0 0 808.4 17"
	 style="overflow:scroll;enable-background:new 0 0 808.4 17;" xml:space="preserve">
<style type="text/css">
	.st0{opacity:0.9;fill:#F18A21;}
	.st1{opacity:0.8;fill:#333333;}
</style>
<defs>
</defs>
<g>
	<path class="st0" d="M0,0.6h5.8c0.8,0,1.5,0.1,2,0.3c0.6,0.2,1,0.5,1.4,0.9C9.6,2.3,9.8,2.7,10,3.2c0.2,0.5,0.2,1,0.2,1.5
		c0,0.5-0.1,1-0.2,1.5C9.8,6.8,9.6,7.2,9.2,7.6C8.9,8,8.4,8.3,7.8,8.5c-0.6,0.2-1.2,0.4-2,0.4h-3v4.6H0V0.6z M2.8,6.7H5
		c0.3,0,0.6,0,0.9-0.1c0.3,0,0.6-0.1,0.8-0.3S7.1,6,7.3,5.7c0.1-0.3,0.2-0.6,0.2-1S7.4,4,7.3,3.8C7.1,3.5,7,3.3,6.7,3.2
		C6.5,3,6.2,2.9,5.9,2.9C5.6,2.8,5.3,2.8,5,2.8H2.8V6.7z"/>
	<path class="st0" d="M12.6,4.2H15v1.7h0c0.1-0.3,0.3-0.6,0.5-0.8c0.2-0.2,0.4-0.5,0.7-0.6s0.5-0.3,0.9-0.4C17.4,4,17.7,3.9,18,3.9
		c0.2,0,0.4,0,0.6,0.1v2.4c-0.1,0-0.3,0-0.4-0.1c-0.2,0-0.3,0-0.5,0c-0.5,0-0.9,0.1-1.2,0.2c-0.3,0.2-0.6,0.4-0.8,0.6
		c-0.2,0.3-0.3,0.6-0.4,1c-0.1,0.4-0.1,0.8-0.1,1.2v4.2h-2.6V4.2z"/>
	<path class="st0" d="M22.6,9.4c0,0.8,0.2,1.4,0.6,1.8c0.4,0.4,0.9,0.6,1.7,0.6c0.5,0,1-0.1,1.3-0.4c0.4-0.3,0.6-0.5,0.7-0.8h2.2
		c-0.4,1.1-0.9,1.9-1.7,2.4c-0.7,0.5-1.6,0.7-2.7,0.7c-0.7,0-1.4-0.1-2-0.4s-1.1-0.6-1.5-1c-0.4-0.4-0.7-0.9-0.9-1.5
		c-0.2-0.6-0.3-1.3-0.3-2c0-0.7,0.1-1.3,0.3-1.9c0.2-0.6,0.6-1.1,1-1.6c0.4-0.4,0.9-0.8,1.5-1c0.6-0.3,1.2-0.4,1.9-0.4
		c0.8,0,1.5,0.2,2.1,0.5c0.6,0.3,1.1,0.7,1.4,1.2s0.6,1.1,0.8,1.8c0.2,0.7,0.2,1.3,0.2,2.1H22.6z M26.7,7.8
		c-0.1-0.6-0.3-1.1-0.6-1.5s-0.8-0.5-1.4-0.5c-0.4,0-0.7,0.1-1,0.2s-0.5,0.3-0.6,0.5c-0.2,0.2-0.3,0.4-0.3,0.6
		c-0.1,0.2-0.1,0.4-0.1,0.6H26.7z"/>
	<path class="st0" d="M36.8,13.5H34l-3.2-9.3h2.7l2,6.3h0l2-6.3H40L36.8,13.5z"/>
	<path class="st0" d="M44.6,2.7H42V0.6h2.6V2.7z M42,4.2h2.6v9.3H42V4.2z"/>
	<path class="st0" d="M49.6,9.4c0,0.8,0.2,1.4,0.6,1.8c0.4,0.4,0.9,0.6,1.7,0.6c0.5,0,1-0.1,1.3-0.4c0.4-0.3,0.6-0.5,0.7-0.8h2.2
		c-0.4,1.1-0.9,1.9-1.7,2.4c-0.7,0.5-1.6,0.7-2.7,0.7c-0.7,0-1.4-0.1-2-0.4s-1.1-0.6-1.5-1c-0.4-0.4-0.7-0.9-0.9-1.5
		c-0.2-0.6-0.3-1.3-0.3-2c0-0.7,0.1-1.3,0.3-1.9c0.2-0.6,0.6-1.1,1-1.6c0.4-0.4,0.9-0.8,1.5-1c0.6-0.3,1.2-0.4,1.9-0.4
		c0.8,0,1.5,0.2,2.1,0.5c0.6,0.3,1.1,0.7,1.4,1.2s0.6,1.1,0.8,1.8c0.2,0.7,0.2,1.3,0.2,2.1H49.6z M53.7,7.8
		c-0.1-0.6-0.3-1.1-0.6-1.5s-0.8-0.5-1.4-0.5c-0.4,0-0.7,0.1-1,0.2S50.2,6.4,50,6.6c-0.2,0.2-0.3,0.4-0.3,0.6
		c-0.1,0.2-0.1,0.4-0.1,0.6H53.7z"/>
	<path class="st0" d="M58.7,4.2h2.4v1.3h0.1c0.3-0.5,0.7-0.9,1.3-1.2c0.5-0.3,1-0.4,1.6-0.4c0.7,0,1.2,0.1,1.7,0.3s0.8,0.4,1,0.8
		c0.3,0.3,0.4,0.7,0.5,1.2s0.2,1,0.2,1.6v5.7h-2.6V8.2c0-0.8-0.1-1.3-0.4-1.7c-0.2-0.4-0.7-0.6-1.3-0.6c-0.7,0-1.2,0.2-1.5,0.6
		s-0.5,1.1-0.5,2v4.9h-2.6V4.2z"/>
	<path class="st0" d="M72.3,9.4c0,0.8,0.2,1.4,0.6,1.8c0.4,0.4,0.9,0.6,1.7,0.6c0.5,0,1-0.1,1.3-0.4c0.4-0.3,0.6-0.5,0.7-0.8h2.2
		c-0.4,1.1-0.9,1.9-1.7,2.4c-0.7,0.5-1.6,0.7-2.7,0.7c-0.7,0-1.4-0.1-2-0.4s-1.1-0.6-1.5-1c-0.4-0.4-0.7-0.9-0.9-1.5
		c-0.2-0.6-0.3-1.3-0.3-2c0-0.7,0.1-1.3,0.3-1.9c0.2-0.6,0.6-1.1,1-1.6c0.4-0.4,0.9-0.8,1.5-1c0.6-0.3,1.2-0.4,1.9-0.4
		c0.8,0,1.5,0.2,2.1,0.5c0.6,0.3,1.1,0.7,1.4,1.2s0.6,1.1,0.8,1.8C79,8,79.1,8.7,79,9.4H72.3z M76.5,7.8c-0.1-0.6-0.3-1.1-0.6-1.5
		s-0.8-0.5-1.4-0.5c-0.4,0-0.7,0.1-1,0.2S73,6.4,72.8,6.6c-0.2,0.2-0.3,0.4-0.3,0.6c-0.1,0.2-0.1,0.4-0.1,0.6H76.5z"/>
	<path class="st0" d="M87.4,0.6H90v12.8h-2.6V0.6z"/>
	<path class="st0" d="M92.8,7c0-0.6,0.2-1.1,0.4-1.5c0.3-0.4,0.6-0.7,1-1c0.4-0.2,0.9-0.4,1.4-0.5s1-0.2,1.5-0.2
		c0.5,0,0.9,0,1.4,0.1c0.5,0.1,0.9,0.2,1.3,0.4c0.4,0.2,0.7,0.5,1,0.8c0.3,0.3,0.4,0.8,0.4,1.3v4.8c0,0.4,0,0.8,0.1,1.2
		c0,0.4,0.1,0.7,0.3,0.9h-2.6c0-0.1-0.1-0.3-0.1-0.4c0-0.2-0.1-0.3-0.1-0.5c-0.4,0.4-0.9,0.7-1.4,0.9c-0.6,0.2-1.1,0.3-1.7,0.3
		c-0.4,0-0.9-0.1-1.2-0.2c-0.4-0.1-0.7-0.3-1-0.5c-0.3-0.2-0.5-0.5-0.7-0.9c-0.2-0.3-0.2-0.8-0.2-1.2c0-0.5,0.1-1,0.3-1.3
		c0.2-0.3,0.4-0.6,0.7-0.8c0.3-0.2,0.6-0.4,1-0.5c0.4-0.1,0.8-0.2,1.2-0.2C96,8,96.4,8,96.8,8c0.4,0,0.7-0.1,1-0.2
		c0.3-0.1,0.5-0.2,0.7-0.3s0.3-0.3,0.3-0.6c0-0.3,0-0.5-0.1-0.7c-0.1-0.2-0.2-0.3-0.4-0.4c-0.2-0.1-0.3-0.1-0.5-0.2
		c-0.2,0-0.4,0-0.6,0c-0.5,0-0.9,0.1-1.2,0.3c-0.3,0.2-0.5,0.6-0.5,1.1H92.8z M98.6,8.9c-0.1,0.1-0.2,0.2-0.4,0.2
		c-0.2,0.1-0.3,0.1-0.5,0.1s-0.4,0.1-0.6,0.1c-0.2,0-0.4,0.1-0.6,0.1c-0.2,0-0.4,0.1-0.6,0.1s-0.3,0.1-0.5,0.2s-0.2,0.2-0.3,0.4
		c-0.1,0.2-0.1,0.4-0.1,0.6c0,0.2,0,0.4,0.1,0.6c0.1,0.2,0.2,0.3,0.3,0.4c0.1,0.1,0.3,0.2,0.5,0.2c0.2,0,0.4,0.1,0.6,0.1
		c0.5,0,0.9-0.1,1.2-0.3s0.5-0.4,0.6-0.6s0.2-0.5,0.2-0.7c0-0.2,0-0.4,0-0.6V8.9z"/>
	<path class="st0" d="M110,4.2h2.4v1.2h0c0.3-0.5,0.7-0.9,1.2-1.1c0.5-0.2,1-0.3,1.6-0.3c0.7,0,1.4,0.1,1.9,0.4
		c0.5,0.3,1,0.6,1.3,1.1c0.3,0.5,0.6,1,0.8,1.6c0.2,0.6,0.3,1.2,0.3,1.9c0,0.6-0.1,1.2-0.3,1.8c-0.2,0.6-0.4,1.1-0.8,1.5
		c-0.3,0.4-0.8,0.8-1.3,1.1c-0.5,0.3-1.1,0.4-1.8,0.4c-0.6,0-1.1-0.1-1.6-0.4s-0.9-0.6-1.2-1h0v4.4H110V4.2z M114.6,11.8
		c0.4,0,0.8-0.1,1.1-0.3c0.3-0.2,0.5-0.4,0.7-0.7c0.2-0.3,0.3-0.6,0.4-0.9c0.1-0.4,0.1-0.7,0.1-1.1c0-0.4,0-0.7-0.1-1.1
		c-0.1-0.4-0.2-0.7-0.4-1c-0.2-0.3-0.4-0.5-0.7-0.7c-0.3-0.2-0.6-0.3-1-0.3c-0.4,0-0.8,0.1-1.1,0.3c-0.3,0.2-0.5,0.4-0.7,0.7
		c-0.2,0.3-0.3,0.6-0.4,1c-0.1,0.4-0.1,0.7-0.1,1.1c0,0.4,0,0.8,0.1,1.1c0.1,0.4,0.2,0.7,0.4,0.9c0.2,0.3,0.4,0.5,0.7,0.7
		C113.9,11.7,114.2,11.8,114.6,11.8z"/>
	<path class="st0" d="M121.8,4.2h2.4v1.7h0c0.1-0.3,0.3-0.6,0.5-0.8c0.2-0.2,0.4-0.5,0.7-0.6s0.5-0.3,0.9-0.4
		c0.3-0.1,0.6-0.1,0.9-0.1c0.2,0,0.4,0,0.6,0.1v2.4c-0.1,0-0.3,0-0.4-0.1c-0.2,0-0.3,0-0.5,0c-0.5,0-0.9,0.1-1.2,0.2
		c-0.3,0.2-0.6,0.4-0.8,0.6c-0.2,0.3-0.3,0.6-0.4,1c-0.1,0.4-0.1,0.8-0.1,1.2v4.2h-2.6V4.2z"/>
	<path class="st0" d="M129.4,8.8c0-0.7,0.1-1.4,0.3-2s0.6-1.1,1-1.5c0.4-0.4,0.9-0.8,1.5-1c0.6-0.2,1.2-0.3,2-0.3s1.4,0.1,2,0.3
		s1.1,0.6,1.5,1s0.7,0.9,1,1.5c0.2,0.6,0.3,1.3,0.3,2s-0.1,1.4-0.3,2c-0.2,0.6-0.6,1.1-1,1.5c-0.4,0.4-0.9,0.8-1.5,1s-1.3,0.4-2,0.4
		s-1.4-0.1-2-0.4c-0.6-0.2-1.1-0.6-1.5-1c-0.4-0.4-0.7-0.9-1-1.5S129.4,9.6,129.4,8.8z M132,8.8c0,0.4,0,0.7,0.1,1.1
		c0.1,0.4,0.2,0.7,0.4,1c0.2,0.3,0.4,0.5,0.7,0.7c0.3,0.2,0.6,0.3,1.1,0.3c0.4,0,0.8-0.1,1.1-0.3c0.3-0.2,0.5-0.4,0.7-0.7
		c0.2-0.3,0.3-0.6,0.4-1c0.1-0.4,0.1-0.7,0.1-1.1s0-0.7-0.1-1.1s-0.2-0.7-0.4-1s-0.4-0.5-0.7-0.7c-0.3-0.2-0.7-0.3-1.1-0.3
		c-0.4,0-0.8,0.1-1.1,0.3c-0.3,0.2-0.5,0.4-0.7,0.7s-0.3,0.6-0.4,1S132,8.5,132,8.8z"/>
	<path class="st0" d="M150.5,12.9c0,0.3,0,0.5-0.1,0.8c0,0.3-0.1,0.6-0.2,0.9c-0.1,0.3-0.3,0.6-0.5,0.9c-0.2,0.3-0.5,0.5-0.9,0.8
		s-0.8,0.4-1.3,0.5s-1.1,0.2-1.8,0.2c-0.5,0-0.9-0.1-1.4-0.2c-0.5-0.1-0.9-0.3-1.3-0.5c-0.4-0.2-0.7-0.5-1-0.9
		c-0.3-0.4-0.4-0.8-0.4-1.4h2.5c0.1,0.5,0.4,0.8,0.7,1c0.3,0.2,0.7,0.3,1.2,0.3c0.7,0,1.2-0.2,1.6-0.6c0.3-0.4,0.5-1,0.5-1.7v-1.2h0
		c-0.3,0.5-0.7,0.9-1.2,1.1s-1,0.3-1.6,0.3c-0.7,0-1.3-0.1-1.8-0.4c-0.5-0.2-0.9-0.6-1.2-1c-0.3-0.4-0.6-0.9-0.7-1.5
		c-0.2-0.6-0.2-1.2-0.2-1.8c0-0.6,0.1-1.2,0.3-1.7c0.2-0.6,0.4-1,0.8-1.5s0.8-0.8,1.2-1c0.5-0.3,1.1-0.4,1.7-0.4
		c0.6,0,1.1,0.1,1.6,0.3s0.8,0.6,1.2,1.1h0V4.2h2.4V12.9z M145.9,11.3c0.4,0,0.7-0.1,1-0.2c0.3-0.1,0.5-0.3,0.7-0.6s0.3-0.5,0.4-0.8
		c0.1-0.3,0.1-0.6,0.1-1c0-0.4,0-0.7-0.1-1.1c-0.1-0.3-0.2-0.7-0.4-0.9c-0.2-0.3-0.4-0.5-0.7-0.6s-0.6-0.2-1-0.2
		c-0.4,0-0.7,0.1-0.9,0.2c-0.3,0.1-0.5,0.3-0.6,0.6c-0.2,0.2-0.3,0.5-0.4,0.8s-0.1,0.6-0.1,1c0,0.3,0,0.7,0.1,1
		c0.1,0.3,0.2,0.6,0.3,0.9c0.2,0.3,0.4,0.5,0.6,0.6S145.5,11.3,145.9,11.3z"/>
	<path class="st0" d="M153.5,4.2h2.4v1.7h0c0.1-0.3,0.3-0.6,0.5-0.8c0.2-0.2,0.4-0.5,0.7-0.6s0.5-0.3,0.9-0.4
		c0.3-0.1,0.6-0.1,0.9-0.1c0.2,0,0.4,0,0.6,0.1v2.4c-0.1,0-0.3,0-0.4-0.1c-0.2,0-0.3,0-0.5,0c-0.5,0-0.9,0.1-1.2,0.2
		c-0.3,0.2-0.6,0.4-0.8,0.6c-0.2,0.3-0.3,0.6-0.4,1c-0.1,0.4-0.1,0.8-0.1,1.2v4.2h-2.6V4.2z"/>
	<path class="st0" d="M163.4,9.4c0,0.8,0.2,1.4,0.6,1.8c0.4,0.4,0.9,0.6,1.7,0.6c0.5,0,1-0.1,1.3-0.4c0.4-0.3,0.6-0.5,0.7-0.8h2.2
		c-0.4,1.1-0.9,1.9-1.7,2.4c-0.7,0.5-1.6,0.7-2.7,0.7c-0.7,0-1.4-0.1-2-0.4s-1.1-0.6-1.5-1c-0.4-0.4-0.7-0.9-0.9-1.5
		c-0.2-0.6-0.3-1.3-0.3-2c0-0.7,0.1-1.3,0.3-1.9c0.2-0.6,0.6-1.1,1-1.6c0.4-0.4,0.9-0.8,1.5-1c0.6-0.3,1.2-0.4,1.9-0.4
		c0.8,0,1.5,0.2,2.1,0.5c0.6,0.3,1.1,0.7,1.4,1.2s0.6,1.1,0.8,1.8c0.2,0.7,0.2,1.3,0.2,2.1H163.4z M167.6,7.8
		c-0.1-0.6-0.3-1.1-0.6-1.5s-0.8-0.5-1.4-0.5c-0.4,0-0.7,0.1-1,0.2s-0.5,0.3-0.6,0.5c-0.2,0.2-0.3,0.4-0.3,0.6
		c-0.1,0.2-0.1,0.4-0.1,0.6H167.6z"/>
	<path class="st0" d="M174.5,10.4c0,0.3,0.1,0.5,0.2,0.7c0.1,0.2,0.3,0.4,0.4,0.5c0.2,0.1,0.4,0.2,0.6,0.3c0.2,0.1,0.5,0.1,0.7,0.1
		c0.2,0,0.4,0,0.6-0.1c0.2,0,0.4-0.1,0.5-0.2c0.2-0.1,0.3-0.2,0.4-0.4c0.1-0.1,0.2-0.3,0.2-0.6c0-0.2-0.1-0.4-0.2-0.5
		s-0.3-0.3-0.6-0.4c-0.2-0.1-0.5-0.2-0.9-0.3s-0.8-0.2-1.2-0.3c-0.4-0.1-0.7-0.2-1.1-0.3c-0.4-0.1-0.7-0.3-0.9-0.4s-0.5-0.4-0.7-0.7
		c-0.2-0.3-0.3-0.6-0.3-1c0-0.6,0.1-1.1,0.4-1.5s0.5-0.7,0.9-0.9c0.4-0.2,0.8-0.4,1.3-0.5c0.5-0.1,1-0.1,1.5-0.1s1,0,1.5,0.1
		c0.5,0.1,0.9,0.3,1.3,0.5c0.4,0.2,0.7,0.5,0.9,0.9c0.2,0.4,0.4,0.9,0.4,1.4H178c0-0.5-0.2-0.8-0.6-1c-0.3-0.2-0.7-0.3-1.2-0.3
		c-0.1,0-0.3,0-0.5,0c-0.2,0-0.3,0.1-0.5,0.1c-0.1,0.1-0.3,0.1-0.4,0.3c-0.1,0.1-0.1,0.3-0.1,0.5c0,0.2,0.1,0.4,0.3,0.6
		c0.2,0.1,0.4,0.3,0.7,0.4s0.6,0.2,0.9,0.2c0.3,0.1,0.7,0.1,1.1,0.2c0.4,0.1,0.7,0.2,1.1,0.3c0.4,0.1,0.7,0.3,0.9,0.5
		c0.3,0.2,0.5,0.4,0.7,0.7c0.2,0.3,0.3,0.7,0.3,1.1c0,0.6-0.1,1.1-0.4,1.5c-0.2,0.4-0.6,0.7-1,1c-0.4,0.3-0.8,0.4-1.4,0.5
		c-0.5,0.1-1,0.2-1.6,0.2c-0.5,0-1.1-0.1-1.6-0.2c-0.5-0.1-1-0.3-1.4-0.5c-0.4-0.3-0.7-0.6-1-1c-0.3-0.4-0.4-0.9-0.4-1.5H174.5z"/>
	<path class="st0" d="M185.7,2.7h-2.6V0.6h2.6V2.7z M183.2,4.2h2.6v9.3h-2.6V4.2z"/>
	<path class="st0" d="M188.3,8.8c0-0.7,0.1-1.4,0.3-2s0.6-1.1,1-1.5c0.4-0.4,0.9-0.8,1.5-1c0.6-0.2,1.2-0.3,2-0.3s1.4,0.1,2,0.3
		s1.1,0.6,1.5,1s0.7,0.9,1,1.5c0.2,0.6,0.3,1.3,0.3,2s-0.1,1.4-0.3,2c-0.2,0.6-0.6,1.1-1,1.5c-0.4,0.4-0.9,0.8-1.5,1s-1.3,0.4-2,0.4
		s-1.4-0.1-2-0.4c-0.6-0.2-1.1-0.6-1.5-1c-0.4-0.4-0.7-0.9-1-1.5S188.3,9.6,188.3,8.8z M190.9,8.8c0,0.4,0,0.7,0.1,1.1
		c0.1,0.4,0.2,0.7,0.4,1c0.2,0.3,0.4,0.5,0.7,0.7c0.3,0.2,0.6,0.3,1.1,0.3c0.4,0,0.8-0.1,1.1-0.3c0.3-0.2,0.5-0.4,0.7-0.7
		c0.2-0.3,0.3-0.6,0.4-1c0.1-0.4,0.1-0.7,0.1-1.1s0-0.7-0.1-1.1s-0.2-0.7-0.4-1s-0.4-0.5-0.7-0.7c-0.3-0.2-0.7-0.3-1.1-0.3
		c-0.4,0-0.8,0.1-1.1,0.3c-0.3,0.2-0.5,0.4-0.7,0.7s-0.3,0.6-0.4,1S190.9,8.5,190.9,8.8z M193.6,3h-1.8l1.7-2.6h2.8L193.6,3z"/>
	<path class="st0" d="M200.5,4.2h2.4v1.3h0.1c0.3-0.5,0.7-0.9,1.3-1.2c0.5-0.3,1-0.4,1.6-0.4c0.7,0,1.2,0.1,1.7,0.3s0.8,0.4,1,0.8
		c0.3,0.3,0.4,0.7,0.5,1.2s0.2,1,0.2,1.6v5.7h-2.6V8.2c0-0.8-0.1-1.3-0.4-1.7c-0.2-0.4-0.7-0.6-1.3-0.6c-0.7,0-1.2,0.2-1.5,0.6
		s-0.5,1.1-0.5,2v4.9h-2.6V4.2z"/>
	<path class="st1" d="M218.3,5.6c0.2-0.4,0.5-0.7,0.8-1c0.3-0.3,0.7-0.4,1.2-0.6c0.4-0.1,0.9-0.2,1.5-0.2c0.4,0,0.8,0,1.2,0.1
		c0.4,0.1,0.8,0.2,1.1,0.4s0.6,0.5,0.8,0.9c0.2,0.4,0.3,0.9,0.3,1.5v4.9c0,0.5,0.2,0.7,0.7,0.7c0.1,0,0.3,0,0.4-0.1v1
		c-0.1,0-0.2,0-0.3,0.1c-0.1,0-0.2,0-0.4,0c-0.3,0-0.5,0-0.7-0.1s-0.3-0.2-0.4-0.3c-0.1-0.1-0.2-0.3-0.2-0.5c0-0.2,0-0.4,0-0.7h0
		c-0.2,0.3-0.4,0.6-0.6,0.8c-0.2,0.2-0.4,0.4-0.7,0.6c-0.3,0.2-0.6,0.3-0.9,0.4s-0.7,0.1-1.2,0.1c-0.4,0-0.8-0.1-1.2-0.2
		s-0.7-0.3-1-0.5s-0.5-0.5-0.7-0.8c-0.2-0.3-0.2-0.7-0.2-1.2c0-0.6,0.1-1.2,0.4-1.5s0.7-0.6,1.1-0.8c0.5-0.2,1-0.3,1.6-0.4
		c0.6-0.1,1.2-0.2,1.8-0.2c0.2,0,0.4-0.1,0.6-0.1c0.2,0,0.3-0.1,0.4-0.2c0.1-0.1,0.2-0.2,0.3-0.4c0.1-0.2,0.1-0.4,0.1-0.6
		c0-0.4-0.1-0.7-0.2-0.9c-0.1-0.2-0.3-0.4-0.5-0.6C223,5.1,222.8,5,222.5,5c-0.3-0.1-0.6-0.1-0.9-0.1c-0.7,0-1.3,0.2-1.8,0.5
		c-0.5,0.3-0.7,0.9-0.7,1.6h-1.1C218,6.5,218.1,6,218.3,5.6z M223.9,8.4c-0.1,0.1-0.2,0.2-0.4,0.3c-0.2,0.1-0.4,0.1-0.5,0.1
		c-0.5,0.1-1,0.2-1.5,0.2c-0.5,0.1-1,0.2-1.4,0.3c-0.4,0.1-0.8,0.3-1,0.6c-0.3,0.2-0.4,0.6-0.4,1.1c0,0.3,0.1,0.5,0.2,0.8
		c0.1,0.2,0.3,0.4,0.5,0.6c0.2,0.2,0.4,0.3,0.7,0.4c0.3,0.1,0.5,0.1,0.8,0.1c0.4,0,0.8-0.1,1.2-0.2c0.4-0.1,0.7-0.3,1-0.6
		c0.3-0.3,0.5-0.6,0.7-0.9c0.2-0.4,0.3-0.8,0.3-1.2L223.9,8.4L223.9,8.4z"/>
	<path class="st1" d="M235.9,10.4c0.1,0.4,0.3,0.8,0.5,1.2c0.3,0.3,0.6,0.6,1,0.9c0.4,0.2,0.8,0.3,1.4,0.3c0.8,0,1.5-0.2,1.9-0.6
		c0.5-0.4,0.8-1,1-1.7h1.1c-0.2,1.1-0.7,1.9-1.3,2.4c-0.6,0.6-1.5,0.9-2.7,0.9c-0.7,0-1.4-0.1-1.9-0.4c-0.5-0.3-1-0.6-1.3-1.1
		s-0.6-1-0.7-1.6c-0.2-0.6-0.2-1.2-0.2-1.9c0-0.6,0.1-1.2,0.2-1.8c0.2-0.6,0.4-1.1,0.7-1.6s0.8-0.8,1.3-1.1c0.5-0.3,1.2-0.4,1.9-0.4
		c0.7,0,1.4,0.1,1.9,0.4c0.5,0.3,1,0.7,1.3,1.2c0.3,0.5,0.6,1,0.7,1.7c0.1,0.6,0.2,1.3,0.2,1.9h-7.1C235.7,9.5,235.8,10,235.9,10.4z
		 M241.5,6.9c-0.1-0.4-0.3-0.7-0.6-1.1c-0.3-0.3-0.6-0.6-0.9-0.7c-0.4-0.2-0.8-0.3-1.2-0.3c-0.5,0-0.9,0.1-1.2,0.3s-0.7,0.4-0.9,0.7
		c-0.3,0.3-0.5,0.7-0.6,1.1c-0.2,0.4-0.2,0.8-0.3,1.2h6C241.7,7.7,241.6,7.3,241.5,6.9z"/>
	<path class="st1" d="M247.3,4.2v1.6h0c0.2-0.6,0.6-1,1.1-1.4c0.6-0.3,1.2-0.5,1.8-0.5c0.6,0,1.2,0.1,1.6,0.3
		c0.4,0.2,0.8,0.4,1.1,0.7c0.3,0.3,0.4,0.7,0.6,1.1c0.1,0.4,0.2,0.9,0.2,1.5v6h-1.1V7.7c0-0.4,0-0.8-0.1-1.1
		c-0.1-0.3-0.2-0.6-0.4-0.9c-0.2-0.3-0.4-0.4-0.7-0.6c-0.3-0.1-0.7-0.2-1.1-0.2c-0.5,0-0.9,0.1-1.2,0.2c-0.4,0.2-0.7,0.4-0.9,0.7
		c-0.2,0.3-0.4,0.6-0.6,1c-0.1,0.4-0.2,0.8-0.2,1.3v5.4h-1.1V4.2H247.3z"/>
	<path class="st1" d="M259.4,5.1v8.3h-1.1V5.1h-1.6v-1h1.6V3.3c0-0.4,0-0.8,0.1-1.1c0.1-0.3,0.2-0.6,0.3-0.9
		c0.2-0.2,0.4-0.4,0.7-0.6c0.3-0.1,0.7-0.2,1.1-0.2c0.2,0,0.3,0,0.5,0c0.1,0,0.3,0,0.5,0.1v1c-0.2,0-0.3,0-0.4-0.1
		c-0.1,0-0.3,0-0.4,0c-0.3,0-0.6,0-0.7,0.1s-0.3,0.2-0.4,0.4c-0.1,0.2-0.1,0.4-0.1,0.6c0,0.2,0,0.4,0,0.7v0.8h1.8v1H259.4z"/>
	<path class="st1" d="M264.9,10.4c0.1,0.4,0.3,0.8,0.5,1.2c0.3,0.3,0.6,0.6,1,0.9c0.4,0.2,0.8,0.3,1.4,0.3c0.8,0,1.5-0.2,1.9-0.6
		c0.5-0.4,0.8-1,1-1.7h1.1c-0.2,1.1-0.7,1.9-1.3,2.4c-0.6,0.6-1.5,0.9-2.7,0.9c-0.7,0-1.4-0.1-1.9-0.4c-0.5-0.3-1-0.6-1.3-1.1
		s-0.6-1-0.7-1.6c-0.2-0.6-0.2-1.2-0.2-1.9c0-0.6,0.1-1.2,0.2-1.8c0.2-0.6,0.4-1.1,0.7-1.6s0.8-0.8,1.3-1.1c0.5-0.3,1.2-0.4,1.9-0.4
		c0.7,0,1.4,0.1,1.9,0.4c0.5,0.3,1,0.7,1.3,1.2c0.3,0.5,0.6,1,0.7,1.7c0.1,0.6,0.2,1.3,0.2,1.9h-7.1C264.7,9.5,264.8,10,264.9,10.4z
		 M270.5,6.9c-0.1-0.4-0.3-0.7-0.6-1.1c-0.3-0.3-0.6-0.6-0.9-0.7c-0.4-0.2-0.8-0.3-1.2-0.3c-0.5,0-0.9,0.1-1.2,0.3s-0.7,0.4-0.9,0.7
		c-0.3,0.3-0.5,0.7-0.6,1.1c-0.2,0.4-0.2,0.8-0.3,1.2h6C270.7,7.7,270.6,7.3,270.5,6.9z"/>
	<path class="st1" d="M276.2,4.2v2.2h0c0.3-0.8,0.7-1.3,1.3-1.7s1.3-0.6,2.2-0.6v1.1c-0.5,0-1,0-1.4,0.2c-0.4,0.2-0.8,0.4-1.1,0.7
		c-0.3,0.3-0.5,0.7-0.7,1.1c-0.2,0.4-0.3,0.9-0.3,1.4v4.9h-1.1V4.2H276.2z"/>
	<path class="st1" d="M283.7,4.2v1.6h0.1c0.3-0.6,0.7-1,1.2-1.3c0.5-0.3,1.1-0.5,1.9-0.5c0.6,0,1.2,0.1,1.7,0.4
		c0.5,0.3,0.8,0.8,1,1.4c0.3-0.6,0.7-1.1,1.2-1.4c0.5-0.3,1.1-0.4,1.7-0.4c2,0,3.1,1.1,3.1,3.3v6.3h-1.1V7.2c0-0.8-0.2-1.3-0.5-1.8
		s-0.9-0.6-1.7-0.6c-0.5,0-0.9,0.1-1.2,0.3s-0.6,0.4-0.8,0.7s-0.3,0.7-0.4,1.1c-0.1,0.4-0.1,0.8-0.1,1.2v5.2h-1.1V7.2
		c0-0.3,0-0.6-0.1-0.9c-0.1-0.3-0.2-0.5-0.3-0.7c-0.1-0.2-0.4-0.4-0.6-0.5c-0.3-0.1-0.6-0.2-0.9-0.2c-0.5,0-0.9,0.1-1.2,0.3
		c-0.4,0.2-0.6,0.4-0.9,0.7c-0.2,0.3-0.4,0.7-0.5,1.1c-0.1,0.4-0.2,0.9-0.2,1.4v5.2h-1.1V4.2H283.7z"/>
	<path class="st1" d="M300.2,10.4c0.1,0.4,0.3,0.8,0.5,1.2c0.3,0.3,0.6,0.6,1,0.9c0.4,0.2,0.8,0.3,1.4,0.3c0.8,0,1.5-0.2,1.9-0.6
		c0.5-0.4,0.8-1,1-1.7h1.1c-0.2,1.1-0.7,1.9-1.3,2.4c-0.6,0.6-1.5,0.9-2.7,0.9c-0.7,0-1.4-0.1-1.9-0.4c-0.5-0.3-1-0.6-1.3-1.1
		s-0.6-1-0.7-1.6c-0.2-0.6-0.2-1.2-0.2-1.9c0-0.6,0.1-1.2,0.2-1.8c0.2-0.6,0.4-1.1,0.7-1.6s0.8-0.8,1.3-1.1c0.5-0.3,1.2-0.4,1.9-0.4
		c0.7,0,1.4,0.1,1.9,0.4c0.5,0.3,1,0.7,1.3,1.2c0.3,0.5,0.6,1,0.7,1.7c0.1,0.6,0.2,1.3,0.2,1.9h-7.1C300.1,9.5,300.1,10,300.2,10.4z
		 M305.8,6.9c-0.1-0.4-0.3-0.7-0.6-1.1c-0.3-0.3-0.6-0.6-0.9-0.7c-0.4-0.2-0.8-0.3-1.2-0.3c-0.5,0-0.9,0.1-1.2,0.3s-0.7,0.4-0.9,0.7
		c-0.3,0.3-0.5,0.7-0.6,1.1c-0.2,0.4-0.2,0.8-0.3,1.2h6C306.1,7.7,306,7.3,305.8,6.9z"/>
	<path class="st1" d="M317.6,13.5v-1.8h0c-0.1,0.3-0.3,0.6-0.5,0.8c-0.2,0.3-0.5,0.5-0.8,0.6c-0.3,0.2-0.6,0.3-1,0.4
		c-0.3,0.1-0.7,0.1-1,0.1c-0.7,0-1.3-0.1-1.8-0.4c-0.5-0.3-1-0.6-1.3-1.1c-0.3-0.4-0.6-1-0.8-1.6c-0.2-0.6-0.3-1.2-0.3-1.9
		s0.1-1.3,0.3-1.9c0.2-0.6,0.4-1.1,0.8-1.6c0.3-0.4,0.8-0.8,1.3-1.1c0.5-0.3,1.1-0.4,1.8-0.4c0.3,0,0.7,0,1,0.1
		c0.3,0.1,0.6,0.2,0.9,0.4c0.3,0.2,0.5,0.4,0.8,0.6c0.2,0.3,0.4,0.5,0.5,0.9h0V0.6h1.1v12.8H317.6z M311.4,10.3
		c0.1,0.5,0.3,0.9,0.5,1.3s0.6,0.7,0.9,0.9c0.4,0.2,0.8,0.3,1.4,0.3c0.6,0,1.1-0.1,1.5-0.3s0.7-0.5,1-0.9s0.4-0.8,0.6-1.3
		c0.1-0.5,0.2-0.9,0.2-1.4s-0.1-1-0.2-1.4c-0.1-0.5-0.3-0.9-0.6-1.3s-0.6-0.7-1-0.9s-0.9-0.4-1.5-0.4c-0.5,0-1,0.1-1.4,0.4
		c-0.4,0.2-0.7,0.5-0.9,0.9s-0.4,0.8-0.5,1.3c-0.1,0.5-0.2,0.9-0.2,1.4S311.3,9.8,311.4,10.3z"/>
	<path class="st1" d="M322.9,5.6c0.2-0.4,0.5-0.7,0.8-1c0.3-0.3,0.7-0.4,1.2-0.6c0.4-0.1,0.9-0.2,1.5-0.2c0.4,0,0.8,0,1.2,0.1
		c0.4,0.1,0.8,0.2,1.1,0.4s0.6,0.5,0.8,0.9c0.2,0.4,0.3,0.9,0.3,1.5v4.9c0,0.5,0.2,0.7,0.7,0.7c0.1,0,0.3,0,0.4-0.1v1
		c-0.1,0-0.2,0-0.3,0.1c-0.1,0-0.2,0-0.4,0c-0.3,0-0.5,0-0.7-0.1s-0.3-0.2-0.4-0.3c-0.1-0.1-0.2-0.3-0.2-0.5c0-0.2,0-0.4,0-0.7h0
		c-0.2,0.3-0.4,0.6-0.6,0.8c-0.2,0.2-0.4,0.4-0.7,0.6c-0.3,0.2-0.6,0.3-0.9,0.4s-0.7,0.1-1.2,0.1c-0.4,0-0.8-0.1-1.2-0.2
		s-0.7-0.3-1-0.5s-0.5-0.5-0.7-0.8c-0.2-0.3-0.2-0.7-0.2-1.2c0-0.6,0.1-1.2,0.4-1.5s0.7-0.6,1.1-0.8c0.5-0.2,1-0.3,1.6-0.4
		c0.6-0.1,1.2-0.2,1.8-0.2c0.2,0,0.4-0.1,0.6-0.1c0.2,0,0.3-0.1,0.4-0.2c0.1-0.1,0.2-0.2,0.3-0.4c0.1-0.2,0.1-0.4,0.1-0.6
		c0-0.4-0.1-0.7-0.2-0.9c-0.1-0.2-0.3-0.4-0.5-0.6c-0.2-0.1-0.5-0.2-0.8-0.3c-0.3-0.1-0.6-0.1-0.9-0.1c-0.7,0-1.3,0.2-1.8,0.5
		c-0.5,0.3-0.7,0.9-0.7,1.6h-1.1C322.6,6.5,322.7,6,322.9,5.6z M328.5,8.4c-0.1,0.1-0.2,0.2-0.4,0.3c-0.2,0.1-0.4,0.1-0.5,0.1
		c-0.5,0.1-1,0.2-1.5,0.2c-0.5,0.1-1,0.2-1.4,0.3c-0.4,0.1-0.8,0.3-1,0.6c-0.3,0.2-0.4,0.6-0.4,1.1c0,0.3,0.1,0.5,0.2,0.8
		c0.1,0.2,0.3,0.4,0.5,0.6c0.2,0.2,0.4,0.3,0.7,0.4c0.3,0.1,0.5,0.1,0.8,0.1c0.4,0,0.8-0.1,1.2-0.2c0.4-0.1,0.7-0.3,1-0.6
		c0.3-0.3,0.5-0.6,0.7-0.9c0.2-0.4,0.3-0.8,0.3-1.2L328.5,8.4L328.5,8.4z"/>
	<path class="st1" d="M340.9,13.5v-1.8h0c-0.1,0.3-0.3,0.6-0.5,0.8c-0.2,0.3-0.5,0.5-0.8,0.6c-0.3,0.2-0.6,0.3-1,0.4
		c-0.3,0.1-0.7,0.1-1,0.1c-0.7,0-1.3-0.1-1.8-0.4c-0.5-0.3-1-0.6-1.3-1.1c-0.3-0.4-0.6-1-0.8-1.6c-0.2-0.6-0.3-1.2-0.3-1.9
		s0.1-1.3,0.3-1.9c0.2-0.6,0.4-1.1,0.8-1.6c0.3-0.4,0.8-0.8,1.3-1.1c0.5-0.3,1.1-0.4,1.8-0.4c0.3,0,0.7,0,1,0.1
		c0.3,0.1,0.6,0.2,0.9,0.4c0.3,0.2,0.5,0.4,0.8,0.6c0.2,0.3,0.4,0.5,0.5,0.9h0V0.6h1.1v12.8H340.9z M334.7,10.3
		c0.1,0.5,0.3,0.9,0.5,1.3s0.6,0.7,0.9,0.9c0.4,0.2,0.8,0.3,1.4,0.3c0.6,0,1.1-0.1,1.5-0.3s0.7-0.5,1-0.9s0.4-0.8,0.6-1.3
		c0.1-0.5,0.2-0.9,0.2-1.4s-0.1-1-0.2-1.4c-0.1-0.5-0.3-0.9-0.6-1.3s-0.6-0.7-1-0.9s-0.9-0.4-1.5-0.4c-0.5,0-1,0.1-1.4,0.4
		c-0.4,0.2-0.7,0.5-0.9,0.9s-0.4,0.8-0.5,1.3c-0.1,0.5-0.2,0.9-0.2,1.4S334.5,9.8,334.7,10.3z"/>
	<path class="st1" d="M346.7,10.4c0.1,0.4,0.3,0.8,0.5,1.2c0.3,0.3,0.6,0.6,1,0.9c0.4,0.2,0.8,0.3,1.4,0.3c0.8,0,1.5-0.2,1.9-0.6
		c0.5-0.4,0.8-1,1-1.7h1.1c-0.2,1.1-0.7,1.9-1.3,2.4c-0.6,0.6-1.5,0.9-2.7,0.9c-0.7,0-1.4-0.1-1.9-0.4c-0.5-0.3-1-0.6-1.3-1.1
		s-0.6-1-0.7-1.6c-0.2-0.6-0.2-1.2-0.2-1.9c0-0.6,0.1-1.2,0.2-1.8c0.2-0.6,0.4-1.1,0.7-1.6s0.8-0.8,1.3-1.1c0.5-0.3,1.2-0.4,1.9-0.4
		c0.7,0,1.4,0.1,1.9,0.4c0.5,0.3,1,0.7,1.3,1.2c0.3,0.5,0.6,1,0.7,1.7c0.1,0.6,0.2,1.3,0.2,1.9h-7.1C346.5,9.5,346.6,10,346.7,10.4z
		 M352.3,6.9c-0.1-0.4-0.3-0.7-0.6-1.1c-0.3-0.3-0.6-0.6-0.9-0.7c-0.4-0.2-0.8-0.3-1.2-0.3c-0.5,0-0.9,0.1-1.2,0.3s-0.7,0.4-0.9,0.7
		c-0.3,0.3-0.5,0.7-0.6,1.1c-0.2,0.4-0.2,0.8-0.3,1.2h6C352.5,7.7,352.4,7.3,352.3,6.9z"/>
	<path class="st1" d="M362.3,6c-0.1-0.3-0.3-0.5-0.5-0.6c-0.2-0.2-0.5-0.3-0.8-0.4s-0.6-0.1-0.9-0.1c-0.3,0-0.5,0-0.8,0.1
		s-0.5,0.1-0.7,0.3c-0.2,0.1-0.4,0.3-0.5,0.5c-0.1,0.2-0.2,0.5-0.2,0.8c0,0.3,0.1,0.5,0.2,0.6c0.1,0.2,0.3,0.3,0.5,0.4
		c0.2,0.1,0.4,0.2,0.6,0.3c0.2,0.1,0.4,0.1,0.6,0.2l1.5,0.3c0.3,0,0.6,0.1,1,0.3s0.6,0.3,0.8,0.5c0.2,0.2,0.4,0.5,0.6,0.8
		c0.2,0.3,0.2,0.7,0.2,1.1c0,0.5-0.1,0.9-0.3,1.3c-0.2,0.4-0.5,0.6-0.9,0.9s-0.8,0.4-1.2,0.5c-0.4,0.1-0.9,0.1-1.3,0.1
		c-1.1,0-2-0.3-2.6-0.8c-0.7-0.5-1.1-1.3-1.2-2.5h1.1c0,0.8,0.3,1.3,0.8,1.7c0.5,0.4,1.1,0.6,1.9,0.6c0.3,0,0.6,0,0.9-0.1
		c0.3-0.1,0.6-0.2,0.8-0.3c0.3-0.1,0.5-0.3,0.6-0.5c0.2-0.2,0.2-0.5,0.2-0.8c0-0.3-0.1-0.5-0.2-0.7c-0.1-0.2-0.3-0.3-0.5-0.5
		c-0.2-0.1-0.4-0.2-0.7-0.3c-0.2-0.1-0.5-0.2-0.7-0.2L359.4,9c-0.4-0.1-0.7-0.2-1-0.3c-0.3-0.1-0.6-0.3-0.8-0.5
		c-0.2-0.2-0.4-0.4-0.5-0.7c-0.1-0.3-0.2-0.6-0.2-1c0-0.5,0.1-0.9,0.3-1.2c0.2-0.3,0.5-0.6,0.8-0.8c0.3-0.2,0.7-0.4,1.1-0.4
		s0.8-0.1,1.2-0.1c0.5,0,0.9,0.1,1.3,0.2c0.4,0.1,0.8,0.3,1.1,0.6c0.3,0.3,0.5,0.6,0.7,0.9s0.3,0.8,0.3,1.3h-1.1
		C362.5,6.6,362.4,6.3,362.3,6z"/>
	<path class="st1" d="M379.5,6c-0.1-0.3-0.3-0.5-0.5-0.6c-0.2-0.2-0.5-0.3-0.8-0.4s-0.6-0.1-0.9-0.1c-0.3,0-0.5,0-0.8,0.1
		s-0.5,0.1-0.7,0.3c-0.2,0.1-0.4,0.3-0.5,0.5c-0.1,0.2-0.2,0.5-0.2,0.8c0,0.3,0.1,0.5,0.2,0.6c0.1,0.2,0.3,0.3,0.5,0.4
		c0.2,0.1,0.4,0.2,0.6,0.3c0.2,0.1,0.4,0.1,0.6,0.2l1.5,0.3c0.3,0,0.6,0.1,1,0.3s0.6,0.3,0.8,0.5c0.2,0.2,0.4,0.5,0.6,0.8
		c0.2,0.3,0.2,0.7,0.2,1.1c0,0.5-0.1,0.9-0.3,1.3c-0.2,0.4-0.5,0.6-0.9,0.9s-0.8,0.4-1.2,0.5c-0.4,0.1-0.9,0.1-1.3,0.1
		c-1.1,0-2-0.3-2.6-0.8c-0.7-0.5-1.1-1.3-1.2-2.5h1.1c0,0.8,0.3,1.3,0.8,1.7c0.5,0.4,1.1,0.6,1.9,0.6c0.3,0,0.6,0,0.9-0.1
		c0.3-0.1,0.6-0.2,0.8-0.3c0.3-0.1,0.5-0.3,0.6-0.5c0.2-0.2,0.2-0.5,0.2-0.8c0-0.3-0.1-0.5-0.2-0.7c-0.1-0.2-0.3-0.3-0.5-0.5
		c-0.2-0.1-0.4-0.2-0.7-0.3c-0.2-0.1-0.5-0.2-0.7-0.2L376.6,9c-0.4-0.1-0.7-0.2-1-0.3c-0.3-0.1-0.6-0.3-0.8-0.5
		c-0.2-0.2-0.4-0.4-0.5-0.7c-0.1-0.3-0.2-0.6-0.2-1c0-0.5,0.1-0.9,0.3-1.2c0.2-0.3,0.5-0.6,0.8-0.8c0.3-0.2,0.7-0.4,1.1-0.4
		s0.8-0.1,1.2-0.1c0.5,0,0.9,0.1,1.3,0.2c0.4,0.1,0.8,0.3,1.1,0.6c0.3,0.3,0.5,0.6,0.7,0.9s0.3,0.8,0.3,1.3h-1.1
		C379.7,6.6,379.7,6.3,379.5,6z"/>
	<path class="st1" d="M385.5,10.4c0.1,0.4,0.3,0.8,0.5,1.2c0.3,0.3,0.6,0.6,1,0.9c0.4,0.2,0.8,0.3,1.4,0.3c0.8,0,1.5-0.2,1.9-0.6
		c0.5-0.4,0.8-1,1-1.7h1.1c-0.2,1.1-0.7,1.9-1.3,2.4c-0.6,0.6-1.5,0.9-2.7,0.9c-0.7,0-1.4-0.1-1.9-0.4c-0.5-0.3-1-0.6-1.3-1.1
		s-0.6-1-0.7-1.6c-0.2-0.6-0.2-1.2-0.2-1.9c0-0.6,0.1-1.2,0.2-1.8c0.2-0.6,0.4-1.1,0.7-1.6s0.8-0.8,1.3-1.1c0.5-0.3,1.2-0.4,1.9-0.4
		c0.7,0,1.4,0.1,1.9,0.4c0.5,0.3,1,0.7,1.3,1.2c0.3,0.5,0.6,1,0.7,1.7c0.1,0.6,0.2,1.3,0.2,1.9h-7.1C385.3,9.5,385.4,10,385.5,10.4z
		 M391.1,6.9c-0.1-0.4-0.3-0.7-0.6-1.1c-0.3-0.3-0.6-0.6-0.9-0.7c-0.4-0.2-0.8-0.3-1.2-0.3c-0.5,0-0.9,0.1-1.2,0.3s-0.7,0.4-0.9,0.7
		c-0.3,0.3-0.5,0.7-0.6,1.1c-0.2,0.4-0.2,0.8-0.3,1.2h6C391.3,7.7,391.2,7.3,391.1,6.9z"/>
	<path class="st1" d="M401.4,5.5c-0.4-0.4-1-0.6-1.8-0.6c-0.5,0-1,0.1-1.4,0.3s-0.7,0.5-1,0.9s-0.5,0.8-0.6,1.3
		c-0.1,0.5-0.2,1-0.2,1.4s0.1,1,0.2,1.4c0.1,0.5,0.3,0.9,0.6,1.3s0.6,0.7,1,0.9s0.9,0.3,1.4,0.3c0.3,0,0.7-0.1,1-0.2
		s0.6-0.3,0.8-0.5c0.2-0.2,0.4-0.5,0.6-0.8c0.2-0.3,0.3-0.7,0.3-1.1h1.1c-0.2,1.1-0.6,2-1.2,2.6c-0.7,0.6-1.5,0.9-2.6,0.9
		c-0.7,0-1.3-0.1-1.9-0.4c-0.5-0.3-1-0.6-1.4-1.1c-0.4-0.4-0.7-1-0.8-1.6c-0.2-0.6-0.3-1.2-0.3-1.9s0.1-1.3,0.3-1.9
		c0.2-0.6,0.5-1.1,0.8-1.6c0.4-0.4,0.8-0.8,1.4-1.1c0.5-0.3,1.2-0.4,1.9-0.4c1,0,1.8,0.3,2.5,0.8c0.7,0.5,1.1,1.3,1.2,2.4h-1.1
		C402.1,6.4,401.8,5.9,401.4,5.5z"/>
	<path class="st1" d="M413.3,13.5v-1.7h0c-0.3,0.6-0.7,1.1-1.3,1.4c-0.6,0.3-1.2,0.5-1.9,0.5c-0.6,0-1.1-0.1-1.5-0.2
		c-0.4-0.2-0.7-0.4-1-0.7c-0.3-0.3-0.4-0.7-0.6-1.1c-0.1-0.4-0.2-0.9-0.2-1.5v-6h1.1v6c0,0.8,0.2,1.5,0.6,1.9c0.4,0.4,1,0.6,1.9,0.6
		c0.5,0,0.9-0.1,1.3-0.3c0.3-0.2,0.6-0.5,0.9-0.8c0.2-0.3,0.4-0.7,0.5-1.2c0.1-0.4,0.2-0.9,0.2-1.4V4.2h1.1v9.3H413.3z"/>
	<path class="st1" d="M419.4,4.2v1.6h0c0.2-0.6,0.6-1,1.1-1.4c0.6-0.3,1.2-0.5,1.8-0.5c0.6,0,1.2,0.1,1.6,0.3
		c0.4,0.2,0.8,0.4,1.1,0.7c0.3,0.3,0.4,0.7,0.6,1.1c0.1,0.4,0.2,0.9,0.2,1.5v6h-1.1V7.7c0-0.4,0-0.8-0.1-1.1
		c-0.1-0.3-0.2-0.6-0.4-0.9c-0.2-0.3-0.4-0.4-0.7-0.6c-0.3-0.1-0.7-0.2-1.1-0.2c-0.5,0-0.9,0.1-1.2,0.2c-0.4,0.2-0.7,0.4-0.9,0.7
		c-0.2,0.3-0.4,0.6-0.6,1c-0.1,0.4-0.2,0.8-0.2,1.3v5.4h-1.1V4.2H419.4z"/>
	<path class="st1" d="M436.9,13.5v-1.8h0c-0.1,0.3-0.3,0.6-0.5,0.8c-0.2,0.3-0.5,0.5-0.8,0.6c-0.3,0.2-0.6,0.3-1,0.4
		c-0.3,0.1-0.7,0.1-1,0.1c-0.7,0-1.3-0.1-1.8-0.4c-0.5-0.3-1-0.6-1.3-1.1c-0.3-0.4-0.6-1-0.8-1.6c-0.2-0.6-0.3-1.2-0.3-1.9
		s0.1-1.3,0.3-1.9c0.2-0.6,0.4-1.1,0.8-1.6c0.3-0.4,0.8-0.8,1.3-1.1c0.5-0.3,1.1-0.4,1.8-0.4c0.3,0,0.7,0,1,0.1
		c0.3,0.1,0.6,0.2,0.9,0.4c0.3,0.2,0.5,0.4,0.8,0.6c0.2,0.3,0.4,0.5,0.5,0.9h0V0.6h1.1v12.8H436.9z M430.7,10.3
		c0.1,0.5,0.3,0.9,0.5,1.3s0.6,0.7,0.9,0.9c0.4,0.2,0.8,0.3,1.4,0.3c0.6,0,1.1-0.1,1.5-0.3s0.7-0.5,1-0.9s0.4-0.8,0.6-1.3
		c0.1-0.5,0.2-0.9,0.2-1.4s-0.1-1-0.2-1.4c-0.1-0.5-0.3-0.9-0.6-1.3s-0.6-0.7-1-0.9s-0.9-0.4-1.5-0.4c-0.5,0-1,0.1-1.4,0.4
		c-0.4,0.2-0.7,0.5-0.9,0.9s-0.4,0.8-0.5,1.3c-0.1,0.5-0.2,0.9-0.2,1.4S430.5,9.8,430.7,10.3z"/>
	<path class="st1" d="M442.1,5.6c0.2-0.4,0.5-0.7,0.8-1c0.3-0.3,0.7-0.4,1.2-0.6c0.4-0.1,0.9-0.2,1.5-0.2c0.4,0,0.8,0,1.2,0.1
		c0.4,0.1,0.8,0.2,1.1,0.4s0.6,0.5,0.8,0.9c0.2,0.4,0.3,0.9,0.3,1.5v4.9c0,0.5,0.2,0.7,0.7,0.7c0.1,0,0.3,0,0.4-0.1v1
		c-0.1,0-0.2,0-0.3,0.1c-0.1,0-0.2,0-0.4,0c-0.3,0-0.5,0-0.7-0.1s-0.3-0.2-0.4-0.3c-0.1-0.1-0.2-0.3-0.2-0.5c0-0.2,0-0.4,0-0.7h0
		c-0.2,0.3-0.4,0.6-0.6,0.8c-0.2,0.2-0.4,0.4-0.7,0.6c-0.3,0.2-0.6,0.3-0.9,0.4s-0.7,0.1-1.2,0.1c-0.4,0-0.8-0.1-1.2-0.2
		s-0.7-0.3-1-0.5s-0.5-0.5-0.7-0.8c-0.2-0.3-0.2-0.7-0.2-1.2c0-0.6,0.1-1.2,0.4-1.5s0.7-0.6,1.1-0.8c0.5-0.2,1-0.3,1.6-0.4
		c0.6-0.1,1.2-0.2,1.8-0.2c0.2,0,0.4-0.1,0.6-0.1c0.2,0,0.3-0.1,0.4-0.2c0.1-0.1,0.2-0.2,0.3-0.4c0.1-0.2,0.1-0.4,0.1-0.6
		c0-0.4-0.1-0.7-0.2-0.9c-0.1-0.2-0.3-0.4-0.5-0.6c-0.2-0.1-0.5-0.2-0.8-0.3c-0.3-0.1-0.6-0.1-0.9-0.1c-0.7,0-1.3,0.2-1.8,0.5
		c-0.5,0.3-0.7,0.9-0.7,1.6h-1.1C441.8,6.5,441.9,6,442.1,5.6z M447.7,8.4c-0.1,0.1-0.2,0.2-0.4,0.3c-0.2,0.1-0.4,0.1-0.5,0.1
		c-0.5,0.1-1,0.2-1.5,0.2c-0.5,0.1-1,0.2-1.4,0.3c-0.4,0.1-0.8,0.3-1,0.6c-0.3,0.2-0.4,0.6-0.4,1.1c0,0.3,0.1,0.5,0.2,0.8
		c0.1,0.2,0.3,0.4,0.5,0.6c0.2,0.2,0.4,0.3,0.7,0.4c0.3,0.1,0.5,0.1,0.8,0.1c0.4,0,0.8-0.1,1.2-0.2c0.4-0.1,0.7-0.3,1-0.6
		c0.3-0.3,0.5-0.6,0.7-0.9c0.2-0.4,0.3-0.8,0.3-1.2L447.7,8.4L447.7,8.4z"/>
	<path class="st1" d="M454,4.2v2.2h0c0.3-0.8,0.7-1.3,1.3-1.7s1.3-0.6,2.2-0.6v1.1c-0.5,0-1,0-1.4,0.2c-0.4,0.2-0.8,0.4-1.1,0.7
		c-0.3,0.3-0.5,0.7-0.7,1.1c-0.2,0.4-0.3,0.9-0.3,1.4v4.9H453V4.2H454z"/>
	<path class="st1" d="M461.6,0.6v1.8h-1.1V0.6H461.6z M461.6,4.2v9.3h-1.1V4.2H461.6z"/>
	<path class="st1" d="M465.8,5.6c0.2-0.4,0.5-0.7,0.8-1c0.3-0.3,0.7-0.4,1.2-0.6c0.4-0.1,0.9-0.2,1.5-0.2c0.4,0,0.8,0,1.2,0.1
		c0.4,0.1,0.8,0.2,1.1,0.4s0.6,0.5,0.8,0.9c0.2,0.4,0.3,0.9,0.3,1.5v4.9c0,0.5,0.2,0.7,0.7,0.7c0.1,0,0.3,0,0.4-0.1v1
		c-0.1,0-0.2,0-0.3,0.1c-0.1,0-0.2,0-0.4,0c-0.3,0-0.5,0-0.7-0.1s-0.3-0.2-0.4-0.3c-0.1-0.1-0.2-0.3-0.2-0.5c0-0.2,0-0.4,0-0.7h0
		c-0.2,0.3-0.4,0.6-0.6,0.8c-0.2,0.2-0.4,0.4-0.7,0.6c-0.3,0.2-0.6,0.3-0.9,0.4s-0.7,0.1-1.2,0.1c-0.4,0-0.8-0.1-1.2-0.2
		s-0.7-0.3-1-0.5s-0.5-0.5-0.7-0.8c-0.2-0.3-0.2-0.7-0.2-1.2c0-0.6,0.1-1.2,0.4-1.5s0.7-0.6,1.1-0.8c0.5-0.2,1-0.3,1.6-0.4
		c0.6-0.1,1.2-0.2,1.8-0.2c0.2,0,0.4-0.1,0.6-0.1c0.2,0,0.3-0.1,0.4-0.2c0.1-0.1,0.2-0.2,0.3-0.4c0.1-0.2,0.1-0.4,0.1-0.6
		c0-0.4-0.1-0.7-0.2-0.9c-0.1-0.2-0.3-0.4-0.5-0.6C470.5,5.1,470.3,5,470,5c-0.3-0.1-0.6-0.1-0.9-0.1c-0.7,0-1.3,0.2-1.8,0.5
		c-0.5,0.3-0.7,0.9-0.7,1.6h-1.1C465.5,6.5,465.6,6,465.8,5.6z M471.4,8.4c-0.1,0.1-0.2,0.2-0.4,0.3c-0.2,0.1-0.4,0.1-0.5,0.1
		C470,8.9,469.5,9,469,9c-0.5,0.1-1,0.2-1.4,0.3c-0.4,0.1-0.8,0.3-1,0.6c-0.3,0.2-0.4,0.6-0.4,1.1c0,0.3,0.1,0.5,0.2,0.8
		c0.1,0.2,0.3,0.4,0.5,0.6c0.2,0.2,0.4,0.3,0.7,0.4c0.3,0.1,0.5,0.1,0.8,0.1c0.4,0,0.8-0.1,1.2-0.2c0.4-0.1,0.7-0.3,1-0.6
		c0.3-0.3,0.5-0.6,0.7-0.9c0.2-0.4,0.3-0.8,0.3-1.2L471.4,8.4L471.4,8.4z"/>
	<path class="st1" d="M482,6c-0.1-0.3-0.3-0.5-0.5-0.6c-0.2-0.2-0.5-0.3-0.8-0.4s-0.6-0.1-0.9-0.1c-0.3,0-0.5,0-0.8,0.1
		s-0.5,0.1-0.7,0.3c-0.2,0.1-0.4,0.3-0.5,0.5c-0.1,0.2-0.2,0.5-0.2,0.8c0,0.3,0.1,0.5,0.2,0.6c0.1,0.2,0.3,0.3,0.5,0.4
		c0.2,0.1,0.4,0.2,0.6,0.3c0.2,0.1,0.4,0.1,0.6,0.2l1.5,0.3c0.3,0,0.6,0.1,1,0.3s0.6,0.3,0.8,0.5c0.2,0.2,0.4,0.5,0.6,0.8
		c0.2,0.3,0.2,0.7,0.2,1.1c0,0.5-0.1,0.9-0.3,1.3c-0.2,0.4-0.5,0.6-0.9,0.9s-0.8,0.4-1.2,0.5c-0.4,0.1-0.9,0.1-1.3,0.1
		c-1.1,0-2-0.3-2.6-0.8c-0.7-0.5-1.1-1.3-1.2-2.5h1.1c0,0.8,0.3,1.3,0.8,1.7c0.5,0.4,1.1,0.6,1.9,0.6c0.3,0,0.6,0,0.9-0.1
		c0.3-0.1,0.6-0.2,0.8-0.3c0.3-0.1,0.5-0.3,0.6-0.5c0.2-0.2,0.2-0.5,0.2-0.8c0-0.3-0.1-0.5-0.2-0.7c-0.1-0.2-0.3-0.3-0.5-0.5
		c-0.2-0.1-0.4-0.2-0.7-0.3c-0.2-0.1-0.5-0.2-0.7-0.2L479.1,9c-0.4-0.1-0.7-0.2-1-0.3c-0.3-0.1-0.6-0.3-0.8-0.5
		c-0.2-0.2-0.4-0.4-0.5-0.7c-0.1-0.3-0.2-0.6-0.2-1c0-0.5,0.1-0.9,0.3-1.2c0.2-0.3,0.5-0.6,0.8-0.8c0.3-0.2,0.7-0.4,1.1-0.4
		s0.8-0.1,1.2-0.1c0.5,0,0.9,0.1,1.3,0.2c0.4,0.1,0.8,0.3,1.1,0.6c0.3,0.3,0.5,0.6,0.7,0.9s0.3,0.8,0.3,1.3h-1.1
		C482.2,6.6,482.1,6.3,482,6z"/>
	<path class="st1" d="M489.3,13.5c0,0.3,0,0.5-0.1,0.8c-0.1,0.3-0.2,0.5-0.3,0.7s-0.3,0.4-0.5,0.6c-0.2,0.2-0.4,0.3-0.7,0.4v-0.8
		c0.1,0,0.3-0.1,0.4-0.3c0.1-0.1,0.2-0.3,0.3-0.4c0.1-0.2,0.1-0.3,0.2-0.5c0-0.2,0-0.3,0-0.5h-0.8v-1.9h1.5V13.5z"/>
	<path class="st1" d="M500.9,5.6c0.2-0.4,0.5-0.7,0.8-1c0.3-0.3,0.7-0.4,1.2-0.6c0.4-0.1,0.9-0.2,1.5-0.2c0.4,0,0.8,0,1.2,0.1
		c0.4,0.1,0.8,0.2,1.1,0.4s0.6,0.5,0.8,0.9c0.2,0.4,0.3,0.9,0.3,1.5v4.9c0,0.5,0.2,0.7,0.7,0.7c0.1,0,0.3,0,0.4-0.1v1
		c-0.1,0-0.2,0-0.3,0.1c-0.1,0-0.2,0-0.4,0c-0.3,0-0.5,0-0.7-0.1s-0.3-0.2-0.4-0.3c-0.1-0.1-0.2-0.3-0.2-0.5c0-0.2,0-0.4,0-0.7h0
		c-0.2,0.3-0.4,0.6-0.6,0.8c-0.2,0.2-0.4,0.4-0.7,0.6c-0.3,0.2-0.6,0.3-0.9,0.4s-0.7,0.1-1.2,0.1c-0.4,0-0.8-0.1-1.2-0.2
		s-0.7-0.3-1-0.5s-0.5-0.5-0.7-0.8c-0.2-0.3-0.2-0.7-0.2-1.2c0-0.6,0.1-1.2,0.4-1.5s0.7-0.6,1.1-0.8c0.5-0.2,1-0.3,1.6-0.4
		c0.6-0.1,1.2-0.2,1.8-0.2c0.2,0,0.4-0.1,0.6-0.1c0.2,0,0.3-0.1,0.4-0.2c0.1-0.1,0.2-0.2,0.3-0.4c0.1-0.2,0.1-0.4,0.1-0.6
		c0-0.4-0.1-0.7-0.2-0.9c-0.1-0.2-0.3-0.4-0.5-0.6c-0.2-0.1-0.5-0.2-0.8-0.3c-0.3-0.1-0.6-0.1-0.9-0.1c-0.7,0-1.3,0.2-1.8,0.5
		c-0.5,0.3-0.7,0.9-0.7,1.6h-1.1C500.6,6.5,500.7,6,500.9,5.6z M506.6,8.4c-0.1,0.1-0.2,0.2-0.4,0.3c-0.2,0.1-0.4,0.1-0.5,0.1
		c-0.5,0.1-1,0.2-1.5,0.2c-0.5,0.1-1,0.2-1.4,0.3c-0.4,0.1-0.8,0.3-1,0.6c-0.3,0.2-0.4,0.6-0.4,1.1c0,0.3,0.1,0.5,0.2,0.8
		c0.1,0.2,0.3,0.4,0.5,0.6c0.2,0.2,0.4,0.3,0.7,0.4c0.3,0.1,0.5,0.1,0.8,0.1c0.4,0,0.8-0.1,1.2-0.2c0.4-0.1,0.7-0.3,1-0.6
		c0.3-0.3,0.5-0.6,0.7-0.9c0.2-0.4,0.3-0.8,0.3-1.2L506.6,8.4L506.6,8.4z"/>
	<path class="st1" d="M517.1,6c-0.1-0.3-0.3-0.5-0.5-0.6c-0.2-0.2-0.5-0.3-0.8-0.4s-0.6-0.1-0.9-0.1c-0.3,0-0.5,0-0.8,0.1
		s-0.5,0.1-0.7,0.3c-0.2,0.1-0.4,0.3-0.5,0.5c-0.1,0.2-0.2,0.5-0.2,0.8c0,0.3,0.1,0.5,0.2,0.6c0.1,0.2,0.3,0.3,0.5,0.4
		c0.2,0.1,0.4,0.2,0.6,0.3c0.2,0.1,0.4,0.1,0.6,0.2l1.5,0.3c0.3,0,0.6,0.1,1,0.3s0.6,0.3,0.8,0.5c0.2,0.2,0.4,0.5,0.6,0.8
		c0.2,0.3,0.2,0.7,0.2,1.1c0,0.5-0.1,0.9-0.3,1.3c-0.2,0.4-0.5,0.6-0.9,0.9s-0.8,0.4-1.2,0.5c-0.4,0.1-0.9,0.1-1.3,0.1
		c-1.1,0-2-0.3-2.6-0.8c-0.7-0.5-1.1-1.3-1.2-2.5h1.1c0,0.8,0.3,1.3,0.8,1.7c0.5,0.4,1.1,0.6,1.9,0.6c0.3,0,0.6,0,0.9-0.1
		c0.3-0.1,0.6-0.2,0.8-0.3c0.3-0.1,0.5-0.3,0.6-0.5c0.2-0.2,0.2-0.5,0.2-0.8c0-0.3-0.1-0.5-0.2-0.7c-0.1-0.2-0.3-0.3-0.5-0.5
		c-0.2-0.1-0.4-0.2-0.7-0.3c-0.2-0.1-0.5-0.2-0.7-0.2L514.2,9c-0.4-0.1-0.7-0.2-1-0.3c-0.3-0.1-0.6-0.3-0.8-0.5
		c-0.2-0.2-0.4-0.4-0.5-0.7c-0.1-0.3-0.2-0.6-0.2-1c0-0.5,0.1-0.9,0.3-1.2c0.2-0.3,0.5-0.6,0.8-0.8c0.3-0.2,0.7-0.4,1.1-0.4
		s0.8-0.1,1.2-0.1c0.5,0,0.9,0.1,1.3,0.2c0.4,0.1,0.8,0.3,1.1,0.6c0.3,0.3,0.5,0.6,0.7,0.9s0.3,0.8,0.3,1.3h-1.1
		C517.3,6.6,517.3,6.3,517.1,6z"/>
	<path class="st1" d="M521.7,2.9l1.9-2.5h1.4l-2.4,2.5H521.7z M522.3,4.2h1.1v9.3h-1.1V4.2z"/>
	<path class="st1" d="M539.8,5.5c-0.4-0.4-1-0.6-1.8-0.6c-0.5,0-1,0.1-1.4,0.3s-0.7,0.5-1,0.9s-0.5,0.8-0.6,1.3
		c-0.1,0.5-0.2,1-0.2,1.4s0.1,1,0.2,1.4c0.1,0.5,0.3,0.9,0.6,1.3s0.6,0.7,1,0.9s0.9,0.3,1.4,0.3c0.3,0,0.7-0.1,1-0.2
		s0.6-0.3,0.8-0.5c0.2-0.2,0.4-0.5,0.6-0.8c0.2-0.3,0.3-0.7,0.3-1.1h1.1c-0.2,1.1-0.6,2-1.2,2.6c-0.7,0.6-1.5,0.9-2.6,0.9
		c-0.7,0-1.3-0.1-1.9-0.4c-0.5-0.3-1-0.6-1.4-1.1c-0.4-0.4-0.7-1-0.8-1.6c-0.2-0.6-0.3-1.2-0.3-1.9s0.1-1.3,0.3-1.9
		c0.2-0.6,0.5-1.1,0.8-1.6c0.4-0.4,0.8-0.8,1.4-1.1c0.5-0.3,1.2-0.4,1.9-0.4c1,0,1.8,0.3,2.5,0.8c0.7,0.5,1.1,1.3,1.2,2.4h-1.1
		C540.5,6.4,540.2,5.9,539.8,5.5z"/>
	<path class="st1" d="M551.1,4.3c0.5,0.3,1,0.6,1.4,1.1c0.4,0.4,0.7,1,0.8,1.6c0.2,0.6,0.3,1.2,0.3,1.9s-0.1,1.3-0.3,1.9
		c-0.2,0.6-0.5,1.1-0.8,1.6c-0.4,0.4-0.8,0.8-1.4,1.1c-0.5,0.3-1.2,0.4-1.9,0.4c-0.7,0-1.3-0.1-1.9-0.4c-0.5-0.3-1-0.6-1.4-1.1
		c-0.4-0.4-0.7-1-0.8-1.6c-0.2-0.6-0.3-1.2-0.3-1.9s0.1-1.3,0.3-1.9c0.2-0.6,0.5-1.1,0.8-1.6c0.4-0.4,0.8-0.8,1.4-1.1
		c0.5-0.3,1.2-0.4,1.9-0.4C549.9,3.9,550.5,4.1,551.1,4.3z M547.8,5.2c-0.4,0.2-0.7,0.5-1,0.9s-0.5,0.8-0.6,1.3
		c-0.1,0.5-0.2,1-0.2,1.4s0.1,1,0.2,1.4c0.1,0.5,0.3,0.9,0.6,1.3s0.6,0.7,1,0.9s0.9,0.3,1.4,0.3s1-0.1,1.4-0.3s0.7-0.5,1-0.9
		c0.3-0.4,0.5-0.8,0.6-1.3c0.1-0.5,0.2-1,0.2-1.4s-0.1-1-0.2-1.4c-0.1-0.5-0.3-0.9-0.6-1.3c-0.3-0.4-0.6-0.7-1-0.9s-0.9-0.3-1.4-0.3
		S548.2,5,547.8,5.2z"/>
	<path class="st1" d="M558.1,4.2v1.6h0.1c0.3-0.6,0.7-1,1.2-1.3c0.5-0.3,1.1-0.5,1.9-0.5c0.6,0,1.2,0.1,1.7,0.4
		c0.5,0.3,0.8,0.8,1,1.4c0.3-0.6,0.7-1.1,1.2-1.4c0.5-0.3,1.1-0.4,1.7-0.4c2,0,3.1,1.1,3.1,3.3v6.3h-1.1V7.2c0-0.8-0.2-1.3-0.5-1.8
		s-0.9-0.6-1.7-0.6c-0.5,0-0.9,0.1-1.2,0.3s-0.6,0.4-0.8,0.7s-0.3,0.7-0.4,1.1c-0.1,0.4-0.1,0.8-0.1,1.2v5.2h-1.1V7.2
		c0-0.3,0-0.6-0.1-0.9c-0.1-0.3-0.2-0.5-0.3-0.7c-0.1-0.2-0.4-0.4-0.6-0.5c-0.3-0.1-0.6-0.2-0.9-0.2c-0.5,0-0.9,0.1-1.2,0.3
		c-0.4,0.2-0.6,0.4-0.9,0.7c-0.2,0.3-0.4,0.7-0.5,1.1c-0.1,0.4-0.2,0.9-0.2,1.4v5.2H557V4.2H558.1z"/>
	<path class="st1" d="M579.6,4.3c0.5,0.3,1,0.6,1.4,1.1c0.4,0.4,0.7,1,0.8,1.6c0.2,0.6,0.3,1.2,0.3,1.9s-0.1,1.3-0.3,1.9
		c-0.2,0.6-0.5,1.1-0.8,1.6c-0.4,0.4-0.8,0.8-1.4,1.1c-0.5,0.3-1.2,0.4-1.9,0.4c-0.7,0-1.3-0.1-1.9-0.4c-0.5-0.3-1-0.6-1.4-1.1
		c-0.4-0.4-0.7-1-0.8-1.6c-0.2-0.6-0.3-1.2-0.3-1.9s0.1-1.3,0.3-1.9c0.2-0.6,0.5-1.1,0.8-1.6c0.4-0.4,0.8-0.8,1.4-1.1
		c0.5-0.3,1.2-0.4,1.9-0.4C578.4,3.9,579,4.1,579.6,4.3z M576.3,5.2c-0.4,0.2-0.7,0.5-1,0.9s-0.5,0.8-0.6,1.3
		c-0.1,0.5-0.2,1-0.2,1.4s0.1,1,0.2,1.4c0.1,0.5,0.3,0.9,0.6,1.3s0.6,0.7,1,0.9s0.9,0.3,1.4,0.3s1-0.1,1.4-0.3s0.7-0.5,1-0.9
		c0.3-0.4,0.5-0.8,0.6-1.3c0.1-0.5,0.2-1,0.2-1.4s-0.1-1-0.2-1.4c-0.1-0.5-0.3-0.9-0.6-1.3c-0.3-0.4-0.6-0.7-1-0.9s-0.9-0.3-1.4-0.3
		S576.7,5,576.3,5.2z"/>
	<path class="st1" d="M593.5,0.6v12.8h-1.1V0.6H593.5z"/>
	<path class="st1" d="M597.7,5.6c0.2-0.4,0.5-0.7,0.8-1c0.3-0.3,0.7-0.4,1.2-0.6c0.4-0.1,0.9-0.2,1.5-0.2c0.4,0,0.8,0,1.2,0.1
		c0.4,0.1,0.8,0.2,1.1,0.4s0.6,0.5,0.8,0.9c0.2,0.4,0.3,0.9,0.3,1.5v4.9c0,0.5,0.2,0.7,0.7,0.7c0.1,0,0.3,0,0.4-0.1v1
		c-0.1,0-0.2,0-0.3,0.1c-0.1,0-0.2,0-0.4,0c-0.3,0-0.5,0-0.7-0.1s-0.3-0.2-0.4-0.3c-0.1-0.1-0.2-0.3-0.2-0.5c0-0.2,0-0.4,0-0.7h0
		c-0.2,0.3-0.4,0.6-0.6,0.8c-0.2,0.2-0.4,0.4-0.7,0.6c-0.3,0.2-0.6,0.3-0.9,0.4s-0.7,0.1-1.2,0.1c-0.4,0-0.8-0.1-1.2-0.2
		s-0.7-0.3-1-0.5s-0.5-0.5-0.7-0.8c-0.2-0.3-0.2-0.7-0.2-1.2c0-0.6,0.1-1.2,0.4-1.5s0.7-0.6,1.1-0.8c0.5-0.2,1-0.3,1.6-0.4
		c0.6-0.1,1.2-0.2,1.8-0.2c0.2,0,0.4-0.1,0.6-0.1c0.2,0,0.3-0.1,0.4-0.2c0.1-0.1,0.2-0.2,0.3-0.4c0.1-0.2,0.1-0.4,0.1-0.6
		c0-0.4-0.1-0.7-0.2-0.9c-0.1-0.2-0.3-0.4-0.5-0.6c-0.2-0.1-0.5-0.2-0.8-0.3c-0.3-0.1-0.6-0.1-0.9-0.1c-0.7,0-1.3,0.2-1.8,0.5
		c-0.5,0.3-0.7,0.9-0.7,1.6h-1.1C597.4,6.5,597.5,6,597.7,5.6z M603.4,8.4c-0.1,0.1-0.2,0.2-0.4,0.3c-0.2,0.1-0.4,0.1-0.5,0.1
		C602,8.9,601.5,9,601,9c-0.5,0.1-1,0.2-1.4,0.3c-0.4,0.1-0.8,0.3-1,0.6c-0.3,0.2-0.4,0.6-0.4,1.1c0,0.3,0.1,0.5,0.2,0.8
		c0.1,0.2,0.3,0.4,0.5,0.6c0.2,0.2,0.4,0.3,0.7,0.4c0.3,0.1,0.5,0.1,0.8,0.1c0.4,0,0.8-0.1,1.2-0.2c0.4-0.1,0.7-0.3,1-0.6
		c0.3-0.3,0.5-0.6,0.7-0.9c0.2-0.4,0.3-0.8,0.3-1.2L603.4,8.4L603.4,8.4z"/>
	<path class="st1" d="M616.2,10.4c0.1,0.4,0.3,0.8,0.5,1.2c0.3,0.3,0.6,0.6,1,0.9c0.4,0.2,0.8,0.3,1.4,0.3c0.8,0,1.5-0.2,1.9-0.6
		c0.5-0.4,0.8-1,1-1.7h1.1c-0.2,1.1-0.7,1.9-1.3,2.4c-0.6,0.6-1.5,0.9-2.7,0.9c-0.7,0-1.4-0.1-1.9-0.4c-0.5-0.3-1-0.6-1.3-1.1
		s-0.6-1-0.7-1.6c-0.2-0.6-0.2-1.2-0.2-1.9c0-0.6,0.1-1.2,0.2-1.8c0.2-0.6,0.4-1.1,0.7-1.6s0.8-0.8,1.3-1.1c0.5-0.3,1.2-0.4,1.9-0.4
		c0.7,0,1.4,0.1,1.9,0.4c0.5,0.3,1,0.7,1.3,1.2c0.3,0.5,0.6,1,0.7,1.7c0.1,0.6,0.2,1.3,0.2,1.9h-7.1C616.1,9.5,616.1,10,616.2,10.4z
		 M621.8,6.9c-0.1-0.4-0.3-0.7-0.6-1.1c-0.3-0.3-0.6-0.6-0.9-0.7c-0.4-0.2-0.8-0.3-1.2-0.3c-0.5,0-0.9,0.1-1.2,0.3s-0.7,0.4-0.9,0.7
		c-0.3,0.3-0.5,0.7-0.6,1.1c-0.2,0.4-0.2,0.8-0.3,1.2h6C622.1,7.7,622,7.3,621.8,6.9z"/>
	<path class="st1" d="M630.2,4.2v1h-1.9v6.3c0,0.4,0.1,0.7,0.2,0.9c0.1,0.2,0.4,0.3,0.8,0.4c0.3,0,0.6,0,1-0.1v1c-0.2,0-0.3,0-0.5,0
		c-0.2,0-0.3,0-0.5,0c-0.8,0-1.3-0.1-1.6-0.4c-0.3-0.3-0.4-0.8-0.4-1.6V5.1h-1.6v-1h1.6V1.4h1.1v2.8H630.2z"/>
	<path class="st1" d="M633.9,5.6c0.2-0.4,0.5-0.7,0.8-1c0.3-0.3,0.7-0.4,1.2-0.6c0.4-0.1,0.9-0.2,1.5-0.2c0.4,0,0.8,0,1.2,0.1
		c0.4,0.1,0.8,0.2,1.1,0.4s0.6,0.5,0.8,0.9c0.2,0.4,0.3,0.9,0.3,1.5v4.9c0,0.5,0.2,0.7,0.7,0.7c0.1,0,0.3,0,0.4-0.1v1
		c-0.1,0-0.2,0-0.3,0.1c-0.1,0-0.2,0-0.4,0c-0.3,0-0.5,0-0.7-0.1s-0.3-0.2-0.4-0.3c-0.1-0.1-0.2-0.3-0.2-0.5c0-0.2,0-0.4,0-0.7h0
		c-0.2,0.3-0.4,0.6-0.6,0.8c-0.2,0.2-0.4,0.4-0.7,0.6c-0.3,0.2-0.6,0.3-0.9,0.4s-0.7,0.1-1.2,0.1c-0.4,0-0.8-0.1-1.2-0.2
		s-0.7-0.3-1-0.5s-0.5-0.5-0.7-0.8c-0.2-0.3-0.2-0.7-0.2-1.2c0-0.6,0.1-1.2,0.4-1.5s0.7-0.6,1.1-0.8c0.5-0.2,1-0.3,1.6-0.4
		c0.6-0.1,1.2-0.2,1.8-0.2c0.2,0,0.4-0.1,0.6-0.1c0.2,0,0.3-0.1,0.4-0.2c0.1-0.1,0.2-0.2,0.3-0.4c0.1-0.2,0.1-0.4,0.1-0.6
		c0-0.4-0.1-0.7-0.2-0.9c-0.1-0.2-0.3-0.4-0.5-0.6c-0.2-0.1-0.5-0.2-0.8-0.3c-0.3-0.1-0.6-0.1-0.9-0.1c-0.7,0-1.3,0.2-1.8,0.5
		c-0.5,0.3-0.7,0.9-0.7,1.6h-1.1C633.6,6.5,633.7,6,633.9,5.6z M639.5,8.4c-0.1,0.1-0.2,0.2-0.4,0.3c-0.2,0.1-0.4,0.1-0.5,0.1
		c-0.5,0.1-1,0.2-1.5,0.2c-0.5,0.1-1,0.2-1.4,0.3c-0.4,0.1-0.8,0.3-1,0.6c-0.3,0.2-0.4,0.6-0.4,1.1c0,0.3,0.1,0.5,0.2,0.8
		c0.1,0.2,0.3,0.4,0.5,0.6c0.2,0.2,0.4,0.3,0.7,0.4c0.3,0.1,0.5,0.1,0.8,0.1c0.4,0,0.8-0.1,1.2-0.2c0.4-0.1,0.7-0.3,1-0.6
		c0.3-0.3,0.5-0.6,0.7-0.9c0.2-0.4,0.3-0.8,0.3-1.2L639.5,8.4L639.5,8.4z"/>
	<path class="st1" d="M645.8,4.2V6h0c0.3-0.6,0.7-1.1,1.3-1.5c0.6-0.4,1.3-0.5,2-0.5c0.7,0,1.3,0.1,1.8,0.4c0.5,0.3,1,0.6,1.3,1.1
		c0.3,0.4,0.6,1,0.8,1.6s0.3,1.2,0.3,1.9s-0.1,1.3-0.3,1.9s-0.4,1.1-0.8,1.6s-0.8,0.8-1.3,1.1c-0.5,0.3-1.1,0.4-1.8,0.4
		c-0.3,0-0.7,0-1-0.1c-0.3-0.1-0.6-0.2-0.9-0.4s-0.5-0.4-0.8-0.6c-0.2-0.3-0.4-0.5-0.5-0.9h0v5.2h-1.1V4.2H645.8z M652,7.4
		c-0.1-0.5-0.3-0.9-0.5-1.3s-0.6-0.7-0.9-0.9c-0.4-0.2-0.8-0.4-1.4-0.4c-0.6,0-1.1,0.1-1.6,0.3c-0.4,0.2-0.8,0.5-1,0.9
		c-0.3,0.4-0.4,0.8-0.5,1.3c-0.1,0.5-0.2,1-0.2,1.5c0,0.5,0.1,1,0.2,1.4c0.1,0.5,0.3,0.9,0.6,1.3s0.6,0.7,1,0.9s0.9,0.3,1.5,0.3
		c0.5,0,1-0.1,1.4-0.3c0.4-0.2,0.7-0.5,0.9-0.9s0.4-0.8,0.5-1.3c0.1-0.5,0.2-0.9,0.2-1.4S652.1,7.9,652,7.4z"/>
	<path class="st1" d="M657.1,5.6c0.2-0.4,0.5-0.7,0.8-1c0.3-0.3,0.7-0.4,1.2-0.6c0.4-0.1,0.9-0.2,1.5-0.2c0.4,0,0.8,0,1.2,0.1
		c0.4,0.1,0.8,0.2,1.1,0.4s0.6,0.5,0.8,0.9c0.2,0.4,0.3,0.9,0.3,1.5v4.9c0,0.5,0.2,0.7,0.7,0.7c0.1,0,0.3,0,0.4-0.1v1
		c-0.1,0-0.2,0-0.3,0.1c-0.1,0-0.2,0-0.4,0c-0.3,0-0.5,0-0.7-0.1s-0.3-0.2-0.4-0.3c-0.1-0.1-0.2-0.3-0.2-0.5c0-0.2,0-0.4,0-0.7h0
		c-0.2,0.3-0.4,0.6-0.6,0.8c-0.2,0.2-0.4,0.4-0.7,0.6c-0.3,0.2-0.6,0.3-0.9,0.4s-0.7,0.1-1.2,0.1c-0.4,0-0.8-0.1-1.2-0.2
		s-0.7-0.3-1-0.5s-0.5-0.5-0.7-0.8c-0.2-0.3-0.2-0.7-0.2-1.2c0-0.6,0.1-1.2,0.4-1.5s0.7-0.6,1.1-0.8c0.5-0.2,1-0.3,1.6-0.4
		c0.6-0.1,1.2-0.2,1.8-0.2c0.2,0,0.4-0.1,0.6-0.1c0.2,0,0.3-0.1,0.4-0.2c0.1-0.1,0.2-0.2,0.3-0.4c0.1-0.2,0.1-0.4,0.1-0.6
		c0-0.4-0.1-0.7-0.2-0.9c-0.1-0.2-0.3-0.4-0.5-0.6c-0.2-0.1-0.5-0.2-0.8-0.3c-0.3-0.1-0.6-0.1-0.9-0.1c-0.7,0-1.3,0.2-1.8,0.5
		c-0.5,0.3-0.7,0.9-0.7,1.6h-1.1C656.8,6.5,656.9,6,657.1,5.6z M662.7,8.4c-0.1,0.1-0.2,0.2-0.4,0.3c-0.2,0.1-0.4,0.1-0.5,0.1
		c-0.5,0.1-1,0.2-1.5,0.2c-0.5,0.1-1,0.2-1.4,0.3c-0.4,0.1-0.8,0.3-1,0.6c-0.3,0.2-0.4,0.6-0.4,1.1c0,0.3,0.1,0.5,0.2,0.8
		c0.1,0.2,0.3,0.4,0.5,0.6c0.2,0.2,0.4,0.3,0.7,0.4c0.3,0.1,0.5,0.1,0.8,0.1c0.4,0,0.8-0.1,1.2-0.2c0.4-0.1,0.7-0.3,1-0.6
		c0.3-0.3,0.5-0.6,0.7-0.9c0.2-0.4,0.3-0.8,0.3-1.2L662.7,8.4L662.7,8.4z"/>
	<path class="st1" d="M681.9,13.5v-1.8h0c-0.1,0.3-0.3,0.6-0.5,0.8c-0.2,0.3-0.5,0.5-0.8,0.6c-0.3,0.2-0.6,0.3-1,0.4
		c-0.3,0.1-0.7,0.1-1,0.1c-0.7,0-1.3-0.1-1.8-0.4c-0.5-0.3-1-0.6-1.3-1.1c-0.3-0.4-0.6-1-0.8-1.6c-0.2-0.6-0.3-1.2-0.3-1.9
		s0.1-1.3,0.3-1.9c0.2-0.6,0.4-1.1,0.8-1.6c0.3-0.4,0.8-0.8,1.3-1.1c0.5-0.3,1.1-0.4,1.8-0.4c0.3,0,0.7,0,1,0.1
		c0.3,0.1,0.6,0.2,0.9,0.4c0.3,0.2,0.5,0.4,0.8,0.6c0.2,0.3,0.4,0.5,0.5,0.9h0V0.6h1.1v12.8H681.9z M675.7,10.3
		c0.1,0.5,0.3,0.9,0.5,1.3s0.6,0.7,0.9,0.9c0.4,0.2,0.8,0.3,1.4,0.3c0.6,0,1.1-0.1,1.5-0.3s0.7-0.5,1-0.9s0.4-0.8,0.6-1.3
		c0.1-0.5,0.2-0.9,0.2-1.4s-0.1-1-0.2-1.4c-0.1-0.5-0.3-0.9-0.6-1.3s-0.6-0.7-1-0.9s-0.9-0.4-1.5-0.4c-0.5,0-1,0.1-1.4,0.4
		c-0.4,0.2-0.7,0.5-0.9,0.9s-0.4,0.8-0.5,1.3c-0.1,0.5-0.2,0.9-0.2,1.4S675.6,9.8,675.7,10.3z"/>
	<path class="st1" d="M687.7,10.4c0.1,0.4,0.3,0.8,0.5,1.2c0.3,0.3,0.6,0.6,1,0.9c0.4,0.2,0.8,0.3,1.4,0.3c0.8,0,1.5-0.2,1.9-0.6
		c0.5-0.4,0.8-1,1-1.7h1.1c-0.2,1.1-0.7,1.9-1.3,2.4c-0.6,0.6-1.5,0.9-2.7,0.9c-0.7,0-1.4-0.1-1.9-0.4c-0.5-0.3-1-0.6-1.3-1.1
		s-0.6-1-0.7-1.6c-0.2-0.6-0.2-1.2-0.2-1.9c0-0.6,0.1-1.2,0.2-1.8c0.2-0.6,0.4-1.1,0.7-1.6s0.8-0.8,1.3-1.1c0.5-0.3,1.2-0.4,1.9-0.4
		c0.7,0,1.4,0.1,1.9,0.4c0.5,0.3,1,0.7,1.3,1.2c0.3,0.5,0.6,1,0.7,1.7c0.1,0.6,0.2,1.3,0.2,1.9h-7.1C687.5,9.5,687.6,10,687.7,10.4z
		 M693.3,6.9c-0.1-0.4-0.3-0.7-0.6-1.1c-0.3-0.3-0.6-0.6-0.9-0.7c-0.4-0.2-0.8-0.3-1.2-0.3c-0.5,0-0.9,0.1-1.2,0.3s-0.7,0.4-0.9,0.7
		c-0.3,0.3-0.5,0.7-0.6,1.1c-0.2,0.4-0.2,0.8-0.3,1.2h6C693.5,7.7,693.4,7.3,693.3,6.9z"/>
	<path class="st0" d="M705.3,0.6h2.5l-1,4.5h0c0.8-0.9,1.5-1.2,2.7-1.2c2.4,0,3.3,1.8,3.3,4c0,2.9-1.7,5.8-4.8,5.8
		c-1.3,0-2.5-0.4-2.9-1.7h0l-0.3,1.5h-2.4L705.3,0.6z M705.9,9.8c0,1.1,0.7,2,1.8,2c1.9,0,2.7-2.3,2.7-3.9c0-1.2-0.5-2.1-1.8-2.1
		C706.6,5.8,705.9,8.2,705.9,9.8z"/>
	<path class="st0" d="M723.3,13.5h-2.4l0.3-1.3h0c-0.8,1-1.9,1.5-3.3,1.5c-1.8,0-2.7-0.9-2.7-2.5c0-0.4,0.2-1.3,0.3-1.6l1.1-5.4h2.6
		l-1.1,5.4c-0.1,0.3-0.2,0.9-0.2,1.1c0,0.6,0.6,1,1.2,1c1.5,0,2.3-1.3,2.6-2.6l1-4.9h2.6L723.3,13.5z"/>
	<path class="st0" d="M728.3,4.2h2.4l-0.4,1.7l0,0c0.6-1.3,1.8-2,3.2-2c0.3,0,0.5,0,0.8,0.1l-0.5,2.5c-0.4-0.1-0.7-0.2-1.1-0.2
		c-2,0-2.7,1.5-3,3.1l-0.9,4.1h-2.6L728.3,4.2z"/>
	<path class="st0" d="M736.2,4.2h2.4l-0.3,1.3h0c0.8-1,1.9-1.5,3.3-1.5c1.8,0,2.7,0.9,2.7,2.5c0,0.4-0.2,1.3-0.3,1.6l-1.1,5.4h-2.5
		l1.1-5.4c0.1-0.3,0.2-0.9,0.2-1.1c0-0.6-0.6-1-1.2-1c-1.5,0-2.3,1.3-2.6,2.6l-1,4.9h-2.6L736.2,4.2z"/>
	<path class="st0" d="M751.8,3.9c2.5,0,4.3,1.3,4.3,3.9c0,3.3-2,5.9-5.4,5.9c-2.6,0-4.3-1.3-4.3-4C746.5,6.6,748.5,3.9,751.8,3.9z
		 M750.9,11.8c1.9,0,2.7-2.3,2.7-3.9c0-1.2-0.5-2-1.9-2c-1.9,0-2.7,2.3-2.7,3.9C749,10.8,749.7,11.8,750.9,11.8z"/>
	<path class="st0" d="M766.4,13.5H764l0.3-1.3h0c-0.8,1-1.9,1.5-3.3,1.5c-1.8,0-2.7-0.9-2.7-2.5c0-0.4,0.2-1.3,0.3-1.6l1.1-5.4h2.6
		l-1.1,5.4c-0.1,0.3-0.2,0.9-0.2,1.1c0,0.6,0.6,1,1.2,1c1.5,0,2.3-1.3,2.6-2.6l1-4.9h2.6L766.4,13.5z"/>
	<path class="st0" d="M774.7,4.2h1.8l-0.4,1.7h-1.8l-1,4.6c0,0.2-0.1,0.4-0.1,0.4c0,0.7,0.5,0.7,0.9,0.7c0.3,0,0.6,0,0.9-0.1l-0.4,2
		c-0.5,0.1-1.1,0.1-1.6,0.1c-1.2,0-2.5-0.4-2.4-1.9c0-0.2,0.1-0.6,0.1-0.9l1-5h-1.7l0.4-1.7h1.6l0.6-2.8h2.5L774.7,4.2z"/>
	<path class="st0" d="M778.3,10.7h2.8v2.8h-2.8V10.7z"/>
	<path class="st0" d="M787.3,7.5h-1.5V2.7h-1.8V1.6c0.3,0,0.5,0,0.7-0.1c0.2,0,0.5-0.1,0.7-0.2s0.4-0.3,0.5-0.5s0.2-0.4,0.3-0.7h1.2
		V7.5z"/>
	<path class="st0" d="M790.1,5.9h1.6v1.6c0,0.2,0,0.5-0.1,0.7c-0.1,0.2-0.2,0.4-0.4,0.5c-0.1,0.1-0.3,0.3-0.5,0.4
		c-0.2,0.1-0.4,0.2-0.6,0.2V8.5c0.1,0,0.2-0.1,0.3-0.1s0.2-0.1,0.2-0.2c0.1-0.1,0.1-0.2,0.2-0.3c0-0.1,0-0.2,0-0.3h-0.8V5.9z"/>
	<path class="st0" d="M795.3,3.1c0.2,0,0.3,0,0.5,0s0.4-0.1,0.5-0.1c0.2-0.1,0.3-0.2,0.4-0.3c0.1-0.1,0.2-0.3,0.2-0.5
		c0-0.3-0.1-0.6-0.3-0.7c-0.2-0.2-0.5-0.3-0.7-0.3c-0.4,0-0.7,0.1-0.9,0.4c-0.2,0.2-0.3,0.6-0.3,0.9h-1.4c0-0.4,0.1-0.7,0.2-1
		s0.3-0.6,0.5-0.8c0.2-0.2,0.5-0.4,0.8-0.5c0.3-0.1,0.6-0.2,1-0.2c0.3,0,0.6,0,0.9,0.1c0.3,0.1,0.6,0.2,0.8,0.4
		c0.2,0.2,0.4,0.4,0.6,0.6c0.1,0.3,0.2,0.5,0.2,0.9c0,0.3-0.1,0.7-0.3,0.9c-0.2,0.3-0.4,0.5-0.8,0.6v0c0.4,0.1,0.7,0.3,1,0.6
		s0.3,0.7,0.3,1.1c0,0.4-0.1,0.7-0.2,1c-0.1,0.3-0.4,0.6-0.6,0.8s-0.5,0.4-0.9,0.5s-0.7,0.2-1,0.2c-0.4,0-0.8-0.1-1.1-0.2
		c-0.3-0.1-0.6-0.3-0.9-0.5s-0.4-0.5-0.5-0.8c-0.1-0.3-0.2-0.7-0.2-1.1h1.4c0,0.2,0,0.4,0.1,0.6s0.1,0.3,0.2,0.5
		c0.1,0.1,0.2,0.2,0.4,0.3s0.3,0.1,0.6,0.1c0.3,0,0.6-0.1,0.8-0.3c0.2-0.2,0.3-0.5,0.3-0.8c0-0.3-0.1-0.5-0.2-0.6s-0.2-0.3-0.4-0.3
		c-0.2-0.1-0.4-0.1-0.5-0.1c-0.2,0-0.4,0-0.6,0V3.1z"/>
	<path class="st0" d="M799.9,5.9h1.6v1.6c0,0.2,0,0.5-0.1,0.7c-0.1,0.2-0.2,0.4-0.4,0.5c-0.1,0.1-0.3,0.3-0.5,0.4
		c-0.2,0.1-0.4,0.2-0.6,0.2V8.5c0.1,0,0.2-0.1,0.3-0.1s0.2-0.1,0.2-0.2c0.1-0.1,0.1-0.2,0.2-0.3c0-0.1,0-0.2,0-0.3h-0.8V5.9z"/>
	<path class="st0" d="M806,5.8h-3.1V4.4l3.2-4.3h1.3v4.4h1v1.2h-1v1.7H806V5.8z M806,2L806,2l-1.9,2.5h1.9V2z"/>
</g>
</svg>
