<!-- Generator: Adobe Illustrator 20.1.0, SVG Export Plug-In  -->
<svg version="1.1"
	 xmlns="http://www.w3.org/2000/svg" xmlns:xlink="http://www.w3.org/1999/xlink" xmlns:a="http://ns.adobe.com/AdobeSVGViewerExtensions/3.0/"
	 x="0px" y="0px" width="497.7px" height="16.8px" viewBox="0 0 497.7 16.8"
	 style="overflow:scroll;enable-background:new 0 0 497.7 16.8;" xml:space="preserve">
<style type="text/css">
	.st0{opacity:0.9;fill:#F18A21;}
	.st1{opacity:0.8;fill:#333333;}
</style>
<defs>
</defs>
<path class="st0" d="M0,0.5h6c0.6,0,1.2,0.1,1.7,0.2C8.2,0.8,8.6,1,9,1.2s0.6,0.6,0.8,1c0.2,0.4,0.3,0.9,0.3,1.5
	c0,0.6-0.2,1.2-0.4,1.6C9.4,5.8,9,6.1,8.4,6.4C9.2,6.6,9.8,7,10.2,7.6c0.4,0.6,0.6,1.3,0.6,2.1c0,0.6-0.1,1.2-0.4,1.7
	c-0.3,0.5-0.6,0.9-1,1.2c-0.4,0.3-0.9,0.5-1.5,0.7c-0.5,0.1-1.1,0.2-1.7,0.2H0V0.5z M2.8,5.7h2.9c0.5,0,0.9-0.1,1.2-0.4
	c0.3-0.2,0.5-0.6,0.5-1.2c0-0.3-0.1-0.5-0.2-0.7C7.1,3.3,7,3.1,6.8,3S6.4,2.8,6.2,2.8C6,2.8,5.7,2.7,5.5,2.7H2.8V5.7z M2.8,11.2h3
	c0.3,0,0.5,0,0.8-0.1C6.9,11,7.1,11,7.3,10.8c0.2-0.1,0.3-0.3,0.5-0.5c0.1-0.2,0.2-0.5,0.2-0.8c0-0.7-0.2-1.1-0.6-1.4
	S6.5,7.7,5.9,7.7H2.8V11.2z"/>
<path class="st0" d="M14.2,4.1h2.4v1.7h0c0.1-0.3,0.3-0.6,0.5-0.8c0.2-0.2,0.4-0.5,0.7-0.6s0.5-0.3,0.9-0.4c0.3-0.1,0.6-0.1,0.9-0.1
	c0.2,0,0.4,0,0.6,0.1v2.4c-0.1,0-0.3,0-0.4-0.1c-0.2,0-0.3,0-0.5,0c-0.5,0-0.9,0.1-1.2,0.2c-0.3,0.2-0.6,0.4-0.8,0.6
	c-0.2,0.3-0.3,0.6-0.4,1c-0.1,0.4-0.1,0.8-0.1,1.2v4.2h-2.6V4.1z"/>
<path class="st0" d="M25.6,2.7H23V0.5h2.6V2.7z M23,4.1h2.6v9.3H23V4.1z"/>
<path class="st0" d="M29.4,4.1h2.4v1.3h0.1c0.3-0.5,0.7-0.9,1.3-1.2c0.5-0.3,1-0.4,1.6-0.4c0.7,0,1.2,0.1,1.7,0.3s0.8,0.4,1,0.8
	c0.3,0.3,0.4,0.7,0.5,1.2s0.2,1,0.2,1.6v5.7h-2.6V8.1c0-0.8-0.1-1.3-0.4-1.7c-0.2-0.4-0.7-0.6-1.3-0.6c-0.7,0-1.2,0.2-1.5,0.6
	s-0.5,1.1-0.5,2v4.9h-2.6V4.1z"/>
<path class="st0" d="M48.5,12.2L48.5,12.2c-0.3,0.5-0.7,0.9-1.2,1.1c-0.5,0.2-1,0.3-1.6,0.3c-0.7,0-1.3-0.1-1.8-0.4
	c-0.5-0.3-1-0.6-1.3-1.1c-0.3-0.5-0.6-1-0.8-1.6s-0.3-1.2-0.3-1.9c0-0.6,0.1-1.2,0.3-1.8c0.2-0.6,0.4-1.1,0.8-1.5
	c0.3-0.4,0.8-0.8,1.3-1.1c0.5-0.3,1.1-0.4,1.8-0.4c0.5,0,1.1,0.1,1.6,0.3s0.9,0.6,1.2,1h0V0.5h2.6v12.8h-2.4V12.2z M48.4,8.7
	c0-0.4,0-0.7-0.1-1.1s-0.2-0.7-0.4-0.9c-0.2-0.3-0.4-0.5-0.7-0.7c-0.3-0.2-0.6-0.3-1-0.3c-0.4,0-0.8,0.1-1.1,0.3
	c-0.3,0.2-0.5,0.4-0.7,0.7s-0.3,0.6-0.4,0.9C44,8,44,8.3,44,8.7c0,0.4,0,0.7,0.1,1.1s0.2,0.7,0.4,1s0.4,0.5,0.7,0.7s0.6,0.3,1,0.3
	c0.4,0,0.8-0.1,1.1-0.3c0.3-0.2,0.5-0.4,0.7-0.7c0.2-0.3,0.3-0.6,0.4-1C48.4,9.5,48.4,9.1,48.4,8.7z"/>
<path class="st0" d="M54.5,6.9c0-0.6,0.2-1.1,0.4-1.5c0.3-0.4,0.6-0.7,1-1c0.4-0.2,0.9-0.4,1.4-0.5s1-0.2,1.5-0.2
	c0.5,0,0.9,0,1.4,0.1c0.5,0.1,0.9,0.2,1.3,0.4c0.4,0.2,0.7,0.5,1,0.8c0.3,0.3,0.4,0.8,0.4,1.3v4.8c0,0.4,0,0.8,0.1,1.2
	c0,0.4,0.1,0.7,0.3,0.9h-2.6c0-0.1-0.1-0.3-0.1-0.4c0-0.2-0.1-0.3-0.1-0.5c-0.4,0.4-0.9,0.7-1.4,0.9c-0.6,0.2-1.1,0.3-1.7,0.3
	c-0.4,0-0.9-0.1-1.2-0.2c-0.4-0.1-0.7-0.3-1-0.5c-0.3-0.2-0.5-0.5-0.7-0.9c-0.2-0.3-0.2-0.8-0.2-1.2c0-0.5,0.1-1,0.3-1.3
	c0.2-0.3,0.4-0.6,0.7-0.8c0.3-0.2,0.6-0.4,1-0.5C56.6,8.2,57,8.1,57.4,8c0.4-0.1,0.8-0.1,1.1-0.1c0.4,0,0.7-0.1,1-0.2
	c0.3-0.1,0.5-0.2,0.7-0.3s0.3-0.3,0.3-0.6c0-0.3,0-0.5-0.1-0.7C60.2,6,60,5.9,59.9,5.8c-0.2-0.1-0.3-0.1-0.5-0.2c-0.2,0-0.4,0-0.6,0
	c-0.5,0-0.9,0.1-1.2,0.3c-0.3,0.2-0.5,0.6-0.5,1.1H54.5z M60.4,8.8C60.3,8.9,60.1,9,60,9.1c-0.2,0.1-0.3,0.1-0.5,0.1
	s-0.4,0.1-0.6,0.1c-0.2,0-0.4,0.1-0.6,0.1c-0.2,0-0.4,0.1-0.6,0.1s-0.3,0.1-0.5,0.2S57,10,56.9,10.2c-0.1,0.2-0.1,0.4-0.1,0.6
	c0,0.2,0,0.4,0.1,0.6c0.1,0.2,0.2,0.3,0.3,0.4c0.1,0.1,0.3,0.2,0.5,0.2c0.2,0,0.4,0.1,0.6,0.1c0.5,0,0.9-0.1,1.2-0.3
	s0.5-0.4,0.6-0.6s0.2-0.5,0.2-0.7c0-0.2,0-0.4,0-0.6V8.8z"/>
<path class="st0" d="M79.8,7.4c-0.2-1.1-0.8-1.6-1.9-1.6c-0.4,0-0.7,0.1-1,0.3s-0.5,0.4-0.7,0.7c-0.2,0.3-0.3,0.6-0.4,1
	s-0.1,0.7-0.1,1s0,0.7,0.1,1c0.1,0.3,0.2,0.7,0.4,0.9c0.2,0.3,0.4,0.5,0.7,0.7s0.6,0.3,1,0.3c0.6,0,1.1-0.2,1.4-0.5
	c0.3-0.3,0.5-0.8,0.6-1.4h2.5c-0.2,1.2-0.6,2.2-1.4,2.8c-0.8,0.7-1.8,1-3,1c-0.7,0-1.3-0.1-1.9-0.4c-0.6-0.2-1.1-0.6-1.5-1
	c-0.4-0.4-0.7-0.9-1-1.5c-0.2-0.6-0.3-1.2-0.3-1.9c0-0.7,0.1-1.4,0.3-2c0.2-0.6,0.5-1.1,0.9-1.6s0.9-0.8,1.5-1.1
	c0.6-0.3,1.3-0.4,2-0.4c0.5,0,1.1,0.1,1.6,0.2c0.5,0.1,1,0.4,1.4,0.7c0.4,0.3,0.7,0.7,1,1.1c0.3,0.4,0.4,1,0.4,1.5H79.8z"/>
<path class="st0" d="M85.3,8.7c0-0.7,0.1-1.4,0.3-2s0.6-1.1,1-1.5c0.4-0.4,0.9-0.8,1.5-1c0.6-0.2,1.2-0.3,2-0.3s1.4,0.1,2,0.3
	s1.1,0.6,1.5,1s0.7,0.9,1,1.5c0.2,0.6,0.3,1.3,0.3,2s-0.1,1.4-0.3,2c-0.2,0.6-0.6,1.1-1,1.5c-0.4,0.4-0.9,0.8-1.5,1s-1.3,0.4-2,0.4
	s-1.4-0.1-2-0.4c-0.6-0.2-1.1-0.6-1.5-1c-0.4-0.4-0.7-0.9-1-1.5S85.3,9.5,85.3,8.7z M87.9,8.7c0,0.4,0,0.7,0.1,1.1
	c0.1,0.4,0.2,0.7,0.4,1c0.2,0.3,0.4,0.5,0.7,0.7c0.3,0.2,0.6,0.3,1.1,0.3c0.4,0,0.8-0.1,1.1-0.3c0.3-0.2,0.5-0.4,0.7-0.7
	c0.2-0.3,0.3-0.6,0.4-1c0.1-0.4,0.1-0.7,0.1-1.1s0-0.7-0.1-1.1s-0.2-0.7-0.4-1S91.5,6.2,91.2,6c-0.3-0.2-0.7-0.3-1.1-0.3
	c-0.4,0-0.8,0.1-1.1,0.3c-0.3,0.2-0.5,0.4-0.7,0.7S88,7.3,88,7.6S87.9,8.4,87.9,8.7z"/>
<path class="st0" d="M98.4,4.1h2.4v1.3h0.1c0.3-0.5,0.7-0.9,1.3-1.2c0.5-0.3,1-0.4,1.6-0.4c0.7,0,1.2,0.1,1.7,0.3s0.8,0.4,1,0.8
	c0.3,0.3,0.4,0.7,0.5,1.2s0.2,1,0.2,1.6v5.7h-2.6V8.1c0-0.8-0.1-1.3-0.4-1.7c-0.2-0.4-0.7-0.6-1.3-0.6c-0.7,0-1.2,0.2-1.5,0.6
	s-0.5,1.1-0.5,2v4.9h-2.6V4.1z"/>
<path class="st0" d="M114.1,4.1h1.9v1.7h-1.9v4.6c0,0.4,0.1,0.7,0.2,0.9c0.1,0.1,0.4,0.2,0.9,0.2c0.3,0,0.6,0,0.8-0.1v2
	c-0.2,0-0.5,0.1-0.7,0.1s-0.5,0-0.8,0c-0.4,0-0.8,0-1.1-0.1c-0.4-0.1-0.7-0.2-0.9-0.3c-0.3-0.2-0.5-0.4-0.6-0.7s-0.2-0.7-0.2-1.1
	V5.8H110V4.1h1.5V1.3h2.6V4.1z"/>
<path class="st0" d="M118.9,4.1h2.4v1.7h0c0.1-0.3,0.3-0.6,0.5-0.8c0.2-0.2,0.4-0.5,0.7-0.6s0.5-0.3,0.9-0.4
	c0.3-0.1,0.6-0.1,0.9-0.1c0.2,0,0.4,0,0.6,0.1v2.4c-0.1,0-0.3,0-0.4-0.1c-0.2,0-0.3,0-0.5,0c-0.5,0-0.9,0.1-1.2,0.2
	c-0.3,0.2-0.6,0.4-0.8,0.6c-0.2,0.3-0.3,0.6-0.4,1c-0.1,0.4-0.1,0.8-0.1,1.2v4.2h-2.6V4.1z"/>
<path class="st0" d="M127.4,8.7c0-0.7,0.1-1.4,0.3-2s0.6-1.1,1-1.5c0.4-0.4,0.9-0.8,1.5-1c0.6-0.2,1.2-0.3,2-0.3s1.4,0.1,2,0.3
	s1.1,0.6,1.5,1s0.7,0.9,1,1.5c0.2,0.6,0.3,1.3,0.3,2s-0.1,1.4-0.3,2c-0.2,0.6-0.6,1.1-1,1.5c-0.4,0.4-0.9,0.8-1.5,1s-1.3,0.4-2,0.4
	s-1.4-0.1-2-0.4c-0.6-0.2-1.1-0.6-1.5-1c-0.4-0.4-0.7-0.9-1-1.5S127.4,9.5,127.4,8.7z M130,8.7c0,0.4,0,0.7,0.1,1.1
	c0.1,0.4,0.2,0.7,0.4,1c0.2,0.3,0.4,0.5,0.7,0.7c0.3,0.2,0.6,0.3,1.1,0.3c0.4,0,0.8-0.1,1.1-0.3c0.3-0.2,0.5-0.4,0.7-0.7
	c0.2-0.3,0.3-0.6,0.4-1c0.1-0.4,0.1-0.7,0.1-1.1s0-0.7-0.1-1.1s-0.2-0.7-0.4-1s-0.4-0.5-0.7-0.7c-0.3-0.2-0.7-0.3-1.1-0.3
	c-0.4,0-0.8,0.1-1.1,0.3c-0.3,0.2-0.5,0.4-0.7,0.7s-0.3,0.6-0.4,1S130,8.4,130,8.7z"/>
<path class="st0" d="M140.6,0.5h2.6v12.8h-2.6V0.5z"/>
<path class="st1" d="M154.7,10.3c0.1,0.4,0.3,0.8,0.5,1.2c0.3,0.3,0.6,0.6,1,0.9c0.4,0.2,0.8,0.3,1.4,0.3c0.8,0,1.5-0.2,1.9-0.6
	c0.5-0.4,0.8-1,1-1.7h1.1c-0.2,1.1-0.7,1.9-1.3,2.4c-0.6,0.6-1.5,0.9-2.7,0.9c-0.7,0-1.4-0.1-1.9-0.4c-0.5-0.3-1-0.6-1.3-1.1
	s-0.6-1-0.7-1.6c-0.2-0.6-0.2-1.2-0.2-1.9c0-0.6,0.1-1.2,0.2-1.8c0.2-0.6,0.4-1.1,0.7-1.6s0.8-0.8,1.3-1.1c0.5-0.3,1.2-0.4,1.9-0.4
	c0.7,0,1.4,0.1,1.9,0.4c0.5,0.3,1,0.7,1.3,1.2c0.3,0.5,0.6,1,0.7,1.7c0.1,0.6,0.2,1.3,0.2,1.9h-7.1C154.5,9.5,154.5,9.9,154.7,10.3z
	 M160.3,6.9c-0.1-0.4-0.3-0.7-0.6-1.1c-0.3-0.3-0.6-0.6-0.9-0.7c-0.4-0.2-0.8-0.3-1.2-0.3c-0.5,0-0.9,0.1-1.2,0.3s-0.7,0.4-0.9,0.7
	c-0.3,0.3-0.5,0.7-0.6,1.1c-0.2,0.4-0.2,0.8-0.3,1.2h6C160.5,7.7,160.4,7.2,160.3,6.9z"/>
<path class="st1" d="M166.1,4.1v1.6h0c0.2-0.6,0.6-1,1.1-1.4c0.6-0.3,1.2-0.5,1.8-0.5c0.6,0,1.2,0.1,1.6,0.3
	c0.4,0.2,0.8,0.4,1.1,0.7c0.3,0.3,0.4,0.7,0.6,1.1c0.1,0.4,0.2,0.9,0.2,1.5v6h-1.1V7.6c0-0.4,0-0.8-0.1-1.1
	c-0.1-0.3-0.2-0.6-0.4-0.9c-0.2-0.3-0.4-0.4-0.7-0.6c-0.3-0.1-0.7-0.2-1.1-0.2c-0.5,0-0.9,0.1-1.2,0.2c-0.4,0.2-0.7,0.4-0.9,0.7
	c-0.2,0.3-0.4,0.6-0.6,1c-0.1,0.4-0.2,0.8-0.2,1.3v5.4h-1.1V4.1H166.1z"/>
<path class="st1" d="M183.4,5.5c0.2-0.4,0.5-0.7,0.8-1c0.3-0.3,0.7-0.4,1.2-0.6c0.4-0.1,0.9-0.2,1.5-0.2c0.4,0,0.8,0,1.2,0.1
	c0.4,0.1,0.8,0.2,1.1,0.4s0.6,0.5,0.8,0.9c0.2,0.4,0.3,0.9,0.3,1.5v4.9c0,0.5,0.2,0.7,0.7,0.7c0.1,0,0.3,0,0.4-0.1v1
	c-0.1,0-0.2,0-0.3,0.1c-0.1,0-0.2,0-0.4,0c-0.3,0-0.5,0-0.7-0.1s-0.3-0.2-0.4-0.3c-0.1-0.1-0.2-0.3-0.2-0.5c0-0.2,0-0.4,0-0.7h0
	c-0.2,0.3-0.4,0.6-0.6,0.8c-0.2,0.2-0.4,0.4-0.7,0.6c-0.3,0.2-0.6,0.3-0.9,0.4s-0.7,0.1-1.2,0.1c-0.4,0-0.8-0.1-1.2-0.2
	s-0.7-0.3-1-0.5s-0.5-0.5-0.7-0.8c-0.2-0.3-0.2-0.7-0.2-1.2c0-0.6,0.1-1.2,0.4-1.5s0.7-0.6,1.1-0.8c0.5-0.2,1-0.3,1.6-0.4
	c0.6-0.1,1.2-0.2,1.8-0.2c0.2,0,0.4-0.1,0.6-0.1c0.2,0,0.3-0.1,0.4-0.2c0.1-0.1,0.2-0.2,0.3-0.4c0.1-0.2,0.1-0.4,0.1-0.6
	c0-0.4-0.1-0.7-0.2-0.9c-0.1-0.2-0.3-0.4-0.5-0.6c-0.2-0.1-0.5-0.2-0.8-0.3c-0.3-0.1-0.6-0.1-0.9-0.1c-0.7,0-1.3,0.2-1.8,0.5
	c-0.5,0.3-0.7,0.9-0.7,1.6h-1.1C183.1,6.4,183.2,5.9,183.4,5.5z M189.1,8.3c-0.1,0.1-0.2,0.2-0.4,0.3c-0.2,0.1-0.4,0.1-0.5,0.1
	c-0.5,0.1-1,0.2-1.5,0.2c-0.5,0.1-1,0.2-1.4,0.3c-0.4,0.1-0.8,0.3-1,0.6c-0.3,0.2-0.4,0.6-0.4,1.1c0,0.3,0.1,0.5,0.2,0.8
	c0.1,0.2,0.3,0.4,0.5,0.6c0.2,0.2,0.4,0.3,0.7,0.4c0.3,0.1,0.5,0.1,0.8,0.1c0.4,0,0.8-0.1,1.2-0.2c0.4-0.1,0.7-0.3,1-0.6
	c0.3-0.3,0.5-0.6,0.7-0.9c0.2-0.4,0.3-0.8,0.3-1.2L189.1,8.3L189.1,8.3z"/>
<path class="st1" d="M195.4,4.1v1.6h0c0.2-0.6,0.6-1,1.1-1.4c0.6-0.3,1.2-0.5,1.8-0.5c0.6,0,1.2,0.1,1.6,0.3
	c0.4,0.2,0.8,0.4,1.1,0.7c0.3,0.3,0.4,0.7,0.6,1.1c0.1,0.4,0.2,0.9,0.2,1.5v6h-1.1V7.6c0-0.4,0-0.8-0.1-1.1
	c-0.1-0.3-0.2-0.6-0.4-0.9c-0.2-0.3-0.4-0.4-0.7-0.6c-0.3-0.1-0.7-0.2-1.1-0.2c-0.5,0-0.9,0.1-1.2,0.2c-0.4,0.2-0.7,0.4-0.9,0.7
	c-0.2,0.3-0.4,0.6-0.6,1c-0.1,0.4-0.2,0.8-0.2,1.3v5.4h-1.1V4.1H195.4z"/>
<path class="st1" d="M211.1,5.9c-0.1-0.3-0.3-0.5-0.5-0.6c-0.2-0.2-0.5-0.3-0.8-0.4s-0.6-0.1-0.9-0.1c-0.3,0-0.5,0-0.8,0.1
	s-0.5,0.1-0.7,0.3c-0.2,0.1-0.4,0.3-0.5,0.5c-0.1,0.2-0.2,0.5-0.2,0.8c0,0.3,0.1,0.5,0.2,0.6c0.1,0.2,0.3,0.3,0.5,0.4
	c0.2,0.1,0.4,0.2,0.6,0.3c0.2,0.1,0.4,0.1,0.6,0.2l1.5,0.3c0.3,0,0.6,0.1,1,0.3s0.6,0.3,0.8,0.5c0.2,0.2,0.4,0.5,0.6,0.8
	c0.2,0.3,0.2,0.7,0.2,1.1c0,0.5-0.1,0.9-0.3,1.3c-0.2,0.4-0.5,0.6-0.9,0.9s-0.8,0.4-1.2,0.5c-0.4,0.1-0.9,0.1-1.3,0.1
	c-1.1,0-2-0.3-2.6-0.8c-0.7-0.5-1.1-1.3-1.2-2.5h1.1c0,0.8,0.3,1.3,0.8,1.7c0.5,0.4,1.1,0.6,1.9,0.6c0.3,0,0.6,0,0.9-0.1
	c0.3-0.1,0.6-0.2,0.8-0.3c0.3-0.1,0.5-0.3,0.6-0.5c0.2-0.2,0.2-0.5,0.2-0.8c0-0.3-0.1-0.5-0.2-0.7c-0.1-0.2-0.3-0.3-0.5-0.5
	c-0.2-0.1-0.4-0.2-0.7-0.3c-0.2-0.1-0.5-0.2-0.7-0.2l-1.5-0.3c-0.4-0.1-0.7-0.2-1-0.3c-0.3-0.1-0.6-0.3-0.8-0.5
	c-0.2-0.2-0.4-0.4-0.5-0.7c-0.1-0.3-0.2-0.6-0.2-1c0-0.5,0.1-0.9,0.3-1.2c0.2-0.3,0.5-0.6,0.8-0.8c0.3-0.2,0.7-0.4,1.1-0.4
	s0.8-0.1,1.2-0.1c0.5,0,0.9,0.1,1.3,0.2c0.4,0.1,0.8,0.3,1.1,0.6c0.3,0.3,0.5,0.6,0.7,0.9s0.3,0.8,0.3,1.3h-1.1
	C211.3,6.5,211.2,6.2,211.1,5.9z"/>
<path class="st1" d="M217.3,0.5v1.8h-1.1V0.5H217.3z M217.3,4.1v9.3h-1.1V4.1H217.3z"/>
<path class="st1" d="M222.1,10.3c0.1,0.4,0.3,0.8,0.5,1.2c0.3,0.3,0.6,0.6,1,0.9c0.4,0.2,0.8,0.3,1.4,0.3c0.8,0,1.5-0.2,1.9-0.6
	c0.5-0.4,0.8-1,1-1.7h1.1c-0.2,1.1-0.7,1.9-1.3,2.4c-0.6,0.6-1.5,0.9-2.7,0.9c-0.7,0-1.4-0.1-1.9-0.4c-0.5-0.3-1-0.6-1.3-1.1
	s-0.6-1-0.7-1.6c-0.2-0.6-0.2-1.2-0.2-1.9c0-0.6,0.1-1.2,0.2-1.8c0.2-0.6,0.4-1.1,0.7-1.6s0.8-0.8,1.3-1.1c0.5-0.3,1.2-0.4,1.9-0.4
	c0.7,0,1.4,0.1,1.9,0.4c0.5,0.3,1,0.7,1.3,1.2c0.3,0.5,0.6,1,0.7,1.7c0.1,0.6,0.2,1.3,0.2,1.9H222C222,9.5,222,9.9,222.1,10.3z
	 M227.7,6.9c-0.1-0.4-0.3-0.7-0.6-1.1c-0.3-0.3-0.6-0.6-0.9-0.7c-0.4-0.2-0.8-0.3-1.2-0.3c-0.5,0-0.9,0.1-1.2,0.3s-0.7,0.4-0.9,0.7
	c-0.3,0.3-0.5,0.7-0.6,1.1c-0.2,0.4-0.2,0.8-0.3,1.2h6C227.9,7.7,227.9,7.2,227.7,6.9z"/>
<path class="st1" d="M239.5,13.4v-1.8h0c-0.1,0.3-0.3,0.6-0.5,0.8c-0.2,0.3-0.5,0.5-0.8,0.6c-0.3,0.2-0.6,0.3-1,0.4
	c-0.3,0.1-0.7,0.1-1,0.1c-0.7,0-1.3-0.1-1.8-0.4c-0.5-0.3-1-0.6-1.3-1.1c-0.3-0.4-0.6-1-0.8-1.6c-0.2-0.6-0.3-1.2-0.3-1.9
	s0.1-1.3,0.3-1.9c0.2-0.6,0.4-1.1,0.8-1.6c0.3-0.4,0.8-0.8,1.3-1.1c0.5-0.3,1.1-0.4,1.8-0.4c0.3,0,0.7,0,1,0.1
	c0.3,0.1,0.6,0.2,0.9,0.4c0.3,0.2,0.5,0.4,0.8,0.6c0.2,0.3,0.4,0.5,0.5,0.9h0V0.5h1.1v12.8H239.5z M233.3,10.2
	c0.1,0.5,0.3,0.9,0.5,1.3s0.6,0.7,0.9,0.9c0.4,0.2,0.8,0.3,1.4,0.3c0.6,0,1.1-0.1,1.5-0.3s0.7-0.5,1-0.9s0.4-0.8,0.6-1.3
	c0.1-0.5,0.2-0.9,0.2-1.4s-0.1-1-0.2-1.4c-0.1-0.5-0.3-0.9-0.6-1.3s-0.6-0.7-1-0.9s-0.9-0.4-1.5-0.4c-0.5,0-1,0.1-1.4,0.4
	c-0.4,0.2-0.7,0.5-0.9,0.9s-0.4,0.8-0.5,1.3c-0.1,0.5-0.2,0.9-0.2,1.4S233.2,9.7,233.3,10.2z"/>
<path class="st1" d="M244.7,5.5c0.2-0.4,0.5-0.7,0.8-1c0.3-0.3,0.7-0.4,1.2-0.6c0.4-0.1,0.9-0.2,1.5-0.2c0.4,0,0.8,0,1.2,0.1
	c0.4,0.1,0.8,0.2,1.1,0.4s0.6,0.5,0.8,0.9c0.2,0.4,0.3,0.9,0.3,1.5v4.9c0,0.5,0.2,0.7,0.7,0.7c0.1,0,0.3,0,0.4-0.1v1
	c-0.1,0-0.2,0-0.3,0.1c-0.1,0-0.2,0-0.4,0c-0.3,0-0.5,0-0.7-0.1s-0.3-0.2-0.4-0.3c-0.1-0.1-0.2-0.3-0.2-0.5c0-0.2,0-0.4,0-0.7h0
	c-0.2,0.3-0.4,0.6-0.6,0.8c-0.2,0.2-0.4,0.4-0.7,0.6c-0.3,0.2-0.6,0.3-0.9,0.4s-0.7,0.1-1.2,0.1c-0.4,0-0.8-0.1-1.2-0.2
	s-0.7-0.3-1-0.5s-0.5-0.5-0.7-0.8c-0.2-0.3-0.2-0.7-0.2-1.2c0-0.6,0.1-1.2,0.4-1.5s0.7-0.6,1.1-0.8c0.5-0.2,1-0.3,1.6-0.4
	c0.6-0.1,1.2-0.2,1.8-0.2c0.2,0,0.4-0.1,0.6-0.1c0.2,0,0.3-0.1,0.4-0.2c0.1-0.1,0.2-0.2,0.3-0.4c0.1-0.2,0.1-0.4,0.1-0.6
	c0-0.4-0.1-0.7-0.2-0.9c-0.1-0.2-0.3-0.4-0.5-0.6c-0.2-0.1-0.5-0.2-0.8-0.3c-0.3-0.1-0.6-0.1-0.9-0.1c-0.7,0-1.3,0.2-1.8,0.5
	c-0.5,0.3-0.7,0.9-0.7,1.6h-1.1C244.4,6.4,244.6,5.9,244.7,5.5z M250.4,8.3c-0.1,0.1-0.2,0.2-0.4,0.3c-0.2,0.1-0.4,0.1-0.5,0.1
	c-0.5,0.1-1,0.2-1.5,0.2c-0.5,0.1-1,0.2-1.4,0.3c-0.4,0.1-0.8,0.3-1,0.6c-0.3,0.2-0.4,0.6-0.4,1.1c0,0.3,0.1,0.5,0.2,0.8
	c0.1,0.2,0.3,0.4,0.5,0.6c0.2,0.2,0.4,0.3,0.7,0.4c0.3,0.1,0.5,0.1,0.8,0.1c0.4,0,0.8-0.1,1.2-0.2c0.4-0.1,0.7-0.3,1-0.6
	c0.3-0.3,0.5-0.6,0.7-0.9c0.2-0.4,0.3-0.8,0.3-1.2L250.4,8.3L250.4,8.3z"/>
<path class="st1" d="M262.7,13.4v-1.8h0c-0.1,0.3-0.3,0.6-0.5,0.8c-0.2,0.3-0.5,0.5-0.8,0.6c-0.3,0.2-0.6,0.3-1,0.4
	c-0.3,0.1-0.7,0.1-1,0.1c-0.7,0-1.3-0.1-1.8-0.4c-0.5-0.3-1-0.6-1.3-1.1c-0.3-0.4-0.6-1-0.8-1.6c-0.2-0.6-0.3-1.2-0.3-1.9
	s0.1-1.3,0.3-1.9c0.2-0.6,0.4-1.1,0.8-1.6c0.3-0.4,0.8-0.8,1.3-1.1c0.5-0.3,1.1-0.4,1.8-0.4c0.3,0,0.7,0,1,0.1
	c0.3,0.1,0.6,0.2,0.9,0.4c0.3,0.2,0.5,0.4,0.8,0.6c0.2,0.3,0.4,0.5,0.5,0.9h0V0.5h1.1v12.8H262.7z M256.5,10.2
	c0.1,0.5,0.3,0.9,0.5,1.3s0.6,0.7,0.9,0.9c0.4,0.2,0.8,0.3,1.4,0.3c0.6,0,1.1-0.1,1.5-0.3s0.7-0.5,1-0.9s0.4-0.8,0.6-1.3
	c0.1-0.5,0.2-0.9,0.2-1.4s-0.1-1-0.2-1.4c-0.1-0.5-0.3-0.9-0.6-1.3s-0.6-0.7-1-0.9s-0.9-0.4-1.5-0.4c-0.5,0-1,0.1-1.4,0.4
	c-0.4,0.2-0.7,0.5-0.9,0.9s-0.4,0.8-0.5,1.3c-0.1,0.5-0.2,0.9-0.2,1.4S256.4,9.7,256.5,10.2z"/>
<path class="st1" d="M269.9,13.4c0,0.3,0,0.5-0.1,0.8c-0.1,0.3-0.2,0.5-0.3,0.7s-0.3,0.4-0.5,0.6c-0.2,0.2-0.4,0.3-0.7,0.4V15
	c0.1,0,0.3-0.1,0.4-0.3c0.1-0.1,0.2-0.3,0.3-0.4c0.1-0.2,0.1-0.3,0.2-0.5c0-0.2,0-0.3,0-0.5h-0.8v-1.9h1.5V13.4z"/>
<path class="st1" d="M282.5,0.5v1.8h-1.1V0.5H282.5z M282.5,4.1v9.3h-1.1V4.1H282.5z"/>
<path class="st1" d="M287.5,4.1v2.2h0c0.3-0.8,0.7-1.3,1.3-1.7s1.3-0.6,2.2-0.6v1.1c-0.5,0-1,0-1.4,0.2c-0.4,0.2-0.8,0.4-1.1,0.7
	c-0.3,0.3-0.5,0.7-0.7,1.1c-0.2,0.4-0.3,0.9-0.3,1.4v4.9h-1.1V4.1H287.5z"/>
<path class="st1" d="M294.9,4.1v2.2h0c0.3-0.8,0.7-1.3,1.3-1.7s1.3-0.6,2.2-0.6v1.1c-0.5,0-1,0-1.4,0.2c-0.4,0.2-0.8,0.4-1.1,0.7
	c-0.3,0.3-0.5,0.7-0.7,1.1c-0.2,0.4-0.3,0.9-0.3,1.4v4.9h-1.1V4.1H294.9z"/>
<path class="st1" d="M302.5,0.5v1.8h-1.1V0.5H302.5z M302.5,4.1v9.3h-1.1V4.1H302.5z"/>
<path class="st1" d="M310.1,4.1v1h-1.9v6.3c0,0.4,0.1,0.7,0.2,0.9c0.1,0.2,0.4,0.3,0.8,0.4c0.3,0,0.6,0,1-0.1v1c-0.2,0-0.3,0-0.5,0
	c-0.2,0-0.3,0-0.5,0c-0.8,0-1.3-0.1-1.6-0.4c-0.3-0.3-0.4-0.8-0.4-1.6V5.1h-1.6v-1h1.6V1.3h1.1v2.8H310.1z"/>
<path class="st1" d="M313.8,5.5c0.2-0.4,0.5-0.7,0.8-1c0.3-0.3,0.7-0.4,1.2-0.6c0.4-0.1,0.9-0.2,1.5-0.2c0.4,0,0.8,0,1.2,0.1
	c0.4,0.1,0.8,0.2,1.1,0.4s0.6,0.5,0.8,0.9c0.2,0.4,0.3,0.9,0.3,1.5v4.9c0,0.5,0.2,0.7,0.7,0.7c0.1,0,0.3,0,0.4-0.1v1
	c-0.1,0-0.2,0-0.3,0.1c-0.1,0-0.2,0-0.4,0c-0.3,0-0.5,0-0.7-0.1s-0.3-0.2-0.4-0.3c-0.1-0.1-0.2-0.3-0.2-0.5c0-0.2,0-0.4,0-0.7h0
	c-0.2,0.3-0.4,0.6-0.6,0.8c-0.2,0.2-0.4,0.4-0.7,0.6c-0.3,0.2-0.6,0.3-0.9,0.4s-0.7,0.1-1.2,0.1c-0.4,0-0.8-0.1-1.2-0.2
	s-0.7-0.3-1-0.5s-0.5-0.5-0.7-0.8c-0.2-0.3-0.2-0.7-0.2-1.2c0-0.6,0.1-1.2,0.4-1.5s0.7-0.6,1.1-0.8c0.5-0.2,1-0.3,1.6-0.4
	c0.6-0.1,1.2-0.2,1.8-0.2c0.2,0,0.4-0.1,0.6-0.1c0.2,0,0.3-0.1,0.4-0.2c0.1-0.1,0.2-0.2,0.3-0.4c0.1-0.2,0.1-0.4,0.1-0.6
	c0-0.4-0.1-0.7-0.2-0.9c-0.1-0.2-0.3-0.4-0.5-0.6c-0.2-0.1-0.5-0.2-0.8-0.3c-0.3-0.1-0.6-0.1-0.9-0.1c-0.7,0-1.3,0.2-1.8,0.5
	c-0.5,0.3-0.7,0.9-0.7,1.6h-1.1C313.5,6.4,313.6,5.9,313.8,5.5z M319.5,8.3c-0.1,0.1-0.2,0.2-0.4,0.3c-0.2,0.1-0.4,0.1-0.5,0.1
	c-0.5,0.1-1,0.2-1.5,0.2c-0.5,0.1-1,0.2-1.4,0.3c-0.4,0.1-0.8,0.3-1,0.6c-0.3,0.2-0.4,0.6-0.4,1.1c0,0.3,0.1,0.5,0.2,0.8
	c0.1,0.2,0.3,0.4,0.5,0.6c0.2,0.2,0.4,0.3,0.7,0.4c0.3,0.1,0.5,0.1,0.8,0.1c0.4,0,0.8-0.1,1.2-0.2c0.4-0.1,0.7-0.3,1-0.6
	c0.3-0.3,0.5-0.6,0.7-0.9c0.2-0.4,0.3-0.8,0.3-1.2L319.5,8.3L319.5,8.3z"/>
<path class="st1" d="M325.8,0.5v5.3h0c0.1-0.3,0.3-0.6,0.5-0.9c0.2-0.3,0.5-0.5,0.8-0.6s0.6-0.3,0.9-0.4c0.3-0.1,0.7-0.1,1-0.1
	c0.7,0,1.3,0.1,1.8,0.4c0.5,0.3,1,0.6,1.3,1.1c0.3,0.4,0.6,1,0.8,1.6s0.3,1.2,0.3,1.9s-0.1,1.3-0.3,1.9s-0.4,1.1-0.8,1.6
	s-0.8,0.8-1.3,1.1c-0.5,0.3-1.1,0.4-1.8,0.4c-0.8,0-1.4-0.2-2-0.5c-0.6-0.3-1-0.8-1.3-1.5h0v1.8h-1V0.5H325.8z M331.9,7.3
	c-0.1-0.5-0.3-0.9-0.5-1.3s-0.6-0.7-0.9-0.9c-0.4-0.2-0.8-0.4-1.4-0.4c-0.6,0-1.1,0.1-1.5,0.4s-0.7,0.5-1,0.9s-0.4,0.8-0.6,1.3
	c-0.1,0.5-0.2,0.9-0.2,1.4s0.1,1,0.2,1.4c0.1,0.5,0.3,0.9,0.6,1.3s0.6,0.7,1,0.9s0.9,0.3,1.5,0.3c0.5,0,1-0.1,1.4-0.3
	c0.4-0.2,0.7-0.5,0.9-0.9s0.4-0.8,0.5-1.3c0.1-0.5,0.2-0.9,0.2-1.4S332.1,7.8,331.9,7.3z"/>
<path class="st1" d="M337.9,0.5v1.8h-1.1V0.5H337.9z M337.9,4.1v9.3h-1.1V4.1H337.9z"/>
<path class="st1" d="M343.1,0.5v12.8h-1.1V0.5H343.1z"/>
<path class="st1" d="M348.2,0.5v1.8h-1.1V0.5H348.2z M348.2,4.1v9.3h-1.1V4.1H348.2z"/>
<path class="st1" d="M359.3,13.4v-1.8h0c-0.1,0.3-0.3,0.6-0.5,0.8c-0.2,0.3-0.5,0.5-0.8,0.6c-0.3,0.2-0.6,0.3-1,0.4
	c-0.3,0.1-0.7,0.1-1,0.1c-0.7,0-1.3-0.1-1.8-0.4c-0.5-0.3-1-0.6-1.3-1.1c-0.3-0.4-0.6-1-0.8-1.6c-0.2-0.6-0.3-1.2-0.3-1.9
	s0.1-1.3,0.3-1.9c0.2-0.6,0.4-1.1,0.8-1.6c0.3-0.4,0.8-0.8,1.3-1.1c0.5-0.3,1.1-0.4,1.8-0.4c0.3,0,0.7,0,1,0.1
	c0.3,0.1,0.6,0.2,0.9,0.4c0.3,0.2,0.5,0.4,0.8,0.6c0.2,0.3,0.4,0.5,0.5,0.9h0V0.5h1.1v12.8H359.3z M353.1,10.2
	c0.1,0.5,0.3,0.9,0.5,1.3s0.6,0.7,0.9,0.9c0.4,0.2,0.8,0.3,1.4,0.3c0.6,0,1.1-0.1,1.5-0.3s0.7-0.5,1-0.9s0.4-0.8,0.6-1.3
	c0.1-0.5,0.2-0.9,0.2-1.4s-0.1-1-0.2-1.4c-0.1-0.5-0.3-0.9-0.6-1.3s-0.6-0.7-1-0.9s-0.9-0.4-1.5-0.4c-0.5,0-1,0.1-1.4,0.4
	c-0.4,0.2-0.7,0.5-0.9,0.9s-0.4,0.8-0.5,1.3c-0.1,0.5-0.2,0.9-0.2,1.4S353,9.7,353.1,10.2z"/>
<path class="st1" d="M364.5,5.5c0.2-0.4,0.5-0.7,0.8-1c0.3-0.3,0.7-0.4,1.2-0.6c0.4-0.1,0.9-0.2,1.5-0.2c0.4,0,0.8,0,1.2,0.1
	c0.4,0.1,0.8,0.2,1.1,0.4s0.6,0.5,0.8,0.9c0.2,0.4,0.3,0.9,0.3,1.5v4.9c0,0.5,0.2,0.7,0.7,0.7c0.1,0,0.3,0,0.4-0.1v1
	c-0.1,0-0.2,0-0.3,0.1c-0.1,0-0.2,0-0.4,0c-0.3,0-0.5,0-0.7-0.1s-0.3-0.2-0.4-0.3c-0.1-0.1-0.2-0.3-0.2-0.5c0-0.2,0-0.4,0-0.7h0
	c-0.2,0.3-0.4,0.6-0.6,0.8c-0.2,0.2-0.4,0.4-0.7,0.6c-0.3,0.2-0.6,0.3-0.9,0.4s-0.7,0.1-1.2,0.1c-0.4,0-0.8-0.1-1.2-0.2
	s-0.7-0.3-1-0.5s-0.5-0.5-0.7-0.8c-0.2-0.3-0.2-0.7-0.2-1.2c0-0.6,0.1-1.2,0.4-1.5s0.7-0.6,1.1-0.8c0.5-0.2,1-0.3,1.6-0.4
	c0.6-0.1,1.2-0.2,1.8-0.2c0.2,0,0.4-0.1,0.6-0.1c0.2,0,0.3-0.1,0.4-0.2c0.1-0.1,0.2-0.2,0.3-0.4c0.1-0.2,0.1-0.4,0.1-0.6
	c0-0.4-0.1-0.7-0.2-0.9c-0.1-0.2-0.3-0.4-0.5-0.6c-0.2-0.1-0.5-0.2-0.8-0.3c-0.3-0.1-0.6-0.1-0.9-0.1c-0.7,0-1.3,0.2-1.8,0.5
	c-0.5,0.3-0.7,0.9-0.7,1.6h-1.1C364.2,6.4,364.3,5.9,364.5,5.5z M370.2,8.3c-0.1,0.1-0.2,0.2-0.4,0.3c-0.2,0.1-0.4,0.1-0.5,0.1
	c-0.5,0.1-1,0.2-1.5,0.2c-0.5,0.1-1,0.2-1.4,0.3c-0.4,0.1-0.8,0.3-1,0.6c-0.3,0.2-0.4,0.6-0.4,1.1c0,0.3,0.1,0.5,0.2,0.8
	c0.1,0.2,0.3,0.4,0.5,0.6c0.2,0.2,0.4,0.3,0.7,0.4c0.3,0.1,0.5,0.1,0.8,0.1c0.4,0,0.8-0.1,1.2-0.2c0.4-0.1,0.7-0.3,1-0.6
	c0.3-0.3,0.5-0.6,0.7-0.9c0.2-0.4,0.3-0.8,0.3-1.2L370.2,8.3L370.2,8.3z"/>
<path class="st1" d="M382.5,13.4v-1.8h0c-0.1,0.3-0.3,0.6-0.5,0.8c-0.2,0.3-0.5,0.5-0.8,0.6c-0.3,0.2-0.6,0.3-1,0.4
	c-0.3,0.1-0.7,0.1-1,0.1c-0.7,0-1.3-0.1-1.8-0.4c-0.5-0.3-1-0.6-1.3-1.1c-0.3-0.4-0.6-1-0.8-1.6c-0.2-0.6-0.3-1.2-0.3-1.9
	s0.1-1.3,0.3-1.9c0.2-0.6,0.4-1.1,0.8-1.6c0.3-0.4,0.8-0.8,1.3-1.1c0.5-0.3,1.1-0.4,1.8-0.4c0.3,0,0.7,0,1,0.1
	c0.3,0.1,0.6,0.2,0.9,0.4c0.3,0.2,0.5,0.4,0.8,0.6c0.2,0.3,0.4,0.5,0.5,0.9h0V0.5h1.1v12.8H382.5z M376.3,10.2
	c0.1,0.5,0.3,0.9,0.5,1.3s0.6,0.7,0.9,0.9c0.4,0.2,0.8,0.3,1.4,0.3c0.6,0,1.1-0.1,1.5-0.3s0.7-0.5,1-0.9s0.4-0.8,0.6-1.3
	c0.1-0.5,0.2-0.9,0.2-1.4s-0.1-1-0.2-1.4c-0.1-0.5-0.3-0.9-0.6-1.3s-0.6-0.7-1-0.9s-0.9-0.4-1.5-0.4c-0.5,0-1,0.1-1.4,0.4
	c-0.4,0.2-0.7,0.5-0.9,0.9s-0.4,0.8-0.5,1.3c-0.1,0.5-0.2,0.9-0.2,1.4S376.2,9.7,376.3,10.2z"/>
<path class="st1" d="M394.4,4.1l3.1,7.9l2.9-7.9h1.1l-4,10.7c-0.2,0.4-0.3,0.7-0.5,1s-0.3,0.5-0.5,0.6c-0.2,0.1-0.4,0.3-0.6,0.3
	c-0.2,0.1-0.5,0.1-0.9,0.1c-0.2,0-0.4,0-0.5,0s-0.2,0-0.3-0.1v-1c0.1,0,0.3,0,0.4,0.1c0.1,0,0.3,0,0.4,0c0.3,0,0.5,0,0.6-0.1
	c0.2-0.1,0.3-0.2,0.4-0.3c0.1-0.1,0.2-0.3,0.3-0.5s0.2-0.4,0.3-0.6l0.4-1l-3.7-9.2H394.4z"/>
<path class="st1" d="M414.9,4.1v1H413v6.3c0,0.4,0.1,0.7,0.2,0.9c0.1,0.2,0.4,0.3,0.8,0.4c0.3,0,0.6,0,1-0.1v1c-0.2,0-0.3,0-0.5,0
	c-0.2,0-0.3,0-0.5,0c-0.8,0-1.3-0.1-1.6-0.4c-0.3-0.3-0.4-0.8-0.4-1.6V5.1h-1.6v-1h1.6V1.3h1.1v2.8H414.9z"/>
<path class="st1" d="M419.1,10.3c0.1,0.4,0.3,0.8,0.5,1.2c0.3,0.3,0.6,0.6,1,0.9c0.4,0.2,0.8,0.3,1.4,0.3c0.8,0,1.5-0.2,1.9-0.6
	c0.5-0.4,0.8-1,1-1.7h1.1c-0.2,1.1-0.7,1.9-1.3,2.4c-0.6,0.6-1.5,0.9-2.7,0.9c-0.7,0-1.4-0.1-1.9-0.4c-0.5-0.3-1-0.6-1.3-1.1
	s-0.6-1-0.7-1.6c-0.2-0.6-0.2-1.2-0.2-1.9c0-0.6,0.1-1.2,0.2-1.8c0.2-0.6,0.4-1.1,0.7-1.6s0.8-0.8,1.3-1.1c0.5-0.3,1.2-0.4,1.9-0.4
	c0.7,0,1.4,0.1,1.9,0.4c0.5,0.3,1,0.7,1.3,1.2c0.3,0.5,0.6,1,0.7,1.7c0.1,0.6,0.2,1.3,0.2,1.9H419C419,9.5,419,9.9,419.1,10.3z
	 M424.7,6.9c-0.1-0.4-0.3-0.7-0.6-1.1c-0.3-0.3-0.6-0.6-0.9-0.7c-0.4-0.2-0.8-0.3-1.2-0.3c-0.5,0-0.9,0.1-1.2,0.3s-0.7,0.4-0.9,0.7
	c-0.3,0.3-0.5,0.7-0.6,1.1c-0.2,0.4-0.2,0.8-0.3,1.2h6C424.9,7.7,424.9,7.2,424.7,6.9z"/>
<path class="st1" d="M430.5,4.1v1.6h0c0.2-0.6,0.6-1,1.1-1.4c0.6-0.3,1.2-0.5,1.8-0.5c0.6,0,1.2,0.1,1.6,0.3
	c0.4,0.2,0.8,0.4,1.1,0.7c0.3,0.3,0.4,0.7,0.6,1.1c0.1,0.4,0.2,0.9,0.2,1.5v6h-1.1V7.6c0-0.4,0-0.8-0.1-1.1
	c-0.1-0.3-0.2-0.6-0.4-0.9c-0.2-0.3-0.4-0.4-0.7-0.6c-0.3-0.1-0.7-0.2-1.1-0.2c-0.5,0-0.9,0.1-1.2,0.2c-0.4,0.2-0.7,0.4-0.9,0.7
	c-0.2,0.3-0.4,0.6-0.6,1c-0.1,0.4-0.2,0.8-0.2,1.3v5.4h-1.1V4.1H430.5z"/>
<path class="st1" d="M446.2,5.9c-0.1-0.3-0.3-0.5-0.5-0.6c-0.2-0.2-0.5-0.3-0.8-0.4s-0.6-0.1-0.9-0.1c-0.3,0-0.5,0-0.8,0.1
	s-0.5,0.1-0.7,0.3c-0.2,0.1-0.4,0.3-0.5,0.5c-0.1,0.2-0.2,0.5-0.2,0.8c0,0.3,0.1,0.5,0.2,0.6c0.1,0.2,0.3,0.3,0.5,0.4
	c0.2,0.1,0.4,0.2,0.6,0.3c0.2,0.1,0.4,0.1,0.6,0.2l1.5,0.3c0.3,0,0.6,0.1,1,0.3s0.6,0.3,0.8,0.5c0.2,0.2,0.4,0.5,0.6,0.8
	c0.2,0.3,0.2,0.7,0.2,1.1c0,0.5-0.1,0.9-0.3,1.3c-0.2,0.4-0.5,0.6-0.9,0.9s-0.8,0.4-1.2,0.5c-0.4,0.1-0.9,0.1-1.3,0.1
	c-1.1,0-2-0.3-2.6-0.8c-0.7-0.5-1.1-1.3-1.2-2.5h1.1c0,0.8,0.3,1.3,0.8,1.7c0.5,0.4,1.1,0.6,1.9,0.6c0.3,0,0.6,0,0.9-0.1
	c0.3-0.1,0.6-0.2,0.8-0.3c0.3-0.1,0.5-0.3,0.6-0.5c0.2-0.2,0.2-0.5,0.2-0.8c0-0.3-0.1-0.5-0.2-0.7c-0.1-0.2-0.3-0.3-0.5-0.5
	c-0.2-0.1-0.4-0.2-0.7-0.3c-0.2-0.1-0.5-0.2-0.7-0.2l-1.5-0.3c-0.4-0.1-0.7-0.2-1-0.3c-0.3-0.1-0.6-0.3-0.8-0.5
	c-0.2-0.2-0.4-0.4-0.5-0.7c-0.1-0.3-0.2-0.6-0.2-1c0-0.5,0.1-0.9,0.3-1.2c0.2-0.3,0.5-0.6,0.8-0.8c0.3-0.2,0.7-0.4,1.1-0.4
	s0.8-0.1,1.2-0.1c0.5,0,0.9,0.1,1.3,0.2c0.4,0.1,0.8,0.3,1.1,0.6c0.3,0.3,0.5,0.6,0.7,0.9s0.3,0.8,0.3,1.3h-1.1
	C446.4,6.5,446.3,6.2,446.2,5.9z"/>
<path class="st1" d="M452.4,0.5v1.8h-1.1V0.5H452.4z M452.4,4.1v9.3h-1.1V4.1H452.4z"/>
<path class="st1" d="M462.2,4.2c0.5,0.3,1,0.6,1.4,1.1c0.4,0.4,0.7,1,0.8,1.6c0.2,0.6,0.3,1.2,0.3,1.9s-0.1,1.3-0.3,1.9
	c-0.2,0.6-0.5,1.1-0.8,1.6c-0.4,0.4-0.8,0.8-1.4,1.1c-0.5,0.3-1.2,0.4-1.9,0.4c-0.7,0-1.3-0.1-1.9-0.4c-0.5-0.3-1-0.6-1.4-1.1
	c-0.4-0.4-0.7-1-0.8-1.6c-0.2-0.6-0.3-1.2-0.3-1.9s0.1-1.3,0.3-1.9c0.2-0.6,0.5-1.1,0.8-1.6c0.4-0.4,0.8-0.8,1.4-1.1
	c0.5-0.3,1.2-0.4,1.9-0.4C461,3.8,461.7,4,462.2,4.2z M458.9,5.1c-0.4,0.2-0.7,0.5-1,0.9s-0.5,0.8-0.6,1.3c-0.1,0.5-0.2,1-0.2,1.4
	s0.1,1,0.2,1.4c0.1,0.5,0.3,0.9,0.6,1.3s0.6,0.7,1,0.9s0.9,0.3,1.4,0.3s1-0.1,1.4-0.3s0.7-0.5,1-0.9c0.3-0.4,0.5-0.8,0.6-1.3
	c0.1-0.5,0.2-1,0.2-1.4s-0.1-1-0.2-1.4c-0.1-0.5-0.3-0.9-0.6-1.3c-0.3-0.4-0.6-0.7-1-0.9s-0.9-0.3-1.4-0.3S459.3,4.9,458.9,5.1z
	 M459.3,2.8l1.9-2.5h1.4l-2.4,2.5H459.3z"/>
<path class="st1" d="M469.3,4.1v1.6h0c0.2-0.6,0.6-1,1.1-1.4c0.6-0.3,1.2-0.5,1.8-0.5c0.6,0,1.2,0.1,1.6,0.3
	c0.4,0.2,0.8,0.4,1.1,0.7c0.3,0.3,0.4,0.7,0.6,1.1c0.1,0.4,0.2,0.9,0.2,1.5v6h-1.1V7.6c0-0.4,0-0.8-0.1-1.1
	c-0.1-0.3-0.2-0.6-0.4-0.9c-0.2-0.3-0.4-0.4-0.7-0.6c-0.3-0.1-0.7-0.2-1.1-0.2c-0.5,0-0.9,0.1-1.2,0.2c-0.4,0.2-0.7,0.4-0.9,0.7
	c-0.2,0.3-0.4,0.6-0.6,1c-0.1,0.4-0.2,0.8-0.2,1.3v5.4h-1.1V4.1H469.3z"/>
<path class="st1" d="M480.3,11.5h1.5v1.9h-1.5V11.5z"/>
<path class="st1" d="M487.1,1.4c0.2,0,0.4-0.1,0.6-0.2s0.3-0.2,0.4-0.4s0.2-0.4,0.2-0.8h0.5v7.3h-0.7V1.9h-1.9V1.5
	C486.6,1.5,486.9,1.5,487.1,1.4z"/>
<path class="st1" d="M496.4,0.4c0.3,0.2,0.6,0.5,0.8,0.9c0.2,0.4,0.3,0.8,0.4,1.2c0.1,0.4,0.1,0.9,0.1,1.3c0,0.4,0,0.9-0.1,1.3
	c-0.1,0.4-0.2,0.9-0.4,1.2c-0.2,0.4-0.4,0.7-0.8,0.9c-0.3,0.2-0.8,0.3-1.3,0.3c-0.5,0-1-0.1-1.3-0.3c-0.3-0.2-0.6-0.5-0.8-0.9
	c-0.2-0.4-0.3-0.8-0.4-1.2c-0.1-0.4-0.1-0.9-0.1-1.3c0-0.4,0-0.9,0.1-1.3c0.1-0.4,0.2-0.9,0.4-1.2c0.2-0.4,0.4-0.7,0.8-0.9
	c0.3-0.2,0.8-0.4,1.3-0.4C495.7,0,496.1,0.1,496.4,0.4z M494.1,0.9c-0.3,0.2-0.4,0.5-0.6,0.8s-0.2,0.7-0.3,1c0,0.4-0.1,0.7-0.1,1
	c0,0.3,0,0.7,0.1,1c0,0.4,0.1,0.7,0.3,1c0.1,0.3,0.3,0.6,0.6,0.8c0.3,0.2,0.6,0.3,1,0.3s0.8-0.1,1-0.3c0.3-0.2,0.4-0.5,0.6-0.8
	c0.1-0.3,0.2-0.7,0.3-1c0-0.4,0.1-0.7,0.1-1c0-0.3,0-0.7-0.1-1c0-0.4-0.1-0.7-0.3-1c-0.1-0.3-0.3-0.6-0.6-0.8
	c-0.3-0.2-0.6-0.3-1-0.3S494.4,0.7,494.1,0.9z"/>
</svg>
