<!-- Generator: Adobe Illustrator 20.1.0, SVG Export Plug-In  -->
<svg version="1.1"
	 xmlns="http://www.w3.org/2000/svg" xmlns:xlink="http://www.w3.org/1999/xlink" xmlns:a="http://ns.adobe.com/AdobeSVGViewerExtensions/3.0/"
	 x="0px" y="0px" width="449.4px" height="17.1px" viewBox="0 0 449.4 17.1"
	 style="overflow:scroll;enable-background:new 0 0 449.4 17.1;" xml:space="preserve">
<style type="text/css">
	.st0{opacity:0.9;fill:#F18A21;}
	.st1{opacity:0.8;fill:#333333;}
</style>
<defs>
</defs>
<path class="st0" d="M0,0.5h2.8v12.8H0V0.5z"/>
<path class="st0" d="M6.8,4.1h2.4v1.3h0.1c0.3-0.5,0.7-0.9,1.3-1.2c0.5-0.3,1-0.4,1.6-0.4c0.7,0,1.2,0.1,1.7,0.3s0.8,0.4,1,0.8
	c0.3,0.3,0.4,0.7,0.5,1.2s0.2,1,0.2,1.6v5.7H13V8.1c0-0.8-0.1-1.3-0.4-1.7C12.4,6,12,5.8,11.4,5.8c-0.7,0-1.2,0.2-1.5,0.6
	s-0.5,1.1-0.5,2v4.9H6.8V4.1z"/>
<path class="st0" d="M25.6,7.4c-0.2-1.1-0.8-1.6-1.9-1.6c-0.4,0-0.7,0.1-1,0.3S22.2,6.5,22,6.8c-0.2,0.3-0.3,0.6-0.4,1
	s-0.1,0.7-0.1,1s0,0.7,0.1,1c0.1,0.3,0.2,0.7,0.4,0.9c0.2,0.3,0.4,0.5,0.7,0.7s0.6,0.3,1,0.3c0.6,0,1.1-0.2,1.4-0.5
	c0.3-0.3,0.5-0.8,0.6-1.4h2.5c-0.2,1.2-0.6,2.2-1.4,2.8c-0.8,0.7-1.8,1-3,1c-0.7,0-1.3-0.1-1.9-0.3c-0.6-0.2-1.1-0.6-1.5-1
	c-0.4-0.4-0.7-0.9-1-1.5C19.1,10.2,19,9.6,19,8.9c0-0.7,0.1-1.4,0.3-2c0.2-0.6,0.5-1.1,0.9-1.6s0.9-0.8,1.5-1.1
	c0.6-0.3,1.3-0.4,2-0.4c0.5,0,1.1,0.1,1.6,0.2c0.5,0.1,1,0.4,1.4,0.7c0.4,0.3,0.7,0.7,1,1.1c0.3,0.4,0.4,1,0.4,1.5H25.6z"/>
<path class="st0" d="M31.4,4.1h2.4v1.7h0C34,5.5,34.1,5.3,34.3,5c0.2-0.2,0.4-0.5,0.7-0.6s0.5-0.3,0.9-0.4c0.3-0.1,0.6-0.1,0.9-0.1
	c0.2,0,0.4,0,0.6,0.1v2.4c-0.1,0-0.3,0-0.4-0.1c-0.2,0-0.3,0-0.5,0c-0.5,0-0.9,0.1-1.2,0.2c-0.3,0.2-0.6,0.4-0.8,0.6
	c-0.2,0.3-0.3,0.6-0.4,1c-0.1,0.4-0.1,0.8-0.1,1.2v4.2h-2.6V4.1z"/>
<path class="st0" d="M42.3,9.4c0,0.8,0.2,1.4,0.6,1.8c0.4,0.4,0.9,0.6,1.7,0.6c0.5,0,1-0.1,1.3-0.4c0.4-0.3,0.6-0.5,0.7-0.8h2.2
	c-0.4,1.1-0.9,1.9-1.7,2.4c-0.7,0.5-1.6,0.7-2.7,0.7c-0.7,0-1.4-0.1-2-0.4s-1.1-0.6-1.5-1c-0.4-0.4-0.7-0.9-0.9-1.5
	c-0.2-0.6-0.3-1.3-0.3-2c0-0.7,0.1-1.3,0.3-1.9c0.2-0.6,0.6-1.1,1-1.6c0.4-0.4,0.9-0.8,1.5-1c0.6-0.3,1.2-0.4,1.9-0.4
	c0.8,0,1.5,0.2,2.1,0.5C47.1,4.6,47.6,5,48,5.5s0.6,1.1,0.8,1.8C49,7.9,49,8.6,49,9.4H42.3z M46.4,7.7c-0.1-0.6-0.3-1.1-0.6-1.5
	S45,5.8,44.4,5.8c-0.4,0-0.7,0.1-1,0.2s-0.5,0.3-0.6,0.5c-0.2,0.2-0.3,0.4-0.3,0.6c-0.1,0.2-0.1,0.4-0.1,0.6H46.4z"/>
<path class="st0" d="M52.3,4.1h2.4v1.3h0c0.3-0.5,0.7-0.9,1.2-1.1c0.5-0.3,1-0.4,1.6-0.4c0.6,0,1.1,0.1,1.6,0.3
	c0.5,0.2,0.9,0.6,1.1,1.2C60.6,5,61,4.6,61.5,4.3s1-0.5,1.7-0.5c0.5,0,0.9,0.1,1.4,0.2c0.4,0.1,0.8,0.3,1.1,0.6
	c0.3,0.3,0.5,0.6,0.7,1c0.2,0.4,0.3,0.9,0.3,1.5v6.2H64V8.1c0-0.3,0-0.6,0-0.9c0-0.3-0.1-0.5-0.2-0.7c-0.1-0.2-0.3-0.4-0.5-0.5
	c-0.2-0.1-0.5-0.2-0.9-0.2s-0.6,0.1-0.9,0.2S61.1,6.4,61,6.6c-0.1,0.2-0.2,0.5-0.3,0.8c0,0.3-0.1,0.6-0.1,0.9v5.2h-2.6V8.2
	c0-0.3,0-0.5,0-0.8c0-0.3-0.1-0.5-0.2-0.8s-0.2-0.4-0.4-0.5c-0.2-0.1-0.5-0.2-0.9-0.2c-0.1,0-0.3,0-0.5,0.1
	c-0.2,0.1-0.4,0.2-0.6,0.3c-0.2,0.2-0.3,0.4-0.5,0.6S54.9,7.5,54.9,8v5.4h-2.6V4.1z"/>
<path class="st0" d="M72.4,9.4c0,0.8,0.2,1.4,0.6,1.8c0.4,0.4,0.9,0.6,1.7,0.6c0.5,0,1-0.1,1.3-0.4c0.4-0.3,0.6-0.5,0.7-0.8H79
	c-0.4,1.1-0.9,1.9-1.7,2.4c-0.7,0.5-1.6,0.7-2.7,0.7c-0.7,0-1.4-0.1-2-0.4s-1.1-0.6-1.5-1c-0.4-0.4-0.7-0.9-0.9-1.5
	c-0.2-0.6-0.3-1.3-0.3-2c0-0.7,0.1-1.3,0.3-1.9c0.2-0.6,0.6-1.1,1-1.6c0.4-0.4,0.9-0.8,1.5-1c0.6-0.3,1.2-0.4,1.9-0.4
	c0.8,0,1.5,0.2,2.1,0.5c0.6,0.3,1.1,0.7,1.4,1.2s0.6,1.1,0.8,1.8c0.2,0.7,0.2,1.3,0.2,2.1H72.4z M76.6,7.7c-0.1-0.6-0.3-1.1-0.6-1.5
	s-0.8-0.5-1.4-0.5c-0.4,0-0.7,0.1-1,0.2s-0.5,0.3-0.6,0.5c-0.2,0.2-0.3,0.4-0.3,0.6c-0.1,0.2-0.1,0.4-0.1,0.6H76.6z"/>
<path class="st0" d="M82.4,4.1h2.4v1.3h0.1c0.3-0.5,0.7-0.9,1.3-1.2c0.5-0.3,1-0.4,1.6-0.4c0.7,0,1.2,0.1,1.7,0.3s0.8,0.4,1,0.8
	c0.3,0.3,0.4,0.7,0.5,1.2s0.2,1,0.2,1.6v5.7h-2.6V8.1c0-0.8-0.1-1.3-0.4-1.7C88,6,87.6,5.8,87,5.8c-0.7,0-1.2,0.2-1.5,0.6
	S85,7.6,85,8.5v4.9h-2.6V4.1z"/>
<path class="st0" d="M98.1,4.1h1.9v1.7h-1.9v4.6c0,0.4,0.1,0.7,0.2,0.9c0.1,0.1,0.4,0.2,0.9,0.2c0.3,0,0.6,0,0.8-0.1v2
	c-0.2,0-0.5,0.1-0.7,0.1s-0.5,0-0.8,0c-0.4,0-0.8,0-1.1-0.1c-0.4-0.1-0.7-0.2-0.9-0.3c-0.3-0.2-0.5-0.4-0.6-0.7
	c-0.2-0.3-0.2-0.7-0.2-1.1V5.8H94V4.1h1.5V1.3h2.6V4.1z"/>
<path class="st0" d="M102.9,6.9c0-0.6,0.2-1.1,0.4-1.5c0.3-0.4,0.6-0.7,1-1c0.4-0.2,0.9-0.4,1.4-0.5s1-0.2,1.5-0.2
	c0.5,0,0.9,0,1.4,0.1c0.5,0.1,0.9,0.2,1.3,0.4c0.4,0.2,0.7,0.5,1,0.8c0.3,0.3,0.4,0.8,0.4,1.3v4.8c0,0.4,0,0.8,0.1,1.2
	c0,0.4,0.1,0.7,0.3,0.9h-2.6c0-0.1-0.1-0.3-0.1-0.4c0-0.1-0.1-0.3-0.1-0.5c-0.4,0.4-0.9,0.7-1.4,0.9c-0.6,0.2-1.1,0.3-1.7,0.3
	c-0.4,0-0.9-0.1-1.2-0.2c-0.4-0.1-0.7-0.3-1-0.5c-0.3-0.2-0.5-0.5-0.7-0.9c-0.2-0.3-0.2-0.8-0.2-1.2c0-0.5,0.1-1,0.3-1.3
	c0.2-0.3,0.4-0.6,0.7-0.8c0.3-0.2,0.6-0.4,1-0.5c0.4-0.1,0.8-0.2,1.2-0.2c0.4-0.1,0.8-0.1,1.1-0.1c0.4,0,0.7-0.1,1-0.2
	c0.3-0.1,0.5-0.2,0.7-0.3s0.3-0.3,0.3-0.6c0-0.3,0-0.5-0.1-0.7c-0.1-0.2-0.2-0.3-0.4-0.4c-0.2-0.1-0.3-0.1-0.5-0.2
	c-0.2,0-0.4,0-0.6,0c-0.5,0-0.9,0.1-1.2,0.3c-0.3,0.2-0.5,0.6-0.5,1.1H102.9z M108.8,8.8c-0.1,0.1-0.2,0.2-0.4,0.2
	c-0.2,0.1-0.3,0.1-0.5,0.1s-0.4,0.1-0.6,0.1c-0.2,0-0.4,0.1-0.6,0.1c-0.2,0-0.4,0.1-0.6,0.1s-0.3,0.1-0.5,0.2s-0.2,0.2-0.3,0.4
	c-0.1,0.2-0.1,0.4-0.1,0.6c0,0.2,0,0.4,0.1,0.6c0.1,0.2,0.2,0.3,0.3,0.4c0.1,0.1,0.3,0.2,0.5,0.2c0.2,0,0.4,0.1,0.6,0.1
	c0.5,0,0.9-0.1,1.2-0.3c0.3-0.2,0.5-0.4,0.6-0.6s0.2-0.5,0.2-0.7c0-0.2,0-0.4,0-0.6V8.8z"/>
<path class="st0" d="M122,0.5h2.6v12.8H122V0.5z"/>
<path class="st0" d="M128.2,6.9c0-0.6,0.2-1.1,0.4-1.5c0.3-0.4,0.6-0.7,1-1c0.4-0.2,0.9-0.4,1.4-0.5s1-0.2,1.5-0.2
	c0.5,0,0.9,0,1.4,0.1c0.5,0.1,0.9,0.2,1.3,0.4c0.4,0.2,0.7,0.5,1,0.8c0.3,0.3,0.4,0.8,0.4,1.3v4.8c0,0.4,0,0.8,0.1,1.2
	c0,0.4,0.1,0.7,0.3,0.9h-2.6c0-0.1-0.1-0.3-0.1-0.4c0-0.1-0.1-0.3-0.1-0.5c-0.4,0.4-0.9,0.7-1.4,0.9c-0.6,0.2-1.1,0.3-1.7,0.3
	c-0.4,0-0.9-0.1-1.2-0.2c-0.4-0.1-0.7-0.3-1-0.5c-0.3-0.2-0.5-0.5-0.7-0.9c-0.2-0.3-0.2-0.8-0.2-1.2c0-0.5,0.1-1,0.3-1.3
	c0.2-0.3,0.4-0.6,0.7-0.8c0.3-0.2,0.6-0.4,1-0.5c0.4-0.1,0.8-0.2,1.2-0.2c0.4-0.1,0.8-0.1,1.1-0.1c0.4,0,0.7-0.1,1-0.2
	c0.3-0.1,0.5-0.2,0.7-0.3s0.3-0.3,0.3-0.6c0-0.3,0-0.5-0.1-0.7c-0.1-0.2-0.2-0.3-0.4-0.4c-0.2-0.1-0.3-0.1-0.5-0.2
	c-0.2,0-0.4,0-0.6,0c-0.5,0-0.9,0.1-1.2,0.3c-0.3,0.2-0.5,0.6-0.5,1.1H128.2z M134.1,8.8c-0.1,0.1-0.2,0.2-0.4,0.2
	c-0.2,0.1-0.3,0.1-0.5,0.1s-0.4,0.1-0.6,0.1c-0.2,0-0.4,0.1-0.6,0.1c-0.2,0-0.4,0.1-0.6,0.1s-0.3,0.1-0.5,0.2s-0.2,0.2-0.3,0.4
	c-0.1,0.2-0.1,0.4-0.1,0.6c0,0.2,0,0.4,0.1,0.6c0.1,0.2,0.2,0.3,0.3,0.4c0.1,0.1,0.3,0.2,0.5,0.2c0.2,0,0.4,0.1,0.6,0.1
	c0.5,0,0.9-0.1,1.2-0.3c0.3-0.2,0.5-0.4,0.6-0.6s0.2-0.5,0.2-0.7c0-0.2,0-0.4,0-0.6V8.8z"/>
<path class="st0" d="M149.3,9.4c0,0.8,0.2,1.4,0.6,1.8c0.4,0.4,0.9,0.6,1.7,0.6c0.5,0,1-0.1,1.3-0.4c0.4-0.3,0.6-0.5,0.7-0.8h2.2
	c-0.4,1.1-0.9,1.9-1.7,2.4c-0.7,0.5-1.6,0.7-2.7,0.7c-0.7,0-1.4-0.1-2-0.4s-1.1-0.6-1.5-1c-0.4-0.4-0.7-0.9-0.9-1.5
	c-0.2-0.6-0.3-1.3-0.3-2c0-0.7,0.1-1.3,0.3-1.9c0.2-0.6,0.6-1.1,1-1.6c0.4-0.4,0.9-0.8,1.5-1c0.6-0.3,1.2-0.4,1.9-0.4
	c0.8,0,1.5,0.2,2.1,0.5c0.6,0.3,1.1,0.7,1.4,1.2s0.6,1.1,0.8,1.8c0.2,0.7,0.2,1.3,0.2,2.1H149.3z M153.5,7.7
	c-0.1-0.6-0.3-1.1-0.6-1.5s-0.8-0.5-1.4-0.5c-0.4,0-0.7,0.1-1,0.2s-0.5,0.3-0.6,0.5c-0.2,0.2-0.3,0.4-0.3,0.6
	c-0.1,0.2-0.1,0.4-0.1,0.6H153.5z"/>
<path class="st0" d="M159.3,4.1h2.4v1.3h0.1c0.3-0.5,0.7-0.9,1.3-1.2c0.5-0.3,1-0.4,1.6-0.4c0.7,0,1.2,0.1,1.7,0.3s0.8,0.4,1,0.8
	c0.3,0.3,0.4,0.7,0.5,1.2s0.2,1,0.2,1.6v5.7h-2.6V8.1c0-0.8-0.1-1.3-0.4-1.7c-0.2-0.4-0.7-0.6-1.3-0.6c-0.7,0-1.2,0.2-1.5,0.6
	s-0.5,1.1-0.5,2v4.9h-2.6V4.1z"/>
<path class="st0" d="M173.9,9.4c0,0.8,0.2,1.4,0.6,1.8c0.4,0.4,0.9,0.6,1.7,0.6c0.5,0,1-0.1,1.3-0.4c0.4-0.3,0.6-0.5,0.7-0.8h2.2
	c-0.4,1.1-0.9,1.9-1.7,2.4c-0.7,0.5-1.6,0.7-2.7,0.7c-0.7,0-1.4-0.1-2-0.4s-1.1-0.6-1.5-1c-0.4-0.4-0.7-0.9-0.9-1.5
	c-0.2-0.6-0.3-1.3-0.3-2c0-0.7,0.1-1.3,0.3-1.9c0.2-0.6,0.6-1.1,1-1.6c0.4-0.4,0.9-0.8,1.5-1c0.6-0.3,1.2-0.4,1.9-0.4
	c0.8,0,1.5,0.2,2.1,0.5c0.6,0.3,1.1,0.7,1.4,1.2s0.6,1.1,0.8,1.8c0.2,0.7,0.2,1.3,0.2,2.1H173.9z M178,7.7c-0.1-0.6-0.3-1.1-0.6-1.5
	s-0.8-0.5-1.4-0.5c-0.4,0-0.7,0.1-1,0.2s-0.5,0.3-0.6,0.5c-0.2,0.2-0.3,0.4-0.3,0.6c-0.1,0.2-0.1,0.4-0.1,0.6H178z"/>
<path class="st0" d="M183.9,4.1h2.4v1.7h0c0.1-0.3,0.3-0.6,0.5-0.8c0.2-0.2,0.4-0.5,0.7-0.6s0.5-0.3,0.9-0.4
	c0.3-0.1,0.6-0.1,0.9-0.1c0.2,0,0.4,0,0.6,0.1v2.4c-0.1,0-0.3,0-0.4-0.1c-0.2,0-0.3,0-0.5,0c-0.5,0-0.9,0.1-1.2,0.2
	c-0.3,0.2-0.6,0.4-0.8,0.6c-0.2,0.3-0.3,0.6-0.4,1c-0.1,0.4-0.1,0.8-0.1,1.2v4.2h-2.6V4.1z"/>
<path class="st0" d="M201.6,12.8c0,0.3,0,0.5-0.1,0.8c0,0.3-0.1,0.6-0.2,0.9c-0.1,0.3-0.3,0.6-0.5,0.9c-0.2,0.3-0.5,0.5-0.9,0.8
	s-0.8,0.4-1.3,0.5c-0.5,0.1-1.1,0.2-1.8,0.2c-0.5,0-0.9-0.1-1.4-0.2c-0.5-0.1-0.9-0.3-1.3-0.5c-0.4-0.2-0.7-0.5-1-0.9
	c-0.3-0.4-0.4-0.8-0.4-1.4h2.5c0.1,0.5,0.4,0.8,0.7,1c0.3,0.2,0.7,0.3,1.2,0.3c0.7,0,1.2-0.2,1.6-0.6c0.3-0.4,0.5-1,0.5-1.7v-1.2h0
	c-0.3,0.5-0.7,0.9-1.2,1.1c-0.5,0.2-1,0.4-1.6,0.4c-0.7,0-1.3-0.1-1.8-0.4c-0.5-0.2-0.9-0.6-1.2-1s-0.6-0.9-0.7-1.5
	c-0.2-0.6-0.2-1.2-0.2-1.8c0-0.6,0.1-1.2,0.3-1.7c0.2-0.6,0.4-1,0.8-1.5s0.8-0.8,1.2-1c0.5-0.3,1.1-0.4,1.7-0.4
	c0.6,0,1.1,0.1,1.6,0.3s0.8,0.6,1.2,1.1h0V4.1h2.4V12.8z M197,11.2c0.4,0,0.7-0.1,1-0.2c0.3-0.1,0.5-0.3,0.7-0.6s0.3-0.5,0.4-0.8
	c0.1-0.3,0.1-0.6,0.1-1c0-0.4,0-0.7-0.1-1.1c-0.1-0.3-0.2-0.7-0.4-0.9c-0.2-0.3-0.4-0.5-0.7-0.6s-0.6-0.2-1-0.2
	c-0.4,0-0.7,0.1-0.9,0.2c-0.3,0.1-0.5,0.3-0.6,0.6c-0.2,0.2-0.3,0.5-0.4,0.8s-0.1,0.6-0.1,1c0,0.3,0,0.7,0.1,1
	c0.1,0.3,0.2,0.6,0.3,0.9c0.2,0.3,0.4,0.5,0.6,0.6S196.6,11.2,197,11.2z"/>
<path class="st0" d="M207.2,2.9h-1.8l1.7-2.6h2.8L207.2,2.9z M205.5,4.1h2.6v9.3h-2.6V4.1z"/>
<path class="st0" d="M211.8,6.9c0-0.6,0.2-1.1,0.4-1.5c0.3-0.4,0.6-0.7,1-1c0.4-0.2,0.9-0.4,1.4-0.5s1-0.2,1.5-0.2
	c0.5,0,0.9,0,1.4,0.1c0.5,0.1,0.9,0.2,1.3,0.4c0.4,0.2,0.7,0.5,1,0.8c0.3,0.3,0.4,0.8,0.4,1.3v4.8c0,0.4,0,0.8,0.1,1.2
	c0,0.4,0.1,0.7,0.3,0.9h-2.6c0-0.1-0.1-0.3-0.1-0.4c0-0.1-0.1-0.3-0.1-0.5c-0.4,0.4-0.9,0.7-1.4,0.9c-0.6,0.2-1.1,0.3-1.7,0.3
	c-0.4,0-0.9-0.1-1.2-0.2c-0.4-0.1-0.7-0.3-1-0.5c-0.3-0.2-0.5-0.5-0.7-0.9c-0.2-0.3-0.2-0.8-0.2-1.2c0-0.5,0.1-1,0.3-1.3
	c0.2-0.3,0.4-0.6,0.7-0.8c0.3-0.2,0.6-0.4,1-0.5c0.4-0.1,0.8-0.2,1.2-0.2c0.4-0.1,0.8-0.1,1.1-0.1c0.4,0,0.7-0.1,1-0.2
	c0.3-0.1,0.5-0.2,0.7-0.3s0.3-0.3,0.3-0.6c0-0.3,0-0.5-0.1-0.7c-0.1-0.2-0.2-0.3-0.4-0.4c-0.2-0.1-0.3-0.1-0.5-0.2
	c-0.2,0-0.4,0-0.6,0c-0.5,0-0.9,0.1-1.2,0.3c-0.3,0.2-0.5,0.6-0.5,1.1H211.8z M217.7,8.8c-0.1,0.1-0.2,0.2-0.4,0.2
	c-0.2,0.1-0.3,0.1-0.5,0.1s-0.4,0.1-0.6,0.1c-0.2,0-0.4,0.1-0.6,0.1c-0.2,0-0.4,0.1-0.6,0.1s-0.3,0.1-0.5,0.2s-0.2,0.2-0.3,0.4
	c-0.1,0.2-0.1,0.4-0.1,0.6c0,0.2,0,0.4,0.1,0.6c0.1,0.2,0.2,0.3,0.3,0.4c0.1,0.1,0.3,0.2,0.5,0.2c0.2,0,0.4,0.1,0.6,0.1
	c0.5,0,0.9-0.1,1.2-0.3c0.3-0.2,0.5-0.4,0.6-0.6s0.2-0.5,0.2-0.7c0-0.2,0-0.4,0-0.6V8.8z"/>
<path class="st1" d="M231.7,10.3c0.1,0.4,0.3,0.8,0.5,1.2c0.3,0.3,0.6,0.6,1,0.9c0.4,0.2,0.8,0.3,1.4,0.3c0.8,0,1.5-0.2,1.9-0.6
	c0.5-0.4,0.8-1,1-1.7h1.1c-0.2,1.1-0.7,1.9-1.3,2.4c-0.6,0.6-1.5,0.9-2.7,0.9c-0.7,0-1.4-0.1-1.9-0.4c-0.5-0.3-1-0.6-1.3-1.1
	s-0.6-1-0.7-1.6c-0.2-0.6-0.2-1.2-0.2-1.9c0-0.6,0.1-1.2,0.2-1.8c0.2-0.6,0.4-1.1,0.7-1.6s0.8-0.8,1.3-1.1c0.5-0.3,1.2-0.4,1.9-0.4
	c0.7,0,1.4,0.1,1.9,0.4c0.5,0.3,1,0.7,1.3,1.2c0.3,0.5,0.6,1,0.7,1.7c0.1,0.6,0.2,1.3,0.2,1.9h-7.1C231.5,9.5,231.6,9.9,231.7,10.3z
	 M237.3,6.9c-0.1-0.4-0.3-0.7-0.6-1.1c-0.3-0.3-0.6-0.6-0.9-0.7c-0.4-0.2-0.8-0.3-1.2-0.3c-0.5,0-0.9,0.1-1.2,0.3s-0.7,0.4-0.9,0.7
	c-0.3,0.3-0.5,0.7-0.6,1.1c-0.2,0.4-0.2,0.8-0.3,1.2h6C237.5,7.7,237.5,7.2,237.3,6.9z"/>
<path class="st1" d="M243.1,4.1v1.6h0c0.2-0.6,0.6-1,1.1-1.4c0.6-0.3,1.2-0.5,1.8-0.5c0.6,0,1.2,0.1,1.6,0.3
	c0.4,0.2,0.8,0.4,1.1,0.7c0.3,0.3,0.4,0.7,0.6,1.1c0.1,0.4,0.2,0.9,0.2,1.5v6h-1.1V7.6c0-0.4,0-0.8-0.1-1.1
	c-0.1-0.3-0.2-0.6-0.4-0.9c-0.2-0.3-0.4-0.4-0.7-0.6c-0.3-0.1-0.7-0.2-1.1-0.2c-0.5,0-0.9,0.1-1.2,0.2c-0.4,0.2-0.7,0.4-0.9,0.7
	c-0.2,0.3-0.4,0.6-0.6,1c-0.1,0.4-0.2,0.8-0.2,1.3v5.4H242V4.1H243.1z"/>
<path class="st1" d="M262,5.1v8.3h-1.1V5.1h-1.6v-1h1.6V3.3c0-0.4,0-0.8,0.1-1.1c0.1-0.3,0.2-0.6,0.3-0.9c0.2-0.2,0.4-0.4,0.7-0.6
	c0.3-0.1,0.7-0.2,1.1-0.2c0.2,0,0.3,0,0.5,0c0.1,0,0.3,0,0.5,0.1v1c-0.2,0-0.3,0-0.4-0.1c-0.1,0-0.3,0-0.4,0c-0.3,0-0.6,0-0.7,0.1
	s-0.3,0.2-0.4,0.4C262,2.2,262,2.4,262,2.6c0,0.2,0,0.4,0,0.7v0.8h1.8v1H262z"/>
<path class="st1" d="M266.9,5.5c0.2-0.4,0.5-0.7,0.8-1c0.3-0.3,0.7-0.4,1.2-0.6c0.4-0.1,0.9-0.2,1.5-0.2c0.4,0,0.8,0,1.2,0.1
	c0.4,0.1,0.8,0.2,1.1,0.4s0.6,0.5,0.8,0.9c0.2,0.4,0.3,0.9,0.3,1.5v4.9c0,0.5,0.2,0.7,0.7,0.7c0.1,0,0.3,0,0.4-0.1v1
	c-0.1,0-0.2,0-0.3,0.1c-0.1,0-0.2,0-0.4,0c-0.3,0-0.5,0-0.7-0.1c-0.2-0.1-0.3-0.2-0.4-0.3s-0.2-0.3-0.2-0.5s0-0.4,0-0.7h0
	c-0.2,0.3-0.4,0.6-0.6,0.8c-0.2,0.2-0.4,0.4-0.7,0.6c-0.3,0.2-0.6,0.3-0.9,0.4c-0.3,0.1-0.7,0.1-1.2,0.1c-0.4,0-0.8-0.1-1.2-0.2
	s-0.7-0.3-1-0.5s-0.5-0.5-0.7-0.8c-0.2-0.3-0.2-0.7-0.2-1.2c0-0.6,0.1-1.2,0.4-1.5s0.7-0.6,1.1-0.8c0.5-0.2,1-0.3,1.6-0.4
	c0.6-0.1,1.2-0.2,1.8-0.2c0.2,0,0.4-0.1,0.6-0.1c0.2,0,0.3-0.1,0.4-0.2c0.1-0.1,0.2-0.2,0.3-0.4c0.1-0.2,0.1-0.4,0.1-0.6
	c0-0.4-0.1-0.7-0.2-0.9c-0.1-0.2-0.3-0.4-0.5-0.6c-0.2-0.1-0.5-0.2-0.8-0.3c-0.3-0.1-0.6-0.1-0.9-0.1c-0.7,0-1.3,0.2-1.8,0.5
	c-0.5,0.3-0.7,0.9-0.7,1.6h-1.1C266.6,6.4,266.7,5.9,266.9,5.5z M272.6,8.3c-0.1,0.1-0.2,0.2-0.4,0.3c-0.2,0.1-0.4,0.1-0.5,0.1
	c-0.5,0.1-1,0.2-1.5,0.2c-0.5,0.1-1,0.2-1.4,0.3c-0.4,0.1-0.8,0.3-1,0.6c-0.3,0.2-0.4,0.6-0.4,1.1c0,0.3,0.1,0.5,0.2,0.8
	c0.1,0.2,0.3,0.4,0.5,0.6c0.2,0.2,0.4,0.3,0.7,0.4c0.3,0.1,0.5,0.1,0.8,0.1c0.4,0,0.8-0.1,1.2-0.2c0.4-0.1,0.7-0.3,1-0.6
	c0.3-0.3,0.5-0.6,0.7-0.9c0.2-0.4,0.3-0.8,0.3-1.2L272.6,8.3L272.6,8.3z"/>
<path class="st1" d="M281.5,4.1v1h-1.9v6.3c0,0.4,0.1,0.7,0.2,0.9s0.4,0.3,0.8,0.4c0.3,0,0.6,0,1-0.1v1c-0.2,0-0.3,0-0.5,0
	c-0.2,0-0.3,0-0.5,0c-0.8,0-1.3-0.1-1.6-0.4c-0.3-0.3-0.4-0.8-0.4-1.6V5.1h-1.6v-1h1.6V1.3h1.1v2.8H281.5z"/>
<path class="st1" d="M286.1,0.5v1.8h-1.1V0.5H286.1z M286.1,4.1v9.3h-1.1V4.1H286.1z"/>
<path class="st1" d="M297.6,14.5c-0.2,0.6-0.4,1-0.7,1.4c-0.3,0.4-0.7,0.7-1.3,0.9c-0.5,0.2-1.2,0.3-1.9,0.3c-0.5,0-0.9-0.1-1.4-0.2
	s-0.8-0.3-1.2-0.5c-0.4-0.2-0.6-0.5-0.9-0.9c-0.2-0.4-0.4-0.8-0.4-1.3h1.1c0.1,0.3,0.2,0.6,0.3,0.9s0.4,0.4,0.6,0.6s0.5,0.2,0.8,0.3
	c0.3,0.1,0.6,0.1,0.9,0.1c1.1,0,1.8-0.3,2.3-0.9s0.7-1.5,0.7-2.6v-1.3h0c-0.3,0.6-0.6,1-1.2,1.4c-0.5,0.3-1.1,0.5-1.8,0.5
	c-0.7,0-1.4-0.1-1.9-0.4c-0.5-0.2-1-0.6-1.3-1c-0.3-0.4-0.6-0.9-0.7-1.5c-0.2-0.6-0.2-1.2-0.2-1.9c0-0.6,0.1-1.2,0.3-1.8
	c0.2-0.6,0.5-1.1,0.8-1.5s0.8-0.8,1.3-1c0.5-0.2,1.1-0.4,1.8-0.4c0.3,0,0.7,0,1,0.1c0.3,0.1,0.6,0.2,0.8,0.4
	c0.3,0.2,0.5,0.4,0.7,0.6c0.2,0.2,0.4,0.5,0.5,0.7h0V4.1h1.1v8.5C297.9,13.3,297.8,13.9,297.6,14.5z M295,12
	c0.4-0.2,0.7-0.5,0.9-0.8c0.3-0.3,0.4-0.7,0.6-1.2c0.1-0.4,0.2-0.9,0.2-1.4c0-0.5-0.1-0.9-0.2-1.4c-0.1-0.5-0.3-0.9-0.5-1.2
	s-0.5-0.7-0.9-0.9s-0.8-0.3-1.4-0.3s-1,0.1-1.4,0.3c-0.4,0.2-0.7,0.5-1,0.9c-0.3,0.4-0.4,0.8-0.5,1.2c-0.1,0.5-0.2,0.9-0.2,1.4
	c0,0.5,0.1,0.9,0.2,1.4c0.1,0.4,0.3,0.8,0.6,1.2c0.3,0.3,0.6,0.6,1,0.8c0.4,0.2,0.8,0.3,1.4,0.3C294.2,12.3,294.7,12.2,295,12z"/>
<path class="st1" d="M302,5.5c0.2-0.4,0.5-0.7,0.8-1c0.3-0.3,0.7-0.4,1.2-0.6c0.4-0.1,0.9-0.2,1.5-0.2c0.4,0,0.8,0,1.2,0.1
	c0.4,0.1,0.8,0.2,1.1,0.4s0.6,0.5,0.8,0.9c0.2,0.4,0.3,0.9,0.3,1.5v4.9c0,0.5,0.2,0.7,0.7,0.7c0.1,0,0.3,0,0.4-0.1v1
	c-0.1,0-0.2,0-0.3,0.1c-0.1,0-0.2,0-0.4,0c-0.3,0-0.5,0-0.7-0.1c-0.2-0.1-0.3-0.2-0.4-0.3s-0.2-0.3-0.2-0.5s0-0.4,0-0.7h0
	c-0.2,0.3-0.4,0.6-0.6,0.8c-0.2,0.2-0.4,0.4-0.7,0.6c-0.3,0.2-0.6,0.3-0.9,0.4c-0.3,0.1-0.7,0.1-1.2,0.1c-0.4,0-0.8-0.1-1.2-0.2
	s-0.7-0.3-1-0.5s-0.5-0.5-0.7-0.8c-0.2-0.3-0.2-0.7-0.2-1.2c0-0.6,0.1-1.2,0.4-1.5s0.7-0.6,1.1-0.8c0.5-0.2,1-0.3,1.6-0.4
	c0.6-0.1,1.2-0.2,1.8-0.2c0.2,0,0.4-0.1,0.6-0.1c0.2,0,0.3-0.1,0.4-0.2c0.1-0.1,0.2-0.2,0.3-0.4c0.1-0.2,0.1-0.4,0.1-0.6
	c0-0.4-0.1-0.7-0.2-0.9c-0.1-0.2-0.3-0.4-0.5-0.6c-0.2-0.1-0.5-0.2-0.8-0.3c-0.3-0.1-0.6-0.1-0.9-0.1c-0.7,0-1.3,0.2-1.8,0.5
	c-0.5,0.3-0.7,0.9-0.7,1.6h-1.1C301.7,6.4,301.9,5.9,302,5.5z M307.7,8.3c-0.1,0.1-0.2,0.2-0.4,0.3c-0.2,0.1-0.4,0.1-0.5,0.1
	c-0.5,0.1-1,0.2-1.5,0.2c-0.5,0.1-1,0.2-1.4,0.3c-0.4,0.1-0.8,0.3-1,0.6c-0.3,0.2-0.4,0.6-0.4,1.1c0,0.3,0.1,0.5,0.2,0.8
	c0.1,0.2,0.3,0.4,0.5,0.6c0.2,0.2,0.4,0.3,0.7,0.4c0.3,0.1,0.5,0.1,0.8,0.1c0.4,0,0.8-0.1,1.2-0.2c0.4-0.1,0.7-0.3,1-0.6
	c0.3-0.3,0.5-0.6,0.7-0.9c0.2-0.4,0.3-0.8,0.3-1.2L307.7,8.3L307.7,8.3z"/>
<path class="st1" d="M319.9,4.1l3.1,7.9l2.9-7.9h1.1l-4,10.7c-0.2,0.4-0.3,0.7-0.5,1s-0.3,0.5-0.5,0.6c-0.2,0.2-0.4,0.3-0.6,0.3
	c-0.2,0.1-0.5,0.1-0.9,0.1c-0.2,0-0.4,0-0.5,0s-0.2,0-0.3-0.1v-1c0.1,0,0.3,0,0.4,0.1c0.1,0,0.3,0,0.4,0c0.3,0,0.5,0,0.6-0.1
	c0.2-0.1,0.3-0.2,0.4-0.3c0.1-0.1,0.2-0.3,0.3-0.5s0.2-0.4,0.3-0.6l0.4-1l-3.7-9.2H319.9z"/>
<path class="st1" d="M342.3,5.4c-0.4-0.4-1-0.6-1.8-0.6c-0.5,0-1,0.1-1.4,0.3s-0.7,0.5-1,0.9s-0.5,0.8-0.6,1.3
	c-0.1,0.5-0.2,1-0.2,1.4s0.1,1,0.2,1.4c0.1,0.5,0.3,0.9,0.6,1.3s0.6,0.7,1,0.9s0.9,0.3,1.4,0.3c0.3,0,0.7-0.1,1-0.2s0.6-0.3,0.8-0.5
	c0.2-0.2,0.4-0.5,0.6-0.8c0.2-0.3,0.3-0.7,0.3-1.1h1.1c-0.2,1.1-0.6,2-1.2,2.6c-0.7,0.6-1.5,0.9-2.6,0.9c-0.7,0-1.3-0.1-1.9-0.4
	c-0.5-0.3-1-0.6-1.4-1.1s-0.7-1-0.8-1.6c-0.2-0.6-0.3-1.2-0.3-1.9s0.1-1.3,0.3-1.9c0.2-0.6,0.5-1.1,0.8-1.6c0.4-0.4,0.8-0.8,1.4-1.1
	c0.5-0.3,1.2-0.4,1.9-0.4c1,0,1.8,0.3,2.5,0.8c0.7,0.5,1.1,1.3,1.2,2.4h-1.1C343,6.3,342.7,5.8,342.3,5.4z"/>
<path class="st1" d="M348,5.5c0.2-0.4,0.5-0.7,0.8-1c0.3-0.3,0.7-0.4,1.2-0.6c0.4-0.1,0.9-0.2,1.5-0.2c0.4,0,0.8,0,1.2,0.1
	c0.4,0.1,0.8,0.2,1.1,0.4s0.6,0.5,0.8,0.9c0.2,0.4,0.3,0.9,0.3,1.5v4.9c0,0.5,0.2,0.7,0.7,0.7c0.1,0,0.3,0,0.4-0.1v1
	c-0.1,0-0.2,0-0.3,0.1c-0.1,0-0.2,0-0.4,0c-0.3,0-0.5,0-0.7-0.1c-0.2-0.1-0.3-0.2-0.4-0.3s-0.2-0.3-0.2-0.5s0-0.4,0-0.7h0
	c-0.2,0.3-0.4,0.6-0.6,0.8c-0.2,0.2-0.4,0.4-0.7,0.6c-0.3,0.2-0.6,0.3-0.9,0.4c-0.3,0.1-0.7,0.1-1.2,0.1c-0.4,0-0.8-0.1-1.2-0.2
	s-0.7-0.3-1-0.5s-0.5-0.5-0.7-0.8c-0.2-0.3-0.2-0.7-0.2-1.2c0-0.6,0.1-1.2,0.4-1.5s0.7-0.6,1.1-0.8c0.5-0.2,1-0.3,1.6-0.4
	c0.6-0.1,1.2-0.2,1.8-0.2c0.2,0,0.4-0.1,0.6-0.1c0.2,0,0.3-0.1,0.4-0.2c0.1-0.1,0.2-0.2,0.3-0.4c0.1-0.2,0.1-0.4,0.1-0.6
	c0-0.4-0.1-0.7-0.2-0.9c-0.1-0.2-0.3-0.4-0.5-0.6c-0.2-0.1-0.5-0.2-0.8-0.3c-0.3-0.1-0.6-0.1-0.9-0.1c-0.7,0-1.3,0.2-1.8,0.5
	c-0.5,0.3-0.7,0.9-0.7,1.6h-1.1C347.7,6.4,347.8,5.9,348,5.5z M353.6,8.3c-0.1,0.1-0.2,0.2-0.4,0.3c-0.2,0.1-0.4,0.1-0.5,0.1
	c-0.5,0.1-1,0.2-1.5,0.2c-0.5,0.1-1,0.2-1.4,0.3c-0.4,0.1-0.8,0.3-1,0.6c-0.3,0.2-0.4,0.6-0.4,1.1c0,0.3,0.1,0.5,0.2,0.8
	c0.1,0.2,0.3,0.4,0.5,0.6c0.2,0.2,0.4,0.3,0.7,0.4c0.3,0.1,0.5,0.1,0.8,0.1c0.4,0,0.8-0.1,1.2-0.2c0.4-0.1,0.7-0.3,1-0.6
	c0.3-0.3,0.5-0.6,0.7-0.9c0.2-0.4,0.3-0.8,0.3-1.2L353.6,8.3L353.6,8.3z"/>
<path class="st1" d="M360,4.1v1.6h0c0.2-0.6,0.6-1,1.1-1.4c0.6-0.3,1.2-0.5,1.8-0.5c0.6,0,1.2,0.1,1.6,0.3c0.4,0.2,0.8,0.4,1.1,0.7
	c0.3,0.3,0.4,0.7,0.6,1.1c0.1,0.4,0.2,0.9,0.2,1.5v6h-1.1V7.6c0-0.4,0-0.8-0.1-1.1c-0.1-0.3-0.2-0.6-0.4-0.9
	c-0.2-0.3-0.4-0.4-0.7-0.6c-0.3-0.1-0.7-0.2-1.1-0.2c-0.5,0-0.9,0.1-1.2,0.2c-0.4,0.2-0.7,0.4-0.9,0.7c-0.2,0.3-0.4,0.6-0.6,1
	C360.1,7.1,360,7.5,360,8v5.4h-1.1V4.1H360z"/>
<path class="st1" d="M375.6,5.9c-0.1-0.3-0.3-0.5-0.5-0.6c-0.2-0.2-0.5-0.3-0.8-0.4s-0.6-0.1-0.9-0.1c-0.3,0-0.5,0-0.8,0.1
	S372.2,5,372,5.1c-0.2,0.1-0.4,0.3-0.5,0.5c-0.1,0.2-0.2,0.5-0.2,0.8c0,0.3,0.1,0.5,0.2,0.6c0.1,0.2,0.3,0.3,0.5,0.4
	c0.2,0.1,0.4,0.2,0.6,0.3c0.2,0.1,0.4,0.1,0.6,0.2l1.5,0.3c0.3,0,0.6,0.1,1,0.3s0.6,0.3,0.8,0.5c0.2,0.2,0.4,0.5,0.6,0.8
	c0.2,0.3,0.2,0.7,0.2,1.1c0,0.5-0.1,0.9-0.3,1.3s-0.5,0.6-0.9,0.9s-0.8,0.4-1.2,0.5s-0.9,0.1-1.3,0.1c-1.1,0-2-0.3-2.6-0.8
	c-0.7-0.5-1.1-1.3-1.2-2.5h1.1c0,0.8,0.3,1.3,0.8,1.7c0.5,0.4,1.1,0.6,1.9,0.6c0.3,0,0.6,0,0.9-0.1c0.3-0.1,0.6-0.2,0.8-0.3
	c0.3-0.1,0.5-0.3,0.6-0.5c0.2-0.2,0.2-0.5,0.2-0.8c0-0.3-0.1-0.5-0.2-0.7c-0.1-0.2-0.3-0.3-0.5-0.5c-0.2-0.1-0.4-0.2-0.7-0.3
	c-0.2-0.1-0.5-0.2-0.7-0.2l-1.5-0.3c-0.4-0.1-0.7-0.2-1-0.3c-0.3-0.1-0.6-0.3-0.8-0.5c-0.2-0.2-0.4-0.4-0.5-0.7
	c-0.1-0.3-0.2-0.6-0.2-1c0-0.5,0.1-0.9,0.3-1.2c0.2-0.3,0.5-0.6,0.8-0.8c0.3-0.2,0.7-0.4,1.1-0.4s0.8-0.1,1.2-0.1
	c0.5,0,0.9,0.1,1.3,0.2c0.4,0.1,0.8,0.3,1.1,0.6c0.3,0.3,0.5,0.6,0.7,0.9s0.3,0.8,0.3,1.3h-1.1C375.8,6.5,375.8,6.2,375.6,5.9z"/>
<path class="st1" d="M381,5.5c0.2-0.4,0.5-0.7,0.8-1c0.3-0.3,0.7-0.4,1.2-0.6c0.4-0.1,0.9-0.2,1.5-0.2c0.4,0,0.8,0,1.2,0.1
	c0.4,0.1,0.8,0.2,1.1,0.4s0.6,0.5,0.8,0.9c0.2,0.4,0.3,0.9,0.3,1.5v4.9c0,0.5,0.2,0.7,0.7,0.7c0.1,0,0.3,0,0.4-0.1v1
	c-0.1,0-0.2,0-0.3,0.1c-0.1,0-0.2,0-0.4,0c-0.3,0-0.5,0-0.7-0.1c-0.2-0.1-0.3-0.2-0.4-0.3s-0.2-0.3-0.2-0.5s0-0.4,0-0.7h0
	c-0.2,0.3-0.4,0.6-0.6,0.8c-0.2,0.2-0.4,0.4-0.7,0.6c-0.3,0.2-0.6,0.3-0.9,0.4c-0.3,0.1-0.7,0.1-1.2,0.1c-0.4,0-0.8-0.1-1.2-0.2
	s-0.7-0.3-1-0.5s-0.5-0.5-0.7-0.8c-0.2-0.3-0.2-0.7-0.2-1.2c0-0.6,0.1-1.2,0.4-1.5s0.7-0.6,1.1-0.8c0.5-0.2,1-0.3,1.6-0.4
	c0.6-0.1,1.2-0.2,1.8-0.2c0.2,0,0.4-0.1,0.6-0.1c0.2,0,0.3-0.1,0.4-0.2c0.1-0.1,0.2-0.2,0.3-0.4c0.1-0.2,0.1-0.4,0.1-0.6
	c0-0.4-0.1-0.7-0.2-0.9c-0.1-0.2-0.3-0.4-0.5-0.6c-0.2-0.1-0.5-0.2-0.8-0.3c-0.3-0.1-0.6-0.1-0.9-0.1c-0.7,0-1.3,0.2-1.8,0.5
	c-0.5,0.3-0.7,0.9-0.7,1.6h-1.1C380.7,6.4,380.8,5.9,381,5.5z M386.6,8.3c-0.1,0.1-0.2,0.2-0.4,0.3c-0.2,0.1-0.4,0.1-0.5,0.1
	c-0.5,0.1-1,0.2-1.5,0.2c-0.5,0.1-1,0.2-1.4,0.3c-0.4,0.1-0.8,0.3-1,0.6c-0.3,0.2-0.4,0.6-0.4,1.1c0,0.3,0.1,0.5,0.2,0.8
	c0.1,0.2,0.3,0.4,0.5,0.6c0.2,0.2,0.4,0.3,0.7,0.4c0.3,0.1,0.5,0.1,0.8,0.1c0.4,0,0.8-0.1,1.2-0.2c0.4-0.1,0.7-0.3,1-0.6
	c0.3-0.3,0.5-0.6,0.7-0.9c0.2-0.4,0.3-0.8,0.3-1.2L386.6,8.3L386.6,8.3z"/>
<path class="st1" d="M393,4.1v1.6h0c0.2-0.6,0.6-1,1.1-1.4c0.6-0.3,1.2-0.5,1.8-0.5c0.6,0,1.2,0.1,1.6,0.3c0.4,0.2,0.8,0.4,1.1,0.7
	c0.3,0.3,0.4,0.7,0.6,1.1c0.1,0.4,0.2,0.9,0.2,1.5v6h-1.1V7.6c0-0.4,0-0.8-0.1-1.1c-0.1-0.3-0.2-0.6-0.4-0.9
	c-0.2-0.3-0.4-0.4-0.7-0.6c-0.3-0.1-0.7-0.2-1.1-0.2c-0.5,0-0.9,0.1-1.2,0.2c-0.4,0.2-0.7,0.4-0.9,0.7c-0.2,0.3-0.4,0.6-0.6,1
	C393.1,7.1,393,7.5,393,8v5.4h-1.1V4.1H393z"/>
<path class="st1" d="M409,5.4c-0.4-0.4-1-0.6-1.8-0.6c-0.5,0-1,0.1-1.4,0.3s-0.7,0.5-1,0.9s-0.5,0.8-0.6,1.3c-0.1,0.5-0.2,1-0.2,1.4
	s0.1,1,0.2,1.4c0.1,0.5,0.3,0.9,0.6,1.3s0.6,0.7,1,0.9s0.9,0.3,1.4,0.3c0.3,0,0.7-0.1,1-0.2s0.6-0.3,0.8-0.5
	c0.2-0.2,0.4-0.5,0.6-0.8c0.2-0.3,0.3-0.7,0.3-1.1h1.1c-0.2,1.1-0.6,2-1.2,2.6c-0.7,0.6-1.5,0.9-2.6,0.9c-0.7,0-1.3-0.1-1.9-0.4
	c-0.5-0.3-1-0.6-1.4-1.1s-0.7-1-0.8-1.6c-0.2-0.6-0.3-1.2-0.3-1.9s0.1-1.3,0.3-1.9c0.2-0.6,0.5-1.1,0.8-1.6c0.4-0.4,0.8-0.8,1.4-1.1
	c0.5-0.3,1.2-0.4,1.9-0.4c1,0,1.8,0.3,2.5,0.8c0.7,0.5,1.1,1.3,1.2,2.4h-1.1C409.7,6.3,409.4,5.8,409,5.4z"/>
<path class="st1" d="M415.6,0.5v1.8h-1.1V0.5H415.6z M415.6,4.1v9.3h-1.1V4.1H415.6z"/>
<path class="st1" d="M425.3,4.2c0.5,0.3,1,0.6,1.4,1.1c0.4,0.4,0.7,1,0.8,1.6c0.2,0.6,0.3,1.2,0.3,1.9s-0.1,1.3-0.3,1.9
	c-0.2,0.6-0.5,1.1-0.8,1.6s-0.8,0.8-1.4,1.1c-0.5,0.3-1.2,0.4-1.9,0.4c-0.7,0-1.3-0.1-1.9-0.4c-0.5-0.3-1-0.6-1.4-1.1
	s-0.7-1-0.8-1.6c-0.2-0.6-0.3-1.2-0.3-1.9s0.1-1.3,0.3-1.9c0.2-0.6,0.5-1.1,0.8-1.6c0.4-0.4,0.8-0.8,1.4-1.1
	c0.5-0.3,1.2-0.4,1.9-0.4C424.2,3.8,424.8,4,425.3,4.2z M422,5.1c-0.4,0.2-0.7,0.5-1,0.9s-0.5,0.8-0.6,1.3c-0.1,0.5-0.2,1-0.2,1.4
	s0.1,1,0.2,1.4c0.1,0.5,0.3,0.9,0.6,1.3s0.6,0.7,1,0.9s0.9,0.3,1.4,0.3s1-0.1,1.4-0.3s0.7-0.5,1-0.9c0.3-0.4,0.5-0.8,0.6-1.3
	c0.1-0.5,0.2-1,0.2-1.4s-0.1-1-0.2-1.4c-0.1-0.5-0.3-0.9-0.6-1.3c-0.3-0.4-0.6-0.7-1-0.9s-0.9-0.3-1.4-0.3S422.4,4.9,422,5.1z"/>
<path class="st1" d="M432,11.5h1.5v1.9H432V11.5z"/>
<path class="st1" d="M438.8,1.4c0.2,0,0.4-0.1,0.6-0.2s0.3-0.2,0.4-0.4s0.2-0.4,0.2-0.8h0.5v7.3H440V1.9H438V1.5
	C438.3,1.5,438.6,1.5,438.8,1.4z"/>
<path class="st1" d="M448.1,0.4c0.3,0.2,0.6,0.5,0.8,0.9c0.2,0.4,0.3,0.8,0.4,1.2c0.1,0.4,0.1,0.9,0.1,1.3c0,0.4,0,0.9-0.1,1.3
	c-0.1,0.4-0.2,0.9-0.4,1.2c-0.2,0.4-0.4,0.7-0.8,0.9c-0.3,0.2-0.8,0.3-1.3,0.3c-0.5,0-1-0.1-1.3-0.3c-0.3-0.2-0.6-0.5-0.8-0.9
	c-0.2-0.4-0.3-0.8-0.4-1.2c-0.1-0.4-0.1-0.9-0.1-1.3c0-0.4,0-0.9,0.1-1.3c0.1-0.4,0.2-0.9,0.4-1.2c0.2-0.4,0.4-0.7,0.8-0.9
	c0.3-0.2,0.8-0.4,1.3-0.4C447.3,0,447.8,0.1,448.1,0.4z M445.8,0.9c-0.3,0.2-0.4,0.5-0.6,0.8s-0.2,0.7-0.3,1c0,0.4-0.1,0.7-0.1,1
	c0,0.3,0,0.7,0.1,1c0,0.4,0.1,0.7,0.3,1c0.1,0.3,0.3,0.6,0.6,0.8c0.3,0.2,0.6,0.3,1,0.3s0.8-0.1,1-0.3c0.3-0.2,0.4-0.5,0.6-0.8
	c0.1-0.3,0.2-0.7,0.3-1c0-0.4,0.1-0.7,0.1-1c0-0.3,0-0.7-0.1-1c0-0.4-0.1-0.7-0.3-1c-0.1-0.3-0.3-0.6-0.6-0.8
	c-0.3-0.2-0.6-0.3-1-0.3S446,0.7,445.8,0.9z"/>
</svg>
