<!-- Generator: Adobe Illustrator 20.1.0, SVG Export Plug-In  -->
<svg version="1.1"
	 xmlns="http://www.w3.org/2000/svg" xmlns:xlink="http://www.w3.org/1999/xlink" xmlns:a="http://ns.adobe.com/AdobeSVGViewerExtensions/3.0/"
	 x="0px" y="0px" width="97.7px" height="97.8px" viewBox="0 0 97.7 97.8"
	 style="overflow:scroll;enable-background:new 0 0 97.7 97.8;" xml:space="preserve">
<style type="text/css">
	.st0{fill-rule:evenodd;clip-rule:evenodd;fill:#0291B1;}
</style>
<defs>
</defs>
<g>
	<path class="st0" d="M48.9,23.3C62.8,23.4,74.5,35.2,74.4,49c-0.1,14-11.7,25.5-25.6,25.4c-14-0.1-25.5-11.7-25.5-26
		C23.2,34.9,35.2,23.2,48.9,23.3z"/>
	<path class="st0" d="M45.3,9.7c0-2-0.1-4.1,0-6.1C45.5,1.4,46.6-0.1,49,0c2.2,0.1,3.2,1.5,3.2,3.7c0,4,0.1,7.9,0,11.9
		c-0.1,2.2-1.1,3.8-3.5,3.8c-2.5,0-3.3-1.7-3.4-3.9C45.3,13.6,45.3,11.6,45.3,9.7L45.3,9.7z"/>
	<path class="st0" d="M45.4,88.1c0-2-0.1-4.1,0-6.1c0.1-2,1.1-3.5,3.4-3.6c2.2,0,3.4,1.4,3.5,3.4c0.1,4.2,0.2,8.3,0,12.5
		c-0.1,2-1.3,3.5-3.5,3.4c-2.3,0-3.2-1.6-3.3-3.6C45.3,92.2,45.4,90.1,45.4,88.1z"/>
	<path class="st0" d="M86.9,84c-0.5,0.6-0.9,2-1.8,2.4c-1.1,0.4-2.9,0.4-3.7-0.3c-3.4-3.1-6.7-6.3-9.7-9.8c-0.7-0.8-0.5-3.1,0.3-4.1
		c0.6-0.8,3.1-1.3,3.7-0.7c3.8,3.4,7.3,7.1,10.8,10.7C86.8,82.5,86.7,83,86.9,84z"/>
	<path class="st0" d="M87.2,14.1c-0.8,1.3-1.2,2.3-1.9,3.1c-2.6,2.7-5.3,5.4-7.9,8c-1.7,1.7-3.5,2.2-5.3,0.4
		c-1.6-1.7-1.2-3.6,0.4-5.1c2.8-2.8,5.5-5.7,8.5-8.3c0.9-0.8,2.8-1,4.1-0.7C85.9,11.5,86.4,13,87.2,14.1z"/>
	<path class="st0" d="M10.4,83.6c0.8-1.3,1.3-2.4,2.1-3.3c2.5-2.7,5.1-5.2,7.7-7.8c1.7-1.7,3.5-2.2,5.3-0.4c1.7,1.7,1.3,3.5-0.3,5.1
		c-2.8,2.8-5.5,5.7-8.5,8.3c-0.9,0.8-2.8,1-4.1,0.8C11.9,86.2,11.3,84.7,10.4,83.6z"/>
	<path class="st0" d="M10.7,13.9c0.5-0.8,1-2.1,1.8-2.4c1.1-0.4,3-0.6,3.7,0.1c3.5,3.1,6.8,6.4,9.9,10c0.6,0.8,0.3,3.2-0.4,4
		c-0.8,0.8-3.3,1.1-4,0.5c-3.5-3.1-6.7-6.5-10-9.8C11.1,15.7,11,14.9,10.7,13.9z"/>
	<path class="st0" d="M9.6,50.1c-2.1,0-4.3,0.1-6.4,0c-2-0.1-3.2-1.3-3.2-3.3c0-2,1.1-3.2,3.2-3.2c4.3,0,8.5,0,12.8,0
		c2.1,0,3.3,1,3.3,3.1c0.1,2.1-1.1,3.3-3.1,3.5C14,50.2,11.8,50,9.6,50.1C9.6,50,9.6,50,9.6,50.1z"/>
	<path class="st0" d="M88,50.1c-2.1,0-4.3,0.1-6.4,0c-2-0.1-3.2-1.3-3.2-3.4c0-2.1,1.2-3.2,3.3-3.2c4.3,0,8.6-0.2,12.8,0.1
		c1.1,0.1,2.8,1.7,3.1,2.9c0.5,1.9-0.9,3.3-2.9,3.5C92.5,50.2,90.2,50.1,88,50.1z"/>
</g>
</svg>
