<!-- Generator: Adobe Illustrator 20.1.0, SVG Export Plug-In  -->
<svg version="1.1"
	 xmlns="http://www.w3.org/2000/svg" xmlns:xlink="http://www.w3.org/1999/xlink" xmlns:a="http://ns.adobe.com/AdobeSVGViewerExtensions/3.0/"
	 x="0px" y="0px" width="522.8px" height="23.5px" viewBox="0 0 522.8 23.5"
	 style="overflow:scroll;enable-background:new 0 0 522.8 23.5;" xml:space="preserve">
<style type="text/css">
	.st0{fill:#FFFFFF;}
</style>
<defs>
</defs>
<g>
	<path class="st0" d="M0,1.5h8.8V4H3.1v4.5h5.4v2.4H3.1v4.9h6v2.4H0V1.5z"/>
	<path class="st0" d="M12.3,8.1h-2.1V5.9h2.1V3.4c0-1.8,0.8-3.4,3.6-3.4c0.8,0,1.6,0.2,2.1,0.3l-0.1,2.2c-0.4-0.1-0.7-0.2-1.2-0.2
		c-0.9,0-1.4,0.6-1.4,1.5v2.1h2.3v2.2h-2.3v10.2h-3V8.1z M19.1,0.7h3.1v2.9h-3.1V0.7z M19.2,5.9h3v12.4h-3V5.9z"/>
	<path class="st0" d="M33.3,18c-0.7,0.3-1.7,0.5-2.9,0.5c-4.1,0-5.8-2.9-5.8-6.4c0-3.5,1.8-6.4,6-6.4c0.9,0,2,0.3,2.6,0.5l-0.2,2.4
		C32.4,8.3,31.7,8,30.8,8c-2.3,0-3.2,1.5-3.2,4.2c0,2.3,1.1,4.1,3.4,4.1c0.7,0,1.7-0.3,2.1-0.6L33.3,18z"/>
	<path class="st0" d="M35.4,6.6c0.8-0.4,2-0.9,3.9-0.9c3.8,0,4.7,1.9,4.7,5v5.4c0,0.9,0.1,1.7,0.2,2.2h-2.7
		c-0.1-0.5-0.2-1.1-0.2-1.7h0c-0.7,1-1.7,1.9-3.5,1.9c-1.9,0-3.7-1.3-3.7-3.6c0-3.4,2.7-4.2,6.5-4.2h0.6v-0.5c0-1.2-0.6-2.4-2.3-2.4
		c-1.5,0-2.8,0.7-3.4,1.2L35.4,6.6z M41.3,12.2H41c-2.5,0-4.1,0.5-4.1,2.3c0,1.1,0.7,1.9,1.9,1.9c1.8,0,2.4-1.3,2.4-3.5V12.2z"/>
	<path class="st0" d="M55,18c-0.7,0.3-1.7,0.5-2.9,0.5c-4.1,0-5.8-2.9-5.8-6.4c0-3.5,1.8-6.4,6-6.4c0.9,0,2,0.3,2.6,0.5l-0.2,2.4
		C54.1,8.3,53.4,8,52.6,8c-2.3,0-3.2,1.5-3.2,4.2c0,2.3,1.1,4.1,3.4,4.1c0.7,0,1.7-0.3,2.1-0.6L55,18z"/>
	<path class="st0" d="M56.8,0.7h3.1v2.9h-3.1V0.7z M56.9,5.9h3v12.4h-3V5.9z"/>
	<path class="st0" d="M63.2,6.6c0.8-0.4,2-0.9,3.9-0.9c3.8,0,4.7,1.9,4.7,5v5.4c0,0.9,0.1,1.7,0.2,2.2h-2.7
		c-0.1-0.5-0.2-1.1-0.2-1.7h0c-0.7,1-1.7,1.9-3.5,1.9c-1.9,0-3.7-1.3-3.7-3.6c0-3.4,2.7-4.2,6.5-4.2H69v-0.5c0-1.2-0.6-2.4-2.3-2.4
		c-1.5,0-2.8,0.7-3.4,1.2L63.2,6.6z M69,12.2h-0.3c-2.5,0-4.1,0.5-4.1,2.3c0,1.1,0.7,1.9,1.9,1.9c1.8,0,2.4-1.3,2.4-3.5V12.2z"/>
	<path class="st0" d="M88.8,18c-0.7,0.3-1.7,0.5-2.9,0.5c-4.1,0-5.8-2.9-5.8-6.4c0-3.5,1.8-6.4,6-6.4c0.9,0,2,0.3,2.6,0.5l-0.2,2.4
		C87.9,8.3,87.1,8,86.3,8c-2.3,0-3.2,1.5-3.2,4.2c0,2.3,1.1,4.1,3.4,4.1c0.7,0,1.7-0.3,2.1-0.6L88.8,18z"/>
	<path class="st0" d="M90.6,0.3h3v18h-3V0.3z"/>
	<path class="st0" d="M96.6,5.9h3v12.4h-3V5.9z M98.2,1.1h2.8l-2.4,3.5h-1.9L98.2,1.1z"/>
	<path class="st0" d="M102.3,8c0-0.8,0-1.5-0.1-2h2.8c0,0.6,0.1,1.3,0.1,1.9h0c0.4-0.7,1.3-2.1,3.3-2.1c2.8,0,3.6,2.1,3.6,4.6v8h-3
		v-7.4c0-1.9-0.5-2.7-1.7-2.7c-1.6,0-2.1,1.3-2.1,2.9v7.2h-3V8z"/>
	<path class="st0" d="M114.8,0.7h3.1v2.9h-3.1V0.7z M114.8,5.9h3v12.4h-3V5.9z"/>
	<path class="st0" d="M129,18c-0.7,0.3-1.7,0.5-2.9,0.5c-4.1,0-5.8-2.9-5.8-6.4c0-3.5,1.8-6.4,6-6.4c0.9,0,2,0.3,2.6,0.5l-0.2,2.4
		c-0.5-0.3-1.3-0.6-2.1-0.6c-2.3,0-3.2,1.5-3.2,4.2c0,2.3,1.1,4.1,3.4,4.1c0.7,0,1.7-0.3,2.1-0.6L129,18z"/>
	<path class="st0" d="M131.1,6.6c0.8-0.4,2-0.9,3.9-0.9c3.8,0,4.7,1.9,4.7,5v5.4c0,0.9,0.1,1.7,0.2,2.2h-2.7
		c-0.1-0.5-0.2-1.1-0.2-1.7h0c-0.7,1-1.7,1.9-3.5,1.9c-1.9,0-3.7-1.3-3.7-3.6c0-3.4,2.7-4.2,6.5-4.2h0.6v-0.5c0-1.2-0.6-2.4-2.3-2.4
		c-1.5,0-2.8,0.7-3.4,1.2L131.1,6.6z M137,12.2h-0.3c-2.5,0-4.1,0.5-4.1,2.3c0,1.1,0.7,1.9,1.9,1.9c1.8,0,2.4-1.3,2.4-3.5V12.2z"/>
	<path class="st0" d="M156.7,18c-0.7,0.3-1.7,0.5-2.9,0.5c-4.1,0-5.8-2.9-5.8-6.4c0-3.5,1.8-6.4,6-6.4c0.9,0,2,0.3,2.6,0.5l-0.2,2.4
		c-0.5-0.3-1.3-0.6-2.1-0.6c-2.3,0-3.2,1.5-3.2,4.2c0,2.3,1.1,4.1,3.4,4.1c0.7,0,1.7-0.3,2.1-0.6L156.7,18z"/>
	<path class="st0" d="M163.4,5.7c2.5,0,5.4,1.3,5.4,6.4c0,5.2-2.9,6.4-5.4,6.4c-2.5,0-5.4-1.2-5.4-6.4
		C157.9,7.1,160.9,5.7,163.4,5.7z M163.4,16.4c1.9,0,2.4-2.2,2.4-4.3s-0.4-4.2-2.4-4.2S161,10,161,12.1S161.5,16.4,163.4,16.4z"/>
	<path class="st0" d="M170.9,7.9c0-0.9,0-1.6-0.1-2h3c0,0.6,0.1,1.3,0.1,1.9h0c0.5-1,1.4-2.1,3.1-2.1c2.1,0,2.8,1.3,3.1,2
		c0.6-0.9,1.5-2,3.3-2c2.7,0,3.6,1.9,3.6,4.9v7.6h-3v-7.8c0-1.5-0.5-2.3-1.6-2.3c-1.3,0-2,1.2-2,2.6v7.5h-3v-7.8
		c0-1.5-0.5-2.3-1.6-2.3c-1.3,0-2,1.2-2,2.6v7.5h-3V7.9z"/>
	<path class="st0" d="M189.4,8c0-0.9,0-1.7-0.1-2.1h2.8c0,0.4,0.1,1.1,0.1,1.9h0.1c0.5-1.1,1.4-2.1,3.3-2.1c3.1,0,4.3,2.9,4.3,6.4
		c0,4-1.6,6.4-4.3,6.4c-1.8,0-2.8-1-3.2-2h0v7h-3V8z M194.7,16.3c1.7,0,2.2-1.6,2.2-4.1c0-2.9-0.5-4.3-2.2-4.3
		c-1.8,0-2.4,1.9-2.4,4.2C192.4,14.5,193.1,16.3,194.7,16.3z"/>
	<path class="st0" d="M202.1,8c0-0.8,0-1.5-0.1-2h2.7c0,0.7,0.1,1.5,0.1,2.3h0c0.4-1,1.3-2.4,3.1-2.4c0.2,0,0.3,0,0.5,0.1v2.8
		c-0.3-0.1-0.5-0.1-0.8-0.1c-1.2,0-2.6,0.7-2.6,3v6.8h-3V8z"/>
	<path class="st0" d="M215.1,5.7c2.5,0,5.4,1.3,5.4,6.4c0,5.2-2.9,6.4-5.4,6.4c-2.5,0-5.4-1.2-5.4-6.4
		C209.6,7.1,212.6,5.7,215.1,5.7z M215.1,16.4c1.9,0,2.4-2.2,2.4-4.3s-0.4-4.2-2.4-4.2s-2.4,2.2-2.4,4.2S213.2,16.4,215.1,16.4z"/>
	<path class="st0" d="M225.6,0.3v7.4h0c0.4-1,1.4-2,3.2-2c2.7,0,4.3,2.4,4.3,6.4c0,3.4-1.3,6.4-4.3,6.4c-1.9,0-2.8-1.1-3.3-2.1h-0.1
		c0,0.8,0,1.6-0.1,1.9h-2.8c0.1-0.5,0.1-1.2,0.1-2.1V0.3H225.6z M228,16.3c1.7,0,2.2-1.4,2.2-4.3c0-2.5-0.6-4.1-2.2-4.1
		c-1.6,0-2.3,1.8-2.3,4.2C225.6,14.4,226.2,16.3,228,16.3z"/>
	<path class="st0" d="M235.9,6.6c0.8-0.4,2-0.9,3.9-0.9c3.8,0,4.7,1.9,4.7,5v5.4c0,0.9,0.1,1.7,0.2,2.2H242
		c-0.1-0.5-0.2-1.1-0.2-1.7h0c-0.7,1-1.7,1.9-3.5,1.9c-1.9,0-3.7-1.3-3.7-3.6c0-3.4,2.7-4.2,6.5-4.2h0.6v-0.5c0-1.2-0.6-2.4-2.3-2.4
		c-1.5,0-2.8,0.7-3.4,1.2L235.9,6.6z M241.7,12.2h-0.3c-2.5,0-4.1,0.5-4.1,2.3c0,1.1,0.7,1.9,1.9,1.9c1.8,0,2.4-1.3,2.4-3.5V12.2z"
		/>
	<path class="st0" d="M257.2,0.3v15.9c0,0.9,0,1.7,0.1,2.1h-2.8c0-0.4-0.1-1.1-0.1-1.9h-0.1c-0.5,1.1-1.4,2.1-3.3,2.1
		c-3.1,0-4.3-2.9-4.3-6.4c0-4,1.6-6.4,4.3-6.4c1.8,0,2.8,1,3.2,2h0V0.3H257.2z M251.9,16.3c1.8,0,2.4-1.9,2.4-4.2
		c0-2.4-0.7-4.2-2.3-4.2c-1.7,0-2.2,1.6-2.2,4.1C249.7,14.9,250.1,16.3,251.9,16.3z"/>
	<path class="st0" d="M260.3,6.6c0.8-0.4,2-0.9,3.9-0.9c3.8,0,4.7,1.9,4.7,5v5.4c0,0.9,0.1,1.7,0.2,2.2h-2.7
		c-0.1-0.5-0.2-1.1-0.2-1.7h0c-0.7,1-1.7,1.9-3.5,1.9c-1.9,0-3.7-1.3-3.7-3.6c0-3.4,2.7-4.2,6.5-4.2h0.6v-0.5c0-1.2-0.6-2.4-2.3-2.4
		c-1.5,0-2.8,0.7-3.4,1.2L260.3,6.6z M266.1,12.2h-0.3c-2.5,0-4.1,0.5-4.1,2.3c0,1.1,0.7,1.9,1.9,1.9c1.8,0,2.4-1.3,2.4-3.5V12.2z"
		/>
	<path class="st0" d="M285.8,18c-0.7,0.3-1.7,0.5-2.9,0.5c-4.1,0-5.8-2.9-5.8-6.4c0-3.5,1.8-6.4,6-6.4c0.9,0,2,0.3,2.6,0.5l-0.2,2.4
		C285,8.3,284.2,8,283.4,8c-2.3,0-3.2,1.5-3.2,4.2c0,2.3,1.1,4.1,3.4,4.1c0.7,0,1.7-0.3,2.1-0.6L285.8,18z"/>
	<path class="st0" d="M292.5,5.7c2.5,0,5.4,1.3,5.4,6.4c0,5.2-2.9,6.4-5.4,6.4c-2.5,0-5.4-1.2-5.4-6.4C287.1,7.1,290,5.7,292.5,5.7z
		 M292.5,16.4c1.9,0,2.4-2.2,2.4-4.3s-0.4-4.2-2.4-4.2s-2.4,2.2-2.4,4.2S290.6,16.4,292.5,16.4z"/>
	<path class="st0" d="M300,7.9c0-0.9,0-1.6-0.1-2h3c0,0.6,0.1,1.3,0.1,1.9h0c0.5-1,1.4-2.1,3.1-2.1c2.1,0,2.8,1.3,3.1,2
		c0.6-0.9,1.5-2,3.3-2c2.7,0,3.6,1.9,3.6,4.9v7.6h-3v-7.8c0-1.5-0.5-2.3-1.6-2.3c-1.3,0-2,1.2-2,2.6v7.5h-3v-7.8
		c0-1.5-0.5-2.3-1.6-2.3c-1.3,0-2,1.2-2,2.6v7.5h-3V7.9z"/>
	<path class="st0" d="M323.6,5.7c2.5,0,5.4,1.3,5.4,6.4c0,5.2-2.9,6.4-5.4,6.4c-2.5,0-5.4-1.2-5.4-6.4
		C318.2,7.1,321.1,5.7,323.6,5.7z M323.6,16.4c1.9,0,2.4-2.2,2.4-4.3s-0.4-4.2-2.4-4.2c-1.9,0-2.4,2.2-2.4,4.2
		S321.7,16.4,323.6,16.4z"/>
	<path class="st0" d="M337.4,0.7h3.1v2.9h-3.1V0.7z M337.4,5.9h3v12.4h-3V5.9z"/>
	<path class="st0" d="M343.1,8c0-0.8,0-1.5-0.1-2h2.8c0,0.6,0.1,1.3,0.1,1.9h0c0.4-0.7,1.3-2.1,3.3-2.1c2.8,0,3.6,2.1,3.6,4.6v8h-3
		v-7.4c0-1.9-0.5-2.7-1.7-2.7c-1.6,0-2.1,1.3-2.1,2.9v7.2h-3V8z"/>
	<path class="st0" d="M365.5,0.3v15.9c0,0.9,0,1.7,0.1,2.1h-2.8c0-0.4-0.1-1.1-0.1-1.9h-0.1c-0.5,1.1-1.4,2.1-3.3,2.1
		c-3.1,0-4.3-2.9-4.3-6.4c0-4,1.6-6.4,4.3-6.4c1.8,0,2.8,1,3.2,2h0V0.3H365.5z M360.2,16.3c1.8,0,2.4-1.9,2.4-4.2
		c0-2.4-0.7-4.2-2.3-4.2c-1.7,0-2.2,1.6-2.2,4.1C358,14.9,358.5,16.3,360.2,16.3z"/>
	<path class="st0" d="M377.8,16.3c0,0.8,0,1.5,0.1,2h-2.8c0-0.6-0.1-1.3-0.1-1.9l-0.1,0l0,0c-0.6,0.9-1.3,2.1-3.3,2.1
		c-2.8,0-3.6-2.1-3.6-4.6v-8h3v7.4c0,1.9,0.5,2.7,1.8,2.7c1.6,0,2-1.4,2-3V5.9h3V16.3z"/>
	<path class="st0" d="M388.6,18c-0.7,0.3-1.7,0.5-2.9,0.5c-4.1,0-5.8-2.9-5.8-6.4c0-3.5,1.8-6.4,6-6.4c0.9,0,2,0.3,2.6,0.5l-0.2,2.4
		C387.8,8.3,387,8,386.2,8c-2.3,0-3.2,1.5-3.2,4.2c0,2.3,1.1,4.1,3.4,4.1c0.7,0,1.7-0.3,2.1-0.6L388.6,18z"/>
	<path class="st0" d="M391.3,3.4l3-0.9v3.5h2.5v2.2h-2.5v6.4c0,1.3,0.5,1.7,1.3,1.7c0.5,0,0.9-0.1,1.1-0.3v2.1
		c-0.5,0.2-1.1,0.4-2,0.4c-2.2,0-3.5-1-3.5-3.6V8.1h-2V5.9h2V3.4z"/>
	<path class="st0" d="M403.5,5.7c2.5,0,5.4,1.3,5.4,6.4c0,5.2-2.9,6.4-5.4,6.4c-2.5,0-5.4-1.2-5.4-6.4C398.1,7.1,401,5.7,403.5,5.7z
		 M403.5,16.4c1.9,0,2.4-2.2,2.4-4.3s-0.4-4.2-2.4-4.2s-2.4,2.2-2.4,4.2S401.6,16.4,403.5,16.4z"/>
	<path class="st0" d="M411.2,8c0-0.8,0-1.5-0.1-2h2.7c0,0.7,0.1,1.5,0.1,2.3h0c0.4-1,1.3-2.4,3.1-2.4c0.2,0,0.3,0,0.5,0.1v2.8
		c-0.3-0.1-0.5-0.1-0.8-0.1c-1.2,0-2.6,0.7-2.6,3v6.8h-3V8z"/>
	<path class="st0" d="M435.4,0.3v15.9c0,0.9,0,1.7,0.1,2.1h-2.8c0-0.4-0.1-1.1-0.1-1.9h-0.1c-0.5,1.1-1.4,2.1-3.3,2.1
		c-3.1,0-4.3-2.9-4.3-6.4c0-4,1.6-6.4,4.3-6.4c1.8,0,2.8,1,3.2,2h0V0.3H435.4z M430.1,16.3c1.8,0,2.4-1.9,2.4-4.2
		c0-2.4-0.7-4.2-2.3-4.2c-1.7,0-2.2,1.6-2.2,4.1C427.9,14.9,428.4,16.3,430.1,16.3z"/>
	<path class="st0" d="M447,17.7c-0.6,0.3-1.9,0.8-3.7,0.8c-4,0-5.7-2.9-5.7-6.2c0-3.7,1.9-6.6,5.1-6.6c2.7,0,4.9,1.6,4.9,6.6v0.6
		h-7.2c0,2.1,0.8,3.4,3.1,3.4c1.8,0,2.7-0.6,3.2-1L447,17.7z M444.7,11c0-2.2-0.7-3.3-2.1-3.3c-1.6,0-2.2,1.7-2.2,3.3H444.7z"/>
	<path class="st0" d="M450,0.3h3v18h-3V0.3z"/>
	<path class="st0" d="M461.3,15.4c0.5,0.2,1.7,0.8,3.1,0.8c1.1,0,1.9-0.3,1.9-1.2c0-0.5-0.2-0.9-1.3-1.6l-1.2-0.7
		c-1.2-0.7-2.6-1.5-2.6-3.5c0-1.7,1.7-3.5,4.3-3.5c1.6,0,2.8,0.4,3.1,0.5l-0.2,2.3c-0.7-0.3-1.5-0.6-2.6-0.6c-1.2,0-1.7,0.5-1.7,1.2
		c0,0.7,0.5,1,1.4,1.6l1.5,0.9c1.5,1,2.3,1.7,2.3,3.1c0,2.3-1.9,3.6-4.6,3.6c-1.5,0-2.8-0.4-3.4-0.6L461.3,15.4z"/>
	<path class="st0" d="M481,16.3c0,0.8,0,1.5,0.1,2h-2.8c0-0.6-0.1-1.3-0.1-1.9l-0.1,0l0,0c-0.6,0.9-1.3,2.1-3.3,2.1
		c-2.8,0-3.6-2.1-3.6-4.6v-8h3v7.4c0,1.9,0.5,2.7,1.8,2.7c1.6,0,2-1.4,2-3V5.9h3V16.3z"/>
	<path class="st0" d="M492.5,17.7c-0.6,0.3-1.9,0.8-3.7,0.8c-4,0-5.7-2.9-5.7-6.2c0-3.7,1.9-6.6,5.1-6.6c2.7,0,4.9,1.6,4.9,6.6v0.6
		H486c0,2.1,0.8,3.4,3.1,3.4c1.8,0,2.7-0.6,3.2-1L492.5,17.7z M490.2,11c0-2.2-0.7-3.3-2.1-3.3c-1.6,0-2.2,1.7-2.2,3.3H490.2z"/>
	<path class="st0" d="M495.2,8c0-0.8,0-1.5-0.1-2h2.8c0,0.6,0.1,1.3,0.1,1.9h0c0.4-0.7,1.3-2.1,3.3-2.1c2.8,0,3.6,2.1,3.6,4.6v8h-3
		v-7.4c0-1.9-0.5-2.7-1.7-2.7c-1.6,0-2.1,1.3-2.1,2.9v7.2h-3V8z M496.5,4.3c0-0.8,0.5-2.8,2.3-2.8c1.1,0,2,0.8,2.8,0.8
		c0.5,0,0.7-0.5,0.7-0.9h1.5c0,0.7-0.5,2.8-2.2,2.8c-0.9,0-1.8-0.8-2.7-0.8c-0.6,0-0.9,0.4-0.9,0.9H496.5z"/>
	<path class="st0" d="M512.5,5.7c2.5,0,5.4,1.3,5.4,6.4c0,5.2-2.9,6.4-5.4,6.4c-2.5,0-5.4-1.2-5.4-6.4C507.1,7.1,510,5.7,512.5,5.7z
		 M512.5,16.4c1.9,0,2.4-2.2,2.4-4.3s-0.4-4.2-2.4-4.2c-1.9,0-2.4,2.2-2.4,4.2S510.6,16.4,512.5,16.4z"/>
	<path class="st0" d="M521.5,1.9l-1.2,1.4l-0.6-0.9l2-1.9h1.1v9.8h-1.2V1.9z"/>
</g>
</svg>
