<!-- Generator: Adobe Illustrator 20.1.0, SVG Export Plug-In  -->
<svg version="1.1"
	 xmlns="http://www.w3.org/2000/svg" xmlns:xlink="http://www.w3.org/1999/xlink" xmlns:a="http://ns.adobe.com/AdobeSVGViewerExtensions/3.0/"
	 x="0px" y="0px" width="426.2px" height="72.1px" viewBox="0 0 426.2 72.1"
	 style="overflow:scroll;enable-background:new 0 0 426.2 72.1;" xml:space="preserve">
<style type="text/css">
	.st0{fill:#0291B1;}
	.st1{fill:#808184;}
</style>
<defs>
</defs>
<g>
	<g>
		<path class="st0" d="M0.8,42.7h1.9C3.5,42.7,4,43.1,4,44c0,0.7-0.3,1.1-0.8,1.2v0C3.9,45.3,4,45.7,4,46.8c0,0.5,0,0.8,0.2,0.9v0
			H3.1C3,47.6,3,47.4,3,47.2l0-1c0-0.4-0.2-0.6-0.6-0.6H1.9v2.1h-1V42.7z M1.9,44.9h0.4c0.5,0,0.8-0.2,0.8-0.7
			c0-0.5-0.2-0.7-0.7-0.7H1.9V44.9z"/>
		<path class="st0" d="M5.5,46v0.3c0,0.4,0.1,0.9,0.5,0.9c0.3,0,0.5-0.2,0.5-0.7h0.9c0,0.9-0.5,1.4-1.4,1.4c-1.4,0-1.5-1.1-1.5-2
			c0-1,0.2-1.9,1.5-1.9c1.1,0,1.4,0.8,1.4,1.9V46H5.5z M6.5,45.4c0-0.6-0.1-0.9-0.5-0.9c-0.4,0-0.5,0.4-0.5,0.8v0.1H6.5z"/>
		<path class="st0" d="M8,44.6H7.5v-0.7H8v-0.4c0-0.7,0.4-0.9,1-0.9c0.2,0,0.3,0,0.5,0v0.7c-0.1,0-0.1,0-0.2,0
			c-0.3,0-0.4,0.1-0.4,0.3v0.3h0.6v0.7H9v3.1H8V44.6z"/>
		<path class="st0" d="M10.6,46v0.3c0,0.4,0.1,0.9,0.5,0.9c0.3,0,0.5-0.2,0.5-0.7h0.9c0,0.9-0.5,1.4-1.4,1.4c-1.4,0-1.5-1.1-1.5-2
			c0-1,0.2-1.9,1.5-1.9c1.1,0,1.4,0.8,1.4,1.9V46H10.6z M11.6,45.4c0-0.6-0.1-0.9-0.5-0.9c-0.4,0-0.5,0.4-0.5,0.8v0.1H11.6z"/>
		<path class="st0" d="M13,43.9h0.9v0.5h0c0.2-0.4,0.5-0.6,0.9-0.6c0.1,0,0.1,0,0.2,0v0.9c-0.1,0-0.2,0-0.3,0
			c-0.3,0-0.7,0.2-0.7,0.7v2.3h-1V43.9z"/>
		<path class="st0" d="M16.1,46v0.3c0,0.4,0.1,0.9,0.5,0.9c0.3,0,0.5-0.2,0.5-0.7h0.9c0,0.9-0.5,1.4-1.4,1.4c-1.4,0-1.5-1.1-1.5-2
			c0-1,0.2-1.9,1.5-1.9c1.1,0,1.4,0.8,1.4,1.9V46H16.1z M17.1,45.4c0-0.6-0.1-0.9-0.5-0.9c-0.4,0-0.5,0.4-0.5,0.8v0.1H17.1z"/>
		<path class="st0" d="M18.4,43.9h0.9v0.4h0c0.2-0.4,0.6-0.5,1-0.5c0.6,0,1,0.3,1,1.1v2.8h-1v-2.6c0-0.4-0.1-0.5-0.4-0.5
			c-0.3,0-0.5,0.2-0.5,0.6v2.5h-1V43.9z"/>
		<path class="st0" d="M23.7,45.3c0-0.4-0.1-0.8-0.4-0.8c-0.5,0-0.6,0.4-0.6,1.3c0,0.9,0.1,1.3,0.5,1.3c0.3,0,0.5-0.3,0.5-0.9h0.9
			c0,1-0.4,1.5-1.4,1.5c-1,0-1.4-0.5-1.4-2c0-1.5,0.6-2,1.5-2s1.4,0.6,1.4,1.5H23.7z"/>
		<path class="st0" d="M25.1,42.7h1v0.8h-1V42.7z M25.1,43.9h1v3.8h-1V43.9z"/>
		<path class="st0" d="M26.6,45.1L26.6,45.1c0-1,0.6-1.3,1.3-1.3c1.1,0,1.4,0.5,1.4,1.2v2c0,0.4,0,0.5,0.1,0.7h-0.9
			c-0.1-0.1-0.1-0.3-0.1-0.4h0c-0.2,0.4-0.5,0.5-1,0.5c-0.7,0-0.9-0.6-0.9-1.1c0-0.7,0.3-1,1-1.2l0.5-0.1c0.3-0.1,0.4-0.2,0.4-0.4
			c0-0.3-0.1-0.5-0.4-0.5c-0.3,0-0.4,0.2-0.4,0.5v0.1H26.6z M28.4,45.8C28.3,45.9,28.1,46,28,46c-0.4,0.1-0.5,0.3-0.5,0.6
			c0,0.3,0.1,0.5,0.4,0.5c0.3,0,0.6-0.2,0.6-0.6V45.8z"/>
		<path class="st0" d="M30.6,46.5v0.1c0,0.3,0.2,0.5,0.5,0.5c0.3,0,0.5-0.1,0.5-0.4c0-0.2-0.2-0.4-0.3-0.4L30.6,46
			c-0.5-0.2-0.8-0.5-0.8-1.1c0-0.6,0.4-1.1,1.4-1.1c0.9,0,1.3,0.4,1.3,1.1v0.2h-0.9c0-0.4-0.1-0.6-0.4-0.6c-0.2,0-0.5,0.1-0.5,0.4
			c0,0.2,0.1,0.3,0.4,0.4l0.6,0.2c0.6,0.2,0.8,0.5,0.8,1.1c0,0.8-0.6,1.2-1.4,1.2c-1.1,0-1.4-0.5-1.4-1.2v-0.1H30.6z"/>
		<path class="st0" d="M33,44.1h0.9v1.1H33V44.1z M33,46.6h0.9v1.1H33V46.6z"/>
		<path class="st0" d="M37.1,47.7v-3.5h-1v-0.7h0.1c0.7,0,1.1-0.3,1.2-0.8h0.7v5H37.1z"/>
		<path class="st0" d="M40.4,46.6v1.1h-0.9v-1.1H40.4z"/>
		<path class="st1" d="M42.7,42.7h1l1,4h0l1-4h1v5h-0.6v-4.4h0l-1.1,4.4h-0.6l-1.1-4.4h0v4.4h-0.6V42.7z"/>
		<path class="st1" d="M48.7,43.9c1.1,0,1.4,0.9,1.4,2s-0.3,2-1.4,2c-1.1,0-1.4-0.9-1.4-2S47.6,43.9,48.7,43.9z M49.4,45.8
			c0-0.8-0.1-1.5-0.7-1.5c-0.6,0-0.7,0.7-0.7,1.5s0.1,1.5,0.7,1.5C49.3,47.3,49.4,46.6,49.4,45.8z"/>
		<path class="st1" d="M50.6,44h0.6v0.4h0c0.2-0.3,0.5-0.5,0.9-0.5c1,0,1,0.8,1,1.2v2.7h-0.6v-2.6c0-0.3,0-0.8-0.6-0.8
			c-0.3,0-0.7,0.2-0.7,0.8v2.6h-0.6V44z"/>
		<path class="st1" d="M54.9,43.9c1.1,0,1.4,0.9,1.4,2s-0.3,2-1.4,2c-1.1,0-1.4-0.9-1.4-2S53.8,43.9,54.9,43.9z M55.6,45.8
			c0-0.8-0.1-1.5-0.7-1.5c-0.6,0-0.7,0.7-0.7,1.5s0.1,1.5,0.7,1.5C55.5,47.3,55.6,46.6,55.6,45.8z"/>
		<path class="st1" d="M59.3,47.5c0,1.1-0.5,1.5-1.3,1.5c-0.2,0-1.1,0-1.2-0.9h0.6c0,0.3,0.3,0.5,0.6,0.5c0.8,0,0.7-0.6,0.7-0.8
			v-0.5h0c-0.1,0.3-0.5,0.5-0.8,0.5c-1.1,0-1.2-1.4-1.2-1.9c0-1,0.3-2,1.2-2c0.4,0,0.7,0.3,0.8,0.6h0V44h0.6V47.5z M57.3,45.8
			c0,0.6,0.1,1.4,0.7,1.4c0.6,0,0.8-0.6,0.8-1.4c0-0.7-0.1-1.5-0.8-1.5C57.4,44.4,57.3,44.9,57.3,45.8z"/>
		<path class="st1" d="M60,44h0.6v0.6h0c0.2-0.4,0.4-0.7,0.8-0.7c0.1,0,0.2,0,0.3,0v0.6c-0.1,0-0.1,0-0.3,0c-0.3,0-0.8,0.3-0.8,0.9
			v2.4H60V44z"/>
		<path class="st1" d="M61.9,45.1c0-0.9,0.4-1.2,1.3-1.2c1.1,0,1.1,0.7,1.1,1.1V47c0,0.2,0,0.3,0.2,0.3c0.1,0,0.1,0,0.1,0v0.4
			c0,0-0.2,0-0.3,0c-0.2,0-0.5,0-0.5-0.5h0c-0.2,0.3-0.6,0.5-0.9,0.5c-0.7,0-1-0.4-1-1.1c0-0.5,0.2-0.9,0.7-1l0.8-0.2
			c0.4-0.1,0.4-0.3,0.4-0.6c0-0.3-0.2-0.6-0.6-0.6c-0.6,0-0.6,0.6-0.6,0.7v0H61.9z M63.7,45.7c-0.2,0.2-0.7,0.3-1,0.4
			c-0.2,0.1-0.3,0.3-0.3,0.6c0,0.4,0.1,0.6,0.5,0.6c0.4,0,0.8-0.3,0.8-0.7V45.7z"/>
		<path class="st1" d="M65.2,44.4h-0.5V44h0.5v-0.4c0-0.6,0.2-0.9,0.8-0.9h0.4v0.5h-0.3c-0.3,0-0.4,0.1-0.4,0.4V44h0.6v0.5h-0.6v3.3
			h-0.6V44.4z"/>
		<path class="st1" d="M67.2,42.4h0.7l-0.8,1h-0.4L67.2,42.4z M66.8,44h0.6v3.8h-0.6V44z"/>
		<path class="st1" d="M68,45.1c0-0.9,0.4-1.2,1.3-1.2c1.1,0,1.1,0.7,1.1,1.1V47c0,0.2,0,0.3,0.2,0.3c0.1,0,0.1,0,0.1,0v0.4
			c0,0-0.2,0-0.3,0c-0.2,0-0.5,0-0.5-0.5h0c-0.2,0.3-0.6,0.5-0.9,0.5c-0.7,0-1-0.4-1-1.1c0-0.5,0.2-0.9,0.7-1l0.8-0.2
			c0.4-0.1,0.4-0.3,0.4-0.6c0-0.3-0.2-0.6-0.6-0.6c-0.6,0-0.6,0.6-0.6,0.7v0H68z M69.8,45.7c-0.2,0.2-0.7,0.3-1,0.4
			c-0.2,0.1-0.3,0.3-0.3,0.6c0,0.4,0.1,0.6,0.5,0.6c0.4,0,0.8-0.3,0.8-0.7V45.7z"/>
		<path class="st1" d="M75.2,47.7h-0.6v-0.5h0c-0.1,0.3-0.4,0.6-0.8,0.6c-0.9,0-1.2-0.8-1.2-2c0-0.8,0.1-2,1.2-2
			c0.3,0,0.7,0.2,0.8,0.5h0v-1.7h0.6V47.7z M73.9,47.3c0.7,0,0.8-0.6,0.8-1.5c0-0.7-0.1-1.5-0.8-1.5c-0.5,0-0.7,0.6-0.7,1.5
			S73.3,47.3,73.9,47.3z"/>
		<path class="st1" d="M76.4,45.9c0,0.6,0,1.4,0.7,1.4c0.6,0,0.6-0.6,0.6-0.9h0.6c0,0.4-0.2,1.3-1.3,1.3c-0.9,0-1.3-0.6-1.3-1.9
			c0-0.9,0.2-2,1.3-2c1.1,0,1.3,1,1.3,1.8v0.2H76.4z M77.7,45.4v-0.2c0-0.4-0.1-0.9-0.7-0.9c-0.6,0-0.7,0.8-0.7,1v0.1H77.7z"/>
		<path class="st1" d="M80.5,42.7h2.6v0.5h-2v1.6H83v0.5h-1.9v1.8h2.1v0.5h-2.7V42.7z"/>
		<path class="st1" d="M86.1,47.7h-0.6v-0.4h0c-0.2,0.3-0.5,0.5-0.9,0.5c-1,0-1-0.7-1-1.2V44h0.6v2.6c0,0.3,0,0.8,0.6,0.8
			c0.3,0,0.7-0.2,0.7-0.8V44h0.6V47.7z"/>
		<path class="st1" d="M86.5,44h0.6l0.7,3h0l0.7-3h0.6l-1,3.8h-0.7L86.5,44z"/>
		<path class="st1" d="M90.1,45.9c0,0.6,0,1.4,0.7,1.4c0.6,0,0.6-0.6,0.6-0.9H92c0,0.4-0.2,1.3-1.3,1.3c-0.9,0-1.3-0.6-1.3-1.9
			c0-0.9,0.2-2,1.3-2c1.1,0,1.3,1,1.3,1.8v0.2H90.1z M91.4,45.4v-0.2c0-0.4-0.1-0.9-0.7-0.9c-0.6,0-0.7,0.8-0.7,1v0.1H91.4z"/>
		<path class="st1" d="M95.1,47.5c0,1.1-0.5,1.5-1.3,1.5c-0.2,0-1.1,0-1.2-0.9h0.6c0,0.3,0.3,0.5,0.6,0.5c0.8,0,0.7-0.6,0.7-0.8
			v-0.5h0c-0.1,0.3-0.5,0.5-0.8,0.5c-1.1,0-1.2-1.4-1.2-1.9c0-1,0.3-2,1.2-2c0.4,0,0.7,0.3,0.8,0.6h0V44h0.6V47.5z M93.1,45.8
			c0,0.6,0.1,1.4,0.7,1.4c0.6,0,0.8-0.6,0.8-1.4c0-0.7-0.1-1.5-0.8-1.5C93.3,44.4,93.1,44.9,93.1,45.8z"/>
		<path class="st1" d="M95.7,45.1c0-0.9,0.4-1.2,1.3-1.2c1.1,0,1.1,0.7,1.1,1.1V47c0,0.2,0,0.3,0.2,0.3c0.1,0,0.1,0,0.1,0v0.4
			c0,0-0.2,0-0.3,0c-0.2,0-0.5,0-0.5-0.5h0c-0.2,0.3-0.6,0.5-0.9,0.5c-0.7,0-1-0.4-1-1.1c0-0.5,0.2-0.9,0.7-1l0.8-0.2
			c0.4-0.1,0.4-0.3,0.4-0.6c0-0.3-0.2-0.6-0.6-0.6c-0.6,0-0.6,0.6-0.6,0.7v0H95.7z M97.5,45.7c-0.2,0.2-0.7,0.3-1,0.4
			c-0.2,0.1-0.3,0.3-0.3,0.6c0,0.4,0.1,0.6,0.5,0.6c0.4,0,0.8-0.3,0.8-0.7V45.7z"/>
		<path class="st1" d="M98.9,42.7h0.6v5h-0.6V42.7z"/>
		<path class="st1" d="M101.4,42.4c0.8,0,1.5,0.7,1.5,1.5c0,0.8-0.7,1.5-1.5,1.5s-1.5-0.7-1.5-1.5C99.9,43.1,100.6,42.4,101.4,42.4z
			 M102.7,43.9c0-0.7-0.6-1.3-1.2-1.3s-1.2,0.6-1.2,1.3c0,0.7,0.6,1.3,1.2,1.3S102.7,44.6,102.7,43.9z M100.8,43h0.7
			c0.4,0,0.6,0.2,0.6,0.5c0,0.3-0.2,0.5-0.5,0.5l0.5,0.8h-0.3l-0.5-0.7h-0.3v0.7h-0.3V43z M101.4,43.8c0.2,0,0.5,0,0.5-0.3
			c0-0.2-0.2-0.3-0.4-0.3h-0.4v0.5H101.4z"/>
		<path class="st0" d="M109.4,47.7h-3.1c0-0.9,0.4-1.5,1.1-2.2l0.4-0.4c0.4-0.4,0.5-0.6,0.5-1.1c0-0.4-0.2-0.6-0.5-0.6
			c-0.5,0-0.6,0.4-0.6,1h-1v-0.2c0-0.9,0.5-1.4,1.5-1.4c1,0,1.5,0.5,1.5,1.4c0,0.6-0.2,1.1-0.8,1.6l-0.6,0.5
			c-0.3,0.3-0.5,0.5-0.5,0.7h1.9V47.7z"/>
		<path class="st0" d="M110.8,46.6v1.1h-0.9v-1.1H110.8z"/>
		<path class="st1" d="M113.8,42.7h0.8l1.3,5h-0.6l-0.4-1.4h-1.6l-0.4,1.4h-0.6L113.8,42.7z M113.5,45.8h1.3l-0.6-2.4h0L113.5,45.8z
			"/>
		<path class="st1" d="M116.2,44h0.6v0.4h0c0.2-0.3,0.5-0.5,0.9-0.5c1,0,1,0.8,1,1.2v2.7h-0.6v-2.6c0-0.3,0-0.8-0.6-0.8
			c-0.3,0-0.7,0.2-0.7,0.8v2.6h-0.6V44z"/>
		<path class="st1" d="M119.3,44h2.3v0.5l-1.7,2.8h1.7v0.5h-2.3v-0.5l1.7-2.8h-1.6V44z"/>
		<path class="st1" d="M124.5,47.7H124v-0.4h0c-0.2,0.3-0.5,0.5-0.9,0.5c-1,0-1-0.7-1-1.2V44h0.6v2.6c0,0.3,0,0.8,0.6,0.8
			c0.3,0,0.7-0.2,0.7-0.8V44h0.6V47.7z"/>
		<path class="st1" d="M125.2,44h0.6v0.6h0c0.2-0.4,0.4-0.7,0.8-0.7c0.1,0,0.2,0,0.3,0v0.6c-0.1,0-0.1,0-0.3,0
			c-0.3,0-0.8,0.3-0.8,0.9v2.4h-0.6V44z"/>
		<path class="st1" d="M127.7,45.9c0,0.6,0,1.4,0.7,1.4c0.6,0,0.6-0.6,0.6-0.9h0.6c0,0.4-0.2,1.3-1.3,1.3c-0.9,0-1.3-0.6-1.3-1.9
			c0-0.9,0.2-2,1.3-2c1.1,0,1.3,1,1.3,1.8v0.2H127.7z M129.1,45.4v-0.2c0-0.4-0.1-0.9-0.7-0.9c-0.6,0-0.7,0.8-0.7,1v0.1H129.1z"/>
		<path class="st1" d="M131.9,45.1c0-0.5-0.1-0.7-0.6-0.7c-0.2,0-0.6,0-0.6,0.6c0,0.4,0.5,0.5,0.9,0.7c0.5,0.2,0.9,0.3,0.9,1.1
			c0,0.8-0.5,1.2-1.2,1.2c-1.3,0-1.3-0.9-1.3-1.3h0.6c0,0.5,0.1,0.9,0.7,0.9c0.2,0,0.6-0.1,0.6-0.6c0-0.5-0.5-0.6-0.9-0.8
			c-0.5-0.2-0.9-0.3-0.9-1.1c0-0.7,0.5-1,1.2-1c1.1,0,1.1,0.8,1.1,1.2H131.9z"/>
		<path class="st1" d="M134.6,42.7h1l1,4h0l1-4h1v5h-0.6v-4.4h0l-1.1,4.4h-0.6l-1.1-4.4h0v4.4h-0.6V42.7z"/>
		<path class="st1" d="M139.6,47h0.6v0.6c0,0.5,0,1-0.6,1.2v-0.3c0.2-0.1,0.3-0.3,0.3-0.5v-0.2h-0.3V47z"/>
		<path class="st1" d="M142.4,42.7h0.6v2.4h0l1.7-2.4h0.7l-1.5,2.1l1.6,2.9h-0.7l-1.4-2.4L143,46v1.7h-0.6V42.7z"/>
		<path class="st1" d="M145.7,45.1c0-0.9,0.4-1.2,1.3-1.2c1.1,0,1.1,0.7,1.1,1.1V47c0,0.2,0,0.3,0.2,0.3c0.1,0,0.1,0,0.1,0v0.4
			c0,0-0.2,0-0.3,0c-0.2,0-0.5,0-0.5-0.5h0c-0.2,0.3-0.6,0.5-0.9,0.5c-0.7,0-1-0.4-1-1.1c0-0.5,0.2-0.9,0.7-1l0.8-0.2
			c0.4-0.1,0.4-0.3,0.4-0.6c0-0.3-0.2-0.6-0.6-0.6c-0.6,0-0.6,0.6-0.6,0.7v0H145.7z M147.5,45.7c-0.2,0.2-0.7,0.3-1,0.4
			c-0.2,0.1-0.3,0.3-0.3,0.6c0,0.4,0.1,0.6,0.5,0.6c0.4,0,0.8-0.3,0.8-0.7V45.7z"/>
		<path class="st1" d="M150.5,45.1c0-0.5-0.1-0.7-0.6-0.7c-0.2,0-0.6,0-0.6,0.6c0,0.4,0.5,0.5,0.9,0.7c0.5,0.2,0.9,0.3,0.9,1.1
			c0,0.8-0.5,1.2-1.2,1.2c-1.3,0-1.3-0.9-1.3-1.3h0.6c0,0.5,0.1,0.9,0.7,0.9c0.2,0,0.6-0.1,0.6-0.6c0-0.5-0.5-0.6-0.9-0.8
			s-0.9-0.3-0.9-1.1c0-0.7,0.5-1,1.2-1c1.1,0,1.1,0.8,1.1,1.2H150.5z"/>
		<path class="st1" d="M153.2,45.1c0-0.5-0.1-0.7-0.6-0.7c-0.2,0-0.6,0-0.6,0.6c0,0.4,0.5,0.5,0.9,0.7c0.5,0.2,0.9,0.3,0.9,1.1
			c0,0.8-0.5,1.2-1.2,1.2c-1.3,0-1.3-0.9-1.3-1.3h0.6c0,0.5,0.1,0.9,0.7,0.9c0.2,0,0.6-0.1,0.6-0.6c0-0.5-0.5-0.6-0.9-0.8
			s-0.9-0.3-0.9-1.1c0-0.7,0.5-1,1.2-1c1.1,0,1.1,0.8,1.1,1.2H153.2z"/>
		<path class="st1" d="M154.3,45.1c0-0.9,0.4-1.2,1.3-1.2c1.1,0,1.1,0.7,1.1,1.1V47c0,0.2,0,0.3,0.2,0.3c0.1,0,0.1,0,0.1,0v0.4
			c0,0-0.2,0-0.3,0c-0.2,0-0.5,0-0.5-0.5h0c-0.2,0.3-0.6,0.5-0.9,0.5c-0.7,0-1-0.4-1-1.1c0-0.5,0.2-0.9,0.7-1l0.8-0.2
			c0.4-0.1,0.4-0.3,0.4-0.6c0-0.3-0.2-0.6-0.6-0.6c-0.6,0-0.6,0.6-0.6,0.7v0H154.3z M156.1,45.7c-0.2,0.2-0.7,0.3-1,0.4
			c-0.2,0.1-0.3,0.3-0.3,0.6c0,0.4,0.1,0.6,0.5,0.6c0.4,0,0.8-0.3,0.8-0.7V45.7z"/>
		<path class="st1" d="M157.5,42.7h0.6v1.7h0c0.1-0.3,0.5-0.5,0.9-0.5c1,0,1.1,1.2,1.1,2c0,1.1-0.4,2-1.2,2c-0.4,0-0.7-0.3-0.8-0.6
			h0v0.5h-0.6V42.7z M158.8,47.3c0.5,0,0.7-0.6,0.7-1.5c0-0.9-0.1-1.5-0.7-1.5c-0.6,0-0.8,0.7-0.8,1.5
			C158,46.6,158.1,47.3,158.8,47.3z"/>
		<path class="st1" d="M164.4,46.3c0,0.9-0.2,1.5-1.3,1.5c-0.8,0-1.2-0.5-1.2-1.1v-0.4h0.6v0.4c0,0.4,0.2,0.7,0.6,0.7
			c0.6,0,0.6-0.4,0.6-1.1v-3.5h0.6V46.3z"/>
		<path class="st1" d="M165.2,47h0.6v0.6c0,0.5,0,1-0.6,1.2v-0.3c0.2-0.1,0.3-0.3,0.3-0.5v-0.2h-0.3V47z"/>
		<path class="st1" d="M168.8,42.7h0.8l1.3,5h-0.6l-0.4-1.4h-1.6l-0.4,1.4h-0.6L168.8,42.7z M168.5,45.8h1.3l-0.6-2.4h0L168.5,45.8z
			"/>
		<path class="st1" d="M171.2,42.7h0.6v5h-0.6V42.7z"/>
		<path class="st1" d="M172.2,44h0.6l0.7,3h0l0.7-3h0.6l-1,3.8h-0.7L172.2,44z"/>
		<path class="st1" d="M175.2,45.1c0-0.9,0.4-1.2,1.3-1.2c1.1,0,1.1,0.7,1.1,1.1V47c0,0.2,0,0.3,0.2,0.3c0.1,0,0.1,0,0.1,0v0.4
			c0,0-0.2,0-0.3,0c-0.2,0-0.5,0-0.5-0.5h0c-0.2,0.3-0.6,0.5-0.9,0.5c-0.7,0-1-0.4-1-1.1c0-0.5,0.2-0.9,0.7-1l0.8-0.2
			c0.4-0.1,0.4-0.3,0.4-0.6c0-0.3-0.2-0.6-0.6-0.6c-0.6,0-0.6,0.6-0.6,0.7v0H175.2z M177.1,45.7c-0.2,0.2-0.7,0.3-1,0.4
			c-0.2,0.1-0.3,0.3-0.3,0.6c0,0.4,0.1,0.6,0.5,0.6c0.4,0,0.8-0.3,0.8-0.7V45.7z"/>
		<path class="st1" d="M178.4,44h0.6v0.6h0c0.2-0.4,0.4-0.7,0.8-0.7c0.1,0,0.2,0,0.3,0v0.6c-0.1,0-0.1,0-0.3,0
			c-0.3,0-0.8,0.3-0.8,0.9v2.4h-0.6V44z"/>
		<path class="st1" d="M180.3,45.1c0-0.9,0.4-1.2,1.3-1.2c1.1,0,1.1,0.7,1.1,1.1V47c0,0.2,0,0.3,0.2,0.3c0.1,0,0.1,0,0.1,0v0.4
			c0,0-0.2,0-0.3,0c-0.2,0-0.5,0-0.5-0.5h0c-0.2,0.3-0.6,0.5-0.9,0.5c-0.7,0-1-0.4-1-1.1c0-0.5,0.2-0.9,0.7-1l0.8-0.2
			c0.4-0.1,0.4-0.3,0.4-0.6c0-0.3-0.2-0.6-0.6-0.6c-0.6,0-0.6,0.6-0.6,0.7v0H180.3z M182.1,45.7c-0.2,0.2-0.7,0.3-1,0.4
			c-0.2,0.1-0.3,0.3-0.3,0.6c0,0.4,0.1,0.6,0.5,0.6c0.4,0,0.8-0.3,0.8-0.7V45.7z"/>
		<path class="st1" d="M185.9,47.7h-0.6v-0.5h0c-0.1,0.3-0.4,0.6-0.8,0.6c-0.9,0-1.2-0.8-1.2-2c0-0.8,0.1-2,1.2-2
			c0.3,0,0.7,0.2,0.8,0.5h0v-1.7h0.6V47.7z M184.6,47.3c0.7,0,0.8-0.6,0.8-1.5c0-0.7-0.1-1.5-0.8-1.5c-0.5,0-0.7,0.6-0.7,1.5
			S184,47.3,184.6,47.3z"/>
		<path class="st1" d="M187.8,43.9c1.1,0,1.4,0.9,1.4,2s-0.3,2-1.4,2c-1.1,0-1.4-0.9-1.4-2S186.7,43.9,187.8,43.9z M188.5,45.8
			c0-0.8-0.1-1.5-0.7-1.5c-0.6,0-0.7,0.7-0.7,1.5s0.1,1.5,0.7,1.5C188.4,47.3,188.5,46.6,188.5,45.8z"/>
		<path class="st1" d="M191.2,42.7h1.6c0.8,0,1.3,0.5,1.3,1.3c0,0.5-0.2,1.1-0.8,1.3v0c0.4,0,0.7,0.4,0.7,0.8l0,0.9
			c0,0.6,0.1,0.7,0.3,0.8h-0.7c-0.1-0.1-0.2-0.5-0.2-0.7l0-0.8c0-0.7-0.4-0.7-0.7-0.7h-0.8v2.2h-0.6V42.7z M191.8,45h0.6
			c0.4,0,1,0,1-1c0-0.5-0.3-0.8-0.9-0.8h-0.7V45z"/>
		<path class="st1" d="M194.9,47h0.6v0.7h-0.6V47z"/>
		<path class="st1" d="M197.7,42.7h1l1,4h0l1-4h1v5h-0.6v-4.4h0l-1.1,4.4h-0.6l-1.1-4.4h0v4.4h-0.6V42.7z"/>
		<path class="st1" d="M202.4,45.1c0-0.9,0.4-1.2,1.3-1.2c1.1,0,1.1,0.7,1.1,1.1V47c0,0.2,0,0.3,0.2,0.3c0.1,0,0.1,0,0.1,0v0.4
			c0,0-0.2,0-0.3,0c-0.2,0-0.5,0-0.5-0.5h0c-0.2,0.3-0.6,0.5-0.9,0.5c-0.7,0-1-0.4-1-1.1c0-0.5,0.2-0.9,0.7-1l0.8-0.2
			c0.4-0.1,0.4-0.3,0.4-0.6c0-0.3-0.2-0.6-0.6-0.6c-0.6,0-0.6,0.6-0.6,0.7v0H202.4z M204.3,45.7c-0.2,0.2-0.7,0.3-1,0.4
			c-0.2,0.1-0.3,0.3-0.3,0.6c0,0.4,0.1,0.6,0.5,0.6c0.4,0,0.8-0.3,0.8-0.7V45.7z"/>
		<path class="st1" d="M205.6,44h0.6v0.4h0c0.2-0.3,0.5-0.5,0.9-0.5c1,0,1,0.8,1,1.2v2.7h-0.6v-2.6c0-0.3,0-0.8-0.6-0.8
			c-0.3,0-0.7,0.2-0.7,0.8v2.6h-0.6V44z"/>
		<path class="st1" d="M208.8,42.7h0.6v0.7h-0.6V42.7z M208.8,44h0.6v3.8h-0.6V44z"/>
		<path class="st1" d="M210.3,44.4h-0.5V44h0.5v-0.4c0-0.6,0.2-0.9,0.8-0.9h0.4v0.5h-0.3c-0.3,0-0.4,0.1-0.4,0.4V44h0.6v0.5h-0.6
			v3.3h-0.6V44.4z"/>
		<path class="st1" d="M212.3,45.9c0,0.6,0,1.4,0.7,1.4c0.6,0,0.6-0.6,0.6-0.9h0.6c0,0.4-0.2,1.3-1.3,1.3c-0.9,0-1.3-0.6-1.3-1.9
			c0-0.9,0.2-2,1.3-2c1.1,0,1.3,1,1.3,1.8v0.2H212.3z M213.7,45.4v-0.2c0-0.4-0.1-0.9-0.7-0.9c-0.6,0-0.7,0.8-0.7,1v0.1H213.7z"/>
		<path class="st1" d="M216.5,45.1c0-0.5-0.1-0.7-0.6-0.7c-0.2,0-0.6,0-0.6,0.6c0,0.4,0.5,0.5,0.9,0.7c0.5,0.2,0.9,0.3,0.9,1.1
			c0,0.8-0.5,1.2-1.2,1.2c-1.3,0-1.3-0.9-1.3-1.3h0.6c0,0.5,0.1,0.9,0.7,0.9c0.2,0,0.6-0.1,0.6-0.6c0-0.5-0.5-0.6-0.9-0.8
			s-0.9-0.3-0.9-1.1c0-0.7,0.5-1,1.2-1c1.1,0,1.1,0.8,1.1,1.2H216.5z"/>
		<path class="st1" d="M217.8,42.9h0.6V44h0.7v0.5h-0.7v2.4c0,0.3,0.1,0.4,0.4,0.4c0.1,0,0.2,0,0.3,0v0.5c-0.1,0-0.2,0-0.5,0
			c-0.6,0-0.8-0.3-0.8-0.7v-2.6h-0.5V44h0.5V42.9z"/>
		<path class="st1" d="M219.3,45.1c0-0.9,0.4-1.2,1.3-1.2c1.1,0,1.1,0.7,1.1,1.1V47c0,0.2,0,0.3,0.2,0.3c0.1,0,0.1,0,0.1,0v0.4
			c0,0-0.2,0-0.3,0c-0.2,0-0.5,0-0.5-0.5h0c-0.2,0.3-0.6,0.5-0.9,0.5c-0.7,0-1-0.4-1-1.1c0-0.5,0.2-0.9,0.7-1l0.8-0.2
			c0.4-0.1,0.4-0.3,0.4-0.6c0-0.3-0.2-0.6-0.6-0.6c-0.6,0-0.6,0.6-0.6,0.7v0H219.3z M221.1,45.7c-0.2,0.2-0.7,0.3-1,0.4
			c-0.2,0.1-0.3,0.3-0.3,0.6c0,0.4,0.1,0.6,0.5,0.6c0.4,0,0.8-0.3,0.8-0.7V45.7z"/>
		<path class="st1" d="M224.2,45.1c0-0.4-0.1-0.8-0.6-0.8c-0.4,0-0.7,0.2-0.7,1.6c0,0.5,0,1.5,0.7,1.5c0.5,0,0.6-0.5,0.6-0.9h0.6
			c0,0.6-0.3,1.4-1.2,1.4c-0.9,0-1.3-0.6-1.3-1.9c0-0.9,0.2-2,1.3-2c1,0,1.2,0.8,1.2,1.2H224.2z"/>
		<path class="st1" d="M225.4,42.7h0.6v0.7h-0.6V42.7z M225.4,44h0.6v3.8h-0.6V44z"/>
		<path class="st1" d="M227.9,43.9c1.1,0,1.4,0.9,1.4,2s-0.3,2-1.4,2c-1.1,0-1.4-0.9-1.4-2S226.8,43.9,227.9,43.9z M228.6,45.8
			c0-0.8-0.1-1.5-0.7-1.5c-0.6,0-0.7,0.7-0.7,1.5s0.1,1.5,0.7,1.5C228.5,47.3,228.6,46.6,228.6,45.8z"/>
		<path class="st1" d="M229.8,44h0.6v0.4h0c0.2-0.3,0.5-0.5,0.9-0.5c1,0,1,0.8,1,1.2v2.7h-0.6v-2.6c0-0.3,0-0.8-0.6-0.8
			c-0.3,0-0.7,0.2-0.7,0.8v2.6h-0.6V44z"/>
		<path class="st1" d="M233.4,45.9c0,0.6,0,1.4,0.7,1.4c0.6,0,0.6-0.6,0.6-0.9h0.6c0,0.4-0.2,1.3-1.3,1.3c-0.9,0-1.3-0.6-1.3-1.9
			c0-0.9,0.2-2,1.3-2c1.1,0,1.3,1,1.3,1.8v0.2H233.4z M234.8,45.4v-0.2c0-0.4-0.1-0.9-0.7-0.9c-0.6,0-0.7,0.8-0.7,1v0.1H234.8z"/>
		<path class="st1" d="M237.6,45.1c0-0.5-0.1-0.7-0.6-0.7c-0.2,0-0.6,0-0.6,0.6c0,0.4,0.5,0.5,0.9,0.7c0.5,0.2,0.9,0.3,0.9,1.1
			c0,0.8-0.5,1.2-1.2,1.2c-1.3,0-1.3-0.9-1.3-1.3h0.6c0,0.5,0.1,0.9,0.7,0.9c0.2,0,0.6-0.1,0.6-0.6c0-0.5-0.5-0.6-0.9-0.8
			c-0.5-0.2-0.9-0.3-0.9-1.1c0-0.7,0.5-1,1.2-1c1.1,0,1.1,0.8,1.1,1.2H237.6z"/>
		<path class="st1" d="M242.1,45.1c0-0.4-0.1-0.8-0.6-0.8c-0.4,0-0.7,0.2-0.7,1.6c0,0.5,0,1.5,0.7,1.5c0.5,0,0.6-0.5,0.6-0.9h0.6
			c0,0.6-0.3,1.4-1.2,1.4c-0.9,0-1.3-0.6-1.3-1.9c0-0.9,0.2-2,1.3-2c1,0,1.2,0.8,1.2,1.2H242.1z"/>
		<path class="st1" d="M243.1,42.7h0.6v5h-0.6V42.7z"/>
		<path class="st1" d="M244.9,42.4h0.7l-0.8,1h-0.4L244.9,42.4z M244.5,44h0.6v3.8h-0.6V44z"/>
		<path class="st1" d="M245.8,44h0.6v0.4h0c0.2-0.3,0.5-0.5,0.9-0.5c1,0,1,0.8,1,1.2v2.7h-0.6v-2.6c0-0.3,0-0.8-0.6-0.8
			c-0.3,0-0.7,0.2-0.7,0.8v2.6h-0.6V44z"/>
		<path class="st1" d="M249,42.7h0.6v0.7H249V42.7z M249,44h0.6v3.8H249V44z"/>
		<path class="st1" d="M252.1,45.1c0-0.4-0.1-0.8-0.6-0.8c-0.4,0-0.7,0.2-0.7,1.6c0,0.5,0,1.5,0.7,1.5c0.5,0,0.6-0.5,0.6-0.9h0.6
			c0,0.6-0.3,1.4-1.2,1.4c-0.9,0-1.3-0.6-1.3-1.9c0-0.9,0.2-2,1.3-2c1,0,1.2,0.8,1.2,1.2H252.1z"/>
		<path class="st1" d="M253.2,45.1c0-0.9,0.4-1.2,1.3-1.2c1.1,0,1.1,0.7,1.1,1.1V47c0,0.2,0,0.3,0.2,0.3c0.1,0,0.1,0,0.1,0v0.4
			c0,0-0.2,0-0.3,0c-0.2,0-0.5,0-0.5-0.5h0c-0.2,0.3-0.6,0.5-0.9,0.5c-0.7,0-1-0.4-1-1.1c0-0.5,0.2-0.9,0.7-1l0.8-0.2
			c0.4-0.1,0.4-0.3,0.4-0.6c0-0.3-0.2-0.6-0.6-0.6c-0.6,0-0.6,0.6-0.6,0.7v0H253.2z M255,45.7c-0.2,0.2-0.7,0.3-1,0.4
			c-0.2,0.1-0.3,0.3-0.3,0.6c0,0.4,0.1,0.6,0.5,0.6c0.4,0,0.8-0.3,0.8-0.7V45.7z"/>
		<path class="st1" d="M257.9,45.1c0-0.5-0.1-0.7-0.6-0.7c-0.2,0-0.6,0-0.6,0.6c0,0.4,0.5,0.5,0.9,0.7c0.5,0.2,0.9,0.3,0.9,1.1
			c0,0.8-0.5,1.2-1.2,1.2c-1.3,0-1.3-0.9-1.3-1.3h0.6c0,0.5,0.1,0.9,0.7,0.9c0.2,0,0.6-0.1,0.6-0.6c0-0.5-0.5-0.6-0.9-0.8
			s-0.9-0.3-0.9-1.1c0-0.7,0.5-1,1.2-1c1.1,0,1.1,0.8,1.1,1.2H257.9z"/>
		<path class="st1" d="M260.3,44h0.6l0.7,3h0l0.7-3h0.6l-1.1,4c-0.1,0.5-0.3,1-1,1c-0.2,0-0.3,0-0.4,0v-0.5c0.1,0,0.2,0,0.3,0
			c0.3,0,0.4-0.2,0.5-0.4l0.1-0.3L260.3,44z"/>
		<path class="st1" d="M267.4,47.7h-0.6v-0.5h0c-0.1,0.3-0.4,0.6-0.8,0.6c-0.9,0-1.2-0.8-1.2-2c0-0.8,0.1-2,1.2-2
			c0.3,0,0.7,0.2,0.8,0.5h0v-1.7h0.6V47.7z M266.1,47.3c0.7,0,0.8-0.6,0.8-1.5c0-0.7-0.1-1.5-0.8-1.5c-0.5,0-0.7,0.6-0.7,1.5
			S265.6,47.3,266.1,47.3z"/>
		<path class="st1" d="M268.2,42.7h0.6v0.7h-0.6V42.7z M268.2,44h0.6v3.8h-0.6V44z"/>
		<path class="st1" d="M269.7,44.4h-0.5V44h0.5v-0.4c0-0.6,0.2-0.9,0.8-0.9h0.4v0.5h-0.3c-0.3,0-0.4,0.1-0.4,0.4V44h0.6v0.5h-0.6
			v3.3h-0.6V44.4z"/>
		<path class="st1" d="M271.7,45.9c0,0.6,0,1.4,0.7,1.4c0.6,0,0.6-0.6,0.6-0.9h0.6c0,0.4-0.2,1.3-1.3,1.3c-0.9,0-1.3-0.6-1.3-1.9
			c0-0.9,0.2-2,1.3-2c1.1,0,1.3,1,1.3,1.8v0.2H271.7z M273.1,45.4v-0.2c0-0.4-0.1-0.9-0.7-0.9c-0.6,0-0.7,0.8-0.7,1v0.1H273.1z"/>
		<path class="st1" d="M274.3,44h0.6v0.6h0c0.2-0.4,0.4-0.7,0.8-0.7c0.1,0,0.2,0,0.3,0v0.6c-0.1,0-0.1,0-0.3,0
			c-0.3,0-0.8,0.3-0.8,0.9v2.4h-0.6V44z"/>
		<path class="st1" d="M276.8,45.9c0,0.6,0,1.4,0.7,1.4c0.6,0,0.6-0.6,0.6-0.9h0.6c0,0.4-0.2,1.3-1.3,1.3c-0.9,0-1.3-0.6-1.3-1.9
			c0-0.9,0.2-2,1.3-2c1.1,0,1.3,1,1.3,1.8v0.2H276.8z M278.1,45.4v-0.2c0-0.4-0.1-0.9-0.7-0.9c-0.6,0-0.7,0.8-0.7,1v0.1H278.1z"/>
		<path class="st1" d="M279.3,44h0.6v0.4h0c0.2-0.3,0.5-0.5,0.9-0.5c1,0,1,0.8,1,1.2v2.7h-0.6v-2.6c0-0.3,0-0.8-0.6-0.8
			c-0.3,0-0.7,0.2-0.7,0.8v2.6h-0.6V44z"/>
		<path class="st1" d="M284.3,45.1c0-0.4-0.1-0.8-0.6-0.8c-0.4,0-0.7,0.2-0.7,1.6c0,0.5,0,1.5,0.7,1.5c0.5,0,0.6-0.5,0.6-0.9h0.6
			c0,0.6-0.3,1.4-1.2,1.4c-0.9,0-1.3-0.6-1.3-1.9c0-0.9,0.2-2,1.3-2c1,0,1.2,0.8,1.2,1.2H284.3z"/>
		<path class="st1" d="M285.4,42.7h0.6v0.7h-0.6V42.7z M285.4,44h0.6v3.8h-0.6V44z"/>
		<path class="st1" d="M286.7,45.1c0-0.9,0.4-1.2,1.3-1.2c1.1,0,1.1,0.7,1.1,1.1V47c0,0.2,0,0.3,0.2,0.3c0.1,0,0.1,0,0.1,0v0.4
			c0,0-0.2,0-0.3,0c-0.2,0-0.5,0-0.5-0.5h0c-0.2,0.3-0.6,0.5-0.9,0.5c-0.7,0-1-0.4-1-1.1c0-0.5,0.2-0.9,0.7-1l0.8-0.2
			c0.4-0.1,0.4-0.3,0.4-0.6c0-0.3-0.2-0.6-0.6-0.6c-0.6,0-0.6,0.6-0.6,0.7v0H286.7z M288.5,45.7c-0.2,0.2-0.7,0.3-1,0.4
			c-0.2,0.1-0.3,0.3-0.3,0.6c0,0.4,0.1,0.6,0.5,0.6c0.4,0,0.8-0.3,0.8-0.7V45.7z"/>
		<path class="st1" d="M291.6,45.1c0-0.4-0.1-0.8-0.6-0.8c-0.4,0-0.7,0.2-0.7,1.6c0,0.5,0,1.5,0.7,1.5c0.5,0,0.6-0.5,0.6-0.9h0.6
			c0,0.6-0.3,1.4-1.2,1.4c-0.9,0-1.3-0.6-1.3-1.9c0-0.9,0.2-2,1.3-2c1,0,1.2,0.8,1.2,1.2H291.6z"/>
		<path class="st1" d="M292.8,42.7h0.6v0.7h-0.6V42.7z M292.8,44h0.6v3.8h-0.6V44z"/>
		<path class="st1" d="M295.2,43.9c1.1,0,1.4,0.9,1.4,2s-0.3,2-1.4,2c-1.1,0-1.4-0.9-1.4-2S294.2,43.9,295.2,43.9z M296,45.8
			c0-0.8-0.1-1.5-0.7-1.5c-0.6,0-0.7,0.7-0.7,1.5s0.1,1.5,0.7,1.5C295.9,47.3,296,46.6,296,45.8z M295.4,42.4h0.7l-0.8,1h-0.4
			L295.4,42.4z"/>
		<path class="st1" d="M297.1,44h0.6v0.4h0c0.2-0.3,0.5-0.5,0.9-0.5c1,0,1,0.8,1,1.2v2.7H299v-2.6c0-0.3,0-0.8-0.6-0.8
			c-0.3,0-0.7,0.2-0.7,0.8v2.6h-0.6V44z"/>
		<path class="st1" d="M304.3,47.7h-0.6v-0.5h0c-0.1,0.3-0.4,0.6-0.8,0.6c-0.9,0-1.2-0.8-1.2-2c0-0.8,0.1-2,1.2-2
			c0.3,0,0.7,0.2,0.8,0.5h0v-1.7h0.6V47.7z M303,47.3c0.7,0,0.8-0.6,0.8-1.5c0-0.7-0.1-1.5-0.8-1.5c-0.5,0-0.7,0.6-0.7,1.5
			S302.5,47.3,303,47.3z"/>
		<path class="st1" d="M305.5,45.9c0,0.6,0,1.4,0.7,1.4c0.6,0,0.6-0.6,0.6-0.9h0.6c0,0.4-0.2,1.3-1.3,1.3c-0.9,0-1.3-0.6-1.3-1.9
			c0-0.9,0.2-2,1.3-2c1.1,0,1.3,1,1.3,1.8v0.2H305.5z M306.9,45.4v-0.2c0-0.4-0.1-0.9-0.7-0.9c-0.6,0-0.7,0.8-0.7,1v0.1H306.9z"/>
		<path class="st1" d="M309.7,42.7h0.6v5h-0.6V42.7z"/>
		<path class="st1" d="M312.2,43.9c1.1,0,1.4,0.9,1.4,2s-0.3,2-1.4,2c-1.1,0-1.4-0.9-1.4-2S311.1,43.9,312.2,43.9z M312.9,45.8
			c0-0.8-0.1-1.5-0.7-1.5c-0.6,0-0.7,0.7-0.7,1.5s0.1,1.5,0.7,1.5C312.8,47.3,312.9,46.6,312.9,45.8z"/>
		<path class="st1" d="M315.6,45.1c0-0.5-0.1-0.7-0.6-0.7c-0.2,0-0.6,0-0.6,0.6c0,0.4,0.5,0.5,0.9,0.7c0.5,0.2,0.9,0.3,0.9,1.1
			c0,0.8-0.5,1.2-1.2,1.2c-1.3,0-1.3-0.9-1.3-1.3h0.6c0,0.5,0.1,0.9,0.7,0.9c0.2,0,0.6-0.1,0.6-0.6c0-0.5-0.5-0.6-0.9-0.8
			c-0.5-0.2-0.9-0.3-0.9-1.1c0-0.7,0.5-1,1.2-1c1.1,0,1.1,0.8,1.1,1.2H315.6z"/>
		<path class="st1" d="M318.6,42.9h0.6V44h0.7v0.5h-0.7v2.4c0,0.3,0.1,0.4,0.4,0.4c0.1,0,0.2,0,0.3,0v0.5c-0.1,0-0.2,0-0.5,0
			c-0.6,0-0.8-0.3-0.8-0.7v-2.6H318V44h0.5V42.9z"/>
		<path class="st1" d="M320.2,42.7h0.6v0.7h-0.6V42.7z M320.2,44h0.6v3.8h-0.6V44z"/>
		<path class="st1" d="M321.5,44h0.6v0.5h0c0.1-0.3,0.4-0.6,0.8-0.6c0.9,0,1.2,0.8,1.2,1.9c0,0.9-0.3,2-1.2,2
			c-0.3,0-0.7-0.2-0.8-0.5h0v1.7h-0.6V44z M322.8,47.3c0.5,0,0.7-0.6,0.7-1.5c0-0.8-0.1-1.4-0.7-1.4c-0.7,0-0.8,0.6-0.8,1.5
			C322,46.6,322.2,47.3,322.8,47.3z"/>
		<path class="st1" d="M325.8,43.9c1.1,0,1.4,0.9,1.4,2s-0.3,2-1.4,2c-1.1,0-1.4-0.9-1.4-2S324.7,43.9,325.8,43.9z M326.6,45.8
			c0-0.8-0.1-1.5-0.7-1.5c-0.6,0-0.7,0.7-0.7,1.5s0.1,1.5,0.7,1.5C326.4,47.3,326.6,46.6,326.6,45.8z"/>
		<path class="st1" d="M329.3,45.1c0-0.5-0.1-0.7-0.6-0.7c-0.2,0-0.6,0-0.6,0.6c0,0.4,0.5,0.5,0.9,0.7c0.5,0.2,0.9,0.3,0.9,1.1
			c0,0.8-0.5,1.2-1.2,1.2c-1.3,0-1.3-0.9-1.3-1.3h0.6c0,0.5,0.1,0.9,0.7,0.9c0.2,0,0.6-0.1,0.6-0.6c0-0.5-0.5-0.6-0.9-0.8
			s-0.9-0.3-0.9-1.1c0-0.7,0.5-1,1.2-1c1.1,0,1.1,0.8,1.1,1.2H329.3z"/>
		<path class="st1" d="M334.5,47.7H334v-0.5h0c-0.1,0.3-0.4,0.6-0.8,0.6c-0.9,0-1.2-0.8-1.2-2c0-0.8,0.1-2,1.2-2
			c0.3,0,0.7,0.2,0.8,0.5h0v-1.7h0.6V47.7z M333.2,47.3c0.7,0,0.8-0.6,0.8-1.5c0-0.7-0.1-1.5-0.8-1.5c-0.5,0-0.7,0.6-0.7,1.5
			S332.7,47.3,333.2,47.3z"/>
		<path class="st1" d="M335.7,45.9c0,0.6,0,1.4,0.7,1.4c0.6,0,0.6-0.6,0.6-0.9h0.6c0,0.4-0.2,1.3-1.3,1.3c-0.9,0-1.3-0.6-1.3-1.9
			c0-0.9,0.2-2,1.3-2c1.1,0,1.3,1,1.3,1.8v0.2H335.7z M337.1,45.4v-0.2c0-0.4-0.1-0.9-0.7-0.9c-0.6,0-0.7,0.8-0.7,1v0.1H337.1z"/>
		<path class="st1" d="M339.9,42.7h0.6v0.7h-0.6V42.7z M339.9,44h0.6v3.8h-0.6V44z"/>
		<path class="st1" d="M341.2,44h0.6v0.4h0c0.2-0.3,0.5-0.5,0.9-0.5c1,0,1,0.8,1,1.2v2.7h-0.6v-2.6c0-0.3,0-0.8-0.6-0.8
			c-0.3,0-0.7,0.2-0.7,0.8v2.6h-0.6V44z"/>
		<path class="st1" d="M346,45.1c0-0.5-0.1-0.7-0.6-0.7c-0.2,0-0.6,0-0.6,0.6c0,0.4,0.5,0.5,0.9,0.7c0.5,0.2,0.9,0.3,0.9,1.1
			c0,0.8-0.5,1.2-1.2,1.2c-1.3,0-1.3-0.9-1.3-1.3h0.6c0,0.5,0.1,0.9,0.7,0.9c0.2,0,0.6-0.1,0.6-0.6c0-0.5-0.5-0.6-0.9-0.8
			s-0.9-0.3-0.9-1.1c0-0.7,0.5-1,1.2-1c1.1,0,1.1,0.8,1.1,1.2H346z"/>
		<path class="st1" d="M348.3,43.9c1.1,0,1.4,0.9,1.4,2s-0.3,2-1.4,2c-1.1,0-1.4-0.9-1.4-2S347.2,43.9,348.3,43.9z M349,45.8
			c0-0.8-0.1-1.5-0.7-1.5c-0.6,0-0.7,0.7-0.7,1.5s0.1,1.5,0.7,1.5C348.9,47.3,349,46.6,349,45.8z"/>
		<path class="st1" d="M350.2,44h0.6v0.4h0c0.2-0.3,0.5-0.5,0.9-0.5c0.4,0,0.7,0.2,0.8,0.6c0.2-0.3,0.5-0.6,0.9-0.6c1,0,1,0.8,1,1.2
			v2.7h-0.6v-2.6c0-0.3,0-0.8-0.5-0.8c-0.3,0-0.7,0.2-0.7,0.8v2.6H352v-2.6c0-0.3,0-0.8-0.5-0.8c-0.3,0-0.7,0.2-0.7,0.8v2.6h-0.6V44
			z"/>
		<path class="st1" d="M355.2,44h0.6v0.4h0c0.2-0.3,0.5-0.5,0.9-0.5c1,0,1,0.8,1,1.2v2.7H357v-2.6c0-0.3,0-0.8-0.6-0.8
			c-0.3,0-0.7,0.2-0.7,0.8v2.6h-0.6V44z"/>
		<path class="st1" d="M358.4,42.7h0.6v0.7h-0.6V42.7z M358.4,44h0.6v3.8h-0.6V44z"/>
		<path class="st1" d="M360.9,43.9c1.1,0,1.4,0.9,1.4,2s-0.3,2-1.4,2c-1.1,0-1.4-0.9-1.4-2S359.8,43.9,360.9,43.9z M361.6,45.8
			c0-0.8-0.1-1.5-0.7-1.5c-0.6,0-0.7,0.7-0.7,1.5s0.1,1.5,0.7,1.5C361.5,47.3,361.6,46.6,361.6,45.8z"/>
		<path class="st1" d="M362.9,47h0.6v0.7h-0.6V47z"/>
		<path class="st1" d="M365.7,42.7h1.3c0.4,0,1.5,0,1.5,1.4c0,0.9-0.6,1.4-1.4,1.4h-0.8v2.1h-0.6V42.7z M366.3,45.1h0.7
			c0.4,0,0.8-0.3,0.8-1c0-0.5-0.3-0.9-0.9-0.9h-0.7V45.1z"/>
		<path class="st1" d="M368.9,44h0.6v0.6h0c0.2-0.4,0.4-0.7,0.8-0.7c0.1,0,0.2,0,0.3,0v0.6c-0.1,0-0.1,0-0.3,0
			c-0.3,0-0.8,0.3-0.8,0.9v2.4h-0.6V44z"/>
		<path class="st1" d="M371,42.7h0.6v0.7H371V42.7z M371,44h0.6v3.8H371V44z"/>
		<path class="st1" d="M372.4,44h0.6v0.4h0c0.2-0.3,0.5-0.5,0.9-0.5c0.4,0,0.7,0.2,0.8,0.6c0.2-0.3,0.5-0.6,0.9-0.6c1,0,1,0.8,1,1.2
			v2.7h-0.6v-2.6c0-0.3,0-0.8-0.5-0.8c-0.3,0-0.7,0.2-0.7,0.8v2.6h-0.6v-2.6c0-0.3,0-0.8-0.5-0.8c-0.3,0-0.7,0.2-0.7,0.8v2.6h-0.6
			V44z"/>
		<path class="st1" d="M377.8,45.9c0,0.6,0,1.4,0.7,1.4c0.6,0,0.6-0.6,0.6-0.9h0.6c0,0.4-0.2,1.3-1.3,1.3c-0.9,0-1.3-0.6-1.3-1.9
			c0-0.9,0.2-2,1.3-2c1.1,0,1.3,1,1.3,1.8v0.2H377.8z M379.1,45.4v-0.2c0-0.4-0.1-0.9-0.7-0.9c-0.6,0-0.7,0.8-0.7,1v0.1H379.1z"/>
		<path class="st1" d="M380.3,44h0.6v0.6h0c0.2-0.4,0.4-0.7,0.8-0.7c0.1,0,0.2,0,0.3,0v0.6c-0.1,0-0.1,0-0.3,0
			c-0.3,0-0.8,0.3-0.8,0.9v2.4h-0.6V44z"/>
		<path class="st1" d="M382.2,45.1c0-0.9,0.4-1.2,1.3-1.2c1.1,0,1.1,0.7,1.1,1.1V47c0,0.2,0,0.3,0.2,0.3c0.1,0,0.1,0,0.1,0v0.4
			c0,0-0.2,0-0.3,0c-0.2,0-0.5,0-0.5-0.5h0c-0.2,0.3-0.6,0.5-0.9,0.5c-0.7,0-1-0.4-1-1.1c0-0.5,0.2-0.9,0.7-1l0.8-0.2
			c0.4-0.1,0.4-0.3,0.4-0.6c0-0.3-0.2-0.6-0.6-0.6c-0.6,0-0.6,0.6-0.6,0.7v0H382.2z M384,45.7c-0.2,0.2-0.7,0.3-1,0.4
			c-0.2,0.1-0.3,0.3-0.3,0.6c0,0.4,0.1,0.6,0.5,0.6c0.4,0,0.8-0.3,0.8-0.7V45.7z"/>
		<path class="st1" d="M386.9,44h0.6v0.5h0c0.1-0.3,0.4-0.6,0.8-0.6c0.9,0,1.2,0.8,1.2,1.9c0,0.9-0.3,2-1.2,2
			c-0.3,0-0.7-0.2-0.8-0.5h0v1.7h-0.6V44z M388.2,47.3c0.5,0,0.7-0.6,0.7-1.5c0-0.8-0.1-1.4-0.7-1.4c-0.7,0-0.8,0.6-0.8,1.5
			C387.5,46.6,387.6,47.3,388.2,47.3z"/>
		<path class="st1" d="M390,45.1c0-0.9,0.4-1.2,1.3-1.2c1.1,0,1.1,0.7,1.1,1.1V47c0,0.2,0,0.3,0.2,0.3c0.1,0,0.1,0,0.1,0v0.4
			c0,0-0.2,0-0.3,0c-0.2,0-0.5,0-0.5-0.5h0c-0.2,0.3-0.6,0.5-0.9,0.5c-0.7,0-1-0.4-1-1.1c0-0.5,0.2-0.9,0.7-1l0.8-0.2
			c0.4-0.1,0.4-0.3,0.4-0.6c0-0.3-0.2-0.6-0.6-0.6c-0.6,0-0.6,0.6-0.6,0.7v0H390z M391.8,45.7c-0.2,0.2-0.7,0.3-1,0.4
			c-0.2,0.1-0.3,0.3-0.3,0.6c0,0.4,0.1,0.6,0.5,0.6c0.4,0,0.8-0.3,0.8-0.7V45.7z"/>
		<path class="st1" d="M393.1,44h0.6v0.6h0c0.2-0.4,0.4-0.7,0.8-0.7c0.1,0,0.2,0,0.3,0v0.6c-0.1,0-0.1,0-0.3,0
			c-0.3,0-0.8,0.3-0.8,0.9v2.4h-0.6V44z"/>
		<path class="st1" d="M395.3,42.9h0.6V44h0.7v0.5h-0.7v2.4c0,0.3,0.1,0.4,0.4,0.4c0.1,0,0.2,0,0.3,0v0.5c-0.1,0-0.2,0-0.5,0
			c-0.6,0-0.8-0.3-0.8-0.7v-2.6h-0.5V44h0.5V42.9z"/>
		<path class="st1" d="M397.4,45.9c0,0.6,0,1.4,0.7,1.4c0.6,0,0.6-0.6,0.6-0.9h0.6c0,0.4-0.2,1.3-1.3,1.3c-0.9,0-1.3-0.6-1.3-1.9
			c0-0.9,0.2-2,1.3-2c1.1,0,1.3,1,1.3,1.8v0.2H397.4z M398.7,45.4v-0.2c0-0.4-0.1-0.9-0.7-0.9c-0.6,0-0.7,0.8-0.7,1v0.1H398.7z"/>
		<path class="st1" d="M400.1,47h0.6v0.7h-0.6V47z"/>
		<path class="st1" d="M403.6,42.7h0.8l1.3,5h-0.6l-0.4-1.4h-1.6l-0.4,1.4h-0.6L403.6,42.7z M403.3,45.8h1.3l-0.6-2.4h0L403.3,45.8z
			"/>
		<path class="st1" d="M406,44h0.6v0.6h0c0.2-0.4,0.4-0.7,0.8-0.7c0.1,0,0.2,0,0.3,0v0.6c-0.1,0-0.1,0-0.3,0c-0.3,0-0.8,0.3-0.8,0.9
			v2.4H406V44z"/>
		<path class="st1" d="M409.8,45.1c0-0.4-0.1-0.8-0.6-0.8c-0.4,0-0.7,0.2-0.7,1.6c0,0.5,0,1.5,0.7,1.5c0.5,0,0.6-0.5,0.6-0.9h0.6
			c0,0.6-0.3,1.4-1.2,1.4c-0.9,0-1.3-0.6-1.3-1.9c0-0.9,0.2-2,1.3-2c1,0,1.2,0.8,1.2,1.2H409.8z"/>
		<path class="st1" d="M410.9,42.7h0.6v1.7h0c0.2-0.3,0.6-0.5,0.9-0.5c1,0,1,0.8,1,1.2v2.7h-0.6v-2.6c0-0.3,0-0.8-0.6-0.8
			c-0.3,0-0.7,0.2-0.7,0.8v2.6h-0.6V42.7z"/>
		<path class="st1" d="M0.9,51.1h0.8l1.7,4.2h0v-4.2H4v5H3.1l-1.6-4h0v4H0.9V51.1z"/>
		<path class="st1" d="M5.2,54.3c0,0.6,0,1.4,0.7,1.4c0.6,0,0.6-0.6,0.6-0.9h0.6c0,0.4-0.2,1.3-1.3,1.3c-0.9,0-1.3-0.6-1.3-1.9
			c0-0.9,0.2-2,1.3-2c1.1,0,1.3,1,1.3,1.8v0.2H5.2z M6.6,53.8v-0.2c0-0.4-0.1-0.9-0.7-0.9c-0.6,0-0.7,0.8-0.7,1v0.1H6.6z"/>
		<path class="st1" d="M10.2,56.1H9.7v-0.4h0c-0.2,0.3-0.5,0.5-0.9,0.5c-1,0-1-0.7-1-1.2v-2.7h0.6v2.6c0,0.3,0,0.8,0.6,0.8
			c0.3,0,0.7-0.2,0.7-0.8v-2.6h0.6V56.1z"/>
		<path class="st1" d="M10.9,52.4h0.6v0.6h0c0.2-0.4,0.4-0.7,0.8-0.7c0.1,0,0.2,0,0.3,0v0.6c-0.1,0-0.1,0-0.3,0
			c-0.3,0-0.8,0.3-0.8,0.9v2.4h-0.6V52.4z"/>
		<path class="st1" d="M14.1,52.3c1.1,0,1.4,0.9,1.4,2s-0.3,2-1.4,2c-1.1,0-1.4-0.9-1.4-2S13,52.3,14.1,52.3z M14.8,54.2
			c0-0.8-0.1-1.5-0.7-1.5c-0.6,0-0.7,0.7-0.7,1.5s0.1,1.5,0.7,1.5C14.7,55.7,14.8,55,14.8,54.2z"/>
		<path class="st1" d="M17.7,53.5c0-0.4-0.1-0.8-0.6-0.8c-0.4,0-0.7,0.2-0.7,1.6c0,0.5,0,1.5,0.7,1.5c0.5,0,0.6-0.5,0.6-0.9h0.6
			c0,0.6-0.3,1.4-1.2,1.4c-0.9,0-1.3-0.6-1.3-1.9c0-0.9,0.2-2,1.3-2c1,0,1.2,0.8,1.2,1.2H17.7z"/>
		<path class="st1" d="M18.9,51.1h0.6v0.7h-0.6V51.1z M18.9,52.4h0.6v3.8h-0.6V52.4z"/>
		<path class="st1" d="M20.7,54.3c0,0.6,0,1.4,0.7,1.4c0.6,0,0.6-0.6,0.6-0.9h0.6c0,0.4-0.2,1.3-1.3,1.3c-0.9,0-1.3-0.6-1.3-1.9
			c0-0.9,0.2-2,1.3-2c1.1,0,1.3,1,1.3,1.8v0.2H20.7z M22.1,53.8v-0.2c0-0.4-0.1-0.9-0.7-0.9c-0.6,0-0.7,0.8-0.7,1v0.1H22.1z"/>
		<path class="st1" d="M23.3,52.4h0.6v0.4h0c0.2-0.3,0.5-0.5,0.9-0.5c1,0,1,0.8,1,1.2v2.7h-0.6v-2.6c0-0.3,0-0.8-0.6-0.8
			c-0.3,0-0.7,0.2-0.7,0.8v2.6h-0.6V52.4z"/>
		<path class="st1" d="M29.3,51.1c-0.6,0.9-0.8,2.1-0.8,3.1c0,1.1,0.3,2.1,0.8,3.1H29c-0.7-0.9-1-2-1-3.1c0-1.1,0.4-2.2,1-3.1H29.3z
			"/>
		<path class="st1" d="M29.7,51.1h1l1,4h0l1-4h1v5h-0.6v-4.4h0L32,56.1h-0.6l-1.1-4.4h0v4.4h-0.6V51.1z"/>
		<path class="st1" d="M35,54.3c0,0.6,0,1.4,0.7,1.4c0.6,0,0.6-0.6,0.6-0.9H37c0,0.4-0.2,1.3-1.3,1.3c-0.9,0-1.3-0.6-1.3-1.9
			c0-0.9,0.2-2,1.3-2c1.1,0,1.3,1,1.3,1.8v0.2H35z M36.4,53.8v-0.2c0-0.4-0.1-0.9-0.7-0.9c-0.6,0-0.7,0.8-0.7,1v0.1H36.4z"/>
		<path class="st1" d="M37.3,52.4h0.6l0.7,1.3l0.7-1.3h0.6l-1,1.8l1,2h-0.6l-0.7-1.5l-0.7,1.5h-0.6l1-2L37.3,52.4z"/>
		<path class="st1" d="M40,57.4c0.6-0.9,0.8-2.1,0.8-3.1c0-1.1-0.3-2.1-0.8-3.1h0.3c0.7,0.9,1,2,1,3.1c0,1.1-0.4,2.2-1,3.1H40z"/>
		<path class="st1" d="M46.2,56.1h-2.8c0-0.9,0.5-1.6,1.1-2l0.4-0.3c0.4-0.3,0.7-0.6,0.7-1.2c0-0.4-0.2-0.9-0.7-0.9
			c-0.8,0-0.8,0.8-0.8,1.1h-0.6c0-0.9,0.4-1.6,1.4-1.6c1.1,0,1.3,0.9,1.3,1.3c0,0.8-0.3,1.2-0.9,1.6l-0.7,0.6
			c-0.3,0.2-0.5,0.5-0.5,0.8h2.1V56.1z"/>
		<path class="st1" d="M46.7,53.7c0-1.1,0.1-2.5,1.4-2.5c1.3,0,1.4,1.3,1.4,2.5c0,1.1-0.1,2.5-1.4,2.5
			C46.8,56.2,46.7,54.9,46.7,53.7z M48.1,55.7c0.8,0,0.8-1,0.8-2c0-1.1,0-2.1-0.8-2.1c-0.8,0-0.8,1-0.8,2.1
			C47.3,54.7,47.4,55.7,48.1,55.7z"/>
		<path class="st1" d="M50.2,52c0.6,0,1.2-0.1,1.2-0.8h0.4v5h-0.6v-3.7h-1.1V52z"/>
		<path class="st1" d="M53.3,53.7c0-1.1,0.1-2.5,1.4-2.5s1.4,1.3,1.4,2.5c0,1.1-0.1,2.5-1.4,2.5S53.3,54.9,53.3,53.7z M54.7,55.7
			c0.8,0,0.8-1,0.8-2c0-1.1,0-2.1-0.8-2.1s-0.8,1-0.8,2.1C53.9,54.7,54,55.7,54.7,55.7z"/>
		<path class="st1" d="M56.8,52.6h0.6v0.7h-0.6V52.6z M56.8,55.4h0.6V56c0,0.5,0,1-0.6,1.2v-0.3c0.2-0.1,0.3-0.3,0.3-0.5v-0.2h-0.3
			V55.4z"/>
		<path class="st1" d="M58.4,52c0.6,0,1.2-0.1,1.2-0.8H60v5h-0.6v-3.7h-1.1V52z"/>
		<path class="st1" d="M61.9,51.2h2.2v0.5h-1.7l-0.2,1.4l0,0c0.2-0.2,0.5-0.4,0.9-0.4c0.7,0,1.2,0.6,1.2,1.6c0,0.9-0.4,1.7-1.4,1.7
			c-1.2,0-1.4-1-1.4-1.4h0.6c0,0.3,0.1,0.9,0.8,0.9c0.7,0,0.8-0.8,0.8-1.3c0-0.5-0.2-1.1-0.8-1.1c-0.4,0-0.7,0.4-0.7,0.5l-0.5,0
			L61.9,51.2z"/>
		<path class="st1" d="M66.2,51.1c-0.6,0.9-0.8,2.1-0.8,3.1c0,1.1,0.3,2.1,0.8,3.1h-0.3c-0.7-0.9-1-2-1-3.1c0-1.1,0.4-2.2,1-3.1
			H66.2z"/>
		<path class="st1" d="M69.2,56.1h-2.8c0-0.9,0.5-1.6,1.1-2l0.4-0.3c0.4-0.3,0.7-0.6,0.7-1.2c0-0.4-0.2-0.9-0.7-0.9
			c-0.8,0-0.8,0.8-0.8,1.1h-0.6c0-0.9,0.4-1.6,1.4-1.6c1.1,0,1.3,0.9,1.3,1.3c0,0.8-0.3,1.2-0.9,1.6l-0.7,0.6
			c-0.3,0.2-0.5,0.5-0.5,0.8h2.1V56.1z"/>
		<path class="st1" d="M69.4,57.4c0.6-0.9,0.8-2.1,0.8-3.1c0-1.1-0.3-2.1-0.8-3.1h0.3c0.7,0.9,1,2,1,3.1c0,1.1-0.4,2.2-1,3.1H69.4z"
			/>
		<path class="st1" d="M71.6,52.6h0.6v0.7h-0.6V52.6z M71.6,55.4h0.6v0.7h-0.6V55.4z"/>
		<path class="st1" d="M73.1,52c0.6,0,1.2-0.1,1.2-0.8h0.4v5h-0.6v-3.7h-1.1V52z"/>
		<path class="st1" d="M76.2,53.7c0-1.1,0.1-2.5,1.4-2.5s1.4,1.3,1.4,2.5c0,1.1-0.1,2.5-1.4,2.5S76.2,54.9,76.2,53.7z M77.6,55.7
			c0.8,0,0.8-1,0.8-2c0-1.1,0-2.1-0.8-2.1s-0.8,1-0.8,2.1C76.8,54.7,76.9,55.7,77.6,55.7z"/>
		<path class="st1" d="M79.7,52c0.6,0,1.2-0.1,1.2-0.8h0.4v5h-0.6v-3.7h-1.1V52z"/>
		<path class="st1" d="M82.9,53.8h1.7v0.5h-1.7V53.8z"/>
		<path class="st1" d="M85.4,52c0.6,0,1.2-0.1,1.2-0.8H87v5h-0.6v-3.7h-1.1V52z"/>
		<path class="st1" d="M88.7,52c0.6,0,1.2-0.1,1.2-0.8h0.4v5h-0.6v-3.7h-1.1V52z"/>
		<path class="st1" d="M92,52c0.6,0,1.2-0.1,1.2-0.8h0.4v5H93v-3.7H92V52z"/>
		<path class="st0" d="M97.5,54.7c0,0.6,0.1,0.9,0.6,0.9c0.5,0,0.6-0.4,0.6-0.8c0-0.4-0.1-0.8-0.7-0.8h-0.3v-0.7h0.3
			c0.4,0,0.6-0.4,0.6-0.8c0-0.5-0.2-0.7-0.5-0.7c-0.4,0-0.5,0.3-0.5,0.8h-0.9c0-1,0.5-1.5,1.5-1.5c0.9,0,1.4,0.4,1.4,1.3
			c0,0.6-0.3,1-0.8,1.1v0c0.6,0.1,0.9,0.5,0.9,1.2c0,0.7-0.3,1.5-1.6,1.5c-1,0-1.4-0.6-1.4-1.5v0H97.5z"/>
		<path class="st0" d="M101,55v1.1h-0.9V55H101z"/>
		<path class="st1" d="M103.3,51.1h0.6v5h-0.6V51.1z"/>
		<path class="st1" d="M104.6,52.4h0.6v0.4h0c0.2-0.3,0.5-0.5,0.9-0.5c1,0,1,0.8,1,1.2v2.7h-0.6v-2.6c0-0.3,0-0.8-0.6-0.8
			c-0.3,0-0.7,0.2-0.7,0.8v2.6h-0.6V52.4z"/>
		<path class="st1" d="M108,52.8h-0.5v-0.5h0.5v-0.4c0-0.6,0.2-0.9,0.8-0.9h0.4v0.5H109c-0.3,0-0.4,0.1-0.4,0.4v0.4h0.6v0.5h-0.6
			v3.3H108V52.8z"/>
		<path class="st1" d="M110.7,52.3c1.1,0,1.4,0.9,1.4,2s-0.3,2-1.4,2c-1.1,0-1.4-0.9-1.4-2S109.6,52.3,110.7,52.3z M111.5,54.2
			c0-0.8-0.1-1.5-0.7-1.5c-0.6,0-0.7,0.7-0.7,1.5s0.1,1.5,0.7,1.5C111.3,55.7,111.5,55,111.5,54.2z"/>
		<path class="st1" d="M112.6,52.4h0.6v0.6h0c0.2-0.4,0.4-0.7,0.8-0.7c0.1,0,0.2,0,0.3,0v0.6c-0.1,0-0.1,0-0.3,0
			c-0.3,0-0.8,0.3-0.8,0.9v2.4h-0.6V52.4z"/>
		<path class="st1" d="M114.7,52.4h0.6v0.4h0c0.2-0.3,0.5-0.5,0.9-0.5c0.4,0,0.7,0.2,0.8,0.6c0.2-0.3,0.5-0.6,0.9-0.6
			c1,0,1,0.8,1,1.2v2.7h-0.6v-2.6c0-0.3,0-0.8-0.5-0.8c-0.3,0-0.7,0.2-0.7,0.8v2.6h-0.6v-2.6c0-0.3,0-0.8-0.5-0.8
			c-0.3,0-0.7,0.2-0.7,0.8v2.6h-0.6V52.4z"/>
		<path class="st1" d="M119.5,53.5c0-0.9,0.4-1.2,1.3-1.2c1.1,0,1.1,0.7,1.1,1.1v2.1c0,0.2,0,0.3,0.2,0.3c0.1,0,0.1,0,0.1,0v0.4
			c0,0-0.2,0-0.3,0c-0.2,0-0.5,0-0.5-0.5h0c-0.2,0.3-0.6,0.5-0.9,0.5c-0.7,0-1-0.4-1-1.1c0-0.5,0.2-0.9,0.7-1l0.8-0.2
			c0.4-0.1,0.4-0.3,0.4-0.6c0-0.3-0.2-0.6-0.6-0.6c-0.6,0-0.6,0.6-0.6,0.7v0H119.5z M121.3,54.1c-0.2,0.2-0.7,0.3-1,0.4
			c-0.2,0.1-0.3,0.3-0.3,0.6c0,0.4,0.1,0.6,0.5,0.6c0.4,0,0.8-0.3,0.8-0.7V54.1z"/>
		<path class="st1" d="M124.4,53.5c0-0.4-0.1-0.8-0.6-0.8c-0.4,0-0.7,0.2-0.7,1.6c0,0.5,0,1.5,0.7,1.5c0.5,0,0.6-0.5,0.6-0.9h0.6
			c0,0.6-0.3,1.4-1.2,1.4c-0.9,0-1.3-0.6-1.3-1.9c0-0.9,0.2-2,1.3-2c1,0,1.2,0.8,1.2,1.2H124.4z"/>
		<path class="st1" d="M125.6,51.1h0.6v0.7h-0.6V51.1z M125.6,52.4h0.6v3.8h-0.6V52.4z"/>
		<path class="st1" d="M128.1,52.3c1.1,0,1.4,0.9,1.4,2s-0.3,2-1.4,2c-1.1,0-1.4-0.9-1.4-2S127,52.3,128.1,52.3z M128.8,54.2
			c0-0.8-0.1-1.5-0.7-1.5c-0.6,0-0.7,0.7-0.7,1.5s0.1,1.5,0.7,1.5C128.7,55.7,128.8,55,128.8,54.2z M128.2,50.8h0.7l-0.8,1h-0.4
			L128.2,50.8z"/>
		<path class="st1" d="M129.9,52.4h0.6v0.4h0c0.2-0.3,0.5-0.5,0.9-0.5c1,0,1,0.8,1,1.2v2.7h-0.6v-2.6c0-0.3,0-0.8-0.6-0.8
			c-0.3,0-0.7,0.2-0.7,0.8v2.6h-0.6V52.4z"/>
		<path class="st1" d="M134.7,51.1h1.3c0.4,0,1.5,0,1.5,1.4c0,0.9-0.6,1.4-1.4,1.4h-0.8v2.1h-0.6V51.1z M135.3,53.5h0.7
			c0.4,0,0.8-0.3,0.8-1c0-0.5-0.3-0.9-0.9-0.9h-0.7V53.5z"/>
		<path class="st1" d="M137.8,53.5c0-0.9,0.4-1.2,1.3-1.2c1.1,0,1.1,0.7,1.1,1.1v2.1c0,0.2,0,0.3,0.2,0.3c0.1,0,0.1,0,0.1,0v0.4
			c0,0-0.2,0-0.3,0c-0.2,0-0.5,0-0.5-0.5h0c-0.2,0.3-0.6,0.5-0.9,0.5c-0.7,0-1-0.4-1-1.1c0-0.5,0.2-0.9,0.7-1l0.8-0.2
			c0.4-0.1,0.4-0.3,0.4-0.6c0-0.3-0.2-0.6-0.6-0.6c-0.6,0-0.6,0.6-0.6,0.7v0H137.8z M139.6,54.1c-0.2,0.2-0.7,0.3-1,0.4
			c-0.2,0.1-0.3,0.3-0.3,0.6c0,0.4,0.1,0.6,0.5,0.6c0.4,0,0.8-0.3,0.8-0.7V54.1z"/>
		<path class="st1" d="M140.9,52.4h0.6v0.6h0c0.2-0.4,0.4-0.7,0.8-0.7c0.1,0,0.2,0,0.3,0v0.6c-0.1,0-0.1,0-0.3,0
			c-0.3,0-0.8,0.3-0.8,0.9v2.4h-0.6V52.4z"/>
		<path class="st1" d="M142.8,53.5c0-0.9,0.4-1.2,1.3-1.2c1.1,0,1.1,0.7,1.1,1.1v2.1c0,0.2,0,0.3,0.2,0.3c0.1,0,0.1,0,0.1,0v0.4
			c0,0-0.2,0-0.3,0c-0.2,0-0.5,0-0.5-0.5h0c-0.2,0.3-0.6,0.5-0.9,0.5c-0.7,0-1-0.4-1-1.1c0-0.5,0.2-0.9,0.7-1l0.8-0.2
			c0.4-0.1,0.4-0.3,0.4-0.6c0-0.3-0.2-0.6-0.6-0.6c-0.6,0-0.6,0.6-0.6,0.7v0H142.8z M144.6,54.1c-0.2,0.2-0.7,0.3-1,0.4
			c-0.2,0.1-0.3,0.3-0.3,0.6c0,0.4,0.1,0.6,0.5,0.6c0.4,0,0.8-0.3,0.8-0.7V54.1z"/>
		<path class="st1" d="M147.6,51.1h1.3c0.4,0,1.5,0,1.5,1.4c0,0.9-0.6,1.4-1.4,1.4h-0.8v2.1h-0.6V51.1z M148.2,53.5h0.7
			c0.4,0,0.8-0.3,0.8-1c0-0.5-0.3-0.9-0.9-0.9h-0.7V53.5z"/>
		<path class="st1" d="M150.9,52.4h0.6v0.6h0c0.2-0.4,0.4-0.7,0.8-0.7c0.1,0,0.2,0,0.3,0v0.6c-0.1,0-0.1,0-0.3,0
			c-0.3,0-0.8,0.3-0.8,0.9v2.4h-0.6V52.4z"/>
		<path class="st1" d="M153.4,54.3c0,0.6,0,1.4,0.7,1.4c0.6,0,0.6-0.6,0.6-0.9h0.6c0,0.4-0.2,1.3-1.3,1.3c-0.9,0-1.3-0.6-1.3-1.9
			c0-0.9,0.2-2,1.3-2c1.1,0,1.3,1,1.3,1.8v0.2H153.4z M154.7,53.8v-0.2c0-0.4-0.1-0.9-0.7-0.9c-0.6,0-0.7,0.8-0.7,1v0.1H154.7z"/>
		<path class="st1" d="M157.5,53.5c0-0.5-0.1-0.7-0.6-0.7c-0.2,0-0.6,0-0.6,0.6c0,0.4,0.5,0.5,0.9,0.7c0.5,0.2,0.9,0.3,0.9,1.1
			c0,0.8-0.5,1.2-1.2,1.2c-1.3,0-1.3-0.9-1.3-1.3h0.6c0,0.5,0.1,0.9,0.7,0.9c0.2,0,0.6-0.1,0.6-0.6c0-0.5-0.5-0.6-0.9-0.8
			s-0.9-0.3-0.9-1.1c0-0.7,0.5-1,1.2-1c1.1,0,1.1,0.8,1.1,1.2H157.5z"/>
		<path class="st1" d="M160.5,53.5c0-0.4-0.1-0.8-0.6-0.8c-0.4,0-0.7,0.2-0.7,1.6c0,0.5,0,1.5,0.7,1.5c0.5,0,0.6-0.5,0.6-0.9h0.6
			c0,0.6-0.3,1.4-1.2,1.4c-0.9,0-1.3-0.6-1.3-1.9c0-0.9,0.2-2,1.3-2c1,0,1.2,0.8,1.2,1.2H160.5z"/>
		<path class="st1" d="M161.6,52.4h0.6v0.6h0c0.2-0.4,0.4-0.7,0.8-0.7c0.1,0,0.2,0,0.3,0v0.6c-0.1,0-0.1,0-0.3,0
			c-0.3,0-0.8,0.3-0.8,0.9v2.4h-0.6V52.4z"/>
		<path class="st1" d="M163.6,51.1h0.6v0.7h-0.6V51.1z M163.6,52.4h0.6v3.8h-0.6V52.4z"/>
		<path class="st1" d="M165,51.1h0.6v1.7h0c0.1-0.3,0.5-0.5,0.9-0.5c1,0,1.1,1.2,1.1,2c0,1.1-0.4,2-1.2,2c-0.4,0-0.7-0.3-0.8-0.6h0
			v0.5H165V51.1z M166.3,55.7c0.5,0,0.7-0.6,0.7-1.5c0-0.9-0.1-1.5-0.7-1.5c-0.6,0-0.8,0.7-0.8,1.5C165.5,55,165.6,55.7,166.3,55.7z
			"/>
		<path class="st1" d="M168.2,51.1h0.6v0.7h-0.6V51.1z M168.2,52.4h0.6v3.8h-0.6V52.4z"/>
		<path class="st1" d="M169.5,52.4h0.6v0.6h0c0.2-0.4,0.4-0.7,0.8-0.7c0.1,0,0.2,0,0.3,0v0.6c-0.1,0-0.1,0-0.3,0
			c-0.3,0-0.8,0.3-0.8,0.9v2.4h-0.6V52.4z"/>
		<path class="st1" d="M173.1,51.1h1.3c0.4,0,1.5,0,1.5,1.4c0,0.9-0.6,1.4-1.4,1.4h-0.8v2.1h-0.6V51.1z M173.7,53.5h0.7
			c0.4,0,0.8-0.3,0.8-1c0-0.5-0.3-0.9-0.9-0.9h-0.7V53.5z"/>
		<path class="st1" d="M176.4,51.1h0.6v5h-0.6V51.1z"/>
		<path class="st1" d="M177.7,53.5c0-0.9,0.4-1.2,1.3-1.2c1.1,0,1.1,0.7,1.1,1.1v2.1c0,0.2,0,0.3,0.2,0.3c0.1,0,0.1,0,0.1,0v0.4
			c0,0-0.2,0-0.3,0c-0.2,0-0.5,0-0.5-0.5h0c-0.2,0.3-0.6,0.5-0.9,0.5c-0.7,0-1-0.4-1-1.1c0-0.5,0.2-0.9,0.7-1l0.8-0.2
			c0.4-0.1,0.4-0.3,0.4-0.6c0-0.3-0.2-0.6-0.6-0.6c-0.6,0-0.6,0.6-0.6,0.7v0H177.7z M179.5,54.1c-0.2,0.2-0.7,0.3-1,0.4
			c-0.2,0.1-0.3,0.3-0.3,0.6c0,0.4,0.1,0.6,0.5,0.6c0.4,0,0.8-0.3,0.8-0.7V54.1z"/>
		<path class="st1" d="M180.8,52.4h0.6v0.4h0c0.2-0.3,0.5-0.5,0.9-0.5c1,0,1,0.8,1,1.2v2.7h-0.6v-2.6c0-0.3,0-0.8-0.6-0.8
			c-0.3,0-0.7,0.2-0.7,0.8v2.6h-0.6V52.4z"/>
		<path class="st1" d="M184.1,51.3h0.6v1.1h0.7v0.5h-0.7v2.4c0,0.3,0.1,0.4,0.4,0.4c0.1,0,0.2,0,0.3,0v0.5c-0.1,0-0.2,0-0.5,0
			c-0.6,0-0.8-0.3-0.8-0.7v-2.6h-0.5v-0.5h0.5V51.3z"/>
		<path class="st1" d="M185.7,51.1h0.6v0.7h-0.6V51.1z M185.7,52.4h0.6v3.8h-0.6V52.4z"/>
		<path class="st1" d="M186.7,52.4h0.6l0.7,3h0l0.7-3h0.6l-1,3.8h-0.7L186.7,52.4z"/>
		<path class="st1" d="M189.7,53.5c0-0.9,0.4-1.2,1.3-1.2c1.1,0,1.1,0.7,1.1,1.1v2.1c0,0.2,0,0.3,0.2,0.3c0.1,0,0.1,0,0.1,0v0.4
			c0,0-0.2,0-0.3,0c-0.2,0-0.5,0-0.5-0.5h0c-0.2,0.3-0.6,0.5-0.9,0.5c-0.7,0-1-0.4-1-1.1c0-0.5,0.2-0.9,0.7-1l0.8-0.2
			c0.4-0.1,0.4-0.3,0.4-0.6c0-0.3-0.2-0.6-0.6-0.6c-0.6,0-0.6,0.6-0.6,0.7v0H189.7z M191.6,54.1c-0.2,0.2-0.7,0.3-1,0.4
			c-0.2,0.1-0.3,0.3-0.3,0.6c0,0.4,0.1,0.6,0.5,0.6c0.4,0,0.8-0.3,0.8-0.7V54.1z"/>
		<path class="st1" d="M192.9,51.1h0.6v5h-0.6V51.1z"/>
		<path class="st1" d="M195.5,50.8c0.8,0,1.5,0.7,1.5,1.5c0,0.8-0.7,1.5-1.5,1.5s-1.5-0.7-1.5-1.5C194,51.5,194.6,50.8,195.5,50.8z
			 M196.7,52.3c0-0.7-0.6-1.3-1.2-1.3s-1.2,0.6-1.2,1.3c0,0.7,0.6,1.3,1.2,1.3S196.7,53,196.7,52.3z M194.9,51.4h0.7
			c0.4,0,0.6,0.2,0.6,0.5c0,0.3-0.2,0.5-0.5,0.5l0.5,0.8h-0.3l-0.5-0.7h-0.3v0.7h-0.3V51.4z M195.4,52.2c0.2,0,0.5,0,0.5-0.3
			c0-0.2-0.2-0.3-0.4-0.3h-0.4v0.5H195.4z"/>
	</g>
</g>
<g>
	<g>
		<path class="st1" d="M3.2,66.9C3.2,66.4,3,66,2.5,66c-0.5,0-0.8,0.3-0.8,0.8c0,1.4,2.4,0.6,2.4,2.4c0,1.2-0.8,1.5-1.6,1.5
			c-1.2,0-1.5-0.6-1.5-1.7h0.6c0,0.6,0,1.2,0.9,1.2c0.5,0,0.9-0.4,0.9-0.9c0-1.4-2.4-0.6-2.4-2.4c0-0.5,0.2-1.4,1.5-1.4
			c1,0,1.4,0.5,1.4,1.4H3.2z"/>
		<path class="st1" d="M5.5,65.6h0.8l1.3,5H7l-0.4-1.4H5.1l-0.4,1.4H4.1L5.5,65.6z M5.2,68.7h1.3l-0.6-2.4h0L5.2,68.7z"/>
		<path class="st1" d="M8,65.6h1.3c0.4,0,1.5,0,1.5,1.4c0,0.9-0.6,1.5-1.4,1.5H8.6v2.1H8V65.6z M8.6,68h0.7c0.4,0,0.8-0.3,0.8-1
			c0-0.5-0.3-0.9-0.9-0.9H8.6V68z"/>
		<path class="st1" d="M11.4,67.1H12v0.7h-0.6V67.1z M11.4,69.9H12v0.7h-0.6V69.9z"/>
		<path class="st1" d="M15.1,67.8h0.3c0.5,0,0.8-0.4,0.8-0.9c0-0.5-0.2-0.8-0.6-0.8c-0.7,0-0.7,0.6-0.7,1h-0.6
			c0-0.8,0.4-1.4,1.3-1.4c1,0,1.3,0.7,1.3,1.3c0,0.5-0.3,0.9-0.8,1.1v0c0.6,0.1,0.9,0.5,0.9,1.2c0,0.9-0.5,1.5-1.4,1.5
			c-1.3,0-1.4-1.2-1.4-1.4v-0.1h0.6c0,0.5,0.2,1,0.8,1c0.4,0,0.8-0.2,0.8-1c0-0.6-0.3-0.9-0.9-0.9h-0.3V67.8z"/>
		<path class="st1" d="M17.4,68.2c0-1.1,0.1-2.5,1.4-2.5s1.4,1.3,1.4,2.5c0,1-0.1,2.5-1.4,2.5S17.4,69.4,17.4,68.2z M18.8,70.2
			c0.8,0,0.8-1,0.8-2c0-1.1,0-2.1-0.8-2.1s-0.8,1-0.8,2.1C18,69.2,18,70.2,18.8,70.2z"/>
		<path class="st1" d="M20.7,68.2c0-1.1,0.1-2.5,1.4-2.5c1.3,0,1.4,1.3,1.4,2.5c0,1-0.1,2.5-1.4,2.5C20.7,70.7,20.7,69.4,20.7,68.2z
			 M22.1,70.2c0.8,0,0.8-1,0.8-2c0-1.1,0-2.1-0.8-2.1c-0.8,0-0.8,1-0.8,2.1C21.3,69.2,21.3,70.2,22.1,70.2z"/>
		<path class="st1" d="M24,68.2c0-1.1,0.1-2.5,1.4-2.5c1.3,0,1.4,1.3,1.4,2.5c0,1-0.1,2.5-1.4,2.5C24,70.7,24,69.4,24,68.2z
			 M25.4,70.2c0.8,0,0.8-1,0.8-2c0-1.1,0-2.1-0.8-2.1c-0.8,0-0.8,1-0.8,2.1C24.6,69.2,24.6,70.2,25.4,70.2z"/>
		<path class="st1" d="M27.3,68.2c0-1.1,0.1-2.5,1.4-2.5c1.3,0,1.4,1.3,1.4,2.5c0,1-0.1,2.5-1.4,2.5C27.3,70.7,27.3,69.4,27.3,68.2z
			 M28.7,70.2c0.8,0,0.8-1,0.8-2c0-1.1,0-2.1-0.8-2.1c-0.8,0-0.8,1-0.8,2.1C27.9,69.2,27.9,70.2,28.7,70.2z"/>
		<path class="st1" d="M30.5,68.2c0-1.1,0.1-2.5,1.4-2.5s1.4,1.3,1.4,2.5c0,1-0.1,2.5-1.4,2.5S30.5,69.4,30.5,68.2z M32,70.2
			c0.8,0,0.8-1,0.8-2c0-1.1,0-2.1-0.8-2.1s-0.8,1-0.8,2.1C31.2,69.2,31.2,70.2,32,70.2z"/>
		<path class="st1" d="M33.8,68.2c0-1.1,0.1-2.5,1.4-2.5s1.4,1.3,1.4,2.5c0,1-0.1,2.5-1.4,2.5S33.8,69.4,33.8,68.2z M35.2,70.2
			c0.8,0,0.8-1,0.8-2c0-1.1,0-2.1-0.8-2.1s-0.8,1-0.8,2.1C34.4,69.2,34.5,70.2,35.2,70.2z"/>
		<path class="st1" d="M38.9,65.6h0.6v3.3H40v0.5h-0.6v1.2h-0.6v-1.2h-1.8v-0.6L38.9,65.6z M37.6,68.9h1.3v-2.3h0L37.6,68.9z"/>
		<path class="st1" d="M43.2,70.6h-2.8c0-0.9,0.5-1.6,1.1-2l0.4-0.3c0.4-0.3,0.7-0.6,0.7-1.2c0-0.4-0.2-0.9-0.7-0.9
			c-0.8,0-0.8,0.8-0.8,1.1h-0.6c0-0.9,0.4-1.6,1.4-1.6c1.1,0,1.3,0.9,1.3,1.3c0,0.8-0.3,1.2-0.9,1.6l-0.7,0.6
			c-0.3,0.2-0.5,0.5-0.5,0.8h2.1V70.6z"/>
		<path class="st1" d="M45.8,66.8c0-0.4-0.2-0.7-0.7-0.7c-0.8,0-0.9,1.2-0.9,1.5V68h0c0.1-0.2,0.4-0.6,0.9-0.6
			c0.9,0,1.3,0.6,1.3,1.6c0,1-0.5,1.7-1.4,1.7c-1.4,0-1.5-1.3-1.5-2.4c0-1.1,0.1-2.7,1.5-2.7c1.2,0,1.3,1,1.3,1.2H45.8z M45.1,70.2
			c0.6,0,0.8-0.6,0.8-1.1c0-0.5-0.1-1.1-0.8-1.1c-0.7,0-0.8,0.6-0.8,1.1C44.4,69.6,44.5,70.2,45.1,70.2z"/>
	</g>
</g>
<g>
	<g>
		<path class="st1" d="M79.2,65.8h1.6c0.8,0,1.3,0.5,1.3,1.3c0,0.5-0.2,1.1-0.8,1.3v0c0.4,0,0.7,0.4,0.7,0.8l0,0.9
			c0,0.6,0.1,0.7,0.3,0.8h-0.7c-0.1-0.1-0.2-0.5-0.2-0.7l0-0.8c0-0.7-0.4-0.7-0.7-0.7h-0.8v2.2h-0.6V65.8z M79.8,68.1h0.6
			c0.4,0,1,0,1-1c0-0.5-0.3-0.8-0.9-0.8h-0.7V68.1z"/>
		<path class="st1" d="M83.3,69c0,0.6,0,1.4,0.7,1.4c0.6,0,0.6-0.6,0.6-0.9h0.6c0,0.4-0.2,1.3-1.3,1.3c-0.9,0-1.3-0.6-1.3-1.9
			c0-0.9,0.2-2,1.3-2c1.1,0,1.3,1,1.3,1.8V69H83.3z M84.6,68.5v-0.2c0-0.4-0.1-0.9-0.7-0.9c-0.6,0-0.7,0.8-0.7,1v0.1H84.6z"/>
		<path class="st1" d="M88.3,70.5c0,1.1-0.5,1.5-1.3,1.5c-0.2,0-1.1,0-1.2-0.9h0.6c0,0.3,0.3,0.5,0.6,0.5c0.8,0,0.7-0.6,0.7-0.8
			v-0.5h0c-0.1,0.3-0.5,0.5-0.8,0.5c-1.1,0-1.2-1.4-1.2-1.9c0-1,0.3-2,1.2-2c0.4,0,0.7,0.3,0.8,0.6h0V67h0.6V70.5z M86.3,68.9
			c0,0.6,0.1,1.4,0.7,1.4c0.6,0,0.8-0.6,0.8-1.4c0-0.7-0.1-1.5-0.8-1.5C86.4,67.4,86.3,68,86.3,68.9z"/>
		<path class="st1" d="M89.1,70h0.6v0.7h-0.6V70z"/>
		<path class="st1" d="M94.1,67.1c0-0.5-0.2-0.9-0.8-0.9c-0.5,0-0.8,0.3-0.8,0.8c0,1.4,2.4,0.6,2.4,2.4c0,1.2-0.8,1.5-1.6,1.5
			c-1.2,0-1.5-0.6-1.5-1.7h0.6c0,0.6,0,1.2,0.9,1.2c0.5,0,0.9-0.4,0.9-0.9c0-1.4-2.4-0.6-2.4-2.4c0-0.5,0.2-1.4,1.5-1.4
			c1,0,1.4,0.5,1.4,1.4H94.1z"/>
		<path class="st1" d="M95.3,68.2c0-0.9,0.4-1.2,1.3-1.2c1.1,0,1.1,0.7,1.1,1.1v2.1c0,0.2,0,0.3,0.2,0.3c0.1,0,0.1,0,0.1,0v0.4
			c0,0-0.2,0-0.3,0c-0.2,0-0.5,0-0.5-0.5h0c-0.2,0.3-0.6,0.5-0.9,0.5c-0.7,0-1-0.4-1-1.1c0-0.5,0.2-0.9,0.7-1l0.8-0.2
			c0.4-0.1,0.4-0.3,0.4-0.6c0-0.3-0.2-0.6-0.6-0.6c-0.6,0-0.6,0.6-0.6,0.7v0H95.3z M97.1,68.7c-0.2,0.2-0.7,0.3-1,0.4
			c-0.2,0.1-0.3,0.3-0.3,0.6c0,0.4,0.1,0.6,0.5,0.6c0.4,0,0.8-0.3,0.8-0.7V68.7z"/>
		<path class="st1" d="M98.4,67H99v0.4h0c0.2-0.3,0.5-0.5,0.9-0.5c1,0,1,0.8,1,1.2v2.7h-0.6v-2.6c0-0.3,0-0.8-0.6-0.8
			c-0.3,0-0.7,0.2-0.7,0.8v2.6h-0.6V67z"/>
		<path class="st1" d="M101.6,65.8h0.6v0.7h-0.6V65.8z M101.6,67h0.6v3.8h-0.6V67z"/>
		<path class="st1" d="M103.1,65.9h0.6V67h0.7v0.5h-0.7v2.4c0,0.3,0.1,0.4,0.4,0.4c0.1,0,0.2,0,0.3,0v0.5c-0.1,0-0.2,0-0.5,0
			c-0.6,0-0.8-0.3-0.8-0.7v-2.6h-0.5V67h0.5V65.9z"/>
		<path class="st1" d="M104.8,70h0.6v0.7h-0.6V70z"/>
		<path class="st1" d="M106.4,67.2h0.6V68h-0.6V67.2z M106.4,70h0.6v0.7h-0.6V70z"/>
		<path class="st1" d="M109.1,68.4c0-1.1,0.1-2.5,1.4-2.5c1.3,0,1.4,1.3,1.4,2.5c0,1-0.1,2.5-1.4,2.5
			C109.2,70.9,109.1,69.6,109.1,68.4z M110.5,70.4c0.8,0,0.8-1,0.8-2c0-1.1,0-2.1-0.8-2.1c-0.8,0-0.8,1-0.8,2.1
			C109.7,69.4,109.8,70.4,110.5,70.4z"/>
		<path class="st1" d="M112.6,66.6c0.6,0,1.2-0.1,1.2-0.8h0.4v5h-0.6v-3.7h-1.1V66.6z"/>
		<path class="st1" d="M116.6,68.1c-0.5-0.2-0.7-0.5-0.7-1.1c0-0.8,0.5-1.3,1.3-1.3c0.8,0,1.3,0.5,1.3,1.3c0,0.5-0.2,0.9-0.7,1.1
			c0.6,0.2,0.9,0.6,0.9,1.3c0,0.7-0.3,1.5-1.4,1.5c-1.1,0-1.4-0.8-1.4-1.5C115.7,68.8,116,68.3,116.6,68.1z M117.1,70.4
			c0.6,0,0.8-0.4,0.8-1c0-0.6-0.2-1-0.8-1c-0.6,0-0.8,0.4-0.8,1C116.3,70,116.5,70.4,117.1,70.4z M116.5,67.1c0,0.5,0.2,0.8,0.7,0.8
			c0.4,0,0.7-0.3,0.7-0.8c0-0.5-0.2-0.8-0.7-0.8C116.7,66.3,116.5,66.6,116.5,67.1z"/>
		<path class="st1" d="M119.1,65.8h1.3c0.4,0,1.5,0,1.5,1.4c0,0.9-0.6,1.5-1.4,1.5h-0.8v2.1h-0.6V65.8z M119.8,68.2h0.7
			c0.4,0,0.8-0.3,0.8-1c0-0.5-0.3-0.9-0.9-0.9h-0.7V68.2z"/>
		<path class="st1" d="M123,69.7c0,0.4,0.2,0.7,0.7,0.7c0.8,0,0.9-1.2,0.9-1.5v-0.4h0c-0.1,0.2-0.4,0.6-0.9,0.6
			c-0.9,0-1.3-0.6-1.3-1.6c0-1,0.5-1.7,1.4-1.7c1.4,0,1.5,1.3,1.5,2.4c0,1.1-0.1,2.7-1.5,2.7c-1.2,0-1.3-1-1.3-1.2H123z M123.7,66.3
			c-0.6,0-0.8,0.6-0.8,1.1c0,0.5,0.1,1.1,0.8,1.1c0.7,0,0.8-0.6,0.8-1.1C124.5,66.9,124.3,66.3,123.7,66.3z"/>
		<path class="st1" d="M125.6,65.9h2.8v0.5c-0.3,0.4-0.7,1-1,1.7c-0.3,0.8-0.6,1.6-0.7,2.6h-0.7c0.1-0.8,0.3-1.5,0.6-2.3
			c0.3-0.7,0.7-1.4,1.2-2.1h-2.3V65.9z"/>
		<path class="st1" d="M132.7,67.1c0-0.5-0.2-0.9-0.8-0.9c-0.5,0-0.8,0.3-0.8,0.8c0,1.4,2.4,0.6,2.4,2.4c0,1.2-0.8,1.5-1.6,1.5
			c-1.2,0-1.5-0.6-1.5-1.7h0.6c0,0.6,0,1.2,0.9,1.2c0.5,0,0.9-0.4,0.9-0.9c0-1.4-2.4-0.6-2.4-2.4c0-0.5,0.2-1.4,1.5-1.4
			c1,0,1.4,0.5,1.4,1.4H132.7z"/>
		<path class="st1" d="M136.2,67.1c0-0.5-0.2-0.9-0.8-0.9c-0.5,0-0.8,0.3-0.8,0.8c0,1.4,2.4,0.6,2.4,2.4c0,1.2-0.8,1.5-1.6,1.5
			c-1.2,0-1.5-0.6-1.5-1.7h0.6c0,0.6,0,1.2,0.9,1.2c0.5,0,0.9-0.4,0.9-0.9c0-1.4-2.4-0.6-2.4-2.4c0-0.5,0.2-1.4,1.5-1.4
			c1,0,1.4,0.5,1.4,1.4H136.2z"/>
		<path class="st1" d="M138.5,65.8h0.8l1.3,5H140l-0.4-1.4H138l-0.4,1.4H137L138.5,65.8z M138.2,68.9h1.3l-0.6-2.4h0L138.2,68.9z"/>
	</g>
</g>
<g>
	<g>
		<path class="st0" d="M0.2,0.3H3c1.6,0,2.2,1.2,2.2,2.4c0,1.6-1,2.4-2.5,2.4H1.8v3.1H0.2V0.3z M1.8,3.9h0.7c0.6,0,1.1-0.4,1.1-1.2
			c0-0.8-0.3-1.2-1.1-1.2H1.8V3.9z"/>
		<path class="st0" d="M5.5,4.1V3.9c0-1.4,0.9-1.8,2.1-1.8c1.8,0,2.1,0.7,2.1,1.8v3.1c0,0.6,0,0.8,0.2,1.1H8.5
			C8.4,8,8.3,7.8,8.3,7.6h0C7.9,8.2,7.5,8.4,6.8,8.4c-1.1,0-1.4-0.9-1.4-1.7c0-1.1,0.5-1.6,1.5-1.8l0.9-0.2c0.5-0.1,0.6-0.3,0.6-0.7
			c0-0.5-0.2-0.7-0.7-0.7c-0.5,0-0.7,0.3-0.7,0.8v0.2H5.5z M8.3,5.2C8.1,5.4,7.8,5.5,7.6,5.5C7,5.7,6.8,6,6.8,6.5
			c0,0.5,0.2,0.8,0.6,0.8c0.4,0,0.9-0.3,0.9-0.9V5.2z"/>
		<path class="st0" d="M10.7,2.3h1.5v0.8h0c0.3-0.6,0.7-0.9,1.4-0.9c0.1,0,0.2,0,0.3,0v1.5c-0.2,0-0.3,0-0.5,0
			c-0.5,0-1.1,0.3-1.1,1.1v3.6h-1.5V2.3z"/>
		<path class="st0" d="M14.3,4.1V3.9c0-1.4,0.9-1.8,2.1-1.8c1.8,0,2.1,0.7,2.1,1.8v3.1c0,0.6,0,0.8,0.2,1.1h-1.5
			C17.1,8,17.1,7.8,17,7.6h0c-0.4,0.6-0.8,0.8-1.5,0.8c-1.1,0-1.4-0.9-1.4-1.7c0-1.1,0.5-1.6,1.5-1.8l0.9-0.2
			C16.9,4.5,17,4.3,17,3.9c0-0.5-0.2-0.7-0.7-0.7c-0.5,0-0.7,0.3-0.7,0.8v0.2H14.3z M17,5.2c-0.2,0.2-0.5,0.3-0.6,0.3
			c-0.6,0.1-0.9,0.4-0.9,1c0,0.5,0.2,0.8,0.6,0.8S17,7.1,17,6.4V5.2z"/>
		<path class="st0" d="M25,7.5L25,7.5c-0.3,0.6-0.9,0.8-1.5,0.8c-0.9,0-1.5-0.5-1.5-1.7V2.3h1.5v4.1c0,0.6,0.2,0.8,0.6,0.8
			c0.5,0,0.8-0.3,0.8-1V2.3h1.5v5.9H25V7.5z"/>
		<path class="st0" d="M28.5,6.3v0.2c0,0.5,0.3,0.9,0.8,0.9c0.5,0,0.8-0.2,0.8-0.7c0-0.4-0.3-0.6-0.6-0.7l-1.1-0.4
			c-0.8-0.3-1.3-0.8-1.3-1.7c0-1,0.6-1.8,2.2-1.8c1.4,0,2,0.6,2,1.7V4H30c0-0.6-0.2-0.9-0.7-0.9c-0.4,0-0.7,0.2-0.7,0.6
			c0,0.3,0.2,0.5,0.7,0.7l0.9,0.3c1,0.3,1.3,0.8,1.3,1.7c0,1.2-0.9,1.9-2.2,1.9c-1.7,0-2.2-0.7-2.2-1.9V6.3H28.5z"/>
		<path class="st0" d="M34.3,2.1c1.8,0,2.3,1.1,2.3,3.1c0,2-0.6,3.1-2.3,3.1c-1.8,0-2.3-1.1-2.3-3.1C31.9,3.2,32.5,2.1,34.3,2.1z
			 M34.3,7.3c0.6,0,0.8-0.6,0.8-2.1c0-1.5-0.2-2.1-0.8-2.1c-0.7,0-0.8,0.9-0.8,2.1C33.5,6.4,33.5,7.3,34.3,7.3z"/>
		<path class="st0" d="M41.1,5.5v0.5c0,0.7,0.2,1.4,0.7,1.4c0.5,0,0.7-0.4,0.8-1.1h1.4c-0.1,1.4-0.7,2.1-2.1,2.1
			c-2.2,0-2.3-1.7-2.3-3.2c0-1.6,0.3-3.1,2.4-3.1c1.8,0,2.2,1.2,2.2,3v0.3H41.1z M42.7,4.6c0-0.9-0.1-1.4-0.8-1.4
			c-0.6,0-0.8,0.6-0.8,1.2v0.2H42.7z"/>
		<path class="st0" d="M47.6,2.3h1.6l-1.5,2.9l1.6,3h-1.6l-0.9-1.9l-0.9,1.9h-1.6l1.6-3l-1.5-2.9h1.6l0.8,1.8L47.6,2.3z"/>
		<path class="st0" d="M52.5,4.4c0-0.6-0.1-1.2-0.7-1.2c-0.7,0-0.9,0.7-0.9,2c0,1.5,0.1,2.1,0.8,2.1c0.5,0,0.7-0.4,0.7-1.4H54
			c0,1.6-0.6,2.4-2.3,2.4c-1.5,0-2.3-0.7-2.3-3.1c0-2.4,1-3.1,2.4-3.1C53.3,2.1,54,3,54,4.4H52.5z"/>
		<path class="st0" d="M54.5,0.3H56v7.9h-1.5V0.3z"/>
		<path class="st0" d="M60,7.5L60,7.5c-0.3,0.6-0.9,0.8-1.5,0.8c-0.9,0-1.5-0.5-1.5-1.7V2.3h1.5v4.1c0,0.6,0.2,0.8,0.6,0.8
			c0.5,0,0.8-0.3,0.8-1V2.3h1.5v5.9H60V7.5z"/>
		<path class="st0" d="M63.5,6.3v0.2c0,0.5,0.3,0.9,0.8,0.9c0.5,0,0.8-0.2,0.8-0.7c0-0.4-0.3-0.6-0.6-0.7l-1.1-0.4
			c-0.8-0.3-1.3-0.8-1.3-1.7c0-1,0.6-1.8,2.2-1.8c1.4,0,2,0.6,2,1.7V4H65c0-0.6-0.2-0.9-0.7-0.9c-0.4,0-0.7,0.2-0.7,0.6
			c0,0.3,0.2,0.5,0.7,0.7l0.9,0.3c1,0.3,1.3,0.8,1.3,1.7c0,1.2-0.9,1.9-2.2,1.9c-1.7,0-2.2-0.7-2.2-1.9V6.3H63.5z"/>
		<path class="st0" d="M67.2,0.3h1.5v1.3h-1.5V0.3z M67.2,2.3h1.5v5.9h-1.5V2.3z"/>
		<path class="st0" d="M72.5,2.3H74l-1.5,5.9h-1.8l-1.5-5.9h1.6l0.8,4.2h0L72.5,2.3z"/>
		<path class="st0" d="M76.6,2.1c1.8,0,2.3,1.1,2.3,3.1c0,2-0.6,3.1-2.3,3.1c-1.8,0-2.3-1.1-2.3-3.1C74.2,3.2,74.8,2.1,76.6,2.1z
			 M76.6,7.3c0.6,0,0.8-0.6,0.8-2.1c0-1.5-0.2-2.1-0.8-2.1c-0.7,0-0.8,0.9-0.8,2.1C75.8,6.4,75.8,7.3,76.6,7.3z"/>
		<path class="st0" d="M85.2,7.6L85.2,7.6c-0.4,0.5-0.8,0.8-1.4,0.8c-1.2,0-1.8-0.9-1.8-3.1c0-2.2,0.6-3.1,1.8-3.1
			c0.6,0,1,0.2,1.3,0.7h0V0.3h1.5v7.9h-1.5V7.6z M84.3,7.2c0.7,0,0.8-0.7,0.8-1.9c0-1.3-0.1-1.9-0.8-1.9c-0.7,0-0.8,0.7-0.8,1.9
			C83.5,6.5,83.7,7.2,84.3,7.2z"/>
		<path class="st0" d="M88.8,5.5v0.5c0,0.7,0.2,1.4,0.7,1.4c0.5,0,0.7-0.4,0.8-1.1h1.4c-0.1,1.4-0.7,2.1-2.1,2.1
			c-2.2,0-2.3-1.7-2.3-3.2c0-1.6,0.3-3.1,2.4-3.1c1.8,0,2.2,1.2,2.2,3v0.3H88.8z M90.4,4.6c0-0.9-0.1-1.4-0.8-1.4
			c-0.6,0-0.8,0.6-0.8,1.2v0.2H90.4z"/>
		<path class="st0" d="M92.6,0.3h1.5v7.9h-1.5V0.3z"/>
		<path class="st0" d="M97.6,2.3H99v0.8h0c0.3-0.6,0.7-0.9,1.4-0.9c0.1,0,0.2,0,0.3,0v1.5c-0.2,0-0.3,0-0.5,0
			c-0.5,0-1.1,0.3-1.1,1.1v3.6h-1.5V2.3z"/>
		<path class="st0" d="M102.4,5.5v0.5c0,0.7,0.2,1.4,0.7,1.4c0.5,0,0.7-0.4,0.8-1.1h1.4c-0.1,1.4-0.7,2.1-2.1,2.1
			c-2.2,0-2.3-1.7-2.3-3.2c0-1.6,0.3-3.1,2.4-3.1c1.8,0,2.2,1.2,2.2,3v0.3H102.4z M104,4.6c0-0.9-0.1-1.4-0.8-1.4
			c-0.6,0-0.8,0.6-0.8,1.2v0.2H104z"/>
		<path class="st0" d="M106.1,2.3h1.5v0.6h0c0.3-0.5,0.7-0.8,1.3-0.8c1.2,0,1.8,0.9,1.8,3.1c0,2.2-0.6,3.1-1.8,3.1
			c-0.6,0-1-0.2-1.3-0.7h0v2.5h-1.5V2.3z M108.4,7.2c0.7,0,0.8-0.7,0.8-1.9c0-1.3-0.1-1.9-0.8-1.9c-0.7,0-0.8,0.7-0.8,1.9
			C107.6,6.5,107.8,7.2,108.4,7.2z"/>
		<path class="st0" d="M111.5,2.3h1.5v0.8h0c0.3-0.6,0.7-0.9,1.4-0.9c0.1,0,0.2,0,0.3,0v1.5c-0.2,0-0.3,0-0.5,0
			c-0.5,0-1.1,0.3-1.1,1.1v3.6h-1.5V2.3z"/>
		<path class="st0" d="M116.4,5.5v0.5c0,0.7,0.2,1.4,0.7,1.4c0.5,0,0.7-0.4,0.8-1.1h1.4c-0.1,1.4-0.7,2.1-2.1,2.1
			c-2.2,0-2.3-1.7-2.3-3.2c0-1.6,0.3-3.1,2.4-3.1c1.8,0,2.2,1.2,2.2,3v0.3H116.4z M117.9,4.6c0-0.9-0.1-1.4-0.8-1.4
			c-0.6,0-0.8,0.6-0.8,1.2v0.2H117.9z"/>
		<path class="st0" d="M121.2,6.3v0.2c0,0.5,0.3,0.9,0.8,0.9c0.5,0,0.8-0.2,0.8-0.7c0-0.4-0.3-0.6-0.6-0.7l-1.1-0.4
			c-0.8-0.3-1.3-0.8-1.3-1.7c0-1,0.6-1.8,2.2-1.8c1.4,0,2,0.6,2,1.7V4h-1.4c0-0.6-0.2-0.9-0.7-0.9c-0.4,0-0.7,0.2-0.7,0.6
			c0,0.3,0.2,0.5,0.7,0.7l0.9,0.3c1,0.3,1.3,0.8,1.3,1.7c0,1.2-0.9,1.9-2.2,1.9c-1.7,0-2.2-0.7-2.2-1.9V6.3H121.2z"/>
		<path class="st0" d="M126.1,5.5v0.5c0,0.7,0.2,1.4,0.7,1.4c0.5,0,0.7-0.4,0.8-1.1h1.4c-0.1,1.4-0.7,2.1-2.1,2.1
			c-2.2,0-2.3-1.7-2.3-3.2c0-1.6,0.3-3.1,2.4-3.1c1.8,0,2.2,1.2,2.2,3v0.3H126.1z M127.7,4.6c0-0.9-0.1-1.4-0.8-1.4
			c-0.6,0-0.8,0.6-0.8,1.2v0.2H127.7z"/>
		<path class="st0" d="M129.8,2.3h1.5V3h0c0.3-0.6,0.9-0.8,1.5-0.8c0.9,0,1.5,0.5,1.5,1.7v4.4h-1.5V4.1c0-0.6-0.2-0.8-0.6-0.8
			c-0.5,0-0.8,0.3-0.8,1v3.9h-1.5V2.3z"/>
		<path class="st0" d="M135.5,0.6h1.5v1.7h0.9v1H137v3.2c0,0.5,0.1,0.6,0.5,0.6c0.1,0,0.2,0,0.3,0v1.1c-0.3,0-0.6,0.1-1,0.1
			c-1.2,0-1.4-0.4-1.4-1.6V3.3h-0.8v-1h0.8V0.6z"/>
		<path class="st0" d="M138.3,4.1V3.9c0-1.4,0.9-1.8,2.1-1.8c1.8,0,2.1,0.7,2.1,1.8v3.1c0,0.6,0,0.8,0.2,1.1h-1.5
			c-0.1-0.2-0.1-0.4-0.2-0.6h0c-0.4,0.6-0.8,0.8-1.5,0.8c-1.1,0-1.4-0.9-1.4-1.7c0-1.1,0.5-1.6,1.5-1.8l0.9-0.2
			c0.5-0.1,0.6-0.3,0.6-0.7c0-0.5-0.2-0.7-0.7-0.7c-0.5,0-0.7,0.3-0.7,0.8v0.2H138.3z M141.1,5.2c-0.2,0.2-0.5,0.3-0.6,0.3
			c-0.6,0.1-0.9,0.4-0.9,1c0,0.5,0.2,0.8,0.6,0.8c0.4,0,0.9-0.3,0.9-0.9V5.2z"/>
		<path class="st0" d="M143.5,2.3h1.5V3h0c0.3-0.6,0.9-0.8,1.5-0.8c0.9,0,1.5,0.5,1.5,1.7v4.4h-1.5V4.1c0-0.6-0.2-0.8-0.6-0.8
			c-0.5,0-0.8,0.3-0.8,1v3.9h-1.5V2.3z"/>
		<path class="st0" d="M149.2,0.6h1.5v1.7h0.9v1h-0.9v3.2c0,0.5,0.1,0.6,0.5,0.6c0.1,0,0.2,0,0.3,0v1.1c-0.3,0-0.6,0.1-1,0.1
			c-1.2,0-1.4-0.4-1.4-1.6V3.3h-0.8v-1h0.8V0.6z"/>
		<path class="st0" d="M153.3,5.5v0.5c0,0.7,0.2,1.4,0.7,1.4c0.5,0,0.7-0.4,0.8-1.1h1.4c-0.1,1.4-0.7,2.1-2.1,2.1
			c-2.2,0-2.3-1.7-2.3-3.2c0-1.6,0.3-3.1,2.4-3.1c1.8,0,2.2,1.2,2.2,3v0.3H153.3z M154.9,4.6c0-0.9-0.1-1.4-0.8-1.4
			c-0.6,0-0.8,0.6-0.8,1.2v0.2H154.9z"/>
		<path class="st0" d="M159.6,2.3h1.5v0.6h0c0.4-0.5,0.9-0.8,1.5-0.8c0.7,0,1.2,0.3,1.4,0.9h0c0.2-0.6,0.8-0.9,1.5-0.9
			c1,0,1.5,0.6,1.5,1.8v4.3h-1.5V4.1c0-0.5-0.2-0.8-0.6-0.8c-0.5,0-0.8,0.3-0.8,1v3.9h-1.5V4.1c0-0.5-0.2-0.8-0.6-0.8
			c-0.5,0-0.8,0.3-0.8,1v3.9h-1.5V2.3z"/>
		<path class="st0" d="M169.1,5.5v0.5c0,0.7,0.2,1.4,0.7,1.4c0.5,0,0.7-0.4,0.8-1.1h1.4c-0.1,1.4-0.7,2.1-2.1,2.1
			c-2.2,0-2.3-1.7-2.3-3.2c0-1.6,0.3-3.1,2.4-3.1c1.8,0,2.2,1.2,2.2,3v0.3H169.1z M170.6,4.6c0-0.9-0.1-1.4-0.8-1.4
			c-0.6,0-0.8,0.6-0.8,1.2v0.2H170.6z M169.7,0h1.5l-1.1,1.6h-1L169.7,0z"/>
		<path class="st0" d="M175.8,7.6L175.8,7.6c-0.4,0.5-0.8,0.8-1.4,0.8c-1.2,0-1.8-0.9-1.8-3.1c0-2.2,0.6-3.1,1.8-3.1
			c0.6,0,1,0.2,1.3,0.7h0V0.3h1.5v7.9h-1.5V7.6z M174.9,7.2c0.7,0,0.8-0.7,0.8-1.9c0-1.3-0.1-1.9-0.8-1.9c-0.7,0-0.8,0.7-0.8,1.9
			C174.1,6.5,174.3,7.2,174.9,7.2z"/>
		<path class="st0" d="M178.2,0.3h1.5v1.3h-1.5V0.3z M178.2,2.3h1.5v5.9h-1.5V2.3z"/>
		<path class="st0" d="M183.5,4.4c0-0.6-0.1-1.2-0.7-1.2c-0.7,0-0.9,0.7-0.9,2c0,1.5,0.1,2.1,0.8,2.1c0.5,0,0.7-0.4,0.7-1.4h1.5
			c0,1.6-0.6,2.4-2.3,2.4c-1.5,0-2.3-0.7-2.3-3.1c0-2.4,1-3.1,2.4-3.1c1.4,0,2.1,0.9,2.1,2.3H183.5z"/>
		<path class="st0" d="M187.8,2.1c1.8,0,2.3,1.1,2.3,3.1c0,2-0.6,3.1-2.3,3.1c-1.8,0-2.3-1.1-2.3-3.1C185.5,3.2,186.1,2.1,187.8,2.1
			z M187.8,7.3c0.6,0,0.8-0.6,0.8-2.1c0-1.5-0.2-2.1-0.8-2.1c-0.7,0-0.8,0.9-0.8,2.1C187,6.4,187.1,7.3,187.8,7.3z"/>
		<path class="st0" d="M196.4,7.6L196.4,7.6c-0.4,0.5-0.8,0.8-1.4,0.8c-1.2,0-1.8-0.9-1.8-3.1c0-2.2,0.6-3.1,1.8-3.1
			c0.6,0,1,0.2,1.3,0.7h0V0.3h1.5v7.9h-1.5V7.6z M195.5,7.2c0.7,0,0.8-0.7,0.8-1.9c0-1.3-0.1-1.9-0.8-1.9c-0.7,0-0.8,0.7-0.8,1.9
			C194.8,6.5,194.9,7.2,195.5,7.2z"/>
		<path class="st0" d="M200.1,5.5v0.5c0,0.7,0.2,1.4,0.7,1.4c0.5,0,0.7-0.4,0.8-1.1h1.4c-0.1,1.4-0.7,2.1-2.1,2.1
			c-2.2,0-2.3-1.7-2.3-3.2c0-1.6,0.3-3.1,2.4-3.1c1.8,0,2.2,1.2,2.2,3v0.3H200.1z M201.6,4.6c0-0.9-0.1-1.4-0.8-1.4
			c-0.6,0-0.8,0.6-0.8,1.2v0.2H201.6z"/>
		<path class="st0" d="M206.3,0.3h4.4v1.3h-2.8v1.8h2.6v1.3h-2.6v3.4h-1.6V0.3z"/>
		<path class="st0" d="M211,4.1V3.9c0-1.4,0.9-1.8,2.1-1.8c1.8,0,2.1,0.7,2.1,1.8v3.1c0,0.6,0,0.8,0.2,1.1H214
			c-0.1-0.2-0.1-0.4-0.2-0.6h0c-0.4,0.6-0.8,0.8-1.5,0.8c-1.1,0-1.4-0.9-1.4-1.7c0-1.1,0.5-1.6,1.5-1.8l0.9-0.2
			c0.5-0.1,0.6-0.3,0.6-0.7c0-0.5-0.2-0.7-0.7-0.7c-0.5,0-0.7,0.3-0.7,0.8v0.2H211z M213.8,5.2c-0.2,0.2-0.5,0.3-0.6,0.3
			c-0.6,0.1-0.9,0.4-0.9,1c0,0.5,0.2,0.8,0.6,0.8c0.4,0,0.9-0.3,0.9-0.9V5.2z"/>
		<path class="st0" d="M216.2,2.3h1.5v0.8h0c0.3-0.6,0.7-0.9,1.4-0.9c0.1,0,0.2,0,0.3,0v1.5c-0.2,0-0.3,0-0.5,0
			c-0.5,0-1.1,0.3-1.1,1.1v3.6h-1.5V2.3z"/>
		<path class="st0" d="M219.8,2.3h1.5v0.6h0c0.4-0.5,0.9-0.8,1.5-0.8c0.7,0,1.2,0.3,1.4,0.9h0c0.2-0.6,0.8-0.9,1.5-0.9
			c1,0,1.5,0.6,1.5,1.8v4.3h-1.5V4.1c0-0.5-0.2-0.8-0.6-0.8c-0.5,0-0.8,0.3-0.8,1v3.9h-1.5V4.1c0-0.5-0.2-0.8-0.6-0.8
			c-0.5,0-0.8,0.3-0.8,1v3.9h-1.5V2.3z"/>
		<path class="st0" d="M228,4.1V3.9c0-1.4,0.9-1.8,2.1-1.8c1.8,0,2.1,0.7,2.1,1.8v3.1c0,0.6,0,0.8,0.2,1.1H231
			c-0.1-0.2-0.1-0.4-0.2-0.6h0c-0.4,0.6-0.8,0.8-1.5,0.8c-1.1,0-1.4-0.9-1.4-1.7c0-1.1,0.5-1.6,1.5-1.8l0.9-0.2
			c0.5-0.1,0.6-0.3,0.6-0.7c0-0.5-0.2-0.7-0.7-0.7c-0.5,0-0.7,0.3-0.7,0.8v0.2H228z M230.8,5.2c-0.2,0.2-0.5,0.3-0.6,0.3
			c-0.6,0.1-0.9,0.4-0.9,1c0,0.5,0.2,0.8,0.6,0.8c0.4,0,0.9-0.3,0.9-0.9V5.2z"/>
		<path class="st0" d="M234.3,6.3v0.2c0,0.5,0.3,0.9,0.8,0.9c0.5,0,0.8-0.2,0.8-0.7c0-0.4-0.3-0.6-0.5-0.7l-1.1-0.4
			c-0.8-0.3-1.3-0.8-1.3-1.7c0-1,0.6-1.8,2.2-1.8c1.4,0,2,0.6,2,1.7V4h-1.4c0-0.6-0.2-0.9-0.7-0.9c-0.4,0-0.7,0.2-0.7,0.6
			c0,0.3,0.2,0.5,0.7,0.7l0.9,0.3c1,0.3,1.3,0.8,1.3,1.7c0,1.2-0.9,1.9-2.2,1.9c-1.7,0-2.2-0.7-2.2-1.9V6.3H234.3z"/>
		<path class="st0" d="M237.9,4.1V3.9c0-1.4,0.9-1.8,2.1-1.8c1.8,0,2.1,0.7,2.1,1.8v3.1c0,0.6,0,0.8,0.2,1.1h-1.5
			c-0.1-0.2-0.1-0.4-0.2-0.6h0c-0.4,0.6-0.8,0.8-1.5,0.8c-1.1,0-1.4-0.9-1.4-1.7c0-1.1,0.5-1.6,1.5-1.8l0.9-0.2
			c0.5-0.1,0.6-0.3,0.6-0.7c0-0.5-0.2-0.7-0.7-0.7c-0.5,0-0.7,0.3-0.7,0.8v0.2H237.9z M240.7,5.2c-0.2,0.2-0.5,0.3-0.6,0.3
			c-0.6,0.1-0.9,0.4-0.9,1c0,0.5,0.2,0.8,0.6,0.8s0.9-0.3,0.9-0.9V5.2z"/>
		<path class="st0" d="M247,5.7V6c0,0.7,0.2,1.2,1,1.2c0.5,0,0.9-0.3,0.9-1c0-0.7-0.4-1-1.4-1.3c-1.4-0.5-2.1-1.1-2.1-2.4
			c0-1.5,0.9-2.3,2.4-2.3c1.4,0,2.4,0.6,2.4,2.1v0.2h-1.5c0-0.7-0.3-1.2-0.9-1.2c-0.7,0-0.9,0.5-0.9,0.9c0,0.5,0.1,0.8,0.8,1.1
			l1.2,0.5c1.2,0.5,1.5,1.1,1.5,2.1c0,1.7-1,2.4-2.7,2.4c-1.8,0-2.5-0.8-2.5-2.3V5.7H247z"/>
		<path class="st0" d="M254.1,4.4c0-0.6-0.1-1.2-0.7-1.2c-0.7,0-0.9,0.7-0.9,2c0,1.5,0.1,2.1,0.8,2.1c0.5,0,0.7-0.4,0.7-1.4h1.5
			c0,1.6-0.6,2.4-2.3,2.4c-1.5,0-2.3-0.7-2.3-3.1c0-2.4,1-3.1,2.4-3.1c1.4,0,2.1,0.9,2.1,2.3H254.1z"/>
		<path class="st0" d="M256.2,0.3h1.5v2.5h0c0.3-0.5,0.8-0.8,1.4-0.8c0.9,0,1.5,0.5,1.5,1.7v4.4h-1.5V4.1c0-0.6-0.2-0.8-0.6-0.8
			c-0.5,0-0.8,0.3-0.8,1v3.9h-1.5V0.3z"/>
		<path class="st0" d="M261.2,2.3h1.5l0.7,4.2h0l0.7-4.2h1.7l0.8,4.2h0l0.7-4.2h1.5l-1.3,5.9h-1.7L265,4h0l-0.7,4.2h-1.8L261.2,2.3z
			"/>
		<path class="st0" d="M269.3,4.1V3.9c0-1.4,0.9-1.8,2.1-1.8c1.8,0,2.1,0.7,2.1,1.8v3.1c0,0.6,0,0.8,0.2,1.1h-1.5
			c-0.1-0.2-0.1-0.4-0.2-0.6h0c-0.4,0.6-0.8,0.8-1.5,0.8c-1.1,0-1.4-0.9-1.4-1.7c0-1.1,0.5-1.6,1.5-1.8l0.9-0.2
			c0.5-0.1,0.6-0.3,0.6-0.7c0-0.5-0.2-0.7-0.7-0.7c-0.5,0-0.7,0.3-0.7,0.8v0.2H269.3z M272,5.2c-0.2,0.2-0.5,0.3-0.6,0.3
			c-0.6,0.1-0.9,0.4-0.9,1c0,0.5,0.2,0.8,0.6,0.8s0.9-0.3,0.9-0.9V5.2z"/>
		<path class="st0" d="M274.5,0.3h1.5v2.5h0c0.3-0.5,0.7-0.7,1.3-0.7c1.2,0,1.8,0.9,1.8,3.1c0,2.2-0.6,3.1-1.8,3.1
			c-0.6,0-1-0.2-1.3-0.8h0v0.6h-1.5V0.3z M276.8,7.2c0.7,0,0.8-0.7,0.8-1.9c0-1.3-0.1-1.9-0.8-1.9c-0.7,0-0.8,0.7-0.8,1.9
			C276,6.5,276.1,7.2,276.8,7.2z"/>
		<path class="st0" d="M281.1,5.5v0.5c0,0.7,0.2,1.4,0.7,1.4c0.5,0,0.7-0.4,0.8-1.1h1.4c-0.1,1.4-0.7,2.1-2.1,2.1
			c-2.2,0-2.3-1.7-2.3-3.2c0-1.6,0.3-3.1,2.4-3.1c1.8,0,2.2,1.2,2.2,3v0.3H281.1z M282.7,4.6c0-0.9-0.1-1.4-0.8-1.4
			c-0.6,0-0.8,0.6-0.8,1.2v0.2H282.7z"/>
		<path class="st0" d="M0.2,13.5h2.9c1.3,0,2.1,0.7,2.1,2c0,1-0.4,1.7-1.3,1.9v0c1.1,0.1,1.2,0.7,1.3,2.4c0,0.8,0.1,1.3,0.4,1.4v0.1
			H3.9c-0.2-0.2-0.2-0.5-0.2-0.8l0-1.5c0-0.6-0.3-1-0.9-1H1.8v3.3H0.2V13.5z M1.8,17h0.7c0.8,0,1.2-0.3,1.2-1.2
			c0-0.7-0.4-1.1-1.1-1.1H1.8V17z"/>
		<path class="st0" d="M7.5,18.7v0.5c0,0.7,0.2,1.4,0.7,1.4c0.5,0,0.7-0.4,0.8-1.1h1.4c-0.1,1.4-0.7,2.1-2.1,2.1
			c-2.2,0-2.3-1.7-2.3-3.2c0-1.6,0.3-3.1,2.4-3.1c1.8,0,2.2,1.2,2.2,3v0.3H7.5z M9.1,17.8c0-0.9-0.1-1.4-0.8-1.4
			c-0.6,0-0.8,0.6-0.8,1.2v0.2H9.1z"/>
		<path class="st0" d="M11.2,15.5h1.5v0.6h0c0.3-0.5,0.7-0.8,1.3-0.8c1.2,0,1.8,0.9,1.8,3.1c0,2.2-0.6,3.1-1.8,3.1
			c-0.6,0-1-0.2-1.3-0.7h0v2.5h-1.5V15.5z M13.5,20.4c0.7,0,0.8-0.7,0.8-1.9c0-1.3-0.1-1.9-0.8-1.9c-0.7,0-0.8,0.7-0.8,1.9
			C12.7,19.7,12.8,20.4,13.5,20.4z"/>
		<path class="st0" d="M18.7,15.3c1.8,0,2.3,1.1,2.3,3.1c0,2-0.6,3.1-2.3,3.1c-1.8,0-2.3-1.1-2.3-3.1C16.4,16.4,17,15.3,18.7,15.3z
			 M18.7,20.5c0.6,0,0.8-0.6,0.8-2.1c0-1.5-0.2-2.1-0.8-2.1c-0.7,0-0.8,0.9-0.8,2.1C17.9,19.6,18,20.5,18.7,20.5z"/>
		<path class="st0" d="M21.7,15.5h1.5v0.8h0c0.3-0.6,0.7-0.9,1.4-0.9c0.1,0,0.2,0,0.3,0v1.5c-0.2,0-0.3,0-0.5,0
			c-0.5,0-1.1,0.3-1.1,1.1v3.6h-1.5V15.5z"/>
		<path class="st0" d="M25.6,13.8h1.5v1.7H28v1h-0.9v3.2c0,0.5,0.1,0.6,0.5,0.6c0.1,0,0.2,0,0.3,0v1.1c-0.3,0-0.6,0.1-1,0.1
			c-1.2,0-1.4-0.4-1.4-1.6v-3.4h-0.8v-1h0.8V13.8z"/>
		<path class="st0" d="M29.7,18.7v0.5c0,0.7,0.2,1.4,0.7,1.4c0.5,0,0.7-0.4,0.8-1.1h1.4c-0.1,1.4-0.7,2.1-2.1,2.1
			c-2.2,0-2.3-1.7-2.3-3.2c0-1.6,0.3-3.1,2.4-3.1c1.8,0,2.2,1.2,2.2,3v0.3H29.7z M31.3,17.8c0-0.9-0.1-1.4-0.8-1.4
			c-0.6,0-0.8,0.6-0.8,1.2v0.2H31.3z"/>
		<path class="st0" d="M36,13.5h1.5v7.9H36V13.5z"/>
		<path class="st0" d="M38.5,17.3v-0.1c0-1.4,0.9-1.8,2.1-1.8c1.8,0,2.1,0.7,2.1,1.8v3.1c0,0.6,0,0.8,0.2,1.1h-1.5
			c-0.1-0.2-0.1-0.4-0.2-0.6h0c-0.4,0.6-0.8,0.8-1.5,0.8c-1.1,0-1.4-0.9-1.4-1.7c0-1.1,0.5-1.6,1.5-1.8l0.9-0.2
			c0.5-0.1,0.6-0.3,0.6-0.7c0-0.5-0.2-0.7-0.7-0.7c-0.5,0-0.7,0.3-0.7,0.8v0.2H38.5z M41.3,18.4c-0.2,0.2-0.5,0.3-0.6,0.3
			c-0.6,0.1-0.9,0.4-0.9,1c0,0.5,0.2,0.8,0.6,0.8s0.9-0.3,0.9-0.9V18.4z"/>
		<path class="st0" d="M44.8,19.5v0.2c0,0.5,0.3,0.9,0.8,0.9c0.5,0,0.8-0.2,0.8-0.7c0-0.4-0.3-0.6-0.5-0.7l-1.1-0.4
			c-0.8-0.3-1.3-0.8-1.3-1.7c0-1,0.6-1.8,2.2-1.8c1.4,0,2,0.6,2,1.7v0.2h-1.4c0-0.6-0.2-0.9-0.7-0.9c-0.4,0-0.7,0.2-0.7,0.6
			c0,0.3,0.2,0.5,0.7,0.7l0.9,0.3c1,0.3,1.3,0.8,1.3,1.7c0,1.2-0.9,1.9-2.2,1.9c-1.7,0-2.2-0.7-2.2-1.9v-0.2H44.8z"/>
		<path class="st0" d="M52.1,19.5v0.2c0,0.5,0.3,0.9,0.8,0.9c0.5,0,0.8-0.2,0.8-0.7c0-0.4-0.3-0.6-0.5-0.7L52,18.8
			c-0.8-0.3-1.3-0.8-1.3-1.7c0-1,0.6-1.8,2.2-1.8c1.4,0,2,0.6,2,1.7v0.2h-1.4c0-0.6-0.2-0.9-0.7-0.9c-0.4,0-0.7,0.2-0.7,0.6
			c0,0.3,0.2,0.5,0.7,0.7l0.9,0.3c1,0.3,1.3,0.8,1.3,1.7c0,1.2-0.9,1.9-2.2,1.9c-1.7,0-2.2-0.7-2.2-1.9v-0.2H52.1z"/>
		<path class="st0" d="M57.9,15.3c1.8,0,2.3,1.1,2.3,3.1c0,2-0.6,3.1-2.3,3.1c-1.8,0-2.3-1.1-2.3-3.1C55.5,16.4,56.1,15.3,57.9,15.3
			z M57.9,20.5c0.6,0,0.8-0.6,0.8-2.1c0-1.5-0.2-2.1-0.8-2.1c-0.7,0-0.8,0.9-0.8,2.1C57.1,19.6,57.1,20.5,57.9,20.5z"/>
		<path class="st0" d="M62,19.5v0.2c0,0.5,0.3,0.9,0.8,0.9c0.5,0,0.8-0.2,0.8-0.7c0-0.4-0.3-0.6-0.5-0.7L62,18.8
			c-0.8-0.3-1.3-0.8-1.3-1.7c0-1,0.6-1.8,2.2-1.8c1.4,0,2,0.6,2,1.7v0.2h-1.4c0-0.6-0.2-0.9-0.7-0.9c-0.4,0-0.7,0.2-0.7,0.6
			c0,0.3,0.2,0.5,0.7,0.7l0.9,0.3c1,0.3,1.3,0.8,1.3,1.7c0,1.2-0.9,1.9-2.2,1.9c-1.7,0-2.2-0.7-2.2-1.9v-0.2H62z"/>
		<path class="st0" d="M65.7,15.5h1.5v0.6h0c0.3-0.5,0.7-0.8,1.3-0.8c1.2,0,1.8,0.9,1.8,3.1c0,2.2-0.6,3.1-1.8,3.1
			c-0.6,0-1-0.2-1.3-0.7h0v2.5h-1.5V15.5z M68,20.4c0.7,0,0.8-0.7,0.8-1.9c0-1.3-0.1-1.9-0.8-1.9c-0.7,0-0.8,0.7-0.8,1.9
			C67.2,19.7,67.3,20.4,68,20.4z"/>
		<path class="st0" d="M72.4,18.7v0.5c0,0.7,0.2,1.4,0.7,1.4c0.5,0,0.7-0.4,0.8-1.1h1.4c-0.1,1.4-0.7,2.1-2.1,2.1
			c-2.2,0-2.3-1.7-2.3-3.2c0-1.6,0.3-3.1,2.4-3.1c1.8,0,2.2,1.2,2.2,3v0.3H72.4z M73.9,17.8c0-0.9-0.1-1.4-0.8-1.4
			c-0.6,0-0.8,0.6-0.8,1.2v0.2H73.9z"/>
		<path class="st0" d="M78.9,17.6c0-0.6-0.1-1.2-0.7-1.2c-0.7,0-0.9,0.7-0.9,2c0,1.5,0.1,2.1,0.8,2.1c0.5,0,0.7-0.4,0.7-1.4h1.5
			c0,1.6-0.6,2.4-2.3,2.4c-1.5,0-2.3-0.7-2.3-3.1c0-2.4,1-3.1,2.4-3.1s2.1,0.9,2.1,2.3H78.9z"/>
		<path class="st0" d="M81,13.5h1.5v2.5h0c0.3-0.5,0.8-0.8,1.4-0.8c0.9,0,1.5,0.5,1.5,1.7v4.4H84v-4.1c0-0.6-0.2-0.8-0.6-0.8
			c-0.5,0-0.8,0.3-0.8,1v3.9H81V13.5z"/>
		<path class="st0" d="M86.4,17.3v-0.1c0-1.4,0.9-1.8,2.1-1.8c1.8,0,2.1,0.7,2.1,1.8v3.1c0,0.6,0,0.8,0.2,1.1h-1.5
			c-0.1-0.2-0.1-0.4-0.2-0.6h0c-0.4,0.6-0.8,0.8-1.5,0.8c-1.1,0-1.4-0.9-1.4-1.7c0-1.1,0.5-1.6,1.5-1.8l0.9-0.2
			c0.5-0.1,0.6-0.3,0.6-0.7c0-0.5-0.2-0.7-0.7-0.7c-0.5,0-0.7,0.3-0.7,0.8v0.2H86.4z M89.2,18.4c-0.2,0.2-0.5,0.3-0.6,0.3
			c-0.6,0.1-0.9,0.4-0.9,1c0,0.5,0.2,0.8,0.6,0.8c0.4,0,0.9-0.3,0.9-0.9V18.4z"/>
		<path class="st0" d="M92.7,19.5v0.2c0,0.5,0.3,0.9,0.8,0.9c0.5,0,0.8-0.2,0.8-0.7c0-0.4-0.3-0.6-0.5-0.7l-1.1-0.4
			c-0.8-0.3-1.3-0.8-1.3-1.7c0-1,0.6-1.8,2.2-1.8c1.4,0,2,0.6,2,1.7v0.2h-1.4c0-0.6-0.2-0.9-0.7-0.9c-0.4,0-0.7,0.2-0.7,0.6
			c0,0.3,0.2,0.5,0.7,0.7l0.9,0.3c1,0.3,1.3,0.8,1.3,1.7c0,1.2-0.9,1.9-2.2,1.9c-1.7,0-2.2-0.7-2.2-1.9v-0.2H92.7z"/>
		<path class="st0" d="M102,20.8L102,20.8c-0.4,0.5-0.8,0.8-1.4,0.8c-1.2,0-1.8-0.9-1.8-3.1c0-2.2,0.6-3.1,1.8-3.1
			c0.6,0,1,0.2,1.3,0.7h0v-2.5h1.5v7.9H102V20.8z M101.1,20.4c0.7,0,0.8-0.7,0.8-1.9c0-1.3-0.1-1.9-0.8-1.9c-0.7,0-0.8,0.7-0.8,1.9
			C100.3,19.7,100.4,20.4,101.1,20.4z"/>
		<path class="st0" d="M105.6,18.7v0.5c0,0.7,0.2,1.4,0.7,1.4c0.5,0,0.7-0.4,0.8-1.1h1.4c-0.1,1.4-0.7,2.1-2.1,2.1
			c-2.2,0-2.3-1.7-2.3-3.2c0-1.6,0.3-3.1,2.4-3.1c1.8,0,2.2,1.2,2.2,3v0.3H105.6z M107.2,17.8c0-0.9-0.1-1.4-0.8-1.4
			c-0.6,0-0.8,0.6-0.8,1.2v0.2H107.2z"/>
		<path class="st0" d="M111.8,15.5h1.5v0.8h0c0.3-0.6,0.7-0.9,1.4-0.9c0.1,0,0.2,0,0.3,0v1.5c-0.2,0-0.3,0-0.5,0
			c-0.5,0-1.1,0.3-1.1,1.1v3.6h-1.5V15.5z"/>
		<path class="st0" d="M116.7,18.7v0.5c0,0.7,0.2,1.4,0.7,1.4c0.5,0,0.7-0.4,0.8-1.1h1.4c-0.1,1.4-0.7,2.1-2.1,2.1
			c-2.2,0-2.3-1.7-2.3-3.2c0-1.6,0.3-3.1,2.4-3.1c1.8,0,2.2,1.2,2.2,3v0.3H116.7z M118.2,17.8c0-0.9-0.1-1.4-0.8-1.4
			c-0.6,0-0.8,0.6-0.8,1.2v0.2H118.2z"/>
		<path class="st0" d="M120.3,17.3v-0.1c0-1.4,0.9-1.8,2.1-1.8c1.8,0,2.1,0.7,2.1,1.8v3.1c0,0.6,0,0.8,0.2,1.1h-1.5
			c-0.1-0.2-0.1-0.4-0.2-0.6h0c-0.4,0.6-0.8,0.8-1.5,0.8c-1.1,0-1.4-0.9-1.4-1.7c0-1.1,0.5-1.6,1.5-1.8l0.9-0.2
			c0.5-0.1,0.6-0.3,0.6-0.7c0-0.5-0.2-0.7-0.7-0.7c-0.5,0-0.7,0.3-0.7,0.8v0.2H120.3z M123.1,18.4c-0.2,0.2-0.5,0.3-0.6,0.3
			c-0.6,0.1-0.9,0.4-0.9,1c0,0.5,0.2,0.8,0.6,0.8c0.4,0,0.9-0.3,0.9-0.9V18.4z"/>
		<path class="st0" d="M128.4,17.6c0-0.6-0.1-1.2-0.7-1.2c-0.7,0-0.9,0.7-0.9,2c0,1.5,0.1,2.1,0.8,2.1c0.5,0,0.7-0.4,0.7-1.4h1.5
			c0,1.6-0.6,2.4-2.3,2.4c-1.5,0-2.3-0.7-2.3-3.1c0-2.4,1-3.1,2.4-3.1c1.4,0,2.1,0.9,2.1,2.3H128.4z"/>
		<path class="st0" d="M133.4,17.6c0-0.6-0.1-1.2-0.7-1.2c-0.7,0-0.9,0.7-0.9,2c0,1.5,0.1,2.1,0.8,2.1c0.5,0,0.7-0.4,0.7-1.4h1.5
			c0,1.6-0.6,2.4-2.3,2.4c-1.5,0-2.3-0.7-2.3-3.1c0-2.4,1-3.1,2.4-3.1s2.1,0.9,2.1,2.3H133.4z"/>
		<path class="st0" d="M135.6,13.5h1.5v1.3h-1.5V13.5z M135.6,15.5h1.5v5.9h-1.5V15.5z"/>
		<path class="st0" d="M140.2,15.3c1.8,0,2.3,1.1,2.3,3.1c0,2-0.6,3.1-2.3,3.1c-1.8,0-2.3-1.1-2.3-3.1
			C137.8,16.4,138.4,15.3,140.2,15.3z M140.2,20.5c0.6,0,0.8-0.6,0.8-2.1c0-1.5-0.2-2.1-0.8-2.1c-0.7,0-0.8,0.9-0.8,2.1
			C139.4,19.6,139.4,20.5,140.2,20.5z M140,13.2h1.5l-1.1,1.6h-1L140,13.2z"/>
		<path class="st0" d="M143.2,15.5h1.5v0.7h0c0.3-0.6,0.9-0.8,1.5-0.8c0.9,0,1.5,0.5,1.5,1.7v4.4h-1.5v-4.1c0-0.6-0.2-0.8-0.6-0.8
			c-0.5,0-0.8,0.3-0.8,1v3.9h-1.5V15.5z"/>
		<path class="st0" d="M151.1,17.3v-0.1c0-1.4,0.9-1.8,2.1-1.8c1.8,0,2.1,0.7,2.1,1.8v3.1c0,0.6,0,0.8,0.2,1.1h-1.5
			c-0.1-0.2-0.1-0.4-0.2-0.6h0c-0.4,0.6-0.8,0.8-1.5,0.8c-1.1,0-1.4-0.9-1.4-1.7c0-1.1,0.5-1.6,1.5-1.8l0.9-0.2
			c0.5-0.1,0.6-0.3,0.6-0.7c0-0.5-0.2-0.7-0.7-0.7c-0.5,0-0.7,0.3-0.7,0.8v0.2H151.1z M153.9,18.4c-0.2,0.2-0.5,0.3-0.6,0.3
			c-0.6,0.1-0.9,0.4-0.9,1c0,0.5,0.2,0.8,0.6,0.8s0.9-0.3,0.9-0.9V18.4z"/>
		<path class="st0" d="M159.3,20.8L159.3,20.8c-0.4,0.5-0.8,0.8-1.4,0.8c-1.2,0-1.8-0.9-1.8-3.1c0-2.2,0.6-3.1,1.8-3.1
			c0.6,0,1,0.2,1.3,0.7h0v-2.5h1.5v7.9h-1.5V20.8z M158.5,20.4c0.7,0,0.8-0.7,0.8-1.9c0-1.3-0.1-1.9-0.8-1.9c-0.7,0-0.8,0.7-0.8,1.9
			C157.7,19.7,157.8,20.4,158.5,20.4z"/>
		<path class="st0" d="M164.5,15.5h1.5l-1.5,5.9h-1.8l-1.5-5.9h1.6l0.8,4.2h0L164.5,15.5z"/>
		<path class="st0" d="M167.8,18.7v0.5c0,0.7,0.2,1.4,0.7,1.4c0.5,0,0.7-0.4,0.8-1.1h1.4c-0.1,1.4-0.7,2.1-2.1,2.1
			c-2.2,0-2.3-1.7-2.3-3.2c0-1.6,0.3-3.1,2.4-3.1c1.8,0,2.2,1.2,2.2,3v0.3H167.8z M169.3,17.8c0-0.9-0.1-1.4-0.8-1.4
			c-0.6,0-0.8,0.6-0.8,1.2v0.2H169.3z"/>
		<path class="st0" d="M171.5,15.5h1.5v0.8h0c0.3-0.6,0.7-0.9,1.4-0.9c0.1,0,0.2,0,0.3,0v1.5c-0.2,0-0.3,0-0.5,0
			c-0.5,0-1.1,0.3-1.1,1.1v3.6h-1.5V15.5z"/>
		<path class="st0" d="M176.1,19.5v0.2c0,0.5,0.3,0.9,0.8,0.9c0.5,0,0.8-0.2,0.8-0.7c0-0.4-0.3-0.6-0.6-0.7l-1.1-0.4
			c-0.8-0.3-1.3-0.8-1.3-1.7c0-1,0.6-1.8,2.2-1.8c1.4,0,2,0.6,2,1.7v0.2h-1.4c0-0.6-0.2-0.9-0.7-0.9c-0.4,0-0.7,0.2-0.7,0.6
			c0,0.3,0.2,0.5,0.7,0.7l0.9,0.3c1,0.3,1.3,0.8,1.3,1.7c0,1.2-0.9,1.9-2.2,1.9c-1.7,0-2.2-0.7-2.2-1.9v-0.2H176.1z"/>
		<path class="st0" d="M179.8,17.3v-0.1c0-1.4,0.9-1.8,2.1-1.8c1.8,0,2.1,0.7,2.1,1.8v3.1c0,0.6,0,0.8,0.2,1.1h-1.5
			c-0.1-0.2-0.1-0.4-0.2-0.6h0c-0.4,0.6-0.8,0.8-1.5,0.8c-1.1,0-1.4-0.9-1.4-1.7c0-1.1,0.5-1.6,1.5-1.8l0.9-0.2
			c0.5-0.1,0.6-0.3,0.6-0.7c0-0.5-0.2-0.7-0.7-0.7c-0.5,0-0.7,0.3-0.7,0.8v0.2H179.8z M182.5,18.4c-0.2,0.2-0.5,0.3-0.6,0.3
			c-0.6,0.1-0.9,0.4-0.9,1c0,0.5,0.2,0.8,0.6,0.8c0.4,0,0.9-0.3,0.9-0.9V18.4z"/>
		<path class="st0" d="M187.5,17.3v-0.1c0-1.4,0.9-1.8,2.1-1.8c1.8,0,2.1,0.7,2.1,1.8v3.1c0,0.6,0,0.8,0.2,1.1h-1.5
			c-0.1-0.2-0.1-0.4-0.2-0.6h0c-0.4,0.6-0.8,0.8-1.5,0.8c-1.1,0-1.4-0.9-1.4-1.7c0-1.1,0.5-1.6,1.5-1.8l0.9-0.2
			c0.5-0.1,0.6-0.3,0.6-0.7c0-0.5-0.2-0.7-0.7-0.7c-0.5,0-0.7,0.3-0.7,0.8v0.2H187.5z M190.3,18.4c-0.2,0.2-0.5,0.3-0.6,0.3
			c-0.6,0.1-0.9,0.4-0.9,1c0,0.5,0.2,0.8,0.6,0.8s0.9-0.3,0.9-0.9V18.4z"/>
		<path class="st0" d="M192.7,13.5h1.5v7.9h-1.5V13.5z"/>
		<path class="st0" d="M200.6,17.6c0-0.6-0.1-1.2-0.7-1.2c-0.7,0-0.9,0.7-0.9,2c0,1.5,0.1,2.1,0.8,2.1c0.5,0,0.7-0.4,0.7-1.4h1.5
			c0,1.6-0.6,2.4-2.3,2.4c-1.5,0-2.3-0.7-2.3-3.1c0-2.4,1-3.1,2.4-3.1c1.4,0,2.1,0.9,2.1,2.3H200.6z"/>
		<path class="st0" d="M204.8,15.3c1.8,0,2.3,1.1,2.3,3.1c0,2-0.6,3.1-2.3,3.1c-1.8,0-2.3-1.1-2.3-3.1
			C202.5,16.4,203.1,15.3,204.8,15.3z M204.8,20.5c0.6,0,0.8-0.6,0.8-2.1c0-1.5-0.2-2.1-0.8-2.1c-0.7,0-0.8,0.9-0.8,2.1
			C204,19.6,204.1,20.5,204.8,20.5z"/>
		<path class="st0" d="M207.9,15.5h1.5v0.8h0c0.3-0.6,0.7-0.9,1.4-0.9c0.1,0,0.2,0,0.3,0v1.5c-0.2,0-0.3,0-0.5,0
			c-0.5,0-1.1,0.3-1.1,1.1v3.6h-1.5V15.5z"/>
		<path class="st0" d="M211.4,15.5h1.5v0.8h0c0.3-0.6,0.7-0.9,1.4-0.9c0.1,0,0.2,0,0.3,0v1.5c-0.2,0-0.3,0-0.5,0
			c-0.5,0-1.1,0.3-1.1,1.1v3.6h-1.5V15.5z"/>
		<path class="st0" d="M216.3,18.7v0.5c0,0.7,0.2,1.4,0.7,1.4c0.5,0,0.7-0.4,0.8-1.1h1.4c-0.1,1.4-0.7,2.1-2.1,2.1
			c-2.2,0-2.3-1.7-2.3-3.2c0-1.6,0.3-3.1,2.4-3.1c1.8,0,2.2,1.2,2.2,3v0.3H216.3z M217.8,17.8c0-0.9-0.1-1.4-0.8-1.4
			c-0.6,0-0.8,0.6-0.8,1.2v0.2H217.8z"/>
		<path class="st0" d="M222.1,15.3c1.8,0,2.3,1.1,2.3,3.1c0,2-0.6,3.1-2.3,3.1c-1.8,0-2.3-1.1-2.3-3.1
			C219.8,16.4,220.4,15.3,222.1,15.3z M222.1,20.5c0.6,0,0.8-0.6,0.8-2.1c0-1.5-0.2-2.1-0.8-2.1c-0.7,0-0.8,0.9-0.8,2.1
			C221.3,19.6,221.4,20.5,222.1,20.5z"/>
		<path class="st0" d="M228,16.5h-0.8v-1h0.8v-0.7c0-1.1,0.6-1.4,1.6-1.4c0.3,0,0.5,0,0.8,0v1.1c-0.1,0-0.2,0-0.3,0
			c-0.4,0-0.6,0.1-0.6,0.5v0.5h0.9v1h-0.9v4.9H228V16.5z"/>
		<path class="st0" d="M230.6,17.3v-0.1c0-1.4,0.9-1.8,2.1-1.8c1.8,0,2.1,0.7,2.1,1.8v3.1c0,0.6,0,0.8,0.2,1.1h-1.5
			c-0.1-0.2-0.1-0.4-0.2-0.6h0c-0.4,0.6-0.8,0.8-1.5,0.8c-1.1,0-1.4-0.9-1.4-1.7c0-1.1,0.5-1.6,1.5-1.8l0.9-0.2
			c0.5-0.1,0.6-0.3,0.6-0.7c0-0.5-0.2-0.7-0.7-0.7c-0.5,0-0.7,0.3-0.7,0.8v0.2H230.6z M233.4,18.4c-0.2,0.2-0.5,0.3-0.6,0.3
			c-0.6,0.1-0.9,0.4-0.9,1c0,0.5,0.2,0.8,0.6,0.8s0.9-0.3,0.9-0.9V18.4z"/>
		<path class="st0" d="M235.8,15.5h1.5v0.8h0c0.3-0.6,0.7-0.9,1.4-0.9c0.1,0,0.2,0,0.3,0v1.5c-0.2,0-0.3,0-0.5,0
			c-0.5,0-1.1,0.3-1.1,1.1v3.6h-1.5V15.5z"/>
		<path class="st0" d="M239.3,15.5h1.5v0.6h0c0.4-0.5,0.9-0.8,1.5-0.8c0.7,0,1.2,0.3,1.4,0.9h0c0.2-0.6,0.8-0.9,1.5-0.9
			c1,0,1.5,0.6,1.5,1.8v4.3h-1.5v-4.1c0-0.5-0.2-0.8-0.6-0.8c-0.5,0-0.8,0.3-0.8,1v3.9h-1.5v-4.1c0-0.5-0.2-0.8-0.6-0.8
			c-0.5,0-0.8,0.3-0.8,1v3.9h-1.5V15.5z"/>
		<path class="st0" d="M247.5,17.3v-0.1c0-1.4,0.9-1.8,2.1-1.8c1.8,0,2.1,0.7,2.1,1.8v3.1c0,0.6,0,0.8,0.2,1.1h-1.5
			c-0.1-0.2-0.1-0.4-0.2-0.6h0c-0.4,0.6-0.8,0.8-1.5,0.8c-1.1,0-1.4-0.9-1.4-1.7c0-1.1,0.5-1.6,1.5-1.8l0.9-0.2
			c0.5-0.1,0.6-0.3,0.6-0.7c0-0.5-0.2-0.7-0.7-0.7c-0.5,0-0.7,0.3-0.7,0.8v0.2H247.5z M250.3,18.4c-0.2,0.2-0.5,0.3-0.6,0.3
			c-0.6,0.1-0.9,0.4-0.9,1c0,0.5,0.2,0.8,0.6,0.8s0.9-0.3,0.9-0.9V18.4z"/>
		<path class="st0" d="M255.6,17.6c0-0.6-0.1-1.2-0.7-1.2c-0.7,0-0.9,0.7-0.9,2c0,1.5,0.1,2.1,0.8,2.1c0.5,0,0.7-0.4,0.7-1.4h1.5
			c0,1.6-0.6,2.4-2.3,2.4c-1.5,0-2.3-0.7-2.3-3.1c0-2.4,1-3.1,2.4-3.1s2.1,0.9,2.1,2.3H255.6z"/>
		<path class="st0" d="M259.9,15.3c1.8,0,2.3,1.1,2.3,3.1c0,2-0.6,3.1-2.3,3.1c-1.8,0-2.3-1.1-2.3-3.1
			C257.5,16.4,258.1,15.3,259.9,15.3z M259.9,20.5c0.6,0,0.8-0.6,0.8-2.1c0-1.5-0.2-2.1-0.8-2.1c-0.7,0-0.8,0.9-0.8,2.1
			C259,19.6,259.1,20.5,259.9,20.5z"/>
		<path class="st0" d="M265.8,15.5h1.5l-1.5,5.9h-1.8l-1.5-5.9h1.6l0.8,4.2h0L265.8,15.5z"/>
		<path class="st0" d="M267.8,13.5h1.5v1.3h-1.5V13.5z M267.8,15.5h1.5v5.9h-1.5V15.5z"/>
		<path class="st0" d="M274.7,15.5v5.6c0,1.6-0.7,2.3-2.5,2.3c-1.3,0-2-0.6-2-1.6h1.5c0,0.2,0.1,0.4,0.2,0.5
			c0.1,0.1,0.3,0.2,0.5,0.2c0.6,0,0.8-0.5,0.8-1.1v-0.8h0c-0.3,0.4-0.8,0.7-1.3,0.7c-1.2,0-1.8-0.8-1.8-3c0-1.4,0.2-3,1.9-3
			c0.4,0,0.9,0.2,1.2,0.8h0v-0.7H274.7z M272.5,20.2c0.6,0,0.8-0.7,0.8-1.7c0-1.4-0.2-2-0.8-2c-0.7,0-0.8,0.5-0.8,2.1
			C271.7,19.4,271.8,20.2,272.5,20.2z"/>
		<path class="st0" d="M275.8,13.5h1.5v1.3h-1.5V13.5z M275.8,15.5h1.5v5.9h-1.5V15.5z"/>
		<path class="st0" d="M278.3,13.5h1.5v7.9h-1.5V13.5z"/>
		<path class="st0" d="M280.7,17.3v-0.1c0-1.4,0.9-1.8,2.1-1.8c1.8,0,2.1,0.7,2.1,1.8v3.1c0,0.6,0,0.8,0.2,1.1h-1.5
			c-0.1-0.2-0.1-0.4-0.2-0.6h0c-0.4,0.6-0.8,0.8-1.5,0.8c-1.1,0-1.4-0.9-1.4-1.7c0-1.1,0.5-1.6,1.5-1.8l0.9-0.2
			c0.5-0.1,0.6-0.3,0.6-0.7c0-0.5-0.2-0.7-0.7-0.7c-0.5,0-0.7,0.3-0.7,0.8v0.2H280.7z M283.5,18.4c-0.2,0.2-0.5,0.3-0.6,0.3
			c-0.6,0.1-0.9,0.4-0.9,1c0,0.5,0.2,0.8,0.6,0.8c0.4,0,0.9-0.3,0.9-0.9V18.4z"/>
		<path class="st0" d="M285.9,15.5h1.5v0.7h0c0.3-0.6,0.9-0.8,1.5-0.8c0.9,0,1.5,0.5,1.5,1.7v4.4h-1.5v-4.1c0-0.6-0.2-0.8-0.6-0.8
			c-0.5,0-0.8,0.3-0.8,1v3.9h-1.5V15.5z"/>
		<path class="st0" d="M294.2,17.6c0-0.6-0.1-1.2-0.7-1.2c-0.7,0-0.9,0.7-0.9,2c0,1.5,0.1,2.1,0.8,2.1c0.5,0,0.7-0.4,0.7-1.4h1.5
			c0,1.6-0.6,2.4-2.3,2.4c-1.5,0-2.3-0.7-2.3-3.1c0-2.4,1-3.1,2.4-3.1s2.1,0.9,2.1,2.3H294.2z"/>
		<path class="st0" d="M296.4,13.5h1.5v1.3h-1.5V13.5z M296.4,15.5h1.5v5.9h-1.5V15.5z"/>
		<path class="st0" d="M298.8,17.3v-0.1c0-1.4,0.9-1.8,2.1-1.8c1.8,0,2.1,0.7,2.1,1.8v3.1c0,0.6,0,0.8,0.2,1.1h-1.5
			c-0.1-0.2-0.1-0.4-0.2-0.6h0c-0.4,0.6-0.8,0.8-1.5,0.8c-1.1,0-1.4-0.9-1.4-1.7c0-1.1,0.5-1.6,1.5-1.8l0.9-0.2
			c0.5-0.1,0.6-0.3,0.6-0.7c0-0.5-0.2-0.7-0.7-0.7c-0.5,0-0.7,0.3-0.7,0.8v0.2H298.8z M301.6,18.4c-0.2,0.2-0.5,0.3-0.6,0.3
			c-0.6,0.1-0.9,0.4-0.9,1c0,0.5,0.2,0.8,0.6,0.8s0.9-0.3,0.9-0.9V18.4z"/>
		<path class="st0" d="M309.4,15.4h1l-0.6,2.8c0,0.2-0.1,0.4-0.1,0.5c0,0.2,0.1,0.2,0.2,0.2c0.4,0,1.1-0.8,1.1-1.9
			c0-1.5-1.4-2.5-2.9-2.5c-1.7,0-3,1.5-3,3.1c0,1.7,1.4,3,3.1,3c1,0,1.8-0.3,2.4-0.7h1c-0.8,1.1-2,1.7-3.6,1.7
			c-2.3,0-4.1-1.8-4.1-4.1c0-2.3,1.8-4.1,4.1-4.1c2.2,0,4.1,1.3,4.1,3.3c0,2.3-2,3.1-2.8,3.1c-0.4,0-0.7-0.2-0.7-0.6h0
			c-0.3,0.3-0.7,0.6-1.3,0.6c-0.8,0-1.6-0.7-1.6-1.9c0-1.3,0.9-2.7,2.4-2.7c0.5,0,1,0.2,1.3,0.7L309.4,15.4z M307.6,18.7
			c0.7,0,1.3-0.8,1.3-1.4c0-0.5-0.4-0.8-0.8-0.8c-0.7,0-1.2,0.7-1.2,1.4C306.8,18.3,307.1,18.7,307.6,18.7z"/>
		<path class="st0" d="M313,16.5h-0.8v-1h0.8v-0.7c0-1.1,0.6-1.4,1.6-1.4c0.3,0,0.5,0,0.8,0v1.1c-0.1,0-0.2,0-0.3,0
			c-0.4,0-0.6,0.1-0.6,0.5v0.5h0.9v1h-0.9v4.9H313V16.5z"/>
		<path class="st0" d="M315.6,17.3v-0.1c0-1.4,0.9-1.8,2.1-1.8c1.8,0,2.1,0.7,2.1,1.8v3.1c0,0.6,0,0.8,0.2,1.1h-1.5
			c-0.1-0.2-0.1-0.4-0.2-0.6h0c-0.4,0.6-0.8,0.8-1.5,0.8c-1.1,0-1.4-0.9-1.4-1.7c0-1.1,0.5-1.6,1.5-1.8l0.9-0.2
			c0.5-0.1,0.6-0.3,0.6-0.7c0-0.5-0.2-0.7-0.7-0.7c-0.5,0-0.7,0.3-0.7,0.8v0.2H315.6z M318.4,18.4c-0.2,0.2-0.5,0.3-0.6,0.3
			c-0.6,0.1-0.9,0.4-0.9,1c0,0.5,0.2,0.8,0.6,0.8s0.9-0.3,0.9-0.9V18.4z"/>
		<path class="st0" d="M320.8,15.5h1.5v0.8h0c0.3-0.6,0.7-0.9,1.4-0.9c0.1,0,0.2,0,0.3,0v1.5c-0.2,0-0.3,0-0.5,0
			c-0.5,0-1.1,0.3-1.1,1.1v3.6h-1.5V15.5z"/>
		<path class="st0" d="M324.4,15.5h1.5v0.6h0c0.4-0.5,0.9-0.8,1.5-0.8c0.7,0,1.2,0.3,1.4,0.9h0c0.2-0.6,0.8-0.9,1.5-0.9
			c1,0,1.5,0.6,1.5,1.8v4.3h-1.5v-4.1c0-0.5-0.2-0.8-0.6-0.8c-0.5,0-0.8,0.3-0.8,1v3.9h-1.5v-4.1c0-0.5-0.2-0.8-0.6-0.8
			c-0.5,0-0.8,0.3-0.8,1v3.9h-1.5V15.5z"/>
		<path class="st0" d="M332.6,17.3v-0.1c0-1.4,0.9-1.8,2.1-1.8c1.8,0,2.1,0.7,2.1,1.8v3.1c0,0.6,0,0.8,0.2,1.1h-1.5
			c-0.1-0.2-0.1-0.4-0.2-0.6h0c-0.4,0.6-0.8,0.8-1.5,0.8c-1.1,0-1.4-0.9-1.4-1.7c0-1.1,0.5-1.6,1.5-1.8l0.9-0.2
			c0.5-0.1,0.6-0.3,0.6-0.7c0-0.5-0.2-0.7-0.7-0.7c-0.5,0-0.7,0.3-0.7,0.8v0.2H332.6z M335.4,18.4c-0.2,0.2-0.5,0.3-0.6,0.3
			c-0.6,0.1-0.9,0.4-0.9,1c0,0.5,0.2,0.8,0.6,0.8s0.9-0.3,0.9-0.9V18.4z"/>
		<path class="st0" d="M338.9,19.5v0.2c0,0.5,0.3,0.9,0.8,0.9c0.5,0,0.8-0.2,0.8-0.7c0-0.4-0.3-0.6-0.5-0.7l-1.1-0.4
			c-0.8-0.3-1.3-0.8-1.3-1.7c0-1,0.6-1.8,2.2-1.8c1.4,0,2,0.6,2,1.7v0.2h-1.4c0-0.6-0.2-0.9-0.7-0.9c-0.4,0-0.7,0.2-0.7,0.6
			c0,0.3,0.2,0.5,0.7,0.7l0.9,0.3c1,0.3,1.3,0.8,1.3,1.7c0,1.2-0.9,1.9-2.2,1.9c-1.7,0-2.2-0.7-2.2-1.9v-0.2H338.9z"/>
		<path class="st0" d="M342.5,17.3v-0.1c0-1.4,0.9-1.8,2.1-1.8c1.8,0,2.1,0.7,2.1,1.8v3.1c0,0.6,0,0.8,0.2,1.1h-1.5
			c-0.1-0.2-0.1-0.4-0.2-0.6h0c-0.4,0.6-0.8,0.8-1.5,0.8c-1.1,0-1.4-0.9-1.4-1.7c0-1.1,0.5-1.6,1.5-1.8l0.9-0.2
			c0.5-0.1,0.6-0.3,0.6-0.7c0-0.5-0.2-0.7-0.7-0.7c-0.5,0-0.7,0.3-0.7,0.8v0.2H342.5z M345.3,18.4c-0.2,0.2-0.5,0.3-0.6,0.3
			c-0.6,0.1-0.9,0.4-0.9,1c0,0.5,0.2,0.8,0.6,0.8s0.9-0.3,0.9-0.9V18.4z"/>
		<path class="st0" d="M350.8,17.6v1.3h-3.1v-1.3H350.8z"/>
		<path class="st0" d="M352.8,19.5v0.2c0,0.5,0.3,0.9,0.8,0.9c0.5,0,0.8-0.2,0.8-0.7c0-0.4-0.3-0.6-0.6-0.7l-1.1-0.4
			c-0.8-0.3-1.3-0.8-1.3-1.7c0-1,0.6-1.8,2.2-1.8c1.4,0,2,0.6,2,1.7v0.2h-1.4c0-0.6-0.2-0.9-0.7-0.9c-0.4,0-0.7,0.2-0.7,0.6
			c0,0.3,0.2,0.5,0.7,0.7l0.9,0.3c1,0.3,1.3,0.8,1.3,1.7c0,1.2-0.9,1.9-2.2,1.9c-1.7,0-2.2-0.7-2.2-1.9v-0.2H352.8z"/>
		<path class="st0" d="M359.3,17.6c0-0.6-0.1-1.2-0.7-1.2c-0.7,0-0.9,0.7-0.9,2c0,1.5,0.1,2.1,0.8,2.1c0.5,0,0.7-0.4,0.7-1.4h1.5
			c0,1.6-0.6,2.4-2.3,2.4c-1.5,0-2.3-0.7-2.3-3.1c0-2.4,1-3.1,2.4-3.1s2.1,0.9,2.1,2.3H359.3z"/>
		<path class="st0" d="M361.5,13.5h1.5v2.5h0c0.3-0.5,0.8-0.8,1.4-0.8c0.9,0,1.5,0.5,1.5,1.7v4.4h-1.5v-4.1c0-0.6-0.2-0.8-0.6-0.8
			c-0.5,0-0.8,0.3-0.8,1v3.9h-1.5V13.5z"/>
		<path class="st0" d="M366.4,15.5h1.5l0.7,4.2h0l0.7-4.2h1.7l0.8,4.2h0l0.7-4.2h1.5l-1.3,5.9H371l-0.8-4.2h0l-0.7,4.2h-1.8
			L366.4,15.5z"/>
		<path class="st0" d="M374.5,17.3v-0.1c0-1.4,0.9-1.8,2.1-1.8c1.8,0,2.1,0.7,2.1,1.8v3.1c0,0.6,0,0.8,0.2,1.1h-1.5
			c-0.1-0.2-0.1-0.4-0.2-0.6h0c-0.4,0.6-0.8,0.8-1.5,0.8c-1.1,0-1.4-0.9-1.4-1.7c0-1.1,0.5-1.6,1.5-1.8l0.9-0.2
			c0.5-0.1,0.6-0.3,0.6-0.7c0-0.5-0.2-0.7-0.7-0.7c-0.5,0-0.7,0.3-0.7,0.8v0.2H374.5z M377.2,18.4c-0.2,0.2-0.5,0.3-0.6,0.3
			c-0.6,0.1-0.9,0.4-0.9,1c0,0.5,0.2,0.8,0.6,0.8c0.4,0,0.9-0.3,0.9-0.9V18.4z"/>
		<path class="st0" d="M379.7,13.5h1.5V16h0c0.3-0.5,0.7-0.7,1.3-0.7c1.2,0,1.8,0.9,1.8,3.1c0,2.2-0.6,3.1-1.8,3.1
			c-0.6,0-1-0.2-1.3-0.8h0v0.6h-1.5V13.5z M382,20.4c0.7,0,0.8-0.7,0.8-1.9c0-1.3-0.1-1.9-0.8-1.9c-0.7,0-0.8,0.7-0.8,1.9
			C381.2,19.7,381.3,20.4,382,20.4z"/>
		<path class="st0" d="M386.3,18.7v0.5c0,0.7,0.2,1.4,0.7,1.4c0.5,0,0.7-0.4,0.8-1.1h1.4c-0.1,1.4-0.7,2.1-2.1,2.1
			c-2.2,0-2.3-1.7-2.3-3.2c0-1.6,0.3-3.1,2.4-3.1c1.8,0,2.2,1.2,2.2,3v0.3H386.3z M387.9,17.8c0-0.9-0.1-1.4-0.8-1.4
			c-0.6,0-0.8,0.6-0.8,1.2v0.2H387.9z"/>
		<path class="st0" d="M391.6,19.7v1.7h-1.5v-1.7H391.6z"/>
		<path class="st0" d="M395.4,17.6c0-0.6-0.1-1.2-0.7-1.2c-0.7,0-0.9,0.7-0.9,2c0,1.5,0.1,2.1,0.8,2.1c0.5,0,0.7-0.4,0.7-1.4h1.5
			c0,1.6-0.6,2.4-2.3,2.4c-1.5,0-2.3-0.7-2.3-3.1c0-2.4,1-3.1,2.4-3.1s2.1,0.9,2.1,2.3H395.4z"/>
		<path class="st0" d="M399.7,15.3c1.8,0,2.3,1.1,2.3,3.1c0,2-0.6,3.1-2.3,3.1c-1.8,0-2.3-1.1-2.3-3.1
			C397.3,16.4,397.9,15.3,399.7,15.3z M399.7,20.5c0.6,0,0.8-0.6,0.8-2.1c0-1.5-0.2-2.1-0.8-2.1c-0.7,0-0.8,0.9-0.8,2.1
			C398.9,19.6,398.9,20.5,399.7,20.5z"/>
		<path class="st0" d="M402.7,15.5h1.5v0.6h0c0.4-0.5,0.9-0.8,1.5-0.8c0.7,0,1.2,0.3,1.4,0.9h0c0.2-0.6,0.8-0.9,1.5-0.9
			c1,0,1.5,0.6,1.5,1.8v4.3h-1.5v-4.1c0-0.5-0.2-0.8-0.6-0.8c-0.5,0-0.8,0.3-0.8,1v3.9h-1.5v-4.1c0-0.5-0.2-0.8-0.6-0.8
			c-0.5,0-0.8,0.3-0.8,1v3.9h-1.5V15.5z"/>
		<path class="st0" d="M412.5,19.7v1.7H411v-1.7H412.5z"/>
		<path class="st0" d="M413.5,15.5h1.5v0.6h0c0.4-0.5,0.9-0.8,1.5-0.8c0.7,0,1.2,0.3,1.4,0.9h0c0.2-0.6,0.8-0.9,1.5-0.9
			c1,0,1.5,0.6,1.5,1.8v4.3h-1.5v-4.1c0-0.5-0.2-0.8-0.6-0.8c-0.5,0-0.8,0.3-0.8,1v3.9h-1.5v-4.1c0-0.5-0.2-0.8-0.6-0.8
			c-0.5,0-0.8,0.3-0.8,1v3.9h-1.5V15.5z"/>
		<path class="st0" d="M424.5,15.5h1.6l-1.5,2.9l1.6,3h-1.6l-0.9-1.9l-0.9,1.9h-1.6l1.6-3l-1.5-2.9h1.6l0.8,1.8L424.5,15.5z"/>
		<path class="st0" d="M2.3,28.5c1.8,0,2.3,1.1,2.3,3.1c0,2-0.6,3.1-2.3,3.1c-1.8,0-2.3-1.1-2.3-3.1C0,29.6,0.6,28.5,2.3,28.5z
			 M2.3,33.7c0.6,0,0.8-0.6,0.8-2.1c0-1.5-0.2-2.1-0.8-2.1c-0.7,0-0.8,0.9-0.8,2.1C1.5,32.8,1.6,33.7,2.3,33.7z"/>
		<path class="st0" d="M7.9,30.5v-0.1c0-1.4,0.9-1.8,2.1-1.8c1.8,0,2.1,0.7,2.1,1.8v3.1c0,0.6,0,0.8,0.2,1.1h-1.5
			c-0.1-0.2-0.1-0.4-0.2-0.6h0c-0.4,0.6-0.8,0.8-1.5,0.8c-1.1,0-1.4-0.9-1.4-1.7c0-1.1,0.5-1.6,1.5-1.8l0.9-0.2
			c0.5-0.1,0.6-0.3,0.6-0.7c0-0.5-0.2-0.7-0.7-0.7c-0.5,0-0.7,0.3-0.7,0.8v0.2H7.9z M10.7,31.6c-0.2,0.2-0.5,0.3-0.6,0.3
			c-0.6,0.1-0.9,0.4-0.9,1c0,0.5,0.2,0.8,0.6,0.8c0.4,0,0.9-0.3,0.9-0.9V31.6z"/>
		<path class="st0" d="M13.1,26.7h1.5v7.9h-1.5V26.7z"/>
		<path class="st0" d="M18.5,27H20v1.7h0.9v1H20v3.2c0,0.5,0.1,0.6,0.5,0.6c0.1,0,0.2,0,0.3,0v1.1c-0.3,0-0.6,0.1-1,0.1
			c-1.2,0-1.4-0.4-1.4-1.6v-3.4h-0.8v-1h0.8V27z"/>
		<path class="st0" d="M22.6,31.9v0.5c0,0.7,0.2,1.4,0.7,1.4c0.5,0,0.7-0.4,0.8-1.1h1.4c-0.1,1.4-0.7,2.1-2.1,2.1
			c-2.2,0-2.3-1.7-2.3-3.2c0-1.6,0.3-3.1,2.4-3.1c1.8,0,2.2,1.2,2.2,3v0.3H22.6z M24.1,31c0-0.9-0.1-1.4-0.8-1.4
			c-0.6,0-0.8,0.6-0.8,1.2V31H24.1z"/>
		<path class="st0" d="M26.3,26.7h1.5v7.9h-1.5V26.7z"/>
		<path class="st0" d="M30.1,31.9v0.5c0,0.7,0.2,1.4,0.7,1.4c0.5,0,0.7-0.4,0.8-1.1H33c-0.1,1.4-0.7,2.1-2.1,2.1
			c-2.2,0-2.3-1.7-2.3-3.2c0-1.6,0.3-3.1,2.4-3.1c1.8,0,2.2,1.2,2.2,3v0.3H30.1z M31.6,31c0-0.9-0.1-1.4-0.8-1.4
			c-0.6,0-0.8,0.6-0.8,1.2V31H31.6z M30.7,26.4h1.5L31.2,28h-1L30.7,26.4z"/>
		<path class="st0" d="M34.1,29.7h-0.8v-1h0.8V28c0-1.1,0.6-1.4,1.6-1.4c0.3,0,0.5,0,0.8,0v1.1c-0.1,0-0.2,0-0.3,0
			c-0.4,0-0.6,0.1-0.6,0.5v0.5h0.9v1h-0.9v4.9h-1.5V29.7z"/>
		<path class="st0" d="M39.1,28.5c1.8,0,2.3,1.1,2.3,3.1c0,2-0.6,3.1-2.3,3.1c-1.8,0-2.3-1.1-2.3-3.1C36.7,29.6,37.3,28.5,39.1,28.5
			z M39.1,33.7c0.6,0,0.8-0.6,0.8-2.1c0-1.5-0.2-2.1-0.8-2.1c-0.7,0-0.8,0.9-0.8,2.1C38.2,32.8,38.3,33.7,39.1,33.7z"/>
		<path class="st0" d="M42.1,28.7h1.5v0.7h0c0.3-0.6,0.9-0.8,1.5-0.8c0.9,0,1.5,0.5,1.5,1.7v4.4h-1.5v-4.1c0-0.6-0.2-0.8-0.6-0.8
			c-0.5,0-0.8,0.3-0.8,1v3.9h-1.5V28.7z"/>
		<path class="st0" d="M49.6,28.5c1.8,0,2.3,1.1,2.3,3.1c0,2-0.6,3.1-2.3,3.1c-1.8,0-2.3-1.1-2.3-3.1C47.3,29.6,47.9,28.5,49.6,28.5
			z M49.6,33.7c0.6,0,0.8-0.6,0.8-2.1c0-1.5-0.2-2.1-0.8-2.1c-0.7,0-0.8,0.9-0.8,2.1C48.8,32.8,48.9,33.7,49.6,33.7z"/>
		<path class="st0" d="M57.3,26.8c1.9,0,2.4,1,2.4,3.8c0,2.2-0.1,4.2-2.4,4.2c-1.9,0-2.4-1-2.4-3.8C54.9,28.8,55,26.8,57.3,26.8z
			 M56.5,31.3c0,2,0.2,2.4,0.9,2.4c0.7,0,0.9-0.6,0.9-2.6v-0.8c0-2-0.2-2.4-0.9-2.4c-0.7,0-0.9,0.6-0.9,2.6V31.3z"/>
		<path class="st0" d="M61.9,34.6v-5.5h-1.6v-1h0.1c1,0,1.7-0.4,1.8-1.3h1.2v7.8H61.9z"/>
		<path class="st0" d="M66.5,30.5L66.5,30.5c-0.8-0.2-1.1-1-1.1-1.5c0-1.5,0.9-2.1,2.3-2.1c1.4,0,2.3,0.6,2.3,2.1
			c0,0.6-0.3,1.3-1.1,1.5v0c0.9,0.2,1.3,0.9,1.3,1.9c0,0.9-0.3,2.4-2.5,2.4c-2.2,0-2.5-1.5-2.5-2.4C65.2,31.4,65.6,30.6,66.5,30.5z
			 M67.7,33.7c0.7,0,0.9-0.6,0.9-1.3c0-0.7-0.2-1.3-0.9-1.3c-0.7,0-0.9,0.6-0.9,1.3C66.8,33.1,66.9,33.7,67.7,33.7z M67.7,30
			c0.5,0,0.8-0.4,0.8-1.1c0-0.7-0.3-1.1-0.8-1.1c-0.5,0-0.8,0.4-0.8,1.1C66.9,29.6,67.2,30,67.7,30z"/>
		<path class="st0" d="M72.8,26.8c1.9,0,2.4,1,2.4,3.8c0,2.2-0.1,4.2-2.4,4.2c-1.9,0-2.4-1-2.4-3.8C70.4,28.8,70.5,26.8,72.8,26.8z
			 M72,31.3c0,2,0.2,2.4,0.9,2.4c0.7,0,0.9-0.6,0.9-2.6v-0.8c0-2-0.2-2.4-0.9-2.4c-0.7,0-0.9,0.6-0.9,2.6V31.3z"/>
		<path class="st0" d="M78,26.8c1.9,0,2.4,1,2.4,3.8c0,2.2-0.1,4.2-2.4,4.2c-1.9,0-2.4-1-2.4-3.8C75.6,28.8,75.7,26.8,78,26.8z
			 M77.1,31.3c0,2,0.2,2.4,0.9,2.4c0.7,0,0.9-0.6,0.9-2.6v-0.8c0-2-0.2-2.4-0.9-2.4c-0.7,0-0.9,0.6-0.9,2.6V31.3z"/>
		<path class="st0" d="M84.8,32.3c0,0.9,0.2,1.4,0.9,1.4c0.8,0,0.9-0.6,0.9-1.3c0-0.7-0.2-1.3-1-1.3H85v-1h0.5
			c0.7,0,0.9-0.6,0.9-1.2c0-0.7-0.2-1-0.8-1c-0.7,0-0.8,0.5-0.8,1.3h-1.5c0-1.5,0.8-2.3,2.3-2.3c1.4,0,2.2,0.6,2.2,2
			c0,0.9-0.5,1.6-1.2,1.7v0c1,0.2,1.4,0.9,1.4,1.8c0,1-0.4,2.4-2.6,2.4c-1.5,0-2.3-0.9-2.3-2.4v0H84.8z"/>
		<path class="st0" d="M91.6,28.8c0-0.6-0.2-0.9-0.7-0.9c-0.8,0-1,0.8-1,2v0.4h0c0.3-0.4,0.8-0.7,1.5-0.7c1.4,0,1.9,1,1.9,2.4
			c0,1.8-0.8,2.8-2.5,2.8c-2.2,0-2.5-1.7-2.5-3.6c0-2.2,0-4.3,2.6-4.3c1.1,0,2.1,0.5,2.2,2H91.6z M90.9,33.7c0.8,0,0.9-0.7,0.9-1.5
			c0-1.1-0.2-1.5-0.9-1.5c-0.6,0-0.9,0.4-0.9,1.5C90.1,33.1,90.2,33.7,90.9,33.7z"/>
		<path class="st0" d="M94.9,30.5L94.9,30.5c-0.8-0.2-1.1-1-1.1-1.5c0-1.5,0.9-2.1,2.3-2.1c1.4,0,2.3,0.6,2.3,2.1
			c0,0.6-0.3,1.3-1.1,1.5v0c0.9,0.2,1.3,0.9,1.3,1.9c0,0.9-0.3,2.4-2.5,2.4c-2.2,0-2.5-1.5-2.5-2.4C93.6,31.4,94,30.6,94.9,30.5z
			 M96,33.7c0.7,0,0.9-0.6,0.9-1.3c0-0.7-0.2-1.3-0.9-1.3c-0.7,0-0.9,0.6-0.9,1.3C95.1,33.1,95.3,33.7,96,33.7z M96,30
			c0.5,0,0.8-0.4,0.8-1.1c0-0.7-0.3-1.1-0.8-1.1c-0.5,0-0.8,0.4-0.8,1.1C95.3,29.6,95.6,30,96,30z"/>
		<path class="st0" d="M103.6,34.6h-4.8c0-1.4,0.6-2.3,1.7-3.4l0.6-0.6c0.7-0.6,0.8-1,0.8-1.8c0-0.6-0.3-1-0.8-1
			c-0.8,0-0.9,0.7-0.9,1.5h-1.5v-0.3c0-1.4,0.8-2.3,2.4-2.3c1.6,0,2.3,0.8,2.3,2.1c0,1-0.3,1.7-1.2,2.5l-0.9,0.8
			c-0.5,0.4-0.7,0.8-0.8,1.1h2.9V34.6z"/>
		<path class="st0" d="M107.2,28.8c0-0.6-0.2-0.9-0.7-0.9c-0.8,0-1,0.8-1,2v0.4h0c0.3-0.4,0.8-0.7,1.5-0.7c1.4,0,1.9,1,1.9,2.4
			c0,1.8-0.8,2.8-2.5,2.8c-2.2,0-2.5-1.7-2.5-3.6c0-2.2,0-4.3,2.6-4.3c1.1,0,2.1,0.5,2.2,2H107.2z M106.4,33.7
			c0.8,0,0.9-0.7,0.9-1.5c0-1.1-0.2-1.5-0.9-1.5c-0.6,0-0.9,0.4-0.9,1.5C105.6,33.1,105.7,33.7,106.4,33.7z"/>
		<path class="st0" d="M110.4,30.5L110.4,30.5c-0.8-0.2-1.1-1-1.1-1.5c0-1.5,0.9-2.1,2.3-2.1s2.3,0.6,2.3,2.1c0,0.6-0.3,1.3-1.1,1.5
			v0c0.9,0.2,1.3,0.9,1.3,1.9c0,0.9-0.3,2.4-2.5,2.4s-2.5-1.5-2.5-2.4C109.1,31.4,109.5,30.6,110.4,30.5z M111.5,33.7
			c0.7,0,0.9-0.6,0.9-1.3c0-0.7-0.2-1.3-0.9-1.3s-0.9,0.6-0.9,1.3C110.6,33.1,110.8,33.7,111.5,33.7z M111.5,30
			c0.5,0,0.8-0.4,0.8-1.1c0-0.7-0.3-1.1-0.8-1.1s-0.8,0.4-0.8,1.1C110.8,29.6,111.1,30,111.5,30z"/>
		<path class="st0" d="M119.1,34.6h-4.8c0-1.4,0.6-2.3,1.7-3.4l0.6-0.6c0.7-0.6,0.8-1,0.8-1.8c0-0.6-0.3-1-0.8-1
			c-0.8,0-0.9,0.7-0.9,1.5h-1.5v-0.3c0-1.4,0.8-2.3,2.4-2.3c1.6,0,2.3,0.8,2.3,2.1c0,1-0.3,1.7-1.2,2.5l-0.9,0.8
			c-0.5,0.4-0.7,0.8-0.8,1.1h2.9V34.6z"/>
		<path class="st0" d="M124.4,28.5c1.8,0,2.3,1.1,2.3,3.1c0,2-0.6,3.1-2.3,3.1c-1.8,0-2.3-1.1-2.3-3.1
			C122.1,29.6,122.7,28.5,124.4,28.5z M124.4,33.7c0.6,0,0.8-0.6,0.8-2.1c0-1.5-0.2-2.1-0.8-2.1c-0.7,0-0.8,0.9-0.8,2.1
			C123.6,32.8,123.7,33.7,124.4,33.7z"/>
		<path class="st0" d="M130,30.5v-0.1c0-1.4,0.9-1.8,2.1-1.8c1.8,0,2.1,0.7,2.1,1.8v3.1c0,0.6,0,0.8,0.2,1.1h-1.5
			c-0.1-0.2-0.1-0.4-0.2-0.6h0c-0.4,0.6-0.8,0.8-1.5,0.8c-1.1,0-1.4-0.9-1.4-1.7c0-1.1,0.5-1.6,1.5-1.8l0.9-0.2
			c0.5-0.1,0.6-0.3,0.6-0.7c0-0.5-0.2-0.7-0.7-0.7c-0.5,0-0.7,0.3-0.7,0.8v0.2H130z M132.7,31.6c-0.2,0.2-0.5,0.3-0.6,0.3
			c-0.6,0.1-0.9,0.4-0.9,1c0,0.5,0.2,0.8,0.6,0.8s0.9-0.3,0.9-0.9V31.6z"/>
		<path class="st0" d="M138,27h1.5v1.7h0.9v1h-0.9v3.2c0,0.5,0.1,0.6,0.5,0.6c0.1,0,0.2,0,0.3,0v1.1c-0.3,0-0.6,0.1-1,0.1
			c-1.2,0-1.4-0.4-1.4-1.6v-3.4h-0.8v-1h0.8V27z"/>
		<path class="st0" d="M140.8,28.7h1.5v0.8h0c0.3-0.6,0.7-0.9,1.4-0.9c0.1,0,0.2,0,0.3,0V30c-0.2,0-0.3,0-0.5,0
			c-0.5,0-1.1,0.3-1.1,1.1v3.6h-1.5V28.7z"/>
		<path class="st0" d="M144.4,30.5v-0.1c0-1.4,0.9-1.8,2.1-1.8c1.8,0,2.1,0.7,2.1,1.8v3.1c0,0.6,0,0.8,0.2,1.1h-1.5
			c-0.1-0.2-0.1-0.4-0.2-0.6h0c-0.4,0.6-0.8,0.8-1.5,0.8c-1.1,0-1.4-0.9-1.4-1.7c0-1.1,0.5-1.6,1.5-1.8l0.9-0.2
			c0.5-0.1,0.6-0.3,0.6-0.7c0-0.5-0.2-0.7-0.7-0.7c-0.5,0-0.7,0.3-0.7,0.8v0.2H144.4z M147.2,31.6c-0.2,0.2-0.5,0.3-0.6,0.3
			c-0.6,0.1-0.9,0.4-0.9,1c0,0.5,0.2,0.8,0.6,0.8s0.9-0.3,0.9-0.9V31.6z"/>
		<path class="st0" d="M152.4,28.7h1.5l-1.5,5.9h-1.8l-1.5-5.9h1.6l0.8,4.2h0L152.4,28.7z"/>
		<path class="st0" d="M155.6,31.9v0.5c0,0.7,0.2,1.4,0.7,1.4c0.5,0,0.7-0.4,0.8-1.1h1.4c-0.1,1.4-0.7,2.1-2.1,2.1
			c-2.2,0-2.3-1.7-2.3-3.2c0-1.6,0.3-3.1,2.4-3.1c1.8,0,2.2,1.2,2.2,3v0.3H155.6z M157.2,31c0-0.9-0.1-1.4-0.8-1.4
			c-0.6,0-0.8,0.6-0.8,1.2V31H157.2z M156.3,26.4h1.5l-1.1,1.6h-1L156.3,26.4z"/>
		<path class="st0" d="M160.4,32.7v0.2c0,0.5,0.3,0.9,0.8,0.9c0.5,0,0.8-0.2,0.8-0.7c0-0.4-0.3-0.6-0.5-0.7l-1.1-0.4
			c-0.8-0.3-1.3-0.8-1.3-1.7c0-1,0.6-1.8,2.2-1.8c1.4,0,2,0.6,2,1.7v0.2H162c0-0.6-0.2-0.9-0.7-0.9c-0.4,0-0.7,0.2-0.7,0.6
			c0,0.3,0.2,0.5,0.7,0.7l0.9,0.3c1,0.3,1.3,0.8,1.3,1.7c0,1.2-0.9,1.9-2.2,1.9c-1.7,0-2.2-0.7-2.2-1.9v-0.2H160.4z"/>
		<path class="st0" d="M169.7,34L169.7,34c-0.4,0.5-0.8,0.8-1.4,0.8c-1.2,0-1.8-0.9-1.8-3.1c0-2.2,0.6-3.1,1.8-3.1
			c0.6,0,1,0.2,1.3,0.7h0v-2.5h1.5v7.9h-1.5V34z M168.8,33.6c0.7,0,0.8-0.7,0.8-1.9c0-1.3-0.1-1.9-0.8-1.9c-0.7,0-0.8,0.7-0.8,1.9
			C168,32.9,168.1,33.6,168.8,33.6z"/>
		<path class="st0" d="M173.3,31.9v0.5c0,0.7,0.2,1.4,0.7,1.4c0.5,0,0.7-0.4,0.8-1.1h1.4c-0.1,1.4-0.7,2.1-2.1,2.1
			c-2.2,0-2.3-1.7-2.3-3.2c0-1.6,0.3-3.1,2.4-3.1c1.8,0,2.2,1.2,2.2,3v0.3H173.3z M174.9,31c0-0.9-0.1-1.4-0.8-1.4
			c-0.6,0-0.8,0.6-0.8,1.2V31H174.9z"/>
		<path class="st0" d="M179.1,28.7h1.5l0.7,4.2h0l0.7-4.2h1.7l0.8,4.2h0l0.7-4.2h1.5l-1.3,5.9h-1.7l-0.8-4.2h0l-0.7,4.2h-1.8
			L179.1,28.7z"/>
		<path class="st0" d="M186.7,28.7h1.5l0.7,4.2h0l0.7-4.2h1.7l0.8,4.2h0l0.7-4.2h1.5l-1.3,5.9h-1.7l-0.8-4.2h0l-0.7,4.2H188
			L186.7,28.7z"/>
		<path class="st0" d="M194.4,28.7h1.5l0.7,4.2h0l0.7-4.2h1.7l0.8,4.2h0l0.7-4.2h1.5l-1.3,5.9H199l-0.8-4.2h0l-0.7,4.2h-1.8
			L194.4,28.7z"/>
		<path class="st0" d="M203.6,32.9v1.7h-1.5v-1.7H203.6z"/>
		<path class="st0" d="M205.7,32.7v0.2c0,0.5,0.3,0.9,0.8,0.9c0.5,0,0.8-0.2,0.8-0.7c0-0.4-0.3-0.6-0.6-0.7l-1.1-0.4
			c-0.8-0.3-1.3-0.8-1.3-1.7c0-1,0.6-1.8,2.2-1.8c1.4,0,2,0.6,2,1.7v0.2h-1.4c0-0.6-0.2-0.9-0.7-0.9c-0.4,0-0.7,0.2-0.7,0.6
			c0,0.3,0.2,0.5,0.7,0.7l0.9,0.3c1,0.3,1.3,0.8,1.3,1.7c0,1.2-0.9,1.9-2.2,1.9c-1.7,0-2.2-0.7-2.2-1.9v-0.2H205.7z"/>
		<path class="st0" d="M212.2,30.8c0-0.6-0.1-1.2-0.7-1.2c-0.7,0-0.9,0.7-0.9,2c0,1.5,0.1,2.1,0.8,2.1c0.5,0,0.7-0.4,0.7-1.4h1.5
			c0,1.6-0.6,2.4-2.3,2.4c-1.5,0-2.3-0.7-2.3-3.1c0-2.4,1-3.1,2.4-3.1s2.1,0.9,2.1,2.3H212.2z"/>
		<path class="st0" d="M214.3,26.7h1.5v2.5h0c0.3-0.5,0.8-0.8,1.4-0.8c0.9,0,1.5,0.5,1.5,1.7v4.4h-1.5v-4.1c0-0.6-0.2-0.8-0.6-0.8
			c-0.5,0-0.8,0.3-0.8,1v3.9h-1.5V26.7z"/>
		<path class="st0" d="M219.3,28.7h1.5l0.7,4.2h0l0.7-4.2h1.7l0.8,4.2h0l0.7-4.2h1.5l-1.3,5.9h-1.7l-0.8-4.2h0l-0.7,4.2h-1.8
			L219.3,28.7z"/>
		<path class="st0" d="M227.3,30.5v-0.1c0-1.4,0.9-1.8,2.1-1.8c1.8,0,2.1,0.7,2.1,1.8v3.1c0,0.6,0,0.8,0.2,1.1h-1.5
			c-0.1-0.2-0.1-0.4-0.2-0.6h0c-0.4,0.6-0.8,0.8-1.5,0.8c-1.1,0-1.4-0.9-1.4-1.7c0-1.1,0.5-1.6,1.5-1.8l0.9-0.2
			c0.5-0.1,0.6-0.3,0.6-0.7c0-0.5-0.2-0.7-0.7-0.7c-0.5,0-0.7,0.3-0.7,0.8v0.2H227.3z M230.1,31.6c-0.2,0.2-0.5,0.3-0.6,0.3
			c-0.6,0.1-0.9,0.4-0.9,1c0,0.5,0.2,0.8,0.6,0.8c0.4,0,0.9-0.3,0.9-0.9V31.6z"/>
		<path class="st0" d="M232.5,26.7h1.5v2.5h0c0.3-0.5,0.7-0.7,1.3-0.7c1.2,0,1.8,0.9,1.8,3.1c0,2.2-0.6,3.1-1.8,3.1
			c-0.6,0-1-0.2-1.3-0.8h0v0.6h-1.5V26.7z M234.8,33.6c0.7,0,0.8-0.7,0.8-1.9c0-1.3-0.1-1.9-0.8-1.9c-0.7,0-0.8,0.7-0.8,1.9
			C234,32.9,234.2,33.6,234.8,33.6z"/>
		<path class="st0" d="M239.2,31.9v0.5c0,0.7,0.2,1.4,0.7,1.4c0.5,0,0.7-0.4,0.8-1.1h1.4c-0.1,1.4-0.7,2.1-2.1,2.1
			c-2.2,0-2.3-1.7-2.3-3.2c0-1.6,0.3-3.1,2.4-3.1c1.8,0,2.2,1.2,2.2,3v0.3H239.2z M240.8,31c0-0.9-0.1-1.4-0.8-1.4
			c-0.6,0-0.8,0.6-0.8,1.2V31H240.8z"/>
		<path class="st0" d="M244.4,32.9v1.7H243v-1.7H244.4z"/>
		<path class="st0" d="M248.3,30.8c0-0.6-0.1-1.2-0.7-1.2c-0.7,0-0.9,0.7-0.9,2c0,1.5,0.1,2.1,0.8,2.1c0.5,0,0.7-0.4,0.7-1.4h1.5
			c0,1.6-0.6,2.4-2.3,2.4c-1.5,0-2.3-0.7-2.3-3.1c0-2.4,1-3.1,2.4-3.1c1.4,0,2.1,0.9,2.1,2.3H248.3z"/>
		<path class="st0" d="M252.5,28.5c1.8,0,2.3,1.1,2.3,3.1c0,2-0.6,3.1-2.3,3.1c-1.8,0-2.3-1.1-2.3-3.1
			C250.2,29.6,250.8,28.5,252.5,28.5z M252.5,33.7c0.6,0,0.8-0.6,0.8-2.1c0-1.5-0.2-2.1-0.8-2.1c-0.7,0-0.8,0.9-0.8,2.1
			C251.7,32.8,251.8,33.7,252.5,33.7z"/>
		<path class="st0" d="M255.6,28.7h1.5v0.6h0c0.4-0.5,0.9-0.8,1.5-0.8c0.7,0,1.2,0.3,1.4,0.9h0c0.2-0.6,0.8-0.9,1.5-0.9
			c1,0,1.5,0.6,1.5,1.8v4.3h-1.5v-4.1c0-0.5-0.2-0.8-0.6-0.8c-0.5,0-0.8,0.3-0.8,1v3.9h-1.5v-4.1c0-0.5-0.2-0.8-0.6-0.8
			c-0.5,0-0.8,0.3-0.8,1v3.9h-1.5V28.7z"/>
		<path class="st0" d="M265.3,32.9v1.7h-1.5v-1.7H265.3z"/>
		<path class="st0" d="M266.3,28.7h1.5v0.6h0c0.4-0.5,0.9-0.8,1.5-0.8c0.7,0,1.2,0.3,1.4,0.9h0c0.2-0.6,0.8-0.9,1.5-0.9
			c1,0,1.5,0.6,1.5,1.8v4.3h-1.5v-4.1c0-0.5-0.2-0.8-0.6-0.8c-0.5,0-0.8,0.3-0.8,1v3.9h-1.5v-4.1c0-0.5-0.2-0.8-0.6-0.8
			c-0.5,0-0.8,0.3-0.8,1v3.9h-1.5V28.7z"/>
		<path class="st0" d="M277.4,28.7h1.6l-1.5,2.9l1.6,3h-1.6l-0.9-1.9l-0.9,1.9h-1.6l1.6-3l-1.5-2.9h1.6l0.8,1.8L277.4,28.7z"/>
	</g>
</g>
</svg>
