<!-- Generator: Adobe Illustrator 20.1.0, SVG Export Plug-In  -->
<svg version="1.1"
	 xmlns="http://www.w3.org/2000/svg" xmlns:xlink="http://www.w3.org/1999/xlink" xmlns:a="http://ns.adobe.com/AdobeSVGViewerExtensions/3.0/"
	 x="0px" y="0px" width="461px" height="23px" viewBox="0 0 461 23" style="overflow:scroll;enable-background:new 0 0 461 23;"
	 xml:space="preserve">
<style type="text/css">
	.st0{fill:#FFFFFF;}
</style>
<defs>
</defs>
<g>
	<path class="st0" d="M0,1.1h3.1v14.3h5.5v2.4H0V1.1z"/>
	<path class="st0" d="M15.2,5.3c2.5,0,5.4,1.3,5.4,6.4c0,5.2-2.9,6.4-5.4,6.4c-2.5,0-5.4-1.2-5.4-6.4C9.8,6.6,12.7,5.3,15.2,5.3z
		 M15.2,15.9c1.9,0,2.4-2.2,2.4-4.3s-0.4-4.2-2.4-4.2s-2.4,2.2-2.4,4.2S13.3,15.9,15.2,15.9z"/>
	<path class="st0" d="M22.4,15c0.5,0.2,1.7,0.8,3.1,0.8c1.1,0,1.9-0.3,1.9-1.2c0-0.5-0.2-0.9-1.3-1.6l-1.2-0.7
		c-1.2-0.7-2.6-1.5-2.6-3.5c0-1.7,1.7-3.5,4.3-3.5c1.6,0,2.8,0.4,3.1,0.5l-0.2,2.3c-0.7-0.3-1.5-0.6-2.6-0.6c-1.2,0-1.7,0.5-1.7,1.2
		c0,0.7,0.5,1,1.4,1.6l1.5,0.9c1.5,1,2.3,1.7,2.3,3.1c0,2.3-1.9,3.6-4.6,3.6c-1.5,0-2.8-0.4-3.4-0.6L22.4,15z"/>
	<path class="st0" d="M38,15c0.5,0.2,1.7,0.8,3.1,0.8c1.1,0,1.9-0.3,1.9-1.2c0-0.5-0.2-0.9-1.3-1.6l-1.2-0.7
		c-1.2-0.7-2.6-1.5-2.6-3.5c0-1.7,1.7-3.5,4.3-3.5c1.6,0,2.8,0.4,3.1,0.5L45,8.1c-0.7-0.3-1.5-0.6-2.6-0.6c-1.2,0-1.7,0.5-1.7,1.2
		c0,0.7,0.5,1,1.4,1.6l1.5,0.9c1.5,1,2.3,1.7,2.3,3.1c0,2.3-1.9,3.6-4.6,3.6c-1.5,0-2.8-0.4-3.4-0.6L38,15z"/>
	<path class="st0" d="M48.1,5.5h3v12.4h-3V5.5z M49.7,0.7h2.8l-2.4,3.5h-1.9L49.7,0.7z"/>
	<path class="st0" d="M53.8,7.5c0-0.8,0-1.5-0.1-2h2.8c0,0.6,0.1,1.3,0.1,1.9h0c0.4-0.7,1.3-2.1,3.3-2.1c2.8,0,3.6,2.1,3.6,4.6v8h-3
		v-7.4c0-1.9-0.5-2.7-1.7-2.7c-1.6,0-2.1,1.3-2.1,2.9v7.2h-3V7.5z"/>
	<path class="st0" d="M67.2,3l3-0.9v3.5h2.5v2.2h-2.5v6.4c0,1.3,0.5,1.7,1.3,1.7c0.5,0,0.9-0.1,1.1-0.3v2.1c-0.5,0.2-1.1,0.4-2,0.4
		c-2.2,0-3.5-1-3.5-3.6V7.7h-2V5.5h2V3z"/>
	<path class="st0" d="M79.4,5.3c2.5,0,5.4,1.3,5.4,6.4c0,5.2-2.9,6.4-5.4,6.4c-2.5,0-5.4-1.2-5.4-6.4C73.9,6.6,76.8,5.3,79.4,5.3z
		 M79.4,15.9c1.9,0,2.4-2.2,2.4-4.3s-0.4-4.2-2.4-4.2c-1.9,0-2.4,2.2-2.4,4.2S77.4,15.9,79.4,15.9z"/>
	<path class="st0" d="M86.8,7.5c0-0.9,0-1.6-0.1-2h3c0,0.6,0.1,1.3,0.1,1.9h0c0.5-1,1.4-2.1,3.1-2.1c2.1,0,2.8,1.3,3.1,2
		c0.6-0.9,1.5-2,3.3-2c2.7,0,3.6,1.9,3.6,4.9v7.6h-3v-7.8c0-1.5-0.5-2.3-1.6-2.3c-1.3,0-2,1.2-2,2.6v7.5h-3v-7.8
		c0-1.5-0.5-2.3-1.6-2.3c-1.3,0-2,1.2-2,2.6v7.5h-3V7.5z"/>
	<path class="st0" d="M105.9,6.2c0.8-0.4,2-0.9,3.9-0.9c3.8,0,4.7,1.9,4.7,5v5.4c0,0.9,0.1,1.7,0.2,2.2h-2.7
		c-0.1-0.5-0.2-1.1-0.2-1.7h0c-0.7,1-1.7,1.9-3.5,1.9c-1.9,0-3.7-1.3-3.7-3.6c0-3.4,2.7-4.2,6.5-4.2h0.6V9.8c0-1.2-0.6-2.4-2.3-2.4
		c-1.5,0-2.8,0.7-3.4,1.2L105.9,6.2z M111.8,11.8h-0.3c-2.5,0-4.1,0.5-4.1,2.3c0,1.1,0.7,1.9,1.9,1.9c1.8,0,2.4-1.3,2.4-3.5V11.8z"
		/>
	<path class="st0" d="M116.8,15c0.5,0.2,1.7,0.8,3.1,0.8c1.1,0,1.9-0.3,1.9-1.2c0-0.5-0.2-0.9-1.3-1.6l-1.2-0.7
		c-1.2-0.7-2.6-1.5-2.6-3.5c0-1.7,1.7-3.5,4.3-3.5c1.6,0,2.8,0.4,3.1,0.5l-0.2,2.3c-0.7-0.3-1.5-0.6-2.6-0.6c-1.2,0-1.7,0.5-1.7,1.2
		c0,0.7,0.5,1,1.4,1.6l1.5,0.9c1.5,1,2.3,1.7,2.3,3.1c0,2.3-1.9,3.6-4.6,3.6c-1.5,0-2.8-0.4-3.4-0.6L116.8,15z"/>
	<path class="st0" d="M139.8,16.1L139.8,16.1c-0.5,1-1.5,2-3.2,2c-2.7,0-4.3-2.4-4.3-6.4c0-3.4,1.3-6.4,4.3-6.4
		c1.9,0,2.8,1.1,3.3,2.1h0.1c0-0.8,0-1.6,0.1-1.9h2.8c-0.1,0.5-0.1,1.2-0.1,2.1V23h-3V16.1z M137.5,15.9c1.6,0,2.3-1.8,2.3-4.2
		c0-2.3-0.6-4.2-2.4-4.2c-1.7,0-2.2,1.4-2.2,4.3C135.3,14.3,135.8,15.9,137.5,15.9z"/>
	<path class="st0" d="M155,15.8c0,0.8,0,1.5,0.1,2h-2.8c0-0.6-0.1-1.3-0.1-1.9l-0.1,0l0,0c-0.6,0.9-1.3,2.1-3.3,2.1
		c-2.8,0-3.6-2.1-3.6-4.6v-8h3v7.4c0,1.9,0.5,2.7,1.8,2.7c1.6,0,2-1.4,2-3V5.5h3V15.8z"/>
	<path class="st0" d="M166.6,17.3c-0.6,0.3-1.9,0.8-3.7,0.8c-4,0-5.7-2.9-5.7-6.2c0-3.7,1.9-6.6,5.1-6.6c2.7,0,4.9,1.6,4.9,6.6v0.6
		H160c0,2.1,0.8,3.4,3.1,3.4c1.8,0,2.7-0.6,3.2-1L166.6,17.3z M164.3,10.6c0-2.2-0.7-3.3-2.1-3.3c-1.6,0-2.2,1.7-2.2,3.3H164.3z"/>
	<path class="st0" d="M174.9,15c0.5,0.2,1.7,0.8,3.1,0.8c1.1,0,1.9-0.3,1.9-1.2c0-0.5-0.2-0.9-1.3-1.6l-1.2-0.7
		c-1.2-0.7-2.6-1.5-2.6-3.5c0-1.7,1.7-3.5,4.3-3.5c1.6,0,2.8,0.4,3.1,0.5L182,8.1c-0.7-0.3-1.5-0.6-2.6-0.6c-1.2,0-1.7,0.5-1.7,1.2
		c0,0.7,0.5,1,1.4,1.6l1.5,0.9c1.5,1,2.3,1.7,2.3,3.1c0,2.3-1.9,3.6-4.6,3.6c-1.5,0-2.8-0.4-3.4-0.6L174.9,15z"/>
	<path class="st0" d="M193.8,17.3c-0.6,0.3-1.9,0.8-3.7,0.8c-4,0-5.7-2.9-5.7-6.2c0-3.7,1.9-6.6,5.1-6.6c2.7,0,4.9,1.6,4.9,6.6v0.6
		h-7.2c0,2.1,0.8,3.4,3.1,3.4c1.8,0,2.7-0.6,3.2-1L193.8,17.3z M191.6,10.6c0-2.2-0.7-3.3-2.1-3.3c-1.6,0-2.2,1.7-2.2,3.3H191.6z"/>
	<path class="st0" d="M203.1,6.2c0.8-0.4,2-0.9,3.9-0.9c3.8,0,4.7,1.9,4.7,5v5.4c0,0.9,0.1,1.7,0.2,2.2h-2.7
		c-0.1-0.5-0.2-1.1-0.2-1.7h0c-0.7,1-1.7,1.9-3.5,1.9c-1.9,0-3.7-1.3-3.7-3.6c0-3.4,2.7-4.2,6.5-4.2h0.6V9.8c0-1.2-0.6-2.4-2.3-2.4
		c-1.5,0-2.8,0.7-3.4,1.2L203.1,6.2z M209,11.8h-0.3c-2.5,0-4.1,0.5-4.1,2.3c0,1.1,0.7,1.9,1.9,1.9c1.8,0,2.4-1.3,2.4-3.5V11.8z"/>
	<path class="st0" d="M214,15c0.5,0.2,1.7,0.8,3.1,0.8c1.1,0,1.9-0.3,1.9-1.2c0-0.5-0.2-0.9-1.3-1.6l-1.2-0.7
		c-1.2-0.7-2.6-1.5-2.6-3.5c0-1.7,1.7-3.5,4.3-3.5c1.6,0,2.8,0.4,3.1,0.5L221,8.1c-0.7-0.3-1.5-0.6-2.6-0.6c-1.2,0-1.7,0.5-1.7,1.2
		c0,0.7,0.5,1,1.4,1.6l1.5,0.9c1.5,1,2.3,1.7,2.3,3.1c0,2.3-1.9,3.6-4.6,3.6c-1.5,0-2.8-0.4-3.4-0.6L214,15z"/>
	<path class="st0" d="M228.9,5.3c2.5,0,5.4,1.3,5.4,6.4c0,5.2-2.9,6.4-5.4,6.4c-2.5,0-5.4-1.2-5.4-6.4
		C223.5,6.6,226.4,5.3,228.9,5.3z M228.9,15.9c1.9,0,2.4-2.2,2.4-4.3s-0.4-4.2-2.4-4.2s-2.4,2.2-2.4,4.2S227,15.9,228.9,15.9z"/>
	<path class="st0" d="M244.9,17.5c-0.7,0.3-1.7,0.5-2.9,0.5c-4.1,0-5.8-2.9-5.8-6.4c0-3.5,1.8-6.4,6-6.4c0.9,0,2,0.3,2.6,0.5
		l-0.2,2.4c-0.5-0.3-1.3-0.6-2.1-0.6c-2.3,0-3.2,1.5-3.2,4.2c0,2.3,1.1,4.1,3.4,4.1c0.7,0,1.7-0.3,2.1-0.6L244.9,17.5z"/>
	<path class="st0" d="M246.7,0.2h3.1v2.9h-3.1V0.2z M246.7,5.5h3v12.4h-3V5.5z"/>
	<path class="st0" d="M253.1,6.2c0.8-0.4,2-0.9,3.9-0.9c3.8,0,4.7,1.9,4.7,5v5.4c0,0.9,0.1,1.7,0.2,2.2h-2.7
		c-0.1-0.5-0.2-1.1-0.2-1.7h0c-0.7,1-1.7,1.9-3.5,1.9c-1.9,0-3.7-1.3-3.7-3.6c0-3.4,2.7-4.2,6.5-4.2h0.6V9.8c0-1.2-0.6-2.4-2.3-2.4
		c-1.5,0-2.8,0.7-3.4,1.2L253.1,6.2z M258.9,11.8h-0.3c-2.5,0-4.1,0.5-4.1,2.3c0,1.1,0.7,1.9,1.9,1.9c1.8,0,2.4-1.3,2.4-3.5V11.8z"
		/>
	<path class="st0" d="M264.2,7.5c0-0.8,0-1.5-0.1-2h2.8c0,0.6,0.1,1.3,0.1,1.9h0c0.4-0.7,1.3-2.1,3.3-2.1c2.8,0,3.6,2.1,3.6,4.6v8
		h-3v-7.4c0-1.9-0.5-2.7-1.7-2.7c-1.6,0-2.1,1.3-2.1,2.9v7.2h-3V7.5z"/>
	<path class="st0" d="M290.8,17.5c-0.7,0.3-1.7,0.5-2.9,0.5c-4.1,0-5.8-2.9-5.8-6.4c0-3.5,1.8-6.4,6-6.4c0.9,0,2,0.3,2.6,0.5
		l-0.2,2.4c-0.5-0.3-1.3-0.6-2.1-0.6c-2.3,0-3.2,1.5-3.2,4.2c0,2.3,1.1,4.1,3.4,4.1c0.7,0,1.7-0.3,2.1-0.6L290.8,17.5z"/>
	<path class="st0" d="M297.5,5.3c2.5,0,5.4,1.3,5.4,6.4c0,5.2-2.9,6.4-5.4,6.4c-2.5,0-5.4-1.2-5.4-6.4C292.1,6.6,295,5.3,297.5,5.3z
		 M297.5,15.9c1.9,0,2.4-2.2,2.4-4.3s-0.4-4.2-2.4-4.2s-2.4,2.2-2.4,4.2S295.6,15.9,297.5,15.9z"/>
	<path class="st0" d="M305,7.5c0-0.9,0-1.6-0.1-2h3c0,0.6,0.1,1.3,0.1,1.9h0c0.5-1,1.4-2.1,3.1-2.1c2.1,0,2.8,1.3,3.1,2
		c0.6-0.9,1.5-2,3.3-2c2.7,0,3.6,1.9,3.6,4.9v7.6h-3v-7.8c0-1.5-0.5-2.3-1.6-2.3c-1.3,0-2,1.2-2,2.6v7.5h-3v-7.8
		c0-1.5-0.5-2.3-1.6-2.3c-1.3,0-2,1.2-2,2.6v7.5h-3V7.5z"/>
	<path class="st0" d="M333.3,15.8c0,0.8,0,1.5,0.1,2h-2.8c0-0.6-0.1-1.3-0.1-1.9l-0.1,0l0,0c-0.6,0.9-1.3,2.1-3.3,2.1
		c-2.8,0-3.6-2.1-3.6-4.6v-8h3v7.4c0,1.9,0.5,2.7,1.8,2.7c1.6,0,2-1.4,2-3V5.5h3V15.8z M328.5,0.7h2.8l-2.4,3.5H327L328.5,0.7z"/>
	<path class="st0" d="M335.7,7.5c0-0.8,0-1.5-0.1-2h2.8c0,0.6,0.1,1.3,0.1,1.9h0c0.4-0.7,1.3-2.1,3.3-2.1c2.8,0,3.6,2.1,3.6,4.6v8
		h-3v-7.4c0-1.9-0.5-2.7-1.7-2.7c-1.6,0-2.1,1.3-2.1,2.9v7.2h-3V7.5z"/>
	<path class="st0" d="M347.9,7.5c0-0.9,0-1.6-0.1-2h3c0,0.6,0.1,1.3,0.1,1.9h0c0.5-1,1.4-2.1,3.1-2.1c2.1,0,2.8,1.3,3.1,2
		c0.6-0.9,1.5-2,3.3-2c2.7,0,3.6,1.9,3.6,4.9v7.6h-3v-7.8c0-1.5-0.5-2.3-1.6-2.3c-1.3,0-2,1.2-2,2.6v7.5h-3v-7.8
		c0-1.5-0.5-2.3-1.6-2.3c-1.3,0-2,1.2-2,2.6v7.5h-3V7.5z"/>
	<path class="st0" d="M375.4,17.3c-0.6,0.3-1.9,0.8-3.7,0.8c-4,0-5.7-2.9-5.7-6.2c0-3.7,1.9-6.6,5.1-6.6c2.7,0,4.9,1.6,4.9,6.6v0.6
		h-7.2c0,2.1,0.8,3.4,3.1,3.4c1.8,0,2.7-0.6,3.2-1L375.4,17.3z M373.2,10.6c0-2.2-0.7-3.3-2.1-3.3c-1.6,0-2.2,1.7-2.2,3.3H373.2z"/>
	<path class="st0" d="M378.1,7.5c0-0.8,0-1.5-0.1-2h2.8c0,0.6,0.1,1.3,0.1,1.9h0c0.4-0.7,1.3-2.1,3.3-2.1c2.8,0,3.6,2.1,3.6,4.6v8
		h-3v-7.4c0-1.9-0.5-2.7-1.7-2.7c-1.6,0-2.1,1.3-2.1,2.9v7.2h-3V7.5z"/>
	<path class="st0" d="M391.4,3l3-0.9v3.5h2.5v2.2h-2.5v6.4c0,1.3,0.5,1.7,1.3,1.7c0.5,0,0.9-0.1,1.1-0.3v2.1c-0.5,0.2-1.1,0.4-2,0.4
		c-2.2,0-3.5-1-3.5-3.6V7.7h-2V5.5h2V3z"/>
	<path class="st0" d="M407.6,17.3c-0.6,0.3-1.9,0.8-3.7,0.8c-4,0-5.7-2.9-5.7-6.2c0-3.7,1.9-6.6,5.1-6.6c2.7,0,4.9,1.6,4.9,6.6v0.6
		h-7.2c0,2.1,0.8,3.4,3.1,3.4c1.8,0,2.7-0.6,3.2-1L407.6,17.3z M405.4,10.6c0-2.2-0.7-3.3-2.1-3.3c-1.6,0-2.2,1.7-2.2,3.3H405.4z"/>
	<path class="st0" d="M416,15c0.5,0.2,1.7,0.8,3.1,0.8c1.1,0,1.9-0.3,1.9-1.2c0-0.5-0.2-0.9-1.3-1.6l-1.2-0.7
		c-1.2-0.7-2.6-1.5-2.6-3.5c0-1.7,1.7-3.5,4.3-3.5c1.6,0,2.8,0.4,3.1,0.5L423,8.1c-0.7-0.3-1.5-0.6-2.6-0.6c-1.2,0-1.7,0.5-1.7,1.2
		c0,0.7,0.5,1,1.4,1.6l1.5,0.9c1.5,1,2.3,1.7,2.3,3.1c0,2.3-1.9,3.6-4.6,3.6c-1.5,0-2.8-0.4-3.4-0.6L416,15z"/>
	<path class="st0" d="M430.9,5.3c2.5,0,5.4,1.3,5.4,6.4c0,5.2-2.9,6.4-5.4,6.4c-2.5,0-5.4-1.2-5.4-6.4
		C425.5,6.6,428.4,5.3,430.9,5.3z M430.9,15.9c1.9,0,2.4-2.2,2.4-4.3s-0.4-4.2-2.4-4.2s-2.4,2.2-2.4,4.2S429,15.9,430.9,15.9z"/>
	<path class="st0" d="M438.5,7.5c0-0.8,0-1.5-0.1-2h2.8c0,0.6,0.1,1.3,0.1,1.9h0c0.4-0.7,1.3-2.1,3.3-2.1c2.8,0,3.6,2.1,3.6,4.6v8
		h-3v-7.4c0-1.9-0.5-2.7-1.7-2.7c-1.6,0-2.1,1.3-2.1,2.9v7.2h-3V7.5z"/>
	<path class="st0" d="M451,5.5h2.9v3.1H451V5.5z M451,14.7h2.9v3.1H451V14.7z"/>
	<path class="st0" d="M455.9,8.8c2.5-2.8,3.7-4.8,3.7-6.1c0-0.9-0.5-1.6-1.4-1.6c-0.6,0-1.3,0.3-1.9,0.8l-0.2-1.2
		c0.8-0.4,1.7-0.6,2.3-0.6c1.5,0,2.5,1.1,2.5,2.5c0,1.7-1.5,4.2-3.6,6.3h3.8v1.1h-5.1V8.8z"/>
</g>
</svg>
