<!-- Generator: Adobe Illustrator 20.1.0, SVG Export Plug-In  -->
<svg version="1.1"
	 xmlns="http://www.w3.org/2000/svg" xmlns:xlink="http://www.w3.org/1999/xlink" xmlns:a="http://ns.adobe.com/AdobeSVGViewerExtensions/3.0/"
	 x="0px" y="0px" width="94px" height="92.8px" viewBox="0 0 94 92.8" style="overflow:scroll;enable-background:new 0 0 94 92.8;"
	 xml:space="preserve">
<style type="text/css">
	.st0{fill:#E63C2F;}
	.st1{opacity:0.35;clip-path:url(#SVGID_2_);}
	.st2{fill:#231F20;}
	.st3{clip-path:url(#SVGID_2_);fill:#FFFFFF;}
	.st4{opacity:0.35;clip-path:url(#SVGID_4_);}
	.st5{clip-path:url(#SVGID_4_);fill:#FFFFFF;}
</style>
<defs>
</defs>
<g>
	<circle class="st0" cx="34.5" cy="34.5" r="34.5"/>
	<g>
		<defs>
			<circle id="SVGID_1_" cx="34.5" cy="34.5" r="34.5"/>
		</defs>
		<clipPath id="SVGID_2_">
			<use xlink:href="#SVGID_1_"  style="overflow:visible;"/>
		</clipPath>
		<g class="st1">
			<path class="st2" d="M56.6,37.2c0.1-0.1,0.1-0.2,0.1-0.2c0.1-0.2,0.2-0.4,0.3-0.6c0-0.1,0.1-0.2,0.1-0.3c0.1-0.2,0.1-0.4,0.2-0.6
				c0-0.1,0-0.3,0-0.4c0-0.2,0-0.3,0-0.5c0-0.2,0-0.4,0-0.5c0-0.1,0-0.3,0-0.4c0-0.2-0.1-0.4-0.2-0.6c0-0.1-0.1-0.2-0.1-0.3
				c-0.1-0.2-0.2-0.4-0.3-0.6c0-0.1-0.1-0.2-0.1-0.3c-0.1-0.2-0.3-0.4-0.5-0.6C56.1,31.1,56.1,31,56,31l0,0L39.3,14.2
				c-2-2-5.2-2-7.1,0c-2,2-2,5.2,0,7.1l8.1,8.1H16.3v0c-2.6,0.1-4.8,2.3-4.8,5c0,2.7,2.1,4.9,4.8,5v0h23.9l-8.1,8.1
				c-2,2-2,5.2,0,7.1c2,2,5.2,2,7.1,0L56,38l0,0c0.1-0.1,0.1-0.1,0.2-0.2C56.3,37.6,56.5,37.4,56.6,37.2z"/>
			<path class="st2" d="M56.9,37.5c0.1-0.1,0.1-0.2,0.1-0.2c0.1-0.2,0.2-0.4,0.3-0.6c0-0.1,0.1-0.2,0.1-0.3c0.1-0.2,0.1-0.4,0.2-0.6
				c0-0.1,0-0.3,0-0.4c0-0.2,0-0.3,0-0.5c0-0.2,0-0.4,0-0.5c0-0.1,0-0.3,0-0.4c0-0.2-0.1-0.4-0.2-0.6c0-0.1-0.1-0.2-0.1-0.3
				c-0.1-0.2-0.2-0.4-0.3-0.6c0-0.1-0.1-0.2-0.1-0.3c-0.1-0.2-0.3-0.4-0.5-0.6c-0.1-0.1-0.1-0.1-0.2-0.2l0,0L39.5,14.5
				c-2-2-5.2-2-7.1,0c-2,2-2,5.2,0,7.1l8.1,8.1H16.5v0c-2.6,0.1-4.8,2.3-4.8,5c0,2.7,2.1,4.9,4.8,5v0h23.9l-8.1,8.1
				c-2,2-2,5.2,0,7.1c2,2,5.2,2,7.1,0l16.7-16.7l0,0c0.1-0.1,0.1-0.1,0.2-0.2C56.6,37.9,56.7,37.7,56.9,37.5z"/>
			<path class="st2" d="M57.1,37.7c0.1-0.1,0.1-0.2,0.1-0.2c0.1-0.2,0.2-0.4,0.3-0.6c0-0.1,0.1-0.2,0.1-0.3c0.1-0.2,0.1-0.4,0.2-0.6
				c0-0.1,0-0.3,0-0.4c0-0.2,0-0.3,0-0.5c0-0.2,0-0.4,0-0.5c0-0.1,0-0.3,0-0.4c0-0.2-0.1-0.4-0.2-0.6c0-0.1-0.1-0.2-0.1-0.3
				c-0.1-0.2-0.2-0.4-0.3-0.6c0-0.1-0.1-0.2-0.1-0.3c-0.1-0.2-0.3-0.4-0.5-0.6c-0.1-0.1-0.1-0.1-0.2-0.2l0,0L39.7,14.7
				c-2-2-5.2-2-7.1,0c-2,2-2,5.2,0,7.1l8.1,8.1H16.8v0c-2.6,0.1-4.8,2.3-4.8,5c0,2.7,2.1,4.9,4.8,5v0h23.9l-8.1,8.1
				c-2,2-2,5.2,0,7.1c2,2,5.2,2,7.1,0l16.7-16.7l0,0c0.1-0.1,0.1-0.1,0.2-0.2C56.8,38.1,57,37.9,57.1,37.7z"/>
			<path class="st2" d="M57.3,38c0.1-0.1,0.1-0.2,0.1-0.2c0.1-0.2,0.2-0.4,0.3-0.6c0-0.1,0.1-0.2,0.1-0.3c0.1-0.2,0.1-0.4,0.2-0.6
				c0-0.1,0-0.3,0-0.4c0-0.2,0-0.3,0-0.5c0-0.2,0-0.4,0-0.5c0-0.1,0-0.3,0-0.4c0-0.2-0.1-0.4-0.2-0.6c0-0.1-0.1-0.2-0.1-0.3
				c-0.1-0.2-0.2-0.4-0.3-0.6c0-0.1-0.1-0.2-0.1-0.3c-0.1-0.2-0.3-0.4-0.5-0.6c-0.1-0.1-0.1-0.1-0.2-0.2l0,0L40,15c-2-2-5.2-2-7.1,0
				c-2,2-2,5.2,0,7.1l8.1,8.1H17v0c-2.6,0.1-4.8,2.3-4.8,5c0,2.7,2.1,4.9,4.8,5v0H41l-8.1,8.1c-2,2-2,5.2,0,7.1c2,2,5.2,2,7.1,0
				l16.7-16.7l0,0c0.1-0.1,0.1-0.1,0.2-0.2C57,38.4,57.2,38.2,57.3,38z"/>
			<path class="st2" d="M57.6,38.2c0.1-0.1,0.1-0.2,0.1-0.2c0.1-0.2,0.2-0.4,0.3-0.6c0-0.1,0.1-0.2,0.1-0.3c0.1-0.2,0.1-0.4,0.2-0.6
				c0-0.1,0-0.3,0-0.4c0-0.2,0-0.3,0-0.5c0-0.2,0-0.4,0-0.5c0-0.1,0-0.3,0-0.4c0-0.2-0.1-0.4-0.2-0.6c0-0.1-0.1-0.2-0.1-0.3
				c-0.1-0.2-0.2-0.4-0.3-0.6c0-0.1-0.1-0.2-0.1-0.3c-0.1-0.2-0.3-0.4-0.5-0.6C57.1,32.1,57,32,57,31.9l0,0L40.2,15.2
				c-2-2-5.2-2-7.1,0c-2,2-2,5.2,0,7.1l8.1,8.1H17.3v0c-2.6,0.1-4.8,2.3-4.8,5c0,2.7,2.1,4.9,4.8,5v0h23.9l-8.1,8.1
				c-2,2-2,5.2,0,7.1c2,2,5.2,2,7.1,0L57,39l0,0c0.1-0.1,0.1-0.1,0.2-0.2C57.3,38.6,57.5,38.4,57.6,38.2z"/>
			<path class="st2" d="M57.8,38.4c0.1-0.1,0.1-0.2,0.1-0.2c0.1-0.2,0.2-0.4,0.3-0.6c0-0.1,0.1-0.2,0.1-0.3c0.1-0.2,0.1-0.4,0.2-0.6
				c0-0.1,0-0.3,0-0.4c0-0.2,0-0.3,0-0.5c0-0.2,0-0.4,0-0.5c0-0.1,0-0.3,0-0.4c0-0.2-0.1-0.4-0.2-0.6c0-0.1-0.1-0.2-0.1-0.3
				c-0.1-0.2-0.2-0.4-0.3-0.6c0-0.1-0.1-0.2-0.1-0.3c-0.1-0.2-0.3-0.4-0.5-0.6c-0.1-0.1-0.1-0.1-0.2-0.2l0,0L40.5,15.4
				c-2-2-5.2-2-7.1,0c-2,2-2,5.2,0,7.1l8.1,8.1H17.5v0c-2.6,0.1-4.8,2.3-4.8,5c0,2.7,2.1,4.9,4.8,5v0h23.9l-8.1,8.1
				c-2,2-2,5.2,0,7.1c2,2,5.2,2,7.1,0l16.7-16.7l0,0c0.1-0.1,0.1-0.1,0.2-0.2C57.5,38.8,57.7,38.7,57.8,38.4z"/>
			<path class="st2" d="M58.1,38.7c0.1-0.1,0.1-0.2,0.1-0.2c0.1-0.2,0.2-0.4,0.3-0.6c0-0.1,0.1-0.2,0.1-0.3c0.1-0.2,0.1-0.4,0.2-0.6
				c0-0.1,0-0.3,0-0.4c0-0.2,0-0.3,0-0.5c0-0.2,0-0.4,0-0.5c0-0.1,0-0.3,0-0.4c0-0.2-0.1-0.4-0.2-0.6c0-0.1-0.1-0.2-0.1-0.3
				c-0.1-0.2-0.2-0.4-0.3-0.6c0-0.1-0.1-0.2-0.1-0.3c-0.1-0.2-0.3-0.4-0.5-0.6c-0.1-0.1-0.1-0.1-0.2-0.2l0,0L40.7,15.7
				c-2-2-5.2-2-7.1,0c-2,2-2,5.2,0,7.1l8.1,8.1H17.8v0c-2.6,0.1-4.8,2.3-4.8,5c0,2.7,2.1,4.9,4.8,5v0h23.9l-8.1,8.1
				c-2,2-2,5.2,0,7.1c2,2,5.2,2,7.1,0l16.7-16.7l0,0c0.1-0.1,0.1-0.1,0.2-0.2C57.8,39.1,57.9,38.9,58.1,38.7z"/>
			<path class="st2" d="M58.3,38.9c0.1-0.1,0.1-0.2,0.1-0.2c0.1-0.2,0.2-0.4,0.3-0.6c0-0.1,0.1-0.2,0.1-0.3c0.1-0.2,0.1-0.4,0.2-0.6
				c0-0.1,0-0.3,0-0.4c0-0.2,0-0.3,0-0.5c0-0.2,0-0.4,0-0.5c0-0.1,0-0.3,0-0.4c0-0.2-0.1-0.4-0.2-0.6c0-0.1-0.1-0.2-0.1-0.3
				c-0.1-0.2-0.2-0.4-0.3-0.6c0-0.1-0.1-0.2-0.1-0.3c-0.1-0.2-0.3-0.4-0.5-0.6c-0.1-0.1-0.1-0.1-0.2-0.2l0,0L40.9,15.9
				c-2-2-5.2-2-7.1,0c-2,2-2,5.2,0,7.1l8.1,8.1H18v0c-2.6,0.1-4.8,2.3-4.8,5c0,2.7,2.1,4.9,4.8,5v0h23.9l-8.1,8.1c-2,2-2,5.2,0,7.1
				c2,2,5.2,2,7.1,0l16.7-16.7l0,0c0.1-0.1,0.1-0.1,0.2-0.2C58,39.3,58.2,39.1,58.3,38.9z"/>
			<path class="st2" d="M58.6,39.2c0.1-0.1,0.1-0.2,0.1-0.2c0.1-0.2,0.2-0.4,0.3-0.6c0-0.1,0.1-0.2,0.1-0.3c0.1-0.2,0.1-0.4,0.2-0.6
				c0-0.1,0-0.3,0-0.4c0-0.2,0-0.3,0-0.5c0-0.2,0-0.4,0-0.5c0-0.1,0-0.3,0-0.4c0-0.2-0.1-0.4-0.2-0.6c0-0.1-0.1-0.2-0.1-0.3
				c-0.1-0.2-0.2-0.4-0.3-0.6c0-0.1-0.1-0.2-0.1-0.3c-0.1-0.2-0.3-0.4-0.5-0.6C58,33.1,58,33,57.9,32.9l0,0L41.2,16.2
				c-2-2-5.2-2-7.1,0c-2,2-2,5.2,0,7.1l8.1,8.1H18.2v0c-2.6,0.1-4.8,2.3-4.8,5c0,2.7,2.1,4.9,4.8,5v0h23.9l-8.1,8.1
				c-2,2-2,5.2,0,7.1c2,2,5.2,2,7.1,0l16.7-16.7l0,0c0.1-0.1,0.1-0.1,0.2-0.2C58.3,39.6,58.4,39.4,58.6,39.2z"/>
			<path class="st2" d="M58.8,39.4c0.1-0.1,0.1-0.2,0.1-0.2c0.1-0.2,0.2-0.4,0.3-0.6c0-0.1,0.1-0.2,0.1-0.3c0.1-0.2,0.1-0.4,0.2-0.6
				c0-0.1,0-0.3,0-0.4c0-0.2,0-0.3,0-0.5c0-0.2,0-0.4,0-0.5c0-0.1,0-0.3,0-0.4c0-0.2-0.1-0.4-0.2-0.6c0-0.1-0.1-0.2-0.1-0.3
				c-0.1-0.2-0.2-0.4-0.3-0.6c0-0.1-0.1-0.2-0.1-0.3c-0.1-0.2-0.3-0.4-0.5-0.6c-0.1-0.1-0.1-0.1-0.2-0.2l0,0L41.4,16.4
				c-2-2-5.2-2-7.1,0c-2,2-2,5.2,0,7.1l8.1,8.1H18.5v0c-2.6,0.1-4.8,2.3-4.8,5c0,2.7,2.1,4.9,4.8,5v0h23.9l-8.1,8.1
				c-2,2-2,5.2,0,7.1c2,2,5.2,2,7.1,0l16.7-16.7l0,0c0.1-0.1,0.1-0.1,0.2-0.2C58.5,39.8,58.7,39.6,58.8,39.4z"/>
			<path class="st2" d="M59,39.7c0.1-0.1,0.1-0.2,0.1-0.2c0.1-0.2,0.2-0.4,0.3-0.6c0-0.1,0.1-0.2,0.1-0.3c0.1-0.2,0.1-0.4,0.2-0.6
				c0-0.1,0-0.3,0-0.4c0-0.2,0-0.3,0-0.5c0-0.2,0-0.4,0-0.5c0-0.1,0-0.3,0-0.4c0-0.2-0.1-0.4-0.2-0.6c0-0.1-0.1-0.2-0.1-0.3
				c-0.1-0.2-0.2-0.4-0.3-0.6c0-0.1-0.1-0.2-0.1-0.3c-0.1-0.2-0.3-0.4-0.5-0.6c-0.1-0.1-0.1-0.1-0.2-0.2l0,0L41.7,16.6
				c-2-2-5.2-2-7.1,0c-2,2-2,5.2,0,7.1l8.1,8.1H18.7v0c-2.6,0.1-4.8,2.3-4.8,5c0,2.7,2.1,4.9,4.8,5v0h23.9l-8.1,8.1
				c-2,2-2,5.2,0,7.1c2,2,5.2,2,7.1,0l16.7-16.7l0,0c0.1-0.1,0.1-0.1,0.2-0.2C58.7,40,58.9,39.9,59,39.7z"/>
			<path class="st2" d="M59.3,39.9c0.1-0.1,0.1-0.2,0.1-0.2c0.1-0.2,0.2-0.4,0.3-0.6c0-0.1,0.1-0.2,0.1-0.3c0.1-0.2,0.1-0.4,0.2-0.6
				c0-0.1,0-0.3,0-0.4c0-0.2,0-0.3,0-0.5c0-0.2,0-0.4,0-0.5c0-0.1,0-0.3,0-0.4c0-0.2-0.1-0.4-0.2-0.6c0-0.1-0.1-0.2-0.1-0.3
				c-0.1-0.2-0.2-0.4-0.3-0.6c0-0.1-0.1-0.2-0.1-0.3c-0.1-0.2-0.3-0.4-0.5-0.6c-0.1-0.1-0.1-0.1-0.2-0.2l0,0L41.9,16.9
				c-2-2-5.2-2-7.1,0c-2,2-2,5.2,0,7.1l8.1,8.1H19v0c-2.6,0.1-4.8,2.3-4.8,5c0,2.7,2.1,4.9,4.8,5v0h23.9l-8.1,8.1c-2,2-2,5.2,0,7.1
				c2,2,5.2,2,7.1,0l16.7-16.7l0,0c0.1-0.1,0.1-0.1,0.2-0.2C59,40.3,59.1,40.1,59.3,39.9z"/>
			<path class="st2" d="M59.5,40.1c0.1-0.1,0.1-0.2,0.1-0.2c0.1-0.2,0.2-0.4,0.3-0.6c0-0.1,0.1-0.2,0.1-0.3c0.1-0.2,0.1-0.4,0.2-0.6
				c0-0.1,0-0.3,0-0.4c0-0.2,0-0.3,0-0.5c0-0.2,0-0.4,0-0.5c0-0.1,0-0.3,0-0.4c0-0.2-0.1-0.4-0.2-0.6c0-0.1-0.1-0.2-0.1-0.3
				c-0.1-0.2-0.2-0.4-0.3-0.6c0-0.1-0.1-0.2-0.1-0.3c-0.1-0.2-0.3-0.4-0.5-0.6C59,34,59,33.9,58.9,33.9l0,0L42.2,17.1
				c-2-2-5.2-2-7.1,0c-2,2-2,5.2,0,7.1l8.1,8.1H19.2v0c-2.6,0.1-4.8,2.3-4.8,5c0,2.7,2.1,4.9,4.8,5v0h23.9L35,50.5c-2,2-2,5.2,0,7.1
				c2,2,5.2,2,7.1,0l16.7-16.7l0,0c0.1-0.1,0.1-0.1,0.2-0.2C59.2,40.5,59.4,40.3,59.5,40.1z"/>
			<path class="st2" d="M59.8,40.4c0.1-0.1,0.1-0.2,0.1-0.2c0.1-0.2,0.2-0.4,0.3-0.6c0-0.1,0.1-0.2,0.1-0.3c0.1-0.2,0.1-0.4,0.2-0.6
				c0-0.1,0-0.3,0-0.4c0-0.2,0-0.3,0-0.5c0-0.2,0-0.4,0-0.5c0-0.1,0-0.3,0-0.4c0-0.2-0.1-0.4-0.2-0.6c0-0.1-0.1-0.2-0.1-0.3
				c-0.1-0.2-0.2-0.4-0.3-0.6c0-0.1-0.1-0.2-0.1-0.3c-0.1-0.2-0.3-0.4-0.5-0.6c-0.1-0.1-0.1-0.1-0.2-0.2l0,0L42.4,17.4
				c-2-2-5.2-2-7.1,0c-2,2-2,5.2,0,7.1l8.1,8.1H19.5v0c-2.6,0.1-4.8,2.3-4.8,5c0,2.7,2.1,4.9,4.8,5v0h23.9l-8.1,8.1
				c-2,2-2,5.2,0,7.1c2,2,5.2,2,7.1,0l16.7-16.7l0,0c0.1-0.1,0.1-0.1,0.2-0.2C59.5,40.8,59.6,40.6,59.8,40.4z"/>
			<path class="st2" d="M60,40.6c0.1-0.1,0.1-0.2,0.1-0.2c0.1-0.2,0.2-0.4,0.3-0.6c0-0.1,0.1-0.2,0.1-0.3c0.1-0.2,0.1-0.4,0.2-0.6
				c0-0.1,0-0.3,0-0.4c0-0.2,0-0.3,0-0.5c0-0.2,0-0.4,0-0.5c0-0.1,0-0.3,0-0.4c0-0.2-0.1-0.4-0.2-0.6c0-0.1-0.1-0.2-0.1-0.3
				c-0.1-0.2-0.2-0.4-0.3-0.6c0-0.1-0.1-0.2-0.1-0.3c-0.1-0.2-0.3-0.4-0.5-0.6c-0.1-0.1-0.1-0.1-0.2-0.2l0,0L42.6,17.6
				c-2-2-5.2-2-7.1,0c-2,2-2,5.2,0,7.1l8.1,8.1H19.7v0c-2.6,0.1-4.8,2.3-4.8,5c0,2.7,2.1,4.9,4.8,5v0h23.9L35.5,51c-2,2-2,5.2,0,7.1
				c2,2,5.2,2,7.1,0l16.7-16.7l0,0c0.1-0.1,0.1-0.1,0.2-0.2C59.7,41,59.9,40.8,60,40.6z"/>
			<path class="st2" d="M60.3,40.9c0.1-0.1,0.1-0.2,0.1-0.2c0.1-0.2,0.2-0.4,0.3-0.6c0-0.1,0.1-0.2,0.1-0.3c0.1-0.2,0.1-0.4,0.2-0.6
				c0-0.1,0-0.3,0-0.4c0-0.2,0-0.3,0-0.5c0-0.2,0-0.4,0-0.5c0-0.1,0-0.3,0-0.4c0-0.2-0.1-0.4-0.2-0.6c0-0.1-0.1-0.2-0.1-0.3
				c-0.1-0.2-0.2-0.4-0.3-0.6c0-0.1-0.1-0.2-0.1-0.3c-0.1-0.2-0.3-0.4-0.5-0.6c-0.1-0.1-0.1-0.1-0.2-0.2l0,0L42.9,17.9
				c-2-2-5.2-2-7.1,0c-2,2-2,5.2,0,7.1l8.1,8.1H19.9v0c-2.6,0.1-4.8,2.3-4.8,5c0,2.7,2.1,4.9,4.8,5v0h23.9l-8.1,8.1
				c-2,2-2,5.2,0,7.1c2,2,5.2,2,7.1,0l16.7-16.7l0,0c0.1-0.1,0.1-0.1,0.2-0.2C59.9,41.3,60.1,41.1,60.3,40.9z"/>
			<path class="st2" d="M60.5,41.1c0.1-0.1,0.1-0.2,0.1-0.2c0.1-0.2,0.2-0.4,0.3-0.6c0-0.1,0.1-0.2,0.1-0.3c0.1-0.2,0.1-0.4,0.2-0.6
				c0-0.1,0-0.3,0-0.4c0-0.2,0-0.3,0-0.5c0-0.2,0-0.4,0-0.5c0-0.1,0-0.3,0-0.4c0-0.2-0.1-0.4-0.2-0.6c0-0.1-0.1-0.2-0.1-0.3
				c-0.1-0.2-0.2-0.4-0.3-0.6c0-0.1-0.1-0.2-0.1-0.3c-0.1-0.2-0.3-0.4-0.5-0.6c-0.1-0.1-0.1-0.1-0.2-0.2l0,0L43.1,18.1
				c-2-2-5.2-2-7.1,0c-2,2-2,5.2,0,7.1l8.1,8.1H20.2v0c-2.6,0.1-4.8,2.3-4.8,5c0,2.7,2.1,4.9,4.8,5v0h23.9L36,51.5c-2,2-2,5.2,0,7.1
				c2,2,5.2,2,7.1,0l16.7-16.7l0,0c0.1-0.1,0.1-0.1,0.2-0.2C60.2,41.5,60.4,41.3,60.5,41.1z"/>
			<path class="st2" d="M60.7,41.4c0.1-0.1,0.1-0.2,0.1-0.2c0.1-0.2,0.2-0.4,0.3-0.6c0-0.1,0.1-0.2,0.1-0.3c0.1-0.2,0.1-0.4,0.2-0.6
				c0-0.1,0-0.3,0-0.4c0-0.2,0-0.3,0-0.5c0-0.2,0-0.4,0-0.5c0-0.1,0-0.3,0-0.4c0-0.2-0.1-0.4-0.2-0.6c0-0.1-0.1-0.2-0.1-0.3
				c-0.1-0.2-0.2-0.4-0.3-0.6c0-0.1-0.1-0.2-0.1-0.3c-0.1-0.2-0.3-0.4-0.5-0.6c-0.1-0.1-0.1-0.1-0.2-0.2l0,0L43.4,18.3
				c-2-2-5.2-2-7.1,0c-2,2-2,5.2,0,7.1l8.1,8.1H20.4v0c-2.6,0.1-4.8,2.3-4.8,5c0,2.7,2.1,4.9,4.8,5v0h23.9l-8.1,8.1
				c-2,2-2,5.2,0,7.1c2,2,5.2,2,7.1,0l16.7-16.7l0,0c0.1-0.1,0.1-0.1,0.2-0.2C60.4,41.7,60.6,41.6,60.7,41.4z"/>
			<path class="st2" d="M61,41.6c0.1-0.1,0.1-0.2,0.1-0.2c0.1-0.2,0.2-0.4,0.3-0.6c0-0.1,0.1-0.2,0.1-0.3c0.1-0.2,0.1-0.4,0.2-0.6
				c0-0.1,0-0.3,0-0.4c0-0.2,0-0.3,0-0.5c0-0.2,0-0.4,0-0.5c0-0.1,0-0.3,0-0.4c0-0.2-0.1-0.4-0.2-0.6c0-0.1-0.1-0.2-0.1-0.3
				c-0.1-0.2-0.2-0.4-0.3-0.6c0-0.1-0.1-0.2-0.1-0.3c-0.1-0.2-0.3-0.4-0.5-0.6c-0.1-0.1-0.1-0.1-0.2-0.2l0,0L43.6,18.6
				c-2-2-5.2-2-7.1,0c-2,2-2,5.2,0,7.1l8.1,8.1H20.7v0c-2.6,0.1-4.8,2.3-4.8,5c0,2.7,2.1,4.9,4.8,5v0h23.9L36.5,52c-2,2-2,5.2,0,7.1
				c2,2,5.2,2,7.1,0l16.7-16.7l0,0c0.1-0.1,0.1-0.1,0.2-0.2C60.7,42,60.8,41.8,61,41.6z"/>
			<path class="st2" d="M61.2,41.8c0.1-0.1,0.1-0.2,0.1-0.2c0.1-0.2,0.2-0.4,0.3-0.6c0-0.1,0.1-0.2,0.1-0.3c0.1-0.2,0.1-0.4,0.2-0.6
				c0-0.1,0-0.3,0-0.4c0-0.2,0-0.3,0-0.5c0-0.2,0-0.4,0-0.5c0-0.1,0-0.3,0-0.4c0-0.2-0.1-0.4-0.2-0.6c0-0.1-0.1-0.2-0.1-0.3
				c-0.1-0.2-0.2-0.4-0.3-0.6c0-0.1-0.1-0.2-0.1-0.3c-0.1-0.2-0.3-0.4-0.5-0.6c-0.1-0.1-0.1-0.1-0.2-0.2l0,0L43.9,18.8
				c-2-2-5.2-2-7.1,0c-2,2-2,5.2,0,7.1l8.1,8.1H20.9v0c-2.6,0.1-4.8,2.3-4.8,5c0,2.7,2.1,4.9,4.8,5v0h23.9l-8.1,8.1
				c-2,2-2,5.2,0,7.1c2,2,5.2,2,7.1,0l16.7-16.7l0,0c0.1-0.1,0.1-0.1,0.2-0.2C60.9,42.2,61.1,42,61.2,41.8z"/>
			<path class="st2" d="M61.5,42.1c0.1-0.1,0.1-0.2,0.1-0.2c0.1-0.2,0.2-0.4,0.3-0.6c0-0.1,0.1-0.2,0.1-0.3c0.1-0.2,0.1-0.4,0.2-0.6
				c0-0.1,0-0.3,0-0.4c0-0.2,0-0.3,0-0.5c0-0.2,0-0.4,0-0.5c0-0.1,0-0.3,0-0.4c0-0.2-0.1-0.4-0.2-0.6c0-0.1-0.1-0.2-0.1-0.3
				c-0.1-0.2-0.2-0.4-0.3-0.6c0-0.1-0.1-0.2-0.1-0.3c-0.1-0.2-0.3-0.4-0.5-0.6c-0.1-0.1-0.1-0.1-0.2-0.2l0,0L44.1,19.1
				c-2-2-5.2-2-7.1,0c-2,2-2,5.2,0,7.1l8.1,8.1H21.2v0c-2.6,0.1-4.8,2.3-4.8,5c0,2.7,2.1,4.9,4.8,5v0h23.9L37,52.5c-2,2-2,5.2,0,7.1
				c2,2,5.2,2,7.1,0l16.7-16.7l0,0c0.1-0.1,0.1-0.1,0.2-0.2C61.2,42.5,61.3,42.3,61.5,42.1z"/>
			<path class="st2" d="M61.7,42.3c0.1-0.1,0.1-0.2,0.1-0.2c0.1-0.2,0.2-0.4,0.3-0.6c0-0.1,0.1-0.2,0.1-0.3c0.1-0.2,0.1-0.4,0.2-0.6
				c0-0.1,0-0.3,0-0.4c0-0.2,0-0.3,0-0.5c0-0.2,0-0.4,0-0.5c0-0.1,0-0.3,0-0.4c0-0.2-0.1-0.4-0.2-0.6c0-0.1-0.1-0.2-0.1-0.3
				c-0.1-0.2-0.2-0.4-0.3-0.6c0-0.1-0.1-0.2-0.1-0.3c-0.1-0.2-0.3-0.4-0.5-0.6c-0.1-0.1-0.1-0.1-0.2-0.2l0,0L44.3,19.3
				c-2-2-5.2-2-7.1,0c-2,2-2,5.2,0,7.1l8.1,8.1H21.4v0c-2.6,0.1-4.8,2.3-4.8,5c0,2.7,2.1,4.9,4.8,5v0h23.9l-8.1,8.1
				c-2,2-2,5.2,0,7.1c2,2,5.2,2,7.1,0l16.7-16.7l0,0c0.1-0.1,0.1-0.1,0.2-0.2C61.4,42.7,61.6,42.5,61.7,42.3z"/>
			<path class="st2" d="M61.9,42.6c0.1-0.1,0.1-0.2,0.1-0.2c0.1-0.2,0.2-0.4,0.3-0.6c0-0.1,0.1-0.2,0.1-0.3c0.1-0.2,0.1-0.4,0.2-0.6
				c0-0.1,0-0.3,0-0.4c0-0.2,0-0.3,0-0.5c0-0.2,0-0.4,0-0.5c0-0.1,0-0.3,0-0.4c0-0.2-0.1-0.4-0.2-0.6c0-0.1-0.1-0.2-0.1-0.3
				c-0.1-0.2-0.2-0.4-0.3-0.6c0-0.1-0.1-0.2-0.1-0.3c-0.1-0.2-0.3-0.4-0.5-0.6c-0.1-0.1-0.1-0.1-0.2-0.2l0,0L44.6,19.6
				c-2-2-5.2-2-7.1,0c-2,2-2,5.2,0,7.1l8.1,8.1H21.6v0c-2.6,0.1-4.8,2.3-4.8,5c0,2.7,2.1,4.9,4.8,5v0h23.9L37.5,53c-2,2-2,5.2,0,7.1
				c2,2,5.2,2,7.1,0l16.7-16.7l0,0c0.1-0.1,0.1-0.1,0.2-0.2C61.6,43,61.8,42.8,61.9,42.6z"/>
			<path class="st2" d="M62.2,42.8c0.1-0.1,0.1-0.2,0.1-0.2c0.1-0.2,0.2-0.4,0.3-0.6c0-0.1,0.1-0.2,0.1-0.3c0.1-0.2,0.1-0.4,0.2-0.6
				c0-0.1,0-0.3,0-0.4c0-0.2,0-0.3,0-0.5c0-0.2,0-0.4,0-0.5c0-0.1,0-0.3,0-0.4c0-0.2-0.1-0.4-0.2-0.6c0-0.1-0.1-0.2-0.1-0.3
				c-0.1-0.2-0.2-0.4-0.3-0.6c0-0.1-0.1-0.2-0.1-0.3c-0.1-0.2-0.3-0.4-0.5-0.6c-0.1-0.1-0.1-0.1-0.2-0.2l0,0L44.8,19.8
				c-2-2-5.2-2-7.1,0c-2,2-2,5.2,0,7.1l8.1,8.1H21.9v0c-2.6,0.1-4.8,2.3-4.8,5c0,2.7,2.1,4.9,4.8,5v0h23.9l-8.1,8.1
				c-2,2-2,5.2,0,7.1c2,2,5.2,2,7.1,0l16.7-16.7l0,0c0.1-0.1,0.1-0.1,0.2-0.2C61.9,43.2,62.1,43,62.2,42.8z"/>
			<path class="st2" d="M62.4,43c0.1-0.1,0.1-0.2,0.1-0.2c0.1-0.2,0.2-0.4,0.3-0.6c0-0.1,0.1-0.2,0.1-0.3c0.1-0.2,0.1-0.4,0.2-0.6
				c0-0.1,0-0.3,0-0.4c0-0.2,0-0.3,0-0.5c0-0.2,0-0.4,0-0.5c0-0.1,0-0.3,0-0.4c0-0.2-0.1-0.4-0.2-0.6c0-0.1-0.1-0.2-0.1-0.3
				c-0.1-0.2-0.2-0.4-0.3-0.6c0-0.1-0.1-0.2-0.1-0.3c-0.1-0.2-0.3-0.4-0.5-0.6c-0.1-0.1-0.1-0.1-0.2-0.2l0,0L45.1,20
				c-2-2-5.2-2-7.1,0c-2,2-2,5.2,0,7.1l8.1,8.1H22.1v0c-2.6,0.1-4.8,2.3-4.8,5c0,2.7,2.1,4.9,4.8,5v0h23.9L38,53.5c-2,2-2,5.2,0,7.1
				c2,2,5.2,2,7.1,0l16.7-16.7l0,0c0.1-0.1,0.1-0.1,0.2-0.2C62.1,43.4,62.3,43.3,62.4,43z"/>
			<path class="st2" d="M62.7,43.3c0.1-0.1,0.1-0.2,0.1-0.2c0.1-0.2,0.2-0.4,0.3-0.6c0-0.1,0.1-0.2,0.1-0.3c0.1-0.2,0.1-0.4,0.2-0.6
				c0-0.1,0-0.3,0-0.4c0-0.2,0-0.3,0-0.5c0-0.2,0-0.4,0-0.5c0-0.1,0-0.3,0-0.4c0-0.2-0.1-0.4-0.2-0.6c0-0.1-0.1-0.2-0.1-0.3
				c-0.1-0.2-0.2-0.4-0.3-0.6c0-0.1-0.1-0.2-0.1-0.3c-0.1-0.2-0.3-0.4-0.5-0.6c-0.1-0.1-0.1-0.1-0.2-0.2l0,0L45.3,20.3
				c-2-2-5.2-2-7.1,0c-2,2-2,5.2,0,7.1l8.1,8.1H22.4v0c-2.6,0.1-4.8,2.3-4.8,5c0,2.7,2.1,4.9,4.8,5v0h23.9l-8.1,8.1
				c-2,2-2,5.2,0,7.1c2,2,5.2,2,7.1,0l16.7-16.7l0,0c0.1-0.1,0.1-0.1,0.2-0.2C62.4,43.7,62.5,43.5,62.7,43.3z"/>
			<path class="st2" d="M62.9,43.5c0.1-0.1,0.1-0.2,0.1-0.2c0.1-0.2,0.2-0.4,0.3-0.6c0-0.1,0.1-0.2,0.1-0.3c0.1-0.2,0.1-0.4,0.2-0.6
				c0-0.1,0-0.3,0-0.4c0-0.2,0-0.3,0-0.5c0-0.2,0-0.4,0-0.5c0-0.1,0-0.3,0-0.4c0-0.2-0.1-0.4-0.2-0.6c0-0.1-0.1-0.2-0.1-0.3
				c-0.1-0.2-0.2-0.4-0.3-0.6c0-0.1-0.1-0.2-0.1-0.3c-0.1-0.2-0.3-0.4-0.5-0.6c-0.1-0.1-0.1-0.1-0.2-0.2l0,0L45.6,20.5
				c-2-2-5.2-2-7.1,0c-2,2-2,5.2,0,7.1l8.1,8.1H22.6v0c-2.6,0.1-4.8,2.3-4.8,5c0,2.7,2.1,4.9,4.8,5v0h23.9l-8.1,8.1
				c-2,2-2,5.2,0,7.1c2,2,5.2,2,7.1,0l16.7-16.7l0,0c0.1-0.1,0.1-0.1,0.2-0.2C62.6,43.9,62.8,43.7,62.9,43.5z"/>
			<path class="st2" d="M63.2,43.8c0.1-0.1,0.1-0.2,0.1-0.2c0.1-0.2,0.2-0.4,0.3-0.6c0-0.1,0.1-0.2,0.1-0.3c0.1-0.2,0.1-0.4,0.2-0.6
				c0-0.1,0-0.3,0-0.4c0-0.2,0-0.3,0-0.5c0-0.2,0-0.4,0-0.5c0-0.1,0-0.3,0-0.4c0-0.2-0.1-0.4-0.2-0.6c0-0.1-0.1-0.2-0.1-0.3
				c-0.1-0.2-0.2-0.4-0.3-0.6c0-0.1-0.1-0.2-0.1-0.3c-0.1-0.2-0.3-0.4-0.5-0.6c-0.1-0.1-0.1-0.1-0.2-0.2l0,0L45.8,20.8
				c-2-2-5.2-2-7.1,0c-2,2-2,5.2,0,7.1l8.1,8.1H22.8v0c-2.6,0.1-4.8,2.3-4.8,5c0,2.7,2.1,4.9,4.8,5v0h23.9l-8.1,8.1
				c-2,2-2,5.2,0,7.1c2,2,5.2,2,7.1,0l16.7-16.7l0,0c0.1-0.1,0.1-0.1,0.2-0.2C62.9,44.2,63,44,63.2,43.8z"/>
			<path class="st2" d="M63.4,44c0.1-0.1,0.1-0.2,0.1-0.2c0.1-0.2,0.2-0.4,0.3-0.6c0-0.1,0.1-0.2,0.1-0.3c0.1-0.2,0.1-0.4,0.2-0.6
				c0-0.1,0-0.3,0-0.4c0-0.2,0-0.3,0-0.5c0-0.2,0-0.4,0-0.5c0-0.1,0-0.3,0-0.4c0-0.2-0.1-0.4-0.2-0.6c0-0.1-0.1-0.2-0.1-0.3
				c-0.1-0.2-0.2-0.4-0.3-0.6c0-0.1-0.1-0.2-0.1-0.3c-0.1-0.2-0.3-0.4-0.5-0.6c-0.1-0.1-0.1-0.1-0.2-0.2l0,0L46,21c-2-2-5.2-2-7.1,0
				c-2,2-2,5.2,0,7.1l8.1,8.1H23.1v0c-2.6,0.1-4.8,2.3-4.8,5c0,2.7,2.1,4.9,4.8,5v0H47l-8.1,8.1c-2,2-2,5.2,0,7.1c2,2,5.2,2,7.1,0
				l16.7-16.7l0,0c0.1-0.1,0.1-0.1,0.2-0.2C63.1,44.4,63.3,44.2,63.4,44z"/>
			<path class="st2" d="M63.6,44.3c0.1-0.1,0.1-0.2,0.1-0.2c0.1-0.2,0.2-0.4,0.3-0.6c0-0.1,0.1-0.2,0.1-0.3c0.1-0.2,0.1-0.4,0.2-0.6
				c0-0.1,0-0.3,0-0.4c0-0.2,0-0.3,0-0.5c0-0.2,0-0.4,0-0.5c0-0.1,0-0.3,0-0.4c0-0.2-0.1-0.4-0.2-0.6c0-0.1-0.1-0.2-0.1-0.3
				c-0.1-0.2-0.2-0.4-0.3-0.6c0-0.1-0.1-0.2-0.1-0.3c-0.1-0.2-0.3-0.4-0.5-0.6c-0.1-0.1-0.1-0.1-0.2-0.2l0,0L46.3,21.3
				c-2-2-5.2-2-7.1,0c-2,2-2,5.2,0,7.1l8.1,8.1H23.3v0c-2.6,0.1-4.8,2.3-4.8,5c0,2.7,2.1,4.9,4.8,5v0h23.9l-8.1,8.1
				c-2,2-2,5.2,0,7.1c2,2,5.2,2,7.1,0L63,45l0,0c0.1-0.1,0.1-0.1,0.2-0.2C63.3,44.7,63.5,44.5,63.6,44.3z"/>
			<path class="st2" d="M63.9,44.5c0.1-0.1,0.1-0.2,0.1-0.2c0.1-0.2,0.2-0.4,0.3-0.6c0-0.1,0.1-0.2,0.1-0.3c0.1-0.2,0.1-0.4,0.2-0.6
				c0-0.1,0-0.3,0-0.4c0-0.2,0-0.3,0-0.5c0-0.2,0-0.4,0-0.5c0-0.1,0-0.3,0-0.4c0-0.2-0.1-0.4-0.2-0.6c0-0.1-0.1-0.2-0.1-0.3
				c-0.1-0.2-0.2-0.4-0.3-0.6c0-0.1-0.1-0.2-0.1-0.3c-0.1-0.2-0.3-0.4-0.5-0.6c-0.1-0.1-0.1-0.1-0.2-0.2l0,0L46.5,21.5
				c-2-2-5.2-2-7.1,0c-2,2-2,5.2,0,7.1l8.1,8.1H23.6v0c-2.6,0.1-4.8,2.3-4.8,5c0,2.7,2.1,4.9,4.8,5v0h23.9l-8.1,8.1
				c-2,2-2,5.2,0,7.1c2,2,5.2,2,7.1,0l16.7-16.7l0,0c0.1-0.1,0.1-0.1,0.2-0.2C63.6,44.9,63.8,44.7,63.9,44.5z"/>
			<path class="st2" d="M64.1,44.7c0.1-0.1,0.1-0.2,0.1-0.2c0.1-0.2,0.2-0.4,0.3-0.6c0-0.1,0.1-0.2,0.1-0.3c0.1-0.2,0.1-0.4,0.2-0.6
				c0-0.1,0-0.3,0-0.4c0-0.2,0-0.3,0-0.5c0-0.2,0-0.4,0-0.5c0-0.1,0-0.3,0-0.4c0-0.2-0.1-0.4-0.2-0.6c0-0.1-0.1-0.2-0.1-0.3
				c-0.1-0.2-0.2-0.4-0.3-0.6c0-0.1-0.1-0.2-0.1-0.3c-0.1-0.2-0.3-0.4-0.5-0.6c-0.1-0.1-0.1-0.1-0.2-0.2l0,0L46.8,21.7
				c-2-2-5.2-2-7.1,0c-2,2-2,5.2,0,7.1l8.1,8.1H23.8v0c-2.6,0.1-4.8,2.3-4.8,5c0,2.7,2.1,4.9,4.8,5v0h23.9l-8.1,8.1
				c-2,2-2,5.2,0,7.1c2,2,5.2,2,7.1,0l16.7-16.7l0,0c0.1-0.1,0.1-0.1,0.2-0.2C63.8,45.1,64,44.9,64.1,44.7z"/>
			<path class="st2" d="M64.4,45c0.1-0.1,0.1-0.2,0.1-0.2c0.1-0.2,0.2-0.4,0.3-0.6c0-0.1,0.1-0.2,0.1-0.3c0.1-0.2,0.1-0.4,0.2-0.6
				c0-0.1,0-0.3,0-0.4c0-0.2,0-0.3,0-0.5c0-0.2,0-0.4,0-0.5c0-0.1,0-0.3,0-0.4c0-0.2-0.1-0.4-0.2-0.6c0-0.1-0.1-0.2-0.1-0.3
				c-0.1-0.2-0.2-0.4-0.3-0.6c0-0.1-0.1-0.2-0.1-0.3c-0.1-0.2-0.3-0.4-0.5-0.6c-0.1-0.1-0.1-0.1-0.2-0.2l0,0L47,22c-2-2-5.2-2-7.1,0
				c-2,2-2,5.2,0,7.1l8.1,8.1H24.1v0c-2.6,0.1-4.8,2.3-4.8,5c0,2.7,2.1,4.9,4.8,5v0H48l-8.1,8.1c-2,2-2,5.2,0,7.1c2,2,5.2,2,7.1,0
				l16.7-16.7l0,0c0.1-0.1,0.1-0.1,0.2-0.2C64.1,45.4,64.2,45.2,64.4,45z"/>
			<path class="st2" d="M64.6,45.2c0.1-0.1,0.1-0.2,0.1-0.2c0.1-0.2,0.2-0.4,0.3-0.6c0-0.1,0.1-0.2,0.1-0.3c0.1-0.2,0.1-0.4,0.2-0.6
				c0-0.1,0-0.3,0-0.4c0-0.2,0-0.3,0-0.5c0-0.2,0-0.4,0-0.5c0-0.1,0-0.3,0-0.4c0-0.2-0.1-0.4-0.2-0.6c0-0.1-0.1-0.2-0.1-0.3
				c-0.1-0.2-0.2-0.4-0.3-0.6c0-0.1-0.1-0.2-0.1-0.3c-0.1-0.2-0.3-0.4-0.5-0.6C64.1,39.1,64.1,39,64,39l0,0L47.2,22.2
				c-2-2-5.2-2-7.1,0c-2,2-2,5.2,0,7.1l8.1,8.1H24.3v0c-2.6,0.1-4.8,2.3-4.8,5c0,2.7,2.1,4.9,4.8,5v0h23.9l-8.1,8.1
				c-2,2-2,5.2,0,7.1c2,2,5.2,2,7.1,0L64,46l0,0c0.1-0.1,0.1-0.1,0.2-0.2C64.3,45.6,64.5,45.4,64.6,45.2z"/>
			<path class="st2" d="M64.9,45.5c0.1-0.1,0.1-0.2,0.1-0.2c0.1-0.2,0.2-0.4,0.3-0.6c0-0.1,0.1-0.2,0.1-0.3c0.1-0.2,0.1-0.4,0.2-0.6
				c0-0.1,0-0.3,0-0.4c0-0.2,0-0.3,0-0.5c0-0.2,0-0.4,0-0.5c0-0.1,0-0.3,0-0.4c0-0.2-0.1-0.4-0.2-0.6c0-0.1-0.1-0.2-0.1-0.3
				c-0.1-0.2-0.2-0.4-0.3-0.6c0-0.1-0.1-0.2-0.1-0.3c-0.1-0.2-0.3-0.4-0.5-0.6c-0.1-0.1-0.1-0.1-0.2-0.2l0,0L47.5,22.5
				c-2-2-5.2-2-7.1,0c-2,2-2,5.2,0,7.1l8.1,8.1H24.5v0c-2.6,0.1-4.8,2.3-4.8,5c0,2.7,2.1,4.9,4.8,5v0h23.9l-8.1,8.1
				c-2,2-2,5.2,0,7.1c2,2,5.2,2,7.1,0l16.7-16.7l0,0c0.1-0.1,0.1-0.1,0.2-0.2C64.6,45.9,64.7,45.7,64.9,45.5z"/>
			<path class="st2" d="M65.1,45.7c0.1-0.1,0.1-0.2,0.1-0.2c0.1-0.2,0.2-0.4,0.3-0.6c0-0.1,0.1-0.2,0.1-0.3c0.1-0.2,0.1-0.4,0.2-0.6
				c0-0.1,0-0.3,0-0.4c0-0.2,0-0.3,0-0.5c0-0.2,0-0.4,0-0.5c0-0.1,0-0.3,0-0.4c0-0.2-0.1-0.4-0.2-0.6c0-0.1-0.1-0.2-0.1-0.3
				c-0.1-0.2-0.2-0.4-0.3-0.6c0-0.1-0.1-0.2-0.1-0.3c-0.1-0.2-0.3-0.4-0.5-0.6c-0.1-0.1-0.1-0.1-0.2-0.2l0,0L47.7,22.7
				c-2-2-5.2-2-7.1,0c-2,2-2,5.2,0,7.1l8.1,8.1H24.8v0c-2.6,0.1-4.8,2.3-4.8,5c0,2.7,2.1,4.9,4.8,5v0h23.9l-8.1,8.1
				c-2,2-2,5.2,0,7.1c2,2,5.2,2,7.1,0l16.7-16.7l0,0c0.1-0.1,0.1-0.1,0.2-0.2C64.8,46.1,65,45.9,65.1,45.7z"/>
			<path class="st2" d="M65.3,46c0.1-0.1,0.1-0.2,0.1-0.2c0.1-0.2,0.2-0.4,0.3-0.6c0-0.1,0.1-0.2,0.1-0.3c0.1-0.2,0.1-0.4,0.2-0.6
				c0-0.1,0-0.3,0-0.4c0-0.2,0-0.3,0-0.5c0-0.2,0-0.4,0-0.5c0-0.1,0-0.3,0-0.4c0-0.2-0.1-0.4-0.2-0.6c0-0.1-0.1-0.2-0.1-0.3
				c-0.1-0.2-0.2-0.4-0.3-0.6c0-0.1-0.1-0.2-0.1-0.3c-0.1-0.2-0.3-0.4-0.5-0.6c-0.1-0.1-0.1-0.1-0.2-0.2l0,0L48,22.9
				c-2-2-5.2-2-7.1,0c-2,2-2,5.2,0,7.1l8.1,8.1H25v0c-2.6,0.1-4.8,2.3-4.8,5c0,2.7,2.1,4.9,4.8,5v0H49l-8.1,8.1c-2,2-2,5.2,0,7.1
				c2,2,5.2,2,7.1,0l16.7-16.7l0,0c0.1-0.1,0.1-0.1,0.2-0.2C65,46.3,65.2,46.2,65.3,46z"/>
			<path class="st2" d="M65.6,46.2c0.1-0.1,0.1-0.2,0.1-0.2c0.1-0.2,0.2-0.4,0.3-0.6c0-0.1,0.1-0.2,0.1-0.3c0.1-0.2,0.1-0.4,0.2-0.6
				c0-0.1,0-0.3,0-0.4c0-0.2,0-0.3,0-0.5c0-0.2,0-0.4,0-0.5c0-0.1,0-0.3,0-0.4c0-0.2-0.1-0.4-0.2-0.6c0-0.1-0.1-0.2-0.1-0.3
				c-0.1-0.2-0.2-0.4-0.3-0.6c0-0.1-0.1-0.2-0.1-0.3c-0.1-0.2-0.3-0.4-0.5-0.6C65.1,40.1,65,40,65,39.9l0,0L48.2,23.2
				c-2-2-5.2-2-7.1,0c-2,2-2,5.2,0,7.1l8.1,8.1H25.3v0c-2.6,0.1-4.8,2.3-4.8,5c0,2.7,2.1,4.9,4.8,5v0h23.9l-8.1,8.1
				c-2,2-2,5.2,0,7.1c2,2,5.2,2,7.1,0L65,47l0,0c0.1-0.1,0.1-0.1,0.2-0.2C65.3,46.6,65.4,46.4,65.6,46.2z"/>
			<path class="st2" d="M65.8,46.4c0.1-0.1,0.1-0.2,0.1-0.2c0.1-0.2,0.2-0.4,0.3-0.6c0-0.1,0.1-0.2,0.1-0.3c0.1-0.2,0.1-0.4,0.2-0.6
				c0-0.1,0-0.3,0-0.4c0-0.2,0-0.3,0-0.5c0-0.2,0-0.4,0-0.5c0-0.1,0-0.3,0-0.4c0-0.2-0.1-0.4-0.2-0.6c0-0.1-0.1-0.2-0.1-0.3
				c-0.1-0.2-0.2-0.4-0.3-0.6c0-0.1-0.1-0.2-0.1-0.3c-0.1-0.2-0.3-0.4-0.5-0.6c-0.1-0.1-0.1-0.1-0.2-0.2l0,0L48.5,23.4
				c-2-2-5.2-2-7.1,0c-2,2-2,5.2,0,7.1l8.1,8.1H25.5v0c-2.6,0.1-4.8,2.3-4.8,5c0,2.7,2.1,4.9,4.8,5v0h23.9l-8.1,8.1
				c-2,2-2,5.2,0,7.1c2,2,5.2,2,7.1,0l16.7-16.7l0,0c0.1-0.1,0.1-0.1,0.2-0.2C65.5,46.8,65.7,46.6,65.8,46.4z"/>
			<path class="st2" d="M66.1,46.7c0.1-0.1,0.1-0.2,0.1-0.2c0.1-0.2,0.2-0.4,0.3-0.6c0-0.1,0.1-0.2,0.1-0.3c0.1-0.2,0.1-0.4,0.2-0.6
				c0-0.1,0-0.3,0-0.4c0-0.2,0-0.3,0-0.5c0-0.2,0-0.4,0-0.5c0-0.1,0-0.3,0-0.4c0-0.2-0.1-0.4-0.2-0.6c0-0.1-0.1-0.2-0.1-0.3
				c-0.1-0.2-0.2-0.4-0.3-0.6c0-0.1-0.1-0.2-0.1-0.3c-0.1-0.2-0.3-0.4-0.5-0.6c-0.1-0.1-0.1-0.1-0.2-0.2l0,0L48.7,23.7
				c-2-2-5.2-2-7.1,0c-2,2-2,5.2,0,7.1l8.1,8.1H25.8v0c-2.6,0.1-4.8,2.3-4.8,5c0,2.7,2.1,4.9,4.8,5v0h23.9l-8.1,8.1
				c-2,2-2,5.2,0,7.1c2,2,5.2,2,7.1,0l16.7-16.7l0,0c0.1-0.1,0.1-0.1,0.2-0.2C65.8,47.1,65.9,46.9,66.1,46.7z"/>
			<path class="st2" d="M66.3,46.9c0.1-0.1,0.1-0.2,0.1-0.2c0.1-0.2,0.2-0.4,0.3-0.6c0-0.1,0.1-0.2,0.1-0.3c0.1-0.2,0.1-0.4,0.2-0.6
				c0-0.1,0-0.3,0-0.4c0-0.2,0-0.3,0-0.5c0-0.2,0-0.4,0-0.5c0-0.1,0-0.3,0-0.4c0-0.2-0.1-0.4-0.2-0.6c0-0.1-0.1-0.2-0.1-0.3
				c-0.1-0.2-0.2-0.4-0.3-0.6c0-0.1-0.1-0.2-0.1-0.3c-0.1-0.2-0.3-0.4-0.5-0.6c-0.1-0.1-0.1-0.1-0.2-0.2l0,0L48.9,23.9
				c-2-2-5.2-2-7.1,0c-2,2-2,5.2,0,7.1l8.1,8.1H26v0c-2.6,0.1-4.8,2.3-4.8,5c0,2.7,2.1,4.9,4.8,5v0h23.9l-8.1,8.1c-2,2-2,5.2,0,7.1
				c2,2,5.2,2,7.1,0l16.7-16.7l0,0c0.1-0.1,0.1-0.1,0.2-0.2C66,47.3,66.2,47.1,66.3,46.9z"/>
			<path class="st2" d="M66.6,47.2c0.1-0.1,0.1-0.2,0.1-0.2c0.1-0.2,0.2-0.4,0.3-0.6c0-0.1,0.1-0.2,0.1-0.3c0.1-0.2,0.1-0.4,0.2-0.6
				c0-0.1,0-0.3,0-0.4c0-0.2,0-0.3,0-0.5c0-0.2,0-0.4,0-0.5c0-0.1,0-0.3,0-0.4c0-0.2-0.1-0.4-0.2-0.6c0-0.1-0.1-0.2-0.1-0.3
				c-0.1-0.2-0.2-0.4-0.3-0.6c0-0.1-0.1-0.2-0.1-0.3c-0.1-0.2-0.3-0.4-0.5-0.6C66,41.1,66,41,65.9,40.9l0,0L49.2,24.2
				c-2-2-5.2-2-7.1,0c-2,2-2,5.2,0,7.1l8.1,8.1H26.2v0c-2.6,0.1-4.8,2.3-4.8,5c0,2.7,2.1,4.9,4.8,5v0h23.9l-8.1,8.1
				c-2,2-2,5.2,0,7.1c2,2,5.2,2,7.1,0l16.7-16.7l0,0c0.1-0.1,0.1-0.1,0.2-0.2C66.2,47.6,66.4,47.4,66.6,47.2z"/>
			<path class="st2" d="M66.8,47.4c0.1-0.1,0.1-0.2,0.1-0.2c0.1-0.2,0.2-0.4,0.3-0.6c0-0.1,0.1-0.2,0.1-0.3c0.1-0.2,0.1-0.4,0.2-0.6
				c0-0.1,0-0.3,0-0.4c0-0.2,0-0.3,0-0.5c0-0.2,0-0.4,0-0.5c0-0.1,0-0.3,0-0.4c0-0.2-0.1-0.4-0.2-0.6c0-0.1-0.1-0.2-0.1-0.3
				c-0.1-0.2-0.2-0.4-0.3-0.6c0-0.1-0.1-0.2-0.1-0.3c-0.1-0.2-0.3-0.4-0.5-0.6c-0.1-0.1-0.1-0.1-0.2-0.2l0,0L49.4,24.4
				c-2-2-5.2-2-7.1,0c-2,2-2,5.2,0,7.1l8.1,8.1H26.5v0c-2.6,0.1-4.8,2.3-4.8,5c0,2.7,2.1,4.9,4.8,5v0h23.9l-8.1,8.1
				c-2,2-2,5.2,0,7.1c2,2,5.2,2,7.1,0l16.7-16.7l0,0c0.1-0.1,0.1-0.1,0.2-0.2C66.5,47.8,66.7,47.6,66.8,47.4z"/>
			<path class="st2" d="M67,47.7c0.1-0.1,0.1-0.2,0.1-0.2c0.1-0.2,0.2-0.4,0.3-0.6c0-0.1,0.1-0.2,0.1-0.3c0.1-0.2,0.1-0.4,0.2-0.6
				c0-0.1,0-0.3,0-0.4c0-0.2,0-0.3,0-0.5c0-0.2,0-0.4,0-0.5c0-0.1,0-0.3,0-0.4c0-0.2-0.1-0.4-0.2-0.6c0-0.1-0.1-0.2-0.1-0.3
				c-0.1-0.2-0.2-0.4-0.3-0.6c0-0.1-0.1-0.2-0.1-0.3c-0.1-0.2-0.3-0.4-0.5-0.6c-0.1-0.1-0.1-0.1-0.2-0.2l0,0L49.7,24.6
				c-2-2-5.2-2-7.1,0c-2,2-2,5.2,0,7.1l8.1,8.1H26.7v0c-2.6,0.1-4.8,2.3-4.8,5c0,2.7,2.1,4.9,4.8,5v0h23.9l-8.1,8.1
				c-2,2-2,5.2,0,7.1c2,2,5.2,2,7.1,0l16.7-16.7l0,0c0.1-0.1,0.1-0.1,0.2-0.2C66.7,48,66.9,47.9,67,47.7z"/>
			<path class="st2" d="M67.3,47.9c0.1-0.1,0.1-0.2,0.1-0.2c0.1-0.2,0.2-0.4,0.3-0.6c0-0.1,0.1-0.2,0.1-0.3c0.1-0.2,0.1-0.4,0.2-0.6
				c0-0.1,0-0.3,0-0.4c0-0.2,0-0.3,0-0.5c0-0.2,0-0.4,0-0.5c0-0.1,0-0.3,0-0.4c0-0.2-0.1-0.4-0.2-0.6c0-0.1-0.1-0.2-0.1-0.3
				c-0.1-0.2-0.2-0.4-0.3-0.6c0-0.1-0.1-0.2-0.1-0.3c-0.1-0.2-0.3-0.4-0.5-0.6c-0.1-0.1-0.1-0.1-0.2-0.2l0,0L49.9,24.9
				c-2-2-5.2-2-7.1,0c-2,2-2,5.2,0,7.1l8.1,8.1H27v0c-2.6,0.1-4.8,2.3-4.8,5c0,2.7,2.1,4.9,4.8,5v0h23.9l-8.1,8.1c-2,2-2,5.2,0,7.1
				c2,2,5.2,2,7.1,0l16.7-16.7l0,0c0.1-0.1,0.1-0.1,0.2-0.2C67,48.3,67.1,48.1,67.3,47.9z"/>
			<path class="st2" d="M67.5,48.1c0.1-0.1,0.1-0.2,0.1-0.2c0.1-0.2,0.2-0.4,0.3-0.6c0-0.1,0.1-0.2,0.1-0.3c0.1-0.2,0.1-0.4,0.2-0.6
				c0-0.1,0-0.3,0-0.4c0-0.2,0-0.3,0-0.5c0-0.2,0-0.4,0-0.5c0-0.1,0-0.3,0-0.4c0-0.2-0.1-0.4-0.2-0.6c0-0.1-0.1-0.2-0.1-0.3
				c-0.1-0.2-0.2-0.4-0.3-0.6c0-0.1-0.1-0.2-0.1-0.3c-0.1-0.2-0.3-0.4-0.5-0.6C67,42,67,41.9,66.9,41.9l0,0L50.2,25.1
				c-2-2-5.2-2-7.1,0c-2,2-2,5.2,0,7.1l8.1,8.1H27.2v0c-2.6,0.1-4.8,2.3-4.8,5c0,2.7,2.1,4.9,4.8,5v0h23.9L43,58.5c-2,2-2,5.2,0,7.1
				c2,2,5.2,2,7.1,0l16.7-16.7l0,0c0.1-0.1,0.1-0.1,0.2-0.2C67.2,48.5,67.4,48.3,67.5,48.1z"/>
			<path class="st2" d="M67.8,48.4c0.1-0.1,0.1-0.2,0.1-0.2c0.1-0.2,0.2-0.4,0.3-0.6c0-0.1,0.1-0.2,0.1-0.3c0.1-0.2,0.1-0.4,0.2-0.6
				c0-0.1,0-0.3,0-0.4c0-0.2,0-0.3,0-0.5c0-0.2,0-0.4,0-0.5c0-0.1,0-0.3,0-0.4c0-0.2-0.1-0.4-0.2-0.6c0-0.1-0.1-0.2-0.1-0.3
				c-0.1-0.2-0.2-0.4-0.3-0.6c0-0.1-0.1-0.2-0.1-0.3c-0.1-0.2-0.3-0.4-0.5-0.6c-0.1-0.1-0.1-0.1-0.2-0.2l0,0L50.4,25.4
				c-2-2-5.2-2-7.1,0c-2,2-2,5.2,0,7.1l8.1,8.1H27.5v0c-2.6,0.1-4.8,2.3-4.8,5c0,2.7,2.1,4.9,4.8,5v0h23.9l-8.1,8.1
				c-2,2-2,5.2,0,7.1c2,2,5.2,2,7.1,0l16.7-16.7l0,0c0.1-0.1,0.1-0.1,0.2-0.2C67.5,48.8,67.6,48.6,67.8,48.4z"/>
			<path class="st2" d="M68,48.6c0.1-0.1,0.1-0.2,0.1-0.2c0.1-0.2,0.2-0.4,0.3-0.6c0-0.1,0.1-0.2,0.1-0.3c0.1-0.2,0.1-0.4,0.2-0.6
				c0-0.1,0-0.3,0-0.4c0-0.2,0-0.3,0-0.5c0-0.2,0-0.4,0-0.5c0-0.1,0-0.3,0-0.4c0-0.2-0.1-0.4-0.2-0.6c0-0.1-0.1-0.2-0.1-0.3
				c-0.1-0.2-0.2-0.4-0.3-0.6c0-0.1-0.1-0.2-0.1-0.3c-0.1-0.2-0.3-0.4-0.5-0.6c-0.1-0.1-0.1-0.1-0.2-0.2l0,0L50.6,25.6
				c-2-2-5.2-2-7.1,0c-2,2-2,5.2,0,7.1l8.1,8.1H27.7v0c-2.6,0.1-4.8,2.3-4.8,5c0,2.7,2.1,4.9,4.8,5v0h23.9L43.5,59c-2,2-2,5.2,0,7.1
				c2,2,5.2,2,7.1,0l16.7-16.7l0,0c0.1-0.1,0.1-0.1,0.2-0.2C67.7,49,67.9,48.8,68,48.6z"/>
			<path class="st2" d="M68.2,48.9c0.1-0.1,0.1-0.2,0.1-0.2c0.1-0.2,0.2-0.4,0.3-0.6c0-0.1,0.1-0.2,0.1-0.3c0.1-0.2,0.1-0.4,0.2-0.6
				c0-0.1,0-0.3,0-0.4c0-0.2,0-0.3,0-0.5c0-0.2,0-0.4,0-0.5c0-0.1,0-0.3,0-0.4c0-0.2-0.1-0.4-0.2-0.6c0-0.1-0.1-0.2-0.1-0.3
				c-0.1-0.2-0.2-0.4-0.3-0.6c0-0.1-0.1-0.2-0.1-0.3c-0.1-0.2-0.3-0.4-0.5-0.6c-0.1-0.1-0.1-0.1-0.2-0.2l0,0L50.9,25.9
				c-2-2-5.2-2-7.1,0c-2,2-2,5.2,0,7.1l8.1,8.1H27.9v0c-2.6,0.1-4.8,2.3-4.8,5c0,2.7,2.1,4.9,4.8,5v0h23.9l-8.1,8.1
				c-2,2-2,5.2,0,7.1c2,2,5.2,2,7.1,0l16.7-16.7l0,0c0.1-0.1,0.1-0.1,0.2-0.2C67.9,49.3,68.1,49.1,68.2,48.9z"/>
			<path class="st2" d="M68.5,49.1c0.1-0.1,0.1-0.2,0.1-0.2c0.1-0.2,0.2-0.4,0.3-0.6c0-0.1,0.1-0.2,0.1-0.3c0.1-0.2,0.1-0.4,0.2-0.6
				c0-0.1,0-0.3,0-0.4c0-0.2,0-0.3,0-0.5c0-0.2,0-0.4,0-0.5c0-0.1,0-0.3,0-0.4c0-0.2-0.1-0.4-0.2-0.6c0-0.1-0.1-0.2-0.1-0.3
				c-0.1-0.2-0.2-0.4-0.3-0.6c0-0.1-0.1-0.2-0.1-0.3c-0.1-0.2-0.3-0.4-0.5-0.6c-0.1-0.1-0.1-0.1-0.2-0.2l0,0L51.1,26.1
				c-2-2-5.2-2-7.1,0c-2,2-2,5.2,0,7.1l8.1,8.1H28.2v0c-2.6,0.1-4.8,2.3-4.8,5c0,2.7,2.1,4.9,4.8,5v0h23.9L44,59.5c-2,2-2,5.2,0,7.1
				c2,2,5.2,2,7.1,0l16.7-16.7l0,0c0.1-0.1,0.1-0.1,0.2-0.2C68.2,49.5,68.4,49.3,68.5,49.1z"/>
			<path class="st2" d="M68.7,49.3c0.1-0.1,0.1-0.2,0.1-0.2c0.1-0.2,0.2-0.4,0.3-0.6c0-0.1,0.1-0.2,0.1-0.3c0.1-0.2,0.1-0.4,0.2-0.6
				c0-0.1,0-0.3,0-0.4c0-0.2,0-0.3,0-0.5c0-0.2,0-0.4,0-0.5c0-0.1,0-0.3,0-0.4c0-0.2-0.1-0.4-0.2-0.6c0-0.1-0.1-0.2-0.1-0.3
				c-0.1-0.2-0.2-0.4-0.3-0.6c0-0.1-0.1-0.2-0.1-0.3c-0.1-0.2-0.3-0.4-0.5-0.6c-0.1-0.1-0.1-0.1-0.2-0.2l0,0L51.4,26.3
				c-2-2-5.2-2-7.1,0c-2,2-2,5.2,0,7.1l8.1,8.1H28.4v0c-2.6,0.1-4.8,2.3-4.8,5c0,2.7,2.1,4.9,4.8,5v0h23.9l-8.1,8.1
				c-2,2-2,5.2,0,7.1c2,2,5.2,2,7.1,0l16.7-16.7l0,0c0.1-0.1,0.1-0.1,0.2-0.2C68.4,49.7,68.6,49.6,68.7,49.3z"/>
			<path class="st2" d="M69,49.6c0.1-0.1,0.1-0.2,0.1-0.2c0.1-0.2,0.2-0.4,0.3-0.6c0-0.1,0.1-0.2,0.1-0.3c0.1-0.2,0.1-0.4,0.2-0.6
				c0-0.1,0-0.3,0-0.4c0-0.2,0-0.3,0-0.5c0-0.2,0-0.4,0-0.5c0-0.1,0-0.3,0-0.4c0-0.2-0.1-0.4-0.2-0.6c0-0.1-0.1-0.2-0.1-0.3
				c-0.1-0.2-0.2-0.4-0.3-0.6c0-0.1-0.1-0.2-0.1-0.3c-0.1-0.2-0.3-0.4-0.5-0.6c-0.1-0.1-0.1-0.1-0.2-0.2l0,0L51.6,26.6
				c-2-2-5.2-2-7.1,0c-2,2-2,5.2,0,7.1l8.1,8.1H28.7v0c-2.6,0.1-4.8,2.3-4.8,5c0,2.7,2.1,4.9,4.8,5v0h23.9L44.5,60c-2,2-2,5.2,0,7.1
				c2,2,5.2,2,7.1,0l16.7-16.7l0,0c0.1-0.1,0.1-0.1,0.2-0.2C68.7,50,68.8,49.8,69,49.6z"/>
			<path class="st2" d="M69.2,49.8c0.1-0.1,0.1-0.2,0.1-0.2c0.1-0.2,0.2-0.4,0.3-0.6c0-0.1,0.1-0.2,0.1-0.3c0.1-0.2,0.1-0.4,0.2-0.6
				c0-0.1,0-0.3,0-0.4c0-0.2,0-0.3,0-0.5c0-0.2,0-0.4,0-0.5c0-0.1,0-0.3,0-0.4c0-0.2-0.1-0.4-0.2-0.6c0-0.1-0.1-0.2-0.1-0.3
				c-0.1-0.2-0.2-0.4-0.3-0.6c0-0.1-0.1-0.2-0.1-0.3c-0.1-0.2-0.3-0.4-0.5-0.6c-0.1-0.1-0.1-0.1-0.2-0.2l0,0L51.8,26.8
				c-2-2-5.2-2-7.1,0c-2,2-2,5.2,0,7.1l8.1,8.1H28.9v0c-2.6,0.1-4.8,2.3-4.8,5c0,2.7,2.1,4.9,4.8,5v0h23.9l-8.1,8.1
				c-2,2-2,5.2,0,7.1c2,2,5.2,2,7.1,0l16.7-16.7l0,0c0.1-0.1,0.1-0.1,0.2-0.2C68.9,50.2,69.1,50,69.2,49.8z"/>
			<path class="st2" d="M69.5,50.1c0.1-0.1,0.1-0.2,0.1-0.2c0.1-0.2,0.2-0.4,0.3-0.6c0-0.1,0.1-0.2,0.1-0.3c0.1-0.2,0.1-0.4,0.2-0.6
				c0-0.1,0-0.3,0-0.4c0-0.2,0-0.3,0-0.5c0-0.2,0-0.4,0-0.5c0-0.1,0-0.3,0-0.4c0-0.2-0.1-0.4-0.2-0.6c0-0.1-0.1-0.2-0.1-0.3
				c-0.1-0.2-0.2-0.4-0.3-0.6c0-0.1-0.1-0.2-0.1-0.3c-0.1-0.2-0.3-0.4-0.5-0.6c-0.1-0.1-0.1-0.1-0.2-0.2l0,0L52.1,27.1
				c-2-2-5.2-2-7.1,0c-2,2-2,5.2,0,7.1l8.1,8.1H29.1v0c-2.6,0.1-4.8,2.3-4.8,5c0,2.7,2.1,4.9,4.8,5v0h23.9L45,60.5c-2,2-2,5.2,0,7.1
				c2,2,5.2,2,7.1,0l16.7-16.7l0,0c0.1-0.1,0.1-0.1,0.2-0.2C69.2,50.5,69.3,50.3,69.5,50.1z"/>
			<path class="st2" d="M69.7,50.3c0.1-0.1,0.1-0.2,0.1-0.2c0.1-0.2,0.2-0.4,0.3-0.6c0-0.1,0.1-0.2,0.1-0.3c0.1-0.2,0.1-0.4,0.2-0.6
				c0-0.1,0-0.3,0-0.4c0-0.2,0-0.3,0-0.5c0-0.2,0-0.4,0-0.5c0-0.1,0-0.3,0-0.4c0-0.2-0.1-0.4-0.2-0.6c0-0.1-0.1-0.2-0.1-0.3
				c-0.1-0.2-0.2-0.4-0.3-0.6c0-0.1-0.1-0.2-0.1-0.3c-0.1-0.2-0.3-0.4-0.5-0.6c-0.1-0.1-0.1-0.1-0.2-0.2l0,0L52.3,27.3
				c-2-2-5.2-2-7.1,0c-2,2-2,5.2,0,7.1l8.1,8.1H29.4v0c-2.6,0.1-4.8,2.3-4.8,5c0,2.7,2.1,4.9,4.8,5v0h23.9l-8.1,8.1
				c-2,2-2,5.2,0,7.1c2,2,5.2,2,7.1,0l16.7-16.7l0,0c0.1-0.1,0.1-0.1,0.2-0.2C69.4,50.7,69.6,50.5,69.7,50.3z"/>
			<path class="st2" d="M69.9,50.6c0.1-0.1,0.1-0.2,0.1-0.2c0.1-0.2,0.2-0.4,0.3-0.6c0-0.1,0.1-0.2,0.1-0.3c0.1-0.2,0.1-0.4,0.2-0.6
				c0-0.1,0-0.3,0-0.4c0-0.2,0-0.3,0-0.5c0-0.2,0-0.4,0-0.5c0-0.1,0-0.3,0-0.4c0-0.2-0.1-0.4-0.2-0.6c0-0.1-0.1-0.2-0.1-0.3
				c-0.1-0.2-0.2-0.4-0.3-0.6c0-0.1-0.1-0.2-0.1-0.3c-0.1-0.2-0.3-0.4-0.5-0.6c-0.1-0.1-0.1-0.1-0.2-0.2l0,0L52.6,27.6
				c-2-2-5.2-2-7.1,0c-2,2-2,5.2,0,7.1l8.1,8.1H29.6v0c-2.6,0.1-4.8,2.3-4.8,5c0,2.7,2.1,4.9,4.8,5v0h23.9L45.5,61c-2,2-2,5.2,0,7.1
				c2,2,5.2,2,7.1,0l16.7-16.7l0,0c0.1-0.1,0.1-0.1,0.2-0.2C69.6,51,69.8,50.8,69.9,50.6z"/>
			<path class="st2" d="M70.2,50.8c0.1-0.1,0.1-0.2,0.1-0.2c0.1-0.2,0.2-0.4,0.3-0.6c0-0.1,0.1-0.2,0.1-0.3c0.1-0.2,0.1-0.4,0.2-0.6
				c0-0.1,0-0.3,0-0.4c0-0.2,0-0.3,0-0.5c0-0.2,0-0.4,0-0.5c0-0.1,0-0.3,0-0.4c0-0.2-0.1-0.4-0.2-0.6c0-0.1-0.1-0.2-0.1-0.3
				c-0.1-0.2-0.2-0.4-0.3-0.6c0-0.1-0.1-0.2-0.1-0.3c-0.1-0.2-0.3-0.4-0.5-0.6c-0.1-0.1-0.1-0.1-0.2-0.2l0,0L52.8,27.8
				c-2-2-5.2-2-7.1,0c-2,2-2,5.2,0,7.1l8.1,8.1H29.9v0c-2.6,0.1-4.8,2.3-4.8,5c0,2.7,2.1,4.9,4.8,5v0h23.9l-8.1,8.1
				c-2,2-2,5.2,0,7.1c2,2,5.2,2,7.1,0l16.7-16.7l0,0c0.1-0.1,0.1-0.1,0.2-0.2C69.9,51.2,70.1,51,70.2,50.8z"/>
			<path class="st2" d="M70.4,51c0.1-0.1,0.1-0.2,0.1-0.2c0.1-0.2,0.2-0.4,0.3-0.6c0-0.1,0.1-0.2,0.1-0.3c0.1-0.2,0.1-0.4,0.2-0.6
				c0-0.1,0-0.3,0-0.4c0-0.2,0-0.3,0-0.5c0-0.2,0-0.4,0-0.5c0-0.1,0-0.3,0-0.4c0-0.2-0.1-0.4-0.2-0.6c0-0.1-0.1-0.2-0.1-0.3
				c-0.1-0.2-0.2-0.4-0.3-0.6c0-0.1-0.1-0.2-0.1-0.3c-0.1-0.2-0.3-0.4-0.5-0.6c-0.1-0.1-0.1-0.1-0.2-0.2l0,0L53.1,28
				c-2-2-5.2-2-7.1,0c-2,2-2,5.2,0,7.1l8.1,8.1H30.1v0c-2.6,0.1-4.8,2.3-4.8,5c0,2.7,2.1,4.9,4.8,5v0h23.9l-8.1,8.1
				c-2,2-2,5.2,0,7.1c2,2,5.2,2,7.1,0l16.7-16.7l0,0c0.1-0.1,0.1-0.1,0.2-0.2C70.1,51.4,70.3,51.2,70.4,51z"/>
			<path class="st2" d="M70.7,51.3c0.1-0.1,0.1-0.2,0.1-0.2c0.1-0.2,0.2-0.4,0.3-0.6c0-0.1,0.1-0.2,0.1-0.3c0.1-0.2,0.1-0.4,0.2-0.6
				c0-0.1,0-0.3,0-0.4c0-0.2,0-0.3,0-0.5c0-0.2,0-0.4,0-0.5c0-0.1,0-0.3,0-0.4c0-0.2-0.1-0.4-0.2-0.6c0-0.1-0.1-0.2-0.1-0.3
				c-0.1-0.2-0.2-0.4-0.3-0.6c0-0.1-0.1-0.2-0.1-0.3c-0.1-0.2-0.3-0.4-0.5-0.6c-0.1-0.1-0.1-0.1-0.2-0.2l0,0L53.3,28.3
				c-2-2-5.2-2-7.1,0c-2,2-2,5.2,0,7.1l8.1,8.1H30.4v0c-2.6,0.1-4.8,2.3-4.8,5c0,2.7,2.1,4.9,4.8,5v0h23.9l-8.1,8.1
				c-2,2-2,5.2,0,7.1c2,2,5.2,2,7.1,0L70,52.1l0,0c0.1-0.1,0.1-0.1,0.2-0.2C70.4,51.7,70.5,51.5,70.7,51.3z"/>
			<path class="st2" d="M70.9,51.5c0.1-0.1,0.1-0.2,0.1-0.2c0.1-0.2,0.2-0.4,0.3-0.6c0-0.1,0.1-0.2,0.1-0.3c0.1-0.2,0.1-0.4,0.2-0.6
				c0-0.1,0-0.3,0-0.4c0-0.2,0-0.3,0-0.5c0-0.2,0-0.4,0-0.5c0-0.1,0-0.3,0-0.4c0-0.2-0.1-0.4-0.2-0.6c0-0.1-0.1-0.2-0.1-0.3
				c-0.1-0.2-0.2-0.4-0.3-0.6c0-0.1-0.1-0.2-0.1-0.3c-0.1-0.2-0.3-0.4-0.5-0.6c-0.1-0.1-0.1-0.1-0.2-0.2l0,0L53.5,28.5
				c-2-2-5.2-2-7.1,0c-2,2-2,5.2,0,7.1l8.1,8.1H30.6v0c-2.6,0.1-4.8,2.3-4.8,5c0,2.7,2.1,4.9,4.8,5v0h23.9l-8.1,8.1
				c-2,2-2,5.2,0,7.1c2,2,5.2,2,7.1,0l16.7-16.7l0,0c0.1-0.1,0.1-0.1,0.2-0.2C70.6,51.9,70.8,51.7,70.9,51.5z"/>
			<path class="st2" d="M71.2,51.8c0.1-0.1,0.1-0.2,0.1-0.2c0.1-0.2,0.2-0.4,0.3-0.6c0-0.1,0.1-0.2,0.1-0.3c0.1-0.2,0.1-0.4,0.2-0.6
				c0-0.1,0-0.3,0-0.4c0-0.2,0-0.3,0-0.5c0-0.2,0-0.4,0-0.5c0-0.1,0-0.3,0-0.4c0-0.2-0.1-0.4-0.2-0.6c0-0.1-0.1-0.2-0.1-0.3
				c-0.1-0.2-0.2-0.4-0.3-0.6c0-0.1-0.1-0.2-0.1-0.3c-0.1-0.2-0.3-0.4-0.5-0.6c-0.1-0.1-0.1-0.1-0.2-0.2l0,0L53.8,28.8
				c-2-2-5.2-2-7.1,0c-2,2-2,5.2,0,7.1l8.1,8.1H30.8v0c-2.6,0.1-4.8,2.3-4.8,5c0,2.7,2.1,4.9,4.8,5v0h23.9l-8.1,8.1
				c-2,2-2,5.2,0,7.1c2,2,5.2,2,7.1,0l16.7-16.7l0,0c0.1-0.1,0.1-0.1,0.2-0.2C70.9,52.2,71,52,71.2,51.8z"/>
			<path class="st2" d="M71.4,52c0.1-0.1,0.1-0.2,0.1-0.2c0.1-0.2,0.2-0.4,0.3-0.6c0-0.1,0.1-0.2,0.1-0.3c0.1-0.2,0.1-0.4,0.2-0.6
				c0-0.1,0-0.3,0-0.4c0-0.2,0-0.3,0-0.5c0-0.2,0-0.4,0-0.5c0-0.1,0-0.3,0-0.4c0-0.2-0.1-0.4-0.2-0.6c0-0.1-0.1-0.2-0.1-0.3
				c-0.1-0.2-0.2-0.4-0.3-0.6c0-0.1-0.1-0.2-0.1-0.3c-0.1-0.2-0.3-0.4-0.5-0.6c-0.1-0.1-0.1-0.1-0.2-0.2l0,0L54,29c-2-2-5.2-2-7.1,0
				c-2,2-2,5.2,0,7.1l8.1,8.1H31.1v0c-2.6,0.1-4.8,2.3-4.8,5c0,2.7,2.1,4.9,4.8,5v0H55l-8.1,8.1c-2,2-2,5.2,0,7.1c2,2,5.2,2,7.1,0
				l16.7-16.7l0,0c0.1-0.1,0.1-0.1,0.2-0.2C71.1,52.4,71.3,52.2,71.4,52z"/>
			<path class="st2" d="M71.6,52.3c0.1-0.1,0.1-0.2,0.1-0.2c0.1-0.2,0.2-0.4,0.3-0.6c0-0.1,0.1-0.2,0.1-0.3c0.1-0.2,0.1-0.4,0.2-0.6
				c0-0.1,0-0.3,0-0.4c0-0.2,0-0.3,0-0.5c0-0.2,0-0.4,0-0.5c0-0.1,0-0.3,0-0.4c0-0.2-0.1-0.4-0.2-0.6c0-0.1-0.1-0.2-0.1-0.3
				c-0.1-0.2-0.2-0.4-0.3-0.6c0-0.1-0.1-0.2-0.1-0.3c-0.1-0.2-0.3-0.4-0.5-0.6c-0.1-0.1-0.1-0.1-0.2-0.2l0,0L54.3,29.2
				c-2-2-5.2-2-7.1,0c-2,2-2,5.2,0,7.1l8.1,8.1H31.3v0c-2.6,0.1-4.8,2.3-4.8,5c0,2.7,2.1,4.9,4.8,5v0h23.9l-8.1,8.1
				c-2,2-2,5.2,0,7.1c2,2,5.2,2,7.1,0L71,53l0,0c0.1-0.1,0.1-0.1,0.2-0.2C71.3,52.6,71.5,52.5,71.6,52.3z"/>
			<path class="st2" d="M71.9,52.5c0.1-0.1,0.1-0.2,0.1-0.2c0.1-0.2,0.2-0.4,0.3-0.6c0-0.1,0.1-0.2,0.1-0.3c0.1-0.2,0.1-0.4,0.2-0.6
				c0-0.1,0-0.3,0-0.4c0-0.2,0-0.3,0-0.5c0-0.2,0-0.4,0-0.5c0-0.1,0-0.3,0-0.4c0-0.2-0.1-0.4-0.2-0.6c0-0.1-0.1-0.2-0.1-0.3
				c-0.1-0.2-0.2-0.4-0.3-0.6c0-0.1-0.1-0.2-0.1-0.3c-0.1-0.2-0.3-0.4-0.5-0.6c-0.1-0.1-0.1-0.1-0.2-0.2l0,0L54.5,29.5
				c-2-2-5.2-2-7.1,0c-2,2-2,5.2,0,7.1l8.1,8.1H31.6v0c-2.6,0.1-4.8,2.3-4.8,5c0,2.7,2.1,4.9,4.8,5v0h23.9l-8.1,8.1
				c-2,2-2,5.2,0,7.1c2,2,5.2,2,7.1,0l16.7-16.7l0,0c0.1-0.1,0.1-0.1,0.2-0.2C71.6,52.9,71.7,52.7,71.9,52.5z"/>
			<path class="st2" d="M72.1,52.7c0.1-0.1,0.1-0.2,0.1-0.2c0.1-0.2,0.2-0.4,0.3-0.6c0-0.1,0.1-0.2,0.1-0.3c0.1-0.2,0.1-0.4,0.2-0.6
				c0-0.1,0-0.3,0-0.4c0-0.2,0-0.3,0-0.5c0-0.2,0-0.4,0-0.5c0-0.1,0-0.3,0-0.4c0-0.2-0.1-0.4-0.2-0.6c0-0.1-0.1-0.2-0.1-0.3
				c-0.1-0.2-0.2-0.4-0.3-0.6c0-0.1-0.1-0.2-0.1-0.3c-0.1-0.2-0.3-0.4-0.5-0.6c-0.1-0.1-0.1-0.1-0.2-0.2l0,0L54.8,29.7
				c-2-2-5.2-2-7.1,0c-2,2-2,5.2,0,7.1l8.1,8.1H31.8v0c-2.6,0.1-4.8,2.3-4.8,5c0,2.7,2.1,4.9,4.8,5v0h23.9l-8.1,8.1
				c-2,2-2,5.2,0,7.1c2,2,5.2,2,7.1,0l16.7-16.7l0,0c0.1-0.1,0.1-0.1,0.2-0.2C71.8,53.1,72,52.9,72.1,52.7z"/>
			<path class="st2" d="M72.4,53c0.1-0.1,0.1-0.2,0.1-0.2c0.1-0.2,0.2-0.4,0.3-0.6c0-0.1,0.1-0.2,0.1-0.3c0.1-0.2,0.1-0.4,0.2-0.6
				c0-0.1,0-0.3,0-0.4c0-0.2,0-0.3,0-0.5c0-0.2,0-0.4,0-0.5c0-0.1,0-0.3,0-0.4c0-0.2-0.1-0.4-0.2-0.6c0-0.1-0.1-0.2-0.1-0.3
				c-0.1-0.2-0.2-0.4-0.3-0.6c0-0.1-0.1-0.2-0.1-0.3c-0.1-0.2-0.3-0.4-0.5-0.6c-0.1-0.1-0.1-0.1-0.2-0.2l0,0L55,30c-2-2-5.2-2-7.1,0
				c-2,2-2,5.2,0,7.1l8.1,8.1H32.1v0c-2.6,0.1-4.8,2.3-4.8,5c0,2.7,2.1,4.9,4.8,5v0H56l-8.1,8.1c-2,2-2,5.2,0,7.1c2,2,5.2,2,7.1,0
				l16.7-16.7l0,0c0.1-0.1,0.1-0.1,0.2-0.2C72.1,53.4,72.2,53.2,72.4,53z"/>
			<path class="st2" d="M72.6,53.2c0.1-0.1,0.1-0.2,0.1-0.2c0.1-0.2,0.2-0.4,0.3-0.6c0-0.1,0.1-0.2,0.1-0.3c0.1-0.2,0.1-0.4,0.2-0.6
				c0-0.1,0-0.3,0-0.4c0-0.2,0-0.3,0-0.5c0-0.2,0-0.4,0-0.5c0-0.1,0-0.3,0-0.4c0-0.2-0.1-0.4-0.2-0.6c0-0.1-0.1-0.2-0.1-0.3
				c-0.1-0.2-0.2-0.4-0.3-0.6c0-0.1-0.1-0.2-0.1-0.3c-0.1-0.2-0.3-0.4-0.5-0.6C72.1,47.1,72.1,47,72,47l0,0L55.2,30.2
				c-2-2-5.2-2-7.1,0c-2,2-2,5.2,0,7.1l8.1,8.1H32.3v0c-2.6,0.1-4.8,2.3-4.8,5c0,2.7,2.1,4.9,4.8,5v0h23.9l-8.1,8.1
				c-2,2-2,5.2,0,7.1c2,2,5.2,2,7.1,0L72,54l0,0c0.1-0.1,0.1-0.1,0.2-0.2C72.3,53.6,72.5,53.4,72.6,53.2z"/>
			<path class="st2" d="M72.9,53.5c0.1-0.1,0.1-0.2,0.1-0.2c0.1-0.2,0.2-0.4,0.3-0.6c0-0.1,0.1-0.2,0.1-0.3c0.1-0.2,0.1-0.4,0.2-0.6
				c0-0.1,0-0.3,0-0.4c0-0.2,0-0.3,0-0.5c0-0.2,0-0.4,0-0.5c0-0.1,0-0.3,0-0.4c0-0.2-0.1-0.4-0.2-0.6c0-0.1-0.1-0.2-0.1-0.3
				c-0.1-0.2-0.2-0.4-0.3-0.6c0-0.1-0.1-0.2-0.1-0.3c-0.1-0.2-0.3-0.4-0.5-0.6c-0.1-0.1-0.1-0.1-0.2-0.2l0,0L55.5,30.5
				c-2-2-5.2-2-7.1,0c-2,2-2,5.2,0,7.1l8.1,8.1H32.5v0c-2.6,0.1-4.8,2.3-4.8,5c0,2.7,2.1,4.9,4.8,5v0h23.9l-8.1,8.1
				c-2,2-2,5.2,0,7.1c2,2,5.2,2,7.1,0l16.7-16.7l0,0c0.1-0.1,0.1-0.1,0.2-0.2C72.5,53.9,72.7,53.7,72.9,53.5z"/>
			<path class="st2" d="M73.1,53.7c0.1-0.1,0.1-0.2,0.1-0.2c0.1-0.2,0.2-0.4,0.3-0.6c0-0.1,0.1-0.2,0.1-0.3c0.1-0.2,0.1-0.4,0.2-0.6
				c0-0.1,0-0.3,0-0.4c0-0.2,0-0.3,0-0.5c0-0.2,0-0.4,0-0.5c0-0.1,0-0.3,0-0.4c0-0.2-0.1-0.4-0.2-0.6c0-0.1-0.1-0.2-0.1-0.3
				c-0.1-0.2-0.2-0.4-0.3-0.6c0-0.1-0.1-0.2-0.1-0.3c-0.1-0.2-0.3-0.4-0.5-0.6c-0.1-0.1-0.1-0.1-0.2-0.2l0,0L55.7,30.7
				c-2-2-5.2-2-7.1,0c-2,2-2,5.2,0,7.1l8.1,8.1H32.8v0c-2.6,0.1-4.8,2.3-4.8,5c0,2.7,2.1,4.9,4.8,5v0h23.9l-8.1,8.1
				c-2,2-2,5.2,0,7.1c2,2,5.2,2,7.1,0l16.7-16.7l0,0c0.1-0.1,0.1-0.1,0.2-0.2C72.8,54.1,73,53.9,73.1,53.7z"/>
			<path class="st2" d="M73.3,53.9c0.1-0.1,0.1-0.2,0.1-0.2c0.1-0.2,0.2-0.4,0.3-0.6c0-0.1,0.1-0.2,0.1-0.3c0.1-0.2,0.1-0.4,0.2-0.6
				c0-0.1,0-0.3,0-0.4c0-0.2,0-0.3,0-0.5c0-0.2,0-0.4,0-0.5c0-0.1,0-0.3,0-0.4c0-0.2-0.1-0.4-0.2-0.6c0-0.1-0.1-0.2-0.1-0.3
				c-0.1-0.2-0.2-0.4-0.3-0.6c0-0.1-0.1-0.2-0.1-0.3c-0.1-0.2-0.3-0.4-0.5-0.6c-0.1-0.1-0.1-0.1-0.2-0.2l0,0L56,30.9
				c-2-2-5.2-2-7.1,0c-2,2-2,5.2,0,7.1l8.1,8.1H33v0c-2.6,0.1-4.8,2.3-4.8,5c0,2.7,2.1,4.9,4.8,5v0H57l-8.1,8.1c-2,2-2,5.2,0,7.1
				c2,2,5.2,2,7.1,0l16.7-16.7l0,0c0.1-0.1,0.1-0.1,0.2-0.2C73,54.3,73.2,54.2,73.3,53.9z"/>
			<path class="st2" d="M73.6,54.2c0.1-0.1,0.1-0.2,0.1-0.2c0.1-0.2,0.2-0.4,0.3-0.6c0-0.1,0.1-0.2,0.1-0.3c0.1-0.2,0.1-0.4,0.2-0.6
				c0-0.1,0-0.3,0-0.4c0-0.2,0-0.3,0-0.5c0-0.2,0-0.4,0-0.5c0-0.1,0-0.3,0-0.4c0-0.2-0.1-0.4-0.2-0.6c0-0.1-0.1-0.2-0.1-0.3
				c-0.1-0.2-0.2-0.4-0.3-0.6c0-0.1-0.1-0.2-0.1-0.3c-0.1-0.2-0.3-0.4-0.5-0.6C73.1,48.1,73,48,73,47.9l0,0L56.2,31.2
				c-2-2-5.2-2-7.1,0c-2,2-2,5.2,0,7.1l8.1,8.1H33.3v0c-2.6,0.1-4.8,2.3-4.8,5c0,2.7,2.1,4.9,4.8,5v0h23.9l-8.1,8.1
				c-2,2-2,5.2,0,7.1c2,2,5.2,2,7.1,0L73,55l0,0c0.1-0.1,0.1-0.1,0.2-0.2C73.3,54.6,73.4,54.4,73.6,54.2z"/>
			<path class="st2" d="M73.8,54.4c0.1-0.1,0.1-0.2,0.1-0.2c0.1-0.2,0.2-0.4,0.3-0.6c0-0.1,0.1-0.2,0.1-0.3c0.1-0.2,0.1-0.4,0.2-0.6
				c0-0.1,0-0.3,0-0.4c0-0.2,0-0.3,0-0.5c0-0.2,0-0.4,0-0.5c0-0.1,0-0.3,0-0.4c0-0.2-0.1-0.4-0.2-0.6c0-0.1-0.1-0.2-0.1-0.3
				c-0.1-0.2-0.2-0.4-0.3-0.6c0-0.1-0.1-0.2-0.1-0.3c-0.1-0.2-0.3-0.4-0.5-0.6c-0.1-0.1-0.1-0.1-0.2-0.2l0,0L56.5,31.4
				c-2-2-5.2-2-7.1,0c-2,2-2,5.2,0,7.1l8.1,8.1H33.5v0c-2.6,0.1-4.8,2.3-4.8,5c0,2.7,2.1,4.9,4.8,5v0h23.9l-8.1,8.1
				c-2,2-2,5.2,0,7.1c2,2,5.2,2,7.1,0l16.7-16.7l0,0c0.1-0.1,0.1-0.1,0.2-0.2C73.5,54.8,73.7,54.6,73.8,54.4z"/>
			<path class="st2" d="M74.1,54.7c0.1-0.1,0.1-0.2,0.1-0.2c0.1-0.2,0.2-0.4,0.3-0.6c0-0.1,0.1-0.2,0.1-0.3c0.1-0.2,0.1-0.4,0.2-0.6
				c0-0.1,0-0.3,0-0.4c0-0.2,0-0.3,0-0.5c0-0.2,0-0.4,0-0.5c0-0.1,0-0.3,0-0.4c0-0.2-0.1-0.4-0.2-0.6c0-0.1-0.1-0.2-0.1-0.3
				c-0.1-0.2-0.2-0.4-0.3-0.6c0-0.1-0.1-0.2-0.1-0.3c-0.1-0.2-0.3-0.4-0.5-0.6c-0.1-0.1-0.1-0.1-0.2-0.2l0,0L56.7,31.7
				c-2-2-5.2-2-7.1,0c-2,2-2,5.2,0,7.1l8.1,8.1H33.8v0c-2.6,0.1-4.8,2.3-4.8,5c0,2.7,2.1,4.9,4.8,5v0h23.9l-8.1,8.1
				c-2,2-2,5.2,0,7.1c2,2,5.2,2,7.1,0l16.7-16.7l0,0c0.1-0.1,0.1-0.1,0.2-0.2C73.8,55.1,73.9,54.9,74.1,54.7z"/>
			<path class="st2" d="M74.3,54.9c0.1-0.1,0.1-0.2,0.1-0.2c0.1-0.2,0.2-0.4,0.3-0.6c0-0.1,0.1-0.2,0.1-0.3c0.1-0.2,0.1-0.4,0.2-0.6
				c0-0.1,0-0.3,0-0.4c0-0.2,0-0.3,0-0.5c0-0.2,0-0.4,0-0.5c0-0.1,0-0.3,0-0.4c0-0.2-0.1-0.4-0.2-0.6c0-0.1-0.1-0.2-0.1-0.3
				c-0.1-0.2-0.2-0.4-0.3-0.6c0-0.1-0.1-0.2-0.1-0.3c-0.1-0.2-0.3-0.4-0.5-0.6c-0.1-0.1-0.1-0.1-0.2-0.2l0,0L56.9,31.9
				c-2-2-5.2-2-7.1,0c-2,2-2,5.2,0,7.1l8.1,8.1H34v0c-2.6,0.1-4.8,2.3-4.8,5c0,2.7,2.1,4.9,4.8,5v0h23.9l-8.1,8.1c-2,2-2,5.2,0,7.1
				c2,2,5.2,2,7.1,0l16.7-16.7l0,0c0.1-0.1,0.1-0.1,0.2-0.2C74,55.3,74.2,55.1,74.3,54.9z"/>
			<path class="st2" d="M74.5,55.2c0.1-0.1,0.1-0.2,0.1-0.2c0.1-0.2,0.2-0.4,0.3-0.6c0-0.1,0.1-0.2,0.1-0.3c0.1-0.2,0.1-0.4,0.2-0.6
				c0-0.1,0-0.3,0-0.4c0-0.2,0-0.3,0-0.5c0-0.2,0-0.4,0-0.5c0-0.1,0-0.3,0-0.4c0-0.2-0.1-0.4-0.2-0.6c0-0.1-0.1-0.2-0.1-0.3
				c-0.1-0.2-0.2-0.4-0.3-0.6c0-0.1-0.1-0.2-0.1-0.3c-0.1-0.2-0.3-0.4-0.5-0.6C74,49,74,49,73.9,48.9l0,0L57.2,32.2
				c-2-2-5.2-2-7.1,0c-2,2-2,5.2,0,7.1l8.1,8.1H34.2v0c-2.6,0.1-4.8,2.3-4.8,5c0,2.7,2.1,4.9,4.8,5v0h23.9l-8.1,8.1
				c-2,2-2,5.2,0,7.1c2,2,5.2,2,7.1,0l16.7-16.7l0,0c0.1-0.1,0.1-0.1,0.2-0.2C74.2,55.6,74.4,55.4,74.5,55.2z"/>
			<path class="st2" d="M74.8,55.4c0.1-0.1,0.1-0.2,0.1-0.2c0.1-0.2,0.2-0.4,0.3-0.6c0-0.1,0.1-0.2,0.1-0.3c0.1-0.2,0.1-0.4,0.2-0.6
				c0-0.1,0-0.3,0-0.4c0-0.2,0-0.3,0-0.5c0-0.2,0-0.4,0-0.5c0-0.1,0-0.3,0-0.4c0-0.2-0.1-0.4-0.2-0.6c0-0.1-0.1-0.2-0.1-0.3
				c-0.1-0.2-0.2-0.4-0.3-0.6c0-0.1-0.1-0.2-0.1-0.3c-0.1-0.2-0.3-0.4-0.5-0.6c-0.1-0.1-0.1-0.1-0.2-0.2l0,0L57.4,32.4
				c-2-2-5.2-2-7.1,0c-2,2-2,5.2,0,7.1l8.1,8.1H34.5v0c-2.6,0.1-4.8,2.3-4.8,5c0,2.7,2.1,4.9,4.8,5v0h23.9l-8.1,8.1
				c-2,2-2,5.2,0,7.1c2,2,5.2,2,7.1,0l16.7-16.7l0,0c0.1-0.1,0.1-0.1,0.2-0.2C74.5,55.8,74.7,55.6,74.8,55.4z"/>
			<path class="st2" d="M75,55.6c0.1-0.1,0.1-0.2,0.1-0.2c0.1-0.2,0.2-0.4,0.3-0.6c0-0.1,0.1-0.2,0.1-0.3c0.1-0.2,0.1-0.4,0.2-0.6
				c0-0.1,0-0.3,0-0.4c0-0.2,0-0.3,0-0.5c0-0.2,0-0.4,0-0.5c0-0.1,0-0.3,0-0.4c0-0.2-0.1-0.4-0.2-0.6c0-0.1-0.1-0.2-0.1-0.3
				c-0.1-0.2-0.2-0.4-0.3-0.6c0-0.1-0.1-0.2-0.1-0.3c-0.1-0.2-0.3-0.4-0.5-0.6c-0.1-0.1-0.1-0.1-0.2-0.2l0,0L57.7,32.6
				c-2-2-5.2-2-7.1,0c-2,2-2,5.2,0,7.1l8.1,8.1H34.7v0c-2.6,0.1-4.8,2.3-4.8,5c0,2.7,2.1,4.9,4.8,5v0h23.9l-8.1,8.1
				c-2,2-2,5.2,0,7.1c2,2,5.2,2,7.1,0l16.7-16.7l0,0c0.1-0.1,0.1-0.1,0.2-0.2C74.7,56,74.9,55.9,75,55.6z"/>
			<path class="st2" d="M75.3,55.9c0.1-0.1,0.1-0.2,0.1-0.2c0.1-0.2,0.2-0.4,0.3-0.6c0-0.1,0.1-0.2,0.1-0.3c0.1-0.2,0.1-0.4,0.2-0.6
				c0-0.1,0-0.3,0-0.4c0-0.2,0-0.3,0-0.5c0-0.2,0-0.4,0-0.5c0-0.1,0-0.3,0-0.4c0-0.2-0.1-0.4-0.2-0.6c0-0.1-0.1-0.2-0.1-0.3
				c-0.1-0.2-0.2-0.4-0.3-0.6c0-0.1-0.1-0.2-0.1-0.3c-0.1-0.2-0.3-0.4-0.5-0.6c-0.1-0.1-0.1-0.1-0.2-0.2l0,0L57.9,32.9
				c-2-2-5.2-2-7.1,0c-2,2-2,5.2,0,7.1l8.1,8.1H35v0c-2.6,0.1-4.8,2.3-4.8,5c0,2.7,2.1,4.9,4.8,5v0h23.9l-8.1,8.1c-2,2-2,5.2,0,7.1
				c2,2,5.2,2,7.1,0l16.7-16.7l0,0c0.1-0.1,0.1-0.1,0.2-0.2C75,56.3,75.1,56.1,75.3,55.9z"/>
			<path class="st2" d="M75.5,56.1c0.1-0.1,0.1-0.2,0.1-0.2c0.1-0.2,0.2-0.4,0.3-0.6c0-0.1,0.1-0.2,0.1-0.3c0.1-0.2,0.1-0.4,0.2-0.6
				c0-0.1,0-0.3,0-0.4c0-0.2,0-0.3,0-0.5c0-0.2,0-0.4,0-0.5c0-0.1,0-0.3,0-0.4c0-0.2-0.1-0.4-0.2-0.6c0-0.1-0.1-0.2-0.1-0.3
				c-0.1-0.2-0.2-0.4-0.3-0.6c0-0.1-0.1-0.2-0.1-0.3c-0.1-0.2-0.3-0.4-0.5-0.6C75,50,75,49.9,74.9,49.9l0,0L58.1,33.1
				c-2-2-5.2-2-7.1,0c-2,2-2,5.2,0,7.1l8.1,8.1H35.2v0c-2.6,0.1-4.8,2.3-4.8,5c0,2.7,2.1,4.9,4.8,5v0h23.9L51,66.5c-2,2-2,5.2,0,7.1
				c2,2,5.2,2,7.1,0l16.7-16.7l0,0c0.1-0.1,0.1-0.1,0.2-0.2C75.2,56.5,75.4,56.3,75.5,56.1z"/>
			<path class="st2" d="M75.8,56.4c0.1-0.1,0.1-0.2,0.1-0.2c0.1-0.2,0.2-0.4,0.3-0.6c0-0.1,0.1-0.2,0.1-0.3c0.1-0.2,0.1-0.4,0.2-0.6
				c0-0.1,0-0.3,0-0.4c0-0.2,0-0.3,0-0.5c0-0.2,0-0.4,0-0.5c0-0.1,0-0.3,0-0.4c0-0.2-0.1-0.4-0.2-0.6c0-0.1-0.1-0.2-0.1-0.3
				c-0.1-0.2-0.2-0.4-0.3-0.6c0-0.1-0.1-0.2-0.1-0.3c-0.1-0.2-0.3-0.4-0.5-0.6c-0.1-0.1-0.1-0.1-0.2-0.2l0,0L58.4,33.4
				c-2-2-5.2-2-7.1,0c-2,2-2,5.2,0,7.1l8.1,8.1H35.4v0c-2.6,0.1-4.8,2.3-4.8,5c0,2.7,2.1,4.9,4.8,5v0h23.9l-8.1,8.1
				c-2,2-2,5.2,0,7.1c2,2,5.2,2,7.1,0l16.7-16.7l0,0c0.1-0.1,0.1-0.1,0.2-0.2C75.5,56.8,75.6,56.6,75.8,56.4z"/>
			<path class="st2" d="M76,56.6c0.1-0.1,0.1-0.2,0.1-0.2c0.1-0.2,0.2-0.4,0.3-0.6c0-0.1,0.1-0.2,0.1-0.3c0.1-0.2,0.1-0.4,0.2-0.6
				c0-0.1,0-0.3,0-0.4c0-0.2,0-0.3,0-0.5c0-0.2,0-0.4,0-0.5c0-0.1,0-0.3,0-0.4c0-0.2-0.1-0.4-0.2-0.6c0-0.1-0.1-0.2-0.1-0.3
				c-0.1-0.2-0.2-0.4-0.3-0.6c0-0.1-0.1-0.2-0.1-0.3c-0.1-0.2-0.3-0.4-0.5-0.6c-0.1-0.1-0.1-0.1-0.2-0.2l0,0L58.6,33.6
				c-2-2-5.2-2-7.1,0c-2,2-2,5.2,0,7.1l8.1,8.1H35.7v0c-2.6,0.1-4.8,2.3-4.8,5c0,2.7,2.1,4.9,4.8,5v0h23.9L51.5,67c-2,2-2,5.2,0,7.1
				c2,2,5.2,2,7.1,0l16.7-16.7l0,0c0.1-0.1,0.1-0.1,0.2-0.2C75.7,57,75.9,56.8,76,56.6z"/>
			<path class="st2" d="M76.2,56.9c0.1-0.1,0.1-0.2,0.1-0.2c0.1-0.2,0.2-0.4,0.3-0.6c0-0.1,0.1-0.2,0.1-0.3c0.1-0.2,0.1-0.4,0.2-0.6
				c0-0.1,0-0.3,0-0.4c0-0.2,0-0.3,0-0.5c0-0.2,0-0.4,0-0.5c0-0.1,0-0.3,0-0.4c0-0.2-0.1-0.4-0.2-0.6c0-0.1-0.1-0.2-0.1-0.3
				c-0.1-0.2-0.2-0.4-0.3-0.6c0-0.1-0.1-0.2-0.1-0.3c-0.1-0.2-0.3-0.4-0.5-0.6c-0.1-0.1-0.1-0.1-0.2-0.2l0,0L58.9,33.9
				c-2-2-5.2-2-7.1,0c-2,2-2,5.2,0,7.1l8.1,8.1H35.9v0c-2.6,0.1-4.8,2.3-4.8,5c0,2.7,2.1,4.9,4.8,5v0h23.9l-8.1,8.1
				c-2,2-2,5.2,0,7.1c2,2,5.2,2,7.1,0l16.7-16.7l0,0c0.1-0.1,0.1-0.1,0.2-0.2C75.9,57.3,76.1,57.1,76.2,56.9z"/>
			<path class="st2" d="M76.5,57.1c0.1-0.1,0.1-0.2,0.1-0.2c0.1-0.2,0.2-0.4,0.3-0.6c0-0.1,0.1-0.2,0.1-0.3c0.1-0.2,0.1-0.4,0.2-0.6
				c0-0.1,0-0.3,0-0.4c0-0.2,0-0.3,0-0.5c0-0.2,0-0.4,0-0.5c0-0.1,0-0.3,0-0.4c0-0.2-0.1-0.4-0.2-0.6c0-0.1-0.1-0.2-0.1-0.3
				c-0.1-0.2-0.2-0.4-0.3-0.6c0-0.1-0.1-0.2-0.1-0.3c-0.1-0.2-0.3-0.4-0.5-0.6c-0.1-0.1-0.1-0.1-0.2-0.2l0,0L59.1,34.1
				c-2-2-5.2-2-7.1,0c-2,2-2,5.2,0,7.1l8.1,8.1H36.2v0c-2.6,0.1-4.8,2.3-4.8,5c0,2.7,2.1,4.9,4.8,5v0h23.9L52,67.5c-2,2-2,5.2,0,7.1
				c2,2,5.2,2,7.1,0l16.7-16.7l0,0c0.1-0.1,0.1-0.1,0.2-0.2C76.2,57.5,76.4,57.3,76.5,57.1z"/>
			<path class="st2" d="M76.7,57.3c0.1-0.1,0.1-0.2,0.1-0.2c0.1-0.2,0.2-0.4,0.3-0.6c0-0.1,0.1-0.2,0.1-0.3c0.1-0.2,0.1-0.4,0.2-0.6
				c0-0.1,0-0.3,0-0.4c0-0.2,0-0.3,0-0.5c0-0.2,0-0.4,0-0.5c0-0.1,0-0.3,0-0.4c0-0.2-0.1-0.4-0.2-0.6c0-0.1-0.1-0.2-0.1-0.3
				c-0.1-0.2-0.2-0.4-0.3-0.6c0-0.1-0.1-0.2-0.1-0.3c-0.1-0.2-0.3-0.4-0.5-0.6c-0.1-0.1-0.1-0.1-0.2-0.2l0,0L59.4,34.3
				c-2-2-5.2-2-7.1,0c-2,2-2,5.2,0,7.1l8.1,8.1H36.4v0c-2.6,0.1-4.8,2.3-4.8,5c0,2.7,2.1,4.9,4.8,5v0h23.9l-8.1,8.1
				c-2,2-2,5.2,0,7.1c2,2,5.2,2,7.1,0l16.7-16.7l0,0c0.1-0.1,0.1-0.1,0.2-0.2C76.4,57.7,76.6,57.5,76.7,57.3z"/>
			<path class="st2" d="M77,57.6c0.1-0.1,0.1-0.2,0.1-0.2c0.1-0.2,0.2-0.4,0.3-0.6c0-0.1,0.1-0.2,0.1-0.3c0.1-0.2,0.1-0.4,0.2-0.6
				c0-0.1,0-0.3,0-0.4c0-0.2,0-0.3,0-0.5c0-0.2,0-0.4,0-0.5c0-0.1,0-0.3,0-0.4c0-0.2-0.1-0.4-0.2-0.6c0-0.1-0.1-0.2-0.1-0.3
				c-0.1-0.2-0.2-0.4-0.3-0.6c0-0.1-0.1-0.2-0.1-0.3c-0.1-0.2-0.3-0.4-0.5-0.6c-0.1-0.1-0.1-0.1-0.2-0.2l0,0L59.6,34.6
				c-2-2-5.2-2-7.1,0c-2,2-2,5.2,0,7.1l8.1,8.1H36.7v0c-2.6,0.1-4.8,2.3-4.8,5c0,2.7,2.1,4.9,4.8,5v0h23.9L52.5,68c-2,2-2,5.2,0,7.1
				c2,2,5.2,2,7.1,0l16.7-16.7l0,0c0.1-0.1,0.1-0.1,0.2-0.2C76.7,58,76.8,57.8,77,57.6z"/>
			<path class="st2" d="M77.2,57.8c0.1-0.1,0.1-0.2,0.1-0.2c0.1-0.2,0.2-0.4,0.3-0.6c0-0.1,0.1-0.2,0.1-0.3c0.1-0.2,0.1-0.4,0.2-0.6
				c0-0.1,0-0.3,0-0.4c0-0.2,0-0.3,0-0.5c0-0.2,0-0.4,0-0.5c0-0.1,0-0.3,0-0.4c0-0.2-0.1-0.4-0.2-0.6c0-0.1-0.1-0.2-0.1-0.3
				c-0.1-0.2-0.2-0.4-0.3-0.6c0-0.1-0.1-0.2-0.1-0.3c-0.1-0.2-0.3-0.4-0.5-0.6c-0.1-0.1-0.1-0.1-0.2-0.2l0,0L59.8,34.8
				c-2-2-5.2-2-7.1,0c-2,2-2,5.2,0,7.1l8.1,8.1H36.9v0c-2.6,0.1-4.8,2.3-4.8,5c0,2.7,2.1,4.9,4.8,5v0h23.9l-8.1,8.1
				c-2,2-2,5.2,0,7.1c2,2,5.2,2,7.1,0l16.7-16.7l0,0c0.1-0.1,0.1-0.1,0.2-0.2C76.9,58.2,77.1,58,77.2,57.8z"/>
			<path class="st2" d="M77.5,58.1c0.1-0.1,0.1-0.2,0.1-0.2c0.1-0.2,0.2-0.4,0.3-0.6c0-0.1,0.1-0.2,0.1-0.3c0.1-0.2,0.1-0.4,0.2-0.6
				c0-0.1,0-0.3,0-0.4c0-0.2,0-0.3,0-0.5c0-0.2,0-0.4,0-0.5c0-0.1,0-0.3,0-0.4c0-0.2-0.1-0.4-0.2-0.6c0-0.1-0.1-0.2-0.1-0.3
				c-0.1-0.2-0.2-0.4-0.3-0.6c0-0.1-0.1-0.2-0.1-0.3c-0.1-0.2-0.3-0.4-0.5-0.6c-0.1-0.1-0.1-0.1-0.2-0.2l0,0L60.1,35.1
				c-2-2-5.2-2-7.1,0c-2,2-2,5.2,0,7.1l8.1,8.1H37.1v0c-2.6,0.1-4.8,2.3-4.8,5c0,2.7,2.1,4.9,4.8,5v0h23.9L53,68.5c-2,2-2,5.2,0,7.1
				c2,2,5.2,2,7.1,0l16.7-16.7l0,0c0.1-0.1,0.1-0.1,0.2-0.2C77.2,58.5,77.3,58.3,77.5,58.1z"/>
			<path class="st2" d="M77.7,58.3c0.1-0.1,0.1-0.2,0.1-0.2c0.1-0.2,0.2-0.4,0.3-0.6c0-0.1,0.1-0.2,0.1-0.3c0.1-0.2,0.1-0.4,0.2-0.6
				c0-0.1,0-0.3,0-0.4c0-0.2,0-0.3,0-0.5c0-0.2,0-0.4,0-0.5c0-0.1,0-0.3,0-0.4c0-0.2-0.1-0.4-0.2-0.6c0-0.1-0.1-0.2-0.1-0.3
				c-0.1-0.2-0.2-0.4-0.3-0.6c0-0.1-0.1-0.2-0.1-0.3c-0.1-0.2-0.3-0.4-0.5-0.6c-0.1-0.1-0.1-0.1-0.2-0.2l0,0L60.3,35.3
				c-2-2-5.2-2-7.1,0c-2,2-2,5.2,0,7.1l8.1,8.1H37.4v0c-2.6,0.1-4.8,2.3-4.8,5c0,2.7,2.1,4.9,4.8,5v0h23.9l-8.1,8.1
				c-2,2-2,5.2,0,7.1c2,2,5.2,2,7.1,0l16.7-16.7l0,0c0.1-0.1,0.1-0.1,0.2-0.2C77.4,58.7,77.6,58.5,77.7,58.3z"/>
			<path class="st2" d="M77.9,58.6c0.1-0.1,0.1-0.2,0.1-0.2c0.1-0.2,0.2-0.4,0.3-0.6c0-0.1,0.1-0.2,0.1-0.3c0.1-0.2,0.1-0.4,0.2-0.6
				c0-0.1,0-0.3,0-0.4c0-0.2,0-0.3,0-0.5c0-0.2,0-0.4,0-0.5c0-0.1,0-0.3,0-0.4c0-0.2-0.1-0.4-0.2-0.6c0-0.1-0.1-0.2-0.1-0.3
				c-0.1-0.2-0.2-0.4-0.3-0.6c0-0.1-0.1-0.2-0.1-0.3c-0.1-0.2-0.3-0.4-0.5-0.6c-0.1-0.1-0.1-0.1-0.2-0.2l0,0L60.6,35.5
				c-2-2-5.2-2-7.1,0c-2,2-2,5.2,0,7.1l8.1,8.1H37.6v0c-2.6,0.1-4.8,2.3-4.8,5c0,2.7,2.1,4.9,4.8,5v0h23.9L53.5,69c-2,2-2,5.2,0,7.1
				c2,2,5.2,2,7.1,0l16.7-16.7l0,0c0.1-0.1,0.1-0.1,0.2-0.2C77.6,58.9,77.8,58.8,77.9,58.6z"/>
			<path class="st2" d="M78.2,58.8c0.1-0.1,0.1-0.2,0.1-0.2c0.1-0.2,0.2-0.4,0.3-0.6c0-0.1,0.1-0.2,0.1-0.3c0.1-0.2,0.1-0.4,0.2-0.6
				c0-0.1,0-0.3,0-0.4c0-0.2,0-0.3,0-0.5c0-0.2,0-0.4,0-0.5c0-0.1,0-0.3,0-0.4c0-0.2-0.1-0.4-0.2-0.6c0-0.1-0.1-0.2-0.1-0.3
				c-0.1-0.2-0.2-0.4-0.3-0.6c0-0.1-0.1-0.2-0.1-0.3c-0.1-0.2-0.3-0.4-0.5-0.6c-0.1-0.1-0.1-0.1-0.2-0.2l0,0L60.8,35.8
				c-2-2-5.2-2-7.1,0c-2,2-2,5.2,0,7.1l8.1,8.1H37.9v0c-2.6,0.1-4.8,2.3-4.8,5c0,2.7,2.1,4.9,4.8,5v0h23.9l-8.1,8.1
				c-2,2-2,5.2,0,7.1c2,2,5.2,2,7.1,0l16.7-16.7l0,0c0.1-0.1,0.1-0.1,0.2-0.2C77.9,59.2,78,59,78.2,58.8z"/>
			<path class="st2" d="M78.4,59c0.1-0.1,0.1-0.2,0.1-0.2c0.1-0.2,0.2-0.4,0.3-0.6c0-0.1,0.1-0.2,0.1-0.3c0.1-0.2,0.1-0.4,0.2-0.6
				c0-0.1,0-0.3,0-0.4c0-0.2,0-0.3,0-0.5c0-0.2,0-0.4,0-0.5c0-0.1,0-0.3,0-0.4c0-0.2-0.1-0.4-0.2-0.6c0-0.1-0.1-0.2-0.1-0.3
				c-0.1-0.2-0.2-0.4-0.3-0.6c0-0.1-0.1-0.2-0.1-0.3c-0.1-0.2-0.3-0.4-0.5-0.6c-0.1-0.1-0.1-0.1-0.2-0.2l0,0L61.1,36
				c-2-2-5.2-2-7.1,0c-2,2-2,5.2,0,7.1l8.1,8.1H38.1v0c-2.6,0.1-4.8,2.3-4.8,5c0,2.7,2.1,4.9,4.8,5v0h23.9l-8.1,8.1
				c-2,2-2,5.2,0,7.1c2,2,5.2,2,7.1,0l16.7-16.7l0,0c0.1-0.1,0.1-0.1,0.2-0.2C78.1,59.4,78.3,59.2,78.4,59z"/>
			<path class="st2" d="M78.7,59.3c0.1-0.1,0.1-0.2,0.1-0.2c0.1-0.2,0.2-0.4,0.3-0.6c0-0.1,0.1-0.2,0.1-0.3c0.1-0.2,0.1-0.4,0.2-0.6
				c0-0.1,0-0.3,0-0.4c0-0.2,0-0.3,0-0.5c0-0.2,0-0.4,0-0.5c0-0.1,0-0.3,0-0.4c0-0.2-0.1-0.4-0.2-0.6c0-0.1-0.1-0.2-0.1-0.3
				c-0.1-0.2-0.2-0.4-0.3-0.6c0-0.1-0.1-0.2-0.1-0.3c-0.1-0.2-0.3-0.4-0.5-0.6c-0.1-0.1-0.1-0.1-0.2-0.2l0,0L61.3,36.3
				c-2-2-5.2-2-7.1,0c-2,2-2,5.2,0,7.1l8.1,8.1H38.4v0c-2.6,0.1-4.8,2.3-4.8,5c0,2.7,2.1,4.9,4.8,5v0h23.9l-8.1,8.1
				c-2,2-2,5.2,0,7.1c2,2,5.2,2,7.1,0L78,60.1l0,0c0.1-0.1,0.1-0.1,0.2-0.2C78.4,59.7,78.5,59.5,78.7,59.3z"/>
			<path class="st2" d="M78.9,59.5c0.1-0.1,0.1-0.2,0.1-0.2c0.1-0.2,0.2-0.4,0.3-0.6c0-0.1,0.1-0.2,0.1-0.3c0.1-0.2,0.1-0.4,0.2-0.6
				c0-0.1,0-0.3,0-0.4c0-0.2,0-0.3,0-0.5c0-0.2,0-0.4,0-0.5c0-0.1,0-0.3,0-0.4c0-0.2-0.1-0.4-0.2-0.6c0-0.1-0.1-0.2-0.1-0.3
				c-0.1-0.2-0.2-0.4-0.3-0.6c0-0.1-0.1-0.2-0.1-0.3c-0.1-0.2-0.3-0.4-0.5-0.6c-0.1-0.1-0.1-0.1-0.2-0.2l0,0L61.5,36.5
				c-2-2-5.2-2-7.1,0c-2,2-2,5.2,0,7.1l8.1,8.1H38.6v0c-2.6,0.1-4.8,2.3-4.8,5c0,2.7,2.1,4.9,4.8,5v0h23.9l-8.1,8.1
				c-2,2-2,5.2,0,7.1c2,2,5.2,2,7.1,0l16.7-16.7l0,0c0.1-0.1,0.1-0.1,0.2-0.2C78.6,59.9,78.8,59.7,78.9,59.5z"/>
			<path class="st2" d="M79.2,59.8c0.1-0.1,0.1-0.2,0.1-0.2c0.1-0.2,0.2-0.4,0.3-0.6c0-0.1,0.1-0.2,0.1-0.3c0.1-0.2,0.1-0.4,0.2-0.6
				c0-0.1,0-0.3,0-0.4c0-0.2,0-0.3,0-0.5c0-0.2,0-0.4,0-0.5c0-0.1,0-0.3,0-0.4c0-0.2-0.1-0.4-0.2-0.6c0-0.1-0.1-0.2-0.1-0.3
				c-0.1-0.2-0.2-0.4-0.3-0.6c0-0.1-0.1-0.2-0.1-0.3c-0.1-0.2-0.3-0.4-0.5-0.6c-0.1-0.1-0.1-0.1-0.2-0.2l0,0L61.8,36.8
				c-2-2-5.2-2-7.1,0c-2,2-2,5.2,0,7.1l8.1,8.1H38.8v0c-2.6,0.1-4.8,2.3-4.8,5c0,2.7,2.1,4.9,4.8,5v0h23.9l-8.1,8.1
				c-2,2-2,5.2,0,7.1c2,2,5.2,2,7.1,0l16.7-16.7l0,0c0.1-0.1,0.1-0.1,0.2-0.2C78.8,60.2,79,60,79.2,59.8z"/>
			<path class="st2" d="M79.4,60c0.1-0.1,0.1-0.2,0.1-0.2c0.1-0.2,0.2-0.4,0.3-0.6c0-0.1,0.1-0.2,0.1-0.3c0.1-0.2,0.1-0.4,0.2-0.6
				c0-0.1,0-0.3,0-0.4c0-0.2,0-0.3,0-0.5c0-0.2,0-0.4,0-0.5c0-0.1,0-0.3,0-0.4c0-0.2-0.1-0.4-0.2-0.6c0-0.1-0.1-0.2-0.1-0.3
				c-0.1-0.2-0.2-0.4-0.3-0.6c0-0.1-0.1-0.2-0.1-0.3c-0.1-0.2-0.3-0.4-0.5-0.6c-0.1-0.1-0.1-0.1-0.2-0.2l0,0L62,37c-2-2-5.2-2-7.1,0
				c-2,2-2,5.2,0,7.1l8.1,8.1H39.1v0c-2.6,0.1-4.8,2.3-4.8,5c0,2.7,2.1,4.9,4.8,5v0H63l-8.1,8.1c-2,2-2,5.2,0,7.1c2,2,5.2,2,7.1,0
				l16.7-16.7l0,0c0.1-0.1,0.1-0.1,0.2-0.2C79.1,60.4,79.3,60.2,79.4,60z"/>
			<path class="st2" d="M79.6,60.2c0.1-0.1,0.1-0.2,0.1-0.2c0.1-0.2,0.2-0.4,0.3-0.6c0-0.1,0.1-0.2,0.1-0.3c0.1-0.2,0.1-0.4,0.2-0.6
				c0-0.1,0-0.3,0-0.4c0-0.2,0-0.3,0-0.5c0-0.2,0-0.4,0-0.5c0-0.1,0-0.3,0-0.4c0-0.2-0.1-0.4-0.2-0.6c0-0.1-0.1-0.2-0.1-0.3
				c-0.1-0.2-0.2-0.4-0.3-0.6c0-0.1-0.1-0.2-0.1-0.3c-0.1-0.2-0.3-0.4-0.5-0.6c-0.1-0.1-0.1-0.1-0.2-0.2l0,0L62.3,37.2
				c-2-2-5.2-2-7.1,0c-2,2-2,5.2,0,7.1l8.1,8.1H39.3v0c-2.6,0.1-4.8,2.3-4.8,5c0,2.7,2.1,4.9,4.8,5v0h23.9l-8.1,8.1
				c-2,2-2,5.2,0,7.1c2,2,5.2,2,7.1,0L79,61l0,0c0.1-0.1,0.1-0.1,0.2-0.2C79.3,60.6,79.5,60.5,79.6,60.2z"/>
			<path class="st2" d="M79.9,60.5c0.1-0.1,0.1-0.2,0.1-0.2c0.1-0.2,0.2-0.4,0.3-0.6c0-0.1,0.1-0.2,0.1-0.3c0.1-0.2,0.1-0.4,0.2-0.6
				c0-0.1,0-0.3,0-0.4c0-0.2,0-0.3,0-0.5c0-0.2,0-0.4,0-0.5c0-0.1,0-0.3,0-0.4c0-0.2-0.1-0.4-0.2-0.6c0-0.1-0.1-0.2-0.1-0.3
				c-0.1-0.2-0.2-0.4-0.3-0.6c0-0.1-0.1-0.2-0.1-0.3c-0.1-0.2-0.3-0.4-0.5-0.6c-0.1-0.1-0.1-0.1-0.2-0.2l0,0L62.5,37.5
				c-2-2-5.2-2-7.1,0c-2,2-2,5.2,0,7.1l8.1,8.1H39.6v0c-2.6,0.1-4.8,2.3-4.8,5c0,2.7,2.1,4.9,4.8,5v0h23.9l-8.1,8.1
				c-2,2-2,5.2,0,7.1c2,2,5.2,2,7.1,0l16.7-16.7l0,0c0.1-0.1,0.1-0.1,0.2-0.2C79.6,60.9,79.7,60.7,79.9,60.5z"/>
			<path class="st2" d="M80.1,60.7c0.1-0.1,0.1-0.2,0.1-0.2c0.1-0.2,0.2-0.4,0.3-0.6c0-0.1,0.1-0.2,0.1-0.3c0.1-0.2,0.1-0.4,0.2-0.6
				c0-0.1,0-0.3,0-0.4c0-0.2,0-0.3,0-0.5c0-0.2,0-0.4,0-0.5c0-0.1,0-0.3,0-0.4c0-0.2-0.1-0.4-0.2-0.6c0-0.1-0.1-0.2-0.1-0.3
				c-0.1-0.2-0.2-0.4-0.3-0.6c0-0.1-0.1-0.2-0.1-0.3c-0.1-0.2-0.3-0.4-0.5-0.6c-0.1-0.1-0.1-0.1-0.2-0.2l0,0L62.8,37.7
				c-2-2-5.2-2-7.1,0c-2,2-2,5.2,0,7.1l8.1,8.1H39.8v0c-2.6,0.1-4.8,2.3-4.8,5c0,2.7,2.1,4.9,4.8,5v0h23.9l-8.1,8.1
				c-2,2-2,5.2,0,7.1c2,2,5.2,2,7.1,0l16.7-16.7l0,0c0.1-0.1,0.1-0.1,0.2-0.2C79.8,61.1,80,60.9,80.1,60.7z"/>
			<path class="st2" d="M80.4,61c0.1-0.1,0.1-0.2,0.1-0.2c0.1-0.2,0.2-0.4,0.3-0.6c0-0.1,0.1-0.2,0.1-0.3c0.1-0.2,0.1-0.4,0.2-0.6
				c0-0.1,0-0.3,0-0.4c0-0.2,0-0.3,0-0.5c0-0.2,0-0.4,0-0.5c0-0.1,0-0.3,0-0.4c0-0.2-0.1-0.4-0.2-0.6c0-0.1-0.1-0.2-0.1-0.3
				c-0.1-0.2-0.2-0.4-0.3-0.6c0-0.1-0.1-0.2-0.1-0.3c-0.1-0.2-0.3-0.4-0.5-0.6c-0.1-0.1-0.1-0.1-0.2-0.2l0,0L63,38c-2-2-5.2-2-7.1,0
				c-2,2-2,5.2,0,7.1l8.1,8.1H40.1v0c-2.6,0.1-4.8,2.3-4.8,5c0,2.7,2.1,4.9,4.8,5v0H64l-8.1,8.1c-2,2-2,5.2,0,7.1c2,2,5.2,2,7.1,0
				l16.7-16.7l0,0c0.1-0.1,0.1-0.1,0.2-0.2C80.1,61.4,80.2,61.2,80.4,61z"/>
			<path class="st2" d="M80.6,61.2c0.1-0.1,0.1-0.2,0.1-0.2c0.1-0.2,0.2-0.4,0.3-0.6c0-0.1,0.1-0.2,0.1-0.3c0.1-0.2,0.1-0.4,0.2-0.6
				c0-0.1,0-0.3,0-0.4c0-0.2,0-0.3,0-0.5c0-0.2,0-0.4,0-0.5c0-0.1,0-0.3,0-0.4c0-0.2-0.1-0.4-0.2-0.6c0-0.1-0.1-0.2-0.1-0.3
				c-0.1-0.2-0.2-0.4-0.3-0.6c0-0.1-0.1-0.2-0.1-0.3c-0.1-0.2-0.3-0.4-0.5-0.6C80.1,55.1,80,55,80,55l0,0L63.2,38.2
				c-2-2-5.2-2-7.1,0c-2,2-2,5.2,0,7.1l8.1,8.1H40.3v0c-2.6,0.1-4.8,2.3-4.8,5c0,2.7,2.1,4.9,4.8,5v0h23.9l-8.1,8.1
				c-2,2-2,5.2,0,7.1c2,2,5.2,2,7.1,0L80,62l0,0c0.1-0.1,0.1-0.1,0.2-0.2C80.3,61.6,80.5,61.4,80.6,61.2z"/>
			<path class="st2" d="M80.8,61.5c0.1-0.1,0.1-0.2,0.1-0.2c0.1-0.2,0.2-0.4,0.3-0.6c0-0.1,0.1-0.2,0.1-0.3c0.1-0.2,0.1-0.4,0.2-0.6
				c0-0.1,0-0.3,0-0.4c0-0.2,0-0.3,0-0.5c0-0.2,0-0.4,0-0.5c0-0.1,0-0.3,0-0.4c0-0.2-0.1-0.4-0.2-0.6c0-0.1-0.1-0.2-0.1-0.3
				c-0.1-0.2-0.2-0.4-0.3-0.6c0-0.1-0.1-0.2-0.1-0.3c-0.1-0.2-0.3-0.4-0.5-0.6c-0.1-0.1-0.1-0.1-0.2-0.2l0,0L63.5,38.5
				c-2-2-5.2-2-7.1,0c-2,2-2,5.2,0,7.1l8.1,8.1H40.5v0c-2.6,0.1-4.8,2.3-4.8,5c0,2.7,2.1,4.9,4.8,5v0h23.9l-8.1,8.1
				c-2,2-2,5.2,0,7.1c2,2,5.2,2,7.1,0l16.7-16.7l0,0c0.1-0.1,0.1-0.1,0.2-0.2C80.5,61.9,80.7,61.7,80.8,61.5z"/>
			<path class="st2" d="M81.1,61.7c0.1-0.1,0.1-0.2,0.1-0.2c0.1-0.2,0.2-0.4,0.3-0.6c0-0.1,0.1-0.2,0.1-0.3c0.1-0.2,0.1-0.4,0.2-0.6
				c0-0.1,0-0.3,0-0.4c0-0.2,0-0.3,0-0.5c0-0.2,0-0.4,0-0.5c0-0.1,0-0.3,0-0.4c0-0.2-0.1-0.4-0.2-0.6c0-0.1-0.1-0.2-0.1-0.3
				c-0.1-0.2-0.2-0.4-0.3-0.6c0-0.1-0.1-0.2-0.1-0.3c-0.1-0.2-0.3-0.4-0.5-0.6c-0.1-0.1-0.1-0.1-0.2-0.2l0,0L63.7,38.7
				c-2-2-5.2-2-7.1,0c-2,2-2,5.2,0,7.1l8.1,8.1H40.8v0c-2.6,0.1-4.8,2.3-4.8,5c0,2.7,2.1,4.9,4.8,5v0h23.9l-8.1,8.1
				c-2,2-2,5.2,0,7.1c2,2,5.2,2,7.1,0l16.7-16.7l0,0c0.1-0.1,0.1-0.1,0.2-0.2C80.8,62.1,81,61.9,81.1,61.7z"/>
			<path class="st2" d="M81.3,61.9c0.1-0.1,0.1-0.2,0.1-0.2c0.1-0.2,0.2-0.4,0.3-0.6c0-0.1,0.1-0.2,0.1-0.3c0.1-0.2,0.1-0.4,0.2-0.6
				c0-0.1,0-0.3,0-0.4c0-0.2,0-0.3,0-0.5c0-0.2,0-0.4,0-0.5c0-0.1,0-0.3,0-0.4c0-0.2-0.1-0.4-0.2-0.6c0-0.1-0.1-0.2-0.1-0.3
				c-0.1-0.2-0.2-0.4-0.3-0.6c0-0.1-0.1-0.2-0.1-0.3c-0.1-0.2-0.3-0.4-0.5-0.6c-0.1-0.1-0.1-0.1-0.2-0.2l0,0L64,38.9
				c-2-2-5.2-2-7.1,0c-2,2-2,5.2,0,7.1l8.1,8.1H41v0c-2.6,0.1-4.8,2.3-4.8,5c0,2.7,2.1,4.9,4.8,5v0H65l-8.1,8.1c-2,2-2,5.2,0,7.1
				c2,2,5.2,2,7.1,0l16.7-16.7l0,0c0.1-0.1,0.1-0.1,0.2-0.2C81,62.3,81.2,62.2,81.3,61.9z"/>
			<path class="st2" d="M81.6,62.2c0.1-0.1,0.1-0.2,0.1-0.2c0.1-0.2,0.2-0.4,0.3-0.6c0-0.1,0.1-0.2,0.1-0.3c0.1-0.2,0.1-0.4,0.2-0.6
				c0-0.1,0-0.3,0-0.4c0-0.2,0-0.3,0-0.5c0-0.2,0-0.4,0-0.5c0-0.1,0-0.3,0-0.4c0-0.2-0.1-0.4-0.2-0.6c0-0.1-0.1-0.2-0.1-0.3
				c-0.1-0.2-0.2-0.4-0.3-0.6c0-0.1-0.1-0.2-0.1-0.3c-0.1-0.2-0.3-0.4-0.5-0.6c-0.1-0.1-0.1-0.1-0.2-0.2l0,0L64.2,39.2
				c-2-2-5.2-2-7.1,0c-2,2-2,5.2,0,7.1l8.1,8.1H41.3v0c-2.6,0.1-4.8,2.3-4.8,5c0,2.7,2.1,4.9,4.8,5v0h23.9l-8.1,8.1
				c-2,2-2,5.2,0,7.1c2,2,5.2,2,7.1,0L81,63l0,0c0.1-0.1,0.1-0.1,0.2-0.2C81.3,62.6,81.4,62.4,81.6,62.2z"/>
			<path class="st2" d="M81.8,62.4c0.1-0.1,0.1-0.2,0.1-0.2c0.1-0.2,0.2-0.4,0.3-0.6c0-0.1,0.1-0.2,0.1-0.3c0.1-0.2,0.1-0.4,0.2-0.6
				c0-0.1,0-0.3,0-0.4c0-0.2,0-0.3,0-0.5c0-0.2,0-0.4,0-0.5c0-0.1,0-0.3,0-0.4c0-0.2-0.1-0.4-0.2-0.6c0-0.1-0.1-0.2-0.1-0.3
				c-0.1-0.2-0.2-0.4-0.3-0.6c0-0.1-0.1-0.2-0.1-0.3c-0.1-0.2-0.3-0.4-0.5-0.6c-0.1-0.1-0.1-0.1-0.2-0.2l0,0L64.4,39.4
				c-2-2-5.2-2-7.1,0c-2,2-2,5.2,0,7.1l8.1,8.1H41.5v0c-2.6,0.1-4.8,2.3-4.8,5c0,2.7,2.1,4.9,4.8,5v0h23.9l-8.1,8.1
				c-2,2-2,5.2,0,7.1c2,2,5.2,2,7.1,0l16.7-16.7l0,0c0.1-0.1,0.1-0.1,0.2-0.2C81.5,62.8,81.7,62.6,81.8,62.4z"/>
			<path class="st2" d="M82.1,62.7c0.1-0.1,0.1-0.2,0.1-0.2c0.1-0.2,0.2-0.4,0.3-0.6c0-0.1,0.1-0.2,0.1-0.3c0.1-0.2,0.1-0.4,0.2-0.6
				c0-0.1,0-0.3,0-0.4c0-0.2,0-0.3,0-0.5c0-0.2,0-0.4,0-0.5c0-0.1,0-0.3,0-0.4c0-0.2-0.1-0.4-0.2-0.6c0-0.1-0.1-0.2-0.1-0.3
				c-0.1-0.2-0.2-0.4-0.3-0.6c0-0.1-0.1-0.2-0.1-0.3c-0.1-0.2-0.3-0.4-0.5-0.6c-0.1-0.1-0.1-0.1-0.2-0.2l0,0L64.7,39.7
				c-2-2-5.2-2-7.1,0c-2,2-2,5.2,0,7.1l8.1,8.1H41.7v0c-2.6,0.1-4.8,2.3-4.8,5c0,2.7,2.1,4.9,4.8,5v0h23.9l-8.1,8.1
				c-2,2-2,5.2,0,7.1c2,2,5.2,2,7.1,0l16.7-16.7l0,0c0.1-0.1,0.1-0.1,0.2-0.2C81.8,63.1,81.9,62.9,82.1,62.7z"/>
			<path class="st2" d="M82.3,62.9c0.1-0.1,0.1-0.2,0.1-0.2c0.1-0.2,0.2-0.4,0.3-0.6c0-0.1,0.1-0.2,0.1-0.3c0.1-0.2,0.1-0.4,0.2-0.6
				c0-0.1,0-0.3,0-0.4c0-0.2,0-0.3,0-0.5c0-0.2,0-0.4,0-0.5c0-0.1,0-0.3,0-0.4c0-0.2-0.1-0.4-0.2-0.6c0-0.1-0.1-0.2-0.1-0.3
				c-0.1-0.2-0.2-0.4-0.3-0.6c0-0.1-0.1-0.2-0.1-0.3c-0.1-0.2-0.3-0.4-0.5-0.6c-0.1-0.1-0.1-0.1-0.2-0.2l0,0L64.9,39.9
				c-2-2-5.2-2-7.1,0c-2,2-2,5.2,0,7.1l8.1,8.1H42v0c-2.6,0.1-4.8,2.3-4.8,5c0,2.7,2.1,4.9,4.8,5v0h23.9l-8.1,8.1c-2,2-2,5.2,0,7.1
				c2,2,5.2,2,7.1,0l16.7-16.7l0,0c0.1-0.1,0.1-0.1,0.2-0.2C82,63.3,82.2,63.1,82.3,62.9z"/>
			<path class="st2" d="M82.5,63.2c0.1-0.1,0.1-0.2,0.1-0.2c0.1-0.2,0.2-0.4,0.3-0.6c0-0.1,0.1-0.2,0.1-0.3c0.1-0.2,0.1-0.4,0.2-0.6
				c0-0.1,0-0.3,0-0.4c0-0.2,0-0.3,0-0.5c0-0.2,0-0.4,0-0.5c0-0.1,0-0.3,0-0.4c0-0.2-0.1-0.4-0.2-0.6c0-0.1-0.1-0.2-0.1-0.3
				c-0.1-0.2-0.2-0.4-0.3-0.6c0-0.1-0.1-0.2-0.1-0.3c-0.1-0.2-0.3-0.4-0.5-0.6C82,57,82,57,81.9,56.9l0,0L65.2,40.2
				c-2-2-5.2-2-7.1,0c-2,2-2,5.2,0,7.1l8.1,8.1H42.2v0c-2.6,0.1-4.8,2.3-4.8,5c0,2.7,2.1,4.9,4.8,5v0h23.9l-8.1,8.1
				c-2,2-2,5.2,0,7.1c2,2,5.2,2,7.1,0l16.7-16.7l0,0c0.1-0.1,0.1-0.1,0.2-0.2C82.2,63.6,82.4,63.4,82.5,63.2z"/>
			<path class="st2" d="M82.8,63.4c0.1-0.1,0.1-0.2,0.1-0.2c0.1-0.2,0.2-0.4,0.3-0.6c0-0.1,0.1-0.2,0.1-0.3c0.1-0.2,0.1-0.4,0.2-0.6
				c0-0.1,0-0.3,0-0.4c0-0.2,0-0.3,0-0.5c0-0.2,0-0.4,0-0.5c0-0.1,0-0.3,0-0.4c0-0.2-0.1-0.4-0.2-0.6c0-0.1-0.1-0.2-0.1-0.3
				c-0.1-0.2-0.2-0.4-0.3-0.6c0-0.1-0.1-0.2-0.1-0.3c-0.1-0.2-0.3-0.4-0.5-0.6c-0.1-0.1-0.1-0.1-0.2-0.2l0,0L65.4,40.4
				c-2-2-5.2-2-7.1,0c-2,2-2,5.2,0,7.1l8.1,8.1H42.5v0c-2.6,0.1-4.8,2.3-4.8,5c0,2.7,2.1,4.9,4.8,5v0h23.9l-8.1,8.1
				c-2,2-2,5.2,0,7.1c2,2,5.2,2,7.1,0l16.7-16.7l0,0c0.1-0.1,0.1-0.1,0.2-0.2C82.5,63.8,82.6,63.6,82.8,63.4z"/>
			<path class="st2" d="M83,63.6c0.1-0.1,0.1-0.2,0.1-0.2c0.1-0.2,0.2-0.4,0.3-0.6c0-0.1,0.1-0.2,0.1-0.3c0.1-0.2,0.1-0.4,0.2-0.6
				c0-0.1,0-0.3,0-0.4c0-0.2,0-0.3,0-0.5c0-0.2,0-0.4,0-0.5c0-0.1,0-0.3,0-0.4c0-0.2-0.1-0.4-0.2-0.6c0-0.1-0.1-0.2-0.1-0.3
				c-0.1-0.2-0.2-0.4-0.3-0.6c0-0.1-0.1-0.2-0.1-0.3c-0.1-0.2-0.3-0.4-0.5-0.6c-0.1-0.1-0.1-0.1-0.2-0.2l0,0L65.7,40.6
				c-2-2-5.2-2-7.1,0c-2,2-2,5.2,0,7.1l8.1,8.1H42.7v0c-2.6,0.1-4.8,2.3-4.8,5c0,2.7,2.1,4.9,4.8,5v0h23.9L58.5,74c-2,2-2,5.2,0,7.1
				c2,2,5.2,2,7.1,0l16.7-16.7l0,0c0.1-0.1,0.1-0.1,0.2-0.2C82.7,64,82.9,63.8,83,63.6z"/>
			<path class="st2" d="M83.3,63.9c0.1-0.1,0.1-0.2,0.1-0.2c0.1-0.2,0.2-0.4,0.3-0.6c0-0.1,0.1-0.2,0.1-0.3c0.1-0.2,0.1-0.4,0.2-0.6
				c0-0.1,0-0.3,0-0.4c0-0.2,0-0.3,0-0.5c0-0.2,0-0.4,0-0.5c0-0.1,0-0.3,0-0.4c0-0.2-0.1-0.4-0.2-0.6c0-0.1-0.1-0.2-0.1-0.3
				c-0.1-0.2-0.2-0.4-0.3-0.6c0-0.1-0.1-0.2-0.1-0.3c-0.1-0.2-0.3-0.4-0.5-0.6c-0.1-0.1-0.1-0.1-0.2-0.2l0,0L65.9,40.9
				c-2-2-5.2-2-7.1,0c-2,2-2,5.2,0,7.1l8.1,8.1H43v0c-2.6,0.1-4.8,2.3-4.8,5c0,2.7,2.1,4.9,4.8,5v0h23.9l-8.1,8.1c-2,2-2,5.2,0,7.1
				c2,2,5.2,2,7.1,0l16.7-16.7l0,0c0.1-0.1,0.1-0.1,0.2-0.2C83,64.3,83.1,64.1,83.3,63.9z"/>
			<path class="st2" d="M83.5,64.1c0.1-0.1,0.1-0.2,0.1-0.2c0.1-0.2,0.2-0.4,0.3-0.6c0-0.1,0.1-0.2,0.1-0.3c0.1-0.2,0.1-0.4,0.2-0.6
				c0-0.1,0-0.3,0-0.4c0-0.2,0-0.3,0-0.5c0-0.2,0-0.4,0-0.5c0-0.1,0-0.3,0-0.4c0-0.2-0.1-0.4-0.2-0.6c0-0.1-0.1-0.2-0.1-0.3
				c-0.1-0.2-0.2-0.4-0.3-0.6c0-0.1-0.1-0.2-0.1-0.3c-0.1-0.2-0.3-0.4-0.5-0.6C83,58,83,57.9,82.9,57.9l0,0L66.1,41.1
				c-2-2-5.2-2-7.1,0c-2,2-2,5.2,0,7.1l8.1,8.1H43.2v0c-2.6,0.1-4.8,2.3-4.8,5c0,2.7,2.1,4.9,4.8,5v0h23.9L59,74.5c-2,2-2,5.2,0,7.1
				c2,2,5.2,2,7.1,0l16.7-16.7l0,0c0.1-0.1,0.1-0.1,0.2-0.2C83.2,64.5,83.4,64.3,83.5,64.1z"/>
			<path class="st2" d="M83.8,64.4c0.1-0.1,0.1-0.2,0.1-0.2c0.1-0.2,0.2-0.4,0.3-0.6c0-0.1,0.1-0.2,0.1-0.3c0.1-0.2,0.1-0.4,0.2-0.6
				c0-0.1,0-0.3,0-0.4c0-0.2,0-0.3,0-0.5c0-0.2,0-0.4,0-0.5c0-0.1,0-0.3,0-0.4c0-0.2-0.1-0.4-0.2-0.6c0-0.1-0.1-0.2-0.1-0.3
				c-0.1-0.2-0.2-0.4-0.3-0.6c0-0.1-0.1-0.2-0.1-0.3c-0.1-0.2-0.3-0.4-0.5-0.6c-0.1-0.1-0.1-0.1-0.2-0.2l0,0L66.4,41.4
				c-2-2-5.2-2-7.1,0c-2,2-2,5.2,0,7.1l8.1,8.1H43.4v0c-2.6,0.1-4.8,2.3-4.8,5c0,2.7,2.1,4.9,4.8,5v0h23.9l-8.1,8.1
				c-2,2-2,5.2,0,7.1c2,2,5.2,2,7.1,0l16.7-16.7l0,0c0.1-0.1,0.1-0.1,0.2-0.2C83.4,64.8,83.6,64.6,83.8,64.4z"/>
			<path class="st2" d="M84,64.6c0.1-0.1,0.1-0.2,0.1-0.2c0.1-0.2,0.2-0.4,0.3-0.6c0-0.1,0.1-0.2,0.1-0.3c0.1-0.2,0.1-0.4,0.2-0.6
				c0-0.1,0-0.3,0-0.4c0-0.2,0-0.3,0-0.5c0-0.2,0-0.4,0-0.5c0-0.1,0-0.3,0-0.4c0-0.2-0.1-0.4-0.2-0.6c0-0.1-0.1-0.2-0.1-0.3
				c-0.1-0.2-0.2-0.4-0.3-0.6c0-0.1-0.1-0.2-0.1-0.3c-0.1-0.2-0.3-0.4-0.5-0.6c-0.1-0.1-0.1-0.1-0.2-0.2l0,0L66.6,41.6
				c-2-2-5.2-2-7.1,0c-2,2-2,5.2,0,7.1l8.1,8.1H43.7v0c-2.6,0.1-4.8,2.3-4.8,5c0,2.7,2.1,4.9,4.8,5v0h23.9L59.5,75c-2,2-2,5.2,0,7.1
				c2,2,5.2,2,7.1,0l16.7-16.7l0,0c0.1-0.1,0.1-0.1,0.2-0.2C83.7,65,83.9,64.8,84,64.6z"/>
			<path class="st2" d="M84.2,64.9c0.1-0.1,0.1-0.2,0.1-0.2c0.1-0.2,0.2-0.4,0.3-0.6c0-0.1,0.1-0.2,0.1-0.3c0.1-0.2,0.1-0.4,0.2-0.6
				c0-0.1,0-0.3,0-0.4c0-0.2,0-0.3,0-0.5c0-0.2,0-0.4,0-0.5c0-0.1,0-0.3,0-0.4c0-0.2-0.1-0.4-0.2-0.6c0-0.1-0.1-0.2-0.1-0.3
				c-0.1-0.2-0.2-0.4-0.3-0.6c0-0.1-0.1-0.2-0.1-0.3c-0.1-0.2-0.3-0.4-0.5-0.6c-0.1-0.1-0.1-0.1-0.2-0.2l0,0L66.9,41.8
				c-2-2-5.2-2-7.1,0c-2,2-2,5.2,0,7.1l8.1,8.1H43.9v0c-2.6,0.1-4.8,2.3-4.8,5c0,2.7,2.1,4.9,4.8,5v0h23.9l-8.1,8.1
				c-2,2-2,5.2,0,7.1c2,2,5.2,2,7.1,0l16.7-16.7l0,0c0.1-0.1,0.1-0.1,0.2-0.2C83.9,65.2,84.1,65.1,84.2,64.9z"/>
			<path class="st2" d="M84.5,65.1c0.1-0.1,0.1-0.2,0.1-0.2c0.1-0.2,0.2-0.4,0.3-0.6c0-0.1,0.1-0.2,0.1-0.3c0.1-0.2,0.1-0.4,0.2-0.6
				c0-0.1,0-0.3,0-0.4c0-0.2,0-0.3,0-0.5c0-0.2,0-0.4,0-0.5c0-0.1,0-0.3,0-0.4c0-0.2-0.1-0.4-0.2-0.6c0-0.1-0.1-0.2-0.1-0.3
				c-0.1-0.2-0.2-0.4-0.3-0.6c0-0.1-0.1-0.2-0.1-0.3c-0.1-0.2-0.3-0.4-0.5-0.6c-0.1-0.1-0.1-0.1-0.2-0.2l0,0L67.1,42.1
				c-2-2-5.2-2-7.1,0c-2,2-2,5.2,0,7.1l8.1,8.1H44.2v0c-2.6,0.1-4.8,2.3-4.8,5c0,2.7,2.1,4.9,4.8,5v0h23.9L60,75.5c-2,2-2,5.2,0,7.1
				c2,2,5.2,2,7.1,0l16.7-16.7l0,0c0.1-0.1,0.1-0.1,0.2-0.2C84.2,65.5,84.3,65.3,84.5,65.1z"/>
			<path class="st2" d="M84.7,65.3c0.1-0.1,0.1-0.2,0.1-0.2c0.1-0.2,0.2-0.4,0.3-0.6c0-0.1,0.1-0.2,0.1-0.3c0.1-0.2,0.1-0.4,0.2-0.6
				c0-0.1,0-0.3,0-0.4c0-0.2,0-0.3,0-0.5c0-0.2,0-0.4,0-0.5c0-0.1,0-0.3,0-0.4c0-0.2-0.1-0.4-0.2-0.6c0-0.1-0.1-0.2-0.1-0.3
				c-0.1-0.2-0.2-0.4-0.3-0.6c0-0.1-0.1-0.2-0.1-0.3c-0.1-0.2-0.3-0.4-0.5-0.6c-0.1-0.1-0.1-0.1-0.2-0.2l0,0L67.4,42.3
				c-2-2-5.2-2-7.1,0c-2,2-2,5.2,0,7.1l8.1,8.1H44.4v0c-2.6,0.1-4.8,2.3-4.8,5c0,2.7,2.1,4.9,4.8,5v0h23.9l-8.1,8.1
				c-2,2-2,5.2,0,7.1c2,2,5.2,2,7.1,0l16.7-16.7l0,0c0.1-0.1,0.1-0.1,0.2-0.2C84.4,65.7,84.6,65.5,84.7,65.3z"/>
			<path class="st2" d="M85,65.6c0.1-0.1,0.1-0.2,0.1-0.2c0.1-0.2,0.2-0.4,0.3-0.6c0-0.1,0.1-0.2,0.1-0.3c0.1-0.2,0.1-0.4,0.2-0.6
				c0-0.1,0-0.3,0-0.4c0-0.2,0-0.3,0-0.5c0-0.2,0-0.4,0-0.5c0-0.1,0-0.3,0-0.4c0-0.2-0.1-0.4-0.2-0.6c0-0.1-0.1-0.2-0.1-0.3
				c-0.1-0.2-0.2-0.4-0.3-0.6c0-0.1-0.1-0.2-0.1-0.3c-0.1-0.2-0.3-0.4-0.5-0.6c-0.1-0.1-0.1-0.1-0.2-0.2l0,0L67.6,42.6
				c-2-2-5.2-2-7.1,0c-2,2-2,5.2,0,7.1l8.1,8.1H44.7v0c-2.6,0.1-4.8,2.3-4.8,5c0,2.7,2.1,4.9,4.8,5v0h23.9L60.5,76c-2,2-2,5.2,0,7.1
				c2,2,5.2,2,7.1,0l16.7-16.7l0,0c0.1-0.1,0.1-0.1,0.2-0.2C84.7,66,84.8,65.8,85,65.6z"/>
			<path class="st2" d="M85.2,65.8c0.1-0.1,0.1-0.2,0.1-0.2c0.1-0.2,0.2-0.4,0.3-0.6c0-0.1,0.1-0.2,0.1-0.3c0.1-0.2,0.1-0.4,0.2-0.6
				c0-0.1,0-0.3,0-0.4c0-0.2,0-0.3,0-0.5c0-0.2,0-0.4,0-0.5c0-0.1,0-0.3,0-0.4c0-0.2-0.1-0.4-0.2-0.6c0-0.1-0.1-0.2-0.1-0.3
				c-0.1-0.2-0.2-0.4-0.3-0.6c0-0.1-0.1-0.2-0.1-0.3c-0.1-0.2-0.3-0.4-0.5-0.6c-0.1-0.1-0.1-0.1-0.2-0.2l0,0L67.8,42.8
				c-2-2-5.2-2-7.1,0c-2,2-2,5.2,0,7.1l8.1,8.1H44.9v0c-2.6,0.1-4.8,2.3-4.8,5c0,2.7,2.1,4.9,4.8,5v0h23.9l-8.1,8.1
				c-2,2-2,5.2,0,7.1c2,2,5.2,2,7.1,0l16.7-16.7l0,0c0.1-0.1,0.1-0.1,0.2-0.2C84.9,66.2,85.1,66,85.2,65.8z"/>
			<path class="st2" d="M85.4,66.1c0.1-0.1,0.1-0.2,0.1-0.2c0.1-0.2,0.2-0.4,0.3-0.6c0-0.1,0.1-0.2,0.1-0.3c0.1-0.2,0.1-0.4,0.2-0.6
				c0-0.1,0-0.3,0-0.4c0-0.2,0-0.3,0-0.5c0-0.2,0-0.4,0-0.5c0-0.1,0-0.3,0-0.4c0-0.2-0.1-0.4-0.2-0.6c0-0.1-0.1-0.2-0.1-0.3
				c-0.1-0.2-0.2-0.4-0.3-0.6c0-0.1-0.1-0.2-0.1-0.3c-0.1-0.2-0.3-0.4-0.5-0.6c-0.1-0.1-0.1-0.1-0.2-0.2l0,0L68.1,43.1
				c-2-2-5.2-2-7.1,0c-2,2-2,5.2,0,7.1l8.1,8.1H45.1v0c-2.6,0.1-4.8,2.3-4.8,5c0,2.7,2.1,4.9,4.8,5v0h23.9L61,76.5c-2,2-2,5.2,0,7.1
				c2,2,5.2,2,7.1,0l16.7-16.7l0,0c0.1-0.1,0.1-0.1,0.2-0.2C85.1,66.5,85.3,66.3,85.4,66.1z"/>
			<path class="st2" d="M85.7,66.3c0.1-0.1,0.1-0.2,0.1-0.2c0.1-0.2,0.2-0.4,0.3-0.6c0-0.1,0.1-0.2,0.1-0.3c0.1-0.2,0.1-0.4,0.2-0.6
				c0-0.1,0-0.3,0-0.4c0-0.2,0-0.3,0-0.5c0-0.2,0-0.4,0-0.5c0-0.1,0-0.3,0-0.4c0-0.2-0.1-0.4-0.2-0.6c0-0.1-0.1-0.2-0.1-0.3
				c-0.1-0.2-0.2-0.4-0.3-0.6c0-0.1-0.1-0.2-0.1-0.3c-0.1-0.2-0.3-0.4-0.5-0.6c-0.1-0.1-0.1-0.1-0.2-0.2l0,0L68.3,43.3
				c-2-2-5.2-2-7.1,0c-2,2-2,5.2,0,7.1l8.1,8.1H45.4v0c-2.6,0.1-4.8,2.3-4.8,5c0,2.7,2.1,4.9,4.8,5v0h23.9l-8.1,8.1
				c-2,2-2,5.2,0,7.1c2,2,5.2,2,7.1,0l16.7-16.7l0,0c0.1-0.1,0.1-0.1,0.2-0.2C85.4,66.7,85.6,66.5,85.7,66.3z"/>
			<path class="st2" d="M85.9,66.5c0.1-0.1,0.1-0.2,0.1-0.2c0.1-0.2,0.2-0.4,0.3-0.6c0-0.1,0.1-0.2,0.1-0.3c0.1-0.2,0.1-0.4,0.2-0.6
				c0-0.1,0-0.3,0-0.4c0-0.2,0-0.3,0-0.5c0-0.2,0-0.4,0-0.5c0-0.1,0-0.3,0-0.4c0-0.2-0.1-0.4-0.2-0.6c0-0.1-0.1-0.2-0.1-0.3
				c-0.1-0.2-0.2-0.4-0.3-0.6c0-0.1-0.1-0.2-0.1-0.3c-0.1-0.2-0.3-0.4-0.5-0.6c-0.1-0.1-0.1-0.1-0.2-0.2l0,0L68.6,43.5
				c-2-2-5.2-2-7.1,0c-2,2-2,5.2,0,7.1l8.1,8.1H45.6v0c-2.6,0.1-4.8,2.3-4.8,5c0,2.7,2.1,4.9,4.8,5v0h23.9L61.5,77c-2,2-2,5.2,0,7.1
				c2,2,5.2,2,7.1,0l16.7-16.7l0,0c0.1-0.1,0.1-0.1,0.2-0.2C85.6,66.9,85.8,66.8,85.9,66.5z"/>
			<path class="st2" d="M86.2,66.8c0.1-0.1,0.1-0.2,0.1-0.2c0.1-0.2,0.2-0.4,0.3-0.6c0-0.1,0.1-0.2,0.1-0.3c0.1-0.2,0.1-0.4,0.2-0.6
				c0-0.1,0-0.3,0-0.4c0-0.2,0-0.3,0-0.5c0-0.2,0-0.4,0-0.5c0-0.1,0-0.3,0-0.4c0-0.2-0.1-0.4-0.2-0.6c0-0.1-0.1-0.2-0.1-0.3
				c-0.1-0.2-0.2-0.4-0.3-0.6c0-0.1-0.1-0.2-0.1-0.3c-0.1-0.2-0.3-0.4-0.5-0.6c-0.1-0.1-0.1-0.1-0.2-0.2l0,0L68.8,43.8
				c-2-2-5.2-2-7.1,0c-2,2-2,5.2,0,7.1l8.1,8.1H45.9v0c-2.6,0.1-4.8,2.3-4.8,5c0,2.7,2.1,4.9,4.8,5v0h23.9l-8.1,8.1
				c-2,2-2,5.2,0,7.1c2,2,5.2,2,7.1,0l16.7-16.7l0,0c0.1-0.1,0.1-0.1,0.2-0.2C85.9,67.2,86,67,86.2,66.8z"/>
			<path class="st2" d="M86.4,67c0.1-0.1,0.1-0.2,0.1-0.2c0.1-0.2,0.2-0.4,0.3-0.6c0-0.1,0.1-0.2,0.1-0.3c0.1-0.2,0.1-0.4,0.2-0.6
				c0-0.1,0-0.3,0-0.4c0-0.2,0-0.3,0-0.5c0-0.2,0-0.4,0-0.5c0-0.1,0-0.3,0-0.4c0-0.2-0.1-0.4-0.2-0.6c0-0.1-0.1-0.2-0.1-0.3
				c-0.1-0.2-0.2-0.4-0.3-0.6c0-0.1-0.1-0.2-0.1-0.3c-0.1-0.2-0.3-0.4-0.5-0.6c-0.1-0.1-0.1-0.1-0.2-0.2l0,0L69.1,44
				c-2-2-5.2-2-7.1,0c-2,2-2,5.2,0,7.1l8.1,8.1H46.1v0c-2.6,0.1-4.8,2.3-4.8,5c0,2.7,2.1,4.9,4.8,5v0h23.9l-8.1,8.1
				c-2,2-2,5.2,0,7.1c2,2,5.2,2,7.1,0l16.7-16.7l0,0c0.1-0.1,0.1-0.1,0.2-0.2C86.1,67.4,86.3,67.2,86.4,67z"/>
			<path class="st2" d="M86.7,67.3c0.1-0.1,0.1-0.2,0.1-0.2c0.1-0.2,0.2-0.4,0.3-0.6c0-0.1,0.1-0.2,0.1-0.3c0.1-0.2,0.1-0.4,0.2-0.6
				c0-0.1,0-0.3,0-0.4c0-0.2,0-0.3,0-0.5c0-0.2,0-0.4,0-0.5c0-0.1,0-0.3,0-0.4c0-0.2-0.1-0.4-0.2-0.6c0-0.1-0.1-0.2-0.1-0.3
				c-0.1-0.2-0.2-0.4-0.3-0.6c0-0.1-0.1-0.2-0.1-0.3c-0.1-0.2-0.3-0.4-0.5-0.6c-0.1-0.1-0.1-0.1-0.2-0.2l0,0L69.3,44.3
				c-2-2-5.2-2-7.1,0c-2,2-2,5.2,0,7.1l8.1,8.1H46.4v0c-2.6,0.1-4.8,2.3-4.8,5c0,2.7,2.1,4.9,4.8,5v0h23.9l-8.1,8.1
				c-2,2-2,5.2,0,7.1c2,2,5.2,2,7.1,0L86,68.1l0,0c0.1-0.1,0.1-0.1,0.2-0.2C86.4,67.7,86.5,67.5,86.7,67.3z"/>
			<path class="st2" d="M86.9,67.5c0.1-0.1,0.1-0.2,0.1-0.2c0.1-0.2,0.2-0.4,0.3-0.6c0-0.1,0.1-0.2,0.1-0.3c0.1-0.2,0.1-0.4,0.2-0.6
				c0-0.1,0-0.3,0-0.4c0-0.2,0-0.3,0-0.5c0-0.2,0-0.4,0-0.5c0-0.1,0-0.3,0-0.4c0-0.2-0.1-0.4-0.2-0.6c0-0.1-0.1-0.2-0.1-0.3
				c-0.1-0.2-0.2-0.4-0.3-0.6c0-0.1-0.1-0.2-0.1-0.3c-0.1-0.2-0.3-0.4-0.5-0.6c-0.1-0.1-0.1-0.1-0.2-0.2l0,0L69.5,44.5
				c-2-2-5.2-2-7.1,0c-2,2-2,5.2,0,7.1l8.1,8.1H46.6v0c-2.6,0.1-4.8,2.3-4.8,5c0,2.7,2.1,4.9,4.8,5v0h23.9l-8.1,8.1
				c-2,2-2,5.2,0,7.1c2,2,5.2,2,7.1,0l16.7-16.7l0,0c0.1-0.1,0.1-0.1,0.2-0.2C86.6,67.9,86.8,67.7,86.9,67.5z"/>
			<path class="st2" d="M87.1,67.8c0.1-0.1,0.1-0.2,0.1-0.2c0.1-0.2,0.2-0.4,0.3-0.6c0-0.1,0.1-0.2,0.1-0.3c0.1-0.2,0.1-0.4,0.2-0.6
				c0-0.1,0-0.3,0-0.4c0-0.2,0-0.3,0-0.5c0-0.2,0-0.4,0-0.5c0-0.1,0-0.3,0-0.4c0-0.2-0.1-0.4-0.2-0.6c0-0.1-0.1-0.2-0.1-0.3
				c-0.1-0.2-0.2-0.4-0.3-0.6c0-0.1-0.1-0.2-0.1-0.3c-0.1-0.2-0.3-0.4-0.5-0.6c-0.1-0.1-0.1-0.1-0.2-0.2l0,0L69.8,44.8
				c-2-2-5.2-2-7.1,0c-2,2-2,5.2,0,7.1l8.1,8.1H46.8v0c-2.6,0.1-4.8,2.3-4.8,5c0,2.7,2.1,4.9,4.8,5v0h23.9l-8.1,8.1
				c-2,2-2,5.2,0,7.1c2,2,5.2,2,7.1,0l16.7-16.7l0,0c0.1-0.1,0.1-0.1,0.2-0.2C86.8,68.2,87,68,87.1,67.8z"/>
			<path class="st2" d="M87.4,68c0.1-0.1,0.1-0.2,0.1-0.2c0.1-0.2,0.2-0.4,0.3-0.6c0-0.1,0.1-0.2,0.1-0.3c0.1-0.2,0.1-0.4,0.2-0.6
				c0-0.1,0-0.3,0-0.4c0-0.2,0-0.3,0-0.5c0-0.2,0-0.4,0-0.5c0-0.1,0-0.3,0-0.4c0-0.2-0.1-0.4-0.2-0.6c0-0.1-0.1-0.2-0.1-0.3
				c-0.1-0.2-0.2-0.4-0.3-0.6c0-0.1-0.1-0.2-0.1-0.3c-0.1-0.2-0.3-0.4-0.5-0.6c-0.1-0.1-0.1-0.1-0.2-0.2l0,0L70,45c-2-2-5.2-2-7.1,0
				c-2,2-2,5.2,0,7.1l8.1,8.1H47.1v0c-2.6,0.1-4.8,2.3-4.8,5c0,2.7,2.1,4.9,4.8,5v0H71l-8.1,8.1c-2,2-2,5.2,0,7.1c2,2,5.2,2,7.1,0
				l16.7-16.7l0,0c0.1-0.1,0.1-0.1,0.2-0.2C87.1,68.4,87.3,68.2,87.4,68z"/>
			<path class="st2" d="M87.6,68.2c0.1-0.1,0.1-0.2,0.1-0.2c0.1-0.2,0.2-0.4,0.3-0.6c0-0.1,0.1-0.2,0.1-0.3c0.1-0.2,0.1-0.4,0.2-0.6
				c0-0.1,0-0.3,0-0.4c0-0.2,0-0.3,0-0.5c0-0.2,0-0.4,0-0.5c0-0.1,0-0.3,0-0.4c0-0.2-0.1-0.4-0.2-0.6c0-0.1-0.1-0.2-0.1-0.3
				c-0.1-0.2-0.2-0.4-0.3-0.6c0-0.1-0.1-0.2-0.1-0.3c-0.1-0.2-0.3-0.4-0.5-0.6c-0.1-0.1-0.1-0.1-0.2-0.2l0,0L70.3,45.2
				c-2-2-5.2-2-7.1,0c-2,2-2,5.2,0,7.1l8.1,8.1H47.3v0c-2.6,0.1-4.8,2.3-4.8,5c0,2.7,2.1,4.9,4.8,5v0h23.9l-8.1,8.1
				c-2,2-2,5.2,0,7.1c2,2,5.2,2,7.1,0L87,69l0,0c0.1-0.1,0.1-0.1,0.2-0.2C87.3,68.6,87.5,68.5,87.6,68.2z"/>
			<path class="st2" d="M87.9,68.5c0.1-0.1,0.1-0.2,0.1-0.2c0.1-0.2,0.2-0.4,0.3-0.6c0-0.1,0.1-0.2,0.1-0.3c0.1-0.2,0.1-0.4,0.2-0.6
				c0-0.1,0-0.3,0-0.4c0-0.2,0-0.3,0-0.5c0-0.2,0-0.4,0-0.5c0-0.1,0-0.3,0-0.4c0-0.2-0.1-0.4-0.2-0.6c0-0.1-0.1-0.2-0.1-0.3
				c-0.1-0.2-0.2-0.4-0.3-0.6c0-0.1-0.1-0.2-0.1-0.3c-0.1-0.2-0.3-0.4-0.5-0.6c-0.1-0.1-0.1-0.1-0.2-0.2l0,0L70.5,45.5
				c-2-2-5.2-2-7.1,0c-2,2-2,5.2,0,7.1l8.1,8.1H47.6v0c-2.6,0.1-4.8,2.3-4.8,5c0,2.7,2.1,4.9,4.8,5v0h23.9l-8.1,8.1
				c-2,2-2,5.2,0,7.1c2,2,5.2,2,7.1,0l16.7-16.7l0,0c0.1-0.1,0.1-0.1,0.2-0.2C87.6,68.9,87.7,68.7,87.9,68.5z"/>
			<path class="st2" d="M88.1,68.7c0.1-0.1,0.1-0.2,0.1-0.2c0.1-0.2,0.2-0.4,0.3-0.6c0-0.1,0.1-0.2,0.1-0.3c0.1-0.2,0.1-0.4,0.2-0.6
				c0-0.1,0-0.3,0-0.4c0-0.2,0-0.3,0-0.5c0-0.2,0-0.4,0-0.5c0-0.1,0-0.3,0-0.4c0-0.2-0.1-0.4-0.2-0.6c0-0.1-0.1-0.2-0.1-0.3
				c-0.1-0.2-0.2-0.4-0.3-0.6c0-0.1-0.1-0.2-0.1-0.3c-0.1-0.2-0.3-0.4-0.5-0.6c-0.1-0.1-0.1-0.1-0.2-0.2l0,0L70.7,45.7
				c-2-2-5.2-2-7.1,0c-2,2-2,5.2,0,7.1l8.1,8.1H47.8v0c-2.6,0.1-4.8,2.3-4.8,5c0,2.7,2.1,4.9,4.8,5v0h23.9l-8.1,8.1
				c-2,2-2,5.2,0,7.1c2,2,5.2,2,7.1,0l16.7-16.7l0,0c0.1-0.1,0.1-0.1,0.2-0.2C87.8,69.1,88,68.9,88.1,68.7z"/>
			<path class="st2" d="M88.4,69c0.1-0.1,0.1-0.2,0.1-0.2c0.1-0.2,0.2-0.4,0.3-0.6c0-0.1,0.1-0.2,0.1-0.3c0.1-0.2,0.1-0.4,0.2-0.6
				c0-0.1,0-0.3,0-0.4c0-0.2,0-0.3,0-0.5c0-0.2,0-0.4,0-0.5c0-0.1,0-0.3,0-0.4c0-0.2-0.1-0.4-0.2-0.6c0-0.1-0.1-0.2-0.1-0.3
				c-0.1-0.2-0.2-0.4-0.3-0.6c0-0.1-0.1-0.2-0.1-0.3c-0.1-0.2-0.3-0.4-0.5-0.6c-0.1-0.1-0.1-0.1-0.2-0.2l0,0L71,46c-2-2-5.2-2-7.1,0
				c-2,2-2,5.2,0,7.1l8.1,8.1H48v0c-2.6,0.1-4.8,2.3-4.8,5c0,2.7,2.1,4.9,4.8,5v0H72l-8.1,8.1c-2,2-2,5.2,0,7.1c2,2,5.2,2,7.1,0
				l16.7-16.7l0,0c0.1-0.1,0.1-0.1,0.2-0.2C88.1,69.4,88.2,69.2,88.4,69z"/>
			<path class="st2" d="M88.6,69.2c0.1-0.1,0.1-0.2,0.1-0.2c0.1-0.2,0.2-0.4,0.3-0.6c0-0.1,0.1-0.2,0.1-0.3c0.1-0.2,0.1-0.4,0.2-0.6
				c0-0.1,0-0.3,0-0.4c0-0.2,0-0.3,0-0.5c0-0.2,0-0.4,0-0.5c0-0.1,0-0.3,0-0.4c0-0.2-0.1-0.4-0.2-0.6c0-0.1-0.1-0.2-0.1-0.3
				c-0.1-0.2-0.2-0.4-0.3-0.6c0-0.1-0.1-0.2-0.1-0.3c-0.1-0.2-0.3-0.4-0.5-0.6C88.1,63.1,88,63,88,63l0,0L71.2,46.2
				c-2-2-5.2-2-7.1,0c-2,2-2,5.2,0,7.1l8.1,8.1H48.3v0c-2.6,0.1-4.8,2.3-4.8,5c0,2.7,2.1,4.9,4.8,5v0h23.9l-8.1,8.1
				c-2,2-2,5.2,0,7.1c2,2,5.2,2,7.1,0L88,70l0,0c0.1-0.1,0.1-0.1,0.2-0.2C88.3,69.6,88.5,69.4,88.6,69.2z"/>
			<path class="st2" d="M88.8,69.5c0.1-0.1,0.1-0.2,0.1-0.2c0.1-0.2,0.2-0.4,0.3-0.6c0-0.1,0.1-0.2,0.1-0.3c0.1-0.2,0.1-0.4,0.2-0.6
				c0-0.1,0-0.3,0-0.4c0-0.2,0-0.3,0-0.5c0-0.2,0-0.4,0-0.5c0-0.1,0-0.3,0-0.4c0-0.2-0.1-0.4-0.2-0.6c0-0.1-0.1-0.2-0.1-0.3
				c-0.1-0.2-0.2-0.4-0.3-0.6c0-0.1-0.1-0.2-0.1-0.3c-0.1-0.2-0.3-0.4-0.5-0.6c-0.1-0.1-0.1-0.1-0.2-0.2l0,0L71.5,46.5
				c-2-2-5.2-2-7.1,0c-2,2-2,5.2,0,7.1l8.1,8.1H48.5v0c-2.6,0.1-4.8,2.3-4.8,5c0,2.7,2.1,4.9,4.8,5v0h23.9l-8.1,8.1
				c-2,2-2,5.2,0,7.1c2,2,5.2,2,7.1,0l16.7-16.7l0,0c0.1-0.1,0.1-0.1,0.2-0.2C88.5,69.8,88.7,69.7,88.8,69.5z"/>
			<path class="st2" d="M89.1,69.7c0.1-0.1,0.1-0.2,0.1-0.2c0.1-0.2,0.2-0.4,0.3-0.6c0-0.1,0.1-0.2,0.1-0.3c0.1-0.2,0.1-0.4,0.2-0.6
				c0-0.1,0-0.3,0-0.4c0-0.2,0-0.3,0-0.5c0-0.2,0-0.4,0-0.5c0-0.1,0-0.3,0-0.4c0-0.2-0.1-0.4-0.2-0.6c0-0.1-0.1-0.2-0.1-0.3
				c-0.1-0.2-0.2-0.4-0.3-0.6c0-0.1-0.1-0.2-0.1-0.3c-0.1-0.2-0.3-0.4-0.5-0.6c-0.1-0.1-0.1-0.1-0.2-0.2l0,0L71.7,46.7
				c-2-2-5.2-2-7.1,0c-2,2-2,5.2,0,7.1l8.1,8.1H48.8v0c-2.6,0.1-4.8,2.3-4.8,5c0,2.7,2.1,4.9,4.8,5v0h23.9l-8.1,8.1
				c-2,2-2,5.2,0,7.1c2,2,5.2,2,7.1,0l16.7-16.7l0,0c0.1-0.1,0.1-0.1,0.2-0.2C88.8,70.1,88.9,69.9,89.1,69.7z"/>
			<path class="st2" d="M89.3,69.9c0.1-0.1,0.1-0.2,0.1-0.2c0.1-0.2,0.2-0.4,0.3-0.6c0-0.1,0.1-0.2,0.1-0.3c0.1-0.2,0.1-0.4,0.2-0.6
				c0-0.1,0-0.3,0-0.4c0-0.2,0-0.3,0-0.5c0-0.2,0-0.4,0-0.5c0-0.1,0-0.3,0-0.4c0-0.2-0.1-0.4-0.2-0.6c0-0.1-0.1-0.2-0.1-0.3
				c-0.1-0.2-0.2-0.4-0.3-0.6c0-0.1-0.1-0.2-0.1-0.3c-0.1-0.2-0.3-0.4-0.5-0.6c-0.1-0.1-0.1-0.1-0.2-0.2l0,0L72,46.9
				c-2-2-5.2-2-7.1,0c-2,2-2,5.2,0,7.1l8.1,8.1H49v0c-2.6,0.1-4.8,2.3-4.8,5c0,2.7,2.1,4.9,4.8,5v0H73l-8.1,8.1c-2,2-2,5.2,0,7.1
				c2,2,5.2,2,7.1,0l16.7-16.7l0,0c0.1-0.1,0.1-0.1,0.2-0.2C89,70.3,89.2,70.1,89.3,69.9z"/>
			<path class="st2" d="M89.6,70.2c0.1-0.1,0.1-0.2,0.1-0.2c0.1-0.2,0.2-0.4,0.3-0.6c0-0.1,0.1-0.2,0.1-0.3c0.1-0.2,0.1-0.4,0.2-0.6
				c0-0.1,0-0.3,0-0.4c0-0.2,0-0.3,0-0.5c0-0.2,0-0.4,0-0.5c0-0.1,0-0.3,0-0.4c0-0.2-0.1-0.4-0.2-0.6c0-0.1-0.1-0.2-0.1-0.3
				c-0.1-0.2-0.2-0.4-0.3-0.6c0-0.1-0.1-0.2-0.1-0.3c-0.1-0.2-0.3-0.4-0.5-0.6c-0.1-0.1-0.1-0.1-0.2-0.2l0,0L72.2,47.2
				c-2-2-5.2-2-7.1,0c-2,2-2,5.2,0,7.1l8.1,8.1H49.3v0c-2.6,0.1-4.8,2.3-4.8,5c0,2.7,2.1,4.9,4.8,5v0h23.9l-8.1,8.1
				c-2,2-2,5.2,0,7.1c2,2,5.2,2,7.1,0L88.9,71l0,0c0.1-0.1,0.1-0.1,0.2-0.2C89.3,70.6,89.4,70.4,89.6,70.2z"/>
			<path class="st2" d="M89.8,70.4c0.1-0.1,0.1-0.2,0.1-0.2c0.1-0.2,0.2-0.4,0.3-0.6c0-0.1,0.1-0.2,0.1-0.3c0.1-0.2,0.1-0.4,0.2-0.6
				c0-0.1,0-0.3,0-0.4c0-0.2,0-0.3,0-0.5c0-0.2,0-0.4,0-0.5c0-0.1,0-0.3,0-0.4c0-0.2-0.1-0.4-0.2-0.6c0-0.1-0.1-0.2-0.1-0.3
				c-0.1-0.2-0.2-0.4-0.3-0.6c0-0.1-0.1-0.2-0.1-0.3c-0.1-0.2-0.3-0.4-0.5-0.6c-0.1-0.1-0.1-0.1-0.2-0.2l0,0L72.4,47.4
				c-2-2-5.2-2-7.1,0c-2,2-2,5.2,0,7.1l8.1,8.1H49.5v0c-2.6,0.1-4.8,2.3-4.8,5c0,2.7,2.1,4.9,4.8,5v0h23.9l-8.1,8.1
				c-2,2-2,5.2,0,7.1c2,2,5.2,2,7.1,0l16.7-16.7l0,0c0.1-0.1,0.1-0.1,0.2-0.2C89.5,70.8,89.7,70.6,89.8,70.4z"/>
			<path class="st2" d="M90.1,70.7c0.1-0.1,0.1-0.2,0.1-0.2c0.1-0.2,0.2-0.4,0.3-0.6c0-0.1,0.1-0.2,0.1-0.3c0.1-0.2,0.1-0.4,0.2-0.6
				c0-0.1,0-0.3,0-0.4c0-0.2,0-0.3,0-0.5c0-0.2,0-0.4,0-0.5c0-0.1,0-0.3,0-0.4c0-0.2-0.1-0.4-0.2-0.6c0-0.1-0.1-0.2-0.1-0.3
				c-0.1-0.2-0.2-0.4-0.3-0.6c0-0.1-0.1-0.2-0.1-0.3c-0.1-0.2-0.3-0.4-0.5-0.6c-0.1-0.1-0.1-0.1-0.2-0.2l0,0L72.7,47.7
				c-2-2-5.2-2-7.1,0c-2,2-2,5.2,0,7.1l8.1,8.1H49.7v0c-2.6,0.1-4.8,2.3-4.8,5c0,2.7,2.1,4.9,4.8,5v0h23.9l-8.1,8.1
				c-2,2-2,5.2,0,7.1c2,2,5.2,2,7.1,0l16.7-16.7l0,0c0.1-0.1,0.1-0.1,0.2-0.2C89.7,71.1,89.9,70.9,90.1,70.7z"/>
			<path class="st2" d="M90.3,70.9c0.1-0.1,0.1-0.2,0.1-0.2c0.1-0.2,0.2-0.4,0.3-0.6c0-0.1,0.1-0.2,0.1-0.3c0.1-0.2,0.1-0.4,0.2-0.6
				c0-0.1,0-0.3,0-0.4c0-0.2,0-0.3,0-0.5c0-0.2,0-0.4,0-0.5c0-0.1,0-0.3,0-0.4c0-0.2-0.1-0.4-0.2-0.6c0-0.1-0.1-0.2-0.1-0.3
				c-0.1-0.2-0.2-0.4-0.3-0.6c0-0.1-0.1-0.2-0.1-0.3c-0.1-0.2-0.3-0.4-0.5-0.6c-0.1-0.1-0.1-0.1-0.2-0.2l0,0L72.9,47.9
				c-2-2-5.2-2-7.1,0c-2,2-2,5.2,0,7.1l8.1,8.1H50v0c-2.6,0.1-4.8,2.3-4.8,5c0,2.7,2.1,4.9,4.8,5v0h23.9l-8.1,8.1c-2,2-2,5.2,0,7.1
				c2,2,5.2,2,7.1,0l16.7-16.7l0,0c0.1-0.1,0.1-0.1,0.2-0.2C90,71.3,90.2,71.1,90.3,70.9z"/>
			<path class="st2" d="M90.5,71.2c0.1-0.1,0.1-0.2,0.1-0.2c0.1-0.2,0.2-0.4,0.3-0.6c0-0.1,0.1-0.2,0.1-0.3c0.1-0.2,0.1-0.4,0.2-0.6
				c0-0.1,0-0.3,0-0.4c0-0.2,0-0.3,0-0.5c0-0.2,0-0.4,0-0.5c0-0.1,0-0.3,0-0.4c0-0.2-0.1-0.4-0.2-0.6c0-0.1-0.1-0.2-0.1-0.3
				c-0.1-0.2-0.2-0.4-0.3-0.6c0-0.1-0.1-0.2-0.1-0.3c-0.1-0.2-0.3-0.4-0.5-0.6C90,65,90,65,89.9,64.9l0,0L73.2,48.1
				c-2-2-5.2-2-7.1,0c-2,2-2,5.2,0,7.1l8.1,8.1H50.2v0c-2.6,0.1-4.8,2.3-4.8,5c0,2.7,2.1,4.9,4.8,5v0h23.9l-8.1,8.1
				c-2,2-2,5.2,0,7.1c2,2,5.2,2,7.1,0l16.7-16.7l0,0c0.1-0.1,0.1-0.1,0.2-0.2C90.2,71.5,90.4,71.4,90.5,71.2z"/>
			<path class="st2" d="M90.8,71.4c0.1-0.1,0.1-0.2,0.1-0.2c0.1-0.2,0.2-0.4,0.3-0.6c0-0.1,0.1-0.2,0.1-0.3c0.1-0.2,0.1-0.4,0.2-0.6
				c0-0.1,0-0.3,0-0.4c0-0.2,0-0.3,0-0.5c0-0.2,0-0.4,0-0.5c0-0.1,0-0.3,0-0.4c0-0.2-0.1-0.4-0.2-0.6c0-0.1-0.1-0.2-0.1-0.3
				c-0.1-0.2-0.2-0.4-0.3-0.6c0-0.1-0.1-0.2-0.1-0.3c-0.1-0.2-0.3-0.4-0.5-0.6c-0.1-0.1-0.1-0.1-0.2-0.2l0,0L73.4,48.4
				c-2-2-5.2-2-7.1,0c-2,2-2,5.2,0,7.1l8.1,8.1H50.5v0c-2.6,0.1-4.8,2.3-4.8,5c0,2.7,2.1,4.9,4.8,5v0h23.9l-8.1,8.1
				c-2,2-2,5.2,0,7.1c2,2,5.2,2,7.1,0l16.7-16.7l0,0c0.1-0.1,0.1-0.1,0.2-0.2C90.5,71.8,90.6,71.6,90.8,71.4z"/>
			<path class="st2" d="M91,71.6c0.1-0.1,0.1-0.2,0.1-0.2c0.1-0.2,0.2-0.4,0.3-0.6c0-0.1,0.1-0.2,0.1-0.3c0.1-0.2,0.1-0.4,0.2-0.6
				c0-0.1,0-0.3,0-0.4c0-0.2,0-0.3,0-0.5c0-0.2,0-0.4,0-0.5c0-0.1,0-0.3,0-0.4c0-0.2-0.1-0.4-0.2-0.6c0-0.1-0.1-0.2-0.1-0.3
				c-0.1-0.2-0.2-0.4-0.3-0.6c0-0.1-0.1-0.2-0.1-0.3c-0.1-0.2-0.3-0.4-0.5-0.6c-0.1-0.1-0.1-0.1-0.2-0.2l0,0L73.7,48.6
				c-2-2-5.2-2-7.1,0c-2,2-2,5.2,0,7.1l8.1,8.1H50.7v0c-2.6,0.1-4.8,2.3-4.8,5c0,2.7,2.1,4.9,4.8,5v0h23.9L66.5,82c-2,2-2,5.2,0,7.1
				c2,2,5.2,2,7.1,0l16.7-16.7l0,0c0.1-0.1,0.1-0.1,0.2-0.2C90.7,72,90.9,71.8,91,71.6z"/>
			<path class="st2" d="M91.3,71.9c0.1-0.1,0.1-0.2,0.1-0.2c0.1-0.2,0.2-0.4,0.3-0.6c0-0.1,0.1-0.2,0.1-0.3c0.1-0.2,0.1-0.4,0.2-0.6
				c0-0.1,0-0.3,0-0.4c0-0.2,0-0.3,0-0.5c0-0.2,0-0.4,0-0.5c0-0.1,0-0.3,0-0.4c0-0.2-0.1-0.4-0.2-0.6c0-0.1-0.1-0.2-0.1-0.3
				c-0.1-0.2-0.2-0.4-0.3-0.6c0-0.1-0.1-0.2-0.1-0.3c-0.1-0.2-0.3-0.4-0.5-0.6c-0.1-0.1-0.1-0.1-0.2-0.2l0,0L73.9,48.9
				c-2-2-5.2-2-7.1,0c-2,2-2,5.2,0,7.1l8.1,8.1H51v0c-2.6,0.1-4.8,2.3-4.8,5c0,2.7,2.1,4.9,4.8,5v0h23.9l-8.1,8.1c-2,2-2,5.2,0,7.1
				c2,2,5.2,2,7.1,0l16.7-16.7l0,0c0.1-0.1,0.1-0.1,0.2-0.2C91,72.3,91.1,72.1,91.3,71.9z"/>
			<path class="st2" d="M91.5,72.1c0.1-0.1,0.1-0.2,0.1-0.2c0.1-0.2,0.2-0.4,0.3-0.6c0-0.1,0.1-0.2,0.1-0.3c0.1-0.2,0.1-0.4,0.2-0.6
				c0-0.1,0-0.3,0-0.4c0-0.2,0-0.3,0-0.5c0-0.2,0-0.4,0-0.5c0-0.1,0-0.3,0-0.4c0-0.2-0.1-0.4-0.2-0.6c0-0.1-0.1-0.2-0.1-0.3
				c-0.1-0.2-0.2-0.4-0.3-0.6c0-0.1-0.1-0.2-0.1-0.3c-0.1-0.2-0.3-0.4-0.5-0.6c-0.1-0.1-0.1-0.1-0.2-0.2l0,0L74.1,49.1
				c-2-2-5.2-2-7.1,0c-2,2-2,5.2,0,7.1l8.1,8.1H51.2v0c-2.6,0.1-4.8,2.3-4.8,5c0,2.7,2.1,4.9,4.8,5v0h23.9L67,82.5c-2,2-2,5.2,0,7.1
				c2,2,5.2,2,7.1,0l16.7-16.7l0,0c0.1-0.1,0.1-0.1,0.2-0.2C91.2,72.5,91.4,72.3,91.5,72.1z"/>
			<path class="st2" d="M91.7,72.4c0.1-0.1,0.1-0.2,0.1-0.2c0.1-0.2,0.2-0.4,0.3-0.6c0-0.1,0.1-0.2,0.1-0.3c0.1-0.2,0.1-0.4,0.2-0.6
				c0-0.1,0-0.3,0-0.4c0-0.2,0-0.3,0-0.5c0-0.2,0-0.4,0-0.5c0-0.1,0-0.3,0-0.4c0-0.2-0.1-0.4-0.2-0.6c0-0.1-0.1-0.2-0.1-0.3
				c-0.1-0.2-0.2-0.4-0.3-0.6c0-0.1-0.1-0.2-0.1-0.3c-0.1-0.2-0.3-0.4-0.5-0.6c-0.1-0.1-0.1-0.1-0.2-0.2l0,0L74.4,49.4
				c-2-2-5.2-2-7.1,0c-2,2-2,5.2,0,7.1l8.1,8.1H51.4v0c-2.6,0.1-4.8,2.3-4.8,5c0,2.7,2.1,4.9,4.8,5v0h23.9l-8.1,8.1
				c-2,2-2,5.2,0,7.1c2,2,5.2,2,7.1,0l16.7-16.7l0,0c0.1-0.1,0.1-0.1,0.2-0.2C91.4,72.8,91.6,72.6,91.7,72.4z"/>
			<path class="st2" d="M92,72.6c0.1-0.1,0.1-0.2,0.1-0.2c0.1-0.2,0.2-0.4,0.3-0.6c0-0.1,0.1-0.2,0.1-0.3c0.1-0.2,0.1-0.4,0.2-0.6
				c0-0.1,0-0.3,0-0.4c0-0.2,0-0.3,0-0.5c0-0.2,0-0.4,0-0.5c0-0.1,0-0.3,0-0.4c0-0.2-0.1-0.4-0.2-0.6c0-0.1-0.1-0.2-0.1-0.3
				c-0.1-0.2-0.2-0.4-0.3-0.6c0-0.1-0.1-0.2-0.1-0.3c-0.1-0.2-0.3-0.4-0.5-0.6c-0.1-0.1-0.1-0.1-0.2-0.2l0,0L74.6,49.6
				c-2-2-5.2-2-7.1,0c-2,2-2,5.2,0,7.1l8.1,8.1H51.7v0c-2.6,0.1-4.8,2.3-4.8,5c0,2.7,2.1,4.9,4.8,5v0h23.9L67.5,83c-2,2-2,5.2,0,7.1
				c2,2,5.2,2,7.1,0l16.7-16.7l0,0c0.1-0.1,0.1-0.1,0.2-0.2C91.7,73,91.9,72.8,92,72.6z"/>
			<path class="st2" d="M92.2,72.8c0.1-0.1,0.1-0.2,0.1-0.2c0.1-0.2,0.2-0.4,0.3-0.6c0-0.1,0.1-0.2,0.1-0.3c0.1-0.2,0.1-0.4,0.2-0.6
				c0-0.1,0-0.3,0-0.4c0-0.2,0-0.3,0-0.5c0-0.2,0-0.4,0-0.5c0-0.1,0-0.3,0-0.4c0-0.2-0.1-0.4-0.2-0.6c0-0.1-0.1-0.2-0.1-0.3
				c-0.1-0.2-0.2-0.4-0.3-0.6c0-0.1-0.1-0.2-0.1-0.3c-0.1-0.2-0.3-0.4-0.5-0.6c-0.1-0.1-0.1-0.1-0.2-0.2l0,0L74.9,49.8
				c-2-2-5.2-2-7.1,0c-2,2-2,5.2,0,7.1l8.1,8.1H51.9v0c-2.6,0.1-4.8,2.3-4.8,5c0,2.7,2.1,4.9,4.8,5v0h23.9l-8.1,8.1
				c-2,2-2,5.2,0,7.1c2,2,5.2,2,7.1,0l16.7-16.7l0,0c0.1-0.1,0.1-0.1,0.2-0.2C91.9,73.2,92.1,73.1,92.2,72.8z"/>
			<path class="st2" d="M92.5,73.1c0.1-0.1,0.1-0.2,0.1-0.2c0.1-0.2,0.2-0.4,0.3-0.6c0-0.1,0.1-0.2,0.1-0.3c0.1-0.2,0.1-0.4,0.2-0.6
				c0-0.1,0-0.3,0-0.4c0-0.2,0-0.3,0-0.5c0-0.2,0-0.4,0-0.5c0-0.1,0-0.3,0-0.4c0-0.2-0.1-0.4-0.2-0.6c0-0.1-0.1-0.2-0.1-0.3
				c-0.1-0.2-0.2-0.4-0.3-0.6c0-0.1-0.1-0.2-0.1-0.3c-0.1-0.2-0.3-0.4-0.5-0.6c-0.1-0.1-0.1-0.1-0.2-0.2l0,0L75.1,50.1
				c-2-2-5.2-2-7.1,0c-2,2-2,5.2,0,7.1l8.1,8.1H52.2v0c-2.6,0.1-4.8,2.3-4.8,5c0,2.7,2.1,4.9,4.8,5v0h23.9L68,83.5c-2,2-2,5.2,0,7.1
				c2,2,5.2,2,7.1,0l16.7-16.7l0,0c0.1-0.1,0.1-0.1,0.2-0.2C92.2,73.5,92.3,73.3,92.5,73.1z"/>
			<path class="st2" d="M92.7,73.3c0.1-0.1,0.1-0.2,0.1-0.2c0.1-0.2,0.2-0.4,0.3-0.6c0-0.1,0.1-0.2,0.1-0.3c0.1-0.2,0.1-0.4,0.2-0.6
				c0-0.1,0-0.3,0-0.4c0-0.2,0-0.3,0-0.5c0-0.2,0-0.4,0-0.5c0-0.1,0-0.3,0-0.4c0-0.2-0.1-0.4-0.2-0.6c0-0.1-0.1-0.2-0.1-0.3
				c-0.1-0.2-0.2-0.4-0.3-0.6c0-0.1-0.1-0.2-0.1-0.3c-0.1-0.2-0.3-0.4-0.5-0.6c-0.1-0.1-0.1-0.1-0.2-0.2l0,0L75.4,50.3
				c-2-2-5.2-2-7.1,0c-2,2-2,5.2,0,7.1l8.1,8.1H52.4v0c-2.6,0.1-4.8,2.3-4.8,5c0,2.7,2.1,4.9,4.8,5v0h23.9l-8.1,8.1
				c-2,2-2,5.2,0,7.1c2,2,5.2,2,7.1,0l16.7-16.7l0,0c0.1-0.1,0.1-0.1,0.2-0.2C92.4,73.7,92.6,73.5,92.7,73.3z"/>
			<path class="st2" d="M93,73.6c0.1-0.1,0.1-0.2,0.1-0.2c0.1-0.2,0.2-0.4,0.3-0.6c0-0.1,0.1-0.2,0.1-0.3c0.1-0.2,0.1-0.4,0.2-0.6
				c0-0.1,0-0.3,0-0.4c0-0.2,0-0.3,0-0.5c0-0.2,0-0.4,0-0.5c0-0.1,0-0.3,0-0.4c0-0.2-0.1-0.4-0.2-0.6c0-0.1-0.1-0.2-0.1-0.3
				c-0.1-0.2-0.2-0.4-0.3-0.6c0-0.1-0.1-0.2-0.1-0.3c-0.1-0.2-0.3-0.4-0.5-0.6c-0.1-0.1-0.1-0.1-0.2-0.2l0,0L75.6,50.6
				c-2-2-5.2-2-7.1,0c-2,2-2,5.2,0,7.1l8.1,8.1H52.6v0c-2.6,0.1-4.8,2.3-4.8,5c0,2.7,2.1,4.9,4.8,5v0h23.9L68.5,84c-2,2-2,5.2,0,7.1
				c2,2,5.2,2,7.1,0l16.7-16.7l0,0c0.1-0.1,0.1-0.1,0.2-0.2C92.7,74,92.8,73.8,93,73.6z"/>
			<path class="st2" d="M93.2,73.8c0.1-0.1,0.1-0.2,0.1-0.2c0.1-0.2,0.2-0.4,0.3-0.6c0-0.1,0.1-0.2,0.1-0.3c0.1-0.2,0.1-0.4,0.2-0.6
				c0-0.1,0-0.3,0-0.4c0-0.2,0-0.3,0-0.5c0-0.2,0-0.4,0-0.5c0-0.1,0-0.3,0-0.4c0-0.2-0.1-0.4-0.2-0.6c0-0.1-0.1-0.2-0.1-0.3
				c-0.1-0.2-0.2-0.4-0.3-0.6c0-0.1-0.1-0.2-0.1-0.3c-0.1-0.2-0.3-0.4-0.5-0.6c-0.1-0.1-0.1-0.1-0.2-0.2l0,0L75.8,50.8
				c-2-2-5.2-2-7.1,0c-2,2-2,5.2,0,7.1l8.1,8.1H52.9v0c-2.6,0.1-4.8,2.3-4.8,5c0,2.7,2.1,4.9,4.8,5v0h23.9l-8.1,8.1
				c-2,2-2,5.2,0,7.1c2,2,5.2,2,7.1,0l16.7-16.7l0,0c0.1-0.1,0.1-0.1,0.2-0.2C92.9,74.2,93.1,74,93.2,73.8z"/>
		</g>
		<path class="st3" d="M56.6,37.2c0.1-0.1,0.1-0.2,0.1-0.2c0.1-0.2,0.2-0.4,0.3-0.6c0-0.1,0.1-0.2,0.1-0.3c0.1-0.2,0.1-0.4,0.2-0.6
			c0-0.1,0-0.3,0-0.4c0-0.2,0-0.3,0-0.5c0-0.2,0-0.4,0-0.5c0-0.1,0-0.3,0-0.4c0-0.2-0.1-0.4-0.2-0.6c0-0.1-0.1-0.2-0.1-0.3
			c-0.1-0.2-0.2-0.4-0.3-0.6c0-0.1-0.1-0.2-0.1-0.3c-0.1-0.2-0.3-0.4-0.5-0.6C56.1,31.1,56.1,31,56,31l0,0L39.3,14.2
			c-2-2-5.2-2-7.1,0c-2,2-2,5.2,0,7.1l8.1,8.1H16.3v0c-2.6,0.1-4.8,2.3-4.8,5c0,2.7,2.1,4.9,4.8,5v0h23.9l-8.1,8.1c-2,2-2,5.2,0,7.1
			c2,2,5.2,2,7.1,0L56,38l0,0c0.1-0.1,0.1-0.1,0.2-0.2C56.3,37.6,56.5,37.4,56.6,37.2z"/>
	</g>
</g>
</svg>
