<!-- Generator: Adobe Illustrator 20.1.0, SVG Export Plug-In  -->
<svg version="1.1"
	 xmlns="http://www.w3.org/2000/svg" xmlns:xlink="http://www.w3.org/1999/xlink" xmlns:a="http://ns.adobe.com/AdobeSVGViewerExtensions/3.0/"
	 x="0px" y="0px" width="180.7px" height="42.5px" viewBox="0 0 180.7 42.5"
	 style="overflow:scroll;enable-background:new 0 0 180.7 42.5;" xml:space="preserve">
<style type="text/css">
	.st0{fill:#009ABF;}
</style>
<defs>
</defs>
<g>
	<g>
		<path class="st0" d="M0.5,1.5h4.4c5.2,0,8,2.8,8,8.4c0,5.6-3.4,8.4-8,8.4H0.5V1.5z M3.5,15.9h1c3.5,0,5-2.4,5-6c0-3.7-1.6-6-5-6
			h-1V15.9z"/>
		<path class="st0" d="M15.3,0.7h3.1v2.9h-3.1V0.7z M15.3,5.9h3v12.4h-3V5.9z"/>
		<path class="st0" d="M22,8.1h-2.1V5.9H22V3.4C22,1.6,22.8,0,25.6,0c0.8,0,1.6,0.2,2.1,0.3l-0.1,2.2c-0.4-0.1-0.7-0.2-1.2-0.2
			c-0.9,0-1.4,0.6-1.4,1.5v2.1h2.3v2.2H25v10.2h-3V8.1z M28.8,0.7h3.1v2.9h-3.1V0.7z M28.9,5.9h3v12.4h-3V5.9z"/>
		<path class="st0" d="M43,18c-0.7,0.3-1.7,0.5-2.9,0.5c-4.1,0-5.8-2.9-5.8-6.4c0-3.5,1.8-6.4,6-6.4c0.9,0,2,0.3,2.6,0.5l-0.2,2.4
			C42.1,8.3,41.4,8,40.6,8c-2.3,0-3.2,1.5-3.2,4.2c0,2.3,1.1,4.1,3.4,4.1c0.7,0,1.7-0.3,2.1-0.6L43,18z"/>
		<path class="st0" d="M54.3,16.3c0,0.8,0,1.5,0.1,2h-2.8c0-0.6-0.1-1.3-0.1-1.9l-0.1,0l0,0c-0.6,0.9-1.3,2.1-3.3,2.1
			c-2.8,0-3.6-2.1-3.6-4.6v-8h3v7.4c0,1.9,0.5,2.7,1.8,2.7c1.6,0,2-1.4,2-3V5.9h3V16.3z"/>
		<path class="st0" d="M57.1,0.3h3v18h-3V0.3z"/>
		<path class="st0" d="M63.9,3.4l3-0.9v3.5h2.5v2.2h-2.5v6.4c0,1.3,0.5,1.7,1.3,1.7c0.5,0,0.9-0.1,1.1-0.3v2.1
			c-0.5,0.2-1.1,0.4-2,0.4c-2.2,0-3.5-1-3.5-3.6V8.1h-2V5.9h2V3.4z"/>
		<path class="st0" d="M71.6,6.6c0.8-0.4,2-0.9,3.9-0.9c3.8,0,4.7,1.9,4.7,5v5.4c0,0.9,0.1,1.7,0.2,2.2h-2.7
			c-0.1-0.5-0.2-1.1-0.2-1.7h0c-0.7,1-1.7,1.9-3.5,1.9c-1.9,0-3.7-1.3-3.7-3.6c0-3.4,2.7-4.2,6.5-4.2h0.6v-0.5
			c0-1.2-0.6-2.4-2.3-2.4c-1.5,0-2.8,0.7-3.4,1.2L71.6,6.6z M77.4,12.2h-0.3c-2.5,0-4.1,0.5-4.1,2.3c0,1.1,0.7,1.9,1.9,1.9
			c1.8,0,2.4-1.3,2.4-3.5V12.2z"/>
		<path class="st0" d="M92.9,0.3v15.9c0,0.9,0,1.7,0.1,2.1h-2.8c0-0.4-0.1-1.1-0.1-1.9H90c-0.5,1.1-1.4,2.1-3.3,2.1
			c-3.1,0-4.3-2.9-4.3-6.4c0-4,1.6-6.4,4.3-6.4c1.8,0,2.8,1,3.2,2h0V0.3H92.9z M87.6,16.3c1.8,0,2.4-1.9,2.4-4.2
			c0-2.4-0.7-4.2-2.3-4.2c-1.7,0-2.2,1.6-2.2,4.1C85.4,14.9,85.8,16.3,87.6,16.3z"/>
		<path class="st0" d="M101.4,8c0-0.9,0-1.7-0.1-2.1h2.8c0,0.4,0.1,1.1,0.1,1.9h0.1c0.5-1.1,1.4-2.1,3.3-2.1c3.1,0,4.3,2.9,4.3,6.4
			c0,4-1.6,6.4-4.3,6.4c-1.8,0-2.8-1-3.2-2h0v7h-3V8z M106.7,16.3c1.7,0,2.2-1.6,2.2-4.1c0-2.9-0.5-4.3-2.2-4.3
			c-1.8,0-2.4,1.9-2.4,4.2C104.4,14.5,105.1,16.3,106.7,16.3z"/>
		<path class="st0" d="M114.6,6.6c0.8-0.4,2-0.9,3.9-0.9c3.8,0,4.7,1.9,4.7,5v5.4c0,0.9,0.1,1.7,0.2,2.2h-2.7
			c-0.1-0.5-0.2-1.1-0.2-1.7h0c-0.7,1-1.7,1.9-3.5,1.9c-1.9,0-3.7-1.3-3.7-3.6c0-3.4,2.7-4.2,6.5-4.2h0.6v-0.5
			c0-1.2-0.6-2.4-2.3-2.4c-1.5,0-2.8,0.7-3.4,1.2L114.6,6.6z M120.5,12.2h-0.3c-2.5,0-4.1,0.5-4.1,2.3c0,1.1,0.7,1.9,1.9,1.9
			c1.8,0,2.4-1.3,2.4-3.5V12.2z"/>
		<path class="st0" d="M125.9,8c0-0.8,0-1.5-0.1-2h2.7c0,0.7,0.1,1.5,0.1,2.3h0c0.4-1,1.3-2.4,3.1-2.4c0.2,0,0.3,0,0.5,0.1v2.8
			c-0.3-0.1-0.5-0.1-0.8-0.1c-1.2,0-2.6,0.7-2.6,3v6.8h-3V8z"/>
		<path class="st0" d="M134.4,6.6c0.8-0.4,2-0.9,3.9-0.9c3.8,0,4.7,1.9,4.7,5v5.4c0,0.9,0.1,1.7,0.2,2.2h-2.7
			c-0.1-0.5-0.2-1.1-0.2-1.7h0c-0.7,1-1.7,1.9-3.5,1.9c-1.9,0-3.7-1.3-3.7-3.6c0-3.4,2.7-4.2,6.5-4.2h0.6v-0.5
			c0-1.2-0.6-2.4-2.3-2.4c-1.5,0-2.8,0.7-3.4,1.2L134.4,6.6z M140.2,12.2H140c-2.5,0-4.1,0.5-4.1,2.3c0,1.1,0.7,1.9,1.9,1.9
			c1.8,0,2.4-1.3,2.4-3.5V12.2z"/>
		<path class="st0" d="M0.1,31.9c0-0.9,0-1.6-0.1-2h3c0,0.6,0.1,1.3,0.1,1.9h0c0.5-1,1.4-2.1,3.1-2.1c2.1,0,2.8,1.3,3.1,2
			c0.6-0.9,1.5-2,3.3-2c2.7,0,3.6,1.9,3.6,4.9v7.6h-3v-7.8c0-1.5-0.5-2.3-1.6-2.3c-1.3,0-2,1.2-2,2.6v7.5h-3v-7.8
			c0-1.5-0.5-2.3-1.6-2.3c-1.3,0-2,1.2-2,2.6v7.5h-3V31.9z"/>
		<path class="st0" d="M19.2,30.6c0.8-0.4,2-0.9,3.9-0.9c3.8,0,4.7,1.9,4.7,5v5.4c0,0.9,0.1,1.7,0.2,2.2h-2.7
			c-0.1-0.5-0.2-1.1-0.2-1.7h0c-0.7,1-1.7,1.9-3.5,1.9c-1.9,0-3.7-1.3-3.7-3.6c0-3.4,2.7-4.2,6.5-4.2h0.6v-0.5
			c0-1.2-0.6-2.4-2.3-2.4c-1.5,0-2.8,0.7-3.4,1.2L19.2,30.6z M25.1,36.2h-0.3c-2.5,0-4.1,0.5-4.1,2.3c0,1.1,0.7,1.9,1.9,1.9
			c1.8,0,2.4-1.3,2.4-3.5V36.2z"/>
		<path class="st0" d="M30.4,32c0-0.8,0-1.5-0.1-2H33c0,0.6,0.1,1.3,0.1,1.9h0c0.4-0.7,1.3-2.1,3.3-2.1c2.8,0,3.6,2.1,3.6,4.6v8h-3
			v-7.4c0-1.9-0.5-2.7-1.7-2.7c-1.6,0-2.1,1.3-2.1,2.9v7.2h-3V32z"/>
		<path class="st0" d="M43.7,27.4l3-0.9v3.5h2.5v2.2h-2.5v6.4c0,1.3,0.5,1.7,1.3,1.7c0.5,0,0.9-0.1,1.1-0.3v2.1
			c-0.5,0.2-1.1,0.4-2,0.4c-2.2,0-3.5-1-3.5-3.6v-6.8h-2v-2.2h2V27.4z"/>
		<path class="st0" d="M59.9,41.7c-0.6,0.3-1.9,0.8-3.7,0.8c-4,0-5.7-2.9-5.7-6.2c0-3.7,1.9-6.6,5.1-6.6c2.7,0,4.9,1.6,4.9,6.6v0.6
			h-7.2c0,2.1,0.8,3.4,3.1,3.4c1.8,0,2.7-0.6,3.2-1L59.9,41.7z M57.6,35c0-2.2-0.7-3.3-2.1-3.3c-1.6,0-2.2,1.7-2.2,3.3H57.6z"/>
		<path class="st0" d="M62.5,32c0-0.8,0-1.5-0.1-2h2.8c0,0.6,0.1,1.3,0.1,1.9h0c0.4-0.7,1.3-2.1,3.3-2.1c2.8,0,3.6,2.1,3.6,4.6v8h-3
			v-7.4c0-1.9-0.5-2.7-1.7-2.7c-1.6,0-2.1,1.3-2.1,2.9v7.2h-3V32z"/>
		<path class="st0" d="M83.8,41.7c-0.6,0.3-1.9,0.8-3.7,0.8c-4,0-5.7-2.9-5.7-6.2c0-3.7,1.9-6.6,5.1-6.6c2.7,0,4.9,1.6,4.9,6.6v0.6
			h-7.2c0,2.1,0.8,3.4,3.1,3.4c1.8,0,2.7-0.6,3.2-1L83.8,41.7z M81.6,35c0-2.2-0.7-3.3-2.1-3.3c-1.6,0-2.2,1.7-2.2,3.3H81.6z"/>
		<path class="st0" d="M86.6,32c0-0.8,0-1.5-0.1-2h2.7c0,0.7,0.1,1.5,0.1,2.3h0c0.4-1,1.3-2.4,3.1-2.4c0.2,0,0.3,0,0.5,0.1v2.8
			c-0.3-0.1-0.5-0.1-0.8-0.1c-1.2,0-2.6,0.7-2.6,3v6.8h-3V32z"/>
		<path class="st0" d="M109.8,41.7c-0.6,0.3-1.9,0.8-3.7,0.8c-4,0-5.7-2.9-5.7-6.2c0-3.7,1.9-6.6,5.1-6.6c2.7,0,4.9,1.6,4.9,6.6v0.6
			h-7.2c0,2.1,0.8,3.4,3.1,3.4c1.8,0,2.7-0.6,3.2-1L109.8,41.7z M107.5,35c0-2.2-0.7-3.3-2.1-3.3c-1.6,0-2.2,1.7-2.2,3.3H107.5z"/>
		<path class="st0" d="M112.8,24.3h3v18h-3V24.3z"/>
		<path class="st0" d="M124.2,39.4c0.5,0.2,1.7,0.8,3.1,0.8c1.1,0,1.9-0.3,1.9-1.2c0-0.5-0.2-0.9-1.3-1.6l-1.2-0.7
			c-1.2-0.7-2.6-1.5-2.6-3.5c0-1.7,1.7-3.5,4.3-3.5c1.6,0,2.8,0.4,3.1,0.5l-0.2,2.3c-0.7-0.3-1.5-0.6-2.6-0.6
			c-1.2,0-1.7,0.5-1.7,1.2c0,0.7,0.5,1,1.4,1.6l1.5,0.9c1.5,1,2.3,1.7,2.3,3.1c0,2.3-1.9,3.6-4.6,3.6c-1.5,0-2.8-0.4-3.4-0.6
			L124.2,39.4z"/>
		<path class="st0" d="M143.8,40.3c0,0.8,0,1.5,0.1,2h-2.8c0-0.6-0.1-1.3-0.1-1.9l-0.1,0l0,0c-0.6,0.9-1.3,2.1-3.3,2.1
			c-2.8,0-3.6-2.1-3.6-4.6v-8h3v7.4c0,1.9,0.5,2.7,1.8,2.7c1.6,0,2-1.4,2-3v-7.1h3V40.3z"/>
		<path class="st0" d="M155.3,41.7c-0.6,0.3-1.9,0.8-3.7,0.8c-4,0-5.7-2.9-5.7-6.2c0-3.7,1.9-6.6,5.1-6.6c2.7,0,4.9,1.6,4.9,6.6v0.6
			h-7.2c0,2.1,0.8,3.4,3.1,3.4c1.8,0,2.7-0.6,3.2-1L155.3,41.7z M153,35c0-2.2-0.7-3.3-2.1-3.3c-1.6,0-2.2,1.7-2.2,3.3H153z"/>
		<path class="st0" d="M158,32c0-0.8,0-1.5-0.1-2h2.8c0,0.6,0.1,1.3,0.1,1.9h0c0.4-0.7,1.3-2.1,3.3-2.1c2.8,0,3.6,2.1,3.6,4.6v8h-3
			v-7.4c0-1.9-0.5-2.7-1.7-2.7c-1.6,0-2.1,1.3-2.1,2.9v7.2h-3V32z M159.3,28.3c0-0.8,0.5-2.8,2.3-2.8c1.1,0,2,0.8,2.8,0.8
			c0.5,0,0.7-0.5,0.7-0.9h1.5c0,0.7-0.5,2.8-2.2,2.8c-0.9,0-1.8-0.8-2.7-0.8c-0.6,0-0.9,0.4-0.9,0.9H159.3z"/>
		<path class="st0" d="M175.3,29.7c2.5,0,5.4,1.3,5.4,6.4c0,5.2-2.9,6.4-5.4,6.4c-2.5,0-5.4-1.2-5.4-6.4
			C169.9,31.1,172.8,29.7,175.3,29.7z M175.3,40.4c1.9,0,2.4-2.2,2.4-4.3s-0.4-4.2-2.4-4.2s-2.4,2.2-2.4,4.2S173.4,40.4,175.3,40.4z
			"/>
	</g>
</g>
</svg>
