<!-- Generator: Adobe Illustrator 20.1.0, SVG Export Plug-In  -->
<svg version="1.1"
	 xmlns="http://www.w3.org/2000/svg" xmlns:xlink="http://www.w3.org/1999/xlink" xmlns:a="http://ns.adobe.com/AdobeSVGViewerExtensions/3.0/"
	 x="0px" y="0px" width="145.9px" height="45.8px" viewBox="0 0 145.9 45.8"
	 style="overflow:scroll;enable-background:new 0 0 145.9 45.8;" xml:space="preserve">
<style type="text/css">
	.st0{fill:#00893F;}
</style>
<defs>
</defs>
<g>
	<path class="st0" d="M24.5,40l0.2,1h-0.9l0.3-1c0.1-0.5,0.2-1,0.2-1.3h0C24.4,39.1,24.4,39.5,24.5,40 M29.2,40.6h-0.7v1.5h0.7
		c0.5,0,0.7-0.2,0.7-0.8C29.9,40.9,29.7,40.6,29.2,40.6 M29.8,38.9c0-0.4-0.2-0.7-0.6-0.7h-0.6v1.4h0.6
		C29.6,39.6,29.8,39.4,29.8,38.9 M38,45.8H0V0h38V45.8z M2.7,34.6l26.6,0c3.4,0,6.1-2.7,6.1-6l0-26H8.7C5.4,2.6,2.7,5,2.7,8.3
		L2.7,34.6z M6.2,41.4c0-1.3-0.8-1.7-1.8-2c-0.5-0.2-0.7-0.3-0.7-0.7c0-0.4,0.2-0.6,0.7-0.6c0.4,0,0.7,0.1,1.1,0.3l0.5-1
		c-0.4-0.3-0.9-0.4-1.6-0.4c-1.1,0-1.9,0.5-1.9,1.8c0,1.2,0.6,1.6,1.6,1.9c0.6,0.2,0.8,0.3,0.8,0.8c0,0.4-0.3,0.7-0.9,0.7
		c-0.5,0-1-0.2-1.4-0.5l-0.4,1c0.4,0.3,1.1,0.6,1.9,0.6C5.7,43.4,6.2,42.6,6.2,41.4 M10.7,42.8l-0.6-1c-0.3,0.3-0.6,0.4-1,0.4
		c-0.7,0-1-0.4-1-2.1c0-1.6,0.2-2,1-2c0.4,0,0.7,0.1,1,0.4l0.5-1c-0.3-0.3-0.9-0.5-1.5-0.5c-1.5,0-2.4,0.8-2.4,3.2
		c0,2.2,0.8,3.1,2.4,3.1C9.9,43.4,10.4,43.1,10.7,42.8 M15.3,37.2H14v2.3h-1.4v-2.3h-1.3v6.1h1.3v-2.6H14v2.6h1.3V37.2z M21.2,43.2
		l1.2-6.1h-1.3l-0.3,2c-0.2,0.9-0.2,1.8-0.2,2.4h0c-0.1-0.7-0.2-1.6-0.3-2.3l-0.4-2.2h-1.1l-0.4,2.2c-0.2,1-0.3,1.8-0.3,2.2h0
		c0-0.3-0.1-1.4-0.2-2.4l-0.4-2.1H16l1.2,6.1h1.4l0.5-2.5c0.1-0.6,0.2-1.3,0.2-1.7h0c0,0.4,0.1,1,0.2,1.7l0.5,2.5H21.2z M26.6,43.2
		L25,37.2h-1.3L22,43.2h1.3l0.3-1.2H25l0.3,1.2H26.6z M31.3,41.5c0-0.9-0.4-1.3-1-1.4c0.6-0.2,0.8-0.6,0.8-1.3
		c0-1.1-0.6-1.6-1.6-1.6h-2.3v6.1h2.2C30.7,43.2,31.3,42.7,31.3,41.5 M35.5,42.1h-2.2v-1.5H35v-1.1h-1.6v-1.3h2v-1.1H32v6.1h3.5
		V42.1z M32.7,28.8c0-1.9-0.9-2.8-2.9-4.8c0,0-12.9-12.6-13.3-12.9c-0.3-0.3-0.2-1,0.4-1c0.3,0,12.3,0,12.3,0c1.6,0,3.4-1.5,3.4-3.3
		l0-1.6H8.8C6.7,5.2,5.4,7,5.3,8.4c0,1.9,0.9,2.8,2.9,4.8c0,0,12.9,12.6,13.3,12.9c0.3,0.3,0.2,1-0.4,1c-0.3,0-12.3,0-12.3,0
		c-1.6,0-3.4,1.5-3.4,3.3V32l23.9,0C31.3,32,32.6,30.2,32.7,28.8"/>
	<g>
		<path class="st0" d="M48.8,16.6l0.6-1.3c0.7,0.5,1.4,0.8,2.2,0.8c1.1,0,1.6-0.5,1.6-1.3c0-1-0.5-1.2-1.6-1.6
			c-1.6-0.5-2.5-1.2-2.5-2.9c0-1.8,1.2-2.6,2.9-2.6c1.1,0,1.8,0.2,2.5,0.7L54,9.5C53.4,9.2,53,9,52.3,9c-0.8,0-1.3,0.4-1.3,1.1
			c0,0.8,0.3,1.1,1.3,1.4c1.5,0.5,2.8,1,2.8,3.1c0,1.6-0.8,2.9-3.2,2.9C50.6,17.5,49.5,17.1,48.8,16.6z"/>
		<path class="st0" d="M56.3,13.8c0-2.6,1-3.6,2.9-3.6c0.9,0,1.5,0.2,2.1,0.8l-0.8,1c-0.4-0.4-0.7-0.6-1.2-0.6
			c-0.9,0-1.2,0.4-1.2,2.3c0,2,0.4,2.4,1.3,2.4c0.6,0,0.9-0.2,1.2-0.6l0.8,1c-0.5,0.5-1.2,0.8-2.1,0.8
			C57.3,17.5,56.3,16.3,56.3,13.8z"/>
		<path class="st0" d="M62.7,7.3h1.6V11c0.5-0.5,1.1-0.8,1.9-0.8c1.1,0,1.8,0.5,1.8,1.8v5.3h-1.6v-4.9c0-0.7-0.2-0.9-0.8-0.9
			c-0.5,0-1,0.3-1.4,0.6v5.2h-1.6V7.3z"/>
		<path class="st0" d="M69.2,10.3h1.6l0.7,3c0.2,0.7,0.3,1.8,0.3,2.1h0c0-0.3,0.2-1.3,0.4-2l0.8-3.2h1.5l0.8,3.2
			c0.2,0.7,0.3,1.7,0.4,1.9h0c0-0.3,0.2-1.4,0.3-2.1l0.7-3h1.6l-1.9,7H75L74.2,14c-0.2-0.6-0.3-1.5-0.4-1.9h0
			c-0.1,0.4-0.2,1.2-0.4,2l-0.8,3.3h-1.5L69.2,10.3z"/>
		<path class="st0" d="M79.2,15.3c0-1.6,1-2.3,3.2-2.3h0.5v-0.4c0-0.7-0.1-1.1-0.9-1.1c-0.7,0-1.4,0.3-2,0.6L79.4,11
			c0.8-0.5,1.6-0.8,2.7-0.8c1.6,0,2.3,0.6,2.3,2.2v5h-1.2L83,16.7c-0.4,0.4-0.9,0.8-1.7,0.8C79.9,17.5,79.2,16.7,79.2,15.3z
			 M82.9,15.8V14h-0.3c-1.5,0-1.8,0.4-1.8,1.3c0,0.8,0.2,1.1,0.8,1.1C82.2,16.3,82.6,16,82.9,15.8z"/>
		<path class="st0" d="M87.8,16.7l-0.2,0.6h-1.3v-10H88V11c0.4-0.4,1-0.8,1.8-0.8c1.4,0,2.4,0.8,2.4,3.6c0,2.8-0.8,3.8-2.4,3.8
			C88.9,17.5,88.2,17.1,87.8,16.7z M90.4,13.8c0-2-0.3-2.4-1.1-2.4c-0.6,0-1,0.3-1.3,0.6v3.6c0.3,0.3,0.7,0.5,1.2,0.5
			C90.1,16.2,90.4,15.8,90.4,13.8z"/>
		<path class="st0" d="M93.3,13.8c0-2.6,1.1-3.6,2.9-3.6c1.9,0,2.8,1,2.8,3.6v0.5h-4c0.1,1.6,0.4,2,1.5,2c0.7,0,1.2-0.3,1.6-0.6
			l0.8,1.1c-0.6,0.5-1.3,0.8-2.4,0.8C94.4,17.5,93.3,16.4,93.3,13.8z M95.1,13.2h2.3c0-1.3-0.3-1.8-1.2-1.8
			C95.5,11.3,95.1,11.7,95.1,13.2z"/>
		<path class="st0" d="M104.1,7.8h2.8c2.1,0,3.3,0.9,3.3,2.9c0,1.9-0.8,3-3.1,3h-1.3v3.6h-1.7V7.8z M107,12.3c1,0,1.4-0.4,1.4-1.5
			c0-1.2-0.4-1.6-1.4-1.6h-1.2v3.1H107z"/>
		<path class="st0" d="M111.6,7.3h1.6V11c0.5-0.5,1.1-0.8,1.9-0.8c1.1,0,1.8,0.5,1.8,1.8v5.3h-1.6v-4.9c0-0.7-0.2-0.9-0.8-0.9
			c-0.5,0-1,0.3-1.4,0.6v5.2h-1.6V7.3z"/>
		<path class="st0" d="M118.4,15.3c0-1.6,1-2.3,3.2-2.3h0.5v-0.4c0-0.7-0.1-1.1-0.9-1.1c-0.7,0-1.4,0.3-2,0.6l-0.6-1.1
			c0.8-0.5,1.6-0.8,2.7-0.8c1.6,0,2.3,0.6,2.3,2.2v5h-1.2l-0.2-0.6c-0.4,0.4-0.9,0.8-1.7,0.8C119.1,17.5,118.4,16.7,118.4,15.3z
			 M122.1,15.8V14h-0.3c-1.5,0-1.8,0.4-1.8,1.3c0,0.8,0.2,1.1,0.8,1.1C121.4,16.3,121.8,16,122.1,15.8z"/>
		<path class="st0" d="M125.6,10.3h1.3l0.2,0.9c0.5-0.6,1.1-1,1.9-1c0.2,0,0.3,0,0.4,0.1l-0.3,1.6c-0.2-0.1-0.4-0.1-0.6-0.1
			c-0.5,0-0.9,0.2-1.3,0.5v5h-1.6V10.3z"/>
		<path class="st0" d="M130.5,10.3h1.3l0.2,0.7c0.6-0.5,1.2-0.9,2-0.9c0.7,0,1.2,0.3,1.5,0.9c0.6-0.5,1.2-0.9,2-0.9
			c1,0,1.7,0.5,1.7,1.8v5.3h-1.6v-4.9c0-0.7-0.2-0.9-0.7-0.9c-0.4,0-0.9,0.2-1.2,0.6v5.3h-1.6v-4.9c0-0.7-0.2-0.9-0.7-0.9
			c-0.4,0-0.8,0.3-1.2,0.6v5.2h-1.6V10.3z"/>
		<path class="st0" d="M140.6,15.3c0-1.6,1-2.3,3.2-2.3h0.5v-0.4c0-0.7-0.1-1.1-0.9-1.1c-0.7,0-1.4,0.3-2,0.6l-0.6-1.1
			c0.8-0.5,1.6-0.8,2.7-0.8c1.6,0,2.3,0.6,2.3,2.2v5h-1.2l-0.2-0.6c-0.4,0.4-0.9,0.8-1.7,0.8C141.3,17.5,140.6,16.7,140.6,15.3z
			 M144.3,15.8V14h-0.3c-1.5,0-1.8,0.4-1.8,1.3c0,0.8,0.2,1.1,0.8,1.1C143.6,16.3,144,16,144.3,15.8z"/>
	</g>
	<g>
		<path class="st0" d="M49.6,22.5h2.3l1.3,4.4c0.3,0.8,0.4,1.6,0.4,2.2h0c0.1-0.6,0.1-1.3,0.4-2.2l1.3-4.4h2.4V32h-1.7v-4.9
			c0-1.6,0.1-2.7,0.1-3.3h0c-0.1,0.5-0.4,1.9-0.7,3l-1.1,3.4h-1.6L51.7,27c-0.4-1.1-0.6-2.7-0.7-3.2h0c0,0.5,0.1,1.9,0.1,3.3V32
			h-1.5V22.5z"/>
		<path class="st0" d="M59.5,28.5c0-2.6,1.1-3.6,2.9-3.6c1.9,0,2.8,1,2.8,3.6V29h-4c0.1,1.6,0.4,2,1.5,2c0.7,0,1.2-0.3,1.6-0.6
			l0.8,1.1c-0.6,0.5-1.3,0.8-2.4,0.8C60.5,32.2,59.5,31.1,59.5,28.5z M60.8,23.4l2.7-1.9l0.8,1.4l-3,1.4L60.8,23.4z M61.2,27.8h2.3
			c0-1.3-0.3-1.8-1.2-1.8C61.6,26,61.3,26.4,61.2,27.8z"/>
		<path class="st0" d="M68.1,28.2L66.2,25h1.9l0.5,0.9c0.3,0.5,0.4,0.9,0.6,1.3h0c0.1-0.3,0.2-0.7,0.5-1.3l0.4-0.9h1.8L70,28.2
			l2.2,3.8h-1.9l-0.7-1.4c-0.3-0.5-0.4-0.9-0.6-1.3h0c-0.1,0.3-0.3,0.7-0.6,1.3L67.7,32h-1.8L68.1,28.2z"/>
		<path class="st0" d="M73.8,26.2l-0.9-0.2v-1h2.5v7h-1.6V26.2z M73.5,23c0-0.6,0.4-1,1-1c0.6,0,1,0.4,1,1c0,0.6-0.4,1-1,1
			C74,24,73.5,23.6,73.5,23z"/>
		<path class="st0" d="M76.9,28.5c0-2.6,1-3.6,2.9-3.6c0.9,0,1.5,0.2,2.1,0.8l-0.8,1c-0.4-0.4-0.7-0.6-1.2-0.6
			c-0.9,0-1.2,0.4-1.2,2.3c0,2,0.4,2.4,1.3,2.4c0.6,0,0.9-0.2,1.2-0.6l0.8,1c-0.5,0.5-1.2,0.8-2.1,0.8C77.9,32.2,76.9,31,76.9,28.5z
			"/>
		<path class="st0" d="M82.9,28.5c0-2.6,1.1-3.6,3-3.6c1.8,0,3,1,3,3.7c0,2.6-1.2,3.7-3,3.7C84.1,32.2,82.9,31.1,82.9,28.5z
			 M87.2,28.5c0-2-0.4-2.5-1.3-2.5c-0.9,0-1.3,0.5-1.3,2.5c0,2,0.4,2.5,1.3,2.5C86.9,31,87.2,30.5,87.2,28.5z"/>
	</g>
</g>
</svg>
