<!-- Generator: Adobe Illustrator 20.1.0, SVG Export Plug-In  -->
<svg version="1.1"
	 xmlns="http://www.w3.org/2000/svg" xmlns:xlink="http://www.w3.org/1999/xlink" xmlns:a="http://ns.adobe.com/AdobeSVGViewerExtensions/3.0/"
	 x="0px" y="0px" width="339px" height="108px" viewBox="0 0 339 108" style="overflow:scroll;enable-background:new 0 0 339 108;"
	 xml:space="preserve">
<style type="text/css">
	.st0{fill:#4E9D2D;}
	.st1{fill:#E63C2F;}
	.st2{fill:#838B91;}
	.st3{font-family:'FrutigerLTStd-BoldCn';}
	.st4{font-size:18.4263px;}
</style>
<defs>
</defs>
<g>
	<g>
		<path class="st0" d="M9.8,61.7v23.5H0V29.3h32.6c6.6,0,11.8,1.5,15.7,4.4c3.9,2.9,5.8,6.7,5.8,11.3c0,4.5-1.6,8.2-4.9,11.2
			c-3.8,3.6-9.4,5.4-16.6,5.4H9.8z M9.8,35.8v19.5h19.5c9.8,0,14.8-3.4,14.8-10.1c0-6.2-4.8-9.4-14.4-9.4H9.8z"/>
		<path class="st0" d="M65.6,29.3v55.8h-8.9V29.3H65.6z"/>
		<path class="st0" d="M81.4,56.9h-8.2c0.4-9,7.6-13.5,21.8-13.5c4.2,0,8.1,0.6,11.4,1.8c5.5,1.9,8.2,5.1,8.2,9.6v23.5
			c0,1.6,1,2.4,2.9,2.4c0.6,0,1.6-0.1,3-0.4v5c-2.5,0.5-4.1,0.8-4.8,0.8c-3.6,0-6.1-0.6-7.5-1.9c-1.1-0.9-1.7-2.4-1.9-4.3
			c-5.3,4.4-11.7,6.6-19.1,6.6c-4.9,0-8.8-1.1-11.9-3.3c-3.1-2.2-4.6-5-4.6-8.5c0-7.5,5.4-11.7,16.1-12.7l14.6-1.4
			c3.1-0.3,4.7-1.9,4.7-4.8c0-4.4-4.1-6.6-12.4-6.6c-4.5,0-7.7,0.9-9.6,2.7C82.6,52.9,81.8,54.6,81.4,56.9z M105.7,71.1v-6.7
			c-1.4,0.9-6.3,1.7-14.6,2.6c-7.6,0.8-11.4,3-11.4,6.6c0,4.7,3.2,7.1,9.6,7.1c4.2,0,8-0.9,11.3-2.8C104,76,105.7,73.7,105.7,71.1z"
			/>
		<path class="st0" d="M167.4,57.5v27.7h-8.9v-25c0-3.7-0.8-6.3-2.4-8c-1.8-1.8-4.7-2.6-8.9-2.6c-3.4,0-6.4,0.9-8.9,2.6
			c-3.4,2.4-5.1,6-5.1,10.9v22.1h-8.9V44.5h8.3v5.8h0.2c4.1-4.6,9.4-6.9,15.9-6.9c5.1,0,9.2,0.9,12.4,2.7
			C165.4,48.4,167.4,52.2,167.4,57.5z"/>
		<path class="st0" d="M194.7,50.2h-8.5v26.4c0,2.1,1.8,3.2,5.4,3.2h3.1v5.4c-5,0.4-7.3,0.5-6.7,0.5c-4,0-6.9-0.8-8.6-2.5
			c-1.4-1.4-2-3.5-2-6.2V50.2h-7.2v-5.7h7.2V33.1h8.9v11.4h8.5V50.2z"/>
		<path class="st0" d="M209.3,37.1h-8.9v-7.8h8.9V37.1z M209.3,44.5v40.7h-8.9V44.5H209.3z"/>
		<path class="st1" d="M235.3,77.6L278.2,0l0,0l-38.3,85.2h-9.5l-19.4-40.7h10.3l13.8,33.1H235.3z"/>
		<path class="st1" d="M319.1,31.5v55.8h-8.9V31.5H319.1z"/>
		<g>
			<path class="st2" d="M71.5,105.4h-2l-1.6-9h1.9l1.1,6.8l3.7-6.8h1.8L71.5,105.4z"/>
			<path class="st2" d="M77.7,100.7l-1.7-0.1c0.2-0.6,0.5-1,1-1.4c0.5-0.3,1.1-0.5,2-0.5c0.8,0,1.5,0.2,1.9,0.5
				c0.4,0.3,0.6,0.8,0.6,1.2c0,0.2,0,0.4-0.1,0.6c0,0.2-0.2,0.8-0.4,1.8c-0.2,0.8-0.3,1.3-0.3,1.6c0,0.3,0,0.6,0.1,0.9h-1.7
				c-0.1-0.2-0.1-0.5-0.1-0.7c-0.3,0.3-0.6,0.5-0.9,0.7c-0.3,0.2-0.7,0.2-1,0.2c-0.5,0-1-0.2-1.3-0.5c-0.4-0.4-0.5-0.8-0.5-1.4
				c0-0.6,0.2-1.1,0.6-1.5c0.4-0.4,1.1-0.6,2.1-0.7c0.8-0.1,1.4-0.2,1.7-0.3c0.1-0.2,0.1-0.4,0.1-0.6c0-0.2-0.1-0.3-0.2-0.5
				c-0.2-0.1-0.4-0.2-0.7-0.2c-0.3,0-0.6,0.1-0.7,0.2C77.9,100.3,77.8,100.4,77.7,100.7z M79.4,102.3c-0.1,0-0.2,0.1-0.4,0.1
				c-0.9,0.1-1.5,0.3-1.7,0.5c-0.2,0.1-0.3,0.3-0.3,0.6c0,0.2,0.1,0.4,0.2,0.5c0.1,0.1,0.3,0.2,0.6,0.2c0.3,0,0.5-0.1,0.8-0.2
				c0.2-0.1,0.4-0.3,0.5-0.5c0.1-0.2,0.2-0.5,0.3-1L79.4,102.3z"/>
			<path class="st2" d="M82.5,105.4l1.9-9h1.8l-1.9,9H82.5z"/>
			<path class="st2" d="M92.8,102.7h-4.4c0,0.1,0,0.1,0,0.2c0,0.4,0.1,0.8,0.4,1.1c0.3,0.3,0.6,0.4,0.9,0.4c0.6,0,1-0.3,1.4-0.9
				l1.6,0.3c-0.3,0.6-0.7,1.1-1.2,1.4c-0.5,0.3-1.1,0.5-1.7,0.5c-0.9,0-1.6-0.3-2.1-0.8c-0.6-0.6-0.8-1.3-0.8-2.2
				c0-0.9,0.2-1.7,0.7-2.4c0.7-0.9,1.6-1.4,2.9-1.4c0.8,0,1.4,0.2,1.9,0.7c0.5,0.5,0.7,1.2,0.7,2.1
				C92.9,101.9,92.8,102.3,92.8,102.7z M91.3,101.6c0-0.1,0-0.1,0-0.2c0-0.5-0.1-0.9-0.3-1.1c-0.2-0.2-0.5-0.4-0.9-0.4
				c-0.4,0-0.7,0.1-1,0.4c-0.3,0.3-0.5,0.7-0.6,1.2H91.3z"/>
			<path class="st2" d="M95,98.8h1.7l-0.3,1.3c0.6-1,1.3-1.4,2-1.4c0.3,0,0.5,0.1,0.8,0.2l-0.7,1.5c-0.2-0.1-0.3-0.1-0.5-0.1
				c-0.3,0-0.6,0.1-0.9,0.3c-0.3,0.2-0.6,0.5-0.7,0.9c-0.2,0.4-0.4,1-0.5,1.8l-0.4,2.1h-1.8L95,98.8z"/>
			<path class="st2" d="M100.3,98.8h1.8l-1.4,6.6H99L100.3,98.8z M100.9,96.3h1.8l-0.3,1.6h-1.8L100.9,96.3z"/>
			<path class="st2" d="M105.3,100.7l-1.7-0.1c0.2-0.6,0.5-1,1-1.4c0.5-0.3,1.1-0.5,2-0.5c0.8,0,1.5,0.2,1.9,0.5
				c0.4,0.3,0.6,0.8,0.6,1.2c0,0.2,0,0.4-0.1,0.6c0,0.2-0.2,0.8-0.4,1.8c-0.2,0.8-0.3,1.3-0.3,1.6c0,0.3,0,0.6,0.2,0.9h-1.7
				c-0.1-0.2-0.1-0.5-0.1-0.7c-0.3,0.3-0.6,0.5-0.9,0.7c-0.3,0.2-0.7,0.2-1,0.2c-0.5,0-1-0.2-1.3-0.5c-0.4-0.4-0.5-0.8-0.5-1.4
				c0-0.6,0.2-1.1,0.6-1.5c0.4-0.4,1.1-0.6,2.1-0.7c0.8-0.1,1.4-0.2,1.7-0.3c0.1-0.2,0.1-0.4,0.1-0.6c0-0.2-0.1-0.3-0.2-0.5
				c-0.2-0.1-0.4-0.2-0.7-0.2c-0.3,0-0.6,0.1-0.8,0.2C105.5,100.3,105.4,100.4,105.3,100.7z M107,102.3c-0.1,0-0.2,0.1-0.4,0.1
				c-0.9,0.1-1.5,0.3-1.7,0.5c-0.2,0.1-0.3,0.3-0.3,0.6c0,0.2,0.1,0.4,0.2,0.5c0.1,0.1,0.3,0.2,0.6,0.2c0.3,0,0.5-0.1,0.8-0.2
				c0.2-0.1,0.4-0.3,0.5-0.5c0.1-0.2,0.2-0.5,0.3-1L107,102.3z"/>
			<path class="st2" d="M111.5,98.8h1.7l-0.2,0.9c0.4-0.4,0.8-0.6,1.2-0.8c0.4-0.2,0.7-0.2,1.1-0.2c0.5,0,1,0.2,1.3,0.5
				c0.3,0.3,0.5,0.7,0.5,1.2c0,0.2-0.1,0.7-0.2,1.3l-0.8,3.7h-1.8l0.8-3.7c0.1-0.6,0.2-0.9,0.2-1c0-0.2-0.1-0.4-0.2-0.5
				c-0.1-0.1-0.3-0.2-0.6-0.2c-0.3,0-0.5,0.1-0.9,0.3c-0.3,0.2-0.6,0.5-0.7,0.9c-0.1,0.3-0.3,0.8-0.4,1.6l-0.6,2.7h-1.8L111.5,98.8z
				"/>
			<path class="st2" d="M120.7,100.7l-1.7-0.1c0.2-0.6,0.5-1,1-1.4c0.5-0.3,1.1-0.5,2-0.5c0.8,0,1.5,0.2,1.9,0.5
				c0.4,0.3,0.6,0.8,0.6,1.2c0,0.2,0,0.4-0.1,0.6c0,0.2-0.2,0.8-0.4,1.8c-0.2,0.8-0.3,1.3-0.3,1.6c0,0.3,0,0.6,0.1,0.9h-1.7
				c-0.1-0.2-0.1-0.5-0.1-0.7c-0.3,0.3-0.6,0.5-0.9,0.7c-0.3,0.2-0.7,0.2-1,0.2c-0.5,0-1-0.2-1.3-0.5c-0.4-0.4-0.5-0.8-0.5-1.4
				c0-0.6,0.2-1.1,0.6-1.5c0.4-0.4,1.1-0.6,2.1-0.7c0.8-0.1,1.4-0.2,1.7-0.3c0.1-0.2,0.1-0.4,0.1-0.6c0-0.2-0.1-0.3-0.2-0.5
				c-0.2-0.1-0.4-0.2-0.7-0.2c-0.3,0-0.6,0.1-0.8,0.2C120.9,100.3,120.7,100.4,120.7,100.7z M122.4,102.3c-0.1,0-0.3,0.1-0.4,0.1
				c-0.9,0.1-1.5,0.3-1.7,0.5c-0.2,0.1-0.3,0.3-0.3,0.6c0,0.2,0.1,0.4,0.2,0.5c0.1,0.1,0.3,0.2,0.6,0.2c0.3,0,0.5-0.1,0.8-0.2
				c0.2-0.1,0.4-0.3,0.5-0.5c0.1-0.2,0.2-0.5,0.3-1L122.4,102.3z"/>
			<path class="st2" d="M129.9,101.8c0-0.5,0.1-1.1,0.2-1.7c0.2-0.8,0.5-1.5,1-2.1c0.4-0.6,1-1,1.6-1.4c0.7-0.3,1.4-0.5,2.2-0.5
				c1.1,0,2,0.3,2.7,1c0.7,0.7,1,1.6,1,2.8c0,1-0.2,1.9-0.7,2.8c-0.5,0.9-1.1,1.6-1.8,2.1c-0.8,0.5-1.6,0.7-2.6,0.7
				c-0.8,0-1.6-0.2-2.1-0.6c-0.6-0.4-1-0.9-1.2-1.4C130.1,103,129.9,102.4,129.9,101.8z M131.8,101.8c0,0.6,0.2,1.1,0.6,1.6
				c0.4,0.4,0.9,0.6,1.5,0.6c0.5,0,1-0.2,1.4-0.5c0.5-0.3,0.8-0.8,1.1-1.5c0.3-0.7,0.5-1.3,0.5-2c0-0.7-0.2-1.3-0.6-1.7
				c-0.4-0.4-0.9-0.6-1.5-0.6c-0.9,0-1.6,0.4-2.2,1.3C132.1,99.9,131.8,100.8,131.8,101.8z"/>
			<path class="st2" d="M144.1,98.8l-0.3,1.3h-1.3l-1.1,5.3h-1.8l1.1-5.3h-1l0.3-1.3h1l0.1-0.7c0.1-0.6,0.2-0.9,0.3-1.1
				c0.1-0.3,0.3-0.5,0.6-0.6c0.3-0.2,0.6-0.2,1.1-0.2c0.5,0,1.1,0.1,1.7,0.3l-0.3,1.3c-0.4-0.1-0.8-0.2-1-0.2
				c-0.2,0-0.3,0.1-0.4,0.2c-0.1,0.1-0.1,0.3-0.2,0.6l-0.1,0.5H144.1z"/>
			<path class="st2" d="M148.4,98.8l-0.3,1.3h-1.3l-1.1,5.3H144l1.1-5.3h-1l0.3-1.3h1l0.1-0.7c0.1-0.6,0.2-0.9,0.3-1.1
				c0.1-0.3,0.3-0.5,0.6-0.6c0.3-0.2,0.6-0.2,1.1-0.2c0.5,0,1.1,0.1,1.7,0.3l-0.3,1.3c-0.4-0.1-0.8-0.2-1-0.2
				c-0.2,0-0.4,0.1-0.4,0.2c-0.1,0.1-0.1,0.3-0.2,0.6l-0.1,0.5H148.4z"/>
			<path class="st2" d="M149.7,98.8h1.8l-1.4,6.6h-1.8L149.7,98.8z M150.2,96.3h1.8l-0.3,1.6h-1.8L150.2,96.3z"/>
			<path class="st2" d="M156.6,102.9l1.7,0.3c-0.3,0.8-0.7,1.3-1.3,1.7c-0.6,0.4-1.2,0.6-1.9,0.6c-0.8,0-1.5-0.2-2-0.7
				c-0.5-0.5-0.7-1.2-0.7-2.1c0-0.7,0.1-1.4,0.4-2c0.3-0.6,0.7-1.1,1.3-1.5c0.6-0.4,1.3-0.5,2-0.5c0.8,0,1.4,0.2,1.9,0.6
				c0.5,0.4,0.7,0.9,0.8,1.6l-1.7,0.2c0-0.4-0.2-0.6-0.3-0.8c-0.2-0.2-0.4-0.3-0.7-0.3c-0.3,0-0.7,0.1-1,0.4
				c-0.3,0.3-0.5,0.6-0.7,1.1c-0.2,0.5-0.2,1-0.2,1.4c0,0.4,0.1,0.7,0.3,0.9c0.2,0.2,0.4,0.3,0.7,0.3c0.3,0,0.6-0.1,0.8-0.3
				C156.2,103.6,156.4,103.3,156.6,102.9z"/>
			<path class="st2" d="M160.9,98.8h1.8l-1.4,6.6h-1.8L160.9,98.8z M161.4,96.3h1.8l-0.3,1.6h-1.8L161.4,96.3z"/>
			<path class="st2" d="M164.7,98.8h1.7l-0.2,0.9c0.4-0.4,0.8-0.6,1.2-0.8c0.4-0.2,0.7-0.2,1.2-0.2c0.5,0,1,0.2,1.3,0.5
				c0.3,0.3,0.5,0.7,0.5,1.2c0,0.2-0.1,0.7-0.2,1.3l-0.8,3.7h-1.8l0.8-3.7c0.1-0.6,0.2-0.9,0.2-1c0-0.2-0.1-0.4-0.2-0.5
				c-0.1-0.1-0.3-0.2-0.6-0.2c-0.3,0-0.5,0.1-0.9,0.3c-0.3,0.2-0.6,0.5-0.7,0.9c-0.1,0.3-0.3,0.8-0.4,1.6l-0.6,2.7h-1.8L164.7,98.8z
				"/>
			<path class="st2" d="M173.9,100.7l-1.7-0.1c0.2-0.6,0.5-1,1-1.4c0.5-0.3,1.1-0.5,2-0.5c0.8,0,1.5,0.2,1.9,0.5
				c0.4,0.3,0.6,0.8,0.6,1.2c0,0.2,0,0.4-0.1,0.6c0,0.2-0.2,0.8-0.4,1.8c-0.2,0.8-0.3,1.3-0.3,1.6c0,0.3,0.1,0.6,0.1,0.9h-1.7
				c-0.1-0.2-0.1-0.5-0.1-0.7c-0.3,0.3-0.6,0.5-0.9,0.7c-0.3,0.2-0.7,0.2-1,0.2c-0.5,0-1-0.2-1.3-0.5c-0.4-0.4-0.5-0.8-0.5-1.4
				c0-0.6,0.2-1.1,0.6-1.5c0.4-0.4,1.1-0.6,2.1-0.7c0.8-0.1,1.4-0.2,1.7-0.3c0.1-0.2,0.1-0.4,0.1-0.6c0-0.2-0.1-0.3-0.2-0.5
				c-0.2-0.1-0.4-0.2-0.7-0.2c-0.3,0-0.6,0.1-0.8,0.2C174.1,100.3,173.9,100.4,173.9,100.7z M175.5,102.3c-0.1,0-0.2,0.1-0.4,0.1
				c-0.9,0.1-1.5,0.3-1.7,0.5c-0.2,0.1-0.3,0.3-0.3,0.6c0,0.2,0.1,0.4,0.2,0.5c0.1,0.1,0.3,0.2,0.6,0.2c0.3,0,0.5-0.1,0.8-0.2
				c0.2-0.1,0.4-0.3,0.5-0.5c0.1-0.2,0.2-0.5,0.3-1L175.5,102.3z"/>
			<path class="st2" d="M178.7,105.4l1.9-9h1.8l-1.9,9H178.7z"/>
			<path class="st2" d="M183.9,98.8h1.8l-1.4,6.6h-1.8L183.9,98.8z M184.4,96.3h1.8l-0.3,1.6h-1.8L184.4,96.3z"/>
			<path class="st2" d="M186.1,103.5l1.7-0.3c0.2,0.4,0.3,0.6,0.6,0.8c0.2,0.2,0.5,0.2,0.9,0.2c0.4,0,0.7-0.1,1-0.3
				c0.2-0.1,0.3-0.3,0.3-0.4c0-0.1,0-0.2-0.1-0.3c-0.1-0.1-0.3-0.2-0.7-0.3c-1.1-0.4-1.7-0.6-2-0.8c-0.4-0.3-0.6-0.7-0.6-1.3
				c0-0.5,0.2-1,0.6-1.3c0.5-0.5,1.3-0.8,2.4-0.8c0.8,0,1.5,0.2,1.9,0.5c0.4,0.3,0.7,0.7,0.8,1.3l-1.6,0.3c-0.1-0.2-0.2-0.4-0.4-0.5
				c-0.3-0.2-0.6-0.2-0.9-0.2c-0.4,0-0.6,0.1-0.8,0.2c-0.2,0.1-0.2,0.3-0.2,0.4c0,0.2,0.1,0.3,0.2,0.4c0.1,0.1,0.4,0.2,1,0.3
				c0.9,0.3,1.4,0.5,1.7,0.7c0.4,0.3,0.6,0.8,0.6,1.2c0,0.6-0.3,1.2-0.8,1.6c-0.5,0.5-1.3,0.7-2.2,0.7c-0.9,0-1.7-0.2-2.2-0.5
				C186.7,104.7,186.3,104.2,186.1,103.5z"/>
			<path class="st2" d="M198.1,108V96.2h1.4V108H198.1z"/>
			<path class="st2" d="M210.4,105.4h-1.8l-0.3-7.6l-1.4,7.6h-1.7l1.9-9h2.7l0.3,6.3l3.1-6.3h2.7l-1.9,9h-1.7l1.8-7.5L210.4,105.4z"
				/>
			<path class="st2" d="M222.4,102.7H218c0,0.1,0,0.1,0,0.2c0,0.4,0.1,0.8,0.4,1.1c0.2,0.3,0.6,0.4,0.9,0.4c0.6,0,1-0.3,1.4-0.9
				l1.6,0.3c-0.3,0.6-0.7,1.1-1.2,1.4c-0.5,0.3-1.1,0.5-1.7,0.5c-0.9,0-1.6-0.3-2.1-0.8c-0.6-0.6-0.8-1.3-0.8-2.2
				c0-0.9,0.3-1.7,0.7-2.4c0.7-0.9,1.6-1.4,2.9-1.4c0.8,0,1.4,0.2,1.9,0.7c0.5,0.5,0.7,1.2,0.7,2.1
				C222.6,101.9,222.5,102.3,222.4,102.7z M221,101.6c0-0.1,0-0.1,0-0.2c0-0.5-0.1-0.9-0.3-1.1c-0.2-0.2-0.5-0.4-0.9-0.4
				c-0.4,0-0.7,0.1-1,0.4c-0.3,0.3-0.5,0.7-0.6,1.2H221z"/>
			<path class="st2" d="M223.4,105.4l1.9-9h1.8l-1.9,9H223.4z"/>
			<path class="st2" d="M228.6,98.8h1.8l-1.4,6.6h-1.8L228.6,98.8z M229.1,96.3h1.8l-0.3,1.6h-1.8L229.1,96.3z"/>
			<path class="st2" d="M230.8,103.5l1.7-0.3c0.2,0.4,0.3,0.6,0.6,0.8c0.2,0.2,0.5,0.2,0.9,0.2c0.4,0,0.7-0.1,1-0.3
				c0.2-0.1,0.3-0.3,0.3-0.4c0-0.1,0-0.2-0.1-0.3c-0.1-0.1-0.3-0.2-0.7-0.3c-1.1-0.4-1.7-0.6-2-0.8c-0.4-0.3-0.6-0.7-0.6-1.3
				c0-0.5,0.2-1,0.6-1.3c0.5-0.5,1.3-0.8,2.4-0.8c0.8,0,1.5,0.2,1.9,0.5c0.4,0.3,0.7,0.7,0.8,1.3l-1.6,0.3c-0.1-0.2-0.2-0.4-0.4-0.5
				c-0.3-0.2-0.6-0.2-1-0.2c-0.4,0-0.6,0.1-0.8,0.2c-0.2,0.1-0.2,0.3-0.2,0.4c0,0.2,0.1,0.3,0.2,0.4c0.1,0.1,0.4,0.2,1,0.3
				c0.9,0.3,1.4,0.5,1.7,0.7c0.4,0.3,0.6,0.8,0.6,1.2c0,0.6-0.3,1.2-0.8,1.6c-0.5,0.5-1.3,0.7-2.2,0.7c-0.9,0-1.7-0.2-2.2-0.5
				C231.4,104.7,231,104.2,230.8,103.5z"/>
			<path class="st2" d="M238.2,103.5l1.7-0.3c0.2,0.4,0.3,0.6,0.6,0.8c0.2,0.2,0.5,0.2,0.9,0.2c0.4,0,0.7-0.1,1-0.3
				c0.2-0.1,0.3-0.3,0.3-0.4c0-0.1,0-0.2-0.1-0.3c-0.1-0.1-0.3-0.2-0.7-0.3c-1.1-0.4-1.7-0.6-2-0.8c-0.4-0.3-0.6-0.7-0.6-1.3
				c0-0.5,0.2-1,0.6-1.3c0.5-0.5,1.3-0.8,2.4-0.8c0.8,0,1.5,0.2,1.9,0.5c0.4,0.3,0.7,0.7,0.8,1.3l-1.6,0.3c-0.1-0.2-0.2-0.4-0.4-0.5
				c-0.3-0.2-0.6-0.2-1-0.2c-0.4,0-0.6,0.1-0.8,0.2c-0.2,0.1-0.2,0.3-0.2,0.4c0,0.2,0.1,0.3,0.2,0.4c0.1,0.1,0.4,0.2,1,0.3
				c0.9,0.3,1.4,0.5,1.7,0.7c0.4,0.3,0.6,0.8,0.6,1.2c0,0.6-0.3,1.2-0.8,1.6c-0.5,0.5-1.3,0.7-2.2,0.7c-0.9,0-1.7-0.2-2.2-0.5
				C238.7,104.7,238.4,104.2,238.2,103.5z"/>
			<path class="st2" d="M248.3,100.7l-1.7-0.1c0.2-0.6,0.5-1,1-1.4c0.5-0.3,1.1-0.5,2-0.5c0.8,0,1.5,0.2,1.9,0.5
				c0.4,0.3,0.6,0.8,0.6,1.2c0,0.2,0,0.4-0.1,0.6c0,0.2-0.2,0.8-0.4,1.8c-0.2,0.8-0.3,1.3-0.3,1.6c0,0.3,0,0.6,0.1,0.9h-1.7
				c-0.1-0.2-0.1-0.5-0.1-0.7c-0.3,0.3-0.6,0.5-0.9,0.7c-0.3,0.2-0.7,0.2-1,0.2c-0.5,0-1-0.2-1.3-0.5c-0.4-0.4-0.5-0.8-0.5-1.4
				c0-0.6,0.2-1.1,0.6-1.5c0.4-0.4,1.1-0.6,2.1-0.7c0.8-0.1,1.4-0.2,1.7-0.3c0.1-0.2,0.1-0.4,0.1-0.6c0-0.2-0.1-0.3-0.2-0.5
				c-0.2-0.1-0.4-0.2-0.7-0.2c-0.3,0-0.6,0.1-0.7,0.2C248.4,100.3,248.3,100.4,248.3,100.7z M249.9,102.3c-0.1,0-0.3,0.1-0.4,0.1
				c-0.9,0.1-1.5,0.3-1.7,0.5c-0.2,0.1-0.3,0.3-0.3,0.6c0,0.2,0.1,0.4,0.2,0.5c0.1,0.1,0.3,0.2,0.6,0.2c0.3,0,0.5-0.1,0.8-0.2
				c0.2-0.1,0.4-0.3,0.5-0.5c0.1-0.2,0.2-0.5,0.3-1L249.9,102.3z"/>
			<path class="st2" d="M257.5,101.8c0-0.5,0.1-1.1,0.2-1.7c0.2-0.8,0.5-1.5,1-2.1c0.4-0.6,1-1,1.6-1.4c0.7-0.3,1.4-0.5,2.2-0.5
				c1.1,0,2,0.3,2.7,1c0.7,0.7,1,1.6,1,2.8c0,1-0.2,1.9-0.7,2.8c-0.4,0.9-1.1,1.6-1.8,2.1c-0.8,0.5-1.6,0.7-2.6,0.7
				c-0.8,0-1.6-0.2-2.1-0.6c-0.6-0.4-1-0.9-1.2-1.4C257.6,103,257.5,102.4,257.5,101.8z M259.4,101.8c0,0.6,0.2,1.1,0.6,1.6
				c0.4,0.4,0.9,0.6,1.5,0.6c0.5,0,1-0.2,1.4-0.5c0.5-0.3,0.8-0.8,1.1-1.5c0.3-0.7,0.5-1.3,0.5-2c0-0.7-0.2-1.3-0.6-1.7
				c-0.4-0.4-0.9-0.6-1.5-0.6c-0.9,0-1.6,0.4-2.2,1.3C259.7,99.9,259.4,100.8,259.4,101.8z"/>
			<path class="st2" d="M271.6,98.8l-0.3,1.3h-1.3l-1.1,5.3h-1.8l1.1-5.3h-1l0.3-1.3h1l0.1-0.7c0.1-0.6,0.2-0.9,0.3-1.1
				c0.1-0.3,0.3-0.5,0.6-0.6c0.3-0.2,0.6-0.2,1.1-0.2c0.5,0,1.1,0.1,1.7,0.3l-0.3,1.3c-0.4-0.1-0.8-0.2-1-0.2
				c-0.2,0-0.4,0.1-0.5,0.2c-0.1,0.1-0.1,0.3-0.2,0.6l-0.1,0.5H271.6z"/>
			<path class="st2" d="M275.9,98.8l-0.3,1.3h-1.3l-1.1,5.3h-1.8l1.1-5.3h-1l0.3-1.3h1l0.1-0.7c0.1-0.6,0.2-0.9,0.3-1.1
				c0.1-0.3,0.4-0.5,0.6-0.6c0.3-0.2,0.6-0.2,1.1-0.2c0.5,0,1.1,0.1,1.7,0.3l-0.3,1.3c-0.4-0.1-0.8-0.2-1-0.2
				c-0.2,0-0.4,0.1-0.5,0.2c-0.1,0.1-0.1,0.3-0.2,0.6l-0.1,0.5H275.9z"/>
			<path class="st2" d="M277.3,98.8h1.8l-1.4,6.6h-1.8L277.3,98.8z M277.8,96.3h1.8l-0.3,1.6h-1.8L277.8,96.3z"/>
			<path class="st2" d="M284.2,102.9l1.7,0.3c-0.3,0.8-0.7,1.3-1.3,1.7c-0.6,0.4-1.2,0.6-1.9,0.6c-0.8,0-1.5-0.2-2-0.7
				c-0.5-0.5-0.7-1.2-0.7-2.1c0-0.7,0.1-1.4,0.4-2c0.3-0.6,0.7-1.1,1.3-1.5c0.6-0.4,1.3-0.5,2-0.5c0.8,0,1.4,0.2,1.9,0.6
				c0.5,0.4,0.7,0.9,0.8,1.6l-1.7,0.2c0-0.4-0.2-0.6-0.3-0.8c-0.2-0.2-0.4-0.3-0.7-0.3c-0.3,0-0.7,0.1-1,0.4
				c-0.3,0.3-0.5,0.6-0.7,1.1c-0.2,0.5-0.2,1-0.2,1.4c0,0.4,0.1,0.7,0.3,0.9c0.2,0.2,0.4,0.3,0.7,0.3c0.3,0,0.6-0.1,0.8-0.3
				C283.8,103.6,284,103.3,284.2,102.9z"/>
			<path class="st2" d="M288.4,98.8h1.8l-1.4,6.6h-1.8L288.4,98.8z M289,96.3h1.8l-0.3,1.6h-1.8L289,96.3z"/>
			<path class="st2" d="M292.3,98.8h1.7l-0.2,0.9c0.4-0.4,0.8-0.6,1.2-0.8c0.4-0.2,0.7-0.2,1.2-0.2c0.5,0,1,0.2,1.3,0.5
				c0.3,0.3,0.5,0.7,0.5,1.2c0,0.2-0.1,0.7-0.2,1.3l-0.8,3.7h-1.8l0.8-3.7c0.1-0.6,0.2-0.9,0.2-1c0-0.2-0.1-0.4-0.2-0.5
				c-0.1-0.1-0.3-0.2-0.6-0.2c-0.3,0-0.5,0.1-0.9,0.3c-0.3,0.2-0.6,0.5-0.7,0.9c-0.1,0.3-0.3,0.8-0.4,1.6l-0.6,2.7h-1.8L292.3,98.8z
				"/>
			<path class="st2" d="M301.4,100.7l-1.7-0.1c0.2-0.6,0.5-1,1-1.4c0.5-0.3,1.1-0.5,2-0.5c0.8,0,1.5,0.2,1.9,0.5
				c0.4,0.3,0.6,0.8,0.6,1.2c0,0.2,0,0.4-0.1,0.6c0,0.2-0.2,0.8-0.4,1.8c-0.2,0.8-0.3,1.3-0.3,1.6c0,0.3,0,0.6,0.1,0.9h-1.7
				c-0.1-0.2-0.1-0.5-0.1-0.7c-0.3,0.3-0.6,0.5-0.9,0.7c-0.3,0.2-0.7,0.2-1,0.2c-0.5,0-1-0.2-1.3-0.5c-0.4-0.4-0.5-0.8-0.5-1.4
				c0-0.6,0.2-1.1,0.6-1.5c0.4-0.4,1.1-0.6,2.1-0.7c0.8-0.1,1.4-0.2,1.7-0.3c0.1-0.2,0.1-0.4,0.1-0.6c0-0.2-0.1-0.3-0.2-0.5
				c-0.2-0.1-0.4-0.2-0.7-0.2c-0.3,0-0.6,0.1-0.8,0.2C301.6,100.3,301.5,100.4,301.4,100.7z M303.1,102.3c-0.1,0-0.2,0.1-0.4,0.1
				c-0.9,0.1-1.5,0.3-1.7,0.5c-0.2,0.1-0.3,0.3-0.3,0.6c0,0.2,0.1,0.4,0.2,0.5c0.1,0.1,0.3,0.2,0.6,0.2c0.3,0,0.5-0.1,0.8-0.2
				c0.2-0.1,0.4-0.3,0.5-0.5c0.1-0.2,0.2-0.5,0.3-1L303.1,102.3z"/>
			<path class="st2" d="M306.3,105.4l1.9-9h1.8l-1.9,9H306.3z"/>
			<path class="st2" d="M311.5,98.8h1.8l-1.4,6.6h-1.8L311.5,98.8z M312,96.3h1.8l-0.3,1.6h-1.8L312,96.3z"/>
			<path class="st2" d="M313.7,103.5l1.7-0.3c0.2,0.4,0.3,0.6,0.6,0.8c0.2,0.2,0.5,0.2,0.9,0.2c0.4,0,0.7-0.1,1-0.3
				c0.2-0.1,0.3-0.3,0.3-0.4c0-0.1,0-0.2-0.1-0.3c-0.1-0.1-0.3-0.2-0.7-0.3c-1.1-0.4-1.7-0.6-2-0.8c-0.4-0.3-0.6-0.7-0.6-1.3
				c0-0.5,0.2-1,0.6-1.3c0.5-0.5,1.3-0.8,2.4-0.8c0.8,0,1.5,0.2,1.9,0.5c0.4,0.3,0.7,0.7,0.8,1.3l-1.6,0.3c-0.1-0.2-0.2-0.4-0.4-0.5
				c-0.3-0.2-0.6-0.2-1-0.2c-0.4,0-0.6,0.1-0.8,0.2c-0.2,0.1-0.2,0.3-0.2,0.4c0,0.2,0.1,0.3,0.2,0.4c0.1,0.1,0.4,0.2,1,0.3
				c0.9,0.3,1.4,0.5,1.7,0.7c0.4,0.3,0.6,0.8,0.6,1.2c0,0.6-0.3,1.2-0.8,1.6c-0.5,0.5-1.3,0.7-2.2,0.7c-0.9,0-1.7-0.2-2.2-0.5
				C314.2,104.7,313.9,104.2,313.7,103.5z"/>
		</g>
		<path class="st1" d="M266.8,58.2h-8c0.4-8.8,7.5-13.3,21.3-13.3c4.2,0,7.9,0.6,11.2,1.8c5.4,1.9,8.1,5,8.1,9.4v23
			c0,1.6,0.9,2.4,2.8,2.4c0.6,0,1.6-0.1,2.9-0.4v4.9c-2.5,0.5-4.1,0.8-4.7,0.8c-3.5,0-6-0.6-7.4-1.9c-1.1-0.9-1.7-2.3-1.8-4.2
			c-5.2,4.3-11.4,6.4-18.7,6.4c-4.8,0-8.7-1.1-11.7-3.2c-3-2.1-4.5-4.9-4.5-8.3c0-7.3,5.3-11.5,15.8-12.5l14.3-1.4
			c3-0.3,4.6-1.9,4.6-4.7c0-4.3-4.1-6.5-12.2-6.5c-4.4,0-7.5,0.9-9.4,2.7C268,54.3,267.2,56,266.8,58.2z M290.6,72.1v-6.5
			c-1.4,0.9-6.2,1.7-14.3,2.5c-7.4,0.8-11.1,2.9-11.1,6.5c0,4.6,3.1,6.9,9.5,6.9c4.2,0,7.9-0.9,11.1-2.7
			C289,76.9,290.6,74.7,290.6,72.1z"/>
	</g>
	<text transform="matrix(1 0 0 1 324.4115 41.6977)" class="st0 st3 st4">®</text>
</g>
</svg>
