<!-- Generator: Adobe Illustrator 20.1.0, SVG Export Plug-In  -->
<svg version="1.1"
	 xmlns="http://www.w3.org/2000/svg" xmlns:xlink="http://www.w3.org/1999/xlink" xmlns:a="http://ns.adobe.com/AdobeSVGViewerExtensions/3.0/"
	 x="0px" y="0px" width="388.3px" height="46.6px" viewBox="0 0 388.3 46.6"
	 style="overflow:scroll;enable-background:new 0 0 388.3 46.6;" xml:space="preserve">
<style type="text/css">
	.st0{fill:#009ABF;}
	.st1{fill:#FFFFFF;}
</style>
<defs>
</defs>
<rect class="st0" width="388.3" height="46.6"/>
<g>
	<path class="st1" d="M89.8,14.3h6v1.7h-3.9v3h3.7v1.7h-3.7V24h4.1v1.7h-6.2V14.3z"/>
	<path class="st1" d="M99.2,21.1l-2.3-3.9h2.3l1.3,2.7l1.4-2.7h2.1l-2.3,3.9l2.5,4.5h-2.2l-1.6-3.1l-1.6,3.1h-2.2L99.2,21.1z"/>
	<path class="st1" d="M110.6,25.5c-0.5,0.2-1.2,0.3-2,0.3c-2.8,0-4-1.9-4-4.3c0-2.4,1.2-4.3,4.1-4.3c0.6,0,1.4,0.2,1.8,0.3l-0.1,1.6
		c-0.4-0.2-0.9-0.4-1.4-0.4c-1.5,0-2.2,1-2.2,2.8c0,1.6,0.8,2.8,2.3,2.8c0.5,0,1.2-0.2,1.4-0.4L110.6,25.5z"/>
	<path class="st1" d="M117.9,25.3c-0.4,0.2-1.3,0.5-2.5,0.5c-2.7,0-3.9-1.9-3.9-4.2c0-2.5,1.3-4.5,3.5-4.5c1.8,0,3.4,1.1,3.4,4.5V22
		h-4.9c0,1.4,0.6,2.3,2.1,2.3c1.2,0,1.8-0.4,2.2-0.7L117.9,25.3z M116.3,20.7c0-1.5-0.5-2.2-1.4-2.2c-1.1,0-1.5,1.1-1.5,2.2H116.3z"
		/>
	<path class="st1" d="M119.9,13.4h2v12.2h-2V13.4z"/>
	<path class="st1" d="M130,25.3c-0.4,0.2-1.3,0.5-2.5,0.5c-2.7,0-3.9-1.9-3.9-4.2c0-2.5,1.3-4.5,3.5-4.5c1.8,0,3.4,1.1,3.4,4.5V22
		h-4.9c0,1.4,0.6,2.3,2.1,2.3c1.2,0,1.8-0.4,2.2-0.7L130,25.3z M128.4,20.7c0-1.5-0.5-2.2-1.4-2.2c-1.1,0-1.5,1.1-1.5,2.2H128.4z"/>
	<path class="st1" d="M131.8,18.7c0-0.5,0-1-0.1-1.4h1.9c0,0.4,0.1,0.9,0.1,1.3h0c0.3-0.5,0.9-1.4,2.2-1.4c1.9,0,2.5,1.4,2.5,3.1
		v5.4h-2v-5c0-1.3-0.3-1.8-1.2-1.8c-1.1,0-1.4,0.9-1.4,2v4.9h-2V18.7z"/>
	<path class="st1" d="M140.9,15.5l2-0.6v2.4h1.7v1.5h-1.7v4.4c0,0.9,0.3,1.2,0.9,1.2c0.4,0,0.6-0.1,0.8-0.2v1.4
		c-0.3,0.1-0.8,0.3-1.4,0.3c-1.5,0-2.4-0.7-2.4-2.4v-4.6h-1.3v-1.5h1.3V15.5z"/>
	<path class="st1" d="M151.9,25.3c-0.4,0.2-1.3,0.5-2.5,0.5c-2.7,0-3.9-1.9-3.9-4.2c0-2.5,1.3-4.5,3.5-4.5c1.8,0,3.4,1.1,3.4,4.5V22
		h-4.9c0,1.4,0.6,2.3,2.1,2.3c1.2,0,1.8-0.4,2.2-0.7L151.9,25.3z M150.3,20.7c0-1.5-0.5-2.2-1.4-2.2c-1.1,0-1.5,1.1-1.5,2.2H150.3z"
		/>
	<path class="st1" d="M157.8,18.7c0-0.6,0-1.1-0.1-1.4h1.9c0,0.2,0.1,0.7,0.1,1.3h0c0.3-0.7,0.9-1.4,2.2-1.4c2.1,0,3,2,3,4.3
		c0,2.7-1.1,4.3-2.9,4.3c-1.2,0-1.9-0.7-2.2-1.3h0v4.7h-2V18.7z M161.4,24.3c1.1,0,1.5-1.1,1.5-2.8c0-1.9-0.3-2.9-1.5-2.9
		c-1.2,0-1.6,1.3-1.6,2.9C159.8,23.1,160.3,24.3,161.4,24.3z"/>
	<path class="st1" d="M172.6,25.3c-0.4,0.2-1.3,0.5-2.5,0.5c-2.7,0-3.9-1.9-3.9-4.2c0-2.5,1.3-4.5,3.5-4.5c1.8,0,3.4,1.1,3.4,4.5V22
		h-4.9c0,1.4,0.6,2.3,2.1,2.3c1.2,0,1.8-0.4,2.2-0.7L172.6,25.3z M171,20.7c0-1.5-0.5-2.2-1.4-2.2c-1.1,0-1.5,1.1-1.5,2.2H171z"/>
	<path class="st1" d="M174.5,18.7c0-0.5,0-1-0.1-1.4h1.8c0,0.5,0.1,1,0.1,1.5h0c0.2-0.7,0.9-1.7,2.1-1.7c0.1,0,0.2,0,0.3,0v1.9
		c-0.2,0-0.4-0.1-0.6-0.1c-0.8,0-1.7,0.5-1.7,2.1v4.6h-2V18.7z"/>
	<path class="st1" d="M180.6,18.8h-1.4v-1.5h1.4v-1.7c0-1.2,0.6-2.3,2.4-2.3c0.5,0,1.1,0.1,1.5,0.2l-0.1,1.5
		c-0.2-0.1-0.5-0.1-0.8-0.1c-0.6,0-1,0.4-1,1v1.5h1.5v1.5h-1.5v6.9h-2V18.8z M185.3,13.7h2.1v2h-2.1V13.7z M185.3,17.3h2v8.4h-2
		V17.3z"/>
	<path class="st1" d="M189.4,13.4h2v12.2h-2V13.4z"/>
	<path class="st1" d="M204.3,13.4v10.8c0,0.6,0,1.1,0.1,1.4h-1.9c0-0.2-0.1-0.7-0.1-1.3h0c-0.3,0.7-0.9,1.4-2.2,1.4
		c-2.1,0-3-2-3-4.3c0-2.7,1.1-4.3,2.9-4.3c1.2,0,1.9,0.7,2.2,1.3h0v-5H204.3z M200.6,24.3c1.2,0,1.6-1.3,1.6-2.9
		c0-1.6-0.5-2.8-1.6-2.8c-1.1,0-1.5,1.1-1.5,2.8C199.1,23.3,199.5,24.3,200.6,24.3z"/>
	<path class="st1" d="M212.1,25.3c-0.4,0.2-1.3,0.5-2.5,0.5c-2.7,0-3.9-1.9-3.9-4.2c0-2.5,1.3-4.5,3.5-4.5c1.8,0,3.4,1.1,3.4,4.5V22
		h-4.9c0,1.4,0.6,2.3,2.1,2.3c1.2,0,1.8-0.4,2.2-0.7L212.1,25.3z M210.6,20.7c0-1.5-0.5-2.2-1.4-2.2c-1.1,0-1.5,1.1-1.5,2.2H210.6z"
		/>
	<path class="st1" d="M217.8,23.7c0.3,0.1,1.2,0.6,2.1,0.6c0.7,0,1.3-0.2,1.3-0.8c0-0.3-0.2-0.6-0.9-1.1l-0.8-0.5
		c-0.8-0.5-1.8-1-1.8-2.4c0-1.2,1.1-2.4,2.9-2.4c1.1,0,1.9,0.3,2.1,0.3l-0.1,1.6c-0.5-0.2-1-0.4-1.8-0.4c-0.8,0-1.2,0.3-1.2,0.8
		c0,0.5,0.4,0.7,0.9,1.1l1,0.6c1,0.7,1.6,1.1,1.6,2.1c0,1.6-1.3,2.5-3.1,2.5c-1,0-1.9-0.2-2.3-0.4L217.8,23.7z"/>
	<path class="st1" d="M230.7,25.3c-0.4,0.2-1.3,0.5-2.5,0.5c-2.7,0-3.9-1.9-3.9-4.2c0-2.5,1.3-4.5,3.5-4.5c1.8,0,3.4,1.1,3.4,4.5V22
		h-4.9c0,1.4,0.6,2.3,2.1,2.3c1.2,0,1.8-0.4,2.2-0.7L230.7,25.3z M229.2,20.7c0-1.5-0.5-2.2-1.4-2.2c-1.1,0-1.5,1.1-1.5,2.2H229.2z"
		/>
	<path class="st1" d="M232.8,27c0.5,0.3,1.4,0.7,2.5,0.7c1.9,0,2.2-1.3,2.2-2.6v-0.8h0c-0.3,0.7-0.9,1.4-2.2,1.4
		c-1.2,0-2.9-0.8-2.9-4.2c0-2.3,0.8-4.4,3-4.4c1.2,0,1.8,0.7,2.2,1.4h0.1c0-0.4,0-0.9,0.1-1.3h1.8c0,0.4-0.1,0.9-0.1,1.3v6.2
		c0,2.6-0.8,4.5-3.9,4.5c-1.3,0-2.4-0.3-2.9-0.5L232.8,27z M235.7,24.2c1.3,0,1.8-0.9,1.8-2.8c0-1.8-0.7-2.7-1.6-2.7
		c-1.1,0-1.5,1-1.5,2.7C234.4,23.4,235,24.2,235.7,24.2z"/>
	<path class="st1" d="M247.8,24.3c0,0.5,0,1,0.1,1.4H246c0-0.4-0.1-0.9-0.1-1.3l0,0l0,0c-0.4,0.6-0.9,1.4-2.2,1.4
		c-1.9,0-2.5-1.4-2.5-3.1v-5.4h2v5c0,1.3,0.4,1.8,1.2,1.8c1.1,0,1.4-1,1.4-2.1v-4.8h2V24.3z"/>
	<path class="st1" d="M249.5,18.7c0-0.5,0-1-0.1-1.4h1.8c0,0.5,0.1,1,0.1,1.5h0c0.2-0.7,0.9-1.7,2.1-1.7c0.1,0,0.2,0,0.3,0v1.9
		c-0.2,0-0.4-0.1-0.6-0.1c-0.8,0-1.7,0.5-1.7,2.1v4.6h-2V18.7z"/>
	<path class="st1" d="M255.2,13.7h2.1v2h-2.1V13.7z M255.2,17.3h2v8.4h-2V17.3z"/>
	<path class="st1" d="M266,13.4v10.8c0,0.6,0,1.1,0.1,1.4h-1.9c0-0.2-0.1-0.7-0.1-1.3h0c-0.3,0.7-0.9,1.4-2.2,1.4c-2.1,0-3-2-3-4.3
		c0-2.7,1.1-4.3,2.9-4.3c1.2,0,1.9,0.7,2.2,1.3h0v-5H266z M262.4,24.3c1.2,0,1.6-1.3,1.6-2.9c0-1.6-0.5-2.8-1.6-2.8
		c-1.1,0-1.5,1.1-1.5,2.8C260.9,23.3,261.2,24.3,262.4,24.3z"/>
	<path class="st1" d="M268.1,17.8c0.6-0.3,1.4-0.6,2.7-0.6c2.6,0,3.2,1.3,3.2,3.4v3.7c0,0.6,0.1,1.2,0.1,1.5h-1.8
		c-0.1-0.3-0.1-0.7-0.1-1.1h0c-0.5,0.7-1.1,1.3-2.4,1.3c-1.3,0-2.5-0.9-2.5-2.5c0-2.3,1.9-2.9,4.4-2.9h0.4v-0.3
		c0-0.8-0.4-1.6-1.6-1.6c-1,0-1.9,0.5-2.3,0.8L268.1,17.8z M272.1,21.6h-0.2c-1.7,0-2.8,0.4-2.8,1.6c0,0.8,0.5,1.3,1.3,1.3
		c1.2,0,1.6-0.9,1.6-2.4V21.6z"/>
	<path class="st1" d="M282.6,13.4v10.8c0,0.6,0,1.1,0.1,1.4h-1.9c0-0.2-0.1-0.7-0.1-1.3h0c-0.3,0.7-0.9,1.4-2.2,1.4
		c-2.1,0-3-2-3-4.3c0-2.7,1.1-4.3,2.9-4.3c1.2,0,1.9,0.7,2.2,1.3h0v-5H282.6z M279,24.3c1.2,0,1.6-1.3,1.6-2.9
		c0-1.6-0.5-2.8-1.6-2.8c-1.1,0-1.5,1.1-1.5,2.8C277.5,23.3,277.8,24.3,279,24.3z"/>
	<path class="st1" d="M284.6,23.6h2v2.1h-2V23.6z"/>
	<path class="st1" d="M289.7,15l-0.9,0.8l-0.6-0.8l1.6-1.4h1v6.6h-1.2V15z"/>
</g>
</svg>
