<!-- Generator: Adobe Illustrator 20.1.0, SVG Export Plug-In  -->
<svg version="1.1"
	 xmlns="http://www.w3.org/2000/svg" xmlns:xlink="http://www.w3.org/1999/xlink" xmlns:a="http://ns.adobe.com/AdobeSVGViewerExtensions/3.0/"
	 x="0px" y="0px" width="388.3px" height="49.8px" viewBox="0 0 388.3 49.8"
	 style="overflow:scroll;enable-background:new 0 0 388.3 49.8;" xml:space="preserve">
<style type="text/css">
	.st0{fill:#008F60;}
	.st1{fill:#FFFFFF;}
</style>
<defs>
</defs>
<rect class="st0" width="388.3" height="49.8"/>
<g>
	<path class="st1" d="M78.8,7.5h6v1.7h-3.9v3h3.7v1.7h-3.7v3.4H85v1.7h-6.2V7.5z"/>
	<path class="st1" d="M87.2,12h-1.4v-1.5h1.4V8.8c0-1.2,0.6-2.3,2.4-2.3c0.5,0,1.1,0.1,1.5,0.2L91,8.2C90.7,8.1,90.5,8,90.2,8
		c-0.6,0-1,0.4-1,1v1.5h1.5V12h-1.5v6.9h-2V12z M91.8,7h2.1v2h-2.1V7z M91.8,10.5h2v8.4h-2V10.5z"/>
	<path class="st1" d="M101.5,18.7c-0.5,0.2-1.2,0.3-2,0.3c-2.8,0-4-1.9-4-4.3c0-2.4,1.2-4.3,4.1-4.3c0.6,0,1.4,0.2,1.8,0.3l-0.1,1.6
		c-0.4-0.2-0.9-0.4-1.4-0.4c-1.5,0-2.2,1-2.2,2.8c0,1.6,0.8,2.8,2.3,2.8c0.5,0,1.2-0.2,1.4-0.4L101.5,18.7z"/>
	<path class="st1" d="M102.9,11c0.6-0.3,1.4-0.6,2.7-0.6c2.6,0,3.2,1.3,3.2,3.4v3.7c0,0.6,0.1,1.2,0.1,1.5h-1.8
		c-0.1-0.3-0.1-0.7-0.1-1.1h0c-0.5,0.7-1.1,1.3-2.4,1.3c-1.3,0-2.5-0.9-2.5-2.5c0-2.3,1.9-2.9,4.4-2.9h0.4v-0.3
		c0-0.8-0.4-1.6-1.6-1.6c-1,0-1.9,0.5-2.3,0.8L102.9,11z M106.9,14.8h-0.2c-1.7,0-2.8,0.4-2.8,1.6c0,0.8,0.5,1.3,1.3,1.3
		c1.2,0,1.6-0.9,1.6-2.4V14.8z"/>
	<path class="st1" d="M116.3,18.7c-0.5,0.2-1.2,0.3-2,0.3c-2.8,0-4-1.9-4-4.3c0-2.4,1.2-4.3,4.1-4.3c0.6,0,1.4,0.2,1.8,0.3l-0.1,1.6
		c-0.4-0.2-0.9-0.4-1.4-0.4c-1.5,0-2.2,1-2.2,2.8c0,1.6,0.8,2.8,2.3,2.8c0.5,0,1.2-0.2,1.4-0.4L116.3,18.7z"/>
	<path class="st1" d="M117.5,7h2.1v2h-2.1V7z M117.5,10.5h2v8.4h-2V10.5z"/>
	<path class="st1" d="M121.8,11c0.6-0.3,1.4-0.6,2.7-0.6c2.6,0,3.2,1.3,3.2,3.4v3.7c0,0.6,0.1,1.2,0.1,1.5H126
		c-0.1-0.3-0.1-0.7-0.1-1.1h0c-0.5,0.7-1.1,1.3-2.4,1.3c-1.3,0-2.5-0.9-2.5-2.5c0-2.3,1.9-2.9,4.4-2.9h0.4v-0.3
		c0-0.8-0.4-1.6-1.6-1.6c-1,0-1.9,0.5-2.3,0.8L121.8,11z M125.8,14.8h-0.2c-1.7,0-2.8,0.4-2.8,1.6c0,0.8,0.5,1.3,1.3,1.3
		c1.2,0,1.6-0.9,1.6-2.4V14.8z"/>
	<path class="st1" d="M139.2,18.7c-0.5,0.2-1.2,0.3-2,0.3c-2.8,0-4-1.9-4-4.3c0-2.4,1.2-4.3,4.1-4.3c0.6,0,1.4,0.2,1.8,0.3l-0.1,1.6
		c-0.4-0.2-0.9-0.4-1.4-0.4c-1.5,0-2.2,1-2.2,2.8c0,1.6,0.8,2.8,2.3,2.8c0.5,0,1.2-0.2,1.4-0.4L139.2,18.7z"/>
	<path class="st1" d="M140.5,6.7h2v12.2h-2V6.7z"/>
	<path class="st1" d="M144.6,10.5h2v8.4h-2V10.5z M145.7,7.3h1.9l-1.7,2.4h-1.3L145.7,7.3z"/>
	<path class="st1" d="M148.5,11.9c0-0.5,0-1-0.1-1.4h1.9c0,0.4,0.1,0.9,0.1,1.3h0c0.3-0.5,0.9-1.4,2.2-1.4c1.9,0,2.5,1.4,2.5,3.1
		v5.4h-2v-5c0-1.3-0.3-1.8-1.2-1.8c-1.1,0-1.4,0.9-1.4,2v4.9h-2V11.9z"/>
	<path class="st1" d="M156.9,7h2.1v2h-2.1V7z M157,10.5h2v8.4h-2V10.5z"/>
	<path class="st1" d="M166.6,18.7c-0.5,0.2-1.2,0.3-2,0.3c-2.8,0-4-1.9-4-4.3c0-2.4,1.2-4.3,4.1-4.3c0.6,0,1.4,0.2,1.8,0.3l-0.1,1.6
		c-0.4-0.2-0.9-0.4-1.4-0.4c-1.5,0-2.2,1-2.2,2.8c0,1.6,0.8,2.8,2.3,2.8c0.5,0,1.2-0.2,1.4-0.4L166.6,18.7z"/>
	<path class="st1" d="M168.1,11c0.6-0.3,1.4-0.6,2.7-0.6c2.6,0,3.2,1.3,3.2,3.4v3.7c0,0.6,0.1,1.2,0.1,1.5h-1.8
		c-0.1-0.3-0.1-0.7-0.1-1.1h0c-0.5,0.7-1.1,1.3-2.4,1.3c-1.3,0-2.5-0.9-2.5-2.5c0-2.3,1.9-2.9,4.4-2.9h0.4v-0.3
		c0-0.8-0.4-1.6-1.6-1.6c-1,0-1.9,0.5-2.3,0.8L168.1,11z M172,14.8h-0.2c-1.7,0-2.8,0.4-2.8,1.6c0,0.8,0.5,1.3,1.3,1.3
		c1.2,0,1.6-0.9,1.6-2.4V14.8z"/>
	<path class="st1" d="M185.5,18.7c-0.5,0.2-1.2,0.3-2,0.3c-2.8,0-4-1.9-4-4.3c0-2.4,1.2-4.3,4.1-4.3c0.6,0,1.4,0.2,1.8,0.3l-0.1,1.6
		c-0.4-0.2-0.9-0.4-1.4-0.4c-1.5,0-2.2,1-2.2,2.8c0,1.6,0.8,2.8,2.3,2.8c0.5,0,1.2-0.2,1.4-0.4L185.5,18.7z"/>
	<path class="st1" d="M190,10.4c1.7,0,3.7,0.9,3.7,4.3c0,3.5-2,4.3-3.7,4.3c-1.7,0-3.7-0.8-3.7-4.3C186.3,11.3,188.3,10.4,190,10.4z
		 M190,17.6c1.3,0,1.6-1.5,1.6-2.9s-0.3-2.9-1.6-2.9c-1.3,0-1.6,1.5-1.6,2.9S188.7,17.6,190,17.6z"/>
	<path class="st1" d="M195.1,11.9c0-0.6,0-1.1-0.1-1.4h2c0,0.4,0.1,0.9,0.1,1.3h0c0.3-0.7,1-1.5,2.1-1.5c1.4,0,1.9,0.9,2.1,1.3
		c0.4-0.6,1-1.3,2.3-1.3c1.8,0,2.4,1.3,2.4,3.3v5.2h-2v-5.3c0-1-0.3-1.6-1.1-1.6c-0.9,0-1.4,0.8-1.4,1.8v5.1h-2v-5.3
		c0-1-0.3-1.6-1.1-1.6c-0.9,0-1.4,0.8-1.4,1.8v5.1h-2V11.9z"/>
	<path class="st1" d="M207.7,12c0-0.6,0-1.1-0.1-1.4h1.9c0,0.2,0.1,0.7,0.1,1.3h0c0.3-0.7,0.9-1.4,2.2-1.4c2.1,0,3,2,3,4.3
		c0,2.7-1.1,4.3-2.9,4.3c-1.2,0-1.9-0.7-2.2-1.3h0v4.7h-2V12z M211.3,17.6c1.1,0,1.5-1.1,1.5-2.8c0-1.9-0.3-2.9-1.5-2.9
		c-1.2,0-1.6,1.3-1.6,2.9C209.7,16.4,210.2,17.6,211.3,17.6z"/>
	<path class="st1" d="M216.4,11.9c0-0.5,0-1-0.1-1.4h1.8c0,0.5,0.1,1,0.1,1.5h0c0.2-0.7,0.9-1.7,2.1-1.7c0.1,0,0.2,0,0.3,0v1.9
		c-0.2,0-0.4-0.1-0.6-0.1c-0.8,0-1.7,0.5-1.7,2.1v4.6h-2V11.9z"/>
	<path class="st1" d="M225.2,10.4c1.7,0,3.7,0.9,3.7,4.3c0,3.5-2,4.3-3.7,4.3c-1.7,0-3.7-0.8-3.7-4.3
		C221.5,11.3,223.5,10.4,225.2,10.4z M225.2,17.6c1.3,0,1.6-1.5,1.6-2.9s-0.3-2.9-1.6-2.9s-1.6,1.5-1.6,2.9S223.9,17.6,225.2,17.6z"
		/>
	<path class="st1" d="M232.4,6.7v5h0c0.3-0.7,1-1.3,2.2-1.3c1.8,0,2.9,1.6,2.9,4.3c0,2.3-0.9,4.3-3,4.3c-1.3,0-1.9-0.7-2.2-1.4h0
		c0,0.6,0,1.1-0.1,1.3h-1.9c0-0.3,0.1-0.8,0.1-1.4V6.7H232.4z M234,17.6c1.2,0,1.5-1,1.5-2.9c0-1.7-0.4-2.8-1.5-2.8
		c-1.1,0-1.6,1.2-1.6,2.8C232.4,16.3,232.8,17.6,234,17.6z"/>
	<path class="st1" d="M239.3,11c0.6-0.3,1.4-0.6,2.7-0.6c2.6,0,3.2,1.3,3.2,3.4v3.7c0,0.6,0.1,1.2,0.1,1.5h-1.8
		c-0.1-0.3-0.1-0.7-0.1-1.1h0c-0.5,0.7-1.1,1.3-2.4,1.3c-1.3,0-2.5-0.9-2.5-2.5c0-2.3,1.9-2.9,4.4-2.9h0.4v-0.3
		c0-0.8-0.4-1.6-1.6-1.6c-1,0-1.9,0.5-2.3,0.8L239.3,11z M243.3,14.8h-0.2c-1.7,0-2.8,0.4-2.8,1.6c0,0.8,0.5,1.3,1.3,1.3
		c1.2,0,1.6-0.9,1.6-2.4V14.8z"/>
	<path class="st1" d="M253.8,6.7v10.8c0,0.6,0,1.1,0.1,1.4H252c0-0.2-0.1-0.7-0.1-1.3h0c-0.3,0.7-0.9,1.4-2.2,1.4c-2.1,0-3-2-3-4.3
		c0-2.7,1.1-4.3,2.9-4.3c1.2,0,1.9,0.7,2.2,1.3h0v-5H253.8z M250.2,17.6c1.2,0,1.6-1.3,1.6-2.9c0-1.6-0.5-2.8-1.6-2.8
		c-1.1,0-1.5,1.1-1.5,2.8C248.7,16.6,249,17.6,250.2,17.6z"/>
	<path class="st1" d="M256,11c0.6-0.3,1.4-0.6,2.7-0.6c2.6,0,3.2,1.3,3.2,3.4v3.7c0,0.6,0.1,1.2,0.1,1.5h-1.8
		c-0.1-0.3-0.1-0.7-0.1-1.1h0c-0.5,0.7-1.1,1.3-2.4,1.3c-1.3,0-2.5-0.9-2.5-2.5c0-2.3,1.9-2.9,4.4-2.9h0.4v-0.3
		c0-0.8-0.4-1.6-1.6-1.6c-1,0-1.9,0.5-2.3,0.8L256,11z M259.9,14.8h-0.2c-1.7,0-2.8,0.4-2.8,1.6c0,0.8,0.5,1.3,1.3,1.3
		c1.2,0,1.6-0.9,1.6-2.4V14.8z"/>
	<path class="st1" d="M273.4,18.7c-0.5,0.2-1.2,0.3-2,0.3c-2.8,0-4-1.9-4-4.3c0-2.4,1.2-4.3,4.1-4.3c0.6,0,1.4,0.2,1.8,0.3l-0.1,1.6
		c-0.4-0.2-0.9-0.4-1.4-0.4c-1.5,0-2.2,1-2.2,2.8c0,1.6,0.8,2.8,2.3,2.8c0.5,0,1.2-0.2,1.4-0.4L273.4,18.7z"/>
	<path class="st1" d="M277.9,10.4c1.7,0,3.7,0.9,3.7,4.3c0,3.5-2,4.3-3.7,4.3c-1.7,0-3.7-0.8-3.7-4.3
		C274.2,11.3,276.2,10.4,277.9,10.4z M277.9,17.6c1.3,0,1.6-1.5,1.6-2.9s-0.3-2.9-1.6-2.9c-1.3,0-1.6,1.5-1.6,2.9
		S276.6,17.6,277.9,17.6z"/>
	<path class="st1" d="M283,11.9c0-0.6,0-1.1-0.1-1.4h2c0,0.4,0.1,0.9,0.1,1.3h0c0.3-0.7,1-1.5,2.1-1.5c1.4,0,1.9,0.9,2.1,1.3
		c0.4-0.6,1-1.3,2.3-1.3c1.8,0,2.4,1.3,2.4,3.3v5.2h-2v-5.3c0-1-0.3-1.6-1.1-1.6c-0.9,0-1.4,0.8-1.4,1.8v5.1h-2v-5.3
		c0-1-0.3-1.6-1.1-1.6c-0.9,0-1.4,0.8-1.4,1.8v5.1h-2V11.9z"/>
	<path class="st1" d="M299.1,10.4c1.7,0,3.7,0.9,3.7,4.3c0,3.5-2,4.3-3.7,4.3c-1.7,0-3.7-0.8-3.7-4.3
		C295.4,11.3,297.3,10.4,299.1,10.4z M299.1,17.6c1.3,0,1.6-1.5,1.6-2.9s-0.3-2.9-1.6-2.9s-1.6,1.5-1.6,2.9S297.8,17.6,299.1,17.6z"
		/>
	<path class="st1" d="M125.1,26.6h2.1v2h-2.1V26.6z M125.2,30.1h2v8.4h-2V30.1z"/>
	<path class="st1" d="M129.1,31.5c0-0.5,0-1-0.1-1.4h1.9c0,0.4,0.1,0.9,0.1,1.3h0c0.3-0.5,0.9-1.4,2.2-1.4c1.9,0,2.5,1.4,2.5,3.1
		v5.4h-2v-5c0-1.3-0.3-1.8-1.2-1.8c-1.1,0-1.4,0.9-1.4,2v4.9h-2V31.5z"/>
	<path class="st1" d="M144.3,26.3v10.8c0,0.6,0,1.1,0.1,1.4h-1.9c0-0.2-0.1-0.7-0.1-1.3h0c-0.3,0.7-0.9,1.4-2.2,1.4
		c-2.1,0-3-2-3-4.3c0-2.7,1.1-4.3,2.9-4.3c1.2,0,1.9,0.7,2.2,1.3h0v-5H144.3z M140.7,37.2c1.2,0,1.6-1.3,1.6-2.9
		c0-1.6-0.5-2.8-1.6-2.8c-1.1,0-1.5,1.1-1.5,2.8C139.2,36.2,139.5,37.2,140.7,37.2z"/>
	<path class="st1" d="M152.6,37.2c0,0.5,0,1,0.1,1.4h-1.9c0-0.4-0.1-0.9-0.1-1.3l0,0l0,0c-0.4,0.6-0.9,1.4-2.2,1.4
		c-1.9,0-2.5-1.4-2.5-3.1v-5.4h2v5c0,1.3,0.4,1.8,1.2,1.8c1.1,0,1.4-1,1.4-2.1v-4.8h2V37.2z"/>
	<path class="st1" d="M160,38.3c-0.5,0.2-1.2,0.3-2,0.3c-2.8,0-4-1.9-4-4.3c0-2.4,1.2-4.3,4.1-4.3c0.6,0,1.4,0.2,1.8,0.3l-0.1,1.6
		c-0.4-0.2-0.9-0.4-1.4-0.4c-1.5,0-2.2,1-2.2,2.8c0,1.6,0.8,2.8,2.3,2.8c0.5,0,1.2-0.2,1.4-0.4L160,38.3z"/>
	<path class="st1" d="M161.8,28.4l2-0.6v2.4h1.7v1.5h-1.7V36c0,0.9,0.3,1.2,0.9,1.2c0.4,0,0.6-0.1,0.8-0.2v1.4
		c-0.3,0.1-0.8,0.3-1.4,0.3c-1.5,0-2.4-0.7-2.4-2.4v-4.6h-1.3v-1.5h1.3V28.4z"/>
	<path class="st1" d="M170.2,30c1.7,0,3.7,0.9,3.7,4.3c0,3.5-2,4.3-3.7,4.3c-1.7,0-3.7-0.8-3.7-4.3C166.5,30.9,168.4,30,170.2,30z
		 M170.2,37.2c1.3,0,1.6-1.5,1.6-2.9c0-1.4-0.3-2.9-1.6-2.9s-1.6,1.5-1.6,2.9C168.5,35.7,168.9,37.2,170.2,37.2z"/>
	<path class="st1" d="M175.4,31.5c0-0.5,0-1-0.1-1.4h1.8c0,0.5,0.1,1,0.1,1.5h0c0.2-0.7,0.9-1.7,2.1-1.7c0.1,0,0.2,0,0.3,0v1.9
		c-0.2,0-0.4-0.1-0.6-0.1c-0.8,0-1.7,0.5-1.7,2.1v4.6h-2V31.5z"/>
	<path class="st1" d="M191.9,26.3v10.8c0,0.6,0,1.1,0.1,1.4H190c0-0.2-0.1-0.7-0.1-1.3h0c-0.3,0.7-0.9,1.4-2.2,1.4c-2.1,0-3-2-3-4.3
		c0-2.7,1.1-4.3,2.9-4.3c1.2,0,1.9,0.7,2.2,1.3h0v-5H191.9z M188.2,37.2c1.2,0,1.6-1.3,1.6-2.9c0-1.6-0.5-2.8-1.6-2.8
		c-1.1,0-1.5,1.1-1.5,2.8C186.8,36.2,187.1,37.2,188.2,37.2z"/>
	<path class="st1" d="M199.7,38.1c-0.4,0.2-1.3,0.5-2.5,0.5c-2.7,0-3.9-1.9-3.9-4.2c0-2.5,1.3-4.5,3.5-4.5c1.8,0,3.4,1.1,3.4,4.5
		v0.4h-4.9c0,1.4,0.6,2.3,2.1,2.3c1.2,0,1.8-0.4,2.2-0.7L199.7,38.1z M198.2,33.6c0-1.5-0.5-2.2-1.4-2.2c-1.1,0-1.5,1.1-1.5,2.2
		H198.2z"/>
	<path class="st1" d="M201.8,26.3h2v12.2h-2V26.3z"/>
	<path class="st1" d="M209.5,36.6c0.3,0.1,1.2,0.6,2.1,0.6c0.7,0,1.3-0.2,1.3-0.8c0-0.3-0.2-0.6-0.9-1.1l-0.8-0.5
		c-0.8-0.5-1.8-1-1.8-2.4c0-1.2,1.1-2.4,2.9-2.4c1.1,0,1.9,0.3,2.1,0.3l-0.1,1.6c-0.5-0.2-1-0.4-1.8-0.4c-0.8,0-1.2,0.3-1.2,0.8
		c0,0.5,0.4,0.7,0.9,1.1l1,0.6c1,0.7,1.6,1.1,1.6,2.1c0,1.6-1.3,2.5-3.1,2.5c-1,0-1.9-0.2-2.3-0.4L209.5,36.6z"/>
	<path class="st1" d="M222.9,37.2c0,0.5,0,1,0.1,1.4H221c0-0.4-0.1-0.9-0.1-1.3l0,0l0,0c-0.4,0.6-0.9,1.4-2.2,1.4
		c-1.9,0-2.5-1.4-2.5-3.1v-5.4h2v5c0,1.3,0.4,1.8,1.2,1.8c1.1,0,1.4-1,1.4-2.1v-4.8h2V37.2z"/>
	<path class="st1" d="M230.7,38.1c-0.4,0.2-1.3,0.5-2.5,0.5c-2.7,0-3.9-1.9-3.9-4.2c0-2.5,1.3-4.5,3.5-4.5c1.8,0,3.4,1.1,3.4,4.5
		v0.4h-4.9c0,1.4,0.6,2.3,2.1,2.3c1.2,0,1.8-0.4,2.2-0.7L230.7,38.1z M229.2,33.6c0-1.5-0.5-2.2-1.4-2.2c-1.1,0-1.5,1.1-1.5,2.2
		H229.2z"/>
	<path class="st1" d="M232.5,31.5c0-0.5,0-1-0.1-1.4h1.9c0,0.4,0.1,0.9,0.1,1.3h0c0.3-0.5,0.9-1.4,2.2-1.4c1.9,0,2.5,1.4,2.5,3.1
		v5.4h-2v-5c0-1.3-0.3-1.8-1.2-1.8c-1.1,0-1.4,0.9-1.4,2v4.9h-2V31.5z M233.4,29c0-0.6,0.3-1.9,1.5-1.9c0.8,0,1.4,0.6,1.9,0.6
		c0.3,0,0.5-0.3,0.5-0.6h1c0,0.5-0.3,1.9-1.5,1.9c-0.6,0-1.2-0.6-1.8-0.6c-0.4,0-0.6,0.3-0.6,0.6H233.4z"/>
	<path class="st1" d="M244.3,30c1.7,0,3.7,0.9,3.7,4.3c0,3.5-2,4.3-3.7,4.3c-1.7,0-3.7-0.8-3.7-4.3C240.6,30.9,242.6,30,244.3,30z
		 M244.3,37.2c1.3,0,1.6-1.5,1.6-2.9c0-1.4-0.3-2.9-1.6-2.9s-1.6,1.5-1.6,2.9C242.7,35.7,243,37.2,244.3,37.2z"/>
	<path class="st1" d="M249.1,36.4h2v2.1h-2V36.4z"/>
	<path class="st1" d="M254.3,27.9l-0.9,0.8l-0.6-0.8l1.6-1.4h1v6.6h-1.2V27.9z"/>
</g>
</svg>
