<!-- Generator: Adobe Illustrator 20.1.0, SVG Export Plug-In  -->
<svg version="1.1"
	 xmlns="http://www.w3.org/2000/svg" xmlns:xlink="http://www.w3.org/1999/xlink" xmlns:a="http://ns.adobe.com/AdobeSVGViewerExtensions/3.0/"
	 x="0px" y="0px" width="372.8px" height="16.8px" viewBox="0 0 372.8 16.8"
	 style="overflow:scroll;enable-background:new 0 0 372.8 16.8;" xml:space="preserve">
<style type="text/css">
	.st0{fill:#FFFFFF;}
</style>
<defs>
</defs>
<g>
	<g>
		<path class="st0" d="M7,7.6h6v8.3c-0.9,0.4-2.7,0.9-4.6,0.9C3.6,16.8,0,14,0,8.9c0-4.6,2.7-8,8.5-8c2,0,3.3,0.4,4,0.6l-0.2,3.3
			c-0.8-0.5-2-0.9-3.4-0.9c-3.2,0-4.6,2-4.6,5s1.5,4.7,3.5,4.7c0.5,0,1-0.1,1.3-0.3v-2.9H7V7.6z"/>
		<path class="st0" d="M15.2,8.4c0-1.6-0.1-2.8-0.1-3.3h3.7c0.1,0.5,0.1,1.3,0.1,1.9h0c0.3-0.9,1-2.2,2.9-2.2c0.3,0,0.4,0,0.7,0.1
			v3.5c-0.2-0.1-0.7-0.1-1.2-0.1c-1.3,0-2.2,1.1-2.2,2.6v5.7h-4V8.4z"/>
		<path class="st0" d="M33.8,14c0,0.9,0.1,1.8,0.1,2.5h-3.5c0-0.5-0.1-1.1-0.1-1.6c-1.1,1.3-2,1.8-3.4,1.8c-2,0-3.5-1.5-3.5-3.7
			c0-2.6,1.9-3.9,5.9-3.9h1V8.8c0-0.7-0.6-1.6-2.2-1.6c-1.2,0-2.5,0.5-3.3,1.1l-0.1-2.8c0.9-0.4,2.4-0.7,4.3-0.7
			c4,0,4.8,1.9,4.8,4.2V14z M30.3,11h-0.5c-1.8,0-2.9,0.5-2.9,1.9c0,1,0.5,1.4,1.4,1.4c1.8,0,2-1.8,2-2.9V11z"/>
		<path class="st0" d="M35.1,5h4.1l2,7.9h0L43.2,5H47l-3.7,11.5h-4.7L35.1,5z"/>
		<path class="st0" d="M51.7,11.9c0.1,1.8,1.4,2.4,2.9,2.4c1.1,0,2.4-0.5,3.3-0.9l0.1,2.8c-0.9,0.3-2.4,0.6-4,0.7
			c-4.6,0-6-3.1-6-6.1c0-3.1,1.9-5.9,5.3-5.9c3.6,0,5.3,2.8,5.3,6v1.1H51.7z M55,9.8V9.5c0-1.5-0.4-2.3-1.6-2.3
			c-1.1,0-1.8,1-1.8,2.6H55z"/>
		<path class="st0" d="M71.3,14.5c0,0.7,0,1.3,0.1,2h-3.8c0-0.6-0.1-1.2-0.1-1.8h0c-0.8,1.5-1.8,2-3,2c-3,0-4.3-2.7-4.3-6.2
			c0-2.7,1.2-5.7,4.1-5.7c1.5,0,2.4,0.6,3.2,1.9h0c0-0.5-0.1-1.2-0.1-2V0h4V14.5z M65.8,13.9c1,0,1.5-1.3,1.5-3.2s-0.5-3.2-1.5-3.2
			c-1.2,0-1.5,1.3-1.5,3.2S64.7,13.9,65.8,13.9z"/>
		<path class="st0" d="M83.6,14c0,0.9,0.1,1.8,0.1,2.5h-3.5c0-0.5-0.1-1.1-0.1-1.6c-1.1,1.3-2,1.8-3.4,1.8c-2,0-3.5-1.5-3.5-3.7
			c0-2.6,1.9-3.9,5.9-3.9h1V8.8c0-0.7-0.6-1.6-2.2-1.6c-1.2,0-2.5,0.5-3.3,1.1l-0.1-2.8c0.9-0.4,2.4-0.7,4.3-0.7
			c4,0,4.8,1.9,4.8,4.2V14z M80,11h-0.5c-1.8,0-2.9,0.5-2.9,1.9c0,1,0.5,1.4,1.4,1.4c1.8,0,2-1.8,2-2.9V11z"/>
		<path class="st0" d="M96.6,14.5c0,0.7,0,1.3,0.1,2h-3.8c0-0.6-0.1-1.2-0.1-1.8h0c-0.8,1.5-1.8,2-3,2c-3,0-4.3-2.7-4.3-6.2
			c0-2.7,1.2-5.7,4.1-5.7c1.5,0,2.4,0.6,3.2,1.9h0c0-0.5-0.1-1.2-0.1-2V0h4V14.5z M91.1,13.9c1,0,1.5-1.3,1.5-3.2s-0.5-3.2-1.5-3.2
			c-1.2,0-1.5,1.3-1.5,3.2S89.9,13.9,91.1,13.9z"/>
		<path class="st0" d="M115.3,14.5c0,0.7,0,1.3,0.1,2h-3.8c0-0.6-0.1-1.2-0.1-1.8h0c-0.8,1.5-1.8,2-3,2c-3,0-4.3-2.7-4.3-6.2
			c0-2.7,1.2-5.7,4.1-5.7c1.5,0,2.4,0.6,3.2,1.9h0c0-0.5-0.1-1.2-0.1-2V0h4V14.5z M109.8,13.9c1,0,1.5-1.3,1.5-3.2s-0.5-3.2-1.5-3.2
			c-1.2,0-1.5,1.3-1.5,3.2S108.6,13.9,109.8,13.9z"/>
		<path class="st0" d="M120.9,11.9c0.1,1.8,1.4,2.4,2.9,2.4c1.1,0,2.4-0.5,3.3-0.9l0.1,2.8c-0.9,0.3-2.4,0.6-4,0.7
			c-4.6,0-6-3.1-6-6.1c0-3.1,1.9-5.9,5.3-5.9c3.6,0,5.3,2.8,5.3,6v1.1H120.9z M124.2,9.8V9.5c0-1.5-0.4-2.3-1.6-2.3
			c-1.1,0-1.8,1-1.8,2.6H124.2z"/>
		<path class="st0" d="M135.6,0h4v16.5h-4V0z"/>
		<path class="st0" d="M147.4,4.8c4.2,0,5.7,2.9,5.7,6c0,3.1-1.5,6-5.7,6s-5.7-2.9-5.7-6C141.7,7.7,143.2,4.8,147.4,4.8z
			 M147.4,14.1c1.3,0,1.6-1.6,1.6-3.3c0-1.7-0.2-3.3-1.6-3.3c-1.3,0-1.6,1.7-1.6,3.3C145.8,12.5,146,14.1,147.4,14.1z"/>
		<path class="st0" d="M154.7,13.2c0.6,0.3,1.6,0.8,3,0.8c1.1,0,1.6-0.3,1.6-0.8c0-0.4-0.3-0.6-1.3-1l-1.2-0.4
			c-1.8-0.7-2.4-1.8-2.4-3.2c0-2,1.3-3.8,4.8-3.8c1.2,0,2.4,0.2,3.2,0.5l-0.1,2.9c-0.7-0.3-1.8-0.7-2.8-0.7c-0.8,0-1.4,0.2-1.4,0.8
			c0,0.4,0.4,0.7,1.3,1l1.3,0.5c1.4,0.5,2.3,1.2,2.3,3.2c0,2.4-1.5,3.8-4.9,3.8c-1.3,0-2.9-0.3-3.5-0.5L154.7,13.2z"/>
		<path class="st0" d="M169.6,5h2V2.6l4-1.2V5h2.2v2.7h-2.2v4.9c0,1,0.6,1.4,1.3,1.4c0.4,0,0.7-0.1,0.9-0.2l0.1,2.7
			c-0.5,0.1-1.5,0.3-2.6,0.3c-2.2,0-3.7-1.2-3.7-3.4V7.7h-2V5z"/>
		<path class="st0" d="M179.4,8.4c0-1.6-0.1-2.8-0.1-3.3h3.7c0.1,0.5,0.1,1.3,0.1,1.9h0c0.3-0.9,1-2.2,2.9-2.2c0.3,0,0.4,0,0.7,0.1
			v3.5c-0.2-0.1-0.7-0.1-1.2-0.1c-1.3,0-2.2,1.1-2.2,2.6v5.7h-4V8.4z"/>
		<path class="st0" d="M198,14c0,0.9,0.1,1.8,0.1,2.5h-3.5c0-0.5-0.1-1.1-0.1-1.6c-1.1,1.3-2,1.8-3.4,1.8c-2,0-3.5-1.5-3.5-3.7
			c0-2.6,1.9-3.9,5.9-3.9h1V8.8c0-0.7-0.6-1.6-2.2-1.6c-1.2,0-2.5,0.5-3.3,1.1l-0.1-2.8c0.9-0.4,2.4-0.7,4.3-0.7
			c4,0,4.8,1.9,4.8,4.2V14z M194.5,11H194c-1.8,0-2.9,0.5-2.9,1.9c0,1,0.5,1.4,1.4,1.4c1.8,0,2-1.8,2-2.9V11z"/>
		<path class="st0" d="M199.9,13.2c0.6,0.3,1.6,0.8,3,0.8c1.1,0,1.6-0.3,1.6-0.8c0-0.4-0.3-0.6-1.3-1l-1.2-0.4
			c-1.8-0.7-2.4-1.8-2.4-3.2c0-2,1.3-3.8,4.8-3.8c1.2,0,2.4,0.2,3.2,0.5l-0.1,2.9c-0.7-0.3-1.8-0.7-2.8-0.7c-0.8,0-1.4,0.2-1.4,0.8
			c0,0.4,0.4,0.7,1.3,1l1.3,0.5c1.4,0.5,2.3,1.2,2.3,3.2c0,2.4-1.5,3.8-4.9,3.8c-1.3,0-2.9-0.3-3.5-0.5L199.9,13.2z"/>
		<path class="st0" d="M209.1,5h2V2.6l4-1.2V5h2.2v2.7H215v4.9c0,1,0.6,1.4,1.3,1.4c0.4,0,0.7-0.1,0.9-0.2l0.1,2.7
			c-0.5,0.1-1.5,0.3-2.6,0.3c-2.2,0-3.7-1.2-3.7-3.4V7.7h-2V5z"/>
		<path class="st0" d="M224.3,4.8c4.2,0,5.7,2.9,5.7,6c0,3.1-1.5,6-5.7,6s-5.7-2.9-5.7-6C218.6,7.7,220.1,4.8,224.3,4.8z
			 M224.3,14.1c1.3,0,1.6-1.6,1.6-3.3c0-1.7-0.2-3.3-1.6-3.3c-1.3,0-1.6,1.7-1.6,3.3C222.7,12.5,223,14.1,224.3,14.1z"/>
		<path class="st0" d="M231.9,8.4c0-1.6-0.1-2.8-0.1-3.3h3.7c0.1,0.5,0.1,1.3,0.1,1.9h0c0.3-0.9,1-2.2,2.9-2.2c0.3,0,0.4,0,0.7,0.1
			v3.5c-0.2-0.1-0.7-0.1-1.2-0.1c-1.3,0-2.2,1.1-2.2,2.6v5.7h-4V8.4z"/>
		<path class="st0" d="M240.9,7.4c0-0.9-0.1-1.8-0.1-2.3h3.7c0.1,0.5,0.1,1.3,0.1,1.9h0c0.2-0.6,1-2.2,3.2-2.2c2,0,3.5,1.2,3.5,3.7
			v8h-4V9.6c0-1.1-0.3-1.6-1.1-1.6c-1,0-1.4,1-1.4,2.2v6.3h-4V7.4z"/>
		<path class="st0" d="M258.9,4.8c4.2,0,5.7,2.9,5.7,6c0,3.1-1.5,6-5.7,6s-5.7-2.9-5.7-6C253.2,7.7,254.7,4.8,258.9,4.8z
			 M258.9,14.1c1.3,0,1.6-1.6,1.6-3.3c0-1.7-0.2-3.3-1.6-3.3c-1.3,0-1.6,1.7-1.6,3.3C257.4,12.5,257.6,14.1,258.9,14.1z"/>
		<path class="st0" d="M266.3,13.2c0.6,0.3,1.6,0.8,3,0.8c1.1,0,1.6-0.3,1.6-0.8c0-0.4-0.3-0.6-1.3-1l-1.2-0.4
			c-1.8-0.7-2.4-1.8-2.4-3.2c0-2,1.3-3.8,4.8-3.8c1.2,0,2.4,0.2,3.2,0.5l-0.1,2.9c-0.7-0.3-1.8-0.7-2.8-0.7c-0.8,0-1.4,0.2-1.4,0.8
			c0,0.4,0.4,0.7,1.3,1l1.3,0.5c1.4,0.5,2.3,1.2,2.3,3.2c0,2.4-1.5,3.8-4.9,3.8c-1.3,0-2.9-0.3-3.5-0.5L266.3,13.2z"/>
		<path class="st0" d="M292,14c0,0.9,0.1,1.8,0.1,2.5h-3.5c0-0.5-0.1-1.1-0.1-1.6c-1.1,1.3-2,1.8-3.4,1.8c-2,0-3.5-1.5-3.5-3.7
			c0-2.6,1.9-3.9,5.9-3.9h1V8.8c0-0.7-0.6-1.6-2.2-1.6c-1.2,0-2.5,0.5-3.3,1.1l-0.1-2.8c0.9-0.4,2.4-0.7,4.3-0.7
			c4,0,4.8,1.9,4.8,4.2V14z M288.5,11H288c-1.8,0-2.9,0.5-2.9,1.9c0,1,0.5,1.4,1.4,1.4c1.8,0,2-1.8,2-2.9V11z"/>
		<path class="st0" d="M294.2,7.4c0-0.9-0.1-1.8-0.1-2.3h3.7c0.1,0.5,0.1,1.3,0.1,1.9h0c0.2-0.6,1-2.2,3.2-2.2c2,0,3.5,1.2,3.5,3.7
			v8h-4V9.6c0-1.1-0.3-1.6-1.1-1.6c-1,0-1.4,1-1.4,2.2v6.3h-4V7.4z"/>
		<path class="st0" d="M306.6,13.2c0.6,0.3,1.6,0.8,3,0.8c1.1,0,1.6-0.3,1.6-0.8c0-0.4-0.3-0.6-1.3-1l-1.2-0.4
			c-1.8-0.7-2.4-1.8-2.4-3.2c0-2,1.3-3.8,4.8-3.8c1.2,0,2.4,0.2,3.2,0.5l-0.1,2.9c-0.7-0.3-1.8-0.7-2.8-0.7c-0.8,0-1.4,0.2-1.4,0.8
			c0,0.4,0.4,0.7,1.3,1l1.3,0.5c1.4,0.5,2.3,1.2,2.3,3.2c0,2.4-1.5,3.8-4.9,3.8c-1.3,0-2.9-0.3-3.5-0.5L306.6,13.2z"/>
		<path class="st0" d="M316.8,0h4v3.3h-4V0z M316.8,5h4v11.5h-4V5z"/>
		<path class="st0" d="M328.5,4.8c4.2,0,5.7,2.9,5.7,6c0,3.1-1.5,6-5.7,6s-5.7-2.9-5.7-6C322.8,7.7,324.4,4.8,328.5,4.8z
			 M328.5,14.1c1.3,0,1.6-1.6,1.6-3.3c0-1.7-0.2-3.3-1.6-3.3c-1.3,0-1.6,1.7-1.6,3.3C327,12.5,327.2,14.1,328.5,14.1z"/>
		<path class="st0" d="M335.9,13.2c0.6,0.3,1.6,0.8,3,0.8c1.1,0,1.6-0.3,1.6-0.8c0-0.4-0.3-0.6-1.3-1l-1.2-0.4
			c-1.8-0.7-2.4-1.8-2.4-3.2c0-2,1.3-3.8,4.8-3.8c1.2,0,2.4,0.2,3.2,0.5l-0.1,2.9c-0.7-0.3-1.8-0.7-2.8-0.7c-0.8,0-1.4,0.2-1.4,0.8
			c0,0.4,0.4,0.7,1.3,1l1.3,0.5c1.4,0.5,2.3,1.2,2.3,3.2c0,2.4-1.5,3.8-4.9,3.8c-1.3,0-2.9-0.3-3.5-0.5L335.9,13.2z"/>
		<path class="st0" d="M351.3,4.8c4.2,0,5.7,2.9,5.7,6c0,3.1-1.5,6-5.7,6s-5.7-2.9-5.7-6C345.6,7.7,347.2,4.8,351.3,4.8z
			 M351.3,14.1c1.3,0,1.6-1.6,1.6-3.3c0-1.7-0.2-3.3-1.6-3.3c-1.3,0-1.6,1.7-1.6,3.3C349.8,12.5,350,14.1,351.3,14.1z"/>
		<path class="st0" d="M358.7,13.2c0.6,0.3,1.6,0.8,3,0.8c1.1,0,1.6-0.3,1.6-0.8c0-0.4-0.3-0.6-1.3-1l-1.2-0.4
			c-1.8-0.7-2.4-1.8-2.4-3.2c0-2,1.3-3.8,4.8-3.8c1.2,0,2.4,0.2,3.2,0.5l-0.1,2.9c-0.7-0.3-1.8-0.7-2.8-0.7c-0.8,0-1.4,0.2-1.4,0.8
			c0,0.4,0.4,0.7,1.3,1l1.3,0.5c1.4,0.5,2.3,1.2,2.3,3.2c0,2.4-1.5,3.8-4.9,3.8c-1.3,0-2.9-0.3-3.5-0.5L358.7,13.2z"/>
		<path class="st0" d="M368.1,8.2c2.3-2.6,3.4-4.4,3.4-5.6c0-0.8-0.4-1.5-1.3-1.5c-0.5,0-1.2,0.3-1.7,0.7l-0.1-1.1
			c0.8-0.4,1.6-0.5,2.1-0.5c1.4,0,2.3,1,2.3,2.3c0,1.6-1.4,3.9-3.3,5.8h3.5v1h-4.7V8.2z"/>
	</g>
</g>
</svg>
