<!-- Generator: Adobe Illustrator 20.1.0, SVG Export Plug-In  -->
<svg version="1.1"
	 xmlns="http://www.w3.org/2000/svg" xmlns:xlink="http://www.w3.org/1999/xlink" xmlns:a="http://ns.adobe.com/AdobeSVGViewerExtensions/3.0/"
	 x="0px" y="0px" width="231.4px" height="93.5px" viewBox="0 0 231.4 93.5"
	 style="overflow:scroll;enable-background:new 0 0 231.4 93.5;" xml:space="preserve">
<style type="text/css">
	.st0{fill:#FFF100;}
	.st1{fill:#D1DD26;}
	.st2{fill:#ECDA12;}
	.st3{fill:#FFA400;}
	.st4{fill:#F89C1C;}
	.st5{fill:#E73F35;}
	.st6{fill:#F26E21;}
	.st7{fill:#B34FC5;}
	.st8{fill:#880063;}
	.st9{fill:#6D6E70;}
	.st10{fill:#4281BD;}
	.st11{font-family:'FrutigerLTStd-BoldCn';}
	.st12{font-size:10.4589px;}
</style>
<defs>
</defs>
<g>
	<g>
		<path class="st0" d="M154.2,23.4c0,8.6,6.9,15.5,15.5,15.5c8.6,0,15.5-6.9,15.5-15.5c0-8.6-6.9-15.5-15.5-15.5
			C161.2,7.9,154.2,14.8,154.2,23.4"/>
		<path class="st1" d="M162.2,41.3c0,8.6,6.9,15.5,15.5,15.5c8.6,0,15.5-6.9,15.5-15.5c0-8.6-6.9-15.5-15.5-15.5
			C169.2,25.8,162.2,32.8,162.2,41.3"/>
		<path class="st2" d="M184.6,27.5c-1.8,6.6-7.8,11.4-14.9,11.4c-2.5,0-4.8-0.6-6.9-1.6c1.8-6.6,7.8-11.4,14.9-11.4
			C180.2,25.8,182.6,26.4,184.6,27.5"/>
		<path class="st3" d="M134,15.5c0,8.6,6.9,15.5,15.5,15.5c8.6,0,15.5-6.9,15.5-15.5C165,6.9,158.1,0,149.5,0
			C141,0,134,6.9,134,15.5"/>
		<path class="st4" d="M163.6,9.1c0.9,1.9,1.4,4.1,1.4,6.4c0,6.4-3.9,11.9-9.4,14.3c-0.9-1.9-1.4-4.1-1.4-6.4
			C154.2,17,158.1,11.5,163.6,9.1"/>
		<path class="st5" d="M114.4,21.6c0,8.6,6.9,15.5,15.5,15.5c8.6,0,15.5-6.9,15.5-15.5c0-8.6-6.9-15.5-15.5-15.5
			C121.3,6.1,114.4,13,114.4,21.6"/>
		<path class="st6" d="M145.4,21.6c0,2.9-0.8,5.6-2.2,7.9c-5.4-2.4-9.1-7.8-9.1-14.1c0-2.9,0.8-5.6,2.2-7.9
			C141.7,9.9,145.4,15.3,145.4,21.6"/>
		<path class="st7" d="M105.1,40.4c0,8.6,6.9,15.5,15.5,15.5c8.6,0,15.5-6.9,15.5-15.5c0-8.6-6.9-15.5-15.5-15.5
			C112,24.9,105.1,31.9,105.1,40.4"/>
		<path class="st8" d="M135.4,36.1c-1.7,0.6-3.5,1-5.4,1c-7,0-13-4.7-14.9-11.1c1.7-0.6,3.5-1,5.4-1
			C127.6,24.9,133.5,29.6,135.4,36.1"/>
		<polygon class="st9" points="115.5,93.3 113.7,93.3 112.2,85.1 113.9,85.1 114.9,91.3 118.3,85.1 120,85.1 		"/>
		<path class="st9" d="M121.1,89l-1.6-0.1c0.2-0.5,0.5-0.9,0.9-1.2c0.4-0.3,1-0.4,1.8-0.4c0.8,0,1.3,0.2,1.7,0.5
			c0.4,0.3,0.5,0.7,0.5,1.1c0,0.2,0,0.4,0,0.6c0,0.2-0.1,0.7-0.3,1.6c-0.2,0.7-0.2,1.2-0.2,1.5c0,0.3,0,0.5,0.1,0.8h-1.5
			c-0.1-0.2-0.1-0.4-0.1-0.7c-0.2,0.3-0.5,0.5-0.8,0.6c-0.3,0.1-0.6,0.2-0.9,0.2c-0.5,0-0.9-0.2-1.2-0.5c-0.3-0.3-0.5-0.7-0.5-1.2
			c0-0.6,0.2-1,0.5-1.4c0.4-0.3,1-0.5,1.9-0.6c0.8-0.1,1.3-0.1,1.5-0.2c0.1-0.2,0.1-0.4,0.1-0.5c0-0.2-0.1-0.3-0.2-0.4
			c-0.1-0.1-0.3-0.2-0.6-0.2c-0.3,0-0.5,0.1-0.7,0.2C121.3,88.7,121.2,88.8,121.1,89 M122.6,90.5c-0.1,0-0.2,0.1-0.4,0.1
			c-0.8,0.1-1.3,0.2-1.6,0.4c-0.2,0.1-0.3,0.3-0.3,0.5c0,0.2,0.1,0.3,0.2,0.5c0.1,0.1,0.3,0.2,0.5,0.2c0.2,0,0.5-0.1,0.7-0.2
			c0.2-0.1,0.4-0.3,0.5-0.5c0.1-0.2,0.2-0.5,0.3-0.9L122.6,90.5z"/>
		<polygon class="st9" points="125.5,93.3 127.2,85.1 128.8,85.1 127.1,93.3 		"/>
		<path class="st9" d="M134.8,90.8h-4c0,0.1,0,0.1,0,0.1c0,0.4,0.1,0.7,0.3,1c0.2,0.2,0.5,0.4,0.8,0.4c0.5,0,0.9-0.3,1.2-0.8
			l1.4,0.2c-0.3,0.6-0.7,1-1.1,1.3c-0.5,0.3-1,0.4-1.6,0.4c-0.8,0-1.4-0.3-1.9-0.8c-0.5-0.5-0.8-1.2-0.8-2c0-0.8,0.2-1.5,0.7-2.2
			c0.6-0.9,1.5-1.3,2.6-1.3c0.7,0,1.3,0.2,1.7,0.7c0.4,0.5,0.6,1.1,0.6,1.9C134.9,90.2,134.9,90.5,134.8,90.8 M133.4,89.9
			c0-0.1,0-0.1,0-0.2c0-0.4-0.1-0.8-0.3-1c-0.2-0.2-0.5-0.3-0.8-0.3c-0.3,0-0.6,0.1-0.9,0.4c-0.3,0.3-0.4,0.6-0.5,1.1H133.4z"/>
		<path class="st9" d="M136.8,87.4h1.5l-0.2,1.1c0.6-0.8,1.2-1.3,1.8-1.3c0.2,0,0.5,0.1,0.7,0.2l-0.6,1.3c-0.1-0.1-0.3-0.1-0.5-0.1
			c-0.3,0-0.6,0.1-0.9,0.3c-0.3,0.2-0.5,0.5-0.7,0.8c-0.2,0.3-0.3,0.9-0.5,1.7l-0.4,1.9h-1.6L136.8,87.4z"/>
		<path class="st9" d="M141.6,87.4h1.6l-1.2,5.9h-1.6L141.6,87.4z M142.1,85.1h1.6l-0.3,1.5h-1.6L142.1,85.1z"/>
		<path class="st9" d="M146.1,89l-1.6-0.1c0.2-0.5,0.5-0.9,0.9-1.2c0.4-0.3,1-0.4,1.8-0.4c0.8,0,1.3,0.2,1.7,0.5
			c0.4,0.3,0.5,0.7,0.5,1.1c0,0.2,0,0.4,0,0.6c0,0.2-0.1,0.7-0.3,1.6c-0.2,0.7-0.2,1.2-0.2,1.5c0,0.3,0,0.5,0.1,0.8h-1.5
			c-0.1-0.2-0.1-0.4-0.1-0.7c-0.2,0.3-0.5,0.5-0.8,0.6c-0.3,0.1-0.6,0.2-0.9,0.2c-0.5,0-0.9-0.2-1.2-0.5c-0.3-0.3-0.5-0.7-0.5-1.2
			c0-0.6,0.2-1,0.5-1.4c0.4-0.3,1-0.5,1.9-0.6c0.8-0.1,1.3-0.1,1.5-0.2c0.1-0.2,0.1-0.4,0.1-0.5c0-0.2-0.1-0.3-0.2-0.4
			c-0.1-0.1-0.3-0.2-0.6-0.2c-0.3,0-0.5,0.1-0.7,0.2C146.3,88.7,146.2,88.8,146.1,89 M147.6,90.5c-0.1,0-0.2,0.1-0.4,0.1
			c-0.8,0.1-1.3,0.2-1.6,0.4c-0.2,0.1-0.3,0.3-0.3,0.5c0,0.2,0.1,0.3,0.2,0.5c0.1,0.1,0.3,0.2,0.5,0.2c0.2,0,0.5-0.1,0.7-0.2
			c0.2-0.1,0.4-0.3,0.5-0.5c0.1-0.2,0.2-0.5,0.3-0.9L147.6,90.5z"/>
		<path class="st9" d="M151.8,87.4h1.5l-0.2,0.8c0.4-0.3,0.7-0.6,1.1-0.7c0.3-0.1,0.7-0.2,1-0.2c0.5,0,0.9,0.1,1.2,0.4
			c0.3,0.3,0.4,0.7,0.4,1.1c0,0.2-0.1,0.6-0.2,1.2l-0.7,3.4h-1.6l0.7-3.4c0.1-0.5,0.2-0.8,0.2-0.9c0-0.2-0.1-0.4-0.2-0.5
			c-0.1-0.1-0.3-0.2-0.5-0.2c-0.2,0-0.5,0.1-0.8,0.3c-0.3,0.2-0.5,0.5-0.7,0.8c-0.1,0.2-0.3,0.7-0.4,1.4l-0.5,2.4h-1.6L151.8,87.4z"
			/>
		<path class="st9" d="M160.1,89l-1.6-0.1c0.2-0.5,0.5-0.9,0.9-1.2c0.4-0.3,1-0.4,1.8-0.4c0.8,0,1.3,0.2,1.7,0.5
			c0.4,0.3,0.5,0.7,0.5,1.1c0,0.2,0,0.4,0,0.6c0,0.2-0.1,0.7-0.3,1.6c-0.2,0.7-0.2,1.2-0.2,1.5c0,0.3,0,0.5,0.1,0.8h-1.5
			c-0.1-0.2-0.1-0.4-0.1-0.7c-0.2,0.3-0.5,0.5-0.8,0.6c-0.3,0.1-0.6,0.2-0.9,0.2c-0.5,0-0.9-0.2-1.2-0.5c-0.3-0.3-0.5-0.7-0.5-1.2
			c0-0.6,0.2-1,0.5-1.4c0.3-0.3,1-0.5,1.9-0.6c0.8-0.1,1.3-0.1,1.5-0.2c0.1-0.2,0.1-0.4,0.1-0.5c0-0.2-0.1-0.3-0.2-0.4
			c-0.1-0.1-0.3-0.2-0.6-0.2c-0.3,0-0.5,0.1-0.7,0.2C160.3,88.7,160.1,88.8,160.1,89 M161.6,90.5c-0.1,0-0.2,0.1-0.4,0.1
			c-0.8,0.1-1.3,0.2-1.6,0.4c-0.2,0.1-0.3,0.3-0.3,0.5c0,0.2,0.1,0.3,0.2,0.5c0.1,0.1,0.3,0.2,0.5,0.2c0.2,0,0.5-0.1,0.7-0.2
			c0.2-0.1,0.4-0.3,0.5-0.5c0.1-0.2,0.2-0.5,0.3-0.9L161.6,90.5z"/>
		<path class="st9" d="M168.2,90.9c0-1.1,0.3-2,0.9-2.6c0.6-0.7,1.4-1,2.4-1c0.9,0,1.6,0.2,2,0.7c0.5,0.5,0.7,1.1,0.7,2
			c0,1-0.3,1.8-0.9,2.5c-0.6,0.7-1.4,1.1-2.5,1.1c-0.6,0-1.1-0.1-1.5-0.3c-0.4-0.2-0.8-0.5-1-1C168.3,91.8,168.2,91.3,168.2,90.9
			 M172.8,89.7c0-0.4-0.1-0.7-0.3-0.9c-0.2-0.2-0.5-0.3-0.9-0.3c-0.3,0-0.7,0.1-0.9,0.3c-0.3,0.2-0.5,0.5-0.6,0.9
			c-0.1,0.4-0.2,0.8-0.2,1.1c0,0.4,0.1,0.8,0.3,1c0.2,0.3,0.5,0.4,0.9,0.4c0.4,0,0.8-0.2,1.1-0.6C172.5,91.1,172.8,90.5,172.8,89.7"
			/>
		<path class="st9" d="M179.4,87.4l-0.3,1.2H178l-1,4.8h-1.6l1-4.8h-0.9l0.3-1.2h0.9l0.1-0.6c0.1-0.5,0.2-0.8,0.3-1
			c0.1-0.2,0.3-0.4,0.6-0.6c0.3-0.1,0.6-0.2,1-0.2c0.5,0,1,0.1,1.6,0.3l-0.3,1.1c-0.4-0.1-0.7-0.2-0.9-0.2c-0.2,0-0.3,0.1-0.4,0.2
			c-0.1,0.1-0.1,0.3-0.2,0.6l-0.1,0.4H179.4z"/>
		<path class="st9" d="M183.3,87.4l-0.3,1.2h-1.1l-1,4.8h-1.6l1-4.8h-0.9l0.3-1.2h0.9l0.1-0.6c0.1-0.5,0.2-0.8,0.3-1
			c0.1-0.2,0.3-0.4,0.6-0.6c0.3-0.1,0.6-0.2,1-0.2c0.5,0,1,0.1,1.6,0.3l-0.3,1.1c-0.4-0.1-0.7-0.2-0.9-0.2c-0.2,0-0.3,0.1-0.4,0.2
			c-0.1,0.1-0.1,0.3-0.2,0.6l-0.1,0.4H183.3z"/>
		<path class="st9" d="M184.5,87.4h1.6l-1.2,5.9h-1.6L184.5,87.4z M185,85.1h1.6l-0.3,1.5h-1.6L185,85.1z"/>
		<path class="st9" d="M190.7,91.1l1.6,0.3c-0.3,0.7-0.6,1.2-1.1,1.6c-0.5,0.4-1.1,0.5-1.8,0.5c-0.8,0-1.4-0.2-1.8-0.7
			c-0.4-0.5-0.7-1.1-0.7-1.9c0-0.6,0.1-1.3,0.4-1.8c0.3-0.6,0.7-1,1.2-1.4c0.5-0.3,1.1-0.5,1.8-0.5c0.7,0,1.3,0.2,1.7,0.5
			c0.4,0.4,0.7,0.9,0.7,1.4l-1.5,0.2c0-0.3-0.1-0.6-0.3-0.7c-0.2-0.2-0.4-0.2-0.7-0.2c-0.3,0-0.6,0.1-0.9,0.3
			c-0.3,0.2-0.5,0.6-0.6,1c-0.1,0.5-0.2,0.9-0.2,1.3c0,0.4,0.1,0.6,0.3,0.8c0.2,0.2,0.4,0.3,0.6,0.3c0.3,0,0.5-0.1,0.7-0.3
			C190.4,91.7,190.6,91.5,190.7,91.1"/>
		<path class="st9" d="M194.6,87.4h1.6l-1.2,5.9h-1.6L194.6,87.4z M195.1,85.1h1.6l-0.3,1.5h-1.6L195.1,85.1z"/>
		<path class="st9" d="M198.1,87.4h1.5l-0.2,0.8c0.4-0.3,0.7-0.6,1.1-0.7c0.3-0.1,0.7-0.2,1.1-0.2c0.5,0,0.9,0.1,1.2,0.4
			c0.3,0.3,0.4,0.7,0.4,1.1c0,0.2-0.1,0.6-0.2,1.2l-0.7,3.4h-1.6l0.7-3.4c0.1-0.5,0.2-0.8,0.2-0.9c0-0.2-0.1-0.4-0.2-0.5
			c-0.1-0.1-0.3-0.2-0.5-0.2c-0.2,0-0.5,0.1-0.8,0.3c-0.3,0.2-0.5,0.5-0.7,0.8c-0.1,0.2-0.3,0.7-0.4,1.4l-0.5,2.4h-1.6L198.1,87.4z"
			/>
		<path class="st9" d="M206.4,89l-1.6-0.1c0.2-0.5,0.5-0.9,0.9-1.2c0.4-0.3,1-0.4,1.8-0.4c0.8,0,1.3,0.2,1.7,0.5
			c0.4,0.3,0.5,0.7,0.5,1.1c0,0.2,0,0.4,0,0.6c0,0.2-0.1,0.7-0.3,1.6c-0.2,0.7-0.2,1.2-0.2,1.5c0,0.3,0,0.5,0.1,0.8h-1.5
			c-0.1-0.2-0.1-0.4-0.1-0.7c-0.2,0.3-0.5,0.5-0.8,0.6c-0.3,0.1-0.6,0.2-0.9,0.2c-0.5,0-0.9-0.2-1.2-0.5c-0.3-0.3-0.5-0.7-0.5-1.2
			c0-0.6,0.2-1,0.5-1.4c0.4-0.3,1-0.5,1.9-0.6c0.8-0.1,1.3-0.1,1.5-0.2c0.1-0.2,0.1-0.4,0.1-0.5c0-0.2-0.1-0.3-0.2-0.4
			c-0.1-0.1-0.3-0.2-0.6-0.2c-0.3,0-0.5,0.1-0.7,0.2C206.6,88.7,206.5,88.8,206.4,89 M207.9,90.5c-0.1,0-0.2,0.1-0.4,0.1
			c-0.8,0.1-1.3,0.2-1.6,0.4c-0.2,0.1-0.3,0.3-0.3,0.5c0,0.2,0.1,0.3,0.2,0.5c0.1,0.1,0.3,0.2,0.5,0.2c0.2,0,0.5-0.1,0.7-0.2
			c0.2-0.1,0.4-0.3,0.5-0.5c0.1-0.2,0.2-0.5,0.3-0.9L207.9,90.5z"/>
		<polygon class="st9" points="210.8,93.3 212.5,85.1 214.1,85.1 212.4,93.3 		"/>
		<path class="st9" d="M215.5,87.4h1.6l-1.2,5.9h-1.6L215.5,87.4z M216,85.1h1.6l-0.3,1.5h-1.6L216,85.1z"/>
		<path class="st9" d="M217.5,91.7l1.6-0.2c0.1,0.3,0.3,0.6,0.5,0.7c0.2,0.1,0.5,0.2,0.8,0.2c0.4,0,0.7-0.1,0.9-0.2
			c0.2-0.1,0.2-0.3,0.2-0.4c0-0.1,0-0.2-0.1-0.3c-0.1-0.1-0.3-0.2-0.7-0.3c-1-0.3-1.6-0.6-1.8-0.8c-0.4-0.3-0.5-0.7-0.5-1.1
			c0-0.5,0.2-0.9,0.5-1.2c0.5-0.5,1.2-0.7,2.2-0.7c0.8,0,1.3,0.1,1.7,0.4c0.4,0.3,0.6,0.7,0.7,1.1l-1.5,0.3
			c-0.1-0.2-0.2-0.4-0.4-0.5c-0.2-0.1-0.5-0.2-0.9-0.2c-0.3,0-0.6,0.1-0.7,0.2c-0.1,0.1-0.2,0.2-0.2,0.4c0,0.2,0.1,0.3,0.2,0.4
			c0.1,0.1,0.4,0.2,0.9,0.3c0.8,0.2,1.3,0.5,1.6,0.7c0.4,0.3,0.6,0.7,0.6,1.1c0,0.6-0.2,1.1-0.7,1.5c-0.5,0.4-1.1,0.6-2,0.6
			c-0.9,0-1.5-0.2-2-0.5C218,92.7,217.7,92.2,217.5,91.7"/>
		<path class="st10" d="M41.4,65.5c0.4,2.4,1.5,4.4,3.3,5.9c1.8,1.5,3.9,2.3,6.3,2.3c1.7,0,3.3-0.4,4.7-1.2c1.4-0.8,2.6-2,3.4-3.5
			h5.9c-1.3,3.2-3.2,5.7-5.6,7.4c-2.4,1.7-5.2,2.6-8.4,2.6c-2.2,0-4.1-0.4-5.9-1.1c-1.8-0.8-3.4-1.9-4.9-3.4c-1.4-1.4-2.4-3.1-3.2-5
			c-0.8-1.9-1.2-3.8-1.2-5.8c0-2.1,0.3-4,1.1-5.8c0.7-1.8,1.7-3.4,3.1-4.9c1.5-1.6,3.1-2.8,4.9-3.6c1.8-0.8,3.8-1.2,6-1.2
			c2.6,0,5,0.6,7.2,1.8c2.2,1.2,4,2.9,5.5,5c0.8,1.3,1.5,2.8,1.9,4.4c0.4,1.6,0.6,3.4,0.6,5.4v0.8H41.4z M60.2,60.7
			c-0.7-2.4-1.8-4.3-3.4-5.6c-1.6-1.3-3.5-2-5.8-2c-2.3,0-4.3,0.7-6,2c-1.7,1.4-2.9,3.2-3.5,5.5H60.2z"/>
		<path class="st10" d="M66.4,63.6c0-2.1,0.3-4,1-5.8c0.7-1.8,1.7-3.4,3.1-4.8c1.5-1.6,3.1-2.8,5-3.6c1.8-0.9,3.8-1.3,5.7-1.3
			c2.1,0,4.1,0.4,5.9,1.1c1.8,0.8,3.5,1.9,4.9,3.4c1.4,1.5,2.5,3.1,3.3,5c0.8,1.8,1.2,3.7,1.2,5.7c0,2-0.4,3.9-1.1,5.8
			c-0.7,1.9-1.7,3.6-3,5c-1.5,1.6-3.2,2.9-5,3.7c-1.9,0.8-3.8,1.3-5.9,1.3c-2.1,0-4.1-0.4-5.9-1.2c-1.8-0.8-3.4-1.9-4.9-3.4
			c-1.4-1.4-2.4-3.1-3.2-5C66.8,67.5,66.4,65.5,66.4,63.6 M71.8,63.5c0,2.9,0.9,5.4,2.8,7.3c1.9,1.9,4.2,2.9,6.9,2.9
			c2.7,0,5-1,6.8-2.9c1.8-2,2.7-4.4,2.7-7.3c0-3-0.9-5.4-2.7-7.3c-1.8-1.9-4.1-2.9-6.9-2.9c-2.7,0-5,1-6.9,2.9
			C72.8,58.1,71.8,60.6,71.8,63.5"/>
		<path class="st10" d="M128.8,78.1v-3.6c-1.3,1.4-2.8,2.5-4.5,3.2c-1.7,0.7-3.4,1.1-5.3,1.1c-4.4,0-8-1.5-11-4.4
			c-2.9-2.9-4.3-6.6-4.3-11c0-2.1,0.4-4,1.1-5.8c0.7-1.8,1.8-3.5,3.1-4.9c1.5-1.5,3.1-2.7,4.8-3.4c1.7-0.7,3.7-1.1,6-1.1
			c2,0,3.8,0.4,5.5,1.1c1.7,0.7,3.2,1.8,4.6,3.2v-3.5h5.3v29.2H128.8z M109.2,63.4c0,3,1,5.4,2.9,7.4c2,2,4.4,3,7.2,3
			c2.6,0,4.9-1,6.8-3c2-2,3-4.4,3-7c0-2.9-1-5.3-2.9-7.4c-2-2-4.3-3.1-7-3.1c-2.8,0-5.1,1-7.1,2.9C110.2,58.2,109.2,60.5,109.2,63.4
			"/>
		<path class="st10" d="M142.7,45.5h-5.2v-4.2h5.2V45.5z M137.5,78.1 M137.5,48.9h5.2v29.2h-5.2V48.9z"/>
		<polygon class="st10" points="146.3,78.1 146.3,33.9 151.5,33.9 151.5,62.5 161.9,48.9 168,48.9 157.3,62.8 170,78.1 163.3,78.1 
			151.5,63.3 151.5,78.1 		"/>
		<path class="st10" d="M189.4,78.1v-3.6c-1.3,1.4-2.8,2.5-4.5,3.2c-1.7,0.7-3.4,1.1-5.3,1.1c-4.4,0-8-1.5-10.9-4.4
			c-2.9-2.9-4.4-6.6-4.4-11c0-2.1,0.4-4,1.1-5.8c0.7-1.8,1.8-3.5,3.1-4.9c1.5-1.5,3.1-2.7,4.8-3.4c1.7-0.7,3.7-1.1,6-1.1
			c2,0,3.8,0.4,5.5,1.1c1.7,0.7,3.2,1.8,4.6,3.2v-3.5h5.3v29.2H189.4z M169.7,63.4c0,3,1,5.4,2.9,7.4c2,2,4.4,3,7.2,3
			c2.6,0,4.9-1,6.8-3c2-2,3-4.4,3-7c0-2.9-1-5.3-2.9-7.4c-2-2-4.3-3.1-7-3.1c-2.8,0-5.1,1-7.1,2.9C170.7,58.2,169.7,60.5,169.7,63.4
			"/>
		<path class="st10" d="M201.8,78.1h-5.3V48.9h5v3.3c1.1-1.3,2.3-2.3,3.6-2.9c1.3-0.6,2.8-0.9,4.5-0.9c3.8,0,6.8,1.1,8.8,3.4
			c2,2.2,3.1,5.5,3.1,9.7v16.7h-5.3V62.6c0-3.1-0.6-5.4-1.7-6.9c-1.1-1.5-2.9-2.2-5.3-2.2c-2.6,0-4.5,0.9-5.7,2.6
			c-1.2,1.8-1.8,4.7-1.8,8.7V78.1z"/>
		<rect x="97.4" y="33.9" class="st10" width="5.2" height="44.6"/>
		<path class="st10" d="M0,79V33.8h6.4l14.4,22.8c3.3,5.3,6,10,8,14.7l0.2-0.1c-0.5-6-0.7-11.5-0.7-18.5v-19h5.5V79H28L13.7,56.1
			C10.5,51,7.5,45.9,5.3,41l-0.2,0.1c0.3,5.7,0.4,11.1,0.4,18.6V79H0z"/>
	</g>
	<text transform="matrix(1 0 0 1 223.1706 53.1802)" class="st10 st11 st12">®</text>
</g>
</svg>
