<!-- Generator: Adobe Illustrator 20.1.0, SVG Export Plug-In  -->
<svg version="1.1"
	 xmlns="http://www.w3.org/2000/svg" xmlns:xlink="http://www.w3.org/1999/xlink" xmlns:a="http://ns.adobe.com/AdobeSVGViewerExtensions/3.0/"
	 x="0px" y="0px" width="90.9px" height="13.4px" viewBox="0 0 90.9 13.4"
	 style="overflow:scroll;enable-background:new 0 0 90.9 13.4;" xml:space="preserve">
<style type="text/css">
	.st0{fill:#0082CB;}
</style>
<defs>
</defs>
<g>
	<path class="st0" d="M0,0.6h2.7l4.2,9.9h0V0.6H9v12.6H6.3L2.1,3.4h0v9.8H0V0.6z"/>
	<path class="st0" d="M18.2,12.8c-0.5,0.2-1.4,0.6-2.8,0.6c-3,0-4.3-2.1-4.3-4.6c0-2.8,1.5-4.9,3.8-4.9c2,0,3.7,1.2,3.7,5v0.4h-5.4
		c0,1.6,0.6,2.5,2.4,2.5c1.4,0,2-0.4,2.4-0.7L18.2,12.8z M16.5,7.8c0-1.6-0.5-2.5-1.5-2.5c-1.2,0-1.7,1.2-1.7,2.5H16.5z"/>
	<path class="st0" d="M20.4,5.5c0-0.6,0-1.1-0.1-1.5h2c0,0.6,0.1,1.1,0.1,1.7h0c0.3-0.7,1-1.8,2.4-1.8c0.1,0,0.3,0,0.4,0.1v2.1
		c-0.2-0.1-0.4-0.1-0.6-0.1c-0.9,0-1.9,0.6-1.9,2.3v5.1h-2.2V5.5z"/>
	<path class="st0" d="M25.9,3.9h2.3l1.9,7.1h0L32,3.9h2.2l-2.8,9.3h-2.6L25.9,3.9z"/>
	<path class="st0" d="M35.5,0h2.3v2.2h-2.3V0z M35.6,3.9h2.2v9.3h-2.2V3.9z"/>
	<path class="st0" d="M43.9,3.8c1.9,0,4.1,1,4.1,4.8c0,3.9-2.2,4.8-4.1,4.8c-1.9,0-4.1-0.9-4.1-4.8C39.8,4.8,42,3.8,43.9,3.8z
		 M43.9,11.8c1.4,0,1.8-1.7,1.8-3.2s-0.3-3.2-1.8-3.2S42.1,7,42.1,8.6S42.4,11.8,43.9,11.8z"/>
	<path class="st0" d="M49.4,11.1c0.4,0.1,1.3,0.6,2.3,0.6c0.8,0,1.4-0.2,1.4-0.9c0-0.4-0.2-0.7-1-1.2L51.3,9c-0.9-0.6-2-1.2-2-2.6
		c0-1.3,1.2-2.6,3.2-2.6c1.2,0,2.1,0.3,2.3,0.4l-0.1,1.7c-0.6-0.2-1.2-0.4-2-0.4c-0.9,0-1.3,0.3-1.3,0.9c0,0.5,0.4,0.8,1,1.2
		l1.1,0.7c1.2,0.7,1.7,1.3,1.7,2.3c0,1.7-1.4,2.7-3.5,2.7c-1.2,0-2.1-0.3-2.6-0.4L49.4,11.1z"/>
	<path class="st0" d="M57.2,0h2.3v2.2h-2.3V0z M57.2,3.9h2.2v9.3h-2.2V3.9z"/>
	<path class="st0" d="M61.5,11.1c0.4,0.1,1.3,0.6,2.3,0.6c0.8,0,1.4-0.2,1.4-0.9c0-0.4-0.2-0.7-1-1.2L63.3,9c-0.9-0.6-2-1.2-2-2.6
		c0-1.3,1.2-2.6,3.2-2.6c1.2,0,2.1,0.3,2.3,0.4l-0.1,1.7c-0.6-0.2-1.2-0.4-2-0.4c-0.9,0-1.3,0.3-1.3,0.9c0,0.5,0.4,0.8,1,1.2
		l1.1,0.7c1.2,0.7,1.7,1.3,1.7,2.3c0,1.7-1.4,2.7-3.5,2.7c-1.2,0-2.1-0.3-2.6-0.4L61.5,11.1z"/>
	<path class="st0" d="M69,5.5c0-0.7,0-1.2-0.1-1.5h2.2c0,0.5,0.1,1,0.1,1.5h0c0.3-0.7,1.1-1.6,2.3-1.6c1.6,0,2.1,1,2.3,1.5
		c0.5-0.6,1.1-1.5,2.5-1.5c2,0,2.7,1.4,2.7,3.7v5.7h-2.2V7.4c0-1.2-0.4-1.7-1.2-1.7c-1,0-1.5,0.9-1.5,2v5.6h-2.2V7.4
		c0-1.2-0.4-1.7-1.2-1.7c-1,0-1.5,0.9-1.5,2v5.6H69V5.5z"/>
	<path class="st0" d="M86.9,3.8c1.9,0,4.1,1,4.1,4.8c0,3.9-2.2,4.8-4.1,4.8c-1.9,0-4.1-0.9-4.1-4.8C82.8,4.8,85,3.8,86.9,3.8z
		 M86.9,11.8c1.4,0,1.8-1.7,1.8-3.2s-0.3-3.2-1.8-3.2S85.1,7,85.1,8.6S85.4,11.8,86.9,11.8z"/>
</g>
</svg>
