<!-- Generator: Adobe Illustrator 20.1.0, SVG Export Plug-In  -->
<svg version="1.1"
	 xmlns="http://www.w3.org/2000/svg" xmlns:xlink="http://www.w3.org/1999/xlink" xmlns:a="http://ns.adobe.com/AdobeSVGViewerExtensions/3.0/"
	 x="0px" y="0px" width="548px" height="18.5px" viewBox="0 0 548 18.5"
	 style="overflow:scroll;enable-background:new 0 0 548 18.5;" xml:space="preserve">
<style type="text/css">
	.st0{fill:#FFFFFF;}
</style>
<defs>
</defs>
<g>
	<path class="st0" d="M0,1.5h7v1.8H1.9v5.3h4.9v1.8H1.9v6h5.4v1.8H0V1.5z"/>
	<path class="st0" d="M10.4,7.7H8.7V6h1.8V3.3c0-2,0.8-3.3,2.7-3.3c0.5,0,1,0.1,1.4,0.2v1.7c-0.2-0.2-0.6-0.3-1-0.3
		c-1,0-1.3,0.6-1.3,1.8V6h2v1.6h-2v10.6h-1.8V7.7z M17.7,1v2.4h-2V1H17.7z M15.8,6h1.8v12.2h-1.8V6z"/>
	<path class="st0" d="M26.9,8.2c-0.6-0.4-1.3-0.6-2.1-0.6c-1.8,0-3,1.4-3,4.7c0,2.8,1.2,4.4,3,4.4c0.9,0,1.6-0.3,2.2-0.6l0.1,1.8
		c-0.5,0.3-1.5,0.5-2.3,0.5c-3.3,0-4.9-2.7-4.9-6.2c0-4,1.9-6.4,4.9-6.4c0.8,0,1.6,0.2,2.2,0.5L26.9,8.2z"/>
	<path class="st0" d="M29.3,6.9c0.9-0.6,2-1,3.1-1C34,5.9,35,6.6,35.3,7c0.5,0.5,1,1.3,1,3v6.4c0,0.7,0,1.4,0.1,1.9h-1.6l-0.1-1.7h0
		c-0.5,0.9-1.4,1.8-3.1,1.8c-1.8,0-3.2-1.2-3.2-3.5c0-2.4,1.4-4.1,5.2-4.1h1.1v-0.6c0-0.9-0.1-1.4-0.4-2c-0.4-0.6-1.1-0.8-1.8-0.8
		c-1.1,0-2.2,0.5-2.8,1.3L29.3,6.9z M34.6,12.3c-0.3,0-0.8,0-1.3,0c-2.1,0-3.2,1.1-3.2,2.5c0,1.3,0.6,2.1,1.9,2.1
		c1.6,0,2.6-1.4,2.6-3.1V12.3z"/>
	<path class="st0" d="M45.2,6v1.8l-5.1,8.7h5.2v1.7h-7.1v-1.8l5.1-8.7h-4.9V6H45.2z"/>
	<path class="st0" d="M58.9,8.2c-0.6-0.4-1.3-0.6-2.1-0.6c-1.8,0-3,1.4-3,4.7c0,2.8,1.2,4.4,3,4.4c0.9,0,1.6-0.3,2.2-0.6l0.1,1.8
		c-0.5,0.3-1.5,0.5-2.3,0.5c-3.3,0-4.9-2.7-4.9-6.2c0-4,1.9-6.4,4.9-6.4c0.8,0,1.6,0.2,2.2,0.5L58.9,8.2z"/>
	<path class="st0" d="M64.7,5.9c2.9,0,4.4,2.4,4.4,6.3c0,3.8-1.5,6.3-4.4,6.3s-4.4-2.4-4.4-6.3C60.3,8.3,61.8,5.9,64.7,5.9z
		 M64.7,16.8c1.7,0,2.5-1.6,2.5-4.7s-0.8-4.7-2.5-4.7s-2.5,1.6-2.5,4.7S63,16.8,64.7,16.8z"/>
	<path class="st0" d="M71.3,8.7c0-0.9-0.1-1.8-0.1-2.6h1.8L73,7.9h0c0.6-1.4,1.5-2,2.7-2c1.2,0,2,0.7,2.6,1.9
		c0.6-1.2,1.4-1.9,2.7-1.9c1.9,0,3.2,1.2,3.2,3.9v8.5h-1.8V9.9c0-1.6-0.6-2.3-1.7-2.3c-1.3,0-2.1,0.9-2.1,3.1v7.6h-1.8V9.9
		c0-1.6-0.6-2.3-1.7-2.3c-1.3,0-2.1,0.9-2.1,3.1v7.6h-1.8V8.7z"/>
	<path class="st0" d="M90.7,5.9c2.9,0,4.4,2.4,4.4,6.3c0,3.8-1.5,6.3-4.4,6.3s-4.4-2.4-4.4-6.3C86.3,8.3,87.8,5.9,90.7,5.9z
		 M90.7,16.8c1.7,0,2.5-1.6,2.5-4.7s-0.8-4.7-2.5-4.7s-2.5,1.6-2.5,4.7S89,16.8,90.7,16.8z"/>
	<path class="st0" d="M102.9,6.9c0.9-0.6,2-1,3.1-1c1.6,0,2.6,0.8,2.9,1.2c0.5,0.5,1,1.3,1,3v6.4c0,0.7,0,1.4,0.1,1.9h-1.6l-0.1-1.7
		h0c-0.5,0.9-1.4,1.8-3.1,1.8c-1.8,0-3.2-1.2-3.2-3.5c0-2.4,1.4-4.1,5.2-4.1h1.1v-0.6c0-0.9-0.1-1.4-0.4-2c-0.4-0.6-1.1-0.8-1.8-0.8
		c-1.1,0-2.2,0.5-2.8,1.3L102.9,6.9z M108.2,12.3c-0.3,0-0.8,0-1.3,0c-2.1,0-3.2,1.1-3.2,2.5c0,1.3,0.6,2.1,1.9,2.1
		c1.6,0,2.6-1.4,2.6-3.1V12.3z"/>
	<path class="st0" d="M120.2,15.6c0,0.9,0.1,1.8,0.1,2.6h-1.8l-0.1-1.8h0c-0.6,1.4-1.5,2-2.8,2c-1.9,0-3.2-1.2-3.2-3.9V6h1.8v7.9
		c0,1.9,0.6,2.8,1.8,2.8c1.4,0,2.3-1.1,2.3-3.3V6h1.8V15.6z"/>
	<path class="st0" d="M125,11.7L122.1,6h2l2.1,4.4l2.1-4.4h2l-3.1,5.7l3.3,6.5h-2.1l-2.4-5.1l-2.3,5.1h-2L125,11.7z"/>
	<path class="st0" d="M134.1,1v2.4h-2V1H134.1z M132.2,6h1.8v12.2h-1.8V6z"/>
	<path class="st0" d="M137,0.3h1.8v18H137V0.3z"/>
	<path class="st0" d="M143.7,1v2.4h-2V1H143.7z M141.8,6h1.8v12.2h-1.8V6z"/>
	<path class="st0" d="M146.9,6.9c0.9-0.6,2-1,3.1-1c1.6,0,2.6,0.8,2.9,1.2c0.5,0.5,1,1.3,1,3v6.4c0,0.7,0,1.4,0.1,1.9h-1.6l-0.1-1.7
		h0c-0.5,0.9-1.4,1.8-3.1,1.8c-1.8,0-3.2-1.2-3.2-3.5c0-2.4,1.4-4.1,5.2-4.1h1.1v-0.6c0-0.9-0.1-1.4-0.4-2c-0.4-0.6-1.1-0.8-1.8-0.8
		c-1.1,0-2.2,0.5-2.8,1.3L146.9,6.9z M152.1,12.3c-0.3,0-0.8,0-1.3,0c-2.1,0-3.2,1.1-3.2,2.5c0,1.3,0.6,2.1,1.9,2.1
		c1.6,0,2.6-1.4,2.6-3.1V12.3z"/>
	<path class="st0" d="M156.4,8.7c0-0.9-0.1-1.8-0.1-2.6h1.8l0.1,1.9h0c0.6-1.5,1.5-2.1,3.1-2.1v2c-0.2,0-0.5-0.1-0.7-0.1
		c-1.4,0-2.4,1.3-2.4,4v6.5h-1.8V8.7z"/>
	<path class="st0" d="M169.4,12.8c0,2.8,1,4.2,3,4.2c0.9,0,1.9-0.5,2.5-1l0.1,1.8c-0.9,0.5-2,0.7-3.1,0.7c-2.9,0-4.4-2.4-4.4-6.3
		c0-3.8,1.5-6.3,4.3-6.3c2.5,0,3.9,2.2,3.9,5.8v1.1H169.4z M173.8,11.2c0-2.5-0.7-3.8-2.2-3.8c-1.2,0-2.2,1-2.2,3.8H173.8z"/>
	<path class="st0" d="M177.6,8.7c0-0.9-0.1-1.8-0.1-2.6h1.8l0.1,1.8h0c0.6-1.4,1.5-2,2.8-2c1.9,0,3.2,1.2,3.2,3.9v8.5h-1.8v-7.9
		c0-1.9-0.6-2.8-1.8-2.8c-1.4,0-2.3,1.1-2.3,3.3v7.4h-1.8V8.7z"/>
	<path class="st0" d="M194.6,12.8c0,2.8,1,4.2,3,4.2c0.9,0,1.9-0.5,2.5-1l0.1,1.8c-0.9,0.5-2,0.7-3.1,0.7c-2.9,0-4.4-2.4-4.4-6.3
		c0-3.8,1.5-6.3,4.3-6.3c2.5,0,3.9,2.2,3.9,5.8v1.1H194.6z M199,11.2c0-2.5-0.7-3.8-2.2-3.8c-1.2,0-2.2,1-2.2,3.8H199z"/>
	<path class="st0" d="M203,0.3h1.8v18H203V0.3z"/>
	<path class="st0" d="M217.6,18.1c-0.4,0.2-1,0.3-1.5,0.3c-1.7,0-2.5-0.7-2.5-2.9V7.7h-1.8V6h1.8V3.6l1.8-0.6V6h2.3v1.6h-2.3v7.2
		c0,1.4,0.3,1.9,1.1,1.9c0.5,0,0.8-0.1,1.1-0.3V18.1z"/>
	<path class="st0" d="M219.2,8.7c0-0.9-0.1-1.8-0.1-2.6h1.8l0.1,1.9h0c0.6-1.5,1.5-2.1,3.1-2.1v2c-0.2,0-0.5-0.1-0.7-0.1
		c-1.4,0-2.4,1.3-2.4,4v6.5h-1.8V8.7z"/>
	<path class="st0" d="M226,6.9c0.9-0.6,2-1,3.1-1c1.6,0,2.6,0.8,2.9,1.2c0.5,0.5,1,1.3,1,3v6.4c0,0.7,0,1.4,0.1,1.9h-1.6l-0.1-1.7h0
		c-0.5,0.9-1.4,1.8-3.1,1.8c-1.8,0-3.2-1.2-3.2-3.5c0-2.4,1.4-4.1,5.2-4.1h1.1v-0.6c0-0.9-0.1-1.4-0.4-2c-0.4-0.6-1.1-0.8-1.8-0.8
		c-1.1,0-2.2,0.5-2.8,1.3L226,6.9z M231.3,12.3c-0.3,0-0.8,0-1.3,0c-2.1,0-3.2,1.1-3.2,2.5c0,1.3,0.6,2.1,1.9,2.1
		c1.6,0,2.6-1.4,2.6-3.1V12.3z"/>
	<path class="st0" d="M240.4,18.1c-0.4,0.2-1,0.3-1.5,0.3c-1.7,0-2.5-0.7-2.5-2.9V7.7h-1.8V6h1.8V3.6l1.8-0.6V6h2.3v1.6h-2.3v7.2
		c0,1.4,0.3,1.9,1.1,1.9c0.5,0,0.8-0.1,1.1-0.3V18.1z"/>
	<path class="st0" d="M242.4,6.9c0.9-0.6,2-1,3.1-1c1.6,0,2.6,0.8,2.9,1.2c0.5,0.5,1,1.3,1,3v6.4c0,0.7,0,1.4,0.1,1.9h-1.6l-0.1-1.7
		h0c-0.5,0.9-1.4,1.8-3.1,1.8c-1.8,0-3.2-1.2-3.2-3.5c0-2.4,1.4-4.1,5.2-4.1h1.1v-0.6c0-0.9-0.1-1.4-0.4-2c-0.4-0.6-1.1-0.8-1.8-0.8
		c-1.1,0-2.2,0.5-2.8,1.3L242.4,6.9z M247.7,12.3c-0.3,0-0.8,0-1.3,0c-2.1,0-3.2,1.1-3.2,2.5c0,1.3,0.6,2.1,1.9,2.1
		c1.6,0,2.6-1.4,2.6-3.1V12.3z"/>
	<path class="st0" d="M252,8.7c0-0.9-0.1-1.8-0.1-2.6h1.8l0.1,1.8h0c0.6-1.4,1.5-2,2.7-2c1.2,0,2,0.7,2.6,1.9
		c0.6-1.2,1.4-1.9,2.7-1.9c1.9,0,3.2,1.2,3.2,3.9v8.5h-1.8V9.9c0-1.6-0.6-2.3-1.7-2.3c-1.3,0-2.1,0.9-2.1,3.1v7.6h-1.8V9.9
		c0-1.6-0.6-2.3-1.7-2.3c-1.3,0-2.1,0.9-2.1,3.1v7.6H252V8.7z"/>
	<path class="st0" d="M269.6,1v2.4h-2V1H269.6z M267.7,6h1.8v12.2h-1.8V6z"/>
	<path class="st0" d="M273.7,12.8c0,2.8,1,4.2,3,4.2c0.9,0,1.9-0.5,2.5-1l0.1,1.8c-0.9,0.5-2,0.7-3.1,0.7c-2.9,0-4.4-2.4-4.4-6.3
		c0-3.8,1.5-6.3,4.3-6.3c2.5,0,3.9,2.2,3.9,5.8v1.1H273.7z M278.1,11.2c0-2.5-0.7-3.8-2.2-3.8c-1.2,0-2.2,1-2.2,3.8H278.1z"/>
	<path class="st0" d="M281.9,8.7c0-0.9-0.1-1.8-0.1-2.6h1.8l0.1,1.8h0c0.6-1.4,1.5-2,2.8-2c1.9,0,3.2,1.2,3.2,3.9v8.5h-1.8v-7.9
		c0-1.9-0.6-2.8-1.8-2.8c-1.4,0-2.3,1.1-2.3,3.3v7.4h-1.8V8.7z"/>
	<path class="st0" d="M297.2,18.1c-0.4,0.2-1,0.3-1.5,0.3c-1.7,0-2.5-0.7-2.5-2.9V7.7h-1.8V6h1.8V3.6l1.8-0.6V6h2.3v1.6h-2.3v7.2
		c0,1.4,0.3,1.9,1.1,1.9c0.5,0,0.8-0.1,1.1-0.3V18.1z"/>
	<path class="st0" d="M302.6,5.9c2.9,0,4.4,2.4,4.4,6.3c0,3.8-1.5,6.3-4.4,6.3s-4.4-2.4-4.4-6.3C298.2,8.3,299.7,5.9,302.6,5.9z
		 M302.6,16.8c1.7,0,2.5-1.6,2.5-4.7s-0.8-4.7-2.5-4.7s-2.5,1.6-2.5,4.7S300.9,16.8,302.6,16.8z"/>
	<path class="st0" d="M322.3,16c0,0.7,0.1,1.5,0.1,2.3h-1.8l-0.1-1.8h0c-0.5,1-1.3,2-2.9,2c-2.3,0-3.8-2.1-3.8-6.3s1.5-6.3,3.8-6.3
		c1.3,0,2.1,0.6,2.8,1.8h0V0.3h1.8V16z M318,7.5c-1.7,0-2.4,1.6-2.4,4.7s0.8,4.7,2.4,4.7s2.4-1.6,2.4-4.7S319.7,7.5,318,7.5z"/>
	<path class="st0" d="M326.1,12.8c0,2.8,1,4.2,3,4.2c0.9,0,1.9-0.5,2.5-1l0.1,1.8c-0.9,0.5-2,0.7-3.1,0.7c-2.9,0-4.4-2.4-4.4-6.3
		c0-3.8,1.5-6.3,4.3-6.3c2.5,0,3.9,2.2,3.9,5.8v1.1H326.1z M330.5,11.2c0-2.5-0.7-3.8-2.2-3.8c-1.2,0-2.2,1-2.2,3.8H330.5z"/>
	<path class="st0" d="M339.7,0.3h1.8v18h-1.8V0.3z"/>
	<path class="st0" d="M348.2,5.9c2.9,0,4.4,2.4,4.4,6.3c0,3.8-1.5,6.3-4.4,6.3s-4.4-2.4-4.4-6.3C343.8,8.3,345.3,5.9,348.2,5.9z
		 M348.2,16.8c1.7,0,2.5-1.6,2.5-4.7s-0.8-4.7-2.5-4.7s-2.5,1.6-2.5,4.7S346.5,16.8,348.2,16.8z"/>
	<path class="st0" d="M354.2,15.9c0.8,0.6,1.7,0.9,2.6,0.9c1.4,0,2.1-0.8,2.1-1.7c0-0.8-0.4-1.4-1.4-1.9l-1.2-0.6
		c-1.6-0.8-2.2-1.6-2.2-3.1c0-2,1.4-3.6,3.5-3.6c0.9,0,1.7,0.2,2.3,0.4L359.9,8c-0.6-0.3-1.3-0.5-2.2-0.5c-1.2,0-1.8,0.7-1.8,1.7
		c0,1,0.6,1.5,1.9,2.1l0.6,0.3c1.3,0.6,2.2,1.6,2.2,3.1c0,2.1-1,3.8-3.5,3.8c-1.1,0-2.2-0.3-3-0.7L354.2,15.9z"/>
	<path class="st0" d="M369.2,12.8c0,2.8,1,4.2,3,4.2c0.9,0,1.9-0.5,2.5-1l0.1,1.8c-0.9,0.5-2,0.7-3.1,0.7c-2.9,0-4.4-2.4-4.4-6.3
		c0-3.8,1.5-6.3,4.3-6.3c2.5,0,3.9,2.2,3.9,5.8v1.1H369.2z M373.7,11.2c0-2.5-0.7-3.8-2.2-3.8c-1.2,0-2.2,1-2.2,3.8H373.7z"/>
	<path class="st0" d="M377,15.9c0.8,0.6,1.7,0.9,2.6,0.9c1.4,0,2.1-0.8,2.1-1.7c0-0.8-0.4-1.4-1.4-1.9l-1.2-0.6
		c-1.6-0.8-2.2-1.6-2.2-3.1c0-2,1.4-3.6,3.5-3.6c0.9,0,1.7,0.2,2.3,0.4L382.7,8c-0.6-0.3-1.3-0.5-2.2-0.5c-1.2,0-1.8,0.7-1.8,1.7
		c0,1,0.6,1.5,1.9,2.1l0.6,0.3c1.3,0.6,2.2,1.6,2.2,3.1c0,2.1-1,3.8-3.5,3.8c-1.1,0-2.2-0.3-3-0.7L377,15.9z"/>
	<path class="st0" d="M390.3,18.1c-0.4,0.2-1,0.3-1.5,0.3c-1.7,0-2.5-0.7-2.5-2.9V7.7h-1.8V6h1.8V3.6l1.8-0.6V6h2.3v1.6h-2.3v7.2
		c0,1.4,0.3,1.9,1.1,1.9c0.5,0,0.8-0.1,1.1-0.3V18.1z"/>
	<path class="st0" d="M392.3,6.9c0.9-0.6,2-1,3.1-1c1.6,0,2.6,0.8,2.9,1.2c0.5,0.5,1,1.3,1,3v6.4c0,0.7,0,1.4,0.1,1.9h-1.6l-0.1-1.7
		h0c-0.5,0.9-1.4,1.8-3.1,1.8c-1.8,0-3.2-1.2-3.2-3.5c0-2.4,1.4-4.1,5.2-4.1h1.1v-0.6c0-0.9-0.1-1.4-0.4-2c-0.4-0.6-1.1-0.8-1.8-0.8
		c-1.1,0-2.2,0.5-2.8,1.3L392.3,6.9z M397.6,12.3c-0.3,0-0.8,0-1.3,0c-2.1,0-3.2,1.1-3.2,2.5c0,1.3,0.6,2.1,1.9,2.1
		c1.6,0,2.6-1.4,2.6-3.1V12.3z"/>
	<path class="st0" d="M409.8,16c0,0.7,0.1,1.5,0.1,2.3h-1.8l-0.1-1.8h0c-0.5,1-1.3,2-2.9,2c-2.3,0-3.8-2.1-3.8-6.3s1.5-6.3,3.8-6.3
		c1.3,0,2.1,0.6,2.8,1.8h0V0.3h1.8V16z M405.6,7.5c-1.7,0-2.4,1.6-2.4,4.7s0.8,4.7,2.4,4.7s2.4-1.6,2.4-4.7S407.2,7.5,405.6,7.5z"/>
	<path class="st0" d="M416.1,5.9c2.9,0,4.4,2.4,4.4,6.3c0,3.8-1.5,6.3-4.4,6.3s-4.4-2.4-4.4-6.3C411.7,8.3,413.2,5.9,416.1,5.9z
		 M416.1,16.8c1.7,0,2.5-1.6,2.5-4.7s-0.8-4.7-2.5-4.7s-2.5,1.6-2.5,4.7S414.4,16.8,416.1,16.8z"/>
	<path class="st0" d="M422.2,15.9c0.8,0.6,1.7,0.9,2.6,0.9c1.4,0,2.1-0.8,2.1-1.7c0-0.8-0.4-1.4-1.4-1.9l-1.2-0.6
		c-1.6-0.8-2.2-1.6-2.2-3.1c0-2,1.4-3.6,3.5-3.6c0.9,0,1.7,0.2,2.3,0.4L427.9,8c-0.6-0.3-1.3-0.5-2.2-0.5c-1.2,0-1.8,0.7-1.8,1.7
		c0,1,0.6,1.5,1.9,2.1l0.6,0.3c1.3,0.6,2.2,1.6,2.2,3.1c0,2.1-1,3.8-3.5,3.8c-1.1,0-2.2-0.3-3-0.7L422.2,15.9z"/>
	<path class="st0" d="M443.8,16c0,0.7,0.1,1.5,0.1,2.3h-1.8l-0.1-1.8h0c-0.5,1-1.3,2-2.9,2c-2.3,0-3.8-2.1-3.8-6.3s1.5-6.3,3.8-6.3
		c1.3,0,2.1,0.6,2.8,1.8h0V0.3h1.8V16z M439.5,7.5c-1.7,0-2.4,1.6-2.4,4.7s0.8,4.7,2.4,4.7s2.4-1.6,2.4-4.7S441.2,7.5,439.5,7.5z"/>
	<path class="st0" d="M447.6,12.8c0,2.8,1,4.2,3,4.2c0.9,0,1.9-0.5,2.5-1l0.1,1.8c-0.9,0.5-2,0.7-3.1,0.7c-2.9,0-4.4-2.4-4.4-6.3
		c0-3.8,1.5-6.3,4.3-6.3c2.5,0,3.9,2.2,3.9,5.8v1.1H447.6z M452,11.2c0-2.5-0.7-3.8-2.2-3.8c-1.2,0-2.2,1-2.2,3.8H452z"/>
	<path class="st0" d="M461.4,6.9c0.9-0.6,2-1,3.1-1c1.6,0,2.6,0.8,2.9,1.2c0.5,0.5,1,1.3,1,3v6.4c0,0.7,0,1.4,0.1,1.9h-1.6l-0.1-1.7
		h0c-0.5,0.9-1.4,1.8-3.1,1.8c-1.8,0-3.2-1.2-3.2-3.5c0-2.4,1.4-4.1,5.2-4.1h1.1v-0.6c0-0.9-0.1-1.4-0.4-2c-0.4-0.6-1.1-0.8-1.8-0.8
		c-1.1,0-2.2,0.5-2.8,1.3L461.4,6.9z M466.7,12.3c-0.3,0-0.8,0-1.3,0c-2.1,0-3.2,1.1-3.2,2.5c0,1.3,0.6,2.1,1.9,2.1
		c1.6,0,2.6-1.4,2.6-3.1V12.3z"/>
	<path class="st0" d="M471,8.7c0-0.9-0.1-1.8-0.1-2.6h1.8l0.1,1.8h0c0.6-1.4,1.5-2,2.8-2c1.9,0,3.2,1.2,3.2,3.9v8.5H477v-7.9
		c0-1.9-0.6-2.8-1.8-2.8c-1.4,0-2.3,1.1-2.3,3.3v7.4H471V8.7z"/>
	<path class="st0" d="M480.9,15.9c0.8,0.6,1.7,0.9,2.6,0.9c1.4,0,2.1-0.8,2.1-1.7c0-0.8-0.4-1.4-1.4-1.9l-1.2-0.6
		c-1.6-0.8-2.2-1.6-2.2-3.1c0-2,1.4-3.6,3.5-3.6c0.9,0,1.7,0.2,2.3,0.4L486.6,8c-0.6-0.3-1.3-0.5-2.2-0.5c-1.2,0-1.8,0.7-1.8,1.7
		c0,1,0.6,1.5,1.9,2.1l0.6,0.3c1.3,0.6,2.2,1.6,2.2,3.1c0,2.1-1,3.8-3.5,3.8c-1.1,0-2.2-0.3-3-0.7L480.9,15.9z"/>
	<path class="st0" d="M491.5,1v2.4h-2V1H491.5z M489.6,6h1.8v12.2h-1.8V6z"/>
	<path class="st0" d="M495.6,12.8c0,2.8,1,4.2,3,4.2c0.9,0,1.9-0.5,2.5-1l0.1,1.8c-0.9,0.5-2,0.7-3.1,0.7c-2.9,0-4.4-2.4-4.4-6.3
		c0-3.8,1.5-6.3,4.3-6.3c2.5,0,3.9,2.2,3.9,5.8v1.1H495.6z M500,11.2c0-2.5-0.7-3.8-2.2-3.8c-1.2,0-2.2,1-2.2,3.8H500z"/>
	<path class="st0" d="M511.7,16c0,0.7,0.1,1.5,0.1,2.3h-1.8l-0.1-1.8h0c-0.5,1-1.3,2-2.9,2c-2.3,0-3.8-2.1-3.8-6.3s1.5-6.3,3.8-6.3
		c1.3,0,2.1,0.6,2.8,1.8h0V0.3h1.8V16z M507.5,7.5c-1.7,0-2.4,1.6-2.4,4.7s0.8,4.7,2.4,4.7s2.4-1.6,2.4-4.7S509.1,7.5,507.5,7.5z"/>
	<path class="st0" d="M514.6,6.9c0.9-0.6,2-1,3.1-1c1.6,0,2.6,0.8,2.9,1.2c0.5,0.5,1,1.3,1,3v6.4c0,0.7,0,1.4,0.1,1.9h-1.6l-0.1-1.7
		h0c-0.5,0.9-1.4,1.8-3.1,1.8c-1.8,0-3.2-1.2-3.2-3.5c0-2.4,1.4-4.1,5.2-4.1h1.1v-0.6c0-0.9-0.1-1.4-0.4-2c-0.4-0.6-1.1-0.8-1.8-0.8
		c-1.1,0-2.2,0.5-2.8,1.3L514.6,6.9z M519.9,12.3c-0.3,0-0.8,0-1.3,0c-2.1,0-3.2,1.1-3.2,2.5c0,1.3,0.6,2.1,1.9,2.1
		c1.6,0,2.6-1.4,2.6-3.1V12.3z"/>
	<path class="st0" d="M532.1,16c0,0.7,0.1,1.5,0.1,2.3h-1.8l-0.1-1.8h0c-0.5,1-1.3,2-2.9,2c-2.3,0-3.8-2.1-3.8-6.3s1.5-6.3,3.8-6.3
		c1.3,0,2.1,0.6,2.8,1.8h0V0.3h1.8V16z M527.9,7.5c-1.7,0-2.4,1.6-2.4,4.7s0.8,4.7,2.4,4.7s2.4-1.6,2.4-4.7S529.5,7.5,527.9,7.5z"/>
	<path class="st0" d="M533.9,9.1c0.2,0.2,1,0.5,1.6,0.5c1,0,1.9-0.6,1.9-2.1c0-1.3-0.9-1.8-1.9-1.8h-0.7V4.8c1.2,0,2.6-0.2,2.6-1.8
		c0-0.3-0.1-1.7-1.8-1.7c-0.4,0-0.9,0.1-1.4,0.6l-0.1-0.9c0.3-0.3,1.2-0.5,1.6-0.5c1.9,0,2.5,1.5,2.5,2.5c0,1.2-0.6,1.9-1.6,2.2v0
		c0.7,0.1,1.6,1,1.6,2.5c0,1.9-1.1,2.8-2.8,2.8c-0.9,0-1.3-0.2-1.6-0.4L533.9,9.1z"/>
	<path class="st0" d="M540.5,12.1h-0.7l0.6-3.1h0.9L540.5,12.1z"/>
	<path class="st0" d="M545.9,0.5h1v6.6h1V8h-1v2.3h-0.8V8h-3.5V7.1L545.9,0.5z M543.4,7.1h2.8V1.4h0L543.4,7.1z"/>
</g>
</svg>
