<!-- Generator: Adobe Illustrator 20.1.0, SVG Export Plug-In  -->
<svg version="1.1"
	 xmlns="http://www.w3.org/2000/svg" xmlns:xlink="http://www.w3.org/1999/xlink" xmlns:a="http://ns.adobe.com/AdobeSVGViewerExtensions/3.0/"
	 x="0px" y="0px" width="309.4px" height="48px" viewBox="0 0 309.4 48"
	 style="overflow:scroll;enable-background:new 0 0 309.4 48;" xml:space="preserve">
<style type="text/css">
	.st0{fill:#652D90;}
</style>
<defs>
</defs>
<g>
	<g>
		<path class="st0" d="M0.6,0.4h2c0.7,0,2.4,0,2.4,2.3C5,4.1,4.1,5,2.8,5H1.6v3.3h-1V0.4z M1.6,4.2h1.2C3.4,4.2,4,3.7,4,2.6
			c0-0.9-0.4-1.4-1.4-1.4H1.6V4.2z"/>
		<path class="st0" d="M5.5,4.2c0-1.3,0.6-1.9,2-1.9c1.8,0,1.8,1.1,1.8,1.7v3.3c0,0.2,0,0.5,0.3,0.5c0.1,0,0.2,0,0.2-0.1v0.7
			c-0.1,0-0.3,0.1-0.5,0.1c-0.4,0-0.8,0-0.8-0.8h0C8.1,8.1,7.5,8.4,7,8.4c-1.1,0-1.6-0.7-1.6-1.7c0-0.8,0.4-1.4,1.1-1.6l1.2-0.4
			c0.7-0.2,0.7-0.4,0.7-0.9c0-0.5-0.3-0.9-0.9-0.9c-1,0-1,0.9-1,1.2v0.1H5.5z M8.4,5.1C8,5.4,7.2,5.5,6.8,5.8
			C6.5,5.9,6.4,6.2,6.4,6.7c0,0.6,0.2,1,0.8,1c0.6,0,1.2-0.5,1.2-1.1V5.1z"/>
		<path class="st0" d="M10.6,2.4h0.9v0.9h0c0.3-0.6,0.6-1,1.3-1c0.2,0,0.3,0,0.4,0.1v0.9c-0.1,0-0.2,0-0.5,0c-0.5,0-1.2,0.4-1.2,1.4
			v3.7h-0.9V2.4z"/>
		<path class="st0" d="M13.7,4.2c0-1.3,0.6-1.9,2-1.9c1.8,0,1.8,1.1,1.8,1.7v3.3c0,0.2,0,0.5,0.3,0.5c0.1,0,0.2,0,0.2-0.1v0.7
			c-0.1,0-0.3,0.1-0.5,0.1c-0.4,0-0.8,0-0.8-0.8h0c-0.3,0.5-0.9,0.8-1.4,0.8c-1.1,0-1.6-0.7-1.6-1.7c0-0.8,0.4-1.4,1.1-1.6l1.2-0.4
			c0.7-0.2,0.7-0.4,0.7-0.9c0-0.5-0.3-0.9-0.9-0.9c-1,0-1,0.9-1,1.2v0.1H13.7z M16.5,5.1c-0.3,0.4-1.2,0.4-1.6,0.7
			c-0.3,0.2-0.5,0.4-0.5,0.9c0,0.6,0.2,1,0.8,1c0.6,0,1.2-0.5,1.2-1.1V5.1z"/>
		<path class="st0" d="M25.2,8.3h-0.9V7.6h0c-0.2,0.5-0.9,0.8-1.4,0.8c-1.6,0-1.6-1.2-1.6-1.9V2.4h0.9v4.1c0,0.5,0,1.2,0.9,1.2
			c0.5,0,1.2-0.3,1.2-1.2V2.4h0.9V8.3z"/>
		<path class="st0" d="M29,4.1c0-0.7-0.2-1.2-0.9-1.2c-0.3,0-1,0.1-1,0.9c0,0.7,0.7,0.8,1.5,1.1C29.3,5.2,30,5.4,30,6.6
			c0,1.2-0.8,1.8-1.9,1.8c-2,0-2-1.5-2-2.1H27c0,0.7,0.2,1.4,1.1,1.4c0.3,0,1-0.1,1-1c0-0.8-0.7-1-1.4-1.2c-0.7-0.2-1.5-0.5-1.5-1.7
			c0-1.1,0.9-1.6,1.9-1.6c1.7,0,1.8,1.2,1.8,1.9H29z"/>
		<path class="st0" d="M32.7,2.2c1.7,0,2.1,1.4,2.1,3.1s-0.4,3.1-2.1,3.1c-1.7,0-2.1-1.4-2.1-3.1S31.1,2.2,32.7,2.2z M33.9,5.3
			c0-1.3-0.2-2.4-1.2-2.4c-0.9,0-1.1,1.1-1.1,2.4s0.2,2.4,1.1,2.4C33.7,7.7,33.9,6.6,33.9,5.3z"/>
		<path class="st0" d="M39.2,5.4c0,0.9,0,2.3,1.1,2.3c0.9,0,1-0.9,1-1.4h0.9c0,0.6-0.4,2.1-2,2.1c-1.4,0-2-1-2-3
			c0-1.5,0.3-3.2,2.1-3.2c1.8,0,2,1.6,2,2.8v0.4H39.2z M41.3,4.7V4.4c0-0.7-0.2-1.4-1-1.4c-1,0-1.1,1.2-1.1,1.5v0.2H41.3z"/>
		<path class="st0" d="M42.9,2.4h1L45,4.5L46,2.4h1l-1.5,2.8l1.6,3.1h-1l-1.2-2.3l-1.1,2.3h-1l1.6-3.1L42.9,2.4z"/>
		<path class="st0" d="M50.6,4.2c0-0.6-0.2-1.2-0.9-1.2c-0.6,0-1.2,0.3-1.2,2.4c0,0.8,0,2.3,1.1,2.3c0.8,0,1-0.8,1-1.5h0.9
			c0,0.9-0.5,2.2-1.9,2.2c-1.4,0-2-1-2-3c0-1.5,0.3-3.2,2.1-3.2c1.6,0,1.9,1.3,1.9,1.9H50.6z"/>
		<path class="st0" d="M52.3,0.4h0.9v7.9h-0.9V0.4z"/>
		<path class="st0" d="M58.4,8.3h-0.9V7.6h0c-0.2,0.5-0.9,0.8-1.4,0.8c-1.6,0-1.6-1.2-1.6-1.9V2.4h0.9v4.1c0,0.5,0,1.2,0.9,1.2
			c0.5,0,1.2-0.3,1.2-1.2V2.4h0.9V8.3z"/>
		<path class="st0" d="M62.1,4.1c0-0.7-0.2-1.2-0.9-1.2c-0.3,0-1,0.1-1,0.9c0,0.7,0.7,0.8,1.5,1.1c0.7,0.2,1.4,0.5,1.4,1.7
			c0,1.2-0.8,1.8-1.9,1.8c-2,0-2-1.5-2-2.1h0.9c0,0.7,0.2,1.4,1.1,1.4c0.3,0,1-0.1,1-1c0-0.8-0.7-1-1.4-1.2
			c-0.7-0.2-1.5-0.5-1.5-1.7c0-1.1,0.9-1.6,1.9-1.6C63,2.2,63,3.4,63,4.1H62.1z"/>
		<path class="st0" d="M64.1,0.4H65v1.1h-0.9V0.4z M64.1,2.4H65v5.9h-0.9V2.4z"/>
		<path class="st0" d="M65.8,2.4h1l1.1,4.7h0L69,2.4h1l-1.6,5.9h-1.1L65.8,2.4z"/>
		<path class="st0" d="M72.6,2.2c1.7,0,2.1,1.4,2.1,3.1s-0.4,3.1-2.1,3.1c-1.7,0-2.1-1.4-2.1-3.1S70.9,2.2,72.6,2.2z M73.8,5.3
			c0-1.3-0.2-2.4-1.2-2.4c-0.9,0-1.1,1.1-1.1,2.4s0.2,2.4,1.1,2.4C73.6,7.7,73.8,6.6,73.8,5.3z"/>
		<path class="st0" d="M82.2,8.3h-0.9V7.5h0C81.2,8,80.6,8.4,80,8.4c-1.4,0-1.9-1.2-1.9-3.1c0-1.2,0.2-3.1,1.9-3.1
			c0.5,0,1.1,0.3,1.3,0.8h0V0.4h0.9V8.3z M80.1,7.6c1,0,1.2-1,1.2-2.3c0-1.1-0.2-2.3-1.2-2.3C79.3,3,79,3.9,79,5.3
			S79.3,7.6,80.1,7.6z"/>
		<path class="st0" d="M84.2,5.4c0,0.9,0,2.3,1.1,2.3c0.9,0,1-0.9,1-1.4h0.9c0,0.6-0.4,2.1-2,2.1c-1.4,0-2-1-2-3
			c0-1.5,0.3-3.2,2.1-3.2c1.8,0,2,1.6,2,2.8v0.4H84.2z M86.3,4.7V4.4c0-0.7-0.2-1.4-1-1.4c-1,0-1.1,1.2-1.1,1.5v0.2H86.3z"/>
		<path class="st0" d="M88.3,0.4h0.9v7.9h-0.9V0.4z"/>
		<path class="st0" d="M93.2,2.4h0.9v0.9h0c0.3-0.6,0.6-1,1.3-1c0.2,0,0.3,0,0.4,0.1v0.9c-0.1,0-0.2,0-0.5,0c-0.5,0-1.2,0.4-1.2,1.4
			v3.7h-0.9V2.4z"/>
		<path class="st0" d="M97.2,5.4c0,0.9,0,2.3,1.1,2.3c0.9,0,1-0.9,1-1.4h0.9c0,0.6-0.4,2.1-2,2.1c-1.4,0-2-1-2-3
			c0-1.5,0.3-3.2,2.1-3.2c1.8,0,2,1.6,2,2.8v0.4H97.2z M99.3,4.7V4.4c0-0.7-0.2-1.4-1-1.4c-1,0-1.1,1.2-1.1,1.5v0.2H99.3z"/>
		<path class="st0" d="M101.3,2.4h0.9v0.7h0c0.1-0.4,0.6-0.9,1.3-0.9c1.4,0,1.9,1.2,1.9,3c0,1.3-0.4,3.2-1.9,3.2
			c-0.5,0-1-0.3-1.2-0.8h0v2.6h-0.9V2.4z M103.4,7.6c0.9,0,1.1-0.9,1.1-2.4c0-1.3-0.2-2.2-1.1-2.2c-1,0-1.2,1-1.2,2.3
			C102.2,6.5,102.4,7.6,103.4,7.6z"/>
		<path class="st0" d="M106.4,2.4h0.9v0.9h0c0.3-0.6,0.6-1,1.3-1c0.2,0,0.3,0,0.4,0.1v0.9c-0.1,0-0.2,0-0.5,0
			c-0.5,0-1.2,0.4-1.2,1.4v3.7h-0.9V2.4z"/>
		<path class="st0" d="M110.4,5.4c0,0.9,0,2.3,1.1,2.3c0.9,0,1-0.9,1-1.4h0.9c0,0.6-0.4,2.1-2,2.1c-1.4,0-2-1-2-3
			c0-1.5,0.3-3.2,2.1-3.2c1.8,0,2,1.6,2,2.8v0.4H110.4z M112.5,4.7V4.4c0-0.7-0.2-1.4-1-1.4c-1,0-1.1,1.2-1.1,1.5v0.2H112.5z"/>
		<path class="st0" d="M117.1,4.1c0-0.7-0.2-1.2-0.9-1.2c-0.3,0-1,0.1-1,0.9c0,0.7,0.7,0.8,1.5,1.1c0.7,0.2,1.4,0.5,1.4,1.7
			c0,1.2-0.8,1.8-1.9,1.8c-2,0-2-1.5-2-2.1h0.9c0,0.7,0.2,1.4,1.1,1.4c0.3,0,1-0.1,1-1c0-0.8-0.7-1-1.4-1.2
			c-0.7-0.2-1.5-0.5-1.5-1.7c0-1.1,0.9-1.6,1.9-1.6c1.7,0,1.8,1.2,1.8,1.9H117.1z"/>
		<path class="st0" d="M119.8,5.4c0,0.9,0,2.3,1.1,2.3c0.9,0,1-0.9,1-1.4h0.9c0,0.6-0.4,2.1-2,2.1c-1.4,0-2-1-2-3
			c0-1.5,0.3-3.2,2.1-3.2c1.8,0,2,1.6,2,2.8v0.4H119.8z M121.9,4.7V4.4c0-0.7-0.2-1.4-1-1.4c-1,0-1.1,1.2-1.1,1.5v0.2H121.9z"/>
		<path class="st0" d="M123.9,2.4h0.9v0.7h0c0.2-0.5,0.9-0.8,1.4-0.8c1.6,0,1.6,1.2,1.6,1.9v4.2h-0.9V4.2c0-0.5,0-1.2-0.9-1.2
			c-0.5,0-1.2,0.3-1.2,1.2v4.1h-0.9V2.4z"/>
		<path class="st0" d="M129.3,0.7h0.9v1.7h1v0.7h-1v3.8c0,0.5,0.1,0.7,0.6,0.7c0.2,0,0.3,0,0.4,0v0.8c-0.1,0-0.4,0.1-0.7,0.1
			c-1,0-1.2-0.4-1.2-1.2V3.1h-0.9V2.4h0.9V0.7z"/>
		<path class="st0" d="M131.7,4.2c0-1.3,0.6-1.9,2-1.9c1.8,0,1.8,1.1,1.8,1.7v3.3c0,0.2,0,0.5,0.3,0.5c0.1,0,0.2,0,0.2-0.1v0.7
			c-0.1,0-0.3,0.1-0.5,0.1c-0.4,0-0.8,0-0.8-0.8h0c-0.3,0.5-0.9,0.8-1.4,0.8c-1.1,0-1.6-0.7-1.6-1.7c0-0.8,0.4-1.4,1.1-1.6l1.2-0.4
			c0.7-0.2,0.7-0.4,0.7-0.9c0-0.5-0.3-0.9-0.9-0.9c-1,0-1,0.9-1,1.2v0.1H131.7z M134.5,5.1c-0.3,0.4-1.2,0.4-1.6,0.7
			c-0.3,0.2-0.5,0.4-0.5,0.9c0,0.6,0.2,1,0.8,1c0.6,0,1.2-0.5,1.2-1.1V5.1z"/>
		<path class="st0" d="M136.7,2.4h0.9v0.7h0c0.2-0.5,0.9-0.8,1.4-0.8c1.6,0,1.6,1.2,1.6,1.9v4.2h-0.9V4.2c0-0.5,0-1.2-0.9-1.2
			c-0.5,0-1.2,0.3-1.2,1.2v4.1h-0.9V2.4z"/>
		<path class="st0" d="M142.1,0.7h0.9v1.7h1v0.7h-1v3.8c0,0.5,0.1,0.7,0.6,0.7c0.2,0,0.3,0,0.4,0v0.8c-0.1,0-0.4,0.1-0.7,0.1
			c-1,0-1.2-0.4-1.2-1.2V3.1h-0.9V2.4h0.9V0.7z"/>
		<path class="st0" d="M145.4,5.4c0,0.9,0,2.3,1.1,2.3c0.9,0,1-0.9,1-1.4h0.9c0,0.6-0.4,2.1-2,2.1c-1.4,0-2-1-2-3
			c0-1.5,0.3-3.2,2.1-3.2c1.8,0,2,1.6,2,2.8v0.4H145.4z M147.6,4.7V4.4c0-0.7-0.2-1.4-1-1.4c-1,0-1.1,1.2-1.1,1.5v0.2H147.6z"/>
		<path class="st0" d="M152.3,2.4h0.9v0.7h0c0.2-0.5,0.9-0.8,1.4-0.8c0.7,0,1.1,0.3,1.3,0.9c0.3-0.5,0.8-0.9,1.4-0.9
			c1.6,0,1.6,1.2,1.6,1.9v4.2h-0.9V4.2c0-0.5,0-1.2-0.8-1.2c-0.4,0-1.1,0.3-1.1,1.2v4.1h-0.9V4.2c0-0.5,0-1.2-0.8-1.2
			c-0.4,0-1.1,0.3-1.1,1.2v4.1h-0.9V2.4z"/>
		<path class="st0" d="M160.9,5.4c0,0.9,0,2.3,1.1,2.3c0.9,0,1-0.9,1-1.4h0.9c0,0.6-0.4,2.1-2,2.1c-1.4,0-2-1-2-3
			c0-1.5,0.3-3.2,2.1-3.2c1.8,0,2,1.6,2,2.8v0.4H160.9z M163,4.7V4.4c0-0.7-0.2-1.4-1-1.4c-1,0-1.1,1.2-1.1,1.5v0.2H163z M162.2,0
			h1.1l-1.2,1.6h-0.7L162.2,0z"/>
		<path class="st0" d="M168.9,8.3H168V7.5h0c-0.1,0.4-0.6,0.9-1.3,0.9c-1.4,0-1.9-1.2-1.9-3.1c0-1.2,0.2-3.1,1.9-3.1
			c0.5,0,1.1,0.3,1.3,0.8h0V0.4h0.9V8.3z M166.8,7.6c1,0,1.2-1,1.2-2.3c0-1.1-0.2-2.3-1.2-2.3c-0.9,0-1.1,0.9-1.1,2.3
			S166,7.6,166.8,7.6z"/>
		<path class="st0" d="M170.2,0.4h0.9v1.1h-0.9V0.4z M170.2,2.4h0.9v5.9h-0.9V2.4z"/>
		<path class="st0" d="M175.1,4.2c0-0.6-0.2-1.2-0.9-1.2c-0.6,0-1.2,0.3-1.2,2.4c0,0.8,0,2.3,1.1,2.3c0.8,0,1-0.8,1-1.5h0.9
			c0,0.9-0.5,2.2-1.9,2.2c-1.4,0-2-1-2-3c0-1.5,0.3-3.2,2.1-3.2c1.6,0,1.9,1.3,1.9,1.9H175.1z"/>
		<path class="st0" d="M178.9,2.2c1.7,0,2.1,1.4,2.1,3.1s-0.4,3.1-2.1,3.1c-1.7,0-2.1-1.4-2.1-3.1S177.2,2.2,178.9,2.2z M180,5.3
			c0-1.3-0.2-2.4-1.2-2.4c-0.9,0-1.1,1.1-1.1,2.4s0.2,2.4,1.1,2.4C179.8,7.7,180,6.6,180,5.3z"/>
		<path class="st0" d="M188.4,8.3h-0.9V7.5h0c-0.1,0.4-0.6,0.9-1.3,0.9c-1.4,0-1.9-1.2-1.9-3.1c0-1.2,0.2-3.1,1.9-3.1
			c0.5,0,1.1,0.3,1.3,0.8h0V0.4h0.9V8.3z M186.4,7.6c1,0,1.2-1,1.2-2.3c0-1.1-0.2-2.3-1.2-2.3c-0.9,0-1.1,0.9-1.1,2.3
			S185.5,7.6,186.4,7.6z"/>
		<path class="st0" d="M190.4,5.4c0,0.9,0,2.3,1.1,2.3c0.9,0,1-0.9,1-1.4h0.9c0,0.6-0.4,2.1-2,2.1c-1.4,0-2-1-2-3
			c0-1.5,0.3-3.2,2.1-3.2c1.8,0,2,1.6,2,2.8v0.4H190.4z M192.5,4.7V4.4c0-0.7-0.2-1.4-1-1.4c-1,0-1.1,1.2-1.1,1.5v0.2H192.5z"/>
		<path class="st0" d="M197.2,0.4h4.1v0.9h-3.1v2.5h2.9v0.9h-2.9v3.7h-1V0.4z"/>
		<path class="st0" d="M201.7,4.2c0-1.3,0.6-1.9,2-1.9c1.8,0,1.8,1.1,1.8,1.7v3.3c0,0.2,0,0.5,0.3,0.5c0.1,0,0.2,0,0.2-0.1v0.7
			c-0.1,0-0.3,0.1-0.5,0.1c-0.4,0-0.8,0-0.8-0.8h0c-0.3,0.5-0.9,0.8-1.4,0.8c-1.1,0-1.6-0.7-1.6-1.7c0-0.8,0.4-1.4,1.1-1.6l1.2-0.4
			c0.7-0.2,0.7-0.4,0.7-0.9c0-0.5-0.3-0.9-0.9-0.9c-1,0-1,0.9-1,1.2v0.1H201.7z M204.5,5.1c-0.3,0.4-1.2,0.4-1.6,0.7
			c-0.3,0.2-0.5,0.4-0.5,0.9c0,0.6,0.2,1,0.8,1c0.6,0,1.2-0.5,1.2-1.1V5.1z"/>
		<path class="st0" d="M206.7,2.4h0.9v0.9h0c0.3-0.6,0.6-1,1.3-1c0.2,0,0.3,0,0.4,0.1v0.9c-0.1,0-0.2,0-0.5,0
			c-0.5,0-1.2,0.4-1.2,1.4v3.7h-0.9V2.4z"/>
		<path class="st0" d="M210.1,2.4h0.9v0.7h0c0.2-0.5,0.9-0.8,1.4-0.8c0.7,0,1.1,0.3,1.3,0.9c0.3-0.5,0.8-0.9,1.4-0.9
			c1.6,0,1.6,1.2,1.6,1.9v4.2h-0.9V4.2c0-0.5,0-1.2-0.8-1.2c-0.4,0-1.1,0.3-1.1,1.2v4.1h-0.9V4.2c0-0.5,0-1.2-0.8-1.2
			c-0.4,0-1.1,0.3-1.1,1.2v4.1h-0.9V2.4z"/>
		<path class="st0" d="M217.8,4.2c0-1.3,0.6-1.9,2-1.9c1.8,0,1.8,1.1,1.8,1.7v3.3c0,0.2,0,0.5,0.3,0.5c0.1,0,0.2,0,0.2-0.1v0.7
			c-0.1,0-0.3,0.1-0.5,0.1c-0.4,0-0.8,0-0.8-0.8h0c-0.3,0.5-0.9,0.8-1.4,0.8c-1.1,0-1.6-0.7-1.6-1.7c0-0.8,0.4-1.4,1.1-1.6l1.2-0.4
			c0.7-0.2,0.7-0.4,0.7-0.9c0-0.5-0.3-0.9-0.9-0.9c-1,0-1,0.9-1,1.2v0.1H217.8z M220.6,5.1c-0.3,0.4-1.2,0.4-1.6,0.7
			c-0.3,0.2-0.5,0.4-0.5,0.9c0,0.6,0.2,1,0.8,1c0.6,0,1.2-0.5,1.2-1.1V5.1z"/>
		<path class="st0" d="M225.3,4.1c0-0.7-0.2-1.2-0.9-1.2c-0.3,0-1,0.1-1,0.9c0,0.7,0.7,0.8,1.5,1.1c0.7,0.2,1.4,0.5,1.4,1.7
			c0,1.2-0.8,1.8-1.9,1.8c-2,0-2-1.5-2-2.1h0.9c0,0.7,0.2,1.4,1.1,1.4c0.3,0,1-0.1,1-1c0-0.8-0.7-1-1.4-1.2
			c-0.7-0.2-1.5-0.5-1.5-1.7c0-1.1,0.9-1.6,1.9-1.6c1.7,0,1.8,1.2,1.8,1.9H225.3z"/>
		<path class="st0" d="M227.1,4.2c0-1.3,0.6-1.9,2-1.9c1.8,0,1.8,1.1,1.8,1.7v3.3c0,0.2,0,0.5,0.3,0.5c0.1,0,0.2,0,0.2-0.1v0.7
			c-0.1,0-0.3,0.1-0.5,0.1c-0.4,0-0.8,0-0.8-0.8h0c-0.3,0.5-0.9,0.8-1.4,0.8c-1.1,0-1.6-0.7-1.6-1.7c0-0.8,0.4-1.4,1.1-1.6l1.2-0.4
			c0.7-0.2,0.7-0.4,0.7-0.9c0-0.5-0.3-0.9-0.9-0.9c-1,0-1,0.9-1,1.2v0.1H227.1z M230,5.1c-0.3,0.4-1.2,0.4-1.6,0.7
			c-0.3,0.2-0.5,0.4-0.5,0.9c0,0.6,0.2,1,0.8,1c0.6,0,1.2-0.5,1.2-1.1V5.1z"/>
		<path class="st0" d="M238.2,2.5c0-0.8-0.3-1.4-1.2-1.4c-0.8,0-1.3,0.4-1.3,1.3c0,2.2,3.7,0.9,3.7,3.8c0,1.8-1.3,2.3-2.4,2.3
			c-1.8,0-2.4-0.9-2.4-2.6h1c0,0.9,0.1,1.8,1.5,1.8c0.8,0,1.4-0.6,1.4-1.4c0-2.2-3.7-0.9-3.7-3.8c0-0.7,0.3-2.2,2.3-2.2
			c1.5,0,2.2,0.7,2.2,2.2H238.2z"/>
		<path class="st0" d="M243.1,4.2c0-0.6-0.2-1.2-0.9-1.2c-0.6,0-1.2,0.3-1.2,2.4c0,0.8,0,2.3,1.1,2.3c0.8,0,1-0.8,1-1.5h0.9
			c0,0.9-0.5,2.2-1.9,2.2c-1.4,0-2-1-2-3c0-1.5,0.3-3.2,2.1-3.2c1.6,0,1.9,1.3,1.9,1.9H243.1z"/>
		<path class="st0" d="M245,0.4h0.9V3h0c0.2-0.5,0.9-0.8,1.4-0.8c1.5,0,1.5,1.2,1.5,1.9v4.2h-0.9V4.2c0-0.5,0-1.2-0.9-1.2
			c-0.5,0-1.2,0.3-1.2,1.2v4.1H245V0.4z"/>
		<path class="st0" d="M249.6,2.4h1l0.9,4.8h0l1-4.8h1.1l1,4.8h0l0.9-4.8h1l-1.4,5.9h-1l-1-4.8h0l-1,4.8H251L249.6,2.4z"/>
		<path class="st0" d="M257.1,4.2c0-1.3,0.6-1.9,2-1.9c1.8,0,1.8,1.1,1.8,1.7v3.3c0,0.2,0,0.5,0.3,0.5c0.1,0,0.2,0,0.2-0.1v0.7
			c-0.1,0-0.3,0.1-0.5,0.1c-0.4,0-0.8,0-0.8-0.8h0c-0.3,0.5-0.9,0.8-1.4,0.8c-1.1,0-1.6-0.7-1.6-1.7c0-0.8,0.4-1.4,1.1-1.6l1.2-0.4
			c0.7-0.2,0.7-0.4,0.7-0.9c0-0.5-0.3-0.9-0.9-0.9c-1,0-1,0.9-1,1.2v0.1H257.1z M259.9,5.1c-0.3,0.4-1.2,0.4-1.6,0.7
			c-0.3,0.2-0.5,0.4-0.5,0.9c0,0.6,0.2,1,0.8,1c0.6,0,1.2-0.5,1.2-1.1V5.1z"/>
		<path class="st0" d="M262.1,0.4h0.9V3h0c0.2-0.5,0.8-0.8,1.4-0.8c1.6,0,1.8,1.9,1.8,3.1c0,1.7-0.6,3.1-1.9,3.1
			c-0.6,0-1.2-0.4-1.3-0.9h0v0.7h-0.9V0.4z M264.1,7.6c0.9,0,1.1-1,1.1-2.3c0-1.4-0.2-2.3-1.1-2.3c-1,0-1.2,1.2-1.2,2.3
			C263,6.5,263.2,7.6,264.1,7.6z"/>
		<path class="st0" d="M268,5.4c0,0.9,0,2.3,1.1,2.3c0.9,0,1-0.9,1-1.4h0.9c0,0.6-0.4,2.1-2,2.1c-1.4,0-2-1-2-3
			c0-1.5,0.3-3.2,2.1-3.2c1.8,0,2,1.6,2,2.8v0.4H268z M270.1,4.7V4.4c0-0.7-0.2-1.4-1-1.4c-1,0-1.1,1.2-1.1,1.5v0.2H270.1z"/>
		<path class="st0" d="M0.6,13.6h2.5c1.2,0,2,0.7,2,2c0,0.9-0.3,1.8-1.2,2v0c0.7,0.1,1.1,0.6,1.1,1.3l0.1,1.3c0,0.9,0.2,1.1,0.4,1.2
			H4.4c-0.2-0.2-0.2-0.7-0.3-1.1l-0.1-1.2C4,18,3.4,18,2.9,18H1.6v3.5h-1V13.6z M1.6,17.2h1c0.6,0,1.6,0,1.6-1.5
			c0-0.8-0.5-1.3-1.4-1.3H1.6V17.2z"/>
		<path class="st0" d="M7.1,18.6c0,0.9,0,2.3,1.1,2.3c0.9,0,1-0.9,1-1.4h0.9c0,0.6-0.4,2.1-2,2.1c-1.4,0-2-1-2-3
			c0-1.5,0.3-3.2,2.1-3.2c1.8,0,2,1.6,2,2.8v0.4H7.1z M9.2,17.9v-0.3c0-0.7-0.2-1.4-1-1.4c-1,0-1.1,1.2-1.1,1.5v0.2H9.2z"/>
		<path class="st0" d="M11.2,15.6h0.9v0.7h0c0.1-0.4,0.6-0.9,1.3-0.9c1.4,0,1.9,1.2,1.9,3c0,1.3-0.4,3.2-1.9,3.2
			c-0.5,0-1-0.3-1.2-0.8h0v2.6h-0.9V15.6z M13.2,20.8c0.9,0,1.1-0.9,1.1-2.4c0-1.3-0.2-2.2-1.1-2.2c-1,0-1.2,1-1.2,2.3
			C12,19.7,12.2,20.8,13.2,20.8z"/>
		<path class="st0" d="M18.1,15.4c1.7,0,2.1,1.4,2.1,3.1s-0.4,3.1-2.1,3.1c-1.7,0-2.1-1.4-2.1-3.1S16.4,15.4,18.1,15.4z M19.3,18.5
			c0-1.3-0.2-2.4-1.2-2.4c-0.9,0-1.1,1.1-1.1,2.4s0.2,2.4,1.1,2.4C19.1,20.9,19.3,19.8,19.3,18.5z"/>
		<path class="st0" d="M21.2,15.6h0.9v0.9h0c0.3-0.6,0.6-1,1.3-1c0.2,0,0.3,0,0.4,0.1v0.9c-0.1,0-0.2,0-0.5,0
			c-0.5,0-1.2,0.4-1.2,1.4v3.7h-0.9V15.6z"/>
		<path class="st0" d="M24.7,13.9h0.9v1.7h1v0.7h-1v3.8c0,0.5,0.1,0.7,0.6,0.7c0.2,0,0.3,0,0.4,0v0.8c-0.1,0-0.4,0.1-0.7,0.1
			c-1,0-1.2-0.4-1.2-1.2v-4.1h-0.9v-0.7h0.9V13.9z"/>
		<path class="st0" d="M28,18.6c0,0.9,0,2.3,1.1,2.3c0.9,0,1-0.9,1-1.4h0.9c0,0.6-0.4,2.1-2,2.1c-1.4,0-2-1-2-3
			c0-1.5,0.3-3.2,2.1-3.2c1.8,0,2,1.6,2,2.8v0.4H28z M30.2,17.9v-0.3c0-0.7-0.2-1.4-1-1.4c-1,0-1.1,1.2-1.1,1.5v0.2H30.2z"/>
		<path class="st0" d="M34.8,13.6h0.9v7.9h-0.9V13.6z"/>
		<path class="st0" d="M36.9,17.4c0-1.3,0.6-1.9,2-1.9c1.8,0,1.8,1.1,1.8,1.7v3.3c0,0.2,0,0.5,0.3,0.5c0.1,0,0.2,0,0.2-0.1v0.7
			c-0.1,0-0.3,0.1-0.5,0.1c-0.4,0-0.8,0-0.8-0.8h0c-0.3,0.5-0.9,0.8-1.4,0.8c-1.1,0-1.6-0.7-1.6-1.7c0-0.8,0.4-1.4,1.1-1.6l1.2-0.4
			c0.7-0.2,0.7-0.4,0.7-0.9c0-0.5-0.3-0.9-0.9-0.9c-1,0-1,0.9-1,1.2v0.1H36.9z M39.7,18.3c-0.3,0.4-1.2,0.4-1.6,0.7
			c-0.3,0.2-0.5,0.4-0.5,0.9c0,0.6,0.2,1,0.8,1c0.6,0,1.2-0.5,1.2-1.1V18.3z"/>
		<path class="st0" d="M44.4,17.3c0-0.7-0.2-1.2-0.9-1.2c-0.3,0-1,0.1-1,0.9c0,0.7,0.7,0.8,1.5,1.1c0.7,0.2,1.4,0.5,1.4,1.7
			c0,1.2-0.8,1.8-1.9,1.8c-2,0-2-1.5-2-2.1h0.9c0,0.7,0.2,1.4,1.1,1.4c0.3,0,1-0.1,1-1c0-0.8-0.7-1-1.4-1.2
			c-0.7-0.2-1.5-0.5-1.5-1.7c0-1.1,0.9-1.6,1.9-1.6c1.7,0,1.8,1.2,1.8,1.9H44.4z"/>
		<path class="st0" d="M51.6,17.3c0-0.7-0.2-1.2-0.9-1.2c-0.3,0-1,0.1-1,0.9c0,0.7,0.7,0.8,1.5,1.1c0.7,0.2,1.4,0.5,1.4,1.7
			c0,1.2-0.8,1.8-1.9,1.8c-2,0-2-1.5-2-2.1h0.9c0,0.7,0.2,1.4,1.1,1.4c0.3,0,1-0.1,1-1c0-0.8-0.7-1-1.4-1.2
			c-0.7-0.2-1.5-0.5-1.5-1.7c0-1.1,0.9-1.6,1.9-1.6c1.7,0,1.8,1.2,1.8,1.9H51.6z"/>
		<path class="st0" d="M55.3,15.4c1.7,0,2.1,1.4,2.1,3.1s-0.4,3.1-2.1,3.1c-1.7,0-2.1-1.4-2.1-3.1S53.6,15.4,55.3,15.4z M56.5,18.5
			c0-1.3-0.2-2.4-1.2-2.4c-0.9,0-1.1,1.1-1.1,2.4s0.2,2.4,1.1,2.4C56.3,20.9,56.5,19.8,56.5,18.5z"/>
		<path class="st0" d="M60.9,17.3c0-0.7-0.2-1.2-0.9-1.2c-0.3,0-1,0.1-1,0.9c0,0.7,0.7,0.8,1.5,1.1c0.7,0.2,1.4,0.5,1.4,1.7
			c0,1.2-0.8,1.8-1.9,1.8c-2,0-2-1.5-2-2.1H59c0,0.7,0.2,1.4,1.1,1.4c0.3,0,1-0.1,1-1c0-0.8-0.7-1-1.4-1.2c-0.7-0.2-1.5-0.5-1.5-1.7
			c0-1.1,0.9-1.6,1.9-1.6c1.7,0,1.8,1.2,1.8,1.9H60.9z"/>
		<path class="st0" d="M62.9,15.6h0.9v0.7h0c0.1-0.4,0.6-0.9,1.3-0.9c1.4,0,1.9,1.2,1.9,3c0,1.3-0.4,3.2-1.9,3.2
			c-0.5,0-1-0.3-1.2-0.8h0v2.6h-0.9V15.6z M64.9,20.8c0.9,0,1.1-0.9,1.1-2.4c0-1.3-0.2-2.2-1.1-2.2c-1,0-1.2,1-1.2,2.3
			C63.7,19.7,63.9,20.8,64.9,20.8z"/>
		<path class="st0" d="M68.7,18.6c0,0.9,0,2.3,1.1,2.3c0.9,0,1-0.9,1-1.4h0.9c0,0.6-0.4,2.1-2,2.1c-1.4,0-2-1-2-3
			c0-1.5,0.3-3.2,2.1-3.2c1.8,0,2,1.6,2,2.8v0.4H68.7z M70.9,17.9v-0.3c0-0.7-0.2-1.4-1-1.4c-1,0-1.1,1.2-1.1,1.5v0.2H70.9z"/>
		<path class="st0" d="M75.6,17.4c0-0.6-0.2-1.2-0.9-1.2c-0.6,0-1.2,0.3-1.2,2.4c0,0.8,0,2.3,1.1,2.3c0.8,0,1-0.8,1-1.5h0.9
			c0,0.9-0.5,2.2-1.9,2.2c-1.4,0-2-1-2-3c0-1.5,0.3-3.2,2.1-3.2c1.6,0,1.9,1.3,1.9,1.9H75.6z"/>
		<path class="st0" d="M77.5,13.6h0.9v2.6h0c0.2-0.5,0.9-0.8,1.4-0.8c1.5,0,1.5,1.2,1.5,1.9v4.2h-0.9v-4.1c0-0.5,0-1.2-0.9-1.2
			c-0.5,0-1.2,0.3-1.2,1.2v4.1h-0.9V13.6z"/>
		<path class="st0" d="M82.5,17.4c0-1.3,0.6-1.9,2-1.9c1.8,0,1.8,1.1,1.8,1.7v3.3c0,0.2,0,0.5,0.3,0.5c0.1,0,0.2,0,0.2-0.1v0.7
			c-0.1,0-0.3,0.1-0.5,0.1c-0.4,0-0.8,0-0.8-0.8h0c-0.3,0.5-0.9,0.8-1.4,0.8c-1.1,0-1.6-0.7-1.6-1.7c0-0.8,0.4-1.4,1.1-1.6l1.2-0.4
			c0.7-0.2,0.7-0.4,0.7-0.9c0-0.5-0.3-0.9-0.9-0.9c-1,0-1,0.9-1,1.2v0.1H82.5z M85.3,18.3c-0.3,0.4-1.2,0.4-1.6,0.7
			c-0.3,0.2-0.5,0.4-0.5,0.9c0,0.6,0.2,1,0.8,1c0.6,0,1.2-0.5,1.2-1.1V18.3z"/>
		<path class="st0" d="M90,17.3c0-0.7-0.2-1.2-0.9-1.2c-0.3,0-1,0.1-1,0.9c0,0.7,0.7,0.8,1.5,1.1c0.7,0.2,1.4,0.5,1.4,1.7
			c0,1.2-0.8,1.8-1.9,1.8c-2,0-2-1.5-2-2.1h0.9c0,0.7,0.2,1.4,1.1,1.4c0.3,0,1-0.1,1-1c0-0.8-0.7-1-1.4-1.2
			c-0.7-0.2-1.5-0.5-1.5-1.7c0-1.1,0.9-1.6,1.9-1.6c1.7,0,1.8,1.2,1.8,1.9H90z"/>
		<path class="st0" d="M98.5,21.5h-0.9v-0.7h0c-0.1,0.4-0.6,0.9-1.3,0.9c-1.4,0-1.9-1.2-1.9-3.1c0-1.2,0.2-3.1,1.9-3.1
			c0.5,0,1.1,0.3,1.3,0.8h0v-2.6h0.9V21.5z M96.4,20.8c1,0,1.2-1,1.2-2.3c0-1.1-0.2-2.3-1.2-2.3c-0.9,0-1.1,0.9-1.1,2.3
			S95.6,20.8,96.4,20.8z"/>
		<path class="st0" d="M100.5,18.6c0,0.9,0,2.3,1.1,2.3c0.9,0,1-0.9,1-1.4h0.9c0,0.6-0.4,2.1-2,2.1c-1.4,0-2-1-2-3
			c0-1.5,0.3-3.2,2.1-3.2c1.8,0,2,1.6,2,2.8v0.4H100.5z M102.6,17.9v-0.3c0-0.7-0.2-1.4-1-1.4c-1,0-1.1,1.2-1.1,1.5v0.2H102.6z"/>
		<path class="st0" d="M107.2,15.6h0.9v0.9h0c0.3-0.6,0.6-1,1.3-1c0.2,0,0.3,0,0.4,0.1v0.9c-0.1,0-0.2,0-0.5,0
			c-0.5,0-1.2,0.4-1.2,1.4v3.7h-0.9V15.6z"/>
		<path class="st0" d="M111.3,18.6c0,0.9,0,2.3,1.1,2.3c0.9,0,1-0.9,1-1.4h0.9c0,0.6-0.4,2.1-2,2.1c-1.4,0-2-1-2-3
			c0-1.5,0.3-3.2,2.1-3.2c1.8,0,2,1.6,2,2.8v0.4H111.3z M113.4,17.9v-0.3c0-0.7-0.2-1.4-1-1.4c-1,0-1.1,1.2-1.1,1.5v0.2H113.4z"/>
		<path class="st0" d="M115.2,17.4c0-1.3,0.6-1.9,2-1.9c1.8,0,1.8,1.1,1.8,1.7v3.3c0,0.2,0,0.5,0.3,0.5c0.1,0,0.2,0,0.2-0.1v0.7
			c-0.1,0-0.3,0.1-0.5,0.1c-0.4,0-0.8,0-0.8-0.8h0c-0.3,0.5-0.9,0.8-1.4,0.8c-1.1,0-1.6-0.7-1.6-1.7c0-0.8,0.4-1.4,1.1-1.6l1.2-0.4
			c0.7-0.2,0.7-0.4,0.7-0.9c0-0.5-0.3-0.9-0.9-0.9c-1,0-1,0.9-1,1.2v0.1H115.2z M118.1,18.3c-0.3,0.4-1.2,0.4-1.6,0.7
			c-0.3,0.2-0.5,0.4-0.5,0.9c0,0.6,0.2,1,0.8,1c0.6,0,1.2-0.5,1.2-1.1V18.3z"/>
		<path class="st0" d="M123.1,17.4c0-0.6-0.2-1.2-0.9-1.2c-0.6,0-1.2,0.3-1.2,2.4c0,0.8,0,2.3,1.1,2.3c0.8,0,1-0.8,1-1.5h0.9
			c0,0.9-0.5,2.2-1.9,2.2c-1.4,0-2-1-2-3c0-1.5,0.3-3.2,2.1-3.2c1.6,0,1.9,1.3,1.9,1.9H123.1z"/>
		<path class="st0" d="M127.8,17.4c0-0.6-0.2-1.2-0.9-1.2c-0.6,0-1.2,0.3-1.2,2.4c0,0.8,0,2.3,1.1,2.3c0.8,0,1-0.8,1-1.5h0.9
			c0,0.9-0.5,2.2-1.9,2.2c-1.4,0-2-1-2-3c0-1.5,0.3-3.2,2.1-3.2c1.6,0,1.9,1.3,1.9,1.9H127.8z"/>
		<path class="st0" d="M129.7,13.6h0.9v1.1h-0.9V13.6z M129.7,15.6h0.9v5.9h-0.9V15.6z"/>
		<path class="st0" d="M133.7,15.4c1.7,0,2.1,1.4,2.1,3.1s-0.4,3.1-2.1,3.1c-1.7,0-2.1-1.4-2.1-3.1S132,15.4,133.7,15.4z
			 M134.9,18.5c0-1.3-0.2-2.4-1.2-2.4c-0.9,0-1.1,1.1-1.1,2.4s0.2,2.4,1.1,2.4C134.7,20.9,134.9,19.8,134.9,18.5z M133.9,13.2h1.1
			l-1.2,1.6h-0.7L133.9,13.2z"/>
		<path class="st0" d="M136.8,15.6h0.9v0.7h0c0.2-0.5,0.9-0.8,1.4-0.8c1.6,0,1.6,1.2,1.6,1.9v4.2h-0.9v-4.1c0-0.5,0-1.2-0.9-1.2
			c-0.5,0-1.2,0.3-1.2,1.2v4.1h-0.9V15.6z"/>
		<path class="st0" d="M144.3,17.4c0-1.3,0.6-1.9,2-1.9c1.8,0,1.8,1.1,1.8,1.7v3.3c0,0.2,0,0.5,0.3,0.5c0.1,0,0.2,0,0.2-0.1v0.7
			c-0.1,0-0.3,0.1-0.5,0.1c-0.4,0-0.8,0-0.8-0.8h0c-0.3,0.5-0.9,0.8-1.4,0.8c-1.1,0-1.6-0.7-1.6-1.7c0-0.8,0.4-1.4,1.1-1.6l1.2-0.4
			c0.7-0.2,0.7-0.4,0.7-0.9c0-0.5-0.3-0.9-0.9-0.9c-1,0-1,0.9-1,1.2v0.1H144.3z M147.2,18.3c-0.3,0.4-1.2,0.4-1.6,0.7
			c-0.3,0.2-0.5,0.4-0.5,0.9c0,0.6,0.2,1,0.8,1c0.6,0,1.2-0.5,1.2-1.1V18.3z"/>
		<path class="st0" d="M153.3,21.5h-0.9v-0.7h0c-0.1,0.4-0.6,0.9-1.3,0.9c-1.4,0-1.9-1.2-1.9-3.1c0-1.2,0.2-3.1,1.9-3.1
			c0.5,0,1.1,0.3,1.3,0.8h0v-2.6h0.9V21.5z M151.2,20.8c1,0,1.2-1,1.2-2.3c0-1.1-0.2-2.3-1.2-2.3c-0.9,0-1.1,0.9-1.1,2.3
			S150.3,20.8,151.2,20.8z"/>
		<path class="st0" d="M154,15.6h1l1.1,4.7h0l1.1-4.7h1l-1.6,5.9h-1.1L154,15.6z"/>
		<path class="st0" d="M159.7,18.6c0,0.9,0,2.3,1.1,2.3c0.9,0,1-0.9,1-1.4h0.9c0,0.6-0.4,2.1-2,2.1c-1.4,0-2-1-2-3
			c0-1.5,0.3-3.2,2.1-3.2c1.8,0,2,1.6,2,2.8v0.4H159.7z M161.8,17.9v-0.3c0-0.7-0.2-1.4-1-1.4c-1,0-1.1,1.2-1.1,1.5v0.2H161.8z"/>
		<path class="st0" d="M163.8,15.6h0.9v0.9h0c0.3-0.6,0.6-1,1.3-1c0.2,0,0.3,0,0.4,0.1v0.9c-0.1,0-0.2,0-0.5,0
			c-0.5,0-1.2,0.4-1.2,1.4v3.7h-0.9V15.6z"/>
		<path class="st0" d="M169.6,17.3c0-0.7-0.2-1.2-0.9-1.2c-0.3,0-1,0.1-1,0.9c0,0.7,0.7,0.8,1.5,1.1c0.7,0.2,1.4,0.5,1.4,1.7
			c0,1.2-0.8,1.8-1.9,1.8c-2,0-2-1.5-2-2.1h0.9c0,0.7,0.2,1.4,1.1,1.4c0.3,0,1-0.1,1-1c0-0.8-0.7-1-1.4-1.2
			c-0.7-0.2-1.5-0.5-1.5-1.7c0-1.1,0.9-1.6,1.9-1.6c1.7,0,1.8,1.2,1.8,1.9H169.6z"/>
		<path class="st0" d="M171.4,17.4c0-1.3,0.6-1.9,2-1.9c1.8,0,1.8,1.1,1.8,1.7v3.3c0,0.2,0,0.5,0.3,0.5c0.1,0,0.2,0,0.2-0.1v0.7
			c-0.1,0-0.3,0.1-0.5,0.1c-0.4,0-0.8,0-0.8-0.8h0c-0.3,0.5-0.9,0.8-1.4,0.8c-1.1,0-1.6-0.7-1.6-1.7c0-0.8,0.4-1.4,1.1-1.6l1.2-0.4
			c0.7-0.2,0.7-0.4,0.7-0.9c0-0.5-0.3-0.9-0.9-0.9c-1,0-1,0.9-1,1.2v0.1H171.4z M174.3,18.3c-0.3,0.4-1.2,0.4-1.6,0.7
			c-0.3,0.2-0.5,0.4-0.5,0.9c0,0.6,0.2,1,0.8,1c0.6,0,1.2-0.5,1.2-1.1V18.3z"/>
		<path class="st0" d="M178.9,17.4c0-1.3,0.6-1.9,2-1.9c1.8,0,1.8,1.1,1.8,1.7v3.3c0,0.2,0,0.5,0.3,0.5c0.1,0,0.2,0,0.2-0.1v0.7
			c-0.1,0-0.3,0.1-0.5,0.1c-0.4,0-0.8,0-0.8-0.8h0c-0.3,0.5-0.9,0.8-1.4,0.8c-1.1,0-1.6-0.7-1.6-1.7c0-0.8,0.4-1.4,1.1-1.6l1.2-0.4
			c0.7-0.2,0.7-0.4,0.7-0.9c0-0.5-0.3-0.9-0.9-0.9c-1,0-1,0.9-1,1.2v0.1H178.9z M181.8,18.3c-0.3,0.4-1.2,0.4-1.6,0.7
			c-0.3,0.2-0.5,0.4-0.5,0.9c0,0.6,0.2,1,0.8,1c0.6,0,1.2-0.5,1.2-1.1V18.3z"/>
		<path class="st0" d="M184,13.6h0.9v7.9H184V13.6z"/>
		<path class="st0" d="M191.6,17.4c0-0.6-0.2-1.2-0.9-1.2c-0.6,0-1.2,0.3-1.2,2.4c0,0.8,0,2.3,1.1,2.3c0.8,0,1-0.8,1-1.5h0.9
			c0,0.9-0.5,2.2-1.9,2.2c-1.4,0-2-1-2-3c0-1.5,0.3-3.2,2.1-3.2c1.6,0,1.9,1.3,1.9,1.9H191.6z"/>
		<path class="st0" d="M195.4,15.4c1.7,0,2.1,1.4,2.1,3.1s-0.4,3.1-2.1,3.1c-1.7,0-2.1-1.4-2.1-3.1S193.7,15.4,195.4,15.4z
			 M196.5,18.5c0-1.3-0.2-2.4-1.2-2.4c-0.9,0-1.1,1.1-1.1,2.4s0.2,2.4,1.1,2.4C196.3,20.9,196.5,19.8,196.5,18.5z"/>
		<path class="st0" d="M198.4,15.6h0.9v0.9h0c0.3-0.6,0.6-1,1.3-1c0.2,0,0.3,0,0.4,0.1v0.9c-0.1,0-0.2,0-0.5,0
			c-0.5,0-1.2,0.4-1.2,1.4v3.7h-0.9V15.6z"/>
		<path class="st0" d="M201.7,15.6h0.9v0.9h0c0.3-0.6,0.6-1,1.3-1c0.2,0,0.3,0,0.4,0.1v0.9c-0.1,0-0.2,0-0.5,0
			c-0.5,0-1.2,0.4-1.2,1.4v3.7h-0.9V15.6z"/>
		<path class="st0" d="M205.7,18.6c0,0.9,0,2.3,1.1,2.3c0.9,0,1-0.9,1-1.4h0.9c0,0.6-0.4,2.1-2,2.1c-1.4,0-2-1-2-3
			c0-1.5,0.3-3.2,2.1-3.2c1.8,0,2,1.6,2,2.8v0.4H205.7z M207.8,17.9v-0.3c0-0.7-0.2-1.4-1-1.4c-1,0-1.1,1.2-1.1,1.5v0.2H207.8z"/>
		<path class="st0" d="M211.6,15.4c1.7,0,2.1,1.4,2.1,3.1s-0.4,3.1-2.1,3.1c-1.7,0-2.1-1.4-2.1-3.1S210,15.4,211.6,15.4z
			 M212.8,18.5c0-1.3-0.2-2.4-1.2-2.4c-0.9,0-1.1,1.1-1.1,2.4s0.2,2.4,1.1,2.4C212.6,20.9,212.8,19.8,212.8,18.5z"/>
		<path class="st0" d="M0.9,29.5H0v-0.7h0.9v-0.7c0-0.9,0.4-1.4,1.3-1.4h0.7v0.8H2.4c-0.4,0-0.6,0.2-0.6,0.6v0.7h1v0.7h-1v5.2H0.9
			V29.5z"/>
		<path class="st0" d="M3.3,30.6c0-1.3,0.6-1.9,2-1.9c1.8,0,1.8,1.1,1.8,1.7v3.3c0,0.2,0,0.5,0.3,0.5c0.1,0,0.2,0,0.2-0.1v0.7
			c-0.1,0-0.3,0.1-0.5,0.1c-0.4,0-0.8,0-0.8-0.8h0c-0.3,0.5-0.9,0.8-1.4,0.8c-1.1,0-1.6-0.7-1.6-1.7c0-0.8,0.4-1.4,1.1-1.6l1.2-0.4
			c0.7-0.2,0.7-0.4,0.7-0.9c0-0.5-0.3-0.9-0.9-0.9c-1,0-1,0.9-1,1.2v0.1H3.3z M6.1,31.5c-0.3,0.4-1.2,0.4-1.6,0.7
			c-0.3,0.2-0.5,0.4-0.5,0.9c0,0.6,0.2,1,0.8,1c0.6,0,1.2-0.5,1.2-1.1V31.5z"/>
		<path class="st0" d="M8.3,28.8h0.9v0.9h0c0.3-0.6,0.6-1,1.3-1c0.2,0,0.3,0,0.4,0.1v0.9c-0.1,0-0.2,0-0.5,0c-0.5,0-1.2,0.4-1.2,1.4
			v3.7H8.3V28.8z"/>
		<path class="st0" d="M11.7,28.8h0.9v0.7h0c0.2-0.5,0.9-0.8,1.4-0.8c0.7,0,1.1,0.3,1.3,0.9c0.3-0.5,0.8-0.9,1.4-0.9
			c1.6,0,1.6,1.2,1.6,1.9v4.2h-0.9v-4.1c0-0.5,0-1.2-0.8-1.2c-0.4,0-1.1,0.3-1.1,1.2v4.1h-0.9v-4.1c0-0.5,0-1.2-0.8-1.2
			c-0.4,0-1.1,0.3-1.1,1.2v4.1h-0.9V28.8z"/>
		<path class="st0" d="M19.4,30.6c0-1.3,0.6-1.9,2-1.9c1.8,0,1.8,1.1,1.8,1.7v3.3c0,0.2,0,0.5,0.3,0.5c0.1,0,0.2,0,0.2-0.1v0.7
			c-0.1,0-0.3,0.1-0.5,0.1c-0.4,0-0.8,0-0.8-0.8h0c-0.3,0.5-0.9,0.8-1.4,0.8c-1.1,0-1.6-0.7-1.6-1.7c0-0.8,0.4-1.4,1.1-1.6l1.2-0.4
			c0.7-0.2,0.7-0.4,0.7-0.9c0-0.5-0.3-0.9-0.9-0.9c-1,0-1,0.9-1,1.2v0.1H19.4z M22.2,31.5c-0.3,0.4-1.2,0.4-1.6,0.7
			c-0.3,0.2-0.5,0.4-0.5,0.9c0,0.6,0.2,1,0.8,1c0.6,0,1.2-0.5,1.2-1.1V31.5z"/>
		<path class="st0" d="M27.2,30.6c0-0.6-0.2-1.2-0.9-1.2c-0.6,0-1.2,0.3-1.2,2.4c0,0.8,0,2.3,1.1,2.3c0.8,0,1-0.8,1-1.5h0.9
			c0,0.9-0.5,2.2-1.9,2.2c-1.4,0-2-1-2-3c0-1.5,0.3-3.2,2.1-3.2c1.6,0,1.9,1.3,1.9,1.9H27.2z"/>
		<path class="st0" d="M30.9,28.6c1.7,0,2.1,1.4,2.1,3.1s-0.4,3.1-2.1,3.1c-1.7,0-2.1-1.4-2.1-3.1S29.2,28.6,30.9,28.6z M32.1,31.7
			c0-1.3-0.2-2.4-1.2-2.4c-0.9,0-1.1,1.1-1.1,2.4s0.2,2.4,1.1,2.4C31.9,34.1,32.1,33,32.1,31.7z"/>
		<path class="st0" d="M33.5,28.8h1l1.1,4.7h0l1.1-4.7h1l-1.6,5.9h-1.1L33.5,28.8z"/>
		<path class="st0" d="M38.5,26.8h0.9v1.1h-0.9V26.8z M38.5,28.8h0.9v5.9h-0.9V28.8z"/>
		<path class="st0" d="M44.6,34.3c0,1.8-0.8,2.4-2,2.4c-0.4,0-1.8,0-1.9-1.5h0.9c0,0.5,0.5,0.7,0.9,0.7c1.2,0,1.1-0.9,1.1-1.3v-0.8
			h0c-0.2,0.5-0.7,0.8-1.3,0.8c-1.7,0-1.8-2.2-1.8-2.9c0-1.6,0.4-3.1,1.9-3.1c0.6,0,1.2,0.4,1.3,0.9h0v-0.7h0.9V34.3z M41.4,31.7
			c0,1,0.1,2.2,1.1,2.2c1,0,1.2-0.9,1.2-2.2c0-1.1-0.2-2.3-1.2-2.3C41.6,29.4,41.4,30.3,41.4,31.7z"/>
		<path class="st0" d="M45.8,26.8h0.9v1.1h-0.9V26.8z M45.8,28.8h0.9v5.9h-0.9V28.8z"/>
		<path class="st0" d="M48.1,26.8H49v7.9h-0.9V26.8z"/>
		<path class="st0" d="M50.1,30.6c0-1.3,0.6-1.9,2-1.9c1.8,0,1.8,1.1,1.8,1.7v3.3c0,0.2,0,0.5,0.3,0.5c0.1,0,0.2,0,0.2-0.1v0.7
			c-0.1,0-0.3,0.1-0.5,0.1c-0.4,0-0.8,0-0.8-0.8h0c-0.3,0.5-0.9,0.8-1.4,0.8c-1.1,0-1.6-0.7-1.6-1.7c0-0.8,0.4-1.4,1.1-1.6l1.2-0.4
			c0.7-0.2,0.7-0.4,0.7-0.9c0-0.5-0.3-0.9-0.9-0.9c-1,0-1,0.9-1,1.2v0.1H50.1z M53,31.5c-0.3,0.4-1.2,0.4-1.6,0.7
			c-0.3,0.2-0.5,0.4-0.5,0.9c0,0.6,0.2,1,0.8,1c0.6,0,1.2-0.5,1.2-1.1V31.5z"/>
		<path class="st0" d="M55.1,28.8H56v0.7h0c0.2-0.5,0.9-0.8,1.4-0.8c1.6,0,1.6,1.2,1.6,1.9v4.2h-0.9v-4.1c0-0.5,0-1.2-0.9-1.2
			c-0.5,0-1.2,0.3-1.2,1.2v4.1h-0.9V28.8z"/>
		<path class="st0" d="M63,30.6c0-0.6-0.2-1.2-0.9-1.2c-0.6,0-1.2,0.3-1.2,2.4c0,0.8,0,2.3,1.1,2.3c0.8,0,1-0.8,1-1.5H64
			c0,0.9-0.5,2.2-1.9,2.2c-1.4,0-2-1-2-3c0-1.5,0.3-3.2,2.1-3.2c1.6,0,1.9,1.3,1.9,1.9H63z"/>
		<path class="st0" d="M65,26.8h0.9v1.1H65V26.8z M65,28.8h0.9v5.9H65V28.8z"/>
		<path class="st0" d="M67,30.6c0-1.3,0.6-1.9,2-1.9c1.8,0,1.8,1.1,1.8,1.7v3.3c0,0.2,0,0.5,0.3,0.5c0.1,0,0.2,0,0.2-0.1v0.7
			c-0.1,0-0.3,0.1-0.5,0.1c-0.4,0-0.8,0-0.8-0.8h0c-0.3,0.5-0.9,0.8-1.4,0.8c-1.1,0-1.6-0.7-1.6-1.7c0-0.8,0.4-1.4,1.1-1.6l1.2-0.4
			c0.7-0.2,0.7-0.4,0.7-0.9c0-0.5-0.3-0.9-0.9-0.9c-1,0-1,0.9-1,1.2v0.1H67z M69.9,31.5c-0.3,0.4-1.2,0.4-1.6,0.7
			c-0.3,0.2-0.5,0.4-0.5,0.9c0,0.6,0.2,1,0.8,1c0.6,0,1.2-0.5,1.2-1.1V31.5z"/>
		<path class="st0" d="M77.5,28.6h0.6l-0.9,3.1c-0.1,0.2-0.1,0.3-0.1,0.5c0,0.2,0.1,0.3,0.3,0.3c1,0,1.8-1.2,1.8-2.4
			c0-1.7-1.5-2.8-3.4-2.8c-1.9,0-3.4,1.5-3.4,3.4c0,2,1.5,3.4,3.4,3.4c1.4,0,2.4-0.4,3-1.2h0.7c-0.7,1.2-2,1.9-3.7,1.9
			c-2.3,0-4.1-1.8-4.1-4.1c0-2.3,1.8-4.1,4.1-4.1c2.4,0,4.1,1.4,4.1,3.4c0,1.9-1.5,3.1-2.8,3.1c-0.4,0-0.7-0.2-0.8-0.6h0
			c-0.3,0.4-0.7,0.6-1.4,0.6c-0.8,0-1.6-0.7-1.6-1.7c0-1.5,1-3.1,2.6-3.1c0.5,0,1,0.2,1.3,0.9h0L77.5,28.6z M75.1,32.5
			c1,0,1.7-1.5,1.7-2.3c0-0.5-0.3-1.1-0.9-1.1c-1.1,0-1.8,1.4-1.8,2.4C74.1,32.1,74.5,32.5,75.1,32.5z"/>
		<path class="st0" d="M81.1,29.5h-0.9v-0.7h0.9v-0.7c0-0.9,0.4-1.4,1.3-1.4h0.7v0.8h-0.4c-0.4,0-0.6,0.2-0.6,0.6v0.7h1v0.7h-1v5.2
			h-0.9V29.5z"/>
		<path class="st0" d="M83.6,30.6c0-1.3,0.6-1.9,2-1.9c1.8,0,1.8,1.1,1.8,1.7v3.3c0,0.2,0,0.5,0.3,0.5c0.1,0,0.2,0,0.2-0.1v0.7
			c-0.1,0-0.3,0.1-0.5,0.1c-0.4,0-0.8,0-0.8-0.8h0c-0.3,0.5-0.9,0.8-1.4,0.8c-1.1,0-1.6-0.7-1.6-1.7c0-0.8,0.4-1.4,1.1-1.6l1.2-0.4
			c0.7-0.2,0.7-0.4,0.7-0.9c0-0.5-0.3-0.9-0.9-0.9c-1,0-1,0.9-1,1.2v0.1H83.6z M86.4,31.5c-0.3,0.4-1.2,0.4-1.6,0.7
			c-0.3,0.2-0.5,0.4-0.5,0.9c0,0.6,0.2,1,0.8,1c0.6,0,1.2-0.5,1.2-1.1V31.5z"/>
		<path class="st0" d="M88.6,28.8h0.9v0.9h0c0.3-0.6,0.6-1,1.3-1c0.2,0,0.3,0,0.4,0.1v0.9c-0.1,0-0.2,0-0.5,0
			c-0.5,0-1.2,0.4-1.2,1.4v3.7h-0.9V28.8z"/>
		<path class="st0" d="M91.9,28.8h0.9v0.7h0c0.2-0.5,0.9-0.8,1.4-0.8c0.7,0,1.1,0.3,1.3,0.9c0.3-0.5,0.8-0.9,1.4-0.9
			c1.6,0,1.6,1.2,1.6,1.9v4.2h-0.9v-4.1c0-0.5,0-1.2-0.8-1.2c-0.4,0-1.1,0.3-1.1,1.2v4.1h-0.9v-4.1c0-0.5,0-1.2-0.8-1.2
			c-0.4,0-1.1,0.3-1.1,1.2v4.1h-0.9V28.8z"/>
		<path class="st0" d="M99.6,30.6c0-1.3,0.6-1.9,2-1.9c1.8,0,1.8,1.1,1.8,1.7v3.3c0,0.2,0,0.5,0.3,0.5c0.1,0,0.2,0,0.2-0.1v0.7
			c-0.1,0-0.3,0.1-0.5,0.1c-0.4,0-0.8,0-0.8-0.8h0c-0.3,0.5-0.9,0.8-1.4,0.8c-1.1,0-1.6-0.7-1.6-1.7c0-0.8,0.4-1.4,1.1-1.6l1.2-0.4
			c0.7-0.2,0.7-0.4,0.7-0.9c0-0.5-0.3-0.9-0.9-0.9c-1,0-1,0.9-1,1.2v0.1H99.6z M102.5,31.5c-0.3,0.4-1.2,0.4-1.6,0.7
			c-0.3,0.2-0.5,0.4-0.5,0.9c0,0.6,0.2,1,0.8,1c0.6,0,1.2-0.5,1.2-1.1V31.5z"/>
		<path class="st0" d="M107.2,30.5c0-0.7-0.2-1.2-0.9-1.2c-0.3,0-1,0.1-1,0.9c0,0.7,0.7,0.8,1.5,1.1c0.7,0.2,1.4,0.5,1.4,1.7
			c0,1.2-0.8,1.8-1.9,1.8c-2,0-2-1.5-2-2.1h0.9c0,0.7,0.2,1.4,1.1,1.4c0.3,0,1-0.1,1-1c0-0.8-0.7-1-1.4-1.2
			c-0.7-0.2-1.5-0.5-1.5-1.7c0-1.1,0.9-1.6,1.9-1.6c1.7,0,1.8,1.2,1.8,1.9H107.2z"/>
		<path class="st0" d="M109,30.6c0-1.3,0.6-1.9,2-1.9c1.8,0,1.8,1.1,1.8,1.7v3.3c0,0.2,0,0.5,0.3,0.5c0.1,0,0.2,0,0.2-0.1v0.7
			c-0.1,0-0.3,0.1-0.5,0.1c-0.4,0-0.8,0-0.8-0.8h0c-0.3,0.5-0.9,0.8-1.4,0.8c-1.1,0-1.6-0.7-1.6-1.7c0-0.8,0.4-1.4,1.1-1.6l1.2-0.4
			c0.7-0.2,0.7-0.4,0.7-0.9c0-0.5-0.3-0.9-0.9-0.9c-1,0-1,0.9-1,1.2v0.1H109z M111.8,31.5c-0.3,0.4-1.2,0.4-1.6,0.7
			c-0.3,0.2-0.5,0.4-0.5,0.9c0,0.6,0.2,1,0.8,1c0.6,0,1.2-0.5,1.2-1.1V31.5z"/>
		<path class="st0" d="M114,31.1h2.7V32H114V31.1z"/>
		<path class="st0" d="M120.4,30.5c0-0.7-0.2-1.2-0.9-1.2c-0.3,0-1,0.1-1,0.9c0,0.7,0.7,0.8,1.5,1.1c0.7,0.2,1.4,0.5,1.4,1.7
			c0,1.2-0.8,1.8-1.9,1.8c-2,0-2-1.5-2-2.1h0.9c0,0.7,0.2,1.4,1.1,1.4c0.3,0,1-0.1,1-1c0-0.8-0.7-1-1.4-1.2
			c-0.7-0.2-1.5-0.5-1.5-1.7c0-1.1,0.9-1.6,1.9-1.6c1.7,0,1.8,1.2,1.8,1.9H120.4z"/>
		<path class="st0" d="M125.2,30.6c0-0.6-0.2-1.2-0.9-1.2c-0.6,0-1.2,0.3-1.2,2.4c0,0.8,0,2.3,1.1,2.3c0.8,0,1-0.8,1-1.5h0.9
			c0,0.9-0.5,2.2-1.9,2.2c-1.4,0-2-1-2-3c0-1.5,0.3-3.2,2.1-3.2c1.6,0,1.9,1.3,1.9,1.9H125.2z"/>
		<path class="st0" d="M127.1,26.8h0.9v2.6h0c0.2-0.5,0.9-0.8,1.4-0.8c1.5,0,1.5,1.2,1.5,1.9v4.2H130v-4.1c0-0.5,0-1.2-0.9-1.2
			c-0.5,0-1.2,0.3-1.2,1.2v4.1h-0.9V26.8z"/>
		<path class="st0" d="M131.7,28.8h1l0.9,4.8h0l1-4.8h1.1l1,4.8h0l0.9-4.8h1l-1.4,5.9h-1l-1-4.8h0l-1,4.8H133L131.7,28.8z"/>
		<path class="st0" d="M139.1,30.6c0-1.3,0.6-1.9,2-1.9c1.8,0,1.8,1.1,1.8,1.7v3.3c0,0.2,0,0.5,0.3,0.5c0.1,0,0.2,0,0.2-0.1v0.7
			c-0.1,0-0.3,0.1-0.5,0.1c-0.4,0-0.8,0-0.8-0.8h0c-0.3,0.5-0.9,0.8-1.4,0.8c-1.1,0-1.6-0.7-1.6-1.7c0-0.8,0.4-1.4,1.1-1.6l1.2-0.4
			c0.7-0.2,0.7-0.4,0.7-0.9c0-0.5-0.3-0.9-0.9-0.9c-1,0-1,0.9-1,1.2v0.1H139.1z M142,31.5c-0.3,0.4-1.2,0.4-1.6,0.7
			c-0.3,0.2-0.5,0.4-0.5,0.9c0,0.6,0.2,1,0.8,1c0.6,0,1.2-0.5,1.2-1.1V31.5z"/>
		<path class="st0" d="M144.2,26.8h0.9v2.6h0c0.2-0.5,0.8-0.8,1.4-0.8c1.6,0,1.8,1.9,1.8,3.1c0,1.7-0.6,3.1-1.9,3.1
			c-0.6,0-1.2-0.4-1.3-0.9h0v0.7h-0.9V26.8z M146.2,34c0.9,0,1.1-1,1.1-2.3c0-1.4-0.2-2.3-1.1-2.3c-1,0-1.2,1.2-1.2,2.3
			C145,32.9,145.2,34,146.2,34z"/>
		<path class="st0" d="M150,31.8c0,0.9,0,2.3,1.1,2.3c0.9,0,1-0.9,1-1.4h0.9c0,0.6-0.4,2.1-2,2.1c-1.4,0-2-1-2-3
			c0-1.5,0.3-3.2,2.1-3.2c1.8,0,2,1.6,2,2.8v0.4H150z M152.2,31.1v-0.3c0-0.7-0.2-1.4-1-1.4c-1,0-1.1,1.2-1.1,1.5v0.2H152.2z"/>
		<path class="st0" d="M154.3,33.5h1v1.2h-1V33.5z"/>
		<path class="st0" d="M159.6,30.6c0-0.6-0.2-1.2-0.9-1.2c-0.6,0-1.2,0.3-1.2,2.4c0,0.8,0,2.3,1.1,2.3c0.8,0,1-0.8,1-1.5h0.9
			c0,0.9-0.5,2.2-1.9,2.2c-1.4,0-2-1-2-3c0-1.5,0.3-3.2,2.1-3.2c1.6,0,1.9,1.3,1.9,1.9H159.6z"/>
		<path class="st0" d="M163.3,28.6c1.7,0,2.1,1.4,2.1,3.1s-0.4,3.1-2.1,3.1c-1.7,0-2.1-1.4-2.1-3.1S161.6,28.6,163.3,28.6z
			 M164.5,31.7c0-1.3-0.2-2.4-1.2-2.4c-0.9,0-1.1,1.1-1.1,2.4s0.2,2.4,1.1,2.4C164.3,34.1,164.5,33,164.5,31.7z"/>
		<path class="st0" d="M166.4,28.8h0.9v0.7h0c0.2-0.5,0.9-0.8,1.4-0.8c0.7,0,1.1,0.3,1.3,0.9c0.3-0.5,0.8-0.9,1.4-0.9
			c1.6,0,1.6,1.2,1.6,1.9v4.2h-0.9v-4.1c0-0.5,0-1.2-0.8-1.2c-0.4,0-1.1,0.3-1.1,1.2v4.1h-0.9v-4.1c0-0.5,0-1.2-0.8-1.2
			c-0.4,0-1.1,0.3-1.1,1.2v4.1h-0.9V28.8z"/>
		<path class="st0" d="M174.5,33.5h1v1.2h-1V33.5z"/>
		<path class="st0" d="M177,28.8h0.9v0.7h0c0.2-0.5,0.9-0.8,1.4-0.8c0.7,0,1.1,0.3,1.3,0.9c0.3-0.5,0.8-0.9,1.4-0.9
			c1.6,0,1.6,1.2,1.6,1.9v4.2h-0.9v-4.1c0-0.5,0-1.2-0.8-1.2c-0.4,0-1.1,0.3-1.1,1.2v4.1h-0.9v-4.1c0-0.5,0-1.2-0.8-1.2
			c-0.4,0-1.1,0.3-1.1,1.2v4.1H177V28.8z"/>
		<path class="st0" d="M184.4,28.8h1l1.1,2.1l1.1-2.1h1l-1.5,2.8l1.6,3.1h-1l-1.2-2.3l-1.1,2.3h-1l1.6-3.1L184.4,28.8z"/>
		<path class="st0" d="M193.8,28.6c1.7,0,2.1,1.4,2.1,3.1s-0.4,3.1-2.1,3.1c-1.7,0-2.1-1.4-2.1-3.1S192.1,28.6,193.8,28.6z
			 M195,31.7c0-1.3-0.2-2.4-1.2-2.4c-0.9,0-1.1,1.1-1.1,2.4s0.2,2.4,1.1,2.4C194.8,34.1,195,33,195,31.7z"/>
		<path class="st0" d="M199.4,30.6c0-1.3,0.6-1.9,2-1.9c1.8,0,1.8,1.1,1.8,1.7v3.3c0,0.2,0,0.5,0.3,0.5c0.1,0,0.2,0,0.2-0.1v0.7
			c-0.1,0-0.3,0.1-0.5,0.1c-0.4,0-0.8,0-0.8-0.8h0c-0.3,0.5-0.9,0.8-1.4,0.8c-1.1,0-1.6-0.7-1.6-1.7c0-0.8,0.4-1.4,1.1-1.6l1.2-0.4
			c0.7-0.2,0.7-0.4,0.7-0.9c0-0.5-0.3-0.9-0.9-0.9c-1,0-1,0.9-1,1.2v0.1H199.4z M202.2,31.5c-0.3,0.4-1.2,0.4-1.6,0.7
			c-0.3,0.2-0.5,0.4-0.5,0.9c0,0.6,0.2,1,0.8,1c0.6,0,1.2-0.5,1.2-1.1V31.5z"/>
		<path class="st0" d="M204.4,26.8h0.9v7.9h-0.9V26.8z"/>
		<path class="st0" d="M209.5,27.1h0.9v1.7h1v0.7h-1v3.8c0,0.5,0.1,0.7,0.6,0.7c0.2,0,0.3,0,0.4,0v0.8c-0.1,0-0.4,0.1-0.7,0.1
			c-1,0-1.2-0.4-1.2-1.2v-4.1h-0.9v-0.7h0.9V27.1z"/>
		<path class="st0" d="M212.9,31.8c0,0.9,0,2.3,1.1,2.3c0.9,0,1-0.9,1-1.4h0.9c0,0.6-0.4,2.1-2,2.1c-1.4,0-2-1-2-3
			c0-1.5,0.3-3.2,2.1-3.2c1.8,0,2,1.6,2,2.8v0.4H212.9z M215,31.1v-0.3c0-0.7-0.2-1.4-1-1.4c-1,0-1.1,1.2-1.1,1.5v0.2H215z"/>
		<path class="st0" d="M217.1,26.8h0.9v7.9h-0.9V26.8z"/>
		<path class="st0" d="M220,31.8c0,0.9,0,2.3,1.1,2.3c0.9,0,1-0.9,1-1.4h0.9c0,0.6-0.4,2.1-2,2.1c-1.4,0-2-1-2-3
			c0-1.5,0.3-3.2,2.1-3.2c1.8,0,2,1.6,2,2.8v0.4H220z M222.2,31.1v-0.3c0-0.7-0.2-1.4-1-1.4c-1,0-1.1,1.2-1.1,1.5v0.2H222.2z
			 M221.3,26.4h1.1l-1.2,1.6h-0.7L221.3,26.4z"/>
		<path class="st0" d="M224.4,29.5h-0.9v-0.7h0.9v-0.7c0-0.9,0.4-1.4,1.3-1.4h0.7v0.8h-0.4c-0.4,0-0.6,0.2-0.6,0.6v0.7h1v0.7h-1v5.2
			h-0.9V29.5z"/>
		<path class="st0" d="M228.8,28.6c1.7,0,2.1,1.4,2.1,3.1s-0.4,3.1-2.1,3.1c-1.7,0-2.1-1.4-2.1-3.1S227.1,28.6,228.8,28.6z
			 M230,31.7c0-1.3-0.2-2.4-1.2-2.4c-0.9,0-1.1,1.1-1.1,2.4s0.2,2.4,1.1,2.4C229.8,34.1,230,33,230,31.7z"/>
		<path class="st0" d="M231.9,28.8h0.9v0.7h0c0.2-0.5,0.9-0.8,1.4-0.8c1.6,0,1.6,1.2,1.6,1.9v4.2h-0.9v-4.1c0-0.5,0-1.2-0.9-1.2
			c-0.5,0-1.2,0.3-1.2,1.2v4.1h-0.9V28.8z"/>
		<path class="st0" d="M238.8,28.6c1.7,0,2.1,1.4,2.1,3.1s-0.4,3.1-2.1,3.1c-1.7,0-2.1-1.4-2.1-3.1S237.1,28.6,238.8,28.6z
			 M239.9,31.7c0-1.3-0.2-2.4-1.2-2.4c-0.9,0-1.1,1.1-1.1,2.4s0.2,2.4,1.1,2.4C239.8,34.1,239.9,33,239.9,31.7z"/>
		<path class="st0" d="M244.3,30.9c0-1.7,0.1-4,2.2-4c2.1,0,2.2,2.1,2.2,4c0,1.6-0.1,3.9-2.2,3.9C244.4,34.8,244.3,32.7,244.3,30.9z
			 M246.5,34.1c1.2,0,1.3-1.6,1.3-3.2c0-1.7-0.1-3.3-1.3-3.3c-1.2,0-1.3,1.6-1.3,3.3C245.3,32.5,245.3,34.1,246.5,34.1z"/>
		<path class="st0" d="M249.9,28.2c1-0.1,1.9-0.2,1.9-1.3h0.7v7.8h-0.9v-5.9h-1.7V28.2z"/>
		<path class="st0" d="M256.2,30.5c-0.8-0.3-1.1-0.8-1.1-1.7c0-1.3,0.8-2,2-2c1.2,0,2,0.7,2,2c0,0.8-0.4,1.3-1.1,1.7
			c0.9,0.3,1.4,1,1.4,2c0,1-0.5,2.3-2.2,2.3c-1.8,0-2.2-1.3-2.2-2.3C254.8,31.5,255.3,30.8,256.2,30.5z M257.1,34.1
			c0.9,0,1.3-0.7,1.3-1.6s-0.4-1.6-1.3-1.6c-0.9,0-1.3,0.7-1.3,1.6S256.2,34.1,257.1,34.1z M256.1,28.9c0,0.7,0.3,1.3,1,1.3
			c0.7,0,1-0.5,1-1.3c0-0.7-0.3-1.3-1-1.3C256.4,27.6,256.1,28.1,256.1,28.9z"/>
		<path class="st0" d="M260.1,30.9c0-1.7,0.1-4,2.2-4s2.2,2.1,2.2,4c0,1.6-0.1,3.9-2.2,3.9S260.1,32.7,260.1,30.9z M262.4,34.1
			c1.2,0,1.3-1.6,1.3-3.2c0-1.7-0.1-3.3-1.3-3.3s-1.3,1.6-1.3,3.3C261.1,32.5,261.2,34.1,262.4,34.1z"/>
		<path class="st0" d="M265.4,30.9c0-1.7,0.1-4,2.2-4c2.1,0,2.2,2.1,2.2,4c0,1.6-0.1,3.9-2.2,3.9C265.5,34.8,265.4,32.7,265.4,30.9z
			 M267.6,34.1c1.2,0,1.3-1.6,1.3-3.2c0-1.7-0.1-3.3-1.3-3.3c-1.2,0-1.3,1.6-1.3,3.3C266.4,32.5,266.4,34.1,267.6,34.1z"/>
		<path class="st0" d="M274.9,30.3h0.5c0.8,0,1.2-0.6,1.2-1.4c0-0.7-0.3-1.3-1-1.3c-1,0-1.1,0.9-1.1,1.5h-1c0-1.3,0.6-2.2,2.1-2.2
			c1.6,0,2,1.2,2,2c0,0.8-0.4,1.5-1.2,1.7v0c0.9,0.2,1.4,0.7,1.4,1.8c0,1.4-0.7,2.4-2.2,2.4c-2.1,0-2.2-1.8-2.2-2.2v-0.1h1
			c0,0.7,0.4,1.5,1.2,1.5c0.6,0,1.2-0.3,1.2-1.6c0-0.9-0.4-1.5-1.4-1.5h-0.5V30.3z"/>
		<path class="st0" d="M281.9,28.8c0-0.6-0.4-1.1-1-1.1c-1.3,0-1.4,1.9-1.4,2.3v0.6h0c0.2-0.3,0.6-0.9,1.5-0.9c1.4,0,2,1,2,2.5
			c0,1.5-0.7,2.7-2.2,2.7c-2.2,0-2.3-2.1-2.3-3.7c0-1.8,0.1-4.2,2.4-4.2c1.8,0,2,1.5,2,1.9H281.9z M280.9,34.1c1,0,1.2-1,1.2-1.8
			c0-0.8-0.2-1.8-1.2-1.8s-1.2,1-1.2,1.8C279.7,33.1,279.9,34.1,280.9,34.1z"/>
		<path class="st0" d="M285.3,30.5c-0.8-0.3-1.1-0.8-1.1-1.7c0-1.3,0.8-2,2-2c1.2,0,2,0.7,2,2c0,0.8-0.4,1.3-1.1,1.7
			c0.9,0.3,1.4,1,1.4,2c0,1-0.5,2.3-2.2,2.3c-1.8,0-2.2-1.3-2.2-2.3C283.9,31.5,284.3,30.8,285.3,30.5z M286.1,34.1
			c0.9,0,1.3-0.7,1.3-1.6s-0.4-1.6-1.3-1.6c-0.9,0-1.3,0.7-1.3,1.6S285.2,34.1,286.1,34.1z M285.1,28.9c0,0.7,0.3,1.3,1,1.3
			c0.7,0,1-0.5,1-1.3c0-0.7-0.3-1.3-1-1.3C285.4,27.6,285.1,28.1,285.1,28.9z"/>
		<path class="st0" d="M293.6,34.7h-4.4c0-1.5,0.8-2.4,1.7-3.2l0.6-0.5c0.6-0.5,1-1,1-1.9c0-0.7-0.3-1.4-1.1-1.4
			c-1.2,0-1.2,1.2-1.2,1.7h-1c0-1.5,0.6-2.5,2.2-2.5c1.8,0,2.1,1.4,2.1,2.1c0,1.2-0.5,1.8-1.4,2.6l-1.1,1c-0.4,0.4-0.7,0.8-0.8,1.3
			h3.3V34.7z"/>
		<path class="st0" d="M297.8,28.8c0-0.6-0.4-1.1-1-1.1c-1.3,0-1.4,1.9-1.4,2.3v0.6h0c0.2-0.3,0.6-0.9,1.5-0.9c1.4,0,2,1,2,2.5
			c0,1.5-0.7,2.7-2.2,2.7c-2.2,0-2.3-2.1-2.3-3.7c0-1.8,0.1-4.2,2.4-4.2c1.8,0,2,1.5,2,1.9H297.8z M296.7,34.1c1,0,1.2-1,1.2-1.8
			c0-0.8-0.2-1.8-1.2-1.8s-1.2,1-1.2,1.8C295.5,33.1,295.8,34.1,296.7,34.1z"/>
		<path class="st0" d="M301.1,30.5c-0.8-0.3-1.1-0.8-1.1-1.7c0-1.3,0.8-2,2-2s2,0.7,2,2c0,0.8-0.4,1.3-1.1,1.7c0.9,0.3,1.4,1,1.4,2
			c0,1-0.5,2.3-2.2,2.3s-2.2-1.3-2.2-2.3C299.7,31.5,300.2,30.8,301.1,30.5z M302,34.1c0.9,0,1.3-0.7,1.3-1.6s-0.4-1.6-1.3-1.6
			s-1.3,0.7-1.3,1.6S301,34.1,302,34.1z M300.9,28.9c0,0.7,0.3,1.3,1,1.3c0.7,0,1-0.5,1-1.3c0-0.7-0.3-1.3-1-1.3
			C301.2,27.6,300.9,28.1,300.9,28.9z"/>
		<path class="st0" d="M309.4,34.7h-4.4c0-1.5,0.8-2.4,1.7-3.2l0.6-0.5c0.6-0.5,1-1,1-1.9c0-0.7-0.3-1.4-1.1-1.4
			c-1.2,0-1.2,1.2-1.2,1.7h-1c0-1.5,0.6-2.5,2.2-2.5c1.8,0,2.1,1.4,2.1,2.1c0,1.2-0.5,1.8-1.4,2.6l-1.1,1c-0.4,0.4-0.7,0.8-0.8,1.3
			h3.3V34.7z"/>
		<path class="st0" d="M2.4,41.8c1.7,0,2.1,1.4,2.1,3.1S4.1,48,2.4,48c-1.7,0-2.1-1.4-2.1-3.1S0.7,41.8,2.4,41.8z M3.6,44.9
			c0-1.3-0.2-2.4-1.2-2.4c-0.9,0-1.1,1.1-1.1,2.4s0.2,2.4,1.1,2.4C3.4,47.3,3.6,46.2,3.6,44.9z"/>
		<path class="st0" d="M8,43.8c0-1.3,0.6-1.9,2-1.9c1.8,0,1.8,1.1,1.8,1.7v3.3c0,0.2,0,0.5,0.3,0.5c0.1,0,0.2,0,0.2-0.1v0.7
			c-0.1,0-0.3,0.1-0.5,0.1c-0.4,0-0.8,0-0.8-0.8h0C10.5,47.7,10,48,9.4,48c-1.1,0-1.6-0.7-1.6-1.7c0-0.8,0.4-1.4,1.1-1.6l1.2-0.4
			c0.7-0.2,0.7-0.4,0.7-0.9c0-0.5-0.3-0.9-0.9-0.9c-1,0-1,0.9-1,1.2v0.1H8z M10.8,44.7c-0.3,0.4-1.2,0.4-1.6,0.7
			c-0.3,0.2-0.5,0.4-0.5,0.9c0,0.6,0.2,1,0.8,1c0.6,0,1.2-0.5,1.2-1.1V44.7z"/>
		<path class="st0" d="M15.9,40.3h0.9V42h1v0.7h-1v3.8c0,0.5,0.1,0.7,0.6,0.7c0.2,0,0.3,0,0.4,0v0.8c-0.1,0-0.4,0.1-0.7,0.1
			c-1,0-1.2-0.4-1.2-1.2v-4.1H15V42h0.9V40.3z"/>
		<path class="st0" d="M18.5,42h0.9v0.9h0c0.3-0.6,0.6-1,1.3-1c0.2,0,0.3,0,0.4,0.1v0.9c-0.1,0-0.2,0-0.5,0c-0.5,0-1.2,0.4-1.2,1.4
			v3.7h-0.9V42z"/>
		<path class="st0" d="M21.6,43.8c0-1.3,0.6-1.9,2-1.9c1.8,0,1.8,1.1,1.8,1.7v3.3c0,0.2,0,0.5,0.3,0.5c0.1,0,0.2,0,0.2-0.1v0.7
			c-0.1,0-0.3,0.1-0.5,0.1c-0.4,0-0.8,0-0.8-0.8h0c-0.3,0.5-0.9,0.8-1.4,0.8c-1.1,0-1.6-0.7-1.6-1.7c0-0.8,0.4-1.4,1.1-1.6l1.2-0.4
			c0.7-0.2,0.7-0.4,0.7-0.9c0-0.5-0.3-0.9-0.9-0.9c-1,0-1,0.9-1,1.2v0.1H21.6z M24.4,44.7c-0.3,0.4-1.2,0.4-1.6,0.7
			c-0.3,0.2-0.5,0.4-0.5,0.9c0,0.6,0.2,1,0.8,1c0.6,0,1.2-0.5,1.2-1.1V44.7z"/>
		<path class="st0" d="M26.2,42h1l1.1,4.7h0l1.1-4.7h1l-1.6,5.9h-1.1L26.2,42z"/>
		<path class="st0" d="M32,45c0,0.9,0,2.3,1.1,2.3c0.9,0,1-0.9,1-1.4H35c0,0.6-0.4,2.1-2,2.1c-1.4,0-2-1-2-3c0-1.5,0.3-3.2,2.1-3.2
			c1.8,0,2,1.6,2,2.8V45H32z M34.1,44.3V44c0-0.7-0.2-1.4-1-1.4c-1,0-1.1,1.2-1.1,1.5v0.2H34.1z M33.3,39.6h1.1l-1.2,1.6h-0.7
			L33.3,39.6z"/>
		<path class="st0" d="M38.6,43.7c0-0.7-0.2-1.2-0.9-1.2c-0.3,0-1,0.1-1,0.9c0,0.7,0.7,0.8,1.5,1.1c0.7,0.2,1.4,0.5,1.4,1.7
			c0,1.2-0.8,1.8-1.9,1.8c-2,0-2-1.5-2-2.1h0.9c0,0.7,0.2,1.4,1.1,1.4c0.3,0,1-0.1,1-1c0-0.8-0.7-1-1.4-1.2
			c-0.7-0.2-1.5-0.5-1.5-1.7c0-1.1,0.9-1.6,1.9-1.6c1.7,0,1.8,1.2,1.8,1.9H38.6z"/>
		<path class="st0" d="M47.1,47.9h-0.9v-0.7h0c-0.1,0.4-0.6,0.9-1.3,0.9c-1.4,0-1.9-1.2-1.9-3.1c0-1.2,0.2-3.1,1.9-3.1
			c0.5,0,1.1,0.3,1.3,0.8h0V40h0.9V47.9z M45,47.2c1,0,1.2-1,1.2-2.3c0-1.1-0.2-2.3-1.2-2.3c-0.9,0-1.1,0.9-1.1,2.3
			S44.2,47.2,45,47.2z"/>
		<path class="st0" d="M49.1,45c0,0.9,0,2.3,1.1,2.3c0.9,0,1-0.9,1-1.4h0.9c0,0.6-0.4,2.1-2,2.1c-1.4,0-2-1-2-3
			c0-1.5,0.3-3.2,2.1-3.2c1.8,0,2,1.6,2,2.8V45H49.1z M51.2,44.3V44c0-0.7-0.2-1.4-1-1.4c-1,0-1.1,1.2-1.1,1.5v0.2H51.2z"/>
		<path class="st0" d="M55.3,42h1l0.9,4.8h0l1-4.8h1.1l1,4.8h0l0.9-4.8h1l-1.4,5.9h-1l-1-4.8h0l-1,4.8h-1.1L55.3,42z"/>
		<path class="st0" d="M62.4,42h1l0.9,4.8h0l1-4.8h1.1l1,4.8h0l0.9-4.8h1L68,47.9h-1l-1-4.8h0l-1,4.8h-1.1L62.4,42z"/>
		<path class="st0" d="M69.6,42h1l0.9,4.8h0l1-4.8h1.1l1,4.8h0l0.9-4.8h1l-1.4,5.9h-1l-1-4.8h0l-1,4.8h-1.1L69.6,42z"/>
		<path class="st0" d="M77,46.7h1v1.2h-1V46.7z"/>
		<path class="st0" d="M82,43.7c0-0.7-0.2-1.2-0.9-1.2c-0.3,0-1,0.1-1,0.9c0,0.7,0.7,0.8,1.5,1.1c0.7,0.2,1.4,0.5,1.4,1.7
			c0,1.2-0.8,1.8-1.9,1.8c-2,0-2-1.5-2-2.1H80c0,0.7,0.2,1.4,1.1,1.4c0.3,0,1-0.1,1-1c0-0.8-0.7-1-1.4-1.2c-0.7-0.2-1.5-0.5-1.5-1.7
			c0-1.1,0.9-1.6,1.9-1.6c1.7,0,1.8,1.2,1.8,1.9H82z"/>
		<path class="st0" d="M86.7,43.8c0-0.6-0.2-1.2-0.9-1.2c-0.6,0-1.2,0.3-1.2,2.4c0,0.8,0,2.3,1.1,2.3c0.8,0,1-0.8,1-1.5h0.9
			c0,0.9-0.5,2.2-1.9,2.2c-1.4,0-2-1-2-3c0-1.5,0.3-3.2,2.1-3.2c1.6,0,1.9,1.3,1.9,1.9H86.7z"/>
		<path class="st0" d="M88.6,40h0.9v2.6h0c0.2-0.5,0.9-0.8,1.4-0.8c1.5,0,1.5,1.2,1.5,1.9v4.2h-0.9v-4.1c0-0.5,0-1.2-0.9-1.2
			c-0.5,0-1.2,0.3-1.2,1.2v4.1h-0.9V40z"/>
		<path class="st0" d="M93.2,42h1l0.9,4.8h0l1-4.8h1.1l1,4.8h0l0.9-4.8h1l-1.4,5.9h-1l-1-4.8h0l-1,4.8h-1.1L93.2,42z"/>
		<path class="st0" d="M100.7,43.8c0-1.3,0.6-1.9,2-1.9c1.8,0,1.8,1.1,1.8,1.7v3.3c0,0.2,0,0.5,0.3,0.5c0.1,0,0.2,0,0.2-0.1v0.7
			c-0.1,0-0.3,0.1-0.5,0.1c-0.4,0-0.8,0-0.8-0.8h0c-0.3,0.5-0.9,0.8-1.4,0.8c-1.1,0-1.6-0.7-1.6-1.7c0-0.8,0.4-1.4,1.1-1.6l1.2-0.4
			c0.7-0.2,0.7-0.4,0.7-0.9c0-0.5-0.3-0.9-0.9-0.9c-1,0-1,0.9-1,1.2v0.1H100.7z M103.5,44.7c-0.3,0.4-1.2,0.4-1.6,0.7
			c-0.3,0.2-0.5,0.4-0.5,0.9c0,0.6,0.2,1,0.8,1c0.6,0,1.2-0.5,1.2-1.1V44.7z"/>
		<path class="st0" d="M105.7,40h0.9v2.6h0c0.2-0.5,0.8-0.8,1.4-0.8c1.6,0,1.8,1.9,1.8,3.1c0,1.7-0.6,3.1-1.9,3.1
			c-0.6,0-1.2-0.4-1.3-0.9h0v0.7h-0.9V40z M107.8,47.2c0.9,0,1.1-1,1.1-2.3c0-1.4-0.2-2.3-1.1-2.3c-1,0-1.2,1.2-1.2,2.3
			C106.6,46.1,106.8,47.2,107.8,47.2z"/>
		<path class="st0" d="M111.6,45c0,0.9,0,2.3,1.1,2.3c0.9,0,1-0.9,1-1.4h0.9c0,0.6-0.4,2.1-2,2.1c-1.4,0-2-1-2-3
			c0-1.5,0.3-3.2,2.1-3.2c1.8,0,2,1.6,2,2.8V45H111.6z M113.7,44.3V44c0-0.7-0.2-1.4-1-1.4c-1,0-1.1,1.2-1.1,1.5v0.2H113.7z"/>
		<path class="st0" d="M115.9,46.7h1v1.2h-1V46.7z"/>
		<path class="st0" d="M121.1,43.8c0-0.6-0.2-1.2-0.9-1.2c-0.6,0-1.2,0.3-1.2,2.4c0,0.8,0,2.3,1.1,2.3c0.8,0,1-0.8,1-1.5h0.9
			c0,0.9-0.5,2.2-1.9,2.2c-1.4,0-2-1-2-3c0-1.5,0.3-3.2,2.1-3.2c1.6,0,1.9,1.3,1.9,1.9H121.1z"/>
		<path class="st0" d="M124.8,41.8c1.7,0,2.1,1.4,2.1,3.1s-0.4,3.1-2.1,3.1c-1.7,0-2.1-1.4-2.1-3.1S123.1,41.8,124.8,41.8z
			 M126,44.9c0-1.3-0.2-2.4-1.2-2.4c-0.9,0-1.1,1.1-1.1,2.4s0.2,2.4,1.1,2.4C125.8,47.3,126,46.2,126,44.9z"/>
		<path class="st0" d="M128,42h0.9v0.7h0c0.2-0.5,0.9-0.8,1.4-0.8c0.7,0,1.1,0.3,1.3,0.9c0.3-0.5,0.8-0.9,1.4-0.9
			c1.6,0,1.6,1.2,1.6,1.9v4.2h-0.9v-4.1c0-0.5,0-1.2-0.8-1.2c-0.4,0-1.1,0.3-1.1,1.2v4.1h-0.9v-4.1c0-0.5,0-1.2-0.8-1.2
			c-0.4,0-1.1,0.3-1.1,1.2v4.1H128V42z"/>
		<path class="st0" d="M136,46.7h1v1.2h-1V46.7z"/>
		<path class="st0" d="M138.6,42h0.9v0.7h0c0.2-0.5,0.9-0.8,1.4-0.8c0.7,0,1.1,0.3,1.3,0.9c0.3-0.5,0.8-0.9,1.4-0.9
			c1.6,0,1.6,1.2,1.6,1.9v4.2h-0.9v-4.1c0-0.5,0-1.2-0.8-1.2c-0.4,0-1.1,0.3-1.1,1.2v4.1h-0.9v-4.1c0-0.5,0-1.2-0.8-1.2
			c-0.4,0-1.1,0.3-1.1,1.2v4.1h-0.9V42z"/>
		<path class="st0" d="M146,42h1l1.1,2.1l1.1-2.1h1l-1.5,2.8l1.6,3.1h-1l-1.2-2.3l-1.1,2.3h-1l1.6-3.1L146,42z"/>
	</g>
</g>
</svg>
